<?xml version="1.0" encoding="UTF-8" standalone="no"?>
<svg
   width="24"
   height="24"
   viewBox="0 0 24 24"
   fill="none"
   stroke="currentColor"
   stroke-width="1.2"
   stroke-linecap="round"
   stroke-linejoin="round"
   version="1.1"
   id="svg3"
   sodipodi:docname=".tmp_book-copy.svg"
   xmlns:inkscape="http://www.inkscape.org/namespaces/inkscape"
   xmlns:sodipodi="http://sodipodi.sourceforge.net/DTD/sodipodi-0.dtd"
   xmlns="http://www.w3.org/2000/svg"
   xmlns:svg="http://www.w3.org/2000/svg">
  <defs
     id="defs3" />
  <sodipodi:namedview
     id="namedview3"
     pagecolor="#ffffff"
     bordercolor="#000000"
     borderopacity="0.25"
     inkscape:showpageshadow="2"
     inkscape:pageopacity="0.0"
     inkscape:pagecheckerboard="0"
     inkscape:deskcolor="#d1d1d1" />
  <path
     id="path1"
     style="baseline-shift:baseline;display:inline;overflow:visible;vector-effect:none;fill:#000000;stroke:none;stroke-linecap:butt;stroke-linejoin:miter;enable-background:accumulate;stop-color:#000000;stop-opacity:1;opacity:1"
     d="M 11 1.4003906 C 9.5711664 1.4003906 8.4003906 2.5711664 8.4003906 4 L 8.4003906 15 C 8.4003906 15.633333 8.6074843 16.274728 9.0507812 16.773438 C 9.494078 17.272147 10.183334 17.599609 11 17.599609 L 20.5 17.599609 C 21.100406 17.599609 21.599609 17.100406 21.599609 16.5 L 21.599609 13 L 21.599609 2.5 C 21.599609 1.8995935 21.100406 1.4003906 20.5 1.4003906 L 11 1.4003906 z M 11 2.5996094 L 20.400391 2.5996094 L 20.400391 12.400391 L 11 12.400391 C 10.413247 12.400391 10.010631 12.713942 9.5996094 12.994141 L 9.5996094 4 C 9.5996094 3.2196946 10.219695 2.5996094 11 2.5996094 z M 5 6.4003906 C 3.5711664 6.4003906 2.4003906 7.5711664 2.4003906 9 L 2.4003906 20 C 2.4003906 20.633333 2.6074844 21.274728 3.0507812 21.773438 C 3.494078 22.272147 4.1833336 22.599609 5 22.599609 L 14.5 22.599609 C 15.100406 22.599609 15.599609 22.100406 15.599609 21.5 L 15.599609 21 A 0.60000002 0.60000002 0 0 0 15 20.400391 A 0.60000002 0.60000002 0 0 0 14.400391 21 L 14.400391 21.400391 L 5 21.400391 C 4.4833337 21.400391 4.1725883 21.227854 3.9492188 20.976562 C 3.7258492 20.725273 3.5996094 20.366667 3.5996094 20 C 3.5996094 19.633333 3.7258492 19.274728 3.9492188 19.023438 C 4.1725883 18.772147 4.4833337 18.599609 5 18.599609 L 5.8027344 18.599609 A 0.60000002 0.60000002 0 0 0 6.4023438 18 A 0.60000002 0.60000002 0 0 0 5.8027344 17.400391 L 5 17.400391 C 4.4682874 17.400391 3.9905845 17.538929 3.5996094 17.773438 L 3.5996094 9 C 3.5996094 8.2196946 4.2196946 7.5996094 5 7.5996094 A 0.60000002 0.60000002 0 0 0 5.5996094 7 A 0.60000002 0.60000002 0 0 0 5 6.4003906 z M 11 13.599609 L 20.400391 13.599609 L 20.400391 16.400391 L 11 16.400391 C 10.483334 16.400391 10.172588 16.227853 9.9492188 15.976562 C 9.7258492 15.725272 9.5996094 15.366667 9.5996094 15 C 9.5996094 14.633333 9.7258491 14.274727 9.9492188 14.023438 C 10.172588 13.772146 10.483334 13.599609 11 13.599609 z " />
</svg>
