<?xml version="1.0" encoding="UTF-8" standalone="no"?>
<svg
   width="24"
   height="24"
   viewBox="0 0 24 24"
   fill="none"
   stroke="currentColor"
   stroke-width="1.2"
   stroke-linecap="round"
   stroke-linejoin="round"
   version="1.1"
   id="svg6"
   sodipodi:docname=".tmp_bot-message-square.svg"
   xmlns:inkscape="http://www.inkscape.org/namespaces/inkscape"
   xmlns:sodipodi="http://sodipodi.sourceforge.net/DTD/sodipodi-0.dtd"
   xmlns="http://www.w3.org/2000/svg"
   xmlns:svg="http://www.w3.org/2000/svg">
  <defs
     id="defs6" />
  <sodipodi:namedview
     id="namedview6"
     pagecolor="#ffffff"
     bordercolor="#000000"
     borderopacity="0.25"
     inkscape:showpageshadow="2"
     inkscape:pageopacity="0.0"
     inkscape:pagecheckerboard="0"
     inkscape:deskcolor="#d1d1d1" />
  <path
     id="path1"
     style="baseline-shift:baseline;display:inline;overflow:visible;vector-effect:none;fill:#000000;stroke:none;stroke-linecap:butt;stroke-linejoin:miter;enable-background:accumulate;stop-color:#000000;stop-opacity:1;opacity:1"
     d="M 8 1.4003906 A 0.60000002 0.60000002 0 0 0 7.4003906 2 A 0.60000002 0.60000002 0 0 0 8 2.5996094 L 11.400391 2.5996094 L 11.400391 5.4003906 L 6 5.4003906 C 4.5711664 5.4003906 3.4003906 6.5711664 3.4003906 8 L 3.4003906 11.400391 L 2 11.400391 A 0.60000002 0.60000002 0 0 0 1.4003906 12 A 0.60000002 0.60000002 0 0 0 2 12.599609 L 3.4003906 12.599609 L 3.4003906 20.285156 C 3.4004626 20.843178 3.7600519 21.31015 4.2089844 21.496094 C 4.6579169 21.682038 5.2421019 21.607435 5.6367188 21.212891 L 7.8378906 19.009766 C 8.1005434 18.747034 8.4566218 18.599689 8.828125 18.599609 L 18 18.599609 C 19.428834 18.599609 20.599609 17.428834 20.599609 16 L 20.599609 12.599609 L 22 12.599609 A 0.60000002 0.60000002 0 0 0 22.599609 12 A 0.60000002 0.60000002 0 0 0 22 11.400391 L 20.599609 11.400391 L 20.599609 8 C 20.599609 6.5711664 19.428834 5.4003906 18 5.4003906 L 12.599609 5.4003906 L 12.599609 2 A 0.60006002 0.60006002 0 0 0 12 1.4003906 L 8 1.4003906 z M 6 6.5996094 L 18 6.5996094 C 18.780305 6.5996094 19.400391 7.2196946 19.400391 8 L 19.400391 16 C 19.400391 16.780305 18.780305 17.400391 18 17.400391 L 8.828125 17.400391 C 8.1388489 17.400538 7.4775526 17.674644 6.9902344 18.162109 L 4.7871094 20.363281 C 4.7344634 20.415921 4.7132004 20.405449 4.6679688 20.386719 C 4.6227377 20.367989 4.5996184 20.359599 4.5996094 20.285156 L 4.5996094 8 C 4.5996091 7.2196946 5.2196946 6.5996094 6 6.5996094 z M 9 10.400391 A 0.60000002 0.60000002 0 0 0 8.4003906 11 L 8.4003906 13 A 0.60000002 0.60000002 0 0 0 9 13.599609 A 0.60000002 0.60000002 0 0 0 9.5996094 13 L 9.5996094 11 A 0.60000002 0.60000002 0 0 0 9 10.400391 z M 15 10.400391 A 0.60000002 0.60000002 0 0 0 14.400391 11 L 14.400391 13 A 0.60000002 0.60000002 0 0 0 15 13.599609 A 0.60000002 0.60000002 0 0 0 15.599609 13 L 15.599609 11 A 0.60000002 0.60000002 0 0 0 15 10.400391 z " />
</svg>
