<?xml version="1.0" encoding="UTF-8" standalone="no"?>
<svg
   width="24"
   height="24"
   viewBox="0 0 24 24"
   fill="none"
   stroke="currentColor"
   stroke-width="1.2"
   stroke-linecap="round"
   stroke-linejoin="round"
   version="1.1"
   id="svg14"
   sodipodi:docname=".tmp_brain-cog.svg"
   xmlns:inkscape="http://www.inkscape.org/namespaces/inkscape"
   xmlns:sodipodi="http://sodipodi.sourceforge.net/DTD/sodipodi-0.dtd"
   xmlns="http://www.w3.org/2000/svg"
   xmlns:svg="http://www.w3.org/2000/svg">
  <defs
     id="defs14" />
  <sodipodi:namedview
     id="namedview14"
     pagecolor="#ffffff"
     bordercolor="#000000"
     borderopacity="0.25"
     inkscape:showpageshadow="2"
     inkscape:pageopacity="0.0"
     inkscape:pagecheckerboard="0"
     inkscape:deskcolor="#d1d1d1" />
  <path
     id="path1"
     style="baseline-shift:baseline;display:inline;overflow:visible;vector-effect:none;fill:#000000;stroke:none;stroke-linecap:butt;stroke-linejoin:miter;enable-background:accumulate;stop-color:#000000;stop-opacity:1;opacity:1"
     d="M 15.083984 1.4003906 C 14.804898 1.3939689 14.531303 1.4216547 14.265625 1.4785156 C 13.289935 1.6873346 12.473329 2.3300857 11.957031 3.1777344 C 11.457136 2.3716749 10.770188 1.7341663 9.8964844 1.5097656 C 8.4442575 1.136778 6.7190121 1.6707022 5.84375 3.265625 C 5.5983719 3.712268 5.5427334 4.2218794 5.5019531 4.7265625 C 3.0444632 5.5974133 1.7616453 8.332439 2.7363281 10.730469 C 1.5998166 11.844881 1.2023831 13.439694 1.4824219 14.878906 C 1.7079285 16.037861 2.37931 17.125849 3.4003906 17.822266 C 3.293954 20.060061 4.7439388 21.756711 6.5234375 22.359375 C 8.385375 22.989959 10.686337 22.448068 11.929688 20.386719 L 11.931641 20.384766 C 11.940438 20.380021 11.964577 20.367188 12 20.367188 C 12.035443 20.367188 12.059574 20.380028 12.068359 20.384766 L 12.070312 20.386719 C 13.313612 22.447539 15.614821 22.989642 17.476562 22.359375 C 19.256846 21.756685 20.707137 20.059457 20.599609 17.820312 C 21.619704 17.123814 22.290225 16.036863 22.515625 14.878906 C 22.79561 13.44053 22.397211 11.846749 21.261719 10.732422 C 22.238567 8.3389088 21.014442 5.5614649 18.580078 4.6757812 C 18.442399 3.2420095 17.451136 1.9305907 15.931641 1.5234375 C 15.647651 1.4473416 15.363071 1.4068124 15.083984 1.4003906 z M 8.8457031 2.5878906 C 9.0970057 2.5782108 9.3501617 2.6083089 9.5976562 2.671875 C 10.587634 2.9261394 11.401551 3.7139401 11.400391 5 A 0.60006002 0.60006002 0 0 0 12.599609 5 C 12.599539 3.4067801 14.082171 2.2692818 15.621094 2.6816406 C 16.736474 2.9805098 17.418404 3.968757 17.40625 5.015625 A 0.60000002 0.60000002 0 0 0 17.398438 5.1796875 C 17.370453 5.5239452 17.267219 5.871737 17.078125 6.1992188 A 0.60000002 0.60000002 0 0 0 17.298828 7.0195312 A 0.60000002 0.60000002 0 0 0 18.117188 6.8007812 C 18.278807 6.5208814 18.397705 6.2291636 18.476562 5.9335938 C 19.994326 6.6539156 20.752776 8.3843781 20.255859 9.9882812 C 20.089672 9.8970666 19.914896 9.8131854 19.730469 9.7382812 A 0.60000002 0.60000002 0 0 0 18.949219 10.068359 A 0.60000002 0.60000002 0 0 0 19.279297 10.849609 C 19.567896 10.966822 19.824417 11.106411 20.050781 11.265625 A 0.60000002 0.60000002 0 0 0 20.238281 11.423828 A 0.60000002 0.60000002 0 0 0 20.285156 11.445312 C 21.267261 12.272279 21.562005 13.499042 21.337891 14.650391 C 21.16129 15.557644 20.667431 16.387265 19.869141 16.892578 A 0.60000002 0.60000002 0 0 0 19.523438 17.082031 C 19.090115 17.28411 18.582525 17.399643 18.003906 17.400391 A 0.60000002 0.60000002 0 0 0 17.404297 18 A 0.60000002 0.60000002 0 0 0 18.005859 18.599609 C 18.503055 18.598965 18.966941 18.52657 19.394531 18.396484 C 19.271439 19.83588 18.295091 20.815298 17.091797 21.222656 C 15.668584 21.704465 14.011945 21.359073 13.056641 19.701172 A 0.60006002 0.60006002 0 0 0 13.054688 19.699219 C 12.792925 19.246917 12.362462 19.166016 12 19.166016 C 11.637538 19.166016 11.207121 19.246866 10.945312 19.699219 A 0.60006002 0.60006002 0 0 0 10.943359 19.701172 C 9.988029 21.359478 8.3315761 21.704711 6.9082031 21.222656 C 5.7055389 20.81535 4.7292776 19.836846 4.6054688 18.398438 C 5.0347476 18.528718 5.5006007 18.599888 6 18.599609 A 0.60000002 0.60000002 0 0 0 6.5996094 18 A 0.60000002 0.60000002 0 0 0 6 17.400391 C 5.4203666 17.400714 4.9125346 17.285899 4.4785156 17.083984 A 0.60000002 0.60000002 0 0 0 4.1269531 16.890625 C 3.3290538 16.384777 2.8367184 15.555849 2.6601562 14.648438 C 2.4362757 13.49784 2.7310873 12.275214 3.7109375 11.449219 A 0.60000002 0.60000002 0 0 0 3.7617188 11.423828 A 0.60000002 0.60000002 0 0 0 3.9511719 11.263672 C 4.1779132 11.104987 4.4356137 10.964359 4.7246094 10.847656 A 0.60000002 0.60000002 0 0 0 5.0566406 10.066406 A 0.60000002 0.60000002 0 0 0 4.2753906 9.734375 C 4.0886217 9.8097961 3.9102977 9.8941893 3.7421875 9.9863281 C 3.2464056 8.3830871 4.0065523 6.6537988 5.5234375 5.9335938 C 5.6048442 6.2357756 5.7251463 6.5280039 5.8828125 6.8007812 A 0.60000002 0.60000002 0 0 0 6.703125 7.0195312 A 0.60000002 0.60000002 0 0 0 6.921875 6.1992188 C 6.7282941 5.8643057 6.6181595 5.4880192 6.6015625 5.1015625 A 0.60006002 0.60006002 0 0 0 6.6015625 5.0996094 C 6.5830979 4.6616473 6.685416 4.2279414 6.8964844 3.84375 A 0.60006002 0.60006002 0 0 0 6.8964844 3.8417969 C 7.3605247 2.9962094 8.0917955 2.61693 8.8457031 2.5878906 z M 10.46875 7.703125 A 0.60000002 0.60000002 0 0 0 10.238281 7.75 A 0.60000002 0.60000002 0 0 0 9.9140625 8.5351562 L 10.087891 8.953125 C 9.6306061 9.2416705 9.2416705 9.6306061 8.953125 10.087891 L 8.5351562 9.9140625 A 0.60000002 0.60000002 0 0 0 7.75 10.238281 A 0.60000002 0.60000002 0 0 0 8.0742188 11.023438 L 8.4921875 11.195312 L 8.4921875 11.197266 C 8.4329967 11.455301 8.4003906 11.724572 8.4003906 12 C 8.4003906 12.275428 8.4329966 12.544699 8.4921875 12.802734 C 8.4923294 12.803353 8.4920453 12.804069 8.4921875 12.804688 L 8.0742188 12.976562 A 0.60000002 0.60000002 0 0 0 7.75 13.761719 A 0.60000002 0.60000002 0 0 0 8.5351562 14.085938 L 8.953125 13.912109 C 9.2416705 14.369394 9.6306061 14.75833 10.087891 15.046875 L 9.9140625 15.464844 A 0.60000002 0.60000002 0 0 0 10.238281 16.25 A 0.60000002 0.60000002 0 0 0 11.023438 15.925781 L 11.195312 15.507812 L 11.197266 15.507812 C 11.455301 15.567003 11.724572 15.599609 12 15.599609 C 12.27574 15.599609 12.54443 15.569087 12.802734 15.509766 L 12.974609 15.925781 A 0.60000002 0.60000002 0 0 0 13.759766 16.25 A 0.60000002 0.60000002 0 0 0 14.083984 15.466797 L 13.910156 15.046875 C 14.367959 14.758253 14.758078 14.369792 15.046875 13.912109 L 15.464844 14.085938 A 0.60000002 0.60000002 0 0 0 16.25 13.761719 A 0.60000002 0.60000002 0 0 0 15.925781 12.976562 L 15.507812 12.804688 C 15.507955 12.804069 15.507671 12.803353 15.507812 12.802734 C 15.567003 12.544699 15.599609 12.275428 15.599609 12 C 15.599609 11.724572 15.567003 11.455301 15.507812 11.197266 C 15.507671 11.196647 15.507955 11.195931 15.507812 11.195312 L 15.925781 11.023438 A 0.60000002 0.60000002 0 0 0 16.25 10.238281 A 0.60000002 0.60000002 0 0 0 15.464844 9.9140625 L 15.046875 10.087891 C 14.75833 9.6306061 14.369394 9.2416705 13.912109 8.953125 L 14.085938 8.5351562 A 0.60000002 0.60000002 0 0 0 13.761719 7.75 A 0.60000002 0.60000002 0 0 0 12.976562 8.0742188 L 12.804688 8.4921875 C 12.804069 8.4920453 12.803353 8.4923294 12.802734 8.4921875 C 12.544699 8.4329966 12.275428 8.4003906 12 8.4003906 C 11.724572 8.4003906 11.455301 8.4329967 11.197266 8.4921875 L 11.195312 8.4921875 L 11.023438 8.0742188 A 0.60000002 0.60000002 0 0 0 10.46875 7.703125 z M 12 9.5996094 C 12.311783 9.5996094 12.60835 9.6590048 12.880859 9.765625 A 0.60000002 0.60000002 0 0 0 12.917969 9.78125 A 0.60000002 0.60000002 0 0 0 12.958984 9.796875 C 13.516032 10.037913 13.962086 10.483969 14.203125 11.041016 A 0.60000002 0.60000002 0 0 0 14.21875 11.082031 A 0.60000002 0.60000002 0 0 0 14.234375 11.119141 C 14.340994 11.391649 14.400391 11.688218 14.400391 12 C 14.400391 12.311782 14.340994 12.608351 14.234375 12.880859 A 0.60000002 0.60000002 0 0 0 14.21875 12.917969 A 0.60000002 0.60000002 0 0 0 14.203125 12.958984 C 13.964345 13.510811 13.524356 13.9547 12.974609 14.197266 A 0.60000002 0.60000002 0 0 0 12.917969 14.216797 A 0.60000002 0.60000002 0 0 0 12.865234 14.242188 C 12.597083 14.344894 12.305721 14.400391 12 14.400391 C 11.688218 14.400391 11.391649 14.340994 11.119141 14.234375 A 0.60000002 0.60000002 0 0 0 11.082031 14.21875 A 0.60000002 0.60000002 0 0 0 11.041016 14.203125 C 10.483969 13.962086 10.037913 13.516032 9.796875 12.958984 A 0.60000002 0.60000002 0 0 0 9.78125 12.917969 A 0.60000002 0.60000002 0 0 0 9.765625 12.880859 C 9.6590048 12.60835 9.5996094 12.311783 9.5996094 12 C 9.5996094 11.688217 9.6590048 11.39165 9.765625 11.119141 A 0.60000002 0.60000002 0 0 0 9.78125 11.082031 A 0.60000002 0.60000002 0 0 0 9.796875 11.041016 C 10.037913 10.483967 10.483967 10.037913 11.041016 9.796875 A 0.60000002 0.60000002 0 0 0 11.082031 9.78125 A 0.60000002 0.60000002 0 0 0 11.119141 9.765625 C 11.39165 9.6590048 11.688217 9.5996094 12 9.5996094 z " />
</svg>
