<?xml version="1.0" encoding="UTF-8" standalone="no"?>
<svg
   width="24"
   height="24"
   viewBox="0 0 24 24"
   fill="none"
   stroke="currentColor"
   stroke-width="1.2"
   stroke-linecap="round"
   stroke-linejoin="round"
   version="1.1"
   id="svg2"
   sodipodi:docname=".tmp_chef-hat.svg"
   xmlns:inkscape="http://www.inkscape.org/namespaces/inkscape"
   xmlns:sodipodi="http://sodipodi.sourceforge.net/DTD/sodipodi-0.dtd"
   xmlns="http://www.w3.org/2000/svg"
   xmlns:svg="http://www.w3.org/2000/svg">
  <defs
     id="defs2" />
  <sodipodi:namedview
     id="namedview2"
     pagecolor="#ffffff"
     bordercolor="#000000"
     borderopacity="0.25"
     inkscape:showpageshadow="2"
     inkscape:pageopacity="0.0"
     inkscape:pagecheckerboard="0"
     inkscape:deskcolor="#d1d1d1" />
  <path
     id="path1"
     style="baseline-shift:baseline;display:inline;overflow:visible;vector-effect:none;fill:#000000;stroke:none;stroke-linecap:butt;stroke-linejoin:miter;enable-background:accumulate;stop-color:#000000;stop-opacity:1;opacity:1"
     d="M 12 2.3964844 C 10.036309 2.3964844 8.0834207 3.457643 7.0585938 5.4550781 C 4.7721362 5.4163031 3.0870193 6.9166188 2.5703125 8.7539062 C 2.0215367 10.705224 2.7367579 13.060212 5.0117188 14.148438 C 5.2556509 14.265951 5.4003906 14.46963 5.4003906 14.648438 L 5.4003906 17 L 5.4003906 20 C 5.4003906 20.876549 6.1234512 21.599609 7 21.599609 L 17 21.599609 C 17.876549 21.599609 18.599609 20.876549 18.599609 20 L 18.599609 17 L 18.599609 14.650391 C 18.599609 14.469977 18.743422 14.26682 18.986328 14.150391 C 21.263637 13.063114 21.982565 10.706175 21.433594 8.7539062 C 20.916553 6.9151908 19.228355 5.4138935 16.939453 5.4550781 C 15.914485 3.4582637 13.963381 2.3964844 12 2.3964844 z M 12 3.5957031 C 13.646395 3.5957031 15.268261 4.4615753 16.041016 6.2578125 A 0.60006002 0.60006002 0 0 0 16.654297 6.6171875 C 18.610643 6.4147231 19.862879 7.6041921 20.277344 9.078125 C 20.691808 10.552058 20.243904 12.221539 18.46875 13.068359 A 0.60006002 0.60006002 0 0 0 18.466797 13.068359 C 17.887703 13.34593 17.400391 13.916804 17.400391 14.650391 L 17.400391 16.400391 L 6.5996094 16.400391 L 6.5996094 14.648438 C 6.5996094 13.915245 6.1112711 13.346845 5.5332031 13.068359 A 0.60006002 0.60006002 0 0 0 5.53125 13.066406 C 3.7580767 12.218968 3.3103104 10.551274 3.7246094 9.078125 C 4.1389084 7.6049757 5.3907188 6.4161906 7.3457031 6.6171875 A 0.60006002 0.60006002 0 0 0 7.9589844 6.2578125 C 8.7317391 4.4615753 10.353605 3.5957031 12 3.5957031 z M 6.5996094 17.599609 L 17.400391 17.599609 L 17.400391 20 C 17.400391 20.228021 17.228021 20.400391 17 20.400391 L 7 20.400391 C 6.7719793 20.400391 6.5996094 20.228021 6.5996094 20 L 6.5996094 17.599609 z " />
</svg>
