<?xml version="1.0" encoding="UTF-8" standalone="no"?>
<svg
   width="24"
   height="24"
   viewBox="0 0 24 24"
   fill="none"
   stroke="currentColor"
   stroke-width="1.2"
   stroke-linecap="round"
   stroke-linejoin="round"
   version="1.1"
   id="svg2"
   sodipodi:docname=".tmp_chevrons-down-up.svg"
   xmlns:inkscape="http://www.inkscape.org/namespaces/inkscape"
   xmlns:sodipodi="http://sodipodi.sourceforge.net/DTD/sodipodi-0.dtd"
   xmlns="http://www.w3.org/2000/svg"
   xmlns:svg="http://www.w3.org/2000/svg">
  <defs
     id="defs2" />
  <sodipodi:namedview
     id="namedview2"
     pagecolor="#ffffff"
     bordercolor="#000000"
     borderopacity="0.25"
     inkscape:showpageshadow="2"
     inkscape:pageopacity="0.0"
     inkscape:pagecheckerboard="0"
     inkscape:deskcolor="#d1d1d1" />
  <path
     id="path1"
     style="baseline-shift:baseline;display:inline;overflow:visible;vector-effect:none;fill:#000000;stroke:none;stroke-linecap:butt;stroke-linejoin:miter;enable-background:accumulate;stop-color:#000000;stop-opacity:1;opacity:1"
     d="M 7 3.4003906 A 0.60000002 0.60000002 0 0 0 6.5761719 3.5761719 A 0.60000002 0.60000002 0 0 0 6.5761719 4.4238281 L 11.576172 9.4238281 A 0.60006002 0.60006002 0 0 0 12.423828 9.4238281 L 17.423828 4.4238281 A 0.60000002 0.60000002 0 0 0 17.423828 3.5761719 A 0.60000002 0.60000002 0 0 0 17 3.4003906 A 0.60000002 0.60000002 0 0 0 16.576172 3.5761719 L 12 8.1523438 L 7.4238281 3.5761719 A 0.60000002 0.60000002 0 0 0 7 3.4003906 z M 12 14.400391 A 0.60006002 0.60006002 0 0 0 11.576172 14.576172 L 6.5761719 19.576172 A 0.60000002 0.60000002 0 0 0 6.5761719 20.423828 A 0.60000002 0.60000002 0 0 0 7.4238281 20.423828 L 12 15.847656 L 16.576172 20.423828 A 0.60000002 0.60000002 0 0 0 17.423828 20.423828 A 0.60000002 0.60000002 0 0 0 17.423828 19.576172 L 12.423828 14.576172 A 0.60006002 0.60006002 0 0 0 12 14.400391 z " />
</svg>
