<?xml version="1.0" encoding="UTF-8" standalone="no"?>
<svg
   width="24"
   height="24"
   viewBox="0 0 24 24"
   fill="none"
   stroke="currentColor"
   stroke-width="1.2"
   stroke-linecap="round"
   stroke-linejoin="round"
   version="1.1"
   id="svg2"
   sodipodi:docname=".tmp_dessert.svg"
   xmlns:inkscape="http://www.inkscape.org/namespaces/inkscape"
   xmlns:sodipodi="http://sodipodi.sourceforge.net/DTD/sodipodi-0.dtd"
   xmlns="http://www.w3.org/2000/svg"
   xmlns:svg="http://www.w3.org/2000/svg">
  <defs
     id="defs2" />
  <sodipodi:namedview
     id="namedview2"
     pagecolor="#ffffff"
     bordercolor="#000000"
     borderopacity="0.25"
     inkscape:showpageshadow="2"
     inkscape:pageopacity="0.0"
     inkscape:pagecheckerboard="0"
     inkscape:deskcolor="#d1d1d1" />
  <path
     id="path1"
     style="baseline-shift:baseline;display:inline;overflow:visible;vector-effect:none;fill:#000000;stroke:none;stroke-linecap:butt;stroke-linejoin:miter;enable-background:accumulate;stop-color:#000000;stop-opacity:1;opacity:1"
     d="M 12 1.4003906 C 11.07308 1.4003906 10.255455 1.8926619 9.7949219 2.6289062 C 4.9143488 3.6656147 1.3987046 7.9870523 1.4003906 13 C 1.4003906 13.816666 1.7278533 14.505922 2.2265625 14.949219 C 2.3645389 15.071864 2.5132942 15.17657 2.6699219 15.263672 C 3.8256957 20.108573 7.9331538 22.601563 12 22.601562 C 16.067693 22.601562 20.175293 20.106654 21.330078 15.259766 C 21.487957 15.171903 21.638533 15.06712 21.777344 14.943359 C 22.275388 14.499315 22.600834 13.808854 22.599609 12.992188 C 22.596954 7.9832087 19.081905 3.6653974 14.205078 2.6289062 C 13.744549 1.8926438 12.926933 1.4003906 12 1.4003906 z M 12 2.5996094 C 12.780305 2.5996094 13.400391 3.2196946 13.400391 4 C 13.400391 4.7803054 12.780305 5.4003906 12 5.4003906 C 11.219695 5.4003906 10.599609 4.7803054 10.599609 4 C 10.599609 3.2196946 11.219695 2.5996094 12 2.5996094 z M 9.4003906 3.9609375 C 9.4002021 3.9737389 9.4003906 3.9871563 9.4003906 4 C 9.4003906 5.4288336 10.571166 6.5996094 12 6.5996094 C 13.428834 6.5996094 14.599609 5.4288336 14.599609 4 C 14.599609 3.9878373 14.599778 3.9750154 14.599609 3.9628906 C 18.592994 5.1081093 21.398932 8.7677529 21.400391 12.994141 C 21.401166 13.510807 21.229472 13.823128 20.978516 14.046875 C 20.72756 14.270622 20.36862 14.395934 20.001953 14.396484 C 19.635286 14.397034 19.277017 14.273774 19.025391 14.050781 C 18.773765 13.827789 18.600384 13.516666 18.599609 13 L 18.599609 12 C 18.599609 11.183334 18.272147 10.494078 17.773438 10.050781 C 17.274728 9.6074846 16.633333 9.4003906 16 9.4003906 C 15.366667 9.4003906 14.725271 9.6074846 14.226562 10.050781 C 13.727852 10.494078 13.400391 11.183334 13.400391 12 L 13.400391 16 C 13.400391 16.516666 13.227853 16.827412 12.976562 17.050781 C 12.725271 17.274151 12.366667 17.400391 12 17.400391 C 11.633333 17.400391 11.274727 17.274151 11.023438 17.050781 C 10.772146 16.827412 10.599609 16.516666 10.599609 16 L 10.599609 12 C 10.599609 11.183334 10.272147 10.494078 9.7734375 10.050781 C 9.2747283 9.6074846 8.6333333 9.4003906 8 9.4003906 C 7.3666667 9.4003906 6.7252717 9.6074846 6.2265625 10.050781 C 5.7278533 10.494078 5.4003906 11.183334 5.4003906 12 L 5.4003906 13 C 5.4003906 13.516666 5.2278533 13.827412 4.9765625 14.050781 C 4.7252717 14.274151 4.3666667 14.400391 4 14.400391 C 3.6333333 14.400391 3.2747283 14.274151 3.0234375 14.050781 C 2.7721467 13.827412 2.5996094 13.516666 2.5996094 13 C 2.5981869 8.7708172 5.4043968 5.1066107 9.4003906 3.9609375 z M 8 10.599609 C 8.3666667 10.599609 8.7252717 10.725849 8.9765625 10.949219 C 9.2278533 11.172588 9.4003906 11.483334 9.4003906 12 L 9.4003906 16 C 9.4003906 16.816666 9.7278528 17.505922 10.226562 17.949219 C 10.725271 18.392516 11.366667 18.599609 12 18.599609 C 12.633333 18.599609 13.274727 18.392516 13.773438 17.949219 C 14.272146 17.505922 14.599609 16.816666 14.599609 16 L 14.599609 12 C 14.599609 11.483334 14.772146 11.172588 15.023438 10.949219 C 15.274728 10.725849 15.633333 10.599609 16 10.599609 C 16.366667 10.599609 16.725273 10.725849 16.976562 10.949219 C 17.227853 11.172588 17.400391 11.483334 17.400391 12 L 17.400391 13 C 17.401591 13.816666 17.729142 14.504717 18.228516 14.947266 C 18.725743 15.387912 19.365405 15.596807 19.996094 15.597656 C 18.790889 19.506872 15.413841 21.400391 12 21.400391 C 8.5867266 21.400391 5.2096321 19.507505 4.0039062 15.599609 C 4.6356593 15.598552 5.2760043 15.391382 5.7734375 14.949219 C 6.2721467 14.505922 6.5996094 13.816666 6.5996094 13 L 6.5996094 12 C 6.5996094 11.483334 6.7721467 11.172588 7.0234375 10.949219 C 7.2747283 10.725849 7.6333333 10.599609 8 10.599609 z " />
</svg>
