<?xml version="1.0" encoding="UTF-8" standalone="no"?>
<svg
   width="24"
   height="24"
   viewBox="0 0 24 24"
   fill="none"
   stroke="currentColor"
   stroke-width="1.2"
   stroke-linecap="round"
   stroke-linejoin="round"
   version="1.1"
   id="svg4"
   sodipodi:docname=".tmp_drafting-compass.svg"
   xmlns:inkscape="http://www.inkscape.org/namespaces/inkscape"
   xmlns:sodipodi="http://sodipodi.sourceforge.net/DTD/sodipodi-0.dtd"
   xmlns="http://www.w3.org/2000/svg"
   xmlns:svg="http://www.w3.org/2000/svg">
  <defs
     id="defs4" />
  <sodipodi:namedview
     id="namedview4"
     pagecolor="#ffffff"
     bordercolor="#000000"
     borderopacity="0.25"
     inkscape:showpageshadow="2"
     inkscape:pageopacity="0.0"
     inkscape:pagecheckerboard="0"
     inkscape:deskcolor="#d1d1d1" />
  <path
     id="path1"
     style="baseline-shift:baseline;display:inline;overflow:visible;vector-effect:none;fill:#000000;stroke:none;stroke-linecap:butt;stroke-linejoin:miter;enable-background:accumulate;stop-color:#000000;stop-opacity:1;opacity:1"
     d="M 12 2.4003906 C 10.571166 2.4003906 9.4003906 3.5711664 9.4003906 5 C 9.4003906 5.7505193 9.722556 6.4304047 10.236328 6.90625 L 6.8769531 12.878906 C 6.3146418 12.512191 5.7834189 12.079591 5.2929688 11.580078 A 0.60000002 0.60000002 0 0 0 4.4453125 11.572266 A 0.60000002 0.60000002 0 0 0 4.4375 12.419922 C 5.0087492 13.001727 5.6302537 13.50417 6.2890625 13.925781 L 2.4765625 20.705078 A 0.60000002 0.60000002 0 0 0 2.7050781 21.523438 A 0.60000002 0.60000002 0 0 0 3.5234375 21.294922 L 7.3359375 14.513672 C 11.31949 16.462021 16.280985 15.764062 19.564453 12.419922 A 0.60000002 0.60000002 0 0 0 19.556641 11.572266 A 0.60000002 0.60000002 0 0 0 18.707031 11.580078 C 15.803099 14.53767 11.446474 15.166735 7.9238281 13.46875 L 11.28125 7.4980469 C 11.509645 7.5642646 11.751123 7.5996094 12 7.5996094 C 12.251743 7.5996094 12.495832 7.5637888 12.726562 7.4960938 L 14.396484 10.472656 A 0.60000002 0.60000002 0 0 0 15.212891 10.703125 A 0.60000002 0.60000002 0 0 0 15.443359 9.8867188 L 13.767578 6.9003906 C 14.278274 6.4247886 14.599609 5.7479384 14.599609 5 C 14.599609 3.5711664 13.428834 2.4003906 12 2.4003906 z M 12 3.5996094 C 12.780305 3.5996094 13.400391 4.2196946 13.400391 5 C 13.400391 5.5156866 13.129622 5.9620846 12.720703 6.2050781 A 0.60000002 0.60000002 0 0 0 12.697266 6.2167969 A 0.60000002 0.60000002 0 0 0 12.669922 6.2324219 C 12.471619 6.339188 12.243467 6.4003906 12 6.4003906 C 11.775186 6.4003906 11.56417 6.349758 11.376953 6.2578125 A 0.60000002 0.60000002 0 0 0 11.314453 6.2167969 A 0.60000002 0.60000002 0 0 0 11.246094 6.1835938 C 10.856221 5.9364752 10.599609 5.501264 10.599609 5 C 10.599609 4.2196946 11.219695 3.5996094 12 3.5996094 z M 18.845703 16.558594 A 0.60000002 0.60000002 0 0 0 18.544922 16.636719 A 0.60000002 0.60000002 0 0 0 18.316406 17.455078 L 20.476562 21.294922 A 0.60000002 0.60000002 0 0 0 21.294922 21.523438 A 0.60000002 0.60000002 0 0 0 21.523438 20.705078 L 19.363281 16.865234 A 0.60000002 0.60000002 0 0 0 18.845703 16.558594 z " />
</svg>
