<?xml version="1.0" encoding="UTF-8" standalone="no"?>
<svg
   width="24"
   height="24"
   viewBox="0 0 24 24"
   fill="none"
   stroke="currentColor"
   stroke-width="1.2"
   stroke-linecap="round"
   stroke-linejoin="round"
   version="1.1"
   id="svg8"
   sodipodi:docname=".tmp_ferris-wheel.svg"
   xmlns:inkscape="http://www.inkscape.org/namespaces/inkscape"
   xmlns:sodipodi="http://sodipodi.sourceforge.net/DTD/sodipodi-0.dtd"
   xmlns="http://www.w3.org/2000/svg"
   xmlns:svg="http://www.w3.org/2000/svg">
  <defs
     id="defs8" />
  <sodipodi:namedview
     id="namedview8"
     pagecolor="#ffffff"
     bordercolor="#000000"
     borderopacity="0.25"
     inkscape:showpageshadow="2"
     inkscape:pageopacity="0.0"
     inkscape:pagecheckerboard="0"
     inkscape:deskcolor="#d1d1d1" />
  <path
     id="circle1"
     style="baseline-shift:baseline;display:inline;overflow:visible;vector-effect:none;fill:#000000;stroke:none;stroke-linecap:butt;stroke-linejoin:miter;enable-background:accumulate;stop-color:#000000;stop-opacity:1;opacity:1"
     d="M 12 1.4003906 A 0.60000002 0.60000002 0 0 0 11.400391 2 L 11.400391 2.4101562 C 8.1333909 2.5995345 5.5342644 4.3279919 3.984375 6.6992188 L 3.5976562 6.4785156 A 0.60000002 0.60000002 0 0 0 3.1425781 6.421875 A 0.60000002 0.60000002 0 0 0 2.7792969 6.703125 A 0.60000002 0.60000002 0 0 0 3.0019531 7.5214844 L 3.390625 7.7421875 L 3.390625 7.7441406 C 3.2588477 8.0126182 3.1378239 8.2874439 3.03125 8.5664062 C 2.1047098 10.991669 2.1385697 13.796694 3.3769531 16.263672 L 3.0019531 16.478516 A 0.60000002 0.60000002 0 0 0 2.7792969 17.296875 A 0.60000002 0.60000002 0 0 0 3.5976562 17.521484 L 3.9824219 17.300781 C 4.423756 17.955134 4.9615541 18.575791 5.5996094 19.146484 A 0.60000002 0.60000002 0 0 0 6.4472656 19.099609 A 0.60000002 0.60000002 0 0 0 6.4003906 18.251953 C 5.8607995 17.769327 5.4039549 17.249795 5.0253906 16.705078 L 7.0976562 15.521484 A 0.60000002 0.60000002 0 0 0 7.3203125 14.703125 A 0.60000002 0.60000002 0 0 0 6.9570312 14.421875 A 0.60000002 0.60000002 0 0 0 6.5019531 14.478516 L 4.4140625 15.671875 C 3.3493429 13.525972 3.343347 11.111728 4.1523438 8.9941406 C 4.2371698 8.7721044 4.3312925 8.5541369 4.4335938 8.3398438 L 6.5019531 9.5214844 A 0.60000002 0.60000002 0 0 0 7.3203125 9.296875 A 0.60000002 0.60000002 0 0 0 7.0976562 8.4785156 L 5.0234375 7.2929688 C 6.3635702 5.2622815 8.5699924 3.793846 11.400391 3.6113281 L 11.400391 6 A 0.60000002 0.60000002 0 0 0 12 6.5996094 A 0.60000002 0.60000002 0 0 0 12.599609 6 L 12.599609 3.6113281 C 15.430007 3.793846 17.63643 5.2622814 18.976562 7.2929688 L 16.902344 8.4785156 A 0.60000002 0.60000002 0 0 0 16.679688 9.296875 A 0.60000002 0.60000002 0 0 0 17.498047 9.5214844 L 19.566406 8.3398438 C 19.668708 8.5541369 19.76283 8.7721045 19.847656 8.9941406 C 20.656653 11.111728 20.650658 13.525973 19.585938 15.671875 L 17.498047 14.478516 A 0.60000002 0.60000002 0 0 0 16.679688 14.703125 A 0.60000002 0.60000002 0 0 0 16.902344 15.521484 L 18.974609 16.705078 C 18.596045 17.249794 18.1392 17.769329 17.599609 18.251953 A 0.60000002 0.60000002 0 0 0 17.552734 19.099609 A 0.60000002 0.60000002 0 0 0 18.400391 19.146484 C 19.038444 18.575793 19.576245 17.955132 20.017578 17.300781 L 20.402344 17.521484 A 0.60000002 0.60000002 0 0 0 21.220703 17.296875 A 0.60000002 0.60000002 0 0 0 20.998047 16.478516 L 20.623047 16.263672 C 21.86143 13.796695 21.895291 10.99167 20.96875 8.5664062 C 20.862176 8.2874439 20.741152 8.0126182 20.609375 7.7441406 C 20.609112 7.743605 20.609638 7.7427231 20.609375 7.7421875 L 20.998047 7.5214844 A 0.60000002 0.60000002 0 0 0 21.220703 6.703125 A 0.60000002 0.60000002 0 0 0 20.402344 6.4785156 L 20.015625 6.6992188 C 18.465735 4.3279918 15.866609 2.5995345 12.599609 2.4101562 L 12.599609 2 A 0.60000002 0.60000002 0 0 0 12 1.4003906 z M 12 9.4003906 C 10.571166 9.4003906 9.4003906 10.571166 9.4003906 12 C 9.4003906 13.143896 10.151156 14.122023 11.183594 14.466797 L 8.5839844 21.400391 L 8 21.400391 A 0.60000002 0.60000002 0 0 0 7.4003906 22 A 0.60000002 0.60000002 0 0 0 8 22.599609 L 16 22.599609 A 0.60000002 0.60000002 0 0 0 16.599609 22 A 0.60000002 0.60000002 0 0 0 16 21.400391 L 15.416016 21.400391 L 12.816406 14.466797 C 13.848844 14.122023 14.599609 13.143895 14.599609 12 C 14.599609 10.571166 13.428834 9.4003906 12 9.4003906 z M 12 10.599609 C 12.780305 10.599609 13.400391 11.219695 13.400391 12 C 13.400391 12.779876 12.779699 13.399709 12 13.400391 L 11.998047 13.400391 C 11.218348 13.399709 10.599609 12.779876 10.599609 12 C 10.599609 11.219695 11.219695 10.599609 12 10.599609 z M 12 15.710938 L 14.132812 21.400391 L 9.8671875 21.400391 L 12 15.710938 z " />
</svg>
