<?xml version="1.0" encoding="UTF-8" standalone="no"?>
<svg
   width="24"
   height="24"
   viewBox="0 0 24 24"
   fill="none"
   stroke="currentColor"
   stroke-width="1.2"
   stroke-linecap="round"
   stroke-linejoin="round"
   version="1.1"
   id="svg3"
   sodipodi:docname=".tmp_file-user.svg"
   xmlns:inkscape="http://www.inkscape.org/namespaces/inkscape"
   xmlns:sodipodi="http://sodipodi.sourceforge.net/DTD/sodipodi-0.dtd"
   xmlns="http://www.w3.org/2000/svg"
   xmlns:svg="http://www.w3.org/2000/svg">
  <defs
     id="defs3" />
  <sodipodi:namedview
     id="namedview3"
     pagecolor="#ffffff"
     bordercolor="#000000"
     borderopacity="0.25"
     inkscape:showpageshadow="2"
     inkscape:pageopacity="0.0"
     inkscape:pagecheckerboard="0"
     inkscape:deskcolor="#d1d1d1" />
  <path
     id="path1"
     style="baseline-shift:baseline;display:inline;overflow:visible;vector-effect:none;fill:#000000;stroke:none;stroke-linecap:butt;stroke-linejoin:miter;enable-background:accumulate;stop-color:#000000;stop-opacity:1;opacity:1"
     d="M 6 1.4003906 C 4.5711664 1.4003906 3.4003906 2.5711664 3.4003906 4 L 3.4003906 20 C 3.4003906 21.428834 4.5711664 22.599609 6 22.599609 L 18 22.599609 C 19.428834 22.599609 20.599609 21.428834 20.599609 20 L 20.599609 7 A 0.60006002 0.60006002 0 0 0 20.423828 6.5761719 L 15.423828 1.5761719 A 0.60006002 0.60006002 0 0 0 15 1.4003906 L 6 1.4003906 z M 6 2.5996094 L 13.400391 2.5996094 L 13.400391 6 C 13.400391 7.4288336 14.571166 8.5996094 16 8.5996094 L 19.400391 8.5996094 L 19.400391 20 C 19.400391 20.780305 18.780305 21.400391 18 21.400391 L 6 21.400391 C 5.2196946 21.400391 4.5996094 20.780305 4.5996094 20 L 4.5996094 4 C 4.5996094 3.2196946 5.2196946 2.5996094 6 2.5996094 z M 14.599609 2.5996094 L 14.751953 2.5996094 L 19.400391 7.2480469 L 19.400391 7.4003906 L 16 7.4003906 C 15.219695 7.4003906 14.599609 6.7803054 14.599609 6 L 14.599609 2.5996094 z M 12 10.400391 C 10.571166 10.400391 9.4003906 11.571166 9.4003906 13 C 9.4003906 13.722389 9.6991139 14.37905 10.179688 14.851562 C 9.9522618 14.975164 9.7373643 15.124513 9.5390625 15.300781 C 8.8528533 15.910745 8.4003906 16.85 8.4003906 18 A 0.60000002 0.60000002 0 0 0 9 18.599609 A 0.60000002 0.60000002 0 0 0 9.5996094 18 C 9.5996094 17.150001 9.8971462 16.589255 10.335938 16.199219 C 10.774727 15.809183 11.383333 15.599609 12 15.599609 C 12.616667 15.599609 13.225271 15.809183 13.664062 16.199219 C 14.102852 16.589255 14.400391 17.150001 14.400391 18 A 0.60000002 0.60000002 0 0 0 15 18.599609 A 0.60000002 0.60000002 0 0 0 15.599609 18 C 15.599609 16.85 15.147146 15.910745 14.460938 15.300781 C 14.262635 15.124513 14.047738 14.975164 13.820312 14.851562 C 14.300886 14.37905 14.599609 13.722389 14.599609 13 C 14.599609 11.571166 13.428834 10.400391 12 10.400391 z M 12 11.599609 C 12.780305 11.599609 13.400391 12.219695 13.400391 13 C 13.400391 13.780305 12.780305 14.400391 12 14.400391 C 11.219695 14.400391 10.599609 13.780305 10.599609 13 C 10.599609 12.219695 11.219695 11.599609 12 11.599609 z " />
</svg>
