<?xml version="1.0" encoding="UTF-8" standalone="no"?>
<svg
   width="24"
   height="24"
   viewBox="0 0 24 24"
   fill="none"
   stroke="currentColor"
   stroke-width="1.2"
   stroke-linecap="round"
   stroke-linejoin="round"
   version="1.1"
   id="svg3"
   sodipodi:docname=".tmp_file-audio-2.svg"
   xmlns:inkscape="http://www.inkscape.org/namespaces/inkscape"
   xmlns:sodipodi="http://sodipodi.sourceforge.net/DTD/sodipodi-0.dtd"
   xmlns="http://www.w3.org/2000/svg"
   xmlns:svg="http://www.w3.org/2000/svg">
  <defs
     id="defs3" />
  <sodipodi:namedview
     id="namedview3"
     pagecolor="#ffffff"
     bordercolor="#000000"
     borderopacity="0.25"
     inkscape:showpageshadow="2"
     inkscape:pageopacity="0.0"
     inkscape:pagecheckerboard="0"
     inkscape:deskcolor="#d1d1d1" />
  <path
     id="path1"
     style="baseline-shift:baseline;display:inline;overflow:visible;vector-effect:none;fill:#000000;stroke:none;stroke-linecap:butt;stroke-linejoin:miter;enable-background:accumulate;stop-color:#000000;stop-opacity:1;opacity:1"
     d="M 6 1.4003906 C 4.5711664 1.4003906 3.4003906 2.5711664 3.4003906 4 L 3.4003906 6 A 0.60000002 0.60000002 0 0 0 4 6.5996094 A 0.60000002 0.60000002 0 0 0 4.5996094 6 L 4.5996094 4 C 4.5996094 3.2196946 5.2196946 2.5996094 6 2.5996094 L 13.400391 2.5996094 L 13.400391 6 C 13.400391 7.4288336 14.571166 8.5996094 16 8.5996094 L 19.400391 8.5996094 L 19.400391 20 C 19.400391 20.780305 18.780305 21.400391 18 21.400391 L 4 21.400391 A 0.60000002 0.60000002 0 0 0 3.4003906 22 A 0.60000002 0.60000002 0 0 0 4 22.599609 L 18 22.599609 C 19.428834 22.599609 20.599609 21.428834 20.599609 20 L 20.599609 7 A 0.60006002 0.60006002 0 0 0 20.423828 6.5761719 L 15.423828 1.5761719 A 0.60006002 0.60006002 0 0 0 15 1.4003906 L 6 1.4003906 z M 14.599609 2.5996094 L 14.751953 2.5996094 L 19.400391 7.2480469 L 19.400391 7.4003906 L 16 7.4003906 C 15.219695 7.4003906 14.599609 6.7803054 14.599609 6 L 14.599609 2.5996094 z M 6 9.4003906 C 4.8666667 9.4003906 3.7252717 9.7741514 2.8515625 10.550781 C 1.9778533 11.327411 1.4003906 12.516667 1.4003906 14 L 1.4003906 17 C 1.4003906 17.876549 2.1234512 18.599609 3 18.599609 C 3.8765488 18.599609 4.5996094 17.876549 4.5996094 17 C 4.5996094 16.123451 3.8765488 15.400391 3 15.400391 C 2.8619906 15.400391 2.727786 15.417547 2.5996094 15.451172 L 2.5996094 14 C 2.5996094 12.816667 3.0221467 12.005921 3.6484375 11.449219 C 4.2747283 10.892516 5.1333333 10.599609 6 10.599609 C 6.8666667 10.599609 7.7252717 10.892516 8.3515625 11.449219 C 8.9778533 12.005921 9.4003906 12.816667 9.4003906 14 L 9.4003906 15.451172 C 9.272214 15.417547 9.1380094 15.400391 9 15.400391 C 8.1234512 15.400391 7.4003906 16.123451 7.4003906 17 C 7.4003906 17.876549 8.1234512 18.599609 9 18.599609 C 9.8765488 18.599609 10.599609 17.876549 10.599609 17 L 10.599609 14 C 10.599609 12.516667 10.022147 11.327411 9.1484375 10.550781 C 8.2747283 9.7741514 7.1333333 9.4003906 6 9.4003906 z M 3 16.599609 C 3.2280207 16.599609 3.4003906 16.771979 3.4003906 17 C 3.4003906 17.228021 3.2280207 17.400391 3 17.400391 C 2.7719793 17.400391 2.5996094 17.228021 2.5996094 17 C 2.5996094 16.771979 2.7719793 16.599609 3 16.599609 z M 9 16.599609 C 9.2280207 16.599609 9.4003906 16.771979 9.4003906 17 C 9.4003906 17.228021 9.2280207 17.400391 9 17.400391 C 8.7719793 17.400391 8.5996094 17.228021 8.5996094 17 C 8.5996094 16.771979 8.7719793 16.599609 9 16.599609 z " />
</svg>
