<?xml version="1.0" encoding="UTF-8" standalone="no"?>
<svg
   width="24"
   height="24"
   viewBox="0 0 24 24"
   fill="none"
   stroke="currentColor"
   stroke-width="1.2"
   stroke-linecap="round"
   stroke-linejoin="round"
   version="1.1"
   id="svg5"
   sodipodi:docname=".tmp_file-type-2.svg"
   xmlns:inkscape="http://www.inkscape.org/namespaces/inkscape"
   xmlns:sodipodi="http://sodipodi.sourceforge.net/DTD/sodipodi-0.dtd"
   xmlns="http://www.w3.org/2000/svg"
   xmlns:svg="http://www.w3.org/2000/svg">
  <defs
     id="defs5" />
  <sodipodi:namedview
     id="namedview5"
     pagecolor="#ffffff"
     bordercolor="#000000"
     borderopacity="0.25"
     inkscape:showpageshadow="2"
     inkscape:pageopacity="0.0"
     inkscape:pagecheckerboard="0"
     inkscape:deskcolor="#d1d1d1" />
  <path
     id="path1"
     style="baseline-shift:baseline;display:inline;overflow:visible;vector-effect:none;fill:#000000;stroke:none;stroke-linecap:butt;stroke-linejoin:miter;enable-background:accumulate;stop-color:#000000;stop-opacity:1;opacity:1"
     d="M 6 1.4003906 C 4.5711664 1.4003906 3.4003906 2.5711664 3.4003906 4 L 3.4003906 8 A 0.60000002 0.60000002 0 0 0 4 8.5996094 A 0.60000002 0.60000002 0 0 0 4.5996094 8 L 4.5996094 4 C 4.5996094 3.2196946 5.2196946 2.5996094 6 2.5996094 L 13.400391 2.5996094 L 13.400391 6 C 13.400391 7.4288336 14.571166 8.5996094 16 8.5996094 L 19.400391 8.5996094 L 19.400391 20 C 19.400391 20.780305 18.780305 21.400391 18 21.400391 L 4 21.400391 A 0.60000002 0.60000002 0 0 0 3.4003906 22 A 0.60000002 0.60000002 0 0 0 4 22.599609 L 18 22.599609 C 19.428834 22.599609 20.599609 21.428834 20.599609 20 L 20.599609 7 A 0.60006002 0.60006002 0 0 0 20.423828 6.5761719 L 15.423828 1.5761719 A 0.60006002 0.60006002 0 0 0 15 1.4003906 L 6 1.4003906 z M 14.599609 2.5996094 L 14.751953 2.5996094 L 19.400391 7.2480469 L 19.400391 7.4003906 L 16 7.4003906 C 15.219695 7.4003906 14.599609 6.7803054 14.599609 6 L 14.599609 2.5996094 z M 2 11.400391 A 0.60006002 0.60006002 0 0 0 1.4003906 12 L 1.4003906 13 A 0.60000002 0.60000002 0 0 0 2 13.599609 A 0.60000002 0.60000002 0 0 0 2.5996094 13 L 2.5996094 12.599609 L 4.4003906 12.599609 L 4.4003906 17.400391 L 4 17.400391 A 0.60000002 0.60000002 0 0 0 3.4003906 18 A 0.60000002 0.60000002 0 0 0 4 18.599609 L 5 18.599609 L 6 18.599609 A 0.60000002 0.60000002 0 0 0 6.5996094 18 A 0.60000002 0.60000002 0 0 0 6 17.400391 L 5.5996094 17.400391 L 5.5996094 12.599609 L 7.4003906 12.599609 L 7.4003906 13 A 0.60000002 0.60000002 0 0 0 8 13.599609 A 0.60000002 0.60000002 0 0 0 8.5996094 13 L 8.5996094 12 A 0.60006002 0.60006002 0 0 0 8 11.400391 L 2 11.400391 z " />
</svg>
