<?xml version="1.0" encoding="UTF-8" standalone="no"?>
<svg
   width="24"
   height="24"
   viewBox="0 0 24 24"
   fill="none"
   stroke="currentColor"
   stroke-width="1.2"
   stroke-linecap="round"
   stroke-linejoin="round"
   version="1.1"
   id="svg1"
   sodipodi:docname=".tmp_flag.svg"
   xmlns:inkscape="http://www.inkscape.org/namespaces/inkscape"
   xmlns:sodipodi="http://sodipodi.sourceforge.net/DTD/sodipodi-0.dtd"
   xmlns="http://www.w3.org/2000/svg"
   xmlns:svg="http://www.w3.org/2000/svg">
  <defs
     id="defs1" />
  <sodipodi:namedview
     id="namedview1"
     pagecolor="#ffffff"
     bordercolor="#000000"
     borderopacity="0.25"
     inkscape:showpageshadow="2"
     inkscape:pageopacity="0.0"
     inkscape:pagecheckerboard="0"
     inkscape:deskcolor="#d1d1d1" />
  <path
     id="path1"
     style="baseline-shift:baseline;display:inline;overflow:visible;vector-effect:none;fill:#000000;stroke:none;stroke-linecap:butt;stroke-linejoin:miter;enable-background:accumulate;stop-color:#000000;stop-opacity:1;opacity:1"
     d="M 8 1.4003906 C 6.5720421 1.4003906 5.1814289 1.8639284 4.0390625 2.7207031 C 3.6365941 3.0225544 3.4003906 3.4969145 3.4003906 4 L 3.4003906 22 A 0.60000002 0.60000002 0 0 0 4 22.599609 A 0.60000002 0.60000002 0 0 0 4.5996094 22 L 4.5996094 15.853516 C 5.5626084 15.065237 6.750625 14.599641 8 14.599609 C 9.3666667 14.599609 10.527344 15.056641 11.777344 15.556641 C 13.027344 16.056641 14.366667 16.599609 16 16.599609 C 17.427958 16.599609 18.818571 16.136072 19.960938 15.279297 C 20.363406 14.977446 20.599609 14.503085 20.599609 14 L 20.599609 4 C 20.599609 2.7192983 19.063624 1.9522821 18.039062 2.7207031 C 17.47164 3.1455812 16.584514 3.4003906 15.332031 3.4003906 C 14.336984 3.4003906 13.328482 2.9532962 12.152344 2.4492188 C 10.976205 1.9451413 9.6333333 1.4003906 8 1.4003906 z M 8 2.5996094 C 9.3666667 2.5996094 10.522576 3.0548587 11.679688 3.5507812 C 12.836799 4.0467037 13.994078 4.5996094 15.332031 4.5996094 C 16.745365 4.5996094 17.904474 4.3209561 18.759766 3.6796875 C 19.053677 3.4592541 19.400391 3.632611 19.400391 4 L 19.400391 14 C 19.400391 14.126429 19.341381 14.244454 19.240234 14.320312 C 18.305447 15.021403 17.168485 15.400391 16 15.400391 C 14.633333 15.400391 13.472656 14.943359 12.222656 14.443359 C 10.972656 13.943359 9.6333333 13.400391 8 13.400391 C 6.7736044 13.400422 5.631964 13.836974 4.5996094 14.470703 L 4.5996094 4 C 4.5996094 3.8735709 4.6586224 3.755545 4.7597656 3.6796875 C 5.6945533 2.9785967 6.8315154 2.5996094 8 2.5996094 z " />
</svg>
