<?xml version="1.0" encoding="UTF-8" standalone="no"?>
<svg
   width="24"
   height="24"
   viewBox="0 0 24 24"
   fill="none"
   stroke="currentColor"
   stroke-width="1.2"
   stroke-linecap="round"
   stroke-linejoin="round"
   version="1.1"
   id="svg4"
   sodipodi:docname=".tmp_gamepad.svg"
   xmlns:inkscape="http://www.inkscape.org/namespaces/inkscape"
   xmlns:sodipodi="http://sodipodi.sourceforge.net/DTD/sodipodi-0.dtd"
   xmlns="http://www.w3.org/2000/svg"
   xmlns:svg="http://www.w3.org/2000/svg">
  <defs
     id="defs4" />
  <sodipodi:namedview
     id="namedview4"
     pagecolor="#ffffff"
     bordercolor="#000000"
     borderopacity="0.25"
     inkscape:showpageshadow="2"
     inkscape:pageopacity="0.0"
     inkscape:pagecheckerboard="0"
     inkscape:deskcolor="#d1d1d1" />
  <path
     id="line1"
     style="baseline-shift:baseline;display:inline;overflow:visible;vector-effect:none;fill:#000000;stroke:none;stroke-linecap:butt;stroke-linejoin:miter;enable-background:accumulate;stop-color:#000000;stop-opacity:1;opacity:1"
     d="M 4 5.4003906 C 2.5699783 5.4003906 1.4003906 6.5699783 1.4003906 8 L 1.4003906 16 C 1.4003906 17.430022 2.5699783 18.599609 4 18.599609 L 20 18.599609 C 21.430022 18.599609 22.599609 17.430022 22.599609 16 L 22.599609 8 C 22.599609 6.5699783 21.430022 5.4003906 20 5.4003906 L 4 5.4003906 z M 4 6.5996094 L 20 6.5996094 C 20.785978 6.5996094 21.400391 7.2140217 21.400391 8 L 21.400391 16 C 21.400391 16.785978 20.785978 17.400391 20 17.400391 L 4 17.400391 C 3.2140217 17.400391 2.5996094 16.785978 2.5996094 16 L 2.5996094 8 C 2.5996094 7.2140217 3.2140217 6.5996094 4 6.5996094 z M 8 9.4003906 A 0.60000002 0.60000002 0 0 0 7.4003906 10 L 7.4003906 11.400391 L 6 11.400391 A 0.60000002 0.60000002 0 0 0 5.4003906 12 A 0.60000002 0.60000002 0 0 0 6 12.599609 L 7.4003906 12.599609 L 7.4003906 14 A 0.60000002 0.60000002 0 0 0 8 14.599609 A 0.60000002 0.60000002 0 0 0 8.5996094 14 L 8.5996094 12.599609 L 10 12.599609 A 0.60000002 0.60000002 0 0 0 10.599609 12 A 0.60000002 0.60000002 0 0 0 10 11.400391 L 8.5996094 11.400391 L 8.5996094 10 A 0.60000002 0.60000002 0 0 0 8 9.4003906 z M 18 10.400391 A 0.60000002 0.60000002 0 0 0 17.400391 11 A 0.60000002 0.60000002 0 0 0 18 11.599609 L 18.009766 11.599609 A 0.60000002 0.60000002 0 0 0 18.609375 11 A 0.60000002 0.60000002 0 0 0 18.009766 10.400391 L 18 10.400391 z M 15 12.400391 A 0.60000002 0.60000002 0 0 0 14.400391 13 A 0.60000002 0.60000002 0 0 0 15 13.599609 L 15.009766 13.599609 A 0.60000002 0.60000002 0 0 0 15.609375 13 A 0.60000002 0.60000002 0 0 0 15.009766 12.400391 L 15 12.400391 z " />
</svg>
