<?xml version="1.0" encoding="UTF-8" standalone="no"?>
<svg
   width="24"
   height="24"
   viewBox="0 0 24 24"
   fill="none"
   stroke="currentColor"
   stroke-width="1.2"
   stroke-linecap="round"
   stroke-linejoin="round"
   version="1.1"
   id="svg4"
   sodipodi:docname=".tmp_git-fork.svg"
   xmlns:inkscape="http://www.inkscape.org/namespaces/inkscape"
   xmlns:sodipodi="http://sodipodi.sourceforge.net/DTD/sodipodi-0.dtd"
   xmlns="http://www.w3.org/2000/svg"
   xmlns:svg="http://www.w3.org/2000/svg">
  <defs
     id="defs4" />
  <sodipodi:namedview
     id="namedview4"
     pagecolor="#ffffff"
     bordercolor="#000000"
     borderopacity="0.25"
     inkscape:showpageshadow="2"
     inkscape:pageopacity="0.0"
     inkscape:pagecheckerboard="0"
     inkscape:deskcolor="#d1d1d1" />
  <path
     id="circle1"
     style="baseline-shift:baseline;display:inline;overflow:visible;vector-effect:none;fill:#000000;stroke:none;stroke-linecap:butt;stroke-linejoin:miter;enable-background:accumulate;stop-color:#000000;stop-opacity:1;opacity:1"
     d="M 6 2.4003906 C 4.0188817 2.4003906 2.4003906 4.0188817 2.4003906 6 C 2.4003906 7.7769384 3.7024604 9.2615632 5.4003906 9.5488281 L 5.4003906 11 C 5.4003906 11.433333 5.5553442 11.852219 5.8515625 12.148438 C 6.1477808 12.444655 6.5666667 12.599609 7 12.599609 L 11.400391 12.599609 L 11.400391 14.451172 C 9.7024604 14.738437 8.4003906 16.223062 8.4003906 18 C 8.4003906 19.981118 10.018882 21.599609 12 21.599609 C 13.981118 21.599609 15.599609 19.981118 15.599609 18 C 15.599609 16.223062 14.29754 14.738437 12.599609 14.451172 L 12.599609 12.599609 L 17 12.599609 C 17.433333 12.599609 17.85222 12.444655 18.148438 12.148438 C 18.444656 11.852219 18.599609 11.433333 18.599609 11 L 18.599609 9.5488281 C 20.29754 9.2615634 21.599609 7.7769385 21.599609 6 C 21.599609 4.0188817 19.981118 2.4003906 18 2.4003906 C 16.018882 2.4003906 14.400391 4.0188817 14.400391 6 C 14.400391 7.7769385 15.70246 9.2615634 17.400391 9.5488281 L 17.400391 11 C 17.400391 11.166667 17.354561 11.247 17.300781 11.300781 C 17.247 11.354563 17.166667 11.400391 17 11.400391 L 12 11.400391 L 7 11.400391 C 6.8333333 11.400391 6.7530005 11.354561 6.6992188 11.300781 C 6.6454371 11.247 6.5996094 11.166667 6.5996094 11 L 6.5996094 9.5488281 C 8.2975396 9.2615632 9.5996094 7.7769384 9.5996094 6 C 9.5996094 4.0188817 7.9811183 2.4003906 6 2.4003906 z M 6 3.5996094 C 7.3325902 3.5996094 8.4003906 4.6674098 8.4003906 6 C 8.4003906 7.3325902 7.3325902 8.4003906 6 8.4003906 C 4.6674098 8.4003906 3.5996094 7.3325902 3.5996094 6 C 3.5996094 4.6674098 4.6674098 3.5996094 6 3.5996094 z M 18 3.5996094 C 19.33259 3.5996094 20.400391 4.6674098 20.400391 6 C 20.400391 7.3325902 19.33259 8.4003906 18 8.4003906 C 16.66741 8.4003906 15.599609 7.3325902 15.599609 6 C 15.599609 4.6674098 16.66741 3.5996094 18 3.5996094 z M 12 15.599609 C 13.33259 15.599609 14.400391 16.66741 14.400391 18 C 14.400391 19.33259 13.33259 20.400391 12 20.400391 C 10.66741 20.400391 9.5996094 19.33259 9.5996094 18 C 9.5996094 16.66741 10.66741 15.599609 12 15.599609 z " />
</svg>
