<?xml version="1.0" encoding="UTF-8" standalone="no"?>
<svg
   width="24"
   height="24"
   viewBox="0 0 24 24"
   fill="none"
   stroke="currentColor"
   stroke-width="1.2"
   stroke-linecap="round"
   stroke-linejoin="round"
   version="1.1"
   id="svg3"
   sodipodi:docname=".tmp_grid-2x2-x.svg"
   xmlns:inkscape="http://www.inkscape.org/namespaces/inkscape"
   xmlns:sodipodi="http://sodipodi.sourceforge.net/DTD/sodipodi-0.dtd"
   xmlns="http://www.w3.org/2000/svg"
   xmlns:svg="http://www.w3.org/2000/svg">
  <defs
     id="defs3" />
  <sodipodi:namedview
     id="namedview3"
     pagecolor="#ffffff"
     bordercolor="#000000"
     borderopacity="0.25"
     inkscape:showpageshadow="2"
     inkscape:pageopacity="0.0"
     inkscape:pagecheckerboard="0"
     inkscape:deskcolor="#d1d1d1" />
  <path
     id="path1"
     style="baseline-shift:baseline;display:inline;overflow:visible;vector-effect:none;fill:#000000;stroke:none;stroke-linecap:butt;stroke-linejoin:miter;enable-background:accumulate;stop-color:#000000;stop-opacity:1;opacity:1"
     d="M 5 2.4003906 C 3.5711664 2.4003906 2.4003906 3.5711664 2.4003906 5 L 2.4003906 12 L 2.4003906 19 C 2.4003906 20.428834 3.5711664 21.599609 5 21.599609 L 11 21.599609 C 11.876549 21.599609 12.599609 20.876549 12.599609 20 L 12.599609 12.599609 L 20 12.599609 C 20.876549 12.599609 21.599609 11.876549 21.599609 11 L 21.599609 5 C 21.599609 3.5711664 20.428834 2.4003906 19 2.4003906 L 12 2.4003906 L 5 2.4003906 z M 5 3.5996094 L 11.400391 3.5996094 L 11.400391 11.400391 L 3.5996094 11.400391 L 3.5996094 5 C 3.5996094 4.2196946 4.2196946 3.5996094 5 3.5996094 z M 12.599609 3.5996094 L 19 3.5996094 C 19.780305 3.5996094 20.400391 4.2196946 20.400391 5 L 20.400391 11 C 20.400391 11.228021 20.228021 11.400391 20 11.400391 L 12.599609 11.400391 L 12.599609 3.5996094 z M 3.5996094 12.599609 L 11.400391 12.599609 L 11.400391 20 C 11.400391 20.228021 11.228021 20.400391 11 20.400391 L 5 20.400391 C 4.2196946 20.400391 3.5996094 19.780305 3.5996094 19 L 3.5996094 12.599609 z M 16 15.400391 A 0.60000002 0.60000002 0 0 0 15.576172 15.576172 A 0.60000002 0.60000002 0 0 0 15.576172 16.423828 L 17.652344 18.5 L 15.576172 20.576172 A 0.60000002 0.60000002 0 0 0 15.576172 21.423828 A 0.60000002 0.60000002 0 0 0 16.423828 21.423828 L 18.5 19.347656 L 20.576172 21.423828 A 0.60000002 0.60000002 0 0 0 21.423828 21.423828 A 0.60000002 0.60000002 0 0 0 21.423828 20.576172 L 19.347656 18.5 L 21.423828 16.423828 A 0.60000002 0.60000002 0 0 0 21.423828 15.576172 A 0.60000002 0.60000002 0 0 0 21 15.400391 A 0.60000002 0.60000002 0 0 0 20.576172 15.576172 L 18.5 17.652344 L 16.423828 15.576172 A 0.60000002 0.60000002 0 0 0 16 15.400391 z " />
</svg>
