<?xml version="1.0" encoding="UTF-8" standalone="no"?>
<svg
   width="24"
   height="24"
   viewBox="0 0 24 24"
   fill="none"
   stroke="currentColor"
   stroke-width="1.2"
   stroke-linecap="round"
   stroke-linejoin="round"
   version="1.1"
   id="svg6"
   sodipodi:docname=".tmp_hand-platter.svg"
   xmlns:inkscape="http://www.inkscape.org/namespaces/inkscape"
   xmlns:sodipodi="http://sodipodi.sourceforge.net/DTD/sodipodi-0.dtd"
   xmlns="http://www.w3.org/2000/svg"
   xmlns:svg="http://www.w3.org/2000/svg">
  <defs
     id="defs6" />
  <sodipodi:namedview
     id="namedview6"
     pagecolor="#ffffff"
     bordercolor="#000000"
     borderopacity="0.25"
     inkscape:showpageshadow="2"
     inkscape:pageopacity="0.0"
     inkscape:pagecheckerboard="0"
     inkscape:deskcolor="#d1d1d1" />
  <path
     id="path1"
     style="baseline-shift:baseline;display:inline;overflow:visible;vector-effect:none;fill:#000000;stroke:none;stroke-linecap:butt;stroke-linejoin:miter;enable-background:accumulate;stop-color:#000000;stop-opacity:1;opacity:1"
     d="M 12 1.4003906 A 0.60000002 0.60000002 0 0 0 11.400391 2 L 11.400391 2.4238281 C 7.6871628 2.7150462 4.7150465 5.6871606 4.4238281 9.4003906 L 4 9.4003906 A 0.60000002 0.60000002 0 0 0 3.4003906 10 A 0.60000002 0.60000002 0 0 0 4 10.599609 L 20 10.599609 A 0.60000002 0.60000002 0 0 0 20.599609 10 A 0.60000002 0.60000002 0 0 0 20 9.4003906 L 19.576172 9.4003906 C 19.284954 5.6871606 16.312837 2.7150462 12.599609 2.4238281 L 12.599609 2 A 0.60000002 0.60000002 0 0 0 12 1.4003906 z M 12 3.5996094 C 15.339498 3.5996094 18.071918 6.1411312 18.373047 9.4003906 L 5.6269531 9.4003906 C 5.9280817 6.1411312 8.6605021 3.5996094 12 3.5996094 z M 19.916016 13.398438 C 19.320681 13.418667 18.700931 13.66847 18.183594 14.167969 L 16.568359 15.582031 C 16.496014 15.091434 16.294673 14.615199 15.949219 14.226562 C 15.505922 13.727852 14.816666 13.400391 14 13.400391 L 5 13.400391 L 2 13.400391 A 0.60000002 0.60000002 0 0 0 1.4003906 14 A 0.60000002 0.60000002 0 0 0 2 14.599609 L 4.4003906 14.599609 L 4.4003906 19 L 4.4003906 20 C 4.4003906 20.228021 4.2280207 20.400391 4 20.400391 L 2 20.400391 A 0.60000002 0.60000002 0 0 0 1.4003906 21 A 0.60000002 0.60000002 0 0 0 2 21.599609 L 4 21.599609 C 4.8765488 21.599609 5.5996094 20.876549 5.5996094 20 L 5.5996094 19.599609 L 6.1503906 19.599609 C 6.264941 19.599693 6.3731574 19.648719 6.4492188 19.734375 L 7.7480469 21.195312 L 7.75 21.195312 L 7.7519531 21.199219 C 8.5730268 22.134914 9.7564247 22.599609 11 22.599609 L 15 22.599609 C 16.236465 22.599609 17.413889 22.139821 18.234375 21.214844 L 21.804688 17.941406 A 0.60006002 0.60006002 0 0 0 21.816406 17.931641 C 22.40765 17.360785 22.678044 16.643241 22.650391 15.972656 C 22.622741 15.302071 22.323472 14.690842 21.880859 14.232422 C 21.438247 13.774002 20.839124 13.455455 20.169922 13.404297 C 20.086272 13.397902 20.001063 13.395547 19.916016 13.398438 z M 19.953125 14.597656 C 19.995828 14.596883 20.037687 14.598322 20.080078 14.601562 C 20.419209 14.627482 20.760191 14.799826 21.017578 15.066406 C 21.274966 15.332986 21.437158 15.681653 21.451172 16.021484 C 21.465182 16.361316 21.357842 16.705882 20.982422 17.068359 L 17.394531 20.357422 A 0.60006002 0.60006002 0 0 0 17.347656 20.404297 C 16.76886 21.065773 15.954545 21.400391 15 21.400391 L 11 21.400391 C 10.045455 21.400391 9.2311322 21.065769 8.6523438 20.404297 A 0.60006002 0.60006002 0 0 0 8.6484375 20.400391 L 7.3457031 18.9375 C 7.0425514 18.59612 6.6088976 18.400725 6.1523438 18.400391 A 0.60006002 0.60006002 0 0 0 6.1503906 18.400391 L 5.5996094 18.400391 L 5.5996094 14.599609 L 14 14.599609 C 14.516666 14.599609 14.827412 14.772146 15.050781 15.023438 C 15.274151 15.274728 15.400391 15.633333 15.400391 16 C 15.400391 16.282999 15.324518 16.563255 15.1875 16.791016 L 15.005859 16.949219 A 0.60000002 0.60000002 0 0 0 14.851562 17.158203 C 14.647249 17.307318 14.379655 17.400391 14 17.400391 L 12 17.400391 A 0.60000002 0.60000002 0 0 0 11.400391 18 A 0.60000002 0.60000002 0 0 0 12 18.599609 L 14 18.599609 C 14.816666 18.599609 15.505922 18.272147 15.949219 17.773438 C 16.004203 17.711581 16.055744 17.646038 16.103516 17.580078 L 18.994141 15.050781 A 0.60006002 0.60006002 0 0 0 19.017578 15.03125 C 19.346073 14.714083 19.654202 14.60307 19.953125 14.597656 z " />
</svg>
