<?xml version="1.0" encoding="UTF-8" standalone="no"?>
<svg
   width="24"
   height="24"
   viewBox="0 0 24 24"
   fill="none"
   stroke="currentColor"
   stroke-width="1.2"
   stroke-linecap="round"
   stroke-linejoin="round"
   version="1.1"
   id="svg3"
   sodipodi:docname=".tmp_hand-helping.svg"
   xmlns:inkscape="http://www.inkscape.org/namespaces/inkscape"
   xmlns:sodipodi="http://sodipodi.sourceforge.net/DTD/sodipodi-0.dtd"
   xmlns="http://www.w3.org/2000/svg"
   xmlns:svg="http://www.w3.org/2000/svg">
  <defs
     id="defs3" />
  <sodipodi:namedview
     id="namedview3"
     pagecolor="#ffffff"
     bordercolor="#000000"
     borderopacity="0.25"
     inkscape:showpageshadow="2"
     inkscape:pageopacity="0.0"
     inkscape:pagecheckerboard="0"
     inkscape:deskcolor="#d1d1d1" />
  <path
     id="path1"
     style="baseline-shift:baseline;display:inline;overflow:visible;vector-effect:none;fill:#000000;stroke:none;stroke-linecap:butt;stroke-linejoin:miter;enable-background:accumulate;stop-color:#000000;stop-opacity:1;opacity:1"
     d="M 19.970703 6.3085938 C 19.378149 6.3223637 18.75805 6.5634978 18.238281 7.0546875 L 15.5625 9.5390625 C 15.484976 9.063501 15.284729 8.6040116 14.949219 8.2265625 C 14.505922 7.7278533 13.816666 7.4003906 13 7.4003906 L 10 7.4003906 C 9.283491 7.4003906 8.5871874 7.6495117 8.1503906 8.2011719 L 3.0078125 13.160156 L 2.4238281 12.576172 A 0.60000002 0.60000002 0 0 0 1.5761719 12.576172 A 0.60000002 0.60000002 0 0 0 1.5761719 13.423828 L 2.5683594 14.416016 A 0.60000002 0.60000002 0 0 0 2.5839844 14.431641 L 6.5488281 18.394531 A 0.60000002 0.60000002 0 0 0 6.6035156 18.449219 L 7.5761719 19.423828 A 0.60000002 0.60000002 0 0 0 8.4238281 19.423828 A 0.60000002 0.60000002 0 0 0 8.4238281 18.576172 L 7.8769531 18.029297 L 8.9941406 17.050781 A 0.60006002 0.60006002 0 0 0 9.0800781 16.960938 C 9.2456795 16.740138 9.5333333 16.599609 10 16.599609 L 14 16.599609 C 15.227448 16.599609 16.395193 16.145861 17.214844 15.234375 L 17.232422 15.21875 C 17.234236 15.216708 17.23647 15.214937 17.238281 15.212891 L 21.8125 10.835938 C 22.406522 10.274579 22.682469 9.5639037 22.662109 8.8964844 C 22.64175 8.229065 22.351345 7.6188605 21.916016 7.1582031 C 21.480687 6.6975458 20.88786 6.3744368 20.222656 6.3164062 C 20.139506 6.3091524 20.055354 6.3066266 19.970703 6.3085938 z M 19.992188 7.5058594 C 20.034463 7.5055591 20.077213 7.5080611 20.119141 7.5117188 C 20.454562 7.5409797 20.790798 7.7155792 21.042969 7.9824219 C 21.29514 8.2492645 21.450672 8.5951018 21.460938 8.9316406 C 21.471207 9.2681794 21.364257 9.6095371 20.988281 9.9648438 A 0.60006002 0.60006002 0 0 0 20.984375 9.9667969 L 16.384766 14.367188 A 0.60006002 0.60006002 0 0 0 16.347656 14.404297 C 15.768868 15.065775 14.954545 15.400391 14 15.400391 L 10 15.400391 C 9.288927 15.400391 8.5975469 15.644582 8.1601562 16.1875 L 7.0273438 17.179688 L 3.8554688 14.007812 L 9.015625 9.03125 A 0.60006002 0.60006002 0 0 0 9.0800781 8.9609375 C 9.2456782 8.740137 9.5333333 8.5996094 10 8.5996094 L 13 8.5996094 C 13.516666 8.5996094 13.827412 8.7721467 14.050781 9.0234375 C 14.274151 9.2747283 14.400391 9.6333333 14.400391 10 C 14.400391 10.309757 14.311075 10.613152 14.148438 10.851562 L 14.041016 10.951172 A 0.60000002 0.60000002 0 0 0 13.923828 11.101562 C 13.711452 11.283158 13.425415 11.400391 13 11.400391 L 11 11.400391 A 0.60000002 0.60000002 0 0 0 10.400391 12 A 0.60000002 0.60000002 0 0 0 11 12.599609 L 13 12.599609 C 13.816666 12.599609 14.505922 12.272146 14.949219 11.773438 C 14.984895 11.733302 15.020103 11.690343 15.052734 11.648438 L 19.058594 7.9296875 A 0.60006002 0.60006002 0 0 0 19.0625 7.9257812 C 19.391482 7.6148881 19.69626 7.5079614 19.992188 7.5058594 z " />
</svg>
