<?xml version="1.0" encoding="UTF-8" standalone="no"?>
<svg
   width="24"
   height="24"
   viewBox="0 0 24 24"
   fill="none"
   stroke="currentColor"
   stroke-width="1.2"
   stroke-linecap="round"
   stroke-linejoin="round"
   version="1.1"
   id="svg5"
   sodipodi:docname=".tmp_list-collapse.svg"
   xmlns:inkscape="http://www.inkscape.org/namespaces/inkscape"
   xmlns:sodipodi="http://sodipodi.sourceforge.net/DTD/sodipodi-0.dtd"
   xmlns="http://www.w3.org/2000/svg"
   xmlns:svg="http://www.w3.org/2000/svg">
  <defs
     id="defs5" />
  <sodipodi:namedview
     id="namedview5"
     pagecolor="#ffffff"
     bordercolor="#000000"
     borderopacity="0.25"
     inkscape:showpageshadow="2"
     inkscape:pageopacity="0.0"
     inkscape:pagecheckerboard="0"
     inkscape:deskcolor="#d1d1d1" />
  <path
     id="path1"
     style="baseline-shift:baseline;display:inline;overflow:visible;vector-effect:none;fill:#000000;stroke:none;stroke-linecap:butt;stroke-linejoin:miter;enable-background:accumulate;stop-color:#000000;stop-opacity:1;opacity:1"
     d="M 3 3.4003906 A 0.60000002 0.60000002 0 0 0 2.5761719 3.5761719 A 0.60000002 0.60000002 0 0 0 2.5761719 4.4238281 L 5.1523438 7 L 2.5761719 9.5761719 A 0.60000002 0.60000002 0 0 0 2.5761719 10.423828 A 0.60000002 0.60000002 0 0 0 3.4238281 10.423828 L 6.4238281 7.4238281 A 0.60006002 0.60006002 0 0 0 6.4238281 6.5761719 L 3.4238281 3.5761719 A 0.60000002 0.60000002 0 0 0 3 3.4003906 z M 10 4.4003906 A 0.60000002 0.60000002 0 0 0 9.4003906 5 A 0.60000002 0.60000002 0 0 0 10 5.5996094 L 21 5.5996094 A 0.60000002 0.60000002 0 0 0 21.599609 5 A 0.60000002 0.60000002 0 0 0 21 4.4003906 L 10 4.4003906 z M 10 11.400391 A 0.60000002 0.60000002 0 0 0 9.4003906 12 A 0.60000002 0.60000002 0 0 0 10 12.599609 L 21 12.599609 A 0.60000002 0.60000002 0 0 0 21.599609 12 A 0.60000002 0.60000002 0 0 0 21 11.400391 L 10 11.400391 z M 3 13.400391 A 0.60000002 0.60000002 0 0 0 2.5761719 13.576172 A 0.60000002 0.60000002 0 0 0 2.5761719 14.423828 L 5.1523438 17 L 2.5761719 19.576172 A 0.60000002 0.60000002 0 0 0 2.5761719 20.423828 A 0.60000002 0.60000002 0 0 0 3.4238281 20.423828 L 6.4238281 17.423828 A 0.60006002 0.60006002 0 0 0 6.4238281 16.576172 L 3.4238281 13.576172 A 0.60000002 0.60000002 0 0 0 3 13.400391 z M 10 18.400391 A 0.60000002 0.60000002 0 0 0 9.4003906 19 A 0.60000002 0.60000002 0 0 0 10 19.599609 L 21 19.599609 A 0.60000002 0.60000002 0 0 0 21.599609 19 A 0.60000002 0.60000002 0 0 0 21 18.400391 L 10 18.400391 z " />
</svg>
