<?xml version="1.0" encoding="UTF-8" standalone="no"?>
<svg
   width="24"
   height="24"
   viewBox="0 0 24 24"
   fill="none"
   stroke="currentColor"
   stroke-width="1.2"
   stroke-linecap="round"
   stroke-linejoin="round"
   version="1.1"
   id="svg2"
   sodipodi:docname=".tmp_map-pin-pen.svg"
   xmlns:inkscape="http://www.inkscape.org/namespaces/inkscape"
   xmlns:sodipodi="http://sodipodi.sourceforge.net/DTD/sodipodi-0.dtd"
   xmlns="http://www.w3.org/2000/svg"
   xmlns:svg="http://www.w3.org/2000/svg">
  <defs
     id="defs2" />
  <sodipodi:namedview
     id="namedview2"
     pagecolor="#ffffff"
     bordercolor="#000000"
     borderopacity="0.25"
     inkscape:showpageshadow="2"
     inkscape:pageopacity="0.0"
     inkscape:pagecheckerboard="0"
     inkscape:deskcolor="#d1d1d1" />
  <path
     id="path1"
     style="baseline-shift:baseline;display:inline;overflow:visible;vector-effect:none;fill:#000000;stroke:none;stroke-linecap:butt;stroke-linejoin:miter;enable-background:accumulate;stop-color:#000000;stop-opacity:1;opacity:1"
     d="M 9.625 1.4042969 C 5.029942 1.6045574 1.3981828 5.4005783 1.4003906 10 C 1.4003906 12.553401 2.6967736 15.034559 4.2246094 17.130859 C 5.7524451 19.227159 7.5357459 20.945339 8.6230469 21.916016 A 0.60000002 0.60000002 0 0 0 9.46875 21.867188 A 0.60000002 0.60000002 0 0 0 9.421875 21.019531 C 8.374176 20.084208 6.6447268 18.412528 5.1953125 16.423828 C 3.7458982 14.435128 2.5996094 12.136599 2.5996094 10 C 2.5977041 6.0308215 5.7123213 2.7763351 9.6777344 2.6035156 C 13.643147 2.4306961 17.029634 5.4011737 17.373047 9.3554688 A 0.60000002 0.60000002 0 0 0 18.021484 9.9023438 A 0.60000002 0.60000002 0 0 0 18.568359 9.2519531 C 18.170417 4.6697782 14.220058 1.2040364 9.625 1.4042969 z M 10 6.4003906 C 8.0188817 6.4003906 6.4003906 8.0188817 6.4003906 10 C 6.4003906 11.981118 8.0188817 13.599609 10 13.599609 C 11.981118 13.599609 13.599609 11.981118 13.599609 10 C 13.599609 8.0188817 11.981118 6.4003906 10 6.4003906 z M 10 7.5996094 C 11.33259 7.5996094 12.400391 8.6674098 12.400391 10 C 12.400391 11.33259 11.33259 12.400391 10 12.400391 C 8.6674098 12.400391 7.5996094 11.33259 7.5996094 10 C 7.5996094 8.6674098 8.6674098 7.5996094 10 7.5996094 z M 19.742188 12.365234 C 19.122755 12.397029 18.480109 12.666374 17.949219 13.197266 L 13.939453 17.208984 C 13.630392 17.517875 13.40373 17.900872 13.28125 18.320312 L 12.445312 21.189453 C 12.21109 21.992499 13.005548 22.788909 13.808594 22.554688 L 16.679688 21.716797 C 17.09913 21.594317 17.480172 21.367655 17.789062 21.058594 L 21.802734 17.050781 C 22.409467 16.444049 22.675777 15.69133 22.634766 14.994141 C 22.593756 14.296951 22.272515 13.667046 21.802734 13.197266 C 21.332954 12.727485 20.703049 12.406246 20.005859 12.365234 C 19.918711 12.360108 19.830678 12.360692 19.742188 12.365234 z M 19.796875 13.5625 C 19.843007 13.560803 19.889706 13.561757 19.935547 13.564453 C 20.302273 13.586023 20.671906 13.765656 20.953125 14.046875 C 21.234344 14.328094 21.413975 14.697727 21.435547 15.064453 C 21.457117 15.43118 21.347727 15.806571 20.953125 16.201172 L 16.941406 20.210938 C 16.775054 20.377382 16.569639 20.498492 16.34375 20.564453 L 13.648438 21.351562 L 14.433594 18.65625 C 14.499554 18.430361 14.622618 18.224946 14.789062 18.058594 L 18.798828 14.046875 C 19.144103 13.7016 19.473949 13.574382 19.796875 13.5625 z " />
</svg>
