<?xml version="1.0" encoding="UTF-8" standalone="no"?>
<svg
   width="24"
   height="24"
   viewBox="0 0 24 24"
   fill="none"
   stroke="currentColor"
   stroke-width="1.2"
   stroke-linecap="round"
   stroke-linejoin="round"
   version="1.1"
   id="svg4"
   sodipodi:docname=".tmp_network.svg"
   xmlns:inkscape="http://www.inkscape.org/namespaces/inkscape"
   xmlns:sodipodi="http://sodipodi.sourceforge.net/DTD/sodipodi-0.dtd"
   xmlns="http://www.w3.org/2000/svg"
   xmlns:svg="http://www.w3.org/2000/svg">
  <defs
     id="defs4" />
  <sodipodi:namedview
     id="namedview4"
     pagecolor="#ffffff"
     bordercolor="#000000"
     borderopacity="0.25"
     inkscape:showpageshadow="2"
     inkscape:pageopacity="0.0"
     inkscape:pagecheckerboard="0"
     inkscape:deskcolor="#d1d1d1" />
  <path
     id="rect1"
     style="baseline-shift:baseline;display:inline;overflow:visible;vector-effect:none;fill:#000000;stroke:none;stroke-linecap:butt;stroke-linejoin:miter;enable-background:accumulate;stop-color:#000000;stop-opacity:1;opacity:1"
     d="M 10 1.4003906 C 9.1239783 1.4003906 8.4003906 2.1239783 8.4003906 3 L 8.4003906 7 C 8.4003906 7.8760217 9.1239783 8.5996094 10 8.5996094 L 11.400391 8.5996094 L 11.400391 11.400391 L 6 11.400391 C 5.1234512 11.400391 4.4003906 12.123451 4.4003906 13 L 4.4003906 15.400391 L 3 15.400391 C 2.1239783 15.400391 1.4003906 16.123978 1.4003906 17 L 1.4003906 21 C 1.4003906 21.876022 2.1239783 22.599609 3 22.599609 L 7 22.599609 C 7.8760217 22.599609 8.5996094 21.876022 8.5996094 21 L 8.5996094 17 C 8.5996094 16.123978 7.8760217 15.400391 7 15.400391 L 5.5996094 15.400391 L 5.5996094 13 C 5.5996094 12.771979 5.7719793 12.599609 6 12.599609 L 12 12.599609 L 18 12.599609 C 18.228021 12.599609 18.400391 12.771979 18.400391 13 L 18.400391 15.400391 L 17 15.400391 C 16.123978 15.400391 15.400391 16.123978 15.400391 17 L 15.400391 21 C 15.400391 21.876022 16.123978 22.599609 17 22.599609 L 21 22.599609 C 21.876022 22.599609 22.599609 21.876022 22.599609 21 L 22.599609 17 C 22.599609 16.123978 21.876022 15.400391 21 15.400391 L 19.599609 15.400391 L 19.599609 13 C 19.599609 12.123451 18.876549 11.400391 18 11.400391 L 12.599609 11.400391 L 12.599609 8.5996094 L 14 8.5996094 C 14.876022 8.5996094 15.599609 7.8760217 15.599609 7 L 15.599609 3 C 15.599609 2.1239783 14.876022 1.4003906 14 1.4003906 L 10 1.4003906 z M 10 2.5996094 L 14 2.5996094 C 14.231978 2.5996094 14.400391 2.7680217 14.400391 3 L 14.400391 7 C 14.400391 7.2319783 14.231978 7.4003906 14 7.4003906 L 12 7.4003906 L 10 7.4003906 C 9.7680217 7.4003906 9.5996094 7.2319783 9.5996094 7 L 9.5996094 3 C 9.5996094 2.7680217 9.7680217 2.5996094 10 2.5996094 z M 3 16.599609 L 7 16.599609 C 7.2319783 16.599609 7.4003906 16.768022 7.4003906 17 L 7.4003906 21 C 7.4003906 21.231978 7.2319783 21.400391 7 21.400391 L 3 21.400391 C 2.7680217 21.400391 2.5996094 21.231978 2.5996094 21 L 2.5996094 17 C 2.5996094 16.768022 2.7680217 16.599609 3 16.599609 z M 17 16.599609 L 21 16.599609 C 21.231978 16.599609 21.400391 16.768022 21.400391 17 L 21.400391 21 C 21.400391 21.231978 21.231978 21.400391 21 21.400391 L 17 21.400391 C 16.768022 21.400391 16.599609 21.231978 16.599609 21 L 16.599609 17 C 16.599609 16.768022 16.768022 16.599609 17 16.599609 z " />
</svg>
