<?xml version="1.0" encoding="UTF-8" standalone="no"?>
<svg
   width="24"
   height="24"
   viewBox="0 0 24 24"
   fill="none"
   stroke="currentColor"
   stroke-width="1.2"
   stroke-linecap="round"
   stroke-linejoin="round"
   version="1.1"
   id="svg2"
   sodipodi:docname=".tmp_paint-roller.svg"
   xmlns:inkscape="http://www.inkscape.org/namespaces/inkscape"
   xmlns:sodipodi="http://sodipodi.sourceforge.net/DTD/sodipodi-0.dtd"
   xmlns="http://www.w3.org/2000/svg"
   xmlns:svg="http://www.w3.org/2000/svg">
  <defs
     id="defs2" />
  <sodipodi:namedview
     id="namedview2"
     pagecolor="#ffffff"
     bordercolor="#000000"
     borderopacity="0.25"
     inkscape:showpageshadow="2"
     inkscape:pageopacity="0.0"
     inkscape:pagecheckerboard="0"
     inkscape:deskcolor="#d1d1d1" />
  <path
     id="rect1"
     style="baseline-shift:baseline;display:inline;overflow:visible;vector-effect:none;fill:#000000;stroke:none;stroke-linecap:butt;stroke-linejoin:miter;enable-background:accumulate;stop-color:#000000;stop-opacity:1;opacity:1"
     d="M 4 1.4003906 C 2.5699783 1.4003906 1.4003906 2.5699783 1.4003906 4 L 1.4003906 6 C 1.4003906 7.4300217 2.5699783 8.5996094 4 8.5996094 L 16 8.5996094 C 17.430022 8.5996094 18.599609 7.4300217 18.599609 6 L 18.599609 5.5996094 L 20 5.5996094 C 20.780305 5.5996094 21.400391 6.2196946 21.400391 7 L 21.400391 10 C 21.400391 10.780305 20.780305 11.400391 20 11.400391 L 12 11.400391 C 10.571166 11.400391 9.4003906 12.571166 9.4003906 14 L 9.4003906 15.400391 L 9 15.400391 C 8.1239783 15.400391 7.4003906 16.123978 7.4003906 17 L 7.4003906 21 C 7.4003906 21.876022 8.1239783 22.599609 9 22.599609 L 11 22.599609 C 11.876022 22.599609 12.599609 21.876022 12.599609 21 L 12.599609 17 C 12.599609 16.123978 11.876022 15.400391 11 15.400391 L 10.599609 15.400391 L 10.599609 14 C 10.599609 13.219695 11.219695 12.599609 12 12.599609 L 20 12.599609 C 21.428834 12.599609 22.599609 11.428834 22.599609 10 L 22.599609 7 C 22.599609 5.5711664 21.428834 4.4003906 20 4.4003906 L 18.599609 4.4003906 L 18.599609 4 C 18.599609 2.5699783 17.430022 1.4003906 16 1.4003906 L 4 1.4003906 z M 4 2.5996094 L 16 2.5996094 C 16.785978 2.5996094 17.400391 3.2140217 17.400391 4 L 17.400391 6 C 17.400391 6.7859783 16.785978 7.4003906 16 7.4003906 L 4 7.4003906 C 3.2140217 7.4003906 2.5996094 6.7859783 2.5996094 6 L 2.5996094 4 C 2.5996094 3.2140217 3.2140217 2.5996094 4 2.5996094 z M 9 16.599609 L 10 16.599609 L 11 16.599609 C 11.231978 16.599609 11.400391 16.768022 11.400391 17 L 11.400391 21 C 11.400391 21.231978 11.231978 21.400391 11 21.400391 L 9 21.400391 C 8.7680217 21.400391 8.5996094 21.231978 8.5996094 21 L 8.5996094 17 C 8.5996094 16.768022 8.7680217 16.599609 9 16.599609 z " />
</svg>
