<?xml version="1.0" encoding="UTF-8" standalone="no"?>
<svg
   width="24"
   height="24"
   viewBox="0 0 24 24"
   fill="none"
   stroke="currentColor"
   stroke-width="1.2"
   stroke-linecap="round"
   stroke-linejoin="round"
   version="1.1"
   id="svg2"
   sodipodi:docname=".tmp_pill.svg"
   xmlns:inkscape="http://www.inkscape.org/namespaces/inkscape"
   xmlns:sodipodi="http://sodipodi.sourceforge.net/DTD/sodipodi-0.dtd"
   xmlns="http://www.w3.org/2000/svg"
   xmlns:svg="http://www.w3.org/2000/svg">
  <defs
     id="defs2" />
  <sodipodi:namedview
     id="namedview2"
     pagecolor="#ffffff"
     bordercolor="#000000"
     borderopacity="0.25"
     inkscape:showpageshadow="2"
     inkscape:pageopacity="0.0"
     inkscape:pagecheckerboard="0"
     inkscape:deskcolor="#d1d1d1" />
  <path
     id="path1"
     style="baseline-shift:baseline;display:inline;overflow:visible;vector-effect:none;fill:#000000;stroke:none;stroke-linecap:butt;stroke-linejoin:miter;enable-background:accumulate;stop-color:#000000;stop-opacity:1;opacity:1"
     d="M 16.732422 1.3300781 C 15.479422 1.3972085 14.185216 1.9444132 13.072266 3.0800781 L 8.0761719 8.0761719 L 3.0761719 13.076172 C 1.7813782 14.347236 1.2525306 15.853571 1.3300781 17.265625 C 1.4077111 18.679231 2.0654687 19.983437 3.0410156 20.958984 C 4.0165626 21.934531 5.3207689 22.592289 6.734375 22.669922 C 8.146429 22.747472 9.6527643 22.218622 10.923828 20.923828 L 15.923828 15.923828 L 20.919922 10.927734 L 20.923828 10.923828 C 22.218628 9.6527583 22.747469 8.146429 22.669922 6.734375 C 22.592289 5.3207689 21.934531 4.0165626 20.958984 3.0410156 C 19.983437 2.0654687 18.679231 1.4077109 17.265625 1.3300781 C 17.088924 1.320374 16.911422 1.3204881 16.732422 1.3300781 z M 16.791016 2.5253906 C 16.927378 2.5188645 17.064171 2.5199272 17.199219 2.5273438 C 18.2796 2.5866768 19.32497 3.1023141 20.111328 3.8886719 C 20.897686 4.6750297 21.413324 5.7204005 21.472656 6.8007812 C 21.531986 7.8811621 21.163006 9.0109966 20.080078 10.072266 A 0.60006002 0.60006002 0 0 0 20.076172 10.076172 L 15.5 14.652344 L 9.3476562 8.5 L 13.923828 3.9238281 A 0.60006002 0.60006002 0 0 0 13.927734 3.9199219 C 14.856345 2.9723596 15.836478 2.5710736 16.791016 2.5253906 z M 8.5 9.3476562 L 14.652344 15.5 L 10.076172 20.076172 A 0.60006002 0.60006002 0 0 0 10.072266 20.080078 C 9.0109886 21.163018 7.881162 21.531989 6.8007812 21.472656 C 5.7204005 21.413324 4.6750297 20.897686 3.8886719 20.111328 C 3.1023141 19.32497 2.5866763 18.2796 2.5273438 17.199219 C 2.468011 16.118838 2.8369936 14.989003 3.9199219 13.927734 A 0.60006002 0.60006002 0 0 0 3.9238281 13.923828 L 8.5 9.3476562 z " />
</svg>
