<?xml version="1.0" encoding="UTF-8" standalone="no"?>
<svg
   width="24"
   height="24"
   viewBox="0 0 24 24"
   fill="none"
   stroke="currentColor"
   stroke-width="1.2"
   stroke-linecap="round"
   stroke-linejoin="round"
   version="1.1"
   id="svg4"
   sodipodi:docname=".tmp_pound-sterling.svg"
   xmlns:inkscape="http://www.inkscape.org/namespaces/inkscape"
   xmlns:sodipodi="http://sodipodi.sourceforge.net/DTD/sodipodi-0.dtd"
   xmlns="http://www.w3.org/2000/svg"
   xmlns:svg="http://www.w3.org/2000/svg">
  <defs
     id="defs4" />
  <sodipodi:namedview
     id="namedview4"
     pagecolor="#ffffff"
     bordercolor="#000000"
     borderopacity="0.25"
     inkscape:showpageshadow="2"
     inkscape:pageopacity="0.0"
     inkscape:pagecheckerboard="0"
     inkscape:deskcolor="#d1d1d1" />
  <path
     id="path1"
     style="baseline-shift:baseline;display:inline;overflow:visible;vector-effect:none;fill:#000000;stroke:none;stroke-linecap:butt;stroke-linejoin:miter;enable-background:accumulate;stop-color:#000000;stop-opacity:1;opacity:1"
     d="M 14 2.4003906 C 12.866675 2.4003906 11.725273 2.7741972 10.851562 3.5507812 C 9.9778504 4.3273652 9.4003906 5.5167406 9.4003906 7 L 9.4003906 12.400391 L 6 12.400391 A 0.60000002 0.60000002 0 0 0 5.4003906 13 A 0.60000002 0.60000002 0 0 0 6 13.599609 L 9.4003906 13.599609 L 9.4003906 20.400391 L 6 20.400391 A 0.60000002 0.60000002 0 0 0 5.4003906 21 A 0.60000002 0.60000002 0 0 0 6 21.599609 L 18 21.599609 A 0.60000002 0.60000002 0 0 0 18.599609 21 A 0.60000002 0.60000002 0 0 0 18 20.400391 L 10.599609 20.400391 L 10.599609 13.599609 L 16 13.599609 A 0.60000002 0.60000002 0 0 0 16.599609 13 A 0.60000002 0.60000002 0 0 0 16 12.400391 L 10.599609 12.400391 L 10.599609 7 C 10.599609 5.8167594 11.022148 5.0058848 11.648438 4.4492188 C 12.274726 3.8925529 13.133325 3.5996094 14 3.5996094 C 14.866675 3.5996094 15.725274 3.8925529 16.351562 4.4492188 C 16.977851 5.0058848 17.400391 5.8167594 17.400391 7 A 0.60000002 0.60000002 0 0 0 18 7.5996094 A 0.60000002 0.60000002 0 0 0 18.599609 7 C 18.599609 5.5167406 18.02215 4.3273652 17.148438 3.5507812 C 16.274726 2.7741972 15.133325 2.4003906 14 2.4003906 z " />
</svg>
