<?xml version="1.0" encoding="UTF-8" standalone="no"?>
<svg
   width="24"
   height="24"
   viewBox="0 0 24 24"
   fill="none"
   stroke="currentColor"
   stroke-width="1.2"
   stroke-linecap="round"
   stroke-linejoin="round"
   version="1.1"
   id="svg5"
   sodipodi:docname=".tmp_salad.svg"
   xmlns:inkscape="http://www.inkscape.org/namespaces/inkscape"
   xmlns:sodipodi="http://sodipodi.sourceforge.net/DTD/sodipodi-0.dtd"
   xmlns="http://www.w3.org/2000/svg"
   xmlns:svg="http://www.w3.org/2000/svg">
  <defs
     id="defs5" />
  <sodipodi:namedview
     id="namedview5"
     pagecolor="#ffffff"
     bordercolor="#000000"
     borderopacity="0.25"
     inkscape:showpageshadow="2"
     inkscape:pageopacity="0.0"
     inkscape:pagecheckerboard="0"
     inkscape:deskcolor="#d1d1d1" />
  <path
     id="path1"
     style="baseline-shift:baseline;display:inline;overflow:visible;vector-effect:none;fill:#000000;stroke:none;stroke-linecap:butt;stroke-linejoin:miter;enable-background:accumulate;stop-color:#000000;stop-opacity:1;opacity:1"
     d="M 19.199219 2.7148438 C 18.710497 2.7305161 18.21447 2.9580053 17.732422 3.2226562 C 16.474552 2.4688583 14.884783 2.7449928 13.945312 3.8613281 C 12.310651 3.5169627 10.804621 4.5835038 10.488281 6.1230469 C 9.9880953 5.7951222 9.4460659 5.5813996 8.8945312 5.4726562 C 8.0116512 5.2985833 7.1023685 5.3934316 6.2910156 5.7167969 C 4.6693905 6.3630967 3.3916815 7.9436251 3.4003906 10 L 3.4003906 10.001953 L 3.4003906 10.003906 C 3.4008165 10.491526 3.4793774 10.960692 3.6210938 11.400391 L 3 11.400391 A 0.60006002 0.60006002 0 0 0 2.4003906 12 C 2.4003906 15.611174 4.4022995 18.761828 7.3554688 20.400391 L 7 20.400391 A 0.60000002 0.60000002 0 0 0 6.4003906 21 A 0.60000002 0.60000002 0 0 0 7 21.599609 L 17 21.599609 A 0.60000002 0.60000002 0 0 0 17.599609 21 A 0.60000002 0.60000002 0 0 0 17 20.400391 L 16.644531 20.400391 C 19.5977 18.761828 21.599609 15.611174 21.599609 12 A 0.60006002 0.60006002 0 0 0 21 11.400391 L 20.535156 11.400391 C 20.527787 11.335275 20.520286 11.270156 20.513672 11.205078 C 21.962451 10.395093 22.480362 8.5717628 21.623047 7.1289062 C 22.318329 5.8754168 22.117014 4.4588111 21.253906 3.5957031 C 20.772479 3.1142756 20.113998 2.7914399 19.408203 2.7207031 C 19.338748 2.7137422 19.269036 2.7126048 19.199219 2.7148438 z M 19.166016 3.8730469 C 19.636152 3.8798176 20.067234 4.1043432 20.40625 4.4433594 C 21.008945 5.0460549 21.249364 5.9387787 20.548828 6.8300781 A 0.60006002 0.60006002 0 0 0 20.541016 7.5605469 C 21.279059 8.5408956 20.86859 9.9180124 19.714844 10.335938 A 0.60006002 0.60006002 0 0 0 19.337891 11.046875 C 19.36732 11.162978 19.385212 11.281382 19.392578 11.400391 L 14.447266 11.400391 L 17.423828 8.4238281 A 0.60000002 0.60000002 0 0 0 17.423828 7.5761719 A 0.60000002 0.60000002 0 0 0 17 7.4003906 A 0.60000002 0.60000002 0 0 0 16.576172 7.5761719 L 12.751953 11.400391 L 11.324219 11.400391 C 10.165567 11.38947 9.6371214 10.616569 9.5644531 9.75 C 9.4937645 8.9070374 9.8634778 8.081517 10.933594 7.8496094 A 0.60000002 0.60000002 0 0 0 11.074219 7.8222656 A 0.60006002 0.60006002 0 0 0 11.080078 7.8203125 A 0.60000002 0.60000002 0 0 0 11.097656 7.8164062 A 0.60006002 0.60006002 0 0 0 11.564453 7.0976562 C 11.240148 5.6625176 12.590995 4.4929033 13.964844 5.0195312 A 0.60006002 0.60006002 0 0 0 14.685547 4.78125 C 15.253755 3.8867556 16.442681 3.670927 17.289062 4.3085938 A 0.60006002 0.60006002 0 0 0 18.021484 4.3007812 C 18.411428 3.9942968 18.800354 3.8677808 19.166016 3.8730469 z M 7.875 6.5800781 C 8.5257357 6.5494881 9.1890923 6.7083825 9.7890625 7.0957031 C 8.7857035 7.6983693 8.278861 8.7982683 8.3671875 9.8515625 C 8.4131312 10.399441 8.6146219 10.943061 8.9492188 11.400391 L 4.90625 11.400391 C 4.7106879 10.971593 4.5996094 10.500451 4.5996094 10 A 0.60006002 0.60006002 0 0 0 4.5996094 9.9960938 C 4.5916636 8.4281488 5.5227378 7.312977 6.734375 6.8300781 C 7.0991483 6.6846974 7.4845586 6.5984321 7.875 6.5800781 z M 3.7207031 12.599609 L 4.5175781 12.599609 L 4.5625 12.599609 L 20.279297 12.599609 C 19.956958 16.949389 16.433516 20.400391 12 20.400391 C 7.5664836 20.400391 4.0430418 16.949389 3.7207031 12.599609 z " />
</svg>
