<?xml version="1.0" encoding="UTF-8" standalone="no"?>
<svg
   width="24"
   height="24"
   viewBox="0 0 24 24"
   fill="none"
   stroke="currentColor"
   stroke-width="1.2"
   stroke-linecap="round"
   stroke-linejoin="round"
   version="1.1"
   id="svg5"
   sodipodi:docname=".tmp_scale.svg"
   xmlns:inkscape="http://www.inkscape.org/namespaces/inkscape"
   xmlns:sodipodi="http://sodipodi.sourceforge.net/DTD/sodipodi-0.dtd"
   xmlns="http://www.w3.org/2000/svg"
   xmlns:svg="http://www.w3.org/2000/svg">
  <defs
     id="defs5" />
  <sodipodi:namedview
     id="namedview5"
     pagecolor="#ffffff"
     bordercolor="#000000"
     borderopacity="0.25"
     inkscape:showpageshadow="2"
     inkscape:pageopacity="0.0"
     inkscape:pagecheckerboard="0"
     inkscape:deskcolor="#d1d1d1" />
  <path
     id="path1"
     style="baseline-shift:baseline;display:inline;overflow:visible;vector-effect:none;fill:#000000;stroke:none;stroke-linecap:butt;stroke-linejoin:miter;enable-background:accumulate;stop-color:#000000;stop-opacity:1;opacity:1"
     d="M 12 2.4003906 A 0.60000002 0.60000002 0 0 0 11.400391 3 L 11.400391 4.6230469 C 9.472904 5.5316078 6.6996897 6.4003906 5 6.4003906 L 3 6.4003906 A 0.60000002 0.60000002 0 0 0 2.4003906 7 A 0.60000002 0.60000002 0 0 0 3 7.5996094 L 4.5527344 7.5996094 A 0.60006002 0.60006002 0 0 0 4.4375 7.7890625 L 1.4375 15.789062 A 0.60006002 0.60006002 0 0 0 1.640625 16.480469 C 2.6133271 17.2072 3.7903704 17.599609 5 17.599609 C 6.2096296 17.599609 7.3866729 17.2072 8.359375 16.480469 A 0.60006002 0.60006002 0 0 0 8.5625 15.789062 L 5.5625 7.7890625 A 0.60006002 0.60006002 0 0 0 5.4355469 7.5859375 C 7.2861276 7.4811096 9.5638935 6.7445548 11.400391 5.921875 L 11.400391 20.400391 L 7 20.400391 A 0.60000002 0.60000002 0 0 0 6.4003906 21 A 0.60000002 0.60000002 0 0 0 7 21.599609 L 17 21.599609 A 0.60000002 0.60000002 0 0 0 17.599609 21 A 0.60000002 0.60000002 0 0 0 17 20.400391 L 12.599609 20.400391 L 12.599609 5.921875 C 14.436106 6.7445548 16.713873 7.4811095 18.564453 7.5859375 A 0.60006002 0.60006002 0 0 0 18.4375 7.7890625 L 15.4375 15.789062 A 0.60006002 0.60006002 0 0 0 15.640625 16.480469 C 16.613327 17.2072 17.79037 17.599609 19 17.599609 C 20.20963 17.599609 21.386673 17.2072 22.359375 16.480469 A 0.60006002 0.60006002 0 0 0 22.5625 15.789062 L 19.5625 7.7890625 A 0.60006002 0.60006002 0 0 0 19.447266 7.5996094 L 21 7.5996094 A 0.60000002 0.60000002 0 0 0 21.599609 7 A 0.60000002 0.60000002 0 0 0 21 6.4003906 L 19 6.4003906 C 17.30031 6.4003906 14.527096 5.5316078 12.599609 4.6230469 L 12.599609 3 A 0.60000002 0.60000002 0 0 0 12 2.4003906 z M 5 9.7109375 L 7.2304688 15.65625 C 6.5440563 16.069875 5.8027646 16.400391 5 16.400391 C 4.1972354 16.400391 3.4559437 16.069875 2.7695312 15.65625 L 5 9.7109375 z M 19 9.7109375 L 21.230469 15.65625 C 20.544056 16.069875 19.802765 16.400391 19 16.400391 C 18.197235 16.400391 17.455944 16.069875 16.769531 15.65625 L 19 9.7109375 z " />
</svg>
