<?xml version="1.0" encoding="UTF-8" standalone="no"?>
<svg
   width="24"
   height="24"
   viewBox="0 0 24 24"
   fill="none"
   stroke="currentColor"
   stroke-width="1.2"
   stroke-linecap="round"
   stroke-linejoin="round"
   version="1.1"
   id="svg4"
   sodipodi:docname=".tmp_slack.svg"
   xmlns:inkscape="http://www.inkscape.org/namespaces/inkscape"
   xmlns:sodipodi="http://sodipodi.sourceforge.net/DTD/sodipodi-0.dtd"
   xmlns="http://www.w3.org/2000/svg"
   xmlns:svg="http://www.w3.org/2000/svg">
  <defs
     id="defs4" />
  <sodipodi:namedview
     id="namedview4"
     pagecolor="#ffffff"
     bordercolor="#000000"
     borderopacity="0.25"
     inkscape:showpageshadow="2"
     inkscape:pageopacity="0.0"
     inkscape:pagecheckerboard="0"
     inkscape:deskcolor="#d1d1d1" />
  <path
     id="rect1"
     style="baseline-shift:baseline;display:inline;overflow:visible;vector-effect:none;fill:#000000;stroke:none;stroke-linecap:butt;stroke-linejoin:miter;enable-background:accumulate;stop-color:#000000;stop-opacity:1;opacity:1"
     d="M 14.5 1.4003906 C 13.346978 1.4003906 12.400391 2.3469783 12.400391 3.5 L 12.400391 8.5 C 12.400391 9.6530217 13.346978 10.599609 14.5 10.599609 C 15.653022 10.599609 16.599609 9.6530217 16.599609 8.5 L 16.599609 3.5 C 16.599609 2.3469783 15.653022 1.4003906 14.5 1.4003906 z M 8.4316406 1.4023438 C 8.3310658 1.4054754 8.2292073 1.4158768 8.1289062 1.4335938 C 7.7277019 1.5044616 7.3373387 1.6939113 7.015625 2.015625 C 6.3721975 2.6590525 6.2607301 3.5788185 6.5605469 4.3027344 C 6.8603636 5.0266502 7.5899839 5.5996094 8.5 5.5996094 L 10 5.5996094 A 0.60006002 0.60006002 0 0 0 10.599609 5 L 10.599609 3.5 C 10.599609 2.5899839 10.02665 1.8603636 9.3027344 1.5605469 C 9.031266 1.4481156 8.7333652 1.3929488 8.4316406 1.4023438 z M 8.4726562 2.5917969 C 8.5985295 2.5906749 8.723689 2.6182443 8.84375 2.6679688 C 9.1639127 2.8005672 9.4003906 3.0735658 9.4003906 3.5 L 9.4003906 4.4003906 L 8.5 4.4003906 C 8.0735658 4.4003906 7.8005673 4.1639127 7.6679688 3.84375 C 7.5353703 3.5235873 7.5618104 3.1647522 7.8632812 2.8632812 C 8.0517006 2.6748619 8.2628676 2.5936668 8.4726562 2.5917969 z M 14.5 2.5996094 C 15.008978 2.5996094 15.400391 2.9910217 15.400391 3.5 L 15.400391 8.5 C 15.400391 9.0089783 15.008978 9.4003906 14.5 9.4003906 C 13.991022 9.4003906 13.599609 9.0089783 13.599609 8.5 L 13.599609 3.5 C 13.599609 2.9910217 13.991022 2.5996094 14.5 2.5996094 z M 20.568359 6.4023438 C 20.266635 6.3929488 19.968734 6.4481156 19.697266 6.5605469 C 18.97335 6.8603636 18.400391 7.5899839 18.400391 8.5 L 18.400391 10 A 0.60006002 0.60006002 0 0 0 19 10.599609 L 20.5 10.599609 C 21.410016 10.599609 22.139636 10.02665 22.439453 9.3027344 C 22.73927 8.5788185 22.627802 7.6590525 21.984375 7.015625 C 21.662661 6.6939113 21.272298 6.5044616 20.871094 6.4335938 C 20.770792 6.4158768 20.668934 6.4054754 20.568359 6.4023438 z M 3.5 7.4003906 C 2.3469783 7.4003906 1.4003906 8.3469783 1.4003906 9.5 C 1.4003906 10.653022 2.3469783 11.599609 3.5 11.599609 L 8.5 11.599609 C 9.6530217 11.599609 10.599609 10.653022 10.599609 9.5 C 10.599609 8.3469783 9.6530217 7.4003906 8.5 7.4003906 L 3.5 7.4003906 z M 20.527344 7.5917969 C 20.737132 7.5936668 20.948299 7.6748619 21.136719 7.8632812 C 21.43819 8.1647522 21.46463 8.5235873 21.332031 8.84375 C 21.199433 9.1639127 20.926434 9.4003906 20.5 9.4003906 L 19.599609 9.4003906 L 19.599609 8.5 C 19.599609 8.0735658 19.836087 7.8005673 20.15625 7.6679688 C 20.276311 7.6182444 20.401471 7.5906749 20.527344 7.5917969 z M 3.5 8.5996094 L 8.5 8.5996094 C 9.0089783 8.5996094 9.4003906 8.9910217 9.4003906 9.5 C 9.4003906 10.008978 9.0089783 10.400391 8.5 10.400391 L 3.5 10.400391 C 2.9910217 10.400391 2.5996094 10.008978 2.5996094 9.5 C 2.5996094 8.9910217 2.9910217 8.5996094 3.5 8.5996094 z M 15.5 12.400391 C 14.346978 12.400391 13.400391 13.346978 13.400391 14.5 C 13.400391 15.653022 14.346978 16.599609 15.5 16.599609 L 20.5 16.599609 C 21.653022 16.599609 22.599609 15.653022 22.599609 14.5 C 22.599609 13.346978 21.653022 12.400391 20.5 12.400391 L 15.5 12.400391 z M 3.5 13.400391 C 2.5899839 13.400391 1.8603636 13.97335 1.5605469 14.697266 C 1.2607301 15.421181 1.3721975 16.340948 2.015625 16.984375 C 2.6590525 17.627802 3.5788185 17.73927 4.3027344 17.439453 C 5.0266502 17.139636 5.5996094 16.410016 5.5996094 15.5 L 5.5996094 14 A 0.60006002 0.60006002 0 0 0 5 13.400391 L 3.5 13.400391 z M 9.5 13.400391 C 8.3469783 13.400391 7.4003906 14.346978 7.4003906 15.5 L 7.4003906 20.5 C 7.4003906 21.653022 8.3469783 22.599609 9.5 22.599609 C 10.653022 22.599609 11.599609 21.653022 11.599609 20.5 L 11.599609 15.5 C 11.599609 14.346978 10.653022 13.400391 9.5 13.400391 z M 15.5 13.599609 L 20.5 13.599609 C 21.008978 13.599609 21.400391 13.991022 21.400391 14.5 C 21.400391 15.008978 21.008978 15.400391 20.5 15.400391 L 15.5 15.400391 C 14.991022 15.400391 14.599609 15.008978 14.599609 14.5 C 14.599609 13.991022 14.991022 13.599609 15.5 13.599609 z M 3.5 14.599609 L 4.4003906 14.599609 L 4.4003906 15.5 C 4.4003906 15.926434 4.1639127 16.199433 3.84375 16.332031 C 3.5235873 16.46463 3.1647521 16.43819 2.8632812 16.136719 C 2.5618102 15.835248 2.5353702 15.476413 2.6679688 15.15625 C 2.8005672 14.836087 3.0735658 14.599609 3.5 14.599609 z M 9.5 14.599609 C 10.008978 14.599609 10.400391 14.991022 10.400391 15.5 L 10.400391 20.5 C 10.400391 21.008978 10.008978 21.400391 9.5 21.400391 C 8.9910217 21.400391 8.5996094 21.008978 8.5996094 20.5 L 8.5996094 15.5 C 8.5996094 14.991022 8.9910217 14.599609 9.5 14.599609 z M 14 18.400391 A 0.60006002 0.60006002 0 0 0 13.400391 19 L 13.400391 20.5 C 13.400391 21.410016 13.97335 22.139636 14.697266 22.439453 C 15.421181 22.73927 16.340948 22.627802 16.984375 21.984375 C 17.627802 21.340948 17.73927 20.421181 17.439453 19.697266 C 17.139636 18.97335 16.410016 18.400391 15.5 18.400391 L 14 18.400391 z M 14.599609 19.599609 L 15.5 19.599609 C 15.926434 19.599609 16.199433 19.836087 16.332031 20.15625 C 16.46463 20.476413 16.43819 20.835248 16.136719 21.136719 C 15.835248 21.43819 15.476413 21.46463 15.15625 21.332031 C 14.836087 21.199433 14.599609 20.926434 14.599609 20.5 L 14.599609 19.599609 z " />
</svg>
