<?xml version="1.0" encoding="UTF-8" standalone="no"?>
<svg
   width="24"
   height="24"
   viewBox="0 0 24 24"
   fill="none"
   stroke="currentColor"
   stroke-width="1.2"
   stroke-linecap="round"
   stroke-linejoin="round"
   version="1.1"
   id="svg9"
   sodipodi:docname=".tmp_sliders-horizontal.svg"
   xmlns:inkscape="http://www.inkscape.org/namespaces/inkscape"
   xmlns:sodipodi="http://sodipodi.sourceforge.net/DTD/sodipodi-0.dtd"
   xmlns="http://www.w3.org/2000/svg"
   xmlns:svg="http://www.w3.org/2000/svg">
  <defs
     id="defs9" />
  <sodipodi:namedview
     id="namedview9"
     pagecolor="#ffffff"
     bordercolor="#000000"
     borderopacity="0.25"
     inkscape:showpageshadow="2"
     inkscape:pageopacity="0.0"
     inkscape:pagecheckerboard="0"
     inkscape:deskcolor="#d1d1d1" />
  <path
     id="path1"
     style="baseline-shift:baseline;display:inline;overflow:visible;vector-effect:none;fill:#000000;stroke:none;stroke-linecap:butt;stroke-linejoin:miter;enable-background:accumulate;stop-color:#000000;stop-opacity:1;opacity:1"
     d="M 14 2.4003906 A 0.60000002 0.60000002 0 0 0 13.400391 3 L 13.400391 7 A 0.60000002 0.60000002 0 0 0 14 7.5996094 A 0.60000002 0.60000002 0 0 0 14.599609 7 L 14.599609 5.5996094 L 21 5.5996094 A 0.60000002 0.60000002 0 0 0 21.599609 5 A 0.60000002 0.60000002 0 0 0 21 4.4003906 L 14.599609 4.4003906 L 14.599609 3 A 0.60000002 0.60000002 0 0 0 14 2.4003906 z M 3 4.4003906 A 0.60000002 0.60000002 0 0 0 2.4003906 5 A 0.60000002 0.60000002 0 0 0 3 5.5996094 L 10 5.5996094 A 0.60000002 0.60000002 0 0 0 10.599609 5 A 0.60000002 0.60000002 0 0 0 10 4.4003906 L 3 4.4003906 z M 8 9.4003906 A 0.60000002 0.60000002 0 0 0 7.4003906 10 L 7.4003906 11.400391 L 3 11.400391 A 0.60000002 0.60000002 0 0 0 2.4003906 12 A 0.60000002 0.60000002 0 0 0 3 12.599609 L 7.4003906 12.599609 L 7.4003906 14 A 0.60000002 0.60000002 0 0 0 8 14.599609 A 0.60000002 0.60000002 0 0 0 8.5996094 14 L 8.5996094 12 L 8.5996094 10 A 0.60000002 0.60000002 0 0 0 8 9.4003906 z M 12 11.400391 A 0.60000002 0.60000002 0 0 0 11.400391 12 A 0.60000002 0.60000002 0 0 0 12 12.599609 L 21 12.599609 A 0.60000002 0.60000002 0 0 0 21.599609 12 A 0.60000002 0.60000002 0 0 0 21 11.400391 L 12 11.400391 z M 16 16.400391 A 0.60000002 0.60000002 0 0 0 15.400391 17 L 15.400391 21 A 0.60000002 0.60000002 0 0 0 16 21.599609 A 0.60000002 0.60000002 0 0 0 16.599609 21 L 16.599609 19.599609 L 21 19.599609 A 0.60000002 0.60000002 0 0 0 21.599609 19 A 0.60000002 0.60000002 0 0 0 21 18.400391 L 16.599609 18.400391 L 16.599609 17 A 0.60000002 0.60000002 0 0 0 16 16.400391 z M 3 18.400391 A 0.60000002 0.60000002 0 0 0 2.4003906 19 A 0.60000002 0.60000002 0 0 0 3 19.599609 L 12 19.599609 A 0.60000002 0.60000002 0 0 0 12.599609 19 A 0.60000002 0.60000002 0 0 0 12 18.400391 L 3 18.400391 z " />
</svg>
