<?xml version="1.0" encoding="UTF-8" standalone="no"?>
<svg
   width="24"
   height="24"
   viewBox="0 0 24 24"
   fill="none"
   stroke="currentColor"
   stroke-width="1.2"
   stroke-linecap="round"
   stroke-linejoin="round"
   version="1.1"
   id="svg4"
   sodipodi:docname=".tmp_snail.svg"
   xmlns:inkscape="http://www.inkscape.org/namespaces/inkscape"
   xmlns:sodipodi="http://sodipodi.sourceforge.net/DTD/sodipodi-0.dtd"
   xmlns="http://www.w3.org/2000/svg"
   xmlns:svg="http://www.w3.org/2000/svg">
  <defs
     id="defs4" />
  <sodipodi:namedview
     id="namedview4"
     pagecolor="#ffffff"
     bordercolor="#000000"
     borderopacity="0.25"
     inkscape:showpageshadow="2"
     inkscape:pageopacity="0.0"
     inkscape:pagecheckerboard="0"
     inkscape:deskcolor="#d1d1d1" />
  <path
     id="path1"
     style="baseline-shift:baseline;display:inline;overflow:visible;vector-effect:none;fill:#000000;stroke:none;stroke-linecap:butt;stroke-linejoin:miter;enable-background:accumulate;stop-color:#000000;stop-opacity:1;opacity:1"
     d="M 17.958984 2.4003906 A 0.60000002 0.60000002 0 0 0 17.732422 2.4628906 A 0.60000002 0.60000002 0 0 0 17.462891 3.2675781 L 18.316406 4.9746094 C 18.286157 4.9990253 18.255858 5.0247411 18.226562 5.0507812 C 17.727853 5.4940782 17.400391 6.1833336 17.400391 7 L 17.400391 8.6230469 C 15.900829 6.0970781 13.145131 4.4003906 10 4.4003906 C 5.2574579 4.4003906 1.4003906 8.2574579 1.4003906 13 C 1.4003906 13.272298 1.4228523 13.538973 1.4550781 13.802734 C 1.7172209 16.608365 3.3155604 19.030533 5.6230469 20.400391 L 2 20.400391 A 0.60000002 0.60000002 0 0 0 1.4003906 21 A 0.60000002 0.60000002 0 0 0 2 21.599609 L 14 21.599609 C 18.727273 21.599609 22.599609 17.727273 22.599609 13 L 22.599609 7 C 22.599609 6.1833336 22.272147 5.4940781 21.773438 5.0507812 C 21.744143 5.0247413 21.713843 4.9990252 21.683594 4.9746094 L 22.537109 3.2675781 A 0.60000002 0.60000002 0 0 0 22.267578 2.4628906 A 0.60000002 0.60000002 0 0 0 21.462891 2.7324219 L 20.597656 4.4628906 C 20.400852 4.4206953 20.19994 4.4003906 20 4.4003906 C 19.80006 4.4003906 19.599148 4.4206953 19.402344 4.4628906 L 18.537109 2.7324219 A 0.60000002 0.60000002 0 0 0 17.958984 2.4003906 z M 10 5.5996094 C 14.094014 5.5996094 17.400391 8.9059861 17.400391 13 C 17.400391 17.094014 14.094014 20.400391 10 20.400391 C 8.6029363 20.400391 7.2971307 20.01566 6.1835938 19.345703 C 6.7607638 19.511221 7.3704865 19.599609 8 19.599609 C 11.637972 19.599609 14.599609 16.637975 14.599609 13 C 14.599609 11.516667 14.022146 10.327411 13.148438 9.5507812 C 12.274727 8.7741511 11.133333 8.4003906 10 8.4003906 C 8.8666667 8.4003906 7.7252717 8.7741511 6.8515625 9.5507812 C 5.9778533 10.327411 5.4003906 11.516667 5.4003906 13 C 5.4003906 13.816666 5.7278533 14.505922 6.2265625 14.949219 C 6.7252717 15.392516 7.3666667 15.599609 8 15.599609 C 8.6333333 15.599609 9.2747283 15.392516 9.7734375 14.949219 C 10.272147 14.505922 10.599609 13.816666 10.599609 13 A 0.60000002 0.60000002 0 0 0 10 12.400391 A 0.60000002 0.60000002 0 0 0 9.4003906 13 C 9.4003906 13.516666 9.2278533 13.827412 8.9765625 14.050781 C 8.7252717 14.274151 8.3666667 14.400391 8 14.400391 C 7.6333333 14.400391 7.2747283 14.274151 7.0234375 14.050781 C 6.7721467 13.827412 6.5996094 13.516666 6.5996094 13 C 6.5996094 11.816667 7.0221467 11.005921 7.6484375 10.449219 C 8.2747283 9.8925158 9.1333333 9.5996094 10 9.5996094 C 10.866667 9.5996094 11.725271 9.8925158 12.351562 10.449219 C 12.977852 11.005921 13.400391 11.816667 13.400391 13 C 13.400391 15.989447 10.989445 18.400391 8 18.400391 C 5.2361553 18.400391 2.9713088 16.337536 2.6445312 13.664062 C 2.6249417 13.444048 2.5996094 13.2252 2.5996094 13 C 2.5996094 8.9059861 5.9059861 5.5996094 10 5.5996094 z M 20 5.5996094 C 20.203274 5.5996094 20.40453 5.6383 20.585938 5.7109375 A 0.60000002 0.60000002 0 0 0 20.630859 5.7363281 A 0.60000002 0.60000002 0 0 0 20.71875 5.7714844 C 20.813164 5.8208838 20.899479 5.8807 20.976562 5.9492188 C 21.227853 6.1725883 21.400391 6.4833337 21.400391 7 L 21.400391 13 C 21.400391 16.940279 18.285284 20.18387 14.394531 20.390625 C 16.889521 18.901421 18.565516 16.182879 18.59375 13.078125 A 0.60000002 0.60000002 0 0 0 18.599609 13 L 18.599609 7 C 18.599609 6.4833337 18.772147 6.1725883 19.023438 5.9492188 C 19.100521 5.8807002 19.186836 5.8208838 19.28125 5.7714844 A 0.60000002 0.60000002 0 0 0 19.369141 5.7363281 A 0.60000002 0.60000002 0 0 0 19.414062 5.7109375 C 19.59547 5.6383001 19.796726 5.5996094 20 5.5996094 z " />
</svg>
