<?xml version="1.0" encoding="UTF-8" standalone="no"?>
<svg
   width="24"
   height="24"
   viewBox="0 0 24 24"
   fill="none"
   stroke="currentColor"
   stroke-width="1.2"
   stroke-linecap="round"
   stroke-linejoin="round"
   version="1.1"
   id="svg2"
   sodipodi:docname=".tmp_square-pen.svg"
   xmlns:inkscape="http://www.inkscape.org/namespaces/inkscape"
   xmlns:sodipodi="http://sodipodi.sourceforge.net/DTD/sodipodi-0.dtd"
   xmlns="http://www.w3.org/2000/svg"
   xmlns:svg="http://www.w3.org/2000/svg">
  <defs
     id="defs2" />
  <sodipodi:namedview
     id="namedview2"
     pagecolor="#ffffff"
     bordercolor="#000000"
     borderopacity="0.25"
     inkscape:showpageshadow="2"
     inkscape:pageopacity="0.0"
     inkscape:pagecheckerboard="0"
     inkscape:deskcolor="#d1d1d1" />
  <path
     id="path1"
     style="baseline-shift:baseline;display:inline;overflow:visible;vector-effect:none;fill:#000000;stroke:none;stroke-linecap:butt;stroke-linejoin:miter;enable-background:accumulate;stop-color:#000000;stop-opacity:1;opacity:1"
     d="M 19.740234 1.3691406 C 19.12177 1.4010733 18.48148 1.6708642 17.951172 2.2011719 L 8.9375 11.214844 C 8.6288114 11.523002 8.4041274 11.903755 8.28125 12.322266 A 0.60006002 0.60006002 0 0 0 8.2792969 12.322266 L 7.4394531 15.195312 C 7.2052315 15.998358 8.0016418 16.794769 8.8046875 16.560547 L 11.677734 15.720703 C 12.096578 15.598398 12.476487 15.370903 12.785156 15.0625 A 0.60006002 0.60006002 0 0 0 12.787109 15.0625 L 21.798828 6.0488281 C 22.404894 5.4427623 22.671829 4.6925752 22.630859 3.9960938 C 22.58989 3.2996121 22.268109 2.6704527 21.798828 2.2011719 C 21.329547 1.731891 20.700388 1.4101103 20.003906 1.3691406 C 19.916846 1.3640194 19.828586 1.3645788 19.740234 1.3691406 z M 5 2.4003906 C 3.5711664 2.4003906 2.4003906 3.5711664 2.4003906 5 L 2.4003906 19 C 2.4003906 20.428834 3.5711664 21.599609 5 21.599609 L 19 21.599609 C 20.428834 21.599609 21.599609 20.428834 21.599609 19 L 21.599609 12 A 0.60000002 0.60000002 0 0 0 21 11.400391 A 0.60000002 0.60000002 0 0 0 20.400391 12 L 20.400391 19 C 20.400391 19.780305 19.780305 20.400391 19 20.400391 L 5 20.400391 C 4.2196946 20.400391 3.5996094 19.780305 3.5996094 19 L 3.5996094 5 C 3.5996094 4.2196946 4.2196946 3.5996094 5 3.5996094 L 12 3.5996094 A 0.60000002 0.60000002 0 0 0 12.599609 3 A 0.60000002 0.60000002 0 0 0 12 2.4003906 L 5 2.4003906 z M 19.796875 2.5664062 C 19.842922 2.5647425 19.887841 2.5656681 19.933594 2.5683594 C 20.299612 2.5898904 20.670453 2.768109 20.951172 3.0488281 C 21.231891 3.3295473 21.41011 3.7003881 21.431641 4.0664062 C 21.453171 4.4324246 21.345111 4.8072382 20.951172 5.2011719 L 11.9375 14.214844 C 11.771267 14.380933 11.565411 14.502492 11.339844 14.568359 L 8.6425781 15.357422 L 9.4316406 12.660156 C 9.4978156 12.434768 9.6189126 12.230411 9.7851562 12.064453 A 0.60006002 0.60006002 0 0 0 9.7871094 12.0625 L 18.798828 3.0488281 C 19.14352 2.7041361 19.474543 2.5780527 19.796875 2.5664062 z " />
</svg>
