<?xml version="1.0" encoding="UTF-8" standalone="no"?>
<svg
   width="24"
   height="24"
   viewBox="0 0 24 24"
   fill="none"
   stroke="currentColor"
   stroke-width="1.2"
   stroke-linecap="round"
   stroke-linejoin="round"
   version="1.1"
   id="svg6"
   sodipodi:docname=".tmp_tent-tree.svg"
   xmlns:inkscape="http://www.inkscape.org/namespaces/inkscape"
   xmlns:sodipodi="http://sodipodi.sourceforge.net/DTD/sodipodi-0.dtd"
   xmlns="http://www.w3.org/2000/svg"
   xmlns:svg="http://www.w3.org/2000/svg">
  <defs
     id="defs6" />
  <sodipodi:namedview
     id="namedview6"
     pagecolor="#ffffff"
     bordercolor="#000000"
     borderopacity="0.25"
     inkscape:showpageshadow="2"
     inkscape:pageopacity="0.0"
     inkscape:pagecheckerboard="0"
     inkscape:deskcolor="#d1d1d1" />
  <path
     id="circle1"
     style="baseline-shift:baseline;display:inline;overflow:visible;vector-effect:none;fill:#000000;stroke:none;stroke-linecap:butt;stroke-linejoin:miter;enable-background:accumulate;stop-color:#000000;stop-opacity:1;opacity:1"
     d="M 4 1.4003906 C 2.5711664 1.4003906 1.4003906 2.5711664 1.4003906 4 C 1.4003906 5.4288336 2.5711664 6.5996094 4 6.5996094 C 5.4288336 6.5996094 6.5996094 5.4288336 6.5996094 4 C 6.5996094 2.5711664 5.4288336 1.4003906 4 1.4003906 z M 17 1.4003906 A 0.60000002 0.60000002 0 0 0 16.919922 1.40625 A 0.60000002 0.60000002 0 0 0 16.714844 1.4726562 A 0.60006002 0.60006002 0 0 0 16.634766 1.5253906 A 0.60000002 0.60000002 0 0 0 16.59375 1.5605469 A 0.60006002 0.60006002 0 0 0 16.576172 1.5761719 A 0.60000002 0.60000002 0 0 0 16.570312 1.5820312 L 13.576172 4.5761719 A 0.60000002 0.60000002 0 0 0 13.576172 5.4238281 A 0.60000002 0.60000002 0 0 0 14.423828 5.4238281 L 16.400391 3.4472656 L 16.400391 6.7519531 L 13.576172 9.5761719 A 0.60000002 0.60000002 0 0 0 13.576172 10.423828 A 0.60000002 0.60000002 0 0 0 14.423828 10.423828 L 16.400391 8.4472656 L 16.400391 13.400391 L 9.046875 13.400391 A 0.60000002 0.60000002 0 0 0 8.953125 13.400391 L 7 13.400391 A 0.60006002 0.60006002 0 0 0 6.4902344 13.681641 L 1.4902344 21.681641 A 0.60006002 0.60006002 0 0 0 2 22.599609 L 13.953125 22.599609 A 0.60000002 0.60000002 0 0 0 14.046875 22.599609 L 22 22.599609 A 0.60006002 0.60006002 0 0 0 22.509766 21.681641 L 17.599609 13.826172 L 17.599609 8.4472656 L 19.576172 10.423828 A 0.60000002 0.60000002 0 0 0 20.423828 10.423828 A 0.60000002 0.60000002 0 0 0 20.423828 9.5761719 L 17.599609 6.7519531 L 17.599609 3.4472656 L 19.576172 5.4238281 A 0.60000002 0.60000002 0 0 0 20.423828 5.4238281 A 0.60000002 0.60000002 0 0 0 20.423828 4.5761719 L 17.429688 1.5820312 A 0.60000002 0.60000002 0 0 0 17.40625 1.5605469 A 0.60006002 0.60006002 0 0 0 17.304688 1.484375 A 0.60000002 0.60000002 0 0 0 17.154297 1.421875 A 0.60006002 0.60006002 0 0 0 17.080078 1.40625 A 0.60000002 0.60000002 0 0 0 17.078125 1.40625 A 0.60006002 0.60006002 0 0 0 17 1.4003906 z M 4 2.5996094 C 4.7803054 2.5996094 5.4003906 3.2196946 5.4003906 4 C 5.4003906 4.7803054 4.7803054 5.4003906 4 5.4003906 C 3.2196946 5.4003906 2.5996094 4.7803054 2.5996094 4 C 2.5996094 3.2196946 3.2196946 2.5996094 4 2.5996094 z M 7.3320312 14.599609 L 7.4003906 14.599609 L 7.4003906 21.400391 L 3.0839844 21.400391 L 7.3320312 14.599609 z M 8.5996094 14.599609 L 8.6660156 14.599609 L 12.916016 21.400391 L 8.5996094 21.400391 L 8.5996094 14.599609 z M 10.083984 14.599609 L 16.666016 14.599609 L 20.916016 21.400391 L 14.333984 21.400391 L 10.083984 14.599609 z " />
</svg>
