<?xml version="1.0" encoding="UTF-8" standalone="no"?>
<svg
   width="24"
   height="24"
   viewBox="0 0 24 24"
   fill="none"
   stroke="currentColor"
   stroke-width="1.2"
   stroke-linecap="round"
   stroke-linejoin="round"
   version="1.1"
   id="svg3"
   sodipodi:docname=".tmp_ticket-x.svg"
   xmlns:inkscape="http://www.inkscape.org/namespaces/inkscape"
   xmlns:sodipodi="http://sodipodi.sourceforge.net/DTD/sodipodi-0.dtd"
   xmlns="http://www.w3.org/2000/svg"
   xmlns:svg="http://www.w3.org/2000/svg">
  <defs
     id="defs3" />
  <sodipodi:namedview
     id="namedview3"
     pagecolor="#ffffff"
     bordercolor="#000000"
     borderopacity="0.25"
     inkscape:showpageshadow="2"
     inkscape:pageopacity="0.0"
     inkscape:pagecheckerboard="0"
     inkscape:deskcolor="#d1d1d1" />
  <path
     id="path1"
     style="baseline-shift:baseline;display:inline;overflow:visible;vector-effect:none;fill:#000000;stroke:none;stroke-linecap:butt;stroke-linejoin:miter;enable-background:accumulate;stop-color:#000000;stop-opacity:1;opacity:1"
     d="M 4 4.4003906 C 2.5711664 4.4003906 1.4003906 5.5711664 1.4003906 7 L 1.4003906 9 A 0.60006002 0.60006002 0 0 0 2 9.5996094 C 2.8499995 9.5996094 3.4107451 9.8971462 3.8007812 10.335938 C 4.1908173 10.774727 4.4003906 11.383333 4.4003906 12 C 4.4003906 12.616667 4.1908174 13.225271 3.8007812 13.664062 C 3.4107451 14.102852 2.8499995 14.400391 2 14.400391 A 0.60006002 0.60006002 0 0 0 1.4003906 15 L 1.4003906 17 C 1.4003906 18.428834 2.5711664 19.599609 4 19.599609 L 20 19.599609 C 21.428834 19.599609 22.599609 18.428834 22.599609 17 L 22.599609 15 A 0.60006002 0.60006002 0 0 0 22 14.400391 C 21.150001 14.400391 20.589255 14.102853 20.199219 13.664062 C 19.809183 13.225271 19.599609 12.616667 19.599609 12 C 19.599609 11.383333 19.809183 10.774727 20.199219 10.335938 C 20.589255 9.8971462 21.150001 9.5996094 22 9.5996094 A 0.60006002 0.60006002 0 0 0 22.599609 9 L 22.599609 7 C 22.599609 5.5711664 21.428834 4.4003906 20 4.4003906 L 4 4.4003906 z M 4 5.5996094 L 20 5.5996094 C 20.780305 5.5996094 21.400391 6.2196946 21.400391 7 L 21.400391 8.5214844 C 20.542239 8.6560748 19.792813 8.9855261 19.300781 9.5390625 C 18.690818 10.225272 18.400391 11.116667 18.400391 12 C 18.400391 12.883333 18.690818 13.774727 19.300781 14.460938 C 19.792813 15.014473 20.542239 15.343925 21.400391 15.478516 L 21.400391 17 C 21.400391 17.780305 20.780305 18.400391 20 18.400391 L 4 18.400391 C 3.2196946 18.400391 2.5996094 17.780305 2.5996094 17 L 2.5996094 15.478516 C 3.4577614 15.343925 4.2071866 15.014474 4.6992188 14.460938 C 5.3091823 13.774727 5.5996094 12.883333 5.5996094 12 C 5.5996094 11.116667 5.3091822 10.225272 4.6992188 9.5390625 C 4.2071866 8.9855261 3.4577614 8.6560748 2.5996094 8.5214844 L 2.5996094 7 C 2.5996094 6.2196946 3.2196946 5.5996094 4 5.5996094 z M 9.5 8.9003906 A 0.60000002 0.60000002 0 0 0 9.0761719 9.0761719 A 0.60000002 0.60000002 0 0 0 9.0761719 9.9238281 L 11.152344 12 L 9.0761719 14.076172 A 0.60000002 0.60000002 0 0 0 9.0761719 14.923828 A 0.60000002 0.60000002 0 0 0 9.9238281 14.923828 L 12 12.847656 L 14.076172 14.923828 A 0.60000002 0.60000002 0 0 0 14.923828 14.923828 A 0.60000002 0.60000002 0 0 0 14.923828 14.076172 L 12.847656 12 L 14.923828 9.9238281 A 0.60000002 0.60000002 0 0 0 14.923828 9.0761719 A 0.60000002 0.60000002 0 0 0 14.076172 9.0761719 L 12 11.152344 L 9.9238281 9.0761719 A 0.60000002 0.60000002 0 0 0 9.5 8.9003906 z " />
</svg>
