<?xml version="1.0" encoding="UTF-8" standalone="no"?>
<svg
   width="24"
   height="24"
   viewBox="0 0 24 24"
   fill="none"
   stroke="currentColor"
   stroke-width="1.2"
   stroke-linecap="round"
   stroke-linejoin="round"
   version="1.1"
   id="svg6"
   sodipodi:docname=".tmp_touchpad-off.svg"
   xmlns:inkscape="http://www.inkscape.org/namespaces/inkscape"
   xmlns:sodipodi="http://sodipodi.sourceforge.net/DTD/sodipodi-0.dtd"
   xmlns="http://www.w3.org/2000/svg"
   xmlns:svg="http://www.w3.org/2000/svg">
  <defs
     id="defs6" />
  <sodipodi:namedview
     id="namedview6"
     pagecolor="#ffffff"
     bordercolor="#000000"
     borderopacity="0.25"
     inkscape:showpageshadow="2"
     inkscape:pageopacity="0.0"
     inkscape:pagecheckerboard="0"
     inkscape:deskcolor="#d1d1d1" />
  <path
     id="path1"
     style="baseline-shift:baseline;display:inline;overflow:visible;vector-effect:none;fill:#000000;stroke:none;stroke-linecap:butt;stroke-linejoin:miter;enable-background:accumulate;stop-color:#000000;stop-opacity:1;opacity:1"
     d="M 2 1.4003906 A 0.60000002 0.60000002 0 0 0 1.5761719 1.5761719 A 0.60000002 0.60000002 0 0 0 1.5761719 2.4238281 L 2.8320312 3.6796875 C 1.9849346 4.1096122 1.4003906 4.9903865 1.4003906 6 L 1.4003906 18 C 1.4003906 19.428834 2.5711664 20.599609 4 20.599609 L 19.751953 20.599609 L 21.576172 22.423828 A 0.60000002 0.60000002 0 0 0 22.423828 22.423828 A 0.60000002 0.60000002 0 0 0 22.423828 21.576172 L 20.429688 19.582031 A 0.60000002 0.60000002 0 0 0 20.417969 19.570312 L 14.429688 13.582031 A 0.60000002 0.60000002 0 0 0 14.417969 13.570312 L 4.4296875 3.5820312 A 0.60000002 0.60000002 0 0 0 4.4179688 3.5703125 L 2.4238281 1.5761719 A 0.60000002 0.60000002 0 0 0 2 1.4003906 z M 9.65625 3.4003906 A 0.60000002 0.60000002 0 0 0 9.0566406 4 A 0.60000002 0.60000002 0 0 0 9.65625 4.5996094 L 20 4.5996094 C 20.780305 4.5996094 21.400391 5.2196946 21.400391 6 L 21.400391 13.400391 L 19.65625 13.400391 A 0.60000002 0.60000002 0 0 0 19.056641 14 A 0.60000002 0.60000002 0 0 0 19.65625 14.599609 L 21.400391 14.599609 L 21.400391 16.34375 A 0.60000002 0.60000002 0 0 0 22 16.943359 A 0.60000002 0.60000002 0 0 0 22.599609 16.34375 L 22.599609 14 L 22.599609 6 C 22.599609 4.5711664 21.428834 3.4003906 20 3.4003906 L 9.65625 3.4003906 z M 3.7695312 4.6171875 L 12.552734 13.400391 L 2.5996094 13.400391 L 2.5996094 6 C 2.5996094 5.2980502 3.1006993 4.7250446 3.7695312 4.6171875 z M 2.5996094 14.599609 L 11.400391 14.599609 L 11.400391 19.400391 L 4 19.400391 C 3.2196946 19.400391 2.5996094 18.780305 2.5996094 18 L 2.5996094 14.599609 z M 12.599609 14.599609 L 13.751953 14.599609 L 18.552734 19.400391 L 12.599609 19.400391 L 12.599609 14.599609 z " />
</svg>
