<?xml version="1.0" encoding="UTF-8" standalone="no"?>
<svg
   width="24"
   height="24"
   viewBox="0 0 24 24"
   fill="none"
   stroke="currentColor"
   stroke-width="1.2"
   stroke-linecap="round"
   stroke-linejoin="round"
   version="1.1"
   id="svg1"
   sodipodi:docname=".tmp_triangle-right.svg"
   xmlns:inkscape="http://www.inkscape.org/namespaces/inkscape"
   xmlns:sodipodi="http://sodipodi.sourceforge.net/DTD/sodipodi-0.dtd"
   xmlns="http://www.w3.org/2000/svg"
   xmlns:svg="http://www.w3.org/2000/svg">
  <defs
     id="defs1" />
  <sodipodi:namedview
     id="namedview1"
     pagecolor="#ffffff"
     bordercolor="#000000"
     borderopacity="0.25"
     inkscape:showpageshadow="2"
     inkscape:pageopacity="0.0"
     inkscape:pagecheckerboard="0"
     inkscape:deskcolor="#d1d1d1" />
  <path
     id="path1"
     style="baseline-shift:baseline;display:inline;overflow:visible;vector-effect:none;fill:#000000;stroke:none;stroke-linecap:butt;stroke-linejoin:miter;enable-background:accumulate;stop-color:#000000;stop-opacity:1;opacity:1"
     d="M 21.222656 3.3203125 C 21.110882 3.3246162 20.999601 3.3433153 20.888672 3.3730469 C 20.592862 3.452331 20.302397 3.61528 20.03125 3.8261719 A 0.60006002 0.60006002 0 0 0 20.023438 3.8339844 L 2.2324219 18.226562 C 1.9661327 18.433676 1.7577976 18.644523 1.6113281 18.894531 C 1.4648586 19.14454 1.3769968 19.471492 1.4785156 19.792969 C 1.5800345 20.114445 1.8464559 20.33478 2.1132812 20.447266 C 2.3801065 20.559751 2.6704545 20.599609 3 20.599609 L 20 20.599609 C 21.428834 20.599609 22.599609 19.428834 22.599609 18 L 22.599609 5 C 22.599609 4.3227273 22.358773 3.6766233 21.777344 3.4238281 C 21.595647 3.3448296 21.408946 3.3131397 21.222656 3.3203125 z M 21.289062 4.5253906 C 21.295214 4.5253878 21.298093 4.5254853 21.298828 4.5253906 L 21.300781 4.5273438 C 21.31621 4.54067 21.400391 4.6271948 21.400391 5 L 21.400391 18 C 21.400391 18.780305 20.780305 19.400391 20 19.400391 L 3 19.400391 C 2.8830948 19.400391 2.8498893 19.381831 2.7773438 19.369141 C 2.8324348 19.306621 2.8595158 19.258788 2.96875 19.173828 A 0.60006002 0.60006002 0 0 0 2.9765625 19.166016 L 20.767578 4.7734375 C 21.070055 4.5381782 21.246 4.5254105 21.289062 4.5253906 z " />
</svg>
