<?xml version="1.0" encoding="UTF-8" standalone="no"?>
<svg
   width="24"
   height="24"
   viewBox="0 0 24 24"
   fill="none"
   stroke="currentColor"
   stroke-width="1.2"
   stroke-linecap="round"
   stroke-linejoin="round"
   version="1.1"
   id="svg4"
   sodipodi:docname=".tmp_utensils-crossed.svg"
   xmlns:inkscape="http://www.inkscape.org/namespaces/inkscape"
   xmlns:sodipodi="http://sodipodi.sourceforge.net/DTD/sodipodi-0.dtd"
   xmlns="http://www.w3.org/2000/svg"
   xmlns:svg="http://www.w3.org/2000/svg">
  <defs
     id="defs4" />
  <sodipodi:namedview
     id="namedview4"
     pagecolor="#ffffff"
     bordercolor="#000000"
     borderopacity="0.25"
     inkscape:showpageshadow="2"
     inkscape:pageopacity="0.0"
     inkscape:pagecheckerboard="0"
     inkscape:deskcolor="#d1d1d1" />
  <path
     id="path1"
     style="baseline-shift:baseline;display:inline;overflow:visible;vector-effect:none;fill:#000000;stroke:none;stroke-linecap:butt;stroke-linejoin:miter;enable-background:accumulate;stop-color:#000000;stop-opacity:1;opacity:1"
     d="M 16 1.4003906 A 0.60000002 0.60000002 0 0 0 15.576172 1.5761719 L 13.275391 3.875 A 0.60006002 0.60006002 0 0 0 13.271484 3.8808594 C 11.904042 5.2759299 11.904042 7.5248513 13.271484 8.9199219 A 0.60006002 0.60006002 0 0 0 13.275391 8.9238281 L 13.751953 9.4003906 L 12 11.152344 L 3.7246094 2.875 A 0.60006002 0.60006002 0 0 0 2.8808594 2.8710938 C 0.96533417 4.7479175 0.96533417 7.8516919 2.8808594 9.7285156 L 8.1582031 15.005859 A 0.60000002 0.60000002 0 0 0 8.078125 15.072266 L 1.6796875 21.373047 A 0.60000002 0.60000002 0 0 0 1.671875 22.220703 A 0.60000002 0.60000002 0 0 0 2.5214844 22.228516 L 8.921875 15.927734 A 0.60000002 0.60000002 0 0 0 8.9941406 15.841797 L 10.175781 17.023438 C 11.138421 17.986078 12.752499 17.962905 13.794922 17.050781 A 0.60006002 0.60006002 0 0 0 13.824219 17.023438 L 15 15.847656 L 21.576172 22.423828 A 0.60000002 0.60000002 0 0 0 22.423828 22.423828 A 0.60000002 0.60000002 0 0 0 22.423828 21.576172 L 15.423828 14.576172 L 12.847656 12 L 14.599609 10.248047 L 15.076172 10.724609 A 0.60006002 0.60006002 0 0 0 15.080078 10.728516 C 16.475149 12.095958 18.72407 12.095958 20.119141 10.728516 A 0.60006002 0.60006002 0 0 0 20.125 10.724609 L 22.423828 8.4238281 A 0.60000002 0.60000002 0 0 0 22.423828 7.5761719 A 0.60000002 0.60000002 0 0 0 21.576172 7.5761719 L 19.279297 9.8710938 C 18.341306 10.790508 16.857912 10.790508 15.919922 9.8710938 L 15.449219 9.3984375 L 19.423828 5.4238281 A 0.60000002 0.60000002 0 0 0 19.423828 4.5761719 A 0.60000002 0.60000002 0 0 0 19 4.4003906 A 0.60000002 0.60000002 0 0 0 18.576172 4.5761719 L 14.601562 8.5507812 L 14.128906 8.0800781 C 13.209492 7.1420876 13.209492 5.6586937 14.128906 4.7207031 L 16.423828 2.4238281 A 0.60000002 0.60000002 0 0 0 16.423828 1.5761719 A 0.60000002 0.60000002 0 0 0 16 1.4003906 z M 3.3808594 4.2304688 L 11.576172 12.423828 L 14.152344 15 L 13.001953 16.150391 C 12.443794 16.635297 11.459934 16.612279 11.023438 16.175781 L 3.7246094 8.875 A 0.60006002 0.60006002 0 0 0 3.7207031 8.8710938 C 2.4256057 7.6021627 2.3562342 5.6488503 3.3808594 4.2304688 z " />
</svg>
