<?xml version="1.0" encoding="UTF-8" standalone="no"?>
<svg
   width="24"
   height="24"
   viewBox="0 0 24 24"
   fill="none"
   stroke="currentColor"
   stroke-width="1.2"
   stroke-linecap="round"
   stroke-linejoin="round"
   version="1.1"
   id="svg8"
   sodipodi:docname=".tmp_wand-sparkles.svg"
   xmlns:inkscape="http://www.inkscape.org/namespaces/inkscape"
   xmlns:sodipodi="http://sodipodi.sourceforge.net/DTD/sodipodi-0.dtd"
   xmlns="http://www.w3.org/2000/svg"
   xmlns:svg="http://www.w3.org/2000/svg">
  <defs
     id="defs8" />
  <sodipodi:namedview
     id="namedview8"
     pagecolor="#ffffff"
     bordercolor="#000000"
     borderopacity="0.25"
     inkscape:showpageshadow="2"
     inkscape:pageopacity="0.0"
     inkscape:pagecheckerboard="0"
     inkscape:deskcolor="#d1d1d1" />
  <path
     id="path1"
     style="baseline-shift:baseline;display:inline;overflow:visible;vector-effect:none;fill:#000000;stroke:none;stroke-linecap:butt;stroke-linejoin:miter;enable-background:accumulate;stop-color:#000000;stop-opacity:1;opacity:1"
     d="M 10 1.4003906 A 0.60000002 0.60000002 0 0 0 9.4003906 2 L 9.4003906 2.4003906 L 9 2.4003906 A 0.60000002 0.60000002 0 0 0 8.4003906 3 A 0.60000002 0.60000002 0 0 0 9 3.5996094 L 9.4003906 3.5996094 L 9.4003906 4 A 0.60000002 0.60000002 0 0 0 10 4.5996094 A 0.60000002 0.60000002 0 0 0 10.599609 4 L 10.599609 3.5996094 L 11 3.5996094 A 0.60000002 0.60000002 0 0 0 11.599609 3 A 0.60000002 0.60000002 0 0 0 11 2.4003906 L 10.599609 2.4003906 L 10.599609 2 A 0.60000002 0.60000002 0 0 0 10 1.4003906 z M 19.5 1.4042969 C 19.032568 1.4042969 18.564474 1.582272 18.212891 1.9375 L 1.9355469 18.214844 C 1.2270418 18.918213 1.2276979 20.084587 1.9375 20.787109 L 3.2109375 22.058594 C 3.9122406 22.779255 5.0877594 22.779255 5.7890625 22.058594 L 22.058594 5.7890625 C 22.775421 5.0914902 22.773613 3.9271933 22.064453 3.2246094 A 0.60000002 0.60000002 0 0 0 22.064453 3.2148438 L 22.058594 3.2109375 L 20.787109 1.9375 C 20.435526 1.582272 19.967432 1.4042969 19.5 1.4042969 z M 19.5 2.5957031 C 19.655827 2.5957031 19.811653 2.6580455 19.933594 2.78125 A 0.60006002 0.60006002 0 0 0 19.935547 2.7851562 L 21.214844 4.0644531 A 0.60000002 0.60000002 0 0 0 21.220703 4.0644531 A 0.60000002 0.60000002 0 0 0 21.220703 4.0703125 C 21.468311 4.3112694 21.468311 4.6887306 21.220703 4.9296875 A 0.60006002 0.60006002 0 0 0 21.214844 4.9355469 L 17 9.1523438 L 14.847656 7 L 19.064453 2.7851562 A 0.60006002 0.60006002 0 0 0 19.066406 2.78125 C 19.188347 2.6580455 19.344173 2.5957031 19.5 2.5957031 z M 5 5.4003906 A 0.60000002 0.60000002 0 0 0 4.4003906 6 L 4.4003906 7.4003906 L 3 7.4003906 A 0.60000002 0.60000002 0 0 0 2.4003906 8 A 0.60000002 0.60000002 0 0 0 3 8.5996094 L 4.4003906 8.5996094 L 4.4003906 10 A 0.60000002 0.60000002 0 0 0 5 10.599609 A 0.60000002 0.60000002 0 0 0 5.5996094 10 L 5.5996094 8.5996094 L 7 8.5996094 A 0.60000002 0.60000002 0 0 0 7.5996094 8 A 0.60000002 0.60000002 0 0 0 7 7.4003906 L 5.5996094 7.4003906 L 5.5996094 6 A 0.60000002 0.60000002 0 0 0 5 5.4003906 z M 14 7.8476562 L 16.152344 10 L 4.9355469 21.214844 A 0.60006002 0.60006002 0 0 0 4.9296875 21.220703 C 4.6887306 21.468311 4.3112694 21.468311 4.0703125 21.220703 A 0.60006002 0.60006002 0 0 0 4.0644531 21.214844 L 2.7851562 19.935547 A 0.60006002 0.60006002 0 0 0 2.78125 19.933594 C 2.534841 19.689713 2.534841 19.310287 2.78125 19.066406 A 0.60006002 0.60006002 0 0 0 2.7851562 19.064453 L 14 7.8476562 z M 19 13.400391 A 0.60000002 0.60000002 0 0 0 18.400391 14 L 18.400391 15.400391 L 17 15.400391 A 0.60000002 0.60000002 0 0 0 16.400391 16 A 0.60000002 0.60000002 0 0 0 17 16.599609 L 18.400391 16.599609 L 18.400391 18 A 0.60000002 0.60000002 0 0 0 19 18.599609 A 0.60000002 0.60000002 0 0 0 19.599609 18 L 19.599609 16.599609 L 21 16.599609 A 0.60000002 0.60000002 0 0 0 21.599609 16 A 0.60000002 0.60000002 0 0 0 21 15.400391 L 19.599609 15.400391 L 19.599609 14 A 0.60000002 0.60000002 0 0 0 19 13.400391 z " />
</svg>
