<?xml version="1.0" encoding="UTF-8" standalone="no"?>
<svg
   width="24"
   height="24"
   viewBox="0 0 24 24"
   fill="none"
   stroke="currentColor"
   stroke-width="0.5"
   stroke-linecap="round"
   stroke-linejoin="round"
   version="1.1"
   id="svg5"
   sodipodi:docname=".tmp_align-vertical-distribute-center.svg"
   xmlns:inkscape="http://www.inkscape.org/namespaces/inkscape"
   xmlns:sodipodi="http://sodipodi.sourceforge.net/DTD/sodipodi-0.dtd"
   xmlns="http://www.w3.org/2000/svg"
   xmlns:svg="http://www.w3.org/2000/svg">
  <defs
     id="defs5" />
  <sodipodi:namedview
     id="namedview5"
     pagecolor="#ffffff"
     bordercolor="#000000"
     borderopacity="0.25"
     inkscape:showpageshadow="2"
     inkscape:pageopacity="0.0"
     inkscape:pagecheckerboard="0"
     inkscape:deskcolor="#d1d1d1" />
  <path
     id="path1"
     style="baseline-shift:baseline;display:inline;overflow:visible;vector-effect:none;fill:#000000;stroke:none;stroke-linecap:butt;stroke-linejoin:miter;enable-background:accumulate;stop-color:#000000;stop-opacity:1;opacity:1"
     d="M 9 3.75 C 7.7578243 3.75 6.75 4.7578243 6.75 6 L 6.75 6.75 L 2 6.75 A 0.25 0.25 0 0 0 1.75 7 A 0.25 0.25 0 0 0 2 7.25 L 6.75 7.25 L 6.75 8 C 6.75 9.2421757 7.7578243 10.25 9 10.25 L 15 10.25 C 16.242176 10.25 17.25 9.2421757 17.25 8 L 17.25 7.25 L 22 7.25 A 0.25 0.25 0 0 0 22.25 7 A 0.25 0.25 0 0 0 22 6.75 L 17.25 6.75 L 17.25 6 C 17.25 4.7578243 16.242176 3.75 15 3.75 L 9 3.75 z M 9 4.25 L 15 4.25 C 15.973824 4.25 16.75 5.0261757 16.75 6 L 16.75 7 L 16.75 8 C 16.75 8.9738243 15.973824 9.75 15 9.75 L 9 9.75 C 8.0261757 9.75 7.25 8.9738243 7.25 8 L 7.25 7 L 7.25 6 C 7.25 5.0261757 8.0261757 4.25 9 4.25 z M 7 13.75 C 5.7578243 13.75 4.75 14.757824 4.75 16 L 4.75 16.75 L 2 16.75 A 0.25 0.25 0 0 0 1.75 17 A 0.25 0.25 0 0 0 2 17.25 L 4.75 17.25 L 4.75 18 C 4.75 19.242176 5.7578243 20.25 7 20.25 L 17 20.25 C 18.242176 20.25 19.25 19.242176 19.25 18 L 19.25 17.25 L 22 17.25 A 0.25 0.25 0 0 0 22.25 17 A 0.25 0.25 0 0 0 22 16.75 L 19.25 16.75 L 19.25 16 C 19.25 14.757824 18.242176 13.75 17 13.75 L 7 13.75 z M 7 14.25 L 17 14.25 C 17.973824 14.25 18.75 15.026176 18.75 16 L 18.75 18 C 18.75 18.973824 17.973824 19.75 17 19.75 L 7 19.75 C 6.0261757 19.75 5.25 18.973824 5.25 18 L 5.25 16 C 5.25 15.026176 6.0261757 14.25 7 14.25 z " />
</svg>
