<?xml version="1.0" encoding="UTF-8" standalone="no"?>
<svg
   width="24"
   height="24"
   viewBox="0 0 24 24"
   fill="none"
   stroke="currentColor"
   stroke-width="0.5"
   stroke-linecap="round"
   stroke-linejoin="round"
   version="1.1"
   id="svg1"
   sodipodi:docname=".tmp_banknote.svg"
   xmlns:inkscape="http://www.inkscape.org/namespaces/inkscape"
   xmlns:sodipodi="http://sodipodi.sourceforge.net/DTD/sodipodi-0.dtd"
   xmlns="http://www.w3.org/2000/svg"
   xmlns:svg="http://www.w3.org/2000/svg">
  <defs
     id="defs1" />
  <sodipodi:namedview
     id="namedview1"
     pagecolor="#ffffff"
     bordercolor="#000000"
     borderopacity="0.25"
     inkscape:showpageshadow="2"
     inkscape:pageopacity="0.0"
     inkscape:pagecheckerboard="0"
     inkscape:deskcolor="#d1d1d1" />
  <path
     id="rect1"
     style="baseline-shift:baseline;display:inline;overflow:visible;vector-effect:none;fill:#000000;stroke:none;stroke-linecap:butt;stroke-linejoin:miter;enable-background:accumulate;stop-color:#000000;stop-opacity:1;opacity:1"
     d="M 4 5.75 C 2.7578243 5.75 1.75 6.7578243 1.75 8 L 1.75 16 C 1.75 17.242176 2.7578243 18.25 4 18.25 L 20 18.25 C 21.242176 18.25 22.25 17.242176 22.25 16 L 22.25 8 C 22.25 6.7578243 21.242176 5.75 20 5.75 L 4 5.75 z M 4 6.25 L 20 6.25 C 20.973824 6.25 21.75 7.0261757 21.75 8 L 21.75 16 C 21.75 16.973824 20.973824 17.75 20 17.75 L 4 17.75 C 3.0261757 17.75 2.25 16.973824 2.25 16 L 2.25 8 C 2.25 7.0261757 3.0261757 6.25 4 6.25 z M 12 9.75 C 10.76032 9.75 9.75 10.76032 9.75 12 C 9.75 13.23968 10.76032 14.25 12 14.25 C 13.23968 14.25 14.25 13.23968 14.25 12 C 14.25 10.76032 13.23968 9.75 12 9.75 z M 12 10.25 C 12.969459 10.25 13.75 11.030541 13.75 12 C 13.75 12.969459 12.969459 13.75 12 13.75 C 11.030541 13.75 10.25 12.969459 10.25 12 C 10.25 11.030541 11.030541 10.25 12 10.25 z M 6 11.75 A 0.25 0.25 0 0 0 5.75 12 A 0.25 0.25 0 0 0 6 12.25 L 6.0097656 12.25 A 0.25 0.25 0 0 0 6.2597656 12 A 0.25 0.25 0 0 0 6.0097656 11.75 L 6 11.75 z M 18 11.75 A 0.25 0.25 0 0 0 17.75 12 A 0.25 0.25 0 0 0 18 12.25 L 18.009766 12.25 A 0.25 0.25 0 0 0 18.259766 12 A 0.25 0.25 0 0 0 18.009766 11.75 L 18 11.75 z " />
</svg>
