<?xml version="1.0" encoding="UTF-8" standalone="no"?>
<svg
   width="24"
   height="24"
   viewBox="0 0 24 24"
   fill="none"
   stroke="currentColor"
   stroke-width="0.5"
   stroke-linecap="round"
   stroke-linejoin="round"
   version="1.1"
   id="svg3"
   sodipodi:docname=".tmp_bed-single.svg"
   xmlns:inkscape="http://www.inkscape.org/namespaces/inkscape"
   xmlns:sodipodi="http://sodipodi.sourceforge.net/DTD/sodipodi-0.dtd"
   xmlns="http://www.w3.org/2000/svg"
   xmlns:svg="http://www.w3.org/2000/svg">
  <defs
     id="defs3" />
  <sodipodi:namedview
     id="namedview3"
     pagecolor="#ffffff"
     bordercolor="#000000"
     borderopacity="0.25"
     inkscape:showpageshadow="2"
     inkscape:pageopacity="0.0"
     inkscape:pagecheckerboard="0"
     inkscape:deskcolor="#d1d1d1" />
  <path
     id="path1"
     style="baseline-shift:baseline;display:inline;overflow:visible;vector-effect:none;fill:#000000;stroke:none;stroke-linecap:butt;stroke-linejoin:miter;enable-background:accumulate;stop-color:#000000;stop-opacity:1;opacity:1"
     d="M 7 3.75 C 5.7603205 3.75 4.75 4.7603205 4.75 6 L 4.75 9.7636719 C 3.6273112 9.8886095 2.75 10.844801 2.75 12 L 2.75 18 L 2.75 20 A 0.25 0.25 0 0 0 3 20.25 A 0.25 0.25 0 0 0 3.25 20 L 3.25 18.25 L 20.75 18.25 L 20.75 20 A 0.25 0.25 0 0 0 21 20.25 A 0.25 0.25 0 0 0 21.25 20 L 21.25 18 L 21.25 12 C 21.25 10.844801 20.372689 9.8886095 19.25 9.7636719 L 19.25 6 C 19.25 4.7603205 18.23968 3.75 17 3.75 L 7 3.75 z M 7 4.25 L 17 4.25 C 17.969459 4.25 18.75 5.0305405 18.75 6 L 18.75 9.75 L 5.25 9.75 L 5.25 6 C 5.25 5.0305405 6.0305405 4.25 7 4.25 z M 5 10.25 L 19 10.25 C 19.969459 10.25 20.75 11.030541 20.75 12 L 20.75 17.75 L 3.25 17.75 L 3.25 12 C 3.25 11.030541 4.0305405 10.25 5 10.25 z " />
</svg>
