<?xml version="1.0" encoding="UTF-8" standalone="no"?>
<svg
   width="24"
   height="24"
   viewBox="0 0 24 24"
   fill="none"
   stroke="currentColor"
   stroke-width="0.5"
   stroke-linecap="round"
   stroke-linejoin="round"
   version="1.1"
   id="svg2"
   sodipodi:docname=".tmp_bell-dot.svg"
   xmlns:inkscape="http://www.inkscape.org/namespaces/inkscape"
   xmlns:sodipodi="http://sodipodi.sourceforge.net/DTD/sodipodi-0.dtd"
   xmlns="http://www.w3.org/2000/svg"
   xmlns:svg="http://www.w3.org/2000/svg">
  <defs
     id="defs2" />
  <sodipodi:namedview
     id="namedview2"
     pagecolor="#ffffff"
     bordercolor="#000000"
     borderopacity="0.25"
     inkscape:showpageshadow="2"
     inkscape:pageopacity="0.0"
     inkscape:pagecheckerboard="0"
     inkscape:deskcolor="#d1d1d1" />
  <path
     id="path1"
     style="baseline-shift:baseline;display:inline;overflow:visible;vector-effect:none;fill:#000000;stroke:none;stroke-linecap:butt;stroke-linejoin:miter;enable-background:accumulate;stop-color:#000000;stop-opacity:1;opacity:1"
     d="M 11.734375 1.7519531 C 11.487533 1.7627206 11.242605 1.7886201 11.001953 1.828125 C 8.1141258 2.3021838 5.7499225 4.7995662 5.75 8 C 5.75 12.446729 4.4090186 13.781405 3.0800781 15.152344 A 0.250025 0.250025 0 0 0 3.0742188 15.158203 C 2.7153816 15.552533 2.6716928 16.085961 2.8574219 16.505859 C 3.0431509 16.925758 3.4668087 17.250191 4 17.25 L 20 17.25 C 20.533191 17.250191 20.956849 16.925758 21.142578 16.505859 C 21.328307 16.085961 21.284619 15.552574 20.925781 15.158203 A 0.250025 0.250025 0 0 0 20.919922 15.152344 C 20.719884 14.94634 20.53042 14.730572 20.351562 14.505859 A 0.25 0.25 0 0 0 20 14.466797 A 0.25 0.25 0 0 0 19.958984 14.818359 C 20.146346 15.053756 20.345292 15.280068 20.554688 15.496094 C 20.780365 15.744119 20.798816 16.046654 20.685547 16.302734 C 20.572282 16.558815 20.335331 16.75012 20 16.75 L 4 16.75 C 3.6646693 16.75012 3.4277224 16.558815 3.3144531 16.302734 C 3.2011838 16.046654 3.2196349 15.744119 3.4453125 15.496094 C 4.7730523 14.126257 6.25 12.545421 6.25 8 C 6.2499046 4.0598883 10.102119 1.2925721 13.835938 2.5507812 A 0.25 0.25 0 0 0 14.152344 2.3945312 A 0.25 0.25 0 0 0 13.996094 2.0761719 C 13.237877 1.8206706 12.474901 1.7196507 11.734375 1.7519531 z M 18 4.75 C 16.208036 4.75 14.75 6.2080357 14.75 8 C 14.75 9.7919643 16.208036 11.25 18 11.25 C 19.791964 11.25 21.25 9.7919643 21.25 8 C 21.25 6.2080357 19.791964 4.75 18 4.75 z M 18 5.25 C 19.521744 5.25 20.75 6.4782558 20.75 8 C 20.75 9.5217442 19.521744 10.75 18 10.75 C 16.478256 10.75 15.25 9.5217442 15.25 8 C 15.25 6.4782558 16.478256 5.25 18 5.25 z M 10.267578 20.75 A 0.25 0.25 0 0 0 10.142578 20.783203 A 0.25 0.25 0 0 0 10.050781 21.125 C 10.910819 22.614454 13.089181 22.614454 13.949219 21.125 A 0.25 0.25 0 0 0 13.857422 20.783203 A 0.25 0.25 0 0 0 13.515625 20.875 C 12.836017 22.051978 11.163983 22.051978 10.484375 20.875 A 0.25 0.25 0 0 0 10.267578 20.75 z " />
</svg>
