<?xml version="1.0" encoding="UTF-8" standalone="no"?>
<svg
   width="24"
   height="24"
   viewBox="0 0 24 24"
   fill="none"
   stroke="currentColor"
   stroke-width="0.5"
   stroke-linecap="round"
   stroke-linejoin="round"
   version="1.1"
   id="svg3"
   sodipodi:docname=".tmp_biceps-flexed.svg"
   xmlns:inkscape="http://www.inkscape.org/namespaces/inkscape"
   xmlns:sodipodi="http://sodipodi.sourceforge.net/DTD/sodipodi-0.dtd"
   xmlns="http://www.w3.org/2000/svg"
   xmlns:svg="http://www.w3.org/2000/svg">
  <defs
     id="defs3" />
  <sodipodi:namedview
     id="namedview3"
     pagecolor="#ffffff"
     bordercolor="#000000"
     borderopacity="0.25"
     inkscape:showpageshadow="2"
     inkscape:pageopacity="0.0"
     inkscape:pagecheckerboard="0"
     inkscape:deskcolor="#d1d1d1" />
  <path
     id="path1"
     style="baseline-shift:baseline;display:inline;overflow:visible;vector-effect:none;fill:#000000;stroke:none;stroke-linecap:butt;stroke-linejoin:miter;enable-background:accumulate;stop-color:#000000;stop-opacity:1;opacity:1"
     d="M 10 1.75 C 8.0961516 1.75 6.6051906 2.4529174 5.4785156 3.5839844 C 4.3518406 4.7150513 3.5818462 6.2634245 3.0429688 7.96875 C 1.9652136 11.379401 1.8143556 15.440875 1.7597656 18.171875 C 1.7478766 18.769053 1.9812156 19.367943 2.4804688 19.738281 C 4.7841992 21.443748 8.8894786 22.25 13 22.25 C 15.552233 22.25 17.855468 21.451298 19.529297 20.146484 C 21.203125 18.841671 22.25 17.019222 22.25 15 C 22.251367 12.169834 20.29146 10.31632 18.0625 9.8554688 C 15.880452 9.4043165 13.406863 10.280748 12.251953 12.755859 C 11.008513 12.699351 9.768364 13.087335 8.7773438 13.853516 C 9.02289 12.869406 9.0242096 11.703171 9.0644531 10.603516 C 9.0945308 9.7816399 9.1409343 8.9956677 9.2910156 8.3652344 C 9.4298906 7.7818744 9.6503391 7.349296 10.003906 7.0976562 C 10.285617 7.1936519 10.614298 7.25 11 7.25 C 12.23968 7.25 13.25 6.2396795 13.25 5 C 13.25 3.2080357 11.791964 1.75 10 1.75 z M 10 2.25 C 11.521744 2.25 12.75 3.4782558 12.75 5 C 12.75 5.9694595 11.969459 6.75 11 6.75 C 10.6348 6.75 10.346819 6.7035036 10.111328 6.6210938 A 0.25 0.25 0 0 0 9.9941406 6.5761719 C 9.6300375 6.4183323 9.4039343 6.1643707 9.2089844 5.8632812 A 0.25 0.25 0 0 0 8.8632812 5.7910156 A 0.25 0.25 0 0 0 8.7910156 6.1367188 C 8.9676012 6.4094454 9.1989393 6.6644693 9.5078125 6.8613281 C 9.1482051 7.2099258 8.9351772 7.7018635 8.8046875 8.25 C 8.63855 8.9478791 8.5947504 9.7580623 8.5644531 10.585938 C 8.5054652 12.197773 8.467895 13.870519 7.8515625 14.777344 C 7.8347711 14.802049 7.8184453 14.826057 7.8007812 14.849609 A 0.25 0.25 0 0 0 7.7832031 14.876953 A 0.25 0.25 0 0 0 7.78125 14.880859 C 7.5522139 15.191322 7.3496351 15.528714 7.1875 15.900391 A 0.25 0.25 0 0 0 7.3164062 16.228516 A 0.25 0.25 0 0 0 7.6445312 16.099609 C 7.7895166 15.767247 7.9665624 15.46191 8.1699219 15.183594 A 0.25 0.25 0 0 0 8.1992188 15.150391 C 8.2248091 15.11627 8.2494445 15.082251 8.2734375 15.046875 C 9.2609743 13.793716 10.801583 13.146948 12.337891 13.255859 A 0.25 0.25 0 0 0 12.439453 13.263672 C 13.278027 13.341328 14.111977 13.645685 14.849609 14.199219 A 0.25 0.25 0 0 0 15.199219 14.150391 A 0.25 0.25 0 0 0 15.150391 13.800781 C 14.474022 13.293222 13.722786 12.976447 12.955078 12.835938 C 12.897673 12.825431 12.840766 12.815188 12.783203 12.806641 C 13.869669 10.657105 16.021472 9.9447064 17.960938 10.345703 C 19.99021 10.765268 21.751257 12.398194 21.75 15 C 21.75 16.846778 20.796875 18.523267 19.220703 19.751953 C 17.644532 20.980639 15.447767 21.75 13 21.75 C 8.9565214 21.75 4.9096133 20.916424 2.7773438 19.337891 C 2.4251107 19.07661 2.2501726 18.643851 2.2597656 18.181641 C 2.3141757 15.459641 2.4722863 11.43324 3.5195312 8.1191406 C 4.0431537 6.4620911 4.7881594 4.9874018 5.8339844 3.9375 C 6.8798094 2.8875982 8.2173484 2.25 10 2.25 z " />
</svg>
