<?xml version="1.0" encoding="UTF-8" standalone="no"?>
<svg
   width="24"
   height="24"
   viewBox="0 0 24 24"
   fill="none"
   stroke="currentColor"
   stroke-width="0.5"
   stroke-linecap="round"
   stroke-linejoin="round"
   version="1.1"
   id="svg1"
   sodipodi:docname=".tmp_blocks.svg"
   xmlns:inkscape="http://www.inkscape.org/namespaces/inkscape"
   xmlns:sodipodi="http://sodipodi.sourceforge.net/DTD/sodipodi-0.dtd"
   xmlns="http://www.w3.org/2000/svg"
   xmlns:svg="http://www.w3.org/2000/svg">
  <defs
     id="defs1" />
  <sodipodi:namedview
     id="namedview1"
     pagecolor="#ffffff"
     bordercolor="#000000"
     borderopacity="0.25"
     inkscape:showpageshadow="2"
     inkscape:pageopacity="0.0"
     inkscape:pagecheckerboard="0"
     inkscape:deskcolor="#d1d1d1" />
  <path
     id="path1"
     style="baseline-shift:baseline;display:inline;overflow:visible;vector-effect:none;fill:#000000;stroke:none;stroke-linecap:butt;stroke-linejoin:miter;enable-background:accumulate;stop-color:#000000;stop-opacity:1;opacity:1"
     d="M 15 1.75 C 14.311824 1.75 13.75 2.3118243 13.75 3 L 13.75 9 C 13.75 9.6881757 14.311824 10.25 15 10.25 L 21 10.25 C 21.688176 10.25 22.25 9.6881757 22.25 9 L 22.25 3 C 22.25 2.3118243 21.688176 1.75 21 1.75 L 15 1.75 z M 15 2.25 L 21 2.25 C 21.419824 2.25 21.75 2.5801757 21.75 3 L 21.75 9 C 21.75 9.4198243 21.419824 9.75 21 9.75 L 15 9.75 C 14.580176 9.75 14.25 9.4198243 14.25 9 L 14.25 3 C 14.25 2.5801757 14.580176 2.25 15 2.25 z M 4 5.75 C 2.7603205 5.75 1.75 6.7603205 1.75 8 L 1.75 14 L 1.75 20 C 1.75 21.23968 2.7603205 22.25 4 22.25 L 10 22.25 L 16 22.25 C 17.23968 22.25 18.25 21.23968 18.25 20 L 18.25 15 C 18.25 14.312605 17.687395 13.75 17 13.75 L 10.25 13.75 L 10.25 7 C 10.25 6.3126052 9.6873948 5.75 9 5.75 L 4 5.75 z M 4 6.25 L 9 6.25 C 9.4171747 6.25 9.75 6.5828253 9.75 7 L 9.75 13.75 L 2.25 13.75 L 2.25 8 C 2.25 7.0305405 3.0305405 6.25 4 6.25 z M 2.25 14.25 L 9.75 14.25 L 9.75 21.75 L 4 21.75 C 3.0305405 21.75 2.25 20.969459 2.25 20 L 2.25 14.25 z M 10.25 14.25 L 17 14.25 C 17.417175 14.25 17.75 14.582825 17.75 15 L 17.75 20 C 17.75 20.969459 16.969459 21.75 16 21.75 L 10.25 21.75 L 10.25 14.25 z " />
</svg>
