<?xml version="1.0" encoding="UTF-8" standalone="no"?>
<svg
   width="24"
   height="24"
   viewBox="0 0 24 24"
   fill="none"
   stroke="currentColor"
   stroke-width="0.5"
   stroke-linecap="round"
   stroke-linejoin="round"
   version="1.1"
   id="svg2"
   sodipodi:docname=".tmp_brackets.svg"
   xmlns:inkscape="http://www.inkscape.org/namespaces/inkscape"
   xmlns:sodipodi="http://sodipodi.sourceforge.net/DTD/sodipodi-0.dtd"
   xmlns="http://www.w3.org/2000/svg"
   xmlns:svg="http://www.w3.org/2000/svg">
  <defs
     id="defs2" />
  <sodipodi:namedview
     id="namedview2"
     pagecolor="#ffffff"
     bordercolor="#000000"
     borderopacity="0.25"
     inkscape:showpageshadow="2"
     inkscape:pageopacity="0.0"
     inkscape:pagecheckerboard="0"
     inkscape:deskcolor="#d1d1d1" />
  <path
     id="path1"
     style="baseline-shift:baseline;display:inline;overflow:visible;vector-effect:none;fill:#000000;stroke:none;stroke-linecap:butt;stroke-linejoin:miter;enable-background:accumulate;stop-color:#000000;stop-opacity:1;opacity:1"
     d="M 5 2.75 C 4.3126052 2.75 3.75 3.3126052 3.75 4 L 3.75 20 C 3.75 20.687395 4.3126052 21.25 5 21.25 L 8 21.25 A 0.25 0.25 0 0 0 8.25 21 A 0.25 0.25 0 0 0 8 20.75 L 5 20.75 C 4.5828253 20.75 4.25 20.417175 4.25 20 L 4.25 4 C 4.25 3.5828253 4.5828253 3.25 5 3.25 L 8 3.25 A 0.25 0.25 0 0 0 8.25 3 A 0.25 0.25 0 0 0 8 2.75 L 5 2.75 z M 16 2.75 A 0.25 0.25 0 0 0 15.75 3 A 0.25 0.25 0 0 0 16 3.25 L 19 3.25 C 19.417175 3.25 19.75 3.5828253 19.75 4 L 19.75 20 C 19.75 20.417175 19.417175 20.75 19 20.75 L 16 20.75 A 0.25 0.25 0 0 0 15.75 21 A 0.25 0.25 0 0 0 16 21.25 L 19 21.25 C 19.687395 21.25 20.25 20.687395 20.25 20 L 20.25 4 C 20.25 3.3126052 19.687395 2.75 19 2.75 L 16 2.75 z " />
</svg>
