<?xml version="1.0" encoding="UTF-8" standalone="no"?>
<svg
   width="24"
   height="24"
   viewBox="0 0 24 24"
   fill="none"
   stroke="currentColor"
   stroke-width="0.5"
   stroke-linecap="round"
   stroke-linejoin="round"
   version="1.1"
   id="svg14"
   sodipodi:docname=".tmp_brain-cog.svg"
   xmlns:inkscape="http://www.inkscape.org/namespaces/inkscape"
   xmlns:sodipodi="http://sodipodi.sourceforge.net/DTD/sodipodi-0.dtd"
   xmlns="http://www.w3.org/2000/svg"
   xmlns:svg="http://www.w3.org/2000/svg">
  <defs
     id="defs14" />
  <sodipodi:namedview
     id="namedview14"
     pagecolor="#ffffff"
     bordercolor="#000000"
     borderopacity="0.25"
     inkscape:showpageshadow="2"
     inkscape:pageopacity="0.0"
     inkscape:pagecheckerboard="0"
     inkscape:deskcolor="#d1d1d1" />
  <path
     id="path1"
     style="baseline-shift:baseline;display:inline;overflow:visible;vector-effect:none;fill:#000000;stroke:none;stroke-linecap:butt;stroke-linejoin:miter;enable-background:accumulate;stop-color:#000000;stop-opacity:1;opacity:1"
     d="M 8.7929688 1.75 C 7.7664416 1.8060601 6.7507188 2.339662 6.1503906 3.4335938 C 5.8941067 3.9000876 5.8005666 4.4286324 5.7929688 4.9589844 C 3.3095461 5.7045872 2.050235 8.4779173 3.15625 10.8125 C 1.96203 11.845491 1.5517472 13.40214 1.8261719 14.8125 C 2.0481881 15.953515 2.7214726 17.013461 3.7617188 17.646484 C 3.5645058 19.831827 4.932264 21.452709 6.6347656 22.029297 C 8.3876888 22.62296 10.529738 22.121097 11.679688 20.125 C 11.680263 20.124006 11.68279 20.120217 11.683594 20.119141 C 11.714419 20.084623 11.845415 20.017578 12 20.017578 C 12.154585 20.017578 12.287531 20.086575 12.318359 20.121094 C 12.319164 20.12217 12.319737 20.124006 12.320312 20.125 C 13.470194 22.120587 15.612492 22.622663 17.365234 22.029297 C 19.067936 21.45287 20.435523 19.830302 20.238281 17.644531 C 21.277508 17.011326 21.94995 15.9526 22.171875 14.8125 C 22.446287 13.402753 22.035248 11.847456 20.841797 10.814453 C 21.947442 8.4844338 20.718259 5.6906712 18.248047 4.9355469 C 18.216066 3.5535918 17.299804 2.2520053 15.841797 1.8613281 C 15.327265 1.7234578 14.814014 1.7163564 14.333984 1.8183594 C 13.171989 2.0652756 12.283989 2.9805174 11.953125 4.1503906 C 11.618271 3.0052712 10.856037 2.1186329 9.8085938 1.8496094 C 9.4792426 1.7650194 9.1351445 1.7313133 8.7929688 1.75 z M 8.8222656 2.2441406 C 9.1108465 2.230806 9.4023936 2.2617614 9.6835938 2.3339844 C 10.808394 2.6228763 11.751301 3.5584112 11.75 5 L 12.25 5 C 12.24992 3.1854472 13.958223 1.8741055 15.710938 2.34375 C 17.001187 2.6894761 17.78829 3.8599997 17.751953 5.0800781 A 0.25 0.25 0 0 0 17.75 5.1503906 C 17.726887 5.5647939 17.607423 5.9826274 17.380859 6.375 A 0.25 0.25 0 0 0 17.472656 6.7167969 A 0.25 0.25 0 0 0 17.814453 6.625 C 18.031564 6.2489962 18.16332 5.8507286 18.21875 5.4511719 C 20.295835 6.1583822 21.321429 8.4976674 20.435547 10.503906 C 20.18404 10.334823 19.905963 10.186924 19.599609 10.0625 A 0.25 0.25 0 0 0 19.273438 10.199219 A 0.25 0.25 0 0 0 19.410156 10.525391 C 19.748139 10.66266 20.047013 10.830555 20.308594 11.023438 A 0.25 0.25 0 0 0 20.404297 11.115234 A 0.25 0.25 0 0 0 20.451172 11.134766 C 21.56913 12.046152 21.931129 13.435089 21.681641 14.716797 C 21.482547 15.739606 20.897478 16.680074 19.96875 17.234375 A 0.25 0.25 0 0 0 19.935547 17.236328 A 0.25 0.25 0 0 0 19.757812 17.349609 C 19.259477 17.60197 18.672827 17.749135 18.003906 17.75 A 0.25 0.25 0 0 0 17.755859 18 A 0.25 0.25 0 0 0 18.005859 18.25 C 18.654858 18.249157 19.239968 18.120641 19.753906 17.896484 C 19.833923 19.751174 18.665805 21.060179 17.205078 21.554688 C 15.646177 22.082432 13.787378 21.671948 12.751953 19.875 C 12.590366 19.595813 12.281109 19.517578 12 19.517578 C 11.718891 19.517578 11.409634 19.595808 11.248047 19.875 C 10.212552 21.672423 8.353992 22.082699 6.7949219 21.554688 C 5.3343203 21.060025 4.1660412 19.752777 4.2460938 17.898438 C 4.7616669 18.122948 5.3486409 18.250363 6 18.25 A 0.25 0.25 0 0 0 6.25 18 A 0.25 0.25 0 0 0 6 17.75 C 5.3310944 17.750373 4.7445937 17.60466 4.2460938 17.353516 A 0.25 0.25 0 0 0 4.0644531 17.234375 A 0.25 0.25 0 0 0 4.0253906 17.232422 C 3.0991885 16.677895 2.5152085 15.738508 2.3164062 14.716797 C 2.0670225 13.435131 2.4278735 12.045675 3.5449219 11.134766 A 0.25 0.25 0 0 0 3.5957031 11.115234 A 0.25 0.25 0 0 0 3.6933594 11.021484 C 3.9555482 10.828862 4.2549531 10.66025 4.59375 10.523438 A 0.25 0.25 0 0 0 4.7324219 10.197266 A 0.25 0.25 0 0 0 4.40625 10.058594 C 4.0973007 10.183354 3.8158324 10.333747 3.5625 10.503906 C 2.6779632 8.4980231 3.7046995 6.1581384 5.78125 5.4511719 C 5.8394372 5.8635899 5.9762221 6.2628486 6.1855469 6.625 A 0.25 0.25 0 0 0 6.5273438 6.7167969 A 0.25 0.25 0 0 0 6.6191406 6.375 C 6.3969628 5.9906115 6.2706405 5.55882 6.2519531 5.1152344 L 6.2519531 5.1132812 C 6.2311277 4.6120398 6.3482766 4.1135344 6.5898438 3.6738281 C 7.1100027 2.7259827 7.956523 2.2841445 8.8222656 2.2441406 z M 10.46875 8.0546875 A 0.25 0.25 0 0 0 10.373047 8.0742188 A 0.25 0.25 0 0 0 10.238281 8.4003906 L 10.529297 9.1015625 C 9.9162729 9.4140176 9.4140176 9.9162729 9.1015625 10.529297 L 8.4003906 10.238281 A 0.25 0.25 0 0 0 8.0742188 10.373047 A 0.25 0.25 0 0 0 8.2089844 10.699219 L 8.9101562 10.990234 C 8.805906 11.308291 8.75 11.647556 8.75 12 C 8.75 12.352444 8.805906 12.691709 8.9101562 13.009766 L 8.2089844 13.300781 A 0.25 0.25 0 0 0 8.0742188 13.626953 A 0.25 0.25 0 0 0 8.4003906 13.761719 L 9.1015625 13.470703 C 9.4140176 14.083727 9.9162729 14.585982 10.529297 14.898438 L 10.238281 15.599609 A 0.25 0.25 0 0 0 10.373047 15.925781 A 0.25 0.25 0 0 0 10.699219 15.791016 L 10.990234 15.089844 C 11.308291 15.194094 11.647556 15.25 12 15.25 C 12.351809 15.25 12.690252 15.193734 13.007812 15.089844 L 13.298828 15.791016 A 0.25 0.25 0 0 0 13.625 15.927734 A 0.25 0.25 0 0 0 13.761719 15.599609 L 13.470703 14.898438 C 14.083727 14.585982 14.585982 14.083727 14.898438 13.470703 L 15.599609 13.761719 A 0.25 0.25 0 0 0 15.925781 13.626953 A 0.25 0.25 0 0 0 15.791016 13.300781 L 15.089844 13.009766 C 15.194094 12.691709 15.25 12.352444 15.25 12 C 15.25 11.647556 15.194094 11.308291 15.089844 10.990234 L 15.791016 10.699219 A 0.25 0.25 0 0 0 15.925781 10.373047 A 0.25 0.25 0 0 0 15.599609 10.238281 L 14.898438 10.529297 C 14.585982 9.9162729 14.083727 9.4140176 13.470703 9.1015625 L 13.761719 8.4003906 A 0.25 0.25 0 0 0 13.626953 8.0742188 A 0.25 0.25 0 0 0 13.300781 8.2089844 L 13.009766 8.9101562 C 12.691709 8.805906 12.352444 8.75 12 8.75 C 11.647556 8.75 11.308291 8.805906 10.990234 8.9101562 L 10.699219 8.2089844 A 0.25 0.25 0 0 0 10.46875 8.0546875 z M 12 9.25 C 12.36559 9.25 12.714454 9.3203975 13.033203 9.4492188 A 0.25 0.25 0 0 0 13.052734 9.4589844 A 0.25 0.25 0 0 0 13.074219 9.4667969 C 13.730729 9.7445826 14.255418 10.269271 14.533203 10.925781 A 0.25 0.25 0 0 0 14.541016 10.947266 A 0.25 0.25 0 0 0 14.550781 10.966797 C 14.679603 11.285547 14.75 11.634409 14.75 12 C 14.75 12.365591 14.679603 12.714453 14.550781 13.033203 A 0.25 0.25 0 0 0 14.541016 13.052734 A 0.25 0.25 0 0 0 14.533203 13.074219 C 14.255418 13.730731 13.730731 14.255418 13.074219 14.533203 A 0.25 0.25 0 0 0 13.052734 14.541016 A 0.25 0.25 0 0 0 13.03125 14.550781 C 12.712916 14.67921 12.365003 14.75 12 14.75 C 11.634409 14.75 11.285547 14.679603 10.966797 14.550781 A 0.25 0.25 0 0 0 10.947266 14.541016 A 0.25 0.25 0 0 0 10.925781 14.533203 C 10.269271 14.255418 9.7445826 13.730729 9.4667969 13.074219 A 0.25 0.25 0 0 0 9.4589844 13.052734 A 0.25 0.25 0 0 0 9.4492188 13.033203 C 9.3203975 12.714454 9.25 12.36559 9.25 12 C 9.25 11.63441 9.3203975 11.285546 9.4492188 10.966797 A 0.25 0.25 0 0 0 9.4589844 10.947266 A 0.25 0.25 0 0 0 9.4667969 10.925781 C 9.7445822 10.269272 10.269272 9.7445822 10.925781 9.4667969 A 0.25 0.25 0 0 0 10.947266 9.4589844 A 0.25 0.25 0 0 0 10.966797 9.4492188 C 11.285546 9.3203975 11.63441 9.25 12 9.25 z " />
</svg>
