<?xml version="1.0" encoding="UTF-8" standalone="no"?>
<svg
   width="24"
   height="24"
   viewBox="0 0 24 24"
   fill="none"
   stroke="currentColor"
   stroke-width="0.5"
   stroke-linecap="round"
   stroke-linejoin="round"
   version="1.1"
   id="svg3"
   sodipodi:docname=".tmp_calendar.svg"
   xmlns:inkscape="http://www.inkscape.org/namespaces/inkscape"
   xmlns:sodipodi="http://sodipodi.sourceforge.net/DTD/sodipodi-0.dtd"
   xmlns="http://www.w3.org/2000/svg"
   xmlns:svg="http://www.w3.org/2000/svg">
  <defs
     id="defs3" />
  <sodipodi:namedview
     id="namedview3"
     pagecolor="#ffffff"
     bordercolor="#000000"
     borderopacity="0.25"
     inkscape:showpageshadow="2"
     inkscape:pageopacity="0.0"
     inkscape:pagecheckerboard="0"
     inkscape:deskcolor="#d1d1d1" />
  <path
     id="path1"
     style="baseline-shift:baseline;display:inline;overflow:visible;vector-effect:none;fill:#000000;stroke:none;stroke-linecap:butt;stroke-linejoin:miter;enable-background:accumulate;stop-color:#000000;stop-opacity:1;opacity:1"
     d="M 8 1.75 A 0.25 0.25 0 0 0 7.75 2 L 7.75 3.75 L 5 3.75 C 3.7578243 3.75 2.75 4.7578243 2.75 6 L 2.75 10 L 2.75 20 C 2.75 21.242176 3.7578243 22.25 5 22.25 L 19 22.25 C 20.242176 22.25 21.25 21.242176 21.25 20 L 21.25 10 L 21.25 6 C 21.25 4.7578243 20.242176 3.75 19 3.75 L 16.25 3.75 L 16.25 2 A 0.25 0.25 0 0 0 16 1.75 A 0.25 0.25 0 0 0 15.75 2 L 15.75 3.75 L 8.25 3.75 L 8.25 2 A 0.25 0.25 0 0 0 8 1.75 z M 5 4.25 L 7.75 4.25 L 7.75 6 A 0.25 0.25 0 0 0 8 6.25 A 0.25 0.25 0 0 0 8.25 6 L 8.25 4.25 L 15.75 4.25 L 15.75 6 A 0.25 0.25 0 0 0 16 6.25 A 0.25 0.25 0 0 0 16.25 6 L 16.25 4.25 L 19 4.25 C 19.973824 4.25 20.75 5.0261757 20.75 6 L 20.75 9.75 L 3.25 9.75 L 3.25 6 C 3.25 5.0261757 4.0261757 4.25 5 4.25 z M 3.25 10.25 L 20.75 10.25 L 20.75 20 C 20.75 20.973824 19.973824 21.75 19 21.75 L 5 21.75 C 4.0261757 21.75 3.25 20.973824 3.25 20 L 3.25 10.25 z " />
</svg>
