<?xml version="1.0" encoding="UTF-8" standalone="no"?>
<svg
   width="24"
   height="24"
   viewBox="0 0 24 24"
   fill="none"
   stroke="currentColor"
   stroke-width="0.5"
   stroke-linecap="round"
   stroke-linejoin="round"
   version="1.1"
   id="svg2"
   sodipodi:docname=".tmp_chevrons-left.svg"
   xmlns:inkscape="http://www.inkscape.org/namespaces/inkscape"
   xmlns:sodipodi="http://sodipodi.sourceforge.net/DTD/sodipodi-0.dtd"
   xmlns="http://www.w3.org/2000/svg"
   xmlns:svg="http://www.w3.org/2000/svg">
  <defs
     id="defs2" />
  <sodipodi:namedview
     id="namedview2"
     pagecolor="#ffffff"
     bordercolor="#000000"
     borderopacity="0.25"
     inkscape:showpageshadow="2"
     inkscape:pageopacity="0.0"
     inkscape:pagecheckerboard="0"
     inkscape:deskcolor="#d1d1d1" />
  <path
     id="path1"
     style="baseline-shift:baseline;display:inline;overflow:visible;vector-effect:none;fill:#000000;stroke:none;stroke-linecap:butt;stroke-linejoin:miter;enable-background:accumulate;stop-color:#000000;stop-opacity:1;opacity:1"
     d="M 11 6.7480469 A 0.25 0.25 0 0 0 10.822266 6.8222656 L 5.8222656 11.822266 A 0.250025 0.250025 0 0 0 5.8222656 12.177734 L 10.822266 17.177734 A 0.25 0.25 0 0 0 11.177734 17.177734 A 0.25 0.25 0 0 0 11.177734 16.822266 L 6.3554688 12 L 11.177734 7.1777344 A 0.25 0.25 0 0 0 11.177734 6.8222656 A 0.25 0.25 0 0 0 11 6.7480469 z M 18 6.7480469 A 0.25 0.25 0 0 0 17.822266 6.8222656 L 12.822266 11.822266 A 0.250025 0.250025 0 0 0 12.822266 12.177734 L 17.822266 17.177734 A 0.25 0.25 0 0 0 18.177734 17.177734 A 0.25 0.25 0 0 0 18.177734 16.822266 L 13.355469 12 L 18.177734 7.1777344 A 0.25 0.25 0 0 0 18.177734 6.8222656 A 0.25 0.25 0 0 0 18 6.7480469 z " />
</svg>
