<?xml version="1.0" encoding="UTF-8" standalone="no"?>
<svg
   width="24"
   height="24"
   viewBox="0 0 24 24"
   fill="none"
   stroke="currentColor"
   stroke-width="0.5"
   stroke-linecap="round"
   stroke-linejoin="round"
   version="1.1"
   id="svg2"
   sodipodi:docname=".tmp_circle-question-mark.svg"
   xmlns:inkscape="http://www.inkscape.org/namespaces/inkscape"
   xmlns:sodipodi="http://sodipodi.sourceforge.net/DTD/sodipodi-0.dtd"
   xmlns="http://www.w3.org/2000/svg"
   xmlns:svg="http://www.w3.org/2000/svg">
  <defs
     id="defs2" />
  <sodipodi:namedview
     id="namedview2"
     pagecolor="#ffffff"
     bordercolor="#000000"
     borderopacity="0.25"
     inkscape:showpageshadow="2"
     inkscape:pageopacity="0.0"
     inkscape:pagecheckerboard="0"
     inkscape:deskcolor="#d1d1d1" />
  <path
     id="circle1"
     style="baseline-shift:baseline;display:inline;overflow:visible;vector-effect:none;fill:#000000;stroke:none;stroke-linecap:butt;stroke-linejoin:miter;enable-background:accumulate;stop-color:#000000;stop-opacity:1;opacity:1"
     d="M 12 1.75 C 6.3420425 1.75 1.75 6.3420425 1.75 12 C 1.75 17.657958 6.3420425 22.25 12 22.25 C 17.657958 22.25 22.25 17.657958 22.25 12 C 22.25 6.3420425 17.657958 1.75 12 1.75 z M 12 2.25 C 17.387737 2.25 21.75 6.6122625 21.75 12 C 21.75 17.387737 17.387737 21.75 12 21.75 C 6.6122625 21.75 2.25 17.387737 2.25 12 C 2.25 6.6122625 6.6122625 2.25 12 2.25 z M 11.929688 6.7441406 C 10.664543 6.7316642 9.3776364 7.4280461 8.8535156 8.9179688 A 0.25 0.25 0 0 0 9.0078125 9.2363281 A 0.25 0.25 0 0 0 9.3261719 9.0820312 C 9.8479484 7.5987726 11.168984 7.0766175 12.384766 7.2851562 C 13.600547 7.4936951 14.672264 8.4276447 14.669922 10 C 14.669922 10.875 13.999248 11.56235 13.28125 12.041016 C 12.563252 12.519681 11.841797 12.763672 11.841797 12.763672 A 0.25 0.25 0 0 0 11.683594 13.078125 A 0.25 0.25 0 0 0 12 13.236328 C 12 13.236328 12.776592 12.980319 13.558594 12.458984 C 14.340596 11.93765 15.169922 11.125 15.169922 10 C 15.172611 8.194949 13.889033 7.0365852 12.46875 6.7929688 C 12.291215 6.7625167 12.110422 6.745923 11.929688 6.7441406 z M 12 16.75 A 0.25 0.25 0 0 0 11.75 17 A 0.25 0.25 0 0 0 12 17.25 L 12.009766 17.25 A 0.25 0.25 0 0 0 12.259766 17 A 0.25 0.25 0 0 0 12.009766 16.75 L 12 16.75 z " />
</svg>
