<?xml version="1.0" encoding="UTF-8" standalone="no"?>
<svg
   width="24"
   height="24"
   viewBox="0 0 24 24"
   fill="none"
   stroke="currentColor"
   stroke-width="0.5"
   stroke-linecap="round"
   stroke-linejoin="round"
   version="1.1"
   id="svg1"
   sodipodi:docname=".tmp_circle-star.svg"
   xmlns:inkscape="http://www.inkscape.org/namespaces/inkscape"
   xmlns:sodipodi="http://sodipodi.sourceforge.net/DTD/sodipodi-0.dtd"
   xmlns="http://www.w3.org/2000/svg"
   xmlns:svg="http://www.w3.org/2000/svg">
  <defs
     id="defs1" />
  <sodipodi:namedview
     id="namedview1"
     pagecolor="#ffffff"
     bordercolor="#000000"
     borderopacity="0.25"
     inkscape:showpageshadow="2"
     inkscape:pageopacity="0.0"
     inkscape:pagecheckerboard="0"
     inkscape:deskcolor="#d1d1d1" />
  <path
     id="path1"
     style="baseline-shift:baseline;display:inline;overflow:visible;vector-effect:none;fill:#000000;stroke:none;stroke-linecap:butt;stroke-linejoin:miter;enable-background:accumulate;stop-color:#000000;stop-opacity:1;opacity:1"
     d="M 12 1.75 C 6.3420425 1.75 1.75 6.3420425 1.75 12 C 1.75 17.657958 6.3420425 22.25 12 22.25 C 17.657958 22.25 22.25 17.657958 22.25 12 C 22.25 6.3420425 17.657958 1.75 12 1.75 z M 12 2.25 C 17.387737 2.25 21.75 6.6122625 21.75 12 C 21.75 17.387737 17.387737 21.75 12 21.75 C 6.6122625 21.75 2.25 17.387737 2.25 12 C 2.25 6.6122625 6.6122625 2.25 12 2.25 z M 12.017578 6.6757812 C 11.52288 6.6695619 11.009254 6.9662664 10.818359 7.5214844 L 10.078125 8.9785156 C 9.9688901 9.1934871 9.7636255 9.343601 9.5253906 9.3808594 L 7.9179688 9.6328125 C 7.3269084 9.6376607 6.8852008 10.033606 6.7363281 10.507812 C 6.5890274 10.977011 6.7195584 11.547515 7.1894531 11.890625 L 8.3378906 13.033203 A 0.250025 0.250025 0 0 0 8.3378906 13.035156 C 8.5090159 13.205462 8.5889748 13.445205 8.5507812 13.683594 L 8.296875 15.267578 L 8.296875 15.269531 C 8.1094134 15.830225 8.3418042 16.377116 8.7421875 16.671875 C 9.1418919 16.966134 9.7336261 17.02715 10.212891 16.683594 L 11.65625 15.943359 C 11.871194 15.833228 12.126853 15.833228 12.341797 15.943359 L 13.806641 16.693359 C 14.282845 17.025447 14.862098 16.966942 15.257812 16.675781 C 15.659814 16.379954 15.892483 15.828405 15.701172 15.265625 L 15.449219 13.683594 C 15.411279 13.445452 15.489269 13.203342 15.660156 13.033203 L 16.804688 11.890625 C 17.278928 11.542359 17.405152 10.966634 17.251953 10.496094 C 17.100058 10.029558 16.664875 9.6416189 16.083984 9.6328125 L 16.082031 9.6328125 L 14.472656 9.3808594 C 14.23439 9.34352 14.029152 9.1934875 13.919922 8.9785156 L 13.191406 7.5429688 C 13.012927 6.9868099 12.510575 6.6819793 12.017578 6.6757812 z M 12.011719 7.1757812 C 12.319455 7.1796513 12.611237 7.3441007 12.720703 7.7109375 A 0.250025 0.250025 0 0 0 12.736328 7.7539062 L 13.474609 9.2050781 C 13.656368 9.5627903 13.998109 9.811049 14.394531 9.8730469 L 16.029297 10.130859 A 0.250025 0.250025 0 0 0 16.066406 10.132812 C 16.442165 10.134313 16.6833 10.361543 16.777344 10.650391 C 16.871384 10.939239 16.810684 11.265866 16.507812 11.488281 A 0.250025 0.250025 0 0 0 16.480469 11.511719 L 15.306641 12.679688 C 15.022279 12.962796 14.891945 13.365452 14.955078 13.761719 L 15.214844 15.375 A 0.250025 0.250025 0 0 0 15.224609 15.419922 C 15.352893 15.783907 15.212169 16.089996 14.962891 16.273438 C 14.713609 16.456881 14.379672 16.500258 14.070312 16.269531 A 0.250025 0.250025 0 0 0 14.033203 16.248047 L 12.568359 15.498047 C 12.210697 15.314791 11.787349 15.314791 11.429688 15.498047 L 9.9648438 16.248047 A 0.250025 0.250025 0 0 0 9.9296875 16.269531 C 9.6207589 16.498044 9.2875538 16.452469 9.0390625 16.269531 C 8.7905359 16.08659 8.6489538 15.782784 8.7753906 15.419922 A 0.250025 0.250025 0 0 0 8.7851562 15.376953 L 9.0429688 13.763672 C 9.1065221 13.366997 8.9761558 12.963073 8.6914062 12.679688 L 7.5351562 11.527344 A 0.250025 0.250025 0 0 0 7.5019531 11.5 C 7.1869512 11.281767 7.1206421 10.952044 7.2128906 10.658203 C 7.3051396 10.364363 7.5464761 10.131847 7.9296875 10.132812 A 0.250025 0.250025 0 0 0 7.96875 10.130859 L 9.6035156 9.8730469 C 9.9999375 9.811049 10.341678 9.5627903 10.523438 9.2050781 L 11.273438 7.7285156 A 0.250025 0.250025 0 0 0 11.289062 7.6933594 C 11.407716 7.3293905 11.703982 7.1719124 12.011719 7.1757812 z " />
</svg>
