<?xml version="1.0" encoding="UTF-8" standalone="no"?>
<svg
   width="24"
   height="24"
   viewBox="0 0 24 24"
   fill="none"
   stroke="currentColor"
   stroke-width="0.5"
   stroke-linecap="round"
   stroke-linejoin="round"
   version="1.1"
   id="svg7"
   sodipodi:docname=".tmp_circle-fading-arrow-up.svg"
   xmlns:inkscape="http://www.inkscape.org/namespaces/inkscape"
   xmlns:sodipodi="http://sodipodi.sourceforge.net/DTD/sodipodi-0.dtd"
   xmlns="http://www.w3.org/2000/svg"
   xmlns:svg="http://www.w3.org/2000/svg">
  <defs
     id="defs7" />
  <sodipodi:namedview
     id="namedview7"
     pagecolor="#ffffff"
     bordercolor="#000000"
     borderopacity="0.25"
     inkscape:showpageshadow="2"
     inkscape:pageopacity="0.0"
     inkscape:pagecheckerboard="0"
     inkscape:deskcolor="#d1d1d1" />
  <path
     id="path1"
     style="baseline-shift:baseline;display:inline;overflow:visible;vector-effect:none;fill:#000000;stroke:none;stroke-linecap:butt;stroke-linejoin:miter;enable-background:accumulate;stop-color:#000000;stop-opacity:1;opacity:1"
     d="M 12 1.75 A 0.25 0.25 0 0 0 11.75 2 A 0.25 0.25 0 0 0 12 2.25 C 16.249593 2.2492254 19.468298 4.7648188 20.923828 8.0683594 C 22.379358 11.3719 22.063788 15.446606 19.195312 18.582031 A 0.25 0.25 0 0 0 19.210938 18.933594 A 0.25 0.25 0 0 0 19.564453 18.917969 C 22.566614 15.636417 22.908678 11.334798 21.380859 7.8671875 C 19.853041 4.3995774 16.447653 1.7491893 12 1.75 z M 5.5136719 4.1289062 A 0.25 0.25 0 0 0 5.3652344 4.1875 C 5.0429841 4.4611927 4.7371889 4.7550428 4.4511719 5.0664062 A 0.25 0.25 0 0 0 4.4667969 5.4199219 A 0.25 0.25 0 0 0 4.8203125 5.4042969 C 5.0923775 5.1081218 5.3829224 4.8287012 5.6894531 4.5683594 A 0.25 0.25 0 0 0 5.7167969 4.2167969 A 0.25 0.25 0 0 0 5.5136719 4.1289062 z M 12 7.7480469 A 0.250025 0.250025 0 0 0 11.822266 7.8222656 L 7.8222656 11.822266 A 0.25 0.25 0 0 0 7.8222656 12.177734 A 0.25 0.25 0 0 0 8.1777344 12.177734 L 11.75 8.6054688 L 11.75 16 A 0.25 0.25 0 0 0 12 16.25 A 0.25 0.25 0 0 0 12.25 16 L 12.25 8.6054688 L 15.822266 12.177734 A 0.25 0.25 0 0 0 16.177734 12.177734 A 0.25 0.25 0 0 0 16.177734 11.822266 L 12.177734 7.8222656 A 0.25 0.25 0 0 0 12.152344 7.8007812 A 0.250025 0.250025 0 0 0 12 7.7480469 z M 2.4804688 8.625 A 0.25 0.25 0 0 0 2.2617188 8.796875 C 1.9351023 9.7897485 1.7630516 10.82596 1.75 11.871094 A 0.25 0.25 0 0 0 1.9960938 12.125 A 0.25 0.25 0 0 0 2.25 11.878906 C 2.262415 10.884752 2.4275969 9.8975672 2.7382812 8.953125 A 0.25 0.25 0 0 0 2.578125 8.6367188 A 0.25 0.25 0 0 0 2.4804688 8.625 z M 2.8261719 15.751953 A 0.25 0.25 0 0 0 2.7304688 15.771484 A 0.25 0.25 0 0 0 2.6015625 16.099609 C 3.1770994 17.423728 4.0253708 18.610707 5.0917969 19.583984 A 0.25 0.25 0 0 0 5.4453125 19.568359 A 0.25 0.25 0 0 0 5.4277344 19.214844 C 4.4133228 18.289042 3.6060589 17.159926 3.0585938 15.900391 A 0.25 0.25 0 0 0 2.8261719 15.751953 z M 16.263672 20.791016 A 0.25 0.25 0 0 0 16.167969 20.814453 C 13.834608 21.917918 11.159959 22.049786 8.7285156 21.183594 A 0.25 0.25 0 0 0 8.4082031 21.335938 A 0.25 0.25 0 0 0 8.5605469 21.65625 C 11.116496 22.566797 13.92997 22.425594 16.382812 21.265625 A 0.25 0.25 0 0 0 16.501953 20.933594 A 0.25 0.25 0 0 0 16.263672 20.791016 z " />
</svg>
