<?xml version="1.0" encoding="UTF-8" standalone="no"?>
<svg
   width="24"
   height="24"
   viewBox="0 0 24 24"
   fill="none"
   stroke="currentColor"
   stroke-width="0.5"
   stroke-linecap="round"
   stroke-linejoin="round"
   version="1.1"
   id="svg3"
   sodipodi:docname=".tmp_coins.svg"
   xmlns:inkscape="http://www.inkscape.org/namespaces/inkscape"
   xmlns:sodipodi="http://sodipodi.sourceforge.net/DTD/sodipodi-0.dtd"
   xmlns="http://www.w3.org/2000/svg"
   xmlns:svg="http://www.w3.org/2000/svg">
  <defs
     id="defs3" />
  <sodipodi:namedview
     id="namedview3"
     pagecolor="#ffffff"
     bordercolor="#000000"
     borderopacity="0.25"
     inkscape:showpageshadow="2"
     inkscape:pageopacity="0.0"
     inkscape:pagecheckerboard="0"
     inkscape:deskcolor="#d1d1d1" />
  <path
     id="circle1"
     style="baseline-shift:baseline;display:inline;overflow:visible;vector-effect:none;fill:#000000;stroke:none;stroke-linecap:butt;stroke-linejoin:miter;enable-background:accumulate;stop-color:#000000;stop-opacity:1;opacity:1"
     d="M 8 1.75 C 4.5511815 1.75 1.75 4.5511815 1.75 8 C 1.75 11.448819 4.5511815 14.25 8 14.25 C 11.448819 14.25 14.25 11.448819 14.25 8 C 14.25 4.5511815 11.448819 1.75 8 1.75 z M 8 2.25 C 11.178598 2.25 13.75 4.8214015 13.75 8 C 13.75 11.178598 11.178598 13.75 8 13.75 C 4.8214015 13.75 2.25 11.178598 2.25 8 C 2.25 4.8214015 4.8214015 2.25 8 2.25 z M 7 5.75 A 0.25 0.25 0 0 0 6.75 6 A 0.25 0.25 0 0 0 7 6.25 L 7.75 6.25 L 7.75 10 A 0.25 0.25 0 0 0 8 10.25 A 0.25 0.25 0 0 0 8.25 10 L 8.25 6 A 0.250025 0.250025 0 0 0 8 5.75 L 7 5.75 z M 18.082031 10.121094 A 0.25 0.25 0 0 0 17.855469 10.283203 A 0.25 0.25 0 0 0 18.001953 10.603516 C 21.952289 12.076271 23.031587 17.132118 20.027344 20.089844 C 17.023101 23.04757 11.987108 21.888851 10.576172 17.916016 A 0.25 0.25 0 0 0 10.255859 17.763672 A 0.25 0.25 0 0 0 10.103516 18.083984 C 11.630303 22.383027 17.127984 23.645899 20.378906 20.445312 C 23.629829 17.244727 22.45243 11.730402 18.177734 10.136719 A 0.25 0.25 0 0 0 18.082031 10.121094 z M 16.679688 13.630859 A 0.25 0.25 0 0 0 16.535156 13.701172 A 0.25 0.25 0 0 0 16.53125 14.054688 L 17.058594 14.587891 L 14.414062 17.232422 A 0.25 0.25 0 0 0 14.414062 17.585938 A 0.25 0.25 0 0 0 14.767578 17.585938 L 17.585938 14.767578 A 0.250025 0.250025 0 0 0 17.587891 14.414062 L 16.888672 13.705078 A 0.25 0.25 0 0 0 16.679688 13.630859 z " />
</svg>
