<?xml version="1.0" encoding="UTF-8" standalone="no"?>
<svg
   width="24"
   height="24"
   viewBox="0 0 24 24"
   fill="none"
   stroke="currentColor"
   stroke-width="0.5"
   stroke-linecap="round"
   stroke-linejoin="round"
   version="1.1"
   id="svg2"
   sodipodi:docname=".tmp_database.svg"
   xmlns:inkscape="http://www.inkscape.org/namespaces/inkscape"
   xmlns:sodipodi="http://sodipodi.sourceforge.net/DTD/sodipodi-0.dtd"
   xmlns="http://www.w3.org/2000/svg"
   xmlns:svg="http://www.w3.org/2000/svg">
  <defs
     id="defs2" />
  <sodipodi:namedview
     id="namedview2"
     pagecolor="#ffffff"
     bordercolor="#000000"
     borderopacity="0.25"
     inkscape:showpageshadow="2"
     inkscape:pageopacity="0.0"
     inkscape:pagecheckerboard="0"
     inkscape:deskcolor="#d1d1d1" />
  <path
     id="ellipse1"
     style="baseline-shift:baseline;display:inline;overflow:visible;vector-effect:none;fill:#000000;stroke:none;stroke-linecap:butt;stroke-linejoin:miter;enable-background:accumulate;stop-color:#000000;stop-opacity:1;opacity:1"
     d="M 12 1.75 C 9.4922003 1.75 7.2215113 2.0856681 5.5566406 2.640625 C 4.7242053 2.9181035 4.0429351 3.2503971 3.5527344 3.6367188 C 3.0743977 4.0136904 2.766638 4.4623908 2.7519531 4.9628906 A 0.25 0.25 0 0 0 2.7519531 4.9667969 C 2.7516611 4.9779148 2.75 4.9888311 2.75 5 L 2.75 12 L 2.75 19 C 2.75 19.59375 3.0908655 20.107736 3.6210938 20.511719 C 4.1513219 20.915702 4.8803013 21.234861 5.7421875 21.490234 C 7.4659598 22.000982 9.7314815 22.25 12 22.25 C 14.268519 22.25 16.534041 22.000982 18.257812 21.490234 C 19.119699 21.234861 19.848678 20.915702 20.378906 20.511719 C 20.909134 20.107736 21.25 19.59375 21.25 19 L 21.25 12 L 21.25 5 C 21.25 4.4844539 20.937466 4.0230402 20.447266 3.6367188 C 19.957065 3.2503971 19.275795 2.9181035 18.443359 2.640625 C 16.778489 2.0856681 14.5078 1.75 12 1.75 z M 12 2.25 C 14.462763 2.25 16.692668 2.5844048 18.285156 3.1152344 C 19.081401 3.3806491 19.718023 3.6977883 20.138672 4.0292969 C 20.559321 4.3608054 20.75 4.687119 20.75 5 C 20.75 5.312881 20.559321 5.6391946 20.138672 5.9707031 C 19.718023 6.3022117 19.081401 6.6193509 18.285156 6.8847656 C 16.692668 7.4155952 14.462763 7.75 12 7.75 C 9.537237 7.75 7.3073324 7.4155952 5.7148438 6.8847656 C 4.9185994 6.6193509 4.281977 6.3022117 3.8613281 5.9707031 C 3.4406792 5.6391946 3.25 5.312881 3.25 5 C 3.25 4.687119 3.4406792 4.3608054 3.8613281 4.0292969 C 4.281977 3.6977883 4.9185994 3.3806491 5.7148438 3.1152344 C 7.3073324 2.5844048 9.537237 2.25 12 2.25 z M 3.25 6.0917969 C 3.3408644 6.1862207 3.44229 6.2762413 3.5527344 6.3632812 C 4.0429351 6.7496028 4.7242053 7.0818965 5.5566406 7.359375 C 7.2215113 7.9143319 9.4922003 8.25 12 8.25 C 14.5078 8.25 16.778489 7.9143319 18.443359 7.359375 C 19.275795 7.0818965 19.957065 6.7496028 20.447266 6.3632812 C 20.55771 6.2762413 20.659136 6.1862207 20.75 6.0917969 L 20.75 12 C 20.75 12.40625 20.528366 12.767265 20.074219 13.113281 C 19.620072 13.459298 18.942802 13.765139 18.117188 14.009766 C 16.465961 14.499018 14.231481 14.75 12 14.75 C 9.7685185 14.75 7.5340402 14.499018 5.8828125 14.009766 C 5.0571987 13.765139 4.3799279 13.459298 3.9257812 13.113281 C 3.4716344 12.767265 3.25 12.40625 3.25 12 L 3.25 6.0917969 z M 3.25 13.175781 C 3.3592548 13.294584 3.4838289 13.407136 3.6210938 13.511719 C 4.1513219 13.915702 4.8803013 14.234861 5.7421875 14.490234 C 7.4659598 15.000982 9.7314815 15.25 12 15.25 C 14.268519 15.25 16.534041 15.000982 18.257812 14.490234 C 19.119699 14.234861 19.848678 13.915702 20.378906 13.511719 C 20.516171 13.407136 20.640745 13.294584 20.75 13.175781 L 20.75 19 C 20.75 19.40625 20.528366 19.767265 20.074219 20.113281 C 19.620072 20.459298 18.942802 20.765139 18.117188 21.009766 C 16.465961 21.499018 14.231481 21.75 12 21.75 C 9.7685185 21.75 7.5340402 21.499018 5.8828125 21.009766 C 5.0571987 20.765139 4.3799279 20.459298 3.9257812 20.113281 C 3.4716344 19.767265 3.25 19.40625 3.25 19 L 3.25 13.175781 z " />
</svg>
