<?xml version="1.0" encoding="UTF-8" standalone="no"?>
<svg
   width="24"
   height="24"
   viewBox="0 0 24 24"
   fill="none"
   stroke="currentColor"
   stroke-width="0.5"
   stroke-linecap="round"
   stroke-linejoin="round"
   version="1.1"
   id="svg3"
   sodipodi:docname=".tmp_earth.svg"
   xmlns:inkscape="http://www.inkscape.org/namespaces/inkscape"
   xmlns:sodipodi="http://sodipodi.sourceforge.net/DTD/sodipodi-0.dtd"
   xmlns="http://www.w3.org/2000/svg"
   xmlns:svg="http://www.w3.org/2000/svg">
  <defs
     id="defs3" />
  <sodipodi:namedview
     id="namedview3"
     pagecolor="#ffffff"
     bordercolor="#000000"
     borderopacity="0.25"
     inkscape:showpageshadow="2"
     inkscape:pageopacity="0.0"
     inkscape:pagecheckerboard="0"
     inkscape:deskcolor="#d1d1d1" />
  <path
     id="path1"
     style="baseline-shift:baseline;display:inline;overflow:visible;vector-effect:none;fill:#000000;stroke:none;stroke-linecap:butt;stroke-linejoin:miter;enable-background:accumulate;stop-color:#000000;stop-opacity:1;opacity:1"
     d="M 12 1.75 C 10.15671 1.75 8.4306431 2.2448096 6.9355469 3.0976562 C 6.935063 3.0979323 6.9340776 3.0973801 6.9335938 3.0976562 A 0.25 0.25 0 0 0 6.8144531 3.1699219 C 4.0683148 4.7869367 2.1366029 7.6390179 1.8027344 10.966797 A 0.25 0.25 0 0 0 1.8007812 11 C 1.7687957 11.329446 1.75 11.662205 1.75 12 C 1.75 17.308942 5.7938368 21.678274 10.966797 22.197266 A 0.25 0.25 0 0 0 11 22.199219 C 11.329446 22.231204 11.662205 22.25 12 22.25 C 17.657958 22.25 22.25 17.657958 22.25 12 C 22.25 10.555977 21.951715 9.1820889 21.412109 7.9355469 A 0.25 0.25 0 0 0 21.380859 7.8671875 C 19.790713 4.2657149 16.187715 1.75 12 1.75 z M 12 2.25 C 15.863867 2.25 19.201037 4.493589 20.779297 7.75 L 18 7.75 C 16.763636 7.75 15.75 8.7636364 15.75 10 C 15.75 10.969459 14.969459 11.75 14 11.75 C 13.036364 11.75 12.25 10.963636 12.25 10 C 12.25 8.7603205 11.23968 7.75 10 7.75 C 8.4782558 7.75 7.25 6.5217442 7.25 5 L 7.25 3.4824219 C 8.6552139 2.6976302 10.275049 2.25 12 2.25 z M 6.75 3.78125 L 6.75 5 C 6.75 6.7919643 8.2080357 8.25 10 8.25 C 10.969459 8.25 11.75 9.0305405 11.75 10 C 11.75 11.236364 12.763636 12.25 14 12.25 C 15.23968 12.25 16.25 11.23968 16.25 10 C 16.25 9.0363636 17.036364 8.25 18 8.25 L 21.003906 8.25 C 21.484754 9.4041973 21.75 10.670895 21.75 12 C 21.75 12.955088 21.613001 13.877951 21.357422 14.75 L 17 14.75 C 15.76032 14.75 14.75 15.76032 14.75 17 L 14.75 21.357422 C 13.877951 21.613001 12.955088 21.75 12 21.75 C 11.747636 21.75 11.497521 21.739502 11.25 21.720703 L 11.25 18 C 11.25 16.76032 10.23968 15.75 9 15.75 C 8.0305405 15.75 7.25 14.969459 7.25 14 L 7.25 13 C 7.25 11.76032 6.2396795 10.75 5 10.75 L 2.3300781 10.75 C 2.704289 7.8215717 4.3750299 5.300736 6.75 3.78125 z M 2.2792969 11.25 L 5 11.25 C 5.9694595 11.25 6.75 12.030541 6.75 13 L 6.75 14 C 6.75 15.23968 7.7603205 16.25 9 16.25 C 9.9694595 16.25 10.75 17.030541 10.75 18 L 10.75 21.669922 C 5.9533629 21.056981 2.25 16.964193 2.25 12 C 2.25 11.747636 2.2604979 11.497521 2.2792969 11.25 z M 17 15.25 L 21.195312 15.25 C 20.216697 18.021776 18.021776 20.216697 15.25 21.195312 L 15.25 17 C 15.25 16.030541 16.030541 15.25 17 15.25 z " />
</svg>
