<?xml version="1.0" encoding="UTF-8" standalone="no"?>
<svg
   width="24"
   height="24"
   viewBox="0 0 24 24"
   fill="none"
   stroke="currentColor"
   stroke-width="0.5"
   stroke-linecap="round"
   stroke-linejoin="round"
   version="1.1"
   id="svg5"
   sodipodi:docname=".tmp_file-box.svg"
   xmlns:inkscape="http://www.inkscape.org/namespaces/inkscape"
   xmlns:sodipodi="http://sodipodi.sourceforge.net/DTD/sodipodi-0.dtd"
   xmlns="http://www.w3.org/2000/svg"
   xmlns:svg="http://www.w3.org/2000/svg">
  <defs
     id="defs5" />
  <sodipodi:namedview
     id="namedview5"
     pagecolor="#ffffff"
     bordercolor="#000000"
     borderopacity="0.25"
     inkscape:showpageshadow="2"
     inkscape:pageopacity="0.0"
     inkscape:pagecheckerboard="0"
     inkscape:deskcolor="#d1d1d1" />
  <path
     id="path1"
     style="baseline-shift:baseline;display:inline;overflow:visible;vector-effect:none;fill:#000000;stroke:none;stroke-linecap:butt;stroke-linejoin:miter;enable-background:accumulate;stop-color:#000000;stop-opacity:1;opacity:1"
     d="M 6 1.75 C 4.7603205 1.75 3.75 2.7603205 3.75 4 L 3.75 8 A 0.25 0.25 0 0 0 4 8.25 A 0.25 0.25 0 0 0 4.25 8 L 4.25 4 C 4.25 3.0305405 5.0305405 2.25 6 2.25 L 13.75 2.25 L 13.75 6 C 13.75 7.2396795 14.76032 8.25 16 8.25 L 19.75 8.25 L 19.75 20 C 19.75 20.969459 18.969459 21.75 18 21.75 L 14.5 21.75 A 0.25 0.25 0 0 0 14.25 22 A 0.25 0.25 0 0 0 14.5 22.25 L 18 22.25 C 19.23968 22.25 20.25 21.23968 20.25 20 L 20.25 7 A 0.250025 0.250025 0 0 0 20.177734 6.8222656 L 15.177734 1.8222656 A 0.250025 0.250025 0 0 0 15 1.75 L 6 1.75 z M 14.25 2.25 L 14.896484 2.25 L 19.75 7.1035156 L 19.75 7.75 L 16 7.75 C 15.030541 7.75 14.25 6.9694595 14.25 6 L 14.25 2.25 z M 6.9882812 10.767578 C 6.5934193 10.765678 6.1969225 10.868539 5.84375 11.074219 A 0.250025 0.250025 0 0 0 5.8398438 11.076172 L 2.875 12.882812 C 2.1693958 13.290088 1.7386603 14.048651 1.75 14.863281 L 1.75 18.091797 C 1.723484 18.90742 2.1420244 19.673913 2.8417969 20.09375 L 5.8710938 21.914062 C 6.1878926 22.102764 6.5403727 22.206408 6.8964844 22.226562 A 0.25 0.25 0 0 0 7 22.25 A 0.25 0.25 0 0 0 7.0976562 22.230469 C 7.4639941 22.218396 7.8287545 22.116507 8.15625 21.925781 A 0.250025 0.250025 0 0 0 8.1601562 21.923828 L 11.125 20.117188 C 11.830604 19.709913 12.26134 18.951349 12.25 18.136719 L 12.25 14.908203 C 12.276516 14.09258 11.857976 13.326087 11.158203 12.90625 L 8.1289062 11.085938 C 7.7777772 10.876788 7.3831434 10.769523 6.9882812 10.767578 z M 6.984375 11.267578 C 7.2911086 11.269348 7.5976613 11.352738 7.8710938 11.515625 L 7.8710938 11.513672 L 10.900391 13.333984 A 0.250025 0.250025 0 0 0 10.902344 13.333984 C 11.176569 13.498509 11.394611 13.730321 11.541016 14.001953 L 7 16.708984 L 2.4589844 14.001953 C 2.6103641 13.720513 2.8383205 13.481878 3.125 13.316406 A 0.250025 0.250025 0 0 0 3.1308594 13.314453 L 6.0957031 11.505859 C 6.3707269 11.345691 6.6776414 11.265808 6.984375 11.267578 z M 2.2851562 14.482422 L 6.75 17.142578 L 6.75 21.708984 C 6.5341318 21.674533 6.3232086 21.600123 6.1289062 21.484375 L 6.1289062 21.486328 L 3.0996094 19.666016 A 0.250025 0.250025 0 0 0 3.0976562 19.666016 C 2.5527279 19.339081 2.2293516 18.742562 2.25 18.107422 A 0.250025 0.250025 0 0 0 2.25 18.099609 L 2.25 14.859375 A 0.250025 0.250025 0 0 0 2.25 14.857422 C 2.2482229 14.729751 2.2601752 14.604604 2.2851562 14.482422 z M 11.714844 14.482422 C 11.742295 14.615947 11.754542 14.752857 11.75 14.892578 A 0.250025 0.250025 0 0 0 11.75 14.900391 L 11.75 18.140625 A 0.250025 0.250025 0 0 0 11.75 18.142578 C 11.7588 18.77694 11.424462 19.366443 10.875 19.683594 A 0.250025 0.250025 0 0 0 10.869141 19.685547 L 7.9042969 21.494141 C 7.6995233 21.613396 7.4769559 21.687375 7.25 21.716797 L 7.25 17.142578 L 11.714844 14.482422 z " />
</svg>
