<?xml version="1.0" encoding="UTF-8" standalone="no"?>
<svg
   width="24"
   height="24"
   viewBox="0 0 24 24"
   fill="none"
   stroke="currentColor"
   stroke-width="0.5"
   stroke-linecap="round"
   stroke-linejoin="round"
   version="1.1"
   id="svg3"
   sodipodi:docname=".tmp_file-pen.svg"
   xmlns:inkscape="http://www.inkscape.org/namespaces/inkscape"
   xmlns:sodipodi="http://sodipodi.sourceforge.net/DTD/sodipodi-0.dtd"
   xmlns="http://www.w3.org/2000/svg"
   xmlns:svg="http://www.w3.org/2000/svg">
  <defs
     id="defs3" />
  <sodipodi:namedview
     id="namedview3"
     pagecolor="#ffffff"
     bordercolor="#000000"
     borderopacity="0.25"
     inkscape:showpageshadow="2"
     inkscape:pageopacity="0.0"
     inkscape:pagecheckerboard="0"
     inkscape:deskcolor="#d1d1d1" />
  <path
     id="path1"
     style="baseline-shift:baseline;display:inline;overflow:visible;vector-effect:none;fill:#000000;stroke:none;stroke-linecap:butt;stroke-linejoin:miter;enable-background:accumulate;stop-color:#000000;stop-opacity:1;opacity:1"
     d="M 6 1.75 C 4.7603205 1.75 3.75 2.7603205 3.75 4 L 3.75 13.5 A 0.25 0.25 0 0 0 4 13.75 A 0.25 0.25 0 0 0 4.25 13.5 L 4.25 4 C 4.25 3.0305405 5.0305405 2.25 6 2.25 L 13.75 2.25 L 13.75 6 C 13.75 7.2396795 14.76032 8.25 16 8.25 L 19.75 8.25 L 19.75 20 C 19.75 20.969459 18.969459 21.75 18 21.75 L 12.5 21.75 A 0.25 0.25 0 0 0 12.25 22 A 0.25 0.25 0 0 0 12.5 22.25 L 18 22.25 C 19.23968 22.25 20.25 21.23968 20.25 20 L 20.25 7 A 0.250025 0.250025 0 0 0 20.177734 6.8222656 L 15.177734 1.8222656 A 0.250025 0.250025 0 0 0 15 1.75 L 6 1.75 z M 14.25 2.25 L 14.896484 2.25 L 19.75 7.1035156 L 19.75 7.75 L 16 7.75 C 15.030541 7.75 14.25 6.9694595 14.25 6 L 14.25 2.25 z M 11.757812 11.712891 C 11.225094 11.738956 10.674018 11.968559 10.197266 12.445312 L 5.1875 17.457031 C 4.9200355 17.724348 4.7231829 18.05498 4.6171875 18.417969 L 3.78125 21.287109 C 3.6191837 21.842765 4.1552816 22.380816 4.7109375 22.21875 L 7.5800781 21.380859 A 0.250025 0.250025 0 0 0 7.5820312 21.380859 C 7.945023 21.274864 8.2736984 21.079964 8.5410156 20.8125 L 13.554688 15.802734 C 14.099547 15.257874 14.320498 14.61643 14.285156 14.015625 C 14.249816 13.41482 13.96947 12.860095 13.554688 12.445312 C 13.139904 12.030529 12.58518 11.750185 11.984375 11.714844 C 11.909274 11.710426 11.833915 11.709167 11.757812 11.712891 z M 11.78125 12.212891 C 11.839717 12.210375 11.897189 12.211438 11.955078 12.214844 C 12.41819 12.242084 12.864956 12.462612 13.201172 12.798828 C 13.537388 13.135044 13.757914 13.58181 13.785156 14.044922 C 13.812396 14.508034 13.657644 14.992746 13.201172 15.449219 L 8.1875 20.458984 C 7.9795737 20.667025 7.7237482 20.817945 7.4414062 20.900391 L 4.5703125 21.738281 C 4.3680705 21.797271 4.2027315 21.629976 4.2617188 21.427734 L 5.0976562 18.558594 C 5.1801023 18.276252 5.3329748 18.018473 5.5410156 17.810547 L 10.550781 12.798828 C 10.950195 12.399415 11.371983 12.230502 11.78125 12.212891 z " />
</svg>
