<?xml version="1.0" encoding="UTF-8" standalone="no"?>
<svg
   width="24"
   height="24"
   viewBox="0 0 24 24"
   fill="none"
   stroke="currentColor"
   stroke-width="0.5"
   stroke-linecap="round"
   stroke-linejoin="round"
   version="1.1"
   id="svg7"
   sodipodi:docname=".tmp_film.svg"
   xmlns:inkscape="http://www.inkscape.org/namespaces/inkscape"
   xmlns:sodipodi="http://sodipodi.sourceforge.net/DTD/sodipodi-0.dtd"
   xmlns="http://www.w3.org/2000/svg"
   xmlns:svg="http://www.w3.org/2000/svg">
  <defs
     id="defs7" />
  <sodipodi:namedview
     id="namedview7"
     pagecolor="#ffffff"
     bordercolor="#000000"
     borderopacity="0.25"
     inkscape:showpageshadow="2"
     inkscape:pageopacity="0.0"
     inkscape:pagecheckerboard="0"
     inkscape:deskcolor="#d1d1d1" />
  <path
     id="rect1"
     style="baseline-shift:baseline;display:inline;overflow:visible;vector-effect:none;fill:#000000;stroke:none;stroke-linecap:butt;stroke-linejoin:miter;enable-background:accumulate;stop-color:#000000;stop-opacity:1;opacity:1"
     d="M 5 2.75 C 3.7578243 2.75 2.75 3.7578243 2.75 5 L 2.75 19 C 2.75 20.242176 3.7578243 21.25 5 21.25 L 19 21.25 C 20.242176 21.25 21.25 20.242176 21.25 19 L 21.25 16.5 L 21.25 5 C 21.25 3.7578243 20.242176 2.75 19 2.75 L 5 2.75 z M 5 3.25 L 6.75 3.25 L 6.75 7.25 L 3.25 7.25 L 3.25 5 C 3.25 4.0261757 4.0261757 3.25 5 3.25 z M 7.25 3.25 L 16.75 3.25 L 16.75 11.75 L 7.25 11.75 L 7.25 3.25 z M 17.25 3.25 L 19 3.25 C 19.973824 3.25 20.75 4.0261757 20.75 5 L 20.75 7.25 L 17.25 7.25 L 17.25 3.25 z M 3.25 7.75 L 6.75 7.75 L 6.75 11.75 L 3.25 11.75 L 3.25 7.75 z M 17.25 7.75 L 20.75 7.75 L 20.75 11.75 L 17.25 11.75 L 17.25 7.75 z M 3.25 12.25 L 6.75 12.25 L 6.75 16.25 L 3.25 16.25 L 3.25 12.25 z M 7.25 12.25 L 16.75 12.25 L 16.75 16.5 L 16.75 20.75 L 7.25 20.75 L 7.25 12.25 z M 17.25 12.25 L 20.75 12.25 L 20.75 16.25 L 17.25 16.25 L 17.25 12.25 z M 3.25 16.75 L 6.75 16.75 L 6.75 20.75 L 5 20.75 C 4.0261757 20.75 3.25 19.973824 3.25 19 L 3.25 16.75 z M 17.25 16.75 L 20.75 16.75 L 20.75 19 C 20.75 19.973824 19.973824 20.75 19 20.75 L 17.25 20.75 L 17.25 16.75 z " />
</svg>
