<?xml version="1.0" encoding="UTF-8" standalone="no"?>
<svg
   width="24"
   height="24"
   viewBox="0 0 24 24"
   fill="none"
   stroke="currentColor"
   stroke-width="0.5"
   stroke-linecap="round"
   stroke-linejoin="round"
   version="1.1"
   id="svg1"
   sodipodi:docname=".tmp_fish-symbol.svg"
   xmlns:inkscape="http://www.inkscape.org/namespaces/inkscape"
   xmlns:sodipodi="http://sodipodi.sourceforge.net/DTD/sodipodi-0.dtd"
   xmlns="http://www.w3.org/2000/svg"
   xmlns:svg="http://www.w3.org/2000/svg">
  <defs
     id="defs1" />
  <sodipodi:namedview
     id="namedview1"
     pagecolor="#ffffff"
     bordercolor="#000000"
     borderopacity="0.25"
     inkscape:showpageshadow="2"
     inkscape:pageopacity="0.0"
     inkscape:pagecheckerboard="0"
     inkscape:deskcolor="#d1d1d1" />
  <path
     id="path1"
     style="baseline-shift:baseline;display:inline;overflow:visible;vector-effect:none;fill:#000000;stroke:none;stroke-linecap:butt;stroke-linejoin:miter;enable-background:accumulate;stop-color:#000000;stop-opacity:1;opacity:1"
     d="M 13.339844 7.7265625 C 11.244882 7.8124794 9.3510106 8.6093999 7.7382812 9.6660156 C 6.8259929 10.263722 6.0028481 10.946896 5.2773438 11.634766 C 3.3717743 9.7277727 2.2148437 7.8710939 2.2148438 7.8710938 A 0.25 0.25 0 0 0 1.8710938 7.7851562 A 0.25 0.25 0 0 0 1.7851562 8.1289062 C 1.7851562 8.1289062 2.9640198 10.035602 4.9316406 12 C 2.9640198 13.964398 1.7851563 15.871094 1.7851562 15.871094 A 0.25 0.25 0 0 0 1.8710938 16.214844 A 0.25 0.25 0 0 0 2.2148438 16.128906 C 2.2148438 16.128906 3.3717743 14.272227 5.2773438 12.365234 C 6.002848 13.053104 6.8259929 13.736278 7.7382812 14.333984 C 9.5814006 15.541545 11.792058 16.41021 14.25 16.265625 C 16.707942 16.12104 19.395593 14.959876 22.177734 12.177734 A 0.250025 0.250025 0 0 0 22.177734 11.822266 C 19.395594 9.040126 16.707942 7.8789598 14.25 7.734375 C 13.942757 7.7163019 13.639124 7.7142887 13.339844 7.7265625 z M 13.357422 8.2265625 C 13.640722 8.2149716 13.928337 8.2172919 14.21875 8.234375 C 16.471915 8.3669141 18.95736 9.4590223 21.583984 12 C 18.95736 14.540978 16.471915 15.633086 14.21875 15.765625 C 11.895442 15.90229 9.7935994 15.083455 8.0117188 13.916016 C 7.1272068 13.336508 6.3279385 12.671145 5.6210938 12 C 6.3279385 11.328855 7.1272069 10.663492 8.0117188 10.083984 C 9.5708644 9.0624754 11.37432 8.3076988 13.357422 8.2265625 z " />
</svg>
