<?xml version="1.0" encoding="UTF-8" standalone="no"?>
<svg
   width="24"
   height="24"
   viewBox="0 0 24 24"
   fill="none"
   stroke="currentColor"
   stroke-width="0.5"
   stroke-linecap="round"
   stroke-linejoin="round"
   version="1.1"
   id="svg2"
   sodipodi:docname=".tmp_folder-pen.svg"
   xmlns:inkscape="http://www.inkscape.org/namespaces/inkscape"
   xmlns:sodipodi="http://sodipodi.sourceforge.net/DTD/sodipodi-0.dtd"
   xmlns="http://www.w3.org/2000/svg"
   xmlns:svg="http://www.w3.org/2000/svg">
  <defs
     id="defs2" />
  <sodipodi:namedview
     id="namedview2"
     pagecolor="#ffffff"
     bordercolor="#000000"
     borderopacity="0.25"
     inkscape:showpageshadow="2"
     inkscape:pageopacity="0.0"
     inkscape:pagecheckerboard="0"
     inkscape:deskcolor="#d1d1d1" />
  <path
     id="path1"
     style="baseline-shift:baseline;display:inline;overflow:visible;vector-effect:none;fill:#000000;stroke:none;stroke-linecap:butt;stroke-linejoin:miter;enable-background:accumulate;stop-color:#000000;stop-opacity:1;opacity:1"
     d="M 4 2.75 C 2.7603205 2.75 1.75 3.7603205 1.75 5 L 1.75 11.5 A 0.25 0.25 0 0 0 2 11.75 A 0.25 0.25 0 0 0 2.25 11.5 L 2.25 5 C 2.25 4.0305405 3.0305405 3.25 4 3.25 L 7.9003906 3.25 C 8.5289621 3.25 9.0352474 3.5030664 9.3925781 4.0390625 L 10.191406 5.2382812 C 10.634075 5.9022851 11.328181 6.25 12.099609 6.25 L 20 6.25 C 20.969459 6.25 21.75 7.0305405 21.75 8 L 21.75 18 C 21.75 18.969459 20.969459 19.75 20 19.75 L 10.5 19.75 A 0.25 0.25 0 0 0 10.25 20 A 0.25 0.25 0 0 0 10.5 20.25 L 20 20.25 C 21.23968 20.25 22.25 19.23968 22.25 18 L 22.25 8 C 22.25 6.7603205 21.23968 5.75 20 5.75 L 12.099609 5.75 C 11.471038 5.75 10.964753 5.4969336 10.607422 4.9609375 L 9.8085938 3.7617188 C 9.3659244 3.0977149 8.6718192 2.75 7.9003906 2.75 L 4 2.75 z M 9.7578125 9.7128906 C 9.2250946 9.7389549 8.6740187 9.968559 8.1972656 10.445312 L 3.1875 15.457031 C 2.9200355 15.724348 2.7231829 16.05498 2.6171875 16.417969 L 1.78125 19.287109 C 1.6191837 19.842765 2.1552816 20.380816 2.7109375 20.21875 L 5.5800781 19.380859 A 0.250025 0.250025 0 0 0 5.5820312 19.380859 C 5.945023 19.274864 6.2736984 19.079964 6.5410156 18.8125 L 11.554688 13.802734 C 12.099547 13.257874 12.320498 12.61643 12.285156 12.015625 C 12.249815 11.41482 11.96947 10.860095 11.554688 10.445312 C 11.139903 10.030528 10.58518 9.7501852 9.984375 9.7148438 C 9.9092744 9.7104261 9.8339151 9.7091672 9.7578125 9.7128906 z M 9.78125 10.212891 C 9.8397166 10.210375 9.8971892 10.211438 9.9550781 10.214844 C 10.41819 10.242084 10.864956 10.462612 11.201172 10.798828 C 11.537388 11.135044 11.757914 11.58181 11.785156 12.044922 C 11.812396 12.508034 11.657644 12.992746 11.201172 13.449219 L 6.1875 18.458984 C 5.9795737 18.667025 5.7237482 18.817945 5.4414062 18.900391 L 2.5703125 19.738281 C 2.3680705 19.797271 2.2027315 19.629976 2.2617188 19.427734 L 3.0976562 16.558594 C 3.1801023 16.276252 3.3329748 16.018473 3.5410156 15.810547 L 8.5507812 10.798828 C 8.9501944 10.399415 9.3719835 10.230502 9.78125 10.212891 z " />
</svg>
