<?xml version="1.0" encoding="UTF-8" standalone="no"?>
<svg
   width="24"
   height="24"
   viewBox="0 0 24 24"
   fill="none"
   stroke="currentColor"
   stroke-width="0.5"
   stroke-linecap="round"
   stroke-linejoin="round"
   version="1.1"
   id="svg2"
   sodipodi:docname=".tmp_folders.svg"
   xmlns:inkscape="http://www.inkscape.org/namespaces/inkscape"
   xmlns:sodipodi="http://sodipodi.sourceforge.net/DTD/sodipodi-0.dtd"
   xmlns="http://www.w3.org/2000/svg"
   xmlns:svg="http://www.w3.org/2000/svg">
  <defs
     id="defs2" />
  <sodipodi:namedview
     id="namedview2"
     pagecolor="#ffffff"
     bordercolor="#000000"
     borderopacity="0.25"
     inkscape:showpageshadow="2"
     inkscape:pageopacity="0.0"
     inkscape:pagecheckerboard="0"
     inkscape:deskcolor="#d1d1d1" />
  <path
     id="path1"
     style="baseline-shift:baseline;display:inline;overflow:visible;vector-effect:none;fill:#000000;stroke:none;stroke-linecap:butt;stroke-linejoin:miter;enable-background:accumulate;stop-color:#000000;stop-opacity:1;opacity:1"
     d="M 9 2.75 C 7.7603205 2.75 6.75 3.7603205 6.75 5 L 6.75 14 C 6.75 15.23968 7.7603205 16.25 9 16.25 L 20 16.25 C 21.23968 16.25 22.25 15.23968 22.25 14 L 22.25 7 C 22.25 5.7603205 21.23968 4.75 20 4.75 L 14.5 4.75 C 14.106334 4.75 13.7362 4.5649327 13.5 4.25 L 12.900391 3.4492188 C 12.570027 3.0087339 12.050606 2.75 11.5 2.75 L 9 2.75 z M 9 3.25 L 11.5 3.25 C 11.893666 3.25 12.2638 3.4350673 12.5 3.75 L 13.099609 4.5507812 C 13.429973 4.9912661 13.949394 5.25 14.5 5.25 L 20 5.25 C 20.969459 5.25 21.75 6.0305405 21.75 7 L 21.75 14 C 21.75 14.969459 20.969459 15.75 20 15.75 L 9 15.75 C 8.0305405 15.75 7.25 14.969459 7.25 14 L 7.25 5 C 7.25 4.0305405 8.0305405 3.25 9 3.25 z M 3 8.0175781 A 0.25 0.25 0 0 0 2.875 8.0507812 C 2.1771246 8.453695 1.747605 9.2000286 1.75 10.005859 L 1.75 19 C 1.75 20.23968 2.7603205 21.25 4 21.25 L 15 21.25 C 15.803426 21.24998 16.547506 20.820788 16.949219 20.125 A 0.25 0.25 0 0 0 16.857422 19.783203 A 0.25 0.25 0 0 0 16.515625 19.875 C 16.202828 20.416782 15.6256 20.749984 15 20.75 L 4 20.75 C 3.0305405 20.75 2.25 19.969459 2.25 19 L 2.25 10.005859 C 2.2481351 9.3783796 2.5815822 8.7981137 3.125 8.484375 A 0.25 0.25 0 0 0 3.2167969 8.1425781 A 0.25 0.25 0 0 0 3 8.0175781 z " />
</svg>
