<?xml version="1.0" encoding="UTF-8" standalone="no"?>
<svg
   width="24"
   height="24"
   viewBox="0 0 24 24"
   fill="none"
   stroke="currentColor"
   stroke-width="0.5"
   stroke-linecap="round"
   stroke-linejoin="round"
   version="1.1"
   id="svg2"
   sodipodi:docname=".tmp_gallery-horizontal-end.svg"
   xmlns:inkscape="http://www.inkscape.org/namespaces/inkscape"
   xmlns:sodipodi="http://sodipodi.sourceforge.net/DTD/sodipodi-0.dtd"
   xmlns="http://www.w3.org/2000/svg"
   xmlns:svg="http://www.w3.org/2000/svg">
  <defs
     id="defs2" />
  <sodipodi:namedview
     id="namedview2"
     pagecolor="#ffffff"
     bordercolor="#000000"
     borderopacity="0.25"
     inkscape:showpageshadow="2"
     inkscape:pageopacity="0.0"
     inkscape:pagecheckerboard="0"
     inkscape:deskcolor="#d1d1d1" />
  <path
     id="path1"
     style="baseline-shift:baseline;display:inline;overflow:visible;vector-effect:none;fill:#000000;stroke:none;stroke-linecap:butt;stroke-linejoin:miter;enable-background:accumulate;stop-color:#000000;stop-opacity:1;opacity:1"
     d="M 12 2.75 C 10.757824 2.75 9.75 3.7578243 9.75 5 L 9.75 19 C 9.75 20.242176 10.757824 21.25 12 21.25 L 20 21.25 C 21.242176 21.25 22.25 20.242176 22.25 19 L 22.25 5 C 22.25 3.7578243 21.242176 2.75 20 2.75 L 12 2.75 z M 12 3.25 L 20 3.25 C 20.973824 3.25 21.75 4.0261757 21.75 5 L 21.75 19 C 21.75 19.973824 20.973824 20.75 20 20.75 L 12 20.75 C 11.026176 20.75 10.25 19.973824 10.25 19 L 10.25 5 C 10.25 4.0261757 11.026176 3.25 12 3.25 z M 6 4.75 A 0.25 0.25 0 0 0 5.75 5 L 5.75 19 A 0.25 0.25 0 0 0 6 19.25 A 0.25 0.25 0 0 0 6.25 19 L 6.25 5 A 0.25 0.25 0 0 0 6 4.75 z M 2 6.75 A 0.25 0.25 0 0 0 1.75 7 L 1.75 17 A 0.25 0.25 0 0 0 2 17.25 A 0.25 0.25 0 0 0 2.25 17 L 2.25 7 A 0.25 0.25 0 0 0 2 6.75 z " />
</svg>
