<?xml version="1.0" encoding="UTF-8" standalone="no"?>
<svg
   width="24"
   height="24"
   viewBox="0 0 24 24"
   fill="none"
   stroke="currentColor"
   stroke-width="0.5"
   stroke-linecap="round"
   stroke-linejoin="round"
   version="1.1"
   id="svg3"
   sodipodi:docname=".tmp_gift.svg"
   xmlns:inkscape="http://www.inkscape.org/namespaces/inkscape"
   xmlns:sodipodi="http://sodipodi.sourceforge.net/DTD/sodipodi-0.dtd"
   xmlns="http://www.w3.org/2000/svg"
   xmlns:svg="http://www.w3.org/2000/svg">
  <defs
     id="defs3" />
  <sodipodi:namedview
     id="namedview3"
     pagecolor="#ffffff"
     bordercolor="#000000"
     borderopacity="0.25"
     inkscape:showpageshadow="2"
     inkscape:pageopacity="0.0"
     inkscape:pagecheckerboard="0"
     inkscape:deskcolor="#d1d1d1" />
  <path
     id="rect1"
     style="baseline-shift:baseline;display:inline;overflow:visible;vector-effect:none;fill:#000000;stroke:none;stroke-linecap:butt;stroke-linejoin:miter;enable-background:accumulate;stop-color:#000000;stop-opacity:1;opacity:1"
     d="M 7.4960938 2.75 C 6.6022752 2.7510834 5.8992568 3.0957578 5.4375 3.6152344 C 4.9750153 4.1355299 4.75 4.8194445 4.75 5.5 C 4.75 6.1805555 4.9750153 6.8644701 5.4375 7.3847656 C 5.5569888 7.5191906 5.6928571 7.6419102 5.84375 7.75 L 4 7.75 C 3.3118243 7.75 2.75 8.3118243 2.75 9 L 2.75 11 C 2.75 11.688176 3.3118243 12.25 4 12.25 L 4.75 12.25 L 4.75 19 C 4.75 20.23968 5.7603205 21.25 7 21.25 L 17 21.25 C 18.23968 21.25 19.25 20.23968 19.25 19 L 19.25 12.25 L 20 12.25 C 20.688176 12.25 21.25 11.688176 21.25 11 L 21.25 9 C 21.25 8.3118243 20.688176 7.75 20 7.75 L 18.15625 7.75 C 18.307143 7.6419102 18.443011 7.5191906 18.5625 7.3847656 C 19.024985 6.8644701 19.25 6.1805555 19.25 5.5 C 19.25 4.8194445 19.024985 4.1355299 18.5625 3.6152344 C 18.100743 3.0957578 17.397725 2.7510834 16.503906 2.75 L 16.5 2.75 C 15.429303 2.7326611 14.421637 3.2645858 13.601562 4.1757812 C 12.912172 4.9417697 12.38742 6.0250818 12 7.2597656 C 11.61258 6.0250818 11.087826 4.9417697 10.398438 4.1757812 C 9.5783611 3.2645858 8.5706971 2.7326611 7.5 2.75 L 7.4960938 2.75 z M 7.5 3.25 A 0.250025 0.250025 0 0 0 7.5039062 3.25 C 8.4060066 3.234283 9.2770282 3.676082 10.027344 4.5097656 C 10.72528 5.2852508 11.308163 6.3972347 11.677734 7.75 L 7.5 7.75 C 6.7291671 7.75 6.1833483 7.4699389 5.8125 7.0527344 C 5.4416517 6.6355299 5.25 6.0694445 5.25 5.5 C 5.25 4.9305555 5.4416517 4.3644701 5.8125 3.9472656 C 6.1833483 3.5300611 6.7291671 3.25 7.5 3.25 z M 16.496094 3.25 A 0.250025 0.250025 0 0 0 16.5 3.25 C 17.270833 3.25 17.816652 3.5300611 18.1875 3.9472656 C 18.558354 4.3644701 18.75 4.9305555 18.75 5.5 C 18.75 6.0694445 18.558348 6.6355299 18.1875 7.0527344 C 17.816652 7.4699389 17.270833 7.75 16.5 7.75 L 12.322266 7.75 C 12.691833 6.3972347 13.27472 5.2852508 13.972656 4.5097656 C 14.722972 3.676082 15.593993 3.2342829 16.496094 3.25 z M 4 8.25 L 7.5 8.25 L 11.75 8.25 L 11.75 11.75 L 4 11.75 C 3.5801757 11.75 3.25 11.419824 3.25 11 L 3.25 9 C 3.25 8.5801757 3.5801757 8.25 4 8.25 z M 12.25 8.25 L 16.5 8.25 L 20 8.25 C 20.419824 8.25 20.75 8.5801757 20.75 9 L 20.75 11 C 20.75 11.419824 20.419824 11.75 20 11.75 L 12.25 11.75 L 12.25 8.25 z M 5.25 12.25 L 11.75 12.25 L 11.75 20.75 L 7 20.75 C 6.0305405 20.75 5.25 19.969459 5.25 19 L 5.25 12.25 z M 12.25 12.25 L 18.75 12.25 L 18.75 19 C 18.75 19.969459 17.969459 20.75 17 20.75 L 12.25 20.75 L 12.25 12.25 z " />
</svg>
