<?xml version="1.0" encoding="UTF-8" standalone="no"?>
<svg
   width="24"
   height="24"
   viewBox="0 0 24 24"
   fill="none"
   stroke="currentColor"
   stroke-width="0.5"
   stroke-linecap="round"
   stroke-linejoin="round"
   version="1.1"
   id="svg2"
   sodipodi:docname=".tmp_globe.svg"
   xmlns:inkscape="http://www.inkscape.org/namespaces/inkscape"
   xmlns:sodipodi="http://sodipodi.sourceforge.net/DTD/sodipodi-0.dtd"
   xmlns="http://www.w3.org/2000/svg"
   xmlns:svg="http://www.w3.org/2000/svg">
  <defs
     id="defs2" />
  <sodipodi:namedview
     id="namedview2"
     pagecolor="#ffffff"
     bordercolor="#000000"
     borderopacity="0.25"
     inkscape:showpageshadow="2"
     inkscape:pageopacity="0.0"
     inkscape:pagecheckerboard="0"
     inkscape:deskcolor="#d1d1d1" />
  <path
     id="circle1"
     style="baseline-shift:baseline;display:inline;overflow:visible;vector-effect:none;fill:#000000;stroke:none;stroke-linecap:butt;stroke-linejoin:miter;enable-background:accumulate;stop-color:#000000;stop-opacity:1;opacity:1"
     d="M 12 1.75 C 6.3532629 1.75 1.7701163 6.3242929 1.7519531 11.966797 C 1.751917 11.978009 1.75 11.98878 1.75 12 A 0.25 0.25 0 0 0 1.7519531 12.033203 C 1.7701089 17.675714 6.3532583 22.25 12 22.25 A 0.250025 0.250025 0 0 0 12.007812 22.25 C 17.651399 22.246287 22.229898 17.673422 22.248047 12.033203 A 0.25 0.25 0 0 0 22.25 12 A 0.25 0.25 0 0 0 22.248047 11.966797 C 22.229884 6.3242929 17.646738 1.75 12 1.75 z M 11.416016 2.2675781 C 9.030685 4.9804433 7.8091307 8.3570426 7.7519531 11.75 L 2.2539062 11.75 C 2.3814742 6.6726733 6.3826465 2.5641628 11.416016 2.2675781 z M 12.583984 2.2675781 C 17.617387 2.5641281 21.618525 6.6726492 21.746094 11.75 L 16.248047 11.75 C 16.190869 8.3570408 14.969318 4.980444 12.583984 2.2675781 z M 12 2.4042969 C 14.42469 5.0581422 15.665835 8.3957835 15.724609 11.75 L 8.2753906 11.75 C 8.3341654 8.3957835 9.5753099 5.0581422 12 2.4042969 z M 2.2539062 12.25 L 7.7519531 12.25 C 7.8091287 15.642956 9.0306884 19.019556 11.416016 21.732422 C 6.3826503 21.435833 2.3814742 17.327324 2.2539062 12.25 z M 8.2753906 12.25 L 15.724609 12.25 C 15.665835 15.604216 14.42469 18.941858 12 21.595703 C 9.5753099 18.941858 8.3341655 15.604216 8.2753906 12.25 z M 16.248047 12.25 L 21.746094 12.25 C 21.618525 17.327348 17.617383 21.435868 12.583984 21.732422 C 14.969314 19.019555 16.190871 15.642958 16.248047 12.25 z " />
</svg>
