<?xml version="1.0" encoding="UTF-8" standalone="no"?>
<svg
   width="24"
   height="24"
   viewBox="0 0 24 24"
   fill="none"
   stroke="currentColor"
   stroke-width="0.5"
   stroke-linecap="round"
   stroke-linejoin="round"
   version="1.1"
   id="svg4"
   sodipodi:docname=".tmp_house-wifi.svg"
   xmlns:inkscape="http://www.inkscape.org/namespaces/inkscape"
   xmlns:sodipodi="http://sodipodi.sourceforge.net/DTD/sodipodi-0.dtd"
   xmlns="http://www.w3.org/2000/svg"
   xmlns:svg="http://www.w3.org/2000/svg">
  <defs
     id="defs4" />
  <sodipodi:namedview
     id="namedview4"
     pagecolor="#ffffff"
     bordercolor="#000000"
     borderopacity="0.25"
     inkscape:showpageshadow="2"
     inkscape:pageopacity="0.0"
     inkscape:pagecheckerboard="0"
     inkscape:deskcolor="#d1d1d1" />
  <path
     id="path1"
     style="baseline-shift:baseline;display:inline;overflow:visible;vector-effect:none;fill:#000000;stroke:none;stroke-linecap:butt;stroke-linejoin:miter;enable-background:accumulate;stop-color:#000000;stop-opacity:1;opacity:1"
     d="M 12 1.75 C 11.483128 1.75 10.965506 1.9274398 10.546875 2.28125 L 3.546875 8.28125 C 3.0410184 8.7087799 2.7498412 9.3376763 2.75 10 L 2.75 19 C 2.75 20.23968 3.7603205 21.25 5 21.25 L 19 21.25 C 20.23968 21.25 21.25 20.23968 21.25 19 L 21.25 10 C 21.250159 9.3376763 20.958982 8.7087799 20.453125 8.28125 L 13.453125 2.28125 C 13.034494 1.9274398 12.516872 1.75 12 1.75 z M 12 2.2480469 C 12.401434 2.2480469 12.802149 2.385947 13.128906 2.6621094 L 20.128906 8.6621094 C 20.522566 8.9948153 20.750124 9.4845764 20.75 10 L 20.75 19 C 20.75 19.969459 19.969459 20.75 19 20.75 L 5 20.75 C 4.0305405 20.75 3.25 19.969459 3.25 19 L 3.25 10 C 3.2498765 9.4845764 3.4774337 8.9948153 3.8710938 8.6621094 L 10.871094 2.6621094 C 11.197851 2.385947 11.598566 2.2480469 12 2.2480469 z M 12 8.75 C 10.175099 8.75 8.3501984 9.3524696 6.84375 10.558594 A 0.25 0.25 0 0 0 6.8046875 10.910156 A 0.25 0.25 0 0 0 7.15625 10.949219 C 9.9886781 8.6814612 14.011322 8.6814611 16.84375 10.949219 A 0.25 0.25 0 0 0 17.195312 10.910156 A 0.25 0.25 0 0 0 17.15625 10.558594 C 15.6498 9.3524696 13.824901 8.75 12 8.75 z M 12.001953 12.744141 C 11.061719 12.742241 10.120774 13.050349 9.34375 13.669922 A 0.25 0.25 0 0 0 9.3046875 14.021484 A 0.25 0.25 0 0 0 9.65625 14.060547 C 11.029541 12.96553 12.97485 12.969777 14.34375 14.070312 A 0.25 0.25 0 0 0 14.695312 14.033203 A 0.25 0.25 0 0 0 14.65625 13.681641 C 13.88171 13.058964 12.942187 12.746021 12.001953 12.744141 z M 12 16.75 A 0.25 0.25 0 0 0 11.75 17 A 0.25 0.25 0 0 0 12 17.25 L 12.009766 17.25 A 0.25 0.25 0 0 0 12.259766 17 A 0.25 0.25 0 0 0 12.009766 16.75 L 12 16.75 z " />
</svg>
