<?xml version="1.0" encoding="UTF-8" standalone="no"?>
<svg
   width="24"
   height="24"
   viewBox="0 0 24 24"
   fill="none"
   stroke="currentColor"
   stroke-width="0.5"
   stroke-linecap="round"
   stroke-linejoin="round"
   version="1.1"
   id="svg4"
   sodipodi:docname=".tmp_house-plus.svg"
   xmlns:inkscape="http://www.inkscape.org/namespaces/inkscape"
   xmlns:sodipodi="http://sodipodi.sourceforge.net/DTD/sodipodi-0.dtd"
   xmlns="http://www.w3.org/2000/svg"
   xmlns:svg="http://www.w3.org/2000/svg">
  <defs
     id="defs4" />
  <sodipodi:namedview
     id="namedview4"
     pagecolor="#ffffff"
     bordercolor="#000000"
     borderopacity="0.25"
     inkscape:showpageshadow="2"
     inkscape:pageopacity="0.0"
     inkscape:pagecheckerboard="0"
     inkscape:deskcolor="#d1d1d1" />
  <path
     id="path1"
     style="baseline-shift:baseline;display:inline;overflow:visible;vector-effect:none;fill:#000000;stroke:none;stroke-linecap:butt;stroke-linejoin:miter;enable-background:accumulate;stop-color:#000000;stop-opacity:1;opacity:1"
     d="M 12 1.75 C 11.483595 1.75 10.967268 1.9261171 10.548828 2.2792969 A 0.250025 0.250025 0 0 0 10.546875 2.2792969 L 3.5488281 8.2792969 C 3.0419988 8.70712 2.749458 9.3367083 2.75 10 L 2.75 19 C 2.75 20.23968 3.7603205 21.25 5 21.25 L 12.349609 21.25 A 0.25 0.25 0 0 0 12.599609 21 A 0.25 0.25 0 0 0 12.349609 20.75 L 9.25 20.75 L 9.25 13 C 9.25 12.582825 9.5828253 12.25 10 12.25 L 14 12.25 C 14.236287 12.25 14.457837 12.361751 14.599609 12.550781 A 0.25 0.25 0 0 0 14.949219 12.599609 A 0.25 0.25 0 0 0 15 12.25 C 14.764064 11.935418 14.393227 11.75 14 11.75 L 10 11.75 C 9.3126052 11.75 8.75 12.312605 8.75 13 L 8.75 20.75 L 5 20.75 C 4.0305405 20.75 3.25 19.969459 3.25 19 L 3.25 10 C 3.2495782 9.4838215 3.4766389 8.9930912 3.8710938 8.6601562 A 0.250025 0.250025 0 0 0 3.8730469 8.6601562 L 10.871094 2.6601562 C 11.524302 2.1088227 12.475698 2.1088227 13.128906 2.6601562 L 20.126953 8.6601562 A 0.250025 0.250025 0 0 0 20.128906 8.6601562 C 20.523317 8.9930912 20.750422 9.4838215 20.75 10 L 20.75 12.349609 A 0.25 0.25 0 0 0 21 12.599609 A 0.25 0.25 0 0 0 21.25 12.349609 L 21.25 10 C 21.250542 9.3367083 20.958048 8.70712 20.451172 8.2792969 L 13.453125 2.2792969 A 0.250025 0.250025 0 0 0 13.451172 2.2792969 C 13.032779 1.9261171 12.516405 1.75 12 1.75 z M 18 14.75 A 0.25 0.25 0 0 0 17.75 15 L 17.75 17.75 L 15 17.75 A 0.25 0.25 0 0 0 14.75 18 A 0.25 0.25 0 0 0 15 18.25 L 17.75 18.25 L 17.75 21 A 0.25 0.25 0 0 0 18 21.25 A 0.25 0.25 0 0 0 18.25 21 L 18.25 18.25 L 21 18.25 A 0.25 0.25 0 0 0 21.25 18 A 0.25 0.25 0 0 0 21 17.75 L 18.25 17.75 L 18.25 15 A 0.25 0.25 0 0 0 18 14.75 z " />
</svg>
