<?xml version="1.0" encoding="UTF-8" standalone="no"?>
<svg
   width="24"
   height="24"
   viewBox="0 0 24 24"
   fill="none"
   stroke="currentColor"
   stroke-width="0.5"
   stroke-linecap="round"
   stroke-linejoin="round"
   version="1.1"
   id="svg3"
   sodipodi:docname=".tmp_italic.svg"
   xmlns:inkscape="http://www.inkscape.org/namespaces/inkscape"
   xmlns:sodipodi="http://sodipodi.sourceforge.net/DTD/sodipodi-0.dtd"
   xmlns="http://www.w3.org/2000/svg"
   xmlns:svg="http://www.w3.org/2000/svg">
  <defs
     id="defs3" />
  <sodipodi:namedview
     id="namedview3"
     pagecolor="#ffffff"
     bordercolor="#000000"
     borderopacity="0.25"
     inkscape:showpageshadow="2"
     inkscape:pageopacity="0.0"
     inkscape:pagecheckerboard="0"
     inkscape:deskcolor="#d1d1d1" />
  <path
     id="line1"
     style="baseline-shift:baseline;display:inline;overflow:visible;vector-effect:none;fill:#000000;stroke:none;stroke-linecap:butt;stroke-linejoin:miter;enable-background:accumulate;stop-color:#000000;stop-opacity:1;opacity:1"
     d="M 10 3.75 A 0.25 0.25 0 0 0 9.75 4 A 0.25 0.25 0 0 0 10 4.25 L 14.638672 4.25 L 8.8261719 19.75 L 5 19.75 A 0.25 0.25 0 0 0 4.75 20 A 0.25 0.25 0 0 0 5 20.25 L 8.9863281 20.25 L 9.0136719 20.25 L 14 20.25 A 0.25 0.25 0 0 0 14.25 20 A 0.25 0.25 0 0 0 14 19.75 L 9.3613281 19.75 L 15.173828 4.25 L 19 4.25 A 0.25 0.25 0 0 0 19.25 4 A 0.25 0.25 0 0 0 19 3.75 L 15.013672 3.75 L 14.986328 3.75 L 10 3.75 z " />
</svg>
