<?xml version="1.0" encoding="UTF-8" standalone="no"?>
<svg
   width="24"
   height="24"
   viewBox="0 0 24 24"
   fill="none"
   stroke="currentColor"
   stroke-width="0.5"
   stroke-linecap="round"
   stroke-linejoin="round"
   version="1.1"
   id="svg3"
   sodipodi:docname=".tmp_japanese-yen.svg"
   xmlns:inkscape="http://www.inkscape.org/namespaces/inkscape"
   xmlns:sodipodi="http://sodipodi.sourceforge.net/DTD/sodipodi-0.dtd"
   xmlns="http://www.w3.org/2000/svg"
   xmlns:svg="http://www.w3.org/2000/svg">
  <defs
     id="defs3" />
  <sodipodi:namedview
     id="namedview3"
     pagecolor="#ffffff"
     bordercolor="#000000"
     borderopacity="0.25"
     inkscape:showpageshadow="2"
     inkscape:pageopacity="0.0"
     inkscape:pagecheckerboard="0"
     inkscape:deskcolor="#d1d1d1" />
  <path
     id="path1"
     style="baseline-shift:baseline;display:inline;overflow:visible;vector-effect:none;fill:#000000;stroke:none;stroke-linecap:butt;stroke-linejoin:miter;enable-background:accumulate;stop-color:#000000;stop-opacity:1;opacity:1"
     d="M 5.9765625 2.75 A 0.25 0.25 0 0 0 5.8300781 2.8164062 A 0.25 0.25 0 0 0 5.8164062 3.1699219 L 11.75 9.5976562 L 11.75 10.75 L 6 10.75 A 0.25 0.25 0 0 0 5.75 11 A 0.25 0.25 0 0 0 6 11.25 L 11.75 11.25 L 11.75 14.75 L 6 14.75 A 0.25 0.25 0 0 0 5.75 15 A 0.25 0.25 0 0 0 6 15.25 L 11.75 15.25 L 11.75 21 A 0.25 0.25 0 0 0 12 21.25 A 0.25 0.25 0 0 0 12.25 21 L 12.25 15.25 L 18 15.25 A 0.25 0.25 0 0 0 18.25 15 A 0.25 0.25 0 0 0 18 14.75 L 12.25 14.75 L 12.25 11.25 L 18 11.25 A 0.25 0.25 0 0 0 18.25 11 A 0.25 0.25 0 0 0 18 10.75 L 12.25 10.75 L 12.25 9.5976562 L 18.183594 3.1699219 A 0.25 0.25 0 0 0 18.169922 2.8164062 A 0.25 0.25 0 0 0 17.816406 2.8300781 L 12 9.1308594 L 6.1835938 2.8300781 A 0.25 0.25 0 0 0 5.9765625 2.75 z " />
</svg>
