<?xml version="1.0" encoding="UTF-8" standalone="no"?>
<svg
   width="24"
   height="24"
   viewBox="0 0 24 24"
   fill="none"
   stroke="currentColor"
   stroke-width="0.5"
   stroke-linecap="round"
   stroke-linejoin="round"
   version="1.1"
   id="svg1"
   sodipodi:docname=".tmp_linkedin.svg"
   xmlns:inkscape="http://www.inkscape.org/namespaces/inkscape"
   xmlns:sodipodi="http://sodipodi.sourceforge.net/DTD/sodipodi-0.dtd"
   xmlns="http://www.w3.org/2000/svg"
   xmlns:svg="http://www.w3.org/2000/svg">
  <defs
     id="defs1" />
  <sodipodi:namedview
     id="namedview1"
     pagecolor="#ffffff"
     bordercolor="#000000"
     borderopacity="0.25"
     inkscape:showpageshadow="2"
     inkscape:pageopacity="0.0"
     inkscape:pagecheckerboard="0"
     inkscape:deskcolor="#d1d1d1" />
  <path
     id="path1"
     style="baseline-shift:baseline;display:inline;overflow:visible;vector-effect:none;fill:#000000;stroke:none;stroke-linecap:butt;stroke-linejoin:miter;enable-background:accumulate;stop-color:#000000;stop-opacity:1;opacity:1"
     d="M 4 1.75 C 2.7603205 1.75 1.75 2.7603205 1.75 4 C 1.75 5.2396795 2.7603205 6.25 4 6.25 C 5.2396795 6.25 6.25 5.2396795 6.25 4 C 6.25 2.7603205 5.2396795 1.75 4 1.75 z M 4 2.25 C 4.9694595 2.25 5.75 3.0305405 5.75 4 C 5.75 4.9694595 4.9694595 5.75 4 5.75 C 3.0305405 5.75 2.25 4.9694595 2.25 4 C 2.25 3.0305405 3.0305405 2.25 4 2.25 z M 16 7.75 C 12.551181 7.75 9.75 10.551181 9.75 14 L 9.75 21 A 0.250025 0.250025 0 0 0 10 21.25 L 14 21.25 A 0.250025 0.250025 0 0 0 14.25 21 L 14.25 14 C 14.25 13.030541 15.030541 12.25 16 12.25 C 16.969459 12.25 17.75 13.030541 17.75 14 L 17.75 21 A 0.250025 0.250025 0 0 0 18 21.25 L 22 21.25 A 0.250025 0.250025 0 0 0 22.25 21 L 22.25 14 C 22.25 10.551181 19.448819 7.75 16 7.75 z M 16 8.25 C 19.178598 8.25 21.75 10.821402 21.75 14 L 21.75 20.75 L 18.25 20.75 L 18.25 14 C 18.25 12.76032 17.23968 11.75 16 11.75 C 14.76032 11.75 13.75 12.76032 13.75 14 L 13.75 20.75 L 10.25 20.75 L 10.25 14 C 10.25 10.821402 12.821402 8.25 16 8.25 z M 2 8.75 A 0.250025 0.250025 0 0 0 1.75 9 L 1.75 21 A 0.250025 0.250025 0 0 0 2 21.25 L 6 21.25 A 0.250025 0.250025 0 0 0 6.25 21 L 6.25 9 A 0.250025 0.250025 0 0 0 6 8.75 L 2 8.75 z M 2.25 9.25 L 5.75 9.25 L 5.75 20.75 L 2.25 20.75 L 2.25 9.25 z " />
</svg>
