<?xml version="1.0" encoding="UTF-8" standalone="no"?>
<svg
   width="24"
   height="24"
   viewBox="0 0 24 24"
   fill="none"
   stroke="currentColor"
   stroke-width="0.5"
   stroke-linecap="round"
   stroke-linejoin="round"
   version="1.1"
   id="svg5"
   sodipodi:docname=".tmp_medal.svg"
   xmlns:inkscape="http://www.inkscape.org/namespaces/inkscape"
   xmlns:sodipodi="http://sodipodi.sourceforge.net/DTD/sodipodi-0.dtd"
   xmlns="http://www.w3.org/2000/svg"
   xmlns:svg="http://www.w3.org/2000/svg">
  <defs
     id="defs5" />
  <sodipodi:namedview
     id="namedview5"
     pagecolor="#ffffff"
     bordercolor="#000000"
     borderopacity="0.25"
     inkscape:showpageshadow="2"
     inkscape:pageopacity="0.0"
     inkscape:pagecheckerboard="0"
     inkscape:deskcolor="#d1d1d1" />
  <path
     id="path1"
     style="baseline-shift:baseline;display:inline;overflow:visible;vector-effect:none;fill:#000000;stroke:none;stroke-linecap:butt;stroke-linejoin:miter;enable-background:accumulate;stop-color:#000000;stop-opacity:1;opacity:1"
     d="M 6 1.75 C 5.6675691 1.75 5.3443461 1.823835 5.0507812 1.9609375 A 0.25 0.25 0 0 0 4.9921875 1.9863281 A 0.25 0.25 0 0 0 4.9726562 2 C 4.6733268 2.154021 4.4086156 2.3742696 4.2011719 2.6503906 L 2.5898438 4.7890625 A 0.250025 0.250025 0 0 0 2.5898438 4.7910156 C 2.0503619 5.5117763 1.992516 6.4863482 2.4433594 7.265625 L 6.9941406 15.125 A 0.25 0.25 0 0 0 7.0664062 15.203125 C 6.8619894 15.763569 6.75 16.369394 6.75 17 C 6.75 19.896534 9.1034662 22.25 12 22.25 C 14.896534 22.25 17.25 19.896534 17.25 17 C 17.25 16.369393 17.138012 15.76357 16.933594 15.203125 A 0.25 0.25 0 0 0 17.005859 15.125 L 21.556641 7.265625 A 0.250025 0.250025 0 0 0 21.556641 7.2636719 C 22.003926 6.4827367 21.942379 5.5093162 21.400391 4.7910156 L 21.400391 4.7890625 L 19.800781 2.6503906 C 19.59197 2.3719754 19.323694 2.1501347 19.021484 1.9960938 A 0.25 0.25 0 0 0 19.007812 1.9863281 A 0.25 0.25 0 0 0 18.955078 1.9628906 C 18.660066 1.8247236 18.334209 1.75 18 1.75 L 6 1.75 z M 6 2.25 L 18 2.25 C 18.176103 2.25 18.349256 2.2758719 18.513672 2.3261719 L 15.859375 6.75 L 8.140625 6.75 L 5.4863281 2.3261719 C 5.6507442 2.2758719 5.8238969 2.25 6 2.25 z M 5.0332031 2.5410156 L 10.662109 11.921875 C 9.1897244 12.309864 7.9684399 13.322393 7.3007812 14.658203 L 2.8769531 7.015625 C 2.5256871 6.4084664 2.5699075 5.6514084 2.9902344 5.0898438 L 4.5996094 2.9511719 A 0.250025 0.250025 0 0 0 4.5996094 2.9492188 C 4.7213388 2.7869117 4.868254 2.6500678 5.0332031 2.5410156 z M 18.966797 2.5410156 C 19.131746 2.6500673 19.278661 2.7869129 19.400391 2.9492188 L 21 5.0898438 C 21.42311 5.6496085 21.471788 6.4067424 21.123047 7.015625 L 16.699219 14.658203 C 16.03156 13.322393 14.810275 12.309865 13.337891 11.921875 L 16.210938 7.1347656 A 0.25 0.25 0 0 0 16.21875 7.1210938 L 18.966797 2.5410156 z M 8.4414062 7.25 L 15.558594 7.25 L 12.820312 11.814453 L 12.818359 11.814453 C 12.55188 11.772668 12.278093 11.75 12 11.75 C 11.721907 11.75 11.44812 11.772668 11.181641 11.814453 L 8.4414062 7.25 z M 12 12.25 C 14.626314 12.25 16.75 14.373686 16.75 17 C 16.75 19.626314 14.626314 21.75 12 21.75 C 9.3736863 21.75 7.25 19.626314 7.25 17 C 7.25 14.373686 9.3736863 12.25 12 12.25 z M 11.5 15.75 A 0.25 0.25 0 0 0 11.25 16 A 0.25 0.25 0 0 0 11.5 16.25 L 11.75 16.25 L 11.75 18 A 0.25 0.25 0 0 0 12 18.25 A 0.25 0.25 0 0 0 12.25 18 L 12.25 16 A 0.250025 0.250025 0 0 0 12 15.75 L 11.5 15.75 z " />
</svg>
