<?xml version="1.0" encoding="UTF-8" standalone="no"?>
<svg
   width="24"
   height="24"
   viewBox="0 0 24 24"
   fill="none"
   stroke="currentColor"
   stroke-width="0.5"
   stroke-linecap="round"
   stroke-linejoin="round"
   version="1.1"
   id="svg2"
   sodipodi:docname=".tmp_paint-roller.svg"
   xmlns:inkscape="http://www.inkscape.org/namespaces/inkscape"
   xmlns:sodipodi="http://sodipodi.sourceforge.net/DTD/sodipodi-0.dtd"
   xmlns="http://www.w3.org/2000/svg"
   xmlns:svg="http://www.w3.org/2000/svg">
  <defs
     id="defs2" />
  <sodipodi:namedview
     id="namedview2"
     pagecolor="#ffffff"
     bordercolor="#000000"
     borderopacity="0.25"
     inkscape:showpageshadow="2"
     inkscape:pageopacity="0.0"
     inkscape:pagecheckerboard="0"
     inkscape:deskcolor="#d1d1d1" />
  <path
     id="rect1"
     style="baseline-shift:baseline;display:inline;overflow:visible;vector-effect:none;fill:#000000;stroke:none;stroke-linecap:butt;stroke-linejoin:miter;enable-background:accumulate;stop-color:#000000;stop-opacity:1;opacity:1"
     d="M 4 1.75 C 2.7578243 1.75 1.75 2.7578243 1.75 4 L 1.75 6 C 1.75 7.2421757 2.7578243 8.25 4 8.25 L 16 8.25 C 17.242176 8.25 18.25 7.2421757 18.25 6 L 18.25 5.25 L 20 5.25 C 20.969459 5.25 21.75 6.0305405 21.75 7 L 21.75 10 C 21.75 10.969459 20.969459 11.75 20 11.75 L 12 11.75 C 10.76032 11.75 9.75 12.76032 9.75 14 L 9.75 15.75 L 9 15.75 C 8.3118243 15.75 7.75 16.311824 7.75 17 L 7.75 21 C 7.75 21.688176 8.3118243 22.25 9 22.25 L 11 22.25 C 11.688176 22.25 12.25 21.688176 12.25 21 L 12.25 17 C 12.25 16.311824 11.688176 15.75 11 15.75 L 10.25 15.75 L 10.25 14 C 10.25 13.030541 11.030541 12.25 12 12.25 L 20 12.25 C 21.23968 12.25 22.25 11.23968 22.25 10 L 22.25 7 C 22.25 5.7603205 21.23968 4.75 20 4.75 L 18.25 4.75 L 18.25 4 C 18.25 2.7578243 17.242176 1.75 16 1.75 L 4 1.75 z M 4 2.25 L 16 2.25 C 16.973824 2.25 17.75 3.0261757 17.75 4 L 17.75 6 C 17.75 6.9738243 16.973824 7.75 16 7.75 L 4 7.75 C 3.0261757 7.75 2.25 6.9738243 2.25 6 L 2.25 4 C 2.25 3.0261757 3.0261757 2.25 4 2.25 z M 9 16.25 L 10 16.25 L 11 16.25 C 11.419824 16.25 11.75 16.580176 11.75 17 L 11.75 21 C 11.75 21.419824 11.419824 21.75 11 21.75 L 9 21.75 C 8.5801757 21.75 8.25 21.419824 8.25 21 L 8.25 17 C 8.25 16.580176 8.5801757 16.25 9 16.25 z " />
</svg>
