<?xml version="1.0" encoding="UTF-8" standalone="no"?>
<svg
   width="24"
   height="24"
   viewBox="0 0 24 24"
   fill="none"
   stroke="currentColor"
   stroke-width="0.5"
   stroke-linecap="round"
   stroke-linejoin="round"
   version="1.1"
   id="svg5"
   sodipodi:docname=".tmp_pizza.svg"
   xmlns:inkscape="http://www.inkscape.org/namespaces/inkscape"
   xmlns:sodipodi="http://sodipodi.sourceforge.net/DTD/sodipodi-0.dtd"
   xmlns="http://www.w3.org/2000/svg"
   xmlns:svg="http://www.w3.org/2000/svg">
  <defs
     id="defs5" />
  <sodipodi:namedview
     id="namedview5"
     pagecolor="#ffffff"
     bordercolor="#000000"
     borderopacity="0.25"
     inkscape:showpageshadow="2"
     inkscape:pageopacity="0.0"
     inkscape:pagecheckerboard="0"
     inkscape:deskcolor="#d1d1d1" />
  <path
     id="path1"
     style="baseline-shift:baseline;display:inline;overflow:visible;vector-effect:none;fill:#000000;stroke:none;stroke-linecap:butt;stroke-linejoin:miter;enable-background:accumulate;stop-color:#000000;stop-opacity:1;opacity:1"
     d="M 16.037109 1.7519531 C 15.914393 1.748075 15.790086 1.7624935 15.666016 1.796875 L 15.664062 1.796875 C 8.9305411 3.6679013 3.6679013 8.9305411 1.796875 15.664062 C 1.6121535 16.326383 2.0016632 17.020638 2.6640625 17.205078 A 0.250025 0.250025 0 0 0 2.6660156 17.205078 L 20.666016 22.205078 C 21.590345 22.461367 22.461367 21.590345 22.205078 20.666016 L 19.048828 9.3066406 A 0.25 0.25 0 0 0 19.048828 9.3027344 A 0.25 0.25 0 0 0 19.041016 9.234375 A 0.25 0.25 0 0 0 19.011719 9.1679688 A 0.25 0.25 0 0 0 19.009766 9.1660156 L 17.205078 2.6660156 A 0.250025 0.250025 0 0 0 17.205078 2.6640625 C 17.055375 2.1264061 16.568881 1.7687583 16.037109 1.7519531 z M 16.023438 2.25 C 16.34372 2.2586814 16.631707 2.4721951 16.722656 2.7988281 L 17.462891 5.4667969 C 11.490439 6.8250593 6.8255242 11.490524 5.4667969 17.462891 L 2.7988281 16.722656 C 2.3968182 16.610719 2.1652364 16.20079 2.2773438 15.798828 C 4.1013653 9.2321414 9.2321414 4.1013654 15.798828 2.2773438 C 15.874196 2.2563236 15.949526 2.2479966 16.023438 2.25 z M 17.597656 5.9492188 L 18.482422 9.1347656 C 17.277813 9.5281474 16.462651 10.282245 16.017578 11.179688 C 15.542146 12.138347 15.482648 13.249527 15.759766 14.265625 C 16.036883 15.281723 16.650567 16.20842 17.546875 16.792969 C 18.394903 17.34603 19.495943 17.581578 20.75 17.294922 L 21.722656 20.798828 C 21.883103 21.373747 21.373747 21.883103 20.798828 21.722656 L 12.947266 19.541016 L 13.9375 18.416016 A 0.25 0.25 0 0 0 13.916016 18.0625 A 0.25 0.25 0 0 0 13.5625 18.083984 L 12.410156 19.392578 L 5.9492188 17.597656 C 7.2607149 11.793544 11.79346 7.2602607 17.597656 5.9492188 z M 18.615234 9.6152344 L 18.617188 9.6152344 L 20.615234 16.814453 C 19.489843 17.067475 18.554163 16.853598 17.820312 16.375 C 17.039538 15.865799 16.488117 15.043668 16.240234 14.134766 C 15.992352 13.225864 16.050694 12.237434 16.464844 11.402344 C 16.84993 10.625858 17.537531 9.971257 18.615234 9.6152344 z M 12 13.748047 A 0.25 0.25 0 0 0 11.822266 13.822266 L 10.822266 14.822266 A 0.25 0.25 0 0 0 10.822266 15.177734 A 0.25 0.25 0 0 0 11.177734 15.177734 L 12.177734 14.177734 A 0.25 0.25 0 0 0 12.177734 13.822266 A 0.25 0.25 0 0 0 12 13.748047 z " />
</svg>
