<?xml version="1.0" encoding="UTF-8" standalone="no"?>
<svg
   width="24"
   height="24"
   viewBox="0 0 24 24"
   fill="none"
   stroke="currentColor"
   stroke-width="0.5"
   stroke-linecap="round"
   stroke-linejoin="round"
   version="1.1"
   id="svg2"
   sodipodi:docname=".tmp_plane-landing.svg"
   xmlns:inkscape="http://www.inkscape.org/namespaces/inkscape"
   xmlns:sodipodi="http://sodipodi.sourceforge.net/DTD/sodipodi-0.dtd"
   xmlns="http://www.w3.org/2000/svg"
   xmlns:svg="http://www.w3.org/2000/svg">
  <defs
     id="defs2" />
  <sodipodi:namedview
     id="namedview2"
     pagecolor="#ffffff"
     bordercolor="#000000"
     borderopacity="0.25"
     inkscape:showpageshadow="2"
     inkscape:pageopacity="0.0"
     inkscape:pagecheckerboard="0"
     inkscape:deskcolor="#d1d1d1" />
  <path
     id="path1"
     style="baseline-shift:baseline;display:inline;overflow:visible;vector-effect:none;fill:#000000;stroke:none;stroke-linecap:butt;stroke-linejoin:miter;enable-background:accumulate;stop-color:#000000;stop-opacity:1;opacity:1"
     d="M 10.986328 2.2519531 A 0.250025 0.250025 0 0 0 10.777344 2.3886719 L 7.8886719 8.1660156 L 7.0136719 7.7265625 C 6.5455587 7.4882504 6.25 7.0143716 6.25 6.5 C 6.25 5.7943716 5.8447775 5.1498129 5.2128906 4.828125 A 0.250025 0.250025 0 0 0 5.2109375 4.8261719 L 4.1113281 4.2773438 A 0.250025 0.250025 0 0 0 3.7714844 4.3984375 L 1.7714844 8.8984375 A 0.250025 0.250025 0 0 0 1.8222656 9.1777344 L 3.59375 10.947266 C 3.7639337 11.119565 3.9617366 11.2635 4.1777344 11.373047 L 17.238281 17.894531 L 17.234375 17.890625 C 17.701661 18.135394 18.233055 18.224445 18.751953 18.158203 L 19.929688 18.007812 C 21.098364 17.867572 21.749495 16.565896 21.177734 15.539062 A 0.250025 0.250025 0 0 0 21.175781 15.533203 L 20.578125 14.507812 C 20.32167 14.050653 19.925808 13.689653 19.466797 13.449219 A 0.250025 0.250025 0 0 0 19.460938 13.447266 L 15.0625 11.246094 A 0.250025 0.250025 0 0 0 15.060547 11.246094 C 14.541936 10.987767 14.185713 10.490131 14.107422 9.9160156 L 13.388672 4.5175781 A 0.250025 0.250025 0 0 0 13.388672 4.515625 C 13.288098 3.7781044 12.828385 3.1384909 12.162109 2.8066406 L 11.113281 2.2773438 A 0.250025 0.250025 0 0 0 10.986328 2.2519531 z M 11.111328 2.8359375 L 11.9375 3.2539062 A 0.250025 0.250025 0 0 0 11.939453 3.2539062 C 12.458111 3.5122329 12.814287 4.0098688 12.892578 4.5839844 L 13.611328 9.9824219 A 0.250025 0.250025 0 0 0 13.611328 9.984375 C 13.711902 10.721893 14.171615 11.361509 14.837891 11.693359 L 19.238281 13.894531 C 19.617082 14.094084 19.939931 14.390713 20.142578 14.751953 A 0.250025 0.250025 0 0 0 20.144531 14.755859 L 20.742188 15.78125 C 21.150427 16.514415 20.702417 17.41196 19.871094 17.511719 A 0.250025 0.250025 0 0 0 19.869141 17.511719 L 18.6875 17.662109 C 18.266398 17.715869 17.83951 17.644449 17.466797 17.449219 A 0.250025 0.250025 0 0 0 17.460938 17.447266 L 4.4023438 10.925781 L 4.4023438 10.927734 C 4.2337093 10.842162 4.0799744 10.728437 3.9472656 10.59375 L 2.2988281 8.9453125 L 4.1230469 4.8398438 L 4.9863281 5.2734375 C 5.4544413 5.5117496 5.75 5.9856284 5.75 6.5 C 5.75 7.2056284 6.1552225 7.8501871 6.7871094 8.171875 A 0.250025 0.250025 0 0 0 6.7890625 8.1738281 L 7.8886719 8.7226562 A 0.250025 0.250025 0 0 0 8.2226562 8.6113281 L 11.111328 2.8359375 z M 2 21.75 A 0.25 0.25 0 0 0 1.75 22 A 0.25 0.25 0 0 0 2 22.25 L 22 22.25 A 0.25 0.25 0 0 0 22.25 22 A 0.25 0.25 0 0 0 22 21.75 L 2 21.75 z " />
</svg>
