<?xml version="1.0" encoding="UTF-8" standalone="no"?>
<svg
   width="24"
   height="24"
   viewBox="0 0 24 24"
   fill="none"
   stroke="currentColor"
   stroke-width="0.5"
   stroke-linecap="round"
   stroke-linejoin="round"
   version="1.1"
   id="svg4"
   sodipodi:docname=".tmp_signal-high.svg"
   xmlns:inkscape="http://www.inkscape.org/namespaces/inkscape"
   xmlns:sodipodi="http://sodipodi.sourceforge.net/DTD/sodipodi-0.dtd"
   xmlns="http://www.w3.org/2000/svg"
   xmlns:svg="http://www.w3.org/2000/svg">
  <defs
     id="defs4" />
  <sodipodi:namedview
     id="namedview4"
     pagecolor="#ffffff"
     bordercolor="#000000"
     borderopacity="0.25"
     inkscape:showpageshadow="2"
     inkscape:pageopacity="0.0"
     inkscape:pagecheckerboard="0"
     inkscape:deskcolor="#d1d1d1" />
  <path
     id="path1"
     style="baseline-shift:baseline;display:inline;overflow:visible;vector-effect:none;fill:#000000;stroke:none;stroke-linecap:butt;stroke-linejoin:miter;enable-background:accumulate;stop-color:#000000;stop-opacity:1;opacity:1"
     d="M 17 7.75 A 0.25 0.25 0 0 0 16.75 8 L 16.75 20 A 0.25 0.25 0 0 0 17 20.25 A 0.25 0.25 0 0 0 17.25 20 L 17.25 8 A 0.25 0.25 0 0 0 17 7.75 z M 12 11.75 A 0.25 0.25 0 0 0 11.75 12 L 11.75 20 A 0.25 0.25 0 0 0 12 20.25 A 0.25 0.25 0 0 0 12.25 20 L 12.25 12 A 0.25 0.25 0 0 0 12 11.75 z M 7 15.75 A 0.25 0.25 0 0 0 6.75 16 L 6.75 20 A 0.25 0.25 0 0 0 7 20.25 A 0.25 0.25 0 0 0 7.25 20 L 7.25 16 A 0.25 0.25 0 0 0 7 15.75 z M 2 19.75 A 0.25 0.25 0 0 0 1.75 20 A 0.25 0.25 0 0 0 2 20.25 L 2.0097656 20.25 A 0.25 0.25 0 0 0 2.2597656 20 A 0.25 0.25 0 0 0 2.0097656 19.75 L 2 19.75 z " />
</svg>
