<?xml version="1.0" encoding="UTF-8" standalone="no"?>
<svg
   width="24"
   height="24"
   viewBox="0 0 24 24"
   fill="none"
   stroke="currentColor"
   stroke-width="0.5"
   stroke-linecap="round"
   stroke-linejoin="round"
   version="1.1"
   id="svg4"
   sodipodi:docname=".tmp_soap-dispenser-droplet.svg"
   xmlns:inkscape="http://www.inkscape.org/namespaces/inkscape"
   xmlns:sodipodi="http://sodipodi.sourceforge.net/DTD/sodipodi-0.dtd"
   xmlns="http://www.w3.org/2000/svg"
   xmlns:svg="http://www.w3.org/2000/svg">
  <defs
     id="defs4" />
  <sodipodi:namedview
     id="namedview4"
     pagecolor="#ffffff"
     bordercolor="#000000"
     borderopacity="0.25"
     inkscape:showpageshadow="2"
     inkscape:pageopacity="0.0"
     inkscape:pagecheckerboard="0"
     inkscape:deskcolor="#d1d1d1" />
  <path
     id="path1"
     style="baseline-shift:baseline;display:inline;overflow:visible;vector-effect:none;fill:#000000;stroke:none;stroke-linecap:butt;stroke-linejoin:miter;enable-background:accumulate;stop-color:#000000;stop-opacity:1;opacity:1"
     d="M 7 1.75 C 5.7603205 1.75 4.75 2.7603205 4.75 4 A 0.25 0.25 0 0 0 5 4.25 A 0.25 0.25 0 0 0 5.25 4 C 5.25 3.0305405 6.0305405 2.25 7 2.25 L 10.25 2.25 L 10.25 5.75 L 9 5.75 C 8.3126052 5.75 7.75 6.3126052 7.75 7 L 7.75 9.75 L 6 9.75 C 4.7603205 9.75 3.75 10.76032 3.75 12 L 3.75 19 C 3.75 20.23968 4.7603205 21.25 6 21.25 L 9.6074219 21.25 A 0.25 0.25 0 0 0 9.8574219 21 A 0.25 0.25 0 0 0 9.6074219 20.75 L 6 20.75 C 5.0305405 20.75 4.25 19.969459 4.25 19 L 4.25 12 C 4.25 11.030541 5.0305405 10.25 6 10.25 L 8 10.25 L 13 10.25 A 0.250025 0.250025 0 0 0 13.25 10 L 13.25 7 C 13.25 6.3126052 12.687395 5.75 12 5.75 L 10.75 5.75 L 10.75 2.25 L 14 2.25 A 0.25 0.25 0 0 0 14.25 2 A 0.25 0.25 0 0 0 14 1.75 L 7 1.75 z M 9 6.25 L 10.5 6.25 L 12 6.25 C 12.417175 6.25 12.75 6.5828253 12.75 7 L 12.75 9.75 L 8.25 9.75 L 8.25 7 C 8.25 6.5828253 8.5828253 6.25 9 6.25 z M 17 10.751953 A 0.250025 0.250025 0 0 0 16.755859 10.949219 C 16.457107 12.371699 15.679576 13.64822 14.552734 14.566406 C 13.357928 15.523189 12.75 16.718872 12.75 17.949219 C 12.75 20.304354 14.661364 22.25 17 22.25 C 19.338636 22.25 21.25 20.304354 21.25 17.949219 C 21.25 16.708143 20.630882 15.533235 19.449219 14.568359 A 0.25 0.25 0 0 0 19.449219 14.566406 C 18.326041 13.644297 17.548102 12.368359 17.244141 10.947266 A 0.250025 0.250025 0 0 0 17 10.751953 z M 17 11.666016 C 17.403169 12.937385 18.092731 14.100796 19.130859 14.953125 A 0.25 0.25 0 0 0 19.132812 14.953125 C 20.229575 15.84789 20.75 16.871115 20.75 17.949219 C 20.75 20.034084 19.061364 21.75 17 21.75 C 14.938636 21.75 13.25 20.034084 13.25 17.949219 C 13.25 16.880378 13.761606 15.837981 14.865234 14.955078 A 0.250025 0.250025 0 0 0 14.867188 14.953125 C 15.909169 14.104094 16.599742 12.939067 17 11.666016 z " />
</svg>
