<?xml version="1.0" encoding="UTF-8" standalone="no"?>
<svg
   width="24"
   height="24"
   viewBox="0 0 24 24"
   fill="none"
   stroke="currentColor"
   stroke-width="0.5"
   stroke-linecap="round"
   stroke-linejoin="round"
   version="1.1"
   id="svg2"
   sodipodi:docname=".tmp_square-stack.svg"
   xmlns:inkscape="http://www.inkscape.org/namespaces/inkscape"
   xmlns:sodipodi="http://sodipodi.sourceforge.net/DTD/sodipodi-0.dtd"
   xmlns="http://www.w3.org/2000/svg"
   xmlns:svg="http://www.w3.org/2000/svg">
  <defs
     id="defs2" />
  <sodipodi:namedview
     id="namedview2"
     pagecolor="#ffffff"
     bordercolor="#000000"
     borderopacity="0.25"
     inkscape:showpageshadow="2"
     inkscape:pageopacity="0.0"
     inkscape:pagecheckerboard="0"
     inkscape:deskcolor="#d1d1d1" />
  <path
     id="path1"
     style="baseline-shift:baseline;display:inline;overflow:visible;vector-effect:none;fill:#000000;stroke:none;stroke-linecap:butt;stroke-linejoin:miter;enable-background:accumulate;stop-color:#000000;stop-opacity:1;opacity:1"
     d="M 4 1.75 C 2.7636364 1.75 1.75 2.7636364 1.75 4 L 1.75 8 C 1.75 9.2363636 2.7636364 10.25 4 10.25 A 0.25 0.25 0 0 0 4.25 10 A 0.25 0.25 0 0 0 4 9.75 C 3.0363636 9.75 2.25 8.9636364 2.25 8 L 2.25 4 C 2.25 3.0363636 3.0363636 2.25 4 2.25 L 8 2.25 C 8.9636364 2.25 9.75 3.0363636 9.75 4 A 0.25 0.25 0 0 0 10 4.25 A 0.25 0.25 0 0 0 10.25 4 C 10.25 2.7636364 9.2363636 1.75 8 1.75 L 4 1.75 z M 10 7.75 C 8.7636364 7.75 7.75 8.7636364 7.75 10 L 7.75 14 C 7.75 15.236364 8.7636364 16.25 10 16.25 A 0.25 0.25 0 0 0 10.25 16 A 0.25 0.25 0 0 0 10 15.75 C 9.0363636 15.75 8.25 14.963636 8.25 14 L 8.25 10 C 8.25 9.0363636 9.0363636 8.25 10 8.25 L 14 8.25 C 14.963636 8.25 15.75 9.0363636 15.75 10 A 0.25 0.25 0 0 0 16 10.25 A 0.25 0.25 0 0 0 16.25 10 C 16.25 8.7636364 15.236364 7.75 14 7.75 L 10 7.75 z M 16 13.75 C 14.757824 13.75 13.75 14.757824 13.75 16 L 13.75 20 C 13.75 21.242176 14.757824 22.25 16 22.25 L 20 22.25 C 21.242176 22.25 22.25 21.242176 22.25 20 L 22.25 16 C 22.25 14.757824 21.242176 13.75 20 13.75 L 16 13.75 z M 16 14.25 L 20 14.25 C 20.973824 14.25 21.75 15.026176 21.75 16 L 21.75 20 C 21.75 20.973824 20.973824 21.75 20 21.75 L 16 21.75 C 15.026176 21.75 14.25 20.973824 14.25 20 L 14.25 16 C 14.25 15.026176 15.026176 14.25 16 14.25 z " />
</svg>
