<?xml version="1.0" encoding="UTF-8" standalone="no"?>
<svg
   width="24"
   height="24"
   viewBox="0 0 24 24"
   fill="none"
   stroke="currentColor"
   stroke-width="0.5"
   stroke-linecap="round"
   stroke-linejoin="round"
   version="1.1"
   id="svg2"
   sodipodi:docname=".tmp_square-round-corner.svg"
   xmlns:inkscape="http://www.inkscape.org/namespaces/inkscape"
   xmlns:sodipodi="http://sodipodi.sourceforge.net/DTD/sodipodi-0.dtd"
   xmlns="http://www.w3.org/2000/svg"
   xmlns:svg="http://www.w3.org/2000/svg">
  <defs
     id="defs2" />
  <sodipodi:namedview
     id="namedview2"
     pagecolor="#ffffff"
     bordercolor="#000000"
     borderopacity="0.25"
     inkscape:showpageshadow="2"
     inkscape:pageopacity="0.0"
     inkscape:pagecheckerboard="0"
     inkscape:deskcolor="#d1d1d1" />
  <path
     id="path1"
     style="baseline-shift:baseline;display:inline;overflow:visible;vector-effect:none;fill:#000000;stroke:none;stroke-linecap:butt;stroke-linejoin:miter;enable-background:accumulate;stop-color:#000000;stop-opacity:1;opacity:1"
     d="M 5 2.75 C 3.7603205 2.75 2.75 3.7603205 2.75 5 L 2.75 19 C 2.75 20.23968 3.7603205 21.25 5 21.25 L 19 21.25 C 20.23968 21.25 21.25 20.23968 21.25 19 L 21.25 15 A 0.25 0.25 0 0 0 21 14.75 A 0.25 0.25 0 0 0 20.75 15 L 20.75 19 C 20.75 19.969459 19.969459 20.75 19 20.75 L 5 20.75 C 4.0305405 20.75 3.25 19.969459 3.25 19 L 3.25 5 C 3.25 4.0305405 4.0305405 3.25 5 3.25 L 9 3.25 A 0.25 0.25 0 0 0 9.25 3 A 0.25 0.25 0 0 0 9 2.75 L 5 2.75 z M 13 2.75 A 0.25 0.25 0 0 0 12.75 3 A 0.25 0.25 0 0 0 13 3.25 C 17.283168 3.25 20.75 6.716832 20.75 11 A 0.25 0.25 0 0 0 21 11.25 A 0.25 0.25 0 0 0 21.25 11 C 21.25 6.446612 17.553388 2.75 13 2.75 z " />
</svg>
