<?xml version="1.0" encoding="UTF-8" standalone="no"?>
<svg
   width="24"
   height="24"
   viewBox="0 0 24 24"
   fill="none"
   stroke="currentColor"
   stroke-width="0.5"
   stroke-linecap="round"
   stroke-linejoin="round"
   version="1.1"
   id="svg1"
   sodipodi:docname=".tmp_square-star.svg"
   xmlns:inkscape="http://www.inkscape.org/namespaces/inkscape"
   xmlns:sodipodi="http://sodipodi.sourceforge.net/DTD/sodipodi-0.dtd"
   xmlns="http://www.w3.org/2000/svg"
   xmlns:svg="http://www.w3.org/2000/svg">
  <defs
     id="defs1" />
  <sodipodi:namedview
     id="namedview1"
     pagecolor="#ffffff"
     bordercolor="#000000"
     borderopacity="0.25"
     inkscape:showpageshadow="2"
     inkscape:pageopacity="0.0"
     inkscape:pagecheckerboard="0"
     inkscape:deskcolor="#d1d1d1" />
  <path
     id="path1"
     style="baseline-shift:baseline;display:inline;overflow:visible;vector-effect:none;fill:#000000;stroke:none;stroke-linecap:butt;stroke-linejoin:miter;enable-background:accumulate;stop-color:#000000;stop-opacity:1;opacity:1"
     d="M 5 2.75 C 3.7578243 2.75 2.75 3.7578243 2.75 5 L 2.75 19 C 2.75 20.242176 3.7578243 21.25 5 21.25 L 19 21.25 C 20.242176 21.25 21.25 20.242176 21.25 19 L 21.25 5 C 21.25 3.7578243 20.242176 2.75 19 2.75 L 5 2.75 z M 5 3.25 L 19 3.25 C 19.973824 3.25 20.75 4.0261757 20.75 5 L 20.75 19 C 20.75 19.973824 19.973824 20.75 19 20.75 L 5 20.75 C 4.0261757 20.75 3.25 19.973824 3.25 19 L 3.25 5 C 3.25 4.0261757 4.0261757 3.25 5 3.25 z M 12.001953 6.75 C 11.507255 6.7437852 10.993629 7.0404853 10.802734 7.5957031 L 10.0625 9.0527344 C 9.9532651 9.2677059 9.7480005 9.4158666 9.5097656 9.453125 L 7.9023438 9.7070312 L 7.9003906 9.7070312 C 7.310421 9.7128373 6.8693934 10.108406 6.7207031 10.582031 C 6.572666 11.053577 6.7059891 11.628175 7.1816406 11.970703 L 8.3222656 13.109375 C 8.4931565 13.279514 8.5711437 13.519671 8.5332031 13.757812 L 8.2792969 15.353516 L 8.2773438 15.355469 C 8.0968494 15.912125 8.328917 16.45335 8.7265625 16.746094 C 9.12627 17.040355 9.7179991 17.099513 10.197266 16.755859 L 11.640625 16.015625 C 11.855569 15.905494 12.109275 15.905494 12.324219 16.015625 L 13.769531 16.753906 C 14.249444 17.101811 14.840932 17.045238 15.242188 16.75 C 15.644189 16.454172 15.876858 15.902624 15.685547 15.339844 L 15.433594 13.757812 C 15.395654 13.519671 15.473644 13.277561 15.644531 13.107422 L 16.802734 11.953125 C 17.264529 11.603803 17.387881 11.035796 17.236328 10.570312 C 17.084266 10.103263 16.648254 9.7150131 16.066406 9.7070312 L 16.064453 9.7070312 L 14.457031 9.453125 C 14.218796 9.4158666 14.013527 9.2677062 13.904297 9.0527344 L 13.177734 7.6269531 C 13.002106 7.0644122 12.497909 6.7562352 12.001953 6.75 z M 11.996094 7.25 C 12.30383 7.25387 12.595612 7.4183196 12.705078 7.7851562 A 0.250025 0.250025 0 0 0 12.720703 7.828125 L 13.458984 9.2792969 C 13.640743 9.637009 13.982484 9.8852678 14.378906 9.9472656 L 16.013672 10.203125 A 0.250025 0.250025 0 0 0 16.050781 10.207031 C 16.42654 10.208531 16.667675 10.435761 16.761719 10.724609 C 16.855759 11.013457 16.795059 11.338132 16.492188 11.560547 A 0.250025 0.250025 0 0 0 16.462891 11.585938 L 15.291016 12.753906 C 15.006654 13.037016 14.87632 13.439671 14.939453 13.835938 L 15.197266 15.449219 A 0.250025 0.250025 0 0 0 15.208984 15.492188 C 15.337268 15.856172 15.196544 16.162261 14.947266 16.345703 C 14.697984 16.529146 14.362095 16.57453 14.052734 16.34375 A 0.250025 0.250025 0 0 0 14.017578 16.322266 L 12.552734 15.572266 C 12.195072 15.38901 11.769772 15.38901 11.412109 15.572266 L 9.9472656 16.322266 A 0.250025 0.250025 0 0 0 9.9140625 16.34375 C 9.6051339 16.572263 9.2719288 16.526687 9.0234375 16.34375 C 8.7749871 16.160866 8.6333288 15.857002 8.7597656 15.494141 A 0.250025 0.250025 0 0 0 8.7695312 15.451172 L 9.0273438 13.837891 C 9.0903737 13.44227 8.9591808 13.038898 8.6757812 12.755859 L 8.6757812 12.753906 L 7.5195312 11.601562 A 0.250025 0.250025 0 0 0 7.4863281 11.574219 C 7.1713261 11.355982 7.1050171 11.026262 7.1972656 10.732422 C 7.2895141 10.438581 7.5308511 10.206067 7.9140625 10.207031 A 0.250025 0.250025 0 0 0 7.953125 10.203125 L 9.5859375 9.9472656 C 9.9823594 9.8852678 10.326054 9.637009 10.507812 9.2792969 L 11.257812 7.8027344 A 0.250025 0.250025 0 0 0 11.273438 7.7675781 C 11.392086 7.403609 11.688357 7.2461311 11.996094 7.25 z " />
</svg>
