<?xml version="1.0" encoding="UTF-8" standalone="no"?>
<svg
   width="24"
   height="24"
   viewBox="0 0 24 24"
   fill="none"
   stroke="currentColor"
   stroke-width="0.5"
   stroke-linecap="round"
   stroke-linejoin="round"
   version="1.1"
   id="svg9"
   sodipodi:docname=".tmp_triangle-dashed.svg"
   xmlns:inkscape="http://www.inkscape.org/namespaces/inkscape"
   xmlns:sodipodi="http://sodipodi.sourceforge.net/DTD/sodipodi-0.dtd"
   xmlns="http://www.w3.org/2000/svg"
   xmlns:svg="http://www.w3.org/2000/svg">
  <defs
     id="defs9" />
  <sodipodi:namedview
     id="namedview9"
     pagecolor="#ffffff"
     bordercolor="#000000"
     borderopacity="0.25"
     inkscape:showpageshadow="2"
     inkscape:pageopacity="0.0"
     inkscape:pagecheckerboard="0"
     inkscape:deskcolor="#d1d1d1" />
  <path
     id="path1"
     style="baseline-shift:baseline;display:inline;overflow:visible;vector-effect:none;fill:#000000;stroke:none;stroke-linecap:butt;stroke-linejoin:miter;enable-background:accumulate;stop-color:#000000;stop-opacity:1;opacity:1"
     d="M 12.007812 2.75 C 11.176037 2.7470504 10.333439 3.2022127 9.9414062 4.0917969 A 0.25 0.25 0 0 0 10.068359 4.421875 A 0.25 0.25 0 0 0 10.398438 4.2929688 C 10.71039 3.5850966 11.35379 3.2476877 12.005859 3.25 C 12.657929 3.25231 13.300497 3.5946207 13.607422 4.3046875 A 0.25 0.25 0 0 0 13.935547 4.4355469 A 0.25 0.25 0 0 0 14.066406 4.1074219 C 13.680693 3.2150798 12.839586 2.7529496 12.007812 2.75 z M 8.1015625 7.4941406 A 0.25 0.25 0 0 0 7.8847656 7.6171875 L 6.8847656 9.3496094 A 0.25 0.25 0 0 0 6.9765625 9.6914062 A 0.25 0.25 0 0 0 7.3183594 9.5996094 L 8.3183594 7.8671875 A 0.25 0.25 0 0 0 8.2265625 7.5273438 A 0.25 0.25 0 0 0 8.1015625 7.4941406 z M 15.873047 7.4941406 A 0.25 0.25 0 0 0 15.748047 7.5273438 A 0.25 0.25 0 0 0 15.658203 7.8671875 L 16.658203 9.5996094 A 0.25 0.25 0 0 0 16.998047 9.6914062 A 0.25 0.25 0 0 0 17.089844 9.3496094 L 16.089844 7.6171875 A 0.25 0.25 0 0 0 15.873047 7.4941406 z M 5.1367188 12.703125 A 0.25 0.25 0 0 0 4.9199219 12.826172 L 3.9199219 14.558594 A 0.25 0.25 0 0 0 4.0117188 14.900391 A 0.25 0.25 0 0 0 4.3515625 14.808594 L 5.3515625 13.076172 A 0.25 0.25 0 0 0 5.2617188 12.736328 A 0.25 0.25 0 0 0 5.1367188 12.703125 z M 18.849609 12.703125 A 0.25 0.25 0 0 0 18.724609 12.736328 A 0.25 0.25 0 0 0 18.632812 13.076172 L 19.632812 14.808594 A 0.25 0.25 0 0 0 19.974609 14.900391 A 0.25 0.25 0 0 0 20.066406 14.558594 L 19.066406 12.826172 A 0.25 0.25 0 0 0 18.849609 12.703125 z M 2.1621094 17.912109 A 0.25 0.25 0 0 0 1.9589844 18.056641 C 1.2691751 19.549018 2.383369 21.269362 4.0273438 21.25 A 0.25 0.25 0 0 0 4.2734375 20.996094 A 0.25 0.25 0 0 0 4.0214844 20.75 C 2.7250814 20.76527 1.8681407 19.442482 2.4121094 18.265625 A 0.25 0.25 0 0 0 2.2890625 17.933594 A 0.25 0.25 0 0 0 2.1621094 17.912109 z M 21.816406 17.929688 A 0.25 0.25 0 0 0 21.720703 17.953125 A 0.25 0.25 0 0 0 21.595703 18.283203 C 22.125448 19.454724 21.275934 20.762039 19.990234 20.753906 A 0.25 0.25 0 0 0 19.738281 21.001953 A 0.25 0.25 0 0 0 19.988281 21.253906 C 21.619239 21.264226 22.724735 19.562289 22.052734 18.076172 A 0.25 0.25 0 0 0 21.816406 17.929688 z M 8 20.75 A 0.25 0.25 0 0 0 7.75 21 A 0.25 0.25 0 0 0 8 21.25 L 10 21.25 A 0.25 0.25 0 0 0 10.25 21 A 0.25 0.25 0 0 0 10 20.75 L 8 20.75 z M 14 20.75 A 0.25 0.25 0 0 0 13.75 21 A 0.25 0.25 0 0 0 14 21.25 L 16 21.25 A 0.25 0.25 0 0 0 16.25 21 A 0.25 0.25 0 0 0 16 20.75 L 14 20.75 z " />
</svg>
