<?xml version="1.0" encoding="UTF-8" standalone="no"?>
<svg
   width="24"
   height="24"
   viewBox="0 0 24 24"
   fill="none"
   stroke="currentColor"
   stroke-width="0.5"
   stroke-linecap="round"
   stroke-linejoin="round"
   version="1.1"
   id="svg2"
   sodipodi:docname=".tmp_user-lock.svg"
   xmlns:inkscape="http://www.inkscape.org/namespaces/inkscape"
   xmlns:sodipodi="http://sodipodi.sourceforge.net/DTD/sodipodi-0.dtd"
   xmlns="http://www.w3.org/2000/svg"
   xmlns:svg="http://www.w3.org/2000/svg">
  <defs
     id="defs2" />
  <sodipodi:namedview
     id="namedview2"
     pagecolor="#ffffff"
     bordercolor="#000000"
     borderopacity="0.25"
     inkscape:showpageshadow="2"
     inkscape:pageopacity="0.0"
     inkscape:pagecheckerboard="0"
     inkscape:deskcolor="#d1d1d1" />
  <path
     id="circle1"
     style="baseline-shift:baseline;display:inline;overflow:visible;vector-effect:none;fill:#000000;stroke:none;stroke-linecap:butt;stroke-linejoin:miter;enable-background:accumulate;stop-color:#000000;stop-opacity:1;opacity:1"
     d="M 10 2.75 C 7.655751 2.75 5.75 4.655751 5.75 7 C 5.75 9.344249 7.655751 11.25 10 11.25 C 12.344249 11.25 14.25 9.344249 14.25 7 C 14.25 4.655751 12.344249 2.75 10 2.75 z M 10 3.25 C 12.074029 3.25 13.75 4.925971 13.75 7 C 13.75 9.074029 12.074029 10.75 10 10.75 C 7.925971 10.75 6.25 9.074029 6.25 7 C 6.25 4.925971 7.925971 3.25 10 3.25 z M 17 11.75 C 16.444444 11.75 15.88553 11.933349 15.458984 12.3125 C 15.032439 12.691651 14.75 13.270834 14.75 14 L 14.75 15.5 A 0.25 0.25 0 0 0 15 15.75 A 0.25 0.25 0 0 0 15.25 15.5 L 15.25 14 C 15.25 13.395834 15.467561 12.975015 15.791016 12.6875 C 16.11447 12.399985 16.555556 12.25 17 12.25 C 17.444444 12.25 17.88553 12.399985 18.208984 12.6875 C 18.532439 12.975015 18.75 13.395834 18.75 14 L 18.75 15.5 A 0.25 0.25 0 0 0 19 15.75 A 0.25 0.25 0 0 0 19.25 15.5 L 19.25 14 C 19.25 13.270834 18.967561 12.691651 18.541016 12.3125 C 18.11447 11.933349 17.555556 11.75 17 11.75 z M 19 15.75 L 15 15.75 L 13.898438 15.75 C 13.266215 15.75 12.75 16.266216 12.75 16.898438 L 12.75 20.101562 C 12.75 20.733784 13.266216 21.25 13.898438 21.25 L 20.101562 21.25 C 20.733784 21.25 21.25 20.733784 21.25 20.101562 L 21.25 16.898438 C 21.25 16.266216 20.733784 15.75 20.101562 15.75 L 19 15.75 z M 7 14.75 C 4.655751 14.75 2.75 16.655751 2.75 19 L 2.75 21 A 0.25 0.25 0 0 0 3 21.25 A 0.25 0.25 0 0 0 3.25 21 L 3.25 19 C 3.25 16.925971 4.925971 15.25 7 15.25 L 10.300781 15.25 A 0.25 0.25 0 0 0 10.550781 15 A 0.25 0.25 0 0 0 10.300781 14.75 L 7 14.75 z M 13.898438 16.25 L 20.101562 16.25 C 20.465433 16.25 20.75 16.534567 20.75 16.898438 L 20.75 20.101562 C 20.75 20.465433 20.465433 20.75 20.101562 20.75 L 13.898438 20.75 C 13.534566 20.75 13.25 20.465433 13.25 20.101562 L 13.25 16.898438 C 13.25 16.534567 13.534566 16.25 13.898438 16.25 z " />
</svg>
