<?xml version="1.0" encoding="UTF-8" standalone="no"?>
<svg
   width="24"
   height="24"
   viewBox="0 0 24 24"
   fill="none"
   stroke="currentColor"
   stroke-width="0.5"
   stroke-linecap="round"
   stroke-linejoin="round"
   version="1.1"
   id="svg2"
   sodipodi:docname=".tmp_user-pen.svg"
   xmlns:inkscape="http://www.inkscape.org/namespaces/inkscape"
   xmlns:sodipodi="http://sodipodi.sourceforge.net/DTD/sodipodi-0.dtd"
   xmlns="http://www.w3.org/2000/svg"
   xmlns:svg="http://www.w3.org/2000/svg">
  <defs
     id="defs2" />
  <sodipodi:namedview
     id="namedview2"
     pagecolor="#ffffff"
     bordercolor="#000000"
     borderopacity="0.25"
     inkscape:showpageshadow="2"
     inkscape:pageopacity="0.0"
     inkscape:pagecheckerboard="0"
     inkscape:deskcolor="#d1d1d1" />
  <path
     id="path1"
     style="baseline-shift:baseline;display:inline;overflow:visible;vector-effect:none;fill:#000000;stroke:none;stroke-linecap:butt;stroke-linejoin:miter;enable-background:accumulate;stop-color:#000000;stop-opacity:1;opacity:1"
     d="M 10 2.75 C 7.655751 2.75 5.75 4.655751 5.75 7 C 5.75 9.344249 7.655751 11.25 10 11.25 C 12.344249 11.25 14.25 9.344249 14.25 7 C 14.25 4.655751 12.344249 2.75 10 2.75 z M 10 3.25 C 12.074029 3.25 13.75 4.925971 13.75 7 C 13.75 9.074029 12.074029 10.75 10 10.75 C 7.925971 10.75 6.25 9.074029 6.25 7 C 6.25 4.925971 7.925971 3.25 10 3.25 z M 19.757812 12.712891 C 19.225094 12.738956 18.674018 12.968559 18.197266 13.445312 L 14.1875 17.457031 C 13.920036 17.724348 13.723182 18.05498 13.617188 18.417969 L 12.78125 21.287109 C 12.619184 21.842765 13.155282 22.380816 13.710938 22.21875 L 16.580078 21.380859 A 0.250025 0.250025 0 0 0 16.582031 21.380859 C 16.94502 21.274864 17.273698 21.079964 17.541016 20.8125 L 21.554688 16.802734 C 22.099549 16.257874 22.320498 15.61643 22.285156 15.015625 C 22.249816 14.41482 21.969471 13.860095 21.554688 13.445312 C 21.139905 13.030529 20.58518 12.750185 19.984375 12.714844 C 19.909274 12.710426 19.833915 12.709167 19.757812 12.712891 z M 19.78125 13.212891 C 19.839717 13.210375 19.897189 13.211438 19.955078 13.214844 C 20.41819 13.242084 20.864956 13.462612 21.201172 13.798828 C 21.537388 14.135044 21.757914 14.58181 21.785156 15.044922 C 21.812396 15.508034 21.657644 15.992746 21.201172 16.449219 L 17.1875 20.458984 C 16.979574 20.667025 16.723748 20.817945 16.441406 20.900391 L 13.570312 21.738281 C 13.36807 21.797271 13.202732 21.629976 13.261719 21.427734 L 14.097656 18.558594 C 14.180106 18.276252 14.332975 18.018473 14.541016 17.810547 L 18.550781 13.798828 C 18.950194 13.399415 19.371983 13.230502 19.78125 13.212891 z M 7 14.75 C 4.655751 14.75 2.75 16.655751 2.75 19 L 2.75 21 A 0.25 0.25 0 0 0 3 21.25 A 0.25 0.25 0 0 0 3.25 21 L 3.25 19 C 3.25 16.925971 4.925971 15.25 7 15.25 L 11.5 15.25 A 0.25 0.25 0 0 0 11.75 15 A 0.25 0.25 0 0 0 11.5 14.75 L 7 14.75 z " />
</svg>
