<?xml version="1.0" encoding="UTF-8" standalone="no"?>
<svg
   width="24"
   height="24"
   viewBox="0 0 24 24"
   fill="none"
   stroke="currentColor"
   stroke-width="0.5"
   stroke-linecap="round"
   stroke-linejoin="round"
   version="1.1"
   id="svg4"
   sodipodi:docname=".tmp_zap-off.svg"
   xmlns:inkscape="http://www.inkscape.org/namespaces/inkscape"
   xmlns:sodipodi="http://sodipodi.sourceforge.net/DTD/sodipodi-0.dtd"
   xmlns="http://www.w3.org/2000/svg"
   xmlns:svg="http://www.w3.org/2000/svg">
  <defs
     id="defs4" />
  <sodipodi:namedview
     id="namedview4"
     pagecolor="#ffffff"
     bordercolor="#000000"
     borderopacity="0.25"
     inkscape:showpageshadow="2"
     inkscape:pageopacity="0.0"
     inkscape:pagecheckerboard="0"
     inkscape:deskcolor="#d1d1d1" />
  <path
     id="path1"
     style="baseline-shift:baseline;display:inline;overflow:visible;vector-effect:none;fill:#000000;stroke:none;stroke-linecap:butt;stroke-linejoin:miter;enable-background:accumulate;stop-color:#000000;stop-opacity:1;opacity:1"
     d="M 2 1.7480469 A 0.25 0.25 0 0 0 1.8222656 1.8222656 A 0.25 0.25 0 0 0 1.8222656 2.1777344 L 7.375 7.7304688 L 3.0410156 12.195312 A 0.250025 0.250025 0 0 0 3.0253906 12.212891 C 2.3721498 13.01812 2.9631253 14.253535 4 14.25 L 11 14.25 C 11.532434 14.2483 11.891434 14.76296 11.705078 15.261719 A 0.250025 0.250025 0 0 0 11.701172 15.273438 L 9.78125 21.294922 A 0.250025 0.250025 0 0 0 9.7792969 21.302734 C 9.6787274 21.668366 9.8703694 22.015329 10.148438 22.164062 C 10.426505 22.312797 10.820055 22.280751 11.068359 21.994141 L 16.275391 16.630859 L 21.822266 22.177734 A 0.25 0.25 0 0 0 22.177734 22.177734 A 0.25 0.25 0 0 0 22.177734 21.822266 L 16.447266 16.09375 L 7.9003906 7.546875 L 2.1777344 1.8222656 A 0.25 0.25 0 0 0 2 1.7480469 z M 13.503906 1.7480469 C 13.298897 1.7463135 13.086831 1.8267276 12.931641 2.0058594 L 10.333984 4.6816406 A 0.25 0.25 0 0 0 10.339844 5.0351562 A 0.25 0.25 0 0 0 10.693359 5.0292969 L 13.298828 2.34375 A 0.250025 0.250025 0 0 0 13.308594 2.3339844 C 13.409 2.2180878 13.51517 2.2238215 13.615234 2.2773438 C 13.715298 2.3308658 13.778948 2.4166029 13.738281 2.5644531 L 12.365234 6.8710938 A 0.25 0.25 0 0 0 12.527344 7.1855469 A 0.25 0.25 0 0 0 12.841797 7.0234375 L 14.21875 2.7050781 A 0.250025 0.250025 0 0 0 14.220703 2.6972656 C 14.321273 2.3316339 14.129632 1.9846713 13.851562 1.8359375 C 13.747287 1.7801623 13.626912 1.7490869 13.503906 1.7480469 z M 7.7285156 8.0839844 L 15.921875 16.277344 L 10.701172 21.65625 A 0.250025 0.250025 0 0 0 10.691406 21.666016 C 10.591 21.781912 10.48483 21.776179 10.384766 21.722656 C 10.284702 21.669136 10.221052 21.583397 10.261719 21.435547 L 12.173828 15.4375 C 12.476836 14.626534 11.86572 13.747184 11 13.75 L 4 13.75 C 3.3511189 13.7522 3.0070659 13.03373 3.4140625 12.529297 L 3.4140625 12.527344 L 7.7285156 8.0839844 z M 15.65625 9.75 A 0.25 0.25 0 0 0 15.40625 10 A 0.25 0.25 0 0 0 15.65625 10.25 L 20 10.25 C 20.648102 10.2478 20.990644 10.964411 20.585938 11.46875 L 18.880859 13.228516 A 0.25 0.25 0 0 0 18.886719 13.582031 A 0.25 0.25 0 0 0 19.240234 13.576172 L 20.958984 11.804688 A 0.250025 0.250025 0 0 0 20.974609 11.787109 C 21.627805 10.98192 21.036875 9.7464647 20 9.75 L 15.65625 9.75 z " />
</svg>
