<?xml version="1.0" encoding="UTF-8" standalone="no"?>
<svg
   width="24"
   height="24"
   viewBox="0 0 24 24"
   fill="none"
   stroke="currentColor"
   stroke-width="0.75"
   stroke-linecap="round"
   stroke-linejoin="round"
   version="1.1"
   id="svg5"
   sodipodi:docname=".tmp_alarm-smoke.svg"
   xmlns:inkscape="http://www.inkscape.org/namespaces/inkscape"
   xmlns:sodipodi="http://sodipodi.sourceforge.net/DTD/sodipodi-0.dtd"
   xmlns="http://www.w3.org/2000/svg"
   xmlns:svg="http://www.w3.org/2000/svg">
  <defs
     id="defs5" />
  <sodipodi:namedview
     id="namedview5"
     pagecolor="#ffffff"
     bordercolor="#000000"
     borderopacity="0.25"
     inkscape:showpageshadow="2"
     inkscape:pageopacity="0.0"
     inkscape:pagecheckerboard="0"
     inkscape:deskcolor="#d1d1d1" />
  <path
     id="path1"
     style="baseline-shift:baseline;display:inline;overflow:visible;vector-effect:none;fill:#000000;stroke:none;stroke-linecap:butt;stroke-linejoin:miter;enable-background:accumulate;stop-color:#000000;stop-opacity:1;opacity:1"
     d="M 3 2.625 C 2.2450502 2.625 1.625 3.2450502 1.625 4 L 1.625 6 C 1.625 7.3072345 2.6927655 8.375 4 8.375 L 4.7109375 8.375 L 5.4316406 11.074219 C 5.5831139 11.817045 6.2342243 12.359962 6.9921875 12.375 A 0.3750375 0.3750375 0 0 0 7 12.375 L 17 12.375 A 0.3750375 0.3750375 0 0 0 17.007812 12.375 C 17.765777 12.35996 18.416886 11.817045 18.568359 11.074219 L 19.289062 8.375 L 20 8.375 C 21.307235 8.375 22.375 7.3072345 22.375 6 L 22.375 4 C 22.375 3.2450502 21.75495 2.625 21 2.625 L 3 2.625 z M 3 3.375 L 21 3.375 C 21.34962 3.375 21.625 3.6503803 21.625 4 L 21.625 6 C 21.625 6.9019045 20.901904 7.625 20 7.625 L 4 7.625 C 3.0980955 7.625 2.375 6.9019045 2.375 6 L 2.375 4 C 2.375 3.6503803 2.6503803 3.375 3 3.375 z M 5.4882812 8.375 L 18.511719 8.375 L 17.837891 10.904297 A 0.3750375 0.3750375 0 0 0 17.832031 10.925781 C 17.749821 11.328942 17.403565 11.616838 16.992188 11.625 L 7.0078125 11.625 C 6.5964361 11.616842 6.2501793 11.328942 6.1679688 10.925781 A 0.3750375 0.3750375 0 0 0 6.1621094 10.904297 L 5.4882812 8.375 z M 8 15.625 A 0.375 0.375 0 0 0 7.625 16 C 7.625 17.15 7.2070314 17.640625 6.7070312 18.265625 C 6.2070312 18.890625 5.625 19.65 5.625 21 A 0.375 0.375 0 0 0 6 21.375 A 0.375 0.375 0 0 0 6.375 21 C 6.375 19.85 6.7929687 19.359375 7.2929688 18.734375 C 7.7929688 18.109375 8.375 17.35 8.375 16 A 0.375 0.375 0 0 0 8 15.625 z M 13 15.625 A 0.375 0.375 0 0 0 12.625 16 C 12.625 17.15 12.207031 17.640625 11.707031 18.265625 C 11.207031 18.890625 10.625 19.65 10.625 21 A 0.375 0.375 0 0 0 11 21.375 A 0.375 0.375 0 0 0 11.375 21 C 11.375 19.85 11.792969 19.359375 12.292969 18.734375 C 12.792969 18.109375 13.375 17.35 13.375 16 A 0.375 0.375 0 0 0 13 15.625 z M 18 15.625 A 0.375 0.375 0 0 0 17.625 16 C 17.625 17.15 17.207031 17.640625 16.707031 18.265625 C 16.207031 18.890625 15.625 19.65 15.625 21 A 0.375 0.375 0 0 0 16 21.375 A 0.375 0.375 0 0 0 16.375 21 C 16.375 19.85 16.792969 19.359375 17.292969 18.734375 C 17.792969 18.109375 18.375 17.35 18.375 16 A 0.375 0.375 0 0 0 18 15.625 z " />
</svg>
