<?xml version="1.0" encoding="UTF-8" standalone="no"?>
<svg
   width="24"
   height="24"
   viewBox="0 0 24 24"
   fill="none"
   stroke="currentColor"
   stroke-width="0.75"
   stroke-linecap="round"
   stroke-linejoin="round"
   version="1.1"
   id="svg2"
   sodipodi:docname=".tmp_align-horizontal-justify-start.svg"
   xmlns:inkscape="http://www.inkscape.org/namespaces/inkscape"
   xmlns:sodipodi="http://sodipodi.sourceforge.net/DTD/sodipodi-0.dtd"
   xmlns="http://www.w3.org/2000/svg"
   xmlns:svg="http://www.w3.org/2000/svg">
  <defs
     id="defs2" />
  <sodipodi:namedview
     id="namedview2"
     pagecolor="#ffffff"
     bordercolor="#000000"
     borderopacity="0.25"
     inkscape:showpageshadow="2"
     inkscape:pageopacity="0.0"
     inkscape:pagecheckerboard="0"
     inkscape:deskcolor="#d1d1d1" />
  <path
     id="rect1"
     style="baseline-shift:baseline;display:inline;overflow:visible;vector-effect:none;fill:#000000;stroke:none;stroke-linecap:butt;stroke-linejoin:miter;enable-background:accumulate;stop-color:#000000;stop-opacity:1;opacity:1"
     d="M 2 1.625 A 0.375 0.375 0 0 0 1.625 2 L 1.625 22 A 0.375 0.375 0 0 0 2 22.375 A 0.375 0.375 0 0 0 2.375 22 L 2.375 2 A 0.375 0.375 0 0 0 2 1.625 z M 8 4.625 C 6.6907365 4.625 5.625 5.6907365 5.625 7 L 5.625 17 C 5.625 18.309264 6.6907365 19.375 8 19.375 L 10 19.375 C 11.309264 19.375 12.375 18.309264 12.375 17 L 12.375 7 C 12.375 5.6907365 11.309264 4.625 10 4.625 L 8 4.625 z M 8 5.375 L 10 5.375 C 10.906736 5.375 11.625 6.0932635 11.625 7 L 11.625 17 C 11.625 17.906736 10.906736 18.625 10 18.625 L 8 18.625 C 7.0932635 18.625 6.375 17.906736 6.375 17 L 6.375 7 C 6.375 6.0932635 7.0932635 5.375 8 5.375 z M 18 6.625 C 16.690736 6.625 15.625 7.6907365 15.625 9 L 15.625 15 C 15.625 16.309264 16.690736 17.375 18 17.375 L 20 17.375 C 21.309264 17.375 22.375 16.309264 22.375 15 L 22.375 9 C 22.375 7.6907365 21.309264 6.625 20 6.625 L 18 6.625 z M 18 7.375 L 20 7.375 C 20.906736 7.375 21.625 8.0932635 21.625 9 L 21.625 15 C 21.625 15.906736 20.906736 16.625 20 16.625 L 18 16.625 C 17.093264 16.625 16.375 15.906736 16.375 15 L 16.375 9 C 16.375 8.0932635 17.093264 7.375 18 7.375 z " />
</svg>
