<?xml version="1.0" encoding="UTF-8" standalone="no"?>
<svg
   width="24"
   height="24"
   viewBox="0 0 24 24"
   fill="none"
   stroke="currentColor"
   stroke-width="0.75"
   stroke-linecap="round"
   stroke-linejoin="round"
   version="1.1"
   id="svg2"
   sodipodi:docname=".tmp_align-end-vertical.svg"
   xmlns:inkscape="http://www.inkscape.org/namespaces/inkscape"
   xmlns:sodipodi="http://sodipodi.sourceforge.net/DTD/sodipodi-0.dtd"
   xmlns="http://www.w3.org/2000/svg"
   xmlns:svg="http://www.w3.org/2000/svg">
  <defs
     id="defs2" />
  <sodipodi:namedview
     id="namedview2"
     pagecolor="#ffffff"
     bordercolor="#000000"
     borderopacity="0.25"
     inkscape:showpageshadow="2"
     inkscape:pageopacity="0.0"
     inkscape:pagecheckerboard="0"
     inkscape:deskcolor="#d1d1d1" />
  <path
     id="rect1"
     style="baseline-shift:baseline;display:inline;overflow:visible;vector-effect:none;fill:#000000;stroke:none;stroke-linecap:butt;stroke-linejoin:miter;enable-background:accumulate;stop-color:#000000;stop-opacity:1;opacity:1"
     d="M 22 1.625 A 0.375 0.375 0 0 0 21.625 2 L 21.625 22 A 0.375 0.375 0 0 0 22 22.375 A 0.375 0.375 0 0 0 22.375 22 L 22.375 2 A 0.375 0.375 0 0 0 22 1.625 z M 4 3.625 C 2.6907365 3.625 1.625 4.6907365 1.625 6 L 1.625 8 C 1.625 9.3092635 2.6907365 10.375 4 10.375 L 16 10.375 C 17.309264 10.375 18.375 9.3092635 18.375 8 L 18.375 6 C 18.375 4.6907365 17.309264 3.625 16 3.625 L 4 3.625 z M 4 4.375 L 16 4.375 C 16.906736 4.375 17.625 5.0932635 17.625 6 L 17.625 8 C 17.625 8.9067365 16.906736 9.625 16 9.625 L 4 9.625 C 3.0932635 9.625 2.375 8.9067365 2.375 8 L 2.375 6 C 2.375 5.0932635 3.0932635 4.375 4 4.375 z M 11 13.625 C 9.6907365 13.625 8.625 14.690736 8.625 16 L 8.625 18 C 8.625 19.309264 9.6907365 20.375 11 20.375 L 16 20.375 C 17.309264 20.375 18.375 19.309264 18.375 18 L 18.375 16 C 18.375 14.690736 17.309264 13.625 16 13.625 L 11 13.625 z M 11 14.375 L 16 14.375 C 16.906736 14.375 17.625 15.093264 17.625 16 L 17.625 18 C 17.625 18.906736 16.906736 19.625 16 19.625 L 11 19.625 C 10.093264 19.625 9.375 18.906736 9.375 18 L 9.375 16 C 9.375 15.093264 10.093264 14.375 11 14.375 z " />
</svg>
