<?xml version="1.0" encoding="UTF-8" standalone="no"?>
<svg
   width="24"
   height="24"
   viewBox="0 0 24 24"
   fill="none"
   stroke="currentColor"
   stroke-width="0.75"
   stroke-linecap="round"
   stroke-linejoin="round"
   version="1.1"
   id="svg2"
   sodipodi:docname=".tmp_ampersand.svg"
   xmlns:inkscape="http://www.inkscape.org/namespaces/inkscape"
   xmlns:sodipodi="http://sodipodi.sourceforge.net/DTD/sodipodi-0.dtd"
   xmlns="http://www.w3.org/2000/svg"
   xmlns:svg="http://www.w3.org/2000/svg">
  <defs
     id="defs2" />
  <sodipodi:namedview
     id="namedview2"
     pagecolor="#ffffff"
     bordercolor="#000000"
     borderopacity="0.25"
     inkscape:showpageshadow="2"
     inkscape:pageopacity="0.0"
     inkscape:pagecheckerboard="0"
     inkscape:deskcolor="#d1d1d1" />
  <path
     id="path1"
     style="baseline-shift:baseline;display:inline;overflow:visible;vector-effect:none;fill:#000000;stroke:none;stroke-linecap:butt;stroke-linejoin:miter;enable-background:accumulate;stop-color:#000000;stop-opacity:1;opacity:1"
     d="M 10 3.625 C 9.1666667 3.625 8.3273182 3.9000229 7.6875 4.46875 C 7.0476818 5.0374771 6.625 5.9062504 6.625 7 C 6.625 8.0712577 7.0943165 9.4550034 7.8417969 10.929688 C 7.1950109 11.241519 6.5135694 11.495033 5.9882812 12.003906 C 5.1745985 12.792161 4.625 13.916667 4.625 15.5 C 4.625 18.187946 6.8120536 20.375 9.5 20.375 C 11.672278 20.375 13.620598 19.487216 15.113281 18.117188 C 16.289426 18.866253 17.339446 19.629129 18.839844 20.339844 A 0.375 0.375 0 0 0 19.339844 20.160156 A 0.375 0.375 0 0 0 19.160156 19.660156 C 17.738412 18.986699 16.764978 18.270851 15.648438 17.566406 C 16.917185 16.165486 17.769804 14.375792 17.865234 12.375 L 19 12.375 A 0.375 0.375 0 0 0 19.375 12 A 0.375 0.375 0 0 0 19 11.625 L 17.5 11.625 L 16 11.625 A 0.375 0.375 0 0 0 15.625 12 A 0.375 0.375 0 0 0 16 12.375 L 17.115234 12.375 C 17.020389 14.237829 16.224145 15.910629 15.019531 17.191406 C 11.909303 15.126052 9.9550945 13.077158 8.859375 11.195312 C 8.9640399 11.151236 9.0348262 11.078137 9.140625 11.035156 C 10.131306 10.632692 11.154611 10.272662 11.96875 9.6875 C 12.782889 9.1023379 13.375 8.2361111 13.375 7 C 13.375 5.9062504 12.952318 5.0374771 12.3125 4.46875 C 11.672682 3.9000229 10.833333 3.625 10 3.625 z M 10 4.375 C 10.666667 4.375 11.327318 4.5999775 11.8125 5.03125 C 12.297682 5.4625225 12.625 6.0937505 12.625 7 C 12.625 8.0138889 12.217111 8.5851621 11.53125 9.078125 C 10.845389 9.5710879 9.868694 9.9298077 8.859375 10.339844 C 8.7289553 10.392827 8.6193681 10.499268 8.4882812 10.554688 C 7.8007224 9.1877878 7.375 7.9232966 7.375 7 C 7.375 6.0937505 7.7023182 5.4625225 8.1875 5.03125 C 8.6726818 4.5999775 9.3333333 4.375 10 4.375 z M 8.2109375 11.568359 C 9.3514978 13.528124 11.322008 15.61958 14.417969 17.703125 C 13.080927 18.857049 11.395022 19.625 9.5 19.625 C 7.2173837 19.625 5.375 17.782616 5.375 15.5 C 5.375 14.083333 5.8254015 13.207839 6.5117188 12.542969 C 6.9553288 12.113222 7.6062702 11.860953 8.2109375 11.568359 z " />
</svg>
