<?xml version="1.0" encoding="UTF-8" standalone="no"?>
<svg
   width="24"
   height="24"
   viewBox="0 0 24 24"
   fill="none"
   stroke="currentColor"
   stroke-width="0.75"
   stroke-linecap="round"
   stroke-linejoin="round"
   version="1.1"
   id="svg1"
   sodipodi:docname=".tmp_award.svg"
   xmlns:inkscape="http://www.inkscape.org/namespaces/inkscape"
   xmlns:sodipodi="http://sodipodi.sourceforge.net/DTD/sodipodi-0.dtd"
   xmlns="http://www.w3.org/2000/svg"
   xmlns:svg="http://www.w3.org/2000/svg">
  <defs
     id="defs1" />
  <sodipodi:namedview
     id="namedview1"
     pagecolor="#ffffff"
     bordercolor="#000000"
     borderopacity="0.25"
     inkscape:showpageshadow="2"
     inkscape:pageopacity="0.0"
     inkscape:pagecheckerboard="0"
     inkscape:deskcolor="#d1d1d1" />
  <path
     id="path1"
     style="baseline-shift:baseline;display:inline;overflow:visible;vector-effect:none;fill:#000000;stroke:none;stroke-linecap:butt;stroke-linejoin:miter;enable-background:accumulate;stop-color:#000000;stop-opacity:1;opacity:1"
     d="M 12 1.625 C 8.4836265 1.625 5.625 4.4836265 5.625 8 C 5.625 10.054692 6.6003199 11.884328 8.1132812 13.050781 L 6.640625 21.349609 A 0.3750375 0.3750375 0 0 0 6.6386719 21.353516 C 6.5752949 21.733931 6.7762831 22.089005 7.0644531 22.255859 C 7.3526231 22.422713 7.7582706 22.420135 8.0566406 22.175781 L 11.628906 19.5 C 11.852062 19.333286 12.153798 19.333286 12.376953 19.5 L 12.376953 19.498047 L 15.943359 22.175781 C 16.242003 22.420608 16.649183 22.423152 16.9375 22.255859 C 17.225817 22.088564 17.425685 21.734287 17.361328 21.353516 A 0.3750375 0.3750375 0 0 0 17.361328 21.349609 L 15.886719 13.050781 C 17.399651 11.884326 18.375 10.054669 18.375 8 C 18.375 4.4836265 15.516374 1.625 12 1.625 z M 12 2.375 C 15.111043 2.375 17.625 4.8889565 17.625 8 C 17.625 9.8817878 16.70442 11.545748 15.289062 12.566406 A 0.375 0.375 0 0 0 15.230469 12.607422 C 14.316711 13.248744 13.203356 13.625 12 13.625 C 10.796543 13.625 9.6833318 13.248842 8.7695312 12.607422 A 0.375 0.375 0 0 0 8.7109375 12.566406 C 7.2954319 11.545765 6.375 9.8819036 6.375 8 C 6.375 4.8889565 8.8889565 2.375 12 2.375 z M 8.7949219 13.509766 C 9.7371756 14.059976 10.831909 14.375 12 14.375 C 13.168132 14.375 14.262802 14.060012 15.205078 13.509766 L 16.623047 21.480469 C 16.634607 21.553349 16.6085 21.580731 16.5625 21.607422 C 16.51592 21.634452 16.47873 21.643913 16.419922 21.595703 A 0.3750375 0.3750375 0 0 0 16.40625 21.585938 L 12.826172 18.898438 C 12.339441 18.534813 11.666418 18.534813 11.179688 18.898438 L 7.59375 21.583984 A 0.3750375 0.3750375 0 0 0 7.5820312 21.595703 C 7.5233453 21.643763 7.4859802 21.632379 7.4394531 21.605469 C 7.3935091 21.578869 7.3675612 21.553179 7.3789062 21.480469 L 7.3789062 21.478516 L 8.7949219 13.509766 z " />
</svg>
