<?xml version="1.0" encoding="UTF-8" standalone="no"?>
<svg
   width="24"
   height="24"
   viewBox="0 0 24 24"
   fill="none"
   stroke="currentColor"
   stroke-width="0.75"
   stroke-linecap="round"
   stroke-linejoin="round"
   version="1.1"
   id="svg2"
   sodipodi:docname=".tmp_beef.svg"
   xmlns:inkscape="http://www.inkscape.org/namespaces/inkscape"
   xmlns:sodipodi="http://sodipodi.sourceforge.net/DTD/sodipodi-0.dtd"
   xmlns="http://www.w3.org/2000/svg"
   xmlns:svg="http://www.w3.org/2000/svg">
  <defs
     id="defs2" />
  <sodipodi:namedview
     id="namedview2"
     pagecolor="#ffffff"
     bordercolor="#000000"
     borderopacity="0.25"
     inkscape:showpageshadow="2"
     inkscape:pageopacity="0.0"
     inkscape:pagecheckerboard="0"
     inkscape:deskcolor="#d1d1d1" />
  <path
     id="path1"
     style="baseline-shift:baseline;display:inline;overflow:visible;vector-effect:none;fill:#000000;stroke:none;stroke-linecap:butt;stroke-linejoin:miter;enable-background:accumulate;stop-color:#000000;stop-opacity:1;opacity:1"
     d="M 12.785156 1.6347656 C 9.8064645 1.5190931 6.8817427 3.3567391 5.921875 6.4902344 C 5.3699805 8.0639036 5.1678649 9.0472057 4.8320312 9.8515625 C 4.4961496 10.656034 4.0289335 11.328149 2.8613281 12.390625 C 2.8586115 12.392852 2.8562228 12.394252 2.8535156 12.396484 C 2.851672 12.39816 2.8495034 12.400666 2.8476562 12.402344 C 1.6497022 13.394811 1.3833658 14.900377 1.8242188 16.134766 C 1.8858564 16.307351 1.9618992 16.475475 2.0507812 16.636719 A 0.375 0.375 0 0 0 2.0644531 16.667969 L 3.984375 20.507812 C 4.55461 21.650031 5.7233529 22.373254 7 22.375 C 11.106008 22.375 15.554956 20.552426 18.625 18 L 18.626953 17.998047 C 20.981385 16.241851 21.955424 13.178211 21.046875 10.384766 A 0.3750375 0.3750375 0 0 0 21.027344 10.335938 L 18.837891 5.8359375 A 0.375 0.375 0 0 0 18.810547 5.7890625 C 18.332318 4.6641991 17.542619 3.6462196 16.443359 2.875 C 15.489479 2.2057759 14.439498 1.8183905 13.380859 1.6835938 C 13.182365 1.6583194 12.983736 1.6424771 12.785156 1.6347656 z M 12.748047 2.375 C 12.924942 2.382222 13.102397 2.3970143 13.279297 2.4199219 C 14.222765 2.5420958 15.159659 2.8910749 16.013672 3.4902344 C 17.000715 4.1827249 17.708638 5.0926358 18.136719 6.0976562 A 0.375 0.375 0 0 0 18.162109 6.1640625 L 18.177734 6.1953125 C 19.174085 8.6508682 18.515121 11.640862 16.173828 13.400391 A 0.375 0.375 0 0 0 16.171875 13.414062 A 0.375 0.375 0 0 0 16.160156 13.412109 C 13.230729 15.853386 8.8875 17.625 5 17.625 C 3.9482622 17.624299 3.1659949 17.082796 2.7363281 16.332031 A 0.375 0.375 0 0 0 2.7148438 16.292969 C 2.6424868 16.161702 2.5799128 16.024537 2.5292969 15.882812 C 2.1815567 14.90914 2.3698814 13.764303 3.3378906 12.970703 A 0.3750375 0.3750375 0 0 0 3.3515625 12.957031 C 4.5739681 11.846677 5.1456217 11.045534 5.5234375 10.140625 C 5.9012533 9.2357164 6.0897731 8.2698032 6.6328125 6.7246094 A 0.3750375 0.3750375 0 0 0 6.6386719 6.7089844 C 7.4980456 3.9035505 10.094613 2.2666701 12.748047 2.375 z M 12.5 5.625 C 10.916623 5.625 9.625 6.9166231 9.625 8.5 C 9.625 10.083377 10.916623 11.375 12.5 11.375 C 14.083377 11.375 15.375 10.083377 15.375 8.5 C 15.375 6.9166231 14.083377 5.625 12.5 5.625 z M 12.5 6.375 C 13.678047 6.375 14.625 7.3219532 14.625 8.5 C 14.625 9.6780468 13.678047 10.625 12.5 10.625 C 11.321953 10.625 10.375 9.6780468 10.375 8.5 C 10.375 7.3219532 11.321953 6.375 12.5 6.375 z M 19.359375 8.6230469 L 20.335938 10.628906 C 21.13867 13.116416 20.272437 15.835859 18.175781 17.398438 A 0.3750375 0.3750375 0 0 0 18.160156 17.412109 C 15.230686 19.85334 10.8875 21.625 7 21.625 C 6.0056489 21.62364 5.100393 21.061523 4.65625 20.171875 L 3.6132812 18.083984 C 4.0264709 18.268894 4.4918544 18.374662 5 18.375 C 9.1054744 18.375 13.553043 16.551905 16.623047 14 A 0.375 0.375 0 0 0 16.625 14 L 16.626953 13.998047 C 16.631153 13.994547 16.636455 13.991781 16.640625 13.988281 A 0.375 0.375 0 0 0 16.640625 13.980469 C 18.420404 12.632506 19.323754 10.633172 19.359375 8.6230469 z " />
</svg>
