<?xml version="1.0" encoding="UTF-8" standalone="no"?>
<svg
   width="24"
   height="24"
   viewBox="0 0 24 24"
   fill="none"
   stroke="currentColor"
   stroke-width="0.75"
   stroke-linecap="round"
   stroke-linejoin="round"
   version="1.1"
   id="svg5"
   sodipodi:docname=".tmp_bot.svg"
   xmlns:inkscape="http://www.inkscape.org/namespaces/inkscape"
   xmlns:sodipodi="http://sodipodi.sourceforge.net/DTD/sodipodi-0.dtd"
   xmlns="http://www.w3.org/2000/svg"
   xmlns:svg="http://www.w3.org/2000/svg">
  <defs
     id="defs5" />
  <sodipodi:namedview
     id="namedview5"
     pagecolor="#ffffff"
     bordercolor="#000000"
     borderopacity="0.25"
     inkscape:showpageshadow="2"
     inkscape:pageopacity="0.0"
     inkscape:pagecheckerboard="0"
     inkscape:deskcolor="#d1d1d1" />
  <path
     id="path1"
     style="baseline-shift:baseline;display:inline;overflow:visible;vector-effect:none;fill:#000000;stroke:none;stroke-linecap:butt;stroke-linejoin:miter;enable-background:accumulate;stop-color:#000000;stop-opacity:1;opacity:1"
     d="M 8 3.625 A 0.375 0.375 0 0 0 7.625 4 A 0.375 0.375 0 0 0 8 4.375 L 11.625 4.375 L 11.625 7.625 L 6 7.625 C 4.6907365 7.625 3.625 8.6907365 3.625 10 L 3.625 13.625 L 2 13.625 A 0.375 0.375 0 0 0 1.625 14 A 0.375 0.375 0 0 0 2 14.375 L 3.625 14.375 L 3.625 18 C 3.625 19.309264 4.6907365 20.375 6 20.375 L 18 20.375 C 19.309264 20.375 20.375 19.309264 20.375 18 L 20.375 14.375 L 22 14.375 A 0.375 0.375 0 0 0 22.375 14 A 0.375 0.375 0 0 0 22 13.625 L 20.375 13.625 L 20.375 10 C 20.375 8.6907365 19.309264 7.625 18 7.625 L 12.375 7.625 L 12.375 4 A 0.3750375 0.3750375 0 0 0 12 3.625 L 8 3.625 z M 6 8.375 L 18 8.375 C 18.906736 8.375 19.625 9.0932635 19.625 10 L 19.625 18 C 19.625 18.906736 18.906736 19.625 18 19.625 L 6 19.625 C 5.0932635 19.625 4.375 18.906736 4.375 18 L 4.375 10 C 4.375 9.0932635 5.0932635 8.375 6 8.375 z M 9 12.625 A 0.375 0.375 0 0 0 8.625 13 L 8.625 15 A 0.375 0.375 0 0 0 9 15.375 A 0.375 0.375 0 0 0 9.375 15 L 9.375 13 A 0.375 0.375 0 0 0 9 12.625 z M 15 12.625 A 0.375 0.375 0 0 0 14.625 13 L 14.625 15 A 0.375 0.375 0 0 0 15 15.375 A 0.375 0.375 0 0 0 15.375 15 L 15.375 13 A 0.375 0.375 0 0 0 15 12.625 z " />
</svg>
