<?xml version="1.0" encoding="UTF-8" standalone="no"?>
<svg
   width="24"
   height="24"
   viewBox="0 0 24 24"
   fill="none"
   stroke="currentColor"
   stroke-width="0.75"
   stroke-linecap="round"
   stroke-linejoin="round"
   version="1.1"
   id="svg2"
   sodipodi:docname=".tmp_brackets.svg"
   xmlns:inkscape="http://www.inkscape.org/namespaces/inkscape"
   xmlns:sodipodi="http://sodipodi.sourceforge.net/DTD/sodipodi-0.dtd"
   xmlns="http://www.w3.org/2000/svg"
   xmlns:svg="http://www.w3.org/2000/svg">
  <defs
     id="defs2" />
  <sodipodi:namedview
     id="namedview2"
     pagecolor="#ffffff"
     bordercolor="#000000"
     borderopacity="0.25"
     inkscape:showpageshadow="2"
     inkscape:pageopacity="0.0"
     inkscape:pagecheckerboard="0"
     inkscape:deskcolor="#d1d1d1" />
  <path
     id="path1"
     style="baseline-shift:baseline;display:inline;overflow:visible;vector-effect:none;fill:#000000;stroke:none;stroke-linecap:butt;stroke-linejoin:miter;enable-background:accumulate;stop-color:#000000;stop-opacity:1;opacity:1"
     d="M 5 2.625 C 4.2450502 2.625 3.625 3.2450502 3.625 4 L 3.625 20 C 3.625 20.75495 4.2450502 21.375 5 21.375 L 8 21.375 A 0.375 0.375 0 0 0 8.375 21 A 0.375 0.375 0 0 0 8 20.625 L 5 20.625 C 4.6503803 20.625 4.375 20.34962 4.375 20 L 4.375 4 C 4.375 3.6503803 4.6503803 3.375 5 3.375 L 8 3.375 A 0.375 0.375 0 0 0 8.375 3 A 0.375 0.375 0 0 0 8 2.625 L 5 2.625 z M 16 2.625 A 0.375 0.375 0 0 0 15.625 3 A 0.375 0.375 0 0 0 16 3.375 L 19 3.375 C 19.34962 3.375 19.625 3.6503803 19.625 4 L 19.625 20 C 19.625 20.34962 19.34962 20.625 19 20.625 L 16 20.625 A 0.375 0.375 0 0 0 15.625 21 A 0.375 0.375 0 0 0 16 21.375 L 19 21.375 C 19.75495 21.375 20.375 20.75495 20.375 20 L 20.375 4 C 20.375 3.2450502 19.75495 2.625 19 2.625 L 16 2.625 z " />
</svg>
