<?xml version="1.0" encoding="UTF-8" standalone="no"?>
<svg
   width="24"
   height="24"
   viewBox="0 0 24 24"
   fill="none"
   stroke="currentColor"
   stroke-width="0.75"
   stroke-linecap="round"
   stroke-linejoin="round"
   version="1.1"
   id="svg10"
   sodipodi:docname=".tmp_building.svg"
   xmlns:inkscape="http://www.inkscape.org/namespaces/inkscape"
   xmlns:sodipodi="http://sodipodi.sourceforge.net/DTD/sodipodi-0.dtd"
   xmlns="http://www.w3.org/2000/svg"
   xmlns:svg="http://www.w3.org/2000/svg">
  <defs
     id="defs10" />
  <sodipodi:namedview
     id="namedview10"
     pagecolor="#ffffff"
     bordercolor="#000000"
     borderopacity="0.25"
     inkscape:showpageshadow="2"
     inkscape:pageopacity="0.0"
     inkscape:pagecheckerboard="0"
     inkscape:deskcolor="#d1d1d1" />
  <path
     id="path1"
     style="baseline-shift:baseline;display:inline;overflow:visible;vector-effect:none;fill:#000000;stroke:none;stroke-linecap:butt;stroke-linejoin:miter;enable-background:accumulate;stop-color:#000000;stop-opacity:1;opacity:1"
     d="M 6 1.625 C 4.6907365 1.625 3.625 2.6907365 3.625 4 L 3.625 20 C 3.625 21.309264 4.6907365 22.375 6 22.375 L 9 22.375 L 15 22.375 L 18 22.375 C 19.309264 22.375 20.375 21.309264 20.375 20 L 20.375 4 C 20.375 2.6907365 19.309264 1.625 18 1.625 L 6 1.625 z M 6 2.375 L 18 2.375 C 18.906736 2.375 19.625 3.0932635 19.625 4 L 19.625 20 C 19.625 20.906736 18.906736 21.625 18 21.625 L 15.375 21.625 L 15.375 19 C 15.375 18.24505 14.75495 17.625 14 17.625 L 10 17.625 C 9.2450502 17.625 8.625 18.24505 8.625 19 L 8.625 21.625 L 6 21.625 C 5.0932635 21.625 4.375 20.906736 4.375 20 L 4.375 4 C 4.375 3.0932635 5.0932635 2.375 6 2.375 z M 8 5.625 A 0.375 0.375 0 0 0 7.625 6 A 0.375 0.375 0 0 0 8 6.375 L 8.0097656 6.375 A 0.375 0.375 0 0 0 8.3847656 6 A 0.375 0.375 0 0 0 8.0097656 5.625 L 8 5.625 z M 12 5.625 A 0.375 0.375 0 0 0 11.625 6 A 0.375 0.375 0 0 0 12 6.375 L 12.009766 6.375 A 0.375 0.375 0 0 0 12.384766 6 A 0.375 0.375 0 0 0 12.009766 5.625 L 12 5.625 z M 16 5.625 A 0.375 0.375 0 0 0 15.625 6 A 0.375 0.375 0 0 0 16 6.375 L 16.009766 6.375 A 0.375 0.375 0 0 0 16.384766 6 A 0.375 0.375 0 0 0 16.009766 5.625 L 16 5.625 z M 8 9.625 A 0.375 0.375 0 0 0 7.625 10 A 0.375 0.375 0 0 0 8 10.375 L 8.0097656 10.375 A 0.375 0.375 0 0 0 8.3847656 10 A 0.375 0.375 0 0 0 8.0097656 9.625 L 8 9.625 z M 12 9.625 A 0.375 0.375 0 0 0 11.625 10 A 0.375 0.375 0 0 0 12 10.375 L 12.009766 10.375 A 0.375 0.375 0 0 0 12.384766 10 A 0.375 0.375 0 0 0 12.009766 9.625 L 12 9.625 z M 16 9.625 A 0.375 0.375 0 0 0 15.625 10 A 0.375 0.375 0 0 0 16 10.375 L 16.009766 10.375 A 0.375 0.375 0 0 0 16.384766 10 A 0.375 0.375 0 0 0 16.009766 9.625 L 16 9.625 z M 8 13.625 A 0.375 0.375 0 0 0 7.625 14 A 0.375 0.375 0 0 0 8 14.375 L 8.0097656 14.375 A 0.375 0.375 0 0 0 8.3847656 14 A 0.375 0.375 0 0 0 8.0097656 13.625 L 8 13.625 z M 12 13.625 A 0.375 0.375 0 0 0 11.625 14 A 0.375 0.375 0 0 0 12 14.375 L 12.009766 14.375 A 0.375 0.375 0 0 0 12.384766 14 A 0.375 0.375 0 0 0 12.009766 13.625 L 12 13.625 z M 16 13.625 A 0.375 0.375 0 0 0 15.625 14 A 0.375 0.375 0 0 0 16 14.375 L 16.009766 14.375 A 0.375 0.375 0 0 0 16.384766 14 A 0.375 0.375 0 0 0 16.009766 13.625 L 16 13.625 z M 10 18.375 L 14 18.375 C 14.34962 18.375 14.625 18.65038 14.625 19 L 14.625 21.625 L 9.375 21.625 L 9.375 19 C 9.375 18.65038 9.6503803 18.375 10 18.375 z " />
</svg>
