<?xml version="1.0" encoding="UTF-8" standalone="no"?>
<svg
   width="24"
   height="24"
   viewBox="0 0 24 24"
   fill="none"
   stroke="currentColor"
   stroke-width="0.75"
   stroke-linecap="round"
   stroke-linejoin="round"
   version="1.1"
   id="svg5"
   sodipodi:docname=".tmp_bus.svg"
   xmlns:inkscape="http://www.inkscape.org/namespaces/inkscape"
   xmlns:sodipodi="http://sodipodi.sourceforge.net/DTD/sodipodi-0.dtd"
   xmlns="http://www.w3.org/2000/svg"
   xmlns:svg="http://www.w3.org/2000/svg">
  <defs
     id="defs5" />
  <sodipodi:namedview
     id="namedview5"
     pagecolor="#ffffff"
     bordercolor="#000000"
     borderopacity="0.25"
     inkscape:showpageshadow="2"
     inkscape:pageopacity="0.0"
     inkscape:pagecheckerboard="0"
     inkscape:deskcolor="#d1d1d1" />
  <path
     id="path1"
     style="baseline-shift:baseline;display:inline;overflow:visible;vector-effect:none;fill:#000000;stroke:none;stroke-linecap:butt;stroke-linejoin:miter;enable-background:accumulate;stop-color:#000000;stop-opacity:1;opacity:1"
     d="M 4 5.625 C 2.6927655 5.625 1.625 6.6927655 1.625 8 L 1.625 18 A 0.3750375 0.3750375 0 0 0 2 18.375 L 4.6542969 18.375 C 4.8352011 19.505417 5.8203012 20.375 7 20.375 C 8.1796988 20.375 9.1647989 19.505417 9.3457031 18.375 L 13.654297 18.375 C 13.835201 19.505417 14.820301 20.375 16 20.375 C 17.179699 20.375 18.164799 19.505417 18.345703 18.375 L 21 18.375 A 0.3750375 0.3750375 0 0 0 21.359375 18.105469 C 21.359375 18.105469 21.860085 16.406249 22.162109 15.298828 A 0.3750375 0.3750375 0 0 0 22.164062 15.291016 C 22.264017 14.891004 22.375 14.4625 22.375 14 C 22.375 13.5375 22.264062 13.108984 22.164062 12.708984 A 0.3750375 0.3750375 0 0 0 22.160156 12.699219 L 21.972656 12.03125 A 0.375 0.375 0 0 0 21.972656 12.029297 A 0.375 0.375 0 0 0 21.974609 12 A 0.375 0.375 0 0 0 21.902344 11.779297 L 20.761719 7.6992188 A 0.3750375 0.3750375 0 0 0 20.759766 7.6914062 C 20.409724 6.5244433 19.281818 5.625 18 5.625 L 4 5.625 z M 4 6.375 L 7.625 6.375 L 7.625 11.625 L 2.375 11.625 L 2.375 8 C 2.375 7.0980955 3.0980955 6.375 4 6.375 z M 8.375 6.375 L 14.625 6.375 L 14.625 11.625 L 8.375 11.625 L 8.375 6.375 z M 15.375 6.375 L 18 6.375 C 18.918182 6.375 19.791104 7.0751637 20.041016 7.9082031 L 21.082031 11.625 L 15.375 11.625 L 15.375 6.375 z M 2.375 12.375 L 21.291016 12.375 L 21.435547 12.890625 C 21.535547 13.290625 21.625 13.6625 21.625 14 C 21.625 14.3375 21.53555 14.709375 21.435547 15.109375 C 21.166128 16.096582 20.797784 17.348935 20.716797 17.625 L 18.345703 17.625 C 18.164799 16.494583 17.179699 15.625 16 15.625 C 14.820301 15.625 13.835201 16.494583 13.654297 17.625 L 9.3457031 17.625 C 9.1647989 16.494583 8.1796988 15.625 7 15.625 C 5.8203012 15.625 4.8352011 16.494583 4.6542969 17.625 L 2.375 17.625 L 2.375 12.375 z M 7 16.375 C 7.9019045 16.375 8.625 17.098096 8.625 18 C 8.625 18.901904 7.9019045 19.625 7 19.625 C 6.0980955 19.625 5.375 18.901904 5.375 18 C 5.375 17.098096 6.0980955 16.375 7 16.375 z M 16 16.375 C 16.901904 16.375 17.625 17.098096 17.625 18 C 17.625 18.901904 16.901904 19.625 16 19.625 C 15.098096 19.625 14.375 18.901904 14.375 18 C 14.375 17.098096 15.098096 16.375 16 16.375 z " />
</svg>
