<?xml version="1.0" encoding="UTF-8" standalone="no"?>
<svg
   width="24"
   height="24"
   viewBox="0 0 24 24"
   fill="none"
   stroke="currentColor"
   stroke-width="0.75"
   stroke-linecap="round"
   stroke-linejoin="round"
   version="1.1"
   id="svg3"
   sodipodi:docname=".tmp_cast.svg"
   xmlns:inkscape="http://www.inkscape.org/namespaces/inkscape"
   xmlns:sodipodi="http://sodipodi.sourceforge.net/DTD/sodipodi-0.dtd"
   xmlns="http://www.w3.org/2000/svg"
   xmlns:svg="http://www.w3.org/2000/svg">
  <defs
     id="defs3" />
  <sodipodi:namedview
     id="namedview3"
     pagecolor="#ffffff"
     bordercolor="#000000"
     borderopacity="0.25"
     inkscape:showpageshadow="2"
     inkscape:pageopacity="0.0"
     inkscape:pagecheckerboard="0"
     inkscape:deskcolor="#d1d1d1" />
  <path
     id="path1"
     style="baseline-shift:baseline;display:inline;overflow:visible;vector-effect:none;fill:#000000;stroke:none;stroke-linecap:butt;stroke-linejoin:miter;enable-background:accumulate;stop-color:#000000;stop-opacity:1;opacity:1"
     d="M 4 3.625 C 2.6927655 3.625 1.625 4.6927655 1.625 6 L 1.625 8 A 0.375 0.375 0 0 0 2 8.375 A 0.375 0.375 0 0 0 2.375 8 L 2.375 6 C 2.375 5.0980955 3.0980955 4.375 4 4.375 L 20 4.375 C 20.901904 4.375 21.625 5.0980955 21.625 6 L 21.625 18 C 21.625 18.901904 20.901904 19.625 20 19.625 L 14 19.625 A 0.375 0.375 0 0 0 13.625 20 A 0.375 0.375 0 0 0 14 20.375 L 20 20.375 C 21.307235 20.375 22.375 19.307235 22.375 18 L 22.375 6 C 22.375 4.6927655 21.307235 3.625 20 3.625 L 4 3.625 z M 1.9902344 11.625 A 0.375 0.375 0 0 0 1.6269531 11.960938 A 0.375 0.375 0 0 0 1.9609375 12.373047 C 6.0062695 12.802338 9.1976624 15.99373 9.6269531 20.039062 A 0.375 0.375 0 0 0 10.039062 20.373047 A 0.375 0.375 0 0 0 10.373047 19.960938 C 9.906907 15.568367 6.4316333 12.093093 2.0390625 11.626953 A 0.375 0.375 0 0 0 1.9902344 11.625 z M 1.9707031 15.625 A 0.375 0.375 0 0 0 1.6308594 15.931641 A 0.375 0.375 0 0 0 1.9316406 16.369141 C 3.8123384 16.719409 5.2805914 18.187662 5.6308594 20.068359 A 0.375 0.375 0 0 0 6.0683594 20.369141 A 0.375 0.375 0 0 0 6.3691406 19.931641 C 5.9625444 17.748498 4.2515015 16.037456 2.0683594 15.630859 A 0.375 0.375 0 0 0 1.9707031 15.625 z M 2 19.625 A 0.375 0.375 0 0 0 1.625 20 A 0.375 0.375 0 0 0 2 20.375 L 2.0097656 20.375 A 0.375 0.375 0 0 0 2.3847656 20 A 0.375 0.375 0 0 0 2.0097656 19.625 L 2 19.625 z " />
</svg>
