<?xml version="1.0" encoding="UTF-8" standalone="no"?>
<svg
   width="24"
   height="24"
   viewBox="0 0 24 24"
   fill="none"
   stroke="currentColor"
   stroke-width="0.75"
   stroke-linecap="round"
   stroke-linejoin="round"
   version="1.1"
   id="svg2"
   sodipodi:docname=".tmp_chart-pie.svg"
   xmlns:inkscape="http://www.inkscape.org/namespaces/inkscape"
   xmlns:sodipodi="http://sodipodi.sourceforge.net/DTD/sodipodi-0.dtd"
   xmlns="http://www.w3.org/2000/svg"
   xmlns:svg="http://www.w3.org/2000/svg">
  <defs
     id="defs2" />
  <sodipodi:namedview
     id="namedview2"
     pagecolor="#ffffff"
     bordercolor="#000000"
     borderopacity="0.25"
     inkscape:showpageshadow="2"
     inkscape:pageopacity="0.0"
     inkscape:pagecheckerboard="0"
     inkscape:deskcolor="#d1d1d1" />
  <path
     id="path1"
     style="baseline-shift:baseline;display:inline;overflow:visible;vector-effect:none;fill:#000000;stroke:none;stroke-linecap:butt;stroke-linejoin:miter;enable-background:accumulate;stop-color:#000000;stop-opacity:1;opacity:1"
     d="M 12.892578 1.671875 C 12.185488 1.6819918 11.623047 2.2942358 11.623047 3.0019531 L 11.623047 11.001953 C 11.623047 11.756903 12.243097 12.376953 12.998047 12.376953 A 0.3750375 0.3750375 0 0 0 13 12.376953 L 21 12.375 C 21.755351 12.375 22.399646 11.73724 22.322266 10.964844 C 21.829336 6.0561884 17.943921 2.1695674 13.035156 1.6777344 C 12.986849 1.6729036 12.939717 1.6712005 12.892578 1.671875 z M 12.898438 2.421875 C 12.9183 2.4216695 12.938542 2.4217839 12.958984 2.4238281 C 17.517263 2.8805441 21.118438 6.480886 21.576172 11.039062 C 21.60879 11.364665 21.348649 11.625 21 11.625 L 12.998047 11.626953 C 12.648427 11.626953 12.373047 11.351573 12.373047 11.001953 L 12.373047 3.0019531 C 12.373047 2.6746706 12.600494 2.4249576 12.898438 2.421875 z M 7.9921875 2.4550781 A 0.375 0.375 0 0 0 7.8496094 2.4863281 C 1.1375118 5.4153763 -0.50274899 14.224355 4.7050781 19.373047 C 9.9129053 24.521739 18.702479 22.780264 21.554688 16.035156 A 0.375 0.375 0 0 0 21.355469 15.544922 A 0.375 0.375 0 0 0 20.865234 15.744141 C 18.209615 22.024341 10.081297 23.633659 5.2324219 18.839844 C 0.38354704 14.046028 1.9009253 5.9009912 8.1503906 3.1738281 A 0.375 0.375 0 0 0 8.34375 2.6796875 A 0.375 0.375 0 0 0 7.9921875 2.4550781 z " />
</svg>
