<?xml version="1.0" encoding="UTF-8" standalone="no"?>
<svg
   width="24"
   height="24"
   viewBox="0 0 24 24"
   fill="none"
   stroke="currentColor"
   stroke-width="0.75"
   stroke-linecap="round"
   stroke-linejoin="round"
   version="1.1"
   id="svg2"
   sodipodi:docname=".tmp_closed-caption.svg"
   xmlns:inkscape="http://www.inkscape.org/namespaces/inkscape"
   xmlns:sodipodi="http://sodipodi.sourceforge.net/DTD/sodipodi-0.dtd"
   xmlns="http://www.w3.org/2000/svg"
   xmlns:svg="http://www.w3.org/2000/svg">
  <defs
     id="defs2" />
  <sodipodi:namedview
     id="namedview2"
     pagecolor="#ffffff"
     bordercolor="#000000"
     borderopacity="0.25"
     inkscape:showpageshadow="2"
     inkscape:pageopacity="0.0"
     inkscape:pagecheckerboard="0"
     inkscape:deskcolor="#d1d1d1" />
  <path
     id="path1"
     style="baseline-shift:baseline;display:inline;overflow:visible;vector-effect:none;fill:#000000;stroke:none;stroke-linecap:butt;stroke-linejoin:miter;enable-background:accumulate;stop-color:#000000;stop-opacity:1;opacity:1"
     d="M 4 4.625 C 2.6907365 4.625 1.625 5.6907365 1.625 7 L 1.625 17 C 1.625 18.309264 2.6907365 19.375 4 19.375 L 20 19.375 C 21.309264 19.375 22.375 18.309264 22.375 17 L 22.375 7 C 22.375 5.6907365 21.309264 4.625 20 4.625 L 4 4.625 z M 4 5.375 L 20 5.375 C 20.906736 5.375 21.625 6.0932635 21.625 7 L 21.625 17 C 21.625 17.906736 20.906736 18.625 20 18.625 L 4 18.625 C 3.0932635 18.625 2.375 17.906736 2.375 17 L 2.375 7 C 2.375 6.0932635 3.0932635 5.375 4 5.375 z M 8.8984375 8.6269531 C 8.7642049 8.631502 8.6309493 8.6436751 8.5 8.6640625 C 6.9286081 8.9087118 5.6289064 10.263297 5.6289062 12 C 5.6289064 14.315604 7.940597 15.952025 10.125 15.183594 A 0.375 0.375 0 0 0 10.353516 14.705078 A 0.375 0.375 0 0 0 9.875 14.476562 C 8.1567088 15.081024 6.3789062 13.821495 6.3789062 12 C 6.3789063 10.178505 8.1567088 8.9189754 9.875 9.5234375 A 0.375 0.375 0 0 0 10.353516 9.2949219 A 0.375 0.375 0 0 0 10.125 8.8164062 C 9.7154244 8.6723253 9.3011354 8.6133066 8.8984375 8.6269531 z M 15.898438 8.6269531 C 15.764205 8.631502 15.630949 8.6436751 15.5 8.6640625 C 13.928608 8.9087118 12.628906 10.263297 12.628906 12 C 12.628906 14.315604 14.940597 15.952025 17.125 15.183594 A 0.375 0.375 0 0 0 17.353516 14.705078 A 0.375 0.375 0 0 0 16.875 14.476562 C 15.156709 15.081024 13.378906 13.821495 13.378906 12 C 13.378906 10.178505 15.156709 8.9189754 16.875 9.5234375 A 0.375 0.375 0 0 0 17.353516 9.2949219 A 0.375 0.375 0 0 0 17.125 8.8164062 C 16.715424 8.6723253 16.301135 8.6133066 15.898438 8.6269531 z " />
</svg>
