<?xml version="1.0" encoding="UTF-8" standalone="no"?>
<svg
   width="24"
   height="24"
   viewBox="0 0 24 24"
   fill="none"
   stroke="currentColor"
   stroke-width="0.75"
   stroke-linecap="round"
   stroke-linejoin="round"
   version="1.1"
   id="svg6"
   sodipodi:docname=".tmp_cloud-sun.svg"
   xmlns:inkscape="http://www.inkscape.org/namespaces/inkscape"
   xmlns:sodipodi="http://sodipodi.sourceforge.net/DTD/sodipodi-0.dtd"
   xmlns="http://www.w3.org/2000/svg"
   xmlns:svg="http://www.w3.org/2000/svg">
  <defs
     id="defs6" />
  <sodipodi:namedview
     id="namedview6"
     pagecolor="#ffffff"
     bordercolor="#000000"
     borderopacity="0.25"
     inkscape:showpageshadow="2"
     inkscape:pageopacity="0.0"
     inkscape:pagecheckerboard="0"
     inkscape:deskcolor="#d1d1d1" />
  <path
     id="path1"
     style="baseline-shift:baseline;display:inline;overflow:visible;vector-effect:none;fill:#000000;stroke:none;stroke-linecap:butt;stroke-linejoin:miter;enable-background:accumulate;stop-color:#000000;stop-opacity:1;opacity:1"
     d="M 12 1.625 A 0.375 0.375 0 0 0 11.625 2 L 11.625 4 A 0.375 0.375 0 0 0 12 4.375 A 0.375 0.375 0 0 0 12.375 4 L 12.375 2 A 0.375 0.375 0 0 0 12 1.625 z M 4.9296875 4.5546875 A 0.375 0.375 0 0 0 4.6640625 4.6640625 A 0.375 0.375 0 0 0 4.6640625 5.1953125 L 6.0742188 6.6054688 A 0.375 0.375 0 0 0 6.6054688 6.6054688 A 0.375 0.375 0 0 0 6.6054688 6.0742188 L 5.1953125 4.6640625 A 0.375 0.375 0 0 0 4.9296875 4.5546875 z M 19.070312 4.5546875 A 0.375 0.375 0 0 0 18.804688 4.6640625 L 17.394531 6.0742188 A 0.375 0.375 0 0 0 17.394531 6.6054688 A 0.375 0.375 0 0 0 17.925781 6.6054688 L 19.335938 5.1953125 A 0.375 0.375 0 0 0 19.335938 4.6640625 A 0.375 0.375 0 0 0 19.070312 4.5546875 z M 11.666016 7.6308594 C 11.053709 7.6756897 10.431653 7.8562983 9.8359375 8.1953125 A 0.375 0.375 0 0 0 9.6953125 8.7070312 A 0.375 0.375 0 0 0 10.207031 8.8476562 C 12.880203 7.3263872 16.077152 9.5551891 15.576172 12.589844 A 0.375 0.375 0 0 0 15.886719 13.019531 A 0.375 0.375 0 0 0 16.316406 12.710938 C 16.762979 10.005852 14.682409 7.8011032 12.273438 7.6308594 C 12.07269 7.6166724 11.870118 7.6159159 11.666016 7.6308594 z M 20 11.625 A 0.375 0.375 0 0 0 19.625 12 A 0.375 0.375 0 0 0 20 12.375 L 22 12.375 A 0.375 0.375 0 0 0 22.375 12 A 0.375 0.375 0 0 0 22 11.625 L 20 11.625 z M 6.8359375 11.638672 C 5.3728736 11.670704 3.9066648 12.290907 2.8378906 13.599609 C -0.012173875 17.089484 2.4939349 22.37408 7 22.375 L 13 22.375 C 14.09375 22.375 14.962523 21.952318 15.53125 21.3125 C 16.099977 20.672682 16.375 19.833333 16.375 19 C 16.375 18.166667 16.099977 17.327318 15.53125 16.6875 C 14.962523 16.047682 14.09375 15.625 13 15.625 L 12.107422 15.625 C 11.559702 13.619007 10.06721 12.238633 8.2832031 11.798828 C 7.8110934 11.682441 7.3236255 11.627995 6.8359375 11.638672 z M 6.8710938 12.357422 C 7.2902319 12.346579 7.7082971 12.39235 8.1132812 12.492188 C 9.7332175 12.891537 11.140668 14.151198 11.533203 16.074219 A 0.3750375 0.3750375 0 0 0 11.900391 16.375 L 13 16.375 C 13.90625 16.375 14.537477 16.702318 14.96875 17.1875 C 15.400023 17.672682 15.625 18.333333 15.625 19 C 15.625 19.666667 15.400023 20.327318 14.96875 20.8125 C 14.537477 21.297682 13.90625 21.625 13 21.625 L 7 21.625 C 3.0746514 21.624199 0.93523145 17.114305 3.4179688 14.074219 C 4.3489952 12.934187 5.6136793 12.389949 6.8710938 12.357422 z " />
</svg>
