<?xml version="1.0" encoding="UTF-8" standalone="no"?>
<svg
   width="24"
   height="24"
   viewBox="0 0 24 24"
   fill="none"
   stroke="currentColor"
   stroke-width="0.75"
   stroke-linecap="round"
   stroke-linejoin="round"
   version="1.1"
   id="svg3"
   sodipodi:docname=".tmp_ellipsis-vertical.svg"
   xmlns:inkscape="http://www.inkscape.org/namespaces/inkscape"
   xmlns:sodipodi="http://sodipodi.sourceforge.net/DTD/sodipodi-0.dtd"
   xmlns="http://www.w3.org/2000/svg"
   xmlns:svg="http://www.w3.org/2000/svg">
  <defs
     id="defs3" />
  <sodipodi:namedview
     id="namedview3"
     pagecolor="#ffffff"
     bordercolor="#000000"
     borderopacity="0.25"
     inkscape:showpageshadow="2"
     inkscape:pageopacity="0.0"
     inkscape:pagecheckerboard="0"
     inkscape:deskcolor="#d1d1d1" />
  <path
     id="circle1"
     style="baseline-shift:baseline;display:inline;overflow:visible;vector-effect:none;fill:#000000;stroke:none;stroke-linecap:butt;stroke-linejoin:miter;enable-background:accumulate;stop-color:#000000;stop-opacity:1;opacity:1"
     d="M 12 3.625 C 11.24505 3.625 10.625 4.2450502 10.625 5 C 10.625 5.7549498 11.24505 6.375 12 6.375 C 12.75495 6.375 13.375 5.7549498 13.375 5 C 13.375 4.2450502 12.75495 3.625 12 3.625 z M 12 4.375 C 12.34962 4.375 12.625 4.6503803 12.625 5 C 12.625 5.3496197 12.34962 5.625 12 5.625 C 11.65038 5.625 11.375 5.3496197 11.375 5 C 11.375 4.6503803 11.65038 4.375 12 4.375 z M 12 10.625 C 11.24505 10.625 10.625 11.24505 10.625 12 C 10.625 12.75495 11.24505 13.375 12 13.375 C 12.75495 13.375 13.375 12.75495 13.375 12 C 13.375 11.24505 12.75495 10.625 12 10.625 z M 12 11.375 C 12.34962 11.375 12.625 11.65038 12.625 12 C 12.625 12.34962 12.34962 12.625 12 12.625 C 11.65038 12.625 11.375 12.34962 11.375 12 C 11.375 11.65038 11.65038 11.375 12 11.375 z M 12 17.625 C 11.24505 17.625 10.625 18.24505 10.625 19 C 10.625 19.75495 11.24505 20.375 12 20.375 C 12.75495 20.375 13.375 19.75495 13.375 19 C 13.375 18.24505 12.75495 17.625 12 17.625 z M 12 18.375 C 12.34962 18.375 12.625 18.65038 12.625 19 C 12.625 19.34962 12.34962 19.625 12 19.625 C 11.65038 19.625 11.375 19.34962 11.375 19 C 11.375 18.65038 11.65038 18.375 12 18.375 z " />
</svg>
