<?xml version="1.0" encoding="UTF-8" standalone="no"?>
<svg
   width="24"
   height="24"
   viewBox="0 0 24 24"
   fill="none"
   stroke="currentColor"
   stroke-width="0.75"
   stroke-linecap="round"
   stroke-linejoin="round"
   version="1.1"
   id="svg4"
   sodipodi:docname=".tmp_file-digit.svg"
   xmlns:inkscape="http://www.inkscape.org/namespaces/inkscape"
   xmlns:sodipodi="http://sodipodi.sourceforge.net/DTD/sodipodi-0.dtd"
   xmlns="http://www.w3.org/2000/svg"
   xmlns:svg="http://www.w3.org/2000/svg">
  <defs
     id="defs4" />
  <sodipodi:namedview
     id="namedview4"
     pagecolor="#ffffff"
     bordercolor="#000000"
     borderopacity="0.25"
     inkscape:showpageshadow="2"
     inkscape:pageopacity="0.0"
     inkscape:pagecheckerboard="0"
     inkscape:deskcolor="#d1d1d1" />
  <path
     id="path1"
     style="baseline-shift:baseline;display:inline;overflow:visible;vector-effect:none;fill:#000000;stroke:none;stroke-linecap:butt;stroke-linejoin:miter;enable-background:accumulate;stop-color:#000000;stop-opacity:1;opacity:1"
     d="M 6 1.625 C 4.6927655 1.625 3.625 2.6927655 3.625 4 L 3.625 8 A 0.375 0.375 0 0 0 4 8.375 A 0.375 0.375 0 0 0 4.375 8 L 4.375 4 C 4.375 3.0980955 5.0980955 2.375 6 2.375 L 13.625 2.375 L 13.625 6 C 13.625 7.3072345 14.692765 8.375 16 8.375 L 19.625 8.375 L 19.625 20 C 19.625 20.901904 18.901904 21.625 18 21.625 L 4 21.625 A 0.375 0.375 0 0 0 3.625 22 A 0.375 0.375 0 0 0 4 22.375 L 18 22.375 C 19.307235 22.375 20.375 21.307235 20.375 20 L 20.375 7 A 0.3750375 0.3750375 0 0 0 20.265625 6.734375 L 15.265625 1.734375 A 0.3750375 0.3750375 0 0 0 15 1.625 L 6 1.625 z M 14.375 2.375 L 14.84375 2.375 L 19.625 7.15625 L 19.625 7.625 L 16 7.625 C 15.098096 7.625 14.375 6.9019045 14.375 6 L 14.375 2.375 z M 4 11.625 C 2.6907365 11.625 1.625 12.690736 1.625 14 L 1.625 16 C 1.625 17.309264 2.6907365 18.375 4 18.375 C 5.3092635 18.375 6.375 17.309264 6.375 16 L 6.375 14 C 6.375 12.690736 5.3092635 11.625 4 11.625 z M 10 11.625 A 0.375 0.375 0 0 0 9.625 12 A 0.375 0.375 0 0 0 10 12.375 L 11.625 12.375 L 11.625 17.625 L 10 17.625 A 0.375 0.375 0 0 0 9.625 18 A 0.375 0.375 0 0 0 10 18.375 L 12 18.375 L 14 18.375 A 0.375 0.375 0 0 0 14.375 18 A 0.375 0.375 0 0 0 14 17.625 L 12.375 17.625 L 12.375 12 A 0.3750375 0.3750375 0 0 0 12 11.625 L 10 11.625 z M 4 12.375 C 4.9067365 12.375 5.625 13.093264 5.625 14 L 5.625 16 C 5.625 16.906736 4.9067365 17.625 4 17.625 C 3.0932635 17.625 2.375 16.906736 2.375 16 L 2.375 14 C 2.375 13.093264 3.0932635 12.375 4 12.375 z " />
</svg>
