<?xml version="1.0" encoding="UTF-8" standalone="no"?>
<svg
   width="24"
   height="24"
   viewBox="0 0 24 24"
   fill="none"
   stroke="currentColor"
   stroke-width="0.75"
   stroke-linecap="round"
   stroke-linejoin="round"
   version="1.1"
   id="svg4"
   sodipodi:docname=".tmp_file-volume.svg"
   xmlns:inkscape="http://www.inkscape.org/namespaces/inkscape"
   xmlns:sodipodi="http://sodipodi.sourceforge.net/DTD/sodipodi-0.dtd"
   xmlns="http://www.w3.org/2000/svg"
   xmlns:svg="http://www.w3.org/2000/svg">
  <defs
     id="defs4" />
  <sodipodi:namedview
     id="namedview4"
     pagecolor="#ffffff"
     bordercolor="#000000"
     borderopacity="0.25"
     inkscape:showpageshadow="2"
     inkscape:pageopacity="0.0"
     inkscape:pagecheckerboard="0"
     inkscape:deskcolor="#d1d1d1" />
  <path
     id="path1"
     style="baseline-shift:baseline;display:inline;overflow:visible;vector-effect:none;fill:#000000;stroke:none;stroke-linecap:butt;stroke-linejoin:miter;enable-background:accumulate;stop-color:#000000;stop-opacity:1;opacity:1"
     d="M 6 1.625 C 4.6927655 1.625 3.625 2.6927655 3.625 4 L 3.625 6.765625 A 0.375 0.375 0 0 0 4 7.140625 A 0.375 0.375 0 0 0 4.375 6.765625 L 4.375 4 C 4.375 3.0980955 5.0980955 2.375 6 2.375 L 13.625 2.375 L 13.625 6 C 13.625 7.3072345 14.692765 8.375 16 8.375 L 19.625 8.375 L 19.625 20 C 19.625 20.901904 18.901904 21.625 18 21.625 L 6 21.625 C 5.7366922 21.624844 5.477168 21.560094 5.2441406 21.4375 A 0.375 0.375 0 0 0 4.7382812 21.595703 A 0.375 0.375 0 0 0 4.8945312 22.101562 C 5.2350818 22.280723 5.6151972 22.374772 6 22.375 L 18 22.375 C 19.307235 22.375 20.375 21.307235 20.375 20 L 20.375 7 A 0.3750375 0.3750375 0 0 0 20.265625 6.734375 L 15.265625 1.734375 A 0.3750375 0.3750375 0 0 0 15 1.625 L 6 1.625 z M 14.375 2.375 L 14.84375 2.375 L 19.625 7.15625 L 19.625 7.625 L 16 7.625 C 15.098096 7.625 14.375 6.9019045 14.375 6 L 14.375 2.375 z M 6.5078125 9.6464844 C 6.306432 9.6385856 6.1006683 9.6986744 5.9296875 9.8457031 L 4.0371094 11.474609 C 3.9238443 11.572074 3.7783324 11.624812 3.6289062 11.625 L 2.5 11.625 C 2.0211926 11.625 1.625 12.021193 1.625 12.5 L 1.625 15.5 C 1.625 15.978807 2.0211926 16.375 2.5 16.375 L 3.6289062 16.375 C 3.778548 16.375038 3.9236808 16.42779 4.0371094 16.525391 L 5.9296875 18.15625 C 6.4768261 18.626742 7.3762862 18.213798 7.375 17.492188 L 7.375 10.509766 C 7.3756431 10.14896 7.1505653 9.8653289 6.8574219 9.7304688 C 6.7474931 9.6798962 6.6286408 9.6512236 6.5078125 9.6464844 z M 6.5195312 10.369141 C 6.579511 10.369298 6.6251571 10.421612 6.625 10.509766 L 6.625 17.492188 C 6.6252394 17.626518 6.5198205 17.675478 6.4179688 17.587891 L 4.5253906 15.957031 C 4.2760597 15.742483 3.9578388 15.625084 3.6289062 15.625 L 2.5 15.625 C 2.426523 15.625 2.375 15.57348 2.375 15.5 L 2.375 12.5 C 2.375 12.42652 2.426523 12.375 2.5 12.375 L 3.6308594 12.375 C 3.9593194 12.374588 4.276418 12.257209 4.5253906 12.042969 L 6.4179688 10.414062 C 6.4529803 10.383957 6.4881133 10.369058 6.5195312 10.369141 z M 11.005859 10.625 A 0.375 0.375 0 0 0 10.775391 10.699219 A 0.375 0.375 0 0 0 10.699219 11.224609 C 11.933552 12.870387 11.933552 15.129613 10.699219 16.775391 A 0.375 0.375 0 0 0 10.775391 17.300781 A 0.375 0.375 0 0 0 11.300781 17.224609 C 12.733115 15.314832 12.733115 12.685168 11.300781 10.775391 A 0.375 0.375 0 0 0 11.005859 10.625 z " />
</svg>
