<?xml version="1.0" encoding="UTF-8" standalone="no"?>
<svg
   width="24"
   height="24"
   viewBox="0 0 24 24"
   fill="none"
   stroke="currentColor"
   stroke-width="0.75"
   stroke-linecap="round"
   stroke-linejoin="round"
   version="1.1"
   id="svg3"
   sodipodi:docname=".tmp_file-clock.svg"
   xmlns:inkscape="http://www.inkscape.org/namespaces/inkscape"
   xmlns:sodipodi="http://sodipodi.sourceforge.net/DTD/sodipodi-0.dtd"
   xmlns="http://www.w3.org/2000/svg"
   xmlns:svg="http://www.w3.org/2000/svg">
  <defs
     id="defs3" />
  <sodipodi:namedview
     id="namedview3"
     pagecolor="#ffffff"
     bordercolor="#000000"
     borderopacity="0.25"
     inkscape:showpageshadow="2"
     inkscape:pageopacity="0.0"
     inkscape:pagecheckerboard="0"
     inkscape:deskcolor="#d1d1d1" />
  <path
     id="path1"
     style="baseline-shift:baseline;display:inline;overflow:visible;vector-effect:none;fill:#000000;stroke:none;stroke-linecap:butt;stroke-linejoin:miter;enable-background:accumulate;stop-color:#000000;stop-opacity:1;opacity:1"
     d="M 6 1.625 C 4.6927655 1.625 3.625 2.6927655 3.625 4 L 3.625 7 A 0.375 0.375 0 0 0 4 7.375 A 0.375 0.375 0 0 0 4.375 7 L 4.375 4 C 4.375 3.0980955 5.0980955 2.375 6 2.375 L 13.625 2.375 L 13.625 6 C 13.625 7.3072345 14.692765 8.375 16 8.375 L 19.625 8.375 L 19.625 20 C 19.625 20.901904 18.901904 21.625 18 21.625 L 16 21.625 A 0.375 0.375 0 0 0 15.625 22 A 0.375 0.375 0 0 0 16 22.375 L 18 22.375 C 19.307235 22.375 20.375 21.307235 20.375 20 L 20.375 7 A 0.3750375 0.3750375 0 0 0 20.265625 6.734375 L 15.265625 1.734375 A 0.3750375 0.3750375 0 0 0 15 1.625 L 6 1.625 z M 14.375 2.375 L 14.84375 2.375 L 19.625 7.15625 L 19.625 7.625 L 16 7.625 C 15.098096 7.625 14.375 6.9019045 14.375 6 L 14.375 2.375 z M 8 9.625 C 4.4836265 9.625 1.625 12.483626 1.625 16 C 1.625 19.516374 4.4836265 22.375 8 22.375 C 11.516374 22.375 14.375 19.516374 14.375 16 C 14.375 12.483626 11.516374 9.625 8 9.625 z M 8 10.375 C 11.111043 10.375 13.625 12.888957 13.625 16 C 13.625 19.111043 11.111043 21.625 8 21.625 C 4.8889565 21.625 2.375 19.111043 2.375 16 C 2.375 12.888957 4.8889565 10.375 8 10.375 z M 8 13.625 A 0.375 0.375 0 0 0 7.625 14 L 7.625 16.199219 A 0.3750375 0.3750375 0 0 0 7.8007812 16.517578 L 9.4003906 17.517578 A 0.375 0.375 0 0 0 9.9179688 17.398438 A 0.375 0.375 0 0 0 9.7988281 16.882812 L 8.375 15.992188 L 8.375 14 A 0.375 0.375 0 0 0 8 13.625 z " />
</svg>
