<?xml version="1.0" encoding="UTF-8" standalone="no"?>
<svg
   width="24"
   height="24"
   viewBox="0 0 24 24"
   fill="none"
   stroke="currentColor"
   stroke-width="0.75"
   stroke-linecap="round"
   stroke-linejoin="round"
   version="1.1"
   id="svg1"
   sodipodi:docname=".tmp_folder-open.svg"
   xmlns:inkscape="http://www.inkscape.org/namespaces/inkscape"
   xmlns:sodipodi="http://sodipodi.sourceforge.net/DTD/sodipodi-0.dtd"
   xmlns="http://www.w3.org/2000/svg"
   xmlns:svg="http://www.w3.org/2000/svg">
  <defs
     id="defs1" />
  <sodipodi:namedview
     id="namedview1"
     pagecolor="#ffffff"
     bordercolor="#000000"
     borderopacity="0.25"
     inkscape:showpageshadow="2"
     inkscape:pageopacity="0.0"
     inkscape:pagecheckerboard="0"
     inkscape:deskcolor="#d1d1d1" />
  <path
     id="path1"
     style="baseline-shift:baseline;display:inline;overflow:visible;vector-effect:none;fill:#000000;stroke:none;stroke-linecap:butt;stroke-linejoin:miter;enable-background:accumulate;stop-color:#000000;stop-opacity:1;opacity:1"
     d="M 4 2.625 C 2.6927655 2.625 1.625 3.6927655 1.625 5 L 1.625 18 C 1.625 19.307235 2.6927655 20.375 4 20.375 L 18.447266 20.375 C 19.534305 20.3823 20.491931 19.646302 20.763672 18.59375 L 22.302734 12.59375 C 22.655076 11.229147 21.712229 9.937101 20.375 9.7128906 L 20.375 8 C 20.375 6.6927655 19.307235 5.625 18 5.625 L 12.070312 5.625 C 11.523384 5.6249099 11.013701 5.3513058 10.712891 4.8945312 A 0.3750375 0.3750375 0 0 0 10.710938 4.890625 L 9.9023438 3.6933594 C 9.4594319 3.020722 8.7055541 2.6184313 7.9003906 2.625 L 4 2.625 z M 4 3.375 L 7.9003906 3.375 A 0.3750375 0.3750375 0 0 0 7.9042969 3.375 C 8.4570009 3.36958 8.9733685 3.6438302 9.2773438 4.1054688 A 0.3750375 0.3750375 0 0 0 9.2792969 4.109375 L 10.085938 5.3066406 C 10.524971 5.9733068 11.272067 6.3748686 12.070312 6.375 L 18 6.375 C 18.901904 6.375 19.625 7.0980955 19.625 8 L 19.625 9.625 L 9.2402344 9.625 A 0.3750375 0.3750375 0 0 0 9.2304688 9.625 C 8.3540138 9.645307 7.560291 10.148613 7.1660156 10.931641 L 7.1660156 10.927734 L 5.6660156 13.828125 A 0.375 0.375 0 0 0 5.828125 14.333984 A 0.375 0.375 0 0 0 6.3339844 14.171875 L 7.8339844 11.271484 A 0.3750375 0.3750375 0 0 0 7.8339844 11.269531 C 8.1042895 10.732756 8.6471815 10.388922 9.2480469 10.375 L 20 10.375 C 21.072779 10.3731 21.844369 11.367535 21.576172 12.40625 L 20.037109 18.40625 C 19.850371 19.129553 19.200128 19.630041 18.453125 19.625 A 0.3750375 0.3750375 0 0 0 18.449219 19.625 L 4 19.625 C 3.0980955 19.625 2.375 18.901904 2.375 18 L 2.375 5 C 2.375 4.0980955 3.0980955 3.375 4 3.375 z " />
</svg>
