<?xml version="1.0" encoding="UTF-8" standalone="no"?>
<svg
   width="24"
   height="24"
   viewBox="0 0 24 24"
   fill="none"
   stroke="currentColor"
   stroke-width="0.75"
   stroke-linecap="round"
   stroke-linejoin="round"
   version="1.1"
   id="svg4"
   sodipodi:docname=".tmp_fuel.svg"
   xmlns:inkscape="http://www.inkscape.org/namespaces/inkscape"
   xmlns:sodipodi="http://sodipodi.sourceforge.net/DTD/sodipodi-0.dtd"
   xmlns="http://www.w3.org/2000/svg"
   xmlns:svg="http://www.w3.org/2000/svg">
  <defs
     id="defs4" />
  <sodipodi:namedview
     id="namedview4"
     pagecolor="#ffffff"
     bordercolor="#000000"
     borderopacity="0.25"
     inkscape:showpageshadow="2"
     inkscape:pageopacity="0.0"
     inkscape:pagecheckerboard="0"
     inkscape:deskcolor="#d1d1d1" />
  <path
     id="path1"
     style="baseline-shift:baseline;display:inline;overflow:visible;vector-effect:none;fill:#000000;stroke:none;stroke-linecap:butt;stroke-linejoin:miter;enable-background:accumulate;stop-color:#000000;stop-opacity:1;opacity:1"
     d="M 5 2.625 C 3.6927655 2.625 2.625 3.6927655 2.625 5 L 2.625 9 L 2.625 20.625 L 2 20.625 A 0.375 0.375 0 0 0 1.625 21 A 0.375 0.375 0 0 0 2 21.375 L 15 21.375 A 0.375 0.375 0 0 0 15.375 21 A 0.375 0.375 0 0 0 15 20.625 L 14.375 20.625 L 14.375 13.375 L 16 13.375 C 16.901904 13.375 17.625 14.098096 17.625 15 L 17.625 17 C 17.625 17.760416 17.922682 18.37919 18.375 18.78125 C 18.827318 19.18331 19.416667 19.375 20 19.375 C 20.583333 19.375 21.172682 19.18331 21.625 18.78125 C 22.077318 18.37919 22.375 17.760416 22.375 17 L 22.375 10.001953 C 22.375501 9.3691103 22.122645 8.7625603 21.673828 8.3164062 L 18.271484 4.7421875 A 0.375 0.375 0 0 0 17.742188 4.7285156 A 0.375 0.375 0 0 0 17.728516 5.2578125 L 21.138672 8.8398438 A 0.3750375 0.3750375 0 0 0 21.146484 8.8476562 C 21.453757 9.1530973 21.625343 9.568707 21.625 10.001953 L 21.625 17 C 21.625 17.572916 21.422682 17.954144 21.125 18.21875 C 20.827318 18.483356 20.416667 18.625 20 18.625 C 19.583333 18.625 19.172682 18.483356 18.875 18.21875 C 18.577318 17.954144 18.375 17.572916 18.375 17 L 18.375 15 C 18.375 13.692765 17.307235 12.625 16 12.625 L 14.375 12.625 L 14.375 9 L 14.375 5 C 14.375 3.6927655 13.307235 2.625 12 2.625 L 5 2.625 z M 5 3.375 L 12 3.375 C 12.901904 3.375 13.625 4.0980955 13.625 5 L 13.625 8.625 L 3.375 8.625 L 3.375 5 C 3.375 4.0980955 4.0980955 3.375 5 3.375 z M 3.375 9.375 L 13.625 9.375 L 13.625 20.625 L 3.375 20.625 L 3.375 9.375 z " />
</svg>
