<?xml version="1.0" encoding="UTF-8" standalone="no"?>
<svg
   width="24"
   height="24"
   viewBox="0 0 24 24"
   fill="none"
   stroke="currentColor"
   stroke-width="0.75"
   stroke-linecap="round"
   stroke-linejoin="round"
   version="1.1"
   id="svg4"
   sodipodi:docname=".tmp_georgian-lari.svg"
   xmlns:inkscape="http://www.inkscape.org/namespaces/inkscape"
   xmlns:sodipodi="http://sodipodi.sourceforge.net/DTD/sodipodi-0.dtd"
   xmlns="http://www.w3.org/2000/svg"
   xmlns:svg="http://www.w3.org/2000/svg">
  <defs
     id="defs4" />
  <sodipodi:namedview
     id="namedview4"
     pagecolor="#ffffff"
     bordercolor="#000000"
     borderopacity="0.25"
     inkscape:showpageshadow="2"
     inkscape:pageopacity="0.0"
     inkscape:pagecheckerboard="0"
     inkscape:deskcolor="#d1d1d1" />
  <path
     id="path1"
     style="baseline-shift:baseline;display:inline;overflow:visible;vector-effect:none;fill:#000000;stroke:none;stroke-linecap:butt;stroke-linejoin:miter;enable-background:accumulate;stop-color:#000000;stop-opacity:1;opacity:1"
     d="M 9 2.625 A 0.375 0.375 0 0 0 8.625 3 L 8.625 6.1582031 C 7.430807 6.6213226 6.3177072 7.3986781 5.4023438 8.5195312 C 2.004585 12.680053 3.786459 18.562018 8.1191406 20.625 L 4 20.625 A 0.375 0.375 0 0 0 3.625 21 A 0.375 0.375 0 0 0 4 21.375 L 20 21.375 A 0.375 0.375 0 0 0 20.375 21 A 0.375 0.375 0 0 0 20 20.625 L 11.5 20.625 C 5.4667979 20.623769 2.1664842 13.666717 5.9824219 8.9941406 C 6.7438107 8.0618278 7.6509693 7.3881443 8.625 6.9550781 L 8.625 12 A 0.375 0.375 0 0 0 9 12.375 A 0.375 0.375 0 0 0 9.375 12 L 9.375 6.6738281 C 10.436933 6.3423214 11.551498 6.2727785 12.625 6.4453125 L 12.625 12 A 0.375 0.375 0 0 0 13 12.375 A 0.375 0.375 0 0 0 13.375 12 L 13.375 6.6074219 C 15.802717 7.2657923 17.892355 9.1834963 18.482422 12.074219 A 0.375 0.375 0 0 0 18.925781 12.367188 A 0.375 0.375 0 0 0 19.216797 11.925781 C 18.554765 8.6825005 16.143579 6.5490182 13.375 5.8691406 L 13.375 3 A 0.375 0.375 0 0 0 13 2.625 A 0.375 0.375 0 0 0 12.625 3 L 12.625 5.7207031 C 12.175265 5.6541974 11.71961 5.626382 11.263672 5.6367188 C 10.629602 5.6510941 9.9949769 5.740692 9.375 5.9101562 L 9.375 3 A 0.375 0.375 0 0 0 9 2.625 z " />
</svg>
