<?xml version="1.0" encoding="UTF-8" standalone="no"?>
<svg
   width="24"
   height="24"
   viewBox="0 0 24 24"
   fill="none"
   stroke="currentColor"
   stroke-width="0.75"
   stroke-linecap="round"
   stroke-linejoin="round"
   version="1.1"
   id="svg2"
   sodipodi:docname=".tmp_grid-2x2-check.svg"
   xmlns:inkscape="http://www.inkscape.org/namespaces/inkscape"
   xmlns:sodipodi="http://sodipodi.sourceforge.net/DTD/sodipodi-0.dtd"
   xmlns="http://www.w3.org/2000/svg"
   xmlns:svg="http://www.w3.org/2000/svg">
  <defs
     id="defs2" />
  <sodipodi:namedview
     id="namedview2"
     pagecolor="#ffffff"
     bordercolor="#000000"
     borderopacity="0.25"
     inkscape:showpageshadow="2"
     inkscape:pageopacity="0.0"
     inkscape:pagecheckerboard="0"
     inkscape:deskcolor="#d1d1d1" />
  <path
     id="path1"
     style="baseline-shift:baseline;display:inline;overflow:visible;vector-effect:none;fill:#000000;stroke:none;stroke-linecap:butt;stroke-linejoin:miter;enable-background:accumulate;stop-color:#000000;stop-opacity:1;opacity:1"
     d="M 5 2.625 C 3.6927655 2.625 2.625 3.6927655 2.625 5 L 2.625 12 L 2.625 19 C 2.625 20.307235 3.6927655 21.375 5 21.375 L 11 21.375 C 11.75495 21.375 12.375 20.75495 12.375 20 L 12.375 12.375 L 20 12.375 C 20.75495 12.375 21.375 11.75495 21.375 11 L 21.375 5 C 21.375 3.6927655 20.307235 2.625 19 2.625 L 12 2.625 L 5 2.625 z M 5 3.375 L 11.625 3.375 L 11.625 11.625 L 3.375 11.625 L 3.375 5 C 3.375 4.0980955 4.0980955 3.375 5 3.375 z M 12.375 3.375 L 19 3.375 C 19.901904 3.375 20.625 4.0980955 20.625 5 L 20.625 11 C 20.625 11.34962 20.34962 11.625 20 11.625 L 12.375 11.625 L 12.375 3.375 z M 3.375 12.375 L 11.625 12.375 L 11.625 20 C 11.625 20.34962 11.34962 20.625 11 20.625 L 5 20.625 C 4.0980955 20.625 3.375 19.901904 3.375 19 L 3.375 12.375 z M 22 16.625 A 0.375 0.375 0 0 0 21.734375 16.734375 L 18 20.46875 L 16.265625 18.734375 A 0.375 0.375 0 0 0 15.734375 18.734375 A 0.375 0.375 0 0 0 15.734375 19.265625 L 17.734375 21.265625 A 0.3750375 0.3750375 0 0 0 18.265625 21.265625 L 22.265625 17.265625 A 0.375 0.375 0 0 0 22.265625 16.734375 A 0.375 0.375 0 0 0 22 16.625 z " />
</svg>
