<?xml version="1.0" encoding="UTF-8" standalone="no"?>
<svg
   width="24"
   height="24"
   viewBox="0 0 24 24"
   fill="none"
   stroke="currentColor"
   stroke-width="0.75"
   stroke-linecap="round"
   stroke-linejoin="round"
   version="1.1"
   id="svg4"
   sodipodi:docname=".tmp_hand-coins.svg"
   xmlns:inkscape="http://www.inkscape.org/namespaces/inkscape"
   xmlns:sodipodi="http://sodipodi.sourceforge.net/DTD/sodipodi-0.dtd"
   xmlns="http://www.w3.org/2000/svg"
   xmlns:svg="http://www.w3.org/2000/svg">
  <defs
     id="defs4" />
  <sodipodi:namedview
     id="namedview4"
     pagecolor="#ffffff"
     bordercolor="#000000"
     borderopacity="0.25"
     inkscape:showpageshadow="2"
     inkscape:pageopacity="0.0"
     inkscape:pagecheckerboard="0"
     inkscape:deskcolor="#d1d1d1" />
  <path
     id="path1"
     style="baseline-shift:baseline;display:inline;overflow:visible;vector-effect:none;fill:#000000;stroke:none;stroke-linecap:butt;stroke-linejoin:miter;enable-background:accumulate;stop-color:#000000;stop-opacity:1;opacity:1"
     d="M 6 1.625 C 4.1404807 1.625 2.625 3.1404807 2.625 5 C 2.625 6.8595193 4.1404807 8.375 6 8.375 C 7.8595193 8.375 9.375 6.8595193 9.375 5 C 9.375 3.1404807 7.8595193 1.625 6 1.625 z M 6 2.375 C 7.4541892 2.375 8.625 3.5458108 8.625 5 C 8.625 6.4541892 7.4541892 7.625 6 7.625 C 4.5458108 7.625 3.375 6.4541892 3.375 5 C 3.375 3.5458108 4.5458108 2.375 6 2.375 z M 16 5.7246094 C 14.195709 5.7246094 12.724609 7.1957091 12.724609 9 C 12.724609 9.5925254 12.883154 10.148547 13.160156 10.628906 C 13.107472 10.625939 13.054148 10.625 13 10.625 L 10 10.625 C 9.3291413 10.625 8.7080766 10.854813 8.3222656 11.347656 L 3.0058594 16.474609 L 2.265625 15.734375 A 0.375 0.375 0 0 0 1.734375 15.734375 A 0.375 0.375 0 0 0 1.734375 16.265625 L 7.734375 22.265625 A 0.375 0.375 0 0 0 8.265625 22.265625 A 0.375 0.375 0 0 0 8.265625 21.734375 L 7.5488281 21.017578 L 8.8476562 19.882812 A 0.3750375 0.3750375 0 0 0 8.9003906 19.824219 C 9.116391 19.536211 9.4833333 19.375 10 19.375 L 14 19.375 C 15.190909 19.375 16.306274 18.933455 17.082031 18.046875 L 21.658203 13.671875 C 22.211341 13.14915 22.454014 12.507723 22.435547 11.902344 C 22.41708 11.296965 22.15294 10.736817 21.751953 10.3125 C 21.350966 9.8881829 20.806494 9.5916988 20.203125 9.5390625 C 19.876175 9.5105404 19.533762 9.5583574 19.201172 9.6914062 C 19.249402 9.4683845 19.275391 9.2371128 19.275391 9 C 19.275391 7.1957091 17.804291 5.7246094 16 5.7246094 z M 16 6.4746094 C 17.398961 6.4746094 18.525391 7.6010392 18.525391 9 C 18.525391 10.398961 17.398961 11.525391 16 11.525391 C 14.601039 11.525391 13.474609 10.398961 13.474609 9 C 13.474609 7.6010392 14.601039 6.4746094 16 6.4746094 z M 19.988281 10.28125 C 20.038499 10.280644 20.089015 10.282777 20.138672 10.287109 C 20.535927 10.321769 20.920518 10.524942 21.207031 10.828125 C 21.493544 11.131308 21.675342 11.527202 21.6875 11.925781 C 21.69966 12.32436 21.55944 12.733012 21.142578 13.126953 A 0.3750375 0.3750375 0 0 0 21.140625 13.128906 L 16.541016 17.529297 A 0.3750375 0.3750375 0 0 0 16.517578 17.552734 C 15.893388 18.266101 15.009091 18.625 14 18.625 L 10 18.625 C 9.3310818 18.625 8.7122235 18.853851 8.3261719 19.34375 L 7.0195312 20.488281 L 3.5351562 17.003906 L 8.859375 11.869141 A 0.3750375 0.3750375 0 0 0 8.9003906 11.824219 C 9.1163941 11.53618 9.4833333 11.375 10 11.375 L 13 11.375 C 13.572916 11.375 13.954144 11.577318 14.21875 11.875 C 14.483356 12.172682 14.625 12.583333 14.625 13 C 14.625 13.361602 14.517555 13.721273 14.316406 14.003906 L 14.195312 14.115234 A 0.375 0.375 0 0 0 14.107422 14.236328 C 13.849831 14.471566 13.497689 14.625 13 14.625 L 11 14.625 A 0.375 0.375 0 0 0 10.625 15 A 0.375 0.375 0 0 0 11 15.375 L 13 15.375 C 13.760416 15.375 14.37919 15.077318 14.78125 14.625 C 14.819694 14.58175 14.856011 14.535865 14.890625 14.490234 L 18.121094 11.492188 C 18.140842 11.475355 18.158393 11.456741 18.177734 11.439453 L 18.326172 11.302734 C 18.327161 11.301735 18.327137 11.299829 18.328125 11.298828 L 18.904297 10.765625 A 0.3750375 0.3750375 0 0 0 18.908203 10.761719 C 19.272957 10.417019 19.636759 10.285493 19.988281 10.28125 z M 15.246094 12.1875 C 15.488366 12.244946 15.740568 12.275391 16 12.275391 C 16.060912 12.275391 16.121531 12.272841 16.181641 12.269531 L 15.375 13.019531 C 15.375048 13.012996 15.375 13.006534 15.375 13 C 15.375 12.725542 15.332908 12.449722 15.246094 12.1875 z " />
</svg>
