<?xml version="1.0" encoding="UTF-8" standalone="no"?>
<svg
   width="24"
   height="24"
   viewBox="0 0 24 24"
   fill="none"
   stroke="currentColor"
   stroke-width="0.75"
   stroke-linecap="round"
   stroke-linejoin="round"
   version="1.1"
   id="svg4"
   sodipodi:docname=".tmp_heading-1.svg"
   xmlns:inkscape="http://www.inkscape.org/namespaces/inkscape"
   xmlns:sodipodi="http://sodipodi.sourceforge.net/DTD/sodipodi-0.dtd"
   xmlns="http://www.w3.org/2000/svg"
   xmlns:svg="http://www.w3.org/2000/svg">
  <defs
     id="defs4" />
  <sodipodi:namedview
     id="namedview4"
     pagecolor="#ffffff"
     bordercolor="#000000"
     borderopacity="0.25"
     inkscape:showpageshadow="2"
     inkscape:pageopacity="0.0"
     inkscape:pagecheckerboard="0"
     inkscape:deskcolor="#d1d1d1" />
  <path
     id="path1"
     style="baseline-shift:baseline;display:inline;overflow:visible;vector-effect:none;fill:#000000;stroke:none;stroke-linecap:butt;stroke-linejoin:miter;enable-background:accumulate;stop-color:#000000;stop-opacity:1;opacity:1"
     d="M 4 5.625 A 0.375 0.375 0 0 0 3.625 6 L 3.625 18 A 0.375 0.375 0 0 0 4 18.375 A 0.375 0.375 0 0 0 4.375 18 L 4.375 12.375 L 11.625 12.375 L 11.625 18 A 0.375 0.375 0 0 0 12 18.375 A 0.375 0.375 0 0 0 12.375 18 L 12.375 6 A 0.375 0.375 0 0 0 12 5.625 A 0.375 0.375 0 0 0 11.625 6 L 11.625 11.625 L 4.375 11.625 L 4.375 6 A 0.375 0.375 0 0 0 4 5.625 z M 19.980469 9.625 A 0.3750375 0.3750375 0 0 0 19.791016 9.6875 L 16.791016 11.6875 A 0.375 0.375 0 0 0 16.6875 12.208984 A 0.375 0.375 0 0 0 17.208984 12.3125 L 19.625 10.701172 L 19.625 18 A 0.375 0.375 0 0 0 20 18.375 A 0.375 0.375 0 0 0 20.375 18 L 20.375 10 A 0.3750375 0.3750375 0 0 0 19.980469 9.625 z " />
</svg>
