<?xml version="1.0" encoding="UTF-8" standalone="no"?>
<svg
   width="24"
   height="24"
   viewBox="0 0 24 24"
   fill="none"
   stroke="currentColor"
   stroke-width="0.75"
   stroke-linecap="round"
   stroke-linejoin="round"
   version="1.1"
   id="svg5"
   sodipodi:docname=".tmp_heading-3.svg"
   xmlns:inkscape="http://www.inkscape.org/namespaces/inkscape"
   xmlns:sodipodi="http://sodipodi.sourceforge.net/DTD/sodipodi-0.dtd"
   xmlns="http://www.w3.org/2000/svg"
   xmlns:svg="http://www.w3.org/2000/svg">
  <defs
     id="defs5" />
  <sodipodi:namedview
     id="namedview5"
     pagecolor="#ffffff"
     bordercolor="#000000"
     borderopacity="0.25"
     inkscape:showpageshadow="2"
     inkscape:pageopacity="0.0"
     inkscape:pagecheckerboard="0"
     inkscape:deskcolor="#d1d1d1" />
  <path
     id="path1"
     style="baseline-shift:baseline;display:inline;overflow:visible;vector-effect:none;fill:#000000;stroke:none;stroke-linecap:butt;stroke-linejoin:miter;enable-background:accumulate;stop-color:#000000;stop-opacity:1;opacity:1"
     d="M 4 5.625 A 0.375 0.375 0 0 0 3.625 6 L 3.625 18 A 0.375 0.375 0 0 0 4 18.375 A 0.375 0.375 0 0 0 4.375 18 L 4.375 12.375 L 11.625 12.375 L 11.625 18 A 0.375 0.375 0 0 0 12 18.375 A 0.375 0.375 0 0 0 12.375 18 L 12.375 6 A 0.375 0.375 0 0 0 12 5.625 A 0.375 0.375 0 0 0 11.625 6 L 11.625 11.625 L 4.375 11.625 L 4.375 6 A 0.375 0.375 0 0 0 4 5.625 z M 18.742188 9.7285156 C 18.273367 9.7556036 17.784017 9.899223 17.310547 10.177734 A 0.375 0.375 0 0 0 17.177734 10.689453 A 0.375 0.375 0 0 0 17.689453 10.822266 C 18.442513 10.379289 19.179289 10.394196 19.726562 10.652344 C 20.273836 10.910491 20.625 11.4 20.625 12 C 20.625 12.901904 19.901904 13.625 19 13.625 A 0.375 0.375 0 0 0 18.625 14 A 0.375 0.375 0 0 0 19 14.375 C 19.901904 14.375 20.625 15.098096 20.625 16 C 20.625 16.761111 20.212991 17.368705 19.595703 17.646484 C 18.978415 17.924264 18.138209 17.884419 17.224609 17.199219 A 0.375 0.375 0 0 0 16.699219 17.275391 A 0.375 0.375 0 0 0 16.775391 17.800781 C 17.861791 18.615581 19.021585 18.727299 19.904297 18.330078 C 20.787011 17.93286 21.375 17.038889 21.375 16 C 21.375 15.162379 20.936224 14.423078 20.277344 14 C 20.936225 13.576922 21.375 12.837621 21.375 12 C 21.375 11.1 20.824602 10.339509 20.046875 9.9726562 C 19.658012 9.78923 19.211008 9.7014279 18.742188 9.7285156 z " />
</svg>
