<?xml version="1.0" encoding="UTF-8" standalone="no"?>
<svg
   width="24"
   height="24"
   viewBox="0 0 24 24"
   fill="none"
   stroke="currentColor"
   stroke-width="0.75"
   stroke-linecap="round"
   stroke-linejoin="round"
   version="1.1"
   id="svg5"
   sodipodi:docname=".tmp_hospital.svg"
   xmlns:inkscape="http://www.inkscape.org/namespaces/inkscape"
   xmlns:sodipodi="http://sodipodi.sourceforge.net/DTD/sodipodi-0.dtd"
   xmlns="http://www.w3.org/2000/svg"
   xmlns:svg="http://www.w3.org/2000/svg">
  <defs
     id="defs5" />
  <sodipodi:namedview
     id="namedview5"
     pagecolor="#ffffff"
     bordercolor="#000000"
     borderopacity="0.25"
     inkscape:showpageshadow="2"
     inkscape:pageopacity="0.0"
     inkscape:pagecheckerboard="0"
     inkscape:deskcolor="#d1d1d1" />
  <path
     id="path1"
     style="baseline-shift:baseline;display:inline;overflow:visible;vector-effect:none;fill:#000000;stroke:none;stroke-linecap:butt;stroke-linejoin:miter;enable-background:accumulate;stop-color:#000000;stop-opacity:1;opacity:1"
     d="M 8 2.625 C 6.6927655 2.625 5.625 3.6927655 5.625 5 L 5.625 7.625 L 4 7.625 C 2.6927655 7.625 1.625 8.6927655 1.625 10 L 1.625 19 C 1.625 20.307235 2.6927655 21.375 4 21.375 L 6 21.375 L 18 21.375 L 20 21.375 C 21.307235 21.375 22.375 20.307235 22.375 19 L 22.375 13 C 22.375 11.692765 21.307235 10.625 20 10.625 L 18.375 10.625 L 18.375 5 C 18.375 3.6927655 17.307235 2.625 16 2.625 L 8 2.625 z M 8 3.375 L 16 3.375 C 16.901904 3.375 17.625 4.0980955 17.625 5 L 17.625 11 L 17.625 20.625 L 14.375 20.625 L 14.375 18 C 14.375 17.239584 14.077318 16.62081 13.625 16.21875 C 13.172682 15.81669 12.583333 15.625 12 15.625 C 11.416667 15.625 10.827318 15.81669 10.375 16.21875 C 9.9226818 16.62081 9.625 17.239584 9.625 18 L 9.625 20.625 L 6.375 20.625 L 6.375 8 L 6.375 5 C 6.375 4.0980955 7.0980955 3.375 8 3.375 z M 12 6.625 A 0.375 0.375 0 0 0 11.625 7 L 11.625 8.625 L 10 8.625 A 0.375 0.375 0 0 0 9.625 9 A 0.375 0.375 0 0 0 10 9.375 L 11.625 9.375 L 11.625 11 A 0.375 0.375 0 0 0 12 11.375 A 0.375 0.375 0 0 0 12.375 11 L 12.375 9.375 L 14 9.375 A 0.375 0.375 0 0 0 14.375 9 A 0.375 0.375 0 0 0 14 8.625 L 12.375 8.625 L 12.375 7 A 0.375 0.375 0 0 0 12 6.625 z M 4 8.375 L 5.625 8.375 L 5.625 20.625 L 4 20.625 C 3.0980955 20.625 2.375 19.901904 2.375 19 L 2.375 10 C 2.375 9.0980955 3.0980955 8.375 4 8.375 z M 18.375 11.375 L 20 11.375 C 20.901904 11.375 21.625 12.098096 21.625 13 L 21.625 19 C 21.625 19.901904 20.901904 20.625 20 20.625 L 18.375 20.625 L 18.375 11.375 z M 12 16.375 C 12.416667 16.375 12.827318 16.516644 13.125 16.78125 C 13.422682 17.045856 13.625 17.427084 13.625 18 L 13.625 20.625 L 10.375 20.625 L 10.375 18 C 10.375 17.427084 10.577318 17.045856 10.875 16.78125 C 11.172682 16.516644 11.583333 16.375 12 16.375 z " />
</svg>
