<?xml version="1.0" encoding="UTF-8" standalone="no"?>
<svg
   width="24"
   height="24"
   viewBox="0 0 24 24"
   fill="none"
   stroke="currentColor"
   stroke-width="0.75"
   stroke-linecap="round"
   stroke-linejoin="round"
   version="1.1"
   id="svg1"
   sodipodi:docname=".tmp_key-round.svg"
   xmlns:inkscape="http://www.inkscape.org/namespaces/inkscape"
   xmlns:sodipodi="http://sodipodi.sourceforge.net/DTD/sodipodi-0.dtd"
   xmlns="http://www.w3.org/2000/svg"
   xmlns:svg="http://www.w3.org/2000/svg">
  <defs
     id="defs1" />
  <sodipodi:namedview
     id="namedview1"
     pagecolor="#ffffff"
     bordercolor="#000000"
     borderopacity="0.25"
     inkscape:showpageshadow="2"
     inkscape:pageopacity="0.0"
     inkscape:pagecheckerboard="0"
     inkscape:deskcolor="#d1d1d1" />
  <path
     id="path1"
     style="baseline-shift:baseline;display:inline;overflow:visible;vector-effect:none;fill:#000000;stroke:none;stroke-linecap:butt;stroke-linejoin:miter;enable-background:accumulate;stop-color:#000000;stop-opacity:1;opacity:1"
     d="M 15.552734 1.5566406 C 14.247533 1.5662326 12.972122 1.956937 11.884766 2.6386719 C 9.4633581 4.1568105 7.9766839 7.1494303 9.0019531 10.466797 L 2.3203125 17.148438 C 1.8749846 17.593631 1.6251345 18.198431 1.625 18.828125 L 1.625 21 C 1.625 21.75495 2.2450502 22.375 3 22.375 L 6 22.375 C 6.7549498 22.375 7.375 21.75495 7.375 21 L 7.375 20 C 7.375 19.65038 7.6503803 19.375 8 19.375 L 9 19.375 C 9.7549498 19.375 10.375 18.75495 10.375 18 L 10.375 17 C 10.375 16.65038 10.65038 16.375 11 16.375 L 11.171875 16.375 C 11.801569 16.374866 12.406368 16.125014 12.851562 15.679688 L 13.533203 14.998047 C 16.85057 16.023316 19.84319 14.536642 21.361328 12.115234 C 22.919579 9.6298486 22.958883 6.1620081 20.398438 3.6015625 C 19.118215 2.3213397 17.611053 1.691737 16.113281 1.5761719 C 15.92606 1.5617262 15.739192 1.5552703 15.552734 1.5566406 z M 15.544922 2.2929688 C 15.710124 2.2911042 15.875074 2.2962047 16.041016 2.3085938 C 17.368547 2.4077068 18.708552 2.9702712 19.869141 4.1308594 C 22.190317 6.4520357 22.124144 9.4876779 20.726562 11.716797 C 19.328982 13.945916 16.626244 15.326947 13.523438 14.246094 A 0.3750375 0.3750375 0 0 0 13.134766 14.333984 L 12.320312 15.148438 C 12.015534 15.453307 11.602961 15.624908 11.171875 15.625 L 11 15.625 C 10.24505 15.625 9.625 16.24505 9.625 17 L 9.625 18 C 9.625 18.34962 9.3496197 18.625 9 18.625 L 8 18.625 C 7.2450502 18.625 6.625 19.24505 6.625 20 L 6.625 21 C 6.625 21.34962 6.3496197 21.625 6 21.625 L 3 21.625 C 2.6503803 21.625 2.375 21.34962 2.375 21 L 2.375 18.828125 C 2.3750921 18.397039 2.5466929 17.984465 2.8515625 17.679688 L 9.6660156 10.865234 A 0.3750375 0.3750375 0 0 0 9.7539062 10.476562 C 8.6730522 7.3737549 10.054084 4.671018 12.283203 3.2734375 C 13.258442 2.6619968 14.388505 2.3060203 15.544922 2.2929688 z M 16.5 6.625 C 16.021193 6.625 15.625 7.0211926 15.625 7.5 C 15.625 7.9788074 16.021193 8.375 16.5 8.375 C 16.978807 8.375 17.375 7.9788074 17.375 7.5 C 17.375 7.0211926 16.978807 6.625 16.5 6.625 z " />
</svg>
