<?xml version="1.0" encoding="UTF-8" standalone="no"?>
<svg
   width="24"
   height="24"
   viewBox="0 0 24 24"
   fill="none"
   stroke="currentColor"
   stroke-width="0.75"
   stroke-linecap="round"
   stroke-linejoin="round"
   version="1.1"
   id="svg3"
   sodipodi:docname=".tmp_layout-panel-top.svg"
   xmlns:inkscape="http://www.inkscape.org/namespaces/inkscape"
   xmlns:sodipodi="http://sodipodi.sourceforge.net/DTD/sodipodi-0.dtd"
   xmlns="http://www.w3.org/2000/svg"
   xmlns:svg="http://www.w3.org/2000/svg">
  <defs
     id="defs3" />
  <sodipodi:namedview
     id="namedview3"
     pagecolor="#ffffff"
     bordercolor="#000000"
     borderopacity="0.25"
     inkscape:showpageshadow="2"
     inkscape:pageopacity="0.0"
     inkscape:pagecheckerboard="0"
     inkscape:deskcolor="#d1d1d1" />
  <path
     id="rect1"
     style="baseline-shift:baseline;display:inline;overflow:visible;vector-effect:none;fill:#000000;stroke:none;stroke-linecap:butt;stroke-linejoin:miter;enable-background:accumulate;stop-color:#000000;stop-opacity:1;opacity:1"
     d="M 4 2.625 C 3.2447365 2.625 2.625 3.2447365 2.625 4 L 2.625 9 C 2.625 9.7552635 3.2447365 10.375 4 10.375 L 20 10.375 C 20.755264 10.375 21.375 9.7552635 21.375 9 L 21.375 4 C 21.375 3.2447365 20.755264 2.625 20 2.625 L 4 2.625 z M 4 3.375 L 20 3.375 C 20.352736 3.375 20.625 3.6472635 20.625 4 L 20.625 9 C 20.625 9.3527365 20.352736 9.625 20 9.625 L 4 9.625 C 3.6472635 9.625 3.375 9.3527365 3.375 9 L 3.375 4 C 3.375 3.6472635 3.6472635 3.375 4 3.375 z M 4 13.625 C 3.2447365 13.625 2.625 14.244736 2.625 15 L 2.625 20 C 2.625 20.755264 3.2447365 21.375 4 21.375 L 9 21.375 C 9.7552635 21.375 10.375 20.755264 10.375 20 L 10.375 15 C 10.375 14.244736 9.7552635 13.625 9 13.625 L 4 13.625 z M 15 13.625 C 14.244736 13.625 13.625 14.244736 13.625 15 L 13.625 20 C 13.625 20.755264 14.244736 21.375 15 21.375 L 20 21.375 C 20.755264 21.375 21.375 20.755264 21.375 20 L 21.375 15 C 21.375 14.244736 20.755264 13.625 20 13.625 L 15 13.625 z M 4 14.375 L 9 14.375 C 9.3527365 14.375 9.625 14.647264 9.625 15 L 9.625 20 C 9.625 20.352736 9.3527365 20.625 9 20.625 L 4 20.625 C 3.6472635 20.625 3.375 20.352736 3.375 20 L 3.375 15 C 3.375 14.647264 3.6472635 14.375 4 14.375 z M 15 14.375 L 20 14.375 C 20.352736 14.375 20.625 14.647264 20.625 15 L 20.625 20 C 20.625 20.352736 20.352736 20.625 20 20.625 L 15 20.625 C 14.647264 20.625 14.375 20.352736 14.375 20 L 14.375 15 C 14.375 14.647264 14.647264 14.375 15 14.375 z " />
</svg>
