<?xml version="1.0" encoding="UTF-8" standalone="no"?>
<svg
   width="24"
   height="24"
   viewBox="0 0 24 24"
   fill="none"
   stroke="currentColor"
   stroke-width="0.75"
   stroke-linecap="round"
   stroke-linejoin="round"
   version="1.1"
   id="svg5"
   sodipodi:docname=".tmp_list-start.svg"
   xmlns:inkscape="http://www.inkscape.org/namespaces/inkscape"
   xmlns:sodipodi="http://sodipodi.sourceforge.net/DTD/sodipodi-0.dtd"
   xmlns="http://www.w3.org/2000/svg"
   xmlns:svg="http://www.w3.org/2000/svg">
  <defs
     id="defs5" />
  <sodipodi:namedview
     id="namedview5"
     pagecolor="#ffffff"
     bordercolor="#000000"
     borderopacity="0.25"
     inkscape:showpageshadow="2"
     inkscape:pageopacity="0.0"
     inkscape:pagecheckerboard="0"
     inkscape:deskcolor="#d1d1d1" />
  <path
     id="path1"
     style="baseline-shift:baseline;display:inline;overflow:visible;vector-effect:none;fill:#000000;stroke:none;stroke-linecap:butt;stroke-linejoin:miter;enable-background:accumulate;stop-color:#000000;stop-opacity:1;opacity:1"
     d="M 16 1.625 A 0.375 0.375 0 0 0 15.734375 1.734375 L 12.734375 4.734375 A 0.3750375 0.3750375 0 0 0 12.625 5 A 0.3750375 0.3750375 0 0 0 12.734375 5.265625 L 15.734375 8.265625 A 0.375 0.375 0 0 0 16.265625 8.265625 A 0.375 0.375 0 0 0 16.265625 7.734375 L 13.90625 5.375 L 19 5.375 C 19.901904 5.375 20.625 6.0980955 20.625 7 L 20.625 19 A 0.375 0.375 0 0 0 21 19.375 A 0.375 0.375 0 0 0 21.375 19 L 21.375 7 C 21.375 5.6927655 20.307235 4.625 19 4.625 L 13.90625 4.625 L 16.265625 2.265625 A 0.375 0.375 0 0 0 16.265625 1.734375 A 0.375 0.375 0 0 0 16 1.625 z M 3 4.625 A 0.375 0.375 0 0 0 2.625 5 A 0.375 0.375 0 0 0 3 5.375 L 9 5.375 A 0.375 0.375 0 0 0 9.375 5 A 0.375 0.375 0 0 0 9 4.625 L 3 4.625 z M 3 11.625 A 0.375 0.375 0 0 0 2.625 12 A 0.375 0.375 0 0 0 3 12.375 L 16 12.375 A 0.375 0.375 0 0 0 16.375 12 A 0.375 0.375 0 0 0 16 11.625 L 3 11.625 z M 3 18.625 A 0.375 0.375 0 0 0 2.625 19 A 0.375 0.375 0 0 0 3 19.375 L 16 19.375 A 0.375 0.375 0 0 0 16.375 19 A 0.375 0.375 0 0 0 16 18.625 L 3 18.625 z " />
</svg>
