<?xml version="1.0" encoding="UTF-8" standalone="no"?>
<svg
   width="24"
   height="24"
   viewBox="0 0 24 24"
   fill="none"
   stroke="currentColor"
   stroke-width="0.75"
   stroke-linecap="round"
   stroke-linejoin="round"
   version="1.1"
   id="svg3"
   sodipodi:docname=".tmp_mars-stroke.svg"
   xmlns:inkscape="http://www.inkscape.org/namespaces/inkscape"
   xmlns:sodipodi="http://sodipodi.sourceforge.net/DTD/sodipodi-0.dtd"
   xmlns="http://www.w3.org/2000/svg"
   xmlns:svg="http://www.w3.org/2000/svg">
  <defs
     id="defs3" />
  <sodipodi:namedview
     id="namedview3"
     pagecolor="#ffffff"
     bordercolor="#000000"
     borderopacity="0.25"
     inkscape:showpageshadow="2"
     inkscape:pageopacity="0.0"
     inkscape:pagecheckerboard="0"
     inkscape:deskcolor="#d1d1d1" />
  <path
     id="path1"
     style="baseline-shift:baseline;display:inline;overflow:visible;vector-effect:none;fill:#000000;stroke:none;stroke-linecap:butt;stroke-linejoin:miter;enable-background:accumulate;stop-color:#000000;stop-opacity:1;opacity:1"
     d="M 17 2.625 A 0.375 0.375 0 0 0 16.625 3 A 0.375 0.375 0 0 0 17 3.375 L 20.09375 3.375 L 16 7.46875 L 14.265625 5.734375 A 0.375 0.375 0 0 0 13.734375 5.734375 A 0.375 0.375 0 0 0 13.734375 6.265625 L 15.46875 8 L 13.232422 10.236328 C 12.106007 9.2344949 10.623249 8.625 9 8.625 C 5.4836265 8.625 2.625 11.483626 2.625 15 C 2.625 18.516374 5.4836265 21.375 9 21.375 C 12.516374 21.375 15.375 18.516374 15.375 15 C 15.375 13.376751 14.765505 11.893993 13.763672 10.767578 L 16 8.53125 L 17.734375 10.265625 A 0.375 0.375 0 0 0 18.265625 10.265625 A 0.375 0.375 0 0 0 18.265625 9.734375 L 16.53125 8 L 20.625 3.90625 L 20.625 7 A 0.375 0.375 0 0 0 21 7.375 A 0.375 0.375 0 0 0 21.375 7 L 21.375 3.0253906 A 0.375 0.375 0 0 0 21.296875 2.7714844 A 0.3750375 0.3750375 0 0 0 21.296875 2.7695312 A 0.375 0.375 0 0 0 21.265625 2.734375 A 0.3750375 0.3750375 0 0 0 21.230469 2.703125 A 0.375 0.375 0 0 0 21.228516 2.703125 A 0.375 0.375 0 0 0 21 2.625 L 17 2.625 z M 9 9.375 C 12.111043 9.375 14.625 11.888957 14.625 15 C 14.625 18.111043 12.111043 20.625 9 20.625 C 5.8889565 20.625 3.375 18.111043 3.375 15 C 3.375 11.888957 5.8889565 9.375 9 9.375 z " />
</svg>
