<?xml version="1.0" encoding="UTF-8" standalone="no"?>
<svg
   width="24"
   height="24"
   viewBox="0 0 24 24"
   fill="none"
   stroke="currentColor"
   stroke-width="0.75"
   stroke-linecap="round"
   stroke-linejoin="round"
   version="1.1"
   id="svg3"
   sodipodi:docname=".tmp_music-4.svg"
   xmlns:inkscape="http://www.inkscape.org/namespaces/inkscape"
   xmlns:sodipodi="http://sodipodi.sourceforge.net/DTD/sodipodi-0.dtd"
   xmlns="http://www.w3.org/2000/svg"
   xmlns:svg="http://www.w3.org/2000/svg">
  <defs
     id="defs3" />
  <sodipodi:namedview
     id="namedview3"
     pagecolor="#ffffff"
     bordercolor="#000000"
     borderopacity="0.25"
     inkscape:showpageshadow="2"
     inkscape:pageopacity="0.0"
     inkscape:pagecheckerboard="0"
     inkscape:deskcolor="#d1d1d1" />
  <path
     id="path1"
     style="baseline-shift:baseline;display:inline;overflow:visible;vector-effect:none;fill:#000000;stroke:none;stroke-linecap:butt;stroke-linejoin:miter;enable-background:accumulate;stop-color:#000000;stop-opacity:1;opacity:1"
     d="M 20.986328 2.625 A 0.3750375 0.3750375 0 0 0 20.9375 2.6308594 L 8.9375 4.6308594 A 0.3750375 0.3750375 0 0 0 8.625 5 L 8.625 15.882812 C 8.0055236 15.116769 7.0585007 14.625 6 14.625 C 4.1404807 14.625 2.625 16.140481 2.625 18 C 2.625 19.859519 4.1404807 21.375 6 21.375 C 7.8595193 21.375 9.375 19.859519 9.375 18 L 9.375 9.3164062 L 20.625 7.4414062 L 20.625 13.882812 C 20.005524 13.116769 19.058501 12.625 18 12.625 C 16.140481 12.625 14.625 14.140481 14.625 16 C 14.625 17.859519 16.140481 19.375 18 19.375 C 19.859519 19.375 21.375 17.859519 21.375 16 L 21.375 3 A 0.3750375 0.3750375 0 0 0 20.986328 2.625 z M 20.625 3.4414062 L 20.625 6.6835938 L 9.375 8.5585938 L 9.375 5.3183594 L 20.625 3.4414062 z M 18 13.375 C 19.454189 13.375 20.625 14.545811 20.625 16 C 20.625 17.454189 19.454189 18.625 18 18.625 C 16.545811 18.625 15.375 17.454189 15.375 16 C 15.375 14.545811 16.545811 13.375 18 13.375 z M 6 15.375 C 7.4541892 15.375 8.625 16.545811 8.625 18 C 8.625 19.454189 7.4541892 20.625 6 20.625 C 4.5458108 20.625 3.375 19.454189 3.375 18 C 3.375 16.545811 4.5458108 15.375 6 15.375 z " />
</svg>
