<?xml version="1.0" encoding="UTF-8" standalone="no"?>
<svg
   width="24"
   height="24"
   viewBox="0 0 24 24"
   fill="none"
   stroke="currentColor"
   stroke-width="0.75"
   stroke-linecap="round"
   stroke-linejoin="round"
   version="1.1"
   id="svg2"
   sodipodi:docname=".tmp_option.svg"
   xmlns:inkscape="http://www.inkscape.org/namespaces/inkscape"
   xmlns:sodipodi="http://sodipodi.sourceforge.net/DTD/sodipodi-0.dtd"
   xmlns="http://www.w3.org/2000/svg"
   xmlns:svg="http://www.w3.org/2000/svg">
  <defs
     id="defs2" />
  <sodipodi:namedview
     id="namedview2"
     pagecolor="#ffffff"
     bordercolor="#000000"
     borderopacity="0.25"
     inkscape:showpageshadow="2"
     inkscape:pageopacity="0.0"
     inkscape:pagecheckerboard="0"
     inkscape:deskcolor="#d1d1d1" />
  <path
     id="path1"
     style="baseline-shift:baseline;display:inline;overflow:visible;vector-effect:none;fill:#000000;stroke:none;stroke-linecap:butt;stroke-linejoin:miter;enable-background:accumulate;stop-color:#000000;stop-opacity:1;opacity:1"
     d="M 3 2.625 A 0.375 0.375 0 0 0 2.625 3 A 0.375 0.375 0 0 0 3 3.375 L 8.7304688 3.375 L 14.644531 21.119141 A 0.3750375 0.3750375 0 0 0 15 21.375 L 21 21.375 A 0.375 0.375 0 0 0 21.375 21 A 0.375 0.375 0 0 0 21 20.625 L 15.269531 20.625 L 9.3554688 2.8808594 A 0.3750375 0.3750375 0 0 0 9 2.625 L 3 2.625 z M 14 2.625 A 0.375 0.375 0 0 0 13.625 3 A 0.375 0.375 0 0 0 14 3.375 L 21 3.375 A 0.375 0.375 0 0 0 21.375 3 A 0.375 0.375 0 0 0 21 2.625 L 14 2.625 z " />
</svg>
