<?xml version="1.0" encoding="UTF-8" standalone="no"?>
<svg
   width="24"
   height="24"
   viewBox="0 0 24 24"
   fill="none"
   stroke="currentColor"
   stroke-width="0.75"
   stroke-linecap="round"
   stroke-linejoin="round"
   version="1.1"
   id="svg2"
   sodipodi:docname=".tmp_percent.svg"
   xmlns:inkscape="http://www.inkscape.org/namespaces/inkscape"
   xmlns:sodipodi="http://sodipodi.sourceforge.net/DTD/sodipodi-0.dtd"
   xmlns="http://www.w3.org/2000/svg"
   xmlns:svg="http://www.w3.org/2000/svg">
  <defs
     id="defs2" />
  <sodipodi:namedview
     id="namedview2"
     pagecolor="#ffffff"
     bordercolor="#000000"
     borderopacity="0.25"
     inkscape:showpageshadow="2"
     inkscape:pageopacity="0.0"
     inkscape:pagecheckerboard="0"
     inkscape:deskcolor="#d1d1d1" />
  <path
     id="line1"
     style="baseline-shift:baseline;display:inline;overflow:visible;vector-effect:none;fill:#000000;stroke:none;stroke-linecap:butt;stroke-linejoin:miter;enable-background:accumulate;stop-color:#000000;stop-opacity:1;opacity:1"
     d="M 6.5 3.625 C 4.9166231 3.625 3.625 4.9166231 3.625 6.5 C 3.625 8.0833769 4.9166231 9.375 6.5 9.375 C 8.0833769 9.375 9.375 8.0833769 9.375 6.5 C 9.375 4.9166231 8.0833769 3.625 6.5 3.625 z M 6.5 4.375 C 7.6780468 4.375 8.625 5.3219532 8.625 6.5 C 8.625 7.6780468 7.6780468 8.625 6.5 8.625 C 5.3219532 8.625 4.375 7.6780468 4.375 6.5 C 4.375 5.3219532 5.3219532 4.375 6.5 4.375 z M 19 4.625 A 0.375 0.375 0 0 0 18.734375 4.734375 L 4.734375 18.734375 A 0.375 0.375 0 0 0 4.734375 19.265625 A 0.375 0.375 0 0 0 5.265625 19.265625 L 19.265625 5.265625 A 0.375 0.375 0 0 0 19.265625 4.734375 A 0.375 0.375 0 0 0 19 4.625 z M 17.5 14.625 C 15.916623 14.625 14.625 15.916623 14.625 17.5 C 14.625 19.083377 15.916623 20.375 17.5 20.375 C 19.083377 20.375 20.375 19.083377 20.375 17.5 C 20.375 15.916623 19.083377 14.625 17.5 14.625 z M 17.5 15.375 C 18.678047 15.375 19.625 16.321953 19.625 17.5 C 19.625 18.678047 18.678047 19.625 17.5 19.625 C 16.321953 19.625 15.375 18.678047 15.375 17.5 C 15.375 16.321953 16.321953 15.375 17.5 15.375 z " />
</svg>
