<?xml version="1.0" encoding="UTF-8" standalone="no"?>
<svg
   width="24"
   height="24"
   viewBox="0 0 24 24"
   fill="none"
   stroke="currentColor"
   stroke-width="0.75"
   stroke-linecap="round"
   stroke-linejoin="round"
   version="1.1"
   id="svg3"
   sodipodi:docname=".tmp_pipette.svg"
   xmlns:inkscape="http://www.inkscape.org/namespaces/inkscape"
   xmlns:sodipodi="http://sodipodi.sourceforge.net/DTD/sodipodi-0.dtd"
   xmlns="http://www.w3.org/2000/svg"
   xmlns:svg="http://www.w3.org/2000/svg">
  <defs
     id="defs3" />
  <sodipodi:namedview
     id="namedview3"
     pagecolor="#ffffff"
     bordercolor="#000000"
     borderopacity="0.25"
     inkscape:showpageshadow="2"
     inkscape:pageopacity="0.0"
     inkscape:pagecheckerboard="0"
     inkscape:deskcolor="#d1d1d1" />
  <path
     id="path1"
     style="baseline-shift:baseline;display:inline;overflow:visible;vector-effect:none;fill:#000000;stroke:none;stroke-linecap:butt;stroke-linejoin:miter;enable-background:accumulate;stop-color:#000000;stop-opacity:1;opacity:1"
     d="M 19.775391 1.5683594 C 19.212404 1.596021 18.63027 1.8384797 18.134766 2.3339844 L 15 5.46875 L 14.865234 5.3339844 C 14.298943 4.7676933 13.618895 4.5329877 12.984375 4.5703125 C 12.349855 4.6076375 11.76791 4.9000588 11.333984 5.3339844 C 10.900059 5.7679099 10.607636 6.3498554 10.570312 6.984375 C 10.532982 7.6188946 10.767693 8.2989433 11.333984 8.8652344 L 11.46875 9 L 3.3203125 17.148438 C 2.8749846 17.593631 2.6251345 18.198431 2.625 18.828125 L 2.625 20.171875 C 2.624908 20.602577 2.4527983 21.015615 2.1484375 21.320312 L 1.734375 21.734375 A 0.375 0.375 0 0 0 1.734375 22.265625 A 0.375 0.375 0 0 0 2.265625 22.265625 L 2.6796875 21.851562 C 2.9843854 21.547202 3.397423 21.375092 3.828125 21.375 L 5.171875 21.375 C 5.8015687 21.374866 6.4063691 21.125015 6.8515625 20.679688 L 15 12.53125 L 15.134766 12.666016 C 15.701057 13.232307 16.381105 13.467011 17.015625 13.429688 C 17.650145 13.392357 18.23209 13.099941 18.666016 12.666016 C 19.099941 12.23209 19.392364 11.650145 19.429688 11.015625 C 19.467008 10.381105 19.232307 9.7010567 18.666016 9.1347656 L 18.53125 9 L 21.666016 5.8652344 C 22.232307 5.2989433 22.467012 4.6188946 22.429688 3.984375 C 22.392363 3.3498554 22.099941 2.7679099 21.666016 2.3339844 C 21.23209 1.9000588 20.650145 1.6076373 20.015625 1.5703125 C 19.93631 1.5656469 19.855817 1.5644077 19.775391 1.5683594 z M 19.810547 2.3164062 C 19.86452 2.3141857 19.919159 2.3152124 19.972656 2.3183594 C 20.400636 2.3435344 20.818691 2.5491599 21.134766 2.8652344 C 21.45084 3.1813088 21.656465 3.5993636 21.681641 4.0273438 C 21.706821 4.455324 21.568474 4.9002759 21.134766 5.3339844 L 17.734375 8.734375 A 0.3750375 0.3750375 0 0 0 17.734375 9.265625 L 18.134766 9.6660156 C 18.568474 10.099724 18.706816 10.544676 18.681641 10.972656 C 18.656461 11.400636 18.45084 11.818691 18.134766 12.134766 C 17.818691 12.45084 17.400636 12.656465 16.972656 12.681641 C 16.544676 12.706811 16.099724 12.568474 15.666016 12.134766 L 12.267578 8.7363281 A 0.375 0.375 0 0 0 12.265625 8.734375 A 0.375 0.375 0 0 0 12.263672 8.7324219 L 11.865234 8.3339844 C 11.431526 7.9002759 11.293184 7.455324 11.318359 7.0273438 C 11.343539 6.5993636 11.54916 6.1813088 11.865234 5.8652344 C 12.181309 5.5491599 12.599364 5.3435348 13.027344 5.3183594 C 13.455324 5.2931844 13.900276 5.4315259 14.333984 5.8652344 L 14.734375 6.265625 A 0.3750375 0.3750375 0 0 0 15.265625 6.265625 L 18.666016 2.8652344 C 19.04551 2.4857394 19.432738 2.3319498 19.810547 2.3164062 z M 12 9.53125 L 14.46875 12 L 6.3203125 20.148438 C 6.015535 20.453307 5.6029606 20.624908 5.171875 20.625 L 3.828125 20.625 C 3.5381538 20.625062 3.3208175 20.844511 3.0546875 20.945312 C 3.1554893 20.679182 3.3749381 20.461846 3.375 20.171875 L 3.375 18.828125 C 3.3750921 18.397039 3.5466929 17.984465 3.8515625 17.679688 L 12 9.53125 z " />
</svg>
