<?xml version="1.0" encoding="UTF-8" standalone="no"?>
<svg
   width="24"
   height="24"
   viewBox="0 0 24 24"
   fill="none"
   stroke="currentColor"
   stroke-width="0.75"
   stroke-linecap="round"
   stroke-linejoin="round"
   version="1.1"
   id="svg3"
   sodipodi:docname=".tmp_rectangle-ellipsis.svg"
   xmlns:inkscape="http://www.inkscape.org/namespaces/inkscape"
   xmlns:sodipodi="http://sodipodi.sourceforge.net/DTD/sodipodi-0.dtd"
   xmlns="http://www.w3.org/2000/svg"
   xmlns:svg="http://www.w3.org/2000/svg">
  <defs
     id="defs3" />
  <sodipodi:namedview
     id="namedview3"
     pagecolor="#ffffff"
     bordercolor="#000000"
     borderopacity="0.25"
     inkscape:showpageshadow="2"
     inkscape:pageopacity="0.0"
     inkscape:pagecheckerboard="0"
     inkscape:deskcolor="#d1d1d1" />
  <path
     id="rect1"
     style="baseline-shift:baseline;display:inline;overflow:visible;vector-effect:none;fill:#000000;stroke:none;stroke-linecap:butt;stroke-linejoin:miter;enable-background:accumulate;stop-color:#000000;stop-opacity:1;opacity:1"
     d="M 4 5.625 C 2.6907365 5.625 1.625 6.6907365 1.625 8 L 1.625 16 C 1.625 17.309264 2.6907365 18.375 4 18.375 L 20 18.375 C 21.309264 18.375 22.375 17.309264 22.375 16 L 22.375 8 C 22.375 6.6907365 21.309264 5.625 20 5.625 L 4 5.625 z M 4 6.375 L 20 6.375 C 20.906736 6.375 21.625 7.0932635 21.625 8 L 21.625 16 C 21.625 16.906736 20.906736 17.625 20 17.625 L 4 17.625 C 3.0932635 17.625 2.375 16.906736 2.375 16 L 2.375 8 C 2.375 7.0932635 3.0932635 6.375 4 6.375 z M 7 11.625 A 0.375 0.375 0 0 0 6.625 12 A 0.375 0.375 0 0 0 7 12.375 L 7.0097656 12.375 A 0.375 0.375 0 0 0 7.3847656 12 A 0.375 0.375 0 0 0 7.0097656 11.625 L 7 11.625 z M 12 11.625 A 0.375 0.375 0 0 0 11.625 12 A 0.375 0.375 0 0 0 12 12.375 L 12.009766 12.375 A 0.375 0.375 0 0 0 12.384766 12 A 0.375 0.375 0 0 0 12.009766 11.625 L 12 11.625 z M 17 11.625 A 0.375 0.375 0 0 0 16.625 12 A 0.375 0.375 0 0 0 17 12.375 L 17.009766 12.375 A 0.375 0.375 0 0 0 17.384766 12 A 0.375 0.375 0 0 0 17.009766 11.625 L 17 11.625 z " />
</svg>
