<?xml version="1.0" encoding="UTF-8" standalone="no"?>
<svg
   width="24"
   height="24"
   viewBox="0 0 24 24"
   fill="none"
   stroke="currentColor"
   stroke-width="0.75"
   stroke-linecap="round"
   stroke-linejoin="round"
   version="1.1"
   id="svg5"
   sodipodi:docname=".tmp_remove-formatting.svg"
   xmlns:inkscape="http://www.inkscape.org/namespaces/inkscape"
   xmlns:sodipodi="http://sodipodi.sourceforge.net/DTD/sodipodi-0.dtd"
   xmlns="http://www.w3.org/2000/svg"
   xmlns:svg="http://www.w3.org/2000/svg">
  <defs
     id="defs5" />
  <sodipodi:namedview
     id="namedview5"
     pagecolor="#ffffff"
     bordercolor="#000000"
     borderopacity="0.25"
     inkscape:showpageshadow="2"
     inkscape:pageopacity="0.0"
     inkscape:pagecheckerboard="0"
     inkscape:deskcolor="#d1d1d1" />
  <path
     id="path1"
     style="baseline-shift:baseline;display:inline;overflow:visible;vector-effect:none;fill:#000000;stroke:none;stroke-linecap:butt;stroke-linejoin:miter;enable-background:accumulate;stop-color:#000000;stop-opacity:1;opacity:1"
     d="M 4 3.625 A 0.3750375 0.3750375 0 0 0 3.625 4 L 3.625 7 A 0.375 0.375 0 0 0 4 7.375 A 0.375 0.375 0 0 0 4.375 7 L 4.375 4.375 L 12.490234 4.375 L 7.7246094 19.625 L 5 19.625 A 0.375 0.375 0 0 0 4.625 20 A 0.375 0.375 0 0 0 5 20.375 L 11 20.375 A 0.375 0.375 0 0 0 11.375 20 A 0.375 0.375 0 0 0 11 19.625 L 8.5097656 19.625 L 13.275391 4.375 L 19.625 4.375 L 19.625 7 A 0.375 0.375 0 0 0 20 7.375 A 0.375 0.375 0 0 0 20.375 7 L 20.375 4 A 0.3750375 0.3750375 0 0 0 20 3.625 L 4 3.625 z M 15 14.625 A 0.375 0.375 0 0 0 14.734375 14.734375 A 0.375 0.375 0 0 0 14.734375 15.265625 L 16.96875 17.5 L 14.734375 19.734375 A 0.375 0.375 0 0 0 14.734375 20.265625 A 0.375 0.375 0 0 0 15.265625 20.265625 L 17.5 18.03125 L 19.734375 20.265625 A 0.375 0.375 0 0 0 20.265625 20.265625 A 0.375 0.375 0 0 0 20.265625 19.734375 L 18.03125 17.5 L 20.265625 15.265625 A 0.375 0.375 0 0 0 20.265625 14.734375 A 0.375 0.375 0 0 0 19.734375 14.734375 L 17.5 16.96875 L 15.265625 14.734375 A 0.375 0.375 0 0 0 15 14.625 z " />
</svg>
