<?xml version="1.0" encoding="UTF-8" standalone="no"?>
<svg
   width="24"
   height="24"
   viewBox="0 0 24 24"
   fill="none"
   stroke="currentColor"
   stroke-width="0.75"
   stroke-linecap="round"
   stroke-linejoin="round"
   version="1.1"
   id="svg5"
   sodipodi:docname=".tmp_satellite.svg"
   xmlns:inkscape="http://www.inkscape.org/namespaces/inkscape"
   xmlns:sodipodi="http://sodipodi.sourceforge.net/DTD/sodipodi-0.dtd"
   xmlns="http://www.w3.org/2000/svg"
   xmlns:svg="http://www.w3.org/2000/svg">
  <defs
     id="defs5" />
  <sodipodi:namedview
     id="namedview5"
     pagecolor="#ffffff"
     bordercolor="#000000"
     borderopacity="0.25"
     inkscape:showpageshadow="2"
     inkscape:pageopacity="0.0"
     inkscape:pagecheckerboard="0"
     inkscape:deskcolor="#d1d1d1" />
  <path
     id="path1"
     style="baseline-shift:baseline;display:inline;overflow:visible;vector-effect:none;fill:#000000;stroke:none;stroke-linecap:butt;stroke-linejoin:miter;enable-background:accumulate;stop-color:#000000;stop-opacity:1;opacity:1"
     d="M 9.5 2.6269531 C 9.0948948 2.6269531 8.6897474 2.7790485 8.3828125 3.0859375 L 6.0859375 5.3828125 C 5.4721595 5.9966822 5.4721595 7.0033178 6.0859375 7.6171875 L 8.9746094 10.505859 C 8.4743938 11.124477 8.5117129 12.042877 9.0859375 12.617188 L 11.382812 14.914062 C 11.957122 15.488286 12.875522 15.525605 13.494141 15.025391 L 16.382812 17.914062 C 16.996682 18.52784 18.003318 18.52784 18.617188 17.914062 L 20.914062 15.617188 C 21.52784 15.003317 21.52784 13.996681 20.914062 13.382812 L 18.025391 10.494141 C 18.525606 9.8755225 18.488287 8.9571226 17.914062 8.3828125 L 17.03125 7.5 L 19.265625 5.265625 A 0.375 0.375 0 0 0 19.265625 4.734375 A 0.375 0.375 0 0 0 18.734375 4.734375 L 16.5 6.96875 L 15.617188 6.0859375 C 15.310252 5.7790485 14.905105 5.6269531 14.5 5.6269531 C 14.147121 5.6269531 13.79386 5.7420114 13.505859 5.9746094 L 10.617188 3.0859375 C 10.310252 2.7790485 9.9051052 2.6269531 9.5 2.6269531 z M 9.5 3.3710938 C 9.7111526 3.3710938 9.9223049 3.4535796 10.085938 3.6171875 L 12.96875 6.5 L 9.5 9.96875 L 6.6171875 7.0859375 C 6.2899717 6.7586728 6.2899717 6.2413272 6.6171875 5.9140625 L 8.9140625 3.6171875 C 9.0776949 3.4535796 9.2888474 3.3710938 9.5 3.3710938 z M 14.5 6.3710938 C 14.711153 6.3710938 14.922305 6.4535796 15.085938 6.6171875 L 16.234375 7.765625 L 17.382812 8.9140625 C 17.710028 9.2413272 17.710028 9.7586723 17.382812 10.085938 L 17.234375 10.234375 L 13.236328 14.232422 A 0.375 0.375 0 0 0 13.234375 14.234375 A 0.375 0.375 0 0 0 13.232422 14.236328 L 13.085938 14.382812 C 12.758672 14.710028 12.241326 14.710028 11.914062 14.382812 L 9.6171875 12.085938 C 9.2899717 11.758672 9.2899717 11.241326 9.6171875 10.914062 L 9.765625 10.765625 L 13.765625 6.765625 L 13.914062 6.6171875 C 14.077694 6.4535796 14.288847 6.3710938 14.5 6.3710938 z M 17.5 11.03125 L 20.382812 13.914062 C 20.710028 14.241326 20.710028 14.758672 20.382812 15.085938 L 18.085938 17.382812 C 17.758674 17.710028 17.241328 17.710028 16.914062 17.382812 L 14.03125 14.5 L 17.5 11.03125 z M 3 14.625 A 0.375 0.375 0 0 0 2.625 15 A 0.375 0.375 0 0 0 3 15.375 C 6.1110435 15.375 8.625 17.888957 8.625 21 A 0.375 0.375 0 0 0 9 21.375 A 0.375 0.375 0 0 0 9.375 21 C 9.375 17.483626 6.5163735 14.625 3 14.625 z " />
</svg>
