<?xml version="1.0" encoding="UTF-8" standalone="no"?>
<svg
   width="24"
   height="24"
   viewBox="0 0 24 24"
   fill="none"
   stroke="currentColor"
   stroke-width="0.75"
   stroke-linecap="round"
   stroke-linejoin="round"
   version="1.1"
   id="svg3"
   sodipodi:docname=".tmp_sprout.svg"
   xmlns:inkscape="http://www.inkscape.org/namespaces/inkscape"
   xmlns:sodipodi="http://sodipodi.sourceforge.net/DTD/sodipodi-0.dtd"
   xmlns="http://www.w3.org/2000/svg"
   xmlns:svg="http://www.w3.org/2000/svg">
  <defs
     id="defs3" />
  <sodipodi:namedview
     id="namedview3"
     pagecolor="#ffffff"
     bordercolor="#000000"
     borderopacity="0.25"
     inkscape:showpageshadow="2"
     inkscape:pageopacity="0.0"
     inkscape:pagecheckerboard="0"
     inkscape:deskcolor="#d1d1d1" />
  <path
     id="path1"
     style="baseline-shift:baseline;display:inline;overflow:visible;vector-effect:none;fill:#000000;stroke:none;stroke-linecap:butt;stroke-linejoin:miter;enable-background:accumulate;stop-color:#000000;stop-opacity:1;opacity:1"
     d="M 18 2.625 C 15.588196 2.625 13.625 4.588196 13.625 7 L 13.625 9.4238281 C 12.963941 9.8651595 12.413344 10.461421 12.058594 11.167969 C 11.238434 8.8979153 8.9413894 7.4804862 6.6054688 7.6367188 C 5.6340074 7.7016927 4.656518 8.0383732 3.7753906 8.6992188 A 0.375 0.375 0 0 0 3.75 8.875 A 0.375 0.375 0 0 0 3.625 9 C 3.625 13.175981 8.1851598 15.673921 11.662109 13.671875 C 11.744161 14.417572 11.950067 15.035748 12.144531 15.619141 C 12.394531 16.369141 12.625 17.0625 12.625 18 C 12.625 18.938917 12.337904 19.854284 11.806641 20.625 L 5 20.625 A 0.375 0.375 0 0 0 4.625 21 A 0.375 0.375 0 0 0 5 21.375 L 11.980469 21.375 L 12.019531 21.375 L 19 21.375 A 0.375 0.375 0 0 0 19.375 21 A 0.375 0.375 0 0 0 19 20.625 L 12.691406 20.625 C 13.138266 19.826399 13.375 18.92316 13.375 18 C 13.375 16.9375 13.105469 16.130859 12.855469 15.380859 C 12.605547 14.631094 12.375144 13.937054 12.375 13 C 12.375 10.993526 13.993526 9.375 16 9.375 C 18.411804 9.375 20.375 7.411804 20.375 5 L 20.375 3.5 C 20.375 3.0211926 19.978807 2.625 19.5 2.625 L 18 2.625 z M 18 3.375 L 19.5 3.375 C 19.57348 3.375 19.625 3.426523 19.625 3.5 L 19.625 5 C 19.625 7.006474 18.006474 8.625 16 8.625 C 15.424063 8.625 14.879148 8.749847 14.375 8.953125 L 14.375 7 C 14.375 4.993526 15.993526 3.375 18 3.375 z M 7.1308594 8.359375 C 9.3958168 8.4271784 11.435956 10.213227 11.5625 12.78125 C 8.5778544 14.797564 4.6147822 12.816441 4.4375 9.21875 C 5.1496837 8.7376256 5.9110967 8.4244447 6.6757812 8.3691406 C 6.8282804 8.3581115 6.9798622 8.3548548 7.1308594 8.359375 z " />
</svg>
