<?xml version="1.0" encoding="UTF-8" standalone="no"?>
<svg
   width="24"
   height="24"
   viewBox="0 0 24 24"
   fill="none"
   stroke="currentColor"
   stroke-width="0.75"
   stroke-linecap="round"
   stroke-linejoin="round"
   version="1.1"
   id="svg3"
   sodipodi:docname=".tmp_stamp.svg"
   xmlns:inkscape="http://www.inkscape.org/namespaces/inkscape"
   xmlns:sodipodi="http://sodipodi.sourceforge.net/DTD/sodipodi-0.dtd"
   xmlns="http://www.w3.org/2000/svg"
   xmlns:svg="http://www.w3.org/2000/svg">
  <defs
     id="defs3" />
  <sodipodi:namedview
     id="namedview3"
     pagecolor="#ffffff"
     bordercolor="#000000"
     borderopacity="0.25"
     inkscape:showpageshadow="2"
     inkscape:pageopacity="0.0"
     inkscape:pagecheckerboard="0"
     inkscape:deskcolor="#d1d1d1" />
  <path
     id="path1"
     style="baseline-shift:baseline;display:inline;overflow:visible;vector-effect:none;fill:#000000;stroke:none;stroke-linecap:butt;stroke-linejoin:miter;enable-background:accumulate;stop-color:#000000;stop-opacity:1;opacity:1"
     d="M 12 1.625 C 11.166667 1.625 10.327318 1.9000229 9.6875 2.46875 C 9.0476818 3.0374771 8.625 3.9062504 8.625 5 C 8.625 6.0625 8.9161952 6.6721893 9.1738281 7.1230469 C 9.431461 7.5739045 9.625 7.8333333 9.625 8.5 L 9.625 12.625 L 6.5 12.625 C 4.9166231 12.625 3.625 13.916623 3.625 15.5 L 3.625 17 C 3.625 17.75495 4.2450502 18.375 5 18.375 L 19 18.375 C 19.75495 18.375 20.375 17.75495 20.375 17 L 20.375 15.5 C 20.375 13.916623 19.083377 12.625 17.5 12.625 L 14.375 12.625 L 14.375 8.5 C 14.375 7.8333333 14.568539 7.5739045 14.826172 7.1230469 C 15.083805 6.6721893 15.375 6.0625 15.375 5 C 15.375 3.9062504 14.952318 3.0374771 14.3125 2.46875 C 13.672682 1.9000229 12.833333 1.625 12 1.625 z M 12 2.375 C 12.666667 2.375 13.327318 2.5999775 13.8125 3.03125 C 14.297682 3.4625225 14.625 4.0937505 14.625 5 C 14.625 5.9375 14.416195 6.3278107 14.173828 6.7519531 C 13.931461 7.1760955 13.625 7.6666667 13.625 8.5 L 13.625 12.625 L 10.375 12.625 L 10.375 8.5 C 10.375 7.6666667 10.068539 7.1760955 9.8261719 6.7519531 C 9.5838048 6.3278107 9.375 5.9375 9.375 5 C 9.375 4.0937505 9.7023182 3.4625225 10.1875 3.03125 C 10.672682 2.5999775 11.333333 2.375 12 2.375 z M 6.5 13.375 L 17.5 13.375 C 18.678047 13.375 19.625 14.321953 19.625 15.5 L 19.625 17 C 19.625 17.34962 19.34962 17.625 19 17.625 L 5 17.625 C 4.6503803 17.625 4.375 17.34962 4.375 17 L 4.375 15.5 C 4.375 14.321953 5.3219532 13.375 6.5 13.375 z M 5 21.625 A 0.375 0.375 0 0 0 4.625 22 A 0.375 0.375 0 0 0 5 22.375 L 19 22.375 A 0.375 0.375 0 0 0 19.375 22 A 0.375 0.375 0 0 0 19 21.625 L 5 21.625 z " />
</svg>
