<?xml version="1.0" encoding="UTF-8" standalone="no"?>
<svg
   width="24"
   height="24"
   viewBox="0 0 24 24"
   fill="none"
   stroke="currentColor"
   stroke-width="0.75"
   stroke-linecap="round"
   stroke-linejoin="round"
   version="1.1"
   id="svg4"
   sodipodi:docname=".tmp_text-wrap.svg"
   xmlns:inkscape="http://www.inkscape.org/namespaces/inkscape"
   xmlns:sodipodi="http://sodipodi.sourceforge.net/DTD/sodipodi-0.dtd"
   xmlns="http://www.w3.org/2000/svg"
   xmlns:svg="http://www.w3.org/2000/svg">
  <defs
     id="defs4" />
  <sodipodi:namedview
     id="namedview4"
     pagecolor="#ffffff"
     bordercolor="#000000"
     borderopacity="0.25"
     inkscape:showpageshadow="2"
     inkscape:pageopacity="0.0"
     inkscape:pagecheckerboard="0"
     inkscape:deskcolor="#d1d1d1" />
  <path
     id="path1"
     style="baseline-shift:baseline;display:inline;overflow:visible;vector-effect:none;fill:#000000;stroke:none;stroke-linecap:butt;stroke-linejoin:miter;enable-background:accumulate;stop-color:#000000;stop-opacity:1;opacity:1"
     d="M 3 4.625 A 0.375 0.375 0 0 0 2.625 5 A 0.375 0.375 0 0 0 3 5.375 L 21 5.375 A 0.375 0.375 0 0 0 21.375 5 A 0.375 0.375 0 0 0 21 4.625 L 3 4.625 z M 3 11.625 A 0.375 0.375 0 0 0 2.625 12 A 0.375 0.375 0 0 0 3 12.375 L 17.5 12.375 C 18.572916 12.375 19.329144 12.764818 19.84375 13.34375 C 20.358356 13.922682 20.625 14.708333 20.625 15.5 C 20.625 16.291667 20.358356 17.077318 19.84375 17.65625 C 19.329144 18.235182 18.572916 18.625 17.5 18.625 L 13.90625 18.625 L 16.265625 16.265625 A 0.375 0.375 0 0 0 16.265625 15.734375 A 0.375 0.375 0 0 0 15.734375 15.734375 L 12.734375 18.734375 A 0.3750375 0.3750375 0 0 0 12.734375 19.265625 L 15.734375 22.265625 A 0.375 0.375 0 0 0 16.265625 22.265625 A 0.375 0.375 0 0 0 16.265625 21.734375 L 13.90625 19.375 L 17.5 19.375 C 18.760416 19.375 19.75419 18.889818 20.40625 18.15625 C 21.05831 17.422682 21.375 16.458333 21.375 15.5 C 21.375 14.541667 21.05831 13.577318 20.40625 12.84375 C 19.75419 12.110182 18.760416 11.625 17.5 11.625 L 3 11.625 z M 3 18.625 A 0.375 0.375 0 0 0 2.625 19 A 0.375 0.375 0 0 0 3 19.375 L 9 19.375 A 0.375 0.375 0 0 0 9.375 19 A 0.375 0.375 0 0 0 9 18.625 L 3 18.625 z " />
</svg>
