<?xml version="1.0" encoding="UTF-8" standalone="no"?>
<svg
   width="24"
   height="24"
   viewBox="0 0 24 24"
   fill="none"
   stroke="currentColor"
   stroke-width="0.75"
   stroke-linecap="round"
   stroke-linejoin="round"
   version="1.1"
   id="svg8"
   sodipodi:docname=".tmp_tractor.svg"
   xmlns:inkscape="http://www.inkscape.org/namespaces/inkscape"
   xmlns:sodipodi="http://sodipodi.sourceforge.net/DTD/sodipodi-0.dtd"
   xmlns="http://www.w3.org/2000/svg"
   xmlns:svg="http://www.w3.org/2000/svg">
  <defs
     id="defs8" />
  <sodipodi:namedview
     id="namedview8"
     pagecolor="#ffffff"
     bordercolor="#000000"
     borderopacity="0.25"
     inkscape:showpageshadow="2"
     inkscape:pageopacity="0.0"
     inkscape:pagecheckerboard="0"
     inkscape:deskcolor="#d1d1d1" />
  <path
     id="path1"
     style="baseline-shift:baseline;display:inline;overflow:visible;vector-effect:none;fill:#000000;stroke:none;stroke-linecap:butt;stroke-linejoin:miter;enable-background:accumulate;stop-color:#000000;stop-opacity:1;opacity:1"
     d="M 3 3.625 A 0.375 0.375 0 0 0 2.625 4 A 0.375 0.375 0 0 0 3 4.375 L 3.625 4.375 L 3.625 10.820312 C 2.4057958 11.806444 1.625 13.313178 1.625 15 C 1.625 17.964089 4.0359112 20.375 7 20.375 C 8.6868224 20.375 10.193556 19.594204 11.179688 18.375 L 15.654297 18.375 C 15.835201 19.505417 16.820301 20.375 18 20.375 C 19.184819 20.375 20.172986 19.496961 20.347656 18.359375 C 20.932236 18.272786 21.410261 17.814255 21.505859 17.216797 L 22.169922 13.058594 A 0.3750375 0.3750375 0 0 0 22.171875 13.044922 C 22.256915 12.334096 21.774711 11.66936 21.072266 11.53125 A 0.3750375 0.3750375 0 0 0 21.03125 11.525391 L 17.375 11.226562 L 17.375 6 C 17.375 5.6503803 17.65038 5.375 18 5.375 A 0.375 0.375 0 0 0 18.375 5 A 0.375 0.375 0 0 0 18 4.625 C 17.24505 4.625 16.625 5.2450502 16.625 6 L 16.625 11.166016 L 13.330078 10.896484 L 12.490234 4.8125 C 12.396598 4.1354688 11.812382 3.6253903 11.128906 3.625 L 3 3.625 z M 4.375 4.375 L 7.625 4.375 L 7.625 9.6601562 C 7.4199288 9.63631 7.2113709 9.625 7 9.625 C 6.0472893 9.625 5.151727 9.8740944 4.375 10.310547 L 4.375 4.375 z M 8.375 4.375 L 11.128906 4.375 C 11.44369 4.3751798 11.704922 4.6022468 11.748047 4.9140625 L 12.564453 10.833984 L 10.134766 10.634766 C 9.6108866 10.257565 9.0158279 9.9723874 8.375 9.8027344 L 8.375 4.375 z M 7 10.375 C 8.0309588 10.375 8.9818865 10.711367 9.75 11.279297 A 0.375 0.375 0 0 0 9.8027344 11.318359 C 10.91094 12.162451 11.625 13.495958 11.625 15 C 11.625 16.027914 11.291444 16.97722 10.726562 17.744141 A 0.375 0.375 0 0 0 10.677734 17.808594 C 9.833385 18.913131 8.5011312 19.625 7 19.625 C 4.4412413 19.625 2.375 17.558759 2.375 15 C 2.375 13.498869 3.0868693 12.166615 4.1914062 11.322266 A 0.375 0.375 0 0 0 4.2558594 11.273438 C 5.0227805 10.708556 5.9720861 10.375 7 10.375 z M 11.042969 11.460938 L 12.939453 11.615234 A 0.375 0.375 0 0 0 12.994141 11.621094 L 20.929688 12.269531 C 21.252226 12.334561 21.466865 12.627984 21.427734 12.955078 L 20.765625 17.099609 C 20.727342 17.338878 20.55928 17.525876 20.339844 17.595703 C 20.146541 16.479848 19.169305 15.625 18 15.625 C 16.820301 15.625 15.835201 16.494583 15.654297 17.625 L 11.689453 17.625 C 12.125906 16.848273 12.375 15.952711 12.375 15 C 12.375 13.645757 11.872314 12.407063 11.042969 11.460938 z M 7 14.625 A 0.375 0.375 0 0 0 6.625 15 A 0.375 0.375 0 0 0 7 15.375 L 7.0097656 15.375 A 0.375 0.375 0 0 0 7.3847656 15 A 0.375 0.375 0 0 0 7.0097656 14.625 L 7 14.625 z M 18 16.375 C 18.901904 16.375 19.625 17.098096 19.625 18 C 19.625 18.901904 18.901904 19.625 18 19.625 C 17.098096 19.625 16.375 18.901904 16.375 18 C 16.375 17.098096 17.098096 16.375 18 16.375 z " />
</svg>
