<?xml version="1.0" encoding="UTF-8" standalone="no"?>
<svg
   width="24"
   height="24"
   viewBox="0 0 24 24"
   fill="none"
   stroke="currentColor"
   stroke-width="0.75"
   stroke-linecap="round"
   stroke-linejoin="round"
   version="1.1"
   id="svg5"
   sodipodi:docname=".tmp_umbrella-off.svg"
   xmlns:inkscape="http://www.inkscape.org/namespaces/inkscape"
   xmlns:sodipodi="http://sodipodi.sourceforge.net/DTD/sodipodi-0.dtd"
   xmlns="http://www.w3.org/2000/svg"
   xmlns:svg="http://www.w3.org/2000/svg">
  <defs
     id="defs5" />
  <sodipodi:namedview
     id="namedview5"
     pagecolor="#ffffff"
     bordercolor="#000000"
     borderopacity="0.25"
     inkscape:showpageshadow="2"
     inkscape:pageopacity="0.0"
     inkscape:pagecheckerboard="0"
     inkscape:deskcolor="#d1d1d1" />
  <path
     id="path1"
     style="baseline-shift:baseline;display:inline;overflow:visible;vector-effect:none;fill:#000000;stroke:none;stroke-linecap:butt;stroke-linejoin:miter;enable-background:accumulate;stop-color:#000000;stop-opacity:1;opacity:1"
     d="M 2 1.625 A 0.375 0.375 0 0 0 1.734375 1.734375 A 0.375 0.375 0 0 0 1.734375 2.265625 L 5.3886719 5.9199219 C 3.5636508 7.362532 2.2586298 9.3659884 1.6777344 11.626953 C 1.4335978 12.493938 2.0985596 13.374342 3 13.375 L 11.625 13.375 L 11.625 20 C 11.625 20.760416 11.922682 21.37919 12.375 21.78125 C 12.827318 22.18331 13.416667 22.375 14 22.375 C 14.583333 22.375 15.172682 22.18331 15.625 21.78125 C 16.077318 21.37919 16.375 20.760416 16.375 20 A 0.375 0.375 0 0 0 16 19.625 A 0.375 0.375 0 0 0 15.625 20 C 15.625 20.572916 15.422682 20.954144 15.125 21.21875 C 14.827318 21.483356 14.416667 21.625 14 21.625 C 13.583333 21.625 13.172682 21.483356 12.875 21.21875 C 12.577318 20.954144 12.375 20.572916 12.375 20 L 12.375 13.375 L 12.84375 13.375 L 21.734375 22.265625 A 0.375 0.375 0 0 0 22.265625 22.265625 A 0.375 0.375 0 0 0 22.265625 21.734375 L 13.265625 12.734375 L 6.25 5.71875 A 0.375 0.375 0 0 0 6.1992188 5.6679688 L 2.265625 1.734375 A 0.375 0.375 0 0 0 2 1.625 z M 12 1.625 A 0.375 0.375 0 0 0 11.625 2 L 11.625 3.6289062 C 11.025564 3.6504382 10.420267 3.7227004 9.8144531 3.8496094 A 0.375 0.375 0 0 0 9.5253906 4.2929688 A 0.375 0.375 0 0 0 9.96875 4.5839844 C 10.632428 4.4449538 11.295656 4.3753674 11.949219 4.3710938 A 0.375 0.375 0 0 0 12 4.375 A 0.375 0.375 0 0 0 12.052734 4.3710938 C 16.470643 4.3887235 20.4589 7.3718591 21.599609 11.818359 A 0.3750375 0.3750375 0 0 0 21.601562 11.828125 C 21.718647 12.23903 21.421387 12.628538 20.994141 12.625 A 0.3750375 0.3750375 0 0 0 20.992188 12.625 L 18.65625 12.625 A 0.375 0.375 0 0 0 18.28125 13 A 0.375 0.375 0 0 0 18.65625 13.375 L 20.988281 13.375 C 21.895341 13.3825 22.5694 12.497388 22.322266 11.625 C 21.257807 7.4900824 17.891892 4.5276861 13.923828 3.796875 C 13.416308 3.7034033 12.898808 3.6471708 12.375 3.6289062 L 12.375 2 A 0.375 0.375 0 0 0 12 1.625 z M 5.921875 6.453125 L 12.09375 12.625 L 12 12.625 L 3 12.625 C 2.5753297 12.62469 2.2840308 12.236543 2.4003906 11.828125 A 0.3750375 0.3750375 0 0 0 2.4023438 11.818359 C 2.9488023 9.6863017 4.1881955 7.799218 5.921875 6.453125 z " />
</svg>
