<?xml version="1.0" encoding="UTF-8" standalone="no"?>
<svg
   width="24"
   height="24"
   viewBox="0 0 24 24"
   fill="none"
   stroke="currentColor"
   stroke-width="0.75"
   stroke-linecap="round"
   stroke-linejoin="round"
   version="1.1"
   id="svg2"
   sodipodi:docname=".tmp_undo-dot.svg"
   xmlns:inkscape="http://www.inkscape.org/namespaces/inkscape"
   xmlns:sodipodi="http://sodipodi.sourceforge.net/DTD/sodipodi-0.dtd"
   xmlns="http://www.w3.org/2000/svg"
   xmlns:svg="http://www.w3.org/2000/svg">
  <defs
     id="defs2" />
  <sodipodi:namedview
     id="namedview2"
     pagecolor="#ffffff"
     bordercolor="#000000"
     borderopacity="0.25"
     inkscape:showpageshadow="2"
     inkscape:pageopacity="0.0"
     inkscape:pagecheckerboard="0"
     inkscape:deskcolor="#d1d1d1" />
  <path
     id="path1"
     style="baseline-shift:baseline;display:inline;overflow:visible;vector-effect:none;fill:#000000;stroke:none;stroke-linecap:butt;stroke-linejoin:miter;enable-background:accumulate;stop-color:#000000;stop-opacity:1;opacity:1"
     d="M 3 6.625 A 0.375 0.375 0 0 0 2.625 7 L 2.625 13 A 0.3750375 0.3750375 0 0 0 2.6269531 13.019531 A 0.375 0.375 0 0 0 2.6289062 13.037109 A 0.3750375 0.3750375 0 0 0 2.6308594 13.054688 A 0.375 0.375 0 0 0 2.6386719 13.095703 A 0.3750375 0.3750375 0 0 0 2.6386719 13.097656 A 0.3750375 0.3750375 0 0 0 2.6386719 13.099609 A 0.375 0.375 0 0 0 2.671875 13.179688 A 0.3750375 0.3750375 0 0 0 2.6757812 13.1875 A 0.375 0.375 0 0 0 2.6914062 13.210938 A 0.3750375 0.3750375 0 0 0 2.7167969 13.244141 A 0.375 0.375 0 0 0 2.7207031 13.25 A 0.375 0.375 0 0 0 2.7246094 13.253906 A 0.3750375 0.3750375 0 0 0 2.7460938 13.275391 A 0.375 0.375 0 0 0 2.7558594 13.285156 A 0.3750375 0.3750375 0 0 0 2.7714844 13.296875 A 0.375 0.375 0 0 0 2.8125 13.324219 A 0.3750375 0.3750375 0 0 0 2.8144531 13.326172 A 0.375 0.375 0 0 0 2.8574219 13.345703 A 0.3750375 0.3750375 0 0 0 2.8613281 13.347656 A 0.375 0.375 0 0 0 2.9003906 13.359375 A 0.3750375 0.3750375 0 0 0 2.9023438 13.361328 A 0.375 0.375 0 0 0 2.9042969 13.361328 A 0.375 0.375 0 0 0 2.9921875 13.375 A 0.3750375 0.3750375 0 0 0 3 13.375 L 9 13.375 A 0.375 0.375 0 0 0 9.375 13 A 0.375 0.375 0 0 0 9 12.625 L 3.9765625 12.625 L 6.25 10.578125 L 6.25 10.580078 C 9.037356 8.0869414 12.615084 7.8363652 15.517578 9.1328125 C 18.420072 10.42926 20.621593 13.260369 20.625 17 A 0.375 0.375 0 0 0 21 17.375 A 0.375 0.375 0 0 0 21.375 17 C 21.371323 12.964735 18.971188 9.8548649 15.824219 8.4492188 C 14.250734 7.7463956 12.483398 7.4667355 10.734375 7.6992188 C 8.9853522 7.931702 7.2538543 8.6744419 5.75 10.019531 A 0.3750375 0.3750375 0 0 0 5.75 10.021484 L 3.375 12.158203 L 3.375 7 A 0.375 0.375 0 0 0 3 6.625 z M 12 15.625 C 11.24505 15.625 10.625 16.24505 10.625 17 C 10.625 17.75495 11.24505 18.375 12 18.375 C 12.75495 18.375 13.375 17.75495 13.375 17 C 13.375 16.24505 12.75495 15.625 12 15.625 z M 12 16.375 C 12.34962 16.375 12.625 16.65038 12.625 17 C 12.625 17.34962 12.34962 17.625 12 17.625 C 11.65038 17.625 11.375 17.34962 11.375 17 C 11.375 16.65038 11.65038 16.375 12 16.375 z " />
</svg>
