<?xml version="1.0" encoding="UTF-8" standalone="no"?>
<svg
   width="24"
   height="24"
   viewBox="0 0 24 24"
   fill="none"
   stroke="currentColor"
   stroke-width="0.75"
   stroke-linecap="round"
   stroke-linejoin="round"
   version="1.1"
   id="svg6"
   sodipodi:docname=".tmp_unplug.svg"
   xmlns:inkscape="http://www.inkscape.org/namespaces/inkscape"
   xmlns:sodipodi="http://sodipodi.sourceforge.net/DTD/sodipodi-0.dtd"
   xmlns="http://www.w3.org/2000/svg"
   xmlns:svg="http://www.w3.org/2000/svg">
  <defs
     id="defs6" />
  <sodipodi:namedview
     id="namedview6"
     pagecolor="#ffffff"
     bordercolor="#000000"
     borderopacity="0.25"
     inkscape:showpageshadow="2"
     inkscape:pageopacity="0.0"
     inkscape:pagecheckerboard="0"
     inkscape:deskcolor="#d1d1d1" />
  <path
     id="path1"
     style="baseline-shift:baseline;display:inline;overflow:visible;vector-effect:none;fill:#000000;stroke:none;stroke-linecap:butt;stroke-linejoin:miter;enable-background:accumulate;stop-color:#000000;stop-opacity:1;opacity:1"
     d="M 22 1.625 A 0.375 0.375 0 0 0 21.734375 1.734375 L 19 4.46875 L 17.964844 3.4355469 C 17.424189 2.8930116 16.712485 2.6210938 16 2.6210938 C 15.287515 2.6210937 14.575811 2.8930116 14.035156 3.4355469 L 11.734375 5.734375 A 0.3750375 0.3750375 0 0 0 11.734375 6.265625 L 17.734375 12.265625 A 0.3750375 0.3750375 0 0 0 18.265625 12.265625 L 20.564453 9.9648438 C 21.649524 8.8835343 21.649524 7.1164658 20.564453 6.0351562 L 19.53125 5 L 22.265625 2.265625 A 0.375 0.375 0 0 0 22.265625 1.734375 A 0.375 0.375 0 0 0 22 1.625 z M 16 3.3671875 C 16.518551 3.3671875 17.036321 3.5661888 17.433594 3.9648438 A 0.3750375 0.3750375 0 0 0 17.435547 3.9648438 L 18.710938 5.2402344 A 0.375 0.375 0 0 0 18.734375 5.265625 A 0.375 0.375 0 0 0 18.759766 5.2890625 L 20.035156 6.5644531 A 0.3750375 0.3750375 0 0 0 20.035156 6.5664062 C 20.832466 7.3609522 20.832466 8.6390477 20.035156 9.4335938 A 0.3750375 0.3750375 0 0 0 20.035156 9.4355469 L 18 11.46875 L 12.53125 6 L 14.564453 3.9648438 A 0.3750375 0.3750375 0 0 0 14.566406 3.9648438 C 14.963632 3.5661889 15.481449 3.3671875 16 3.3671875 z M 10 10.625 A 0.375 0.375 0 0 0 9.734375 10.734375 L 7.5 12.96875 L 6.265625 11.734375 A 0.3750375 0.3750375 0 0 0 5.734375 11.734375 L 3.4355469 14.035156 C 2.3504763 15.116466 2.3504763 16.883534 3.4355469 17.964844 L 4.46875 19 L 1.734375 21.734375 A 0.375 0.375 0 0 0 1.734375 22.265625 A 0.375 0.375 0 0 0 2.265625 22.265625 L 5 19.53125 L 6.0351562 20.564453 C 7.1164657 21.649524 8.8835342 21.649524 9.9648438 20.564453 L 12.265625 18.265625 A 0.3750375 0.3750375 0 0 0 12.265625 17.734375 L 11.03125 16.5 L 13.265625 14.265625 A 0.375 0.375 0 0 0 13.265625 13.734375 A 0.375 0.375 0 0 0 12.734375 13.734375 L 10.5 15.96875 L 8.03125 13.5 L 10.265625 11.265625 A 0.375 0.375 0 0 0 10.265625 10.734375 A 0.375 0.375 0 0 0 10 10.625 z M 6 12.53125 L 11.46875 18 L 9.4355469 20.035156 A 0.3750375 0.3750375 0 0 0 9.4335938 20.035156 C 8.6390477 20.832466 7.3609523 20.832466 6.5664062 20.035156 A 0.3750375 0.3750375 0 0 0 6.5644531 20.035156 L 5.2871094 18.757812 A 0.375 0.375 0 0 0 5.265625 18.734375 L 3.9648438 17.435547 A 0.3750375 0.3750375 0 0 0 3.9648438 17.433594 C 3.167534 16.639048 3.1675341 15.360952 3.9648438 14.566406 A 0.3750375 0.3750375 0 0 0 3.9648438 14.564453 L 6 12.53125 z " />
</svg>
