<?xml version="1.0" encoding="UTF-8" standalone="no"?>
<svg
   width="24"
   height="24"
   viewBox="0 0 24 24"
   fill="none"
   stroke="currentColor"
   stroke-width="0.75"
   stroke-linecap="round"
   stroke-linejoin="round"
   version="1.1"
   id="svg3"
   sodipodi:docname=".tmp_zoom-in.svg"
   xmlns:inkscape="http://www.inkscape.org/namespaces/inkscape"
   xmlns:sodipodi="http://sodipodi.sourceforge.net/DTD/sodipodi-0.dtd"
   xmlns="http://www.w3.org/2000/svg"
   xmlns:svg="http://www.w3.org/2000/svg">
  <defs
     id="defs3" />
  <sodipodi:namedview
     id="namedview3"
     pagecolor="#ffffff"
     bordercolor="#000000"
     borderopacity="0.25"
     inkscape:showpageshadow="2"
     inkscape:pageopacity="0.0"
     inkscape:pagecheckerboard="0"
     inkscape:deskcolor="#d1d1d1" />
  <path
     id="circle1"
     style="baseline-shift:baseline;display:inline;overflow:visible;vector-effect:none;fill:#000000;stroke:none;stroke-linecap:butt;stroke-linejoin:miter;enable-background:accumulate;stop-color:#000000;stop-opacity:1;opacity:1"
     d="M 11 2.625 C 6.379057 2.625 2.625 6.379057 2.625 11 C 2.625 15.620943 6.379057 19.375 11 19.375 C 13.175504 19.375 15.158489 18.542553 16.648438 17.179688 L 20.734375 21.265625 A 0.375 0.375 0 0 0 21.265625 21.265625 A 0.375 0.375 0 0 0 21.265625 20.734375 L 17.179688 16.648438 C 18.542553 15.158489 19.375 13.175504 19.375 11 C 19.375 6.379057 15.620943 2.625 11 2.625 z M 11 3.375 C 15.215613 3.375 18.625 6.784387 18.625 11 C 18.625 13.074263 17.799746 14.9524 16.458984 16.326172 A 0.375 0.375 0 0 0 16.384766 16.384766 A 0.375 0.375 0 0 0 16.326172 16.458984 C 14.9524 17.799746 13.074263 18.625 11 18.625 C 6.784387 18.625 3.375 15.215613 3.375 11 C 3.375 6.784387 6.784387 3.375 11 3.375 z M 11 7.625 A 0.375 0.375 0 0 0 10.625 8 L 10.625 10.625 L 8 10.625 A 0.375 0.375 0 0 0 7.625 11 A 0.375 0.375 0 0 0 8 11.375 L 10.625 11.375 L 10.625 14 A 0.375 0.375 0 0 0 11 14.375 A 0.375 0.375 0 0 0 11.375 14 L 11.375 11.375 L 14 11.375 A 0.375 0.375 0 0 0 14.375 11 A 0.375 0.375 0 0 0 14 10.625 L 11.375 10.625 L 11.375 8 A 0.375 0.375 0 0 0 11 7.625 z " />
</svg>
