<?xml version="1.0" encoding="UTF-8" standalone="no"?>
<svg
   width="24"
   height="24"
   viewBox="0 0 24 24"
   fill="none"
   stroke="currentColor"
   stroke-width="0.9"
   stroke-linecap="round"
   stroke-linejoin="round"
   version="1.1"
   id="svg1"
   sodipodi:docname=".tmp_activity.svg"
   xmlns:inkscape="http://www.inkscape.org/namespaces/inkscape"
   xmlns:sodipodi="http://sodipodi.sourceforge.net/DTD/sodipodi-0.dtd"
   xmlns="http://www.w3.org/2000/svg"
   xmlns:svg="http://www.w3.org/2000/svg">
  <defs
     id="defs1" />
  <sodipodi:namedview
     id="namedview1"
     pagecolor="#ffffff"
     bordercolor="#000000"
     borderopacity="0.25"
     inkscape:showpageshadow="2"
     inkscape:pageopacity="0.0"
     inkscape:pagecheckerboard="0"
     inkscape:deskcolor="#d1d1d1" />
  <path
     id="path1"
     style="baseline-shift:baseline;display:inline;overflow:visible;vector-effect:none;fill:#000000;stroke:none;stroke-linecap:butt;stroke-linejoin:miter;enable-background:accumulate;stop-color:#000000;stop-opacity:1;opacity:1"
     d="M 9 1.5507812 C 8.7218903 1.5507814 8.4179602 1.7466811 8.328125 2.0546875 A 0.45004499 0.45004499 0 0 0 8.3261719 2.0585938 L 5.9765625 10.417969 C 5.7888395 11.087428 5.1835593 11.548792 4.4882812 11.550781 L 2 11.550781 A 0.44999999 0.44999999 0 0 0 1.5507812 12 A 0.44999999 0.44999999 0 0 0 2 12.449219 L 4.4902344 12.449219 A 0.45004499 0.45004499 0 0 0 4.4921875 12.449219 C 5.5858631 12.446119 6.5484609 11.715172 6.84375 10.662109 L 9 2.9902344 L 14.326172 21.941406 A 0.45004499 0.45004499 0 0 0 14.328125 21.945312 C 14.417965 22.253319 14.72189 22.449219 15 22.449219 C 15.27811 22.449219 15.58204 22.253319 15.671875 21.945312 A 0.45004499 0.45004499 0 0 0 15.673828 21.941406 L 18.023438 13.582031 C 18.211948 12.909767 18.821338 12.447725 19.519531 12.449219 L 22 12.449219 A 0.44999999 0.44999999 0 0 0 22.449219 12 A 0.44999999 0.44999999 0 0 0 22 11.550781 L 19.521484 11.550781 L 19.519531 11.550781 C 18.422153 11.549281 17.452582 12.281119 17.15625 13.337891 L 15 21.009766 L 9.6738281 2.0585938 A 0.45004499 0.45004499 0 0 0 9.671875 2.0546875 C 9.5820367 1.7466848 9.2781097 1.5507813 9 1.5507812 z " />
</svg>
