<?xml version="1.0" encoding="UTF-8" standalone="no"?>
<svg
   width="24"
   height="24"
   viewBox="0 0 24 24"
   fill="none"
   stroke="currentColor"
   stroke-width="0.9"
   stroke-linecap="round"
   stroke-linejoin="round"
   version="1.1"
   id="svg2"
   sodipodi:docname=".tmp_airplay.svg"
   xmlns:inkscape="http://www.inkscape.org/namespaces/inkscape"
   xmlns:sodipodi="http://sodipodi.sourceforge.net/DTD/sodipodi-0.dtd"
   xmlns="http://www.w3.org/2000/svg"
   xmlns:svg="http://www.w3.org/2000/svg">
  <defs
     id="defs2" />
  <sodipodi:namedview
     id="namedview2"
     pagecolor="#ffffff"
     bordercolor="#000000"
     borderopacity="0.25"
     inkscape:showpageshadow="2"
     inkscape:pageopacity="0.0"
     inkscape:pagecheckerboard="0"
     inkscape:deskcolor="#d1d1d1" />
  <path
     id="path1"
     style="baseline-shift:baseline;display:inline;overflow:visible;vector-effect:none;fill:#000000;stroke:none;stroke-linecap:butt;stroke-linejoin:miter;enable-background:accumulate;stop-color:#000000;stop-opacity:1;opacity:1"
     d="M 4 2.5507812 C 2.6522325 2.5507812 1.5507813 3.6522325 1.5507812 5 L 1.5507812 15 C 1.5507812 16.347768 2.6522325 17.449219 4 17.449219 L 5 17.449219 A 0.44999999 0.44999999 0 0 0 5.4492188 17 A 0.44999999 0.44999999 0 0 0 5 16.550781 L 4 16.550781 C 3.1386285 16.550781 2.4492187 15.861371 2.4492188 15 L 2.4492188 5 C 2.4492188 4.1386285 3.1386285 3.4492188 4 3.4492188 L 20 3.4492188 C 20.861371 3.4492188 21.550781 4.1386285 21.550781 5 L 21.550781 15 C 21.550781 15.861371 20.861371 16.550781 20 16.550781 L 19 16.550781 A 0.44999999 0.44999999 0 0 0 18.550781 17 A 0.44999999 0.44999999 0 0 0 19 17.449219 L 20 17.449219 C 21.347768 17.449219 22.449219 16.347768 22.449219 15 L 22.449219 5 C 22.449219 3.6522325 21.347768 2.5507813 20 2.5507812 L 4 2.5507812 z M 11.96875 14.552734 A 0.45004499 0.45004499 0 0 0 11.654297 14.712891 L 6.6542969 20.712891 A 0.45004499 0.45004499 0 0 0 7 21.449219 L 17 21.449219 A 0.45004499 0.45004499 0 0 0 17.345703 20.712891 L 12.345703 14.712891 A 0.45004499 0.45004499 0 0 0 11.96875 14.552734 z M 12 15.701172 L 16.041016 20.550781 L 7.9589844 20.550781 L 12 15.701172 z " />
</svg>
