<?xml version="1.0" encoding="UTF-8" standalone="no"?>
<svg
   width="24"
   height="24"
   viewBox="0 0 24 24"
   fill="none"
   stroke="currentColor"
   stroke-width="0.9"
   stroke-linecap="round"
   stroke-linejoin="round"
   version="1.1"
   id="svg3"
   sodipodi:docname=".tmp_align-vertical-space-between.svg"
   xmlns:inkscape="http://www.inkscape.org/namespaces/inkscape"
   xmlns:sodipodi="http://sodipodi.sourceforge.net/DTD/sodipodi-0.dtd"
   xmlns="http://www.w3.org/2000/svg"
   xmlns:svg="http://www.w3.org/2000/svg">
  <defs
     id="defs3" />
  <sodipodi:namedview
     id="namedview3"
     pagecolor="#ffffff"
     bordercolor="#000000"
     borderopacity="0.25"
     inkscape:showpageshadow="2"
     inkscape:pageopacity="0.0"
     inkscape:pagecheckerboard="0"
     inkscape:deskcolor="#d1d1d1" />
  <path
     id="rect1"
     style="baseline-shift:baseline;display:inline;overflow:visible;vector-effect:none;fill:#000000;stroke:none;stroke-linecap:butt;stroke-linejoin:miter;enable-background:accumulate;stop-color:#000000;stop-opacity:1;opacity:1"
     d="M 2 2.5507812 A 0.44999999 0.44999999 0 0 0 1.5507812 3 A 0.44999999 0.44999999 0 0 0 2 3.4492188 L 7.1054688 3.4492188 C 6.7585392 3.8719717 6.5507812 4.4122969 6.5507812 5 L 6.5507812 7 C 6.5507812 8.3495162 7.6504838 9.4492188 9 9.4492188 L 15 9.4492188 C 16.349516 9.4492188 17.449219 8.3495162 17.449219 7 L 17.449219 5 C 17.449219 4.4122969 17.241461 3.8719717 16.894531 3.4492188 L 22 3.4492188 A 0.44999999 0.44999999 0 0 0 22.449219 3 A 0.44999999 0.44999999 0 0 0 22 2.5507812 L 15 2.5507812 L 9 2.5507812 L 2 2.5507812 z M 9 3.4492188 L 15 3.4492188 C 15.866484 3.4492188 16.550781 4.1335162 16.550781 5 L 16.550781 7 C 16.550781 7.8664838 15.866484 8.5507813 15 8.5507812 L 9 8.5507812 C 8.1335162 8.5507812 7.4492187 7.8664838 7.4492188 7 L 7.4492188 5 C 7.4492188 4.1335162 8.1335162 3.4492188 9 3.4492188 z M 7 14.550781 C 5.6504838 14.550781 4.5507812 15.650484 4.5507812 17 L 4.5507812 19 C 4.5507812 19.587703 4.7585394 20.128028 5.1054688 20.550781 L 2 20.550781 A 0.44999999 0.44999999 0 0 0 1.5507812 21 A 0.44999999 0.44999999 0 0 0 2 21.449219 L 22 21.449219 A 0.44999999 0.44999999 0 0 0 22.449219 21 A 0.44999999 0.44999999 0 0 0 22 20.550781 L 18.894531 20.550781 C 19.241461 20.128028 19.449219 19.587703 19.449219 19 L 19.449219 17 C 19.449219 15.650484 18.349516 14.550781 17 14.550781 L 7 14.550781 z M 7 15.449219 L 17 15.449219 C 17.866484 15.449219 18.550781 16.133516 18.550781 17 L 18.550781 19 C 18.550781 19.866484 17.866484 20.550781 17 20.550781 L 7 20.550781 C 6.1335162 20.550781 5.4492188 19.866484 5.4492188 19 L 5.4492188 17 C 5.4492188 16.133516 6.1335162 15.449219 7 15.449219 z " />
</svg>
