<?xml version="1.0" encoding="UTF-8" standalone="no"?>
<svg
   width="24"
   height="24"
   viewBox="0 0 24 24"
   fill="none"
   stroke="currentColor"
   stroke-width="0.9"
   stroke-linecap="round"
   stroke-linejoin="round"
   version="1.1"
   id="svg2"
   sodipodi:docname=".tmp_align-end-horizontal.svg"
   xmlns:inkscape="http://www.inkscape.org/namespaces/inkscape"
   xmlns:sodipodi="http://sodipodi.sourceforge.net/DTD/sodipodi-0.dtd"
   xmlns="http://www.w3.org/2000/svg"
   xmlns:svg="http://www.w3.org/2000/svg">
  <defs
     id="defs2" />
  <sodipodi:namedview
     id="namedview2"
     pagecolor="#ffffff"
     bordercolor="#000000"
     borderopacity="0.25"
     inkscape:showpageshadow="2"
     inkscape:pageopacity="0.0"
     inkscape:pagecheckerboard="0"
     inkscape:deskcolor="#d1d1d1" />
  <path
     id="rect1"
     style="baseline-shift:baseline;display:inline;overflow:visible;vector-effect:none;fill:#000000;stroke:none;stroke-linecap:butt;stroke-linejoin:miter;enable-background:accumulate;stop-color:#000000;stop-opacity:1;opacity:1"
     d="M 6 1.5507812 C 4.6504838 1.5507812 3.5507813 2.6504838 3.5507812 4 L 3.5507812 16 C 3.5507812 17.349516 4.6504838 18.449219 6 18.449219 L 8 18.449219 C 9.3495162 18.449219 10.449219 17.349516 10.449219 16 L 10.449219 4 C 10.449219 2.6504838 9.3495162 1.5507813 8 1.5507812 L 6 1.5507812 z M 6 2.4492188 L 8 2.4492188 C 8.8664838 2.4492188 9.5507812 3.1335162 9.5507812 4 L 9.5507812 16 C 9.5507812 16.866484 8.8664838 17.550781 8 17.550781 L 6 17.550781 C 5.1335162 17.550781 4.4492188 16.866484 4.4492188 16 L 4.4492188 4 C 4.4492188 3.1335162 5.1335162 2.4492188 6 2.4492188 z M 16 8.5507812 C 14.650484 8.5507812 13.550781 9.6504838 13.550781 11 L 13.550781 16 C 13.550781 17.349516 14.650484 18.449219 16 18.449219 L 18 18.449219 C 19.349516 18.449219 20.449219 17.349516 20.449219 16 L 20.449219 11 C 20.449219 9.6504838 19.349516 8.5507813 18 8.5507812 L 16 8.5507812 z M 16 9.4492188 L 18 9.4492188 C 18.866484 9.4492188 19.550781 10.133516 19.550781 11 L 19.550781 16 C 19.550781 16.866484 18.866484 17.550781 18 17.550781 L 16 17.550781 C 15.133516 17.550781 14.449219 16.866484 14.449219 16 L 14.449219 11 C 14.449219 10.133516 15.133516 9.4492187 16 9.4492188 z M 2 21.550781 A 0.44999999 0.44999999 0 0 0 1.5507812 22 A 0.44999999 0.44999999 0 0 0 2 22.449219 L 22 22.449219 A 0.44999999 0.44999999 0 0 0 22.449219 22 A 0.44999999 0.44999999 0 0 0 22 21.550781 L 2 21.550781 z " />
</svg>
