<?xml version="1.0" encoding="UTF-8" standalone="no"?>
<svg
   width="24"
   height="24"
   viewBox="0 0 24 24"
   fill="none"
   stroke="currentColor"
   stroke-width="0.9"
   stroke-linecap="round"
   stroke-linejoin="round"
   version="1.1"
   id="svg2"
   sodipodi:docname=".tmp_ampersand.svg"
   xmlns:inkscape="http://www.inkscape.org/namespaces/inkscape"
   xmlns:sodipodi="http://sodipodi.sourceforge.net/DTD/sodipodi-0.dtd"
   xmlns="http://www.w3.org/2000/svg"
   xmlns:svg="http://www.w3.org/2000/svg">
  <defs
     id="defs2" />
  <sodipodi:namedview
     id="namedview2"
     pagecolor="#ffffff"
     bordercolor="#000000"
     borderopacity="0.25"
     inkscape:showpageshadow="2"
     inkscape:pageopacity="0.0"
     inkscape:pagecheckerboard="0"
     inkscape:deskcolor="#d1d1d1" />
  <path
     id="path1"
     style="baseline-shift:baseline;display:inline;overflow:visible;vector-effect:none;fill:#000000;stroke:none;stroke-linecap:butt;stroke-linejoin:miter;enable-background:accumulate;stop-color:#000000;stop-opacity:1;opacity:1"
     d="M 10 3.5507812 C 9.15 3.5507812 8.2939537 3.83159 7.6386719 4.4140625 C 6.98339 4.996535 6.5507813 5.8875004 6.5507812 7 C 6.5507812 8.0709414 7.0098781 9.4434349 7.7402344 10.904297 C 7.1132189 11.211621 6.4525532 11.452214 5.9375 11.951172 C 5.1110807 12.751766 4.5507813 13.9 4.5507812 15.5 C 4.5507812 18.228479 6.7715206 20.449219 9.5 20.449219 C 11.67067 20.449219 13.614129 19.564081 15.115234 18.205078 C 16.284054 18.946823 17.321264 19.702651 18.806641 20.40625 A 0.44999999 0.44999999 0 0 0 19.40625 20.193359 A 0.44999999 0.44999999 0 0 0 19.193359 19.59375 C 17.800091 18.933781 16.852448 18.232526 15.753906 17.542969 C 16.984902 16.15506 17.823287 14.406848 17.935547 12.449219 L 19 12.449219 A 0.44999999 0.44999999 0 0 0 19.449219 12 A 0.44999999 0.44999999 0 0 0 19 11.550781 L 17.5 11.550781 L 16 11.550781 A 0.44999999 0.44999999 0 0 0 15.550781 12 A 0.44999999 0.44999999 0 0 0 16 12.449219 L 17.037109 12.449219 C 16.925123 14.240786 16.149077 15.844919 14.996094 17.089844 C 11.966338 15.066642 10.050779 13.064705 8.9628906 11.222656 C 9.0408296 11.190166 9.0913012 11.135456 9.1699219 11.103516 C 10.158739 10.701809 11.184752 10.342429 12.011719 9.7480469 C 12.838685 9.1536648 13.449219 8.2583333 13.449219 7 C 13.449219 5.8875004 13.01661 4.996535 12.361328 4.4140625 C 11.706046 3.83159 10.85 3.5507812 10 3.5507812 z M 10 4.4492188 C 10.65 4.4492188 11.293954 4.6684104 11.763672 5.0859375 C 12.23339 5.5034646 12.550781 6.1125005 12.550781 7 C 12.550781 7.9916667 12.161315 8.5338352 11.488281 9.0175781 C 10.815248 9.5013211 9.841261 9.8606917 8.8300781 10.271484 C 8.7202977 10.316083 8.6261137 10.40682 8.515625 10.453125 C 7.8572776 9.1226249 7.4492187 7.89469 7.4492188 7 C 7.4492188 6.1125005 7.76661 5.5034646 8.2363281 5.0859375 C 8.7060463 4.6684104 9.35 4.4492187 10 4.4492188 z M 8.1816406 11.667969 C 9.3226017 13.603938 11.257301 15.658096 14.279297 17.707031 C 12.966768 18.807736 11.337854 19.550781 9.5 19.550781 C 7.2579167 19.550781 5.4492189 17.742083 5.4492188 15.5 C 5.4492188 14.1 5.8889193 13.248234 6.5625 12.595703 C 6.9809012 12.190377 7.6086719 11.950463 8.1816406 11.667969 z " />
</svg>
