<?xml version="1.0" encoding="UTF-8" standalone="no"?>
<svg
   width="24"
   height="24"
   viewBox="0 0 24 24"
   fill="none"
   stroke="currentColor"
   stroke-width="0.9"
   stroke-linecap="round"
   stroke-linejoin="round"
   version="1.1"
   id="svg2"
   sodipodi:docname=".tmp_apple.svg"
   xmlns:inkscape="http://www.inkscape.org/namespaces/inkscape"
   xmlns:sodipodi="http://sodipodi.sourceforge.net/DTD/sodipodi-0.dtd"
   xmlns="http://www.w3.org/2000/svg"
   xmlns:svg="http://www.w3.org/2000/svg">
  <defs
     id="defs2" />
  <sodipodi:namedview
     id="namedview2"
     pagecolor="#ffffff"
     bordercolor="#000000"
     borderopacity="0.25"
     inkscape:showpageshadow="2"
     inkscape:pageopacity="0.0"
     inkscape:pagecheckerboard="0"
     inkscape:deskcolor="#d1d1d1" />
  <path
     id="path1"
     style="baseline-shift:baseline;display:inline;overflow:visible;vector-effect:none;fill:#000000;stroke:none;stroke-linecap:butt;stroke-linejoin:miter;enable-background:accumulate;stop-color:#000000;stop-opacity:1;opacity:1"
     d="M 13 1.5507812 C 12.204517 1.5507812 11.550781 2.2045172 11.550781 3 L 11.550781 5.6621094 C 10.708421 5.0845662 9.7986799 4.7210067 8.8710938 4.5976562 C 7.6663622 4.4374511 6.4489528 4.6275627 5.3671875 5.1113281 C 3.203657 6.078859 1.5508441 8.2296626 1.5507812 11 C 1.5442813 14.790113 2.9222667 18.45128 5.4257812 21.296875 A 0.45004499 0.45004499 0 0 0 5.4277344 21.300781 C 6.4857738 22.484448 8.2220831 22.791792 9.6230469 22.044922 C 11.109172 21.252021 12.890828 21.252021 14.376953 22.044922 C 15.777917 22.791792 17.514226 22.484448 18.572266 21.300781 A 0.44999999 0.44999999 0 0 0 18.572266 21.298828 A 0.44999999 0.44999999 0 0 0 18.574219 21.298828 C 21.086072 18.458241 22.464805 14.791869 22.449219 11 C 22.449156 8.2296626 20.796343 6.078859 18.632812 5.1113281 C 16.717907 4.2549821 14.391377 4.3547648 12.449219 5.6660156 L 12.449219 3 C 12.449219 2.6909133 12.690913 2.4492188 13 2.4492188 A 0.44999999 0.44999999 0 0 0 13.449219 2 A 0.44999999 0.44999999 0 0 0 13 1.5507812 z M 7.96875 5.4355469 C 8.2262677 5.4320954 8.4859861 5.4465473 8.7441406 5.4804688 C 9.7767588 5.6161547 10.799034 6.0581312 11.699219 6.8632812 A 0.45004499 0.45004499 0 0 0 11.726562 6.8847656 A 0.45004499 0.45004499 0 0 0 11.765625 6.9101562 A 0.44999999 0.44999999 0 0 0 11.792969 6.9257812 A 0.45004499 0.45004499 0 0 0 11.806641 6.9335938 A 0.44999999 0.44999999 0 0 0 11.84375 6.9492188 A 0.45004499 0.45004499 0 0 0 11.861328 6.9550781 A 0.44999999 0.44999999 0 0 0 11.904297 6.9667969 A 0.45004499 0.45004499 0 0 0 11.919922 6.9707031 A 0.44999999 0.44999999 0 0 0 11.941406 6.9746094 A 0.45004499 0.45004499 0 0 0 11.949219 6.9746094 A 0.45004499 0.45004499 0 0 0 12 6.9785156 A 0.45004499 0.45004499 0 0 0 12.050781 6.9746094 A 0.44999999 0.44999999 0 0 0 12.058594 6.9746094 A 0.45004499 0.45004499 0 0 0 12.080078 6.9707031 A 0.44999999 0.44999999 0 0 0 12.095703 6.9667969 A 0.44999999 0.44999999 0 0 0 12.138672 6.9550781 A 0.44999999 0.44999999 0 0 0 12.15625 6.9492188 A 0.45004499 0.45004499 0 0 0 12.193359 6.9335938 A 0.44999999 0.44999999 0 0 0 12.207031 6.9257812 A 0.45004499 0.45004499 0 0 0 12.234375 6.9101562 A 0.45004499 0.45004499 0 0 0 12.273438 6.8847656 A 0.45004499 0.45004499 0 0 0 12.300781 6.8632812 C 14.101152 5.252981 16.395499 5.0972736 18.265625 5.9335938 C 20.135751 6.7699139 21.550727 8.5845497 21.550781 11 A 0.45004499 0.45004499 0 0 0 21.550781 11.001953 C 21.565911 14.572916 20.267333 18.023705 17.902344 20.699219 L 17.900391 20.701172 C 17.115466 21.577381 15.839073 21.803525 14.800781 21.25 C 13.050801 20.316323 10.949199 20.316323 9.1992188 21.25 C 8.1609273 21.803525 6.8845341 21.577381 6.0996094 20.701172 L 6.0976562 20.699219 C 3.741214 18.018688 2.4430998 14.569156 2.4492188 11 C 2.4492734 8.5845497 3.8642494 6.769914 5.734375 5.9335938 C 6.4356721 5.6199737 7.1961968 5.4459012 7.96875 5.4355469 z " />
</svg>
