<?xml version="1.0" encoding="UTF-8" standalone="no"?>
<svg
   width="24"
   height="24"
   viewBox="0 0 24 24"
   fill="none"
   stroke="currentColor"
   stroke-width="0.9"
   stroke-linecap="round"
   stroke-linejoin="round"
   version="1.1"
   id="svg1"
   sodipodi:docname=".tmp_arrow-big-up.svg"
   xmlns:inkscape="http://www.inkscape.org/namespaces/inkscape"
   xmlns:sodipodi="http://sodipodi.sourceforge.net/DTD/sodipodi-0.dtd"
   xmlns="http://www.w3.org/2000/svg"
   xmlns:svg="http://www.w3.org/2000/svg">
  <defs
     id="defs1" />
  <sodipodi:namedview
     id="namedview1"
     pagecolor="#ffffff"
     bordercolor="#000000"
     borderopacity="0.25"
     inkscape:showpageshadow="2"
     inkscape:pageopacity="0.0"
     inkscape:pagecheckerboard="0"
     inkscape:deskcolor="#d1d1d1" />
  <path
     id="path1"
     style="baseline-shift:baseline;display:inline;overflow:visible;vector-effect:none;fill:#000000;stroke:none;stroke-linecap:butt;stroke-linejoin:miter;enable-background:accumulate;stop-color:#000000;stop-opacity:1;opacity:1"
     d="M 12 2.5527344 C 11.574981 2.5527344 11.149793 2.7134715 10.828125 3.0351562 L 4.015625 9.8476562 C 3.4312475 10.27315 3.2980657 11.015873 3.5292969 11.574219 C 3.7617731 12.135571 4.3845893 12.567984 5.1035156 12.449219 L 8 12.449219 C 8.3090867 12.449219 8.5507812 12.690913 8.5507812 13 L 8.5507812 19 C 8.5507812 19.795483 9.2045172 20.449219 10 20.449219 L 14 20.449219 C 14.795483 20.449219 15.449219 19.795483 15.449219 19 L 15.449219 13 C 15.449219 12.690913 15.690913 12.449219 16 12.449219 L 18.896484 12.449219 C 19.61541 12.567984 20.238227 12.135571 20.470703 11.574219 C 20.701934 11.015874 20.568745 10.273151 19.984375 9.8476562 L 13.171875 3.0351562 C 12.850209 2.7134714 12.425019 2.5527344 12 2.5527344 z M 12 3.4472656 C 12.192728 3.4472656 12.385457 3.5221675 12.535156 3.671875 L 19.371094 10.507812 A 0.45004499 0.45004499 0 0 0 19.4375 10.5625 C 19.718871 10.751942 19.735116 10.995634 19.638672 11.228516 C 19.542232 11.461397 19.358315 11.623553 19.025391 11.558594 A 0.45004499 0.45004499 0 0 0 18.939453 11.550781 L 16 11.550781 C 15.204517 11.550781 14.550781 12.204517 14.550781 13 L 14.550781 19 C 14.550781 19.309087 14.309087 19.550781 14 19.550781 L 10 19.550781 C 9.6909133 19.550765 9.4492188 19.309087 9.4492188 19 L 9.4492188 13 C 9.4492188 12.204517 8.7954828 11.550781 8 11.550781 L 5.0605469 11.550781 A 0.45004499 0.45004499 0 0 0 4.9746094 11.558594 C 4.6416849 11.623566 4.4577727 11.461397 4.3613281 11.228516 C 4.2648835 10.995634 4.2811289 10.751942 4.5625 10.5625 A 0.45004499 0.45004499 0 0 0 4.6289062 10.507812 L 11.464844 3.671875 C 11.614543 3.5221675 11.807272 3.4472656 12 3.4472656 z " />
</svg>
