<?xml version="1.0" encoding="UTF-8" standalone="no"?>
<svg
   width="24"
   height="24"
   viewBox="0 0 24 24"
   fill="none"
   stroke="currentColor"
   stroke-width="0.9"
   stroke-linecap="round"
   stroke-linejoin="round"
   version="1.1"
   id="svg1"
   sodipodi:docname=".tmp_arrow-big-right.svg"
   xmlns:inkscape="http://www.inkscape.org/namespaces/inkscape"
   xmlns:sodipodi="http://sodipodi.sourceforge.net/DTD/sodipodi-0.dtd"
   xmlns="http://www.w3.org/2000/svg"
   xmlns:svg="http://www.w3.org/2000/svg">
  <defs
     id="defs1" />
  <sodipodi:namedview
     id="namedview1"
     pagecolor="#ffffff"
     bordercolor="#000000"
     borderopacity="0.25"
     inkscape:showpageshadow="2"
     inkscape:pageopacity="0.0"
     inkscape:pagecheckerboard="0"
     inkscape:deskcolor="#d1d1d1" />
  <path
     id="path1"
     style="baseline-shift:baseline;display:inline;overflow:visible;vector-effect:none;fill:#000000;stroke:none;stroke-linecap:butt;stroke-linejoin:miter;enable-background:accumulate;stop-color:#000000;stop-opacity:1;opacity:1"
     d="M 13.003906 3.421875 C 12.803361 3.4182665 12.604716 3.4551931 12.425781 3.5292969 C 11.864429 3.7617731 11.432016 4.3845893 11.550781 5.1035156 L 11.550781 8 C 11.550781 8.3090867 11.309087 8.5507812 11 8.5507812 L 5 8.5507812 C 4.2045172 8.5507812 3.5507813 9.2045172 3.5507812 10 L 3.5507812 14 C 3.5507811 14.795483 4.2045172 15.449219 5 15.449219 L 11 15.449219 C 11.309087 15.449219 11.550781 15.690913 11.550781 16 L 11.550781 18.896484 C 11.432016 19.61541 11.864429 20.238227 12.425781 20.470703 C 12.984129 20.701935 13.72685 20.568754 14.152344 19.984375 L 20.964844 13.171875 C 21.608213 12.528539 21.608213 11.471461 20.964844 10.828125 L 14.152344 4.015625 C 13.945133 3.7308601 13.662996 3.552698 13.363281 3.4726562 C 13.245009 3.4410704 13.124233 3.4240401 13.003906 3.421875 z M 12.990234 4.3085938 C 13.150618 4.3009439 13.307259 4.3690574 13.4375 4.5625 A 0.45004499 0.45004499 0 0 0 13.492188 4.6289062 L 20.328125 11.464844 C 20.62754 11.764243 20.62754 12.235757 20.328125 12.535156 L 13.492188 19.371094 A 0.45004499 0.45004499 0 0 0 13.4375 19.4375 C 13.248058 19.718871 13.004366 19.735116 12.771484 19.638672 C 12.538603 19.542232 12.376447 19.358315 12.441406 19.025391 A 0.45004499 0.45004499 0 0 0 12.449219 18.939453 L 12.449219 16 C 12.449219 15.204517 11.795483 14.550781 11 14.550781 L 5 14.550781 C 4.6909133 14.550781 4.4492187 14.309087 4.4492188 14 L 4.4492188 10 C 4.4492188 9.6909133 4.6909133 9.4492188 5 9.4492188 L 11 9.4492188 C 11.795483 9.4492188 12.449219 8.7954828 12.449219 8 L 12.449219 5.0605469 A 0.45004499 0.45004499 0 0 0 12.441406 4.9746094 C 12.376446 4.6416854 12.538606 4.4577727 12.771484 4.3613281 C 12.84426 4.3311892 12.917333 4.312071 12.990234 4.3085938 z " />
</svg>
