<?xml version="1.0" encoding="UTF-8" standalone="no"?>
<svg
   width="24"
   height="24"
   viewBox="0 0 24 24"
   fill="none"
   stroke="currentColor"
   stroke-width="0.9"
   stroke-linecap="round"
   stroke-linejoin="round"
   version="1.1"
   id="svg5"
   sodipodi:docname=".tmp_arrow-down-z-a.svg"
   xmlns:inkscape="http://www.inkscape.org/namespaces/inkscape"
   xmlns:sodipodi="http://sodipodi.sourceforge.net/DTD/sodipodi-0.dtd"
   xmlns="http://www.w3.org/2000/svg"
   xmlns:svg="http://www.w3.org/2000/svg">
  <defs
     id="defs5" />
  <sodipodi:namedview
     id="namedview5"
     pagecolor="#ffffff"
     bordercolor="#000000"
     borderopacity="0.25"
     inkscape:showpageshadow="2"
     inkscape:pageopacity="0.0"
     inkscape:pagecheckerboard="0"
     inkscape:deskcolor="#d1d1d1" />
  <path
     id="path1"
     style="baseline-shift:baseline;display:inline;overflow:visible;vector-effect:none;fill:#000000;stroke:none;stroke-linecap:butt;stroke-linejoin:miter;enable-background:accumulate;stop-color:#000000;stop-opacity:1;opacity:1"
     d="M 7 3.5507812 A 0.44999999 0.44999999 0 0 0 6.5507812 4 L 6.5507812 18.914062 L 3.3183594 15.681641 A 0.44999999 0.44999999 0 0 0 2.6816406 15.681641 A 0.44999999 0.44999999 0 0 0 2.6816406 16.318359 L 6.6816406 20.318359 A 0.45004499 0.45004499 0 0 0 7.3183594 20.318359 L 11.318359 16.318359 A 0.44999999 0.44999999 0 0 0 11.318359 15.681641 A 0.44999999 0.44999999 0 0 0 10.681641 15.681641 L 7.4492188 18.914062 L 7.4492188 4 A 0.44999999 0.44999999 0 0 0 7 3.5507812 z M 15 3.5507812 A 0.44999999 0.44999999 0 0 0 14.550781 4 A 0.44999999 0.44999999 0 0 0 15 4.4492188 L 19.041016 4.4492188 L 14.654297 9.7128906 A 0.45004499 0.45004499 0 0 0 15 10.449219 L 20 10.449219 A 0.44999999 0.44999999 0 0 0 20.449219 10 A 0.44999999 0.44999999 0 0 0 20 9.5507812 L 15.958984 9.5507812 L 20.345703 4.2871094 A 0.45004499 0.45004499 0 0 0 20 3.5507812 L 15 3.5507812 z M 17.5 13.550781 C 16.775 13.550781 16.043954 13.789922 15.482422 14.289062 C 14.92089 14.788201 14.550781 15.554167 14.550781 16.5 L 14.550781 18 L 14.550781 20 A 0.44999999 0.44999999 0 0 0 15 20.449219 A 0.44999999 0.44999999 0 0 0 15.449219 20 L 15.449219 18.449219 L 19.550781 18.449219 L 19.550781 20 A 0.44999999 0.44999999 0 0 0 20 20.449219 A 0.44999999 0.44999999 0 0 0 20.449219 20 L 20.449219 18 L 20.449219 16.5 C 20.449219 15.554167 20.07911 14.788201 19.517578 14.289062 C 18.956046 13.789922 18.225 13.550781 17.5 13.550781 z M 17.5 14.449219 C 18.025 14.449219 18.543954 14.626744 18.919922 14.960938 C 19.29589 15.295131 19.550781 15.779167 19.550781 16.5 L 19.550781 17.550781 L 15.449219 17.550781 L 15.449219 16.5 C 15.449219 15.779167 15.70411 15.295131 16.080078 14.960938 C 16.456046 14.626743 16.975 14.449219 17.5 14.449219 z " />
</svg>
