<?xml version="1.0" encoding="UTF-8" standalone="no"?>
<svg
   width="24"
   height="24"
   viewBox="0 0 24 24"
   fill="none"
   stroke="currentColor"
   stroke-width="0.9"
   stroke-linecap="round"
   stroke-linejoin="round"
   version="1.1"
   id="svg3"
   sodipodi:docname=".tmp_arrow-down-to-line.svg"
   xmlns:inkscape="http://www.inkscape.org/namespaces/inkscape"
   xmlns:sodipodi="http://sodipodi.sourceforge.net/DTD/sodipodi-0.dtd"
   xmlns="http://www.w3.org/2000/svg"
   xmlns:svg="http://www.w3.org/2000/svg">
  <defs
     id="defs3" />
  <sodipodi:namedview
     id="namedview3"
     pagecolor="#ffffff"
     bordercolor="#000000"
     borderopacity="0.25"
     inkscape:showpageshadow="2"
     inkscape:pageopacity="0.0"
     inkscape:pagecheckerboard="0"
     inkscape:deskcolor="#d1d1d1" />
  <path
     id="path1"
     style="baseline-shift:baseline;display:inline;overflow:visible;vector-effect:none;fill:#000000;stroke:none;stroke-linecap:butt;stroke-linejoin:miter;enable-background:accumulate;stop-color:#000000;stop-opacity:1;opacity:1"
     d="M 12 2.5507812 A 0.44999999 0.44999999 0 0 0 11.550781 3 L 11.550781 15.914062 L 6.3183594 10.681641 A 0.44999999 0.44999999 0 0 0 5.6816406 10.681641 A 0.44999999 0.44999999 0 0 0 5.6816406 11.318359 L 11.681641 17.318359 A 0.45004499 0.45004499 0 0 0 12.318359 17.318359 L 18.318359 11.318359 A 0.44999999 0.44999999 0 0 0 18.318359 10.681641 A 0.44999999 0.44999999 0 0 0 17.681641 10.681641 L 12.449219 15.914062 L 12.449219 3 A 0.44999999 0.44999999 0 0 0 12 2.5507812 z M 5 20.550781 A 0.44999999 0.44999999 0 0 0 4.5507812 21 A 0.44999999 0.44999999 0 0 0 5 21.449219 L 19 21.449219 A 0.44999999 0.44999999 0 0 0 19.449219 21 A 0.44999999 0.44999999 0 0 0 19 20.550781 L 5 20.550781 z " />
</svg>
