<?xml version="1.0" encoding="UTF-8" standalone="no"?>
<svg
   width="24"
   height="24"
   viewBox="0 0 24 24"
   fill="none"
   stroke="currentColor"
   stroke-width="0.9"
   stroke-linecap="round"
   stroke-linejoin="round"
   version="1.1"
   id="svg6"
   sodipodi:docname=".tmp_audio-lines.svg"
   xmlns:inkscape="http://www.inkscape.org/namespaces/inkscape"
   xmlns:sodipodi="http://sodipodi.sourceforge.net/DTD/sodipodi-0.dtd"
   xmlns="http://www.w3.org/2000/svg"
   xmlns:svg="http://www.w3.org/2000/svg">
  <defs
     id="defs6" />
  <sodipodi:namedview
     id="namedview6"
     pagecolor="#ffffff"
     bordercolor="#000000"
     borderopacity="0.25"
     inkscape:showpageshadow="2"
     inkscape:pageopacity="0.0"
     inkscape:pagecheckerboard="0"
     inkscape:deskcolor="#d1d1d1" />
  <path
     id="path1"
     style="baseline-shift:baseline;display:inline;overflow:visible;vector-effect:none;fill:#000000;stroke:none;stroke-linecap:butt;stroke-linejoin:miter;enable-background:accumulate;stop-color:#000000;stop-opacity:1;opacity:1"
     d="M 10 2.5507812 A 0.44999999 0.44999999 0 0 0 9.5507812 3 L 9.5507812 21 A 0.44999999 0.44999999 0 0 0 10 21.449219 A 0.44999999 0.44999999 0 0 0 10.449219 21 L 10.449219 3 A 0.44999999 0.44999999 0 0 0 10 2.5507812 z M 18 4.5507812 A 0.44999999 0.44999999 0 0 0 17.550781 5 L 17.550781 18 A 0.44999999 0.44999999 0 0 0 18 18.449219 A 0.44999999 0.44999999 0 0 0 18.449219 18 L 18.449219 5 A 0.44999999 0.44999999 0 0 0 18 4.5507812 z M 6 5.5507812 A 0.44999999 0.44999999 0 0 0 5.5507812 6 L 5.5507812 17 A 0.44999999 0.44999999 0 0 0 6 17.449219 A 0.44999999 0.44999999 0 0 0 6.4492188 17 L 6.4492188 6 A 0.44999999 0.44999999 0 0 0 6 5.5507812 z M 14 7.5507812 A 0.44999999 0.44999999 0 0 0 13.550781 8 L 13.550781 15 A 0.44999999 0.44999999 0 0 0 14 15.449219 A 0.44999999 0.44999999 0 0 0 14.449219 15 L 14.449219 8 A 0.44999999 0.44999999 0 0 0 14 7.5507812 z M 2 9.5507812 A 0.44999999 0.44999999 0 0 0 1.5507812 10 L 1.5507812 13 A 0.44999999 0.44999999 0 0 0 2 13.449219 A 0.44999999 0.44999999 0 0 0 2.4492188 13 L 2.4492188 10 A 0.44999999 0.44999999 0 0 0 2 9.5507812 z M 22 9.5507812 A 0.44999999 0.44999999 0 0 0 21.550781 10 L 21.550781 13 A 0.44999999 0.44999999 0 0 0 22 13.449219 A 0.44999999 0.44999999 0 0 0 22.449219 13 L 22.449219 10 A 0.44999999 0.44999999 0 0 0 22 9.5507812 z " />
</svg>
