<?xml version="1.0" encoding="UTF-8" standalone="no"?>
<svg
   width="24"
   height="24"
   viewBox="0 0 24 24"
   fill="none"
   stroke="currentColor"
   stroke-width="0.9"
   stroke-linecap="round"
   stroke-linejoin="round"
   version="1.1"
   id="svg1"
   sodipodi:docname=".tmp_audio-waveform.svg"
   xmlns:inkscape="http://www.inkscape.org/namespaces/inkscape"
   xmlns:sodipodi="http://sodipodi.sourceforge.net/DTD/sodipodi-0.dtd"
   xmlns="http://www.w3.org/2000/svg"
   xmlns:svg="http://www.w3.org/2000/svg">
  <defs
     id="defs1" />
  <sodipodi:namedview
     id="namedview1"
     pagecolor="#ffffff"
     bordercolor="#000000"
     borderopacity="0.25"
     inkscape:showpageshadow="2"
     inkscape:pageopacity="0.0"
     inkscape:pagecheckerboard="0"
     inkscape:deskcolor="#d1d1d1" />
  <path
     id="path1"
     style="baseline-shift:baseline;display:inline;overflow:visible;vector-effect:none;fill:#000000;stroke:none;stroke-linecap:butt;stroke-linejoin:miter;enable-background:accumulate;stop-color:#000000;stop-opacity:1;opacity:1"
     d="M 14 1.5507812 C 13.4 1.5507812 12.793954 1.7482566 12.326172 2.1640625 C 11.85839 2.5798684 11.550781 3.2208336 11.550781 4 L 11.550781 20 C 11.550781 20.554166 11.35839 20.913202 11.076172 21.164062 C 10.793954 21.414924 10.4 21.550781 10 21.550781 C 9.6 21.550781 9.2060463 21.414924 8.9238281 21.164062 C 8.64161 20.913202 8.4492187 20.554166 8.4492188 20 L 8.4492188 7 C 8.4492188 6.2208336 8.14161 5.5798684 7.6738281 5.1640625 C 7.2060463 4.7482566 6.6 4.5507813 6 4.5507812 C 5.4 4.5507812 4.7939537 4.7482566 4.3261719 5.1640625 C 3.85839 5.5798684 3.5507813 6.2208336 3.5507812 7 L 3.5507812 11 C 3.5507812 11.861371 2.8613715 12.550781 2 12.550781 A 0.44999999 0.44999999 0 0 0 1.5507812 13 A 0.44999999 0.44999999 0 0 0 2 13.449219 C 3.3477675 13.449219 4.4492188 12.347768 4.4492188 11 L 4.4492188 7 C 4.4492188 6.4458337 4.64161 6.086798 4.9238281 5.8359375 C 5.2060463 5.585077 5.6 5.4492189 6 5.4492188 C 6.4 5.4492188 6.7939537 5.585077 7.0761719 5.8359375 C 7.35839 6.086798 7.5507813 6.4458337 7.5507812 7 L 7.5507812 20 C 7.5507812 20.779166 7.85839 21.420132 8.3261719 21.835938 C 8.7939537 22.251743 9.4 22.449219 10 22.449219 C 10.6 22.449219 11.206046 22.251744 11.673828 21.835938 C 12.14161 21.420133 12.449219 20.779166 12.449219 20 L 12.449219 4 C 12.449219 3.4458337 12.64161 3.086798 12.923828 2.8359375 C 13.206046 2.585077 13.6 2.4492188 14 2.4492188 C 14.4 2.4492188 14.793954 2.585077 15.076172 2.8359375 C 15.35839 3.086798 15.550781 3.4458337 15.550781 4 L 15.550781 17 C 15.550781 17.779166 15.85839 18.420132 16.326172 18.835938 C 16.793954 19.251743 17.4 19.449219 18 19.449219 C 18.6 19.449219 19.206046 19.251744 19.673828 18.835938 C 20.14161 18.420133 20.449219 17.779166 20.449219 17 L 20.449219 13 C 20.449219 12.138629 21.138629 11.449219 22 11.449219 A 0.44999999 0.44999999 0 0 0 22.449219 11 A 0.44999999 0.44999999 0 0 0 22 10.550781 C 20.652232 10.550781 19.550781 11.652232 19.550781 13 L 19.550781 17 C 19.550781 17.554166 19.35839 17.913202 19.076172 18.164062 C 18.793954 18.414924 18.4 18.550781 18 18.550781 C 17.6 18.550781 17.206046 18.414924 16.923828 18.164062 C 16.64161 17.913202 16.449219 17.554166 16.449219 17 L 16.449219 4 C 16.449219 3.2208336 16.14161 2.5798684 15.673828 2.1640625 C 15.206046 1.7482566 14.6 1.5507813 14 1.5507812 z " />
</svg>
