<?xml version="1.0" encoding="UTF-8" standalone="no"?>
<svg
   width="24"
   height="24"
   viewBox="0 0 24 24"
   fill="none"
   stroke="currentColor"
   stroke-width="0.9"
   stroke-linecap="round"
   stroke-linejoin="round"
   version="1.1"
   id="svg1"
   sodipodi:docname=".tmp_banknote.svg"
   xmlns:inkscape="http://www.inkscape.org/namespaces/inkscape"
   xmlns:sodipodi="http://sodipodi.sourceforge.net/DTD/sodipodi-0.dtd"
   xmlns="http://www.w3.org/2000/svg"
   xmlns:svg="http://www.w3.org/2000/svg">
  <defs
     id="defs1" />
  <sodipodi:namedview
     id="namedview1"
     pagecolor="#ffffff"
     bordercolor="#000000"
     borderopacity="0.25"
     inkscape:showpageshadow="2"
     inkscape:pageopacity="0.0"
     inkscape:pagecheckerboard="0"
     inkscape:deskcolor="#d1d1d1" />
  <path
     id="rect1"
     style="baseline-shift:baseline;display:inline;overflow:visible;vector-effect:none;fill:#000000;stroke:none;stroke-linecap:butt;stroke-linejoin:miter;enable-background:accumulate;stop-color:#000000;stop-opacity:1;opacity:1"
     d="M 4 5.5507812 C 2.6504838 5.5507812 1.5507813 6.6504838 1.5507812 8 L 1.5507812 16 C 1.5507812 17.349516 2.6504838 18.449219 4 18.449219 L 20 18.449219 C 21.349516 18.449219 22.449219 17.349516 22.449219 16 L 22.449219 8 C 22.449219 6.6504838 21.349516 5.5507814 20 5.5507812 L 4 5.5507812 z M 4 6.4492188 L 20 6.4492188 C 20.866484 6.4492188 21.550781 7.1335162 21.550781 8 L 21.550781 16 C 21.550781 16.866484 20.866484 17.550781 20 17.550781 L 4 17.550781 C 3.1335162 17.550781 2.4492188 16.866484 2.4492188 16 L 2.4492188 8 C 2.4492188 7.1335162 3.1335162 6.4492188 4 6.4492188 z M 12 9.5507812 C 10.652232 9.5507812 9.5507812 10.652232 9.5507812 12 C 9.5507812 13.347768 10.652232 14.449219 12 14.449219 C 13.347768 14.449219 14.449219 13.347768 14.449219 12 C 14.449219 10.652232 13.347768 9.5507812 12 9.5507812 z M 12 10.449219 C 12.861371 10.449219 13.550781 11.138629 13.550781 12 C 13.550781 12.861371 12.861371 13.550781 12 13.550781 C 11.138629 13.550781 10.449219 12.861371 10.449219 12 C 10.449219 11.138629 11.138629 10.449219 12 10.449219 z M 6 11.550781 A 0.44999999 0.44999999 0 0 0 5.5507812 12 A 0.44999999 0.44999999 0 0 0 6 12.449219 L 6.0097656 12.449219 A 0.44999999 0.44999999 0 0 0 6.4609375 12 A 0.44999999 0.44999999 0 0 0 6.0097656 11.550781 L 6 11.550781 z M 18 11.550781 A 0.44999999 0.44999999 0 0 0 17.550781 12 A 0.44999999 0.44999999 0 0 0 18 12.449219 L 18.009766 12.449219 A 0.44999999 0.44999999 0 0 0 18.460938 12 A 0.44999999 0.44999999 0 0 0 18.009766 11.550781 L 18 11.550781 z " />
</svg>
