<?xml version="1.0" encoding="UTF-8" standalone="no"?>
<svg
   width="24"
   height="24"
   viewBox="0 0 24 24"
   fill="none"
   stroke="currentColor"
   stroke-width="0.9"
   stroke-linecap="round"
   stroke-linejoin="round"
   version="1.1"
   id="svg4"
   sodipodi:docname=".tmp_bell-electric.svg"
   xmlns:inkscape="http://www.inkscape.org/namespaces/inkscape"
   xmlns:sodipodi="http://sodipodi.sourceforge.net/DTD/sodipodi-0.dtd"
   xmlns="http://www.w3.org/2000/svg"
   xmlns:svg="http://www.w3.org/2000/svg">
  <defs
     id="defs4" />
  <sodipodi:namedview
     id="namedview4"
     pagecolor="#ffffff"
     bordercolor="#000000"
     borderopacity="0.25"
     inkscape:showpageshadow="2"
     inkscape:pageopacity="0.0"
     inkscape:pagecheckerboard="0"
     inkscape:deskcolor="#d1d1d1" />
  <path
     id="path1"
     style="baseline-shift:baseline;display:inline;overflow:visible;vector-effect:none;fill:#000000;stroke:none;stroke-linecap:butt;stroke-linejoin:miter;enable-background:accumulate;stop-color:#000000;stop-opacity:1;opacity:1"
     d="M 9 1.5507812 C 4.8908087 1.5507812 1.5507814 4.8908087 1.5507812 9 C 1.5507813 11.859527 3.1685957 14.34747 5.5371094 15.595703 C 4.4079763 15.813134 3.5507813 16.808804 3.5507812 18 L 3.5507812 20 C 3.5507812 21.349516 4.6504838 22.449219 6 22.449219 L 12 22.449219 C 13.349516 22.449219 14.449219 21.349516 14.449219 20 L 14.449219 19.435547 C 15.918636 19.347058 17.330467 18.825662 18.503906 17.935547 C 18.918428 18.257092 19.437504 18.449219 20 18.449219 C 21.347768 18.449219 22.449219 17.347768 22.449219 16 C 22.449219 14.652232 21.347768 13.550781 20 13.550781 C 18.652232 13.550781 17.550781 14.652232 17.550781 16 C 17.550781 16.460788 17.679023 16.892688 17.902344 17.261719 C 16.896551 18.007582 15.698001 18.449401 14.449219 18.535156 L 14.449219 18 C 14.449219 16.808804 13.592024 15.813134 12.462891 15.595703 C 14.831404 14.34747 16.449219 11.859527 16.449219 9 C 16.449219 4.8908087 13.109191 1.5507812 9 1.5507812 z M 9 2.4492188 C 12.622795 2.4492188 15.550781 5.3772048 15.550781 9 C 15.550781 12.622795 12.622795 15.550781 9 15.550781 C 5.3772048 15.550781 2.4492188 12.622795 2.4492188 9 C 2.4492188 5.3772048 5.3772048 2.4492188 9 2.4492188 z M 18.763672 3.5507812 A 0.44999999 0.44999999 0 0 0 18.595703 3.5996094 A 0.44999999 0.44999999 0 0 0 18.398438 4.2050781 C 19.155548 5.6902019 19.551387 7.3330243 19.550781 9 A 0.44999999 0.44999999 0 0 0 20 9.4492188 A 0.44999999 0.44999999 0 0 0 20.449219 9 C 20.449877 7.1908463 20.022857 5.4067134 19.201172 3.7949219 A 0.44999999 0.44999999 0 0 0 18.763672 3.5507812 z M 9 8.5507812 A 0.44999999 0.44999999 0 0 0 8.5507812 9 A 0.44999999 0.44999999 0 0 0 9 9.4492188 L 9.0097656 9.4492188 A 0.44999999 0.44999999 0 0 0 9.4609375 9 A 0.44999999 0.44999999 0 0 0 9.0097656 8.5507812 L 9 8.5507812 z M 20 14.449219 C 20.861371 14.449219 21.550781 15.138629 21.550781 16 C 21.550781 16.861371 20.861371 17.550781 20 17.550781 C 19.547989 17.550781 19.14386 17.361555 18.861328 17.056641 A 0.44999999 0.44999999 0 0 0 18.841797 17.035156 C 18.59739 16.761384 18.449219 16.398987 18.449219 16 C 18.449219 15.138629 19.138629 14.449219 20 14.449219 z M 6 16.449219 L 9 16.449219 L 12 16.449219 C 12.866484 16.449219 13.550781 17.133516 13.550781 18 L 13.550781 19 L 13.550781 20 C 13.550781 20.866484 12.866484 21.550781 12 21.550781 L 6 21.550781 C 5.1335162 21.550781 4.4492188 20.866484 4.4492188 20 L 4.4492188 18 C 4.4492188 17.133516 5.1335162 16.449219 6 16.449219 z " />
</svg>
