<?xml version="1.0" encoding="UTF-8" standalone="no"?>
<svg
   width="24"
   height="24"
   viewBox="0 0 24 24"
   fill="none"
   stroke="currentColor"
   stroke-width="0.9"
   stroke-linecap="round"
   stroke-linejoin="round"
   version="1.1"
   id="svg6"
   sodipodi:docname=".tmp_binoculars.svg"
   xmlns:inkscape="http://www.inkscape.org/namespaces/inkscape"
   xmlns:sodipodi="http://sodipodi.sourceforge.net/DTD/sodipodi-0.dtd"
   xmlns="http://www.w3.org/2000/svg"
   xmlns:svg="http://www.w3.org/2000/svg">
  <defs
     id="defs6" />
  <sodipodi:namedview
     id="namedview6"
     pagecolor="#ffffff"
     bordercolor="#000000"
     borderopacity="0.25"
     inkscape:showpageshadow="2"
     inkscape:pageopacity="0.0"
     inkscape:pagecheckerboard="0"
     inkscape:deskcolor="#d1d1d1" />
  <path
     id="path1"
     style="baseline-shift:baseline;display:inline;overflow:visible;vector-effect:none;fill:#000000;stroke:none;stroke-linecap:butt;stroke-linejoin:miter;enable-background:accumulate;stop-color:#000000;stop-opacity:1;opacity:1"
     d="M 6 2.5507812 C 5.2045172 2.5507812 4.5507812 3.2045172 4.5507812 4 L 4.5507812 6.6230469 C 3.9725564 6.8137729 3.5507813 7.3610453 3.5507812 8 L 3.5507812 10.320312 C 3.5507812 11.093127 3.1138164 11.884176 2.6191406 12.675781 C 2.1244649 13.467386 1.5507813 14.237609 1.5507812 15.148438 L 1.5507812 19 C 1.5507812 20.347768 2.6522325 21.449219 4 21.449219 L 8 21.449219 C 9.3477675 21.449219 10.449219 20.347768 10.449219 19 L 10.449219 16.449219 L 13.550781 16.449219 L 13.550781 19 C 13.550781 20.347768 14.652232 21.449219 16 21.449219 L 20 21.449219 C 21.347768 21.449219 22.449219 20.347768 22.449219 19 L 22.449219 15.148438 C 22.449219 14.237609 21.875535 13.467386 21.380859 12.675781 C 20.886184 11.884176 20.449219 11.093127 20.449219 10.320312 L 20.449219 8 C 20.449219 7.3610454 20.027444 6.8137729 19.449219 6.6230469 L 19.449219 4 C 19.449219 3.2045172 18.795483 2.5507812 18 2.5507812 L 16 2.5507812 C 15.204517 2.5507812 14.550781 3.2045172 14.550781 4 L 14.550781 6.6230469 C 13.972556 6.8137729 13.550781 7.3610454 13.550781 8 L 13.550781 9.5507812 L 10.449219 9.5507812 L 10.449219 8 C 10.449219 7.3610453 10.027444 6.8137729 9.4492188 6.6230469 L 9.4492188 4 C 9.4492188 3.2045172 8.7954828 2.5507812 8 2.5507812 L 6 2.5507812 z M 6 3.4492188 L 8 3.4492188 C 8.3090867 3.4492188 8.5507812 3.6909133 8.5507812 4 L 8.5507812 6.5507812 L 5.4492188 6.5507812 L 5.4492188 4 C 5.4492188 3.6909133 5.6909133 3.4492188 6 3.4492188 z M 16 3.4492188 L 18 3.4492188 C 18.309087 3.4492188 18.550781 3.6909133 18.550781 4 L 18.550781 6.5507812 L 15.449219 6.5507812 L 15.449219 4 C 15.449219 3.6909133 15.690913 3.4492188 16 3.4492188 z M 5 7.4492188 L 9 7.4492188 C 9.3090867 7.4492188 9.5507812 7.6909133 9.5507812 8 L 9.5507812 15.550781 L 2.4492188 15.550781 L 2.4492188 15.148438 C 2.4492188 14.669265 2.8755351 13.960989 3.3808594 13.152344 C 3.8861836 12.343699 4.4492187 11.414498 4.4492188 10.320312 L 4.4492188 8 C 4.4492188 7.6909133 4.6909133 7.4492187 5 7.4492188 z M 15 7.4492188 L 19 7.4492188 C 19.309087 7.4492188 19.550781 7.6909133 19.550781 8 L 19.550781 10.320312 C 19.550781 11.414497 20.113816 12.343699 20.619141 13.152344 C 21.124465 13.960989 21.550781 14.669265 21.550781 15.148438 L 21.550781 15.550781 L 14.449219 15.550781 L 14.449219 8 C 14.449219 7.6909133 14.690913 7.4492187 15 7.4492188 z M 10.449219 10.449219 L 13.550781 10.449219 L 13.550781 15.550781 L 10.449219 15.550781 L 10.449219 10.449219 z M 2.4492188 16.449219 L 9.5507812 16.449219 L 9.5507812 19 C 9.5507812 19.861371 8.8613715 20.550781 8 20.550781 L 4 20.550781 C 3.1386285 20.550781 2.4492187 19.861371 2.4492188 19 L 2.4492188 16.449219 z M 14.449219 16.449219 L 21.550781 16.449219 L 21.550781 19 C 21.550781 19.861371 20.861371 20.550781 20 20.550781 L 16 20.550781 C 15.138629 20.550781 14.449219 19.861371 14.449219 19 L 14.449219 16.449219 z " />
</svg>
