<?xml version="1.0" encoding="UTF-8" standalone="no"?>
<svg
   width="24"
   height="24"
   viewBox="0 0 24 24"
   fill="none"
   stroke="currentColor"
   stroke-width="0.9"
   stroke-linecap="round"
   stroke-linejoin="round"
   version="1.1"
   id="svg9"
   sodipodi:docname=".tmp_biohazard.svg"
   xmlns:inkscape="http://www.inkscape.org/namespaces/inkscape"
   xmlns:sodipodi="http://sodipodi.sourceforge.net/DTD/sodipodi-0.dtd"
   xmlns="http://www.w3.org/2000/svg"
   xmlns:svg="http://www.w3.org/2000/svg">
  <defs
     id="defs9" />
  <sodipodi:namedview
     id="namedview9"
     pagecolor="#ffffff"
     bordercolor="#000000"
     borderopacity="0.25"
     inkscape:showpageshadow="2"
     inkscape:pageopacity="0.0"
     inkscape:pagecheckerboard="0"
     inkscape:deskcolor="#d1d1d1" />
  <path
     id="circle1"
     style="baseline-shift:baseline;display:inline;overflow:visible;vector-effect:none;fill:#000000;stroke:none;stroke-linecap:butt;stroke-linejoin:miter;enable-background:accumulate;stop-color:#000000;stop-opacity:1;opacity:1"
     d="M 6.6777344 2.9511719 A 0.44999999 0.44999999 0 0 0 6.2773438 3.2480469 C 5.5244519 5.339413 5.9762653 7.5552168 7.3144531 9.203125 C 5.2194495 8.9049574 3.078344 9.6355417 1.65625 11.308594 A 0.44999999 0.44999999 0 0 0 1.7089844 11.943359 A 0.44999999 0.44999999 0 0 0 2.34375 11.890625 C 3.9111547 10.04662 6.4794137 9.4940637 8.6992188 10.503906 L 8.7011719 10.503906 L 9.6953125 11.072266 C 9.6018985 11.331009 9.5507812 11.610485 9.5507812 11.900391 C 9.5507812 13.094809 10.415846 14.096278 11.550781 14.308594 L 11.550781 15.464844 C 11.366008 17.866899 9.6198934 19.888556 7.2324219 20.255859 A 0.44999999 0.44999999 0 0 0 6.8554688 20.767578 A 0.44999999 0.44999999 0 0 0 7.3691406 21.144531 C 9.4971717 20.817142 11.181446 19.372941 11.972656 17.478516 C 12.738928 19.445714 14.48817 20.914496 16.630859 21.244141 A 0.44999999 0.44999999 0 0 0 17.144531 20.869141 A 0.44999999 0.44999999 0 0 0 16.767578 20.355469 C 14.378393 19.987902 12.54134 17.969691 12.449219 15.482422 L 12.449219 14.308594 C 13.584154 14.096278 14.449219 13.094809 14.449219 11.900391 C 14.449219 11.610485 14.398102 11.33101 14.304688 11.072266 L 15.324219 10.490234 C 17.540048 9.3946141 20.081386 9.9446307 21.650391 11.882812 A 0.44999999 0.44999999 0 0 0 22.283203 11.949219 A 0.44999999 0.44999999 0 0 0 22.349609 11.316406 C 20.949948 9.5874146 18.835646 8.8232406 16.761719 9.1308594 C 18.048876 7.4910851 18.46331 5.3054197 17.722656 3.2480469 A 0.44999999 0.44999999 0 0 0 17.148438 2.9765625 A 0.44999999 0.44999999 0 0 0 16.876953 3.5527344 C 17.707576 5.8600198 16.890061 8.3263074 14.861328 9.71875 L 13.849609 10.296875 C 13.39977 9.7784096 12.736216 9.4492188 12 9.4492188 C 11.263784 9.4492188 10.60023 9.7784097 10.150391 10.296875 L 9.1386719 9.71875 C 7.1099561 8.3263075 6.292424 5.86002 7.1230469 3.5527344 A 0.44999999 0.44999999 0 0 0 6.8515625 2.9765625 A 0.44999999 0.44999999 0 0 0 6.6777344 2.9511719 z M 12 4.8007812 C 11.470197 4.8007812 10.940395 4.8533272 10.412109 4.9589844 A 0.44999999 0.44999999 0 0 0 10.058594 5.4882812 A 0.44999999 0.44999999 0 0 0 10.587891 5.8417969 C 11.531319 5.6531113 12.468681 5.6531113 13.412109 5.8417969 A 0.44999999 0.44999999 0 0 0 13.941406 5.4882812 A 0.44999999 0.44999999 0 0 0 13.587891 4.9589844 C 13.059605 4.8533272 12.529803 4.8007812 12 4.8007812 z M 12 10.349609 C 12.5204 10.349609 12.979004 10.60107 13.259766 10.990234 A 0.44999999 0.44999999 0 0 0 13.308594 11.123047 A 0.44999999 0.44999999 0 0 0 13.40625 11.242188 C 13.499143 11.441757 13.550781 11.664346 13.550781 11.900391 C 13.550781 12.761762 12.861371 13.449219 12 13.449219 C 11.138629 13.449219 10.449219 12.761762 10.449219 11.900391 C 10.449219 11.664346 10.500857 11.441757 10.59375 11.242188 A 0.44999999 0.44999999 0 0 0 10.691406 11.123047 A 0.44999999 0.44999999 0 0 0 10.740234 10.990234 C 11.020996 10.60107 11.4796 10.349609 12 10.349609 z M 5.4726562 13.449219 A 0.44999999 0.44999999 0 0 0 5.3574219 13.472656 A 0.44999999 0.44999999 0 0 0 5.0722656 14.042969 C 5.3912393 14.99989 5.9210315 15.958141 6.6816406 16.71875 A 0.44999999 0.44999999 0 0 0 7.3183594 16.71875 A 0.44999999 0.44999999 0 0 0 7.3183594 16.082031 C 6.6789685 15.44264 6.2087607 14.600891 5.9277344 13.757812 A 0.44999999 0.44999999 0 0 0 5.4726562 13.449219 z M 18.527344 13.449219 A 0.44999999 0.44999999 0 0 0 18.072266 13.757812 C 17.791239 14.600891 17.321031 15.44264 16.681641 16.082031 A 0.44999999 0.44999999 0 0 0 16.681641 16.71875 A 0.44999999 0.44999999 0 0 0 17.318359 16.71875 C 18.078969 15.958141 18.608761 14.99989 18.927734 14.042969 A 0.44999999 0.44999999 0 0 0 18.642578 13.472656 A 0.44999999 0.44999999 0 0 0 18.527344 13.449219 z " />
</svg>
