<?xml version="1.0" encoding="UTF-8" standalone="no"?>
<svg
   width="24"
   height="24"
   viewBox="0 0 24 24"
   fill="none"
   stroke="currentColor"
   stroke-width="0.9"
   stroke-linecap="round"
   stroke-linejoin="round"
   version="1.1"
   id="svg2"
   sodipodi:docname=".tmp_blend.svg"
   xmlns:inkscape="http://www.inkscape.org/namespaces/inkscape"
   xmlns:sodipodi="http://sodipodi.sourceforge.net/DTD/sodipodi-0.dtd"
   xmlns="http://www.w3.org/2000/svg"
   xmlns:svg="http://www.w3.org/2000/svg">
  <defs
     id="defs2" />
  <sodipodi:namedview
     id="namedview2"
     pagecolor="#ffffff"
     bordercolor="#000000"
     borderopacity="0.25"
     inkscape:showpageshadow="2"
     inkscape:pageopacity="0.0"
     inkscape:pagecheckerboard="0"
     inkscape:deskcolor="#d1d1d1" />
  <path
     id="circle1"
     style="baseline-shift:baseline;display:inline;overflow:visible;vector-effect:none;fill:#000000;stroke:none;stroke-linecap:butt;stroke-linejoin:miter;enable-background:accumulate;stop-color:#000000;stop-opacity:1;opacity:1"
     d="M 9 1.5507812 C 4.8908087 1.5507812 1.5507814 4.8908087 1.5507812 9 C 1.5507813 12.655189 4.1938312 15.701492 7.6699219 16.330078 C 8.2985078 19.806169 11.344811 22.449219 15 22.449219 C 19.109191 22.449219 22.449219 19.109191 22.449219 15 C 22.449219 11.344811 19.806169 8.2985078 16.330078 7.6699219 C 15.701492 4.1938311 12.655189 1.5507812 9 1.5507812 z M 9 2.4492188 C 12.128289 2.4492188 14.738283 4.6319765 15.392578 7.5605469 C 15.262492 7.5537644 15.131752 7.5507812 15 7.5507812 C 10.890809 7.5507812 7.5507812 10.890809 7.5507812 15 C 7.5507812 15.131752 7.5537644 15.262492 7.5605469 15.392578 C 4.6319765 14.738283 2.4492188 12.128289 2.4492188 9 C 2.4492188 5.3772048 5.3772048 2.4492188 9 2.4492188 z M 15 8.4492188 C 15.178359 8.4492188 15.354573 8.4567758 15.529297 8.4707031 C 15.543224 8.6454272 15.550781 8.8216412 15.550781 9 C 15.550781 12.622795 12.622795 15.550781 9 15.550781 C 8.8216412 15.550781 8.6454272 15.543224 8.4707031 15.529297 C 8.4567758 15.354573 8.4492187 15.178359 8.4492188 15 C 8.4492188 11.377205 11.377205 8.4492186 15 8.4492188 z M 16.439453 8.6074219 C 19.368023 9.2617176 21.550781 11.871712 21.550781 15 C 21.550781 18.622795 18.622795 21.550781 15 21.550781 C 11.871712 21.550781 9.2617176 19.368023 8.6074219 16.439453 C 8.7375077 16.446236 8.868248 16.449219 9 16.449219 C 13.109191 16.449219 16.449219 13.109191 16.449219 9 C 16.449219 8.868248 16.446236 8.7375077 16.439453 8.6074219 z " />
</svg>
