<?xml version="1.0" encoding="UTF-8" standalone="no"?>
<svg
   width="24"
   height="24"
   viewBox="0 0 24 24"
   fill="none"
   stroke="currentColor"
   stroke-width="0.9"
   stroke-linecap="round"
   stroke-linejoin="round"
   version="1.1"
   id="svg6"
   sodipodi:docname=".tmp_book-open-text.svg"
   xmlns:inkscape="http://www.inkscape.org/namespaces/inkscape"
   xmlns:sodipodi="http://sodipodi.sourceforge.net/DTD/sodipodi-0.dtd"
   xmlns="http://www.w3.org/2000/svg"
   xmlns:svg="http://www.w3.org/2000/svg">
  <defs
     id="defs6" />
  <sodipodi:namedview
     id="namedview6"
     pagecolor="#ffffff"
     bordercolor="#000000"
     borderopacity="0.25"
     inkscape:showpageshadow="2"
     inkscape:pageopacity="0.0"
     inkscape:pagecheckerboard="0"
     inkscape:deskcolor="#d1d1d1" />
  <path
     id="path1"
     style="baseline-shift:baseline;display:inline;overflow:visible;vector-effect:none;fill:#000000;stroke:none;stroke-linecap:butt;stroke-linejoin:miter;enable-background:accumulate;stop-color:#000000;stop-opacity:1;opacity:1"
     d="M 3 2.5507812 C 2.2045172 2.5507812 1.5507813 3.2045172 1.5507812 4 L 1.5507812 17 C 1.5507812 17.795483 2.2045172 18.449219 3 18.449219 L 9 18.449219 C 10.413656 18.449219 11.550781 19.586344 11.550781 21 A 0.44999999 0.44999999 0 0 0 12 21.449219 A 0.44999999 0.44999999 0 0 0 12.449219 21 C 12.449219 19.586344 13.586344 18.449219 15 18.449219 L 21 18.449219 C 21.795483 18.449219 22.449219 17.795483 22.449219 17 L 22.449219 4 C 22.449219 3.2045172 21.795483 2.5507812 21 2.5507812 L 16 2.5507812 C 14.224974 2.5507812 12.713509 3.6130476 12 5.1210938 C 11.286491 3.6130476 9.7750261 2.5507813 8 2.5507812 L 3 2.5507812 z M 3 3.4492188 L 8 3.4492188 C 9.965941 3.4492188 11.550781 5.034059 11.550781 7 L 11.550781 18.742188 C 10.928121 18.018887 10.027117 17.550781 9 17.550781 L 3 17.550781 C 2.6909133 17.550781 2.4492188 17.309087 2.4492188 17 L 2.4492188 4 C 2.4492188 3.6909133 2.6909133 3.4492188 3 3.4492188 z M 16 3.4492188 L 21 3.4492188 C 21.309087 3.4492188 21.550781 3.6909133 21.550781 4 L 21.550781 17 C 21.550781 17.309087 21.309087 17.550781 21 17.550781 L 15 17.550781 C 13.972883 17.550781 13.071879 18.018887 12.449219 18.742188 L 12.449219 7 C 12.449219 5.034059 14.034059 3.4492188 16 3.4492188 z M 6 7.5507812 A 0.44999999 0.44999999 0 0 0 5.5507812 8 A 0.44999999 0.44999999 0 0 0 6 8.4492188 L 8 8.4492188 A 0.44999999 0.44999999 0 0 0 8.4492188 8 A 0.44999999 0.44999999 0 0 0 8 7.5507812 L 6 7.5507812 z M 16 7.5507812 A 0.44999999 0.44999999 0 0 0 15.550781 8 A 0.44999999 0.44999999 0 0 0 16 8.4492188 L 18 8.4492188 A 0.44999999 0.44999999 0 0 0 18.449219 8 A 0.44999999 0.44999999 0 0 0 18 7.5507812 L 16 7.5507812 z M 6 11.550781 A 0.44999999 0.44999999 0 0 0 5.5507812 12 A 0.44999999 0.44999999 0 0 0 6 12.449219 L 8 12.449219 A 0.44999999 0.44999999 0 0 0 8.4492188 12 A 0.44999999 0.44999999 0 0 0 8 11.550781 L 6 11.550781 z M 16 11.550781 A 0.44999999 0.44999999 0 0 0 15.550781 12 A 0.44999999 0.44999999 0 0 0 16 12.449219 L 18 12.449219 A 0.44999999 0.44999999 0 0 0 18.449219 12 A 0.44999999 0.44999999 0 0 0 18 11.550781 L 16 11.550781 z " />
</svg>
