<?xml version="1.0" encoding="UTF-8" standalone="no"?>
<svg
   width="24"
   height="24"
   viewBox="0 0 24 24"
   fill="none"
   stroke="currentColor"
   stroke-width="0.9"
   stroke-linecap="round"
   stroke-linejoin="round"
   version="1.1"
   id="svg5"
   sodipodi:docname=".tmp_boom-box.svg"
   xmlns:inkscape="http://www.inkscape.org/namespaces/inkscape"
   xmlns:sodipodi="http://sodipodi.sourceforge.net/DTD/sodipodi-0.dtd"
   xmlns="http://www.w3.org/2000/svg"
   xmlns:svg="http://www.w3.org/2000/svg">
  <defs
     id="defs5" />
  <sodipodi:namedview
     id="namedview5"
     pagecolor="#ffffff"
     bordercolor="#000000"
     borderopacity="0.25"
     inkscape:showpageshadow="2"
     inkscape:pageopacity="0.0"
     inkscape:pagecheckerboard="0"
     inkscape:deskcolor="#d1d1d1" />
  <path
     id="path1"
     style="baseline-shift:baseline;display:inline;overflow:visible;vector-effect:none;fill:#000000;stroke:none;stroke-linecap:butt;stroke-linejoin:miter;enable-background:accumulate;stop-color:#000000;stop-opacity:1;opacity:1"
     d="M 6 2.5507812 C 4.6522325 2.5507812 3.5507812 3.6522325 3.5507812 5 L 3.5507812 8.5917969 C 2.4147109 8.8036327 1.5507813 9.8038664 1.5507812 11 L 1.5507812 19 C 1.5507812 20.349516 2.6504838 21.449219 4 21.449219 L 20 21.449219 C 21.349516 21.449219 22.449219 20.349516 22.449219 19 L 22.449219 11 C 22.449219 9.8038665 21.585289 8.8036328 20.449219 8.5917969 L 20.449219 5 C 20.449219 3.6522325 19.347768 2.5507813 18 2.5507812 L 6 2.5507812 z M 6 3.4492188 L 18 3.4492188 C 18.861371 3.4492188 19.550781 4.1386285 19.550781 5 L 19.550781 8.5507812 L 16.449219 8.5507812 L 16.449219 8 A 0.44999999 0.44999999 0 0 0 16 7.5507812 A 0.44999999 0.44999999 0 0 0 15.550781 8 L 15.550781 8.5507812 L 12.449219 8.5507812 L 12.449219 8 A 0.44999999 0.44999999 0 0 0 12 7.5507812 A 0.44999999 0.44999999 0 0 0 11.550781 8 L 11.550781 8.5507812 L 8.4492188 8.5507812 L 8.4492188 8 A 0.44999999 0.44999999 0 0 0 8 7.5507812 A 0.44999999 0.44999999 0 0 0 7.5507812 8 L 7.5507812 8.5507812 L 4.4492188 8.5507812 L 4.4492188 5 C 4.4492188 4.1386285 5.1386285 3.4492188 6 3.4492188 z M 4 9.4492188 L 20 9.4492188 C 20.866484 9.4492188 21.550781 10.133516 21.550781 11 L 21.550781 19 C 21.550781 19.866484 20.866484 20.550781 20 20.550781 L 4 20.550781 C 3.1335162 20.550781 2.4492188 19.866484 2.4492188 19 L 2.4492188 11 C 2.4492188 10.133516 3.1335162 9.4492187 4 9.4492188 z M 8 12.550781 C 6.6522325 12.550781 5.5507812 13.652232 5.5507812 15 C 5.5507812 16.347768 6.6522325 17.449219 8 17.449219 C 9.3477675 17.449219 10.449219 16.347768 10.449219 15 C 10.449219 13.652232 9.3477675 12.550781 8 12.550781 z M 16 12.550781 C 14.652232 12.550781 13.550781 13.652232 13.550781 15 C 13.550781 16.347768 14.652232 17.449219 16 17.449219 C 17.347768 17.449219 18.449219 16.347768 18.449219 15 C 18.449219 13.652232 17.347768 12.550781 16 12.550781 z M 8 13.449219 C 8.8613715 13.449219 9.5507811 14.138629 9.5507812 15 C 9.5507812 15.861371 8.8613715 16.550781 8 16.550781 C 7.1386285 16.550781 6.4492189 15.861371 6.4492188 15 C 6.4492188 14.138629 7.1386285 13.449219 8 13.449219 z M 16 13.449219 C 16.861371 13.449219 17.550781 14.138629 17.550781 15 C 17.550781 15.861371 16.861371 16.550781 16 16.550781 C 15.138629 16.550781 14.449219 15.861371 14.449219 15 C 14.449219 14.138629 15.138629 13.449219 16 13.449219 z " />
</svg>
