<?xml version="1.0" encoding="UTF-8" standalone="no"?>
<svg
   width="24"
   height="24"
   viewBox="0 0 24 24"
   fill="none"
   stroke="currentColor"
   stroke-width="0.9"
   stroke-linecap="round"
   stroke-linejoin="round"
   version="1.1"
   id="svg5"
   sodipodi:docname=".tmp_bot.svg"
   xmlns:inkscape="http://www.inkscape.org/namespaces/inkscape"
   xmlns:sodipodi="http://sodipodi.sourceforge.net/DTD/sodipodi-0.dtd"
   xmlns="http://www.w3.org/2000/svg"
   xmlns:svg="http://www.w3.org/2000/svg">
  <defs
     id="defs5" />
  <sodipodi:namedview
     id="namedview5"
     pagecolor="#ffffff"
     bordercolor="#000000"
     borderopacity="0.25"
     inkscape:showpageshadow="2"
     inkscape:pageopacity="0.0"
     inkscape:pagecheckerboard="0"
     inkscape:deskcolor="#d1d1d1" />
  <path
     id="path1"
     style="baseline-shift:baseline;display:inline;overflow:visible;vector-effect:none;fill:#000000;stroke:none;stroke-linecap:butt;stroke-linejoin:miter;enable-background:accumulate;stop-color:#000000;stop-opacity:1;opacity:1"
     d="M 8 3.5507812 A 0.44999999 0.44999999 0 0 0 7.5507812 4 A 0.44999999 0.44999999 0 0 0 8 4.4492188 L 11.550781 4.4492188 L 11.550781 7.5507812 L 6 7.5507812 C 4.6504838 7.5507812 3.5507813 8.6504838 3.5507812 10 L 3.5507812 13.550781 L 2 13.550781 A 0.44999999 0.44999999 0 0 0 1.5507812 14 A 0.44999999 0.44999999 0 0 0 2 14.449219 L 3.5507812 14.449219 L 3.5507812 18 C 3.5507812 19.349516 4.6504838 20.449219 6 20.449219 L 18 20.449219 C 19.349516 20.449219 20.449219 19.349516 20.449219 18 L 20.449219 14.449219 L 22 14.449219 A 0.44999999 0.44999999 0 0 0 22.449219 14 A 0.44999999 0.44999999 0 0 0 22 13.550781 L 20.449219 13.550781 L 20.449219 10 C 20.449219 8.6504838 19.349516 7.5507814 18 7.5507812 L 12.449219 7.5507812 L 12.449219 4 A 0.45004499 0.45004499 0 0 0 12 3.5507812 L 8 3.5507812 z M 6 8.4492188 L 18 8.4492188 C 18.866484 8.4492188 19.550781 9.1335162 19.550781 10 L 19.550781 18 C 19.550781 18.866484 18.866484 19.550781 18 19.550781 L 6 19.550781 C 5.1335162 19.550781 4.4492188 18.866484 4.4492188 18 L 4.4492188 10 C 4.4492188 9.1335162 5.1335162 8.4492188 6 8.4492188 z M 9 12.550781 A 0.44999999 0.44999999 0 0 0 8.5507812 13 L 8.5507812 15 A 0.44999999 0.44999999 0 0 0 9 15.449219 A 0.44999999 0.44999999 0 0 0 9.4492188 15 L 9.4492188 13 A 0.44999999 0.44999999 0 0 0 9 12.550781 z M 15 12.550781 A 0.44999999 0.44999999 0 0 0 14.550781 13 L 14.550781 15 A 0.44999999 0.44999999 0 0 0 15 15.449219 A 0.44999999 0.44999999 0 0 0 15.449219 15 L 15.449219 13 A 0.44999999 0.44999999 0 0 0 15 12.550781 z " />
</svg>
