<?xml version="1.0" encoding="UTF-8" standalone="no"?>
<svg
   width="24"
   height="24"
   viewBox="0 0 24 24"
   fill="none"
   stroke="currentColor"
   stroke-width="0.9"
   stroke-linecap="round"
   stroke-linejoin="round"
   version="1.1"
   id="svg2"
   sodipodi:docname=".tmp_braces.svg"
   xmlns:inkscape="http://www.inkscape.org/namespaces/inkscape"
   xmlns:sodipodi="http://sodipodi.sourceforge.net/DTD/sodipodi-0.dtd"
   xmlns="http://www.w3.org/2000/svg"
   xmlns:svg="http://www.w3.org/2000/svg">
  <defs
     id="defs2" />
  <sodipodi:namedview
     id="namedview2"
     pagecolor="#ffffff"
     bordercolor="#000000"
     borderopacity="0.25"
     inkscape:showpageshadow="2"
     inkscape:pageopacity="0.0"
     inkscape:pagecheckerboard="0"
     inkscape:deskcolor="#d1d1d1" />
  <path
     id="path1"
     style="baseline-shift:baseline;display:inline;overflow:visible;vector-effect:none;fill:#000000;stroke:none;stroke-linecap:butt;stroke-linejoin:miter;enable-background:accumulate;stop-color:#000000;stop-opacity:1;opacity:1"
     d="M 7 2.5507812 C 5.6522325 2.5507812 4.5507812 3.6522325 4.5507812 5 L 4.5507812 10 C 4.5507812 10.861371 3.8613715 11.550781 3 11.550781 L 3 12.449219 C 3.8613715 12.449219 4.5507813 13.138629 4.5507812 14 L 4.5507812 19 C 4.5507812 20.345455 5.6545455 21.449219 7 21.449219 L 8 21.449219 A 0.44999999 0.44999999 0 0 0 8.4492188 21 A 0.44999999 0.44999999 0 0 0 8 20.550781 L 7 20.550781 C 6.1454545 20.550781 5.4492187 19.854545 5.4492188 19 L 5.4492188 14 C 5.4492188 13.073572 4.8453821 12.416163 4.0820312 12 C 4.8453821 11.583837 5.4492188 10.926428 5.4492188 10 L 5.4492188 5 C 5.4492188 4.1386285 6.1386285 3.4492188 7 3.4492188 L 8 3.4492188 A 0.44999999 0.44999999 0 0 0 8.4492188 3 A 0.44999999 0.44999999 0 0 0 8 2.5507812 L 7 2.5507812 z M 16 2.5507812 A 0.44999999 0.44999999 0 0 0 15.550781 3 A 0.44999999 0.44999999 0 0 0 16 3.4492188 L 17 3.4492188 C 17.861371 3.4492188 18.550781 4.1386285 18.550781 5 L 18.550781 10 C 18.550781 10.926428 19.154618 11.583837 19.917969 12 C 19.154686 12.416691 18.550781 13.075162 18.550781 14 L 18.550781 19 C 18.550781 19.861371 17.861371 20.550781 17 20.550781 L 16 20.550781 A 0.44999999 0.44999999 0 0 0 15.550781 21 A 0.44999999 0.44999999 0 0 0 16 21.449219 L 17 21.449219 C 18.347768 21.449219 19.449219 20.347768 19.449219 19 L 19.449219 14 C 19.449219 13.145455 20.145455 12.449219 21 12.449219 L 21 11.550781 C 20.138629 11.550781 19.449219 10.861371 19.449219 10 L 19.449219 5 C 19.449219 3.6522325 18.347768 2.5507813 17 2.5507812 L 16 2.5507812 z " />
</svg>
