<?xml version="1.0" encoding="UTF-8" standalone="no"?>
<svg
   width="24"
   height="24"
   viewBox="0 0 24 24"
   fill="none"
   stroke="currentColor"
   stroke-width="0.9"
   stroke-linecap="round"
   stroke-linejoin="round"
   version="1.1"
   id="svg12"
   sodipodi:docname=".tmp_brain-circuit.svg"
   xmlns:inkscape="http://www.inkscape.org/namespaces/inkscape"
   xmlns:sodipodi="http://sodipodi.sourceforge.net/DTD/sodipodi-0.dtd"
   xmlns="http://www.w3.org/2000/svg"
   xmlns:svg="http://www.w3.org/2000/svg">
  <defs
     id="defs12" />
  <sodipodi:namedview
     id="namedview12"
     pagecolor="#ffffff"
     bordercolor="#000000"
     borderopacity="0.25"
     inkscape:showpageshadow="2"
     inkscape:pageopacity="0.0"
     inkscape:pagecheckerboard="0"
     inkscape:deskcolor="#d1d1d1" />
  <path
     id="path1"
     style="baseline-shift:baseline;display:inline;overflow:visible;vector-effect:none;fill:#000000;stroke:none;stroke-linecap:butt;stroke-linejoin:miter;enable-background:accumulate;stop-color:#000000;stop-opacity:1;opacity:1"
     d="M 8.9277344 1.5410156 C 8.0651845 1.5589944 7.2032422 1.8661412 6.5566406 2.4765625 C 5.9739369 3.0266614 5.6333951 3.8567232 5.5996094 4.8417969 C 3.1357451 5.6796873 1.9338777 8.4299213 3 10.806641 C 0.93480833 12.760915 1.2217665 16.115223 3.6054688 17.677734 C 3.4341796 20.113958 5.2415293 22.2753 7.7109375 22.435547 C 10.11688 22.591675 12.18683 20.796333 12.425781 18.449219 L 18 18.449219 C 18.861371 18.449219 19.550781 19.138629 19.550781 20 L 19.550781 20.166016 C 19.254454 20.327701 19.050781 20.642526 19.050781 21 C 19.050781 21.51934 19.48066 21.949219 20 21.949219 C 20.51934 21.949219 20.949219 21.51934 20.949219 21 C 20.949219 20.642526 20.745546 20.327701 20.449219 20.166016 L 20.449219 20 C 20.449219 18.652232 19.347768 17.550781 18 17.550781 L 12.449219 17.550781 L 12.449219 13.449219 L 15.166016 13.449219 C 15.327701 13.745546 15.642526 13.949219 16 13.949219 C 16.51934 13.949219 16.949219 13.51934 16.949219 13 C 16.949219 12.48066 16.51934 12.050781 16 12.050781 C 15.642526 12.050781 15.327701 12.254454 15.166016 12.550781 L 12.449219 12.550781 L 12.449219 9.0253906 A 0.44999999 0.44999999 0 0 0 12.449219 8.9746094 L 12.449219 8.4492188 L 19.166016 8.4492188 C 19.327701 8.7455463 19.642526 8.9492187 20 8.9492188 C 20.51934 8.9492188 20.949219 8.5193404 20.949219 8 C 20.949219 7.4806596 20.51934 7.0507813 20 7.0507812 C 19.642526 7.0507812 19.327701 7.2544537 19.166016 7.5507812 L 16.449219 7.5507812 L 16.449219 5 C 16.449219 4.3968625 16.786779 3.8779681 17.285156 3.6210938 C 17.459948 3.8214198 17.716908 3.9492188 18 3.9492188 C 18.51934 3.9492188 18.949219 3.5193404 18.949219 3 C 18.949219 2.4806596 18.51934 2.0507811 18 2.0507812 C 17.575639 2.0507812 17.210973 2.3382427 17.091797 2.7265625 C 16.190653 3.0889723 15.550781 3.9727148 15.550781 5 L 15.550781 7.5507812 L 12.449219 7.5507812 L 12.449219 5.0019531 C 12.45257 3.864524 12.009366 2.9599008 11.337891 2.3769531 C 10.666415 1.7940055 9.7902842 1.5230368 8.9277344 1.5410156 z M 8.9472656 2.4414062 C 9.608318 2.4276273 10.267662 2.6395906 10.748047 3.0566406 C 11.228431 3.4736907 11.553465 4.0873366 11.550781 4.9980469 A 0.45004499 0.45004499 0 0 0 11.550781 5 L 11.550781 8.9746094 C 11.461532 10.61149 10.397978 12.032166 8.8515625 12.576172 A 0.44999999 0.44999999 0 0 0 8.5761719 13.148438 A 0.44999999 0.44999999 0 0 0 9.1484375 13.423828 C 10.139509 13.075184 10.969864 12.430153 11.550781 11.607422 L 11.550781 18 C 11.548581 20.056043 9.8212577 21.672206 7.7695312 21.539062 C 5.9322983 21.419842 4.5359285 19.943379 4.453125 18.171875 C 4.9466709 18.354882 5.4697018 18.449466 6 18.449219 A 0.44999999 0.44999999 0 0 0 6.4492188 18 A 0.44999999 0.44999999 0 0 0 6 17.550781 C 5.3883407 17.551067 4.7866615 17.392295 4.2539062 17.091797 C 2.061282 15.854177 1.8075308 12.831734 3.7617188 11.244141 C 3.923871 11.11215 4.0984331 10.994036 4.28125 10.892578 A 0.44999999 0.44999999 0 0 0 4.4550781 10.28125 A 0.44999999 0.44999999 0 0 0 3.84375 10.107422 C 3.7822441 10.141556 3.7218386 10.177977 3.6621094 10.214844 C 3.0056147 8.4352306 3.8746156 6.4483276 5.6269531 5.7226562 C 5.7022685 6.0732576 5.8316832 6.4120952 6.0117188 6.7246094 A 0.44999999 0.44999999 0 0 0 6.625 6.890625 A 0.44999999 0.44999999 0 0 0 6.7910156 6.2753906 C 6.5867203 5.9207651 6.4709256 5.5220807 6.453125 5.1132812 A 0.45004499 0.45004499 0 0 0 6.453125 5.1074219 A 0.44999999 0.44999999 0 0 0 6.453125 5.1054688 C 6.4124952 4.1956613 6.711239 3.5675645 7.1738281 3.1308594 C 7.6364172 2.6941542 8.2862134 2.455185 8.9472656 2.4414062 z " />
</svg>
