<?xml version="1.0" encoding="UTF-8" standalone="no"?>
<svg
   width="24"
   height="24"
   viewBox="0 0 24 24"
   fill="none"
   stroke="currentColor"
   stroke-width="0.9"
   stroke-linecap="round"
   stroke-linejoin="round"
   version="1.1"
   id="svg6"
   sodipodi:docname=".tmp_briefcase-conveyor-belt.svg"
   xmlns:inkscape="http://www.inkscape.org/namespaces/inkscape"
   xmlns:sodipodi="http://sodipodi.sourceforge.net/DTD/sodipodi-0.dtd"
   xmlns="http://www.w3.org/2000/svg"
   xmlns:svg="http://www.w3.org/2000/svg">
  <defs
     id="defs6" />
  <sodipodi:namedview
     id="namedview6"
     pagecolor="#ffffff"
     bordercolor="#000000"
     borderopacity="0.25"
     inkscape:showpageshadow="2"
     inkscape:pageopacity="0.0"
     inkscape:pagecheckerboard="0"
     inkscape:deskcolor="#d1d1d1" />
  <path
     id="path1"
     style="baseline-shift:baseline;display:inline;overflow:visible;vector-effect:none;fill:#000000;stroke:none;stroke-linecap:butt;stroke-linejoin:miter;enable-background:accumulate;stop-color:#000000;stop-opacity:1;opacity:1"
     d="M 10 1.5507812 C 8.6522325 1.5507812 7.5507812 2.6522325 7.5507812 4 L 7.5507812 5.5507812 L 6 5.5507812 C 4.6504838 5.5507812 3.5507813 6.6504838 3.5507812 8 L 3.5507812 14 C 3.5507812 15.349516 4.6504838 16.449219 6 16.449219 L 8 16.449219 L 16 16.449219 L 18 16.449219 C 19.349516 16.449219 20.449219 15.349516 20.449219 14 L 20.449219 8 C 20.449219 6.6504838 19.349516 5.5507814 18 5.5507812 L 16.449219 5.5507812 L 16.449219 4 C 16.449219 2.6522325 15.347768 1.5507813 14 1.5507812 L 10 1.5507812 z M 10 2.4492188 L 14 2.4492188 C 14.861371 2.4492188 15.550781 3.1386285 15.550781 4 L 15.550781 5.5507812 L 8.4492188 5.5507812 L 8.4492188 4 C 8.4492188 3.1386285 9.1386285 2.4492187 10 2.4492188 z M 6 6.4492188 L 7.5507812 6.4492188 L 7.5507812 15.550781 L 6 15.550781 C 5.1335162 15.550781 4.4492188 14.866484 4.4492188 14 L 4.4492188 8 C 4.4492188 7.1335162 5.1335162 6.4492188 6 6.4492188 z M 8.4492188 6.4492188 L 15.550781 6.4492188 L 15.550781 15.550781 L 8.4492188 15.550781 L 8.4492188 6.4492188 z M 16.449219 6.4492188 L 18 6.4492188 C 18.866484 6.4492188 19.550781 7.1335162 19.550781 8 L 19.550781 14 C 19.550781 14.866484 18.866484 15.550781 18 15.550781 L 16.449219 15.550781 L 16.449219 6.4492188 z M 3 19.550781 A 0.44999999 0.44999999 0 0 0 2.5507812 20 A 0.44999999 0.44999999 0 0 0 3 20.449219 L 5.5507812 20.449219 L 5.5507812 22 A 0.44999999 0.44999999 0 0 0 6 22.449219 A 0.44999999 0.44999999 0 0 0 6.4492188 22 L 6.4492188 20.449219 L 9.5507812 20.449219 L 9.5507812 22 A 0.44999999 0.44999999 0 0 0 10 22.449219 A 0.44999999 0.44999999 0 0 0 10.449219 22 L 10.449219 20.449219 L 13.550781 20.449219 L 13.550781 22 A 0.44999999 0.44999999 0 0 0 14 22.449219 A 0.44999999 0.44999999 0 0 0 14.449219 22 L 14.449219 20.449219 L 17.550781 20.449219 L 17.550781 22 A 0.44999999 0.44999999 0 0 0 18 22.449219 A 0.44999999 0.44999999 0 0 0 18.449219 22 L 18.449219 20.449219 L 21 20.449219 A 0.44999999 0.44999999 0 0 0 21.449219 20 A 0.44999999 0.44999999 0 0 0 21 19.550781 L 3 19.550781 z " />
</svg>
