<?xml version="1.0" encoding="UTF-8" standalone="no"?>
<svg
   width="24"
   height="24"
   viewBox="0 0 24 24"
   fill="none"
   stroke="currentColor"
   stroke-width="0.9"
   stroke-linecap="round"
   stroke-linejoin="round"
   version="1.1"
   id="svg7"
   sodipodi:docname=".tmp_cable-car.svg"
   xmlns:inkscape="http://www.inkscape.org/namespaces/inkscape"
   xmlns:sodipodi="http://sodipodi.sourceforge.net/DTD/sodipodi-0.dtd"
   xmlns="http://www.w3.org/2000/svg"
   xmlns:svg="http://www.w3.org/2000/svg">
  <defs
     id="defs7" />
  <sodipodi:namedview
     id="namedview7"
     pagecolor="#ffffff"
     bordercolor="#000000"
     borderopacity="0.25"
     inkscape:showpageshadow="2"
     inkscape:pageopacity="0.0"
     inkscape:pagecheckerboard="0"
     inkscape:deskcolor="#d1d1d1" />
  <path
     id="path1"
     style="baseline-shift:baseline;display:inline;overflow:visible;vector-effect:none;fill:#000000;stroke:none;stroke-linecap:butt;stroke-linejoin:miter;enable-background:accumulate;stop-color:#000000;stop-opacity:1;opacity:1"
     d="M 14 1.5507812 A 0.44999999 0.44999999 0 0 0 13.550781 2 A 0.44999999 0.44999999 0 0 0 14 2.4492188 L 14.009766 2.4492188 A 0.44999999 0.44999999 0 0 0 14.460938 2 A 0.44999999 0.44999999 0 0 0 14.009766 1.5507812 L 14 1.5507812 z M 10 2.5507812 A 0.44999999 0.44999999 0 0 0 9.5507812 3 A 0.44999999 0.44999999 0 0 0 10 3.4492188 L 10.009766 3.4492188 A 0.44999999 0.44999999 0 0 0 10.460938 3 A 0.44999999 0.44999999 0 0 0 10.009766 2.5507812 L 10 2.5507812 z M 22.007812 3.5488281 A 0.44999999 0.44999999 0 0 0 21.890625 3.5625 L 1.890625 8.5625 A 0.44999999 0.44999999 0 0 0 1.5625 9.109375 A 0.44999999 0.44999999 0 0 0 2.109375 9.4375 L 11.550781 7.078125 L 11.550781 11.550781 L 7 11.550781 C 5.0964838 11.550781 3.5507812 13.096484 3.5507812 15 L 3.5507812 17 L 3.5507812 19 C 3.5507812 20.903516 5.0964838 22.449219 7 22.449219 L 17 22.449219 C 18.903516 22.449219 20.449219 20.903516 20.449219 19 L 20.449219 17 L 20.449219 15 C 20.449219 13.096484 18.903516 11.550781 17 11.550781 L 12.449219 11.550781 L 12.449219 6.8515625 L 22.109375 4.4375 A 0.44999999 0.44999999 0 0 0 22.4375 3.890625 A 0.44999999 0.44999999 0 0 0 22.007812 3.5488281 z M 7 12.449219 L 8.5507812 12.449219 L 8.5507812 16.550781 L 4.4492188 16.550781 L 4.4492188 15 C 4.4492188 13.579516 5.5795162 12.449219 7 12.449219 z M 9.4492188 12.449219 L 14.550781 12.449219 L 14.550781 16.550781 L 9.4492188 16.550781 L 9.4492188 12.449219 z M 15.449219 12.449219 L 17 12.449219 C 18.420484 12.449219 19.550781 13.579516 19.550781 15 L 19.550781 16.550781 L 15.449219 16.550781 L 15.449219 12.449219 z M 4.4492188 17.449219 L 9 17.449219 L 15 17.449219 L 19.550781 17.449219 L 19.550781 19 C 19.550781 20.420484 18.420484 21.550781 17 21.550781 L 7 21.550781 C 5.5795162 21.550781 4.4492187 20.420484 4.4492188 19 L 4.4492188 17.449219 z " />
</svg>
