<?xml version="1.0" encoding="UTF-8" standalone="no"?>
<svg
   width="24"
   height="24"
   viewBox="0 0 24 24"
   fill="none"
   stroke="currentColor"
   stroke-width="0.9"
   stroke-linecap="round"
   stroke-linejoin="round"
   version="1.1"
   id="svg8"
   sodipodi:docname=".tmp_calculator.svg"
   xmlns:inkscape="http://www.inkscape.org/namespaces/inkscape"
   xmlns:sodipodi="http://sodipodi.sourceforge.net/DTD/sodipodi-0.dtd"
   xmlns="http://www.w3.org/2000/svg"
   xmlns:svg="http://www.w3.org/2000/svg">
  <defs
     id="defs8" />
  <sodipodi:namedview
     id="namedview8"
     pagecolor="#ffffff"
     bordercolor="#000000"
     borderopacity="0.25"
     inkscape:showpageshadow="2"
     inkscape:pageopacity="0.0"
     inkscape:pagecheckerboard="0"
     inkscape:deskcolor="#d1d1d1" />
  <path
     id="rect1"
     style="baseline-shift:baseline;display:inline;overflow:visible;vector-effect:none;fill:#000000;stroke:none;stroke-linecap:butt;stroke-linejoin:miter;enable-background:accumulate;stop-color:#000000;stop-opacity:1;opacity:1"
     d="M 6 1.5507812 C 4.6504838 1.5507812 3.5507813 2.6504838 3.5507812 4 L 3.5507812 20 C 3.5507812 21.349516 4.6504838 22.449219 6 22.449219 L 18 22.449219 C 19.349516 22.449219 20.449219 21.349516 20.449219 20 L 20.449219 4 C 20.449219 2.6504838 19.349516 1.5507813 18 1.5507812 L 6 1.5507812 z M 6 2.4492188 L 18 2.4492188 C 18.866484 2.4492188 19.550781 3.1335162 19.550781 4 L 19.550781 20 C 19.550781 20.866484 18.866484 21.550781 18 21.550781 L 6 21.550781 C 5.1335162 21.550781 4.4492188 20.866484 4.4492188 20 L 4.4492188 4 C 4.4492188 3.1335162 5.1335162 2.4492188 6 2.4492188 z M 8 5.5507812 A 0.44999999 0.44999999 0 0 0 7.5507812 6 A 0.44999999 0.44999999 0 0 0 8 6.4492188 L 16 6.4492188 A 0.44999999 0.44999999 0 0 0 16.449219 6 A 0.44999999 0.44999999 0 0 0 16 5.5507812 L 8 5.5507812 z M 8 9.5507812 A 0.44999999 0.44999999 0 0 0 7.5507812 10 A 0.44999999 0.44999999 0 0 0 8 10.449219 L 8.0097656 10.449219 A 0.44999999 0.44999999 0 0 0 8.4609375 10 A 0.44999999 0.44999999 0 0 0 8.0097656 9.5507812 L 8 9.5507812 z M 12 9.5507812 A 0.44999999 0.44999999 0 0 0 11.550781 10 A 0.44999999 0.44999999 0 0 0 12 10.449219 L 12.009766 10.449219 A 0.44999999 0.44999999 0 0 0 12.460938 10 A 0.44999999 0.44999999 0 0 0 12.009766 9.5507812 L 12 9.5507812 z M 16 9.5507812 A 0.44999999 0.44999999 0 0 0 15.550781 10 A 0.44999999 0.44999999 0 0 0 16 10.449219 L 16.009766 10.449219 A 0.44999999 0.44999999 0 0 0 16.460938 10 A 0.44999999 0.44999999 0 0 0 16.009766 9.5507812 L 16 9.5507812 z M 8 13.550781 A 0.44999999 0.44999999 0 0 0 7.5507812 14 A 0.44999999 0.44999999 0 0 0 8 14.449219 L 8.0097656 14.449219 A 0.44999999 0.44999999 0 0 0 8.4609375 14 A 0.44999999 0.44999999 0 0 0 8.0097656 13.550781 L 8 13.550781 z M 12 13.550781 A 0.44999999 0.44999999 0 0 0 11.550781 14 A 0.44999999 0.44999999 0 0 0 12 14.449219 L 12.009766 14.449219 A 0.44999999 0.44999999 0 0 0 12.460938 14 A 0.44999999 0.44999999 0 0 0 12.009766 13.550781 L 12 13.550781 z M 16 13.550781 A 0.44999999 0.44999999 0 0 0 15.550781 14 L 15.550781 18 A 0.44999999 0.44999999 0 0 0 16 18.449219 A 0.44999999 0.44999999 0 0 0 16.449219 18 L 16.449219 14 A 0.44999999 0.44999999 0 0 0 16 13.550781 z M 8 17.550781 A 0.44999999 0.44999999 0 0 0 7.5507812 18 A 0.44999999 0.44999999 0 0 0 8 18.449219 L 8.0097656 18.449219 A 0.44999999 0.44999999 0 0 0 8.4609375 18 A 0.44999999 0.44999999 0 0 0 8.0097656 17.550781 L 8 17.550781 z M 12 17.550781 A 0.44999999 0.44999999 0 0 0 11.550781 18 A 0.44999999 0.44999999 0 0 0 12 18.449219 L 12.009766 18.449219 A 0.44999999 0.44999999 0 0 0 12.460938 18 A 0.44999999 0.44999999 0 0 0 12.009766 17.550781 L 12 17.550781 z " />
</svg>
