<?xml version="1.0" encoding="UTF-8" standalone="no"?>
<svg
   width="24"
   height="24"
   viewBox="0 0 24 24"
   fill="none"
   stroke="currentColor"
   stroke-width="0.9"
   stroke-linecap="round"
   stroke-linejoin="round"
   version="1.1"
   id="svg5"
   sodipodi:docname=".tmp_calendar-clock.svg"
   xmlns:inkscape="http://www.inkscape.org/namespaces/inkscape"
   xmlns:sodipodi="http://sodipodi.sourceforge.net/DTD/sodipodi-0.dtd"
   xmlns="http://www.w3.org/2000/svg"
   xmlns:svg="http://www.w3.org/2000/svg">
  <defs
     id="defs5" />
  <sodipodi:namedview
     id="namedview5"
     pagecolor="#ffffff"
     bordercolor="#000000"
     borderopacity="0.25"
     inkscape:showpageshadow="2"
     inkscape:pageopacity="0.0"
     inkscape:pagecheckerboard="0"
     inkscape:deskcolor="#d1d1d1" />
  <path
     id="path1"
     style="baseline-shift:baseline;display:inline;overflow:visible;vector-effect:none;fill:#000000;stroke:none;stroke-linecap:butt;stroke-linejoin:miter;enable-background:accumulate;stop-color:#000000;stop-opacity:1;opacity:1"
     d="M 8 1.5507812 A 0.44999999 0.44999999 0 0 0 7.5507812 2 L 7.5507812 3.5507812 L 5 3.5507812 C 3.6522325 3.5507812 2.5507813 4.6522325 2.5507812 6 L 2.5507812 20 C 2.5507812 21.347768 3.6522325 22.449219 5 22.449219 L 8.5 22.449219 A 0.44999999 0.44999999 0 0 0 8.9492188 22 A 0.44999999 0.44999999 0 0 0 8.5 21.550781 L 5 21.550781 C 4.1386285 21.550781 3.4492188 20.861371 3.4492188 20 L 3.4492188 10.449219 L 8 10.449219 A 0.44999999 0.44999999 0 0 0 8.4492188 10 A 0.44999999 0.44999999 0 0 0 8 9.5507812 L 3.4492188 9.5507812 L 3.4492188 6 C 3.4492188 5.1386285 4.1386285 4.4492188 5 4.4492188 L 7.5507812 4.4492188 L 7.5507812 6 A 0.44999999 0.44999999 0 0 0 8 6.4492188 A 0.44999999 0.44999999 0 0 0 8.4492188 6 L 8.4492188 4.4492188 L 15.550781 4.4492188 L 15.550781 6 A 0.44999999 0.44999999 0 0 0 16 6.4492188 A 0.44999999 0.44999999 0 0 0 16.449219 6 L 16.449219 4.4492188 L 19 4.4492188 C 19.861371 4.4492188 20.550781 5.1386285 20.550781 6 L 20.550781 7.5 A 0.44999999 0.44999999 0 0 0 21 7.9492188 A 0.44999999 0.44999999 0 0 0 21.449219 7.5 L 21.449219 6 C 21.449219 4.6522325 20.347768 3.5507812 19 3.5507812 L 16.449219 3.5507812 L 16.449219 2 A 0.44999999 0.44999999 0 0 0 16 1.5507812 A 0.44999999 0.44999999 0 0 0 15.550781 2 L 15.550781 3.5507812 L 8.4492188 3.5507812 L 8.4492188 2 A 0.44999999 0.44999999 0 0 0 8 1.5507812 z M 16 9.5507812 C 12.443093 9.5507812 9.5507813 12.443093 9.5507812 16 C 9.5507812 19.556907 12.443093 22.449219 16 22.449219 C 19.556907 22.449219 22.449219 19.556907 22.449219 16 C 22.449219 12.443093 19.556907 9.5507813 16 9.5507812 z M 16 10.449219 C 19.07051 10.449219 21.550781 12.92949 21.550781 16 C 21.550781 19.07051 19.07051 21.550781 16 21.550781 C 12.92949 21.550781 10.449219 19.07051 10.449219 16 C 10.449219 12.92949 12.92949 10.449219 16 10.449219 z M 16 13.550781 A 0.44999999 0.44999999 0 0 0 15.550781 14 L 15.550781 16.199219 A 0.45004499 0.45004499 0 0 0 15.761719 16.582031 L 17.361328 17.582031 A 0.44999999 0.44999999 0 0 0 17.982422 17.439453 A 0.44999999 0.44999999 0 0 0 17.837891 16.818359 L 16.449219 15.951172 L 16.449219 14 A 0.44999999 0.44999999 0 0 0 16 13.550781 z " />
</svg>
