<?xml version="1.0" encoding="UTF-8" standalone="no"?>
<svg
   width="24"
   height="24"
   viewBox="0 0 24 24"
   fill="none"
   stroke="currentColor"
   stroke-width="0.9"
   stroke-linecap="round"
   stroke-linejoin="round"
   version="1.1"
   id="svg2"
   sodipodi:docname=".tmp_car.svg"
   xmlns:inkscape="http://www.inkscape.org/namespaces/inkscape"
   xmlns:sodipodi="http://sodipodi.sourceforge.net/DTD/sodipodi-0.dtd"
   xmlns="http://www.w3.org/2000/svg"
   xmlns:svg="http://www.w3.org/2000/svg">
  <defs
     id="defs2" />
  <sodipodi:namedview
     id="namedview2"
     pagecolor="#ffffff"
     bordercolor="#000000"
     borderopacity="0.25"
     inkscape:showpageshadow="2"
     inkscape:pageopacity="0.0"
     inkscape:pagecheckerboard="0"
     inkscape:deskcolor="#d1d1d1" />
  <path
     id="path1"
     style="baseline-shift:baseline;display:inline;overflow:visible;vector-effect:none;fill:#000000;stroke:none;stroke-linecap:butt;stroke-linejoin:miter;enable-background:accumulate;stop-color:#000000;stop-opacity:1;opacity:1"
     d="M 5 6.5507812 C 4.2 6.5507812 3.5738594 7.0696094 3.2148438 7.6679688 A 0.45004499 0.45004499 0 0 0 3.1953125 7.7050781 L 1.7949219 10.603516 A 0.45004499 0.45004499 0 0 0 1.7734375 10.654297 C 1.6249127 11.087494 1.5507812 11.54205 1.5507812 12 L 1.5507812 16 C 1.5507812 16.4 1.6911175 16.777055 1.9570312 17.042969 C 2.222945 17.308882 2.6 17.449219 3 17.449219 L 4.5917969 17.449219 C 4.8041129 18.584154 5.8055807 19.449219 7 19.449219 C 8.1944193 19.449219 9.1958871 18.584154 9.4082031 17.449219 L 14.591797 17.449219 C 14.804113 18.584154 15.80558 19.449219 17 19.449219 C 18.19442 19.449219 19.195887 18.584154 19.408203 17.449219 L 21 17.449219 C 21.4 17.449219 21.777055 17.308882 22.042969 17.042969 C 22.308882 16.777055 22.449219 16.4 22.449219 16 L 22.449219 13 C 22.449219 11.866667 21.623377 10.917562 20.609375 10.664062 C 18.84241 10.173977 16.389052 9.6281774 16.234375 9.59375 C 16.129994 9.4814294 14.991559 8.2532777 14.119141 7.3808594 A 0.45004499 0.45004499 0 0 0 14.082031 7.3476562 C 13.530608 6.9065176 12.828571 6.5507813 12 6.5507812 L 5 6.5507812 z M 5 7.4492188 L 12 7.4492188 C 12.568386 7.4492188 13.064997 7.69116 13.511719 8.046875 C 14.398664 8.9363572 15.669922 10.306641 15.669922 10.306641 A 0.45004499 0.45004499 0 0 0 15.902344 10.439453 C 15.902344 10.439453 18.601269 11.039415 20.378906 11.533203 A 0.45004499 0.45004499 0 0 0 20.390625 11.537109 C 20.976623 11.683609 21.550781 12.333333 21.550781 13 L 21.550781 16 C 21.550781 16.2 21.490331 16.322164 21.40625 16.40625 C 21.322163 16.490342 21.2 16.550781 21 16.550781 L 19.408203 16.550781 C 19.195887 15.415846 18.19442 14.550781 17 14.550781 C 15.80558 14.550781 14.804113 15.415846 14.591797 16.550781 L 9.4082031 16.550781 C 9.1958871 15.415846 8.1944193 14.550781 7 14.550781 C 5.8055807 14.550781 4.8041129 15.415846 4.5917969 16.550781 L 3 16.550781 C 2.8 16.550781 2.6778363 16.490331 2.59375 16.40625 C 2.5096637 16.322164 2.4492187 16.2 2.4492188 16 L 2.4492188 12 C 2.4492188 11.646637 2.5100948 11.295687 2.6230469 10.960938 L 3.9902344 8.1289062 C 4.2312968 7.7295522 4.6014183 7.4492187 5 7.4492188 z M 7 15.449219 C 7.8613715 15.449219 8.5507813 16.138629 8.5507812 17 C 8.5507812 17.861371 7.8613715 18.550781 7 18.550781 C 6.1386285 18.550781 5.4492189 17.861371 5.4492188 17 C 5.4492188 16.138629 6.1386285 15.449219 7 15.449219 z M 17 15.449219 C 17.861371 15.449219 18.550781 16.138629 18.550781 17 C 18.550781 17.861371 17.861371 18.550781 17 18.550781 C 16.138629 18.550781 15.449219 17.861371 15.449219 17 C 15.449219 16.138629 16.138629 15.449219 17 15.449219 z " />
</svg>
