<?xml version="1.0" encoding="UTF-8" standalone="no"?>
<svg
   width="24"
   height="24"
   viewBox="0 0 24 24"
   fill="none"
   stroke="currentColor"
   stroke-width="0.9"
   stroke-linecap="round"
   stroke-linejoin="round"
   version="1.1"
   id="svg4"
   sodipodi:docname=".tmp_cat.svg"
   xmlns:inkscape="http://www.inkscape.org/namespaces/inkscape"
   xmlns:sodipodi="http://sodipodi.sourceforge.net/DTD/sodipodi-0.dtd"
   xmlns="http://www.w3.org/2000/svg"
   xmlns:svg="http://www.w3.org/2000/svg">
  <defs
     id="defs4" />
  <sodipodi:namedview
     id="namedview4"
     pagecolor="#ffffff"
     bordercolor="#000000"
     borderopacity="0.25"
     inkscape:showpageshadow="2"
     inkscape:pageopacity="0.0"
     inkscape:pagecheckerboard="0"
     inkscape:deskcolor="#d1d1d1" />
  <path
     id="path1"
     style="baseline-shift:baseline;display:inline;overflow:visible;vector-effect:none;fill:#000000;stroke:none;stroke-linecap:butt;stroke-linejoin:miter;enable-background:accumulate;stop-color:#000000;stop-opacity:1;opacity:1"
     d="M 4.4511719 2.359375 C 4.0366867 2.3742381 3.6567597 2.4460412 3.3261719 2.5839844 C 2.9995577 2.7202694 2.8034911 3.0166432 2.6972656 3.3183594 C 2.5910401 3.6200755 2.5509119 3.9562019 2.5410156 4.3261719 C 2.521223 5.0661119 2.6329447 5.9421977 2.7851562 6.796875 C 3.0742332 8.4200606 3.4850906 9.8074613 3.5292969 9.9589844 C 3.0450735 10.976521 2.5507813 12.131639 2.5507812 13.439453 C 2.5507812 15.852019 3.6320498 17.884156 5.3535156 19.279297 C 7.0749815 20.674437 9.4244567 21.449219 12 21.449219 C 14.578561 21.449219 16.928672 20.647196 18.648438 19.240234 C 20.368205 17.833273 21.449219 15.804991 21.449219 13.439453 C 21.449219 12.196262 21.018899 11.025714 20.470703 9.9609375 C 20.511943 9.8141408 20.908226 8.4173609 21.179688 6.7910156 C 21.322367 5.9362108 21.422954 5.0603212 21.394531 4.3203125 C 21.38032 3.9503082 21.336295 3.6135492 21.226562 3.3125 C 21.116831 3.0114508 20.918319 2.719258 20.591797 2.5839844 C 19.710645 2.2170759 18.492476 2.3260452 17.21875 2.734375 C 16.022825 3.1177637 14.809942 3.8203406 13.869141 4.7929688 C 13.256022 4.6515138 12.628255 4.5507812 12 4.5507812 A 0.45004499 0.45004499 0 0 0 11.998047 4.5507812 C 11.369642 4.5526112 10.746194 4.6380742 10.130859 4.7636719 C 9.1851112 3.7887262 7.9511209 3.0924805 6.7363281 2.7167969 C 6.0892294 2.5166768 5.4574805 2.3924535 4.8769531 2.3632812 C 4.7318213 2.3559881 4.5893336 2.3544206 4.4511719 2.359375 z M 4.4746094 3.2792969 C 5.0306126 3.2633699 5.7436391 3.3532751 6.4707031 3.578125 C 7.6340056 3.9378849 8.8466561 4.6108628 9.6640625 5.5292969 A 0.45004499 0.45004499 0 0 0 10.101562 5.6679688 C 10.724297 5.5247339 11.361011 5.4512275 12 5.4492188 L 12.001953 5.4492188 C 12.631041 5.4493915 13.274057 5.5350777 13.886719 5.6953125 A 0.45004499 0.45004499 0 0 0 14.335938 5.5585938 C 15.156313 4.6368241 16.351158 3.9582131 17.494141 3.5917969 C 18.637123 3.2253807 19.737374 3.2037442 20.246094 3.4160156 A 0.45004499 0.45004499 0 0 0 20.248047 3.4160156 C 20.271527 3.4257456 20.322157 3.4600336 20.380859 3.6210938 C 20.439569 3.7821538 20.484055 4.0420356 20.496094 4.3554688 C 20.520174 4.9823351 20.428334 5.8198829 20.291016 6.6425781 C 20.016375 8.2879686 19.566406 9.8769531 19.566406 9.8769531 A 0.45004499 0.45004499 0 0 0 19.603516 10.210938 C 20.15367 11.243683 20.550781 12.346953 20.550781 13.439453 C 20.550781 15.533915 19.615859 17.286883 18.078125 18.544922 C 16.540297 19.80296 14.391439 20.550781 12 20.550781 C 9.6055433 20.550781 7.455956 19.824938 5.9199219 18.580078 C 4.3838877 17.335219 3.4492188 15.586887 3.4492188 13.439453 C 3.4492188 12.309453 3.911619 11.224145 4.40625 10.195312 A 0.45004499 0.45004499 0 0 0 4.4316406 9.8730469 C 4.4316406 9.8730469 3.9649519 8.2843172 3.671875 6.6386719 C 3.5253361 5.8158492 3.4246364 4.9765443 3.4414062 4.3496094 C 3.4497911 4.0361419 3.4904052 3.7775807 3.546875 3.6171875 C 3.6033448 3.4567943 3.6529423 3.4247306 3.6738281 3.4160156 C 3.8644903 3.3364587 4.1410074 3.288853 4.4746094 3.2792969 z M 8 13.550781 A 0.44999999 0.44999999 0 0 0 7.5507812 14 L 7.5507812 14.5 A 0.44999999 0.44999999 0 0 0 8 14.949219 A 0.44999999 0.44999999 0 0 0 8.4492188 14.5 L 8.4492188 14 A 0.44999999 0.44999999 0 0 0 8 13.550781 z M 16 13.550781 A 0.44999999 0.44999999 0 0 0 15.550781 14 L 15.550781 14.5 A 0.44999999 0.44999999 0 0 0 16 14.949219 A 0.44999999 0.44999999 0 0 0 16.449219 14.5 L 16.449219 14 A 0.44999999 0.44999999 0 0 0 16 13.550781 z M 11.25 15.800781 A 0.45004499 0.45004499 0 0 0 10.931641 16.568359 L 11.681641 17.318359 A 0.45004499 0.45004499 0 0 0 12.318359 17.318359 L 13.068359 16.568359 A 0.45004499 0.45004499 0 0 0 12.75 15.800781 L 11.25 15.800781 z " />
</svg>
