<?xml version="1.0" encoding="UTF-8" standalone="no"?>
<svg
   width="24"
   height="24"
   viewBox="0 0 24 24"
   fill="none"
   stroke="currentColor"
   stroke-width="0.9"
   stroke-linecap="round"
   stroke-linejoin="round"
   version="1.1"
   id="svg2"
   sodipodi:docname=".tmp_chart-spline.svg"
   xmlns:inkscape="http://www.inkscape.org/namespaces/inkscape"
   xmlns:sodipodi="http://sodipodi.sourceforge.net/DTD/sodipodi-0.dtd"
   xmlns="http://www.w3.org/2000/svg"
   xmlns:svg="http://www.w3.org/2000/svg">
  <defs
     id="defs2" />
  <sodipodi:namedview
     id="namedview2"
     pagecolor="#ffffff"
     bordercolor="#000000"
     borderopacity="0.25"
     inkscape:showpageshadow="2"
     inkscape:pageopacity="0.0"
     inkscape:pagecheckerboard="0"
     inkscape:deskcolor="#d1d1d1" />
  <path
     id="path1"
     style="baseline-shift:baseline;display:inline;overflow:visible;vector-effect:none;fill:#000000;stroke:none;stroke-linecap:butt;stroke-linejoin:miter;enable-background:accumulate;stop-color:#000000;stop-opacity:1;opacity:1"
     d="M 3 2.5507812 A 0.44999999 0.44999999 0 0 0 2.5507812 3 L 2.5507812 19 C 2.5507812 20.347768 3.6522325 21.449219 5 21.449219 L 21 21.449219 A 0.44999999 0.44999999 0 0 0 21.449219 21 A 0.44999999 0.44999999 0 0 0 21 20.550781 L 5 20.550781 C 4.1386285 20.550781 3.4492188 19.861371 3.4492188 19 L 3.4492188 3 A 0.44999999 0.44999999 0 0 0 3 2.5507812 z M 19.992188 4.5488281 A 0.44999999 0.44999999 0 0 0 19.5625 4.890625 C 19.32534 5.8392645 18.706566 7.5744586 17.861328 9.0234375 C 17.438709 9.7479269 16.958967 10.401914 16.462891 10.855469 C 15.966815 11.309024 15.475 11.550781 15 11.550781 C 14.6125 11.550781 14.366646 11.425294 14.113281 11.197266 C 13.859916 10.969237 13.625 10.625 13.375 10.25 C 13.125 9.875 12.859916 9.4692371 12.488281 9.1347656 C 12.116646 8.8002941 11.6125 8.5507811 11 8.5507812 C 10.225 8.5507812 9.5646394 8.9492153 9.0566406 9.5097656 C 8.5486419 10.070316 8.1580911 10.798316 7.8339844 11.576172 C 7.1857709 13.131884 6.80822 14.907745 6.5625 15.890625 A 0.44999999 0.44999999 0 0 0 6.890625 16.4375 A 0.44999999 0.44999999 0 0 0 7.4375 16.109375 C 7.69178 15.092255 8.0642291 13.368116 8.6660156 11.923828 C 8.9669089 11.201684 9.3263581 10.554684 9.7246094 10.115234 C 10.122861 9.6757851 10.525 9.4492187 11 9.4492188 C 11.3875 9.4492188 11.633354 9.5747059 11.886719 9.8027344 C 12.140084 10.030763 12.375 10.375 12.625 10.75 C 12.875 11.125 13.140084 11.530763 13.511719 11.865234 C 13.883354 12.199706 14.3875 12.449219 15 12.449219 C 15.775 12.449219 16.470685 12.065976 17.068359 11.519531 C 17.666033 10.973086 18.186291 10.252073 18.638672 9.4765625 C 19.543434 7.9255414 20.17466 6.1607355 20.4375 5.109375 A 0.44999999 0.44999999 0 0 0 20.109375 4.5625 A 0.44999999 0.44999999 0 0 0 19.992188 4.5488281 z " />
</svg>
