<?xml version="1.0" encoding="UTF-8" standalone="no"?>
<svg
   width="24"
   height="24"
   viewBox="0 0 24 24"
   fill="none"
   stroke="currentColor"
   stroke-width="0.9"
   stroke-linecap="round"
   stroke-linejoin="round"
   version="1.1"
   id="svg1"
   sodipodi:docname=".tmp_circle-play.svg"
   xmlns:inkscape="http://www.inkscape.org/namespaces/inkscape"
   xmlns:sodipodi="http://sodipodi.sourceforge.net/DTD/sodipodi-0.dtd"
   xmlns="http://www.w3.org/2000/svg"
   xmlns:svg="http://www.w3.org/2000/svg">
  <defs
     id="defs1" />
  <sodipodi:namedview
     id="namedview1"
     pagecolor="#ffffff"
     bordercolor="#000000"
     borderopacity="0.25"
     inkscape:showpageshadow="2"
     inkscape:pageopacity="0.0"
     inkscape:pagecheckerboard="0"
     inkscape:deskcolor="#d1d1d1" />
  <path
     id="path1"
     style="baseline-shift:baseline;display:inline;overflow:visible;vector-effect:none;fill:#000000;stroke:none;stroke-linecap:butt;stroke-linejoin:miter;enable-background:accumulate;stop-color:#000000;stop-opacity:1;opacity:1"
     d="M 12 1.5507812 C 6.2339545 1.5507812 1.5507812 6.2339545 1.5507812 12 C 1.5507812 17.766046 6.2339545 22.449219 12 22.449219 C 17.766046 22.449219 22.449219 17.766046 22.449219 12 C 22.449219 6.2339545 17.766046 1.5507812 12 1.5507812 z M 12 2.4492188 C 17.279649 2.4492188 21.550781 6.7203505 21.550781 12 C 21.550781 17.279649 17.279649 21.550781 12 21.550781 C 6.7203505 21.550781 2.4492188 17.279649 2.4492188 12 C 2.4492188 6.7203505 6.7203505 2.4492186 12 2.4492188 z M 10.005859 7.5566406 C 9.7548552 7.5599331 9.5088509 7.6297101 9.2929688 7.7519531 C 8.8612044 7.9964392 8.5491094 8.4498497 8.5507812 9.0039062 L 8.5507812 14.996094 C 8.5477812 16.103706 9.8015059 16.81312 10.75 16.240234 L 15.744141 13.246094 L 15.746094 13.244141 C 16.668727 12.691662 16.668727 11.308338 15.746094 10.755859 L 10.75 7.7597656 C 10.512867 7.6165401 10.256864 7.5533481 10.005859 7.5566406 z M 9.9902344 8.4414062 C 10.087125 8.4435334 10.188476 8.4709034 10.285156 8.5292969 L 15.283203 11.527344 C 15.658522 11.751039 15.658522 12.248961 15.283203 12.472656 L 10.285156 15.470703 C 9.8981793 15.704436 9.4474015 15.45013 9.4492188 14.998047 A 0.45004499 0.45004499 0 0 0 9.4492188 14.996094 L 9.4492188 9.0039062 A 0.45004499 0.45004499 0 0 0 9.4492188 9.0019531 C 9.4485371 8.7760578 9.5602854 8.5986489 9.7207031 8.5078125 C 9.800912 8.4623945 9.8933434 8.4392791 9.9902344 8.4414062 z " />
</svg>
