<?xml version="1.0" encoding="UTF-8" standalone="no"?>
<svg
   width="24"
   height="24"
   viewBox="0 0 24 24"
   fill="none"
   stroke="currentColor"
   stroke-width="0.9"
   stroke-linecap="round"
   stroke-linejoin="round"
   version="1.1"
   id="svg2"
   sodipodi:docname=".tmp_codepen.svg"
   xmlns:inkscape="http://www.inkscape.org/namespaces/inkscape"
   xmlns:sodipodi="http://sodipodi.sourceforge.net/DTD/sodipodi-0.dtd"
   xmlns="http://www.w3.org/2000/svg"
   xmlns:svg="http://www.w3.org/2000/svg">
  <defs
     id="defs2" />
  <sodipodi:namedview
     id="namedview2"
     pagecolor="#ffffff"
     bordercolor="#000000"
     borderopacity="0.25"
     inkscape:showpageshadow="2"
     inkscape:pageopacity="0.0"
     inkscape:pagecheckerboard="0"
     inkscape:deskcolor="#d1d1d1" />
  <path
     id="polygon1"
     style="baseline-shift:baseline;display:inline;overflow:visible;vector-effect:none;fill:#000000;stroke:none;stroke-linecap:butt;stroke-linejoin:miter;enable-background:accumulate;stop-color:#000000;stop-opacity:1;opacity:1"
     d="M 11.970703 1.5507812 A 0.45004499 0.45004499 0 0 0 11.943359 1.5546875 A 0.45004499 0.45004499 0 0 0 11.939453 1.5546875 A 0.45004499 0.45004499 0 0 0 11.884766 1.5664062 A 0.45004499 0.45004499 0 0 0 11.775391 1.6113281 A 0.45004499 0.45004499 0 0 0 11.753906 1.6230469 L 1.765625 8.1152344 A 0.44999999 0.44999999 0 0 0 1.7636719 8.1171875 L 1.7539062 8.1230469 A 0.44999999 0.44999999 0 0 0 1.7148438 8.1523438 A 0.45004499 0.45004499 0 0 0 1.6914062 8.171875 A 0.44999999 0.44999999 0 0 0 1.6699219 8.1933594 A 0.45004499 0.45004499 0 0 0 1.6699219 8.1953125 A 0.45004499 0.45004499 0 0 0 1.6347656 8.2382812 A 0.44999999 0.44999999 0 0 0 1.6308594 8.2421875 A 0.45004499 0.45004499 0 0 0 1.6054688 8.2851562 A 0.44999999 0.44999999 0 0 0 1.5996094 8.2949219 A 0.45004499 0.45004499 0 0 0 1.5820312 8.3359375 A 0.44999999 0.44999999 0 0 0 1.5507812 8.53125 L 1.5507812 15.5 A 0.44999999 0.44999999 0 0 0 1.5996094 15.705078 A 0.45004499 0.45004499 0 0 0 1.6054688 15.714844 A 0.44999999 0.44999999 0 0 0 1.6308594 15.757812 A 0.45004499 0.45004499 0 0 0 1.6699219 15.804688 A 0.44999999 0.44999999 0 0 0 1.6699219 15.806641 A 0.44999999 0.44999999 0 0 0 1.6914062 15.828125 A 0.45004499 0.45004499 0 0 0 1.7089844 15.84375 A 0.44999999 0.44999999 0 0 0 1.7148438 15.847656 A 0.45004499 0.45004499 0 0 0 1.7539062 15.876953 L 1.7636719 15.882812 A 0.44999999 0.44999999 0 0 0 1.765625 15.884766 L 1.7675781 15.884766 L 11.753906 22.376953 A 0.45004499 0.45004499 0 0 0 11.941406 22.445312 A 0.45004499 0.45004499 0 0 0 11.943359 22.445312 A 0.45004499 0.45004499 0 0 0 12.058594 22.445312 A 0.44999999 0.44999999 0 0 0 12.060547 22.445312 A 0.45004499 0.45004499 0 0 0 12.246094 22.376953 L 22.234375 15.884766 A 0.44999999 0.44999999 0 0 0 22.236328 15.882812 A 0.44999999 0.44999999 0 0 0 22.246094 15.876953 A 0.45004499 0.45004499 0 0 0 22.285156 15.847656 A 0.44999999 0.44999999 0 0 0 22.291016 15.84375 A 0.45004499 0.45004499 0 0 0 22.330078 15.806641 A 0.44999999 0.44999999 0 0 0 22.330078 15.804688 A 0.45004499 0.45004499 0 0 0 22.369141 15.757812 A 0.44999999 0.44999999 0 0 0 22.394531 15.714844 A 0.45004499 0.45004499 0 0 0 22.400391 15.705078 A 0.44999999 0.44999999 0 0 0 22.449219 15.5 L 22.449219 8.53125 A 0.44999999 0.44999999 0 0 0 22.417969 8.3359375 A 0.45004499 0.45004499 0 0 0 22.400391 8.2949219 A 0.44999999 0.44999999 0 0 0 22.394531 8.2851562 A 0.45004499 0.45004499 0 0 0 22.369141 8.2421875 A 0.44999999 0.44999999 0 0 0 22.365234 8.2382812 A 0.45004499 0.45004499 0 0 0 22.330078 8.1933594 A 0.44999999 0.44999999 0 0 0 22.291016 8.15625 A 0.45004499 0.45004499 0 0 0 22.285156 8.1523438 A 0.44999999 0.44999999 0 0 0 22.246094 8.1230469 L 22.234375 8.1152344 A 0.44999999 0.44999999 0 0 0 22.232422 8.1152344 L 12.246094 1.6230469 A 0.45004499 0.45004499 0 0 0 12.224609 1.6113281 A 0.45004499 0.45004499 0 0 0 12.115234 1.5664062 A 0.45004499 0.45004499 0 0 0 12.060547 1.5546875 A 0.45004499 0.45004499 0 0 0 12.058594 1.5546875 A 0.44999999 0.44999999 0 0 0 12.056641 1.5546875 A 0.45004499 0.45004499 0 0 0 12 1.5507812 A 0.45004499 0.45004499 0 0 0 11.970703 1.5507812 z M 11.550781 2.828125 L 11.550781 8.265625 L 7 11.451172 L 2.8046875 8.5136719 L 11.550781 2.828125 z M 12.449219 2.828125 L 21.195312 8.5136719 L 17 11.451172 L 12.449219 8.265625 L 12.449219 2.828125 z M 12 9.0488281 L 16.214844 12 L 12 14.951172 L 7.7851562 12 L 12 9.0488281 z M 2.4492188 9.3632812 L 6.2148438 12 L 2.4492188 14.636719 L 2.4492188 9.3632812 z M 21.550781 9.3632812 L 21.550781 14.636719 L 17.785156 12 L 21.550781 9.3632812 z M 7 12.548828 L 11.550781 15.734375 L 11.550781 21.171875 L 2.8046875 15.486328 L 7 12.548828 z M 17 12.548828 L 21.195312 15.486328 L 12.449219 21.171875 L 12.449219 15.734375 L 17 12.548828 z " />
</svg>
