<?xml version="1.0" encoding="UTF-8" standalone="no"?>
<svg
   width="24"
   height="24"
   viewBox="0 0 24 24"
   fill="none"
   stroke="currentColor"
   stroke-width="0.9"
   stroke-linecap="round"
   stroke-linejoin="round"
   version="1.1"
   id="svg5"
   sodipodi:docname=".tmp_combine.svg"
   xmlns:inkscape="http://www.inkscape.org/namespaces/inkscape"
   xmlns:sodipodi="http://sodipodi.sourceforge.net/DTD/sodipodi-0.dtd"
   xmlns="http://www.w3.org/2000/svg"
   xmlns:svg="http://www.w3.org/2000/svg">
  <defs
     id="defs5" />
  <sodipodi:namedview
     id="namedview5"
     pagecolor="#ffffff"
     bordercolor="#000000"
     borderopacity="0.25"
     inkscape:showpageshadow="2"
     inkscape:pageopacity="0.0"
     inkscape:pagecheckerboard="0"
     inkscape:deskcolor="#d1d1d1" />
  <path
     id="path1"
     style="baseline-shift:baseline;display:inline;overflow:visible;vector-effect:none;fill:#000000;stroke:none;stroke-linecap:butt;stroke-linejoin:miter;enable-background:accumulate;stop-color:#000000;stop-opacity:1;opacity:1"
     d="M 4 2.5507812 C 3.2044838 2.5507812 2.5507813 3.2044838 2.5507812 4 L 2.5507812 9 C 2.5507812 9.7955162 3.2044838 10.449219 4 10.449219 L 9 10.449219 C 9.7955162 10.449219 10.449219 9.7955162 10.449219 9 L 10.449219 4 C 10.449219 3.2044838 9.7955162 2.5507813 9 2.5507812 L 4 2.5507812 z M 14 2.5507812 A 0.44999999 0.44999999 0 0 0 13.550781 3 A 0.44999999 0.44999999 0 0 0 14 3.4492188 C 14.309087 3.4492188 14.550781 3.6909133 14.550781 4 L 14.550781 9 C 14.550781 9.3090867 14.309087 9.5507812 14 9.5507812 A 0.44999999 0.44999999 0 0 0 13.550781 10 A 0.44999999 0.44999999 0 0 0 14 10.449219 C 14.795483 10.449219 15.449219 9.7954828 15.449219 9 L 15.449219 4 C 15.449219 3.2045172 14.795483 2.5507812 14 2.5507812 z M 19 2.5507812 A 0.44999999 0.44999999 0 0 0 18.550781 3 A 0.44999999 0.44999999 0 0 0 19 3.4492188 C 19.309087 3.4492188 19.550781 3.6909133 19.550781 4 L 19.550781 9 C 19.550781 9.3090867 19.309087 9.5507812 19 9.5507812 A 0.44999999 0.44999999 0 0 0 18.550781 10 A 0.44999999 0.44999999 0 0 0 19 10.449219 C 19.795483 10.449219 20.449219 9.7954828 20.449219 9 L 20.449219 4 C 20.449219 3.2045172 19.795483 2.5507812 19 2.5507812 z M 4 3.4492188 L 9 3.4492188 C 9.3124838 3.4492188 9.5507812 3.6875162 9.5507812 4 L 9.5507812 9 C 9.5507812 9.3124838 9.3124838 9.5507812 9 9.5507812 L 4 9.5507812 C 3.6875162 9.5507812 3.4492188 9.3124838 3.4492188 9 L 3.4492188 4 C 3.4492188 3.6875162 3.6875162 3.4492188 4 3.4492188 z M 3 13.550781 A 0.44999999 0.44999999 0 0 0 2.5507812 14 L 2.5507812 16 C 2.5507812 17.347768 3.6522325 18.449219 5 18.449219 L 8.9140625 18.449219 L 6.6816406 20.681641 A 0.44999999 0.44999999 0 0 0 6.6816406 21.318359 A 0.44999999 0.44999999 0 0 0 7.3183594 21.318359 L 10.318359 18.318359 A 0.44999999 0.44999999 0 0 0 10.359375 18.271484 A 0.45004499 0.45004499 0 0 0 10.367188 18.259766 A 0.44999999 0.44999999 0 0 0 10.392578 18.21875 A 0.45004499 0.45004499 0 0 0 10.416016 18.171875 A 0.44999999 0.44999999 0 0 0 10.419922 18.162109 A 0.45004499 0.45004499 0 0 0 10.421875 18.154297 A 0.44999999 0.44999999 0 0 0 10.371094 17.746094 A 0.45004499 0.45004499 0 0 0 10.369141 17.742188 A 0.44999999 0.44999999 0 0 0 10.332031 17.697266 A 0.44999999 0.44999999 0 0 0 10.318359 17.681641 L 7.3183594 14.681641 A 0.44999999 0.44999999 0 0 0 6.6816406 14.681641 A 0.44999999 0.44999999 0 0 0 6.6816406 15.318359 L 8.9140625 17.550781 L 5 17.550781 C 4.1386285 17.550781 3.4492188 16.861371 3.4492188 16 L 3.4492188 14 A 0.44999999 0.44999999 0 0 0 3 13.550781 z M 15 13.550781 C 14.204484 13.550781 13.550781 14.204484 13.550781 15 L 13.550781 20 C 13.550781 20.795516 14.204484 21.449219 15 21.449219 L 20 21.449219 C 20.795516 21.449219 21.449219 20.795516 21.449219 20 L 21.449219 15 C 21.449219 14.204484 20.795516 13.550781 20 13.550781 L 15 13.550781 z M 15 14.449219 L 20 14.449219 C 20.312484 14.449219 20.550781 14.687516 20.550781 15 L 20.550781 20 C 20.550781 20.312484 20.312484 20.550781 20 20.550781 L 15 20.550781 C 14.687516 20.550781 14.449219 20.312484 14.449219 20 L 14.449219 15 C 14.449219 14.687516 14.687516 14.449219 15 14.449219 z " />
</svg>
