<?xml version="1.0" encoding="UTF-8" standalone="no"?>
<svg
   width="24"
   height="24"
   viewBox="0 0 24 24"
   fill="none"
   stroke="currentColor"
   stroke-width="0.9"
   stroke-linecap="round"
   stroke-linejoin="round"
   version="1.1"
   id="svg1"
   sodipodi:docname=".tmp_copyright.svg"
   xmlns:inkscape="http://www.inkscape.org/namespaces/inkscape"
   xmlns:sodipodi="http://sodipodi.sourceforge.net/DTD/sodipodi-0.dtd"
   xmlns="http://www.w3.org/2000/svg"
   xmlns:svg="http://www.w3.org/2000/svg">
  <defs
     id="defs1" />
  <sodipodi:namedview
     id="namedview1"
     pagecolor="#ffffff"
     bordercolor="#000000"
     borderopacity="0.25"
     inkscape:showpageshadow="2"
     inkscape:pageopacity="0.0"
     inkscape:pagecheckerboard="0"
     inkscape:deskcolor="#d1d1d1" />
  <path
     id="circle1"
     style="baseline-shift:baseline;display:inline;overflow:visible;vector-effect:none;fill:#000000;stroke:none;stroke-linecap:butt;stroke-linejoin:miter;enable-background:accumulate;stop-color:#000000;stop-opacity:1;opacity:1"
     d="M 12 1.5507812 C 6.2339545 1.5507812 1.5507812 6.2339545 1.5507812 12 C 1.5507812 17.766046 6.2339545 22.449219 12 22.449219 C 17.766046 22.449219 22.449219 17.766046 22.449219 12 C 22.449219 6.2339545 17.766046 1.5507812 12 1.5507812 z M 12 2.4492188 C 17.279649 2.4492188 21.550781 6.7203505 21.550781 12 C 21.550781 17.279649 17.279649 21.550781 12 21.550781 C 6.7203505 21.550781 2.4492188 17.279649 2.4492188 12 C 2.4492188 6.7203505 6.7203505 2.4492186 12 2.4492188 z M 12.144531 7.546875 C 11.508223 7.5292173 10.877428 7.6487882 10.298828 7.8886719 C 8.7558949 8.5283616 7.5527344 10.037507 7.5527344 12 C 7.5527344 13.962493 8.7558949 15.471638 10.298828 16.111328 C 11.841761 16.751018 13.759825 16.535505 15.148438 15.148438 A 0.44999999 0.44999999 0 0 0 15.148438 14.511719 A 0.44999999 0.44999999 0 0 0 14.511719 14.511719 C 13.379653 15.642525 11.884754 15.793485 10.644531 15.279297 C 9.4043086 14.765109 8.453125 13.59987 8.453125 12 C 8.453125 10.40013 9.4043086 9.2348911 10.644531 8.7207031 C 11.884754 8.2065152 13.379653 8.3574746 14.511719 9.4882812 A 0.44999999 0.44999999 0 0 0 15.148438 9.4882812 A 0.44999999 0.44999999 0 0 0 15.148438 8.8515625 C 14.454131 8.1580289 13.627043 7.7585069 12.78125 7.6113281 C 12.569802 7.5745335 12.356634 7.5527609 12.144531 7.546875 z " />
</svg>
