<?xml version="1.0" encoding="UTF-8" standalone="no"?>
<svg
   width="24"
   height="24"
   viewBox="0 0 24 24"
   fill="none"
   stroke="currentColor"
   stroke-width="0.9"
   stroke-linecap="round"
   stroke-linejoin="round"
   version="1.1"
   id="svg7"
   sodipodi:docname=".tmp_dam.svg"
   xmlns:inkscape="http://www.inkscape.org/namespaces/inkscape"
   xmlns:sodipodi="http://sodipodi.sourceforge.net/DTD/sodipodi-0.dtd"
   xmlns="http://www.w3.org/2000/svg"
   xmlns:svg="http://www.w3.org/2000/svg">
  <defs
     id="defs7" />
  <sodipodi:namedview
     id="namedview7"
     pagecolor="#ffffff"
     bordercolor="#000000"
     borderopacity="0.25"
     inkscape:showpageshadow="2"
     inkscape:pageopacity="0.0"
     inkscape:pagecheckerboard="0"
     inkscape:deskcolor="#d1d1d1" />
  <path
     id="path1"
     style="baseline-shift:baseline;display:inline;overflow:visible;vector-effect:none;fill:#000000;stroke:none;stroke-linecap:butt;stroke-linejoin:miter;enable-background:accumulate;stop-color:#000000;stop-opacity:1;opacity:1"
     d="M 7 2.5507812 C 6.2045172 2.5507812 5.5507812 3.2045172 5.5507812 4 L 5.5507812 5.5507812 L 2 5.5507812 A 0.44999999 0.44999999 0 0 0 1.5507812 6 A 0.44999999 0.44999999 0 0 0 2 6.4492188 L 5.5507812 6.4492188 L 5.5507812 9.5507812 L 2 9.5507812 A 0.44999999 0.44999999 0 0 0 1.5507812 10 A 0.44999999 0.44999999 0 0 0 2 10.449219 L 5.5507812 10.449219 L 5.5507812 13.550781 L 2 13.550781 A 0.44999999 0.44999999 0 0 0 1.5507812 14 A 0.44999999 0.44999999 0 0 0 2 14.449219 L 5.5507812 14.449219 L 5.5507812 17.550781 L 2 17.550781 A 0.44999999 0.44999999 0 0 0 1.5507812 18 A 0.44999999 0.44999999 0 0 0 2 18.449219 L 5.5507812 18.449219 L 5.5507812 20 C 5.5507812 20.795483 6.2045172 21.449219 7 21.449219 L 11 21.449219 C 11.795483 21.449219 12.449219 20.795483 12.449219 20 A 0.45004499 0.45004499 0 0 0 12.447266 19.943359 L 12.328125 18.988281 C 12.416906 19.029752 12.509343 19.06997 12.605469 19.107422 C 13.141569 19.316292 13.792308 19.449219 14.5 19.449219 C 15.87 19.449219 16.65625 18.851563 17.28125 18.351562 C 17.90625 17.851562 18.37 17.449219 19.5 17.449219 C 20.684615 17.449219 21.112891 17.845703 21.712891 18.345703 A 0.44999999 0.44999999 0 0 0 22.345703 18.287109 A 0.44999999 0.44999999 0 0 0 22.287109 17.654297 C 21.687109 17.154297 20.915385 16.550781 19.5 16.550781 C 18.13 16.550781 17.34375 17.148438 16.71875 17.648438 C 16.09375 18.148438 15.63 18.550781 14.5 18.550781 C 13.907692 18.550781 13.35804 18.433708 12.931641 18.267578 C 12.576896 18.129366 12.311816 17.945274 12.181641 17.814453 L 11.474609 12.158203 C 11.695624 12.335493 11.919899 12.532096 12.189453 12.728516 C 12.719677 13.11488 13.43352 13.449219 14.5 13.449219 C 15.87 13.449219 16.65625 12.851562 17.28125 12.351562 C 17.90625 11.851562 18.37 11.449219 19.5 11.449219 C 20.684615 11.449219 21.112891 11.845703 21.712891 12.345703 A 0.44999999 0.44999999 0 0 0 22.345703 12.287109 A 0.44999999 0.44999999 0 0 0 22.287109 11.654297 C 21.687109 11.154297 20.915385 10.550781 19.5 10.550781 C 18.13 10.550781 17.34375 11.148437 16.71875 11.648438 C 16.09375 12.148438 15.63 12.550781 14.5 12.550781 C 13.60648 12.550781 13.156027 12.320589 12.71875 12.001953 C 12.310802 11.704689 11.924086 11.28749 11.326172 10.970703 L 10.449219 3.953125 C 10.424267 3.178892 9.7798783 2.5507812 9 2.5507812 L 7 2.5507812 z M 7 3.4492188 L 9 3.4492188 C 9.3090867 3.4492188 9.5507812 3.6909133 9.5507812 4 A 0.45004499 0.45004499 0 0 0 9.5527344 4.0566406 L 11.302734 18.044922 A 0.44999999 0.44999999 0 0 0 11.304688 18.066406 L 11.546875 20.003906 C 11.543491 20.309832 11.306895 20.550781 11 20.550781 L 7 20.550781 C 6.6909133 20.550781 6.4492187 20.309087 6.4492188 20 L 6.4492188 18 L 6.4492188 14 L 6.4492188 10 L 6.4492188 6 L 6.4492188 4 C 6.4492188 3.6909133 6.6909133 3.4492188 7 3.4492188 z " />
</svg>
