<?xml version="1.0" encoding="UTF-8" standalone="no"?>
<svg
   width="24"
   height="24"
   viewBox="0 0 24 24"
   fill="none"
   stroke="currentColor"
   stroke-width="0.9"
   stroke-linecap="round"
   stroke-linejoin="round"
   version="1.1"
   id="svg4"
   sodipodi:docname=".tmp_decimals-arrow-right.svg"
   xmlns:inkscape="http://www.inkscape.org/namespaces/inkscape"
   xmlns:sodipodi="http://sodipodi.sourceforge.net/DTD/sodipodi-0.dtd"
   xmlns="http://www.w3.org/2000/svg"
   xmlns:svg="http://www.w3.org/2000/svg">
  <defs
     id="defs4" />
  <sodipodi:namedview
     id="namedview4"
     pagecolor="#ffffff"
     bordercolor="#000000"
     borderopacity="0.25"
     inkscape:showpageshadow="2"
     inkscape:pageopacity="0.0"
     inkscape:pagecheckerboard="0"
     inkscape:deskcolor="#d1d1d1" />
  <path
     id="path1"
     style="baseline-shift:baseline;display:inline;overflow:visible;vector-effect:none;fill:#000000;stroke:none;stroke-linecap:butt;stroke-linejoin:miter;enable-background:accumulate;stop-color:#000000;stop-opacity:1;opacity:1"
     d="M 8.5 2.5507812 C 6.8734838 2.5507812 5.5507814 3.8734838 5.5507812 5.5 L 5.5507812 8.5 C 5.5507812 10.126516 6.8734838 11.449219 8.5 11.449219 C 10.126516 11.449219 11.449219 10.126516 11.449219 8.5 L 11.449219 5.5 C 11.449219 3.8734838 10.126516 2.5507811 8.5 2.5507812 z M 17.5 2.5507812 C 15.873484 2.5507812 14.550781 3.8734838 14.550781 5.5 L 14.550781 8.5 C 14.550781 10.126516 15.873484 11.449219 17.5 11.449219 C 19.126516 11.449219 20.449219 10.126516 20.449219 8.5 L 20.449219 5.5 C 20.449219 3.8734838 19.126516 2.5507811 17.5 2.5507812 z M 8.5 3.4492188 C 9.6434838 3.4492188 10.550781 4.3565162 10.550781 5.5 L 10.550781 8.5 C 10.550781 9.6434838 9.6434838 10.550781 8.5 10.550781 C 7.3565162 10.550781 6.4492189 9.6434838 6.4492188 8.5 L 6.4492188 5.5 C 6.4492188 4.3565162 7.3565162 3.4492187 8.5 3.4492188 z M 17.5 3.4492188 C 18.643484 3.4492188 19.550781 4.3565162 19.550781 5.5 L 19.550781 8.5 C 19.550781 9.6434838 18.643484 10.550781 17.5 10.550781 C 16.356516 10.550781 15.449219 9.6434838 15.449219 8.5 L 15.449219 5.5 C 15.449219 4.3565162 16.356516 3.4492187 17.5 3.4492188 z M 3 10.550781 A 0.44999999 0.44999999 0 0 0 2.5507812 11 A 0.44999999 0.44999999 0 0 0 3 11.449219 L 3.0097656 11.449219 A 0.44999999 0.44999999 0 0 0 3.4609375 11 A 0.44999999 0.44999999 0 0 0 3.0097656 10.550781 L 3 10.550781 z M 17 14.548828 A 0.44999999 0.44999999 0 0 0 16.681641 14.681641 A 0.44999999 0.44999999 0 0 0 16.681641 15.318359 L 18.914062 17.550781 L 10 17.550781 A 0.44999999 0.44999999 0 0 0 9.5507812 18 A 0.44999999 0.44999999 0 0 0 10 18.449219 L 18.914062 18.449219 L 16.681641 20.681641 A 0.44999999 0.44999999 0 0 0 16.681641 21.318359 A 0.44999999 0.44999999 0 0 0 17.318359 21.318359 L 20.318359 18.318359 A 0.45004499 0.45004499 0 0 0 20.318359 17.681641 L 17.318359 14.681641 A 0.44999999 0.44999999 0 0 0 17 14.548828 z " />
</svg>
