<?xml version="1.0" encoding="UTF-8" standalone="no"?>
<svg
   width="24"
   height="24"
   viewBox="0 0 24 24"
   fill="none"
   stroke="currentColor"
   stroke-width="0.9"
   stroke-linecap="round"
   stroke-linejoin="round"
   version="1.1"
   id="svg3"
   sodipodi:docname=".tmp_delete.svg"
   xmlns:inkscape="http://www.inkscape.org/namespaces/inkscape"
   xmlns:sodipodi="http://sodipodi.sourceforge.net/DTD/sodipodi-0.dtd"
   xmlns="http://www.w3.org/2000/svg"
   xmlns:svg="http://www.w3.org/2000/svg">
  <defs
     id="defs3" />
  <sodipodi:namedview
     id="namedview3"
     pagecolor="#ffffff"
     bordercolor="#000000"
     borderopacity="0.25"
     inkscape:showpageshadow="2"
     inkscape:pageopacity="0.0"
     inkscape:pagecheckerboard="0"
     inkscape:deskcolor="#d1d1d1" />
  <path
     id="path1"
     style="baseline-shift:baseline;display:inline;overflow:visible;vector-effect:none;fill:#000000;stroke:none;stroke-linecap:butt;stroke-linejoin:miter;enable-background:accumulate;stop-color:#000000;stop-opacity:1;opacity:1"
     d="M 10 4.5507812 C 9.3914005 4.5508156 8.8041836 4.7765337 8.3535156 5.1855469 L 2.0253906 10.925781 C 1.3966567 11.496402 1.3966567 12.501645 2.0253906 13.072266 A 0.45004499 0.45004499 0 0 0 2.0253906 13.074219 L 8.3535156 18.814453 C 8.8041836 19.223419 9.3914005 19.449184 10 19.449219 L 20 19.449219 C 21.347768 19.449219 22.449219 18.347768 22.449219 17 L 22.449219 7 C 22.449219 5.6522325 21.347768 4.5507812 20 4.5507812 L 10 4.5507812 z M 10 5.4492188 L 20 5.4492188 C 20.861371 5.4492188 21.550781 6.1386285 21.550781 7 L 21.550781 17 C 21.550781 17.861371 20.861371 18.550781 20 18.550781 L 10 18.550781 C 9.6147621 18.55076 9.2442531 18.407339 8.9589844 18.148438 L 2.6308594 12.40625 C 2.385077 12.183185 2.385077 11.814862 2.6308594 11.591797 L 8.9589844 5.8515625 C 9.2442531 5.5926609 9.6147621 5.4492405 10 5.4492188 z M 12 8.5488281 A 0.44999999 0.44999999 0 0 0 11.681641 8.6816406 A 0.44999999 0.44999999 0 0 0 11.681641 9.3183594 L 14.363281 12 L 11.681641 14.681641 A 0.44999999 0.44999999 0 0 0 11.681641 15.318359 A 0.44999999 0.44999999 0 0 0 12.318359 15.318359 L 15 12.636719 L 17.681641 15.318359 A 0.44999999 0.44999999 0 0 0 18.318359 15.318359 A 0.44999999 0.44999999 0 0 0 18.318359 14.681641 L 15.636719 12 L 18.318359 9.3183594 A 0.44999999 0.44999999 0 0 0 18.318359 8.6816406 A 0.44999999 0.44999999 0 0 0 17.681641 8.6816406 L 15 11.363281 L 12.318359 8.6816406 A 0.44999999 0.44999999 0 0 0 12 8.5488281 z " />
</svg>
