<?xml version="1.0" encoding="UTF-8" standalone="no"?>
<svg
   width="24"
   height="24"
   viewBox="0 0 24 24"
   fill="none"
   stroke="currentColor"
   stroke-width="0.9"
   stroke-linecap="round"
   stroke-linejoin="round"
   version="1.1"
   id="svg6"
   sodipodi:docname=".tmp_drill.svg"
   xmlns:inkscape="http://www.inkscape.org/namespaces/inkscape"
   xmlns:sodipodi="http://sodipodi.sourceforge.net/DTD/sodipodi-0.dtd"
   xmlns="http://www.w3.org/2000/svg"
   xmlns:svg="http://www.w3.org/2000/svg">
  <defs
     id="defs6" />
  <sodipodi:namedview
     id="namedview6"
     pagecolor="#ffffff"
     bordercolor="#000000"
     borderopacity="0.25"
     inkscape:showpageshadow="2"
     inkscape:pageopacity="0.0"
     inkscape:pagecheckerboard="0"
     inkscape:deskcolor="#d1d1d1" />
  <path
     id="path1"
     style="baseline-shift:baseline;display:inline;overflow:visible;vector-effect:none;fill:#000000;stroke:none;stroke-linecap:butt;stroke-linejoin:miter;enable-background:accumulate;stop-color:#000000;stop-opacity:1;opacity:1"
     d="M 4 1.5507812 C 2.6522325 1.5507812 1.5507813 2.6522325 1.5507812 4 L 1.5507812 8 C 1.5507812 9.3477675 2.6522325 10.449219 4 10.449219 L 4.421875 10.449219 L 2.6347656 17.597656 C 2.0133653 17.760779 1.5507813 18.330146 1.5507812 19 C 1.5507812 20.900052 3.0999477 22.449219 5 22.449219 L 10 22.449219 C 10.795483 22.449219 11.449219 21.795483 11.449219 21 L 11.449219 19 C 11.449219 18.204517 10.795483 17.550781 10 17.550781 L 7.578125 17.550781 L 8.3515625 14.449219 L 11.220703 14.449219 C 11.883892 14.449036 12.466461 13.995039 12.626953 13.351562 L 13.392578 10.285156 C 13.976381 10.097427 14.449219 9.6428123 14.449219 9 L 14.449219 8.4492188 L 17 8.4492188 C 17.795483 8.4492188 18.449219 7.7954828 18.449219 7 L 18.449219 6.4492188 L 22 6.4492188 A 0.44999999 0.44999999 0 0 0 22.449219 6 A 0.44999999 0.44999999 0 0 0 22 5.5507812 L 18.449219 5.5507812 L 18.449219 5 C 18.449219 4.2045172 17.795483 3.5507813 17 3.5507812 L 14.449219 3.5507812 L 14.449219 3 C 14.449219 2.2045172 13.795483 1.5507813 13 1.5507812 L 4 1.5507812 z M 4 2.4492188 L 13 2.4492188 C 13.309087 2.4492188 13.550781 2.6909133 13.550781 3 L 13.550781 9 C 13.550781 9.3090867 13.309087 9.5507812 13 9.5507812 L 9.0410156 9.5507812 A 0.44999999 0.44999999 0 0 0 8.9570312 9.5507812 L 5.0410156 9.5507812 A 0.44999999 0.44999999 0 0 0 4.9570312 9.5507812 L 4 9.5507812 C 3.1386285 9.5507812 2.4492187 8.8613715 2.4492188 8 L 2.4492188 4 C 2.4492188 3.1386285 3.1386285 2.4492187 4 2.4492188 z M 14.449219 4.4492188 L 17 4.4492188 C 17.309087 4.4492188 17.550781 4.6909133 17.550781 5 L 17.550781 7 C 17.550781 7.3090867 17.309087 7.5507812 17 7.5507812 L 14.449219 7.5507812 L 14.449219 4.4492188 z M 5.3515625 10.449219 L 8.421875 10.449219 L 6.6484375 17.550781 L 3.578125 17.550781 L 5.3515625 10.449219 z M 9.3515625 10.449219 L 12.423828 10.449219 L 11.753906 13.132812 C 11.692256 13.379991 11.475455 13.550711 11.220703 13.550781 L 8.578125 13.550781 L 9.3515625 10.449219 z M 2.96875 18.449219 A 0.44999999 0.44999999 0 0 0 3.0429688 18.449219 L 6.9589844 18.449219 A 0.44999999 0.44999999 0 0 0 7.0429688 18.449219 L 10 18.449219 C 10.309087 18.449219 10.550781 18.690913 10.550781 19 L 10.550781 21 C 10.550781 21.309087 10.309087 21.550781 10 21.550781 L 5 21.550781 C 3.5863438 21.550781 2.4492188 20.413656 2.4492188 19 C 2.4492188 18.701374 2.6747243 18.464832 2.96875 18.449219 z " />
</svg>
