<?xml version="1.0" encoding="UTF-8" standalone="no"?>
<svg
   width="24"
   height="24"
   viewBox="0 0 24 24"
   fill="none"
   stroke="currentColor"
   stroke-width="0.9"
   stroke-linecap="round"
   stroke-linejoin="round"
   version="1.1"
   id="svg1"
   sodipodi:docname=".tmp_egg-fried.svg"
   xmlns:inkscape="http://www.inkscape.org/namespaces/inkscape"
   xmlns:sodipodi="http://sodipodi.sourceforge.net/DTD/sodipodi-0.dtd"
   xmlns="http://www.w3.org/2000/svg"
   xmlns:svg="http://www.w3.org/2000/svg">
  <defs
     id="defs1" />
  <sodipodi:namedview
     id="namedview1"
     pagecolor="#ffffff"
     bordercolor="#000000"
     borderopacity="0.25"
     inkscape:showpageshadow="2"
     inkscape:pageopacity="0.0"
     inkscape:pagecheckerboard="0"
     inkscape:deskcolor="#d1d1d1" />
  <path
     id="circle1"
     style="baseline-shift:baseline;display:inline;overflow:visible;vector-effect:none;fill:#000000;stroke:none;stroke-linecap:butt;stroke-linejoin:miter;enable-background:accumulate;stop-color:#000000;stop-opacity:1;opacity:1"
     d="M 9.5 1.5507812 C 7.40625 1.5507812 5.6596252 2.2088349 4.4414062 3.359375 C 3.2231873 4.5099151 2.5507813 6.1428571 2.5507812 8 C 2.5507812 9.15 3.0507812 10.1 3.0507812 11.5 C 3.0507812 12.3875 2.7519003 12.74488 2.3632812 13.392578 C 1.9746621 14.040276 1.5507812 14.925 1.5507812 16.5 C 1.5507812 18.4 2.5209115 19.924256 3.9257812 20.927734 C 5.3306509 21.931213 7.1642857 22.449219 9 22.449219 C 10.857143 22.449219 11.893219 21.736445 12.662109 21.095703 C 13.431 20.454961 13.9 19.949219 15 19.949219 C 17.316667 19.949219 19.189339 19.435649 20.488281 18.273438 C 21.787223 17.111227 22.449219 15.333333 22.449219 13 C 22.449219 10.912625 21.782734 9.7173161 20.787109 8.9023438 C 19.791485 8.0873713 18.554261 7.6029695 17.269531 6.640625 C 16.024608 5.7080979 15.428653 4.5078774 14.455078 3.4453125 C 13.481503 2.3827476 12.09 1.5507813 9.5 1.5507812 z M 9.5 2.4492188 C 11.91 2.4492188 12.932091 3.1172524 13.791016 4.0546875 C 14.649941 4.9921226 15.305392 6.2919021 16.730469 7.359375 C 18.115739 8.3970305 19.379922 8.9126286 20.216797 9.5976562 C 21.053672 10.282684 21.550781 11.087375 21.550781 13 C 21.550781 15.166667 20.962777 16.638775 19.886719 17.601562 C 18.810661 18.564352 17.183333 19.050781 15 19.050781 C 13.6 19.050781 12.819 19.795039 12.087891 20.404297 C 11.356781 21.013555 10.642857 21.550781 9 21.550781 C 7.3357143 21.550781 5.6693491 21.068787 4.4492188 20.197266 C 3.2290885 19.325744 2.4492188 18.1 2.4492188 16.5 C 2.4492188 15.075 2.7753378 14.459724 3.1367188 13.857422 C 3.4980996 13.25512 3.9492186 12.6125 3.9492188 11.5 C 3.9492188 9.9 3.4492188 8.85 3.4492188 8 C 3.4492188 6.3571429 4.0268127 4.9900849 5.0585938 4.015625 C 6.0903748 3.0411651 7.59375 2.4492188 9.5 2.4492188 z M 11.5 8.5507812 C 9.3238053 8.5507812 7.5507814 10.323805 7.5507812 12.5 C 7.5507812 14.676195 9.3238053 16.449219 11.5 16.449219 C 13.676195 16.449219 15.449219 14.676195 15.449219 12.5 C 15.449219 10.323805 13.676195 8.5507812 11.5 8.5507812 z M 11.5 9.4492188 C 13.189799 9.4492188 14.550781 10.810201 14.550781 12.5 C 14.550781 14.189799 13.189799 15.550781 11.5 15.550781 C 9.8102014 15.550781 8.4492186 14.189799 8.4492188 12.5 C 8.4492188 10.810201 9.8102014 9.4492187 11.5 9.4492188 z " />
</svg>
