<?xml version="1.0" encoding="UTF-8" standalone="no"?>
<svg
   width="24"
   height="24"
   viewBox="0 0 24 24"
   fill="none"
   stroke="currentColor"
   stroke-width="0.9"
   stroke-linecap="round"
   stroke-linejoin="round"
   version="1.1"
   id="svg6"
   sodipodi:docname=".tmp_fire-extinguisher.svg"
   xmlns:inkscape="http://www.inkscape.org/namespaces/inkscape"
   xmlns:sodipodi="http://sodipodi.sourceforge.net/DTD/sodipodi-0.dtd"
   xmlns="http://www.w3.org/2000/svg"
   xmlns:svg="http://www.w3.org/2000/svg">
  <defs
     id="defs6" />
  <sodipodi:namedview
     id="namedview6"
     pagecolor="#ffffff"
     bordercolor="#000000"
     borderopacity="0.25"
     inkscape:showpageshadow="2"
     inkscape:pageopacity="0.0"
     inkscape:pagecheckerboard="0"
     inkscape:deskcolor="#d1d1d1" />
  <path
     id="path1"
     style="baseline-shift:baseline;display:inline;overflow:visible;vector-effect:none;fill:#000000;stroke:none;stroke-linecap:butt;stroke-linejoin:miter;enable-background:accumulate;stop-color:#000000;stop-opacity:1;opacity:1"
     d="M 12 1.5507812 C 11.356963 1.5507812 10.806486 1.9785794 10.619141 2.5625 C 7.2388831 2.7601382 4.5507812 5.5709183 4.5507812 9 L 4.5507812 20 A 0.44999999 0.44999999 0 0 0 5 20.449219 A 0.44999999 0.44999999 0 0 0 5.4492188 20 L 5.4492188 13.449219 L 8.5507812 13.449219 L 8.5507812 18 L 8.5507812 20 C 8.5507812 21.347768 9.6522325 22.449219 11 22.449219 L 15 22.449219 C 16.347768 22.449219 17.449219 21.347768 17.449219 20 L 17.449219 18 L 17.449219 10 C 17.449219 8.5541672 16.89161 7.4132016 16.048828 6.6640625 C 15.861036 6.4971367 15.660173 6.3496292 15.449219 6.2207031 L 15.449219 3.4492188 L 18 3.4492188 A 0.44999999 0.44999999 0 0 0 18.449219 3 A 0.44999999 0.44999999 0 0 0 18 2.5507812 L 15.376953 2.5507812 C 15.186227 1.9725563 14.638955 1.5507813 14 1.5507812 L 12 1.5507812 z M 12 2.4492188 L 14 2.4492188 C 14.309087 2.4492188 14.550781 2.6909133 14.550781 3 L 14.550781 5.8027344 C 14.052031 5.6343615 13.525326 5.5507813 13 5.5507812 C 12.474674 5.5507813 11.947969 5.6343615 11.449219 5.8027344 L 11.449219 3 C 11.449219 2.6909133 11.690913 2.4492188 12 2.4492188 z M 10.550781 3.4667969 L 10.550781 6.2207031 C 10.339827 6.3496292 10.138964 6.4971367 9.9511719 6.6640625 C 9.10839 7.4132016 8.5507812 8.5541672 8.5507812 10 L 8.5507812 12.550781 L 5.4492188 12.550781 L 5.4492188 9 C 5.4492188 6.0807366 7.6911616 3.6947471 10.550781 3.4667969 z M 13 6.4492188 C 13.591816 6.4492188 14.180178 6.5802427 14.701172 6.8359375 A 0.44999999 0.44999999 0 0 0 14.890625 6.9355469 C 15.090898 7.049471 15.279188 7.183063 15.451172 7.3359375 C 16.10839 7.9201312 16.550781 8.7791673 16.550781 10 L 16.550781 17.550781 L 9.4492188 17.550781 L 9.4492188 13 L 9.4492188 10 C 9.4492188 8.7791673 9.8916101 7.9201312 10.548828 7.3359375 C 10.720812 7.1830629 10.909102 7.049471 11.109375 6.9355469 A 0.44999999 0.44999999 0 0 0 11.298828 6.8359375 C 11.819822 6.5802427 12.408184 6.4492188 13 6.4492188 z M 9.4492188 18.449219 L 16.550781 18.449219 L 16.550781 20 C 16.550781 20.861371 15.861371 21.550781 15 21.550781 L 11 21.550781 C 10.138629 21.550781 9.4492188 20.861371 9.4492188 20 L 9.4492188 18.449219 z " />
</svg>
