<?xml version="1.0" encoding="UTF-8" standalone="no"?>
<svg
   width="24"
   height="24"
   viewBox="0 0 24 24"
   fill="none"
   stroke="currentColor"
   stroke-width="0.9"
   stroke-linecap="round"
   stroke-linejoin="round"
   version="1.1"
   id="svg1"
   sodipodi:docname=".tmp_flag-triangle-right.svg"
   xmlns:inkscape="http://www.inkscape.org/namespaces/inkscape"
   xmlns:sodipodi="http://sodipodi.sourceforge.net/DTD/sodipodi-0.dtd"
   xmlns="http://www.w3.org/2000/svg"
   xmlns:svg="http://www.w3.org/2000/svg">
  <defs
     id="defs1" />
  <sodipodi:namedview
     id="namedview1"
     pagecolor="#ffffff"
     bordercolor="#000000"
     borderopacity="0.25"
     inkscape:showpageshadow="2"
     inkscape:pageopacity="0.0"
     inkscape:pagecheckerboard="0"
     inkscape:deskcolor="#d1d1d1" />
  <path
     id="path1"
     style="baseline-shift:baseline;display:inline;overflow:visible;vector-effect:none;fill:#000000;stroke:none;stroke-linecap:butt;stroke-linejoin:miter;enable-background:accumulate;stop-color:#000000;stop-opacity:1;opacity:1"
     d="M 6.75 1.5566406 C 6.121009 1.5933483 5.5501738 2.1111745 5.5507812 2.8007812 L 5.5507812 22 A 0.44999999 0.44999999 0 0 0 6 22.449219 A 0.44999999 0.44999999 0 0 0 6.4492188 22 L 6.4492188 15.777344 L 18.746094 9.625 C 19.659351 9.1826895 19.659351 7.8173105 18.746094 7.375 L 7.3789062 1.6914062 C 7.1751 1.5850917 6.9596637 1.5444047 6.75 1.5566406 z M 6.7753906 2.4414062 C 6.835128 2.4404956 6.8983014 2.4556075 6.9609375 2.4882812 A 0.45004499 0.45004499 0 0 0 6.96875 2.4921875 L 18.349609 8.1816406 A 0.45004499 0.45004499 0 0 0 18.353516 8.1855469 C 18.643694 8.3260865 18.643694 8.6739135 18.353516 8.8144531 A 0.45004499 0.45004499 0 0 0 18.347656 8.8183594 L 6.4492188 14.771484 L 6.4492188 2.8007812 A 0.45004499 0.45004499 0 0 0 6.4492188 2.7988281 C 6.4490321 2.5868879 6.5961786 2.4441381 6.7753906 2.4414062 z " />
</svg>
