<?xml version="1.0" encoding="UTF-8" standalone="no"?>
<svg
   width="24"
   height="24"
   viewBox="0 0 24 24"
   fill="none"
   stroke="currentColor"
   stroke-width="0.9"
   stroke-linecap="round"
   stroke-linejoin="round"
   version="1.1"
   id="svg1"
   sodipodi:docname=".tmp_flame.svg"
   xmlns:inkscape="http://www.inkscape.org/namespaces/inkscape"
   xmlns:sodipodi="http://sodipodi.sourceforge.net/DTD/sodipodi-0.dtd"
   xmlns="http://www.w3.org/2000/svg"
   xmlns:svg="http://www.w3.org/2000/svg">
  <defs
     id="defs1" />
  <sodipodi:namedview
     id="namedview1"
     pagecolor="#ffffff"
     bordercolor="#000000"
     borderopacity="0.25"
     inkscape:showpageshadow="2"
     inkscape:pageopacity="0.0"
     inkscape:pagecheckerboard="0"
     inkscape:deskcolor="#d1d1d1" />
  <path
     id="path1"
     style="baseline-shift:baseline;display:inline;overflow:visible;vector-effect:none;fill:#000000;stroke:none;stroke-linecap:butt;stroke-linejoin:miter;enable-background:accumulate;stop-color:#000000;stop-opacity:1;opacity:1"
     d="M 11.890625 2.5625 A 0.44999999 0.44999999 0 0 0 11.832031 2.6601562 A 0.44999999 0.44999999 0 0 0 11.71875 2.6484375 C 9.9949426 4.0274807 9.0507812 5.4791667 9.0507812 7 C 9.0507812 8.1125 9.4726562 8.9511719 9.8476562 9.7011719 C 10.222656 10.451172 10.550781 11.1125 10.550781 12 C 10.550781 12.720833 10.29589 13.204868 9.9199219 13.539062 C 9.5439537 13.873255 9.025 14.050781 8.5 14.050781 C 7.975 14.050781 7.4560463 13.873255 7.0800781 13.539062 C 6.70411 13.204868 6.4492187 12.720833 6.4492188 12 A 0.45004499 0.45004499 0 0 0 5.640625 11.730469 C 4.9331329 12.673792 4.5507814 13.820846 4.5507812 15 C 4.5507814 19.109194 7.8908092 22.449219 12 22.449219 C 16.109191 22.449219 19.449219 19.109194 19.449219 15 C 19.449219 12.85 18.355116 10.877636 16.287109 9.1542969 C 14.358894 7.5474507 13.083836 5.4759709 12.4375 2.890625 A 0.44999999 0.44999999 0 0 0 12.339844 2.8320312 A 0.44999999 0.44999999 0 0 0 12.351562 2.71875 A 0.44999999 0.44999999 0 0 0 12.105469 2.6914062 A 0.44999999 0.44999999 0 0 0 11.890625 2.5625 z M 11.851562 3.8066406 C 12.593013 6.2170226 13.833595 8.2796235 15.712891 9.8457031 C 17.644882 11.455698 18.550781 13.15 18.550781 15 C 18.550781 18.622798 15.622796 21.550781 12 21.550781 C 8.3772045 21.550781 5.4492188 18.622798 5.4492188 15 C 5.4492188 14.452794 5.766037 13.988484 5.9550781 13.482422 C 6.1051306 13.752046 6.2641456 14.016914 6.4824219 14.210938 C 7.0439537 14.710076 7.775 14.949219 8.5 14.949219 C 9.225 14.949219 9.9560464 14.710077 10.517578 14.210938 C 11.07911 13.711797 11.449219 12.945833 11.449219 12 C 11.449219 10.8875 11.027344 10.048828 10.652344 9.2988281 C 10.277344 8.5488281 9.9492188 7.8875 9.9492188 7 C 9.9492188 5.9931733 10.624446 4.9226467 11.851562 3.8066406 z " />
</svg>
