<?xml version="1.0" encoding="UTF-8" standalone="no"?>
<svg
   width="24"
   height="24"
   viewBox="0 0 24 24"
   fill="none"
   stroke="currentColor"
   stroke-width="0.9"
   stroke-linecap="round"
   stroke-linejoin="round"
   version="1.1"
   id="svg6"
   sodipodi:docname=".tmp_flip-vertical-2.svg"
   xmlns:inkscape="http://www.inkscape.org/namespaces/inkscape"
   xmlns:sodipodi="http://sodipodi.sourceforge.net/DTD/sodipodi-0.dtd"
   xmlns="http://www.w3.org/2000/svg"
   xmlns:svg="http://www.w3.org/2000/svg">
  <defs
     id="defs6" />
  <sodipodi:namedview
     id="namedview6"
     pagecolor="#ffffff"
     bordercolor="#000000"
     borderopacity="0.25"
     inkscape:showpageshadow="2"
     inkscape:pageopacity="0.0"
     inkscape:pagecheckerboard="0"
     inkscape:deskcolor="#d1d1d1" />
  <path
     id="path1"
     style="baseline-shift:baseline;display:inline;overflow:visible;vector-effect:none;fill:#000000;stroke:none;stroke-linecap:butt;stroke-linejoin:miter;enable-background:accumulate;stop-color:#000000;stop-opacity:1;opacity:1"
     d="M 7 2.5507812 A 0.45004499 0.45004499 0 0 0 6.6816406 3.3183594 L 11.681641 8.3183594 A 0.45004499 0.45004499 0 0 0 12.318359 8.3183594 L 17.318359 3.3183594 A 0.44999999 0.44999999 0 0 0 17.318359 3.1308594 A 0.44999999 0.44999999 0 0 0 17.449219 3 A 0.44999999 0.44999999 0 0 0 17.318359 2.8691406 A 0.44999999 0.44999999 0 0 0 17.318359 2.6816406 A 0.44999999 0.44999999 0 0 0 17.130859 2.6816406 A 0.44999999 0.44999999 0 0 0 17 2.5507812 L 7 2.5507812 z M 8.0859375 3.4492188 L 15.914062 3.4492188 L 12 7.3632812 L 8.0859375 3.4492188 z M 2 11.550781 A 0.44999999 0.44999999 0 0 0 1.5507812 12 A 0.44999999 0.44999999 0 0 0 2 12.449219 L 4 12.449219 A 0.44999999 0.44999999 0 0 0 4.4492188 12 A 0.44999999 0.44999999 0 0 0 4 11.550781 L 2 11.550781 z M 8 11.550781 A 0.44999999 0.44999999 0 0 0 7.5507812 12 A 0.44999999 0.44999999 0 0 0 8 12.449219 L 10 12.449219 A 0.44999999 0.44999999 0 0 0 10.449219 12 A 0.44999999 0.44999999 0 0 0 10 11.550781 L 8 11.550781 z M 14 11.550781 A 0.44999999 0.44999999 0 0 0 13.550781 12 A 0.44999999 0.44999999 0 0 0 14 12.449219 L 16 12.449219 A 0.44999999 0.44999999 0 0 0 16.449219 12 A 0.44999999 0.44999999 0 0 0 16 11.550781 L 14 11.550781 z M 20 11.550781 A 0.44999999 0.44999999 0 0 0 19.550781 12 A 0.44999999 0.44999999 0 0 0 20 12.449219 L 22 12.449219 A 0.44999999 0.44999999 0 0 0 22.449219 12 A 0.44999999 0.44999999 0 0 0 22 11.550781 L 20 11.550781 z M 12 15.548828 A 0.45004499 0.45004499 0 0 0 11.681641 15.681641 L 6.6816406 20.681641 A 0.45004499 0.45004499 0 0 0 7 21.449219 L 17 21.449219 A 0.44999999 0.44999999 0 0 0 17.130859 21.318359 A 0.44999999 0.44999999 0 0 0 17.318359 21.318359 A 0.44999999 0.44999999 0 0 0 17.318359 21.130859 A 0.44999999 0.44999999 0 0 0 17.449219 21 A 0.44999999 0.44999999 0 0 0 17.318359 20.869141 A 0.44999999 0.44999999 0 0 0 17.318359 20.681641 L 12.318359 15.681641 A 0.45004499 0.45004499 0 0 0 12 15.548828 z M 12 16.636719 L 15.914062 20.550781 L 8.0859375 20.550781 L 12 16.636719 z " />
</svg>
