<?xml version="1.0" encoding="UTF-8" standalone="no"?>
<svg
   width="24"
   height="24"
   viewBox="0 0 24 24"
   fill="none"
   stroke="currentColor"
   stroke-width="0.9"
   stroke-linecap="round"
   stroke-linejoin="round"
   version="1.1"
   id="svg9"
   sodipodi:docname=".tmp_flower.svg"
   xmlns:inkscape="http://www.inkscape.org/namespaces/inkscape"
   xmlns:sodipodi="http://sodipodi.sourceforge.net/DTD/sodipodi-0.dtd"
   xmlns="http://www.w3.org/2000/svg"
   xmlns:svg="http://www.w3.org/2000/svg">
  <defs
     id="defs9" />
  <sodipodi:namedview
     id="namedview9"
     pagecolor="#ffffff"
     bordercolor="#000000"
     borderopacity="0.25"
     inkscape:showpageshadow="2"
     inkscape:pageopacity="0.0"
     inkscape:pagecheckerboard="0"
     inkscape:deskcolor="#d1d1d1" />
  <path
     id="circle1"
     style="baseline-shift:baseline;display:inline;overflow:visible;vector-effect:none;fill:#000000;stroke:none;stroke-linecap:butt;stroke-linejoin:miter;enable-background:accumulate;stop-color:#000000;stop-opacity:1;opacity:1"
     d="M 7.3398438 2.546875 C 7.1039287 2.5532355 6.8679846 2.5761851 6.6328125 2.6171875 C 5.6921242 2.7811969 4.7727907 3.2272093 4 4 C 2.4544186 5.5455814 2.2164047 7.6770059 2.9277344 9.3945312 C 3.4580545 10.675004 4.6404479 11.538546 6.0546875 12 C 4.6404479 12.461454 3.4580545 13.324996 2.9277344 14.605469 C 2.2164047 16.322994 2.4544186 18.454419 4 20 C 5.5455814 21.545581 7.6770059 21.783595 9.3945312 21.072266 C 10.675004 20.541945 11.538546 19.359552 12 17.945312 C 12.461454 19.359552 13.324996 20.541945 14.605469 21.072266 C 16.322994 21.783595 18.454419 21.545581 20 20 C 21.545581 18.454419 21.783595 16.322994 21.072266 14.605469 C 20.541945 13.324996 19.359552 12.461454 17.945312 12 C 19.359552 11.538546 20.541945 10.675004 21.072266 9.3945312 C 21.783595 7.6770059 21.545581 5.5455814 20 4 C 18.454419 2.4544186 16.322994 2.2164047 14.605469 2.9277344 C 13.324996 3.4580545 12.461454 4.6404479 12 6.0546875 C 11.538546 4.6404479 10.675004 3.4580545 9.3945312 2.9277344 C 8.7504592 2.6609857 8.0475889 2.5277935 7.3398438 2.546875 z M 7.3730469 3.4394531 C 7.9488068 3.4264407 8.5202649 3.538094 9.0507812 3.7578125 C 10.465492 4.3437285 11.550781 5.6766679 11.550781 7.5 L 11.550781 8.5800781 C 10.935672 8.6606427 10.370151 8.9039443 9.9003906 9.265625 L 8.3183594 7.6816406 A 0.44999999 0.44999999 0 0 0 7.6816406 7.6816406 A 0.44999999 0.44999999 0 0 0 7.6816406 8.3183594 L 9.265625 9.9003906 C 8.9039443 10.370151 8.6606427 10.935672 8.5800781 11.550781 L 7.5 11.550781 C 5.6766679 11.550781 4.3437285 10.465492 3.7578125 9.0507812 C 3.1718965 7.6360709 3.3476048 5.9258327 4.6367188 4.6367188 C 5.2812757 3.9921618 6.0314696 3.6257539 6.796875 3.4941406 C 6.9882263 3.4612373 7.1811269 3.4437906 7.3730469 3.4394531 z M 16.626953 3.4394531 C 17.586689 3.4611853 18.557585 3.8310226 19.363281 4.6367188 C 20.652395 5.9258328 20.828104 7.6360709 20.242188 9.0507812 C 19.656273 10.465492 18.323332 11.550781 16.5 11.550781 L 15.419922 11.550781 C 15.339357 10.935672 15.096056 10.370151 14.734375 9.9003906 L 16.318359 8.3183594 A 0.44999999 0.44999999 0 0 0 16.318359 7.6816406 A 0.44999999 0.44999999 0 0 0 15.681641 7.6816406 L 14.099609 9.265625 C 13.629849 8.9039443 13.064328 8.6606427 12.449219 8.5800781 L 12.449219 7.5 C 12.449219 5.6766679 13.534508 4.3437285 14.949219 3.7578125 C 15.479735 3.538094 16.051112 3.4264138 16.626953 3.4394531 z M 12 9.4492188 C 12.687398 9.4492188 13.309893 9.7174613 13.767578 10.15625 A 0.44999999 0.44999999 0 0 0 13.802734 10.197266 A 0.44999999 0.44999999 0 0 0 13.84375 10.232422 C 14.282539 10.690107 14.550781 11.312602 14.550781 12 C 14.550781 12.687398 14.282539 13.309893 13.84375 13.767578 A 0.44999999 0.44999999 0 0 0 13.802734 13.802734 A 0.44999999 0.44999999 0 0 0 13.767578 13.84375 C 13.309893 14.282539 12.687398 14.550781 12 14.550781 C 11.312603 14.550781 10.690107 14.282539 10.232422 13.84375 A 0.44999999 0.44999999 0 0 0 10.197266 13.802734 A 0.44999999 0.44999999 0 0 0 10.15625 13.767578 C 9.7174613 13.309893 9.4492187 12.687398 9.4492188 12 C 9.4492188 11.312603 9.7174616 10.690107 10.15625 10.232422 A 0.44999999 0.44999999 0 0 0 10.197266 10.197266 A 0.44999999 0.44999999 0 0 0 10.232422 10.15625 C 10.690107 9.7174616 11.312603 9.4492187 12 9.4492188 z M 7.5 12.449219 L 8.5800781 12.449219 C 8.6606427 13.064328 8.9039443 13.629849 9.265625 14.099609 L 7.6816406 15.681641 A 0.44999999 0.44999999 0 0 0 7.6816406 16.318359 A 0.44999999 0.44999999 0 0 0 8.3183594 16.318359 L 9.9003906 14.734375 C 10.370151 15.096056 10.935672 15.339357 11.550781 15.419922 L 11.550781 16.5 C 11.550781 18.323332 10.465492 19.656273 9.0507812 20.242188 C 7.6360709 20.828104 5.9258328 20.652395 4.6367188 19.363281 C 3.3476048 18.074167 3.1718965 16.363929 3.7578125 14.949219 C 4.3437285 13.534508 5.6766679 12.449219 7.5 12.449219 z M 15.419922 12.449219 L 16.5 12.449219 C 18.323332 12.449219 19.656273 13.534508 20.242188 14.949219 C 20.828104 16.363929 20.652395 18.074167 19.363281 19.363281 C 18.074167 20.652395 16.363929 20.828104 14.949219 20.242188 C 13.534508 19.656273 12.449219 18.323332 12.449219 16.5 L 12.449219 15.419922 C 13.064328 15.339357 13.629849 15.096056 14.099609 14.734375 L 15.681641 16.318359 A 0.44999999 0.44999999 0 0 0 16.318359 16.318359 A 0.44999999 0.44999999 0 0 0 16.318359 15.681641 L 14.734375 14.099609 C 15.096056 13.629849 15.339357 13.064328 15.419922 12.449219 z " />
</svg>
