<?xml version="1.0" encoding="UTF-8" standalone="no"?>
<svg
   width="24"
   height="24"
   viewBox="0 0 24 24"
   fill="none"
   stroke="currentColor"
   stroke-width="0.9"
   stroke-linecap="round"
   stroke-linejoin="round"
   version="1.1"
   id="svg4"
   sodipodi:docname=".tmp_folder-kanban.svg"
   xmlns:inkscape="http://www.inkscape.org/namespaces/inkscape"
   xmlns:sodipodi="http://sodipodi.sourceforge.net/DTD/sodipodi-0.dtd"
   xmlns="http://www.w3.org/2000/svg"
   xmlns:svg="http://www.w3.org/2000/svg">
  <defs
     id="defs4" />
  <sodipodi:namedview
     id="namedview4"
     pagecolor="#ffffff"
     bordercolor="#000000"
     borderopacity="0.25"
     inkscape:showpageshadow="2"
     inkscape:pageopacity="0.0"
     inkscape:pagecheckerboard="0"
     inkscape:deskcolor="#d1d1d1" />
  <path
     id="path1"
     style="baseline-shift:baseline;display:inline;overflow:visible;vector-effect:none;fill:#000000;stroke:none;stroke-linecap:butt;stroke-linejoin:miter;enable-background:accumulate;stop-color:#000000;stop-opacity:1;opacity:1"
     d="M 4 2.5507812 C 2.6522325 2.5507812 1.5507813 3.6522325 1.5507812 5 L 1.5507812 18 C 1.5507812 19.345455 2.6545455 20.449219 4 20.449219 L 20 20.449219 C 21.347768 20.449219 22.449219 19.347768 22.449219 18 L 22.449219 8 C 22.449219 6.6522325 21.347768 5.5507812 20 5.5507812 L 12.072266 5.5507812 L 12.070312 5.5507812 C 11.552022 5.5474939 11.070287 5.2845426 10.785156 4.8515625 A 0.45004499 0.45004499 0 0 0 10.78125 4.8457031 L 9.9609375 3.6484375 C 9.5099609 2.9679501 8.7482959 2.5550062 7.9316406 2.5507812 A 0.45004499 0.45004499 0 0 0 7.9296875 2.5507812 L 4 2.5507812 z M 4 3.4492188 L 7.9296875 3.4492188 C 8.448025 3.4525087 8.9297134 3.7154574 9.2148438 4.1484375 A 0.45004499 0.45004499 0 0 0 9.21875 4.1542969 L 10.039062 5.3515625 L 10.039062 5.3535156 C 10.490134 6.0333271 11.252157 6.4449962 12.068359 6.4492188 A 0.45004499 0.45004499 0 0 0 12.070312 6.4492188 L 20 6.4492188 C 20.861371 6.4492188 21.550781 7.1386285 21.550781 8 L 21.550781 18 C 21.550781 18.861371 20.861371 19.550781 20 19.550781 L 4 19.550781 C 3.1454545 19.550784 2.4492187 18.854545 2.4492188 18 L 2.4492188 5 C 2.4492188 4.1386285 3.1386285 3.4492188 4 3.4492188 z M 8 9.5507812 A 0.44999999 0.44999999 0 0 0 7.5507812 10 L 7.5507812 14 A 0.44999999 0.44999999 0 0 0 8 14.449219 A 0.44999999 0.44999999 0 0 0 8.4492188 14 L 8.4492188 10 A 0.44999999 0.44999999 0 0 0 8 9.5507812 z M 12 9.5507812 A 0.44999999 0.44999999 0 0 0 11.550781 10 L 11.550781 12 A 0.44999999 0.44999999 0 0 0 12 12.449219 A 0.44999999 0.44999999 0 0 0 12.449219 12 L 12.449219 10 A 0.44999999 0.44999999 0 0 0 12 9.5507812 z M 16 9.5507812 A 0.44999999 0.44999999 0 0 0 15.550781 10 L 15.550781 16 A 0.44999999 0.44999999 0 0 0 16 16.449219 A 0.44999999 0.44999999 0 0 0 16.449219 16 L 16.449219 10 A 0.44999999 0.44999999 0 0 0 16 9.5507812 z " />
</svg>
