<?xml version="1.0" encoding="UTF-8" standalone="no"?>
<svg
   width="24"
   height="24"
   viewBox="0 0 24 24"
   fill="none"
   stroke="currentColor"
   stroke-width="0.9"
   stroke-linecap="round"
   stroke-linejoin="round"
   version="1.1"
   id="svg2"
   sodipodi:docname=".tmp_folder-heart.svg"
   xmlns:inkscape="http://www.inkscape.org/namespaces/inkscape"
   xmlns:sodipodi="http://sodipodi.sourceforge.net/DTD/sodipodi-0.dtd"
   xmlns="http://www.w3.org/2000/svg"
   xmlns:svg="http://www.w3.org/2000/svg">
  <defs
     id="defs2" />
  <sodipodi:namedview
     id="namedview2"
     pagecolor="#ffffff"
     bordercolor="#000000"
     borderopacity="0.25"
     inkscape:showpageshadow="2"
     inkscape:pageopacity="0.0"
     inkscape:pagecheckerboard="0"
     inkscape:deskcolor="#d1d1d1" />
  <path
     id="path1"
     style="baseline-shift:baseline;display:inline;overflow:visible;vector-effect:none;fill:#000000;stroke:none;stroke-linecap:butt;stroke-linejoin:miter;enable-background:accumulate;stop-color:#000000;stop-opacity:1;opacity:1"
     d="M 4 2.5507812 C 2.6522325 2.5507812 1.5507813 3.6522325 1.5507812 5 L 1.5507812 18 C 1.5507812 19.347768 2.6522325 20.449219 4 20.449219 L 10.638672 20.449219 A 0.44999999 0.44999999 0 0 0 11.087891 20 A 0.44999999 0.44999999 0 0 0 10.638672 19.550781 L 4 19.550781 C 3.1386285 19.550781 2.4492187 18.861371 2.4492188 18 L 2.4492188 5 C 2.4492188 4.1386285 3.1386285 3.4492188 4 3.4492188 L 7.9003906 3.4492188 A 0.45004499 0.45004499 0 0 0 7.9042969 3.4492188 C 8.4316082 3.4440487 8.9248338 3.7080078 9.2148438 4.1484375 A 0.45004499 0.45004499 0 0 0 9.2167969 4.1523438 L 10.023438 5.3476562 C 10.476294 6.0353116 11.246935 6.4490833 12.070312 6.4492188 L 20 6.4492188 C 20.861371 6.4492188 21.550781 7.1386285 21.550781 8 L 21.550781 11.417969 A 0.44999999 0.44999999 0 0 0 22 11.867188 A 0.44999999 0.44999999 0 0 0 22.449219 11.417969 L 22.449219 8 C 22.449219 6.6522325 21.347768 5.5507812 20 5.5507812 L 12.070312 5.5507812 C 11.548516 5.5506953 11.062378 5.2873479 10.775391 4.8515625 A 0.45004499 0.45004499 0 0 0 10.773438 4.8476562 L 9.9667969 3.6523438 L 9.9628906 3.6484375 C 9.5055919 2.9574431 8.7290512 2.5439807 7.9003906 2.5507812 L 4 2.5507812 z M 16.349609 14.498047 C 15.642546 14.481217 14.974788 14.763996 14.462891 15.212891 C 13.950993 15.661786 13.585414 16.287028 13.509766 16.990234 C 13.434116 17.69344 13.673111 18.463028 14.294922 19.111328 L 16.908203 21.953125 C 17.48017 22.611707 18.521783 22.611707 19.09375 21.953125 L 21.707031 19.111328 L 21.710938 19.107422 C 22.321316 18.460034 22.555338 17.692657 22.478516 16.994141 C 22.401526 16.294085 22.036873 15.673682 21.527344 15.226562 C 21.017815 14.779443 20.352564 14.497104 19.648438 14.511719 C 19.074855 14.523629 18.505858 14.808969 18.001953 15.265625 C 17.497912 14.801589 16.926325 14.511773 16.349609 14.498047 z M 16.328125 15.398438 C 16.777941 15.409137 17.229491 15.594095 17.648438 16.117188 A 0.45004499 0.45004499 0 0 0 18.349609 16.119141 C 18.769078 15.603345 19.21964 15.421415 19.667969 15.412109 C 20.116298 15.402809 20.576188 15.588715 20.933594 15.902344 C 21.291 16.215973 21.534963 16.648012 21.583984 17.09375 C 21.633004 17.539488 21.509664 18.009261 21.052734 18.492188 A 0.45004499 0.45004499 0 0 0 21.048828 18.498047 L 18.421875 21.353516 A 0.45004499 0.45004499 0 0 0 18.414062 21.363281 C 18.190272 21.620962 17.809728 21.620962 17.585938 21.363281 A 0.45004499 0.45004499 0 0 0 17.578125 21.353516 L 14.951172 18.496094 A 0.45004499 0.45004499 0 0 0 14.945312 18.488281 C 14.481407 18.004614 14.356171 17.5333 14.404297 17.085938 C 14.452427 16.638576 14.697233 16.203845 15.056641 15.888672 C 15.416048 15.573499 15.878309 15.387731 16.328125 15.398438 z " />
</svg>
