<?xml version="1.0" encoding="UTF-8" standalone="no"?>
<svg
   width="24"
   height="24"
   viewBox="0 0 24 24"
   fill="none"
   stroke="currentColor"
   stroke-width="0.9"
   stroke-linecap="round"
   stroke-linejoin="round"
   version="1.1"
   id="svg4"
   sodipodi:docname=".tmp_folder-tree.svg"
   xmlns:inkscape="http://www.inkscape.org/namespaces/inkscape"
   xmlns:sodipodi="http://sodipodi.sourceforge.net/DTD/sodipodi-0.dtd"
   xmlns="http://www.w3.org/2000/svg"
   xmlns:svg="http://www.w3.org/2000/svg">
  <defs
     id="defs4" />
  <sodipodi:namedview
     id="namedview4"
     pagecolor="#ffffff"
     bordercolor="#000000"
     borderopacity="0.25"
     inkscape:showpageshadow="2"
     inkscape:pageopacity="0.0"
     inkscape:pagecheckerboard="0"
     inkscape:deskcolor="#d1d1d1" />
  <path
     id="path1"
     style="baseline-shift:baseline;display:inline;overflow:visible;vector-effect:none;fill:#000000;stroke:none;stroke-linecap:butt;stroke-linejoin:miter;enable-background:accumulate;stop-color:#000000;stop-opacity:1;opacity:1"
     d="M 3 2.5507812 A 0.44999999 0.44999999 0 0 0 2.5507812 3 L 2.5507812 5 L 2.5507812 16 C 2.5507812 17.347768 3.6522325 18.449219 5 18.449219 L 8 18.449219 A 0.44999999 0.44999999 0 0 0 8.4492188 18 A 0.44999999 0.44999999 0 0 0 8 17.550781 L 5 17.550781 C 4.1386285 17.550781 3.4492188 16.861371 3.4492188 16 L 3.4492188 6.8925781 C 3.8722114 7.2400957 4.4127216 7.4492188 5 7.4492188 L 8 7.4492188 A 0.44999999 0.44999999 0 0 0 8.4492188 7 A 0.44999999 0.44999999 0 0 0 8 6.5507812 L 5 6.5507812 C 4.1386285 6.5507812 3.4492188 5.8613715 3.4492188 5 L 3.4492188 3 A 0.44999999 0.44999999 0 0 0 3 2.5507812 z M 13 2.5507812 C 12.204517 2.5507812 11.550781 3.2045172 11.550781 4 L 11.550781 9 C 11.550781 9.7954828 12.204517 10.449219 13 10.449219 L 20 10.449219 C 20.795483 10.449219 21.449219 9.7954828 21.449219 9 L 21.449219 6 C 21.449219 5.2045172 20.795483 4.5507812 20 4.5507812 L 17.5 4.5507812 C 17.326489 4.5507812 17.164654 4.4688872 17.060547 4.3300781 L 16.160156 3.1308594 C 15.886554 2.7660566 15.456003 2.5507812 15 2.5507812 L 13 2.5507812 z M 13 3.4492188 L 15 3.4492188 C 15.173511 3.4492188 15.335346 3.5311128 15.439453 3.6699219 L 16.339844 4.8691406 C 16.613446 5.2339434 17.043997 5.4492187 17.5 5.4492188 L 20 5.4492188 C 20.309087 5.4492188 20.550781 5.6909133 20.550781 6 L 20.550781 9 C 20.550781 9.3090867 20.309087 9.5507812 20 9.5507812 L 13 9.5507812 C 12.690913 9.5507812 12.449219 9.3090867 12.449219 9 L 12.449219 4 C 12.449219 3.6909133 12.690913 3.4492188 13 3.4492188 z M 13 13.550781 C 12.204517 13.550781 11.550781 14.204517 11.550781 15 L 11.550781 20 C 11.550781 20.795483 12.204517 21.449219 13 21.449219 L 20 21.449219 C 20.795483 21.449219 21.449219 20.795483 21.449219 20 L 21.449219 17 C 21.449219 16.204517 20.795483 15.550781 20 15.550781 L 17.105469 15.550781 C 16.900433 15.548101 16.71617 15.432486 16.623047 15.25 L 16.621094 15.248047 L 16.212891 14.419922 C 15.98226 13.891472 15.457335 13.549482 14.880859 13.550781 L 13 13.550781 z M 13 14.449219 L 14.880859 14.449219 C 15.101458 14.448451 15.29848 14.577113 15.386719 14.779297 A 0.45004499 0.45004499 0 0 0 15.396484 14.798828 L 15.816406 15.648438 A 0.45004499 0.45004499 0 0 0 15.818359 15.652344 C 16.061286 16.134547 16.553858 16.442161 17.09375 16.449219 A 0.45004499 0.45004499 0 0 0 17.099609 16.449219 L 20 16.449219 C 20.309087 16.449219 20.550781 16.690913 20.550781 17 L 20.550781 20 C 20.550781 20.309087 20.309087 20.550781 20 20.550781 L 13 20.550781 C 12.690913 20.550781 12.449219 20.309087 12.449219 20 L 12.449219 15 C 12.449219 14.690913 12.690913 14.449219 13 14.449219 z " />
</svg>
