<?xml version="1.0" encoding="UTF-8" standalone="no"?>
<svg
   width="24"
   height="24"
   viewBox="0 0 24 24"
   fill="none"
   stroke="currentColor"
   stroke-width="0.9"
   stroke-linecap="round"
   stroke-linejoin="round"
   version="1.1"
   id="svg2"
   sodipodi:docname=".tmp_folder-symlink.svg"
   xmlns:inkscape="http://www.inkscape.org/namespaces/inkscape"
   xmlns:sodipodi="http://sodipodi.sourceforge.net/DTD/sodipodi-0.dtd"
   xmlns="http://www.w3.org/2000/svg"
   xmlns:svg="http://www.w3.org/2000/svg">
  <defs
     id="defs2" />
  <sodipodi:namedview
     id="namedview2"
     pagecolor="#ffffff"
     bordercolor="#000000"
     borderopacity="0.25"
     inkscape:showpageshadow="2"
     inkscape:pageopacity="0.0"
     inkscape:pagecheckerboard="0"
     inkscape:deskcolor="#d1d1d1" />
  <path
     id="path1"
     style="baseline-shift:baseline;display:inline;overflow:visible;vector-effect:none;fill:#000000;stroke:none;stroke-linecap:butt;stroke-linejoin:miter;enable-background:accumulate;stop-color:#000000;stop-opacity:1;opacity:1"
     d="M 4 2.5507812 C 2.6522325 2.5507812 1.5507813 3.6522325 1.5507812 5 L 1.5507812 9.3496094 A 0.44999999 0.44999999 0 0 0 2 9.8007812 A 0.44999999 0.44999999 0 0 0 2.4492188 9.3496094 L 2.4492188 5 C 2.4492188 4.1386285 3.1386285 3.4492188 4 3.4492188 L 7.9003906 3.4492188 A 0.45004499 0.45004499 0 0 0 7.9042969 3.4492188 C 8.4316082 3.4440487 8.9248338 3.7080078 9.2148438 4.1484375 A 0.45004499 0.45004499 0 0 0 9.2167969 4.1523438 L 10.023438 5.3476562 C 10.476294 6.0353116 11.246935 6.4490833 12.070312 6.4492188 L 20 6.4492188 C 20.861371 6.4492188 21.550781 7.1386285 21.550781 8 L 21.550781 18 C 21.550781 18.861371 20.861371 19.550781 20 19.550781 L 4 19.550781 C 3.1386285 19.550777 2.4492187 18.861371 2.4492188 18 L 2.4492188 15 C 2.4492188 14.138629 3.1386285 13.449219 4 13.449219 L 9.9140625 13.449219 L 7.6816406 15.681641 A 0.44999999 0.44999999 0 0 0 7.6816406 16.318359 A 0.44999999 0.44999999 0 0 0 8.3183594 16.318359 L 11.318359 13.318359 A 0.45004499 0.45004499 0 0 0 11.318359 12.681641 L 8.3183594 9.6816406 A 0.44999999 0.44999999 0 0 0 7.6816406 9.6816406 A 0.44999999 0.44999999 0 0 0 7.6816406 10.318359 L 9.9140625 12.550781 L 4 12.550781 C 2.6522325 12.550781 1.5507812 13.652232 1.5507812 15 L 1.5507812 18 C 1.5507812 19.347768 2.6522325 20.449219 4 20.449219 L 20 20.449219 C 21.347768 20.449219 22.449219 19.347768 22.449219 18 L 22.449219 8 C 22.449219 6.6522325 21.347768 5.5507812 20 5.5507812 L 12.070312 5.5507812 C 11.548516 5.5506953 11.062378 5.2873479 10.775391 4.8515625 A 0.45004499 0.45004499 0 0 0 10.773438 4.8476562 L 9.9667969 3.6523438 L 9.9628906 3.6484375 C 9.5055919 2.9574431 8.7290512 2.5439807 7.9003906 2.5507812 L 4 2.5507812 z " />
</svg>
