<?xml version="1.0" encoding="UTF-8" standalone="no"?>
<svg
   width="24"
   height="24"
   viewBox="0 0 24 24"
   fill="none"
   stroke="currentColor"
   stroke-width="0.9"
   stroke-linecap="round"
   stroke-linejoin="round"
   version="1.1"
   id="svg2"
   sodipodi:docname=".tmp_gallery-vertical-end.svg"
   xmlns:inkscape="http://www.inkscape.org/namespaces/inkscape"
   xmlns:sodipodi="http://sodipodi.sourceforge.net/DTD/sodipodi-0.dtd"
   xmlns="http://www.w3.org/2000/svg"
   xmlns:svg="http://www.w3.org/2000/svg">
  <defs
     id="defs2" />
  <sodipodi:namedview
     id="namedview2"
     pagecolor="#ffffff"
     bordercolor="#000000"
     borderopacity="0.25"
     inkscape:showpageshadow="2"
     inkscape:pageopacity="0.0"
     inkscape:pagecheckerboard="0"
     inkscape:deskcolor="#d1d1d1" />
  <path
     id="path1"
     style="baseline-shift:baseline;display:inline;overflow:visible;vector-effect:none;fill:#000000;stroke:none;stroke-linecap:butt;stroke-linejoin:miter;enable-background:accumulate;stop-color:#000000;stop-opacity:1;opacity:1"
     d="M 7 1.5507812 A 0.44999999 0.44999999 0 0 0 6.5507812 2 A 0.44999999 0.44999999 0 0 0 7 2.4492188 L 17 2.4492188 A 0.44999999 0.44999999 0 0 0 17.449219 2 A 0.44999999 0.44999999 0 0 0 17 1.5507812 L 7 1.5507812 z M 5 5.5507812 A 0.44999999 0.44999999 0 0 0 4.5507812 6 A 0.44999999 0.44999999 0 0 0 5 6.4492188 L 19 6.4492188 A 0.44999999 0.44999999 0 0 0 19.449219 6 A 0.44999999 0.44999999 0 0 0 19 5.5507812 L 5 5.5507812 z M 5 9.5507812 C 3.6504838 9.5507812 2.5507812 10.650484 2.5507812 12 L 2.5507812 20 C 2.5507812 21.349516 3.6504838 22.449219 5 22.449219 L 19 22.449219 C 20.349516 22.449219 21.449219 21.349516 21.449219 20 L 21.449219 12 C 21.449219 10.650484 20.349516 9.5507812 19 9.5507812 L 5 9.5507812 z M 5 10.449219 L 19 10.449219 C 19.866484 10.449219 20.550781 11.133516 20.550781 12 L 20.550781 20 C 20.550781 20.866484 19.866484 21.550781 19 21.550781 L 5 21.550781 C 4.1335162 21.550781 3.4492188 20.866484 3.4492188 20 L 3.4492188 12 C 3.4492188 11.133516 4.1335162 10.449219 5 10.449219 z " />
</svg>
