<?xml version="1.0" encoding="UTF-8" standalone="no"?>
<svg
   width="24"
   height="24"
   viewBox="0 0 24 24"
   fill="none"
   stroke="currentColor"
   stroke-width="0.9"
   stroke-linecap="round"
   stroke-linejoin="round"
   version="1.1"
   id="svg3"
   sodipodi:docname=".tmp_gem.svg"
   xmlns:inkscape="http://www.inkscape.org/namespaces/inkscape"
   xmlns:sodipodi="http://sodipodi.sourceforge.net/DTD/sodipodi-0.dtd"
   xmlns="http://www.w3.org/2000/svg"
   xmlns:svg="http://www.w3.org/2000/svg">
  <defs
     id="defs3" />
  <sodipodi:namedview
     id="namedview3"
     pagecolor="#ffffff"
     bordercolor="#000000"
     borderopacity="0.25"
     inkscape:showpageshadow="2"
     inkscape:pageopacity="0.0"
     inkscape:pagecheckerboard="0"
     inkscape:deskcolor="#d1d1d1" />
  <path
     id="path1"
     style="baseline-shift:baseline;display:inline;overflow:visible;vector-effect:none;fill:#000000;stroke:none;stroke-linecap:butt;stroke-linejoin:miter;enable-background:accumulate;stop-color:#000000;stop-opacity:1;opacity:1"
     d="M 10.5 2.5488281 A 0.44999999 0.44999999 0 0 0 10.457031 2.5507812 L 7 2.5507812 C 6.2277333 2.550876 5.499311 2.9145226 5.0371094 3.5332031 L 2.0390625 7.5292969 L 2.0410156 7.5292969 C 1.7193713 7.9579107 1.5553897 8.4677078 1.5507812 8.9785156 A 0.44999999 0.44999999 0 0 0 1.5507812 9 C 1.5507796 9.0072288 1.5507193 9.0142557 1.5507812 9.0214844 C 1.5550798 9.5226702 1.7128217 10.023053 2.0234375 10.447266 L 2.0214844 10.447266 L 10.009766 21.431641 C 10.476954 22.081019 11.191803 22.417725 11.916016 22.441406 A 0.45004499 0.45004499 0 0 0 12.083984 22.441406 C 12.806357 22.41679 13.519709 22.080561 13.986328 21.433594 L 21.976562 10.447266 C 22.277774 10.036257 22.429683 9.5539652 22.443359 9.0683594 A 0.44999999 0.44999999 0 0 0 22.449219 9 C 22.449219 8.9973947 22.449226 8.9947928 22.449219 8.9921875 A 0.44999999 0.44999999 0 0 0 22.449219 8.9863281 C 22.449139 8.9713411 22.445666 8.9563898 22.445312 8.9414062 C 22.433577 8.4432789 22.274491 7.9474908 21.960938 7.5292969 L 18.960938 3.5292969 C 18.498483 2.9126413 17.770761 2.5507811 17 2.5507812 L 13.542969 2.5507812 A 0.44999999 0.44999999 0 0 0 13.458984 2.5507812 L 10.541016 2.5507812 A 0.44999999 0.44999999 0 0 0 10.5 2.5488281 z M 7 3.4492188 L 9.8242188 3.4492188 L 7.6992188 8.5507812 L 2.515625 8.5507812 C 2.5671012 8.3812537 2.6485605 8.2185005 2.7597656 8.0703125 L 5.7578125 4.0722656 C 6.0506151 3.6803344 6.5107727 3.4492787 7 3.4492188 z M 10.800781 3.4492188 L 13.199219 3.4492188 L 15.324219 8.5507812 L 8.6757812 8.5507812 L 10.800781 3.4492188 z M 14.175781 3.4492188 L 17 3.4492188 C 17.488268 3.4492187 17.947273 3.6796977 18.240234 4.0703125 L 21.240234 8.0703125 C 21.351355 8.2185174 21.432885 8.3812691 21.484375 8.5507812 L 16.300781 8.5507812 L 14.175781 3.4492188 z M 2.515625 9.4492188 L 7.6679688 9.4492188 L 11.347656 21.412109 C 11.116718 21.303648 10.907692 21.134343 10.742188 20.904297 A 0.45004499 0.45004499 0 0 0 10.740234 20.902344 L 2.75 9.9179688 A 0.45004499 0.45004499 0 0 0 2.75 9.9160156 C 2.6440892 9.771371 2.5655985 9.6134214 2.515625 9.4492188 z M 8.609375 9.4492188 L 15.390625 9.4492188 L 12 20.470703 L 8.609375 9.4492188 z M 16.332031 9.4492188 L 21.484375 9.4492188 C 21.434417 9.6134347 21.355983 9.7713879 21.25 9.9160156 A 0.45004499 0.45004499 0 0 0 21.25 9.9179688 L 13.259766 20.902344 A 0.45004499 0.45004499 0 0 0 13.257812 20.904297 C 13.092334 21.134307 12.883239 21.303646 12.652344 21.412109 L 16.332031 9.4492188 z " />
</svg>
