<?xml version="1.0" encoding="UTF-8" standalone="no"?>
<svg
   width="24"
   height="24"
   viewBox="0 0 24 24"
   fill="none"
   stroke="currentColor"
   stroke-width="0.9"
   stroke-linecap="round"
   stroke-linejoin="round"
   version="1.1"
   id="svg2"
   sodipodi:docname=".tmp_git-commit-horizontal.svg"
   xmlns:inkscape="http://www.inkscape.org/namespaces/inkscape"
   xmlns:sodipodi="http://sodipodi.sourceforge.net/DTD/sodipodi-0.dtd"
   xmlns="http://www.w3.org/2000/svg"
   xmlns:svg="http://www.w3.org/2000/svg">
  <defs
     id="defs2" />
  <sodipodi:namedview
     id="namedview2"
     pagecolor="#ffffff"
     bordercolor="#000000"
     borderopacity="0.25"
     inkscape:showpageshadow="2"
     inkscape:pageopacity="0.0"
     inkscape:pagecheckerboard="0"
     inkscape:deskcolor="#d1d1d1" />
  <path
     id="circle1"
     style="baseline-shift:baseline;display:inline;overflow:visible;vector-effect:none;fill:#000000;stroke:none;stroke-linecap:butt;stroke-linejoin:miter;enable-background:accumulate;stop-color:#000000;stop-opacity:1;opacity:1"
     d="M 12 8.5507812 C 10.252144 8.5507812 8.8013061 9.861708 8.5800781 11.550781 L 3 11.550781 A 0.44999999 0.44999999 0 0 0 2.5507812 12 A 0.44999999 0.44999999 0 0 0 3 12.449219 L 8.5800781 12.449219 C 8.8013061 14.138292 10.252144 15.449219 12 15.449219 C 13.747856 15.449219 15.198694 14.138292 15.419922 12.449219 L 21 12.449219 A 0.44999999 0.44999999 0 0 0 21.449219 12 A 0.44999999 0.44999999 0 0 0 21 11.550781 L 15.419922 11.550781 C 15.198694 9.861708 13.747856 8.5507812 12 8.5507812 z M 12 9.4492188 C 13.413656 9.4492188 14.550781 10.586344 14.550781 12 C 14.550781 13.413656 13.413656 14.550781 12 14.550781 C 10.586344 14.550781 9.4492186 13.413656 9.4492188 12 C 9.4492188 10.586344 10.586344 9.4492186 12 9.4492188 z " />
</svg>
