<?xml version="1.0" encoding="UTF-8" standalone="no"?>
<svg
   width="24"
   height="24"
   viewBox="0 0 24 24"
   fill="none"
   stroke="currentColor"
   stroke-width="0.9"
   stroke-linecap="round"
   stroke-linejoin="round"
   version="1.1"
   id="svg1"
   sodipodi:docname=".tmp_gitlab.svg"
   xmlns:inkscape="http://www.inkscape.org/namespaces/inkscape"
   xmlns:sodipodi="http://sodipodi.sourceforge.net/DTD/sodipodi-0.dtd"
   xmlns="http://www.w3.org/2000/svg"
   xmlns:svg="http://www.w3.org/2000/svg">
  <defs
     id="defs1" />
  <sodipodi:namedview
     id="namedview1"
     pagecolor="#ffffff"
     bordercolor="#000000"
     borderopacity="0.25"
     inkscape:showpageshadow="2"
     inkscape:pageopacity="0.0"
     inkscape:pagecheckerboard="0"
     inkscape:deskcolor="#d1d1d1" />
  <path
     id="path1"
     style="baseline-shift:baseline;display:inline;overflow:visible;vector-effect:none;fill:#000000;stroke:none;stroke-linecap:butt;stroke-linejoin:miter;enable-background:accumulate;stop-color:#000000;stop-opacity:1;opacity:1"
     d="M 18.318359 2.5507812 C 18.141531 2.5476213 17.967351 2.6000343 17.822266 2.7011719 A 0.45004499 0.45004499 0 0 0 17.8125 2.7070312 C 17.683321 2.8021773 17.583858 2.9314535 17.523438 3.0800781 A 0.45004499 0.45004499 0 0 0 17.513672 3.1054688 L 15.357422 9.4707031 L 8.6445312 9.4707031 L 6.5351562 3.1445312 C 6.4981214 3.0049995 6.4270297 2.8766439 6.328125 2.7714844 A 0.45004499 0.45004499 0 0 0 6.2773438 2.7265625 C 6.1217128 2.6046372 5.9256065 2.5483204 5.7285156 2.5566406 C 5.5589335 2.5578197 5.3913313 2.6040131 5.2519531 2.7011719 A 0.45004499 0.45004499 0 0 0 5.2421875 2.7070312 C 5.1130131 2.8021763 5.0135453 2.9314535 4.953125 3.0800781 A 0.45004499 0.45004499 0 0 0 4.9433594 3.1074219 L 1.5742188 13.146484 A 0.45004499 0.45004499 0 0 0 1.5722656 13.150391 C 1.4118449 13.640659 1.5876956 14.182321 2.0058594 14.484375 A 0.45004499 0.45004499 0 0 0 2.0097656 14.488281 L 11.740234 21.367188 A 0.45004499 0.45004499 0 0 0 12.259766 21.367188 L 21.921875 14.505859 C 22.384471 14.228839 22.59547 13.662836 22.427734 13.150391 A 0.45004499 0.45004499 0 0 0 22.427734 13.148438 L 19.097656 3.1484375 A 0.45004499 0.45004499 0 0 0 19.085938 3.1210938 C 19.030673 2.9851464 18.935861 2.8715274 18.822266 2.7792969 C 18.696629 2.661744 18.54214 2.5777584 18.371094 2.5546875 A 0.45004499 0.45004499 0 0 0 18.318359 2.5507812 z M 5.734375 3.5820312 L 7.8925781 10.0625 A 0.45004499 0.45004499 0 0 0 8.3203125 10.369141 L 15.679688 10.369141 A 0.45004499 0.45004499 0 0 0 16.105469 10.064453 L 18.296875 3.5957031 L 21.572266 13.431641 C 21.609656 13.548806 21.564666 13.671065 21.458984 13.734375 A 0.45004499 0.45004499 0 0 0 21.429688 13.753906 L 12 20.449219 L 2.5332031 13.755859 L 2.5332031 13.753906 C 2.430701 13.678852 2.3881553 13.550646 2.4277344 13.429688 L 5.734375 3.5820312 z " />
</svg>
