<?xml version="1.0" encoding="UTF-8" standalone="no"?>
<svg
   width="24"
   height="24"
   viewBox="0 0 24 24"
   fill="none"
   stroke="currentColor"
   stroke-width="0.9"
   stroke-linecap="round"
   stroke-linejoin="round"
   version="1.1"
   id="svg3"
   sodipodi:docname=".tmp_globe-lock.svg"
   xmlns:inkscape="http://www.inkscape.org/namespaces/inkscape"
   xmlns:sodipodi="http://sodipodi.sourceforge.net/DTD/sodipodi-0.dtd"
   xmlns="http://www.w3.org/2000/svg"
   xmlns:svg="http://www.w3.org/2000/svg">
  <defs
     id="defs3" />
  <sodipodi:namedview
     id="namedview3"
     pagecolor="#ffffff"
     bordercolor="#000000"
     borderopacity="0.25"
     inkscape:showpageshadow="2"
     inkscape:pageopacity="0.0"
     inkscape:pagecheckerboard="0"
     inkscape:deskcolor="#d1d1d1" />
  <path
     id="path1"
     style="baseline-shift:baseline;display:inline;overflow:visible;vector-effect:none;fill:#000000;stroke:none;stroke-linecap:butt;stroke-linejoin:miter;enable-background:accumulate;stop-color:#000000;stop-opacity:1;opacity:1"
     d="M 12 1.5507812 C 5.9088232 1.5523731 1.6726208 6.5248621 1.5703125 11.871094 A 0.44999999 0.44999999 0 0 0 1.5507812 12 A 0.44999999 0.44999999 0 0 0 1.5683594 12.123047 C 1.5794762 14.18636 2.189959 16.292359 3.578125 18.183594 C 8.6269642 25.062121 19.410808 23.274714 21.970703 15.134766 A 0.44999999 0.44999999 0 0 0 21.677734 14.570312 A 0.44999999 0.44999999 0 0 0 21.113281 14.865234 C 19.862239 18.843296 16.503266 21.104967 12.9375 21.460938 C 14.471612 19.603876 15.626498 17.460569 16.126953 15.09375 A 0.44999999 0.44999999 0 0 0 15.779297 14.560547 A 0.44999999 0.44999999 0 0 0 15.246094 14.90625 C 14.744478 17.27856 13.585938 19.441686 11.986328 21.255859 C 9.7611786 18.728146 8.5885771 15.602483 8.4765625 12.449219 L 10.5 12.449219 A 0.44999999 0.44999999 0 0 0 10.949219 12 A 0.44999999 0.44999999 0 0 0 10.5 11.550781 L 8.4726562 11.550781 C 8.567218 8.2162035 9.8492502 4.9113146 12.326172 2.3105469 A 0.45004499 0.45004499 0 0 0 12 1.5507812 z M 18 1.5507812 C 17.4 1.5507812 16.793954 1.7482566 16.326172 2.1640625 C 15.85839 2.5798684 15.550781 3.2208336 15.550781 4 L 15.550781 5.5507812 L 15 5.5507812 C 14.204484 5.5507812 13.550781 6.2044838 13.550781 7 L 13.550781 10 C 13.550781 10.795516 14.204484 11.449219 15 11.449219 L 21 11.449219 C 21.795516 11.449219 22.449219 10.795516 22.449219 10 L 22.449219 7 C 22.449219 6.2044838 21.795516 5.5507812 21 5.5507812 L 20.449219 5.5507812 L 20.449219 4 C 20.449219 3.2208336 20.14161 2.5798684 19.673828 2.1640625 C 19.206046 1.7482566 18.6 1.5507813 18 1.5507812 z M 18 2.4492188 C 18.4 2.4492188 18.793954 2.585077 19.076172 2.8359375 C 19.35839 3.086798 19.550781 3.4458337 19.550781 4 L 19.550781 5.5507812 L 16.449219 5.5507812 L 16.449219 4 C 16.449219 3.4458337 16.64161 3.086798 16.923828 2.8359375 C 17.206046 2.585077 17.6 2.4492188 18 2.4492188 z M 10.964844 2.5957031 C 8.8311116 5.2133761 7.715959 8.3699902 7.6191406 11.550781 L 2.4453125 11.550781 C 2.6849956 7.1349958 6.0652142 3.1192164 10.964844 2.5957031 z M 15 6.4492188 L 16 6.4492188 L 20 6.4492188 L 21 6.4492188 C 21.312484 6.4492188 21.550781 6.6875162 21.550781 7 L 21.550781 10 C 21.550781 10.312484 21.312484 10.550781 21 10.550781 L 15 10.550781 C 14.687516 10.550781 14.449219 10.312484 14.449219 10 L 14.449219 7 C 14.449219 6.6875162 14.687516 6.4492188 15 6.4492188 z M 2.4414062 12.449219 L 7.6191406 12.449219 C 7.7155963 15.679344 8.8620424 18.884432 11.060547 21.525391 C 8.5256683 21.283042 6.0507384 20.029207 4.3046875 17.650391 C 3.1045533 16.01533 2.5173537 14.217212 2.4414062 12.449219 z " />
</svg>
