<?xml version="1.0" encoding="UTF-8" standalone="no"?>
<svg
   width="24"
   height="24"
   viewBox="0 0 24 24"
   fill="none"
   stroke="currentColor"
   stroke-width="0.9"
   stroke-linecap="round"
   stroke-linejoin="round"
   version="1.1"
   id="svg8"
   sodipodi:docname=".tmp_grape.svg"
   xmlns:inkscape="http://www.inkscape.org/namespaces/inkscape"
   xmlns:sodipodi="http://sodipodi.sourceforge.net/DTD/sodipodi-0.dtd"
   xmlns="http://www.w3.org/2000/svg"
   xmlns:svg="http://www.w3.org/2000/svg">
  <defs
     id="defs8" />
  <sodipodi:namedview
     id="namedview8"
     pagecolor="#ffffff"
     bordercolor="#000000"
     borderopacity="0.25"
     inkscape:showpageshadow="2"
     inkscape:pageopacity="0.0"
     inkscape:pagecheckerboard="0"
     inkscape:deskcolor="#d1d1d1" />
  <path
     id="path1"
     style="baseline-shift:baseline;display:inline;overflow:visible;vector-effect:none;fill:#000000;stroke:none;stroke-linecap:butt;stroke-linejoin:miter;enable-background:accumulate;stop-color:#000000;stop-opacity:1;opacity:1"
     d="M 22.019531 1.5507812 A 0.45004499 0.45004499 0 0 0 21.681641 1.6816406 L 17.355469 6.0078125 C 17.357845 5.9554755 17.359375 5.9025133 17.359375 5.8496094 C 17.359375 3.9495571 15.810209 2.4003906 13.910156 2.4003906 C 12.308237 2.4003906 10.955311 3.5021172 10.570312 4.9863281 C 9.9432518 4.3472891 9.0712321 3.9492187 8.109375 3.9492188 C 6.2093227 3.9492188 4.6601562 5.5003383 4.6601562 7.4003906 C 4.6601562 8.3619508 5.0571141 9.2328508 5.6953125 9.859375 C 4.2114017 10.24488 3.109375 11.597823 3.109375 13.199219 C 3.109375 14.160055 3.5066826 15.031288 4.1445312 15.658203 C 2.6564142 16.040503 1.5507813 17.3953 1.5507812 19 C 1.5507812 20.900052 3.0999477 22.449219 5 22.449219 C 6.6047001 22.449219 7.9594968 21.343586 8.3417969 19.855469 C 8.9687121 20.493318 9.8399447 20.890625 10.800781 20.890625 C 12.402177 20.890625 13.75512 19.788598 14.140625 18.304688 C 14.767149 18.942886 15.638049 19.339844 16.599609 19.339844 C 18.499662 19.339844 20.050781 17.790677 20.050781 15.890625 C 20.050781 14.928768 19.65271 14.056748 19.013672 13.429688 C 20.497882 13.044689 21.599609 11.691763 21.599609 10.089844 C 21.599609 8.1897913 20.050443 6.640625 18.150391 6.640625 C 18.097487 6.640625 18.044525 6.6421551 17.992188 6.6445312 L 21.550781 3.0859375 L 21.550781 5 A 0.44999999 0.44999999 0 0 0 22 5.4492188 A 0.44999999 0.44999999 0 0 0 22.449219 5 L 22.449219 2 A 0.45004499 0.45004499 0 0 0 22.019531 1.5507812 z M 13.910156 3.3007812 C 15.323812 3.3007812 16.460938 4.4359532 16.460938 5.8496094 C 16.460938 6.5060623 16.214781 7.1017154 15.810547 7.5527344 L 15.791016 7.5722656 A 0.44999999 0.44999999 0 0 0 15.761719 7.6035156 C 15.718318 7.6451659 15.675957 7.6885824 15.634766 7.7324219 C 15.181324 8.1481183 14.576974 8.4003906 13.910156 8.4003906 C 12.4965 8.4003906 11.359375 7.2632656 11.359375 5.8496094 C 11.359375 4.4359532 12.4965 3.3007813 13.910156 3.3007812 z M 8.109375 4.8496094 C 9.5230312 4.8496094 10.660156 5.9867344 10.660156 7.4003906 C 10.660156 8.8140468 9.5230312 9.9492187 8.109375 9.9492188 C 6.6957188 9.9492188 5.5605469 8.8140468 5.5605469 7.4003906 C 5.5605469 5.9867344 6.6957188 4.8496094 8.109375 4.8496094 z M 18.150391 7.5390625 C 19.564047 7.5390625 20.699219 8.6761872 20.699219 10.089844 C 20.699219 11.5035 19.564047 12.640625 18.150391 12.640625 C 16.736734 12.640625 15.599609 11.5035 15.599609 10.089844 C 15.599609 9.4230289 15.851886 8.8186751 16.267578 8.3652344 C 16.311421 8.324041 16.354831 8.2816849 16.396484 8.2382812 A 0.44999999 0.44999999 0 0 0 16.427734 8.2089844 L 16.480469 8.1582031 C 16.927336 7.7716088 17.510098 7.5390625 18.150391 7.5390625 z M 11.451172 8.265625 C 11.465159 8.2798833 11.477957 8.2926247 11.492188 8.3066406 C 11.472819 8.3116266 11.454784 8.3169516 11.435547 8.3222656 C 11.440905 8.3030442 11.446142 8.2849784 11.451172 8.265625 z M 12.349609 9.0996094 C 13.763266 9.0996094 14.900391 10.236734 14.900391 11.650391 C 14.900391 13.064047 13.763266 14.199219 12.349609 14.199219 C 10.935953 14.199219 9.8007811 13.064047 9.8007812 11.650391 C 9.8007812 10.236734 10.935953 9.0996094 12.349609 9.0996094 z M 14.822266 9.1777344 C 14.817306 9.1957497 14.811312 9.2142914 14.806641 9.2324219 C 14.79349 9.2190578 14.780942 9.2065099 14.767578 9.1933594 C 14.785709 9.1886877 14.80425 9.1826936 14.822266 9.1777344 z M 6.5605469 10.650391 C 7.6938751 10.650391 8.6484964 11.380662 8.9824219 12.398438 C 9.0032314 12.492056 9.0283587 12.583208 9.0566406 12.673828 C 9.0917238 12.843128 9.109375 13.019105 9.109375 13.199219 C 9.109375 14.612875 7.9742031 15.75 6.5605469 15.75 C 5.1468907 15.75 4.0097656 14.612875 4.0097656 13.199219 C 4.0097656 11.785563 5.1468907 10.650391 6.5605469 10.650391 z M 9.0273438 10.724609 C 9.0225625 10.741741 9.0162401 10.760108 9.0117188 10.777344 C 8.9992173 10.76469 8.987303 10.752696 8.9746094 10.740234 C 8.9919109 10.73574 9.0101472 10.729366 9.0273438 10.724609 z M 15.693359 12.507812 C 15.707375 12.522043 15.720117 12.534841 15.734375 12.548828 C 15.715022 12.553858 15.696956 12.559095 15.677734 12.564453 C 15.683048 12.545216 15.688373 12.527181 15.693359 12.507812 z M 16.599609 13.339844 C 18.013266 13.339844 19.150391 14.476969 19.150391 15.890625 C 19.150391 17.304281 18.013266 18.439453 16.599609 18.439453 C 15.185953 18.439453 14.050781 17.304281 14.050781 15.890625 C 14.050781 14.476969 15.185953 13.339844 16.599609 13.339844 z M 9.8984375 14.072266 C 9.9083614 14.082311 9.9176891 14.091639 9.9277344 14.101562 C 9.9140432 14.105154 9.900344 14.109526 9.8867188 14.113281 C 9.8904744 14.099656 9.894846 14.085957 9.8984375 14.072266 z M 10.800781 14.890625 C 10.980896 14.890625 11.156871 14.908276 11.326172 14.943359 C 11.41679 14.97164 11.507946 14.996769 11.601562 15.017578 C 12.61934 15.351503 13.349609 16.306124 13.349609 17.439453 C 13.349609 18.853109 12.214437 19.990234 10.800781 19.990234 C 9.3871253 19.990234 8.25 18.853109 8.25 17.439453 C 8.25 16.769324 8.5063991 16.162698 8.9257812 15.708984 C 8.9743199 15.663154 9.0205756 15.614946 9.0664062 15.566406 C 9.520795 15.146394 10.129672 14.890625 10.800781 14.890625 z M 13.275391 14.972656 C 13.270634 14.989853 13.26426 15.008089 13.259766 15.025391 C 13.247304 15.012697 13.235311 15.000783 13.222656 14.988281 C 13.239892 14.98376 13.258259 14.977438 13.275391 14.972656 z M 5 16.449219 C 6.4136562 16.449219 7.5507812 17.586344 7.5507812 19 C 7.5507812 20.413656 6.4136562 21.550781 5 21.550781 C 3.5863438 21.550781 2.4492188 20.413656 2.4492188 19 C 2.4492188 17.586344 3.5863438 16.449219 5 16.449219 z M 7.4726562 16.527344 C 7.4675547 16.545876 7.4618284 16.56533 7.4570312 16.583984 C 7.4435011 16.570228 7.4297723 16.556499 7.4160156 16.542969 C 7.4346696 16.538172 7.4541241 16.532445 7.4726562 16.527344 z " />
</svg>
