<?xml version="1.0" encoding="UTF-8" standalone="no"?>
<svg
   width="24"
   height="24"
   viewBox="0 0 24 24"
   fill="none"
   stroke="currentColor"
   stroke-width="0.9"
   stroke-linecap="round"
   stroke-linejoin="round"
   version="1.1"
   id="svg4"
   sodipodi:docname=".tmp_guitar.svg"
   xmlns:inkscape="http://www.inkscape.org/namespaces/inkscape"
   xmlns:sodipodi="http://sodipodi.sourceforge.net/DTD/sodipodi-0.dtd"
   xmlns="http://www.w3.org/2000/svg"
   xmlns:svg="http://www.w3.org/2000/svg">
  <defs
     id="defs4" />
  <sodipodi:namedview
     id="namedview4"
     pagecolor="#ffffff"
     bordercolor="#000000"
     borderopacity="0.25"
     inkscape:showpageshadow="2"
     inkscape:pageopacity="0.0"
     inkscape:pagecheckerboard="0"
     inkscape:deskcolor="#d1d1d1" />
  <path
     id="path1"
     style="baseline-shift:baseline;display:inline;overflow:visible;vector-effect:none;fill:#000000;stroke:none;stroke-linecap:butt;stroke-linejoin:miter;enable-background:accumulate;stop-color:#000000;stop-opacity:1;opacity:1"
     d="M 19.400391 1.5664062 C 19.032953 1.5664064 18.66489 1.7039389 18.384766 1.9785156 A 0.45004499 0.45004499 0 0 0 18.380859 1.9824219 L 17.267578 3.0957031 C 16.808204 3.5549381 16.55092 4.1785705 16.550781 4.828125 L 16.550781 6.171875 C 16.550693 6.5829463 16.386324 6.9768739 16.095703 7.2675781 L 14.519531 8.84375 C 13.569303 8.0378318 12.340592 7.5507812 11 7.5507812 C 9.6071233 7.5511667 8.3483892 8.3912594 7.8144531 9.6777344 L 7.4335938 10.597656 L 7.4355469 10.597656 C 7.193784 11.177218 6.6279661 11.552089 6 11.550781 C 3.547663 11.550781 1.5507812 13.547663 1.5507812 16 C 1.5507813 19.556907 4.4430935 22.449219 8 22.449219 C 10.452337 22.449219 12.449219 20.452337 12.449219 18 C 12.447919 17.372034 12.822782 16.806219 13.402344 16.564453 L 13.402344 16.566406 L 14.322266 16.185547 C 15.608741 15.651564 16.448833 14.392877 16.449219 13 C 16.449219 11.659408 15.962168 10.430697 15.15625 9.4804688 L 16.732422 7.9042969 C 17.023126 7.6136759 17.417053 7.4493066 17.828125 7.4492188 L 19.171875 7.4492188 C 19.821429 7.4490801 20.445062 7.1917956 20.904297 6.7324219 L 22.017578 5.6191406 A 0.45004499 0.45004499 0 0 0 22.021484 5.6152344 C 22.570638 5.0549859 22.570638 4.146186 22.021484 3.5859375 A 0.45004499 0.45004499 0 0 0 22.017578 3.5820312 L 20.417969 1.9824219 A 0.45004499 0.45004499 0 0 0 20.414062 1.9785156 C 20.133932 1.7039426 19.767828 1.5664063 19.400391 1.5664062 z M 19.398438 2.4628906 C 19.536036 2.4630255 19.674463 2.5153376 19.783203 2.6210938 L 21.378906 4.2167969 C 21.590419 4.4342779 21.591498 4.7674884 21.378906 4.984375 L 20.267578 6.0957031 C 19.976842 6.3865269 19.5831 6.5506934 19.171875 6.5507812 L 17.828125 6.5507812 C 17.58572 6.550833 17.409581 6.7493606 17.181641 6.8183594 C 17.250641 6.5904189 17.449167 6.4142802 17.449219 6.171875 L 17.449219 4.828125 C 17.449307 4.4169002 17.613473 4.0231578 17.904297 3.7324219 L 19.015625 2.6210938 C 19.124068 2.514798 19.260839 2.4627557 19.398438 2.4628906 z M 11 8.4492188 C 12.096531 8.4492188 13.10012 8.8354592 13.884766 9.4785156 L 11.582031 11.78125 A 0.44999999 0.44999999 0 0 0 11.582031 12.417969 A 0.44999999 0.44999999 0 0 0 12.21875 12.417969 L 14.521484 10.115234 C 15.164541 10.89988 15.550781 11.903469 15.550781 13 C 15.550496 14.031756 14.929502 14.958009 13.976562 15.353516 L 13.058594 15.734375 A 0.45004499 0.45004499 0 0 0 13.056641 15.734375 C 12.143678 16.11524 11.548721 17.010738 11.550781 18 C 11.550781 19.965941 9.965941 21.550781 8 21.550781 C 4.9294895 21.550781 2.4492188 19.07051 2.4492188 16 C 2.4492188 14.034059 4.034059 12.449219 6 12.449219 C 6.9892623 12.451319 7.8847603 11.856369 8.265625 10.943359 A 0.45004499 0.45004499 0 0 0 8.265625 10.941406 L 8.6464844 10.023438 C 9.0419908 9.0704968 9.9682441 8.4495043 11 8.4492188 z M 6 15.548828 A 0.44999999 0.44999999 0 0 0 5.6816406 15.681641 A 0.44999999 0.44999999 0 0 0 5.6816406 16.318359 L 7.6816406 18.318359 A 0.44999999 0.44999999 0 0 0 8.3183594 18.318359 A 0.44999999 0.44999999 0 0 0 8.3183594 17.681641 L 6.3183594 15.681641 A 0.44999999 0.44999999 0 0 0 6 15.548828 z " />
</svg>
