<?xml version="1.0" encoding="UTF-8" standalone="no"?>
<svg
   width="24"
   height="24"
   viewBox="0 0 24 24"
   fill="none"
   stroke="currentColor"
   stroke-width="0.9"
   stroke-linecap="round"
   stroke-linejoin="round"
   version="1.1"
   id="svg4"
   sodipodi:docname=".tmp_hamburger.svg"
   xmlns:inkscape="http://www.inkscape.org/namespaces/inkscape"
   xmlns:sodipodi="http://sodipodi.sourceforge.net/DTD/sodipodi-0.dtd"
   xmlns="http://www.w3.org/2000/svg"
   xmlns:svg="http://www.w3.org/2000/svg">
  <defs
     id="defs4" />
  <sodipodi:namedview
     id="namedview4"
     pagecolor="#ffffff"
     bordercolor="#000000"
     borderopacity="0.25"
     inkscape:showpageshadow="2"
     inkscape:pageopacity="0.0"
     inkscape:pagecheckerboard="0"
     inkscape:deskcolor="#d1d1d1" />
  <path
     id="path1"
     style="baseline-shift:baseline;display:inline;overflow:visible;vector-effect:none;fill:#000000;stroke:none;stroke-linecap:butt;stroke-linejoin:miter;enable-background:accumulate;stop-color:#000000;stop-opacity:1;opacity:1"
     d="M 12 2.5507812 C 9.4201418 2.5507812 7.0756134 3.3604616 5.359375 4.6953125 C 3.6431366 6.0301634 2.5507812 7.9106606 2.5507812 10 C 2.5507812 10.642032 2.8015295 11.228214 3.2089844 11.666016 C 2.784792 11.796023 2.4284956 12.028684 2.1640625 12.326172 C 1.7482566 12.793954 1.5507813 13.4 1.5507812 14 C 1.5507812 14.6 1.7482566 15.206046 2.1640625 15.673828 C 2.4284956 15.971316 2.784792 16.203977 3.2089844 16.333984 C 2.8015295 16.771786 2.5507812 17.357968 2.5507812 18 C 2.5507812 19.900052 4.0999477 21.449219 6 21.449219 L 18 21.449219 C 19.900052 21.449219 21.449219 19.900052 21.449219 18 C 21.449219 17.357967 21.198471 16.771786 20.791016 16.333984 C 21.215208 16.203977 21.571505 15.971315 21.835938 15.673828 C 22.251743 15.206046 22.449219 14.6 22.449219 14 C 22.449219 13.4 22.251744 12.793954 21.835938 12.326172 C 21.571505 12.028685 21.215208 11.796023 20.791016 11.666016 C 21.198471 11.228214 21.449219 10.642033 21.449219 10 C 21.449219 7.9106606 20.356863 6.0301634 18.640625 4.6953125 C 16.924387 3.3604616 14.579858 2.5507811 12 2.5507812 z M 12 3.4492188 C 14.390704 3.4492187 16.54677 4.2076014 18.087891 5.40625 C 19.629012 6.6048986 20.550781 8.2233436 20.550781 10 C 20.550781 10.861371 19.861371 11.550781 19 11.550781 L 18.744141 11.550781 L 6.6640625 11.550781 L 5 11.550781 C 4.1386285 11.550781 3.4492188 10.861371 3.4492188 10 C 3.4492188 8.2233436 4.3709885 6.6048986 5.9121094 5.40625 C 7.4532303 4.2076014 9.6092955 3.4492187 12 3.4492188 z M 4 12.449219 L 6.5195312 12.449219 L 10.652344 15.550781 L 4 15.550781 C 3.4458337 15.550781 3.086798 15.35839 2.8359375 15.076172 C 2.585077 14.793954 2.4492188 14.4 2.4492188 14 C 2.4492188 13.6 2.585077 13.206046 2.8359375 12.923828 C 3.086798 12.64161 3.4458337 12.449219 4 12.449219 z M 8.0175781 12.449219 L 17.851562 12.449219 L 15.240234 15.929688 C 14.723412 16.618785 13.759409 16.757057 13.070312 16.240234 L 8.0175781 12.449219 z M 18.974609 12.449219 L 20 12.449219 C 20.554166 12.449219 20.913202 12.64161 21.164062 12.923828 C 21.414924 13.206046 21.550781 13.6 21.550781 14 C 21.550781 14.4 21.414924 14.793954 21.164062 15.076172 C 20.913202 15.35839 20.554166 15.550781 20 15.550781 L 16.650391 15.550781 L 18.974609 12.449219 z M 5 16.449219 L 11.849609 16.449219 L 12.529297 16.958984 A 0.45004499 0.45004499 0 0 0 12.529297 16.960938 C 13.607511 17.769599 15.152277 17.548917 15.960938 16.470703 L 15.976562 16.449219 L 19 16.449219 C 19.861371 16.449219 20.550781 17.138629 20.550781 18 C 20.550781 19.413656 19.413656 20.550781 18 20.550781 L 6 20.550781 C 4.5863438 20.550781 3.4492187 19.413656 3.4492188 18 C 3.4492188 17.138629 4.1386285 16.449219 5 16.449219 z " />
</svg>
