<?xml version="1.0" encoding="UTF-8" standalone="no"?>
<svg
   width="24"
   height="24"
   viewBox="0 0 24 24"
   fill="none"
   stroke="currentColor"
   stroke-width="0.9"
   stroke-linecap="round"
   stroke-linejoin="round"
   version="1.1"
   id="svg3"
   sodipodi:docname=".tmp_hammer.svg"
   xmlns:inkscape="http://www.inkscape.org/namespaces/inkscape"
   xmlns:sodipodi="http://sodipodi.sourceforge.net/DTD/sodipodi-0.dtd"
   xmlns="http://www.w3.org/2000/svg"
   xmlns:svg="http://www.w3.org/2000/svg">
  <defs
     id="defs3" />
  <sodipodi:namedview
     id="namedview3"
     pagecolor="#ffffff"
     bordercolor="#000000"
     borderopacity="0.25"
     inkscape:showpageshadow="2"
     inkscape:pageopacity="0.0"
     inkscape:pagecheckerboard="0"
     inkscape:deskcolor="#d1d1d1" />
  <path
     id="path1"
     style="baseline-shift:baseline;display:inline;overflow:visible;vector-effect:none;fill:#000000;stroke:none;stroke-linecap:butt;stroke-linejoin:miter;enable-background:accumulate;stop-color:#000000;stop-opacity:1;opacity:1"
     d="M 9 2.5507812 A 0.45004499 0.45004499 0 0 0 8.6816406 3.3183594 L 9.9238281 4.5605469 C 10.96451 5.6014051 11.550712 7.0125038 11.550781 8.484375 L 11.550781 8.8125 L 2.3085938 18.054688 C 1.7290577 18.634418 1.4828302 19.338885 1.5214844 19.994141 C 1.5601384 20.649396 1.8627463 21.245707 2.3085938 21.691406 C 2.7544411 22.137105 3.3505908 22.44008 4.0058594 22.478516 C 4.6611279 22.516946 5.3657764 22.271135 5.9453125 21.691406 L 15.1875 12.449219 C 15.593093 12.453384 15.980507 12.617139 16.267578 12.904297 L 17.863281 14.5 L 17.681641 14.681641 A 0.44999999 0.44999999 0 0 0 17.681641 15.318359 A 0.44999999 0.44999999 0 0 0 18.318359 15.318359 L 18.818359 14.818359 L 21.818359 11.818359 L 22.318359 11.318359 A 0.44999999 0.44999999 0 0 0 22.318359 10.681641 A 0.44999999 0.44999999 0 0 0 21.681641 10.681641 L 21.5 10.863281 L 19.904297 9.2675781 C 19.613473 8.9768422 19.449307 8.5830998 19.449219 8.171875 L 19.449219 7.828125 C 19.44908 7.1785705 19.191796 6.5549381 18.732422 6.0957031 L 17.076172 4.4394531 A 0.45004499 0.45004499 0 0 0 17.074219 4.4394531 C 15.865147 3.2305392 14.225432 2.5511464 12.515625 2.5507812 L 9 2.5507812 z M 10.085938 3.4492188 L 12.515625 3.4492188 C 13.987175 3.449533 15.398822 4.0357166 16.439453 5.0761719 L 18.095703 6.7324219 C 18.386527 7.0231578 18.550693 7.4169002 18.550781 7.828125 L 18.550781 8.171875 C 18.55092 8.8214295 18.808204 9.4450619 19.267578 9.9042969 L 20.863281 11.5 L 18.5 13.863281 L 16.904297 12.267578 C 16.445062 11.808204 15.821429 11.55092 15.171875 11.550781 L 15.03125 11.550781 L 14.96875 11.550781 L 14.185547 11.550781 L 12.449219 9.8144531 L 12.449219 9.03125 A 0.44999999 0.44999999 0 0 0 12.449219 8.96875 L 12.449219 8.484375 C 12.449139 6.7741955 11.769724 5.1351632 10.560547 3.9257812 A 0.45004499 0.45004499 0 0 0 10.560547 3.9238281 L 10.085938 3.4492188 z M 11.556641 10.080078 A 0.45004499 0.45004499 0 0 0 11.681641 10.318359 L 13.681641 12.318359 A 0.45004499 0.45004499 0 0 0 13.919922 12.443359 L 5.3085938 21.054688 C 4.8881303 21.475292 4.4660126 21.603976 4.0585938 21.580078 C 3.6511751 21.55618 3.2497151 21.35899 2.9453125 21.054688 C 2.6409099 20.750386 2.4439554 20.348817 2.4199219 19.941406 C 2.3958879 19.533996 2.5228959 19.11201 2.9433594 18.691406 L 11.556641 10.080078 z " />
</svg>
