<?xml version="1.0" encoding="UTF-8" standalone="no"?>
<svg
   width="24"
   height="24"
   viewBox="0 0 24 24"
   fill="none"
   stroke="currentColor"
   stroke-width="0.9"
   stroke-linecap="round"
   stroke-linejoin="round"
   version="1.1"
   id="svg5"
   sodipodi:docname=".tmp_handshake.svg"
   xmlns:inkscape="http://www.inkscape.org/namespaces/inkscape"
   xmlns:sodipodi="http://sodipodi.sourceforge.net/DTD/sodipodi-0.dtd"
   xmlns="http://www.w3.org/2000/svg"
   xmlns:svg="http://www.w3.org/2000/svg">
  <defs
     id="defs5" />
  <sodipodi:namedview
     id="namedview5"
     pagecolor="#ffffff"
     bordercolor="#000000"
     borderopacity="0.25"
     inkscape:showpageshadow="2"
     inkscape:pageopacity="0.0"
     inkscape:pagecheckerboard="0"
     inkscape:deskcolor="#d1d1d1" />
  <path
     id="path1"
     style="baseline-shift:baseline;display:inline;overflow:visible;vector-effect:none;fill:#000000;stroke:none;stroke-linecap:butt;stroke-linejoin:miter;enable-background:accumulate;stop-color:#000000;stop-opacity:1;opacity:1"
     d="M 2.9824219 2.5507812 A 0.44999999 0.44999999 0 0 0 2.5527344 2.9589844 L 1.5527344 13.958984 A 0.45004499 0.45004499 0 0 0 1.6816406 14.318359 L 8.1816406 20.818359 C 8.76119 21.397909 9.4659199 21.644009 10.121094 21.605469 C 10.776267 21.566929 11.372649 21.26407 11.818359 20.818359 C 12.23856 20.398159 12.531219 19.843468 12.595703 19.232422 L 12.681641 19.318359 C 13.26119 19.897909 13.96592 20.144009 14.621094 20.105469 C 15.276267 20.066929 15.872649 19.76407 16.318359 19.318359 C 16.76407 18.872649 17.066929 18.276267 17.105469 17.621094 C 17.109035 17.560475 17.110721 17.498829 17.109375 17.4375 C 17.444351 17.570746 17.788817 17.625015 18.121094 17.605469 C 18.776267 17.566929 19.372649 17.26407 19.818359 16.818359 C 20.26407 16.372649 20.566929 15.776267 20.605469 15.121094 C 20.618443 14.900529 20.598328 14.674349 20.544922 14.449219 L 22 14.449219 A 0.45004499 0.45004499 0 0 0 22.447266 13.958984 L 21.447266 2.9589844 A 0.44999999 0.44999999 0 0 0 20.958984 2.5527344 A 0.44999999 0.44999999 0 0 0 20.552734 3.0410156 L 20.605469 3.6210938 L 19.173828 3.9082031 C 18.79554 3.9827181 18.402359 3.9140731 18.072266 3.7148438 A 0.45004499 0.45004499 0 0 0 18.070312 3.7128906 L 17.601562 3.4335938 L 17.599609 3.4335938 C 16.375141 2.7019326 14.977493 2.4321926 13.634766 2.5976562 C 12.708651 2.7117808 11.808762 3.0323551 11.007812 3.5507812 A 0.44999999 0.44999999 0 0 0 11 3.5507812 L 3.4003906 3.5507812 L 3.4472656 3.0410156 A 0.44999999 0.44999999 0 0 0 3.0410156 2.5527344 A 0.44999999 0.44999999 0 0 0 2.9824219 2.5507812 z M 14.177734 3.453125 C 15.190417 3.4115125 16.219837 3.6576698 17.138672 4.2070312 A 0.45004499 0.45004499 0 0 0 17.140625 4.2070312 L 17.607422 4.484375 C 18.128903 4.7991186 18.750038 4.9087347 19.347656 4.7910156 A 0.45004499 0.45004499 0 0 0 19.349609 4.7910156 L 20.6875 4.5214844 L 21.507812 13.550781 L 20.132812 13.550781 C 20.041872 13.423508 19.936684 13.299965 19.818359 13.181641 L 15.9375 9.3027344 A 0.45004499 0.45004499 0 0 0 15.9375 9.3007812 C 14.594296 7.9592477 12.405704 7.9592477 11.0625 9.3007812 A 0.45004499 0.45004499 0 0 0 11.0625 9.3027344 L 10.181641 10.181641 C 9.76119 10.602091 9.3409199 10.730992 8.9335938 10.707031 C 8.5262676 10.683071 8.1226487 10.48593 7.8183594 10.181641 C 7.51407 9.8773509 7.3169293 9.4737324 7.2929688 9.0664062 C 7.2690084 8.6590801 7.3979091 8.2388096 7.8183594 7.8183594 L 10.626953 5.0078125 C 11.601494 4.0358203 12.875714 3.5066268 14.177734 3.453125 z M 3.3183594 4.4492188 L 9.9140625 4.4492188 L 7.1816406 7.1816406 C 6.6020913 7.76119 6.3559915 8.4659201 6.3945312 9.1210938 C 6.433071 9.7762673 6.73593 10.372649 7.1816406 10.818359 C 7.6273513 11.26407 8.2237326 11.566929 8.8789062 11.605469 C 9.5340798 11.644009 10.23881 11.397909 10.818359 10.818359 L 11.697266 9.9375 C 12.696602 8.9394065 14.303398 8.9394065 15.302734 9.9375 L 19.181641 13.818359 C 19.602091 14.23881 19.730992 14.65908 19.707031 15.066406 C 19.683071 15.473732 19.48593 15.877351 19.181641 16.181641 C 18.877351 16.48593 18.473732 16.683071 18.066406 16.707031 C 17.65908 16.730991 17.23881 16.602091 16.818359 16.181641 L 14.318359 13.681641 A 0.44999999 0.44999999 0 0 0 13.681641 13.681641 A 0.44999999 0.44999999 0 0 0 13.681641 14.318359 L 15.681641 16.318359 C 16.102091 16.73881 16.230992 17.15908 16.207031 17.566406 C 16.183071 17.973732 15.98593 18.377351 15.681641 18.681641 C 15.377351 18.98593 14.973732 19.183071 14.566406 19.207031 C 14.15908 19.230991 13.73881 19.102091 13.318359 18.681641 L 11.318359 16.681641 A 0.44999999 0.44999999 0 0 0 10.681641 16.681641 A 0.44999999 0.44999999 0 0 0 10.681641 17.318359 L 11.181641 17.818359 C 11.602091 18.23881 11.730992 18.65908 11.707031 19.066406 C 11.683071 19.473732 11.48593 19.877351 11.181641 20.181641 C 10.877351 20.48593 10.473732 20.683071 10.066406 20.707031 C 9.6590803 20.730991 9.2388096 20.602091 8.8183594 20.181641 L 2.4667969 13.830078 L 3.3183594 4.4492188 z " />
</svg>
