<?xml version="1.0" encoding="UTF-8" standalone="no"?>
<svg
   width="24"
   height="24"
   viewBox="0 0 24 24"
   fill="none"
   stroke="currentColor"
   stroke-width="0.9"
   stroke-linecap="round"
   stroke-linejoin="round"
   version="1.1"
   id="svg4"
   sodipodi:docname=".tmp_hand-heart.svg"
   xmlns:inkscape="http://www.inkscape.org/namespaces/inkscape"
   xmlns:sodipodi="http://sodipodi.sourceforge.net/DTD/sodipodi-0.dtd"
   xmlns="http://www.w3.org/2000/svg"
   xmlns:svg="http://www.w3.org/2000/svg">
  <defs
     id="defs4" />
  <sodipodi:namedview
     id="namedview4"
     pagecolor="#ffffff"
     bordercolor="#000000"
     borderopacity="0.25"
     inkscape:showpageshadow="2"
     inkscape:pageopacity="0.0"
     inkscape:pagecheckerboard="0"
     inkscape:deskcolor="#d1d1d1" />
  <path
     id="path1"
     style="baseline-shift:baseline;display:inline;overflow:visible;vector-effect:none;fill:#000000;stroke:none;stroke-linecap:butt;stroke-linejoin:miter;enable-background:accumulate;stop-color:#000000;stop-opacity:1;opacity:1"
     d="M 13.96875 2.5546875 C 13.5013 2.524708 13.034696 2.5973472 12.605469 2.7617188 C 11.460863 3.2000427 10.550455 4.303499 10.550781 5.75 C 10.550781 7.1505 11.446259 8.2782904 12.181641 9.0136719 A 0.45004499 0.45004499 0 0 0 12.193359 9.0253906 L 12.757812 9.5507812 L 10 9.5507812 C 9.3163444 9.5507812 8.6726317 9.7842265 8.2695312 10.292969 L 3.0058594 15.369141 L 2.3183594 14.681641 A 0.44999999 0.44999999 0 0 0 1.6816406 14.681641 A 0.44999999 0.44999999 0 0 0 1.6816406 15.318359 L 2.6757812 16.3125 A 0.44999999 0.44999999 0 0 0 2.6875 16.324219 L 6.6621094 20.296875 A 0.44999999 0.44999999 0 0 0 6.703125 20.337891 L 7.6816406 21.318359 A 0.44999999 0.44999999 0 0 0 8.3183594 21.318359 A 0.44999999 0.44999999 0 0 0 8.3183594 20.681641 L 7.6582031 20.021484 L 8.8964844 18.939453 A 0.45004499 0.45004499 0 0 0 8.9609375 18.869141 C 9.160138 18.603536 9.5 18.449219 10 18.449219 L 14 18.449219 C 15.195442 18.449219 16.321619 18.008552 17.111328 17.125 L 17.121094 17.115234 L 21.708984 12.726562 C 22.27575 12.190959 22.530816 11.52645 22.511719 10.900391 C 22.492619 10.274331 22.219075 9.6981491 21.806641 9.2617188 C 21.415485 8.847806 20.891888 8.5505501 20.306641 8.4746094 C 20.903629 7.7473333 21.449219 6.7871928 21.449219 5.75 C 21.449545 4.303499 20.539137 3.2000428 19.394531 2.7617188 C 18.294758 2.340563 16.960901 2.5652973 16 3.5351562 C 15.539135 3.0699949 15.004924 2.7417898 14.435547 2.6191406 C 14.281104 2.5858722 14.124567 2.5646807 13.96875 2.5546875 z M 18.09375 3.4433594 C 18.426546 3.4251349 18.759939 3.4819576 19.072266 3.6015625 C 19.905138 3.9205089 20.551024 4.6737047 20.550781 5.75 C 20.550781 6.6307273 19.824912 7.7336813 19.181641 8.3769531 L 16 11.335938 L 12.818359 8.3769531 C 12.157741 7.7163346 11.449219 6.7495 11.449219 5.75 C 11.448976 4.6737047 12.094862 3.9205089 12.927734 3.6015625 C 13.34417 3.4420893 13.798589 3.3955545 14.238281 3.4882812 C 14.677974 3.5810083 15.103529 3.812313 15.462891 4.2128906 A 0.45004499 0.45004499 0 0 0 15.466797 4.21875 C 15.749714 4.5258832 16.250286 4.5258832 16.533203 4.21875 A 0.45004499 0.45004499 0 0 0 16.537109 4.2128906 C 16.986311 3.7121687 17.53909 3.4737336 18.09375 3.4433594 z M 15.871094 3.6074219 L 15.873047 3.6074219 L 15.875 3.6074219 L 15.875 3.609375 L 15.873047 3.609375 L 15.871094 3.6113281 L 15.869141 3.6113281 L 15.871094 3.6074219 z M 16.125 3.6074219 L 16.126953 3.6074219 L 16.128906 3.6074219 L 16.128906 3.609375 L 16.126953 3.609375 L 16.125 3.609375 L 16.125 3.6074219 z M 19.988281 9.3554688 C 20.035833 9.3549468 20.083779 9.357221 20.130859 9.3613281 C 20.507504 9.3941861 20.877278 9.5878367 21.152344 9.8789062 C 21.427409 10.169976 21.599801 10.549836 21.611328 10.927734 C 21.622858 11.305633 21.495031 11.691202 21.091797 12.072266 A 0.45004499 0.45004499 0 0 0 21.089844 12.074219 L 16.488281 16.474609 A 0.45004499 0.45004499 0 0 0 16.460938 16.503906 C 15.851888 17.199961 14.990909 17.550781 14 17.550781 L 10 17.550781 C 9.3187532 17.550781 8.6768104 17.782091 8.2734375 18.287109 L 7.0214844 19.384766 L 3.6425781 16.005859 L 8.9121094 10.923828 A 0.45004499 0.45004499 0 0 0 8.9609375 10.869141 C 9.1601376 10.603544 9.5 10.449219 10 10.449219 L 13 10.449219 C 13.554166 10.449219 13.913202 10.64161 14.164062 10.923828 C 14.414922 11.206046 14.550781 11.6 14.550781 12 C 14.550781 12.343279 14.448656 12.683602 14.261719 12.951172 L 14.144531 13.060547 A 0.44999999 0.44999999 0 0 0 14.044922 13.195312 C 13.802326 13.410969 13.47186 13.550781 13 13.550781 L 11 13.550781 A 0.44999999 0.44999999 0 0 0 10.550781 14 A 0.44999999 0.44999999 0 0 0 11 14.449219 L 13 14.449219 C 13.779166 14.449219 14.420132 14.14161 14.835938 13.673828 C 14.872725 13.632442 14.909975 13.588373 14.943359 13.544922 L 16.330078 12.255859 L 18.919922 9.8496094 A 0.44999999 0.44999999 0 0 0 18.958984 9.8164062 C 19.311815 9.4829759 19.655416 9.3591227 19.988281 9.3554688 z " />
</svg>
