<?xml version="1.0" encoding="UTF-8" standalone="no"?>
<svg
   width="24"
   height="24"
   viewBox="0 0 24 24"
   fill="none"
   stroke="currentColor"
   stroke-width="0.9"
   stroke-linecap="round"
   stroke-linejoin="round"
   version="1.1"
   id="svg4"
   sodipodi:docname=".tmp_hard-drive-upload.svg"
   xmlns:inkscape="http://www.inkscape.org/namespaces/inkscape"
   xmlns:sodipodi="http://sodipodi.sourceforge.net/DTD/sodipodi-0.dtd"
   xmlns="http://www.w3.org/2000/svg"
   xmlns:svg="http://www.w3.org/2000/svg">
  <defs
     id="defs4" />
  <sodipodi:namedview
     id="namedview4"
     pagecolor="#ffffff"
     bordercolor="#000000"
     borderopacity="0.25"
     inkscape:showpageshadow="2"
     inkscape:pageopacity="0.0"
     inkscape:pagecheckerboard="0"
     inkscape:deskcolor="#d1d1d1" />
  <path
     id="path1"
     style="baseline-shift:baseline;display:inline;overflow:visible;vector-effect:none;fill:#000000;stroke:none;stroke-linecap:butt;stroke-linejoin:miter;enable-background:accumulate;stop-color:#000000;stop-opacity:1;opacity:1"
     d="M 12 1.5488281 A 0.45004499 0.45004499 0 0 0 11.681641 1.6816406 L 7.6816406 5.6816406 A 0.44999999 0.44999999 0 0 0 7.6816406 6.3183594 A 0.44999999 0.44999999 0 0 0 8.3183594 6.3183594 L 11.550781 3.0859375 L 11.550781 10 A 0.44999999 0.44999999 0 0 0 12 10.449219 A 0.44999999 0.44999999 0 0 0 12.449219 10 L 12.449219 3.0859375 L 15.681641 6.3183594 A 0.44999999 0.44999999 0 0 0 16.318359 6.3183594 A 0.44999999 0.44999999 0 0 0 16.318359 5.6816406 L 12.318359 1.6816406 A 0.45004499 0.45004499 0 0 0 12 1.5488281 z M 4 13.550781 C 2.6504838 13.550781 1.5507813 14.650484 1.5507812 16 L 1.5507812 20 C 1.5507812 21.349516 2.6504838 22.449219 4 22.449219 L 20 22.449219 C 21.349516 22.449219 22.449219 21.349516 22.449219 20 L 22.449219 16 C 22.449219 14.650484 21.349516 13.550781 20 13.550781 L 4 13.550781 z M 4 14.449219 L 20 14.449219 C 20.866484 14.449219 21.550781 15.133516 21.550781 16 L 21.550781 20 C 21.550781 20.866484 20.866484 21.550781 20 21.550781 L 4 21.550781 C 3.1335162 21.550781 2.4492188 20.866484 2.4492188 20 L 2.4492188 16 C 2.4492188 15.133516 3.1335162 14.449219 4 14.449219 z M 6 17.550781 A 0.44999999 0.44999999 0 0 0 5.5507812 18 A 0.44999999 0.44999999 0 0 0 6 18.449219 L 6.0097656 18.449219 A 0.44999999 0.44999999 0 0 0 6.4609375 18 A 0.44999999 0.44999999 0 0 0 6.0097656 17.550781 L 6 17.550781 z M 10 17.550781 A 0.44999999 0.44999999 0 0 0 9.5507812 18 A 0.44999999 0.44999999 0 0 0 10 18.449219 L 10.009766 18.449219 A 0.44999999 0.44999999 0 0 0 10.460938 18 A 0.44999999 0.44999999 0 0 0 10.009766 17.550781 L 10 17.550781 z " />
</svg>
