<?xml version="1.0" encoding="UTF-8" standalone="no"?>
<svg
   width="24"
   height="24"
   viewBox="0 0 24 24"
   fill="none"
   stroke="currentColor"
   stroke-width="0.9"
   stroke-linecap="round"
   stroke-linejoin="round"
   version="1.1"
   id="svg2"
   sodipodi:docname=".tmp_hdmi-port.svg"
   xmlns:inkscape="http://www.inkscape.org/namespaces/inkscape"
   xmlns:sodipodi="http://sodipodi.sourceforge.net/DTD/sodipodi-0.dtd"
   xmlns="http://www.w3.org/2000/svg"
   xmlns:svg="http://www.w3.org/2000/svg">
  <defs
     id="defs2" />
  <sodipodi:namedview
     id="namedview2"
     pagecolor="#ffffff"
     bordercolor="#000000"
     borderopacity="0.25"
     inkscape:showpageshadow="2"
     inkscape:pageopacity="0.0"
     inkscape:pagecheckerboard="0"
     inkscape:deskcolor="#d1d1d1" />
  <path
     id="path1"
     style="baseline-shift:baseline;display:inline;overflow:visible;vector-effect:none;fill:#000000;stroke:none;stroke-linecap:butt;stroke-linejoin:miter;enable-background:accumulate;stop-color:#000000;stop-opacity:1;opacity:1"
     d="M 3 7.5507812 C 2.2045172 7.5507812 1.5507813 8.2045172 1.5507812 9 L 1.5507812 13 C 1.5507812 13.795483 2.2045172 14.449219 3 14.449219 L 3.8144531 14.449219 L 5.6816406 16.318359 A 0.45004499 0.45004499 0 0 0 6 16.449219 L 18 16.449219 A 0.45004499 0.45004499 0 0 0 18.318359 16.318359 L 20.185547 14.449219 L 21 14.449219 C 21.795483 14.449219 22.449219 13.795483 22.449219 13 L 22.449219 9 C 22.449219 8.2045172 21.795483 7.5507814 21 7.5507812 L 3 7.5507812 z M 3 8.4492188 L 21 8.4492188 C 21.309087 8.4492188 21.550781 8.6909133 21.550781 9 L 21.550781 13 C 21.550781 13.309087 21.309087 13.550781 21 13.550781 L 20 13.550781 A 0.45004499 0.45004499 0 0 0 19.681641 13.681641 L 17.814453 15.550781 L 6.1855469 15.550781 L 4.3183594 13.681641 A 0.45004499 0.45004499 0 0 0 4 13.550781 L 3 13.550781 C 2.6909133 13.550781 2.4492187 13.309087 2.4492188 13 L 2.4492188 9 C 2.4492188 8.6909133 2.6909133 8.4492188 3 8.4492188 z M 7.5 11.550781 A 0.44999999 0.44999999 0 0 0 7.0507812 12 A 0.44999999 0.44999999 0 0 0 7.5 12.449219 L 16.5 12.449219 A 0.44999999 0.44999999 0 0 0 16.949219 12 A 0.44999999 0.44999999 0 0 0 16.5 11.550781 L 7.5 11.550781 z " />
</svg>
