<?xml version="1.0" encoding="UTF-8" standalone="no"?>
<svg
   width="24"
   height="24"
   viewBox="0 0 24 24"
   fill="none"
   stroke="currentColor"
   stroke-width="0.9"
   stroke-linecap="round"
   stroke-linejoin="round"
   version="1.1"
   id="svg2"
   sodipodi:docname=".tmp_iteration-cw.svg"
   xmlns:inkscape="http://www.inkscape.org/namespaces/inkscape"
   xmlns:sodipodi="http://sodipodi.sourceforge.net/DTD/sodipodi-0.dtd"
   xmlns="http://www.w3.org/2000/svg"
   xmlns:svg="http://www.w3.org/2000/svg">
  <defs
     id="defs2" />
  <sodipodi:namedview
     id="namedview2"
     pagecolor="#ffffff"
     bordercolor="#000000"
     borderopacity="0.25"
     inkscape:showpageshadow="2"
     inkscape:pageopacity="0.0"
     inkscape:pagecheckerboard="0"
     inkscape:deskcolor="#d1d1d1" />
  <path
     id="path1"
     style="baseline-shift:baseline;display:inline;overflow:visible;vector-effect:none;fill:#000000;stroke:none;stroke-linecap:butt;stroke-linejoin:miter;enable-background:accumulate;stop-color:#000000;stop-opacity:1;opacity:1"
     d="M 11.96875 1.5371094 C 11.667548 1.5399353 11.368073 1.5592064 11.070312 1.59375 C 10.276283 1.6858662 9.4995292 1.8894059 8.765625 2.1933594 C 5.8300082 3.4091734 3.5507812 6.2547895 3.5507812 10 A 0.44999999 0.44999999 0 0 0 4 10.449219 A 0.44999999 0.44999999 0 0 0 4.4492188 10 C 4.4492188 6.617476 6.4785261 4.115791 9.1113281 3.0253906 C 11.74413 1.9349902 14.946395 2.2706138 17.337891 4.6621094 C 19.729386 7.0536049 20.06501 10.25587 18.974609 12.888672 C 17.884209 15.521474 15.382524 17.550781 12 17.550781 L 5.0859375 17.550781 L 8.3183594 14.318359 A 0.44999999 0.44999999 0 0 0 8.3183594 13.681641 A 0.44999999 0.44999999 0 0 0 7.6816406 13.681641 L 3.6816406 17.681641 A 0.45004499 0.45004499 0 0 0 3.6816406 18.318359 L 7.6816406 22.318359 A 0.44999999 0.44999999 0 0 0 8.3183594 22.318359 A 0.44999999 0.44999999 0 0 0 8.3183594 21.681641 L 5.0859375 18.449219 L 12 18.449219 C 15.74521 18.449219 18.590827 16.169992 19.806641 13.234375 C 21.022455 10.298758 20.622572 6.6733535 17.974609 4.0253906 C 16.236884 2.2876649 14.077165 1.5173279 11.96875 1.5371094 z " />
</svg>
