<?xml version="1.0" encoding="UTF-8" standalone="no"?>
<svg
   width="24"
   height="24"
   viewBox="0 0 24 24"
   fill="none"
   stroke="currentColor"
   stroke-width="0.9"
   stroke-linecap="round"
   stroke-linejoin="round"
   version="1.1"
   id="svg3"
   sodipodi:docname=".tmp_lamp-wall-up.svg"
   xmlns:inkscape="http://www.inkscape.org/namespaces/inkscape"
   xmlns:sodipodi="http://sodipodi.sourceforge.net/DTD/sodipodi-0.dtd"
   xmlns="http://www.w3.org/2000/svg"
   xmlns:svg="http://www.w3.org/2000/svg">
  <defs
     id="defs3" />
  <sodipodi:namedview
     id="namedview3"
     pagecolor="#ffffff"
     bordercolor="#000000"
     borderopacity="0.25"
     inkscape:showpageshadow="2"
     inkscape:pageopacity="0.0"
     inkscape:pagecheckerboard="0"
     inkscape:deskcolor="#d1d1d1" />
  <path
     id="path1"
     style="baseline-shift:baseline;display:inline;overflow:visible;vector-effect:none;fill:#000000;stroke:none;stroke-linecap:butt;stroke-linejoin:miter;enable-background:accumulate;stop-color:#000000;stop-opacity:1;opacity:1"
     d="M 11 3.5507812 C 10.408559 3.5511555 9.8737213 3.9136591 9.6542969 4.4628906 L 7.6542969 9.4609375 A 0.45004499 0.45004499 0 0 0 7.6542969 9.4628906 C 7.2796434 10.400671 7.9901532 11.44858 9 11.449219 L 13.550781 11.449219 L 13.550781 16 C 13.550781 16.861371 12.861371 17.550781 12 17.550781 L 8.4492188 17.550781 L 8.4492188 17 C 8.4492188 15.652232 7.3477675 14.550781 6 14.550781 L 5 14.550781 C 4.2045172 14.550781 3.5507813 15.204517 3.5507812 16 L 3.5507812 20 C 3.5507812 20.795483 4.2045172 21.449219 5 21.449219 L 6 21.449219 C 7.3477675 21.449219 8.4492188 20.347768 8.4492188 19 L 8.4492188 18.449219 L 12 18.449219 C 13.347768 18.449219 14.449219 17.347768 14.449219 16 L 14.449219 11.449219 L 19 11.449219 C 20.010428 11.44959 20.722525 10.401207 20.347656 9.4628906 A 0.45004499 0.45004499 0 0 0 20.347656 9.4609375 L 18.345703 4.4628906 C 18.126279 3.9136591 17.591441 3.5511555 17 3.5507812 L 11 3.5507812 z M 11 4.4492188 L 17 4.4492188 C 17.226214 4.449362 17.42584 4.5868055 17.509766 4.796875 L 19.511719 9.796875 C 19.661772 10.172466 19.404455 10.55093 19 10.550781 L 14 10.550781 L 9 10.550781 C 8.5958176 10.550525 8.3402826 10.172212 8.4902344 9.796875 L 10.490234 4.796875 C 10.57416 4.5868055 10.773786 4.4493619 11 4.4492188 z M 5 15.449219 L 6 15.449219 C 6.8613715 15.449219 7.5507812 16.138629 7.5507812 17 L 7.5507812 18 L 7.5507812 19 C 7.5507812 19.861371 6.8613715 20.550781 6 20.550781 L 5 20.550781 C 4.6909133 20.550781 4.4492187 20.309087 4.4492188 20 L 4.4492188 16 C 4.4492188 15.690913 4.6909133 15.449219 5 15.449219 z " />
</svg>
