<?xml version="1.0" encoding="UTF-8" standalone="no"?>
<svg
   width="24"
   height="24"
   viewBox="0 0 24 24"
   fill="none"
   stroke="currentColor"
   stroke-width="0.9"
   stroke-linecap="round"
   stroke-linejoin="round"
   version="1.1"
   id="svg4"
   sodipodi:docname=".tmp_life-buoy.svg"
   xmlns:inkscape="http://www.inkscape.org/namespaces/inkscape"
   xmlns:sodipodi="http://sodipodi.sourceforge.net/DTD/sodipodi-0.dtd"
   xmlns="http://www.w3.org/2000/svg"
   xmlns:svg="http://www.w3.org/2000/svg">
  <defs
     id="defs4" />
  <sodipodi:namedview
     id="namedview4"
     pagecolor="#ffffff"
     bordercolor="#000000"
     borderopacity="0.25"
     inkscape:showpageshadow="2"
     inkscape:pageopacity="0.0"
     inkscape:pagecheckerboard="0"
     inkscape:deskcolor="#d1d1d1" />
  <path
     id="circle1"
     style="baseline-shift:baseline;display:inline;overflow:visible;vector-effect:none;fill:#000000;stroke:none;stroke-linecap:butt;stroke-linejoin:miter;enable-background:accumulate;stop-color:#000000;stop-opacity:1;opacity:1"
     d="M 12 1.5507812 C 9.1345887 1.5507812 6.5371669 2.7068995 4.6484375 4.578125 A 0.44999999 0.44999999 0 0 0 4.6113281 4.6113281 A 0.44999999 0.44999999 0 0 0 4.578125 4.6484375 C 2.7068995 6.5371669 1.5507812 9.1345887 1.5507812 12 C 1.5507812 14.865412 2.7068991 17.462833 4.578125 19.351562 A 0.44999999 0.44999999 0 0 0 4.6113281 19.388672 A 0.44999999 0.44999999 0 0 0 4.6484375 19.421875 C 6.537167 21.293101 9.1345882 22.449219 12 22.449219 C 14.865412 22.449219 17.462833 21.293101 19.351562 19.421875 A 0.44999999 0.44999999 0 0 0 19.388672 19.388672 A 0.44999999 0.44999999 0 0 0 19.421875 19.351562 C 21.293101 17.462833 22.449219 14.865412 22.449219 12 C 22.449219 9.1345882 21.293101 6.537167 19.421875 4.6484375 A 0.44999999 0.44999999 0 0 0 19.388672 4.6113281 A 0.44999999 0.44999999 0 0 0 19.351562 4.578125 C 17.462833 2.7068991 14.865412 1.5507812 12 1.5507812 z M 12 2.4492188 C 14.477635 2.4492188 16.733432 3.3895631 18.429688 4.9335938 L 14.810547 8.5527344 C 14.043768 7.9263406 13.064457 7.5507812 12 7.5507812 C 10.935543 7.5507812 9.9562316 7.9263406 9.1894531 8.5527344 L 5.5703125 4.9335938 C 7.2665677 3.3895631 9.5223646 2.4492187 12 2.4492188 z M 4.9335938 5.5703125 L 8.5527344 9.1894531 C 7.9263406 9.9562316 7.5507812 10.935543 7.5507812 12 C 7.5507812 13.064457 7.9263406 14.043768 8.5527344 14.810547 L 4.9335938 18.429688 C 3.3895631 16.733432 2.4492188 14.477635 2.4492188 12 C 2.4492188 9.5223646 3.3895631 7.2665677 4.9335938 5.5703125 z M 19.066406 5.5703125 C 20.610437 7.2665676 21.550781 9.5223647 21.550781 12 C 21.550781 14.477635 20.610437 16.733432 19.066406 18.429688 L 15.447266 14.810547 C 16.073659 14.043768 16.449219 13.064457 16.449219 12 C 16.449219 10.935544 16.073659 9.9562316 15.447266 9.1894531 L 19.066406 5.5703125 z M 12 8.4492188 C 12.971397 8.4492188 13.850142 8.8361884 14.490234 9.4648438 C 14.497861 9.4723336 14.50416 9.480723 14.511719 9.4882812 A 0.44999999 0.44999999 0 0 0 14.535156 9.5097656 C 15.163811 10.149858 15.550781 11.028603 15.550781 12 C 15.550781 12.971398 15.163813 13.850142 14.535156 14.490234 C 14.527667 14.49786 14.519276 14.504161 14.511719 14.511719 A 0.44999999 0.44999999 0 0 0 14.490234 14.535156 C 13.850142 15.163813 12.971398 15.550781 12 15.550781 C 11.028603 15.550781 10.149858 15.163811 9.5097656 14.535156 A 0.44999999 0.44999999 0 0 0 9.4882812 14.511719 C 9.480723 14.50416 9.4723336 14.497861 9.4648438 14.490234 C 8.8361884 13.850142 8.4492187 12.971397 8.4492188 12 C 8.4492188 11.028604 8.8361899 10.149858 9.4648438 9.5097656 A 0.44999999 0.44999999 0 0 0 9.4882812 9.4882812 C 9.4958403 9.4807222 9.5021387 9.4723344 9.5097656 9.4648438 C 10.149858 8.8361899 11.028604 8.4492187 12 8.4492188 z M 9.1894531 15.447266 C 9.9562316 16.073659 10.935544 16.449219 12 16.449219 C 13.064457 16.449219 14.043768 16.073659 14.810547 15.447266 L 18.429688 19.066406 C 16.733432 20.610437 14.477635 21.550781 12 21.550781 C 9.5223647 21.550781 7.2665676 20.610437 5.5703125 19.066406 L 9.1894531 15.447266 z " />
</svg>
