<?xml version="1.0" encoding="UTF-8" standalone="no"?>
<svg
   width="24"
   height="24"
   viewBox="0 0 24 24"
   fill="none"
   stroke="currentColor"
   stroke-width="0.9"
   stroke-linecap="round"
   stroke-linejoin="round"
   version="1.1"
   id="svg4"
   sodipodi:docname=".tmp_list-todo.svg"
   xmlns:inkscape="http://www.inkscape.org/namespaces/inkscape"
   xmlns:sodipodi="http://sodipodi.sourceforge.net/DTD/sodipodi-0.dtd"
   xmlns="http://www.w3.org/2000/svg"
   xmlns:svg="http://www.w3.org/2000/svg">
  <defs
     id="defs4" />
  <sodipodi:namedview
     id="namedview4"
     pagecolor="#ffffff"
     bordercolor="#000000"
     borderopacity="0.25"
     inkscape:showpageshadow="2"
     inkscape:pageopacity="0.0"
     inkscape:pagecheckerboard="0"
     inkscape:deskcolor="#d1d1d1" />
  <path
     id="path1"
     style="baseline-shift:baseline;display:inline;overflow:visible;vector-effect:none;fill:#000000;stroke:none;stroke-linecap:butt;stroke-linejoin:miter;enable-background:accumulate;stop-color:#000000;stop-opacity:1;opacity:1"
     d="M 4 3.5507812 C 3.2044838 3.5507812 2.5507813 4.2044838 2.5507812 5 L 2.5507812 9 C 2.5507812 9.7955162 3.2044838 10.449219 4 10.449219 L 8 10.449219 C 8.7955162 10.449219 9.4492188 9.7955162 9.4492188 9 L 9.4492188 5 C 9.4492188 4.2044838 8.7955162 3.5507813 8 3.5507812 L 4 3.5507812 z M 4 4.4492188 L 8 4.4492188 C 8.3124838 4.4492188 8.5507812 4.6875162 8.5507812 5 L 8.5507812 9 C 8.5507812 9.3124838 8.3124838 9.5507812 8 9.5507812 L 4 9.5507812 C 3.6875162 9.5507812 3.4492188 9.3124838 3.4492188 9 L 3.4492188 5 C 3.4492188 4.6875162 3.6875162 4.4492187 4 4.4492188 z M 13 4.5507812 A 0.44999999 0.44999999 0 0 0 12.550781 5 A 0.44999999 0.44999999 0 0 0 13 5.4492188 L 21 5.4492188 A 0.44999999 0.44999999 0 0 0 21.449219 5 A 0.44999999 0.44999999 0 0 0 21 4.5507812 L 13 4.5507812 z M 13 11.550781 A 0.44999999 0.44999999 0 0 0 12.550781 12 A 0.44999999 0.44999999 0 0 0 13 12.449219 L 21 12.449219 A 0.44999999 0.44999999 0 0 0 21.449219 12 A 0.44999999 0.44999999 0 0 0 21 11.550781 L 13 11.550781 z M 9 14.548828 A 0.44999999 0.44999999 0 0 0 8.6816406 14.681641 L 5 18.363281 L 3.3183594 16.681641 A 0.44999999 0.44999999 0 0 0 2.6816406 16.681641 A 0.44999999 0.44999999 0 0 0 2.6816406 17.318359 L 4.6816406 19.318359 A 0.45004499 0.45004499 0 0 0 5.3183594 19.318359 L 9.3183594 15.318359 A 0.44999999 0.44999999 0 0 0 9.3183594 14.681641 A 0.44999999 0.44999999 0 0 0 9 14.548828 z M 13 18.550781 A 0.44999999 0.44999999 0 0 0 12.550781 19 A 0.44999999 0.44999999 0 0 0 13 19.449219 L 21 19.449219 A 0.44999999 0.44999999 0 0 0 21.449219 19 A 0.44999999 0.44999999 0 0 0 21 18.550781 L 13 18.550781 z " />
</svg>
