<?xml version="1.0" encoding="UTF-8" standalone="no"?>
<svg
   width="24"
   height="24"
   viewBox="0 0 24 24"
   fill="none"
   stroke="currentColor"
   stroke-width="0.9"
   stroke-linecap="round"
   stroke-linejoin="round"
   version="1.1"
   id="svg4"
   sodipodi:docname=".tmp_list-music.svg"
   xmlns:inkscape="http://www.inkscape.org/namespaces/inkscape"
   xmlns:sodipodi="http://sodipodi.sourceforge.net/DTD/sodipodi-0.dtd"
   xmlns="http://www.w3.org/2000/svg"
   xmlns:svg="http://www.w3.org/2000/svg">
  <defs
     id="defs4" />
  <sodipodi:namedview
     id="namedview4"
     pagecolor="#ffffff"
     bordercolor="#000000"
     borderopacity="0.25"
     inkscape:showpageshadow="2"
     inkscape:pageopacity="0.0"
     inkscape:pagecheckerboard="0"
     inkscape:deskcolor="#d1d1d1" />
  <path
     id="path1"
     style="baseline-shift:baseline;display:inline;overflow:visible;vector-effect:none;fill:#000000;stroke:none;stroke-linecap:butt;stroke-linejoin:miter;enable-background:accumulate;stop-color:#000000;stop-opacity:1;opacity:1"
     d="M 3 4.5507812 A 0.44999999 0.44999999 0 0 0 2.5507812 5 A 0.44999999 0.44999999 0 0 0 3 5.4492188 L 16 5.4492188 A 0.44999999 0.44999999 0 0 0 16.449219 5 A 0.44999999 0.44999999 0 0 0 16 4.5507812 L 3 4.5507812 z M 21 4.5507812 A 0.44999999 0.44999999 0 0 0 20.550781 5 L 20.550781 13.681641 C 19.919125 12.987303 19.009042 12.550781 18 12.550781 C 16.099948 12.550781 14.550781 14.099948 14.550781 16 C 14.550781 17.900052 16.099948 19.449219 18 19.449219 C 19.880243 19.449219 21.413477 17.931468 21.445312 16.058594 A 0.44999999 0.44999999 0 0 0 21.449219 16 L 21.449219 5 A 0.44999999 0.44999999 0 0 0 21 4.5507812 z M 3 11.550781 A 0.44999999 0.44999999 0 0 0 2.5507812 12 A 0.44999999 0.44999999 0 0 0 3 12.449219 L 11 12.449219 A 0.44999999 0.44999999 0 0 0 11.449219 12 A 0.44999999 0.44999999 0 0 0 11 11.550781 L 3 11.550781 z M 18 13.449219 C 19.413656 13.449219 20.550781 14.586344 20.550781 16 C 20.550781 17.413656 19.413656 18.550781 18 18.550781 C 16.586344 18.550781 15.449219 17.413656 15.449219 16 C 15.449219 14.586344 16.586344 13.449219 18 13.449219 z M 3 18.550781 A 0.44999999 0.44999999 0 0 0 2.5507812 19 A 0.44999999 0.44999999 0 0 0 3 19.449219 L 11 19.449219 A 0.44999999 0.44999999 0 0 0 11.449219 19 A 0.44999999 0.44999999 0 0 0 11 18.550781 L 3 18.550781 z " />
</svg>
