<?xml version="1.0" encoding="UTF-8" standalone="no"?>
<svg
   width="24"
   height="24"
   viewBox="0 0 24 24"
   fill="none"
   stroke="currentColor"
   stroke-width="0.9"
   stroke-linecap="round"
   stroke-linejoin="round"
   version="1.1"
   id="svg5"
   sodipodi:docname=".tmp_list-plus.svg"
   xmlns:inkscape="http://www.inkscape.org/namespaces/inkscape"
   xmlns:sodipodi="http://sodipodi.sourceforge.net/DTD/sodipodi-0.dtd"
   xmlns="http://www.w3.org/2000/svg"
   xmlns:svg="http://www.w3.org/2000/svg">
  <defs
     id="defs5" />
  <sodipodi:namedview
     id="namedview5"
     pagecolor="#ffffff"
     bordercolor="#000000"
     borderopacity="0.25"
     inkscape:showpageshadow="2"
     inkscape:pageopacity="0.0"
     inkscape:pagecheckerboard="0"
     inkscape:deskcolor="#d1d1d1" />
  <path
     id="path1"
     style="baseline-shift:baseline;display:inline;overflow:visible;vector-effect:none;fill:#000000;stroke:none;stroke-linecap:butt;stroke-linejoin:miter;enable-background:accumulate;stop-color:#000000;stop-opacity:1;opacity:1"
     d="M 3 4.5507812 A 0.44999999 0.44999999 0 0 0 2.5507812 5 A 0.44999999 0.44999999 0 0 0 3 5.4492188 L 16 5.4492188 A 0.44999999 0.44999999 0 0 0 16.449219 5 A 0.44999999 0.44999999 0 0 0 16 4.5507812 L 3 4.5507812 z M 18 8.5507812 A 0.44999999 0.44999999 0 0 0 17.550781 9 L 17.550781 11.550781 L 15 11.550781 A 0.44999999 0.44999999 0 0 0 14.550781 12 A 0.44999999 0.44999999 0 0 0 15 12.449219 L 17.550781 12.449219 L 17.550781 15 A 0.44999999 0.44999999 0 0 0 18 15.449219 A 0.44999999 0.44999999 0 0 0 18.449219 15 L 18.449219 12.449219 L 21 12.449219 A 0.44999999 0.44999999 0 0 0 21.449219 12 A 0.44999999 0.44999999 0 0 0 21 11.550781 L 18.449219 11.550781 L 18.449219 9 A 0.44999999 0.44999999 0 0 0 18 8.5507812 z M 3 11.550781 A 0.44999999 0.44999999 0 0 0 2.5507812 12 A 0.44999999 0.44999999 0 0 0 3 12.449219 L 11 12.449219 A 0.44999999 0.44999999 0 0 0 11.449219 12 A 0.44999999 0.44999999 0 0 0 11 11.550781 L 3 11.550781 z M 3 18.550781 A 0.44999999 0.44999999 0 0 0 2.5507812 19 A 0.44999999 0.44999999 0 0 0 3 19.449219 L 16 19.449219 A 0.44999999 0.44999999 0 0 0 16.449219 19 A 0.44999999 0.44999999 0 0 0 16 18.550781 L 3 18.550781 z " />
</svg>
