<?xml version="1.0" encoding="UTF-8" standalone="no"?>
<svg
   width="24"
   height="24"
   viewBox="0 0 24 24"
   fill="none"
   stroke="currentColor"
   stroke-width="0.9"
   stroke-linecap="round"
   stroke-linejoin="round"
   version="1.1"
   id="svg4"
   sodipodi:docname=".tmp_mail-search.svg"
   xmlns:inkscape="http://www.inkscape.org/namespaces/inkscape"
   xmlns:sodipodi="http://sodipodi.sourceforge.net/DTD/sodipodi-0.dtd"
   xmlns="http://www.w3.org/2000/svg"
   xmlns:svg="http://www.w3.org/2000/svg">
  <defs
     id="defs4" />
  <sodipodi:namedview
     id="namedview4"
     pagecolor="#ffffff"
     bordercolor="#000000"
     borderopacity="0.25"
     inkscape:showpageshadow="2"
     inkscape:pageopacity="0.0"
     inkscape:pagecheckerboard="0"
     inkscape:deskcolor="#d1d1d1" />
  <path
     id="path1"
     style="baseline-shift:baseline;display:inline;overflow:visible;vector-effect:none;fill:#000000;stroke:none;stroke-linecap:butt;stroke-linejoin:miter;enable-background:accumulate;stop-color:#000000;stop-opacity:1;opacity:1"
     d="M 4 3.5507812 C 2.6522325 3.5507812 1.5507813 4.6522325 1.5507812 6 L 1.5507812 6.9824219 A 0.44999999 0.44999999 0 0 0 1.5507812 7.0175781 L 1.5507812 18 C 1.5507812 19.345455 2.6545455 20.449219 4 20.449219 L 11.5 20.449219 A 0.44999999 0.44999999 0 0 0 11.949219 20 A 0.44999999 0.44999999 0 0 0 11.5 19.550781 L 4 19.550781 C 3.1454545 19.550781 2.4492187 18.854545 2.4492188 18 L 2.4492188 7.8183594 L 10.728516 13.080078 A 0.45004499 0.45004499 0 0 0 10.730469 13.082031 C 11.505694 13.567729 12.494306 13.567729 13.269531 13.082031 A 0.45004499 0.45004499 0 0 0 13.271484 13.080078 L 21.550781 7.8183594 L 21.550781 12.5 A 0.44999999 0.44999999 0 0 0 22 12.949219 A 0.44999999 0.44999999 0 0 0 22.449219 12.5 L 22.449219 7.0175781 A 0.44999999 0.44999999 0 0 0 22.449219 6.9824219 L 22.449219 6 C 22.449219 4.6522325 21.347768 3.5507812 20 3.5507812 L 4 3.5507812 z M 4 4.4492188 L 20 4.4492188 C 20.861371 4.4492188 21.550781 5.1386285 21.550781 6 L 21.550781 6.7519531 L 12.791016 12.318359 C 12.306335 12.622024 11.693665 12.622024 11.208984 12.318359 L 2.4492188 6.7519531 L 2.4492188 6 C 2.4492188 5.1386285 3.1386285 4.4492188 4 4.4492188 z M 18 14.550781 C 17.881247 14.550781 17.764156 14.556549 17.648438 14.568359 C 16.699948 14.649645 15.93352 15.054281 15.414062 15.638672 C 14.913368 16.201953 14.636493 16.913962 14.568359 17.642578 C 14.568158 17.644515 14.568557 17.648453 14.568359 17.650391 C 14.55771 17.766827 14.550782 17.883256 14.550781 18 C 14.550782 18.116744 14.55771 18.233173 14.568359 18.349609 L 14.568359 18.351562 C 14.568557 18.3535 14.568158 18.355485 14.568359 18.357422 C 14.636493 19.086038 14.913368 19.798047 15.414062 20.361328 C 15.93352 20.945719 16.699948 21.350355 17.648438 21.431641 C 17.764156 21.443451 17.881247 21.449219 18 21.449219 C 18.16739 21.449219 18.331063 21.435337 18.492188 21.412109 C 19.137265 21.332995 19.696037 21.107491 20.140625 20.771484 A 0.44999999 0.44999999 0 0 0 20.181641 20.818359 L 21.681641 22.318359 A 0.44999999 0.44999999 0 0 0 22.318359 22.318359 A 0.44999999 0.44999999 0 0 0 22.318359 21.681641 L 20.818359 20.181641 A 0.44999999 0.44999999 0 0 0 20.767578 20.138672 C 21.132733 19.645694 21.343002 19.062724 21.416016 18.464844 C 21.436732 18.312458 21.449217 18.157922 21.449219 18 C 21.449218 17.883256 21.44229 17.764874 21.431641 17.648438 C 21.431443 17.6465 21.431842 17.644515 21.431641 17.642578 C 21.363507 16.913962 21.086632 16.201953 20.585938 15.638672 C 20.06648 15.054281 19.300052 14.649645 18.351562 14.568359 C 18.235844 14.556549 18.118753 14.550781 18 14.550781 z M 18 15.449219 C 19.413652 15.449219 20.550775 16.586349 20.550781 18 C 20.550775 19.413651 19.413652 20.550781 18 20.550781 C 16.586348 20.550781 15.449225 19.413651 15.449219 18 C 15.449225 16.586349 16.586348 15.449219 18 15.449219 z " />
</svg>
