<?xml version="1.0" encoding="UTF-8" standalone="no"?>
<svg
   width="24"
   height="24"
   viewBox="0 0 24 24"
   fill="none"
   stroke="currentColor"
   stroke-width="0.9"
   stroke-linecap="round"
   stroke-linejoin="round"
   version="1.1"
   id="svg5"
   sodipodi:docname=".tmp_map-pin-off.svg"
   xmlns:inkscape="http://www.inkscape.org/namespaces/inkscape"
   xmlns:sodipodi="http://sodipodi.sourceforge.net/DTD/sodipodi-0.dtd"
   xmlns="http://www.w3.org/2000/svg"
   xmlns:svg="http://www.w3.org/2000/svg">
  <defs
     id="defs5" />
  <sodipodi:namedview
     id="namedview5"
     pagecolor="#ffffff"
     bordercolor="#000000"
     borderopacity="0.25"
     inkscape:showpageshadow="2"
     inkscape:pageopacity="0.0"
     inkscape:pagecheckerboard="0"
     inkscape:deskcolor="#d1d1d1" />
  <path
     id="path1"
     style="baseline-shift:baseline;display:inline;overflow:visible;vector-effect:none;fill:#000000;stroke:none;stroke-linecap:butt;stroke-linejoin:miter;enable-background:accumulate;stop-color:#000000;stop-opacity:1;opacity:1"
     d="M 2 1.5488281 A 0.44999999 0.44999999 0 0 0 1.6816406 1.6816406 A 0.44999999 0.44999999 0 0 0 1.6816406 2.3183594 L 4.8535156 5.4902344 C 4.0030811 6.8379413 3.5506664 8.4011568 3.5507812 10 C 3.5507812 12.662903 4.9972464 15.277069 6.6445312 17.441406 C 8.2918163 19.605744 10.160873 21.323069 11.105469 22.138672 A 0.45004499 0.45004499 0 0 0 11.128906 22.158203 C 11.643438 22.545108 12.356562 22.545108 12.871094 22.158203 A 0.45004499 0.45004499 0 0 0 12.894531 22.138672 C 13.793224 21.362788 15.53003 19.769212 17.115234 17.751953 L 21.681641 22.318359 A 0.44999999 0.44999999 0 0 0 22.318359 22.318359 A 0.44999999 0.44999999 0 0 0 22.318359 21.681641 L 13.177734 12.542969 L 9.4570312 8.8222656 L 5.7558594 5.1191406 A 0.44999999 0.44999999 0 0 0 5.71875 5.0839844 L 2.3183594 1.6816406 A 0.44999999 0.44999999 0 0 0 2 1.5488281 z M 11.478516 1.5585938 C 10.409982 1.6237059 9.3270008 1.8988463 8.2773438 2.4140625 A 0.44999999 0.44999999 0 0 0 8.0703125 3.015625 A 0.44999999 0.44999999 0 0 0 8.6738281 3.2226562 C 13.707167 0.75207963 19.551111 4.3930178 19.550781 10 C 19.550781 11.104386 19.259428 12.238937 18.777344 13.353516 A 0.44999999 0.44999999 0 0 0 19.011719 13.945312 A 0.44999999 0.44999999 0 0 0 19.603516 13.710938 C 20.121432 12.513516 20.449219 11.261614 20.449219 10 C 20.449493 5.3228594 16.75208 1.8480403 12.541016 1.5625 C 12.190094 1.538705 11.834693 1.5368897 11.478516 1.5585938 z M 5.5078125 6.1445312 L 8.6289062 9.265625 C 8.0969942 11.688107 10.311893 13.903006 12.734375 13.371094 L 16.474609 17.111328 C 14.934921 19.087579 13.211225 20.672808 12.324219 21.439453 C 12.129139 21.582661 11.870861 21.582661 11.675781 21.439453 C 10.756602 20.644923 8.9399648 18.973192 7.359375 16.896484 C 5.7721599 14.811072 4.4492187 12.330097 4.4492188 10 C 4.4491211 8.6396008 4.8164964 7.3083688 5.5078125 6.1445312 z M 12.744141 6.640625 A 0.44999999 0.44999999 0 0 0 12.314453 6.9785156 A 0.44999999 0.44999999 0 0 0 12.638672 7.5253906 C 13.540532 7.7568646 14.243135 8.4594684 14.474609 9.3613281 A 0.44999999 0.44999999 0 0 0 15.021484 9.6855469 A 0.44999999 0.44999999 0 0 0 15.345703 9.1386719 C 15.032998 7.9203238 14.079676 6.9670016 12.861328 6.6542969 A 0.44999999 0.44999999 0 0 0 12.744141 6.640625 z M 9.4453125 10.082031 L 11.917969 12.554688 C 10.570965 12.526753 9.4732473 11.429035 9.4453125 10.082031 z " />
</svg>
