<?xml version="1.0" encoding="UTF-8" standalone="no"?>
<svg
   width="24"
   height="24"
   viewBox="0 0 24 24"
   fill="none"
   stroke="currentColor"
   stroke-width="0.9"
   stroke-linecap="round"
   stroke-linejoin="round"
   version="1.1"
   id="svg2"
   sodipodi:docname=".tmp_map-pin-pen.svg"
   xmlns:inkscape="http://www.inkscape.org/namespaces/inkscape"
   xmlns:sodipodi="http://sodipodi.sourceforge.net/DTD/sodipodi-0.dtd"
   xmlns="http://www.w3.org/2000/svg"
   xmlns:svg="http://www.w3.org/2000/svg">
  <defs
     id="defs2" />
  <sodipodi:namedview
     id="namedview2"
     pagecolor="#ffffff"
     bordercolor="#000000"
     borderopacity="0.25"
     inkscape:showpageshadow="2"
     inkscape:pageopacity="0.0"
     inkscape:pagecheckerboard="0"
     inkscape:deskcolor="#d1d1d1" />
  <path
     id="path1"
     style="baseline-shift:baseline;display:inline;overflow:visible;vector-effect:none;fill:#000000;stroke:none;stroke-linecap:butt;stroke-linejoin:miter;enable-background:accumulate;stop-color:#000000;stop-opacity:1;opacity:1"
     d="M 9.6328125 1.5546875 C 5.1164601 1.7515179 1.5486114 5.4793587 1.5507812 10 C 1.5507814 12.501301 2.8296233 14.960119 4.3476562 17.042969 C 5.8656894 19.125819 7.6403055 20.836477 8.7226562 21.802734 A 0.44999999 0.44999999 0 0 0 9.3574219 21.767578 A 0.44999999 0.44999999 0 0 0 9.3222656 21.132812 C 8.269616 20.193074 6.5334357 18.515822 5.0742188 16.513672 C 3.6150018 14.511522 2.4492188 12.188699 2.4492188 10 C 2.4472756 5.952041 5.6277563 2.6293746 9.671875 2.453125 C 13.715994 2.2768754 17.171255 5.31097 17.521484 9.34375 A 0.44999999 0.44999999 0 0 0 18.009766 9.7519531 A 0.44999999 0.44999999 0 0 0 18.417969 9.265625 C 18.026843 4.7619351 14.149165 1.3578571 9.6328125 1.5546875 z M 10 6.5507812 C 8.0999477 6.5507812 6.5507814 8.0999477 6.5507812 10 C 6.5507812 11.900052 8.0999477 13.449219 10 13.449219 C 11.900052 13.449219 13.449219 11.900052 13.449219 10 C 13.449219 8.0999477 11.900052 6.5507814 10 6.5507812 z M 10 7.4492188 C 11.413656 7.4492188 12.550781 8.5863438 12.550781 10 C 12.550781 11.413656 11.413656 12.550781 10 12.550781 C 8.5863438 12.550781 7.4492189 11.413656 7.4492188 10 C 7.4492188 8.5863438 8.5863438 7.4492189 10 7.4492188 z M 19.748047 12.515625 C 19.166098 12.545071 18.56433 12.796998 18.056641 13.304688 L 14.044922 17.316406 C 13.753688 17.60748 13.541196 17.966081 13.425781 18.361328 L 12.589844 21.232422 C 12.386546 21.929443 13.070557 22.613454 13.767578 22.410156 L 16.636719 21.572266 C 17.031966 21.45685 17.39252 21.244359 17.683594 20.953125 L 21.695312 16.945312 A 0.45004499 0.45004499 0 0 0 21.695312 16.943359 C 22.275529 16.363143 22.522956 15.659788 22.484375 15.003906 C 22.445795 14.348024 22.141523 13.750897 21.695312 13.304688 C 21.249102 12.858477 20.651976 12.554206 19.996094 12.515625 C 19.914109 12.510803 19.831182 12.511418 19.748047 12.515625 z M 19.789062 13.412109 C 19.840496 13.410076 19.892355 13.411062 19.943359 13.414062 C 20.351394 13.438062 20.755758 13.634664 21.060547 13.939453 C 21.365336 14.244242 21.561936 14.648606 21.585938 15.056641 C 21.609938 15.464675 21.481664 15.887477 21.060547 16.308594 L 17.046875 20.316406 C 16.862705 20.500678 16.634849 20.635958 16.384766 20.708984 L 13.515625 21.546875 C 13.494698 21.55298 13.476141 21.553628 13.464844 21.550781 C 13.463895 21.550447 13.459856 21.549238 13.458984 21.548828 L 13.457031 21.546875 L 13.455078 21.544922 L 13.453125 21.542969 L 13.451172 21.541016 L 13.449219 21.539062 C 13.448808 21.538191 13.4476 21.534152 13.447266 21.533203 C 13.444416 21.521906 13.44702 21.505309 13.453125 21.484375 L 14.289062 18.613281 C 14.362092 18.363198 14.497369 18.137295 14.681641 17.953125 A 0.45004499 0.45004499 0 0 0 14.681641 17.951172 L 18.691406 13.939453 C 19.059884 13.570976 19.429027 13.42634 19.789062 13.412109 z " />
</svg>
