<?xml version="1.0" encoding="UTF-8" standalone="no"?>
<svg
   width="24"
   height="24"
   viewBox="0 0 24 24"
   fill="none"
   stroke="currentColor"
   stroke-width="0.9"
   stroke-linecap="round"
   stroke-linejoin="round"
   version="1.1"
   id="svg3"
   sodipodi:docname=".tmp_megaphone.svg"
   xmlns:inkscape="http://www.inkscape.org/namespaces/inkscape"
   xmlns:sodipodi="http://sodipodi.sourceforge.net/DTD/sodipodi-0.dtd"
   xmlns="http://www.w3.org/2000/svg"
   xmlns:svg="http://www.w3.org/2000/svg">
  <defs
     id="defs3" />
  <sodipodi:namedview
     id="namedview3"
     pagecolor="#ffffff"
     bordercolor="#000000"
     borderopacity="0.25"
     inkscape:showpageshadow="2"
     inkscape:pageopacity="0.0"
     inkscape:pagecheckerboard="0"
     inkscape:deskcolor="#d1d1d1" />
  <path
     id="path1"
     style="baseline-shift:baseline;display:inline;overflow:visible;vector-effect:none;fill:#000000;stroke:none;stroke-linecap:butt;stroke-linejoin:miter;enable-background:accumulate;stop-color:#000000;stop-opacity:1;opacity:1"
     d="M 19.886719 2.5625 C 19.625522 2.5774991 19.364167 2.6648631 19.130859 2.8398438 A 0.45004499 0.45004499 0 0 0 19.121094 2.8476562 C 16.817555 4.6698848 13.947913 5.626418 11.011719 5.5507812 A 0.45004499 0.45004499 0 0 0 11 5.5507812 L 8 5.5507812 L 5 5.5507812 C 3.6522325 5.5507812 2.5507813 6.6522325 2.5507812 8 L 2.5507812 12 C 2.5507812 13.347768 3.6522325 14.449219 5 14.449219 L 5.5585938 14.449219 C 5.6499207 16.984273 6.5128065 19.435695 8.0390625 21.470703 C 8.5065624 22.094036 9.1380096 22.420681 9.7617188 22.472656 C 10.385428 22.524636 10.990703 22.320937 11.470703 21.960938 C 11.950703 21.600939 12.316664 21.078158 12.441406 20.464844 C 12.566148 19.85153 12.428436 19.15263 11.960938 18.529297 C 11.07085 17.342515 10.550996 15.923375 10.462891 14.449219 L 11 14.449219 A 0.45004499 0.45004499 0 0 0 11.011719 14.449219 C 13.947913 14.373579 16.81752 15.330118 19.121094 17.152344 A 0.45004499 0.45004499 0 0 0 19.130859 17.160156 C 20.064089 17.860079 21.449219 17.166556 21.449219 16 L 21.449219 4 C 21.449219 3.4167312 21.103971 2.9523762 20.640625 2.7207031 C 20.408952 2.6048666 20.147915 2.5475009 19.886719 2.5625 z M 20.044922 3.4375 C 20.118839 3.4403993 20.189465 3.4580133 20.253906 3.4902344 C 20.425751 3.5761567 20.550781 3.7592235 20.550781 4 L 20.550781 16 C 20.550781 16.477334 20.063425 16.724385 19.679688 16.447266 L 19.669922 16.439453 C 17.202938 14.49174 14.130665 13.469833 10.988281 13.550781 L 8.4492188 13.550781 L 8.4492188 6.4492188 L 10.988281 6.4492188 C 14.130665 6.5301671 17.202973 5.5082724 19.669922 3.5605469 L 19.679688 3.5527344 C 19.797259 3.4677925 19.92518 3.4328033 20.044922 3.4375 z M 5 6.4492188 L 7.5507812 6.4492188 L 7.5507812 13.550781 L 5 13.550781 C 4.1386285 13.550781 3.4492188 12.861371 3.4492188 12 L 3.4492188 8 C 3.4492188 7.1386285 4.1386285 6.4492188 5 6.4492188 z M 6.4570312 14.449219 L 8 14.449219 L 9.5625 14.449219 C 9.6512652 16.118346 10.233347 17.727796 11.240234 19.070312 C 11.572734 19.513647 11.633852 19.915137 11.558594 20.285156 C 11.483334 20.655176 11.249688 21.000234 10.929688 21.240234 C 10.609687 21.480234 10.214181 21.607529 9.8378906 21.576172 C 9.4615998 21.544814 9.0922654 21.373021 8.7597656 20.929688 C 7.350288 19.050384 6.5481394 16.789453 6.4570312 14.449219 z " />
</svg>
