<?xml version="1.0" encoding="UTF-8" standalone="no"?>
<svg
   width="24"
   height="24"
   viewBox="0 0 24 24"
   fill="none"
   stroke="currentColor"
   stroke-width="0.9"
   stroke-linecap="round"
   stroke-linejoin="round"
   version="1.1"
   id="svg3"
   sodipodi:docname=".tmp_message-circle-off.svg"
   xmlns:inkscape="http://www.inkscape.org/namespaces/inkscape"
   xmlns:sodipodi="http://sodipodi.sourceforge.net/DTD/sodipodi-0.dtd"
   xmlns="http://www.w3.org/2000/svg"
   xmlns:svg="http://www.w3.org/2000/svg">
  <defs
     id="defs3" />
  <sodipodi:namedview
     id="namedview3"
     pagecolor="#ffffff"
     bordercolor="#000000"
     borderopacity="0.25"
     inkscape:showpageshadow="2"
     inkscape:pageopacity="0.0"
     inkscape:pagecheckerboard="0"
     inkscape:deskcolor="#d1d1d1" />
  <path
     id="path1"
     style="baseline-shift:baseline;display:inline;overflow:visible;vector-effect:none;fill:#000000;stroke:none;stroke-linecap:butt;stroke-linejoin:miter;enable-background:accumulate;stop-color:#000000;stop-opacity:1;opacity:1"
     d="M 12.486328 1.5429688 C 12.106315 1.525902 11.721719 1.5299956 11.333984 1.5566406 C 10.300024 1.627694 9.2421815 1.8587939 8.1855469 2.2714844 A 0.44999999 0.44999999 0 0 0 7.9316406 2.8535156 A 0.44999999 0.44999999 0 0 0 8.5136719 3.109375 C 12.407564 1.5885352 16.23869 2.7465212 18.744141 5.2539062 C 21.249591 7.7612913 22.404704 11.593611 20.880859 15.486328 A 0.44999999 0.44999999 0 0 0 21.136719 16.068359 A 0.44999999 0.44999999 0 0 0 21.71875 15.814453 C 23.372774 11.58919 22.114769 7.355161 19.380859 4.6191406 C 17.586731 2.8236272 15.146417 1.6624363 12.486328 1.5429688 z M 2 1.5488281 A 0.44999999 0.44999999 0 0 0 1.6816406 1.6816406 A 0.44999999 0.44999999 0 0 0 1.6816406 2.3183594 L 4.2988281 4.9355469 C 1.4246925 8.0671407 0.72912089 12.652461 2.5761719 16.511719 C 2.6874527 16.79583 2.7109325 17.108016 2.6464844 17.40625 L 1.59375 20.660156 A 0.45004499 0.45004499 0 0 0 1.5800781 20.707031 C 1.3668832 21.743602 2.3501847 22.671839 3.3730469 22.400391 A 0.45004499 0.45004499 0 0 0 3.3828125 22.398438 L 6.7617188 21.410156 C 7.0420958 21.355287 7.3319214 21.377037 7.5996094 21.476562 C 7.601497 21.477439 7.6035808 21.47764 7.6054688 21.478516 C 7.6068206 21.479024 7.6080243 21.479956 7.609375 21.480469 C 11.447036 23.257515 15.966119 22.540293 19.0625 19.699219 L 21.681641 22.318359 A 0.44999999 0.44999999 0 0 0 22.318359 22.318359 A 0.44999999 0.44999999 0 0 0 22.318359 21.681641 L 19.392578 18.755859 A 0.44999999 0.44999999 0 0 0 19.388672 18.751953 A 0.44999999 0.44999999 0 0 0 19.384766 18.748047 L 2.3183594 1.6816406 A 0.44999999 0.44999999 0 0 0 2 1.5488281 z M 4.9375 5.5742188 L 18.425781 19.0625 C 15.587701 21.646145 11.463085 22.288824 7.9589844 20.652344 A 0.45004499 0.45004499 0 0 0 7.9296875 20.638672 C 7.5003855 20.475736 7.0324522 20.438001 6.5820312 20.527344 A 0.45004499 0.45004499 0 0 0 6.5429688 20.535156 L 3.140625 21.53125 L 3.1386719 21.53125 C 2.7289859 21.63848 2.3824063 21.308949 2.4628906 20.894531 L 3.5136719 17.646484 A 0.45004499 0.45004499 0 0 0 3.5253906 17.605469 C 3.6304563 17.128168 3.5902635 16.630112 3.4101562 16.175781 A 0.45004499 0.45004499 0 0 0 3.3964844 16.146484 C 1.6991806 12.623845 2.3251177 8.443147 4.9375 5.5742188 z " />
</svg>
