<?xml version="1.0" encoding="UTF-8" standalone="no"?>
<svg
   width="24"
   height="24"
   viewBox="0 0 24 24"
   fill="none"
   stroke="currentColor"
   stroke-width="0.9"
   stroke-linecap="round"
   stroke-linejoin="round"
   version="1.1"
   id="svg1"
   sodipodi:docname=".tmp_message-square-dot.svg"
   xmlns:inkscape="http://www.inkscape.org/namespaces/inkscape"
   xmlns:sodipodi="http://sodipodi.sourceforge.net/DTD/sodipodi-0.dtd"
   xmlns="http://www.w3.org/2000/svg"
   xmlns:svg="http://www.w3.org/2000/svg">
  <defs
     id="defs1" />
  <sodipodi:namedview
     id="namedview1"
     pagecolor="#ffffff"
     bordercolor="#000000"
     borderopacity="0.25"
     inkscape:showpageshadow="2"
     inkscape:pageopacity="0.0"
     inkscape:pagecheckerboard="0"
     inkscape:deskcolor="#d1d1d1" />
  <path
     id="path1"
     style="baseline-shift:baseline;display:inline;overflow:visible;vector-effect:none;fill:#000000;stroke:none;stroke-linecap:butt;stroke-linejoin:miter;enable-background:accumulate;stop-color:#000000;stop-opacity:1;opacity:1"
     d="M 4 2.5507812 C 2.6522325 2.5507812 1.5507813 3.6522325 1.5507812 5 L 1.5507812 21.285156 C 1.5508456 21.782731 1.8671551 22.192379 2.265625 22.357422 C 2.6640949 22.522465 3.1774264 22.457272 3.5292969 22.105469 L 5.7324219 19.904297 C 6.0231578 19.613473 6.4169002 19.449307 6.828125 19.449219 L 20 19.449219 C 21.347768 19.449219 22.449219 18.347768 22.449219 17 L 22.449219 12.300781 A 0.44999999 0.44999999 0 0 0 22 11.849609 A 0.44999999 0.44999999 0 0 0 21.550781 12.300781 L 21.550781 17 C 21.550781 17.861371 20.861371 18.550781 20 18.550781 L 6.828125 18.550781 C 6.1785705 18.55092 5.5549381 18.808204 5.0957031 19.267578 L 2.8945312 21.470703 C 2.7991393 21.566083 2.7070222 21.565021 2.6113281 21.525391 C 2.515634 21.485753 2.4492362 21.420049 2.4492188 21.285156 L 2.4492188 5 C 2.4492188 4.1386285 3.1386285 3.4492188 4 3.4492188 L 12.699219 3.4492188 A 0.44999999 0.44999999 0 0 0 13.150391 3 A 0.44999999 0.44999999 0 0 0 12.699219 2.5507812 L 4 2.5507812 z M 19 2.5507812 C 17.099948 2.5507812 15.550781 4.0999477 15.550781 6 C 15.550781 7.9000523 17.099948 9.4492188 19 9.4492188 C 20.900052 9.4492188 22.449219 7.9000523 22.449219 6 C 22.449219 4.0999477 20.900052 2.5507812 19 2.5507812 z M 19 3.4492188 C 20.413656 3.4492188 21.550781 4.5863438 21.550781 6 C 21.550781 7.4136562 20.413656 8.5507812 19 8.5507812 C 17.586344 8.5507812 16.449219 7.4136562 16.449219 6 C 16.449219 4.5863438 17.586344 3.4492187 19 3.4492188 z " />
</svg>
