<?xml version="1.0" encoding="UTF-8" standalone="no"?>
<svg
   width="24"
   height="24"
   viewBox="0 0 24 24"
   fill="none"
   stroke="currentColor"
   stroke-width="0.9"
   stroke-linecap="round"
   stroke-linejoin="round"
   version="1.1"
   id="svg4"
   sodipodi:docname=".tmp_motorbike.svg"
   xmlns:inkscape="http://www.inkscape.org/namespaces/inkscape"
   xmlns:sodipodi="http://sodipodi.sourceforge.net/DTD/sodipodi-0.dtd"
   xmlns="http://www.w3.org/2000/svg"
   xmlns:svg="http://www.w3.org/2000/svg">
  <defs
     id="defs4" />
  <sodipodi:namedview
     id="namedview4"
     pagecolor="#ffffff"
     bordercolor="#000000"
     borderopacity="0.25"
     inkscape:showpageshadow="2"
     inkscape:pageopacity="0.0"
     inkscape:pagecheckerboard="0"
     inkscape:deskcolor="#d1d1d1" />
  <path
     id="path1"
     style="baseline-shift:baseline;display:inline;overflow:visible;vector-effect:none;fill:#000000;stroke:none;stroke-linecap:butt;stroke-linejoin:miter;enable-background:accumulate;stop-color:#000000;stop-opacity:1;opacity:1"
     d="M 16.988281 4.5507812 A 0.44999999 0.44999999 0 0 0 16.636719 4.7363281 A 0.44999999 0.44999999 0 0 0 16.736328 5.3632812 C 17.705684 6.0665039 18.355513 7.1255652 18.550781 8.3066406 L 18.550781 9 C 18.550781 9.3090867 18.309087 9.5507812 18 9.5507812 C 17.034322 9.5507812 16.118047 9.7646865 15.294922 10.146484 C 14.945173 9.2104274 14.040451 8.5512778 13 8.5507812 L 11 8.5507812 C 9.8660358 8.5507812 9.0553881 9.4008897 8.7792969 10.451172 L 3.1425781 8.5722656 A 0.44999999 0.44999999 0 0 0 2.5722656 8.8574219 A 0.44999999 0.44999999 0 0 0 2.8574219 9.4277344 L 8.8574219 11.427734 A 0.45004499 0.45004499 0 0 0 9.4492188 11 C 9.4492188 10.138629 10.138629 9.4492188 11 9.4492188 L 13 9.4492188 C 13.711104 9.4495581 14.312981 9.9239513 14.494141 10.587891 C 12.723393 11.738608 11.550781 13.734757 11.550781 16 C 11.550781 16.309087 11.309087 16.550781 11 16.550781 L 8.4199219 16.550781 C 8.198694 14.861708 6.747856 13.550781 5 13.550781 C 3.0999477 13.550781 1.5507812 15.099948 1.5507812 17 C 1.5507812 18.900052 3.0999477 20.449219 5 20.449219 C 6.747856 20.449219 8.198694 19.138292 8.4199219 17.449219 L 11 17.449219 C 11.795483 17.449219 12.449219 16.795483 12.449219 16 C 12.449219 13.965774 13.53836 12.191124 15.166016 11.224609 A 0.44999999 0.44999999 0 0 0 15.261719 11.167969 C 15.741564 10.895928 16.270368 10.703629 16.826172 10.583984 A 0.44999999 0.44999999 0 0 0 16.572266 11.142578 L 17.490234 13.898438 C 16.342953 14.459722 15.550781 15.640482 15.550781 17 C 15.550781 18.900052 17.099948 20.449219 19 20.449219 C 20.900052 20.449219 22.449219 18.900052 22.449219 17 C 22.449219 15.099948 20.900052 13.550781 19 13.550781 C 18.776596 13.550781 18.557458 13.572396 18.345703 13.613281 L 17.427734 10.857422 A 0.44999999 0.44999999 0 0 0 17.001953 10.550781 C 17.326987 10.491743 17.657674 10.449219 18 10.449219 C 18.795483 10.449219 19.449219 9.7954828 19.449219 9 L 19.449219 8.25 A 0.45004499 0.45004499 0 0 0 19.443359 8.1777344 C 19.213674 6.7552997 18.429961 5.4828074 17.263672 4.6367188 A 0.44999999 0.44999999 0 0 0 16.988281 4.5507812 z M 5 14.449219 C 6.4136562 14.449219 7.5507812 15.586344 7.5507812 17 C 7.5507812 18.413656 6.4136562 19.550781 5 19.550781 C 3.5863438 19.550781 2.4492188 18.413656 2.4492188 17 C 2.4492188 15.586344 3.5863438 14.449219 5 14.449219 z M 19 14.449219 C 20.413656 14.449219 21.550781 15.586344 21.550781 17 C 21.550781 18.413656 20.413656 19.550781 19 19.550781 C 17.586344 19.550781 16.449219 18.413656 16.449219 17 C 16.449219 15.586344 17.586344 14.449219 19 14.449219 z " />
</svg>
