<?xml version="1.0" encoding="UTF-8" standalone="no"?>
<svg
   width="24"
   height="24"
   viewBox="0 0 24 24"
   fill="none"
   stroke="currentColor"
   stroke-width="0.9"
   stroke-linecap="round"
   stroke-linejoin="round"
   version="1.1"
   id="svg2"
   sodipodi:docname=".tmp_mouse-pointer-ban.svg"
   xmlns:inkscape="http://www.inkscape.org/namespaces/inkscape"
   xmlns:sodipodi="http://sodipodi.sourceforge.net/DTD/sodipodi-0.dtd"
   xmlns="http://www.w3.org/2000/svg"
   xmlns:svg="http://www.w3.org/2000/svg">
  <defs
     id="defs2" />
  <sodipodi:namedview
     id="namedview2"
     pagecolor="#ffffff"
     bordercolor="#000000"
     borderopacity="0.25"
     inkscape:showpageshadow="2"
     inkscape:pageopacity="0.0"
     inkscape:pagecheckerboard="0"
     inkscape:deskcolor="#d1d1d1" />
  <path
     id="path1"
     style="baseline-shift:baseline;display:inline;overflow:visible;vector-effect:none;fill:#000000;stroke:none;stroke-linecap:butt;stroke-linejoin:miter;enable-background:accumulate;stop-color:#000000;stop-opacity:1;opacity:1"
     d="M 2.4238281 1.5527344 C 2.1939814 1.5713436 1.9793693 1.6729744 1.8261719 1.8261719 C 1.5810559 2.0712878 1.4702544 2.4750283 1.6152344 2.84375 L 1.6152344 2.8457031 L 5.1152344 11.84375 C 5.269172 12.2413 5.6659111 12.462058 6.0332031 12.449219 C 6.4004951 12.436379 6.7824021 12.188579 6.9082031 11.78125 L 7.9746094 8.3378906 C 8.0284015 8.1639049 8.1639049 8.0284015 8.3378906 7.9746094 L 11.78125 6.9082031 C 12.188579 6.7824021 12.436379 6.4004951 12.449219 6.0332031 C 12.462058 5.6659111 12.2413 5.269172 11.84375 5.1152344 L 2.8457031 1.6152344 L 2.84375 1.6152344 C 2.7054794 1.5608669 2.5617361 1.5415688 2.4238281 1.5527344 z M 2.4863281 2.4433594 L 2.4882812 2.4433594 C 2.4938854 2.4436833 2.5023072 2.4466419 2.5136719 2.4511719 A 0.45004499 0.45004499 0 0 0 2.5175781 2.453125 L 11.517578 5.953125 C 11.534281 5.9595934 11.54418 5.9659399 11.548828 5.9707031 L 11.550781 5.9707031 L 11.550781 5.9726562 L 11.550781 5.9746094 L 11.552734 5.9765625 L 11.552734 5.9785156 C 11.553118 5.9841871 11.551138 5.9918518 11.550781 6.0019531 C 11.550546 6.0086874 11.550556 6.0169284 11.550781 6.0214844 C 11.550782 6.022523 11.550871 6.0263911 11.550781 6.0273438 L 11.550781 6.0292969 L 11.548828 6.03125 L 11.548828 6.0332031 L 11.546875 6.0332031 L 11.546875 6.0351562 C 11.546087 6.0359083 11.542063 6.0383248 11.541016 6.0390625 C 11.535654 6.0420133 11.527035 6.0453041 11.515625 6.0488281 L 8.0703125 7.1152344 C 7.6133469 7.2565169 7.2545637 7.6153 7.1132812 8.0722656 L 6.0488281 11.515625 C 6.0453041 11.527035 6.0400602 11.537607 6.0371094 11.542969 C 6.0363717 11.544016 6.0339552 11.546087 6.0332031 11.546875 L 6.0332031 11.548828 L 6.03125 11.548828 L 6.0292969 11.550781 L 6.0273438 11.550781 L 6.0253906 11.550781 C 6.0244379 11.550871 6.0205699 11.550782 6.0195312 11.550781 C 6.0149753 11.550556 6.0086874 11.550544 6.0019531 11.550781 C 5.9918518 11.551134 5.9822339 11.553117 5.9765625 11.552734 L 5.9746094 11.550781 L 5.9726562 11.550781 L 5.9707031 11.550781 L 5.9707031 11.548828 L 5.96875 11.548828 C 5.9639868 11.544181 5.9595934 11.534281 5.953125 11.517578 L 2.453125 2.5175781 A 0.45004499 0.45004499 0 0 0 2.4511719 2.5136719 C 2.4466419 2.5023072 2.443683 2.4919323 2.4433594 2.4863281 L 2.4453125 2.484375 L 2.4453125 2.4824219 L 2.4453125 2.4804688 L 2.4472656 2.4785156 L 2.4472656 2.4765625 C 2.4506286 2.4725918 2.4567373 2.4690451 2.4628906 2.4628906 C 2.4690451 2.4567361 2.4745449 2.4506285 2.4785156 2.4472656 L 2.4804688 2.4453125 L 2.4824219 2.4453125 L 2.484375 2.4453125 L 2.4863281 2.4433594 z M 16 9.5507812 C 12.443093 9.5507812 9.5507813 12.443093 9.5507812 16 C 9.5507812 19.556907 12.443093 22.449219 16 22.449219 C 19.556907 22.449219 22.449219 19.556907 22.449219 16 C 22.449219 12.443093 19.556907 9.5507813 16 9.5507812 z M 16 10.449219 C 19.07051 10.449219 21.550781 12.92949 21.550781 16 C 21.550781 17.372821 21.055102 18.627776 20.232422 19.595703 L 12.404297 11.767578 C 13.372224 10.944898 14.627179 10.449219 16 10.449219 z M 11.767578 12.404297 L 19.595703 20.232422 C 18.627776 21.055102 17.372821 21.550781 16 21.550781 C 12.92949 21.550781 10.449219 19.07051 10.449219 16 C 10.449219 14.627179 10.944898 13.372224 11.767578 12.404297 z " />
</svg>
