<?xml version="1.0" encoding="UTF-8" standalone="no"?>
<svg
   width="24"
   height="24"
   viewBox="0 0 24 24"
   fill="none"
   stroke="currentColor"
   stroke-width="0.9"
   stroke-linecap="round"
   stroke-linejoin="round"
   version="1.1"
   id="svg4"
   sodipodi:docname=".tmp_move-3d.svg"
   xmlns:inkscape="http://www.inkscape.org/namespaces/inkscape"
   xmlns:sodipodi="http://sodipodi.sourceforge.net/DTD/sodipodi-0.dtd"
   xmlns="http://www.w3.org/2000/svg"
   xmlns:svg="http://www.w3.org/2000/svg">
  <defs
     id="defs4" />
  <sodipodi:namedview
     id="namedview4"
     pagecolor="#ffffff"
     bordercolor="#000000"
     borderopacity="0.25"
     inkscape:showpageshadow="2"
     inkscape:pageopacity="0.0"
     inkscape:pagecheckerboard="0"
     inkscape:deskcolor="#d1d1d1" />
  <path
     id="path1"
     style="baseline-shift:baseline;display:inline;overflow:visible;vector-effect:none;fill:#000000;stroke:none;stroke-linecap:butt;stroke-linejoin:miter;enable-background:accumulate;stop-color:#000000;stop-opacity:1;opacity:1"
     d="M 5 2.5488281 A 0.45004499 0.45004499 0 0 0 4.6816406 2.6816406 L 1.6816406 5.6816406 A 0.44999999 0.44999999 0 0 0 1.6816406 6.3183594 A 0.44999999 0.44999999 0 0 0 2.3183594 6.3183594 L 4.5507812 4.0859375 L 4.5507812 19 A 0.44999999 0.44999999 0 0 0 4.6816406 19.318359 A 0.44999999 0.44999999 0 0 0 5.03125 19.449219 L 19.914062 19.449219 L 17.681641 21.681641 A 0.44999999 0.44999999 0 0 0 17.681641 22.318359 A 0.44999999 0.44999999 0 0 0 18.318359 22.318359 L 21.318359 19.318359 A 0.45004499 0.45004499 0 0 0 21.318359 18.681641 L 18.318359 15.681641 A 0.44999999 0.44999999 0 0 0 17.681641 15.681641 A 0.44999999 0.44999999 0 0 0 17.681641 16.318359 L 19.914062 18.550781 L 6.0859375 18.550781 L 11.318359 13.318359 A 0.44999999 0.44999999 0 0 0 11.318359 12.681641 A 0.44999999 0.44999999 0 0 0 10.681641 12.681641 L 5.4492188 17.914062 L 5.4492188 4.0859375 L 7.6816406 6.3183594 A 0.44999999 0.44999999 0 0 0 8.3183594 6.3183594 A 0.44999999 0.44999999 0 0 0 8.3183594 5.6816406 L 5.3183594 2.6816406 A 0.45004499 0.45004499 0 0 0 5 2.5488281 z " />
</svg>
