<?xml version="1.0" encoding="UTF-8" standalone="no"?>
<svg
   width="24"
   height="24"
   viewBox="0 0 24 24"
   fill="none"
   stroke="currentColor"
   stroke-width="0.9"
   stroke-linecap="round"
   stroke-linejoin="round"
   version="1.1"
   id="svg2"
   sodipodi:docname=".tmp_paint-roller.svg"
   xmlns:inkscape="http://www.inkscape.org/namespaces/inkscape"
   xmlns:sodipodi="http://sodipodi.sourceforge.net/DTD/sodipodi-0.dtd"
   xmlns="http://www.w3.org/2000/svg"
   xmlns:svg="http://www.w3.org/2000/svg">
  <defs
     id="defs2" />
  <sodipodi:namedview
     id="namedview2"
     pagecolor="#ffffff"
     bordercolor="#000000"
     borderopacity="0.25"
     inkscape:showpageshadow="2"
     inkscape:pageopacity="0.0"
     inkscape:pagecheckerboard="0"
     inkscape:deskcolor="#d1d1d1" />
  <path
     id="rect1"
     style="baseline-shift:baseline;display:inline;overflow:visible;vector-effect:none;fill:#000000;stroke:none;stroke-linecap:butt;stroke-linejoin:miter;enable-background:accumulate;stop-color:#000000;stop-opacity:1;opacity:1"
     d="M 4 1.5507812 C 2.6504838 1.5507812 1.5507813 2.6504838 1.5507812 4 L 1.5507812 6 C 1.5507812 7.3495162 2.6504838 8.4492188 4 8.4492188 L 16 8.4492188 C 17.349516 8.4492188 18.449219 7.3495162 18.449219 6 L 18.449219 5.4492188 L 20 5.4492188 C 20.861371 5.4492188 21.550781 6.1386285 21.550781 7 L 21.550781 10 C 21.550781 10.861371 20.861371 11.550781 20 11.550781 L 12 11.550781 C 10.652232 11.550781 9.5507812 12.652232 9.5507812 14 L 9.5507812 15.550781 L 9 15.550781 C 8.2044838 15.550781 7.5507814 16.204484 7.5507812 17 L 7.5507812 21 C 7.5507812 21.795516 8.2044838 22.449219 9 22.449219 L 11 22.449219 C 11.795516 22.449219 12.449219 21.795516 12.449219 21 L 12.449219 17 C 12.449219 16.204484 11.795516 15.550781 11 15.550781 L 10.449219 15.550781 L 10.449219 14 C 10.449219 13.138629 11.138629 12.449219 12 12.449219 L 20 12.449219 C 21.347768 12.449219 22.449219 11.347768 22.449219 10 L 22.449219 7 C 22.449219 5.6522325 21.347768 4.5507812 20 4.5507812 L 18.449219 4.5507812 L 18.449219 4 C 18.449219 2.6504838 17.349516 1.5507813 16 1.5507812 L 4 1.5507812 z M 4 2.4492188 L 16 2.4492188 C 16.866484 2.4492188 17.550781 3.1335162 17.550781 4 L 17.550781 6 C 17.550781 6.8664838 16.866484 7.5507813 16 7.5507812 L 4 7.5507812 C 3.1335162 7.5507812 2.4492188 6.8664838 2.4492188 6 L 2.4492188 4 C 2.4492188 3.1335162 3.1335162 2.4492186 4 2.4492188 z M 9 16.449219 L 10 16.449219 L 11 16.449219 C 11.312484 16.449219 11.550781 16.687516 11.550781 17 L 11.550781 21 C 11.550781 21.312484 11.312484 21.550781 11 21.550781 L 9 21.550781 C 8.6875162 21.550781 8.4492188 21.312484 8.4492188 21 L 8.4492188 17 C 8.4492188 16.687516 8.6875162 16.449219 9 16.449219 z " />
</svg>
