<?xml version="1.0" encoding="UTF-8" standalone="no"?>
<svg
   width="24"
   height="24"
   viewBox="0 0 24 24"
   fill="none"
   stroke="currentColor"
   stroke-width="0.9"
   stroke-linecap="round"
   stroke-linejoin="round"
   version="1.1"
   id="svg9"
   sodipodi:docname=".tmp_party-popper.svg"
   xmlns:inkscape="http://www.inkscape.org/namespaces/inkscape"
   xmlns:sodipodi="http://sodipodi.sourceforge.net/DTD/sodipodi-0.dtd"
   xmlns="http://www.w3.org/2000/svg"
   xmlns:svg="http://www.w3.org/2000/svg">
  <defs
     id="defs9" />
  <sodipodi:namedview
     id="namedview9"
     pagecolor="#ffffff"
     bordercolor="#000000"
     borderopacity="0.25"
     inkscape:showpageshadow="2"
     inkscape:pageopacity="0.0"
     inkscape:pagecheckerboard="0"
     inkscape:deskcolor="#d1d1d1" />
  <path
     id="path1"
     style="baseline-shift:baseline;display:inline;overflow:visible;vector-effect:none;fill:#000000;stroke:none;stroke-linecap:butt;stroke-linejoin:miter;enable-background:accumulate;stop-color:#000000;stop-opacity:1;opacity:1"
     d="M 11.003906 1.5488281 A 0.44999999 0.44999999 0 0 0 10.832031 1.5820312 A 0.44999999 0.44999999 0 0 0 10.582031 2.1679688 L 10.912109 2.9882812 C 11.148493 3.589751 10.779413 4.2454509 10.142578 4.3574219 C 9.2227679 4.4959047 8.5507813 5.3053795 8.5507812 6.2304688 L 8.5507812 7 A 0.44999999 0.44999999 0 0 0 9 7.4492188 A 0.44999999 0.44999999 0 0 0 9.4492188 7 L 9.4492188 6.2304688 C 9.4492188 5.7401871 9.8100996 5.3136801 10.283203 5.2460938 A 0.45004499 0.45004499 0 0 0 10.298828 5.2441406 C 11.481275 5.0362339 12.190039 3.7722761 11.748047 2.6542969 A 0.45004499 0.45004499 0 0 0 11.748047 2.6523438 L 11.417969 1.8320312 A 0.44999999 0.44999999 0 0 0 11.003906 1.5488281 z M 15 1.5507812 A 0.44999999 0.44999999 0 0 0 14.550781 2 A 0.44999999 0.44999999 0 0 0 15 2.4492188 L 15.009766 2.4492188 A 0.44999999 0.44999999 0 0 0 15.460938 2 A 0.44999999 0.44999999 0 0 0 15.009766 1.5507812 L 15 1.5507812 z M 21.972656 1.5527344 A 0.44999999 0.44999999 0 0 0 21.857422 1.5742188 L 19.617188 2.3242188 L 19.617188 2.3222656 C 18.100831 2.8273605 17.150357 4.3424308 17.353516 5.9277344 C 17.419669 6.5256264 16.965088 7.0507812 16.349609 7.0507812 L 15.970703 7.0507812 C 14.902349 7.0507812 13.971 7.803139 13.769531 8.8535156 L 13.558594 9.9121094 A 0.44999999 0.44999999 0 0 0 13.912109 10.441406 A 0.44999999 0.44999999 0 0 0 14.441406 10.087891 L 14.652344 9.0273438 A 0.45004499 0.45004499 0 0 0 14.652344 9.0234375 C 14.771994 8.3952744 15.320005 7.9492189 15.970703 7.9492188 L 16.349609 7.9492188 C 17.492109 7.9492188 18.376288 6.9380292 18.246094 5.8183594 A 0.45004499 0.45004499 0 0 0 18.246094 5.8125 C 18.096902 4.6483112 18.788786 3.5486575 19.902344 3.1777344 A 0.45004499 0.45004499 0 0 0 19.902344 3.1757812 L 22.142578 2.4257812 A 0.44999999 0.44999999 0 0 0 22.425781 1.8574219 A 0.44999999 0.44999999 0 0 0 21.972656 1.5527344 z M 4 2.5507812 A 0.44999999 0.44999999 0 0 0 3.5507812 3 A 0.44999999 0.44999999 0 0 0 4 3.4492188 L 4.0097656 3.4492188 A 0.44999999 0.44999999 0 0 0 4.4609375 3 A 0.44999999 0.44999999 0 0 0 4.0097656 2.5507812 L 4 2.5507812 z M 22 7.5507812 A 0.44999999 0.44999999 0 0 0 21.550781 8 A 0.44999999 0.44999999 0 0 0 22 8.4492188 L 22.009766 8.4492188 A 0.44999999 0.44999999 0 0 0 22.460938 8 A 0.44999999 0.44999999 0 0 0 22.009766 7.5507812 L 22 7.5507812 z M 6.8574219 10.240234 C 6.4185371 10.242934 5.9894561 10.373825 5.6816406 10.681641 C 5.5680767 10.795204 5.4819114 10.927381 5.4140625 11.068359 A 0.44999999 0.44999999 0 0 0 5.3867188 11.121094 C 5.3838133 11.127781 5.3797664 11.133894 5.3769531 11.140625 A 0.44999999 0.44999999 0 0 0 5.375 11.148438 C 5.3526684 11.202643 5.3329429 11.257786 5.3164062 11.314453 L 1.5761719 21.849609 A 0.45004499 0.45004499 0 0 0 2.1503906 22.423828 L 12.849609 18.634766 A 0.44999999 0.44999999 0 0 0 12.966797 18.572266 C 13.09486 18.506646 13.213879 18.42284 13.318359 18.318359 C 13.626175 18.010544 13.757075 17.581463 13.759766 17.142578 C 13.762466 16.703693 13.649773 16.237034 13.453125 15.746094 C 13.05983 14.764212 12.32018 13.683461 11.318359 12.681641 C 10.316539 11.67982 9.2357876 10.94017 8.2539062 10.546875 C 7.7629654 10.350227 7.2963066 10.237544 6.8574219 10.240234 z M 6.8632812 11.140625 C 7.1381466 11.138925 7.5058626 11.216964 7.9199219 11.382812 C 8.7480404 11.714517 9.7534611 12.39018 10.681641 13.318359 C 11.60982 14.246539 12.285483 15.25196 12.617188 16.080078 C 12.783039 16.494137 12.86106 16.861854 12.859375 17.136719 C 12.857675 17.411584 12.788825 17.574456 12.681641 17.681641 C 12.574456 17.788825 12.411584 17.85769 12.136719 17.859375 C 11.861854 17.861075 11.494137 17.783036 11.080078 17.617188 C 10.251959 17.285483 9.2465385 16.60982 8.3183594 15.681641 C 7.3901802 14.753461 6.7145174 13.74804 6.3828125 12.919922 C 6.21696 12.505863 6.1389402 12.138146 6.140625 11.863281 C 6.1411906 11.770744 6.1493678 11.690392 6.1640625 11.621094 L 6.2246094 11.451172 A 0.44999999 0.44999999 0 0 0 6.2285156 11.439453 C 6.2539126 11.392335 6.2842964 11.352423 6.3183594 11.318359 C 6.4255439 11.211175 6.5884154 11.14231 6.8632812 11.140625 z M 20.708984 12.121094 C 19.790493 12.093269 18.92478 12.740439 18.755859 13.701172 A 0.45004499 0.45004499 0 0 0 18.755859 13.710938 C 18.680159 14.192664 18.259813 14.550781 17.769531 14.550781 L 17 14.550781 A 0.44999999 0.44999999 0 0 0 16.550781 15 A 0.44999999 0.44999999 0 0 0 17 15.449219 L 17.769531 15.449219 C 18.696556 15.449219 19.494905 14.771661 19.642578 13.857422 L 19.644531 13.849609 C 19.760617 13.217753 20.412805 12.852511 21.011719 13.087891 L 21.832031 13.417969 A 0.44999999 0.44999999 0 0 0 22.417969 13.167969 A 0.44999999 0.44999999 0 0 0 22.167969 12.582031 L 21.347656 12.251953 A 0.45004499 0.45004499 0 0 0 21.345703 12.251953 C 21.136084 12.169085 20.920944 12.127515 20.708984 12.121094 z M 5.5664062 13.302734 C 5.9644659 14.271474 6.6964791 15.333199 7.6816406 16.318359 C 8.6703181 17.307037 9.7355014 18.04041 10.707031 18.4375 L 2.7402344 21.259766 L 5.5664062 13.302734 z M 22 19.550781 A 0.44999999 0.44999999 0 0 0 21.550781 20 A 0.44999999 0.44999999 0 0 0 22 20.449219 L 22.009766 20.449219 A 0.44999999 0.44999999 0 0 0 22.460938 20 A 0.44999999 0.44999999 0 0 0 22.009766 19.550781 L 22 19.550781 z " />
</svg>
