<?xml version="1.0" encoding="UTF-8" standalone="no"?>
<svg
   width="24"
   height="24"
   viewBox="0 0 24 24"
   fill="none"
   stroke="currentColor"
   stroke-width="0.9"
   stroke-linecap="round"
   stroke-linejoin="round"
   version="1.1"
   id="svg3"
   sodipodi:docname=".tmp_pc-case.svg"
   xmlns:inkscape="http://www.inkscape.org/namespaces/inkscape"
   xmlns:sodipodi="http://sodipodi.sourceforge.net/DTD/sodipodi-0.dtd"
   xmlns="http://www.w3.org/2000/svg"
   xmlns:svg="http://www.w3.org/2000/svg">
  <defs
     id="defs3" />
  <sodipodi:namedview
     id="namedview3"
     pagecolor="#ffffff"
     bordercolor="#000000"
     borderopacity="0.25"
     inkscape:showpageshadow="2"
     inkscape:pageopacity="0.0"
     inkscape:pagecheckerboard="0"
     inkscape:deskcolor="#d1d1d1" />
  <path
     id="rect1"
     style="baseline-shift:baseline;display:inline;overflow:visible;vector-effect:none;fill:#000000;stroke:none;stroke-linecap:butt;stroke-linejoin:miter;enable-background:accumulate;stop-color:#000000;stop-opacity:1;opacity:1"
     d="M 7 1.5507812 C 5.6504838 1.5507812 4.5507812 2.6504838 4.5507812 4 L 4.5507812 20 C 4.5507812 21.349516 5.6504838 22.449219 7 22.449219 L 17 22.449219 C 18.349516 22.449219 19.449219 21.349516 19.449219 20 L 19.449219 4 C 19.449219 2.6504838 18.349516 1.5507813 17 1.5507812 L 7 1.5507812 z M 7 2.4492188 L 17 2.4492188 C 17.866484 2.4492188 18.550781 3.1335162 18.550781 4 L 18.550781 20 C 18.550781 20.866484 17.866484 21.550781 17 21.550781 L 7 21.550781 C 6.1335162 21.550781 5.4492188 20.866484 5.4492188 20 L 5.4492188 4 C 5.4492188 3.1335162 6.1335162 2.4492188 7 2.4492188 z M 9 5.5507812 A 0.44999999 0.44999999 0 0 0 8.5507812 6 A 0.44999999 0.44999999 0 0 0 9 6.4492188 L 15 6.4492188 A 0.44999999 0.44999999 0 0 0 15.449219 6 A 0.44999999 0.44999999 0 0 0 15 5.5507812 L 9 5.5507812 z M 9 9.5507812 A 0.44999999 0.44999999 0 0 0 8.5507812 10 A 0.44999999 0.44999999 0 0 0 9 10.449219 L 15 10.449219 A 0.44999999 0.44999999 0 0 0 15.449219 10 A 0.44999999 0.44999999 0 0 0 15 9.5507812 L 9 9.5507812 z M 15 13.550781 A 0.44999999 0.44999999 0 0 0 14.550781 14 A 0.44999999 0.44999999 0 0 0 15 14.449219 L 15.009766 14.449219 A 0.44999999 0.44999999 0 0 0 15.460938 14 A 0.44999999 0.44999999 0 0 0 15.009766 13.550781 L 15 13.550781 z " />
</svg>
