<?xml version="1.0" encoding="UTF-8" standalone="no"?>
<svg
   width="24"
   height="24"
   viewBox="0 0 24 24"
   fill="none"
   stroke="currentColor"
   stroke-width="0.9"
   stroke-linecap="round"
   stroke-linejoin="round"
   version="1.1"
   id="svg7"
   sodipodi:docname=".tmp_radar.svg"
   xmlns:inkscape="http://www.inkscape.org/namespaces/inkscape"
   xmlns:sodipodi="http://sodipodi.sourceforge.net/DTD/sodipodi-0.dtd"
   xmlns="http://www.w3.org/2000/svg"
   xmlns:svg="http://www.w3.org/2000/svg">
  <defs
     id="defs7" />
  <sodipodi:namedview
     id="namedview7"
     pagecolor="#ffffff"
     bordercolor="#000000"
     borderopacity="0.25"
     inkscape:showpageshadow="2"
     inkscape:pageopacity="0.0"
     inkscape:pagecheckerboard="0"
     inkscape:deskcolor="#d1d1d1" />
  <path
     id="path1"
     style="baseline-shift:baseline;display:inline;overflow:visible;vector-effect:none;fill:#000000;stroke:none;stroke-linecap:butt;stroke-linejoin:miter;enable-background:accumulate;stop-color:#000000;stop-opacity:1;opacity:1"
     d="M 11.677734 1.5527344 C 9.9903051 1.6036787 8.3018384 2.0630207 6.765625 2.9511719 A 0.44999999 0.44999999 0 0 0 6.5996094 3.5644531 A 0.44999999 0.44999999 0 0 0 7.2148438 3.7304688 C 10.831694 1.6394117 15.363931 2.1462652 18.425781 4.9375 L 16.228516 7.1347656 C 14.971116 6.0338721 13.389766 5.5055369 11.822266 5.5449219 C 10.114521 5.5878306 8.4236165 6.3027284 7.1875 7.6777344 C 4.715267 10.427746 5.065043 14.707168 7.9492188 17.021484 A 0.44999999 0.44999999 0 0 0 8.5800781 16.951172 A 0.44999999 0.44999999 0 0 0 8.5117188 16.318359 C 6.0208012 14.319599 5.7222788 10.654344 7.8574219 8.2792969 C 9.8915037 6.0166664 13.324565 5.8261564 15.591797 7.7714844 L 13.382812 9.9804688 C 12.988784 9.7094302 12.51201 9.5507812 12 9.5507812 C 10.652232 9.5507812 9.5507812 10.652232 9.5507812 12 C 9.5507812 13.347768 10.652232 14.449219 12 14.449219 C 13.347768 14.449219 14.449219 13.347768 14.449219 12 C 14.449219 11.48799 14.29057 11.011216 14.019531 10.617188 L 16.556641 8.0800781 A 0.44999999 0.44999999 0 0 0 16.558594 8.078125 L 19.388672 5.2480469 A 0.44999999 0.44999999 0 0 0 19.427734 5.203125 A 0.44999999 0.44999999 0 0 0 19.388672 4.6113281 C 17.716576 2.9374407 15.58518 1.9296848 13.359375 1.6367188 C 12.802924 1.5634773 12.240211 1.5357529 11.677734 1.5527344 z M 4 5.5507812 A 0.44999999 0.44999999 0 0 0 3.5507812 6 A 0.44999999 0.44999999 0 0 0 4 6.4492188 L 4.0097656 6.4492188 A 0.44999999 0.44999999 0 0 0 4.4609375 6 A 0.44999999 0.44999999 0 0 0 4.0097656 5.5507812 L 4 5.5507812 z M 21.318359 7.9003906 A 0.44999999 0.44999999 0 0 0 21.146484 7.9316406 A 0.44999999 0.44999999 0 0 0 20.890625 8.5136719 C 23.256313 14.539697 19.097997 21.101902 12.638672 21.533203 C 6.1793462 21.964504 1.1830411 16.013612 2.7265625 9.7265625 A 0.44999999 0.44999999 0 0 0 2.3964844 9.1835938 A 0.44999999 0.44999999 0 0 0 1.8535156 9.5136719 C 0.1709056 16.367256 5.6558799 22.901807 12.697266 22.431641 C 19.738651 21.961475 24.307379 14.754585 21.728516 8.1855469 A 0.44999999 0.44999999 0 0 0 21.318359 7.9003906 z M 12 10.449219 C 12.401448 10.449219 12.7647 10.598593 13.039062 10.845703 A 0.44999999 0.44999999 0 0 0 13.091797 10.908203 A 0.44999999 0.44999999 0 0 0 13.154297 10.960938 C 13.401407 11.2353 13.550781 11.598552 13.550781 12 C 13.550781 12.861371 12.861371 13.550781 12 13.550781 C 11.138629 13.550781 10.449219 12.861371 10.449219 12 C 10.449219 11.138629 11.138629 10.449219 12 10.449219 z M 17.964844 11.210938 A 0.44999999 0.44999999 0 0 0 17.541016 11.685547 C 17.643125 13.471358 16.877806 15.196331 15.486328 16.320312 A 0.44999999 0.44999999 0 0 0 15.419922 16.953125 A 0.44999999 0.44999999 0 0 0 16.052734 17.019531 C 17.669115 15.713882 18.558066 13.709214 18.439453 11.634766 A 0.44999999 0.44999999 0 0 0 17.964844 11.210938 z M 12 17.550781 A 0.44999999 0.44999999 0 0 0 11.550781 18 A 0.44999999 0.44999999 0 0 0 12 18.449219 L 12.009766 18.449219 A 0.44999999 0.44999999 0 0 0 12.460938 18 A 0.44999999 0.44999999 0 0 0 12.009766 17.550781 L 12 17.550781 z " />
</svg>
