<?xml version="1.0" encoding="UTF-8" standalone="no"?>
<svg
   width="24"
   height="24"
   viewBox="0 0 24 24"
   fill="none"
   stroke="currentColor"
   stroke-width="0.9"
   stroke-linecap="round"
   stroke-linejoin="round"
   version="1.1"
   id="svg3"
   sodipodi:docname=".tmp_radio-receiver.svg"
   xmlns:inkscape="http://www.inkscape.org/namespaces/inkscape"
   xmlns:sodipodi="http://sodipodi.sourceforge.net/DTD/sodipodi-0.dtd"
   xmlns="http://www.w3.org/2000/svg"
   xmlns:svg="http://www.w3.org/2000/svg">
  <defs
     id="defs3" />
  <sodipodi:namedview
     id="namedview3"
     pagecolor="#ffffff"
     bordercolor="#000000"
     borderopacity="0.25"
     inkscape:showpageshadow="2"
     inkscape:pageopacity="0.0"
     inkscape:pagecheckerboard="0"
     inkscape:deskcolor="#d1d1d1" />
  <path
     id="path1"
     style="baseline-shift:baseline;display:inline;overflow:visible;vector-effect:none;fill:#000000;stroke:none;stroke-linecap:butt;stroke-linejoin:miter;enable-background:accumulate;stop-color:#000000;stop-opacity:1;opacity:1"
     d="M 4 7.5507812 C 2.6504838 7.5507812 1.5507813 8.6504838 1.5507812 10 L 1.5507812 14 C 1.5507812 15.349516 2.6504838 16.449219 4 16.449219 L 4.5507812 16.449219 L 4.5507812 18 A 0.44999999 0.44999999 0 0 0 5 18.449219 A 0.44999999 0.44999999 0 0 0 5.4492188 18 L 5.4492188 16.449219 L 18.550781 16.449219 L 18.550781 18 A 0.44999999 0.44999999 0 0 0 19 18.449219 A 0.44999999 0.44999999 0 0 0 19.449219 18 L 19.449219 16.449219 L 20 16.449219 C 21.349516 16.449219 22.449219 15.349516 22.449219 14 L 22.449219 10 C 22.449219 8.6504838 21.349516 7.5507814 20 7.5507812 L 4 7.5507812 z M 4 8.4492188 L 20 8.4492188 C 20.866484 8.4492188 21.550781 9.1335162 21.550781 10 L 21.550781 14 C 21.550781 14.866484 20.866484 15.550781 20 15.550781 L 4 15.550781 C 3.1335162 15.550781 2.4492188 14.866484 2.4492188 14 L 2.4492188 10 C 2.4492188 9.1335162 3.1335162 8.4492188 4 8.4492188 z M 18 11.550781 A 0.44999999 0.44999999 0 0 0 17.550781 12 A 0.44999999 0.44999999 0 0 0 18 12.449219 L 18.009766 12.449219 A 0.44999999 0.44999999 0 0 0 18.460938 12 A 0.44999999 0.44999999 0 0 0 18.009766 11.550781 L 18 11.550781 z " />
</svg>
