<?xml version="1.0" encoding="UTF-8" standalone="no"?>
<svg
   width="24"
   height="24"
   viewBox="0 0 24 24"
   fill="none"
   stroke="currentColor"
   stroke-width="0.9"
   stroke-linecap="round"
   stroke-linejoin="round"
   version="1.1"
   id="svg4"
   sodipodi:docname=".tmp_receipt-pound-sterling.svg"
   xmlns:inkscape="http://www.inkscape.org/namespaces/inkscape"
   xmlns:sodipodi="http://sodipodi.sourceforge.net/DTD/sodipodi-0.dtd"
   xmlns="http://www.w3.org/2000/svg"
   xmlns:svg="http://www.w3.org/2000/svg">
  <defs
     id="defs4" />
  <sodipodi:namedview
     id="namedview4"
     pagecolor="#ffffff"
     bordercolor="#000000"
     borderopacity="0.25"
     inkscape:showpageshadow="2"
     inkscape:pageopacity="0.0"
     inkscape:pagecheckerboard="0"
     inkscape:deskcolor="#d1d1d1" />
  <path
     id="path1"
     style="baseline-shift:baseline;display:inline;overflow:visible;vector-effect:none;fill:#000000;stroke:none;stroke-linecap:butt;stroke-linejoin:miter;enable-background:accumulate;stop-color:#000000;stop-opacity:1;opacity:1"
     d="M 4.0253906 1.5507812 A 0.45004499 0.45004499 0 0 0 3.5507812 2 L 3.5507812 22 A 0.45004499 0.45004499 0 0 0 4.2011719 22.402344 L 6 21.503906 L 7.7988281 22.402344 A 0.45004499 0.45004499 0 0 0 8.2011719 22.402344 L 10 21.503906 L 11.798828 22.402344 A 0.45004499 0.45004499 0 0 0 12.201172 22.402344 L 14 21.503906 L 15.798828 22.402344 A 0.45004499 0.45004499 0 0 0 16.201172 22.402344 L 18 21.503906 L 19.798828 22.402344 A 0.45004499 0.45004499 0 0 0 20.449219 22 L 20.449219 2 A 0.45004499 0.45004499 0 0 0 19.798828 1.5976562 L 18 2.4960938 L 16.201172 1.5976562 A 0.45004499 0.45004499 0 0 0 15.798828 1.5976562 L 14 2.4960938 L 12.201172 1.5976562 A 0.45004499 0.45004499 0 0 0 11.798828 1.5976562 L 10 2.4960938 L 8.2011719 1.5976562 A 0.45004499 0.45004499 0 0 0 7.7988281 1.5976562 L 6 2.4960938 L 4.2011719 1.5976562 A 0.45004499 0.45004499 0 0 0 4.0253906 1.5507812 z M 8 2.5039062 L 9.7988281 3.4023438 A 0.45004499 0.45004499 0 0 0 10.201172 3.4023438 L 12 2.5039062 L 13.798828 3.4023438 A 0.45004499 0.45004499 0 0 0 14.201172 3.4023438 L 16 2.5039062 L 17.798828 3.4023438 A 0.45004499 0.45004499 0 0 0 18.201172 3.4023438 L 19.550781 2.7265625 L 19.550781 21.273438 L 18.201172 20.597656 A 0.45004499 0.45004499 0 0 0 17.798828 20.597656 L 16 21.496094 L 14.201172 20.597656 A 0.45004499 0.45004499 0 0 0 13.798828 20.597656 L 12 21.496094 L 10.201172 20.597656 A 0.45004499 0.45004499 0 0 0 9.7988281 20.597656 L 8 21.496094 L 6.2011719 20.597656 A 0.45004499 0.45004499 0 0 0 5.7988281 20.597656 L 4.4492188 21.273438 L 4.4492188 2.7265625 L 5.7988281 3.4023438 A 0.45004499 0.45004499 0 0 0 6.2011719 3.4023438 L 8 2.5039062 z M 12.5 6.5507812 C 11.775 6.5507812 11.043954 6.7899233 10.482422 7.2890625 C 9.9208899 7.7882017 9.5507812 8.554167 9.5507812 9.5 L 9.5507812 12.550781 L 8 12.550781 A 0.44999999 0.44999999 0 0 0 7.5507812 13 A 0.44999999 0.44999999 0 0 0 8 13.449219 L 9.5507812 13.449219 L 9.5507812 16.550781 L 8 16.550781 A 0.44999999 0.44999999 0 0 0 7.5507812 17 A 0.44999999 0.44999999 0 0 0 8 17.449219 L 10 17.449219 L 15 17.449219 A 0.44999999 0.44999999 0 0 0 15.449219 17 A 0.44999999 0.44999999 0 0 0 15 16.550781 L 10.449219 16.550781 L 10.449219 13.449219 L 13 13.449219 A 0.44999999 0.44999999 0 0 0 13.449219 13 A 0.44999999 0.44999999 0 0 0 13 12.550781 L 10.449219 12.550781 L 10.449219 9.5 C 10.449219 8.7791671 10.70411 8.2951313 11.080078 7.9609375 C 11.456046 7.6267437 11.975 7.4492189 12.5 7.4492188 C 13.025 7.4492188 13.543954 7.6267437 13.919922 7.9609375 C 14.29589 8.2951313 14.550781 8.7791671 14.550781 9.5 A 0.44999999 0.44999999 0 0 0 15 9.9492188 A 0.44999999 0.44999999 0 0 0 15.449219 9.5 C 15.449219 8.554167 15.07911 7.7882017 14.517578 7.2890625 C 13.956046 6.7899233 13.225 6.5507812 12.5 6.5507812 z " />
</svg>
