<?xml version="1.0" encoding="UTF-8" standalone="no"?>
<svg
   width="24"
   height="24"
   viewBox="0 0 24 24"
   fill="none"
   stroke="currentColor"
   stroke-width="0.9"
   stroke-linecap="round"
   stroke-linejoin="round"
   version="1.1"
   id="svg2"
   sodipodi:docname=".tmp_rewind.svg"
   xmlns:inkscape="http://www.inkscape.org/namespaces/inkscape"
   xmlns:sodipodi="http://sodipodi.sourceforge.net/DTD/sodipodi-0.dtd"
   xmlns="http://www.w3.org/2000/svg"
   xmlns:svg="http://www.w3.org/2000/svg">
  <defs
     id="defs2" />
  <sodipodi:namedview
     id="namedview2"
     pagecolor="#ffffff"
     bordercolor="#000000"
     borderopacity="0.25"
     inkscape:showpageshadow="2"
     inkscape:pageopacity="0.0"
     inkscape:pagecheckerboard="0"
     inkscape:deskcolor="#d1d1d1" />
  <path
     id="path1"
     style="baseline-shift:baseline;display:inline;overflow:visible;vector-effect:none;fill:#000000;stroke:none;stroke-linecap:butt;stroke-linejoin:miter;enable-background:accumulate;stop-color:#000000;stop-opacity:1;opacity:1"
     d="M 9.9199219 3.5507812 C 9.8027869 3.5542275 9.68504 3.5654772 9.5683594 3.5859375 C 9.1016366 3.6677785 8.6466658 3.8886049 8.2675781 4.2675781 L 2.2675781 10.267578 C 1.3149072 11.220537 1.3149072 12.779463 2.2675781 13.732422 L 8.2675781 19.732422 C 9.0257535 20.490368 10.09015 20.614625 10.9375 20.263672 C 11.78485 19.912719 12.44899 19.07206 12.449219 18 L 12.449219 13.914062 L 18.267578 19.732422 C 19.025754 20.490368 20.09015 20.614625 20.9375 20.263672 C 21.78485 19.912719 22.44899 19.07206 22.449219 18 L 22.449219 6 C 22.44899 4.9279399 21.78485 4.0872808 20.9375 3.7363281 C 20.513825 3.5608518 20.035082 3.5040965 19.568359 3.5859375 C 19.101637 3.6677785 18.646666 3.8886049 18.267578 4.2675781 L 12.449219 10.085938 L 12.449219 6 C 12.44899 4.9279399 11.78485 4.0872808 10.9375 3.7363281 C 10.619744 3.6047209 10.271327 3.5404425 9.9199219 3.5507812 z M 9.9511719 4.4433594 C 10.170588 4.4396343 10.38953 4.483776 10.59375 4.5683594 C 11.138337 4.7939149 11.55063 5.290602 11.550781 6 L 11.550781 18 C 11.55063 18.709398 11.138337 19.206085 10.59375 19.431641 C 10.049163 19.657196 9.4059928 19.597248 8.9042969 19.095703 L 2.9042969 13.095703 C 2.29544 12.486662 2.29544 11.513338 2.9042969 10.904297 L 8.9042969 4.9042969 C 9.1551448 4.6535247 9.4409661 4.5123547 9.7324219 4.4628906 C 9.8052859 4.4505246 9.8780333 4.4446011 9.9511719 4.4433594 z M 19.951172 4.4433594 C 20.170587 4.4396341 20.38953 4.4837753 20.59375 4.5683594 C 21.138337 4.7939149 21.55063 5.290602 21.550781 6 L 21.550781 18 C 21.55063 18.709398 21.138337 19.206085 20.59375 19.431641 C 20.049163 19.657196 19.405993 19.597248 18.904297 19.095703 L 12.904297 13.095703 C 12.617689 12.809008 12.465996 12.442453 12.449219 12.070312 C 12.447132 12.024035 12.447132 11.975965 12.449219 11.929688 C 12.465996 11.557547 12.617689 11.190992 12.904297 10.904297 L 18.904297 4.9042969 C 19.155145 4.6535247 19.440966 4.5123547 19.732422 4.4628906 C 19.805286 4.4505246 19.878033 4.4446011 19.951172 4.4433594 z " />
</svg>
