<?xml version="1.0" encoding="UTF-8" standalone="no"?>
<svg
   width="24"
   height="24"
   viewBox="0 0 24 24"
   fill="none"
   stroke="currentColor"
   stroke-width="0.9"
   stroke-linecap="round"
   stroke-linejoin="round"
   version="1.1"
   id="svg5"
   sodipodi:docname=".tmp_ruler.svg"
   xmlns:inkscape="http://www.inkscape.org/namespaces/inkscape"
   xmlns:sodipodi="http://sodipodi.sourceforge.net/DTD/sodipodi-0.dtd"
   xmlns="http://www.w3.org/2000/svg"
   xmlns:svg="http://www.w3.org/2000/svg">
  <defs
     id="defs5" />
  <sodipodi:namedview
     id="namedview5"
     pagecolor="#ffffff"
     bordercolor="#000000"
     borderopacity="0.25"
     inkscape:showpageshadow="2"
     inkscape:pageopacity="0.0"
     inkscape:pagecheckerboard="0"
     inkscape:deskcolor="#d1d1d1" />
  <path
     id="path1"
     style="baseline-shift:baseline;display:inline;overflow:visible;vector-effect:none;fill:#000000;stroke:none;stroke-linecap:butt;stroke-linejoin:miter;enable-background:accumulate;stop-color:#000000;stop-opacity:1;opacity:1"
     d="M 7 1.5507812 C 6.2692984 1.5507814 5.5384461 1.8275188 4.9824219 2.3808594 L 2.3808594 4.9824219 C 1.2741782 6.0944703 1.2741782 7.9055297 2.3808594 9.0175781 L 14.982422 21.619141 C 16.092585 22.731038 17.910193 22.73043 19.019531 21.617188 L 21.617188 19.019531 L 21.619141 19.017578 C 22.730388 17.908064 22.730388 16.091936 21.619141 14.982422 L 19.818359 13.181641 L 9.0175781 2.3808594 C 8.4615539 1.8275188 7.7307016 1.5507812 7 1.5507812 z M 7 2.4453125 C 7.4983415 2.4453125 7.9969359 2.6365476 8.3808594 3.0175781 L 9.8632812 4.5 L 8.1816406 6.1816406 A 0.44999999 0.44999999 0 0 0 8.1816406 6.8183594 A 0.44999999 0.44999999 0 0 0 8.8183594 6.8183594 L 10.5 5.1367188 L 12.863281 7.5 L 11.181641 9.1816406 A 0.44999999 0.44999999 0 0 0 11.181641 9.8183594 A 0.44999999 0.44999999 0 0 0 11.818359 9.8183594 L 13.5 8.1367188 L 15.863281 10.5 L 14.181641 12.181641 A 0.44999999 0.44999999 0 0 0 14.181641 12.818359 A 0.44999999 0.44999999 0 0 0 14.818359 12.818359 L 16.5 11.136719 L 18.863281 13.5 L 17.181641 15.181641 A 0.44999999 0.44999999 0 0 0 17.181641 15.818359 A 0.44999999 0.44999999 0 0 0 17.818359 15.818359 L 19.5 14.136719 L 20.982422 15.619141 C 21.750955 16.38501 21.750955 17.61499 20.982422 18.380859 L 18.380859 20.982422 C 17.61499 21.750955 16.38501 21.750955 15.619141 20.982422 L 3.0195312 8.3828125 L 3.0175781 8.3808594 C 2.2555171 7.6130124 2.2555171 6.3869876 3.0175781 5.6191406 L 3.0195312 5.6171875 L 5.6171875 3.0195312 L 5.6191406 3.0175781 C 6.0030672 2.6365382 6.5016585 2.4453125 7 2.4453125 z " />
</svg>
