<?xml version="1.0" encoding="UTF-8" standalone="no"?>
<svg
   width="24"
   height="24"
   viewBox="0 0 24 24"
   fill="none"
   stroke="currentColor"
   stroke-width="0.9"
   stroke-linecap="round"
   stroke-linejoin="round"
   version="1.1"
   id="svg5"
   sodipodi:docname=".tmp_satellite.svg"
   xmlns:inkscape="http://www.inkscape.org/namespaces/inkscape"
   xmlns:sodipodi="http://sodipodi.sourceforge.net/DTD/sodipodi-0.dtd"
   xmlns="http://www.w3.org/2000/svg"
   xmlns:svg="http://www.w3.org/2000/svg">
  <defs
     id="defs5" />
  <sodipodi:namedview
     id="namedview5"
     pagecolor="#ffffff"
     bordercolor="#000000"
     borderopacity="0.25"
     inkscape:showpageshadow="2"
     inkscape:pageopacity="0.0"
     inkscape:pagecheckerboard="0"
     inkscape:deskcolor="#d1d1d1" />
  <path
     id="path1"
     style="baseline-shift:baseline;display:inline;overflow:visible;vector-effect:none;fill:#000000;stroke:none;stroke-linecap:butt;stroke-linejoin:miter;enable-background:accumulate;stop-color:#000000;stop-opacity:1;opacity:1"
     d="M 9.5 2.5527344 C 9.0755454 2.5527344 8.6513432 2.711986 8.3300781 3.0332031 L 6.0332031 5.3300781 C 5.3907689 5.9726083 5.3907689 7.0273917 6.0332031 7.6699219 L 8.875 10.511719 C 8.3952031 11.157894 8.4484318 12.085063 9.0332031 12.669922 L 11.330078 14.966797 C 11.914937 15.551568 12.842106 15.604797 13.488281 15.125 L 16.330078 17.966797 C 16.972608 18.609231 18.027392 18.609231 18.669922 17.966797 L 20.966797 15.669922 C 21.609231 15.027392 21.609231 13.972608 20.966797 13.330078 L 18.125 10.488281 C 18.604797 9.8421063 18.551568 8.9149369 17.966797 8.3300781 L 17.136719 7.5 L 19.318359 5.3183594 A 0.44999999 0.44999999 0 0 0 19.318359 4.6816406 A 0.44999999 0.44999999 0 0 0 18.681641 4.6816406 L 16.5 6.8632812 L 15.669922 6.0332031 C 15.348657 5.711986 14.924455 5.5527344 14.5 5.5527344 C 14.151769 5.5527344 13.802906 5.6591211 13.511719 5.875 L 10.669922 3.0332031 C 10.348657 2.711986 9.9244546 2.5527344 9.5 2.5527344 z M 9.5 3.4453125 C 9.6919505 3.4453125 9.8839011 3.5206421 10.033203 3.6699219 L 12.863281 6.5 L 9.5 9.8632812 L 6.6699219 7.0332031 C 6.3713623 6.7345989 6.3713623 6.2654011 6.6699219 5.9667969 L 8.9667969 3.6699219 C 9.116099 3.5206421 9.3080495 3.4453125 9.5 3.4453125 z M 14.5 6.4453125 C 14.69195 6.4453125 14.883901 6.5206421 15.033203 6.6699219 L 16.181641 7.8183594 L 17.330078 8.9667969 C 17.628638 9.2654011 17.628638 9.734599 17.330078 10.033203 L 17.181641 10.181641 L 13.181641 14.181641 L 13.033203 14.330078 C 12.734599 14.628638 12.265401 14.628638 11.966797 14.330078 L 9.6699219 12.033203 C 9.3713623 11.734599 9.3713623 11.265401 9.6699219 10.966797 L 9.8183594 10.818359 L 13.818359 6.8183594 L 13.966797 6.6699219 C 14.116099 6.5206421 14.30805 6.4453125 14.5 6.4453125 z M 17.5 11.136719 L 20.330078 13.966797 C 20.628638 14.265401 20.628638 14.734599 20.330078 15.033203 L 18.033203 17.330078 C 17.734599 17.628638 17.265401 17.628638 16.966797 17.330078 L 14.136719 14.5 L 17.5 11.136719 z M 3 14.550781 A 0.44999999 0.44999999 0 0 0 2.5507812 15 A 0.44999999 0.44999999 0 0 0 3 15.449219 C 6.0705105 15.449219 8.5507812 17.92949 8.5507812 21 A 0.44999999 0.44999999 0 0 0 9 21.449219 A 0.44999999 0.44999999 0 0 0 9.4492188 21 C 9.4492188 17.443093 6.5569065 14.550781 3 14.550781 z " />
</svg>
