<?xml version="1.0" encoding="UTF-8" standalone="no"?>
<svg
   width="24"
   height="24"
   viewBox="0 0 24 24"
   fill="none"
   stroke="currentColor"
   stroke-width="0.9"
   stroke-linecap="round"
   stroke-linejoin="round"
   version="1.1"
   id="svg5"
   sodipodi:docname=".tmp_scale.svg"
   xmlns:inkscape="http://www.inkscape.org/namespaces/inkscape"
   xmlns:sodipodi="http://sodipodi.sourceforge.net/DTD/sodipodi-0.dtd"
   xmlns="http://www.w3.org/2000/svg"
   xmlns:svg="http://www.w3.org/2000/svg">
  <defs
     id="defs5" />
  <sodipodi:namedview
     id="namedview5"
     pagecolor="#ffffff"
     bordercolor="#000000"
     borderopacity="0.25"
     inkscape:showpageshadow="2"
     inkscape:pageopacity="0.0"
     inkscape:pagecheckerboard="0"
     inkscape:deskcolor="#d1d1d1" />
  <path
     id="path1"
     style="baseline-shift:baseline;display:inline;overflow:visible;vector-effect:none;fill:#000000;stroke:none;stroke-linecap:butt;stroke-linejoin:miter;enable-background:accumulate;stop-color:#000000;stop-opacity:1;opacity:1"
     d="M 12 2.5507812 A 0.44999999 0.44999999 0 0 0 11.550781 3 L 11.550781 4.71875 C 9.6048554 5.650369 6.7730946 6.5507813 5 6.5507812 L 3 6.5507812 A 0.44999999 0.44999999 0 0 0 2.5507812 7 A 0.44999999 0.44999999 0 0 0 3 7.4492188 L 5 7.4492188 C 6.9404136 7.4492188 9.5496575 6.6130337 11.550781 5.6953125 L 11.550781 20.550781 L 7 20.550781 A 0.44999999 0.44999999 0 0 0 6.5507812 21 A 0.44999999 0.44999999 0 0 0 7 21.449219 L 17 21.449219 A 0.44999999 0.44999999 0 0 0 17.449219 21 A 0.44999999 0.44999999 0 0 0 17 20.550781 L 12.449219 20.550781 L 12.449219 5.6953125 C 14.450343 6.6130337 17.059586 7.4492188 19 7.4492188 L 21 7.4492188 A 0.44999999 0.44999999 0 0 0 21.449219 7 A 0.44999999 0.44999999 0 0 0 21 6.5507812 L 19 6.5507812 C 17.226905 6.5507812 14.395144 5.6503689 12.449219 4.71875 L 12.449219 3 A 0.44999999 0.44999999 0 0 0 12 2.5507812 z M 5 7.5488281 A 0.45004499 0.45004499 0 0 0 4.578125 7.8417969 L 1.578125 15.841797 A 0.45004499 0.45004499 0 0 0 1.7304688 16.361328 C 2.6774953 17.068877 3.8227778 17.449219 5 17.449219 C 6.1772222 17.449219 7.3225046 17.068877 8.2695312 16.361328 A 0.45004499 0.45004499 0 0 0 8.421875 15.841797 L 5.421875 7.8417969 A 0.45004499 0.45004499 0 0 0 5 7.5488281 z M 19 7.5488281 A 0.45004499 0.45004499 0 0 0 18.578125 7.8417969 L 15.578125 15.841797 A 0.45004499 0.45004499 0 0 0 15.730469 16.361328 C 16.677495 17.068877 17.822778 17.449219 19 17.449219 C 20.177222 17.449219 21.322505 17.068877 22.269531 16.361328 A 0.45004499 0.45004499 0 0 0 22.421875 15.841797 L 19.421875 7.8417969 A 0.45004499 0.45004499 0 0 0 19 7.5488281 z M 5 9.2832031 L 7.421875 15.742188 C 6.687601 16.212122 5.8716591 16.550781 5 16.550781 C 4.1283409 16.550781 3.312399 16.212122 2.578125 15.742188 L 5 9.2832031 z M 19 9.2832031 L 21.421875 15.742188 C 20.687601 16.212122 19.871659 16.550781 19 16.550781 C 18.128341 16.550781 17.312399 16.212122 16.578125 15.742188 L 19 9.2832031 z " />
</svg>
