<?xml version="1.0" encoding="UTF-8" standalone="no"?>
<svg
   width="24"
   height="24"
   viewBox="0 0 24 24"
   fill="none"
   stroke="currentColor"
   stroke-width="0.9"
   stroke-linecap="round"
   stroke-linejoin="round"
   version="1.1"
   id="svg4"
   sodipodi:docname=".tmp_scaling.svg"
   xmlns:inkscape="http://www.inkscape.org/namespaces/inkscape"
   xmlns:sodipodi="http://sodipodi.sourceforge.net/DTD/sodipodi-0.dtd"
   xmlns="http://www.w3.org/2000/svg"
   xmlns:svg="http://www.w3.org/2000/svg">
  <defs
     id="defs4" />
  <sodipodi:namedview
     id="namedview4"
     pagecolor="#ffffff"
     bordercolor="#000000"
     borderopacity="0.25"
     inkscape:showpageshadow="2"
     inkscape:pageopacity="0.0"
     inkscape:pagecheckerboard="0"
     inkscape:deskcolor="#d1d1d1" />
  <path
     id="path1"
     style="baseline-shift:baseline;display:inline;overflow:visible;vector-effect:none;fill:#000000;stroke:none;stroke-linecap:butt;stroke-linejoin:miter;enable-background:accumulate;stop-color:#000000;stop-opacity:1;opacity:1"
     d="M 5 2.5507812 C 3.6522325 2.5507812 2.5507813 3.6522325 2.5507812 5 L 2.5507812 19 C 2.5507812 20.347768 3.6522325 21.449219 5 21.449219 L 19 21.449219 C 20.347768 21.449219 21.449219 20.347768 21.449219 19 L 21.449219 12 A 0.44999999 0.44999999 0 0 0 21 11.550781 A 0.44999999 0.44999999 0 0 0 20.550781 12 L 20.550781 19 C 20.550781 19.861371 19.861371 20.550781 19 20.550781 L 5 20.550781 C 4.1386285 20.550781 3.4492188 19.861371 3.4492188 19 L 3.4492188 5 C 3.4492188 4.1386285 4.1386285 3.4492188 5 3.4492188 L 12 3.4492188 A 0.44999999 0.44999999 0 0 0 12.449219 3 A 0.44999999 0.44999999 0 0 0 12 2.5507812 L 5 2.5507812 z M 16 2.5507812 A 0.44999999 0.44999999 0 0 0 15.550781 3 A 0.44999999 0.44999999 0 0 0 16 3.4492188 L 19.914062 3.4492188 L 9.4492188 13.914062 L 9.4492188 10 A 0.44999999 0.44999999 0 0 0 9 9.5507812 A 0.44999999 0.44999999 0 0 0 8.5507812 10 L 8.5507812 14.96875 L 8.5507812 15 A 0.44999999 0.44999999 0 0 0 8.5546875 15.058594 A 0.44999999 0.44999999 0 0 0 8.5664062 15.115234 A 0.44999999 0.44999999 0 0 0 8.6816406 15.318359 A 0.44999999 0.44999999 0 0 0 8.8847656 15.433594 A 0.44999999 0.44999999 0 0 0 8.9414062 15.445312 A 0.44999999 0.44999999 0 0 0 9 15.449219 A 0.44999999 0.44999999 0 0 0 9.03125 15.449219 L 14 15.449219 A 0.44999999 0.44999999 0 0 0 14.449219 15 A 0.44999999 0.44999999 0 0 0 14 14.550781 L 10.085938 14.550781 L 20.550781 4.0859375 L 20.550781 8 A 0.44999999 0.44999999 0 0 0 21 8.4492188 A 0.44999999 0.44999999 0 0 0 21.449219 8 L 21.449219 3.03125 A 0.44999999 0.44999999 0 0 0 21.449219 3 A 0.44999999 0.44999999 0 0 0 21.445312 2.9414062 A 0.44999999 0.44999999 0 0 0 21.433594 2.8847656 A 0.44999999 0.44999999 0 0 0 21.318359 2.6816406 A 0.44999999 0.44999999 0 0 0 21.115234 2.5664062 A 0.44999999 0.44999999 0 0 0 21.058594 2.5546875 A 0.44999999 0.44999999 0 0 0 21 2.5507812 L 20.96875 2.5507812 L 16 2.5507812 z " />
</svg>
