<?xml version="1.0" encoding="UTF-8" standalone="no"?>
<svg
   width="24"
   height="24"
   viewBox="0 0 24 24"
   fill="none"
   stroke="currentColor"
   stroke-width="0.9"
   stroke-linecap="round"
   stroke-linejoin="round"
   version="1.1"
   id="svg7"
   sodipodi:docname=".tmp_scan-face.svg"
   xmlns:inkscape="http://www.inkscape.org/namespaces/inkscape"
   xmlns:sodipodi="http://sodipodi.sourceforge.net/DTD/sodipodi-0.dtd"
   xmlns="http://www.w3.org/2000/svg"
   xmlns:svg="http://www.w3.org/2000/svg">
  <defs
     id="defs7" />
  <sodipodi:namedview
     id="namedview7"
     pagecolor="#ffffff"
     bordercolor="#000000"
     borderopacity="0.25"
     inkscape:showpageshadow="2"
     inkscape:pageopacity="0.0"
     inkscape:pagecheckerboard="0"
     inkscape:deskcolor="#d1d1d1" />
  <path
     id="path1"
     style="baseline-shift:baseline;display:inline;overflow:visible;vector-effect:none;fill:#000000;stroke:none;stroke-linecap:butt;stroke-linejoin:miter;enable-background:accumulate;stop-color:#000000;stop-opacity:1;opacity:1"
     d="M 5 2.5507812 C 3.6522325 2.5507812 2.5507813 3.6522325 2.5507812 5 L 2.5507812 7 A 0.44999999 0.44999999 0 0 0 3 7.4492188 A 0.44999999 0.44999999 0 0 0 3.4492188 7 L 3.4492188 5 C 3.4492188 4.1386285 4.1386285 3.4492188 5 3.4492188 L 7 3.4492188 A 0.44999999 0.44999999 0 0 0 7.4492188 3 A 0.44999999 0.44999999 0 0 0 7 2.5507812 L 5 2.5507812 z M 17 2.5507812 A 0.44999999 0.44999999 0 0 0 16.550781 3 A 0.44999999 0.44999999 0 0 0 17 3.4492188 L 19 3.4492188 C 19.861371 3.4492188 20.550781 4.1386285 20.550781 5 L 20.550781 7 A 0.44999999 0.44999999 0 0 0 21 7.4492188 A 0.44999999 0.44999999 0 0 0 21.449219 7 L 21.449219 5 C 21.449219 3.6522325 20.347768 2.5507813 19 2.5507812 L 17 2.5507812 z M 9 8.5507812 A 0.44999999 0.44999999 0 0 0 8.5507812 9 A 0.44999999 0.44999999 0 0 0 9 9.4492188 L 9.0097656 9.4492188 A 0.44999999 0.44999999 0 0 0 9.4609375 9 A 0.44999999 0.44999999 0 0 0 9.0097656 8.5507812 L 9 8.5507812 z M 15 8.5507812 A 0.44999999 0.44999999 0 0 0 14.550781 9 A 0.44999999 0.44999999 0 0 0 15 9.4492188 L 15.009766 9.4492188 A 0.44999999 0.44999999 0 0 0 15.460938 9 A 0.44999999 0.44999999 0 0 0 15.009766 8.5507812 L 15 8.5507812 z M 8.0058594 13.550781 A 0.44999999 0.44999999 0 0 0 7.7304688 13.640625 A 0.44999999 0.44999999 0 0 0 7.640625 14.269531 C 7.640625 14.269531 9.26 16.449219 12 16.449219 C 14.74 16.449219 16.359375 14.269531 16.359375 14.269531 A 0.44999999 0.44999999 0 0 0 16.269531 13.640625 A 0.44999999 0.44999999 0 0 0 15.640625 13.730469 C 15.640625 13.730469 14.26 15.550781 12 15.550781 C 9.74 15.550781 8.359375 13.730469 8.359375 13.730469 A 0.44999999 0.44999999 0 0 0 8.0058594 13.550781 z M 3 16.550781 A 0.44999999 0.44999999 0 0 0 2.5507812 17 L 2.5507812 19 C 2.5507812 20.347768 3.6522325 21.449219 5 21.449219 L 7 21.449219 A 0.44999999 0.44999999 0 0 0 7.4492188 21 A 0.44999999 0.44999999 0 0 0 7 20.550781 L 5 20.550781 C 4.1386285 20.550781 3.4492188 19.861371 3.4492188 19 L 3.4492188 17 A 0.44999999 0.44999999 0 0 0 3 16.550781 z M 21 16.550781 A 0.44999999 0.44999999 0 0 0 20.550781 17 L 20.550781 19 C 20.550781 19.861371 19.861371 20.550781 19 20.550781 L 17 20.550781 A 0.44999999 0.44999999 0 0 0 16.550781 21 A 0.44999999 0.44999999 0 0 0 17 21.449219 L 19 21.449219 C 20.347768 21.449219 21.449219 20.347768 21.449219 19 L 21.449219 17 A 0.44999999 0.44999999 0 0 0 21 16.550781 z " />
</svg>
