<?xml version="1.0" encoding="UTF-8" standalone="no"?>
<svg
   width="24"
   height="24"
   viewBox="0 0 24 24"
   fill="none"
   stroke="currentColor"
   stroke-width="0.9"
   stroke-linecap="round"
   stroke-linejoin="round"
   version="1.1"
   id="svg5"
   sodipodi:docname=".tmp_scissors-line-dashed.svg"
   xmlns:inkscape="http://www.inkscape.org/namespaces/inkscape"
   xmlns:sodipodi="http://sodipodi.sourceforge.net/DTD/sodipodi-0.dtd"
   xmlns="http://www.w3.org/2000/svg"
   xmlns:svg="http://www.w3.org/2000/svg">
  <defs
     id="defs5" />
  <sodipodi:namedview
     id="namedview5"
     pagecolor="#ffffff"
     bordercolor="#000000"
     borderopacity="0.25"
     inkscape:showpageshadow="2"
     inkscape:pageopacity="0.0"
     inkscape:pagecheckerboard="0"
     inkscape:deskcolor="#d1d1d1" />
  <path
     id="path1"
     style="baseline-shift:baseline;display:inline;overflow:visible;vector-effect:none;fill:#000000;stroke:none;stroke-linecap:butt;stroke-linejoin:miter;enable-background:accumulate;stop-color:#000000;stop-opacity:1;opacity:1"
     d="M 14 5.5488281 A 0.44999999 0.44999999 0 0 0 13.681641 5.6816406 L 8 11.363281 L 6.0195312 9.3828125 C 6.29057 8.9887835 6.4492188 8.5120096 6.4492188 8 C 6.4492188 6.6522325 5.3477675 5.5507812 4 5.5507812 C 2.6522325 5.5507812 1.5507813 6.6522325 1.5507812 8 C 1.5507812 9.3477675 2.6522325 10.449219 4 10.449219 C 4.5120097 10.449219 4.9887835 10.29057 5.3828125 10.019531 L 7.3632812 12 L 5.3828125 13.980469 C 4.9887835 13.70943 4.5120098 13.550781 4 13.550781 C 2.6522325 13.550781 1.5507812 14.652232 1.5507812 16 C 1.5507812 17.347768 2.6522325 18.449219 4 18.449219 C 5.3477675 18.449219 6.4492188 17.347768 6.4492188 16 C 6.4492188 15.48799 6.2905698 15.011216 6.0195312 14.617188 L 14.318359 6.3183594 A 0.44999999 0.44999999 0 0 0 14.318359 5.6816406 A 0.44999999 0.44999999 0 0 0 14 5.5488281 z M 4 6.4492188 C 4.8613715 6.4492188 5.5507812 7.1386285 5.5507812 8 C 5.5507812 8.8613715 4.8613715 9.5507812 4 9.5507812 C 3.1386285 9.5507812 2.4492187 8.8613715 2.4492188 8 C 2.4492188 7.1386285 3.1386285 6.4492188 4 6.4492188 z M 14 11.550781 A 0.44999999 0.44999999 0 0 0 13.550781 12 A 0.44999999 0.44999999 0 0 0 14 12.449219 L 16 12.449219 A 0.44999999 0.44999999 0 0 0 16.449219 12 A 0.44999999 0.44999999 0 0 0 16 11.550781 L 14 11.550781 z M 20 11.550781 A 0.44999999 0.44999999 0 0 0 19.550781 12 A 0.44999999 0.44999999 0 0 0 20 12.449219 L 22 12.449219 A 0.44999999 0.44999999 0 0 0 22.449219 12 A 0.44999999 0.44999999 0 0 0 22 11.550781 L 20 11.550781 z M 10.800781 14.349609 A 0.44999999 0.44999999 0 0 0 10.482422 14.482422 A 0.44999999 0.44999999 0 0 0 10.482422 15.119141 L 13.681641 18.318359 A 0.44999999 0.44999999 0 0 0 14.318359 18.318359 A 0.44999999 0.44999999 0 0 0 14.318359 17.681641 L 11.119141 14.482422 A 0.44999999 0.44999999 0 0 0 10.800781 14.349609 z M 4 14.449219 C 4.8613715 14.449219 5.5507812 15.138629 5.5507812 16 C 5.5507812 16.861371 4.8613715 17.550781 4 17.550781 C 3.1386285 17.550781 2.4492187 16.861371 2.4492188 16 C 2.4492188 15.138629 3.1386285 14.449219 4 14.449219 z " />
</svg>
