<?xml version="1.0" encoding="UTF-8" standalone="no"?>
<svg
   width="24"
   height="24"
   viewBox="0 0 24 24"
   fill="none"
   stroke="currentColor"
   stroke-width="0.9"
   stroke-linecap="round"
   stroke-linejoin="round"
   version="1.1"
   id="svg3"
   sodipodi:docname=".tmp_separator-vertical.svg"
   xmlns:inkscape="http://www.inkscape.org/namespaces/inkscape"
   xmlns:sodipodi="http://sodipodi.sourceforge.net/DTD/sodipodi-0.dtd"
   xmlns="http://www.w3.org/2000/svg"
   xmlns:svg="http://www.w3.org/2000/svg">
  <defs
     id="defs3" />
  <sodipodi:namedview
     id="namedview3"
     pagecolor="#ffffff"
     bordercolor="#000000"
     borderopacity="0.25"
     inkscape:showpageshadow="2"
     inkscape:pageopacity="0.0"
     inkscape:pagecheckerboard="0"
     inkscape:deskcolor="#d1d1d1" />
  <path
     id="path1"
     style="baseline-shift:baseline;display:inline;overflow:visible;vector-effect:none;fill:#000000;stroke:none;stroke-linecap:butt;stroke-linejoin:miter;enable-background:accumulate;stop-color:#000000;stop-opacity:1;opacity:1"
     d="M 12 2.5507812 A 0.44999999 0.44999999 0 0 0 11.550781 3 L 11.550781 21 A 0.44999999 0.44999999 0 0 0 12 21.449219 A 0.44999999 0.44999999 0 0 0 12.449219 21 L 12.449219 3 A 0.44999999 0.44999999 0 0 0 12 2.5507812 z M 8 7.5488281 A 0.44999999 0.44999999 0 0 0 7.6816406 7.6816406 L 3.6816406 11.681641 A 0.45004499 0.45004499 0 0 0 3.6816406 12.318359 L 7.6816406 16.318359 A 0.44999999 0.44999999 0 0 0 8.3183594 16.318359 A 0.44999999 0.44999999 0 0 0 8.3183594 15.681641 L 4.6367188 12 L 8.3183594 8.3183594 A 0.44999999 0.44999999 0 0 0 8.3183594 7.6816406 A 0.44999999 0.44999999 0 0 0 8 7.5488281 z M 16 7.5488281 A 0.44999999 0.44999999 0 0 0 15.681641 7.6816406 A 0.44999999 0.44999999 0 0 0 15.681641 8.3183594 L 19.363281 12 L 15.681641 15.681641 A 0.44999999 0.44999999 0 0 0 15.681641 16.318359 A 0.44999999 0.44999999 0 0 0 16.318359 16.318359 L 20.318359 12.318359 A 0.45004499 0.45004499 0 0 0 20.318359 11.681641 L 16.318359 7.6816406 A 0.44999999 0.44999999 0 0 0 16 7.5488281 z " />
</svg>
