<?xml version="1.0" encoding="UTF-8" standalone="no"?>
<svg
   width="24"
   height="24"
   viewBox="0 0 24 24"
   fill="none"
   stroke="currentColor"
   stroke-width="0.9"
   stroke-linecap="round"
   stroke-linejoin="round"
   version="1.1"
   id="svg1"
   sodipodi:docname=".tmp_shirt.svg"
   xmlns:inkscape="http://www.inkscape.org/namespaces/inkscape"
   xmlns:sodipodi="http://sodipodi.sourceforge.net/DTD/sodipodi-0.dtd"
   xmlns="http://www.w3.org/2000/svg"
   xmlns:svg="http://www.w3.org/2000/svg">
  <defs
     id="defs1" />
  <sodipodi:namedview
     id="namedview1"
     pagecolor="#ffffff"
     bordercolor="#000000"
     borderopacity="0.25"
     inkscape:showpageshadow="2"
     inkscape:pageopacity="0.0"
     inkscape:pagecheckerboard="0"
     inkscape:deskcolor="#d1d1d1" />
  <path
     id="path1"
     style="baseline-shift:baseline;display:inline;overflow:visible;vector-effect:none;fill:#000000;stroke:none;stroke-linecap:butt;stroke-linejoin:miter;enable-background:accumulate;stop-color:#000000;stop-opacity:1;opacity:1"
     d="M 7.9765625 1.5507812 A 0.45004499 0.45004499 0 0 0 7.8574219 1.5722656 L 3.4785156 3.0332031 C 2.336623 3.4136373 1.6368323 4.5768541 1.8359375 5.7636719 L 2.4160156 9.234375 C 2.5302053 9.9333692 3.1413632 10.450309 3.8496094 10.449219 L 5.5507812 10.449219 L 5.5507812 20 C 5.5507812 21.345455 6.6545455 22.449219 8 22.449219 L 16 22.449219 C 17.347768 22.449219 18.449219 21.347768 18.449219 20 L 18.449219 10.449219 L 20.150391 10.449219 C 20.858637 10.450319 21.469795 9.9333692 21.583984 9.234375 L 21.583984 9.2324219 L 22.164062 5.765625 C 22.364295 4.5781099 21.664022 3.4138521 20.521484 3.0332031 L 16.142578 1.5722656 A 0.45004499 0.45004499 0 0 0 15.550781 2 C 15.550781 3.2208327 15.10839 4.0798688 14.451172 4.6640625 C 13.793954 5.2482562 12.9 5.5507812 12 5.5507812 C 11.1 5.5507812 10.206046 5.2482562 9.5488281 4.6640625 C 8.89161 4.0798688 8.4492187 3.2208327 8.4492188 2 A 0.45004499 0.45004499 0 0 0 7.9765625 1.5507812 z M 7.6679688 2.5859375 C 7.8064259 3.7320421 8.2363823 4.7005692 8.9511719 5.3359375 C 9.7939537 6.0850766 10.9 6.4492187 12 6.4492188 C 13.1 6.4492188 14.206046 6.0850766 15.048828 5.3359375 C 15.763618 4.7005692 16.193574 3.7320421 16.332031 2.5859375 L 20.238281 3.8867188 C 20.966075 4.1291912 21.402938 4.8587899 21.275391 5.6152344 L 20.695312 9.0859375 A 0.45004499 0.45004499 0 0 0 20.695312 9.0878906 C 20.651543 9.3579253 20.423948 9.5515697 20.150391 9.5507812 L 18 9.5507812 A 0.45004499 0.45004499 0 0 0 17.550781 10 L 17.550781 20 C 17.550781 20.861371 16.861371 21.550781 16 21.550781 L 8 21.550781 C 7.1454545 21.550781 6.4492187 20.854545 6.4492188 20 L 6.4492188 10 A 0.45004499 0.45004499 0 0 0 6 9.5507812 L 3.8496094 9.5507812 C 3.5760518 9.5515696 3.3484558 9.3579253 3.3046875 9.0878906 A 0.45004499 0.45004499 0 0 0 3.3046875 9.0859375 L 2.7246094 5.6152344 C 2.5970617 4.8587899 3.0339249 4.1291913 3.7617188 3.8867188 L 7.6679688 2.5859375 z " />
</svg>
