<?xml version="1.0" encoding="UTF-8" standalone="no"?>
<svg
   width="24"
   height="24"
   viewBox="0 0 24 24"
   fill="none"
   stroke="currentColor"
   stroke-width="0.9"
   stroke-linecap="round"
   stroke-linejoin="round"
   version="1.1"
   id="svg9"
   sodipodi:docname=".tmp_sliders-vertical.svg"
   xmlns:inkscape="http://www.inkscape.org/namespaces/inkscape"
   xmlns:sodipodi="http://sodipodi.sourceforge.net/DTD/sodipodi-0.dtd"
   xmlns="http://www.w3.org/2000/svg"
   xmlns:svg="http://www.w3.org/2000/svg">
  <defs
     id="defs9" />
  <sodipodi:namedview
     id="namedview9"
     pagecolor="#ffffff"
     bordercolor="#000000"
     borderopacity="0.25"
     inkscape:showpageshadow="2"
     inkscape:pageopacity="0.0"
     inkscape:pagecheckerboard="0"
     inkscape:deskcolor="#d1d1d1" />
  <path
     id="path1"
     style="baseline-shift:baseline;display:inline;overflow:visible;vector-effect:none;fill:#000000;stroke:none;stroke-linecap:butt;stroke-linejoin:miter;enable-background:accumulate;stop-color:#000000;stop-opacity:1;opacity:1"
     d="M 5 2.5507812 A 0.44999999 0.44999999 0 0 0 4.5507812 3 L 4.5507812 10 A 0.44999999 0.44999999 0 0 0 5 10.449219 A 0.44999999 0.44999999 0 0 0 5.4492188 10 L 5.4492188 3 A 0.44999999 0.44999999 0 0 0 5 2.5507812 z M 12 2.5507812 A 0.44999999 0.44999999 0 0 0 11.550781 3 L 11.550781 7.5507812 L 10 7.5507812 A 0.44999999 0.44999999 0 0 0 9.5507812 8 A 0.44999999 0.44999999 0 0 0 10 8.4492188 L 14 8.4492188 A 0.44999999 0.44999999 0 0 0 14.449219 8 A 0.44999999 0.44999999 0 0 0 14 7.5507812 L 12.449219 7.5507812 L 12.449219 3 A 0.44999999 0.44999999 0 0 0 12 2.5507812 z M 19 2.5507812 A 0.44999999 0.44999999 0 0 0 18.550781 3 L 18.550781 12 A 0.44999999 0.44999999 0 0 0 19 12.449219 A 0.44999999 0.44999999 0 0 0 19.449219 12 L 19.449219 3 A 0.44999999 0.44999999 0 0 0 19 2.5507812 z M 12 11.550781 A 0.44999999 0.44999999 0 0 0 11.550781 12 L 11.550781 21 A 0.44999999 0.44999999 0 0 0 12 21.449219 A 0.44999999 0.44999999 0 0 0 12.449219 21 L 12.449219 12 A 0.44999999 0.44999999 0 0 0 12 11.550781 z M 3 13.550781 A 0.44999999 0.44999999 0 0 0 2.5507812 14 A 0.44999999 0.44999999 0 0 0 3 14.449219 L 4.5507812 14.449219 L 4.5507812 21 A 0.44999999 0.44999999 0 0 0 5 21.449219 A 0.44999999 0.44999999 0 0 0 5.4492188 21 L 5.4492188 14.449219 L 7 14.449219 A 0.44999999 0.44999999 0 0 0 7.4492188 14 A 0.44999999 0.44999999 0 0 0 7 13.550781 L 5 13.550781 L 3 13.550781 z M 17 15.550781 A 0.44999999 0.44999999 0 0 0 16.550781 16 A 0.44999999 0.44999999 0 0 0 17 16.449219 L 18.550781 16.449219 L 18.550781 21 A 0.44999999 0.44999999 0 0 0 19 21.449219 A 0.44999999 0.44999999 0 0 0 19.449219 21 L 19.449219 16.449219 L 21 16.449219 A 0.44999999 0.44999999 0 0 0 21.449219 16 A 0.44999999 0.44999999 0 0 0 21 15.550781 L 17 15.550781 z " />
</svg>
