<?xml version="1.0" encoding="UTF-8" standalone="no"?>
<svg
   width="24"
   height="24"
   viewBox="0 0 24 24"
   fill="none"
   stroke="currentColor"
   stroke-width="0.9"
   stroke-linecap="round"
   stroke-linejoin="round"
   version="1.1"
   id="svg5"
   sodipodi:docname=".tmp_spotlight.svg"
   xmlns:inkscape="http://www.inkscape.org/namespaces/inkscape"
   xmlns:sodipodi="http://sodipodi.sourceforge.net/DTD/sodipodi-0.dtd"
   xmlns="http://www.w3.org/2000/svg"
   xmlns:svg="http://www.w3.org/2000/svg">
  <defs
     id="defs5" />
  <sodipodi:namedview
     id="namedview5"
     pagecolor="#ffffff"
     bordercolor="#000000"
     borderopacity="0.25"
     inkscape:showpageshadow="2"
     inkscape:pageopacity="0.0"
     inkscape:pagecheckerboard="0"
     inkscape:deskcolor="#d1d1d1" />
  <path
     id="path1"
     style="baseline-shift:baseline;display:inline;overflow:visible;vector-effect:none;fill:#000000;stroke:none;stroke-linecap:butt;stroke-linejoin:miter;enable-background:accumulate;stop-color:#000000;stop-opacity:1;opacity:1"
     d="M 8 1.5507812 A 0.44999999 0.44999999 0 0 0 7.5507812 2 L 7.5507812 5.7871094 C 7.2134382 5.6596514 6.8660491 5.5882494 6.5195312 5.5703125 C 5.2210848 5.5031006 3.9408077 6.1762359 3.2929688 7.3867188 A 0.45004499 0.45004499 0 0 0 3.2871094 7.4003906 L 1.90625 10.191406 A 0.45004499 0.45004499 0 0 0 1.9023438 10.199219 C 1.1316579 11.853336 1.7887888 13.833915 3.3964844 14.697266 A 0.45004499 0.45004499 0 0 0 3.4023438 14.699219 L 10.291016 18.296875 A 0.45004499 0.45004499 0 0 0 10.298828 18.298828 C 11.010371 18.65497 11.888273 18.362068 12.244141 17.650391 L 15.349609 11.439453 A 0.45004499 0.45004499 0 0 0 15.351562 11.439453 C 15.706297 10.729137 15.414013 9.8547551 14.705078 9.4980469 L 8.4492188 6.2304688 L 8.4492188 2 A 0.44999999 0.44999999 0 0 0 8 1.5507812 z M 6.2285156 6.4667969 C 6.6257146 6.4503747 7.0330089 6.5262904 7.4179688 6.7070312 L 7.5507812 6.7773438 L 7.5507812 9 A 0.44999999 0.44999999 0 0 0 8 9.4492188 A 0.44999999 0.44999999 0 0 0 8.4492188 9 L 8.4492188 7.2460938 L 14.292969 10.296875 A 0.45004499 0.45004499 0 0 0 14.298828 10.300781 C 14.57502 10.439042 14.682919 10.760786 14.544922 11.037109 L 11.439453 17.248047 C 11.301177 17.524578 10.97765 17.632524 10.701172 17.494141 L 3.8203125 13.900391 L 3.8183594 13.900391 C 2.6270245 13.257184 2.1466814 11.807904 2.71875 10.580078 L 4.0859375 7.8125 L 4.0878906 7.8105469 C 4.4090954 7.2120087 4.9333747 6.792025 5.53125 6.59375 C 5.7557801 6.5192885 5.9901962 6.4766502 6.2285156 6.4667969 z M 21.998047 11.453125 A 0.44999999 0.44999999 0 0 0 21.939453 11.460938 L 18.912109 12.058594 A 0.44999999 0.44999999 0 0 0 18.558594 12.587891 A 0.44999999 0.44999999 0 0 0 19.087891 12.941406 L 22.113281 12.34375 A 0.44999999 0.44999999 0 0 0 22.466797 11.814453 A 0.44999999 0.44999999 0 0 0 21.998047 11.453125 z M 16.994141 15.550781 A 0.44999999 0.44999999 0 0 0 16.607422 15.78125 A 0.44999999 0.44999999 0 0 0 16.78125 16.392578 L 20.539062 18.490234 A 0.44999999 0.44999999 0 0 0 21.150391 18.316406 A 0.44999999 0.44999999 0 0 0 20.976562 17.705078 L 17.21875 15.607422 A 0.44999999 0.44999999 0 0 0 16.994141 15.550781 z M 15.285156 19.111328 A 0.44999999 0.44999999 0 0 0 15.169922 19.128906 A 0.44999999 0.44999999 0 0 0 14.863281 19.6875 L 15.568359 22.125 A 0.44999999 0.44999999 0 0 0 16.125 22.431641 A 0.44999999 0.44999999 0 0 0 16.431641 21.875 L 15.726562 19.4375 A 0.44999999 0.44999999 0 0 0 15.285156 19.111328 z " />
</svg>
