<?xml version="1.0" encoding="UTF-8" standalone="no"?>
<svg
   width="24"
   height="24"
   viewBox="0 0 24 24"
   fill="none"
   stroke="currentColor"
   stroke-width="0.9"
   stroke-linecap="round"
   stroke-linejoin="round"
   version="1.1"
   id="svg1"
   sodipodi:docname=".tmp_square-m.svg"
   xmlns:inkscape="http://www.inkscape.org/namespaces/inkscape"
   xmlns:sodipodi="http://sodipodi.sourceforge.net/DTD/sodipodi-0.dtd"
   xmlns="http://www.w3.org/2000/svg"
   xmlns:svg="http://www.w3.org/2000/svg">
  <defs
     id="defs1" />
  <sodipodi:namedview
     id="namedview1"
     pagecolor="#ffffff"
     bordercolor="#000000"
     borderopacity="0.25"
     inkscape:showpageshadow="2"
     inkscape:pageopacity="0.0"
     inkscape:pagecheckerboard="0"
     inkscape:deskcolor="#d1d1d1" />
  <path
     id="path1"
     style="baseline-shift:baseline;display:inline;overflow:visible;vector-effect:none;fill:#000000;stroke:none;stroke-linecap:butt;stroke-linejoin:miter;enable-background:accumulate;stop-color:#000000;stop-opacity:1;opacity:1"
     d="M 5 2.5507812 C 3.6504838 2.5507812 2.5507812 3.6504838 2.5507812 5 L 2.5507812 19 C 2.5507812 20.349516 3.6504838 21.449219 5 21.449219 L 19 21.449219 C 20.349516 21.449219 21.449219 20.349516 21.449219 19 L 21.449219 5 C 21.449219 3.6504838 20.349516 2.5507812 19 2.5507812 L 5 2.5507812 z M 5 3.4492188 L 19 3.4492188 C 19.866484 3.4492188 20.550781 4.1335162 20.550781 5 L 20.550781 19 C 20.550781 19.866484 19.866484 20.550781 19 20.550781 L 5 20.550781 C 4.1335162 20.550781 3.4492188 19.866484 3.4492188 19 L 3.4492188 5 C 3.4492188 4.1335162 4.1335162 3.4492187 5 3.4492188 z M 15.523438 7.5507812 C 15.236326 7.5468233 14.934277 7.6709635 14.740234 7.9296875 L 12.039062 11.529297 C 12.028862 11.542898 12.017403 11.551287 12.007812 11.554688 C 12.007015 11.5549 12.00275 11.556499 12.001953 11.556641 L 12 11.556641 L 11.998047 11.556641 L 11.996094 11.556641 C 11.995297 11.556499 11.991032 11.5549 11.990234 11.554688 C 11.980644 11.551287 11.971137 11.542898 11.960938 11.529297 L 9.2597656 7.9296875 C 9.0010415 7.5847221 8.5510164 7.4823435 8.1992188 7.5996094 C 7.847421 7.7168753 7.5507814 8.0687932 7.5507812 8.5 L 7.5507812 16 A 0.44999999 0.44999999 0 0 0 8 16.449219 A 0.44999999 0.44999999 0 0 0 8.4492188 16 L 8.4492188 8.5 C 8.4492188 8.4815129 8.4521131 8.4705676 8.4550781 8.4648438 L 8.4550781 8.4628906 L 8.4570312 8.4609375 L 8.4589844 8.4609375 L 8.4589844 8.4589844 L 8.4609375 8.4589844 C 8.4663519 8.4570659 8.4745777 8.4563909 8.484375 8.453125 C 8.4909065 8.4509475 8.4979124 8.447154 8.5019531 8.4453125 C 8.5028781 8.4449427 8.5049914 8.4436107 8.5058594 8.4433594 L 8.5078125 8.4433594 L 8.5097656 8.4433594 L 8.5117188 8.4433594 L 8.5136719 8.4453125 L 8.515625 8.4453125 L 8.5175781 8.4472656 C 8.5226077 8.4510593 8.5298191 8.4583784 8.5390625 8.4707031 L 11.240234 12.068359 C 11.613034 12.565426 12.386966 12.565426 12.759766 12.068359 L 15.460938 8.46875 C 15.470181 8.456425 15.479345 8.4471529 15.484375 8.4433594 L 15.486328 8.4433594 L 15.488281 8.4414062 L 15.490234 8.4414062 L 15.492188 8.4414062 L 15.494141 8.4414062 L 15.494141 8.4433594 C 15.495009 8.4436107 15.499075 8.4449427 15.5 8.4453125 C 15.504041 8.447154 15.509092 8.4489946 15.515625 8.4511719 C 15.525424 8.4544381 15.535601 8.4551123 15.541016 8.4570312 L 15.541016 8.4589844 L 15.542969 8.4589844 L 15.544922 8.4609375 L 15.544922 8.4628906 L 15.546875 8.4628906 C 15.54984 8.4686144 15.550781 8.4795612 15.550781 8.4980469 L 15.550781 16 A 0.44999999 0.44999999 0 0 0 16 16.449219 A 0.44999999 0.44999999 0 0 0 16.449219 16 L 16.449219 8.4980469 C 16.449219 8.0668401 16.152579 7.7149221 15.800781 7.5976562 C 15.712832 7.5683398 15.619141 7.5521006 15.523438 7.5507812 z " />
</svg>
