<?xml version="1.0" encoding="UTF-8" standalone="no"?>
<svg
   width="24"
   height="24"
   viewBox="0 0 24 24"
   fill="none"
   stroke="currentColor"
   stroke-width="0.9"
   stroke-linecap="round"
   stroke-linejoin="round"
   version="1.1"
   id="svg1"
   sodipodi:docname=".tmp_square-star.svg"
   xmlns:inkscape="http://www.inkscape.org/namespaces/inkscape"
   xmlns:sodipodi="http://sodipodi.sourceforge.net/DTD/sodipodi-0.dtd"
   xmlns="http://www.w3.org/2000/svg"
   xmlns:svg="http://www.w3.org/2000/svg">
  <defs
     id="defs1" />
  <sodipodi:namedview
     id="namedview1"
     pagecolor="#ffffff"
     bordercolor="#000000"
     borderopacity="0.25"
     inkscape:showpageshadow="2"
     inkscape:pageopacity="0.0"
     inkscape:pagecheckerboard="0"
     inkscape:deskcolor="#d1d1d1" />
  <path
     id="path1"
     style="baseline-shift:baseline;display:inline;overflow:visible;vector-effect:none;fill:#000000;stroke:none;stroke-linecap:butt;stroke-linejoin:miter;enable-background:accumulate;stop-color:#000000;stop-opacity:1;opacity:1"
     d="M 5 2.5507812 C 3.6504838 2.5507812 2.5507812 3.6504838 2.5507812 5 L 2.5507812 19 C 2.5507812 20.349516 3.6504838 21.449219 5 21.449219 L 19 21.449219 C 20.349516 21.449219 21.449219 20.349516 21.449219 19 L 21.449219 5 C 21.449219 3.6504838 20.349516 2.5507812 19 2.5507812 L 5 2.5507812 z M 5 3.4492188 L 19 3.4492188 C 19.866484 3.4492188 20.550781 4.1335162 20.550781 5 L 20.550781 19 C 20.550781 19.866484 19.866484 20.550781 19 20.550781 L 5 20.550781 C 4.1335162 20.550781 3.4492188 19.866484 3.4492188 19 L 3.4492188 5 C 3.4492188 4.1335162 4.1335162 3.4492187 5 3.4492188 z M 12.003906 6.5507812 C 11.435552 6.5436407 10.84024 6.8896573 10.619141 7.5195312 L 9.8847656 8.9628906 C 9.804551 9.1207662 9.6534758 9.2284967 9.4785156 9.2558594 L 7.8652344 9.5078125 C 7.2051503 9.528184 6.6982746 9.9851899 6.5292969 10.523438 C 6.3596055 11.063957 6.5173508 11.731691 7.0527344 12.125 L 8.1816406 13.25 C 8.3071433 13.37495 8.3638011 13.55167 8.3359375 13.726562 L 8.0820312 15.310547 C 7.8849682 15.942634 8.1522233 16.57309 8.6074219 16.908203 C 9.0642885 17.244545 9.7508237 17.310306 10.296875 16.929688 L 11.732422 16.195312 C 11.890279 16.114432 12.076518 16.114432 12.234375 16.195312 L 13.679688 16.935547 C 14.224519 17.311889 14.905932 17.245235 15.361328 16.910156 C 15.819557 16.572952 16.087137 15.932921 15.882812 15.296875 L 15.630859 13.726562 C 15.602999 13.551671 15.659659 13.37495 15.785156 13.25 L 16.9375 12.101562 C 17.454682 11.700276 17.601115 11.040337 17.427734 10.507812 C 17.255045 9.9774198 16.752041 9.5309953 16.101562 9.5078125 L 14.488281 9.2558594 C 14.313318 9.228493 14.16225 9.1207663 14.082031 8.9628906 L 13.359375 7.5371094 L 13.359375 7.5351562 C 13.148765 6.911551 12.566653 6.5578561 12.003906 6.5507812 z M 11.992188 7.4492188 C 12.222744 7.4521188 12.42879 7.5573466 12.513672 7.8417969 A 0.45004499 0.45004499 0 0 0 12.542969 7.9179688 L 13.279297 9.3691406 C 13.490066 9.7839489 13.88796 10.074591 14.347656 10.146484 L 15.982422 10.402344 A 0.45004499 0.45004499 0 0 0 16.050781 10.40625 C 16.341493 10.40735 16.499931 10.570938 16.570312 10.787109 C 16.640693 11.003281 16.607362 11.228316 16.373047 11.400391 A 0.45004499 0.45004499 0 0 0 16.322266 11.443359 L 15.150391 12.611328 C 14.820641 12.939626 14.668977 13.407671 14.742188 13.867188 A 0.45004499 0.45004499 0 0 0 14.742188 13.869141 L 15 15.480469 A 0.45004499 0.45004499 0 0 0 15.021484 15.560547 C 15.121054 15.843068 15.014984 16.048044 14.828125 16.185547 C 14.641272 16.32305 14.41395 16.362733 14.173828 16.183594 A 0.45004499 0.45004499 0 0 0 14.109375 16.142578 L 12.644531 15.392578 C 12.229781 15.180072 11.737016 15.180072 11.322266 15.392578 L 9.8574219 16.142578 A 0.45004499 0.45004499 0 0 0 9.7949219 16.181641 C 9.5552639 16.358914 9.3268376 16.320635 9.140625 16.183594 C 8.9544124 16.046505 8.8491796 15.840092 8.9472656 15.558594 A 0.45004499 0.45004499 0 0 0 8.9667969 15.482422 L 9.2246094 13.869141 C 9.2978194 13.409624 9.1461563 12.94158 8.8164062 12.613281 L 7.6601562 11.460938 A 0.45004499 0.45004499 0 0 0 7.5996094 11.408203 C 7.3553221 11.238966 7.3195547 11.013129 7.3886719 10.792969 C 7.4577889 10.572809 7.6168779 10.405502 7.9140625 10.40625 A 0.45004499 0.45004499 0 0 0 7.984375 10.402344 L 9.6171875 10.146484 C 10.076884 10.074585 10.474777 9.7839489 10.685547 9.3691406 L 11.435547 7.8945312 A 0.45004499 0.45004499 0 0 0 11.462891 7.8300781 C 11.554891 7.5478517 11.761629 7.4463203 11.992188 7.4492188 z " />
</svg>
