<?xml version="1.0" encoding="UTF-8" standalone="no"?>
<svg
   width="24"
   height="24"
   viewBox="0 0 24 24"
   fill="none"
   stroke="currentColor"
   stroke-width="0.9"
   stroke-linecap="round"
   stroke-linejoin="round"
   version="1.1"
   id="svg2"
   sodipodi:docname=".tmp_square-arrow-up-left.svg"
   xmlns:inkscape="http://www.inkscape.org/namespaces/inkscape"
   xmlns:sodipodi="http://sodipodi.sourceforge.net/DTD/sodipodi-0.dtd"
   xmlns="http://www.w3.org/2000/svg"
   xmlns:svg="http://www.w3.org/2000/svg">
  <defs
     id="defs2" />
  <sodipodi:namedview
     id="namedview2"
     pagecolor="#ffffff"
     bordercolor="#000000"
     borderopacity="0.25"
     inkscape:showpageshadow="2"
     inkscape:pageopacity="0.0"
     inkscape:pagecheckerboard="0"
     inkscape:deskcolor="#d1d1d1" />
  <path
     id="rect1"
     style="baseline-shift:baseline;display:inline;overflow:visible;vector-effect:none;fill:#000000;stroke:none;stroke-linecap:butt;stroke-linejoin:miter;enable-background:accumulate;stop-color:#000000;stop-opacity:1;opacity:1"
     d="M 5 2.5507812 C 3.6504838 2.5507812 2.5507812 3.6504838 2.5507812 5 L 2.5507812 19 C 2.5507812 20.349516 3.6504838 21.449219 5 21.449219 L 19 21.449219 C 20.349516 21.449219 21.449219 20.349516 21.449219 19 L 21.449219 5 C 21.449219 3.6504838 20.349516 2.5507812 19 2.5507812 L 5 2.5507812 z M 5 3.4492188 L 19 3.4492188 C 19.866484 3.4492188 20.550781 4.1335162 20.550781 5 L 20.550781 19 C 20.550781 19.866484 19.866484 20.550781 19 20.550781 L 5 20.550781 C 4.1335162 20.550781 3.4492188 19.866484 3.4492188 19 L 3.4492188 5 C 3.4492188 4.1335162 4.1335162 3.4492187 5 3.4492188 z M 7.9765625 7.5507812 A 0.44999999 0.44999999 0 0 0 7.9414062 7.5546875 A 0.44999999 0.44999999 0 0 0 7.8847656 7.5664062 A 0.44999999 0.44999999 0 0 0 7.6816406 7.6816406 A 0.44999999 0.44999999 0 0 0 7.5664062 7.8847656 A 0.44999999 0.44999999 0 0 0 7.5546875 7.9414062 A 0.44999999 0.44999999 0 0 0 7.5507812 8 A 0.44999999 0.44999999 0 0 0 7.5507812 8.03125 L 7.5507812 16 A 0.44999999 0.44999999 0 0 0 8 16.449219 A 0.44999999 0.44999999 0 0 0 8.4492188 16 L 8.4492188 9.0859375 L 15.681641 16.318359 A 0.44999999 0.44999999 0 0 0 16.318359 16.318359 A 0.44999999 0.44999999 0 0 0 16.318359 15.681641 L 9.0859375 8.4492188 L 16 8.4492188 A 0.44999999 0.44999999 0 0 0 16.449219 8 A 0.44999999 0.44999999 0 0 0 16 7.5507812 L 8.03125 7.5507812 A 0.44999999 0.44999999 0 0 0 8 7.5507812 A 0.44999999 0.44999999 0 0 0 7.9765625 7.5507812 z " />
</svg>
