<?xml version="1.0" encoding="UTF-8" standalone="no"?>
<svg
   width="24"
   height="24"
   viewBox="0 0 24 24"
   fill="none"
   stroke="currentColor"
   stroke-width="0.9"
   stroke-linecap="round"
   stroke-linejoin="round"
   version="1.1"
   id="svg1"
   sodipodi:docname=".tmp_squircle.svg"
   xmlns:inkscape="http://www.inkscape.org/namespaces/inkscape"
   xmlns:sodipodi="http://sodipodi.sourceforge.net/DTD/sodipodi-0.dtd"
   xmlns="http://www.w3.org/2000/svg"
   xmlns:svg="http://www.w3.org/2000/svg">
  <defs
     id="defs1" />
  <sodipodi:namedview
     id="namedview1"
     pagecolor="#ffffff"
     bordercolor="#000000"
     borderopacity="0.25"
     inkscape:showpageshadow="2"
     inkscape:pageopacity="0.0"
     inkscape:pagecheckerboard="0"
     inkscape:deskcolor="#d1d1d1" />
  <path
     id="path1"
     style="baseline-shift:baseline;display:inline;overflow:visible;vector-effect:none;fill:#000000;stroke:none;stroke-linecap:butt;stroke-linejoin:miter;enable-background:accumulate;stop-color:#000000;stop-opacity:1;opacity:1"
     d="M 12 2.5507812 C 8.3625 2.5507812 5.9738432 2.9910005 4.4824219 4.4824219 C 2.9910005 5.9738432 2.5507812 8.3625 2.5507812 12 C 2.5507812 15.6375 2.9910005 18.026157 4.4824219 19.517578 C 5.9738432 21.008999 8.3625 21.449219 12 21.449219 C 15.6375 21.449219 18.026157 21.008999 19.517578 19.517578 C 21.008999 18.026157 21.449219 15.6375 21.449219 12 C 21.449219 8.3625 21.008999 5.9738432 19.517578 4.4824219 C 18.026157 2.9910005 15.6375 2.5507813 12 2.5507812 z M 12 3.4492188 C 15.5625 3.4492188 17.672281 3.910562 18.880859 5.1191406 C 20.089438 6.3277193 20.550781 8.4375 20.550781 12 C 20.550781 15.5625 20.089438 17.672281 18.880859 18.880859 C 17.672281 20.089438 15.5625 20.550781 12 20.550781 C 8.4375 20.550781 6.3277193 20.089438 5.1191406 18.880859 C 3.910562 17.672281 3.4492187 15.5625 3.4492188 12 C 3.4492188 8.4375 3.910562 6.3277193 5.1191406 5.1191406 C 6.3277193 3.910562 8.4375 3.4492187 12 3.4492188 z " />
</svg>
