<?xml version="1.0" encoding="UTF-8" standalone="no"?>
<svg
   width="24"
   height="24"
   viewBox="0 0 24 24"
   fill="none"
   stroke="currentColor"
   stroke-width="0.9"
   stroke-linecap="round"
   stroke-linejoin="round"
   version="1.1"
   id="svg4"
   sodipodi:docname=".tmp_squirrel.svg"
   xmlns:inkscape="http://www.inkscape.org/namespaces/inkscape"
   xmlns:sodipodi="http://sodipodi.sourceforge.net/DTD/sodipodi-0.dtd"
   xmlns="http://www.w3.org/2000/svg"
   xmlns:svg="http://www.w3.org/2000/svg">
  <defs
     id="defs4" />
  <sodipodi:namedview
     id="namedview4"
     pagecolor="#ffffff"
     bordercolor="#000000"
     borderopacity="0.25"
     inkscape:showpageshadow="2"
     inkscape:pageopacity="0.0"
     inkscape:pagecheckerboard="0"
     inkscape:deskcolor="#d1d1d1" />
  <path
     id="path1"
     style="baseline-shift:baseline;display:inline;overflow:visible;vector-effect:none;fill:#000000;stroke:none;stroke-linecap:butt;stroke-linejoin:miter;enable-background:accumulate;stop-color:#000000;stop-opacity:1;opacity:1"
     d="M 6.5 1.5507812 C 5.275 1.5507812 4.0439537 1.9565901 3.1074219 2.7890625 C 2.17089 3.6215349 1.5507812 4.8875006 1.5507812 6.5 C 1.5507812 7.445833 1.92089 8.2117983 2.4824219 8.7109375 C 3.0439537 9.2100767 3.775 9.4492186 4.5 9.4492188 C 4.91974 9.4492188 5.2782058 9.1859536 5.6679688 9.0214844 C 5.3547034 9.5111481 5.0239691 9.9895918 4.6308594 10.554688 C 3.6134001 12.017284 2.5507813 13.9 2.5507812 17 C 2.5507812 20.035714 4.9642857 22.449219 8 22.449219 L 15.193359 22.449219 A 0.44999999 0.44999999 0 0 0 15.279297 22.449219 L 18 22.449219 A 0.44999999 0.44999999 0 0 0 18.449219 22 A 0.44999999 0.44999999 0 0 0 18 21.550781 L 16.085938 21.550781 C 16.337475 21.05497 16.451136 20.523325 16.449219 20 C 16.449219 18.586344 17.586344 17.449219 19 17.449219 L 20 17.449219 C 21.347768 17.449219 22.449219 16.347768 22.449219 15 L 22.449219 13 C 22.449219 10.706753 20.681228 8.8769264 18.449219 8.640625 L 18.449219 6 L 18.449219 4 A 0.44999999 0.44999999 0 0 0 18 3.5507812 A 0.44999999 0.44999999 0 0 0 17.550781 4 L 17.550781 5.5742188 C 15.444364 5.7898531 13.813448 7.5060027 13.626953 9.6269531 C 12.411992 9.6905631 11.321328 10.079316 10.328125 10.658203 C 10.937853 9.6077509 11.449219 8.3844259 11.449219 6.5 C 11.449219 4.8875006 10.82911 3.6215349 9.8925781 2.7890625 C 8.9560463 1.9565901 7.725 1.5507812 6.5 1.5507812 z M 6.5 2.4492188 C 7.525 2.4492188 8.5439537 2.7934106 9.2949219 3.4609375 C 10.04589 4.1284644 10.550781 5.1125007 10.550781 6.5 C 10.550781 9.1409091 9.6384045 10.35704 8.6425781 11.664062 C 8.1139079 12.357942 7.5878601 13.118069 7.1816406 14.035156 C 6.783939 14.946102 6.5507812 15.943863 6.5507812 17 A 0.45004499 0.45004499 0 0 0 7.4492188 17 C 7.4492188 15.900779 7.6759984 15.118762 7.9824219 14.419922 C 8.9826712 12.084514 11.294637 10.449219 14 10.449219 A 0.45004499 0.45004499 0 0 0 14.449219 10 C 14.449219 8.1862694 15.798151 6.6963133 17.550781 6.4765625 L 17.550781 9 A 0.45004499 0.45004499 0 0 0 18 9.4492188 C 19.965941 9.4492188 21.550781 11.034059 21.550781 13 L 21.550781 15 C 21.550781 15.861371 20.861371 16.550781 20 16.550781 L 19 16.550781 C 17.718363 16.550781 16.596539 17.254927 16.001953 18.296875 C 15.437139 17.299524 14.370451 16.566681 13.041016 16.550781 A 0.44999999 0.44999999 0 0 0 12.585938 16.994141 A 0.44999999 0.44999999 0 0 0 13.03125 17.449219 C 14.142624 17.462509 14.955723 18.112972 15.333984 18.972656 C 15.458105 19.25475 15.533133 19.55642 15.552734 19.863281 C 15.550944 19.908746 15.550781 19.954109 15.550781 20 A 0.44999999 0.44999999 0 0 0 15.558594 20.078125 C 15.54699 20.582573 15.378894 21.094043 15.023438 21.550781 L 8 21.550781 C 5.4357143 21.550781 3.4492187 19.564286 3.4492188 17 C 3.4492188 14.1 4.3865999 12.482714 5.3691406 11.070312 C 6.0587884 10.078944 6.6650185 9.0920374 7.0488281 7.9765625 C 7.2826568 7.553807 7.4492187 7.075296 7.4492188 6.5 L 6.5507812 6.5 C 6.5507812 7.2208329 6.29589 7.7048687 5.9199219 8.0390625 C 5.5439537 8.3732563 5.025 8.5507811 4.5 8.5507812 C 3.975 8.5507812 3.4560463 8.3732563 3.0800781 8.0390625 C 2.70411 7.7048687 2.4492187 7.2208329 2.4492188 6.5 C 2.4492186 5.1125007 2.95411 4.1284644 3.7050781 3.4609375 C 4.4560463 2.7934106 5.475 2.4492187 6.5 2.4492188 z M 18 12.550781 A 0.44999999 0.44999999 0 0 0 17.550781 13 A 0.44999999 0.44999999 0 0 0 18 13.449219 L 18.009766 13.449219 A 0.44999999 0.44999999 0 0 0 18.460938 13 A 0.44999999 0.44999999 0 0 0 18.009766 12.550781 L 18 12.550781 z " />
</svg>
