<?xml version="1.0" encoding="UTF-8" standalone="no"?>
<svg
   width="24"
   height="24"
   viewBox="0 0 24 24"
   fill="none"
   stroke="currentColor"
   stroke-width="0.9"
   stroke-linecap="round"
   stroke-linejoin="round"
   version="1.1"
   id="svg3"
   sodipodi:docname=".tmp_store.svg"
   xmlns:inkscape="http://www.inkscape.org/namespaces/inkscape"
   xmlns:sodipodi="http://sodipodi.sourceforge.net/DTD/sodipodi-0.dtd"
   xmlns="http://www.w3.org/2000/svg"
   xmlns:svg="http://www.w3.org/2000/svg">
  <defs
     id="defs3" />
  <sodipodi:namedview
     id="namedview3"
     pagecolor="#ffffff"
     bordercolor="#000000"
     borderopacity="0.25"
     inkscape:showpageshadow="2"
     inkscape:pageopacity="0.0"
     inkscape:pagecheckerboard="0"
     inkscape:deskcolor="#d1d1d1" />
  <path
     id="path1"
     style="baseline-shift:baseline;display:inline;overflow:visible;vector-effect:none;fill:#000000;stroke:none;stroke-linecap:butt;stroke-linejoin:miter;enable-background:accumulate;stop-color:#000000;stop-opacity:1;opacity:1"
     d="M 7 1.5507812 C 6.1892147 1.5506319 5.4305439 1.9528231 4.9746094 2.6230469 L 2.0878906 6.8027344 C 1.0929859 8.2156316 1.5414785 9.8465828 2.5742188 10.736328 C 2.8583459 10.981115 3.191316 11.172917 3.5507812 11.298828 L 3.5507812 19 C 3.5507812 20.347768 4.6522325 21.449219 6 21.449219 L 9 21.449219 L 15 21.449219 L 18 21.449219 C 19.347768 21.449219 20.449219 20.347768 20.449219 19 L 20.449219 11.302734 C 20.808604 11.176957 21.141542 10.984557 21.425781 10.740234 C 22.460111 9.8511603 22.911359 8.2209492 21.916016 6.8066406 L 19.025391 2.6191406 L 19.023438 2.6171875 C 18.566951 1.9496108 17.808845 1.5504707 17 1.5507812 L 7 1.5507812 z M 7 2.4492188 L 17 2.4492188 C 17.513133 2.4490217 17.992099 2.7030455 18.28125 3.1269531 A 0.45004499 0.45004499 0 0 0 18.283203 3.1289062 L 21.177734 7.3203125 A 0.45004499 0.45004499 0 0 0 21.179688 7.3242188 C 21.925558 8.3840439 21.581674 9.4209415 20.839844 10.058594 C 20.608176 10.257727 20.344939 10.412258 20.0625 10.503906 A 0.44999999 0.44999999 0 0 0 20 10.5 A 0.44999999 0.44999999 0 0 0 19.748047 10.578125 C 19.207947 10.657416 18.623315 10.499237 18.085938 9.984375 C 17.482176 9.4063909 16.517825 9.4063909 15.914062 9.984375 C 15.119195 10.742534 13.881331 10.741633 13.085938 9.984375 C 12.482347 9.4072701 11.517651 9.4072701 10.914062 9.984375 C 10.119027 10.741711 8.8809732 10.741711 8.0859375 9.984375 C 7.4821754 9.4063909 6.5178246 9.4063909 5.9140625 9.984375 C 5.3744607 10.499245 4.7894963 10.655792 4.2480469 10.574219 A 0.44999999 0.44999999 0 0 0 4 10.5 A 0.44999999 0.44999999 0 0 0 3.9453125 10.503906 C 3.6601332 10.412332 3.3935135 10.255734 3.1601562 10.054688 C 2.4195236 9.4166035 2.0768319 8.3789276 2.8222656 7.3203125 A 0.45004499 0.45004499 0 0 0 2.8261719 7.3183594 L 5.7148438 3.1328125 A 0.45004499 0.45004499 0 0 0 5.7167969 3.1308594 C 6.0055407 2.7047884 6.4853108 2.449124 7 2.4492188 z M 7 10.447266 C 7.1658351 10.447266 7.3316702 10.509148 7.4628906 10.634766 C 8.5994573 11.719443 10.400543 11.719443 11.537109 10.634766 C 11.799461 10.383926 12.200539 10.383926 12.462891 10.634766 C 13.599307 11.718699 15.39874 11.718699 16.535156 10.634766 A 0.45004499 0.45004499 0 0 0 16.537109 10.634766 C 16.79955 10.38353 17.20045 10.38353 17.462891 10.634766 C 18.094952 11.240344 18.837471 11.487424 19.550781 11.46875 L 19.550781 19 C 19.550781 19.861371 18.861371 20.550781 18 20.550781 L 15.449219 20.550781 L 15.449219 16 C 15.449219 15.204517 14.795483 14.550781 14 14.550781 L 10 14.550781 C 9.2045172 14.550781 8.5507812 15.204517 8.5507812 16 L 8.5507812 20.550781 L 6 20.550781 C 5.1386285 20.550781 4.4492188 19.861371 4.4492188 19 L 4.4492188 11.466797 C 5.1614326 11.485404 5.9029968 11.238012 6.5351562 10.634766 A 0.45004499 0.45004499 0 0 0 6.5371094 10.634766 C 6.6683298 10.509148 6.8341649 10.447266 7 10.447266 z M 10 15.449219 L 14 15.449219 C 14.309087 15.449219 14.550781 15.690913 14.550781 16 L 14.550781 20.550781 L 9.4492188 20.550781 L 9.4492188 16 C 9.4492188 15.690913 9.6909133 15.449219 10 15.449219 z " />
</svg>
