<?xml version="1.0" encoding="UTF-8" standalone="no"?>
<svg
   width="24"
   height="24"
   viewBox="0 0 24 24"
   fill="none"
   stroke="currentColor"
   stroke-width="0.9"
   stroke-linecap="round"
   stroke-linejoin="round"
   version="1.1"
   id="svg2"
   sodipodi:docname=".tmp_tags.svg"
   xmlns:inkscape="http://www.inkscape.org/namespaces/inkscape"
   xmlns:sodipodi="http://sodipodi.sourceforge.net/DTD/sodipodi-0.dtd"
   xmlns="http://www.w3.org/2000/svg"
   xmlns:svg="http://www.w3.org/2000/svg">
  <defs
     id="defs2" />
  <sodipodi:namedview
     id="namedview2"
     pagecolor="#ffffff"
     bordercolor="#000000"
     borderopacity="0.25"
     inkscape:showpageshadow="2"
     inkscape:pageopacity="0.0"
     inkscape:pagecheckerboard="0"
     inkscape:deskcolor="#d1d1d1" />
  <path
     id="path1"
     style="baseline-shift:baseline;display:inline;overflow:visible;vector-effect:none;fill:#000000;stroke:none;stroke-linecap:butt;stroke-linejoin:miter;enable-background:accumulate;stop-color:#000000;stop-opacity:1;opacity:1"
     d="M 7 1.5507812 C 6.2045172 1.5507812 5.5507812 2.2045172 5.5507812 3 L 5.5507812 9.171875 C 5.5509201 9.8214295 5.8082044 10.445062 6.2675781 10.904297 L 12.976562 17.613281 C 14.087566 18.733433 15.912435 18.733433 17.023438 17.613281 L 21.613281 13.023438 L 21.613281 13.021484 C 22.731589 11.910808 22.731589 10.089192 21.613281 8.9785156 L 21.613281 8.9765625 L 14.904297 2.2675781 C 14.445062 1.8082044 13.821429 1.5509201 13.171875 1.5507812 L 7 1.5507812 z M 7 2.4492188 L 13.171875 2.4492188 C 13.5831 2.4493066 13.976842 2.6134731 14.267578 2.9042969 L 20.978516 9.6132812 A 0.45004499 0.45004499 0 0 0 20.978516 9.6152344 C 21.751473 10.38188 21.751473 11.61812 20.978516 12.384766 A 0.45004499 0.45004499 0 0 0 20.978516 12.386719 L 16.386719 16.978516 A 0.45004499 0.45004499 0 0 0 16.384766 16.978516 C 15.61812 17.751473 14.38188 17.751473 13.615234 16.978516 A 0.45004499 0.45004499 0 0 0 13.613281 16.978516 L 6.9042969 10.267578 C 6.6134731 9.9768423 6.4493067 9.5830998 6.4492188 9.171875 L 6.4492188 3 C 6.4492188 2.6909133 6.6909133 2.4492188 7 2.4492188 z M 10.5 5.5507812 C 9.9806596 5.5507812 9.5507812 5.9806596 9.5507812 6.5 C 9.5507812 7.0193404 9.9806596 7.4492187 10.5 7.4492188 C 11.01934 7.4492188 11.449219 7.0193404 11.449219 6.5 C 11.449219 5.9806596 11.01934 5.5507813 10.5 5.5507812 z M 2 6.5507812 A 0.44999999 0.44999999 0 0 0 1.5507812 7 L 1.5507812 13.171875 C 1.55092 13.821429 1.8082044 14.445062 2.2675781 14.904297 L 8.9765625 21.613281 C 9.9949862 22.639584 11.630931 22.737873 12.765625 21.841797 A 0.44999999 0.44999999 0 0 0 12.839844 21.210938 A 0.44999999 0.44999999 0 0 0 12.208984 21.136719 C 11.427733 21.753678 10.316432 21.685138 9.6152344 20.978516 A 0.45004499 0.45004499 0 0 0 9.6132812 20.978516 L 2.9042969 14.267578 C 2.6134731 13.976842 2.4493065 13.5831 2.4492188 13.171875 L 2.4492188 7 A 0.44999999 0.44999999 0 0 0 2 6.5507812 z " />
</svg>
