<?xml version="1.0" encoding="UTF-8" standalone="no"?>
<svg
   width="24"
   height="24"
   viewBox="0 0 24 24"
   fill="none"
   stroke="currentColor"
   stroke-width="0.9"
   stroke-linecap="round"
   stroke-linejoin="round"
   version="1.1"
   id="svg2"
   sodipodi:docname=".tmp_thumbs-up.svg"
   xmlns:inkscape="http://www.inkscape.org/namespaces/inkscape"
   xmlns:sodipodi="http://sodipodi.sourceforge.net/DTD/sodipodi-0.dtd"
   xmlns="http://www.w3.org/2000/svg"
   xmlns:svg="http://www.w3.org/2000/svg">
  <defs
     id="defs2" />
  <sodipodi:namedview
     id="namedview2"
     pagecolor="#ffffff"
     bordercolor="#000000"
     borderopacity="0.25"
     inkscape:showpageshadow="2"
     inkscape:pageopacity="0.0"
     inkscape:pagecheckerboard="0"
     inkscape:deskcolor="#d1d1d1" />
  <path
     id="path1"
     style="baseline-shift:baseline;display:inline;overflow:visible;vector-effect:none;fill:#000000;stroke:none;stroke-linecap:butt;stroke-linejoin:miter;enable-background:accumulate;stop-color:#000000;stop-opacity:1;opacity:1"
     d="M 12.005859 1.5507812 A 0.45004499 0.45004499 0 0 0 11.597656 1.7988281 L 8.1484375 8.6894531 A 0.45004499 0.45004499 0 0 0 8.1464844 8.6894531 C 7.8843139 9.2170464 7.348906 9.5504686 6.7597656 9.5507812 L 4 9.5507812 C 2.6522325 9.5507812 1.5507813 10.652232 1.5507812 12 L 1.5507812 20 C 1.5507812 21.347768 2.6522325 22.449219 4 22.449219 L 7 22.449219 L 17.5 22.449219 C 18.586889 22.449219 19.547234 21.72896 19.851562 20.685547 L 22.181641 12.685547 C 22.635614 11.129067 21.451411 9.5507812 19.830078 9.5507812 L 14.572266 9.5507812 L 15.4375 5.9882812 C 15.987854 3.7591373 14.301761 1.5792119 12.005859 1.5507812 z M 12.248047 2.5117188 C 13.840089 2.6885155 14.956693 4.1748538 14.5625 5.7714844 A 0.45004499 0.45004499 0 0 0 14.5625 5.7734375 L 13.5625 9.8945312 A 0.45004499 0.45004499 0 0 0 14 10.449219 L 19.830078 10.449219 C 20.875411 10.449219 21.611053 11.430074 21.318359 12.433594 L 18.988281 20.433594 C 18.794832 21.096847 18.190889 21.550781 17.5 21.550781 L 7.4492188 21.550781 L 7.4492188 10.349609 C 8.0939984 10.160215 8.6450837 9.7107581 8.953125 9.0917969 L 8.953125 9.0898438 L 12.248047 2.5117188 z M 4 10.449219 L 6.5507812 10.449219 L 6.5507812 21.550781 L 4 21.550781 C 3.1386285 21.550781 2.4492187 20.861371 2.4492188 20 L 2.4492188 12 C 2.4492188 11.138629 3.1386285 10.449219 4 10.449219 z " />
</svg>
