<?xml version="1.0" encoding="UTF-8" standalone="no"?>
<svg
   width="24"
   height="24"
   viewBox="0 0 24 24"
   fill="none"
   stroke="currentColor"
   stroke-width="0.9"
   stroke-linecap="round"
   stroke-linejoin="round"
   version="1.1"
   id="svg7"
   sodipodi:docname=".tmp_train-track.svg"
   xmlns:inkscape="http://www.inkscape.org/namespaces/inkscape"
   xmlns:sodipodi="http://sodipodi.sourceforge.net/DTD/sodipodi-0.dtd"
   xmlns="http://www.w3.org/2000/svg"
   xmlns:svg="http://www.w3.org/2000/svg">
  <defs
     id="defs7" />
  <sodipodi:namedview
     id="namedview7"
     pagecolor="#ffffff"
     bordercolor="#000000"
     borderopacity="0.25"
     inkscape:showpageshadow="2"
     inkscape:pageopacity="0.0"
     inkscape:pagecheckerboard="0"
     inkscape:deskcolor="#d1d1d1" />
  <path
     id="path1"
     style="baseline-shift:baseline;display:inline;overflow:visible;vector-effect:none;fill:#000000;stroke:none;stroke-linecap:butt;stroke-linejoin:miter;enable-background:accumulate;stop-color:#000000;stop-opacity:1;opacity:1"
     d="M 14 1.5488281 A 0.44999999 0.44999999 0 0 0 13.681641 1.6816406 A 0.44999999 0.44999999 0 0 0 13.681641 2.3183594 L 14.863281 3.5 L 12.5 5.8632812 L 11.318359 4.6816406 A 0.44999999 0.44999999 0 0 0 10.681641 4.6816406 A 0.44999999 0.44999999 0 0 0 10.681641 5.3183594 L 11.863281 6.5 L 9.5 8.8632812 L 8.3183594 7.6816406 A 0.44999999 0.44999999 0 0 0 7.6816406 7.6816406 A 0.44999999 0.44999999 0 0 0 7.6816406 8.3183594 L 8.8632812 9.5 L 6.5 11.863281 L 5.3183594 10.681641 A 0.44999999 0.44999999 0 0 0 4.6816406 10.681641 A 0.44999999 0.44999999 0 0 0 4.6816406 11.318359 L 5.8632812 12.5 L 3.5 14.863281 L 2.3183594 13.681641 A 0.44999999 0.44999999 0 0 0 1.6816406 13.681641 A 0.44999999 0.44999999 0 0 0 1.6816406 14.318359 L 2.8632812 15.5 L 1.6816406 16.681641 A 0.44999999 0.44999999 0 0 0 1.6816406 17.318359 A 0.44999999 0.44999999 0 0 0 2.3183594 17.318359 L 3.5 16.136719 L 7.8632812 20.5 L 6.6816406 21.681641 A 0.44999999 0.44999999 0 0 0 6.6816406 22.318359 A 0.44999999 0.44999999 0 0 0 7.3183594 22.318359 L 8.5 21.136719 L 9.6816406 22.318359 A 0.44999999 0.44999999 0 0 0 10.318359 22.318359 A 0.44999999 0.44999999 0 0 0 10.318359 21.681641 L 9.1367188 20.5 L 11.5 18.136719 L 12.681641 19.318359 A 0.44999999 0.44999999 0 0 0 13.318359 19.318359 A 0.44999999 0.44999999 0 0 0 13.318359 18.681641 L 12.136719 17.5 L 14.5 15.136719 L 15.681641 16.318359 A 0.44999999 0.44999999 0 0 0 16.318359 16.318359 A 0.44999999 0.44999999 0 0 0 16.318359 15.681641 L 15.136719 14.5 L 17.5 12.136719 L 18.681641 13.318359 A 0.44999999 0.44999999 0 0 0 19.318359 13.318359 A 0.44999999 0.44999999 0 0 0 19.318359 12.681641 L 18.136719 11.5 L 20.5 9.1367188 L 21.681641 10.318359 A 0.44999999 0.44999999 0 0 0 22.318359 10.318359 A 0.44999999 0.44999999 0 0 0 22.318359 9.6816406 L 21.136719 8.5 L 22.318359 7.3183594 A 0.44999999 0.44999999 0 0 0 22.318359 6.6816406 A 0.44999999 0.44999999 0 0 0 21.681641 6.6816406 L 20.5 7.8632812 L 16.136719 3.5 L 17.318359 2.3183594 A 0.44999999 0.44999999 0 0 0 17.318359 1.6816406 A 0.44999999 0.44999999 0 0 0 16.681641 1.6816406 L 15.5 2.8632812 L 14.318359 1.6816406 A 0.44999999 0.44999999 0 0 0 14 1.5488281 z M 15.5 4.1367188 L 19.863281 8.5 L 17.5 10.863281 L 13.136719 6.5 L 15.5 4.1367188 z M 12.5 7.1367188 L 16.863281 11.5 L 14.5 13.863281 L 10.136719 9.5 L 12.5 7.1367188 z M 9.5 10.136719 L 13.863281 14.5 L 11.5 16.863281 L 7.1367188 12.5 L 9.5 10.136719 z M 6.5 13.136719 L 10.863281 17.5 L 8.5 19.863281 L 4.1367188 15.5 L 6.5 13.136719 z " />
</svg>
