<?xml version="1.0" encoding="UTF-8" standalone="no"?>
<svg
   width="24"
   height="24"
   viewBox="0 0 24 24"
   fill="none"
   stroke="currentColor"
   stroke-width="0.9"
   stroke-linecap="round"
   stroke-linejoin="round"
   version="1.1"
   id="svg2"
   sodipodi:docname=".tmp_trending-down.svg"
   xmlns:inkscape="http://www.inkscape.org/namespaces/inkscape"
   xmlns:sodipodi="http://sodipodi.sourceforge.net/DTD/sodipodi-0.dtd"
   xmlns="http://www.w3.org/2000/svg"
   xmlns:svg="http://www.w3.org/2000/svg">
  <defs
     id="defs2" />
  <sodipodi:namedview
     id="namedview2"
     pagecolor="#ffffff"
     bordercolor="#000000"
     borderopacity="0.25"
     inkscape:showpageshadow="2"
     inkscape:pageopacity="0.0"
     inkscape:pagecheckerboard="0"
     inkscape:deskcolor="#d1d1d1" />
  <path
     id="path1"
     style="baseline-shift:baseline;display:inline;overflow:visible;vector-effect:none;fill:#000000;stroke:none;stroke-linecap:butt;stroke-linejoin:miter;enable-background:accumulate;stop-color:#000000;stop-opacity:1;opacity:1"
     d="M 2 6.5488281 A 0.44999999 0.44999999 0 0 0 1.6816406 6.6816406 A 0.44999999 0.44999999 0 0 0 1.6816406 7.3183594 L 8.1816406 13.818359 A 0.45004499 0.45004499 0 0 0 8.8183594 13.818359 L 13.5 9.1367188 L 20.914062 16.550781 L 16 16.550781 A 0.44999999 0.44999999 0 0 0 15.550781 17 A 0.44999999 0.44999999 0 0 0 16 17.449219 L 21.96875 17.449219 L 22 17.449219 A 0.44999999 0.44999999 0 0 0 22.058594 17.445312 A 0.44999999 0.44999999 0 0 0 22.115234 17.433594 A 0.44999999 0.44999999 0 0 0 22.318359 17.318359 A 0.44999999 0.44999999 0 0 0 22.433594 17.115234 A 0.44999999 0.44999999 0 0 0 22.445312 17.058594 A 0.44999999 0.44999999 0 0 0 22.449219 17 L 22.449219 16.96875 L 22.449219 11 A 0.44999999 0.44999999 0 0 0 22 10.550781 A 0.44999999 0.44999999 0 0 0 21.550781 11 L 21.550781 15.914062 L 13.818359 8.1816406 A 0.45004499 0.45004499 0 0 0 13.181641 8.1816406 L 8.5 12.863281 L 2.3183594 6.6816406 A 0.44999999 0.44999999 0 0 0 2 6.5488281 z " />
</svg>
