<?xml version="1.0" encoding="UTF-8" standalone="no"?>
<svg
   width="24"
   height="24"
   viewBox="0 0 24 24"
   fill="none"
   stroke="currentColor"
   stroke-width="0.9"
   stroke-linecap="round"
   stroke-linejoin="round"
   version="1.1"
   id="svg2"
   sodipodi:docname=".tmp_trending-up.svg"
   xmlns:inkscape="http://www.inkscape.org/namespaces/inkscape"
   xmlns:sodipodi="http://sodipodi.sourceforge.net/DTD/sodipodi-0.dtd"
   xmlns="http://www.w3.org/2000/svg"
   xmlns:svg="http://www.w3.org/2000/svg">
  <defs
     id="defs2" />
  <sodipodi:namedview
     id="namedview2"
     pagecolor="#ffffff"
     bordercolor="#000000"
     borderopacity="0.25"
     inkscape:showpageshadow="2"
     inkscape:pageopacity="0.0"
     inkscape:pagecheckerboard="0"
     inkscape:deskcolor="#d1d1d1" />
  <path
     id="path1"
     style="baseline-shift:baseline;display:inline;overflow:visible;vector-effect:none;fill:#000000;stroke:none;stroke-linecap:butt;stroke-linejoin:miter;enable-background:accumulate;stop-color:#000000;stop-opacity:1;opacity:1"
     d="M 16 6.5507812 A 0.44999999 0.44999999 0 0 0 15.550781 7 A 0.44999999 0.44999999 0 0 0 16 7.4492188 L 20.914062 7.4492188 L 13.5 14.863281 L 8.8183594 10.181641 A 0.45004499 0.45004499 0 0 0 8.1816406 10.181641 L 1.6816406 16.681641 A 0.44999999 0.44999999 0 0 0 1.6816406 17.318359 A 0.44999999 0.44999999 0 0 0 2.3183594 17.318359 L 8.5 11.136719 L 13.181641 15.818359 A 0.45004499 0.45004499 0 0 0 13.818359 15.818359 L 21.550781 8.0859375 L 21.550781 13 A 0.44999999 0.44999999 0 0 0 22 13.449219 A 0.44999999 0.44999999 0 0 0 22.449219 13 L 22.449219 7.03125 A 0.44999999 0.44999999 0 0 0 22.449219 7 A 0.44999999 0.44999999 0 0 0 22.445312 6.9414062 A 0.44999999 0.44999999 0 0 0 22.433594 6.8847656 A 0.44999999 0.44999999 0 0 0 22.318359 6.6816406 A 0.44999999 0.44999999 0 0 0 22.115234 6.5664062 A 0.44999999 0.44999999 0 0 0 22.058594 6.5546875 A 0.44999999 0.44999999 0 0 0 22 6.5507812 L 21.96875 6.5507812 L 16 6.5507812 z " />
</svg>
