<?xml version="1.0" encoding="UTF-8" standalone="no"?>
<svg
   width="24"
   height="24"
   viewBox="0 0 24 24"
   fill="none"
   stroke="currentColor"
   stroke-width="0.9"
   stroke-linecap="round"
   stroke-linejoin="round"
   version="1.1"
   id="svg6"
   sodipodi:docname=".tmp_truck-electric.svg"
   xmlns:inkscape="http://www.inkscape.org/namespaces/inkscape"
   xmlns:sodipodi="http://sodipodi.sourceforge.net/DTD/sodipodi-0.dtd"
   xmlns="http://www.w3.org/2000/svg"
   xmlns:svg="http://www.w3.org/2000/svg">
  <defs
     id="defs6" />
  <sodipodi:namedview
     id="namedview6"
     pagecolor="#ffffff"
     bordercolor="#000000"
     borderopacity="0.25"
     inkscape:showpageshadow="2"
     inkscape:pageopacity="0.0"
     inkscape:pagecheckerboard="0"
     inkscape:deskcolor="#d1d1d1" />
  <path
     id="path1"
     style="baseline-shift:baseline;display:inline;overflow:visible;vector-effect:none;fill:#000000;stroke:none;stroke-linecap:butt;stroke-linejoin:miter;enable-background:accumulate;stop-color:#000000;stop-opacity:1;opacity:1"
     d="M 3.9648438 2.5507812 A 0.44999999 0.44999999 0 0 0 3.6582031 2.7070312 L 1.8085938 4.8574219 C 1.5348679 5.1388052 1.4794463 5.5518407 1.609375 5.8710938 C 1.7452253 6.2048972 2.0975012 6.4723714 2.5136719 6.4589844 L 2.5 6.4609375 L 4.6503906 6.4609375 A 0.45004499 0.45004499 0 0 0 4.7519531 6.4472656 C 4.7658391 6.4440161 4.7751867 6.4404777 4.7792969 6.4394531 L 4.78125 6.4394531 L 4.78125 6.4414062 L 4.7792969 6.4433594 L 4.7773438 6.4453125 L 4.7753906 6.4472656 L 4.7753906 6.4492188 L 4.7753906 6.4511719 L 4.7734375 6.4511719 L 4.7734375 6.453125 L 4.7734375 6.4550781 L 4.7734375 6.4570312 L 4.7753906 6.4589844 L 4.7753906 6.4609375 L 4.7753906 6.4628906 L 4.7773438 6.4648438 L 4.7792969 6.4667969 L 4.78125 6.46875 L 4.7832031 6.46875 L 4.7851562 6.46875 L 4.7851562 6.4707031 C 4.7810539 6.472856 4.7775678 6.4783449 4.7675781 6.484375 A 0.45004499 0.45004499 0 0 0 4.6699219 6.5644531 L 2.6699219 8.7128906 A 0.44999999 0.44999999 0 0 0 2.6933594 9.3496094 A 0.44999999 0.44999999 0 0 0 3.3300781 9.3261719 L 5.2929688 7.2167969 C 5.6537542 6.9570441 5.7521659 6.4719512 5.609375 6.1210938 C 5.4653173 5.7671235 5.0495569 5.4877667 4.6054688 5.5605469 L 2.5 5.5605469 A 0.45004499 0.45004499 0 0 0 2.4863281 5.5605469 C 2.4728484 5.5609813 2.4624363 5.5601903 2.4570312 5.5585938 L 2.4550781 5.5566406 L 2.453125 5.5566406 L 2.453125 5.5546875 L 2.4511719 5.5546875 L 2.4511719 5.5527344 L 2.4492188 5.5507812 C 2.4472397 5.546115 2.4467707 5.5396301 2.4433594 5.53125 C 2.4399469 5.5228684 2.4355288 5.516063 2.4335938 5.5117188 L 2.4335938 5.5097656 L 2.4335938 5.5078125 L 2.4335938 5.5058594 L 2.4335938 5.5039062 L 2.4355469 5.5019531 L 2.4375 5.5 C 2.4406198 5.4958032 2.4451625 5.4897036 2.453125 5.4824219 A 0.45004499 0.45004499 0 0 0 2.4902344 5.4433594 L 4.3417969 3.2929688 A 0.44999999 0.44999999 0 0 0 4.2929688 2.6582031 A 0.44999999 0.44999999 0 0 0 3.9648438 2.5507812 z M 9 4.5507812 A 0.44999999 0.44999999 0 0 0 8.5507812 5 A 0.44999999 0.44999999 0 0 0 9 5.4492188 L 12 5.4492188 C 12.861371 5.4492188 13.550781 6.1386285 13.550781 7 L 13.550781 18.550781 L 9.4082031 18.550781 C 9.1958871 17.415846 8.1944193 16.550781 7 16.550781 C 5.8055807 16.550781 4.8041129 17.415846 4.5917969 18.550781 L 3 18.550781 C 2.6909133 18.550781 2.4492188 18.309087 2.4492188 18 L 2.4492188 13 A 0.44999999 0.44999999 0 0 0 2 12.550781 A 0.44999999 0.44999999 0 0 0 1.5507812 13 L 1.5507812 18 C 1.5507812 18.795483 2.2045172 19.449219 3 19.449219 L 4.5917969 19.449219 C 4.8041129 20.584154 5.8055807 21.449219 7 21.449219 C 8.1944193 21.449219 9.1958871 20.584154 9.4082031 19.449219 L 14.591797 19.449219 C 14.804113 20.584154 15.80558 21.449219 17 21.449219 C 18.19442 21.449219 19.195887 20.584154 19.408203 19.449219 L 21 19.449219 C 21.795483 19.449219 22.449219 18.795483 22.449219 18 L 22.449219 14.349609 A 0.45004499 0.45004499 0 0 0 22.449219 14.347656 C 22.447319 14.020667 22.335493 13.704269 22.130859 13.449219 L 18.652344 9.1015625 C 18.379013 8.7556565 17.962343 8.5528137 17.521484 8.5507812 A 0.45004499 0.45004499 0 0 0 17.519531 8.5507812 L 14.449219 8.5507812 L 14.449219 7 C 14.449219 5.6522325 13.347768 4.5507812 12 4.5507812 L 9 4.5507812 z M 14.449219 9.4492188 L 17.519531 9.4492188 C 17.686524 9.4505487 17.843684 9.5271178 17.947266 9.6582031 A 0.45004499 0.45004499 0 0 0 17.949219 9.6601562 L 21.427734 14.011719 A 0.45004499 0.45004499 0 0 0 21.429688 14.011719 C 21.507378 14.108549 21.550061 14.229377 21.550781 14.353516 L 21.550781 18 C 21.550781 18.309087 21.309087 18.550781 21 18.550781 L 19.408203 18.550781 C 19.195887 17.415846 18.19442 16.550781 17 16.550781 C 15.80558 16.550781 14.804113 17.415846 14.591797 18.550781 L 14.449219 18.550781 L 14.449219 9.4492188 z M 7 17.449219 C 7.8613715 17.449219 8.5507813 18.138629 8.5507812 19 C 8.5507812 19.861371 7.8613715 20.550781 7 20.550781 C 6.1386285 20.550781 5.4492189 19.861371 5.4492188 19 C 5.4492188 18.138629 6.1386285 17.449219 7 17.449219 z M 17 17.449219 C 17.861371 17.449219 18.550781 18.138629 18.550781 19 C 18.550781 19.861371 17.861371 20.550781 17 20.550781 C 16.138629 20.550781 15.449219 19.861371 15.449219 19 C 15.449219 18.138629 16.138629 17.449219 17 17.449219 z " />
</svg>
