<?xml version="1.0" encoding="UTF-8" standalone="no"?>
<svg
   width="24"
   height="24"
   viewBox="0 0 24 24"
   fill="none"
   stroke="currentColor"
   stroke-width="0.9"
   stroke-linecap="round"
   stroke-linejoin="round"
   version="1.1"
   id="svg2"
   sodipodi:docname=".tmp_user-check.svg"
   xmlns:inkscape="http://www.inkscape.org/namespaces/inkscape"
   xmlns:sodipodi="http://sodipodi.sourceforge.net/DTD/sodipodi-0.dtd"
   xmlns="http://www.w3.org/2000/svg"
   xmlns:svg="http://www.w3.org/2000/svg">
  <defs
     id="defs2" />
  <sodipodi:namedview
     id="namedview2"
     pagecolor="#ffffff"
     bordercolor="#000000"
     borderopacity="0.25"
     inkscape:showpageshadow="2"
     inkscape:pageopacity="0.0"
     inkscape:pagecheckerboard="0"
     inkscape:deskcolor="#d1d1d1" />
  <path
     id="path1"
     style="baseline-shift:baseline;display:inline;overflow:visible;vector-effect:none;fill:#000000;stroke:none;stroke-linecap:butt;stroke-linejoin:miter;enable-background:accumulate;stop-color:#000000;stop-opacity:1;opacity:1"
     d="M 9 2.5507812 C 6.547663 2.5507812 4.5507812 4.547663 4.5507812 7 C 4.5507812 9.452337 6.547663 11.449219 9 11.449219 C 11.452337 11.449219 13.449219 9.452337 13.449219 7 C 13.449219 4.547663 11.452337 2.5507813 9 2.5507812 z M 9 3.4492188 C 10.965941 3.4492188 12.550781 5.034059 12.550781 7 C 12.550781 8.965941 10.965941 10.550781 9 10.550781 C 7.034059 10.550781 5.4492188 8.965941 5.4492188 7 C 5.4492188 5.034059 7.034059 3.4492188 9 3.4492188 z M 22 8.5488281 A 0.44999999 0.44999999 0 0 0 21.681641 8.6816406 L 18 12.363281 L 16.318359 10.681641 A 0.44999999 0.44999999 0 0 0 15.681641 10.681641 A 0.44999999 0.44999999 0 0 0 15.681641 11.318359 L 17.681641 13.318359 A 0.45004499 0.45004499 0 0 0 18.318359 13.318359 L 22.318359 9.3183594 A 0.44999999 0.44999999 0 0 0 22.318359 8.6816406 A 0.44999999 0.44999999 0 0 0 22 8.5488281 z M 6 14.550781 C 3.547663 14.550781 1.5507814 16.547663 1.5507812 19 L 1.5507812 21 A 0.44999999 0.44999999 0 0 0 2 21.449219 A 0.44999999 0.44999999 0 0 0 2.4492188 21 L 2.4492188 19 C 2.4492188 17.034059 4.034059 15.449219 6 15.449219 L 12 15.449219 C 13.965941 15.449219 15.550781 17.034059 15.550781 19 L 15.550781 21 A 0.44999999 0.44999999 0 0 0 16 21.449219 A 0.44999999 0.44999999 0 0 0 16.449219 21 L 16.449219 19 C 16.449219 16.547663 14.452337 14.550781 12 14.550781 L 6 14.550781 z " />
</svg>
