<?xml version="1.0" encoding="UTF-8" standalone="no"?>
<svg
   width="24"
   height="24"
   viewBox="0 0 24 24"
   fill="none"
   stroke="currentColor"
   stroke-width="0.9"
   stroke-linecap="round"
   stroke-linejoin="round"
   version="1.1"
   id="svg3"
   sodipodi:docname=".tmp_variable.svg"
   xmlns:inkscape="http://www.inkscape.org/namespaces/inkscape"
   xmlns:sodipodi="http://sodipodi.sourceforge.net/DTD/sodipodi-0.dtd"
   xmlns="http://www.w3.org/2000/svg"
   xmlns:svg="http://www.w3.org/2000/svg">
  <defs
     id="defs3" />
  <sodipodi:namedview
     id="namedview3"
     pagecolor="#ffffff"
     bordercolor="#000000"
     borderopacity="0.25"
     inkscape:showpageshadow="2"
     inkscape:pageopacity="0.0"
     inkscape:pagecheckerboard="0"
     inkscape:deskcolor="#d1d1d1" />
  <path
     id="path1"
     style="baseline-shift:baseline;display:inline;overflow:visible;vector-effect:none;fill:#000000;stroke:none;stroke-linecap:butt;stroke-linejoin:miter;enable-background:accumulate;stop-color:#000000;stop-opacity:1;opacity:1"
     d="M 8.0058594 2.5507812 A 0.44999999 0.44999999 0 0 0 7.7304688 2.640625 C 7.7304688 2.640625 3.5507812 5.8 3.5507812 12 C 3.5507812 18.2 7.7304688 21.359375 7.7304688 21.359375 A 0.44999999 0.44999999 0 0 0 8.359375 21.269531 A 0.44999999 0.44999999 0 0 0 8.2695312 20.640625 C 8.2695312 20.640625 4.4492188 17.8 4.4492188 12 C 4.4492188 6.2 8.2695312 3.359375 8.2695312 3.359375 A 0.44999999 0.44999999 0 0 0 8.359375 2.7304688 A 0.44999999 0.44999999 0 0 0 8.0058594 2.5507812 z M 15.994141 2.5507812 A 0.44999999 0.44999999 0 0 0 15.640625 2.7304688 A 0.44999999 0.44999999 0 0 0 15.730469 3.359375 C 15.730469 3.359375 19.550781 6.2 19.550781 12 C 19.550781 17.8 15.730469 20.640625 15.730469 20.640625 A 0.44999999 0.44999999 0 0 0 15.640625 21.269531 A 0.44999999 0.44999999 0 0 0 16.269531 21.359375 C 16.269531 21.359375 20.449219 18.2 20.449219 12 C 20.449219 5.8 16.269531 2.640625 16.269531 2.640625 A 0.44999999 0.44999999 0 0 0 15.994141 2.5507812 z M 9 8.5488281 A 0.44999999 0.44999999 0 0 0 8.6816406 8.6816406 A 0.44999999 0.44999999 0 0 0 8.6816406 9.3183594 L 11.363281 12 L 8.6816406 14.681641 A 0.44999999 0.44999999 0 0 0 8.6816406 15.318359 A 0.44999999 0.44999999 0 0 0 9.3183594 15.318359 L 12 12.636719 L 14.681641 15.318359 A 0.44999999 0.44999999 0 0 0 15.318359 15.318359 A 0.44999999 0.44999999 0 0 0 15.318359 14.681641 L 12.636719 12 L 15.318359 9.3183594 A 0.44999999 0.44999999 0 0 0 15.318359 8.6816406 A 0.44999999 0.44999999 0 0 0 14.681641 8.6816406 L 12 11.363281 L 9.3183594 8.6816406 A 0.44999999 0.44999999 0 0 0 9 8.5488281 z " />
</svg>
