<?xml version="1.0" encoding="UTF-8" standalone="no"?>
<svg
   width="24"
   height="24"
   viewBox="0 0 24 24"
   fill="none"
   stroke="currentColor"
   stroke-width="0.9"
   stroke-linecap="round"
   stroke-linejoin="round"
   version="1.1"
   id="svg7"
   sodipodi:docname=".tmp_vector-square.svg"
   xmlns:inkscape="http://www.inkscape.org/namespaces/inkscape"
   xmlns:sodipodi="http://sodipodi.sourceforge.net/DTD/sodipodi-0.dtd"
   xmlns="http://www.w3.org/2000/svg"
   xmlns:svg="http://www.w3.org/2000/svg">
  <defs
     id="defs7" />
  <sodipodi:namedview
     id="namedview7"
     pagecolor="#ffffff"
     bordercolor="#000000"
     borderopacity="0.25"
     inkscape:showpageshadow="2"
     inkscape:pageopacity="0.0"
     inkscape:pagecheckerboard="0"
     inkscape:deskcolor="#d1d1d1" />
  <path
     id="path1"
     style="baseline-shift:baseline;display:inline;overflow:visible;vector-effect:none;fill:#000000;stroke:none;stroke-linecap:butt;stroke-linejoin:miter;enable-background:accumulate;stop-color:#000000;stop-opacity:1;opacity:1"
     d="M 3 1.5507812 C 2.2044838 1.5507812 1.5507813 2.2044838 1.5507812 3 L 1.5507812 6 C 1.5507812 6.7955162 2.2044838 7.4492187 3 7.4492188 L 3.9511719 7.4492188 C 3.3815177 10.456297 3.3815178 13.543703 3.9511719 16.550781 L 3 16.550781 C 2.2044838 16.550781 1.5507813 17.204484 1.5507812 18 L 1.5507812 21 C 1.5507812 21.795516 2.2044838 22.449219 3 22.449219 L 6 22.449219 C 6.7955162 22.449219 7.4492187 21.795516 7.4492188 21 L 7.4492188 20.048828 C 10.456297 20.618483 13.543703 20.618483 16.550781 20.048828 L 16.550781 21 C 16.550781 21.795516 17.204484 22.449219 18 22.449219 L 21 22.449219 C 21.795516 22.449219 22.449219 21.795516 22.449219 21 L 22.449219 18 C 22.449219 17.204484 21.795516 16.550781 21 16.550781 L 20.048828 16.550781 C 20.618483 13.543703 20.618483 10.456297 20.048828 7.4492188 L 21 7.4492188 C 21.795516 7.4492188 22.449219 6.7955162 22.449219 6 L 22.449219 3 C 22.449219 2.2044838 21.795516 1.5507813 21 1.5507812 L 18 1.5507812 C 17.204484 1.5507812 16.550781 2.2044838 16.550781 3 L 16.550781 3.9511719 C 15.047243 3.6662376 13.523621 3.5234375 12 3.5234375 C 10.476379 3.5234375 8.9527578 3.6662376 7.4492188 3.9511719 L 7.4492188 3 C 7.4492188 2.2044838 6.7955162 1.5507813 6 1.5507812 L 3 1.5507812 z M 3 2.4492188 L 6 2.4492188 C 6.3124838 2.4492188 6.5507813 2.6875162 6.5507812 3 L 6.5507812 4.5 A 0.44999999 0.44999999 0 0 0 6.5507812 4.5019531 L 6.5507812 6 C 6.5507812 6.3124838 6.3124838 6.5507813 6 6.5507812 L 4.5019531 6.5507812 L 4.5 6.5507812 L 3 6.5507812 C 2.6875162 6.5507812 2.4492188 6.3124838 2.4492188 6 L 2.4492188 3 C 2.4492188 2.6875162 2.6875162 2.4492188 3 2.4492188 z M 18 2.4492188 L 21 2.4492188 C 21.312484 2.4492188 21.550781 2.6875162 21.550781 3 L 21.550781 6 C 21.550781 6.3124838 21.312484 6.5507813 21 6.5507812 L 19.498047 6.5507812 L 18 6.5507812 C 17.687516 6.5507812 17.449219 6.3124838 17.449219 6 L 17.449219 4.5019531 A 0.44999999 0.44999999 0 0 0 17.449219 4.5 L 17.449219 3 C 17.449219 2.6875162 17.687516 2.4492188 18 2.4492188 z M 12 4.421875 C 13.524147 4.421875 15.048294 4.5712685 16.550781 4.8671875 L 16.550781 6 C 16.550781 6.7955162 17.204484 7.4492187 18 7.4492188 L 19.132812 7.4492188 C 19.72465 10.454193 19.72465 13.545807 19.132812 16.550781 L 18 16.550781 C 17.204484 16.550781 16.550781 17.204484 16.550781 18 L 16.550781 19.132812 C 13.545807 19.72465 10.454193 19.72465 7.4492188 19.132812 L 7.4492188 18 C 7.4492188 17.204484 6.7955162 16.550781 6 16.550781 L 4.8671875 16.550781 C 4.2753495 13.545807 4.2753495 10.454193 4.8671875 7.4492188 L 6 7.4492188 C 6.7955162 7.4492188 7.4492187 6.7955162 7.4492188 6 L 7.4492188 4.8671875 C 8.9517056 4.5712685 10.475853 4.421875 12 4.421875 z M 3 17.449219 L 4.5019531 17.449219 L 6 17.449219 C 6.3124838 17.449219 6.5507813 17.687516 6.5507812 18 L 6.5507812 19.498047 A 0.44999999 0.44999999 0 0 0 6.5507812 19.5 L 6.5507812 21 C 6.5507812 21.312484 6.3124838 21.550781 6 21.550781 L 3 21.550781 C 2.6875162 21.550781 2.4492188 21.312484 2.4492188 21 L 2.4492188 18 C 2.4492188 17.687516 2.6875162 17.449219 3 17.449219 z M 18 17.449219 L 19.5 17.449219 L 21 17.449219 C 21.312484 17.449219 21.550781 17.687516 21.550781 18 L 21.550781 21 C 21.550781 21.312484 21.312484 21.550781 21 21.550781 L 18 21.550781 C 17.687516 21.550781 17.449219 21.312484 17.449219 21 L 17.449219 19.5 A 0.44999999 0.44999999 0 0 0 17.449219 19.498047 L 17.449219 18 C 17.449219 17.687516 17.687516 17.449219 18 17.449219 z " />
</svg>
