<?xml version="1.0" encoding="UTF-8" standalone="no"?>
<svg
   width="24"
   height="24"
   viewBox="0 0 24 24"
   fill="none"
   stroke="currentColor"
   stroke-width="0.9"
   stroke-linecap="round"
   stroke-linejoin="round"
   version="1.1"
   id="svg9"
   sodipodi:docname=".tmp_wand.svg"
   xmlns:inkscape="http://www.inkscape.org/namespaces/inkscape"
   xmlns:sodipodi="http://sodipodi.sourceforge.net/DTD/sodipodi-0.dtd"
   xmlns="http://www.w3.org/2000/svg"
   xmlns:svg="http://www.w3.org/2000/svg">
  <defs
     id="defs9" />
  <sodipodi:namedview
     id="namedview9"
     pagecolor="#ffffff"
     bordercolor="#000000"
     borderopacity="0.25"
     inkscape:showpageshadow="2"
     inkscape:pageopacity="0.0"
     inkscape:pagecheckerboard="0"
     inkscape:deskcolor="#d1d1d1" />
  <path
     id="path1"
     style="baseline-shift:baseline;display:inline;overflow:visible;vector-effect:none;fill:#000000;stroke:none;stroke-linecap:butt;stroke-linejoin:miter;enable-background:accumulate;stop-color:#000000;stop-opacity:1;opacity:1"
     d="M 15 1.5507812 A 0.44999999 0.44999999 0 0 0 14.550781 2 L 14.550781 4 A 0.44999999 0.44999999 0 0 0 15 4.4492188 A 0.44999999 0.44999999 0 0 0 15.449219 4 L 15.449219 2 A 0.44999999 0.44999999 0 0 0 15 1.5507812 z M 11 4.5488281 A 0.44999999 0.44999999 0 0 0 10.681641 4.6816406 A 0.44999999 0.44999999 0 0 0 10.681641 5.3183594 L 11.880859 6.5175781 A 0.44999999 0.44999999 0 0 0 12.517578 6.5175781 A 0.44999999 0.44999999 0 0 0 12.517578 5.8808594 L 11.318359 4.6816406 A 0.44999999 0.44999999 0 0 0 11 4.5488281 z M 19 4.5488281 A 0.44999999 0.44999999 0 0 0 18.681641 4.6816406 L 17.482422 5.8808594 A 0.44999999 0.44999999 0 0 0 17.482422 6.5175781 A 0.44999999 0.44999999 0 0 0 18.119141 6.5175781 L 19.318359 5.3183594 A 0.44999999 0.44999999 0 0 0 19.318359 4.6816406 A 0.44999999 0.44999999 0 0 0 19 4.5488281 z M 8 8.5507812 A 0.44999999 0.44999999 0 0 0 7.5507812 9 A 0.44999999 0.44999999 0 0 0 8 9.4492188 L 10 9.4492188 A 0.44999999 0.44999999 0 0 0 10.449219 9 A 0.44999999 0.44999999 0 0 0 10 8.5507812 L 8 8.5507812 z M 15 8.5507812 A 0.44999999 0.44999999 0 0 0 14.550781 9 A 0.44999999 0.44999999 0 0 0 15 9.4492188 L 15.009766 9.4492188 A 0.44999999 0.44999999 0 0 0 15.460938 9 A 0.44999999 0.44999999 0 0 0 15.009766 8.5507812 L 15 8.5507812 z M 20 8.5507812 A 0.44999999 0.44999999 0 0 0 19.550781 9 A 0.44999999 0.44999999 0 0 0 20 9.4492188 L 22 9.4492188 A 0.44999999 0.44999999 0 0 0 22.449219 9 A 0.44999999 0.44999999 0 0 0 22 8.5507812 L 20 8.5507812 z M 17.800781 11.349609 A 0.44999999 0.44999999 0 0 0 17.482422 11.482422 A 0.44999999 0.44999999 0 0 0 17.482422 12.119141 L 18.681641 13.318359 A 0.44999999 0.44999999 0 0 0 19.318359 13.318359 A 0.44999999 0.44999999 0 0 0 19.318359 12.681641 L 18.119141 11.482422 A 0.44999999 0.44999999 0 0 0 17.800781 11.349609 z M 12 11.548828 A 0.44999999 0.44999999 0 0 0 11.681641 11.681641 L 2.6816406 20.681641 A 0.44999999 0.44999999 0 0 0 2.6816406 21.318359 A 0.44999999 0.44999999 0 0 0 3.3183594 21.318359 L 12.318359 12.318359 A 0.44999999 0.44999999 0 0 0 12.318359 11.681641 A 0.44999999 0.44999999 0 0 0 12 11.548828 z M 15 13.550781 A 0.44999999 0.44999999 0 0 0 14.550781 14 L 14.550781 16 A 0.44999999 0.44999999 0 0 0 15 16.449219 A 0.44999999 0.44999999 0 0 0 15.449219 16 L 15.449219 14 A 0.44999999 0.44999999 0 0 0 15 13.550781 z " />
</svg>
