<?xml version="1.0" encoding="UTF-8" standalone="no"?>
<svg
   width="24"
   height="24"
   viewBox="0 0 24 24"
   fill="none"
   stroke="currentColor"
   stroke-width="0.9"
   stroke-linecap="round"
   stroke-linejoin="round"
   version="1.1"
   id="svg3"
   sodipodi:docname=".tmp_washing-machine.svg"
   xmlns:inkscape="http://www.inkscape.org/namespaces/inkscape"
   xmlns:sodipodi="http://sodipodi.sourceforge.net/DTD/sodipodi-0.dtd"
   xmlns="http://www.w3.org/2000/svg"
   xmlns:svg="http://www.w3.org/2000/svg">
  <defs
     id="defs3" />
  <sodipodi:namedview
     id="namedview3"
     pagecolor="#ffffff"
     bordercolor="#000000"
     borderopacity="0.25"
     inkscape:showpageshadow="2"
     inkscape:pageopacity="0.0"
     inkscape:pagecheckerboard="0"
     inkscape:deskcolor="#d1d1d1" />
  <path
     id="path1"
     style="baseline-shift:baseline;display:inline;overflow:visible;vector-effect:none;fill:#000000;stroke:none;stroke-linecap:butt;stroke-linejoin:miter;enable-background:accumulate;stop-color:#000000;stop-opacity:1;opacity:1"
     d="M 5 1.5507812 C 3.6504838 1.5507812 2.5507812 2.6504838 2.5507812 4 L 2.5507812 20 C 2.5507812 21.349516 3.6504838 22.449219 5 22.449219 L 19 22.449219 C 20.349516 22.449219 21.449219 21.349516 21.449219 20 L 21.449219 4 C 21.449219 2.6504838 20.349516 1.5507813 19 1.5507812 L 5 1.5507812 z M 5 2.4492188 L 19 2.4492188 C 19.866484 2.4492188 20.550781 3.1335162 20.550781 4 L 20.550781 20 C 20.550781 20.866484 19.866484 21.550781 19 21.550781 L 5 21.550781 C 4.1335162 21.550781 3.4492188 20.866484 3.4492188 20 L 3.4492188 6.4492188 L 6 6.4492188 A 0.44999999 0.44999999 0 0 0 6.4492188 6 A 0.44999999 0.44999999 0 0 0 6 5.5507812 L 3.4492188 5.5507812 L 3.4492188 4 C 3.4492188 3.1335162 4.1335162 2.4492186 5 2.4492188 z M 17 5.5507812 A 0.44999999 0.44999999 0 0 0 16.550781 6 A 0.44999999 0.44999999 0 0 0 17 6.4492188 L 17.009766 6.4492188 A 0.44999999 0.44999999 0 0 0 17.460938 6 A 0.44999999 0.44999999 0 0 0 17.009766 5.5507812 L 17 5.5507812 z M 12 7.5507812 C 11.88177 7.5507812 11.766736 7.5571422 11.654297 7.5683594 C 8.8108328 7.7480561 6.5507812 10.112015 6.5507812 13 C 6.5507812 16.004622 8.9953782 18.449219 12 18.449219 C 12.116637 18.449219 12.230865 18.438898 12.345703 18.431641 C 15.189167 18.251944 17.449219 15.887985 17.449219 13 C 17.449219 9.9953782 15.004622 7.5507812 12 7.5507812 z M 12 8.4492188 C 14.518226 8.4492188 16.550781 10.481774 16.550781 13 C 16.550781 14.486732 15.842745 15.804929 14.744141 16.634766 C 14.882188 16.27259 14.949219 15.885068 14.949219 15.5 C 14.949219 14.775 14.710077 14.043954 14.210938 13.482422 C 13.711798 12.92089 12.945833 12.550781 12 12.550781 C 11.279167 12.550781 10.795131 12.29589 10.460938 11.919922 C 10.126743 11.543954 9.9492188 11.025 9.9492188 10.5 C 9.9492188 9.975 10.126743 9.4560463 10.460938 9.0800781 C 10.79513 8.70411 11.279167 8.4492187 12 8.4492188 z M 9.2558594 9.3652344 C 9.1178117 9.7274098 9.0507812 10.114932 9.0507812 10.5 C 9.0507812 11.225 9.2899233 11.956046 9.7890625 12.517578 C 10.288202 13.07911 11.054167 13.449219 12 13.449219 C 12.720833 13.449219 13.204868 13.70411 13.539062 14.080078 C 13.873256 14.456046 14.050781 14.975 14.050781 15.5 C 14.050781 16.025 13.873255 16.543954 13.539062 16.919922 C 13.204868 17.29589 12.720833 17.550781 12 17.550781 C 9.4817743 17.550781 7.4492187 15.518226 7.4492188 13 C 7.4492188 11.513268 8.157255 10.195071 9.2558594 9.3652344 z " />
</svg>
