<?xml version="1.0" encoding="UTF-8" standalone="no"?>
<svg
   width="24"
   height="24"
   viewBox="0 0 24 24"
   fill="none"
   stroke="currentColor"
   stroke-width="0.9"
   stroke-linecap="round"
   stroke-linejoin="round"
   version="1.1"
   id="svg3"
   sodipodi:docname=".tmp_waves.svg"
   xmlns:inkscape="http://www.inkscape.org/namespaces/inkscape"
   xmlns:sodipodi="http://sodipodi.sourceforge.net/DTD/sodipodi-0.dtd"
   xmlns="http://www.w3.org/2000/svg"
   xmlns:svg="http://www.w3.org/2000/svg">
  <defs
     id="defs3" />
  <sodipodi:namedview
     id="namedview3"
     pagecolor="#ffffff"
     bordercolor="#000000"
     borderopacity="0.25"
     inkscape:showpageshadow="2"
     inkscape:pageopacity="0.0"
     inkscape:pagecheckerboard="0"
     inkscape:deskcolor="#d1d1d1" />
  <path
     id="path1"
     style="baseline-shift:baseline;display:inline;overflow:visible;vector-effect:none;fill:#000000;stroke:none;stroke-linecap:butt;stroke-linejoin:miter;enable-background:accumulate;stop-color:#000000;stop-opacity:1;opacity:1"
     d="M 9.5 4.5507812 C 8.13 4.5507812 7.34375 5.1484375 6.71875 5.6484375 C 6.09375 6.1484375 5.63 6.5507814 4.5 6.5507812 C 3.3153846 6.5507812 2.8871094 6.1542969 2.2871094 5.6542969 A 0.44999999 0.44999999 0 0 0 1.6542969 5.7128906 A 0.44999999 0.44999999 0 0 0 1.7128906 6.3457031 C 2.3128906 6.8457031 3.0846154 7.4492187 4.5 7.4492188 C 5.87 7.4492188 6.65625 6.8515625 7.28125 6.3515625 C 7.90625 5.8515625 8.37 5.4492187 9.5 5.4492188 C 10.684615 5.4492188 11.112891 5.8457031 11.712891 6.3457031 C 12.312891 6.8457031 13.084615 7.4492187 14.5 7.4492188 C 15.87 7.4492188 16.65625 6.8515625 17.28125 6.3515625 C 17.90625 5.8515625 18.37 5.4492187 19.5 5.4492188 C 20.684615 5.4492188 21.112891 5.8457031 21.712891 6.3457031 A 0.44999999 0.44999999 0 0 0 22.345703 6.2871094 A 0.44999999 0.44999999 0 0 0 22.287109 5.6542969 C 21.687109 5.1542969 20.915385 4.5507813 19.5 4.5507812 C 18.13 4.5507812 17.34375 5.1484375 16.71875 5.6484375 C 16.09375 6.1484375 15.63 6.5507814 14.5 6.5507812 C 13.315385 6.5507812 12.887109 6.1542969 12.287109 5.6542969 C 11.687109 5.1542969 10.915385 4.5507813 9.5 4.5507812 z M 9.5 10.550781 C 8.13 10.550781 7.34375 11.148437 6.71875 11.648438 C 6.09375 12.148438 5.63 12.550781 4.5 12.550781 C 3.3153846 12.550781 2.8871094 12.154297 2.2871094 11.654297 A 0.44999999 0.44999999 0 0 0 1.6542969 11.712891 A 0.44999999 0.44999999 0 0 0 1.7128906 12.345703 C 2.3128906 12.845703 3.0846154 13.449219 4.5 13.449219 C 5.87 13.449219 6.65625 12.851562 7.28125 12.351562 C 7.90625 11.851562 8.37 11.449219 9.5 11.449219 C 10.684615 11.449219 11.112891 11.845703 11.712891 12.345703 C 12.312891 12.845703 13.084615 13.449219 14.5 13.449219 C 15.87 13.449219 16.65625 12.851562 17.28125 12.351562 C 17.90625 11.851562 18.37 11.449219 19.5 11.449219 C 20.684615 11.449219 21.112891 11.845703 21.712891 12.345703 A 0.44999999 0.44999999 0 0 0 22.345703 12.287109 A 0.44999999 0.44999999 0 0 0 22.287109 11.654297 C 21.687109 11.154297 20.915385 10.550781 19.5 10.550781 C 18.13 10.550781 17.34375 11.148437 16.71875 11.648438 C 16.09375 12.148438 15.63 12.550781 14.5 12.550781 C 13.315385 12.550781 12.887109 12.154297 12.287109 11.654297 C 11.687109 11.154297 10.915385 10.550781 9.5 10.550781 z M 9.5 16.550781 C 8.13 16.550781 7.34375 17.148438 6.71875 17.648438 C 6.09375 18.148438 5.63 18.550781 4.5 18.550781 C 3.3153846 18.550781 2.8871094 18.154297 2.2871094 17.654297 A 0.44999999 0.44999999 0 0 0 1.6542969 17.712891 A 0.44999999 0.44999999 0 0 0 1.7128906 18.345703 C 2.3128906 18.845703 3.0846154 19.449219 4.5 19.449219 C 5.87 19.449219 6.65625 18.851563 7.28125 18.351562 C 7.90625 17.851562 8.37 17.449219 9.5 17.449219 C 10.684615 17.449219 11.112891 17.845703 11.712891 18.345703 C 12.312891 18.845703 13.084615 19.449219 14.5 19.449219 C 15.87 19.449219 16.65625 18.851563 17.28125 18.351562 C 17.90625 17.851562 18.37 17.449219 19.5 17.449219 C 20.684615 17.449219 21.112891 17.845703 21.712891 18.345703 A 0.44999999 0.44999999 0 0 0 22.345703 18.287109 A 0.44999999 0.44999999 0 0 0 22.287109 17.654297 C 21.687109 17.154297 20.915385 16.550781 19.5 16.550781 C 18.13 16.550781 17.34375 17.148438 16.71875 17.648438 C 16.09375 18.148438 15.63 18.550781 14.5 18.550781 C 13.315385 18.550781 12.887109 18.154297 12.287109 17.654297 C 11.687109 17.154297 10.915385 16.550781 9.5 16.550781 z " />
</svg>
