<?xml version="1.0" encoding="UTF-8" standalone="no"?>
<svg
   width="24"
   height="24"
   viewBox="0 0 24 24"
   fill="none"
   stroke="currentColor"
   stroke-width="0.9"
   stroke-linecap="round"
   stroke-linejoin="round"
   version="1.1"
   id="svg2"
   sodipodi:docname=".tmp_wifi-low.svg"
   xmlns:inkscape="http://www.inkscape.org/namespaces/inkscape"
   xmlns:sodipodi="http://sodipodi.sourceforge.net/DTD/sodipodi-0.dtd"
   xmlns="http://www.w3.org/2000/svg"
   xmlns:svg="http://www.w3.org/2000/svg">
  <defs
     id="defs2" />
  <sodipodi:namedview
     id="namedview2"
     pagecolor="#ffffff"
     bordercolor="#000000"
     borderopacity="0.25"
     inkscape:showpageshadow="2"
     inkscape:pageopacity="0.0"
     inkscape:pagecheckerboard="0"
     inkscape:deskcolor="#d1d1d1" />
  <path
     id="path1"
     style="baseline-shift:baseline;display:inline;overflow:visible;vector-effect:none;fill:#000000;stroke:none;stroke-linecap:butt;stroke-linejoin:miter;enable-background:accumulate;stop-color:#000000;stop-opacity:1;opacity:1"
     d="M 12 14.552734 C 10.621406 14.552734 9.2433581 15.070559 8.1855469 16.107422 A 0.44999999 0.44999999 0 0 0 8.1777344 16.744141 A 0.44999999 0.44999999 0 0 0 8.8144531 16.75 C 10.587266 15.012296 13.412734 15.012296 15.185547 16.75 A 0.44999999 0.44999999 0 0 0 15.822266 16.744141 A 0.44999999 0.44999999 0 0 0 15.814453 16.107422 C 14.756627 15.070559 13.378594 14.552734 12 14.552734 z M 12 19.550781 A 0.44999999 0.44999999 0 0 0 11.550781 20 A 0.44999999 0.44999999 0 0 0 12 20.449219 L 12.009766 20.449219 A 0.44999999 0.44999999 0 0 0 12.460938 20 A 0.44999999 0.44999999 0 0 0 12.009766 19.550781 L 12 19.550781 z " />
</svg>
