<?xml version="1.0" encoding="UTF-8" standalone="no"?>
<svg
   width="24"
   height="24"
   viewBox="0 0 24 24"
   fill="none"
   stroke="currentColor"
   stroke-width="0.8"
   stroke-linecap="round"
   stroke-linejoin="round"
   version="1.1"
   id="svg4"
   sodipodi:docname=".tmp_accessibility.svg"
   xmlns:inkscape="http://www.inkscape.org/namespaces/inkscape"
   xmlns:sodipodi="http://sodipodi.sourceforge.net/DTD/sodipodi-0.dtd"
   xmlns="http://www.w3.org/2000/svg"
   xmlns:svg="http://www.w3.org/2000/svg">
  <defs
     id="defs4" />
  <sodipodi:namedview
     id="namedview4"
     pagecolor="#ffffff"
     bordercolor="#000000"
     borderopacity="0.25"
     inkscape:showpageshadow="2"
     inkscape:pageopacity="0.0"
     inkscape:pagecheckerboard="0"
     inkscape:deskcolor="#d1d1d1" />
  <path
     id="circle1"
     style="baseline-shift:baseline;display:inline;overflow:visible;vector-effect:none;fill:#000000;stroke:none;stroke-linecap:butt;stroke-linejoin:miter;enable-background:accumulate;stop-color:#000000;stop-opacity:1;opacity:1"
     d="M 16 2.5996094 C 15.231539 2.5996094 14.599609 3.2315392 14.599609 4 C 14.599609 4.7684608 15.231539 5.4003906 16 5.4003906 C 16.768461 5.4003906 17.400391 4.7684608 17.400391 4 C 17.400391 3.2315392 16.768461 2.5996094 16 2.5996094 z M 16 3.4003906 C 16.336109 3.4003906 16.599609 3.6638913 16.599609 4 C 16.599609 4.3361087 16.336109 4.5996094 16 4.5996094 C 15.663891 4.5996094 15.400391 4.3361087 15.400391 4 C 15.400391 3.6638913 15.663891 3.4003906 16 3.4003906 z M 7.9941406 4.5996094 A 0.40004001 0.40004001 0 0 0 7.7167969 4.7167969 L 4.7167969 7.7167969 A 0.40000001 0.40000001 0 0 0 4.7167969 8.2832031 A 0.40000001 0.40000001 0 0 0 5.2832031 8.2832031 L 8.0703125 5.4941406 L 12.921875 8.140625 L 10.982422 11.019531 C 10.15597 10.685102 9.2371386 10.550059 8.2988281 10.673828 C 7.7717943 10.743348 7.2390078 10.893457 6.7128906 11.136719 A 0.40000001 0.40000001 0 0 0 6.5175781 11.667969 A 0.40000001 0.40000001 0 0 0 7.0488281 11.863281 C 8.8669613 11.022627 10.722023 11.456047 12.001953 12.572266 C 13.281884 13.688484 13.96251 15.467237 13.376953 17.382812 A 0.40000001 0.40000001 0 0 0 13.642578 17.882812 A 0.40000001 0.40000001 0 0 0 14.142578 17.617188 C 14.622964 16.045664 14.361789 14.518827 13.636719 13.298828 L 18.525391 12.484375 L 17.603516 18.943359 A 0.40000001 0.40000001 0 0 0 17.943359 19.396484 A 0.40000001 0.40000001 0 0 0 18.396484 19.056641 L 19.396484 12.056641 A 0.40004001 0.40004001 0 0 0 18.933594 11.605469 L 13.121094 12.574219 C 12.938626 12.357134 12.740378 12.154535 12.527344 11.96875 C 12.272652 11.746635 11.997408 11.547135 11.705078 11.375 L 13.832031 8.2226562 A 0.40004001 0.40004001 0 0 0 13.691406 7.6484375 L 8.1914062 4.6484375 A 0.40004001 0.40004001 0 0 0 7.9941406 4.5996094 z M 4.2539062 14.099609 A 0.40000001 0.40000001 0 0 0 3.8574219 14.382812 C 3.1796468 16.60007 3.9774042 18.727251 5.4726562 20.03125 C 6.9679084 21.335249 9.1826412 21.83633 11.287109 20.863281 A 0.40000001 0.40000001 0 0 0 11.482422 20.332031 A 0.40000001 0.40000001 0 0 0 10.951172 20.136719 C 9.1330386 20.977373 7.2779773 20.543953 5.9980469 19.427734 C 4.7181164 18.311516 4.0374903 16.532764 4.6230469 14.617188 A 0.40000001 0.40000001 0 0 0 4.3574219 14.117188 A 0.40000001 0.40000001 0 0 0 4.2539062 14.099609 z " />
</svg>
