<?xml version="1.0" encoding="UTF-8" standalone="no"?>
<svg
   width="24"
   height="24"
   viewBox="0 0 24 24"
   fill="none"
   stroke="currentColor"
   stroke-width="0.8"
   stroke-linecap="round"
   stroke-linejoin="round"
   version="1.1"
   id="svg6"
   sodipodi:docname=".tmp_alarm-clock-plus.svg"
   xmlns:inkscape="http://www.inkscape.org/namespaces/inkscape"
   xmlns:sodipodi="http://sodipodi.sourceforge.net/DTD/sodipodi-0.dtd"
   xmlns="http://www.w3.org/2000/svg"
   xmlns:svg="http://www.w3.org/2000/svg">
  <defs
     id="defs6" />
  <sodipodi:namedview
     id="namedview6"
     pagecolor="#ffffff"
     bordercolor="#000000"
     borderopacity="0.25"
     inkscape:showpageshadow="2"
     inkscape:pageopacity="0.0"
     inkscape:pagecheckerboard="0"
     inkscape:deskcolor="#d1d1d1" />
  <path
     id="circle1"
     style="baseline-shift:baseline;display:inline;overflow:visible;vector-effect:none;fill:#000000;stroke:none;stroke-linecap:butt;stroke-linejoin:miter;enable-background:accumulate;stop-color:#000000;stop-opacity:1;opacity:1"
     d="M 5 2.5996094 A 0.40000001 0.40000001 0 0 0 4.7167969 2.7167969 L 1.7167969 5.7167969 A 0.40000001 0.40000001 0 0 0 1.7167969 6.2832031 A 0.40000001 0.40000001 0 0 0 2.2832031 6.2832031 L 5.2832031 3.2832031 A 0.40000001 0.40000001 0 0 0 5.2832031 2.7167969 A 0.40000001 0.40000001 0 0 0 5 2.5996094 z M 19 2.5996094 A 0.40000001 0.40000001 0 0 0 18.716797 2.7167969 A 0.40000001 0.40000001 0 0 0 18.716797 3.2832031 L 21.716797 6.2832031 A 0.40000001 0.40000001 0 0 0 22.283203 6.2832031 A 0.40000001 0.40000001 0 0 0 22.283203 5.7167969 L 19.283203 2.7167969 A 0.40000001 0.40000001 0 0 0 19 2.5996094 z M 12 4.5996094 C 7.365546 4.5996094 3.5996094 8.365546 3.5996094 13 C 3.5996094 15.19134 4.440723 17.188862 5.8183594 18.685547 L 3.7226562 20.712891 A 0.40000001 0.40000001 0 0 0 3.7128906 21.277344 A 0.40000001 0.40000001 0 0 0 4.2773438 21.287109 L 6.3886719 19.248047 C 7.8768605 20.585656 9.8446624 21.400391 12 21.400391 C 14.166766 21.400391 16.143804 20.576833 17.634766 19.226562 L 19.71875 21.285156 A 0.40000001 0.40000001 0 0 0 20.285156 21.28125 A 0.40000001 0.40000001 0 0 0 20.28125 20.714844 L 18.203125 18.662109 C 19.568004 17.168047 20.400391 15.179906 20.400391 13 C 20.400391 8.365546 16.634454 4.5996094 12 4.5996094 z M 12 5.4003906 C 16.202102 5.4003906 19.599609 8.7978981 19.599609 13 C 19.599609 15.085881 18.763418 16.973475 17.40625 18.345703 A 0.40000001 0.40000001 0 0 0 17.355469 18.388672 A 0.40000001 0.40000001 0 0 0 17.318359 18.433594 C 15.948513 19.774508 14.071709 20.599609 12 20.599609 C 7.7978981 20.599609 4.4003906 17.202102 4.4003906 13 C 4.4003906 8.7978981 7.7978981 5.4003906 12 5.4003906 z M 12 9.5996094 A 0.40000001 0.40000001 0 0 0 11.599609 10 L 11.599609 12.599609 L 9 12.599609 A 0.40000001 0.40000001 0 0 0 8.5996094 13 A 0.40000001 0.40000001 0 0 0 9 13.400391 L 11.599609 13.400391 L 11.599609 16 A 0.40000001 0.40000001 0 0 0 12 16.400391 A 0.40000001 0.40000001 0 0 0 12.400391 16 L 12.400391 13.400391 L 15 13.400391 A 0.40000001 0.40000001 0 0 0 15.400391 13 A 0.40000001 0.40000001 0 0 0 15 12.599609 L 12.400391 12.599609 L 12.400391 10 A 0.40000001 0.40000001 0 0 0 12 9.5996094 z " />
</svg>
