<?xml version="1.0" encoding="UTF-8" standalone="no"?>
<svg
   width="24"
   height="24"
   viewBox="0 0 24 24"
   fill="none"
   stroke="currentColor"
   stroke-width="0.8"
   stroke-linecap="round"
   stroke-linejoin="round"
   version="1.1"
   id="svg2"
   sodipodi:docname=".tmp_arrow-left.svg"
   xmlns:inkscape="http://www.inkscape.org/namespaces/inkscape"
   xmlns:sodipodi="http://sodipodi.sourceforge.net/DTD/sodipodi-0.dtd"
   xmlns="http://www.w3.org/2000/svg"
   xmlns:svg="http://www.w3.org/2000/svg">
  <defs
     id="defs2" />
  <sodipodi:namedview
     id="namedview2"
     pagecolor="#ffffff"
     bordercolor="#000000"
     borderopacity="0.25"
     inkscape:showpageshadow="2"
     inkscape:pageopacity="0.0"
     inkscape:pagecheckerboard="0"
     inkscape:deskcolor="#d1d1d1" />
  <path
     id="path1"
     style="baseline-shift:baseline;display:inline;overflow:visible;vector-effect:none;fill:#000000;stroke:none;stroke-linecap:butt;stroke-linejoin:miter;enable-background:accumulate;stop-color:#000000;stop-opacity:1;opacity:1"
     d="M 12 4.5996094 A 0.40000001 0.40000001 0 0 0 11.716797 4.7167969 L 4.7207031 11.712891 L 4.7167969 11.716797 A 0.40000001 0.40000001 0 0 0 4.6855469 11.751953 A 0.40004001 0.40004001 0 0 0 4.6816406 11.755859 A 0.40000001 0.40000001 0 0 0 4.6542969 11.796875 A 0.40004001 0.40004001 0 0 0 4.6523438 11.798828 A 0.40000001 0.40000001 0 0 0 4.6308594 11.84375 A 0.40004001 0.40004001 0 0 0 4.6210938 11.871094 A 0.40000001 0.40000001 0 0 0 4.6132812 11.894531 A 0.40004001 0.40004001 0 0 0 4.6132812 12.103516 A 0.40000001 0.40000001 0 0 0 4.6210938 12.128906 A 0.40004001 0.40004001 0 0 0 4.6289062 12.152344 A 0.40000001 0.40000001 0 0 0 4.6308594 12.15625 A 0.40004001 0.40004001 0 0 0 4.6523438 12.201172 A 0.40000001 0.40000001 0 0 0 4.6542969 12.203125 A 0.40004001 0.40004001 0 0 0 4.6816406 12.244141 A 0.40000001 0.40000001 0 0 0 4.6855469 12.248047 A 0.40004001 0.40004001 0 0 0 4.7167969 12.283203 A 0.40000001 0.40000001 0 0 0 4.7207031 12.287109 L 11.716797 19.283203 A 0.40000001 0.40000001 0 0 0 12.283203 19.283203 A 0.40000001 0.40000001 0 0 0 12.283203 18.716797 L 5.9667969 12.400391 L 19 12.400391 A 0.40000001 0.40000001 0 0 0 19.400391 12 A 0.40000001 0.40000001 0 0 0 19 11.599609 L 5.9667969 11.599609 L 12.283203 5.2832031 A 0.40000001 0.40000001 0 0 0 12.283203 4.7167969 A 0.40000001 0.40000001 0 0 0 12 4.5996094 z " />
</svg>
