<?xml version="1.0" encoding="UTF-8" standalone="no"?>
<svg
   width="24"
   height="24"
   viewBox="0 0 24 24"
   fill="none"
   stroke="currentColor"
   stroke-width="0.8"
   stroke-linecap="round"
   stroke-linejoin="round"
   version="1.1"
   id="svg1"
   sodipodi:docname=".tmp_audio-waveform.svg"
   xmlns:inkscape="http://www.inkscape.org/namespaces/inkscape"
   xmlns:sodipodi="http://sodipodi.sourceforge.net/DTD/sodipodi-0.dtd"
   xmlns="http://www.w3.org/2000/svg"
   xmlns:svg="http://www.w3.org/2000/svg">
  <defs
     id="defs1" />
  <sodipodi:namedview
     id="namedview1"
     pagecolor="#ffffff"
     bordercolor="#000000"
     borderopacity="0.25"
     inkscape:showpageshadow="2"
     inkscape:pageopacity="0.0"
     inkscape:pagecheckerboard="0"
     inkscape:deskcolor="#d1d1d1" />
  <path
     id="path1"
     style="baseline-shift:baseline;display:inline;overflow:visible;vector-effect:none;fill:#000000;stroke:none;stroke-linecap:butt;stroke-linejoin:miter;enable-background:accumulate;stop-color:#000000;stop-opacity:1;opacity:1"
     d="M 14 1.5996094 C 13.411111 1.5996094 12.816848 1.7945296 12.359375 2.2011719 C 11.901902 2.6078142 11.599609 3.2333336 11.599609 4 L 11.599609 20 C 11.599609 20.566666 11.401902 20.941148 11.109375 21.201172 C 10.816848 21.461196 10.411111 21.599609 10 21.599609 C 9.5888889 21.599609 9.1831522 21.461196 8.890625 21.201172 C 8.5980978 20.941148 8.4003906 20.566666 8.4003906 20 L 8.4003906 7 C 8.4003906 6.2333336 8.0980978 5.6078142 7.640625 5.2011719 C 7.1831522 4.7945296 6.5888889 4.5996094 6 4.5996094 C 5.4111111 4.5996094 4.8168478 4.7945296 4.359375 5.2011719 C 3.9019022 5.6078142 3.5996094 6.2333336 3.5996094 7 L 3.5996094 11 C 3.5996094 11.888393 2.8883935 12.599609 2 12.599609 A 0.40000001 0.40000001 0 0 0 1.5996094 13 A 0.40000001 0.40000001 0 0 0 2 13.400391 C 3.3207455 13.400391 4.4003906 12.320746 4.4003906 11 L 4.4003906 7 C 4.4003906 6.4333337 4.5980978 6.0588522 4.890625 5.7988281 C 5.1831522 5.538804 5.5888889 5.4003906 6 5.4003906 C 6.4111111 5.4003906 6.8168478 5.538804 7.109375 5.7988281 C 7.4019022 6.0588522 7.5996094 6.4333337 7.5996094 7 L 7.5996094 20 C 7.5996094 20.766666 7.9019022 21.392186 8.359375 21.798828 C 8.8168478 22.20547 9.4111111 22.400391 10 22.400391 C 10.588889 22.400391 11.183152 22.20547 11.640625 21.798828 C 12.098098 21.392186 12.400391 20.766666 12.400391 20 L 12.400391 4 C 12.400391 3.4333337 12.598098 3.0588522 12.890625 2.7988281 C 13.183152 2.538804 13.588889 2.4003906 14 2.4003906 C 14.411111 2.4003906 14.816848 2.538804 15.109375 2.7988281 C 15.401902 3.0588522 15.599609 3.4333337 15.599609 4 L 15.599609 17 C 15.599609 17.766666 15.901902 18.392186 16.359375 18.798828 C 16.816848 19.20547 17.411111 19.400391 18 19.400391 C 18.588889 19.400391 19.183152 19.20547 19.640625 18.798828 C 20.098098 18.392186 20.400391 17.766666 20.400391 17 L 20.400391 13 C 20.400391 12.111607 21.111607 11.400391 22 11.400391 A 0.40000001 0.40000001 0 0 0 22.400391 11 A 0.40000001 0.40000001 0 0 0 22 10.599609 C 20.679254 10.599609 19.599609 11.679254 19.599609 13 L 19.599609 17 C 19.599609 17.566666 19.401902 17.941148 19.109375 18.201172 C 18.816848 18.461196 18.411111 18.599609 18 18.599609 C 17.588889 18.599609 17.183152 18.461196 16.890625 18.201172 C 16.598098 17.941148 16.400391 17.566666 16.400391 17 L 16.400391 4 C 16.400391 3.2333336 16.098098 2.6078142 15.640625 2.2011719 C 15.183152 1.7945296 14.588889 1.5996094 14 1.5996094 z " />
</svg>
