<?xml version="1.0" encoding="UTF-8" standalone="no"?>
<svg
   width="24"
   height="24"
   viewBox="0 0 24 24"
   fill="none"
   stroke="currentColor"
   stroke-width="0.8"
   stroke-linecap="round"
   stroke-linejoin="round"
   version="1.1"
   id="svg3"
   sodipodi:docname=".tmp_biceps-flexed.svg"
   xmlns:inkscape="http://www.inkscape.org/namespaces/inkscape"
   xmlns:sodipodi="http://sodipodi.sourceforge.net/DTD/sodipodi-0.dtd"
   xmlns="http://www.w3.org/2000/svg"
   xmlns:svg="http://www.w3.org/2000/svg">
  <defs
     id="defs3" />
  <sodipodi:namedview
     id="namedview3"
     pagecolor="#ffffff"
     bordercolor="#000000"
     borderopacity="0.25"
     inkscape:showpageshadow="2"
     inkscape:pageopacity="0.0"
     inkscape:pagecheckerboard="0"
     inkscape:deskcolor="#d1d1d1" />
  <path
     id="path1"
     style="baseline-shift:baseline;display:inline;overflow:visible;vector-effect:none;fill:#000000;stroke:none;stroke-linecap:butt;stroke-linejoin:miter;enable-background:accumulate;stop-color:#000000;stop-opacity:1;opacity:1"
     d="M 10 1.5996094 C 8.0597926 1.5996094 6.5239769 2.3230991 5.3730469 3.4785156 C 4.2221169 4.6339321 3.4418915 6.2020667 2.8984375 7.921875 C 1.8115294 11.361492 1.6640189 15.434268 1.609375 18.167969 C 1.596124 18.806432 1.8465978 19.455824 2.390625 19.859375 C 4.7457937 21.602922 8.8693658 22.400391 13 22.400391 C 15.583573 22.400391 17.917968 21.593277 19.621094 20.265625 C 21.32422 18.937973 22.400391 17.070955 22.400391 15 C 22.401791 12.101326 20.382616 10.182222 18.09375 9.7089844 C 15.87965 9.2512052 13.359795 10.136023 12.158203 12.603516 C 11.047172 12.574245 9.9437804 12.887285 9.0136719 13.5 C 9.1822496 12.584618 9.1797546 11.568188 9.2148438 10.609375 C 9.2448555 9.7892995 9.2922356 9.0105903 9.4375 8.4003906 C 9.5639014 7.8694271 9.752745 7.4904898 10.035156 7.2617188 C 10.315355 7.3493043 10.635345 7.4003906 11 7.4003906 C 12.320746 7.4003906 13.400391 6.3207455 13.400391 5 C 13.400391 3.1269697 11.87303 1.5996094 10 1.5996094 z M 10 2.4003906 C 11.440678 2.4003906 12.599609 3.5593218 12.599609 5 C 12.599609 5.8883935 11.888393 6.5996094 11 6.5996094 C 10.664852 6.5996094 10.401889 6.5620864 10.189453 6.4941406 A 0.40000001 0.40000001 0 0 0 10.017578 6.4277344 C 9.7041872 6.28405 9.514329 6.0587189 9.3359375 5.7832031 A 0.40000001 0.40000001 0 0 0 8.7832031 5.6640625 A 0.40000001 0.40000001 0 0 0 8.6640625 6.2167969 C 8.8201311 6.4578361 9.0221536 6.6880781 9.28125 6.8808594 C 8.9674849 7.24254 8.7777132 7.7128283 8.6582031 8.2148438 C 8.4872488 8.9329566 8.4463788 9.7504037 8.4160156 10.580078 C 8.3569948 12.192825 8.2989137 13.844385 7.7304688 14.689453 C 7.7140428 14.713873 7.6969778 14.736712 7.6796875 14.759766 A 0.40000001 0.40000001 0 0 0 7.6445312 14.814453 C 7.4155156 15.127867 7.2117575 15.466347 7.0488281 15.839844 A 0.40000001 0.40000001 0 0 0 7.2558594 16.367188 A 0.40000001 0.40000001 0 0 0 7.7832031 16.160156 C 7.9220146 15.841947 8.0913243 15.548316 8.2851562 15.28125 A 0.40000001 0.40000001 0 0 0 8.3203125 15.240234 C 8.3461923 15.205728 8.3721785 15.170335 8.3964844 15.134766 C 9.3480112 13.928662 10.826384 13.306065 12.304688 13.404297 A 0.40000001 0.40000001 0 0 0 12.447266 13.416016 C 13.251728 13.494905 14.051005 13.788444 14.759766 14.320312 A 0.40000001 0.40000001 0 0 0 15.320312 14.240234 A 0.40000001 0.40000001 0 0 0 15.240234 13.679688 C 14.553721 13.164514 13.791255 12.842105 13.011719 12.695312 C 14.094271 10.745571 16.104897 10.114497 17.931641 10.492188 C 19.901007 10.899366 21.600833 12.466702 21.599609 15 C 21.599609 16.795045 20.67578 18.428918 19.128906 19.634766 C 17.582032 20.840614 15.416427 21.599609 13 21.599609 C 8.9766342 21.599609 4.9480188 20.75725 2.8671875 19.216797 C 2.5592147 18.988348 2.3994542 18.605131 2.4082031 18.183594 C 2.4625592 15.464294 2.6240175 11.449196 3.6621094 8.1640625 C 4.1811553 6.5214958 4.9178831 5.0685211 5.9394531 4.0429688 C 6.9610231 3.0174165 8.2537074 2.4003906 10 2.4003906 z " />
</svg>
