<?xml version="1.0" encoding="UTF-8" standalone="no"?>
<svg
   width="24"
   height="24"
   viewBox="0 0 24 24"
   fill="none"
   stroke="currentColor"
   stroke-width="0.8"
   stroke-linecap="round"
   stroke-linejoin="round"
   version="1.1"
   id="svg3"
   sodipodi:docname=".tmp_brush.svg"
   xmlns:inkscape="http://www.inkscape.org/namespaces/inkscape"
   xmlns:sodipodi="http://sodipodi.sourceforge.net/DTD/sodipodi-0.dtd"
   xmlns="http://www.w3.org/2000/svg"
   xmlns:svg="http://www.w3.org/2000/svg">
  <defs
     id="defs3" />
  <sodipodi:namedview
     id="namedview3"
     pagecolor="#ffffff"
     bordercolor="#000000"
     borderopacity="0.25"
     inkscape:showpageshadow="2"
     inkscape:pageopacity="0.0"
     inkscape:pagecheckerboard="0"
     inkscape:deskcolor="#d1d1d1" />
  <path
     id="path1"
     style="baseline-shift:baseline;display:inline;overflow:visible;vector-effect:none;fill:#000000;stroke:none;stroke-linecap:butt;stroke-linejoin:miter;enable-background:accumulate;stop-color:#000000;stop-opacity:1;opacity:1"
     d="M 19.751953 1.5644531 C 19.182609 1.5929355 18.593414 1.8401803 18.09375 2.3398438 L 10.716797 9.7167969 L 6.8222656 13.609375 C 6.1984358 13.560107 5.5747534 13.66168 5.0078125 13.896484 C 3.6551365 14.456708 2.5996094 15.779614 2.5996094 17.5 C 2.5997661 18.064088 2.3856626 18.605923 2 19.017578 L 2.0097656 19.009766 C 1.5795908 19.438836 1.5048126 20.05203 1.7050781 20.535156 C 1.9053436 21.018283 2.3924171 21.401478 3 21.400391 L 6.5 21.400391 C 8.2203859 21.400391 9.5432914 20.344864 10.103516 18.992188 C 10.338637 18.424481 10.442071 17.79857 10.392578 17.173828 L 14.283203 13.283203 L 21.660156 5.90625 C 22.2312 5.3352062 22.471344 4.6476178 22.433594 4.0058594 C 22.395843 3.3641009 22.09826 2.7779476 21.660156 2.3398438 C 21.222052 1.9017397 20.635899 1.604157 19.994141 1.5664062 C 19.913921 1.5616874 19.833288 1.5603842 19.751953 1.5644531 z M 19.789062 2.3632812 C 19.842212 2.3611444 19.894584 2.3621355 19.947266 2.3652344 C 20.368715 2.3900254 20.783307 2.5919008 21.095703 2.9042969 C 21.408099 3.216693 21.609974 3.6312847 21.634766 4.0527344 C 21.659556 4.474184 21.525326 4.9121745 21.095703 5.3417969 L 14 12.433594 L 11.564453 9.9980469 L 18.658203 2.9042969 C 19.034123 2.5283773 19.417016 2.3782395 19.789062 2.3632812 z M 10.998047 10.564453 L 13.433594 13 L 10.197266 16.236328 C 10.014013 15.701805 9.7058833 15.190258 9.2578125 14.742188 C 8.8092098 14.293584 8.2970298 13.985564 7.7617188 13.802734 L 10.998047 10.564453 z M 6.4355469 14.392578 C 6.5638236 14.388478 6.6916527 14.39192 6.8203125 14.404297 A 0.40000001 0.40000001 0 0 0 7.0136719 14.429688 C 7.0222951 14.43109 7.0304442 14.432114 7.0390625 14.433594 C 7.6246399 14.53416 8.1972081 14.814396 8.6914062 15.308594 C 9.1927371 15.809925 9.4736026 16.392297 9.5703125 16.986328 A 0.40000001 0.40000001 0 0 0 9.5957031 17.175781 C 9.6459484 17.691348 9.5602993 18.209841 9.3632812 18.685547 C 8.9145362 19.769054 7.897998 20.599609 6.5 20.599609 L 3 20.599609 C 2.7152056 20.600119 2.5319509 20.44419 2.4433594 20.230469 C 2.3547674 20.016748 2.3725833 19.777297 2.5742188 19.576172 A 0.40004001 0.40004001 0 0 0 2.5839844 19.566406 C 3.1084189 19.006655 3.4006037 18.267069 3.4003906 17.5 C 3.4003906 16.102002 4.2309459 15.085464 5.3144531 14.636719 C 5.670411 14.489295 6.0507166 14.404879 6.4355469 14.392578 z " />
</svg>
