<?xml version="1.0" encoding="UTF-8" standalone="no"?>
<svg
   width="24"
   height="24"
   viewBox="0 0 24 24"
   fill="none"
   stroke="currentColor"
   stroke-width="0.8"
   stroke-linecap="round"
   stroke-linejoin="round"
   version="1.1"
   id="svg3"
   sodipodi:docname=".tmp_carrot.svg"
   xmlns:inkscape="http://www.inkscape.org/namespaces/inkscape"
   xmlns:sodipodi="http://sodipodi.sourceforge.net/DTD/sodipodi-0.dtd"
   xmlns="http://www.w3.org/2000/svg"
   xmlns:svg="http://www.w3.org/2000/svg">
  <defs
     id="defs3" />
  <sodipodi:namedview
     id="namedview3"
     pagecolor="#ffffff"
     bordercolor="#000000"
     borderopacity="0.25"
     inkscape:showpageshadow="2"
     inkscape:pageopacity="0.0"
     inkscape:pagecheckerboard="0"
     inkscape:deskcolor="#d1d1d1" />
  <path
     id="path1"
     style="baseline-shift:baseline;display:inline;overflow:visible;vector-effect:none;fill:#000000;stroke:none;stroke-linecap:butt;stroke-linejoin:miter;enable-background:accumulate;stop-color:#000000;stop-opacity:1;opacity:1"
     d="M 14.974609 1.5996094 A 0.40004001 0.40004001 0 0 0 14.779297 1.6660156 C 14.779297 1.6660156 12.599609 3.0842243 12.599609 5.5 C 12.599609 6.2070635 12.786638 6.8279121 13.050781 7.3535156 C 12.726096 7.2604416 12.389869 7.2020872 12.046875 7.1816406 C 10.809643 7.1078867 9.4898543 7.5568453 8.3574219 8.6875 C 6.8179573 10.226965 5.2518822 13.413524 4.0117188 16.251953 C 2.7715554 19.090382 1.8925781 21.566406 1.8925781 21.566406 A 0.40004001 0.40004001 0 0 0 2.4042969 22.076172 C 2.4042969 22.076172 4.8830083 21.197875 7.7226562 19.958984 C 10.562304 18.720094 13.748208 17.158042 15.283203 15.623047 C 15.390085 15.516333 15.416843 15.393038 15.511719 15.283203 A 0.40000001 0.40000001 0 0 0 15.623047 15.283203 A 0.40000001 0.40000001 0 0 0 15.623047 15.115234 C 16.433829 14.10292 16.856619 12.998646 16.794922 11.935547 C 16.775176 11.595308 16.716608 11.261993 16.625 10.939453 C 17.154853 11.208983 17.783858 11.400391 18.5 11.400391 C 20.915776 11.400391 22.333984 9.2207031 22.333984 9.2207031 A 0.40004001 0.40004001 0 0 0 22.333984 8.7792969 C 22.333984 8.7792969 20.915776 6.5996094 18.5 6.5996094 C 17.985202 6.5996094 17.487175 6.7518948 17.029297 6.9726562 C 17.248484 6.5147494 17.400391 6.0167966 17.400391 5.5 C 17.400391 3.0842243 15.220703 1.6660156 15.220703 1.6660156 A 0.40004001 0.40004001 0 0 0 14.974609 1.5996094 z M 15 2.5429688 C 15.341148 2.8005838 16.599609 3.8091417 16.599609 5.5 C 16.599609 6.1693574 16.155841 6.9971479 15.679688 7.6328125 C 15.337686 8.0893834 15.143466 8.2628618 14.988281 8.4140625 C 14.856581 8.3004678 14.720142 8.1921515 14.578125 8.0917969 C 14.0831 7.6187472 13.400391 6.7521469 13.400391 5.5 C 13.400391 3.8091417 14.658852 2.8005839 15 2.5429688 z M 18.5 7.4003906 C 20.190858 7.4003906 21.199416 8.6588518 21.457031 9 C 21.199416 9.3411482 20.190858 10.599609 18.5 10.599609 C 17.220323 10.599609 16.34267 9.8876823 15.876953 9.390625 C 15.784998 9.2609646 15.686944 9.1347266 15.583984 9.0136719 C 15.73735 8.8580305 15.913924 8.6643985 16.375 8.3203125 C 17.013657 7.843703 17.842602 7.4003906 18.5 7.4003906 z M 11.615234 7.9765625 C 11.743706 7.9710061 11.87093 7.9728911 11.998047 7.9804688 C 12.708381 8.0228136 13.398903 8.2719781 14 8.6679688 C 14.313905 8.9901071 14.590474 9.1995085 14.712891 9.2871094 C 14.798426 9.4066378 15.001216 9.6738508 15.310547 9.9785156 C 15.706922 10.580393 15.954792 11.270768 15.996094 11.982422 C 16.040744 12.751844 15.743667 13.542896 15.220703 14.314453 L 13.162109 12.257812 A 0.40000001 0.40000001 0 0 0 12.597656 12.257812 A 0.40000001 0.40000001 0 0 0 12.597656 12.822266 L 14.761719 14.988281 C 14.740359 15.010321 14.738787 15.034681 14.716797 15.056641 C 13.391792 16.381646 10.212696 18.000453 7.4023438 19.226562 C 5.0453965 20.254859 3.6050429 20.759931 2.9863281 20.984375 C 3.2109948 20.365732 3.7170011 18.927606 4.7460938 16.572266 C 5.3233875 15.250982 5.9938475 13.861526 6.6738281 12.607422 L 8.3574219 14.283203 A 0.40000001 0.40000001 0 0 0 8.9238281 14.28125 A 0.40000001 0.40000001 0 0 0 8.921875 13.716797 L 7.1035156 11.90625 C 7.7242908 10.836036 8.3534497 9.8226166 8.921875 9.2539062 C 9.7889124 8.3882299 10.715934 8.0154576 11.615234 7.9765625 z " />
</svg>
