<?xml version="1.0" encoding="UTF-8" standalone="no"?>
<svg
   width="24"
   height="24"
   viewBox="0 0 24 24"
   fill="none"
   stroke="currentColor"
   stroke-width="0.8"
   stroke-linecap="round"
   stroke-linejoin="round"
   version="1.1"
   id="svg2"
   sodipodi:docname=".tmp_cassette-tape.svg"
   xmlns:inkscape="http://www.inkscape.org/namespaces/inkscape"
   xmlns:sodipodi="http://sodipodi.sourceforge.net/DTD/sodipodi-0.dtd"
   xmlns="http://www.w3.org/2000/svg"
   xmlns:svg="http://www.w3.org/2000/svg">
  <defs
     id="defs2" />
  <sodipodi:namedview
     id="namedview2"
     pagecolor="#ffffff"
     bordercolor="#000000"
     borderopacity="0.25"
     inkscape:showpageshadow="2"
     inkscape:pageopacity="0.0"
     inkscape:pagecheckerboard="0"
     inkscape:deskcolor="#d1d1d1" />
  <path
     id="rect1"
     style="baseline-shift:baseline;display:inline;overflow:visible;vector-effect:none;fill:#000000;stroke:none;stroke-linecap:butt;stroke-linejoin:miter;enable-background:accumulate;stop-color:#000000;stop-opacity:1;opacity:1"
     d="M 4 3.5996094 C 2.6773189 3.5996094 1.5996094 4.6773189 1.5996094 6 L 1.5996094 18 C 1.5996094 19.322681 2.6773189 20.400391 4 20.400391 L 6.0097656 20.400391 L 20 20.400391 C 21.322681 20.400391 22.400391 19.322681 22.400391 18 L 22.400391 6 C 22.400391 4.6773189 21.322681 3.5996094 20 3.5996094 L 4 3.5996094 z M 4 4.4003906 L 20 4.4003906 C 20.893319 4.4003906 21.599609 5.1066811 21.599609 6 L 21.599609 18 C 21.599609 18.893319 20.893319 19.599609 20 19.599609 L 18.316406 19.599609 L 17.689453 16.908203 A 0.40004001 0.40004001 0 0 0 17.683594 16.886719 C 17.44936 16.098498 16.704394 15.565542 15.882812 15.599609 L 8.109375 15.599609 C 7.2507667 15.57971 6.4924002 16.174732 6.3085938 17.013672 L 5.6855469 19.599609 L 4 19.599609 C 3.1066811 19.599609 2.4003906 18.893319 2.4003906 18 L 2.4003906 6 C 2.4003906 5.1066811 3.1066811 4.4003906 4 4.4003906 z M 8 7.5996094 C 6.6792545 7.5996094 5.5996094 8.6792545 5.5996094 10 C 5.5996094 11.320434 6.6796805 12.399881 8 12.400391 L 16 12.400391 C 17.32032 12.39988 18.400391 11.320434 18.400391 10 C 18.400391 8.6792545 17.320746 7.5996094 16 7.5996094 C 14.679254 7.5996094 13.599609 8.6792545 13.599609 10 C 13.599609 10.613126 13.831441 11.174293 14.212891 11.599609 L 9.7871094 11.599609 C 10.168559 11.174293 10.400391 10.613126 10.400391 10 C 10.400391 8.6792545 9.3207455 7.5996094 8 7.5996094 z M 8 8.4003906 C 8.8883935 8.4003906 9.5996094 9.1116065 9.5996094 10 C 9.5996094 10.888393 8.8883935 11.599609 8 11.599609 C 7.1119003 11.599273 6.4003906 10.888183 6.4003906 10 C 6.4003906 9.1116065 7.1116065 8.4003906 8 8.4003906 z M 16 8.4003906 C 16.888393 8.4003906 17.599609 9.1116065 17.599609 10 C 17.599609 10.888183 16.888099 11.599273 16 11.599609 C 15.111607 11.599609 14.400391 10.888393 14.400391 10 C 14.400391 9.1116065 15.111607 8.4003906 16 8.4003906 z M 8.0898438 16.400391 A 0.40004001 0.40004001 0 0 0 8.0996094 16.400391 L 15.900391 16.400391 A 0.40004001 0.40004001 0 0 0 15.916016 16.400391 C 16.375025 16.381361 16.78248 16.673295 16.914062 17.113281 L 16.916016 17.113281 L 17.496094 19.599609 L 6.5078125 19.599609 L 7.0878906 17.193359 A 0.40004001 0.40004001 0 0 0 7.0898438 17.185547 C 7.1927911 16.715671 7.6089635 16.389246 8.0898438 16.400391 z " />
</svg>
