<?xml version="1.0" encoding="UTF-8" standalone="no"?>
<svg
   width="24"
   height="24"
   viewBox="0 0 24 24"
   fill="none"
   stroke="currentColor"
   stroke-width="0.8"
   stroke-linecap="round"
   stroke-linejoin="round"
   version="1.1"
   id="svg2"
   sodipodi:docname=".tmp_chart-spline.svg"
   xmlns:inkscape="http://www.inkscape.org/namespaces/inkscape"
   xmlns:sodipodi="http://sodipodi.sourceforge.net/DTD/sodipodi-0.dtd"
   xmlns="http://www.w3.org/2000/svg"
   xmlns:svg="http://www.w3.org/2000/svg">
  <defs
     id="defs2" />
  <sodipodi:namedview
     id="namedview2"
     pagecolor="#ffffff"
     bordercolor="#000000"
     borderopacity="0.25"
     inkscape:showpageshadow="2"
     inkscape:pageopacity="0.0"
     inkscape:pagecheckerboard="0"
     inkscape:deskcolor="#d1d1d1" />
  <path
     id="path1"
     style="baseline-shift:baseline;display:inline;overflow:visible;vector-effect:none;fill:#000000;stroke:none;stroke-linecap:butt;stroke-linejoin:miter;enable-background:accumulate;stop-color:#000000;stop-opacity:1;opacity:1"
     d="M 3 2.5996094 A 0.40000001 0.40000001 0 0 0 2.5996094 3 L 2.5996094 19 C 2.5996094 20.320746 3.6792545 21.400391 5 21.400391 L 21 21.400391 A 0.40000001 0.40000001 0 0 0 21.400391 21 A 0.40000001 0.40000001 0 0 0 21 20.599609 L 5 20.599609 C 4.1116065 20.599609 3.4003906 19.888393 3.4003906 19 L 3.4003906 3 A 0.40000001 0.40000001 0 0 0 3 2.5996094 z M 19.994141 4.5996094 A 0.40000001 0.40000001 0 0 0 19.611328 4.9023438 C 19.372742 5.8566901 18.752841 7.5941802 17.904297 9.0488281 C 17.480025 9.7761521 16.997814 10.433862 16.496094 10.892578 C 15.994373 11.351294 15.491667 11.599609 15 11.599609 C 14.6 11.599609 14.340014 11.468317 14.080078 11.234375 C 13.820143 11.000433 13.582031 10.652344 13.332031 10.277344 C 13.082031 9.9023435 12.820143 9.500433 12.455078 9.171875 C 12.090014 8.843317 11.6 8.5996094 11 8.5996094 C 10.241667 8.5996094 9.5956517 8.9891462 9.09375 9.5429688 C 8.5918483 10.096791 8.2036765 10.820942 7.8808594 11.595703 C 7.2352252 13.145225 6.8575236 14.917562 6.6113281 15.902344 A 0.40000001 0.40000001 0 0 0 6.9023438 16.388672 A 0.40000001 0.40000001 0 0 0 7.3886719 16.097656 C 7.6424764 15.082438 8.0147748 13.354775 8.6191406 11.904297 C 8.9213235 11.179058 9.2831517 10.528209 9.6875 10.082031 C 10.091848 9.635854 10.508333 9.4003906 11 9.4003906 C 11.4 9.4003906 11.659986 9.531683 11.919922 9.765625 C 12.179857 9.999567 12.417969 10.347656 12.667969 10.722656 C 12.917969 11.097656 13.179857 11.499567 13.544922 11.828125 C 13.909986 12.156683 14.4 12.400391 15 12.400391 C 15.758333 12.400391 16.443127 12.023706 17.035156 11.482422 C 17.627186 10.941138 18.144975 10.223848 18.595703 9.4511719 C 19.497159 7.9058198 20.127258 6.1433101 20.388672 5.0976562 A 0.40000001 0.40000001 0 0 0 20.097656 4.6113281 A 0.40000001 0.40000001 0 0 0 19.994141 4.5996094 z " />
</svg>
