<?xml version="1.0" encoding="UTF-8" standalone="no"?>
<svg
   width="24"
   height="24"
   viewBox="0 0 24 24"
   fill="none"
   stroke="currentColor"
   stroke-width="0.8"
   stroke-linecap="round"
   stroke-linejoin="round"
   version="1.1"
   id="svg4"
   sodipodi:docname=".tmp_chromium.svg"
   xmlns:inkscape="http://www.inkscape.org/namespaces/inkscape"
   xmlns:sodipodi="http://sodipodi.sourceforge.net/DTD/sodipodi-0.dtd"
   xmlns="http://www.w3.org/2000/svg"
   xmlns:svg="http://www.w3.org/2000/svg">
  <defs
     id="defs4" />
  <sodipodi:namedview
     id="namedview4"
     pagecolor="#ffffff"
     bordercolor="#000000"
     borderopacity="0.25"
     inkscape:showpageshadow="2"
     inkscape:pageopacity="0.0"
     inkscape:pagecheckerboard="0"
     inkscape:deskcolor="#d1d1d1" />
  <path
     id="path1"
     style="baseline-shift:baseline;display:inline;overflow:visible;vector-effect:none;fill:#000000;stroke:none;stroke-linecap:butt;stroke-linejoin:miter;enable-background:accumulate;stop-color:#000000;stop-opacity:1;opacity:1"
     d="M 12 1.5996094 C 8.5976026 1.5996094 5.5738928 3.2376208 3.6757812 5.7675781 A 0.40000001 0.40000001 0 0 0 3.5898438 5.8828125 C 2.3378161 7.6000874 1.5996094 9.7146608 1.5996094 12 C 1.5996094 17.329648 5.6191248 21.72944 10.789062 22.330078 A 0.40000001 0.40000001 0 0 0 10.882812 22.341797 C 11.250058 22.381134 11.622404 22.400391 12 22.400391 C 17.739024 22.400391 22.400391 17.739024 22.400391 12 C 22.400391 10.540359 22.098786 9.1499325 21.554688 7.8886719 A 0.40000001 0.40000001 0 0 0 21.511719 7.7929688 C 19.894402 4.1469203 16.241889 1.5996094 12 1.5996094 z M 12 2.4003906 C 15.720037 2.4003906 18.9411 4.5100134 20.535156 7.5996094 L 12 7.5996094 C 9.7083998 7.6000502 7.8180232 9.3629445 7.6171875 11.603516 L 4.4316406 6.0917969 C 6.1877171 3.8444331 8.9230185 2.4003906 12 2.4003906 z M 3.921875 6.8085938 L 8.1113281 14.056641 L 8.1933594 14.199219 A 0.40000001 0.40000001 0 0 0 8.234375 14.255859 C 9.0048656 15.536385 10.400629 16.400391 12 16.400391 C 12.659885 16.400391 13.287099 16.253899 13.849609 15.992188 L 10.667969 21.507812 C 5.9935097 20.860144 2.4003906 16.85434 2.4003906 12 C 2.4003906 10.086615 2.9593797 8.3046854 3.921875 6.8085938 z M 12 8.4003906 C 13.992963 8.4003906 15.599609 10.007037 15.599609 12 C 15.599609 12.634949 15.437086 13.230986 15.150391 13.748047 A 0.40000001 0.40000001 0 0 0 15.113281 13.800781 L 15.023438 13.957031 C 15.020108 13.962176 15.017027 13.96753 15.013672 13.972656 C 14.371738 14.953559 13.26376 15.599609 12 15.599609 C 10.68734 15.599609 9.5428539 14.902714 8.9140625 13.857422 A 0.40000001 0.40000001 0 0 0 8.8867188 13.800781 L 8.7851562 13.626953 L 8.7851562 13.625 C 8.5386709 13.137056 8.4003906 12.585617 8.4003906 12 C 8.4003906 10.007272 10.007364 8.4007701 12 8.4003906 z M 14.527344 8.4003906 L 20.904297 8.4003906 C 21.353335 9.5116911 21.599609 10.726662 21.599609 12 C 21.599609 17.306671 17.306671 21.599609 12 21.599609 C 11.847364 21.599609 11.695803 21.596869 11.544922 21.589844 L 15.730469 14.332031 L 15.734375 14.326172 C 15.738687 14.319278 15.741818 14.311607 15.746094 14.304688 L 15.806641 14.199219 A 0.40000001 0.40000001 0 0 0 15.835938 14.136719 C 16.191014 13.502426 16.400391 12.776745 16.400391 12 C 16.400391 10.514367 15.65905 9.1976734 14.527344 8.4003906 z " />
</svg>
