<?xml version="1.0" encoding="UTF-8" standalone="no"?>
<svg
   width="24"
   height="24"
   viewBox="0 0 24 24"
   fill="none"
   stroke="currentColor"
   stroke-width="0.8"
   stroke-linecap="round"
   stroke-linejoin="round"
   version="1.1"
   id="svg1"
   sodipodi:docname=".tmp_circle-slash-2.svg"
   xmlns:inkscape="http://www.inkscape.org/namespaces/inkscape"
   xmlns:sodipodi="http://sodipodi.sourceforge.net/DTD/sodipodi-0.dtd"
   xmlns="http://www.w3.org/2000/svg"
   xmlns:svg="http://www.w3.org/2000/svg">
  <defs
     id="defs1" />
  <sodipodi:namedview
     id="namedview1"
     pagecolor="#ffffff"
     bordercolor="#000000"
     borderopacity="0.25"
     inkscape:showpageshadow="2"
     inkscape:pageopacity="0.0"
     inkscape:pagecheckerboard="0"
     inkscape:deskcolor="#d1d1d1" />
  <path
     id="path1"
     style="baseline-shift:baseline;display:inline;overflow:visible;vector-effect:none;fill:#000000;stroke:none;stroke-linecap:butt;stroke-linejoin:miter;enable-background:accumulate;stop-color:#000000;stop-opacity:1;opacity:1"
     d="M 12 1.5996094 C 6.2609765 1.5996094 1.5996094 6.2609765 1.5996094 12 C 1.5996094 14.725604 2.6502566 17.208878 4.3691406 19.064453 L 1.7167969 21.716797 A 0.40000001 0.40000001 0 0 0 1.7167969 22.283203 A 0.40000001 0.40000001 0 0 0 2.2832031 22.283203 L 4.9355469 19.630859 C 6.7911222 21.349744 9.2743964 22.400391 12 22.400391 C 17.739024 22.400391 22.400391 17.739024 22.400391 12 C 22.400391 9.2743964 21.349744 6.7911222 19.630859 4.9355469 L 22.283203 2.2832031 A 0.40000001 0.40000001 0 0 0 22.283203 1.7167969 A 0.40000001 0.40000001 0 0 0 21.716797 1.7167969 L 19.064453 4.3691406 C 17.208878 2.6502566 14.725604 1.5996094 12 1.5996094 z M 12 2.4003906 C 14.509065 2.4003906 16.790787 3.3608073 18.5 4.9335938 L 4.9335938 18.5 C 3.3608073 16.790787 2.4003906 14.509065 2.4003906 12 C 2.4003906 6.6933286 6.6933286 2.4003906 12 2.4003906 z M 19.066406 5.5 C 20.639192 7.2092126 21.599609 9.490935 21.599609 12 C 21.599609 17.306671 17.306671 21.599609 12 21.599609 C 9.490935 21.599609 7.2092126 20.639192 5.5 19.066406 L 19.066406 5.5 z " />
</svg>
