<?xml version="1.0" encoding="UTF-8" standalone="no"?>
<svg
   width="24"
   height="24"
   viewBox="0 0 24 24"
   fill="none"
   stroke="currentColor"
   stroke-width="0.8"
   stroke-linecap="round"
   stroke-linejoin="round"
   version="1.1"
   id="svg1"
   sodipodi:docname=".tmp_circle-play.svg"
   xmlns:inkscape="http://www.inkscape.org/namespaces/inkscape"
   xmlns:sodipodi="http://sodipodi.sourceforge.net/DTD/sodipodi-0.dtd"
   xmlns="http://www.w3.org/2000/svg"
   xmlns:svg="http://www.w3.org/2000/svg">
  <defs
     id="defs1" />
  <sodipodi:namedview
     id="namedview1"
     pagecolor="#ffffff"
     bordercolor="#000000"
     borderopacity="0.25"
     inkscape:showpageshadow="2"
     inkscape:pageopacity="0.0"
     inkscape:pagecheckerboard="0"
     inkscape:deskcolor="#d1d1d1" />
  <path
     id="path1"
     style="baseline-shift:baseline;display:inline;overflow:visible;vector-effect:none;fill:#000000;stroke:none;stroke-linecap:butt;stroke-linejoin:miter;enable-background:accumulate;stop-color:#000000;stop-opacity:1;opacity:1"
     d="M 12 1.5996094 C 6.2609765 1.5996094 1.5996094 6.2609765 1.5996094 12 C 1.5996094 17.739024 6.2609765 22.400391 12 22.400391 C 17.739024 22.400391 22.400391 17.739024 22.400391 12 C 22.400391 6.2609765 17.739024 1.5996094 12 1.5996094 z M 12 2.4003906 C 17.306671 2.4003906 21.599609 6.6933286 21.599609 12 C 21.599609 17.306671 17.306671 21.599609 12 21.599609 C 6.6933286 21.599609 2.4003906 17.306671 2.4003906 12 C 2.4003906 6.6933286 6.6933286 2.4003906 12 2.4003906 z M 10.003906 7.6054688 C 9.7616417 7.6085357 9.524462 7.6751574 9.3164062 7.7929688 C 8.8997167 8.0289189 8.5979926 8.4680809 8.5996094 9.0039062 L 8.5996094 14.996094 C 8.5967494 16.06648 9.8056206 16.751142 10.722656 16.199219 L 15.71875 13.203125 L 15.720703 13.201172 C 16.612734 12.666936 16.612734 11.333064 15.720703 10.798828 L 10.724609 7.8007812 L 10.722656 7.8007812 C 10.493567 7.6628897 10.246171 7.6024018 10.003906 7.6054688 z M 9.9921875 8.3925781 C 10.09745 8.3941058 10.206063 8.4232214 10.310547 8.4863281 L 15.308594 11.484375 C 15.714511 11.726307 15.714511 12.273693 15.308594 12.515625 L 10.310547 15.513672 C 9.8923439 15.766264 9.3984268 15.486609 9.4003906 14.998047 A 0.40004001 0.40004001 0 0 0 9.4003906 14.996094 L 9.4003906 9.0039062 A 0.40004001 0.40004001 0 0 0 9.4003906 9.0019531 C 9.399654 8.7578265 9.5217731 8.5661694 9.6972656 8.4667969 C 9.7850119 8.4171106 9.8869246 8.3910505 9.9921875 8.3925781 z " />
</svg>
