<?xml version="1.0" encoding="UTF-8" standalone="no"?>
<svg
   width="24"
   height="24"
   viewBox="0 0 24 24"
   fill="none"
   stroke="currentColor"
   stroke-width="0.8"
   stroke-linecap="round"
   stroke-linejoin="round"
   version="1.1"
   id="svg1"
   sodipodi:docname=".tmp_copyleft.svg"
   xmlns:inkscape="http://www.inkscape.org/namespaces/inkscape"
   xmlns:sodipodi="http://sodipodi.sourceforge.net/DTD/sodipodi-0.dtd"
   xmlns="http://www.w3.org/2000/svg"
   xmlns:svg="http://www.w3.org/2000/svg">
  <defs
     id="defs1" />
  <sodipodi:namedview
     id="namedview1"
     pagecolor="#ffffff"
     bordercolor="#000000"
     borderopacity="0.25"
     inkscape:showpageshadow="2"
     inkscape:pageopacity="0.0"
     inkscape:pagecheckerboard="0"
     inkscape:deskcolor="#d1d1d1" />
  <path
     id="circle1"
     style="baseline-shift:baseline;display:inline;overflow:visible;vector-effect:none;fill:#000000;stroke:none;stroke-linecap:butt;stroke-linejoin:miter;enable-background:accumulate;stop-color:#000000;stop-opacity:1;opacity:1"
     d="M 12 1.5996094 C 6.2609765 1.5996094 1.5996094 6.2609765 1.5996094 12 C 1.5996094 17.739024 6.2609765 22.400391 12 22.400391 C 17.739024 22.400391 22.400391 17.739024 22.400391 12 C 22.400391 6.2609765 17.739024 1.5996094 12 1.5996094 z M 12 2.4003906 C 17.306671 2.4003906 21.599609 6.6933286 21.599609 12 C 21.599609 17.306671 17.306671 21.599609 12 21.599609 C 6.6933286 21.599609 2.4003906 17.306671 2.4003906 12 C 2.4003906 6.6933286 6.6933286 2.4003906 12 2.4003906 z M 11.857422 7.5957031 C 11.647865 7.6012325 11.437529 7.6218572 11.228516 7.6582031 C 10.392461 7.8035868 9.5738981 8.2003034 8.8867188 8.8867188 A 0.40000001 0.40000001 0 0 0 8.8867188 9.453125 A 0.40000001 0.40000001 0 0 0 9.453125 9.453125 C 10.599443 8.3080817 12.11796 8.1526678 13.375 8.6738281 C 14.63204 9.1949884 15.595703 10.379984 15.595703 12 C 15.595703 13.620016 14.63204 14.805012 13.375 15.326172 C 12.11796 15.847332 10.599443 15.691918 9.453125 14.546875 A 0.40000001 0.40000001 0 0 0 8.8867188 14.546875 A 0.40000001 0.40000001 0 0 0 8.8867188 15.113281 C 10.261077 16.486112 12.155525 16.69717 13.681641 16.064453 C 15.207757 15.431736 16.396484 13.942347 16.396484 12 C 16.396484 10.057653 15.207757 8.5682642 13.681641 7.9355469 C 13.109347 7.6982779 12.486092 7.5791149 11.857422 7.5957031 z " />
</svg>
