<?xml version="1.0" encoding="UTF-8" standalone="no"?>
<svg
   width="24"
   height="24"
   viewBox="0 0 24 24"
   fill="none"
   stroke="currentColor"
   stroke-width="0.8"
   stroke-linecap="round"
   stroke-linejoin="round"
   version="1.1"
   id="svg2"
   sodipodi:docname=".tmp_corner-left-down.svg"
   xmlns:inkscape="http://www.inkscape.org/namespaces/inkscape"
   xmlns:sodipodi="http://sodipodi.sourceforge.net/DTD/sodipodi-0.dtd"
   xmlns="http://www.w3.org/2000/svg"
   xmlns:svg="http://www.w3.org/2000/svg">
  <defs
     id="defs2" />
  <sodipodi:namedview
     id="namedview2"
     pagecolor="#ffffff"
     bordercolor="#000000"
     borderopacity="0.25"
     inkscape:showpageshadow="2"
     inkscape:pageopacity="0.0"
     inkscape:pagecheckerboard="0"
     inkscape:deskcolor="#d1d1d1" />
  <path
     id="path1"
     style="baseline-shift:baseline;display:inline;overflow:visible;vector-effect:none;fill:#000000;stroke:none;stroke-linecap:butt;stroke-linejoin:miter;enable-background:accumulate;stop-color:#000000;stop-opacity:1;opacity:1"
     d="M 13 3.5996094 C 10.574685 3.5996094 8.5996094 5.574685 8.5996094 8 L 8.5996094 19.033203 L 4.2832031 14.716797 A 0.40000001 0.40000001 0 0 0 3.7167969 14.716797 A 0.40000001 0.40000001 0 0 0 3.7167969 15.283203 L 8.7128906 20.279297 L 8.7167969 20.283203 A 0.40000001 0.40000001 0 0 0 8.7519531 20.314453 A 0.40004001 0.40004001 0 0 0 8.7558594 20.318359 A 0.40000001 0.40000001 0 0 0 8.796875 20.345703 A 0.40004001 0.40004001 0 0 0 8.7988281 20.347656 A 0.40000001 0.40000001 0 0 0 8.84375 20.369141 A 0.40004001 0.40004001 0 0 0 8.8710938 20.378906 A 0.40000001 0.40000001 0 0 0 8.8945312 20.386719 A 0.40004001 0.40004001 0 0 0 9.1289062 20.378906 A 0.40000001 0.40000001 0 0 0 9.2871094 20.279297 L 14.283203 15.283203 A 0.40000001 0.40000001 0 0 0 14.283203 14.716797 A 0.40000001 0.40000001 0 0 0 13.716797 14.716797 L 9.4003906 19.033203 L 9.4003906 8 C 9.4003906 6.0070371 11.007037 4.4003906 13 4.4003906 L 20 4.4003906 A 0.40000001 0.40000001 0 0 0 20.400391 4 A 0.40000001 0.40000001 0 0 0 20 3.5996094 L 13 3.5996094 z " />
</svg>
