<?xml version="1.0" encoding="UTF-8" standalone="no"?>
<svg
   width="24"
   height="24"
   viewBox="0 0 24 24"
   fill="none"
   stroke="currentColor"
   stroke-width="0.8"
   stroke-linecap="round"
   stroke-linejoin="round"
   version="1.1"
   id="svg13"
   sodipodi:docname=".tmp_cpu.svg"
   xmlns:inkscape="http://www.inkscape.org/namespaces/inkscape"
   xmlns:sodipodi="http://sodipodi.sourceforge.net/DTD/sodipodi-0.dtd"
   xmlns="http://www.w3.org/2000/svg"
   xmlns:svg="http://www.w3.org/2000/svg">
  <defs
     id="defs13" />
  <sodipodi:namedview
     id="namedview13"
     pagecolor="#ffffff"
     bordercolor="#000000"
     borderopacity="0.25"
     inkscape:showpageshadow="2"
     inkscape:pageopacity="0.0"
     inkscape:pagecheckerboard="0"
     inkscape:deskcolor="#d1d1d1" />
  <path
     id="path1"
     style="baseline-shift:baseline;display:inline;overflow:visible;vector-effect:none;fill:#000000;stroke:none;stroke-linecap:butt;stroke-linejoin:miter;enable-background:accumulate;stop-color:#000000;stop-opacity:1;opacity:1"
     d="M 7 1.5996094 A 0.40000001 0.40000001 0 0 0 6.5996094 2 L 6.5996094 3.5996094 L 6 3.5996094 C 4.6773189 3.5996094 3.5996094 4.6773189 3.5996094 6 L 3.5996094 6.5996094 L 2 6.5996094 A 0.40000001 0.40000001 0 0 0 1.5996094 7 A 0.40000001 0.40000001 0 0 0 2 7.4003906 L 3.5996094 7.4003906 L 3.5996094 11.599609 L 2 11.599609 A 0.40000001 0.40000001 0 0 0 1.5996094 12 A 0.40000001 0.40000001 0 0 0 2 12.400391 L 3.5996094 12.400391 L 3.5996094 16.599609 L 2 16.599609 A 0.40000001 0.40000001 0 0 0 1.5996094 17 A 0.40000001 0.40000001 0 0 0 2 17.400391 L 3.5996094 17.400391 L 3.5996094 18 C 3.5996094 19.322681 4.6773189 20.400391 6 20.400391 L 6.5996094 20.400391 L 6.5996094 22 A 0.40000001 0.40000001 0 0 0 7 22.400391 A 0.40000001 0.40000001 0 0 0 7.4003906 22 L 7.4003906 20.400391 L 11.599609 20.400391 L 11.599609 22 A 0.40000001 0.40000001 0 0 0 12 22.400391 A 0.40000001 0.40000001 0 0 0 12.400391 22 L 12.400391 20.400391 L 16.599609 20.400391 L 16.599609 22 A 0.40000001 0.40000001 0 0 0 17 22.400391 A 0.40000001 0.40000001 0 0 0 17.400391 22 L 17.400391 20.400391 L 18 20.400391 C 19.322681 20.400391 20.400391 19.322681 20.400391 18 L 20.400391 17.400391 L 22 17.400391 A 0.40000001 0.40000001 0 0 0 22.400391 17 A 0.40000001 0.40000001 0 0 0 22 16.599609 L 20.400391 16.599609 L 20.400391 12.400391 L 22 12.400391 A 0.40000001 0.40000001 0 0 0 22.400391 12 A 0.40000001 0.40000001 0 0 0 22 11.599609 L 20.400391 11.599609 L 20.400391 7.4003906 L 22 7.4003906 A 0.40000001 0.40000001 0 0 0 22.400391 7 A 0.40000001 0.40000001 0 0 0 22 6.5996094 L 20.400391 6.5996094 L 20.400391 6 C 20.400391 4.6773189 19.322681 3.5996094 18 3.5996094 L 17.400391 3.5996094 L 17.400391 2 A 0.40000001 0.40000001 0 0 0 17 1.5996094 A 0.40000001 0.40000001 0 0 0 16.599609 2 L 16.599609 3.5996094 L 12.400391 3.5996094 L 12.400391 2 A 0.40000001 0.40000001 0 0 0 12 1.5996094 A 0.40000001 0.40000001 0 0 0 11.599609 2 L 11.599609 3.5996094 L 7.4003906 3.5996094 L 7.4003906 2 A 0.40000001 0.40000001 0 0 0 7 1.5996094 z M 6 4.4003906 L 18 4.4003906 C 18.893319 4.4003906 19.599609 5.1066811 19.599609 6 L 19.599609 18 C 19.599609 18.893319 18.893319 19.599609 18 19.599609 L 6 19.599609 C 5.1066811 19.599609 4.4003906 18.893319 4.4003906 18 L 4.4003906 6 C 4.4003906 5.1066811 5.1066811 4.4003906 6 4.4003906 z M 9 7.5996094 C 8.2313189 7.5996094 7.5996094 8.2313189 7.5996094 9 L 7.5996094 15 C 7.5996094 15.768681 8.2313189 16.400391 9 16.400391 L 15 16.400391 C 15.768681 16.400391 16.400391 15.768681 16.400391 15 L 16.400391 9 C 16.400391 8.2313189 15.768681 7.5996094 15 7.5996094 L 9 7.5996094 z M 9 8.4003906 L 15 8.4003906 C 15.339319 8.4003906 15.599609 8.6606811 15.599609 9 L 15.599609 15 C 15.599609 15.339319 15.339319 15.599609 15 15.599609 L 9 15.599609 C 8.6606811 15.599609 8.4003906 15.339319 8.4003906 15 L 8.4003906 9 C 8.4003906 8.6606811 8.6606811 8.4003906 9 8.4003906 z " />
</svg>
