<?xml version="1.0" encoding="UTF-8" standalone="no"?>
<svg
   width="24"
   height="24"
   viewBox="0 0 24 24"
   fill="none"
   stroke="currentColor"
   stroke-width="0.8"
   stroke-linecap="round"
   stroke-linejoin="round"
   version="1.1"
   id="svg7"
   sodipodi:docname=".tmp_dam.svg"
   xmlns:inkscape="http://www.inkscape.org/namespaces/inkscape"
   xmlns:sodipodi="http://sodipodi.sourceforge.net/DTD/sodipodi-0.dtd"
   xmlns="http://www.w3.org/2000/svg"
   xmlns:svg="http://www.w3.org/2000/svg">
  <defs
     id="defs7" />
  <sodipodi:namedview
     id="namedview7"
     pagecolor="#ffffff"
     bordercolor="#000000"
     borderopacity="0.25"
     inkscape:showpageshadow="2"
     inkscape:pageopacity="0.0"
     inkscape:pagecheckerboard="0"
     inkscape:deskcolor="#d1d1d1" />
  <path
     id="path1"
     style="baseline-shift:baseline;display:inline;overflow:visible;vector-effect:none;fill:#000000;stroke:none;stroke-linecap:butt;stroke-linejoin:miter;enable-background:accumulate;stop-color:#000000;stop-opacity:1;opacity:1"
     d="M 7 2.5996094 C 6.2315392 2.5996094 5.5996094 3.2315392 5.5996094 4 L 5.5996094 5.5996094 L 2 5.5996094 A 0.40000001 0.40000001 0 0 0 1.5996094 6 A 0.40000001 0.40000001 0 0 0 2 6.4003906 L 5.5996094 6.4003906 L 5.5996094 9.5996094 L 2 9.5996094 A 0.40000001 0.40000001 0 0 0 1.5996094 10 A 0.40000001 0.40000001 0 0 0 2 10.400391 L 5.5996094 10.400391 L 5.5996094 13.599609 L 2 13.599609 A 0.40000001 0.40000001 0 0 0 1.5996094 14 A 0.40000001 0.40000001 0 0 0 2 14.400391 L 5.5996094 14.400391 L 5.5996094 17.599609 L 2 17.599609 A 0.40000001 0.40000001 0 0 0 1.5996094 18 A 0.40000001 0.40000001 0 0 0 2 18.400391 L 5.5996094 18.400391 L 5.5996094 20 C 5.5996094 20.768461 6.2315392 21.400391 7 21.400391 L 11 21.400391 C 11.768461 21.400391 12.400391 20.768461 12.400391 20 A 0.40004001 0.40004001 0 0 0 12.396484 19.951172 L 12.265625 18.902344 C 12.378077 18.958416 12.497385 19.011588 12.623047 19.060547 C 13.153053 19.267043 13.798718 19.400391 14.5 19.400391 C 15.856667 19.400391 16.625 18.8125 17.25 18.3125 C 17.875 17.8125 18.356667 17.400391 19.5 17.400391 C 20.697436 17.400391 21.144141 17.806641 21.744141 18.306641 A 0.40000001 0.40000001 0 0 0 22.306641 18.255859 A 0.40000001 0.40000001 0 0 0 22.255859 17.693359 C 21.655859 17.193359 20.902564 16.599609 19.5 16.599609 C 18.143333 16.599609 17.375 17.1875 16.75 17.6875 C 16.125 18.1875 15.643333 18.599609 14.5 18.599609 C 13.901282 18.599609 13.346556 18.482957 12.914062 18.314453 C 12.542923 18.169853 12.26604 17.976321 12.132812 17.835938 C 12.132424 17.835529 12.133198 17.834392 12.132812 17.833984 L 11.408203 12.041016 C 11.663495 12.239065 11.912856 12.4646 12.21875 12.6875 C 12.74381 13.070102 13.443129 13.400391 14.5 13.400391 C 15.856667 13.400391 16.625 12.8125 17.25 12.3125 C 17.875 11.8125 18.356667 11.400391 19.5 11.400391 C 20.697436 11.400391 21.144141 11.806641 21.744141 12.306641 A 0.40000001 0.40000001 0 0 0 22.306641 12.255859 A 0.40000001 0.40000001 0 0 0 22.255859 11.693359 C 21.655859 11.193359 20.902564 10.599609 19.5 10.599609 C 18.143333 10.599609 17.375 11.1875 16.75 11.6875 C 16.125 12.1875 15.643333 12.599609 14.5 12.599609 C 13.596871 12.599609 13.131893 12.363414 12.689453 12.041016 C 12.271017 11.736108 11.880681 11.315767 11.277344 11.001953 L 10.400391 3.9804688 C 10.390283 3.2204467 9.762245 2.5996094 9 2.5996094 L 7 2.5996094 z M 7 3.4003906 L 9 3.4003906 C 9.3361087 3.4003906 9.5996094 3.6638913 9.5996094 4 A 0.40004001 0.40004001 0 0 0 9.6035156 4.0488281 L 11.351562 18.033203 A 0.40000001 0.40000001 0 0 0 11.355469 18.068359 L 11.597656 20.001953 C 11.595945 20.336496 11.335014 20.599609 11 20.599609 L 7 20.599609 C 6.6638913 20.599609 6.4003906 20.336109 6.4003906 20 L 6.4003906 18 L 6.4003906 14 L 6.4003906 10 L 6.4003906 6 L 6.4003906 4 C 6.4003906 3.6638913 6.6638913 3.4003906 7 3.4003906 z " />
</svg>
