<?xml version="1.0" encoding="UTF-8" standalone="no"?>
<svg
   width="24"
   height="24"
   viewBox="0 0 24 24"
   fill="none"
   stroke="currentColor"
   stroke-width="0.8"
   stroke-linecap="round"
   stroke-linejoin="round"
   version="1.1"
   id="svg4"
   sodipodi:docname=".tmp_decimals-arrow-right.svg"
   xmlns:inkscape="http://www.inkscape.org/namespaces/inkscape"
   xmlns:sodipodi="http://sodipodi.sourceforge.net/DTD/sodipodi-0.dtd"
   xmlns="http://www.w3.org/2000/svg"
   xmlns:svg="http://www.w3.org/2000/svg">
  <defs
     id="defs4" />
  <sodipodi:namedview
     id="namedview4"
     pagecolor="#ffffff"
     bordercolor="#000000"
     borderopacity="0.25"
     inkscape:showpageshadow="2"
     inkscape:pageopacity="0.0"
     inkscape:pagecheckerboard="0"
     inkscape:deskcolor="#d1d1d1" />
  <path
     id="path1"
     style="baseline-shift:baseline;display:inline;overflow:visible;vector-effect:none;fill:#000000;stroke:none;stroke-linecap:butt;stroke-linejoin:miter;enable-background:accumulate;stop-color:#000000;stop-opacity:1;opacity:1"
     d="M 8.5 2.5996094 C 6.9003189 2.5996094 5.5996094 3.9003189 5.5996094 5.5 L 5.5996094 8.5 C 5.5996094 10.099681 6.9003189 11.400391 8.5 11.400391 C 10.099681 11.400391 11.400391 10.099681 11.400391 8.5 L 11.400391 5.5 C 11.400391 3.9003189 10.099681 2.5996094 8.5 2.5996094 z M 17.5 2.5996094 C 15.900319 2.5996094 14.599609 3.9003189 14.599609 5.5 L 14.599609 8.5 C 14.599609 10.099681 15.900319 11.400391 17.5 11.400391 C 19.099681 11.400391 20.400391 10.099681 20.400391 8.5 L 20.400391 5.5 C 20.400391 3.9003189 19.099681 2.5996094 17.5 2.5996094 z M 8.5 3.4003906 C 9.6703189 3.4003906 10.599609 4.3296811 10.599609 5.5 L 10.599609 8.5 C 10.599609 9.6703189 9.6703189 10.599609 8.5 10.599609 C 7.3296811 10.599609 6.4003906 9.6703189 6.4003906 8.5 L 6.4003906 5.5 C 6.4003906 4.3296811 7.3296811 3.4003906 8.5 3.4003906 z M 17.5 3.4003906 C 18.670319 3.4003906 19.599609 4.3296811 19.599609 5.5 L 19.599609 8.5 C 19.599609 9.6703189 18.670319 10.599609 17.5 10.599609 C 16.329681 10.599609 15.400391 9.6703189 15.400391 8.5 L 15.400391 5.5 C 15.400391 4.3296811 16.329681 3.4003906 17.5 3.4003906 z M 3 10.599609 A 0.40000001 0.40000001 0 0 0 2.5996094 11 A 0.40000001 0.40000001 0 0 0 3 11.400391 L 3.0097656 11.400391 A 0.40000001 0.40000001 0 0 0 3.4101562 11 A 0.40000001 0.40000001 0 0 0 3.0097656 10.599609 L 3 10.599609 z M 17 14.599609 A 0.40000001 0.40000001 0 0 0 16.716797 14.716797 A 0.40000001 0.40000001 0 0 0 16.716797 15.283203 L 19.033203 17.599609 L 10 17.599609 A 0.40000001 0.40000001 0 0 0 9.5996094 18 A 0.40000001 0.40000001 0 0 0 10 18.400391 L 19.033203 18.400391 L 16.716797 20.716797 A 0.40000001 0.40000001 0 0 0 16.716797 21.283203 A 0.40000001 0.40000001 0 0 0 17.283203 21.283203 L 20.279297 18.287109 A 0.40000001 0.40000001 0 0 0 20.283203 18.283203 A 0.40004001 0.40004001 0 0 0 20.314453 18.248047 A 0.40000001 0.40000001 0 0 0 20.318359 18.244141 A 0.40004001 0.40004001 0 0 0 20.345703 18.203125 A 0.40000001 0.40000001 0 0 0 20.347656 18.201172 A 0.40004001 0.40004001 0 0 0 20.369141 18.15625 A 0.40000001 0.40000001 0 0 0 20.371094 18.152344 A 0.40004001 0.40004001 0 0 0 20.386719 18.105469 A 0.40000001 0.40000001 0 0 0 20.386719 18.103516 A 0.40004001 0.40004001 0 0 0 20.396484 18.052734 A 0.40000001 0.40000001 0 0 0 20.400391 18 A 0.40004001 0.40004001 0 0 0 20.396484 17.947266 A 0.40000001 0.40000001 0 0 0 20.386719 17.896484 A 0.40004001 0.40004001 0 0 0 20.386719 17.894531 A 0.40000001 0.40000001 0 0 0 20.371094 17.847656 A 0.40004001 0.40004001 0 0 0 20.369141 17.84375 A 0.40000001 0.40000001 0 0 0 20.347656 17.798828 A 0.40004001 0.40004001 0 0 0 20.345703 17.796875 A 0.40000001 0.40000001 0 0 0 20.318359 17.755859 A 0.40004001 0.40004001 0 0 0 20.314453 17.751953 A 0.40000001 0.40000001 0 0 0 20.283203 17.716797 L 17.283203 14.716797 A 0.40000001 0.40000001 0 0 0 17 14.599609 z " />
</svg>
