<?xml version="1.0" encoding="UTF-8" standalone="no"?>
<svg
   width="24"
   height="24"
   viewBox="0 0 24 24"
   fill="none"
   stroke="currentColor"
   stroke-width="0.8"
   stroke-linecap="round"
   stroke-linejoin="round"
   version="1.1"
   id="svg10"
   sodipodi:docname=".tmp_file-cog.svg"
   xmlns:inkscape="http://www.inkscape.org/namespaces/inkscape"
   xmlns:sodipodi="http://sodipodi.sourceforge.net/DTD/sodipodi-0.dtd"
   xmlns="http://www.w3.org/2000/svg"
   xmlns:svg="http://www.w3.org/2000/svg">
  <defs
     id="defs10" />
  <sodipodi:namedview
     id="namedview10"
     pagecolor="#ffffff"
     bordercolor="#000000"
     borderopacity="0.25"
     inkscape:showpageshadow="2"
     inkscape:pageopacity="0.0"
     inkscape:pagecheckerboard="0"
     inkscape:deskcolor="#d1d1d1" />
  <path
     id="path1"
     style="baseline-shift:baseline;display:inline;overflow:visible;vector-effect:none;fill:#000000;stroke:none;stroke-linecap:butt;stroke-linejoin:miter;enable-background:accumulate;stop-color:#000000;stop-opacity:1;opacity:1"
     d="M 6 1.5996094 C 4.6792545 1.5996094 3.5996094 2.6792545 3.5996094 4 L 3.5996094 6.5 A 0.40000001 0.40000001 0 0 0 4 6.9003906 A 0.40000001 0.40000001 0 0 0 4.4003906 6.5 L 4.4003906 4 C 4.4003906 3.1116065 5.1116065 2.4003906 6 2.4003906 L 13.599609 2.4003906 L 13.599609 6 C 13.599609 7.3207455 14.679254 8.4003906 16 8.4003906 L 19.599609 8.4003906 L 19.599609 20 C 19.599609 20.888393 18.888393 21.599609 18 21.599609 L 5.9921875 21.599609 L 5.9902344 21.599609 C 5.6038248 21.597209 5.2312466 21.454843 4.9414062 21.199219 A 0.40000001 0.40000001 0 0 0 4.3769531 21.236328 A 0.40000001 0.40000001 0 0 0 4.4121094 21.800781 C 4.8473926 22.184679 5.4079013 22.397517 5.9882812 22.400391 A 0.40004001 0.40004001 0 0 0 5.9902344 22.400391 L 18 22.400391 C 19.320746 22.400391 20.400391 21.320746 20.400391 20 L 20.400391 7 A 0.40004001 0.40004001 0 0 0 20.283203 6.7167969 L 15.283203 1.7167969 A 0.40004001 0.40004001 0 0 0 15 1.5996094 L 6 1.5996094 z M 14.400391 2.4003906 L 14.833984 2.4003906 L 19.599609 7.1660156 L 19.599609 7.5996094 L 16 7.5996094 C 15.111607 7.5996094 14.400391 6.8883935 14.400391 6 L 14.400391 2.4003906 z M 4.46875 9.90625 A 0.40000001 0.40000001 0 0 0 4.3164062 9.9355469 A 0.40000001 0.40000001 0 0 0 4.0996094 10.458984 L 4.3378906 11.035156 C 3.79307 11.341958 3.3419137 11.794995 3.0351562 12.339844 L 2.4570312 12.099609 A 0.40000001 0.40000001 0 0 0 1.9335938 12.316406 A 0.40000001 0.40000001 0 0 0 2.1503906 12.837891 L 2.7265625 13.076172 C 2.6434319 13.369873 2.5996094 13.680277 2.5996094 14 C 2.5996094 14.319583 2.643502 14.628288 2.7265625 14.921875 L 2.1523438 15.160156 A 0.40000001 0.40000001 0 0 0 1.9355469 15.683594 A 0.40000001 0.40000001 0 0 0 2.4570312 15.900391 L 3.0351562 15.660156 C 3.3419599 16.205087 3.7949132 16.65804 4.3398438 16.964844 L 4.0996094 17.542969 A 0.40000001 0.40000001 0 0 0 4.3164062 18.066406 A 0.40000001 0.40000001 0 0 0 4.8378906 17.849609 L 5.0761719 17.273438 C 5.3698732 17.356568 5.680277 17.400391 6 17.400391 C 6.3194846 17.400391 6.6283689 17.356449 6.921875 17.273438 L 7.1601562 17.849609 A 0.40000001 0.40000001 0 0 0 7.6835938 18.066406 A 0.40000001 0.40000001 0 0 0 7.9003906 17.542969 L 7.6601562 16.964844 C 8.2050047 16.658086 8.6580424 16.20693 8.9648438 15.662109 L 9.5410156 15.900391 A 0.40000001 0.40000001 0 0 0 10.064453 15.683594 A 0.40000001 0.40000001 0 0 0 9.8476562 15.162109 L 9.2734375 14.923828 C 9.3566177 14.630046 9.4003906 14.319822 9.4003906 14 C 9.4003906 13.680178 9.3566177 13.369954 9.2734375 13.076172 L 9.8476562 12.837891 A 0.40000001 0.40000001 0 0 0 10.064453 12.316406 A 0.40000001 0.40000001 0 0 0 9.5410156 12.099609 L 8.9648438 12.337891 C 8.6580886 11.793152 8.2068479 11.341911 7.6621094 11.035156 L 7.9003906 10.458984 A 0.40000001 0.40000001 0 0 0 7.6835938 9.9355469 A 0.40000001 0.40000001 0 0 0 7.1621094 10.152344 L 6.9238281 10.726562 C 6.6300458 10.643382 6.3198219 10.599609 6 10.599609 C 5.6801781 10.599609 5.3699542 10.643382 5.0761719 10.726562 L 4.8378906 10.152344 A 0.40000001 0.40000001 0 0 0 4.46875 9.90625 z M 6 11.400391 C 6.3409064 11.400391 6.6651585 11.465822 6.9628906 11.583984 A 0.40000001 0.40000001 0 0 0 6.9941406 11.597656 A 0.40000001 0.40000001 0 0 0 7.0292969 11.609375 C 7.6402685 11.87121 8.1287894 12.359732 8.390625 12.970703 A 0.40000001 0.40000001 0 0 0 8.4023438 13.005859 A 0.40000001 0.40000001 0 0 0 8.4160156 13.037109 C 8.5341774 13.334841 8.5996094 13.659095 8.5996094 14 C 8.5996094 14.340905 8.5341774 14.665159 8.4160156 14.962891 A 0.40000001 0.40000001 0 0 0 8.4023438 14.994141 A 0.40000001 0.40000001 0 0 0 8.390625 15.029297 C 8.1276986 15.642813 7.6360222 16.131553 7.0214844 16.392578 A 0.40000001 0.40000001 0 0 0 6.9960938 16.402344 A 0.40000001 0.40000001 0 0 0 6.9707031 16.414062 C 6.6708677 16.534182 6.3438649 16.599609 6 16.599609 C 5.6590936 16.599609 5.3348415 16.534178 5.0371094 16.416016 A 0.40000001 0.40000001 0 0 0 5.0058594 16.402344 A 0.40000001 0.40000001 0 0 0 4.9707031 16.390625 C 4.3597318 16.12879 3.8712107 15.640268 3.609375 15.029297 A 0.40000001 0.40000001 0 0 0 3.5976562 14.994141 A 0.40000001 0.40000001 0 0 0 3.5839844 14.962891 C 3.4658228 14.66516 3.4003906 14.340905 3.4003906 14 C 3.4003906 13.659095 3.4658228 13.33484 3.5839844 13.037109 A 0.40000001 0.40000001 0 0 0 3.5976562 13.005859 A 0.40000001 0.40000001 0 0 0 3.609375 12.970703 C 3.8712107 12.359732 4.3597318 11.87121 4.9707031 11.609375 A 0.40000001 0.40000001 0 0 0 5.0058594 11.597656 A 0.40000001 0.40000001 0 0 0 5.0371094 11.583984 C 5.3348415 11.465822 5.6590936 11.400391 6 11.400391 z " />
</svg>
