<?xml version="1.0" encoding="UTF-8" standalone="no"?>
<svg
   width="24"
   height="24"
   viewBox="0 0 24 24"
   fill="none"
   stroke="currentColor"
   stroke-width="0.8"
   stroke-linecap="round"
   stroke-linejoin="round"
   version="1.1"
   id="svg3"
   sodipodi:docname=".tmp_flask-conical.svg"
   xmlns:inkscape="http://www.inkscape.org/namespaces/inkscape"
   xmlns:sodipodi="http://sodipodi.sourceforge.net/DTD/sodipodi-0.dtd"
   xmlns="http://www.w3.org/2000/svg"
   xmlns:svg="http://www.w3.org/2000/svg">
  <defs
     id="defs3" />
  <sodipodi:namedview
     id="namedview3"
     pagecolor="#ffffff"
     bordercolor="#000000"
     borderopacity="0.25"
     inkscape:showpageshadow="2"
     inkscape:pageopacity="0.0"
     inkscape:pagecheckerboard="0"
     inkscape:deskcolor="#d1d1d1" />
  <path
     id="path1"
     style="baseline-shift:baseline;display:inline;overflow:visible;vector-effect:none;fill:#000000;stroke:none;stroke-linecap:butt;stroke-linejoin:miter;enable-background:accumulate;stop-color:#000000;stop-opacity:1;opacity:1"
     d="M 8.5 1.5996094 A 0.40000001 0.40000001 0 0 0 8.0996094 2 A 0.40000001 0.40000001 0 0 0 8.5 2.4003906 L 9.5996094 2.4003906 L 9.5996094 8 C 9.599723 8.2684032 9.5330168 8.5320543 9.4042969 8.7675781 L 6.1152344 14.785156 A 0.40000001 0.40000001 0 0 0 6.0898438 14.832031 L 3.8945312 18.847656 C 3.0280749 20.431229 4.194883 22.400809 6 22.400391 L 18 22.400391 C 19.805117 22.400809 20.971925 20.431229 20.105469 18.847656 L 17.910156 14.832031 A 0.40000001 0.40000001 0 0 0 17.884766 14.785156 L 14.595703 8.7675781 C 14.466983 8.5320543 14.400277 8.2684032 14.400391 8 L 14.400391 2.4003906 L 15.5 2.4003906 A 0.40000001 0.40000001 0 0 0 15.900391 2 A 0.40000001 0.40000001 0 0 0 15.5 1.5996094 L 14 1.5996094 L 10 1.5996094 L 8.5 1.5996094 z M 10.400391 2.4003906 L 13.599609 2.4003906 L 13.599609 8 C 13.599439 8.4025641 13.701471 8.7990938 13.894531 9.1523438 L 16.871094 14.599609 L 7.1289062 14.599609 L 10.105469 9.1523438 C 10.298529 8.7990937 10.400561 8.4025641 10.400391 8 L 10.400391 2.4003906 z M 6.6894531 15.400391 L 17.310547 15.400391 L 19.404297 19.232422 C 19.996539 20.314829 19.233838 21.599895 18 21.599609 L 6 21.599609 C 4.7661619 21.599895 4.0034608 20.314829 4.5957031 19.232422 L 6.6894531 15.400391 z " />
</svg>
