<?xml version="1.0" encoding="UTF-8" standalone="no"?>
<svg
   width="24"
   height="24"
   viewBox="0 0 24 24"
   fill="none"
   stroke="currentColor"
   stroke-width="0.8"
   stroke-linecap="round"
   stroke-linejoin="round"
   version="1.1"
   id="svg2"
   sodipodi:docname=".tmp_folder-lock.svg"
   xmlns:inkscape="http://www.inkscape.org/namespaces/inkscape"
   xmlns:sodipodi="http://sodipodi.sourceforge.net/DTD/sodipodi-0.dtd"
   xmlns="http://www.w3.org/2000/svg"
   xmlns:svg="http://www.w3.org/2000/svg">
  <defs
     id="defs2" />
  <sodipodi:namedview
     id="namedview2"
     pagecolor="#ffffff"
     bordercolor="#000000"
     borderopacity="0.25"
     inkscape:showpageshadow="2"
     inkscape:pageopacity="0.0"
     inkscape:pagecheckerboard="0"
     inkscape:deskcolor="#d1d1d1" />
  <path
     id="rect1"
     style="baseline-shift:baseline;display:inline;overflow:visible;vector-effect:none;fill:#000000;stroke:none;stroke-linecap:butt;stroke-linejoin:miter;enable-background:accumulate;stop-color:#000000;stop-opacity:1;opacity:1"
     d="M 4 2.5996094 C 2.6792545 2.5996094 1.5996094 3.6792545 1.5996094 5 L 1.5996094 18 C 1.5996094 19.320746 2.6792545 20.400391 4 20.400391 L 10 20.400391 A 0.40000001 0.40000001 0 0 0 10.400391 20 A 0.40000001 0.40000001 0 0 0 10 19.599609 L 4 19.599609 C 3.1116065 19.599609 2.4003906 18.888393 2.4003906 18 L 2.4003906 5 C 2.4003906 4.1116065 3.1116065 3.4003906 4 3.4003906 L 7.9003906 3.4003906 A 0.40004001 0.40004001 0 0 0 7.9042969 3.4003906 C 8.4485367 3.3950506 8.9565393 3.6645717 9.2558594 4.1191406 A 0.40004001 0.40004001 0 0 0 9.2578125 4.1230469 L 10.066406 5.3203125 C 10.510049 5.993975 11.263689 6.4002578 12.070312 6.4003906 L 20 6.4003906 C 20.888393 6.4003906 21.599609 7.1116065 21.599609 8 L 21.599609 10.5 A 0.40000001 0.40000001 0 0 0 22 10.900391 A 0.40000001 0.40000001 0 0 0 22.400391 10.5 L 22.400391 8 C 22.400391 6.6792545 21.320746 5.5996094 20 5.5996094 L 12.070312 5.5996094 C 11.531761 5.5995207 11.030578 5.3306375 10.734375 4.8808594 A 0.40004001 0.40004001 0 0 0 10.732422 4.8769531 L 9.9238281 3.6796875 C 9.4762617 2.9999811 8.7140177 2.5929586 7.9003906 2.5996094 L 4 2.5996094 z M 18 12.599609 C 17.411111 12.599609 16.816848 12.79453 16.359375 13.201172 C 15.901902 13.607814 15.599609 14.233334 15.599609 15 L 15.599609 16.599609 L 15 16.599609 C 14.231319 16.599609 13.599609 17.231319 13.599609 18 L 13.599609 21 C 13.599609 21.768681 14.231319 22.400391 15 22.400391 L 21 22.400391 C 21.768681 22.400391 22.400391 21.768681 22.400391 21 L 22.400391 18 C 22.400391 17.231319 21.768681 16.599609 21 16.599609 L 20.400391 16.599609 L 20.400391 15 C 20.400391 14.233334 20.098098 13.607814 19.640625 13.201172 C 19.183152 12.79453 18.588889 12.599609 18 12.599609 z M 18 13.400391 C 18.411111 13.400391 18.816848 13.538804 19.109375 13.798828 C 19.401902 14.058852 19.599609 14.433334 19.599609 15 L 19.599609 16.599609 L 16.400391 16.599609 L 16.400391 15 C 16.400391 14.433334 16.598098 14.058852 16.890625 13.798828 C 17.183152 13.538804 17.588889 13.400391 18 13.400391 z M 15 17.400391 L 16 17.400391 L 20 17.400391 L 21 17.400391 C 21.339319 17.400391 21.599609 17.660681 21.599609 18 L 21.599609 21 C 21.599609 21.339319 21.339319 21.599609 21 21.599609 L 15 21.599609 C 14.660681 21.599609 14.400391 21.339319 14.400391 21 L 14.400391 18 C 14.400391 17.660681 14.660681 17.400391 15 17.400391 z " />
</svg>
