<?xml version="1.0" encoding="UTF-8" standalone="no"?>
<svg
   width="24"
   height="24"
   viewBox="0 0 24 24"
   fill="none"
   stroke="currentColor"
   stroke-width="0.8"
   stroke-linecap="round"
   stroke-linejoin="round"
   version="1.1"
   id="svg1"
   sodipodi:docname=".tmp_framer.svg"
   xmlns:inkscape="http://www.inkscape.org/namespaces/inkscape"
   xmlns:sodipodi="http://sodipodi.sourceforge.net/DTD/sodipodi-0.dtd"
   xmlns="http://www.w3.org/2000/svg"
   xmlns:svg="http://www.w3.org/2000/svg">
  <defs
     id="defs1" />
  <sodipodi:namedview
     id="namedview1"
     pagecolor="#ffffff"
     bordercolor="#000000"
     borderopacity="0.25"
     inkscape:showpageshadow="2"
     inkscape:pageopacity="0.0"
     inkscape:pagecheckerboard="0"
     inkscape:deskcolor="#d1d1d1" />
  <path
     id="path1"
     style="baseline-shift:baseline;display:inline;overflow:visible;vector-effect:none;fill:#000000;stroke:none;stroke-linecap:butt;stroke-linejoin:miter;enable-background:accumulate;stop-color:#000000;stop-opacity:1;opacity:1"
     d="M 5 1.5996094 A 0.40004001 0.40004001 0 0 0 4.7167969 2.2832031 L 11.033203 8.5996094 L 5 8.5996094 A 0.40004001 0.40004001 0 0 0 4.5996094 9 L 4.5996094 16 A 0.40000001 0.40000001 0 0 0 4.7167969 16.117188 A 0.40000001 0.40000001 0 0 0 4.7167969 16.283203 L 11.716797 23.283203 A 0.40004001 0.40004001 0 0 0 12.400391 23 L 12.400391 16.400391 L 19 16.400391 A 0.40004001 0.40004001 0 0 0 19.283203 15.716797 L 12.966797 9.4003906 L 19 9.4003906 A 0.40004001 0.40004001 0 0 0 19.400391 9 L 19.400391 2 A 0.40004001 0.40004001 0 0 0 19 1.5996094 L 5 1.5996094 z M 5.9667969 2.4003906 L 18.599609 2.4003906 L 18.599609 8.5996094 L 12.166016 8.5996094 L 5.9667969 2.4003906 z M 5.4003906 9.4003906 L 11.833984 9.4003906 L 18.033203 15.599609 L 12 15.599609 L 5.4003906 15.599609 L 5.4003906 9.4003906 z M 5.9667969 16.400391 L 11.599609 16.400391 L 11.599609 22.033203 L 5.9667969 16.400391 z " />
</svg>
