<?xml version="1.0" encoding="UTF-8" standalone="no"?>
<svg
   width="24"
   height="24"
   viewBox="0 0 24 24"
   fill="none"
   stroke="currentColor"
   stroke-width="0.8"
   stroke-linecap="round"
   stroke-linejoin="round"
   version="1.1"
   id="svg4"
   sodipodi:docname=".tmp_gamepad.svg"
   xmlns:inkscape="http://www.inkscape.org/namespaces/inkscape"
   xmlns:sodipodi="http://sodipodi.sourceforge.net/DTD/sodipodi-0.dtd"
   xmlns="http://www.w3.org/2000/svg"
   xmlns:svg="http://www.w3.org/2000/svg">
  <defs
     id="defs4" />
  <sodipodi:namedview
     id="namedview4"
     pagecolor="#ffffff"
     bordercolor="#000000"
     borderopacity="0.25"
     inkscape:showpageshadow="2"
     inkscape:pageopacity="0.0"
     inkscape:pagecheckerboard="0"
     inkscape:deskcolor="#d1d1d1" />
  <path
     id="line1"
     style="baseline-shift:baseline;display:inline;overflow:visible;vector-effect:none;fill:#000000;stroke:none;stroke-linecap:butt;stroke-linejoin:miter;enable-background:accumulate;stop-color:#000000;stop-opacity:1;opacity:1"
     d="M 4 5.5996094 C 2.6773189 5.5996094 1.5996094 6.6773189 1.5996094 8 L 1.5996094 16 C 1.5996094 17.322681 2.6773189 18.400391 4 18.400391 L 20 18.400391 C 21.322681 18.400391 22.400391 17.322681 22.400391 16 L 22.400391 8 C 22.400391 6.6773189 21.322681 5.5996094 20 5.5996094 L 4 5.5996094 z M 4 6.4003906 L 20 6.4003906 C 20.893319 6.4003906 21.599609 7.1066811 21.599609 8 L 21.599609 16 C 21.599609 16.893319 20.893319 17.599609 20 17.599609 L 4 17.599609 C 3.1066811 17.599609 2.4003906 16.893319 2.4003906 16 L 2.4003906 8 C 2.4003906 7.1066811 3.1066811 6.4003906 4 6.4003906 z M 8 9.5996094 A 0.40000001 0.40000001 0 0 0 7.5996094 10 L 7.5996094 11.599609 L 6 11.599609 A 0.40000001 0.40000001 0 0 0 5.5996094 12 A 0.40000001 0.40000001 0 0 0 6 12.400391 L 7.5996094 12.400391 L 7.5996094 14 A 0.40000001 0.40000001 0 0 0 8 14.400391 A 0.40000001 0.40000001 0 0 0 8.4003906 14 L 8.4003906 12.400391 L 10 12.400391 A 0.40000001 0.40000001 0 0 0 10.400391 12 A 0.40000001 0.40000001 0 0 0 10 11.599609 L 8.4003906 11.599609 L 8.4003906 10 A 0.40000001 0.40000001 0 0 0 8 9.5996094 z M 18 10.599609 A 0.40000001 0.40000001 0 0 0 17.599609 11 A 0.40000001 0.40000001 0 0 0 18 11.400391 L 18.009766 11.400391 A 0.40000001 0.40000001 0 0 0 18.410156 11 A 0.40000001 0.40000001 0 0 0 18.009766 10.599609 L 18 10.599609 z M 15 12.599609 A 0.40000001 0.40000001 0 0 0 14.599609 13 A 0.40000001 0.40000001 0 0 0 15 13.400391 L 15.009766 13.400391 A 0.40000001 0.40000001 0 0 0 15.410156 13 A 0.40000001 0.40000001 0 0 0 15.009766 12.599609 L 15 12.599609 z " />
</svg>
