<?xml version="1.0" encoding="UTF-8" standalone="no"?>
<svg
   width="24"
   height="24"
   viewBox="0 0 24 24"
   fill="none"
   stroke="currentColor"
   stroke-width="0.8"
   stroke-linecap="round"
   stroke-linejoin="round"
   version="1.1"
   id="svg6"
   sodipodi:docname=".tmp_grip-vertical.svg"
   xmlns:inkscape="http://www.inkscape.org/namespaces/inkscape"
   xmlns:sodipodi="http://sodipodi.sourceforge.net/DTD/sodipodi-0.dtd"
   xmlns="http://www.w3.org/2000/svg"
   xmlns:svg="http://www.w3.org/2000/svg">
  <defs
     id="defs6" />
  <sodipodi:namedview
     id="namedview6"
     pagecolor="#ffffff"
     bordercolor="#000000"
     borderopacity="0.25"
     inkscape:showpageshadow="2"
     inkscape:pageopacity="0.0"
     inkscape:pagecheckerboard="0"
     inkscape:deskcolor="#d1d1d1" />
  <path
     id="circle1"
     style="baseline-shift:baseline;display:inline;overflow:visible;vector-effect:none;fill:#000000;stroke:none;stroke-linecap:butt;stroke-linejoin:miter;enable-background:accumulate;stop-color:#000000;stop-opacity:1;opacity:1"
     d="M 9 3.5996094 C 8.2315392 3.5996094 7.5996094 4.2315392 7.5996094 5 C 7.5996094 5.7684608 8.2315392 6.4003906 9 6.4003906 C 9.7684608 6.4003906 10.400391 5.7684608 10.400391 5 C 10.400391 4.2315392 9.7684608 3.5996094 9 3.5996094 z M 15 3.5996094 C 14.231539 3.5996094 13.599609 4.2315392 13.599609 5 C 13.599609 5.7684608 14.231539 6.4003906 15 6.4003906 C 15.768461 6.4003906 16.400391 5.7684608 16.400391 5 C 16.400391 4.2315392 15.768461 3.5996094 15 3.5996094 z M 9 4.4003906 C 9.3361087 4.4003906 9.5996094 4.6638913 9.5996094 5 C 9.5996094 5.3361087 9.3361087 5.5996094 9 5.5996094 C 8.6638913 5.5996094 8.4003906 5.3361087 8.4003906 5 C 8.4003906 4.6638913 8.6638913 4.4003906 9 4.4003906 z M 15 4.4003906 C 15.336109 4.4003906 15.599609 4.6638913 15.599609 5 C 15.599609 5.3361087 15.336109 5.5996094 15 5.5996094 C 14.663891 5.5996094 14.400391 5.3361087 14.400391 5 C 14.400391 4.6638913 14.663891 4.4003906 15 4.4003906 z M 9 10.599609 C 8.2315392 10.599609 7.5996094 11.231539 7.5996094 12 C 7.5996094 12.768461 8.2315392 13.400391 9 13.400391 C 9.7684608 13.400391 10.400391 12.768461 10.400391 12 C 10.400391 11.231539 9.7684608 10.599609 9 10.599609 z M 15 10.599609 C 14.231539 10.599609 13.599609 11.231539 13.599609 12 C 13.599609 12.768461 14.231539 13.400391 15 13.400391 C 15.768461 13.400391 16.400391 12.768461 16.400391 12 C 16.400391 11.231539 15.768461 10.599609 15 10.599609 z M 9 11.400391 C 9.3361087 11.400391 9.5996094 11.663891 9.5996094 12 C 9.5996094 12.336109 9.3361087 12.599609 9 12.599609 C 8.6638913 12.599609 8.4003906 12.336109 8.4003906 12 C 8.4003906 11.663891 8.6638913 11.400391 9 11.400391 z M 15 11.400391 C 15.336109 11.400391 15.599609 11.663891 15.599609 12 C 15.599609 12.336109 15.336109 12.599609 15 12.599609 C 14.663891 12.599609 14.400391 12.336109 14.400391 12 C 14.400391 11.663891 14.663891 11.400391 15 11.400391 z M 9 17.599609 C 8.2315392 17.599609 7.5996094 18.231539 7.5996094 19 C 7.5996094 19.768461 8.2315392 20.400391 9 20.400391 C 9.7684608 20.400391 10.400391 19.768461 10.400391 19 C 10.400391 18.231539 9.7684608 17.599609 9 17.599609 z M 15 17.599609 C 14.231539 17.599609 13.599609 18.231539 13.599609 19 C 13.599609 19.768461 14.231539 20.400391 15 20.400391 C 15.768461 20.400391 16.400391 19.768461 16.400391 19 C 16.400391 18.231539 15.768461 17.599609 15 17.599609 z M 9 18.400391 C 9.3361087 18.400391 9.5996094 18.663891 9.5996094 19 C 9.5996094 19.336109 9.3361087 19.599609 9 19.599609 C 8.6638913 19.599609 8.4003906 19.336109 8.4003906 19 C 8.4003906 18.663891 8.6638913 18.400391 9 18.400391 z M 15 18.400391 C 15.336109 18.400391 15.599609 18.663891 15.599609 19 C 15.599609 19.336109 15.336109 19.599609 15 19.599609 C 14.663891 19.599609 14.400391 19.336109 14.400391 19 C 14.400391 18.663891 14.663891 18.400391 15 18.400391 z " />
</svg>
