<?xml version="1.0" encoding="UTF-8" standalone="no"?>
<svg
   width="24"
   height="24"
   viewBox="0 0 24 24"
   fill="none"
   stroke="currentColor"
   stroke-width="0.8"
   stroke-linecap="round"
   stroke-linejoin="round"
   version="1.1"
   id="svg3"
   sodipodi:docname=".tmp_image-up.svg"
   xmlns:inkscape="http://www.inkscape.org/namespaces/inkscape"
   xmlns:sodipodi="http://sodipodi.sourceforge.net/DTD/sodipodi-0.dtd"
   xmlns="http://www.w3.org/2000/svg"
   xmlns:svg="http://www.w3.org/2000/svg">
  <defs
     id="defs3" />
  <sodipodi:namedview
     id="namedview3"
     pagecolor="#ffffff"
     bordercolor="#000000"
     borderopacity="0.25"
     inkscape:showpageshadow="2"
     inkscape:pageopacity="0.0"
     inkscape:pagecheckerboard="0"
     inkscape:deskcolor="#d1d1d1" />
  <path
     id="path1"
     style="baseline-shift:baseline;display:inline;overflow:visible;vector-effect:none;fill:#000000;stroke:none;stroke-linecap:butt;stroke-linejoin:miter;enable-background:accumulate;stop-color:#000000;stop-opacity:1;opacity:1"
     d="M 5 2.5996094 C 3.6792545 2.5996094 2.5996094 3.6792545 2.5996094 5 L 2.5996094 19 C 2.5996094 20.320746 3.6792545 21.400391 5 21.400391 L 10.300781 21.400391 A 0.40000001 0.40000001 0 0 0 10.699219 21 A 0.40000001 0.40000001 0 0 0 10.300781 20.599609 L 6.9667969 20.599609 L 15.369141 12.197266 C 15.992807 11.573724 16.989301 11.568243 17.619141 12.185547 L 20.716797 15.283203 A 0.40004001 0.40004001 0 0 0 21.400391 15 L 21.400391 5 C 21.400391 3.6792545 20.320746 2.5996094 19 2.5996094 L 5 2.5996094 z M 5 3.4003906 L 19 3.4003906 C 19.888393 3.4003906 20.599609 4.1116065 20.599609 5 L 20.599609 14.033203 L 18.183594 11.617188 A 0.40004001 0.40004001 0 0 0 18.179688 11.615234 C 17.243122 10.697309 15.73012 10.703655 14.802734 11.630859 L 5.8339844 20.599609 L 5 20.599609 C 4.1116065 20.59965 3.4003906 19.888393 3.4003906 19 L 3.4003906 5 C 3.4003906 4.1116065 4.1116065 3.4003906 5 3.4003906 z M 9 6.5996094 C 7.6792545 6.5996094 6.5996094 7.6792545 6.5996094 9 C 6.5996094 10.320746 7.6792545 11.400391 9 11.400391 C 10.320746 11.400391 11.400391 10.320746 11.400391 9 C 11.400391 7.6792545 10.320746 6.5996094 9 6.5996094 z M 9 7.4003906 C 9.8883935 7.4003906 10.599609 8.1116065 10.599609 9 C 10.599609 9.8883935 9.8883935 10.599609 9 10.599609 C 8.1116065 10.599609 7.4003906 9.8883935 7.4003906 9 C 7.4003906 8.1116065 8.1116065 7.4003906 9 7.4003906 z M 17 16.099609 A 0.40004001 0.40004001 0 0 0 16.947266 16.103516 A 0.40000001 0.40000001 0 0 0 16.894531 16.113281 A 0.40000001 0.40000001 0 0 0 16.871094 16.121094 A 0.40004001 0.40004001 0 0 0 16.847656 16.128906 A 0.40000001 0.40000001 0 0 0 16.84375 16.130859 A 0.40004001 0.40004001 0 0 0 16.798828 16.152344 A 0.40000001 0.40000001 0 0 0 16.796875 16.154297 A 0.40004001 0.40004001 0 0 0 16.755859 16.181641 A 0.40000001 0.40000001 0 0 0 16.751953 16.185547 A 0.40004001 0.40004001 0 0 0 16.716797 16.216797 A 0.40000001 0.40000001 0 0 0 16.712891 16.220703 L 13.716797 19.216797 A 0.40000001 0.40000001 0 0 0 13.716797 19.783203 A 0.40000001 0.40000001 0 0 0 14.283203 19.783203 L 16.599609 17.466797 L 16.599609 22 A 0.40000001 0.40000001 0 0 0 17 22.400391 A 0.40000001 0.40000001 0 0 0 17.400391 22 L 17.400391 17.466797 L 19.716797 19.783203 A 0.40000001 0.40000001 0 0 0 20.283203 19.783203 A 0.40000001 0.40000001 0 0 0 20.283203 19.216797 L 17.287109 16.220703 A 0.40000001 0.40000001 0 0 0 17.201172 16.152344 A 0.40000001 0.40000001 0 0 0 17.128906 16.121094 A 0.40004001 0.40004001 0 0 0 17.105469 16.113281 A 0.40000001 0.40000001 0 0 0 17.103516 16.113281 A 0.40004001 0.40004001 0 0 0 17 16.099609 z " />
</svg>
