<?xml version="1.0" encoding="UTF-8" standalone="no"?>
<svg
   width="24"
   height="24"
   viewBox="0 0 24 24"
   fill="none"
   stroke="currentColor"
   stroke-width="0.8"
   stroke-linecap="round"
   stroke-linejoin="round"
   version="1.1"
   id="svg8"
   sodipodi:docname=".tmp_keyboard-music.svg"
   xmlns:inkscape="http://www.inkscape.org/namespaces/inkscape"
   xmlns:sodipodi="http://sodipodi.sourceforge.net/DTD/sodipodi-0.dtd"
   xmlns="http://www.w3.org/2000/svg"
   xmlns:svg="http://www.w3.org/2000/svg">
  <defs
     id="defs8" />
  <sodipodi:namedview
     id="namedview8"
     pagecolor="#ffffff"
     bordercolor="#000000"
     borderopacity="0.25"
     inkscape:showpageshadow="2"
     inkscape:pageopacity="0.0"
     inkscape:pagecheckerboard="0"
     inkscape:deskcolor="#d1d1d1" />
  <path
     id="rect1"
     style="baseline-shift:baseline;display:inline;overflow:visible;vector-effect:none;fill:#000000;stroke:none;stroke-linecap:butt;stroke-linejoin:miter;enable-background:accumulate;stop-color:#000000;stop-opacity:1;opacity:1"
     d="M 4 3.5996094 C 2.6773189 3.5996094 1.5996094 4.6773189 1.5996094 6 L 1.5996094 18 C 1.5996094 19.322681 2.6773189 20.400391 4 20.400391 L 20 20.400391 C 21.322681 20.400391 22.400391 19.322681 22.400391 18 L 22.400391 6 C 22.400391 4.6773189 21.322681 3.5996094 20 3.5996094 L 4 3.5996094 z M 4 4.4003906 L 20 4.4003906 C 20.893319 4.4003906 21.599609 5.1066811 21.599609 6 L 21.599609 11.599609 L 18 11.599609 L 2.4003906 11.599609 L 2.4003906 6 C 2.4003906 5.1066811 3.1066811 4.4003906 4 4.4003906 z M 6 7.5996094 A 0.40000001 0.40000001 0 0 0 5.5996094 8 A 0.40000001 0.40000001 0 0 0 6 8.4003906 L 10 8.4003906 A 0.40000001 0.40000001 0 0 0 10.400391 8 A 0.40000001 0.40000001 0 0 0 10 7.5996094 L 6 7.5996094 z M 14 7.5996094 A 0.40000001 0.40000001 0 0 0 13.599609 8 A 0.40000001 0.40000001 0 0 0 14 8.4003906 L 14.009766 8.4003906 A 0.40000001 0.40000001 0 0 0 14.410156 8 A 0.40000001 0.40000001 0 0 0 14.009766 7.5996094 L 14 7.5996094 z M 18 7.5996094 A 0.40000001 0.40000001 0 0 0 17.599609 8 A 0.40000001 0.40000001 0 0 0 18 8.4003906 L 18.009766 8.4003906 A 0.40000001 0.40000001 0 0 0 18.410156 8 A 0.40000001 0.40000001 0 0 0 18.009766 7.5996094 L 18 7.5996094 z M 2.4003906 12.400391 L 5.5996094 12.400391 L 5.5996094 16 A 0.40000001 0.40000001 0 0 0 6 16.400391 A 0.40000001 0.40000001 0 0 0 6.4003906 16 L 6.4003906 12.400391 L 9.5996094 12.400391 L 9.5996094 16 A 0.40000001 0.40000001 0 0 0 10 16.400391 A 0.40000001 0.40000001 0 0 0 10.400391 16 L 10.400391 12.400391 L 13.599609 12.400391 L 13.599609 16 A 0.40000001 0.40000001 0 0 0 14 16.400391 A 0.40000001 0.40000001 0 0 0 14.400391 16 L 14.400391 12.400391 L 17.599609 12.400391 L 17.599609 16 A 0.40000001 0.40000001 0 0 0 18 16.400391 A 0.40000001 0.40000001 0 0 0 18.400391 16 L 18.400391 12.400391 L 21.599609 12.400391 L 21.599609 18 C 21.599609 18.893319 20.893319 19.599609 20 19.599609 L 4 19.599609 C 3.1066811 19.599609 2.4003906 18.893319 2.4003906 18 L 2.4003906 12.400391 z " />
</svg>
