<?xml version="1.0" encoding="UTF-8" standalone="no"?>
<svg
   width="24"
   height="24"
   viewBox="0 0 24 24"
   fill="none"
   stroke="currentColor"
   stroke-width="0.8"
   stroke-linecap="round"
   stroke-linejoin="round"
   version="1.1"
   id="svg6"
   sodipodi:docname=".tmp_landmark.svg"
   xmlns:inkscape="http://www.inkscape.org/namespaces/inkscape"
   xmlns:sodipodi="http://sodipodi.sourceforge.net/DTD/sodipodi-0.dtd"
   xmlns="http://www.w3.org/2000/svg"
   xmlns:svg="http://www.w3.org/2000/svg">
  <defs
     id="defs6" />
  <sodipodi:namedview
     id="namedview6"
     pagecolor="#ffffff"
     bordercolor="#000000"
     borderopacity="0.25"
     inkscape:showpageshadow="2"
     inkscape:pageopacity="0.0"
     inkscape:pagecheckerboard="0"
     inkscape:deskcolor="#d1d1d1" />
  <path
     id="path1"
     style="baseline-shift:baseline;display:inline;overflow:visible;vector-effect:none;fill:#000000;stroke:none;stroke-linecap:butt;stroke-linejoin:miter;enable-background:accumulate;stop-color:#000000;stop-opacity:1;opacity:1"
     d="M 12.001953 1.5976562 C 11.64059 1.5962709 11.278806 1.6758905 10.945312 1.8378906 A 0.40004001 0.40004001 0 0 0 10.943359 1.8378906 L 3.078125 5.6914062 C 2.6787376 5.8873163 2.513264 6.338156 2.5976562 6.703125 C 2.6820484 7.068094 3.0294836 7.4003906 3.4746094 7.4003906 L 20.525391 7.4003906 C 20.970516 7.4003906 21.317708 7.0682007 21.402344 6.703125 C 21.486984 6.3380493 21.321684 5.8871113 20.921875 5.6914062 L 13.056641 1.84375 L 13.056641 1.8457031 C 12.724259 1.6814343 12.363316 1.5990416 12.001953 1.5976562 z M 12 2.3964844 C 12.240951 2.3970826 12.481297 2.4528668 12.703125 2.5625 A 0.40004001 0.40004001 0 0 0 12.705078 2.5625 L 20.570312 6.4101562 C 20.646503 6.4474513 20.634917 6.4722632 20.623047 6.5234375 C 20.611187 6.5746115 20.610271 6.5996094 20.525391 6.5996094 L 3.4746094 6.5996094 C 3.3897354 6.5996094 3.3888111 6.5747185 3.3769531 6.5234375 C 3.3650951 6.4721565 3.3540755 6.4472465 3.4296875 6.4101562 L 11.294922 2.5585938 C 11.517492 2.4504774 11.759049 2.3958861 12 2.3964844 z M 6 10.599609 A 0.40000001 0.40000001 0 0 0 5.5996094 11 L 5.5996094 18 A 0.40000001 0.40000001 0 0 0 6 18.400391 A 0.40000001 0.40000001 0 0 0 6.4003906 18 L 6.4003906 11 A 0.40000001 0.40000001 0 0 0 6 10.599609 z M 10 10.599609 A 0.40000001 0.40000001 0 0 0 9.5996094 11 L 9.5996094 18 A 0.40000001 0.40000001 0 0 0 10 18.400391 A 0.40000001 0.40000001 0 0 0 10.400391 18 L 10.400391 11 A 0.40000001 0.40000001 0 0 0 10 10.599609 z M 14 10.599609 A 0.40000001 0.40000001 0 0 0 13.599609 11 L 13.599609 18 A 0.40000001 0.40000001 0 0 0 14 18.400391 A 0.40000001 0.40000001 0 0 0 14.400391 18 L 14.400391 11 A 0.40000001 0.40000001 0 0 0 14 10.599609 z M 18 10.599609 A 0.40000001 0.40000001 0 0 0 17.599609 11 L 17.599609 18 A 0.40000001 0.40000001 0 0 0 18 18.400391 A 0.40000001 0.40000001 0 0 0 18.400391 18 L 18.400391 11 A 0.40000001 0.40000001 0 0 0 18 10.599609 z M 3 21.599609 A 0.40000001 0.40000001 0 0 0 2.5996094 22 A 0.40000001 0.40000001 0 0 0 3 22.400391 L 21 22.400391 A 0.40000001 0.40000001 0 0 0 21.400391 22 A 0.40000001 0.40000001 0 0 0 21 21.599609 L 3 21.599609 z " />
</svg>
