<?xml version="1.0" encoding="UTF-8" standalone="no"?>
<svg
   width="24"
   height="24"
   viewBox="0 0 24 24"
   fill="none"
   stroke="currentColor"
   stroke-width="0.8"
   stroke-linecap="round"
   stroke-linejoin="round"
   version="1.1"
   id="svg4"
   sodipodi:docname=".tmp_luggage.svg"
   xmlns:inkscape="http://www.inkscape.org/namespaces/inkscape"
   xmlns:sodipodi="http://sodipodi.sourceforge.net/DTD/sodipodi-0.dtd"
   xmlns="http://www.w3.org/2000/svg"
   xmlns:svg="http://www.w3.org/2000/svg">
  <defs
     id="defs4" />
  <sodipodi:namedview
     id="namedview4"
     pagecolor="#ffffff"
     bordercolor="#000000"
     borderopacity="0.25"
     inkscape:showpageshadow="2"
     inkscape:pageopacity="0.0"
     inkscape:pagecheckerboard="0"
     inkscape:deskcolor="#d1d1d1" />
  <path
     id="path1"
     style="baseline-shift:baseline;display:inline;overflow:visible;vector-effect:none;fill:#000000;stroke:none;stroke-linecap:butt;stroke-linejoin:miter;enable-background:accumulate;stop-color:#000000;stop-opacity:1;opacity:1"
     d="M 10 1.5996094 C 8.6792545 1.5996094 7.5996094 2.6792545 7.5996094 4 L 7.5996094 5.5996094 L 6 5.5996094 C 4.6792545 5.5996094 3.5996094 6.6792545 3.5996094 8 L 3.5996094 18 C 3.5996094 19.19446 4.4830779 20.191304 5.6289062 20.371094 C 5.8086963 21.516922 6.8055403 22.400391 8 22.400391 C 9.1844051 22.400391 10.175308 21.532144 10.367188 20.400391 L 13.632812 20.400391 C 13.824692 21.532144 14.815594 22.400391 16 22.400391 C 17.19446 22.400391 18.191304 21.516922 18.371094 20.371094 C 19.516922 20.191304 20.400391 19.19446 20.400391 18 L 20.400391 8 C 20.400391 6.6792545 19.320746 5.5996094 18 5.5996094 L 16.400391 5.5996094 L 16.400391 4 C 16.400391 2.6792545 15.320746 1.5996094 14 1.5996094 L 10 1.5996094 z M 10 2.4003906 L 14 2.4003906 C 14.888393 2.4003906 15.599609 3.1116065 15.599609 4 L 15.599609 5.5996094 L 8.4003906 5.5996094 L 8.4003906 4 C 8.4003906 3.1116065 9.1116065 2.4003906 10 2.4003906 z M 6 6.4003906 L 7.5996094 6.4003906 L 7.5996094 17.632812 C 6.6115049 17.800337 5.8245496 18.577951 5.640625 19.560547 C 4.927472 19.398864 4.4003906 18.764582 4.4003906 18 L 4.4003906 8 C 4.4003906 7.1116065 5.1116065 6.4003906 6 6.4003906 z M 8.4003906 6.4003906 L 15.599609 6.4003906 L 15.599609 17.632812 C 14.598136 17.802604 13.802604 18.598136 13.632812 19.599609 L 10.367188 19.599609 C 10.197396 18.598136 9.4018641 17.802604 8.4003906 17.632812 L 8.4003906 6.4003906 z M 16.400391 6.4003906 L 18 6.4003906 C 18.888393 6.4003906 19.599609 7.1116065 19.599609 8 L 19.599609 18 C 19.599609 18.764582 19.072527 19.398863 18.359375 19.560547 C 18.17545 18.577951 17.388495 17.800338 16.400391 17.632812 L 16.400391 6.4003906 z M 8 18.400391 C 8.8878894 18.400727 9.5992729 19.112111 9.5996094 20 C 9.5992728 20.888099 8.8881832 21.599609 8 21.599609 C 7.1118168 21.599609 6.4007272 20.888099 6.4003906 20 C 6.4007271 19.112111 7.1121106 18.400727 8 18.400391 z M 16 18.400391 C 16.887889 18.400727 17.599273 19.112111 17.599609 20 C 17.599273 20.888099 16.888183 21.599609 16 21.599609 C 15.111817 21.599609 14.400727 20.888099 14.400391 20 C 14.400727 19.112111 15.112111 18.400727 16 18.400391 z " />
</svg>
