<?xml version="1.0" encoding="UTF-8" standalone="no"?>
<svg
   width="24"
   height="24"
   viewBox="0 0 24 24"
   fill="none"
   stroke="currentColor"
   stroke-width="0.8"
   stroke-linecap="round"
   stroke-linejoin="round"
   version="1.1"
   id="svg3"
   sodipodi:docname=".tmp_map-pin-house.svg"
   xmlns:inkscape="http://www.inkscape.org/namespaces/inkscape"
   xmlns:sodipodi="http://sodipodi.sourceforge.net/DTD/sodipodi-0.dtd"
   xmlns="http://www.w3.org/2000/svg"
   xmlns:svg="http://www.w3.org/2000/svg">
  <defs
     id="defs3" />
  <sodipodi:namedview
     id="namedview3"
     pagecolor="#ffffff"
     bordercolor="#000000"
     borderopacity="0.25"
     inkscape:showpageshadow="2"
     inkscape:pageopacity="0.0"
     inkscape:pagecheckerboard="0"
     inkscape:deskcolor="#d1d1d1" />
  <path
     id="path1"
     style="baseline-shift:baseline;display:inline;overflow:visible;vector-effect:none;fill:#000000;stroke:none;stroke-linecap:butt;stroke-linejoin:miter;enable-background:accumulate;stop-color:#000000;stop-opacity:1;opacity:1"
     d="M 10 1.5996094 C 5.3655464 1.5996094 1.5996094 5.3655431 1.5996094 10 C 1.5996094 12.644414 3.039646 15.252157 4.6835938 17.412109 C 6.3275416 19.572062 8.1937442 21.28736 9.1367188 22.101562 A 0.40004001 0.40004001 0 0 0 9.1582031 22.119141 C 9.4008752 22.301144 9.6966602 22.398742 10 22.398438 A 0.40000001 0.40000001 0 0 0 10.400391 21.998047 A 0.40000001 0.40000001 0 0 0 10 21.599609 C 9.8726557 21.599737 9.7492747 21.555389 9.6464844 21.480469 C 8.7264821 20.685407 6.9056283 19.010652 5.3203125 16.927734 C 3.7297602 14.837937 2.4003906 12.348586 2.4003906 10 C 2.4003906 5.7978949 5.7978978 2.4003906 10 2.4003906 C 14.202102 2.4003906 17.599609 5.7978949 17.599609 10 A 0.40000001 0.40000001 0 0 0 18 10.400391 A 0.40000001 0.40000001 0 0 0 18.400391 10 C 18.400391 5.3655431 14.634454 1.5996094 10 1.5996094 z M 10 6.5996094 C 8.1269697 6.5996094 6.5996094 8.1269697 6.5996094 10 C 6.5996094 11.87303 8.1269697 13.400391 10 13.400391 C 11.87303 13.400391 13.400391 11.87303 13.400391 10 C 13.400391 8.1269697 11.87303 6.5996094 10 6.5996094 z M 10 7.4003906 C 11.440678 7.4003906 12.599609 8.5593218 12.599609 10 C 12.599609 11.440678 11.440678 12.599609 10 12.599609 C 8.5593218 12.599609 7.4003906 11.440678 7.4003906 10 C 7.4003906 8.5593218 8.5593218 7.4003906 10 7.4003906 z M 18 13.601562 C 17.728704 13.601562 17.457407 13.679315 17.222656 13.835938 L 14.222656 15.835938 C 13.833748 16.095411 13.599539 16.532478 13.599609 17 L 13.599609 21 C 13.599609 21.768461 14.231539 22.400391 15 22.400391 L 21 22.400391 C 21.768461 22.400391 22.400391 21.768461 22.400391 21 L 22.400391 17 C 22.400461 16.532478 22.166252 16.095411 21.777344 15.835938 L 18.777344 13.835938 C 18.542593 13.679315 18.271296 13.601562 18 13.601562 z M 18 14.398438 C 18.115373 14.398438 18.230745 14.432423 18.332031 14.5 A 0.40004001 0.40004001 0 0 0 18.333984 14.5 L 21.332031 16.5 C 21.499262 16.611574 21.599639 16.798965 21.599609 17 L 21.599609 21 C 21.599609 21.336109 21.336109 21.599609 21 21.599609 L 18.400391 21.599609 L 18.400391 19 A 0.40000001 0.40000001 0 0 0 18 18.599609 A 0.40000001 0.40000001 0 0 0 17.599609 19 L 17.599609 21.599609 L 15 21.599609 C 14.663891 21.599609 14.400391 21.336109 14.400391 21 L 14.400391 17 C 14.400361 16.798965 14.500738 16.611574 14.667969 16.5 L 17.666016 14.5 A 0.40004001 0.40004001 0 0 0 17.667969 14.5 C 17.769255 14.432423 17.884627 14.398438 18 14.398438 z " />
</svg>
