<?xml version="1.0" encoding="UTF-8" standalone="no"?>
<svg
   width="24"
   height="24"
   viewBox="0 0 24 24"
   fill="none"
   stroke="currentColor"
   stroke-width="0.8"
   stroke-linecap="round"
   stroke-linejoin="round"
   version="1.1"
   id="svg5"
   sodipodi:docname=".tmp_map-pin-off.svg"
   xmlns:inkscape="http://www.inkscape.org/namespaces/inkscape"
   xmlns:sodipodi="http://sodipodi.sourceforge.net/DTD/sodipodi-0.dtd"
   xmlns="http://www.w3.org/2000/svg"
   xmlns:svg="http://www.w3.org/2000/svg">
  <defs
     id="defs5" />
  <sodipodi:namedview
     id="namedview5"
     pagecolor="#ffffff"
     bordercolor="#000000"
     borderopacity="0.25"
     inkscape:showpageshadow="2"
     inkscape:pageopacity="0.0"
     inkscape:pagecheckerboard="0"
     inkscape:deskcolor="#d1d1d1" />
  <path
     id="path1"
     style="baseline-shift:baseline;display:inline;overflow:visible;vector-effect:none;fill:#000000;stroke:none;stroke-linecap:butt;stroke-linejoin:miter;enable-background:accumulate;stop-color:#000000;stop-opacity:1;opacity:1"
     d="M 2 1.5996094 A 0.40000001 0.40000001 0 0 0 1.7167969 1.7167969 A 0.40000001 0.40000001 0 0 0 1.7167969 2.2832031 L 4.9160156 5.4824219 C 4.0570712 6.8297015 3.5994942 8.3976324 3.5996094 10 C 3.5996094 12.644414 5.039646 15.252157 6.6835938 17.412109 C 8.3275415 19.572062 10.193744 21.28736 11.136719 22.101562 A 0.40004001 0.40004001 0 0 0 11.158203 22.119141 C 11.655116 22.492797 12.344884 22.492797 12.841797 22.119141 A 0.40004001 0.40004001 0 0 0 12.863281 22.101562 C 13.767126 21.321231 15.51999 19.712391 17.111328 17.677734 L 21.716797 22.283203 A 0.40000001 0.40000001 0 0 0 22.283203 22.283203 A 0.40000001 0.40000001 0 0 0 22.283203 21.716797 L 13.142578 12.578125 L 9.421875 8.8574219 L 2.2832031 1.7167969 A 0.40000001 0.40000001 0 0 0 2 1.5996094 z M 11.484375 1.609375 C 10.421751 1.6738479 9.3426016 1.9466561 8.2988281 2.4589844 A 0.40000001 0.40000001 0 0 0 8.1152344 2.9941406 A 0.40000001 0.40000001 0 0 0 8.6503906 3.1777344 C 13.715109 0.69175537 19.599941 4.3580619 19.599609 10 C 19.599609 11.113121 19.30634 12.255819 18.822266 13.375 A 0.40000001 0.40000001 0 0 0 19.03125 13.900391 A 0.40000001 0.40000001 0 0 0 19.556641 13.691406 C 20.072566 12.498587 20.400391 11.252879 20.400391 10 C 20.400664 5.3490763 16.725454 1.8965557 12.539062 1.6132812 C 12.190196 1.589675 11.838583 1.587884 11.484375 1.609375 z M 5.4980469 6.0644531 L 8.6855469 9.2519531 C 8.1392197 11.658325 10.341675 13.860781 12.748047 13.314453 L 16.541016 17.107422 C 14.990956 19.104843 13.25115 20.70611 12.357422 21.478516 C 12.143924 21.636718 11.856076 21.636718 11.642578 21.478516 C 10.722007 20.682811 8.9045918 19.00929 7.3203125 16.927734 C 5.7297602 14.837937 4.4003906 12.348586 4.4003906 10 C 4.4002908 8.6093652 4.7812995 7.2489474 5.4980469 6.0644531 z M 12.746094 6.6914062 A 0.40000001 0.40000001 0 0 0 12.363281 6.9902344 A 0.40000001 0.40000001 0 0 0 12.650391 7.4765625 C 13.569833 7.7125493 14.287451 8.4301669 14.523438 9.3496094 A 0.40000001 0.40000001 0 0 0 15.009766 9.6367188 A 0.40000001 0.40000001 0 0 0 15.296875 9.1503906 C 14.988683 7.9496253 14.050375 7.0113169 12.849609 6.703125 A 0.40000001 0.40000001 0 0 0 12.746094 6.6914062 z M 9.3964844 9.9628906 L 12.037109 12.603516 C 10.570034 12.641168 9.3588328 11.429966 9.3964844 9.9628906 z " />
</svg>
