<?xml version="1.0" encoding="UTF-8" standalone="no"?>
<svg
   width="24"
   height="24"
   viewBox="0 0 24 24"
   fill="none"
   stroke="currentColor"
   stroke-width="0.8"
   stroke-linecap="round"
   stroke-linejoin="round"
   version="1.1"
   id="svg3"
   sodipodi:docname=".tmp_message-circle-question-mark.svg"
   xmlns:inkscape="http://www.inkscape.org/namespaces/inkscape"
   xmlns:sodipodi="http://sodipodi.sourceforge.net/DTD/sodipodi-0.dtd"
   xmlns="http://www.w3.org/2000/svg"
   xmlns:svg="http://www.w3.org/2000/svg">
  <defs
     id="defs3" />
  <sodipodi:namedview
     id="namedview3"
     pagecolor="#ffffff"
     bordercolor="#000000"
     borderopacity="0.25"
     inkscape:showpageshadow="2"
     inkscape:pageopacity="0.0"
     inkscape:pagecheckerboard="0"
     inkscape:deskcolor="#d1d1d1" />
  <path
     id="path1"
     style="baseline-shift:baseline;display:inline;overflow:visible;vector-effect:none;fill:#000000;stroke:none;stroke-linecap:butt;stroke-linejoin:miter;enable-background:accumulate;stop-color:#000000;stop-opacity:1;opacity:1"
     d="M 12.494141 1.5390625 C 10.140898 1.4465965 7.8328914 2.1991696 5.9550781 3.5390625 C 2.206566 6.2137719 0.1255416 11.268873 2.6230469 16.486328 A 0.40000001 0.40000001 0 0 0 2.6210938 16.490234 C 2.7380055 16.785151 2.7623376 17.107978 2.6953125 17.417969 L 1.640625 20.675781 A 0.40004001 0.40004001 0 0 0 1.6289062 20.71875 C 1.4227736 21.720984 2.3703954 22.615972 3.359375 22.353516 A 0.40004001 0.40004001 0 0 0 3.3691406 22.351562 L 6.7539062 21.361328 C 7.0462944 21.304458 7.3484058 21.329797 7.6269531 21.435547 C 12.875392 23.870951 17.906033 21.72289 20.535156 17.941406 C 23.168866 14.153326 23.428801 8.6756269 19.306641 4.6035156 C 17.24556 2.56746 14.847383 1.6315289 12.494141 1.5390625 z M 12.443359 2.3203125 C 14.606694 2.4008525 16.815351 3.2684571 18.744141 5.1738281 C 22.601719 8.9845701 22.32332 13.970514 19.878906 17.486328 C 17.434491 21.002142 12.8593 22.997689 7.9375 20.699219 A 0.40004001 0.40004001 0 0 0 7.9101562 20.6875 C 7.4896169 20.527839 7.0330282 20.488652 6.5917969 20.576172 A 0.40004001 0.40004001 0 0 0 6.5585938 20.585938 L 3.1542969 21.580078 C 2.7097775 21.698045 2.3264113 21.334333 2.4140625 20.884766 L 3.4667969 17.632812 A 0.40004001 0.40004001 0 0 0 3.4765625 17.595703 C 3.5794848 17.128139 3.5397145 16.640375 3.3632812 16.195312 A 0.40000001 0.40000001 0 0 0 3.3457031 16.1875 A 0.40000001 0.40000001 0 0 0 3.3515625 16.167969 C 0.99313792 11.2746 2.9342291 6.6766308 6.4199219 4.1894531 C 8.1627683 2.9458643 10.280024 2.2397727 12.443359 2.3203125 z M 11.931641 6.59375 C 10.60948 6.5832256 9.2572813 7.3196434 8.7128906 8.8671875 A 0.40000001 0.40000001 0 0 0 8.9570312 9.3769531 A 0.40000001 0.40000001 0 0 0 9.4667969 9.1328125 C 9.9654078 7.715407 11.204944 7.2355781 12.359375 7.4335938 C 13.513806 7.6316095 14.52177 8.4974535 14.519531 10 C 14.519531 10.8 13.896063 11.452104 13.197266 11.917969 C 12.498469 12.383833 11.792969 12.621094 11.792969 12.621094 A 0.40000001 0.40000001 0 0 0 11.541016 13.126953 A 0.40000001 0.40000001 0 0 0 12.046875 13.378906 C 12.046875 13.378906 12.841375 13.116167 13.642578 12.582031 C 14.443781 12.047896 15.320313 11.2 15.320312 10 C 15.323105 8.1251402 13.975775 6.8986709 12.494141 6.6445312 C 12.308936 6.6127638 12.120521 6.5952535 11.931641 6.59375 z M 12 16.599609 A 0.40000001 0.40000001 0 0 0 11.599609 17 A 0.40000001 0.40000001 0 0 0 12 17.400391 L 12.009766 17.400391 A 0.40000001 0.40000001 0 0 0 12.410156 17 A 0.40000001 0.40000001 0 0 0 12.009766 16.599609 L 12 16.599609 z " />
</svg>
