<?xml version="1.0" encoding="UTF-8" standalone="no"?>
<svg
   width="24"
   height="24"
   viewBox="0 0 24 24"
   fill="none"
   stroke="currentColor"
   stroke-width="0.8"
   stroke-linecap="round"
   stroke-linejoin="round"
   version="1.1"
   id="svg3"
   sodipodi:docname=".tmp_monitor-check.svg"
   xmlns:inkscape="http://www.inkscape.org/namespaces/inkscape"
   xmlns:sodipodi="http://sodipodi.sourceforge.net/DTD/sodipodi-0.dtd"
   xmlns="http://www.w3.org/2000/svg"
   xmlns:svg="http://www.w3.org/2000/svg">
  <defs
     id="defs3" />
  <sodipodi:namedview
     id="namedview3"
     pagecolor="#ffffff"
     bordercolor="#000000"
     borderopacity="0.25"
     inkscape:showpageshadow="2"
     inkscape:pageopacity="0.0"
     inkscape:pagecheckerboard="0"
     inkscape:deskcolor="#d1d1d1" />
  <path
     id="path1"
     style="baseline-shift:baseline;display:inline;overflow:visible;vector-effect:none;fill:#000000;stroke:none;stroke-linecap:butt;stroke-linejoin:miter;enable-background:accumulate;stop-color:#000000;stop-opacity:1;opacity:1"
     d="M 4 2.5996094 C 2.6773189 2.5996094 1.5996094 3.6773189 1.5996094 5 L 1.5996094 15 C 1.5996094 16.322681 2.6773189 17.400391 4 17.400391 L 11.599609 17.400391 L 11.599609 20.599609 L 8 20.599609 A 0.40000001 0.40000001 0 0 0 7.5996094 21 A 0.40000001 0.40000001 0 0 0 8 21.400391 L 12 21.400391 L 16 21.400391 A 0.40000001 0.40000001 0 0 0 16.400391 21 A 0.40000001 0.40000001 0 0 0 16 20.599609 L 12.400391 20.599609 L 12.400391 17.400391 L 20 17.400391 C 21.322681 17.400391 22.400391 16.322681 22.400391 15 L 22.400391 5 C 22.400391 3.6773189 21.322681 2.5996094 20 2.5996094 L 4 2.5996094 z M 4 3.4003906 L 20 3.4003906 C 20.893319 3.4003906 21.599609 4.1066811 21.599609 5 L 21.599609 15 C 21.599609 15.893319 20.893319 16.599609 20 16.599609 L 4 16.599609 C 3.1066811 16.599609 2.4003906 15.893319 2.4003906 15 L 2.4003906 5 C 2.4003906 4.1066811 3.1066811 3.4003906 4 3.4003906 z M 15 7.5996094 A 0.40000001 0.40000001 0 0 0 14.716797 7.7167969 L 11 11.433594 L 9.2832031 9.7167969 A 0.40000001 0.40000001 0 0 0 8.7167969 9.7167969 A 0.40000001 0.40000001 0 0 0 8.7167969 10.283203 L 10.716797 12.283203 A 0.40004001 0.40004001 0 0 0 11.283203 12.283203 L 15.283203 8.2832031 A 0.40000001 0.40000001 0 0 0 15.283203 7.7167969 A 0.40000001 0.40000001 0 0 0 15 7.5996094 z " />
</svg>
