<?xml version="1.0" encoding="UTF-8" standalone="no"?>
<svg
   width="24"
   height="24"
   viewBox="0 0 24 24"
   fill="none"
   stroke="currentColor"
   stroke-width="0.8"
   stroke-linecap="round"
   stroke-linejoin="round"
   version="1.1"
   id="svg3"
   sodipodi:docname=".tmp_paw-print.svg"
   xmlns:inkscape="http://www.inkscape.org/namespaces/inkscape"
   xmlns:sodipodi="http://sodipodi.sourceforge.net/DTD/sodipodi-0.dtd"
   xmlns="http://www.w3.org/2000/svg"
   xmlns:svg="http://www.w3.org/2000/svg">
  <defs
     id="defs3" />
  <sodipodi:namedview
     id="namedview3"
     pagecolor="#ffffff"
     bordercolor="#000000"
     borderopacity="0.25"
     inkscape:showpageshadow="2"
     inkscape:pageopacity="0.0"
     inkscape:pagecheckerboard="0"
     inkscape:deskcolor="#d1d1d1" />
  <path
     id="circle1"
     style="baseline-shift:baseline;display:inline;overflow:visible;vector-effect:none;fill:#000000;stroke:none;stroke-linecap:butt;stroke-linejoin:miter;enable-background:accumulate;stop-color:#000000;stop-opacity:1;opacity:1"
     d="M 11 1.5996094 C 9.6792545 1.5996094 8.5996094 2.6792545 8.5996094 4 C 8.5996094 5.3207455 9.6792545 6.4003906 11 6.4003906 C 12.320746 6.4003906 13.400391 5.3207455 13.400391 4 C 13.400391 2.6792545 12.320746 1.5996094 11 1.5996094 z M 11 2.4003906 C 11.888393 2.4003906 12.599609 3.1116065 12.599609 4 C 12.599609 4.8883935 11.888393 5.5996094 11 5.5996094 C 10.111607 5.5996094 9.4003906 4.8883935 9.4003906 4 C 9.4003906 3.1116065 10.111607 2.4003906 11 2.4003906 z M 18 5.5996094 C 16.679254 5.5996094 15.599609 6.6792545 15.599609 8 C 15.599609 9.3207455 16.679254 10.400391 18 10.400391 C 19.320746 10.400391 20.400391 9.3207455 20.400391 8 C 20.400391 6.6792545 19.320746 5.5996094 18 5.5996094 z M 18 6.4003906 C 18.888393 6.4003906 19.599609 7.1116065 19.599609 8 C 19.599609 8.8883935 18.888393 9.5996094 18 9.5996094 C 17.111607 9.5996094 16.400391 8.8883935 16.400391 8 C 16.400391 7.1116065 17.111607 6.4003906 18 6.4003906 z M 5.5 9.5996094 C 3.3105163 9.6034394 1.9126527 11.189185 1.6503906 12.914062 C 1.3881286 14.638939 2.2504442 16.568238 4.3398438 17.222656 A 0.40004001 0.40004001 0 0 0 4.3417969 17.222656 C 5.6099351 17.616641 6.3831431 18.392149 6.7773438 19.664062 C 7.4322218 21.754894 9.3643266 22.617136 11.089844 22.353516 C 12.815364 22.089895 14.39968 20.690991 14.400391 18.5 L 14.400391 15 C 14.400391 12.0224 11.9776 9.5996094 9 9.5996094 L 5.5 9.5996094 z M 5.5 10.400391 L 9 10.400391 C 11.545248 10.400391 13.599609 12.454752 13.599609 15 L 13.599609 18.5 C 13.599021 20.315546 12.363524 21.34941 10.96875 21.5625 C 9.573976 21.77559 8.0836745 21.158331 7.5410156 19.425781 L 7.5429688 19.425781 C 7.0840178 17.944937 6.0576804 16.918596 4.5800781 16.458984 L 4.578125 16.458984 C 2.8482236 15.916286 2.2294934 14.426938 2.4414062 13.033203 C 2.653391 11.638995 3.6858279 10.403562 5.5 10.400391 z M 20 13.599609 C 18.679254 13.599609 17.599609 14.679254 17.599609 16 C 17.599609 17.320746 18.679254 18.400391 20 18.400391 C 21.320746 18.400391 22.400391 17.320746 22.400391 16 C 22.400391 14.679254 21.320746 13.599609 20 13.599609 z M 20 14.400391 C 20.888393 14.400391 21.599609 15.111607 21.599609 16 C 21.599609 16.888393 20.888393 17.599609 20 17.599609 C 19.111607 17.599609 18.400391 16.888393 18.400391 16 C 18.400391 15.111607 19.111607 14.400391 20 14.400391 z " />
</svg>
