<?xml version="1.0" encoding="UTF-8" standalone="no"?>
<svg
   width="24"
   height="24"
   viewBox="0 0 24 24"
   fill="none"
   stroke="currentColor"
   stroke-width="0.8"
   stroke-linecap="round"
   stroke-linejoin="round"
   version="1.1"
   id="svg2"
   sodipodi:docname=".tmp_printer.svg"
   xmlns:inkscape="http://www.inkscape.org/namespaces/inkscape"
   xmlns:sodipodi="http://sodipodi.sourceforge.net/DTD/sodipodi-0.dtd"
   xmlns="http://www.w3.org/2000/svg"
   xmlns:svg="http://www.w3.org/2000/svg">
  <defs
     id="defs2" />
  <sodipodi:namedview
     id="namedview2"
     pagecolor="#ffffff"
     bordercolor="#000000"
     borderopacity="0.25"
     inkscape:showpageshadow="2"
     inkscape:pageopacity="0.0"
     inkscape:pagecheckerboard="0"
     inkscape:deskcolor="#d1d1d1" />
  <path
     id="path1"
     style="baseline-shift:baseline;display:inline;overflow:visible;vector-effect:none;fill:#000000;stroke:none;stroke-linecap:butt;stroke-linejoin:miter;enable-background:accumulate;stop-color:#000000;stop-opacity:1;opacity:1"
     d="M 7 1.5996094 C 6.2315392 1.5996094 5.5996094 2.2315392 5.5996094 3 L 5.5996094 8.5996094 L 4 8.5996094 C 2.6792545 8.5996094 1.5996094 9.6792545 1.5996094 11 L 1.5996094 16 C 1.5996094 17.320746 2.6792545 18.400391 4 18.400391 L 5.5996094 18.400391 L 5.5996094 21 C 5.5996094 21.768681 6.2313189 22.400391 7 22.400391 L 17 22.400391 C 17.768681 22.400391 18.400391 21.768681 18.400391 21 L 18.400391 18.400391 L 20 18.400391 C 21.320746 18.400391 22.400391 17.320746 22.400391 16 L 22.400391 11 C 22.400391 9.6792545 21.320746 8.5996094 20 8.5996094 L 18.400391 8.5996094 L 18.400391 3 C 18.400391 2.2315392 17.768461 1.5996094 17 1.5996094 L 7 1.5996094 z M 7 2.4003906 L 17 2.4003906 C 17.336109 2.4003906 17.599609 2.6638913 17.599609 3 L 17.599609 8.5996094 L 6.4003906 8.5996094 L 6.4003906 3 C 6.4003906 2.6638913 6.6638913 2.4003906 7 2.4003906 z M 4 9.4003906 L 20 9.4003906 C 20.888393 9.4003906 21.599609 10.111607 21.599609 11 L 21.599609 16 C 21.599609 16.888393 20.888393 17.599609 20 17.599609 L 18.400391 17.599609 L 18.400391 15 C 18.400391 14.231319 17.768681 13.599609 17 13.599609 L 7 13.599609 C 6.2313189 13.599609 5.5996094 14.231319 5.5996094 15 L 5.5996094 17.599609 L 4 17.599609 C 3.1116065 17.599609 2.4003906 16.888393 2.4003906 16 L 2.4003906 11 C 2.4003906 10.111607 3.1116065 9.4003906 4 9.4003906 z M 7 14.400391 L 17 14.400391 C 17.339319 14.400391 17.599609 14.660681 17.599609 15 L 17.599609 18 L 17.599609 21 C 17.599609 21.339319 17.339319 21.599609 17 21.599609 L 7 21.599609 C 6.6606811 21.599609 6.4003906 21.339319 6.4003906 21 L 6.4003906 18 L 6.4003906 15 C 6.4003906 14.660681 6.6606811 14.400391 7 14.400391 z " />
</svg>
