<?xml version="1.0" encoding="UTF-8" standalone="no"?>
<svg
   width="24"
   height="24"
   viewBox="0 0 24 24"
   fill="none"
   stroke="currentColor"
   stroke-width="0.8"
   stroke-linecap="round"
   stroke-linejoin="round"
   version="1.1"
   id="svg3"
   sodipodi:docname=".tmp_sailboat.svg"
   xmlns:inkscape="http://www.inkscape.org/namespaces/inkscape"
   xmlns:sodipodi="http://sodipodi.sourceforge.net/DTD/sodipodi-0.dtd"
   xmlns="http://www.w3.org/2000/svg"
   xmlns:svg="http://www.w3.org/2000/svg">
  <defs
     id="defs3" />
  <sodipodi:namedview
     id="namedview3"
     pagecolor="#ffffff"
     bordercolor="#000000"
     borderopacity="0.25"
     inkscape:showpageshadow="2"
     inkscape:pageopacity="0.0"
     inkscape:pagecheckerboard="0"
     inkscape:deskcolor="#d1d1d1" />
  <path
     id="path1"
     style="baseline-shift:baseline;display:inline;overflow:visible;vector-effect:none;fill:#000000;stroke:none;stroke-linecap:butt;stroke-linejoin:miter;enable-background:accumulate;stop-color:#000000;stop-opacity:1;opacity:1"
     d="M 10 1.5996094 A 0.40000001 0.40000001 0 0 0 9.9296875 1.6054688 C 9.8944798 1.6073197 9.8591863 1.6107973 9.8242188 1.6152344 C 9.429377 1.6653359 9.0556209 1.8809174 8.8222656 2.2441406 L 2.8457031 11.207031 L 2.8457031 11.208984 C 2.2214953 12.118831 2.895996 13.400702 4 13.400391 L 9.5996094 13.400391 L 9.5996094 16.599609 L 4 16.599609 C 3.2315392 16.599609 2.5996094 17.231539 2.5996094 18 C 2.5996094 20.425315 4.574685 22.400391 7 22.400391 L 17 22.400391 C 19.425315 22.400391 21.400391 20.425315 21.400391 18 C 21.400391 17.231539 20.768461 16.599609 20 16.599609 L 10.400391 16.599609 L 10.400391 13.400391 L 20 13.400391 C 20.626837 13.399751 21.122531 12.993848 21.310547 12.492188 C 21.498563 11.990526 21.391927 11.357784 20.919922 10.945312 L 10.951172 1.9726562 C 10.698959 1.7389595 10.383609 1.6193071 10.066406 1.6054688 A 0.40000001 0.40000001 0 0 0 10 1.5996094 z M 9.5996094 2.5527344 L 9.5996094 12.599609 L 4 12.599609 C 3.4936165 12.599752 3.2187399 12.077273 3.5058594 11.660156 A 0.40004001 0.40004001 0 0 0 3.5097656 11.654297 L 9.4921875 2.6816406 A 0.40004001 0.40004001 0 0 0 9.4960938 2.6757812 C 9.5262686 2.6288127 9.5611591 2.5881069 9.5996094 2.5527344 z M 10.400391 2.5527344 C 10.403007 2.555082 10.405612 2.5581456 10.408203 2.5605469 A 0.40004001 0.40004001 0 0 0 10.412109 2.5644531 L 20.388672 11.544922 A 0.40004001 0.40004001 0 0 0 20.394531 11.548828 C 20.617677 11.743827 20.644025 11.988202 20.560547 12.210938 C 20.477034 12.433675 20.296342 12.599307 20 12.599609 L 10.400391 12.599609 L 10.400391 2.5527344 z M 4 17.400391 L 20 17.400391 C 20.336109 17.400391 20.599609 17.663891 20.599609 18 C 20.599609 19.992963 18.992963 21.599609 17 21.599609 L 7 21.599609 C 5.0070371 21.599609 3.4003906 19.992963 3.4003906 18 C 3.4003906 17.663891 3.6638913 17.400391 4 17.400391 z " />
</svg>
