<?xml version="1.0" encoding="UTF-8" standalone="no"?>
<svg
   width="24"
   height="24"
   viewBox="0 0 24 24"
   fill="none"
   stroke="currentColor"
   stroke-width="0.8"
   stroke-linecap="round"
   stroke-linejoin="round"
   version="1.1"
   id="svg6"
   sodipodi:docname=".tmp_server-off.svg"
   xmlns:inkscape="http://www.inkscape.org/namespaces/inkscape"
   xmlns:sodipodi="http://sodipodi.sourceforge.net/DTD/sodipodi-0.dtd"
   xmlns="http://www.w3.org/2000/svg"
   xmlns:svg="http://www.w3.org/2000/svg">
  <defs
     id="defs6" />
  <sodipodi:namedview
     id="namedview6"
     pagecolor="#ffffff"
     bordercolor="#000000"
     borderopacity="0.25"
     inkscape:showpageshadow="2"
     inkscape:pageopacity="0.0"
     inkscape:pagecheckerboard="0"
     inkscape:deskcolor="#d1d1d1" />
  <path
     id="path1"
     style="baseline-shift:baseline;display:inline;overflow:visible;vector-effect:none;fill:#000000;stroke:none;stroke-linecap:butt;stroke-linejoin:miter;enable-background:accumulate;stop-color:#000000;stop-opacity:1;opacity:1"
     d="M 2 1.5996094 A 0.40000001 0.40000001 0 0 0 1.7167969 1.7167969 A 0.40000001 0.40000001 0 0 0 1.7167969 2.2832031 L 1.734375 2.3007812 C 1.7007487 2.3857814 1.6831685 2.4673952 1.6679688 2.5585938 C 1.5912505 3.0189034 1.5996094 3.75 1.5996094 5 L 1.5996094 8 C 1.5996094 9.3207455 2.6792545 10.400391 4 10.400391 L 9.8339844 10.400391 L 13.033203 13.599609 L 4 13.599609 C 2.6792545 13.599609 1.5996094 14.679254 1.5996094 16 L 1.5996094 20 C 1.5996094 21.320746 2.6792545 22.400391 4 22.400391 L 20.5 22.400391 A 0.40004001 0.40004001 0 0 0 20.679688 22.357422 L 21.419922 21.986328 L 21.716797 22.283203 A 0.40000001 0.40000001 0 0 0 22.283203 22.283203 A 0.40000001 0.40000001 0 0 0 22.283203 21.716797 L 21.783203 21.216797 L 14.283203 13.716797 L 10.285156 9.71875 A 0.40004001 0.40004001 0 0 0 10.283203 9.7167969 L 2.7832031 2.2167969 L 2.2832031 1.7167969 A 0.40000001 0.40000001 0 0 0 2 1.5996094 z M 7 1.5996094 A 0.40000001 0.40000001 0 0 0 6.5996094 2 A 0.40000001 0.40000001 0 0 0 7 2.4003906 L 20 2.4003906 C 20.888393 2.4003906 21.599609 3.1116065 21.599609 4 L 21.599609 8 C 21.599609 8.8883935 20.888393 9.5996094 20 9.5996094 L 15 9.5996094 A 0.40000001 0.40000001 0 0 0 14.599609 10 A 0.40000001 0.40000001 0 0 0 15 10.400391 L 20 10.400391 C 21.320746 10.400391 22.400391 9.3207455 22.400391 8 L 22.400391 4 C 22.400391 2.6792545 21.320746 1.5996094 20 1.5996094 L 7 1.5996094 z M 2.4492188 3.015625 L 9.0332031 9.5996094 L 4 9.5996094 C 3.1116065 9.5996094 2.4003906 8.8883935 2.4003906 8 L 2.4003906 5 C 2.4003906 3.925548 2.4167346 3.3804946 2.4492188 3.015625 z M 19 13.599609 A 0.40000001 0.40000001 0 0 0 18.599609 14 A 0.40000001 0.40000001 0 0 0 19 14.400391 L 20 14.400391 C 20.888393 14.400391 21.599609 15.111607 21.599609 16 L 21.599609 17 A 0.40000001 0.40000001 0 0 0 22 17.400391 A 0.40000001 0.40000001 0 0 0 22.400391 17 L 22.400391 16 C 22.400391 14.679254 21.320746 13.599609 20 13.599609 L 19 13.599609 z M 4 14.400391 L 13.833984 14.400391 L 20.824219 21.390625 L 20.40625 21.599609 L 4 21.599609 C 3.1116065 21.599609 2.4003906 20.888393 2.4003906 20 L 2.4003906 16 C 2.4003906 15.111607 3.1116065 14.400391 4 14.400391 z M 6 17.599609 A 0.40000001 0.40000001 0 0 0 5.5996094 18 A 0.40000001 0.40000001 0 0 0 6 18.400391 L 6.0097656 18.400391 A 0.40000001 0.40000001 0 0 0 6.4101562 18 A 0.40000001 0.40000001 0 0 0 6.0097656 17.599609 L 6 17.599609 z " />
</svg>
