<?xml version="1.0" encoding="UTF-8" standalone="no"?>
<svg
   width="24"
   height="24"
   viewBox="0 0 24 24"
   fill="none"
   stroke="currentColor"
   stroke-width="0.8"
   stroke-linecap="round"
   stroke-linejoin="round"
   version="1.1"
   id="svg3"
   sodipodi:docname=".tmp_shopping-bag.svg"
   xmlns:inkscape="http://www.inkscape.org/namespaces/inkscape"
   xmlns:sodipodi="http://sodipodi.sourceforge.net/DTD/sodipodi-0.dtd"
   xmlns="http://www.w3.org/2000/svg"
   xmlns:svg="http://www.w3.org/2000/svg">
  <defs
     id="defs3" />
  <sodipodi:namedview
     id="namedview3"
     pagecolor="#ffffff"
     bordercolor="#000000"
     borderopacity="0.25"
     inkscape:showpageshadow="2"
     inkscape:pageopacity="0.0"
     inkscape:pagecheckerboard="0"
     inkscape:deskcolor="#d1d1d1" />
  <path
     id="path1"
     style="baseline-shift:baseline;display:inline;overflow:visible;vector-effect:none;fill:#000000;stroke:none;stroke-linecap:butt;stroke-linejoin:miter;enable-background:accumulate;stop-color:#000000;stop-opacity:1;opacity:1"
     d="M 7 1.5996094 C 6.2449333 1.5996094 5.5331182 1.9564935 5.0800781 2.5605469 L 3.0800781 5.2265625 C 2.9303295 5.4262273 2.8153016 5.6477265 2.734375 5.8808594 C 2.7286918 5.8972315 2.7221252 5.9131966 2.7167969 5.9296875 C 2.6401503 6.1669035 2.5996094 6.4158455 2.5996094 6.6679688 L 2.5996094 20 C 2.5996094 21.320746 3.6792545 22.400391 5 22.400391 L 19 22.400391 C 20.320746 22.400391 21.400391 21.320746 21.400391 20 L 21.400391 6.6679688 C 21.400391 6.4158455 21.35985 6.1669035 21.283203 5.9296875 C 21.277875 5.9131966 21.271308 5.8972315 21.265625 5.8808594 C 21.184698 5.6477265 21.069671 5.4262273 20.919922 5.2265625 L 18.919922 2.5605469 C 18.466882 1.9564935 17.755067 1.5996094 17 1.5996094 L 7 1.5996094 z M 7 2.4003906 L 17 2.4003906 C 17.503962 2.4003906 17.976919 2.6358925 18.279297 3.0390625 L 20.224609 5.6347656 L 3.7753906 5.6347656 L 5.7207031 3.0390625 C 6.0230806 2.6358925 6.4960375 2.4003906 7 2.4003906 z M 3.4179688 6.4335938 L 20.582031 6.4335938 C 20.593479 6.5108665 20.599609 6.5891961 20.599609 6.6679688 L 20.599609 20 C 20.599609 20.888393 19.888393 21.599609 19 21.599609 L 5 21.599609 C 4.1116065 21.599609 3.4003906 20.888393 3.4003906 20 L 3.4003906 6.6679688 C 3.4003906 6.5891961 3.4065214 6.5108665 3.4179688 6.4335938 z M 8 9.5996094 A 0.40000001 0.40000001 0 0 0 7.5996094 10 C 7.5996094 11.433333 8.1519022 12.558853 8.984375 13.298828 C 9.8168478 14.038804 10.911111 14.400391 12 14.400391 C 13.088889 14.400391 14.183152 14.038804 15.015625 13.298828 C 15.848098 12.558853 16.400391 11.433333 16.400391 10 A 0.40000001 0.40000001 0 0 0 16 9.5996094 A 0.40000001 0.40000001 0 0 0 15.599609 10 C 15.599609 11.233333 15.151902 12.107815 14.484375 12.701172 C 13.816848 13.294529 12.911111 13.599609 12 13.599609 C 11.088889 13.599609 10.183152 13.294529 9.515625 12.701172 C 8.8480978 12.107815 8.4003906 11.233333 8.4003906 10 A 0.40000001 0.40000001 0 0 0 8 9.5996094 z " />
</svg>
