<?xml version="1.0" encoding="UTF-8" standalone="no"?>
<svg
   width="24"
   height="24"
   viewBox="0 0 24 24"
   fill="none"
   stroke="currentColor"
   stroke-width="0.8"
   stroke-linecap="round"
   stroke-linejoin="round"
   version="1.1"
   id="svg2"
   sodipodi:docname=".tmp_square-stop.svg"
   xmlns:inkscape="http://www.inkscape.org/namespaces/inkscape"
   xmlns:sodipodi="http://sodipodi.sourceforge.net/DTD/sodipodi-0.dtd"
   xmlns="http://www.w3.org/2000/svg"
   xmlns:svg="http://www.w3.org/2000/svg">
  <defs
     id="defs2" />
  <sodipodi:namedview
     id="namedview2"
     pagecolor="#ffffff"
     bordercolor="#000000"
     borderopacity="0.25"
     inkscape:showpageshadow="2"
     inkscape:pageopacity="0.0"
     inkscape:pagecheckerboard="0"
     inkscape:deskcolor="#d1d1d1" />
  <path
     id="rect1"
     style="baseline-shift:baseline;display:inline;overflow:visible;vector-effect:none;fill:#000000;stroke:none;stroke-linecap:butt;stroke-linejoin:miter;enable-background:accumulate;stop-color:#000000;stop-opacity:1;opacity:1"
     d="M 5 2.5996094 C 3.6773189 2.5996094 2.5996094 3.6773189 2.5996094 5 L 2.5996094 19 C 2.5996094 20.322681 3.6773189 21.400391 5 21.400391 L 19 21.400391 C 20.322681 21.400391 21.400391 20.322681 21.400391 19 L 21.400391 5 C 21.400391 3.6773189 20.322681 2.5996094 19 2.5996094 L 5 2.5996094 z M 5 3.4003906 L 19 3.4003906 C 19.893319 3.4003906 20.599609 4.1066811 20.599609 5 L 20.599609 19 C 20.599609 19.893319 19.893319 20.599609 19 20.599609 L 5 20.599609 C 4.1066811 20.599609 3.4003906 19.893319 3.4003906 19 L 3.4003906 5 C 3.4003906 4.1066811 4.1066811 3.4003906 5 3.4003906 z M 10 8.5996094 C 9.2313189 8.5996094 8.5996094 9.2313189 8.5996094 10 L 8.5996094 14 C 8.5996094 14.768681 9.2313189 15.400391 10 15.400391 L 14 15.400391 C 14.768681 15.400391 15.400391 14.768681 15.400391 14 L 15.400391 10 C 15.400391 9.2313189 14.768681 8.5996094 14 8.5996094 L 10 8.5996094 z M 10 9.4003906 L 14 9.4003906 C 14.339319 9.4003906 14.599609 9.6606811 14.599609 10 L 14.599609 14 C 14.599609 14.339319 14.339319 14.599609 14 14.599609 L 10 14.599609 C 9.6606811 14.599609 9.4003906 14.339319 9.4003906 14 L 9.4003906 10 C 9.4003906 9.6606811 9.6606811 9.4003906 10 9.4003906 z " />
</svg>
