<?xml version="1.0" encoding="UTF-8" standalone="no"?>
<svg
   width="24"
   height="24"
   viewBox="0 0 24 24"
   fill="none"
   stroke="currentColor"
   stroke-width="0.8"
   stroke-linecap="round"
   stroke-linejoin="round"
   version="1.1"
   id="svg1"
   sodipodi:docname=".tmp_square-m.svg"
   xmlns:inkscape="http://www.inkscape.org/namespaces/inkscape"
   xmlns:sodipodi="http://sodipodi.sourceforge.net/DTD/sodipodi-0.dtd"
   xmlns="http://www.w3.org/2000/svg"
   xmlns:svg="http://www.w3.org/2000/svg">
  <defs
     id="defs1" />
  <sodipodi:namedview
     id="namedview1"
     pagecolor="#ffffff"
     bordercolor="#000000"
     borderopacity="0.25"
     inkscape:showpageshadow="2"
     inkscape:pageopacity="0.0"
     inkscape:pagecheckerboard="0"
     inkscape:deskcolor="#d1d1d1" />
  <path
     id="path1"
     style="baseline-shift:baseline;display:inline;overflow:visible;vector-effect:none;fill:#000000;stroke:none;stroke-linecap:butt;stroke-linejoin:miter;enable-background:accumulate;stop-color:#000000;stop-opacity:1;opacity:1"
     d="M 5 2.5996094 C 3.6773189 2.5996094 2.5996094 3.6773189 2.5996094 5 L 2.5996094 19 C 2.5996094 20.322681 3.6773189 21.400391 5 21.400391 L 19 21.400391 C 20.322681 21.400391 21.400391 20.322681 21.400391 19 L 21.400391 5 C 21.400391 3.6773189 20.322681 2.5996094 19 2.5996094 L 5 2.5996094 z M 5 3.4003906 L 19 3.4003906 C 19.893319 3.4003906 20.599609 4.1066811 20.599609 5 L 20.599609 19 C 20.599609 19.893319 19.893319 20.599609 19 20.599609 L 5 20.599609 C 4.1066811 20.599609 3.4003906 19.893319 3.4003906 19 L 3.4003906 5 C 3.4003906 4.1066811 4.1066811 3.4003906 5 3.4003906 z M 15.521484 7.6015625 C 15.249314 7.597487 14.963792 7.7129905 14.779297 7.9589844 L 12.080078 11.558594 C 12.033678 11.620464 11.966322 11.620464 11.919922 11.558594 L 9.2207031 7.9609375 C 8.9747093 7.6329457 8.5485485 7.5352494 8.2148438 7.6464844 C 7.8811388 7.7577193 7.5996094 8.0900103 7.5996094 8.5 L 7.5996094 16 A 0.40000001 0.40000001 0 0 0 8 16.400391 A 0.40000001 0.40000001 0 0 0 8.4003906 16 L 8.4003906 8.5 C 8.4003906 8.429484 8.424531 8.4190369 8.46875 8.4042969 C 8.512969 8.3895569 8.537768 8.3830401 8.5800781 8.4394531 L 11.279297 12.039062 C 11.632897 12.510528 12.367103 12.510528 12.720703 12.039062 L 15.419922 8.4394531 C 15.462232 8.3830401 15.487032 8.3895569 15.53125 8.4042969 C 15.57547 8.4190369 15.599609 8.4275309 15.599609 8.4980469 L 15.599609 16 A 0.40000001 0.40000001 0 0 0 16 16.400391 A 0.40000001 0.40000001 0 0 0 16.400391 16 L 16.400391 8.4980469 C 16.400391 8.0880571 16.118861 7.7557663 15.785156 7.6445312 C 15.70173 7.6167225 15.612208 7.602921 15.521484 7.6015625 z " />
</svg>
