<?xml version="1.0" encoding="UTF-8" standalone="no"?>
<svg
   width="24"
   height="24"
   viewBox="0 0 24 24"
   fill="none"
   stroke="currentColor"
   stroke-width="0.8"
   stroke-linecap="round"
   stroke-linejoin="round"
   version="1.1"
   id="svg5"
   sodipodi:docname=".tmp_sticker.svg"
   xmlns:inkscape="http://www.inkscape.org/namespaces/inkscape"
   xmlns:sodipodi="http://sodipodi.sourceforge.net/DTD/sodipodi-0.dtd"
   xmlns="http://www.w3.org/2000/svg"
   xmlns:svg="http://www.w3.org/2000/svg">
  <defs
     id="defs5" />
  <sodipodi:namedview
     id="namedview5"
     pagecolor="#ffffff"
     bordercolor="#000000"
     borderopacity="0.25"
     inkscape:showpageshadow="2"
     inkscape:pageopacity="0.0"
     inkscape:pagecheckerboard="0"
     inkscape:deskcolor="#d1d1d1" />
  <path
     id="path1"
     style="baseline-shift:baseline;display:inline;overflow:visible;vector-effect:none;fill:#000000;stroke:none;stroke-linecap:butt;stroke-linejoin:miter;enable-background:accumulate;stop-color:#000000;stop-opacity:1;opacity:1"
     d="M 5 2.5996094 C 3.6792545 2.5996094 2.5996094 3.6792545 2.5996094 5 L 2.5996094 19 C 2.5996094 20.318182 3.6818182 21.400391 5 21.400391 L 19 21.400391 C 20.320746 21.400391 21.400391 20.320746 21.400391 19 L 21.400391 8.5 A 0.40004001 0.40004001 0 0 0 21.283203 8.2167969 L 15.783203 2.7167969 A 0.40004001 0.40004001 0 0 0 15.5 2.5996094 L 5 2.5996094 z M 5 3.4003906 L 13.599609 3.4003906 L 13.599609 7 C 13.599609 8.3207455 14.679254 9.4003906 16 9.4003906 L 20 9.4003906 A 0.40000001 0.40000001 0 0 0 20.400391 9 A 0.40000001 0.40000001 0 0 0 20 8.5996094 L 16 8.5996094 C 15.111607 8.5996094 14.400391 7.8883935 14.400391 7 L 14.400391 3.4003906 L 15.333984 3.4003906 L 20.599609 8.6660156 L 20.599609 19 C 20.599609 19.888393 19.888393 20.599609 19 20.599609 L 5 20.599609 C 4.1181818 20.599609 3.4003906 19.881818 3.4003906 19 L 3.4003906 5 C 3.4003906 4.1116065 4.1116065 3.4003906 5 3.4003906 z M 8 12.599609 A 0.40000001 0.40000001 0 0 0 7.5996094 13 A 0.40000001 0.40000001 0 0 0 8 13.400391 L 8.0097656 13.400391 A 0.40000001 0.40000001 0 0 0 8.4101562 13 A 0.40000001 0.40000001 0 0 0 8.0097656 12.599609 L 8 12.599609 z M 16 12.599609 A 0.40000001 0.40000001 0 0 0 15.599609 13 A 0.40000001 0.40000001 0 0 0 16 13.400391 L 16.009766 13.400391 A 0.40000001 0.40000001 0 0 0 16.410156 13 A 0.40000001 0.40000001 0 0 0 16.009766 12.599609 L 16 12.599609 z M 9.9921875 15.599609 A 0.40000001 0.40000001 0 0 0 9.75 15.6875 A 0.40000001 0.40000001 0 0 0 9.6875 16.25 C 9.6875 16.25 10.577778 17.400391 12 17.400391 C 13.505128 17.400391 14.328125 16.228516 14.328125 16.228516 A 0.40000001 0.40000001 0 0 0 14.228516 15.671875 A 0.40000001 0.40000001 0 0 0 13.671875 15.771484 C 13.671875 15.771484 13.094872 16.599609 12 16.599609 C 11.022222 16.599609 10.3125 15.75 10.3125 15.75 A 0.40000001 0.40000001 0 0 0 9.9921875 15.599609 z " />
</svg>
