<?xml version="1.0" encoding="UTF-8" standalone="no"?>
<svg
   width="24"
   height="24"
   viewBox="0 0 24 24"
   fill="none"
   stroke="currentColor"
   stroke-width="0.8"
   stroke-linecap="round"
   stroke-linejoin="round"
   version="1.1"
   id="svg8"
   sodipodi:docname=".tmp_sun.svg"
   xmlns:inkscape="http://www.inkscape.org/namespaces/inkscape"
   xmlns:sodipodi="http://sodipodi.sourceforge.net/DTD/sodipodi-0.dtd"
   xmlns="http://www.w3.org/2000/svg"
   xmlns:svg="http://www.w3.org/2000/svg">
  <defs
     id="defs8" />
  <sodipodi:namedview
     id="namedview8"
     pagecolor="#ffffff"
     bordercolor="#000000"
     borderopacity="0.25"
     inkscape:showpageshadow="2"
     inkscape:pageopacity="0.0"
     inkscape:pagecheckerboard="0"
     inkscape:deskcolor="#d1d1d1" />
  <path
     id="circle1"
     style="baseline-shift:baseline;display:inline;overflow:visible;vector-effect:none;fill:#000000;stroke:none;stroke-linecap:butt;stroke-linejoin:miter;enable-background:accumulate;stop-color:#000000;stop-opacity:1;opacity:1"
     d="M 12 1.5996094 A 0.40000001 0.40000001 0 0 0 11.599609 2 L 11.599609 4 A 0.40000001 0.40000001 0 0 0 12 4.4003906 A 0.40000001 0.40000001 0 0 0 12.400391 4 L 12.400391 2 A 0.40000001 0.40000001 0 0 0 12 1.5996094 z M 4.9296875 4.5292969 A 0.40000001 0.40000001 0 0 0 4.6464844 4.6464844 A 0.40000001 0.40000001 0 0 0 4.6464844 5.2128906 L 6.0566406 6.6230469 A 0.40000001 0.40000001 0 0 0 6.6230469 6.6230469 A 0.40000001 0.40000001 0 0 0 6.6230469 6.0566406 L 5.2128906 4.6464844 A 0.40000001 0.40000001 0 0 0 4.9296875 4.5292969 z M 19.070312 4.5292969 A 0.40000001 0.40000001 0 0 0 18.787109 4.6464844 L 17.376953 6.0566406 A 0.40000001 0.40000001 0 0 0 17.376953 6.6230469 A 0.40000001 0.40000001 0 0 0 17.943359 6.6230469 L 19.353516 5.2128906 A 0.40000001 0.40000001 0 0 0 19.353516 4.6464844 A 0.40000001 0.40000001 0 0 0 19.070312 4.5292969 z M 12 7.5996094 C 9.574685 7.5996094 7.5996094 9.574685 7.5996094 12 C 7.5996094 14.425315 9.574685 16.400391 12 16.400391 C 14.425315 16.400391 16.400391 14.425315 16.400391 12 C 16.400391 9.574685 14.425315 7.5996094 12 7.5996094 z M 12 8.4003906 C 13.992963 8.4003906 15.599609 10.007037 15.599609 12 C 15.599609 13.992963 13.992963 15.599609 12 15.599609 C 10.007037 15.599609 8.4003906 13.992963 8.4003906 12 C 8.4003906 10.007037 10.007037 8.4003906 12 8.4003906 z M 2 11.599609 A 0.40000001 0.40000001 0 0 0 1.5996094 12 A 0.40000001 0.40000001 0 0 0 2 12.400391 L 4 12.400391 A 0.40000001 0.40000001 0 0 0 4.4003906 12 A 0.40000001 0.40000001 0 0 0 4 11.599609 L 2 11.599609 z M 20 11.599609 A 0.40000001 0.40000001 0 0 0 19.599609 12 A 0.40000001 0.40000001 0 0 0 20 12.400391 L 22 12.400391 A 0.40000001 0.40000001 0 0 0 22.400391 12 A 0.40000001 0.40000001 0 0 0 22 11.599609 L 20 11.599609 z M 6.3398438 17.259766 A 0.40000001 0.40000001 0 0 0 6.0566406 17.376953 L 4.6464844 18.787109 A 0.40000001 0.40000001 0 0 0 4.6464844 19.353516 A 0.40000001 0.40000001 0 0 0 5.2128906 19.353516 L 6.6230469 17.943359 A 0.40000001 0.40000001 0 0 0 6.6230469 17.376953 A 0.40000001 0.40000001 0 0 0 6.3398438 17.259766 z M 17.660156 17.259766 A 0.40000001 0.40000001 0 0 0 17.376953 17.376953 A 0.40000001 0.40000001 0 0 0 17.376953 17.943359 L 18.787109 19.353516 A 0.40000001 0.40000001 0 0 0 19.353516 19.353516 A 0.40000001 0.40000001 0 0 0 19.353516 18.787109 L 17.943359 17.376953 A 0.40000001 0.40000001 0 0 0 17.660156 17.259766 z M 12 19.599609 A 0.40000001 0.40000001 0 0 0 11.599609 20 L 11.599609 22 A 0.40000001 0.40000001 0 0 0 12 22.400391 A 0.40000001 0.40000001 0 0 0 12.400391 22 L 12.400391 20 A 0.40000001 0.40000001 0 0 0 12 19.599609 z " />
</svg>
