<?xml version="1.0" encoding="UTF-8" standalone="no"?>
<svg
   width="24"
   height="24"
   viewBox="0 0 24 24"
   fill="none"
   stroke="currentColor"
   stroke-width="0.8"
   stroke-linecap="round"
   stroke-linejoin="round"
   version="1.1"
   id="svg11"
   sodipodi:docname=".tmp_table-columns-split.svg"
   xmlns:inkscape="http://www.inkscape.org/namespaces/inkscape"
   xmlns:sodipodi="http://sodipodi.sourceforge.net/DTD/sodipodi-0.dtd"
   xmlns="http://www.w3.org/2000/svg"
   xmlns:svg="http://www.w3.org/2000/svg">
  <defs
     id="defs11" />
  <sodipodi:namedview
     id="namedview11"
     pagecolor="#ffffff"
     bordercolor="#000000"
     borderopacity="0.25"
     inkscape:showpageshadow="2"
     inkscape:pageopacity="0.0"
     inkscape:pagecheckerboard="0"
     inkscape:deskcolor="#d1d1d1" />
  <path
     id="path1"
     style="baseline-shift:baseline;display:inline;overflow:visible;vector-effect:none;fill:#000000;stroke:none;stroke-linecap:butt;stroke-linejoin:miter;enable-background:accumulate;stop-color:#000000;stop-opacity:1;opacity:1"
     d="M 14 1.5996094 A 0.40000001 0.40000001 0 0 0 13.599609 2 L 13.599609 4 A 0.40000001 0.40000001 0 0 0 14 4.4003906 A 0.40000001 0.40000001 0 0 0 14.400391 4 L 14.400391 2 A 0.40000001 0.40000001 0 0 0 14 1.5996094 z M 2 2.5996094 A 0.40000001 0.40000001 0 0 0 1.5996094 3 A 0.40000001 0.40000001 0 0 0 2 3.4003906 L 4.5996094 3.4003906 L 4.5996094 8.5996094 L 2 8.5996094 A 0.40000001 0.40000001 0 0 0 1.5996094 9 A 0.40000001 0.40000001 0 0 0 2 9.4003906 L 4.5996094 9.4003906 L 4.5996094 14.599609 L 2 14.599609 A 0.40000001 0.40000001 0 0 0 1.5996094 15 A 0.40000001 0.40000001 0 0 0 2 15.400391 L 4.5996094 15.400391 L 4.5996094 20.599609 L 2 20.599609 A 0.40000001 0.40000001 0 0 0 1.5996094 21 A 0.40000001 0.40000001 0 0 0 2 21.400391 L 5 21.400391 L 8 21.400391 C 9.3207455 21.400391 10.400391 20.320746 10.400391 19 L 10.400391 5 C 10.400391 3.6792545 9.3207455 2.5996094 8 2.5996094 L 5 2.5996094 L 2 2.5996094 z M 20 2.5996094 C 18.679254 2.5996094 17.599609 3.6792545 17.599609 5 L 17.599609 19 C 17.599609 20.320746 18.679254 21.400391 20 21.400391 L 22 21.400391 A 0.40000001 0.40000001 0 0 0 22.400391 21 A 0.40000001 0.40000001 0 0 0 22 20.599609 L 20 20.599609 C 19.111607 20.599609 18.400391 19.888393 18.400391 19 L 18.400391 15.400391 L 22 15.400391 A 0.40000001 0.40000001 0 0 0 22.400391 15 A 0.40000001 0.40000001 0 0 0 22 14.599609 L 18.400391 14.599609 L 18.400391 9.4003906 L 22 9.4003906 A 0.40000001 0.40000001 0 0 0 22.400391 9 A 0.40000001 0.40000001 0 0 0 22 8.5996094 L 18.400391 8.5996094 L 18.400391 5 C 18.400391 4.1116065 19.111607 3.4003906 20 3.4003906 L 22 3.4003906 A 0.40000001 0.40000001 0 0 0 22.400391 3 A 0.40000001 0.40000001 0 0 0 22 2.5996094 L 20 2.5996094 z M 5.4003906 3.4003906 L 8 3.4003906 C 8.8883935 3.4003906 9.5996094 4.1116065 9.5996094 5 L 9.5996094 8.5996094 L 5.4003906 8.5996094 L 5.4003906 3.4003906 z M 14 7.5996094 A 0.40000001 0.40000001 0 0 0 13.599609 8 L 13.599609 10 A 0.40000001 0.40000001 0 0 0 14 10.400391 A 0.40000001 0.40000001 0 0 0 14.400391 10 L 14.400391 8 A 0.40000001 0.40000001 0 0 0 14 7.5996094 z M 5.4003906 9.4003906 L 9.5996094 9.4003906 L 9.5996094 14.599609 L 5.4003906 14.599609 L 5.4003906 9.4003906 z M 14 13.599609 A 0.40000001 0.40000001 0 0 0 13.599609 14 L 13.599609 16 A 0.40000001 0.40000001 0 0 0 14 16.400391 A 0.40000001 0.40000001 0 0 0 14.400391 16 L 14.400391 14 A 0.40000001 0.40000001 0 0 0 14 13.599609 z M 5.4003906 15.400391 L 9.5996094 15.400391 L 9.5996094 19 C 9.5996094 19.888393 8.8883935 20.599609 8 20.599609 L 5.4003906 20.599609 L 5.4003906 15.400391 z M 14 19.599609 A 0.40000001 0.40000001 0 0 0 13.599609 20 L 13.599609 22 A 0.40000001 0.40000001 0 0 0 14 22.400391 A 0.40000001 0.40000001 0 0 0 14.400391 22 L 14.400391 20 A 0.40000001 0.40000001 0 0 0 14 19.599609 z " />
</svg>
