<?xml version="1.0" encoding="UTF-8" standalone="no"?>
<svg
   width="24"
   height="24"
   viewBox="0 0 24 24"
   fill="none"
   stroke="currentColor"
   stroke-width="0.8"
   stroke-linecap="round"
   stroke-linejoin="round"
   version="1.1"
   id="svg7"
   sodipodi:docname=".tmp_tower-control.svg"
   xmlns:inkscape="http://www.inkscape.org/namespaces/inkscape"
   xmlns:sodipodi="http://sodipodi.sourceforge.net/DTD/sodipodi-0.dtd"
   xmlns="http://www.w3.org/2000/svg"
   xmlns:svg="http://www.w3.org/2000/svg">
  <defs
     id="defs7" />
  <sodipodi:namedview
     id="namedview7"
     pagecolor="#ffffff"
     bordercolor="#000000"
     borderopacity="0.25"
     inkscape:showpageshadow="2"
     inkscape:pageopacity="0.0"
     inkscape:pagecheckerboard="0"
     inkscape:deskcolor="#d1d1d1" />
  <path
     id="path1"
     style="baseline-shift:baseline;display:inline;overflow:visible;vector-effect:none;fill:#000000;stroke:none;stroke-linecap:butt;stroke-linejoin:miter;enable-background:accumulate;stop-color:#000000;stop-opacity:1;opacity:1"
     d="M 11 1.5996094 A 0.40000001 0.40000001 0 0 0 10.599609 2 A 0.40000001 0.40000001 0 0 0 11 2.4003906 L 11.599609 2.4003906 L 11.599609 5.5996094 L 4 5.5996094 A 0.40004001 0.40004001 0 0 0 3.6152344 6.1113281 L 5.4160156 12.380859 C 5.5840509 12.975631 6.125925 13.392425 6.7441406 13.400391 A 0.40004001 0.40004001 0 0 0 6.75 13.400391 L 7.5996094 13.400391 L 7.5996094 22 A 0.40000001 0.40000001 0 0 0 8 22.400391 A 0.40000001 0.40000001 0 0 0 8.4003906 22 L 8.4003906 13.400391 L 15.599609 13.400391 L 15.599609 22 A 0.40000001 0.40000001 0 0 0 16 22.400391 A 0.40000001 0.40000001 0 0 0 16.400391 22 L 16.400391 13.400391 L 17.25 13.400391 A 0.40004001 0.40004001 0 0 0 17.251953 13.400391 C 17.876257 13.398591 18.427143 12.980027 18.595703 12.378906 A 0.40004001 0.40004001 0 0 0 18.587891 12.369141 L 20.384766 6.1113281 A 0.40004001 0.40004001 0 0 0 20 5.5996094 L 12.400391 5.5996094 L 12.400391 2.4003906 L 13 2.4003906 A 0.40000001 0.40000001 0 0 0 13.400391 2 A 0.40000001 0.40000001 0 0 0 13 1.5996094 L 12 1.5996094 L 11 1.5996094 z M 4.53125 6.4003906 L 8.6523438 6.4003906 L 9.5390625 12.599609 L 6.7558594 12.599609 C 6.4879859 12.596109 6.2578565 12.420062 6.1855469 12.162109 A 0.40004001 0.40004001 0 0 0 6.1835938 12.160156 L 4.53125 6.4003906 z M 9.4609375 6.4003906 L 14.539062 6.4003906 L 13.652344 12.599609 L 10.347656 12.599609 L 9.4609375 6.4003906 z M 15.347656 6.4003906 L 19.46875 6.4003906 L 17.816406 12.160156 A 0.40004001 0.40004001 0 0 0 17.820312 12.166016 C 17.745692 12.422338 17.517389 12.598093 17.25 12.599609 L 14.460938 12.599609 L 15.347656 6.4003906 z " />
</svg>
