<?xml version="1.0" encoding="UTF-8" standalone="no"?>
<svg
   width="24"
   height="24"
   viewBox="0 0 24 24"
   fill="none"
   stroke="currentColor"
   stroke-width="0.8"
   stroke-linecap="round"
   stroke-linejoin="round"
   version="1.1"
   id="svg4"
   sodipodi:docname=".tmp_trees.svg"
   xmlns:inkscape="http://www.inkscape.org/namespaces/inkscape"
   xmlns:sodipodi="http://sodipodi.sourceforge.net/DTD/sodipodi-0.dtd"
   xmlns="http://www.w3.org/2000/svg"
   xmlns:svg="http://www.w3.org/2000/svg">
  <defs
     id="defs4" />
  <sodipodi:namedview
     id="namedview4"
     pagecolor="#ffffff"
     bordercolor="#000000"
     borderopacity="0.25"
     inkscape:showpageshadow="2"
     inkscape:pageopacity="0.0"
     inkscape:pagecheckerboard="0"
     inkscape:deskcolor="#d1d1d1" />
  <path
     id="path1"
     style="baseline-shift:baseline;display:inline;overflow:visible;vector-effect:none;fill:#000000;stroke:none;stroke-linecap:butt;stroke-linejoin:miter;enable-background:accumulate;stop-color:#000000;stop-opacity:1;opacity:1"
     d="M 13 2.5996094 A 0.40004001 0.40004001 0 0 0 12.707031 2.7265625 L 11.306641 4.2265625 A 0.40000001 0.40000001 0 0 0 11.326172 4.7929688 A 0.40000001 0.40000001 0 0 0 11.892578 4.7734375 L 13 3.5859375 L 16.707031 7.5722656 A 0.40004001 0.40004001 0 0 0 16.716797 7.5820312 C 16.928001 7.7950687 16.934175 8.0427099 16.832031 8.2597656 C 16.729887 8.4768213 16.535102 8.6285144 16.236328 8.6015625 A 0.40004001 0.40004001 0 0 0 16.199219 8.5996094 L 16 8.5996094 A 0.40004001 0.40004001 0 0 0 15.703125 9.2695312 L 18.703125 12.568359 A 0.40004001 0.40004001 0 0 0 18.714844 12.580078 C 18.910865 12.780004 18.926883 13.017134 18.839844 13.228516 C 18.752804 13.439897 18.574885 13.595677 18.294922 13.599609 L 18 13.599609 A 0.40004001 0.40004001 0 0 0 17.703125 14.269531 L 20.703125 17.568359 A 0.40004001 0.40004001 0 0 0 20.714844 17.580078 C 20.910865 17.780004 20.926883 18.017134 20.839844 18.228516 C 20.752804 18.439897 20.574885 18.595677 20.294922 18.599609 L 13.003906 18.599609 L 12.996094 18.599609 L 12 18.599609 A 0.40000001 0.40000001 0 0 0 11.599609 19 A 0.40000001 0.40000001 0 0 0 12 19.400391 L 12.599609 19.400391 L 12.599609 22 A 0.40000001 0.40000001 0 0 0 13 22.400391 A 0.40000001 0.40000001 0 0 0 13.400391 22 L 13.400391 19.400391 L 20.300781 19.400391 A 0.40004001 0.40004001 0 0 0 20.304688 19.400391 C 20.90406 19.391991 21.383031 19.011746 21.580078 18.533203 C 21.777125 18.05466 21.704818 17.447553 21.285156 17.019531 L 18.675781 14.148438 C 19.041336 14.005612 19.440338 13.872571 19.580078 13.533203 C 19.777125 13.05466 19.704818 12.447553 19.285156 12.019531 L 16.775391 9.2578125 C 17.115682 9.1237831 17.409892 8.9114492 17.556641 8.5996094 C 17.786423 8.1113226 17.728734 7.4669772 17.283203 7.0175781 L 13.292969 2.7285156 A 0.40004001 0.40004001 0 0 0 13 2.5996094 z M 7 6.5996094 C 6.1611111 6.5996094 5.3168478 6.877863 4.671875 7.4511719 C 4.0269022 8.0244808 3.5996094 8.9000004 3.5996094 10 L 3.5996094 10.052734 C 2.1531535 10.786078 1.4918827 12.22831 1.7246094 13.578125 C 1.9753136 15.03221 3.1647288 16.354972 4.9902344 16.400391 A 0.40004001 0.40004001 0 0 0 5 16.400391 L 6.5996094 16.400391 L 6.5996094 22 A 0.40000001 0.40000001 0 0 0 7 22.400391 A 0.40000001 0.40000001 0 0 0 7.4003906 22 L 7.4003906 16.400391 L 8.8964844 16.400391 C 10.750905 16.414731 11.985711 15.098427 12.263672 13.632812 C 12.522006 12.270684 11.870006 10.798286 10.400391 10.052734 L 10.400391 10 C 10.400391 8.9000004 9.9730978 8.0244808 9.328125 7.4511719 C 8.6831478 6.877863 7.8388889 6.5996094 7 6.5996094 z M 7 7.4003906 C 7.6611111 7.4003906 8.3168478 7.6221374 8.796875 8.0488281 C 9.2769022 8.4755188 9.5996094 9.1000005 9.5996094 10 L 9.5996094 10.199219 A 0.40004001 0.40004001 0 0 0 9.8554688 10.574219 C 11.24092 11.107006 11.694957 12.343139 11.478516 13.484375 C 11.262074 14.625611 10.386664 15.611089 8.9023438 15.599609 A 0.40004001 0.40004001 0 0 0 8.9003906 15.599609 L 5.0097656 15.599609 C 3.5510972 15.563318 2.7067695 14.574654 2.5117188 13.443359 C 2.3166679 12.312065 2.7802815 11.096884 4.1425781 10.574219 A 0.40004001 0.40004001 0 0 0 4.4003906 10.199219 L 4.4003906 10 C 4.4003906 9.1000005 4.7230978 8.4755188 5.203125 8.0488281 C 5.6831522 7.6221374 6.3388889 7.4003906 7 7.4003906 z " />
</svg>
