<?xml version="1.0" encoding="UTF-8" standalone="no"?>
<svg
   width="24"
   height="24"
   viewBox="0 0 24 24"
   fill="none"
   stroke="currentColor"
   stroke-width="0.8"
   stroke-linecap="round"
   stroke-linejoin="round"
   version="1.1"
   id="svg5"
   sodipodi:docname=".tmp_unlink.svg"
   xmlns:inkscape="http://www.inkscape.org/namespaces/inkscape"
   xmlns:sodipodi="http://sodipodi.sourceforge.net/DTD/sodipodi-0.dtd"
   xmlns="http://www.w3.org/2000/svg"
   xmlns:svg="http://www.w3.org/2000/svg">
  <defs
     id="defs5" />
  <sodipodi:namedview
     id="namedview5"
     pagecolor="#ffffff"
     bordercolor="#000000"
     borderopacity="0.25"
     inkscape:showpageshadow="2"
     inkscape:pageopacity="0.0"
     inkscape:pagecheckerboard="0"
     inkscape:deskcolor="#d1d1d1" />
  <path
     id="path1"
     style="baseline-shift:baseline;display:inline;overflow:visible;vector-effect:none;fill:#000000;stroke:none;stroke-linecap:butt;stroke-linejoin:miter;enable-background:accumulate;stop-color:#000000;stop-opacity:1;opacity:1"
     d="M 8 1.5996094 A 0.40000001 0.40000001 0 0 0 7.5996094 2 L 7.5996094 5 A 0.40000001 0.40000001 0 0 0 8 5.4003906 A 0.40000001 0.40000001 0 0 0 8.4003906 5 L 8.4003906 2 A 0.40000001 0.40000001 0 0 0 8 1.5996094 z M 16.945312 1.6699219 C 15.591769 1.6699219 14.236984 2.1733166 13.191406 3.1816406 A 0.40004001 0.40004001 0 0 0 13.1875 3.1855469 L 11.46875 4.8964844 A 0.40000001 0.40000001 0 0 0 11.466797 5.4628906 A 0.40000001 0.40000001 0 0 0 12.03125 5.4628906 L 13.748047 3.7578125 L 13.751953 3.7539062 C 15.539492 2.0341615 18.356597 2.0354622 20.142578 3.7578125 C 21.970686 5.5277508 22.018942 8.4307602 20.251953 10.261719 A 0.40004001 0.40004001 0 0 0 20.257812 10.275391 L 18.558594 11.966797 A 0.40000001 0.40000001 0 0 0 18.556641 12.53125 A 0.40000001 0.40000001 0 0 0 19.121094 12.533203 L 20.841797 10.824219 A 0.40004001 0.40004001 0 0 0 20.835938 10.808594 C 22.893784 8.6662145 22.832564 5.2509487 20.697266 3.1835938 A 0.40004001 0.40004001 0 0 0 20.697266 3.1816406 C 19.651688 2.1733134 18.298858 1.6699219 16.945312 1.6699219 z M 2 7.5996094 A 0.40000001 0.40000001 0 0 0 1.5996094 8 A 0.40000001 0.40000001 0 0 0 2 8.4003906 L 5 8.4003906 A 0.40000001 0.40000001 0 0 0 5.4003906 8 A 0.40000001 0.40000001 0 0 0 5 7.5996094 L 2 7.5996094 z M 5.1699219 11.349609 A 0.40000001 0.40000001 0 0 0 4.8867188 11.466797 L 3.1777344 13.177734 A 0.40004001 0.40004001 0 0 0 3.171875 13.181641 C 1.1049665 15.323376 1.1643334 18.746048 3.3027344 20.816406 A 0.40004001 0.40004001 0 0 0 3.3027344 20.818359 C 5.3938903 22.835007 8.7174375 22.835007 10.808594 20.818359 A 0.40004001 0.40004001 0 0 0 10.8125 20.8125 L 12.523438 19.103516 A 0.40000001 0.40000001 0 0 0 12.523438 18.537109 A 0.40000001 0.40000001 0 0 0 11.957031 18.537109 L 10.251953 20.242188 C 8.4646221 21.965836 5.644753 21.965836 3.8574219 20.242188 C 2.029321 18.472251 1.9810578 15.56924 3.7480469 13.738281 L 5.453125 12.033203 A 0.40000001 0.40000001 0 0 0 5.453125 11.466797 A 0.40000001 0.40000001 0 0 0 5.1699219 11.349609 z M 19 15.599609 A 0.40000001 0.40000001 0 0 0 18.599609 16 A 0.40000001 0.40000001 0 0 0 19 16.400391 L 22 16.400391 A 0.40000001 0.40000001 0 0 0 22.400391 16 A 0.40000001 0.40000001 0 0 0 22 15.599609 L 19 15.599609 z M 16 18.599609 A 0.40000001 0.40000001 0 0 0 15.599609 19 L 15.599609 22 A 0.40000001 0.40000001 0 0 0 16 22.400391 A 0.40000001 0.40000001 0 0 0 16.400391 22 L 16.400391 19 A 0.40000001 0.40000001 0 0 0 16 18.599609 z " />
</svg>
