<?xml version="1.0" encoding="UTF-8" standalone="no"?>
<svg
   width="24"
   height="24"
   viewBox="0 0 24 24"
   fill="none"
   stroke="currentColor"
   stroke-width="0.8"
   stroke-linecap="round"
   stroke-linejoin="round"
   version="1.1"
   id="svg8"
   sodipodi:docname=".tmp_wheat.svg"
   xmlns:inkscape="http://www.inkscape.org/namespaces/inkscape"
   xmlns:sodipodi="http://sodipodi.sourceforge.net/DTD/sodipodi-0.dtd"
   xmlns="http://www.w3.org/2000/svg"
   xmlns:svg="http://www.w3.org/2000/svg">
  <defs
     id="defs8" />
  <sodipodi:namedview
     id="namedview8"
     pagecolor="#ffffff"
     bordercolor="#000000"
     borderopacity="0.25"
     inkscape:showpageshadow="2"
     inkscape:pageopacity="0.0"
     inkscape:pagecheckerboard="0"
     inkscape:deskcolor="#d1d1d1" />
  <path
     id="path1"
     style="baseline-shift:baseline;display:inline;overflow:visible;vector-effect:none;fill:#000000;stroke:none;stroke-linecap:butt;stroke-linejoin:miter;enable-background:accumulate;stop-color:#000000;stop-opacity:1;opacity:1"
     d="M 20 1.5996094 C 17.75712 1.5996094 15.899617 3.2886757 15.632812 5.4609375 C 15.444277 5.0202377 15.170622 4.6075812 14.8125 4.2480469 L 13.283203 2.7167969 A 0.40004001 0.40004001 0 0 0 12.716797 2.7167969 L 11.1875 4.2480469 C 10.299194 5.1398547 9.932786 6.3596477 10.087891 7.5214844 L 9.2832031 6.7167969 A 0.40004001 0.40004001 0 0 0 8.7167969 6.7167969 L 7.1875 8.2480469 C 6.2991943 9.1398547 5.932786 10.359648 6.0878906 11.521484 L 5.2832031 10.716797 A 0.40004001 0.40004001 0 0 0 4.7167969 10.716797 L 3.1875 12.248047 C 1.6749847 13.766525 1.6749847 16.233475 3.1875 17.751953 L 4.4335938 19 L 1.7167969 21.716797 A 0.40000001 0.40000001 0 0 0 1.7167969 22.283203 A 0.40000001 0.40000001 0 0 0 2.2832031 22.283203 L 5 19.566406 L 6.2480469 20.8125 C 7.7665252 22.325015 10.233475 22.325015 11.751953 20.8125 L 13.283203 19.283203 A 0.40004001 0.40004001 0 0 0 13.283203 18.716797 L 12.478516 17.912109 C 13.640352 18.067214 14.860145 17.700806 15.751953 16.8125 L 17.283203 15.283203 A 0.40004001 0.40004001 0 0 0 17.283203 14.716797 L 16.478516 13.912109 C 17.640352 14.067214 18.860145 13.700806 19.751953 12.8125 L 21.283203 11.283203 A 0.40004001 0.40004001 0 0 0 21.283203 10.716797 L 19.751953 9.1875 C 19.392501 8.8294597 18.979627 8.5558078 18.539062 8.3671875 C 20.71115 8.1002208 22.400391 6.2427558 22.400391 4 L 22.400391 2 A 0.40004001 0.40004001 0 0 0 22 1.5996094 L 20 1.5996094 z M 20 2.4003906 L 21.599609 2.4003906 L 21.599609 4 C 21.599609 5.9929629 19.992963 7.5996094 18 7.5996094 L 16.400391 7.5996094 L 16.400391 6 C 16.400391 4.0070371 18.007037 2.4003906 20 2.4003906 z M 13 3.5664062 L 14.246094 4.8125 C 15.454268 6.0254384 15.454251 7.9745513 14.246094 9.1875 L 13 10.433594 L 11.753906 9.1875 C 10.545723 7.9745531 10.545723 6.0254469 11.753906 4.8125 L 13 3.5664062 z M 9 7.5664062 L 10.246094 8.8125 C 11.454268 10.025439 11.454251 11.974551 10.246094 13.1875 L 9 14.433594 L 7.7539062 13.1875 C 6.5457227 11.974553 6.5457227 10.025447 7.7539062 8.8125 L 9 7.5664062 z M 17 8.8476562 C 17.79062 8.8476562 18.581027 9.1498143 19.1875 9.7539062 L 20.433594 11 L 19.1875 12.246094 C 17.974553 13.454277 16.025447 13.454277 14.8125 12.246094 L 13.566406 11 L 13.939453 10.626953 L 14.8125 9.7539062 C 15.418973 9.1498143 16.20938 8.8476562 17 8.8476562 z M 11.912109 10.478516 L 12.433594 11 L 11.912109 11.521484 C 11.958321 11.175828 11.958255 10.824179 11.912109 10.478516 z M 5 11.566406 L 6.2460938 12.8125 C 7.4542775 14.025447 7.4542774 15.974553 6.2460938 17.1875 L 5 18.433594 L 3.7539062 17.1875 C 2.5457226 15.974553 2.5457225 14.025447 3.7539062 12.8125 L 5 11.566406 z M 13 11.566406 L 13.521484 12.087891 C 13.348286 12.064685 13.174489 12.052734 13 12.052734 C 12.82591 12.052734 12.651324 12.064791 12.478516 12.087891 L 13 11.566406 z M 13 12.847656 C 13.79062 12.847656 14.581027 13.149814 15.1875 13.753906 L 16.433594 15 L 15.1875 16.246094 C 13.974553 17.454277 12.025447 17.454277 10.8125 16.246094 L 9.5664062 15 L 10.255859 14.308594 L 10.8125 13.753906 C 11.41897 13.149831 12.209391 12.847656 13 12.847656 z M 7.9121094 14.478516 L 8.4335938 15 L 7.9121094 15.521484 C 7.9583212 15.175828 7.958255 14.824179 7.9121094 14.478516 z M 9 15.566406 L 9.5214844 16.087891 C 9.3482863 16.064685 9.1744887 16.052734 9 16.052734 C 8.8259096 16.052734 8.6513242 16.064791 8.4785156 16.087891 L 9 15.566406 z M 9 16.847656 C 9.7906204 16.847656 10.581027 17.149814 11.1875 17.753906 L 12.433594 19 L 11.1875 20.246094 C 9.9745531 21.454277 8.0254469 21.454277 6.8125 20.246094 L 5.5664062 19 L 6.8125 17.753906 C 7.4189701 17.149831 8.2093906 16.847656 9 16.847656 z " />
</svg>
