<?xml version="1.0" encoding="UTF-8" standalone="no"?>
<svg
   width="24"
   height="24"
   viewBox="0 0 24 24"
   fill="none"
   stroke="currentColor"
   stroke-width="0.8"
   stroke-linecap="round"
   stroke-linejoin="round"
   version="1.1"
   id="svg3"
   sodipodi:docname=".tmp_whole-word.svg"
   xmlns:inkscape="http://www.inkscape.org/namespaces/inkscape"
   xmlns:sodipodi="http://sodipodi.sourceforge.net/DTD/sodipodi-0.dtd"
   xmlns="http://www.w3.org/2000/svg"
   xmlns:svg="http://www.w3.org/2000/svg">
  <defs
     id="defs3" />
  <sodipodi:namedview
     id="namedview3"
     pagecolor="#ffffff"
     bordercolor="#000000"
     borderopacity="0.25"
     inkscape:showpageshadow="2"
     inkscape:pageopacity="0.0"
     inkscape:pagecheckerboard="0"
     inkscape:deskcolor="#d1d1d1" />
  <path
     id="circle1"
     style="baseline-shift:baseline;display:inline;overflow:visible;vector-effect:none;fill:#000000;stroke:none;stroke-linecap:butt;stroke-linejoin:miter;enable-background:accumulate;stop-color:#000000;stop-opacity:1;opacity:1"
     d="M 14 6.5996094 A 0.40000001 0.40000001 0 0 0 13.599609 7 L 13.599609 15 A 0.40000001 0.40000001 0 0 0 14 15.400391 A 0.40000001 0.40000001 0 0 0 14.400391 15 L 14.400391 14.1875 C 15.024967 14.928088 15.959107 15.400391 17 15.400391 C 18.87303 15.400391 20.400391 13.87303 20.400391 12 C 20.400391 10.12697 18.87303 8.5996094 17 8.5996094 C 15.959107 8.5996094 15.024967 9.0719123 14.400391 9.8125 L 14.400391 7 A 0.40000001 0.40000001 0 0 0 14 6.5996094 z M 7 8.5996094 C 5.1269697 8.5996094 3.5996094 10.12697 3.5996094 12 C 3.5996094 13.87303 5.1269697 15.400391 7 15.400391 C 8.0408938 15.400391 8.9750335 14.928088 9.5996094 14.1875 L 9.5996094 15 A 0.40000001 0.40000001 0 0 0 10 15.400391 A 0.40000001 0.40000001 0 0 0 10.400391 15 L 10.400391 9 A 0.40000001 0.40000001 0 0 0 10 8.5996094 A 0.40000001 0.40000001 0 0 0 9.5996094 9 L 9.5996094 9.8125 C 8.9750335 9.0719121 8.0408938 8.5996094 7 8.5996094 z M 7 9.4003906 C 8.4406782 9.4003906 9.5996094 10.559322 9.5996094 12 C 9.5996094 13.440678 8.4406782 14.599609 7 14.599609 C 5.5593218 14.599609 4.4003906 13.440678 4.4003906 12 C 4.4003906 10.559322 5.5593218 9.4003906 7 9.4003906 z M 17 9.4003906 C 18.440678 9.4003906 19.599609 10.559322 19.599609 12 C 19.599609 13.440678 18.440678 14.599609 17 14.599609 C 15.559322 14.599609 14.400391 13.440678 14.400391 12 C 14.400391 10.559322 15.559322 9.4003906 17 9.4003906 z M 2 16.599609 A 0.40000001 0.40000001 0 0 0 1.5996094 17 L 1.5996094 18 C 1.5996094 18.383333 1.7789429 18.720349 2.0292969 18.970703 C 2.2796508 19.221057 2.6166667 19.400391 3 19.400391 L 21 19.400391 C 21.383333 19.400391 21.720349 19.221057 21.970703 18.970703 C 22.221057 18.720349 22.400391 18.383333 22.400391 18 L 22.400391 17 A 0.40000001 0.40000001 0 0 0 22 16.599609 A 0.40000001 0.40000001 0 0 0 21.599609 17 L 21.599609 18 C 21.599609 18.116667 21.528939 18.279651 21.404297 18.404297 C 21.279651 18.528943 21.116667 18.599609 21 18.599609 L 3 18.599609 C 2.8833333 18.599609 2.7203492 18.528939 2.5957031 18.404297 C 2.4710571 18.279651 2.4003906 18.116667 2.4003906 18 L 2.4003906 17 A 0.40000001 0.40000001 0 0 0 2 16.599609 z " />
</svg>
