<?xml version="1.0" encoding="UTF-8" standalone="no"?>
<svg
   width="24"
   height="24"
   viewBox="0 0 24 24"
   fill="none"
   stroke="currentColor"
   stroke-width="0.8"
   stroke-linecap="round"
   stroke-linejoin="round"
   version="1.1"
   id="svg3"
   sodipodi:docname=".tmp_wind.svg"
   xmlns:inkscape="http://www.inkscape.org/namespaces/inkscape"
   xmlns:sodipodi="http://sodipodi.sourceforge.net/DTD/sodipodi-0.dtd"
   xmlns="http://www.w3.org/2000/svg"
   xmlns:svg="http://www.w3.org/2000/svg">
  <defs
     id="defs3" />
  <sodipodi:namedview
     id="namedview3"
     pagecolor="#ffffff"
     bordercolor="#000000"
     borderopacity="0.25"
     inkscape:showpageshadow="2"
     inkscape:pageopacity="0.0"
     inkscape:pagecheckerboard="0"
     inkscape:deskcolor="#d1d1d1" />
  <path
     id="path1"
     style="baseline-shift:baseline;display:inline;overflow:visible;vector-effect:none;fill:#000000;stroke:none;stroke-linecap:butt;stroke-linejoin:miter;enable-background:accumulate;stop-color:#000000;stop-opacity:1;opacity:1"
     d="M 11.033203 3.6054688 C 10.894531 3.6026753 10.755661 3.6112755 10.617188 3.6328125 C 10.247924 3.6902445 9.8858214 3.8361222 9.5605469 4.0800781 A 0.40000001 0.40000001 0 0 0 9.4804688 4.640625 A 0.40000001 0.40000001 0 0 0 10.039062 4.7207031 C 10.92216 4.0583796 12.168506 4.4469233 12.517578 5.4941406 C 12.866651 6.5413579 12.103873 7.5996094 11 7.5996094 L 2 7.5996094 A 0.40000001 0.40000001 0 0 0 1.5996094 8 A 0.40000001 0.40000001 0 0 0 2 8.4003906 L 11 8.4003906 C 12.626373 8.4003906 13.791645 6.7831367 13.277344 5.2402344 C 12.939834 4.2277047 12.00391 3.6250229 11.033203 3.6054688 z M 19.402344 6.6113281 C 18.568713 6.6358997 17.741203 7.0110787 17.179688 7.7597656 A 0.40000001 0.40000001 0 0 0 17.259766 8.3203125 A 0.40000001 0.40000001 0 0 0 17.820312 8.2402344 C 18.767022 6.9779554 20.673285 7.1493045 21.378906 8.5605469 C 22.084527 9.9717893 21.077849 11.599609 19.5 11.599609 L 2 11.599609 A 0.40000001 0.40000001 0 0 0 1.5996094 12 A 0.40000001 0.40000001 0 0 0 2 12.400391 L 19.5 12.400391 C 21.639106 12.400391 23.050372 10.116369 22.09375 8.203125 C 21.615439 7.2465031 20.70821 6.7085746 19.759766 6.6230469 C 19.64121 6.6123559 19.521434 6.6078179 19.402344 6.6113281 z M 2 15.599609 A 0.40000001 0.40000001 0 0 0 1.5996094 16 A 0.40000001 0.40000001 0 0 0 2 16.400391 L 14 16.400391 C 15.103873 16.400391 15.866651 17.458642 15.517578 18.505859 C 15.168506 19.553077 13.92216 19.94162 13.039062 19.279297 A 0.40000001 0.40000001 0 0 0 12.480469 19.359375 A 0.40000001 0.40000001 0 0 0 12.560547 19.919922 C 13.861645 20.895745 15.763043 20.302668 16.277344 18.759766 C 16.791643 17.216861 15.626373 15.599609 14 15.599609 L 2 15.599609 z " />
</svg>
