<?xml version="1.0" encoding="UTF-8" standalone="no"?>
<svg
   width="24"
   height="24"
   viewBox="0 0 24 24"
   fill="none"
   stroke="currentColor"
   stroke-width="0.8"
   stroke-linecap="round"
   stroke-linejoin="round"
   version="1.1"
   id="svg2"
   sodipodi:docname=".tmp_workflow.svg"
   xmlns:inkscape="http://www.inkscape.org/namespaces/inkscape"
   xmlns:sodipodi="http://sodipodi.sourceforge.net/DTD/sodipodi-0.dtd"
   xmlns="http://www.w3.org/2000/svg"
   xmlns:svg="http://www.w3.org/2000/svg">
  <defs
     id="defs2" />
  <sodipodi:namedview
     id="namedview2"
     pagecolor="#ffffff"
     bordercolor="#000000"
     borderopacity="0.25"
     inkscape:showpageshadow="2"
     inkscape:pageopacity="0.0"
     inkscape:pagecheckerboard="0"
     inkscape:deskcolor="#d1d1d1" />
  <path
     id="rect1"
     style="baseline-shift:baseline;display:inline;overflow:visible;vector-effect:none;fill:#000000;stroke:none;stroke-linecap:butt;stroke-linejoin:miter;enable-background:accumulate;stop-color:#000000;stop-opacity:1;opacity:1"
     d="M 5 2.5996094 C 3.6773189 2.5996094 2.5996094 3.6773189 2.5996094 5 L 2.5996094 9 C 2.5996094 10.322681 3.6773189 11.400391 5 11.400391 L 6.5996094 11.400391 L 6.5996094 15 C 6.5996094 16.320746 7.6792545 17.400391 9 17.400391 L 12.599609 17.400391 L 12.599609 19 C 12.599609 20.322681 13.677319 21.400391 15 21.400391 L 19 21.400391 C 20.322681 21.400391 21.400391 20.322681 21.400391 19 L 21.400391 15 C 21.400391 13.677319 20.322681 12.599609 19 12.599609 L 15 12.599609 C 13.677319 12.599609 12.599609 13.677319 12.599609 15 L 12.599609 16.599609 L 9 16.599609 C 8.1116065 16.599609 7.4003906 15.888393 7.4003906 15 L 7.4003906 11.400391 L 9 11.400391 C 10.322681 11.400391 11.400391 10.322681 11.400391 9 L 11.400391 5 C 11.400391 3.6773189 10.322681 2.5996094 9 2.5996094 L 5 2.5996094 z M 5 3.4003906 L 9 3.4003906 C 9.8933189 3.4003906 10.599609 4.1066811 10.599609 5 L 10.599609 9 C 10.599609 9.8933189 9.8933189 10.599609 9 10.599609 L 5 10.599609 C 4.1066811 10.599609 3.4003906 9.8933189 3.4003906 9 L 3.4003906 5 C 3.4003906 4.1066811 4.1066811 3.4003906 5 3.4003906 z M 15 13.400391 L 19 13.400391 C 19.893319 13.400391 20.599609 14.106681 20.599609 15 L 20.599609 19 C 20.599609 19.893319 19.893319 20.599609 19 20.599609 L 15 20.599609 C 14.106681 20.599609 13.400391 19.893319 13.400391 19 L 13.400391 17 L 13.400391 15 C 13.400391 14.106681 14.106681 13.400391 15 13.400391 z " />
</svg>
