<?xml version="1.0" encoding="UTF-8" standalone="no"?>
<svg
   width="24"
   height="24"
   viewBox="0 0 24 24"
   fill="none"
   stroke="currentColor"
   stroke-width="0.8"
   stroke-linecap="round"
   stroke-linejoin="round"
   version="1.1"
   id="svg3"
   sodipodi:docname=".tmp_worm.svg"
   xmlns:inkscape="http://www.inkscape.org/namespaces/inkscape"
   xmlns:sodipodi="http://sodipodi.sourceforge.net/DTD/sodipodi-0.dtd"
   xmlns="http://www.w3.org/2000/svg"
   xmlns:svg="http://www.w3.org/2000/svg">
  <defs
     id="defs3" />
  <sodipodi:namedview
     id="namedview3"
     pagecolor="#ffffff"
     bordercolor="#000000"
     borderopacity="0.25"
     inkscape:showpageshadow="2"
     inkscape:pageopacity="0.0"
     inkscape:pagecheckerboard="0"
     inkscape:deskcolor="#d1d1d1" />
  <path
     id="path1"
     style="baseline-shift:baseline;display:inline;overflow:visible;vector-effect:none;fill:#000000;stroke:none;stroke-linecap:butt;stroke-linejoin:miter;enable-background:accumulate;stop-color:#000000;stop-opacity:1;opacity:1"
     d="M 6.9257812 2.546875 C 5.8637611 2.6143474 4.7802422 2.9325231 3.7421875 3.5527344 L 3.7382812 3.5546875 L 3.7363281 3.5546875 L 3.734375 3.5566406 L 3.0410156 3.953125 A 0.40004001 0.40004001 0 0 0 3.0371094 3.9550781 C 2.2275612 4.4307397 1.7631714 5.1298025 1.6191406 5.8574219 C 1.4751098 6.5850413 1.6362202 7.3281266 2 7.9472656 C 2.3637798 8.5664047 2.9349101 9.0704832 3.640625 9.2988281 C 4.3463399 9.527173 5.1826355 9.4600334 5.9921875 8.984375 A 0.40004001 0.40004001 0 0 0 5.9960938 8.9824219 L 6.6660156 8.578125 C 7.1804297 8.2875425 7.7060084 8.3858457 8.0898438 8.6894531 C 8.473679 8.9930605 8.6897082 9.4813251 8.5253906 10.048828 L 7.8867188 12.123047 L 7.8886719 12.121094 C 6.8912734 15.310173 8.1747279 18.286558 10.408203 19.972656 C 12.640646 21.657975 15.853569 22.07609 18.646484 20.246094 L 19.066406 19.976562 A 0.40004001 0.40004001 0 0 0 19.068359 19.976562 C 19.357317 19.789186 19.597873 19.573663 19.792969 19.339844 L 21.820312 20.357422 A 0.40000001 0.40000001 0 0 0 22.357422 20.179688 A 0.40000001 0.40000001 0 0 0 22.179688 19.642578 L 20.214844 18.65625 C 20.304336 18.44826 20.36557 18.235026 20.398438 18.019531 C 20.509971 17.28826 20.315397 16.553956 19.925781 15.953125 C 19.536169 15.352294 18.945573 14.874234 18.232422 14.677734 C 18.196 14.667699 18.160064 14.658849 18.123047 14.650391 L 19.357422 12.179688 A 0.40000001 0.40000001 0 0 0 19.179688 11.642578 A 0.40000001 0.40000001 0 0 0 18.642578 11.820312 L 17.253906 14.599609 L 17.251953 14.599609 C 16.806982 14.646648 16.347768 14.804913 15.902344 15.09375 L 15.484375 15.363281 C 14.93707 15.710013 14.360087 15.620055 13.935547 15.298828 C 13.510535 14.977241 13.267072 14.44606 13.453125 13.824219 L 14.091797 11.751953 L 14.091797 11.748047 C 15.068324 8.6689903 13.876778 5.7635092 11.744141 4.0761719 C 10.677372 3.2321471 9.3674341 2.6871116 7.9785156 2.5605469 C 7.6319468 2.5289659 7.279788 2.5243842 6.9257812 2.546875 z M 6.9863281 3.3359375 C 7.3001463 3.3158527 7.6113229 3.3211807 7.9179688 3.3496094 C 9.1445525 3.463324 10.295964 3.9513847 11.246094 4.703125 C 13.146353 6.2066055 14.207012 8.7437196 13.328125 11.509766 A 0.40004001 0.40004001 0 0 0 13.328125 11.511719 L 12.6875 13.591797 A 0.40004001 0.40004001 0 0 0 12.6875 13.595703 C 12.406535 14.534766 12.790175 15.435876 13.453125 15.9375 C 14.116075 16.439124 15.086738 16.562767 15.914062 16.037109 A 0.40004001 0.40004001 0 0 0 15.916016 16.037109 L 16.335938 15.765625 A 0.40004001 0.40004001 0 0 0 16.337891 15.765625 C 16.709796 15.524461 17.061939 15.408369 17.392578 15.384766 A 0.40000001 0.40000001 0 0 0 17.615234 15.382812 C 17.754285 15.389935 17.888921 15.413231 18.019531 15.449219 C 18.519921 15.587095 18.961019 15.93505 19.253906 16.386719 C 19.546794 16.838388 19.68568 17.385334 19.607422 17.898438 C 19.577777 18.092792 19.518811 18.284321 19.423828 18.46875 A 0.40000001 0.40000001 0 0 0 19.273438 18.630859 A 0.40000001 0.40000001 0 0 0 19.232422 18.765625 C 19.083221 18.956737 18.887019 19.137652 18.632812 19.302734 L 18.212891 19.574219 A 0.40004001 0.40004001 0 0 0 18.210938 19.576172 C 15.696672 21.225692 12.883878 20.838733 10.890625 19.333984 C 8.8973255 17.829194 7.7547458 15.229352 8.6523438 12.359375 A 0.40004001 0.40004001 0 0 0 8.6523438 12.357422 L 9.2929688 10.277344 A 0.40004001 0.40004001 0 0 0 9.2949219 10.271484 C 9.549277 9.3931167 9.1990969 8.5455459 8.5859375 8.0605469 C 7.9727781 7.5755478 7.0697145 7.4310581 6.2734375 7.8808594 A 0.40004001 0.40004001 0 0 0 6.2636719 7.8867188 L 5.5878906 8.2949219 C 4.9507766 8.6692631 4.3824618 8.6975147 3.8867188 8.5371094 C 3.3909755 8.3767041 2.9631733 8.0088298 2.6894531 7.5429688 C 2.415733 7.0771078 2.3031196 6.5228493 2.4042969 6.0117188 C 2.5054741 5.5005884 2.8062453 5.0188725 3.4433594 4.6445312 L 4.1386719 4.2480469 A 0.40004001 0.40004001 0 0 0 4.1464844 4.2421875 C 5.080131 3.6828532 6.0448737 3.3961918 6.9863281 3.3359375 z " />
</svg>
