<?xml version="1.0" encoding="UTF-8" standalone="no"?>
<svg
   width="24"
   height="24"
   viewBox="0 0 24 24"
   fill="none"
   stroke="currentColor"
   stroke-width="0.8"
   stroke-linecap="round"
   stroke-linejoin="round"
   version="1.1"
   id="svg1"
   sodipodi:docname=".tmp_wrench.svg"
   xmlns:inkscape="http://www.inkscape.org/namespaces/inkscape"
   xmlns:sodipodi="http://sodipodi.sourceforge.net/DTD/sodipodi-0.dtd"
   xmlns="http://www.w3.org/2000/svg"
   xmlns:svg="http://www.w3.org/2000/svg">
  <defs
     id="defs1" />
  <sodipodi:namedview
     id="namedview1"
     pagecolor="#ffffff"
     bordercolor="#000000"
     borderopacity="0.25"
     inkscape:showpageshadow="2"
     inkscape:pageopacity="0.0"
     inkscape:pagecheckerboard="0"
     inkscape:deskcolor="#d1d1d1" />
  <path
     id="path1"
     style="baseline-shift:baseline;display:inline;overflow:visible;vector-effect:none;fill:#000000;stroke:none;stroke-linecap:butt;stroke-linejoin:miter;enable-background:accumulate;stop-color:#000000;stop-opacity:1;opacity:1"
     d="M 15.787109 1.5917969 C 11.557229 1.7175533 8.4013361 6.1348028 10.083984 10.351562 L 2.3378906 18.097656 C 1.7671683 18.668188 1.5268354 19.354772 1.5644531 19.996094 C 1.6020711 20.637416 1.9001722 21.224245 2.3378906 21.662109 C 2.7756091 22.099974 3.3606437 22.397715 4.0019531 22.435547 C 4.6432626 22.473377 5.3316216 22.232641 5.9023438 21.662109 L 13.648438 13.916016 C 18.481115 15.84451 23.576348 11.407667 22.173828 6.3066406 C 22.075288 5.9469813 21.777206 5.6945028 21.455078 5.6269531 C 21.13295 5.5594031 20.776111 5.6558921 20.521484 5.9121094 L 17.419922 9.0136719 C 17.183438 9.2454721 16.816562 9.2454721 16.580078 9.0136719 L 14.986328 7.4199219 C 14.754528 7.1834384 14.754528 6.8165616 14.986328 6.5800781 L 18.089844 3.4785156 A 0.40004001 0.40004001 0 0 0 18.089844 3.4765625 C 18.344524 3.2210858 18.440781 2.8669242 18.373047 2.5449219 C 18.305312 2.2229195 18.052746 1.9246338 17.693359 1.8261719 C 17.043265 1.6474294 16.404921 1.573429 15.787109 1.5917969 z M 15.796875 2.3867188 C 16.341474 2.3728147 16.907256 2.4395147 17.482422 2.5976562 C 17.561032 2.6191943 17.577332 2.6494863 17.589844 2.7089844 C 17.602364 2.7684824 17.58976 2.8455829 17.523438 2.9121094 L 14.417969 6.0175781 A 0.40004001 0.40004001 0 0 0 14.414062 6.0195312 C 13.883577 6.5607349 13.883576 7.4392653 14.414062 7.9804688 A 0.40004001 0.40004001 0 0 0 14.417969 7.9824219 L 16.017578 9.5820312 A 0.40004001 0.40004001 0 0 0 16.019531 9.5859375 C 16.560735 10.116423 17.439265 10.116423 17.980469 9.5859375 A 0.40004001 0.40004001 0 0 0 17.982422 9.5820312 L 21.087891 6.4785156 A 0.40004001 0.40004001 0 0 0 21.089844 6.4765625 C 21.155214 6.4107795 21.231643 6.3977062 21.291016 6.4101562 C 21.350386 6.4226063 21.380876 6.4411902 21.402344 6.5195312 C 22.667473 11.120861 18.042949 15.072913 13.695312 13.105469 A 0.40004001 0.40004001 0 0 0 13.248047 13.1875 L 5.3378906 21.097656 C 4.9086133 21.52679 4.4717841 21.661554 4.0507812 21.636719 C 3.6297784 21.611883 3.2163284 21.409792 2.9042969 21.097656 C 2.5922653 20.785521 2.3879762 20.37023 2.3632812 19.949219 C 2.3385861 19.528208 2.4750196 19.091244 2.9042969 18.662109 L 10.814453 10.751953 A 0.40004001 0.40004001 0 0 0 10.894531 10.304688 C 9.1730158 6.5005041 11.984681 2.4840461 15.796875 2.3867188 z " />
</svg>
