<?xml version="1.0" encoding="UTF-8" standalone="no"?>
<svg
   width="24"
   height="24"
   viewBox="0 0 24 24"
   fill="none"
   stroke="currentColor"
   stroke-width="0.2"
   stroke-linecap="round"
   stroke-linejoin="round"
   version="1.1"
   id="svg3"
   sodipodi:docname=".tmp_align-vertical-distribute-end.svg"
   xmlns:inkscape="http://www.inkscape.org/namespaces/inkscape"
   xmlns:sodipodi="http://sodipodi.sourceforge.net/DTD/sodipodi-0.dtd"
   xmlns="http://www.w3.org/2000/svg"
   xmlns:svg="http://www.w3.org/2000/svg">
  <defs
     id="defs3" />
  <sodipodi:namedview
     id="namedview3"
     pagecolor="#ffffff"
     bordercolor="#000000"
     borderopacity="0.25"
     inkscape:showpageshadow="2"
     inkscape:pageopacity="0.0"
     inkscape:pagecheckerboard="0"
     inkscape:deskcolor="#d1d1d1" />
  <path
     id="rect1"
     style="baseline-shift:baseline;display:inline;overflow:visible;vector-effect:none;fill:#000000;stroke:none;stroke-linecap:butt;stroke-linejoin:miter;enable-background:accumulate;stop-color:#000000;stop-opacity:1;opacity:1"
     d="M 9 3.9003906 C 7.8383297 3.9003906 6.9003906 4.8383297 6.9003906 6 L 6.9003906 8 C 6.9003906 8.841142 7.3930956 9.5649835 8.1054688 9.9003906 L 2 9.9003906 A 0.1 0.1 0 0 0 1.9003906 10 A 0.1 0.1 0 0 0 2 10.099609 L 9 10.099609 L 15 10.099609 L 22 10.099609 A 0.1 0.1 0 0 0 22.099609 10 A 0.1 0.1 0 0 0 22 9.9003906 L 15.894531 9.9003906 C 16.606904 9.5649835 17.099609 8.841142 17.099609 8 L 17.099609 6 C 17.099609 4.8383297 16.16167 3.9003906 15 3.9003906 L 9 3.9003906 z M 9 4.0996094 L 15 4.0996094 C 16.05433 4.0996094 16.900391 4.9456703 16.900391 6 L 16.900391 8 C 16.900391 9.0543297 16.05433 9.9003906 15 9.9003906 L 9 9.9003906 C 7.9456703 9.9003906 7.0996094 9.0543297 7.0996094 8 L 7.0996094 6 C 7.0996094 4.9456703 7.9456703 4.0996094 9 4.0996094 z M 7 13.900391 C 5.8383297 13.900391 4.9003906 14.83833 4.9003906 16 L 4.9003906 18 C 4.9003906 18.841142 5.3930951 19.564984 6.1054688 19.900391 L 2 19.900391 A 0.1 0.1 0 0 0 1.9003906 20 A 0.1 0.1 0 0 0 2 20.099609 L 22 20.099609 A 0.1 0.1 0 0 0 22.099609 20 A 0.1 0.1 0 0 0 22 19.900391 L 17.894531 19.900391 C 18.606905 19.564984 19.099609 18.841142 19.099609 18 L 19.099609 16 C 19.099609 14.83833 18.16167 13.900391 17 13.900391 L 7 13.900391 z M 7 14.099609 L 17 14.099609 C 18.05433 14.099609 18.900391 14.94567 18.900391 16 L 18.900391 18 C 18.900391 19.05433 18.05433 19.900391 17 19.900391 L 7 19.900391 C 5.9456703 19.900391 5.0996094 19.05433 5.0996094 18 L 5.0996094 16 C 5.0996094 14.94567 5.9456703 14.099609 7 14.099609 z " />
</svg>
