<?xml version="1.0" encoding="UTF-8" standalone="no"?>
<svg
   width="24"
   height="24"
   viewBox="0 0 24 24"
   fill="none"
   stroke="currentColor"
   stroke-width="0.2"
   stroke-linecap="round"
   stroke-linejoin="round"
   version="1.1"
   id="svg6"
   sodipodi:docname=".tmp_amphora.svg"
   xmlns:inkscape="http://www.inkscape.org/namespaces/inkscape"
   xmlns:sodipodi="http://sodipodi.sourceforge.net/DTD/sodipodi-0.dtd"
   xmlns="http://www.w3.org/2000/svg"
   xmlns:svg="http://www.w3.org/2000/svg">
  <defs
     id="defs6" />
  <sodipodi:namedview
     id="namedview6"
     pagecolor="#ffffff"
     bordercolor="#000000"
     borderopacity="0.25"
     inkscape:showpageshadow="2"
     inkscape:pageopacity="0.0"
     inkscape:pagecheckerboard="0"
     inkscape:deskcolor="#d1d1d1" />
  <path
     id="path1"
     style="baseline-shift:baseline;display:inline;overflow:visible;vector-effect:none;fill:#000000;stroke:none;stroke-linecap:butt;stroke-linejoin:miter;enable-background:accumulate;stop-color:#000000;stop-opacity:1;opacity:1"
     d="M 8.9863281 1.9003906 A 0.1 0.1 0 0 0 8.9003906 2 A 0.1 0.1 0 0 0 9 2.0996094 L 9.9003906 2.0996094 L 9.9003906 4.9003906 L 8 4.9003906 C 7.3083336 4.9003906 6.7774417 5.1629756 6.4257812 5.5585938 C 6.0741208 5.954212 5.9003906 6.4777778 5.9003906 7 C 5.9003906 7.5222222 6.0741208 8.045788 6.4257812 8.4414062 C 6.7774418 8.8370244 7.3083336 9.0996094 8 9.0996094 L 8.359375 9.0996094 C 6.8277353 10.238571 5.8989593 12.048909 5.9003906 14 C 5.9034306 16.024912 6.6628927 17.795202 7.671875 19.183594 C 8.5679613 20.416637 9.6594666 21.350358 10.605469 21.900391 L 6 21.900391 A 0.1 0.1 0 0 0 5.9003906 22 A 0.1 0.1 0 0 0 6 22.099609 L 10.986328 22.099609 A 0.1 0.1 0 0 0 11.013672 22.099609 L 12.986328 22.099609 A 0.1 0.1 0 0 0 13.013672 22.099609 L 18 22.099609 A 0.1 0.1 0 0 0 18.099609 22 A 0.1 0.1 0 0 0 18 21.900391 L 13.394531 21.900391 C 14.340729 21.35037 15.433312 20.416647 16.330078 19.183594 C 17.339828 17.795188 18.099609 16.025 18.099609 14 C 18.100881 12.048782 17.170769 10.238426 15.638672 9.0996094 L 16 9.0996094 C 16.691666 9.0996094 17.222558 8.8370243 17.574219 8.4414062 C 17.925879 8.0457884 18.099609 7.5222222 18.099609 7 C 18.099609 6.4777778 17.925879 5.954212 17.574219 5.5585938 C 17.222558 5.1629756 16.691666 4.9003906 16 4.9003906 L 14.099609 4.9003906 L 14.099609 2.0996094 L 15 2.0996094 A 0.1 0.1 0 0 0 15.099609 2 A 0.1 0.1 0 0 0 15 1.9003906 L 14.013672 1.9003906 L 13.986328 1.9003906 L 10.013672 1.9003906 L 9.9863281 1.9003906 L 9 1.9003906 A 0.1 0.1 0 0 0 8.9863281 1.9003906 z M 10.099609 2.0996094 L 13.900391 2.0996094 L 13.900391 7.6328125 C 13.900391 8.0995798 14.19737 8.5013363 14.607422 8.703125 C 14.832324 8.8139442 15.048146 8.9382391 15.253906 9.0742188 A 0.1 0.1 0 0 0 15.269531 9.0859375 C 16.89929 10.171041 17.901688 12.008844 17.900391 14 C 17.900391 15.975 17.160172 17.704812 16.169922 19.066406 C 15.186192 20.419035 13.953639 21.406033 12.974609 21.900391 L 11.025391 21.900391 C 10.046436 21.406047 8.816985 20.419047 7.8339844 19.066406 C 6.8444667 17.704798 6.102572 15.975088 6.0996094 14 C 6.0981519 12.013326 7.0937687 10.177978 8.7167969 9.0917969 A 0.1 0.1 0 0 0 8.75 9.0703125 C 8.9540066 8.9357608 9.1678081 8.8129683 9.390625 8.703125 C 9.8016886 8.5013694 10.099609 8.0995798 10.099609 7.6328125 L 10.099609 5.0136719 A 0.1 0.1 0 0 0 10.099609 5 A 0.1 0.1 0 0 0 10.099609 4.9863281 L 10.099609 2.0996094 z M 8 5.0996094 L 9.9003906 5.0996094 L 9.9003906 7.6328125 C 9.9003906 8.0140452 9.6536708 8.3511931 9.3027344 8.5234375 C 9.0738645 8.6362648 8.8542155 8.7623115 8.6445312 8.9003906 L 8 8.9003906 C 7.3583336 8.9003906 6.8892248 8.6629755 6.5742188 8.3085938 C 6.2592128 7.9542118 6.0996094 7.4777778 6.0996094 7 C 6.0996094 6.5222222 6.2592129 6.0457881 6.5742188 5.6914062 C 6.8892247 5.3370244 7.3583336 5.0996094 8 5.0996094 z M 14.099609 5.0996094 L 16 5.0996094 C 16.641666 5.0996094 17.110775 5.3370245 17.425781 5.6914062 C 17.740787 6.0457881 17.900391 6.5222222 17.900391 7 C 17.900391 7.4777778 17.740787 7.9542118 17.425781 8.3085938 C 17.110775 8.6629755 16.641666 8.9003906 16 8.9003906 L 15.353516 8.9003906 C 15.14373 8.7623028 14.924271 8.6362557 14.695312 8.5234375 C 14.345363 8.3512262 14.099609 8.0140452 14.099609 7.6328125 L 14.099609 5.0996094 z " />
</svg>
