<?xml version="1.0" encoding="UTF-8" standalone="no"?>
<svg
   width="24"
   height="24"
   viewBox="0 0 24 24"
   fill="none"
   stroke="currentColor"
   stroke-width="0.2"
   stroke-linecap="round"
   stroke-linejoin="round"
   version="1.1"
   id="svg3"
   sodipodi:docname=".tmp_asterisk.svg"
   xmlns:inkscape="http://www.inkscape.org/namespaces/inkscape"
   xmlns:sodipodi="http://sodipodi.sourceforge.net/DTD/sodipodi-0.dtd"
   xmlns="http://www.w3.org/2000/svg"
   xmlns:svg="http://www.w3.org/2000/svg">
  <defs
     id="defs3" />
  <sodipodi:namedview
     id="namedview3"
     pagecolor="#ffffff"
     bordercolor="#000000"
     borderopacity="0.25"
     inkscape:showpageshadow="2"
     inkscape:pageopacity="0.0"
     inkscape:pagecheckerboard="0"
     inkscape:deskcolor="#d1d1d1" />
  <path
     id="path1"
     style="baseline-shift:baseline;display:inline;overflow:visible;vector-effect:none;fill:#000000;stroke:none;stroke-linecap:butt;stroke-linejoin:miter;enable-background:accumulate;stop-color:#000000;stop-opacity:1;opacity:1"
     d="M 11.986328 5.9003906 A 0.1 0.1 0 0 0 11.900391 6 L 11.900391 11.828125 L 6.8535156 8.9140625 A 0.1 0.1 0 0 0 6.7167969 8.9492188 A 0.1 0.1 0 0 0 6.7539062 9.0859375 L 11.802734 12 L 6.7539062 14.914062 A 0.1 0.1 0 0 0 6.7167969 15.050781 A 0.1 0.1 0 0 0 6.8535156 15.085938 L 11.900391 12.171875 L 11.900391 18 A 0.1 0.1 0 0 0 12 18.099609 A 0.1 0.1 0 0 0 12.099609 18 L 12.099609 12.171875 L 17.146484 15.085938 A 0.1 0.1 0 0 0 17.283203 15.050781 A 0.1 0.1 0 0 0 17.246094 14.914062 L 12.197266 12 L 17.246094 9.0859375 A 0.1 0.1 0 0 0 17.283203 8.9492188 A 0.1 0.1 0 0 0 17.146484 8.9140625 L 12.099609 11.828125 L 12.099609 6 A 0.1 0.1 0 0 0 12 5.9003906 A 0.1 0.1 0 0 0 11.986328 5.9003906 z " />
</svg>
