<?xml version="1.0" encoding="UTF-8" standalone="no"?>
<svg
   width="24"
   height="24"
   viewBox="0 0 24 24"
   fill="none"
   stroke="currentColor"
   stroke-width="0.2"
   stroke-linecap="round"
   stroke-linejoin="round"
   version="1.1"
   id="svg6"
   sodipodi:docname=".tmp_bandage.svg"
   xmlns:inkscape="http://www.inkscape.org/namespaces/inkscape"
   xmlns:sodipodi="http://sodipodi.sourceforge.net/DTD/sodipodi-0.dtd"
   xmlns="http://www.w3.org/2000/svg"
   xmlns:svg="http://www.w3.org/2000/svg">
  <defs
     id="defs6" />
  <sodipodi:namedview
     id="namedview6"
     pagecolor="#ffffff"
     bordercolor="#000000"
     borderopacity="0.25"
     inkscape:showpageshadow="2"
     inkscape:pageopacity="0.0"
     inkscape:pagecheckerboard="0"
     inkscape:deskcolor="#d1d1d1" />
  <path
     id="path1"
     style="baseline-shift:baseline;display:inline;overflow:visible;vector-effect:none;fill:#000000;stroke:none;stroke-linecap:butt;stroke-linejoin:miter;enable-background:accumulate;stop-color:#000000;stop-opacity:1;opacity:1"
     d="M 4 5.9003906 C 2.8383297 5.9003906 1.9003906 6.8383297 1.9003906 8 L 1.9003906 16 C 1.9003906 17.16167 2.8383297 18.099609 4 18.099609 L 5.9863281 18.099609 L 6.0136719 18.099609 L 20 18.099609 C 21.16167 18.099609 22.099609 17.16167 22.099609 16 L 22.099609 8 C 22.099609 6.8383297 21.16167 5.9003906 20 5.9003906 L 18.013672 5.9003906 L 17.986328 5.9003906 L 6.0136719 5.9003906 L 5.9863281 5.9003906 L 4 5.9003906 z M 4 6.0996094 L 5.9003906 6.0996094 L 5.9003906 17.900391 L 4 17.900391 C 2.9456703 17.900391 2.0996094 17.05433 2.0996094 16 L 2.0996094 8 C 2.0996094 6.9456703 2.9456703 6.0996094 4 6.0996094 z M 6.0996094 6.0996094 L 17.900391 6.0996094 L 17.900391 17.5 A 0.1 0.1 0 0 0 18 17.599609 A 0.1 0.1 0 0 0 18.099609 17.5 L 18.099609 6.0996094 L 20 6.0996094 C 21.05433 6.0996094 21.900391 6.9456703 21.900391 8 L 21.900391 16 C 21.900391 17.05433 21.05433 17.900391 20 17.900391 L 6.0996094 17.900391 L 6.0996094 6.0996094 z M 9.9863281 9.9101562 A 0.1 0.1 0 0 0 9.9003906 10.009766 A 0.1 0.1 0 0 0 10 10.109375 L 10.009766 10.109375 A 0.1 0.1 0 0 0 10.109375 10.009766 A 0.1 0.1 0 0 0 10.009766 9.9101562 L 10 9.9101562 A 0.1 0.1 0 0 0 9.9863281 9.9101562 z M 13.986328 9.9101562 A 0.1 0.1 0 0 0 13.900391 10.009766 A 0.1 0.1 0 0 0 14 10.109375 L 14.009766 10.109375 A 0.1 0.1 0 0 0 14.109375 10.009766 A 0.1 0.1 0 0 0 14.009766 9.9101562 L 14 9.9101562 A 0.1 0.1 0 0 0 13.986328 9.9101562 z M 9.9863281 13.910156 A 0.1 0.1 0 0 0 9.9003906 14.009766 A 0.1 0.1 0 0 0 10 14.109375 L 10.009766 14.109375 A 0.1 0.1 0 0 0 10.109375 14.009766 A 0.1 0.1 0 0 0 10.009766 13.910156 L 10 13.910156 A 0.1 0.1 0 0 0 9.9863281 13.910156 z M 13.986328 13.910156 A 0.1 0.1 0 0 0 13.900391 14.009766 A 0.1 0.1 0 0 0 14 14.109375 L 14.009766 14.109375 A 0.1 0.1 0 0 0 14.109375 14.009766 A 0.1 0.1 0 0 0 14.009766 13.910156 L 14 13.910156 A 0.1 0.1 0 0 0 13.986328 13.910156 z " />
</svg>
