<?xml version="1.0" encoding="UTF-8" standalone="no"?>
<svg
   width="24"
   height="24"
   viewBox="0 0 24 24"
   fill="none"
   stroke="currentColor"
   stroke-width="0.2"
   stroke-linecap="round"
   stroke-linejoin="round"
   version="1.1"
   id="svg8"
   sodipodi:docname=".tmp_beer-off.svg"
   xmlns:inkscape="http://www.inkscape.org/namespaces/inkscape"
   xmlns:sodipodi="http://sodipodi.sourceforge.net/DTD/sodipodi-0.dtd"
   xmlns="http://www.w3.org/2000/svg"
   xmlns:svg="http://www.w3.org/2000/svg">
  <defs
     id="defs8" />
  <sodipodi:namedview
     id="namedview8"
     pagecolor="#ffffff"
     bordercolor="#000000"
     borderopacity="0.25"
     inkscape:showpageshadow="2"
     inkscape:pageopacity="0.0"
     inkscape:pagecheckerboard="0"
     inkscape:deskcolor="#d1d1d1" />
  <path
     id="path1"
     style="baseline-shift:baseline;display:inline;overflow:visible;vector-effect:none;fill:#000000;stroke:none;stroke-linecap:butt;stroke-linejoin:miter;enable-background:accumulate;stop-color:#000000;stop-opacity:1;opacity:1"
     d="M 2 1.9003906 A 0.1 0.1 0 0 0 1.9296875 1.9296875 A 0.1 0.1 0 0 0 1.9296875 2.0703125 L 3.59375 3.734375 C 2.8399582 4.5429893 2.7340792 5.6164559 3.0976562 6.4941406 C 3.4040841 7.2338659 4.0450304 7.8382187 4.9003906 8.0332031 L 4.9003906 20 C 4.9003906 21.158614 5.8413865 22.099609 7 22.099609 L 15 22.099609 C 16.158614 22.099609 17.099609 21.158614 17.099609 20 L 17.099609 17.240234 L 21.929688 22.070312 A 0.1 0.1 0 0 0 22.070312 22.070312 A 0.1 0.1 0 0 0 22.070312 21.929688 L 17.080078 16.941406 A 0.1 0.1 0 0 0 17.076172 16.9375 L 17.072266 16.931641 A 0.1 0.1 0 0 0 17.058594 16.919922 L 13.080078 12.941406 A 0.1 0.1 0 0 0 13.058594 12.919922 L 7.6171875 7.4765625 A 0.1 0.1 0 0 0 7.5898438 7.4511719 L 3.8105469 3.671875 A 0.1 0.1 0 0 0 3.8046875 3.6640625 L 3.8007812 3.6601562 A 0.1 0.1 0 0 0 3.7929688 3.6542969 L 2.0703125 1.9296875 A 0.1 0.1 0 0 0 2 1.9003906 z M 11 1.9003906 C 9.8391405 1.9003906 9.2256941 2.7025829 8.6660156 3.125 A 0.1 0.1 0 0 0 8.6464844 3.2636719 A 0.1 0.1 0 0 0 8.7871094 3.2832031 C 9.3854307 2.8316204 9.9308595 2.0996094 11 2.0996094 C 11.747949 2.0996094 12.218583 2.4547053 12.644531 2.8261719 C 13.07048 3.1976385 13.45 3.5996094 14 3.5996094 C 15.033333 3.5996094 15.762735 3.0996094 16.5 3.0996094 C 17.308333 3.0996094 17.902442 3.3995244 18.300781 3.8476562 C 18.69912 4.295788 18.900391 4.8972222 18.900391 5.5 C 18.900391 6.1027778 18.69912 6.704212 18.300781 7.1523438 C 17.902442 7.6004756 17.308333 7.9003906 16.5 7.9003906 C 15.762735 7.9003906 15.033333 7.4003906 14 7.4003906 C 13.706154 7.4021806 13.413507 7.4430716 13.130859 7.5234375 A 0.1 0.1 0 0 0 13.0625 7.6464844 A 0.1 0.1 0 0 0 13.185547 7.7167969 C 13.450797 7.6413782 13.724242 7.6012933 14 7.5996094 C 14.966667 7.5996094 15.677265 8.0996094 16.5 8.0996094 C 16.638782 8.0996094 16.772271 8.0905364 16.900391 8.0742188 L 16.900391 10.986328 A 0.1 0.1 0 0 0 16.900391 11 A 0.1 0.1 0 0 0 16.900391 11.013672 L 16.900391 11.470703 A 0.1 0.1 0 0 0 17 11.570312 A 0.1 0.1 0 0 0 17.099609 11.470703 L 17.099609 11.099609 L 18 11.099609 C 20.099068 11.099412 21.501621 13.249472 20.654297 15.169922 A 0.1 0.1 0 0 0 20.705078 15.302734 A 0.1 0.1 0 0 0 20.835938 15.251953 C 21.738589 13.206104 20.236129 10.900181 18 10.900391 L 17.099609 10.900391 L 17.099609 8.0429688 C 17.669351 7.9293178 18.121844 7.6534532 18.449219 7.2851562 C 18.884213 6.7957881 19.099609 6.1472222 19.099609 5.5 C 19.099609 4.8527778 18.884213 4.2042119 18.449219 3.7148438 C 18.014225 3.2254756 17.358333 2.9003906 16.5 2.9003906 C 15.677265 2.9003906 14.966667 3.4003906 14 3.4003906 C 13.55 3.4003906 13.209442 3.0523615 12.775391 2.6738281 C 12.341339 2.2952947 11.812051 1.9003906 11 1.9003906 z M 3.734375 3.875 L 7.328125 7.46875 C 6.6280651 7.6076285 6.0670435 7.9003906 5.5 7.9003906 C 4.4264835 7.9005908 3.629733 7.2545014 3.2832031 6.4179688 C 2.9474598 5.6074751 3.0379747 4.6256745 3.734375 3.875 z M 7.5019531 7.6425781 L 12.900391 13.041016 L 12.900391 18 A 0.1 0.1 0 0 0 13 18.099609 A 0.1 0.1 0 0 0 13.099609 18 L 13.099609 13.240234 L 16.900391 17.041016 L 16.900391 20 C 16.900391 21.050525 16.050525 21.900391 15 21.900391 L 7 21.900391 C 5.9494745 21.900391 5.0996094 21.050525 5.0996094 20 L 5.0996094 8.0703125 C 5.2288427 8.0893902 5.3624299 8.099635 5.5 8.0996094 C 6.1746586 8.0996094 6.7758824 7.7610717 7.5019531 7.6425781 z M 8.9863281 14.5 A 0.1 0.1 0 0 0 8.9003906 14.599609 L 8.9003906 18 A 0.1 0.1 0 0 0 9 18.099609 A 0.1 0.1 0 0 0 9.0996094 18 L 9.0996094 14.599609 A 0.1 0.1 0 0 0 9 14.5 A 0.1 0.1 0 0 0 8.9863281 14.5 z " />
</svg>
