<?xml version="1.0" encoding="UTF-8" standalone="no"?>
<svg
   width="24"
   height="24"
   viewBox="0 0 24 24"
   fill="none"
   stroke="currentColor"
   stroke-width="0.2"
   stroke-linecap="round"
   stroke-linejoin="round"
   version="1.1"
   id="svg5"
   sodipodi:docname=".tmp_beer.svg"
   xmlns:inkscape="http://www.inkscape.org/namespaces/inkscape"
   xmlns:sodipodi="http://sodipodi.sourceforge.net/DTD/sodipodi-0.dtd"
   xmlns="http://www.w3.org/2000/svg"
   xmlns:svg="http://www.w3.org/2000/svg">
  <defs
     id="defs5" />
  <sodipodi:namedview
     id="namedview5"
     pagecolor="#ffffff"
     bordercolor="#000000"
     borderopacity="0.25"
     inkscape:showpageshadow="2"
     inkscape:pageopacity="0.0"
     inkscape:pagecheckerboard="0"
     inkscape:deskcolor="#d1d1d1" />
  <path
     id="path1"
     style="baseline-shift:baseline;display:inline;overflow:visible;vector-effect:none;fill:#000000;stroke:none;stroke-linecap:butt;stroke-linejoin:miter;enable-background:accumulate;stop-color:#000000;stop-opacity:1;opacity:1"
     d="M 11 1.9003906 C 10.187949 1.9003906 9.6424613 2.2949883 9.1992188 2.6738281 C 8.9775974 2.863248 8.7779874 3.0491804 8.5839844 3.1835938 C 8.3899813 3.318007 8.2056183 3.4003906 8 3.4003906 C 7.1058423 3.4003906 6.322735 2.9003906 5.5 2.9003906 C 4.641667 2.9003906 3.9857749 3.2254756 3.5507812 3.7148438 C 3.1157875 4.2042119 2.9003906 4.8527778 2.9003906 5.5 C 2.9003906 6.1472222 3.1157875 6.7957881 3.5507812 7.2851562 C 3.8781563 7.6534534 4.3306487 7.9293179 4.9003906 8.0429688 L 4.9003906 20 C 4.9003906 21.158614 5.8413865 22.099609 7 22.099609 L 15 22.099609 C 16.158614 22.099609 17.099609 21.158614 17.099609 20 L 17.099609 17.099609 L 18 17.099609 C 19.025 17.099609 19.805892 16.712024 20.324219 16.128906 C 20.842546 15.545788 21.099609 14.772222 21.099609 14 C 21.099609 13.227778 20.842546 12.454212 20.324219 11.871094 C 19.805892 11.287976 19.025 10.900391 18 10.900391 L 17.099609 10.900391 L 17.099609 8.0429688 C 17.669351 7.929318 18.121843 7.6534535 18.449219 7.2851562 C 18.884213 6.7957881 19.099609 6.1472222 19.099609 5.5 C 19.099609 4.8527778 18.884213 4.2042119 18.449219 3.7148438 C 18.014225 3.2254756 17.358333 2.9003906 16.5 2.9003906 C 15.677265 2.9003906 14.966667 3.4003906 14 3.4003906 C 13.55 3.4003906 13.209442 3.0523615 12.775391 2.6738281 C 12.341339 2.2952947 11.812051 1.9003906 11 1.9003906 z M 11 2.0996094 C 11.747949 2.0996094 12.218583 2.4547053 12.644531 2.8261719 C 13.07048 3.1976385 13.45 3.5996094 14 3.5996094 C 15.033333 3.5996094 15.762735 3.0996094 16.5 3.0996094 C 17.308333 3.0996094 17.902442 3.3995244 18.300781 3.8476562 C 18.69912 4.295788 18.900391 4.8972222 18.900391 5.5 C 18.900391 6.1027778 18.69912 6.704212 18.300781 7.1523438 C 17.902442 7.6004756 17.308333 7.9003906 16.5 7.9003906 C 15.762735 7.9003906 15.033333 7.4003906 14 7.4003906 C 13.483333 7.4003906 13.108847 7.5301089 12.681641 7.6542969 C 12.254434 7.7784848 11.769316 7.9003906 11 7.9003906 C 10.230684 7.9003906 9.745566 7.7784848 9.3183594 7.6542969 C 8.8911528 7.5301089 8.5166667 7.4003906 8 7.4003906 C 6.9666667 7.4003906 6.237265 7.9003906 5.5 7.9003906 C 4.691667 7.9003906 4.097558 7.6004756 3.6992188 7.1523438 C 3.3008795 6.704212 3.0996094 6.1027778 3.0996094 5.5 C 3.0996094 4.8972222 3.3008795 4.2957881 3.6992188 3.8476562 C 4.097558 3.3995244 4.691667 3.0996094 5.5 3.0996094 C 6.237265 3.0996094 7.0341577 3.5996094 8 3.5996094 C 8.2593817 3.5996094 8.4872842 3.494493 8.6992188 3.3476562 C 8.9111531 3.2008195 9.1109963 3.011752 9.328125 2.8261719 C 9.7623824 2.4550117 10.252051 2.0996094 11 2.0996094 z M 8 7.5996094 C 8.4833333 7.5996094 8.8289253 7.7198911 9.2617188 7.8457031 C 9.6945121 7.9715152 10.209316 8.0996094 11 8.0996094 C 11.790684 8.0996094 12.305488 7.9715152 12.738281 7.8457031 C 13.171075 7.7198911 13.516667 7.5996094 14 7.5996094 C 14.966667 7.5996094 15.677265 8.0996094 16.5 8.0996094 C 16.638782 8.0996094 16.772271 8.0905364 16.900391 8.0742188 L 16.900391 10.986328 A 0.1 0.1 0 0 0 16.900391 11 A 0.1 0.1 0 0 0 16.900391 11.013672 L 16.900391 16.986328 A 0.1 0.1 0 0 0 16.900391 17 A 0.1 0.1 0 0 0 16.900391 17.013672 L 16.900391 20 C 16.900391 21.050525 16.050525 21.900391 15 21.900391 L 7 21.900391 C 5.9494745 21.900391 5.0996094 21.050525 5.0996094 20 L 5.0996094 8.0742188 C 5.2277285 8.0905364 5.3612181 8.0996094 5.5 8.0996094 C 6.322735 8.0996094 7.0333333 7.5996094 8 7.5996094 z M 17.099609 11.099609 L 18 11.099609 C 18.975 11.099609 19.694109 11.462024 20.175781 12.003906 C 20.657454 12.545788 20.900391 13.272222 20.900391 14 C 20.900391 14.727778 20.657454 15.454212 20.175781 15.996094 C 19.694109 16.537976 18.975 16.900391 18 16.900391 L 17.099609 16.900391 L 17.099609 11.099609 z M 8.9863281 11.900391 A 0.1 0.1 0 0 0 8.9003906 12 L 8.9003906 18 A 0.1 0.1 0 0 0 9 18.099609 A 0.1 0.1 0 0 0 9.0996094 18 L 9.0996094 12 A 0.1 0.1 0 0 0 9 11.900391 A 0.1 0.1 0 0 0 8.9863281 11.900391 z M 12.986328 11.900391 A 0.1 0.1 0 0 0 12.900391 12 L 12.900391 18 A 0.1 0.1 0 0 0 13 18.099609 A 0.1 0.1 0 0 0 13.099609 18 L 13.099609 12 A 0.1 0.1 0 0 0 13 11.900391 A 0.1 0.1 0 0 0 12.986328 11.900391 z " />
</svg>
