<?xml version="1.0" encoding="UTF-8" standalone="no"?>
<svg
   width="24"
   height="24"
   viewBox="0 0 24 24"
   fill="none"
   stroke="currentColor"
   stroke-width="0.2"
   stroke-linecap="round"
   stroke-linejoin="round"
   version="1.1"
   id="svg6"
   sodipodi:docname=".tmp_blinds.svg"
   xmlns:inkscape="http://www.inkscape.org/namespaces/inkscape"
   xmlns:sodipodi="http://sodipodi.sourceforge.net/DTD/sodipodi-0.dtd"
   xmlns="http://www.w3.org/2000/svg"
   xmlns:svg="http://www.w3.org/2000/svg">
  <defs
     id="defs6" />
  <sodipodi:namedview
     id="namedview6"
     pagecolor="#ffffff"
     bordercolor="#000000"
     borderopacity="0.25"
     inkscape:showpageshadow="2"
     inkscape:pageopacity="0.0"
     inkscape:pagecheckerboard="0"
     inkscape:deskcolor="#d1d1d1" />
  <path
     id="path1"
     style="baseline-shift:baseline;display:inline;overflow:visible;vector-effect:none;fill:#000000;stroke:none;stroke-linecap:butt;stroke-linejoin:miter;enable-background:accumulate;stop-color:#000000;stop-opacity:1;opacity:1"
     d="M 2.9863281 2.9003906 A 0.1 0.1 0 0 0 2.9003906 3 A 0.1 0.1 0 0 0 3 3.0996094 L 3.9003906 3.0996094 L 3.9003906 16.902344 C 2.7879316 16.954434 1.9003906 17.874776 1.9003906 19 C 1.9003906 20.158614 2.8413865 21.099609 4 21.099609 C 5.1586135 21.099609 6.0996094 20.158614 6.0996094 19 C 6.0996094 17.874776 5.2120684 16.954434 4.0996094 16.902344 L 4.0996094 3.0996094 L 21 3.0996094 A 0.1 0.1 0 0 0 21.099609 3 A 0.1 0.1 0 0 0 21 2.9003906 L 3 2.9003906 A 0.1 0.1 0 0 0 2.9863281 2.9003906 z M 7.9863281 6.9003906 A 0.1 0.1 0 0 0 7.9003906 7 A 0.1 0.1 0 0 0 8 7.0996094 L 20 7.0996094 A 0.1 0.1 0 0 0 20.099609 7 A 0.1 0.1 0 0 0 20 6.9003906 L 8 6.9003906 A 0.1 0.1 0 0 0 7.9863281 6.9003906 z M 7.9863281 10.900391 A 0.1 0.1 0 0 0 7.9003906 11 A 0.1 0.1 0 0 0 8 11.099609 L 20 11.099609 A 0.1 0.1 0 0 0 20.099609 11 A 0.1 0.1 0 0 0 20 10.900391 L 8 10.900391 A 0.1 0.1 0 0 0 7.9863281 10.900391 z M 7.9863281 14.900391 A 0.1 0.1 0 0 0 7.9003906 15 A 0.1 0.1 0 0 0 8 15.099609 L 20 15.099609 A 0.1 0.1 0 0 0 20.099609 15 A 0.1 0.1 0 0 0 20 14.900391 L 8 14.900391 A 0.1 0.1 0 0 0 7.9863281 14.900391 z M 3.9863281 17.099609 A 0.1 0.1 0 0 0 4 17.099609 A 0.1 0.1 0 0 0 4.0136719 17.099609 C 5.0578567 17.106982 5.9003906 17.95406 5.9003906 19 C 5.9003906 20.050525 5.0505255 20.900391 4 20.900391 C 2.9494745 20.900391 2.0996094 20.050525 2.0996094 19 C 2.0996094 17.95406 2.9421433 17.106982 3.9863281 17.099609 z M 9.9863281 18.900391 A 0.1 0.1 0 0 0 9.9003906 19 A 0.1 0.1 0 0 0 10 19.099609 L 20 19.099609 A 0.1 0.1 0 0 0 20.099609 19 A 0.1 0.1 0 0 0 20 18.900391 L 10 18.900391 A 0.1 0.1 0 0 0 9.9863281 18.900391 z " />
</svg>
