<?xml version="1.0" encoding="UTF-8" standalone="no"?>
<svg
   width="24"
   height="24"
   viewBox="0 0 24 24"
   fill="none"
   stroke="currentColor"
   stroke-width="0.2"
   stroke-linecap="round"
   stroke-linejoin="round"
   version="1.1"
   id="svg4"
   sodipodi:docname=".tmp_book-key.svg"
   xmlns:inkscape="http://www.inkscape.org/namespaces/inkscape"
   xmlns:sodipodi="http://sodipodi.sourceforge.net/DTD/sodipodi-0.dtd"
   xmlns="http://www.w3.org/2000/svg"
   xmlns:svg="http://www.w3.org/2000/svg">
  <defs
     id="defs4" />
  <sodipodi:namedview
     id="namedview4"
     pagecolor="#ffffff"
     bordercolor="#000000"
     borderopacity="0.25"
     inkscape:showpageshadow="2"
     inkscape:pageopacity="0.0"
     inkscape:pagecheckerboard="0"
     inkscape:deskcolor="#d1d1d1" />
  <path
     id="path1"
     style="baseline-shift:baseline;display:inline;overflow:visible;vector-effect:none;fill:#000000;stroke:none;stroke-linecap:butt;stroke-linejoin:miter;enable-background:accumulate;stop-color:#000000;stop-opacity:1;opacity:1"
     d="M 6.5 1.9003906 C 5.0652441 1.9003906 3.9003906 3.0652441 3.9003906 4.5 L 3.9003906 19.5 A 0.1 0.1 0 0 0 3.9003906 19.515625 C 3.9038315 20.157647 4.1192899 20.799728 4.5507812 21.285156 C 4.985775 21.774524 5.641667 22.099609 6.5 22.099609 L 19 22.099609 C 19.606329 22.099609 20.099609 21.606329 20.099609 21 L 20.099609 17 L 20.099609 7.8984375 A 0.1 0.1 0 0 0 20 7.7988281 A 0.1 0.1 0 0 0 19.900391 7.8984375 L 19.900391 16.900391 L 6.5 16.900391 C 5.641667 16.900391 4.9857751 17.225476 4.5507812 17.714844 C 4.3568819 17.932981 4.2066152 18.182037 4.0996094 18.449219 L 4.0996094 4.5 C 4.0996094 3.1733321 5.1733321 2.0996094 6.5 2.0996094 L 14.34375 2.0996094 A 0.1 0.1 0 0 0 14.443359 2 A 0.1 0.1 0 0 0 14.34375 1.9003906 L 6.5 1.9003906 z M 20 1.9003906 A 0.1 0.1 0 0 0 19.929688 1.9296875 L 18.939453 2.921875 A 0.1 0.1 0 0 0 18.929688 2.9296875 A 0.1 0.1 0 0 0 18.921875 2.9394531 L 15.429688 6.4296875 A 0.1 0.1 0 0 0 15.414062 6.4492188 C 15.040723 6.1084078 14.544712 5.9003906 14 5.9003906 C 12.841386 5.9003906 11.900391 6.8413865 11.900391 8 C 11.900391 9.1586135 12.841386 10.099609 14 10.099609 C 15.158614 10.099609 16.099609 9.1586135 16.099609 8 C 16.099609 7.4552882 15.891592 6.9592772 15.550781 6.5859375 A 0.1 0.1 0 0 0 15.570312 6.5703125 L 19 3.140625 L 19.929688 4.0703125 A 0.1 0.1 0 0 0 20.070312 4.0703125 A 0.1 0.1 0 0 0 20.070312 3.9296875 L 19.140625 3 L 20.070312 2.0703125 A 0.1 0.1 0 0 0 20.070312 1.9296875 A 0.1 0.1 0 0 0 20 1.9003906 z M 14 6.0996094 C 15.050525 6.0996094 15.900391 6.9494745 15.900391 8 C 15.900391 9.0505255 15.050525 9.9003906 14 9.9003906 C 12.949475 9.9003906 12.099609 9.0505255 12.099609 8 C 12.099609 6.9494745 12.949475 6.0996094 14 6.0996094 z M 6.5 17.099609 L 19.900391 17.099609 L 19.900391 21 C 19.900391 21.498241 19.498241 21.900391 19 21.900391 L 6.5 21.900391 C 5.691667 21.900391 5.097558 21.600476 4.6992188 21.152344 C 4.3008795 20.704212 4.0996094 20.102778 4.0996094 19.5 C 4.0996094 18.897222 4.3008796 18.295788 4.6992188 17.847656 C 5.097558 17.399524 5.691667 17.099609 6.5 17.099609 z " />
</svg>
