<?xml version="1.0" encoding="UTF-8" standalone="no"?>
<svg
   width="24"
   height="24"
   viewBox="0 0 24 24"
   fill="none"
   stroke="currentColor"
   stroke-width="0.2"
   stroke-linecap="round"
   stroke-linejoin="round"
   version="1.1"
   id="svg5"
   sodipodi:docname=".tmp_bot.svg"
   xmlns:inkscape="http://www.inkscape.org/namespaces/inkscape"
   xmlns:sodipodi="http://sodipodi.sourceforge.net/DTD/sodipodi-0.dtd"
   xmlns="http://www.w3.org/2000/svg"
   xmlns:svg="http://www.w3.org/2000/svg">
  <defs
     id="defs5" />
  <sodipodi:namedview
     id="namedview5"
     pagecolor="#ffffff"
     bordercolor="#000000"
     borderopacity="0.25"
     inkscape:showpageshadow="2"
     inkscape:pageopacity="0.0"
     inkscape:pagecheckerboard="0"
     inkscape:deskcolor="#d1d1d1" />
  <path
     id="path1"
     style="baseline-shift:baseline;display:inline;overflow:visible;vector-effect:none;fill:#000000;stroke:none;stroke-linecap:butt;stroke-linejoin:miter;enable-background:accumulate;stop-color:#000000;stop-opacity:1;opacity:1"
     d="M 7.9863281 3.9003906 A 0.1 0.1 0 0 0 7.9003906 4 A 0.1 0.1 0 0 0 8 4.0996094 L 11.900391 4.0996094 L 11.900391 7.9003906 L 6 7.9003906 C 4.8383297 7.9003906 3.9003906 8.8383297 3.9003906 10 L 3.9003906 13.900391 L 2 13.900391 A 0.1 0.1 0 0 0 1.9003906 14 A 0.1 0.1 0 0 0 2 14.099609 L 3.9003906 14.099609 L 3.9003906 18 C 3.9003906 19.16167 4.8383297 20.099609 6 20.099609 L 18 20.099609 C 19.16167 20.099609 20.099609 19.16167 20.099609 18 L 20.099609 14.099609 L 22 14.099609 A 0.1 0.1 0 0 0 22.099609 14 A 0.1 0.1 0 0 0 22 13.900391 L 20.099609 13.900391 L 20.099609 10 C 20.099609 8.8383297 19.16167 7.9003906 18 7.9003906 L 12.099609 7.9003906 L 12.099609 4 A 0.10001 0.10001 0 0 0 12 3.9003906 L 8 3.9003906 A 0.1 0.1 0 0 0 7.9863281 3.9003906 z M 6 8.0996094 L 18 8.0996094 C 19.05433 8.0996094 19.900391 8.9456703 19.900391 10 L 19.900391 18 C 19.900391 19.05433 19.05433 19.900391 18 19.900391 L 6 19.900391 C 4.9456703 19.900391 4.0996094 19.05433 4.0996094 18 L 4.0996094 14.013672 A 0.1 0.1 0 0 0 4.0996094 14 A 0.1 0.1 0 0 0 4.0996094 13.986328 L 4.0996094 10 C 4.0996094 8.9456703 4.9456703 8.0996094 6 8.0996094 z M 8.9863281 12.900391 A 0.1 0.1 0 0 0 8.9003906 13 L 8.9003906 15 A 0.1 0.1 0 0 0 9 15.099609 A 0.1 0.1 0 0 0 9.0996094 15 L 9.0996094 13 A 0.1 0.1 0 0 0 9 12.900391 A 0.1 0.1 0 0 0 8.9863281 12.900391 z M 14.986328 12.900391 A 0.1 0.1 0 0 0 14.900391 13 L 14.900391 15 A 0.1 0.1 0 0 0 15 15.099609 A 0.1 0.1 0 0 0 15.099609 15 L 15.099609 13 A 0.1 0.1 0 0 0 15 12.900391 A 0.1 0.1 0 0 0 14.986328 12.900391 z " />
</svg>
