<?xml version="1.0" encoding="UTF-8" standalone="no"?>
<svg
   width="24"
   height="24"
   viewBox="0 0 24 24"
   fill="none"
   stroke="currentColor"
   stroke-width="0.2"
   stroke-linecap="round"
   stroke-linejoin="round"
   version="1.1"
   id="svg5"
   sodipodi:docname=".tmp_calendar-heart.svg"
   xmlns:inkscape="http://www.inkscape.org/namespaces/inkscape"
   xmlns:sodipodi="http://sodipodi.sourceforge.net/DTD/sodipodi-0.dtd"
   xmlns="http://www.w3.org/2000/svg"
   xmlns:svg="http://www.w3.org/2000/svg">
  <defs
     id="defs5" />
  <sodipodi:namedview
     id="namedview5"
     pagecolor="#ffffff"
     bordercolor="#000000"
     borderopacity="0.25"
     inkscape:showpageshadow="2"
     inkscape:pageopacity="0.0"
     inkscape:pagecheckerboard="0"
     inkscape:deskcolor="#d1d1d1" />
  <path
     id="path1"
     style="baseline-shift:baseline;display:inline;overflow:visible;vector-effect:none;fill:#000000;stroke:none;stroke-linecap:butt;stroke-linejoin:miter;enable-background:accumulate;stop-color:#000000;stop-opacity:1;opacity:1"
     d="M 7.9863281 1.9003906 A 0.1 0.1 0 0 0 7.9003906 2 L 7.9003906 3.9003906 L 5 3.9003906 C 3.8413865 3.9003906 2.9003906 4.8413865 2.9003906 6 L 2.9003906 9.9863281 A 0.1 0.1 0 0 0 2.9003906 10 A 0.1 0.1 0 0 0 2.9003906 10.013672 L 2.9003906 20 C 2.9003906 21.158614 3.8413865 22.099609 5 22.099609 L 12.126953 22.099609 A 0.1 0.1 0 0 0 12.226562 22 A 0.1 0.1 0 0 0 12.126953 21.900391 L 5 21.900391 C 3.9494745 21.900391 3.0996094 21.050525 3.0996094 20 L 3.0996094 10.099609 L 20.900391 10.099609 L 20.900391 11.125 A 0.1 0.1 0 0 0 21 11.224609 A 0.1 0.1 0 0 0 21.099609 11.125 L 21.099609 10.013672 A 0.1 0.1 0 0 0 21.099609 10 A 0.1 0.1 0 0 0 21.099609 9.9863281 L 21.099609 6 C 21.099609 4.8413865 20.158614 3.9003906 19 3.9003906 L 16.099609 3.9003906 L 16.099609 2 A 0.1 0.1 0 0 0 16 1.9003906 A 0.1 0.1 0 0 0 15.900391 2 L 15.900391 3.9003906 L 8.0996094 3.9003906 L 8.0996094 2 A 0.1 0.1 0 0 0 8 1.9003906 A 0.1 0.1 0 0 0 7.9863281 1.9003906 z M 5 4.0996094 L 7.9003906 4.0996094 L 7.9003906 6 A 0.1 0.1 0 0 0 8 6.0996094 A 0.1 0.1 0 0 0 8.0996094 6 L 8.0996094 4.0996094 L 15.900391 4.0996094 L 15.900391 6 A 0.1 0.1 0 0 0 16 6.0996094 A 0.1 0.1 0 0 0 16.099609 6 L 16.099609 4.0996094 L 19 4.0996094 C 20.050525 4.0996094 20.900391 4.9494745 20.900391 6 L 20.900391 9.9003906 L 3.0996094 9.9003906 L 3.0996094 6 C 3.0996094 4.9494745 3.9494745 4.0996094 5 4.0996094 z M 16.341797 14.847656 C 15.734774 14.833206 15.147909 15.07967 14.695312 15.476562 C 14.242715 15.873454 13.922367 16.423632 13.857422 17.027344 C 13.792482 17.631055 13.986472 18.284865 14.546875 18.869141 L 17.171875 21.722656 C 17.60844 22.225332 18.393513 22.225332 18.830078 21.722656 L 21.453125 18.871094 L 21.453125 18.869141 C 22.004474 18.285577 22.196912 17.633795 22.130859 17.033203 C 22.064749 16.432049 21.745292 15.885441 21.294922 15.490234 C 20.844552 15.095075 20.260899 14.848778 19.65625 14.861328 C 19.078827 14.873313 18.494002 15.166623 18 15.732422 C 17.506815 15.15889 16.9216 14.861456 16.341797 14.847656 z M 16.335938 15.046875 C 16.885794 15.059965 17.447472 15.306101 17.921875 15.898438 A 0.10001 0.10001 0 0 0 18.078125 15.898438 C 18.553451 15.313956 19.112351 15.07387 19.660156 15.0625 C 20.207962 15.05113 20.747498 15.27313 21.164062 15.638672 C 21.580627 16.004214 21.871742 16.510048 21.931641 17.054688 C 21.991541 17.599328 21.824412 18.185187 21.306641 18.732422 A 0.10001 0.10001 0 0 0 21.306641 18.734375 L 18.679688 21.589844 A 0.10001 0.10001 0 0 0 18.677734 21.591797 C 18.318542 22.005383 17.681458 22.005383 17.322266 21.591797 A 0.10001 0.10001 0 0 0 17.320312 21.589844 L 14.693359 18.732422 A 0.10001 0.10001 0 0 0 14.691406 18.730469 C 14.166093 18.182778 13.997812 17.595685 14.056641 17.048828 C 14.115471 16.501971 14.407462 15.994129 14.826172 15.626953 C 15.244881 15.259777 15.786081 15.033788 16.335938 15.046875 z " />
</svg>
