<?xml version="1.0" encoding="UTF-8" standalone="no"?>
<svg
   width="24"
   height="24"
   viewBox="0 0 24 24"
   fill="none"
   stroke="currentColor"
   stroke-width="0.2"
   stroke-linecap="round"
   stroke-linejoin="round"
   version="1.1"
   id="svg4"
   sodipodi:docname=".tmp_clipboard-pen-line.svg"
   xmlns:inkscape="http://www.inkscape.org/namespaces/inkscape"
   xmlns:sodipodi="http://sodipodi.sourceforge.net/DTD/sodipodi-0.dtd"
   xmlns="http://www.w3.org/2000/svg"
   xmlns:svg="http://www.w3.org/2000/svg">
  <defs
     id="defs4" />
  <sodipodi:namedview
     id="namedview4"
     pagecolor="#ffffff"
     bordercolor="#000000"
     borderopacity="0.25"
     inkscape:showpageshadow="2"
     inkscape:pageopacity="0.0"
     inkscape:pagecheckerboard="0"
     inkscape:deskcolor="#d1d1d1" />
  <path
     id="rect1"
     style="baseline-shift:baseline;display:inline;overflow:visible;vector-effect:none;fill:#000000;stroke:none;stroke-linecap:butt;stroke-linejoin:miter;enable-background:accumulate;stop-color:#000000;stop-opacity:1;opacity:1"
     d="M 9 1.9003906 C 8.3923297 1.9003906 7.9003906 2.3923297 7.9003906 3 L 7.9003906 3.9003906 L 6 3.9003906 C 4.8413865 3.9003906 3.9003906 4.8413865 3.9003906 6 L 3.9003906 20 C 3.9003906 21.158614 4.8413865 22.099609 6 22.099609 L 18 22.099609 C 19.158614 22.099609 20.099609 21.158614 20.099609 20 L 20.099609 19.5 A 0.1 0.1 0 0 0 20 19.400391 A 0.1 0.1 0 0 0 19.900391 19.5 L 19.900391 20 C 19.900391 21.050525 19.050525 21.900391 18 21.900391 L 6 21.900391 C 4.9494745 21.900391 4.0996094 21.050525 4.0996094 20 L 4.0996094 6 C 4.0996094 4.9494745 4.9494745 4.0996094 6 4.0996094 L 7.9003906 4.0996094 L 7.9003906 5 C 7.9003906 5.6076703 8.3923297 6.0996094 9 6.0996094 L 15 6.0996094 C 15.60767 6.0996094 16.099609 5.6076703 16.099609 5 L 16.099609 4.0996094 L 18 4.0996094 C 18.678268 4.1003051 19.303444 4.4633834 19.642578 5.0507812 A 0.1 0.1 0 0 0 19.779297 5.0859375 A 0.1 0.1 0 0 0 19.816406 4.9492188 C 19.441741 4.3002807 18.749329 3.9011592 18 3.9003906 L 16.099609 3.9003906 L 16.099609 3 C 16.099609 2.3923297 15.60767 1.9003906 15 1.9003906 L 9 1.9003906 z M 9 2.0996094 L 15 2.0996094 C 15.50033 2.0996094 15.900391 2.4996703 15.900391 3 L 15.900391 5 C 15.900391 5.5003297 15.50033 5.9003906 15 5.9003906 L 9 5.9003906 C 8.4996703 5.9003906 8.0996094 5.5003297 8.0996094 5 L 8.0996094 4.0136719 A 0.1 0.1 0 0 0 8.0996094 4 A 0.1 0.1 0 0 0 8.0996094 3.9863281 L 8.0996094 3 C 8.0996094 2.4996703 8.4996703 2.0996094 9 2.0996094 z M 19.765625 8.8632812 C 19.269644 8.8866229 18.756285 9.0972301 18.302734 9.5507812 L 14.292969 13.5625 C 14.043331 13.812 13.860649 14.122143 13.761719 14.460938 L 12.925781 17.330078 C 12.794639 17.77971 13.22029 18.205361 13.669922 18.074219 L 16.539062 17.236328 C 16.877858 17.137398 17.186047 16.954716 17.435547 16.705078 L 21.449219 12.697266 C 21.967563 12.178921 22.167677 11.582933 22.134766 11.023438 C 22.101854 10.463941 21.840432 9.9419947 21.449219 9.5507812 C 21.058005 9.1595677 20.53606 8.8981461 19.976562 8.8652344 C 19.906626 8.8611204 19.836479 8.8599467 19.765625 8.8632812 z M 19.775391 9.0625 C 19.839159 9.0595951 19.901791 9.0607442 19.964844 9.0644531 C 20.469263 9.0941251 20.946854 9.3335729 21.306641 9.6933594 C 21.666427 10.053146 21.905875 10.530737 21.935547 11.035156 C 21.965217 11.539576 21.789629 12.071699 21.306641 12.554688 L 17.294922 16.564453 C 17.069178 16.790321 16.788958 16.955411 16.482422 17.044922 L 13.613281 17.882812 C 13.305015 17.972722 13.027276 17.694985 13.117188 17.386719 L 13.953125 14.515625 C 14.042635 14.209089 14.209679 13.930822 14.435547 13.705078 L 18.445312 9.6933594 C 18.867928 9.2707442 19.329014 9.0828345 19.775391 9.0625 z M 7.9863281 17.900391 A 0.1 0.1 0 0 0 7.9003906 18 A 0.1 0.1 0 0 0 8 18.099609 L 9 18.099609 A 0.1 0.1 0 0 0 9.0996094 18 A 0.1 0.1 0 0 0 9 17.900391 L 8 17.900391 A 0.1 0.1 0 0 0 7.9863281 17.900391 z " />
</svg>
