<?xml version="1.0" encoding="UTF-8" standalone="no"?>
<svg
   width="24"
   height="24"
   viewBox="0 0 24 24"
   fill="none"
   stroke="currentColor"
   stroke-width="0.2"
   stroke-linecap="round"
   stroke-linejoin="round"
   version="1.1"
   id="svg4"
   sodipodi:docname=".tmp_cloud-moon-rain.svg"
   xmlns:inkscape="http://www.inkscape.org/namespaces/inkscape"
   xmlns:sodipodi="http://sodipodi.sourceforge.net/DTD/sodipodi-0.dtd"
   xmlns="http://www.w3.org/2000/svg"
   xmlns:svg="http://www.w3.org/2000/svg">
  <defs
     id="defs4" />
  <sodipodi:namedview
     id="namedview4"
     pagecolor="#ffffff"
     bordercolor="#000000"
     borderopacity="0.25"
     inkscape:showpageshadow="2"
     inkscape:pageopacity="0.0"
     inkscape:pagecheckerboard="0"
     inkscape:deskcolor="#d1d1d1" />
  <path
     id="path1"
     style="baseline-shift:baseline;display:inline;overflow:visible;vector-effect:none;fill:#000000;stroke:none;stroke-linecap:butt;stroke-linejoin:miter;enable-background:accumulate;stop-color:#000000;stop-opacity:1;opacity:1"
     d="M 14.722656 3.046875 C 14.680182 3.0489521 14.636369 3.0559396 14.591797 3.0664062 C 12.018407 3.6778355 10.130419 5.8789847 9.9199219 8.515625 A 0.1 0.1 0 0 0 10.011719 8.6230469 A 0.1 0.1 0 0 0 10.119141 8.53125 C 10.322798 5.9802786 12.146943 3.8513286 14.636719 3.2597656 C 14.906141 3.1964986 15.095095 3.3285986 15.212891 3.5566406 C 15.330686 3.7846821 15.352641 4.106945 15.238281 4.3710938 C 14.502316 6.071611 14.996654 7.7933194 16.101562 8.8984375 C 17.206471 10.003556 18.928249 10.499313 20.628906 9.7636719 C 20.893033 9.6488733 21.215213 9.6695394 21.443359 9.7871094 C 21.671506 9.9046796 21.803893 10.092501 21.740234 10.361328 C 21.310798 12.175948 20.048007 13.680947 18.335938 14.419922 A 0.1 0.1 0 0 0 18.285156 14.550781 A 0.1 0.1 0 0 0 18.416016 14.603516 C 20.185953 13.839563 21.489642 12.284159 21.933594 10.408203 C 22.017934 10.052026 21.82076 9.7565547 21.535156 9.609375 C 21.249553 9.4621953 20.873702 9.4388767 20.548828 9.5800781 C 18.923033 10.283337 17.29505 9.8108747 16.242188 8.7578125 C 15.189325 7.7047503 14.718307 6.0768335 15.421875 4.4511719 C 15.562515 4.1263207 15.538079 3.7503021 15.390625 3.4648438 C 15.261603 3.2150676 15.019977 3.032335 14.722656 3.046875 z M 7.1816406 11.902344 C 6.428737 11.874654 5.6545766 12.015038 4.9101562 12.349609 C 1.9324749 13.687893 0.96237891 17.447944 2.9199219 20.060547 A 0.1 0.1 0 0 0 3.0605469 20.080078 A 0.1 0.1 0 0 0 3.0800781 19.939453 C 1.1966528 17.425771 2.1272488 13.820816 4.9921875 12.533203 C 7.8571262 11.24559 11.173358 12.942231 11.802734 16.019531 A 0.10001 0.10001 0 0 0 11.900391 16.099609 L 13 16.099609 C 14.33833 16.097609 15.313507 16.920412 15.712891 17.966797 C 16.112274 19.013182 15.932883 20.275761 14.933594 21.166016 A 0.1 0.1 0 0 0 14.925781 21.306641 A 0.1 0.1 0 0 0 15.066406 21.314453 C 16.127215 20.369391 16.326267 19.010328 15.900391 17.894531 C 15.474514 16.778735 14.42074 15.898303 13 15.900391 L 11.960938 15.900391 C 11.437258 13.552331 9.4116602 11.984365 7.1816406 11.902344 z M 6.9863281 18.900391 A 0.1 0.1 0 0 0 6.9003906 19 L 6.9003906 21 A 0.1 0.1 0 0 0 7 21.099609 A 0.1 0.1 0 0 0 7.0996094 21 L 7.0996094 19 A 0.1 0.1 0 0 0 7 18.900391 A 0.1 0.1 0 0 0 6.9863281 18.900391 z M 10.986328 19.900391 A 0.1 0.1 0 0 0 10.900391 20 L 10.900391 22 A 0.1 0.1 0 0 0 11 22.099609 A 0.1 0.1 0 0 0 11.099609 22 L 11.099609 20 A 0.1 0.1 0 0 0 11 19.900391 A 0.1 0.1 0 0 0 10.986328 19.900391 z " />
</svg>
