<?xml version="1.0" encoding="UTF-8" standalone="no"?>
<svg
   width="24"
   height="24"
   viewBox="0 0 24 24"
   fill="none"
   stroke="currentColor"
   stroke-width="0.2"
   stroke-linecap="round"
   stroke-linejoin="round"
   version="1.1"
   id="svg8"
   sodipodi:docname=".tmp_cloud-sun-rain.svg"
   xmlns:inkscape="http://www.inkscape.org/namespaces/inkscape"
   xmlns:sodipodi="http://sodipodi.sourceforge.net/DTD/sodipodi-0.dtd"
   xmlns="http://www.w3.org/2000/svg"
   xmlns:svg="http://www.w3.org/2000/svg">
  <defs
     id="defs8" />
  <sodipodi:namedview
     id="namedview8"
     pagecolor="#ffffff"
     bordercolor="#000000"
     borderopacity="0.25"
     inkscape:showpageshadow="2"
     inkscape:pageopacity="0.0"
     inkscape:pagecheckerboard="0"
     inkscape:deskcolor="#d1d1d1" />
  <path
     id="path1"
     style="baseline-shift:baseline;display:inline;overflow:visible;vector-effect:none;fill:#000000;stroke:none;stroke-linecap:butt;stroke-linejoin:miter;enable-background:accumulate;stop-color:#000000;stop-opacity:1;opacity:1"
     d="M 11.986328 1.9003906 A 0.1 0.1 0 0 0 11.900391 2 L 11.900391 4 A 0.1 0.1 0 0 0 12 4.0996094 A 0.1 0.1 0 0 0 12.099609 4 L 12.099609 2 A 0.1 0.1 0 0 0 12 1.9003906 A 0.1 0.1 0 0 0 11.986328 1.9003906 z M 4.9296875 4.8300781 A 0.1 0.1 0 0 0 4.859375 4.859375 A 0.1 0.1 0 0 0 4.859375 5 L 6.2695312 6.4101562 A 0.1 0.1 0 0 0 6.4101562 6.4101562 A 0.1 0.1 0 0 0 6.4101562 6.2695312 L 5 4.859375 A 0.1 0.1 0 0 0 4.9296875 4.8300781 z M 19.070312 4.8300781 A 0.1 0.1 0 0 0 19 4.859375 L 17.589844 6.2695312 A 0.1 0.1 0 0 0 17.589844 6.4101562 A 0.1 0.1 0 0 0 17.730469 6.4101562 L 19.140625 5 A 0.1 0.1 0 0 0 19.140625 4.859375 A 0.1 0.1 0 0 0 19.070312 4.8300781 z M 12.263672 7.9003906 C 11.510237 7.8489306 10.720745 8.0098186 9.9726562 8.4355469 A 0.1 0.1 0 0 0 9.9355469 8.5722656 A 0.1 0.1 0 0 0 10.072266 8.609375 C 12.930229 6.9829435 16.383268 9.3883778 15.847656 12.632812 A 0.1 0.1 0 0 0 15.931641 12.748047 A 0.1 0.1 0 0 0 16.044922 12.666016 C 16.465521 10.118265 14.523976 8.0547713 12.263672 7.9003906 z M 19.986328 11.900391 A 0.1 0.1 0 0 0 19.900391 12 A 0.1 0.1 0 0 0 20 12.099609 L 22 12.099609 A 0.1 0.1 0 0 0 22.099609 12 A 0.1 0.1 0 0 0 22 11.900391 L 20 11.900391 A 0.1 0.1 0 0 0 19.986328 11.900391 z M 7.1816406 11.902344 C 6.428737 11.874654 5.6545766 12.015038 4.9101562 12.349609 C 1.9324749 13.687893 0.96237891 17.447944 2.9199219 20.060547 A 0.1 0.1 0 0 0 3.0605469 20.080078 A 0.1 0.1 0 0 0 3.0800781 19.939453 C 1.1966528 17.425771 2.1272488 13.820816 4.9921875 12.533203 C 7.8571262 11.24559 11.173358 12.942231 11.802734 16.019531 A 0.10001 0.10001 0 0 0 11.900391 16.099609 L 13 16.099609 C 14.33833 16.097609 15.313507 16.920412 15.712891 17.966797 C 16.112274 19.013182 15.932883 20.275761 14.933594 21.166016 A 0.1 0.1 0 0 0 14.925781 21.306641 A 0.1 0.1 0 0 0 15.066406 21.314453 C 16.127215 20.369391 16.326267 19.010328 15.900391 17.894531 C 15.474514 16.778735 14.42074 15.898303 13 15.900391 L 11.960938 15.900391 C 11.437258 13.552331 9.4116602 11.984365 7.1816406 11.902344 z M 6.9863281 18.900391 A 0.1 0.1 0 0 0 6.9003906 19 L 6.9003906 21 A 0.1 0.1 0 0 0 7 21.099609 A 0.1 0.1 0 0 0 7.0996094 21 L 7.0996094 19 A 0.1 0.1 0 0 0 7 18.900391 A 0.1 0.1 0 0 0 6.9863281 18.900391 z M 10.986328 19.900391 A 0.1 0.1 0 0 0 10.900391 20 L 10.900391 22 A 0.1 0.1 0 0 0 11 22.099609 A 0.1 0.1 0 0 0 11.099609 22 L 11.099609 20 A 0.1 0.1 0 0 0 11 19.900391 A 0.1 0.1 0 0 0 10.986328 19.900391 z " />
</svg>
