<?xml version="1.0" encoding="UTF-8" standalone="no"?>
<svg
   width="24"
   height="24"
   viewBox="0 0 24 24"
   fill="none"
   stroke="currentColor"
   stroke-width="0.2"
   stroke-linecap="round"
   stroke-linejoin="round"
   version="1.1"
   id="svg13"
   sodipodi:docname=".tmp_cog.svg"
   xmlns:inkscape="http://www.inkscape.org/namespaces/inkscape"
   xmlns:sodipodi="http://sodipodi.sourceforge.net/DTD/sodipodi-0.dtd"
   xmlns="http://www.w3.org/2000/svg"
   xmlns:svg="http://www.w3.org/2000/svg">
  <defs
     id="defs13" />
  <sodipodi:namedview
     id="namedview13"
     pagecolor="#ffffff"
     bordercolor="#000000"
     borderopacity="0.25"
     inkscape:showpageshadow="2"
     inkscape:pageopacity="0.0"
     inkscape:pagecheckerboard="0"
     inkscape:deskcolor="#d1d1d1" />
  <path
     id="path1"
     style="baseline-shift:baseline;display:inline;overflow:visible;vector-effect:none;fill:#000000;stroke:none;stroke-linecap:butt;stroke-linejoin:miter;enable-background:accumulate;stop-color:#000000;stop-opacity:1;opacity:1"
     d="M 11.986328 1.9003906 A 0.1 0.1 0 0 0 11.900391 2 L 11.900391 3.9003906 C 10.497777 3.9173057 9.1799354 4.2916629 8.0351562 4.9355469 L 7.0859375 3.2890625 A 0.1 0.1 0 0 0 6.9492188 3.2539062 A 0.1 0.1 0 0 0 6.9140625 3.390625 L 7.8632812 5.0351562 C 6.7007605 5.7272616 5.7270028 6.7025417 5.0351562 7.8652344 L 3.390625 6.9140625 A 0.1 0.1 0 0 0 3.2539062 6.9492188 A 0.1 0.1 0 0 0 3.2890625 7.0859375 L 4.9355469 8.0371094 C 4.2920115 9.1816528 3.9173007 10.498189 3.9003906 11.900391 L 2 11.900391 A 0.1 0.1 0 0 0 1.9003906 12 A 0.1 0.1 0 0 0 2 12.099609 L 3.9003906 12.099609 C 3.9173007 13.501811 4.2920114 14.818347 4.9355469 15.962891 L 3.2890625 16.914062 A 0.1 0.1 0 0 0 3.2539062 17.050781 A 0.1 0.1 0 0 0 3.390625 17.085938 L 5.0351562 16.134766 C 5.7270027 17.297457 6.7007613 18.272739 7.8632812 18.964844 L 6.9140625 20.609375 A 0.1 0.1 0 0 0 6.9492188 20.746094 A 0.1 0.1 0 0 0 7.0859375 20.710938 L 8.0351562 19.064453 C 9.1799358 19.708338 10.497776 20.082694 11.900391 20.099609 L 11.900391 22 A 0.1 0.1 0 0 0 12 22.099609 A 0.1 0.1 0 0 0 12.099609 22 L 12.099609 20.099609 C 13.501809 20.082699 14.818348 19.707987 15.962891 19.064453 L 16.914062 20.710938 A 0.1 0.1 0 0 0 17.050781 20.746094 A 0.1 0.1 0 0 0 17.085938 20.609375 L 16.134766 18.964844 C 17.29799 18.272681 18.27268 17.29799 18.964844 16.134766 L 20.609375 17.085938 A 0.1 0.1 0 0 0 20.746094 17.050781 A 0.1 0.1 0 0 0 20.710938 16.914062 L 19.064453 15.962891 C 19.707989 14.818347 20.082699 13.501811 20.099609 12.099609 L 22 12.099609 A 0.1 0.1 0 0 0 22.099609 12 A 0.1 0.1 0 0 0 22 11.900391 L 20.099609 11.900391 C 20.082699 10.498189 19.707989 9.1816529 19.064453 8.0371094 L 20.710938 7.0859375 A 0.1 0.1 0 0 0 20.746094 6.9492188 A 0.1 0.1 0 0 0 20.609375 6.9140625 L 18.964844 7.8652344 C 18.272681 6.7020106 17.297989 5.7273193 16.134766 5.0351562 L 17.085938 3.390625 A 0.1 0.1 0 0 0 17.050781 3.2539062 A 0.1 0.1 0 0 0 16.914062 3.2890625 L 15.962891 4.9355469 C 14.818347 4.2920114 13.501811 3.9173007 12.099609 3.9003906 L 12.099609 2 A 0.1 0.1 0 0 0 12 1.9003906 A 0.1 0.1 0 0 0 11.986328 1.9003906 z M 11.986328 4.0996094 A 0.1 0.1 0 0 0 12 4.0996094 A 0.1 0.1 0 0 0 12.013672 4.0996094 C 13.443746 4.1020593 14.785317 4.4839567 15.941406 5.1503906 A 0.1 0.1 0 0 0 15.949219 5.15625 A 0.1 0.1 0 0 0 15.958984 5.1621094 C 17.151839 5.8539877 18.146008 6.8481633 18.837891 8.0410156 A 0.1 0.1 0 0 0 18.84375 8.0507812 A 0.1 0.1 0 0 0 18.849609 8.0585938 C 19.502694 9.1915358 19.883131 10.502494 19.900391 11.900391 L 14.097656 11.900391 C 14.045567 10.787931 13.125224 9.9003906 12 9.9003906 C 11.652696 9.9003906 11.325821 9.9851433 11.037109 10.134766 L 8.1347656 5.1074219 C 9.2734501 4.467736 10.587491 4.1020074 11.986328 4.0996094 z M 7.9628906 5.2070312 L 10.865234 10.234375 C 10.285498 10.608267 9.9003906 11.259629 9.9003906 12 C 9.9003906 12.740371 10.285497 13.391733 10.865234 13.765625 L 7.9628906 18.792969 C 6.8047863 18.103311 5.8387935 17.125637 5.1621094 15.958984 A 0.1 0.1 0 0 0 5.15625 15.949219 A 0.1 0.1 0 0 0 5.1503906 15.941406 C 4.4839626 14.78532 4.1020593 13.443739 4.0996094 12.013672 A 0.1 0.1 0 0 0 4.0996094 12 A 0.1 0.1 0 0 0 4.0996094 11.986328 C 4.1020593 10.556261 4.483963 9.2146794 5.1503906 8.0585938 A 0.1 0.1 0 0 0 5.15625 8.0507812 A 0.1 0.1 0 0 0 5.1621094 8.0410156 C 5.8387936 6.8743623 6.8047857 5.8966891 7.9628906 5.2070312 z M 12 10.099609 C 13.050525 10.099609 13.900391 10.949475 13.900391 12 A 0.1 0.1 0 0 0 13.900391 12.013672 C 13.893018 13.057856 13.04594 13.900391 12 13.900391 C 11.662673 13.900391 11.34672 13.811964 11.072266 13.658203 A 0.1 0.1 0 0 0 11.050781 13.642578 A 0.1 0.1 0 0 0 11.025391 13.632812 C 10.470567 13.301176 10.099609 12.694148 10.099609 12 C 10.099609 11.305853 10.470568 10.698825 11.025391 10.367188 A 0.1 0.1 0 0 0 11.050781 10.357422 A 0.1 0.1 0 0 0 11.072266 10.341797 C 11.346719 10.188037 11.662674 10.099609 12 10.099609 z M 14.097656 12.099609 L 19.900391 12.099609 C 19.883131 13.497515 19.502702 14.808459 18.849609 15.941406 A 0.1 0.1 0 0 0 18.84375 15.949219 A 0.1 0.1 0 0 0 18.837891 15.958984 C 18.146008 17.151845 17.151846 18.146008 15.958984 18.837891 A 0.1 0.1 0 0 0 15.949219 18.84375 A 0.1 0.1 0 0 0 15.941406 18.849609 C 14.785321 19.516036 13.443737 19.897941 12.013672 19.900391 A 0.1 0.1 0 0 0 12 19.900391 C 11.995383 19.900391 11.990943 19.900399 11.986328 19.900391 C 10.58749 19.897993 9.2734506 19.532265 8.1347656 18.892578 L 11.037109 13.865234 C 11.325822 14.014858 11.652695 14.099609 12 14.099609 C 13.125224 14.099609 14.045567 13.212069 14.097656 12.099609 z " />
</svg>
