<?xml version="1.0" encoding="UTF-8" standalone="no"?>
<svg
   width="24"
   height="24"
   viewBox="0 0 24 24"
   fill="none"
   stroke="currentColor"
   stroke-width="0.2"
   stroke-linecap="round"
   stroke-linejoin="round"
   version="1.1"
   id="svg1"
   sodipodi:docname=".tmp_command.svg"
   xmlns:inkscape="http://www.inkscape.org/namespaces/inkscape"
   xmlns:sodipodi="http://sodipodi.sourceforge.net/DTD/sodipodi-0.dtd"
   xmlns="http://www.w3.org/2000/svg"
   xmlns:svg="http://www.w3.org/2000/svg">
  <defs
     id="defs1" />
  <sodipodi:namedview
     id="namedview1"
     pagecolor="#ffffff"
     bordercolor="#000000"
     borderopacity="0.25"
     inkscape:showpageshadow="2"
     inkscape:pageopacity="0.0"
     inkscape:pagecheckerboard="0"
     inkscape:deskcolor="#d1d1d1" />
  <path
     id="path1"
     style="baseline-shift:baseline;display:inline;overflow:visible;vector-effect:none;fill:#000000;stroke:none;stroke-linecap:butt;stroke-linejoin:miter;enable-background:accumulate;stop-color:#000000;stop-opacity:1;opacity:1"
     d="M 5.9003906 2.8964844 C 5.7530534 2.9002141 5.6060278 2.913918 5.4589844 2.9394531 C 4.8708106 3.0415936 4.2952912 3.3218963 3.8085938 3.8085938 C 2.8351988 4.7819885 2.6903686 6.1078223 3.1367188 7.1855469 C 3.5830687 8.2632715 4.6232513 9.0996094 6 9.0996094 L 8.9003906 9.0996094 L 8.9003906 14.900391 L 6 14.900391 C 4.6232513 14.900391 3.5830688 15.736729 3.1367188 16.814453 C 2.6903686 17.892178 2.8351988 19.218011 3.8085938 20.191406 C 4.7819885 21.164801 6.1078223 21.309631 7.1855469 20.863281 C 8.2632715 20.416931 9.0996094 19.376749 9.0996094 18 L 9.0996094 15.099609 L 14.900391 15.099609 L 14.900391 18 C 14.900391 19.376749 15.736729 20.416931 16.814453 20.863281 C 17.892178 21.309631 19.218011 21.164801 20.191406 20.191406 C 21.164801 19.218011 21.309631 17.892178 20.863281 16.814453 C 20.416931 15.736729 19.376749 14.900391 18 14.900391 L 15.099609 14.900391 L 15.099609 9.0996094 L 18 9.0996094 C 19.376749 9.0996094 20.416931 8.2632715 20.863281 7.1855469 C 21.309631 6.1078223 21.164801 4.7819885 20.191406 3.8085938 C 19.218011 2.8351988 17.892178 2.6903686 16.814453 3.1367188 C 15.736729 3.5830687 14.900391 4.6232513 14.900391 6 L 14.900391 8.9003906 L 9.0996094 8.9003906 L 9.0996094 6 C 9.0996094 4.6232513 8.2632715 3.5830688 7.1855469 3.1367188 C 6.7814001 2.9693374 6.3424024 2.8852952 5.9003906 2.8964844 z M 5.90625 3.09375 C 6.3193591 3.0835433 6.7304629 3.1633824 7.109375 3.3203125 C 8.1198074 3.7387929 8.9003906 4.7038483 8.9003906 6 L 8.9003906 8.9003906 L 6 8.9003906 C 4.7038483 8.9003906 3.7387929 8.1198074 3.3203125 7.109375 C 2.9018321 6.0989426 3.0328166 4.8656207 3.9492188 3.9492188 C 4.4074198 3.4910176 4.9449188 3.229707 5.4941406 3.1347656 C 5.6314462 3.1110303 5.768547 3.0971522 5.90625 3.09375 z M 18.09375 3.09375 C 18.231453 3.0971522 18.368554 3.1110303 18.505859 3.1347656 C 19.055081 3.2297066 19.59258 3.4910177 20.050781 3.9492188 C 20.967183 4.8656207 21.098168 6.0989426 20.679688 7.109375 C 20.261208 8.1198074 19.296152 8.9003906 18 8.9003906 L 15.099609 8.9003906 L 15.099609 6 C 15.099609 4.7038483 15.880193 3.7387929 16.890625 3.3203125 C 17.269537 3.1633824 17.680641 3.0835433 18.09375 3.09375 z M 9.0996094 9.0996094 L 14.900391 9.0996094 L 14.900391 14.900391 L 9.0996094 14.900391 L 9.0996094 9.0996094 z M 6 15.099609 L 8.9003906 15.099609 L 8.9003906 18 C 8.9003906 19.296152 8.1198074 20.261207 7.109375 20.679688 C 6.0989426 21.098168 4.8656207 20.967183 3.9492188 20.050781 C 3.0328167 19.134379 2.9018321 17.901057 3.3203125 16.890625 C 3.7387929 15.880193 4.7038483 15.099609 6 15.099609 z M 15.099609 15.099609 L 18 15.099609 C 19.296152 15.099609 20.261207 15.880193 20.679688 16.890625 C 21.098168 17.901057 20.967183 19.134379 20.050781 20.050781 C 19.134379 20.967183 17.901057 21.098168 16.890625 20.679688 C 15.880193 20.261207 15.099609 19.296152 15.099609 18 L 15.099609 15.099609 z " />
</svg>
