<?xml version="1.0" encoding="UTF-8" standalone="no"?>
<svg
   width="24"
   height="24"
   viewBox="0 0 24 24"
   fill="none"
   stroke="currentColor"
   stroke-width="0.2"
   stroke-linecap="round"
   stroke-linejoin="round"
   version="1.1"
   id="svg4"
   sodipodi:docname=".tmp_concierge-bell.svg"
   xmlns:inkscape="http://www.inkscape.org/namespaces/inkscape"
   xmlns:sodipodi="http://sodipodi.sourceforge.net/DTD/sodipodi-0.dtd"
   xmlns="http://www.w3.org/2000/svg"
   xmlns:svg="http://www.w3.org/2000/svg">
  <defs
     id="defs4" />
  <sodipodi:namedview
     id="namedview4"
     pagecolor="#ffffff"
     bordercolor="#000000"
     borderopacity="0.25"
     inkscape:showpageshadow="2"
     inkscape:pageopacity="0.0"
     inkscape:pagecheckerboard="0"
     inkscape:deskcolor="#d1d1d1" />
  <path
     id="path1"
     style="baseline-shift:baseline;display:inline;overflow:visible;vector-effect:none;fill:#000000;stroke:none;stroke-linecap:butt;stroke-linejoin:miter;enable-background:accumulate;stop-color:#000000;stop-opacity:1;opacity:1"
     d="M 9.9863281 3.9003906 A 0.1 0.1 0 0 0 9.9003906 4 A 0.1 0.1 0 0 0 10 4.0996094 L 11.900391 4.0996094 L 11.900391 7.9003906 C 7.5063319 7.9533815 3.9521594 11.507989 3.9003906 15.902344 C 2.7876635 15.954145 1.9003906 16.874582 1.9003906 18 L 1.9003906 19 C 1.9003906 19.606329 2.3936712 20.099609 3 20.099609 L 21 20.099609 C 21.606329 20.099609 22.099609 19.606329 22.099609 19 L 22.099609 18 C 22.099609 16.874582 21.212337 15.954144 20.099609 15.902344 C 20.047841 11.507989 16.493668 7.9533815 12.099609 7.9003906 L 12.099609 4.0996094 L 14 4.0996094 A 0.1 0.1 0 0 0 14.099609 4 A 0.1 0.1 0 0 0 14 3.9003906 L 12.013672 3.9003906 L 11.986328 3.9003906 L 10 3.9003906 A 0.1 0.1 0 0 0 9.9863281 3.9003906 z M 11.986328 8.0996094 A 0.1 0.1 0 0 0 12 8.0996094 C 16.330983 8.0996094 19.847073 11.582083 19.900391 15.900391 L 4.0996094 15.900391 C 4.1528707 11.586668 7.6616766 8.1069933 11.986328 8.0996094 z M 3.9863281 16.099609 A 0.1 0.1 0 0 0 4 16.099609 L 20 16.099609 C 21.050525 16.099609 21.900391 16.949475 21.900391 18 L 21.900391 19 C 21.900391 19.498241 21.498241 19.900391 21 19.900391 L 3 19.900391 C 2.5017593 19.900391 2.0996094 19.498241 2.0996094 19 L 2.0996094 18 C 2.0996094 16.95406 2.9421433 16.106982 3.9863281 16.099609 z " />
</svg>
