<?xml version="1.0" encoding="UTF-8" standalone="no"?>
<svg
   width="24"
   height="24"
   viewBox="0 0 24 24"
   fill="none"
   stroke="currentColor"
   stroke-width="0.2"
   stroke-linecap="round"
   stroke-linejoin="round"
   version="1.1"
   id="svg4"
   sodipodi:docname=".tmp_cooking-pot.svg"
   xmlns:inkscape="http://www.inkscape.org/namespaces/inkscape"
   xmlns:sodipodi="http://sodipodi.sourceforge.net/DTD/sodipodi-0.dtd"
   xmlns="http://www.w3.org/2000/svg"
   xmlns:svg="http://www.w3.org/2000/svg">
  <defs
     id="defs4" />
  <sodipodi:namedview
     id="namedview4"
     pagecolor="#ffffff"
     bordercolor="#000000"
     borderopacity="0.25"
     inkscape:showpageshadow="2"
     inkscape:pageopacity="0.0"
     inkscape:pagecheckerboard="0"
     inkscape:deskcolor="#d1d1d1" />
  <path
     id="path1"
     style="baseline-shift:baseline;display:inline;overflow:visible;vector-effect:none;fill:#000000;stroke:none;stroke-linecap:butt;stroke-linejoin:miter;enable-background:accumulate;stop-color:#000000;stop-opacity:1;opacity:1"
     d="M 12.197266 1.9003906 C 12.057541 1.9065193 11.916286 1.9274158 11.775391 1.9628906 L 9.8359375 2.4433594 C 8.7117384 2.7267535 8.0280661 3.8702041 8.3125 4.9941406 L 8.7402344 6.7109375 L 3.9765625 7.9023438 A 0.1 0.1 0 0 0 3.9023438 8.0234375 A 0.1 0.1 0 0 0 4.0234375 8.0976562 L 20.023438 4.0976562 A 0.1 0.1 0 0 0 20.097656 3.9765625 A 0.1 0.1 0 0 0 19.976562 3.9023438 L 14.755859 5.2070312 L 14.326172 3.4960938 C 14.082351 2.5087048 13.175339 1.8574898 12.197266 1.9003906 z M 12.207031 2.0996094 C 13.093062 2.0604169 13.911732 2.649626 14.132812 3.5449219 L 14.560547 5.2558594 L 8.9335938 6.6621094 L 8.5078125 4.9453125 C 8.2499124 3.9262241 8.8654391 2.8936761 9.8847656 2.6367188 L 11.824219 2.15625 C 11.951973 2.1240839 12.080455 2.1052083 12.207031 2.0996094 z M 1.9863281 11.900391 A 0.1 0.1 0 0 0 1.9003906 12 A 0.1 0.1 0 0 0 2 12.099609 L 3.9003906 12.099609 L 3.9003906 20 C 3.9003906 21.158614 4.8413865 22.099609 6 22.099609 L 18 22.099609 C 19.158614 22.099609 20.099609 21.158614 20.099609 20 L 20.099609 12.099609 L 22 12.099609 A 0.1 0.1 0 0 0 22.099609 12 A 0.1 0.1 0 0 0 22 11.900391 L 2 11.900391 A 0.1 0.1 0 0 0 1.9863281 11.900391 z M 4.0996094 12.099609 L 19.900391 12.099609 L 19.900391 20 C 19.900391 21.050525 19.050525 21.900391 18 21.900391 L 6 21.900391 C 4.9494745 21.900391 4.0996094 21.050525 4.0996094 20 L 4.0996094 12.099609 z " />
</svg>
