<?xml version="1.0" encoding="UTF-8" standalone="no"?>
<svg
   width="24"
   height="24"
   viewBox="0 0 24 24"
   fill="none"
   stroke="currentColor"
   stroke-width="0.2"
   stroke-linecap="round"
   stroke-linejoin="round"
   version="1.1"
   id="svg5"
   sodipodi:docname=".tmp_croissant.svg"
   xmlns:inkscape="http://www.inkscape.org/namespaces/inkscape"
   xmlns:sodipodi="http://sodipodi.sourceforge.net/DTD/sodipodi-0.dtd"
   xmlns="http://www.w3.org/2000/svg"
   xmlns:svg="http://www.w3.org/2000/svg">
  <defs
     id="defs5" />
  <sodipodi:namedview
     id="namedview5"
     pagecolor="#ffffff"
     bordercolor="#000000"
     borderopacity="0.25"
     inkscape:showpageshadow="2"
     inkscape:pageopacity="0.0"
     inkscape:pagecheckerboard="0"
     inkscape:deskcolor="#d1d1d1" />
  <path
     id="path1"
     style="baseline-shift:baseline;display:inline;overflow:visible;vector-effect:none;fill:#000000;stroke:none;stroke-linecap:butt;stroke-linejoin:miter;enable-background:accumulate;stop-color:#000000;stop-opacity:1;opacity:1"
     d="M 8.9375 2.4179688 C 8.8532506 2.4241675 8.7696533 2.4370442 8.6855469 2.4570312 A 0.1 0.1 0 0 0 8.6816406 2.4628906 A 0.1 0.1 0 0 0 8.6757812 2.4589844 C 5.7631965 3.4732833 3.4732802 5.763192 2.4589844 8.6757812 A 0.10001 0.10001 0 0 0 2.4570312 8.6855469 C 2.2971321 9.3583935 2.587948 10.058747 3.1777344 10.419922 A 0.10001 0.10001 0 0 0 3.1816406 10.421875 L 3.4414062 10.566406 C 2.7567679 12.670144 2.7165979 14.929024 3.3261719 17.056641 A 0.10001 0.10001 0 0 0 3.328125 17.064453 C 3.5558471 17.668533 4.1262892 18.07741 4.7714844 18.099609 A 0.10001 0.10001 0 0 0 4.7734375 18.099609 L 4.9003906 18.099609 C 4.9198662 19.185011 5.257787 20.167283 5.7988281 20.888672 C 6.3563705 21.632062 7.1355435 22.099609 8 22.099609 C 9.1586135 22.099609 10.099609 21.158614 10.099609 20 C 10.098994 18.240059 10.568398 16.51385 11.457031 14.996094 L 12.988281 15.841797 C 13.904746 16.348486 14.881262 16.099207 15.490234 15.490234 C 16.099207 14.881262 16.348486 13.904746 15.841797 12.988281 L 14.996094 11.457031 C 16.513608 10.568547 18.240378 10.099169 20 10.099609 C 21.158614 10.099609 22.099609 9.1586135 22.099609 8 C 22.099609 7.1355435 21.632062 6.3563705 20.888672 5.7988281 C 20.167287 5.2577895 19.185005 4.9198691 18.099609 4.9003906 L 18.099609 4.7734375 A 0.10001 0.10001 0 0 0 18.099609 4.7714844 C 18.07741 4.1262861 17.668533 3.5558471 17.064453 3.328125 A 0.10001 0.10001 0 0 0 17.056641 3.3261719 C 15.983914 3.018889 14.878622 2.8759851 13.775391 2.8984375 C 12.690787 2.9205104 11.607266 3.1020778 10.564453 3.4414062 L 10.421875 3.1816406 A 0.10001 0.10001 0 0 0 10.419922 3.1777344 C 10.103935 2.6616746 9.5272461 2.3745777 8.9375 2.4179688 z M 8.9570312 2.6171875 C 9.4721245 2.5802803 9.9737633 2.8301648 10.25 3.28125 L 14.773438 11.464844 L 14.775391 11.470703 A 0.1 0.1 0 0 0 14.783203 11.482422 L 15.667969 13.085938 C 16.13245 13.926061 15.901329 14.793983 15.347656 15.347656 C 14.793983 15.901329 13.926061 16.13245 13.085938 15.667969 L 11.484375 14.783203 A 0.1 0.1 0 0 0 11.470703 14.773438 A 0.1 0.1 0 0 0 11.451172 14.763672 A 0.1 0.1 0 0 0 11.449219 14.763672 L 3.28125 10.25 L 3.2792969 10.248047 C 2.7654264 9.9319616 2.51262 9.323618 2.6503906 8.7363281 C 3.6449979 5.8860136 5.8860138 3.6449979 8.7363281 2.6503906 C 8.809857 2.6331417 8.8834465 2.62246 8.9570312 2.6171875 z M 13.820312 3.0976562 C 14.886856 3.0800792 15.956691 3.2192795 16.994141 3.515625 L 16.994141 3.5175781 C 17.522318 3.717427 17.880967 4.2128418 17.900391 4.7773438 L 17.900391 4.9863281 A 0.1 0.1 0 0 0 17.900391 5 A 0.1 0.1 0 0 0 17.900391 5.0136719 L 17.900391 10.121094 C 16.848372 10.344318 15.834364 10.733758 14.898438 11.28125 L 10.664062 3.6191406 C 11.690562 3.2889587 12.753769 3.1152333 13.820312 3.0976562 z M 18.099609 5.0996094 C 19.144181 5.1192032 20.084886 5.4469651 20.767578 5.9589844 C 21.471904 6.4872285 21.900391 7.2076022 21.900391 8 C 21.900391 9.0505255 21.050525 9.9003906 20 9.9003906 C 19.359515 9.9002303 18.723336 9.9607974 18.099609 10.080078 L 18.099609 5.0996094 z M 3.6191406 10.664062 L 11.28125 14.898438 C 10.733993 15.834355 10.342196 16.848205 10.119141 17.900391 L 4.7773438 17.900391 C 4.2128419 17.880971 3.717427 17.522318 3.5175781 16.994141 L 3.515625 16.994141 C 2.9228956 14.919504 2.9591035 12.71691 3.6191406 10.664062 z M 5.0996094 18.099609 L 10.080078 18.099609 C 9.9608939 18.723411 9.9001664 19.359607 9.9003906 20 C 9.9003906 21.050525 9.0505255 21.900391 8 21.900391 C 7.2076022 21.900391 6.4872285 21.471904 5.9589844 20.767578 C 5.4469627 20.084883 5.1192004 19.144187 5.0996094 18.099609 z " />
</svg>
