<?xml version="1.0" encoding="UTF-8" standalone="no"?>
<svg
   width="24"
   height="24"
   viewBox="0 0 24 24"
   fill="none"
   stroke="currentColor"
   stroke-width="0.2"
   stroke-linecap="round"
   stroke-linejoin="round"
   version="1.1"
   id="svg4"
   sodipodi:docname=".tmp_diameter.svg"
   xmlns:inkscape="http://www.inkscape.org/namespaces/inkscape"
   xmlns:sodipodi="http://sodipodi.sourceforge.net/DTD/sodipodi-0.dtd"
   xmlns="http://www.w3.org/2000/svg"
   xmlns:svg="http://www.w3.org/2000/svg">
  <defs
     id="defs4" />
  <sodipodi:namedview
     id="namedview4"
     pagecolor="#ffffff"
     bordercolor="#000000"
     borderopacity="0.25"
     inkscape:showpageshadow="2"
     inkscape:pageopacity="0.0"
     inkscape:pagecheckerboard="0"
     inkscape:deskcolor="#d1d1d1" />
  <path
     id="circle1"
     style="baseline-shift:baseline;display:inline;overflow:visible;vector-effect:none;fill:#000000;stroke:none;stroke-linecap:butt;stroke-linejoin:miter;enable-background:accumulate;stop-color:#000000;stop-opacity:1;opacity:1"
     d="M 11.662109 1.8261719 C 9.9610304 1.8912865 8.1976186 2.4174188 6.4960938 3.5273438 C 6.1150741 3.1399141 5.5856473 2.9003906 5 2.9003906 C 3.8413865 2.9003906 2.9003906 3.8413865 2.9003906 5 C 2.9003906 5.5856472 3.1399143 6.1150741 3.5273438 6.4960938 C 0.55166097 11.057734 1.7591126 16.052082 4.8535156 19.146484 C 7.9479187 22.240888 12.942265 23.448339 17.503906 20.472656 C 17.884926 20.860086 18.414353 21.099609 19 21.099609 C 20.158614 21.099609 21.099609 20.158614 21.099609 19 C 21.099609 18.414354 20.860084 17.884926 20.472656 17.503906 C 23.448336 12.942262 22.240887 7.9479185 19.146484 4.8535156 C 17.591038 3.2980697 15.556783 2.2200861 13.337891 1.9101562 C 12.789048 1.8334952 12.229136 1.804467 11.662109 1.8261719 z M 11.716797 2.0195312 C 14.501521 1.9246601 17.111394 3.0996749 19.005859 4.9941406 C 22.037005 8.0252858 23.225224 12.888929 20.320312 17.367188 C 19.959597 17.075121 19.499725 16.900391 19 16.900391 C 18.456427 16.900391 17.960964 17.107722 17.587891 17.447266 L 6.5527344 6.4121094 C 6.8922778 6.0390362 7.0996094 5.5435728 7.0996094 5 C 7.0996094 4.500275 6.9248789 4.0404032 6.6328125 3.6796875 C 8.3121594 2.5903459 10.045962 2.0764539 11.716797 2.0195312 z M 5 3.0996094 C 5.5488503 3.0996094 6.0438995 3.3317527 6.390625 3.703125 A 0.1 0.1 0 0 0 6.3964844 3.7148438 A 0.1 0.1 0 0 0 6.4277344 3.7460938 C 6.7214812 4.0805797 6.9003906 4.5192482 6.9003906 5 C 6.9003906 5.5133824 6.6973474 5.9785409 6.3671875 6.3203125 A 0.1 0.1 0 0 0 6.3398438 6.3398438 A 0.1 0.1 0 0 0 6.3203125 6.3671875 C 5.9785409 6.6973474 5.5133824 6.9003906 5 6.9003906 C 4.5192453 6.9003906 4.0805804 6.7214844 3.7460938 6.4277344 A 0.1 0.1 0 0 0 3.7148438 6.3964844 A 0.1 0.1 0 0 0 3.703125 6.390625 C 3.3317523 6.0438994 3.0996094 5.5488506 3.0996094 5 C 3.0996094 3.9494745 3.9494745 3.0996094 5 3.0996094 z M 6.4121094 6.5527344 L 17.447266 17.587891 C 17.107722 17.960964 16.900391 18.456427 16.900391 19 C 16.900391 19.499723 17.075123 19.959597 17.367188 20.320312 C 12.888929 23.225225 8.0252861 22.037006 4.9941406 19.005859 C 1.9629953 15.974714 0.77477615 11.111071 3.6796875 6.6328125 C 4.0404038 6.9248808 4.5002732 7.0996094 5 7.0996094 C 5.5435728 7.0996094 6.0390362 6.8922778 6.4121094 6.5527344 z M 19 17.099609 C 19.480753 17.099609 19.91942 17.278518 20.253906 17.572266 A 0.1 0.1 0 0 0 20.285156 17.603516 A 0.1 0.1 0 0 0 20.296875 17.609375 C 20.668248 17.956101 20.900391 18.451149 20.900391 19 C 20.900391 20.050525 20.050525 20.900391 19 20.900391 C 18.451146 20.900391 17.956101 20.668252 17.609375 20.296875 A 0.1 0.1 0 0 0 17.603516 20.285156 A 0.1 0.1 0 0 0 17.572266 20.253906 C 17.278518 19.91942 17.099609 19.480752 17.099609 19 C 17.099609 18.486617 17.302652 18.021459 17.632812 17.679688 A 0.1 0.1 0 0 0 17.660156 17.660156 A 0.1 0.1 0 0 0 17.679688 17.632812 C 18.021459 17.302652 18.486617 17.099609 19 17.099609 z " />
</svg>
