<?xml version="1.0" encoding="UTF-8" standalone="no"?>
<svg
   width="24"
   height="24"
   viewBox="0 0 24 24"
   fill="none"
   stroke="currentColor"
   stroke-width="0.2"
   stroke-linecap="round"
   stroke-linejoin="round"
   version="1.1"
   id="svg2"
   sodipodi:docname=".tmp_divide.svg"
   xmlns:inkscape="http://www.inkscape.org/namespaces/inkscape"
   xmlns:sodipodi="http://sodipodi.sourceforge.net/DTD/sodipodi-0.dtd"
   xmlns="http://www.w3.org/2000/svg"
   xmlns:svg="http://www.w3.org/2000/svg">
  <defs
     id="defs2" />
  <sodipodi:namedview
     id="namedview2"
     pagecolor="#ffffff"
     bordercolor="#000000"
     borderopacity="0.25"
     inkscape:showpageshadow="2"
     inkscape:pageopacity="0.0"
     inkscape:pagecheckerboard="0"
     inkscape:deskcolor="#d1d1d1" />
  <path
     id="circle1"
     style="baseline-shift:baseline;display:inline;overflow:visible;vector-effect:none;fill:#000000;stroke:none;stroke-linecap:butt;stroke-linejoin:miter;enable-background:accumulate;stop-color:#000000;stop-opacity:1;opacity:1"
     d="M 12 4.9003906 C 11.393671 4.9003906 10.900391 5.3936712 10.900391 6 C 10.900391 6.6063288 11.393671 7.0996094 12 7.0996094 C 12.606329 7.0996094 13.099609 6.6063288 13.099609 6 C 13.099609 5.3936712 12.606329 4.9003906 12 4.9003906 z M 12 5.0996094 C 12.498241 5.0996094 12.900391 5.5017593 12.900391 6 C 12.900391 6.4982407 12.498241 6.9003906 12 6.9003906 C 11.501759 6.9003906 11.099609 6.4982407 11.099609 6 C 11.099609 5.5017593 11.501759 5.0996094 12 5.0996094 z M 4.9863281 11.900391 A 0.1 0.1 0 0 0 4.9003906 12 A 0.1 0.1 0 0 0 5 12.099609 L 19 12.099609 A 0.1 0.1 0 0 0 19.099609 12 A 0.1 0.1 0 0 0 19 11.900391 L 5 11.900391 A 0.1 0.1 0 0 0 4.9863281 11.900391 z M 12 16.900391 C 11.393671 16.900391 10.900391 17.393671 10.900391 18 C 10.900391 18.606329 11.393671 19.099609 12 19.099609 C 12.606329 19.099609 13.099609 18.606329 13.099609 18 C 13.099609 17.393671 12.606329 16.900391 12 16.900391 z M 12 17.099609 C 12.498241 17.099609 12.900391 17.501759 12.900391 18 C 12.900391 18.498241 12.498241 18.900391 12 18.900391 C 11.501759 18.900391 11.099609 18.498241 11.099609 18 C 11.099609 17.501759 11.501759 17.099609 12 17.099609 z " />
</svg>
