<?xml version="1.0" encoding="UTF-8" standalone="no"?>
<svg
   width="24"
   height="24"
   viewBox="0 0 24 24"
   fill="none"
   stroke="currentColor"
   stroke-width="0.2"
   stroke-linecap="round"
   stroke-linejoin="round"
   version="1.1"
   id="svg3"
   sodipodi:docname=".tmp_door-closed.svg"
   xmlns:inkscape="http://www.inkscape.org/namespaces/inkscape"
   xmlns:sodipodi="http://sodipodi.sourceforge.net/DTD/sodipodi-0.dtd"
   xmlns="http://www.w3.org/2000/svg"
   xmlns:svg="http://www.w3.org/2000/svg">
  <defs
     id="defs3" />
  <sodipodi:namedview
     id="namedview3"
     pagecolor="#ffffff"
     bordercolor="#000000"
     borderopacity="0.25"
     inkscape:showpageshadow="2"
     inkscape:pageopacity="0.0"
     inkscape:pagecheckerboard="0"
     inkscape:deskcolor="#d1d1d1" />
  <path
     id="path1"
     style="baseline-shift:baseline;display:inline;overflow:visible;vector-effect:none;fill:#000000;stroke:none;stroke-linecap:butt;stroke-linejoin:miter;enable-background:accumulate;stop-color:#000000;stop-opacity:1;opacity:1"
     d="M 8 3.9003906 C 6.8413865 3.9003906 5.9003906 4.8413865 5.9003906 6 L 5.9003906 19.900391 L 2 19.900391 A 0.1 0.1 0 0 0 1.9003906 20 A 0.1 0.1 0 0 0 2 20.099609 L 5.9863281 20.099609 L 6.0136719 20.099609 L 17.986328 20.099609 L 18.013672 20.099609 L 22 20.099609 A 0.1 0.1 0 0 0 22.099609 20 A 0.1 0.1 0 0 0 22 19.900391 L 18.099609 19.900391 L 18.099609 6 C 18.099609 4.8413865 17.158614 3.9003906 16 3.9003906 L 8 3.9003906 z M 8 4.0996094 L 16 4.0996094 C 17.050525 4.0996094 17.900391 4.9494745 17.900391 6 L 17.900391 19.900391 L 6.0996094 19.900391 L 6.0996094 6 C 6.0996094 4.9494745 6.9494745 4.0996094 8 4.0996094 z M 9.9863281 11.900391 A 0.1 0.1 0 0 0 9.9003906 12 A 0.1 0.1 0 0 0 10 12.099609 L 10.009766 12.099609 A 0.1 0.1 0 0 0 10.109375 12 A 0.1 0.1 0 0 0 10.009766 11.900391 L 10 11.900391 A 0.1 0.1 0 0 0 9.9863281 11.900391 z " />
</svg>
