<?xml version="1.0" encoding="UTF-8" standalone="no"?>
<svg
   width="24"
   height="24"
   viewBox="0 0 24 24"
   fill="none"
   stroke="currentColor"
   stroke-width="0.2"
   stroke-linecap="round"
   stroke-linejoin="round"
   version="1.1"
   id="svg8"
   sodipodi:docname=".tmp_drama.svg"
   xmlns:inkscape="http://www.inkscape.org/namespaces/inkscape"
   xmlns:sodipodi="http://sodipodi.sourceforge.net/DTD/sodipodi-0.dtd"
   xmlns="http://www.w3.org/2000/svg"
   xmlns:svg="http://www.w3.org/2000/svg">
  <defs
     id="defs8" />
  <sodipodi:namedview
     id="namedview8"
     pagecolor="#ffffff"
     bordercolor="#000000"
     borderopacity="0.25"
     inkscape:showpageshadow="2"
     inkscape:pageopacity="0.0"
     inkscape:pagecheckerboard="0"
     inkscape:deskcolor="#d1d1d1" />
  <path
     id="path1"
     style="baseline-shift:baseline;display:inline;overflow:visible;vector-effect:none;fill:#000000;stroke:none;stroke-linecap:butt;stroke-linejoin:miter;enable-background:accumulate;stop-color:#000000;stop-opacity:1;opacity:1"
     d="M 16 1.9003906 C 13.991667 1.9003906 12.47893 2.1482306 11.455078 2.6601562 C 10.431227 3.1720819 9.9003906 3.9666667 9.9003906 5 C 9.9003906 5.7070055 9.9244042 6.3766298 9.9707031 7.0117188 C 8.874644 7.1379311 7.5975734 7.6411284 5.953125 8.5117188 A 0.10001 0.10001 0 0 0 5.9511719 8.5136719 C 4.1935995 9.5180003 3.0060715 10.497084 2.3789062 11.457031 C 1.7517409 12.416978 1.6957727 13.3709 2.2128906 14.25 C 4.4703473 18.162925 6.8592472 20.278197 8.90625 21.289062 C 10.953253 22.299929 12.656318 22.211702 13.550781 21.685547 C 14.48414 21.165622 15.461831 19.585392 15.498047 17.046875 C 15.673982 17.08279 15.842726 17.099609 16 17.099609 C 17.05 17.099609 18.57033 16.325169 19.833984 14.429688 C 21.097639 12.534205 22.099609 9.5148148 22.099609 5 C 22.099609 3.9666667 21.568773 3.1720818 20.544922 2.6601562 C 19.52107 2.1482306 18.008333 1.9003906 16 1.9003906 z M 16 2.0996094 C 17.991667 2.0996094 19.47893 2.3517694 20.455078 2.8398438 C 21.431227 3.3279181 21.900391 4.0333333 21.900391 5 C 21.900391 9.4851852 20.902361 12.465793 19.666016 14.320312 C 18.42967 16.17483 16.95 16.900391 16 16.900391 C 15.83935 16.900391 15.663768 16.879386 15.476562 16.835938 A 0.1 0.1 0 0 0 15.400391 16.800781 A 0.1 0.1 0 0 0 15.363281 16.808594 C 14.45987 16.561034 13.319945 15.799252 12.333984 14.320312 C 11.307523 12.780619 10.444793 10.464963 10.181641 7.15625 A 0.1 0.1 0 0 0 10.199219 7.0917969 A 0.1 0.1 0 0 0 10.171875 7.03125 C 10.124247 6.3913087 10.099609 5.7148471 10.099609 5 C 10.099609 4.0333333 10.568773 3.327918 11.544922 2.8398438 C 12.52107 2.3517693 14.008333 2.0996094 16 2.0996094 z M 13.986328 5.9003906 A 0.1 0.1 0 0 0 13.900391 6 A 0.1 0.1 0 0 0 14 6.0996094 L 14.009766 6.0996094 A 0.1 0.1 0 0 0 14.109375 6 A 0.1 0.1 0 0 0 14.009766 5.9003906 L 14 5.9003906 A 0.1 0.1 0 0 0 13.986328 5.9003906 z M 17.986328 5.9003906 A 0.1 0.1 0 0 0 17.900391 6 A 0.1 0.1 0 0 0 18 6.0996094 L 18.009766 6.0996094 A 0.1 0.1 0 0 0 18.109375 6 A 0.1 0.1 0 0 0 18.009766 5.9003906 L 18 5.9003906 A 0.1 0.1 0 0 0 17.986328 5.9003906 z M 9.9863281 7.2128906 C 10.254817 10.527331 11.121093 12.862303 12.166016 14.429688 C 13.170299 15.936113 14.337195 16.733781 15.300781 16.998047 C 15.275668 19.51396 14.288635 21.046461 13.451172 21.511719 A 0.10001 0.10001 0 0 0 13.449219 21.513672 C 12.64373 21.98747 10.997138 22.098509 8.9941406 21.109375 C 6.9911435 20.120241 4.6292619 18.037466 2.3867188 14.150391 A 0.10001 0.10001 0 0 0 2.3867188 14.148438 C 1.9038366 13.327585 1.9490403 12.481459 2.546875 11.566406 C 3.1445257 10.651635 4.3053373 9.6828521 6.046875 8.6875 C 7.6778728 7.8240305 8.9340579 7.3358068 9.9863281 7.2128906 z M 14.599609 9.8007812 A 0.1 0.1 0 0 0 14.529297 9.8300781 A 0.1 0.1 0 0 0 14.529297 9.9707031 C 15.364652 10.806058 16.635348 10.806058 17.470703 9.9707031 A 0.1 0.1 0 0 0 17.470703 9.8300781 A 0.1 0.1 0 0 0 17.330078 9.8300781 C 16.565433 10.594723 15.434567 10.594723 14.669922 9.8300781 A 0.1 0.1 0 0 0 14.599609 9.8007812 z M 9.9863281 10.900391 A 0.1 0.1 0 0 0 9.9003906 11 A 0.1 0.1 0 0 0 10 11.099609 L 10.009766 11.099609 A 0.1 0.1 0 0 0 10.109375 11 A 0.1 0.1 0 0 0 10.009766 10.900391 L 10 10.900391 A 0.1 0.1 0 0 0 9.9863281 10.900391 z M 6.4863281 13 A 0.1 0.1 0 0 0 6.4003906 13.099609 A 0.1 0.1 0 0 0 6.5 13.199219 L 6.5097656 13.199219 A 0.1 0.1 0 0 0 6.609375 13.099609 A 0.1 0.1 0 0 0 6.5097656 13 L 6.5 13 A 0.1 0.1 0 0 0 6.4863281 13 z M 10.931641 14.923828 C 10.070646 14.944494 9.2589483 15.539455 9.0039062 16.474609 A 0.1 0.1 0 0 0 9.0742188 16.595703 A 0.1 0.1 0 0 0 9.1972656 16.525391 C 9.4833676 15.47635 10.525185 14.911656 11.470703 15.195312 A 0.1 0.1 0 0 0 11.595703 15.128906 A 0.1 0.1 0 0 0 11.529297 15.003906 C 11.331582 14.944592 11.130332 14.919059 10.931641 14.923828 z " />
</svg>
