<?xml version="1.0" encoding="UTF-8" standalone="no"?>
<svg
   width="24"
   height="24"
   viewBox="0 0 24 24"
   fill="none"
   stroke="currentColor"
   stroke-width="0.2"
   stroke-linecap="round"
   stroke-linejoin="round"
   version="1.1"
   id="svg3"
   sodipodi:docname=".tmp_dribbble.svg"
   xmlns:inkscape="http://www.inkscape.org/namespaces/inkscape"
   xmlns:sodipodi="http://sodipodi.sourceforge.net/DTD/sodipodi-0.dtd"
   xmlns="http://www.w3.org/2000/svg"
   xmlns:svg="http://www.w3.org/2000/svg">
  <defs
     id="defs3" />
  <sodipodi:namedview
     id="namedview3"
     pagecolor="#ffffff"
     bordercolor="#000000"
     borderopacity="0.25"
     inkscape:showpageshadow="2"
     inkscape:pageopacity="0.0"
     inkscape:pagecheckerboard="0"
     inkscape:deskcolor="#d1d1d1" />
  <path
     id="circle1"
     style="baseline-shift:baseline;display:inline;overflow:visible;vector-effect:none;fill:#000000;stroke:none;stroke-linecap:butt;stroke-linejoin:miter;enable-background:accumulate;stop-color:#000000;stop-opacity:1;opacity:1"
     d="M 12 1.9003906 C 6.4231085 1.9003906 1.9003906 6.4231085 1.9003906 12 C 1.9003906 17.576892 6.4231085 22.099609 12 22.099609 C 17.576892 22.099609 22.099609 17.576892 22.099609 12 C 22.099609 6.4231085 17.576892 1.9003906 12 1.9003906 z M 12 2.0996094 C 14.754925 2.0996094 17.246435 3.2238045 19.041016 5.0390625 C 17.250759 6.887829 15.184551 8.1593595 12.720703 9.0410156 C 11.657814 7.0196276 10.360918 5.0533641 8.640625 2.6914062 A 0.1 0.1 0 0 0 8.6367188 2.6855469 C 9.6868954 2.3063099 10.818862 2.0996094 12 2.0996094 z M 8.4609375 2.75 A 0.1 0.1 0 0 0 8.4785156 2.8085938 C 10.188627 5.1565721 11.478002 7.1062682 12.533203 9.1074219 C 9.6902192 10.093928 6.3212701 10.576803 2.2441406 10.839844 A 0.1 0.1 0 0 0 2.1601562 10.894531 C 2.5749054 7.1572667 5.0699912 4.0481142 8.4609375 2.75 z M 19.179688 5.1816406 C 20.865868 6.9568284 21.900391 9.3577089 21.900391 12 C 21.900391 17.468803 17.468803 21.900391 12 21.900391 C 6.5311965 21.900391 2.0996094 17.468803 2.0996094 12 C 2.0996094 11.65008 2.1169467 11.305381 2.1523438 10.964844 A 0.1 0.1 0 0 0 2.2558594 11.039062 C 6.352617 10.774754 9.750614 10.287161 12.625 9.2851562 C 13.218378 10.427153 13.73865 11.589937 14.21875 12.857422 C 10.812065 13.779903 7.8195914 15.92501 5.2910156 19.097656 A 0.1 0.1 0 0 0 5.3085938 19.238281 A 0.1 0.1 0 0 0 5.4472656 19.222656 C 7.9606907 16.069022 10.916989 13.945372 14.287109 13.039062 C 15.062175 15.117621 15.737435 17.483498 16.462891 20.494141 A 0.1 0.1 0 0 0 16.583984 20.566406 A 0.1 0.1 0 0 0 16.65625 20.447266 C 15.932116 17.442115 15.254699 15.074197 14.478516 12.990234 C 16.717001 12.421598 19.136775 12.385483 21.728516 12.9375 A 0.1 0.1 0 0 0 21.847656 12.861328 A 0.1 0.1 0 0 0 21.771484 12.742188 C 20.108038 12.387889 18.512494 12.274634 16.988281 12.386719 C 16.104816 12.451686 15.245067 12.592796 14.410156 12.806641 C 13.928608 11.533713 13.408744 10.363634 12.814453 9.2167969 C 15.290625 8.3269956 17.373796 7.0452928 19.179688 5.1816406 z " />
</svg>
