<?xml version="1.0" encoding="UTF-8" standalone="no"?>
<svg
   width="24"
   height="24"
   viewBox="0 0 24 24"
   fill="none"
   stroke="currentColor"
   stroke-width="0.2"
   stroke-linecap="round"
   stroke-linejoin="round"
   version="1.1"
   id="svg6"
   sodipodi:docname=".tmp_drill.svg"
   xmlns:inkscape="http://www.inkscape.org/namespaces/inkscape"
   xmlns:sodipodi="http://sodipodi.sourceforge.net/DTD/sodipodi-0.dtd"
   xmlns="http://www.w3.org/2000/svg"
   xmlns:svg="http://www.w3.org/2000/svg">
  <defs
     id="defs6" />
  <sodipodi:namedview
     id="namedview6"
     pagecolor="#ffffff"
     bordercolor="#000000"
     borderopacity="0.25"
     inkscape:showpageshadow="2"
     inkscape:pageopacity="0.0"
     inkscape:pagecheckerboard="0"
     inkscape:deskcolor="#d1d1d1" />
  <path
     id="path1"
     style="baseline-shift:baseline;display:inline;overflow:visible;vector-effect:none;fill:#000000;stroke:none;stroke-linecap:butt;stroke-linejoin:miter;enable-background:accumulate;stop-color:#000000;stop-opacity:1;opacity:1"
     d="M 4 1.9003906 C 2.8413865 1.9003906 1.9003906 2.8413865 1.9003906 4 L 1.9003906 8 C 1.9003906 9.1586135 2.8413865 10.099609 4 10.099609 L 4.8710938 10.099609 L 2.9199219 17.902344 C 2.3504739 17.943126 1.9003906 18.420341 1.9003906 19 C 1.9003906 20.710898 3.2891017 22.099609 5 22.099609 L 10 22.099609 C 10.606329 22.099609 11.099609 21.606329 11.099609 21 L 11.099609 19 C 11.099609 18.393671 10.606329 17.900391 10 17.900391 L 7.1289062 17.900391 L 8.078125 14.099609 L 11.220703 14.099609 C 11.725056 14.09947 12.165056 13.754986 12.287109 13.265625 L 13.087891 10.0625 C 13.646646 10.010859 14.099609 9.5719586 14.099609 9 L 14.099609 8.0996094 L 17 8.0996094 C 17.606329 8.0996094 18.099609 7.6063288 18.099609 7 L 18.099609 6.0996094 L 22 6.0996094 A 0.1 0.1 0 0 0 22.099609 6 A 0.1 0.1 0 0 0 22 5.9003906 L 18.099609 5.9003906 L 18.099609 5 C 18.099609 4.3936712 17.606329 3.9003906 17 3.9003906 L 14.099609 3.9003906 L 14.099609 3 C 14.099609 2.3936712 13.606329 1.9003906 13 1.9003906 L 4 1.9003906 z M 4 2.0996094 L 13 2.0996094 C 13.498241 2.0996094 13.900391 2.5017593 13.900391 3 L 13.900391 4 A 0.1 0.1 0 0 0 13.900391 4.0136719 L 13.900391 8 A 0.1 0.1 0 0 0 13.900391 8.0136719 L 13.900391 9 C 13.900391 9.4982407 13.498241 9.9003906 13 9.9003906 L 9.0136719 9.9003906 L 8.9863281 9.9003906 L 4 9.9003906 C 2.9494745 9.9003906 2.0996094 9.0505255 2.0996094 8 L 2.0996094 4 C 2.0996094 2.9494745 2.9494745 2.0996094 4 2.0996094 z M 14.099609 4.0996094 L 17 4.0996094 C 17.498241 4.0996094 17.900391 4.5017593 17.900391 5 L 17.900391 5.9863281 A 0.1 0.1 0 0 0 17.900391 6 A 0.1 0.1 0 0 0 17.900391 6.0136719 L 17.900391 7 C 17.900391 7.4982407 17.498241 7.9003906 17 7.9003906 L 14.099609 7.9003906 L 14.099609 4.0996094 z M 5.078125 10.099609 L 8.8710938 10.099609 L 7.9003906 13.986328 L 6.921875 17.900391 L 3.1289062 17.900391 L 5.078125 10.099609 z M 9.078125 10.099609 L 12.871094 10.099609 L 12.09375 13.216797 A 0.10001 0.10001 0 0 0 12.09375 13.21875 C 11.993662 13.620045 11.634292 13.900276 11.220703 13.900391 L 8.1289062 13.900391 L 9.078125 10.099609 z M 2.9882812 18.099609 C 2.9924414 18.099553 2.9958262 18.099609 3 18.099609 L 6.9863281 18.099609 L 7.0136719 18.099609 L 10 18.099609 C 10.498241 18.099609 10.900391 18.501759 10.900391 19 L 10.900391 21 C 10.900391 21.498241 10.498241 21.900391 10 21.900391 L 5 21.900391 C 3.3971898 21.900391 2.0996094 20.60281 2.0996094 19 C 2.0996094 18.505933 2.4958321 18.106269 2.9882812 18.099609 z " />
</svg>
