<?xml version="1.0" encoding="UTF-8" standalone="no"?>
<svg
   width="24"
   height="24"
   viewBox="0 0 24 24"
   fill="none"
   stroke="currentColor"
   stroke-width="0.2"
   stroke-linecap="round"
   stroke-linejoin="round"
   version="1.1"
   id="svg1"
   sodipodi:docname=".tmp_egg-fried.svg"
   xmlns:inkscape="http://www.inkscape.org/namespaces/inkscape"
   xmlns:sodipodi="http://sodipodi.sourceforge.net/DTD/sodipodi-0.dtd"
   xmlns="http://www.w3.org/2000/svg"
   xmlns:svg="http://www.w3.org/2000/svg">
  <defs
     id="defs1" />
  <sodipodi:namedview
     id="namedview1"
     pagecolor="#ffffff"
     bordercolor="#000000"
     borderopacity="0.25"
     inkscape:showpageshadow="2"
     inkscape:pageopacity="0.0"
     inkscape:pagecheckerboard="0"
     inkscape:deskcolor="#d1d1d1" />
  <path
     id="circle1"
     style="baseline-shift:baseline;display:inline;overflow:visible;vector-effect:none;fill:#000000;stroke:none;stroke-linecap:butt;stroke-linejoin:miter;enable-background:accumulate;stop-color:#000000;stop-opacity:1;opacity:1"
     d="M 9.5 1.9003906 C 7.4791667 1.9003906 5.827356 2.5331699 4.6816406 3.6152344 C 3.5359253 4.6972989 2.9003906 6.2261905 2.9003906 8 C 2.9003906 9.0333333 3.4003906 10.022222 3.4003906 11.5 C 3.4003906 12.475 3.0420889 12.944175 2.6640625 13.574219 C 2.2860361 14.204263 1.9003906 14.983333 1.9003906 16.5 C 1.9003906 18.283333 2.7958796 19.692369 4.1289062 20.644531 C 5.4619329 21.596693 7.2309524 22.099609 9 22.099609 C 10.77381 22.099609 11.685255 21.45467 12.439453 20.826172 C 13.193651 20.197674 13.783333 19.599609 15 19.599609 C 17.264815 19.599609 19.041641 19.096377 20.253906 18.011719 C 21.466171 16.927061 22.099609 15.268519 22.099609 13 C 22.099609 10.980583 21.498342 9.9363133 20.564453 9.171875 C 19.630564 8.4074367 18.384376 7.911554 17.060547 6.9199219 C 15.745564 5.9349159 15.126255 4.6955439 14.197266 3.6816406 C 13.268277 2.6677373 12.02 1.9003906 9.5 1.9003906 z M 9.5 2.0996094 C 11.98 2.0996094 13.14727 2.8322627 14.050781 3.8183594 C 14.954292 4.8044561 15.584436 6.0650841 16.939453 7.0800781 C 18.285624 8.088446 19.538889 8.5925633 20.4375 9.328125 C 21.336111 10.063687 21.900391 11.019417 21.900391 13 C 21.900391 15.231481 21.283829 16.822939 20.121094 17.863281 C 18.958359 18.903623 17.235185 19.400391 15 19.400391 C 13.716667 19.400391 13.056349 20.052326 12.310547 20.673828 C 11.564745 21.29533 10.72619 21.900391 9 21.900391 C 7.2690476 21.900391 5.5380671 21.403307 4.2460938 20.480469 C 2.9541204 19.557631 2.0996094 18.216667 2.0996094 16.5 C 2.0996094 15.016667 2.4639639 14.295737 2.8359375 13.675781 C 3.2079111 13.055825 3.5996094 12.525 3.5996094 11.5 C 3.5996094 9.9777778 3.0996094 8.9666667 3.0996094 8 C 3.0996094 6.2738095 3.7140747 4.8027011 4.8183594 3.7597656 C 5.922644 2.7168301 7.5208333 2.0996094 9.5 2.0996094 z M 11.5 8.9003906 C 9.5129594 8.9003906 7.9003906 10.512959 7.9003906 12.5 C 7.9003906 14.487041 9.5129594 16.099609 11.5 16.099609 C 13.487041 16.099609 15.099609 14.487041 15.099609 12.5 C 15.099609 10.512959 13.487041 8.9003906 11.5 8.9003906 z M 11.5 9.0996094 C 13.378953 9.0996094 14.900391 10.621047 14.900391 12.5 C 14.900391 14.378953 13.378953 15.900391 11.5 15.900391 C 9.6210474 15.900391 8.0996094 14.378953 8.0996094 12.5 C 8.0996094 10.621047 9.6210474 9.0996094 11.5 9.0996094 z " />
</svg>
