<?xml version="1.0" encoding="UTF-8" standalone="no"?>
<svg
   width="24"
   height="24"
   viewBox="0 0 24 24"
   fill="none"
   stroke="currentColor"
   stroke-width="0.2"
   stroke-linecap="round"
   stroke-linejoin="round"
   version="1.1"
   id="svg1"
   sodipodi:docname=".tmp_egg.svg"
   xmlns:inkscape="http://www.inkscape.org/namespaces/inkscape"
   xmlns:sodipodi="http://sodipodi.sourceforge.net/DTD/sodipodi-0.dtd"
   xmlns="http://www.w3.org/2000/svg"
   xmlns:svg="http://www.w3.org/2000/svg">
  <defs
     id="defs1" />
  <sodipodi:namedview
     id="namedview1"
     pagecolor="#ffffff"
     bordercolor="#000000"
     borderopacity="0.25"
     inkscape:showpageshadow="2"
     inkscape:pageopacity="0.0"
     inkscape:pagecheckerboard="0"
     inkscape:deskcolor="#d1d1d1" />
  <path
     id="path1"
     style="baseline-shift:baseline;display:inline;overflow:visible;vector-effect:none;fill:#000000;stroke:none;stroke-linecap:butt;stroke-linejoin:miter;enable-background:accumulate;stop-color:#000000;stop-opacity:1;opacity:1"
     d="M 12 1.9003906 C 9.95 1.9003906 7.9273941 3.4282448 6.4160156 5.6953125 C 4.9046372 7.9623802 3.9003906 10.977778 3.9003906 14 C 3.9003906 18.472325 7.5276782 22.099609 12 22.099609 C 16.472322 22.099609 20.099609 18.472325 20.099609 14 C 20.099609 10.977778 19.095363 7.9623802 17.583984 5.6953125 C 16.072606 3.4282448 14.05 1.9003906 12 1.9003906 z M 12 2.0996094 C 13.95 2.0996094 15.927394 3.5717552 17.416016 5.8046875 C 18.904637 8.0376198 19.900391 11.022222 19.900391 14 C 19.900391 18.364237 16.364234 21.900391 12 21.900391 C 7.635766 21.900391 4.0996094 18.364237 4.0996094 14 C 4.0996094 11.022222 5.0953628 8.0376198 6.5839844 5.8046875 C 8.0726059 3.5717552 10.05 2.0996094 12 2.0996094 z " />
</svg>
