<?xml version="1.0" encoding="UTF-8" standalone="no"?>
<svg
   width="24"
   height="24"
   viewBox="0 0 24 24"
   fill="none"
   stroke="currentColor"
   stroke-width="0.2"
   stroke-linecap="round"
   stroke-linejoin="round"
   version="1.1"
   id="svg4"
   sodipodi:docname=".tmp_eye-off.svg"
   xmlns:inkscape="http://www.inkscape.org/namespaces/inkscape"
   xmlns:sodipodi="http://sodipodi.sourceforge.net/DTD/sodipodi-0.dtd"
   xmlns="http://www.w3.org/2000/svg"
   xmlns:svg="http://www.w3.org/2000/svg">
  <defs
     id="defs4" />
  <sodipodi:namedview
     id="namedview4"
     pagecolor="#ffffff"
     bordercolor="#000000"
     borderopacity="0.25"
     inkscape:showpageshadow="2"
     inkscape:pageopacity="0.0"
     inkscape:pagecheckerboard="0"
     inkscape:deskcolor="#d1d1d1" />
  <path
     id="path1"
     style="baseline-shift:baseline;display:inline;overflow:visible;vector-effect:none;fill:#000000;stroke:none;stroke-linecap:butt;stroke-linejoin:miter;enable-background:accumulate;stop-color:#000000;stop-opacity:1;opacity:1"
     d="M 2 1.9003906 A 0.1 0.1 0 0 0 1.9296875 1.9296875 A 0.1 0.1 0 0 0 1.9296875 2.0703125 L 6.3476562 6.4882812 C 4.3817603 7.6878451 2.8475234 9.4821947 1.96875 11.613281 A 0.10001 0.10001 0 0 0 1.96875 11.617188 C 1.877083 11.864133 1.877083 12.135866 1.96875 12.382812 A 0.10001 0.10001 0 0 0 1.96875 12.386719 C 4.4802927 18.47744 11.797942 20.938953 17.476562 17.617188 L 21.929688 22.070312 A 0.1 0.1 0 0 0 22.070312 22.070312 A 0.1 0.1 0 0 0 22.070312 21.929688 L 6.5859375 6.4472656 A 0.1 0.1 0 0 0 6.5683594 6.4277344 L 2.0703125 1.9296875 A 0.1 0.1 0 0 0 2 1.9003906 z M 11.623047 4.90625 C 11.323328 4.9169003 11.022655 4.9405783 10.720703 4.9765625 A 0.1 0.1 0 0 0 10.632812 5.0878906 A 0.1 0.1 0 0 0 10.744141 5.1757812 C 15.485705 4.6107208 20.022715 7.2716976 21.84375 11.685547 C 21.91877 11.887633 21.91877 12.110414 21.84375 12.3125 C 21.479867 13.193694 20.99848 14.022134 20.414062 14.775391 A 0.1 0.1 0 0 0 20.433594 14.916016 A 0.1 0.1 0 0 0 20.572266 14.898438 C 21.168573 14.129857 21.660329 13.284051 22.03125 12.384766 A 0.10001 0.10001 0 0 0 22.03125 12.380859 C 22.12292 12.133914 22.12292 11.862179 22.03125 11.615234 A 0.10001 0.10001 0 0 0 22.03125 11.613281 C 20.293365 7.3960356 16.11883 4.7464951 11.623047 4.90625 z M 6.4941406 6.6347656 L 9.7382812 9.8789062 C 9.0618214 10.595543 8.8056846 11.403042 8.8554688 12.162109 C 8.9060178 12.932842 9.2687614 13.651574 9.8085938 14.191406 C 10.348426 14.731239 11.067158 15.093982 11.837891 15.144531 C 12.596959 15.194316 13.404459 14.938179 14.121094 14.261719 L 17.330078 17.470703 C 11.760573 20.692031 4.6169676 18.275769 2.15625 12.3125 C 2.081235 12.110414 2.081235 11.889586 2.15625 11.6875 C 3.0252214 9.5817103 4.5452616 7.8117825 6.4941406 6.6347656 z M 9.8808594 10.021484 L 13.978516 14.119141 C 13.298935 14.759269 12.55588 14.991505 11.851562 14.945312 C 11.135073 14.898371 10.45781 14.559372 9.9492188 14.050781 C 9.4406275 13.54219 9.1016759 12.864878 9.0546875 12.148438 C 9.0084931 11.444102 9.2406961 10.701078 9.8808594 10.021484 z " />
</svg>
