<?xml version="1.0" encoding="UTF-8" standalone="no"?>
<svg
   width="24"
   height="24"
   viewBox="0 0 24 24"
   fill="none"
   stroke="currentColor"
   stroke-width="0.2"
   stroke-linecap="round"
   stroke-linejoin="round"
   version="1.1"
   id="svg4"
   sodipodi:docname=".tmp_file-json.svg"
   xmlns:inkscape="http://www.inkscape.org/namespaces/inkscape"
   xmlns:sodipodi="http://sodipodi.sourceforge.net/DTD/sodipodi-0.dtd"
   xmlns="http://www.w3.org/2000/svg"
   xmlns:svg="http://www.w3.org/2000/svg">
  <defs
     id="defs4" />
  <sodipodi:namedview
     id="namedview4"
     pagecolor="#ffffff"
     bordercolor="#000000"
     borderopacity="0.25"
     inkscape:showpageshadow="2"
     inkscape:pageopacity="0.0"
     inkscape:pagecheckerboard="0"
     inkscape:deskcolor="#d1d1d1" />
  <path
     id="path1"
     style="baseline-shift:baseline;display:inline;overflow:visible;vector-effect:none;fill:#000000;stroke:none;stroke-linecap:butt;stroke-linejoin:miter;enable-background:accumulate;stop-color:#000000;stop-opacity:1;opacity:1"
     d="M 6 1.9003906 C 4.8413865 1.9003906 3.9003906 2.8413865 3.9003906 4 L 3.9003906 20 C 3.9003906 21.158614 4.8413865 22.099609 6 22.099609 L 18 22.099609 C 19.158614 22.099609 20.099609 21.158614 20.099609 20 L 20.099609 8.0136719 A 0.1 0.1 0 0 0 20.099609 8 A 0.1 0.1 0 0 0 20.099609 7.9863281 L 20.099609 7 A 0.10001 0.10001 0 0 0 20.070312 6.9296875 L 15.070312 1.9296875 A 0.10001 0.10001 0 0 0 15 1.9003906 L 6 1.9003906 z M 6 2.0996094 L 13.900391 2.0996094 L 13.900391 6 C 13.900391 7.1586135 14.841386 8.0996094 16 8.0996094 L 19.900391 8.0996094 L 19.900391 20 C 19.900391 21.050525 19.050525 21.900391 18 21.900391 L 6 21.900391 C 4.9494745 21.900391 4.0996094 21.050525 4.0996094 20 L 4.0996094 4 C 4.0996094 2.9494745 4.9494745 2.0996094 6 2.0996094 z M 14.099609 2.0996094 L 14.958984 2.0996094 L 19.900391 7.0410156 L 19.900391 7.9003906 L 16 7.9003906 C 14.949475 7.9003906 14.099609 7.0505255 14.099609 6 L 14.099609 2.0996094 z M 10 11.900391 C 9.3936712 11.900391 8.9003906 12.393671 8.9003906 13 L 8.9003906 14 C 8.9003906 14.498241 8.4982407 14.900391 8 14.900391 L 8 15.099609 C 8.4982407 15.099609 8.9003906 15.501759 8.9003906 16 L 8.9003906 17 C 8.9003906 17.606329 9.3936712 18.099609 10 18.099609 A 0.1 0.1 0 0 0 10.099609 18 A 0.1 0.1 0 0 0 10 17.900391 C 9.5017593 17.900391 9.0996094 17.498241 9.0996094 17 L 9.0996094 16 C 9.0996094 15.487365 8.7157406 15.121302 8.2402344 15 C 8.7157406 14.878698 9.0996094 14.512635 9.0996094 14 L 9.0996094 13 C 9.0996094 12.501759 9.5017593 12.099609 10 12.099609 A 0.1 0.1 0 0 0 10.099609 12 A 0.1 0.1 0 0 0 10 11.900391 z M 13.986328 11.900391 A 0.1 0.1 0 0 0 13.900391 12 A 0.1 0.1 0 0 0 14 12.099609 C 14.498241 12.099609 14.900391 12.501759 14.900391 13 L 14.900391 14 C 14.900391 14.512635 15.284259 14.878698 15.759766 15 C 15.284259 15.121302 14.900391 15.487365 14.900391 16 L 14.900391 17 C 14.900391 17.498241 14.498241 17.900391 14 17.900391 A 0.1 0.1 0 0 0 13.900391 18 A 0.1 0.1 0 0 0 14 18.099609 C 14.606329 18.099609 15.099609 17.606329 15.099609 17 L 15.099609 16 C 15.099609 15.501759 15.501759 15.099609 16 15.099609 L 16 14.900391 C 15.501759 14.900391 15.099609 14.498241 15.099609 14 L 15.099609 13 C 15.099609 12.393671 14.606329 11.900391 14 11.900391 A 0.1 0.1 0 0 0 13.986328 11.900391 z " />
</svg>
