<?xml version="1.0" encoding="UTF-8" standalone="no"?>
<svg
   width="24"
   height="24"
   viewBox="0 0 24 24"
   fill="none"
   stroke="currentColor"
   stroke-width="0.2"
   stroke-linecap="round"
   stroke-linejoin="round"
   version="1.1"
   id="svg3"
   sodipodi:docname=".tmp_file-user.svg"
   xmlns:inkscape="http://www.inkscape.org/namespaces/inkscape"
   xmlns:sodipodi="http://sodipodi.sourceforge.net/DTD/sodipodi-0.dtd"
   xmlns="http://www.w3.org/2000/svg"
   xmlns:svg="http://www.w3.org/2000/svg">
  <defs
     id="defs3" />
  <sodipodi:namedview
     id="namedview3"
     pagecolor="#ffffff"
     bordercolor="#000000"
     borderopacity="0.25"
     inkscape:showpageshadow="2"
     inkscape:pageopacity="0.0"
     inkscape:pagecheckerboard="0"
     inkscape:deskcolor="#d1d1d1" />
  <path
     id="path1"
     style="baseline-shift:baseline;display:inline;overflow:visible;vector-effect:none;fill:#000000;stroke:none;stroke-linecap:butt;stroke-linejoin:miter;enable-background:accumulate;stop-color:#000000;stop-opacity:1;opacity:1"
     d="M 6 1.9003906 C 4.8413865 1.9003906 3.9003906 2.8413865 3.9003906 4 L 3.9003906 20 C 3.9003906 21.158614 4.8413865 22.099609 6 22.099609 L 18 22.099609 C 19.158614 22.099609 20.099609 21.158614 20.099609 20 L 20.099609 8.0136719 A 0.1 0.1 0 0 0 20.099609 8 A 0.1 0.1 0 0 0 20.099609 7.9863281 L 20.099609 7 A 0.10001 0.10001 0 0 0 20.070312 6.9296875 L 15.070312 1.9296875 A 0.10001 0.10001 0 0 0 15 1.9003906 L 6 1.9003906 z M 6 2.0996094 L 13.900391 2.0996094 L 13.900391 6 C 13.900391 7.1586135 14.841386 8.0996094 16 8.0996094 L 19.900391 8.0996094 L 19.900391 20 C 19.900391 21.050525 19.050525 21.900391 18 21.900391 L 6 21.900391 C 4.9494745 21.900391 4.0996094 21.050525 4.0996094 20 L 4.0996094 4 C 4.0996094 2.9494745 4.9494745 2.0996094 6 2.0996094 z M 14.099609 2.0996094 L 14.958984 2.0996094 L 19.900391 7.0410156 L 19.900391 7.9003906 L 16 7.9003906 C 14.949475 7.9003906 14.099609 7.0505255 14.099609 6 L 14.099609 2.0996094 z M 12 10.900391 C 10.841386 10.900391 9.9003906 11.841386 9.9003906 13 C 9.9003906 13.908013 10.477443 14.682114 11.285156 14.974609 C 10.764872 15.084955 10.273162 15.318388 9.8710938 15.675781 C 9.2879755 16.194108 8.9003906 16.975 8.9003906 18 A 0.1 0.1 0 0 0 9 18.099609 A 0.1 0.1 0 0 0 9.0996094 18 C 9.0996094 17.025 9.4620247 16.305891 10.003906 15.824219 C 10.545788 15.342546 11.272222 15.099609 12 15.099609 C 12.727778 15.099609 13.454212 15.342546 13.996094 15.824219 C 14.537976 16.305891 14.900391 17.025 14.900391 18 A 0.1 0.1 0 0 0 15 18.099609 A 0.1 0.1 0 0 0 15.099609 18 C 15.099609 16.975 14.712024 16.194108 14.128906 15.675781 C 13.726838 15.318388 13.235128 15.084955 12.714844 14.974609 C 13.522557 14.682114 14.099609 13.908013 14.099609 13 C 14.099609 11.841386 13.158614 10.900391 12 10.900391 z M 12 11.099609 C 13.050525 11.099609 13.900391 11.949475 13.900391 13 C 13.900391 14.050525 13.050525 14.900391 12 14.900391 C 10.949475 14.900391 10.099609 14.050525 10.099609 13 C 10.099609 11.949475 10.949475 11.099609 12 11.099609 z " />
</svg>
