<?xml version="1.0" encoding="UTF-8" standalone="no"?>
<svg
   width="24"
   height="24"
   viewBox="0 0 24 24"
   fill="none"
   stroke="currentColor"
   stroke-width="0.2"
   stroke-linecap="round"
   stroke-linejoin="round"
   version="1.1"
   id="svg6"
   sodipodi:docname=".tmp_fish.svg"
   xmlns:inkscape="http://www.inkscape.org/namespaces/inkscape"
   xmlns:sodipodi="http://sodipodi.sourceforge.net/DTD/sodipodi-0.dtd"
   xmlns="http://www.w3.org/2000/svg"
   xmlns:svg="http://www.w3.org/2000/svg">
  <defs
     id="defs6" />
  <sodipodi:namedview
     id="namedview6"
     pagecolor="#ffffff"
     bordercolor="#000000"
     borderopacity="0.25"
     inkscape:showpageshadow="2"
     inkscape:pageopacity="0.0"
     inkscape:pagecheckerboard="0"
     inkscape:deskcolor="#d1d1d1" />
  <path
     id="path1"
     style="baseline-shift:baseline;display:inline;overflow:visible;vector-effect:none;fill:#000000;stroke:none;stroke-linecap:butt;stroke-linejoin:miter;enable-background:accumulate;stop-color:#000000;stop-opacity:1;opacity:1"
     d="M 8 2.9003906 A 0.10001 0.10001 0 0 0 7.9277344 3.0683594 C 9.0692235 4.2781427 10.076085 5.8804617 10.349609 7.2148438 C 9.007882 7.9910704 7.8452638 9.0729214 7.09375 10.353516 C 7.0413796 9.1303752 6.6818536 8.0452394 6.0117188 7.1972656 C 5.2842532 6.2767473 4.1912689 5.6387178 2.7460938 5.4003906 A 0.10001 0.10001 0 0 0 2.6464844 5.4453125 C 2.1265717 6.2251809 1.8791115 7.4870982 1.9082031 8.7519531 C 1.9366581 9.9891494 2.2406007 11.214987 2.8515625 11.998047 C 2.2349217 12.780991 1.928866 14.009986 1.9003906 15.248047 C 1.8712956 16.513035 2.1213588 17.776751 2.6464844 18.556641 A 0.10001 0.10001 0 0 0 2.7460938 18.599609 C 4.1912689 18.361282 5.2842528 17.723254 6.0117188 16.802734 C 6.6812752 15.955493 7.0389434 14.872236 7.0917969 13.650391 C 7.9428374 15.102653 9.321965 16.296093 10.890625 17.080078 C 10.885478 18.49942 10.365521 19.868095 9.4257812 20.933594 A 0.10001 0.10001 0 0 0 9.5 21.099609 L 13.798828 21.099609 C 14.827154 21.103409 15.709238 20.359943 15.878906 19.345703 L 16.097656 18.017578 C 19.121938 17.551279 21.24654 15.160069 22.095703 12.025391 A 0.10001 0.10001 0 0 0 22.095703 11.974609 C 21.24652 8.8488904 19.122039 6.4522554 16.097656 5.984375 L 15.878906 4.6542969 C 15.709346 3.6407002 14.828269 2.8975288 13.800781 2.9003906 L 8 2.9003906 z M 8.1992188 3.0996094 L 13.800781 3.0996094 C 14.732493 3.0961594 15.527914 3.7665982 15.681641 4.6855469 L 15.890625 5.9550781 C 15.601614 5.9192713 15.304547 5.9003906 15 5.9003906 C 13.500199 5.9003906 11.926326 6.3421855 10.53125 7.1113281 C 10.239419 5.7864414 9.2843564 4.2903239 8.1992188 3.0996094 z M 2.796875 5.6269531 C 4.1535446 5.8702309 5.1762658 6.4628173 5.8554688 7.3222656 C 6.5505028 8.2017463 6.9003906 9.3526496 6.9003906 10.669922 A 0.1 0.1 0 0 0 6.9042969 10.695312 C 6.6936979 11.104175 6.5244952 11.532177 6.4042969 11.974609 A 0.10001 0.10001 0 0 0 6.4042969 12.025391 C 6.5243936 12.468727 6.6939274 12.897388 6.9042969 13.306641 A 0.1 0.1 0 0 0 6.9003906 13.330078 C 6.9003906 14.64735 6.5505029 15.798254 5.8554688 16.677734 C 5.1762659 17.537183 4.1535446 18.129769 2.796875 18.373047 C 2.3326014 17.646786 2.073783 16.459759 2.1015625 15.251953 C 2.1299675 14.016941 2.4414451 12.785015 3.0371094 12.064453 A 0.10001 0.10001 0 0 0 3.0371094 11.9375 C 2.4462899 11.216988 2.1377833 9.983192 2.109375 8.7480469 C 2.081609 7.5408298 2.3377155 6.3533859 2.796875 5.6269531 z M 15 6.0996094 C 15.279261 6.0996094 15.552666 6.1156795 15.818359 6.1464844 C 13.253778 9.6264041 13.253697 14.373636 15.818359 17.853516 C 15.552629 17.884216 15.279306 17.900391 15 17.900391 C 11.49691 17.900391 7.5477914 15.398596 6.609375 12 C 7.5477533 8.611336 11.497109 6.0996094 15 6.0996094 z M 16.044922 6.1757812 C 18.990659 6.6191016 21.053657 8.9359687 21.894531 12 C 21.05366 15.072844 18.990689 17.382383 16.044922 17.824219 C 13.444091 14.377269 13.444223 9.6227973 16.044922 6.1757812 z M 17.986328 11.900391 A 0.1 0.1 0 0 0 17.900391 12 L 17.900391 12.5 A 0.1 0.1 0 0 0 18 12.599609 A 0.1 0.1 0 0 0 18.099609 12.5 L 18.099609 12 A 0.1 0.1 0 0 0 18 11.900391 A 0.1 0.1 0 0 0 17.986328 11.900391 z M 11.087891 17.175781 C 12.337068 17.766799 13.696703 18.099609 15 18.099609 C 15.304535 18.099609 15.601621 18.080605 15.890625 18.044922 L 15.681641 19.314453 C 15.527914 20.233402 14.732493 20.903843 13.800781 20.900391 L 9.6738281 20.900391 C 10.544604 19.846115 11.059249 18.542558 11.087891 17.175781 z " />
</svg>
