<?xml version="1.0" encoding="UTF-8" standalone="no"?>
<svg
   width="24"
   height="24"
   viewBox="0 0 24 24"
   fill="none"
   stroke="currentColor"
   stroke-width="0.2"
   stroke-linecap="round"
   stroke-linejoin="round"
   version="1.1"
   id="svg2"
   sodipodi:docname=".tmp_folder-pen.svg"
   xmlns:inkscape="http://www.inkscape.org/namespaces/inkscape"
   xmlns:sodipodi="http://sodipodi.sourceforge.net/DTD/sodipodi-0.dtd"
   xmlns="http://www.w3.org/2000/svg"
   xmlns:svg="http://www.w3.org/2000/svg">
  <defs
     id="defs2" />
  <sodipodi:namedview
     id="namedview2"
     pagecolor="#ffffff"
     bordercolor="#000000"
     borderopacity="0.25"
     inkscape:showpageshadow="2"
     inkscape:pageopacity="0.0"
     inkscape:pagecheckerboard="0"
     inkscape:deskcolor="#d1d1d1" />
  <path
     id="path1"
     style="baseline-shift:baseline;display:inline;overflow:visible;vector-effect:none;fill:#000000;stroke:none;stroke-linecap:butt;stroke-linejoin:miter;enable-background:accumulate;stop-color:#000000;stop-opacity:1;opacity:1"
     d="M 4 2.9003906 C 2.8413865 2.9003906 1.9003906 3.8413865 1.9003906 5 L 1.9003906 11.5 A 0.1 0.1 0 0 0 2 11.599609 A 0.1 0.1 0 0 0 2.0996094 11.5 L 2.0996094 5 C 2.0996094 3.9494745 2.9494745 3.0996094 4 3.0996094 L 7.9003906 3.0996094 C 8.5718192 3.0996094 9.1346458 3.3806797 9.5175781 3.9550781 L 10.316406 5.15625 C 10.733474 5.7818515 11.371038 6.0996094 12.099609 6.0996094 L 20 6.0996094 C 21.050525 6.0996094 21.900391 6.9494745 21.900391 8 L 21.900391 18 C 21.900391 19.050525 21.050525 19.900391 20 19.900391 L 10.5 19.900391 A 0.1 0.1 0 0 0 10.400391 20 A 0.1 0.1 0 0 0 10.5 20.099609 L 20 20.099609 C 21.158614 20.099609 22.099609 19.158614 22.099609 18 L 22.099609 8 C 22.099609 6.8413865 21.158614 5.9003906 20 5.9003906 L 12.099609 5.9003906 C 11.428181 5.9003906 10.865354 5.6193203 10.482422 5.0449219 L 9.6835938 3.84375 C 9.266526 3.2181485 8.6289621 2.9003906 7.9003906 2.9003906 L 4 2.9003906 z M 9.765625 9.8632812 C 9.2696434 9.8866228 8.7562855 10.09723 8.3027344 10.550781 L 3.2929688 15.5625 C 3.0433313 15.812 2.8606492 16.122143 2.7617188 16.460938 L 1.9257812 19.330078 C 1.7946388 19.77971 2.2202901 20.205361 2.6699219 20.074219 L 5.5390625 19.236328 C 5.8778571 19.137398 6.1860469 18.954716 6.4355469 18.705078 L 11.449219 13.697266 C 11.967563 13.178921 12.167677 12.582933 12.134766 12.023438 C 12.101856 11.46394 11.840432 10.941995 11.449219 10.550781 C 11.058005 10.159568 10.536059 9.8981461 9.9765625 9.8652344 C 9.9066254 9.8611204 9.8364795 9.8599467 9.765625 9.8632812 z M 9.7753906 10.0625 C 9.8391587 10.059595 9.9017913 10.060744 9.9648438 10.064453 C 10.469263 10.094123 10.946854 10.333573 11.306641 10.693359 C 11.666427 11.053146 11.905875 11.530737 11.935547 12.035156 C 11.965217 12.539576 11.789629 13.071699 11.306641 13.554688 L 6.2949219 18.564453 C 6.0691783 18.790321 5.7889578 18.955411 5.4824219 19.044922 L 2.6132812 19.882812 C 2.3050153 19.972723 2.0272765 19.694985 2.1171875 19.386719 L 2.953125 16.515625 C 3.042636 16.209089 3.2096789 15.930822 3.4355469 15.705078 L 8.4453125 10.693359 C 8.8679277 10.270745 9.329014 10.082834 9.7753906 10.0625 z " />
</svg>
