<?xml version="1.0" encoding="UTF-8" standalone="no"?>
<svg
   width="24"
   height="24"
   viewBox="0 0 24 24"
   fill="none"
   stroke="currentColor"
   stroke-width="0.2"
   stroke-linecap="round"
   stroke-linejoin="round"
   version="1.1"
   id="svg4"
   sodipodi:docname=".tmp_gamepad.svg"
   xmlns:inkscape="http://www.inkscape.org/namespaces/inkscape"
   xmlns:sodipodi="http://sodipodi.sourceforge.net/DTD/sodipodi-0.dtd"
   xmlns="http://www.w3.org/2000/svg"
   xmlns:svg="http://www.w3.org/2000/svg">
  <defs
     id="defs4" />
  <sodipodi:namedview
     id="namedview4"
     pagecolor="#ffffff"
     bordercolor="#000000"
     borderopacity="0.25"
     inkscape:showpageshadow="2"
     inkscape:pageopacity="0.0"
     inkscape:pagecheckerboard="0"
     inkscape:deskcolor="#d1d1d1" />
  <path
     id="line1"
     style="baseline-shift:baseline;display:inline;overflow:visible;vector-effect:none;fill:#000000;stroke:none;stroke-linecap:butt;stroke-linejoin:miter;enable-background:accumulate;stop-color:#000000;stop-opacity:1;opacity:1"
     d="M 4 5.9003906 C 2.8383297 5.9003906 1.9003906 6.8383297 1.9003906 8 L 1.9003906 16 C 1.9003906 17.16167 2.8383297 18.099609 4 18.099609 L 20 18.099609 C 21.16167 18.099609 22.099609 17.16167 22.099609 16 L 22.099609 8 C 22.099609 6.8383297 21.16167 5.9003906 20 5.9003906 L 4 5.9003906 z M 4 6.0996094 L 20 6.0996094 C 21.05433 6.0996094 21.900391 6.9456703 21.900391 8 L 21.900391 16 C 21.900391 17.05433 21.05433 17.900391 20 17.900391 L 4 17.900391 C 2.9456703 17.900391 2.0996094 17.05433 2.0996094 16 L 2.0996094 8 C 2.0996094 6.9456703 2.9456703 6.0996094 4 6.0996094 z M 7.9863281 9.9003906 A 0.1 0.1 0 0 0 7.9003906 10 L 7.9003906 11.900391 L 6 11.900391 A 0.1 0.1 0 0 0 5.9003906 12 A 0.1 0.1 0 0 0 6 12.099609 L 7.9003906 12.099609 L 7.9003906 14 A 0.1 0.1 0 0 0 8 14.099609 A 0.1 0.1 0 0 0 8.0996094 14 L 8.0996094 12.099609 L 10 12.099609 A 0.1 0.1 0 0 0 10.099609 12 A 0.1 0.1 0 0 0 10 11.900391 L 8.0996094 11.900391 L 8.0996094 10 A 0.1 0.1 0 0 0 8 9.9003906 A 0.1 0.1 0 0 0 7.9863281 9.9003906 z M 17.986328 10.900391 A 0.1 0.1 0 0 0 17.900391 11 A 0.1 0.1 0 0 0 18 11.099609 L 18.009766 11.099609 A 0.1 0.1 0 0 0 18.109375 11 A 0.1 0.1 0 0 0 18.009766 10.900391 L 18 10.900391 A 0.1 0.1 0 0 0 17.986328 10.900391 z M 14.986328 12.900391 A 0.1 0.1 0 0 0 14.900391 13 A 0.1 0.1 0 0 0 15 13.099609 L 15.009766 13.099609 A 0.1 0.1 0 0 0 15.109375 13 A 0.1 0.1 0 0 0 15.009766 12.900391 L 15 12.900391 A 0.1 0.1 0 0 0 14.986328 12.900391 z " />
</svg>
