<?xml version="1.0" encoding="UTF-8" standalone="no"?>
<svg
   width="24"
   height="24"
   viewBox="0 0 24 24"
   fill="none"
   stroke="currentColor"
   stroke-width="0.2"
   stroke-linecap="round"
   stroke-linejoin="round"
   version="1.1"
   id="svg2"
   sodipodi:docname=".tmp_git-commit-vertical.svg"
   xmlns:inkscape="http://www.inkscape.org/namespaces/inkscape"
   xmlns:sodipodi="http://sodipodi.sourceforge.net/DTD/sodipodi-0.dtd"
   xmlns="http://www.w3.org/2000/svg"
   xmlns:svg="http://www.w3.org/2000/svg">
  <defs
     id="defs2" />
  <sodipodi:namedview
     id="namedview2"
     pagecolor="#ffffff"
     bordercolor="#000000"
     borderopacity="0.25"
     inkscape:showpageshadow="2"
     inkscape:pageopacity="0.0"
     inkscape:pagecheckerboard="0"
     inkscape:deskcolor="#d1d1d1" />
  <path
     id="path1"
     style="baseline-shift:baseline;display:inline;overflow:visible;vector-effect:none;fill:#000000;stroke:none;stroke-linecap:butt;stroke-linejoin:miter;enable-background:accumulate;stop-color:#000000;stop-opacity:1;opacity:1"
     d="M 11.986328 2.9003906 A 0.1 0.1 0 0 0 11.900391 3 L 11.900391 8.9023438 C 10.235525 8.9549965 8.9003906 10.32243 8.9003906 12 C 8.9003906 13.67757 10.235525 15.045003 11.900391 15.097656 L 11.900391 21 A 0.1 0.1 0 0 0 12 21.099609 A 0.1 0.1 0 0 0 12.099609 21 L 12.099609 15.097656 C 13.764475 15.045003 15.099609 13.67757 15.099609 12 C 15.099609 10.32243 13.764475 8.9549965 12.099609 8.9023438 L 12.099609 3 A 0.1 0.1 0 0 0 12 2.9003906 A 0.1 0.1 0 0 0 11.986328 2.9003906 z M 11.986328 9.0996094 A 0.1 0.1 0 0 0 12 9.0996094 A 0.1 0.1 0 0 0 12.013672 9.0996094 C 13.610126 9.1070288 14.900391 10.401791 14.900391 12 C 14.900391 13.598209 13.610126 14.892971 12.013672 14.900391 C 12.009076 14.900412 12.004601 14.900391 12 14.900391 C 11.995399 14.900391 11.990924 14.900412 11.986328 14.900391 C 10.389874 14.892971 9.0996094 13.598209 9.0996094 12 C 9.0996094 10.401791 10.389874 9.1070288 11.986328 9.0996094 z " />
</svg>
