<?xml version="1.0" encoding="UTF-8" standalone="no"?>
<svg
   width="24"
   height="24"
   viewBox="0 0 24 24"
   fill="none"
   stroke="currentColor"
   stroke-width="0.2"
   stroke-linecap="round"
   stroke-linejoin="round"
   version="1.1"
   id="svg2"
   sodipodi:docname=".tmp_github.svg"
   xmlns:inkscape="http://www.inkscape.org/namespaces/inkscape"
   xmlns:sodipodi="http://sodipodi.sourceforge.net/DTD/sodipodi-0.dtd"
   xmlns="http://www.w3.org/2000/svg"
   xmlns:svg="http://www.w3.org/2000/svg">
  <defs
     id="defs2" />
  <sodipodi:namedview
     id="namedview2"
     pagecolor="#ffffff"
     bordercolor="#000000"
     borderopacity="0.25"
     inkscape:showpageshadow="2"
     inkscape:pageopacity="0.0"
     inkscape:pagecheckerboard="0"
     inkscape:deskcolor="#d1d1d1" />
  <path
     id="path1"
     style="baseline-shift:baseline;display:inline;overflow:visible;vector-effect:none;fill:#000000;stroke:none;stroke-linecap:butt;stroke-linejoin:miter;enable-background:accumulate;stop-color:#000000;stop-opacity:1;opacity:1"
     d="M 4.9863281 1.9003906 A 0.10001 0.10001 0 0 0 4.9023438 1.9746094 C 4.6024066 3.1243685 4.6109856 4.3234284 4.9023438 5.4746094 C 4.1764895 6.5019105 3.8196507 7.7441041 3.9003906 9 L 3.9003906 9.0019531 C 3.9009899 10.779537 4.665845 12.184754 5.8105469 13.138672 C 6.9176658 14.061271 8.3803321 14.541763 9.8515625 14.574219 C 9.5010806 15.044307 9.2142832 15.559768 9.0546875 16.123047 C 8.8878814 16.711774 8.833227 17.328772 8.8925781 17.9375 C 7.8093687 18.407759 6.9745281 18.520685 6.2988281 18.431641 C 5.6093824 18.340785 5.0807335 18.040078 4.6210938 17.671875 C 4.1614541 17.303672 3.774102 16.867643 3.3691406 16.517578 C 2.9641792 16.167513 2.5333333 15.900391 2 15.900391 A 0.1 0.1 0 0 0 1.9003906 16 A 0.1 0.1 0 0 0 2 16.099609 C 2.4666667 16.099609 2.8479302 16.332487 3.2382812 16.669922 C 3.6286322 17.007357 4.0194834 17.446328 4.4960938 17.828125 C 4.9727042 18.209922 5.5381176 18.534215 6.2714844 18.630859 C 6.9744126 18.723488 7.8274514 18.607072 8.9003906 18.152344 L 8.9003906 22 A 0.1 0.1 0 0 0 9 22.099609 A 0.1 0.1 0 0 0 9.0996094 22 L 9.0996094 18.015625 A 0.1 0.1 0 0 0 9.0996094 17.992188 A 0.1 0.1 0 0 0 9.0996094 17.988281 C 9.0993136 17.985661 9.0999008 17.983089 9.0996094 17.980469 C 9.0323549 17.375794 9.0804145 16.762485 9.2460938 16.177734 C 9.4124113 15.590731 9.6962017 15.042352 10.078125 14.5625 A 0.10001 0.10001 0 0 0 10 14.400391 C 8.5222222 14.400391 7.0443031 13.907036 5.9394531 12.986328 C 4.8346032 12.06562 4.0996094 10.721429 4.0996094 9 A 0.10001 0.10001 0 0 0 4.0996094 8.9941406 C 4.0195893 7.7699919 4.3673694 6.5556912 5.0820312 5.5585938 A 0.10001 0.10001 0 0 0 5.0976562 5.4746094 C 4.810485 4.3737862 4.8270713 3.2284834 5.0976562 2.125 C 5.1514682 2.12745 5.2921034 2.12272 5.7148438 2.28125 C 6.2045826 2.4649021 6.9458531 2.8348781 7.9394531 3.5800781 A 0.10001 0.10001 0 0 0 8.0195312 3.5976562 C 10.647192 3.0999931 13.352808 3.0999931 15.980469 3.5976562 A 0.10001 0.10001 0 0 0 16.060547 3.5800781 C 17.054147 2.8348781 17.795417 2.4649021 18.285156 2.28125 C 18.707897 2.1227224 18.848531 2.1274533 18.902344 2.125 C 19.154667 3.2288291 19.170437 4.3754649 18.902344 5.4765625 A 0.10001 0.10001 0 0 0 18.917969 5.5585938 C 19.63463 6.5599555 19.978936 7.7668659 19.900391 8.9941406 A 0.10001 0.10001 0 0 0 19.900391 9 C 19.900391 10.721429 19.165397 12.06562 18.060547 12.986328 C 16.95569 13.907035 15.477778 14.400391 14 14.400391 A 0.10001 0.10001 0 0 0 13.921875 14.5625 C 14.685579 15.532026 15.036616 16.761633 14.900391 17.988281 A 0.10001 0.10001 0 0 0 14.900391 18 L 14.900391 22 A 0.1 0.1 0 0 0 15 22.099609 A 0.1 0.1 0 0 0 15.099609 22 L 15.099609 18.011719 L 15.099609 18 C 15.232427 16.777006 14.876413 15.561553 14.148438 14.574219 C 15.619668 14.541759 17.082334 14.061271 18.189453 13.138672 C 19.334155 12.184754 20.09901 10.779537 20.099609 9.0019531 C 20.179289 7.742987 19.825521 6.5061713 19.097656 5.4746094 C 19.369826 4.323761 19.377532 3.126053 19.097656 1.9765625 A 0.10001 0.10001 0 0 0 19 1.9003906 C 19 1.9003906 18.725105 1.9024006 18.214844 2.09375 C 17.71289 2.2819825 16.958627 2.6678845 15.976562 3.3984375 C 13.351726 2.9067803 10.648274 2.9067803 8.0234375 3.3984375 C 7.0413728 2.6678845 6.2871096 2.2819825 5.7851562 2.09375 C 5.2748951 1.9024021 5 1.9003906 5 1.9003906 A 0.10001 0.10001 0 0 0 4.9863281 1.9003906 z " />
</svg>
