<?xml version="1.0" encoding="UTF-8" standalone="no"?>
<svg
   width="24"
   height="24"
   viewBox="0 0 24 24"
   fill="none"
   stroke="currentColor"
   stroke-width="0.2"
   stroke-linecap="round"
   stroke-linejoin="round"
   version="1.1"
   id="svg4"
   sodipodi:docname=".tmp_hand-coins.svg"
   xmlns:inkscape="http://www.inkscape.org/namespaces/inkscape"
   xmlns:sodipodi="http://sodipodi.sourceforge.net/DTD/sodipodi-0.dtd"
   xmlns="http://www.w3.org/2000/svg"
   xmlns:svg="http://www.w3.org/2000/svg">
  <defs
     id="defs4" />
  <sodipodi:namedview
     id="namedview4"
     pagecolor="#ffffff"
     bordercolor="#000000"
     borderopacity="0.25"
     inkscape:showpageshadow="2"
     inkscape:pageopacity="0.0"
     inkscape:pagecheckerboard="0"
     inkscape:deskcolor="#d1d1d1" />
  <path
     id="path1"
     style="baseline-shift:baseline;display:inline;overflow:visible;vector-effect:none;fill:#000000;stroke:none;stroke-linecap:butt;stroke-linejoin:miter;enable-background:accumulate;stop-color:#000000;stop-opacity:1;opacity:1"
     d="M 6 1.9003906 C 4.2891017 1.9003906 2.9003906 3.2891017 2.9003906 5 C 2.9003906 6.7108983 4.2891017 8.0996094 6 8.0996094 C 7.7108983 8.0996094 9.0996094 6.7108983 9.0996094 5 C 9.0996094 3.2891017 7.7108983 1.9003906 6 1.9003906 z M 6 2.0996094 C 7.6028102 2.0996094 8.9003906 3.3971898 8.9003906 5 C 8.9003906 6.6028102 7.6028102 7.9003906 6 7.9003906 C 4.3971898 7.9003906 3.0996094 6.6028102 3.0996094 5 C 3.0996094 3.3971898 4.3971898 2.0996094 6 2.0996094 z M 16 6 C 14.34433 6 13 7.3443302 13 9 C 13 9.7842267 13.301482 10.498452 13.794922 11.033203 C 13.560039 10.9479 13.294673 10.900391 13 10.900391 L 10 10.900391 C 9.3777778 10.900391 8.8419312 11.109195 8.5195312 11.539062 L 3 16.859375 L 2.0703125 15.929688 A 0.1 0.1 0 0 0 1.9296875 15.929688 A 0.1 0.1 0 0 0 1.9296875 16.070312 L 2.9179688 17.058594 A 0.1 0.1 0 0 0 2.9277344 17.070312 A 0.1 0.1 0 0 0 2.9414062 17.082031 L 6.9160156 21.056641 A 0.1 0.1 0 0 0 6.9238281 21.066406 A 0.1 0.1 0 0 0 6.9433594 21.083984 L 7.9296875 22.070312 A 0.1 0.1 0 0 0 8.0703125 22.070312 A 0.1 0.1 0 0 0 8.0703125 21.929688 L 7.1464844 21.005859 L 8.6660156 19.675781 A 0.10001 0.10001 0 0 0 8.6796875 19.660156 C 8.9572918 19.289994 9.4222222 19.099609 10 19.099609 L 14 19.099609 C 15.120893 19.099609 16.149242 18.691237 16.869141 17.873047 L 21.46875 13.472656 C 21.97192 12.997152 22.178263 12.439709 22.162109 11.910156 C 22.145959 11.380604 21.911748 10.881854 21.552734 10.501953 C 21.193721 10.122052 20.707482 9.8604965 20.179688 9.8144531 C 19.691452 9.7718611 19.169046 9.9179194 18.695312 10.316406 C 18.889871 9.9189607 19 9.4719758 19 9 C 19 7.3443302 17.65567 6 16 6 z M 16 6.1992188 C 17.547582 6.1992188 18.800781 7.4524182 18.800781 9 C 18.800781 10.547582 17.547582 11.800781 16 11.800781 C 14.452418 11.800781 13.199219 10.547582 13.199219 9 C 13.199219 7.4524182 14.452418 6.1992188 16 6.1992188 z M 19.984375 10.007812 C 20.044311 10.006827 20.103006 10.008516 20.162109 10.013672 C 20.63494 10.054922 21.079716 10.291073 21.408203 10.638672 C 21.73669 10.986271 21.946466 11.443563 21.960938 11.917969 C 21.975407 12.392374 21.798861 12.886963 21.332031 13.328125 A 0.10001 0.10001 0 0 0 21.330078 13.328125 L 16.730469 17.728516 A 0.10001 0.10001 0 0 0 16.724609 17.734375 C 16.044898 18.511246 15.075758 18.900391 14 18.900391 L 10 18.900391 C 9.3777778 18.900391 8.8419312 19.109197 8.5195312 19.539062 L 7.0039062 20.863281 L 3.1425781 17.001953 L 8.6699219 11.671875 A 0.10001 0.10001 0 0 0 8.6796875 11.660156 C 8.95728 11.289978 9.4222222 11.099609 10 11.099609 L 13 11.099609 C 13.641666 11.099609 14.110775 11.337024 14.425781 11.691406 C 14.740787 12.045788 14.900391 12.522222 14.900391 13 C 14.900391 13.422265 14.773782 13.844808 14.527344 14.181641 L 14.382812 14.316406 A 0.1 0.1 0 0 0 14.349609 14.388672 C 14.036873 14.698269 13.592018 14.900391 13 14.900391 L 11 14.900391 A 0.1 0.1 0 0 0 10.900391 15 A 0.1 0.1 0 0 0 11 15.099609 L 13 15.099609 C 13.691666 15.099609 14.222558 14.837024 14.574219 14.441406 C 14.611025 14.4 14.646775 14.356562 14.679688 14.3125 L 17.916016 11.308594 C 18.002164 11.236971 18.084496 11.160756 18.162109 11.080078 L 18.71875 10.5625 C 19.127226 10.176483 19.564822 10.014714 19.984375 10.007812 z M 14.6875 11.697266 C 15.084234 11.890957 15.529146 12 16 12 C 16.388905 12 16.760401 11.925974 17.101562 11.791016 L 14.966797 13.773438 C 15.055584 13.526121 15.099609 13.263184 15.099609 13 C 15.099609 12.536855 14.963722 12.072335 14.6875 11.697266 z " />
</svg>
