<?xml version="1.0" encoding="UTF-8" standalone="no"?>
<svg
   width="24"
   height="24"
   viewBox="0 0 24 24"
   fill="none"
   stroke="currentColor"
   stroke-width="0.2"
   stroke-linecap="round"
   stroke-linejoin="round"
   version="1.1"
   id="svg3"
   sodipodi:docname=".tmp_heading.svg"
   xmlns:inkscape="http://www.inkscape.org/namespaces/inkscape"
   xmlns:sodipodi="http://sodipodi.sourceforge.net/DTD/sodipodi-0.dtd"
   xmlns="http://www.w3.org/2000/svg"
   xmlns:svg="http://www.w3.org/2000/svg">
  <defs
     id="defs3" />
  <sodipodi:namedview
     id="namedview3"
     pagecolor="#ffffff"
     bordercolor="#000000"
     borderopacity="0.25"
     inkscape:showpageshadow="2"
     inkscape:pageopacity="0.0"
     inkscape:pagecheckerboard="0"
     inkscape:deskcolor="#d1d1d1" />
  <path
     id="path1"
     style="baseline-shift:baseline;display:inline;overflow:visible;vector-effect:none;fill:#000000;stroke:none;stroke-linecap:butt;stroke-linejoin:miter;enable-background:accumulate;stop-color:#000000;stop-opacity:1;opacity:1"
     d="M 5.9863281 3.9003906 A 0.1 0.1 0 0 0 5.9003906 4 L 5.9003906 11.986328 A 0.1 0.1 0 0 0 5.9003906 12 A 0.1 0.1 0 0 0 5.9003906 12.013672 L 5.9003906 20 A 0.1 0.1 0 0 0 6 20.099609 A 0.1 0.1 0 0 0 6.0996094 20 L 6.0996094 12.099609 L 17.900391 12.099609 L 17.900391 20 A 0.1 0.1 0 0 0 18 20.099609 A 0.1 0.1 0 0 0 18.099609 20 L 18.099609 12.013672 A 0.1 0.1 0 0 0 18.099609 12 A 0.1 0.1 0 0 0 18.099609 11.986328 L 18.099609 4 A 0.1 0.1 0 0 0 18 3.9003906 A 0.1 0.1 0 0 0 17.900391 4 L 17.900391 11.900391 L 6.0996094 11.900391 L 6.0996094 4 A 0.1 0.1 0 0 0 6 3.9003906 A 0.1 0.1 0 0 0 5.9863281 3.9003906 z " />
</svg>
