<?xml version="1.0" encoding="UTF-8" standalone="no"?>
<svg
   width="24"
   height="24"
   viewBox="0 0 24 24"
   fill="none"
   stroke="currentColor"
   stroke-width="0.2"
   stroke-linecap="round"
   stroke-linejoin="round"
   version="1.1"
   id="svg10"
   sodipodi:docname=".tmp_heater.svg"
   xmlns:inkscape="http://www.inkscape.org/namespaces/inkscape"
   xmlns:sodipodi="http://sodipodi.sourceforge.net/DTD/sodipodi-0.dtd"
   xmlns="http://www.w3.org/2000/svg"
   xmlns:svg="http://www.w3.org/2000/svg">
  <defs
     id="defs10" />
  <sodipodi:namedview
     id="namedview10"
     pagecolor="#ffffff"
     bordercolor="#000000"
     borderopacity="0.25"
     inkscape:showpageshadow="2"
     inkscape:pageopacity="0.0"
     inkscape:pagecheckerboard="0"
     inkscape:deskcolor="#d1d1d1" />
  <path
     id="path1"
     style="baseline-shift:baseline;display:inline;overflow:visible;vector-effect:none;fill:#000000;stroke:none;stroke-linecap:butt;stroke-linejoin:miter;enable-background:accumulate;stop-color:#000000;stop-opacity:1;opacity:1"
     d="M 10.992188 1.9003906 A 0.1 0.1 0 0 0 10.916016 1.9453125 C 10.407482 2.7081133 10.271697 3.2984694 10.337891 3.7949219 C 10.404081 4.2913743 10.666016 4.6796875 10.916016 5.0546875 C 11.166016 5.4296875 11.404084 5.7913743 11.462891 6.2324219 C 11.521701 6.6734694 11.407481 7.2081133 10.916016 7.9453125 A 0.1 0.1 0 0 0 10.945312 8.0839844 A 0.1 0.1 0 0 0 11.083984 8.0546875 C 11.592518 7.2918867 11.728303 6.7015306 11.662109 6.2050781 C 11.595919 5.7086257 11.333984 5.3203125 11.083984 4.9453125 C 10.833984 4.5703125 10.595916 4.2086257 10.537109 3.7675781 C 10.478299 3.3265306 10.592519 2.7918867 11.083984 2.0546875 A 0.1 0.1 0 0 0 11.054688 1.9160156 A 0.1 0.1 0 0 0 10.992188 1.9003906 z M 15.492188 1.9003906 A 0.1 0.1 0 0 0 15.416016 1.9453125 C 14.907482 2.7081133 14.771697 3.2984694 14.837891 3.7949219 C 14.904081 4.2913743 15.166016 4.6796875 15.416016 5.0546875 C 15.666016 5.4296875 15.904084 5.7913743 15.962891 6.2324219 C 16.021701 6.6734694 15.907481 7.2081133 15.416016 7.9453125 A 0.1 0.1 0 0 0 15.445312 8.0839844 A 0.1 0.1 0 0 0 15.583984 8.0546875 C 16.092518 7.2918867 16.228303 6.7015306 16.162109 6.2050781 C 16.095919 5.7086257 15.833984 5.3203125 15.583984 4.9453125 C 15.333984 4.5703125 15.095916 4.2086257 15.037109 3.7675781 C 14.978299 3.3265306 15.092519 2.7918867 15.583984 2.0546875 A 0.1 0.1 0 0 0 15.554688 1.9160156 A 0.1 0.1 0 0 0 15.492188 1.9003906 z M 4 5.9003906 C 2.8413865 5.9003906 1.9003906 6.8413865 1.9003906 8 L 1.9003906 18 C 1.9003906 19.158614 2.8413865 20.099609 4 20.099609 L 4.9003906 20.099609 L 4.9003906 22 A 0.1 0.1 0 0 0 5 22.099609 A 0.1 0.1 0 0 0 5.0996094 22 L 5.0996094 20.099609 L 18.900391 20.099609 L 18.900391 22 A 0.1 0.1 0 0 0 19 22.099609 A 0.1 0.1 0 0 0 19.099609 22 L 19.099609 20.099609 L 20 20.099609 C 21.158614 20.099609 22.099609 19.158614 22.099609 18 L 22.099609 8 C 22.099609 6.8413865 21.158614 5.9003906 20 5.9003906 A 0.1 0.1 0 0 0 19.900391 6 A 0.1 0.1 0 0 0 20 6.0996094 C 21.050525 6.0996094 21.900391 6.9494745 21.900391 8 L 21.900391 18 C 21.900391 19.050525 21.050525 19.900391 20 19.900391 L 19.013672 19.900391 L 18.986328 19.900391 L 4 19.900391 C 2.9494745 19.900391 2.0996094 19.050525 2.0996094 18 L 2.0996094 8 C 2.0996094 6.9494745 2.9494745 6.0996094 4 6.0996094 L 7 6.0996094 A 0.1 0.1 0 0 0 7.0996094 6 A 0.1 0.1 0 0 0 7 5.9003906 L 4 5.9003906 z M 5.9863281 9.9003906 A 0.1 0.1 0 0 0 5.9003906 10 A 0.1 0.1 0 0 0 6 10.099609 L 6.0097656 10.099609 A 0.1 0.1 0 0 0 6.109375 10 A 0.1 0.1 0 0 0 6.0097656 9.9003906 L 6 9.9003906 A 0.1 0.1 0 0 0 5.9863281 9.9003906 z M 9.9863281 11.900391 A 0.1 0.1 0 0 0 9.9003906 12 L 9.9003906 16 A 0.1 0.1 0 0 0 10 16.099609 A 0.1 0.1 0 0 0 10.099609 16 L 10.099609 12 A 0.1 0.1 0 0 0 10 11.900391 A 0.1 0.1 0 0 0 9.9863281 11.900391 z M 13.986328 11.900391 A 0.1 0.1 0 0 0 13.900391 12 L 13.900391 16 A 0.1 0.1 0 0 0 14 16.099609 A 0.1 0.1 0 0 0 14.099609 16 L 14.099609 12 A 0.1 0.1 0 0 0 14 11.900391 A 0.1 0.1 0 0 0 13.986328 11.900391 z M 17.986328 11.900391 A 0.1 0.1 0 0 0 17.900391 12 L 17.900391 16 A 0.1 0.1 0 0 0 18 16.099609 A 0.1 0.1 0 0 0 18.099609 16 L 18.099609 12 A 0.1 0.1 0 0 0 18 11.900391 A 0.1 0.1 0 0 0 17.986328 11.900391 z M 5.9863281 13.900391 A 0.1 0.1 0 0 0 5.9003906 14 A 0.1 0.1 0 0 0 6 14.099609 L 6.0097656 14.099609 A 0.1 0.1 0 0 0 6.109375 14 A 0.1 0.1 0 0 0 6.0097656 13.900391 L 6 13.900391 A 0.1 0.1 0 0 0 5.9863281 13.900391 z " />
</svg>
