<?xml version="1.0" encoding="UTF-8" standalone="no"?>
<svg
   width="24"
   height="24"
   viewBox="0 0 24 24"
   fill="none"
   stroke="currentColor"
   stroke-width="0.2"
   stroke-linecap="round"
   stroke-linejoin="round"
   version="1.1"
   id="svg3"
   sodipodi:docname=".tmp_italic.svg"
   xmlns:inkscape="http://www.inkscape.org/namespaces/inkscape"
   xmlns:sodipodi="http://sodipodi.sourceforge.net/DTD/sodipodi-0.dtd"
   xmlns="http://www.w3.org/2000/svg"
   xmlns:svg="http://www.w3.org/2000/svg">
  <defs
     id="defs3" />
  <sodipodi:namedview
     id="namedview3"
     pagecolor="#ffffff"
     bordercolor="#000000"
     borderopacity="0.25"
     inkscape:showpageshadow="2"
     inkscape:pageopacity="0.0"
     inkscape:pagecheckerboard="0"
     inkscape:deskcolor="#d1d1d1" />
  <path
     id="line1"
     style="baseline-shift:baseline;display:inline;overflow:visible;vector-effect:none;fill:#000000;stroke:none;stroke-linecap:butt;stroke-linejoin:miter;enable-background:accumulate;stop-color:#000000;stop-opacity:1;opacity:1"
     d="M 9.9863281 3.9003906 A 0.1 0.1 0 0 0 9.9003906 4 A 0.1 0.1 0 0 0 10 4.0996094 L 14.855469 4.0996094 L 8.9296875 19.900391 L 5 19.900391 A 0.1 0.1 0 0 0 4.9003906 20 A 0.1 0.1 0 0 0 5 20.099609 L 8.9902344 20.099609 L 9.0097656 20.099609 L 14 20.099609 A 0.1 0.1 0 0 0 14.099609 20 A 0.1 0.1 0 0 0 14 19.900391 L 9.1445312 19.900391 L 15.070312 4.0996094 L 19 4.0996094 A 0.1 0.1 0 0 0 19.099609 4 A 0.1 0.1 0 0 0 19 3.9003906 L 15.009766 3.9003906 L 14.990234 3.9003906 L 10 3.9003906 A 0.1 0.1 0 0 0 9.9863281 3.9003906 z " />
</svg>
