<?xml version="1.0" encoding="UTF-8" standalone="no"?>
<svg
   width="24"
   height="24"
   viewBox="0 0 24 24"
   fill="none"
   stroke="currentColor"
   stroke-width="0.2"
   stroke-linecap="round"
   stroke-linejoin="round"
   version="1.1"
   id="svg4"
   sodipodi:docname=".tmp_land-plot.svg"
   xmlns:inkscape="http://www.inkscape.org/namespaces/inkscape"
   xmlns:sodipodi="http://sodipodi.sourceforge.net/DTD/sodipodi-0.dtd"
   xmlns="http://www.w3.org/2000/svg"
   xmlns:svg="http://www.w3.org/2000/svg">
  <defs
     id="defs4" />
  <sodipodi:namedview
     id="namedview4"
     pagecolor="#ffffff"
     bordercolor="#000000"
     borderopacity="0.25"
     inkscape:showpageshadow="2"
     inkscape:pageopacity="0.0"
     inkscape:pagecheckerboard="0"
     inkscape:deskcolor="#d1d1d1" />
  <path
     id="path1"
     style="baseline-shift:baseline;display:inline;overflow:visible;vector-effect:none;fill:#000000;stroke:none;stroke-linecap:butt;stroke-linejoin:miter;enable-background:accumulate;stop-color:#000000;stop-opacity:1;opacity:1"
     d="M 11.992188 1.9003906 A 0.10001 0.10001 0 0 0 11.900391 2 L 11.900391 12 A 0.1 0.1 0 0 0 12 12.099609 A 0.1 0.1 0 0 0 12.099609 12 L 12.099609 8.0625 L 18.044922 5.0898438 A 0.10001 0.10001 0 0 0 18.044922 4.9101562 L 12.044922 1.9101562 A 0.10001 0.10001 0 0 0 11.992188 1.9003906 z M 12.099609 2.1621094 L 17.775391 5 L 12.099609 7.8378906 L 12.099609 2.1621094 z M 7.9921875 11.890625 A 0.1 0.1 0 0 0 7.9511719 11.902344 L 6.4550781 12.755859 A 0.1 0.1 0 0 0 6.421875 12.775391 L 2.4511719 15.042969 C 1.7119905 15.461882 1.7119905 16.538118 2.4511719 16.957031 L 10.949219 21.816406 C 11.598259 22.19113 12.399526 22.19048 13.048828 21.816406 L 21.548828 16.957031 C 22.288009 16.538118 22.288009 15.461882 21.548828 15.042969 L 17.591797 12.792969 L 17.591797 12.791016 A 0.1 0.1 0 0 0 17.519531 12.75 L 17.517578 12.75 L 16.048828 11.914062 A 0.1 0.1 0 0 0 15.914062 11.951172 A 0.1 0.1 0 0 0 15.951172 12.085938 L 17.300781 12.855469 L 12.001953 15.886719 L 6.6914062 12.851562 L 8.0488281 12.076172 A 0.1 0.1 0 0 0 8.0859375 11.939453 A 0.1 0.1 0 0 0 7.9921875 11.890625 z M 6.4902344 12.966797 L 11.800781 16.001953 L 6.4941406 19.039062 L 2.5488281 16.783203 C 1.9361474 16.435981 1.9361474 15.564019 2.5488281 15.216797 L 6.4902344 12.966797 z M 17.503906 12.970703 L 21.451172 15.216797 C 22.063853 15.564019 22.063853 16.435981 21.451172 16.783203 L 17.511719 19.035156 L 12.203125 16.001953 L 17.503906 12.970703 z M 12.001953 16.117188 L 17.310547 19.150391 L 12.951172 21.642578 A 0.10001 0.10001 0 0 0 12.949219 21.642578 C 12.361218 21.982061 11.638782 21.982061 11.050781 21.642578 A 0.10001 0.10001 0 0 0 11.048828 21.642578 L 6.6933594 19.152344 L 12.001953 16.117188 z " />
</svg>
