<?xml version="1.0" encoding="UTF-8" standalone="no"?>
<svg
   width="24"
   height="24"
   viewBox="0 0 24 24"
   fill="none"
   stroke="currentColor"
   stroke-width="0.2"
   stroke-linecap="round"
   stroke-linejoin="round"
   version="1.1"
   id="svg1"
   sodipodi:docname=".tmp_loader-circle.svg"
   xmlns:inkscape="http://www.inkscape.org/namespaces/inkscape"
   xmlns:sodipodi="http://sodipodi.sourceforge.net/DTD/sodipodi-0.dtd"
   xmlns="http://www.w3.org/2000/svg"
   xmlns:svg="http://www.w3.org/2000/svg">
  <defs
     id="defs1" />
  <sodipodi:namedview
     id="namedview1"
     pagecolor="#ffffff"
     bordercolor="#000000"
     borderopacity="0.25"
     inkscape:showpageshadow="2"
     inkscape:pageopacity="0.0"
     inkscape:pagecheckerboard="0"
     inkscape:deskcolor="#d1d1d1" />
  <path
     id="path1"
     style="baseline-shift:baseline;display:inline;overflow:visible;vector-effect:none;fill:#000000;stroke:none;stroke-linecap:butt;stroke-linejoin:miter;enable-background:accumulate;stop-color:#000000;stop-opacity:1;opacity:1"
     d="M 11.757812 2.8730469 C 8.8095822 2.9204319 6.2449614 4.4390207 4.6386719 6.6503906 C 2.4969525 9.5988838 2.0517464 13.786942 4.6386719 17.347656 C 7.2255973 20.90837 11.346453 21.77995 14.8125 20.654297 C 18.278547 19.528643 21.099393 16.402535 21.099609 12 A 0.1 0.1 0 0 0 21 11.900391 A 0.1 0.1 0 0 0 20.900391 12 C 20.900179 16.317241 18.143146 19.362866 14.75 20.464844 C 11.356854 21.566822 7.3375662 20.722168 4.8007812 17.230469 C 2.2639965 13.738769 2.7041083 9.6540562 4.8007812 6.7675781 C 6.8974544 3.8811 10.644036 2.2011287 14.75 3.5351562 A 0.1 0.1 0 0 0 14.876953 3.4707031 A 0.1 0.1 0 0 0 14.8125 3.3457031 C 13.765726 3.0056071 12.740555 2.8572519 11.757812 2.8730469 z " />
</svg>
