<?xml version="1.0" encoding="UTF-8" standalone="no"?>
<svg
   width="24"
   height="24"
   viewBox="0 0 24 24"
   fill="none"
   stroke="currentColor"
   stroke-width="0.2"
   stroke-linecap="round"
   stroke-linejoin="round"
   version="1.1"
   id="svg4"
   sodipodi:docname=".tmp_luggage.svg"
   xmlns:inkscape="http://www.inkscape.org/namespaces/inkscape"
   xmlns:sodipodi="http://sodipodi.sourceforge.net/DTD/sodipodi-0.dtd"
   xmlns="http://www.w3.org/2000/svg"
   xmlns:svg="http://www.w3.org/2000/svg">
  <defs
     id="defs4" />
  <sodipodi:namedview
     id="namedview4"
     pagecolor="#ffffff"
     bordercolor="#000000"
     borderopacity="0.25"
     inkscape:showpageshadow="2"
     inkscape:pageopacity="0.0"
     inkscape:pagecheckerboard="0"
     inkscape:deskcolor="#d1d1d1" />
  <path
     id="path1"
     style="baseline-shift:baseline;display:inline;overflow:visible;vector-effect:none;fill:#000000;stroke:none;stroke-linecap:butt;stroke-linejoin:miter;enable-background:accumulate;stop-color:#000000;stop-opacity:1;opacity:1"
     d="M 10 1.9003906 C 8.8413865 1.9003906 7.9003906 2.8413865 7.9003906 4 L 7.9003906 5.9003906 L 6 5.9003906 C 4.8413865 5.9003906 3.9003906 6.8413865 3.9003906 8 L 3.9003906 18 C 3.9003906 19.125974 4.7888438 20.046689 5.9023438 20.097656 C 5.9533104 21.211157 6.8740262 22.099609 8 22.099609 C 9.125224 22.099609 10.045567 21.212069 10.097656 20.099609 L 13.902344 20.099609 C 13.954433 21.212069 14.874776 22.099609 16 22.099609 C 17.125974 22.099609 18.04669 21.211157 18.097656 20.097656 C 19.211157 20.04669 20.099609 19.125974 20.099609 18 L 20.099609 8 C 20.099609 6.8413865 19.158614 5.9003906 18 5.9003906 L 16.099609 5.9003906 L 16.099609 4 C 16.099609 2.8413865 15.158614 1.9003906 14 1.9003906 L 10 1.9003906 z M 10 2.0996094 L 14 2.0996094 C 15.050525 2.0996094 15.900391 2.9494745 15.900391 4 L 15.900391 5.9003906 L 8.0996094 5.9003906 L 8.0996094 4 C 8.0996094 2.9494745 8.9494745 2.0996094 10 2.0996094 z M 6 6.0996094 L 7.9003906 6.0996094 L 7.9003906 17.902344 C 6.8217538 17.95285 5.9540771 18.820119 5.9023438 19.898438 C 4.8970753 19.847951 4.0996094 19.017937 4.0996094 18 L 4.0996094 8 C 4.0996094 6.9494745 4.9494745 6.0996094 6 6.0996094 z M 8.0996094 6.0996094 L 15.900391 6.0996094 L 15.900391 17.902344 C 14.820942 17.952888 13.952888 18.820942 13.902344 19.900391 L 10.097656 19.900391 C 10.047112 18.820942 9.1790576 17.952888 8.0996094 17.902344 L 8.0996094 6.0996094 z M 16.099609 6.0996094 L 18 6.0996094 C 19.050525 6.0996094 19.900391 6.9494745 19.900391 8 L 19.900391 18 C 19.900391 19.017937 19.102924 19.847951 18.097656 19.898438 C 18.045923 18.820119 17.178247 17.95285 16.099609 17.902344 L 16.099609 6.0996094 z M 7.9863281 18.099609 A 0.1 0.1 0 0 0 8 18.099609 A 0.1 0.1 0 0 0 8.0136719 18.099609 C 9.0532798 18.10695 9.8930498 18.946721 9.9003906 19.986328 C 9.9004229 19.990905 9.9003906 19.995415 9.9003906 20 C 9.9003906 20.004585 9.9004229 20.009095 9.9003906 20.013672 C 9.8930175 21.057856 9.0459409 21.900391 8 21.900391 C 6.9540591 21.900391 6.1069825 21.057856 6.0996094 20.013672 A 0.1 0.1 0 0 0 6.0996094 20 A 0.1 0.1 0 0 0 6.0996094 19.986328 C 6.1069502 18.946721 6.9467202 18.10695 7.9863281 18.099609 z M 15.986328 18.099609 A 0.1 0.1 0 0 0 16 18.099609 A 0.1 0.1 0 0 0 16.013672 18.099609 C 17.057856 18.106982 17.900391 18.95406 17.900391 20 C 17.900391 21.050525 17.050525 21.900391 16 21.900391 C 14.95406 21.900391 14.106982 21.057856 14.099609 20.013672 A 0.1 0.1 0 0 0 14.099609 20 A 0.1 0.1 0 0 0 14.099609 19.986328 C 14.10695 18.946721 14.946721 18.10695 15.986328 18.099609 z " />
</svg>
