<?xml version="1.0" encoding="UTF-8" standalone="no"?>
<svg
   width="24"
   height="24"
   viewBox="0 0 24 24"
   fill="none"
   stroke="currentColor"
   stroke-width="0.2"
   stroke-linecap="round"
   stroke-linejoin="round"
   version="1.1"
   id="svg9"
   sodipodi:docname=".tmp_memory-stick.svg"
   xmlns:inkscape="http://www.inkscape.org/namespaces/inkscape"
   xmlns:sodipodi="http://sodipodi.sourceforge.net/DTD/sodipodi-0.dtd"
   xmlns="http://www.w3.org/2000/svg"
   xmlns:svg="http://www.w3.org/2000/svg">
  <defs
     id="defs9" />
  <sodipodi:namedview
     id="namedview9"
     pagecolor="#ffffff"
     bordercolor="#000000"
     borderopacity="0.25"
     inkscape:showpageshadow="2"
     inkscape:pageopacity="0.0"
     inkscape:pagecheckerboard="0"
     inkscape:deskcolor="#d1d1d1" />
  <path
     id="path1"
     style="baseline-shift:baseline;display:inline;overflow:visible;vector-effect:none;fill:#000000;stroke:none;stroke-linecap:butt;stroke-linejoin:miter;enable-background:accumulate;stop-color:#000000;stop-opacity:1;opacity:1"
     d="M 4 4.9003906 C 2.8413865 4.9003906 1.9003906 5.8413865 1.9003906 7 L 1.9003906 8.0625 A 0.10001 0.10001 0 0 0 1.9726562 8.1582031 C 2.8875698 8.427702 3.3339844 9.2030227 3.3339844 9.9824219 C 3.3339844 10.761821 2.8875698 11.535189 1.9726562 11.804688 A 0.10001 0.10001 0 0 0 1.9003906 11.900391 L 1.9003906 14.986328 A 0.1 0.1 0 0 0 1.9003906 15 A 0.1 0.1 0 0 0 1.9003906 15.013672 L 1.9003906 17 C 1.9003906 18.158614 2.8413865 19.099609 4 19.099609 L 5.9863281 19.099609 L 6.0136719 19.099609 L 9.9863281 19.099609 L 10.013672 19.099609 L 13.986328 19.099609 L 14.013672 19.099609 L 17.986328 19.099609 L 18.013672 19.099609 L 20 19.099609 C 21.158614 19.099609 22.099609 18.158614 22.099609 17 L 22.099609 15.013672 A 0.1 0.1 0 0 0 22.099609 15 A 0.1 0.1 0 0 0 22.099609 14.986328 L 22.099609 11.9375 A 0.10001 0.10001 0 0 0 22.027344 11.841797 C 21.11243 11.572298 20.666016 10.796977 20.666016 10.017578 C 20.666016 9.2381791 21.11243 8.4648114 22.027344 8.1953125 A 0.10001 0.10001 0 0 0 22.099609 8.0996094 L 22.099609 7 C 22.099609 5.8413865 21.158614 4.9003906 20 4.9003906 L 4 4.9003906 z M 4 5.0996094 L 20 5.0996094 C 21.050525 5.0996094 21.900391 5.9494745 21.900391 7 L 21.900391 8.0546875 C 20.964362 8.373979 20.464844 9.1876513 20.464844 10.017578 C 20.464844 10.847505 20.964362 11.66313 21.900391 11.982422 L 21.900391 14.900391 L 2.0996094 14.900391 L 2.0996094 11.945312 C 3.035638 11.62602 3.5351562 10.812349 3.5351562 9.9824219 C 3.5351562 9.152495 3.035638 8.3368697 2.0996094 8.0175781 L 2.0996094 7 C 2.0996094 5.9494745 2.9494745 5.0996094 4 5.0996094 z M 7.9863281 8.9003906 A 0.1 0.1 0 0 0 7.9003906 9 L 7.9003906 11 A 0.1 0.1 0 0 0 8 11.099609 A 0.1 0.1 0 0 0 8.0996094 11 L 8.0996094 9 A 0.1 0.1 0 0 0 8 8.9003906 A 0.1 0.1 0 0 0 7.9863281 8.9003906 z M 11.986328 8.9003906 A 0.1 0.1 0 0 0 11.900391 9 L 11.900391 11 A 0.1 0.1 0 0 0 12 11.099609 A 0.1 0.1 0 0 0 12.099609 11 L 12.099609 9 A 0.1 0.1 0 0 0 12 8.9003906 A 0.1 0.1 0 0 0 11.986328 8.9003906 z M 15.986328 8.9003906 A 0.1 0.1 0 0 0 15.900391 9 L 15.900391 11 A 0.1 0.1 0 0 0 16 11.099609 A 0.1 0.1 0 0 0 16.099609 11 L 16.099609 9 A 0.1 0.1 0 0 0 16 8.9003906 A 0.1 0.1 0 0 0 15.986328 8.9003906 z M 2.0996094 15.099609 L 21.900391 15.099609 L 21.900391 17 C 21.900391 18.050525 21.050525 18.900391 20 18.900391 L 18.099609 18.900391 L 18.099609 16 A 0.1 0.1 0 0 0 18 15.900391 A 0.1 0.1 0 0 0 17.900391 16 L 17.900391 18.900391 L 14.099609 18.900391 L 14.099609 16 A 0.1 0.1 0 0 0 14 15.900391 A 0.1 0.1 0 0 0 13.900391 16 L 13.900391 18.900391 L 10.099609 18.900391 L 10.099609 16 A 0.1 0.1 0 0 0 10 15.900391 A 0.1 0.1 0 0 0 9.9003906 16 L 9.9003906 18.900391 L 6.0996094 18.900391 L 6.0996094 16 A 0.1 0.1 0 0 0 6 15.900391 A 0.1 0.1 0 0 0 5.9003906 16 L 5.9003906 18.900391 L 4 18.900391 C 2.9494745 18.900391 2.0996094 18.050525 2.0996094 17 L 2.0996094 15.099609 z " />
</svg>
