<?xml version="1.0" encoding="UTF-8" standalone="no"?>
<svg
   width="24"
   height="24"
   viewBox="0 0 24 24"
   fill="none"
   stroke="currentColor"
   stroke-width="0.2"
   stroke-linecap="round"
   stroke-linejoin="round"
   version="1.1"
   id="svg3"
   sodipodi:docname=".tmp_message-circle-off.svg"
   xmlns:inkscape="http://www.inkscape.org/namespaces/inkscape"
   xmlns:sodipodi="http://sodipodi.sourceforge.net/DTD/sodipodi-0.dtd"
   xmlns="http://www.w3.org/2000/svg"
   xmlns:svg="http://www.w3.org/2000/svg">
  <defs
     id="defs3" />
  <sodipodi:namedview
     id="namedview3"
     pagecolor="#ffffff"
     bordercolor="#000000"
     borderopacity="0.25"
     inkscape:showpageshadow="2"
     inkscape:pageopacity="0.0"
     inkscape:pagecheckerboard="0"
     inkscape:deskcolor="#d1d1d1" />
  <path
     id="path1"
     style="baseline-shift:baseline;display:inline;overflow:visible;vector-effect:none;fill:#000000;stroke:none;stroke-linecap:butt;stroke-linejoin:miter;enable-background:accumulate;stop-color:#000000;stop-opacity:1;opacity:1"
     d="M 12.474609 1.890625 C 12.107463 1.8742435 11.736211 1.8783808 11.361328 1.9042969 C 10.361639 1.9734069 9.3387471 2.1975971 8.3144531 2.5976562 A 0.1 0.1 0 0 0 8.2578125 2.7265625 A 0.1 0.1 0 0 0 8.3867188 2.7832031 C 12.409973 1.2118377 16.395939 2.4115137 18.990234 5.0078125 C 21.58453 7.6041113 22.781501 11.591241 21.207031 15.613281 A 0.1 0.1 0 0 0 21.263672 15.742188 A 0.1 0.1 0 0 0 21.392578 15.685547 C 22.995978 11.589606 21.777877 7.512341 19.132812 4.8652344 C 17.396989 3.1280706 15.044631 2.0052954 12.474609 1.890625 z M 2 1.9003906 A 0.1 0.1 0 0 0 1.9296875 1.9296875 A 0.1 0.1 0 0 0 1.9296875 2.0703125 L 4.7890625 4.9296875 C 1.8143778 7.9636957 1.0545675 12.541625 2.8984375 16.376953 C 3.0376396 16.728099 3.0686998 17.113413 2.9882812 17.482422 L 2.9882812 17.484375 L 2.9882812 17.486328 L 1.9257812 20.767578 A 0.10001 0.10001 0 0 0 1.9238281 20.777344 C 1.7600681 21.573558 2.4975186 22.271006 3.2832031 22.0625 A 0.10001 0.10001 0 0 0 3.2851562 22.0625 L 6.6894531 21.066406 C 7.0387901 20.997116 7.4014206 21.027887 7.734375 21.154297 C 11.551194 22.932807 16.070069 22.156511 19.072266 19.212891 L 21.929688 22.070312 A 0.1 0.1 0 0 0 22.070312 22.070312 A 0.1 0.1 0 0 0 22.070312 21.929688 L 19.154297 19.013672 A 0.1 0.1 0 0 0 19.142578 19 L 19.136719 18.994141 A 0.1 0.1 0 0 0 19.128906 18.988281 L 5.0117188 4.8710938 A 0.1 0.1 0 0 0 5 4.8574219 L 4.9941406 4.8515625 A 0.1 0.1 0 0 0 4.9882812 4.8476562 L 2.0703125 1.9296875 A 0.1 0.1 0 0 0 2 1.9003906 z M 4.9296875 5.0703125 L 18.929688 19.070312 C 15.984441 21.956985 11.553443 22.716752 7.8105469 20.96875 A 0.10001 0.10001 0 0 0 7.8046875 20.966797 C 7.4366998 20.827135 7.0364853 20.792558 6.6503906 20.869141 A 0.10001 0.10001 0 0 0 6.6425781 20.871094 L 3.2304688 21.869141 C 2.5803142 22.041679 1.9836291 21.477227 2.1191406 20.818359 L 3.1816406 17.539062 A 0.10001 0.10001 0 0 0 3.1835938 17.529297 C 3.2736558 17.120155 3.2403245 16.694139 3.0859375 16.304688 A 0.10001 0.10001 0 0 0 3.0820312 16.296875 C 1.2696866 12.535469 2.0117565 8.0467392 4.9296875 5.0703125 z " />
</svg>
