<?xml version="1.0" encoding="UTF-8" standalone="no"?>
<svg
   width="24"
   height="24"
   viewBox="0 0 24 24"
   fill="none"
   stroke="currentColor"
   stroke-width="0.2"
   stroke-linecap="round"
   stroke-linejoin="round"
   version="1.1"
   id="svg3"
   sodipodi:docname=".tmp_message-circle-question-mark.svg"
   xmlns:inkscape="http://www.inkscape.org/namespaces/inkscape"
   xmlns:sodipodi="http://sodipodi.sourceforge.net/DTD/sodipodi-0.dtd"
   xmlns="http://www.w3.org/2000/svg"
   xmlns:svg="http://www.w3.org/2000/svg">
  <defs
     id="defs3" />
  <sodipodi:namedview
     id="namedview3"
     pagecolor="#ffffff"
     bordercolor="#000000"
     borderopacity="0.25"
     inkscape:showpageshadow="2"
     inkscape:pageopacity="0.0"
     inkscape:pagecheckerboard="0"
     inkscape:deskcolor="#d1d1d1" />
  <path
     id="path1"
     style="baseline-shift:baseline;display:inline;overflow:visible;vector-effect:none;fill:#000000;stroke:none;stroke-linecap:butt;stroke-linejoin:miter;enable-background:accumulate;stop-color:#000000;stop-opacity:1;opacity:1"
     d="M 12.474609 1.8320312 C 10.192582 1.7440373 7.9561069 2.4794242 6.1289062 3.7832031 C 2.476833 6.3890997 0.44846247 11.276032 2.9003906 16.375 A 0.1 0.1 0 0 0 2.8984375 16.378906 C 3.0376396 16.730052 3.0686997 17.115366 2.9882812 17.484375 L 2.9882812 17.486328 L 2.9882812 17.488281 L 1.9257812 20.767578 A 0.10001 0.10001 0 0 0 1.9238281 20.779297 C 1.7600681 21.575511 2.4975186 22.272959 3.2832031 22.064453 A 0.10001 0.10001 0 0 0 3.2851562 22.0625 L 6.6894531 21.066406 C 7.0387901 20.997116 7.4014206 21.027887 7.734375 21.154297 C 12.863597 23.545128 17.727662 21.455561 20.289062 17.771484 C 22.851783 14.085563 23.118645 8.7924571 19.095703 4.8183594 C 17.084232 2.8313105 14.756637 1.9200253 12.474609 1.8320312 z M 12.460938 2.0273438 C 14.695488 2.1123557 16.97668 3.0065598 18.955078 4.9609375 C 22.911874 8.8696929 22.6404 14.038336 20.125 17.65625 C 17.6096 21.274164 12.858554 23.328112 7.8105469 20.970703 A 0.10001 0.10001 0 0 0 7.8046875 20.966797 C 7.4366998 20.827082 7.0364853 20.794511 6.6503906 20.871094 A 0.10001 0.10001 0 0 0 6.6425781 20.873047 L 3.2304688 21.871094 C 2.5803142 22.043633 1.9836291 21.477227 2.1191406 20.818359 L 3.1816406 17.539062 A 0.10001 0.10001 0 0 0 3.1835938 17.53125 C 3.2736558 17.122108 3.2403245 16.694139 3.0859375 16.304688 A 0.1 0.1 0 0 0 3.0800781 16.302734 A 0.1 0.1 0 0 0 3.0820312 16.298828 C 0.66314263 11.280023 2.6591758 6.5047182 6.2460938 3.9453125 C 8.0395527 2.6656096 10.226386 1.9423315 12.460938 2.0273438 z M 11.927734 6.8925781 C 10.719981 6.8781495 9.4999446 7.5344956 8.9960938 8.9667969 A 0.1 0.1 0 0 0 9.0566406 9.09375 A 0.1 0.1 0 0 0 9.1835938 9.0332031 C 9.7285357 7.4840916 11.133024 6.9176566 12.410156 7.1367188 C 13.687288 7.3557809 14.822758 8.357836 14.820312 10 C 14.820312 10.95 14.102434 11.674549 13.365234 12.166016 C 12.628035 12.657482 11.888672 12.904297 11.888672 12.904297 A 0.1 0.1 0 0 0 11.824219 13.03125 A 0.1 0.1 0 0 0 11.951172 13.095703 C 11.951172 13.095703 12.711809 12.842518 13.474609 12.333984 C 14.237407 11.825454 15.019531 11.05 15.019531 10 C 15.022116 8.2647577 13.802292 7.1725462 12.443359 6.9394531 C 12.273493 6.9103165 12.100271 6.8946394 11.927734 6.8925781 z M 11.986328 16.900391 A 0.1 0.1 0 0 0 11.900391 17 A 0.1 0.1 0 0 0 12 17.099609 L 12.009766 17.099609 A 0.1 0.1 0 0 0 12.109375 17 A 0.1 0.1 0 0 0 12.009766 16.900391 L 12 16.900391 A 0.1 0.1 0 0 0 11.986328 16.900391 z " />
</svg>
