<?xml version="1.0" encoding="UTF-8" standalone="no"?>
<svg
   width="24"
   height="24"
   viewBox="0 0 24 24"
   fill="none"
   stroke="currentColor"
   stroke-width="0.2"
   stroke-linecap="round"
   stroke-linejoin="round"
   version="1.1"
   id="svg3"
   sodipodi:docname=".tmp_milk-off.svg"
   xmlns:inkscape="http://www.inkscape.org/namespaces/inkscape"
   xmlns:sodipodi="http://sodipodi.sourceforge.net/DTD/sodipodi-0.dtd"
   xmlns="http://www.w3.org/2000/svg"
   xmlns:svg="http://www.w3.org/2000/svg">
  <defs
     id="defs3" />
  <sodipodi:namedview
     id="namedview3"
     pagecolor="#ffffff"
     bordercolor="#000000"
     borderopacity="0.25"
     inkscape:showpageshadow="2"
     inkscape:pageopacity="0.0"
     inkscape:pagecheckerboard="0"
     inkscape:deskcolor="#d1d1d1" />
  <path
     id="path1"
     style="baseline-shift:baseline;display:inline;overflow:visible;vector-effect:none;fill:#000000;stroke:none;stroke-linecap:butt;stroke-linejoin:miter;enable-background:accumulate;stop-color:#000000;stop-opacity:1;opacity:1"
     d="M 2 1.9003906 A 0.1 0.1 0 0 0 1.9296875 1.9296875 A 0.1 0.1 0 0 0 1.9296875 2.0703125 L 7.671875 7.8125 L 7.5878906 7.9375 C 7.1385926 8.6113146 6.9002089 9.4030169 6.9003906 10.212891 L 6.9003906 14.996094 A 0.1 0.1 0 0 0 6.9003906 15.003906 L 6.9003906 20 C 6.9003906 21.158614 7.8413865 22.099609 9 22.099609 L 15 22.099609 C 16.158614 22.099609 17.099609 21.158614 17.099609 20 L 17.099609 17.240234 L 21.929688 22.070312 A 0.1 0.1 0 0 0 22.070312 22.070312 A 0.1 0.1 0 0 0 22.070312 21.929688 L 17.080078 16.941406 A 0.1 0.1 0 0 0 17.058594 16.919922 L 15.515625 15.376953 A 0.1 0.1 0 0 0 15.5 15.359375 L 7.8847656 7.7460938 A 0.1 0.1 0 0 0 7.8554688 7.7167969 L 2.0703125 1.9296875 A 0.1 0.1 0 0 0 2 1.9003906 z M 7.9863281 1.9003906 A 0.1 0.1 0 0 0 7.9003906 2 A 0.1 0.1 0 0 0 8 2.0996094 L 8.9003906 2.0996094 L 8.9003906 3.34375 A 0.1 0.1 0 0 0 9 3.4433594 A 0.1 0.1 0 0 0 9.0996094 3.34375 L 9.0996094 2.0996094 L 14.900391 2.0996094 L 14.900391 4.7890625 C 14.900411 5.5985867 15.138786 6.390929 15.587891 7.0644531 L 16.244141 8.046875 C 16.671532 8.6878354 16.900563 9.4425052 16.900391 10.212891 L 16.900391 11.34375 A 0.1 0.1 0 0 0 17 11.443359 A 0.1 0.1 0 0 0 17.099609 11.34375 L 17.099609 10.212891 C 17.099791 9.4030169 16.861407 8.6093615 16.412109 7.9355469 L 15.755859 6.953125 C 15.328653 6.312441 15.099629 5.5591154 15.099609 4.7890625 L 15.099609 2.0996094 L 16 2.0996094 A 0.1 0.1 0 0 0 16.099609 2 A 0.1 0.1 0 0 0 16 1.9003906 L 8 1.9003906 A 0.1 0.1 0 0 0 7.9863281 1.9003906 z M 7.8164062 7.9570312 L 15.220703 15.361328 C 14.139516 15.484495 13.04486 15.329608 12.039062 14.908203 C 11.22706 14.568024 10.363317 14.398438 9.5 14.398438 C 8.6856539 14.398438 7.8709318 14.548933 7.0996094 14.851562 L 7.0996094 10.212891 C 7.0994366 9.4425052 7.3284685 8.6878354 7.7558594 8.046875 L 7.8164062 7.9570312 z M 9.53125 14.597656 C 10.357341 14.601823 11.183689 14.766179 11.960938 15.091797 C 13.046521 15.546632 14.235035 15.701924 15.400391 15.541016 L 16.900391 17.041016 L 16.900391 20 C 16.900391 21.050525 16.050525 21.900391 15 21.900391 L 9 21.900391 C 7.9494745 21.900391 7.0996094 21.050525 7.0996094 20 L 7.0996094 15.066406 C 7.879326 14.749122 8.705159 14.593489 9.53125 14.597656 z " />
</svg>
