<?xml version="1.0" encoding="UTF-8" standalone="no"?>
<svg
   width="24"
   height="24"
   viewBox="0 0 24 24"
   fill="none"
   stroke="currentColor"
   stroke-width="0.2"
   stroke-linecap="round"
   stroke-linejoin="round"
   version="1.1"
   id="svg4"
   sodipodi:docname=".tmp_minimize.svg"
   xmlns:inkscape="http://www.inkscape.org/namespaces/inkscape"
   xmlns:sodipodi="http://sodipodi.sourceforge.net/DTD/sodipodi-0.dtd"
   xmlns="http://www.w3.org/2000/svg"
   xmlns:svg="http://www.w3.org/2000/svg">
  <defs
     id="defs4" />
  <sodipodi:namedview
     id="namedview4"
     pagecolor="#ffffff"
     bordercolor="#000000"
     borderopacity="0.25"
     inkscape:showpageshadow="2"
     inkscape:pageopacity="0.0"
     inkscape:pagecheckerboard="0"
     inkscape:deskcolor="#d1d1d1" />
  <path
     id="path1"
     style="baseline-shift:baseline;display:inline;overflow:visible;vector-effect:none;fill:#000000;stroke:none;stroke-linecap:butt;stroke-linejoin:miter;enable-background:accumulate;stop-color:#000000;stop-opacity:1;opacity:1"
     d="M 7.9863281 2.9003906 A 0.1 0.1 0 0 0 7.9003906 3 L 7.9003906 6 C 7.9003906 7.0505255 7.0505255 7.9003906 6 7.9003906 L 3 7.9003906 A 0.1 0.1 0 0 0 2.9003906 8 A 0.1 0.1 0 0 0 3 8.0996094 L 6 8.0996094 C 7.1586135 8.0996094 8.0996094 7.1586135 8.0996094 6 L 8.0996094 3 A 0.1 0.1 0 0 0 8 2.9003906 A 0.1 0.1 0 0 0 7.9863281 2.9003906 z M 15.986328 2.9003906 A 0.1 0.1 0 0 0 15.900391 3 L 15.900391 6 C 15.900391 7.1586135 16.841386 8.0996094 18 8.0996094 L 21 8.0996094 A 0.1 0.1 0 0 0 21.099609 8 A 0.1 0.1 0 0 0 21 7.9003906 L 18 7.9003906 C 16.949475 7.9003906 16.099609 7.0505255 16.099609 6 L 16.099609 3 A 0.1 0.1 0 0 0 16 2.9003906 A 0.1 0.1 0 0 0 15.986328 2.9003906 z M 2.9863281 15.900391 A 0.1 0.1 0 0 0 2.9003906 16 A 0.1 0.1 0 0 0 3 16.099609 L 6 16.099609 C 7.0505255 16.099609 7.9003906 16.949475 7.9003906 18 L 7.9003906 21 A 0.1 0.1 0 0 0 8 21.099609 A 0.1 0.1 0 0 0 8.0996094 21 L 8.0996094 18 C 8.0996094 16.841386 7.1586135 15.900391 6 15.900391 L 3 15.900391 A 0.1 0.1 0 0 0 2.9863281 15.900391 z M 18 15.900391 C 16.841386 15.900391 15.900391 16.841386 15.900391 18 L 15.900391 21 A 0.1 0.1 0 0 0 16 21.099609 A 0.1 0.1 0 0 0 16.099609 21 L 16.099609 18 C 16.099609 16.949475 16.949475 16.099609 18 16.099609 L 21 16.099609 A 0.1 0.1 0 0 0 21.099609 16 A 0.1 0.1 0 0 0 21 15.900391 L 18 15.900391 z " />
</svg>
