<?xml version="1.0" encoding="UTF-8" standalone="no"?>
<svg
   width="24"
   height="24"
   viewBox="0 0 24 24"
   fill="none"
   stroke="currentColor"
   stroke-width="0.2"
   stroke-linecap="round"
   stroke-linejoin="round"
   version="1.1"
   id="svg4"
   sodipodi:docname=".tmp_monitor-up.svg"
   xmlns:inkscape="http://www.inkscape.org/namespaces/inkscape"
   xmlns:sodipodi="http://sodipodi.sourceforge.net/DTD/sodipodi-0.dtd"
   xmlns="http://www.w3.org/2000/svg"
   xmlns:svg="http://www.w3.org/2000/svg">
  <defs
     id="defs4" />
  <sodipodi:namedview
     id="namedview4"
     pagecolor="#ffffff"
     bordercolor="#000000"
     borderopacity="0.25"
     inkscape:showpageshadow="2"
     inkscape:pageopacity="0.0"
     inkscape:pagecheckerboard="0"
     inkscape:deskcolor="#d1d1d1" />
  <path
     id="path1"
     style="baseline-shift:baseline;display:inline;overflow:visible;vector-effect:none;fill:#000000;stroke:none;stroke-linecap:butt;stroke-linejoin:miter;enable-background:accumulate;stop-color:#000000;stop-opacity:1;opacity:1"
     d="M 4 2.9003906 C 2.8383297 2.9003906 1.9003906 3.8383297 1.9003906 5 L 1.9003906 15 C 1.9003906 16.16167 2.8383297 17.099609 4 17.099609 L 11.900391 17.099609 L 11.900391 20.900391 L 8 20.900391 A 0.1 0.1 0 0 0 7.9003906 21 A 0.1 0.1 0 0 0 8 21.099609 L 11.986328 21.099609 L 12.013672 21.099609 L 16 21.099609 A 0.1 0.1 0 0 0 16.099609 21 A 0.1 0.1 0 0 0 16 20.900391 L 12.099609 20.900391 L 12.099609 17.099609 L 20 17.099609 C 21.16167 17.099609 22.099609 16.16167 22.099609 15 L 22.099609 5 C 22.099609 3.8383297 21.16167 2.9003906 20 2.9003906 L 4 2.9003906 z M 4 3.0996094 L 20 3.0996094 C 21.05433 3.0996094 21.900391 3.9456703 21.900391 5 L 21.900391 15 C 21.900391 16.05433 21.05433 16.900391 20 16.900391 L 4 16.900391 C 2.9456703 16.900391 2.0996094 16.05433 2.0996094 15 L 2.0996094 5 C 2.0996094 3.9456703 2.9456703 3.0996094 4 3.0996094 z M 11.986328 6.9003906 A 0.1 0.1 0 0 0 11.960938 6.9082031 A 0.1 0.1 0 0 0 11.949219 6.9140625 A 0.1 0.1 0 0 0 11.9375 6.921875 A 0.10001 0.10001 0 0 0 11.929688 6.9296875 A 0.1 0.1 0 0 0 11.927734 6.9316406 A 0.1 0.1 0 0 0 11.919922 6.9414062 L 8.9296875 9.9296875 A 0.1 0.1 0 0 0 8.9296875 10.070312 A 0.1 0.1 0 0 0 9.0703125 10.070312 L 11.900391 7.2402344 L 11.900391 13 A 0.1 0.1 0 0 0 12 13.099609 A 0.1 0.1 0 0 0 12.099609 13 L 12.099609 7.2402344 L 14.929688 10.070312 A 0.1 0.1 0 0 0 15.070312 10.070312 A 0.1 0.1 0 0 0 15.070312 9.9296875 L 12.080078 6.9414062 A 0.1 0.1 0 0 0 12.072266 6.9316406 L 12.070312 6.9296875 A 0.1 0.1 0 0 0 12.060547 6.921875 A 0.10001 0.10001 0 0 0 12.050781 6.9140625 A 0.1 0.1 0 0 0 12.048828 6.9140625 A 0.10001 0.10001 0 0 0 12.039062 6.9082031 A 0.1 0.1 0 0 0 12.037109 6.9082031 A 0.10001 0.10001 0 0 0 12.025391 6.9042969 A 0.1 0.1 0 0 0 12 6.9003906 A 0.1 0.1 0 0 0 11.986328 6.9003906 z " />
</svg>
