<?xml version="1.0" encoding="UTF-8" standalone="no"?>
<svg
   width="24"
   height="24"
   viewBox="0 0 24 24"
   fill="none"
   stroke="currentColor"
   stroke-width="0.2"
   stroke-linecap="round"
   stroke-linejoin="round"
   version="1.1"
   id="svg5"
   sodipodi:docname=".tmp_mouse-pointer-click.svg"
   xmlns:inkscape="http://www.inkscape.org/namespaces/inkscape"
   xmlns:sodipodi="http://sodipodi.sourceforge.net/DTD/sodipodi-0.dtd"
   xmlns="http://www.w3.org/2000/svg"
   xmlns:svg="http://www.w3.org/2000/svg">
  <defs
     id="defs5" />
  <sodipodi:namedview
     id="namedview5"
     pagecolor="#ffffff"
     bordercolor="#000000"
     borderopacity="0.25"
     inkscape:showpageshadow="2"
     inkscape:pageopacity="0.0"
     inkscape:pagecheckerboard="0"
     inkscape:deskcolor="#d1d1d1" />
  <path
     id="path1"
     style="baseline-shift:baseline;display:inline;overflow:visible;vector-effect:none;fill:#000000;stroke:none;stroke-linecap:butt;stroke-linejoin:miter;enable-background:accumulate;stop-color:#000000;stop-opacity:1;opacity:1"
     d="M 7.1992188 2.0996094 A 0.1 0.1 0 0 0 7.1738281 2.1035156 A 0.1 0.1 0 0 0 7.1035156 2.2265625 L 7.9042969 5.1269531 A 0.1 0.1 0 0 0 8.0273438 5.1972656 A 0.1 0.1 0 0 0 8.0957031 5.0742188 L 7.296875 2.1738281 A 0.1 0.1 0 0 0 7.1992188 2.0996094 z M 13.990234 4 A 0.1 0.1 0 0 0 13.931641 4.0273438 L 11.931641 5.9277344 A 0.1 0.1 0 0 0 11.927734 6.0683594 A 0.1 0.1 0 0 0 12.068359 6.0722656 L 14.068359 4.171875 A 0.1 0.1 0 0 0 14.072266 4.03125 A 0.1 0.1 0 0 0 13.990234 4 z M 2.2011719 7.0996094 A 0.1 0.1 0 0 0 2.1035156 7.1738281 A 0.1 0.1 0 0 0 2.1738281 7.296875 L 5.0742188 8.0957031 A 0.1 0.1 0 0 0 5.1972656 8.0273438 A 0.1 0.1 0 0 0 5.1269531 7.9042969 L 2.2265625 7.1035156 A 0.1 0.1 0 0 0 2.2011719 7.0996094 z M 9.4550781 8.8984375 C 9.3074153 8.9079684 9.1719506 8.9725806 9.0722656 9.0722656 C 8.9127696 9.2317616 8.8419554 9.485033 8.9453125 9.7285156 L 13.445312 20.728516 C 13.553171 20.993964 13.807882 21.118226 14.046875 21.099609 C 14.285868 21.080989 14.518531 20.917621 14.583984 20.638672 L 15.625 16.289062 C 15.70419 15.959494 15.96134 15.703746 16.291016 15.625 L 20.638672 14.583984 C 20.916506 14.517854 21.079065 14.285291 21.097656 14.046875 C 21.116246 13.808459 20.992741 13.553707 20.728516 13.445312 L 9.7285156 8.9453125 C 9.6372096 8.9065536 9.5436758 8.892719 9.4550781 8.8984375 z M 9.4667969 9.0957031 C 9.5251622 9.0917484 9.5870937 9.102037 9.6503906 9.1289062 A 0.10001 0.10001 0 0 0 9.6523438 9.1289062 L 20.652344 13.628906 C 20.8375 13.704866 20.911061 13.869371 20.898438 14.03125 C 20.885818 14.193129 20.788443 14.342333 20.59375 14.388672 A 0.10001 0.10001 0 0 0 20.591797 14.388672 L 16.244141 15.429688 C 15.841647 15.525828 15.526371 15.839826 15.429688 16.242188 L 14.390625 20.591797 A 0.10001 0.10001 0 0 0 14.388672 20.59375 C 14.342782 20.789311 14.193553 20.887748 14.03125 20.900391 C 13.868947 20.913031 13.704522 20.838441 13.628906 20.652344 L 9.1289062 9.6523438 A 0.10001 0.10001 0 0 0 9.1289062 9.6503906 C 9.0572549 9.4815956 9.1071562 9.3225311 9.2148438 9.2148438 C 9.2821484 9.1475391 9.3695214 9.1022944 9.4667969 9.0957031 z M 5.9980469 11.900391 A 0.1 0.1 0 0 0 5.9277344 11.931641 L 4.0273438 13.931641 A 0.1 0.1 0 0 0 4.03125 14.072266 A 0.1 0.1 0 0 0 4.171875 14.068359 L 6.0722656 12.068359 A 0.1 0.1 0 0 0 6.0683594 11.927734 A 0.1 0.1 0 0 0 5.9980469 11.900391 z " />
</svg>
