<?xml version="1.0" encoding="UTF-8" standalone="no"?>
<svg
   width="24"
   height="24"
   viewBox="0 0 24 24"
   fill="none"
   stroke="currentColor"
   stroke-width="0.2"
   stroke-linecap="round"
   stroke-linejoin="round"
   version="1.1"
   id="svg2"
   sodipodi:docname=".tmp_move-left.svg"
   xmlns:inkscape="http://www.inkscape.org/namespaces/inkscape"
   xmlns:sodipodi="http://sodipodi.sourceforge.net/DTD/sodipodi-0.dtd"
   xmlns="http://www.w3.org/2000/svg"
   xmlns:svg="http://www.w3.org/2000/svg">
  <defs
     id="defs2" />
  <sodipodi:namedview
     id="namedview2"
     pagecolor="#ffffff"
     bordercolor="#000000"
     borderopacity="0.25"
     inkscape:showpageshadow="2"
     inkscape:pageopacity="0.0"
     inkscape:pagecheckerboard="0"
     inkscape:deskcolor="#d1d1d1" />
  <path
     id="path1"
     style="baseline-shift:baseline;display:inline;overflow:visible;vector-effect:none;fill:#000000;stroke:none;stroke-linecap:butt;stroke-linejoin:miter;enable-background:accumulate;stop-color:#000000;stop-opacity:1;opacity:1"
     d="M 6 7.9003906 A 0.1 0.1 0 0 0 5.9296875 7.9296875 L 1.9414062 11.919922 A 0.1 0.1 0 0 0 1.9316406 11.927734 L 1.9296875 11.929688 A 0.1 0.1 0 0 0 1.921875 11.9375 A 0.10001 0.10001 0 0 0 1.921875 11.939453 A 0.1 0.1 0 0 0 1.9140625 11.949219 A 0.10001 0.10001 0 0 0 1.9140625 11.951172 A 0.1 0.1 0 0 0 1.9082031 11.960938 A 0.10001 0.10001 0 0 0 1.9042969 11.974609 A 0.1 0.1 0 0 0 1.9003906 12 A 0.1 0.1 0 0 0 1.9042969 12.025391 A 0.10001 0.10001 0 0 0 1.9082031 12.037109 A 0.1 0.1 0 0 0 1.9082031 12.039062 A 0.10001 0.10001 0 0 0 1.9140625 12.048828 A 0.1 0.1 0 0 0 1.9140625 12.050781 A 0.10001 0.10001 0 0 0 1.9296875 12.070312 A 0.1 0.1 0 0 0 1.9414062 12.080078 L 5.9296875 16.070312 A 0.1 0.1 0 0 0 6.0703125 16.070312 A 0.1 0.1 0 0 0 6.0703125 15.929688 L 2.2402344 12.099609 L 22 12.099609 A 0.1 0.1 0 0 0 22.099609 12 A 0.1 0.1 0 0 0 22 11.900391 L 2.2402344 11.900391 L 6.0703125 8.0703125 A 0.1 0.1 0 0 0 6.0703125 7.9296875 A 0.1 0.1 0 0 0 6 7.9003906 z " />
</svg>
