<?xml version="1.0" encoding="UTF-8" standalone="no"?>
<svg
   width="24"
   height="24"
   viewBox="0 0 24 24"
   fill="none"
   stroke="currentColor"
   stroke-width="0.2"
   stroke-linecap="round"
   stroke-linejoin="round"
   version="1.1"
   id="svg1"
   sodipodi:docname=".tmp_music-3.svg"
   xmlns:inkscape="http://www.inkscape.org/namespaces/inkscape"
   xmlns:sodipodi="http://sodipodi.sourceforge.net/DTD/sodipodi-0.dtd"
   xmlns="http://www.w3.org/2000/svg"
   xmlns:svg="http://www.w3.org/2000/svg">
  <defs
     id="defs1" />
  <sodipodi:namedview
     id="namedview1"
     pagecolor="#ffffff"
     bordercolor="#000000"
     borderopacity="0.25"
     inkscape:showpageshadow="2"
     inkscape:pageopacity="0.0"
     inkscape:pagecheckerboard="0"
     inkscape:deskcolor="#d1d1d1" />
  <path
     id="circle1"
     style="baseline-shift:baseline;display:inline;overflow:visible;vector-effect:none;fill:#000000;stroke:none;stroke-linecap:butt;stroke-linejoin:miter;enable-background:accumulate;stop-color:#000000;stop-opacity:1;opacity:1"
     d="M 15.986328 1.9003906 A 0.1 0.1 0 0 0 15.900391 2 L 15.900391 16.734375 C 15.366827 15.089931 13.821657 13.900391 12 13.900391 C 9.736817 13.900391 7.9003906 15.736817 7.9003906 18 C 7.9003906 20.263183 9.736817 22.099609 12 22.099609 C 14.257934 22.099609 16.091117 20.271576 16.099609 18.015625 C 16.099629 18.01038 16.099609 18.005249 16.099609 18 L 16.099609 2 A 0.1 0.1 0 0 0 16 1.9003906 A 0.1 0.1 0 0 0 15.986328 1.9003906 z M 12 14.099609 C 14.155095 14.099609 15.900391 15.844905 15.900391 18 A 0.1 0.1 0 0 0 15.900391 18.013672 C 15.892945 20.1624 14.150484 21.900391 12 21.900391 C 9.844905 21.900391 8.0996094 20.155095 8.0996094 18 C 8.0996094 15.844905 9.844905 14.099609 12 14.099609 z " />
</svg>
