<?xml version="1.0" encoding="UTF-8" standalone="no"?>
<svg
   width="24"
   height="24"
   viewBox="0 0 24 24"
   fill="none"
   stroke="currentColor"
   stroke-width="0.2"
   stroke-linecap="round"
   stroke-linejoin="round"
   version="1.1"
   id="svg8"
   sodipodi:docname=".tmp_notebook-tabs.svg"
   xmlns:inkscape="http://www.inkscape.org/namespaces/inkscape"
   xmlns:sodipodi="http://sodipodi.sourceforge.net/DTD/sodipodi-0.dtd"
   xmlns="http://www.w3.org/2000/svg"
   xmlns:svg="http://www.w3.org/2000/svg">
  <defs
     id="defs8" />
  <sodipodi:namedview
     id="namedview8"
     pagecolor="#ffffff"
     bordercolor="#000000"
     borderopacity="0.25"
     inkscape:showpageshadow="2"
     inkscape:pageopacity="0.0"
     inkscape:pagecheckerboard="0"
     inkscape:deskcolor="#d1d1d1" />
  <path
     id="path1"
     style="baseline-shift:baseline;display:inline;overflow:visible;vector-effect:none;fill:#000000;stroke:none;stroke-linecap:butt;stroke-linejoin:miter;enable-background:accumulate;stop-color:#000000;stop-opacity:1;opacity:1"
     d="M 6 1.9003906 C 4.8383297 1.9003906 3.9003906 2.8383297 3.9003906 4 L 3.9003906 5.9003906 L 2 5.9003906 A 0.1 0.1 0 0 0 1.9003906 6 A 0.1 0.1 0 0 0 2 6.0996094 L 3.9003906 6.0996094 L 3.9003906 9.9003906 L 2 9.9003906 A 0.1 0.1 0 0 0 1.9003906 10 A 0.1 0.1 0 0 0 2 10.099609 L 3.9003906 10.099609 L 3.9003906 13.900391 L 2 13.900391 A 0.1 0.1 0 0 0 1.9003906 14 A 0.1 0.1 0 0 0 2 14.099609 L 3.9003906 14.099609 L 3.9003906 17.900391 L 2 17.900391 A 0.1 0.1 0 0 0 1.9003906 18 A 0.1 0.1 0 0 0 2 18.099609 L 3.9003906 18.099609 L 3.9003906 20 C 3.9003906 21.16167 4.8383297 22.099609 6 22.099609 L 18 22.099609 C 19.16167 22.099609 20.099609 21.16167 20.099609 20 L 20.099609 17.013672 A 0.1 0.1 0 0 0 20.099609 17 A 0.1 0.1 0 0 0 20.099609 16.986328 L 20.099609 12.013672 A 0.1 0.1 0 0 0 20.099609 12 A 0.1 0.1 0 0 0 20.099609 11.986328 L 20.099609 7.0136719 A 0.1 0.1 0 0 0 20.099609 7 A 0.1 0.1 0 0 0 20.099609 6.9863281 L 20.099609 4 C 20.099609 2.8383297 19.16167 1.9003906 18 1.9003906 L 6 1.9003906 z M 6 2.0996094 L 14.900391 2.0996094 L 14.900391 6.9863281 A 0.1 0.1 0 0 0 14.900391 7 A 0.1 0.1 0 0 0 14.900391 7.0136719 L 14.900391 11.986328 A 0.1 0.1 0 0 0 14.900391 12 A 0.1 0.1 0 0 0 14.900391 12.013672 L 14.900391 16.986328 A 0.1 0.1 0 0 0 14.900391 17 A 0.1 0.1 0 0 0 14.900391 17.013672 L 14.900391 21.900391 L 6 21.900391 C 4.9456703 21.900391 4.0996094 21.05433 4.0996094 20 L 4.0996094 18.099609 L 6 18.099609 A 0.1 0.1 0 0 0 6.0996094 18 A 0.1 0.1 0 0 0 6 17.900391 L 4.0996094 17.900391 L 4.0996094 14.099609 L 6 14.099609 A 0.1 0.1 0 0 0 6.0996094 14 A 0.1 0.1 0 0 0 6 13.900391 L 4.0996094 13.900391 L 4.0996094 10.099609 L 6 10.099609 A 0.1 0.1 0 0 0 6.0996094 10 A 0.1 0.1 0 0 0 6 9.9003906 L 4.0996094 9.9003906 L 4.0996094 6.0996094 L 6 6.0996094 A 0.1 0.1 0 0 0 6.0996094 6 A 0.1 0.1 0 0 0 6 5.9003906 L 4.0996094 5.9003906 L 4.0996094 4 C 4.0996094 2.9456703 4.9456703 2.0996094 6 2.0996094 z M 15.099609 2.0996094 L 18 2.0996094 C 19.05433 2.0996094 19.900391 2.9456703 19.900391 4 L 19.900391 6.9003906 L 15.099609 6.9003906 L 15.099609 2.0996094 z M 15.099609 7.0996094 L 19.900391 7.0996094 L 19.900391 11.900391 L 15.099609 11.900391 L 15.099609 7.0996094 z M 15.099609 12.099609 L 19.900391 12.099609 L 19.900391 16.900391 L 15.099609 16.900391 L 15.099609 12.099609 z M 15.099609 17.099609 L 19.900391 17.099609 L 19.900391 20 C 19.900391 21.05433 19.05433 21.900391 18 21.900391 L 15.099609 21.900391 L 15.099609 17.099609 z " />
</svg>
