<?xml version="1.0" encoding="UTF-8" standalone="no"?>
<svg
   width="24"
   height="24"
   viewBox="0 0 24 24"
   fill="none"
   stroke="currentColor"
   stroke-width="0.2"
   stroke-linecap="round"
   stroke-linejoin="round"
   version="1.1"
   id="svg2"
   sodipodi:docname=".tmp_option.svg"
   xmlns:inkscape="http://www.inkscape.org/namespaces/inkscape"
   xmlns:sodipodi="http://sodipodi.sourceforge.net/DTD/sodipodi-0.dtd"
   xmlns="http://www.w3.org/2000/svg"
   xmlns:svg="http://www.w3.org/2000/svg">
  <defs
     id="defs2" />
  <sodipodi:namedview
     id="namedview2"
     pagecolor="#ffffff"
     bordercolor="#000000"
     borderopacity="0.25"
     inkscape:showpageshadow="2"
     inkscape:pageopacity="0.0"
     inkscape:pagecheckerboard="0"
     inkscape:deskcolor="#d1d1d1" />
  <path
     id="path1"
     style="baseline-shift:baseline;display:inline;overflow:visible;vector-effect:none;fill:#000000;stroke:none;stroke-linecap:butt;stroke-linejoin:miter;enable-background:accumulate;stop-color:#000000;stop-opacity:1;opacity:1"
     d="M 2.9863281 2.9003906 A 0.1 0.1 0 0 0 2.9003906 3 A 0.1 0.1 0 0 0 3 3.0996094 L 8.9277344 3.0996094 L 14.904297 21.03125 A 0.10001 0.10001 0 0 0 15 21.099609 L 21 21.099609 A 0.1 0.1 0 0 0 21.099609 21 A 0.1 0.1 0 0 0 21 20.900391 L 15.072266 20.900391 L 9.0957031 2.96875 A 0.10001 0.10001 0 0 0 9 2.9003906 L 3 2.9003906 A 0.1 0.1 0 0 0 2.9863281 2.9003906 z M 13.986328 2.9003906 A 0.1 0.1 0 0 0 13.900391 3 A 0.1 0.1 0 0 0 14 3.0996094 L 21 3.0996094 A 0.1 0.1 0 0 0 21.099609 3 A 0.1 0.1 0 0 0 21 2.9003906 L 14 2.9003906 A 0.1 0.1 0 0 0 13.986328 2.9003906 z " />
</svg>
