<?xml version="1.0" encoding="UTF-8" standalone="no"?>
<svg
   width="24"
   height="24"
   viewBox="0 0 24 24"
   fill="none"
   stroke="currentColor"
   stroke-width="0.2"
   stroke-linecap="round"
   stroke-linejoin="round"
   version="1.1"
   id="svg6"
   sodipodi:docname=".tmp_pencil-ruler.svg"
   xmlns:inkscape="http://www.inkscape.org/namespaces/inkscape"
   xmlns:sodipodi="http://sodipodi.sourceforge.net/DTD/sodipodi-0.dtd"
   xmlns="http://www.w3.org/2000/svg"
   xmlns:svg="http://www.w3.org/2000/svg">
  <defs
     id="defs6" />
  <sodipodi:namedview
     id="namedview6"
     pagecolor="#ffffff"
     bordercolor="#000000"
     borderopacity="0.25"
     inkscape:showpageshadow="2"
     inkscape:pageopacity="0.0"
     inkscape:pagecheckerboard="0"
     inkscape:deskcolor="#d1d1d1" />
  <path
     id="path1"
     style="baseline-shift:baseline;display:inline;overflow:visible;vector-effect:none;fill:#000000;stroke:none;stroke-linecap:butt;stroke-linejoin:miter;enable-background:accumulate;stop-color:#000000;stop-opacity:1;opacity:1"
     d="M 19.035156 1.8515625 C 18.385227 1.8819964 17.714095 2.1571487 17.117188 2.7539062 L 14.964844 4.9082031 L 14.960938 4.9101562 A 0.1 0.1 0 0 0 14.929688 4.9296875 A 0.1 0.1 0 0 0 14.910156 4.9609375 A 0.1 0.1 0 0 0 14.908203 4.9648438 L 13.005859 6.8652344 L 8.7714844 2.6289062 C 8.2822856 2.1420685 7.6406703 1.8984375 7 1.8984375 C 6.3593297 1.8984375 5.7177144 2.1420685 5.2285156 2.6289062 L 2.6289062 5.2285156 C 1.6552309 6.2069132 1.6552309 7.7930868 2.6289062 8.7714844 L 6.8671875 13.007812 L 3.7714844 16.103516 C 3.5276973 16.346588 3.347012 16.645471 3.2460938 16.974609 L 1.9257812 21.326172 A 0.10001 0.10001 0 0 0 1.9257812 21.328125 C 1.7905777 21.780549 2.2196685 22.210149 2.671875 22.074219 A 0.10001 0.10001 0 0 0 2.6738281 22.074219 L 7.0253906 20.753906 C 7.3542148 20.653896 7.6550219 20.475066 7.8984375 20.232422 L 10.994141 17.134766 L 15.228516 21.371094 C 16.206629 22.349207 17.793371 22.349207 18.771484 21.371094 L 21.371094 18.771484 C 22.349207 17.793371 22.349207 16.206629 21.371094 15.228516 L 17.134766 10.994141 L 19.033203 9.09375 L 19.035156 9.09375 A 0.1 0.1 0 0 0 19.070312 9.0703125 A 0.1 0.1 0 0 0 19.09375 9.0351562 A 0.1 0.1 0 0 0 19.09375 9.0332031 L 21.244141 6.8828125 C 21.92632 6.200804 22.189538 5.4209866 22.146484 4.6875 C 22.10343 3.9540134 21.760055 3.2679966 21.246094 2.7539062 C 20.732132 2.2398157 20.045976 1.8967537 19.3125 1.8535156 C 19.220816 1.8481109 19.128003 1.8472148 19.035156 1.8515625 z M 19.044922 2.0507812 C 19.130736 2.0468628 19.215981 2.0477355 19.300781 2.0527344 C 19.97918 2.0927254 20.620977 2.4138248 21.103516 2.8964844 C 21.586054 3.3791439 21.907444 4.0208099 21.947266 4.6992188 C 21.987086 5.3776278 21.750335 6.0955299 21.103516 6.7421875 L 18.992188 8.8515625 L 15.148438 5.0078125 L 17.257812 2.8964844 C 17.82378 2.330659 18.444222 2.0782105 19.044922 2.0507812 z M 7 2.0976562 C 7.5889467 2.0976562 8.1778934 2.3226483 8.6289062 2.7714844 L 9.859375 4 L 7.9296875 5.9296875 A 0.1 0.1 0 0 0 7.9296875 6.0703125 A 0.1 0.1 0 0 0 8.0703125 6.0703125 L 10 4.140625 L 12.865234 7.0058594 L 7.0078125 12.867188 L 2.7714844 8.6289062 C 1.8738123 7.7268805 1.8738123 6.2731195 2.7714844 5.3710938 L 5.3710938 2.7714844 C 5.8221066 2.3226483 6.4110533 2.0976562 7 2.0976562 z M 15.007812 5.1484375 L 18.851562 8.9921875 L 7.7558594 20.089844 C 7.5356214 20.309384 7.2662642 20.472013 6.96875 20.5625 L 2.6152344 21.882812 C 2.3049846 21.976071 2.0244271 21.695165 2.1171875 21.384766 L 3.4375 17.033203 C 3.528809 16.735405 3.6915352 16.464068 3.9121094 16.244141 L 15.007812 5.1484375 z M 16.994141 11.134766 L 19.859375 14 L 17.929688 15.929688 A 0.1 0.1 0 0 0 17.929688 16.070312 A 0.1 0.1 0 0 0 18.070312 16.070312 L 20 14.140625 L 21.228516 15.371094 C 22.130402 16.27298 22.130402 17.72702 21.228516 18.628906 L 18.628906 21.228516 C 17.72702 22.130402 16.27298 22.130402 15.371094 21.228516 L 11.134766 16.994141 L 16.994141 11.134766 z " />
</svg>
