<?xml version="1.0" encoding="UTF-8" standalone="no"?>
<svg
   width="24"
   height="24"
   viewBox="0 0 24 24"
   fill="none"
   stroke="currentColor"
   stroke-width="0.2"
   stroke-linecap="round"
   stroke-linejoin="round"
   version="1.1"
   id="svg1"
   sodipodi:docname=".tmp_pentagon.svg"
   xmlns:inkscape="http://www.inkscape.org/namespaces/inkscape"
   xmlns:sodipodi="http://sodipodi.sourceforge.net/DTD/sodipodi-0.dtd"
   xmlns="http://www.w3.org/2000/svg"
   xmlns:svg="http://www.w3.org/2000/svg">
  <defs
     id="defs1" />
  <sodipodi:namedview
     id="namedview1"
     pagecolor="#ffffff"
     bordercolor="#000000"
     borderopacity="0.25"
     inkscape:showpageshadow="2"
     inkscape:pageopacity="0.0"
     inkscape:pagecheckerboard="0"
     inkscape:deskcolor="#d1d1d1" />
  <path
     id="path1"
     style="baseline-shift:baseline;display:inline;overflow:visible;vector-effect:none;fill:#000000;stroke:none;stroke-linecap:butt;stroke-linejoin:miter;enable-background:accumulate;stop-color:#000000;stop-opacity:1;opacity:1"
     d="M 12 1.9023438 C 11.569058 1.9023438 11.1381 2.0343872 10.771484 2.2988281 L 2.7714844 8.0390625 C 2.0280888 8.5746387 1.7184953 9.5303898 2.0058594 10.400391 L 5.0449219 19.662109 C 5.3298607 20.520628 6.1346386 21.099596 7.0390625 21.099609 L 16.960938 21.099609 C 17.865361 21.099596 18.670139 20.520628 18.955078 19.662109 L 21.994141 10.400391 C 22.281505 9.5303898 21.971911 8.5746387 21.228516 8.0390625 L 13.228516 2.2988281 C 12.8619 2.0343872 12.430942 1.9023438 12 1.9023438 z M 12 2.1015625 C 12.389751 2.1015625 12.779331 2.2214672 13.111328 2.4609375 L 21.111328 8.2011719 C 21.784556 8.6861962 22.064929 9.5500072 21.804688 10.337891 L 18.765625 19.597656 C 18.507406 20.37567 17.780682 20.901135 16.960938 20.900391 L 7.0390625 20.900391 C 6.2198687 20.901135 5.4930504 20.376759 5.234375 19.599609 L 5.234375 19.597656 L 2.1953125 10.337891 C 1.9350721 9.5500072 2.2154438 8.6861962 2.8886719 8.2011719 L 10.888672 2.4609375 C 11.220669 2.2214672 11.610249 2.1015625 12 2.1015625 z " />
</svg>
