<?xml version="1.0" encoding="UTF-8" standalone="no"?>
<svg
   width="24"
   height="24"
   viewBox="0 0 24 24"
   fill="none"
   stroke="currentColor"
   stroke-width="0.2"
   stroke-linecap="round"
   stroke-linejoin="round"
   version="1.1"
   id="svg2"
   sodipodi:docname=".tmp_pi.svg"
   xmlns:inkscape="http://www.inkscape.org/namespaces/inkscape"
   xmlns:sodipodi="http://sodipodi.sourceforge.net/DTD/sodipodi-0.dtd"
   xmlns="http://www.w3.org/2000/svg"
   xmlns:svg="http://www.w3.org/2000/svg">
  <defs
     id="defs2" />
  <sodipodi:namedview
     id="namedview2"
     pagecolor="#ffffff"
     bordercolor="#000000"
     borderopacity="0.25"
     inkscape:showpageshadow="2"
     inkscape:pageopacity="0.0"
     inkscape:pagecheckerboard="0"
     inkscape:deskcolor="#d1d1d1" />
  <path
     id="line1"
     style="baseline-shift:baseline;display:inline;overflow:visible;vector-effect:none;fill:#000000;stroke:none;stroke-linecap:butt;stroke-linejoin:miter;enable-background:accumulate;stop-color:#000000;stop-opacity:1;opacity:1"
     d="M 7 3.9003906 C 5.2490196 3.9003906 3.9003906 5.2490196 3.9003906 7 A 0.1 0.1 0 0 0 4 7.0996094 A 0.1 0.1 0 0 0 4.0996094 7 C 4.0996094 5.3509804 5.3509804 4.0996094 7 4.0996094 L 8.9003906 4.0996094 L 8.9003906 20 A 0.1 0.1 0 0 0 9 20.099609 A 0.1 0.1 0 0 0 9.0996094 20 L 9.0996094 4.0996094 L 14.900391 4.0996094 L 14.900391 17 C 14.900391 18.75098 16.24902 20.099609 18 20.099609 A 0.1 0.1 0 0 0 18.099609 20 A 0.1 0.1 0 0 0 18 19.900391 C 16.35098 19.900391 15.099609 18.64902 15.099609 17 L 15.099609 4.0996094 L 20 4.0996094 A 0.1 0.1 0 0 0 20.099609 4 A 0.1 0.1 0 0 0 20 3.9003906 L 15.013672 3.9003906 L 14.986328 3.9003906 L 7 3.9003906 z " />
</svg>
