<?xml version="1.0" encoding="UTF-8" standalone="no"?>
<svg
   width="24"
   height="24"
   viewBox="0 0 24 24"
   fill="none"
   stroke="currentColor"
   stroke-width="0.2"
   stroke-linecap="round"
   stroke-linejoin="round"
   version="1.1"
   id="svg5"
   sodipodi:docname=".tmp_plug-2.svg"
   xmlns:inkscape="http://www.inkscape.org/namespaces/inkscape"
   xmlns:sodipodi="http://sodipodi.sourceforge.net/DTD/sodipodi-0.dtd"
   xmlns="http://www.w3.org/2000/svg"
   xmlns:svg="http://www.w3.org/2000/svg">
  <defs
     id="defs5" />
  <sodipodi:namedview
     id="namedview5"
     pagecolor="#ffffff"
     bordercolor="#000000"
     borderopacity="0.25"
     inkscape:showpageshadow="2"
     inkscape:pageopacity="0.0"
     inkscape:pagecheckerboard="0"
     inkscape:deskcolor="#d1d1d1" />
  <path
     id="path1"
     style="baseline-shift:baseline;display:inline;overflow:visible;vector-effect:none;fill:#000000;stroke:none;stroke-linecap:butt;stroke-linejoin:miter;enable-background:accumulate;stop-color:#000000;stop-opacity:1;opacity:1"
     d="M 8.9863281 1.9003906 A 0.1 0.1 0 0 0 8.9003906 2 L 8.9003906 7.9003906 L 5.9863281 7.9003906 L 5 7.9003906 A 0.1 0.1 0 0 0 4.9003906 8 A 0.1 0.1 0 0 0 5 8.0996094 L 5.9003906 8.0996094 L 5.9003906 11 C 5.9003906 14.334489 8.5785448 17.046376 11.900391 17.099609 L 11.900391 22 A 0.1 0.1 0 0 0 12 22.099609 A 0.1 0.1 0 0 0 12.099609 22 L 12.099609 17.099609 C 15.421455 17.046376 18.099609 14.334489 18.099609 11 L 18.099609 8.0996094 L 19 8.0996094 A 0.1 0.1 0 0 0 19.099609 8 A 0.1 0.1 0 0 0 19 7.9003906 L 18.013672 7.9003906 L 18 7.9003906 L 15.099609 7.9003906 L 15.099609 2 A 0.1 0.1 0 0 0 15 1.9003906 A 0.1 0.1 0 0 0 14.900391 2 L 14.900391 7.9003906 L 9.0996094 7.9003906 L 9.0996094 2 A 0.1 0.1 0 0 0 9 1.9003906 A 0.1 0.1 0 0 0 8.9863281 1.9003906 z M 6.0996094 8.0996094 L 8.9863281 8.0996094 L 17.900391 8.0996094 L 17.900391 11 C 17.900391 14.255064 15.266984 16.892947 12.013672 16.900391 A 0.1 0.1 0 0 0 12 16.900391 C 11.995397 16.900391 11.990929 16.900401 11.986328 16.900391 C 8.733016 16.892947 6.0996094 14.255064 6.0996094 11 L 6.0996094 8.0996094 z " />
</svg>
