<?xml version="1.0" encoding="UTF-8" standalone="no"?>
<svg
   width="24"
   height="24"
   viewBox="0 0 24 24"
   fill="none"
   stroke="currentColor"
   stroke-width="0.2"
   stroke-linecap="round"
   stroke-linejoin="round"
   version="1.1"
   id="svg3"
   sodipodi:docname=".tmp_podcast.svg"
   xmlns:inkscape="http://www.inkscape.org/namespaces/inkscape"
   xmlns:sodipodi="http://sodipodi.sourceforge.net/DTD/sodipodi-0.dtd"
   xmlns="http://www.w3.org/2000/svg"
   xmlns:svg="http://www.w3.org/2000/svg">
  <defs
     id="defs3" />
  <sodipodi:namedview
     id="namedview3"
     pagecolor="#ffffff"
     bordercolor="#000000"
     borderopacity="0.25"
     inkscape:showpageshadow="2"
     inkscape:pageopacity="0.0"
     inkscape:pagecheckerboard="0"
     inkscape:deskcolor="#d1d1d1" />
  <path
     id="path4"
     style="baseline-shift:baseline;display:inline;overflow:visible;vector-effect:none;fill:currentColor;stroke:none;stroke-linecap:butt;stroke-linejoin:miter;enable-background:accumulate;stop-color:#000000"
     d="M 12 1.9003906 C 7.4609689 1.9003906 4.3123317 4.8667911 3.265625 8.4433594 C 2.2189183 12.019928 3.270535 16.217012 7.0957031 18.664062 A 0.1 0.1 0 0 0 7.234375 18.634766 A 0.1 0.1 0 0 0 7.203125 18.496094 C 3.4512276 16.095918 2.4322389 12.001687 3.4570312 8.5 C 4.4818235 4.9983125 7.5479656 2.0996094 12 2.0996094 C 16.452034 2.0996094 19.518176 4.9983125 20.542969 8.5 C 21.567761 12.001687 20.548769 16.095914 16.796875 18.496094 A 0.1 0.1 0 0 0 16.765625 18.634766 A 0.1 0.1 0 0 0 16.904297 18.664062 C 20.729461 16.217009 21.781082 12.019928 20.734375 8.4433594 C 19.687668 4.8667911 16.539031 1.9003906 12 1.9003906 z M 12 5.9003906 C 7.8037509 5.9003906 5.4020422 10.703374 7.9199219 14.060547 A 0.1 0.1 0 0 0 8.0605469 14.080078 A 0.1 0.1 0 0 0 8.0800781 13.939453 C 5.6535268 10.704052 7.9559654 6.0996094 12 6.0996094 C 16.044035 6.0996094 18.346473 10.704051 15.919922 13.939453 A 0.1 0.1 0 0 0 15.939453 14.080078 A 0.1 0.1 0 0 0 16.080078 14.060547 C 18.597959 10.703373 16.196249 5.9003906 12 5.9003906 z M 12 9.9003906 C 11.393671 9.9003906 10.900391 10.393671 10.900391 11 C 10.900391 11.606329 11.393671 12.099609 12 12.099609 C 12.606329 12.099609 13.099609 11.606329 13.099609 11 C 13.099609 10.393671 12.606329 9.9003906 12 9.9003906 z M 12 15.900391 C 11.727778 15.900391 11.454212 15.990791 11.246094 16.175781 C 11.037976 16.360775 10.900391 16.641667 10.900391 17 A 0.10001 0.10001 0 0 0 10.900391 17.011719 L 11.400391 21.511719 C 11.403429 21.697942 11.477846 21.849669 11.589844 21.949219 C 11.704212 22.050879 11.852778 22.099609 12 22.099609 C 12.147222 22.099609 12.295788 22.050879 12.410156 21.949219 C 12.522149 21.849669 12.59657 21.697942 12.599609 21.511719 L 13.099609 17.011719 A 0.10001 0.10001 0 0 0 13.099609 17 C 13.099609 16.641667 12.962024 16.360775 12.753906 16.175781 C 12.545788 15.990787 12.272222 15.900391 12 15.900391 z " />
</svg>
