<?xml version="1.0" encoding="UTF-8" standalone="no"?>
<svg
   width="24"
   height="24"
   viewBox="0 0 24 24"
   fill="none"
   stroke="currentColor"
   stroke-width="0.2"
   stroke-linecap="round"
   stroke-linejoin="round"
   version="1.1"
   id="svg6"
   sodipodi:docname=".tmp_radio-tower.svg"
   xmlns:inkscape="http://www.inkscape.org/namespaces/inkscape"
   xmlns:sodipodi="http://sodipodi.sourceforge.net/DTD/sodipodi-0.dtd"
   xmlns="http://www.w3.org/2000/svg"
   xmlns:svg="http://www.w3.org/2000/svg">
  <defs
     id="defs6" />
  <sodipodi:namedview
     id="namedview6"
     pagecolor="#ffffff"
     bordercolor="#000000"
     borderopacity="0.25"
     inkscape:showpageshadow="2"
     inkscape:pageopacity="0.0"
     inkscape:pagecheckerboard="0"
     inkscape:deskcolor="#d1d1d1" />
  <path
     id="path1"
     style="baseline-shift:baseline;display:inline;overflow:visible;vector-effect:none;fill:#000000;stroke:none;stroke-linecap:butt;stroke-linejoin:miter;enable-background:accumulate;stop-color:#000000;stop-opacity:1;opacity:1"
     d="M 4.9003906 1.8007812 A 0.1 0.1 0 0 0 4.8300781 1.8300781 C 0.89139881 5.7687575 0.8913988 12.231243 4.8300781 16.169922 A 0.1 0.1 0 0 0 4.9707031 16.169922 A 0.1 0.1 0 0 0 4.9707031 16.029297 C 1.1093825 12.167976 1.1093825 5.8320238 4.9707031 1.9707031 A 0.1 0.1 0 0 0 4.9707031 1.8300781 A 0.1 0.1 0 0 0 4.9003906 1.8007812 z M 19.099609 1.8007812 A 0.1 0.1 0 0 0 19.029297 1.8300781 A 0.1 0.1 0 0 0 19.029297 1.9707031 C 22.890245 5.8237433 22.890245 12.076647 19.029297 15.929688 A 0.1 0.1 0 0 0 19.029297 16.070312 A 0.1 0.1 0 0 0 19.169922 16.070312 C 23.107481 12.140819 23.107481 5.759572 19.169922 1.8300781 A 0.1 0.1 0 0 0 19.099609 1.8007812 z M 7.7851562 4.6015625 A 0.1 0.1 0 0 0 7.7285156 4.6308594 C 5.7453369 6.6856991 5.4089381 9.8250311 6.9140625 12.251953 A 0.1 0.1 0 0 0 7.0527344 12.285156 A 0.1 0.1 0 0 0 7.0859375 12.146484 C 5.6285266 9.7965006 5.9507831 6.7592281 7.8710938 4.7695312 A 0.1 0.1 0 0 0 7.8691406 4.6289062 A 0.1 0.1 0 0 0 7.7851562 4.6015625 z M 16.1875 4.6992188 A 0.1 0.1 0 0 0 16.128906 4.7285156 A 0.1 0.1 0 0 0 16.128906 4.8710938 C 18.095319 6.8375062 18.350589 9.8947409 16.914062 12.216797 A 0.1 0.1 0 0 0 16.947266 12.355469 A 0.1 0.1 0 0 0 17.085938 12.322266 C 18.569415 9.9243181 18.305072 6.7621032 16.271484 4.7285156 A 0.1 0.1 0 0 0 16.1875 4.6992188 z M 12 6.9003906 C 10.841386 6.9003906 9.9003906 7.8413865 9.9003906 9 C 9.9003906 10.11145 10.766071 11.023361 11.859375 11.095703 L 7.90625 21.966797 A 0.1 0.1 0 0 0 7.9667969 22.09375 A 0.1 0.1 0 0 0 8.09375 22.033203 L 9.5234375 18.099609 L 14.476562 18.099609 L 15.90625 22.033203 A 0.1 0.1 0 0 0 16.033203 22.09375 A 0.1 0.1 0 0 0 16.09375 21.966797 L 12.140625 11.095703 C 13.233928 11.02336 14.099609 10.111449 14.099609 9 C 14.099609 7.8413865 13.158614 6.9003906 12 6.9003906 z M 12 7.0996094 C 13.050525 7.0996094 13.900391 7.9494745 13.900391 9 C 13.900391 10.050525 13.050525 10.900391 12 10.900391 C 10.949475 10.900391 10.099609 10.050525 10.099609 9 C 10.099609 7.9494745 10.949475 7.0996094 12 7.0996094 z M 12 11.291016 L 14.404297 17.900391 L 9.5957031 17.900391 L 12 11.291016 z " />
</svg>
