<?xml version="1.0" encoding="UTF-8" standalone="no"?>
<svg
   width="24"
   height="24"
   viewBox="0 0 24 24"
   fill="none"
   stroke="currentColor"
   stroke-width="0.2"
   stroke-linecap="round"
   stroke-linejoin="round"
   version="1.1"
   id="svg3"
   sodipodi:docname=".tmp_receipt-cent.svg"
   xmlns:inkscape="http://www.inkscape.org/namespaces/inkscape"
   xmlns:sodipodi="http://sodipodi.sourceforge.net/DTD/sodipodi-0.dtd"
   xmlns="http://www.w3.org/2000/svg"
   xmlns:svg="http://www.w3.org/2000/svg">
  <defs
     id="defs3" />
  <sodipodi:namedview
     id="namedview3"
     pagecolor="#ffffff"
     bordercolor="#000000"
     borderopacity="0.25"
     inkscape:showpageshadow="2"
     inkscape:pageopacity="0.0"
     inkscape:pagecheckerboard="0"
     inkscape:deskcolor="#d1d1d1" />
  <path
     id="path1"
     style="baseline-shift:baseline;display:inline;overflow:visible;vector-effect:none;fill:#000000;stroke:none;stroke-linecap:butt;stroke-linejoin:miter;enable-background:accumulate;stop-color:#000000;stop-opacity:1;opacity:1"
     d="M 3.9921875 1.9003906 A 0.10001 0.10001 0 0 0 3.9003906 2 L 3.9003906 22 A 0.10001 0.10001 0 0 0 4.0449219 22.089844 L 6 21.111328 L 7.9550781 22.089844 A 0.10001 0.10001 0 0 0 8.0449219 22.089844 L 10 21.111328 L 11.955078 22.089844 A 0.10001 0.10001 0 0 0 12.044922 22.089844 L 14 21.111328 L 15.955078 22.089844 A 0.10001 0.10001 0 0 0 16.044922 22.089844 L 18 21.111328 L 19.955078 22.089844 A 0.10001 0.10001 0 0 0 20.099609 22 L 20.099609 2 A 0.10001 0.10001 0 0 0 19.955078 1.9101562 L 18 2.8886719 L 16.044922 1.9101562 A 0.10001 0.10001 0 0 0 15.955078 1.9101562 L 14 2.8886719 L 12.044922 1.9101562 A 0.10001 0.10001 0 0 0 11.955078 1.9101562 L 10 2.8886719 L 8.0449219 1.9101562 A 0.10001 0.10001 0 0 0 7.9550781 1.9101562 L 6 2.8886719 L 4.0449219 1.9101562 A 0.10001 0.10001 0 0 0 3.9921875 1.9003906 z M 8 2.1113281 L 9.9550781 3.0898438 A 0.10001 0.10001 0 0 0 10.044922 3.0898438 L 12 2.1113281 L 13.955078 3.0898438 A 0.10001 0.10001 0 0 0 14.044922 3.0898438 L 16 2.1113281 L 17.955078 3.0898438 A 0.10001 0.10001 0 0 0 18.044922 3.0898438 L 19.900391 2.1621094 L 19.900391 21.837891 L 18.044922 20.910156 A 0.10001 0.10001 0 0 0 17.955078 20.910156 L 16 21.888672 L 14.044922 20.910156 A 0.10001 0.10001 0 0 0 13.955078 20.910156 L 12 21.888672 L 10.044922 20.910156 A 0.10001 0.10001 0 0 0 9.9550781 20.910156 L 8 21.888672 L 6.0449219 20.910156 A 0.10001 0.10001 0 0 0 5.9550781 20.910156 L 4.0996094 21.837891 L 4.0996094 2.1621094 L 5.9550781 3.0898438 A 0.10001 0.10001 0 0 0 6.0449219 3.0898438 L 8 2.1113281 z M 11.986328 6.4003906 A 0.1 0.1 0 0 0 11.900391 6.5 L 11.900391 7.8945312 C 11.434489 7.9051433 10.973377 7.9938561 10.539062 8.1542969 C 9.0460717 8.7058243 7.8613281 10.100827 7.8613281 12 C 7.8613281 13.899173 9.0460717 15.294176 10.539062 15.845703 C 10.973373 16.006143 11.434462 16.095093 11.900391 16.105469 L 11.900391 17.5 A 0.1 0.1 0 0 0 12 17.599609 A 0.1 0.1 0 0 0 12.099609 17.5 L 12.099609 16.105469 C 13.171174 16.077378 14.251784 15.627878 15.076172 14.664062 A 0.1 0.1 0 0 0 15.064453 14.523438 A 0.1 0.1 0 0 0 14.923828 14.535156 C 14.137087 15.454959 13.115022 15.881792 12.099609 15.908203 L 12.099609 8.0917969 C 13.115022 8.1182075 14.137086 8.5450405 14.923828 9.4648438 A 0.1 0.1 0 0 0 15.064453 9.4765625 A 0.1 0.1 0 0 0 15.076172 9.3359375 C 14.458826 8.614181 13.697377 8.179861 12.904297 7.9960938 C 12.638327 7.9344649 12.368693 7.901456 12.099609 7.8945312 L 12.099609 6.5 A 0.1 0.1 0 0 0 12 6.4003906 A 0.1 0.1 0 0 0 11.986328 6.4003906 z M 11.900391 8.0917969 L 11.900391 15.908203 C 11.459132 15.897105 11.022138 15.810682 10.609375 15.658203 C 9.1865093 15.132578 8.0605469 13.816203 8.0605469 12 C 8.0605469 10.183797 9.1865083 8.8674199 10.609375 8.3417969 C 11.022138 8.1893177 11.459133 8.1028956 11.900391 8.0917969 z " />
</svg>
