<?xml version="1.0" encoding="UTF-8" standalone="no"?>
<svg
   width="24"
   height="24"
   viewBox="0 0 24 24"
   fill="none"
   stroke="currentColor"
   stroke-width="0.2"
   stroke-linecap="round"
   stroke-linejoin="round"
   version="1.1"
   id="svg6"
   sodipodi:docname=".tmp_recycle.svg"
   xmlns:inkscape="http://www.inkscape.org/namespaces/inkscape"
   xmlns:sodipodi="http://sodipodi.sourceforge.net/DTD/sodipodi-0.dtd"
   xmlns="http://www.w3.org/2000/svg"
   xmlns:svg="http://www.w3.org/2000/svg">
  <defs
     id="defs6" />
  <sodipodi:namedview
     id="namedview6"
     pagecolor="#ffffff"
     bordercolor="#000000"
     borderopacity="0.25"
     inkscape:showpageshadow="2"
     inkscape:pageopacity="0.0"
     inkscape:pagecheckerboard="0"
     inkscape:deskcolor="#d1d1d1" />
  <path
     id="path1"
     style="baseline-shift:baseline;display:inline;overflow:visible;vector-effect:none;fill:#000000;stroke:none;stroke-linecap:butt;stroke-linejoin:miter;enable-background:accumulate;stop-color:#000000;stop-opacity:1;opacity:1"
     d="M 11.982422 2.9003906 C 11.306099 2.9149446 10.686214 3.2823516 10.349609 3.8691406 L 9.2578125 5.7617188 A 0.1 0.1 0 0 0 9.2949219 5.8984375 A 0.1 0.1 0 0 0 9.4296875 5.8613281 L 10.523438 3.96875 C 10.825 3.4430462 11.37856 3.1132724 11.984375 3.0996094 C 12.585733 3.0984894 13.143285 3.4174882 13.445312 3.9375 L 17.267578 10.572266 L 13.404297 9.5371094 A 0.1 0.1 0 0 0 13.28125 9.6074219 A 0.1 0.1 0 0 0 13.351562 9.7304688 L 17.443359 10.826172 A 0.1 0.1 0 0 0 17.445312 10.828125 L 17.447266 10.828125 A 0.1 0.1 0 0 0 17.458984 10.830078 A 0.10001 0.10001 0 0 0 17.472656 10.832031 A 0.1 0.1 0 0 0 17.523438 10.818359 A 0.1 0.1 0 0 0 17.535156 10.810547 A 0.10001 0.10001 0 0 0 17.544922 10.802734 A 0.1 0.1 0 0 0 17.552734 10.792969 A 0.10001 0.10001 0 0 0 17.556641 10.787109 A 0.1 0.1 0 0 0 17.566406 10.769531 A 0.10001 0.10001 0 0 0 17.566406 10.767578 A 0.1 0.1 0 0 0 17.570312 10.757812 L 17.570312 10.753906 A 0.1 0.1 0 0 0 17.574219 10.742188 L 18.667969 6.6601562 A 0.1 0.1 0 0 0 18.597656 6.5390625 A 0.1 0.1 0 0 0 18.474609 6.609375 L 17.439453 10.470703 L 13.617188 3.8378906 C 13.279461 3.2564124 12.656814 2.8991373 11.984375 2.9003906 A 0.10001 0.10001 0 0 0 11.982422 2.9003906 z M 7.1835938 9.4003906 A 0.1 0.1 0 0 0 7.1582031 9.4082031 L 3.0742188 10.501953 A 0.1 0.1 0 0 0 3.0039062 10.623047 A 0.1 0.1 0 0 0 3.125 10.695312 L 6.9882812 9.6582031 L 3.1542969 16.285156 C 2.819366 16.868724 2.820655 17.587862 3.1582031 18.169922 A 0.10001 0.10001 0 0 0 3.1601562 18.169922 C 3.5109736 18.748353 4.1379535 19.101565 4.8144531 19.099609 L 7 19.099609 A 0.1 0.1 0 0 0 7.0996094 19 A 0.1 0.1 0 0 0 7 18.900391 L 4.8144531 18.900391 C 4.2087266 18.902142 3.6469211 18.585644 3.3320312 18.068359 C 3.0301487 17.547795 3.0285799 16.906679 3.328125 16.384766 L 7.1621094 9.7597656 L 8.1972656 13.621094 A 0.1 0.1 0 0 0 8.3183594 13.693359 A 0.1 0.1 0 0 0 8.3886719 13.570312 L 7.296875 9.4902344 A 0.1 0.1 0 0 0 7.2929688 9.4746094 A 0.10001 0.10001 0 0 0 7.2890625 9.4648438 A 0.1 0.1 0 0 0 7.2890625 9.4628906 A 0.10001 0.10001 0 0 0 7.2832031 9.453125 A 0.1 0.1 0 0 0 7.2832031 9.4511719 A 0.10001 0.10001 0 0 0 7.2773438 9.4414062 A 0.1 0.1 0 0 0 7.2753906 9.4394531 A 0.10001 0.10001 0 0 0 7.2578125 9.421875 A 0.1 0.1 0 0 0 7.2460938 9.4140625 A 0.10001 0.10001 0 0 0 7.2226562 9.4042969 A 0.1 0.1 0 0 0 7.1953125 9.4003906 A 0.1 0.1 0 0 0 7.1835938 9.4003906 z M 19.519531 14.115234 A 0.1 0.1 0 0 0 19.482422 14.128906 A 0.1 0.1 0 0 0 19.447266 14.265625 L 20.671875 16.384766 C 20.969511 16.903769 20.969511 17.541543 20.671875 18.060547 C 20.361518 18.57707 19.805837 18.895727 19.203125 18.900391 L 11.240234 18.900391 L 14.070312 16.070312 A 0.1 0.1 0 0 0 14.070312 15.929688 A 0.1 0.1 0 0 0 13.929688 15.929688 L 10.941406 18.919922 A 0.1 0.1 0 0 0 10.931641 18.927734 L 10.929688 18.929688 A 0.10001 0.10001 0 0 0 10.921875 18.939453 A 0.1 0.1 0 0 0 10.914062 18.951172 A 0.1 0.1 0 0 0 10.908203 18.962891 A 0.1 0.1 0 0 0 10.900391 19 A 0.1 0.1 0 0 0 10.908203 19.039062 A 0.1 0.1 0 0 0 10.914062 19.050781 A 0.1 0.1 0 0 0 10.921875 19.0625 A 0.1 0.1 0 0 0 10.931641 19.072266 A 0.1 0.1 0 0 0 10.941406 19.080078 L 13.929688 22.070312 A 0.1 0.1 0 0 0 14.070312 22.070312 A 0.1 0.1 0 0 0 14.070312 21.929688 L 11.240234 19.099609 L 19.203125 19.099609 C 19.876271 19.094409 20.499944 18.739693 20.845703 18.162109 A 0.10001 0.10001 0 0 0 20.845703 18.160156 C 21.178524 17.5798 21.178524 16.865512 20.845703 16.285156 L 19.619141 14.164062 A 0.1 0.1 0 0 0 19.519531 14.115234 z " />
</svg>
