<?xml version="1.0" encoding="UTF-8" standalone="no"?>
<svg
   width="24"
   height="24"
   viewBox="0 0 24 24"
   fill="none"
   stroke="currentColor"
   stroke-width="0.2"
   stroke-linecap="round"
   stroke-linejoin="round"
   version="1.1"
   id="svg3"
   sodipodi:docname=".tmp_refrigerator.svg"
   xmlns:inkscape="http://www.inkscape.org/namespaces/inkscape"
   xmlns:sodipodi="http://sodipodi.sourceforge.net/DTD/sodipodi-0.dtd"
   xmlns="http://www.w3.org/2000/svg"
   xmlns:svg="http://www.w3.org/2000/svg">
  <defs
     id="defs3" />
  <sodipodi:namedview
     id="namedview3"
     pagecolor="#ffffff"
     bordercolor="#000000"
     borderopacity="0.25"
     inkscape:showpageshadow="2"
     inkscape:pageopacity="0.0"
     inkscape:pagecheckerboard="0"
     inkscape:deskcolor="#d1d1d1" />
  <path
     id="path1"
     style="baseline-shift:baseline;display:inline;overflow:visible;vector-effect:none;fill:#000000;stroke:none;stroke-linecap:butt;stroke-linejoin:miter;enable-background:accumulate;stop-color:#000000;stop-opacity:1;opacity:1"
     d="M 9 1.9003906 C 6.736817 1.9003906 4.9003906 3.736817 4.9003906 6 L 4.9003906 9.9863281 A 0.1 0.1 0 0 0 4.9003906 10 A 0.1 0.1 0 0 0 4.9003906 10.013672 L 4.9003906 20 C 4.9003906 21.158614 5.8413865 22.099609 7 22.099609 L 17 22.099609 C 18.158614 22.099609 19.099609 21.158614 19.099609 20 L 19.099609 10.013672 A 0.1 0.1 0 0 0 19.099609 10 A 0.1 0.1 0 0 0 19.099609 9.9863281 L 19.099609 6 C 19.099609 3.736817 17.263183 1.9003906 15 1.9003906 L 9 1.9003906 z M 9 2.0996094 L 15 2.0996094 C 17.155095 2.0996094 18.900391 3.844905 18.900391 6 L 18.900391 9.9003906 L 15.099609 9.9003906 L 15.099609 7 A 0.1 0.1 0 0 0 15 6.9003906 A 0.1 0.1 0 0 0 14.900391 7 L 14.900391 9.9003906 L 5.0996094 9.9003906 L 5.0996094 6 C 5.0996094 3.844905 6.844905 2.0996094 9 2.0996094 z M 5.0996094 10.099609 L 14.900391 10.099609 L 14.900391 13 A 0.1 0.1 0 0 0 15 13.099609 A 0.1 0.1 0 0 0 15.099609 13 L 15.099609 10.099609 L 18.900391 10.099609 L 18.900391 20 C 18.900391 21.050525 18.050525 21.900391 17 21.900391 L 7 21.900391 C 5.9494745 21.900391 5.0996094 21.050525 5.0996094 20 L 5.0996094 10.099609 z " />
</svg>
