<?xml version="1.0" encoding="UTF-8" standalone="no"?>
<svg
   width="24"
   height="24"
   viewBox="0 0 24 24"
   fill="none"
   stroke="currentColor"
   stroke-width="0.2"
   stroke-linecap="round"
   stroke-linejoin="round"
   version="1.1"
   id="svg4"
   sodipodi:docname=".tmp_refresh-ccw.svg"
   xmlns:inkscape="http://www.inkscape.org/namespaces/inkscape"
   xmlns:sodipodi="http://sodipodi.sourceforge.net/DTD/sodipodi-0.dtd"
   xmlns="http://www.w3.org/2000/svg"
   xmlns:svg="http://www.w3.org/2000/svg">
  <defs
     id="defs4" />
  <sodipodi:namedview
     id="namedview4"
     pagecolor="#ffffff"
     bordercolor="#000000"
     borderopacity="0.25"
     inkscape:showpageshadow="2"
     inkscape:pageopacity="0.0"
     inkscape:pagecheckerboard="0"
     inkscape:deskcolor="#d1d1d1" />
  <path
     id="path1"
     style="baseline-shift:baseline;display:inline;overflow:visible;vector-effect:none;fill:#000000;stroke:none;stroke-linecap:butt;stroke-linejoin:miter;enable-background:accumulate;stop-color:#000000;stop-opacity:1;opacity:1"
     d="M 2.9863281 2.9003906 A 0.1 0.1 0 0 0 2.9003906 3 L 2.9003906 8 A 0.10001 0.10001 0 0 0 2.9042969 8.0253906 A 0.1 0.1 0 0 0 2.9296875 8.0703125 A 0.1 0.1 0 0 0 2.9746094 8.0957031 A 0.10001 0.10001 0 0 0 3 8.0996094 L 8 8.0996094 A 0.1 0.1 0 0 0 8.0996094 8 A 0.1 0.1 0 0 0 8 7.9003906 L 3.2402344 7.9003906 L 5.3300781 5.8125 C 7.1205178 4.0816365 9.5097239 3.1089775 12 3.0996094 C 16.916519 3.0996094 20.900391 7.0834813 20.900391 12 A 0.1 0.1 0 0 0 21 12.099609 A 0.1 0.1 0 0 0 21.099609 12 C 21.099609 6.9753932 17.024607 2.9003906 12 2.9003906 C 9.4581799 2.9099527 7.0189046 3.9012797 5.1914062 5.6679688 A 0.10001 0.10001 0 0 0 5.1894531 5.6699219 L 3.0996094 7.7597656 L 3.0996094 3 A 0.1 0.1 0 0 0 3 2.9003906 A 0.1 0.1 0 0 0 2.9863281 2.9003906 z M 2.9863281 11.900391 A 0.1 0.1 0 0 0 2.9003906 12 C 2.9003906 17.024607 6.9753932 21.099609 12 21.099609 C 14.54182 21.090009 16.981095 20.09872 18.808594 18.332031 A 0.10001 0.10001 0 0 0 18.810547 18.330078 L 20.900391 16.240234 L 20.900391 21 A 0.1 0.1 0 0 0 21 21.099609 A 0.1 0.1 0 0 0 21.099609 21 L 21.099609 16 A 0.10001 0.10001 0 0 0 21.095703 15.974609 A 0.1 0.1 0 0 0 21.070312 15.929688 A 0.1 0.1 0 0 0 21.025391 15.904297 A 0.10001 0.10001 0 0 0 21 15.900391 L 16 15.900391 A 0.1 0.1 0 0 0 15.900391 16 A 0.1 0.1 0 0 0 16 16.099609 L 20.759766 16.099609 L 18.669922 18.1875 C 16.879482 19.918363 14.490276 20.891022 12 20.900391 C 7.0834813 20.900391 3.0996094 16.916519 3.0996094 12 A 0.1 0.1 0 0 0 3 11.900391 A 0.1 0.1 0 0 0 2.9863281 11.900391 z " />
</svg>
