<?xml version="1.0" encoding="UTF-8" standalone="no"?>
<svg
   width="24"
   height="24"
   viewBox="0 0 24 24"
   fill="none"
   stroke="currentColor"
   stroke-width="0.2"
   stroke-linecap="round"
   stroke-linejoin="round"
   version="1.1"
   id="svg5"
   sodipodi:docname=".tmp_remove-formatting.svg"
   xmlns:inkscape="http://www.inkscape.org/namespaces/inkscape"
   xmlns:sodipodi="http://sodipodi.sourceforge.net/DTD/sodipodi-0.dtd"
   xmlns="http://www.w3.org/2000/svg"
   xmlns:svg="http://www.w3.org/2000/svg">
  <defs
     id="defs5" />
  <sodipodi:namedview
     id="namedview5"
     pagecolor="#ffffff"
     bordercolor="#000000"
     borderopacity="0.25"
     inkscape:showpageshadow="2"
     inkscape:pageopacity="0.0"
     inkscape:pagecheckerboard="0"
     inkscape:deskcolor="#d1d1d1" />
  <path
     id="path1"
     style="baseline-shift:baseline;display:inline;overflow:visible;vector-effect:none;fill:#000000;stroke:none;stroke-linecap:butt;stroke-linejoin:miter;enable-background:accumulate;stop-color:#000000;stop-opacity:1;opacity:1"
     d="M 3.9863281 3.9003906 A 0.10001 0.10001 0 0 0 3.9003906 4 L 3.9003906 7 A 0.1 0.1 0 0 0 4 7.0996094 A 0.1 0.1 0 0 0 4.0996094 7 L 4.0996094 4.0996094 L 12.863281 4.0996094 L 7.9257812 19.900391 L 5 19.900391 A 0.1 0.1 0 0 0 4.9003906 20 A 0.1 0.1 0 0 0 5 20.099609 L 11 20.099609 A 0.1 0.1 0 0 0 11.099609 20 A 0.1 0.1 0 0 0 11 19.900391 L 8.1367188 19.900391 L 13.074219 4.0996094 L 19.900391 4.0996094 L 19.900391 7 A 0.1 0.1 0 0 0 20 7.0996094 A 0.1 0.1 0 0 0 20.099609 7 L 20.099609 4 A 0.10001 0.10001 0 0 0 20 3.9003906 L 4 3.9003906 A 0.10001 0.10001 0 0 0 3.9863281 3.9003906 z M 15 14.900391 A 0.1 0.1 0 0 0 14.929688 14.929688 A 0.1 0.1 0 0 0 14.929688 15.070312 L 17.359375 17.5 L 14.929688 19.929688 A 0.1 0.1 0 0 0 14.929688 20.070312 A 0.1 0.1 0 0 0 15.070312 20.070312 L 17.5 17.640625 L 19.929688 20.070312 A 0.1 0.1 0 0 0 20.070312 20.070312 A 0.1 0.1 0 0 0 20.070312 19.929688 L 17.640625 17.5 L 20.070312 15.070312 A 0.1 0.1 0 0 0 20.070312 14.929688 A 0.1 0.1 0 0 0 19.929688 14.929688 L 17.5 17.359375 L 15.070312 14.929688 A 0.1 0.1 0 0 0 15 14.900391 z " />
</svg>
