<?xml version="1.0" encoding="UTF-8" standalone="no"?>
<svg
   width="24"
   height="24"
   viewBox="0 0 24 24"
   fill="none"
   stroke="currentColor"
   stroke-width="0.2"
   stroke-linecap="round"
   stroke-linejoin="round"
   version="1.1"
   id="svg4"
   sodipodi:docname=".tmp_repeat-2.svg"
   xmlns:inkscape="http://www.inkscape.org/namespaces/inkscape"
   xmlns:sodipodi="http://sodipodi.sourceforge.net/DTD/sodipodi-0.dtd"
   xmlns="http://www.w3.org/2000/svg"
   xmlns:svg="http://www.w3.org/2000/svg">
  <defs
     id="defs4" />
  <sodipodi:namedview
     id="namedview4"
     pagecolor="#ffffff"
     bordercolor="#000000"
     borderopacity="0.25"
     inkscape:showpageshadow="2"
     inkscape:pageopacity="0.0"
     inkscape:pagecheckerboard="0"
     inkscape:deskcolor="#d1d1d1" />
  <path
     id="path1"
     style="baseline-shift:baseline;display:inline;overflow:visible;vector-effect:none;fill:#000000;stroke:none;stroke-linecap:butt;stroke-linejoin:miter;enable-background:accumulate;stop-color:#000000;stop-opacity:1;opacity:1"
     d="M 4.9863281 5.9003906 A 0.1 0.1 0 0 0 4.9609375 5.9082031 A 0.1 0.1 0 0 0 4.9492188 5.9140625 A 0.1 0.1 0 0 0 4.9375 5.921875 A 0.10001 0.10001 0 0 0 4.9296875 5.9296875 A 0.1 0.1 0 0 0 4.9277344 5.9316406 A 0.1 0.1 0 0 0 4.9199219 5.9414062 L 1.9296875 8.9296875 A 0.1 0.1 0 0 0 1.9296875 9.0703125 A 0.1 0.1 0 0 0 2.0703125 9.0703125 L 4.9003906 6.2402344 L 4.9003906 16 C 4.9003906 17.158614 5.8413865 18.099609 7 18.099609 L 13 18.099609 A 0.1 0.1 0 0 0 13.099609 18 A 0.1 0.1 0 0 0 13 17.900391 L 7 17.900391 C 5.9494745 17.900391 5.0996094 17.050525 5.0996094 16 L 5.0996094 6.2402344 L 7.9296875 9.0703125 A 0.1 0.1 0 0 0 8.0703125 9.0703125 A 0.1 0.1 0 0 0 8.0703125 8.9296875 L 5.0800781 5.9414062 A 0.1 0.1 0 0 0 5.0722656 5.9316406 L 5.0703125 5.9296875 A 0.10001 0.10001 0 0 0 5.0625 5.921875 A 0.1 0.1 0 0 0 5.0605469 5.921875 A 0.10001 0.10001 0 0 0 5.0507812 5.9140625 A 0.1 0.1 0 0 0 5.0488281 5.9140625 A 0.10001 0.10001 0 0 0 5.0390625 5.9082031 A 0.1 0.1 0 0 0 5.0371094 5.9082031 A 0.10001 0.10001 0 0 0 5.0253906 5.9042969 A 0.1 0.1 0 0 0 5 5.9003906 A 0.1 0.1 0 0 0 4.9863281 5.9003906 z M 10.986328 5.9003906 A 0.1 0.1 0 0 0 10.900391 6 A 0.1 0.1 0 0 0 11 6.0996094 L 17 6.0996094 C 18.050525 6.0996094 18.900391 6.9494745 18.900391 8 L 18.900391 17.759766 L 16.070312 14.929688 A 0.1 0.1 0 0 0 15.929688 14.929688 A 0.1 0.1 0 0 0 15.929688 15.070312 L 18.919922 18.058594 A 0.1 0.1 0 0 0 18.927734 18.068359 L 18.929688 18.070312 A 0.10001 0.10001 0 0 0 18.939453 18.078125 A 0.1 0.1 0 0 0 18.949219 18.085938 A 0.10001 0.10001 0 0 0 18.951172 18.085938 A 0.1 0.1 0 0 0 18.960938 18.091797 A 0.10001 0.10001 0 0 0 18.962891 18.091797 A 0.1 0.1 0 0 0 18.974609 18.095703 A 0.1 0.1 0 0 0 19 18.099609 A 0.1 0.1 0 0 0 19.025391 18.095703 A 0.10001 0.10001 0 0 0 19.070312 18.070312 A 0.1 0.1 0 0 0 19.080078 18.058594 L 22.070312 15.070312 A 0.1 0.1 0 0 0 22.070312 14.929688 A 0.1 0.1 0 0 0 21.929688 14.929688 L 19.099609 17.759766 L 19.099609 8 C 19.099609 6.8413865 18.158614 5.9003906 17 5.9003906 L 11 5.9003906 A 0.1 0.1 0 0 0 10.986328 5.9003906 z " />
</svg>
