<?xml version="1.0" encoding="UTF-8" standalone="no"?>
<svg
   width="24"
   height="24"
   viewBox="0 0 24 24"
   fill="none"
   stroke="currentColor"
   stroke-width="0.2"
   stroke-linecap="round"
   stroke-linejoin="round"
   version="1.1"
   id="svg5"
   sodipodi:docname=".tmp_repeat-1.svg"
   xmlns:inkscape="http://www.inkscape.org/namespaces/inkscape"
   xmlns:sodipodi="http://sodipodi.sourceforge.net/DTD/sodipodi-0.dtd"
   xmlns="http://www.w3.org/2000/svg"
   xmlns:svg="http://www.w3.org/2000/svg">
  <defs
     id="defs5" />
  <sodipodi:namedview
     id="namedview5"
     pagecolor="#ffffff"
     bordercolor="#000000"
     borderopacity="0.25"
     inkscape:showpageshadow="2"
     inkscape:pageopacity="0.0"
     inkscape:pagecheckerboard="0"
     inkscape:deskcolor="#d1d1d1" />
  <path
     id="path1"
     style="baseline-shift:baseline;display:inline;overflow:visible;vector-effect:none;fill:#000000;stroke:none;stroke-linecap:butt;stroke-linejoin:miter;enable-background:accumulate;stop-color:#000000;stop-opacity:1;opacity:1"
     d="M 17 1.9003906 A 0.1 0.1 0 0 0 16.929688 1.9296875 A 0.1 0.1 0 0 0 16.929688 2.0703125 L 20.759766 5.9003906 L 7 5.9003906 C 4.736817 5.9003906 2.9003906 7.736817 2.9003906 10 L 2.9003906 11 A 0.1 0.1 0 0 0 3 11.099609 A 0.1 0.1 0 0 0 3.0996094 11 L 3.0996094 10 C 3.0996094 7.844905 4.844905 6.0996094 7 6.0996094 L 20.759766 6.0996094 L 16.929688 9.9296875 A 0.1 0.1 0 0 0 16.929688 10.070312 A 0.1 0.1 0 0 0 17.070312 10.070312 L 21.058594 6.0800781 A 0.1 0.1 0 0 0 21.070312 6.0703125 A 0.10001 0.10001 0 0 0 21.078125 6.0625 A 0.1 0.1 0 0 0 21.078125 6.0605469 A 0.10001 0.10001 0 0 0 21.085938 6.0507812 A 0.1 0.1 0 0 0 21.085938 6.0488281 A 0.10001 0.10001 0 0 0 21.091797 6.0390625 A 0.1 0.1 0 0 0 21.091797 6.0371094 A 0.10001 0.10001 0 0 0 21.095703 6.0253906 A 0.1 0.1 0 0 0 21.099609 6 A 0.1 0.1 0 0 0 21.095703 5.9746094 A 0.10001 0.10001 0 0 0 21.091797 5.9609375 A 0.1 0.1 0 0 0 21.085938 5.9511719 A 0.10001 0.10001 0 0 0 21.085938 5.9492188 A 0.1 0.1 0 0 0 21.078125 5.9394531 A 0.10001 0.10001 0 0 0 21.078125 5.9375 A 0.1 0.1 0 0 0 21.070312 5.9296875 L 21.068359 5.9277344 A 0.1 0.1 0 0 0 21.058594 5.9199219 L 17.070312 1.9296875 A 0.1 0.1 0 0 0 17 1.9003906 z M 10.986328 9.9003906 A 0.1 0.1 0 0 0 10.900391 10 A 0.1 0.1 0 0 0 11 10.099609 L 11.900391 10.099609 L 11.900391 14 A 0.1 0.1 0 0 0 12 14.099609 A 0.1 0.1 0 0 0 12.099609 14 L 12.099609 10 A 0.10001 0.10001 0 0 0 12 9.9003906 L 11 9.9003906 A 0.1 0.1 0 0 0 10.986328 9.9003906 z M 20.986328 12.900391 A 0.1 0.1 0 0 0 20.900391 13 L 20.900391 14 C 20.900391 16.155095 19.155095 17.900391 17 17.900391 L 3.2402344 17.900391 L 7.0703125 14.070312 A 0.1 0.1 0 0 0 7.0703125 13.929688 A 0.1 0.1 0 0 0 6.9296875 13.929688 L 2.9414062 17.919922 A 0.1 0.1 0 0 0 2.9316406 17.927734 L 2.9296875 17.929688 A 0.10001 0.10001 0 0 0 2.921875 17.939453 A 0.1 0.1 0 0 0 2.9140625 17.949219 A 0.10001 0.10001 0 0 0 2.9140625 17.951172 A 0.1 0.1 0 0 0 2.9082031 17.960938 A 0.10001 0.10001 0 0 0 2.9082031 17.962891 A 0.10001 0.10001 0 0 0 2.9042969 17.974609 A 0.1 0.1 0 0 0 2.9003906 18 A 0.1 0.1 0 0 0 2.9042969 18.025391 A 0.10001 0.10001 0 0 0 2.9082031 18.037109 A 0.1 0.1 0 0 0 2.9082031 18.039062 A 0.10001 0.10001 0 0 0 2.9140625 18.048828 A 0.1 0.1 0 0 0 2.9140625 18.050781 A 0.10001 0.10001 0 0 0 2.921875 18.060547 A 0.1 0.1 0 0 0 2.921875 18.0625 A 0.10001 0.10001 0 0 0 2.9296875 18.070312 A 0.1 0.1 0 0 0 2.9316406 18.072266 A 0.1 0.1 0 0 0 2.9414062 18.080078 L 6.9296875 22.070312 A 0.1 0.1 0 0 0 7.0703125 22.070312 A 0.1 0.1 0 0 0 7.0703125 21.929688 L 3.2402344 18.099609 L 17 18.099609 C 19.263183 18.099609 21.099609 16.263183 21.099609 14 L 21.099609 13 A 0.1 0.1 0 0 0 21 12.900391 A 0.1 0.1 0 0 0 20.986328 12.900391 z " />
</svg>
