<?xml version="1.0" encoding="UTF-8" standalone="no"?>
<svg
   width="24"
   height="24"
   viewBox="0 0 24 24"
   fill="none"
   stroke="currentColor"
   stroke-width="0.2"
   stroke-linecap="round"
   stroke-linejoin="round"
   version="1.1"
   id="svg5"
   sodipodi:docname=".tmp_ribbon.svg"
   xmlns:inkscape="http://www.inkscape.org/namespaces/inkscape"
   xmlns:sodipodi="http://sodipodi.sourceforge.net/DTD/sodipodi-0.dtd"
   xmlns="http://www.w3.org/2000/svg"
   xmlns:svg="http://www.w3.org/2000/svg">
  <defs
     id="defs5" />
  <sodipodi:namedview
     id="namedview5"
     pagecolor="#ffffff"
     bordercolor="#000000"
     borderopacity="0.25"
     inkscape:showpageshadow="2"
     inkscape:pageopacity="0.0"
     inkscape:pagecheckerboard="0"
     inkscape:deskcolor="#d1d1d1" />
  <path
     id="path1"
     style="baseline-shift:baseline;display:inline;overflow:visible;vector-effect:none;fill:#000000;stroke:none;stroke-linecap:butt;stroke-linejoin:miter;enable-background:accumulate;stop-color:#000000;stop-opacity:1;opacity:1"
     d="M 12 1.9003906 C 10.481481 1.9003906 8.9627586 2.3207724 7.8164062 3.1699219 C 6.6700541 4.0190713 5.9003906 5.303334 5.9003906 7 C 5.9003906 7.7299472 5.9878939 8.3984274 6.1425781 9.0234375 A 0.1 0.1 0 0 0 6.1445312 9.0351562 A 0.1 0.1 0 0 0 6.1503906 9.0546875 C 6.684546 11.178591 7.9891737 12.790265 9.2265625 14.527344 L 5.7832031 18.970703 C 5.4034447 19.460597 5.5061457 20.169138 6.0078125 20.533203 L 7.8730469 21.886719 C 8.3599145 22.239997 9.0416501 22.135201 9.4003906 21.652344 L 12 18.167969 L 14.564453 21.662109 A 0.10001 0.10001 0 0 0 14.566406 21.662109 C 14.924053 22.141601 15.601635 22.246833 16.087891 21.898438 L 17.982422 20.539062 C 18.489853 20.174618 18.591033 19.456113 18.205078 18.964844 L 14.693359 14.496094 C 15.953849 12.773452 17.292105 11.171721 17.841797 9.0507812 A 0.1 0.1 0 0 0 17.845703 9.0371094 A 0.1 0.1 0 0 0 17.849609 9.0136719 C 18.007508 8.3924394 18.098482 7.7261905 18.099609 7 C 18.099609 5.303334 17.329946 4.0190713 16.183594 3.1699219 C 15.037241 2.3207724 13.518519 1.9003906 12 1.9003906 z M 12 2.0996094 C 13.481481 2.0996094 14.962759 2.5125616 16.066406 3.3300781 C 17.170054 4.1475946 17.900391 5.3633341 17.900391 7 C 17.899415 7.6337796 17.829991 8.2207887 17.705078 8.7714844 C 16.290381 6.8573742 14.142889 5.9004545 11.998047 5.9003906 C 11.996745 5.9003909 11.995442 5.9003896 11.994141 5.9003906 C 9.8483049 5.902069 7.7021214 6.8609557 6.2890625 8.7773438 C 6.1672008 8.2241843 6.0996094 7.6360114 6.0996094 7 C 6.0996094 5.3633341 6.8299461 4.1475946 7.9335938 3.3300781 C 9.0372416 2.5125616 10.518519 2.0996094 12 2.0996094 z M 12 6.0996094 C 12.035692 6.0996094 12.071795 6.1017359 12.107422 6.1035156 C 12.151871 6.1042061 12.195803 6.1136961 12.240234 6.1152344 C 12.634489 6.1597723 13.01378 6.3121625 13.308594 6.5742188 C 13.662976 6.8892248 13.900391 7.3583336 13.900391 8 C 13.900391 8.4667333 13.663762 8.9502609 13.292969 9.4707031 C 12.944602 9.959668 12.471961 10.486949 11.996094 11.054688 C 11.525061 10.484318 11.054703 9.9574604 10.707031 9.46875 C 10.337151 8.9488212 10.099609 8.4666667 10.099609 8 C 10.099609 7.3583336 10.337024 6.8892248 10.691406 6.5742188 C 10.98622 6.3121625 11.365511 6.1597723 11.759766 6.1152344 C 11.804196 6.1137074 11.848129 6.1041949 11.892578 6.1035156 C 11.928205 6.1017359 11.964308 6.0996094 12 6.0996094 z M 10.896484 6.1835938 C 10.776375 6.2517761 10.663202 6.3327958 10.558594 6.4257812 C 10.162976 6.7774418 9.9003906 7.3083336 9.9003906 8 C 9.9003906 8.5333333 10.162849 9.0496631 10.542969 9.5839844 C 10.910203 10.100195 11.389854 10.635652 11.871094 11.220703 L 9.3535156 14.363281 C 8.1281076 12.64666 6.8736828 11.081995 6.3515625 9.0371094 C 7.4880119 7.4153594 9.1466043 6.4634461 10.896484 6.1835938 z M 13.103516 6.1835938 C 14.849131 6.4632175 16.505991 7.4119145 17.642578 9.0273438 C 17.094815 11.114399 15.762558 12.69429 14.488281 14.441406 A 0.10001 0.10001 0 0 0 14.484375 14.447266 A 0.10001 0.10001 0 0 0 14.480469 14.455078 L 11.929688 17.929688 L 11.925781 17.933594 A 0.10001 0.10001 0 0 0 11.919922 17.939453 L 11.919922 17.941406 L 9.2402344 21.533203 C 8.9454796 21.929937 8.3902632 22.014876 7.9902344 21.724609 L 6.125 20.371094 C 5.7126234 20.071828 5.6292399 19.494496 5.9414062 19.091797 L 9.4296875 14.591797 A 0.10001 0.10001 0 0 0 9.4335938 14.585938 A 0.10001 0.10001 0 0 0 9.4375 14.578125 L 12.078125 11.283203 A 0.1 0.1 0 0 0 12.095703 11.248047 C 12.589763 10.655086 13.081402 10.110426 13.455078 9.5859375 C 13.836285 9.0508798 14.099609 8.5332667 14.099609 8 C 14.099609 7.3083336 13.837024 6.7774417 13.441406 6.4257812 C 13.336943 6.3329249 13.223441 6.2517158 13.103516 6.1835938 z M 14.572266 14.664062 L 18.048828 19.087891 C 18.366129 19.491772 18.282402 20.075383 17.865234 20.375 L 15.970703 21.736328 C 15.571341 22.021127 15.019985 21.936357 14.726562 21.542969 L 12.123047 18 L 14.572266 14.664062 z " />
</svg>
