<?xml version="1.0" encoding="UTF-8" standalone="no"?>
<svg
   width="24"
   height="24"
   viewBox="0 0 24 24"
   fill="none"
   stroke="currentColor"
   stroke-width="0.2"
   stroke-linecap="round"
   stroke-linejoin="round"
   version="1.1"
   id="svg3"
   sodipodi:docname=".tmp_rotate-ccw-square.svg"
   xmlns:inkscape="http://www.inkscape.org/namespaces/inkscape"
   xmlns:sodipodi="http://sodipodi.sourceforge.net/DTD/sodipodi-0.dtd"
   xmlns="http://www.w3.org/2000/svg"
   xmlns:svg="http://www.w3.org/2000/svg">
  <defs
     id="defs3" />
  <sodipodi:namedview
     id="namedview3"
     pagecolor="#ffffff"
     bordercolor="#000000"
     borderopacity="0.25"
     inkscape:showpageshadow="2"
     inkscape:pageopacity="0.0"
     inkscape:pagecheckerboard="0"
     inkscape:deskcolor="#d1d1d1" />
  <path
     id="path1"
     style="baseline-shift:baseline;display:inline;overflow:visible;vector-effect:none;fill:#000000;stroke:none;stroke-linecap:butt;stroke-linejoin:miter;enable-background:accumulate;stop-color:#000000;stop-opacity:1;opacity:1"
     d="M 15 1.9003906 A 0.1 0.1 0 0 0 14.929688 1.9296875 L 11.941406 4.9199219 A 0.1 0.1 0 0 0 11.931641 4.9277344 L 11.929688 4.9296875 A 0.1 0.1 0 0 0 11.921875 4.9375 A 0.10001 0.10001 0 0 0 11.921875 4.9394531 A 0.1 0.1 0 0 0 11.914062 4.9492188 A 0.10001 0.10001 0 0 0 11.914062 4.9511719 A 0.1 0.1 0 0 0 11.908203 4.9609375 A 0.10001 0.10001 0 0 0 11.908203 4.9628906 A 0.1 0.1 0 0 0 11.900391 5 A 0.1 0.1 0 0 0 11.904297 5.0253906 A 0.10001 0.10001 0 0 0 11.908203 5.0371094 A 0.1 0.1 0 0 0 11.908203 5.0390625 A 0.10001 0.10001 0 0 0 11.914062 5.0488281 A 0.1 0.1 0 0 0 11.914062 5.0507812 A 0.10001 0.10001 0 0 0 11.921875 5.0605469 A 0.1 0.1 0 0 0 11.921875 5.0625 A 0.10001 0.10001 0 0 0 11.929688 5.0703125 A 0.1 0.1 0 0 0 11.931641 5.0722656 A 0.1 0.1 0 0 0 11.941406 5.0800781 L 14.929688 8.0703125 A 0.1 0.1 0 0 0 15.070312 8.0703125 A 0.1 0.1 0 0 0 15.070312 7.9296875 L 12.240234 5.0996094 L 18 5.0996094 C 19.050525 5.0996094 19.900391 5.9494745 19.900391 7 L 19.900391 9 A 0.1 0.1 0 0 0 20 9.0996094 A 0.1 0.1 0 0 0 20.099609 9 L 20.099609 7 C 20.099609 5.8413865 19.158614 4.9003906 18 4.9003906 L 12.240234 4.9003906 L 15.070312 2.0703125 A 0.1 0.1 0 0 0 15.070312 1.9296875 A 0.1 0.1 0 0 0 15 1.9003906 z M 6 4.9003906 C 4.8413865 4.9003906 3.9003906 5.8413865 3.9003906 7 L 3.9003906 18 C 3.9003906 19.158614 4.8413865 20.099609 6 20.099609 L 18 20.099609 C 19.158614 20.099609 20.099609 19.158614 20.099609 18 L 20.099609 13 A 0.1 0.1 0 0 0 20 12.900391 A 0.1 0.1 0 0 0 19.900391 13 L 19.900391 18 C 19.900391 19.050525 19.050525 19.900391 18 19.900391 L 6 19.900391 C 4.9494745 19.900391 4.0996094 19.050525 4.0996094 18 L 4.0996094 7 C 4.0996094 5.9494745 4.9494745 5.0996094 6 5.0996094 L 8 5.0996094 A 0.1 0.1 0 0 0 8.0996094 5 A 0.1 0.1 0 0 0 8 4.9003906 L 6 4.9003906 z " />
</svg>
