<?xml version="1.0" encoding="UTF-8" standalone="no"?>
<svg
   width="24"
   height="24"
   viewBox="0 0 24 24"
   fill="none"
   stroke="currentColor"
   stroke-width="0.2"
   stroke-linecap="round"
   stroke-linejoin="round"
   version="1.1"
   id="svg5"
   sodipodi:docname=".tmp_ruler.svg"
   xmlns:inkscape="http://www.inkscape.org/namespaces/inkscape"
   xmlns:sodipodi="http://sodipodi.sourceforge.net/DTD/sodipodi-0.dtd"
   xmlns="http://www.w3.org/2000/svg"
   xmlns:svg="http://www.w3.org/2000/svg">
  <defs
     id="defs5" />
  <sodipodi:namedview
     id="namedview5"
     pagecolor="#ffffff"
     bordercolor="#000000"
     borderopacity="0.25"
     inkscape:showpageshadow="2"
     inkscape:pageopacity="0.0"
     inkscape:pagecheckerboard="0"
     inkscape:deskcolor="#d1d1d1" />
  <path
     id="path1"
     style="baseline-shift:baseline;display:inline;overflow:visible;vector-effect:none;fill:#000000;stroke:none;stroke-linecap:butt;stroke-linejoin:miter;enable-background:accumulate;stop-color:#000000;stop-opacity:1;opacity:1"
     d="M 7 1.8984375 C 6.3593297 1.8984375 5.7177144 2.1420685 5.2285156 2.6289062 L 2.6289062 5.2285156 C 1.6552309 6.2069132 1.6552309 7.7930868 2.6289062 8.7714844 L 15.228516 21.371094 C 16.204678 22.350652 17.795322 22.350652 18.771484 21.371094 L 21.371094 18.771484 C 22.350652 17.795322 22.350652 16.204678 21.371094 15.228516 L 19.570312 13.429688 L 8.7714844 2.6289062 C 8.2822856 2.1420685 7.6406703 1.8984375 7 1.8984375 z M 7 2.0976562 C 7.5892239 2.0976562 8.1778934 2.3226483 8.6289062 2.7714844 L 10.359375 4.5 L 8.4296875 6.4296875 A 0.1 0.1 0 0 0 8.4296875 6.5703125 A 0.1 0.1 0 0 0 8.5703125 6.5703125 L 10.5 4.640625 L 13.359375 7.5 L 11.429688 9.4296875 A 0.1 0.1 0 0 0 11.429688 9.5703125 A 0.1 0.1 0 0 0 11.570312 9.5703125 L 13.5 7.640625 L 16.359375 10.5 L 14.429688 12.429688 A 0.1 0.1 0 0 0 14.429688 12.570312 A 0.1 0.1 0 0 0 14.570312 12.570312 L 16.5 10.640625 L 19.359375 13.5 L 17.429688 15.429688 A 0.1 0.1 0 0 0 17.429688 15.570312 A 0.1 0.1 0 0 0 17.570312 15.570312 L 19.5 13.640625 L 21.228516 15.371094 C 22.131338 16.270786 22.131338 17.729214 21.228516 18.628906 L 18.628906 21.228516 C 17.729214 22.131338 16.270786 22.131338 15.371094 21.228516 L 2.7714844 8.6289062 C 1.8738123 7.7268805 1.8738123 6.2731195 2.7714844 5.3710938 L 5.3710938 2.7714844 C 5.8221066 2.3226483 6.4107761 2.0976563 7 2.0976562 z " />
</svg>
