<?xml version="1.0" encoding="UTF-8" standalone="no"?>
<svg
   width="24"
   height="24"
   viewBox="0 0 24 24"
   fill="none"
   stroke="currentColor"
   stroke-width="0.2"
   stroke-linecap="round"
   stroke-linejoin="round"
   version="1.1"
   id="svg4"
   sodipodi:docname=".tmp_sandwich.svg"
   xmlns:inkscape="http://www.inkscape.org/namespaces/inkscape"
   xmlns:sodipodi="http://sodipodi.sourceforge.net/DTD/sodipodi-0.dtd"
   xmlns="http://www.w3.org/2000/svg"
   xmlns:svg="http://www.w3.org/2000/svg">
  <defs
     id="defs4" />
  <sodipodi:namedview
     id="namedview4"
     pagecolor="#ffffff"
     bordercolor="#000000"
     borderopacity="0.25"
     inkscape:showpageshadow="2"
     inkscape:pageopacity="0.0"
     inkscape:pagecheckerboard="0"
     inkscape:deskcolor="#d1d1d1" />
  <path
     id="path1"
     style="baseline-shift:baseline;display:inline;overflow:visible;vector-effect:none;fill:#000000;stroke:none;stroke-linecap:butt;stroke-linejoin:miter;enable-background:accumulate;stop-color:#000000;stop-opacity:1;opacity:1"
     d="M 12 3.9003906 C 11.532016 3.9003906 11.064618 4.0576919 10.679688 4.3691406 L 2.3066406 11.144531 A 0.1 0.1 0 0 0 2.2949219 11.15625 C 2.0537013 11.357897 1.9003906 11.660726 1.9003906 12 L 1.9003906 14 C 1.9003906 14.444291 2.1640602 14.826477 2.5429688 15 C 2.1645089 15.173961 1.9003906 15.556915 1.9003906 16 L 1.9003906 18 C 1.9003906 18.606329 2.3936712 19.099609 3 19.099609 L 11.966797 19.099609 L 12.740234 19.679688 C 13.667125 20.374856 14.984519 20.186656 15.679688 19.259766 L 15.800781 19.099609 L 21 19.099609 C 21.606329 19.099609 22.099609 18.606329 22.099609 18 L 22.099609 16 C 22.099609 15.556915 21.835491 15.173961 21.457031 15 C 21.83594 14.826477 22.099609 14.444291 22.099609 14 L 22.099609 12 C 22.099609 11.661312 21.945578 11.359852 21.705078 11.158203 A 0.1 0.1 0 0 0 21.691406 11.144531 L 13.320312 4.3691406 C 12.93538 4.0576919 12.467984 3.9003906 12 3.9003906 z M 12 4.0996094 C 12.423304 4.0996094 12.846608 4.2413004 13.195312 4.5234375 L 21.074219 10.902344 C 21.049448 10.900679 21.025195 10.900391 21 10.900391 L 3 10.900391 C 2.974807 10.900391 2.9505496 10.900679 2.9257812 10.902344 L 10.804688 4.5234375 C 11.153391 4.2413004 11.576696 4.0996094 12 4.0996094 z M 3 11.099609 L 21 11.099609 C 21.191565 11.099609 21.368331 11.159298 21.513672 11.259766 L 21.519531 11.261719 L 21.566406 11.300781 A 0.1 0.1 0 0 0 21.582031 11.310547 C 21.776953 11.475208 21.900391 11.72255 21.900391 12 L 21.900391 14 C 21.900391 14.50033 21.50033 14.900391 21 14.900391 L 20.986328 14.900391 L 18.763672 14.900391 L 18.736328 14.900391 L 6.6835938 14.900391 L 6.65625 14.900391 L 3.0136719 14.900391 A 0.1 0.1 0 0 0 3 14.900391 C 2.4996703 14.900391 2.0996094 14.50033 2.0996094 14 L 2.0996094 12 C 2.0996094 11.722557 2.2230554 11.475208 2.4179688 11.310547 A 0.1 0.1 0 0 0 2.4335938 11.300781 L 2.4804688 11.261719 C 2.482098 11.260577 2.4846909 11.260897 2.4863281 11.259766 C 2.6316608 11.159316 2.808453 11.099609 3 11.099609 z M 3 15.099609 A 0.1 0.1 0 0 0 3.0136719 15.099609 L 6.6347656 15.099609 L 11.701172 18.900391 L 3 18.900391 C 2.5017593 18.900391 2.0996094 18.498241 2.0996094 18 L 2.0996094 16 C 2.0996094 15.501759 2.5017593 15.099609 3 15.099609 z M 6.9707031 15.099609 L 18.550781 15.099609 L 15.519531 19.140625 C 14.889216 19.981045 13.699795 20.149847 12.859375 19.519531 L 6.9707031 15.099609 z M 18.800781 15.099609 L 20.986328 15.099609 L 21 15.099609 C 21.498241 15.099609 21.900391 15.501759 21.900391 16 L 21.900391 18 C 21.900391 18.498241 21.498241 18.900391 21 18.900391 L 15.949219 18.900391 L 18.800781 15.099609 z " />
</svg>
