<?xml version="1.0" encoding="UTF-8" standalone="no"?>
<svg
   width="24"
   height="24"
   viewBox="0 0 24 24"
   fill="none"
   stroke="currentColor"
   stroke-width="0.2"
   stroke-linecap="round"
   stroke-linejoin="round"
   version="1.1"
   id="svg4"
   sodipodi:docname=".tmp_smile-plus.svg"
   xmlns:inkscape="http://www.inkscape.org/namespaces/inkscape"
   xmlns:sodipodi="http://sodipodi.sourceforge.net/DTD/sodipodi-0.dtd"
   xmlns="http://www.w3.org/2000/svg"
   xmlns:svg="http://www.w3.org/2000/svg">
  <defs
     id="defs4" />
  <sodipodi:namedview
     id="namedview4"
     pagecolor="#ffffff"
     bordercolor="#000000"
     borderopacity="0.25"
     inkscape:showpageshadow="2"
     inkscape:pageopacity="0.0"
     inkscape:pagecheckerboard="0"
     inkscape:deskcolor="#d1d1d1" />
  <path
     id="path1"
     style="baseline-shift:baseline;display:inline;overflow:visible;vector-effect:none;fill:#000000;stroke:none;stroke-linecap:butt;stroke-linejoin:miter;enable-background:accumulate;stop-color:#000000;stop-opacity:1;opacity:1"
     d="M 11.333984 1.8613281 C 7.531953 2.0758484 4.5233778 4.3591397 2.9902344 7.3847656 C 1.2380705 10.842624 1.409649 15.277865 4.4941406 18.705078 C 7.5786323 22.132291 11.97302 22.768176 15.595703 21.388672 C 19.218386 20.009168 22.076499 16.611512 22.099609 12 L 22.099609 11 A 0.1 0.1 0 0 0 22 10.900391 A 0.1 0.1 0 0 0 21.900391 11 L 21.900391 12 C 21.877691 16.529461 19.07695 19.848008 15.523438 21.201172 C 11.969925 22.554336 7.6721761 21.938486 4.6425781 18.572266 C 1.6129801 15.206046 1.4512133 10.866444 3.1699219 7.4746094 C 4.8886304 4.0827746 8.4834162 1.6467145 12.990234 2.0996094 A 0.1 0.1 0 0 0 13.099609 2.0097656 A 0.1 0.1 0 0 0 13.009766 1.9003906 C 12.436208 1.8427532 11.877132 1.8306824 11.333984 1.8613281 z M 18.986328 1.9003906 A 0.1 0.1 0 0 0 18.900391 2 L 18.900391 4.9003906 L 16 4.9003906 A 0.1 0.1 0 0 0 15.900391 5 A 0.1 0.1 0 0 0 16 5.0996094 L 18.900391 5.0996094 L 18.900391 8 A 0.1 0.1 0 0 0 19 8.0996094 A 0.1 0.1 0 0 0 19.099609 8 L 19.099609 5.0996094 L 22 5.0996094 A 0.1 0.1 0 0 0 22.099609 5 A 0.1 0.1 0 0 0 22 4.9003906 L 19.099609 4.9003906 L 19.099609 2 A 0.1 0.1 0 0 0 19 1.9003906 A 0.1 0.1 0 0 0 18.986328 1.9003906 z M 8.9863281 8.9003906 A 0.1 0.1 0 0 0 8.9003906 9 A 0.1 0.1 0 0 0 9 9.0996094 L 9.0097656 9.0996094 A 0.1 0.1 0 0 0 9.109375 9 A 0.1 0.1 0 0 0 9.0097656 8.9003906 L 9 8.9003906 A 0.1 0.1 0 0 0 8.9863281 8.9003906 z M 14.986328 8.9003906 A 0.1 0.1 0 0 0 14.900391 9 A 0.1 0.1 0 0 0 15 9.0996094 L 15.009766 9.0996094 A 0.1 0.1 0 0 0 15.109375 9 A 0.1 0.1 0 0 0 15.009766 8.9003906 L 15 8.9003906 A 0.1 0.1 0 0 0 14.986328 8.9003906 z M 7.9882812 13.900391 A 0.1 0.1 0 0 0 7.9394531 13.919922 A 0.1 0.1 0 0 0 7.9199219 14.060547 C 7.9199219 14.060547 9.4466667 16.099609 12 16.099609 C 14.553333 16.099609 16.080078 14.060547 16.080078 14.060547 A 0.1 0.1 0 0 0 16.060547 13.919922 A 0.1 0.1 0 0 0 15.919922 13.939453 C 15.919922 13.939453 14.446667 15.900391 12 15.900391 C 9.5533333 15.900391 8.0800781 13.939453 8.0800781 13.939453 A 0.1 0.1 0 0 0 7.9882812 13.900391 z " />
</svg>
