<?xml version="1.0" encoding="UTF-8" standalone="no"?>
<svg
   width="24"
   height="24"
   viewBox="0 0 24 24"
   fill="none"
   stroke="currentColor"
   stroke-width="0.2"
   stroke-linecap="round"
   stroke-linejoin="round"
   version="1.1"
   id="svg12"
   sodipodi:docname=".tmp_snowflake.svg"
   xmlns:inkscape="http://www.inkscape.org/namespaces/inkscape"
   xmlns:sodipodi="http://sodipodi.sourceforge.net/DTD/sodipodi-0.dtd"
   xmlns="http://www.w3.org/2000/svg"
   xmlns:svg="http://www.w3.org/2000/svg">
  <defs
     id="defs12" />
  <sodipodi:namedview
     id="namedview12"
     pagecolor="#ffffff"
     bordercolor="#000000"
     borderopacity="0.25"
     inkscape:showpageshadow="2"
     inkscape:pageopacity="0.0"
     inkscape:pagecheckerboard="0"
     inkscape:deskcolor="#d1d1d1" />
  <path
     id="path1"
     style="baseline-shift:baseline;display:inline;overflow:visible;vector-effect:none;fill:#000000;stroke:none;stroke-linecap:butt;stroke-linejoin:miter;enable-background:accumulate;stop-color:#000000;stop-opacity:1;opacity:1"
     d="M 6.9921875 2.9003906 A 0.1 0.1 0 0 0 6.9550781 2.9101562 A 0.1 0.1 0 0 0 6.9101562 3.0449219 L 8.5703125 6.3671875 L 6.0175781 5.9023438 A 0.1 0.1 0 0 0 5.9023438 5.9824219 A 0.1 0.1 0 0 0 5.9824219 6.0976562 L 8.6816406 6.5878906 L 9.8867188 9 L 8.4375 11.900391 L 5.5507812 11.900391 L 4.0800781 9.9394531 A 0.1 0.1 0 0 0 3.9394531 9.9199219 A 0.1 0.1 0 0 0 3.9199219 10.060547 L 5.3007812 11.900391 L 2 11.900391 A 0.1 0.1 0 0 0 1.9003906 12 A 0.1 0.1 0 0 0 2 12.099609 L 5.3007812 12.099609 L 3.9199219 13.939453 A 0.1 0.1 0 0 0 3.9394531 14.080078 A 0.1 0.1 0 0 0 4.0800781 14.060547 L 5.5507812 12.099609 L 8.4375 12.099609 L 9.8886719 15 L 8.6816406 17.412109 L 5.9824219 17.902344 A 0.1 0.1 0 0 0 5.9023438 18.017578 A 0.1 0.1 0 0 0 6.0175781 18.097656 L 8.5722656 17.632812 L 6.9101562 20.955078 A 0.1 0.1 0 0 0 6.9550781 21.089844 A 0.1 0.1 0 0 0 7.0898438 21.044922 L 8.75 17.724609 L 9.9101562 20.044922 A 0.1 0.1 0 0 0 10.044922 20.089844 A 0.1 0.1 0 0 0 10.089844 19.955078 L 8.8632812 17.5 L 10.0625 15.099609 L 13.9375 15.099609 L 15.136719 17.5 L 13.910156 19.955078 A 0.1 0.1 0 0 0 13.955078 20.089844 A 0.1 0.1 0 0 0 14.089844 20.044922 L 15.25 17.724609 L 16.910156 21.044922 A 0.1 0.1 0 0 0 17.044922 21.089844 A 0.1 0.1 0 0 0 17.089844 20.955078 L 15.429688 17.632812 L 17.982422 18.097656 A 0.1 0.1 0 0 0 18.097656 18.017578 A 0.1 0.1 0 0 0 18.017578 17.902344 L 15.318359 17.412109 L 14.113281 15 L 15.5625 12.099609 L 18.449219 12.099609 L 19.919922 14.060547 A 0.1 0.1 0 0 0 20.060547 14.080078 A 0.1 0.1 0 0 0 20.080078 13.939453 L 18.699219 12.099609 L 22 12.099609 A 0.1 0.1 0 0 0 22.099609 12 A 0.1 0.1 0 0 0 22 11.900391 L 18.699219 11.900391 L 20.080078 10.060547 A 0.1 0.1 0 0 0 20.060547 9.9199219 A 0.1 0.1 0 0 0 19.919922 9.9394531 L 18.449219 11.900391 L 15.5625 11.900391 L 14.111328 9 L 15.318359 6.5878906 L 18.017578 6.0976562 A 0.1 0.1 0 0 0 18.097656 5.9824219 A 0.1 0.1 0 0 0 17.982422 5.9023438 L 15.427734 6.3671875 L 17.089844 3.0449219 A 0.1 0.1 0 0 0 17.044922 2.9101562 A 0.1 0.1 0 0 0 16.910156 2.9550781 L 15.25 6.2753906 L 14.089844 3.9550781 A 0.1 0.1 0 0 0 13.955078 3.9101562 A 0.1 0.1 0 0 0 13.910156 4.0449219 L 15.136719 6.5 L 13.9375 8.9003906 L 10.0625 8.9003906 L 8.8632812 6.5 L 10.089844 4.0449219 A 0.1 0.1 0 0 0 10.044922 3.9101562 A 0.1 0.1 0 0 0 9.9101562 3.9550781 L 8.75 6.2753906 L 7.0898438 2.9550781 A 0.1 0.1 0 0 0 6.9921875 2.9003906 z M 10.0625 9.0996094 L 13.9375 9.0996094 L 15.386719 12 L 13.9375 14.900391 L 10.0625 14.900391 L 8.6132812 12 L 10.0625 9.0996094 z " />
</svg>
