<?xml version="1.0" encoding="UTF-8" standalone="no"?>
<svg
   width="24"
   height="24"
   viewBox="0 0 24 24"
   fill="none"
   stroke="currentColor"
   stroke-width="0.2"
   stroke-linecap="round"
   stroke-linejoin="round"
   version="1.1"
   id="svg3"
   sodipodi:docname=".tmp_spell-check-2.svg"
   xmlns:inkscape="http://www.inkscape.org/namespaces/inkscape"
   xmlns:sodipodi="http://sodipodi.sourceforge.net/DTD/sodipodi-0.dtd"
   xmlns="http://www.w3.org/2000/svg"
   xmlns:svg="http://www.w3.org/2000/svg">
  <defs
     id="defs3" />
  <sodipodi:namedview
     id="namedview3"
     pagecolor="#ffffff"
     bordercolor="#000000"
     borderopacity="0.25"
     inkscape:showpageshadow="2"
     inkscape:pageopacity="0.0"
     inkscape:pagecheckerboard="0"
     inkscape:deskcolor="#d1d1d1" />
  <path
     id="path1"
     style="baseline-shift:baseline;display:inline;overflow:visible;vector-effect:none;fill:#000000;stroke:none;stroke-linecap:butt;stroke-linejoin:miter;enable-background:accumulate;stop-color:#000000;stop-opacity:1;opacity:1"
     d="M 12 3.8984375 A 0.10001 0.10001 0 0 0 11.910156 3.9550781 L 5.9101562 15.955078 A 0.1 0.1 0 0 0 5.9550781 16.089844 A 0.1 0.1 0 0 0 6.0898438 16.044922 L 8.0625 12.099609 L 15.9375 12.099609 L 17.910156 16.044922 A 0.1 0.1 0 0 0 18.044922 16.089844 A 0.1 0.1 0 0 0 18.089844 15.955078 L 12.089844 3.9550781 A 0.10001 0.10001 0 0 0 12 3.8984375 z M 12 4.2246094 L 15.837891 11.900391 L 8.1621094 11.900391 L 12 4.2246094 z M 6.3007812 19.900391 C 5.6730035 19.900391 5.335458 20.172886 5.046875 20.423828 C 4.758292 20.67477 4.519697 20.900391 4 20.900391 A 0.1 0.1 0 0 0 3.9003906 21 A 0.1 0.1 0 0 0 4 21.099609 C 4.580303 21.099609 4.8913174 20.82523 5.1777344 20.576172 C 5.4641513 20.327114 5.7285591 20.099609 6.3007812 20.099609 C 6.8730035 20.099609 7.1078125 20.324219 7.3828125 20.574219 C 7.6578125 20.824219 7.9718316 21.099609 8.5996094 21.099609 C 9.1799124 21.099609 9.4909268 20.82523 9.7773438 20.576172 C 10.063761 20.327114 10.328168 20.099609 10.900391 20.099609 C 11.420088 20.099609 11.658683 20.32523 11.947266 20.576172 C 12.235849 20.827114 12.571441 21.099609 13.199219 21.099609 C 13.779522 21.099609 14.092489 20.82523 14.378906 20.576172 C 14.665323 20.327114 14.927778 20.099609 15.5 20.099609 C 16.019697 20.099609 16.258292 20.32523 16.546875 20.576172 C 16.835458 20.827114 17.173003 21.099609 17.800781 21.099609 C 18.381084 21.099609 18.692099 20.82523 18.978516 20.576172 C 19.264933 20.327114 19.527387 20.099609 20.099609 20.099609 A 0.1 0.1 0 0 0 20.199219 20 A 0.1 0.1 0 0 0 20.099609 19.900391 C 19.471832 19.900391 19.136239 20.172886 18.847656 20.423828 C 18.559073 20.67477 18.320478 20.900391 17.800781 20.900391 C 17.228559 20.900391 16.964151 20.672886 16.677734 20.423828 C 16.391317 20.174771 16.080303 19.900391 15.5 19.900391 C 14.872222 19.900391 14.534677 20.172886 14.246094 20.423828 C 13.957511 20.67477 13.718916 20.900391 13.199219 20.900391 C 12.626997 20.900391 12.364542 20.672886 12.078125 20.423828 C 11.791708 20.17477 11.480694 19.900391 10.900391 19.900391 C 10.272613 19.900391 9.9350674 20.172886 9.6464844 20.423828 C 9.3579013 20.67477 9.1193063 20.900391 8.5996094 20.900391 C 8.0273872 20.900391 7.7925781 20.675781 7.5175781 20.425781 C 7.2425781 20.175781 6.928559 19.900391 6.3007812 19.900391 z " />
</svg>
