<?xml version="1.0" encoding="UTF-8" standalone="no"?>
<svg
   width="24"
   height="24"
   viewBox="0 0 24 24"
   fill="none"
   stroke="currentColor"
   stroke-width="0.2"
   stroke-linecap="round"
   stroke-linejoin="round"
   version="1.1"
   id="svg6"
   sodipodi:docname=".tmp_squares-subtract.svg"
   xmlns:inkscape="http://www.inkscape.org/namespaces/inkscape"
   xmlns:sodipodi="http://sodipodi.sourceforge.net/DTD/sodipodi-0.dtd"
   xmlns="http://www.w3.org/2000/svg"
   xmlns:svg="http://www.w3.org/2000/svg">
  <defs
     id="defs6" />
  <sodipodi:namedview
     id="namedview6"
     pagecolor="#ffffff"
     bordercolor="#000000"
     borderopacity="0.25"
     inkscape:showpageshadow="2"
     inkscape:pageopacity="0.0"
     inkscape:pagecheckerboard="0"
     inkscape:deskcolor="#d1d1d1" />
  <path
     id="path1"
     style="baseline-shift:baseline;display:inline;overflow:visible;vector-effect:none;fill:#000000;stroke:none;stroke-linecap:butt;stroke-linejoin:miter;enable-background:accumulate;stop-color:#000000;stop-opacity:1;opacity:1"
     d="M 4 1.9003906 C 2.8413865 1.9003906 1.9003906 2.8413865 1.9003906 4 L 1.9003906 14 C 1.9003906 15.158614 2.8413865 16.099609 4 16.099609 L 7 16.099609 C 7.6063288 16.099609 8.0996094 15.606329 8.0996094 15 L 8.0996094 10 C 8.0996094 8.9494745 8.9494745 8.0996094 10 8.0996094 L 15 8.0996094 C 15.606329 8.0996094 16.099609 7.6063288 16.099609 7 L 16.099609 4 C 16.099609 2.8413865 15.158614 1.9003906 14 1.9003906 L 4 1.9003906 z M 4 2.0996094 L 14 2.0996094 C 15.050525 2.0996094 15.900391 2.9494745 15.900391 4 L 15.900391 7 C 15.900391 7.4982407 15.498241 7.9003906 15 7.9003906 L 10 7.9003906 C 8.8413865 7.9003906 7.9003906 8.8413865 7.9003906 10 L 7.9003906 15 C 7.9003906 15.498241 7.4982407 15.900391 7 15.900391 L 4 15.900391 C 2.9494745 15.900391 2.0996094 15.050525 2.0996094 14 L 2.0996094 4 C 2.0996094 2.9494745 2.9494745 2.0996094 4 2.0996094 z M 19.986328 7.9003906 A 0.1 0.1 0 0 0 19.900391 8 A 0.1 0.1 0 0 0 20 8.0996094 C 21.050525 8.0996094 21.900391 8.9494745 21.900391 10 A 0.1 0.1 0 0 0 22 10.099609 A 0.1 0.1 0 0 0 22.099609 10 C 22.099609 8.8413865 21.158614 7.9003906 20 7.9003906 A 0.1 0.1 0 0 0 19.986328 7.9003906 z M 21.986328 13.900391 A 0.1 0.1 0 0 0 21.900391 14 L 21.900391 16 A 0.1 0.1 0 0 0 22 16.099609 A 0.1 0.1 0 0 0 22.099609 16 L 22.099609 14 A 0.1 0.1 0 0 0 22 13.900391 A 0.1 0.1 0 0 0 21.986328 13.900391 z M 7.9863281 19.900391 A 0.1 0.1 0 0 0 7.9003906 20 C 7.9003906 21.158614 8.8413865 22.099609 10 22.099609 A 0.1 0.1 0 0 0 10.099609 22 A 0.1 0.1 0 0 0 10 21.900391 C 8.9494745 21.900391 8.0996094 21.050525 8.0996094 20 A 0.1 0.1 0 0 0 8 19.900391 A 0.1 0.1 0 0 0 7.9863281 19.900391 z M 21.986328 19.900391 A 0.1 0.1 0 0 0 21.900391 20 C 21.900391 21.050525 21.050525 21.900391 20 21.900391 A 0.1 0.1 0 0 0 19.900391 22 A 0.1 0.1 0 0 0 20 22.099609 C 21.158614 22.099609 22.099609 21.158614 22.099609 20 A 0.1 0.1 0 0 0 22 19.900391 A 0.1 0.1 0 0 0 21.986328 19.900391 z M 13.986328 21.900391 A 0.1 0.1 0 0 0 13.900391 22 A 0.1 0.1 0 0 0 14 22.099609 L 16 22.099609 A 0.1 0.1 0 0 0 16.099609 22 A 0.1 0.1 0 0 0 16 21.900391 L 14 21.900391 A 0.1 0.1 0 0 0 13.986328 21.900391 z " />
</svg>
