<?xml version="1.0" encoding="UTF-8" standalone="no"?>
<svg
   width="24"
   height="24"
   viewBox="0 0 24 24"
   fill="none"
   stroke="currentColor"
   stroke-width="0.2"
   stroke-linecap="round"
   stroke-linejoin="round"
   version="1.1"
   id="svg3"
   sodipodi:docname=".tmp_square-arrow-out-down-right.svg"
   xmlns:inkscape="http://www.inkscape.org/namespaces/inkscape"
   xmlns:sodipodi="http://sodipodi.sourceforge.net/DTD/sodipodi-0.dtd"
   xmlns="http://www.w3.org/2000/svg"
   xmlns:svg="http://www.w3.org/2000/svg">
  <defs
     id="defs3" />
  <sodipodi:namedview
     id="namedview3"
     pagecolor="#ffffff"
     bordercolor="#000000"
     borderopacity="0.25"
     inkscape:showpageshadow="2"
     inkscape:pageopacity="0.0"
     inkscape:pagecheckerboard="0"
     inkscape:deskcolor="#d1d1d1" />
  <path
     id="path1"
     style="baseline-shift:baseline;display:inline;overflow:visible;vector-effect:none;fill:#000000;stroke:none;stroke-linecap:butt;stroke-linejoin:miter;enable-background:accumulate;stop-color:#000000;stop-opacity:1;opacity:1"
     d="M 5 2.9003906 C 3.8413865 2.9003906 2.9003906 3.8413865 2.9003906 5 L 2.9003906 19 C 2.9003906 20.158614 3.8413865 21.099609 5 21.099609 L 11 21.099609 A 0.1 0.1 0 0 0 11.099609 21 A 0.1 0.1 0 0 0 11 20.900391 L 5 20.900391 C 3.9494745 20.900391 3.0996094 20.050525 3.0996094 19 L 3.0996094 5 C 3.0996094 3.9494745 3.9494745 3.0996094 5 3.0996094 L 19 3.0996094 C 20.050525 3.0996094 20.900391 3.9494745 20.900391 5 L 20.900391 11 A 0.1 0.1 0 0 0 21 11.099609 A 0.1 0.1 0 0 0 21.099609 11 L 21.099609 5 C 21.099609 3.8413865 20.158614 2.9003906 19 2.9003906 L 5 2.9003906 z M 12 11.900391 A 0.1 0.1 0 0 0 11.929688 11.929688 A 0.1 0.1 0 0 0 11.929688 12.070312 L 20.759766 20.900391 L 15 20.900391 A 0.1 0.1 0 0 0 14.900391 21 A 0.1 0.1 0 0 0 15 21.099609 L 21 21.099609 A 0.10001 0.10001 0 0 0 21.025391 21.095703 A 0.1 0.1 0 0 0 21.070312 21.070312 A 0.1 0.1 0 0 0 21.095703 21.025391 A 0.10001 0.10001 0 0 0 21.099609 21 L 21.099609 15 A 0.1 0.1 0 0 0 21 14.900391 A 0.1 0.1 0 0 0 20.900391 15 L 20.900391 20.759766 L 12.070312 11.929688 A 0.1 0.1 0 0 0 12 11.900391 z " />
</svg>
