<?xml version="1.0" encoding="UTF-8" standalone="no"?>
<svg
   width="24"
   height="24"
   viewBox="0 0 24 24"
   fill="none"
   stroke="currentColor"
   stroke-width="0.2"
   stroke-linecap="round"
   stroke-linejoin="round"
   version="1.1"
   id="svg2"
   sodipodi:docname=".tmp_square-split-horizontal.svg"
   xmlns:inkscape="http://www.inkscape.org/namespaces/inkscape"
   xmlns:sodipodi="http://sodipodi.sourceforge.net/DTD/sodipodi-0.dtd"
   xmlns="http://www.w3.org/2000/svg"
   xmlns:svg="http://www.w3.org/2000/svg">
  <defs
     id="defs2" />
  <sodipodi:namedview
     id="namedview2"
     pagecolor="#ffffff"
     bordercolor="#000000"
     borderopacity="0.25"
     inkscape:showpageshadow="2"
     inkscape:pageopacity="0.0"
     inkscape:pagecheckerboard="0"
     inkscape:deskcolor="#d1d1d1" />
  <path
     id="path1"
     style="baseline-shift:baseline;display:inline;overflow:visible;vector-effect:none;fill:#000000;stroke:none;stroke-linecap:butt;stroke-linejoin:miter;enable-background:accumulate;stop-color:#000000;stop-opacity:1;opacity:1"
     d="M 11.986328 3.9003906 A 0.1 0.1 0 0 0 11.900391 4 L 11.900391 20 A 0.1 0.1 0 0 0 12 20.099609 A 0.1 0.1 0 0 0 12.099609 20 L 12.099609 4 A 0.1 0.1 0 0 0 12 3.9003906 A 0.1 0.1 0 0 0 11.986328 3.9003906 z M 5 4.9003906 C 4.4666667 4.9003906 3.945401 5.163974 3.5546875 5.5546875 C 3.163974 5.945401 2.9003906 6.4666667 2.9003906 7 L 2.9003906 17 C 2.9003906 17.533333 3.163974 18.054599 3.5546875 18.445312 C 3.945401 18.836026 4.4666667 19.099609 5 19.099609 L 8 19.099609 A 0.1 0.1 0 0 0 8.0996094 19 A 0.1 0.1 0 0 0 8 18.900391 L 5 18.900391 C 4.5333333 18.900391 4.054599 18.663975 3.6953125 18.304688 C 3.336026 17.945402 3.0996094 17.466667 3.0996094 17 L 3.0996094 7 C 3.0996094 6.5333333 3.336026 6.054599 3.6953125 5.6953125 C 4.054599 5.336026 4.5333333 5.0996094 5 5.0996094 L 8 5.0996094 A 0.1 0.1 0 0 0 8.0996094 5 A 0.1 0.1 0 0 0 8 4.9003906 L 5 4.9003906 z M 15.986328 4.9003906 A 0.1 0.1 0 0 0 15.900391 5 A 0.1 0.1 0 0 0 16 5.0996094 L 19 5.0996094 C 19.466667 5.0996094 19.945401 5.336026 20.304688 5.6953125 C 20.663974 6.054599 20.900391 6.5333333 20.900391 7 L 20.900391 17 C 20.900391 17.466667 20.663975 17.945401 20.304688 18.304688 C 19.945402 18.663974 19.466667 18.900391 19 18.900391 L 16 18.900391 A 0.1 0.1 0 0 0 15.900391 19 A 0.1 0.1 0 0 0 16 19.099609 L 19 19.099609 C 19.533333 19.099609 20.054599 18.836026 20.445312 18.445312 C 20.836026 18.054599 21.099609 17.533333 21.099609 17 L 21.099609 7 C 21.099609 6.4666667 20.836026 5.945401 20.445312 5.5546875 C 20.054599 5.163974 19.533333 4.9003906 19 4.9003906 L 16 4.9003906 A 0.1 0.1 0 0 0 15.986328 4.9003906 z " />
</svg>
