<?xml version="1.0" encoding="UTF-8" standalone="no"?>
<svg
   width="24"
   height="24"
   viewBox="0 0 24 24"
   fill="none"
   stroke="currentColor"
   stroke-width="0.2"
   stroke-linecap="round"
   stroke-linejoin="round"
   version="1.1"
   id="svg3"
   sodipodi:docname=".tmp_square-pilcrow.svg"
   xmlns:inkscape="http://www.inkscape.org/namespaces/inkscape"
   xmlns:sodipodi="http://sodipodi.sourceforge.net/DTD/sodipodi-0.dtd"
   xmlns="http://www.w3.org/2000/svg"
   xmlns:svg="http://www.w3.org/2000/svg">
  <defs
     id="defs3" />
  <sodipodi:namedview
     id="namedview3"
     pagecolor="#ffffff"
     bordercolor="#000000"
     borderopacity="0.25"
     inkscape:showpageshadow="2"
     inkscape:pageopacity="0.0"
     inkscape:pagecheckerboard="0"
     inkscape:deskcolor="#d1d1d1" />
  <path
     id="rect1"
     style="baseline-shift:baseline;display:inline;overflow:visible;vector-effect:none;fill:#000000;stroke:none;stroke-linecap:butt;stroke-linejoin:miter;enable-background:accumulate;stop-color:#000000;stop-opacity:1;opacity:1"
     d="M 5 2.9003906 C 3.8383297 2.9003906 2.9003906 3.8383297 2.9003906 5 L 2.9003906 19 C 2.9003906 20.16167 3.8383297 21.099609 5 21.099609 L 19 21.099609 C 20.16167 21.099609 21.099609 20.16167 21.099609 19 L 21.099609 5 C 21.099609 3.8383297 20.16167 2.9003906 19 2.9003906 L 5 2.9003906 z M 5 3.0996094 L 19 3.0996094 C 20.05433 3.0996094 20.900391 3.9456703 20.900391 5 L 20.900391 19 C 20.900391 20.05433 20.05433 20.900391 19 20.900391 L 5 20.900391 C 3.9456703 20.900391 3.0996094 20.05433 3.0996094 19 L 3.0996094 5 C 3.0996094 3.9456703 3.9456703 3.0996094 5 3.0996094 z M 9.5 6.9003906 C 8.641667 6.9003906 7.9857751 7.2254756 7.5507812 7.7148438 C 7.1157875 8.204212 6.9003906 8.8527778 6.9003906 9.5 C 6.9003906 10.147222 7.1157875 10.795788 7.5507812 11.285156 C 7.9857751 11.774524 8.641667 12.099609 9.5 12.099609 L 11.900391 12.099609 L 11.900391 17 A 0.1 0.1 0 0 0 12 17.099609 A 0.1 0.1 0 0 0 12.099609 17 L 12.099609 12.013672 A 0.1 0.1 0 0 0 12.099609 12 A 0.1 0.1 0 0 0 12.099609 11.986328 L 12.099609 7.0996094 L 15.900391 7.0996094 L 15.900391 17 A 0.1 0.1 0 0 0 16 17.099609 A 0.1 0.1 0 0 0 16.099609 17 L 16.099609 7.0996094 L 17 7.0996094 A 0.1 0.1 0 0 0 17.099609 7 A 0.1 0.1 0 0 0 17 6.9003906 L 16.013672 6.9003906 L 15.986328 6.9003906 L 9.5 6.9003906 z M 9.5 7.0996094 L 11.900391 7.0996094 L 11.900391 11.900391 L 9.5 11.900391 C 8.691667 11.900391 8.097558 11.600476 7.6992188 11.152344 C 7.3008795 10.704212 7.0996094 10.102778 7.0996094 9.5 C 7.0996094 8.8972222 7.3008796 8.2957881 7.6992188 7.8476562 C 8.097558 7.3995244 8.691667 7.0996094 9.5 7.0996094 z " />
</svg>
