<?xml version="1.0" encoding="UTF-8" standalone="no"?>
<svg
   width="24"
   height="24"
   viewBox="0 0 24 24"
   fill="none"
   stroke="currentColor"
   stroke-width="0.2"
   stroke-linecap="round"
   stroke-linejoin="round"
   version="1.1"
   id="svg5"
   sodipodi:docname=".tmp_square-parking-off.svg"
   xmlns:inkscape="http://www.inkscape.org/namespaces/inkscape"
   xmlns:sodipodi="http://sodipodi.sourceforge.net/DTD/sodipodi-0.dtd"
   xmlns="http://www.w3.org/2000/svg"
   xmlns:svg="http://www.w3.org/2000/svg">
  <defs
     id="defs5" />
  <sodipodi:namedview
     id="namedview5"
     pagecolor="#ffffff"
     bordercolor="#000000"
     borderopacity="0.25"
     inkscape:showpageshadow="2"
     inkscape:pageopacity="0.0"
     inkscape:pagecheckerboard="0"
     inkscape:deskcolor="#d1d1d1" />
  <path
     id="path1"
     style="baseline-shift:baseline;display:inline;overflow:visible;vector-effect:none;fill:#000000;stroke:none;stroke-linecap:butt;stroke-linejoin:miter;enable-background:accumulate;stop-color:#000000;stop-opacity:1;opacity:1"
     d="M 2 1.9003906 A 0.1 0.1 0 0 0 1.9296875 1.9296875 A 0.1 0.1 0 0 0 1.9296875 2.0703125 L 3.5175781 3.6582031 A 0.1 0.1 0 0 0 3.5292969 3.671875 A 0.1 0.1 0 0 0 3.5410156 3.6816406 L 8.9257812 9.0644531 A 0.1 0.1 0 0 0 8.9414062 9.0800781 L 12.923828 13.0625 A 0.1 0.1 0 0 0 12.941406 13.080078 L 20.332031 20.470703 A 0.1 0.1 0 0 0 20.339844 20.480469 A 0.1 0.1 0 0 0 20.349609 20.488281 L 21.929688 22.070312 A 0.1 0.1 0 0 0 22.070312 22.070312 A 0.1 0.1 0 0 0 22.070312 21.929688 L 20.548828 20.408203 C 20.900118 20.024246 21.097405 19.522785 21.099609 19 L 21.099609 5 C 21.099609 3.8413865 20.158614 2.9003906 19 2.9003906 L 5 2.9003906 A 0.10001 0.10001 0 0 0 4.9980469 2.9003906 C 4.4773993 2.9078073 3.9793972 3.1064432 3.5996094 3.4589844 L 2.0703125 1.9296875 A 0.1 0.1 0 0 0 2 1.9003906 z M 5 3.0996094 L 19 3.0996094 C 20.050525 3.0996094 20.900391 3.9494745 20.900391 5 L 20.900391 19 C 20.898429 19.469894 20.722126 19.921028 20.408203 20.267578 L 13.232422 13.091797 C 14.143237 13.037555 14.845969 12.666938 15.324219 12.128906 C 15.842546 11.545788 16.099609 10.772222 16.099609 10 C 16.099609 9.2277778 15.842546 8.4542119 15.324219 7.8710938 C 14.805892 7.2879757 14.025 6.9003906 13 6.9003906 L 9 6.9003906 A 0.10001 0.10001 0 0 0 8.9003906 7 L 8.9003906 8.7597656 L 3.7421875 3.6015625 C 4.0847416 3.2862339 4.5322482 3.1067303 5 3.0996094 z M 9.0996094 7.0996094 L 13 7.0996094 C 13.975 7.0996094 14.694109 7.4620244 15.175781 8.0039062 C 15.657454 8.5457881 15.900391 9.2722222 15.900391 10 C 15.900391 10.727778 15.657454 11.454212 15.175781 11.996094 C 14.700853 12.530389 13.995303 12.89042 13.041016 12.900391 L 9.0996094 8.9589844 L 9.0996094 7.0996094 z M 2.9863281 8.5996094 A 0.1 0.1 0 0 0 2.9003906 8.6992188 L 2.9003906 19 C 2.9003906 20.158614 3.8413865 21.099609 5 21.099609 L 15.300781 21.099609 A 0.1 0.1 0 0 0 15.400391 21 A 0.1 0.1 0 0 0 15.300781 20.900391 L 5 20.900391 C 3.9494745 20.900391 3.0996094 20.050525 3.0996094 19 L 3.0996094 8.6992188 A 0.1 0.1 0 0 0 3 8.5996094 A 0.1 0.1 0 0 0 2.9863281 8.5996094 z M 8.9863281 14.599609 A 0.1 0.1 0 0 0 8.9003906 14.699219 L 8.9003906 17 A 0.1 0.1 0 0 0 9 17.099609 A 0.1 0.1 0 0 0 9.0996094 17 L 9.0996094 14.699219 A 0.1 0.1 0 0 0 9 14.599609 A 0.1 0.1 0 0 0 8.9863281 14.599609 z " />
</svg>
