<?xml version="1.0" encoding="UTF-8" standalone="no"?>
<svg
   width="24"
   height="24"
   viewBox="0 0 24 24"
   fill="none"
   stroke="currentColor"
   stroke-width="0.2"
   stroke-linecap="round"
   stroke-linejoin="round"
   version="1.1"
   id="svg8"
   sodipodi:docname=".tmp_sun.svg"
   xmlns:inkscape="http://www.inkscape.org/namespaces/inkscape"
   xmlns:sodipodi="http://sodipodi.sourceforge.net/DTD/sodipodi-0.dtd"
   xmlns="http://www.w3.org/2000/svg"
   xmlns:svg="http://www.w3.org/2000/svg">
  <defs
     id="defs8" />
  <sodipodi:namedview
     id="namedview8"
     pagecolor="#ffffff"
     bordercolor="#000000"
     borderopacity="0.25"
     inkscape:showpageshadow="2"
     inkscape:pageopacity="0.0"
     inkscape:pagecheckerboard="0"
     inkscape:deskcolor="#d1d1d1" />
  <path
     id="circle1"
     style="baseline-shift:baseline;display:inline;overflow:visible;vector-effect:none;fill:#000000;stroke:none;stroke-linecap:butt;stroke-linejoin:miter;enable-background:accumulate;stop-color:#000000;stop-opacity:1;opacity:1"
     d="M 11.986328 1.9003906 A 0.1 0.1 0 0 0 11.900391 2 L 11.900391 4 A 0.1 0.1 0 0 0 12 4.0996094 A 0.1 0.1 0 0 0 12.099609 4 L 12.099609 2 A 0.1 0.1 0 0 0 12 1.9003906 A 0.1 0.1 0 0 0 11.986328 1.9003906 z M 4.9296875 4.8300781 A 0.1 0.1 0 0 0 4.859375 4.859375 A 0.1 0.1 0 0 0 4.859375 5 L 6.2695312 6.4101562 A 0.1 0.1 0 0 0 6.4101562 6.4101562 A 0.1 0.1 0 0 0 6.4101562 6.2695312 L 5 4.859375 A 0.1 0.1 0 0 0 4.9296875 4.8300781 z M 19.070312 4.8300781 A 0.1 0.1 0 0 0 19 4.859375 L 17.589844 6.2695312 A 0.1 0.1 0 0 0 17.589844 6.4101562 A 0.1 0.1 0 0 0 17.730469 6.4101562 L 19.140625 5 A 0.1 0.1 0 0 0 19.140625 4.859375 A 0.1 0.1 0 0 0 19.070312 4.8300781 z M 12 7.9003906 C 9.736817 7.9003906 7.9003906 9.736817 7.9003906 12 C 7.9003906 14.263183 9.736817 16.099609 12 16.099609 C 14.263183 16.099609 16.099609 14.263183 16.099609 12 C 16.099609 9.736817 14.263183 7.9003906 12 7.9003906 z M 12 8.0996094 C 14.155095 8.0996094 15.900391 9.844905 15.900391 12 C 15.900391 14.155095 14.155095 15.900391 12 15.900391 C 9.844905 15.900391 8.0996094 14.155095 8.0996094 12 C 8.0996094 9.844905 9.844905 8.0996094 12 8.0996094 z M 1.9863281 11.900391 A 0.1 0.1 0 0 0 1.9003906 12 A 0.1 0.1 0 0 0 2 12.099609 L 4 12.099609 A 0.1 0.1 0 0 0 4.0996094 12 A 0.1 0.1 0 0 0 4 11.900391 L 2 11.900391 A 0.1 0.1 0 0 0 1.9863281 11.900391 z M 19.986328 11.900391 A 0.1 0.1 0 0 0 19.900391 12 A 0.1 0.1 0 0 0 20 12.099609 L 22 12.099609 A 0.1 0.1 0 0 0 22.099609 12 A 0.1 0.1 0 0 0 22 11.900391 L 20 11.900391 A 0.1 0.1 0 0 0 19.986328 11.900391 z M 6.3398438 17.560547 A 0.1 0.1 0 0 0 6.2695312 17.589844 L 4.859375 19 A 0.1 0.1 0 0 0 4.859375 19.140625 A 0.1 0.1 0 0 0 5 19.140625 L 6.4101562 17.730469 A 0.1 0.1 0 0 0 6.4101562 17.589844 A 0.1 0.1 0 0 0 6.3398438 17.560547 z M 17.660156 17.560547 A 0.1 0.1 0 0 0 17.589844 17.589844 A 0.1 0.1 0 0 0 17.589844 17.730469 L 19 19.140625 A 0.1 0.1 0 0 0 19.140625 19.140625 A 0.1 0.1 0 0 0 19.140625 19 L 17.730469 17.589844 A 0.1 0.1 0 0 0 17.660156 17.560547 z M 11.986328 19.900391 A 0.1 0.1 0 0 0 11.900391 20 L 11.900391 22 A 0.1 0.1 0 0 0 12 22.099609 A 0.1 0.1 0 0 0 12.099609 22 L 12.099609 20 A 0.1 0.1 0 0 0 12 19.900391 A 0.1 0.1 0 0 0 11.986328 19.900391 z " />
</svg>
