<?xml version="1.0" encoding="UTF-8" standalone="no"?>
<svg
   width="24"
   height="24"
   viewBox="0 0 24 24"
   fill="none"
   stroke="currentColor"
   stroke-width="0.2"
   stroke-linecap="round"
   stroke-linejoin="round"
   version="1.1"
   id="svg2"
   sodipodi:docname=".tmp_timer.svg"
   xmlns:inkscape="http://www.inkscape.org/namespaces/inkscape"
   xmlns:sodipodi="http://sodipodi.sourceforge.net/DTD/sodipodi-0.dtd"
   xmlns="http://www.w3.org/2000/svg"
   xmlns:svg="http://www.w3.org/2000/svg">
  <defs
     id="defs2" />
  <sodipodi:namedview
     id="namedview2"
     pagecolor="#ffffff"
     bordercolor="#000000"
     borderopacity="0.25"
     inkscape:showpageshadow="2"
     inkscape:pageopacity="0.0"
     inkscape:pagecheckerboard="0"
     inkscape:deskcolor="#d1d1d1" />
  <path
     id="line1"
     style="baseline-shift:baseline;display:inline;overflow:visible;vector-effect:none;fill:#000000;stroke:none;stroke-linecap:butt;stroke-linejoin:miter;enable-background:accumulate;stop-color:#000000;stop-opacity:1;opacity:1"
     d="M 9.9863281 1.9003906 A 0.1 0.1 0 0 0 9.9003906 2 A 0.1 0.1 0 0 0 10 2.0996094 L 14 2.0996094 A 0.1 0.1 0 0 0 14.099609 2 A 0.1 0.1 0 0 0 14 1.9003906 L 10 1.9003906 A 0.1 0.1 0 0 0 9.9863281 1.9003906 z M 12 5.9003906 C 7.527678 5.9003906 3.9003906 9.527678 3.9003906 14 C 3.9003906 18.472322 7.527678 22.099609 12 22.099609 C 16.472322 22.099609 20.099609 18.472322 20.099609 14 C 20.099609 9.527678 16.472322 5.9003906 12 5.9003906 z M 12 6.0996094 C 16.364234 6.0996094 19.900391 9.635766 19.900391 14 C 19.900391 18.364234 16.364234 21.900391 12 21.900391 C 7.635766 21.900391 4.0996094 18.364234 4.0996094 14 C 4.0996094 9.635766 7.635766 6.0996094 12 6.0996094 z M 15 10.900391 A 0.1 0.1 0 0 0 14.929688 10.929688 L 11.929688 13.929688 A 0.1 0.1 0 0 0 11.929688 14.070312 A 0.1 0.1 0 0 0 12.070312 14.070312 L 15.070312 11.070312 A 0.1 0.1 0 0 0 15.070312 10.929688 A 0.1 0.1 0 0 0 15 10.900391 z " />
</svg>
