<?xml version="1.0" encoding="UTF-8" standalone="no"?>
<svg
   width="24"
   height="24"
   viewBox="0 0 24 24"
   fill="none"
   stroke="currentColor"
   stroke-width="0.2"
   stroke-linecap="round"
   stroke-linejoin="round"
   version="1.1"
   id="svg4"
   sodipodi:docname=".tmp_timer-reset.svg"
   xmlns:inkscape="http://www.inkscape.org/namespaces/inkscape"
   xmlns:sodipodi="http://sodipodi.sourceforge.net/DTD/sodipodi-0.dtd"
   xmlns="http://www.w3.org/2000/svg"
   xmlns:svg="http://www.w3.org/2000/svg">
  <defs
     id="defs4" />
  <sodipodi:namedview
     id="namedview4"
     pagecolor="#ffffff"
     bordercolor="#000000"
     borderopacity="0.25"
     inkscape:showpageshadow="2"
     inkscape:pageopacity="0.0"
     inkscape:pagecheckerboard="0"
     inkscape:deskcolor="#d1d1d1" />
  <path
     id="path1"
     style="baseline-shift:baseline;display:inline;overflow:visible;vector-effect:none;fill:#000000;stroke:none;stroke-linecap:butt;stroke-linejoin:miter;enable-background:accumulate;stop-color:#000000;stop-opacity:1;opacity:1"
     d="M 9.9863281 1.9003906 A 0.1 0.1 0 0 0 9.9003906 2 A 0.1 0.1 0 0 0 10 2.0996094 L 14 2.0996094 A 0.1 0.1 0 0 0 14.099609 2 A 0.1 0.1 0 0 0 14 1.9003906 L 10 1.9003906 A 0.1 0.1 0 0 0 9.9863281 1.9003906 z M 12 5.9003906 C 7.8946145 5.8682059 4.4134534 8.9149545 3.9003906 12.988281 A 0.1 0.1 0 0 0 3.9882812 13.099609 A 0.1 0.1 0 0 0 4.0996094 13.011719 C 4.6002033 9.0373825 7.9943846 6.0682068 12 6.0996094 C 17.526043 6.1054794 21.335385 11.628818 19.378906 16.796875 C 17.422428 21.964932 10.910163 23.580914 6.765625 19.925781 L 4.0996094 17.554688 L 4.0996094 17.099609 L 9 17.099609 A 0.1 0.1 0 0 0 9.0996094 17 A 0.1 0.1 0 0 0 9 16.900391 L 4 16.900391 A 0.10001 0.10001 0 0 0 3.9003906 17 L 3.9003906 17.591797 A 0.1 0.1 0 0 0 3.9003906 17.605469 L 3.9003906 22 A 0.1 0.1 0 0 0 4 22.099609 A 0.1 0.1 0 0 0 4.0996094 22 L 4.0996094 17.822266 L 6.6328125 20.074219 A 0.10001 0.10001 0 0 0 6.6347656 20.074219 C 10.879296 23.817543 17.562728 22.159924 19.566406 16.867188 C 21.570085 11.574451 17.659358 5.9064055 12 5.9003906 z M 11.986328 9.9003906 A 0.1 0.1 0 0 0 11.900391 10 L 11.900391 14 A 0.1 0.1 0 0 0 12 14.099609 A 0.1 0.1 0 0 0 12.099609 14 L 12.099609 10 A 0.1 0.1 0 0 0 12 9.9003906 A 0.1 0.1 0 0 0 11.986328 9.9003906 z " />
</svg>
