<?xml version="1.0" encoding="UTF-8" standalone="no"?>
<svg
   width="24"
   height="24"
   viewBox="0 0 24 24"
   fill="none"
   stroke="currentColor"
   stroke-width="0.2"
   stroke-linecap="round"
   stroke-linejoin="round"
   version="1.1"
   id="svg8"
   sodipodi:docname=".tmp_tractor.svg"
   xmlns:inkscape="http://www.inkscape.org/namespaces/inkscape"
   xmlns:sodipodi="http://sodipodi.sourceforge.net/DTD/sodipodi-0.dtd"
   xmlns="http://www.w3.org/2000/svg"
   xmlns:svg="http://www.w3.org/2000/svg">
  <defs
     id="defs8" />
  <sodipodi:namedview
     id="namedview8"
     pagecolor="#ffffff"
     bordercolor="#000000"
     borderopacity="0.25"
     inkscape:showpageshadow="2"
     inkscape:pageopacity="0.0"
     inkscape:pagecheckerboard="0"
     inkscape:deskcolor="#d1d1d1" />
  <path
     id="path1"
     style="baseline-shift:baseline;display:inline;overflow:visible;vector-effect:none;fill:#000000;stroke:none;stroke-linecap:butt;stroke-linejoin:miter;enable-background:accumulate;stop-color:#000000;stop-opacity:1;opacity:1"
     d="M 2.9863281 3.9003906 A 0.1 0.1 0 0 0 2.9003906 4 A 0.1 0.1 0 0 0 3 4.0996094 L 3.9003906 4.0996094 L 3.9003906 10.951172 C 2.684594 11.88342 1.9003906 13.350306 1.9003906 15 C 1.9003906 17.815468 4.1845322 20.099609 7 20.099609 C 8.6496942 20.099609 10.11658 19.315406 11.048828 18.099609 L 15.902344 18.099609 C 15.954433 19.212069 16.874776 20.099609 18 20.099609 C 19.125224 20.099609 20.045567 19.212069 20.097656 18.099609 L 20.146484 18.099609 C 20.686436 18.099912 21.149063 17.706998 21.234375 17.173828 L 21.898438 13.015625 A 0.10001 0.10001 0 0 0 21.898438 13.011719 C 21.966687 12.441209 21.583316 11.913582 21.019531 11.802734 A 0.10001 0.10001 0 0 0 21.007812 11.800781 L 17.099609 11.480469 L 17.099609 6 C 17.099609 5.5017593 17.501759 5.0996094 18 5.0996094 A 0.1 0.1 0 0 0 18.099609 5 A 0.1 0.1 0 0 0 18 4.9003906 C 17.393671 4.9003906 16.900391 5.3936712 16.900391 6 L 16.900391 11.464844 L 13.087891 11.152344 L 12.21875 4.8496094 C 12.143635 4.3064905 11.677195 3.9007037 11.128906 3.9003906 L 3 3.9003906 A 0.1 0.1 0 0 0 2.9863281 3.9003906 z M 4.0996094 4.0996094 L 7.9003906 4.0996094 L 7.9003906 9.9804688 C 7.6081049 9.9283536 7.3072155 9.9003906 7 9.9003906 C 5.922673 9.9003906 4.9231416 10.234013 4.0996094 10.804688 L 4.0996094 4.0996094 z M 8.0996094 4.0996094 L 11.128906 4.0996094 C 11.578877 4.0998663 11.957885 4.4312251 12.019531 4.8769531 L 12.882812 11.136719 L 10.035156 10.902344 C 9.4684729 10.481686 8.8122877 10.176287 8.0996094 10.019531 L 8.0996094 4.0996094 z M 7 10.099609 C 8.0984641 10.099609 9.1126867 10.460417 9.9296875 11.070312 A 0.1 0.1 0 0 0 9.9511719 11.087891 C 11.134862 11.982255 11.900391 13.401322 11.900391 15 C 11.900391 16.099679 11.538855 17.114172 10.927734 17.931641 A 0.1 0.1 0 0 0 10.914062 17.949219 C 10.019813 19.134402 8.5998579 19.900391 7 19.900391 C 4.2926203 19.900391 2.0996094 17.70738 2.0996094 15 C 2.0996094 13.400142 2.865599 11.980187 4.0507812 11.085938 C 4.0537313 11.083712 4.0575917 11.082297 4.0605469 11.080078 A 0.1 0.1 0 0 0 4.0683594 11.072266 C 4.8858276 10.461145 5.9003215 10.099609 7 10.099609 z M 10.316406 11.126953 L 12.974609 11.34375 A 0.1 0.1 0 0 0 13.007812 11.345703 L 13.009766 11.345703 L 16.976562 11.669922 A 0.1 0.1 0 0 0 17 11.673828 A 0.1 0.1 0 0 0 17.009766 11.673828 L 17.011719 11.673828 L 20.980469 11.998047 L 20.980469 12 C 21.442426 12.09178 21.757143 12.520423 21.701172 12.988281 L 21.037109 17.142578 C 20.967109 17.580071 20.589542 17.900639 20.146484 17.900391 L 20.097656 17.900391 C 20.045567 16.787931 19.125224 15.900391 18 15.900391 C 16.874776 15.900391 15.954433 16.787931 15.902344 17.900391 L 11.195312 17.900391 C 11.765987 17.076858 12.099609 16.077327 12.099609 15 C 12.099609 13.450273 11.408176 12.062407 10.316406 11.126953 z M 6.9863281 14.900391 A 0.1 0.1 0 0 0 6.9003906 15 A 0.1 0.1 0 0 0 7 15.099609 L 7.0097656 15.099609 A 0.1 0.1 0 0 0 7.109375 15 A 0.1 0.1 0 0 0 7.0097656 14.900391 L 7 14.900391 A 0.1 0.1 0 0 0 6.9863281 14.900391 z M 18 16.099609 C 19.050525 16.099609 19.900391 16.949475 19.900391 18 C 19.900391 19.050525 19.050525 19.900391 18 19.900391 C 16.95406 19.900391 16.106982 19.057856 16.099609 18.013672 A 0.1 0.1 0 0 0 16.099609 18 A 0.1 0.1 0 0 0 16.099609 17.986328 C 16.106982 16.942144 16.95406 16.099609 18 16.099609 z " />
</svg>
