<?xml version="1.0" encoding="UTF-8" standalone="no"?>
<svg
   width="24"
   height="24"
   viewBox="0 0 24 24"
   fill="none"
   stroke="currentColor"
   stroke-width="0.2"
   stroke-linecap="round"
   stroke-linejoin="round"
   version="1.1"
   id="svg3"
   sodipodi:docname=".tmp_trash.svg"
   xmlns:inkscape="http://www.inkscape.org/namespaces/inkscape"
   xmlns:sodipodi="http://sodipodi.sourceforge.net/DTD/sodipodi-0.dtd"
   xmlns="http://www.w3.org/2000/svg"
   xmlns:svg="http://www.w3.org/2000/svg">
  <defs
     id="defs3" />
  <sodipodi:namedview
     id="namedview3"
     pagecolor="#ffffff"
     bordercolor="#000000"
     borderopacity="0.25"
     inkscape:showpageshadow="2"
     inkscape:pageopacity="0.0"
     inkscape:pagecheckerboard="0"
     inkscape:deskcolor="#d1d1d1" />
  <path
     id="path1"
     style="baseline-shift:baseline;display:inline;overflow:visible;vector-effect:none;fill:#000000;stroke:none;stroke-linecap:butt;stroke-linejoin:miter;enable-background:accumulate;stop-color:#000000;stop-opacity:1;opacity:1"
     d="M 10 1.9003906 C 8.8413865 1.9003906 7.9003906 2.8413865 7.9003906 4 L 7.9003906 5.9003906 L 3 5.9003906 A 0.1 0.1 0 0 0 2.9003906 6 A 0.1 0.1 0 0 0 3 6.0996094 L 4.9003906 6.0996094 L 4.9003906 20 C 4.9003906 21.158614 5.8413865 22.099609 7 22.099609 L 17 22.099609 C 18.158614 22.099609 19.099609 21.158614 19.099609 20 L 19.099609 6.0996094 L 21 6.0996094 A 0.1 0.1 0 0 0 21.099609 6 A 0.1 0.1 0 0 0 21 5.9003906 L 16.099609 5.9003906 L 16.099609 4 C 16.099609 2.8413865 15.158614 1.9003906 14 1.9003906 L 10 1.9003906 z M 10 2.0996094 L 14 2.0996094 C 15.050525 2.0996094 15.900391 2.9494745 15.900391 4 L 15.900391 5.9003906 L 8.0996094 5.9003906 L 8.0996094 4 C 8.0996094 2.9494745 8.9494745 2.0996094 10 2.0996094 z M 5.0996094 6.0996094 L 7.9863281 6.0996094 L 8.0136719 6.0996094 L 15.986328 6.0996094 L 16.013672 6.0996094 L 18.900391 6.0996094 L 18.900391 20 C 18.900391 21.050525 18.050525 21.900391 17 21.900391 L 7 21.900391 C 5.9494745 21.900391 5.0996094 21.050525 5.0996094 20 L 5.0996094 6.0996094 z " />
</svg>
