<?xml version="1.0" encoding="UTF-8" standalone="no"?>
<svg
   width="24"
   height="24"
   viewBox="0 0 24 24"
   fill="none"
   stroke="currentColor"
   stroke-width="0.2"
   stroke-linecap="round"
   stroke-linejoin="round"
   version="1.1"
   id="svg1"
   sodipodi:docname=".tmp_triangle.svg"
   xmlns:inkscape="http://www.inkscape.org/namespaces/inkscape"
   xmlns:sodipodi="http://sodipodi.sourceforge.net/DTD/sodipodi-0.dtd"
   xmlns="http://www.w3.org/2000/svg"
   xmlns:svg="http://www.w3.org/2000/svg">
  <defs
     id="defs1" />
  <sodipodi:namedview
     id="namedview1"
     pagecolor="#ffffff"
     bordercolor="#000000"
     borderopacity="0.25"
     inkscape:showpageshadow="2"
     inkscape:pageopacity="0.0"
     inkscape:pagecheckerboard="0"
     inkscape:deskcolor="#d1d1d1" />
  <path
     id="path1"
     style="baseline-shift:baseline;display:inline;overflow:visible;vector-effect:none;fill:#000000;stroke:none;stroke-linecap:butt;stroke-linejoin:miter;enable-background:accumulate;stop-color:#000000;stop-opacity:1;opacity:1"
     d="M 12 2.90625 C 11.293462 2.90625 10.587017 3.2537606 10.183594 3.9492188 A 0.10001 0.10001 0 0 0 10.183594 3.9511719 L 2.1835938 17.951172 C 1.380054 19.3459 2.3898563 21.097959 4 21.099609 L 20 21.099609 C 21.610144 21.097909 22.619946 19.3459 21.816406 17.951172 L 21.816406 17.949219 L 13.816406 3.9511719 A 0.10001 0.10001 0 0 0 13.816406 3.9492188 C 13.412983 3.2538045 12.706538 2.90625 12 2.90625 z M 12 3.0996094 C 12.63811 3.0996094 13.275298 3.4176311 13.642578 4.0507812 L 21.642578 18.048828 A 0.10001 0.10001 0 0 0 21.642578 18.050781 C 22.375857 19.320808 21.466555 20.898887 20 20.900391 L 4 20.900391 C 2.5334452 20.898891 1.6241433 19.320855 2.3574219 18.050781 A 0.10001 0.10001 0 0 0 2.3574219 18.048828 L 10.357422 4.0507812 C 10.724702 3.417631 11.36189 3.0996094 12 3.0996094 z " />
</svg>
