<?xml version="1.0" encoding="UTF-8" standalone="no"?>
<svg
   width="24"
   height="24"
   viewBox="0 0 24 24"
   fill="none"
   stroke="currentColor"
   stroke-width="0.2"
   stroke-linecap="round"
   stroke-linejoin="round"
   version="1.1"
   id="svg4"
   sodipodi:docname=".tmp_truck.svg"
   xmlns:inkscape="http://www.inkscape.org/namespaces/inkscape"
   xmlns:sodipodi="http://sodipodi.sourceforge.net/DTD/sodipodi-0.dtd"
   xmlns="http://www.w3.org/2000/svg"
   xmlns:svg="http://www.w3.org/2000/svg">
  <defs
     id="defs4" />
  <sodipodi:namedview
     id="namedview4"
     pagecolor="#ffffff"
     bordercolor="#000000"
     borderopacity="0.25"
     inkscape:showpageshadow="2"
     inkscape:pageopacity="0.0"
     inkscape:pagecheckerboard="0"
     inkscape:deskcolor="#d1d1d1" />
  <path
     id="path1"
     style="baseline-shift:baseline;display:inline;overflow:visible;vector-effect:none;fill:#000000;stroke:none;stroke-linecap:butt;stroke-linejoin:miter;enable-background:accumulate;stop-color:#000000;stop-opacity:1;opacity:1"
     d="M 4 3.9003906 C 2.8413865 3.9003906 1.9003906 4.8413865 1.9003906 6 L 1.9003906 17 C 1.9003906 17.606329 2.3936712 18.099609 3 18.099609 L 4.9023438 18.099609 C 4.9544334 19.212069 5.874776 20.099609 7 20.099609 C 8.125224 20.099609 9.0455666 19.212069 9.0976562 18.099609 L 14.902344 18.099609 C 14.954433 19.212069 15.874776 20.099609 17 20.099609 C 18.125224 20.099609 19.045567 19.212069 19.097656 18.099609 L 21 18.099609 C 21.606329 18.099609 22.099609 17.606329 22.099609 17 L 22.099609 13.349609 C 22.099165 13.099996 22.013629 12.858761 21.857422 12.664062 L 18.378906 8.3144531 C 18.170564 8.0535491 17.853413 7.9008665 17.519531 7.9003906 L 14.099609 7.9003906 L 14.099609 6 C 14.099609 4.8413865 13.158614 3.9003906 12 3.9003906 L 4 3.9003906 z M 4 4.0996094 L 12 4.0996094 C 13.050525 4.0996094 13.900391 4.9494745 13.900391 6 L 13.900391 7.9863281 A 0.1 0.1 0 0 0 13.900391 8 A 0.1 0.1 0 0 0 13.900391 8.0136719 L 13.900391 17.900391 L 9.0976562 17.900391 C 9.0455666 16.787931 8.125224 15.900391 7 15.900391 C 5.874776 15.900391 4.9544334 16.787931 4.9023438 17.900391 L 3 17.900391 C 2.5017593 17.900391 2.0996094 17.498241 2.0996094 17 L 2.0996094 6 C 2.0996094 4.9494745 2.9494745 4.0996094 4 4.0996094 z M 14.099609 8.0996094 L 17.519531 8.0996094 C 17.792842 8.0999989 18.052111 8.2239282 18.222656 8.4375 L 21.701172 12.789062 C 21.828995 12.948386 21.900027 13.145348 21.900391 13.349609 L 21.900391 17 C 21.900391 17.498241 21.498241 17.900391 21 17.900391 L 19.097656 17.900391 C 19.045567 16.787931 18.125224 15.900391 17 15.900391 C 15.874776 15.900391 14.954433 16.787931 14.902344 17.900391 L 14.099609 17.900391 L 14.099609 8.0996094 z M 7 16.099609 C 8.0459409 16.099609 8.8930175 16.942144 8.9003906 17.986328 C 8.9004229 17.990905 8.9003906 17.995415 8.9003906 18 C 8.9003906 18.004585 8.9004229 18.009095 8.9003906 18.013672 C 8.8930175 19.057856 8.0459409 19.900391 7 19.900391 C 5.9540591 19.900391 5.1069825 19.057856 5.0996094 18.013672 A 0.1 0.1 0 0 0 5.0996094 18 A 0.1 0.1 0 0 0 5.0996094 17.986328 C 5.1069825 16.942144 5.9540591 16.099609 7 16.099609 z M 17 16.099609 C 18.050525 16.099609 18.900391 16.949475 18.900391 18 C 18.900391 19.050525 18.050525 19.900391 17 19.900391 C 15.95406 19.900391 15.106982 19.057856 15.099609 18.013672 A 0.1 0.1 0 0 0 15.099609 18 A 0.1 0.1 0 0 0 15.099609 17.986328 C 15.106982 16.942144 15.95406 16.099609 17 16.099609 z " />
</svg>
