<?xml version="1.0" encoding="UTF-8" standalone="no"?>
<svg
   width="24"
   height="24"
   viewBox="0 0 24 24"
   fill="none"
   stroke="currentColor"
   stroke-width="0.2"
   stroke-linecap="round"
   stroke-linejoin="round"
   version="1.1"
   id="svg4"
   sodipodi:docname=".tmp_turtle.svg"
   xmlns:inkscape="http://www.inkscape.org/namespaces/inkscape"
   xmlns:sodipodi="http://sodipodi.sourceforge.net/DTD/sodipodi-0.dtd"
   xmlns="http://www.w3.org/2000/svg"
   xmlns:svg="http://www.w3.org/2000/svg">
  <defs
     id="defs4" />
  <sodipodi:namedview
     id="namedview4"
     pagecolor="#ffffff"
     bordercolor="#000000"
     borderopacity="0.25"
     inkscape:showpageshadow="2"
     inkscape:pageopacity="0.0"
     inkscape:pagecheckerboard="0"
     inkscape:deskcolor="#d1d1d1" />
  <path
     id="path1"
     style="baseline-shift:baseline;display:inline;overflow:visible;vector-effect:none;fill:#000000;stroke:none;stroke-linecap:butt;stroke-linejoin:miter;enable-background:accumulate;stop-color:#000000;stop-opacity:1;opacity:1"
     d="M 10 5.9003906 C 8.009817 5.9003906 6.1876758 6.6191355 4.7773438 7.8105469 A 0.1 0.1 0 0 0 4.7382812 7.8417969 C 3.0050741 9.3243319 1.9050897 11.526613 1.9003906 13.984375 A 0.1 0.1 0 0 0 1.9003906 13.986328 C 1.9003829 13.990939 1.9003906 13.995388 1.9003906 14 A 0.1 0.1 0 0 0 1.9003906 14.013672 L 1.9003906 17 C 1.9003906 17.606329 2.3936712 18.099609 3 18.099609 L 5 18.099609 C 5.6063288 18.099609 6.0996094 17.606329 6.0996094 17 L 6.0996094 14.099609 L 13.900391 14.099609 L 13.900391 17 C 13.900391 17.606329 14.393671 18.099609 15 18.099609 L 17 18.099609 C 17.606329 18.099609 18.099609 17.606329 18.099609 17 L 18.099609 14.099609 L 20 14.099609 C 20.691666 14.099609 21.222558 13.837024 21.574219 13.441406 C 21.925879 13.045788 22.099609 12.522222 22.099609 12 C 22.099609 11.477778 21.925879 10.954212 21.574219 10.558594 C 21.222558 10.162976 20.691666 9.9003906 20 9.9003906 L 16.986328 9.9003906 C 16.528361 9.1217858 15.944312 8.4256677 15.261719 7.8417969 A 0.1 0.1 0 0 0 15.222656 7.8105469 C 13.812324 6.6191357 11.990183 5.9003906 10 5.9003906 z M 10 6.0996094 C 11.902623 6.0996094 13.648249 6.770851 15.011719 7.890625 L 11.96875 9.9003906 L 8.03125 9.9003906 L 4.9882812 7.890625 C 6.3517507 6.770851 8.0973766 6.0996094 10 6.0996094 z M 4.828125 8.0253906 L 7.8710938 10.035156 L 5.9375 13.900391 L 2.0996094 13.900391 C 2.1285796 11.554046 3.1794608 9.4536628 4.828125 8.0253906 z M 15.171875 8.0253906 C 15.833605 8.5986607 16.398104 9.2808536 16.839844 10.042969 A 0.1 0.1 0 0 0 16.84375 10.048828 C 16.845146 10.051242 16.846262 10.054225 16.847656 10.056641 C 17.50186 11.190309 17.883115 12.501188 17.900391 13.900391 L 14.0625 13.900391 L 12.128906 10.035156 L 15.171875 8.0253906 z M 8.0625 10.099609 L 11.9375 10.099609 L 13.837891 13.900391 L 6.1621094 13.900391 L 8.0625 10.099609 z M 17.099609 10.099609 L 20 10.099609 C 20.641666 10.099609 21.110775 10.337024 21.425781 10.691406 C 21.740787 11.045788 21.900391 11.522222 21.900391 12 C 21.900391 12.477778 21.740787 12.954212 21.425781 13.308594 C 21.110775 13.662975 20.641666 13.900391 20 13.900391 L 18.099609 13.900391 C 18.083007 12.523675 17.721781 11.229463 17.099609 10.099609 z M 2.0996094 14.099609 L 5.9003906 14.099609 L 5.9003906 17 C 5.9003906 17.498241 5.4982407 17.900391 5 17.900391 L 3 17.900391 C 2.5017593 17.900391 2.0996094 17.498241 2.0996094 17 L 2.0996094 14.099609 z M 14.099609 14.099609 L 17.900391 14.099609 L 17.900391 17 C 17.900391 17.498241 17.498241 17.900391 17 17.900391 L 15 17.900391 C 14.501759 17.900391 14.099609 17.498241 14.099609 17 L 14.099609 14.099609 z " />
</svg>
