<?xml version="1.0" encoding="UTF-8" standalone="no"?>
<svg
   width="24"
   height="24"
   viewBox="0 0 24 24"
   fill="none"
   stroke="currentColor"
   stroke-width="0.2"
   stroke-linecap="round"
   stroke-linejoin="round"
   version="1.1"
   id="svg2"
   sodipodi:docname=".tmp_undo-dot.svg"
   xmlns:inkscape="http://www.inkscape.org/namespaces/inkscape"
   xmlns:sodipodi="http://sodipodi.sourceforge.net/DTD/sodipodi-0.dtd"
   xmlns="http://www.w3.org/2000/svg"
   xmlns:svg="http://www.w3.org/2000/svg">
  <defs
     id="defs2" />
  <sodipodi:namedview
     id="namedview2"
     pagecolor="#ffffff"
     bordercolor="#000000"
     borderopacity="0.25"
     inkscape:showpageshadow="2"
     inkscape:pageopacity="0.0"
     inkscape:pagecheckerboard="0"
     inkscape:deskcolor="#d1d1d1" />
  <path
     id="path1"
     style="baseline-shift:baseline;display:inline;overflow:visible;vector-effect:none;fill:#000000;stroke:none;stroke-linecap:butt;stroke-linejoin:miter;enable-background:accumulate;stop-color:#000000;stop-opacity:1;opacity:1"
     d="M 2.9863281 6.9003906 A 0.1 0.1 0 0 0 2.9003906 7 L 2.9003906 13 A 0.1 0.1 0 0 0 2.9003906 13.007812 A 0.10001 0.10001 0 0 0 2.9003906 13.013672 A 0.1 0.1 0 0 0 2.9023438 13.019531 A 0.10001 0.10001 0 0 0 2.9042969 13.025391 A 0.1 0.1 0 0 0 2.90625 13.033203 A 0.10001 0.10001 0 0 0 2.9082031 13.037109 A 0.1 0.1 0 0 0 2.9121094 13.044922 A 0.10001 0.10001 0 0 0 2.9140625 13.048828 A 0.1 0.1 0 0 0 2.9179688 13.056641 A 0.10001 0.10001 0 0 0 2.921875 13.060547 A 0.1 0.1 0 0 0 2.9257812 13.066406 A 0.10001 0.10001 0 0 0 2.9296875 13.070312 A 0.1 0.1 0 0 0 2.9355469 13.076172 A 0.10001 0.10001 0 0 0 2.9394531 13.078125 A 0.1 0.1 0 0 0 2.9570312 13.089844 A 0.10001 0.10001 0 0 0 2.9628906 13.091797 A 0.1 0.1 0 0 0 2.96875 13.09375 A 0.10001 0.10001 0 0 0 2.9746094 13.095703 A 0.1 0.1 0 0 0 2.9824219 13.097656 A 0.10001 0.10001 0 0 0 3 13.099609 A 0.1 0.1 0 0 0 3.0078125 13.099609 L 9 13.099609 A 0.1 0.1 0 0 0 9.0996094 13 A 0.1 0.1 0 0 0 9 12.900391 L 3.2597656 12.900391 L 6.0664062 10.375 C 8.9345583 7.809644 12.636772 7.5463257 15.628906 8.8828125 C 18.621041 10.219299 20.896884 13.15197 20.900391 17 A 0.1 0.1 0 0 0 21 17.099609 A 0.1 0.1 0 0 0 21.099609 17 C 21.096031 13.073134 18.768265 10.064825 15.710938 8.6992188 C 14.182272 8.0164155 12.469893 7.7437678 10.773438 7.96875 C 9.0769815 8.1937322 7.3970501 8.9156532 5.9335938 10.224609 A 0.10001 0.10001 0 0 0 5.9335938 10.226562 L 3.0996094 12.777344 L 3.0996094 7 A 0.1 0.1 0 0 0 3 6.9003906 A 0.1 0.1 0 0 0 2.9863281 6.9003906 z M 12 15.900391 C 11.393671 15.900391 10.900391 16.393671 10.900391 17 C 10.900391 17.606329 11.393671 18.099609 12 18.099609 C 12.606329 18.099609 13.099609 17.606329 13.099609 17 C 13.099609 16.393671 12.606329 15.900391 12 15.900391 z M 12 16.099609 C 12.498241 16.099609 12.900391 16.501759 12.900391 17 C 12.900391 17.498241 12.498241 17.900391 12 17.900391 C 11.501759 17.900391 11.099609 17.498241 11.099609 17 C 11.099609 16.501759 11.501759 16.099609 12 16.099609 z " />
</svg>
