<?xml version="1.0" encoding="UTF-8" standalone="no"?>
<svg
   width="24"
   height="24"
   viewBox="0 0 24 24"
   fill="none"
   stroke="currentColor"
   stroke-width="0.2"
   stroke-linecap="round"
   stroke-linejoin="round"
   version="1.1"
   id="svg5"
   sodipodi:docname=".tmp_unlink.svg"
   xmlns:inkscape="http://www.inkscape.org/namespaces/inkscape"
   xmlns:sodipodi="http://sodipodi.sourceforge.net/DTD/sodipodi-0.dtd"
   xmlns="http://www.w3.org/2000/svg"
   xmlns:svg="http://www.w3.org/2000/svg">
  <defs
     id="defs5" />
  <sodipodi:namedview
     id="namedview5"
     pagecolor="#ffffff"
     bordercolor="#000000"
     borderopacity="0.25"
     inkscape:showpageshadow="2"
     inkscape:pageopacity="0.0"
     inkscape:pagecheckerboard="0"
     inkscape:deskcolor="#d1d1d1" />
  <path
     id="path1"
     style="baseline-shift:baseline;display:inline;overflow:visible;vector-effect:none;fill:#000000;stroke:none;stroke-linecap:butt;stroke-linejoin:miter;enable-background:accumulate;stop-color:#000000;stop-opacity:1;opacity:1"
     d="M 7.9863281 1.9003906 A 0.1 0.1 0 0 0 7.9003906 2 L 7.9003906 5 A 0.1 0.1 0 0 0 8 5.0996094 A 0.1 0.1 0 0 0 8.0996094 5 L 8.0996094 2 A 0.1 0.1 0 0 0 8 1.9003906 A 0.1 0.1 0 0 0 7.9863281 1.9003906 z M 16.945312 1.96875 C 15.66741 1.96875 14.389001 2.4450509 13.400391 3.3984375 L 11.679688 5.109375 A 0.1 0.1 0 0 0 11.679688 5.25 A 0.1 0.1 0 0 0 11.820312 5.25 L 13.539062 3.5410156 C 15.440328 1.7074923 18.448344 1.7074923 20.349609 3.5410156 C 22.294077 5.4236115 22.348209 8.5232033 20.46875 10.470703 A 0.10001 0.10001 0 0 0 20.474609 10.484375 L 18.769531 12.179688 A 0.1 0.1 0 0 0 18.769531 12.320312 A 0.1 0.1 0 0 0 18.910156 12.320312 L 20.630859 10.611328 A 0.10001 0.10001 0 0 0 20.623047 10.591797 C 22.561874 8.565642 22.506999 5.3510299 20.490234 3.3984375 C 19.501624 2.4450509 18.223215 1.96875 16.945312 1.96875 z M 1.9863281 7.9003906 A 0.1 0.1 0 0 0 1.9003906 8 A 0.1 0.1 0 0 0 2 8.0996094 L 5 8.0996094 A 0.1 0.1 0 0 0 5.0996094 8 A 0.1 0.1 0 0 0 5 7.9003906 L 2 7.9003906 A 0.1 0.1 0 0 0 1.9863281 7.9003906 z M 5.1699219 11.650391 A 0.1 0.1 0 0 0 5.0996094 11.679688 L 3.3886719 13.388672 A 0.10001 0.10001 0 0 0 3.3886719 13.390625 C 1.4342331 15.415819 1.4877247 18.643862 3.5097656 20.601562 C 5.4869873 22.508336 8.6223881 22.508336 10.599609 20.601562 A 0.10001 0.10001 0 0 0 10.601562 20.601562 L 12.310547 18.890625 A 0.1 0.1 0 0 0 12.310547 18.75 A 0.1 0.1 0 0 0 12.169922 18.75 L 10.458984 20.458984 C 8.557652 22.291322 5.5512461 22.292112 3.6503906 20.458984 C 1.7062885 18.57674 1.6530064 15.478825 3.53125 13.53125 L 3.53125 13.529297 L 5.2402344 11.820312 A 0.1 0.1 0 0 0 5.2402344 11.679688 A 0.1 0.1 0 0 0 5.1699219 11.650391 z M 18.986328 15.900391 A 0.1 0.1 0 0 0 18.900391 16 A 0.1 0.1 0 0 0 19 16.099609 L 22 16.099609 A 0.1 0.1 0 0 0 22.099609 16 A 0.1 0.1 0 0 0 22 15.900391 L 19 15.900391 A 0.1 0.1 0 0 0 18.986328 15.900391 z M 15.986328 18.900391 A 0.1 0.1 0 0 0 15.900391 19 L 15.900391 22 A 0.1 0.1 0 0 0 16 22.099609 A 0.1 0.1 0 0 0 16.099609 22 L 16.099609 19 A 0.1 0.1 0 0 0 16 18.900391 A 0.1 0.1 0 0 0 15.986328 18.900391 z " />
</svg>
