<?xml version="1.0" encoding="UTF-8" standalone="no"?>
<svg
   width="24"
   height="24"
   viewBox="0 0 24 24"
   fill="none"
   stroke="currentColor"
   stroke-width="0.2"
   stroke-linecap="round"
   stroke-linejoin="round"
   version="1.1"
   id="svg1"
   sodipodi:docname=".tmp_volume.svg"
   xmlns:inkscape="http://www.inkscape.org/namespaces/inkscape"
   xmlns:sodipodi="http://sodipodi.sourceforge.net/DTD/sodipodi-0.dtd"
   xmlns="http://www.w3.org/2000/svg"
   xmlns:svg="http://www.w3.org/2000/svg">
  <defs
     id="defs1" />
  <sodipodi:namedview
     id="namedview1"
     pagecolor="#ffffff"
     bordercolor="#000000"
     borderopacity="0.25"
     inkscape:showpageshadow="2"
     inkscape:pageopacity="0.0"
     inkscape:pagecheckerboard="0"
     inkscape:deskcolor="#d1d1d1" />
  <path
     id="path1"
     style="baseline-shift:baseline;display:inline;overflow:visible;vector-effect:none;fill:#000000;stroke:none;stroke-linecap:butt;stroke-linejoin:miter;enable-background:accumulate;stop-color:#000000;stop-opacity:1;opacity:1"
     d="M 10.269531 3.8964844 C 10.077593 3.9017795 9.8831201 3.9765745 9.7265625 4.1328125 L 6.3417969 7.515625 C 6.0968211 7.7620657 5.7634996 7.9014092 5.4160156 7.9003906 L 3 7.9003906 C 2.3936712 7.9003906 1.9003906 8.3936712 1.9003906 9 L 1.9003906 15 C 1.9003906 15.606329 2.3936712 16.099609 3 16.099609 L 5.4160156 16.099609 C 5.7634996 16.098609 6.0968211 16.237934 6.3417969 16.484375 L 9.7246094 19.867188 C 9.9752339 20.118306 10.32427 20.158703 10.603516 20.042969 C 10.882761 19.927235 11.100103 19.653614 11.099609 19.298828 L 11.099609 4.7011719 C 11.099098 4.3472842 10.882273 4.07438 10.603516 3.9589844 C 10.498982 3.915711 10.384694 3.8933073 10.269531 3.8964844 z M 10.277344 4.0957031 C 10.363381 4.0938953 10.448024 4.1116955 10.527344 4.1445312 C 10.738864 4.2320933 10.899995 4.4278107 10.900391 4.7011719 L 10.900391 19.298828 C 10.900772 19.572938 10.739252 19.769596 10.527344 19.857422 C 10.315435 19.945252 10.060821 19.920582 9.8671875 19.726562 L 6.484375 16.341797 C 6.2017712 16.057503 5.8168728 15.899216 5.4160156 15.900391 L 3 15.900391 C 2.5017593 15.900391 2.0996094 15.498241 2.0996094 15 L 2.0996094 9 C 2.0996094 8.5017593 2.5017593 8.0996094 3 8.0996094 L 5.4160156 8.0996094 C 5.8168728 8.1007844 6.2017712 7.9424969 6.484375 7.6582031 L 9.8671875 4.2753906 C 9.9881209 4.1547042 10.133948 4.0987161 10.277344 4.0957031 z " />
</svg>
