<?xml version="1.0" encoding="UTF-8" standalone="no"?>
<svg
   width="24"
   height="24"
   viewBox="0 0 24 24"
   fill="none"
   stroke="currentColor"
   stroke-width="0.2"
   stroke-linecap="round"
   stroke-linejoin="round"
   version="1.1"
   id="svg2"
   sodipodi:docname=".tmp_wallet-minimal.svg"
   xmlns:inkscape="http://www.inkscape.org/namespaces/inkscape"
   xmlns:sodipodi="http://sodipodi.sourceforge.net/DTD/sodipodi-0.dtd"
   xmlns="http://www.w3.org/2000/svg"
   xmlns:svg="http://www.w3.org/2000/svg">
  <defs
     id="defs2" />
  <sodipodi:namedview
     id="namedview2"
     pagecolor="#ffffff"
     bordercolor="#000000"
     borderopacity="0.25"
     inkscape:showpageshadow="2"
     inkscape:pageopacity="0.0"
     inkscape:pagecheckerboard="0"
     inkscape:deskcolor="#d1d1d1" />
  <path
     id="path1"
     style="baseline-shift:baseline;display:inline;overflow:visible;vector-effect:none;fill:#000000;stroke:none;stroke-linecap:butt;stroke-linejoin:miter;enable-background:accumulate;stop-color:#000000;stop-opacity:1;opacity:1"
     d="M 5 2.9003906 C 3.8413865 2.9003906 2.9003906 3.8413865 2.9003906 5 L 2.9003906 19 C 2.9003906 20.158614 3.8413865 21.099609 5 21.099609 L 19 21.099609 C 20.158614 21.099609 21.099609 20.158614 21.099609 19 L 21.099609 9 C 21.099609 7.8413865 20.158614 6.9003906 19 6.9003906 L 7 6.9003906 A 0.1 0.1 0 0 0 6.9003906 7 A 0.1 0.1 0 0 0 7 7.0996094 L 19 7.0996094 C 20.050525 7.0996094 20.900391 7.9494745 20.900391 9 L 20.900391 19 C 20.900391 20.050525 20.050525 20.900391 19 20.900391 L 5 20.900391 C 3.9494745 20.900391 3.0996094 20.050525 3.0996094 19 L 3.0996094 5 C 3.0996094 3.9494745 3.9494745 3.0996094 5 3.0996094 L 19 3.0996094 A 0.1 0.1 0 0 0 19.099609 3 A 0.1 0.1 0 0 0 19 2.9003906 L 5 2.9003906 z M 16.986328 13.900391 A 0.1 0.1 0 0 0 16.900391 14 A 0.1 0.1 0 0 0 17 14.099609 L 17.009766 14.099609 A 0.1 0.1 0 0 0 17.109375 14 A 0.1 0.1 0 0 0 17.009766 13.900391 L 17 13.900391 A 0.1 0.1 0 0 0 16.986328 13.900391 z " />
</svg>
