<?xml version="1.0" encoding="UTF-8" standalone="no"?>
<svg
   width="24"
   height="24"
   viewBox="0 0 24 24"
   fill="none"
   stroke="currentColor"
   stroke-width="0.2"
   stroke-linecap="round"
   stroke-linejoin="round"
   version="1.1"
   id="svg3"
   sodipodi:docname=".tmp_webcam.svg"
   xmlns:inkscape="http://www.inkscape.org/namespaces/inkscape"
   xmlns:sodipodi="http://sodipodi.sourceforge.net/DTD/sodipodi-0.dtd"
   xmlns="http://www.w3.org/2000/svg"
   xmlns:svg="http://www.w3.org/2000/svg">
  <defs
     id="defs3" />
  <sodipodi:namedview
     id="namedview3"
     pagecolor="#ffffff"
     bordercolor="#000000"
     borderopacity="0.25"
     inkscape:showpageshadow="2"
     inkscape:pageopacity="0.0"
     inkscape:pagecheckerboard="0"
     inkscape:deskcolor="#d1d1d1" />
  <path
     id="circle1"
     style="baseline-shift:baseline;display:inline;overflow:visible;vector-effect:none;fill:#000000;stroke:none;stroke-linecap:butt;stroke-linejoin:miter;enable-background:accumulate;stop-color:#000000;stop-opacity:1;opacity:1"
     d="M 12 1.9003906 C 7.527678 1.9003906 3.9003906 5.527678 3.9003906 10 C 3.9003906 14.439072 7.473943 18.046228 11.900391 18.099609 L 11.900391 21.900391 L 7 21.900391 A 0.1 0.1 0 0 0 6.9003906 22 A 0.1 0.1 0 0 0 7 22.099609 L 11.986328 22.099609 L 12.013672 22.099609 L 17 22.099609 A 0.1 0.1 0 0 0 17.099609 22 A 0.1 0.1 0 0 0 17 21.900391 L 12.099609 21.900391 L 12.099609 18.099609 C 16.526057 18.046228 20.099609 14.439072 20.099609 10 C 20.099609 5.527678 16.472322 1.9003906 12 1.9003906 z M 12 2.0996094 C 16.364234 2.0996094 19.900391 5.635766 19.900391 10 C 19.900391 14.359634 16.371559 17.892947 12.013672 17.900391 C 12.009074 17.900398 12.0046 17.900391 12 17.900391 C 11.9954 17.900391 11.990926 17.900398 11.986328 17.900391 C 7.6284411 17.892947 4.0996094 14.359634 4.0996094 10 C 4.0996094 5.635766 7.635766 2.0996094 12 2.0996094 z M 12 6.9003906 C 10.289102 6.9003906 8.9003906 8.2891017 8.9003906 10 C 8.9003906 11.710898 10.289102 13.099609 12 13.099609 C 13.710898 13.099609 15.099609 11.710898 15.099609 10 C 15.099609 8.2891017 13.710898 6.9003906 12 6.9003906 z M 12 7.0996094 C 13.60281 7.0996094 14.900391 8.3971898 14.900391 10 C 14.900391 11.60281 13.60281 12.900391 12 12.900391 C 10.39719 12.900391 9.0996094 11.60281 9.0996094 10 C 9.0996094 8.3971898 10.39719 7.0996094 12 7.0996094 z " />
</svg>
