<?xml version="1.0" encoding="UTF-8" standalone="no"?>
<svg
   width="24"
   height="24"
   viewBox="0 0 24 24"
   fill="none"
   stroke="currentColor"
   stroke-width="0.2"
   stroke-linecap="round"
   stroke-linejoin="round"
   version="1.1"
   id="svg4"
   sodipodi:docname=".tmp_wine.svg"
   xmlns:inkscape="http://www.inkscape.org/namespaces/inkscape"
   xmlns:sodipodi="http://sodipodi.sourceforge.net/DTD/sodipodi-0.dtd"
   xmlns="http://www.w3.org/2000/svg"
   xmlns:svg="http://www.w3.org/2000/svg">
  <defs
     id="defs4" />
  <sodipodi:namedview
     id="namedview4"
     pagecolor="#ffffff"
     bordercolor="#000000"
     borderopacity="0.25"
     inkscape:showpageshadow="2"
     inkscape:pageopacity="0.0"
     inkscape:pagecheckerboard="0"
     inkscape:deskcolor="#d1d1d1" />
  <path
     id="path1"
     style="baseline-shift:baseline;display:inline;overflow:visible;vector-effect:none;fill:#000000;stroke:none;stroke-linecap:butt;stroke-linejoin:miter;enable-background:accumulate;stop-color:#000000;stop-opacity:1;opacity:1"
     d="M 8.9863281 1.9003906 A 0.10001 0.10001 0 0 0 8.90625 1.9648438 C 7.4092559 5.9568282 6.9052222 7.9715088 6.9023438 9.9824219 A 0.1 0.1 0 0 0 6.9003906 10 A 0.1 0.1 0 0 0 6.9003906 10.015625 C 6.908797 12.790595 9.1360875 15.046594 11.900391 15.099609 L 11.900391 21.900391 L 8 21.900391 A 0.1 0.1 0 0 0 7.9003906 22 A 0.1 0.1 0 0 0 8 22.099609 L 16 22.099609 A 0.1 0.1 0 0 0 16.099609 22 A 0.1 0.1 0 0 0 16 21.900391 L 12.099609 21.900391 L 12.099609 15.099609 C 14.863913 15.046594 17.091203 12.790595 17.099609 10.015625 C 17.099611 10.014968 17.099608 10.014329 17.099609 10.013672 A 0.1 0.1 0 0 0 17.099609 10 C 17.099609 9.995552 17.099614 9.9907762 17.099609 9.9863281 A 0.1 0.1 0 0 0 17.097656 9.9824219 C 17.094778 7.9715088 16.590745 5.9568282 15.09375 1.9648438 A 0.10001 0.10001 0 0 0 15 1.9003906 L 9 1.9003906 A 0.10001 0.10001 0 0 0 8.9863281 1.9003906 z M 9.0722656 2.0996094 L 14.927734 2.0996094 C 16.377835 5.9754185 16.883765 7.9626058 16.900391 9.9003906 L 7.0996094 9.9003906 C 7.1162347 7.9626058 7.6221654 5.9754185 9.0722656 2.0996094 z M 7.1015625 10.099609 L 16.898438 10.099609 C 16.845525 12.756394 14.68145 14.893057 12.013672 14.900391 A 0.1 0.1 0 0 0 12 14.900391 C 11.995406 14.900391 11.990919 14.900403 11.986328 14.900391 C 9.3185501 14.893057 7.1544754 12.756394 7.1015625 10.099609 z " />
</svg>
