<?xml version="1.0" encoding="UTF-8" standalone="no"?>
<svg
   width="24"
   height="24"
   viewBox="0 0 24 24"
   fill="none"
   stroke="currentColor"
   stroke-width="0.2"
   stroke-linecap="round"
   stroke-linejoin="round"
   version="1.1"
   id="svg3"
   sodipodi:docname=".tmp_worm.svg"
   xmlns:inkscape="http://www.inkscape.org/namespaces/inkscape"
   xmlns:sodipodi="http://sodipodi.sourceforge.net/DTD/sodipodi-0.dtd"
   xmlns="http://www.w3.org/2000/svg"
   xmlns:svg="http://www.w3.org/2000/svg">
  <defs
     id="defs3" />
  <sodipodi:namedview
     id="namedview3"
     pagecolor="#ffffff"
     bordercolor="#000000"
     borderopacity="0.25"
     inkscape:showpageshadow="2"
     inkscape:pageopacity="0.0"
     inkscape:pagecheckerboard="0"
     inkscape:deskcolor="#d1d1d1" />
  <path
     id="path1"
     style="baseline-shift:baseline;display:inline;overflow:visible;vector-effect:none;fill:#000000;stroke:none;stroke-linecap:butt;stroke-linejoin:miter;enable-background:accumulate;stop-color:#000000;stop-opacity:1;opacity:1"
     d="M 6.9472656 2.84375 C 5.9293301 2.9085813 4.888663 3.215371 3.8886719 3.8144531 L 3.1894531 4.2128906 C 2.4445654 4.6505551 2.0400701 5.2676265 1.9121094 5.9140625 C 1.7841487 6.5604985 1.927805 7.2332621 2.2578125 7.7949219 C 2.58782 8.3565816 3.1054464 8.8108043 3.7324219 9.0136719 C 4.3593974 9.2165394 5.094956 9.164227 5.8398438 8.7265625 A 0.10001 0.10001 0 0 0 5.8417969 8.7265625 L 6.5195312 8.3164062 C 7.1396439 7.9661166 7.807512 8.0814958 8.2773438 8.453125 C 8.7471755 8.8247542 9.0125336 9.4487019 8.8144531 10.132812 L 8.1738281 12.210938 C 7.2138549 15.280354 8.4444984 18.11433 10.587891 19.732422 C 12.731282 21.350514 15.795389 21.758288 18.484375 19.994141 L 18.904297 19.724609 C 19.248111 19.501661 19.512746 19.240639 19.707031 18.958984 L 21.955078 20.089844 A 0.1 0.1 0 0 0 22.089844 20.044922 A 0.1 0.1 0 0 0 22.044922 19.910156 L 19.814453 18.791016 C 19.965061 18.529277 20.058945 18.252082 20.101562 17.972656 C 20.200623 17.323198 20.027172 16.66013 19.673828 16.115234 C 19.320488 15.570339 18.78571 15.141312 18.152344 14.966797 C 17.996505 14.923857 17.833952 14.896404 17.667969 14.886719 L 19.089844 12.044922 A 0.1 0.1 0 0 0 19.044922 11.910156 A 0.1 0.1 0 0 0 18.910156 11.955078 L 17.445312 14.884766 C 17.001172 14.901176 16.532322 15.043575 16.066406 15.345703 L 15.646484 15.615234 C 14.993833 16.029911 14.268145 15.928161 13.753906 15.539062 C 13.239668 15.149961 12.944371 14.479081 13.166016 13.738281 L 13.804688 11.660156 C 14.746029 8.6975498 13.602699 5.9313361 11.556641 4.3125 C 10.533612 3.5030819 9.283121 2.9791679 7.9550781 2.8574219 C 7.6230674 2.8269854 7.2865775 2.8221396 6.9472656 2.84375 z M 6.9628906 3.0410156 C 7.2918952 3.0199788 7.6175884 3.0250541 7.9394531 3.0546875 C 9.2269123 3.173221 10.439724 3.6824031 11.433594 4.46875 C 13.421332 6.0414439 14.531595 8.7156282 13.615234 11.599609 A 0.10001 0.10001 0 0 0 13.615234 11.601562 L 12.974609 13.679688 A 0.10001 0.10001 0 0 0 12.974609 13.681641 C 12.729236 14.501746 13.061039 15.263156 13.634766 15.697266 C 14.208489 16.131375 15.031386 16.244226 15.753906 15.785156 A 0.10001 0.10001 0 0 0 15.753906 15.783203 L 16.173828 15.513672 C 16.610049 15.230802 17.0402 15.099631 17.445312 15.083984 A 0.1 0.1 0 0 0 17.455078 15.089844 A 0.1 0.1 0 0 0 17.556641 15.082031 C 17.743755 15.084621 17.925845 15.112278 18.099609 15.160156 C 18.679785 15.320016 19.1767 15.717005 19.505859 16.224609 C 19.835019 16.732214 19.995033 17.348443 19.904297 17.943359 C 19.864279 18.205729 19.775234 18.463686 19.630859 18.708984 A 0.1 0.1 0 0 0 19.541016 18.765625 A 0.1 0.1 0 0 0 19.541016 18.851562 C 19.362319 19.108455 19.116775 19.347933 18.794922 19.556641 L 18.375 19.826172 C 15.755902 21.544468 12.79232 21.146973 10.708984 19.574219 C 8.6256487 18.001464 7.4302113 15.259172 8.3652344 12.269531 L 9.0058594 10.189453 A 0.10001 0.10001 0 0 0 9.0058594 10.1875 C 9.2264485 9.4256989 8.9275535 8.7138522 8.4003906 8.296875 C 7.8732278 7.8798978 7.1105003 7.7524839 6.4199219 8.1425781 A 0.10001 0.10001 0 0 0 6.4179688 8.1445312 L 5.7382812 8.5546875 C 5.0372606 8.9658888 4.3688383 9.0079651 3.7949219 8.8222656 C 3.2204393 8.636383 2.7391332 8.2186527 2.4316406 7.6953125 C 2.1241481 7.1719723 1.9921277 6.5454388 2.109375 5.953125 C 2.2266223 5.3608112 2.5892374 4.7990539 3.2910156 4.3867188 L 3.9902344 3.9863281 A 0.10001 0.10001 0 0 0 3.9921875 3.9863281 C 4.9656424 3.403145 5.975877 3.104126 6.9628906 3.0410156 z " />
</svg>
