<?xml version="1.0" encoding="UTF-8" standalone="no"?>
<svg
   width="24"
   height="24"
   viewBox="0 0 24 24"
   fill="none"
   stroke="currentColor"
   stroke-width="0.2"
   stroke-linecap="round"
   stroke-linejoin="round"
   version="1.1"
   id="svg1"
   sodipodi:docname=".tmp_zap.svg"
   xmlns:inkscape="http://www.inkscape.org/namespaces/inkscape"
   xmlns:sodipodi="http://sodipodi.sourceforge.net/DTD/sodipodi-0.dtd"
   xmlns="http://www.w3.org/2000/svg"
   xmlns:svg="http://www.w3.org/2000/svg">
  <defs
     id="defs1" />
  <sodipodi:namedview
     id="namedview1"
     pagecolor="#ffffff"
     bordercolor="#000000"
     borderopacity="0.25"
     inkscape:showpageshadow="2"
     inkscape:pageopacity="0.0"
     inkscape:pagecheckerboard="0"
     inkscape:deskcolor="#d1d1d1" />
  <path
     id="path1"
     style="baseline-shift:baseline;display:inline;overflow:visible;vector-effect:none;fill:#000000;stroke:none;stroke-linecap:butt;stroke-linejoin:miter;enable-background:accumulate;stop-color:#000000;stop-opacity:1;opacity:1"
     d="M 13.503906 1.8964844 C 13.340978 1.8941317 13.172381 1.9583459 13.044922 2.1054688 L 3.1484375 12.300781 A 0.10001 0.10001 0 0 0 3.1425781 12.306641 C 2.5625225 13.02162 3.0792898 14.102749 4 14.099609 L 11 14.099609 C 11.63242 14.097509 12.067055 14.722032 11.845703 15.314453 A 0.10001 0.10001 0 0 0 11.845703 15.320312 L 9.9238281 21.339844 A 0.10001 0.10001 0 0 0 9.9238281 21.34375 C 9.8412291 21.644047 9.9940841 21.91108 10.21875 22.03125 C 10.443416 22.15142 10.751143 22.12993 10.955078 21.894531 L 20.851562 11.699219 A 0.10001 0.10001 0 0 0 20.857422 11.693359 C 21.437438 10.978346 20.92071 9.8972514 20 9.9003906 L 13 9.9003906 C 12.36758 9.9024506 11.932945 9.2779676 12.154297 8.6855469 A 0.10001 0.10001 0 0 0 12.154297 8.6796875 L 14.076172 2.6601562 A 0.10001 0.10001 0 0 0 14.076172 2.65625 C 14.158772 2.3559527 14.005912 2.0889204 13.78125 1.96875 C 13.697 1.9236861 13.601663 1.897896 13.503906 1.8964844 z M 13.470703 2.09375 C 13.545834 2.0896612 13.620359 2.1086186 13.6875 2.1445312 C 13.840965 2.2266172 13.941449 2.3903309 13.882812 2.6035156 L 11.966797 8.6152344 C 11.698784 9.3325381 12.234266 10.1021 13 10.099609 L 20 10.099609 C 20.765824 10.097009 21.185602 10.971671 20.703125 11.566406 L 10.808594 21.759766 A 0.10001 0.10001 0 0 0 10.804688 21.763672 C 10.659911 21.930783 10.465965 21.937552 10.3125 21.855469 C 10.159035 21.773379 10.058549 21.609669 10.117188 21.396484 L 12.033203 15.384766 C 12.30121 14.667465 11.765734 13.8979 11 13.900391 L 4 13.900391 C 3.2341757 13.903002 2.8143984 13.028329 3.296875 12.433594 L 13.191406 2.2402344 A 0.10001 0.10001 0 0 0 13.195312 2.2363281 C 13.276752 2.1423304 13.374106 2.0990071 13.470703 2.09375 z " />
</svg>
