<?xml version="1.0" encoding="UTF-8" standalone="no"?>
<svg
   width="24"
   height="24"
   viewBox="0 0 24 24"
   fill="none"
   stroke="currentColor"
   stroke-width="2"
   stroke-linecap="round"
   stroke-linejoin="round"
   version="1.1"
   id="svg3"
   sodipodi:docname=".tmp_app-window-mac.svg"
   xmlns:inkscape="http://www.inkscape.org/namespaces/inkscape"
   xmlns:sodipodi="http://sodipodi.sourceforge.net/DTD/sodipodi-0.dtd"
   xmlns="http://www.w3.org/2000/svg"
   xmlns:svg="http://www.w3.org/2000/svg">
  <defs
     id="defs3" />
  <sodipodi:namedview
     id="namedview3"
     pagecolor="#ffffff"
     bordercolor="#000000"
     borderopacity="0.25"
     inkscape:showpageshadow="2"
     inkscape:pageopacity="0.0"
     inkscape:pagecheckerboard="0"
     inkscape:deskcolor="#d1d1d1" />
  <path
     id="rect1"
     style="baseline-shift:baseline;display:inline;overflow:visible;vector-effect:none;fill:#000000;stroke:none;stroke-linecap:butt;stroke-linejoin:miter;enable-background:accumulate;stop-color:#000000;stop-opacity:1;opacity:1"
     d="M 4 3 C 2.3552972 3 1 4.3552972 1 6 L 1 18 C 1 19.644703 2.3552972 21 4 21 L 20 21 C 21.644703 21 23 19.644703 23 18 L 23 6 C 23 4.3552972 21.644703 3 20 3 L 4 3 z M 4 5 L 20 5 C 20.571297 5 21 5.4287028 21 6 L 21 18 C 21 18.571297 20.571297 19 20 19 L 4 19 C 3.4287028 19 3 18.571297 3 18 L 3 6 C 3 5.4287028 3.4287028 5 4 5 z M 6 7 A 1 1 0 0 0 5 8 A 1 1 0 0 0 6 9 L 6.0097656 9 A 1 1 0 0 0 7.0097656 8 A 1 1 0 0 0 6.0097656 7 L 6 7 z M 10 7 A 1 1 0 0 0 9 8 A 1 1 0 0 0 10 9 L 10.009766 9 A 1 1 0 0 0 11.009766 8 A 1 1 0 0 0 10.009766 7 L 10 7 z M 14 7 A 1 1 0 0 0 13 8 A 1 1 0 0 0 14 9 L 14.009766 9 A 1 1 0 0 0 15.009766 8 A 1 1 0 0 0 14.009766 7 L 14 7 z " />
</svg>
