<?xml version="1.0" encoding="UTF-8" standalone="no"?>
<svg
   width="24"
   height="24"
   viewBox="0 0 24 24"
   fill="none"
   stroke="currentColor"
   stroke-width="2"
   stroke-linecap="round"
   stroke-linejoin="round"
   version="1.1"
   id="svg2"
   sodipodi:docname=".tmp_arrow-down-right.svg"
   xmlns:inkscape="http://www.inkscape.org/namespaces/inkscape"
   xmlns:sodipodi="http://sodipodi.sourceforge.net/DTD/sodipodi-0.dtd"
   xmlns="http://www.w3.org/2000/svg"
   xmlns:svg="http://www.w3.org/2000/svg">
  <defs
     id="defs2" />
  <sodipodi:namedview
     id="namedview2"
     pagecolor="#ffffff"
     bordercolor="#000000"
     borderopacity="0.25"
     inkscape:showpageshadow="2"
     inkscape:pageopacity="0.0"
     inkscape:pagecheckerboard="0"
     inkscape:deskcolor="#d1d1d1" />
  <path
     id="path1"
     style="baseline-shift:baseline;display:inline;overflow:visible;vector-effect:none;fill:#000000;stroke:none;stroke-linecap:butt;stroke-linejoin:miter;enable-background:accumulate;stop-color:#000000;stop-opacity:1;opacity:1"
     d="M 7 6 A 1 1 0 0 0 6.2929688 6.2929688 A 1 1 0 0 0 6.2929688 7.7070312 L 14.585938 16 L 7 16 A 1 1 0 0 0 6 17 A 1 1 0 0 0 7 18 L 17 18 A 1 1 0 0 0 17.130859 17.992188 A 1.0001 1.0001 0 0 0 17.382812 17.923828 A 1 1 0 0 0 17.707031 17.707031 A 1 1 0 0 0 17.923828 17.382812 A 1.0001 1.0001 0 0 0 17.992188 17.130859 A 1 1 0 0 0 18 17 L 18 7 A 1 1 0 0 0 17 6 A 1 1 0 0 0 16 7 L 16 14.585938 L 7.7070312 6.2929688 A 1 1 0 0 0 7 6 z " />
</svg>
