<?xml version="1.0" encoding="UTF-8" standalone="no"?>
<svg
   width="24"
   height="24"
   viewBox="0 0 24 24"
   fill="none"
   stroke="currentColor"
   stroke-width="2"
   stroke-linecap="round"
   stroke-linejoin="round"
   version="1.1"
   id="svg2"
   sodipodi:docname=".tmp_arrow-down.svg"
   xmlns:inkscape="http://www.inkscape.org/namespaces/inkscape"
   xmlns:sodipodi="http://sodipodi.sourceforge.net/DTD/sodipodi-0.dtd"
   xmlns="http://www.w3.org/2000/svg"
   xmlns:svg="http://www.w3.org/2000/svg">
  <defs
     id="defs2" />
  <sodipodi:namedview
     id="namedview2"
     pagecolor="#ffffff"
     bordercolor="#000000"
     borderopacity="0.25"
     inkscape:showpageshadow="2"
     inkscape:pageopacity="0.0"
     inkscape:pagecheckerboard="0"
     inkscape:deskcolor="#d1d1d1" />
  <path
     id="path1"
     style="baseline-shift:baseline;display:inline;overflow:visible;vector-effect:none;fill:#000000;stroke:none;stroke-linecap:butt;stroke-linejoin:miter;enable-background:accumulate;stop-color:#000000;stop-opacity:1;opacity:1"
     d="M 12 4 A 1 1 0 0 0 11 5 L 11 16.585938 L 5.7070312 11.292969 A 1 1 0 0 0 5 11 A 1 1 0 0 0 4.2929688 11.292969 A 1 1 0 0 0 4.2929688 12.707031 L 11.283203 19.697266 L 11.292969 19.707031 A 1.0001 1.0001 0 0 0 11.341797 19.75 A 1 1 0 0 0 11.384766 19.787109 A 1.0001 1.0001 0 0 0 11.439453 19.824219 A 1 1 0 0 0 11.492188 19.861328 A 1.0001 1.0001 0 0 0 11.5 19.865234 A 1 1 0 0 0 11.611328 19.921875 A 1.0001 1.0001 0 0 0 11.617188 19.923828 A 1 1 0 0 0 11.742188 19.964844 A 1 1 0 0 0 11.794922 19.976562 A 1.0001 1.0001 0 0 0 12 20 A 1.0001 1.0001 0 0 0 12.205078 19.976562 A 1.0001 1.0001 0 0 0 12.257812 19.964844 A 1 1 0 0 0 12.382812 19.923828 A 1.0001 1.0001 0 0 0 12.560547 19.824219 A 1 1 0 0 0 12.615234 19.787109 A 1.0001 1.0001 0 0 0 12.658203 19.75 A 1 1 0 0 0 12.716797 19.697266 L 19.707031 12.707031 A 1 1 0 0 0 19.707031 11.292969 A 1 1 0 0 0 18.292969 11.292969 L 13 16.585938 L 13 5 A 1 1 0 0 0 12 4 z " />
</svg>
