<?xml version="1.0" encoding="UTF-8" standalone="no"?>
<svg
   width="24"
   height="24"
   viewBox="0 0 24 24"
   fill="none"
   stroke="currentColor"
   stroke-width="2"
   stroke-linecap="round"
   stroke-linejoin="round"
   version="1.1"
   id="svg4"
   sodipodi:docname=".tmp_arrow-right-left.svg"
   xmlns:inkscape="http://www.inkscape.org/namespaces/inkscape"
   xmlns:sodipodi="http://sodipodi.sourceforge.net/DTD/sodipodi-0.dtd"
   xmlns="http://www.w3.org/2000/svg"
   xmlns:svg="http://www.w3.org/2000/svg">
  <defs
     id="defs4" />
  <sodipodi:namedview
     id="namedview4"
     pagecolor="#ffffff"
     bordercolor="#000000"
     borderopacity="0.25"
     inkscape:showpageshadow="2"
     inkscape:pageopacity="0.0"
     inkscape:pagecheckerboard="0"
     inkscape:deskcolor="#d1d1d1" />
  <path
     id="path1"
     style="baseline-shift:baseline;display:inline;overflow:visible;vector-effect:none;fill:#000000;stroke:none;stroke-linecap:butt;stroke-linejoin:miter;enable-background:accumulate;stop-color:#000000;stop-opacity:1;opacity:1"
     d="M 16 2 A 1 1 0 0 0 15.292969 2.2929688 A 1 1 0 0 0 15.292969 3.7070312 L 17.585938 6 L 4 6 A 1 1 0 0 0 3 7 A 1 1 0 0 0 4 8 L 17.585938 8 L 15.292969 10.292969 A 1 1 0 0 0 15.292969 11.707031 A 1 1 0 0 0 16.707031 11.707031 L 20.697266 7.7167969 A 1 1 0 0 0 20.707031 7.7070312 A 1.0001 1.0001 0 0 0 20.785156 7.6191406 A 1 1 0 0 0 20.792969 7.609375 A 1.0001 1.0001 0 0 0 20.861328 7.5078125 A 1 1 0 0 0 20.865234 7.5 A 1.0001 1.0001 0 0 0 20.921875 7.3886719 A 1 1 0 0 0 20.964844 7.2578125 A 1.0001 1.0001 0 0 0 20.964844 6.7421875 A 1 1 0 0 0 20.923828 6.6171875 A 1.0001 1.0001 0 0 0 20.921875 6.6113281 A 1 1 0 0 0 20.865234 6.5 A 1.0001 1.0001 0 0 0 20.861328 6.4921875 A 1 1 0 0 0 20.792969 6.390625 A 1.0001 1.0001 0 0 0 20.785156 6.3808594 A 1 1 0 0 0 20.707031 6.2929688 L 16.707031 2.2929688 A 1 1 0 0 0 16 2 z M 8 12 A 1 1 0 0 0 7.2929688 12.292969 L 3.3027344 16.283203 L 3.2929688 16.292969 A 1.0001 1.0001 0 0 0 3.25 16.341797 A 1 1 0 0 0 3.2128906 16.384766 A 1.0001 1.0001 0 0 0 3.1757812 16.439453 A 1 1 0 0 0 3.1386719 16.492188 A 1.0001 1.0001 0 0 0 3.1347656 16.5 A 1 1 0 0 0 3.078125 16.611328 A 1.0001 1.0001 0 0 0 3.0761719 16.617188 A 1 1 0 0 0 3.0351562 16.742188 A 1 1 0 0 0 3.0234375 16.794922 A 1.0001 1.0001 0 0 0 3 17 A 1.0001 1.0001 0 0 0 3.0234375 17.205078 A 1.0001 1.0001 0 0 0 3.0351562 17.257812 A 1 1 0 0 0 3.0761719 17.382812 A 1 1 0 0 0 3.078125 17.388672 A 1.0001 1.0001 0 0 0 3.1347656 17.5 A 1 1 0 0 0 3.1757812 17.560547 A 1.0001 1.0001 0 0 0 3.2128906 17.615234 A 1 1 0 0 0 3.25 17.658203 A 1.0001 1.0001 0 0 0 3.2929688 17.707031 A 1 1 0 0 0 3.3027344 17.716797 L 7.2929688 21.707031 A 1 1 0 0 0 8.7070312 21.707031 A 1 1 0 0 0 8.7070312 20.292969 L 6.4140625 18 L 20 18 A 1 1 0 0 0 21 17 A 1 1 0 0 0 20 16 L 6.4140625 16 L 8.7070312 13.707031 A 1 1 0 0 0 8.7070312 12.292969 A 1 1 0 0 0 8 12 z " />
</svg>
