<?xml version="1.0" encoding="UTF-8" standalone="no"?>
<svg
   width="24"
   height="24"
   viewBox="0 0 24 24"
   fill="none"
   stroke="currentColor"
   stroke-width="2"
   stroke-linecap="round"
   stroke-linejoin="round"
   version="1.1"
   id="svg5"
   sodipodi:docname=".tmp_door-open.svg"
   xmlns:inkscape="http://www.inkscape.org/namespaces/inkscape"
   xmlns:sodipodi="http://sodipodi.sourceforge.net/DTD/sodipodi-0.dtd"
   xmlns="http://www.w3.org/2000/svg"
   xmlns:svg="http://www.w3.org/2000/svg">
  <defs
     id="defs5" />
  <sodipodi:namedview
     id="namedview5"
     pagecolor="#ffffff"
     bordercolor="#000000"
     borderopacity="0.25"
     inkscape:showpageshadow="2"
     inkscape:pageopacity="0.0"
     inkscape:pagecheckerboard="0"
     inkscape:deskcolor="#d1d1d1" />
  <path
     id="path1"
     style="baseline-shift:baseline;display:inline;overflow:visible;vector-effect:none;fill:#000000;stroke:none;stroke-linecap:butt;stroke-linejoin:miter;enable-background:accumulate;stop-color:#000000;stop-opacity:1;opacity:1"
     d="M 13.03125 1.5644531 C 12.802004 1.5631078 12.575912 1.5885549 12.357422 1.6386719 C 11.568679 1.8195923 10.876104 2.3173808 10.449219 3 L 8 3 C 6.3549904 3 5 4.3549904 5 6 L 5 19 L 2 19 A 1 1 0 0 0 1 20 A 1 1 0 0 0 2 21 L 10.019531 21 C 10.185878 22.133862 11.338603 22.945928 12.484375 22.660156 A 1.0001 1.0001 0 0 0 12.484375 22.658203 L 19.125 21 L 22 21 A 1 1 0 0 0 23 20 A 1 1 0 0 0 22 19 L 20 19 L 20 5.5625 C 19.999792 4.191169 19.056961 2.9848914 17.726562 2.6523438 L 13.726562 1.6523438 C 13.492895 1.5939361 13.260496 1.5657984 13.03125 1.5644531 z M 13.001953 3.5585938 C 13.080553 3.5603641 13.160498 3.5713776 13.242188 3.5917969 L 17.242188 4.5917969 C 17.692307 4.7043092 17.99993 5.0985315 18 5.5625 L 18 19.21875 L 12 20.71875 L 12 4.5625 L 12 4.5605469 C 12.0014 3.9715024 12.451756 3.5462014 13.001953 3.5585938 z M 8 5 L 10 5 L 10 19 L 7 19 L 7 6 C 7 5.4358706 7.4358706 5 8 5 z M 14 11 A 1 1 0 0 0 13 12 A 1 1 0 0 0 14 13 L 14.009766 13 A 1 1 0 0 0 15.009766 12 A 1 1 0 0 0 14.009766 11 L 14 11 z " />
</svg>
