<?xml version="1.0" encoding="UTF-8" standalone="no"?>
<svg
   width="24"
   height="24"
   viewBox="0 0 24 24"
   fill="none"
   stroke="currentColor"
   stroke-width="2"
   stroke-linecap="round"
   stroke-linejoin="round"
   version="1.1"
   id="svg2"
   sodipodi:docname=".tmp_gallery-vertical.svg"
   xmlns:inkscape="http://www.inkscape.org/namespaces/inkscape"
   xmlns:sodipodi="http://sodipodi.sourceforge.net/DTD/sodipodi-0.dtd"
   xmlns="http://www.w3.org/2000/svg"
   xmlns:svg="http://www.w3.org/2000/svg">
  <defs
     id="defs2" />
  <sodipodi:namedview
     id="namedview2"
     pagecolor="#ffffff"
     bordercolor="#000000"
     borderopacity="0.25"
     inkscape:showpageshadow="2"
     inkscape:pageopacity="0.0"
     inkscape:pagecheckerboard="0"
     inkscape:deskcolor="#d1d1d1" />
  <path
     id="path1"
     style="baseline-shift:baseline;display:inline;overflow:visible;vector-effect:none;fill:#000000;stroke:none;stroke-linecap:butt;stroke-linejoin:miter;enable-background:accumulate;stop-color:#000000;stop-opacity:1;opacity:1"
     d="M 3 1 A 1 1 0 0 0 2 2 A 1 1 0 0 0 3 3 L 21 3 A 1 1 0 0 0 22 2 A 1 1 0 0 0 21 1 L 3 1 z M 5 5 C 3.3552972 5 2 6.3552972 2 8 L 2 16 C 2 17.644703 3.3552972 19 5 19 L 19 19 C 20.644703 19 22 17.644703 22 16 L 22 8 C 22 6.3552972 20.644703 5 19 5 L 5 5 z M 5 7 L 19 7 C 19.571297 7 20 7.4287028 20 8 L 20 16 C 20 16.571297 19.571297 17 19 17 L 5 17 C 4.4287028 17 4 16.571297 4 16 L 4 8 C 4 7.4287028 4.4287028 7 5 7 z M 3 21 A 1 1 0 0 0 2 22 A 1 1 0 0 0 3 23 L 21 23 A 1 1 0 0 0 22 22 A 1 1 0 0 0 21 21 L 3 21 z " />
</svg>
