<?xml version="1.0" encoding="UTF-8" standalone="no"?>
<svg
   width="24"
   height="24"
   viewBox="0 0 24 24"
   fill="none"
   stroke="currentColor"
   stroke-width="2"
   stroke-linecap="round"
   stroke-linejoin="round"
   version="1.1"
   id="svg5"
   sodipodi:docname=".tmp_locate-fixed.svg"
   xmlns:inkscape="http://www.inkscape.org/namespaces/inkscape"
   xmlns:sodipodi="http://sodipodi.sourceforge.net/DTD/sodipodi-0.dtd"
   xmlns="http://www.w3.org/2000/svg"
   xmlns:svg="http://www.w3.org/2000/svg">
  <defs
     id="defs5" />
  <sodipodi:namedview
     id="namedview5"
     pagecolor="#ffffff"
     bordercolor="#000000"
     borderopacity="0.25"
     inkscape:showpageshadow="2"
     inkscape:pageopacity="0.0"
     inkscape:pagecheckerboard="0"
     inkscape:deskcolor="#d1d1d1" />
  <path
     id="line1"
     style="baseline-shift:baseline;display:inline;overflow:visible;vector-effect:none;fill:#000000;stroke:none;stroke-linecap:butt;stroke-linejoin:miter;enable-background:accumulate;stop-color:#000000;stop-opacity:1;opacity:1"
     d="M 12 1 A 1 1 0 0 0 11 2 L 11 4.0625 C 7.3902768 4.5159526 4.5159526 7.3902768 4.0625 11 L 2 11 A 1 1 0 0 0 1 12 A 1 1 0 0 0 2 13 L 4.0625 13 C 4.5159526 16.609723 7.3902768 19.484047 11 19.9375 L 11 22 A 1 1 0 0 0 12 23 A 1 1 0 0 0 13 22 L 13 19.9375 C 16.609723 19.484047 19.484047 16.609723 19.9375 13 L 22 13 A 1 1 0 0 0 23 12 A 1 1 0 0 0 22 11 L 19.9375 11 C 19.484047 7.3902768 16.609723 4.5159526 13 4.0625 L 13 2 A 1 1 0 0 0 12 1 z M 12 6 C 15.325553 6 18 8.6744469 18 12 C 18 15.325553 15.325553 18 12 18 C 8.6744469 18 6 15.325553 6 12 C 6 8.6744469 8.6744469 6 12 6 z M 12 8 C 9.8027056 8 8 9.8027056 8 12 C 8 14.197294 9.8027056 16 12 16 C 14.197294 16 16 14.197294 16 12 C 16 9.8027056 14.197294 8 12 8 z M 12 10 C 13.116414 10 14 10.883586 14 12 C 14 13.116414 13.116414 14 12 14 C 10.883586 14 10 13.116414 10 12 C 10 10.883586 10.883586 10 12 10 z " />
</svg>
