<?xml version="1.0" encoding="UTF-8" standalone="no"?>
<svg
   width="24"
   height="24"
   viewBox="0 0 24 24"
   fill="none"
   stroke="currentColor"
   stroke-width="2"
   stroke-linecap="round"
   stroke-linejoin="round"
   version="1.1"
   id="svg2"
   sodipodi:docname=".tmp_pill-bottle.svg"
   xmlns:inkscape="http://www.inkscape.org/namespaces/inkscape"
   xmlns:sodipodi="http://sodipodi.sourceforge.net/DTD/sodipodi-0.dtd"
   xmlns="http://www.w3.org/2000/svg"
   xmlns:svg="http://www.w3.org/2000/svg">
  <defs
     id="defs2" />
  <sodipodi:namedview
     id="namedview2"
     pagecolor="#ffffff"
     bordercolor="#000000"
     borderopacity="0.25"
     inkscape:showpageshadow="2"
     inkscape:pageopacity="0.0"
     inkscape:pagecheckerboard="0"
     inkscape:deskcolor="#d1d1d1" />
  <path
     id="path1"
     style="baseline-shift:baseline;display:inline;overflow:visible;vector-effect:none;fill:#000000;stroke:none;stroke-linecap:butt;stroke-linejoin:miter;enable-background:accumulate;stop-color:#000000;stop-opacity:1;opacity:1"
     d="M 5 1 C 3.9092972 1 3 1.9092972 3 3 L 3 6 C 3 7.0907028 3.9092972 8 5 8 L 5 20 C 5 21.64501 6.3549904 23 8 23 L 16 23 C 17.64501 23 19 21.64501 19 20 L 19 8 C 20.090703 8 21 7.0907028 21 6 L 21 3 C 21 1.9092972 20.090703 1 19 1 L 5 1 z M 5 3 L 19 3 L 19 6 L 18 6 L 6 6 L 5 6 L 5 3 z M 7 8 L 17 8 L 17 10 L 14 10 C 12.907275 10 12 10.907275 12 12 L 12 17 C 12 18.092725 12.907275 19 14 19 L 17 19 L 17 20 C 17 20.564129 16.564129 21 16 21 L 8 21 C 7.4358706 21 7 20.564129 7 20 L 7 8 z M 14 12 L 17 12 L 17 17 L 14 17 L 14 12 z " />
</svg>
