<?xml version="1.0" encoding="UTF-8" standalone="no"?>
<svg
   width="24"
   height="24"
   viewBox="0 0 24 24"
   fill="none"
   stroke="currentColor"
   stroke-width="2"
   stroke-linecap="round"
   stroke-linejoin="round"
   version="1.1"
   id="svg3"
   sodipodi:docname=".tmp_webcam.svg"
   xmlns:inkscape="http://www.inkscape.org/namespaces/inkscape"
   xmlns:sodipodi="http://sodipodi.sourceforge.net/DTD/sodipodi-0.dtd"
   xmlns="http://www.w3.org/2000/svg"
   xmlns:svg="http://www.w3.org/2000/svg">
  <defs
     id="defs3" />
  <sodipodi:namedview
     id="namedview3"
     pagecolor="#ffffff"
     bordercolor="#000000"
     borderopacity="0.25"
     inkscape:showpageshadow="2"
     inkscape:pageopacity="0.0"
     inkscape:pagecheckerboard="0"
     inkscape:deskcolor="#d1d1d1" />
  <path
     id="circle1"
     style="baseline-shift:baseline;display:inline;overflow:visible;vector-effect:none;fill:#000000;stroke:none;stroke-linecap:butt;stroke-linejoin:miter;enable-background:accumulate;stop-color:#000000;stop-opacity:1;opacity:1"
     d="M 12 1 C 7.0412819 1 3 5.0412819 3 10 C 3 14.620794 6.5092445 18.445562 11 18.945312 L 11 21 L 7 21 A 1 1 0 0 0 6 22 A 1 1 0 0 0 7 23 L 12 23 L 17 23 A 1 1 0 0 0 18 22 A 1 1 0 0 0 17 21 L 13 21 L 13 18.945312 C 17.490755 18.445562 21 14.620794 21 10 C 21 5.0412819 16.958718 1 12 1 z M 12 3 C 15.877838 3 19 6.1221621 19 10 C 19 13.877838 15.877838 17 12 17 C 8.1221621 17 5 13.877838 5 10 C 5 6.1221621 8.1221621 3 12 3 z M 12 6 C 9.8027056 6 8 7.8027056 8 10 C 8 12.197294 9.8027056 14 12 14 C 14.197294 14 16 12.197294 16 10 C 16 7.8027056 14.197294 6 12 6 z M 12 8 C 13.116414 8 14 8.8835859 14 10 C 14 11.116414 13.116414 12 12 12 C 10.883586 12 10 11.116414 10 10 C 10 8.8835859 10.883586 8 12 8 z " />
</svg>
