<?xml version="1.0" encoding="UTF-8" standalone="no"?>
<svg
   width="24"
   height="24"
   viewBox="0 0 24 24"
   fill="none"
   stroke="currentColor"
   stroke-width="1.25"
   stroke-linecap="round"
   stroke-linejoin="round"
   version="1.1"
   id="svg4"
   sodipodi:docname=".tmp_air-vent.svg"
   xmlns:inkscape="http://www.inkscape.org/namespaces/inkscape"
   xmlns:sodipodi="http://sodipodi.sourceforge.net/DTD/sodipodi-0.dtd"
   xmlns="http://www.w3.org/2000/svg"
   xmlns:svg="http://www.w3.org/2000/svg">
  <defs
     id="defs4" />
  <sodipodi:namedview
     id="namedview4"
     pagecolor="#ffffff"
     bordercolor="#000000"
     borderopacity="0.25"
     inkscape:showpageshadow="2"
     inkscape:pageopacity="0.0"
     inkscape:pagecheckerboard="0"
     inkscape:deskcolor="#d1d1d1" />
  <path
     id="path1"
     style="baseline-shift:baseline;display:inline;overflow:visible;vector-effect:none;fill:#000000;stroke:none;stroke-linecap:butt;stroke-linejoin:miter;enable-background:accumulate;stop-color:#000000;stop-opacity:1;opacity:1"
     d="M 4 2.375 C 2.5576554 2.375 1.375 3.5576554 1.375 5 L 1.375 10 C 1.375 11.442345 2.5576554 12.625 4 12.625 L 6 12.625 A 0.625 0.625 0 0 0 6.625 12 A 0.625 0.625 0 0 0 6 11.375 L 4 11.375 C 3.2332056 11.375 2.625 10.766794 2.625 10 L 2.625 5 C 2.625 4.2332056 3.2332056 3.625 4 3.625 L 20 3.625 C 20.766794 3.625 21.375 4.2332056 21.375 5 L 21.375 10 C 21.375 10.766794 20.766794 11.375 20 11.375 L 18 11.375 A 0.625 0.625 0 0 0 17.375 12 A 0.625 0.625 0 0 0 18 12.625 L 20 12.625 C 21.442345 12.625 22.625 11.442345 22.625 10 L 22.625 5 C 22.625 3.5576554 21.442345 2.375 20 2.375 L 4 2.375 z M 6 7.375 A 0.625 0.625 0 0 0 5.375 8 A 0.625 0.625 0 0 0 6 8.625 L 18 8.625 A 0.625 0.625 0 0 0 18.625 8 A 0.625 0.625 0 0 0 18 7.375 L 6 7.375 z M 10 11.375 A 0.625 0.625 0 0 0 9.375 12 L 9.375 17 C 9.3751436 18.005215 8.3935734 18.656824 7.4667969 18.267578 C 6.5400203 17.878332 6.3192423 16.721229 7.0371094 16.017578 A 0.625 0.625 0 0 0 7.046875 15.134766 A 0.625 0.625 0 0 0 6.1621094 15.125 C 4.837921 16.422964 5.2748208 18.701909 6.984375 19.419922 C 8.6939292 20.137935 10.625265 18.854235 10.625 17 L 10.625 12 A 0.625 0.625 0 0 0 10 11.375 z M 14 11.375 A 0.625 0.625 0 0 0 13.375 12 L 13.375 19.529297 A 0.6250625 0.6250625 0 0 0 13.375 19.537109 C 13.40259 21.825992 15.872866 23.323017 17.914062 22.287109 C 19.95526 21.251214 20.206114 18.373596 18.375 17 A 0.625 0.625 0 0 0 17.5 17.125 A 0.625 0.625 0 0 0 17.625 18 C 18.756641 18.848891 18.609122 20.531681 17.347656 21.171875 C 16.086191 21.812069 14.642053 20.937983 14.625 19.523438 L 14.625 12 A 0.625 0.625 0 0 0 14 11.375 z " />
</svg>
