<?xml version="1.0" encoding="UTF-8" standalone="no"?>
<svg
   width="24"
   height="24"
   viewBox="0 0 24 24"
   fill="none"
   stroke="currentColor"
   stroke-width="1.25"
   stroke-linecap="round"
   stroke-linejoin="round"
   version="1.1"
   id="svg2"
   sodipodi:docname=".tmp_align-start-vertical.svg"
   xmlns:inkscape="http://www.inkscape.org/namespaces/inkscape"
   xmlns:sodipodi="http://sodipodi.sourceforge.net/DTD/sodipodi-0.dtd"
   xmlns="http://www.w3.org/2000/svg"
   xmlns:svg="http://www.w3.org/2000/svg">
  <defs
     id="defs2" />
  <sodipodi:namedview
     id="namedview2"
     pagecolor="#ffffff"
     bordercolor="#000000"
     borderopacity="0.25"
     inkscape:showpageshadow="2"
     inkscape:pageopacity="0.0"
     inkscape:pagecheckerboard="0"
     inkscape:deskcolor="#d1d1d1" />
  <path
     id="rect1"
     style="baseline-shift:baseline;display:inline;overflow:visible;vector-effect:none;fill:#000000;stroke:none;stroke-linecap:butt;stroke-linejoin:miter;enable-background:accumulate;stop-color:#000000;stop-opacity:1;opacity:1"
     d="M 2 1.375 A 0.625 0.625 0 0 0 1.375 2 L 1.375 22 A 0.625 0.625 0 0 0 2 22.625 A 0.625 0.625 0 0 0 2.625 22 L 2.625 2 A 0.625 0.625 0 0 0 2 1.375 z M 8 3.375 C 6.5565608 3.375 5.375 4.5565608 5.375 6 L 5.375 8 C 5.375 9.4434392 6.5565608 10.625 8 10.625 L 20 10.625 C 21.443439 10.625 22.625 9.4434392 22.625 8 L 22.625 6 C 22.625 4.5565608 21.443439 3.375 20 3.375 L 8 3.375 z M 8 4.625 L 20 4.625 C 20.772561 4.625 21.375 5.2274392 21.375 6 L 21.375 8 C 21.375 8.7725608 20.772561 9.375 20 9.375 L 8 9.375 C 7.2274392 9.375 6.625 8.7725608 6.625 8 L 6.625 6 C 6.625 5.2274392 7.2274392 4.625 8 4.625 z M 8 13.375 C 6.5565608 13.375 5.375 14.556561 5.375 16 L 5.375 18 C 5.375 19.443439 6.5565608 20.625 8 20.625 L 13 20.625 C 14.443439 20.625 15.625 19.443439 15.625 18 L 15.625 16 C 15.625 14.556561 14.443439 13.375 13 13.375 L 8 13.375 z M 8 14.625 L 13 14.625 C 13.772561 14.625 14.375 15.227439 14.375 16 L 14.375 18 C 14.375 18.772561 13.772561 19.375 13 19.375 L 8 19.375 C 7.2274392 19.375 6.625 18.772561 6.625 18 L 6.625 16 C 6.625 15.227439 7.2274392 14.625 8 14.625 z " />
</svg>
