<?xml version="1.0" encoding="UTF-8" standalone="no"?>
<svg
   width="24"
   height="24"
   viewBox="0 0 24 24"
   fill="none"
   stroke="currentColor"
   stroke-width="1.25"
   stroke-linecap="round"
   stroke-linejoin="round"
   version="1.1"
   id="svg2"
   sodipodi:docname=".tmp_align-end-vertical.svg"
   xmlns:inkscape="http://www.inkscape.org/namespaces/inkscape"
   xmlns:sodipodi="http://sodipodi.sourceforge.net/DTD/sodipodi-0.dtd"
   xmlns="http://www.w3.org/2000/svg"
   xmlns:svg="http://www.w3.org/2000/svg">
  <defs
     id="defs2" />
  <sodipodi:namedview
     id="namedview2"
     pagecolor="#ffffff"
     bordercolor="#000000"
     borderopacity="0.25"
     inkscape:showpageshadow="2"
     inkscape:pageopacity="0.0"
     inkscape:pagecheckerboard="0"
     inkscape:deskcolor="#d1d1d1" />
  <path
     id="rect1"
     style="baseline-shift:baseline;display:inline;overflow:visible;vector-effect:none;fill:#000000;stroke:none;stroke-linecap:butt;stroke-linejoin:miter;enable-background:accumulate;stop-color:#000000;stop-opacity:1;opacity:1"
     d="M 22 1.375 A 0.625 0.625 0 0 0 21.375 2 L 21.375 22 A 0.625 0.625 0 0 0 22 22.625 A 0.625 0.625 0 0 0 22.625 22 L 22.625 2 A 0.625 0.625 0 0 0 22 1.375 z M 4 3.375 C 2.5565608 3.375 1.375 4.5565608 1.375 6 L 1.375 8 C 1.375 9.4434392 2.5565608 10.625 4 10.625 L 16 10.625 C 17.443439 10.625 18.625 9.4434392 18.625 8 L 18.625 6 C 18.625 4.5565608 17.443439 3.375 16 3.375 L 4 3.375 z M 4 4.625 L 16 4.625 C 16.772561 4.625 17.375 5.2274392 17.375 6 L 17.375 8 C 17.375 8.7725608 16.772561 9.375 16 9.375 L 4 9.375 C 3.2274392 9.375 2.625 8.7725608 2.625 8 L 2.625 6 C 2.625 5.2274392 3.2274392 4.625 4 4.625 z M 11 13.375 C 9.5565608 13.375 8.375 14.556561 8.375 16 L 8.375 18 C 8.375 19.443439 9.5565608 20.625 11 20.625 L 16 20.625 C 17.443439 20.625 18.625 19.443439 18.625 18 L 18.625 16 C 18.625 14.556561 17.443439 13.375 16 13.375 L 11 13.375 z M 11 14.625 L 16 14.625 C 16.772561 14.625 17.375 15.227439 17.375 16 L 17.375 18 C 17.375 18.772561 16.772561 19.375 16 19.375 L 11 19.375 C 10.227439 19.375 9.625 18.772561 9.625 18 L 9.625 16 C 9.625 15.227439 10.227439 14.625 11 14.625 z " />
</svg>
