<?xml version="1.0" encoding="UTF-8" standalone="no"?>
<svg
   width="24"
   height="24"
   viewBox="0 0 24 24"
   fill="none"
   stroke="currentColor"
   stroke-width="1.25"
   stroke-linecap="round"
   stroke-linejoin="round"
   version="1.1"
   id="svg4"
   sodipodi:docname=".tmp_armchair.svg"
   xmlns:inkscape="http://www.inkscape.org/namespaces/inkscape"
   xmlns:sodipodi="http://sodipodi.sourceforge.net/DTD/sodipodi-0.dtd"
   xmlns="http://www.w3.org/2000/svg"
   xmlns:svg="http://www.w3.org/2000/svg">
  <defs
     id="defs4" />
  <sodipodi:namedview
     id="namedview4"
     pagecolor="#ffffff"
     bordercolor="#000000"
     borderopacity="0.25"
     inkscape:showpageshadow="2"
     inkscape:pageopacity="0.0"
     inkscape:pagecheckerboard="0"
     inkscape:deskcolor="#d1d1d1" />
  <path
     id="path1"
     style="baseline-shift:baseline;display:inline;overflow:visible;vector-effect:none;fill:#000000;stroke:none;stroke-linecap:butt;stroke-linejoin:miter;enable-background:accumulate;stop-color:#000000;stop-opacity:1;opacity:1"
     d="M 7 3.375 C 5.5576554 3.375 4.375 4.5576554 4.375 6 L 4.375 8.4433594 C 3.9521926 8.5379423 3.547919 8.731928 3.2089844 9.0332031 C 2.7051207 9.4810818 2.375 10.177084 2.375 11 L 2.375 16 C 2.375 17.227213 3.2311702 18.266124 4.375 18.548828 L 4.375 20 A 0.625 0.625 0 0 0 5 20.625 A 0.625 0.625 0 0 0 5.625 20 L 5.625 18.625 L 18.375 18.625 L 18.375 20 A 0.625 0.625 0 0 0 19 20.625 A 0.625 0.625 0 0 0 19.625 20 L 19.625 18.548828 C 20.76883 18.266124 21.625 17.227214 21.625 16 L 21.625 11 C 21.625 10.177084 21.294879 9.4810818 20.791016 9.0332031 C 20.452081 8.731928 20.047808 8.5379423 19.625 8.4433594 L 19.625 6 C 19.625 4.5576554 18.442345 3.375 17 3.375 L 7 3.375 z M 7 4.625 L 17 4.625 C 17.766794 4.625 18.375 5.2332056 18.375 6 L 18.375 8.4433594 C 17.952192 8.5379423 17.547919 8.731928 17.208984 9.0332031 C 16.705121 9.4810818 16.375 10.177084 16.375 11 L 16.375 12.375 L 7.625 12.375 L 7.625 11 C 7.625 10.177084 7.2948793 9.4810818 6.7910156 9.0332031 C 6.452081 8.731928 6.0478074 8.5379423 5.625 8.4433594 L 5.625 6 C 5.625 5.2332056 6.2332056 4.625 7 4.625 z M 5 9.625 C 5.3611112 9.625 5.7128481 9.7480091 5.9589844 9.9667969 C 6.2051207 10.185585 6.375 10.489584 6.375 11 L 6.375 12.5 C 6.375 13.113917 6.8860826 13.625 7.5 13.625 L 16.5 13.625 C 17.113917 13.625 17.625 13.113917 17.625 12.5 L 17.625 11 C 17.625 10.489584 17.794879 10.185585 18.041016 9.9667969 C 18.287152 9.7480091 18.638889 9.625 19 9.625 C 19.361111 9.625 19.712848 9.7480091 19.958984 9.9667969 C 20.205121 10.185585 20.375 10.489584 20.375 11 L 20.375 16 C 20.375 16.766794 19.766794 17.375 19 17.375 L 5 17.375 C 4.2332056 17.375 3.625 16.766794 3.625 16 L 3.625 11 C 3.625 10.489584 3.7948793 10.185585 4.0410156 9.9667969 C 4.2871519 9.7480091 4.6388888 9.625 5 9.625 z " />
</svg>
