<?xml version="1.0" encoding="UTF-8" standalone="no"?>
<svg
   width="24"
   height="24"
   viewBox="0 0 24 24"
   fill="none"
   stroke="currentColor"
   stroke-width="1.25"
   stroke-linecap="round"
   stroke-linejoin="round"
   version="1.1"
   id="svg4"
   sodipodi:docname=".tmp_arrow-up-1-0.svg"
   xmlns:inkscape="http://www.inkscape.org/namespaces/inkscape"
   xmlns:sodipodi="http://sodipodi.sourceforge.net/DTD/sodipodi-0.dtd"
   xmlns="http://www.w3.org/2000/svg"
   xmlns:svg="http://www.w3.org/2000/svg">
  <defs
     id="defs4" />
  <sodipodi:namedview
     id="namedview4"
     pagecolor="#ffffff"
     bordercolor="#000000"
     borderopacity="0.25"
     inkscape:showpageshadow="2"
     inkscape:pageopacity="0.0"
     inkscape:pagecheckerboard="0"
     inkscape:deskcolor="#d1d1d1" />
  <path
     id="path1"
     style="baseline-shift:baseline;display:inline;overflow:visible;vector-effect:none;fill:#000000;stroke:none;stroke-linecap:butt;stroke-linejoin:miter;enable-background:accumulate;stop-color:#000000;stop-opacity:1;opacity:1"
     d="M 7 3.375 A 0.625 0.625 0 0 0 6.9140625 3.3808594 A 0.6250625 0.6250625 0 0 0 6.8378906 3.3964844 A 0.625 0.625 0 0 0 6.6914062 3.4570312 A 0.6250625 0.6250625 0 0 0 6.6855469 3.4609375 A 0.625 0.625 0 0 0 6.6425781 3.4882812 A 0.6250625 0.6250625 0 0 0 6.6113281 3.5117188 A 0.625 0.625 0 0 0 6.5683594 3.5488281 A 0.6250625 0.6250625 0 0 0 6.5585938 3.5585938 A 0.625 0.625 0 0 0 6.5371094 3.5800781 L 2.5585938 7.5585938 A 0.625 0.625 0 0 0 2.5585938 8.4414062 A 0.625 0.625 0 0 0 3.4414062 8.4414062 L 6.375 5.5078125 L 6.375 20 A 0.625 0.625 0 0 0 7 20.625 A 0.625 0.625 0 0 0 7.625 20 L 7.625 5.5078125 L 10.558594 8.4414062 A 0.625 0.625 0 0 0 11.441406 8.4414062 A 0.625 0.625 0 0 0 11.441406 7.5585938 L 7.4628906 3.5800781 A 0.625 0.625 0 0 0 7.3125 3.4589844 A 0.625 0.625 0 0 0 7.1621094 3.3964844 A 0.6250625 0.6250625 0 0 0 7.0859375 3.3808594 A 0.625 0.625 0 0 0 7 3.375 z M 15 3.375 A 0.625 0.625 0 0 0 14.375 4 A 0.625 0.625 0 0 0 15 4.625 L 16.375 4.625 L 16.375 9.375 L 15 9.375 A 0.625 0.625 0 0 0 14.375 10 A 0.625 0.625 0 0 0 15 10.625 L 19 10.625 A 0.625 0.625 0 0 0 19.625 10 A 0.625 0.625 0 0 0 19 9.375 L 17.625 9.375 L 17.625 4 A 0.6250625 0.6250625 0 0 0 17 3.375 L 15 3.375 z M 17 13.375 C 15.556561 13.375 14.375 14.556561 14.375 16 L 14.375 18 C 14.375 19.443439 15.556561 20.625 17 20.625 C 18.443439 20.625 19.625 19.443439 19.625 18 L 19.625 16 C 19.625 14.556561 18.443439 13.375 17 13.375 z M 17 14.625 C 17.772561 14.625 18.375 15.227439 18.375 16 L 18.375 18 C 18.375 18.772561 17.772561 19.375 17 19.375 C 16.227439 19.375 15.625 18.772561 15.625 18 L 15.625 16 C 15.625 15.227439 16.227439 14.625 17 14.625 z " />
</svg>
