<?xml version="1.0" encoding="UTF-8" standalone="no"?>
<svg
   width="24"
   height="24"
   viewBox="0 0 24 24"
   fill="none"
   stroke="currentColor"
   stroke-width="1.25"
   stroke-linecap="round"
   stroke-linejoin="round"
   version="1.1"
   id="svg3"
   sodipodi:docname=".tmp_arrow-left-to-line.svg"
   xmlns:inkscape="http://www.inkscape.org/namespaces/inkscape"
   xmlns:sodipodi="http://sodipodi.sourceforge.net/DTD/sodipodi-0.dtd"
   xmlns="http://www.w3.org/2000/svg"
   xmlns:svg="http://www.w3.org/2000/svg">
  <defs
     id="defs3" />
  <sodipodi:namedview
     id="namedview3"
     pagecolor="#ffffff"
     bordercolor="#000000"
     borderopacity="0.25"
     inkscape:showpageshadow="2"
     inkscape:pageopacity="0.0"
     inkscape:pagecheckerboard="0"
     inkscape:deskcolor="#d1d1d1" />
  <path
     id="path1"
     style="baseline-shift:baseline;display:inline;overflow:visible;vector-effect:none;fill:#000000;stroke:none;stroke-linecap:butt;stroke-linejoin:miter;enable-background:accumulate;stop-color:#000000;stop-opacity:1;opacity:1"
     d="M 3 4.375 A 0.625 0.625 0 0 0 2.375 5 L 2.375 19 A 0.625 0.625 0 0 0 3 19.625 A 0.625 0.625 0 0 0 3.625 19 L 3.625 5 A 0.625 0.625 0 0 0 3 4.375 z M 13 5.3769531 A 0.625 0.625 0 0 0 12.558594 5.5585938 L 6.5800781 11.537109 L 6.5585938 11.558594 A 0.6250625 0.6250625 0 0 0 6.5488281 11.568359 A 0.625 0.625 0 0 0 6.5117188 11.611328 A 0.6250625 0.6250625 0 0 0 6.4882812 11.642578 A 0.625 0.625 0 0 0 6.4609375 11.685547 A 0.6250625 0.6250625 0 0 0 6.4570312 11.691406 A 0.625 0.625 0 0 0 6.3964844 11.837891 A 0.625 0.625 0 0 0 6.3808594 11.914062 A 0.6250625 0.6250625 0 0 0 6.3808594 11.917969 A 0.625 0.625 0 0 0 6.375 12 A 0.625 0.625 0 0 0 6.3808594 12.082031 A 0.625 0.625 0 0 0 6.3808594 12.085938 A 0.6250625 0.6250625 0 0 0 6.3964844 12.162109 A 0.625 0.625 0 0 0 6.4570312 12.308594 A 0.6250625 0.6250625 0 0 0 6.4609375 12.314453 A 0.625 0.625 0 0 0 6.4882812 12.357422 A 0.6250625 0.6250625 0 0 0 6.5117188 12.388672 A 0.625 0.625 0 0 0 6.5488281 12.431641 A 0.6250625 0.6250625 0 0 0 6.5585938 12.441406 A 0.625 0.625 0 0 0 6.5800781 12.462891 L 12.558594 18.441406 A 0.625 0.625 0 0 0 13.441406 18.441406 A 0.625 0.625 0 0 0 13.441406 17.558594 L 8.5078125 12.625 L 21 12.625 A 0.625 0.625 0 0 0 21.625 12 A 0.625 0.625 0 0 0 21 11.375 L 8.5078125 11.375 L 13.441406 6.4414062 A 0.625 0.625 0 0 0 13.441406 5.5585938 A 0.625 0.625 0 0 0 13 5.3769531 z " />
</svg>
