<?xml version="1.0" encoding="UTF-8" standalone="no"?>
<svg
   width="24"
   height="24"
   viewBox="0 0 24 24"
   fill="none"
   stroke="currentColor"
   stroke-width="1.25"
   stroke-linecap="round"
   stroke-linejoin="round"
   version="1.1"
   id="svg6"
   sodipodi:docname=".tmp_audio-lines.svg"
   xmlns:inkscape="http://www.inkscape.org/namespaces/inkscape"
   xmlns:sodipodi="http://sodipodi.sourceforge.net/DTD/sodipodi-0.dtd"
   xmlns="http://www.w3.org/2000/svg"
   xmlns:svg="http://www.w3.org/2000/svg">
  <defs
     id="defs6" />
  <sodipodi:namedview
     id="namedview6"
     pagecolor="#ffffff"
     bordercolor="#000000"
     borderopacity="0.25"
     inkscape:showpageshadow="2"
     inkscape:pageopacity="0.0"
     inkscape:pagecheckerboard="0"
     inkscape:deskcolor="#d1d1d1" />
  <path
     id="path1"
     style="baseline-shift:baseline;display:inline;overflow:visible;vector-effect:none;fill:#000000;stroke:none;stroke-linecap:butt;stroke-linejoin:miter;enable-background:accumulate;stop-color:#000000;stop-opacity:1;opacity:1"
     d="M 10 2.375 A 0.625 0.625 0 0 0 9.375 3 L 9.375 21 A 0.625 0.625 0 0 0 10 21.625 A 0.625 0.625 0 0 0 10.625 21 L 10.625 3 A 0.625 0.625 0 0 0 10 2.375 z M 18 4.375 A 0.625 0.625 0 0 0 17.375 5 L 17.375 18 A 0.625 0.625 0 0 0 18 18.625 A 0.625 0.625 0 0 0 18.625 18 L 18.625 5 A 0.625 0.625 0 0 0 18 4.375 z M 6 5.375 A 0.625 0.625 0 0 0 5.375 6 L 5.375 17 A 0.625 0.625 0 0 0 6 17.625 A 0.625 0.625 0 0 0 6.625 17 L 6.625 6 A 0.625 0.625 0 0 0 6 5.375 z M 14 7.375 A 0.625 0.625 0 0 0 13.375 8 L 13.375 15 A 0.625 0.625 0 0 0 14 15.625 A 0.625 0.625 0 0 0 14.625 15 L 14.625 8 A 0.625 0.625 0 0 0 14 7.375 z M 2 9.375 A 0.625 0.625 0 0 0 1.375 10 L 1.375 13 A 0.625 0.625 0 0 0 2 13.625 A 0.625 0.625 0 0 0 2.625 13 L 2.625 10 A 0.625 0.625 0 0 0 2 9.375 z M 22 9.375 A 0.625 0.625 0 0 0 21.375 10 L 21.375 13 A 0.625 0.625 0 0 0 22 13.625 A 0.625 0.625 0 0 0 22.625 13 L 22.625 10 A 0.625 0.625 0 0 0 22 9.375 z " />
</svg>
