<?xml version="1.0" encoding="UTF-8" standalone="no"?>
<svg
   width="24"
   height="24"
   viewBox="0 0 24 24"
   fill="none"
   stroke="currentColor"
   stroke-width="1.25"
   stroke-linecap="round"
   stroke-linejoin="round"
   version="1.1"
   id="svg2"
   sodipodi:docname=".tmp_banana.svg"
   xmlns:inkscape="http://www.inkscape.org/namespaces/inkscape"
   xmlns:sodipodi="http://sodipodi.sourceforge.net/DTD/sodipodi-0.dtd"
   xmlns="http://www.w3.org/2000/svg"
   xmlns:svg="http://www.w3.org/2000/svg">
  <defs
     id="defs2" />
  <sodipodi:namedview
     id="namedview2"
     pagecolor="#ffffff"
     bordercolor="#000000"
     borderopacity="0.25"
     inkscape:showpageshadow="2"
     inkscape:pageopacity="0.0"
     inkscape:pagecheckerboard="0"
     inkscape:deskcolor="#d1d1d1" />
  <path
     id="path1"
     style="baseline-shift:baseline;display:inline;overflow:visible;vector-effect:none;fill:#000000;stroke:none;stroke-linecap:butt;stroke-linejoin:miter;enable-background:accumulate;stop-color:#000000;stop-opacity:1;opacity:1"
     d="M 13 1.375 C 12.486111 1.375 12.000943 1.5763409 11.6875 1.921875 C 11.374057 2.2674091 11.228985 2.7031151 11.167969 3.1523438 C 11.045937 4.050801 11.236969 5.0792514 11.554688 6.0800781 A 0.6250625 0.6250625 0 0 0 11.554688 6.0820312 C 12.169559 7.9862715 12.077086 9.9274955 11.412109 11.664062 C 10.853919 11.394088 10.261646 11.21544 9.6484375 11.130859 C 7.6625499 10.856944 5.539635 11.399784 3.6894531 12.457031 A 0.625 0.625 0 0 0 3.4570312 13.310547 A 0.625 0.625 0 0 0 4.3105469 13.542969 C 5.960365 12.600216 7.8374501 12.143056 9.4765625 12.369141 C 9.9754196 12.437948 10.453447 12.565044 10.902344 12.759766 C 9.7352417 14.867496 7.6664261 16.548574 4.984375 17.287109 A 0.6250625 0.6250625 0 0 0 4.9824219 17.287109 C 4.002214 17.560201 3.2123566 17.697138 2.5410156 18.035156 C 2.2053451 18.204165 1.8894569 18.445522 1.6777344 18.789062 C 1.4660118 19.132603 1.375 19.545833 1.375 20 C 1.375 20.661979 1.6719484 21.250313 2.1171875 21.630859 C 2.5624266 22.011406 3.1170193 22.221122 3.7128906 22.359375 C 4.9046333 22.635881 6.3097656 22.625 7.5097656 22.625 C 10.836933 22.625 13.650063 21.153005 15.591797 18.839844 C 16.489427 17.770509 17.204455 16.523894 17.714844 15.158203 C 19.77975 15.686099 21.419848 17.558464 21.375 19.988281 A 0.625 0.625 0 0 0 21.988281 20.625 A 0.625 0.625 0 0 0 22.625 20.011719 C 22.680136 17.024556 20.632615 14.741648 18.068359 14.080078 C 18.433315 12.791068 18.625 11.417079 18.625 10 C 18.625 8.6016667 18.162633 6.5673274 17.265625 4.78125 C 16.817121 3.8882113 16.258728 3.0620384 15.556641 2.4335938 C 14.854553 1.805149 13.982924 1.375 13 1.375 z M 13 2.625 C 13.627076 2.625 14.185369 2.8823509 14.722656 3.3632812 C 15.259944 3.8442115 15.749442 4.5492887 16.148438 5.34375 C 16.94643 6.9326726 17.375 8.8983333 17.375 10 C 17.375 11.36151 17.181863 12.674371 16.820312 13.892578 C 15.967531 13.852452 15.088253 13.989492 14.232422 14.333984 C 13.743097 13.511793 13.147573 12.838528 12.476562 12.322266 C 13.322136 10.27671 13.475812 7.9644651 12.746094 5.7011719 L 12.744141 5.6972656 C 12.462709 4.8093801 12.328403 3.893465 12.40625 3.3203125 C 12.445234 3.0332912 12.532975 2.8502471 12.613281 2.7617188 C 12.693588 2.6731902 12.763889 2.625 13 2.625 z M 11.957031 13.392578 C 12.532899 13.850148 13.035953 14.468391 13.441406 15.279297 A 0.6250625 0.6250625 0 0 0 14.285156 15.556641 C 14.989946 15.196809 15.72013 15.02388 16.431641 15.009766 C 15.97845 16.135036 15.371864 17.157061 14.634766 18.035156 C 12.903999 20.096995 10.472598 21.375 7.5097656 21.375 C 6.3097656 21.375 4.959351 21.36412 3.9960938 21.140625 C 3.5144651 21.028878 3.1425734 20.863594 2.9296875 20.681641 C 2.7168016 20.499687 2.625 20.338021 2.625 20 C 2.625 19.704167 2.677348 19.548569 2.7421875 19.443359 C 2.8070275 19.33815 2.900983 19.251382 3.1015625 19.150391 C 3.5023967 18.948572 4.2878418 18.778675 5.3164062 18.492188 C 8.2896739 17.673462 10.620573 15.777948 11.957031 13.392578 z " />
</svg>
