<?xml version="1.0" encoding="UTF-8" standalone="no"?>
<svg
   width="24"
   height="24"
   viewBox="0 0 24 24"
   fill="none"
   stroke="currentColor"
   stroke-width="1.25"
   stroke-linecap="round"
   stroke-linejoin="round"
   version="1.1"
   id="svg4"
   sodipodi:docname=".tmp_bell-electric.svg"
   xmlns:inkscape="http://www.inkscape.org/namespaces/inkscape"
   xmlns:sodipodi="http://sodipodi.sourceforge.net/DTD/sodipodi-0.dtd"
   xmlns="http://www.w3.org/2000/svg"
   xmlns:svg="http://www.w3.org/2000/svg">
  <defs
     id="defs4" />
  <sodipodi:namedview
     id="namedview4"
     pagecolor="#ffffff"
     bordercolor="#000000"
     borderopacity="0.25"
     inkscape:showpageshadow="2"
     inkscape:pageopacity="0.0"
     inkscape:pagecheckerboard="0"
     inkscape:deskcolor="#d1d1d1" />
  <path
     id="path1"
     style="baseline-shift:baseline;display:inline;overflow:visible;vector-effect:none;fill:#000000;stroke:none;stroke-linecap:butt;stroke-linejoin:miter;enable-background:accumulate;stop-color:#000000;stop-opacity:1;opacity:1"
     d="M 9 1.375 C 4.7962317 1.375 1.375 4.7962317 1.375 9 C 1.375 11.773412 2.8634498 14.206554 5.0839844 15.541016 C 4.0881659 15.914654 3.375 16.878049 3.375 18 L 3.375 20 C 3.375 21.443439 4.5565608 22.625 6 22.625 L 12 22.625 C 13.443439 22.625 14.625 21.443439 14.625 20 L 14.625 19.599609 C 16.025732 19.484453 17.368778 18.983076 18.503906 18.152344 C 18.929216 18.44952 19.445465 18.625 20 18.625 C 21.442345 18.625 22.625 17.442345 22.625 16 C 22.625 14.557655 21.442345 13.375 20 13.375 C 18.557655 13.375 17.375 14.557655 17.375 16 C 17.375 16.435687 17.483443 16.84808 17.673828 17.210938 C 16.772636 17.846105 15.721467 18.235761 14.625 18.34375 L 14.625 18 C 14.625 16.878049 13.911834 15.914654 12.916016 15.541016 C 15.13655 14.206554 16.625 11.773412 16.625 9 C 16.625 4.7962317 13.203768 1.375 9 1.375 z M 9 2.625 C 12.528218 2.625 15.375 5.4717818 15.375 9 C 15.375 12.528218 12.528218 15.375 9 15.375 C 5.4717818 15.375 2.625 12.528218 2.625 9 C 2.625 5.4717818 5.4717818 2.625 9 2.625 z M 18.832031 3.375 A 0.625 0.625 0 0 0 18.515625 3.4433594 A 0.625 0.625 0 0 0 18.244141 4.2832031 C 18.988695 5.7436971 19.375596 7.36067 19.375 9 A 0.625 0.625 0 0 0 20 9.625 A 0.625 0.625 0 0 0 20.625 9 C 20.625668 7.1632006 20.191663 5.3532182 19.357422 3.7167969 A 0.625 0.625 0 0 0 18.832031 3.375 z M 9 8.375 A 0.625 0.625 0 0 0 8.375 9 A 0.625 0.625 0 0 0 9 9.625 L 9.0097656 9.625 A 0.625 0.625 0 0 0 9.6347656 9 A 0.625 0.625 0 0 0 9.0097656 8.375 L 9 8.375 z M 20 14.625 C 20.766794 14.625 21.375 15.233206 21.375 16 C 21.375 16.766794 20.766794 17.375 20 17.375 C 19.607552 17.375 19.256901 17.215385 19.007812 16.957031 A 0.625 0.625 0 0 0 18.996094 16.943359 A 0.625 0.625 0 0 0 18.953125 16.896484 C 18.748075 16.656703 18.625 16.344776 18.625 16 C 18.625 15.233206 19.233206 14.625 20 14.625 z M 6 16.625 L 9 16.625 L 12 16.625 C 12.772561 16.625 13.375 17.227439 13.375 18 L 13.375 19 L 13.375 20 C 13.375 20.772561 12.772561 21.375 12 21.375 L 6 21.375 C 5.2274392 21.375 4.625 20.772561 4.625 20 L 4.625 18 C 4.625 17.227439 5.2274392 16.625 6 16.625 z " />
</svg>
