<?xml version="1.0" encoding="UTF-8" standalone="no"?>
<svg
   width="24"
   height="24"
   viewBox="0 0 24 24"
   fill="none"
   stroke="currentColor"
   stroke-width="1.25"
   stroke-linecap="round"
   stroke-linejoin="round"
   version="1.1"
   id="svg3"
   sodipodi:docname=".tmp_bluetooth-searching.svg"
   xmlns:inkscape="http://www.inkscape.org/namespaces/inkscape"
   xmlns:sodipodi="http://sodipodi.sourceforge.net/DTD/sodipodi-0.dtd"
   xmlns="http://www.w3.org/2000/svg"
   xmlns:svg="http://www.w3.org/2000/svg">
  <defs
     id="defs3" />
  <sodipodi:namedview
     id="namedview3"
     pagecolor="#ffffff"
     bordercolor="#000000"
     borderopacity="0.25"
     inkscape:showpageshadow="2"
     inkscape:pageopacity="0.0"
     inkscape:pagecheckerboard="0"
     inkscape:deskcolor="#d1d1d1" />
  <path
     id="path1"
     style="baseline-shift:baseline;display:inline;overflow:visible;vector-effect:none;fill:#000000;stroke:none;stroke-linecap:butt;stroke-linejoin:miter;enable-background:accumulate;stop-color:#000000;stop-opacity:1;opacity:1"
     d="M 12 1.375 A 0.6250625 0.6250625 0 0 0 11.761719 1.421875 A 0.6250625 0.6250625 0 0 0 11.375 2 L 11.375 10.492188 L 7.4414062 6.5585938 A 0.625 0.625 0 0 0 6.5585938 6.5585938 A 0.625 0.625 0 0 0 6.5585938 7.4414062 L 11.117188 12 L 6.5585938 16.558594 A 0.625 0.625 0 0 0 6.5585938 17.441406 A 0.625 0.625 0 0 0 7.4414062 17.441406 L 11.375 13.507812 L 11.375 22 A 0.6250625 0.6250625 0 0 0 12.441406 22.441406 L 17.441406 17.441406 A 0.6250625 0.6250625 0 0 0 17.441406 16.558594 L 12.882812 12 L 17.441406 7.4414062 A 0.6250625 0.6250625 0 0 0 17.441406 6.5585938 L 12.441406 1.5585938 A 0.6250625 0.6250625 0 0 0 12 1.375 z M 12.625 3.5078125 L 16.117188 7 L 12.625 10.492188 L 12.625 3.5078125 z M 20.830078 8.546875 A 0.625 0.625 0 0 0 20.388672 8.7285156 A 0.625 0.625 0 0 0 20.388672 9.6113281 C 21.713718 10.934901 21.713718 13.065099 20.388672 14.388672 A 0.625 0.625 0 0 0 20.388672 15.271484 A 0.625 0.625 0 0 0 21.271484 15.271484 C 23.07483 13.470144 23.07483 10.529856 21.271484 8.7285156 A 0.625 0.625 0 0 0 20.830078 8.546875 z M 18 11.375 A 0.625 0.625 0 0 0 17.375 12 A 0.625 0.625 0 0 0 18 12.625 L 18.009766 12.625 A 0.625 0.625 0 0 0 18.634766 12 A 0.625 0.625 0 0 0 18.009766 11.375 L 18 11.375 z M 12.625 13.507812 L 16.117188 17 L 12.625 20.492188 L 12.625 13.507812 z " />
</svg>
