<?xml version="1.0" encoding="UTF-8" standalone="no"?>
<svg
   width="24"
   height="24"
   viewBox="0 0 24 24"
   fill="none"
   stroke="currentColor"
   stroke-width="1.25"
   stroke-linecap="round"
   stroke-linejoin="round"
   version="1.1"
   id="svg3"
   sodipodi:docname=".tmp_book-headphones.svg"
   xmlns:inkscape="http://www.inkscape.org/namespaces/inkscape"
   xmlns:sodipodi="http://sodipodi.sourceforge.net/DTD/sodipodi-0.dtd"
   xmlns="http://www.w3.org/2000/svg"
   xmlns:svg="http://www.w3.org/2000/svg">
  <defs
     id="defs3" />
  <sodipodi:namedview
     id="namedview3"
     pagecolor="#ffffff"
     bordercolor="#000000"
     borderopacity="0.25"
     inkscape:showpageshadow="2"
     inkscape:pageopacity="0.0"
     inkscape:pagecheckerboard="0"
     inkscape:deskcolor="#d1d1d1" />
  <path
     id="path1"
     style="baseline-shift:baseline;display:inline;overflow:visible;vector-effect:none;fill:#000000;stroke:none;stroke-linecap:butt;stroke-linejoin:miter;enable-background:accumulate;stop-color:#000000;stop-opacity:1;opacity:1"
     d="M 6.5 1.375 C 4.7815131 1.375 3.375 2.7815131 3.375 4.5 L 3.375 19.5 C 3.375 20.263889 3.6269912 21.037152 4.1582031 21.634766 C 4.6894151 22.232379 5.510417 22.625 6.5 22.625 L 19 22.625 C 19.89006 22.625 20.625 21.89006 20.625 21 L 20.625 17 L 20.625 3 C 20.625 2.1099402 19.89006 1.375 19 1.375 L 6.5 1.375 z M 6.5 2.625 L 19 2.625 C 19.21451 2.625 19.375 2.7854903 19.375 3 L 19.375 16.375 L 6.5 16.375 C 5.7417822 16.375 5.1308539 16.652492 4.625 17.029297 L 4.625 4.5 C 4.625 3.4570632 5.4570632 2.625 6.5 2.625 z M 12 5.375 C 10.861111 5.375 9.7128481 5.7519913 8.8339844 6.5332031 C 7.9551207 7.314415 7.375 8.5104172 7.375 10 L 7.375 12 C 7.375 12.89006 8.1099402 13.625 9 13.625 C 9.8900598 13.625 10.625 12.89006 10.625 12 C 10.625 11.10994 9.8900598 10.375 9 10.375 C 8.8711637 10.375 8.7455775 10.390883 8.625 10.419922 L 8.625 10 C 8.625 8.8229173 9.0448793 8.0189178 9.6660156 7.4667969 C 10.287152 6.914676 11.138889 6.625 12 6.625 C 12.861111 6.625 13.712848 6.914676 14.333984 7.4667969 C 14.955121 8.0189178 15.375 8.8229173 15.375 10 L 15.375 10.419922 C 15.254423 10.390883 15.128836 10.375 15 10.375 C 14.10994 10.375 13.375 11.10994 13.375 12 C 13.375 12.89006 14.10994 13.625 15 13.625 C 15.89006 13.625 16.625 12.89006 16.625 12 L 16.625 10 C 16.625 8.5104172 16.044879 7.314415 15.166016 6.5332031 C 14.287152 5.7519913 13.138889 5.375 12 5.375 z M 9 11.625 C 9.2145097 11.625 9.375 11.78549 9.375 12 C 9.375 12.21451 9.2145097 12.375 9 12.375 C 8.7854903 12.375 8.625 12.21451 8.625 12 C 8.625 11.78549 8.7854903 11.625 9 11.625 z M 15 11.625 C 15.21451 11.625 15.375 11.78549 15.375 12 C 15.375 12.21451 15.21451 12.375 15 12.375 C 14.78549 12.375 14.625 12.21451 14.625 12 C 14.625 11.78549 14.78549 11.625 15 11.625 z M 6.5 17.625 L 19.375 17.625 L 19.375 21 C 19.375 21.21451 19.21451 21.375 19 21.375 L 6.5 21.375 C 5.8229171 21.375 5.3939179 21.142621 5.0917969 20.802734 C 4.7896758 20.462848 4.625 19.986111 4.625 19.5 C 4.625 19.013889 4.7896758 18.537152 5.0917969 18.197266 C 5.3939179 17.857379 5.8229171 17.625 6.5 17.625 z " />
</svg>
