<?xml version="1.0" encoding="UTF-8" standalone="no"?>
<svg
   width="24"
   height="24"
   viewBox="0 0 24 24"
   fill="none"
   stroke="currentColor"
   stroke-width="1.25"
   stroke-linecap="round"
   stroke-linejoin="round"
   version="1.1"
   id="svg2"
   sodipodi:docname=".tmp_brackets.svg"
   xmlns:inkscape="http://www.inkscape.org/namespaces/inkscape"
   xmlns:sodipodi="http://sodipodi.sourceforge.net/DTD/sodipodi-0.dtd"
   xmlns="http://www.w3.org/2000/svg"
   xmlns:svg="http://www.w3.org/2000/svg">
  <defs
     id="defs2" />
  <sodipodi:namedview
     id="namedview2"
     pagecolor="#ffffff"
     bordercolor="#000000"
     borderopacity="0.25"
     inkscape:showpageshadow="2"
     inkscape:pageopacity="0.0"
     inkscape:pagecheckerboard="0"
     inkscape:deskcolor="#d1d1d1" />
  <path
     id="path1"
     style="baseline-shift:baseline;display:inline;overflow:visible;vector-effect:none;fill:#000000;stroke:none;stroke-linecap:butt;stroke-linejoin:miter;enable-background:accumulate;stop-color:#000000;stop-opacity:1;opacity:1"
     d="M 5 2.375 C 4.1099402 2.375 3.375 3.1099402 3.375 4 L 3.375 20 C 3.375 20.89006 4.1099402 21.625 5 21.625 L 8 21.625 A 0.625 0.625 0 0 0 8.625 21 A 0.625 0.625 0 0 0 8 20.375 L 5 20.375 C 4.7854903 20.375 4.625 20.21451 4.625 20 L 4.625 4 C 4.625 3.7854903 4.7854903 3.625 5 3.625 L 8 3.625 A 0.625 0.625 0 0 0 8.625 3 A 0.625 0.625 0 0 0 8 2.375 L 5 2.375 z M 16 2.375 A 0.625 0.625 0 0 0 15.375 3 A 0.625 0.625 0 0 0 16 3.625 L 19 3.625 C 19.21451 3.625 19.375 3.7854903 19.375 4 L 19.375 20 C 19.375 20.21451 19.21451 20.375 19 20.375 L 16 20.375 A 0.625 0.625 0 0 0 15.375 21 A 0.625 0.625 0 0 0 16 21.625 L 19 21.625 C 19.89006 21.625 20.625 20.89006 20.625 20 L 20.625 4 C 20.625 3.1099402 19.89006 2.375 19 2.375 L 16 2.375 z " />
</svg>
