<?xml version="1.0" encoding="UTF-8" standalone="no"?>
<svg
   width="24"
   height="24"
   viewBox="0 0 24 24"
   fill="none"
   stroke="currentColor"
   stroke-width="1.25"
   stroke-linecap="round"
   stroke-linejoin="round"
   version="1.1"
   id="svg12"
   sodipodi:docname=".tmp_brain-circuit.svg"
   xmlns:inkscape="http://www.inkscape.org/namespaces/inkscape"
   xmlns:sodipodi="http://sodipodi.sourceforge.net/DTD/sodipodi-0.dtd"
   xmlns="http://www.w3.org/2000/svg"
   xmlns:svg="http://www.w3.org/2000/svg">
  <defs
     id="defs12" />
  <sodipodi:namedview
     id="namedview12"
     pagecolor="#ffffff"
     bordercolor="#000000"
     borderopacity="0.25"
     inkscape:showpageshadow="2"
     inkscape:pageopacity="0.0"
     inkscape:pagecheckerboard="0"
     inkscape:deskcolor="#d1d1d1" />
  <path
     id="path1"
     style="baseline-shift:baseline;display:inline;overflow:visible;vector-effect:none;fill:#000000;stroke:none;stroke-linecap:butt;stroke-linejoin:miter;enable-background:accumulate;stop-color:#000000;stop-opacity:1;opacity:1"
     d="M 8.9238281 1.3671875 C 8.0220982 1.3859829 7.1179287 1.7034568 6.4355469 2.3476562 C 5.8429342 2.9071095 5.5058332 3.753258 5.4453125 4.7304688 C 2.9969744 5.6331589 1.8051882 8.3623271 2.8144531 10.771484 C 0.78771279 12.7892 1.0772268 16.130814 3.4414062 17.755859 C 3.3175381 20.247109 5.1687691 22.446994 7.7011719 22.611328 C 10.145192 22.769927 12.258524 20.984883 12.582031 18.625 L 18 18.625 C 18.766794 18.625 19.375 19.233206 19.375 20 L 19.375 20.068359 C 19.074973 20.271985 18.875 20.615984 18.875 21 C 18.875 21.613917 19.386083 22.125 20 22.125 C 20.613917 22.125 21.125 21.613917 21.125 21 C 21.125 20.615984 20.925027 20.271985 20.625 20.068359 L 20.625 20 C 20.625 18.557655 19.442345 17.375 18 17.375 L 12.625 17.375 L 12.625 13.625 L 15.068359 13.625 C 15.271985 13.925027 15.615984 14.125 16 14.125 C 16.613917 14.125 17.125 13.613917 17.125 13 C 17.125 12.386083 16.613917 11.875 16 11.875 C 15.615984 11.875 15.271985 12.074973 15.068359 12.375 L 12.625 12.375 L 12.625 9.0332031 A 0.625 0.625 0 0 0 12.625 8.9648438 L 12.625 8.625 L 19.068359 8.625 C 19.271985 8.9250274 19.615984 9.125 20 9.125 C 20.613917 9.125 21.125 8.6139174 21.125 8 C 21.125 7.3860826 20.613917 6.875 20 6.875 C 19.615984 6.875 19.271985 7.0749726 19.068359 7.375 L 16.625 7.375 L 16.625 5 C 16.625 4.5083692 16.874325 4.0825897 17.255859 3.8398438 C 17.455164 4.0170579 17.717003 4.125 18 4.125 C 18.613917 4.125 19.125 3.6139174 19.125 3 C 19.125 2.3860826 18.613917 1.875 18 1.875 C 17.528321 1.875 17.118243 2.1774726 16.953125 2.5957031 C 16.027444 3.0027191 15.375 3.9294356 15.375 5 L 15.375 7.375 L 12.625 7.375 L 12.625 5.0019531 C 12.628481 3.8204398 12.159804 2.8593461 11.451172 2.2441406 C 10.742539 1.6289351 9.825558 1.3483921 8.9238281 1.3671875 z M 8.9511719 2.6171875 C 9.573044 2.6042253 10.189584 2.8027078 10.632812 3.1875 C 11.07604 3.5722922 11.377553 4.1314208 11.375 4.9980469 A 0.6250625 0.6250625 0 0 0 11.375 5 L 11.375 8.9667969 C 11.28958 10.533506 10.273091 11.889471 8.7929688 12.410156 A 0.625 0.625 0 0 0 8.4101562 13.207031 A 0.625 0.625 0 0 0 9.2070312 13.589844 C 10.063176 13.288665 10.803695 12.773015 11.375 12.115234 L 11.375 18 C 11.3729 19.957527 9.7346673 21.490044 7.78125 21.363281 C 6.1233902 21.255699 4.8458582 19.990718 4.6503906 18.423828 C 5.0862598 18.556528 5.5403948 18.625215 6 18.625 A 0.625 0.625 0 0 0 6.625 18 A 0.625 0.625 0 0 0 6 17.375 C 5.4184837 17.375271 4.8463444 17.225142 4.3398438 16.939453 C 2.2495282 15.759581 2.008089 12.894375 3.8710938 11.380859 A 0.6250625 0.6250625 0 0 0 3.8730469 11.378906 C 4.0269018 11.253779 4.1918323 11.143108 4.3652344 11.046875 A 0.625 0.625 0 0 0 4.609375 10.197266 A 0.625 0.625 0 0 0 3.7578125 9.953125 C 3.2849015 8.377983 4.0278145 6.687135 5.5078125 5.96875 C 5.5889476 6.2627078 5.7061215 6.5464753 5.859375 6.8125 A 0.625 0.625 0 0 0 6.7128906 7.0410156 A 0.625 0.625 0 0 0 6.9433594 6.1875 C 6.7535259 5.8579782 6.6439446 5.4891883 6.6269531 5.109375 A 0.6250625 0.6250625 0 0 0 6.6269531 5.0996094 A 0.625 0.625 0 0 0 6.6269531 5.0976562 C 6.5882901 4.2318893 6.8661599 3.6607395 7.2929688 3.2578125 C 7.7197776 2.8548855 8.3292993 2.6301497 8.9511719 2.6171875 z " />
</svg>
