<?xml version="1.0" encoding="UTF-8" standalone="no"?>
<svg
   width="24"
   height="24"
   viewBox="0 0 24 24"
   fill="none"
   stroke="currentColor"
   stroke-width="1.25"
   stroke-linecap="round"
   stroke-linejoin="round"
   version="1.1"
   id="svg5"
   sodipodi:docname=".tmp_candy.svg"
   xmlns:inkscape="http://www.inkscape.org/namespaces/inkscape"
   xmlns:sodipodi="http://sodipodi.sourceforge.net/DTD/sodipodi-0.dtd"
   xmlns="http://www.w3.org/2000/svg"
   xmlns:svg="http://www.w3.org/2000/svg">
  <defs
     id="defs5" />
  <sodipodi:namedview
     id="namedview5"
     pagecolor="#ffffff"
     bordercolor="#000000"
     borderopacity="0.25"
     inkscape:showpageshadow="2"
     inkscape:pageopacity="0.0"
     inkscape:pagecheckerboard="0"
     inkscape:deskcolor="#d1d1d1" />
  <path
     id="path1"
     style="baseline-shift:baseline;display:inline;overflow:visible;vector-effect:none;fill:#000000;stroke:none;stroke-linecap:butt;stroke-linejoin:miter;enable-background:accumulate;stop-color:#000000;stop-opacity:1;opacity:1"
     d="M 17.052734 1.3789062 C 16.81895 1.3704008 16.588245 1.4113439 16.378906 1.4980469 C 15.82067 1.7292553 15.375149 2.3027868 15.375 3 L 15.375 5.9003906 C 14.995758 5.7244155 14.600086 5.5929295 14.197266 5.5058594 A 0.625 0.625 0 0 0 14.046875 5.4765625 C 13.700934 5.4115475 13.350879 5.3789062 13 5.3789062 C 11.839758 5.3789062 10.681336 5.7405939 9.7011719 6.4511719 A 0.625 0.625 0 0 0 9.5585938 6.5585938 C 9.3729479 6.7024465 9.1917333 6.8531437 9.0214844 7.0234375 L 7.0214844 9.0234375 C 5.3084857 10.736954 4.9344234 13.293738 5.9003906 15.375 L 3 15.375 C 2.3027868 15.375149 1.7292553 15.82067 1.4980469 16.378906 C 1.2668385 16.937142 1.3586327 17.655359 1.8515625 18.148438 A 0.6250625 0.6250625 0 0 0 1.8535156 18.152344 C 2.2809863 18.573803 2.4818448 19.172 2.3925781 19.765625 A 0.6250625 0.6250625 0 0 0 2.390625 19.771484 C 2.240315 20.826948 3.1730516 21.759685 4.2285156 21.609375 A 0.6250625 0.6250625 0 0 0 4.234375 21.607422 C 4.8279997 21.518152 5.4261973 21.719014 5.8476562 22.146484 A 0.6250625 0.6250625 0 0 0 5.8515625 22.148438 C 6.3446411 22.641368 7.0628579 22.733162 7.6210938 22.501953 C 8.1793253 22.270711 8.6248511 21.697213 8.625 21 L 8.625 18.097656 C 9.0034179 18.273194 9.3968859 18.405167 9.7988281 18.492188 A 0.625 0.625 0 0 0 9.9550781 18.523438 C 11.440614 18.801616 13.013028 18.472462 14.287109 17.552734 A 0.625 0.625 0 0 0 14.408203 17.470703 C 14.605962 17.319867 14.797973 17.157153 14.978516 16.976562 L 16.978516 14.976562 C 18.691514 13.263046 19.065576 10.706262 18.099609 8.625 L 21 8.625 C 21.697213 8.6248511 22.270745 8.1793296 22.501953 7.6210938 C 22.733162 7.0628579 22.641367 6.3446411 22.148438 5.8515625 A 0.6250625 0.6250625 0 0 0 22.146484 5.8476562 C 21.719061 5.4262011 21.518155 4.8279997 21.607422 4.234375 A 0.6250625 0.6250625 0 0 0 21.609375 4.2285156 C 21.759638 3.1730522 20.826948 2.240315 19.771484 2.390625 A 0.6250625 0.6250625 0 0 0 19.765625 2.3925781 C 19.172041 2.4818479 18.573803 2.2809863 18.152344 1.8535156 A 0.6250625 0.6250625 0 0 0 18.148438 1.8515625 C 17.901892 1.6050945 17.598367 1.4596071 17.287109 1.4042969 C 17.209295 1.3904694 17.130662 1.3817414 17.052734 1.3789062 z M 17.009766 2.6191406 C 17.094158 2.6176991 17.178546 2.6500337 17.263672 2.734375 L 17.265625 2.734375 C 17.965856 3.4425671 18.96221 3.7757456 19.947266 3.6289062 C 20.211096 3.5913343 20.408666 3.7889044 20.371094 4.0527344 C 20.224171 5.0383518 20.5566 6.0360372 21.265625 6.7363281 C 21.400571 6.8725288 21.402484 7.00548 21.345703 7.1425781 C 21.288608 7.2803109 21.193516 7.3749587 21 7.375 L 17.300781 7.375 C 17.198983 7.2543618 17.09209 7.1370462 16.978516 7.0234375 C 16.864303 6.909195 16.746334 6.801562 16.625 6.6992188 L 16.625 3 C 16.625041 2.8064841 16.71969 2.7113426 16.857422 2.6542969 C 16.908834 2.6330033 16.95913 2.6200055 17.009766 2.6191406 z M 13 6.6210938 C 13.125125 6.6210938 13.250247 6.6260054 13.375 6.6367188 L 13.375 16.675781 C 12.54465 17.215237 11.574228 17.44491 10.625 17.363281 L 10.625 7.3242188 C 11.346184 6.8558389 12.173024 6.6210938 13 6.6210938 z M 14.625 6.9335938 C 14.964834 7.0698534 15.291423 7.2512671 15.595703 7.4765625 A 0.625 0.625 0 0 0 15.654297 7.5195312 C 15.807232 7.6367338 15.953646 7.7661088 16.09375 7.90625 C 16.234432 8.0469749 16.362892 8.1939762 16.480469 8.3476562 A 0.625 0.625 0 0 0 16.521484 8.4023438 C 17.792235 10.117216 17.649833 12.537197 16.09375 14.09375 L 14.625 15.5625 L 14.625 6.9335938 z M 9.375 8.4375 L 9.375 17.066406 C 9.035323 16.930114 8.7084593 16.748641 8.4042969 16.523438 C 8.3845876 16.508845 8.3652243 16.495435 8.3457031 16.480469 C 8.1928928 16.363314 8.046244 16.233781 7.90625 16.09375 C 7.7655677 15.953025 7.6371081 15.806024 7.5195312 15.652344 C 7.5058376 15.634445 7.4918958 15.615713 7.4785156 15.597656 C 6.2077656 13.882785 6.350167 11.462803 7.90625 9.90625 L 9.375 8.4375 z M 3 16.625 L 6.6992188 16.625 C 6.8010166 16.745638 6.9079101 16.862954 7.0214844 16.976562 C 7.1356991 17.090807 7.2536681 17.198444 7.375 17.300781 L 7.375 21 C 7.3749587 21.193516 7.280311 21.288657 7.1425781 21.345703 C 7.00548 21.402483 6.8725288 21.400575 6.7363281 21.265625 L 6.734375 21.265625 C 6.0341439 20.557435 5.0377897 20.224254 4.0527344 20.371094 C 3.7889044 20.408666 3.5913339 20.211096 3.6289062 19.947266 C 3.7757455 18.96221 3.4425671 17.965856 2.734375 17.265625 L 2.734375 17.263672 C 2.5994293 17.127518 2.597514 16.99452 2.6542969 16.857422 C 2.7113426 16.719689 2.8064841 16.625041 3 16.625 z " />
</svg>
