<?xml version="1.0" encoding="UTF-8" standalone="no"?>
<svg
   width="24"
   height="24"
   viewBox="0 0 24 24"
   fill="none"
   stroke="currentColor"
   stroke-width="1.25"
   stroke-linecap="round"
   stroke-linejoin="round"
   version="1.1"
   id="svg1"
   sodipodi:docname=".tmp_captions.svg"
   xmlns:inkscape="http://www.inkscape.org/namespaces/inkscape"
   xmlns:sodipodi="http://sodipodi.sourceforge.net/DTD/sodipodi-0.dtd"
   xmlns="http://www.w3.org/2000/svg"
   xmlns:svg="http://www.w3.org/2000/svg">
  <defs
     id="defs1" />
  <sodipodi:namedview
     id="namedview1"
     pagecolor="#ffffff"
     bordercolor="#000000"
     borderopacity="0.25"
     inkscape:showpageshadow="2"
     inkscape:pageopacity="0.0"
     inkscape:pagecheckerboard="0"
     inkscape:deskcolor="#d1d1d1" />
  <path
     id="rect1"
     style="baseline-shift:baseline;display:inline;overflow:visible;vector-effect:none;fill:#000000;stroke:none;stroke-linecap:butt;stroke-linejoin:miter;enable-background:accumulate;stop-color:#000000;stop-opacity:1;opacity:1"
     d="M 5 4.375 C 3.5565608 4.375 2.375 5.5565608 2.375 7 L 2.375 17 C 2.375 18.443439 3.5565608 19.625 5 19.625 L 19 19.625 C 20.443439 19.625 21.625 18.443439 21.625 17 L 21.625 7 C 21.625 5.5565608 20.443439 4.375 19 4.375 L 5 4.375 z M 5 5.625 L 19 5.625 C 19.772561 5.625 20.375 6.2274392 20.375 7 L 20.375 17 C 20.375 17.772561 19.772561 18.375 19 18.375 L 5 18.375 C 4.2274392 18.375 3.625 17.772561 3.625 17 L 3.625 7 C 3.625 6.2274392 4.2274392 5.625 5 5.625 z M 7 10.375 A 0.625 0.625 0 0 0 6.375 11 A 0.625 0.625 0 0 0 7 11.625 L 9 11.625 A 0.625 0.625 0 0 0 9.625 11 A 0.625 0.625 0 0 0 9 10.375 L 7 10.375 z M 13 10.375 A 0.625 0.625 0 0 0 12.375 11 A 0.625 0.625 0 0 0 13 11.625 L 17 11.625 A 0.625 0.625 0 0 0 17.625 11 A 0.625 0.625 0 0 0 17 10.375 L 13 10.375 z M 7 14.375 A 0.625 0.625 0 0 0 6.375 15 A 0.625 0.625 0 0 0 7 15.625 L 11 15.625 A 0.625 0.625 0 0 0 11.625 15 A 0.625 0.625 0 0 0 11 14.375 L 7 14.375 z M 15 14.375 A 0.625 0.625 0 0 0 14.375 15 A 0.625 0.625 0 0 0 15 15.625 L 17 15.625 A 0.625 0.625 0 0 0 17.625 15 A 0.625 0.625 0 0 0 17 14.375 L 15 14.375 z " />
</svg>
