<?xml version="1.0" encoding="UTF-8" standalone="no"?>
<svg
   width="24"
   height="24"
   viewBox="0 0 24 24"
   fill="none"
   stroke="currentColor"
   stroke-width="1.25"
   stroke-linecap="round"
   stroke-linejoin="round"
   version="1.1"
   id="svg5"
   sodipodi:docname=".tmp_car-front.svg"
   xmlns:inkscape="http://www.inkscape.org/namespaces/inkscape"
   xmlns:sodipodi="http://sodipodi.sourceforge.net/DTD/sodipodi-0.dtd"
   xmlns="http://www.w3.org/2000/svg"
   xmlns:svg="http://www.w3.org/2000/svg">
  <defs
     id="defs5" />
  <sodipodi:namedview
     id="namedview5"
     pagecolor="#ffffff"
     bordercolor="#000000"
     borderopacity="0.25"
     inkscape:showpageshadow="2"
     inkscape:pageopacity="0.0"
     inkscape:pagecheckerboard="0"
     inkscape:deskcolor="#d1d1d1" />
  <path
     id="path1"
     style="baseline-shift:baseline;display:inline;overflow:visible;vector-effect:none;fill:#000000;stroke:none;stroke-linecap:butt;stroke-linejoin:miter;enable-background:accumulate;stop-color:#000000;stop-opacity:1;opacity:1"
     d="M 8.4140625 4.375 C 7.3208717 4.349892 6.3219548 5.0100533 5.9160156 6.0253906 L 4.7714844 8.8886719 L 3.4414062 7.5585938 A 0.625 0.625 0 0 0 2.5585938 7.5585938 A 0.625 0.625 0 0 0 2.5585938 8.4414062 L 3.7890625 9.671875 C 2.9501688 10.111359 2.375 10.992239 2.375 12 L 2.375 16 C 2.375 17.228271 3.2305545 18.266467 4.375 18.548828 L 4.375 20 A 0.625 0.625 0 0 0 5 20.625 A 0.625 0.625 0 0 0 5.625 20 L 5.625 18.625 L 18.375 18.625 L 18.375 20 A 0.625 0.625 0 0 0 19 20.625 A 0.625 0.625 0 0 0 19.625 20 L 19.625 18.548828 C 20.769445 18.266467 21.625 17.228271 21.625 16 L 21.625 12 C 21.625 10.992249 21.049817 10.111363 20.210938 9.671875 L 21.441406 8.4414062 A 0.625 0.625 0 0 0 21.441406 7.5585938 A 0.625 0.625 0 0 0 20.558594 7.5585938 L 19.226562 8.890625 L 18.085938 6.0820312 C 17.706573 5.0665314 16.736339 4.3855885 15.652344 4.375 A 0.6250625 0.6250625 0 0 0 15.646484 4.375 L 8.4140625 4.375 z M 8.3847656 5.625 A 0.6250625 0.6250625 0 0 0 8.4003906 5.625 L 15.640625 5.625 C 16.211471 5.63058 16.714284 5.9847555 16.914062 6.5195312 A 0.6250625 0.6250625 0 0 0 16.919922 6.5351562 L 18.072266 9.375 L 5.9238281 9.375 L 7.078125 6.4882812 C 7.2919348 5.9534989 7.8089776 5.6117755 8.3847656 5.625 z M 5 10.625 L 19 10.625 C 19.772561 10.625 20.375 11.227439 20.375 12 L 20.375 16 C 20.375 16.772561 19.772561 17.375 19 17.375 L 5 17.375 C 4.2274392 17.375 3.625 16.772561 3.625 16 L 3.625 12 C 3.625 11.227439 4.2274392 10.625 5 10.625 z M 7 13.375 A 0.625 0.625 0 0 0 6.375 14 A 0.625 0.625 0 0 0 7 14.625 L 7.0097656 14.625 A 0.625 0.625 0 0 0 7.6347656 14 A 0.625 0.625 0 0 0 7.0097656 13.375 L 7 13.375 z M 17 13.375 A 0.625 0.625 0 0 0 16.375 14 A 0.625 0.625 0 0 0 17 14.625 L 17.009766 14.625 A 0.625 0.625 0 0 0 17.634766 14 A 0.625 0.625 0 0 0 17.009766 13.375 L 17 13.375 z " />
</svg>
