<?xml version="1.0" encoding="UTF-8" standalone="no"?>
<svg
   width="24"
   height="24"
   viewBox="0 0 24 24"
   fill="none"
   stroke="currentColor"
   stroke-width="1.25"
   stroke-linecap="round"
   stroke-linejoin="round"
   version="1.1"
   id="svg8"
   sodipodi:docname=".tmp_castle.svg"
   xmlns:inkscape="http://www.inkscape.org/namespaces/inkscape"
   xmlns:sodipodi="http://sodipodi.sourceforge.net/DTD/sodipodi-0.dtd"
   xmlns="http://www.w3.org/2000/svg"
   xmlns:svg="http://www.w3.org/2000/svg">
  <defs
     id="defs8" />
  <sodipodi:namedview
     id="namedview8"
     pagecolor="#ffffff"
     bordercolor="#000000"
     borderopacity="0.25"
     inkscape:showpageshadow="2"
     inkscape:pageopacity="0.0"
     inkscape:pagecheckerboard="0"
     inkscape:deskcolor="#d1d1d1" />
  <path
     id="path1"
     style="baseline-shift:baseline;display:inline;overflow:visible;vector-effect:none;fill:#000000;stroke:none;stroke-linecap:butt;stroke-linejoin:miter;enable-background:accumulate;stop-color:#000000;stop-opacity:1;opacity:1"
     d="M 6 2.375 A 0.625 0.625 0 0 0 5.375 3 L 5.375 5 L 5.375 10.375 L 2.625 10.375 L 2.625 9 A 0.625 0.625 0 0 0 2 8.375 A 0.625 0.625 0 0 0 1.375 9 L 1.375 19 C 1.375 20.442345 2.5576554 21.625 4 21.625 L 20 21.625 C 21.442345 21.625 22.625 20.442345 22.625 19 L 22.625 9 A 0.625 0.625 0 0 0 22 8.375 A 0.625 0.625 0 0 0 21.375 9 L 21.375 10.375 L 18.625 10.375 L 18.625 3 A 0.625 0.625 0 0 0 18 2.375 A 0.625 0.625 0 0 0 17.375 3 L 17.375 4.375 L 14.625 4.375 L 14.625 3 A 0.625 0.625 0 0 0 14 2.375 A 0.625 0.625 0 0 0 13.375 3 L 13.375 4.375 L 10.625 4.375 L 10.625 3 A 0.625 0.625 0 0 0 10 2.375 A 0.625 0.625 0 0 0 9.375 3 L 9.375 4.375 L 6.625 4.375 L 6.625 3 A 0.625 0.625 0 0 0 6 2.375 z M 6.625 5.625 L 17.375 5.625 L 17.375 10.375 L 6.625 10.375 L 6.625 5.625 z M 2.625 11.625 L 6 11.625 L 21.375 11.625 L 21.375 19 C 21.375 19.766794 20.766794 20.375 20 20.375 L 15.625 20.375 L 15.625 18 C 15.625 16.84375 15.169879 15.897748 14.478516 15.283203 C 13.787152 14.668658 12.888889 14.375 12 14.375 C 11.111111 14.375 10.212848 14.668658 9.5214844 15.283203 C 8.8301207 15.897748 8.375 16.84375 8.375 18 L 8.375 20.375 L 4 20.375 C 3.2332056 20.375 2.625 19.766794 2.625 19 L 2.625 11.625 z M 12 15.625 C 12.611111 15.625 13.212848 15.831343 13.646484 16.216797 C 14.080121 16.602251 14.375 17.156251 14.375 18 L 14.375 20.375 L 9.625 20.375 L 9.625 18 C 9.625 17.156251 9.9198789 16.602251 10.353516 16.216797 C 10.787152 15.831343 11.388889 15.625 12 15.625 z " />
</svg>
