<?xml version="1.0" encoding="UTF-8" standalone="no"?>
<svg
   width="24"
   height="24"
   viewBox="0 0 24 24"
   fill="none"
   stroke="currentColor"
   stroke-width="1.25"
   stroke-linecap="round"
   stroke-linejoin="round"
   version="1.1"
   id="svg5"
   sodipodi:docname=".tmp_chart-candlestick.svg"
   xmlns:inkscape="http://www.inkscape.org/namespaces/inkscape"
   xmlns:sodipodi="http://sodipodi.sourceforge.net/DTD/sodipodi-0.dtd"
   xmlns="http://www.w3.org/2000/svg"
   xmlns:svg="http://www.w3.org/2000/svg">
  <defs
     id="defs5" />
  <sodipodi:namedview
     id="namedview5"
     pagecolor="#ffffff"
     bordercolor="#000000"
     borderopacity="0.25"
     inkscape:showpageshadow="2"
     inkscape:pageopacity="0.0"
     inkscape:pagecheckerboard="0"
     inkscape:deskcolor="#d1d1d1" />
  <path
     id="path1"
     style="baseline-shift:baseline;display:inline;overflow:visible;vector-effect:none;fill:#000000;stroke:none;stroke-linecap:butt;stroke-linejoin:miter;enable-background:accumulate;stop-color:#000000;stop-opacity:1;opacity:1"
     d="M 3 2.375 A 0.625 0.625 0 0 0 2.375 3 L 2.375 19 C 2.375 20.442345 3.5576554 21.625 5 21.625 L 21 21.625 A 0.625 0.625 0 0 0 21.625 21 A 0.625 0.625 0 0 0 21 20.375 L 5 20.375 C 4.2332056 20.375 3.625 19.766794 3.625 19 L 3.625 3 A 0.625 0.625 0 0 0 3 2.375 z M 17 2.375 A 0.625 0.625 0 0 0 16.375 3 L 16.375 4.375 L 16 4.375 C 15.110561 4.375 14.375 5.1105608 14.375 6 L 14.375 12 C 14.375 12.889439 15.110561 13.625 16 13.625 L 16.375 13.625 L 16.375 16 A 0.625 0.625 0 0 0 17 16.625 A 0.625 0.625 0 0 0 17.625 16 L 17.625 13.625 L 18 13.625 C 18.889439 13.625 19.625 12.889439 19.625 12 L 19.625 6 C 19.625 5.1105608 18.889439 4.375 18 4.375 L 17.625 4.375 L 17.625 3 A 0.625 0.625 0 0 0 17 2.375 z M 9 4.375 A 0.625 0.625 0 0 0 8.375 5 L 8.375 8.375 L 8 8.375 C 7.1105608 8.375 6.375 9.1105608 6.375 10 L 6.375 14 C 6.375 14.889439 7.1105608 15.625 8 15.625 L 8.375 15.625 L 8.375 17 A 0.625 0.625 0 0 0 9 17.625 A 0.625 0.625 0 0 0 9.625 17 L 9.625 15.625 L 10 15.625 C 10.889439 15.625 11.625 14.889439 11.625 14 L 11.625 10 C 11.625 9.1105608 10.889439 8.375 10 8.375 L 9.625 8.375 L 9.625 5 A 0.625 0.625 0 0 0 9 4.375 z M 16 5.625 L 18 5.625 C 18.218561 5.625 18.375 5.7814392 18.375 6 L 18.375 12 C 18.375 12.218561 18.218561 12.375 18 12.375 L 16 12.375 C 15.781439 12.375 15.625 12.218561 15.625 12 L 15.625 6 C 15.625 5.7814392 15.781439 5.625 16 5.625 z M 8 9.625 L 10 9.625 C 10.218561 9.625 10.375 9.7814392 10.375 10 L 10.375 14 C 10.375 14.218561 10.218561 14.375 10 14.375 L 8 14.375 C 7.7814392 14.375 7.625 14.218561 7.625 14 L 7.625 10 C 7.625 9.7814392 7.7814392 9.625 8 9.625 z " />
</svg>
