<?xml version="1.0" encoding="UTF-8" standalone="no"?>
<svg
   width="24"
   height="24"
   viewBox="0 0 24 24"
   fill="none"
   stroke="currentColor"
   stroke-width="1.25"
   stroke-linecap="round"
   stroke-linejoin="round"
   version="1.1"
   id="svg6"
   sodipodi:docname=".tmp_chart-no-axes-combined.svg"
   xmlns:inkscape="http://www.inkscape.org/namespaces/inkscape"
   xmlns:sodipodi="http://sodipodi.sourceforge.net/DTD/sodipodi-0.dtd"
   xmlns="http://www.w3.org/2000/svg"
   xmlns:svg="http://www.w3.org/2000/svg">
  <defs
     id="defs6" />
  <sodipodi:namedview
     id="namedview6"
     pagecolor="#ffffff"
     bordercolor="#000000"
     borderopacity="0.25"
     inkscape:showpageshadow="2"
     inkscape:pageopacity="0.0"
     inkscape:pagecheckerboard="0"
     inkscape:deskcolor="#d1d1d1" />
  <path
     id="path1"
     style="baseline-shift:baseline;display:inline;overflow:visible;vector-effect:none;fill:#000000;stroke:none;stroke-linecap:butt;stroke-linejoin:miter;enable-background:accumulate;stop-color:#000000;stop-opacity:1;opacity:1"
     d="M 22 2.3769531 A 0.625 0.625 0 0 0 21.558594 2.5585938 L 13 11.115234 L 9.796875 7.9121094 A 0.6250625 0.6250625 0 0 0 9.7949219 7.9121094 C 9.3608369 7.4781586 8.63916 7.4781586 8.2050781 7.9121094 L 1.5585938 14.558594 A 0.625 0.625 0 0 0 1.5585938 15.441406 A 0.625 0.625 0 0 0 2.4414062 15.441406 L 9 8.8847656 L 12.203125 12.087891 C 12.637424 12.523289 13.362576 12.523289 13.796875 12.087891 L 22.441406 3.4414062 A 0.625 0.625 0 0 0 22.441406 2.5585938 A 0.625 0.625 0 0 0 22 2.3769531 z M 20 9.375 A 0.625 0.625 0 0 0 19.375 10 L 19.375 21 A 0.625 0.625 0 0 0 20 21.625 A 0.625 0.625 0 0 0 20.625 21 L 20.625 10 A 0.625 0.625 0 0 0 20 9.375 z M 8 13.375 A 0.625 0.625 0 0 0 7.375 14 L 7.375 21 A 0.625 0.625 0 0 0 8 21.625 A 0.625 0.625 0 0 0 8.625 21 L 8.625 14 A 0.625 0.625 0 0 0 8 13.375 z M 16 13.375 A 0.625 0.625 0 0 0 15.375 14 L 15.375 21 A 0.625 0.625 0 0 0 16 21.625 A 0.625 0.625 0 0 0 16.625 21 L 16.625 14 A 0.625 0.625 0 0 0 16 13.375 z M 12 15.375 A 0.625 0.625 0 0 0 11.375 16 L 11.375 21 A 0.625 0.625 0 0 0 12 21.625 A 0.625 0.625 0 0 0 12.625 21 L 12.625 16 A 0.625 0.625 0 0 0 12 15.375 z M 4 17.375 A 0.625 0.625 0 0 0 3.375 18 L 3.375 21 A 0.625 0.625 0 0 0 4 21.625 A 0.625 0.625 0 0 0 4.625 21 L 4.625 18 A 0.625 0.625 0 0 0 4 17.375 z " />
</svg>
