<?xml version="1.0" encoding="UTF-8" standalone="no"?>
<svg
   width="24"
   height="24"
   viewBox="0 0 24 24"
   fill="none"
   stroke="currentColor"
   stroke-width="1.25"
   stroke-linecap="round"
   stroke-linejoin="round"
   version="1.1"
   id="svg4"
   sodipodi:docname=".tmp_cherry.svg"
   xmlns:inkscape="http://www.inkscape.org/namespaces/inkscape"
   xmlns:sodipodi="http://sodipodi.sourceforge.net/DTD/sodipodi-0.dtd"
   xmlns="http://www.w3.org/2000/svg"
   xmlns:svg="http://www.w3.org/2000/svg">
  <defs
     id="defs4" />
  <sodipodi:namedview
     id="namedview4"
     pagecolor="#ffffff"
     bordercolor="#000000"
     borderopacity="0.25"
     inkscape:showpageshadow="2"
     inkscape:pageopacity="0.0"
     inkscape:pagecheckerboard="0"
     inkscape:deskcolor="#d1d1d1" />
  <path
     id="path1"
     style="baseline-shift:baseline;display:inline;overflow:visible;vector-effect:none;fill:#000000;stroke:none;stroke-linecap:butt;stroke-linejoin:miter;enable-background:accumulate;stop-color:#000000;stop-opacity:1;opacity:1"
     d="M 11.988281 1.375 A 0.6250625 0.6250625 0 0 0 11.925781 1.3808594 A 0.6250625 0.6250625 0 0 0 11.900391 1.3828125 A 0.6250625 0.6250625 0 0 0 11.876953 1.3867188 A 0.6250625 0.6250625 0 0 0 11.832031 1.3984375 A 0.6250625 0.6250625 0 0 0 11.822266 1.4023438 A 0.6250625 0.6250625 0 0 0 11.761719 1.4238281 A 0.6250625 0.6250625 0 0 0 11.742188 1.4296875 A 0.6250625 0.6250625 0 0 0 11.736328 1.4316406 A 0.6250625 0.6250625 0 0 0 11.666016 1.4726562 A 0.6250625 0.6250625 0 0 0 11.59375 1.5253906 A 0.6250625 0.6250625 0 0 0 11.533203 1.5839844 A 0.6250625 0.6250625 0 0 0 11.521484 1.5996094 A 0.6250625 0.6250625 0 0 0 11.478516 1.65625 A 0.6250625 0.6250625 0 0 0 11.476562 1.6601562 A 0.6250625 0.6250625 0 0 0 11.435547 1.734375 A 0.6250625 0.6250625 0 0 0 11.402344 1.8144531 A 0.6250625 0.6250625 0 0 0 11.400391 1.8222656 A 0.6250625 0.6250625 0 0 0 11.388672 1.8671875 C 10.696412 5.035983 9.6149729 10.492192 6.8613281 13.267578 C 6.308641 12.926059 5.7431514 12.661146 5.1914062 12.634766 C 4.4642912 12.6 3.7733899 12.806065 3.2050781 13.203125 C 2.0684546 13.997246 1.375 15.431292 1.375 17 C 1.375 20.0992 3.9008018 22.625 7 22.625 C 9.1727219 22.625 11.063629 21.384283 12 19.574219 C 12.936371 21.384283 14.827278 22.625 17 22.625 C 20.099198 22.625 22.625 20.0992 22.625 17 C 22.625 15.431292 21.931545 13.997246 20.794922 13.203125 C 19.898613 12.576904 18.701776 12.512654 17.539062 13.056641 C 17.290737 11.455924 16.542927 9.4724858 15.671875 7.5136719 C 15.653492 7.4723317 15.635682 7.4318974 15.617188 7.390625 C 15.77492 7.5185424 15.933943 7.6403632 16.095703 7.7578125 C 17.800028 8.9952715 19.741849 9.625 22 9.625 A 0.6250625 0.6250625 0 0 0 22.625 9 C 22.625 7.4514163 21.418103 5.6787013 19.537109 4.1425781 C 17.659766 2.6094361 15.035564 1.3797671 12.017578 1.375 C 12.01171 1.3749907 12.005871 1.375 12 1.375 A 0.6250625 0.6250625 0 0 0 11.988281 1.375 z M 13.396484 2.8945312 C 15.474996 3.2059816 17.369846 3.9854556 18.746094 5.109375 C 20.06405 6.1856908 20.758542 7.3550734 21.074219 8.2402344 C 19.485809 8.0913339 18.087237 7.658879 16.830078 6.7460938 C 15.630176 5.8748807 14.512719 4.5220429 13.396484 2.8945312 z M 12.214844 3.7109375 C 12.947278 4.9276239 13.752452 6.2745224 14.529297 8.0214844 C 15.307554 9.7716223 15.956368 11.590545 16.232422 12.923828 C 15.88411 12.76099 15.535399 12.651213 15.191406 12.634766 C 14.464291 12.6 13.77339 12.806065 13.205078 13.203125 C 12.713891 13.546302 12.305465 14.009369 12 14.550781 C 11.694535 14.009369 11.286109 13.546302 10.794922 13.203125 C 10.265587 12.833297 9.6311528 12.659429 8.9609375 12.691406 C 10.844652 9.9757294 11.638664 6.4125601 12.214844 3.7109375 z M 4.9726562 13.839844 C 5.0269577 13.837287 5.0811237 13.837158 5.1367188 13.839844 C 5.5814787 13.861324 6.068493 14.055576 6.609375 14.488281 A 0.625 0.625 0 0 0 6.6621094 14.525391 A 0.6250625 0.6250625 0 0 0 6.7226562 14.558594 A 0.625 0.625 0 0 0 6.7421875 14.568359 A 0.6250625 0.6250625 0 0 0 6.7539062 14.574219 A 0.625 0.625 0 0 0 6.8203125 14.599609 A 0.6250625 0.6250625 0 0 0 6.8652344 14.609375 A 0.625 0.625 0 0 0 6.9082031 14.617188 A 0.6250625 0.6250625 0 0 0 6.9160156 14.619141 A 0.625 0.625 0 0 0 6.9921875 14.625 A 0.6250625 0.6250625 0 0 0 7 14.625 A 0.625 0.625 0 0 0 7.0722656 14.619141 A 0.6250625 0.6250625 0 0 0 7.0839844 14.619141 A 0.625 0.625 0 0 0 7.1464844 14.607422 A 0.6250625 0.6250625 0 0 0 7.2109375 14.587891 A 0.625 0.625 0 0 0 7.2636719 14.566406 A 0.6250625 0.6250625 0 0 0 7.2851562 14.556641 A 0.625 0.625 0 0 0 7.296875 14.548828 A 0.6250625 0.6250625 0 0 0 7.3554688 14.513672 A 0.625 0.625 0 0 0 7.359375 14.509766 A 0.6250625 0.6250625 0 0 0 7.390625 14.488281 C 8.4723885 13.62287 9.3417017 13.710682 10.080078 14.226562 C 10.818455 14.742441 11.375 15.808708 11.375 17 C 11.375 19.423651 9.4236492 21.375 7 21.375 C 4.5763508 21.375 2.625 19.423651 2.625 17 C 2.625 15.808708 3.1815454 14.742441 3.9199219 14.226562 C 4.2429616 14.000865 4.5925463 13.857739 4.9726562 13.839844 z M 14.972656 13.839844 C 15.026958 13.837287 15.081124 13.837158 15.136719 13.839844 C 15.581479 13.861324 16.068493 14.055576 16.609375 14.488281 A 0.6250625 0.6250625 0 0 0 16.615234 14.492188 A 0.625 0.625 0 0 0 16.648438 14.515625 A 0.6250625 0.6250625 0 0 0 16.695312 14.544922 A 0.625 0.625 0 0 0 16.697266 14.546875 A 0.625 0.625 0 0 0 16.714844 14.554688 A 0.6250625 0.6250625 0 0 0 16.757812 14.576172 A 0.625 0.625 0 0 0 16.833984 14.603516 A 0.6250625 0.6250625 0 0 0 16.841797 14.605469 A 0.625 0.625 0 0 0 16.896484 14.615234 A 0.6250625 0.6250625 0 0 0 16.916016 14.619141 A 0.625 0.625 0 0 0 17.011719 14.625 A 0.6250625 0.6250625 0 0 0 17.083984 14.619141 A 0.625 0.625 0 0 0 17.166016 14.603516 A 0.6250625 0.6250625 0 0 0 17.167969 14.603516 A 0.6250625 0.6250625 0 0 0 17.173828 14.601562 A 0.625 0.625 0 0 0 17.25 14.572266 A 0.6250625 0.6250625 0 0 0 17.390625 14.488281 C 18.472392 13.62287 19.341702 13.710682 20.080078 14.226562 C 20.818455 14.742441 21.375 15.808708 21.375 17 C 21.375 19.423651 19.423649 21.375 17 21.375 C 14.576351 21.375 12.625 19.423651 12.625 17 C 12.625 15.808708 13.181545 14.742441 13.919922 14.226562 C 14.242961 14.000865 14.592546 13.857739 14.972656 13.839844 z " />
</svg>
