<?xml version="1.0" encoding="UTF-8" standalone="no"?>
<svg
   width="24"
   height="24"
   viewBox="0 0 24 24"
   fill="none"
   stroke="currentColor"
   stroke-width="1.25"
   stroke-linecap="round"
   stroke-linejoin="round"
   version="1.1"
   id="svg5"
   sodipodi:docname=".tmp_church.svg"
   xmlns:inkscape="http://www.inkscape.org/namespaces/inkscape"
   xmlns:sodipodi="http://sodipodi.sourceforge.net/DTD/sodipodi-0.dtd"
   xmlns="http://www.w3.org/2000/svg"
   xmlns:svg="http://www.w3.org/2000/svg">
  <defs
     id="defs5" />
  <sodipodi:namedview
     id="namedview5"
     pagecolor="#ffffff"
     bordercolor="#000000"
     borderopacity="0.25"
     inkscape:showpageshadow="2"
     inkscape:pageopacity="0.0"
     inkscape:pagecheckerboard="0"
     inkscape:deskcolor="#d1d1d1" />
  <path
     id="path1"
     style="baseline-shift:baseline;display:inline;overflow:visible;vector-effect:none;fill:#000000;stroke:none;stroke-linecap:butt;stroke-linejoin:miter;enable-background:accumulate;stop-color:#000000;stop-opacity:1;opacity:1"
     d="M 12.001953 1.3769531 C 11.642203 1.3766651 11.28183 1.4945757 10.986328 1.7304688 L 5.9863281 5.7304688 C 5.6002908 6.0387357 5.3747157 6.5059826 5.375 7 L 5.375 8.6484375 L 2.1542969 10.613281 C 1.6707651 10.907646 1.3750941 11.433914 1.375 12 A 0.6250625 0.6250625 0 0 0 1.375 12.001953 L 1.375 19 C 1.375 20.442345 2.5576554 21.625 4 21.625 L 6 21.625 L 18 21.625 L 20 21.625 C 21.442345 21.625 22.625 20.442345 22.625 19 L 22.625 12.001953 A 0.6250625 0.6250625 0 0 0 22.625 12 C 22.624906 11.433914 22.329235 10.907646 21.845703 10.613281 L 18.625 8.6484375 L 18.625 7 C 18.624692 6.5073898 18.400169 6.0403032 18.015625 5.7324219 L 13.015625 1.7324219 C 12.720501 1.496056 12.361703 1.3772412 12.001953 1.3769531 z M 12 2.6230469 C 12.082271 2.6230189 12.164587 2.6511378 12.234375 2.7070312 A 0.6250625 0.6250625 0 0 0 12.234375 2.7089844 L 17.234375 6.7089844 C 17.322666 6.780385 17.374929 6.8863739 17.375 7 L 17.375 8.9902344 A 0.625 0.625 0 0 0 17.375 9.0097656 L 17.375 20.375 L 14.625 20.375 L 14.625 18 C 14.625 17.177084 14.294879 16.481082 13.791016 16.033203 C 13.287152 15.585324 12.638889 15.375 12 15.375 C 11.361111 15.375 10.712848 15.585324 10.208984 16.033203 C 9.7051211 16.481082 9.375 17.177084 9.375 18 L 9.375 20.375 L 6.625 20.375 L 6.625 9.0097656 A 0.625 0.625 0 0 0 6.625 8.9902344 L 6.625 7 C 6.6249341 6.8854223 6.6760911 6.7785277 6.765625 6.7070312 L 11.765625 2.7070312 C 11.835503 2.6512496 11.917729 2.6230748 12 2.6230469 z M 12 6.375 A 0.625 0.625 0 0 0 11.375 7 L 11.375 8.375 L 10 8.375 A 0.625 0.625 0 0 0 9.375 9 A 0.625 0.625 0 0 0 10 9.625 L 11.375 9.625 L 11.375 12 A 0.625 0.625 0 0 0 12 12.625 A 0.625 0.625 0 0 0 12.625 12 L 12.625 9.625 L 14 9.625 A 0.625 0.625 0 0 0 14.625 9 A 0.625 0.625 0 0 0 14 8.375 L 12.625 8.375 L 12.625 7 A 0.625 0.625 0 0 0 12 6.375 z M 5.375 10.113281 L 5.375 20.375 L 4 20.375 C 3.2332056 20.375 2.625 19.766794 2.625 19 L 2.625 12.001953 C 2.6250219 11.870215 2.692162 11.750144 2.8046875 11.681641 A 0.6250625 0.6250625 0 0 0 2.8046875 11.679688 L 5.375 10.113281 z M 18.625 10.113281 L 21.195312 11.679688 A 0.6250625 0.6250625 0 0 0 21.195312 11.681641 C 21.307838 11.750141 21.374978 11.870215 21.375 12.001953 L 21.375 19 C 21.375 19.766794 20.766794 20.375 20 20.375 L 18.625 20.375 L 18.625 10.113281 z M 12 16.625 C 12.361111 16.625 12.712848 16.748009 12.958984 16.966797 C 13.205121 17.185585 13.375 17.489584 13.375 18 L 13.375 20.375 L 10.625 20.375 L 10.625 18 C 10.625 17.489584 10.794879 17.185585 11.041016 16.966797 C 11.287152 16.748009 11.638889 16.625 12 16.625 z " />
</svg>
