<?xml version="1.0" encoding="UTF-8" standalone="no"?>
<svg
   width="24"
   height="24"
   viewBox="0 0 24 24"
   fill="none"
   stroke="currentColor"
   stroke-width="1.25"
   stroke-linecap="round"
   stroke-linejoin="round"
   version="1.1"
   id="svg2"
   sodipodi:docname=".tmp_circle-arrow-right.svg"
   xmlns:inkscape="http://www.inkscape.org/namespaces/inkscape"
   xmlns:sodipodi="http://sodipodi.sourceforge.net/DTD/sodipodi-0.dtd"
   xmlns="http://www.w3.org/2000/svg"
   xmlns:svg="http://www.w3.org/2000/svg">
  <defs
     id="defs2" />
  <sodipodi:namedview
     id="namedview2"
     pagecolor="#ffffff"
     bordercolor="#000000"
     borderopacity="0.25"
     inkscape:showpageshadow="2"
     inkscape:pageopacity="0.0"
     inkscape:pagecheckerboard="0"
     inkscape:deskcolor="#d1d1d1" />
  <path
     id="circle1"
     style="baseline-shift:baseline;display:inline;overflow:visible;vector-effect:none;fill:#000000;stroke:none;stroke-linecap:butt;stroke-linejoin:miter;enable-background:accumulate;stop-color:#000000;stop-opacity:1;opacity:1"
     d="M 12 1.375 C 6.1393774 1.375 1.375 6.1393774 1.375 12 C 1.375 17.860623 6.1393774 22.625 12 22.625 C 17.860623 22.625 22.625 17.860623 22.625 12 C 22.625 6.1393774 17.860623 1.375 12 1.375 z M 12 2.625 C 17.185072 2.625 21.375 6.8149276 21.375 12 C 21.375 17.185072 17.185072 21.375 12 21.375 C 6.8149276 21.375 2.625 17.185072 2.625 12 C 2.625 6.8149276 6.8149276 2.625 12 2.625 z M 12 7.3769531 A 0.625 0.625 0 0 0 11.558594 7.5585938 A 0.625 0.625 0 0 0 11.558594 8.4414062 L 14.492188 11.375 L 8 11.375 A 0.625 0.625 0 0 0 7.375 12 A 0.625 0.625 0 0 0 8 12.625 L 14.492188 12.625 L 11.558594 15.558594 A 0.625 0.625 0 0 0 11.558594 16.441406 A 0.625 0.625 0 0 0 12.441406 16.441406 L 16.419922 12.462891 A 0.625 0.625 0 0 0 16.441406 12.441406 A 0.6250625 0.6250625 0 0 0 16.451172 12.431641 A 0.625 0.625 0 0 0 16.488281 12.388672 A 0.625 0.625 0 0 0 16.496094 12.380859 A 0.6250625 0.6250625 0 0 0 16.511719 12.357422 A 0.625 0.625 0 0 0 16.539062 12.314453 A 0.625 0.625 0 0 0 16.541016 12.3125 A 0.6250625 0.6250625 0 0 0 16.542969 12.308594 A 0.625 0.625 0 0 0 16.603516 12.162109 A 0.6250625 0.6250625 0 0 0 16.619141 12.085938 A 0.625 0.625 0 0 0 16.619141 12.082031 A 0.625 0.625 0 0 0 16.625 12 A 0.625 0.625 0 0 0 16.619141 11.917969 A 0.6250625 0.6250625 0 0 0 16.619141 11.914062 A 0.625 0.625 0 0 0 16.603516 11.837891 A 0.625 0.625 0 0 0 16.542969 11.691406 A 0.625 0.625 0 0 0 16.541016 11.6875 A 0.6250625 0.6250625 0 0 0 16.539062 11.685547 A 0.625 0.625 0 0 0 16.511719 11.642578 A 0.625 0.625 0 0 0 16.496094 11.619141 A 0.6250625 0.6250625 0 0 0 16.488281 11.611328 A 0.625 0.625 0 0 0 16.451172 11.568359 A 0.625 0.625 0 0 0 16.441406 11.558594 L 16.419922 11.537109 L 12.441406 7.5585938 A 0.625 0.625 0 0 0 12 7.3769531 z " />
</svg>
