<?xml version="1.0" encoding="UTF-8" standalone="no"?>
<svg
   width="24"
   height="24"
   viewBox="0 0 24 24"
   fill="none"
   stroke="currentColor"
   stroke-width="1.25"
   stroke-linecap="round"
   stroke-linejoin="round"
   version="1.1"
   id="svg1"
   sodipodi:docname=".tmp_circle-star.svg"
   xmlns:inkscape="http://www.inkscape.org/namespaces/inkscape"
   xmlns:sodipodi="http://sodipodi.sourceforge.net/DTD/sodipodi-0.dtd"
   xmlns="http://www.w3.org/2000/svg"
   xmlns:svg="http://www.w3.org/2000/svg">
  <defs
     id="defs1" />
  <sodipodi:namedview
     id="namedview1"
     pagecolor="#ffffff"
     bordercolor="#000000"
     borderopacity="0.25"
     inkscape:showpageshadow="2"
     inkscape:pageopacity="0.0"
     inkscape:pagecheckerboard="0"
     inkscape:deskcolor="#d1d1d1" />
  <path
     id="path1"
     style="baseline-shift:baseline;display:inline;overflow:visible;vector-effect:none;fill:#000000;stroke:none;stroke-linecap:butt;stroke-linejoin:miter;enable-background:accumulate;stop-color:#000000;stop-opacity:1;opacity:1"
     d="M 12 1.375 C 6.1393774 1.375 1.375 6.1393774 1.375 12 C 1.375 17.860623 6.1393774 22.625 12 22.625 C 17.860623 22.625 22.625 17.860623 22.625 12 C 22.625 6.1393774 17.860623 1.375 12 1.375 z M 12 2.625 C 17.185072 2.625 21.375 6.8149276 21.375 12 C 21.375 17.185072 17.185072 21.375 12 21.375 C 6.8149276 21.375 2.625 17.185072 2.625 12 C 2.625 6.8149276 6.8149276 2.625 12 2.625 z M 12.021484 6.3007812 C 11.390604 6.2928498 10.722085 6.6815342 10.472656 7.3730469 L 9.7441406 8.8085938 C 9.6893068 8.9165105 9.5863916 8.9910618 9.4667969 9.0097656 L 7.8789062 9.2578125 C 7.144169 9.2794269 6.5678942 9.7944987 6.3789062 10.396484 C 6.1913865 10.993794 6.3675467 11.73862 6.9472656 12.177734 L 8.0742188 13.298828 A 0.6250625 0.6250625 0 0 0 8.0742188 13.300781 C 8.1601258 13.386281 8.1988611 13.505326 8.1796875 13.625 L 7.9296875 15.195312 C 7.7184063 15.893594 8.0141732 16.602569 8.5195312 16.974609 C 9.0283838 17.349223 9.8022935 17.420663 10.408203 17.001953 L 11.828125 16.275391 C 11.93603 16.220101 12.062017 16.220101 12.169922 16.275391 L 13.597656 17.005859 C 14.202814 17.422507 14.972297 17.350479 15.480469 16.976562 C 15.988623 16.602619 16.28804 15.889159 16.070312 15.1875 L 15.818359 13.623047 C 15.800039 13.504146 15.840459 13.385728 15.925781 13.300781 A 0.6250625 0.6250625 0 0 0 15.925781 13.298828 L 17.064453 12.162109 C 17.635112 11.715566 17.802507 10.97405 17.609375 10.380859 C 17.416245 9.7876587 16.845304 9.2828244 16.121094 9.2578125 L 14.53125 9.0097656 C 14.411655 8.9910618 14.30874 8.9165102 14.253906 8.8085938 L 13.539062 7.4003906 L 13.537109 7.3984375 C 13.300632 6.7101528 12.64778 6.3086551 12.021484 6.3007812 z M 12.005859 7.5507812 C 12.168885 7.5528312 12.297958 7.6059972 12.361328 7.8183594 A 0.6250625 0.6250625 0 0 0 12.402344 7.9238281 L 13.140625 9.375 C 13.376779 9.8397674 13.822829 10.163588 14.337891 10.244141 L 15.970703 10.5 A 0.6250625 0.6250625 0 0 0 16.066406 10.507812 C 16.282701 10.508657 16.370245 10.614999 16.419922 10.767578 C 16.469602 10.920157 16.459492 11.05752 16.285156 11.185547 A 0.6250625 0.6250625 0 0 0 16.214844 11.246094 L 15.042969 12.414062 C 14.673504 12.781901 14.501957 13.307406 14.583984 13.822266 L 14.84375 15.435547 A 0.6250625 0.6250625 0 0 0 14.871094 15.542969 C 14.945544 15.754208 14.872494 15.873397 14.740234 15.970703 C 14.608005 16.068013 14.472507 16.102703 14.292969 15.96875 A 0.6250625 0.6250625 0 0 0 14.205078 15.914062 L 12.740234 15.164062 C 12.275533 14.925963 11.722513 14.925963 11.257812 15.164062 L 9.7929688 15.914062 A 0.6250625 0.6250625 0 0 0 9.7070312 15.966797 C 9.5279885 16.0993 9.3934374 16.06572 9.2617188 15.96875 C 9.13 15.87178 9.0556271 15.753273 9.1289062 15.542969 A 0.6250625 0.6250625 0 0 0 9.15625 15.435547 L 9.4140625 13.822266 C 9.4966355 13.306876 9.3250455 12.782258 8.9550781 12.414062 L 7.8007812 11.261719 A 0.6250625 0.6250625 0 0 0 7.7148438 11.191406 C 7.532431 11.065028 7.5214351 10.927174 7.5703125 10.771484 C 7.6191895 10.615795 7.7077763 10.507253 7.9296875 10.507812 A 0.6250625 0.6250625 0 0 0 8.0273438 10.5 L 9.6601562 10.244141 C 10.175218 10.163588 10.621268 9.8397674 10.857422 9.375 L 11.607422 7.8984375 A 0.6250625 0.6250625 0 0 0 11.644531 7.8105469 C 11.713221 7.5998451 11.842833 7.5487317 12.005859 7.5507812 z " />
</svg>
