<?xml version="1.0" encoding="UTF-8" standalone="no"?>
<svg
   width="24"
   height="24"
   viewBox="0 0 24 24"
   fill="none"
   stroke="currentColor"
   stroke-width="1.25"
   stroke-linecap="round"
   stroke-linejoin="round"
   version="1.1"
   id="svg2"
   sodipodi:docname=".tmp_circle-user.svg"
   xmlns:inkscape="http://www.inkscape.org/namespaces/inkscape"
   xmlns:sodipodi="http://sodipodi.sourceforge.net/DTD/sodipodi-0.dtd"
   xmlns="http://www.w3.org/2000/svg"
   xmlns:svg="http://www.w3.org/2000/svg">
  <defs
     id="defs2" />
  <sodipodi:namedview
     id="namedview2"
     pagecolor="#ffffff"
     bordercolor="#000000"
     borderopacity="0.25"
     inkscape:showpageshadow="2"
     inkscape:pageopacity="0.0"
     inkscape:pagecheckerboard="0"
     inkscape:deskcolor="#d1d1d1" />
  <path
     id="circle1"
     style="baseline-shift:baseline;display:inline;overflow:visible;vector-effect:none;fill:#000000;stroke:none;stroke-linecap:butt;stroke-linejoin:miter;enable-background:accumulate;stop-color:#000000;stop-opacity:1;opacity:1"
     d="M 12 1.375 C 6.1393774 1.375 1.375 6.1393774 1.375 12 C 1.375 15.904624 3.4898939 19.323317 6.6347656 21.169922 A 0.625 0.625 0 0 0 6.7421875 21.230469 C 8.2933853 22.11719 10.088125 22.625 12 22.625 C 13.911875 22.625 15.706615 22.11719 17.257812 21.230469 A 0.625 0.625 0 0 0 17.365234 21.169922 C 20.510107 19.323317 22.625 15.904625 22.625 12 C 22.625 6.1393774 17.860623 1.375 12 1.375 z M 12 2.625 C 17.185072 2.625 21.375 6.8149276 21.375 12 C 21.375 15.072972 19.903317 17.79701 17.625 19.505859 L 17.625 19 C 17.625 17.557655 16.442345 16.375 15 16.375 L 9 16.375 C 7.5576554 16.375 6.375 17.557655 6.375 19 L 6.375 19.505859 C 4.0966826 17.79701 2.625 15.072972 2.625 12 C 2.625 6.8149276 6.8149276 2.625 12 2.625 z M 12 6.375 C 10.005371 6.375 8.375 8.0053707 8.375 10 C 8.375 11.994629 10.005371 13.625 12 13.625 C 13.994629 13.625 15.625 11.994629 15.625 10 C 15.625 8.0053707 13.994629 6.375 12 6.375 z M 12 7.625 C 13.319079 7.625 14.375 8.6809208 14.375 10 C 14.375 11.319079 13.319079 12.375 12 12.375 C 10.680921 12.375 9.625 11.319079 9.625 10 C 9.625 8.6809208 10.680921 7.625 12 7.625 z M 9 17.625 L 15 17.625 C 15.766794 17.625 16.375 18.233206 16.375 19 L 16.375 20.296875 C 15.069578 20.985446 13.581053 21.375 12 21.375 C 10.418947 21.375 8.9304218 20.985446 7.625 20.296875 L 7.625 19 C 7.625 18.233206 8.2332056 17.625 9 17.625 z " />
</svg>
