<?xml version="1.0" encoding="UTF-8" standalone="no"?>
<svg
   width="24"
   height="24"
   viewBox="0 0 24 24"
   fill="none"
   stroke="currentColor"
   stroke-width="1.25"
   stroke-linecap="round"
   stroke-linejoin="round"
   version="1.1"
   id="svg2"
   sodipodi:docname=".tmp_circuit-board.svg"
   xmlns:inkscape="http://www.inkscape.org/namespaces/inkscape"
   xmlns:sodipodi="http://sodipodi.sourceforge.net/DTD/sodipodi-0.dtd"
   xmlns="http://www.w3.org/2000/svg"
   xmlns:svg="http://www.w3.org/2000/svg">
  <defs
     id="defs2" />
  <sodipodi:namedview
     id="namedview2"
     pagecolor="#ffffff"
     bordercolor="#000000"
     borderopacity="0.25"
     inkscape:showpageshadow="2"
     inkscape:pageopacity="0.0"
     inkscape:pagecheckerboard="0"
     inkscape:deskcolor="#d1d1d1" />
  <path
     id="rect1"
     style="baseline-shift:baseline;display:inline;overflow:visible;vector-effect:none;fill:#000000;stroke:none;stroke-linecap:butt;stroke-linejoin:miter;enable-background:accumulate;stop-color:#000000;stop-opacity:1;opacity:1"
     d="M 5 2.375 C 3.5565608 2.375 2.375 3.5565608 2.375 5 L 2.375 19 C 2.375 20.443439 3.5565608 21.625 5 21.625 L 19 21.625 C 20.443439 21.625 21.625 20.443439 21.625 19 L 21.625 5 C 21.625 3.5565608 20.443439 2.375 19 2.375 L 5 2.375 z M 5 3.625 L 16.375 3.625 L 16.375 7 C 16.375 7.7667944 15.766794 8.375 15 8.375 L 11.548828 8.375 C 11.266124 7.2311702 10.227213 6.375 9 6.375 C 7.5576554 6.375 6.375 7.5576554 6.375 9 C 6.375 10.442345 7.5576554 11.625 9 11.625 C 10.227214 11.625 11.266124 10.76883 11.548828 9.625 L 15 9.625 C 16.442345 9.625 17.625 8.4423446 17.625 7 L 17.625 3.625 L 19 3.625 C 19.772561 3.625 20.375 4.2274392 20.375 5 L 20.375 19 C 20.375 19.772561 19.772561 20.375 19 20.375 L 7.625 20.375 L 7.625 17 C 7.625 16.233206 8.2332056 15.625 9 15.625 L 12.451172 15.625 C 12.733876 16.76883 13.772786 17.625 15 17.625 C 16.442345 17.625 17.625 16.442345 17.625 15 C 17.625 13.557655 16.442345 12.375 15 12.375 C 13.772786 12.375 12.733876 13.23117 12.451172 14.375 L 9 14.375 C 7.5576554 14.375 6.375 15.557655 6.375 17 L 6.375 20.375 L 5 20.375 C 4.2274392 20.375 3.625 19.772561 3.625 19 L 3.625 5 C 3.625 4.2274392 4.2274392 3.625 5 3.625 z M 9 7.625 C 9.7667944 7.625 10.375 8.2332056 10.375 9 C 10.375 9.7667944 9.7667944 10.375 9 10.375 C 8.2332056 10.375 7.625 9.7667944 7.625 9 C 7.625 8.2332056 8.2332056 7.625 9 7.625 z M 15 13.625 C 15.766794 13.625 16.375 14.233206 16.375 15 C 16.375 15.766794 15.766794 16.375 15 16.375 C 14.233206 16.375 13.625 15.766794 13.625 15 C 13.625 14.233206 14.233206 13.625 15 13.625 z " />
</svg>
