<?xml version="1.0" encoding="UTF-8" standalone="no"?>
<svg
   width="24"
   height="24"
   viewBox="0 0 24 24"
   fill="none"
   stroke="currentColor"
   stroke-width="1.25"
   stroke-linecap="round"
   stroke-linejoin="round"
   version="1.1"
   id="svg2"
   sodipodi:docname=".tmp_circle-x.svg"
   xmlns:inkscape="http://www.inkscape.org/namespaces/inkscape"
   xmlns:sodipodi="http://sodipodi.sourceforge.net/DTD/sodipodi-0.dtd"
   xmlns="http://www.w3.org/2000/svg"
   xmlns:svg="http://www.w3.org/2000/svg">
  <defs
     id="defs2" />
  <sodipodi:namedview
     id="namedview2"
     pagecolor="#ffffff"
     bordercolor="#000000"
     borderopacity="0.25"
     inkscape:showpageshadow="2"
     inkscape:pageopacity="0.0"
     inkscape:pagecheckerboard="0"
     inkscape:deskcolor="#d1d1d1" />
  <path
     id="circle1"
     style="baseline-shift:baseline;display:inline;overflow:visible;vector-effect:none;fill:#000000;stroke:none;stroke-linecap:butt;stroke-linejoin:miter;enable-background:accumulate;stop-color:#000000;stop-opacity:1;opacity:1"
     d="M 12 1.375 C 6.1393774 1.375 1.375 6.1393774 1.375 12 C 1.375 17.860623 6.1393774 22.625 12 22.625 C 17.860623 22.625 22.625 17.860623 22.625 12 C 22.625 6.1393774 17.860623 1.375 12 1.375 z M 12 2.625 C 17.185072 2.625 21.375 6.8149276 21.375 12 C 21.375 17.185072 17.185072 21.375 12 21.375 C 6.8149276 21.375 2.625 17.185072 2.625 12 C 2.625 6.8149276 6.8149276 2.625 12 2.625 z M 9 8.3769531 A 0.625 0.625 0 0 0 8.5585938 8.5585938 A 0.625 0.625 0 0 0 8.5585938 9.4414062 L 11.117188 12 L 8.5585938 14.558594 A 0.625 0.625 0 0 0 8.5585938 15.441406 A 0.625 0.625 0 0 0 9.4414062 15.441406 L 12 12.882812 L 14.558594 15.441406 A 0.625 0.625 0 0 0 15.441406 15.441406 A 0.625 0.625 0 0 0 15.441406 14.558594 L 12.882812 12 L 15.441406 9.4414062 A 0.625 0.625 0 0 0 15.441406 8.5585938 A 0.625 0.625 0 0 0 14.558594 8.5585938 L 12 11.117188 L 9.4414062 8.5585938 A 0.625 0.625 0 0 0 9 8.3769531 z " />
</svg>
