<?xml version="1.0" encoding="UTF-8" standalone="no"?>
<svg
   width="24"
   height="24"
   viewBox="0 0 24 24"
   fill="none"
   stroke="currentColor"
   stroke-width="1.25"
   stroke-linecap="round"
   stroke-linejoin="round"
   version="1.1"
   id="svg1"
   sodipodi:docname=".tmp_circle-play.svg"
   xmlns:inkscape="http://www.inkscape.org/namespaces/inkscape"
   xmlns:sodipodi="http://sodipodi.sourceforge.net/DTD/sodipodi-0.dtd"
   xmlns="http://www.w3.org/2000/svg"
   xmlns:svg="http://www.w3.org/2000/svg">
  <defs
     id="defs1" />
  <sodipodi:namedview
     id="namedview1"
     pagecolor="#ffffff"
     bordercolor="#000000"
     borderopacity="0.25"
     inkscape:showpageshadow="2"
     inkscape:pageopacity="0.0"
     inkscape:pagecheckerboard="0"
     inkscape:deskcolor="#d1d1d1" />
  <path
     id="path1"
     style="baseline-shift:baseline;display:inline;overflow:visible;vector-effect:none;fill:#000000;stroke:none;stroke-linecap:butt;stroke-linejoin:miter;enable-background:accumulate;stop-color:#000000;stop-opacity:1;opacity:1"
     d="M 12 1.375 C 6.1393774 1.375 1.375 6.1393774 1.375 12 C 1.375 17.860623 6.1393774 22.625 12 22.625 C 17.860623 22.625 22.625 17.860623 22.625 12 C 22.625 6.1393774 17.860623 1.375 12 1.375 z M 12 2.625 C 17.185072 2.625 21.375 6.8149276 21.375 12 C 21.375 17.185072 17.185072 21.375 12 21.375 C 6.8149276 21.375 2.625 17.185072 2.625 12 C 2.625 6.8149276 6.8149276 2.625 12 2.625 z M 10.007812 7.3828125 C 9.7267741 7.3869825 9.4512474 7.4663344 9.2089844 7.6035156 C 8.7244584 7.8778781 8.3731357 8.3879931 8.375 9.0058594 L 8.375 14.996094 C 8.37149 16.231396 9.7820562 17.029523 10.839844 16.390625 L 15.833984 13.396484 L 15.835938 13.394531 C 16.865675 12.778205 16.865675 11.221795 15.835938 10.605469 L 10.839844 7.609375 C 10.575401 7.4496544 10.288851 7.3786425 10.007812 7.3828125 z M 9.9882812 8.6132812 C 10.054648 8.6162502 10.123989 8.6377887 10.193359 8.6796875 A 0.6250625 0.6250625 0 0 0 10.195312 8.6796875 L 15.193359 11.677734 C 15.461587 11.837601 15.461587 12.162399 15.193359 12.322266 L 10.195312 15.320312 A 0.6250625 0.6250625 0 0 0 10.193359 15.320312 C 9.9156729 15.488034 9.623696 15.322452 9.625 14.998047 A 0.6250625 0.6250625 0 0 0 9.625 14.996094 L 9.625 9.0039062 A 0.6250625 0.6250625 0 0 0 9.625 9.0019531 C 9.6242664 8.7588272 9.7891804 8.6043744 9.9882812 8.6132812 z " />
</svg>
