<?xml version="1.0" encoding="UTF-8" standalone="no"?>
<svg
   width="24"
   height="24"
   viewBox="0 0 24 24"
   fill="none"
   stroke="currentColor"
   stroke-width="1.25"
   stroke-linecap="round"
   stroke-linejoin="round"
   version="1.1"
   id="svg4"
   sodipodi:docname=".tmp_cloud-rain-wind.svg"
   xmlns:inkscape="http://www.inkscape.org/namespaces/inkscape"
   xmlns:sodipodi="http://sodipodi.sourceforge.net/DTD/sodipodi-0.dtd"
   xmlns="http://www.w3.org/2000/svg"
   xmlns:svg="http://www.w3.org/2000/svg">
  <defs
     id="defs4" />
  <sodipodi:namedview
     id="namedview4"
     pagecolor="#ffffff"
     bordercolor="#000000"
     borderopacity="0.25"
     inkscape:showpageshadow="2"
     inkscape:pageopacity="0.0"
     inkscape:pagecheckerboard="0"
     inkscape:deskcolor="#d1d1d1" />
  <path
     id="path1"
     style="baseline-shift:baseline;display:inline;overflow:visible;vector-effect:none;fill:#000000;stroke:none;stroke-linecap:butt;stroke-linejoin:miter;enable-background:accumulate;stop-color:#000000;stop-opacity:1;opacity:1"
     d="M 9.0800781 2.3808594 C 8.8787646 2.3776012 8.6773425 2.3829887 8.4746094 2.3964844 C 7.3377413 2.4721639 6.1962516 2.8070636 5.1328125 3.4335938 C 0.8790561 5.9397137 0.099328065 11.807586 3.5527344 15.335938 A 0.625 0.625 0 0 0 4.4375 15.345703 A 0.625 0.625 0 0 0 4.4472656 14.460938 C 1.5408151 11.49138 2.1855911 6.6189589 5.765625 4.5097656 C 9.3456589 2.4005723 13.922552 4.1981934 15.111328 8.1796875 A 0.6250625 0.6250625 0 0 0 15.710938 8.625 L 17.5 8.625 C 19.455132 8.6247772 20.748048 9.8553865 21.208984 11.375 C 21.66992 12.894613 21.278144 14.636695 19.652344 15.722656 A 0.625 0.625 0 0 0 19.480469 16.589844 A 0.625 0.625 0 0 0 20.347656 16.761719 C 22.422716 15.375672 23.005944 12.99523 22.404297 11.011719 C 21.802649 9.0282073 19.995396 7.3747156 17.5 7.375 L 16.052734 7.375 C 14.911865 4.3393229 12.099781 2.4297319 9.0800781 2.3808594 z M 9.0078125 12.375 A 0.625 0.625 0 0 0 8.4257812 12.753906 L 5.4257812 19.753906 A 0.625 0.625 0 0 0 5.7539062 20.574219 A 0.625 0.625 0 0 0 6.5742188 20.246094 L 9.5742188 13.246094 A 0.625 0.625 0 0 0 9.2460938 12.425781 A 0.625 0.625 0 0 0 9.0078125 12.375 z M 17.007812 12.375 A 0.625 0.625 0 0 0 16.767578 12.419922 A 0.625 0.625 0 0 0 16.425781 12.753906 L 13.425781 19.753906 A 0.625 0.625 0 0 0 13.753906 20.574219 A 0.625 0.625 0 0 0 14.574219 20.246094 L 17.574219 13.246094 A 0.625 0.625 0 0 0 17.246094 12.425781 A 0.625 0.625 0 0 0 17.007812 12.375 z M 12.207031 14.375 A 0.625 0.625 0 0 0 11.625 14.753906 L 8.625 21.753906 A 0.625 0.625 0 0 0 8.953125 22.574219 A 0.625 0.625 0 0 0 9.7753906 22.246094 L 12.775391 15.246094 A 0.625 0.625 0 0 0 12.445312 14.425781 A 0.625 0.625 0 0 0 12.207031 14.375 z " />
</svg>
