<?xml version="1.0" encoding="UTF-8" standalone="no"?>
<svg
   width="24"
   height="24"
   viewBox="0 0 24 24"
   fill="none"
   stroke="currentColor"
   stroke-width="1.25"
   stroke-linecap="round"
   stroke-linejoin="round"
   version="1.1"
   id="svg7"
   sodipodi:docname=".tmp_construction.svg"
   xmlns:inkscape="http://www.inkscape.org/namespaces/inkscape"
   xmlns:sodipodi="http://sodipodi.sourceforge.net/DTD/sodipodi-0.dtd"
   xmlns="http://www.w3.org/2000/svg"
   xmlns:svg="http://www.w3.org/2000/svg">
  <defs
     id="defs7" />
  <sodipodi:namedview
     id="namedview7"
     pagecolor="#ffffff"
     bordercolor="#000000"
     borderopacity="0.25"
     inkscape:showpageshadow="2"
     inkscape:pageopacity="0.0"
     inkscape:pagecheckerboard="0"
     inkscape:deskcolor="#d1d1d1" />
  <path
     id="rect1"
     style="baseline-shift:baseline;display:inline;overflow:visible;vector-effect:none;fill:#000000;stroke:none;stroke-linecap:butt;stroke-linejoin:miter;enable-background:accumulate;stop-color:#000000;stop-opacity:1;opacity:1"
     d="M 7 2.375 A 0.625 0.625 0 0 0 6.375 3 L 6.375 5.375 L 3 5.375 C 2.1105608 5.375 1.375 6.1105608 1.375 7 L 1.375 13 C 1.375 13.889439 2.1105608 14.625 3 14.625 L 6.375 14.625 L 6.375 21 A 0.625 0.625 0 0 0 7 21.625 A 0.625 0.625 0 0 0 7.625 21 L 7.625 14.625 L 16.375 14.625 L 16.375 21 A 0.625 0.625 0 0 0 17 21.625 A 0.625 0.625 0 0 0 17.625 21 L 17.625 14.625 L 21 14.625 C 21.889439 14.625 22.625 13.889439 22.625 13 L 22.625 7 C 22.625 6.1105608 21.889439 5.375 21 5.375 L 17.625 5.375 L 17.625 3 A 0.625 0.625 0 0 0 17 2.375 A 0.625 0.625 0 0 0 16.375 3 L 16.375 5.375 L 7.625 5.375 L 7.625 3 A 0.625 0.625 0 0 0 7 2.375 z M 3.5097656 6.625 L 7.7421875 6.625 L 14.492188 13.375 L 10.257812 13.375 L 3.5097656 6.625 z M 9.5078125 6.625 L 13.742188 6.625 L 20.490234 13.375 L 16.257812 13.375 L 9.5078125 6.625 z M 15.507812 6.625 L 21 6.625 C 21.218561 6.625 21.375 6.7814392 21.375 7 L 21.375 12.490234 L 15.507812 6.625 z M 2.625 7.5097656 L 8.4921875 13.375 L 3 13.375 C 2.7814392 13.375 2.625 13.218561 2.625 13 L 2.625 7.5097656 z " />
</svg>
