<?xml version="1.0" encoding="UTF-8" standalone="no"?>
<svg
   width="24"
   height="24"
   viewBox="0 0 24 24"
   fill="none"
   stroke="currentColor"
   stroke-width="1.25"
   stroke-linecap="round"
   stroke-linejoin="round"
   version="1.1"
   id="svg2"
   sodipodi:docname=".tmp_corner-down-right.svg"
   xmlns:inkscape="http://www.inkscape.org/namespaces/inkscape"
   xmlns:sodipodi="http://sodipodi.sourceforge.net/DTD/sodipodi-0.dtd"
   xmlns="http://www.w3.org/2000/svg"
   xmlns:svg="http://www.w3.org/2000/svg">
  <defs
     id="defs2" />
  <sodipodi:namedview
     id="namedview2"
     pagecolor="#ffffff"
     bordercolor="#000000"
     borderopacity="0.25"
     inkscape:showpageshadow="2"
     inkscape:pageopacity="0.0"
     inkscape:pagecheckerboard="0"
     inkscape:deskcolor="#d1d1d1" />
  <path
     id="path1"
     style="baseline-shift:baseline;display:inline;overflow:visible;vector-effect:none;fill:#000000;stroke:none;stroke-linecap:butt;stroke-linejoin:miter;enable-background:accumulate;stop-color:#000000;stop-opacity:1;opacity:1"
     d="M 4 3.375 A 0.625 0.625 0 0 0 3.375 4 L 3.375 11 C 3.375 13.546914 5.4530859 15.625 8 15.625 L 18.492188 15.625 L 14.558594 19.558594 A 0.625 0.625 0 0 0 14.558594 20.441406 A 0.625 0.625 0 0 0 15.441406 20.441406 L 20.419922 15.462891 A 0.625 0.625 0 0 0 20.441406 15.441406 A 0.6250625 0.6250625 0 0 0 20.451172 15.431641 A 0.625 0.625 0 0 0 20.488281 15.388672 A 0.625 0.625 0 0 0 20.496094 15.380859 A 0.6250625 0.6250625 0 0 0 20.511719 15.357422 A 0.625 0.625 0 0 0 20.539062 15.314453 A 0.625 0.625 0 0 0 20.541016 15.3125 A 0.6250625 0.6250625 0 0 0 20.542969 15.308594 A 0.625 0.625 0 0 0 20.603516 15.162109 A 0.6250625 0.6250625 0 0 0 20.619141 15.085938 A 0.625 0.625 0 0 0 20.619141 15.082031 A 0.625 0.625 0 0 0 20.625 15 A 0.625 0.625 0 0 0 20.619141 14.917969 A 0.6250625 0.6250625 0 0 0 20.619141 14.914062 A 0.625 0.625 0 0 0 20.603516 14.837891 A 0.625 0.625 0 0 0 20.542969 14.691406 A 0.625 0.625 0 0 0 20.541016 14.6875 A 0.6250625 0.6250625 0 0 0 20.539062 14.685547 A 0.625 0.625 0 0 0 20.511719 14.642578 A 0.625 0.625 0 0 0 20.496094 14.619141 A 0.6250625 0.6250625 0 0 0 20.488281 14.611328 A 0.625 0.625 0 0 0 20.451172 14.568359 A 0.625 0.625 0 0 0 20.441406 14.558594 L 20.419922 14.537109 L 15.441406 9.5585938 A 0.625 0.625 0 0 0 14.558594 9.5585938 A 0.625 0.625 0 0 0 14.558594 10.441406 L 18.492188 14.375 L 8 14.375 C 6.1286361 14.375 4.625 12.871364 4.625 11 L 4.625 4 A 0.625 0.625 0 0 0 4 3.375 z " />
</svg>
