<?xml version="1.0" encoding="UTF-8" standalone="no"?>
<svg
   width="24"
   height="24"
   viewBox="0 0 24 24"
   fill="none"
   stroke="currentColor"
   stroke-width="1.25"
   stroke-linecap="round"
   stroke-linejoin="round"
   version="1.1"
   id="svg2"
   sodipodi:docname=".tmp_corner-left-up.svg"
   xmlns:inkscape="http://www.inkscape.org/namespaces/inkscape"
   xmlns:sodipodi="http://sodipodi.sourceforge.net/DTD/sodipodi-0.dtd"
   xmlns="http://www.w3.org/2000/svg"
   xmlns:svg="http://www.w3.org/2000/svg">
  <defs
     id="defs2" />
  <sodipodi:namedview
     id="namedview2"
     pagecolor="#ffffff"
     bordercolor="#000000"
     borderopacity="0.25"
     inkscape:showpageshadow="2"
     inkscape:pageopacity="0.0"
     inkscape:pagecheckerboard="0"
     inkscape:deskcolor="#d1d1d1" />
  <path
     id="path1"
     style="baseline-shift:baseline;display:inline;overflow:visible;vector-effect:none;fill:#000000;stroke:none;stroke-linecap:butt;stroke-linejoin:miter;enable-background:accumulate;stop-color:#000000;stop-opacity:1;opacity:1"
     d="M 9 3.375 A 0.625 0.625 0 0 0 8.9179688 3.3808594 A 0.625 0.625 0 0 0 8.9140625 3.3808594 A 0.6250625 0.6250625 0 0 0 8.8378906 3.3964844 A 0.625 0.625 0 0 0 8.6914062 3.4570312 A 0.6250625 0.6250625 0 0 0 8.6855469 3.4609375 A 0.625 0.625 0 0 0 8.6425781 3.4882812 A 0.6250625 0.6250625 0 0 0 8.6113281 3.5117188 A 0.625 0.625 0 0 0 8.5683594 3.5488281 A 0.6250625 0.6250625 0 0 0 8.5585938 3.5585938 A 0.625 0.625 0 0 0 8.5371094 3.5800781 L 3.5585938 8.5585938 A 0.625 0.625 0 0 0 3.5585938 9.4414062 A 0.625 0.625 0 0 0 4.4414062 9.4414062 L 8.375 5.5078125 L 8.375 16 C 8.375 18.546914 10.453086 20.625 13 20.625 L 20 20.625 A 0.625 0.625 0 0 0 20.625 20 A 0.625 0.625 0 0 0 20 19.375 L 13 19.375 C 11.128636 19.375 9.625 17.871364 9.625 16 L 9.625 5.5078125 L 13.558594 9.4414062 A 0.625 0.625 0 0 0 14.441406 9.4414062 A 0.625 0.625 0 0 0 14.441406 8.5585938 L 9.4628906 3.5800781 A 0.625 0.625 0 0 0 9.4316406 3.5488281 A 0.625 0.625 0 0 0 9.3886719 3.5117188 A 0.625 0.625 0 0 0 9.3574219 3.4882812 A 0.625 0.625 0 0 0 9.3144531 3.4609375 A 0.625 0.625 0 0 0 9.3085938 3.4570312 A 0.625 0.625 0 0 0 9.1621094 3.3964844 A 0.6250625 0.6250625 0 0 0 9.0859375 3.3808594 A 0.625 0.625 0 0 0 9.0820312 3.3808594 A 0.625 0.625 0 0 0 9 3.375 z " />
</svg>
