<?xml version="1.0" encoding="UTF-8" standalone="no"?>
<svg
   width="24"
   height="24"
   viewBox="0 0 24 24"
   fill="none"
   stroke="currentColor"
   stroke-width="1.25"
   stroke-linecap="round"
   stroke-linejoin="round"
   version="1.1"
   id="svg1"
   sodipodi:docname=".tmp_cross.svg"
   xmlns:inkscape="http://www.inkscape.org/namespaces/inkscape"
   xmlns:sodipodi="http://sodipodi.sourceforge.net/DTD/sodipodi-0.dtd"
   xmlns="http://www.w3.org/2000/svg"
   xmlns:svg="http://www.w3.org/2000/svg">
  <defs
     id="defs1" />
  <sodipodi:namedview
     id="namedview1"
     pagecolor="#ffffff"
     bordercolor="#000000"
     borderopacity="0.25"
     inkscape:showpageshadow="2"
     inkscape:pageopacity="0.0"
     inkscape:pagecheckerboard="0"
     inkscape:deskcolor="#d1d1d1" />
  <path
     id="path1"
     style="baseline-shift:baseline;display:inline;overflow:visible;vector-effect:none;fill:#000000;stroke:none;stroke-linecap:butt;stroke-linejoin:miter;enable-background:accumulate;stop-color:#000000;stop-opacity:1;opacity:1"
     d="M 11 1.375 C 9.5576554 1.375 8.375 2.5576554 8.375 4 L 8.375 8 C 8.375 8.2145097 8.2145097 8.375 8 8.375 L 4 8.375 C 2.5576554 8.375 1.375 9.5576554 1.375 11 L 1.375 13 C 1.375 14.442345 2.5576554 15.625 4 15.625 L 8 15.625 C 8.2145097 15.625 8.375 15.78549 8.375 16 L 8.375 20 C 8.375 21.442345 9.5576554 22.625 11 22.625 L 13 22.625 C 14.442345 22.625 15.625 21.442345 15.625 20 L 15.625 16 C 15.625 15.78549 15.78549 15.625 16 15.625 L 20 15.625 C 21.442345 15.625 22.625 14.442345 22.625 13 L 22.625 11 C 22.625 9.5576554 21.442345 8.375 20 8.375 L 16 8.375 C 15.78549 8.375 15.625 8.2145097 15.625 8 L 15.625 4 C 15.625 2.5576554 14.442345 1.375 13 1.375 L 11 1.375 z M 11 2.625 L 13 2.625 C 13.766794 2.625 14.375 3.2332056 14.375 4 L 14.375 8 C 14.375 8.8900598 15.10994 9.625 16 9.625 L 20 9.625 C 20.766794 9.625 21.375 10.233206 21.375 11 L 21.375 13 C 21.375 13.766794 20.766794 14.375 20 14.375 L 16 14.375 C 15.10994 14.375 14.375 15.10994 14.375 16 L 14.375 20 C 14.375 20.766794 13.766794 21.375 13 21.375 L 11 21.375 C 10.233206 21.375 9.625 20.766794 9.625 20 L 9.625 16 C 9.625 15.10994 8.8900598 14.375 8 14.375 L 4 14.375 C 3.2332056 14.375 2.625 13.766794 2.625 13 L 2.625 11 C 2.625 10.233206 3.2332056 9.625 4 9.625 L 8 9.625 C 8.8900598 9.625 9.625 8.8900598 9.625 8 L 9.625 4 C 9.625 3.2332056 10.233206 2.625 11 2.625 z " />
</svg>
