<?xml version="1.0" encoding="UTF-8" standalone="no"?>
<svg
   width="24"
   height="24"
   viewBox="0 0 24 24"
   fill="none"
   stroke="currentColor"
   stroke-width="1.25"
   stroke-linecap="round"
   stroke-linejoin="round"
   version="1.1"
   id="svg2"
   sodipodi:docname=".tmp_crown.svg"
   xmlns:inkscape="http://www.inkscape.org/namespaces/inkscape"
   xmlns:sodipodi="http://sodipodi.sourceforge.net/DTD/sodipodi-0.dtd"
   xmlns="http://www.w3.org/2000/svg"
   xmlns:svg="http://www.w3.org/2000/svg">
  <defs
     id="defs2" />
  <sodipodi:namedview
     id="namedview2"
     pagecolor="#ffffff"
     bordercolor="#000000"
     borderopacity="0.25"
     inkscape:showpageshadow="2"
     inkscape:pageopacity="0.0"
     inkscape:pagecheckerboard="0"
     inkscape:deskcolor="#d1d1d1" />
  <path
     id="path1"
     style="baseline-shift:baseline;display:inline;overflow:visible;vector-effect:none;fill:#000000;stroke:none;stroke-linecap:butt;stroke-linejoin:miter;enable-background:accumulate;stop-color:#000000;stop-opacity:1;opacity:1"
     d="M 12 2.4042969 C 11.610158 2.4042969 11.219488 2.5910293 11.013672 2.9648438 A 0.6250625 0.6250625 0 0 0 11.009766 2.9746094 L 8.0605469 8.5722656 C 7.9417518 8.7912418 7.684225 8.8422897 7.4921875 8.6835938 L 3.2246094 5.0273438 A 0.6250625 0.6250625 0 0 0 3.2128906 5.015625 C 2.8172333 4.6938181 2.2581139 4.7050363 1.8886719 4.9453125 C 1.5192299 5.1855887 1.2822885 5.6914338 1.4160156 6.1835938 A 0.6250625 0.6250625 0 0 0 1.4179688 6.1875 L 4.25 16.431641 C 4.44255 17.129503 5.0807665 17.617994 5.8046875 17.623047 A 0.6250625 0.6250625 0 0 0 5.8105469 17.623047 L 18.191406 17.623047 A 0.6250625 0.6250625 0 0 0 18.195312 17.623047 C 18.91864 17.617247 19.557612 17.128937 19.75 16.431641 L 22.583984 6.1855469 A 0.6250625 0.6250625 0 0 0 22.583984 6.1835938 C 22.717712 5.6914307 22.48077 5.1855887 22.111328 4.9453125 C 21.741886 4.7050363 21.18472 4.6938181 20.789062 5.015625 A 0.6250625 0.6250625 0 0 0 20.777344 5.0253906 L 16.507812 8.6816406 C 16.315776 8.8403366 16.058248 8.7912418 15.939453 8.5722656 L 12.990234 2.9746094 A 0.6250625 0.6250625 0 0 0 12.986328 2.9648438 C 12.780506 2.5910337 12.389842 2.4042969 12 2.4042969 z M 12 3.7753906 L 14.837891 9.1621094 A 0.6250625 0.6250625 0 0 0 14.839844 9.1679688 C 15.321384 10.055597 16.526256 10.289765 17.304688 9.6464844 A 0.6250625 0.6250625 0 0 0 17.3125 9.6386719 L 21.269531 6.25 L 18.544922 16.097656 A 0.6250625 0.6250625 0 0 0 18.544922 16.099609 C 18.499592 16.263904 18.355975 16.371687 18.185547 16.373047 L 5.8144531 16.373047 C 5.643875 16.371847 5.5004489 16.264047 5.4550781 16.099609 A 0.6250625 0.6250625 0 0 0 5.4550781 16.097656 L 2.7324219 6.2519531 L 6.6875 9.6386719 A 0.6250625 0.6250625 0 0 0 6.6953125 9.6464844 C 7.4737463 10.289767 8.678616 10.05755 9.1601562 9.1699219 A 0.6250625 0.6250625 0 0 0 9.1621094 9.1621094 L 12 3.7753906 z M 5 20.375 A 0.625 0.625 0 0 0 4.375 21 A 0.625 0.625 0 0 0 5 21.625 L 19 21.625 A 0.625 0.625 0 0 0 19.625 21 A 0.625 0.625 0 0 0 19 20.375 L 5 20.375 z " />
</svg>
