<?xml version="1.0" encoding="UTF-8" standalone="no"?>
<svg
   width="24"
   height="24"
   viewBox="0 0 24 24"
   fill="none"
   stroke="currentColor"
   stroke-width="1.25"
   stroke-linecap="round"
   stroke-linejoin="round"
   version="1.1"
   id="svg4"
   sodipodi:docname=".tmp_decimals-arrow-right.svg"
   xmlns:inkscape="http://www.inkscape.org/namespaces/inkscape"
   xmlns:sodipodi="http://sodipodi.sourceforge.net/DTD/sodipodi-0.dtd"
   xmlns="http://www.w3.org/2000/svg"
   xmlns:svg="http://www.w3.org/2000/svg">
  <defs
     id="defs4" />
  <sodipodi:namedview
     id="namedview4"
     pagecolor="#ffffff"
     bordercolor="#000000"
     borderopacity="0.25"
     inkscape:showpageshadow="2"
     inkscape:pageopacity="0.0"
     inkscape:pagecheckerboard="0"
     inkscape:deskcolor="#d1d1d1" />
  <path
     id="path1"
     style="baseline-shift:baseline;display:inline;overflow:visible;vector-effect:none;fill:#000000;stroke:none;stroke-linecap:butt;stroke-linejoin:miter;enable-background:accumulate;stop-color:#000000;stop-opacity:1;opacity:1"
     d="M 8.5 2.375 C 6.7795608 2.375 5.375 3.7795608 5.375 5.5 L 5.375 8.5 C 5.375 10.220439 6.7795608 11.625 8.5 11.625 C 10.220439 11.625 11.625 10.220439 11.625 8.5 L 11.625 5.5 C 11.625 3.7795608 10.220439 2.375 8.5 2.375 z M 17.5 2.375 C 15.779561 2.375 14.375 3.7795608 14.375 5.5 L 14.375 8.5 C 14.375 10.220439 15.779561 11.625 17.5 11.625 C 19.220439 11.625 20.625 10.220439 20.625 8.5 L 20.625 5.5 C 20.625 3.7795608 19.220439 2.375 17.5 2.375 z M 8.5 3.625 C 9.5495608 3.625 10.375 4.4504392 10.375 5.5 L 10.375 8.5 C 10.375 9.5495608 9.5495608 10.375 8.5 10.375 C 7.4504392 10.375 6.625 9.5495608 6.625 8.5 L 6.625 5.5 C 6.625 4.4504392 7.4504392 3.625 8.5 3.625 z M 17.5 3.625 C 18.549561 3.625 19.375 4.4504392 19.375 5.5 L 19.375 8.5 C 19.375 9.5495608 18.549561 10.375 17.5 10.375 C 16.450439 10.375 15.625 9.5495608 15.625 8.5 L 15.625 5.5 C 15.625 4.4504392 16.450439 3.625 17.5 3.625 z M 3 10.375 A 0.625 0.625 0 0 0 2.375 11 A 0.625 0.625 0 0 0 3 11.625 L 3.0097656 11.625 A 0.625 0.625 0 0 0 3.6347656 11 A 0.625 0.625 0 0 0 3.0097656 10.375 L 3 10.375 z M 17 14.376953 A 0.625 0.625 0 0 0 16.558594 14.558594 A 0.625 0.625 0 0 0 16.558594 15.441406 L 18.492188 17.375 L 10 17.375 A 0.625 0.625 0 0 0 9.375 18 A 0.625 0.625 0 0 0 10 18.625 L 18.492188 18.625 L 16.558594 20.558594 A 0.625 0.625 0 0 0 16.558594 21.441406 A 0.625 0.625 0 0 0 17.441406 21.441406 L 20.419922 18.462891 A 0.625 0.625 0 0 0 20.441406 18.441406 A 0.6250625 0.6250625 0 0 0 20.451172 18.431641 A 0.625 0.625 0 0 0 20.496094 18.380859 A 0.6250625 0.6250625 0 0 0 20.511719 18.357422 A 0.625 0.625 0 0 0 20.541016 18.3125 A 0.6250625 0.6250625 0 0 0 20.542969 18.308594 A 0.625 0.625 0 0 0 20.603516 18.162109 A 0.6250625 0.6250625 0 0 0 20.619141 18.085938 A 0.625 0.625 0 0 0 20.625 18 A 0.625 0.625 0 0 0 20.619141 17.917969 A 0.6250625 0.6250625 0 0 0 20.619141 17.914062 A 0.625 0.625 0 0 0 20.541016 17.6875 A 0.6250625 0.6250625 0 0 0 20.539062 17.685547 A 0.625 0.625 0 0 0 20.496094 17.619141 A 0.6250625 0.6250625 0 0 0 20.488281 17.611328 A 0.625 0.625 0 0 0 20.441406 17.558594 L 17.441406 14.558594 A 0.625 0.625 0 0 0 17 14.376953 z " />
</svg>
