<?xml version="1.0" encoding="UTF-8" standalone="no"?>
<svg
   width="24"
   height="24"
   viewBox="0 0 24 24"
   fill="none"
   stroke="currentColor"
   stroke-width="1.25"
   stroke-linecap="round"
   stroke-linejoin="round"
   version="1.1"
   id="svg5"
   sodipodi:docname=".tmp_dices.svg"
   xmlns:inkscape="http://www.inkscape.org/namespaces/inkscape"
   xmlns:sodipodi="http://sodipodi.sourceforge.net/DTD/sodipodi-0.dtd"
   xmlns="http://www.w3.org/2000/svg"
   xmlns:svg="http://www.w3.org/2000/svg">
  <defs
     id="defs5" />
  <sodipodi:namedview
     id="namedview5"
     pagecolor="#ffffff"
     bordercolor="#000000"
     borderopacity="0.25"
     inkscape:showpageshadow="2"
     inkscape:pageopacity="0.0"
     inkscape:pagecheckerboard="0"
     inkscape:deskcolor="#d1d1d1" />
  <path
     id="rect1"
     style="baseline-shift:baseline;display:inline;overflow:visible;vector-effect:none;fill:#000000;stroke:none;stroke-linecap:butt;stroke-linejoin:miter;enable-background:accumulate;stop-color:#000000;stop-opacity:1;opacity:1"
     d="M 14.919922 1.3808594 C 14.232215 1.3808594 13.545067 1.6255342 13.001953 2.1152344 A 0.6250625 0.6250625 0 0 0 12.978516 2.1386719 L 9.5585938 5.5585938 A 0.625 0.625 0 0 0 9.5585938 6.4414062 A 0.625 0.625 0 0 0 10.441406 6.4414062 L 13.837891 3.0449219 C 14.456352 2.4872837 15.383491 2.4872837 16.001953 3.0449219 L 20.955078 7.9179688 C 21.512716 8.5364305 21.512716 9.4635698 20.955078 10.082031 L 17.478516 13.558594 A 0.625 0.625 0 0 0 17.478516 14.441406 A 0.625 0.625 0 0 0 18.361328 14.441406 L 21.861328 10.941406 A 0.6250625 0.6250625 0 0 0 21.884766 10.917969 C 22.864166 9.8317413 22.864166 8.1682586 21.884766 7.0820312 A 0.6250625 0.6250625 0 0 0 21.857422 7.0546875 L 16.857422 2.1347656 A 0.6250625 0.6250625 0 0 0 16.837891 2.1152344 C 16.29477 1.6255373 15.607628 1.3808594 14.919922 1.3808594 z M 15 5.375 A 0.625 0.625 0 0 0 14.375 6 A 0.625 0.625 0 0 0 15 6.625 L 15.009766 6.625 A 0.625 0.625 0 0 0 15.634766 6 A 0.625 0.625 0 0 0 15.009766 5.375 L 15 5.375 z M 18 8.375 A 0.625 0.625 0 0 0 17.375 9 A 0.625 0.625 0 0 0 18 9.625 L 18.009766 9.625 A 0.625 0.625 0 0 0 18.634766 9 A 0.625 0.625 0 0 0 18.009766 8.375 L 18 8.375 z M 4 9.375 C 2.5565608 9.375 1.375 10.556561 1.375 12 L 1.375 20 C 1.375 21.443439 2.5565608 22.625 4 22.625 L 12 22.625 C 13.443439 22.625 14.625 21.443439 14.625 20 L 14.625 12 C 14.625 10.556561 13.443439 9.375 12 9.375 L 4 9.375 z M 4 10.625 L 12 10.625 C 12.772561 10.625 13.375 11.227439 13.375 12 L 13.375 20 C 13.375 20.772561 12.772561 21.375 12 21.375 L 4 21.375 C 3.2274392 21.375 2.625 20.772561 2.625 20 L 2.625 12 C 2.625 11.227439 3.2274392 10.625 4 10.625 z M 10 13.375 A 0.625 0.625 0 0 0 9.375 14 A 0.625 0.625 0 0 0 10 14.625 L 10.009766 14.625 A 0.625 0.625 0 0 0 10.634766 14 A 0.625 0.625 0 0 0 10.009766 13.375 L 10 13.375 z M 6 17.375 A 0.625 0.625 0 0 0 5.375 18 A 0.625 0.625 0 0 0 6 18.625 L 6.0097656 18.625 A 0.625 0.625 0 0 0 6.6347656 18 A 0.625 0.625 0 0 0 6.0097656 17.375 L 6 17.375 z " />
</svg>
