<?xml version="1.0" encoding="UTF-8" standalone="no"?>
<svg
   width="24"
   height="24"
   viewBox="0 0 24 24"
   fill="none"
   stroke="currentColor"
   stroke-width="1.25"
   stroke-linecap="round"
   stroke-linejoin="round"
   version="1.1"
   id="svg4"
   sodipodi:docname=".tmp_door-closed-locked.svg"
   xmlns:inkscape="http://www.inkscape.org/namespaces/inkscape"
   xmlns:sodipodi="http://sodipodi.sourceforge.net/DTD/sodipodi-0.dtd"
   xmlns="http://www.w3.org/2000/svg"
   xmlns:svg="http://www.w3.org/2000/svg">
  <defs
     id="defs4" />
  <sodipodi:namedview
     id="namedview4"
     pagecolor="#ffffff"
     bordercolor="#000000"
     borderopacity="0.25"
     inkscape:showpageshadow="2"
     inkscape:pageopacity="0.0"
     inkscape:pagecheckerboard="0"
     inkscape:deskcolor="#d1d1d1" />
  <path
     id="path1"
     style="baseline-shift:baseline;display:inline;overflow:visible;vector-effect:none;fill:#000000;stroke:none;stroke-linecap:butt;stroke-linejoin:miter;enable-background:accumulate;stop-color:#000000;stop-opacity:1;opacity:1"
     d="M 8 3.375 C 6.5576554 3.375 5.375 4.5576554 5.375 6 L 5.375 19.375 L 2 19.375 A 0.625 0.625 0 0 0 1.375 20 A 0.625 0.625 0 0 0 2 20.625 L 10 20.625 A 0.625 0.625 0 0 0 10.625 20 A 0.625 0.625 0 0 0 10 19.375 L 6.625 19.375 L 6.625 6 C 6.625 5.2332056 7.2332056 4.625 8 4.625 L 16 4.625 C 16.766794 4.625 17.375 5.2332056 17.375 6 L 17.375 9 A 0.625 0.625 0 0 0 18 9.625 A 0.625 0.625 0 0 0 18.625 9 L 18.625 6 C 18.625 4.5576554 17.442345 3.375 16 3.375 L 8 3.375 z M 10 11.375 A 0.625 0.625 0 0 0 9.375 12 A 0.625 0.625 0 0 0 10 12.625 L 10.009766 12.625 A 0.625 0.625 0 0 0 10.634766 12 A 0.625 0.625 0 0 0 10.009766 11.375 L 10 11.375 z M 18 12.375 C 17.361111 12.375 16.712848 12.585324 16.208984 13.033203 C 15.705121 13.481082 15.375 14.177084 15.375 15 L 15.375 16.375 L 15 16.375 C 14.110561 16.375 13.375 17.110561 13.375 18 L 13.375 21 C 13.375 21.889439 14.110561 22.625 15 22.625 L 21 22.625 C 21.889439 22.625 22.625 21.889439 22.625 21 L 22.625 18 C 22.625 17.110561 21.889439 16.375 21 16.375 L 20.625 16.375 L 20.625 15 C 20.625 14.177084 20.294879 13.481082 19.791016 13.033203 C 19.287152 12.585324 18.638889 12.375 18 12.375 z M 18 13.625 C 18.361111 13.625 18.712848 13.748009 18.958984 13.966797 C 19.205121 14.185585 19.375 14.489584 19.375 15 L 19.375 16.375 L 16.625 16.375 L 16.625 15 C 16.625 14.489584 16.794879 14.185585 17.041016 13.966797 C 17.287152 13.748009 17.638889 13.625 18 13.625 z M 15 17.625 L 16 17.625 L 20 17.625 L 21 17.625 C 21.218561 17.625 21.375 17.781439 21.375 18 L 21.375 21 C 21.375 21.218561 21.218561 21.375 21 21.375 L 15 21.375 C 14.781439 21.375 14.625 21.218561 14.625 21 L 14.625 18 C 14.625 17.781439 14.781439 17.625 15 17.625 z " />
</svg>
