<?xml version="1.0" encoding="UTF-8" standalone="no"?>
<svg
   width="24"
   height="24"
   viewBox="0 0 24 24"
   fill="none"
   stroke="currentColor"
   stroke-width="1.25"
   stroke-linecap="round"
   stroke-linejoin="round"
   version="1.1"
   id="svg4"
   sodipodi:docname=".tmp_ear-off.svg"
   xmlns:inkscape="http://www.inkscape.org/namespaces/inkscape"
   xmlns:sodipodi="http://sodipodi.sourceforge.net/DTD/sodipodi-0.dtd"
   xmlns="http://www.w3.org/2000/svg"
   xmlns:svg="http://www.w3.org/2000/svg">
  <defs
     id="defs4" />
  <sodipodi:namedview
     id="namedview4"
     pagecolor="#ffffff"
     bordercolor="#000000"
     borderopacity="0.25"
     inkscape:showpageshadow="2"
     inkscape:pageopacity="0.0"
     inkscape:pagecheckerboard="0"
     inkscape:deskcolor="#d1d1d1" />
  <path
     id="path1"
     style="baseline-shift:baseline;display:inline;overflow:visible;vector-effect:none;fill:#000000;stroke:none;stroke-linecap:butt;stroke-linejoin:miter;enable-background:accumulate;stop-color:#000000;stop-opacity:1;opacity:1"
     d="M 2 1.3769531 A 0.625 0.625 0 0 0 1.5585938 1.5585938 A 0.625 0.625 0 0 0 1.5585938 2.4414062 L 5.6503906 6.5332031 C 5.4731227 7.1564078 5.375 7.8174015 5.375 8.5 A 0.625 0.625 0 0 0 6 9.125 A 0.625 0.625 0 0 0 6.625 8.5 C 6.625 8.1872424 6.6498351 7.8799579 6.6972656 7.5800781 L 11.027344 11.910156 C 10.771234 12.200836 10.399445 12.374163 9.9980469 12.375 A 0.625 0.625 0 0 0 9.375 13.001953 A 0.625 0.625 0 0 0 10.001953 13.625 C 10.737091 13.623501 11.425165 13.313898 11.912109 12.794922 L 14.126953 15.009766 C 13.179571 15.88851 12.375 16.958145 12.375 18.5 C 12.375 19.510416 12.017621 20.189416 11.490234 20.658203 C 10.962848 21.126991 10.236111 21.375 9.5 21.375 C 8.7638888 21.375 8.0371519 21.126991 7.5097656 20.658203 C 6.9823793 20.189416 6.625 19.510416 6.625 18.5 A 0.625 0.625 0 0 0 6 17.875 A 0.625 0.625 0 0 0 5.375 18.5 C 5.375 19.822916 5.8926207 20.893918 6.6777344 21.591797 C 7.4628481 22.289675 8.4861112 22.625 9.5 22.625 C 10.513889 22.625 11.537152 22.289675 12.322266 21.591797 C 13.107379 20.893918 13.625 19.822916 13.625 18.5 C 13.625 17.358139 14.163825 16.651342 15.009766 15.892578 L 21.558594 22.441406 A 0.625 0.625 0 0 0 22.441406 22.441406 A 0.625 0.625 0 0 0 22.441406 21.558594 L 15.519531 14.638672 A 0.625 0.625 0 0 0 15.455078 14.572266 L 12.285156 11.402344 A 0.625 0.625 0 0 0 12.238281 11.355469 L 6.8046875 5.921875 A 0.625 0.625 0 0 0 6.7988281 5.9160156 L 2.4414062 1.5585938 A 0.625 0.625 0 0 0 2 1.3769531 z M 12.173828 1.3769531 C 10.905007 1.4260552 9.6178805 1.823544 8.4433594 2.6367188 A 0.625 0.625 0 0 0 8.2871094 3.5058594 A 0.625 0.625 0 0 0 9.15625 3.6640625 C 13.08452 0.94434147 18.379297 3.722117 18.375 8.5 C 18.375 10.017526 17.982558 11.046826 17.394531 11.90625 A 0.625 0.625 0 0 0 17.556641 12.775391 A 0.625 0.625 0 0 0 18.425781 12.613281 C 19.137754 11.572705 19.625 10.242474 19.625 8.5 C 19.628855 4.2143539 15.980292 1.2296469 12.173828 1.3769531 z M 12.5 5.375 A 0.625 0.625 0 0 0 11.875 6 A 0.625 0.625 0 0 0 12.5 6.625 C 13.542937 6.625 14.375 7.4570632 14.375 8.5 A 0.625 0.625 0 0 0 15 9.125 A 0.625 0.625 0 0 0 15.625 8.5 C 15.625 6.7815131 14.218487 5.375 12.5 5.375 z " />
</svg>
