<?xml version="1.0" encoding="UTF-8" standalone="no"?>
<svg
   width="24"
   height="24"
   viewBox="0 0 24 24"
   fill="none"
   stroke="currentColor"
   stroke-width="1.25"
   stroke-linecap="round"
   stroke-linejoin="round"
   version="1.1"
   id="svg5"
   sodipodi:docname=".tmp_ethernet-port.svg"
   xmlns:inkscape="http://www.inkscape.org/namespaces/inkscape"
   xmlns:sodipodi="http://sodipodi.sourceforge.net/DTD/sodipodi-0.dtd"
   xmlns="http://www.w3.org/2000/svg"
   xmlns:svg="http://www.w3.org/2000/svg">
  <defs
     id="defs5" />
  <sodipodi:namedview
     id="namedview5"
     pagecolor="#ffffff"
     bordercolor="#000000"
     borderopacity="0.25"
     inkscape:showpageshadow="2"
     inkscape:pageopacity="0.0"
     inkscape:pagecheckerboard="0"
     inkscape:deskcolor="#d1d1d1" />
  <path
     id="path1"
     style="baseline-shift:baseline;display:inline;overflow:visible;vector-effect:none;fill:#000000;stroke:none;stroke-linecap:butt;stroke-linejoin:miter;enable-background:accumulate;stop-color:#000000;stop-opacity:1;opacity:1"
     d="M 4 3.375 C 2.5576554 3.375 1.375 4.5576554 1.375 6 L 1.375 15 C 1.375 16.442345 2.5576554 17.625 4 17.625 L 5.7402344 17.625 L 8.5585938 20.441406 A 0.6250625 0.6250625 0 0 0 9 20.625 L 15 20.625 A 0.6250625 0.6250625 0 0 0 15.441406 20.441406 L 18.259766 17.625 L 20 17.625 C 21.442345 17.625 22.625 16.442345 22.625 15 L 22.625 6 C 22.625 4.5576554 21.442345 3.375 20 3.375 L 4 3.375 z M 4 4.625 L 20 4.625 C 20.766794 4.625 21.375 5.2332056 21.375 6 L 21.375 15 C 21.375 15.766794 20.766794 16.375 20 16.375 L 18 16.375 A 0.6250625 0.6250625 0 0 0 17.558594 16.558594 L 14.742188 19.375 L 9.2597656 19.375 L 6.4414062 16.558594 A 0.6250625 0.6250625 0 0 0 6 16.375 L 4 16.375 C 3.2332056 16.375 2.625 15.766794 2.625 15 L 2.625 6 C 2.625 5.2332056 3.2332056 4.625 4 4.625 z M 6 7.375 A 0.625 0.625 0 0 0 5.375 8 L 5.375 9 A 0.625 0.625 0 0 0 6 9.625 A 0.625 0.625 0 0 0 6.625 9 L 6.625 8 A 0.625 0.625 0 0 0 6 7.375 z M 10 7.375 A 0.625 0.625 0 0 0 9.375 8 L 9.375 9 A 0.625 0.625 0 0 0 10 9.625 A 0.625 0.625 0 0 0 10.625 9 L 10.625 8 A 0.625 0.625 0 0 0 10 7.375 z M 14 7.375 A 0.625 0.625 0 0 0 13.375 8 L 13.375 9 A 0.625 0.625 0 0 0 14 9.625 A 0.625 0.625 0 0 0 14.625 9 L 14.625 8 A 0.625 0.625 0 0 0 14 7.375 z M 18 7.375 A 0.625 0.625 0 0 0 17.375 8 L 17.375 9 A 0.625 0.625 0 0 0 18 9.625 A 0.625 0.625 0 0 0 18.625 9 L 18.625 8 A 0.625 0.625 0 0 0 18 7.375 z " />
</svg>
