<?xml version="1.0" encoding="UTF-8" standalone="no"?>
<svg
   width="24"
   height="24"
   viewBox="0 0 24 24"
   fill="none"
   stroke="currentColor"
   stroke-width="1.25"
   stroke-linecap="round"
   stroke-linejoin="round"
   version="1.1"
   id="svg5"
   sodipodi:docname=".tmp_figma.svg"
   xmlns:inkscape="http://www.inkscape.org/namespaces/inkscape"
   xmlns:sodipodi="http://sodipodi.sourceforge.net/DTD/sodipodi-0.dtd"
   xmlns="http://www.w3.org/2000/svg"
   xmlns:svg="http://www.w3.org/2000/svg">
  <defs
     id="defs5" />
  <sodipodi:namedview
     id="namedview5"
     pagecolor="#ffffff"
     bordercolor="#000000"
     borderopacity="0.25"
     inkscape:showpageshadow="2"
     inkscape:pageopacity="0.0"
     inkscape:pagecheckerboard="0"
     inkscape:deskcolor="#d1d1d1" />
  <path
     id="path1"
     style="baseline-shift:baseline;display:inline;overflow:visible;vector-effect:none;fill:#000000;stroke:none;stroke-linecap:butt;stroke-linejoin:miter;enable-background:accumulate;stop-color:#000000;stop-opacity:1;opacity:1"
     d="M 8.5 1.375 C 6.2292283 1.375 4.375 3.2292283 4.375 5.5 C 4.375 6.9724921 5.1548994 8.2698298 6.3222656 9 C 5.1549 9.7301702 4.375 11.027508 4.375 12.5 C 4.375 13.972492 5.1548994 15.26983 6.3222656 16 C 5.1549 16.73017 4.375 18.027508 4.375 19.5 C 4.375 20.822916 4.8926207 21.893918 5.6777344 22.591797 C 6.4628481 23.289675 7.4861112 23.625 8.5 23.625 C 9.5138888 23.625 10.537152 23.289675 11.322266 22.591797 C 12.107379 21.893918 12.625 20.822916 12.625 19.5 L 12.625 16 L 12.625 15.544922 C 12.64244 15.561047 12.660019 15.57605 12.677734 15.591797 C 13.462848 16.289675 14.486111 16.625 15.5 16.625 C 16.513889 16.625 17.537152 16.289675 18.322266 15.591797 C 19.107379 14.893918 19.625 13.822916 19.625 12.5 C 19.625 11.177084 19.107379 10.106082 18.322266 9.4082031 C 18.15199 9.2568471 17.971404 9.1233863 17.78125 9.0058594 C 18.089695 8.813646 18.360749 8.5821948 18.591797 8.3222656 C 19.289675 7.5371519 19.625 6.5138888 19.625 5.5 C 19.625 4.4861112 19.289675 3.4628481 18.591797 2.6777344 C 17.893918 1.8926207 16.822916 1.375 15.5 1.375 L 12 1.375 L 8.5 1.375 z M 8.5 2.625 L 11.375 2.625 L 11.375 8.375 L 8.5 8.375 C 6.9047784 8.375 5.625 7.0952216 5.625 5.5 C 5.625 3.9047784 6.9047784 2.625 8.5 2.625 z M 12.625 2.625 L 15.5 2.625 C 16.510416 2.625 17.189416 2.9823793 17.658203 3.5097656 C 18.126991 4.0371519 18.375 4.7638888 18.375 5.5 C 18.375 6.2361112 18.126991 6.9628481 17.658203 7.4902344 C 17.189416 8.0176207 16.510416 8.375 15.5 8.375 L 12.625 8.375 L 12.625 2.625 z M 8.5 9.625 L 11.375 9.625 L 11.375 12.5 L 11.375 15.375 L 8.5 15.375 C 6.9047784 15.375 5.625 14.095222 5.625 12.5 C 5.625 10.904778 6.9047784 9.625 8.5 9.625 z M 15.5 9.625 C 16.236111 9.625 16.962848 9.8730092 17.490234 10.341797 C 18.017621 10.810584 18.375 11.489584 18.375 12.5 C 18.375 13.510416 18.017621 14.189416 17.490234 14.658203 C 16.962848 15.126991 16.236111 15.375 15.5 15.375 C 14.763889 15.375 14.037152 15.126991 13.509766 14.658203 C 12.982379 14.189416 12.625 13.510416 12.625 12.5 C 12.625 11.489584 12.982379 10.810584 13.509766 10.341797 C 14.037152 9.8730092 14.763889 9.625 15.5 9.625 z M 8.5 16.625 L 11.375 16.625 L 11.375 19.5 C 11.375 20.510416 11.017621 21.189416 10.490234 21.658203 C 9.9628485 22.126991 9.2361112 22.375 8.5 22.375 C 7.7638888 22.375 7.0371519 22.126991 6.5097656 21.658203 C 5.9823793 21.189416 5.625 20.510416 5.625 19.5 C 5.625 17.904778 6.9047784 16.625 8.5 16.625 z " />
</svg>
