<?xml version="1.0" encoding="UTF-8" standalone="no"?>
<svg
   width="24"
   height="24"
   viewBox="0 0 24 24"
   fill="none"
   stroke="currentColor"
   stroke-width="1.25"
   stroke-linecap="round"
   stroke-linejoin="round"
   version="1.1"
   id="svg3"
   sodipodi:docname=".tmp_file-lock-2.svg"
   xmlns:inkscape="http://www.inkscape.org/namespaces/inkscape"
   xmlns:sodipodi="http://sodipodi.sourceforge.net/DTD/sodipodi-0.dtd"
   xmlns="http://www.w3.org/2000/svg"
   xmlns:svg="http://www.w3.org/2000/svg">
  <defs
     id="defs3" />
  <sodipodi:namedview
     id="namedview3"
     pagecolor="#ffffff"
     bordercolor="#000000"
     borderopacity="0.25"
     inkscape:showpageshadow="2"
     inkscape:pageopacity="0.0"
     inkscape:pagecheckerboard="0"
     inkscape:deskcolor="#d1d1d1" />
  <path
     id="path1"
     style="baseline-shift:baseline;display:inline;overflow:visible;vector-effect:none;fill:#000000;stroke:none;stroke-linecap:butt;stroke-linejoin:miter;enable-background:accumulate;stop-color:#000000;stop-opacity:1;opacity:1"
     d="M 6 1.375 C 4.5576554 1.375 3.375 2.5576554 3.375 4 L 3.375 5 A 0.625 0.625 0 0 0 4 5.625 A 0.625 0.625 0 0 0 4.625 5 L 4.625 4 C 4.625 3.2332056 5.2332056 2.625 6 2.625 L 13.375 2.625 L 13.375 6 C 13.375 7.4423446 14.557655 8.625 16 8.625 L 19.375 8.625 L 19.375 20 C 19.375 20.766794 18.766794 21.375 18 21.375 L 4 21.375 A 0.625 0.625 0 0 0 3.375 22 A 0.625 0.625 0 0 0 4 22.625 L 18 22.625 C 19.442345 22.625 20.625 21.442345 20.625 20 L 20.625 7 A 0.6250625 0.6250625 0 0 0 20.441406 6.5585938 L 15.441406 1.5585938 A 0.6250625 0.6250625 0 0 0 15 1.375 L 6 1.375 z M 14.625 2.625 L 14.740234 2.625 L 19.375 7.2597656 L 19.375 7.375 L 16 7.375 C 15.233206 7.375 14.625 6.7667944 14.625 6 L 14.625 2.625 z M 6 8.375 C 5.3611112 8.375 4.7128481 8.5853245 4.2089844 9.0332031 C 3.7051207 9.4810818 3.375 10.177084 3.375 11 L 3.375 12.375 L 3 12.375 C 2.1105608 12.375 1.375 13.110561 1.375 14 L 1.375 17 C 1.375 17.889439 2.1105608 18.625 3 18.625 L 9 18.625 C 9.8894392 18.625 10.625 17.889439 10.625 17 L 10.625 14 C 10.625 13.110561 9.8894392 12.375 9 12.375 L 8.625 12.375 L 8.625 11 C 8.625 10.177084 8.2948793 9.4810818 7.7910156 9.0332031 C 7.2871519 8.5853245 6.6388888 8.375 6 8.375 z M 6 9.625 C 6.3611112 9.625 6.7128481 9.7480091 6.9589844 9.9667969 C 7.2051207 10.185585 7.375 10.489584 7.375 11 L 7.375 12.375 L 4.625 12.375 L 4.625 11 C 4.625 10.489584 4.7948793 10.185585 5.0410156 9.9667969 C 5.2871519 9.7480091 5.6388888 9.625 6 9.625 z M 3 13.625 L 4 13.625 L 8 13.625 L 9 13.625 C 9.2185608 13.625 9.375 13.781439 9.375 14 L 9.375 17 C 9.375 17.218561 9.2185608 17.375 9 17.375 L 3 17.375 C 2.7814392 17.375 2.625 17.218561 2.625 17 L 2.625 14 C 2.625 13.781439 2.7814392 13.625 3 13.625 z " />
</svg>
