<?xml version="1.0" encoding="UTF-8" standalone="no"?>
<svg
   width="24"
   height="24"
   viewBox="0 0 24 24"
   fill="none"
   stroke="currentColor"
   stroke-width="1.25"
   stroke-linecap="round"
   stroke-linejoin="round"
   version="1.1"
   id="svg3"
   sodipodi:docname=".tmp_file-user.svg"
   xmlns:inkscape="http://www.inkscape.org/namespaces/inkscape"
   xmlns:sodipodi="http://sodipodi.sourceforge.net/DTD/sodipodi-0.dtd"
   xmlns="http://www.w3.org/2000/svg"
   xmlns:svg="http://www.w3.org/2000/svg">
  <defs
     id="defs3" />
  <sodipodi:namedview
     id="namedview3"
     pagecolor="#ffffff"
     bordercolor="#000000"
     borderopacity="0.25"
     inkscape:showpageshadow="2"
     inkscape:pageopacity="0.0"
     inkscape:pagecheckerboard="0"
     inkscape:deskcolor="#d1d1d1" />
  <path
     id="path1"
     style="baseline-shift:baseline;display:inline;overflow:visible;vector-effect:none;fill:#000000;stroke:none;stroke-linecap:butt;stroke-linejoin:miter;enable-background:accumulate;stop-color:#000000;stop-opacity:1;opacity:1"
     d="M 6 1.375 C 4.5576554 1.375 3.375 2.5576554 3.375 4 L 3.375 20 C 3.375 21.442345 4.5576554 22.625 6 22.625 L 18 22.625 C 19.442345 22.625 20.625 21.442345 20.625 20 L 20.625 7 A 0.6250625 0.6250625 0 0 0 20.441406 6.5585938 L 15.441406 1.5585938 A 0.6250625 0.6250625 0 0 0 15 1.375 L 6 1.375 z M 6 2.625 L 13.375 2.625 L 13.375 6 C 13.375 7.4423446 14.557655 8.625 16 8.625 L 19.375 8.625 L 19.375 20 C 19.375 20.766794 18.766794 21.375 18 21.375 L 6 21.375 C 5.2332056 21.375 4.625 20.766794 4.625 20 L 4.625 4 C 4.625 3.2332056 5.2332056 2.625 6 2.625 z M 14.625 2.625 L 14.742188 2.625 L 19.375 7.2597656 L 19.375 7.375 L 16 7.375 C 15.233206 7.375 14.625 6.7667944 14.625 6 L 14.625 2.625 z M 12 10.375 C 10.557655 10.375 9.375 11.557655 9.375 13 C 9.375 13.717346 9.6671462 14.370372 10.138672 14.845703 C 9.9200018 14.967271 9.712999 15.112968 9.5214844 15.283203 C 8.8301207 15.897748 8.375 16.84375 8.375 18 A 0.625 0.625 0 0 0 9 18.625 A 0.625 0.625 0 0 0 9.625 18 C 9.625 17.156251 9.9198789 16.602251 10.353516 16.216797 C 10.787152 15.831343 11.388889 15.625 12 15.625 C 12.611111 15.625 13.212848 15.831343 13.646484 16.216797 C 14.080121 16.602251 14.375 17.156251 14.375 18 A 0.625 0.625 0 0 0 15 18.625 A 0.625 0.625 0 0 0 15.625 18 C 15.625 16.84375 15.169879 15.897748 14.478516 15.283203 C 14.287001 15.112968 14.079998 14.967271 13.861328 14.845703 C 14.332854 14.370372 14.625 13.717346 14.625 13 C 14.625 11.557655 13.442345 10.375 12 10.375 z M 12 11.625 C 12.766794 11.625 13.375 12.233206 13.375 13 C 13.375 13.766794 12.766794 14.375 12 14.375 C 11.233206 14.375 10.625 13.766794 10.625 13 C 10.625 12.233206 11.233206 11.625 12 11.625 z " />
</svg>
