<?xml version="1.0" encoding="UTF-8" standalone="no"?>
<svg
   width="24"
   height="24"
   viewBox="0 0 24 24"
   fill="none"
   stroke="currentColor"
   stroke-width="1.25"
   stroke-linecap="round"
   stroke-linejoin="round"
   version="1.1"
   id="svg3"
   sodipodi:docname=".tmp_file-pen-line.svg"
   xmlns:inkscape="http://www.inkscape.org/namespaces/inkscape"
   xmlns:sodipodi="http://sodipodi.sourceforge.net/DTD/sodipodi-0.dtd"
   xmlns="http://www.w3.org/2000/svg"
   xmlns:svg="http://www.w3.org/2000/svg">
  <defs
     id="defs3" />
  <sodipodi:namedview
     id="namedview3"
     pagecolor="#ffffff"
     bordercolor="#000000"
     borderopacity="0.25"
     inkscape:showpageshadow="2"
     inkscape:pageopacity="0.0"
     inkscape:pagecheckerboard="0"
     inkscape:deskcolor="#d1d1d1" />
  <path
     id="path1"
     style="baseline-shift:baseline;display:inline;overflow:visible;vector-effect:none;fill:#000000;stroke:none;stroke-linecap:butt;stroke-linejoin:miter;enable-background:accumulate;stop-color:#000000;stop-opacity:1;opacity:1"
     d="M 6 1.375 C 4.5576554 1.375 3.375 2.5576554 3.375 4 L 3.375 20 C 3.375 21.442345 4.5576554 22.625 6 22.625 L 18 22.625 C 19.442345 22.625 20.625 21.442345 20.625 20 A 0.625 0.625 0 0 0 20 19.375 A 0.625 0.625 0 0 0 19.375 20 C 19.375 20.766794 18.766794 21.375 18 21.375 L 6 21.375 C 5.2332056 21.375 4.625 20.766794 4.625 20 L 4.625 4 C 4.625 3.2332056 5.2332056 2.625 6 2.625 L 14.171875 2.625 C 14.536758 2.6250779 14.886559 2.7692936 15.144531 3.0273438 L 17.558594 5.4414062 A 0.625 0.625 0 0 0 18.441406 5.4414062 A 0.625 0.625 0 0 0 18.441406 4.5585938 L 16.027344 2.1445312 C 15.535345 1.6523838 14.867771 1.3751486 14.171875 1.375 L 6 1.375 z M 19.740234 8.3417969 C 19.114928 8.3737335 18.466399 8.6449296 17.931641 9.1796875 L 13.921875 13.191406 C 13.609843 13.503267 13.381469 13.889026 13.257812 14.3125 L 12.421875 17.183594 C 12.182499 18.00431 12.99569 18.817501 13.816406 18.578125 L 16.685547 17.740234 C 17.10902 17.616577 17.49478 17.388204 17.806641 17.076172 L 21.820312 13.068359 C 22.431465 12.457207 22.699619 11.698215 22.658203 10.994141 C 22.616787 10.290066 22.294023 9.6533967 21.820312 9.1796875 C 21.346604 8.7059783 20.709934 8.3832132 20.005859 8.3417969 C 19.91785 8.3366199 19.829564 8.3372345 19.740234 8.3417969 z M 19.798828 9.5859375 C 19.844068 9.5842604 19.888613 9.5852447 19.933594 9.5878906 C 20.293436 9.6090576 20.658256 9.7871625 20.935547 10.064453 C 21.212838 10.341744 21.390942 10.706564 21.412109 11.066406 C 21.433279 11.426248 21.325729 11.793413 20.935547 12.183594 L 16.923828 16.193359 C 16.760445 16.356833 16.557795 16.476232 16.335938 16.541016 L 13.683594 17.314453 L 14.457031 14.664062 L 14.457031 14.662109 C 14.521921 14.440895 14.643569 14.239154 14.806641 14.076172 L 18.816406 10.064453 C 19.157815 9.7230449 19.48215 9.5976771 19.798828 9.5859375 z M 8 17.375 A 0.625 0.625 0 0 0 7.375 18 A 0.625 0.625 0 0 0 8 18.625 L 9 18.625 A 0.625 0.625 0 0 0 9.625 18 A 0.625 0.625 0 0 0 9 17.375 L 8 17.375 z " />
</svg>
