<?xml version="1.0" encoding="UTF-8" standalone="no"?>
<svg
   width="24"
   height="24"
   viewBox="0 0 24 24"
   fill="none"
   stroke="currentColor"
   stroke-width="1.25"
   stroke-linecap="round"
   stroke-linejoin="round"
   version="1.1"
   id="svg5"
   sodipodi:docname=".tmp_file-text.svg"
   xmlns:inkscape="http://www.inkscape.org/namespaces/inkscape"
   xmlns:sodipodi="http://sodipodi.sourceforge.net/DTD/sodipodi-0.dtd"
   xmlns="http://www.w3.org/2000/svg"
   xmlns:svg="http://www.w3.org/2000/svg">
  <defs
     id="defs5" />
  <sodipodi:namedview
     id="namedview5"
     pagecolor="#ffffff"
     bordercolor="#000000"
     borderopacity="0.25"
     inkscape:showpageshadow="2"
     inkscape:pageopacity="0.0"
     inkscape:pagecheckerboard="0"
     inkscape:deskcolor="#d1d1d1" />
  <path
     id="path1"
     style="baseline-shift:baseline;display:inline;overflow:visible;vector-effect:none;fill:#000000;stroke:none;stroke-linecap:butt;stroke-linejoin:miter;enable-background:accumulate;stop-color:#000000;stop-opacity:1;opacity:1"
     d="M 6 1.375 C 4.5576554 1.375 3.375 2.5576554 3.375 4 L 3.375 20 C 3.375 21.442345 4.5576554 22.625 6 22.625 L 18 22.625 C 19.442345 22.625 20.625 21.442345 20.625 20 L 20.625 7 A 0.6250625 0.6250625 0 0 0 20.441406 6.5585938 L 15.441406 1.5585938 A 0.6250625 0.6250625 0 0 0 15 1.375 L 6 1.375 z M 6 2.625 L 13.375 2.625 L 13.375 6 C 13.375 7.4423446 14.557655 8.625 16 8.625 L 19.375 8.625 L 19.375 20 C 19.375 20.766794 18.766794 21.375 18 21.375 L 6 21.375 C 5.2332056 21.375 4.625 20.766794 4.625 20 L 4.625 4 C 4.625 3.2332056 5.2332056 2.625 6 2.625 z M 14.625 2.625 L 14.742188 2.625 L 19.375 7.2597656 L 19.375 7.375 L 16 7.375 C 15.233206 7.375 14.625 6.7667944 14.625 6 L 14.625 2.625 z M 8 8.375 A 0.625 0.625 0 0 0 7.375 9 A 0.625 0.625 0 0 0 8 9.625 L 10 9.625 A 0.625 0.625 0 0 0 10.625 9 A 0.625 0.625 0 0 0 10 8.375 L 8 8.375 z M 8 12.375 A 0.625 0.625 0 0 0 7.375 13 A 0.625 0.625 0 0 0 8 13.625 L 16 13.625 A 0.625 0.625 0 0 0 16.625 13 A 0.625 0.625 0 0 0 16 12.375 L 8 12.375 z M 8 16.375 A 0.625 0.625 0 0 0 7.375 17 A 0.625 0.625 0 0 0 8 17.625 L 16 17.625 A 0.625 0.625 0 0 0 16.625 17 A 0.625 0.625 0 0 0 16 16.375 L 8 16.375 z " />
</svg>
