<?xml version="1.0" encoding="UTF-8" standalone="no"?>
<svg
   width="24"
   height="24"
   viewBox="0 0 24 24"
   fill="none"
   stroke="currentColor"
   stroke-width="1.25"
   stroke-linecap="round"
   stroke-linejoin="round"
   version="1.1"
   id="svg1"
   sodipodi:docname=".tmp_flag-triangle-left.svg"
   xmlns:inkscape="http://www.inkscape.org/namespaces/inkscape"
   xmlns:sodipodi="http://sodipodi.sourceforge.net/DTD/sodipodi-0.dtd"
   xmlns="http://www.w3.org/2000/svg"
   xmlns:svg="http://www.w3.org/2000/svg">
  <defs
     id="defs1" />
  <sodipodi:namedview
     id="namedview1"
     pagecolor="#ffffff"
     bordercolor="#000000"
     borderopacity="0.25"
     inkscape:showpageshadow="2"
     inkscape:pageopacity="0.0"
     inkscape:pagecheckerboard="0"
     inkscape:deskcolor="#d1d1d1" />
  <path
     id="path1"
     style="baseline-shift:baseline;display:inline;overflow:visible;vector-effect:none;fill:#000000;stroke:none;stroke-linecap:butt;stroke-linejoin:miter;enable-background:accumulate;stop-color:#000000;stop-opacity:1;opacity:1"
     d="M 17.257812 1.3828125 C 17.019205 1.3681369 16.774144 1.4150234 16.542969 1.5351562 L 16.541016 1.5351562 L 5.1777344 7.2167969 C 4.1433233 7.717785 4.1433233 9.282215 5.1777344 9.7832031 L 17.375 15.884766 L 17.375 22 A 0.625 0.625 0 0 0 18 22.625 A 0.625 0.625 0 0 0 18.625 22 L 18.625 2.8007812 C 18.625688 2.0188436 17.973635 1.4268393 17.257812 1.3828125 z M 17.21875 2.6152344 C 17.310535 2.6110995 17.375105 2.679768 17.375 2.7988281 A 0.6250625 0.6250625 0 0 0 17.375 2.8007812 L 17.375 14.488281 L 5.7304688 8.6601562 A 0.6250625 0.6250625 0 0 0 5.7226562 8.6582031 C 5.5536325 8.5763411 5.5536324 8.4236589 5.7226562 8.3417969 A 0.6250625 0.6250625 0 0 0 5.7304688 8.3398438 L 17.109375 2.6484375 A 0.6250625 0.6250625 0 0 0 17.119141 2.6445312 C 17.154327 2.6261765 17.188155 2.6166127 17.21875 2.6152344 z " />
</svg>
