<?xml version="1.0" encoding="UTF-8" standalone="no"?>
<svg
   width="24"
   height="24"
   viewBox="0 0 24 24"
   fill="none"
   stroke="currentColor"
   stroke-width="1.25"
   stroke-linecap="round"
   stroke-linejoin="round"
   version="1.1"
   id="svg6"
   sodipodi:docname=".tmp_flip-horizontal-2.svg"
   xmlns:inkscape="http://www.inkscape.org/namespaces/inkscape"
   xmlns:sodipodi="http://sodipodi.sourceforge.net/DTD/sodipodi-0.dtd"
   xmlns="http://www.w3.org/2000/svg"
   xmlns:svg="http://www.w3.org/2000/svg">
  <defs
     id="defs6" />
  <sodipodi:namedview
     id="namedview6"
     pagecolor="#ffffff"
     bordercolor="#000000"
     borderopacity="0.25"
     inkscape:showpageshadow="2"
     inkscape:pageopacity="0.0"
     inkscape:pagecheckerboard="0"
     inkscape:deskcolor="#d1d1d1" />
  <path
     id="path1"
     style="baseline-shift:baseline;display:inline;overflow:visible;vector-effect:none;fill:#000000;stroke:none;stroke-linecap:butt;stroke-linejoin:miter;enable-background:accumulate;stop-color:#000000;stop-opacity:1;opacity:1"
     d="M 12 1.375 A 0.625 0.625 0 0 0 11.375 2 L 11.375 4 A 0.625 0.625 0 0 0 12 4.625 A 0.625 0.625 0 0 0 12.625 4 L 12.625 2 A 0.625 0.625 0 0 0 12 1.375 z M 3 6.375 A 0.625 0.625 0 0 0 2.8164062 6.5585938 A 0.625 0.625 0 0 0 2.5585938 6.5585938 A 0.625 0.625 0 0 0 2.5585938 6.8164062 A 0.625 0.625 0 0 0 2.375 7 L 2.375 17 A 0.6250625 0.6250625 0 0 0 3.4414062 17.441406 L 8.4414062 12.441406 A 0.6250625 0.6250625 0 0 0 8.4414062 11.558594 L 3.4414062 6.5585938 A 0.625 0.625 0 0 0 3.1835938 6.5585938 A 0.625 0.625 0 0 0 3 6.375 z M 21 6.375 A 0.625 0.625 0 0 0 20.816406 6.5585938 A 0.625 0.625 0 0 0 20.558594 6.5585938 L 15.558594 11.558594 A 0.6250625 0.6250625 0 0 0 15.558594 12.441406 L 20.558594 17.441406 A 0.6250625 0.6250625 0 0 0 21.625 17 L 21.625 7 A 0.625 0.625 0 0 0 21.441406 6.8164062 A 0.625 0.625 0 0 0 21.441406 6.5585938 A 0.625 0.625 0 0 0 21.183594 6.5585938 A 0.625 0.625 0 0 0 21 6.375 z M 12 7.375 A 0.625 0.625 0 0 0 11.375 8 L 11.375 10 A 0.625 0.625 0 0 0 12 10.625 A 0.625 0.625 0 0 0 12.625 10 L 12.625 8 A 0.625 0.625 0 0 0 12 7.375 z M 3.625 8.5078125 L 7.1171875 12 L 3.625 15.492188 L 3.625 8.5078125 z M 20.375 8.5078125 L 20.375 15.492188 L 16.882812 12 L 20.375 8.5078125 z M 12 13.375 A 0.625 0.625 0 0 0 11.375 14 L 11.375 16 A 0.625 0.625 0 0 0 12 16.625 A 0.625 0.625 0 0 0 12.625 16 L 12.625 14 A 0.625 0.625 0 0 0 12 13.375 z M 12 19.375 A 0.625 0.625 0 0 0 11.375 20 L 11.375 22 A 0.625 0.625 0 0 0 12 22.625 A 0.625 0.625 0 0 0 12.625 22 L 12.625 20 A 0.625 0.625 0 0 0 12 19.375 z " />
</svg>
