<?xml version="1.0" encoding="UTF-8" standalone="no"?>
<svg
   width="24"
   height="24"
   viewBox="0 0 24 24"
   fill="none"
   stroke="currentColor"
   stroke-width="1.25"
   stroke-linecap="round"
   stroke-linejoin="round"
   version="1.1"
   id="svg3"
   sodipodi:docname=".tmp_folder-archive.svg"
   xmlns:inkscape="http://www.inkscape.org/namespaces/inkscape"
   xmlns:sodipodi="http://sodipodi.sourceforge.net/DTD/sodipodi-0.dtd"
   xmlns="http://www.w3.org/2000/svg"
   xmlns:svg="http://www.w3.org/2000/svg">
  <defs
     id="defs3" />
  <sodipodi:namedview
     id="namedview3"
     pagecolor="#ffffff"
     bordercolor="#000000"
     borderopacity="0.25"
     inkscape:showpageshadow="2"
     inkscape:pageopacity="0.0"
     inkscape:pagecheckerboard="0"
     inkscape:deskcolor="#d1d1d1" />
  <path
     id="circle1"
     style="baseline-shift:baseline;display:inline;overflow:visible;vector-effect:none;fill:#000000;stroke:none;stroke-linecap:butt;stroke-linejoin:miter;enable-background:accumulate;stop-color:#000000;stop-opacity:1;opacity:1"
     d="M 4 2.375 C 2.5576554 2.375 1.375 3.5576554 1.375 5 L 1.375 18 C 1.375 19.442345 2.5576554 20.625 4 20.625 L 9.0996094 20.625 A 0.625 0.625 0 0 0 9.7246094 20 A 0.625 0.625 0 0 0 9.0996094 19.375 L 4 19.375 C 3.2332056 19.375 2.625 18.766794 2.625 18 L 2.625 5 C 2.625 4.2332056 3.2332056 3.625 4 3.625 L 7.9296875 3.625 C 8.3928425 3.6250763 8.8233898 3.85733 9.078125 4.2441406 A 0.6250625 0.6250625 0 0 0 9.0820312 4.25 L 9.8886719 5.4433594 C 10.378853 6.1877831 11.214196 6.6337382 12.105469 6.625 L 20 6.625 C 20.766794 6.625 21.375 7.2332056 21.375 8 L 21.375 18 A 0.6250625 0.6250625 0 0 0 21.375 18.003906 C 21.3786 18.527965 21.087158 19.006369 20.619141 19.242188 A 0.625 0.625 0 0 0 20.341797 20.082031 A 0.625 0.625 0 0 0 21.181641 20.357422 C 22.071639 19.908979 22.631936 18.992662 22.625 17.996094 L 22.625 8 C 22.625 6.5576554 21.442345 5.375 20 5.375 L 12.099609 5.375 A 0.6250625 0.6250625 0 0 0 12.09375 5.375 C 11.625729 5.379589 11.189064 5.1468016 10.931641 4.7558594 A 0.6250625 0.6250625 0 0 0 10.927734 4.75 L 10.121094 3.5566406 C 9.6359838 2.8200106 8.8117052 2.3751452 7.9296875 2.375 L 4 2.375 z M 15 9.375 A 0.625 0.625 0 0 0 14.375 10 L 14.375 11 A 0.625 0.625 0 0 0 15 11.625 A 0.625 0.625 0 0 0 15.625 11 L 15.625 10 A 0.625 0.625 0 0 0 15 9.375 z M 15 14.375 A 0.625 0.625 0 0 0 14.375 15 L 14.375 16.451172 C 13.23117 16.733876 12.375 17.772786 12.375 19 C 12.375 20.442345 13.557655 21.625 15 21.625 C 16.442345 21.625 17.625 20.442345 17.625 19 C 17.625 17.772786 16.76883 16.733876 15.625 16.451172 L 15.625 15 A 0.625 0.625 0 0 0 15 14.375 z M 15 17.625 C 15.766794 17.625 16.375 18.233206 16.375 19 C 16.375 19.766794 15.766794 20.375 15 20.375 C 14.233206 20.375 13.625 19.766794 13.625 19 C 13.625 18.233206 14.233206 17.625 15 17.625 z " />
</svg>
