<?xml version="1.0" encoding="UTF-8" standalone="no"?>
<svg
   width="24"
   height="24"
   viewBox="0 0 24 24"
   fill="none"
   stroke="currentColor"
   stroke-width="1.25"
   stroke-linecap="round"
   stroke-linejoin="round"
   version="1.1"
   id="svg3"
   sodipodi:docname=".tmp_folder-key.svg"
   xmlns:inkscape="http://www.inkscape.org/namespaces/inkscape"
   xmlns:sodipodi="http://sodipodi.sourceforge.net/DTD/sodipodi-0.dtd"
   xmlns="http://www.w3.org/2000/svg"
   xmlns:svg="http://www.w3.org/2000/svg">
  <defs
     id="defs3" />
  <sodipodi:namedview
     id="namedview3"
     pagecolor="#ffffff"
     bordercolor="#000000"
     borderopacity="0.25"
     inkscape:showpageshadow="2"
     inkscape:pageopacity="0.0"
     inkscape:pagecheckerboard="0"
     inkscape:deskcolor="#d1d1d1" />
  <path
     id="circle1"
     style="baseline-shift:baseline;display:inline;overflow:visible;vector-effect:none;fill:#000000;stroke:none;stroke-linecap:butt;stroke-linejoin:miter;enable-background:accumulate;stop-color:#000000;stop-opacity:1;opacity:1"
     d="M 4 2.375 C 2.5576554 2.375 1.375 3.5576554 1.375 5 L 1.375 18 C 1.375 19.442345 2.5576554 20.625 4 20.625 L 10 20.625 A 0.625 0.625 0 0 0 10.625 20 A 0.625 0.625 0 0 0 10 19.375 L 4 19.375 C 3.2332056 19.375 2.625 18.766794 2.625 18 L 2.625 5 C 2.625 4.2332056 3.2332056 3.625 4 3.625 L 7.9003906 3.625 A 0.6250625 0.6250625 0 0 0 7.90625 3.625 C 8.3743112 3.620411 8.8109355 3.8531984 9.0683594 4.2441406 A 0.6250625 0.6250625 0 0 0 9.0722656 4.25 L 9.8789062 5.4433594 C 10.364016 6.1799894 11.188294 6.6248548 12.070312 6.625 L 20 6.625 C 20.766794 6.625 21.375 7.2332056 21.375 8 L 21.375 10 A 0.625 0.625 0 0 0 22 10.625 A 0.625 0.625 0 0 0 22.625 10 L 22.625 8 C 22.625 6.5576554 21.442345 5.375 20 5.375 L 12.070312 5.375 C 11.607157 5.3749237 11.17661 5.14267 10.921875 4.7558594 A 0.6250625 0.6250625 0 0 0 10.917969 4.75 L 10.111328 3.5566406 C 9.6211473 2.8122169 8.7858043 2.3662618 7.8945312 2.375 L 4 2.375 z M 22 13.376953 A 0.625 0.625 0 0 0 21.558594 13.558594 L 20.558594 14.558594 L 17.359375 17.757812 C 16.962082 17.51521 16.49647 17.375 16 17.375 C 14.557655 17.375 13.375 18.557655 13.375 20 C 13.375 21.442345 14.557655 22.625 16 22.625 C 17.442345 22.625 18.625 21.442345 18.625 20 C 18.625 19.50353 18.48479 19.037918 18.242188 18.640625 L 21 15.882812 L 21.558594 16.441406 A 0.625 0.625 0 0 0 22.441406 16.441406 A 0.625 0.625 0 0 0 22.441406 15.558594 L 21.882812 15 L 22.441406 14.441406 A 0.625 0.625 0 0 0 22.441406 13.558594 A 0.625 0.625 0 0 0 22 13.376953 z M 16 18.625 C 16.766794 18.625 17.375 19.233206 17.375 20 C 17.375 20.766794 16.766794 21.375 16 21.375 C 15.233206 21.375 14.625 20.766794 14.625 20 C 14.625 19.233206 15.233206 18.625 16 18.625 z " />
</svg>
