<?xml version="1.0" encoding="UTF-8" standalone="no"?>
<svg
   width="24"
   height="24"
   viewBox="0 0 24 24"
   fill="none"
   stroke="currentColor"
   stroke-width="1.25"
   stroke-linecap="round"
   stroke-linejoin="round"
   version="1.1"
   id="svg2"
   sodipodi:docname=".tmp_git-commit-horizontal.svg"
   xmlns:inkscape="http://www.inkscape.org/namespaces/inkscape"
   xmlns:sodipodi="http://sodipodi.sourceforge.net/DTD/sodipodi-0.dtd"
   xmlns="http://www.w3.org/2000/svg"
   xmlns:svg="http://www.w3.org/2000/svg">
  <defs
     id="defs2" />
  <sodipodi:namedview
     id="namedview2"
     pagecolor="#ffffff"
     bordercolor="#000000"
     borderopacity="0.25"
     inkscape:showpageshadow="2"
     inkscape:pageopacity="0.0"
     inkscape:pagecheckerboard="0"
     inkscape:deskcolor="#d1d1d1" />
  <path
     id="circle1"
     style="baseline-shift:baseline;display:inline;overflow:visible;vector-effect:none;fill:#000000;stroke:none;stroke-linecap:butt;stroke-linejoin:miter;enable-background:accumulate;stop-color:#000000;stop-opacity:1;opacity:1"
     d="M 12 8.375 C 10.218372 8.375 8.7278131 9.6757571 8.4296875 11.375 L 3 11.375 A 0.625 0.625 0 0 0 2.375 12 A 0.625 0.625 0 0 0 3 12.625 L 8.4296875 12.625 C 8.7278131 14.324243 10.218372 15.625 12 15.625 C 13.781628 15.625 15.272187 14.324243 15.570312 12.625 L 21 12.625 A 0.625 0.625 0 0 0 21.625 12 A 0.625 0.625 0 0 0 21 11.375 L 15.570312 11.375 C 15.272187 9.6757571 13.781628 8.375 12 8.375 z M 12 9.625 C 13.319079 9.625 14.375 10.680921 14.375 12 C 14.375 13.319079 13.319079 14.375 12 14.375 C 10.680921 14.375 9.625 13.319079 9.625 12 C 9.625 10.680921 10.680921 9.625 12 9.625 z " />
</svg>
