<?xml version="1.0" encoding="UTF-8" standalone="no"?>
<svg
   width="24"
   height="24"
   viewBox="0 0 24 24"
   fill="none"
   stroke="currentColor"
   stroke-width="1.25"
   stroke-linecap="round"
   stroke-linejoin="round"
   version="1.1"
   id="svg3"
   sodipodi:docname=".tmp_graduation-cap.svg"
   xmlns:inkscape="http://www.inkscape.org/namespaces/inkscape"
   xmlns:sodipodi="http://sodipodi.sourceforge.net/DTD/sodipodi-0.dtd"
   xmlns="http://www.w3.org/2000/svg"
   xmlns:svg="http://www.w3.org/2000/svg">
  <defs
     id="defs3" />
  <sodipodi:namedview
     id="namedview3"
     pagecolor="#ffffff"
     bordercolor="#000000"
     borderopacity="0.25"
     inkscape:showpageshadow="2"
     inkscape:pageopacity="0.0"
     inkscape:pagecheckerboard="0"
     inkscape:deskcolor="#d1d1d1" />
  <path
     id="path1"
     style="baseline-shift:baseline;display:inline;overflow:visible;vector-effect:none;fill:#000000;stroke:none;stroke-linecap:butt;stroke-linejoin:miter;enable-background:accumulate;stop-color:#000000;stop-opacity:1;opacity:1"
     d="M 12 4.375 C 11.627984 4.375 11.255968 4.453592 10.910156 4.6113281 L 2.3496094 8.5078125 C 1.7232535 8.782136 1.3769531 9.4010832 1.3769531 9.9960938 C 1.3769531 10.591104 1.7232535 11.210051 2.3496094 11.484375 L 5.375 12.863281 L 5.375 16 C 5.375 16.65625 5.6358597 17.25711 6.0449219 17.724609 C 6.453984 18.192109 6.9997143 18.544144 7.6210938 18.820312 C 8.8638529 19.37265 10.430556 19.625 12 19.625 C 13.569444 19.625 15.136147 19.37265 16.378906 18.820312 C 17.000286 18.544145 17.546016 18.192109 17.955078 17.724609 C 18.36414 17.25711 18.625 16.65625 18.625 16 L 18.625 12.876953 L 21.375 11.628906 L 21.375 16 A 0.625 0.625 0 0 0 22 16.625 A 0.625 0.625 0 0 0 22.625 16 L 22.625 10.226562 C 22.636181 10.147683 22.641439 10.068979 22.640625 9.9902344 C 22.634425 9.3917052 22.276578 8.7727982 21.640625 8.5078125 L 13.089844 4.6113281 C 12.744032 4.453592 12.372016 4.375 12 4.375 z M 12 5.6230469 C 12.194459 5.6230469 12.388918 5.6653068 12.570312 5.7480469 L 21.142578 9.6523438 A 0.6250625 0.6250625 0 0 0 21.160156 9.6601562 C 21.297117 9.7172237 21.359247 9.8043207 21.380859 9.9101562 A 0.625 0.625 0 0 0 21.375 10 L 21.375 10.132812 C 21.349144 10.222292 21.288002 10.296657 21.167969 10.349609 A 0.6250625 0.6250625 0 0 0 21.162109 10.353516 L 12.572266 14.25 A 0.6250625 0.6250625 0 0 0 12.570312 14.251953 C 12.207524 14.417433 11.792476 14.417433 11.429688 14.251953 L 2.859375 10.34375 A 0.6250625 0.6250625 0 0 0 2.8515625 10.339844 C 2.6794869 10.264475 2.6269531 10.14224 2.6269531 9.9960938 C 2.6269531 9.8499472 2.6794891 9.7277061 2.8515625 9.6523438 A 0.6250625 0.6250625 0 0 0 2.859375 9.6484375 L 11.429688 5.7480469 C 11.611082 5.6653068 11.805541 5.6230469 12 5.6230469 z M 6.625 13.433594 L 10.910156 15.388672 C 11.601159 15.703861 12.396702 15.703297 13.087891 15.388672 L 17.375 13.443359 L 17.375 16 C 17.375 16.34375 17.26086 16.61789 17.013672 16.900391 C 16.766484 17.182891 16.374714 17.455857 15.871094 17.679688 C 14.863853 18.127351 13.430556 18.375 12 18.375 C 10.569444 18.375 9.1361471 18.12735 8.1289062 17.679688 C 7.6252857 17.455856 7.233516 17.182891 6.9863281 16.900391 C 6.7391403 16.61789 6.625 16.34375 6.625 16 L 6.625 13.433594 z " />
</svg>
