<?xml version="1.0" encoding="UTF-8" standalone="no"?>
<svg
   width="24"
   height="24"
   viewBox="0 0 24 24"
   fill="none"
   stroke="currentColor"
   stroke-width="1.25"
   stroke-linecap="round"
   stroke-linejoin="round"
   version="1.1"
   id="svg5"
   sodipodi:docname=".tmp_group.svg"
   xmlns:inkscape="http://www.inkscape.org/namespaces/inkscape"
   xmlns:sodipodi="http://sodipodi.sourceforge.net/DTD/sodipodi-0.dtd"
   xmlns="http://www.w3.org/2000/svg"
   xmlns:svg="http://www.w3.org/2000/svg">
  <defs
     id="defs5" />
  <sodipodi:namedview
     id="namedview5"
     pagecolor="#ffffff"
     bordercolor="#000000"
     borderopacity="0.25"
     inkscape:showpageshadow="2"
     inkscape:pageopacity="0.0"
     inkscape:pagecheckerboard="0"
     inkscape:deskcolor="#d1d1d1" />
  <path
     id="path1"
     style="baseline-shift:baseline;display:inline;overflow:visible;vector-effect:none;fill:#000000;stroke:none;stroke-linecap:butt;stroke-linejoin:miter;enable-background:accumulate;stop-color:#000000;stop-opacity:1;opacity:1"
     d="M 5 2.375 C 3.5590909 2.375 2.375 3.5590909 2.375 5 L 2.375 7 A 0.625 0.625 0 0 0 3 7.625 A 0.625 0.625 0 0 0 3.625 7 L 3.625 5 C 3.625 4.2409091 4.2409091 3.625 5 3.625 L 7 3.625 A 0.625 0.625 0 0 0 7.625 3 A 0.625 0.625 0 0 0 7 2.375 L 5 2.375 z M 17 2.375 A 0.625 0.625 0 0 0 16.375 3 A 0.625 0.625 0 0 0 17 3.625 L 19 3.625 C 19.759091 3.625 20.375 4.2409091 20.375 5 L 20.375 7 A 0.625 0.625 0 0 0 21 7.625 A 0.625 0.625 0 0 0 21.625 7 L 21.625 5 C 21.625 3.5590909 20.440909 2.375 19 2.375 L 17 2.375 z M 8 6.375 C 7.1105608 6.375 6.375 7.1105608 6.375 8 L 6.375 11 C 6.375 11.889439 7.1105608 12.625 8 12.625 L 9.4199219 12.625 C 9.3908315 12.745594 9.375 12.871183 9.375 13 L 9.375 16 C 9.375 16.889439 10.110561 17.625 11 17.625 L 16 17.625 C 16.889439 17.625 17.625 16.889439 17.625 16 L 17.625 13 C 17.625 12.110561 16.889439 11.375 16 11.375 L 14.580078 11.375 C 14.609169 11.254406 14.625 11.128817 14.625 11 L 14.625 8 C 14.625 7.1105608 13.889439 6.375 13 6.375 L 8 6.375 z M 8 7.625 L 13 7.625 C 13.218561 7.625 13.375 7.7814392 13.375 8 L 13.375 11 C 13.375 11.218561 13.218561 11.375 13 11.375 L 11 11.375 L 8 11.375 C 7.7814392 11.375 7.625 11.218561 7.625 11 L 7.625 8 C 7.625 7.7814392 7.7814392 7.625 8 7.625 z M 11 12.625 L 13 12.625 L 16 12.625 C 16.218561 12.625 16.375 12.781439 16.375 13 L 16.375 16 C 16.375 16.218561 16.218561 16.375 16 16.375 L 11 16.375 C 10.781439 16.375 10.625 16.218561 10.625 16 L 10.625 13 C 10.625 12.781439 10.781439 12.625 11 12.625 z M 3 16.375 A 0.625 0.625 0 0 0 2.375 17 L 2.375 19 C 2.375 20.440909 3.5590909 21.625 5 21.625 L 7 21.625 A 0.625 0.625 0 0 0 7.625 21 A 0.625 0.625 0 0 0 7 20.375 L 5 20.375 C 4.2409091 20.375 3.625 19.759091 3.625 19 L 3.625 17 A 0.625 0.625 0 0 0 3 16.375 z M 21 16.375 A 0.625 0.625 0 0 0 20.375 17 L 20.375 19 C 20.375 19.759091 19.759091 20.375 19 20.375 L 17 20.375 A 0.625 0.625 0 0 0 16.375 21 A 0.625 0.625 0 0 0 17 21.625 L 19 21.625 C 20.440909 21.625 21.625 20.440909 21.625 19 L 21.625 17 A 0.625 0.625 0 0 0 21 16.375 z " />
</svg>
