<?xml version="1.0" encoding="UTF-8" standalone="no"?>
<svg
   width="24"
   height="24"
   viewBox="0 0 24 24"
   fill="none"
   stroke="currentColor"
   stroke-width="1.25"
   stroke-linecap="round"
   stroke-linejoin="round"
   version="1.1"
   id="svg2"
   sodipodi:docname=".tmp_highlighter.svg"
   xmlns:inkscape="http://www.inkscape.org/namespaces/inkscape"
   xmlns:sodipodi="http://sodipodi.sourceforge.net/DTD/sodipodi-0.dtd"
   xmlns="http://www.w3.org/2000/svg"
   xmlns:svg="http://www.w3.org/2000/svg">
  <defs
     id="defs2" />
  <sodipodi:namedview
     id="namedview2"
     pagecolor="#ffffff"
     bordercolor="#000000"
     borderopacity="0.25"
     inkscape:showpageshadow="2"
     inkscape:pageopacity="0.0"
     inkscape:pagecheckerboard="0"
     inkscape:deskcolor="#d1d1d1" />
  <path
     id="path1"
     style="baseline-shift:baseline;display:inline;overflow:visible;vector-effect:none;fill:#000000;stroke:none;stroke-linecap:butt;stroke-linejoin:miter;enable-background:accumulate;stop-color:#000000;stop-opacity:1;opacity:1"
     d="M 14 3.3769531 A 0.625 0.625 0 0 0 13.558594 3.5585938 L 8.9589844 8.1582031 A 0.6250625 0.6250625 0 0 0 8.953125 8.1621094 C 8.2555179 8.873811 8.0461992 9.8945845 8.3261719 10.791016 L 2.5585938 16.558594 A 0.6250625 0.6250625 0 0 0 2.375 17 L 2.375 20 A 0.6250625 0.6250625 0 0 0 3 20.625 L 12 20.625 A 0.6250625 0.6250625 0 0 0 12.441406 20.441406 L 15.208984 17.673828 C 16.105422 17.953814 17.126181 17.744489 17.837891 17.046875 A 0.6250625 0.6250625 0 0 0 17.841797 17.041016 L 22.441406 12.441406 A 0.625 0.625 0 0 0 22.441406 11.558594 A 0.625 0.625 0 0 0 21.558594 11.558594 L 16.962891 16.154297 C 16.423266 16.683235 15.576734 16.683235 15.037109 16.154297 L 9.8457031 10.962891 C 9.3167653 10.423266 9.3167653 9.5767339 9.8457031 9.0371094 L 14.441406 4.4414062 A 0.625 0.625 0 0 0 14.441406 3.5585938 A 0.625 0.625 0 0 0 14 3.3769531 z M 9 11.882812 L 14.117188 17 L 11.740234 19.375 L 3.625 19.375 L 3.625 17.259766 L 9 11.882812 z " />
</svg>
