<?xml version="1.0" encoding="UTF-8" standalone="no"?>
<svg
   width="24"
   height="24"
   viewBox="0 0 24 24"
   fill="none"
   stroke="currentColor"
   stroke-width="1.25"
   stroke-linecap="round"
   stroke-linejoin="round"
   version="1.1"
   id="svg8"
   sodipodi:docname=".tmp_hop.svg"
   xmlns:inkscape="http://www.inkscape.org/namespaces/inkscape"
   xmlns:sodipodi="http://sodipodi.sourceforge.net/DTD/sodipodi-0.dtd"
   xmlns="http://www.w3.org/2000/svg"
   xmlns:svg="http://www.w3.org/2000/svg">
  <defs
     id="defs8" />
  <sodipodi:namedview
     id="namedview8"
     pagecolor="#ffffff"
     bordercolor="#000000"
     borderopacity="0.25"
     inkscape:showpageshadow="2"
     inkscape:pageopacity="0.0"
     inkscape:pagecheckerboard="0"
     inkscape:deskcolor="#d1d1d1" />
  <path
     id="path1"
     style="baseline-shift:baseline;display:inline;overflow:visible;vector-effect:none;fill:#000000;stroke:none;stroke-linecap:butt;stroke-linejoin:miter;enable-background:accumulate;stop-color:#000000;stop-opacity:1;opacity:1"
     d="M 3.0058594 1.375 A 0.625 0.625 0 0 0 2.5625 1.5527344 C 2.0389901 2.0656672 2.039258 2.9289425 2.5605469 3.4433594 L 2.5605469 3.4453125 L 2.5625 3.4453125 L 2.5625 3.4472656 L 4.0664062 4.9511719 C 0.62461221 8.8194356 0.46399139 14.665954 3.7753906 18.724609 C 4.0671026 19.082998 4.5039559 19.287522 4.9492188 19.25 C 5.2016727 19.228727 5.4492661 19.118117 5.6503906 18.943359 C 6.8999536 20.014123 8.2700582 20.936916 9.7324219 21.695312 A 0.6250625 0.6250625 0 0 0 9.7617188 21.708984 C 10.338777 21.971673 10.98717 21.796515 11.388672 21.375 C 12.577572 21.902855 13.823614 22.294329 15.101562 22.542969 A 0.6250625 0.6250625 0 0 0 15.113281 22.544922 C 15.704952 22.64806 16.276609 22.348957 16.560547 21.859375 C 18.160335 22.355254 19.885566 22.520723 20.958984 22.583984 C 21.868307 22.645724 22.640893 21.871746 22.582031 20.962891 C 22.518214 19.471753 22.273169 17.996142 21.851562 16.566406 C 22.346035 16.284134 22.648638 15.708267 22.544922 15.113281 A 0.6250625 0.6250625 0 0 0 22.542969 15.101562 C 22.294333 13.823635 21.902841 12.577554 21.375 11.388672 C 21.796526 10.987171 21.971675 10.338784 21.708984 9.7617188 A 0.6250625 0.6250625 0 0 0 21.695312 9.7324219 C 20.937139 8.2704406 20.013728 6.901615 18.943359 5.6523438 C 19.11798 5.4517683 19.229003 5.2036845 19.25 4.953125 C 19.28733 4.5076527 19.085259 4.0689423 18.724609 3.7753906 C 16.614105 2.0534598 14.020977 1.2715322 11.472656 1.4003906 C 9.1202723 1.5193413 6.8080178 2.4162171 4.9511719 4.0683594 L 3.4414062 2.5585938 A 0.6250625 0.6250625 0 0 0 3.4375 2.5527344 C 3.401852 2.5178064 3.401852 2.4821934 3.4375 2.4472656 A 0.625 0.625 0 0 0 3.4472656 1.5625 A 0.625 0.625 0 0 0 3.0058594 1.375 z M 12.378906 2.6386719 C 14.34737 2.7159569 16.302704 3.4119278 17.935547 4.7441406 C 17.987054 4.7860652 18.000799 4.8228987 18.003906 4.8398438 C 17.999495 4.8412742 17.993072 4.84311 17.986328 4.8457031 A 0.6250625 0.6250625 0 0 0 17.976562 4.8496094 C 16.456217 5.4630967 13.043455 5.875 11.5 5.875 A 0.625 0.625 0 0 0 11.414062 5.9609375 A 0.625 0.625 0 0 0 11.302734 5.90625 A 0.625 0.625 0 0 0 11.136719 6.2382812 A 0.625 0.625 0 0 0 10.875 6.5 A 0.625 0.625 0 0 0 10.960938 6.5859375 A 0.625 0.625 0 0 0 10.90625 6.6972656 C 11.213724 7.6196879 11.496788 8.4613031 11.566406 9.5214844 A 0.625 0.625 0 0 0 11.576172 9.7050781 C 11.595675 10.180303 11.572905 10.700376 11.490234 11.291016 L 11.490234 11.292969 C 11.472224 11.40207 11.390364 11.483046 11.28125 11.501953 C 9.6658832 11.755464 8.0013292 11.345479 6.6992188 10.908203 A 0.6250625 0.6250625 0 0 0 5.875 11.5 C 5.875 13.043455 5.4630967 16.456181 4.8496094 17.976562 C 4.8447265 17.988654 4.8419648 17.997788 4.8398438 18.003906 C 4.8257309 18.001891 4.7890459 17.990753 4.7441406 17.935547 C 1.6990865 14.203341 1.9728997 8.7849128 5.3789062 5.3789062 C 7.0819095 3.675903 9.2885005 2.7561826 11.535156 2.6425781 C 11.815988 2.6283776 12.097697 2.6276312 12.378906 2.6386719 z M 17.794922 6.2382812 C 18.880283 7.4679991 19.81062 8.8275819 20.568359 10.283203 C 20.623179 10.411079 20.562859 10.516896 20.421875 10.525391 A 0.6250625 0.6250625 0 0 0 20.40625 10.527344 C 18.298456 10.70827 15.544325 10.257858 12.767578 9.1425781 C 12.678514 8.3718471 12.496086 7.7000452 12.298828 7.0625 C 13.900769 6.998331 16.137803 6.7559218 17.794922 6.2382812 z M 12.816406 10.501953 C 13.768625 10.859412 14.71537 11.145465 15.638672 11.357422 C 16.047445 12.693282 16.240066 14.383507 16.318359 15.558594 A 0.625 0.625 0 0 0 16.332031 15.757812 C 16.337601 15.852543 16.341641 15.943324 16.345703 16.029297 A 0.6250625 0.6250625 0 0 0 16.345703 16.033203 C 16.356183 16.225297 16.225297 16.356181 16.033203 16.345703 A 0.6250625 0.6250625 0 0 0 16.029297 16.345703 C 14.870407 16.290948 12.884659 16.113862 11.351562 15.638672 C 11.140211 14.719142 10.858559 13.775578 10.505859 12.826172 C 10.823823 12.817713 11.147417 12.790057 11.476562 12.738281 A 0.6250625 0.6250625 0 0 0 11.480469 12.736328 C 12.125429 12.631988 12.63296 12.117024 12.728516 11.470703 A 0.6250625 0.6250625 0 0 0 12.728516 11.466797 C 12.775989 11.128165 12.803772 10.806981 12.816406 10.501953 z M 17.009766 11.621094 C 18.131264 11.79465 19.201758 11.852144 20.1875 11.794922 C 20.698204 12.924737 21.074744 14.112345 21.3125 15.330078 C 21.32694 15.422298 21.27566 15.488923 21.181641 15.496094 C 21.137978 15.499541 21.093505 15.503418 21.048828 15.505859 A 0.625 0.625 0 0 0 21.005859 15.507812 C 19.875022 15.561414 18.450452 15.307545 17.541016 15.113281 C 17.463723 14.100344 17.312602 12.822128 17.009766 11.621094 z M 7.0625 12.287109 C 7.7015483 12.476119 8.397868 12.652378 9.1386719 12.75 C 10.24896 15.540317 10.708275 18.298395 10.527344 20.40625 A 0.6250625 0.6250625 0 0 0 10.525391 20.421875 C 10.516891 20.562878 10.411079 20.623182 10.283203 20.568359 C 8.827929 19.810774 7.4677965 18.879992 6.2382812 17.794922 C 6.7566769 16.133816 6.9991479 13.889071 7.0625 12.287109 z M 17.554688 16.396484 C 18.377962 16.568749 19.510606 16.762305 20.607422 16.765625 C 21.029665 18.14852 21.274863 19.581717 21.335938 21.027344 A 0.6250625 0.6250625 0 0 0 21.335938 21.042969 C 21.348237 21.220673 21.220673 21.348239 21.042969 21.335938 A 0.6250625 0.6250625 0 0 0 21.037109 21.335938 C 19.980192 21.273769 18.229036 21.089903 16.765625 20.613281 C 16.762984 19.513391 16.569301 18.378596 16.396484 17.556641 C 16.965464 17.42246 17.420336 16.96542 17.554688 16.396484 z M 11.617188 17.011719 C 12.822249 17.317895 14.101632 17.465463 15.113281 17.541016 C 15.317644 18.490275 15.587494 20.023904 15.496094 21.181641 C 15.488894 21.275651 15.422304 21.326941 15.330078 21.3125 C 14.11231 21.074737 12.924766 20.698226 11.794922 20.1875 C 11.851778 19.202311 11.79163 18.132302 11.617188 17.011719 z " />
</svg>
