<?xml version="1.0" encoding="UTF-8" standalone="no"?>
<svg
   width="24"
   height="24"
   viewBox="0 0 24 24"
   fill="none"
   stroke="currentColor"
   stroke-width="1.25"
   stroke-linecap="round"
   stroke-linejoin="round"
   version="1.1"
   id="svg4"
   sodipodi:docname=".tmp_house-plus.svg"
   xmlns:inkscape="http://www.inkscape.org/namespaces/inkscape"
   xmlns:sodipodi="http://sodipodi.sourceforge.net/DTD/sodipodi-0.dtd"
   xmlns="http://www.w3.org/2000/svg"
   xmlns:svg="http://www.w3.org/2000/svg">
  <defs
     id="defs4" />
  <sodipodi:namedview
     id="namedview4"
     pagecolor="#ffffff"
     bordercolor="#000000"
     borderopacity="0.25"
     inkscape:showpageshadow="2"
     inkscape:pageopacity="0.0"
     inkscape:pagecheckerboard="0"
     inkscape:deskcolor="#d1d1d1" />
  <path
     id="path1"
     style="baseline-shift:baseline;display:inline;overflow:visible;vector-effect:none;fill:#000000;stroke:none;stroke-linecap:butt;stroke-linejoin:miter;enable-background:accumulate;stop-color:#000000;stop-opacity:1;opacity:1"
     d="M 12 1.375 C 11.397096 1.375 10.793957 1.580873 10.306641 1.9921875 A 0.6250625 0.6250625 0 0 0 10.302734 1.9960938 L 3.3066406 7.9921875 C 2.7154482 8.4911766 2.3743678 9.2263733 2.375 10 L 2.375 19 C 2.375 20.442345 3.5576554 21.625 5 21.625 L 12.349609 21.625 A 0.625 0.625 0 0 0 12.974609 21 A 0.625 0.625 0 0 0 12.349609 20.375 L 9.625 20.375 L 9.625 13 C 9.625 12.78549 9.7854903 12.625 10 12.625 L 14 12.625 C 14.118582 12.625 14.229632 12.68052 14.300781 12.775391 A 0.625 0.625 0 0 0 15.175781 12.900391 A 0.625 0.625 0 0 0 15.300781 12.025391 C 14.994222 11.616645 14.510932 11.375 14 11.375 L 10 11.375 C 9.1099402 11.375 8.375 12.10994 8.375 13 L 8.375 20.375 L 5 20.375 C 4.2332056 20.375 3.625 19.766794 3.625 19 L 3.625 10 C 3.6246684 9.5941564 3.8031425 9.2090347 4.1132812 8.9472656 A 0.6250625 0.6250625 0 0 0 4.1171875 8.9453125 L 11.113281 2.9472656 L 11.117188 2.9453125 C 11.631312 2.5142366 12.368688 2.5142366 12.882812 2.9453125 L 19.882812 8.9453125 A 0.6250625 0.6250625 0 0 0 19.886719 8.9472656 C 20.196868 9.2090316 20.375332 9.5941564 20.375 10 L 20.375 12.349609 A 0.625 0.625 0 0 0 21 12.974609 A 0.625 0.625 0 0 0 21.625 12.349609 L 21.625 10 C 21.625632 9.2263733 21.284552 8.4911766 20.693359 7.9921875 L 13.697266 1.9960938 A 0.6250625 0.6250625 0 0 0 13.693359 1.9921875 C 13.206036 1.5808768 12.602904 1.375 12 1.375 z M 18 14.375 A 0.625 0.625 0 0 0 17.375 15 L 17.375 17.375 L 15 17.375 A 0.625 0.625 0 0 0 14.375 18 A 0.625 0.625 0 0 0 15 18.625 L 17.375 18.625 L 17.375 21 A 0.625 0.625 0 0 0 18 21.625 A 0.625 0.625 0 0 0 18.625 21 L 18.625 18.625 L 21 18.625 A 0.625 0.625 0 0 0 21.625 18 A 0.625 0.625 0 0 0 21 17.375 L 18.625 17.375 L 18.625 15 A 0.625 0.625 0 0 0 18 14.375 z " />
</svg>
