<?xml version="1.0" encoding="UTF-8" standalone="no"?>
<svg
   width="24"
   height="24"
   viewBox="0 0 24 24"
   fill="none"
   stroke="currentColor"
   stroke-width="1.25"
   stroke-linecap="round"
   stroke-linejoin="round"
   version="1.1"
   id="svg4"
   sodipodi:docname=".tmp_id-card-lanyard.svg"
   xmlns:inkscape="http://www.inkscape.org/namespaces/inkscape"
   xmlns:sodipodi="http://sodipodi.sourceforge.net/DTD/sodipodi-0.dtd"
   xmlns="http://www.w3.org/2000/svg"
   xmlns:svg="http://www.w3.org/2000/svg">
  <defs
     id="defs4" />
  <sodipodi:namedview
     id="namedview4"
     pagecolor="#ffffff"
     bordercolor="#000000"
     borderopacity="0.25"
     inkscape:showpageshadow="2"
     inkscape:pageopacity="0.0"
     inkscape:pagecheckerboard="0"
     inkscape:deskcolor="#d1d1d1" />
  <path
     id="path1"
     style="baseline-shift:baseline;display:inline;overflow:visible;vector-effect:none;fill:#000000;stroke:none;stroke-linecap:butt;stroke-linejoin:miter;enable-background:accumulate;stop-color:#000000;stop-opacity:1;opacity:1"
     d="M 8.9550781 1.3769531 A 0.625 0.625 0 0 0 8.7207031 1.4414062 A 0.625 0.625 0 0 0 8.4414062 2.2792969 L 8.9882812 3.375 L 7 3.375 C 5.5576554 3.375 4.375 4.5576554 4.375 6 L 4.375 20 C 4.375 21.442345 5.5576554 22.625 7 22.625 L 17 22.625 C 18.442345 22.625 19.625 21.442345 19.625 20 L 19.625 6 C 19.625 4.5576554 18.442345 3.375 17 3.375 L 15.011719 3.375 L 15.558594 2.2792969 A 0.625 0.625 0 0 0 15.279297 1.4414062 A 0.625 0.625 0 0 0 14.441406 1.7207031 L 13.441406 3.7207031 A 0.6250625 0.6250625 0 0 0 14 4.625 L 17 4.625 C 17.766794 4.625 18.375 5.2332056 18.375 6 L 18.375 20 C 18.375 20.637008 17.954756 21.16388 17.373047 21.324219 C 16.856212 19.606763 15.663952 18.430427 14.255859 17.832031 C 15.088574 17.16651 15.625 16.143175 15.625 15 C 15.625 13.005371 13.994629 11.375 12 11.375 C 10.005371 11.375 8.375 13.005371 8.375 15 C 8.375 16.143175 8.9114261 17.16651 9.7441406 17.832031 C 8.3360482 18.430427 7.1437877 19.606763 6.6269531 21.324219 C 6.0452433 21.16388 5.625 20.637008 5.625 20 L 5.625 6 C 5.625 5.2332056 6.2332056 4.625 7 4.625 L 9.6132812 4.625 L 10.988281 7.375 L 10.5 7.375 A 0.625 0.625 0 0 0 9.875 8 A 0.625 0.625 0 0 0 10.5 8.625 L 13.5 8.625 A 0.625 0.625 0 0 0 14.125 8 A 0.625 0.625 0 0 0 13.5 7.375 L 12.386719 7.375 L 10.570312 3.7421875 A 0.625 0.625 0 0 0 10.546875 3.6992188 L 9.5585938 1.7207031 A 0.625 0.625 0 0 0 8.9550781 1.3769531 z M 12 12.625 C 13.319079 12.625 14.375 13.680921 14.375 15 C 14.375 16.291624 13.362592 17.330343 12.082031 17.373047 C 12.054689 17.372655 12.027334 17.373047 12 17.373047 C 11.972666 17.373047 11.945311 17.372655 11.917969 17.373047 C 10.637408 17.330343 9.625 16.291624 9.625 15 C 9.625 13.680921 10.680921 12.625 12 12.625 z M 11.910156 18.623047 C 11.940303 18.623796 11.96968 18.625 12 18.625 C 12.03032 18.625 12.059697 18.623796 12.089844 18.623047 C 13.767054 18.653669 15.39395 19.535859 16.074219 21.375 L 7.9257812 21.375 C 8.6060503 19.535859 10.232946 18.653669 11.910156 18.623047 z " />
</svg>
