<?xml version="1.0" encoding="UTF-8" standalone="no"?>
<svg
   width="24"
   height="24"
   viewBox="0 0 24 24"
   fill="none"
   stroke="currentColor"
   stroke-width="1.25"
   stroke-linecap="round"
   stroke-linejoin="round"
   version="1.1"
   id="svg3"
   sodipodi:docname=".tmp_id-card.svg"
   xmlns:inkscape="http://www.inkscape.org/namespaces/inkscape"
   xmlns:sodipodi="http://sodipodi.sourceforge.net/DTD/sodipodi-0.dtd"
   xmlns="http://www.w3.org/2000/svg"
   xmlns:svg="http://www.w3.org/2000/svg">
  <defs
     id="defs3" />
  <sodipodi:namedview
     id="namedview3"
     pagecolor="#ffffff"
     bordercolor="#000000"
     borderopacity="0.25"
     inkscape:showpageshadow="2"
     inkscape:pageopacity="0.0"
     inkscape:pagecheckerboard="0"
     inkscape:deskcolor="#d1d1d1" />
  <path
     id="path1"
     style="baseline-shift:baseline;display:inline;overflow:visible;vector-effect:none;fill:#000000;stroke:none;stroke-linecap:butt;stroke-linejoin:miter;enable-background:accumulate;stop-color:#000000;stop-opacity:1;opacity:1"
     d="M 4 4.375 C 2.5565608 4.375 1.375 5.5565608 1.375 7 L 1.375 17 C 1.375 18.443439 2.5565608 19.625 4 19.625 L 20 19.625 C 21.443439 19.625 22.625 18.443439 22.625 17 L 22.625 7 C 22.625 5.5565608 21.443439 4.375 20 4.375 L 4 4.375 z M 4 5.625 L 20 5.625 C 20.772561 5.625 21.375 6.2274392 21.375 7 L 21.375 17 C 21.375 17.772561 20.772561 18.375 20 18.375 L 4 18.375 C 3.2274392 18.375 2.625 17.772561 2.625 17 L 2.625 7 C 2.625 6.2274392 3.2274392 5.625 4 5.625 z M 9 8.375 C 7.5576554 8.375 6.375 9.5576554 6.375 11 C 6.375 11.728375 6.6758204 12.390126 7.1601562 12.867188 C 6.4653487 13.271497 5.8875612 13.918893 5.5800781 14.792969 A 0.625 0.625 0 0 0 5.9628906 15.589844 A 0.625 0.625 0 0 0 6.7597656 15.207031 C 7.1290571 14.157255 7.9911718 13.657659 8.8984375 13.623047 C 8.9322215 13.624356 8.9659137 13.625 9 13.625 C 9.0340863 13.625 9.0677785 13.624356 9.1015625 13.623047 C 10.008828 13.657659 10.870943 14.157255 11.240234 15.207031 A 0.625 0.625 0 0 0 12.037109 15.589844 A 0.625 0.625 0 0 0 12.419922 14.792969 C 12.112439 13.918893 11.534651 13.271497 10.839844 12.867188 C 11.32418 12.390126 11.625 11.728375 11.625 11 C 11.625 9.5576554 10.442345 8.375 9 8.375 z M 16 9.375 A 0.625 0.625 0 0 0 15.375 10 A 0.625 0.625 0 0 0 16 10.625 L 18 10.625 A 0.625 0.625 0 0 0 18.625 10 A 0.625 0.625 0 0 0 18 9.375 L 16 9.375 z M 9 9.625 C 9.7667944 9.625 10.375 10.233206 10.375 11 C 10.375 11.736671 9.8138781 12.327805 9.0898438 12.373047 C 9.0599666 12.372302 9.0298582 12.371094 9 12.371094 C 8.9701418 12.371094 8.9400334 12.372302 8.9101562 12.373047 C 8.1861219 12.327805 7.625 11.736671 7.625 11 C 7.625 10.233206 8.2332056 9.625 9 9.625 z M 16 13.375 A 0.625 0.625 0 0 0 15.375 14 A 0.625 0.625 0 0 0 16 14.625 L 18 14.625 A 0.625 0.625 0 0 0 18.625 14 A 0.625 0.625 0 0 0 18 13.375 L 16 13.375 z " />
</svg>
