<?xml version="1.0" encoding="UTF-8" standalone="no"?>
<svg
   width="24"
   height="24"
   viewBox="0 0 24 24"
   fill="none"
   stroke="currentColor"
   stroke-width="1.25"
   stroke-linecap="round"
   stroke-linejoin="round"
   version="1.1"
   id="svg3"
   sodipodi:docname=".tmp_image-down.svg"
   xmlns:inkscape="http://www.inkscape.org/namespaces/inkscape"
   xmlns:sodipodi="http://sodipodi.sourceforge.net/DTD/sodipodi-0.dtd"
   xmlns="http://www.w3.org/2000/svg"
   xmlns:svg="http://www.w3.org/2000/svg">
  <defs
     id="defs3" />
  <sodipodi:namedview
     id="namedview3"
     pagecolor="#ffffff"
     bordercolor="#000000"
     borderopacity="0.25"
     inkscape:showpageshadow="2"
     inkscape:pageopacity="0.0"
     inkscape:pagecheckerboard="0"
     inkscape:deskcolor="#d1d1d1" />
  <path
     id="path1"
     style="baseline-shift:baseline;display:inline;overflow:visible;vector-effect:none;fill:#000000;stroke:none;stroke-linecap:butt;stroke-linejoin:miter;enable-background:accumulate;stop-color:#000000;stop-opacity:1;opacity:1"
     d="M 5 2.375 C 3.5576554 2.375 2.375 3.5576554 2.375 5 L 2.375 19 C 2.375 20.442345 3.5576554 21.625 5 21.625 L 10.300781 21.625 A 0.625 0.625 0 0 0 10.925781 21 A 0.625 0.625 0 0 0 10.300781 20.375 L 7.5078125 20.375 L 15.527344 12.355469 C 16.065589 11.817331 16.919317 11.812982 17.462891 12.345703 L 20.558594 15.441406 A 0.6250625 0.6250625 0 0 0 21.625 15 L 21.625 5 C 21.625 3.5576554 20.442345 2.375 19 2.375 L 5 2.375 z M 5 3.625 L 19 3.625 C 19.766794 3.625 20.375 4.2332056 20.375 5 L 20.375 13.492188 L 18.341797 11.458984 A 0.6250625 0.6250625 0 0 0 18.337891 11.453125 C 17.315059 10.45065 15.657338 10.460054 14.644531 11.472656 L 5.7421875 20.375 L 5 20.375 C 4.2332056 20.375 3.625 19.766794 3.625 19 L 3.625 5 C 3.625 4.2332056 4.2332056 3.625 5 3.625 z M 9 6.375 C 7.5576554 6.375 6.375 7.5576554 6.375 9 C 6.375 10.442345 7.5576554 11.625 9 11.625 C 10.442345 11.625 11.625 10.442345 11.625 9 C 11.625 7.5576554 10.442345 6.375 9 6.375 z M 9 7.625 C 9.7667944 7.625 10.375 8.2332056 10.375 9 C 10.375 9.7667944 9.7667944 10.375 9 10.375 C 8.2332056 10.375 7.625 9.7667944 7.625 9 C 7.625 8.2332056 8.2332056 7.625 9 7.625 z M 17 15.875 A 0.625 0.625 0 0 0 16.375 16.5 L 16.375 20.492188 L 14.441406 18.558594 A 0.625 0.625 0 0 0 13.558594 18.558594 A 0.625 0.625 0 0 0 13.558594 19.441406 L 16.558594 22.441406 A 0.625 0.625 0 0 0 16.619141 22.496094 A 0.6250625 0.6250625 0 0 0 16.623047 22.498047 A 0.625 0.625 0 0 0 16.767578 22.578125 A 0.6250625 0.6250625 0 0 0 16.794922 22.587891 A 0.625 0.625 0 0 0 16.859375 22.607422 A 0.625 0.625 0 0 0 16.972656 22.621094 A 0.6250625 0.6250625 0 0 0 17.050781 22.621094 A 0.625 0.625 0 0 0 17.115234 22.613281 A 0.6250625 0.6250625 0 0 0 17.125 22.611328 A 0.625 0.625 0 0 0 17.183594 22.595703 A 0.6250625 0.6250625 0 0 0 17.296875 22.548828 A 0.625 0.625 0 0 0 17.353516 22.515625 A 0.6250625 0.6250625 0 0 0 17.363281 22.507812 A 0.625 0.625 0 0 0 17.419922 22.460938 A 0.6250625 0.6250625 0 0 0 17.421875 22.458984 A 0.625 0.625 0 0 0 17.441406 22.441406 L 20.441406 19.441406 A 0.625 0.625 0 0 0 20.441406 18.558594 A 0.625 0.625 0 0 0 19.558594 18.558594 L 17.625 20.492188 L 17.625 16.5 A 0.625 0.625 0 0 0 17 15.875 z " />
</svg>
