<?xml version="1.0" encoding="UTF-8" standalone="no"?>
<svg
   width="24"
   height="24"
   viewBox="0 0 24 24"
   fill="none"
   stroke="currentColor"
   stroke-width="1.25"
   stroke-linecap="round"
   stroke-linejoin="round"
   version="1.1"
   id="svg4"
   sodipodi:docname=".tmp_kayak.svg"
   xmlns:inkscape="http://www.inkscape.org/namespaces/inkscape"
   xmlns:sodipodi="http://sodipodi.sourceforge.net/DTD/sodipodi-0.dtd"
   xmlns="http://www.w3.org/2000/svg"
   xmlns:svg="http://www.w3.org/2000/svg">
  <defs
     id="defs4" />
  <sodipodi:namedview
     id="namedview4"
     pagecolor="#ffffff"
     bordercolor="#000000"
     borderopacity="0.25"
     inkscape:showpageshadow="2"
     inkscape:pageopacity="0.0"
     inkscape:pagecheckerboard="0"
     inkscape:deskcolor="#d1d1d1" />
  <path
     id="path1"
     style="baseline-shift:baseline;display:inline;overflow:visible;vector-effect:none;fill:#000000;stroke:none;stroke-linecap:butt;stroke-linejoin:miter;enable-background:accumulate;stop-color:#000000;stop-opacity:1;opacity:1"
     d="M 4.9140625 2.3769531 C 4.7884766 2.3809184 4.6623234 2.3939678 4.5371094 2.4160156 C 4.0362532 2.5042069 3.5485485 2.7405138 3.1445312 3.1445312 C 2.3364965 3.9525659 2.198849 5.0975658 2.5742188 6.0039062 C 2.9495883 6.9102467 3.8571676 7.625 5 7.625 L 6 7.625 C 6.2182355 7.625 6.4281034 7.581774 6.6191406 7.5019531 L 8.3515625 9.234375 C 5.8762764 11.885559 4.1450203 15.321667 2.4453125 20.169922 C 2.2900056 20.580994 2.4171744 21.034362 2.6914062 21.308594 C 2.9656385 21.582826 3.4190064 21.709995 3.8300781 21.554688 C 8.6783326 19.85498 12.11444 18.123723 14.765625 15.648438 L 16.498047 17.380859 C 16.418226 17.571897 16.375 17.781765 16.375 18 L 16.375 19 C 16.375 20.142832 17.089753 21.050412 17.996094 21.425781 C 18.902434 21.801151 20.047434 21.663503 20.855469 20.855469 C 21.663503 20.047434 21.801151 18.902434 21.425781 17.996094 C 21.050412 17.089753 20.142832 16.375 19 16.375 L 18 16.375 C 17.781765 16.375 17.571897 16.418226 17.380859 16.498047 L 15.648438 14.765625 C 18.123723 12.11444 19.85498 8.6783326 21.554688 3.8300781 C 21.556587 3.8247681 21.558647 3.8217183 21.560547 3.8164062 A 0.625 0.625 0 0 0 21.544922 3.7832031 C 21.671811 3.3859454 21.571555 2.9543674 21.308594 2.6914062 C 21.034362 2.417174 20.580994 2.2900056 20.169922 2.4453125 C 15.321667 4.1450203 11.885559 5.8762764 9.234375 8.3515625 L 7.5019531 6.6191406 C 7.581774 6.4281034 7.625 6.2182355 7.625 6 L 7.625 5 C 7.625 3.8571676 6.9102467 2.9495884 6.0039062 2.5742188 C 5.6640286 2.4334551 5.2908202 2.3650572 4.9140625 2.3769531 z M 20.386719 3.3984375 A 0.625 0.625 0 0 0 20.390625 3.4003906 A 0.625 0.625 0 0 0 20.386719 3.4003906 L 20.386719 3.3984375 z M 4.9570312 3.6171875 C 5.1505371 3.6144533 5.3432291 3.6550247 5.5253906 3.7304688 C 6.0111549 3.9316526 6.375 4.3608988 6.375 5 L 6.375 6 C 6.375 6.0928162 6.3444378 6.1762703 6.2929688 6.2402344 A 0.625 0.625 0 0 0 6.265625 6.265625 A 0.625 0.625 0 0 0 6.2402344 6.2929688 C 6.1762703 6.3444378 6.0928162 6.375 6 6.375 L 5 6.375 C 4.3608988 6.375 3.9316527 6.0111549 3.7304688 5.5253906 C 3.5292847 5.0396263 3.5755138 4.4791737 4.0273438 4.0273438 C 4.2532587 3.8014288 4.5062642 3.6779623 4.7636719 3.6347656 C 4.8280238 3.6239665 4.8925293 3.6180989 4.9570312 3.6171875 z M 20.220703 3.7792969 C 18.604929 8.3018793 16.989622 11.478481 14.763672 13.880859 L 10.119141 9.2363281 C 12.521519 7.0103782 15.698121 5.3950708 20.220703 3.7792969 z M 9.2363281 10.119141 L 13.880859 14.763672 C 11.478481 16.989622 8.3018793 18.604929 3.7792969 20.220703 C 5.3950708 15.698121 7.0103782 12.521519 9.2363281 10.119141 z M 18 17.625 L 19 17.625 C 19.639101 17.625 20.068347 17.988845 20.269531 18.474609 C 20.470715 18.960374 20.424486 19.520826 19.972656 19.972656 C 19.520826 20.424486 18.960374 20.470715 18.474609 20.269531 C 17.988845 20.068347 17.625 19.639101 17.625 19 L 17.625 18 C 17.625 17.907184 17.655563 17.82373 17.707031 17.759766 A 0.625 0.625 0 0 0 17.734375 17.734375 A 0.625 0.625 0 0 0 17.759766 17.707031 C 17.82373 17.655563 17.907184 17.625 18 17.625 z " />
</svg>
