<?xml version="1.0" encoding="UTF-8" standalone="no"?>
<svg
   width="24"
   height="24"
   viewBox="0 0 24 24"
   fill="none"
   stroke="currentColor"
   stroke-width="1.25"
   stroke-linecap="round"
   stroke-linejoin="round"
   version="1.1"
   id="svg3"
   sodipodi:docname=".tmp_lamp.svg"
   xmlns:inkscape="http://www.inkscape.org/namespaces/inkscape"
   xmlns:sodipodi="http://sodipodi.sourceforge.net/DTD/sodipodi-0.dtd"
   xmlns="http://www.w3.org/2000/svg"
   xmlns:svg="http://www.w3.org/2000/svg">
  <defs
     id="defs3" />
  <sodipodi:namedview
     id="namedview3"
     pagecolor="#ffffff"
     bordercolor="#000000"
     borderopacity="0.25"
     inkscape:showpageshadow="2"
     inkscape:pageopacity="0.0"
     inkscape:pagecheckerboard="0"
     inkscape:deskcolor="#d1d1d1" />
  <path
     id="path1"
     style="baseline-shift:baseline;display:inline;overflow:visible;vector-effect:none;fill:#000000;stroke:none;stroke-linecap:butt;stroke-linejoin:miter;enable-background:accumulate;stop-color:#000000;stop-opacity:1;opacity:1"
     d="M 9 1.375 C 7.9423804 1.3749118 6.9853086 2.0141397 6.578125 2.9902344 A 0.6250625 0.6250625 0 0 0 6.5761719 2.9902344 L 3.5 10.375 C 3.0619558 11.425073 3.8622229 12.625095 5 12.625 L 11.375 12.625 L 11.375 17.375 L 10 17.375 C 8.5576554 17.375 7.375 18.557655 7.375 20 L 7.375 21 C 7.375 21.89006 8.1099402 22.625 9 22.625 L 15 22.625 C 15.89006 22.625 16.625 21.89006 16.625 21 L 16.625 20 C 16.625 18.557655 15.442345 17.375 14 17.375 L 12.625 17.375 L 12.625 12.625 L 19 12.625 C 20.137777 12.625095 20.938044 11.425073 20.5 10.375 L 17.423828 2.9902344 C 17.017052 2.0136277 16.057935 1.3751322 15 1.375 L 9 1.375 z M 9 2.625 L 15 2.625 C 15.556868 2.6250696 16.055416 2.9566444 16.269531 3.4707031 L 19.345703 10.855469 C 19.457279 11.122938 19.289808 11.375024 19 11.375 L 5 11.375 C 4.7101915 11.375024 4.5427206 11.122938 4.6542969 10.855469 L 7.7304688 3.4707031 C 7.9447977 2.9569167 8.4433013 2.6249536 9 2.625 z M 10 18.625 L 12 18.625 L 14 18.625 C 14.766794 18.625 15.375 19.233206 15.375 20 L 15.375 21 C 15.375 21.21451 15.21451 21.375 15 21.375 L 9 21.375 C 8.7854903 21.375 8.625 21.21451 8.625 21 L 8.625 20 C 8.625 19.233206 9.2332056 18.625 10 18.625 z " />
</svg>
