<?xml version="1.0" encoding="UTF-8" standalone="no"?>
<svg
   width="24"
   height="24"
   viewBox="0 0 24 24"
   fill="none"
   stroke="currentColor"
   stroke-width="1.25"
   stroke-linecap="round"
   stroke-linejoin="round"
   version="1.1"
   id="svg7"
   sodipodi:docname=".tmp_locate-off.svg"
   xmlns:inkscape="http://www.inkscape.org/namespaces/inkscape"
   xmlns:sodipodi="http://sodipodi.sourceforge.net/DTD/sodipodi-0.dtd"
   xmlns="http://www.w3.org/2000/svg"
   xmlns:svg="http://www.w3.org/2000/svg">
  <defs
     id="defs7" />
  <sodipodi:namedview
     id="namedview7"
     pagecolor="#ffffff"
     bordercolor="#000000"
     borderopacity="0.25"
     inkscape:showpageshadow="2"
     inkscape:pageopacity="0.0"
     inkscape:pagecheckerboard="0"
     inkscape:deskcolor="#d1d1d1" />
  <path
     id="path1"
     style="baseline-shift:baseline;display:inline;overflow:visible;vector-effect:none;fill:#000000;stroke:none;stroke-linecap:butt;stroke-linejoin:miter;enable-background:accumulate;stop-color:#000000;stop-opacity:1;opacity:1"
     d="M 12 1.375 A 0.625 0.625 0 0 0 11.375 2 L 11.375 4.3984375 C 11.13452 4.4186857 10.892165 4.4502409 10.648438 4.4941406 A 0.625 0.625 0 0 0 10.144531 5.2207031 A 0.625 0.625 0 0 0 10.871094 5.7246094 C 11.227202 5.6604679 11.579584 5.6270299 11.925781 5.6210938 A 0.625 0.625 0 0 0 12 5.625 A 0.625 0.625 0 0 0 12.080078 5.6191406 C 15.537225 5.6433468 18.356652 8.462775 18.380859 11.919922 A 0.625 0.625 0 0 0 18.375 12 A 0.625 0.625 0 0 0 18.378906 12.074219 C 18.37297 12.420415 18.339532 12.772799 18.275391 13.128906 A 0.625 0.625 0 0 0 18.779297 13.855469 A 0.625 0.625 0 0 0 19.505859 13.351562 C 19.549759 13.107834 19.581314 12.86548 19.601562 12.625 L 22 12.625 A 0.625 0.625 0 0 0 22.625 12 A 0.625 0.625 0 0 0 22 11.375 L 19.603516 11.375 C 19.302725 7.6892555 16.310744 4.6972753 12.625 4.3964844 L 12.625 2 A 0.625 0.625 0 0 0 12 1.375 z M 2 1.3769531 A 0.625 0.625 0 0 0 1.5585938 1.5585938 A 0.625 0.625 0 0 0 1.5585938 2.4414062 L 6.1835938 7.0664062 C 5.1224209 8.3157919 4.5301761 9.82988 4.4042969 11.375 L 2 11.375 A 0.625 0.625 0 0 0 1.375 12 A 0.625 0.625 0 0 0 2 12.625 L 4.4042969 12.625 C 4.5460407 14.364851 5.2797811 16.064937 6.6074219 17.392578 C 7.9350626 18.720219 9.6351494 19.453959 11.375 19.595703 L 11.375 22 A 0.625 0.625 0 0 0 12 22.625 A 0.625 0.625 0 0 0 12.625 22 L 12.625 19.595703 C 14.17012 19.469824 15.684208 18.877579 16.933594 17.816406 L 21.558594 22.441406 A 0.625 0.625 0 0 0 22.441406 22.441406 A 0.625 0.625 0 0 0 22.441406 21.558594 L 17.421875 16.539062 A 0.625 0.625 0 0 0 17.392578 16.507812 L 17.361328 16.478516 L 7.5214844 6.6386719 A 0.625 0.625 0 0 0 7.4921875 6.6074219 L 7.4609375 6.578125 L 2.4414062 1.5585938 A 0.625 0.625 0 0 0 2 1.3769531 z M 7.0722656 7.9550781 L 16.044922 16.927734 C 14.88919 17.87987 13.481229 18.363935 12.068359 18.378906 A 0.625 0.625 0 0 0 12 18.375 A 0.625 0.625 0 0 0 11.931641 18.378906 C 10.324121 18.361872 8.7223975 17.738023 7.4921875 16.507812 C 6.261978 15.277603 5.6381287 13.675878 5.6210938 12.068359 A 0.625 0.625 0 0 0 5.625 12 A 0.625 0.625 0 0 0 5.6210938 11.931641 C 5.6360659 10.518772 6.1201306 9.1108094 7.0722656 7.9550781 z " />
</svg>
