<?xml version="1.0" encoding="UTF-8" standalone="no"?>
<svg
   width="24"
   height="24"
   viewBox="0 0 24 24"
   fill="none"
   stroke="currentColor"
   stroke-width="1.25"
   stroke-linecap="round"
   stroke-linejoin="round"
   version="1.1"
   id="svg5"
   sodipodi:docname=".tmp_locate-fixed.svg"
   xmlns:inkscape="http://www.inkscape.org/namespaces/inkscape"
   xmlns:sodipodi="http://sodipodi.sourceforge.net/DTD/sodipodi-0.dtd"
   xmlns="http://www.w3.org/2000/svg"
   xmlns:svg="http://www.w3.org/2000/svg">
  <defs
     id="defs5" />
  <sodipodi:namedview
     id="namedview5"
     pagecolor="#ffffff"
     bordercolor="#000000"
     borderopacity="0.25"
     inkscape:showpageshadow="2"
     inkscape:pageopacity="0.0"
     inkscape:pagecheckerboard="0"
     inkscape:deskcolor="#d1d1d1" />
  <path
     id="line1"
     style="baseline-shift:baseline;display:inline;overflow:visible;vector-effect:none;fill:#000000;stroke:none;stroke-linecap:butt;stroke-linejoin:miter;enable-background:accumulate;stop-color:#000000;stop-opacity:1;opacity:1"
     d="M 12 1.375 A 0.625 0.625 0 0 0 11.375 2 L 11.375 4.4003906 C 7.6684807 4.7026336 4.7026336 7.6684807 4.4003906 11.375 L 2 11.375 A 0.625 0.625 0 0 0 1.375 12 A 0.625 0.625 0 0 0 2 12.625 L 4.4003906 12.625 C 4.7026336 16.331519 7.6684807 19.297366 11.375 19.599609 L 11.375 22 A 0.625 0.625 0 0 0 12 22.625 A 0.625 0.625 0 0 0 12.625 22 L 12.625 19.599609 C 16.331519 19.297366 19.297366 16.331519 19.599609 12.625 L 22 12.625 A 0.625 0.625 0 0 0 22.625 12 A 0.625 0.625 0 0 0 22 11.375 L 19.599609 11.375 C 19.297366 7.6684807 16.331519 4.7026336 12.625 4.4003906 L 12.625 2 A 0.625 0.625 0 0 0 12 1.375 z M 12 5.625 C 15.528218 5.625 18.375 8.4717818 18.375 12 C 18.375 15.528218 15.528218 18.375 12 18.375 C 8.4717818 18.375 5.625 15.528218 5.625 12 C 5.625 8.4717818 8.4717818 5.625 12 5.625 z M 12 8.375 C 10.005371 8.375 8.375 10.005371 8.375 12 C 8.375 13.994629 10.005371 15.625 12 15.625 C 13.994629 15.625 15.625 13.994629 15.625 12 C 15.625 10.005371 13.994629 8.375 12 8.375 z M 12 9.625 C 13.319079 9.625 14.375 10.680921 14.375 12 C 14.375 13.319079 13.319079 14.375 12 14.375 C 10.680921 14.375 9.625 13.319079 9.625 12 C 9.625 10.680921 10.680921 9.625 12 9.625 z " />
</svg>
