<?xml version="1.0" encoding="UTF-8" standalone="no"?>
<svg
   width="24"
   height="24"
   viewBox="0 0 24 24"
   fill="none"
   stroke="currentColor"
   stroke-width="1.25"
   stroke-linecap="round"
   stroke-linejoin="round"
   version="1.1"
   id="svg3"
   sodipodi:docname=".tmp_map-pin-plus-inside.svg"
   xmlns:inkscape="http://www.inkscape.org/namespaces/inkscape"
   xmlns:sodipodi="http://sodipodi.sourceforge.net/DTD/sodipodi-0.dtd"
   xmlns="http://www.w3.org/2000/svg"
   xmlns:svg="http://www.w3.org/2000/svg">
  <defs
     id="defs3" />
  <sodipodi:namedview
     id="namedview3"
     pagecolor="#ffffff"
     bordercolor="#000000"
     borderopacity="0.25"
     inkscape:showpageshadow="2"
     inkscape:pageopacity="0.0"
     inkscape:pagecheckerboard="0"
     inkscape:deskcolor="#d1d1d1" />
  <path
     id="path1"
     style="baseline-shift:baseline;display:inline;overflow:visible;vector-effect:none;fill:#000000;stroke:none;stroke-linecap:butt;stroke-linejoin:miter;enable-background:accumulate;stop-color:#000000;stop-opacity:1;opacity:1"
     d="M 12 1.375 C 7.2439476 1.375 3.375 5.2439442 3.375 10 C 3.375 12.727615 4.8449411 15.369144 6.5039062 17.548828 C 8.1628716 19.728512 10.039962 21.45098 10.990234 22.271484 A 0.6250625 0.6250625 0 0 0 11.023438 22.298828 C 11.599635 22.732103 12.400365 22.732103 12.976562 22.298828 A 0.6250625 0.6250625 0 0 0 13.009766 22.271484 C 13.960045 21.45098 15.837129 19.728512 17.496094 17.548828 C 19.155059 15.369144 20.625 12.727615 20.625 10 C 20.625 5.2439442 16.756052 1.375 12 1.375 z M 12 2.625 C 16.080503 2.625 19.375 5.9194939 19.375 10 C 19.375 12.265385 18.075535 14.720949 16.5 16.791016 C 14.933865 18.848732 13.133839 20.507435 12.21875 21.298828 C 12.085471 21.395638 11.914529 21.395638 11.78125 21.298828 C 10.866161 20.507435 9.0661353 18.848732 7.5 16.791016 C 5.9244652 14.720949 4.625 12.265385 4.625 10 C 4.625 5.9194939 7.9194966 2.625 12 2.625 z M 12 6.375 A 0.625 0.625 0 0 0 11.375 7 L 11.375 9.375 L 9 9.375 A 0.625 0.625 0 0 0 8.375 10 A 0.625 0.625 0 0 0 9 10.625 L 11.375 10.625 L 11.375 13 A 0.625 0.625 0 0 0 12 13.625 A 0.625 0.625 0 0 0 12.625 13 L 12.625 10.625 L 15 10.625 A 0.625 0.625 0 0 0 15.625 10 A 0.625 0.625 0 0 0 15 9.375 L 12.625 9.375 L 12.625 7 A 0.625 0.625 0 0 0 12 6.375 z " />
</svg>
