<?xml version="1.0" encoding="UTF-8" standalone="no"?>
<svg
   width="24"
   height="24"
   viewBox="0 0 24 24"
   fill="none"
   stroke="currentColor"
   stroke-width="1.25"
   stroke-linecap="round"
   stroke-linejoin="round"
   version="1.1"
   id="svg5"
   sodipodi:docname=".tmp_map-pin-off.svg"
   xmlns:inkscape="http://www.inkscape.org/namespaces/inkscape"
   xmlns:sodipodi="http://sodipodi.sourceforge.net/DTD/sodipodi-0.dtd"
   xmlns="http://www.w3.org/2000/svg"
   xmlns:svg="http://www.w3.org/2000/svg">
  <defs
     id="defs5" />
  <sodipodi:namedview
     id="namedview5"
     pagecolor="#ffffff"
     bordercolor="#000000"
     borderopacity="0.25"
     inkscape:showpageshadow="2"
     inkscape:pageopacity="0.0"
     inkscape:pagecheckerboard="0"
     inkscape:deskcolor="#d1d1d1" />
  <path
     id="path1"
     style="baseline-shift:baseline;display:inline;overflow:visible;vector-effect:none;fill:#000000;stroke:none;stroke-linecap:butt;stroke-linejoin:miter;enable-background:accumulate;stop-color:#000000;stop-opacity:1;opacity:1"
     d="M 2 1.3769531 A 0.625 0.625 0 0 0 1.5585938 1.5585938 A 0.625 0.625 0 0 0 1.5585938 2.4414062 L 4.6308594 5.5136719 C 3.8103014 6.8622366 3.3748862 8.4147838 3.375 10 C 3.375 12.727615 4.8449411 15.369144 6.5039062 17.548828 C 8.1628716 19.728512 10.039962 21.45098 10.990234 22.271484 A 0.6250625 0.6250625 0 0 0 11.023438 22.298828 C 11.599635 22.732103 12.400365 22.732103 12.976562 22.298828 A 0.6250625 0.6250625 0 0 0 13.009766 22.271484 C 13.891035 21.510642 15.568813 19.97197 17.130859 18.013672 L 21.558594 22.441406 A 0.625 0.625 0 0 0 22.441406 22.441406 A 0.625 0.625 0 0 0 22.441406 21.558594 L 17.53125 16.648438 A 0.625 0.625 0 0 0 17.494141 16.611328 L 13.337891 12.455078 A 0.625 0.625 0 0 0 13.285156 12.402344 L 9.5976562 8.7148438 A 0.625 0.625 0 0 0 9.5449219 8.6621094 L 5.90625 5.0234375 A 0.625 0.625 0 0 0 5.8417969 4.9589844 L 2.4414062 1.5585938 A 0.625 0.625 0 0 0 2 1.3769531 z M 11.464844 1.3867188 C 10.374528 1.452695 9.2694686 1.7324884 8.1992188 2.2578125 A 0.625 0.625 0 0 0 7.9140625 3.09375 A 0.625 0.625 0 0 0 8.75 3.3789062 C 13.673511 0.9622381 19.375322 4.5153632 19.375 10 C 19.375 11.073814 19.092304 12.186687 18.617188 13.285156 A 0.625 0.625 0 0 0 18.941406 14.107422 A 0.625 0.625 0 0 0 19.763672 13.78125 C 20.288555 12.56772 20.625 11.292186 20.625 10 C 20.62528 5.2311003 16.846244 1.6840959 12.548828 1.390625 C 12.19071 1.3661691 11.828282 1.3647267 11.464844 1.3867188 z M 5.546875 6.4296875 L 8.4414062 9.3242188 C 7.968448 11.794349 10.205651 14.031552 12.675781 13.558594 L 16.242188 17.125 C 14.74118 19.027034 13.083562 20.550999 12.21875 21.298828 C 12.085471 21.395638 11.914529 21.395638 11.78125 21.298828 C 10.866168 20.507435 9.0661353 18.848732 7.5 16.791016 C 5.9244652 14.720949 4.625 12.265385 4.625 10 C 4.62491 8.7468529 4.9441848 7.5189836 5.546875 6.4296875 z M 12.744141 6.4648438 A 0.625 0.625 0 0 0 12.144531 6.9355469 A 0.625 0.625 0 0 0 12.59375 7.6953125 C 13.43407 7.9109916 14.089007 8.5659296 14.304688 9.40625 A 0.625 0.625 0 0 0 15.064453 9.8554688 A 0.625 0.625 0 0 0 15.515625 9.09375 C 15.187125 7.8138626 14.186137 6.8128746 12.90625 6.484375 A 0.625 0.625 0 0 0 12.744141 6.4648438 z M 9.6777344 10.560547 L 11.439453 12.322266 C 10.566856 12.122215 9.877785 11.433144 9.6777344 10.560547 z " />
</svg>
