<?xml version="1.0" encoding="UTF-8" standalone="no"?>
<svg
   width="24"
   height="24"
   viewBox="0 0 24 24"
   fill="none"
   stroke="currentColor"
   stroke-width="1.25"
   stroke-linecap="round"
   stroke-linejoin="round"
   version="1.1"
   id="svg3"
   sodipodi:docname=".tmp_map.svg"
   xmlns:inkscape="http://www.inkscape.org/namespaces/inkscape"
   xmlns:sodipodi="http://sodipodi.sourceforge.net/DTD/sodipodi-0.dtd"
   xmlns="http://www.w3.org/2000/svg"
   xmlns:svg="http://www.w3.org/2000/svg">
  <defs
     id="defs3" />
  <sodipodi:namedview
     id="namedview3"
     pagecolor="#ffffff"
     bordercolor="#000000"
     borderopacity="0.25"
     inkscape:showpageshadow="2"
     inkscape:pageopacity="0.0"
     inkscape:pagecheckerboard="0"
     inkscape:deskcolor="#d1d1d1" />
  <path
     id="path1"
     style="baseline-shift:baseline;display:inline;overflow:visible;vector-effect:none;fill:#000000;stroke:none;stroke-linecap:butt;stroke-linejoin:miter;enable-background:accumulate;stop-color:#000000;stop-opacity:1;opacity:1"
     d="M 9 2.6113281 C 8.597866 2.6113281 8.195279 2.7042281 7.8261719 2.8886719 L 3.2734375 5.1640625 C 2.7241815 5.4385265 2.3753279 6.0031741 2.375 6.6171875 L 2.375 19.380859 C 2.37348 20.563124 3.6686189 21.366551 4.7265625 20.837891 L 8.3847656 19.007812 C 8.7721945 18.814214 9.2278055 18.814214 9.6152344 19.007812 L 13.826172 21.113281 C 14.564386 21.482168 15.435614 21.482168 16.173828 21.113281 L 20.726562 18.835938 C 21.275818 18.561474 21.624672 17.996827 21.625 17.382812 L 21.625 4.6191406 C 21.6267 3.4364764 20.331371 2.6354097 19.273438 3.1640625 L 15.615234 4.9941406 C 15.227805 5.1877394 14.772195 5.1877394 14.384766 4.9941406 L 10.173828 2.8886719 C 9.8047211 2.7042285 9.402134 2.6113281 9 2.6113281 z M 8.375 4.0117188 L 8.375 17.6875 C 8.1868754 17.733524 8.0027198 17.800451 7.8261719 17.888672 L 4.1679688 19.71875 C 3.8947787 19.855265 3.6242464 19.688211 3.625 19.382812 A 0.6250625 0.6250625 0 0 0 3.625 19.380859 L 3.625 6.6191406 L 3.625 6.6171875 C 3.6257388 6.4746039 3.7043685 6.3469963 3.8320312 6.2832031 L 8.375 4.0117188 z M 9.625 4.0117188 L 13.826172 6.1113281 C 14.00272 6.1995494 14.186875 6.2664759 14.375 6.3125 L 14.375 19.988281 L 10.173828 17.888672 C 9.9972803 17.800451 9.8131245 17.733524 9.625 17.6875 L 9.625 4.0117188 z M 20.03125 4.2324219 C 20.222454 4.2361965 20.375336 4.3883081 20.375 4.6171875 A 0.6250625 0.6250625 0 0 0 20.375 4.6191406 L 20.375 17.382812 C 20.374923 17.526131 20.29617 17.654687 20.167969 17.71875 L 15.625 19.990234 L 15.625 6.3125 C 15.813125 6.2664759 15.99728 6.1995494 16.173828 6.1113281 L 19.832031 4.28125 C 19.900278 4.2471469 19.967515 4.2311637 20.03125 4.2324219 z " />
</svg>
