<?xml version="1.0" encoding="UTF-8" standalone="no"?>
<svg
   width="24"
   height="24"
   viewBox="0 0 24 24"
   fill="none"
   stroke="currentColor"
   stroke-width="1.25"
   stroke-linecap="round"
   stroke-linejoin="round"
   version="1.1"
   id="svg2"
   sodipodi:docname=".tmp_message-circle-heart.svg"
   xmlns:inkscape="http://www.inkscape.org/namespaces/inkscape"
   xmlns:sodipodi="http://sodipodi.sourceforge.net/DTD/sodipodi-0.dtd"
   xmlns="http://www.w3.org/2000/svg"
   xmlns:svg="http://www.w3.org/2000/svg">
  <defs
     id="defs2" />
  <sodipodi:namedview
     id="namedview2"
     pagecolor="#ffffff"
     bordercolor="#000000"
     borderopacity="0.25"
     inkscape:showpageshadow="2"
     inkscape:pageopacity="0.0"
     inkscape:pagecheckerboard="0"
     inkscape:deskcolor="#d1d1d1" />
  <path
     id="path1"
     style="baseline-shift:baseline;display:inline;overflow:visible;vector-effect:none;fill:#000000;stroke:none;stroke-linecap:butt;stroke-linejoin:miter;enable-background:accumulate;stop-color:#000000;stop-opacity:1;opacity:1"
     d="M 12.507812 1.3203125 C 10.101157 1.2244918 7.7399914 1.9884903 5.8242188 3.3554688 C 2.0093626 6.0775172 -0.10306312 11.247114 2.4101562 16.544922 A 0.625 0.625 0 0 0 2.4101562 16.572266 C 2.5102903 16.82486 2.5334163 17.10161 2.4765625 17.367188 L 1.4257812 20.607422 A 0.6250625 0.6250625 0 0 0 1.4082031 20.673828 C 1.1702908 21.830577 2.2765177 22.873233 3.4179688 22.570312 A 0.6250625 0.6250625 0 0 0 3.4316406 22.566406 L 6.796875 21.582031 C 7.0479099 21.533361 7.3077403 21.553741 7.546875 21.644531 C 12.884539 24.112535 18.040973 21.924584 20.720703 18.070312 C 23.407653 14.205657 23.661418 8.5889807 19.464844 4.4433594 C 17.366557 2.3705487 14.914466 1.4161332 12.507812 1.3203125 z M 12.427734 2.5390625 C 14.537658 2.6162485 16.694356 3.4653684 18.585938 5.3339844 C 22.369104 9.0712162 22.084533 13.918183 19.693359 17.357422 C 17.302185 20.796661 12.860347 22.748407 8.0332031 20.494141 A 0.6250625 0.6250625 0 0 0 7.9902344 20.476562 C 7.5302831 20.301939 7.031412 20.259747 6.5488281 20.355469 A 0.6250625 0.6250625 0 0 0 6.4941406 20.369141 L 3.0976562 21.363281 C 2.8051972 21.440891 2.5795516 21.223055 2.6367188 20.927734 L 3.6796875 17.701172 A 0.6250625 0.6250625 0 0 0 3.6972656 17.642578 C 3.809833 17.131198 3.7652326 16.598098 3.5722656 16.111328 A 0.625 0.625 0 0 0 3.5449219 16.099609 A 0.625 0.625 0 0 0 3.5546875 16.070312 C 1.2416205 11.271067 3.1410073 6.8060535 6.5507812 4.3730469 C 8.2556682 3.1565436 10.317812 2.461877 12.427734 2.5390625 z M 10.001953 7.328125 C 9.9038886 7.3262088 9.8059089 7.3291958 9.7089844 7.3378906 C 8.8091969 7.4186086 7.9966139 7.8511726 7.3925781 8.4746094 C 6.7885423 9.0980461 6.3823191 9.9242828 6.3300781 10.826172 C 6.2778371 11.728061 6.6053857 12.694868 7.3769531 13.501953 L 7.375 13.501953 L 10.822266 17.121094 C 11.456494 17.789627 12.542584 17.788752 13.177734 17.121094 L 16.623047 13.503906 L 16.625 13.501953 C 17.271606 12.824891 17.631838 11.922616 17.628906 10.986328 C 17.624504 9.4442985 16.689479 8.2226679 15.476562 7.6835938 C 14.411573 7.2102655 13.131771 7.3664949 12.050781 8.0800781 C 11.396888 7.6106074 10.688405 7.3415381 10.001953 7.328125 z M 10.033203 8.5742188 C 10.534678 8.5773182 11.055626 8.7561976 11.582031 9.2285156 A 0.6250625 0.6250625 0 0 0 12.417969 9.2285156 C 13.198875 8.527524 14.163611 8.4683324 14.96875 8.8261719 C 15.773889 9.1840113 16.375942 9.9408565 16.378906 10.990234 C 16.380806 11.604616 16.145367 12.19468 15.720703 12.638672 A 0.6250625 0.6250625 0 0 0 15.71875 12.640625 L 12.271484 16.259766 C 12.117561 16.421567 11.882216 16.421779 11.728516 16.259766 L 8.28125 12.638672 A 0.6250625 0.6250625 0 0 0 8.2792969 12.638672 C 7.7207586 12.054426 7.5452202 11.466507 7.578125 10.898438 C 7.6110298 10.330367 7.8776938 9.7703473 8.2910156 9.34375 C 8.7043375 8.9171527 9.253567 8.6348256 9.8203125 8.5839844 C 9.8911557 8.5776292 9.9615639 8.573776 10.033203 8.5742188 z " />
</svg>
