<?xml version="1.0" encoding="UTF-8" standalone="no"?>
<svg
   width="24"
   height="24"
   viewBox="0 0 24 24"
   fill="none"
   stroke="currentColor"
   stroke-width="1.25"
   stroke-linecap="round"
   stroke-linejoin="round"
   version="1.1"
   id="svg2"
   sodipodi:docname=".tmp_mic.svg"
   xmlns:inkscape="http://www.inkscape.org/namespaces/inkscape"
   xmlns:sodipodi="http://sodipodi.sourceforge.net/DTD/sodipodi-0.dtd"
   xmlns="http://www.w3.org/2000/svg"
   xmlns:svg="http://www.w3.org/2000/svg">
  <defs
     id="defs2" />
  <sodipodi:namedview
     id="namedview2"
     pagecolor="#ffffff"
     bordercolor="#000000"
     borderopacity="0.25"
     inkscape:showpageshadow="2"
     inkscape:pageopacity="0.0"
     inkscape:pagecheckerboard="0"
     inkscape:deskcolor="#d1d1d1" />
  <path
     id="path1"
     style="baseline-shift:baseline;display:inline;overflow:visible;vector-effect:none;fill:#000000;stroke:none;stroke-linecap:butt;stroke-linejoin:miter;enable-background:accumulate;stop-color:#000000;stop-opacity:1;opacity:1"
     d="M 12 1.375 C 10.002561 1.375 8.375 3.0025608 8.375 5 L 8.375 12 C 8.375 13.997439 10.002561 15.625 12 15.625 C 13.997439 15.625 15.625 13.997439 15.625 12 L 15.625 5 C 15.625 3.0025608 13.997439 1.375 12 1.375 z M 12 2.625 C 13.326561 2.625 14.375 3.6734392 14.375 5 L 14.375 12 C 14.375 13.326561 13.326561 14.375 12 14.375 C 10.673439 14.375 9.625 13.326561 9.625 12 L 9.625 5 C 9.625 3.6734392 10.673439 2.625 12 2.625 z M 5 9.375 A 0.625 0.625 0 0 0 4.375 10 L 4.375 12 C 4.375 15.993367 7.4623289 19.280556 11.375 19.599609 L 11.375 22 A 0.625 0.625 0 0 0 12 22.625 A 0.625 0.625 0 0 0 12.625 22 L 12.625 19.599609 C 16.537671 19.280556 19.625 15.993367 19.625 12 L 19.625 10 A 0.625 0.625 0 0 0 19 9.375 A 0.625 0.625 0 0 0 18.375 10 L 18.375 12 C 18.375 15.528221 15.528219 18.375 12 18.375 C 8.4717813 18.375 5.625 15.528221 5.625 12 L 5.625 10 A 0.625 0.625 0 0 0 5 9.375 z " />
</svg>
