<?xml version="1.0" encoding="UTF-8" standalone="no"?>
<svg
   width="24"
   height="24"
   viewBox="0 0 24 24"
   fill="none"
   stroke="currentColor"
   stroke-width="1.25"
   stroke-linecap="round"
   stroke-linejoin="round"
   version="1.1"
   id="svg4"
   sodipodi:docname=".tmp_monitor-up.svg"
   xmlns:inkscape="http://www.inkscape.org/namespaces/inkscape"
   xmlns:sodipodi="http://sodipodi.sourceforge.net/DTD/sodipodi-0.dtd"
   xmlns="http://www.w3.org/2000/svg"
   xmlns:svg="http://www.w3.org/2000/svg">
  <defs
     id="defs4" />
  <sodipodi:namedview
     id="namedview4"
     pagecolor="#ffffff"
     bordercolor="#000000"
     borderopacity="0.25"
     inkscape:showpageshadow="2"
     inkscape:pageopacity="0.0"
     inkscape:pagecheckerboard="0"
     inkscape:deskcolor="#d1d1d1" />
  <path
     id="path1"
     style="baseline-shift:baseline;display:inline;overflow:visible;vector-effect:none;fill:#000000;stroke:none;stroke-linecap:butt;stroke-linejoin:miter;enable-background:accumulate;stop-color:#000000;stop-opacity:1;opacity:1"
     d="M 4 2.375 C 2.5565608 2.375 1.375 3.5565608 1.375 5 L 1.375 15 C 1.375 16.443439 2.5565608 17.625 4 17.625 L 11.375 17.625 L 11.375 20.375 L 8 20.375 A 0.625 0.625 0 0 0 7.375 21 A 0.625 0.625 0 0 0 8 21.625 L 12 21.625 L 16 21.625 A 0.625 0.625 0 0 0 16.625 21 A 0.625 0.625 0 0 0 16 20.375 L 12.625 20.375 L 12.625 17.625 L 20 17.625 C 21.443439 17.625 22.625 16.443439 22.625 15 L 22.625 5 C 22.625 3.5565608 21.443439 2.375 20 2.375 L 4 2.375 z M 4 3.625 L 20 3.625 C 20.772561 3.625 21.375 4.2274392 21.375 5 L 21.375 15 C 21.375 15.772561 20.772561 16.375 20 16.375 L 4 16.375 C 3.2274392 16.375 2.625 15.772561 2.625 15 L 2.625 5 C 2.625 4.2274392 3.2274392 3.625 4 3.625 z M 12 6.375 A 0.625 0.625 0 0 0 11.914062 6.3808594 A 0.6250625 0.6250625 0 0 0 11.837891 6.3964844 A 0.625 0.625 0 0 0 11.691406 6.4570312 A 0.6250625 0.6250625 0 0 0 11.685547 6.4609375 A 0.625 0.625 0 0 0 11.642578 6.4882812 A 0.6250625 0.6250625 0 0 0 11.611328 6.5117188 A 0.625 0.625 0 0 0 11.568359 6.5488281 A 0.6250625 0.6250625 0 0 0 11.558594 6.5585938 A 0.625 0.625 0 0 0 11.537109 6.5800781 L 8.5585938 9.5585938 A 0.625 0.625 0 0 0 8.5585938 10.441406 A 0.625 0.625 0 0 0 9.4414062 10.441406 L 11.375 8.5078125 L 11.375 13 A 0.625 0.625 0 0 0 12 13.625 A 0.625 0.625 0 0 0 12.625 13 L 12.625 8.5078125 L 14.558594 10.441406 A 0.625 0.625 0 0 0 15.441406 10.441406 A 0.625 0.625 0 0 0 15.441406 9.5585938 L 12.462891 6.5800781 A 0.625 0.625 0 0 0 12.3125 6.4589844 A 0.625 0.625 0 0 0 12.162109 6.3964844 A 0.6250625 0.6250625 0 0 0 12.085938 6.3808594 A 0.625 0.625 0 0 0 12 6.375 z " />
</svg>
