<?xml version="1.0" encoding="UTF-8" standalone="no"?>
<svg
   width="24"
   height="24"
   viewBox="0 0 24 24"
   fill="none"
   stroke="currentColor"
   stroke-width="1.25"
   stroke-linecap="round"
   stroke-linejoin="round"
   version="1.1"
   id="svg3"
   sodipodi:docname=".tmp_monitor-speaker.svg"
   xmlns:inkscape="http://www.inkscape.org/namespaces/inkscape"
   xmlns:sodipodi="http://sodipodi.sourceforge.net/DTD/sodipodi-0.dtd"
   xmlns="http://www.w3.org/2000/svg"
   xmlns:svg="http://www.w3.org/2000/svg">
  <defs
     id="defs3" />
  <sodipodi:namedview
     id="namedview3"
     pagecolor="#ffffff"
     bordercolor="#000000"
     borderopacity="0.25"
     inkscape:showpageshadow="2"
     inkscape:pageopacity="0.0"
     inkscape:pagecheckerboard="0"
     inkscape:deskcolor="#d1d1d1" />
  <path
     id="path1"
     style="baseline-shift:baseline;display:inline;overflow:visible;vector-effect:none;fill:#000000;stroke:none;stroke-linecap:butt;stroke-linejoin:miter;enable-background:accumulate;stop-color:#000000;stop-opacity:1;opacity:1"
     d="M 14 3.375 C 12.556561 3.375 11.375 4.5565608 11.375 6 L 11.375 18 C 11.375 19.443439 12.556561 20.625 14 20.625 L 20 20.625 C 21.443439 20.625 22.625 19.443439 22.625 18 L 22.625 6 C 22.625 4.5565608 21.443439 3.375 20 3.375 L 14 3.375 z M 14 4.625 L 20 4.625 C 20.772561 4.625 21.375 5.2274392 21.375 6 L 21.375 18 C 21.375 18.772561 20.772561 19.375 20 19.375 L 14 19.375 C 13.227439 19.375 12.625 18.772561 12.625 18 L 12.625 6 C 12.625 5.2274392 13.227439 4.625 14 4.625 z M 4 5.375 C 2.5576554 5.375 1.375 6.5576554 1.375 8 L 1.375 14 C 1.375 15.442345 2.5576554 16.625 4 16.625 L 8 16.625 A 0.625 0.625 0 0 0 8.625 16 A 0.625 0.625 0 0 0 8 15.375 L 4 15.375 C 3.2332056 15.375 2.625 14.766794 2.625 14 L 2.625 8 C 2.625 7.2332056 3.2332056 6.625 4 6.625 L 8 6.625 A 0.625 0.625 0 0 0 8.625 6 A 0.625 0.625 0 0 0 8 5.375 L 4 5.375 z M 17 8.375 A 0.625 0.625 0 0 0 16.375 9 A 0.625 0.625 0 0 0 17 9.625 L 17.009766 9.625 A 0.625 0.625 0 0 0 17.634766 9 A 0.625 0.625 0 0 0 17.009766 8.375 L 17 8.375 z M 17 13.375 C 16.10994 13.375 15.375 14.10994 15.375 15 C 15.375 15.89006 16.10994 16.625 17 16.625 C 17.89006 16.625 18.625 15.89006 18.625 15 C 18.625 14.10994 17.89006 13.375 17 13.375 z M 17 14.625 C 17.21451 14.625 17.375 14.78549 17.375 15 C 17.375 15.21451 17.21451 15.375 17 15.375 C 16.78549 15.375 16.625 15.21451 16.625 15 C 16.625 14.78549 16.78549 14.625 17 14.625 z M 5.5 19.375 A 0.625 0.625 0 0 0 4.875 20 A 0.625 0.625 0 0 0 5.5 20.625 L 8 20.625 A 0.625 0.625 0 0 0 8.625 20 A 0.625 0.625 0 0 0 8 19.375 L 5.5 19.375 z " />
</svg>
