<?xml version="1.0" encoding="UTF-8" standalone="no"?>
<svg
   width="24"
   height="24"
   viewBox="0 0 24 24"
   fill="none"
   stroke="currentColor"
   stroke-width="1.25"
   stroke-linecap="round"
   stroke-linejoin="round"
   version="1.1"
   id="svg2"
   sodipodi:docname=".tmp_mouse-pointer.svg"
   xmlns:inkscape="http://www.inkscape.org/namespaces/inkscape"
   xmlns:sodipodi="http://sodipodi.sourceforge.net/DTD/sodipodi-0.dtd"
   xmlns="http://www.w3.org/2000/svg"
   xmlns:svg="http://www.w3.org/2000/svg">
  <defs
     id="defs2" />
  <sodipodi:namedview
     id="namedview2"
     pagecolor="#ffffff"
     bordercolor="#000000"
     borderopacity="0.25"
     inkscape:showpageshadow="2"
     inkscape:pageopacity="0.0"
     inkscape:pagecheckerboard="0"
     inkscape:deskcolor="#d1d1d1" />
  <path
     id="path1"
     style="baseline-shift:baseline;display:inline;overflow:visible;vector-effect:none;fill:#000000;stroke:none;stroke-linecap:butt;stroke-linejoin:miter;enable-background:accumulate;stop-color:#000000;stop-opacity:1;opacity:1"
     d="M 3.4277344 2.3789062 C 3.1490885 2.397884 2.8853337 2.51701 2.7011719 2.7011719 C 2.4065129 2.9958308 2.2761123 3.4930643 2.4609375 3.9316406 L 8.9570312 19.921875 A 0.6250625 0.6250625 0 0 0 8.9589844 19.925781 C 9.1514618 20.391392 9.6386409 20.647658 10.074219 20.619141 C 10.509796 20.590621 10.957763 20.273841 11.087891 19.787109 A 0.6250625 0.6250625 0 0 0 11.089844 19.78125 L 12.658203 13.697266 A 0.6250625 0.6250625 0 0 0 12.662109 13.685547 C 12.67087 13.648287 12.681721 13.612163 12.693359 13.576172 L 18.558594 19.441406 A 0.625 0.625 0 0 0 19.441406 19.441406 A 0.625 0.625 0 0 0 19.441406 18.558594 L 13.574219 12.691406 C 13.601105 12.682685 13.628622 12.675086 13.65625 12.667969 L 19.78125 11.089844 C 20.271043 10.962678 20.592022 10.511221 20.621094 10.074219 C 20.650164 9.6372163 20.39246 9.1499106 19.923828 8.9589844 A 0.6250625 0.6250625 0 0 0 19.923828 8.9570312 L 3.9316406 2.4609375 C 3.7671745 2.3916281 3.5949219 2.3675196 3.4277344 2.3789062 z M 3.7265625 3.7265625 L 19.103516 9.9726562 L 13.345703 11.457031 C 12.913842 11.568277 12.529851 11.790188 12.214844 12.083984 A 0.625 0.625 0 0 0 12.144531 12.144531 A 0.625 0.625 0 0 0 12.134766 12.154297 C 12.119488 12.169743 12.106688 12.187305 12.091797 12.203125 A 0.625 0.625 0 0 0 12.089844 12.205078 C 11.779965 12.534975 11.552584 12.942211 11.445312 13.398438 L 9.9726562 19.101562 L 3.7265625 3.7265625 z " />
</svg>
