<?xml version="1.0" encoding="UTF-8" standalone="no"?>
<svg
   width="24"
   height="24"
   viewBox="0 0 24 24"
   fill="none"
   stroke="currentColor"
   stroke-width="1.25"
   stroke-linecap="round"
   stroke-linejoin="round"
   version="1.1"
   id="svg2"
   sodipodi:docname=".tmp_move-down-right.svg"
   xmlns:inkscape="http://www.inkscape.org/namespaces/inkscape"
   xmlns:sodipodi="http://sodipodi.sourceforge.net/DTD/sodipodi-0.dtd"
   xmlns="http://www.w3.org/2000/svg"
   xmlns:svg="http://www.w3.org/2000/svg">
  <defs
     id="defs2" />
  <sodipodi:namedview
     id="namedview2"
     pagecolor="#ffffff"
     bordercolor="#000000"
     borderopacity="0.25"
     inkscape:showpageshadow="2"
     inkscape:pageopacity="0.0"
     inkscape:pagecheckerboard="0"
     inkscape:deskcolor="#d1d1d1" />
  <path
     id="path1"
     style="baseline-shift:baseline;display:inline;overflow:visible;vector-effect:none;fill:#000000;stroke:none;stroke-linecap:butt;stroke-linejoin:miter;enable-background:accumulate;stop-color:#000000;stop-opacity:1;opacity:1"
     d="M 5 4.3769531 A 0.625 0.625 0 0 0 4.5585938 4.5585938 A 0.625 0.625 0 0 0 4.5585938 5.4414062 L 17.492188 18.375 L 13 18.375 A 0.625 0.625 0 0 0 12.375 19 A 0.625 0.625 0 0 0 13 19.625 L 19 19.625 A 0.6250625 0.6250625 0 0 0 19.082031 19.619141 A 0.625 0.625 0 0 0 19.162109 19.603516 A 0.6250625 0.6250625 0 0 0 19.3125 19.541016 A 0.625 0.625 0 0 0 19.441406 19.441406 A 0.625 0.625 0 0 0 19.496094 19.380859 A 0.6250625 0.6250625 0 0 0 19.541016 19.3125 A 0.6250625 0.6250625 0 0 0 19.603516 19.162109 A 0.6250625 0.6250625 0 0 0 19.619141 19.082031 A 0.6250625 0.6250625 0 0 0 19.625 19 L 19.625 13 A 0.625 0.625 0 0 0 19 12.375 A 0.625 0.625 0 0 0 18.375 13 L 18.375 17.492188 L 5.4414062 4.5585938 A 0.625 0.625 0 0 0 5 4.3769531 z " />
</svg>
