<?xml version="1.0" encoding="UTF-8" standalone="no"?>
<svg
   width="24"
   height="24"
   viewBox="0 0 24 24"
   fill="none"
   stroke="currentColor"
   stroke-width="1.25"
   stroke-linecap="round"
   stroke-linejoin="round"
   version="1.1"
   id="svg3"
   sodipodi:docname=".tmp_move-horizontal.svg"
   xmlns:inkscape="http://www.inkscape.org/namespaces/inkscape"
   xmlns:sodipodi="http://sodipodi.sourceforge.net/DTD/sodipodi-0.dtd"
   xmlns="http://www.w3.org/2000/svg"
   xmlns:svg="http://www.w3.org/2000/svg">
  <defs
     id="defs3" />
  <sodipodi:namedview
     id="namedview3"
     pagecolor="#ffffff"
     bordercolor="#000000"
     borderopacity="0.25"
     inkscape:showpageshadow="2"
     inkscape:pageopacity="0.0"
     inkscape:pagecheckerboard="0"
     inkscape:deskcolor="#d1d1d1" />
  <path
     id="path1"
     style="baseline-shift:baseline;display:inline;overflow:visible;vector-effect:none;fill:#000000;stroke:none;stroke-linecap:butt;stroke-linejoin:miter;enable-background:accumulate;stop-color:#000000;stop-opacity:1;opacity:1"
     d="M 6 7.3769531 A 0.625 0.625 0 0 0 5.5585938 7.5585938 L 1.5800781 11.537109 L 1.5585938 11.558594 A 0.6250625 0.6250625 0 0 0 1.5488281 11.568359 A 0.625 0.625 0 0 0 1.5117188 11.611328 A 0.6250625 0.6250625 0 0 0 1.4882812 11.642578 A 0.625 0.625 0 0 0 1.4609375 11.685547 A 0.6250625 0.6250625 0 0 0 1.4570312 11.691406 A 0.625 0.625 0 0 0 1.3964844 11.837891 A 0.625 0.625 0 0 0 1.3808594 11.914062 A 0.6250625 0.6250625 0 0 0 1.3808594 11.917969 A 0.625 0.625 0 0 0 1.375 12 A 0.625 0.625 0 0 0 1.3808594 12.082031 A 0.625 0.625 0 0 0 1.3808594 12.085938 A 0.6250625 0.6250625 0 0 0 1.3964844 12.162109 A 0.625 0.625 0 0 0 1.4570312 12.308594 A 0.6250625 0.6250625 0 0 0 1.4609375 12.314453 A 0.625 0.625 0 0 0 1.4882812 12.357422 A 0.6250625 0.6250625 0 0 0 1.5117188 12.388672 A 0.625 0.625 0 0 0 1.5488281 12.431641 A 0.6250625 0.6250625 0 0 0 1.5585938 12.441406 A 0.625 0.625 0 0 0 1.5800781 12.462891 L 5.5585938 16.441406 A 0.625 0.625 0 0 0 6.4414062 16.441406 A 0.625 0.625 0 0 0 6.4414062 15.558594 L 3.5078125 12.625 L 20.492188 12.625 L 17.558594 15.558594 A 0.625 0.625 0 0 0 17.558594 16.441406 A 0.625 0.625 0 0 0 18.441406 16.441406 L 22.419922 12.462891 A 0.625 0.625 0 0 0 22.441406 12.441406 A 0.6250625 0.6250625 0 0 0 22.451172 12.431641 A 0.625 0.625 0 0 0 22.496094 12.380859 A 0.6250625 0.6250625 0 0 0 22.511719 12.357422 A 0.625 0.625 0 0 0 22.541016 12.3125 A 0.6250625 0.6250625 0 0 0 22.542969 12.308594 A 0.625 0.625 0 0 0 22.603516 12.162109 A 0.6250625 0.6250625 0 0 0 22.619141 12.085938 A 0.625 0.625 0 0 0 22.625 12 A 0.625 0.625 0 0 0 22.619141 11.917969 A 0.6250625 0.6250625 0 0 0 22.619141 11.914062 A 0.625 0.625 0 0 0 22.541016 11.6875 A 0.6250625 0.6250625 0 0 0 22.539062 11.685547 A 0.625 0.625 0 0 0 22.496094 11.619141 A 0.6250625 0.6250625 0 0 0 22.488281 11.611328 A 0.625 0.625 0 0 0 22.441406 11.558594 L 18.441406 7.5585938 A 0.625 0.625 0 0 0 17.558594 7.5585938 A 0.625 0.625 0 0 0 17.558594 8.4414062 L 20.492188 11.375 L 3.5078125 11.375 L 6.4414062 8.4414062 A 0.625 0.625 0 0 0 6.4414062 7.5585938 A 0.625 0.625 0 0 0 6 7.3769531 z " />
</svg>
