<?xml version="1.0" encoding="UTF-8" standalone="no"?>
<svg
   width="24"
   height="24"
   viewBox="0 0 24 24"
   fill="none"
   stroke="currentColor"
   stroke-width="1.25"
   stroke-linecap="round"
   stroke-linejoin="round"
   version="1.1"
   id="svg4"
   sodipodi:docname=".tmp_nfc.svg"
   xmlns:inkscape="http://www.inkscape.org/namespaces/inkscape"
   xmlns:sodipodi="http://sodipodi.sourceforge.net/DTD/sodipodi-0.dtd"
   xmlns="http://www.w3.org/2000/svg"
   xmlns:svg="http://www.w3.org/2000/svg">
  <defs
     id="defs4" />
  <sodipodi:namedview
     id="namedview4"
     pagecolor="#ffffff"
     bordercolor="#000000"
     borderopacity="0.25"
     inkscape:showpageshadow="2"
     inkscape:pageopacity="0.0"
     inkscape:pagecheckerboard="0"
     inkscape:deskcolor="#d1d1d1" />
  <path
     id="path1"
     style="baseline-shift:baseline;display:inline;overflow:visible;vector-effect:none;fill:#000000;stroke:none;stroke-linecap:butt;stroke-linejoin:miter;enable-background:accumulate;stop-color:#000000;stop-opacity:1;opacity:1"
     d="M 16.373047 1.375 A 0.625 0.625 0 0 0 16.060547 1.4570312 A 0.625 0.625 0 0 0 15.828125 2.3105469 C 19.258833 8.3160062 19.258833 15.683994 15.828125 21.689453 A 0.625 0.625 0 0 0 16.060547 22.542969 A 0.625 0.625 0 0 0 16.912109 22.310547 C 20.561358 15.922531 20.561358 8.0774688 16.912109 1.6894531 A 0.625 0.625 0 0 0 16.535156 1.3964844 A 0.625 0.625 0 0 0 16.373047 1.375 z M 12.912109 3.4746094 A 0.625 0.625 0 0 0 12.599609 3.5585938 A 0.625 0.625 0 0 0 12.367188 4.4101562 C 15.060557 9.1115567 15.064335 14.885038 12.376953 19.589844 A 0.625 0.625 0 0 0 12.609375 20.443359 A 0.625 0.625 0 0 0 13.462891 20.210938 C 16.369052 15.123119 16.365759 8.8731985 13.453125 3.7890625 A 0.625 0.625 0 0 0 13.074219 3.4960938 A 0.625 0.625 0 0 0 12.912109 3.4746094 z M 9.4648438 5.5859375 A 0.625 0.625 0 0 0 9.1523438 5.6660156 A 0.625 0.625 0 0 0 8.9160156 6.5175781 C 10.840611 9.9199884 10.840611 14.080012 8.9160156 17.482422 A 0.625 0.625 0 0 0 9.1523438 18.333984 A 0.625 0.625 0 0 0 10.003906 18.097656 C 12.143597 14.314989 12.143597 9.6850106 10.003906 5.9023438 A 0.625 0.625 0 0 0 9.4648438 5.5859375 z M 6.0039062 7.6953125 A 0.625 0.625 0 0 0 5.6914062 7.7773438 A 0.625 0.625 0 0 0 5.4570312 8.6289062 C 6.6485766 10.718854 6.6485766 13.281146 5.4570312 15.371094 A 0.625 0.625 0 0 0 5.6914062 16.222656 A 0.625 0.625 0 0 0 6.5429688 15.990234 C 7.9523582 13.518192 7.9523582 10.481808 6.5429688 8.0097656 A 0.625 0.625 0 0 0 6.0039062 7.6953125 z " />
</svg>
