<?xml version="1.0" encoding="UTF-8" standalone="no"?>
<svg
   width="24"
   height="24"
   viewBox="0 0 24 24"
   fill="none"
   stroke="currentColor"
   stroke-width="1.25"
   stroke-linecap="round"
   stroke-linejoin="round"
   version="1.1"
   id="svg2"
   sodipodi:docname=".tmp_pause.svg"
   xmlns:inkscape="http://www.inkscape.org/namespaces/inkscape"
   xmlns:sodipodi="http://sodipodi.sourceforge.net/DTD/sodipodi-0.dtd"
   xmlns="http://www.w3.org/2000/svg"
   xmlns:svg="http://www.w3.org/2000/svg">
  <defs
     id="defs2" />
  <sodipodi:namedview
     id="namedview2"
     pagecolor="#ffffff"
     bordercolor="#000000"
     borderopacity="0.25"
     inkscape:showpageshadow="2"
     inkscape:pageopacity="0.0"
     inkscape:pagecheckerboard="0"
     inkscape:deskcolor="#d1d1d1" />
  <path
     id="rect1"
     style="baseline-shift:baseline;display:inline;overflow:visible;vector-effect:none;fill:#000000;stroke:none;stroke-linecap:butt;stroke-linejoin:miter;enable-background:accumulate;stop-color:#000000;stop-opacity:1;opacity:1"
     d="M 6 2.375 C 5.1105608 2.375 4.375 3.1105608 4.375 4 L 4.375 20 C 4.375 20.889439 5.1105608 21.625 6 21.625 L 9 21.625 C 9.8894392 21.625 10.625 20.889439 10.625 20 L 10.625 4 C 10.625 3.1105608 9.8894392 2.375 9 2.375 L 6 2.375 z M 15 2.375 C 14.110561 2.375 13.375 3.1105608 13.375 4 L 13.375 20 C 13.375 20.889439 14.110561 21.625 15 21.625 L 18 21.625 C 18.889439 21.625 19.625 20.889439 19.625 20 L 19.625 4 C 19.625 3.1105608 18.889439 2.375 18 2.375 L 15 2.375 z M 6 3.625 L 9 3.625 C 9.2185608 3.625 9.375 3.7814392 9.375 4 L 9.375 20 C 9.375 20.218561 9.2185608 20.375 9 20.375 L 6 20.375 C 5.7814392 20.375 5.625 20.218561 5.625 20 L 5.625 4 C 5.625 3.7814392 5.7814392 3.625 6 3.625 z M 15 3.625 L 18 3.625 C 18.218561 3.625 18.375 3.7814392 18.375 4 L 18.375 20 C 18.375 20.218561 18.218561 20.375 18 20.375 L 15 20.375 C 14.781439 20.375 14.625 20.218561 14.625 20 L 14.625 4 C 14.625 3.7814392 14.781439 3.625 15 3.625 z " />
</svg>
