<?xml version="1.0" encoding="UTF-8" standalone="no"?>
<svg
   width="24"
   height="24"
   viewBox="0 0 24 24"
   fill="none"
   stroke="currentColor"
   stroke-width="1.25"
   stroke-linecap="round"
   stroke-linejoin="round"
   version="1.1"
   id="svg3"
   sodipodi:docname=".tmp_pc-case.svg"
   xmlns:inkscape="http://www.inkscape.org/namespaces/inkscape"
   xmlns:sodipodi="http://sodipodi.sourceforge.net/DTD/sodipodi-0.dtd"
   xmlns="http://www.w3.org/2000/svg"
   xmlns:svg="http://www.w3.org/2000/svg">
  <defs
     id="defs3" />
  <sodipodi:namedview
     id="namedview3"
     pagecolor="#ffffff"
     bordercolor="#000000"
     borderopacity="0.25"
     inkscape:showpageshadow="2"
     inkscape:pageopacity="0.0"
     inkscape:pagecheckerboard="0"
     inkscape:deskcolor="#d1d1d1" />
  <path
     id="rect1"
     style="baseline-shift:baseline;display:inline;overflow:visible;vector-effect:none;fill:#000000;stroke:none;stroke-linecap:butt;stroke-linejoin:miter;enable-background:accumulate;stop-color:#000000;stop-opacity:1;opacity:1"
     d="M 7 1.375 C 5.5565608 1.375 4.375 2.5565608 4.375 4 L 4.375 20 C 4.375 21.443439 5.5565608 22.625 7 22.625 L 17 22.625 C 18.443439 22.625 19.625 21.443439 19.625 20 L 19.625 4 C 19.625 2.5565608 18.443439 1.375 17 1.375 L 7 1.375 z M 7 2.625 L 17 2.625 C 17.772561 2.625 18.375 3.2274392 18.375 4 L 18.375 20 C 18.375 20.772561 17.772561 21.375 17 21.375 L 7 21.375 C 6.2274392 21.375 5.625 20.772561 5.625 20 L 5.625 4 C 5.625 3.2274392 6.2274392 2.625 7 2.625 z M 9 5.375 A 0.625 0.625 0 0 0 8.375 6 A 0.625 0.625 0 0 0 9 6.625 L 15 6.625 A 0.625 0.625 0 0 0 15.625 6 A 0.625 0.625 0 0 0 15 5.375 L 9 5.375 z M 9 9.375 A 0.625 0.625 0 0 0 8.375 10 A 0.625 0.625 0 0 0 9 10.625 L 15 10.625 A 0.625 0.625 0 0 0 15.625 10 A 0.625 0.625 0 0 0 15 9.375 L 9 9.375 z M 15 13.375 A 0.625 0.625 0 0 0 14.375 14 A 0.625 0.625 0 0 0 15 14.625 L 15.009766 14.625 A 0.625 0.625 0 0 0 15.634766 14 A 0.625 0.625 0 0 0 15.009766 13.375 L 15 13.375 z " />
</svg>
