<?xml version="1.0" encoding="UTF-8" standalone="no"?>
<svg
   width="24"
   height="24"
   viewBox="0 0 24 24"
   fill="none"
   stroke="currentColor"
   stroke-width="1.25"
   stroke-linecap="round"
   stroke-linejoin="round"
   version="1.1"
   id="svg3"
   sodipodi:docname=".tmp_pencil-line.svg"
   xmlns:inkscape="http://www.inkscape.org/namespaces/inkscape"
   xmlns:sodipodi="http://sodipodi.sourceforge.net/DTD/sodipodi-0.dtd"
   xmlns="http://www.w3.org/2000/svg"
   xmlns:svg="http://www.w3.org/2000/svg">
  <defs
     id="defs3" />
  <sodipodi:namedview
     id="namedview3"
     pagecolor="#ffffff"
     bordercolor="#000000"
     borderopacity="0.25"
     inkscape:showpageshadow="2"
     inkscape:pageopacity="0.0"
     inkscape:pagecheckerboard="0"
     inkscape:deskcolor="#d1d1d1" />
  <path
     id="path1"
     style="baseline-shift:baseline;display:inline;overflow:visible;vector-effect:none;fill:#000000;stroke:none;stroke-linecap:butt;stroke-linejoin:miter;enable-background:accumulate;stop-color:#000000;stop-opacity:1;opacity:1"
     d="M 19.009766 1.328125 C 18.230514 1.3671472 17.424218 1.7048584 16.746094 2.3828125 L 14.638672 4.4921875 L 14.632812 4.4960938 A 0.625 0.625 0 0 0 14.558594 4.5585938 A 0.625 0.625 0 0 0 14.496094 4.6328125 A 0.625 0.625 0 0 0 14.492188 4.6386719 L 3.4003906 15.732422 C 3.0962789 16.036035 2.8701172 16.409448 2.7441406 16.820312 A 0.6250625 0.6250625 0 0 0 2.7441406 16.822266 L 1.4238281 21.173828 A 0.6250625 0.6250625 0 0 0 1.421875 21.177734 C 1.1752582 22.002975 1.9993758 22.824114 2.8242188 22.576172 A 0.6250625 0.6250625 0 0 0 2.8261719 22.576172 L 7.1777344 21.255859 A 0.6250625 0.6250625 0 0 0 7.1796875 21.255859 C 7.5907005 21.130852 7.9633214 20.906808 8.2675781 20.603516 A 0.6250625 0.6250625 0 0 0 8.2695312 20.603516 L 19.359375 9.5097656 A 0.625 0.625 0 0 0 19.361328 9.5078125 A 0.625 0.625 0 0 0 19.441406 9.4414062 A 0.625 0.625 0 0 0 19.507812 9.3613281 A 0.625 0.625 0 0 0 19.509766 9.359375 L 21.615234 7.2539062 C 22.390233 6.4791016 22.721462 5.5362684 22.669922 4.6582031 C 22.618381 3.7801378 22.213634 2.979409 21.617188 2.3828125 C 21.020741 1.786216 20.219849 1.381839 19.341797 1.3300781 C 19.23204 1.323608 19.121087 1.3225504 19.009766 1.328125 z M 19.068359 2.5742188 C 19.135592 2.5715272 19.202804 2.5722383 19.269531 2.5761719 C 19.803354 2.6076409 20.332369 2.8674247 20.732422 3.2675781 C 21.132475 3.6677316 21.39054 4.1966385 21.421875 4.7304688 C 21.453205 5.264299 21.286422 5.8152792 20.732422 6.3691406 L 18.992188 8.109375 L 15.890625 5.0078125 L 17.630859 3.2675781 C 18.11561 2.7829494 18.59773 2.5930598 19.068359 2.5742188 z M 15.007812 5.890625 L 18.109375 8.9921875 L 7.3847656 19.71875 C 7.2255866 19.877033 7.0292368 19.995222 6.8144531 20.060547 L 2.6875 21.3125 L 3.9394531 17.1875 L 3.9394531 17.185547 C 4.0056321 16.970656 4.1239639 16.77596 4.2832031 16.617188 A 0.6250625 0.6250625 0 0 0 4.2832031 16.615234 L 15.007812 5.890625 z M 13 20.375 A 0.625 0.625 0 0 0 12.375 21 A 0.625 0.625 0 0 0 13 21.625 L 21 21.625 A 0.625 0.625 0 0 0 21.625 21 A 0.625 0.625 0 0 0 21 20.375 L 13 20.375 z M 2.4648438 21.378906 L 2.4667969 21.380859 L 2.4628906 21.380859 L 2.4648438 21.378906 z " />
</svg>
