<?xml version="1.0" encoding="UTF-8" standalone="no"?>
<svg
   width="24"
   height="24"
   viewBox="0 0 24 24"
   fill="none"
   stroke="currentColor"
   stroke-width="1.25"
   stroke-linecap="round"
   stroke-linejoin="round"
   version="1.1"
   id="svg5"
   sodipodi:docname=".tmp_pilcrow-right.svg"
   xmlns:inkscape="http://www.inkscape.org/namespaces/inkscape"
   xmlns:sodipodi="http://sodipodi.sourceforge.net/DTD/sodipodi-0.dtd"
   xmlns="http://www.w3.org/2000/svg"
   xmlns:svg="http://www.w3.org/2000/svg">
  <defs
     id="defs5" />
  <sodipodi:namedview
     id="namedview5"
     pagecolor="#ffffff"
     bordercolor="#000000"
     borderopacity="0.25"
     inkscape:showpageshadow="2"
     inkscape:pageopacity="0.0"
     inkscape:pagecheckerboard="0"
     inkscape:deskcolor="#d1d1d1" />
  <path
     id="path1"
     style="baseline-shift:baseline;display:inline;overflow:visible;vector-effect:none;fill:#000000;stroke:none;stroke-linecap:butt;stroke-linejoin:miter;enable-background:accumulate;stop-color:#000000;stop-opacity:1;opacity:1"
     d="M 7 2.375 C 5.8437504 2.375 4.8977484 2.8301207 4.2832031 3.5214844 C 3.6686579 4.2128481 3.375 5.1111112 3.375 6 C 3.375 6.8888888 3.6686579 7.7871519 4.2832031 8.4785156 C 4.8977484 9.1698793 5.8437504 9.625 7 9.625 L 9.375 9.625 L 9.375 14 A 0.625 0.625 0 0 0 10 14.625 A 0.625 0.625 0 0 0 10.625 14 L 10.625 3.625 L 13.375 3.625 L 13.375 14 A 0.625 0.625 0 0 0 14 14.625 A 0.625 0.625 0 0 0 14.625 14 L 14.625 3.625 L 15 3.625 A 0.625 0.625 0 0 0 15.625 3 A 0.625 0.625 0 0 0 15 2.375 L 7 2.375 z M 7 3.625 L 9.375 3.625 L 9.375 8.375 L 7 8.375 C 6.1562505 8.375 5.6022512 8.0801207 5.2167969 7.6464844 C 4.8313425 7.2128481 4.625 6.6111112 4.625 6 C 4.625 5.3888888 4.8313425 4.7871519 5.2167969 4.3535156 C 5.6022512 3.9198793 6.1562505 3.625 7 3.625 z M 18 13.376953 A 0.625 0.625 0 0 0 17.558594 13.558594 A 0.625 0.625 0 0 0 17.558594 14.441406 L 20.492188 17.375 L 2 17.375 A 0.625 0.625 0 0 0 1.375 18 A 0.625 0.625 0 0 0 2 18.625 L 20.492188 18.625 L 17.558594 21.558594 A 0.625 0.625 0 0 0 17.558594 22.441406 A 0.625 0.625 0 0 0 18.441406 22.441406 L 22.441406 18.441406 A 0.625 0.625 0 0 0 22.458984 18.421875 A 0.625 0.625 0 0 0 22.460938 18.419922 A 0.6250625 0.6250625 0 0 0 22.462891 18.417969 A 0.625 0.625 0 0 0 22.507812 18.363281 A 0.625 0.625 0 0 0 22.515625 18.353516 A 0.6250625 0.6250625 0 0 0 22.527344 18.333984 A 0.625 0.625 0 0 0 22.548828 18.296875 A 0.6250625 0.6250625 0 0 0 22.572266 18.248047 A 0.6250625 0.6250625 0 0 0 22.576172 18.238281 A 0.625 0.625 0 0 0 22.580078 18.228516 A 0.6250625 0.6250625 0 0 0 22.595703 18.183594 A 0.625 0.625 0 0 0 22.611328 18.125 A 0.625 0.625 0 0 0 22.613281 18.115234 A 0.6250625 0.6250625 0 0 0 22.613281 18.107422 A 0.625 0.625 0 0 0 22.621094 18.050781 A 0.6250625 0.6250625 0 0 0 22.623047 18.009766 A 0.6250625 0.6250625 0 0 0 22.623047 18 A 0.625 0.625 0 0 0 22.621094 17.943359 A 0.6250625 0.6250625 0 0 0 22.619141 17.9375 A 0.625 0.625 0 0 0 22.607422 17.859375 A 0.625 0.625 0 0 0 22.607422 17.857422 A 0.625 0.625 0 0 0 22.587891 17.794922 A 0.625 0.625 0 0 0 22.582031 17.775391 A 0.6250625 0.6250625 0 0 0 22.576172 17.761719 A 0.625 0.625 0 0 0 22.544922 17.697266 A 0.625 0.625 0 0 0 22.498047 17.623047 A 0.6250625 0.6250625 0 0 0 22.496094 17.619141 A 0.625 0.625 0 0 0 22.441406 17.558594 L 18.441406 13.558594 A 0.625 0.625 0 0 0 18 13.376953 z " />
</svg>
