<?xml version="1.0" encoding="UTF-8" standalone="no"?>
<svg
   width="24"
   height="24"
   viewBox="0 0 24 24"
   fill="none"
   stroke="currentColor"
   stroke-width="1.25"
   stroke-linecap="round"
   stroke-linejoin="round"
   version="1.1"
   id="svg3"
   sodipodi:docname=".tmp_pipette.svg"
   xmlns:inkscape="http://www.inkscape.org/namespaces/inkscape"
   xmlns:sodipodi="http://sodipodi.sourceforge.net/DTD/sodipodi-0.dtd"
   xmlns="http://www.w3.org/2000/svg"
   xmlns:svg="http://www.w3.org/2000/svg">
  <defs
     id="defs3" />
  <sodipodi:namedview
     id="namedview3"
     pagecolor="#ffffff"
     bordercolor="#000000"
     borderopacity="0.25"
     inkscape:showpageshadow="2"
     inkscape:pageopacity="0.0"
     inkscape:pagecheckerboard="0"
     inkscape:deskcolor="#d1d1d1" />
  <path
     id="path1"
     style="baseline-shift:baseline;display:inline;overflow:visible;vector-effect:none;fill:#000000;stroke:none;stroke-linecap:butt;stroke-linejoin:miter;enable-background:accumulate;stop-color:#000000;stop-opacity:1;opacity:1"
     d="M 19.765625 1.3203125 C 19.140913 1.3523874 18.49316 1.6240286 17.958984 2.1582031 L 14.992188 5.125 C 14.389732 4.5458882 13.654818 4.2799554 12.96875 4.3203125 C 12.265384 4.3616875 11.631412 4.6849939 11.158203 5.1582031 C 10.684994 5.6314124 10.361686 6.2653838 10.320312 6.96875 C 10.279863 7.6563076 10.535423 8.3968359 11.117188 9 L 3.1445312 16.972656 C 2.6523838 17.464655 2.3751486 18.132229 2.375 18.828125 L 2.375 20.171875 C 2.3749221 20.536758 2.2307064 20.886559 1.9726562 21.144531 L 1.5585938 21.558594 A 0.625 0.625 0 0 0 1.5585938 22.441406 A 0.625 0.625 0 0 0 2.4414062 22.441406 L 2.8554688 22.027344 C 3.1134409 21.769294 3.4632421 21.625078 3.828125 21.625 L 5.171875 21.625 C 5.8677714 21.624851 6.5353451 21.347616 7.0273438 20.855469 L 15 12.882812 C 15.603165 13.464577 16.343693 13.720132 17.03125 13.679688 C 17.734616 13.638307 18.368588 13.315006 18.841797 12.841797 C 19.315006 12.368588 19.638313 11.734616 19.679688 11.03125 C 19.720045 10.345182 19.454112 9.6102673 18.875 9.0078125 L 21.841797 6.0410156 C 22.452282 5.4305304 22.721063 4.6721162 22.679688 3.96875 C 22.638313 3.2653838 22.315006 2.6314124 21.841797 2.1582031 C 21.368588 1.6849939 20.734616 1.3616871 20.03125 1.3203125 C 19.943329 1.3151407 19.85487 1.3157304 19.765625 1.3203125 z M 19.822266 2.5664062 C 19.86742 2.5648162 19.91214 2.5657187 19.957031 2.5683594 C 20.316165 2.5894854 20.682194 2.7642249 20.958984 3.0410156 C 21.235775 3.3178064 21.410515 3.6838351 21.431641 4.0429688 C 21.452771 4.4021025 21.348501 4.7686888 20.958984 5.1582031 L 17.558594 8.5585938 A 0.6250625 0.6250625 0 0 0 17.558594 9.4414062 L 17.958984 9.8417969 C 18.348499 10.231311 18.452766 10.597898 18.431641 10.957031 C 18.410511 11.316165 18.235775 11.682194 17.958984 11.958984 C 17.682194 12.235775 17.316165 12.410515 16.957031 12.431641 C 16.597898 12.452761 16.231311 12.348501 15.841797 11.958984 L 12.041016 8.1582031 C 11.651501 7.7686888 11.547234 7.4021025 11.568359 7.0429688 C 11.589489 6.6838352 11.764225 6.3178064 12.041016 6.0410156 C 12.317806 5.7642249 12.683835 5.589485 13.042969 5.5683594 C 13.402102 5.5472334 13.768689 5.6515014 14.158203 6.0410156 L 14.558594 6.4414062 A 0.6250625 0.6250625 0 0 0 15.441406 6.4414062 L 18.841797 3.0410156 C 19.182622 2.7001906 19.506182 2.5775366 19.822266 2.5664062 z M 12 9.8828125 L 14.117188 12 L 6.1445312 19.972656 C 5.886559 20.230706 5.5367579 20.374922 5.171875 20.375 L 3.828125 20.375 C 3.6976902 20.375028 3.6079671 20.500467 3.4804688 20.519531 C 3.4995329 20.392033 3.6249721 20.30231 3.625 20.171875 L 3.625 18.828125 C 3.6250779 18.463242 3.7692936 18.113441 4.0273438 17.855469 L 12 9.8828125 z " />
</svg>
