<?xml version="1.0" encoding="UTF-8" standalone="no"?>
<svg
   width="24"
   height="24"
   viewBox="0 0 24 24"
   fill="none"
   stroke="currentColor"
   stroke-width="1.25"
   stroke-linecap="round"
   stroke-linejoin="round"
   version="1.1"
   id="svg4"
   sodipodi:docname=".tmp_pound-sterling.svg"
   xmlns:inkscape="http://www.inkscape.org/namespaces/inkscape"
   xmlns:sodipodi="http://sodipodi.sourceforge.net/DTD/sodipodi-0.dtd"
   xmlns="http://www.w3.org/2000/svg"
   xmlns:svg="http://www.w3.org/2000/svg">
  <defs
     id="defs4" />
  <sodipodi:namedview
     id="namedview4"
     pagecolor="#ffffff"
     bordercolor="#000000"
     borderopacity="0.25"
     inkscape:showpageshadow="2"
     inkscape:pageopacity="0.0"
     inkscape:pagecheckerboard="0"
     inkscape:deskcolor="#d1d1d1" />
  <path
     id="path1"
     style="baseline-shift:baseline;display:inline;overflow:visible;vector-effect:none;fill:#000000;stroke:none;stroke-linecap:butt;stroke-linejoin:miter;enable-background:accumulate;stop-color:#000000;stop-opacity:1;opacity:1"
     d="M 14 2.375 C 12.86112 2.375 11.712851 2.7520375 10.833984 3.5332031 C 9.9551185 4.3143688 9.375 5.5104902 9.375 7 L 9.375 12.375 L 6 12.375 A 0.625 0.625 0 0 0 5.375 13 A 0.625 0.625 0 0 0 6 13.625 L 9.375 13.625 L 9.375 20.375 L 6 20.375 A 0.625 0.625 0 0 0 5.375 21 A 0.625 0.625 0 0 0 6 21.625 L 18 21.625 A 0.625 0.625 0 0 0 18.625 21 A 0.625 0.625 0 0 0 18 20.375 L 10.625 20.375 L 10.625 13.625 L 16 13.625 A 0.625 0.625 0 0 0 16.625 13 A 0.625 0.625 0 0 0 16 12.375 L 10.625 12.375 L 10.625 7 C 10.625 5.8230098 11.044882 5.0188812 11.666016 4.4667969 C 12.287149 3.9147125 13.13888 3.625 14 3.625 C 14.86112 3.625 15.712851 3.9147125 16.333984 4.4667969 C 16.955118 5.0188812 17.375 5.8230098 17.375 7 A 0.625 0.625 0 0 0 18 7.625 A 0.625 0.625 0 0 0 18.625 7 C 18.625 5.5104902 18.044882 4.3143688 17.166016 3.5332031 C 16.287149 2.7520375 15.13888 2.375 14 2.375 z " />
</svg>
