<?xml version="1.0" encoding="UTF-8" standalone="no"?>
<svg
   width="24"
   height="24"
   viewBox="0 0 24 24"
   fill="none"
   stroke="currentColor"
   stroke-width="1.25"
   stroke-linecap="round"
   stroke-linejoin="round"
   version="1.1"
   id="svg3"
   sodipodi:docname=".tmp_presentation.svg"
   xmlns:inkscape="http://www.inkscape.org/namespaces/inkscape"
   xmlns:sodipodi="http://sodipodi.sourceforge.net/DTD/sodipodi-0.dtd"
   xmlns="http://www.w3.org/2000/svg"
   xmlns:svg="http://www.w3.org/2000/svg">
  <defs
     id="defs3" />
  <sodipodi:namedview
     id="namedview3"
     pagecolor="#ffffff"
     bordercolor="#000000"
     borderopacity="0.25"
     inkscape:showpageshadow="2"
     inkscape:pageopacity="0.0"
     inkscape:pagecheckerboard="0"
     inkscape:deskcolor="#d1d1d1" />
  <path
     id="path1"
     style="baseline-shift:baseline;display:inline;overflow:visible;vector-effect:none;fill:#000000;stroke:none;stroke-linecap:butt;stroke-linejoin:miter;enable-background:accumulate;stop-color:#000000;stop-opacity:1;opacity:1"
     d="M 2 2.375 A 0.625 0.625 0 0 0 1.375 3 A 0.625 0.625 0 0 0 2 3.625 L 2.375 3.625 L 2.375 14 C 2.375 15.442345 3.5576554 16.625 5 16.625 L 10.492188 16.625 L 6.5585938 20.558594 A 0.625 0.625 0 0 0 6.5585938 21.441406 A 0.625 0.625 0 0 0 7.4414062 21.441406 L 12 16.882812 L 16.558594 21.441406 A 0.625 0.625 0 0 0 17.441406 21.441406 A 0.625 0.625 0 0 0 17.441406 20.558594 L 13.507812 16.625 L 19 16.625 C 20.442345 16.625 21.625 15.442345 21.625 14 L 21.625 3.625 L 22 3.625 A 0.625 0.625 0 0 0 22.625 3 A 0.625 0.625 0 0 0 22 2.375 L 2 2.375 z M 3.625 3.625 L 20.375 3.625 L 20.375 14 C 20.375 14.766794 19.766794 15.375 19 15.375 L 5 15.375 C 4.2332056 15.375 3.625 14.766794 3.625 14 L 3.625 3.625 z " />
</svg>
