<?xml version="1.0" encoding="UTF-8" standalone="no"?>
<svg
   width="24"
   height="24"
   viewBox="0 0 24 24"
   fill="none"
   stroke="currentColor"
   stroke-width="1.25"
   stroke-linecap="round"
   stroke-linejoin="round"
   version="1.1"
   id="svg7"
   sodipodi:docname=".tmp_radar.svg"
   xmlns:inkscape="http://www.inkscape.org/namespaces/inkscape"
   xmlns:sodipodi="http://sodipodi.sourceforge.net/DTD/sodipodi-0.dtd"
   xmlns="http://www.w3.org/2000/svg"
   xmlns:svg="http://www.w3.org/2000/svg">
  <defs
     id="defs7" />
  <sodipodi:namedview
     id="namedview7"
     pagecolor="#ffffff"
     bordercolor="#000000"
     borderopacity="0.25"
     inkscape:showpageshadow="2"
     inkscape:pageopacity="0.0"
     inkscape:pagecheckerboard="0"
     inkscape:deskcolor="#d1d1d1" />
  <path
     id="path1"
     style="baseline-shift:baseline;display:inline;overflow:visible;vector-effect:none;fill:#000000;stroke:none;stroke-linecap:butt;stroke-linejoin:miter;enable-background:accumulate;stop-color:#000000;stop-opacity:1;opacity:1"
     d="M 11.671875 1.3789062 C 9.9563769 1.4300507 8.23941 1.8959561 6.6777344 2.7988281 A 0.625 0.625 0 0 0 6.4492188 3.6523438 A 0.625 0.625 0 0 0 7.3027344 3.8808594 C 10.80127 1.8582053 15.168744 2.3111348 18.171875 4.9453125 L 16.220703 6.8964844 C 14.950611 5.8391039 13.37734 5.333876 11.818359 5.3730469 C 10.063887 5.4171299 8.3274829 6.1490859 7.0585938 7.5605469 C 4.5208155 10.383469 4.8772478 14.782528 7.8378906 17.158203 A 0.625 0.625 0 0 0 8.7167969 17.060547 A 0.625 0.625 0 0 0 8.6210938 16.181641 C 6.2066434 14.244245 5.9186836 10.698621 7.9882812 8.3964844 C 9.9169401 6.2511222 13.13606 6.0289179 15.332031 7.7851562 L 13.359375 9.7578125 C 12.962082 9.5152098 12.49647 9.375 12 9.375 C 10.557655 9.375 9.375 10.557655 9.375 12 C 9.375 13.442345 10.557655 14.625 12 14.625 C 13.442345 14.625 14.625 13.442345 14.625 12 C 14.625 11.503531 14.48479 11.037918 14.242188 10.640625 L 16.679688 8.203125 A 0.625 0.625 0 0 0 16.681641 8.2011719 L 19.482422 5.4003906 A 0.625 0.625 0 0 0 19.511719 5.3730469 A 0.625 0.625 0 0 0 19.511719 5.3710938 A 0.625 0.625 0 0 0 19.566406 5.3125 A 0.625 0.625 0 0 0 19.566406 5.3105469 A 0.625 0.625 0 0 0 19.611328 5.2441406 A 0.625 0.625 0 0 0 19.611328 5.2421875 A 0.625 0.625 0 0 0 19.673828 5.0917969 A 0.625 0.625 0 0 0 19.689453 5.0117188 A 0.625 0.625 0 0 0 19.689453 4.8535156 A 0.625 0.625 0 0 0 19.689453 4.8476562 A 0.625 0.625 0 0 0 19.673828 4.7695312 A 0.625 0.625 0 0 0 19.673828 4.7675781 A 0.625 0.625 0 0 0 19.667969 4.7480469 A 0.625 0.625 0 0 0 19.611328 4.6171875 A 0.625 0.625 0 0 0 19.511719 4.4882812 A 0.625 0.625 0 0 0 19.451172 4.4335938 C 17.760241 2.7666553 15.61829 1.75934 13.380859 1.4648438 C 12.81505 1.3903705 12.243708 1.3618581 11.671875 1.3789062 z M 4 5.375 A 0.625 0.625 0 0 0 3.375 6 A 0.625 0.625 0 0 0 4 6.625 L 4.0097656 6.625 A 0.625 0.625 0 0 0 4.6347656 6 A 0.625 0.625 0 0 0 4.0097656 5.375 L 4 5.375 z M 21.322266 7.7246094 A 0.625 0.625 0 0 0 21.082031 7.7675781 A 0.625 0.625 0 0 0 20.728516 8.578125 C 23.052753 14.498564 18.9731 20.935631 12.626953 21.359375 C 6.2808059 21.783119 1.380008 15.946422 2.8964844 9.7695312 A 0.625 0.625 0 0 0 2.4394531 9.0136719 A 0.625 0.625 0 0 0 1.6835938 9.4707031 C -0.02606128 16.434447 5.5544212 23.083192 12.708984 22.605469 C 19.863548 22.127746 24.512892 14.795717 21.892578 8.1210938 A 0.625 0.625 0 0 0 21.322266 7.7246094 z M 12 10.625 C 12.351791 10.625 12.670495 10.75223 12.912109 10.964844 A 0.625 0.625 0 0 0 12.96875 11.03125 A 0.625 0.625 0 0 0 13.035156 11.087891 C 13.24777 11.329505 13.375 11.648209 13.375 12 C 13.375 12.766794 12.766794 13.375 12 13.375 C 11.233206 13.375 10.625 12.766794 10.625 12 C 10.625 11.233206 11.233206 10.625 12 10.625 z M 17.955078 11.035156 A 0.625 0.625 0 0 0 17.365234 11.695312 C 17.464134 13.424998 16.7247 15.094936 15.376953 16.183594 A 0.625 0.625 0 0 0 15.283203 17.0625 A 0.625 0.625 0 0 0 16.162109 17.15625 C 17.822221 15.815277 18.735103 13.755573 18.613281 11.625 A 0.625 0.625 0 0 0 17.955078 11.035156 z M 12 17.375 A 0.625 0.625 0 0 0 11.375 18 A 0.625 0.625 0 0 0 12 18.625 L 12.009766 18.625 A 0.625 0.625 0 0 0 12.634766 18 A 0.625 0.625 0 0 0 12.009766 17.375 L 12 17.375 z " />
</svg>
