<?xml version="1.0" encoding="UTF-8" standalone="no"?>
<svg
   width="24"
   height="24"
   viewBox="0 0 24 24"
   fill="none"
   stroke="currentColor"
   stroke-width="1.25"
   stroke-linecap="round"
   stroke-linejoin="round"
   version="1.1"
   id="svg4"
   sodipodi:docname=".tmp_radio.svg"
   xmlns:inkscape="http://www.inkscape.org/namespaces/inkscape"
   xmlns:sodipodi="http://sodipodi.sourceforge.net/DTD/sodipodi-0.dtd"
   xmlns="http://www.w3.org/2000/svg"
   xmlns:svg="http://www.w3.org/2000/svg">
  <defs
     id="defs4" />
  <sodipodi:namedview
     id="namedview4"
     pagecolor="#ffffff"
     bordercolor="#000000"
     borderopacity="0.25"
     inkscape:showpageshadow="2"
     inkscape:pageopacity="0.0"
     inkscape:pagecheckerboard="0"
     inkscape:deskcolor="#d1d1d1" />
  <path
     id="path1"
     style="baseline-shift:baseline;display:inline;overflow:visible;vector-effect:none;fill:#000000;stroke:none;stroke-linecap:butt;stroke-linejoin:miter;enable-background:accumulate;stop-color:#000000;stop-opacity:1;opacity:1"
     d="M 4.9238281 4.3085938 A 0.625 0.625 0 0 0 4.4824219 4.4921875 C 0.34407354 8.6352986 0.34407355 15.364701 4.4824219 19.507812 A 0.625 0.625 0 0 0 5.3671875 19.509766 A 0.625 0.625 0 0 0 5.3671875 18.625 C 1.7058912 14.95949 1.7058912 9.04051 5.3671875 5.375 A 0.625 0.625 0 0 0 5.3671875 4.4902344 A 0.625 0.625 0 0 0 4.9238281 4.3085938 z M 19.076172 4.3085938 A 0.625 0.625 0 0 0 18.632812 4.4902344 A 0.625 0.625 0 0 0 18.632812 5.375 C 22.29411 9.04051 22.29411 14.95949 18.632812 18.625 A 0.625 0.625 0 0 0 18.632812 19.509766 A 0.625 0.625 0 0 0 19.517578 19.507812 C 23.655926 15.364701 23.655926 8.6352986 19.517578 4.4921875 A 0.625 0.625 0 0 0 19.076172 4.3085938 z M 7.7519531 7.1367188 A 0.625 0.625 0 0 0 7.3105469 7.3203125 C 4.7338809 9.9014025 4.7338809 14.098599 7.3105469 16.679688 A 0.625 0.625 0 0 0 8.1953125 16.681641 A 0.625 0.625 0 0 0 8.1953125 15.796875 C 6.0953871 13.693344 6.0953871 10.306656 8.1953125 8.203125 A 0.625 0.625 0 0 0 8.1953125 7.3183594 A 0.625 0.625 0 0 0 7.7519531 7.1367188 z M 16.248047 7.1367188 A 0.625 0.625 0 0 0 15.804688 7.3183594 A 0.625 0.625 0 0 0 15.804688 8.203125 C 17.904612 10.306656 17.904612 13.693344 15.804688 15.796875 A 0.625 0.625 0 0 0 15.804688 16.681641 A 0.625 0.625 0 0 0 16.689453 16.679688 C 19.266119 14.098598 19.266119 9.9014025 16.689453 7.3203125 A 0.625 0.625 0 0 0 16.248047 7.1367188 z M 12 9.375 C 10.557655 9.375 9.375 10.557655 9.375 12 C 9.375 13.442345 10.557655 14.625 12 14.625 C 13.442345 14.625 14.625 13.442345 14.625 12 C 14.625 10.557655 13.442345 9.375 12 9.375 z M 12 10.625 C 12.766794 10.625 13.375 11.233206 13.375 12 C 13.375 12.766794 12.766794 13.375 12 13.375 C 11.233206 13.375 10.625 12.766794 10.625 12 C 10.625 11.233206 11.233206 10.625 12 10.625 z " />
</svg>
