<?xml version="1.0" encoding="UTF-8" standalone="no"?>
<svg
   width="24"
   height="24"
   viewBox="0 0 24 24"
   fill="none"
   stroke="currentColor"
   stroke-width="1.25"
   stroke-linecap="round"
   stroke-linejoin="round"
   version="1.1"
   id="svg6"
   sodipodi:docname=".tmp_radio-tower.svg"
   xmlns:inkscape="http://www.inkscape.org/namespaces/inkscape"
   xmlns:sodipodi="http://sodipodi.sourceforge.net/DTD/sodipodi-0.dtd"
   xmlns="http://www.w3.org/2000/svg"
   xmlns:svg="http://www.w3.org/2000/svg">
  <defs
     id="defs6" />
  <sodipodi:namedview
     id="namedview6"
     pagecolor="#ffffff"
     bordercolor="#000000"
     borderopacity="0.25"
     inkscape:showpageshadow="2"
     inkscape:pageopacity="0.0"
     inkscape:pagecheckerboard="0"
     inkscape:deskcolor="#d1d1d1" />
  <path
     id="path1"
     style="baseline-shift:baseline;display:inline;overflow:visible;vector-effect:none;fill:#000000;stroke:none;stroke-linecap:butt;stroke-linejoin:miter;enable-background:accumulate;stop-color:#000000;stop-opacity:1;opacity:1"
     d="M 19.099609 1.2753906 A 0.625 0.625 0 0 0 18.658203 1.4589844 A 0.625 0.625 0 0 0 18.658203 2.3417969 C 22.318048 5.9941458 22.318048 11.904292 18.658203 15.556641 A 0.625 0.625 0 0 0 18.658203 16.441406 A 0.625 0.625 0 0 0 19.541016 16.443359 C 23.679678 12.313174 23.679678 5.5872165 19.541016 1.4570312 A 0.625 0.625 0 0 0 19.099609 1.2753906 z M 4.9003906 1.2773438 A 0.625 0.625 0 0 0 4.4589844 1.4589844 C 0.31723845 5.6007303 0.31723845 12.39927 4.4589844 16.541016 A 0.625 0.625 0 0 0 5.3417969 16.541016 A 0.625 0.625 0 0 0 5.3417969 15.658203 C 1.6835428 11.999949 1.6835428 6.000051 5.3417969 2.3417969 A 0.625 0.625 0 0 0 5.3417969 1.4589844 A 0.625 0.625 0 0 0 4.9003906 1.2773438 z M 7.7890625 4.0742188 A 0.625 0.625 0 0 0 7.3496094 4.265625 C 5.201402 6.4914532 4.8383778 9.9004201 6.46875 12.529297 A 0.625 0.625 0 0 0 7.3300781 12.730469 A 0.625 0.625 0 0 0 7.53125 11.871094 C 6.1990868 9.7230609 6.4947181 6.9534708 8.25 5.1347656 A 0.625 0.625 0 0 0 8.234375 4.25 A 0.625 0.625 0 0 0 7.7890625 4.0742188 z M 16.201172 4.1738281 A 0.625 0.625 0 0 0 15.757812 4.3574219 A 0.625 0.625 0 0 0 15.757812 5.2421875 C 17.547889 7.0322652 17.782038 9.8185572 16.46875 11.941406 A 0.625 0.625 0 0 0 16.671875 12.800781 A 0.625 0.625 0 0 0 17.53125 12.599609 C 19.137962 10.002459 18.8525 6.5673442 16.642578 4.3574219 A 0.625 0.625 0 0 0 16.201172 4.1738281 z M 12 6.375 C 10.557655 6.375 9.375 7.5576554 9.375 9 C 9.375 10.148344 10.124679 11.133002 11.158203 11.486328 L 7.4121094 21.787109 A 0.625 0.625 0 0 0 7.7871094 22.587891 A 0.625 0.625 0 0 0 8.5878906 22.212891 L 9.8925781 18.625 L 14.107422 18.625 L 15.412109 22.212891 A 0.625 0.625 0 0 0 16.212891 22.587891 A 0.625 0.625 0 0 0 16.587891 21.787109 L 12.841797 11.486328 C 13.875321 11.133002 14.625 10.148344 14.625 9 C 14.625 7.5576554 13.442345 6.375 12 6.375 z M 12 7.625 C 12.766794 7.625 13.375 8.2332056 13.375 9 C 13.375 9.7666906 12.766647 10.374835 12 10.375 C 11.233353 10.374835 10.625 9.7666906 10.625 9 C 10.625 8.2332056 11.233206 7.625 12 7.625 z M 12 12.830078 L 13.652344 17.375 L 10.347656 17.375 L 12 12.830078 z " />
</svg>
