<?xml version="1.0" encoding="UTF-8" standalone="no"?>
<svg
   width="24"
   height="24"
   viewBox="0 0 24 24"
   fill="none"
   stroke="currentColor"
   stroke-width="1.25"
   stroke-linecap="round"
   stroke-linejoin="round"
   version="1.1"
   id="svg2"
   sodipodi:docname=".tmp_redo-dot.svg"
   xmlns:inkscape="http://www.inkscape.org/namespaces/inkscape"
   xmlns:sodipodi="http://sodipodi.sourceforge.net/DTD/sodipodi-0.dtd"
   xmlns="http://www.w3.org/2000/svg"
   xmlns:svg="http://www.w3.org/2000/svg">
  <defs
     id="defs2" />
  <sodipodi:namedview
     id="namedview2"
     pagecolor="#ffffff"
     bordercolor="#000000"
     borderopacity="0.25"
     inkscape:showpageshadow="2"
     inkscape:pageopacity="0.0"
     inkscape:pagecheckerboard="0"
     inkscape:deskcolor="#d1d1d1" />
  <path
     id="circle1"
     style="baseline-shift:baseline;display:inline;overflow:visible;vector-effect:none;fill:#000000;stroke:none;stroke-linecap:butt;stroke-linejoin:miter;enable-background:accumulate;stop-color:#000000;stop-opacity:1;opacity:1"
     d="M 21 6.375 A 0.625 0.625 0 0 0 20.375 7 L 20.375 11.597656 L 18.417969 9.8359375 A 0.6250625 0.6250625 0 0 0 18.417969 9.8339844 C 16.654731 8.252596 14.368522 7.3774119 12 7.375 C 6.6916622 7.375 2.375 11.691662 2.375 17 A 0.625 0.625 0 0 0 3 17.625 A 0.625 0.625 0 0 0 3.625 17 C 3.625 12.367212 7.3672123 8.625 12 8.625 C 14.061234 8.6271 16.047558 9.3893695 17.582031 10.765625 L 17.582031 10.763672 L 19.371094 12.375 L 15 12.375 A 0.625 0.625 0 0 0 14.375 13 A 0.625 0.625 0 0 0 15 13.625 L 20.988281 13.625 L 21 13.625 A 0.625 0.625 0 0 0 21.029297 13.623047 A 0.6250625 0.6250625 0 0 0 21.064453 13.621094 A 0.625 0.625 0 0 0 21.103516 13.615234 A 0.625 0.625 0 0 0 21.152344 13.605469 A 0.625 0.625 0 0 0 21.162109 13.603516 A 0.6250625 0.6250625 0 0 0 21.212891 13.587891 A 0.625 0.625 0 0 0 21.224609 13.582031 A 0.6250625 0.6250625 0 0 0 21.265625 13.564453 A 0.6250625 0.6250625 0 0 0 21.283203 13.556641 A 0.625 0.625 0 0 0 21.294922 13.550781 A 0.6250625 0.6250625 0 0 0 21.335938 13.525391 A 0.6250625 0.6250625 0 0 0 21.349609 13.517578 A 0.625 0.625 0 0 0 21.357422 13.511719 A 0.6250625 0.6250625 0 0 0 21.402344 13.476562 A 0.6250625 0.6250625 0 0 0 21.410156 13.470703 A 0.625 0.625 0 0 0 21.441406 13.441406 A 0.6250625 0.6250625 0 0 0 21.447266 13.435547 A 0.625 0.625 0 0 0 21.464844 13.417969 A 0.625 0.625 0 0 0 21.478516 13.398438 A 0.6250625 0.6250625 0 0 0 21.507812 13.363281 A 0.6250625 0.6250625 0 0 0 21.513672 13.355469 A 0.625 0.625 0 0 0 21.541016 13.3125 A 0.6250625 0.6250625 0 0 0 21.544922 13.304688 A 0.625 0.625 0 0 0 21.566406 13.259766 A 0.6250625 0.6250625 0 0 0 21.583984 13.222656 A 0.6250625 0.6250625 0 0 0 21.585938 13.216797 A 0.625 0.625 0 0 0 21.603516 13.162109 A 0.6250625 0.6250625 0 0 0 21.605469 13.15625 A 0.625 0.625 0 0 0 21.615234 13.099609 A 0.625 0.625 0 0 0 21.619141 13.082031 A 0.6250625 0.6250625 0 0 0 21.621094 13.064453 A 0.625 0.625 0 0 0 21.625 13 L 21.625 12.984375 L 21.625 7 A 0.625 0.625 0 0 0 21 6.375 z M 12 15.375 C 11.10994 15.375 10.375 16.10994 10.375 17 C 10.375 17.89006 11.10994 18.625 12 18.625 C 12.89006 18.625 13.625 17.89006 13.625 17 C 13.625 16.10994 12.89006 15.375 12 15.375 z M 12 16.625 C 12.21451 16.625 12.375 16.78549 12.375 17 C 12.375 17.21451 12.21451 17.375 12 17.375 C 11.78549 17.375 11.625 17.21451 11.625 17 C 11.625 16.78549 11.78549 16.625 12 16.625 z " />
</svg>
