<?xml version="1.0" encoding="UTF-8" standalone="no"?>
<svg
   width="24"
   height="24"
   viewBox="0 0 24 24"
   fill="none"
   stroke="currentColor"
   stroke-width="1.25"
   stroke-linecap="round"
   stroke-linejoin="round"
   version="1.1"
   id="svg5"
   sodipodi:docname=".tmp_ribbon.svg"
   xmlns:inkscape="http://www.inkscape.org/namespaces/inkscape"
   xmlns:sodipodi="http://sodipodi.sourceforge.net/DTD/sodipodi-0.dtd"
   xmlns="http://www.w3.org/2000/svg"
   xmlns:svg="http://www.w3.org/2000/svg">
  <defs
     id="defs5" />
  <sodipodi:namedview
     id="namedview5"
     pagecolor="#ffffff"
     bordercolor="#000000"
     borderopacity="0.25"
     inkscape:showpageshadow="2"
     inkscape:pageopacity="0.0"
     inkscape:pagecheckerboard="0"
     inkscape:deskcolor="#d1d1d1" />
  <path
     id="path1"
     style="baseline-shift:baseline;display:inline;overflow:visible;vector-effect:none;fill:#000000;stroke:none;stroke-linecap:butt;stroke-linejoin:miter;enable-background:accumulate;stop-color:#000000;stop-opacity:1;opacity:1"
     d="M 12 1.375 C 10.384259 1.375 8.762358 1.8158608 7.5039062 2.7480469 C 6.2454545 3.6802329 5.375 5.145834 5.375 7 C 5.375 7.7562344 5.465068 8.4512692 5.6230469 9.0996094 A 0.625 0.625 0 0 0 5.6582031 9.234375 C 6.1988129 11.308157 7.4279358 12.904285 8.5800781 14.501953 L 5.3691406 18.648438 C 4.811953 19.367218 4.9631653 20.424823 5.6992188 20.958984 L 7.5644531 22.3125 C 8.2792726 22.831183 9.2955625 22.673775 9.8222656 21.964844 L 11.996094 19.050781 L 14.142578 21.972656 A 0.6250625 0.6250625 0 0 0 14.144531 21.976562 C 14.66969 22.680636 15.680526 22.835792 16.394531 22.324219 L 18.289062 20.964844 C 19.033434 20.430223 19.185314 19.361288 18.619141 18.640625 L 15.34375 14.474609 C 16.518992 12.888946 17.781229 11.300483 18.335938 9.2246094 A 0.625 0.625 0 0 0 18.367188 9.0996094 C 18.529908 8.4518608 18.623825 7.756847 18.625 7 C 18.625 5.145834 17.754545 3.6802329 16.496094 2.7480469 C 15.237642 1.8158608 13.615741 1.375 12 1.375 z M 12 2.625 C 13.384259 2.625 14.762358 3.0174732 15.753906 3.7519531 C 16.745455 4.486433 17.375 5.5208341 17.375 7 C 17.374702 7.1934535 17.367004 7.3821056 17.353516 7.5664062 C 15.96658 6.1946527 14.159549 5.4716706 12.328125 5.3945312 C 12.219008 5.3820746 12.109339 5.375 12 5.375 C 11.890572 5.375 11.78108 5.3820541 11.671875 5.3945312 C 9.8401033 5.4718501 8.0314399 6.1947712 6.6445312 7.5664062 C 6.6316704 7.3819283 6.625 7.1935521 6.625 7 C 6.625 5.5208341 7.2545454 4.486433 8.2460938 3.7519531 C 9.2376419 3.0174732 10.615741 2.625 12 2.625 z M 12 6.625 C 12.361111 6.625 12.712848 6.7480091 12.958984 6.9667969 C 13.205121 7.1855846 13.375 7.4895837 13.375 8 C 13.375 8.2920833 13.208694 8.683939 12.865234 9.1660156 C 12.645471 9.4744728 12.308187 9.8591939 11.998047 10.224609 C 11.690003 9.8582462 11.353997 9.4722294 11.134766 9.1640625 C 10.791762 8.6819139 10.625 8.2916667 10.625 8 C 10.625 7.4895837 10.794879 7.1855846 11.041016 6.9667969 C 11.287152 6.7480091 11.638889 6.625 12 6.625 z M 9.5117188 7.1152344 C 9.4230969 7.3870996 9.375 7.6837749 9.375 8 C 9.375 8.7083333 9.7082383 9.3165704 10.115234 9.8886719 C 10.432975 10.335308 10.81076 10.773967 11.193359 11.228516 L 9.3769531 13.496094 C 8.3412009 12.062654 7.3887857 10.750633 6.9238281 9.1425781 C 7.6305399 8.2074886 8.5276054 7.5322964 9.5117188 7.1152344 z M 14.488281 7.1152344 C 15.468154 7.5306667 16.362856 8.2016055 17.068359 9.1308594 C 16.517493 10.981663 15.302124 12.433933 14.064453 14.130859 A 0.6250625 0.6250625 0 0 0 14.044922 14.160156 A 0.6250625 0.6250625 0 0 0 14.041016 14.166016 L 11.515625 17.605469 L 11.507812 17.615234 A 0.6250625 0.6250625 0 0 0 11.498047 17.626953 L 11.496094 17.630859 L 8.8203125 21.21875 A 0.6250625 0.6250625 0 0 0 8.8183594 21.220703 C 8.6915672 21.391363 8.4709051 21.425641 8.2988281 21.300781 L 6.4335938 19.947266 C 6.2556037 19.818096 6.2226848 19.587877 6.3574219 19.414062 L 9.8300781 14.929688 L 9.8339844 14.925781 A 0.625 0.625 0 0 0 9.8378906 14.919922 L 9.84375 14.912109 L 12.488281 11.611328 A 0.625 0.625 0 0 0 12.541016 11.535156 C 13.01414 10.970027 13.493321 10.43731 13.882812 9.890625 C 14.291371 9.3171986 14.625 8.7079167 14.625 8 C 14.625 7.6839173 14.576827 7.3870002 14.488281 7.1152344 z M 14.585938 15.533203 L 17.634766 19.414062 C 17.771848 19.588551 17.738819 19.819776 17.558594 19.949219 L 15.666016 21.308594 C 15.494902 21.431194 15.274984 21.396266 15.148438 21.228516 L 15.146484 21.228516 L 12.775391 18 L 14.585938 15.533203 z " />
</svg>
