<?xml version="1.0" encoding="UTF-8" standalone="no"?>
<svg
   width="24"
   height="24"
   viewBox="0 0 24 24"
   fill="none"
   stroke="currentColor"
   stroke-width="1.25"
   stroke-linecap="round"
   stroke-linejoin="round"
   version="1.1"
   id="svg3"
   sodipodi:docname=".tmp_rotate-cw-square.svg"
   xmlns:inkscape="http://www.inkscape.org/namespaces/inkscape"
   xmlns:sodipodi="http://sodipodi.sourceforge.net/DTD/sodipodi-0.dtd"
   xmlns="http://www.w3.org/2000/svg"
   xmlns:svg="http://www.w3.org/2000/svg">
  <defs
     id="defs3" />
  <sodipodi:namedview
     id="namedview3"
     pagecolor="#ffffff"
     bordercolor="#000000"
     borderopacity="0.25"
     inkscape:showpageshadow="2"
     inkscape:pageopacity="0.0"
     inkscape:pagecheckerboard="0"
     inkscape:deskcolor="#d1d1d1" />
  <path
     id="path1"
     style="baseline-shift:baseline;display:inline;overflow:visible;vector-effect:none;fill:#000000;stroke:none;stroke-linecap:butt;stroke-linejoin:miter;enable-background:accumulate;stop-color:#000000;stop-opacity:1;opacity:1"
     d="M 9 1.3769531 A 0.625 0.625 0 0 0 8.5585938 1.5585938 A 0.625 0.625 0 0 0 8.5585938 2.4414062 L 10.492188 4.375 L 6 4.375 C 4.5576554 4.375 3.375 5.5576554 3.375 7 L 3.375 10 A 0.625 0.625 0 0 0 4 10.625 A 0.625 0.625 0 0 0 4.625 10 L 4.625 7 C 4.625 6.2332056 5.2332056 5.625 6 5.625 L 10.492188 5.625 L 8.5585938 7.5585938 A 0.625 0.625 0 0 0 8.5585938 8.4414062 A 0.625 0.625 0 0 0 9.4414062 8.4414062 L 12.419922 5.4628906 A 0.625 0.625 0 0 0 12.441406 5.4414062 A 0.6250625 0.6250625 0 0 0 12.451172 5.4316406 A 0.625 0.625 0 0 0 12.496094 5.3808594 A 0.6250625 0.6250625 0 0 0 12.511719 5.3574219 A 0.625 0.625 0 0 0 12.541016 5.3125 A 0.6250625 0.6250625 0 0 0 12.542969 5.3085938 A 0.625 0.625 0 0 0 12.603516 5.1621094 A 0.6250625 0.6250625 0 0 0 12.619141 5.0859375 A 0.625 0.625 0 0 0 12.625 5 A 0.625 0.625 0 0 0 12.619141 4.9179688 A 0.6250625 0.6250625 0 0 0 12.619141 4.9140625 A 0.625 0.625 0 0 0 12.541016 4.6875 A 0.6250625 0.6250625 0 0 0 12.539062 4.6855469 A 0.625 0.625 0 0 0 12.496094 4.6191406 A 0.6250625 0.6250625 0 0 0 12.488281 4.6113281 A 0.625 0.625 0 0 0 12.441406 4.5585938 L 9.4414062 1.5585938 A 0.625 0.625 0 0 0 9 1.3769531 z M 16 4.375 A 0.625 0.625 0 0 0 15.375 5 A 0.625 0.625 0 0 0 16 5.625 L 18 5.625 C 18.766794 5.625 19.375 6.2332056 19.375 7 L 19.375 18 C 19.375 18.766794 18.766794 19.375 18 19.375 L 6 19.375 C 5.2332056 19.375 4.625 18.766794 4.625 18 L 4.625 14 A 0.625 0.625 0 0 0 4 13.375 A 0.625 0.625 0 0 0 3.375 14 L 3.375 18 C 3.375 19.442345 4.5576554 20.625 6 20.625 L 18 20.625 C 19.442345 20.625 20.625 19.442345 20.625 18 L 20.625 7 C 20.625 5.5576554 19.442345 4.375 18 4.375 L 16 4.375 z " />
</svg>
