<?xml version="1.0" encoding="UTF-8" standalone="no"?>
<svg
   width="24"
   height="24"
   viewBox="0 0 24 24"
   fill="none"
   stroke="currentColor"
   stroke-width="1.25"
   stroke-linecap="round"
   stroke-linejoin="round"
   version="1.1"
   id="svg6"
   sodipodi:docname=".tmp_ruler-dimension-line.svg"
   xmlns:inkscape="http://www.inkscape.org/namespaces/inkscape"
   xmlns:sodipodi="http://sodipodi.sourceforge.net/DTD/sodipodi-0.dtd"
   xmlns="http://www.w3.org/2000/svg"
   xmlns:svg="http://www.w3.org/2000/svg">
  <defs
     id="defs6" />
  <sodipodi:namedview
     id="namedview6"
     pagecolor="#ffffff"
     bordercolor="#000000"
     borderopacity="0.25"
     inkscape:showpageshadow="2"
     inkscape:pageopacity="0.0"
     inkscape:pagecheckerboard="0"
     inkscape:deskcolor="#d1d1d1" />
  <path
     id="path1"
     style="baseline-shift:baseline;display:inline;overflow:visible;vector-effect:none;fill:#000000;stroke:none;stroke-linecap:butt;stroke-linejoin:miter;enable-background:accumulate;stop-color:#000000;stop-opacity:1;opacity:1"
     d="M 4 3.375 A 0.625 0.625 0 0 0 3.375 4 L 3.375 8 A 0.625 0.625 0 0 0 4 8.625 A 0.625 0.625 0 0 0 4.625 8 L 4.625 6.625 L 19.375 6.625 L 19.375 8 A 0.625 0.625 0 0 0 20 8.625 A 0.625 0.625 0 0 0 20.625 8 L 20.625 4 A 0.625 0.625 0 0 0 20 3.375 A 0.625 0.625 0 0 0 19.375 4 L 19.375 5.375 L 4.625 5.375 L 4.625 4 A 0.625 0.625 0 0 0 4 3.375 z M 8 11.361328 A 0.625 0.625 0 0 0 7.8691406 11.375 L 4 11.375 C 3.1105608 11.375 2.375 12.110561 2.375 13 L 2.375 18 C 2.375 18.889439 3.1105608 19.625 4 19.625 L 20 19.625 C 20.889439 19.625 21.625 18.889439 21.625 18 L 21.625 13 C 21.625 12.110561 20.889439 11.375 20 11.375 L 16.130859 11.375 A 0.625 0.625 0 0 0 16 11.361328 A 0.625 0.625 0 0 0 15.869141 11.375 L 12.130859 11.375 A 0.625 0.625 0 0 0 12 11.361328 A 0.625 0.625 0 0 0 11.869141 11.375 L 8.1308594 11.375 A 0.625 0.625 0 0 0 8 11.361328 z M 4 12.625 L 7.375 12.625 L 7.375 15 A 0.625 0.625 0 0 0 8 15.625 A 0.625 0.625 0 0 0 8.625 15 L 8.625 12.625 L 11.375 12.625 L 11.375 15 A 0.625 0.625 0 0 0 12 15.625 A 0.625 0.625 0 0 0 12.625 15 L 12.625 12.625 L 15.375 12.625 L 15.375 15 A 0.625 0.625 0 0 0 16 15.625 A 0.625 0.625 0 0 0 16.625 15 L 16.625 12.625 L 20 12.625 C 20.218561 12.625 20.375 12.781439 20.375 13 L 20.375 18 C 20.375 18.218561 20.218561 18.375 20 18.375 L 4 18.375 C 3.7814392 18.375 3.625 18.218561 3.625 18 L 3.625 13 C 3.625 12.781439 3.7814392 12.625 4 12.625 z " />
</svg>
