<?xml version="1.0" encoding="UTF-8" standalone="no"?>
<svg
   width="24"
   height="24"
   viewBox="0 0 24 24"
   fill="none"
   stroke="currentColor"
   stroke-width="1.25"
   stroke-linecap="round"
   stroke-linejoin="round"
   version="1.1"
   id="svg5"
   sodipodi:docname=".tmp_ruler.svg"
   xmlns:inkscape="http://www.inkscape.org/namespaces/inkscape"
   xmlns:sodipodi="http://sodipodi.sourceforge.net/DTD/sodipodi-0.dtd"
   xmlns="http://www.w3.org/2000/svg"
   xmlns:svg="http://www.w3.org/2000/svg">
  <defs
     id="defs5" />
  <sodipodi:namedview
     id="namedview5"
     pagecolor="#ffffff"
     bordercolor="#000000"
     borderopacity="0.25"
     inkscape:showpageshadow="2"
     inkscape:pageopacity="0.0"
     inkscape:pagecheckerboard="0"
     inkscape:deskcolor="#d1d1d1" />
  <path
     id="path1"
     style="baseline-shift:baseline;display:inline;overflow:visible;vector-effect:none;fill:#000000;stroke:none;stroke-linecap:butt;stroke-linejoin:miter;enable-background:accumulate;stop-color:#000000;stop-opacity:1;opacity:1"
     d="M 7 1.3769531 C 6.2242828 1.3769531 5.4488119 1.6712204 4.859375 2.2578125 A 0.6250625 0.6250625 0 0 0 4.8574219 2.2578125 L 2.2578125 4.8574219 A 0.6250625 0.6250625 0 0 0 2.2578125 4.859375 C 1.0846284 6.0382489 1.0846284 7.9617511 2.2578125 9.140625 A 0.6250625 0.6250625 0 0 0 2.2578125 9.1425781 L 14.857422 21.740234 C 16.034319 22.921225 17.965681 22.921225 19.142578 21.740234 L 21.740234 19.142578 C 22.921225 17.965681 22.921225 16.034319 21.740234 14.857422 L 19.941406 13.058594 L 9.1425781 2.2578125 A 0.6250625 0.6250625 0 0 0 9.140625 2.2578125 C 8.551185 1.6712204 7.7757172 1.3769531 7 1.3769531 z M 7 2.6191406 C 7.454177 2.6191406 7.908991 2.7934965 8.2597656 3.1425781 L 9.6171875 4.5 L 8.0585938 6.0585938 A 0.625 0.625 0 0 0 8.0585938 6.9414062 A 0.625 0.625 0 0 0 8.9414062 6.9414062 L 10.5 5.3828125 L 12.617188 7.5 L 11.058594 9.0585938 A 0.625 0.625 0 0 0 11.058594 9.9414062 A 0.625 0.625 0 0 0 11.941406 9.9414062 L 13.5 8.3828125 L 15.617188 10.5 L 14.058594 12.058594 A 0.625 0.625 0 0 0 14.058594 12.941406 A 0.625 0.625 0 0 0 14.941406 12.941406 L 16.5 11.382812 L 18.617188 13.5 L 17.058594 15.058594 A 0.625 0.625 0 0 0 17.058594 15.941406 A 0.625 0.625 0 0 0 17.941406 15.941406 L 19.5 14.382812 L 20.857422 15.742188 A 0.6250625 0.6250625 0 0 0 20.859375 15.742188 C 21.560764 16.441145 21.560764 17.558855 20.859375 18.257812 A 0.6250625 0.6250625 0 0 0 20.857422 18.257812 L 18.257812 20.857422 A 0.6250625 0.6250625 0 0 0 18.257812 20.859375 C 17.558854 21.560764 16.441145 21.560764 15.742188 20.859375 A 0.6250625 0.6250625 0 0 0 15.742188 20.857422 L 3.1425781 8.2597656 L 3.1425781 8.2578125 C 2.4462597 7.556645 2.4462597 6.443355 3.1425781 5.7421875 L 3.1425781 5.7402344 L 5.7402344 3.1425781 C 6.091009 2.7934965 6.545823 2.6191406 7 2.6191406 z " />
</svg>
