<?xml version="1.0" encoding="UTF-8" standalone="no"?>
<svg
   width="24"
   height="24"
   viewBox="0 0 24 24"
   fill="none"
   stroke="currentColor"
   stroke-width="1.25"
   stroke-linecap="round"
   stroke-linejoin="round"
   version="1.1"
   id="svg3"
   sodipodi:docname=".tmp_sailboat.svg"
   xmlns:inkscape="http://www.inkscape.org/namespaces/inkscape"
   xmlns:sodipodi="http://sodipodi.sourceforge.net/DTD/sodipodi-0.dtd"
   xmlns="http://www.w3.org/2000/svg"
   xmlns:svg="http://www.w3.org/2000/svg">
  <defs
     id="defs3" />
  <sodipodi:namedview
     id="namedview3"
     pagecolor="#ffffff"
     bordercolor="#000000"
     borderopacity="0.25"
     inkscape:showpageshadow="2"
     inkscape:pageopacity="0.0"
     inkscape:pagecheckerboard="0"
     inkscape:deskcolor="#d1d1d1" />
  <path
     id="path1"
     style="baseline-shift:baseline;display:inline;overflow:visible;vector-effect:none;fill:#000000;stroke:none;stroke-linecap:butt;stroke-linejoin:miter;enable-background:accumulate;stop-color:#000000;stop-opacity:1;opacity:1"
     d="M 10 1.375 A 0.625 0.625 0 0 0 9.8691406 1.3886719 C 9.8451363 1.3906684 9.8207684 1.3934525 9.796875 1.3964844 C 9.3380666 1.4547027 8.9028057 1.7027959 8.6328125 2.1230469 L 2.6621094 11.078125 C 1.9402934 12.126754 2.7269561 13.625359 4 13.625 L 9.375 13.625 L 9.375 16.375 L 4 16.375 C 3.1099402 16.375 2.375 17.10994 2.375 18 C 2.375 20.546914 4.4530859 22.625 7 22.625 L 17 22.625 C 19.546914 22.625 21.625 20.546914 21.625 18 C 21.625 17.10994 20.89006 16.375 20 16.375 L 10.625 16.375 L 10.625 13.625 L 20 13.625 C 20.719789 13.624266 21.304067 13.150422 21.521484 12.570312 C 21.738719 11.99069 21.609214 11.252982 21.068359 10.779297 L 11.105469 1.8085938 L 11.103516 1.8085938 C 10.823685 1.5499283 10.475911 1.4114437 10.123047 1.3867188 A 0.625 0.625 0 0 0 10 1.375 z M 10.625 3.0585938 L 20.238281 11.710938 A 0.6250625 0.6250625 0 0 0 20.246094 11.716797 C 20.399247 11.850632 20.403686 11.986572 20.349609 12.130859 C 20.295505 12.275109 20.20339 12.374793 20 12.375 L 10.625 12.375 L 10.625 3.0585938 z M 9.375 3.2636719 L 9.375 12.375 L 4 12.375 C 3.6619078 12.375095 3.4997079 12.065602 3.6914062 11.787109 A 0.6250625 0.6250625 0 0 0 3.6953125 11.779297 L 9.375 3.2636719 z M 4 17.625 L 20 17.625 C 20.21451 17.625 20.375 17.78549 20.375 18 C 20.375 19.871364 18.871364 21.375 17 21.375 L 7 21.375 C 5.1286361 21.375 3.625 19.871364 3.625 18 C 3.625 17.78549 3.7854903 17.625 4 17.625 z " />
</svg>
