<?xml version="1.0" encoding="UTF-8" standalone="no"?>
<svg
   width="24"
   height="24"
   viewBox="0 0 24 24"
   fill="none"
   stroke="currentColor"
   stroke-width="1.25"
   stroke-linecap="round"
   stroke-linejoin="round"
   version="1.1"
   id="svg4"
   sodipodi:docname=".tmp_saudi-riyal.svg"
   xmlns:inkscape="http://www.inkscape.org/namespaces/inkscape"
   xmlns:sodipodi="http://sodipodi.sourceforge.net/DTD/sodipodi-0.dtd"
   xmlns="http://www.w3.org/2000/svg"
   xmlns:svg="http://www.w3.org/2000/svg">
  <defs
     id="defs4" />
  <sodipodi:namedview
     id="namedview4"
     pagecolor="#ffffff"
     bordercolor="#000000"
     borderopacity="0.25"
     inkscape:showpageshadow="2"
     inkscape:pageopacity="0.0"
     inkscape:pagecheckerboard="0"
     inkscape:deskcolor="#d1d1d1" />
  <path
     id="path1"
     style="baseline-shift:baseline;display:inline;overflow:visible;vector-effect:none;fill:#000000;stroke:none;stroke-linecap:butt;stroke-linejoin:miter;enable-background:accumulate;stop-color:#000000;stop-opacity:1;opacity:1"
     d="M 10 1.375 A 0.625 0.625 0 0 0 9.375 2 L 9.375 11.683594 L 3.8671875 12.888672 A 0.625 0.625 0 0 0 3.3886719 13.632812 A 0.625 0.625 0 0 0 4.1328125 14.111328 L 9.375 12.964844 L 9.375 16 A 0.6250625 0.6250625 0 0 0 9.375 16.017578 C 9.393639 16.655093 8.9801966 17.216277 8.3652344 17.384766 L 8.3632812 17.384766 L 2.828125 18.744141 A 0.625 0.625 0 0 0 2.3710938 19.5 A 0.625 0.625 0 0 0 3.1269531 19.957031 L 8.6757812 18.595703 A 0.6250625 0.6250625 0 0 0 8.6914062 18.591797 C 9.8578685 18.273723 10.660333 17.190955 10.625 15.982422 L 10.625 12.691406 L 13.875 11.980469 L 13.875 15.220703 C 13.875288 16.262324 14.881918 17.048947 15.892578 16.796875 L 20.140625 15.808594 A 0.625 0.625 0 0 0 20.609375 15.058594 A 0.625 0.625 0 0 0 19.859375 14.591797 L 15.599609 15.582031 A 0.6250625 0.6250625 0 0 0 15.589844 15.583984 C 15.338735 15.646576 15.125072 15.479541 15.125 15.220703 L 15.125 11.707031 L 20.132812 10.611328 A 0.625 0.625 0 0 0 20.611328 9.8671875 A 0.625 0.625 0 0 0 19.867188 9.3886719 L 15.125 10.425781 L 15.125 4 A 0.625 0.625 0 0 0 14.5 3.375 A 0.625 0.625 0 0 0 13.875 4 L 13.875 10.699219 L 10.625 11.410156 L 10.625 2 A 0.625 0.625 0 0 0 10 1.375 z M 20.029297 18.875 A 0.625 0.625 0 0 0 19.867188 18.888672 L 14.367188 20.089844 A 0.625 0.625 0 0 0 13.888672 20.833984 A 0.625 0.625 0 0 0 14.632812 21.310547 L 20.132812 20.111328 A 0.625 0.625 0 0 0 20.611328 19.367188 A 0.625 0.625 0 0 0 20.029297 18.875 z " />
</svg>
