<?xml version="1.0" encoding="UTF-8" standalone="no"?>
<svg
   width="24"
   height="24"
   viewBox="0 0 24 24"
   fill="none"
   stroke="currentColor"
   stroke-width="1.25"
   stroke-linecap="round"
   stroke-linejoin="round"
   version="1.1"
   id="svg7"
   sodipodi:docname=".tmp_scan-barcode.svg"
   xmlns:inkscape="http://www.inkscape.org/namespaces/inkscape"
   xmlns:sodipodi="http://sodipodi.sourceforge.net/DTD/sodipodi-0.dtd"
   xmlns="http://www.w3.org/2000/svg"
   xmlns:svg="http://www.w3.org/2000/svg">
  <defs
     id="defs7" />
  <sodipodi:namedview
     id="namedview7"
     pagecolor="#ffffff"
     bordercolor="#000000"
     borderopacity="0.25"
     inkscape:showpageshadow="2"
     inkscape:pageopacity="0.0"
     inkscape:pagecheckerboard="0"
     inkscape:deskcolor="#d1d1d1" />
  <path
     id="path1"
     style="baseline-shift:baseline;display:inline;overflow:visible;vector-effect:none;fill:#000000;stroke:none;stroke-linecap:butt;stroke-linejoin:miter;enable-background:accumulate;stop-color:#000000;stop-opacity:1;opacity:1"
     d="M 5 2.375 C 3.5576554 2.375 2.375 3.5576554 2.375 5 L 2.375 7 A 0.625 0.625 0 0 0 3 7.625 A 0.625 0.625 0 0 0 3.625 7 L 3.625 5 C 3.625 4.2332056 4.2332056 3.625 5 3.625 L 7 3.625 A 0.625 0.625 0 0 0 7.625 3 A 0.625 0.625 0 0 0 7 2.375 L 5 2.375 z M 17 2.375 A 0.625 0.625 0 0 0 16.375 3 A 0.625 0.625 0 0 0 17 3.625 L 19 3.625 C 19.766794 3.625 20.375 4.2332056 20.375 5 L 20.375 7 A 0.625 0.625 0 0 0 21 7.625 A 0.625 0.625 0 0 0 21.625 7 L 21.625 5 C 21.625 3.5576554 20.442345 2.375 19 2.375 L 17 2.375 z M 8 6.375 A 0.625 0.625 0 0 0 7.375 7 L 7.375 17 A 0.625 0.625 0 0 0 8 17.625 A 0.625 0.625 0 0 0 8.625 17 L 8.625 7 A 0.625 0.625 0 0 0 8 6.375 z M 12 6.375 A 0.625 0.625 0 0 0 11.375 7 L 11.375 17 A 0.625 0.625 0 0 0 12 17.625 A 0.625 0.625 0 0 0 12.625 17 L 12.625 7 A 0.625 0.625 0 0 0 12 6.375 z M 17 6.375 A 0.625 0.625 0 0 0 16.375 7 L 16.375 17 A 0.625 0.625 0 0 0 17 17.625 A 0.625 0.625 0 0 0 17.625 17 L 17.625 7 A 0.625 0.625 0 0 0 17 6.375 z M 3 16.375 A 0.625 0.625 0 0 0 2.375 17 L 2.375 19 C 2.375 20.442345 3.5576554 21.625 5 21.625 L 7 21.625 A 0.625 0.625 0 0 0 7.625 21 A 0.625 0.625 0 0 0 7 20.375 L 5 20.375 C 4.2332056 20.375 3.625 19.766794 3.625 19 L 3.625 17 A 0.625 0.625 0 0 0 3 16.375 z M 21 16.375 A 0.625 0.625 0 0 0 20.375 17 L 20.375 19 C 20.375 19.766794 19.766794 20.375 19 20.375 L 17 20.375 A 0.625 0.625 0 0 0 16.375 21 A 0.625 0.625 0 0 0 17 21.625 L 19 21.625 C 20.442345 21.625 21.625 20.442345 21.625 19 L 21.625 17 A 0.625 0.625 0 0 0 21 16.375 z " />
</svg>
