<?xml version="1.0" encoding="UTF-8" standalone="no"?>
<svg
   width="24"
   height="24"
   viewBox="0 0 24 24"
   fill="none"
   stroke="currentColor"
   stroke-width="1.25"
   stroke-linecap="round"
   stroke-linejoin="round"
   version="1.1"
   id="svg2"
   sodipodi:docname=".tmp_send.svg"
   xmlns:inkscape="http://www.inkscape.org/namespaces/inkscape"
   xmlns:sodipodi="http://sodipodi.sourceforge.net/DTD/sodipodi-0.dtd"
   xmlns="http://www.w3.org/2000/svg"
   xmlns:svg="http://www.w3.org/2000/svg">
  <defs
     id="defs2" />
  <sodipodi:namedview
     id="namedview2"
     pagecolor="#ffffff"
     bordercolor="#000000"
     borderopacity="0.25"
     inkscape:showpageshadow="2"
     inkscape:pageopacity="0.0"
     inkscape:pagecheckerboard="0"
     inkscape:deskcolor="#d1d1d1" />
  <path
     id="path1"
     style="baseline-shift:baseline;display:inline;overflow:visible;vector-effect:none;fill:#000000;stroke:none;stroke-linecap:butt;stroke-linejoin:miter;enable-background:accumulate;stop-color:#000000;stop-opacity:1;opacity:1"
     d="M 21.505859 1.3769531 C 21.38052 1.3733547 21.252746 1.3933122 21.125 1.4394531 L 2.1347656 7.9355469 C 1.6707214 8.0946836 1.3859391 8.5436237 1.375 8.9707031 C 1.3640609 9.3977825 1.6267424 9.8622376 2.0820312 10.044922 L 10.011719 13.224609 C 10.185979 13.294378 10.342824 13.397402 10.472656 13.527344 C 10.602489 13.657286 10.705308 13.814147 10.775391 13.988281 L 13.955078 21.917969 C 14.137762 22.373258 14.602217 22.635939 15.029297 22.625 C 15.456376 22.61406 15.905316 22.329279 16.064453 21.865234 L 22.560547 2.875 C 22.682947 2.536124 22.616566 2.1913613 22.4375 1.9179688 A 0.625 0.625 0 0 0 22.296875 1.7050781 A 0.625 0.625 0 0 0 22.085938 1.5664062 C 21.914644 1.4531663 21.714759 1.3829506 21.505859 1.3769531 z M 19.955078 3.1621094 L 10.861328 12.255859 C 10.739472 12.181991 10.610611 12.118122 10.476562 12.064453 L 2.859375 9.0097656 L 19.955078 3.1621094 z M 20.835938 4.0507812 L 14.990234 21.140625 L 11.935547 13.521484 C 11.88186 13.388089 11.817799 13.259987 11.744141 13.138672 L 20.835938 4.0507812 z " />
</svg>
