<?xml version="1.0" encoding="UTF-8" standalone="no"?>
<svg
   width="24"
   height="24"
   viewBox="0 0 24 24"
   fill="none"
   stroke="currentColor"
   stroke-width="1.25"
   stroke-linecap="round"
   stroke-linejoin="round"
   version="1.1"
   id="svg4"
   sodipodi:docname=".tmp_share-2.svg"
   xmlns:inkscape="http://www.inkscape.org/namespaces/inkscape"
   xmlns:sodipodi="http://sodipodi.sourceforge.net/DTD/sodipodi-0.dtd"
   xmlns="http://www.w3.org/2000/svg"
   xmlns:svg="http://www.w3.org/2000/svg">
  <defs
     id="defs4" />
  <sodipodi:namedview
     id="namedview4"
     pagecolor="#ffffff"
     bordercolor="#000000"
     borderopacity="0.25"
     inkscape:showpageshadow="2"
     inkscape:pageopacity="0.0"
     inkscape:pagecheckerboard="0"
     inkscape:deskcolor="#d1d1d1" />
  <path
     id="circle1"
     style="baseline-shift:baseline;display:inline;overflow:visible;vector-effect:none;fill:#000000;stroke:none;stroke-linecap:butt;stroke-linejoin:miter;enable-background:accumulate;stop-color:#000000;stop-opacity:1;opacity:1"
     d="M 18 1.375 C 16.005371 1.375 14.375 3.0053707 14.375 5 C 14.375 5.4421931 14.455101 5.8671722 14.601562 6.2597656 L 8.7675781 9.6640625 C 8.101411 8.8766846 7.1065589 8.375 6 8.375 C 4.0053707 8.375 2.375 10.005371 2.375 12 C 2.375 13.994629 4.0053707 15.625 6 15.625 C 7.106119 15.625 8.0994618 15.122775 8.765625 14.335938 L 14.603516 17.736328 C 14.456053 18.1301 14.375 18.556223 14.375 19 C 14.375 20.994629 16.005371 22.625 18 22.625 C 19.994629 22.625 21.625 20.994629 21.625 19 C 21.625 17.005371 19.994629 15.375 18 15.375 C 16.895667 15.375 15.902472 15.875509 15.236328 16.660156 L 9.3984375 13.257812 C 9.5447913 12.865346 9.625 12.442022 9.625 12 C 9.625 11.557807 9.5448991 11.132828 9.3984375 10.740234 L 15.232422 7.3359375 C 15.898589 8.1233155 16.893441 8.625 18 8.625 C 19.994629 8.625 21.625 6.9946293 21.625 5 C 21.625 3.0053707 19.994629 1.375 18 1.375 z M 18 2.625 C 19.319079 2.625 20.375 3.6809208 20.375 5 C 20.375 6.3190792 19.319079 7.375 18 7.375 C 17.143568 7.375 16.39806 6.9291217 15.980469 6.2558594 A 0.625 0.625 0 0 0 15.949219 6.1953125 A 0.625 0.625 0 0 0 15.912109 6.1386719 C 15.728662 5.8010748 15.625 5.4139149 15.625 5 C 15.625 3.6809208 16.680921 2.625 18 2.625 z M 6 9.625 C 6.8564324 9.625 7.6019403 10.070878 8.0195312 10.744141 A 0.625 0.625 0 0 0 8.0507812 10.804688 A 0.625 0.625 0 0 0 8.0878906 10.861328 C 8.2713382 11.198925 8.375 11.586085 8.375 12 C 8.375 12.413916 8.2713393 12.801074 8.0878906 13.138672 A 0.625 0.625 0 0 0 8.0507812 13.195312 A 0.625 0.625 0 0 0 8.0195312 13.257812 C 7.6018053 13.930433 6.855946 14.375 6 14.375 C 4.6809208 14.375 3.625 13.319079 3.625 12 C 3.625 10.680921 4.6809208 9.625 6 9.625 z M 18 16.625 C 19.319079 16.625 20.375 17.680921 20.375 19 C 20.375 20.319079 19.319079 21.375 18 21.375 C 16.680921 21.375 15.625 20.319079 15.625 19 C 15.625 18.603479 15.721327 18.229771 15.890625 17.902344 A 0.625 0.625 0 0 0 15.960938 17.804688 A 0.625 0.625 0 0 0 16.011719 17.695312 C 16.434579 17.049313 17.164348 16.625 18 16.625 z " />
</svg>
