<?xml version="1.0" encoding="UTF-8" standalone="no"?>
<svg
   width="24"
   height="24"
   viewBox="0 0 24 24"
   fill="none"
   stroke="currentColor"
   stroke-width="1.25"
   stroke-linecap="round"
   stroke-linejoin="round"
   version="1.1"
   id="svg3"
   sodipodi:docname=".tmp_shield-question-mark.svg"
   xmlns:inkscape="http://www.inkscape.org/namespaces/inkscape"
   xmlns:sodipodi="http://sodipodi.sourceforge.net/DTD/sodipodi-0.dtd"
   xmlns="http://www.w3.org/2000/svg"
   xmlns:svg="http://www.w3.org/2000/svg">
  <defs
     id="defs3" />
  <sodipodi:namedview
     id="namedview3"
     pagecolor="#ffffff"
     bordercolor="#000000"
     borderopacity="0.25"
     inkscape:showpageshadow="2"
     inkscape:pageopacity="0.0"
     inkscape:pagecheckerboard="0"
     inkscape:deskcolor="#d1d1d1" />
  <path
     id="path1"
     style="baseline-shift:baseline;display:inline;overflow:visible;vector-effect:none;fill:#000000;stroke:none;stroke-linecap:butt;stroke-linejoin:miter;enable-background:accumulate;stop-color:#000000;stop-opacity:1;opacity:1"
     d="M 12 1.3769531 C 11.584037 1.3769531 11.168042 1.5192806 10.833984 1.8046875 A 0.6250625 0.6250625 0 0 0 10.828125 1.8085938 C 9.1888068 3.2406739 6.75 4.375 5 4.375 C 4.1099402 4.375 3.375 5.1099402 3.375 6 L 3.375 13 C 3.375 15.645833 4.3283707 17.710182 5.8242188 19.242188 C 7.3163425 20.77038 9.3176755 21.787025 11.451172 22.525391 L 11.453125 22.525391 C 11.802757 22.655133 12.187777 22.660711 12.541016 22.541016 A 0.6250625 0.6250625 0 0 0 12.544922 22.541016 C 14.678897 21.797202 16.683479 20.775273 18.177734 19.242188 C 19.671949 17.709098 20.625 15.645833 20.625 13 L 20.625 6 C 20.625 5.1099402 19.89006 4.375 19 4.375 C 17.247917 4.375 14.821606 3.2509296 13.171875 1.8085938 A 0.6250625 0.6250625 0 0 0 13.166016 1.8046875 C 12.831999 1.5192844 12.415963 1.3769531 12 1.3769531 z M 12 2.6230469 C 12.12495 2.6230469 12.2499 2.6673336 12.353516 2.7558594 C 14.2033 4.3709744 16.754533 5.625 19 5.625 C 19.21451 5.625 19.375 5.7854903 19.375 6 L 19.375 13 C 19.375 15.354167 18.578948 17.039725 17.283203 18.369141 C 15.988366 19.697625 14.162998 20.651383 12.138672 21.357422 C 12.056872 21.385142 11.969611 21.383656 11.888672 21.353516 A 0.6250625 0.6250625 0 0 0 11.873047 21.349609 C 9.8425375 20.648412 8.0154018 19.697135 6.71875 18.369141 C 5.4220982 17.041146 4.625 15.354167 4.625 13 L 4.625 6 C 4.625 5.7854903 4.7854903 5.625 5 5.625 C 7.25 5.625 9.8097495 4.3579161 11.650391 2.75 L 11.646484 2.7558594 C 11.7501 2.6673336 11.87505 2.6230469 12 2.6230469 z M 11.939453 6.3984375 C 10.540455 6.3892152 9.0972462 7.1734268 8.5117188 8.7871094 A 0.625 0.625 0 0 0 8.8867188 9.5878906 A 0.625 0.625 0 0 0 9.6875 9.2128906 C 10.159235 7.9128138 11.267557 7.5004193 12.322266 7.6816406 C 13.376411 7.8627653 14.283243 8.620382 14.294922 10.001953 C 14.293935 10.688673 13.743614 11.284205 13.074219 11.730469 C 12.404224 12.177132 11.722656 12.40625 11.722656 12.40625 A 0.625 0.625 0 0 0 11.326172 13.197266 A 0.625 0.625 0 0 0 12.117188 13.59375 C 12.117188 13.59375 12.937573 13.322868 13.767578 12.769531 C 14.597583 12.216195 15.544922 11.3125 15.544922 10 A 0.6250625 0.6250625 0 0 0 15.544922 9.9960938 C 15.529701 8.0342953 14.09678 6.7198277 12.533203 6.4511719 C 12.337756 6.4175899 12.13931 6.399755 11.939453 6.3984375 z M 12 16.375 A 0.625 0.625 0 0 0 11.375 17 A 0.625 0.625 0 0 0 12 17.625 L 12.009766 17.625 A 0.625 0.625 0 0 0 12.634766 17 A 0.625 0.625 0 0 0 12.009766 16.375 L 12 16.375 z " />
</svg>
