<?xml version="1.0" encoding="UTF-8" standalone="no"?>
<svg
   width="24"
   height="24"
   viewBox="0 0 24 24"
   fill="none"
   stroke="currentColor"
   stroke-width="1.25"
   stroke-linecap="round"
   stroke-linejoin="round"
   version="1.1"
   id="svg3"
   sodipodi:docname=".tmp_sparkles.svg"
   xmlns:inkscape="http://www.inkscape.org/namespaces/inkscape"
   xmlns:sodipodi="http://sodipodi.sourceforge.net/DTD/sodipodi-0.dtd"
   xmlns="http://www.w3.org/2000/svg"
   xmlns:svg="http://www.w3.org/2000/svg">
  <defs
     id="defs3" />
  <sodipodi:namedview
     id="namedview3"
     pagecolor="#ffffff"
     bordercolor="#000000"
     borderopacity="0.25"
     inkscape:showpageshadow="2"
     inkscape:pageopacity="0.0"
     inkscape:pagecheckerboard="0"
     inkscape:deskcolor="#d1d1d1" />
  <path
     id="path1"
     style="baseline-shift:baseline;display:inline;overflow:visible;vector-effect:none;fill:#000000;stroke:none;stroke-linecap:butt;stroke-linejoin:miter;enable-background:accumulate;stop-color:#000000;stop-opacity:1;opacity:1"
     d="M 12 1.3730469 C 11.302021 1.3730469 10.556951 1.8714712 10.402344 2.6992188 L 9.3515625 8.2558594 C 9.246176 8.8137427 8.8137427 9.246176 8.2558594 9.3515625 L 2.6972656 10.402344 C 1.8706016 10.557698 1.3730469 11.30253 1.3730469 12 C 1.3730469 12.69747 1.8706016 13.442302 2.6972656 13.597656 L 8.2558594 14.648438 C 8.8137427 14.753823 9.246176 15.186257 9.3515625 15.744141 L 10.402344 21.302734 C 10.557698 22.129398 11.30253 22.626953 12 22.626953 C 12.69747 22.626953 13.442302 22.129398 13.597656 21.302734 L 13.597656 21.300781 L 14.648438 15.744141 C 14.753823 15.186257 15.186257 14.753824 15.744141 14.648438 L 21.300781 13.597656 C 22.128529 13.443096 22.626953 12.697979 22.626953 12 C 22.626953 11.30253 22.129398 10.557698 21.302734 10.402344 L 21.300781 10.402344 L 15.744141 9.3515625 C 15.186257 9.246176 14.753824 8.8137427 14.648438 8.2558594 L 13.597656 2.6992188 L 13.597656 2.6972656 C 13.442302 1.8705984 12.69747 1.3730469 12 1.3730469 z M 20 1.375 A 0.625 0.625 0 0 0 19.375 2 L 19.375 3.375 L 18 3.375 A 0.625 0.625 0 0 0 17.375 4 A 0.625 0.625 0 0 0 18 4.625 L 19.375 4.625 L 19.375 6 A 0.625 0.625 0 0 0 20 6.625 A 0.625 0.625 0 0 0 20.625 6 L 20.625 4.625 L 22 4.625 A 0.625 0.625 0 0 0 22.625 4 A 0.625 0.625 0 0 0 22 3.375 L 20.625 3.375 L 20.625 2 A 0.625 0.625 0 0 0 20 1.375 z M 12 2.6230469 C 12.183363 2.6230469 12.320432 2.6689089 12.369141 2.9296875 L 13.419922 8.4882812 C 13.620064 9.5477713 14.452229 10.379936 15.511719 10.580078 L 21.070312 11.630859 C 21.331091 11.679569 21.376953 11.816637 21.376953 12 C 21.376953 12.183363 21.331093 12.320432 21.070312 12.369141 L 15.511719 13.419922 C 14.452229 13.620064 13.620064 14.452229 13.419922 15.511719 L 12.369141 21.070312 C 12.320432 21.331091 12.183363 21.376953 12 21.376953 C 11.816637 21.376953 11.679568 21.331093 11.630859 21.070312 L 10.580078 15.511719 C 10.379936 14.452229 9.5477713 13.620064 8.4882812 13.419922 L 2.9296875 12.369141 C 2.6689091 12.320432 2.6230469 12.183363 2.6230469 12 C 2.6230469 11.816637 2.6689089 11.679568 2.9296875 11.630859 L 8.4882812 10.580078 C 9.5477713 10.379936 10.379936 9.5477713 10.580078 8.4882812 L 11.630859 2.9296875 C 11.679568 2.6689091 11.816637 2.6230469 12 2.6230469 z M 4 17.375 C 2.5576554 17.375 1.375 18.557655 1.375 20 C 1.375 21.442345 2.5576554 22.625 4 22.625 C 5.4423446 22.625 6.625 21.442345 6.625 20 C 6.625 18.557655 5.4423446 17.375 4 17.375 z M 4 18.625 C 4.7667944 18.625 5.375 19.233206 5.375 20 C 5.375 20.766794 4.7667944 21.375 4 21.375 C 3.2332056 21.375 2.625 20.766794 2.625 20 C 2.625 19.233206 3.2332056 18.625 4 18.625 z " />
</svg>
