<?xml version="1.0" encoding="UTF-8" standalone="no"?>
<svg
   width="24"
   height="24"
   viewBox="0 0 24 24"
   fill="none"
   stroke="currentColor"
   stroke-width="1.25"
   stroke-linecap="round"
   stroke-linejoin="round"
   version="1.1"
   id="svg2"
   sodipodi:docname=".tmp_spool.svg"
   xmlns:inkscape="http://www.inkscape.org/namespaces/inkscape"
   xmlns:sodipodi="http://sodipodi.sourceforge.net/DTD/sodipodi-0.dtd"
   xmlns="http://www.w3.org/2000/svg"
   xmlns:svg="http://www.w3.org/2000/svg">
  <defs
     id="defs2" />
  <sodipodi:namedview
     id="namedview2"
     pagecolor="#ffffff"
     bordercolor="#000000"
     borderopacity="0.25"
     inkscape:showpageshadow="2"
     inkscape:pageopacity="0.0"
     inkscape:pagecheckerboard="0"
     inkscape:deskcolor="#d1d1d1" />
  <path
     id="path1"
     style="baseline-shift:baseline;display:inline;overflow:visible;vector-effect:none;fill:#000000;stroke:none;stroke-linecap:butt;stroke-linejoin:miter;enable-background:accumulate;stop-color:#000000;stop-opacity:1;opacity:1"
     d="M 5 2.375 C 3.5471812 2.3739526 2.5654771 3.4708164 2.4003906 4.6308594 C 2.2353042 5.7909024 2.8721449 7.1171952 4.2675781 7.5214844 A 0.6250625 0.6250625 0 0 0 4.2695312 7.5214844 L 5.3828125 7.8417969 C 5.9734755 8.0130727 6.3753467 8.547115 6.375 9.1621094 L 6.375 15.871094 L 4.2675781 16.482422 A 0.6250625 0.6250625 0 0 0 4.265625 16.482422 C 2.8841008 16.890237 2.2491895 18.205643 2.4082031 19.359375 C 2.5672168 20.513107 3.5342741 21.606109 4.9746094 21.625 A 0.6250625 0.6250625 0 0 0 4.9824219 21.625 L 19 21.625 C 20.452819 21.626 21.434523 20.529184 21.599609 19.369141 C 21.764696 18.209098 21.127855 16.882805 19.732422 16.478516 A 0.6250625 0.6250625 0 0 0 19.730469 16.478516 L 18.617188 16.158203 L 18.615234 16.158203 C 18.025559 15.986415 17.624654 15.452318 17.625 14.837891 L 17.625 8.1289062 L 19.732422 7.5175781 A 0.6250625 0.6250625 0 0 0 19.734375 7.5175781 C 21.115852 7.1097627 21.750811 5.7943575 21.591797 4.640625 C 21.432783 3.4868925 20.465726 2.3938915 19.025391 2.375 A 0.6250625 0.6250625 0 0 0 19.017578 2.375 L 5 2.375 z M 5 3.625 L 19.009766 3.625 C 19.862975 3.636191 20.265942 4.1771012 20.353516 4.8125 C 20.441086 5.4478988 20.199231 6.0767822 19.380859 6.3183594 L 16.837891 7.0566406 L 7.625 9.7265625 L 7.625 9.1640625 L 7.625 9.1621094 C 7.6247942 7.9969712 6.8496504 6.9651565 5.7304688 6.640625 A 0.6250625 0.6250625 0 0 0 5.7285156 6.640625 L 4.6152344 6.3203125 C 3.7864136 6.080184 3.5456727 5.4464106 3.6367188 4.8066406 C 3.7277647 4.1668707 4.1370949 3.6243779 5 3.625 z M 16.375 8.4921875 L 16.375 12.970703 L 7.625 15.507812 L 7.625 11.029297 L 16.375 8.4921875 z M 16.375 14.273438 L 16.375 14.837891 C 16.375206 16.003026 17.15035 17.034843 18.269531 17.359375 A 0.6250625 0.6250625 0 0 0 18.271484 17.359375 L 19.384766 17.679688 C 20.213586 17.919816 20.454327 18.553589 20.363281 19.193359 C 20.272188 19.833129 19.862905 20.375622 19 20.375 L 4.9902344 20.375 C 4.1370245 20.36381 3.7340585 19.822899 3.6464844 19.1875 C 3.5589104 18.552101 3.8007686 17.923218 4.6191406 17.681641 L 7.1386719 16.951172 L 7.2089844 16.931641 A 0.625 0.625 0 0 0 7.2148438 16.929688 L 16.375 14.273438 z " />
</svg>
