<?xml version="1.0" encoding="UTF-8" standalone="no"?>
<svg
   width="24"
   height="24"
   viewBox="0 0 24 24"
   fill="none"
   stroke="currentColor"
   stroke-width="1.25"
   stroke-linecap="round"
   stroke-linejoin="round"
   version="1.1"
   id="svg3"
   sodipodi:docname=".tmp_sprout.svg"
   xmlns:inkscape="http://www.inkscape.org/namespaces/inkscape"
   xmlns:sodipodi="http://sodipodi.sourceforge.net/DTD/sodipodi-0.dtd"
   xmlns="http://www.w3.org/2000/svg"
   xmlns:svg="http://www.w3.org/2000/svg">
  <defs
     id="defs3" />
  <sodipodi:namedview
     id="namedview3"
     pagecolor="#ffffff"
     bordercolor="#000000"
     borderopacity="0.25"
     inkscape:showpageshadow="2"
     inkscape:pageopacity="0.0"
     inkscape:pagecheckerboard="0"
     inkscape:deskcolor="#d1d1d1" />
  <path
     id="path1"
     style="baseline-shift:baseline;display:inline;overflow:visible;vector-effect:none;fill:#000000;stroke:none;stroke-linecap:butt;stroke-linejoin:miter;enable-background:accumulate;stop-color:#000000;stop-opacity:1;opacity:1"
     d="M 18 2.375 C 15.453086 2.375 13.375 4.4530859 13.375 7 L 13.375 9.2988281 C 12.871592 9.6574589 12.432582 10.100966 12.095703 10.613281 C 11.103852 8.5210479 8.8582907 7.2437382 6.5820312 7.3925781 C 5.5659346 7.4590186 4.544182 7.8106135 3.625 8.5 A 0.625 0.625 0 0 0 3.5839844 8.7910156 A 0.625 0.625 0 0 0 3.375 9 C 3.375 13.227715 7.8791828 15.819013 11.462891 14.060547 C 11.56573 14.677297 11.742828 15.206998 11.90625 15.697266 C 12.15625 16.447266 12.375 17.104167 12.375 18 C 12.375 18.844838 12.130121 19.669142 11.673828 20.375 L 5 20.375 A 0.625 0.625 0 0 0 4.375 21 A 0.625 0.625 0 0 0 5 21.625 L 12.007812 21.625 L 19 21.625 A 0.625 0.625 0 0 0 19.625 21 A 0.625 0.625 0 0 0 19 20.375 L 13.099609 20.375 C 13.444098 19.635351 13.625 18.825165 13.625 18 C 13.625 16.895833 13.34375 16.052734 13.09375 15.302734 C 12.84375 14.552734 12.625 13.895833 12.625 13 C 12.625 11.128636 14.128636 9.625 16 9.625 C 18.546914 9.625 20.625 7.5469141 20.625 5 L 20.625 3.5 C 20.625 2.8860826 20.113917 2.375 19.5 2.375 L 18 2.375 z M 18 3.625 L 19.375 3.625 L 19.375 5 C 19.375 6.8713639 17.871364 8.375 16 8.375 C 15.512777 8.375 15.066643 8.5134659 14.625 8.6542969 L 14.625 7 C 14.625 5.1286361 16.128636 3.625 18 3.625 z M 7.1210938 8.6015625 C 9.2127571 8.6574023 11.068661 10.286633 11.271484 12.634766 C 8.5028077 14.361469 5.0092874 12.615791 4.7285156 9.3652344 C 5.3638247 8.9690197 6.0268565 8.6614489 6.6992188 8.6113281 C 6.8403308 8.600809 6.9816495 8.5978398 7.1210938 8.6015625 z " />
</svg>
