<?xml version="1.0" encoding="UTF-8" standalone="no"?>
<svg
   width="24"
   height="24"
   viewBox="0 0 24 24"
   fill="none"
   stroke="currentColor"
   stroke-width="1.25"
   stroke-linecap="round"
   stroke-linejoin="round"
   version="1.1"
   id="svg3"
   sodipodi:docname=".tmp_square-arrow-out-down-right.svg"
   xmlns:inkscape="http://www.inkscape.org/namespaces/inkscape"
   xmlns:sodipodi="http://sodipodi.sourceforge.net/DTD/sodipodi-0.dtd"
   xmlns="http://www.w3.org/2000/svg"
   xmlns:svg="http://www.w3.org/2000/svg">
  <defs
     id="defs3" />
  <sodipodi:namedview
     id="namedview3"
     pagecolor="#ffffff"
     bordercolor="#000000"
     borderopacity="0.25"
     inkscape:showpageshadow="2"
     inkscape:pageopacity="0.0"
     inkscape:pagecheckerboard="0"
     inkscape:deskcolor="#d1d1d1" />
  <path
     id="path1"
     style="baseline-shift:baseline;display:inline;overflow:visible;vector-effect:none;fill:#000000;stroke:none;stroke-linecap:butt;stroke-linejoin:miter;enable-background:accumulate;stop-color:#000000;stop-opacity:1;opacity:1"
     d="M 5 2.375 C 3.5576554 2.375 2.375 3.5576554 2.375 5 L 2.375 19 C 2.375 20.442345 3.5576554 21.625 5 21.625 L 11 21.625 A 0.625 0.625 0 0 0 11.625 21 A 0.625 0.625 0 0 0 11 20.375 L 5 20.375 C 4.2332056 20.375 3.625 19.766794 3.625 19 L 3.625 5 C 3.625 4.2332056 4.2332056 3.625 5 3.625 L 19 3.625 C 19.766794 3.625 20.375 4.2332056 20.375 5 L 20.375 11 A 0.625 0.625 0 0 0 21 11.625 A 0.625 0.625 0 0 0 21.625 11 L 21.625 5 C 21.625 3.5576554 20.442345 2.375 19 2.375 L 5 2.375 z M 12 11.376953 A 0.625 0.625 0 0 0 11.558594 11.558594 A 0.625 0.625 0 0 0 11.558594 12.441406 L 19.492188 20.375 L 15 20.375 A 0.625 0.625 0 0 0 14.375 21 A 0.625 0.625 0 0 0 15 21.625 L 21 21.625 A 0.6250625 0.6250625 0 0 0 21.082031 21.619141 A 0.625 0.625 0 0 0 21.162109 21.603516 A 0.6250625 0.6250625 0 0 0 21.3125 21.541016 A 0.625 0.625 0 0 0 21.441406 21.441406 A 0.625 0.625 0 0 0 21.541016 21.3125 A 0.6250625 0.6250625 0 0 0 21.603516 21.162109 A 0.625 0.625 0 0 0 21.619141 21.082031 A 0.6250625 0.6250625 0 0 0 21.625 21 L 21.625 15 A 0.625 0.625 0 0 0 21 14.375 A 0.625 0.625 0 0 0 20.375 15 L 20.375 19.492188 L 12.441406 11.558594 A 0.625 0.625 0 0 0 12 11.376953 z " />
</svg>
