<?xml version="1.0" encoding="UTF-8" standalone="no"?>
<svg
   width="24"
   height="24"
   viewBox="0 0 24 24"
   fill="none"
   stroke="currentColor"
   stroke-width="1.25"
   stroke-linecap="round"
   stroke-linejoin="round"
   version="1.1"
   id="svg1"
   sodipodi:docname=".tmp_square-activity.svg"
   xmlns:inkscape="http://www.inkscape.org/namespaces/inkscape"
   xmlns:sodipodi="http://sodipodi.sourceforge.net/DTD/sodipodi-0.dtd"
   xmlns="http://www.w3.org/2000/svg"
   xmlns:svg="http://www.w3.org/2000/svg">
  <defs
     id="defs1" />
  <sodipodi:namedview
     id="namedview1"
     pagecolor="#ffffff"
     bordercolor="#000000"
     borderopacity="0.25"
     inkscape:showpageshadow="2"
     inkscape:pageopacity="0.0"
     inkscape:pagecheckerboard="0"
     inkscape:deskcolor="#d1d1d1" />
  <path
     id="rect1"
     style="baseline-shift:baseline;display:inline;overflow:visible;vector-effect:none;fill:#000000;stroke:none;stroke-linecap:butt;stroke-linejoin:miter;enable-background:accumulate;stop-color:#000000;stop-opacity:1;opacity:1"
     d="M 5 2.375 C 3.5565608 2.375 2.375 3.5565608 2.375 5 L 2.375 19 C 2.375 20.443439 3.5565608 21.625 5 21.625 L 19 21.625 C 20.443439 21.625 21.625 20.443439 21.625 19 L 21.625 5 C 21.625 3.5565608 20.443439 2.375 19 2.375 L 5 2.375 z M 5 3.625 L 19 3.625 C 19.772561 3.625 20.375 4.2274392 20.375 5 L 20.375 19 C 20.375 19.772561 19.772561 20.375 19 20.375 L 5 20.375 C 4.2274392 20.375 3.625 19.772561 3.625 19 L 3.625 5 C 3.625 4.2274392 4.2274392 3.625 5 3.625 z M 10.976562 6.375 A 0.6250625 0.6250625 0 0 0 10.419922 6.7675781 L 8.5761719 11.375 L 7 11.375 A 0.625 0.625 0 0 0 6.375 12 A 0.625 0.625 0 0 0 7 12.625 L 9 12.625 A 0.6250625 0.6250625 0 0 0 9.5800781 12.232422 L 10.798828 9.1855469 L 12.386719 17.123047 A 0.6250625 0.6250625 0 0 0 13.580078 17.232422 L 15.423828 12.625 L 17 12.625 A 0.625 0.625 0 0 0 17.625 12 A 0.625 0.625 0 0 0 17 11.375 L 15 11.375 A 0.6250625 0.6250625 0 0 0 14.419922 11.767578 L 13.201172 14.814453 L 11.613281 6.8769531 A 0.6250625 0.6250625 0 0 0 11.056641 6.3769531 A 0.6250625 0.6250625 0 0 0 10.976562 6.375 z " />
</svg>
