<?xml version="1.0" encoding="UTF-8" standalone="no"?>
<svg
   width="24"
   height="24"
   viewBox="0 0 24 24"
   fill="none"
   stroke="currentColor"
   stroke-width="1.25"
   stroke-linecap="round"
   stroke-linejoin="round"
   version="1.1"
   id="svg2"
   sodipodi:docname=".tmp_square-function.svg"
   xmlns:inkscape="http://www.inkscape.org/namespaces/inkscape"
   xmlns:sodipodi="http://sodipodi.sourceforge.net/DTD/sodipodi-0.dtd"
   xmlns="http://www.w3.org/2000/svg"
   xmlns:svg="http://www.w3.org/2000/svg">
  <defs
     id="defs2" />
  <sodipodi:namedview
     id="namedview2"
     pagecolor="#ffffff"
     bordercolor="#000000"
     borderopacity="0.25"
     inkscape:showpageshadow="2"
     inkscape:pageopacity="0.0"
     inkscape:pagecheckerboard="0"
     inkscape:deskcolor="#d1d1d1" />
  <path
     id="rect1"
     style="baseline-shift:baseline;display:inline;overflow:visible;vector-effect:none;fill:#000000;stroke:none;stroke-linecap:butt;stroke-linejoin:miter;enable-background:accumulate;stop-color:#000000;stop-opacity:1;opacity:1"
     d="M 5 2.375 C 3.5565608 2.375 2.375 3.5565608 2.375 5 L 2.375 19 C 2.375 20.443439 3.5565608 21.625 5 21.625 L 19 21.625 C 20.443439 21.625 21.625 20.443439 21.625 19 L 21.625 5 C 21.625 3.5565608 20.443439 2.375 19 2.375 L 5 2.375 z M 5 3.625 L 19 3.625 C 19.772561 3.625 20.375 4.2274392 20.375 5 L 20.375 19 C 20.375 19.772561 19.772561 20.375 19 20.375 L 5 20.375 C 4.2274392 20.375 3.625 19.772561 3.625 19 L 3.625 5 C 3.625 4.2274392 4.2274392 3.625 5 3.625 z M 14.197266 6.3398438 C 13.351464 6.3839787 12.636257 6.6797415 12.126953 7.2011719 C 11.447881 7.8964124 11.175781 8.8958333 11.175781 10 L 11.175781 10.574219 L 9 10.574219 A 0.625 0.625 0 0 0 8.375 11.199219 A 0.625 0.625 0 0 0 9 11.824219 L 11.175781 11.824219 L 11.175781 14.199219 C 11.175781 15.006626 10.998058 15.526138 10.695312 15.845703 C 10.392566 16.165268 9.8958333 16.375 9 16.375 A 0.625 0.625 0 0 0 8.375 17 A 0.625 0.625 0 0 0 9 17.625 C 10.104167 17.625 11.006261 17.335513 11.603516 16.705078 C 12.20077 16.074643 12.425781 15.191811 12.425781 14.199219 L 12.425781 11.824219 L 14.699219 11.824219 A 0.625 0.625 0 0 0 15.324219 11.199219 A 0.625 0.625 0 0 0 14.699219 10.574219 L 12.425781 10.574219 L 12.425781 10 C 12.425781 9.1041667 12.650556 8.4539782 13.021484 8.0742188 C 13.392412 7.6944592 13.948327 7.4871831 14.916016 7.6191406 A 0.625 0.625 0 0 0 15.619141 7.0839844 A 0.625 0.625 0 0 0 15.083984 6.3808594 C 14.775907 6.3388488 14.479199 6.3251321 14.197266 6.3398438 z " />
</svg>
