<?xml version="1.0" encoding="UTF-8" standalone="no"?>
<svg
   width="24"
   height="24"
   viewBox="0 0 24 24"
   fill="none"
   stroke="currentColor"
   stroke-width="1.25"
   stroke-linecap="round"
   stroke-linejoin="round"
   version="1.1"
   id="svg1"
   sodipodi:docname=".tmp_square-parking.svg"
   xmlns:inkscape="http://www.inkscape.org/namespaces/inkscape"
   xmlns:sodipodi="http://sodipodi.sourceforge.net/DTD/sodipodi-0.dtd"
   xmlns="http://www.w3.org/2000/svg"
   xmlns:svg="http://www.w3.org/2000/svg">
  <defs
     id="defs1" />
  <sodipodi:namedview
     id="namedview1"
     pagecolor="#ffffff"
     bordercolor="#000000"
     borderopacity="0.25"
     inkscape:showpageshadow="2"
     inkscape:pageopacity="0.0"
     inkscape:pagecheckerboard="0"
     inkscape:deskcolor="#d1d1d1" />
  <path
     id="rect1"
     style="baseline-shift:baseline;display:inline;overflow:visible;vector-effect:none;fill:#000000;stroke:none;stroke-linecap:butt;stroke-linejoin:miter;enable-background:accumulate;stop-color:#000000;stop-opacity:1;opacity:1"
     d="M 5 2.375 C 3.5565608 2.375 2.375 3.5565608 2.375 5 L 2.375 19 C 2.375 20.443439 3.5565608 21.625 5 21.625 L 19 21.625 C 20.443439 21.625 21.625 20.443439 21.625 19 L 21.625 5 C 21.625 3.5565608 20.443439 2.375 19 2.375 L 5 2.375 z M 5 3.625 L 19 3.625 C 19.772561 3.625 20.375 4.2274392 20.375 5 L 20.375 19 C 20.375 19.772561 19.772561 20.375 19 20.375 L 5 20.375 C 4.2274392 20.375 3.625 19.772561 3.625 19 L 3.625 5 C 3.625 4.2274392 4.2274392 3.625 5 3.625 z M 9 6.375 A 0.6250625 0.6250625 0 0 0 8.375 7 L 8.375 13 L 8.375 17 A 0.625 0.625 0 0 0 9 17.625 A 0.625 0.625 0 0 0 9.625 17 L 9.625 13.625 L 13 13.625 C 14.15625 13.625 15.102252 13.169879 15.716797 12.478516 C 16.331342 11.787152 16.625 10.888889 16.625 10 C 16.625 9.1111112 16.331342 8.2128481 15.716797 7.5214844 C 15.102252 6.8301207 14.15625 6.375 13 6.375 L 9 6.375 z M 9.625 7.625 L 13 7.625 C 13.843749 7.625 14.397749 7.9198793 14.783203 8.3535156 C 15.168657 8.7871519 15.375 9.3888888 15.375 10 C 15.375 10.611111 15.168657 11.212848 14.783203 11.646484 C 14.397749 12.080121 13.843749 12.375 13 12.375 L 9.625 12.375 L 9.625 7.625 z " />
</svg>
