<?xml version="1.0" encoding="UTF-8" standalone="no"?>
<svg
   width="24"
   height="24"
   viewBox="0 0 24 24"
   fill="none"
   stroke="currentColor"
   stroke-width="1.25"
   stroke-linecap="round"
   stroke-linejoin="round"
   version="1.1"
   id="svg4"
   sodipodi:docname=".tmp_squirrel.svg"
   xmlns:inkscape="http://www.inkscape.org/namespaces/inkscape"
   xmlns:sodipodi="http://sodipodi.sourceforge.net/DTD/sodipodi-0.dtd"
   xmlns="http://www.w3.org/2000/svg"
   xmlns:svg="http://www.w3.org/2000/svg">
  <defs
     id="defs4" />
  <sodipodi:namedview
     id="namedview4"
     pagecolor="#ffffff"
     bordercolor="#000000"
     borderopacity="0.25"
     inkscape:showpageshadow="2"
     inkscape:pageopacity="0.0"
     inkscape:pagecheckerboard="0"
     inkscape:deskcolor="#d1d1d1" />
  <path
     id="path1"
     style="baseline-shift:baseline;display:inline;overflow:visible;vector-effect:none;fill:#000000;stroke:none;stroke-linecap:butt;stroke-linejoin:miter;enable-background:accumulate;stop-color:#000000;stop-opacity:1;opacity:1"
     d="M 6.5 1.375 C 5.2361112 1.375 3.9628481 1.793658 2.9902344 2.6582031 C 2.0176207 3.5227483 1.375 4.8437506 1.375 6.5 C 1.375 7.489583 1.7676207 8.3105849 2.3652344 8.8417969 C 2.9628481 9.3730088 3.7361112 9.625 4.5 9.625 C 4.7607214 9.625 4.9730876 9.4171627 5.2285156 9.3574219 C 4.9826334 9.713456 4.772649 10.043492 4.4863281 10.455078 C 3.4620791 11.927436 2.375 13.861111 2.375 17 C 2.375 20.127381 4.872619 22.625 8 22.625 L 18 22.625 A 0.625 0.625 0 0 0 18.625 22 A 0.625 0.625 0 0 0 18 21.375 L 16.357422 21.375 C 16.535948 20.941709 16.619244 20.487763 16.623047 20.039062 A 0.625 0.625 0 0 0 16.625 20 C 16.625 18.680921 17.680921 17.625 19 17.625 L 20 17.625 C 21.442345 17.625 22.625 16.442345 22.625 15 L 22.625 13 C 22.625 10.674551 20.864896 8.8208152 18.625 8.5019531 L 18.625 6 L 18.625 4 A 0.625 0.625 0 0 0 18 3.375 A 0.625 0.625 0 0 0 17.375 4 L 17.375 5.4179688 C 15.311086 5.7049332 13.727001 7.394428 13.480469 9.4804688 C 12.569799 9.5454547 11.691535 9.710237 10.896484 10.068359 C 11.321633 9.1270023 11.625 7.9923025 11.625 6.5 C 11.625 4.8437506 10.982379 3.5227483 10.009766 2.6582031 C 9.0371515 1.793658 7.7638888 1.375 6.5 1.375 z M 6.5 2.625 C 7.4861112 2.625 8.4628481 2.9563427 9.1777344 3.5917969 C 9.8926207 4.2272511 10.375 5.1562507 10.375 6.5 C 10.375 9.0984848 9.4961564 10.253702 8.5019531 11.558594 C 7.9756839 12.249322 7.4409807 13.022804 7.0253906 13.958984 C 6.6157693 14.893562 6.375 15.916162 6.375 17 A 0.6250625 0.6250625 0 0 0 7.625 17 C 7.625 15.926269 7.8425937 15.171228 8.1386719 14.494141 C 9.1103265 12.217742 11.363029 10.625 14 10.625 A 0.6250625 0.6250625 0 0 0 14.625 10 C 14.625 8.3423282 15.804841 6.9727091 17.375 6.6816406 L 17.375 9 A 0.6250625 0.6250625 0 0 0 18 9.625 C 19.871364 9.625 21.375 11.128636 21.375 13 L 21.375 15 C 21.375 15.766794 20.766794 16.375 20 16.375 L 19 16.375 C 17.757336 16.375 16.655695 17.007346 16.001953 17.966797 C 15.37901 17.04589 14.324007 16.390321 13.042969 16.375 A 0.625 0.625 0 0 0 12.410156 16.992188 A 0.625 0.625 0 0 0 13.029297 17.625 C 14.071997 17.63747 14.82063 18.240245 15.173828 19.042969 C 15.286728 19.299559 15.358008 19.571832 15.378906 19.849609 C 15.376861 19.899328 15.375 19.949799 15.375 20 A 0.625 0.625 0 0 0 15.382812 20.101562 C 15.368029 20.536046 15.22822 20.974465 14.9375 21.375 L 8 21.375 C 5.527381 21.375 3.625 19.472619 3.625 17 C 3.625 14.138889 4.5379209 12.572564 5.5136719 11.169922 C 6.1939879 10.191968 6.8102036 9.1867678 7.2070312 8.046875 C 7.4507577 7.5997688 7.625 7.0955404 7.625 6.5 A 0.6250625 0.6250625 0 0 0 6.375 6.5 C 6.375 7.1770829 6.1426207 7.6060821 5.8027344 7.9082031 C 5.4628481 8.2103242 4.9861112 8.375 4.5 8.375 C 4.0138888 8.375 3.5371519 8.2103242 3.1972656 7.9082031 C 2.8573793 7.6060821 2.625 7.1770829 2.625 6.5 C 2.625 5.1562507 3.1073793 4.2272511 3.8222656 3.5917969 C 4.5371519 2.9563427 5.5138888 2.625 6.5 2.625 z M 18 12.375 A 0.625 0.625 0 0 0 17.375 13 A 0.625 0.625 0 0 0 18 13.625 L 18.009766 13.625 A 0.625 0.625 0 0 0 18.634766 13 A 0.625 0.625 0 0 0 18.009766 12.375 L 18 12.375 z " />
</svg>
