<?xml version="1.0" encoding="UTF-8" standalone="no"?>
<svg
   width="24"
   height="24"
   viewBox="0 0 24 24"
   fill="none"
   stroke="currentColor"
   stroke-width="1.25"
   stroke-linecap="round"
   stroke-linejoin="round"
   version="1.1"
   id="svg5"
   sodipodi:docname=".tmp_sticker.svg"
   xmlns:inkscape="http://www.inkscape.org/namespaces/inkscape"
   xmlns:sodipodi="http://sodipodi.sourceforge.net/DTD/sodipodi-0.dtd"
   xmlns="http://www.w3.org/2000/svg"
   xmlns:svg="http://www.w3.org/2000/svg">
  <defs
     id="defs5" />
  <sodipodi:namedview
     id="namedview5"
     pagecolor="#ffffff"
     bordercolor="#000000"
     borderopacity="0.25"
     inkscape:showpageshadow="2"
     inkscape:pageopacity="0.0"
     inkscape:pagecheckerboard="0"
     inkscape:deskcolor="#d1d1d1" />
  <path
     id="path1"
     style="baseline-shift:baseline;display:inline;overflow:visible;vector-effect:none;fill:#000000;stroke:none;stroke-linecap:butt;stroke-linejoin:miter;enable-background:accumulate;stop-color:#000000;stop-opacity:1;opacity:1"
     d="M 5 2.375 C 3.5576554 2.375 2.375 3.5576554 2.375 5 L 2.375 19 C 2.375 20.440909 3.5590909 21.625 5 21.625 L 19 21.625 C 20.442345 21.625 21.625 20.442345 21.625 19 L 21.625 8.5 A 0.6250625 0.6250625 0 0 0 21.441406 8.0585938 L 15.941406 2.5585938 A 0.6250625 0.6250625 0 0 0 15.5 2.375 L 5 2.375 z M 5 3.625 L 13.375 3.625 L 13.375 7 C 13.375 8.4423446 14.557655 9.625 16 9.625 L 20 9.625 A 0.625 0.625 0 0 0 20.375 9.5 L 20.375 19 C 20.375 19.766794 19.766794 20.375 19 20.375 L 5 20.375 C 4.2409091 20.375 3.625 19.759091 3.625 19 L 3.625 5 C 3.625 4.2332056 4.2332056 3.625 5 3.625 z M 14.625 3.625 L 15.242188 3.625 L 19.990234 8.375 L 16 8.375 C 15.233206 8.375 14.625 7.7667944 14.625 7 L 14.625 3.625 z M 8 12.375 A 0.625 0.625 0 0 0 7.375 13 A 0.625 0.625 0 0 0 8 13.625 L 8.0097656 13.625 A 0.625 0.625 0 0 0 8.6347656 13 A 0.625 0.625 0 0 0 8.0097656 12.375 L 8 12.375 z M 16 12.375 A 0.625 0.625 0 0 0 15.375 13 A 0.625 0.625 0 0 0 16 13.625 L 16.009766 13.625 A 0.625 0.625 0 0 0 16.634766 13 A 0.625 0.625 0 0 0 16.009766 12.375 L 16 12.375 z M 9.9882812 15.375 A 0.625 0.625 0 0 0 9.609375 15.511719 A 0.625 0.625 0 0 0 9.5117188 16.390625 C 9.5117188 16.390625 10.452778 17.625 12 17.625 C 13.620513 17.625 14.511719 16.359375 14.511719 16.359375 A 0.625 0.625 0 0 0 14.359375 15.488281 A 0.625 0.625 0 0 0 13.890625 15.384766 A 0.625 0.625 0 0 0 13.488281 15.640625 C 13.488281 15.640625 12.979487 16.375 12 16.375 C 11.147222 16.375 10.488281 15.609375 10.488281 15.609375 A 0.625 0.625 0 0 0 9.9882812 15.375 z " />
</svg>
