<?xml version="1.0" encoding="UTF-8" standalone="no"?>
<svg
   width="24"
   height="24"
   viewBox="0 0 24 24"
   fill="none"
   stroke="currentColor"
   stroke-width="1.25"
   stroke-linecap="round"
   stroke-linejoin="round"
   version="1.1"
   id="svg3"
   sodipodi:docname=".tmp_store.svg"
   xmlns:inkscape="http://www.inkscape.org/namespaces/inkscape"
   xmlns:sodipodi="http://sodipodi.sourceforge.net/DTD/sodipodi-0.dtd"
   xmlns="http://www.w3.org/2000/svg"
   xmlns:svg="http://www.w3.org/2000/svg">
  <defs
     id="defs3" />
  <sodipodi:namedview
     id="namedview3"
     pagecolor="#ffffff"
     bordercolor="#000000"
     borderopacity="0.25"
     inkscape:showpageshadow="2"
     inkscape:pageopacity="0.0"
     inkscape:pagecheckerboard="0"
     inkscape:deskcolor="#d1d1d1" />
  <path
     id="path1"
     style="baseline-shift:baseline;display:inline;overflow:visible;vector-effect:none;fill:#000000;stroke:none;stroke-linecap:butt;stroke-linejoin:miter;enable-background:accumulate;stop-color:#000000;stop-opacity:1;opacity:1"
     d="M 7 1.375 C 6.1318065 1.3748401 5.3185547 1.8059851 4.8300781 2.5234375 L 4.8300781 2.5253906 L 4.828125 2.5253906 L 4.828125 2.5273438 L 4.8261719 2.5273438 L 1.9433594 6.703125 C 0.89994635 8.1849104 1.3694454 9.9304605 2.4589844 10.869141 C 2.7273626 11.100359 3.0386424 11.286576 3.375 11.417969 L 3.375 19 C 3.375 20.442345 4.5576554 21.625 6 21.625 L 9 21.625 L 15 21.625 L 18 21.625 C 19.442345 21.625 20.625 20.442345 20.625 19 L 20.625 11.421875 C 20.961252 11.290917 21.272527 11.103831 21.541016 10.873047 C 22.632221 9.9350847 23.102446 8.1883141 22.058594 6.7050781 L 19.169922 2.5214844 C 18.6811 1.8048495 17.867475 1.374667 17 1.375 L 7 1.375 z M 7 2.625 L 17 2.625 C 17.45545 2.6248252 17.880073 2.848355 18.136719 3.2246094 A 0.6250625 0.6250625 0 0 0 18.138672 3.2285156 L 21.033203 7.4199219 A 0.6250625 0.6250625 0 0 0 21.037109 7.4238281 C 21.734471 8.4147258 21.411518 9.3370169 20.726562 9.9257812 C 20.523137 10.100639 20.295203 10.239248 20.052734 10.326172 A 0.625 0.625 0 0 0 20 10.324219 A 0.625 0.625 0 0 0 19.673828 10.416016 C 19.199704 10.471613 18.689975 10.32013 18.207031 9.8574219 A 0.625 0.625 0 0 0 18.203125 9.8574219 C 17.532725 9.2191136 16.461977 9.2189304 15.792969 9.859375 L 15.792969 9.8574219 C 15.063949 10.552774 13.934098 10.552774 13.205078 9.8574219 C 12.535137 9.2168765 11.464863 9.2168765 10.794922 9.8574219 C 10.06646 10.552626 8.9362232 10.553317 8.2070312 9.859375 C 7.5369012 9.2178565 6.4630989 9.2178565 5.7929688 9.859375 L 5.7929688 9.8574219 C 5.3073125 10.320864 4.7957825 10.47053 4.3203125 10.412109 A 0.625 0.625 0 0 0 4 10.324219 A 0.625 0.625 0 0 0 3.9550781 10.326172 C 3.7101016 10.239196 3.4806143 10.098683 3.2753906 9.921875 C 2.5915567 9.3327258 2.2698714 8.4116019 2.9667969 7.421875 A 0.6250625 0.6250625 0 0 0 2.96875 7.4179688 L 5.8574219 3.2324219 A 0.6250625 0.6250625 0 0 0 5.8613281 3.2285156 C 6.117608 2.8503452 6.5431663 2.6249159 7 2.625 z M 7 10.621094 C 7.1223685 10.621094 7.2437604 10.667868 7.3417969 10.761719 C 8.5446912 11.909695 10.455309 11.909695 11.658203 10.761719 C 11.854202 10.57432 12.145798 10.57432 12.341797 10.761719 C 13.544533 11.908909 15.453514 11.908909 16.65625 10.761719 C 16.852323 10.574017 17.145724 10.574017 17.341797 10.761719 A 0.625 0.625 0 0 0 17.345703 10.761719 C 17.956614 11.34548 18.673392 11.612872 19.375 11.636719 L 19.375 19 C 19.375 19.766794 18.766794 20.375 18 20.375 L 15.625 20.375 L 15.625 16 C 15.625 15.10994 14.89006 14.375 14 14.375 L 10 14.375 C 9.1099402 14.375 8.375 15.10994 8.375 16 L 8.375 20.375 L 6 20.375 C 5.2332056 20.375 4.625 19.766794 4.625 19 L 4.625 11.634766 C 5.3270178 11.61165 6.0444838 11.345505 6.65625 10.761719 C 6.7542865 10.667868 6.8776315 10.621094 7 10.621094 z M 10 15.625 L 14 15.625 C 14.21451 15.625 14.375 15.78549 14.375 16 L 14.375 20.375 L 9.625 20.375 L 9.625 16 C 9.625 15.78549 9.7854903 15.625 10 15.625 z " />
</svg>
