<?xml version="1.0" encoding="UTF-8" standalone="no"?>
<svg
   width="24"
   height="24"
   viewBox="0 0 24 24"
   fill="none"
   stroke="currentColor"
   stroke-width="1.25"
   stroke-linecap="round"
   stroke-linejoin="round"
   version="1.1"
   id="svg8"
   sodipodi:docname=".tmp_sunset.svg"
   xmlns:inkscape="http://www.inkscape.org/namespaces/inkscape"
   xmlns:sodipodi="http://sodipodi.sourceforge.net/DTD/sodipodi-0.dtd"
   xmlns="http://www.w3.org/2000/svg"
   xmlns:svg="http://www.w3.org/2000/svg">
  <defs
     id="defs8" />
  <sodipodi:namedview
     id="namedview8"
     pagecolor="#ffffff"
     bordercolor="#000000"
     borderopacity="0.25"
     inkscape:showpageshadow="2"
     inkscape:pageopacity="0.0"
     inkscape:pagecheckerboard="0"
     inkscape:deskcolor="#d1d1d1" />
  <path
     id="path1"
     style="baseline-shift:baseline;display:inline;overflow:visible;vector-effect:none;fill:#000000;stroke:none;stroke-linecap:butt;stroke-linejoin:miter;enable-background:accumulate;stop-color:#000000;stop-opacity:1;opacity:1"
     d="M 12 1.375 A 0.625 0.625 0 0 0 11.375 2 L 11.375 8.4921875 L 8.4414062 5.5585938 A 0.625 0.625 0 0 0 7.5585938 5.5585938 A 0.625 0.625 0 0 0 7.5585938 6.4414062 L 11.558594 10.441406 A 0.6250625 0.6250625 0 0 0 11.568359 10.451172 A 0.625 0.625 0 0 0 11.611328 10.488281 A 0.6250625 0.6250625 0 0 0 11.642578 10.511719 A 0.625 0.625 0 0 0 11.685547 10.539062 A 0.6250625 0.6250625 0 0 0 11.6875 10.541016 A 0.6250625 0.6250625 0 0 0 11.691406 10.542969 A 0.625 0.625 0 0 0 11.914062 10.619141 A 0.6250625 0.6250625 0 0 0 11.917969 10.619141 A 0.625 0.625 0 0 0 12 10.625 A 0.625 0.625 0 0 0 12.082031 10.619141 A 0.6250625 0.6250625 0 0 0 12.162109 10.603516 A 0.625 0.625 0 0 0 12.314453 10.539062 A 0.625 0.625 0 0 0 12.462891 10.419922 L 16.441406 6.4414062 A 0.625 0.625 0 0 0 16.441406 5.5585938 A 0.625 0.625 0 0 0 15.558594 5.5585938 L 12.625 8.4921875 L 12.625 2 A 0.625 0.625 0 0 0 12 1.375 z M 4.9296875 10.306641 A 0.625 0.625 0 0 0 4.4882812 10.488281 A 0.625 0.625 0 0 0 4.4882812 11.371094 L 5.8984375 12.78125 A 0.625 0.625 0 0 0 6.78125 12.78125 A 0.625 0.625 0 0 0 6.78125 11.898438 L 5.3710938 10.488281 A 0.625 0.625 0 0 0 4.9296875 10.306641 z M 19.070312 10.306641 A 0.625 0.625 0 0 0 18.628906 10.488281 L 17.21875 11.898438 A 0.625 0.625 0 0 0 17.21875 12.78125 A 0.625 0.625 0 0 0 18.101562 12.78125 L 19.511719 11.371094 A 0.625 0.625 0 0 0 19.511719 10.488281 A 0.625 0.625 0 0 0 19.070312 10.306641 z M 12 13.375 C 10.861111 13.375 9.7128481 13.751991 8.8339844 14.533203 C 7.9551207 15.314415 7.375 16.510417 7.375 18 A 0.625 0.625 0 0 0 8 18.625 A 0.625 0.625 0 0 0 8.625 18 C 8.625 16.822917 9.0448793 16.018918 9.6660156 15.466797 C 10.287152 14.914676 11.138889 14.625 12 14.625 C 12.861111 14.625 13.712848 14.914676 14.333984 15.466797 C 14.955121 16.018918 15.375 16.822917 15.375 18 A 0.625 0.625 0 0 0 16 18.625 A 0.625 0.625 0 0 0 16.625 18 C 16.625 16.510417 16.044879 15.314415 15.166016 14.533203 C 14.287152 13.751991 13.138889 13.375 12 13.375 z M 2 17.375 A 0.625 0.625 0 0 0 1.375 18 A 0.625 0.625 0 0 0 2 18.625 L 4 18.625 A 0.625 0.625 0 0 0 4.625 18 A 0.625 0.625 0 0 0 4 17.375 L 2 17.375 z M 20 17.375 A 0.625 0.625 0 0 0 19.375 18 A 0.625 0.625 0 0 0 20 18.625 L 22 18.625 A 0.625 0.625 0 0 0 22.625 18 A 0.625 0.625 0 0 0 22 17.375 L 20 17.375 z M 2 21.375 A 0.625 0.625 0 0 0 1.375 22 A 0.625 0.625 0 0 0 2 22.625 L 22 22.625 A 0.625 0.625 0 0 0 22.625 22 A 0.625 0.625 0 0 0 22 21.375 L 2 21.375 z " />
</svg>
