<?xml version="1.0" encoding="UTF-8" standalone="no"?>
<svg
   width="24"
   height="24"
   viewBox="0 0 24 24"
   fill="none"
   stroke="currentColor"
   stroke-width="1.25"
   stroke-linecap="round"
   stroke-linejoin="round"
   version="1.1"
   id="svg2"
   sodipodi:docname=".tmp_toilet.svg"
   xmlns:inkscape="http://www.inkscape.org/namespaces/inkscape"
   xmlns:sodipodi="http://sodipodi.sourceforge.net/DTD/sodipodi-0.dtd"
   xmlns="http://www.w3.org/2000/svg"
   xmlns:svg="http://www.w3.org/2000/svg">
  <defs
     id="defs2" />
  <sodipodi:namedview
     id="namedview2"
     pagecolor="#ffffff"
     bordercolor="#000000"
     borderopacity="0.25"
     inkscape:showpageshadow="2"
     inkscape:pageopacity="0.0"
     inkscape:pagecheckerboard="0"
     inkscape:deskcolor="#d1d1d1" />
  <path
     id="path1"
     style="baseline-shift:baseline;display:inline;overflow:visible;vector-effect:none;fill:#000000;stroke:none;stroke-linecap:butt;stroke-linejoin:miter;enable-background:accumulate;stop-color:#000000;stop-opacity:1;opacity:1"
     d="M 5 1.375 C 3.5576554 1.375 2.375 2.5576554 2.375 4 L 2.375 13 C 2.375 15.426546 3.9243286 17.500679 6.0839844 18.287109 L 4.4472656 20.904297 C 3.9962156 21.625975 4.5513061 22.625002 5.4023438 22.625 L 16.097656 22.625 C 16.948694 22.625002 17.503784 21.625975 17.052734 20.904297 L 15.626953 18.625 L 16 18.625 C 19.099199 18.625 21.625 16.099199 21.625 13 C 21.625 12.10994 20.89006 11.375 20 11.375 L 15.625 11.375 L 15.625 4 C 15.625 2.5576554 14.442345 1.375 13 1.375 L 5 1.375 z M 5 2.625 L 13 2.625 C 13.766794 2.625 14.375 3.2332056 14.375 4 L 14.375 11.375 L 7 11.375 A 0.625 0.625 0 0 0 6.375 12 A 0.625 0.625 0 0 0 7 12.625 L 15 12.625 L 20 12.625 C 20.21451 12.625 20.375 12.78549 20.375 13 C 20.375 15.423649 18.423649 17.375 16 17.375 L 15.402344 17.375 C 14.551306 17.374998 13.996216 18.374025 14.447266 19.095703 L 15.873047 21.375 L 5.6269531 21.375 L 7.3691406 18.589844 C 7.5765829 18.613184 7.7864757 18.625 8 18.625 A 0.625 0.625 0 0 0 8.625 18 A 0.625 0.625 0 0 0 8 17.375 C 5.5763513 17.375 3.625 15.423649 3.625 13 L 3.625 4 C 3.625 3.2332056 4.2332056 2.625 5 2.625 z " />
</svg>
