<?xml version="1.0" encoding="UTF-8" standalone="no"?>
<svg
   width="24"
   height="24"
   viewBox="0 0 24 24"
   fill="none"
   stroke="currentColor"
   stroke-width="1.25"
   stroke-linecap="round"
   stroke-linejoin="round"
   version="1.1"
   id="svg6"
   sodipodi:docname=".tmp_train-front.svg"
   xmlns:inkscape="http://www.inkscape.org/namespaces/inkscape"
   xmlns:sodipodi="http://sodipodi.sourceforge.net/DTD/sodipodi-0.dtd"
   xmlns="http://www.w3.org/2000/svg"
   xmlns:svg="http://www.w3.org/2000/svg">
  <defs
     id="defs6" />
  <sodipodi:namedview
     id="namedview6"
     pagecolor="#ffffff"
     bordercolor="#000000"
     borderopacity="0.25"
     inkscape:showpageshadow="2"
     inkscape:pageopacity="0.0"
     inkscape:pagecheckerboard="0"
     inkscape:deskcolor="#d1d1d1" />
  <path
     id="path1"
     style="baseline-shift:baseline;display:inline;overflow:visible;vector-effect:none;fill:#000000;stroke:none;stroke-linecap:butt;stroke-linejoin:miter;enable-background:accumulate;stop-color:#000000;stop-opacity:1;opacity:1"
     d="M 12 1.375 C 7.2439476 1.375 3.375 5.2439442 3.375 10 L 3.375 14 C 3.375 16.443392 4.90023 18.501397 7.0585938 19.285156 L 5.4804688 21.652344 A 0.625 0.625 0 0 0 5.6523438 22.519531 A 0.625 0.625 0 0 0 6.5195312 22.347656 L 8.3574219 19.589844 C 8.5678688 19.6133 8.7828557 19.625 9 19.625 L 15 19.625 C 15.217144 19.625 15.432131 19.6133 15.642578 19.589844 L 17.480469 22.347656 A 0.625 0.625 0 0 0 18.347656 22.519531 A 0.625 0.625 0 0 0 18.519531 21.652344 L 16.941406 19.285156 C 19.09977 18.501397 20.625 16.443392 20.625 14 L 20.625 10 C 20.625 5.2439442 16.756052 1.375 12 1.375 z M 12 2.625 C 13.21712 2.625 14.36431 2.9178522 15.375 3.4375 L 15.375 7 C 15.375 8.1770827 14.955121 8.9810822 14.333984 9.5332031 C 13.712848 10.085324 12.861111 10.375 12 10.375 C 11.138889 10.375 10.287152 10.085324 9.6660156 9.5332031 C 9.0448793 8.9810822 8.625 8.1770827 8.625 7 L 8.625 3.4375 C 9.6356904 2.9178522 10.78288 2.625 12 2.625 z M 7.375 4.25 L 7.375 7 C 7.375 8.4895828 7.9551207 9.6855849 8.8339844 10.466797 C 9.7128481 11.248009 10.861111 11.625 12 11.625 C 13.138889 11.625 14.287152 11.248009 15.166016 10.466797 C 16.044879 9.6855849 16.625 8.4895828 16.625 7 L 16.625 4.25 C 18.303167 5.6005231 19.375 7.6725353 19.375 10 L 19.375 14 C 19.375 16.472619 17.472619 18.375 15 18.375 L 9 18.375 C 6.527381 18.375 4.625 16.472619 4.625 14 L 4.625 10 C 4.625 7.6725352 5.6968333 5.6005231 7.375 4.25 z M 8 13.376953 A 0.625 0.625 0 0 0 7.5585938 13.558594 A 0.625 0.625 0 0 0 7.5585938 14.441406 L 8.5585938 15.441406 A 0.625 0.625 0 0 0 9.4414062 15.441406 A 0.625 0.625 0 0 0 9.4414062 14.558594 L 8.4414062 13.558594 A 0.625 0.625 0 0 0 8 13.376953 z M 16 13.376953 A 0.625 0.625 0 0 0 15.558594 13.558594 L 14.558594 14.558594 A 0.625 0.625 0 0 0 14.558594 15.441406 A 0.625 0.625 0 0 0 15.441406 15.441406 L 16.441406 14.441406 A 0.625 0.625 0 0 0 16.441406 13.558594 A 0.625 0.625 0 0 0 16 13.376953 z " />
</svg>
