<?xml version="1.0" encoding="UTF-8" standalone="no"?>
<svg
   width="24"
   height="24"
   viewBox="0 0 24 24"
   fill="none"
   stroke="currentColor"
   stroke-width="1.25"
   stroke-linecap="round"
   stroke-linejoin="round"
   version="1.1"
   id="svg6"
   sodipodi:docname=".tmp_tram-front.svg"
   xmlns:inkscape="http://www.inkscape.org/namespaces/inkscape"
   xmlns:sodipodi="http://sodipodi.sourceforge.net/DTD/sodipodi-0.dtd"
   xmlns="http://www.w3.org/2000/svg"
   xmlns:svg="http://www.w3.org/2000/svg">
  <defs
     id="defs6" />
  <sodipodi:namedview
     id="namedview6"
     pagecolor="#ffffff"
     bordercolor="#000000"
     borderopacity="0.25"
     inkscape:showpageshadow="2"
     inkscape:pageopacity="0.0"
     inkscape:pagecheckerboard="0"
     inkscape:deskcolor="#d1d1d1" />
  <path
     id="rect1"
     style="baseline-shift:baseline;display:inline;overflow:visible;vector-effect:none;fill:#000000;stroke:none;stroke-linecap:butt;stroke-linejoin:miter;enable-background:accumulate;stop-color:#000000;stop-opacity:1;opacity:1"
     d="M 6 2.375 C 4.5565608 2.375 3.375 3.5565608 3.375 5 L 3.375 17 C 3.375 18.443439 4.5565608 19.625 6 19.625 L 6.8320312 19.625 L 5.4804688 21.652344 A 0.625 0.625 0 0 0 5.6523438 22.519531 A 0.625 0.625 0 0 0 6.5195312 22.347656 L 8.3339844 19.625 L 15.666016 19.625 L 17.480469 22.347656 A 0.625 0.625 0 0 0 18.347656 22.519531 A 0.625 0.625 0 0 0 18.519531 21.652344 L 17.167969 19.625 L 18 19.625 C 19.443439 19.625 20.625 18.443439 20.625 17 L 20.625 5 C 20.625 3.5565608 19.443439 2.375 18 2.375 L 6 2.375 z M 6 3.625 L 11.375 3.625 L 11.375 10.375 L 4.625 10.375 L 4.625 5 C 4.625 4.2274392 5.2274392 3.625 6 3.625 z M 12.625 3.625 L 18 3.625 C 18.772561 3.625 19.375 4.2274392 19.375 5 L 19.375 10.375 L 12.625 10.375 L 12.625 3.625 z M 4.625 11.625 L 19.375 11.625 L 19.375 17 C 19.375 17.772561 18.772561 18.375 18 18.375 L 6 18.375 C 5.2274392 18.375 4.625 17.772561 4.625 17 L 4.625 11.625 z M 8 14.375 A 0.625 0.625 0 0 0 7.375 15 A 0.625 0.625 0 0 0 8 15.625 L 8.0097656 15.625 A 0.625 0.625 0 0 0 8.6347656 15 A 0.625 0.625 0 0 0 8.0097656 14.375 L 8 14.375 z M 16 14.375 A 0.625 0.625 0 0 0 15.375 15 A 0.625 0.625 0 0 0 16 15.625 L 16.009766 15.625 A 0.625 0.625 0 0 0 16.634766 15 A 0.625 0.625 0 0 0 16.009766 14.375 L 16 14.375 z " />
</svg>
