<?xml version="1.0" encoding="UTF-8" standalone="no"?>
<svg
   width="24"
   height="24"
   viewBox="0 0 24 24"
   fill="none"
   stroke="currentColor"
   stroke-width="1.25"
   stroke-linecap="round"
   stroke-linejoin="round"
   version="1.1"
   id="svg1"
   sodipodi:docname=".tmp_triangle-right.svg"
   xmlns:inkscape="http://www.inkscape.org/namespaces/inkscape"
   xmlns:sodipodi="http://sodipodi.sourceforge.net/DTD/sodipodi-0.dtd"
   xmlns="http://www.w3.org/2000/svg"
   xmlns:svg="http://www.w3.org/2000/svg">
  <defs
     id="defs1" />
  <sodipodi:namedview
     id="namedview1"
     pagecolor="#ffffff"
     bordercolor="#000000"
     borderopacity="0.25"
     inkscape:showpageshadow="2"
     inkscape:pageopacity="0.0"
     inkscape:pagecheckerboard="0"
     inkscape:deskcolor="#d1d1d1" />
  <path
     id="path1"
     style="baseline-shift:baseline;display:inline;overflow:visible;vector-effect:none;fill:#000000;stroke:none;stroke-linecap:butt;stroke-linejoin:miter;enable-background:accumulate;stop-color:#000000;stop-opacity:1;opacity:1"
     d="M 21.222656 3.2949219 C 21.109016 3.2988346 20.99536 3.317516 20.882812 3.3476562 C 20.582686 3.4280302 20.288695 3.5942532 20.015625 3.8066406 A 0.6250625 0.6250625 0 0 0 20.007812 3.8144531 L 2.2167969 18.207031 C 1.9487873 18.415483 1.736687 18.628832 1.5878906 18.882812 C 1.4390942 19.136793 1.3489387 19.470858 1.453125 19.800781 C 1.5573113 20.130705 1.8322131 20.356331 2.1035156 20.470703 C 2.3748181 20.585076 2.6681818 20.625 3 20.625 L 20 20.625 C 21.442345 20.625 22.625 19.442345 22.625 18 L 22.625 5 C 22.625 4.3174242 22.380785 3.6604638 21.787109 3.4023438 C 21.601586 3.3216812 21.412057 3.2884007 21.222656 3.2949219 z M 21.275391 4.5507812 C 21.282428 4.5502712 21.286751 4.5510264 21.289062 4.5507812 L 21.291016 4.5507812 C 21.305535 4.5668533 21.375 4.655921 21.375 5 L 21.375 18 C 21.375 18.766794 20.766794 19.375 20 19.375 L 3 19.375 C 2.908535 19.375 2.8920127 19.360302 2.828125 19.351562 C 2.880211 19.296343 2.894496 19.263262 2.984375 19.193359 A 0.6250625 0.6250625 0 0 0 2.9921875 19.185547 L 20.783203 4.7929688 C 21.060631 4.5771919 21.226128 4.5543514 21.275391 4.5507812 z " />
</svg>
