<?xml version="1.0" encoding="UTF-8" standalone="no"?>
<svg
   width="24"
   height="24"
   viewBox="0 0 24 24"
   fill="none"
   stroke="currentColor"
   stroke-width="1.25"
   stroke-linecap="round"
   stroke-linejoin="round"
   version="1.1"
   id="svg1"
   sodipodi:docname=".tmp_twitch.svg"
   xmlns:inkscape="http://www.inkscape.org/namespaces/inkscape"
   xmlns:sodipodi="http://sodipodi.sourceforge.net/DTD/sodipodi-0.dtd"
   xmlns="http://www.w3.org/2000/svg"
   xmlns:svg="http://www.w3.org/2000/svg">
  <defs
     id="defs1" />
  <sodipodi:namedview
     id="namedview1"
     pagecolor="#ffffff"
     bordercolor="#000000"
     borderopacity="0.25"
     inkscape:showpageshadow="2"
     inkscape:pageopacity="0.0"
     inkscape:pagecheckerboard="0"
     inkscape:deskcolor="#d1d1d1" />
  <path
     id="path1"
     style="baseline-shift:baseline;display:inline;overflow:visible;vector-effect:none;fill:#000000;stroke:none;stroke-linecap:butt;stroke-linejoin:miter;enable-background:accumulate;stop-color:#000000;stop-opacity:1;opacity:1"
     d="M 3 1.375 A 0.6250625 0.6250625 0 0 0 2.375 2 L 2.375 18 A 0.6250625 0.6250625 0 0 0 3 18.625 L 7.375 18.625 L 7.375 22 A 0.6250625 0.6250625 0 0 0 8.4414062 22.441406 L 12.259766 18.625 L 17 18.625 A 0.6250625 0.6250625 0 0 0 17.441406 18.441406 L 21.441406 14.441406 A 0.6250625 0.6250625 0 0 0 21.625 14 L 21.625 2 A 0.6250625 0.6250625 0 0 0 21 1.375 L 3 1.375 z M 3.625 2.625 L 20.375 2.625 L 20.375 13.740234 L 16.740234 17.375 L 12 17.375 A 0.6250625 0.6250625 0 0 0 11.558594 17.558594 L 8.625 20.492188 L 8.625 18 A 0.6250625 0.6250625 0 0 0 8 17.375 L 3.625 17.375 L 3.625 2.625 z M 11 6.375 A 0.625 0.625 0 0 0 10.375 7 L 10.375 11 A 0.625 0.625 0 0 0 11 11.625 A 0.625 0.625 0 0 0 11.625 11 L 11.625 7 A 0.625 0.625 0 0 0 11 6.375 z M 16 6.375 A 0.625 0.625 0 0 0 15.375 7 L 15.375 11 A 0.625 0.625 0 0 0 16 11.625 A 0.625 0.625 0 0 0 16.625 11 L 16.625 7 A 0.625 0.625 0 0 0 16 6.375 z " />
</svg>
