<?xml version="1.0" encoding="UTF-8" standalone="no"?>
<svg
   width="24"
   height="24"
   viewBox="0 0 24 24"
   fill="none"
   stroke="currentColor"
   stroke-width="1.25"
   stroke-linecap="round"
   stroke-linejoin="round"
   version="1.1"
   id="svg6"
   sodipodi:docname=".tmp_usb.svg"
   xmlns:inkscape="http://www.inkscape.org/namespaces/inkscape"
   xmlns:sodipodi="http://sodipodi.sourceforge.net/DTD/sodipodi-0.dtd"
   xmlns="http://www.w3.org/2000/svg"
   xmlns:svg="http://www.w3.org/2000/svg">
  <defs
     id="defs6" />
  <sodipodi:namedview
     id="namedview6"
     pagecolor="#ffffff"
     bordercolor="#000000"
     borderopacity="0.25"
     inkscape:showpageshadow="2"
     inkscape:pageopacity="0.0"
     inkscape:pagecheckerboard="0"
     inkscape:deskcolor="#d1d1d1" />
  <path
     id="circle1"
     style="baseline-shift:baseline;display:inline;overflow:visible;vector-effect:none;fill:#000000;stroke:none;stroke-linecap:butt;stroke-linejoin:miter;enable-background:accumulate;stop-color:#000000;stop-opacity:1;opacity:1"
     d="M 20.972656 2.375 A 0.6250625 0.6250625 0 0 0 20.802734 2.40625 L 17.802734 3.40625 A 0.6250625 0.6250625 0 0 0 17.558594 4.4414062 L 18.117188 5 L 9.5566406 13.558594 A 0.625 0.625 0 0 0 9.5507812 13.564453 L 7.2285156 15.886719 L 5.7324219 12.148438 L 9.34375 8.484375 C 9.5447674 8.5743604 9.7674686 8.625 10 8.625 C 10.89006 8.625 11.625 7.8900598 11.625 7 C 11.625 6.1099402 10.89006 5.375 10 5.375 C 9.1099402 5.375 8.375 6.1099402 8.375 7 C 8.375 7.2026425 8.4130734 7.3964533 8.4824219 7.5761719 L 4.5546875 11.560547 A 0.6250625 0.6250625 0 0 0 4.4199219 12.232422 L 6.265625 16.849609 L 4.6171875 18.498047 C 4.4265144 18.41858 4.2177241 18.375 4 18.375 C 3.1099402 18.375 2.375 19.10994 2.375 20 C 2.375 20.89006 3.1099402 21.625 4 21.625 C 4.8900598 21.625 5.625 20.89006 5.625 20 C 5.625 19.782276 5.5814204 19.573486 5.5019531 19.382812 L 7.4375 17.447266 A 0.625 0.625 0 0 0 7.4394531 17.445312 L 10.150391 14.734375 L 14.767578 16.580078 A 0.6250625 0.6250625 0 0 0 15.441406 16.441406 L 18.5 13.382812 L 18.558594 13.441406 A 0.6250625 0.6250625 0 0 0 19.441406 13.441406 L 20.441406 12.441406 A 0.6250625 0.6250625 0 0 0 20.441406 11.558594 L 19.441406 10.558594 A 0.6250625 0.6250625 0 0 0 18.558594 10.558594 L 17.558594 11.558594 A 0.6250625 0.6250625 0 0 0 17.558594 12.441406 L 17.617188 12.5 L 14.849609 15.267578 L 11.111328 13.771484 L 19 5.8828125 L 19.558594 6.4414062 A 0.6250625 0.6250625 0 0 0 20.59375 6.1972656 L 21.59375 3.1972656 A 0.6250625 0.6250625 0 0 0 20.972656 2.375 z M 20.011719 3.9882812 L 19.726562 4.84375 L 19.15625 4.2734375 L 20.011719 3.9882812 z M 10 6.625 C 10.21451 6.625 10.375 6.7854903 10.375 7 C 10.375 7.2145097 10.21451 7.375 10 7.375 C 9.7854903 7.375 9.625 7.2145097 9.625 7 C 9.625 6.7854903 9.7854903 6.625 10 6.625 z M 19 11.882812 L 19.117188 12 L 19 12.117188 L 18.941406 12.058594 L 18.882812 12 L 19 11.882812 z M 4 19.625 C 4.0767313 19.625 4.1470439 19.645443 4.2050781 19.681641 A 0.625 0.625 0 0 0 4.2578125 19.742188 A 0.625 0.625 0 0 0 4.3183594 19.794922 C 4.3545567 19.852956 4.375 19.923269 4.375 20 C 4.375 20.21451 4.2145097 20.375 4 20.375 C 3.7854903 20.375 3.625 20.21451 3.625 20 C 3.625 19.78549 3.7854903 19.625 4 19.625 z " />
</svg>
