<?xml version="1.0" encoding="UTF-8" standalone="no"?>
<svg
   width="24"
   height="24"
   viewBox="0 0 24 24"
   fill="none"
   stroke="currentColor"
   stroke-width="1.25"
   stroke-linecap="round"
   stroke-linejoin="round"
   version="1.1"
   id="svg2"
   sodipodi:docname=".tmp_users-round.svg"
   xmlns:inkscape="http://www.inkscape.org/namespaces/inkscape"
   xmlns:sodipodi="http://sodipodi.sourceforge.net/DTD/sodipodi-0.dtd"
   xmlns="http://www.w3.org/2000/svg"
   xmlns:svg="http://www.w3.org/2000/svg">
  <defs
     id="defs2" />
  <sodipodi:namedview
     id="namedview2"
     pagecolor="#ffffff"
     bordercolor="#000000"
     borderopacity="0.25"
     inkscape:showpageshadow="2"
     inkscape:pageopacity="0.0"
     inkscape:pagecheckerboard="0"
     inkscape:deskcolor="#d1d1d1" />
  <path
     id="path1"
     style="baseline-shift:baseline;display:inline;overflow:visible;vector-effect:none;fill:#000000;stroke:none;stroke-linecap:butt;stroke-linejoin:miter;enable-background:accumulate;stop-color:#000000;stop-opacity:1;opacity:1"
     d="M 10 2.375 C 6.9008012 2.375 4.375 4.9008012 4.375 8 C 4.375 10.065432 5.4963762 11.875327 7.1621094 12.853516 C 3.7958248 14.029387 1.375 17.237541 1.375 21 A 0.625 0.625 0 0 0 2 21.625 A 0.625 0.625 0 0 0 2.625 21 C 2.625 16.919494 5.9194966 13.625 10 13.625 C 14.080503 13.625 17.375 16.919494 17.375 21 A 0.625 0.625 0 0 0 18 21.625 A 0.625 0.625 0 0 0 18.625 21 C 18.625 17.237541 16.204175 14.029387 12.837891 12.853516 C 14.503624 11.875327 15.625 10.065433 15.625 8 C 15.625 4.9008012 13.099199 2.375 10 2.375 z M 17.556641 3.0742188 A 0.625 0.625 0 0 0 17.394531 3.09375 A 0.625 0.625 0 0 0 17.011719 3.3808594 A 0.625 0.625 0 0 0 17.230469 4.2382812 C 19.929658 5.8391895 20.135284 9.6166506 17.625 11.5 A 0.6250625 0.6250625 0 0 0 17.625 12.5 C 19.451133 13.8696 21.375 16.87728 21.375 20 A 0.625 0.625 0 0 0 22 20.625 A 0.625 0.625 0 0 0 22.625 20 C 22.625 16.642813 20.8251 13.657203 18.830078 11.933594 C 21.391856 9.4125021 21.073696 5.0627536 17.869141 3.1621094 A 0.625 0.625 0 0 0 17.556641 3.0742188 z M 10 3.625 C 12.423649 3.625 14.375 5.5763513 14.375 8 C 14.375 10.423649 12.423649 12.375 10 12.375 C 7.5763513 12.375 5.625 10.423649 5.625 8 C 5.625 5.5763513 7.5763513 3.625 10 3.625 z " />
</svg>
