<?xml version="1.0" encoding="UTF-8" standalone="no"?>
<svg
   width="24"
   height="24"
   viewBox="0 0 24 24"
   fill="none"
   stroke="currentColor"
   stroke-width="1.25"
   stroke-linecap="round"
   stroke-linejoin="round"
   version="1.1"
   id="svg5"
   sodipodi:docname=".tmp_volume-off.svg"
   xmlns:inkscape="http://www.inkscape.org/namespaces/inkscape"
   xmlns:sodipodi="http://sodipodi.sourceforge.net/DTD/sodipodi-0.dtd"
   xmlns="http://www.w3.org/2000/svg"
   xmlns:svg="http://www.w3.org/2000/svg">
  <defs
     id="defs5" />
  <sodipodi:namedview
     id="namedview5"
     pagecolor="#ffffff"
     bordercolor="#000000"
     borderopacity="0.25"
     inkscape:showpageshadow="2"
     inkscape:pageopacity="0.0"
     inkscape:pagecheckerboard="0"
     inkscape:deskcolor="#d1d1d1" />
  <path
     id="path1"
     style="baseline-shift:baseline;display:inline;overflow:visible;vector-effect:none;fill:#000000;stroke:none;stroke-linecap:butt;stroke-linejoin:miter;enable-background:accumulate;stop-color:#000000;stop-opacity:1;opacity:1"
     d="M 2 1.3769531 A 0.625 0.625 0 0 0 1.5585938 1.5585938 A 0.625 0.625 0 0 0 1.5585938 2.4414062 L 6.1171875 7 L 5.9707031 7.1445312 A 0.6250625 0.6250625 0 0 0 5.9707031 7.1464844 C 5.8245009 7.2935641 5.6253481 7.3756079 5.4179688 7.375 A 0.6250625 0.6250625 0 0 0 5.4160156 7.375 L 3 7.375 C 2.1099402 7.375 1.375 8.1099402 1.375 9 L 1.375 15 C 1.375 15.89006 2.1099402 16.625 3 16.625 L 5.4160156 16.625 A 0.6250625 0.6250625 0 0 0 5.4179688 16.625 C 5.6253481 16.624392 5.8245009 16.70644 5.9707031 16.853516 A 0.6250625 0.6250625 0 0 0 5.9707031 16.855469 L 9.3535156 20.238281 C 9.7537403 20.639295 10.34868 20.716336 10.804688 20.527344 C 11.260694 20.338351 11.625788 19.863436 11.625 19.296875 L 11.625 12.507812 L 21.558594 22.441406 A 0.625 0.625 0 0 0 22.441406 22.441406 A 0.625 0.625 0 0 0 22.441406 21.558594 L 11.462891 10.580078 A 0.625 0.625 0 0 0 11.419922 10.537109 L 2.4414062 1.5585938 A 0.625 0.625 0 0 0 2 1.3769531 z M 10.267578 3.3496094 C 9.9514825 3.3611231 9.6310257 3.4832664 9.3847656 3.7304688 A 0.625 0.625 0 0 0 9.3867188 4.6152344 A 0.625 0.625 0 0 0 10.271484 4.6132812 C 10.283375 4.6013453 10.294316 4.5934186 10.300781 4.5898438 L 10.302734 4.5878906 L 10.304688 4.5878906 L 10.306641 4.5878906 L 10.308594 4.5878906 L 10.310547 4.5878906 C 10.312575 4.5882259 10.318171 4.5908825 10.320312 4.5917969 C 10.324905 4.594053 10.330751 4.5966551 10.337891 4.5996094 C 10.346813 4.6033022 10.355954 4.6072045 10.361328 4.609375 C 10.362277 4.6098711 10.364405 4.610729 10.365234 4.6113281 L 10.367188 4.6113281 L 10.369141 4.6132812 L 10.369141 4.6152344 L 10.371094 4.6171875 C 10.374106 4.6241105 10.375026 4.6360334 10.375 4.65625 L 10.375 5.34375 A 0.625 0.625 0 0 0 11 5.96875 A 0.625 0.625 0 0 0 11.625 5.34375 L 11.625 4.6582031 L 11.625 4.65625 C 11.624888 4.0987816 11.263571 3.6311677 10.814453 3.4453125 C 10.645846 3.3755391 10.457235 3.3427012 10.267578 3.3496094 z M 19.365234 5.0097656 A 0.625 0.625 0 0 0 18.921875 5.1933594 A 0.625 0.625 0 0 0 18.921875 6.078125 C 21.358896 8.5137614 22.055674 12.186897 20.679688 15.345703 A 0.625 0.625 0 0 0 21.003906 16.169922 A 0.625 0.625 0 0 0 21.826172 15.845703 C 23.405867 12.219252 22.604451 7.9895793 19.806641 5.1933594 A 0.625 0.625 0 0 0 19.365234 5.0097656 z M 7 7.8828125 L 10.375 11.257812 L 10.375 19.298828 C 10.375087 19.361168 10.361322 19.358477 10.326172 19.373047 C 10.291022 19.387617 10.282311 19.399589 10.238281 19.355469 L 6.8554688 15.972656 C 6.4745323 15.589442 5.9563028 15.373917 5.4160156 15.375 L 3 15.375 C 2.7854903 15.375 2.625 15.21451 2.625 15 L 2.625 9 C 2.625 8.7854903 2.7854903 8.625 3 8.625 L 5.4160156 8.625 C 5.9563028 8.626083 6.4745323 8.4105581 6.8554688 8.0273438 L 7 7.8828125 z M 16.007812 8.375 A 0.625 0.625 0 0 0 15.625 8.5 A 0.625 0.625 0 0 0 15.5 9.375 C 15.941328 9.9633169 16.227981 10.652807 16.332031 11.380859 A 0.625 0.625 0 0 0 17.039062 11.912109 A 0.625 0.625 0 0 0 17.568359 11.205078 C 17.434589 10.269069 17.067386 9.3813605 16.5 8.625 A 0.625 0.625 0 0 0 16.007812 8.375 z " />
</svg>
