<?xml version="1.0" encoding="UTF-8" standalone="no"?>
<svg
   width="24"
   height="24"
   viewBox="0 0 24 24"
   fill="none"
   stroke="currentColor"
   stroke-width="1.25"
   stroke-linecap="round"
   stroke-linejoin="round"
   version="1.1"
   id="svg3"
   sodipodi:docname=".tmp_washing-machine.svg"
   xmlns:inkscape="http://www.inkscape.org/namespaces/inkscape"
   xmlns:sodipodi="http://sodipodi.sourceforge.net/DTD/sodipodi-0.dtd"
   xmlns="http://www.w3.org/2000/svg"
   xmlns:svg="http://www.w3.org/2000/svg">
  <defs
     id="defs3" />
  <sodipodi:namedview
     id="namedview3"
     pagecolor="#ffffff"
     bordercolor="#000000"
     borderopacity="0.25"
     inkscape:showpageshadow="2"
     inkscape:pageopacity="0.0"
     inkscape:pagecheckerboard="0"
     inkscape:deskcolor="#d1d1d1" />
  <path
     id="path1"
     style="baseline-shift:baseline;display:inline;overflow:visible;vector-effect:none;fill:#000000;stroke:none;stroke-linecap:butt;stroke-linejoin:miter;enable-background:accumulate;stop-color:#000000;stop-opacity:1;opacity:1"
     d="M 5 1.375 C 3.5565608 1.375 2.375 2.5565608 2.375 4 L 2.375 20 C 2.375 21.443439 3.5565608 22.625 5 22.625 L 19 22.625 C 20.443439 22.625 21.625 21.443439 21.625 20 L 21.625 4 C 21.625 2.5565608 20.443439 1.375 19 1.375 L 5 1.375 z M 5 2.625 L 19 2.625 C 19.772561 2.625 20.375 3.2274392 20.375 4 L 20.375 20 C 20.375 20.772561 19.772561 21.375 19 21.375 L 5 21.375 C 4.2274392 21.375 3.625 20.772561 3.625 20 L 3.625 6.625 L 6 6.625 A 0.625 0.625 0 0 0 6.625 6 A 0.625 0.625 0 0 0 6 5.375 L 3.625 5.375 L 3.625 4 C 3.625 3.2274392 4.2274392 2.625 5 2.625 z M 17 5.375 A 0.625 0.625 0 0 0 16.375 6 A 0.625 0.625 0 0 0 17 6.625 L 17.009766 6.625 A 0.625 0.625 0 0 0 17.634766 6 A 0.625 0.625 0 0 0 17.009766 5.375 L 17 5.375 z M 12 7.375 C 11.872782 7.375 11.748341 7.3819522 11.626953 7.3945312 C 8.7013669 7.5882411 6.375 10.026649 6.375 13 C 6.375 16.099199 8.9008012 18.625 12 18.625 C 12.122528 18.625 12.242666 18.615197 12.363281 18.607422 C 12.366644 18.607083 12.369689 18.605817 12.373047 18.605469 C 15.298633 18.411759 17.625 15.973351 17.625 13 C 17.625 9.9008012 15.099199 7.375 12 7.375 z M 12 8.625 C 14.423649 8.625 16.375 10.576351 16.375 13 C 16.375 14.226245 15.875833 15.332118 15.068359 16.125 C 15.106539 15.918659 15.125 15.708715 15.125 15.5 C 15.125 14.736111 14.873009 13.962848 14.341797 13.365234 C 13.810585 12.767621 12.989583 12.375 12 12.375 C 11.322917 12.375 10.893918 12.142621 10.591797 11.802734 C 10.289676 11.462848 10.125 10.986111 10.125 10.5 C 10.125 10.013889 10.289676 9.5371519 10.591797 9.1972656 C 10.852456 8.904024 11.208943 8.6916713 11.736328 8.6386719 C 11.824009 8.6334791 11.910971 8.625 12 8.625 z M 8.9316406 9.875 C 8.8934614 10.081341 8.875 10.291285 8.875 10.5 C 8.875 11.263889 9.1269912 12.037152 9.6582031 12.634766 C 10.189415 13.232379 11.010417 13.625 12 13.625 C 12.677083 13.625 13.106082 13.857379 13.408203 14.197266 C 13.710324 14.537152 13.875 15.013889 13.875 15.5 C 13.875 15.986111 13.710324 16.462848 13.408203 16.802734 C 13.147544 17.095977 12.791057 17.308329 12.263672 17.361328 C 12.175991 17.366521 12.089029 17.375 12 17.375 C 9.5763513 17.375 7.625 15.423649 7.625 13 C 7.625 11.773755 8.1241669 10.667882 8.9316406 9.875 z " />
</svg>
