<?xml version="1.0" encoding="UTF-8" standalone="no"?>
<svg
   width="24"
   height="24"
   viewBox="0 0 24 24"
   fill="none"
   stroke="currentColor"
   stroke-width="1.25"
   stroke-linecap="round"
   stroke-linejoin="round"
   version="1.1"
   id="svg9"
   sodipodi:docname=".tmp_wheat-off.svg"
   xmlns:inkscape="http://www.inkscape.org/namespaces/inkscape"
   xmlns:sodipodi="http://sodipodi.sourceforge.net/DTD/sodipodi-0.dtd"
   xmlns="http://www.w3.org/2000/svg"
   xmlns:svg="http://www.w3.org/2000/svg">
  <defs
     id="defs9" />
  <sodipodi:namedview
     id="namedview9"
     pagecolor="#ffffff"
     bordercolor="#000000"
     borderopacity="0.25"
     inkscape:showpageshadow="2"
     inkscape:pageopacity="0.0"
     inkscape:pagecheckerboard="0"
     inkscape:deskcolor="#d1d1d1" />
  <path
     id="path1"
     style="baseline-shift:baseline;display:inline;overflow:visible;vector-effect:none;fill:#000000;stroke:none;stroke-linecap:butt;stroke-linejoin:miter;enable-background:accumulate;stop-color:#000000;stop-opacity:1;opacity:1"
     d="M 20 1.375 C 17.86986 1.375 16.067934 2.8291508 15.535156 4.7949219 C 15.376882 4.5444235 15.189099 4.3073429 14.972656 4.0898438 A 0.6250625 0.6250625 0 0 0 14.972656 4.0878906 L 13.441406 2.5585938 A 0.6250625 0.6250625 0 0 0 12.558594 2.5585938 L 11.027344 4.0878906 C 10.767167 4.3480671 10.546641 4.6395982 10.369141 4.9472656 A 0.625 0.625 0 0 0 10.597656 5.8007812 A 0.625 0.625 0 0 0 11.451172 5.5722656 C 11.573671 5.3599331 11.732286 5.1524797 11.912109 4.9726562 L 13 3.8828125 L 14.087891 4.9726562 C 15.111631 6.0027245 15.209122 7.6198741 14.316406 8.765625 A 0.625 0.625 0 0 0 14.376953 9.5996094 A 0.625 0.625 0 0 0 14.388672 9.6113281 A 0.625 0.625 0 0 0 14.400391 9.6230469 A 0.625 0.625 0 0 0 15.234375 9.6835938 C 16.380126 8.7908777 17.997275 8.8883688 19.027344 9.9121094 L 20.117188 11 L 19.027344 12.087891 C 18.84752 12.267714 18.640067 12.426329 18.427734 12.548828 A 0.625 0.625 0 0 0 18.199219 13.402344 A 0.625 0.625 0 0 0 19.052734 13.630859 C 19.360402 13.453359 19.651933 13.232833 19.912109 12.972656 L 21.441406 11.441406 A 0.6250625 0.6250625 0 0 0 21.441406 10.558594 L 19.912109 9.0273438 A 0.6250625 0.6250625 0 0 0 19.910156 9.0273438 C 19.692697 8.8109266 19.455579 8.6231405 19.205078 8.4648438 C 21.170845 7.9320632 22.625 6.1301373 22.625 4 L 22.625 2 A 0.6250625 0.6250625 0 0 0 22 1.375 L 20 1.375 z M 2 1.3769531 A 0.625 0.625 0 0 0 1.5585938 1.5585938 A 0.625 0.625 0 0 0 1.5585938 2.4414062 L 7.1171875 8 L 7.0273438 8.0878906 A 0.6250625 0.6250625 0 0 0 7.0273438 8.0898438 C 6.241984 8.8782998 5.8435379 9.9094728 5.8300781 10.945312 L 5.4414062 10.558594 A 0.6250625 0.6250625 0 0 0 4.5585938 10.558594 L 3.0273438 12.087891 A 0.6250625 0.6250625 0 0 0 3.0273438 12.089844 C 1.4292352 13.694253 1.4292352 16.305747 3.0273438 17.910156 A 0.6250625 0.6250625 0 0 0 3.0273438 17.912109 L 4.1171875 19 L 1.5585938 21.558594 A 0.625 0.625 0 0 0 1.5585938 22.441406 A 0.625 0.625 0 0 0 2.4414062 22.441406 L 5 19.882812 L 6.0878906 20.972656 A 0.6250625 0.6250625 0 0 0 6.0898438 20.972656 C 7.6942528 22.570765 10.305747 22.570765 11.910156 20.972656 A 0.6250625 0.6250625 0 0 0 11.912109 20.972656 L 13.441406 19.441406 A 0.6250625 0.6250625 0 0 0 13.441406 18.558594 L 13.054688 18.169922 C 14.09051 18.15645 15.121713 17.758004 15.910156 16.972656 A 0.6250625 0.6250625 0 0 0 15.912109 16.972656 L 16 16.882812 L 21.558594 22.441406 A 0.625 0.625 0 0 0 22.441406 22.441406 A 0.625 0.625 0 0 0 22.441406 21.558594 L 16.445312 15.5625 A 0.625 0.625 0 0 0 16.441406 15.558594 A 0.625 0.625 0 0 0 16.4375 15.554688 L 13.007812 12.125 A 0.625 0.625 0 0 0 12.865234 11.982422 L 12.441406 11.558594 L 12.015625 11.132812 A 0.625 0.625 0 0 0 11.876953 10.994141 L 8.4414062 7.5585938 L 2.4414062 1.5585938 A 0.625 0.625 0 0 0 2 1.3769531 z M 20 2.625 L 21.375 2.625 L 21.375 4 C 21.375 5.8713639 19.871364 7.375 18 7.375 L 16.625 7.375 L 16.625 6 C 16.625 4.1286361 18.128636 2.625 20 2.625 z M 8 8.8828125 L 10.832031 11.714844 C 10.710983 12.195945 10.461537 12.653681 10.087891 13.027344 L 9 14.117188 L 7.9121094 13.029297 L 7.9121094 13.027344 C 6.7913619 11.900698 6.7913619 10.099302 7.9121094 8.9726562 L 7.9121094 8.9707031 L 8 8.8828125 z M 5 11.884766 L 6.0878906 12.972656 C 7.2086381 14.099302 7.2086381 15.900698 6.0878906 17.027344 L 5 18.117188 L 3.9121094 17.029297 L 3.9121094 17.027344 C 2.7913619 15.900698 2.7913619 14.099302 3.9121094 12.972656 L 5 11.884766 z M 12.285156 13.167969 L 15.117188 16 L 15.027344 16.087891 C 13.900698 17.208638 12.099302 17.208638 10.972656 16.087891 L 10.970703 16.087891 L 9.8828125 15 L 10.966797 13.917969 L 10.970703 13.914062 L 10.972656 13.912109 C 10.973944 13.910821 10.975276 13.909493 10.976562 13.908203 C 11.340792 13.548241 11.792328 13.292968 12.285156 13.167969 z M 9 17.070312 C 9.7327102 17.070312 10.465789 17.350814 11.029297 17.912109 L 12.115234 19 L 11.027344 20.087891 C 9.9006976 21.208638 8.0993021 21.208638 6.9726562 20.087891 L 6.9707031 20.087891 L 5.8847656 19 L 6.3359375 18.546875 L 6.9707031 17.912109 L 6.9726562 17.912109 L 6.9726562 17.910156 C 6.975095 17.907708 6.9780375 17.904797 6.9804688 17.902344 C 7.542769 17.347006 8.2711874 17.070312 9 17.070312 z " />
</svg>
