<?xml version="1.0" encoding="UTF-8" standalone="no"?>
<svg
   width="24"
   height="24"
   viewBox="0 0 24 24"
   fill="none"
   stroke="currentColor"
   stroke-width="1.1"
   stroke-linecap="round"
   stroke-linejoin="round"
   version="1.1"
   id="svg4"
   sodipodi:docname=".tmp_archive-restore.svg"
   xmlns:inkscape="http://www.inkscape.org/namespaces/inkscape"
   xmlns:sodipodi="http://sodipodi.sourceforge.net/DTD/sodipodi-0.dtd"
   xmlns="http://www.w3.org/2000/svg"
   xmlns:svg="http://www.w3.org/2000/svg">
  <defs
     id="defs4" />
  <sodipodi:namedview
     id="namedview4"
     pagecolor="#ffffff"
     bordercolor="#000000"
     borderopacity="0.25"
     inkscape:showpageshadow="2"
     inkscape:pageopacity="0.0"
     inkscape:pagecheckerboard="0"
     inkscape:deskcolor="#d1d1d1" />
  <path
     id="rect1"
     style="baseline-shift:baseline;display:inline;overflow:visible;vector-effect:none;fill:#000000;stroke:none;stroke-linecap:butt;stroke-linejoin:miter;enable-background:accumulate;stop-color:#000000;stop-opacity:1;opacity:1"
     d="M 3 2.4492188 C 2.1508135 2.4492188 1.4492188 3.1508135 1.4492188 4 L 1.4492188 7 C 1.4492188 7.8491865 2.1508135 8.5507812 3 8.5507812 L 3.4492188 8.5507812 L 3.4492188 19 C 3.4492188 20.401812 4.5981884 21.550781 6 21.550781 L 8 21.550781 A 0.55000001 0.55000001 0 0 0 8.5507812 21 A 0.55000001 0.55000001 0 0 0 8 20.449219 L 6 20.449219 C 5.1926726 20.449219 4.5507813 19.807327 4.5507812 19 L 4.5507812 8.5507812 L 19.449219 8.5507812 L 19.449219 19 C 19.449219 19.807327 18.807327 20.449219 18 20.449219 L 16 20.449219 A 0.55000001 0.55000001 0 0 0 15.449219 21 A 0.55000001 0.55000001 0 0 0 16 21.550781 L 18 21.550781 C 19.401812 21.550781 20.550781 20.401812 20.550781 19 L 20.550781 8.5507812 L 21 8.5507812 C 21.849187 8.5507812 22.550781 7.8491865 22.550781 7 L 22.550781 4 C 22.550781 3.1508135 21.849187 2.4492188 21 2.4492188 L 3 2.4492188 z M 3 3.5507812 L 21 3.5507812 C 21.258813 3.5507812 21.449219 3.7411865 21.449219 4 L 21.449219 7 C 21.449219 7.2588135 21.258813 7.4492188 21 7.4492188 L 20 7.4492188 L 19.998047 7.4492188 L 4 7.4492188 L 3.9980469 7.4492188 L 3 7.4492188 C 2.7411865 7.4492188 2.5507812 7.2588135 2.5507812 7 L 2.5507812 4 C 2.5507812 3.7411865 2.7411865 3.5507812 3 3.5507812 z M 12 11.449219 A 0.55000001 0.55000001 0 0 0 11.927734 11.455078 A 0.55000001 0.55000001 0 0 0 11.857422 11.46875 A 0.55000001 0.55000001 0 0 0 11.789062 11.492188 A 0.55005501 0.55005501 0 0 0 11.787109 11.494141 A 0.55000001 0.55000001 0 0 0 11.724609 11.523438 A 0.55000001 0.55000001 0 0 0 11.666016 11.564453 A 0.55000001 0.55000001 0 0 0 11.611328 11.611328 A 0.55000001 0.55000001 0 0 0 11.583984 11.638672 L 8.6113281 14.611328 A 0.55000001 0.55000001 0 0 0 8.6113281 15.388672 A 0.55000001 0.55000001 0 0 0 9.3886719 15.388672 L 11.449219 13.328125 L 11.449219 21 A 0.55000001 0.55000001 0 0 0 12 21.550781 A 0.55000001 0.55000001 0 0 0 12.550781 21 L 12.550781 13.328125 L 14.611328 15.388672 A 0.55000001 0.55000001 0 0 0 15.388672 15.388672 A 0.55000001 0.55000001 0 0 0 15.388672 14.611328 L 12.416016 11.638672 L 12.388672 11.611328 A 0.55000001 0.55000001 0 0 0 12.333984 11.564453 A 0.55000001 0.55000001 0 0 0 12.275391 11.523438 A 0.55000001 0.55000001 0 0 0 12.212891 11.494141 A 0.55000001 0.55000001 0 0 0 12.210938 11.492188 A 0.55005501 0.55005501 0 0 0 12.142578 11.46875 A 0.55000001 0.55000001 0 0 0 12.072266 11.455078 A 0.55000001 0.55000001 0 0 0 12 11.449219 z " />
</svg>
