<?xml version="1.0" encoding="UTF-8" standalone="no"?>
<svg
   width="24"
   height="24"
   viewBox="0 0 24 24"
   fill="none"
   stroke="currentColor"
   stroke-width="1.1"
   stroke-linecap="round"
   stroke-linejoin="round"
   version="1.1"
   id="svg2"
   sodipodi:docname=".tmp_arrow-down.svg"
   xmlns:inkscape="http://www.inkscape.org/namespaces/inkscape"
   xmlns:sodipodi="http://sodipodi.sourceforge.net/DTD/sodipodi-0.dtd"
   xmlns="http://www.w3.org/2000/svg"
   xmlns:svg="http://www.w3.org/2000/svg">
  <defs
     id="defs2" />
  <sodipodi:namedview
     id="namedview2"
     pagecolor="#ffffff"
     bordercolor="#000000"
     borderopacity="0.25"
     inkscape:showpageshadow="2"
     inkscape:pageopacity="0.0"
     inkscape:pagecheckerboard="0"
     inkscape:deskcolor="#d1d1d1" />
  <path
     id="path1"
     style="baseline-shift:baseline;display:inline;overflow:visible;vector-effect:none;fill:#000000;stroke:none;stroke-linecap:butt;stroke-linejoin:miter;enable-background:accumulate;stop-color:#000000;stop-opacity:1;opacity:1"
     d="M 12 4.4492188 A 0.55000001 0.55000001 0 0 0 11.449219 5 L 11.449219 17.671875 L 5.3886719 11.611328 A 0.55000001 0.55000001 0 0 0 4.6113281 11.611328 A 0.55000001 0.55000001 0 0 0 4.6113281 12.388672 L 11.583984 19.361328 L 11.611328 19.388672 A 0.55000001 0.55000001 0 0 0 11.666016 19.435547 A 0.55000001 0.55000001 0 0 0 11.724609 19.476562 A 0.55000001 0.55000001 0 0 0 11.787109 19.505859 A 0.55005501 0.55005501 0 0 0 11.789062 19.507812 A 0.55000001 0.55000001 0 0 0 11.802734 19.513672 A 0.55005501 0.55005501 0 0 0 11.857422 19.53125 A 0.55000001 0.55000001 0 0 0 11.927734 19.544922 A 0.55000001 0.55000001 0 0 0 12 19.550781 A 0.55000001 0.55000001 0 0 0 12.072266 19.544922 A 0.55000001 0.55000001 0 0 0 12.142578 19.53125 A 0.55005501 0.55005501 0 0 0 12.210938 19.507812 A 0.55000001 0.55000001 0 0 0 12.212891 19.505859 A 0.55000001 0.55000001 0 0 0 12.275391 19.476562 A 0.55000001 0.55000001 0 0 0 12.333984 19.435547 A 0.55000001 0.55000001 0 0 0 12.388672 19.388672 A 0.55000001 0.55000001 0 0 0 12.416016 19.361328 L 19.388672 12.388672 A 0.55000001 0.55000001 0 0 0 19.388672 11.611328 A 0.55000001 0.55000001 0 0 0 18.611328 11.611328 L 12.550781 17.671875 L 12.550781 5 A 0.55000001 0.55000001 0 0 0 12 4.4492188 z " />
</svg>
