<?xml version="1.0" encoding="UTF-8" standalone="no"?>
<svg
   width="24"
   height="24"
   viewBox="0 0 24 24"
   fill="none"
   stroke="currentColor"
   stroke-width="1.1"
   stroke-linecap="round"
   stroke-linejoin="round"
   version="1.1"
   id="svg1"
   sodipodi:docname=".tmp_at-sign.svg"
   xmlns:inkscape="http://www.inkscape.org/namespaces/inkscape"
   xmlns:sodipodi="http://sodipodi.sourceforge.net/DTD/sodipodi-0.dtd"
   xmlns="http://www.w3.org/2000/svg"
   xmlns:svg="http://www.w3.org/2000/svg">
  <defs
     id="defs1" />
  <sodipodi:namedview
     id="namedview1"
     pagecolor="#ffffff"
     bordercolor="#000000"
     borderopacity="0.25"
     inkscape:showpageshadow="2"
     inkscape:pageopacity="0.0"
     inkscape:pagecheckerboard="0"
     inkscape:deskcolor="#d1d1d1" />
  <path
     id="circle1"
     style="baseline-shift:baseline;display:inline;overflow:visible;vector-effect:none;fill:#000000;stroke:none;stroke-linecap:butt;stroke-linejoin:miter;enable-background:accumulate;stop-color:#000000;stop-opacity:1;opacity:1"
     d="M 11.078125 1.4707031 C 7.7084315 1.7297406 4.4183076 3.5794003 2.5664062 7.2832031 C 0.09720428 12.221607 1.8010096 17.227757 5.2402344 20.099609 C 8.6794592 22.971462 13.909821 23.754646 18.330078 20.439453 A 0.55000001 0.55000001 0 0 0 18.439453 19.669922 A 0.55000001 0.55000001 0 0 0 17.669922 19.560547 C 13.644931 22.57929 9.0452453 21.844393 5.9453125 19.255859 C 2.8453797 16.667325 1.300699 12.271649 3.5488281 7.7753906 C 5.7969573 3.2791323 10.241088 1.8759085 14.171875 2.8027344 C 18.102662 3.7295602 21.449219 6.9687617 21.449219 12 L 21.449219 13 C 21.449219 13.8625 21.146366 14.440644 20.697266 14.839844 C 20.248166 15.239044 19.627778 15.449219 19 15.449219 C 18.372222 15.449219 17.751834 15.239044 17.302734 14.839844 C 16.853634 14.440644 16.550781 13.8625 16.550781 13 L 16.550781 12 L 16.550781 8 A 0.55000001 0.55000001 0 0 0 16 7.4492188 A 0.55000001 0.55000001 0 0 0 15.449219 8 L 15.449219 9.0371094 C 14.61353 8.0660628 13.376429 7.4492188 12 7.4492188 C 9.4936189 7.4492188 7.4492188 9.4936189 7.4492188 12 C 7.4492188 14.506381 9.4936189 16.550781 12 16.550781 C 13.562616 16.550781 14.945624 15.756607 15.765625 14.550781 C 15.961474 14.990324 16.239097 15.364006 16.572266 15.660156 C 17.248166 16.260956 18.127778 16.550781 19 16.550781 C 19.872222 16.550781 20.751834 16.260956 21.427734 15.660156 C 22.103634 15.059356 22.550781 14.1375 22.550781 13 L 22.550781 12 C 22.550781 6.4746791 18.784845 2.7606901 14.423828 1.7324219 C 13.333574 1.4753548 12.201356 1.3843573 11.078125 1.4707031 z M 12 8.5507812 C 13.911897 8.5507812 15.449219 10.088103 15.449219 12 C 15.449219 13.911897 13.911897 15.449219 12 15.449219 C 10.088103 15.449219 8.5507813 13.911897 8.5507812 12 C 8.5507812 10.088103 10.088103 8.5507813 12 8.5507812 z " />
</svg>
