<?xml version="1.0" encoding="UTF-8" standalone="no"?>
<svg
   width="24"
   height="24"
   viewBox="0 0 24 24"
   fill="none"
   stroke="currentColor"
   stroke-width="1.1"
   stroke-linecap="round"
   stroke-linejoin="round"
   version="1.1"
   id="svg5"
   sodipodi:docname=".tmp_bath.svg"
   xmlns:inkscape="http://www.inkscape.org/namespaces/inkscape"
   xmlns:sodipodi="http://sodipodi.sourceforge.net/DTD/sodipodi-0.dtd"
   xmlns="http://www.w3.org/2000/svg"
   xmlns:svg="http://www.w3.org/2000/svg">
  <defs
     id="defs5" />
  <sodipodi:namedview
     id="namedview5"
     pagecolor="#ffffff"
     bordercolor="#000000"
     borderopacity="0.25"
     inkscape:showpageshadow="2"
     inkscape:pageopacity="0.0"
     inkscape:pagecheckerboard="0"
     inkscape:deskcolor="#d1d1d1" />
  <path
     id="path1"
     style="baseline-shift:baseline;display:inline;overflow:visible;vector-effect:none;fill:#000000;stroke:none;stroke-linecap:butt;stroke-linejoin:miter;enable-background:accumulate;stop-color:#000000;stop-opacity:1;opacity:1"
     d="M 6.2578125 2.4492188 C 5.8837068 2.4306261 5.5108679 2.4905061 5.1679688 2.6210938 C 4.2535712 2.9693273 3.5139408 3.8354442 3.4511719 4.96875 A 0.55005501 0.55005501 0 0 0 3.4492188 5 L 3.4492188 11.449219 L 2 11.449219 A 0.55000001 0.55000001 0 0 0 1.4492188 12 A 0.55000001 0.55000001 0 0 0 2 12.550781 L 3.4492188 12.550781 L 3.4492188 17 C 3.4492188 18.401812 4.5981884 19.550781 6 19.550781 L 6.4492188 19.550781 L 6.4492188 21 A 0.55000001 0.55000001 0 0 0 7 21.550781 A 0.55000001 0.55000001 0 0 0 7.5507812 21 L 7.5507812 19.550781 L 16.449219 19.550781 L 16.449219 21 A 0.55000001 0.55000001 0 0 0 17 21.550781 A 0.55000001 0.55000001 0 0 0 17.550781 21 L 17.550781 19.550781 L 18 19.550781 C 19.401812 19.550781 20.550781 18.401812 20.550781 17 L 20.550781 12.550781 L 22 12.550781 A 0.55000001 0.55000001 0 0 0 22.550781 12 A 0.55000001 0.55000001 0 0 0 22 11.449219 L 20.001953 11.449219 L 19.998047 11.449219 L 4.5507812 11.449219 L 4.5507812 5.0253906 C 4.5919545 4.3294593 5.0134746 3.8560374 5.5585938 3.6484375 C 6.105529 3.440146 6.7360591 3.5130587 7.2304688 4.0097656 A 0.55005501 0.55005501 0 0 0 7.2324219 4.0097656 L 8.2226562 5 L 7.6113281 5.6113281 A 0.55000001 0.55000001 0 0 0 7.6113281 6.3886719 A 0.55000001 0.55000001 0 0 0 8.3886719 6.3886719 L 9.3886719 5.3886719 L 10.388672 4.3886719 A 0.55000001 0.55000001 0 0 0 10.388672 3.6113281 A 0.55000001 0.55000001 0 0 0 10 3.4492188 A 0.55000001 0.55000001 0 0 0 9.6113281 3.6113281 L 9 4.2226562 L 8.0117188 3.2324219 L 8.0097656 3.2324219 C 7.6096558 2.8309935 7.1268368 2.5899614 6.6308594 2.4941406 C 6.5067284 2.4701591 6.3825144 2.4554163 6.2578125 2.4492188 z M 4.5507812 12.550781 L 19.449219 12.550781 L 19.449219 17 C 19.449219 17.807327 18.807327 18.449219 18 18.449219 L 17.001953 18.449219 L 16.998047 18.449219 L 7.0019531 18.449219 L 6.9980469 18.449219 L 6 18.449219 C 5.1926726 18.449219 4.5507813 17.807327 4.5507812 17 L 4.5507812 12.550781 z " />
</svg>
