<?xml version="1.0" encoding="UTF-8" standalone="no"?>
<svg
   width="24"
   height="24"
   viewBox="0 0 24 24"
   fill="none"
   stroke="currentColor"
   stroke-width="1.1"
   stroke-linecap="round"
   stroke-linejoin="round"
   version="1.1"
   id="svg4"
   sodipodi:docname=".tmp_bed.svg"
   xmlns:inkscape="http://www.inkscape.org/namespaces/inkscape"
   xmlns:sodipodi="http://sodipodi.sourceforge.net/DTD/sodipodi-0.dtd"
   xmlns="http://www.w3.org/2000/svg"
   xmlns:svg="http://www.w3.org/2000/svg">
  <defs
     id="defs4" />
  <sodipodi:namedview
     id="namedview4"
     pagecolor="#ffffff"
     bordercolor="#000000"
     borderopacity="0.25"
     inkscape:showpageshadow="2"
     inkscape:pageopacity="0.0"
     inkscape:pagecheckerboard="0"
     inkscape:deskcolor="#d1d1d1" />
  <path
     id="path1"
     style="baseline-shift:baseline;display:inline;overflow:visible;vector-effect:none;fill:#000000;stroke:none;stroke-linecap:butt;stroke-linejoin:miter;enable-background:accumulate;stop-color:#000000;stop-opacity:1;opacity:1"
     d="M 2 3.4492188 A 0.55000001 0.55000001 0 0 0 1.4492188 4 L 1.4492188 7.9980469 A 0.55000001 0.55000001 0 0 0 1.4492188 8 A 0.55000001 0.55000001 0 0 0 1.4492188 8.0019531 L 1.4492188 16.998047 A 0.55000001 0.55000001 0 0 0 1.4492188 17 A 0.55000001 0.55000001 0 0 0 1.4492188 17.001953 L 1.4492188 20 A 0.55000001 0.55000001 0 0 0 2 20.550781 A 0.55000001 0.55000001 0 0 0 2.5507812 20 L 2.5507812 17.550781 L 5.9980469 17.550781 L 6.0019531 17.550781 L 21.449219 17.550781 L 21.449219 20 A 0.55000001 0.55000001 0 0 0 22 20.550781 A 0.55000001 0.55000001 0 0 0 22.550781 20 L 22.550781 17.001953 A 0.55000001 0.55000001 0 0 0 22.550781 17 A 0.55000001 0.55000001 0 0 0 22.550781 16.998047 L 22.550781 10 C 22.550781 8.5981884 21.401812 7.4492187 20 7.4492188 L 6.0019531 7.4492188 L 5.9980469 7.4492188 L 2.5507812 7.4492188 L 2.5507812 4 A 0.55000001 0.55000001 0 0 0 2 3.4492188 z M 2.5507812 8.5507812 L 5.4492188 8.5507812 L 5.4492188 16.449219 L 2.5507812 16.449219 L 2.5507812 8.5507812 z M 6.5507812 8.5507812 L 20 8.5507812 C 20.807327 8.5507812 21.449219 9.1926726 21.449219 10 L 21.449219 16.449219 L 6.5507812 16.449219 L 6.5507812 8.5507812 z " />
</svg>
