<?xml version="1.0" encoding="UTF-8" standalone="no"?>
<svg
   width="24"
   height="24"
   viewBox="0 0 24 24"
   fill="none"
   stroke="currentColor"
   stroke-width="1.1"
   stroke-linecap="round"
   stroke-linejoin="round"
   version="1.1"
   id="svg5"
   sodipodi:docname=".tmp_calendar-minus.svg"
   xmlns:inkscape="http://www.inkscape.org/namespaces/inkscape"
   xmlns:sodipodi="http://sodipodi.sourceforge.net/DTD/sodipodi-0.dtd"
   xmlns="http://www.w3.org/2000/svg"
   xmlns:svg="http://www.w3.org/2000/svg">
  <defs
     id="defs5" />
  <sodipodi:namedview
     id="namedview5"
     pagecolor="#ffffff"
     bordercolor="#000000"
     borderopacity="0.25"
     inkscape:showpageshadow="2"
     inkscape:pageopacity="0.0"
     inkscape:pagecheckerboard="0"
     inkscape:deskcolor="#d1d1d1" />
  <path
     id="path1"
     style="baseline-shift:baseline;display:inline;overflow:visible;vector-effect:none;fill:#000000;stroke:none;stroke-linecap:butt;stroke-linejoin:miter;enable-background:accumulate;stop-color:#000000;stop-opacity:1;opacity:1"
     d="M 8 1.4492188 A 0.55000001 0.55000001 0 0 0 7.4492188 2 L 7.4492188 3.4492188 L 5 3.4492188 C 3.5981884 3.4492188 2.4492188 4.5981884 2.4492188 6 L 2.4492188 9.9980469 A 0.55000001 0.55000001 0 0 0 2.4492188 10 A 0.55000001 0.55000001 0 0 0 2.4492188 10.001953 L 2.4492188 20 C 2.4492188 21.401812 3.5981884 22.550781 5 22.550781 L 13.5 22.550781 A 0.55000001 0.55000001 0 0 0 14.050781 22 A 0.55000001 0.55000001 0 0 0 13.5 21.449219 L 5 21.449219 C 4.1926726 21.449219 3.5507813 20.807327 3.5507812 20 L 3.5507812 10.550781 L 20.449219 10.550781 L 20.449219 15 A 0.55000001 0.55000001 0 0 0 21 15.550781 A 0.55000001 0.55000001 0 0 0 21.550781 15 L 21.550781 10.001953 A 0.55000001 0.55000001 0 0 0 21.550781 10 A 0.55000001 0.55000001 0 0 0 21.550781 9.9980469 L 21.550781 6 C 21.550781 4.5981884 20.401812 3.4492187 19 3.4492188 L 16.550781 3.4492188 L 16.550781 2 A 0.55000001 0.55000001 0 0 0 16 1.4492188 A 0.55000001 0.55000001 0 0 0 15.449219 2 L 15.449219 3.4492188 L 8.5507812 3.4492188 L 8.5507812 2 A 0.55000001 0.55000001 0 0 0 8 1.4492188 z M 5 4.5507812 L 7.4492188 4.5507812 L 7.4492188 6 A 0.55000001 0.55000001 0 0 0 8 6.5507812 A 0.55000001 0.55000001 0 0 0 8.5507812 6 L 8.5507812 4.5507812 L 15.449219 4.5507812 L 15.449219 6 A 0.55000001 0.55000001 0 0 0 16 6.5507812 A 0.55000001 0.55000001 0 0 0 16.550781 6 L 16.550781 4.5507812 L 19 4.5507812 C 19.807327 4.5507812 20.449219 5.1926726 20.449219 6 L 20.449219 9.4492188 L 3.5507812 9.4492188 L 3.5507812 6 C 3.5507812 5.1926726 4.1926726 4.5507812 5 4.5507812 z M 16 18.449219 A 0.55000001 0.55000001 0 0 0 15.449219 19 A 0.55000001 0.55000001 0 0 0 16 19.550781 L 22 19.550781 A 0.55000001 0.55000001 0 0 0 22.550781 19 A 0.55000001 0.55000001 0 0 0 22 18.449219 L 16 18.449219 z " />
</svg>
