<?xml version="1.0" encoding="UTF-8" standalone="no"?>
<svg
   width="24"
   height="24"
   viewBox="0 0 24 24"
   fill="none"
   stroke="currentColor"
   stroke-width="1.1"
   stroke-linecap="round"
   stroke-linejoin="round"
   version="1.1"
   id="svg3"
   sodipodi:docname=".tmp_cast.svg"
   xmlns:inkscape="http://www.inkscape.org/namespaces/inkscape"
   xmlns:sodipodi="http://sodipodi.sourceforge.net/DTD/sodipodi-0.dtd"
   xmlns="http://www.w3.org/2000/svg"
   xmlns:svg="http://www.w3.org/2000/svg">
  <defs
     id="defs3" />
  <sodipodi:namedview
     id="namedview3"
     pagecolor="#ffffff"
     bordercolor="#000000"
     borderopacity="0.25"
     inkscape:showpageshadow="2"
     inkscape:pageopacity="0.0"
     inkscape:pagecheckerboard="0"
     inkscape:deskcolor="#d1d1d1" />
  <path
     id="path1"
     style="baseline-shift:baseline;display:inline;overflow:visible;vector-effect:none;fill:#000000;stroke:none;stroke-linecap:butt;stroke-linejoin:miter;enable-background:accumulate;stop-color:#000000;stop-opacity:1;opacity:1"
     d="M 4 3.4492188 C 2.5981884 3.4492188 1.4492188 4.5981884 1.4492188 6 L 1.4492188 8 A 0.55000001 0.55000001 0 0 0 2 8.5507812 A 0.55000001 0.55000001 0 0 0 2.5507812 8 L 2.5507812 6 C 2.5507812 5.1926726 3.1926726 4.5507812 4 4.5507812 L 20 4.5507812 C 20.807327 4.5507812 21.449219 5.1926726 21.449219 6 L 21.449219 18 C 21.449219 18.807327 20.807327 19.449219 20 19.449219 L 14 19.449219 A 0.55000001 0.55000001 0 0 0 13.449219 20 A 0.55000001 0.55000001 0 0 0 14 20.550781 L 20 20.550781 C 21.401812 20.550781 22.550781 19.401812 22.550781 18 L 22.550781 6 C 22.550781 4.5981884 21.401812 3.4492187 20 3.4492188 L 4 3.4492188 z M 1.9863281 11.449219 A 0.55000001 0.55000001 0 0 0 1.453125 11.941406 A 0.55000001 0.55000001 0 0 0 1.9414062 12.546875 C 5.9057159 12.967568 9.0324323 16.094284 9.453125 20.058594 A 0.55000001 0.55000001 0 0 0 10.058594 20.546875 A 0.55000001 0.55000001 0 0 0 10.546875 19.941406 C 10.072137 15.467813 6.5321869 11.927863 2.0585938 11.453125 A 0.55000001 0.55000001 0 0 0 1.9863281 11.449219 z M 1.9589844 15.451172 A 0.55000001 0.55000001 0 0 0 1.4589844 15.898438 A 0.55000001 0.55000001 0 0 0 1.8984375 16.541016 C 3.708565 16.87814 5.1218597 18.291436 5.4589844 20.101562 A 0.55000001 0.55000001 0 0 0 6.1015625 20.541016 A 0.55000001 0.55000001 0 0 0 6.5410156 19.898438 C 6.1212761 17.644726 4.355275 15.878724 2.1015625 15.458984 A 0.55000001 0.55000001 0 0 0 1.9589844 15.451172 z M 2 19.449219 A 0.55000001 0.55000001 0 0 0 1.4492188 20 A 0.55000001 0.55000001 0 0 0 2 20.550781 L 2.0097656 20.550781 A 0.55000001 0.55000001 0 0 0 2.5605469 20 A 0.55000001 0.55000001 0 0 0 2.0097656 19.449219 L 2 19.449219 z " />
</svg>
