<?xml version="1.0" encoding="UTF-8" standalone="no"?>
<svg
   width="24"
   height="24"
   viewBox="0 0 24 24"
   fill="none"
   stroke="currentColor"
   stroke-width="1.1"
   stroke-linecap="round"
   stroke-linejoin="round"
   version="1.1"
   id="svg5"
   sodipodi:docname=".tmp_cctv.svg"
   xmlns:inkscape="http://www.inkscape.org/namespaces/inkscape"
   xmlns:sodipodi="http://sodipodi.sourceforge.net/DTD/sodipodi-0.dtd"
   xmlns="http://www.w3.org/2000/svg"
   xmlns:svg="http://www.w3.org/2000/svg">
  <defs
     id="defs5" />
  <sodipodi:namedview
     id="namedview5"
     pagecolor="#ffffff"
     bordercolor="#000000"
     borderopacity="0.25"
     inkscape:showpageshadow="2"
     inkscape:pageopacity="0.0"
     inkscape:pagecheckerboard="0"
     inkscape:deskcolor="#d1d1d1" />
  <path
     id="path1"
     style="baseline-shift:baseline;display:inline;overflow:visible;vector-effect:none;fill:#000000;stroke:none;stroke-linecap:butt;stroke-linejoin:miter;enable-background:accumulate;stop-color:#000000;stop-opacity:1;opacity:1"
     d="M 6.5292969 3.4472656 C 5.1798582 3.3610832 3.8417442 4.0730325 3.1992188 5.3535156 A 0.55005501 0.55005501 0 0 0 3.1972656 5.3554688 L 1.8183594 8.1445312 C 0.96925791 9.8487918 1.6627564 11.934457 3.3632812 12.791016 L 8.265625 15.244141 L 7.0683594 17.65625 L 7.0683594 17.652344 C 6.8197825 18.145674 6.3160812 18.453063 5.7636719 18.449219 A 0.55005501 0.55005501 0 0 0 5.7597656 18.449219 L 2.5507812 18.449219 L 2.5507812 17 A 0.55000001 0.55000001 0 0 0 2 16.449219 A 0.55000001 0.55000001 0 0 0 1.4492188 17 L 1.4492188 18.998047 A 0.55000001 0.55000001 0 0 0 1.4492188 19 A 0.55000001 0.55000001 0 0 0 1.4492188 19.001953 L 1.4492188 21 A 0.55000001 0.55000001 0 0 0 2 21.550781 A 0.55000001 0.55000001 0 0 0 2.5507812 21 L 2.5507812 19.550781 L 5.7558594 19.550781 C 6.7240775 19.557481 7.615096 19.013117 8.0507812 18.148438 A 0.55005501 0.55005501 0 0 0 8.0527344 18.144531 L 9.2480469 15.736328 L 12.859375 17.542969 C 13.619259 17.923307 14.559409 17.61159 14.939453 16.851562 L 15.494141 15.742188 L 17.085938 17.970703 C 17.750754 18.90115 19.222795 18.784459 19.734375 17.761719 L 21.767578 13.693359 C 22.272138 12.683636 21.511582 11.449821 20.382812 11.449219 L 17.640625 11.449219 L 18.044922 10.640625 C 18.424229 9.8811036 18.110722 8.9405795 17.351562 8.5605469 L 7.8574219 3.8085938 L 7.8554688 3.8085938 C 7.4292013 3.594887 6.9784939 3.4759538 6.5292969 3.4472656 z M 6.2226562 4.5371094 C 6.6044668 4.5253693 6.9958532 4.6065492 7.3632812 4.7910156 L 16.859375 9.5449219 C 17.08727 9.6590055 17.174413 9.9204329 17.060547 10.148438 L 16.257812 11.753906 A 0.55000001 0.55000001 0 0 0 16.242188 11.785156 L 13.955078 16.359375 C 13.840979 16.587556 13.579699 16.674734 13.351562 16.560547 L 3.8574219 11.808594 C 2.6863096 11.218701 2.2179778 9.8084507 2.8027344 8.6347656 L 4.1816406 5.8457031 L 4.1835938 5.84375 C 4.4787937 5.2572307 4.9789225 4.8465447 5.5527344 4.65625 C 5.768241 4.584781 5.9935699 4.5441534 6.2226562 4.5371094 z M 7 8.4492188 A 0.55000001 0.55000001 0 0 0 6.4492188 9 A 0.55000001 0.55000001 0 0 0 7 9.5507812 L 7.0097656 9.5507812 A 0.55000001 0.55000001 0 0 0 7.5605469 9 A 0.55000001 0.55000001 0 0 0 7.0097656 8.4492188 L 7 8.4492188 z M 17.089844 12.550781 L 20.380859 12.550781 C 20.738178 12.550972 20.942925 12.881538 20.783203 13.201172 L 18.75 17.269531 C 18.587465 17.594469 18.193642 17.62569 17.982422 17.330078 A 0.55005501 0.55005501 0 0 0 17.980469 17.330078 L 16.050781 14.628906 L 17.089844 12.550781 z " />
</svg>
