<?xml version="1.0" encoding="UTF-8" standalone="no"?>
<svg
   width="24"
   height="24"
   viewBox="0 0 24 24"
   fill="none"
   stroke="currentColor"
   stroke-width="1.1"
   stroke-linecap="round"
   stroke-linejoin="round"
   version="1.1"
   id="svg2"
   sodipodi:docname=".tmp_chef-hat.svg"
   xmlns:inkscape="http://www.inkscape.org/namespaces/inkscape"
   xmlns:sodipodi="http://sodipodi.sourceforge.net/DTD/sodipodi-0.dtd"
   xmlns="http://www.w3.org/2000/svg"
   xmlns:svg="http://www.w3.org/2000/svg">
  <defs
     id="defs2" />
  <sodipodi:namedview
     id="namedview2"
     pagecolor="#ffffff"
     bordercolor="#000000"
     borderopacity="0.25"
     inkscape:showpageshadow="2"
     inkscape:pageopacity="0.0"
     inkscape:pagecheckerboard="0"
     inkscape:deskcolor="#d1d1d1" />
  <path
     id="path1"
     style="baseline-shift:baseline;display:inline;overflow:visible;vector-effect:none;fill:#000000;stroke:none;stroke-linecap:butt;stroke-linejoin:miter;enable-background:accumulate;stop-color:#000000;stop-opacity:1;opacity:1"
     d="M 12 2.4453125 C 10.044923 2.4453125 8.1021197 3.5041783 7.0898438 5.5019531 C 4.8076834 5.4471071 3.1311645 6.9399975 2.6171875 8.7675781 C 2.0738961 10.699394 2.7799362 13.025635 5.0351562 14.103516 C 5.2930107 14.227737 5.4492188 14.446531 5.4492188 14.648438 L 5.4492188 16.998047 A 0.55000001 0.55000001 0 0 0 5.4492188 17 A 0.55000001 0.55000001 0 0 0 5.4492188 17.001953 L 5.4492188 20 C 5.4492188 20.849527 6.1504732 21.550781 7 21.550781 L 17 21.550781 C 17.849527 21.550781 18.550781 20.849527 18.550781 20 L 18.550781 17.001953 A 0.55000001 0.55000001 0 0 0 18.550781 17 A 0.55000001 0.55000001 0 0 0 18.550781 16.998047 L 18.550781 14.650391 C 18.550781 14.446928 18.707929 14.228613 18.964844 14.105469 C 21.221176 13.0282 21.928127 10.699899 21.384766 8.7675781 C 20.870572 6.9389868 19.193963 5.4454105 16.910156 5.5019531 C 15.89788 3.5041783 13.955077 2.4453125 12 2.4453125 z M 12 3.546875 C 13.664432 3.546875 15.307256 4.4237275 16.087891 6.2382812 A 0.55005501 0.55005501 0 0 0 16.650391 6.5664062 C 18.629851 6.3615498 19.906098 7.5705712 20.326172 9.0644531 C 20.746246 10.558335 20.286362 12.256455 18.490234 13.113281 C 17.925149 13.384137 17.449219 13.939853 17.449219 14.650391 L 17.449219 16.449219 L 6.5507812 16.449219 L 6.5507812 14.648438 C 6.5507812 13.938344 6.0758645 13.385059 5.5117188 13.113281 A 0.55005501 0.55005501 0 0 0 5.5097656 13.111328 C 3.7156336 12.253873 3.2558739 10.557544 3.6757812 9.0644531 C 4.0956886 7.5713618 5.3734704 6.3630336 7.3515625 6.5664062 A 0.55005501 0.55005501 0 0 0 7.9121094 6.2382812 C 8.6927441 4.4237274 10.335568 3.546875 12 3.546875 z M 6.5507812 17.550781 L 17.449219 17.550781 L 17.449219 20 C 17.449219 20.255043 17.255043 20.449219 17 20.449219 L 7 20.449219 C 6.7449573 20.449219 6.5507813 20.255043 6.5507812 20 L 6.5507812 17.550781 z " />
</svg>
