<?xml version="1.0" encoding="UTF-8" standalone="no"?>
<svg
   width="24"
   height="24"
   viewBox="0 0 24 24"
   fill="none"
   stroke="currentColor"
   stroke-width="1.1"
   stroke-linecap="round"
   stroke-linejoin="round"
   version="1.1"
   id="svg2"
   sodipodi:docname=".tmp_chevrons-down.svg"
   xmlns:inkscape="http://www.inkscape.org/namespaces/inkscape"
   xmlns:sodipodi="http://sodipodi.sourceforge.net/DTD/sodipodi-0.dtd"
   xmlns="http://www.w3.org/2000/svg"
   xmlns:svg="http://www.w3.org/2000/svg">
  <defs
     id="defs2" />
  <sodipodi:namedview
     id="namedview2"
     pagecolor="#ffffff"
     bordercolor="#000000"
     borderopacity="0.25"
     inkscape:showpageshadow="2"
     inkscape:pageopacity="0.0"
     inkscape:pagecheckerboard="0"
     inkscape:deskcolor="#d1d1d1" />
  <path
     id="path1"
     style="baseline-shift:baseline;display:inline;overflow:visible;vector-effect:none;fill:#000000;stroke:none;stroke-linecap:butt;stroke-linejoin:miter;enable-background:accumulate;stop-color:#000000;stop-opacity:1;opacity:1"
     d="M 7 5.4511719 A 0.55000001 0.55000001 0 0 0 6.6113281 5.6113281 A 0.55000001 0.55000001 0 0 0 6.6113281 6.3886719 L 11.611328 11.388672 A 0.55005501 0.55005501 0 0 0 12.388672 11.388672 L 17.388672 6.3886719 A 0.55000001 0.55000001 0 0 0 17.388672 5.6113281 A 0.55000001 0.55000001 0 0 0 16.611328 5.6113281 L 12 10.222656 L 7.3886719 5.6113281 A 0.55000001 0.55000001 0 0 0 7 5.4511719 z M 7 12.451172 A 0.55000001 0.55000001 0 0 0 6.6113281 12.611328 A 0.55000001 0.55000001 0 0 0 6.6113281 13.388672 L 11.611328 18.388672 A 0.55005501 0.55005501 0 0 0 12.388672 18.388672 L 17.388672 13.388672 A 0.55000001 0.55000001 0 0 0 17.388672 12.611328 A 0.55000001 0.55000001 0 0 0 16.611328 12.611328 L 12 17.222656 L 7.3886719 12.611328 A 0.55000001 0.55000001 0 0 0 7 12.451172 z " />
</svg>
