<?xml version="1.0" encoding="UTF-8" standalone="no"?>
<svg
   width="24"
   height="24"
   viewBox="0 0 24 24"
   fill="none"
   stroke="currentColor"
   stroke-width="1.1"
   stroke-linecap="round"
   stroke-linejoin="round"
   version="1.1"
   id="svg6"
   sodipodi:docname=".tmp_cigarette-off.svg"
   xmlns:inkscape="http://www.inkscape.org/namespaces/inkscape"
   xmlns:sodipodi="http://sodipodi.sourceforge.net/DTD/sodipodi-0.dtd"
   xmlns="http://www.w3.org/2000/svg"
   xmlns:svg="http://www.w3.org/2000/svg">
  <defs
     id="defs6" />
  <sodipodi:namedview
     id="namedview6"
     pagecolor="#ffffff"
     bordercolor="#000000"
     borderopacity="0.25"
     inkscape:showpageshadow="2"
     inkscape:pageopacity="0.0"
     inkscape:pagecheckerboard="0"
     inkscape:deskcolor="#d1d1d1" />
  <path
     id="path1"
     style="baseline-shift:baseline;display:inline;overflow:visible;vector-effect:none;fill:#000000;stroke:none;stroke-linecap:butt;stroke-linejoin:miter;enable-background:accumulate;stop-color:#000000;stop-opacity:1;opacity:1"
     d="M 2 1.4492188 A 0.55000001 0.55000001 0 0 0 1.6113281 1.6113281 A 0.55000001 0.55000001 0 0 0 1.6113281 2.3886719 L 10.671875 11.449219 L 7.0019531 11.449219 L 6.9980469 11.449219 L 3 11.449219 C 2.1504732 11.449219 1.4492188 12.150473 1.4492188 13 L 1.4492188 15 C 1.4492188 15.849527 2.1504732 16.550781 3 16.550781 L 6.9980469 16.550781 L 7.0019531 16.550781 L 15.773438 16.550781 L 21.611328 22.388672 A 0.55000001 0.55000001 0 0 0 22.388672 22.388672 A 0.55000001 0.55000001 0 0 0 22.388672 21.611328 L 16.416016 15.638672 A 0.55000001 0.55000001 0 0 0 16.361328 15.583984 L 12.416016 11.638672 A 0.55000001 0.55000001 0 0 0 12.361328 11.583984 L 2.3886719 1.6113281 A 0.55000001 0.55000001 0 0 0 2 1.4492188 z M 16 2.4492188 A 0.55000001 0.55000001 0 0 0 15.449219 3 C 15.449219 4.3966667 16.070313 5.21875 16.570312 5.84375 C 17.070312 6.46875 17.449219 6.8966667 17.449219 8 A 0.55000001 0.55000001 0 0 0 18 8.5507812 A 0.55000001 0.55000001 0 0 0 18.550781 8 C 18.550781 6.6033333 17.929689 5.78125 17.429688 5.15625 C 16.929688 4.53125 16.550781 4.1033333 16.550781 3 A 0.55000001 0.55000001 0 0 0 16 2.4492188 z M 20 2.4492188 A 0.55000001 0.55000001 0 0 0 19.449219 3 C 19.449219 4.3966667 20.070313 5.21875 20.570312 5.84375 C 21.070312 6.46875 21.449219 6.8966667 21.449219 8 A 0.55000001 0.55000001 0 0 0 22 8.5507812 A 0.55000001 0.55000001 0 0 0 22.550781 8 C 22.550781 6.6033333 21.929689 5.78125 21.429688 5.15625 C 20.929688 4.53125 20.550781 4.1033333 20.550781 3 A 0.55000001 0.55000001 0 0 0 20 2.4492188 z M 21 11.449219 A 0.55000001 0.55000001 0 0 0 20.449219 12 A 0.55000001 0.55000001 0 0 0 21 12.550781 C 21.255043 12.550781 21.449219 12.744957 21.449219 13 L 21.449219 15 C 21.449215 15.161647 21.364599 15.309801 21.224609 15.390625 A 0.55000001 0.55000001 0 0 0 21.023438 16.140625 A 0.55000001 0.55000001 0 0 0 21.775391 16.341797 C 22.254187 16.065364 22.550767 15.552866 22.550781 15 L 22.550781 13 C 22.550781 12.150473 21.849527 11.449219 21 11.449219 z M 3 12.550781 L 6.4492188 12.550781 L 6.4492188 15.449219 L 3 15.449219 C 2.7449573 15.449219 2.5507812 15.255043 2.5507812 15 L 2.5507812 13 C 2.5507812 12.744957 2.7449573 12.550781 3 12.550781 z M 7.5507812 12.550781 L 11.773438 12.550781 L 14.671875 15.449219 L 7.5507812 15.449219 L 7.5507812 12.550781 z " />
</svg>
