<?xml version="1.0" encoding="UTF-8" standalone="no"?>
<svg
   width="24"
   height="24"
   viewBox="0 0 24 24"
   fill="none"
   stroke="currentColor"
   stroke-width="1.1"
   stroke-linecap="round"
   stroke-linejoin="round"
   version="1.1"
   id="svg3"
   sodipodi:docname=".tmp_circle-arrow-out-up-right.svg"
   xmlns:inkscape="http://www.inkscape.org/namespaces/inkscape"
   xmlns:sodipodi="http://sodipodi.sourceforge.net/DTD/sodipodi-0.dtd"
   xmlns="http://www.w3.org/2000/svg"
   xmlns:svg="http://www.w3.org/2000/svg">
  <defs
     id="defs3" />
  <sodipodi:namedview
     id="namedview3"
     pagecolor="#ffffff"
     bordercolor="#000000"
     borderopacity="0.25"
     inkscape:showpageshadow="2"
     inkscape:pageopacity="0.0"
     inkscape:pagecheckerboard="0"
     inkscape:deskcolor="#d1d1d1" />
  <path
     id="path1"
     style="baseline-shift:baseline;display:inline;overflow:visible;vector-effect:none;fill:#000000;stroke:none;stroke-linecap:butt;stroke-linejoin:miter;enable-background:accumulate;stop-color:#000000;stop-opacity:1;opacity:1"
     d="M 12 1.4492188 C 7.3235242 1.4492188 3.771932 4.2975753 2.2539062 7.9628906 C 0.73588048 11.628206 1.234624 16.152593 4.5410156 19.458984 C 7.8474072 22.765376 12.371794 23.264119 16.037109 21.746094 C 19.702425 20.228068 22.550781 16.676476 22.550781 12 A 0.55000001 0.55000001 0 0 0 22 11.449219 A 0.55000001 0.55000001 0 0 0 21.449219 12 C 21.449219 16.233192 18.912396 19.365726 15.617188 20.730469 C 12.321979 22.095211 8.3112908 21.674572 5.3183594 18.681641 C 2.3254279 15.688709 1.9047888 11.678021 3.2695312 8.3828125 C 4.6342736 5.0876042 7.7668076 2.5507812 12 2.5507812 A 0.55000001 0.55000001 0 0 0 12.550781 2 A 0.55000001 0.55000001 0 0 0 12 1.4492188 z M 16 1.4492188 A 0.55000001 0.55000001 0 0 0 15.449219 2 A 0.55000001 0.55000001 0 0 0 16 2.5507812 L 20.671875 2.5507812 L 11.611328 11.611328 A 0.55000001 0.55000001 0 0 0 11.611328 12.388672 A 0.55000001 0.55000001 0 0 0 12.388672 12.388672 L 21.449219 3.328125 L 21.449219 8 A 0.55000001 0.55000001 0 0 0 22 8.5507812 A 0.55000001 0.55000001 0 0 0 22.550781 8 L 22.550781 2 A 0.55005501 0.55005501 0 0 0 22.53125 1.8574219 A 0.55005501 0.55005501 0 0 0 22.476562 1.7246094 A 0.55005501 0.55005501 0 0 0 22.275391 1.5234375 A 0.55005501 0.55005501 0 0 0 22.142578 1.46875 A 0.55005501 0.55005501 0 0 0 22 1.4492188 L 16 1.4492188 z " />
</svg>
