<?xml version="1.0" encoding="UTF-8" standalone="no"?>
<svg
   width="24"
   height="24"
   viewBox="0 0 24 24"
   fill="none"
   stroke="currentColor"
   stroke-width="1.1"
   stroke-linecap="round"
   stroke-linejoin="round"
   version="1.1"
   id="svg2"
   sodipodi:docname=".tmp_circle-power.svg"
   xmlns:inkscape="http://www.inkscape.org/namespaces/inkscape"
   xmlns:sodipodi="http://sodipodi.sourceforge.net/DTD/sodipodi-0.dtd"
   xmlns="http://www.w3.org/2000/svg"
   xmlns:svg="http://www.w3.org/2000/svg">
  <defs
     id="defs2" />
  <sodipodi:namedview
     id="namedview2"
     pagecolor="#ffffff"
     bordercolor="#000000"
     borderopacity="0.25"
     inkscape:showpageshadow="2"
     inkscape:pageopacity="0.0"
     inkscape:pagecheckerboard="0"
     inkscape:deskcolor="#d1d1d1" />
  <path
     id="path1"
     style="baseline-shift:baseline;display:inline;overflow:visible;vector-effect:none;fill:#000000;stroke:none;stroke-linecap:butt;stroke-linejoin:miter;enable-background:accumulate;stop-color:#000000;stop-opacity:1;opacity:1"
     d="M 12 1.4492188 C 6.1799104 1.4492188 1.4492187 6.1799104 1.4492188 12 C 1.4492188 17.82009 6.1799104 22.550781 12 22.550781 C 17.82009 22.550781 22.550781 17.82009 22.550781 12 C 22.550781 6.1799104 17.82009 1.4492187 12 1.4492188 z M 12 2.5507812 C 17.225605 2.5507812 21.449219 6.7743946 21.449219 12 C 21.449219 17.225605 17.225605 21.449219 12 21.449219 C 6.7743946 21.449219 2.5507813 17.225605 2.5507812 12 C 2.5507812 6.7743946 6.7743946 2.5507811 12 2.5507812 z M 12 6.4492188 A 0.55000001 0.55000001 0 0 0 11.449219 7 L 11.449219 11 A 0.55000001 0.55000001 0 0 0 12 11.550781 A 0.55000001 0.55000001 0 0 0 12.550781 11 L 12.550781 7 A 0.55000001 0.55000001 0 0 0 12 6.4492188 z M 16.003906 8.4472656 A 0.55000001 0.55000001 0 0 0 15.667969 8.5585938 A 0.55000001 0.55000001 0 0 0 15.558594 9.328125 C 17.781506 12.288154 15.703504 16.448858 12.001953 16.451172 C 8.3004024 16.453485 6.2182894 12.294836 8.4375 9.3320312 A 0.55000001 0.55000001 0 0 0 8.328125 8.5625 A 0.55000001 0.55000001 0 0 0 7.5585938 8.6738281 C 4.837497 12.306687 7.4651759 17.553618 12.003906 17.550781 C 16.542636 17.547981 19.163136 12.297424 16.4375 8.6679688 A 0.55000001 0.55000001 0 0 0 16.076172 8.453125 A 0.55000001 0.55000001 0 0 0 16.003906 8.4472656 z " />
</svg>
