<?xml version="1.0" encoding="UTF-8" standalone="no"?>
<svg
   width="24"
   height="24"
   viewBox="0 0 24 24"
   fill="none"
   stroke="currentColor"
   stroke-width="1.1"
   stroke-linecap="round"
   stroke-linejoin="round"
   version="1.1"
   id="svg4"
   sodipodi:docname=".tmp_file-code.svg"
   xmlns:inkscape="http://www.inkscape.org/namespaces/inkscape"
   xmlns:sodipodi="http://sodipodi.sourceforge.net/DTD/sodipodi-0.dtd"
   xmlns="http://www.w3.org/2000/svg"
   xmlns:svg="http://www.w3.org/2000/svg">
  <defs
     id="defs4" />
  <sodipodi:namedview
     id="namedview4"
     pagecolor="#ffffff"
     bordercolor="#000000"
     borderopacity="0.25"
     inkscape:showpageshadow="2"
     inkscape:pageopacity="0.0"
     inkscape:pagecheckerboard="0"
     inkscape:deskcolor="#d1d1d1" />
  <path
     id="path1"
     style="baseline-shift:baseline;display:inline;overflow:visible;vector-effect:none;fill:#000000;stroke:none;stroke-linecap:butt;stroke-linejoin:miter;enable-background:accumulate;stop-color:#000000;stop-opacity:1;opacity:1"
     d="M 6 1.4492188 C 4.5981884 1.4492188 3.4492187 2.5981884 3.4492188 4 L 3.4492188 20 C 3.4492188 21.401812 4.5981884 22.550781 6 22.550781 L 18 22.550781 C 19.401812 22.550781 20.550781 21.401812 20.550781 20 L 20.550781 8.0019531 A 0.55000001 0.55000001 0 0 0 20.550781 8 A 0.55000001 0.55000001 0 0 0 20.550781 7.9980469 L 20.550781 7 A 0.55005501 0.55005501 0 0 0 20.388672 6.6113281 L 15.388672 1.6113281 A 0.55005501 0.55005501 0 0 0 15 1.4492188 L 14.001953 1.4492188 L 13.998047 1.4492188 L 6 1.4492188 z M 6 2.5507812 L 13.449219 2.5507812 L 13.449219 6 C 13.449219 7.4018116 14.598188 8.5507812 16 8.5507812 L 19.449219 8.5507812 L 19.449219 20 C 19.449219 20.807327 18.807327 21.449219 18 21.449219 L 6 21.449219 C 5.1926726 21.449219 4.5507813 20.807327 4.5507812 20 L 4.5507812 4 C 4.5507812 3.1926726 5.1926726 2.5507813 6 2.5507812 z M 14.550781 2.5507812 L 14.773438 2.5507812 L 19.449219 7.2285156 L 19.449219 7.4492188 L 16 7.4492188 C 15.192673 7.4492188 14.550781 6.8073274 14.550781 6 L 14.550781 2.5507812 z M 10.011719 11.949219 A 0.55000001 0.55000001 0 0 0 9.9394531 11.953125 A 0.55000001 0.55000001 0 0 0 9.5703125 12.15625 L 7.5703125 14.65625 A 0.55005501 0.55005501 0 0 0 7.5703125 15.34375 L 9.5703125 17.84375 A 0.55000001 0.55000001 0 0 0 10.34375 17.929688 A 0.55000001 0.55000001 0 0 0 10.429688 17.15625 L 8.7050781 15 L 10.429688 12.84375 A 0.55000001 0.55000001 0 0 0 10.34375 12.070312 A 0.55000001 0.55000001 0 0 0 10.011719 11.949219 z M 13.988281 11.949219 A 0.55000001 0.55000001 0 0 0 13.65625 12.070312 A 0.55000001 0.55000001 0 0 0 13.570312 12.84375 L 15.294922 15 L 13.570312 17.15625 A 0.55000001 0.55000001 0 0 0 13.65625 17.929688 A 0.55000001 0.55000001 0 0 0 14.429688 17.84375 L 16.429688 15.34375 A 0.55005501 0.55005501 0 0 0 16.429688 14.65625 L 14.429688 12.15625 A 0.55000001 0.55000001 0 0 0 14.060547 11.953125 A 0.55000001 0.55000001 0 0 0 13.988281 11.949219 z " />
</svg>
