<?xml version="1.0" encoding="UTF-8" standalone="no"?>
<svg
   width="24"
   height="24"
   viewBox="0 0 24 24"
   fill="none"
   stroke="currentColor"
   stroke-width="1.1"
   stroke-linecap="round"
   stroke-linejoin="round"
   version="1.1"
   id="svg1"
   sodipodi:docname=".tmp_flag-triangle-left.svg"
   xmlns:inkscape="http://www.inkscape.org/namespaces/inkscape"
   xmlns:sodipodi="http://sodipodi.sourceforge.net/DTD/sodipodi-0.dtd"
   xmlns="http://www.w3.org/2000/svg"
   xmlns:svg="http://www.w3.org/2000/svg">
  <defs
     id="defs1" />
  <sodipodi:namedview
     id="namedview1"
     pagecolor="#ffffff"
     bordercolor="#000000"
     borderopacity="0.25"
     inkscape:showpageshadow="2"
     inkscape:pageopacity="0.0"
     inkscape:pagecheckerboard="0"
     inkscape:deskcolor="#d1d1d1" />
  <path
     id="path1"
     style="baseline-shift:baseline;display:inline;overflow:visible;vector-effect:none;fill:#000000;stroke:none;stroke-linecap:butt;stroke-linejoin:miter;enable-background:accumulate;stop-color:#000000;stop-opacity:1;opacity:1"
     d="M 17.083984 1.4570312 C 16.912616 1.4690902 16.740791 1.5156899 16.576172 1.6015625 L 5.203125 7.2871094 L 5.2109375 7.2851562 C 4.2284497 7.7609968 4.2284497 9.2390032 5.2109375 9.7148438 L 17.449219 15.839844 L 17.449219 22 A 0.55000001 0.55000001 0 0 0 18 22.550781 A 0.55000001 0.55000001 0 0 0 18.550781 22 L 18.550781 2.8007812 C 18.551491 1.99621 17.82658 1.404776 17.083984 1.4570312 z M 17.220703 2.5410156 C 17.349879 2.5396682 17.449358 2.6399683 17.449219 2.7988281 A 0.55005501 0.55005501 0 0 0 17.449219 2.8007812 L 17.449219 14.609375 L 5.6953125 8.7285156 A 0.55005501 0.55005501 0 0 0 5.6894531 8.7246094 C 5.4685061 8.6175998 5.4685061 8.3824002 5.6894531 8.2753906 A 0.55005501 0.55005501 0 0 0 5.6953125 8.2714844 L 17.076172 2.5820312 A 0.55005501 0.55005501 0 0 0 17.083984 2.578125 C 17.130935 2.5536335 17.177645 2.5414648 17.220703 2.5410156 z " />
</svg>
