<?xml version="1.0" encoding="UTF-8" standalone="no"?>
<svg
   width="24"
   height="24"
   viewBox="0 0 24 24"
   fill="none"
   stroke="currentColor"
   stroke-width="1.1"
   stroke-linecap="round"
   stroke-linejoin="round"
   version="1.1"
   id="svg2"
   sodipodi:docname=".tmp_folder-lock.svg"
   xmlns:inkscape="http://www.inkscape.org/namespaces/inkscape"
   xmlns:sodipodi="http://sodipodi.sourceforge.net/DTD/sodipodi-0.dtd"
   xmlns="http://www.w3.org/2000/svg"
   xmlns:svg="http://www.w3.org/2000/svg">
  <defs
     id="defs2" />
  <sodipodi:namedview
     id="namedview2"
     pagecolor="#ffffff"
     bordercolor="#000000"
     borderopacity="0.25"
     inkscape:showpageshadow="2"
     inkscape:pageopacity="0.0"
     inkscape:pagecheckerboard="0"
     inkscape:deskcolor="#d1d1d1" />
  <path
     id="rect1"
     style="baseline-shift:baseline;display:inline;overflow:visible;vector-effect:none;fill:#000000;stroke:none;stroke-linecap:butt;stroke-linejoin:miter;enable-background:accumulate;stop-color:#000000;stop-opacity:1;opacity:1"
     d="M 4 2.4492188 C 2.5981884 2.4492188 1.4492188 3.5981884 1.4492188 5 L 1.4492188 18 C 1.4492188 19.401812 2.5981884 20.550781 4 20.550781 L 10 20.550781 A 0.55000001 0.55000001 0 0 0 10.550781 20 A 0.55000001 0.55000001 0 0 0 10 19.449219 L 4 19.449219 C 3.1926726 19.449219 2.5507813 18.807327 2.5507812 18 L 2.5507812 5 C 2.5507812 4.1926726 3.1926726 3.5507813 4 3.5507812 L 7.9003906 3.5507812 A 0.55005501 0.55005501 0 0 0 7.90625 3.5507812 C 8.3997045 3.5459412 8.8594701 3.7909739 9.1308594 4.203125 A 0.55005501 0.55005501 0 0 0 9.1347656 4.2070312 L 9.9433594 5.4082031 L 9.9414062 5.4023438 C 10.412685 6.1179814 11.213426 6.5506402 12.070312 6.5507812 L 20 6.5507812 C 20.807327 6.5507812 21.449219 7.1926726 21.449219 8 L 21.449219 10.5 A 0.55000001 0.55000001 0 0 0 22 11.050781 A 0.55000001 0.55000001 0 0 0 22.550781 10.5 L 22.550781 8 C 22.550781 6.5981884 21.401812 5.4492187 20 5.4492188 L 12.070312 5.4492188 C 11.582026 5.4491384 11.127933 5.2046748 10.859375 4.796875 A 0.55005501 0.55005501 0 0 0 10.855469 4.7929688 L 10.048828 3.5976562 C 9.5726128 2.8744413 8.7604116 2.4407295 7.8945312 2.4492188 L 4 2.4492188 z M 18 12.449219 C 17.377778 12.449219 16.748166 12.655711 16.259766 13.089844 C 15.771366 13.523977 15.449219 14.195834 15.449219 15 L 15.449219 16.449219 L 15 16.449219 C 14.150813 16.449219 13.449219 17.150813 13.449219 18 L 13.449219 21 C 13.449219 21.849187 14.150813 22.550781 15 22.550781 L 21 22.550781 C 21.849187 22.550781 22.550781 21.849187 22.550781 21 L 22.550781 18 C 22.550781 17.150813 21.849187 16.449219 21 16.449219 L 20.550781 16.449219 L 20.550781 15 C 20.550781 14.195834 20.228634 13.523977 19.740234 13.089844 C 19.251834 12.655711 18.622222 12.449219 18 12.449219 z M 18 13.550781 C 18.377778 13.550781 18.748166 13.677623 19.009766 13.910156 C 19.271366 14.142689 19.449219 14.470834 19.449219 15 L 19.449219 16.449219 L 16.550781 16.449219 L 16.550781 15 C 16.550781 14.470834 16.728634 14.142689 16.990234 13.910156 C 17.251834 13.677623 17.622222 13.550781 18 13.550781 z M 15 17.550781 L 15.998047 17.550781 L 16.001953 17.550781 L 19.998047 17.550781 L 20.001953 17.550781 L 21 17.550781 C 21.258813 17.550781 21.449219 17.741187 21.449219 18 L 21.449219 21 C 21.449219 21.258813 21.258813 21.449219 21 21.449219 L 15 21.449219 C 14.741187 21.449219 14.550781 21.258813 14.550781 21 L 14.550781 18 C 14.550781 17.741187 14.741187 17.550781 15 17.550781 z " />
</svg>
