<?xml version="1.0" encoding="UTF-8" standalone="no"?>
<svg
   width="24"
   height="24"
   viewBox="0 0 24 24"
   fill="none"
   stroke="currentColor"
   stroke-width="1.1"
   stroke-linecap="round"
   stroke-linejoin="round"
   version="1.1"
   id="svg2"
   sodipodi:docname=".tmp_forklift.svg"
   xmlns:inkscape="http://www.inkscape.org/namespaces/inkscape"
   xmlns:sodipodi="http://sodipodi.sourceforge.net/DTD/sodipodi-0.dtd"
   xmlns="http://www.w3.org/2000/svg"
   xmlns:svg="http://www.w3.org/2000/svg">
  <defs
     id="defs2" />
  <sodipodi:namedview
     id="namedview2"
     pagecolor="#ffffff"
     bordercolor="#000000"
     borderopacity="0.25"
     inkscape:showpageshadow="2"
     inkscape:pageopacity="0.0"
     inkscape:pagecheckerboard="0"
     inkscape:deskcolor="#d1d1d1" />
  <path
     id="path1"
     style="baseline-shift:baseline;display:inline;overflow:visible;vector-effect:none;fill:#000000;stroke:none;stroke-linecap:butt;stroke-linejoin:miter;enable-background:accumulate;stop-color:#000000;stop-opacity:1;opacity:1"
     d="M 16 1.4492188 A 0.55000001 0.55000001 0 0 0 15.449219 2 L 15.449219 8.671875 L 11.388672 4.6113281 A 0.55005501 0.55005501 0 0 0 11 4.4492188 L 8 4.4492188 C 6.6 4.4492188 5.4492189 5.6 5.4492188 7 L 5.4492188 11.449219 L 5 11.449219 C 3.5981884 11.449219 2.4492188 12.598188 2.4492188 14 L 2.4492188 19 A 0.55000001 0.55000001 0 0 0 2.4492188 19.001953 A 0.55000001 0.55000001 0 0 0 2.453125 19.074219 C 2.4931381 20.441856 3.6232156 21.550781 5 21.550781 C 6.3024899 21.550781 7.3861043 20.557989 7.5332031 19.292969 A 0.55000001 0.55000001 0 0 0 8 19.550781 L 10.509766 19.550781 C 10.763633 20.690629 11.787105 21.550781 13 21.550781 C 14.302502 21.550781 15.38612 20.558005 15.533203 19.292969 A 0.55005501 0.55005501 0 0 0 16 19.550781 L 22 19.550781 A 0.55000001 0.55000001 0 0 0 22.550781 19 A 0.55000001 0.55000001 0 0 0 22 18.449219 L 16.550781 18.449219 L 16.550781 10 L 16.550781 2 A 0.55000001 0.55000001 0 0 0 16 1.4492188 z M 8 5.5507812 L 10.771484 5.5507812 L 15.449219 10.226562 L 15.449219 18.289062 C 15.139196 17.229616 14.155495 16.449219 13 16.449219 C 11.787105 16.449219 10.763633 17.309371 10.509766 18.449219 L 8 18.449219 A 0.55000001 0.55000001 0 0 0 7.5332031 18.707031 C 7.3861043 17.442011 6.3024899 16.449219 5 16.449219 C 4.4630407 16.449219 3.9631796 16.617497 3.5507812 16.904297 L 3.5507812 14 C 3.5507812 13.192673 4.1926726 12.550781 5 12.550781 L 5.9980469 12.550781 L 6.0019531 12.550781 L 12 12.550781 A 0.55000001 0.55000001 0 0 0 12.550781 12 A 0.55000001 0.55000001 0 0 0 12 11.449219 L 6.5507812 11.449219 L 6.5507812 7 C 6.5507812 6.2 7.2 5.5507813 8 5.5507812 z M 5 17.550781 C 5.8073274 17.550781 6.4492187 18.192673 6.4492188 19 C 6.4492188 19.807327 5.8073274 20.449219 5 20.449219 C 4.1930554 20.449219 3.5513896 19.806787 3.5507812 19 C 3.5507812 18.192673 4.1926726 17.550781 5 17.550781 z M 13 17.550781 C 13.807327 17.550781 14.449219 18.192673 14.449219 19 C 14.449219 19.807327 13.807327 20.449219 13 20.449219 C 12.193056 20.449219 11.55139 19.80874 11.550781 19.001953 L 11.550781 19 A 0.55000001 0.55000001 0 0 0 11.550781 18.998047 C 11.55139 18.19126 12.193056 17.550781 13 17.550781 z " />
</svg>
