<?xml version="1.0" encoding="UTF-8" standalone="no"?>
<svg
   width="24"
   height="24"
   viewBox="0 0 24 24"
   fill="none"
   stroke="currentColor"
   stroke-width="1.1"
   stroke-linecap="round"
   stroke-linejoin="round"
   version="1.1"
   id="svg1"
   sodipodi:docname=".tmp_gitlab.svg"
   xmlns:inkscape="http://www.inkscape.org/namespaces/inkscape"
   xmlns:sodipodi="http://sodipodi.sourceforge.net/DTD/sodipodi-0.dtd"
   xmlns="http://www.w3.org/2000/svg"
   xmlns:svg="http://www.w3.org/2000/svg">
  <defs
     id="defs1" />
  <sodipodi:namedview
     id="namedview1"
     pagecolor="#ffffff"
     bordercolor="#000000"
     borderopacity="0.25"
     inkscape:showpageshadow="2"
     inkscape:pageopacity="0.0"
     inkscape:pagecheckerboard="0"
     inkscape:deskcolor="#d1d1d1" />
  <path
     id="path1"
     style="baseline-shift:baseline;display:inline;overflow:visible;vector-effect:none;fill:#000000;stroke:none;stroke-linecap:butt;stroke-linejoin:miter;enable-background:accumulate;stop-color:#000000;stop-opacity:1;opacity:1"
     d="M 18.320312 2.4492188 C 18.122439 2.4456787 17.927978 2.5059668 17.765625 2.6191406 A 0.55005501 0.55005501 0 0 0 17.753906 2.6269531 C 17.609882 2.7330333 17.497051 2.8772637 17.429688 3.0429688 A 0.55005501 0.55005501 0 0 0 17.419922 3.0742188 L 15.285156 9.3691406 L 8.7167969 9.3691406 L 6.6269531 3.1035156 L 6.625 3.0957031 C 6.5821727 2.9493877 6.5049844 2.8143334 6.4003906 2.703125 A 0.55005501 0.55005501 0 0 0 6.3398438 2.6464844 C 6.1648112 2.5093593 5.9443438 2.4470728 5.7226562 2.4570312 C 5.534893 2.4594832 5.3497079 2.5115135 5.1953125 2.6191406 A 0.55005501 0.55005501 0 0 0 5.1835938 2.6269531 C 5.0395696 2.7330358 4.9286921 2.8772637 4.8613281 3.0429688 A 0.55005501 0.55005501 0 0 0 4.8476562 3.0742188 L 1.4785156 13.115234 A 0.55005501 0.55005501 0 0 0 1.4765625 13.119141 C 1.3027389 13.65037 1.4941645 14.239116 1.9472656 14.566406 A 0.55005501 0.55005501 0 0 0 1.953125 14.568359 L 11.681641 21.449219 A 0.55005501 0.55005501 0 0 0 12.318359 21.449219 L 21.972656 14.591797 C 22.474838 14.29107 22.705526 13.675438 22.523438 13.119141 A 0.55005501 0.55005501 0 0 0 22.521484 13.117188 L 19.191406 3.1171875 A 0.55005501 0.55005501 0 0 0 19.179688 3.0820312 C 19.118578 2.9317082 19.00992 2.8095131 18.884766 2.7070312 C 18.744437 2.5768332 18.573167 2.4807534 18.382812 2.4550781 A 0.55005501 0.55005501 0 0 0 18.320312 2.4492188 z M 5.7324219 3.8964844 L 7.7988281 10.09375 A 0.55005501 0.55005501 0 0 0 8.3203125 10.470703 L 15.679688 10.470703 A 0.55005501 0.55005501 0 0 0 16.201172 10.095703 L 18.296875 3.9101562 L 21.476562 13.460938 C 21.500763 13.534857 21.474963 13.608475 21.408203 13.648438 A 0.55005501 0.55005501 0 0 0 21.371094 13.671875 L 12 20.326172 L 2.5917969 13.673828 C 2.5230019 13.624138 2.4970455 13.541595 2.5234375 13.460938 L 5.7324219 3.8964844 z " />
</svg>
