<?xml version="1.0" encoding="UTF-8" standalone="no"?>
<svg
   width="24"
   height="24"
   viewBox="0 0 24 24"
   fill="none"
   stroke="currentColor"
   stroke-width="1.1"
   stroke-linecap="round"
   stroke-linejoin="round"
   version="1.1"
   id="svg3"
   sodipodi:docname=".tmp_graduation-cap.svg"
   xmlns:inkscape="http://www.inkscape.org/namespaces/inkscape"
   xmlns:sodipodi="http://sodipodi.sourceforge.net/DTD/sodipodi-0.dtd"
   xmlns="http://www.w3.org/2000/svg"
   xmlns:svg="http://www.w3.org/2000/svg">
  <defs
     id="defs3" />
  <sodipodi:namedview
     id="namedview3"
     pagecolor="#ffffff"
     bordercolor="#000000"
     borderopacity="0.25"
     inkscape:showpageshadow="2"
     inkscape:pageopacity="0.0"
     inkscape:pagecheckerboard="0"
     inkscape:deskcolor="#d1d1d1" />
  <path
     id="path1"
     style="baseline-shift:baseline;display:inline;overflow:visible;vector-effect:none;fill:#000000;stroke:none;stroke-linecap:butt;stroke-linejoin:miter;enable-background:accumulate;stop-color:#000000;stop-opacity:1;opacity:1"
     d="M 12 4.4492188 C 11.638676 4.4492188 11.277353 4.5264511 10.941406 4.6796875 L 2.3789062 8.5761719 C 2.3775163 8.5767821 2.37639 8.577515 2.375 8.578125 L 2.3730469 8.5800781 C 1.7783152 8.8439526 1.4511719 9.4301965 1.4511719 9.9960938 C 1.4511719 10.564172 1.7798074 11.15363 2.3789062 11.416016 L 5.4492188 12.816406 L 5.4492188 16 C 5.4492188 16.6375 5.7022128 17.217429 6.1015625 17.673828 C 6.5009122 18.130228 7.0380297 18.478925 7.6523438 18.751953 C 8.8809718 19.29801 10.438889 19.550781 12 19.550781 C 13.561111 19.550781 15.119028 19.29801 16.347656 18.751953 C 16.96197 18.478925 17.499088 18.130228 17.898438 17.673828 C 18.297787 17.217429 18.550781 16.6375 18.550781 16 L 18.550781 12.826172 L 21.449219 11.511719 L 21.449219 16 A 0.55000001 0.55000001 0 0 0 22 16.550781 A 0.55000001 0.55000001 0 0 0 22.550781 16 L 22.550781 10.220703 C 22.561944 10.143766 22.567201 10.067128 22.566406 9.9902344 C 22.560506 9.4196404 22.221832 8.8322245 21.615234 8.578125 L 13.058594 4.6796875 C 12.722647 4.5264511 12.361324 4.4492188 12 4.4492188 z M 12 5.5488281 C 12.205152 5.5488281 12.410303 5.5924477 12.601562 5.6796875 L 21.173828 9.5839844 A 0.55005501 0.55005501 0 0 0 21.189453 9.5917969 C 21.353424 9.6601198 21.431816 9.77198 21.457031 9.9042969 A 0.55000001 0.55000001 0 0 0 21.449219 10 L 21.449219 10.146484 C 21.417619 10.259561 21.340795 10.354648 21.197266 10.417969 A 0.55005501 0.55005501 0 0 0 21.193359 10.421875 L 12.603516 14.318359 A 0.55005501 0.55005501 0 0 0 12.601562 14.320312 C 12.219043 14.494791 11.780956 14.494791 11.398438 14.320312 L 2.828125 10.412109 A 0.55005501 0.55005501 0 0 0 2.8203125 10.408203 C 2.6209824 10.320903 2.5507811 10.169172 2.5507812 9.9960938 C 2.5507812 9.8230154 2.6209823 9.6712845 2.8203125 9.5839844 A 0.55005501 0.55005501 0 0 0 2.828125 9.5800781 L 11.398438 5.6796875 C 11.589696 5.5924477 11.794848 5.5488281 12 5.5488281 z M 6.5507812 13.318359 L 10.941406 15.320312 C 11.612679 15.626503 12.385182 15.625937 13.056641 15.320312 L 17.449219 13.326172 L 17.449219 16 C 17.449219 16.3625 17.327213 16.657572 17.070312 16.951172 C 16.813412 17.244772 16.41303 17.521075 15.902344 17.748047 C 14.880972 18.20199 13.438889 18.449219 12 18.449219 C 10.561111 18.449219 9.1190281 18.20199 8.0976562 17.748047 C 7.5869702 17.521075 7.1865878 17.244772 6.9296875 16.951172 C 6.6727872 16.657572 6.5507812 16.3625 6.5507812 16 L 6.5507812 13.318359 z " />
</svg>
