<?xml version="1.0" encoding="UTF-8" standalone="no"?>
<svg
   width="24"
   height="24"
   viewBox="0 0 24 24"
   fill="none"
   stroke="currentColor"
   stroke-width="1.1"
   stroke-linecap="round"
   stroke-linejoin="round"
   version="1.1"
   id="svg2"
   sodipodi:docname=".tmp_grid-2x2-check.svg"
   xmlns:inkscape="http://www.inkscape.org/namespaces/inkscape"
   xmlns:sodipodi="http://sodipodi.sourceforge.net/DTD/sodipodi-0.dtd"
   xmlns="http://www.w3.org/2000/svg"
   xmlns:svg="http://www.w3.org/2000/svg">
  <defs
     id="defs2" />
  <sodipodi:namedview
     id="namedview2"
     pagecolor="#ffffff"
     bordercolor="#000000"
     borderopacity="0.25"
     inkscape:showpageshadow="2"
     inkscape:pageopacity="0.0"
     inkscape:pagecheckerboard="0"
     inkscape:deskcolor="#d1d1d1" />
  <path
     id="path1"
     style="baseline-shift:baseline;display:inline;overflow:visible;vector-effect:none;fill:#000000;stroke:none;stroke-linecap:butt;stroke-linejoin:miter;enable-background:accumulate;stop-color:#000000;stop-opacity:1;opacity:1"
     d="M 5 2.4492188 C 3.5981884 2.4492188 2.4492188 3.5981884 2.4492188 5 L 2.4492188 12 L 2.4492188 19 C 2.4492188 20.401812 3.5981884 21.550781 5 21.550781 L 11 21.550781 C 11.849527 21.550781 12.550781 20.849527 12.550781 20 L 12.550781 12.550781 L 20 12.550781 C 20.849527 12.550781 21.550781 11.849527 21.550781 11 L 21.550781 5 C 21.550781 3.5981884 20.401812 2.4492188 19 2.4492188 L 12 2.4492188 L 5 2.4492188 z M 5 3.5507812 L 11.449219 3.5507812 L 11.449219 11.449219 L 3.5507812 11.449219 L 3.5507812 5 C 3.5507812 4.1926726 4.1926726 3.5507813 5 3.5507812 z M 12.550781 3.5507812 L 19 3.5507812 C 19.807327 3.5507812 20.449219 4.1926726 20.449219 5 L 20.449219 11 C 20.449219 11.255043 20.255043 11.449219 20 11.449219 L 12.550781 11.449219 L 12.550781 3.5507812 z M 3.5507812 12.550781 L 11.449219 12.550781 L 11.449219 20 C 11.449219 20.255043 11.255043 20.449219 11 20.449219 L 5 20.449219 C 4.1926726 20.449219 3.5507813 19.807327 3.5507812 19 L 3.5507812 12.550781 z M 22 16.451172 A 0.55000001 0.55000001 0 0 0 21.611328 16.611328 L 18 20.222656 L 16.388672 18.611328 A 0.55000001 0.55000001 0 0 0 15.611328 18.611328 A 0.55000001 0.55000001 0 0 0 15.611328 19.388672 L 17.611328 21.388672 A 0.55005501 0.55005501 0 0 0 18.388672 21.388672 L 22.388672 17.388672 A 0.55000001 0.55000001 0 0 0 22.388672 16.611328 A 0.55000001 0.55000001 0 0 0 22 16.451172 z " />
</svg>
