<?xml version="1.0" encoding="UTF-8" standalone="no"?>
<svg
   width="24"
   height="24"
   viewBox="0 0 24 24"
   fill="none"
   stroke="currentColor"
   stroke-width="1.1"
   stroke-linecap="round"
   stroke-linejoin="round"
   version="1.1"
   id="svg3"
   sodipodi:docname=".tmp_hard-hat.svg"
   xmlns:inkscape="http://www.inkscape.org/namespaces/inkscape"
   xmlns:sodipodi="http://sodipodi.sourceforge.net/DTD/sodipodi-0.dtd"
   xmlns="http://www.w3.org/2000/svg"
   xmlns:svg="http://www.w3.org/2000/svg">
  <defs
     id="defs3" />
  <sodipodi:namedview
     id="namedview3"
     pagecolor="#ffffff"
     bordercolor="#000000"
     borderopacity="0.25"
     inkscape:showpageshadow="2"
     inkscape:pageopacity="0.0"
     inkscape:pagecheckerboard="0"
     inkscape:deskcolor="#d1d1d1" />
  <path
     id="path1"
     style="baseline-shift:baseline;display:inline;overflow:visible;vector-effect:none;fill:#000000;stroke:none;stroke-linecap:butt;stroke-linejoin:miter;enable-background:accumulate;stop-color:#000000;stop-opacity:1;opacity:1"
     d="M 11 3.4492188 C 10.150473 3.4492186 9.4492188 4.1504732 9.4492188 5 L 9.4492188 5.4726562 C 6.094812 5.7534604 3.4492188 8.5745161 3.4492188 12 L 3.4492188 14.449219 L 3 14.449219 C 2.1508135 14.449219 1.4492188 15.150813 1.4492188 16 L 1.4492188 18 C 1.4492188 18.849187 2.1508135 19.550781 3 19.550781 L 21 19.550781 C 21.849187 19.550781 22.550781 18.849187 22.550781 18 L 22.550781 16 C 22.550781 15.150813 21.849187 14.449219 21 14.449219 L 20.550781 14.449219 L 20.550781 12 C 20.550781 8.574516 17.905188 5.7534603 14.550781 5.4726562 L 14.550781 5 C 14.550781 4.1504732 13.849527 3.4492187 13 3.4492188 L 11 3.4492188 z M 11 4.5507812 L 13 4.5507812 C 13.255043 4.5507812 13.449219 4.7449573 13.449219 5 L 13.449219 5.9980469 A 0.55000001 0.55000001 0 0 0 13.449219 6 A 0.55000001 0.55000001 0 0 0 13.449219 6.0019531 L 13.449219 10 A 0.55000001 0.55000001 0 0 0 14 10.550781 A 0.55000001 0.55000001 0 0 0 14.550781 10 L 14.550781 6.578125 C 17.307165 6.8529848 19.449219 9.16949 19.449219 12 L 19.449219 14.449219 L 4.5507812 14.449219 L 4.5507812 12 C 4.5507812 9.1694901 6.6928346 6.8529848 9.4492188 6.578125 L 9.4492188 10 A 0.55000001 0.55000001 0 0 0 10 10.550781 A 0.55000001 0.55000001 0 0 0 10.550781 10 L 10.550781 6.0019531 A 0.55000001 0.55000001 0 0 0 10.550781 6 A 0.55000001 0.55000001 0 0 0 10.550781 5.9980469 L 10.550781 5 C 10.550781 4.7449573 10.744957 4.5507812 11 4.5507812 z M 3 15.550781 L 3.9980469 15.550781 L 4.0019531 15.550781 L 19.998047 15.550781 L 20.001953 15.550781 L 21 15.550781 C 21.258813 15.550781 21.449219 15.741187 21.449219 16 L 21.449219 18 C 21.449219 18.258813 21.258813 18.449219 21 18.449219 L 3 18.449219 C 2.7411865 18.449219 2.5507812 18.258813 2.5507812 18 L 2.5507812 16 C 2.5507812 15.741187 2.7411865 15.550781 3 15.550781 z " />
</svg>
