<?xml version="1.0" encoding="UTF-8" standalone="no"?>
<svg
   width="24"
   height="24"
   viewBox="0 0 24 24"
   fill="none"
   stroke="currentColor"
   stroke-width="1.1"
   stroke-linecap="round"
   stroke-linejoin="round"
   version="1.1"
   id="svg4"
   sodipodi:docname=".tmp_heading-6.svg"
   xmlns:inkscape="http://www.inkscape.org/namespaces/inkscape"
   xmlns:sodipodi="http://sodipodi.sourceforge.net/DTD/sodipodi-0.dtd"
   xmlns="http://www.w3.org/2000/svg"
   xmlns:svg="http://www.w3.org/2000/svg">
  <defs
     id="defs4" />
  <sodipodi:namedview
     id="namedview4"
     pagecolor="#ffffff"
     bordercolor="#000000"
     borderopacity="0.25"
     inkscape:showpageshadow="2"
     inkscape:pageopacity="0.0"
     inkscape:pagecheckerboard="0"
     inkscape:deskcolor="#d1d1d1" />
  <path
     id="path1"
     style="baseline-shift:baseline;display:inline;overflow:visible;vector-effect:none;fill:#000000;stroke:none;stroke-linecap:butt;stroke-linejoin:miter;enable-background:accumulate;stop-color:#000000;stop-opacity:1;opacity:1"
     d="M 4 5.4492188 A 0.55000001 0.55000001 0 0 0 3.4492188 6 L 3.4492188 11.998047 A 0.55000001 0.55000001 0 0 0 3.4492188 12 A 0.55000001 0.55000001 0 0 0 3.4492188 12.001953 L 3.4492188 18 A 0.55000001 0.55000001 0 0 0 4 18.550781 A 0.55000001 0.55000001 0 0 0 4.5507812 18 L 4.5507812 12.550781 L 11.449219 12.550781 L 11.449219 18 A 0.55000001 0.55000001 0 0 0 12 18.550781 A 0.55000001 0.55000001 0 0 0 12.550781 18 L 12.550781 12.001953 A 0.55000001 0.55000001 0 0 0 12.550781 12 A 0.55000001 0.55000001 0 0 0 12.550781 11.998047 L 12.550781 6 A 0.55000001 0.55000001 0 0 0 12 5.4492188 A 0.55000001 0.55000001 0 0 0 11.449219 6 L 11.449219 11.449219 L 4.5507812 11.449219 L 4.5507812 6 A 0.55000001 0.55000001 0 0 0 4 5.4492188 z M 20 9.4511719 A 0.55000001 0.55000001 0 0 0 19.611328 9.6113281 C 17.578919 11.643737 16.449219 13.353333 16.449219 16 L 16.449219 16.001953 A 0.55000001 0.55000001 0 0 0 16.453125 16.074219 C 16.493138 17.441856 17.623215 18.550781 19 18.550781 C 20.401812 18.550781 21.550781 17.401812 21.550781 16 C 21.550781 14.598188 20.401812 13.449219 19 13.449219 C 18.622704 13.449219 18.264597 13.532648 17.941406 13.681641 C 18.371881 12.56795 19.169033 11.608311 20.388672 10.388672 A 0.55000001 0.55000001 0 0 0 20.388672 9.6113281 A 0.55000001 0.55000001 0 0 0 20 9.4511719 z M 19 14.550781 C 19.807327 14.550781 20.449219 15.192673 20.449219 16 C 20.449219 16.807327 19.807327 17.449219 19 17.449219 C 18.193056 17.449219 17.55139 16.80874 17.550781 16.001953 A 0.55000001 0.55000001 0 0 0 17.550781 16 C 17.550781 15.192673 18.192673 14.550781 19 14.550781 z " />
</svg>
