<?xml version="1.0" encoding="UTF-8" standalone="no"?>
<svg
   width="24"
   height="24"
   viewBox="0 0 24 24"
   fill="none"
   stroke="currentColor"
   stroke-width="1.1"
   stroke-linecap="round"
   stroke-linejoin="round"
   version="1.1"
   id="svg2"
   sodipodi:docname=".tmp_heart-pulse.svg"
   xmlns:inkscape="http://www.inkscape.org/namespaces/inkscape"
   xmlns:sodipodi="http://sodipodi.sourceforge.net/DTD/sodipodi-0.dtd"
   xmlns="http://www.w3.org/2000/svg"
   xmlns:svg="http://www.w3.org/2000/svg">
  <defs
     id="defs2" />
  <sodipodi:namedview
     id="namedview2"
     pagecolor="#ffffff"
     bordercolor="#000000"
     borderopacity="0.25"
     inkscape:showpageshadow="2"
     inkscape:pageopacity="0.0"
     inkscape:pagecheckerboard="0"
     inkscape:deskcolor="#d1d1d1" />
  <path
     id="path1"
     style="baseline-shift:baseline;display:inline;overflow:visible;vector-effect:none;fill:#000000;stroke:none;stroke-linecap:butt;stroke-linejoin:miter;enable-background:accumulate;stop-color:#000000;stop-opacity:1;opacity:1"
     d="M 16.3125 3.4296875 C 14.769931 3.4716326 13.209599 4.1048491 12.007812 5.4492188 C 12.005463 5.4517342 12.003122 5.4538204 12.001953 5.4550781 L 12.001953 5.4570312 L 12 5.4570312 L 11.998047 5.4570312 L 11.998047 5.4550781 C 11.996874 5.4538204 11.994545 5.4517342 11.992188 5.4492188 C 10.15607 3.4130975 7.4977758 3.0222332 5.3339844 3.8515625 C 3.1671384 4.6820625 1.4492693 6.752487 1.4492188 9.5 C 1.4492188 10.936943 1.976656 12.147925 2.7089844 13.203125 A 0.55000001 0.55000001 0 0 0 2.8632812 13.419922 C 3.3931641 14.141657 4.0120226 14.789366 4.6113281 15.388672 A 0.55005501 0.55005501 0 0 0 4.6171875 15.394531 L 10.097656 20.699219 C 11.103494 21.825326 12.883142 21.824902 13.890625 20.708984 L 19.382812 15.394531 A 0.55005501 0.55005501 0 0 0 19.388672 15.388672 C 19.993446 14.783898 20.617566 14.128729 21.150391 13.398438 A 0.55000001 0.55000001 0 0 0 21.269531 13.232422 C 22.013302 12.168512 22.550277 10.947792 22.550781 9.5019531 L 22.550781 9.5 C 22.563014 6.7444123 20.842673 4.6659991 18.671875 3.8339844 C 18.129041 3.6259293 17.554955 3.4948617 16.970703 3.4472656 C 16.752122 3.429459 16.532867 3.4236953 16.3125 3.4296875 z M 16.167969 4.5273438 C 16.886672 4.4854675 17.606356 4.6041548 18.277344 4.8613281 C 20.066643 5.5471237 21.460188 7.1953262 21.449219 9.4980469 A 0.55005501 0.55005501 0 0 0 21.449219 9.5 C 21.449219 10.599318 21.059316 11.563154 20.46875 12.449219 L 15.863281 12.449219 L 14.505859 9.2832031 A 0.55005501 0.55005501 0 0 0 13.964844 8.9511719 A 0.55005501 0.55005501 0 0 0 13.470703 9.3496094 L 11.886719 14.892578 L 10.501953 11.777344 A 0.55005501 0.55005501 0 0 0 9.5078125 11.753906 L 9.1601562 12.449219 L 3.5292969 12.449219 C 2.940124 11.565881 2.5507813 10.603795 2.5507812 9.5 C 2.5508233 7.204784 3.9425021 5.5634423 5.7285156 4.8789062 C 7.5145291 4.1943702 9.6475592 4.484183 11.181641 6.1914062 A 0.55005501 0.55005501 0 0 0 11.189453 6.1992188 C 11.622685 6.6624454 12.377315 6.6624454 12.810547 6.1992188 A 0.55005501 0.55005501 0 0 0 12.820312 6.1894531 C 13.585766 5.3293704 14.501652 4.8258997 15.451172 4.6230469 C 15.688552 4.5723337 15.928401 4.5413025 16.167969 4.5273438 z M 14.103516 11.138672 L 14.994141 13.216797 A 0.55005501 0.55005501 0 0 0 15.5 13.550781 L 19.613281 13.550781 C 19.296634 13.912108 18.957291 14.263387 18.611328 14.609375 L 13.125 19.917969 A 0.55005501 0.55005501 0 0 0 13.09375 19.951172 C 12.514413 20.616557 11.505688 20.622839 10.917969 19.964844 A 0.55005501 0.55005501 0 0 0 10.890625 19.9375 L 5.3886719 14.611328 L 5.3886719 14.609375 C 5.0421835 14.262874 4.7017131 13.911721 4.3847656 13.550781 L 9.5 13.550781 A 0.55005501 0.55005501 0 0 0 9.9609375 13.265625 L 11.498047 16.722656 A 0.55005501 0.55005501 0 0 0 12.529297 16.650391 L 14.103516 11.138672 z " />
</svg>
