<?xml version="1.0" encoding="UTF-8" standalone="no"?>
<svg
   width="24"
   height="24"
   viewBox="0 0 24 24"
   fill="none"
   stroke="currentColor"
   stroke-width="1.1"
   stroke-linecap="round"
   stroke-linejoin="round"
   version="1.1"
   id="svg3"
   sodipodi:docname=".tmp_ice-cream-bowl.svg"
   xmlns:inkscape="http://www.inkscape.org/namespaces/inkscape"
   xmlns:sodipodi="http://sodipodi.sourceforge.net/DTD/sodipodi-0.dtd"
   xmlns="http://www.w3.org/2000/svg"
   xmlns:svg="http://www.w3.org/2000/svg">
  <defs
     id="defs3" />
  <sodipodi:namedview
     id="namedview3"
     pagecolor="#ffffff"
     bordercolor="#000000"
     borderopacity="0.25"
     inkscape:showpageshadow="2"
     inkscape:pageopacity="0.0"
     inkscape:pagecheckerboard="0"
     inkscape:deskcolor="#d1d1d1" />
  <path
     id="path1"
     style="baseline-shift:baseline;display:inline;overflow:visible;vector-effect:none;fill:#000000;stroke:none;stroke-linecap:butt;stroke-linejoin:miter;enable-background:accumulate;stop-color:#000000;stop-opacity:1;opacity:1"
     d="M 12 2.4492188 C 11.002778 2.4492188 9.9981657 2.7807106 9.2285156 3.4648438 C 8.5627362 4.0566474 8.0916262 4.9199096 7.9765625 5.9863281 C 5.8119813 6.2671613 4.3438222 8.2893564 4.578125 10.449219 L 4 10.449219 A 0.55005501 0.55005501 0 0 0 3.4492188 11 C 3.4492188 12.821163 4.2912811 14.493257 5.7832031 15.671875 C 7.2561327 16.835489 9.3565253 17.521538 11.910156 17.539062 A 0.55000001 0.55000001 0 0 0 11.449219 18 L 11.449219 20.449219 L 8 20.449219 A 0.55000001 0.55000001 0 0 0 7.4492188 21 A 0.55000001 0.55000001 0 0 0 8 21.550781 L 12 21.550781 L 16 21.550781 A 0.55000001 0.55000001 0 0 0 16.550781 21 A 0.55000001 0.55000001 0 0 0 16 20.449219 L 12.550781 20.449219 L 12.550781 18 A 0.55000001 0.55000001 0 0 0 12.089844 17.539062 C 14.643475 17.521542 16.743867 16.835489 18.216797 15.671875 C 19.708719 14.493257 20.550781 12.821163 20.550781 11 A 0.55005501 0.55005501 0 0 0 20 10.449219 L 19.521484 10.449219 C 19.762185 8.2884157 18.200477 6.2731464 16.023438 5.9882812 C 15.908588 4.9213347 15.437502 4.0568595 14.771484 3.4648438 C 14.001834 2.7807107 12.997222 2.4492186 12 2.4492188 z M 12 3.5507812 C 12.752778 3.5507812 13.498166 3.8026232 14.041016 4.2851562 C 14.489821 4.6840946 14.817972 5.2340447 14.917969 5.9941406 C 13.622626 6.1793362 12.550935 6.9779754 11.955078 8.0527344 C 11.38804 6.9827929 10.359095 6.1853848 9.0820312 5.9960938 C 9.181689 5.2348708 9.5097504 4.6844752 9.9589844 4.2851562 C 10.501834 3.8026233 11.247222 3.5507813 12 3.5507812 z M 8.4941406 7.0527344 C 10.341498 7.0527344 11.617477 8.6897216 11.34375 10.449219 L 5.6464844 10.449219 C 5.3727362 8.6897095 6.6467726 7.0527344 8.4941406 7.0527344 z M 15.494141 7.0527344 C 17.344384 7.0527344 18.691292 8.68648 18.412109 10.449219 L 12.578125 10.449219 C 12.298708 8.68648 13.643898 7.0527344 15.494141 7.0527344 z M 4.6796875 11.550781 L 19.320312 11.550781 C 19.170611 12.803734 18.625448 13.947673 17.533203 14.810547 C 16.275125 15.804428 14.401367 16.449219 12 16.449219 C 9.5986333 16.449219 7.7248749 15.804428 6.4667969 14.810547 C 5.3745517 13.947673 4.8293894 12.803734 4.6796875 11.550781 z " />
</svg>
