<?xml version="1.0" encoding="UTF-8" standalone="no"?>
<svg
   width="24"
   height="24"
   viewBox="0 0 24 24"
   fill="none"
   stroke="currentColor"
   stroke-width="1.1"
   stroke-linecap="round"
   stroke-linejoin="round"
   version="1.1"
   id="svg3"
   sodipodi:docname=".tmp_lamp-ceiling.svg"
   xmlns:inkscape="http://www.inkscape.org/namespaces/inkscape"
   xmlns:sodipodi="http://sodipodi.sourceforge.net/DTD/sodipodi-0.dtd"
   xmlns="http://www.w3.org/2000/svg"
   xmlns:svg="http://www.w3.org/2000/svg">
  <defs
     id="defs3" />
  <sodipodi:namedview
     id="namedview3"
     pagecolor="#ffffff"
     bordercolor="#000000"
     borderopacity="0.25"
     inkscape:showpageshadow="2"
     inkscape:pageopacity="0.0"
     inkscape:pagecheckerboard="0"
     inkscape:deskcolor="#d1d1d1" />
  <path
     id="path1"
     style="baseline-shift:baseline;display:inline;overflow:visible;vector-effect:none;fill:#000000;stroke:none;stroke-linecap:butt;stroke-linejoin:miter;enable-background:accumulate;stop-color:#000000;stop-opacity:1;opacity:1"
     d="M 12 1.4492188 A 0.55000001 0.55000001 0 0 0 11.449219 2 L 11.449219 6.4492188 L 7 6.4492188 C 6.3810104 6.4486682 5.8181005 6.8197518 5.5742188 7.3886719 L 2.5742188 14.388672 C 2.143408 15.393652 2.9065734 16.551754 4 16.550781 L 8.4765625 16.550781 C 8.2181741 18.601021 9.827278 20.546875 12 20.546875 C 14.172722 20.546875 15.781826 18.601021 15.523438 16.550781 L 20 16.550781 C 21.093427 16.551754 21.856592 15.393652 21.425781 14.388672 L 18.425781 7.3886719 C 18.1819 6.8197518 17.61899 6.4486683 17 6.4492188 L 12.550781 6.4492188 L 12.550781 2 A 0.55000001 0.55000001 0 0 0 12 1.4492188 z M 7 7.5507812 L 11.998047 7.5507812 L 12.001953 7.5507812 L 17 7.5507812 C 17.181649 7.5506198 17.342493 7.6553099 17.414062 7.8222656 L 20.414062 14.822266 C 20.549301 15.137746 20.343245 15.449524 20 15.449219 L 14.875 15.449219 A 0.55000001 0.55000001 0 0 0 14.783203 15.449219 L 9.2167969 15.449219 A 0.55000001 0.55000001 0 0 0 9.125 15.449219 L 4 15.449219 C 3.6567551 15.449524 3.4506988 15.137746 3.5859375 14.822266 L 6.5859375 7.8222656 C 6.6575072 7.6553099 6.8183508 7.5506197 7 7.5507812 z M 9.5898438 16.550781 L 14.410156 16.550781 C 14.695845 18.035 13.576815 19.447266 12 19.447266 C 10.423185 19.447266 9.3041547 18.035 9.5898438 16.550781 z " />
</svg>
