<?xml version="1.0" encoding="UTF-8" standalone="no"?>
<svg
   width="24"
   height="24"
   viewBox="0 0 24 24"
   fill="none"
   stroke="currentColor"
   stroke-width="1.1"
   stroke-linecap="round"
   stroke-linejoin="round"
   version="1.1"
   id="svg5"
   sodipodi:docname=".tmp_ligature.svg"
   xmlns:inkscape="http://www.inkscape.org/namespaces/inkscape"
   xmlns:sodipodi="http://sodipodi.sourceforge.net/DTD/sodipodi-0.dtd"
   xmlns="http://www.w3.org/2000/svg"
   xmlns:svg="http://www.w3.org/2000/svg">
  <defs
     id="defs5" />
  <sodipodi:namedview
     id="namedview5"
     pagecolor="#ffffff"
     bordercolor="#000000"
     borderopacity="0.25"
     inkscape:showpageshadow="2"
     inkscape:pageopacity="0.0"
     inkscape:pagecheckerboard="0"
     inkscape:deskcolor="#d1d1d1" />
  <path
     id="path1"
     style="baseline-shift:baseline;display:inline;overflow:visible;vector-effect:none;fill:#000000;stroke:none;stroke-linecap:butt;stroke-linejoin:miter;enable-background:accumulate;stop-color:#000000;stop-opacity:1;opacity:1"
     d="M 12.228516 3.4511719 C 11.752875 3.4302163 11.277301 3.4835407 10.822266 3.6054688 C 9.0021229 4.093181 7.4493195 5.7111894 7.4492188 8 L 7.4492188 11.449219 L 6 11.449219 A 0.55000001 0.55000001 0 0 0 5.4492188 12 A 0.55000001 0.55000001 0 0 0 6 12.550781 L 7.4492188 12.550781 L 7.4492188 19.449219 L 6 19.449219 A 0.55000001 0.55000001 0 0 0 5.4492188 20 A 0.55000001 0.55000001 0 0 0 6 20.550781 L 7.9980469 20.550781 L 8.0019531 20.550781 L 10 20.550781 A 0.55000001 0.55000001 0 0 0 10.550781 20 A 0.55000001 0.55000001 0 0 0 10 19.449219 L 8.5507812 19.449219 L 8.5507812 12.550781 L 10 12.550781 A 0.55000001 0.55000001 0 0 0 10.550781 12 A 0.55000001 0.55000001 0 0 0 10 11.449219 L 8.5507812 11.449219 L 8.5507812 8 C 8.5508605 6.1966011 9.7071803 5.0431674 11.107422 4.6679688 C 12.507663 4.2927701 14.086502 4.7136467 14.988281 6.2753906 A 0.55000001 0.55000001 0 0 0 15.738281 6.4765625 A 0.55000001 0.55000001 0 0 0 15.939453 5.7246094 C 15.081074 4.2380269 13.655438 3.5140386 12.228516 3.4511719 z M 14 11.449219 A 0.55000001 0.55000001 0 0 0 13.449219 12 A 0.55000001 0.55000001 0 0 0 14 12.550781 L 15.449219 12.550781 L 15.449219 19.449219 L 14 19.449219 A 0.55000001 0.55000001 0 0 0 13.449219 20 A 0.55000001 0.55000001 0 0 0 14 20.550781 L 16 20.550781 L 16.001953 20.550781 L 18 20.550781 A 0.55000001 0.55000001 0 0 0 18.550781 20 A 0.55000001 0.55000001 0 0 0 18 19.449219 L 16.550781 19.449219 L 16.550781 12 A 0.55005501 0.55005501 0 0 0 16 11.449219 L 14 11.449219 z " />
</svg>
