<?xml version="1.0" encoding="UTF-8" standalone="no"?>
<svg
   width="24"
   height="24"
   viewBox="0 0 24 24"
   fill="none"
   stroke="currentColor"
   stroke-width="1.1"
   stroke-linecap="round"
   stroke-linejoin="round"
   version="1.1"
   id="svg3"
   sodipodi:docname=".tmp_link-2-off.svg"
   xmlns:inkscape="http://www.inkscape.org/namespaces/inkscape"
   xmlns:sodipodi="http://sodipodi.sourceforge.net/DTD/sodipodi-0.dtd"
   xmlns="http://www.w3.org/2000/svg"
   xmlns:svg="http://www.w3.org/2000/svg">
  <defs
     id="defs3" />
  <sodipodi:namedview
     id="namedview3"
     pagecolor="#ffffff"
     bordercolor="#000000"
     borderopacity="0.25"
     inkscape:showpageshadow="2"
     inkscape:pageopacity="0.0"
     inkscape:pagecheckerboard="0"
     inkscape:deskcolor="#d1d1d1" />
  <path
     id="path1"
     style="baseline-shift:baseline;display:inline;overflow:visible;vector-effect:none;fill:#000000;stroke:none;stroke-linecap:butt;stroke-linejoin:miter;enable-background:accumulate;stop-color:#000000;stop-opacity:1;opacity:1"
     d="M 2 1.4492188 A 0.55000001 0.55000001 0 0 0 1.6113281 1.6113281 A 0.55000001 0.55000001 0 0 0 1.6113281 2.3886719 L 5.7851562 6.5625 C 4.5506982 6.7997283 3.5528641 7.3951174 2.8398438 8.1972656 C 1.9057108 9.2481657 1.4492188 10.627778 1.4492188 12 C 1.4492188 13.372222 1.9057107 14.751834 2.8398438 15.802734 C 3.7739766 16.853634 5.195834 17.550781 7 17.550781 L 9 17.550781 A 0.55000001 0.55000001 0 0 0 9.5507812 17 A 0.55000001 0.55000001 0 0 0 9 16.449219 L 7 16.449219 C 5.4708341 16.449219 4.3926891 15.896366 3.6601562 15.072266 C 2.9276232 14.248166 2.5507812 13.127778 2.5507812 12 C 2.5507812 10.872222 2.9276232 9.7518343 3.6601562 8.9277344 C 4.3566264 8.144205 5.3654375 7.6057929 6.7773438 7.5546875 L 10.671875 11.449219 L 8 11.449219 A 0.55000001 0.55000001 0 0 0 7.4492188 12 A 0.55000001 0.55000001 0 0 0 8 12.550781 L 11.773438 12.550781 L 21.611328 22.388672 A 0.55000001 0.55000001 0 0 0 22.388672 22.388672 A 0.55000001 0.55000001 0 0 0 22.388672 21.611328 L 12.416016 11.638672 A 0.55000001 0.55000001 0 0 0 12.361328 11.583984 L 7.4160156 6.6386719 A 0.55000001 0.55000001 0 0 0 7.3613281 6.5839844 L 2.3886719 1.6113281 A 0.55000001 0.55000001 0 0 0 2 1.4492188 z M 15 6.4492188 A 0.55000001 0.55000001 0 0 0 14.449219 7 A 0.55000001 0.55000001 0 0 0 15 7.5507812 L 17 7.5507812 C 20.701625 7.5507814 22.781522 11.708622 20.560547 14.669922 A 0.55000001 0.55000001 0 0 0 20.669922 15.439453 A 0.55000001 0.55000001 0 0 0 21.439453 15.330078 C 24.16275 11.699016 21.538828 6.4492189 17 6.4492188 L 15 6.4492188 z " />
</svg>
