<?xml version="1.0" encoding="UTF-8" standalone="no"?>
<svg
   width="24"
   height="24"
   viewBox="0 0 24 24"
   fill="none"
   stroke="currentColor"
   stroke-width="1.1"
   stroke-linecap="round"
   stroke-linejoin="round"
   version="1.1"
   id="svg5"
   sodipodi:docname=".tmp_locate-fixed.svg"
   xmlns:inkscape="http://www.inkscape.org/namespaces/inkscape"
   xmlns:sodipodi="http://sodipodi.sourceforge.net/DTD/sodipodi-0.dtd"
   xmlns="http://www.w3.org/2000/svg"
   xmlns:svg="http://www.w3.org/2000/svg">
  <defs
     id="defs5" />
  <sodipodi:namedview
     id="namedview5"
     pagecolor="#ffffff"
     bordercolor="#000000"
     borderopacity="0.25"
     inkscape:showpageshadow="2"
     inkscape:pageopacity="0.0"
     inkscape:pagecheckerboard="0"
     inkscape:deskcolor="#d1d1d1" />
  <path
     id="line1"
     style="baseline-shift:baseline;display:inline;overflow:visible;vector-effect:none;fill:#000000;stroke:none;stroke-linecap:butt;stroke-linejoin:miter;enable-background:accumulate;stop-color:#000000;stop-opacity:1;opacity:1"
     d="M 12 1.4492188 A 0.55000001 0.55000001 0 0 0 11.449219 2 L 11.449219 4.46875 C 7.7239774 4.7386215 4.7386215 7.7239774 4.46875 11.449219 L 2 11.449219 A 0.55000001 0.55000001 0 0 0 1.4492188 12 A 0.55000001 0.55000001 0 0 0 2 12.550781 L 4.46875 12.550781 C 4.7386215 16.276022 7.7239774 19.261378 11.449219 19.53125 L 11.449219 22 A 0.55000001 0.55000001 0 0 0 12 22.550781 A 0.55000001 0.55000001 0 0 0 12.550781 22 L 12.550781 19.53125 C 16.276022 19.261378 19.261378 16.276022 19.53125 12.550781 L 22 12.550781 A 0.55000001 0.55000001 0 0 0 22.550781 12 A 0.55000001 0.55000001 0 0 0 22 11.449219 L 19.53125 11.449219 C 19.261378 7.7239774 16.276022 4.7386216 12.550781 4.46875 L 12.550781 2 A 0.55000001 0.55000001 0 0 0 12 1.4492188 z M 11.998047 5.5507812 A 0.55000001 0.55000001 0 0 0 12 5.5507812 A 0.55000001 0.55000001 0 0 0 12.001953 5.5507812 C 15.569556 5.5515577 18.448442 8.4323967 18.449219 12 L 18.449219 12.001953 C 18.448442 15.569556 15.569556 18.448442 12.001953 18.449219 A 0.55000001 0.55000001 0 0 0 12 18.449219 A 0.55000001 0.55000001 0 0 0 11.998047 18.449219 C 8.4304435 18.448442 5.5515577 15.569556 5.5507812 12.001953 A 0.55000001 0.55000001 0 0 0 5.5507812 12 L 5.5507812 11.998047 C 5.5515577 8.4304435 8.4304435 5.5515577 11.998047 5.5507812 z M 12 8.4492188 C 10.045904 8.4492188 8.4492187 10.045904 8.4492188 12 C 8.4492188 13.954096 10.045904 15.550781 12 15.550781 C 13.954096 15.550781 15.550781 13.954096 15.550781 12 C 15.550781 10.045904 13.954096 8.4492187 12 8.4492188 z M 12 9.5507812 C 13.359612 9.5507812 14.449219 10.640388 14.449219 12 C 14.449219 13.359612 13.359612 14.449219 12 14.449219 C 10.640388 14.449219 9.5507812 13.359612 9.5507812 12 C 9.5507812 10.640388 10.640388 9.5507812 12 9.5507812 z " />
</svg>
