<?xml version="1.0" encoding="UTF-8" standalone="no"?>
<svg
   width="24"
   height="24"
   viewBox="0 0 24 24"
   fill="none"
   stroke="currentColor"
   stroke-width="1.1"
   stroke-linecap="round"
   stroke-linejoin="round"
   version="1.1"
   id="svg7"
   sodipodi:docname=".tmp_locate-off.svg"
   xmlns:inkscape="http://www.inkscape.org/namespaces/inkscape"
   xmlns:sodipodi="http://sodipodi.sourceforge.net/DTD/sodipodi-0.dtd"
   xmlns="http://www.w3.org/2000/svg"
   xmlns:svg="http://www.w3.org/2000/svg">
  <defs
     id="defs7" />
  <sodipodi:namedview
     id="namedview7"
     pagecolor="#ffffff"
     bordercolor="#000000"
     borderopacity="0.25"
     inkscape:showpageshadow="2"
     inkscape:pageopacity="0.0"
     inkscape:pagecheckerboard="0"
     inkscape:deskcolor="#d1d1d1" />
  <path
     id="path1"
     style="baseline-shift:baseline;display:inline;overflow:visible;vector-effect:none;fill:#000000;stroke:none;stroke-linecap:butt;stroke-linejoin:miter;enable-background:accumulate;stop-color:#000000;stop-opacity:1;opacity:1"
     d="M 2 1.4492188 A 0.55000001 0.55000001 0 0 0 1.6113281 1.6113281 A 0.55000001 0.55000001 0 0 0 1.6113281 2.3886719 L 6.2851562 7.0625 C 5.1903654 8.3279406 4.586797 9.8741273 4.4726562 11.449219 L 2 11.449219 A 0.55000001 0.55000001 0 0 0 1.4492188 12 A 0.55000001 0.55000001 0 0 0 2 12.550781 L 4.4726562 12.550781 C 4.599213 14.297207 5.3280024 16.00769 6.6601562 17.339844 C 7.9923101 18.671998 9.7027933 19.400787 11.449219 19.527344 L 11.449219 22 A 0.55000001 0.55000001 0 0 0 12 22.550781 A 0.55000001 0.55000001 0 0 0 12.550781 22 L 12.550781 19.527344 C 14.125873 19.413203 15.672059 18.809635 16.9375 17.714844 L 21.611328 22.388672 A 0.55000001 0.55000001 0 0 0 22.388672 22.388672 A 0.55000001 0.55000001 0 0 0 22.388672 21.611328 L 17.367188 16.589844 A 0.55000001 0.55000001 0 0 0 17.339844 16.560547 L 17.310547 16.533203 L 7.4667969 6.6894531 A 0.55000001 0.55000001 0 0 0 7.4394531 6.6601562 L 7.4121094 6.6347656 L 2.3886719 1.6113281 A 0.55000001 0.55000001 0 0 0 2 1.4492188 z M 12 1.4492188 A 0.55000001 0.55000001 0 0 0 11.449219 2 L 11.449219 4.46875 C 11.188923 4.4883586 10.926337 4.5207672 10.662109 4.5683594 A 0.55000001 0.55000001 0 0 0 10.21875 5.2070312 A 0.55000001 0.55000001 0 0 0 10.857422 5.6503906 C 11.216819 5.5856567 11.572395 5.5509589 11.921875 5.5449219 A 0.55000001 0.55000001 0 0 0 12 5.5507812 A 0.55000001 0.55000001 0 0 0 12.083984 5.5449219 C 15.578228 5.5716247 18.428377 8.4217714 18.455078 11.916016 A 0.55000001 0.55000001 0 0 0 18.449219 12 A 0.55000001 0.55000001 0 0 0 18.455078 12.078125 C 18.449041 12.427606 18.414344 12.78318 18.349609 13.142578 A 0.55000001 0.55000001 0 0 0 18.792969 13.78125 A 0.55000001 0.55000001 0 0 0 19.431641 13.337891 C 19.479233 13.073663 19.511641 12.811077 19.53125 12.550781 L 22 12.550781 A 0.55000001 0.55000001 0 0 0 22.550781 12 A 0.55000001 0.55000001 0 0 0 22 11.449219 L 19.535156 11.449219 C 19.268271 7.7442324 16.255767 4.7317284 12.550781 4.4648438 L 12.550781 2 A 0.55000001 0.55000001 0 0 0 12 1.4492188 z M 7.0664062 7.84375 L 16.15625 16.933594 C 14.974524 17.93233 13.521038 18.438554 12.064453 18.453125 A 0.55000001 0.55000001 0 0 0 12 18.449219 A 0.55000001 0.55000001 0 0 0 11.935547 18.453125 C 10.307812 18.436842 8.6847689 17.805863 7.4394531 16.560547 C 6.194138 15.315232 5.5631583 13.692188 5.546875 12.064453 A 0.55000001 0.55000001 0 0 0 5.5507812 12 A 0.55000001 0.55000001 0 0 0 5.546875 11.935547 C 5.5614461 10.478962 6.0676704 9.025475 7.0664062 7.84375 z " />
</svg>
