<?xml version="1.0" encoding="UTF-8" standalone="no"?>
<svg
   width="24"
   height="24"
   viewBox="0 0 24 24"
   fill="none"
   stroke="currentColor"
   stroke-width="1.1"
   stroke-linecap="round"
   stroke-linejoin="round"
   version="1.1"
   id="svg9"
   sodipodi:docname=".tmp_logs.svg"
   xmlns:inkscape="http://www.inkscape.org/namespaces/inkscape"
   xmlns:sodipodi="http://sodipodi.sourceforge.net/DTD/sodipodi-0.dtd"
   xmlns="http://www.w3.org/2000/svg"
   xmlns:svg="http://www.w3.org/2000/svg">
  <defs
     id="defs9" />
  <sodipodi:namedview
     id="namedview9"
     pagecolor="#ffffff"
     bordercolor="#000000"
     borderopacity="0.25"
     inkscape:showpageshadow="2"
     inkscape:pageopacity="0.0"
     inkscape:pagecheckerboard="0"
     inkscape:deskcolor="#d1d1d1" />
  <path
     id="path1"
     style="baseline-shift:baseline;display:inline;overflow:visible;vector-effect:none;fill:#000000;stroke:none;stroke-linecap:butt;stroke-linejoin:miter;enable-background:accumulate;stop-color:#000000;stop-opacity:1;opacity:1"
     d="M 3 4.4492188 A 0.55000001 0.55000001 0 0 0 2.4492188 5 A 0.55000001 0.55000001 0 0 0 3 5.5507812 L 4 5.5507812 A 0.55000001 0.55000001 0 0 0 4.5507812 5 A 0.55000001 0.55000001 0 0 0 4 4.4492188 L 3 4.4492188 z M 8 4.4492188 A 0.55000001 0.55000001 0 0 0 7.4492188 5 A 0.55000001 0.55000001 0 0 0 8 5.5507812 L 9 5.5507812 A 0.55000001 0.55000001 0 0 0 9.5507812 5 A 0.55000001 0.55000001 0 0 0 9 4.4492188 L 8 4.4492188 z M 13 4.4492188 A 0.55000001 0.55000001 0 0 0 12.449219 5 A 0.55000001 0.55000001 0 0 0 13 5.5507812 L 21 5.5507812 A 0.55000001 0.55000001 0 0 0 21.550781 5 A 0.55000001 0.55000001 0 0 0 21 4.4492188 L 13 4.4492188 z M 3 11.449219 A 0.55000001 0.55000001 0 0 0 2.4492188 12 A 0.55000001 0.55000001 0 0 0 3 12.550781 L 4 12.550781 A 0.55000001 0.55000001 0 0 0 4.5507812 12 A 0.55000001 0.55000001 0 0 0 4 11.449219 L 3 11.449219 z M 8 11.449219 A 0.55000001 0.55000001 0 0 0 7.4492188 12 A 0.55000001 0.55000001 0 0 0 8 12.550781 L 9 12.550781 A 0.55000001 0.55000001 0 0 0 9.5507812 12 A 0.55000001 0.55000001 0 0 0 9 11.449219 L 8 11.449219 z M 13 11.449219 A 0.55000001 0.55000001 0 0 0 12.449219 12 A 0.55000001 0.55000001 0 0 0 13 12.550781 L 21 12.550781 A 0.55000001 0.55000001 0 0 0 21.550781 12 A 0.55000001 0.55000001 0 0 0 21 11.449219 L 13 11.449219 z M 3 18.449219 A 0.55000001 0.55000001 0 0 0 2.4492188 19 A 0.55000001 0.55000001 0 0 0 3 19.550781 L 4 19.550781 A 0.55000001 0.55000001 0 0 0 4.5507812 19 A 0.55000001 0.55000001 0 0 0 4 18.449219 L 3 18.449219 z M 8 18.449219 A 0.55000001 0.55000001 0 0 0 7.4492188 19 A 0.55000001 0.55000001 0 0 0 8 19.550781 L 9 19.550781 A 0.55000001 0.55000001 0 0 0 9.5507812 19 A 0.55000001 0.55000001 0 0 0 9 18.449219 L 8 18.449219 z M 13 18.449219 A 0.55000001 0.55000001 0 0 0 12.449219 19 A 0.55000001 0.55000001 0 0 0 13 19.550781 L 21 19.550781 A 0.55000001 0.55000001 0 0 0 21.550781 19 A 0.55000001 0.55000001 0 0 0 21 18.449219 L 13 18.449219 z " />
</svg>
