<?xml version="1.0" encoding="UTF-8" standalone="no"?>
<svg
   width="24"
   height="24"
   viewBox="0 0 24 24"
   fill="none"
   stroke="currentColor"
   stroke-width="1.1"
   stroke-linecap="round"
   stroke-linejoin="round"
   version="1.1"
   id="svg2"
   sodipodi:docname=".tmp_mailbox.svg"
   xmlns:inkscape="http://www.inkscape.org/namespaces/inkscape"
   xmlns:sodipodi="http://sodipodi.sourceforge.net/DTD/sodipodi-0.dtd"
   xmlns="http://www.w3.org/2000/svg"
   xmlns:svg="http://www.w3.org/2000/svg">
  <defs
     id="defs2" />
  <sodipodi:namedview
     id="namedview2"
     pagecolor="#ffffff"
     bordercolor="#000000"
     borderopacity="0.25"
     inkscape:showpageshadow="2"
     inkscape:pageopacity="0.0"
     inkscape:pagecheckerboard="0"
     inkscape:deskcolor="#d1d1d1" />
  <path
     id="path1"
     style="baseline-shift:baseline;display:inline;overflow:visible;vector-effect:none;fill:#000000;stroke:none;stroke-linecap:butt;stroke-linejoin:miter;enable-background:accumulate;stop-color:#000000;stop-opacity:1;opacity:1"
     d="M 6.4980469 4.4492188 A 0.55000001 0.55000001 0 0 0 6.4257812 4.453125 C 3.6670352 4.492971 1.4492188 6.7316265 1.4492188 9.5 L 1.4492188 17 C 1.4492188 18.401812 2.5981884 19.550781 4 19.550781 L 9 19.550781 L 20 19.550781 C 21.401812 19.550781 22.550781 18.401812 22.550781 17 L 22.550781 9 C 22.550781 6.5 20.5 4.4492187 18 4.4492188 L 6.5 4.4492188 L 6.4980469 4.4492188 z M 6.4980469 5.5507812 L 6.5 5.5507812 C 8.7066667 5.5507812 10.449219 7.2933333 10.449219 9.5 L 10.449219 17 C 10.449219 17.807327 9.8073274 18.449219 9 18.449219 L 8.9980469 18.449219 L 4 18.449219 C 3.1926726 18.449219 2.5507813 17.807327 2.5507812 17 L 2.5507812 9.5 C 2.5507812 7.2937941 4.2920348 5.5515088 6.4980469 5.5507812 z M 9.6523438 5.5507812 L 18 5.5507812 C 19.9 5.5507812 21.449219 7.1 21.449219 9 L 21.449219 17 C 21.449219 17.807327 20.807327 18.449219 20 18.449219 L 11.095703 18.449219 C 11.382503 18.03682 11.550781 17.536959 11.550781 17 L 11.550781 9.5 C 11.550781 7.899881 10.810259 6.4756074 9.6523438 5.5507812 z M 15 8.4492188 A 0.55000001 0.55000001 0 0 0 14.449219 9 A 0.55000001 0.55000001 0 0 0 15 9.5507812 L 17.449219 9.5507812 L 17.449219 11 A 0.55000001 0.55000001 0 0 0 18 11.550781 A 0.55000001 0.55000001 0 0 0 18.550781 11 L 18.550781 9 A 0.55005501 0.55005501 0 0 0 18 8.4492188 L 15 8.4492188 z M 6 9.4492188 A 0.55000001 0.55000001 0 0 0 5.4492188 10 A 0.55000001 0.55000001 0 0 0 6 10.550781 L 7 10.550781 A 0.55000001 0.55000001 0 0 0 7.5507812 10 A 0.55000001 0.55000001 0 0 0 7 9.4492188 L 6 9.4492188 z " />
</svg>
