<?xml version="1.0" encoding="UTF-8" standalone="no"?>
<svg
   width="24"
   height="24"
   viewBox="0 0 24 24"
   fill="none"
   stroke="currentColor"
   stroke-width="1.1"
   stroke-linecap="round"
   stroke-linejoin="round"
   version="1.1"
   id="svg3"
   sodipodi:docname=".tmp_map-pin-x-inside.svg"
   xmlns:inkscape="http://www.inkscape.org/namespaces/inkscape"
   xmlns:sodipodi="http://sodipodi.sourceforge.net/DTD/sodipodi-0.dtd"
   xmlns="http://www.w3.org/2000/svg"
   xmlns:svg="http://www.w3.org/2000/svg">
  <defs
     id="defs3" />
  <sodipodi:namedview
     id="namedview3"
     pagecolor="#ffffff"
     bordercolor="#000000"
     borderopacity="0.25"
     inkscape:showpageshadow="2"
     inkscape:pageopacity="0.0"
     inkscape:pagecheckerboard="0"
     inkscape:deskcolor="#d1d1d1" />
  <path
     id="path1"
     style="baseline-shift:baseline;display:inline;overflow:visible;vector-effect:none;fill:#000000;stroke:none;stroke-linecap:butt;stroke-linejoin:miter;enable-background:accumulate;stop-color:#000000;stop-opacity:1;opacity:1"
     d="M 12 1.4492188 C 7.2844806 1.4492188 3.4492188 5.2844771 3.4492188 10 C 3.4492188 12.699881 4.9104937 15.328846 6.5644531 17.501953 C 8.2184125 19.67506 10.091222 21.39644 11.039062 22.214844 A 0.55005501 0.55005501 0 0 0 11.068359 22.238281 C 11.618128 22.651683 12.381872 22.651683 12.931641 22.238281 A 0.55005501 0.55005501 0 0 0 12.960938 22.214844 C 13.90877 21.39644 15.781587 19.67506 17.435547 17.501953 C 19.089506 15.328846 20.550781 12.699881 20.550781 10 C 20.550781 5.2844771 16.715519 1.4492187 12 1.4492188 z M 12 2.5507812 C 16.121036 2.5507812 19.449219 5.8789609 19.449219 10 C 19.449219 12.293119 18.141087 14.759294 16.560547 16.835938 C 14.988019 18.902054 13.180398 20.566762 12.263672 21.359375 C 12.103896 21.476065 11.896104 21.476065 11.736328 21.359375 C 10.819602 20.566762 9.0119812 18.902053 7.4394531 16.835938 C 5.8589125 14.759294 4.5507813 12.293119 4.5507812 10 C 4.5507812 5.8789609 7.8789636 2.5507813 12 2.5507812 z M 9.5 6.9492188 A 0.55000001 0.55000001 0 0 0 9.1113281 7.1113281 A 0.55000001 0.55000001 0 0 0 9.1113281 7.8886719 L 11.222656 10 L 9.1113281 12.111328 A 0.55000001 0.55000001 0 0 0 9.1113281 12.888672 A 0.55000001 0.55000001 0 0 0 9.8886719 12.888672 L 12 10.777344 L 14.111328 12.888672 A 0.55000001 0.55000001 0 0 0 14.888672 12.888672 A 0.55000001 0.55000001 0 0 0 14.888672 12.111328 L 12.777344 10 L 14.888672 7.8886719 A 0.55000001 0.55000001 0 0 0 14.888672 7.1113281 A 0.55000001 0.55000001 0 0 0 14.5 6.9492188 A 0.55000001 0.55000001 0 0 0 14.111328 7.1113281 L 12 9.2226562 L 9.8886719 7.1113281 A 0.55000001 0.55000001 0 0 0 9.5 6.9492188 z " />
</svg>
