<?xml version="1.0" encoding="UTF-8" standalone="no"?>
<svg
   width="24"
   height="24"
   viewBox="0 0 24 24"
   fill="none"
   stroke="currentColor"
   stroke-width="1.1"
   stroke-linecap="round"
   stroke-linejoin="round"
   version="1.1"
   id="svg3"
   sodipodi:docname=".tmp_martini.svg"
   xmlns:inkscape="http://www.inkscape.org/namespaces/inkscape"
   xmlns:sodipodi="http://sodipodi.sourceforge.net/DTD/sodipodi-0.dtd"
   xmlns="http://www.w3.org/2000/svg"
   xmlns:svg="http://www.w3.org/2000/svg">
  <defs
     id="defs3" />
  <sodipodi:namedview
     id="namedview3"
     pagecolor="#ffffff"
     bordercolor="#000000"
     borderopacity="0.25"
     inkscape:showpageshadow="2"
     inkscape:pageopacity="0.0"
     inkscape:pagecheckerboard="0"
     inkscape:deskcolor="#d1d1d1" />
  <path
     id="path1"
     style="baseline-shift:baseline;display:inline;overflow:visible;vector-effect:none;fill:#000000;stroke:none;stroke-linecap:butt;stroke-linejoin:miter;enable-background:accumulate;stop-color:#000000;stop-opacity:1;opacity:1"
     d="M 5 2.4492188 A 0.55005501 0.55005501 0 0 0 4.5859375 3.3613281 L 11.449219 11.205078 L 11.449219 21.449219 L 8 21.449219 A 0.55000001 0.55000001 0 0 0 7.4492188 22 A 0.55000001 0.55000001 0 0 0 8 22.550781 L 12 22.550781 L 12.001953 22.550781 L 16 22.550781 A 0.55000001 0.55000001 0 0 0 16.550781 22 A 0.55000001 0.55000001 0 0 0 16 21.449219 L 12.550781 21.449219 L 12.550781 11.205078 L 19.414062 3.3613281 A 0.55005501 0.55005501 0 0 0 19 2.4492188 L 5 2.4492188 z M 6.2128906 3.5507812 L 17.787109 3.5507812 L 12 10.166016 L 6.2128906 3.5507812 z " />
</svg>
