<?xml version="1.0" encoding="UTF-8" standalone="no"?>
<svg
   width="24"
   height="24"
   viewBox="0 0 24 24"
   fill="none"
   stroke="currentColor"
   stroke-width="1.1"
   stroke-linecap="round"
   stroke-linejoin="round"
   version="1.1"
   id="svg1"
   sodipodi:docname=".tmp_message-square.svg"
   xmlns:inkscape="http://www.inkscape.org/namespaces/inkscape"
   xmlns:sodipodi="http://sodipodi.sourceforge.net/DTD/sodipodi-0.dtd"
   xmlns="http://www.w3.org/2000/svg"
   xmlns:svg="http://www.w3.org/2000/svg">
  <defs
     id="defs1" />
  <sodipodi:namedview
     id="namedview1"
     pagecolor="#ffffff"
     bordercolor="#000000"
     borderopacity="0.25"
     inkscape:showpageshadow="2"
     inkscape:pageopacity="0.0"
     inkscape:pagecheckerboard="0"
     inkscape:deskcolor="#d1d1d1" />
  <path
     id="path1"
     style="baseline-shift:baseline;display:inline;overflow:visible;vector-effect:none;fill:#000000;stroke:none;stroke-linecap:butt;stroke-linejoin:miter;enable-background:accumulate;stop-color:#000000;stop-opacity:1;opacity:1"
     d="M 4 2.4492188 C 2.5981884 2.4492188 1.4492188 3.5981884 1.4492188 5 L 1.4492188 21.285156 C 1.4492882 21.823029 1.796404 22.270242 2.2285156 22.449219 C 2.6606272 22.628196 3.2211944 22.558033 3.6015625 22.177734 L 5.8027344 19.974609 C 6.0747482 19.702513 6.4433813 19.550863 6.828125 19.550781 L 20 19.550781 C 21.401812 19.550781 22.550781 18.401812 22.550781 17 L 22.550781 5 C 22.550781 3.5981884 21.401812 2.4492188 20 2.4492188 L 4 2.4492188 z M 4 3.5507812 L 20 3.5507812 C 20.807327 3.5507812 21.449219 4.1926726 21.449219 5 L 21.449219 17 C 21.449219 17.807327 20.807327 18.449219 20 18.449219 L 6.828125 18.449219 C 6.1520894 18.449363 5.5033478 18.719164 5.0253906 19.197266 L 2.8222656 21.398438 C 2.7553716 21.465318 2.7104899 21.459294 2.6484375 21.433594 C 2.5863855 21.407894 2.5507932 21.379754 2.5507812 21.285156 L 2.5507812 5 C 2.5507811 4.1926726 3.1926726 3.5507813 4 3.5507812 z " />
</svg>
