<?xml version="1.0" encoding="UTF-8" standalone="no"?>
<svg
   width="24"
   height="24"
   viewBox="0 0 24 24"
   fill="none"
   stroke="currentColor"
   stroke-width="1.1"
   stroke-linecap="round"
   stroke-linejoin="round"
   version="1.1"
   id="svg2"
   sodipodi:docname=".tmp_messages-square.svg"
   xmlns:inkscape="http://www.inkscape.org/namespaces/inkscape"
   xmlns:sodipodi="http://sodipodi.sourceforge.net/DTD/sodipodi-0.dtd"
   xmlns="http://www.w3.org/2000/svg"
   xmlns:svg="http://www.w3.org/2000/svg">
  <defs
     id="defs2" />
  <sodipodi:namedview
     id="namedview2"
     pagecolor="#ffffff"
     bordercolor="#000000"
     borderopacity="0.25"
     inkscape:showpageshadow="2"
     inkscape:pageopacity="0.0"
     inkscape:pagecheckerboard="0"
     inkscape:deskcolor="#d1d1d1" />
  <path
     id="path1"
     style="baseline-shift:baseline;display:inline;overflow:visible;vector-effect:none;fill:#000000;stroke:none;stroke-linecap:butt;stroke-linejoin:miter;enable-background:accumulate;stop-color:#000000;stop-opacity:1;opacity:1"
     d="M 4 1.4492188 C 2.5981884 1.4492188 1.4492188 2.5981884 1.4492188 4 L 1.4492188 14.285156 C 1.4492882 14.823029 1.796404 15.270242 2.2285156 15.449219 C 2.6606272 15.628196 3.2211944 15.558033 3.6015625 15.177734 L 5.8027344 12.974609 C 6.0747482 12.702513 6.4433813 12.550863 6.828125 12.550781 L 14 12.550781 C 15.401812 12.550781 16.550781 11.401812 16.550781 10 L 16.550781 4 C 16.550781 2.5981884 15.401812 1.4492188 14 1.4492188 L 4 1.4492188 z M 4 2.5507812 L 14 2.5507812 C 14.807327 2.5507812 15.449219 3.1926726 15.449219 4 L 15.449219 10 C 15.449219 10.807327 14.807327 11.449219 14 11.449219 L 6.828125 11.449219 C 6.1520894 11.449363 5.5033478 11.719164 5.0253906 12.197266 L 2.8222656 14.398438 C 2.7553716 14.465317 2.7104899 14.459294 2.6484375 14.433594 C 2.5863855 14.407894 2.5507932 14.379754 2.5507812 14.285156 L 2.5507812 4 C 2.5507811 3.1926726 3.1926726 2.5507813 4 2.5507812 z M 20 8.4492188 A 0.55000001 0.55000001 0 0 0 19.449219 9 A 0.55000001 0.55000001 0 0 0 20 9.5507812 C 20.807327 9.5507812 21.449219 10.192673 21.449219 11 L 21.449219 21.285156 C 21.449207 21.379746 21.413622 21.407892 21.351562 21.433594 C 21.289513 21.459294 21.244629 21.465327 21.177734 21.398438 L 18.974609 19.197266 C 18.496652 18.719164 17.847911 18.449363 17.171875 18.449219 L 10 18.449219 C 9.1926726 18.449219 8.5507812 17.807327 8.5507812 17 L 8.5507812 16 A 0.55000001 0.55000001 0 0 0 8 15.449219 A 0.55000001 0.55000001 0 0 0 7.4492188 16 L 7.4492188 17 C 7.4492188 18.401812 8.5981884 19.550781 10 19.550781 L 17.171875 19.550781 C 17.556619 19.550863 17.925252 19.702513 18.197266 19.974609 L 20.398438 22.177734 C 20.778807 22.558033 21.339373 22.628196 21.771484 22.449219 C 22.203596 22.270242 22.550712 21.823029 22.550781 21.285156 L 22.550781 11 C 22.550781 9.5981884 21.401812 8.4492188 20 8.4492188 z " />
</svg>
