<?xml version="1.0" encoding="UTF-8" standalone="no"?>
<svg
   width="24"
   height="24"
   viewBox="0 0 24 24"
   fill="none"
   stroke="currentColor"
   stroke-width="1.1"
   stroke-linecap="round"
   stroke-linejoin="round"
   version="1.1"
   id="svg4"
   sodipodi:docname=".tmp_nut-off.svg"
   xmlns:inkscape="http://www.inkscape.org/namespaces/inkscape"
   xmlns:sodipodi="http://sodipodi.sourceforge.net/DTD/sodipodi-0.dtd"
   xmlns="http://www.w3.org/2000/svg"
   xmlns:svg="http://www.w3.org/2000/svg">
  <defs
     id="defs4" />
  <sodipodi:namedview
     id="namedview4"
     pagecolor="#ffffff"
     bordercolor="#000000"
     borderopacity="0.25"
     inkscape:showpageshadow="2"
     inkscape:pageopacity="0.0"
     inkscape:pagecheckerboard="0"
     inkscape:deskcolor="#d1d1d1" />
  <path
     id="path1"
     style="baseline-shift:baseline;display:inline;overflow:visible;vector-effect:none;fill:#000000;stroke:none;stroke-linecap:butt;stroke-linejoin:miter;enable-background:accumulate;stop-color:#000000;stop-opacity:1;opacity:1"
     d="M 2 1.4492188 A 0.55000001 0.55000001 0 0 0 1.6113281 1.6113281 A 0.55000001 0.55000001 0 0 0 1.6113281 2.3886719 L 4.9550781 5.7324219 C 4.2046352 6.3545396 3.6660087 7.0703401 3.4667969 7.8671875 C 3.2609628 8.6888297 2.6571814 9.5972229 1.6171875 10.605469 A 0.55005501 0.55005501 0 0 0 2.0351562 11.548828 C 3.0087379 11.487891 3.7252976 11.29197 4.4492188 10.919922 L 4.4492188 14 C 4.4495862 17.451478 6.7957144 20.469271 10.140625 21.320312 A 0.55005501 0.55005501 0 0 0 10.142578 21.320312 C 10.481931 21.405973 10.777523 21.554867 10.990234 21.767578 L 11.611328 22.388672 A 0.55005501 0.55005501 0 0 0 12.388672 22.388672 L 13.009766 21.767578 C 13.222477 21.554867 13.518069 21.405976 13.857422 21.320312 A 0.55005501 0.55005501 0 0 0 13.859375 21.320312 C 15.468404 20.910431 16.889987 19.982829 17.914062 18.691406 L 21.611328 22.388672 A 0.55000001 0.55000001 0 0 0 22.388672 22.388672 A 0.55000001 0.55000001 0 0 0 22.388672 21.611328 L 18.246094 17.46875 A 0.55000001 0.55000001 0 0 0 18.226562 17.449219 L 12.392578 11.615234 L 6.1972656 5.4199219 A 0.55000001 0.55000001 0 0 0 6.1582031 5.3808594 L 2.3886719 1.6113281 A 0.55000001 0.55000001 0 0 0 2 1.4492188 z M 12 1.4492188 A 0.55000001 0.55000001 0 0 0 11.449219 2 L 11.449219 3.4609375 C 10.868065 3.4863624 10.30025 3.5517131 9.7519531 3.6503906 A 0.55000001 0.55000001 0 0 0 9.3085938 4.2890625 A 0.55000001 0.55000001 0 0 0 9.9472656 4.7324219 C 10.60447 4.6141441 11.292263 4.5508704 11.998047 4.5507812 A 0.55000001 0.55000001 0 0 0 12 4.5507812 A 0.55000001 0.55000001 0 0 0 12.001953 4.5507812 C 13.909732 4.5510321 15.70646 5.0328201 17.058594 5.7382812 C 18.41108 6.4439262 19.279571 7.3839082 19.466797 8.1328125 C 19.64757 8.8573986 20.08945 9.6323094 20.730469 10.408203 C 20.310441 10.302861 19.925054 10.082213 19.380859 9.6015625 A 0.55000001 0.55000001 0 0 0 19.365234 9.5878906 A 0.55005501 0.55005501 0 0 0 19.361328 9.5839844 A 0.55000001 0.55000001 0 0 0 19.306641 9.5429688 A 0.55005501 0.55005501 0 0 0 19.304688 9.5429688 A 0.55005501 0.55005501 0 0 0 19.269531 9.5195312 A 0.55000001 0.55000001 0 0 0 19.244141 9.5058594 A 0.55005501 0.55005501 0 0 0 19.228516 9.5 A 0.55000001 0.55000001 0 0 0 19.175781 9.4785156 A 0.55005501 0.55005501 0 0 0 19.169922 9.4765625 A 0.55000001 0.55000001 0 0 0 19.105469 9.4589844 A 0.55005501 0.55005501 0 0 0 19.091797 9.4570312 A 0.55000001 0.55000001 0 0 0 19 9.4492188 A 0.55000001 0.55000001 0 0 0 18.958984 9.4511719 A 0.55005501 0.55005501 0 0 0 18.957031 9.4511719 A 0.55000001 0.55000001 0 0 0 18.896484 9.4589844 A 0.55005501 0.55005501 0 0 0 18.871094 9.4648438 A 0.55000001 0.55000001 0 0 0 18.816406 9.4804688 A 0.55005501 0.55005501 0 0 0 18.804688 9.4863281 A 0.55000001 0.55000001 0 0 0 18.757812 9.5058594 A 0.55005501 0.55005501 0 0 0 18.75 9.5097656 A 0.55000001 0.55000001 0 0 0 18.699219 9.5390625 A 0.55005501 0.55005501 0 0 0 18.679688 9.5527344 A 0.55000001 0.55000001 0 0 0 18.634766 9.5898438 A 0.55005501 0.55005501 0 0 0 18.625 9.5976562 A 0.55000001 0.55000001 0 0 0 18.582031 9.6425781 A 0.55005501 0.55005501 0 0 0 18.576172 9.6503906 A 0.55000001 0.55000001 0 0 0 18.541016 9.6992188 A 0.55005501 0.55005501 0 0 0 18.529297 9.7148438 A 0.55000001 0.55000001 0 0 0 18.507812 9.7558594 A 0.55005501 0.55005501 0 0 0 18.496094 9.7792969 A 0.55000001 0.55000001 0 0 0 18.476562 9.8320312 A 0.55005501 0.55005501 0 0 0 18.474609 9.8378906 A 0.55000001 0.55000001 0 0 0 18.464844 9.8710938 C 18.221473 10.648429 18.000025 10.882213 17.191406 11.298828 A 0.55000001 0.55000001 0 0 0 16.955078 12.039062 A 0.55000001 0.55000001 0 0 0 17.695312 12.275391 C 17.988128 12.124526 18.235885 11.950405 18.449219 11.755859 L 18.449219 13.34375 A 0.55000001 0.55000001 0 0 0 19 13.892578 A 0.55000001 0.55000001 0 0 0 19.550781 13.34375 L 19.550781 10.994141 C 20.299458 11.450574 21.065668 11.66594 22.064453 11.546875 A 0.55005501 0.55005501 0 0 0 22.34375 10.570312 C 21.131135 9.6017156 20.756854 8.7636398 20.533203 7.8671875 C 20.220429 6.6160918 19.08892 5.5560739 17.566406 4.7617188 C 16.17837 4.0375258 14.433179 3.5426633 12.550781 3.4609375 L 12.550781 2 A 0.55000001 0.55000001 0 0 0 12 1.4492188 z M 5.7382812 6.515625 L 8.9941406 9.7714844 C 8.5506462 10.486668 8.12669 10.829604 7.0859375 11.326172 C 6.3451147 10.830772 5.933606 10.498213 5.484375 9.7382812 A 0.55000001 0.55000001 0 0 0 5.4746094 9.7207031 A 0.55005501 0.55005501 0 0 0 5.4453125 9.6757812 A 0.55000001 0.55000001 0 0 0 5.4316406 9.6582031 A 0.55005501 0.55005501 0 0 0 5.4238281 9.6503906 A 0.55000001 0.55000001 0 0 0 5.3242188 9.5546875 A 0.55005501 0.55005501 0 0 0 5.2421875 9.5058594 A 0.55000001 0.55000001 0 0 0 5.0449219 9.4511719 A 0.55005501 0.55005501 0 0 0 4.9453125 9.453125 A 0.55000001 0.55000001 0 0 0 4.9101562 9.4570312 A 0.55005501 0.55005501 0 0 0 4.8808594 9.4628906 A 0.55000001 0.55000001 0 0 0 4.8398438 9.4746094 A 0.55005501 0.55005501 0 0 0 4.8007812 9.4882812 A 0.55000001 0.55000001 0 0 0 4.7851562 9.4941406 A 0.55005501 0.55005501 0 0 0 4.7324219 9.5195312 A 0.55000001 0.55000001 0 0 0 4.7285156 9.5214844 A 0.55005501 0.55005501 0 0 0 4.6875 9.546875 C 4.3266528 9.7960983 3.9731011 9.752057 3.6835938 9.8808594 C 4.0840115 9.3067661 4.384027 8.7282893 4.5332031 8.1328125 C 4.6571383 7.6370718 5.0722396 7.0550259 5.7382812 6.515625 z M 9.5 10.839844 C 10.03447 11.504535 10.655199 12.010694 11.685547 12.462891 L 17.130859 17.908203 C 16.250615 19.06377 15.004017 19.893164 13.587891 20.253906 C 13.103244 20.376244 12.61971 20.602946 12.232422 20.990234 L 12 21.222656 L 11.767578 20.990234 C 11.38029 20.602946 10.896756 20.376244 10.412109 20.253906 C 7.5492731 19.525517 5.5510957 16.954045 5.5507812 14 L 5.5507812 11.498047 C 5.8556504 11.838886 6.2134035 12.153804 6.7050781 12.464844 A 0.55005501 0.55005501 0 0 0 7.2246094 12.501953 C 8.3795685 11.987311 8.9904998 11.469176 9.5 10.839844 z " />
</svg>
