<?xml version="1.0" encoding="UTF-8" standalone="no"?>
<svg
   width="24"
   height="24"
   viewBox="0 0 24 24"
   fill="none"
   stroke="currentColor"
   stroke-width="1.1"
   stroke-linecap="round"
   stroke-linejoin="round"
   version="1.1"
   id="svg4"
   sodipodi:docname=".tmp_paintbrush-vertical.svg"
   xmlns:inkscape="http://www.inkscape.org/namespaces/inkscape"
   xmlns:sodipodi="http://sodipodi.sourceforge.net/DTD/sodipodi-0.dtd"
   xmlns="http://www.w3.org/2000/svg"
   xmlns:svg="http://www.w3.org/2000/svg">
  <defs
     id="defs4" />
  <sodipodi:namedview
     id="namedview4"
     pagecolor="#ffffff"
     bordercolor="#000000"
     borderopacity="0.25"
     inkscape:showpageshadow="2"
     inkscape:pageopacity="0.0"
     inkscape:pagecheckerboard="0"
     inkscape:deskcolor="#d1d1d1" />
  <path
     id="path1"
     style="baseline-shift:baseline;display:inline;overflow:visible;vector-effect:none;fill:#000000;stroke:none;stroke-linecap:butt;stroke-linejoin:miter;enable-background:accumulate;stop-color:#000000;stop-opacity:1;opacity:1"
     d="M 7 1.4492188 C 6.1504732 1.4492188 5.4492187 2.1504732 5.4492188 3 L 5.4492188 11.552734 C 4.8674512 11.777243 4.4492187 12.343933 4.4492188 13 L 4.4492188 14 C 4.4492188 15.401812 5.5981884 16.550781 7 16.550781 L 9 16.550781 C 9.2550427 16.550781 9.4492188 16.744957 9.4492188 17 L 9.4492188 19.900391 C 9.4492188 20.704557 9.7713652 21.376414 10.259766 21.810547 C 10.748166 22.24468 11.377778 22.449219 12 22.449219 C 12.622222 22.449219 13.251834 22.24468 13.740234 21.810547 C 14.228634 21.376414 14.550781 20.704557 14.550781 19.900391 L 14.550781 17 C 14.550781 16.744957 14.744957 16.550781 15 16.550781 L 17 16.550781 C 18.401812 16.550781 19.550781 15.401812 19.550781 14 L 19.550781 13 C 19.550781 12.343933 19.132549 11.777243 18.550781 11.552734 L 18.550781 3 C 18.550781 2.1504732 17.849527 1.4492188 17 1.4492188 L 14 1.4492188 L 13.998047 1.4492188 L 10 1.4492188 L 9.9980469 1.4492188 L 7 1.4492188 z M 7 2.5507812 L 9.4492188 2.5507812 L 9.4492188 4 A 0.55000001 0.55000001 0 0 0 10 4.5507812 A 0.55000001 0.55000001 0 0 0 10.550781 4 L 10.550781 2.5507812 L 13.449219 2.5507812 L 13.449219 6 A 0.55000001 0.55000001 0 0 0 14 6.5507812 A 0.55000001 0.55000001 0 0 0 14.550781 6 L 14.550781 2.5507812 L 17 2.5507812 C 17.255043 2.5507812 17.449219 2.7449573 17.449219 3 L 17.449219 11.449219 L 6.5507812 11.449219 L 6.5507812 3 C 6.5507812 2.7449573 6.7449573 2.5507812 7 2.5507812 z M 6 12.550781 L 6.0019531 12.550781 L 17.998047 12.550781 L 18 12.550781 C 18.254701 12.551133 18.449219 12.745188 18.449219 13 L 18.449219 14 C 18.449219 14.807327 17.807327 15.449219 17 15.449219 L 15 15.449219 C 14.150473 15.449219 13.449219 16.150473 13.449219 17 L 13.449219 19.900391 C 13.449219 20.429557 13.271366 20.755748 13.009766 20.988281 C 12.748166 21.220814 12.377778 21.349609 12 21.349609 C 11.622222 21.349609 11.251834 21.220814 10.990234 20.988281 C 10.728634 20.755748 10.550781 20.429557 10.550781 19.900391 L 10.550781 17 C 10.550781 16.150473 9.8495268 15.449219 9 15.449219 L 7 15.449219 C 6.1926726 15.449219 5.5507812 14.807327 5.5507812 14 L 5.5507812 13 C 5.5507812 12.745188 5.7452991 12.551133 6 12.550781 z " />
</svg>
