<?xml version="1.0" encoding="UTF-8" standalone="no"?>
<svg
   width="24"
   height="24"
   viewBox="0 0 24 24"
   fill="none"
   stroke="currentColor"
   stroke-width="1.1"
   stroke-linecap="round"
   stroke-linejoin="round"
   version="1.1"
   id="svg3"
   sodipodi:docname=".tmp_philippine-peso.svg"
   xmlns:inkscape="http://www.inkscape.org/namespaces/inkscape"
   xmlns:sodipodi="http://sodipodi.sourceforge.net/DTD/sodipodi-0.dtd"
   xmlns="http://www.w3.org/2000/svg"
   xmlns:svg="http://www.w3.org/2000/svg">
  <defs
     id="defs3" />
  <sodipodi:namedview
     id="namedview3"
     pagecolor="#ffffff"
     bordercolor="#000000"
     borderopacity="0.25"
     inkscape:showpageshadow="2"
     inkscape:pageopacity="0.0"
     inkscape:pagecheckerboard="0"
     inkscape:deskcolor="#d1d1d1" />
  <path
     id="path1"
     style="baseline-shift:baseline;display:inline;overflow:visible;vector-effect:none;fill:#000000;stroke:none;stroke-linecap:butt;stroke-linejoin:miter;enable-background:accumulate;stop-color:#000000;stop-opacity:1;opacity:1"
     d="M 8 2.4492188 C 7.1504732 2.4492188 6.4492187 3.1504732 6.4492188 4 L 6.4492188 6.4492188 L 4 6.4492188 A 0.55000001 0.55000001 0 0 0 3.4492188 7 A 0.55000001 0.55000001 0 0 0 4 7.5507812 L 6.4492188 7.5507812 L 6.4492188 10.449219 L 4 10.449219 A 0.55000001 0.55000001 0 0 0 3.4492188 11 A 0.55000001 0.55000001 0 0 0 4 11.550781 L 6.4492188 11.550781 L 6.4492188 15 L 6.4492188 21 A 0.55000001 0.55000001 0 0 0 7 21.550781 A 0.55000001 0.55000001 0 0 0 7.5507812 21 L 7.5507812 15.550781 L 12 15.550781 C 14.706735 15.550781 17.0362 13.898933 18.033203 11.550781 L 20 11.550781 A 0.55000001 0.55000001 0 0 0 20.550781 11 A 0.55000001 0.55000001 0 0 0 20 10.449219 L 18.388672 10.449219 C 18.494474 9.9828637 18.550781 9.4978095 18.550781 9 C 18.550781 8.5021905 18.494474 8.0171362 18.388672 7.5507812 L 20 7.5507812 A 0.55000001 0.55000001 0 0 0 20.550781 7 A 0.55000001 0.55000001 0 0 0 20 6.4492188 L 18.033203 6.4492188 C 17.0362 4.1010671 14.706735 2.4492188 12 2.4492188 L 8 2.4492188 z M 8 3.5507812 L 12 3.5507812 C 14.09399 3.5507812 15.907449 4.7231094 16.820312 6.4492188 L 7.5507812 6.4492188 L 7.5507812 4 C 7.5507812 3.7449573 7.7449573 3.5507812 8 3.5507812 z M 7.5507812 7.5507812 L 17.255859 7.5507812 C 17.382132 8.0119977 17.449219 8.4979129 17.449219 9 C 17.449219 9.5020872 17.382132 9.9880022 17.255859 10.449219 L 7.5507812 10.449219 L 7.5507812 7.5507812 z M 7.5507812 11.550781 L 16.820312 11.550781 C 15.907449 13.276891 14.09399 14.449219 12 14.449219 L 7.5507812 14.449219 L 7.5507812 11.550781 z " />
</svg>
