<?xml version="1.0" encoding="UTF-8" standalone="no"?>
<svg
   width="24"
   height="24"
   viewBox="0 0 24 24"
   fill="none"
   stroke="currentColor"
   stroke-width="1.1"
   stroke-linecap="round"
   stroke-linejoin="round"
   version="1.1"
   id="svg4"
   sodipodi:docname=".tmp_power-off.svg"
   xmlns:inkscape="http://www.inkscape.org/namespaces/inkscape"
   xmlns:sodipodi="http://sodipodi.sourceforge.net/DTD/sodipodi-0.dtd"
   xmlns="http://www.w3.org/2000/svg"
   xmlns:svg="http://www.w3.org/2000/svg">
  <defs
     id="defs4" />
  <sodipodi:namedview
     id="namedview4"
     pagecolor="#ffffff"
     bordercolor="#000000"
     borderopacity="0.25"
     inkscape:showpageshadow="2"
     inkscape:pageopacity="0.0"
     inkscape:pagecheckerboard="0"
     inkscape:deskcolor="#d1d1d1" />
  <path
     id="path1"
     style="baseline-shift:baseline;display:inline;overflow:visible;vector-effect:none;fill:#000000;stroke:none;stroke-linecap:butt;stroke-linejoin:miter;enable-background:accumulate;stop-color:#000000;stop-opacity:1;opacity:1"
     d="M 2 1.4492188 A 0.55000001 0.55000001 0 0 0 1.6113281 1.6113281 A 0.55000001 0.55000001 0 0 0 1.6113281 2.3886719 L 5.359375 6.1367188 C 1.5085205 9.7997046 1.3830017 15.992377 5.1953125 19.804688 C 9.0076232 23.616999 15.200295 23.49148 18.863281 19.640625 L 21.611328 22.388672 A 0.55000001 0.55000001 0 0 0 22.388672 22.388672 A 0.55000001 0.55000001 0 0 0 22.388672 21.611328 L 19.25 18.472656 A 0.55000001 0.55000001 0 0 0 19.193359 18.417969 L 6.5820312 5.8066406 A 0.55000001 0.55000001 0 0 0 6.5273438 5.75 L 2.3886719 1.6113281 A 0.55000001 0.55000001 0 0 0 2 1.4492188 z M 12 1.4492188 A 0.55000001 0.55000001 0 0 0 11.449219 2 L 11.449219 6 A 0.55000001 0.55000001 0 0 0 12 6.5507812 A 0.55000001 0.55000001 0 0 0 12.550781 6 L 12.550781 2 A 0.55000001 0.55000001 0 0 0 12 1.4492188 z M 18.359375 6.0917969 A 0.55000001 0.55000001 0 0 0 17.970703 6.2519531 A 0.55000001 0.55000001 0 0 0 17.970703 7.0292969 C 20.02401 9.0836053 20.879047 12.044878 20.234375 14.876953 A 0.55000001 0.55000001 0 0 0 20.648438 15.537109 A 0.55000001 0.55000001 0 0 0 21.306641 15.123047 C 22.034888 11.923822 21.067544 8.5725815 18.748047 6.2519531 A 0.55000001 0.55000001 0 0 0 18.359375 6.0917969 z M 6.1386719 6.9160156 L 18.083984 18.861328 C 14.83766 22.300393 9.3637768 22.418464 5.9726562 19.027344 C 2.5815359 15.636223 2.6996066 10.16234 6.1386719 6.9160156 z " />
</svg>
