<?xml version="1.0" encoding="UTF-8" standalone="no"?>
<svg
   width="24"
   height="24"
   viewBox="0 0 24 24"
   fill="none"
   stroke="currentColor"
   stroke-width="1.1"
   stroke-linecap="round"
   stroke-linejoin="round"
   version="1.1"
   id="svg3"
   sodipodi:docname=".tmp_receipt-turkish-lira.svg"
   xmlns:inkscape="http://www.inkscape.org/namespaces/inkscape"
   xmlns:sodipodi="http://sodipodi.sourceforge.net/DTD/sodipodi-0.dtd"
   xmlns="http://www.w3.org/2000/svg"
   xmlns:svg="http://www.w3.org/2000/svg">
  <defs
     id="defs3" />
  <sodipodi:namedview
     id="namedview3"
     pagecolor="#ffffff"
     bordercolor="#000000"
     borderopacity="0.25"
     inkscape:showpageshadow="2"
     inkscape:pageopacity="0.0"
     inkscape:pagecheckerboard="0"
     inkscape:deskcolor="#d1d1d1" />
  <path
     id="path1"
     style="baseline-shift:baseline;display:inline;overflow:visible;vector-effect:none;fill:#000000;stroke:none;stroke-linecap:butt;stroke-linejoin:miter;enable-background:accumulate;stop-color:#000000;stop-opacity:1;opacity:1"
     d="M 3.9570312 1.4511719 A 0.55005501 0.55005501 0 0 0 3.4492188 2 L 3.4492188 22 A 0.55005501 0.55005501 0 0 0 4.2460938 22.492188 L 6 21.615234 L 7.7539062 22.492188 A 0.55005501 0.55005501 0 0 0 8.2460938 22.492188 L 10 21.615234 L 11.753906 22.492188 A 0.55005501 0.55005501 0 0 0 12.246094 22.492188 L 14 21.615234 L 15.753906 22.492188 A 0.55005501 0.55005501 0 0 0 16.246094 22.492188 L 18 21.615234 L 19.753906 22.492188 A 0.55005501 0.55005501 0 0 0 20.550781 22 L 20.550781 2 A 0.55005501 0.55005501 0 0 0 19.753906 1.5078125 L 18 2.3847656 L 16.246094 1.5078125 A 0.55005501 0.55005501 0 0 0 15.753906 1.5078125 L 14 2.3847656 L 12.246094 1.5078125 A 0.55005501 0.55005501 0 0 0 11.753906 1.5078125 L 10 2.3847656 L 8.2460938 1.5078125 A 0.55005501 0.55005501 0 0 0 7.7539062 1.5078125 L 6 2.3847656 L 4.2460938 1.5078125 A 0.55005501 0.55005501 0 0 0 3.9570312 1.4511719 z M 8 2.6152344 L 9.7539062 3.4921875 A 0.55005501 0.55005501 0 0 0 10.246094 3.4921875 L 12 2.6152344 L 13.753906 3.4921875 A 0.55005501 0.55005501 0 0 0 14.246094 3.4921875 L 16 2.6152344 L 17.753906 3.4921875 A 0.55005501 0.55005501 0 0 0 18.246094 3.4921875 L 19.449219 2.890625 L 19.449219 21.109375 L 18.246094 20.507812 A 0.55005501 0.55005501 0 0 0 17.753906 20.507812 L 16 21.384766 L 14.246094 20.507812 A 0.55005501 0.55005501 0 0 0 13.753906 20.507812 L 12 21.384766 L 10.246094 20.507812 A 0.55005501 0.55005501 0 0 0 9.7539062 20.507812 L 8 21.384766 L 6.2460938 20.507812 A 0.55005501 0.55005501 0 0 0 5.7539062 20.507812 L 4.5507812 21.109375 L 4.5507812 2.890625 L 5.7539062 3.4921875 A 0.55005501 0.55005501 0 0 0 6.2460938 3.4921875 L 8 2.6152344 z M 10 5.9492188 A 0.55000001 0.55000001 0 0 0 9.4492188 6.5 L 9.4492188 9.6601562 L 7.7539062 10.507812 A 0.55000001 0.55000001 0 0 0 7.5078125 11.246094 A 0.55000001 0.55000001 0 0 0 8.2460938 11.492188 L 9.4492188 10.890625 L 9.4492188 17.5 A 0.55005501 0.55005501 0 0 0 10 18.050781 C 13.334808 18.050781 16.050781 15.334808 16.050781 12 A 0.55000001 0.55000001 0 0 0 15.5 11.449219 A 0.55000001 0.55000001 0 0 0 14.949219 12 C 14.949219 14.54472 13.017209 16.552899 10.550781 16.837891 L 10.550781 10.339844 L 14.246094 8.4921875 A 0.55000001 0.55000001 0 0 0 14.492188 7.7539062 A 0.55000001 0.55000001 0 0 0 13.753906 7.5078125 L 10.550781 9.109375 L 10.550781 6.5 A 0.55000001 0.55000001 0 0 0 10 5.9492188 z " />
</svg>
