<?xml version="1.0" encoding="UTF-8" standalone="no"?>
<svg
   width="24"
   height="24"
   viewBox="0 0 24 24"
   fill="none"
   stroke="currentColor"
   stroke-width="1.1"
   stroke-linecap="round"
   stroke-linejoin="round"
   version="1.1"
   id="svg3"
   sodipodi:docname=".tmp_receipt.svg"
   xmlns:inkscape="http://www.inkscape.org/namespaces/inkscape"
   xmlns:sodipodi="http://sodipodi.sourceforge.net/DTD/sodipodi-0.dtd"
   xmlns="http://www.w3.org/2000/svg"
   xmlns:svg="http://www.w3.org/2000/svg">
  <defs
     id="defs3" />
  <sodipodi:namedview
     id="namedview3"
     pagecolor="#ffffff"
     bordercolor="#000000"
     borderopacity="0.25"
     inkscape:showpageshadow="2"
     inkscape:pageopacity="0.0"
     inkscape:pagecheckerboard="0"
     inkscape:deskcolor="#d1d1d1" />
  <path
     id="path1"
     style="baseline-shift:baseline;display:inline;overflow:visible;vector-effect:none;fill:#000000;stroke:none;stroke-linecap:butt;stroke-linejoin:miter;enable-background:accumulate;stop-color:#000000;stop-opacity:1;opacity:1"
     d="M 3.9570312 1.4511719 A 0.55005501 0.55005501 0 0 0 3.4492188 2 L 3.4492188 22 A 0.55005501 0.55005501 0 0 0 4.2460938 22.492188 L 6 21.615234 L 7.7539062 22.492188 A 0.55005501 0.55005501 0 0 0 8.2460938 22.492188 L 10 21.615234 L 11.753906 22.492188 A 0.55005501 0.55005501 0 0 0 12.246094 22.492188 L 14 21.615234 L 15.753906 22.492188 A 0.55005501 0.55005501 0 0 0 16.246094 22.492188 L 18 21.615234 L 19.753906 22.492188 A 0.55005501 0.55005501 0 0 0 20.550781 22 L 20.550781 2 A 0.55005501 0.55005501 0 0 0 19.753906 1.5078125 L 18 2.3847656 L 16.246094 1.5078125 A 0.55005501 0.55005501 0 0 0 15.753906 1.5078125 L 14 2.3847656 L 12.246094 1.5078125 A 0.55005501 0.55005501 0 0 0 11.753906 1.5078125 L 10 2.3847656 L 8.2460938 1.5078125 A 0.55005501 0.55005501 0 0 0 7.7539062 1.5078125 L 6 2.3847656 L 4.2460938 1.5078125 A 0.55005501 0.55005501 0 0 0 3.9570312 1.4511719 z M 8 2.6152344 L 9.7539062 3.4921875 A 0.55005501 0.55005501 0 0 0 10.246094 3.4921875 L 12 2.6152344 L 13.753906 3.4921875 A 0.55005501 0.55005501 0 0 0 14.246094 3.4921875 L 16 2.6152344 L 17.753906 3.4921875 A 0.55005501 0.55005501 0 0 0 18.246094 3.4921875 L 19.449219 2.890625 L 19.449219 21.109375 L 18.246094 20.507812 A 0.55005501 0.55005501 0 0 0 17.753906 20.507812 L 16 21.384766 L 14.246094 20.507812 A 0.55005501 0.55005501 0 0 0 13.753906 20.507812 L 12 21.384766 L 10.246094 20.507812 A 0.55005501 0.55005501 0 0 0 9.7539062 20.507812 L 8 21.384766 L 6.2460938 20.507812 A 0.55005501 0.55005501 0 0 0 5.7539062 20.507812 L 4.5507812 21.109375 L 4.5507812 2.890625 L 5.7539062 3.4921875 A 0.55005501 0.55005501 0 0 0 6.2460938 3.4921875 L 8 2.6152344 z M 12 5.9492188 A 0.55000001 0.55000001 0 0 0 11.449219 6.5 L 11.449219 7.4492188 L 10 7.4492188 C 9.1958336 7.4492188 8.5239769 7.7713656 8.0898438 8.2597656 C 7.6557105 8.7481657 7.4492189 9.3777778 7.4492188 10 C 7.4492189 10.622222 7.6557106 11.251834 8.0898438 11.740234 C 8.5239769 12.228634 9.1958336 12.550781 10 12.550781 L 11.449219 12.550781 L 11.449219 15.449219 L 8 15.449219 A 0.55000001 0.55000001 0 0 0 7.4492188 16 A 0.55000001 0.55000001 0 0 0 8 16.550781 L 11.449219 16.550781 L 11.449219 17.5 A 0.55000001 0.55000001 0 0 0 12 18.050781 A 0.55000001 0.55000001 0 0 0 12.550781 17.5 L 12.550781 16.550781 L 14 16.550781 C 14.804166 16.550781 15.476023 16.228634 15.910156 15.740234 C 16.344289 15.251834 16.550781 14.622222 16.550781 14 C 16.550781 13.377778 16.344289 12.748166 15.910156 12.259766 C 15.476023 11.771366 14.804166 11.449219 14 11.449219 L 12.550781 11.449219 L 12.550781 8.5507812 L 16 8.5507812 A 0.55000001 0.55000001 0 0 0 16.550781 8 A 0.55000001 0.55000001 0 0 0 16 7.4492188 L 12.550781 7.4492188 L 12.550781 6.5 A 0.55000001 0.55000001 0 0 0 12 5.9492188 z M 10 8.5507812 L 11.449219 8.5507812 L 11.449219 11.449219 L 10 11.449219 C 9.4708337 11.449219 9.1426894 11.271366 8.9101562 11.009766 C 8.677623 10.748166 8.5507812 10.377778 8.5507812 10 C 8.5507812 9.6222222 8.677623 9.2518343 8.9101562 8.9902344 C 9.1426893 8.7286344 9.4708337 8.5507813 10 8.5507812 z M 12.550781 12.550781 L 14 12.550781 C 14.529166 12.550781 14.857311 12.728634 15.089844 12.990234 C 15.322377 13.251834 15.449219 13.622222 15.449219 14 C 15.449219 14.377778 15.322377 14.748166 15.089844 15.009766 C 14.857311 15.271366 14.529166 15.449219 14 15.449219 L 12.550781 15.449219 L 12.550781 12.550781 z " />
</svg>
