<?xml version="1.0" encoding="UTF-8" standalone="no"?>
<svg
   width="24"
   height="24"
   viewBox="0 0 24 24"
   fill="none"
   stroke="currentColor"
   stroke-width="1.1"
   stroke-linecap="round"
   stroke-linejoin="round"
   version="1.1"
   id="svg4"
   sodipodi:docname=".tmp_refresh-cw.svg"
   xmlns:inkscape="http://www.inkscape.org/namespaces/inkscape"
   xmlns:sodipodi="http://sodipodi.sourceforge.net/DTD/sodipodi-0.dtd"
   xmlns="http://www.w3.org/2000/svg"
   xmlns:svg="http://www.w3.org/2000/svg">
  <defs
     id="defs4" />
  <sodipodi:namedview
     id="namedview4"
     pagecolor="#ffffff"
     bordercolor="#000000"
     borderopacity="0.25"
     inkscape:showpageshadow="2"
     inkscape:pageopacity="0.0"
     inkscape:pagecheckerboard="0"
     inkscape:deskcolor="#d1d1d1" />
  <path
     id="path1"
     style="baseline-shift:baseline;display:inline;overflow:visible;vector-effect:none;fill:#000000;stroke:none;stroke-linecap:butt;stroke-linejoin:miter;enable-background:accumulate;stop-color:#000000;stop-opacity:1;opacity:1"
     d="M 12 2.4492188 C 6.7321952 2.4492188 2.4492186 6.7321952 2.4492188 12 A 0.55000001 0.55000001 0 0 0 3 12.550781 A 0.55000001 0.55000001 0 0 0 3.5507812 12 C 3.5507812 7.3273457 7.3256482 3.551858 11.998047 3.5507812 C 14.372349 3.5597112 16.650364 4.4845097 18.357422 6.1347656 L 19.671875 7.4492188 L 16 7.4492188 A 0.55000001 0.55000001 0 0 0 15.449219 8 A 0.55000001 0.55000001 0 0 0 16 8.5507812 L 21 8.5507812 A 0.55005501 0.55005501 0 0 0 21.550781 8 L 21.550781 3 A 0.55000001 0.55000001 0 0 0 21 2.4492188 A 0.55000001 0.55000001 0 0 0 20.449219 3 L 20.449219 6.671875 L 19.128906 5.3515625 A 0.55005501 0.55005501 0 0 0 19.123047 5.34375 C 17.212207 3.4964509 14.659747 2.459217 12.001953 2.4492188 A 0.55005501 0.55005501 0 0 0 12 2.4492188 z M 21 11.449219 A 0.55000001 0.55000001 0 0 0 20.449219 12 C 20.449219 16.672654 16.674352 20.448142 12.001953 20.449219 C 9.627651 20.440287 7.3496358 19.51549 5.6425781 17.865234 L 4.328125 16.550781 L 8 16.550781 A 0.55000001 0.55000001 0 0 0 8.5507812 16 A 0.55000001 0.55000001 0 0 0 8 15.449219 L 3 15.449219 A 0.55005501 0.55005501 0 0 0 2.8574219 15.46875 A 0.55005501 0.55005501 0 0 0 2.7246094 15.523438 A 0.55005501 0.55005501 0 0 0 2.5234375 15.724609 A 0.55005501 0.55005501 0 0 0 2.46875 15.857422 A 0.55005501 0.55005501 0 0 0 2.4492188 16 L 2.4492188 21 A 0.55000001 0.55000001 0 0 0 3 21.550781 A 0.55000001 0.55000001 0 0 0 3.5507812 21 L 3.5507812 17.328125 L 4.8710938 18.648438 A 0.55005501 0.55005501 0 0 0 4.8769531 18.65625 C 6.7878335 20.503547 9.3402528 21.540783 11.998047 21.550781 A 0.55005501 0.55005501 0 0 0 12 21.550781 C 17.267805 21.550781 21.550781 17.267805 21.550781 12 A 0.55000001 0.55000001 0 0 0 21 11.449219 z " />
</svg>
