<?xml version="1.0" encoding="UTF-8" standalone="no"?>
<svg
   width="24"
   height="24"
   viewBox="0 0 24 24"
   fill="none"
   stroke="currentColor"
   stroke-width="1.1"
   stroke-linecap="round"
   stroke-linejoin="round"
   version="1.1"
   id="svg2"
   sodipodi:docname=".tmp_rss.svg"
   xmlns:inkscape="http://www.inkscape.org/namespaces/inkscape"
   xmlns:sodipodi="http://sodipodi.sourceforge.net/DTD/sodipodi-0.dtd"
   xmlns="http://www.w3.org/2000/svg"
   xmlns:svg="http://www.w3.org/2000/svg">
  <defs
     id="defs2" />
  <sodipodi:namedview
     id="namedview2"
     pagecolor="#ffffff"
     bordercolor="#000000"
     borderopacity="0.25"
     inkscape:showpageshadow="2"
     inkscape:pageopacity="0.0"
     inkscape:pagecheckerboard="0"
     inkscape:deskcolor="#d1d1d1" />
  <path
     id="path1"
     style="baseline-shift:baseline;display:inline;overflow:visible;vector-effect:none;fill:#000000;stroke:none;stroke-linecap:butt;stroke-linejoin:miter;enable-background:accumulate;stop-color:#000000;stop-opacity:1;opacity:1"
     d="M 4 3.4492188 A 0.55000001 0.55000001 0 0 0 3.4492188 4 A 0.55000001 0.55000001 0 0 0 4 4.5507812 C 12.539314 4.5507813 19.449219 11.460686 19.449219 20 A 0.55000001 0.55000001 0 0 0 20 20.550781 A 0.55000001 0.55000001 0 0 0 20.550781 20 C 20.550781 10.866202 13.133798 3.4492187 4 3.4492188 z M 4 10.449219 A 0.55000001 0.55000001 0 0 0 3.4492188 11 A 0.55000001 0.55000001 0 0 0 4 11.550781 C 8.6733207 11.550781 12.449219 15.326679 12.449219 20 A 0.55000001 0.55000001 0 0 0 13 20.550781 A 0.55000001 0.55000001 0 0 0 13.550781 20 C 13.550781 14.732195 9.2678048 10.449219 4 10.449219 z M 5 17.449219 C 4.1504732 17.449219 3.4492188 18.150473 3.4492188 19 C 3.4492186 19.849527 4.1504732 20.550781 5 20.550781 C 5.8495268 20.550781 6.5507814 19.849527 6.5507812 19 C 6.5507812 18.150473 5.8495268 17.449219 5 17.449219 z M 5 18.550781 C 5.2550427 18.550781 5.4492189 18.744957 5.4492188 19 C 5.4492188 19.255043 5.2550427 19.449219 5 19.449219 C 4.7449573 19.449219 4.5507812 19.255043 4.5507812 19 C 4.5507812 18.744957 4.7449573 18.550781 5 18.550781 z " />
</svg>
