<?xml version="1.0" encoding="UTF-8" standalone="no"?>
<svg
   width="24"
   height="24"
   viewBox="0 0 24 24"
   fill="none"
   stroke="currentColor"
   stroke-width="1.1"
   stroke-linecap="round"
   stroke-linejoin="round"
   version="1.1"
   id="svg4"
   sodipodi:docname=".tmp_sandwich.svg"
   xmlns:inkscape="http://www.inkscape.org/namespaces/inkscape"
   xmlns:sodipodi="http://sodipodi.sourceforge.net/DTD/sodipodi-0.dtd"
   xmlns="http://www.w3.org/2000/svg"
   xmlns:svg="http://www.w3.org/2000/svg">
  <defs
     id="defs4" />
  <sodipodi:namedview
     id="namedview4"
     pagecolor="#ffffff"
     bordercolor="#000000"
     borderopacity="0.25"
     inkscape:showpageshadow="2"
     inkscape:pageopacity="0.0"
     inkscape:pagecheckerboard="0"
     inkscape:deskcolor="#d1d1d1" />
  <path
     id="path1"
     style="baseline-shift:baseline;display:inline;overflow:visible;vector-effect:none;fill:#000000;stroke:none;stroke-linecap:butt;stroke-linejoin:miter;enable-background:accumulate;stop-color:#000000;stop-opacity:1;opacity:1"
     d="M 12 3.453125 C 11.431247 3.453125 10.862928 3.6401781 10.396484 4.0175781 L 2.0234375 10.794922 A 0.55000001 0.55000001 0 0 0 1.9628906 10.851562 C 1.6480341 11.13644 1.4492188 11.54729 1.4492188 12 L 1.4492188 14 C 1.4492188 14.379146 1.5899014 14.729006 1.8203125 15 C 1.5898792 15.270984 1.4492188 15.62064 1.4492188 16 L 1.4492188 18 C 1.4492188 18.849527 2.1504732 19.550781 3 19.550781 L 11.820312 19.550781 L 12.470703 20.039062 C 13.584954 20.874751 15.178047 20.653647 16.023438 19.550781 L 21 19.550781 C 21.849527 19.550781 22.550781 18.849527 22.550781 18 L 22.550781 16 C 22.550781 15.62064 22.410121 15.270984 22.179688 15 C 22.410098 14.729006 22.550781 14.379146 22.550781 14 L 22.550781 12 C 22.550781 11.542423 22.346131 11.126992 22.025391 10.841797 A 0.55000001 0.55000001 0 0 0 21.974609 10.794922 L 13.603516 4.0175781 C 13.137072 3.6401781 12.568753 3.453125 12 3.453125 z M 12 4.5488281 C 12.322458 4.5488281 12.644917 4.656861 12.912109 4.8730469 L 19.798828 10.449219 L 4.2011719 10.449219 L 11.087891 4.8730469 C 11.355083 4.656861 11.677542 4.5488281 12 4.5488281 z M 3 11.550781 L 21 11.550781 C 21.088523 11.550781 21.168692 11.573612 21.236328 11.613281 C 21.238417 11.614506 21.240124 11.61593 21.242188 11.617188 L 21.283203 11.650391 A 0.55000001 0.55000001 0 0 0 21.322266 11.679688 C 21.401378 11.759549 21.449219 11.871347 21.449219 12 L 21.449219 14 C 21.449219 14.258813 21.258813 14.449219 21 14.449219 L 20.998047 14.449219 L 3.0019531 14.449219 A 0.55000001 0.55000001 0 0 0 3 14.449219 C 2.7411865 14.449219 2.5507812 14.258813 2.5507812 14 L 2.5507812 12 C 2.5507812 11.871344 2.5986189 11.759549 2.6777344 11.679688 A 0.55000001 0.55000001 0 0 0 2.7167969 11.650391 L 2.7578125 11.617188 L 2.7636719 11.613281 C 2.8313096 11.573609 2.9114727 11.550781 3 11.550781 z M 3 15.550781 A 0.55000001 0.55000001 0 0 0 3.0019531 15.550781 L 6.4882812 15.550781 L 10.351562 18.449219 L 3 18.449219 C 2.7449573 18.449219 2.5507812 18.255043 2.5507812 18 L 2.5507812 16 C 2.5507812 15.744957 2.7449573 15.550781 3 15.550781 z M 8.3203125 15.550781 L 17.650391 15.550781 L 15.330078 18.642578 A 0.55000001 0.55000001 0 0 0 15.292969 18.693359 L 15.160156 18.869141 C 14.67576 19.515003 13.776721 19.644553 13.130859 19.160156 L 12.349609 18.574219 A 0.55000001 0.55000001 0 0 0 12.310547 18.544922 L 8.3203125 15.550781 z M 19.023438 15.550781 L 20.998047 15.550781 L 21 15.550781 C 21.255043 15.550781 21.449219 15.744957 21.449219 16 L 21.449219 18 C 21.449219 18.255043 21.255043 18.449219 21 18.449219 L 16.849609 18.449219 L 19.023438 15.550781 z " />
</svg>
