<?xml version="1.0" encoding="UTF-8" standalone="no"?>
<svg
   width="24"
   height="24"
   viewBox="0 0 24 24"
   fill="none"
   stroke="currentColor"
   stroke-width="1.1"
   stroke-linecap="round"
   stroke-linejoin="round"
   version="1.1"
   id="svg6"
   sodipodi:docname=".tmp_server-off.svg"
   xmlns:inkscape="http://www.inkscape.org/namespaces/inkscape"
   xmlns:sodipodi="http://sodipodi.sourceforge.net/DTD/sodipodi-0.dtd"
   xmlns="http://www.w3.org/2000/svg"
   xmlns:svg="http://www.w3.org/2000/svg">
  <defs
     id="defs6" />
  <sodipodi:namedview
     id="namedview6"
     pagecolor="#ffffff"
     bordercolor="#000000"
     borderopacity="0.25"
     inkscape:showpageshadow="2"
     inkscape:pageopacity="0.0"
     inkscape:pagecheckerboard="0"
     inkscape:deskcolor="#d1d1d1" />
  <path
     id="path1"
     style="baseline-shift:baseline;display:inline;overflow:visible;vector-effect:none;fill:#000000;stroke:none;stroke-linecap:butt;stroke-linejoin:miter;enable-background:accumulate;stop-color:#000000;stop-opacity:1;opacity:1"
     d="M 2 1.4492188 A 0.55000001 0.55000001 0 0 0 1.6113281 1.6113281 A 0.55000001 0.55000001 0 0 0 1.5644531 2.3339844 C 1.5441681 2.4012362 1.530911 2.4668779 1.5195312 2.5351562 C 1.4374811 3.0274572 1.4492188 3.75 1.4492188 5 L 1.4492188 8 C 1.4492188 9.4018116 2.5981884 10.550781 4 10.550781 L 9.7734375 10.550781 L 12.671875 13.449219 L 4 13.449219 C 2.5981884 13.449219 1.4492187 14.598188 1.4492188 16 L 1.4492188 20 C 1.4492188 21.401812 2.5981884 22.550781 4 22.550781 L 20.5 22.550781 A 0.55005501 0.55005501 0 0 0 20.746094 22.492188 L 21.390625 22.169922 L 21.611328 22.388672 A 0.55000001 0.55000001 0 0 0 22.388672 22.388672 A 0.55000001 0.55000001 0 0 0 22.388672 21.611328 L 21.888672 21.111328 L 14.388672 13.611328 L 10.388672 9.6113281 L 2.8886719 2.1113281 L 2.3886719 1.6113281 A 0.55000001 0.55000001 0 0 0 2 1.4492188 z M 7 1.4492188 A 0.55000001 0.55000001 0 0 0 6.4492188 2 A 0.55000001 0.55000001 0 0 0 7 2.5507812 L 20 2.5507812 C 20.807327 2.5507812 21.449219 3.1926726 21.449219 4 L 21.449219 8 C 21.449219 8.8073274 20.807327 9.4492188 20 9.4492188 L 15 9.4492188 A 0.55000001 0.55000001 0 0 0 14.449219 10 A 0.55000001 0.55000001 0 0 0 15 10.550781 L 20 10.550781 C 21.401812 10.550781 22.550781 9.4018116 22.550781 8 L 22.550781 4 C 22.550781 2.5981884 21.401812 1.4492188 20 1.4492188 L 7 1.4492188 z M 2.5898438 3.3671875 L 8.671875 9.4492188 L 4 9.4492188 C 3.1926726 9.4492188 2.5507812 8.8073274 2.5507812 8 L 2.5507812 5 C 2.5507812 4.1068378 2.5706583 3.7604414 2.5898438 3.3671875 z M 19 13.449219 A 0.55000001 0.55000001 0 0 0 18.449219 14 A 0.55000001 0.55000001 0 0 0 19 14.550781 L 20 14.550781 C 20.807327 14.550781 21.449219 15.192673 21.449219 16 L 21.449219 17 A 0.55000001 0.55000001 0 0 0 22 17.550781 A 0.55000001 0.55000001 0 0 0 22.550781 17 L 22.550781 16 C 22.550781 14.598188 21.401812 13.449219 20 13.449219 L 19 13.449219 z M 4 14.550781 L 13.771484 14.550781 L 20.572266 21.349609 L 20.371094 21.449219 L 4 21.449219 C 3.1926726 21.449219 2.5507813 20.807327 2.5507812 20 L 2.5507812 16 C 2.5507812 15.192673 3.1926726 14.550781 4 14.550781 z M 6 17.449219 A 0.55000001 0.55000001 0 0 0 5.4492188 18 A 0.55000001 0.55000001 0 0 0 6 18.550781 L 6.0097656 18.550781 A 0.55000001 0.55000001 0 0 0 6.5605469 18 A 0.55000001 0.55000001 0 0 0 6.0097656 17.449219 L 6 17.449219 z " />
</svg>
