<?xml version="1.0" encoding="UTF-8" standalone="no"?>
<svg
   width="24"
   height="24"
   viewBox="0 0 24 24"
   fill="none"
   stroke="currentColor"
   stroke-width="1.1"
   stroke-linecap="round"
   stroke-linejoin="round"
   version="1.1"
   id="svg1"
   sodipodi:docname=".tmp_settings.svg"
   xmlns:inkscape="http://www.inkscape.org/namespaces/inkscape"
   xmlns:sodipodi="http://sodipodi.sourceforge.net/DTD/sodipodi-0.dtd"
   xmlns="http://www.w3.org/2000/svg"
   xmlns:svg="http://www.w3.org/2000/svg">
  <defs
     id="defs1" />
  <sodipodi:namedview
     id="namedview1"
     pagecolor="#ffffff"
     bordercolor="#000000"
     borderopacity="0.25"
     inkscape:showpageshadow="2"
     inkscape:pageopacity="0.0"
     inkscape:pagecheckerboard="0"
     inkscape:deskcolor="#d1d1d1" />
  <path
     id="path1"
     style="baseline-shift:baseline;display:inline;overflow:visible;vector-effect:none;fill:#000000;stroke:none;stroke-linecap:butt;stroke-linejoin:miter;enable-background:accumulate;stop-color:#000000;stop-opacity:1;opacity:1"
     d="M 12 1.4667969 C 10.666469 1.4667969 9.2823869 2.4076612 9.1230469 4.0839844 A 0.55000001 0.55000001 0 0 0 9.1210938 4.0878906 C 9.010203 5.3416959 7.7230114 6.0842395 6.5820312 5.5527344 A 0.55005501 0.55005501 0 0 0 6.5761719 5.5507812 C 5.0476717 4.8591731 3.5479897 5.5864308 2.8828125 6.7382812 C 2.2176353 7.8901318 2.3381727 9.5530549 3.7011719 10.53125 A 0.55005501 0.55005501 0 0 0 3.7050781 10.535156 C 4.7350299 11.257841 4.7350299 12.742159 3.7050781 13.464844 A 0.55005501 0.55005501 0 0 0 3.7011719 13.46875 C 2.3359275 14.446689 2.2150061 16.111146 2.8808594 17.263672 C 3.5467127 18.416198 5.0489821 19.143465 6.578125 18.449219 A 0.55005501 0.55005501 0 0 0 6.5839844 18.447266 C 7.7251924 17.915025 9.0123546 18.657764 9.1230469 19.912109 A 0.55005501 0.55005501 0 0 0 9.1230469 19.916016 C 9.2823863 21.592405 10.666469 22.53125 12 22.53125 C 13.333531 22.53125 14.717613 21.592339 14.876953 19.916016 A 0.55005501 0.55005501 0 0 0 14.876953 19.912109 C 14.987841 18.6583 16.275036 17.91576 17.416016 18.447266 A 0.55005501 0.55005501 0 0 0 17.421875 18.449219 C 18.951018 19.143465 20.453287 18.416199 21.119141 17.263672 C 21.784994 16.111146 21.664072 14.446689 20.298828 13.46875 A 0.55005501 0.55005501 0 0 0 20.294922 13.464844 C 19.26497 12.742159 19.26497 11.257841 20.294922 10.535156 A 0.55005501 0.55005501 0 0 0 20.298828 10.53125 C 21.664031 9.5532454 21.784994 7.8888544 21.119141 6.7363281 C 20.453287 5.5838018 18.951018 4.8565348 17.421875 5.5507812 A 0.55005501 0.55005501 0 0 0 17.416016 5.5527344 C 16.275077 6.0842427 14.987841 5.3416997 14.876953 4.0878906 A 0.55005501 0.55005501 0 0 0 14.876953 4.0839844 C 14.717613 2.407665 13.333531 1.4667969 12 1.4667969 z M 12 2.5683594 C 12.860356 2.5683594 13.670046 3.0391012 13.78125 4.1835938 C 13.956297 6.1628565 16.079709 7.387862 17.880859 6.5488281 L 17.876953 6.5527344 C 18.923888 6.0774152 19.735897 6.5426164 20.166016 7.2871094 C 20.596134 8.0316022 20.592924 8.9671685 19.658203 9.6367188 C 18.040072 10.777973 18.040072 13.220074 19.658203 14.361328 C 20.592924 15.030878 20.596134 15.968398 20.166016 16.712891 C 19.736458 17.456411 18.925816 17.921468 17.880859 17.449219 L 17.876953 17.447266 C 16.076662 16.61191 13.956167 17.836657 13.78125 19.814453 C 13.670049 20.958951 12.860358 21.431641 12 21.431641 C 11.139278 21.431641 10.329405 20.960006 10.21875 19.814453 L 10.21875 19.810547 C 10.04156 17.832751 7.9194112 16.609603 6.1191406 17.449219 C 5.0741805 17.921515 4.2635418 17.456411 3.8339844 16.712891 C 3.4047703 15.969963 3.4070899 15.034499 4.3359375 14.365234 L 4.3417969 14.361328 C 5.9599283 13.220074 5.9599283 10.777973 4.3417969 9.6367188 L 4.3359375 9.6328125 C 3.408841 8.9635399 3.4072148 8.0295046 3.8359375 7.2871094 C 4.2655637 6.5431496 5.0768008 6.0793366 6.1230469 6.5527344 L 6.1171875 6.5488281 C 7.9109975 7.3844424 10.018875 6.1701283 10.208984 4.2050781 A 0.55000001 0.55000001 0 0 0 10.21875 4.1875 C 10.327913 3.0390593 11.138282 2.5683594 12 2.5683594 z M 12 8.4492188 C 10.045904 8.4492188 8.4492187 10.045904 8.4492188 12 C 8.4492188 13.954096 10.045904 15.550781 12 15.550781 C 13.954096 15.550781 15.550781 13.954096 15.550781 12 C 15.550781 10.045904 13.954096 8.4492187 12 8.4492188 z M 12 9.5507812 C 13.359612 9.5507812 14.449219 10.640388 14.449219 12 C 14.449219 13.359612 13.359612 14.449219 12 14.449219 C 10.640388 14.449219 9.5507812 13.359612 9.5507812 12 C 9.5507812 10.640388 10.640388 9.5507812 12 9.5507812 z " />
</svg>
