<?xml version="1.0" encoding="UTF-8" standalone="no"?>
<svg
   width="24"
   height="24"
   viewBox="0 0 24 24"
   fill="none"
   stroke="currentColor"
   stroke-width="1.1"
   stroke-linecap="round"
   stroke-linejoin="round"
   version="1.1"
   id="svg3"
   sodipodi:docname=".tmp_spell-check-2.svg"
   xmlns:inkscape="http://www.inkscape.org/namespaces/inkscape"
   xmlns:sodipodi="http://sodipodi.sourceforge.net/DTD/sodipodi-0.dtd"
   xmlns="http://www.w3.org/2000/svg"
   xmlns:svg="http://www.w3.org/2000/svg">
  <defs
     id="defs3" />
  <sodipodi:namedview
     id="namedview3"
     pagecolor="#ffffff"
     bordercolor="#000000"
     borderopacity="0.25"
     inkscape:showpageshadow="2"
     inkscape:pageopacity="0.0"
     inkscape:pagecheckerboard="0"
     inkscape:deskcolor="#d1d1d1" />
  <path
     id="path1"
     style="baseline-shift:baseline;display:inline;overflow:visible;vector-effect:none;fill:#000000;stroke:none;stroke-linecap:butt;stroke-linejoin:miter;enable-background:accumulate;stop-color:#000000;stop-opacity:1;opacity:1"
     d="M 12 3.4492188 A 0.55005501 0.55005501 0 0 0 11.507812 3.7539062 L 7.5078125 11.753906 A 0.55000001 0.55000001 0 0 0 7.4921875 11.785156 L 5.5078125 15.753906 A 0.55000001 0.55000001 0 0 0 5.7539062 16.492188 A 0.55000001 0.55000001 0 0 0 6.4921875 16.246094 L 8.3398438 12.550781 L 15.660156 12.550781 L 17.507812 16.246094 A 0.55000001 0.55000001 0 0 0 18.246094 16.492188 A 0.55000001 0.55000001 0 0 0 18.492188 15.753906 L 16.505859 11.779297 A 0.55000001 0.55000001 0 0 0 16.478516 11.728516 L 12.492188 3.7539062 A 0.55005501 0.55005501 0 0 0 12 3.4492188 z M 12 5.2304688 L 15.109375 11.449219 L 8.890625 11.449219 L 12 5.2304688 z M 6.3007812 19.449219 C 5.5480035 19.449219 5.0454098 19.830759 4.7519531 20.085938 C 4.4584964 20.341118 4.3833333 20.449219 4 20.449219 A 0.55000001 0.55000001 0 0 0 3.4492188 21 A 0.55000001 0.55000001 0 0 0 4 21.550781 C 4.7166667 21.550781 5.191113 21.158883 5.4726562 20.914062 C 5.7541997 20.669242 5.8535591 20.550781 6.3007812 20.550781 C 6.7480035 20.550781 6.8050781 20.65625 7.0800781 20.90625 C 7.3550781 21.15625 7.8468316 21.550781 8.5996094 21.550781 C 9.316276 21.550781 9.7926752 21.158883 10.074219 20.914062 C 10.355762 20.669242 10.453168 20.550781 10.900391 20.550781 C 11.283724 20.550781 11.358887 20.658883 11.652344 20.914062 C 11.9458 21.169242 12.446441 21.550781 13.199219 21.550781 C 13.915885 21.550781 14.392285 21.158883 14.673828 20.914062 C 14.955371 20.669242 15.052778 20.550781 15.5 20.550781 C 15.883333 20.550781 15.958496 20.658883 16.251953 20.914062 C 16.54541 21.169242 17.048003 21.550781 17.800781 21.550781 C 18.517448 21.550781 18.991895 21.158883 19.273438 20.914062 C 19.554982 20.669242 19.652387 20.550781 20.099609 20.550781 A 0.55000001 0.55000001 0 0 0 20.650391 20 A 0.55000001 0.55000001 0 0 0 20.099609 19.449219 C 19.346832 19.449219 18.844238 19.830759 18.550781 20.085938 C 18.257325 20.341117 18.184115 20.449219 17.800781 20.449219 C 17.353559 20.449219 17.2542 20.330759 16.972656 20.085938 C 16.691113 19.841117 16.216667 19.449219 15.5 19.449219 C 14.747222 19.449219 14.244629 19.830759 13.951172 20.085938 C 13.657715 20.341117 13.582552 20.449219 13.199219 20.449219 C 12.751997 20.449219 12.65459 20.330759 12.373047 20.085938 C 12.091504 19.841117 11.617057 19.449219 10.900391 19.449219 C 10.147613 19.449219 9.6450192 19.830759 9.3515625 20.085938 C 9.0581058 20.341117 8.9829427 20.449219 8.5996094 20.449219 C 8.1523872 20.449219 8.0953125 20.34375 7.8203125 20.09375 C 7.5453125 19.84375 7.0535591 19.449219 6.3007812 19.449219 z " />
</svg>
