<?xml version="1.0" encoding="UTF-8" standalone="no"?>
<svg
   width="24"
   height="24"
   viewBox="0 0 24 24"
   fill="none"
   stroke="currentColor"
   stroke-width="1.1"
   stroke-linecap="round"
   stroke-linejoin="round"
   version="1.1"
   id="svg2"
   sodipodi:docname=".tmp_square-pause.svg"
   xmlns:inkscape="http://www.inkscape.org/namespaces/inkscape"
   xmlns:sodipodi="http://sodipodi.sourceforge.net/DTD/sodipodi-0.dtd"
   xmlns="http://www.w3.org/2000/svg"
   xmlns:svg="http://www.w3.org/2000/svg">
  <defs
     id="defs2" />
  <sodipodi:namedview
     id="namedview2"
     pagecolor="#ffffff"
     bordercolor="#000000"
     borderopacity="0.25"
     inkscape:showpageshadow="2"
     inkscape:pageopacity="0.0"
     inkscape:pagecheckerboard="0"
     inkscape:deskcolor="#d1d1d1" />
  <path
     id="rect1"
     style="baseline-shift:baseline;display:inline;overflow:visible;vector-effect:none;fill:#000000;stroke:none;stroke-linecap:butt;stroke-linejoin:miter;enable-background:accumulate;stop-color:#000000;stop-opacity:1;opacity:1"
     d="M 5 2.4492188 C 3.5968135 2.4492188 2.4492187 3.5968135 2.4492188 5 L 2.4492188 19 C 2.4492188 20.403187 3.5968135 21.550781 5 21.550781 L 19 21.550781 C 20.403187 21.550781 21.550781 20.403187 21.550781 19 L 21.550781 5 C 21.550781 3.5968135 20.403187 2.4492188 19 2.4492188 L 5 2.4492188 z M 5 3.5507812 L 19 3.5507812 C 19.812813 3.5507812 20.449219 4.1871865 20.449219 5 L 20.449219 19 C 20.449219 19.812813 19.812813 20.449219 19 20.449219 L 5 20.449219 C 4.1871865 20.449219 3.5507812 19.812813 3.5507812 19 L 3.5507812 5 C 3.5507812 4.1871865 4.1871865 3.5507813 5 3.5507812 z M 10 8.4492188 A 0.55000001 0.55000001 0 0 0 9.4492188 9 L 9.4492188 15 A 0.55000001 0.55000001 0 0 0 10 15.550781 A 0.55000001 0.55000001 0 0 0 10.550781 15 L 10.550781 9 A 0.55000001 0.55000001 0 0 0 10 8.4492188 z M 14 8.4492188 A 0.55000001 0.55000001 0 0 0 13.449219 9 L 13.449219 15 A 0.55000001 0.55000001 0 0 0 14 15.550781 A 0.55000001 0.55000001 0 0 0 14.550781 15 L 14.550781 9 A 0.55000001 0.55000001 0 0 0 14 8.4492188 z " />
</svg>
