<?xml version="1.0" encoding="UTF-8" standalone="no"?>
<svg
   width="24"
   height="24"
   viewBox="0 0 24 24"
   fill="none"
   stroke="currentColor"
   stroke-width="1.1"
   stroke-linecap="round"
   stroke-linejoin="round"
   version="1.1"
   id="svg2"
   sodipodi:docname=".tmp_square-round-corner.svg"
   xmlns:inkscape="http://www.inkscape.org/namespaces/inkscape"
   xmlns:sodipodi="http://sodipodi.sourceforge.net/DTD/sodipodi-0.dtd"
   xmlns="http://www.w3.org/2000/svg"
   xmlns:svg="http://www.w3.org/2000/svg">
  <defs
     id="defs2" />
  <sodipodi:namedview
     id="namedview2"
     pagecolor="#ffffff"
     bordercolor="#000000"
     borderopacity="0.25"
     inkscape:showpageshadow="2"
     inkscape:pageopacity="0.0"
     inkscape:pagecheckerboard="0"
     inkscape:deskcolor="#d1d1d1" />
  <path
     id="path1"
     style="baseline-shift:baseline;display:inline;overflow:visible;vector-effect:none;fill:#000000;stroke:none;stroke-linecap:butt;stroke-linejoin:miter;enable-background:accumulate;stop-color:#000000;stop-opacity:1;opacity:1"
     d="M 5 2.4492188 C 3.5981884 2.4492188 2.4492188 3.5981884 2.4492188 5 L 2.4492188 19 C 2.4492188 20.401812 3.5981884 21.550781 5 21.550781 L 19 21.550781 C 20.401812 21.550781 21.550781 20.401812 21.550781 19 L 21.550781 15 A 0.55000001 0.55000001 0 0 0 21 14.449219 A 0.55000001 0.55000001 0 0 0 20.449219 15 L 20.449219 19 C 20.449219 19.807327 19.807327 20.449219 19 20.449219 L 5 20.449219 C 4.1926726 20.449219 3.5507813 19.807327 3.5507812 19 L 3.5507812 5 C 3.5507812 4.1926726 4.1926726 3.5507813 5 3.5507812 L 9 3.5507812 A 0.55000001 0.55000001 0 0 0 9.5507812 3 A 0.55000001 0.55000001 0 0 0 9 2.4492188 L 5 2.4492188 z M 13 2.4492188 A 0.55000001 0.55000001 0 0 0 12.449219 3 A 0.55000001 0.55000001 0 0 0 13 3.5507812 C 17.121036 3.5507812 20.449219 6.8789641 20.449219 11 A 0.55000001 0.55000001 0 0 0 21 11.550781 A 0.55000001 0.55000001 0 0 0 21.550781 11 C 21.550781 6.2844799 17.71552 2.4492186 13 2.4492188 z " />
</svg>
