<?xml version="1.0" encoding="UTF-8" standalone="no"?>
<svg
   width="24"
   height="24"
   viewBox="0 0 24 24"
   fill="none"
   stroke="currentColor"
   stroke-width="1.1"
   stroke-linecap="round"
   stroke-linejoin="round"
   version="1.1"
   id="svg2"
   sodipodi:docname=".tmp_sticky-note.svg"
   xmlns:inkscape="http://www.inkscape.org/namespaces/inkscape"
   xmlns:sodipodi="http://sodipodi.sourceforge.net/DTD/sodipodi-0.dtd"
   xmlns="http://www.w3.org/2000/svg"
   xmlns:svg="http://www.w3.org/2000/svg">
  <defs
     id="defs2" />
  <sodipodi:namedview
     id="namedview2"
     pagecolor="#ffffff"
     bordercolor="#000000"
     borderopacity="0.25"
     inkscape:showpageshadow="2"
     inkscape:pageopacity="0.0"
     inkscape:pagecheckerboard="0"
     inkscape:deskcolor="#d1d1d1" />
  <path
     id="path1"
     style="baseline-shift:baseline;display:inline;overflow:visible;vector-effect:none;fill:#000000;stroke:none;stroke-linecap:butt;stroke-linejoin:miter;enable-background:accumulate;stop-color:#000000;stop-opacity:1;opacity:1"
     d="M 5 2.4492188 C 3.5981884 2.4492188 2.4492188 3.5981884 2.4492188 5 L 2.4492188 19 C 2.4492188 20.401812 3.5981884 21.550781 5 21.550781 L 19 21.550781 C 20.401812 21.550781 21.550781 20.401812 21.550781 19 L 21.550781 9.0019531 A 0.55000001 0.55000001 0 0 0 21.550781 9 A 0.55000001 0.55000001 0 0 0 21.550781 8.9980469 L 21.550781 8 A 0.55005501 0.55005501 0 0 0 21.388672 7.6113281 L 16.388672 2.6113281 A 0.55005501 0.55005501 0 0 0 16 2.4492188 L 15.001953 2.4492188 L 14.998047 2.4492188 L 5 2.4492188 z M 5 3.5507812 L 14.449219 3.5507812 L 14.449219 7 C 14.449219 8.4018116 15.598188 9.5507811 17 9.5507812 L 20.449219 9.5507812 L 20.449219 19 C 20.449219 19.807327 19.807327 20.449219 19 20.449219 L 5 20.449219 C 4.1926726 20.449219 3.5507813 19.807327 3.5507812 19 L 3.5507812 5 C 3.5507812 4.1926726 4.1926726 3.5507813 5 3.5507812 z M 15.550781 3.5507812 L 15.773438 3.5507812 L 20.449219 8.2285156 L 20.449219 8.4492188 L 17 8.4492188 C 16.192673 8.4492188 15.550781 7.8073274 15.550781 7 L 15.550781 3.5507812 z " />
</svg>
