<?xml version="1.0" encoding="UTF-8" standalone="no"?>
<svg
   width="24"
   height="24"
   viewBox="0 0 24 24"
   fill="none"
   stroke="currentColor"
   stroke-width="1.1"
   stroke-linecap="round"
   stroke-linejoin="round"
   version="1.1"
   id="svg11"
   sodipodi:docname=".tmp_sun-snow.svg"
   xmlns:inkscape="http://www.inkscape.org/namespaces/inkscape"
   xmlns:sodipodi="http://sodipodi.sourceforge.net/DTD/sodipodi-0.dtd"
   xmlns="http://www.w3.org/2000/svg"
   xmlns:svg="http://www.w3.org/2000/svg">
  <defs
     id="defs11" />
  <sodipodi:namedview
     id="namedview11"
     pagecolor="#ffffff"
     bordercolor="#000000"
     borderopacity="0.25"
     inkscape:showpageshadow="2"
     inkscape:pageopacity="0.0"
     inkscape:pagecheckerboard="0"
     inkscape:deskcolor="#d1d1d1" />
  <path
     id="path1"
     style="baseline-shift:baseline;display:inline;overflow:visible;vector-effect:none;fill:#000000;stroke:none;stroke-linecap:butt;stroke-linejoin:miter;enable-background:accumulate;stop-color:#000000;stop-opacity:1;opacity:1"
     d="M 10 2.4492188 A 0.55000001 0.55000001 0 0 0 9.4492188 3 L 9.4492188 4 A 0.55000001 0.55000001 0 0 0 10 4.5507812 A 0.55000001 0.55000001 0 0 0 10.550781 4 L 10.550781 3 A 0.55000001 0.55000001 0 0 0 10 2.4492188 z M 16.966797 2.4511719 A 0.55000001 0.55000001 0 0 0 16.507812 2.7539062 L 15.25 5.2695312 L 14.492188 3.7539062 A 0.55000001 0.55000001 0 0 0 13.753906 3.5078125 A 0.55000001 0.55000001 0 0 0 13.507812 4.2460938 L 14.634766 6.5 L 13.507812 8.7539062 A 0.55005501 0.55005501 0 0 0 13.507812 9.2460938 L 14.884766 12 L 13.507812 14.753906 A 0.55005501 0.55005501 0 0 0 13.507812 15.246094 L 14.634766 17.5 L 13.507812 19.753906 A 0.55000001 0.55000001 0 0 0 13.753906 20.492188 A 0.55000001 0.55000001 0 0 0 14.492188 20.246094 L 15.25 18.730469 L 16.507812 21.246094 A 0.55000001 0.55000001 0 0 0 17.246094 21.492188 A 0.55000001 0.55000001 0 0 0 17.492188 20.753906 L 16.234375 18.238281 L 17.902344 18.541016 A 0.55000001 0.55000001 0 0 0 18.541016 18.097656 A 0.55000001 0.55000001 0 0 0 18.097656 17.458984 L 15.619141 17.007812 L 14.615234 15 L 15.839844 12.550781 L 18.226562 12.550781 L 19.560547 14.330078 A 0.55000001 0.55000001 0 0 0 20.330078 14.439453 A 0.55000001 0.55000001 0 0 0 20.439453 13.669922 L 19.599609 12.550781 L 22 12.550781 A 0.55000001 0.55000001 0 0 0 22.550781 12 A 0.55000001 0.55000001 0 0 0 22 11.449219 L 19.599609 11.449219 L 20.439453 10.330078 A 0.55000001 0.55000001 0 0 0 20.330078 9.5605469 A 0.55000001 0.55000001 0 0 0 19.560547 9.6699219 L 18.226562 11.449219 L 15.839844 11.449219 L 14.615234 9 L 15.619141 6.9921875 L 18.097656 6.5410156 A 0.55000001 0.55000001 0 0 0 18.541016 5.9023438 A 0.55000001 0.55000001 0 0 0 17.902344 5.4589844 L 16.234375 5.7617188 L 17.492188 3.2460938 A 0.55000001 0.55000001 0 0 0 17.246094 2.5078125 A 0.55000001 0.55000001 0 0 0 16.966797 2.4511719 z M 3.640625 5.0917969 A 0.55000001 0.55000001 0 0 0 3.2519531 5.2519531 A 0.55000001 0.55000001 0 0 0 3.2519531 6.0292969 L 3.9511719 6.7285156 A 0.55000001 0.55000001 0 0 0 4.7285156 6.7285156 A 0.55000001 0.55000001 0 0 0 4.7285156 5.9511719 L 4.0292969 5.2519531 A 0.55000001 0.55000001 0 0 0 3.640625 5.0917969 z M 10 8.4492188 C 8.8625004 8.4492188 7.9406436 8.8963656 7.3398438 9.5722656 C 6.7390441 10.248166 6.4492187 11.127778 6.4492188 12 C 6.4492188 12.872222 6.7390441 13.751834 7.3398438 14.427734 C 7.9406435 15.103634 8.8625004 15.550781 10 15.550781 A 0.55000001 0.55000001 0 0 0 10.550781 15 A 0.55000001 0.55000001 0 0 0 10 14.449219 C 9.1375005 14.449219 8.559356 14.146366 8.1601562 13.697266 C 7.7609564 13.248166 7.5507813 12.627778 7.5507812 12 C 7.5507812 11.372222 7.7609564 10.751834 8.1601562 10.302734 C 8.5593559 9.8536348 9.1375005 9.5507812 10 9.5507812 A 0.55000001 0.55000001 0 0 0 10.550781 9 A 0.55000001 0.55000001 0 0 0 10 8.4492188 z M 2 11.449219 A 0.55000001 0.55000001 0 0 0 1.4492188 12 A 0.55000001 0.55000001 0 0 0 2 12.550781 L 3 12.550781 A 0.55000001 0.55000001 0 0 0 3.5507812 12 A 0.55000001 0.55000001 0 0 0 3 11.449219 L 2 11.449219 z M 4.3398438 17.109375 A 0.55000001 0.55000001 0 0 0 3.9511719 17.271484 L 3.2519531 17.970703 A 0.55000001 0.55000001 0 0 0 3.2519531 18.748047 A 0.55000001 0.55000001 0 0 0 4.0292969 18.748047 L 4.7285156 18.048828 A 0.55000001 0.55000001 0 0 0 4.7285156 17.271484 A 0.55000001 0.55000001 0 0 0 4.3398438 17.109375 z M 10 19.449219 A 0.55000001 0.55000001 0 0 0 9.4492188 20 L 9.4492188 21 A 0.55000001 0.55000001 0 0 0 10 21.550781 A 0.55000001 0.55000001 0 0 0 10.550781 21 L 10.550781 20 A 0.55000001 0.55000001 0 0 0 10 19.449219 z " />
</svg>
