<?xml version="1.0" encoding="UTF-8" standalone="no"?>
<svg
   width="24"
   height="24"
   viewBox="0 0 24 24"
   fill="none"
   stroke="currentColor"
   stroke-width="1.1"
   stroke-linecap="round"
   stroke-linejoin="round"
   version="1.1"
   id="svg4"
   sodipodi:docname=".tmp_swatch-book.svg"
   xmlns:inkscape="http://www.inkscape.org/namespaces/inkscape"
   xmlns:sodipodi="http://sodipodi.sourceforge.net/DTD/sodipodi-0.dtd"
   xmlns="http://www.w3.org/2000/svg"
   xmlns:svg="http://www.w3.org/2000/svg">
  <defs
     id="defs4" />
  <sodipodi:namedview
     id="namedview4"
     pagecolor="#ffffff"
     bordercolor="#000000"
     borderopacity="0.25"
     inkscape:showpageshadow="2"
     inkscape:pageopacity="0.0"
     inkscape:pagecheckerboard="0"
     inkscape:deskcolor="#d1d1d1" />
  <path
     id="path1"
     style="baseline-shift:baseline;display:inline;overflow:visible;vector-effect:none;fill:#000000;stroke:none;stroke-linecap:butt;stroke-linejoin:miter;enable-background:accumulate;stop-color:#000000;stop-opacity:1;opacity:1"
     d="M 5 2.4492188 C 3.5981884 2.4492188 2.4492188 3.5981884 2.4492188 5 L 2.4492188 17 C 2.4492188 18.470833 3.0213656 19.64269 3.8847656 20.410156 C 4.7477158 21.177223 5.8783549 21.550393 7 21.550781 L 19 21.550781 C 20.401812 21.550781 21.550781 20.401812 21.550781 19 L 21.550781 15 C 21.550781 13.598188 20.401812 12.449219 19 12.449219 L 17.992188 12.449219 L 19.013672 11.423828 L 19.015625 11.421875 C 20.185081 10.26024 20.168691 8.3460601 18.980469 7.203125 L 17.09375 5.3164062 C 16.520056 4.7379969 15.762741 4.4481573 15.003906 4.4472656 C 14.245072 4.4463739 13.485208 4.7354404 12.910156 5.3125 L 11.550781 6.671875 L 11.550781 5 C 11.550781 3.5981884 10.401812 2.4492188 9 2.4492188 L 5 2.4492188 z M 5 3.5507812 L 9 3.5507812 C 9.8073274 3.5507812 10.449219 4.1926726 10.449219 5 L 10.449219 17 C 10.449219 17.868684 10.22303 18.543416 9.8554688 19.064453 C 9.8549358 19.065209 9.8540492 19.065651 9.8535156 19.066406 L 9.5097656 19.412109 A 0.55000001 0.55000001 0 0 0 9.3964844 19.580078 C 9.3928917 19.5833 9.3883717 19.586638 9.3847656 19.589844 C 8.7481657 20.15571 7.8777778 20.449219 7 20.449219 L 6.9980469 20.449219 C 6.1207342 20.448913 5.2515026 20.155415 4.6152344 19.589844 C 3.9786344 19.023977 3.5507813 18.195833 3.5507812 17 L 3.5507812 5 C 3.5507812 4.1926726 4.1926726 3.5507813 5 3.5507812 z M 15.001953 5.5410156 C 15.476201 5.5417788 15.950879 5.7252317 16.314453 6.0917969 A 0.55005501 0.55005501 0 0 0 16.314453 6.09375 L 18.210938 7.9882812 A 0.55005501 0.55005501 0 0 0 18.21875 7.9960938 C 18.97254 8.7211571 18.981007 9.9061843 18.238281 10.642578 A 0.55005501 0.55005501 0 0 0 18.236328 10.646484 L 11.539062 17.373047 C 11.547343 17.251077 11.550781 17.126457 11.550781 17 L 11.550781 8.2265625 L 13.689453 6.0898438 A 0.55005501 0.55005501 0 0 0 13.689453 6.0878906 C 14.053889 5.7221828 14.527706 5.5402525 15.001953 5.5410156 z M 16.896484 13.550781 L 19 13.550781 C 19.807327 13.550781 20.449219 14.192673 20.449219 15 L 20.449219 19 C 20.449219 19.807327 19.807327 20.449219 19 20.449219 L 10.070312 20.449219 C 10.085246 20.436313 10.100456 20.423293 10.115234 20.410156 C 10.318382 20.229581 10.504634 20.026711 10.671875 19.802734 C 10.672429 19.801992 10.673274 19.801524 10.673828 19.800781 L 16.896484 13.550781 z M 7 16.449219 A 0.55000001 0.55000001 0 0 0 6.4492188 17 A 0.55000001 0.55000001 0 0 0 7 17.550781 L 7.0097656 17.550781 A 0.55000001 0.55000001 0 0 0 7.5605469 17 A 0.55000001 0.55000001 0 0 0 7.0097656 16.449219 L 7 16.449219 z " />
</svg>
