<?xml version="1.0" encoding="UTF-8" standalone="no"?>
<svg
   width="24"
   height="24"
   viewBox="0 0 24 24"
   fill="none"
   stroke="currentColor"
   stroke-width="1.1"
   stroke-linecap="round"
   stroke-linejoin="round"
   version="1.1"
   id="svg6"
   sodipodi:docname=".tmp_swords.svg"
   xmlns:inkscape="http://www.inkscape.org/namespaces/inkscape"
   xmlns:sodipodi="http://sodipodi.sourceforge.net/DTD/sodipodi-0.dtd"
   xmlns="http://www.w3.org/2000/svg"
   xmlns:svg="http://www.w3.org/2000/svg">
  <defs
     id="defs6" />
  <sodipodi:namedview
     id="namedview6"
     pagecolor="#ffffff"
     bordercolor="#000000"
     borderopacity="0.25"
     inkscape:showpageshadow="2"
     inkscape:pageopacity="0.0"
     inkscape:pagecheckerboard="0"
     inkscape:deskcolor="#d1d1d1" />
  <path
     id="polyline1"
     style="baseline-shift:baseline;display:inline;overflow:visible;vector-effect:none;fill:#000000;stroke:none;stroke-linecap:butt;stroke-linejoin:miter;enable-background:accumulate;stop-color:#000000;stop-opacity:1;opacity:1"
     d="M 3 2.4492188 A 0.55005501 0.55005501 0 0 0 2.4492188 3 L 2.4492188 6 A 0.55005501 0.55005501 0 0 0 2.6113281 6.3886719 L 13.722656 17.5 L 12.611328 18.611328 A 0.55000001 0.55000001 0 0 0 12.611328 19.388672 A 0.55000001 0.55000001 0 0 0 13.388672 19.388672 L 16 16.777344 L 19.222656 20 L 18.611328 20.611328 A 0.55000001 0.55000001 0 0 0 18.611328 21.388672 A 0.55000001 0.55000001 0 0 0 19.388672 21.388672 L 21.388672 19.388672 A 0.55000001 0.55000001 0 0 0 21.388672 18.611328 A 0.55000001 0.55000001 0 0 0 20.611328 18.611328 L 20 19.222656 L 16.777344 16 L 19.388672 13.388672 A 0.55000001 0.55000001 0 0 0 19.388672 12.611328 A 0.55000001 0.55000001 0 0 0 18.611328 12.611328 L 17.5 13.722656 L 6.3886719 2.6113281 A 0.55005501 0.55005501 0 0 0 6 2.4492188 L 3 2.4492188 z M 18 2.4492188 A 0.55005501 0.55005501 0 0 0 17.611328 2.6113281 L 14.111328 6.1113281 A 0.55000001 0.55000001 0 0 0 14.111328 6.8886719 A 0.55000001 0.55000001 0 0 0 14.888672 6.8886719 L 18.228516 3.5507812 L 20.449219 3.5507812 L 20.449219 5.7714844 L 17.111328 9.1113281 A 0.55000001 0.55000001 0 0 0 17.111328 9.8886719 A 0.55000001 0.55000001 0 0 0 17.888672 9.8886719 L 21.388672 6.3886719 A 0.55005501 0.55005501 0 0 0 21.550781 6 L 21.550781 3 A 0.55005501 0.55005501 0 0 0 21 2.4492188 L 18 2.4492188 z M 3.5507812 3.5507812 L 5.7714844 3.5507812 L 16.722656 14.5 L 14.5 16.722656 L 3.5507812 5.7714844 L 3.5507812 3.5507812 z M 5 13.451172 A 0.55000001 0.55000001 0 0 0 4.6113281 13.611328 A 0.55000001 0.55000001 0 0 0 4.6113281 14.388672 L 6.7382812 16.515625 A 0.55000001 0.55000001 0 0 0 6.6113281 16.611328 L 4 19.222656 L 3.3886719 18.611328 A 0.55000001 0.55000001 0 0 0 3 18.449219 A 0.55000001 0.55000001 0 0 0 2.6113281 18.611328 A 0.55000001 0.55000001 0 0 0 2.6113281 19.388672 L 3.6113281 20.388672 L 4.6113281 21.388672 A 0.55000001 0.55000001 0 0 0 5.3886719 21.388672 A 0.55000001 0.55000001 0 0 0 5.3886719 20.611328 L 4.7773438 20 L 7.3886719 17.388672 A 0.55000001 0.55000001 0 0 0 7.484375 17.261719 L 8.6113281 18.388672 A 0.55000001 0.55000001 0 0 0 9.3886719 18.388672 A 0.55000001 0.55000001 0 0 0 9.3886719 17.611328 L 5.3886719 13.611328 A 0.55000001 0.55000001 0 0 0 5 13.451172 z " />
</svg>
