<?xml version="1.0" encoding="UTF-8" standalone="no"?>
<svg
   width="24"
   height="24"
   viewBox="0 0 24 24"
   fill="none"
   stroke="currentColor"
   stroke-width="1.1"
   stroke-linecap="round"
   stroke-linejoin="round"
   version="1.1"
   id="svg6"
   sodipodi:docname=".tmp_tent-tree.svg"
   xmlns:inkscape="http://www.inkscape.org/namespaces/inkscape"
   xmlns:sodipodi="http://sodipodi.sourceforge.net/DTD/sodipodi-0.dtd"
   xmlns="http://www.w3.org/2000/svg"
   xmlns:svg="http://www.w3.org/2000/svg">
  <defs
     id="defs6" />
  <sodipodi:namedview
     id="namedview6"
     pagecolor="#ffffff"
     bordercolor="#000000"
     borderopacity="0.25"
     inkscape:showpageshadow="2"
     inkscape:pageopacity="0.0"
     inkscape:pagecheckerboard="0"
     inkscape:deskcolor="#d1d1d1" />
  <path
     id="circle1"
     style="baseline-shift:baseline;display:inline;overflow:visible;vector-effect:none;fill:#000000;stroke:none;stroke-linecap:butt;stroke-linejoin:miter;enable-background:accumulate;stop-color:#000000;stop-opacity:1;opacity:1"
     d="M 4 1.4492188 C 2.5981884 1.4492188 1.4492188 2.5981884 1.4492188 4 C 1.4492188 5.4018116 2.5981884 6.5507812 4 6.5507812 C 5.4018116 6.5507812 6.5507812 5.4018116 6.5507812 4 C 6.5507812 2.5981884 5.4018116 1.4492188 4 1.4492188 z M 17 1.4492188 A 0.55000001 0.55000001 0 0 0 16.789062 1.4921875 A 0.55005501 0.55005501 0 0 0 16.787109 1.4941406 A 0.55000001 0.55000001 0 0 0 16.583984 1.6386719 L 13.611328 4.6113281 A 0.55000001 0.55000001 0 0 0 13.611328 5.3886719 A 0.55000001 0.55000001 0 0 0 14.388672 5.3886719 L 16.449219 3.328125 L 16.449219 6.7734375 L 13.611328 9.6113281 A 0.55000001 0.55000001 0 0 0 13.611328 10.388672 A 0.55000001 0.55000001 0 0 0 14.388672 10.388672 L 16.449219 8.328125 L 16.449219 13.449219 L 8 13.449219 L 7.9980469 13.449219 L 7 13.449219 A 0.55005501 0.55005501 0 0 0 6.5332031 13.708984 L 1.5332031 21.708984 A 0.55005501 0.55005501 0 0 0 2 22.550781 L 22 22.550781 A 0.55005501 0.55005501 0 0 0 22.466797 21.708984 L 17.550781 13.84375 L 17.550781 8.328125 L 19.611328 10.388672 A 0.55000001 0.55000001 0 0 0 20.388672 10.388672 A 0.55000001 0.55000001 0 0 0 20.388672 9.6113281 L 17.550781 6.7734375 L 17.550781 3.328125 L 19.611328 5.3886719 A 0.55000001 0.55000001 0 0 0 20.388672 5.3886719 A 0.55000001 0.55000001 0 0 0 20.388672 4.6113281 L 17.388672 1.6113281 A 0.55000001 0.55000001 0 0 0 17.210938 1.4921875 A 0.55005501 0.55005501 0 0 0 17.208984 1.4921875 A 0.55005501 0.55005501 0 0 0 17.142578 1.46875 A 0.55000001 0.55000001 0 0 0 17 1.4492188 z M 4 2.5507812 C 4.8073274 2.5507812 5.4492187 3.1926726 5.4492188 4 C 5.4492188 4.8073274 4.8073274 5.4492187 4 5.4492188 C 3.1926726 5.4492188 2.5507813 4.8073274 2.5507812 4 C 2.5507812 3.1926726 3.1926726 2.5507813 4 2.5507812 z M 7.3046875 14.550781 L 7.4492188 14.550781 L 7.4492188 21.449219 L 2.9921875 21.449219 L 7.3046875 14.550781 z M 8.5507812 14.550781 L 8.6953125 14.550781 L 13.007812 21.449219 L 8.5507812 21.449219 L 8.5507812 14.550781 z M 9.9921875 14.550781 L 16.695312 14.550781 L 21.007812 21.449219 L 14.304688 21.449219 L 9.9921875 14.550781 z " />
</svg>
