<?xml version="1.0" encoding="UTF-8" standalone="no"?>
<svg
   width="24"
   height="24"
   viewBox="0 0 24 24"
   fill="none"
   stroke="currentColor"
   stroke-width="1.1"
   stroke-linecap="round"
   stroke-linejoin="round"
   version="1.1"
   id="svg4"
   sodipodi:docname=".tmp_text-wrap.svg"
   xmlns:inkscape="http://www.inkscape.org/namespaces/inkscape"
   xmlns:sodipodi="http://sodipodi.sourceforge.net/DTD/sodipodi-0.dtd"
   xmlns="http://www.w3.org/2000/svg"
   xmlns:svg="http://www.w3.org/2000/svg">
  <defs
     id="defs4" />
  <sodipodi:namedview
     id="namedview4"
     pagecolor="#ffffff"
     bordercolor="#000000"
     borderopacity="0.25"
     inkscape:showpageshadow="2"
     inkscape:pageopacity="0.0"
     inkscape:pagecheckerboard="0"
     inkscape:deskcolor="#d1d1d1" />
  <path
     id="path1"
     style="baseline-shift:baseline;display:inline;overflow:visible;vector-effect:none;fill:#000000;stroke:none;stroke-linecap:butt;stroke-linejoin:miter;enable-background:accumulate;stop-color:#000000;stop-opacity:1;opacity:1"
     d="M 3 4.4492188 A 0.55000001 0.55000001 0 0 0 2.4492188 5 A 0.55000001 0.55000001 0 0 0 3 5.5507812 L 21 5.5507812 A 0.55000001 0.55000001 0 0 0 21.550781 5 A 0.55000001 0.55000001 0 0 0 21 4.4492188 L 3 4.4492188 z M 3 11.449219 A 0.55000001 0.55000001 0 0 0 2.4492188 12 A 0.55000001 0.55000001 0 0 0 3 12.550781 L 17.5 12.550781 C 18.529166 12.550781 19.232311 12.916134 19.714844 13.458984 C 20.197377 14.001834 20.449219 14.747222 20.449219 15.5 C 20.449219 16.252778 20.197377 16.998166 19.714844 17.541016 C 19.232311 18.083866 18.529166 18.449219 17.5 18.449219 L 14.328125 18.449219 L 16.388672 16.388672 A 0.55000001 0.55000001 0 0 0 16.388672 15.611328 A 0.55000001 0.55000001 0 0 0 15.611328 15.611328 L 12.611328 18.611328 A 0.55000001 0.55000001 0 0 0 12.494141 18.787109 A 0.55005501 0.55005501 0 0 0 12.492188 18.789062 A 0.55005501 0.55005501 0 0 0 12.492188 18.791016 A 0.55000001 0.55000001 0 0 0 12.486328 18.802734 A 0.55005501 0.55005501 0 0 0 12.46875 18.857422 A 0.55000001 0.55000001 0 0 0 12.449219 19 A 0.55000001 0.55000001 0 0 0 12.492188 19.208984 A 0.55005501 0.55005501 0 0 0 12.492188 19.210938 A 0.55005501 0.55005501 0 0 0 12.494141 19.212891 A 0.55000001 0.55000001 0 0 0 12.638672 19.416016 L 15.611328 22.388672 A 0.55000001 0.55000001 0 0 0 16.388672 22.388672 A 0.55000001 0.55000001 0 0 0 16.388672 21.611328 L 14.328125 19.550781 L 17.5 19.550781 C 18.804166 19.550781 19.851023 19.041134 20.535156 18.271484 C 21.219289 17.501834 21.550781 16.497222 21.550781 15.5 C 21.550781 14.502778 21.219289 13.498166 20.535156 12.728516 C 19.851023 11.958866 18.804166 11.449219 17.5 11.449219 L 3 11.449219 z M 3 18.449219 A 0.55000001 0.55000001 0 0 0 2.4492188 19 A 0.55000001 0.55000001 0 0 0 3 19.550781 L 9 19.550781 A 0.55000001 0.55000001 0 0 0 9.5507812 19 A 0.55000001 0.55000001 0 0 0 9 18.449219 L 3 18.449219 z " />
</svg>
