<?xml version="1.0" encoding="UTF-8" standalone="no"?>
<svg
   width="24"
   height="24"
   viewBox="0 0 24 24"
   fill="none"
   stroke="currentColor"
   stroke-width="1.1"
   stroke-linecap="round"
   stroke-linejoin="round"
   version="1.1"
   id="svg1"
   sodipodi:docname=".tmp_tv.svg"
   xmlns:inkscape="http://www.inkscape.org/namespaces/inkscape"
   xmlns:sodipodi="http://sodipodi.sourceforge.net/DTD/sodipodi-0.dtd"
   xmlns="http://www.w3.org/2000/svg"
   xmlns:svg="http://www.w3.org/2000/svg">
  <defs
     id="defs1" />
  <sodipodi:namedview
     id="namedview1"
     pagecolor="#ffffff"
     bordercolor="#000000"
     borderopacity="0.25"
     inkscape:showpageshadow="2"
     inkscape:pageopacity="0.0"
     inkscape:pagecheckerboard="0"
     inkscape:deskcolor="#d1d1d1" />
  <path
     id="path1"
     style="baseline-shift:baseline;display:inline;overflow:visible;vector-effect:none;fill:#000000;stroke:none;stroke-linecap:butt;stroke-linejoin:miter;enable-background:accumulate;stop-color:#000000;stop-opacity:1;opacity:1"
     d="M 7 1.4511719 A 0.55000001 0.55000001 0 0 0 6.6113281 1.6113281 A 0.55000001 0.55000001 0 0 0 6.6113281 2.3886719 L 10.671875 6.4492188 L 4 6.4492188 C 2.5968135 6.4492188 1.4492188 7.5968135 1.4492188 9 L 1.4492188 20 C 1.4492188 21.403187 2.5968135 22.550781 4 22.550781 L 20 22.550781 C 21.403187 22.550781 22.550781 21.403187 22.550781 20 L 22.550781 9 C 22.550781 7.5968135 21.403187 6.4492187 20 6.4492188 L 13.328125 6.4492188 L 17.388672 2.3886719 A 0.55000001 0.55000001 0 0 0 17.388672 1.6113281 A 0.55000001 0.55000001 0 0 0 16.611328 1.6113281 L 12 6.2226562 L 7.3886719 1.6113281 A 0.55000001 0.55000001 0 0 0 7 1.4511719 z M 4 7.5507812 L 20 7.5507812 C 20.812813 7.5507812 21.449219 8.1871865 21.449219 9 L 21.449219 20 C 21.449219 20.812813 20.812813 21.449219 20 21.449219 L 4 21.449219 C 3.1871865 21.449219 2.5507811 20.812813 2.5507812 20 L 2.5507812 9 C 2.5507812 8.1871865 3.1871865 7.5507812 4 7.5507812 z " />
</svg>
