<?xml version="1.0" encoding="UTF-8" standalone="no"?>
<svg
   width="24"
   height="24"
   viewBox="0 0 24 24"
   fill="none"
   stroke="currentColor"
   stroke-width="1.1"
   stroke-linecap="round"
   stroke-linejoin="round"
   version="1.1"
   id="svg5"
   sodipodi:docname=".tmp_volume-off.svg"
   xmlns:inkscape="http://www.inkscape.org/namespaces/inkscape"
   xmlns:sodipodi="http://sodipodi.sourceforge.net/DTD/sodipodi-0.dtd"
   xmlns="http://www.w3.org/2000/svg"
   xmlns:svg="http://www.w3.org/2000/svg">
  <defs
     id="defs5" />
  <sodipodi:namedview
     id="namedview5"
     pagecolor="#ffffff"
     bordercolor="#000000"
     borderopacity="0.25"
     inkscape:showpageshadow="2"
     inkscape:pageopacity="0.0"
     inkscape:pagecheckerboard="0"
     inkscape:deskcolor="#d1d1d1" />
  <path
     id="path1"
     style="baseline-shift:baseline;display:inline;overflow:visible;vector-effect:none;fill:#000000;stroke:none;stroke-linecap:butt;stroke-linejoin:miter;enable-background:accumulate;stop-color:#000000;stop-opacity:1;opacity:1"
     d="M 2 1.4492188 A 0.55000001 0.55000001 0 0 0 1.6113281 1.6113281 A 0.55000001 0.55000001 0 0 0 1.6113281 2.3886719 L 6.2226562 7 L 6.0234375 7.1972656 A 0.55005501 0.55005501 0 0 0 6.0234375 7.1992188 C 5.8631248 7.3604902 5.6453632 7.4498853 5.4179688 7.4492188 A 0.55005501 0.55005501 0 0 0 5.4160156 7.4492188 L 3 7.4492188 C 2.1504732 7.4492219 1.4492188 8.1504732 1.4492188 9 L 1.4492188 15 C 1.4492188 15.849527 2.1504732 16.550781 3 16.550781 L 5.4160156 16.550781 A 0.55005501 0.55005501 0 0 0 5.4179688 16.550781 C 5.6453631 16.550115 5.8631248 16.639511 6.0234375 16.800781 A 0.55005501 0.55005501 0 0 0 6.0234375 16.802734 L 9.40625 20.185547 C 9.7851032 20.565147 10.344636 20.637511 10.775391 20.458984 C 11.206145 20.280457 11.551527 19.833182 11.550781 19.296875 L 11.550781 12.328125 L 21.611328 22.388672 A 0.55000001 0.55000001 0 0 0 22.388672 22.388672 A 0.55000001 0.55000001 0 0 0 22.388672 21.611328 L 11.416016 10.638672 A 0.55000001 0.55000001 0 0 0 11.361328 10.583984 L 2.3886719 1.6113281 A 0.55000001 0.55000001 0 0 0 2 1.4492188 z M 10.271484 3.4238281 C 9.9732355 3.4346505 9.6704113 3.5494007 9.4375 3.7832031 A 0.55000001 0.55000001 0 0 0 9.4394531 4.5625 A 0.55000001 0.55000001 0 0 0 10.216797 4.5605469 C 10.276207 4.5009119 10.311417 4.508979 10.365234 4.53125 C 10.419054 4.553521 10.449319 4.572074 10.449219 4.65625 L 10.449219 5.34375 A 0.55000001 0.55000001 0 0 0 11 5.8925781 A 0.55000001 0.55000001 0 0 0 11.550781 5.34375 L 11.550781 4.6582031 L 11.550781 4.65625 C 11.550634 4.1290545 11.210963 3.6890721 10.787109 3.5136719 C 10.627977 3.447819 10.450434 3.4173347 10.271484 3.4238281 z M 19.363281 5.0859375 A 0.55000001 0.55000001 0 0 0 18.974609 5.2480469 A 0.55000001 0.55000001 0 0 0 18.974609 6.0253906 C 21.433278 8.482662 22.136256 12.190088 20.748047 15.376953 A 0.55000001 0.55000001 0 0 0 21.033203 16.099609 A 0.55000001 0.55000001 0 0 0 21.757812 15.816406 C 23.325285 12.218013 22.528116 8.0206786 19.751953 5.2460938 A 0.55000001 0.55000001 0 0 0 19.363281 5.0859375 z M 7 7.7773438 L 10.449219 11.226562 L 10.449219 19.298828 C 10.449348 19.391418 10.413916 19.416374 10.353516 19.441406 C 10.293116 19.466436 10.250952 19.473733 10.185547 19.408203 L 6.8027344 16.025391 C 6.4359082 15.656371 5.9362881 15.448194 5.4160156 15.449219 L 3 15.449219 C 2.7449573 15.449219 2.5507812 15.255043 2.5507812 15 L 2.5507812 9 C 2.5507812 8.7449573 2.7449573 8.5507812 3 8.5507812 L 5.4160156 8.5507812 C 5.9362881 8.5518059 6.4359082 8.3436292 6.8027344 7.9746094 L 7 7.7773438 z M 16.005859 8.4492188 A 0.55000001 0.55000001 0 0 0 15.669922 8.5605469 A 0.55000001 0.55000001 0 0 0 15.560547 9.3300781 C 16.009438 9.9284777 16.300417 10.630564 16.40625 11.371094 A 0.55000001 0.55000001 0 0 0 17.027344 11.837891 A 0.55000001 0.55000001 0 0 0 17.494141 11.214844 C 17.362153 10.291312 16.999275 9.4161997 16.439453 8.6699219 A 0.55000001 0.55000001 0 0 0 16.078125 8.4550781 A 0.55000001 0.55000001 0 0 0 16.005859 8.4492188 z " />
</svg>
