<?xml version="1.0" encoding="UTF-8" standalone="no"?>
<svg
   width="24"
   height="24"
   viewBox="0 0 24 24"
   fill="none"
   stroke="currentColor"
   stroke-width="1.1"
   stroke-linecap="round"
   stroke-linejoin="round"
   version="1.1"
   id="svg3"
   sodipodi:docname=".tmp_webcam.svg"
   xmlns:inkscape="http://www.inkscape.org/namespaces/inkscape"
   xmlns:sodipodi="http://sodipodi.sourceforge.net/DTD/sodipodi-0.dtd"
   xmlns="http://www.w3.org/2000/svg"
   xmlns:svg="http://www.w3.org/2000/svg">
  <defs
     id="defs3" />
  <sodipodi:namedview
     id="namedview3"
     pagecolor="#ffffff"
     bordercolor="#000000"
     borderopacity="0.25"
     inkscape:showpageshadow="2"
     inkscape:pageopacity="0.0"
     inkscape:pagecheckerboard="0"
     inkscape:deskcolor="#d1d1d1" />
  <path
     id="circle1"
     style="baseline-shift:baseline;display:inline;overflow:visible;vector-effect:none;fill:#000000;stroke:none;stroke-linecap:butt;stroke-linejoin:miter;enable-background:accumulate;stop-color:#000000;stop-opacity:1;opacity:1"
     d="M 12 1.4492188 C 7.2844799 1.4492188 3.4492188 5.2844799 3.4492188 10 C 3.4492188 14.530512 6.9894389 18.248436 11.449219 18.533203 L 11.449219 21.449219 L 7 21.449219 A 0.55000001 0.55000001 0 0 0 6.4492188 22 A 0.55000001 0.55000001 0 0 0 7 22.550781 L 11.998047 22.550781 L 12.001953 22.550781 L 17 22.550781 A 0.55000001 0.55000001 0 0 0 17.550781 22 A 0.55000001 0.55000001 0 0 0 17 21.449219 L 12.550781 21.449219 L 12.550781 18.533203 C 17.010561 18.248436 20.550781 14.530512 20.550781 10 C 20.550781 5.2844799 16.71552 1.4492187 12 1.4492188 z M 12 2.5507812 C 16.121036 2.5507812 19.449219 5.8789641 19.449219 10 C 19.449219 14.12055 16.122316 17.448434 12.001953 17.449219 L 12 17.449219 L 11.998047 17.449219 C 7.8776841 17.448434 4.5507813 14.12055 4.5507812 10 C 4.5507812 5.8789641 7.8789641 2.5507813 12 2.5507812 z M 12 6.4492188 C 10.045904 6.4492188 8.4492187 8.0459037 8.4492188 10 C 8.4492188 11.954096 10.045904 13.550781 12 13.550781 C 13.954096 13.550781 15.550781 11.954096 15.550781 10 C 15.550781 8.0459037 13.954096 6.4492189 12 6.4492188 z M 12 7.5507812 C 13.359612 7.5507812 14.449219 8.6403878 14.449219 10 C 14.449219 11.359612 13.359612 12.449219 12 12.449219 C 10.640388 12.449219 9.5507812 11.359612 9.5507812 10 C 9.5507812 8.6403878 10.640388 7.5507814 12 7.5507812 z " />
</svg>
