<?xml version="1.0" encoding="UTF-8" standalone="no"?>
<svg
   width="24"
   height="24"
   viewBox="0 0 24 24"
   fill="none"
   stroke="currentColor"
   stroke-width="1.1"
   stroke-linecap="round"
   stroke-linejoin="round"
   version="1.1"
   id="svg9"
   sodipodi:docname=".tmp_wheat-off.svg"
   xmlns:inkscape="http://www.inkscape.org/namespaces/inkscape"
   xmlns:sodipodi="http://sodipodi.sourceforge.net/DTD/sodipodi-0.dtd"
   xmlns="http://www.w3.org/2000/svg"
   xmlns:svg="http://www.w3.org/2000/svg">
  <defs
     id="defs9" />
  <sodipodi:namedview
     id="namedview9"
     pagecolor="#ffffff"
     bordercolor="#000000"
     borderopacity="0.25"
     inkscape:showpageshadow="2"
     inkscape:pageopacity="0.0"
     inkscape:pagecheckerboard="0"
     inkscape:deskcolor="#d1d1d1" />
  <path
     id="path1"
     style="baseline-shift:baseline;display:inline;overflow:visible;vector-effect:none;fill:#000000;stroke:none;stroke-linecap:butt;stroke-linejoin:miter;enable-background:accumulate;stop-color:#000000;stop-opacity:1;opacity:1"
     d="M 2 1.4492188 A 0.55000001 0.55000001 0 0 0 1.6113281 1.6113281 A 0.55000001 0.55000001 0 0 0 1.6113281 2.3886719 L 7.2226562 8 L 7.0820312 8.140625 A 0.55005501 0.55005501 0 0 0 7.0800781 8.1425781 C 6.2630408 8.9628366 5.8707231 10.050097 5.9042969 11.126953 L 5.3886719 10.611328 A 0.55005501 0.55005501 0 0 0 4.6113281 10.611328 L 3.0820312 12.140625 A 0.55005501 0.55005501 0 0 0 3.0800781 12.142578 C 1.5105007 13.718344 1.5105007 16.281656 3.0800781 17.857422 A 0.55005501 0.55005501 0 0 0 3.0820312 17.859375 L 4.2226562 19 L 1.6113281 21.611328 A 0.55000001 0.55000001 0 0 0 1.6113281 22.388672 A 0.55000001 0.55000001 0 0 0 2.3886719 22.388672 L 5 19.777344 L 6.140625 20.917969 A 0.55005501 0.55005501 0 0 0 6.1425781 20.919922 C 7.7183436 22.489499 10.281656 22.489499 11.857422 20.919922 A 0.55005501 0.55005501 0 0 0 11.859375 20.917969 L 13.388672 19.388672 A 0.55005501 0.55005501 0 0 0 13.388672 18.611328 L 12.873047 18.095703 C 13.949869 18.129249 15.037189 17.736933 15.857422 16.919922 A 0.55005501 0.55005501 0 0 0 15.859375 16.917969 L 16 16.777344 L 21.611328 22.388672 A 0.55000001 0.55000001 0 0 0 22.388672 22.388672 A 0.55000001 0.55000001 0 0 0 22.388672 21.611328 L 16.388672 15.611328 L 12.949219 12.171875 A 0.55000001 0.55000001 0 0 0 12.818359 12.041016 L 12.388672 11.611328 A 0.55000001 0.55000001 0 0 0 12.386719 11.609375 L 11.957031 11.179688 A 0.55000001 0.55000001 0 0 0 11.830078 11.052734 L 8.3886719 7.6113281 L 2.3886719 1.6113281 A 0.55000001 0.55000001 0 0 0 2 1.4492188 z M 20 1.4492188 C 17.841855 1.4492188 16.025363 2.965025 15.5625 4.9863281 C 15.389515 4.6838169 15.175726 4.3996309 14.919922 4.1425781 A 0.55005501 0.55005501 0 0 0 14.917969 4.140625 L 13.388672 2.6113281 A 0.55005501 0.55005501 0 0 0 12.611328 2.6113281 L 11.082031 4.140625 C 10.826676 4.3959803 10.607794 4.6824276 10.433594 4.984375 A 0.55000001 0.55000001 0 0 0 10.634766 5.7363281 A 0.55000001 0.55000001 0 0 0 11.386719 5.5351562 C 11.512518 5.3171037 11.67473 5.1026135 11.859375 4.9179688 L 13 3.7773438 L 14.140625 4.9179688 C 15.19186 5.974334 15.292918 7.6369106 14.376953 8.8125 A 0.55000001 0.55000001 0 0 0 14.433594 9.5488281 A 0.55000001 0.55000001 0 0 0 14.441406 9.5585938 A 0.55000001 0.55000001 0 0 0 14.449219 9.5664062 A 0.55000001 0.55000001 0 0 0 15.1875 9.6230469 C 16.363086 8.7070823 18.025666 8.8081403 19.082031 9.859375 L 20.222656 11 L 19.082031 12.140625 C 18.897387 12.32527 18.682896 12.487482 18.464844 12.613281 A 0.55000001 0.55000001 0 0 0 18.263672 13.365234 A 0.55000001 0.55000001 0 0 0 19.015625 13.566406 C 19.317572 13.392206 19.60402 13.173324 19.859375 12.917969 L 21.388672 11.388672 A 0.55005501 0.55005501 0 0 0 21.388672 10.611328 L 19.859375 9.0820312 A 0.55005501 0.55005501 0 0 0 19.857422 9.0800781 C 19.600391 8.824278 19.316087 8.6105088 19.013672 8.4375 C 21.034897 7.97458 22.550781 6.1580898 22.550781 4 L 22.550781 2 A 0.55005501 0.55005501 0 0 0 22 1.4492188 L 20 1.4492188 z M 20 2.5507812 L 21.449219 2.5507812 L 21.449219 4 C 21.449219 5.9118969 19.911897 7.4492188 18 7.4492188 L 16.550781 7.4492188 L 16.550781 6 C 16.550781 4.0881031 18.088103 2.5507812 20 2.5507812 z M 8 8.7773438 L 10.914062 11.691406 C 10.794353 12.198212 10.537351 12.683121 10.146484 13.076172 C 10.145233 13.077413 10.143828 13.078835 10.142578 13.080078 A 0.55005501 0.55005501 0 0 0 10.140625 13.082031 L 9 14.222656 L 7.859375 13.082031 C 6.7082535 11.926372 6.7082535 10.073628 7.859375 8.9179688 L 8 8.7773438 z M 5 11.777344 L 6.140625 12.917969 C 7.2910911 14.07297 7.2897811 15.926237 6.140625 17.082031 L 5 18.222656 L 3.859375 17.082031 C 2.7082535 15.926372 2.7082535 14.073628 3.859375 12.917969 L 5 11.777344 z M 12.308594 13.085938 L 15.222656 16 L 15.082031 16.140625 C 13.926372 17.291746 12.073628 17.291746 10.917969 16.140625 L 9.7773438 15 L 10.917969 13.859375 C 10.9217 13.855644 10.925974 13.851399 10.929688 13.847656 C 11.312336 13.47184 11.789922 13.209334 12.308594 13.085938 z M 8.0957031 14.873047 L 8.2226562 15 L 8.0957031 15.126953 C 8.0983518 15.041963 8.0983529 14.958037 8.0957031 14.873047 z M 9 15.777344 L 9.1269531 15.904297 C 9.0846741 15.902985 9.0422983 15.902344 9 15.902344 C 8.9576694 15.902344 8.9153582 15.902983 8.8730469 15.904297 L 9 15.777344 z M 9 16.996094 C 9.7520136 16.996094 10.504201 17.283814 11.082031 17.859375 L 12.222656 19 L 11.082031 20.140625 C 9.9263717 21.291746 8.0736286 21.291746 6.9179688 20.140625 L 5.7773438 19 L 6.9179688 17.859375 A 0.55005501 0.55005501 0 0 0 6.9199219 17.857422 L 6.921875 17.855469 C 6.9232142 17.854122 6.9263974 17.850958 6.9277344 17.849609 C 7.504122 17.281172 8.2526544 16.996094 9 16.996094 z " />
</svg>
