<?xml version="1.0" encoding="UTF-8" standalone="no"?>
<svg
   width="24"
   height="24"
   viewBox="0 0 24 24"
   fill="none"
   stroke="currentColor"
   stroke-width="1.1"
   stroke-linecap="round"
   stroke-linejoin="round"
   version="1.1"
   id="svg7"
   sodipodi:docname=".tmp_wifi-off.svg"
   xmlns:inkscape="http://www.inkscape.org/namespaces/inkscape"
   xmlns:sodipodi="http://sodipodi.sourceforge.net/DTD/sodipodi-0.dtd"
   xmlns="http://www.w3.org/2000/svg"
   xmlns:svg="http://www.w3.org/2000/svg">
  <defs
     id="defs7" />
  <sodipodi:namedview
     id="namedview7"
     pagecolor="#ffffff"
     bordercolor="#000000"
     borderopacity="0.25"
     inkscape:showpageshadow="2"
     inkscape:pageopacity="0.0"
     inkscape:pagecheckerboard="0"
     inkscape:deskcolor="#d1d1d1" />
  <path
     id="path1"
     style="baseline-shift:baseline;display:inline;overflow:visible;vector-effect:none;fill:#000000;stroke:none;stroke-linecap:butt;stroke-linejoin:miter;enable-background:accumulate;stop-color:#000000;stop-opacity:1;opacity:1"
     d="M 2 1.4492188 A 0.55000001 0.55000001 0 0 0 1.6113281 1.6113281 A 0.55000001 0.55000001 0 0 0 1.6113281 2.3886719 L 5.2265625 6.0039062 C 3.9238141 6.634343 2.7135536 7.4436177 1.6328125 8.4101562 A 0.55000001 0.55000001 0 0 0 1.5898438 9.1875 A 0.55000001 0.55000001 0 0 0 2.3671875 9.2304688 C 3.466976 8.2468956 4.7093636 7.4367303 6.0527344 6.8300781 L 9.0839844 9.8613281 C 7.4061987 10.343815 5.8695978 11.237145 4.6152344 12.466797 A 0.55000001 0.55000001 0 0 0 4.6074219 13.244141 A 0.55000001 0.55000001 0 0 0 5.3847656 13.251953 C 6.6561005 12.005673 8.2525104 11.143986 9.9882812 10.765625 L 14.076172 14.853516 C 13.411755 14.586404 12.706089 14.453125 12 14.453125 C 10.595928 14.453125 9.1920906 14.981579 8.1152344 16.037109 A 0.55000001 0.55000001 0 0 0 8.1074219 16.814453 A 0.55000001 0.55000001 0 0 0 8.8847656 16.822266 C 10.619488 15.121897 13.380512 15.121897 15.115234 16.822266 A 0.55000001 0.55000001 0 0 0 15.892578 16.814453 A 0.55000001 0.55000001 0 0 0 15.957031 16.734375 L 21.611328 22.388672 A 0.55000001 0.55000001 0 0 0 22.388672 22.388672 A 0.55000001 0.55000001 0 0 0 22.388672 21.611328 L 10.582031 9.8046875 A 0.55000001 0.55000001 0 0 0 10.535156 9.7578125 L 6.5820312 5.8046875 A 0.55000001 0.55000001 0 0 0 6.5488281 5.7714844 L 2.3886719 1.6113281 A 0.55000001 0.55000001 0 0 0 2 1.4492188 z M 12.261719 4.453125 C 11.730853 4.4441619 11.198002 4.4617854 10.664062 4.5078125 A 0.55000001 0.55000001 0 0 0 10.164062 5.1035156 A 0.55000001 0.55000001 0 0 0 10.759766 5.6035156 C 14.729608 5.261304 18.66283 6.5741624 21.632812 9.2304688 A 0.55000001 0.55000001 0 0 0 22.410156 9.1875 A 0.55000001 0.55000001 0 0 0 22.367188 8.4101562 C 19.570971 5.9092632 15.977776 4.5158665 12.261719 4.453125 z M 16.992188 10.785156 A 0.55000001 0.55000001 0 0 0 16.515625 11.060547 A 0.55000001 0.55000001 0 0 0 16.71875 11.8125 C 17.409104 12.210368 18.046233 12.694168 18.615234 13.251953 A 0.55000001 0.55000001 0 0 0 19.392578 13.244141 A 0.55000001 0.55000001 0 0 0 19.384766 12.466797 C 18.749533 11.844085 18.038289 11.303555 17.267578 10.859375 A 0.55000001 0.55000001 0 0 0 16.992188 10.785156 z M 12 19.449219 A 0.55000001 0.55000001 0 0 0 11.449219 20 A 0.55000001 0.55000001 0 0 0 12 20.550781 L 12.009766 20.550781 A 0.55000001 0.55000001 0 0 0 12.560547 20 A 0.55000001 0.55000001 0 0 0 12.009766 19.449219 L 12 19.449219 z " />
</svg>
