<?xml version="1.0" encoding="UTF-8" standalone="no"?>
<svg
   width="24"
   height="24"
   viewBox="0 0 24 24"
   fill="none"
   stroke="currentColor"
   stroke-width="2"
   stroke-linecap="round"
   stroke-linejoin="round"
   version="1.1"
   id="svg2"
   sodipodi:docname=".tmp_mic.svg"
   xmlns:inkscape="http://www.inkscape.org/namespaces/inkscape"
   xmlns:sodipodi="http://sodipodi.sourceforge.net/DTD/sodipodi-0.dtd"
   xmlns="http://www.w3.org/2000/svg"
   xmlns:svg="http://www.w3.org/2000/svg">
  <defs
     id="defs2" />
  <sodipodi:namedview
     id="namedview2"
     pagecolor="#ffffff"
     bordercolor="#000000"
     borderopacity="0.25"
     inkscape:showpageshadow="2"
     inkscape:pageopacity="0.0"
     inkscape:pagecheckerboard="0"
     inkscape:deskcolor="#d1d1d1" />
  <path
     id="path1"
     style="baseline-shift:baseline;display:inline;overflow:visible;vector-effect:none;fill:#000000;stroke:none;stroke-linecap:butt;stroke-linejoin:miter;enable-background:accumulate;stop-color:#000000;stop-opacity:1;opacity:1"
     d="M 12 1 C 9.8012972 1 8 2.8012972 8 5 L 8 12 C 8 14.198703 9.8012972 16 12 16 C 14.198703 16 16 14.198703 16 12 L 16 5 C 16 2.8012972 14.198703 1 12 1 z M 12 3 C 13.125297 3 14 3.8747028 14 5 L 14 12 C 14 13.125297 13.125297 14 12 14 C 10.874703 14 10 13.125297 10 12 L 10 5 C 10 3.8747028 10.874703 3 12 3 z M 5 9 A 1 1 0 0 0 4 10 L 4 12 C 4 16.067884 7.0625835 19.442883 11 19.9375 L 11 22 A 1 1 0 0 0 12 23 A 1 1 0 0 0 13 22 L 13 19.9375 C 16.937416 19.442883 20 16.067884 20 12 L 20 10 A 1 1 0 0 0 19 9 A 1 1 0 0 0 18 10 L 18 12 C 18 15.325556 15.325554 18 12 18 C 8.674446 18 6 15.325556 6 12 L 6 10 A 1 1 0 0 0 5 9 z " />
</svg>
