<?xml version="1.0" encoding="UTF-8" standalone="no"?>
<svg
   width="24"
   height="24"
   viewBox="0 0 24 24"
   fill="none"
   stroke="currentColor"
   stroke-width="2"
   stroke-linecap="round"
   stroke-linejoin="round"
   version="1.1"
   id="svg4"
   sodipodi:docname=".tmp_network.svg"
   xmlns:inkscape="http://www.inkscape.org/namespaces/inkscape"
   xmlns:sodipodi="http://sodipodi.sourceforge.net/DTD/sodipodi-0.dtd"
   xmlns="http://www.w3.org/2000/svg"
   xmlns:svg="http://www.w3.org/2000/svg">
  <defs
     id="defs4" />
  <sodipodi:namedview
     id="namedview4"
     pagecolor="#ffffff"
     bordercolor="#000000"
     borderopacity="0.25"
     inkscape:showpageshadow="2"
     inkscape:pageopacity="0.0"
     inkscape:pagecheckerboard="0"
     inkscape:deskcolor="#d1d1d1" />
  <path
     id="rect1"
     style="baseline-shift:baseline;display:inline;overflow:visible;vector-effect:none;fill:#000000;stroke:none;stroke-linecap:butt;stroke-linejoin:miter;enable-background:accumulate;stop-color:#000000;stop-opacity:1;opacity:1"
     d="M 10 1 C 8.9092972 1 8 1.9092972 8 3 L 8 7 C 8 8.0907028 8.9092972 9 10 9 L 11 9 L 11 11 L 6 11 C 4.9072751 11 4 11.907275 4 13 L 4 15 L 3 15 C 1.9092972 15 1 15.909297 1 17 L 1 21 C 1 22.090703 1.9092972 23 3 23 L 7 23 C 8.0907028 23 9 22.090703 9 21 L 9 17 C 9 15.909297 8.0907028 15 7 15 L 6 15 L 6 13 L 12 13 L 18 13 L 18 15 L 17 15 C 15.909297 15 15 15.909297 15 17 L 15 21 C 15 22.090703 15.909297 23 17 23 L 21 23 C 22.090703 23 23 22.090703 23 21 L 23 17 C 23 15.909297 22.090703 15 21 15 L 20 15 L 20 13 C 20 11.907275 19.092725 11 18 11 L 13 11 L 13 9 L 14 9 C 15.090703 9 16 8.0907028 16 7 L 16 3 C 16 1.9092972 15.090703 1 14 1 L 10 1 z M 10 3 L 14 3 L 14 7 L 12 7 L 10 7 L 10 3 z M 3 17 L 7 17 L 7 21 L 3 21 L 3 17 z M 17 17 L 21 17 L 21 21 L 17 21 L 17 17 z " />
</svg>
