<?xml version="1.0" encoding="UTF-8" standalone="no"?>
<svg
   width="24"
   height="24"
   viewBox="0 0 24 24"
   fill="none"
   stroke="currentColor"
   stroke-width="2"
   stroke-linecap="round"
   stroke-linejoin="round"
   version="1.1"
   id="svg2"
   sodipodi:docname=".tmp_square-stack.svg"
   xmlns:inkscape="http://www.inkscape.org/namespaces/inkscape"
   xmlns:sodipodi="http://sodipodi.sourceforge.net/DTD/sodipodi-0.dtd"
   xmlns="http://www.w3.org/2000/svg"
   xmlns:svg="http://www.w3.org/2000/svg">
  <defs
     id="defs2" />
  <sodipodi:namedview
     id="namedview2"
     pagecolor="#ffffff"
     bordercolor="#000000"
     borderopacity="0.25"
     inkscape:showpageshadow="2"
     inkscape:pageopacity="0.0"
     inkscape:pagecheckerboard="0"
     inkscape:deskcolor="#d1d1d1" />
  <path
     id="path1"
     style="baseline-shift:baseline;display:inline;overflow:visible;vector-effect:none;fill:#000000;stroke:none;stroke-linecap:butt;stroke-linejoin:miter;enable-background:accumulate;stop-color:#000000;stop-opacity:1;opacity:1"
     d="M 4 1 C 2.3545455 1 1 2.3545455 1 4 L 1 8 C 1 9.6454545 2.3545455 11 4 11 A 1 1 0 0 0 5 10 A 1 1 0 0 0 4 9 C 3.4454545 9 3 8.5545455 3 8 L 3 4 C 3 3.4454545 3.4454545 3 4 3 L 8 3 C 8.5545455 3 9 3.4454545 9 4 A 1 1 0 0 0 10 5 A 1 1 0 0 0 11 4 C 11 2.3545455 9.6454545 1 8 1 L 4 1 z M 10 7 C 8.3545455 7 7 8.3545455 7 10 L 7 14 C 7 15.645455 8.3545455 17 10 17 A 1 1 0 0 0 11 16 A 1 1 0 0 0 10 15 C 9.4454545 15 9 14.554545 9 14 L 9 10 C 9 9.4454545 9.4454545 9 10 9 L 14 9 C 14.554545 9 15 9.4454545 15 10 A 1 1 0 0 0 16 11 A 1 1 0 0 0 17 10 C 17 8.3545455 15.645455 7 14 7 L 10 7 z M 16 13 C 14.355297 13 13 14.355297 13 16 L 13 20 C 13 21.644703 14.355297 23 16 23 L 20 23 C 21.644703 23 23 21.644703 23 20 L 23 16 C 23 14.355297 21.644703 13 20 13 L 16 13 z M 16 15 L 20 15 C 20.571297 15 21 15.428703 21 16 L 21 20 C 21 20.571297 20.571297 21 20 21 L 16 21 C 15.428703 21 15 20.571297 15 20 L 15 16 C 15 15.428703 15.428703 15 16 15 z " />
</svg>
