<?xml version="1.0" encoding="UTF-8" standalone="no"?>
<svg
   width="24"
   height="24"
   viewBox="0 0 24 24"
   fill="none"
   stroke="currentColor"
   stroke-width="1.1"
   stroke-linecap="round"
   stroke-linejoin="round"
   version="1.1"
   id="svg3"
   sodipodi:docname=".tmp_align-horizontal-distribute-end.svg"
   xmlns:inkscape="http://www.inkscape.org/namespaces/inkscape"
   xmlns:sodipodi="http://sodipodi.sourceforge.net/DTD/sodipodi-0.dtd"
   xmlns="http://www.w3.org/2000/svg"
   xmlns:svg="http://www.w3.org/2000/svg">
  <defs
     id="defs3" />
  <sodipodi:namedview
     id="namedview3"
     pagecolor="#ffffff"
     bordercolor="#000000"
     borderopacity="0.25"
     inkscape:showpageshadow="2"
     inkscape:pageopacity="0.0"
     inkscape:pagecheckerboard="0"
     inkscape:deskcolor="#d1d1d1" />
  <path
     id="rect1"
     style="baseline-shift:baseline;display:inline;overflow:visible;vector-effect:none;fill:#000000;stroke:none;stroke-linecap:butt;stroke-linejoin:miter;enable-background:accumulate;stop-color:#000000;stop-opacity:1;opacity:1"
     d="M 10 1.4492188 A 0.55000001 0.55000001 0 0 0 9.4492188 2 L 9.4492188 4.9042969 C 9.0369842 4.6179227 8.5372247 4.4492188 8 4.4492188 L 6 4.4492188 C 4.5968135 4.4492188 3.4492188 5.5968135 3.4492188 7 L 3.4492188 17 C 3.4492188 18.403187 4.5968135 19.550781 6 19.550781 L 8 19.550781 C 8.5372247 19.550781 9.0369842 19.382077 9.4492188 19.095703 L 9.4492188 22 A 0.55000001 0.55000001 0 0 0 10 22.550781 A 0.55000001 0.55000001 0 0 0 10.550781 22 L 10.550781 2 A 0.55000001 0.55000001 0 0 0 10 1.4492188 z M 20 1.4492188 A 0.55000001 0.55000001 0 0 0 19.449219 2 L 19.449219 6.9042969 C 19.036984 6.6179227 18.537225 6.4492188 18 6.4492188 L 16 6.4492188 C 14.596813 6.4492188 13.449219 7.5968135 13.449219 9 L 13.449219 15 C 13.449219 16.403187 14.596813 17.550781 16 17.550781 L 18 17.550781 C 18.537225 17.550781 19.036984 17.382077 19.449219 17.095703 L 19.449219 22 A 0.55000001 0.55000001 0 0 0 20 22.550781 A 0.55000001 0.55000001 0 0 0 20.550781 22 L 20.550781 15 L 20.550781 9 L 20.550781 2 A 0.55000001 0.55000001 0 0 0 20 1.4492188 z M 6 5.5507812 L 8 5.5507812 C 8.8128135 5.5507812 9.4492188 6.1871865 9.4492188 7 L 9.4492188 17 C 9.4492188 17.812813 8.8128135 18.449219 8 18.449219 L 6 18.449219 C 5.1871865 18.449219 4.5507813 17.812813 4.5507812 17 L 4.5507812 7 C 4.5507812 6.1871865 5.1871865 5.5507813 6 5.5507812 z M 16 7.5507812 L 18 7.5507812 C 18.812813 7.5507812 19.449219 8.1871865 19.449219 9 L 19.449219 15 C 19.449219 15.812813 18.812813 16.449219 18 16.449219 L 16 16.449219 C 15.187187 16.449219 14.550781 15.812813 14.550781 15 L 14.550781 9 C 14.550781 8.1871865 15.187187 7.5507812 16 7.5507812 z " />
</svg>
