<?xml version="1.0" encoding="UTF-8" standalone="no"?>
<svg
   width="24"
   height="24"
   viewBox="0 0 24 24"
   fill="none"
   stroke="currentColor"
   stroke-width="1.1"
   stroke-linecap="round"
   stroke-linejoin="round"
   version="1.1"
   id="svg2"
   sodipodi:docname=".tmp_arrow-up-right.svg"
   xmlns:inkscape="http://www.inkscape.org/namespaces/inkscape"
   xmlns:sodipodi="http://sodipodi.sourceforge.net/DTD/sodipodi-0.dtd"
   xmlns="http://www.w3.org/2000/svg"
   xmlns:svg="http://www.w3.org/2000/svg">
  <defs
     id="defs2" />
  <sodipodi:namedview
     id="namedview2"
     pagecolor="#ffffff"
     bordercolor="#000000"
     borderopacity="0.25"
     inkscape:showpageshadow="2"
     inkscape:pageopacity="0.0"
     inkscape:pagecheckerboard="0"
     inkscape:deskcolor="#d1d1d1" />
  <path
     id="path1"
     style="baseline-shift:baseline;display:inline;overflow:visible;vector-effect:none;fill:#000000;stroke:none;stroke-linecap:butt;stroke-linejoin:miter;enable-background:accumulate;stop-color:#000000;stop-opacity:1;opacity:1"
     d="M 7 6.4492188 A 0.55000001 0.55000001 0 0 0 6.4492188 7 A 0.55000001 0.55000001 0 0 0 7 7.5507812 L 15.671875 7.5507812 L 6.6113281 16.611328 A 0.55000001 0.55000001 0 0 0 6.6113281 17.388672 A 0.55000001 0.55000001 0 0 0 7.3886719 17.388672 L 16.449219 8.328125 L 16.449219 17 A 0.55000001 0.55000001 0 0 0 17 17.550781 A 0.55000001 0.55000001 0 0 0 17.550781 17 L 17.550781 7 A 0.55005501 0.55005501 0 0 0 17.53125 6.8574219 A 0.55005501 0.55005501 0 0 0 17.476562 6.7246094 A 0.55005501 0.55005501 0 0 0 17.275391 6.5234375 A 0.55005501 0.55005501 0 0 0 17.142578 6.46875 A 0.55005501 0.55005501 0 0 0 17 6.4492188 L 7 6.4492188 z " />
</svg>
