<?xml version="1.0" encoding="UTF-8" standalone="no"?>
<svg
   width="24"
   height="24"
   viewBox="0 0 24 24"
   fill="none"
   stroke="currentColor"
   stroke-width="1.1"
   stroke-linecap="round"
   stroke-linejoin="round"
   version="1.1"
   id="svg2"
   sodipodi:docname=".tmp_between-horizontal-end.svg"
   xmlns:inkscape="http://www.inkscape.org/namespaces/inkscape"
   xmlns:sodipodi="http://sodipodi.sourceforge.net/DTD/sodipodi-0.dtd"
   xmlns="http://www.w3.org/2000/svg"
   xmlns:svg="http://www.w3.org/2000/svg">
  <defs
     id="defs2" />
  <sodipodi:namedview
     id="namedview2"
     pagecolor="#ffffff"
     bordercolor="#000000"
     borderopacity="0.25"
     inkscape:showpageshadow="2"
     inkscape:pageopacity="0.0"
     inkscape:pagecheckerboard="0"
     inkscape:deskcolor="#d1d1d1" />
  <path
     id="rect1"
     style="baseline-shift:baseline;display:inline;overflow:visible;vector-effect:none;fill:#000000;stroke:none;stroke-linecap:butt;stroke-linejoin:miter;enable-background:accumulate;stop-color:#000000;stop-opacity:1;opacity:1"
     d="M 4 2.4492188 C 3.1508135 2.4492188 2.4492188 3.1508135 2.4492188 4 L 2.4492188 9 C 2.4492188 9.8491865 3.1508135 10.550781 4 10.550781 L 15 10.550781 C 15.849187 10.550781 16.550781 9.8491865 16.550781 9 L 16.550781 4 C 16.550781 3.1508135 15.849187 2.4492188 15 2.4492188 L 4 2.4492188 z M 4 3.5507812 L 15 3.5507812 C 15.258813 3.5507812 15.449219 3.7411865 15.449219 4 L 15.449219 9 C 15.449219 9.2588135 15.258813 9.4492188 15 9.4492188 L 4 9.4492188 C 3.7411865 9.4492188 3.5507812 9.2588135 3.5507812 9 L 3.5507812 4 C 3.5507812 3.7411865 3.7411865 3.5507812 4 3.5507812 z M 22 8.4511719 A 0.55000001 0.55000001 0 0 0 21.611328 8.6113281 L 18.611328 11.611328 A 0.55005501 0.55005501 0 0 0 18.611328 12.388672 L 21.611328 15.388672 A 0.55000001 0.55000001 0 0 0 22.388672 15.388672 A 0.55000001 0.55000001 0 0 0 22.388672 14.611328 L 19.777344 12 L 22.388672 9.3886719 A 0.55000001 0.55000001 0 0 0 22.388672 8.6113281 A 0.55000001 0.55000001 0 0 0 22 8.4511719 z M 4 13.449219 C 3.1508135 13.449219 2.4492188 14.150813 2.4492188 15 L 2.4492188 20 C 2.4492188 20.849187 3.1508135 21.550781 4 21.550781 L 15 21.550781 C 15.849187 21.550781 16.550781 20.849187 16.550781 20 L 16.550781 15 C 16.550781 14.150813 15.849187 13.449219 15 13.449219 L 4 13.449219 z M 4 14.550781 L 15 14.550781 C 15.258813 14.550781 15.449219 14.741187 15.449219 15 L 15.449219 20 C 15.449219 20.258813 15.258813 20.449219 15 20.449219 L 4 20.449219 C 3.7411865 20.449219 3.5507812 20.258813 3.5507812 20 L 3.5507812 15 C 3.5507812 14.741187 3.7411865 14.550781 4 14.550781 z " />
</svg>
