<?xml version="1.0" encoding="UTF-8" standalone="no"?>
<svg
   width="24"
   height="24"
   viewBox="0 0 24 24"
   fill="none"
   stroke="currentColor"
   stroke-width="1.1"
   stroke-linecap="round"
   stroke-linejoin="round"
   version="1.1"
   id="svg3"
   sodipodi:docname=".tmp_book-up.svg"
   xmlns:inkscape="http://www.inkscape.org/namespaces/inkscape"
   xmlns:sodipodi="http://sodipodi.sourceforge.net/DTD/sodipodi-0.dtd"
   xmlns="http://www.w3.org/2000/svg"
   xmlns:svg="http://www.w3.org/2000/svg">
  <defs
     id="defs3" />
  <sodipodi:namedview
     id="namedview3"
     pagecolor="#ffffff"
     bordercolor="#000000"
     borderopacity="0.25"
     inkscape:showpageshadow="2"
     inkscape:pageopacity="0.0"
     inkscape:pagecheckerboard="0"
     inkscape:deskcolor="#d1d1d1" />
  <path
     id="path1"
     style="baseline-shift:baseline;display:inline;overflow:visible;vector-effect:none;fill:#000000;stroke:none;stroke-linecap:butt;stroke-linejoin:miter;enable-background:accumulate;stop-color:#000000;stop-opacity:1;opacity:1"
     d="M 6.5 1.4492188 C 4.8220461 1.4492188 3.4492187 2.8220461 3.4492188 4.5 L 3.4492188 19.5 C 3.4492188 20.247222 3.6973773 21.001834 4.2148438 21.583984 C 4.7323102 22.166134 5.529167 22.550781 6.5 22.550781 L 19 22.550781 C 19.849527 22.550781 20.550781 21.849527 20.550781 21 L 20.550781 17 L 20.550781 3 C 20.550781 2.1504732 19.849527 1.4492188 19 1.4492188 L 6.5 1.4492188 z M 6.5 2.5507812 L 19 2.5507812 C 19.255043 2.5507812 19.449219 2.7449573 19.449219 3 L 19.449219 16.449219 L 6.5 16.449219 C 5.6968246 16.449219 5.0563339 16.753489 4.5507812 17.173828 L 4.5507812 4.5 C 4.5507812 3.4165302 5.4165302 2.5507812 6.5 2.5507812 z M 12 6.4492188 A 0.55000001 0.55000001 0 0 0 11.927734 6.4550781 A 0.55000001 0.55000001 0 0 0 11.857422 6.46875 A 0.55000001 0.55000001 0 0 0 11.789062 6.4921875 A 0.55005501 0.55005501 0 0 0 11.787109 6.4941406 A 0.55000001 0.55000001 0 0 0 11.724609 6.5234375 A 0.55000001 0.55000001 0 0 0 11.666016 6.5644531 A 0.55000001 0.55000001 0 0 0 11.611328 6.6113281 A 0.55000001 0.55000001 0 0 0 11.583984 6.6386719 L 8.6113281 9.6113281 A 0.55000001 0.55000001 0 0 0 8.6113281 10.388672 A 0.55000001 0.55000001 0 0 0 9.3886719 10.388672 L 11.449219 8.328125 L 11.449219 13 A 0.55000001 0.55000001 0 0 0 12 13.550781 A 0.55000001 0.55000001 0 0 0 12.550781 13 L 12.550781 8.328125 L 14.611328 10.388672 A 0.55000001 0.55000001 0 0 0 15.388672 10.388672 A 0.55000001 0.55000001 0 0 0 15.388672 9.6113281 L 12.416016 6.6386719 L 12.388672 6.6113281 A 0.55000001 0.55000001 0 0 0 12.333984 6.5644531 A 0.55000001 0.55000001 0 0 0 12.275391 6.5234375 A 0.55000001 0.55000001 0 0 0 12.212891 6.4941406 A 0.55000001 0.55000001 0 0 0 12.210938 6.4921875 A 0.55005501 0.55005501 0 0 0 12.142578 6.46875 A 0.55000001 0.55000001 0 0 0 12.072266 6.4550781 A 0.55000001 0.55000001 0 0 0 12 6.4492188 z M 6.5 17.550781 L 19.449219 17.550781 L 19.449219 21 C 19.449219 21.255043 19.255043 21.449219 19 21.449219 L 6.5 21.449219 C 5.8041671 21.449219 5.3510227 21.208866 5.0351562 20.853516 C 4.7192899 20.498166 4.5507813 20.002778 4.5507812 19.5 C 4.5507812 18.997222 4.7192898 18.501834 5.0351562 18.146484 C 5.3510227 17.791134 5.8041671 17.550781 6.5 17.550781 z " />
</svg>
