<?xml version="1.0" encoding="UTF-8" standalone="no"?>
<svg
   width="24"
   height="24"
   viewBox="0 0 24 24"
   fill="none"
   stroke="currentColor"
   stroke-width="1.1"
   stroke-linecap="round"
   stroke-linejoin="round"
   version="1.1"
   id="svg4"
   sodipodi:docname=".tmp_brush-cleaning.svg"
   xmlns:inkscape="http://www.inkscape.org/namespaces/inkscape"
   xmlns:sodipodi="http://sodipodi.sourceforge.net/DTD/sodipodi-0.dtd"
   xmlns="http://www.w3.org/2000/svg"
   xmlns:svg="http://www.w3.org/2000/svg">
  <defs
     id="defs4" />
  <sodipodi:namedview
     id="namedview4"
     pagecolor="#ffffff"
     bordercolor="#000000"
     borderopacity="0.25"
     inkscape:showpageshadow="2"
     inkscape:pageopacity="0.0"
     inkscape:pagecheckerboard="0"
     inkscape:deskcolor="#d1d1d1" />
  <path
     id="path1"
     style="baseline-shift:baseline;display:inline;overflow:visible;vector-effect:none;fill:#000000;stroke:none;stroke-linecap:butt;stroke-linejoin:miter;enable-background:accumulate;stop-color:#000000;stop-opacity:1;opacity:1"
     d="M 12 1.4492188 C 11.377778 1.4492188 10.748166 1.6557106 10.259766 2.0898438 C 9.7713652 2.5239768 9.4492188 3.1958336 9.4492188 4 L 9.4492188 9 C 9.4492188 9.2550427 9.2550427 9.4492188 9 9.4492188 L 6 9.4492188 C 4.5981884 9.4492188 3.4492187 10.598188 3.4492188 12 L 3.4492188 12.990234 C 3.4492187 13.595505 3.8044545 14.124739 4.3164062 14.378906 L 2.4980469 20.613281 A 0.55005501 0.55005501 0 0 0 2.4921875 20.638672 C 2.2616244 21.60098 3.0104572 22.551299 4 22.550781 L 20 22.550781 C 20.989543 22.551299 21.738376 21.600979 21.507812 20.638672 A 0.55005501 0.55005501 0 0 0 21.501953 20.613281 L 19.683594 14.378906 C 20.195547 14.124739 20.550781 13.595506 20.550781 12.990234 L 20.550781 12 C 20.550781 10.598188 19.401812 9.4492187 18 9.4492188 L 15 9.4492188 C 14.744957 9.4492188 14.550781 9.2550427 14.550781 9 L 14.550781 4 C 14.550781 3.1958336 14.228634 2.5239769 13.740234 2.0898438 C 13.251834 1.6557106 12.622222 1.4492188 12 1.4492188 z M 12 2.5507812 C 12.377778 2.5507812 12.748166 2.6776231 13.009766 2.9101562 C 13.271366 3.1426894 13.449219 3.4708337 13.449219 4 L 13.449219 9 C 13.449219 9.8495268 14.150473 10.550781 15 10.550781 L 18 10.550781 C 18.807327 10.550781 19.449219 11.192673 19.449219 12 L 19.449219 12.990234 C 19.449219 13.245277 19.255043 13.439453 19 13.439453 A 0.55000001 0.55000001 0 0 0 18.896484 13.449219 L 5.1035156 13.449219 A 0.55000001 0.55000001 0 0 0 5 13.439453 C 4.7449573 13.439453 4.5507812 13.245277 4.5507812 12.990234 L 4.5507812 12 C 4.5507812 11.192673 5.1926726 10.550781 6 10.550781 L 9 10.550781 C 9.8495268 10.550781 10.550781 9.8495268 10.550781 9 L 10.550781 4 C 10.550781 3.4708337 10.728634 3.1426894 10.990234 2.9101562 C 11.251834 2.6776231 11.622222 2.5507812 12 2.5507812 z M 5.4121094 14.550781 L 18.587891 14.550781 L 20.4375 20.894531 C 20.508317 21.190103 20.303937 21.449378 20 21.449219 L 16.429688 21.449219 L 15.533203 17.867188 A 0.55000001 0.55000001 0 0 0 14.867188 17.466797 A 0.55000001 0.55000001 0 0 0 14.466797 18.132812 L 15.296875 21.449219 L 8.703125 21.449219 L 9.5332031 18.132812 A 0.55000001 0.55000001 0 0 0 9.1328125 17.466797 A 0.55000001 0.55000001 0 0 0 8.4667969 17.867188 L 7.5703125 21.449219 L 4 21.449219 C 3.696063 21.449378 3.4916826 21.190103 3.5625 20.894531 L 5.4121094 14.550781 z " />
</svg>
