<?xml version="1.0" encoding="UTF-8" standalone="no"?>
<svg
   width="24"
   height="24"
   viewBox="0 0 24 24"
   fill="none"
   stroke="currentColor"
   stroke-width="1.1"
   stroke-linecap="round"
   stroke-linejoin="round"
   version="1.1"
   id="svg4"
   sodipodi:docname=".tmp_camera-off.svg"
   xmlns:inkscape="http://www.inkscape.org/namespaces/inkscape"
   xmlns:sodipodi="http://sodipodi.sourceforge.net/DTD/sodipodi-0.dtd"
   xmlns="http://www.w3.org/2000/svg"
   xmlns:svg="http://www.w3.org/2000/svg">
  <defs
     id="defs4" />
  <sodipodi:namedview
     id="namedview4"
     pagecolor="#ffffff"
     bordercolor="#000000"
     borderopacity="0.25"
     inkscape:showpageshadow="2"
     inkscape:pageopacity="0.0"
     inkscape:pagecheckerboard="0"
     inkscape:deskcolor="#d1d1d1" />
  <path
     id="path1"
     style="baseline-shift:baseline;display:inline;overflow:visible;vector-effect:none;fill:#000000;stroke:none;stroke-linecap:butt;stroke-linejoin:miter;enable-background:accumulate;stop-color:#000000;stop-opacity:1;opacity:1"
     d="M 2 1.4492188 A 0.55000001 0.55000001 0 0 0 1.6113281 1.6113281 A 0.55000001 0.55000001 0 0 0 1.6113281 2.3886719 L 5.671875 6.4492188 L 4 6.4492188 C 2.5981884 6.4492185 1.4492188 7.5981884 1.4492188 9 L 1.4492188 18 C 1.4492188 19.401812 2.5981884 20.550781 4 20.550781 L 19.773438 20.550781 L 21.611328 22.388672 A 0.55000001 0.55000001 0 0 0 22.388672 22.388672 A 0.55000001 0.55000001 0 0 0 22.388672 21.611328 L 20.416016 19.638672 A 0.55000001 0.55000001 0 0 0 20.361328 19.583984 L 14.998047 14.220703 A 0.55000001 0.55000001 0 0 0 14.900391 14.123047 L 10.873047 10.095703 A 0.55000001 0.55000001 0 0 0 10.783203 10.005859 L 2.3886719 1.6113281 A 0.55000001 0.55000001 0 0 0 2 1.4492188 z M 10.003906 3.4492188 C 9.8719878 3.4492127 9.7397107 3.4600937 9.609375 3.4804688 A 0.55000001 0.55000001 0 0 0 9.1523438 4.109375 A 0.55000001 0.55000001 0 0 0 9.7792969 4.5683594 C 9.8534099 4.5567734 9.9288938 4.5507773 10.003906 4.5507812 L 13.996094 4.5507812 C 14.530007 4.5507738 15.019829 4.8407111 15.273438 5.3105469 L 15.759766 6.2109375 C 16.204446 7.0347538 17.067736 7.5507946 18.003906 7.5507812 L 20 7.5507812 C 20.807327 7.5507812 21.449219 8.1926726 21.449219 9 L 21.449219 16.34375 A 0.55000001 0.55000001 0 0 0 22 16.894531 A 0.55000001 0.55000001 0 0 0 22.550781 16.34375 L 22.550781 9 C 22.550781 7.5981884 21.401812 6.4492187 20 6.4492188 L 18.003906 6.4492188 C 17.469993 6.4492263 16.980172 6.1592889 16.726562 5.6894531 L 16.240234 4.7890625 C 15.795554 3.9652462 14.932264 3.4492055 13.996094 3.4492188 L 10.003906 3.4492188 z M 6.6796875 7.4570312 L 9.6035156 10.380859 C 8.1533425 11.707914 8.0386741 14.06051 9.4902344 15.511719 C 10.941783 16.962914 13.292729 16.847046 14.619141 15.396484 L 18.671875 19.449219 L 4 19.449219 C 3.1926726 19.449219 2.5507813 18.807327 2.5507812 18 L 2.5507812 9 C 2.5507812 8.1926726 3.1926726 7.5507812 4 7.5507812 L 5.9960938 7.5507812 C 6.2274793 7.5508792 6.4576501 7.5190272 6.6796875 7.4570312 z M 10.380859 11.158203 L 13.841797 14.619141 C 12.92875 15.671798 11.296814 15.763361 10.267578 14.734375 C 9.2386682 13.705715 9.3292244 12.071949 10.380859 11.158203 z " />
</svg>
