<?xml version="1.0" encoding="UTF-8" standalone="no"?>
<svg
   width="24"
   height="24"
   viewBox="0 0 24 24"
   fill="none"
   stroke="currentColor"
   stroke-width="1.1"
   stroke-linecap="round"
   stroke-linejoin="round"
   version="1.1"
   id="svg3"
   sodipodi:docname=".tmp_card-sim.svg"
   xmlns:inkscape="http://www.inkscape.org/namespaces/inkscape"
   xmlns:sodipodi="http://sodipodi.sourceforge.net/DTD/sodipodi-0.dtd"
   xmlns="http://www.w3.org/2000/svg"
   xmlns:svg="http://www.w3.org/2000/svg">
  <defs
     id="defs3" />
  <sodipodi:namedview
     id="namedview3"
     pagecolor="#ffffff"
     bordercolor="#000000"
     borderopacity="0.25"
     inkscape:showpageshadow="2"
     inkscape:pageopacity="0.0"
     inkscape:pagecheckerboard="0"
     inkscape:deskcolor="#d1d1d1" />
  <path
     id="path1"
     style="baseline-shift:baseline;display:inline;overflow:visible;vector-effect:none;fill:#000000;stroke:none;stroke-linecap:butt;stroke-linejoin:miter;enable-background:accumulate;stop-color:#000000;stop-opacity:1;opacity:1"
     d="M 6 1.4492188 C 4.5981884 1.4492188 3.4492187 2.5981884 3.4492188 4 L 3.4492188 20 C 3.4492188 21.401812 4.5981884 22.550781 6 22.550781 L 18 22.550781 C 19.401812 22.550781 20.550781 21.401812 20.550781 20 L 20.550781 7.828125 C 20.550637 7.1520894 20.280836 6.5033478 19.802734 6.0253906 L 15.974609 2.1972656 C 15.496652 1.7191641 14.847911 1.4493632 14.171875 1.4492188 L 6 1.4492188 z M 6 2.5507812 L 14.171875 2.5507812 C 14.556619 2.5508634 14.925252 2.7025134 15.197266 2.9746094 L 19.025391 6.8027344 C 19.297487 7.0747482 19.449137 7.4433813 19.449219 7.828125 L 19.449219 20 C 19.449219 20.807327 18.807327 21.449219 18 21.449219 L 6 21.449219 C 5.1926726 21.449219 4.5507812 20.807327 4.5507812 20 L 4.5507812 4 C 4.5507812 3.1926726 5.1926726 2.5507813 6 2.5507812 z M 9 9.4492188 C 8.1508135 9.4492188 7.4492187 10.150813 7.4492188 11 L 7.4492188 13.998047 A 0.55000001 0.55000001 0 0 0 7.4492188 14 A 0.55000001 0.55000001 0 0 0 7.4492188 14.001953 L 7.4492188 17 C 7.4492188 17.849187 8.1508135 18.550781 9 18.550781 L 11.998047 18.550781 L 12.001953 18.550781 L 15 18.550781 C 15.849187 18.550781 16.550781 17.849187 16.550781 17 L 16.550781 14.001953 A 0.55000001 0.55000001 0 0 0 16.550781 14 A 0.55000001 0.55000001 0 0 0 16.550781 13.998047 L 16.550781 11 C 16.550781 10.150813 15.849187 9.4492187 15 9.4492188 L 9 9.4492188 z M 9 10.550781 L 15 10.550781 C 15.258813 10.550781 15.449219 10.741187 15.449219 11 L 15.449219 13.449219 L 12 13.449219 L 11.998047 13.449219 L 8.5507812 13.449219 L 8.5507812 11 C 8.5507812 10.741187 8.7411865 10.550781 9 10.550781 z M 8.5507812 14.550781 L 11.449219 14.550781 L 11.449219 17.449219 L 9 17.449219 C 8.7411865 17.449219 8.5507812 17.258813 8.5507812 17 L 8.5507812 14.550781 z M 12.550781 14.550781 L 15.449219 14.550781 L 15.449219 17 C 15.449219 17.258813 15.258813 17.449219 15 17.449219 L 12.550781 17.449219 L 12.550781 14.550781 z " />
</svg>
