<?xml version="1.0" encoding="UTF-8" standalone="no"?>
<svg
   width="24"
   height="24"
   viewBox="0 0 24 24"
   fill="none"
   stroke="currentColor"
   stroke-width="1.1"
   stroke-linecap="round"
   stroke-linejoin="round"
   version="1.1"
   id="svg4"
   sodipodi:docname=".tmp_chart-column-increasing.svg"
   xmlns:inkscape="http://www.inkscape.org/namespaces/inkscape"
   xmlns:sodipodi="http://sodipodi.sourceforge.net/DTD/sodipodi-0.dtd"
   xmlns="http://www.w3.org/2000/svg"
   xmlns:svg="http://www.w3.org/2000/svg">
  <defs
     id="defs4" />
  <sodipodi:namedview
     id="namedview4"
     pagecolor="#ffffff"
     bordercolor="#000000"
     borderopacity="0.25"
     inkscape:showpageshadow="2"
     inkscape:pageopacity="0.0"
     inkscape:pagecheckerboard="0"
     inkscape:deskcolor="#d1d1d1" />
  <path
     id="path1"
     style="baseline-shift:baseline;display:inline;overflow:visible;vector-effect:none;fill:#000000;stroke:none;stroke-linecap:butt;stroke-linejoin:miter;enable-background:accumulate;stop-color:#000000;stop-opacity:1;opacity:1"
     d="M 3 2.4492188 A 0.55000001 0.55000001 0 0 0 2.4492188 3 L 2.4492188 19 C 2.4492188 20.401812 3.5981884 21.550781 5 21.550781 L 21 21.550781 A 0.55000001 0.55000001 0 0 0 21.550781 21 A 0.55000001 0.55000001 0 0 0 21 20.449219 L 5 20.449219 C 4.1926726 20.449219 3.5507813 19.807327 3.5507812 19 L 3.5507812 3 A 0.55000001 0.55000001 0 0 0 3 2.4492188 z M 18 4.4492188 A 0.55000001 0.55000001 0 0 0 17.449219 5 L 17.449219 17 A 0.55000001 0.55000001 0 0 0 18 17.550781 A 0.55000001 0.55000001 0 0 0 18.550781 17 L 18.550781 5 A 0.55000001 0.55000001 0 0 0 18 4.4492188 z M 13 8.4492188 A 0.55000001 0.55000001 0 0 0 12.449219 9 L 12.449219 17 A 0.55000001 0.55000001 0 0 0 13 17.550781 A 0.55000001 0.55000001 0 0 0 13.550781 17 L 13.550781 9 A 0.55000001 0.55000001 0 0 0 13 8.4492188 z M 8 13.449219 A 0.55000001 0.55000001 0 0 0 7.4492188 14 L 7.4492188 17 A 0.55000001 0.55000001 0 0 0 8 17.550781 A 0.55000001 0.55000001 0 0 0 8.5507812 17 L 8.5507812 14 A 0.55000001 0.55000001 0 0 0 8 13.449219 z " />
</svg>
