<?xml version="1.0" encoding="UTF-8" standalone="no"?>
<svg
   width="24"
   height="24"
   viewBox="0 0 24 24"
   fill="none"
   stroke="currentColor"
   stroke-width="1.1"
   stroke-linecap="round"
   stroke-linejoin="round"
   version="1.1"
   id="svg1"
   sodipodi:docname=".tmp_circle-slash-2.svg"
   xmlns:inkscape="http://www.inkscape.org/namespaces/inkscape"
   xmlns:sodipodi="http://sodipodi.sourceforge.net/DTD/sodipodi-0.dtd"
   xmlns="http://www.w3.org/2000/svg"
   xmlns:svg="http://www.w3.org/2000/svg">
  <defs
     id="defs1" />
  <sodipodi:namedview
     id="namedview1"
     pagecolor="#ffffff"
     bordercolor="#000000"
     borderopacity="0.25"
     inkscape:showpageshadow="2"
     inkscape:pageopacity="0.0"
     inkscape:pagecheckerboard="0"
     inkscape:deskcolor="#d1d1d1" />
  <path
     id="path1"
     style="baseline-shift:baseline;display:inline;overflow:visible;vector-effect:none;fill:#000000;stroke:none;stroke-linecap:butt;stroke-linejoin:miter;enable-background:accumulate;stop-color:#000000;stop-opacity:1;opacity:1"
     d="M 12 1.4492188 C 6.1799104 1.4492188 1.4492187 6.1799104 1.4492188 12 C 1.4492188 14.7126 2.4774603 17.187944 4.1640625 19.058594 L 1.6113281 21.611328 A 0.55000001 0.55000001 0 0 0 1.6113281 22.388672 A 0.55000001 0.55000001 0 0 0 2.3886719 22.388672 L 4.9414062 19.835938 C 6.8120565 21.52254 9.2873998 22.550781 12 22.550781 C 17.82009 22.550781 22.550781 17.82009 22.550781 12 C 22.550781 9.2873998 21.52254 6.8120565 19.835938 4.9414062 L 22.388672 2.3886719 A 0.55000001 0.55000001 0 0 0 22.388672 1.6113281 A 0.55000001 0.55000001 0 0 0 21.611328 1.6113281 L 19.058594 4.1640625 C 17.187944 2.4774603 14.7126 1.4492187 12 1.4492188 z M 12 2.5507812 C 14.414652 2.5507812 16.616247 3.4517141 18.285156 4.9375 L 4.9375 18.285156 C 3.4517141 16.616247 2.5507813 14.414652 2.5507812 12 C 2.5507812 6.7743946 6.7743946 2.5507811 12 2.5507812 z M 19.0625 5.7148438 C 20.548286 7.3837532 21.449219 9.5853483 21.449219 12 C 21.449219 17.225605 17.225605 21.449219 12 21.449219 C 9.5853483 21.449219 7.3837532 20.548286 5.7148438 19.0625 L 19.0625 5.7148438 z " />
</svg>
