<?xml version="1.0" encoding="UTF-8" standalone="no"?>
<svg
   width="24"
   height="24"
   viewBox="0 0 24 24"
   fill="none"
   stroke="currentColor"
   stroke-width="1.1"
   stroke-linecap="round"
   stroke-linejoin="round"
   version="1.1"
   id="svg4"
   sodipodi:docname=".tmp_clipboard-copy.svg"
   xmlns:inkscape="http://www.inkscape.org/namespaces/inkscape"
   xmlns:sodipodi="http://sodipodi.sourceforge.net/DTD/sodipodi-0.dtd"
   xmlns="http://www.w3.org/2000/svg"
   xmlns:svg="http://www.w3.org/2000/svg">
  <defs
     id="defs4" />
  <sodipodi:namedview
     id="namedview4"
     pagecolor="#ffffff"
     bordercolor="#000000"
     borderopacity="0.25"
     inkscape:showpageshadow="2"
     inkscape:pageopacity="0.0"
     inkscape:pagecheckerboard="0"
     inkscape:deskcolor="#d1d1d1" />
  <path
     id="rect1"
     style="baseline-shift:baseline;display:inline;overflow:visible;vector-effect:none;fill:#000000;stroke:none;stroke-linecap:butt;stroke-linejoin:miter;enable-background:accumulate;stop-color:#000000;stop-opacity:1;opacity:1"
     d="M 9 1.4492188 C 8.1508135 1.4492188 7.4492189 2.1508135 7.4492188 3 L 7.4492188 3.4492188 L 6 3.4492188 C 4.5981884 3.4492188 3.4492187 4.5981884 3.4492188 6 L 3.4492188 20 C 3.4492188 21.401812 4.5981884 22.550781 6 22.550781 L 18 22.550781 C 19.401812 22.550781 20.550781 21.401812 20.550781 20 L 20.550781 18 A 0.55000001 0.55000001 0 0 0 20 17.449219 A 0.55000001 0.55000001 0 0 0 19.449219 18 L 19.449219 20 C 19.449219 20.807327 18.807327 21.449219 18 21.449219 L 6 21.449219 C 5.1926726 21.449219 4.5507813 20.807327 4.5507812 20 L 4.5507812 6 C 4.5507812 5.1926726 5.1926726 4.5507813 6 4.5507812 L 7.4492188 4.5507812 L 7.4492188 5 C 7.4492188 5.8491865 8.1508135 6.5507812 9 6.5507812 L 15 6.5507812 C 15.849187 6.5507812 16.550781 5.8491865 16.550781 5 L 16.550781 4.5507812 L 18 4.5507812 C 18.807327 4.5507812 19.449219 5.1926726 19.449219 6 L 19.449219 10 A 0.55000001 0.55000001 0 0 0 20 10.550781 A 0.55000001 0.55000001 0 0 0 20.550781 10 L 20.550781 6 C 20.550781 4.5981884 19.401812 3.4492187 18 3.4492188 L 16.550781 3.4492188 L 16.550781 3 C 16.550781 2.1508135 15.849187 1.4492188 15 1.4492188 L 9 1.4492188 z M 9 2.5507812 L 15 2.5507812 C 15.258813 2.5507812 15.449219 2.7411865 15.449219 3 L 15.449219 4 L 15.449219 4.0019531 L 15.449219 5 C 15.449219 5.2588135 15.258813 5.4492187 15 5.4492188 L 9 5.4492188 C 8.7411865 5.4492188 8.5507811 5.2588135 8.5507812 5 L 8.5507812 4.0019531 A 0.55000001 0.55000001 0 0 0 8.5507812 4 A 0.55000001 0.55000001 0 0 0 8.5507812 3.9980469 L 8.5507812 3 C 8.5507812 2.7411865 8.7411865 2.5507812 9 2.5507812 z M 15 9.4492188 A 0.55000001 0.55000001 0 0 0 14.611328 9.6113281 L 10.638672 13.583984 L 10.611328 13.611328 A 0.55000001 0.55000001 0 0 0 10.564453 13.666016 A 0.55000001 0.55000001 0 0 0 10.523438 13.724609 A 0.55000001 0.55000001 0 0 0 10.494141 13.787109 A 0.55005501 0.55005501 0 0 0 10.492188 13.791016 A 0.55000001 0.55000001 0 0 0 10.486328 13.802734 A 0.55005501 0.55005501 0 0 0 10.46875 13.857422 A 0.55000001 0.55000001 0 0 0 10.455078 13.927734 A 0.55000001 0.55000001 0 0 0 10.449219 14 A 0.55000001 0.55000001 0 0 0 10.455078 14.072266 A 0.55000001 0.55000001 0 0 0 10.46875 14.142578 A 0.55000001 0.55000001 0 0 0 10.492188 14.208984 A 0.55005501 0.55005501 0 0 0 10.494141 14.212891 A 0.55000001 0.55000001 0 0 0 10.523438 14.275391 A 0.55000001 0.55000001 0 0 0 10.564453 14.333984 A 0.55000001 0.55000001 0 0 0 10.611328 14.388672 A 0.55000001 0.55000001 0 0 0 10.638672 14.416016 L 14.611328 18.388672 A 0.55000001 0.55000001 0 0 0 15.388672 18.388672 A 0.55000001 0.55000001 0 0 0 15.388672 17.611328 L 12.328125 14.550781 L 21 14.550781 A 0.55000001 0.55000001 0 0 0 21.550781 14 A 0.55000001 0.55000001 0 0 0 21 13.449219 L 12.328125 13.449219 L 15.388672 10.388672 A 0.55000001 0.55000001 0 0 0 15.388672 9.6113281 A 0.55000001 0.55000001 0 0 0 15 9.4492188 z " />
</svg>
