<?xml version="1.0" encoding="UTF-8" standalone="no"?>
<svg
   width="24"
   height="24"
   viewBox="0 0 24 24"
   fill="none"
   stroke="currentColor"
   stroke-width="1.1"
   stroke-linecap="round"
   stroke-linejoin="round"
   version="1.1"
   id="svg2"
   sodipodi:docname=".tmp_crop.svg"
   xmlns:inkscape="http://www.inkscape.org/namespaces/inkscape"
   xmlns:sodipodi="http://sodipodi.sourceforge.net/DTD/sodipodi-0.dtd"
   xmlns="http://www.w3.org/2000/svg"
   xmlns:svg="http://www.w3.org/2000/svg">
  <defs
     id="defs2" />
  <sodipodi:namedview
     id="namedview2"
     pagecolor="#ffffff"
     bordercolor="#000000"
     borderopacity="0.25"
     inkscape:showpageshadow="2"
     inkscape:pageopacity="0.0"
     inkscape:pagecheckerboard="0"
     inkscape:deskcolor="#d1d1d1" />
  <path
     id="path1"
     style="baseline-shift:baseline;display:inline;overflow:visible;vector-effect:none;fill:#000000;stroke:none;stroke-linecap:butt;stroke-linejoin:miter;enable-background:accumulate;stop-color:#000000;stop-opacity:1;opacity:1"
     d="M 6 1.4492188 A 0.55000001 0.55000001 0 0 0 5.4492188 2 L 5.4492188 5.4492188 L 2 5.4492188 A 0.55000001 0.55000001 0 0 0 1.4492188 6 A 0.55000001 0.55000001 0 0 0 2 6.5507812 L 5.4492188 6.5507812 L 5.4492188 16 C 5.4492188 17.401812 6.5981884 18.550781 8 18.550781 L 17.449219 18.550781 L 17.449219 22 A 0.55000001 0.55000001 0 0 0 18 22.550781 A 0.55000001 0.55000001 0 0 0 18.550781 22 L 18.550781 18.550781 L 22 18.550781 A 0.55000001 0.55000001 0 0 0 22.550781 18 A 0.55000001 0.55000001 0 0 0 22 17.449219 L 18.550781 17.449219 L 18.550781 8 C 18.550781 6.5981884 17.401812 5.4492187 16 5.4492188 L 6.5507812 5.4492188 L 6.5507812 2 A 0.55000001 0.55000001 0 0 0 6 1.4492188 z M 6.5507812 6.5507812 L 16 6.5507812 C 16.807327 6.5507812 17.449219 7.1926726 17.449219 8 L 17.449219 17.449219 L 8 17.449219 C 7.1926726 17.449219 6.5507814 16.807327 6.5507812 16 L 6.5507812 6.5507812 z " />
</svg>
