<?xml version="1.0" encoding="UTF-8" standalone="no"?>
<svg
   width="24"
   height="24"
   viewBox="0 0 24 24"
   fill="none"
   stroke="currentColor"
   stroke-width="1.1"
   stroke-linecap="round"
   stroke-linejoin="round"
   version="1.1"
   id="svg3"
   sodipodi:docname=".tmp_delete.svg"
   xmlns:inkscape="http://www.inkscape.org/namespaces/inkscape"
   xmlns:sodipodi="http://sodipodi.sourceforge.net/DTD/sodipodi-0.dtd"
   xmlns="http://www.w3.org/2000/svg"
   xmlns:svg="http://www.w3.org/2000/svg">
  <defs
     id="defs3" />
  <sodipodi:namedview
     id="namedview3"
     pagecolor="#ffffff"
     bordercolor="#000000"
     borderopacity="0.25"
     inkscape:showpageshadow="2"
     inkscape:pageopacity="0.0"
     inkscape:pagecheckerboard="0"
     inkscape:deskcolor="#d1d1d1" />
  <path
     id="path1"
     style="baseline-shift:baseline;display:inline;overflow:visible;vector-effect:none;fill:#000000;stroke:none;stroke-linecap:butt;stroke-linejoin:miter;enable-background:accumulate;stop-color:#000000;stop-opacity:1;opacity:1"
     d="M 10 4.4492188 C 9.3665825 4.4492546 8.756155 4.6856359 8.2871094 5.1113281 L 1.9589844 10.851562 C 1.2877002 11.4608 1.2877002 12.537246 1.9589844 13.146484 L 8.2871094 18.888672 C 8.756155 19.314364 9.3665825 19.550746 10 19.550781 L 20 19.550781 C 21.401812 19.550781 22.550781 18.401812 22.550781 17 L 22.550781 7 C 22.550781 5.5981884 21.401812 4.4492187 20 4.4492188 L 10 4.4492188 z M 10 5.5507812 L 20 5.5507812 C 20.807327 5.5507812 21.449219 6.1926726 21.449219 7 L 21.449219 17 C 21.449219 17.807327 20.807327 18.449219 20 18.449219 L 10 18.449219 C 9.63958 18.449198 9.2922816 18.316441 9.0253906 18.074219 L 2.6972656 12.332031 C 2.4940334 12.147584 2.4940334 11.850463 2.6972656 11.666016 L 9.0253906 5.9257812 C 9.2922816 5.6835587 9.63958 5.5508017 10 5.5507812 z M 12 8.4492188 A 0.55000001 0.55000001 0 0 0 11.611328 8.6113281 A 0.55000001 0.55000001 0 0 0 11.611328 9.3886719 L 14.222656 12 L 11.611328 14.611328 A 0.55000001 0.55000001 0 0 0 11.611328 15.388672 A 0.55000001 0.55000001 0 0 0 12.388672 15.388672 L 15 12.777344 L 17.611328 15.388672 A 0.55000001 0.55000001 0 0 0 18.388672 15.388672 A 0.55000001 0.55000001 0 0 0 18.388672 14.611328 L 15.777344 12 L 18.388672 9.3886719 A 0.55000001 0.55000001 0 0 0 18.388672 8.6113281 A 0.55000001 0.55000001 0 0 0 17.611328 8.6113281 L 15 11.222656 L 12.388672 8.6113281 A 0.55000001 0.55000001 0 0 0 12 8.4492188 z " />
</svg>
