<?xml version="1.0" encoding="UTF-8" standalone="no"?>
<svg
   width="24"
   height="24"
   viewBox="0 0 24 24"
   fill="none"
   stroke="currentColor"
   stroke-width="1.1"
   stroke-linecap="round"
   stroke-linejoin="round"
   version="1.1"
   id="svg5"
   sodipodi:docname=".tmp_dumbbell.svg"
   xmlns:inkscape="http://www.inkscape.org/namespaces/inkscape"
   xmlns:sodipodi="http://sodipodi.sourceforge.net/DTD/sodipodi-0.dtd"
   xmlns="http://www.w3.org/2000/svg"
   xmlns:svg="http://www.w3.org/2000/svg">
  <defs
     id="defs5" />
  <sodipodi:namedview
     id="namedview5"
     pagecolor="#ffffff"
     bordercolor="#000000"
     borderopacity="0.25"
     inkscape:showpageshadow="2"
     inkscape:pageopacity="0.0"
     inkscape:pagecheckerboard="0"
     inkscape:deskcolor="#d1d1d1" />
  <path
     id="path1"
     style="baseline-shift:baseline;display:inline;overflow:visible;vector-effect:none;fill:#000000;stroke:none;stroke-linecap:butt;stroke-linejoin:miter;enable-background:accumulate;stop-color:#000000;stop-opacity:1;opacity:1"
     d="M 17.123047 1.3476562 C 16.470698 1.3859142 15.879518 1.6850912 15.439453 2.125 C 15.07297 2.4913533 14.893215 3.0034657 14.791016 3.5273438 L 14.449219 3.1855469 C 13.880492 2.6168199 13.177822 2.3678716 12.525391 2.40625 C 11.87296 2.4446284 11.283799 2.7454977 10.84375 3.1855469 C 10.403701 3.625596 10.102832 4.2167097 10.064453 4.8691406 C 10.026073 5.5215716 10.275023 6.2242418 10.84375 6.7929688 L 13.636719 9.5859375 L 9.5859375 13.636719 L 6.7929688 10.84375 C 6.2242418 10.275023 5.5215716 10.026075 4.8691406 10.064453 C 4.2167097 10.102832 3.625596 10.403701 3.1855469 10.84375 C 2.7454977 11.283799 2.4446284 11.87296 2.40625 12.525391 C 2.367872 13.177822 2.6168199 13.880492 3.1855469 14.449219 L 3.5273438 14.791016 C 3.0034657 14.893215 2.4913533 15.07297 2.125 15.439453 C 1.6850912 15.879518 1.3859142 16.470698 1.3476562 17.123047 C 1.3093983 17.775396 1.5582089 18.478332 2.1269531 19.046875 L 3.1523438 20.070312 L 2.1113281 21.111328 A 0.55000001 0.55000001 0 0 0 2.1113281 21.888672 A 0.55000001 0.55000001 0 0 0 2.8886719 21.888672 L 3.9296875 20.847656 L 4.953125 21.873047 C 5.5216682 22.441791 6.2246039 22.690602 6.8769531 22.652344 C 7.5293023 22.614084 8.1204825 22.314909 8.5605469 21.875 C 8.9270298 21.508647 9.1067849 20.996534 9.2089844 20.472656 L 9.5507812 20.814453 C 10.119508 21.38318 10.822178 21.632128 11.474609 21.59375 C 12.12704 21.55537 12.716201 21.254502 13.15625 20.814453 C 13.596299 20.374404 13.897168 19.78329 13.935547 19.130859 C 13.973927 18.478428 13.724977 17.775758 13.15625 17.207031 L 10.363281 14.414062 L 14.414062 10.363281 L 17.207031 13.15625 C 17.775758 13.724977 18.478428 13.973925 19.130859 13.935547 C 19.78329 13.897167 20.374404 13.596299 20.814453 13.15625 C 21.254502 12.716201 21.555372 12.12704 21.59375 11.474609 C 21.63213 10.822178 21.38318 10.119508 20.814453 9.5507812 L 20.472656 9.2089844 C 20.996534 9.1067849 21.508647 8.9270298 21.875 8.5605469 C 22.314909 8.1204825 22.614086 7.5293023 22.652344 6.8769531 C 22.690602 6.2246039 22.441791 5.5216682 21.873047 4.953125 L 20.847656 3.9296875 L 21.888672 2.8886719 A 0.55000001 0.55000001 0 0 0 21.888672 2.1113281 A 0.55000001 0.55000001 0 0 0 21.111328 2.1113281 L 20.070312 3.1523438 L 19.046875 2.1269531 C 18.478332 1.5582089 17.775396 1.3093984 17.123047 1.3476562 z M 17.318359 2.4433594 C 17.625802 2.4548881 17.94022 2.5768234 18.267578 2.9042969 L 21.095703 5.7324219 C 21.469959 6.106545 21.575181 6.4630786 21.554688 6.8125 C 21.534198 7.1619214 21.362794 7.5160175 21.095703 7.7832031 C 20.828612 8.0503887 20.476367 8.2215717 20.126953 8.2421875 C 19.777539 8.2628035 19.419177 8.1573265 19.044922 7.7832031 A 0.55005501 0.55005501 0 0 0 18.267578 8.5605469 L 20.035156 10.328125 C 20.409429 10.702398 20.5147 11.06065 20.494141 11.410156 C 20.473581 11.759663 20.302357 12.111705 20.035156 12.378906 C 19.767955 12.646107 19.415913 12.817331 19.066406 12.837891 C 18.7169 12.858451 18.358648 12.753181 17.984375 12.378906 L 11.621094 6.015625 C 11.246821 5.6413524 11.14155 5.2831001 11.162109 4.9335938 C 11.182669 4.5840875 11.353893 4.2320446 11.621094 3.9648438 C 11.888295 3.6976428 12.240337 3.5264186 12.589844 3.5058594 C 12.93935 3.4853004 13.297602 3.5905714 13.671875 3.9648438 L 15.439453 5.7324219 A 0.55005501 0.55005501 0 0 0 16.216797 4.9550781 C 15.842674 4.5808227 15.737196 4.222461 15.757812 3.8730469 C 15.778427 3.5236327 15.949611 3.171388 16.216797 2.9042969 C 16.483982 2.6372057 16.838079 2.4658048 17.1875 2.4453125 C 17.231178 2.442751 17.274439 2.4417124 17.318359 2.4433594 z M 5.0644531 11.160156 C 5.3722838 11.171649 5.6881365 11.293603 6.015625 11.621094 L 12.378906 17.984375 C 12.753179 18.358648 12.85845 18.7169 12.837891 19.066406 C 12.817331 19.415913 12.646107 19.767955 12.378906 20.035156 C 12.111705 20.302357 11.759663 20.473581 11.410156 20.494141 C 11.06065 20.514701 10.702398 20.409431 10.328125 20.035156 L 8.5605469 18.267578 A 0.55005501 0.55005501 0 0 0 7.7832031 19.044922 C 8.1573262 19.419177 8.2628033 19.777539 8.2421875 20.126953 C 8.2215715 20.476367 8.0503887 20.828612 7.7832031 21.095703 C 7.5160175 21.362794 7.1619214 21.534195 6.8125 21.554688 C 6.4630786 21.57518 6.106545 21.469959 5.7324219 21.095703 L 2.9042969 18.267578 C 2.5300415 17.893455 2.4248202 17.536921 2.4453125 17.1875 C 2.4658045 16.838079 2.6372057 16.483982 2.9042969 16.216797 C 3.171388 15.949611 3.5236327 15.778428 3.8730469 15.757812 C 4.222461 15.737193 4.5808227 15.842673 4.9550781 16.216797 A 0.55005501 0.55005501 0 0 0 5.7324219 15.439453 L 3.9648438 13.671875 C 3.5905711 13.297602 3.4853001 12.93935 3.5058594 12.589844 C 3.5264184 12.240337 3.6976429 11.888295 3.9648438 11.621094 C 4.2320446 11.353893 4.5840875 11.182669 4.9335938 11.162109 C 4.9772821 11.159539 5.0204773 11.158514 5.0644531 11.160156 z " />
</svg>
