<?xml version="1.0" encoding="UTF-8" standalone="no"?>
<svg
   width="24"
   height="24"
   viewBox="0 0 24 24"
   fill="none"
   stroke="currentColor"
   stroke-width="1.1"
   stroke-linecap="round"
   stroke-linejoin="round"
   version="1.1"
   id="svg5"
   sodipodi:docname=".tmp_ev-charger.svg"
   xmlns:inkscape="http://www.inkscape.org/namespaces/inkscape"
   xmlns:sodipodi="http://sodipodi.sourceforge.net/DTD/sodipodi-0.dtd"
   xmlns="http://www.w3.org/2000/svg"
   xmlns:svg="http://www.w3.org/2000/svg">
  <defs
     id="defs5" />
  <sodipodi:namedview
     id="namedview5"
     pagecolor="#ffffff"
     bordercolor="#000000"
     borderopacity="0.25"
     inkscape:showpageshadow="2"
     inkscape:pageopacity="0.0"
     inkscape:pagecheckerboard="0"
     inkscape:deskcolor="#d1d1d1" />
  <path
     id="path1"
     style="baseline-shift:baseline;display:inline;overflow:visible;vector-effect:none;fill:#000000;stroke:none;stroke-linecap:butt;stroke-linejoin:miter;enable-background:accumulate;stop-color:#000000;stop-opacity:1;opacity:1"
     d="M 5 2.4492188 C 3.5981884 2.4492188 2.4492188 3.5981884 2.4492188 5 L 2.4492188 6.9980469 A 0.55000001 0.55000001 0 0 0 2.4492188 7 A 0.55000001 0.55000001 0 0 0 2.4492188 7.0019531 L 2.4492188 20.449219 L 2 20.449219 A 0.55000001 0.55000001 0 0 0 1.4492188 21 A 0.55000001 0.55000001 0 0 0 2 21.550781 L 3 21.550781 L 3.0019531 21.550781 L 14 21.550781 L 14.001953 21.550781 L 15 21.550781 A 0.55000001 0.55000001 0 0 0 15.550781 21 A 0.55000001 0.55000001 0 0 0 15 20.449219 L 14.550781 20.449219 L 14.550781 13.550781 L 16 13.550781 C 16.807327 13.550781 17.449219 14.192673 17.449219 15 L 17.449219 17 C 17.449219 17.804166 17.771366 18.476023 18.259766 18.910156 C 18.748166 19.344289 19.377778 19.550781 20 19.550781 C 20.622222 19.550781 21.251834 19.344289 21.740234 18.910156 C 22.228634 18.476023 22.550781 17.804166 22.550781 17 L 22.550781 10.001953 C 22.55132 9.3225378 22.278722 8.670394 21.796875 8.1914062 L 18.398438 4.6210938 A 0.55000001 0.55000001 0 0 0 18.013672 4.4492188 A 0.55000001 0.55000001 0 0 0 17.621094 4.6015625 A 0.55000001 0.55000001 0 0 0 17.601562 5.3789062 L 21.011719 8.9609375 A 0.55005501 0.55005501 0 0 0 21.021484 8.9726562 C 21.295716 9.2452611 21.449525 9.6152795 21.449219 10.001953 L 21.449219 17 C 21.449219 17.529166 21.271366 17.857311 21.009766 18.089844 C 20.748166 18.322377 20.377778 18.449219 20 18.449219 C 19.622222 18.449219 19.251834 18.322377 18.990234 18.089844 C 18.728597 17.857311 18.550781 17.529166 18.550781 17 L 18.550781 15 C 18.550781 13.598188 17.401812 12.449219 16 12.449219 L 14.550781 12.449219 L 14.550781 7.0019531 A 0.55000001 0.55000001 0 0 0 14.550781 7 A 0.55000001 0.55000001 0 0 0 14.550781 6.9980469 L 14.550781 5 C 14.550781 3.5981884 13.401812 2.4492188 12 2.4492188 L 5 2.4492188 z M 5 3.5507812 L 12 3.5507812 C 12.807327 3.5507812 13.449219 4.1926726 13.449219 5 L 13.449219 6.4492188 L 3.5507812 6.4492188 L 3.5507812 5 C 3.5507812 4.1926726 4.1926726 3.5507813 5 3.5507812 z M 3.5507812 7.5507812 L 13.449219 7.5507812 L 13.449219 12.998047 A 0.55000001 0.55000001 0 0 0 13.449219 13 A 0.55000001 0.55000001 0 0 0 13.449219 13.001953 L 13.449219 20.449219 L 3.5507812 20.449219 L 3.5507812 7.5507812 z M 8.9628906 10.451172 A 0.55000001 0.55000001 0 0 0 8.8925781 10.460938 A 0.55000001 0.55000001 0 0 0 8.5429688 10.695312 L 6.5429688 13.695312 A 0.55005501 0.55005501 0 0 0 7 14.550781 L 8.9726562 14.550781 L 7.5429688 16.695312 A 0.55000001 0.55000001 0 0 0 7.6953125 17.457031 A 0.55000001 0.55000001 0 0 0 8.4570312 17.304688 L 10.457031 14.304688 A 0.55005501 0.55005501 0 0 0 10 13.449219 L 8.0273438 13.449219 L 9.4570312 11.304688 A 0.55000001 0.55000001 0 0 0 9.3046875 10.542969 A 0.55000001 0.55000001 0 0 0 8.9628906 10.451172 z " />
</svg>
