<?xml version="1.0" encoding="UTF-8" standalone="no"?>
<svg
   width="24"
   height="24"
   viewBox="0 0 24 24"
   fill="none"
   stroke="currentColor"
   stroke-width="1.1"
   stroke-linecap="round"
   stroke-linejoin="round"
   version="1.1"
   id="svg8"
   sodipodi:docname=".tmp_expand.svg"
   xmlns:inkscape="http://www.inkscape.org/namespaces/inkscape"
   xmlns:sodipodi="http://sodipodi.sourceforge.net/DTD/sodipodi-0.dtd"
   xmlns="http://www.w3.org/2000/svg"
   xmlns:svg="http://www.w3.org/2000/svg">
  <defs
     id="defs8" />
  <sodipodi:namedview
     id="namedview8"
     pagecolor="#ffffff"
     bordercolor="#000000"
     borderopacity="0.25"
     inkscape:showpageshadow="2"
     inkscape:pageopacity="0.0"
     inkscape:pagecheckerboard="0"
     inkscape:deskcolor="#d1d1d1" />
  <path
     id="path1"
     style="baseline-shift:baseline;display:inline;overflow:visible;vector-effect:none;fill:#000000;stroke:none;stroke-linecap:butt;stroke-linejoin:miter;enable-background:accumulate;stop-color:#000000;stop-opacity:1;opacity:1"
     d="M 3 2.4492188 A 0.55005501 0.55005501 0 0 0 2.7910156 2.4902344 A 0.55005501 0.55005501 0 0 0 2.6660156 2.5625 A 0.55005501 0.55005501 0 0 0 2.6113281 2.6113281 A 0.55005501 0.55005501 0 0 0 2.5644531 2.6640625 A 0.55000001 0.55000001 0 0 0 2.5644531 2.6660156 A 0.55005501 0.55005501 0 0 0 2.5234375 2.7226562 A 0.55000001 0.55000001 0 0 0 2.5234375 2.7246094 A 0.55005501 0.55005501 0 0 0 2.46875 2.8574219 A 0.55005501 0.55005501 0 0 0 2.4492188 3 L 2.4492188 8 A 0.55000001 0.55000001 0 0 0 3 8.5507812 A 0.55000001 0.55000001 0 0 0 3.5507812 8 L 3.5507812 4.328125 L 8.6113281 9.3886719 A 0.55000001 0.55000001 0 0 0 9.3886719 9.3886719 A 0.55000001 0.55000001 0 0 0 9.3886719 8.6113281 L 4.328125 3.5507812 L 8 3.5507812 A 0.55000001 0.55000001 0 0 0 8.5507812 3 A 0.55000001 0.55000001 0 0 0 8 2.4492188 L 3 2.4492188 z M 16 2.4492188 A 0.55000001 0.55000001 0 0 0 15.449219 3 A 0.55000001 0.55000001 0 0 0 16 3.5507812 L 19.671875 3.5507812 L 14.611328 8.6113281 A 0.55000001 0.55000001 0 0 0 14.611328 9.3886719 A 0.55000001 0.55000001 0 0 0 15.388672 9.3886719 L 20.449219 4.328125 L 20.449219 8 A 0.55000001 0.55000001 0 0 0 21 8.5507812 A 0.55000001 0.55000001 0 0 0 21.550781 8 L 21.550781 3 A 0.55005501 0.55005501 0 0 0 21 2.4492188 L 16 2.4492188 z M 9 14.449219 A 0.55000001 0.55000001 0 0 0 8.6113281 14.611328 L 3.5507812 19.671875 L 3.5507812 16 A 0.55000001 0.55000001 0 0 0 3 15.449219 A 0.55000001 0.55000001 0 0 0 2.4492188 16 L 2.4492188 21 A 0.55005501 0.55005501 0 0 0 3 21.550781 L 8 21.550781 A 0.55000001 0.55000001 0 0 0 8.5507812 21 A 0.55000001 0.55000001 0 0 0 8 20.449219 L 4.328125 20.449219 L 9.3886719 15.388672 A 0.55000001 0.55000001 0 0 0 9.3886719 14.611328 A 0.55000001 0.55000001 0 0 0 9 14.449219 z M 15 14.449219 A 0.55000001 0.55000001 0 0 0 14.611328 14.611328 A 0.55000001 0.55000001 0 0 0 14.611328 15.388672 L 19.671875 20.449219 L 16 20.449219 A 0.55000001 0.55000001 0 0 0 15.449219 21 A 0.55000001 0.55000001 0 0 0 16 21.550781 L 21 21.550781 A 0.55005501 0.55005501 0 0 0 21.550781 21 L 21.550781 16 A 0.55000001 0.55000001 0 0 0 21 15.449219 A 0.55000001 0.55000001 0 0 0 20.449219 16 L 20.449219 19.671875 L 15.388672 14.611328 A 0.55000001 0.55000001 0 0 0 15 14.449219 z " />
</svg>
