<?xml version="1.0" encoding="UTF-8" standalone="no"?>
<svg
   width="24"
   height="24"
   viewBox="0 0 24 24"
   fill="none"
   stroke="currentColor"
   stroke-width="1.1"
   stroke-linecap="round"
   stroke-linejoin="round"
   version="1.1"
   id="svg8"
   sodipodi:docname=".tmp_ferris-wheel.svg"
   xmlns:inkscape="http://www.inkscape.org/namespaces/inkscape"
   xmlns:sodipodi="http://sodipodi.sourceforge.net/DTD/sodipodi-0.dtd"
   xmlns="http://www.w3.org/2000/svg"
   xmlns:svg="http://www.w3.org/2000/svg">
  <defs
     id="defs8" />
  <sodipodi:namedview
     id="namedview8"
     pagecolor="#ffffff"
     bordercolor="#000000"
     borderopacity="0.25"
     inkscape:showpageshadow="2"
     inkscape:pageopacity="0.0"
     inkscape:pagecheckerboard="0"
     inkscape:deskcolor="#d1d1d1" />
  <path
     id="circle1"
     style="baseline-shift:baseline;display:inline;overflow:visible;vector-effect:none;fill:#000000;stroke:none;stroke-linecap:butt;stroke-linejoin:miter;enable-background:accumulate;stop-color:#000000;stop-opacity:1;opacity:1"
     d="M 12 1.4492188 A 0.55000001 0.55000001 0 0 0 11.449219 2 L 11.449219 2.4570312 C 8.1574328 2.6326973 5.5453535 4.3766087 4 6.7675781 L 3.5722656 6.5234375 A 0.55000001 0.55000001 0 0 0 3.15625 6.46875 A 0.55000001 0.55000001 0 0 0 2.8222656 6.7265625 A 0.55000001 0.55000001 0 0 0 3.0273438 7.4765625 L 3.4570312 7.7207031 L 3.4570312 7.7226562 C 3.3174715 8.0035333 3.1898935 8.2914249 3.078125 8.5839844 C 2.1507043 11.011552 2.1894465 13.82031 3.4433594 16.285156 L 3.0273438 16.523438 A 0.55000001 0.55000001 0 0 0 2.8222656 17.273438 A 0.55000001 0.55000001 0 0 0 3.5722656 17.476562 L 3.9980469 17.234375 C 4.4421445 17.899995 4.9848864 18.529852 5.6328125 19.109375 A 0.55000001 0.55000001 0 0 0 6.4101562 19.066406 A 0.55000001 0.55000001 0 0 0 6.3671875 18.291016 C 5.8090287 17.791783 5.3382124 17.252875 4.9511719 16.6875 L 7.0722656 15.476562 A 0.55000001 0.55000001 0 0 0 7.2773438 14.726562 A 0.55000001 0.55000001 0 0 0 6.9453125 14.46875 A 0.55000001 0.55000001 0 0 0 6.5273438 14.523438 L 4.3925781 15.742188 C 3.2981157 13.571242 3.2859089 11.121799 4.1054688 8.9765625 C 4.1974064 8.7359114 4.2997398 8.4991281 4.4121094 8.2675781 L 6.5273438 9.4765625 A 0.55000001 0.55000001 0 0 0 7.2773438 9.2734375 A 0.55000001 0.55000001 0 0 0 7.0722656 8.5234375 L 4.953125 7.3125 C 6.3068039 5.2339232 8.5571835 3.7286703 11.449219 3.5585938 L 11.449219 6 A 0.55000001 0.55000001 0 0 0 12 6.5507812 A 0.55000001 0.55000001 0 0 0 12.550781 6 L 12.550781 3.5585938 C 15.442816 3.7286704 17.693196 5.2339233 19.046875 7.3125 L 16.927734 8.5234375 A 0.55000001 0.55000001 0 0 0 16.722656 9.2734375 A 0.55000001 0.55000001 0 0 0 17.472656 9.4765625 L 19.587891 8.2675781 C 19.70026 8.4991281 19.802594 8.7359114 19.894531 8.9765625 C 20.714091 11.121799 20.701884 13.571242 19.607422 15.742188 L 17.472656 14.523438 A 0.55000001 0.55000001 0 0 0 16.722656 14.726562 A 0.55000001 0.55000001 0 0 0 16.927734 15.476562 L 19.048828 16.6875 C 18.661787 17.252876 18.190972 17.791783 17.632812 18.291016 A 0.55000001 0.55000001 0 0 0 17.589844 19.066406 A 0.55000001 0.55000001 0 0 0 18.367188 19.109375 C 19.015115 18.529851 19.557855 17.899996 20.001953 17.234375 L 20.427734 17.476562 A 0.55000001 0.55000001 0 0 0 21.177734 17.273438 A 0.55000001 0.55000001 0 0 0 20.972656 16.523438 L 20.556641 16.285156 C 21.810553 13.820311 21.849295 11.011551 20.921875 8.5839844 C 20.810106 8.2914249 20.682529 8.0035333 20.542969 7.7226562 C 20.542704 7.7221224 20.543234 7.7212369 20.542969 7.7207031 L 20.972656 7.4765625 A 0.55000001 0.55000001 0 0 0 21.177734 6.7265625 A 0.55000001 0.55000001 0 0 0 20.427734 6.5234375 L 20 6.7675781 C 18.454647 4.3766088 15.842567 2.6326973 12.550781 2.4570312 L 12.550781 2 A 0.55000001 0.55000001 0 0 0 12 1.4492188 z M 12 9.4492188 C 10.598188 9.4492188 9.4492187 10.598188 9.4492188 12 C 9.4492188 13.140446 10.20965 14.11428 11.248047 14.4375 L 8.6191406 21.449219 L 8 21.449219 A 0.55000001 0.55000001 0 0 0 7.4492188 22 A 0.55000001 0.55000001 0 0 0 8 22.550781 L 16 22.550781 A 0.55000001 0.55000001 0 0 0 16.550781 22 A 0.55000001 0.55000001 0 0 0 16 21.449219 L 15.380859 21.449219 L 12.751953 14.4375 C 13.79035 14.11428 14.550781 13.140446 14.550781 12 C 14.550781 10.598188 13.401812 9.4492187 12 9.4492188 z M 12 10.550781 C 12.807327 10.550781 13.449219 11.192673 13.449219 12 C 13.449219 12.807129 12.807048 13.448905 12 13.449219 C 11.192952 13.448905 10.550781 12.807129 10.550781 12 C 10.550781 11.192673 11.192673 10.550781 12 10.550781 z M 12 15.568359 L 14.205078 21.449219 L 9.7949219 21.449219 L 12 15.568359 z " />
</svg>
