<?xml version="1.0" encoding="UTF-8" standalone="no"?>
<svg
   width="24"
   height="24"
   viewBox="0 0 24 24"
   fill="none"
   stroke="currentColor"
   stroke-width="1.1"
   stroke-linecap="round"
   stroke-linejoin="round"
   version="1.1"
   id="svg5"
   sodipodi:docname=".tmp_file-box.svg"
   xmlns:inkscape="http://www.inkscape.org/namespaces/inkscape"
   xmlns:sodipodi="http://sodipodi.sourceforge.net/DTD/sodipodi-0.dtd"
   xmlns="http://www.w3.org/2000/svg"
   xmlns:svg="http://www.w3.org/2000/svg">
  <defs
     id="defs5" />
  <sodipodi:namedview
     id="namedview5"
     pagecolor="#ffffff"
     bordercolor="#000000"
     borderopacity="0.25"
     inkscape:showpageshadow="2"
     inkscape:pageopacity="0.0"
     inkscape:pagecheckerboard="0"
     inkscape:deskcolor="#d1d1d1" />
  <path
     id="path1"
     style="baseline-shift:baseline;display:inline;overflow:visible;vector-effect:none;fill:#000000;stroke:none;stroke-linecap:butt;stroke-linejoin:miter;enable-background:accumulate;stop-color:#000000;stop-opacity:1;opacity:1"
     d="M 6 1.4492188 C 4.5981884 1.4492188 3.4492187 2.5981884 3.4492188 4 L 3.4492188 8 A 0.55000001 0.55000001 0 0 0 4 8.5507812 A 0.55000001 0.55000001 0 0 0 4.5507812 8 L 4.5507812 4 C 4.5507812 3.1926726 5.1926726 2.5507813 6 2.5507812 L 13.449219 2.5507812 L 13.449219 6 C 13.449219 7.4018116 14.598188 8.5507812 16 8.5507812 L 19.449219 8.5507812 L 19.449219 20 C 19.449219 20.807327 18.807327 21.449219 18 21.449219 L 14.5 21.449219 A 0.55000001 0.55000001 0 0 0 13.949219 22 A 0.55000001 0.55000001 0 0 0 14.5 22.550781 L 18 22.550781 C 19.401812 22.550781 20.550781 21.401812 20.550781 20 L 20.550781 8.0019531 A 0.55000001 0.55000001 0 0 0 20.550781 8 A 0.55000001 0.55000001 0 0 0 20.550781 7.9980469 L 20.550781 7 A 0.55005501 0.55005501 0 0 0 20.388672 6.6113281 L 15.388672 1.6113281 A 0.55005501 0.55005501 0 0 0 15 1.4492188 L 14 1.4492188 L 13.998047 1.4492188 L 6 1.4492188 z M 14.550781 2.5507812 L 14.771484 2.5507812 L 19.449219 7.2285156 L 19.449219 7.4492188 L 16 7.4492188 C 15.192673 7.4492188 14.550781 6.8073274 14.550781 6 L 14.550781 2.5507812 z M 6.9882812 10.46875 C 6.5406711 10.46655 6.0934212 10.581466 5.6933594 10.814453 A 0.55005501 0.55005501 0 0 0 5.6835938 10.820312 L 2.7246094 12.623047 L 2.7226562 12.625 C 1.9248342 13.086696 1.4363868 13.94535 1.4492188 14.867188 L 1.4492188 18.099609 L 1.4511719 18.082031 C 1.4211359 19.005944 1.8948192 19.875985 2.6875 20.351562 L 5.7167969 22.171875 A 0.55005501 0.55005501 0 0 0 5.71875 22.171875 C 6.0625134 22.376637 6.4422533 22.49378 6.828125 22.523438 A 0.55000001 0.55000001 0 0 0 7 22.550781 A 0.55000001 0.55000001 0 0 0 7.1582031 22.527344 C 7.5562336 22.506564 7.9504561 22.392982 8.3066406 22.185547 A 0.55005501 0.55005501 0 0 0 8.3164062 22.179688 L 11.275391 20.376953 L 11.277344 20.375 C 12.075166 19.913304 12.563613 19.054651 12.550781 18.132812 L 12.550781 14.900391 L 12.548828 14.917969 C 12.578868 13.994058 12.105181 13.124015 11.3125 12.648438 L 8.2832031 10.828125 A 0.55005501 0.55005501 0 0 0 8.28125 10.828125 C 7.8834999 10.591207 7.4358915 10.470955 6.9882812 10.46875 z M 6.984375 11.568359 C 7.2388018 11.569751 7.4919355 11.638342 7.71875 11.773438 L 10.746094 13.591797 C 10.888072 13.676978 11.012403 13.783131 11.115234 13.90625 L 7 16.359375 L 2.8828125 13.90625 C 2.9909018 13.775972 3.1236493 13.663757 3.2753906 13.576172 A 0.55005501 0.55005501 0 0 0 3.2871094 13.570312 L 6.2460938 11.765625 C 6.4742283 11.632765 6.7299482 11.566968 6.984375 11.568359 z M 2.5507812 14.990234 L 6.4492188 17.3125 L 6.4492188 21.3125 C 6.3919016 21.287733 6.3357871 21.259048 6.28125 21.226562 L 3.2539062 19.408203 C 2.8018893 19.13701 2.5317002 18.644038 2.5488281 18.117188 A 0.55005501 0.55005501 0 0 0 2.5507812 18.099609 L 2.5507812 14.990234 z M 11.449219 14.990234 L 11.449219 18.140625 A 0.55005501 0.55005501 0 0 0 11.449219 18.148438 C 11.456519 18.67464 11.180387 19.160753 10.724609 19.423828 A 0.55005501 0.55005501 0 0 0 10.712891 19.429688 L 7.7539062 21.234375 C 7.6881921 21.272645 7.6202691 21.304916 7.5507812 21.332031 L 7.5507812 17.3125 L 11.449219 14.990234 z " />
</svg>
