<?xml version="1.0" encoding="UTF-8" standalone="no"?>
<svg
   width="24"
   height="24"
   viewBox="0 0 24 24"
   fill="none"
   stroke="currentColor"
   stroke-width="1.1"
   stroke-linecap="round"
   stroke-linejoin="round"
   version="1.1"
   id="svg3"
   sodipodi:docname=".tmp_file-clock.svg"
   xmlns:inkscape="http://www.inkscape.org/namespaces/inkscape"
   xmlns:sodipodi="http://sodipodi.sourceforge.net/DTD/sodipodi-0.dtd"
   xmlns="http://www.w3.org/2000/svg"
   xmlns:svg="http://www.w3.org/2000/svg">
  <defs
     id="defs3" />
  <sodipodi:namedview
     id="namedview3"
     pagecolor="#ffffff"
     bordercolor="#000000"
     borderopacity="0.25"
     inkscape:showpageshadow="2"
     inkscape:pageopacity="0.0"
     inkscape:pagecheckerboard="0"
     inkscape:deskcolor="#d1d1d1" />
  <path
     id="path1"
     style="baseline-shift:baseline;display:inline;overflow:visible;vector-effect:none;fill:#000000;stroke:none;stroke-linecap:butt;stroke-linejoin:miter;enable-background:accumulate;stop-color:#000000;stop-opacity:1;opacity:1"
     d="M 6 1.4492188 C 4.5981884 1.4492188 3.4492187 2.5981884 3.4492188 4 L 3.4492188 7 A 0.55000001 0.55000001 0 0 0 4 7.5507812 A 0.55000001 0.55000001 0 0 0 4.5507812 7 L 4.5507812 4 C 4.5507812 3.1926726 5.1926726 2.5507813 6 2.5507812 L 13.449219 2.5507812 L 13.449219 6 C 13.449219 7.4018116 14.598188 8.5507812 16 8.5507812 L 19.449219 8.5507812 L 19.449219 20 C 19.449219 20.807327 18.807327 21.449219 18 21.449219 L 16 21.449219 A 0.55000001 0.55000001 0 0 0 15.449219 22 A 0.55000001 0.55000001 0 0 0 16 22.550781 L 18 22.550781 C 19.401812 22.550781 20.550781 21.401812 20.550781 20 L 20.550781 8.0019531 A 0.55000001 0.55000001 0 0 0 20.550781 8 A 0.55000001 0.55000001 0 0 0 20.550781 7.9980469 L 20.550781 7 A 0.55005501 0.55005501 0 0 0 20.388672 6.6113281 L 15.388672 1.6113281 A 0.55005501 0.55005501 0 0 0 15 1.4492188 L 14 1.4492188 L 13.998047 1.4492188 L 6 1.4492188 z M 14.550781 2.5507812 L 14.771484 2.5507812 L 19.449219 7.2285156 L 19.449219 7.4492188 L 16 7.4492188 C 15.192673 7.4492188 14.550781 6.8073274 14.550781 6 L 14.550781 2.5507812 z M 8 9.4492188 C 4.3890494 9.4492188 1.4492189 12.389049 1.4492188 16 C 1.4492188 19.610951 4.3890494 22.550781 8 22.550781 C 11.610951 22.550781 14.550781 19.610951 14.550781 16 C 14.550781 12.389049 11.610951 9.4492187 8 9.4492188 z M 8 10.550781 C 11.016466 10.550781 13.449219 12.983534 13.449219 16 C 13.449219 19.016466 11.016466 21.449219 8 21.449219 C 4.9835336 21.449219 2.5507812 19.016466 2.5507812 16 C 2.5507812 12.983534 4.9835336 10.550781 8 10.550781 z M 8 13.449219 A 0.55000001 0.55000001 0 0 0 7.4492188 14 L 7.4492188 16.199219 A 0.55005501 0.55005501 0 0 0 7.7089844 16.666016 L 9.3085938 17.666016 A 0.55000001 0.55000001 0 0 0 10.066406 17.492188 A 0.55000001 0.55000001 0 0 0 9.890625 16.734375 L 8.5507812 15.894531 L 8.5507812 14 A 0.55000001 0.55000001 0 0 0 8 13.449219 z " />
</svg>
