<?xml version="1.0" encoding="UTF-8" standalone="no"?>
<svg
   width="24"
   height="24"
   viewBox="0 0 24 24"
   fill="none"
   stroke="currentColor"
   stroke-width="1.1"
   stroke-linecap="round"
   stroke-linejoin="round"
   version="1.1"
   id="svg2"
   sodipodi:docname=".tmp_git-commit-horizontal.svg"
   xmlns:inkscape="http://www.inkscape.org/namespaces/inkscape"
   xmlns:sodipodi="http://sodipodi.sourceforge.net/DTD/sodipodi-0.dtd"
   xmlns="http://www.w3.org/2000/svg"
   xmlns:svg="http://www.w3.org/2000/svg">
  <defs
     id="defs2" />
  <sodipodi:namedview
     id="namedview2"
     pagecolor="#ffffff"
     bordercolor="#000000"
     borderopacity="0.25"
     inkscape:showpageshadow="2"
     inkscape:pageopacity="0.0"
     inkscape:pagecheckerboard="0"
     inkscape:deskcolor="#d1d1d1" />
  <path
     id="circle1"
     style="baseline-shift:baseline;display:inline;overflow:visible;vector-effect:none;fill:#000000;stroke:none;stroke-linecap:butt;stroke-linejoin:miter;enable-background:accumulate;stop-color:#000000;stop-opacity:1;opacity:1"
     d="M 12 8.4492188 C 10.233143 8.4492188 8.7585647 9.7545793 8.4921875 11.449219 L 3 11.449219 A 0.55000001 0.55000001 0 0 0 2.4492188 12 A 0.55000001 0.55000001 0 0 0 3 12.550781 L 8.4921875 12.550781 C 8.7585647 14.245421 10.233143 15.550781 12 15.550781 C 13.766857 15.550781 15.241435 14.245421 15.507812 12.550781 L 21 12.550781 A 0.55000001 0.55000001 0 0 0 21.550781 12 A 0.55000001 0.55000001 0 0 0 21 11.449219 L 15.507812 11.449219 C 15.241435 9.7545793 13.766857 8.4492187 12 8.4492188 z M 12 9.5507812 C 13.359184 9.5507812 14.448532 10.639034 14.449219 11.998047 A 0.55000001 0.55000001 0 0 0 14.449219 12 A 0.55000001 0.55000001 0 0 0 14.449219 12.001953 C 14.448532 13.360966 13.359184 14.449219 12 14.449219 C 10.640816 14.449219 9.5514677 13.359013 9.5507812 12 A 0.55000001 0.55000001 0 0 0 9.5507812 11.998047 C 9.5514677 10.639034 10.640816 9.5507812 12 9.5507812 z " />
</svg>
