<?xml version="1.0" encoding="UTF-8" standalone="no"?>
<svg
   width="24"
   height="24"
   viewBox="0 0 24 24"
   fill="none"
   stroke="currentColor"
   stroke-width="1.1"
   stroke-linecap="round"
   stroke-linejoin="round"
   version="1.1"
   id="svg4"
   sodipodi:docname=".tmp_git-pull-request-create.svg"
   xmlns:inkscape="http://www.inkscape.org/namespaces/inkscape"
   xmlns:sodipodi="http://sodipodi.sourceforge.net/DTD/sodipodi-0.dtd"
   xmlns="http://www.w3.org/2000/svg"
   xmlns:svg="http://www.w3.org/2000/svg">
  <defs
     id="defs4" />
  <sodipodi:namedview
     id="namedview4"
     pagecolor="#ffffff"
     bordercolor="#000000"
     borderopacity="0.25"
     inkscape:showpageshadow="2"
     inkscape:pageopacity="0.0"
     inkscape:pagecheckerboard="0"
     inkscape:deskcolor="#d1d1d1" />
  <path
     id="circle1"
     style="baseline-shift:baseline;display:inline;overflow:visible;vector-effect:none;fill:#000000;stroke:none;stroke-linecap:butt;stroke-linejoin:miter;enable-background:accumulate;stop-color:#000000;stop-opacity:1;opacity:1"
     d="M 6 2.4492188 C 4.0459037 2.4492188 2.4492188 4.0459037 2.4492188 6 C 2.4492188 7.7668577 3.7545792 9.2414352 5.4492188 9.5078125 L 5.4492188 21 A 0.55000001 0.55000001 0 0 0 6 21.550781 A 0.55000001 0.55000001 0 0 0 6.5507812 21 L 6.5507812 9.5078125 C 8.2454208 9.2414352 9.5507812 7.7668577 9.5507812 6 C 9.5507812 4.0459037 7.9540963 2.4492188 6 2.4492188 z M 6 3.5507812 C 7.3596122 3.5507812 8.4492188 4.6403878 8.4492188 6 C 8.4492188 7.3591836 7.3590134 8.4485321 6 8.4492188 L 5.9980469 8.4492188 C 4.6390336 8.448532 3.5507813 7.3591836 3.5507812 6 C 3.5507812 4.6403878 4.6403878 3.5507813 6 3.5507812 z M 13 5.4492188 A 0.55000001 0.55000001 0 0 0 12.449219 6 A 0.55000001 0.55000001 0 0 0 13 6.5507812 L 16 6.5507812 C 16.807327 6.5507812 17.449219 7.1926726 17.449219 8 L 17.449219 11 A 0.55000001 0.55000001 0 0 0 18 11.550781 A 0.55000001 0.55000001 0 0 0 18.550781 11 L 18.550781 8 C 18.550781 6.5981884 17.401812 5.4492187 16 5.4492188 L 13 5.4492188 z M 18 14.449219 A 0.55000001 0.55000001 0 0 0 17.449219 15 L 17.449219 17.449219 L 15 17.449219 A 0.55000001 0.55000001 0 0 0 14.449219 18 A 0.55000001 0.55000001 0 0 0 15 18.550781 L 17.449219 18.550781 L 17.449219 21 A 0.55000001 0.55000001 0 0 0 18 21.550781 A 0.55000001 0.55000001 0 0 0 18.550781 21 L 18.550781 18.550781 L 21 18.550781 A 0.55000001 0.55000001 0 0 0 21.550781 18 A 0.55000001 0.55000001 0 0 0 21 17.449219 L 18.550781 17.449219 L 18.550781 15 A 0.55000001 0.55000001 0 0 0 18 14.449219 z " />
</svg>
