<?xml version="1.0" encoding="UTF-8" standalone="no"?>
<svg
   width="24"
   height="24"
   viewBox="0 0 24 24"
   fill="none"
   stroke="currentColor"
   stroke-width="1.1"
   stroke-linecap="round"
   stroke-linejoin="round"
   version="1.1"
   id="svg7"
   sodipodi:docname=".tmp_image-upscale.svg"
   xmlns:inkscape="http://www.inkscape.org/namespaces/inkscape"
   xmlns:sodipodi="http://sodipodi.sourceforge.net/DTD/sodipodi-0.dtd"
   xmlns="http://www.w3.org/2000/svg"
   xmlns:svg="http://www.w3.org/2000/svg">
  <defs
     id="defs7" />
  <sodipodi:namedview
     id="namedview7"
     pagecolor="#ffffff"
     bordercolor="#000000"
     borderopacity="0.25"
     inkscape:showpageshadow="2"
     inkscape:pageopacity="0.0"
     inkscape:pagecheckerboard="0"
     inkscape:deskcolor="#d1d1d1" />
  <path
     id="path1"
     style="baseline-shift:baseline;display:inline;overflow:visible;vector-effect:none;fill:#000000;stroke:none;stroke-linecap:butt;stroke-linejoin:miter;enable-background:accumulate;stop-color:#000000;stop-opacity:1;opacity:1"
     d="M 5 2.4492188 C 3.5981884 2.4492188 2.4492188 3.5981884 2.4492188 5 L 2.4492188 7 A 0.55000001 0.55000001 0 0 0 3 7.5507812 A 0.55000001 0.55000001 0 0 0 3.5507812 7 L 3.5507812 5 C 3.5507812 4.1926726 4.1926726 3.5507813 5 3.5507812 A 0.55000001 0.55000001 0 0 0 5.5507812 3 A 0.55000001 0.55000001 0 0 0 5 2.4492188 z M 9 2.4492188 A 0.55000001 0.55000001 0 0 0 8.4492188 3 A 0.55000001 0.55000001 0 0 0 9 3.5507812 L 12 3.5507812 A 0.55000001 0.55000001 0 0 0 12.550781 3 A 0.55000001 0.55000001 0 0 0 12 2.4492188 L 9 2.4492188 z M 16 2.4492188 A 0.55000001 0.55000001 0 0 0 15.449219 3 A 0.55000001 0.55000001 0 0 0 16 3.5507812 L 19.671875 3.5507812 L 15.611328 7.6113281 A 0.55000001 0.55000001 0 0 0 15.611328 8.3886719 A 0.55000001 0.55000001 0 0 0 16.388672 8.3886719 L 20.449219 4.328125 L 20.449219 8 A 0.55000001 0.55000001 0 0 0 21 8.5507812 A 0.55000001 0.55000001 0 0 0 21.550781 8 L 21.550781 3 A 0.55005501 0.55005501 0 0 0 21 2.4492188 L 16 2.4492188 z M 4 10.449219 C 3.1508135 10.449219 2.4492188 11.150813 2.4492188 12 L 2.4492188 20 C 2.4492188 20.849187 3.1508135 21.550781 4 21.550781 L 12 21.550781 C 12.849187 21.550781 13.550781 20.849187 13.550781 20 L 13.550781 12 C 13.550781 11.150813 12.849187 10.449219 12 10.449219 L 4 10.449219 z M 21 11.449219 A 0.55000001 0.55000001 0 0 0 20.449219 12 L 20.449219 15 A 0.55000001 0.55000001 0 0 0 21 15.550781 A 0.55000001 0.55000001 0 0 0 21.550781 15 L 21.550781 12 A 0.55000001 0.55000001 0 0 0 21 11.449219 z M 4 11.550781 L 12 11.550781 C 12.258813 11.550781 12.449219 11.741187 12.449219 12 L 12.449219 17.671875 L 11.244141 16.466797 C 10.902722 16.125058 10.451836 15.955078 10 15.955078 C 9.5481641 15.955078 9.0972784 16.125058 8.7558594 16.466797 L 4.7734375 20.449219 L 4 20.449219 C 3.7411865 20.449219 3.5507812 20.258813 3.5507812 20 L 3.5507812 12 C 3.5507812 11.741187 3.7411865 11.550781 4 11.550781 z M 10 17.046875 C 10.167795 17.046875 10.33559 17.112811 10.466797 17.244141 L 12.449219 19.226562 L 12.449219 20 C 12.449219 20.258813 12.258813 20.449219 12 20.449219 L 6.328125 20.449219 L 9.5332031 17.244141 C 9.66441 17.112811 9.832205 17.046875 10 17.046875 z M 21 18.449219 A 0.55000001 0.55000001 0 0 0 20.449219 19 C 20.449219 19.807327 19.807327 20.449219 19 20.449219 L 17 20.449219 A 0.55000001 0.55000001 0 0 0 16.449219 21 A 0.55000001 0.55000001 0 0 0 17 21.550781 L 19 21.550781 C 20.401812 21.550781 21.550781 20.401812 21.550781 19 A 0.55000001 0.55000001 0 0 0 21 18.449219 z " />
</svg>
