<?xml version="1.0" encoding="UTF-8" standalone="no"?>
<svg
   width="24"
   height="24"
   viewBox="0 0 24 24"
   fill="none"
   stroke="currentColor"
   stroke-width="1.1"
   stroke-linecap="round"
   stroke-linejoin="round"
   version="1.1"
   id="svg2"
   sodipodi:docname=".tmp_lectern.svg"
   xmlns:inkscape="http://www.inkscape.org/namespaces/inkscape"
   xmlns:sodipodi="http://sodipodi.sourceforge.net/DTD/sodipodi-0.dtd"
   xmlns="http://www.w3.org/2000/svg"
   xmlns:svg="http://www.w3.org/2000/svg">
  <defs
     id="defs2" />
  <sodipodi:namedview
     id="namedview2"
     pagecolor="#ffffff"
     bordercolor="#000000"
     borderopacity="0.25"
     inkscape:showpageshadow="2"
     inkscape:pageopacity="0.0"
     inkscape:pagecheckerboard="0"
     inkscape:deskcolor="#d1d1d1" />
  <path
     id="path1"
     style="baseline-shift:baseline;display:inline;overflow:visible;vector-effect:none;fill:#000000;stroke:none;stroke-linecap:butt;stroke-linejoin:miter;enable-background:accumulate;stop-color:#000000;stop-opacity:1;opacity:1"
     d="M 14 1.4492188 A 0.55000001 0.55000001 0 0 0 13.449219 2 A 0.55000001 0.55000001 0 0 0 14 2.5507812 L 17 2.5507812 C 17.255043 2.5507812 17.449219 2.7449573 17.449219 3 L 17.449219 5.4492188 L 3 5.4492188 C 1.9768557 5.4491477 1.2219826 6.4652113 1.515625 7.4453125 A 0.55005501 0.55005501 0 0 0 1.5175781 7.453125 L 2.5742188 10.787109 A 0.55005501 0.55005501 0 0 0 2.5742188 10.791016 C 2.9162373 11.838081 3.8985009 12.551251 5 12.550781 L 7.4492188 12.550781 L 7.4492188 21 C 7.4492188 21.849187 8.1508135 22.550781 9 22.550781 L 15 22.550781 C 15.849187 22.550781 16.550781 21.849187 16.550781 21 L 16.550781 12.550781 L 19 12.550781 C 20.101837 12.551072 21.084212 11.838572 21.425781 10.791016 A 0.55005501 0.55005501 0 0 0 21.425781 10.785156 L 22.482422 7.453125 A 0.55005501 0.55005501 0 0 0 22.484375 7.4453125 C 22.77797 6.4652488 22.023144 5.4491477 21 5.4492188 L 18.550781 5.4492188 L 18.550781 3 C 18.550781 2.1504732 17.849527 1.4492188 17 1.4492188 L 14 1.4492188 z M 3 6.5507812 L 18 6.5507812 L 18.001953 6.5507812 L 21 6.5507812 C 21.316335 6.5507593 21.522429 6.8258788 21.431641 7.1289062 L 20.376953 10.451172 C 20.180881 11.048559 19.628973 11.449384 19 11.449219 L 16.550781 11.449219 L 16.550781 11 C 16.550781 10.150813 15.849187 9.4492187 15 9.4492188 L 9 9.4492188 C 8.1508135 9.4492188 7.4492187 10.150813 7.4492188 11 L 7.4492188 11.449219 L 5 11.449219 C 4.3717801 11.449487 3.8198275 11.051299 3.6230469 10.455078 L 3.6230469 10.453125 L 3.6230469 10.451172 L 3.6210938 10.451172 L 2.5683594 7.1289062 C 2.4775711 6.8258788 2.6836645 6.5507594 3 6.5507812 z M 9 10.550781 L 15 10.550781 C 15.258813 10.550781 15.449219 10.741187 15.449219 11 L 15.449219 11.998047 L 15.449219 12.001953 L 15.449219 21 C 15.449219 21.258813 15.258813 21.449219 15 21.449219 L 9 21.449219 C 8.7411865 21.449219 8.5507812 21.258813 8.5507812 21 L 8.5507812 12.001953 A 0.55000001 0.55000001 0 0 0 8.5507812 12 A 0.55000001 0.55000001 0 0 0 8.5507812 11.998047 L 8.5507812 11 C 8.5507812 10.741187 8.7411865 10.550781 9 10.550781 z " />
</svg>
