<?xml version="1.0" encoding="UTF-8" standalone="no"?>
<svg
   width="24"
   height="24"
   viewBox="0 0 24 24"
   fill="none"
   stroke="currentColor"
   stroke-width="1.1"
   stroke-linecap="round"
   stroke-linejoin="round"
   version="1.1"
   id="svg4"
   sodipodi:docname=".tmp_life-buoy.svg"
   xmlns:inkscape="http://www.inkscape.org/namespaces/inkscape"
   xmlns:sodipodi="http://sodipodi.sourceforge.net/DTD/sodipodi-0.dtd"
   xmlns="http://www.w3.org/2000/svg"
   xmlns:svg="http://www.w3.org/2000/svg">
  <defs
     id="defs4" />
  <sodipodi:namedview
     id="namedview4"
     pagecolor="#ffffff"
     bordercolor="#000000"
     borderopacity="0.25"
     inkscape:showpageshadow="2"
     inkscape:pageopacity="0.0"
     inkscape:pagecheckerboard="0"
     inkscape:deskcolor="#d1d1d1" />
  <path
     id="circle1"
     style="baseline-shift:baseline;display:inline;overflow:visible;vector-effect:none;fill:#000000;stroke:none;stroke-linecap:butt;stroke-linejoin:miter;enable-background:accumulate;stop-color:#000000;stop-opacity:1;opacity:1"
     d="M 12 1.4492188 C 9.1047921 1.4492188 6.4800795 2.6206193 4.5722656 4.5136719 A 0.55000001 0.55000001 0 0 0 4.5410156 4.5410156 A 0.55000001 0.55000001 0 0 0 4.5136719 4.5722656 C 2.6206193 6.4800795 1.4492187 9.1047921 1.4492188 12 C 1.4492188 14.89521 2.6206175 17.51992 4.5136719 19.427734 A 0.55000001 0.55000001 0 0 0 4.5410156 19.458984 A 0.55000001 0.55000001 0 0 0 4.5722656 19.486328 C 6.4800797 21.379382 9.1047906 22.550781 12 22.550781 C 14.895211 22.550781 17.51992 21.379384 19.427734 19.486328 A 0.55000001 0.55000001 0 0 0 19.458984 19.458984 A 0.55000001 0.55000001 0 0 0 19.486328 19.427734 C 21.379384 17.51992 22.550781 14.895211 22.550781 12 C 22.550781 9.1047906 21.379382 6.4800797 19.486328 4.5722656 A 0.55000001 0.55000001 0 0 0 19.458984 4.5410156 A 0.55000001 0.55000001 0 0 0 19.427734 4.5136719 C 17.51992 2.6206175 14.89521 1.4492187 12 1.4492188 z M 12 2.5507812 C 14.414652 2.5507812 16.616247 3.451714 18.285156 4.9375 L 14.802734 8.4199219 C 14.029153 7.812602 13.055855 7.4492188 12 7.4492188 C 10.944145 7.4492188 9.970847 7.812602 9.1972656 8.4199219 L 5.7148438 4.9375 C 7.3837532 3.4517141 9.5853483 2.5507812 12 2.5507812 z M 4.9375 5.7148438 L 8.4199219 9.1972656 C 7.812602 9.970847 7.4492188 10.944145 7.4492188 12 C 7.4492188 13.055855 7.812602 14.029153 8.4199219 14.802734 L 4.9375 18.285156 C 3.451714 16.616247 2.5507813 14.414652 2.5507812 12 C 2.5507812 9.5853483 3.4517141 7.3837532 4.9375 5.7148438 z M 19.0625 5.7148438 C 20.548286 7.3837532 21.449219 9.5853482 21.449219 12 C 21.449219 14.414652 20.548286 16.616247 19.0625 18.285156 L 15.580078 14.802734 C 16.187398 14.029153 16.550781 13.055855 16.550781 12 C 16.550781 10.944145 16.187398 9.970847 15.580078 9.1972656 L 19.0625 5.7148438 z M 12 8.5507812 C 12.950679 8.5507812 13.809143 8.9315714 14.431641 9.5488281 C 14.438542 9.5556712 14.444329 9.5614582 14.451172 9.5683594 C 15.068429 10.190857 15.449219 11.049321 15.449219 12 C 15.449219 12.950105 15.069723 13.807282 14.453125 14.429688 C 14.445911 14.43697 14.438919 14.443954 14.431641 14.451172 C 13.809144 15.068425 12.950676 15.449219 12 15.449219 C 11.049321 15.449219 10.190857 15.068429 9.5683594 14.451172 A 0.55000001 0.55000001 0 0 0 9.5585938 14.441406 C 9.5546416 14.437455 9.5508079 14.433657 9.546875 14.429688 C 8.9302737 13.807281 8.5507813 12.950108 8.5507812 12 C 8.5507812 11.049318 8.9315681 10.190857 9.5488281 9.5683594 A 0.55000001 0.55000001 0 0 0 9.5585938 9.5585938 C 9.562028 9.5551595 9.5649107 9.5522478 9.5683594 9.5488281 C 10.190857 8.9315681 11.049318 8.5507813 12 8.5507812 z M 9.1972656 15.580078 C 9.970847 16.187398 10.944145 16.550781 12 16.550781 C 13.055855 16.550781 14.029153 16.187398 14.802734 15.580078 L 18.285156 19.0625 C 16.616247 20.548286 14.414652 21.449219 12 21.449219 C 9.5853482 21.449219 7.3837532 20.548286 5.7148438 19.0625 L 9.1972656 15.580078 z " />
</svg>
