<?xml version="1.0" encoding="UTF-8" standalone="no"?>
<svg
   width="24"
   height="24"
   viewBox="0 0 24 24"
   fill="none"
   stroke="currentColor"
   stroke-width="1.1"
   stroke-linecap="round"
   stroke-linejoin="round"
   version="1.1"
   id="svg2"
   sodipodi:docname=".tmp_mic.svg"
   xmlns:inkscape="http://www.inkscape.org/namespaces/inkscape"
   xmlns:sodipodi="http://sodipodi.sourceforge.net/DTD/sodipodi-0.dtd"
   xmlns="http://www.w3.org/2000/svg"
   xmlns:svg="http://www.w3.org/2000/svg">
  <defs
     id="defs2" />
  <sodipodi:namedview
     id="namedview2"
     pagecolor="#ffffff"
     bordercolor="#000000"
     borderopacity="0.25"
     inkscape:showpageshadow="2"
     inkscape:pageopacity="0.0"
     inkscape:pagecheckerboard="0"
     inkscape:deskcolor="#d1d1d1" />
  <path
     id="path1"
     style="baseline-shift:baseline;display:inline;overflow:visible;vector-effect:none;fill:#000000;stroke:none;stroke-linecap:butt;stroke-linejoin:miter;enable-background:accumulate;stop-color:#000000;stop-opacity:1;opacity:1"
     d="M 12 1.4492188 C 10.042813 1.4492188 8.4492188 3.0428135 8.4492188 5 L 8.4492188 12 C 8.4492188 13.957187 10.042813 15.550781 12 15.550781 C 13.957187 15.550781 15.550781 13.957187 15.550781 12 L 15.550781 5 C 15.550781 3.0428135 13.957187 1.4492187 12 1.4492188 z M 12 2.5507812 C 13.366813 2.5507812 14.449219 3.6331865 14.449219 5 L 14.449219 12 C 14.449219 13.366813 13.366813 14.449219 12 14.449219 C 10.633187 14.449219 9.5507812 13.366813 9.5507812 12 L 9.5507812 5 C 9.5507812 3.6331865 10.633187 2.5507813 12 2.5507812 z M 5 9.4492188 A 0.55000001 0.55000001 0 0 0 4.4492188 10 L 4.4492188 12 C 4.4492188 15.978032 7.5420726 19.248201 11.449219 19.53125 L 11.449219 22 A 0.55000001 0.55000001 0 0 0 12 22.550781 A 0.55000001 0.55000001 0 0 0 12.550781 22 L 12.550781 19.53125 C 16.457928 19.248201 19.550781 15.978032 19.550781 12 L 19.550781 10 A 0.55000001 0.55000001 0 0 0 19 9.4492188 A 0.55000001 0.55000001 0 0 0 18.449219 10 L 18.449219 12 C 18.449219 15.568273 15.570038 18.448442 12.001953 18.449219 A 0.55000001 0.55000001 0 0 0 12 18.449219 A 0.55000001 0.55000001 0 0 0 11.998047 18.449219 C 8.429962 18.448442 5.5507813 15.568273 5.5507812 12 L 5.5507812 10 A 0.55000001 0.55000001 0 0 0 5 9.4492188 z " />
</svg>
