<?xml version="1.0" encoding="UTF-8" standalone="no"?>
<svg
   width="24"
   height="24"
   viewBox="0 0 24 24"
   fill="none"
   stroke="currentColor"
   stroke-width="1.1"
   stroke-linecap="round"
   stroke-linejoin="round"
   version="1.1"
   id="svg2"
   sodipodi:docname=".tmp_parentheses.svg"
   xmlns:inkscape="http://www.inkscape.org/namespaces/inkscape"
   xmlns:sodipodi="http://sodipodi.sourceforge.net/DTD/sodipodi-0.dtd"
   xmlns="http://www.w3.org/2000/svg"
   xmlns:svg="http://www.w3.org/2000/svg">
  <defs
     id="defs2" />
  <sodipodi:namedview
     id="namedview2"
     pagecolor="#ffffff"
     bordercolor="#000000"
     borderopacity="0.25"
     inkscape:showpageshadow="2"
     inkscape:pageopacity="0.0"
     inkscape:pagecheckerboard="0"
     inkscape:deskcolor="#d1d1d1" />
  <path
     id="path1"
     style="baseline-shift:baseline;display:inline;overflow:visible;vector-effect:none;fill:#000000;stroke:none;stroke-linecap:butt;stroke-linejoin:miter;enable-background:accumulate;stop-color:#000000;stop-opacity:1;opacity:1"
     d="M 8.0058594 2.4511719 A 0.55000001 0.55000001 0 0 0 7.6699219 2.5605469 C 7.6699219 2.5605469 3.4492187 5.7555556 3.4492188 12 C 3.4492188 18.244444 7.6699219 21.439453 7.6699219 21.439453 A 0.55000001 0.55000001 0 0 0 8.4394531 21.330078 A 0.55000001 0.55000001 0 0 0 8.3300781 20.560547 C 8.3300781 20.560547 4.5507813 17.755556 4.5507812 12 C 4.5507812 6.2444444 8.3300781 3.4394531 8.3300781 3.4394531 A 0.55000001 0.55000001 0 0 0 8.4394531 2.6699219 A 0.55000001 0.55000001 0 0 0 8.0058594 2.4511719 z M 15.994141 2.4511719 A 0.55000001 0.55000001 0 0 0 15.560547 2.6699219 A 0.55000001 0.55000001 0 0 0 15.669922 3.4394531 C 15.669922 3.4394531 19.449219 6.2444444 19.449219 12 C 19.449219 17.755556 15.669922 20.560547 15.669922 20.560547 A 0.55000001 0.55000001 0 0 0 15.560547 21.330078 A 0.55000001 0.55000001 0 0 0 16.330078 21.439453 C 16.330078 21.439453 20.550781 18.244444 20.550781 12 C 20.550781 5.7555556 16.330078 2.5605469 16.330078 2.5605469 A 0.55000001 0.55000001 0 0 0 15.994141 2.4511719 z " />
</svg>
