<?xml version="1.0" encoding="UTF-8" standalone="no"?>
<svg
   width="24"
   height="24"
   viewBox="0 0 24 24"
   fill="none"
   stroke="currentColor"
   stroke-width="1.1"
   stroke-linecap="round"
   stroke-linejoin="round"
   version="1.1"
   id="svg5"
   sodipodi:docname=".tmp_pointer.svg"
   xmlns:inkscape="http://www.inkscape.org/namespaces/inkscape"
   xmlns:sodipodi="http://sodipodi.sourceforge.net/DTD/sodipodi-0.dtd"
   xmlns="http://www.w3.org/2000/svg"
   xmlns:svg="http://www.w3.org/2000/svg">
  <defs
     id="defs5" />
  <sodipodi:namedview
     id="namedview5"
     pagecolor="#ffffff"
     bordercolor="#000000"
     borderopacity="0.25"
     inkscape:showpageshadow="2"
     inkscape:pageopacity="0.0"
     inkscape:pagecheckerboard="0"
     inkscape:deskcolor="#d1d1d1" />
  <path
     id="path1"
     style="baseline-shift:baseline;display:inline;overflow:visible;vector-effect:none;fill:#000000;stroke:none;stroke-linecap:butt;stroke-linejoin:miter;enable-background:accumulate;stop-color:#000000;stop-opacity:1;opacity:1"
     d="M 8 1.4492188 C 6.5981884 1.4492188 5.4492187 2.5981884 5.4492188 4 L 5.4492188 12.699219 C 4.9143922 12.278982 4.298099 12.102713 3.7246094 12.146484 C 3.0929292 12.194698 2.5215227 12.4878 2.09375 12.914062 C 1.6659773 13.340324 1.3727152 13.90951 1.3222656 14.541016 C 1.2718156 15.172521 1.4861093 15.85643 2.0019531 16.427734 A 0.55005501 0.55005501 0 0 0 2.0214844 16.449219 L 5.6210938 20.048828 A 0.55005501 0.55005501 0 0 0 5.6230469 20.050781 C 7.1858671 21.603113 9.0873809 22.550781 12 22.550781 L 14 22.550781 C 18.71552 22.550781 22.550781 18.71552 22.550781 14 A 0.55000001 0.55000001 0 0 0 22.550781 13.998047 L 22.550781 11 C 22.550781 10.195834 22.228634 9.5239769 21.740234 9.0898438 C 21.251838 8.6556685 20.622222 8.4492188 20 8.4492188 C 19.4157 8.4492188 18.825842 8.6319796 18.351562 9.0136719 C 17.963407 8.0975754 17.052489 7.4492187 16 7.4492188 C 15.379438 7.4492188 14.808955 7.674289 14.365234 8.046875 C 13.985368 7.1128618 13.065451 6.4492187 12 6.4492188 C 11.463041 6.4492188 10.96318 6.6174968 10.550781 6.9042969 L 10.550781 4 C 10.550781 2.5981884 9.4018116 1.4492188 8 1.4492188 z M 8 2.5507812 C 8.8073274 2.5507812 9.4492188 3.1926726 9.4492188 4 L 9.4492188 9.5 A 0.55000001 0.55000001 0 0 0 9.4492188 9.5019531 L 9.4492188 10 A 0.55000001 0.55000001 0 0 0 10 10.550781 A 0.55000001 0.55000001 0 0 0 10.550781 10 L 10.550781 9.5 L 10.550781 9 C 10.550781 8.1926726 11.192673 7.5507812 12 7.5507812 C 12.807327 7.5507812 13.449219 8.1926726 13.449219 9 L 13.449219 10 A 0.55000001 0.55000001 0 0 0 14 10.550781 A 0.55000001 0.55000001 0 0 0 14.072266 10.546875 A 0.55000001 0.55000001 0 0 0 14.550781 10 C 14.550781 9.1926726 15.192673 8.5507812 16 8.5507812 C 16.807327 8.5507812 17.449219 9.1926726 17.449219 10 L 17.449219 11 A 0.55000001 0.55000001 0 0 0 18 11.550781 A 0.55000001 0.55000001 0 0 0 18.550781 11 C 18.550781 10.470834 18.728634 10.142689 18.990234 9.9101562 C 19.251834 9.677623 19.622222 9.5507812 20 9.5507812 C 20.377778 9.5507812 20.748166 9.677623 21.009766 9.9101562 C 21.271366 10.142689 21.449219 10.470834 21.449219 11 L 21.449219 13.998047 A 0.55000001 0.55000001 0 0 0 21.449219 14 C 21.449219 15.802953 20.811761 17.455057 19.75 18.742188 C 19.59832 18.926063 19.437928 19.101134 19.269531 19.269531 C 18.090753 20.44831 16.518933 21.232479 14.763672 21.410156 C 14.51292 21.435539 14.257565 21.449219 14 21.449219 L 13.998047 21.449219 L 12 21.449219 C 9.3126191 21.449219 7.8156172 20.6772 6.3984375 19.269531 L 2.8183594 15.691406 C 2.4835697 15.320622 2.3907469 14.969656 2.4179688 14.628906 C 2.4451908 14.288157 2.613476 13.950067 2.8710938 13.693359 C 3.1287114 13.436652 3.4677499 13.270156 3.8085938 13.244141 C 4.1494374 13.218121 4.4995437 13.310381 4.8691406 13.646484 L 5.5839844 14.361328 A 0.55000001 0.55000001 0 0 0 5.6386719 14.416016 L 6.6113281 15.388672 A 0.55000001 0.55000001 0 0 0 7.3886719 15.388672 A 0.55000001 0.55000001 0 0 0 7.3886719 14.611328 L 6.5507812 13.773438 L 6.5507812 4 C 6.5507812 3.1926726 7.1926726 2.5507813 8 2.5507812 z " />
</svg>
