<?xml version="1.0" encoding="UTF-8" standalone="no"?>
<svg
   width="24"
   height="24"
   viewBox="0 0 24 24"
   fill="none"
   stroke="currentColor"
   stroke-width="1.1"
   stroke-linecap="round"
   stroke-linejoin="round"
   version="1.1"
   id="svg1"
   sodipodi:docname=".tmp_radical.svg"
   xmlns:inkscape="http://www.inkscape.org/namespaces/inkscape"
   xmlns:sodipodi="http://sodipodi.sourceforge.net/DTD/sodipodi-0.dtd"
   xmlns="http://www.w3.org/2000/svg"
   xmlns:svg="http://www.w3.org/2000/svg">
  <defs
     id="defs1" />
  <sodipodi:namedview
     id="namedview1"
     pagecolor="#ffffff"
     bordercolor="#000000"
     borderopacity="0.25"
     inkscape:showpageshadow="2"
     inkscape:pageopacity="0.0"
     inkscape:pagecheckerboard="0"
     inkscape:deskcolor="#d1d1d1" />
  <path
     id="path1"
     style="baseline-shift:baseline;display:inline;overflow:visible;vector-effect:none;fill:#000000;stroke:none;stroke-linecap:butt;stroke-linejoin:miter;enable-background:accumulate;stop-color:#000000;stop-opacity:1;opacity:1"
     d="M 14.791016 3.4492188 C 14.075503 3.4502388 13.449008 3.9480315 13.285156 4.6445312 A 0.55005501 0.55005501 0 0 0 13.28125 4.6582031 L 9.9921875 20.248047 L 7.7558594 12.53125 A 0.55005501 0.55005501 0 0 0 7.75 12.509766 C 7.5399339 11.879062 6.9460165 11.449723 6.28125 11.449219 A 0.55005501 0.55005501 0 0 0 6.2792969 11.449219 L 3 11.449219 A 0.55000001 0.55000001 0 0 0 2.4492188 12 A 0.55000001 0.55000001 0 0 0 3 12.550781 L 6.2792969 12.550781 C 6.4739955 12.550929 6.6424511 12.671405 6.7050781 12.855469 L 8.9980469 20.771484 A 0.55005501 0.55005501 0 0 0 9.0058594 20.794922 C 9.1630488 21.259935 9.6266723 21.525119 10.046875 21.505859 C 10.467078 21.486599 10.907491 21.178614 11.021484 20.701172 A 0.55005501 0.55005501 0 0 0 11.023438 20.6875 L 14.355469 4.8964844 C 14.403919 4.6905516 14.581414 4.5510831 14.792969 4.5507812 L 21 4.5507812 A 0.55000001 0.55000001 0 0 0 21.550781 4 A 0.55000001 0.55000001 0 0 0 21 3.4492188 L 14.792969 3.4492188 A 0.55005501 0.55005501 0 0 0 14.791016 3.4492188 z " />
</svg>
