<?xml version="1.0" encoding="UTF-8" standalone="no"?>
<svg
   width="24"
   height="24"
   viewBox="0 0 24 24"
   fill="none"
   stroke="currentColor"
   stroke-width="1.1"
   stroke-linecap="round"
   stroke-linejoin="round"
   version="1.1"
   id="svg5"
   sodipodi:docname=".tmp_rat.svg"
   xmlns:inkscape="http://www.inkscape.org/namespaces/inkscape"
   xmlns:sodipodi="http://sodipodi.sourceforge.net/DTD/sodipodi-0.dtd"
   xmlns="http://www.w3.org/2000/svg"
   xmlns:svg="http://www.w3.org/2000/svg">
  <defs
     id="defs5" />
  <sodipodi:namedview
     id="namedview5"
     pagecolor="#ffffff"
     bordercolor="#000000"
     borderopacity="0.25"
     inkscape:showpageshadow="2"
     inkscape:pageopacity="0.0"
     inkscape:pagecheckerboard="0"
     inkscape:deskcolor="#d1d1d1" />
  <path
     id="path1"
     style="baseline-shift:baseline;display:inline;overflow:visible;vector-effect:none;fill:#000000;stroke:none;stroke-linecap:butt;stroke-linejoin:miter;enable-background:accumulate;stop-color:#000000;stop-opacity:1;opacity:1"
     d="M 14.001953 1.4511719 C 13.571344 1.4498129 13.129771 1.5285464 12.697266 1.6992188 C 10.702017 2.4865745 10.02984 4.7911976 10.947266 6.5859375 C 6.8729398 6.6288082 3.43673 9.8283757 3.4492188 14.017578 C 3.4543559 15.387477 4.0704156 16.617323 5.0371094 17.449219 L 4 17.449219 C 3.1958336 17.449219 2.5239769 17.771366 2.0898438 18.259766 C 1.6557106 18.748166 1.4492188 19.377778 1.4492188 20 C 1.4492188 20.622222 1.6557106 21.251834 2.0898438 21.740234 C 2.5239768 22.228634 3.1958336 22.550781 4 22.550781 L 13 22.550781 A 0.55000001 0.55000001 0 0 0 13.550781 22 A 0.55000001 0.55000001 0 0 0 13 21.449219 L 4 21.449219 C 3.4708337 21.449219 3.1426894 21.271366 2.9101562 21.009766 C 2.6776231 20.748166 2.5507812 20.377778 2.5507812 20 C 2.5507812 19.622222 2.677623 19.251834 2.9101562 18.990234 C 3.1426893 18.728634 3.4708337 18.550781 4 18.550781 L 8 18.550781 L 8.0019531 18.550781 L 16 18.550781 A 0.55000001 0.55000001 0 0 0 16.550781 18 A 0.55000001 0.55000001 0 0 0 16 17.449219 L 14.246094 17.449219 C 14.441028 17.01586 14.534759 16.560034 14.546875 16.107422 A 0.55000001 0.55000001 0 0 0 14.550781 16.035156 C 14.529201 14.493928 15.888408 13.326937 17.408203 13.583984 A 0.55005501 0.55005501 0 0 0 17.414062 13.585938 L 20.287109 14.039062 A 0.55005501 0.55005501 0 0 0 20.326172 14.042969 C 21.852783 14.173319 22.993421 12.575644 22.375 11.173828 A 0.55005501 0.55005501 0 0 0 22.322266 11.080078 L 20.822266 8.9394531 C 22.466939 7.9077868 23.080117 5.7241211 21.957031 4.0351562 C 21.328365 3.0897299 20.33486 2.5586992 19.302734 2.4707031 C 18.500699 2.4023239 17.67451 2.6007709 16.980469 3.0800781 C 16.409348 2.2067275 15.468008 1.6113444 14.427734 1.4785156 C 14.28716 1.4605661 14.14549 1.4516249 14.001953 1.4511719 z M 14.011719 2.5429688 C 15.307006 2.5384894 16.443357 3.5744751 16.449219 4.9902344 A 0.55000001 0.55000001 0 0 0 17.001953 5.5371094 A 0.55000001 0.55000001 0 0 0 17.550781 4.9863281 C 17.549524 4.6827367 17.511368 4.3906667 17.439453 4.1132812 C 18.544728 3.1884809 20.217645 3.4043432 21.041016 4.6425781 C 21.920551 5.9652778 21.350034 7.7337705 19.863281 8.2929688 A 0.55005501 0.55005501 0 0 0 19.607422 9.1230469 L 21.367188 11.632812 C 21.652171 12.309181 21.156952 13.004652 20.421875 12.945312 L 17.591797 12.5 C 16.125746 12.252042 14.740183 12.947866 14.001953 14.103516 C 13.401712 13.152061 12.342579 12.464761 11.042969 12.449219 A 0.55000001 0.55000001 0 0 0 10.486328 12.994141 A 0.55000001 0.55000001 0 0 0 11.029297 13.550781 C 12.101428 13.563601 12.878247 14.186537 13.242188 15.013672 C 13.358105 15.277121 13.431386 15.558286 13.453125 15.84375 C 13.450162 15.91189 13.44825 15.979666 13.449219 16.048828 A 0.55000001 0.55000001 0 0 0 13.457031 16.132812 C 13.43638 16.583444 13.285085 17.03694 12.976562 17.449219 L 8.0019531 17.449219 L 8 17.449219 C 6.0932423 17.449206 4.5579317 15.920423 4.5507812 14.013672 C 4.5392404 10.14242 7.8904264 7.1434896 11.736328 7.5859375 A 0.55005501 0.55005501 0 0 0 12.203125 6.6660156 C 11.018477 5.3881762 11.480728 3.360309 13.101562 2.7207031 C 13.405469 2.600777 13.712806 2.5440024 14.011719 2.5429688 z M 16 8.4492188 A 0.55000001 0.55000001 0 0 0 15.449219 9 A 0.55000001 0.55000001 0 0 0 16 9.5507812 L 16.009766 9.5507812 A 0.55000001 0.55000001 0 0 0 16.560547 9 A 0.55000001 0.55000001 0 0 0 16.009766 8.4492188 L 16 8.4492188 z " />
</svg>
