<?xml version="1.0" encoding="UTF-8" standalone="no"?>
<svg
   width="24"
   height="24"
   viewBox="0 0 24 24"
   fill="none"
   stroke="currentColor"
   stroke-width="1.1"
   stroke-linecap="round"
   stroke-linejoin="round"
   version="1.1"
   id="svg7"
   sodipodi:docname=".tmp_save-off.svg"
   xmlns:inkscape="http://www.inkscape.org/namespaces/inkscape"
   xmlns:sodipodi="http://sodipodi.sourceforge.net/DTD/sodipodi-0.dtd"
   xmlns="http://www.w3.org/2000/svg"
   xmlns:svg="http://www.w3.org/2000/svg">
  <defs
     id="defs7" />
  <sodipodi:namedview
     id="namedview7"
     pagecolor="#ffffff"
     bordercolor="#000000"
     borderopacity="0.25"
     inkscape:showpageshadow="2"
     inkscape:pageopacity="0.0"
     inkscape:pagecheckerboard="0"
     inkscape:deskcolor="#d1d1d1" />
  <path
     id="path1"
     style="baseline-shift:baseline;display:inline;overflow:visible;vector-effect:none;fill:#000000;stroke:none;stroke-linecap:butt;stroke-linejoin:miter;enable-background:accumulate;stop-color:#000000;stop-opacity:1;opacity:1"
     d="M 2 1.4492188 A 0.55000001 0.55000001 0 0 0 1.6113281 1.6113281 A 0.55000001 0.55000001 0 0 0 1.6113281 2.3886719 L 2.8535156 3.6308594 C 2.5936397 4.0357555 2.451276 4.5100946 2.4492188 4.9980469 A 0.55005501 0.55005501 0 0 0 2.4492188 5 L 2.4492188 19 C 2.4492188 20.401812 3.5981884 21.550781 5 21.550781 L 7 21.550781 L 7.0019531 21.550781 L 17 21.550781 L 17.001953 21.550781 L 19 21.550781 A 0.55005501 0.55005501 0 0 0 19.001953 21.550781 C 19.489895 21.548757 19.96425 21.40636 20.369141 21.146484 L 21.611328 22.388672 A 0.55000001 0.55000001 0 0 0 22.388672 22.388672 A 0.55000001 0.55000001 0 0 0 22.388672 21.611328 L 20.802734 20.025391 A 0.55000001 0.55000001 0 0 0 20.796875 20.019531 A 0.55000001 0.55000001 0 0 0 20.792969 20.015625 L 17.416016 16.638672 A 0.55000001 0.55000001 0 0 0 17.361328 16.583984 L 13.416016 12.638672 A 0.55000001 0.55000001 0 0 0 13.361328 12.583984 L 3.9804688 3.203125 A 0.55000001 0.55000001 0 0 0 3.9765625 3.1992188 L 2.3886719 1.6113281 A 0.55000001 0.55000001 0 0 0 2 1.4492188 z M 9 2.4492188 A 0.55000001 0.55000001 0 0 0 8.4492188 3 A 0.55000001 0.55000001 0 0 0 9 3.5507812 L 15.191406 3.5507812 C 15.574078 3.5562313 15.939173 3.7110273 16.207031 3.984375 A 0.55005501 0.55005501 0 0 0 16.210938 3.9882812 L 20.011719 7.7890625 A 0.55005501 0.55005501 0 0 0 20.015625 7.7929688 C 20.288973 8.0608271 20.443768 8.4259224 20.449219 8.8085938 L 20.449219 15 A 0.55000001 0.55000001 0 0 0 21 15.550781 A 0.55000001 0.55000001 0 0 0 21.550781 15 L 21.550781 8.8007812 A 0.55005501 0.55005501 0 0 0 21.550781 8.7929688 C 21.541204 8.1205604 21.265466 7.4784761 20.785156 7.0078125 L 16.992188 3.2148438 C 16.521524 2.7345343 15.879437 2.4587962 15.207031 2.4492188 A 0.55005501 0.55005501 0 0 0 15.199219 2.4492188 L 9 2.4492188 z M 3.6660156 4.4433594 L 11.671875 12.449219 L 8 12.449219 C 7.1504732 12.449219 6.4492187 13.150473 6.4492188 14 L 6.4492188 20.449219 L 5 20.449219 C 4.1926726 20.449175 3.5507813 19.807327 3.5507812 19 L 3.5507812 5.0019531 L 3.5507812 5 C 3.5518467 4.8064331 3.5920031 4.6178894 3.6660156 4.4433594 z M 14 7.4492188 A 0.55000001 0.55000001 0 0 0 13.449219 8 A 0.55000001 0.55000001 0 0 0 14 8.5507812 L 15 8.5507812 A 0.55000001 0.55000001 0 0 0 15.550781 8 A 0.55000001 0.55000001 0 0 0 15 7.4492188 L 14 7.4492188 z M 29.5 10.951172 A 0.55000001 0.55000001 0 0 0 29.111328 11.111328 A 0.55000001 0.55000001 0 0 0 29.111328 11.888672 C 29.111328 11.888672 30.355349 13.132245 31.466797 14.367188 C 32.022521 14.984659 32.545802 15.604773 32.845703 16.033203 C 32.976886 16.220607 33.035802 16.348571 33.056641 16.392578 A 0.55000001 0.55000001 0 0 0 32.949219 16.5 A 0.55000001 0.55000001 0 0 0 33.5 17.050781 C 33.677083 17.050781 33.988071 16.935966 34.111328 16.689453 C 34.234585 16.44294 34.182418 16.259753 34.142578 16.126953 C 34.062898 15.861353 33.926221 15.658832 33.748047 15.404297 C 33.391698 14.895227 32.852479 14.26534 32.283203 13.632812 C 31.144651 12.367755 29.888672 11.111328 29.888672 11.111328 A 0.55000001 0.55000001 0 0 0 29.5 10.951172 z M 8 13.550781 L 12.773438 13.550781 L 16.449219 17.226562 L 16.449219 20.449219 L 7.5507812 20.449219 L 7.5507812 14 C 7.5507812 13.744957 7.7449573 13.550781 8 13.550781 z M 33.488281 15.949219 C 33.492865 15.948629 33.496745 15.949219 33.5 15.949219 A 0.55000001 0.55000001 0 0 0 33.103516 16.345703 C 33.098016 16.308193 33.076616 16.301853 33.128906 16.197266 C 33.210131 16.034823 33.41952 15.958068 33.488281 15.949219 z M 17.550781 18.328125 L 19.556641 20.333984 C 19.381522 20.408239 19.192273 20.4484 18.998047 20.449219 L 17.550781 20.449219 L 17.550781 18.328125 z " />
</svg>
