<?xml version="1.0" encoding="UTF-8" standalone="no"?>
<svg
   width="24"
   height="24"
   viewBox="0 0 24 24"
   fill="none"
   stroke="currentColor"
   stroke-width="1.1"
   stroke-linecap="round"
   stroke-linejoin="round"
   version="1.1"
   id="svg1"
   sodipodi:docname=".tmp_shapes.svg"
   xmlns:inkscape="http://www.inkscape.org/namespaces/inkscape"
   xmlns:sodipodi="http://sodipodi.sourceforge.net/DTD/sodipodi-0.dtd"
   xmlns="http://www.w3.org/2000/svg"
   xmlns:svg="http://www.w3.org/2000/svg">
  <defs
     id="defs1" />
  <sodipodi:namedview
     id="namedview1"
     pagecolor="#ffffff"
     bordercolor="#000000"
     borderopacity="0.25"
     inkscape:showpageshadow="2"
     inkscape:pageopacity="0.0"
     inkscape:pagecheckerboard="0"
     inkscape:deskcolor="#d1d1d1" />
  <path
     id="path1"
     style="baseline-shift:baseline;display:inline;overflow:visible;vector-effect:none;fill:#000000;stroke:none;stroke-linecap:butt;stroke-linejoin:miter;enable-background:accumulate;stop-color:#000000;stop-opacity:1;opacity:1"
     d="M 11.966797 2.1054688 C 11.550294 2.1204178 11.142479 2.331653 10.919922 2.7324219 L 10.933594 2.7070312 L 7.2128906 8.6230469 C 6.6765493 9.4526705 7.34365 10.602666 8.3300781 10.548828 L 8.3007812 10.550781 L 15.728516 10.550781 A 0.55005501 0.55005501 0 0 0 15.730469 10.550781 C 16.70654 10.547381 17.309718 9.386953 16.751953 8.5859375 L 13.064453 2.6660156 A 0.55005501 0.55005501 0 0 0 13.058594 2.65625 C 12.80787 2.2724259 12.3833 2.0905192 11.966797 2.1054688 z M 12.005859 3.1738281 C 12.052129 3.1720213 12.099222 3.2004178 12.136719 3.2578125 L 15.833984 9.1914062 A 0.55005501 0.55005501 0 0 0 15.849609 9.2148438 C 15.936889 9.3401909 15.879298 9.4486833 15.726562 9.4492188 L 8.3007812 9.4492188 A 0.55005501 0.55005501 0 0 0 8.2695312 9.4511719 C 8.1136937 9.4596809 8.0519863 9.3498152 8.1367188 9.21875 A 0.55005501 0.55005501 0 0 0 8.1386719 9.2148438 L 11.865234 3.2929688 A 0.55005501 0.55005501 0 0 0 11.880859 3.2675781 C 11.914144 3.2076406 11.95959 3.1756349 12.005859 3.1738281 z M 4 13.449219 C 3.1508135 13.449219 2.4492188 14.150813 2.4492188 15 L 2.4492188 20 C 2.4492188 20.849187 3.1508135 21.550781 4 21.550781 L 9 21.550781 C 9.8491865 21.550781 10.550781 20.849187 10.550781 20 L 10.550781 15 C 10.550781 14.150813 9.8491865 13.449219 9 13.449219 L 4 13.449219 z M 17.5 13.449219 C 15.269761 13.449219 13.449219 15.269761 13.449219 17.5 C 13.449219 19.730239 15.269761 21.550781 17.5 21.550781 C 19.730239 21.550781 21.550781 19.730239 21.550781 17.5 C 21.550781 15.269761 19.730239 13.449219 17.5 13.449219 z M 4 14.550781 L 9 14.550781 C 9.2588135 14.550781 9.4492188 14.741187 9.4492188 15 L 9.4492188 20 C 9.4492188 20.258813 9.2588135 20.449219 9 20.449219 L 4 20.449219 C 3.7411865 20.449219 3.5507812 20.258813 3.5507812 20 L 3.5507812 15 C 3.5507812 14.741187 3.7411865 14.550781 4 14.550781 z M 17.5 14.550781 C 19.135755 14.550781 20.449219 15.864245 20.449219 17.5 C 20.449219 19.135755 19.135755 20.449219 17.5 20.449219 C 15.864245 20.449219 14.550781 19.135755 14.550781 17.5 C 14.550781 15.864245 15.864245 14.550781 17.5 14.550781 z " />
</svg>
