<?xml version="1.0" encoding="UTF-8" standalone="no"?>
<svg
   width="24"
   height="24"
   viewBox="0 0 24 24"
   fill="none"
   stroke="currentColor"
   stroke-width="1.1"
   stroke-linecap="round"
   stroke-linejoin="round"
   version="1.1"
   id="svg3"
   sodipodi:docname=".tmp_share.svg"
   xmlns:inkscape="http://www.inkscape.org/namespaces/inkscape"
   xmlns:sodipodi="http://sodipodi.sourceforge.net/DTD/sodipodi-0.dtd"
   xmlns="http://www.w3.org/2000/svg"
   xmlns:svg="http://www.w3.org/2000/svg">
  <defs
     id="defs3" />
  <sodipodi:namedview
     id="namedview3"
     pagecolor="#ffffff"
     bordercolor="#000000"
     borderopacity="0.25"
     inkscape:showpageshadow="2"
     inkscape:pageopacity="0.0"
     inkscape:pagecheckerboard="0"
     inkscape:deskcolor="#d1d1d1" />
  <path
     id="path1"
     style="baseline-shift:baseline;display:inline;overflow:visible;vector-effect:none;fill:#000000;stroke:none;stroke-linecap:butt;stroke-linejoin:miter;enable-background:accumulate;stop-color:#000000;stop-opacity:1;opacity:1"
     d="M 12 1.4492188 A 0.55000001 0.55000001 0 0 0 11.789062 1.4921875 A 0.55005501 0.55005501 0 0 0 11.787109 1.4941406 A 0.55000001 0.55000001 0 0 0 11.583984 1.6386719 L 7.6113281 5.6113281 A 0.55000001 0.55000001 0 0 0 7.6113281 6.3886719 A 0.55000001 0.55000001 0 0 0 8.3886719 6.3886719 L 11.449219 3.328125 L 11.449219 15 A 0.55000001 0.55000001 0 0 0 12 15.550781 A 0.55000001 0.55000001 0 0 0 12.550781 15 L 12.550781 3.328125 L 15.611328 6.3886719 A 0.55000001 0.55000001 0 0 0 16.388672 6.3886719 A 0.55000001 0.55000001 0 0 0 16.388672 5.6113281 L 12.388672 1.6113281 A 0.55000001 0.55000001 0 0 0 12.210938 1.4921875 A 0.55005501 0.55005501 0 0 0 12.208984 1.4921875 A 0.55005501 0.55005501 0 0 0 12.142578 1.46875 A 0.55000001 0.55000001 0 0 0 12 1.4492188 z M 4 11.449219 A 0.55000001 0.55000001 0 0 0 3.4492188 12 L 3.4492188 20 C 3.4492188 21.401812 4.5981884 22.550781 6 22.550781 L 18 22.550781 C 19.401812 22.550781 20.550781 21.401812 20.550781 20 L 20.550781 12 A 0.55000001 0.55000001 0 0 0 20 11.449219 A 0.55000001 0.55000001 0 0 0 19.449219 12 L 19.449219 20 C 19.449219 20.807327 18.807327 21.449219 18 21.449219 L 6 21.449219 C 5.1926726 21.449219 4.5507813 20.807327 4.5507812 20 L 4.5507812 12 A 0.55000001 0.55000001 0 0 0 4 11.449219 z " />
</svg>
