<?xml version="1.0" encoding="UTF-8" standalone="no"?>
<svg
   width="24"
   height="24"
   viewBox="0 0 24 24"
   fill="none"
   stroke="currentColor"
   stroke-width="1.1"
   stroke-linecap="round"
   stroke-linejoin="round"
   version="1.1"
   id="svg1"
   sodipodi:docname=".tmp_square-user-round.svg"
   xmlns:inkscape="http://www.inkscape.org/namespaces/inkscape"
   xmlns:sodipodi="http://sodipodi.sourceforge.net/DTD/sodipodi-0.dtd"
   xmlns="http://www.w3.org/2000/svg"
   xmlns:svg="http://www.w3.org/2000/svg">
  <defs
     id="defs1" />
  <sodipodi:namedview
     id="namedview1"
     pagecolor="#ffffff"
     bordercolor="#000000"
     borderopacity="0.25"
     inkscape:showpageshadow="2"
     inkscape:pageopacity="0.0"
     inkscape:pagecheckerboard="0"
     inkscape:deskcolor="#d1d1d1" />
  <path
     id="path1"
     style="baseline-shift:baseline;display:inline;overflow:visible;vector-effect:none;fill:#000000;stroke:none;stroke-linecap:butt;stroke-linejoin:miter;enable-background:accumulate;stop-color:#000000;stop-opacity:1;opacity:1"
     d="M 5 2.4492188 C 3.5968135 2.4492188 2.4492187 3.5968135 2.4492188 5 L 2.4492188 19 C 2.4492188 20.403187 3.5968135 21.550781 5 21.550781 L 5.9980469 21.550781 L 6.0019531 21.550781 L 17.998047 21.550781 L 18.001953 21.550781 L 19 21.550781 C 20.403187 21.550781 21.550781 20.403187 21.550781 19 L 21.550781 5 C 21.550781 3.5968135 20.403187 2.4492188 19 2.4492188 L 5 2.4492188 z M 5 3.5507812 L 19 3.5507812 C 19.812813 3.5507812 20.449219 4.1871865 20.449219 5 L 20.449219 19 C 20.449219 19.812813 19.812813 20.449219 19 20.449219 L 18.527344 20.449219 C 18.314674 17.908724 16.64537 15.774652 14.359375 14.888672 C 15.671674 14.088696 16.550781 12.643777 16.550781 11 C 16.550781 8.4936189 14.506381 6.4492188 12 6.4492188 C 9.4936189 6.4492188 7.4492188 8.4936189 7.4492188 11 C 7.4492188 12.643778 8.3283259 14.088696 9.640625 14.888672 C 7.3546304 15.774652 5.6853259 17.908724 5.4726562 20.449219 L 5 20.449219 C 4.1871865 20.449219 3.5507812 19.812813 3.5507812 19 L 3.5507812 5 C 3.5507812 4.1871865 4.1871865 3.5507813 5 3.5507812 z M 12 7.5507812 C 13.911897 7.5507812 15.449219 9.0881031 15.449219 11 C 15.449219 12.911897 13.911897 14.449219 12 14.449219 C 10.088103 14.449219 8.5507813 12.911897 8.5507812 11 C 8.5507812 9.0881031 10.088103 7.5507812 12 7.5507812 z M 12 15.550781 C 14.830511 15.550781 17.147016 17.692832 17.421875 20.449219 L 6.578125 20.449219 C 6.8529845 17.692832 9.1694894 15.550781 12 15.550781 z " />
</svg>
