<?xml version="1.0" encoding="UTF-8" standalone="no"?>
<svg
   width="24"
   height="24"
   viewBox="0 0 24 24"
   fill="none"
   stroke="currentColor"
   stroke-width="1.1"
   stroke-linecap="round"
   stroke-linejoin="round"
   version="1.1"
   id="svg2"
   sodipodi:docname=".tmp_square-check-big.svg"
   xmlns:inkscape="http://www.inkscape.org/namespaces/inkscape"
   xmlns:sodipodi="http://sodipodi.sourceforge.net/DTD/sodipodi-0.dtd"
   xmlns="http://www.w3.org/2000/svg"
   xmlns:svg="http://www.w3.org/2000/svg">
  <defs
     id="defs2" />
  <sodipodi:namedview
     id="namedview2"
     pagecolor="#ffffff"
     bordercolor="#000000"
     borderopacity="0.25"
     inkscape:showpageshadow="2"
     inkscape:pageopacity="0.0"
     inkscape:pagecheckerboard="0"
     inkscape:deskcolor="#d1d1d1" />
  <path
     id="path1"
     style="baseline-shift:baseline;display:inline;overflow:visible;vector-effect:none;fill:#000000;stroke:none;stroke-linecap:butt;stroke-linejoin:miter;enable-background:accumulate;stop-color:#000000;stop-opacity:1;opacity:1"
     d="M 5 2.4492188 C 3.5981884 2.4492188 2.4492188 3.5981884 2.4492188 5 L 2.4492188 19 C 2.4492188 20.401812 3.5981884 21.550781 5 21.550781 L 19 21.550781 C 20.401812 21.550781 21.550781 20.401812 21.550781 19 L 21.550781 10.65625 A 0.55000001 0.55000001 0 0 0 21 10.105469 A 0.55000001 0.55000001 0 0 0 20.449219 10.65625 L 20.449219 19 C 20.449219 19.807327 19.807327 20.449219 19 20.449219 L 5 20.449219 C 4.1926726 20.449219 3.5507813 19.807327 3.5507812 19 L 3.5507812 5 C 3.5507812 4.1926726 4.1926726 3.5507813 5 3.5507812 L 17.34375 3.5507812 A 0.55000001 0.55000001 0 0 0 17.894531 3 A 0.55000001 0.55000001 0 0 0 17.34375 2.4492188 L 5 2.4492188 z M 22 3.4511719 A 0.55000001 0.55000001 0 0 0 21.611328 3.6113281 L 12 13.222656 L 9.3886719 10.611328 A 0.55000001 0.55000001 0 0 0 8.6113281 10.611328 A 0.55000001 0.55000001 0 0 0 8.6113281 11.388672 L 11.611328 14.388672 A 0.55005501 0.55005501 0 0 0 12.388672 14.388672 L 22.388672 4.3886719 A 0.55000001 0.55000001 0 0 0 22.388672 3.6113281 A 0.55000001 0.55000001 0 0 0 22 3.4511719 z " />
</svg>
