<?xml version="1.0" encoding="UTF-8" standalone="no"?>
<svg
   width="24"
   height="24"
   viewBox="0 0 24 24"
   fill="none"
   stroke="currentColor"
   stroke-width="1.1"
   stroke-linecap="round"
   stroke-linejoin="round"
   version="1.1"
   id="svg2"
   sodipodi:docname=".tmp_stretch-horizontal.svg"
   xmlns:inkscape="http://www.inkscape.org/namespaces/inkscape"
   xmlns:sodipodi="http://sodipodi.sourceforge.net/DTD/sodipodi-0.dtd"
   xmlns="http://www.w3.org/2000/svg"
   xmlns:svg="http://www.w3.org/2000/svg">
  <defs
     id="defs2" />
  <sodipodi:namedview
     id="namedview2"
     pagecolor="#ffffff"
     bordercolor="#000000"
     borderopacity="0.25"
     inkscape:showpageshadow="2"
     inkscape:pageopacity="0.0"
     inkscape:pagecheckerboard="0"
     inkscape:deskcolor="#d1d1d1" />
  <path
     id="rect1"
     style="baseline-shift:baseline;display:inline;overflow:visible;vector-effect:none;fill:#000000;stroke:none;stroke-linecap:butt;stroke-linejoin:miter;enable-background:accumulate;stop-color:#000000;stop-opacity:1;opacity:1"
     d="M 4 3.4492188 C 2.5968135 3.4492188 1.4492188 4.5968135 1.4492188 6 L 1.4492188 8 C 1.4492188 9.4031865 2.5968135 10.550781 4 10.550781 L 20 10.550781 C 21.403187 10.550781 22.550781 9.4031865 22.550781 8 L 22.550781 6 C 22.550781 4.5968135 21.403187 3.4492188 20 3.4492188 L 4 3.4492188 z M 4 4.5507812 L 20 4.5507812 C 20.812813 4.5507812 21.449219 5.1871865 21.449219 6 L 21.449219 8 C 21.449219 8.8128135 20.812813 9.4492188 20 9.4492188 L 4 9.4492188 C 3.1871865 9.4492188 2.5507813 8.8128135 2.5507812 8 L 2.5507812 6 C 2.5507812 5.1871865 3.1871865 4.5507813 4 4.5507812 z M 4 13.449219 C 2.5968135 13.449219 1.4492188 14.596813 1.4492188 16 L 1.4492188 18 C 1.4492188 19.403187 2.5968135 20.550781 4 20.550781 L 20 20.550781 C 21.403187 20.550781 22.550781 19.403187 22.550781 18 L 22.550781 16 C 22.550781 14.596813 21.403187 13.449219 20 13.449219 L 4 13.449219 z M 4 14.550781 L 20 14.550781 C 20.812813 14.550781 21.449219 15.187187 21.449219 16 L 21.449219 18 C 21.449219 18.812813 20.812813 19.449219 20 19.449219 L 4 19.449219 C 3.1871865 19.449219 2.5507811 18.812813 2.5507812 18 L 2.5507812 16 C 2.5507812 15.187187 3.1871865 14.550781 4 14.550781 z " />
</svg>
