<?xml version="1.0" encoding="UTF-8" standalone="no"?>
<svg
   width="24"
   height="24"
   viewBox="0 0 24 24"
   fill="none"
   stroke="currentColor"
   stroke-width="1.1"
   stroke-linecap="round"
   stroke-linejoin="round"
   version="1.1"
   id="svg5"
   sodipodi:docname=".tmp_tally-5.svg"
   xmlns:inkscape="http://www.inkscape.org/namespaces/inkscape"
   xmlns:sodipodi="http://sodipodi.sourceforge.net/DTD/sodipodi-0.dtd"
   xmlns="http://www.w3.org/2000/svg"
   xmlns:svg="http://www.w3.org/2000/svg">
  <defs
     id="defs5" />
  <sodipodi:namedview
     id="namedview5"
     pagecolor="#ffffff"
     bordercolor="#000000"
     borderopacity="0.25"
     inkscape:showpageshadow="2"
     inkscape:pageopacity="0.0"
     inkscape:pagecheckerboard="0"
     inkscape:deskcolor="#d1d1d1" />
  <path
     id="path1"
     style="baseline-shift:baseline;display:inline;overflow:visible;vector-effect:none;fill:#000000;stroke:none;stroke-linecap:butt;stroke-linejoin:miter;enable-background:accumulate;stop-color:#000000;stop-opacity:1;opacity:1"
     d="M 4 3.4492188 A 0.55000001 0.55000001 0 0 0 3.4492188 4 L 3.4492188 16.490234 L 1.7167969 17.529297 A 0.55000001 0.55000001 0 0 0 1.5292969 18.283203 A 0.55000001 0.55000001 0 0 0 2.2832031 18.470703 L 3.4492188 17.771484 L 3.4492188 20 A 0.55000001 0.55000001 0 0 0 4 20.550781 A 0.55000001 0.55000001 0 0 0 4.5507812 20 L 4.5507812 17.109375 L 8.4492188 14.771484 L 8.4492188 20 A 0.55000001 0.55000001 0 0 0 9 20.550781 A 0.55000001 0.55000001 0 0 0 9.5507812 20 L 9.5507812 14.109375 L 13.449219 11.771484 L 13.449219 20 A 0.55000001 0.55000001 0 0 0 14 20.550781 A 0.55000001 0.55000001 0 0 0 14.550781 20 L 14.550781 11.109375 L 18.449219 8.7714844 L 18.449219 20 A 0.55000001 0.55000001 0 0 0 19 20.550781 A 0.55000001 0.55000001 0 0 0 19.550781 20 L 19.550781 8.109375 L 22.283203 6.4707031 A 0.55000001 0.55000001 0 0 0 22.470703 5.7167969 A 0.55000001 0.55000001 0 0 0 22.132812 5.4667969 A 0.55000001 0.55000001 0 0 0 21.716797 5.5292969 L 19.550781 6.828125 L 19.550781 4 A 0.55000001 0.55000001 0 0 0 19 3.4492188 A 0.55000001 0.55000001 0 0 0 18.449219 4 L 18.449219 7.4902344 L 14.550781 9.828125 L 14.550781 4 A 0.55000001 0.55000001 0 0 0 14 3.4492188 A 0.55000001 0.55000001 0 0 0 13.449219 4 L 13.449219 10.490234 L 9.5507812 12.828125 L 9.5507812 4 A 0.55000001 0.55000001 0 0 0 9 3.4492188 A 0.55000001 0.55000001 0 0 0 8.4492188 4 L 8.4492188 13.490234 L 4.5507812 15.828125 L 4.5507812 4 A 0.55000001 0.55000001 0 0 0 4 3.4492188 z " />
</svg>
