<?xml version="1.0" encoding="UTF-8" standalone="no"?>
<svg
   width="24"
   height="24"
   viewBox="0 0 24 24"
   fill="none"
   stroke="currentColor"
   stroke-width="1.1"
   stroke-linecap="round"
   stroke-linejoin="round"
   version="1.1"
   id="svg3"
   sodipodi:docname=".tmp_type.svg"
   xmlns:inkscape="http://www.inkscape.org/namespaces/inkscape"
   xmlns:sodipodi="http://sodipodi.sourceforge.net/DTD/sodipodi-0.dtd"
   xmlns="http://www.w3.org/2000/svg"
   xmlns:svg="http://www.w3.org/2000/svg">
  <defs
     id="defs3" />
  <sodipodi:namedview
     id="namedview3"
     pagecolor="#ffffff"
     bordercolor="#000000"
     borderopacity="0.25"
     inkscape:showpageshadow="2"
     inkscape:pageopacity="0.0"
     inkscape:pagecheckerboard="0"
     inkscape:deskcolor="#d1d1d1" />
  <path
     id="path1"
     style="baseline-shift:baseline;display:inline;overflow:visible;vector-effect:none;fill:#000000;stroke:none;stroke-linecap:butt;stroke-linejoin:miter;enable-background:accumulate;stop-color:#000000;stop-opacity:1;opacity:1"
     d="M 5 3.4492188 C 4.1504732 3.4492186 3.4492188 4.1504732 3.4492188 5 L 3.4492188 7 A 0.55000001 0.55000001 0 0 0 4 7.5507812 A 0.55000001 0.55000001 0 0 0 4.5507812 7 L 4.5507812 5 C 4.5507812 4.7449573 4.7449573 4.5507812 5 4.5507812 L 11.449219 4.5507812 L 11.449219 19.449219 L 9 19.449219 A 0.55000001 0.55000001 0 0 0 8.4492188 20 A 0.55000001 0.55000001 0 0 0 9 20.550781 L 11.998047 20.550781 L 12.001953 20.550781 L 15 20.550781 A 0.55000001 0.55000001 0 0 0 15.550781 20 A 0.55000001 0.55000001 0 0 0 15 19.449219 L 12.550781 19.449219 L 12.550781 4.5507812 L 19 4.5507812 C 19.255043 4.5507812 19.449219 4.7449573 19.449219 5 L 19.449219 7 A 0.55000001 0.55000001 0 0 0 20 7.5507812 A 0.55000001 0.55000001 0 0 0 20.550781 7 L 20.550781 5 C 20.550781 4.1504732 19.849527 3.4492188 19 3.4492188 L 12 3.4492188 L 11.998047 3.4492188 L 5 3.4492188 z " />
</svg>
