<?xml version="1.0" encoding="UTF-8" standalone="no"?>
<svg
   width="24"
   height="24"
   viewBox="0 0 24 24"
   fill="none"
   stroke="currentColor"
   stroke-width="1.1"
   stroke-linecap="round"
   stroke-linejoin="round"
   version="1.1"
   id="svg4"
   sodipodi:docname=".tmp_utensils-crossed.svg"
   xmlns:inkscape="http://www.inkscape.org/namespaces/inkscape"
   xmlns:sodipodi="http://sodipodi.sourceforge.net/DTD/sodipodi-0.dtd"
   xmlns="http://www.w3.org/2000/svg"
   xmlns:svg="http://www.w3.org/2000/svg">
  <defs
     id="defs4" />
  <sodipodi:namedview
     id="namedview4"
     pagecolor="#ffffff"
     bordercolor="#000000"
     borderopacity="0.25"
     inkscape:showpageshadow="2"
     inkscape:pageopacity="0.0"
     inkscape:pagecheckerboard="0"
     inkscape:deskcolor="#d1d1d1" />
  <path
     id="path1"
     style="baseline-shift:baseline;display:inline;overflow:visible;vector-effect:none;fill:#000000;stroke:none;stroke-linecap:butt;stroke-linejoin:miter;enable-background:accumulate;stop-color:#000000;stop-opacity:1;opacity:1"
     d="M 16 1.4511719 A 0.55000001 0.55000001 0 0 0 15.611328 1.6113281 L 13.310547 3.9101562 A 0.55005501 0.55005501 0 0 0 13.306641 3.9140625 C 11.957866 5.290088 11.957866 7.5087401 13.306641 8.8847656 A 0.55005501 0.55005501 0 0 0 13.310547 8.8886719 L 13.822266 9.4003906 L 12 11.222656 L 3.6894531 2.9101562 A 0.55005501 0.55005501 0 0 0 2.9160156 2.90625 C 1.0200495 4.7639098 1.0200495 7.8356996 2.9160156 9.6933594 L 8.2382812 15.015625 A 0.55000001 0.55000001 0 0 0 8.1132812 15.107422 L 1.7148438 21.408203 A 0.55000001 0.55000001 0 0 0 1.7089844 22.185547 A 0.55000001 0.55000001 0 0 0 2.4863281 22.191406 L 8.8867188 15.892578 A 0.55000001 0.55000001 0 0 0 8.984375 15.761719 L 10.210938 16.988281 C 11.15169 17.929034 12.739498 17.908116 13.761719 17.013672 A 0.55005501 0.55005501 0 0 0 13.789062 16.988281 L 15 15.777344 L 21.611328 22.388672 A 0.55000001 0.55000001 0 0 0 22.388672 22.388672 A 0.55000001 0.55000001 0 0 0 22.388672 21.611328 L 15.388672 14.611328 L 12.777344 12 L 14.599609 10.177734 L 15.111328 10.689453 A 0.55005501 0.55005501 0 0 0 15.115234 10.693359 C 16.49126 12.042134 18.709912 12.042134 20.085938 10.693359 A 0.55005501 0.55005501 0 0 0 20.089844 10.689453 L 22.388672 8.3886719 A 0.55000001 0.55000001 0 0 0 22.388672 7.6113281 A 0.55000001 0.55000001 0 0 0 21.611328 7.6113281 L 19.314453 9.90625 C 18.357418 10.844332 16.841801 10.844332 15.884766 9.90625 L 15.378906 9.3984375 L 19.388672 5.3886719 A 0.55000001 0.55000001 0 0 0 19.388672 4.6113281 A 0.55000001 0.55000001 0 0 0 18.611328 4.6113281 L 14.601562 8.6210938 L 14.09375 8.1152344 C 13.155668 7.1581988 13.155668 5.6425824 14.09375 4.6855469 L 16.388672 2.3886719 A 0.55000001 0.55000001 0 0 0 16.388672 1.6113281 A 0.55000001 0.55000001 0 0 0 16 1.4511719 z M 3.375 4.1542969 L 11.611328 12.388672 L 14.222656 15 L 13.037109 16.185547 C 12.45933 16.691103 11.447528 16.670184 10.988281 16.210938 L 3.6894531 8.9101562 A 0.55005501 0.55005501 0 0 0 3.6855469 8.90625 C 2.3582966 7.6058157 2.2984388 5.5950788 3.375 4.1542969 z " />
</svg>
