<?xml version="1.0" encoding="UTF-8" standalone="no"?>
<svg
   width="24"
   height="24"
   viewBox="0 0 24 24"
   fill="none"
   stroke="currentColor"
   stroke-width="1.1"
   stroke-linecap="round"
   stroke-linejoin="round"
   version="1.1"
   id="svg2"
   sodipodi:docname=".tmp_wallet.svg"
   xmlns:inkscape="http://www.inkscape.org/namespaces/inkscape"
   xmlns:sodipodi="http://sodipodi.sourceforge.net/DTD/sodipodi-0.dtd"
   xmlns="http://www.w3.org/2000/svg"
   xmlns:svg="http://www.w3.org/2000/svg">
  <defs
     id="defs2" />
  <sodipodi:namedview
     id="namedview2"
     pagecolor="#ffffff"
     bordercolor="#000000"
     borderopacity="0.25"
     inkscape:showpageshadow="2"
     inkscape:pageopacity="0.0"
     inkscape:pagecheckerboard="0"
     inkscape:deskcolor="#d1d1d1" />
  <path
     id="path1"
     style="baseline-shift:baseline;display:inline;overflow:visible;vector-effect:none;fill:#000000;stroke:none;stroke-linecap:butt;stroke-linejoin:miter;enable-background:accumulate;stop-color:#000000;stop-opacity:1;opacity:1"
     d="M 5 2.4492188 C 4.1958336 2.4492188 3.5239769 2.7713656 3.0898438 3.2597656 C 2.6730264 3.7286854 2.4689726 4.328038 2.453125 4.9257812 C 2.4524838 4.949965 2.4492355 4.9758294 2.4492188 5 L 2.4492188 19 C 2.4492188 20.401812 3.5981884 21.550781 5 21.550781 L 20 21.550781 C 20.849527 21.550781 21.550781 20.849527 21.550781 20 L 21.550781 16.447266 C 22.132549 16.222757 22.550781 15.656067 22.550781 15 L 22.550781 13 C 22.550781 12.364416 22.104032 11.917482 21.550781 11.679688 L 21.550781 8 C 21.550781 7.1504732 20.849527 6.4492187 20 6.4492188 L 19.550781 6.4492188 L 19.550781 4 C 19.550781 3.1504732 18.849527 2.4492187 18 2.4492188 L 5 2.4492188 z M 5 3.5507812 L 18 3.5507812 C 18.255043 3.5507812 18.449219 3.7449573 18.449219 4 L 18.449219 6.4492188 L 5 6.4492188 C 4.4708337 6.4492188 4.1426894 6.2713656 3.9101562 6.0097656 C 3.6776231 5.7481657 3.5507812 5.3777778 3.5507812 5 A 0.55000001 0.55000001 0 0 0 3.5507812 4.9980469 C 3.5510449 4.6206777 3.677865 4.251562 3.9101562 3.9902344 C 4.1426893 3.7286344 4.4708337 3.5507813 5 3.5507812 z M 3.5507812 7.1367188 C 3.9464126 7.3954561 4.4412709 7.5507813 5 7.5507812 L 19 7.5507812 L 20 7.5507812 C 20.255043 7.5507812 20.449219 7.7449573 20.449219 8 L 20.449219 11.449219 L 18 11.449219 C 17.195834 11.449219 16.523977 11.771366 16.089844 12.259766 C 15.655711 12.748166 15.449219 13.377778 15.449219 14 C 15.449219 14.622222 15.655711 15.251834 16.089844 15.740234 C 16.523977 16.228634 17.195834 16.550781 18 16.550781 L 20.449219 16.550781 L 20.449219 20 C 20.449219 20.255043 20.255043 20.449219 20 20.449219 L 5 20.449219 C 4.1926726 20.449219 3.5507813 19.807327 3.5507812 19 L 3.5507812 7.1367188 z M 18 12.550781 L 21 12.550781 C 21.255043 12.550781 21.449219 12.744957 21.449219 13 L 21.449219 15 C 21.449219 15.254794 21.254675 15.44884 21 15.449219 L 20.998047 15.449219 L 18 15.449219 C 17.470834 15.449219 17.142689 15.271366 16.910156 15.009766 C 16.677623 14.748166 16.550781 14.377778 16.550781 14 C 16.550781 13.622222 16.677623 13.251834 16.910156 12.990234 C 17.142689 12.728634 17.470834 12.550781 18 12.550781 z " />
</svg>
