<?xml version="1.0" encoding="UTF-8" standalone="no"?>
<svg
   width="24"
   height="24"
   viewBox="0 0 24 24"
   fill="none"
   stroke="currentColor"
   stroke-width="1.75"
   stroke-linecap="round"
   stroke-linejoin="round"
   version="1.1"
   id="svg4"
   sodipodi:docname=".tmp_a-arrow-up.svg"
   xmlns:inkscape="http://www.inkscape.org/namespaces/inkscape"
   xmlns:sodipodi="http://sodipodi.sourceforge.net/DTD/sodipodi-0.dtd"
   xmlns="http://www.w3.org/2000/svg"
   xmlns:svg="http://www.w3.org/2000/svg">
  <defs
     id="defs4" />
  <sodipodi:namedview
     id="namedview4"
     pagecolor="#ffffff"
     bordercolor="#000000"
     borderopacity="0.25"
     inkscape:showpageshadow="2"
     inkscape:pageopacity="0.0"
     inkscape:pagecheckerboard="0"
     inkscape:deskcolor="#d1d1d1" />
  <path
     id="path1"
     style="baseline-shift:baseline;display:inline;overflow:visible;vector-effect:none;fill:#000000;stroke:none;stroke-linecap:butt;stroke-linejoin:miter;enable-background:accumulate;stop-color:#000000;stop-opacity:1;opacity:1"
     d="M 6.5 5.1269531 C 5.9938583 5.1269531 5.4514175 5.4426781 5.2304688 5.9726562 L 1.1914062 15.664062 A 0.875 0.875 0 0 0 1.6640625 16.808594 A 0.875 0.875 0 0 0 2.8085938 16.335938 L 3.8339844 13.875 L 9.1660156 13.875 L 10.191406 16.335938 A 0.875 0.875 0 0 0 11.335938 16.808594 A 0.875 0.875 0 0 0 11.808594 15.664062 L 7.7695312 5.9726562 C 7.5485826 5.442678 7.0061417 5.1269531 6.5 5.1269531 z M 18 6.125 A 0.8750875 0.8750875 0 0 0 17.664062 6.1914062 A 0.8750875 0.8750875 0 0 0 17.380859 6.3808594 L 13.380859 10.380859 A 0.875 0.875 0 0 0 13.380859 11.619141 A 0.875 0.875 0 0 0 14.619141 11.619141 L 17.125 9.1132812 L 17.125 16 A 0.875 0.875 0 0 0 18 16.875 A 0.875 0.875 0 0 0 18.875 16 L 18.875 9.1132812 L 21.380859 11.619141 A 0.875 0.875 0 0 0 22.619141 11.619141 A 0.875 0.875 0 0 0 22.619141 10.380859 L 18.619141 6.3808594 A 0.8750875 0.8750875 0 0 0 18.4375 6.2421875 A 0.875 0.875 0 0 0 18.335938 6.1914062 A 0.8750875 0.8750875 0 0 0 18.333984 6.1914062 A 0.875 0.875 0 0 0 18.226562 6.1542969 A 0.8750875 0.8750875 0 0 0 18 6.125 z M 6.5 7.4765625 L 8.4375 12.125 L 4.5625 12.125 L 6.5 7.4765625 z " />
</svg>
