<?xml version="1.0" encoding="UTF-8" standalone="no"?>
<svg
   width="24"
   height="24"
   viewBox="0 0 24 24"
   fill="none"
   stroke="currentColor"
   stroke-width="1.75"
   stroke-linecap="round"
   stroke-linejoin="round"
   version="1.1"
   id="svg5"
   sodipodi:docname=".tmp_angry.svg"
   xmlns:inkscape="http://www.inkscape.org/namespaces/inkscape"
   xmlns:sodipodi="http://sodipodi.sourceforge.net/DTD/sodipodi-0.dtd"
   xmlns="http://www.w3.org/2000/svg"
   xmlns:svg="http://www.w3.org/2000/svg">
  <defs
     id="defs5" />
  <sodipodi:namedview
     id="namedview5"
     pagecolor="#ffffff"
     bordercolor="#000000"
     borderopacity="0.25"
     inkscape:showpageshadow="2"
     inkscape:pageopacity="0.0"
     inkscape:pagecheckerboard="0"
     inkscape:deskcolor="#d1d1d1" />
  <path
     id="circle1"
     style="baseline-shift:baseline;display:inline;overflow:visible;vector-effect:none;fill:#000000;stroke:none;stroke-linecap:butt;stroke-linejoin:miter;enable-background:accumulate;stop-color:#000000;stop-opacity:1;opacity:1"
     d="M 12 1.125 C 6.0042674 1.125 1.125 6.0042674 1.125 12 C 1.125 17.995733 6.0042674 22.875 12 22.875 C 17.995733 22.875 22.875 17.995733 22.875 12 C 22.875 6.0042674 17.995733 1.125 12 1.125 z M 12 2.875 C 17.049962 2.875 21.125 6.9500376 21.125 12 C 21.125 17.049962 17.049962 21.125 12 21.125 C 6.9500376 21.125 2.875 17.049962 2.875 12 C 2.875 6.9500376 6.9500376 2.875 12 2.875 z M 7.4882812 7.125 A 0.875 0.875 0 0 0 6.6875 7.6757812 A 0.875 0.875 0 0 0 7.1757812 8.8125 L 8.4472656 9.3203125 A 0.875 0.875 0 0 0 8.125 10 A 0.875 0.875 0 0 0 9 10.875 L 9.0097656 10.875 A 0.875 0.875 0 0 0 9.8847656 10 A 0.875 0.875 0 0 0 9.8730469 9.8652344 A 0.875 0.875 0 0 0 10.8125 9.3242188 A 0.875 0.875 0 0 0 10.324219 8.1875 L 7.8242188 7.1875 A 0.875 0.875 0 0 0 7.4882812 7.125 z M 16.511719 7.125 A 0.875 0.875 0 0 0 16.175781 7.1875 L 13.675781 8.1875 A 0.875 0.875 0 0 0 13.1875 9.3242188 A 0.875 0.875 0 0 0 14.136719 9.8632812 A 0.875 0.875 0 0 0 14.125 10 A 0.875 0.875 0 0 0 15 10.875 L 15.009766 10.875 A 0.875 0.875 0 0 0 15.884766 10 A 0.875 0.875 0 0 0 15.558594 9.3183594 L 16.824219 8.8125 A 0.875 0.875 0 0 0 17.3125 7.6757812 A 0.875 0.875 0 0 0 16.511719 7.125 z M 12 13.125 C 9.0333333 13.125 7.3007812 15.474609 7.3007812 15.474609 A 0.875 0.875 0 0 0 7.4746094 16.699219 A 0.875 0.875 0 0 0 8.6992188 16.525391 C 8.6992188 16.525391 9.9666667 14.875 12 14.875 C 14.033333 14.875 15.300781 16.525391 15.300781 16.525391 A 0.875 0.875 0 0 0 16.525391 16.699219 A 0.875 0.875 0 0 0 16.699219 15.474609 C 16.699219 15.474609 14.966667 13.125 12 13.125 z " />
</svg>
