<?xml version="1.0" encoding="UTF-8" standalone="no"?>
<svg
   width="24"
   height="24"
   viewBox="0 0 24 24"
   fill="none"
   stroke="currentColor"
   stroke-width="1.75"
   stroke-linecap="round"
   stroke-linejoin="round"
   version="1.1"
   id="svg5"
   sodipodi:docname=".tmp_anvil.svg"
   xmlns:inkscape="http://www.inkscape.org/namespaces/inkscape"
   xmlns:sodipodi="http://sodipodi.sourceforge.net/DTD/sodipodi-0.dtd"
   xmlns="http://www.w3.org/2000/svg"
   xmlns:svg="http://www.w3.org/2000/svg">
  <defs
     id="defs5" />
  <sodipodi:namedview
     id="namedview5"
     pagecolor="#ffffff"
     bordercolor="#000000"
     borderopacity="0.25"
     inkscape:showpageshadow="2"
     inkscape:pageopacity="0.0"
     inkscape:pagecheckerboard="0"
     inkscape:deskcolor="#d1d1d1" />
  <path
     id="path1"
     style="baseline-shift:baseline;display:inline;overflow:visible;vector-effect:none;fill:#000000;stroke:none;stroke-linecap:butt;stroke-linejoin:miter;enable-background:accumulate;stop-color:#000000;stop-opacity:1;opacity:1"
     d="M 8 3.125 C 7.2895218 3.125 6.6632385 3.5331708 6.3457031 4.125 L 3 4.125 C 1.9748301 4.125 1.125 4.9748301 1.125 6 C 1.125 8.6820241 3.3179759 10.875 6 10.875 L 6.125 10.875 L 6.125 11 C 6.125 12.02517 6.9748301 12.875 8 12.875 L 8.125 12.875 L 8.125 16.125 L 8 16.125 C 5.8702607 16.125 4.125 17.870261 4.125 20 C 4.125 21.02517 4.9748301 21.875 6 21.875 L 18 21.875 C 19.02517 21.875 19.875 21.02517 19.875 20 C 19.875 17.870261 18.129739 16.125 16 16.125 L 15.875 16.125 L 15.875 12.826172 C 19.804411 12.38889 22.875 9.0431952 22.875 5 C 22.875 3.9748301 22.02517 3.125 21 3.125 L 8 3.125 z M 8 4.875 L 21 4.875 C 21.0794 4.875 21.125 4.9206 21.125 5 C 21.125 8.3931081 18.393108 11.125 15 11.125 L 8 11.125 C 7.9206 11.125 7.875 11.0794 7.875 11 L 7.875 5 C 7.875 4.9206 7.9206 4.875 8 4.875 z M 3 5.875 L 6.125 5.875 L 6.125 9.125 L 6 9.125 C 4.2637461 9.125 2.875 7.7362539 2.875 6 C 2.875 5.9206 2.9206 5.875 3 5.875 z M 9.875 12.875 L 14.125 12.875 L 14.125 16.125 L 9.875 16.125 L 9.875 12.875 z M 8 17.875 L 9 17.875 L 15 17.875 L 16 17.875 C 17.183969 17.875 18.125 18.816031 18.125 20 C 18.125 20.0794 18.0794 20.125 18 20.125 L 6 20.125 C 5.9206 20.125 5.875 20.0794 5.875 20 C 5.875 18.816031 6.8160309 17.875 8 17.875 z " />
</svg>
