<?xml version="1.0" encoding="UTF-8" standalone="no"?>
<svg
   width="24"
   height="24"
   viewBox="0 0 24 24"
   fill="none"
   stroke="currentColor"
   stroke-width="1.75"
   stroke-linecap="round"
   stroke-linejoin="round"
   version="1.1"
   id="svg4"
   sodipodi:docname=".tmp_archive-restore.svg"
   xmlns:inkscape="http://www.inkscape.org/namespaces/inkscape"
   xmlns:sodipodi="http://sodipodi.sourceforge.net/DTD/sodipodi-0.dtd"
   xmlns="http://www.w3.org/2000/svg"
   xmlns:svg="http://www.w3.org/2000/svg">
  <defs
     id="defs4" />
  <sodipodi:namedview
     id="namedview4"
     pagecolor="#ffffff"
     bordercolor="#000000"
     borderopacity="0.25"
     inkscape:showpageshadow="2"
     inkscape:pageopacity="0.0"
     inkscape:pagecheckerboard="0"
     inkscape:deskcolor="#d1d1d1" />
  <path
     id="rect1"
     style="baseline-shift:baseline;display:inline;overflow:visible;vector-effect:none;fill:#000000;stroke:none;stroke-linecap:butt;stroke-linejoin:miter;enable-background:accumulate;stop-color:#000000;stop-opacity:1;opacity:1"
     d="M 3 2.125 C 1.9763851 2.125 1.125 2.9763851 1.125 4 L 1.125 7 C 1.125 8.0236149 1.9763851 8.875 3 8.875 L 3.125 8.875 L 3.125 19 C 3.125 20.577455 4.4225454 21.875 6 21.875 L 8 21.875 A 0.875 0.875 0 0 0 8.875 21 A 0.875 0.875 0 0 0 8 20.125 L 6 20.125 C 5.3683156 20.125 4.875 19.631684 4.875 19 L 4.875 8.875 L 19.125 8.875 L 19.125 19 C 19.125 19.631684 18.631684 20.125 18 20.125 L 16 20.125 A 0.875 0.875 0 0 0 15.125 21 A 0.875 0.875 0 0 0 16 21.875 L 18 21.875 C 19.577455 21.875 20.875 20.577455 20.875 19 L 20.875 8.875 L 21 8.875 C 22.023615 8.875 22.875 8.0236149 22.875 7 L 22.875 4 C 22.875 2.9763851 22.023615 2.125 21 2.125 L 3 2.125 z M 3 3.875 L 21 3.875 C 21.08439 3.875 21.125 3.915615 21.125 4 L 21.125 7 C 21.125 7.084385 21.08439 7.125 21 7.125 L 3 7.125 C 2.9156149 7.125 2.875 7.0843851 2.875 7 L 2.875 4 C 2.875 3.9156149 2.9156149 3.875 3 3.875 z M 12 11.125 A 0.8750875 0.8750875 0 0 0 11.773438 11.154297 A 0.8750875 0.8750875 0 0 0 11.5625 11.242188 A 0.8750875 0.8750875 0 0 0 11.380859 11.380859 L 8.3808594 14.380859 A 0.875 0.875 0 0 0 8.3808594 15.619141 A 0.875 0.875 0 0 0 9.6191406 15.619141 L 11.125 14.113281 L 11.125 21 A 0.875 0.875 0 0 0 12 21.875 A 0.875 0.875 0 0 0 12.875 21 L 12.875 14.113281 L 14.380859 15.619141 A 0.875 0.875 0 0 0 15.619141 15.619141 A 0.875 0.875 0 0 0 15.619141 14.380859 L 12.619141 11.380859 A 0.8750875 0.8750875 0 0 0 12.4375 11.242188 A 0.875 0.875 0 0 0 12.335938 11.191406 A 0.8750875 0.8750875 0 0 0 12.333984 11.191406 A 0.875 0.875 0 0 0 12.226562 11.154297 A 0.8750875 0.8750875 0 0 0 12 11.125 z " />
</svg>
