<?xml version="1.0" encoding="UTF-8" standalone="no"?>
<svg
   width="24"
   height="24"
   viewBox="0 0 24 24"
   fill="none"
   stroke="currentColor"
   stroke-width="1.75"
   stroke-linecap="round"
   stroke-linejoin="round"
   version="1.1"
   id="svg2"
   sodipodi:docname=".tmp_arrow-up-right.svg"
   xmlns:inkscape="http://www.inkscape.org/namespaces/inkscape"
   xmlns:sodipodi="http://sodipodi.sourceforge.net/DTD/sodipodi-0.dtd"
   xmlns="http://www.w3.org/2000/svg"
   xmlns:svg="http://www.w3.org/2000/svg">
  <defs
     id="defs2" />
  <sodipodi:namedview
     id="namedview2"
     pagecolor="#ffffff"
     bordercolor="#000000"
     borderopacity="0.25"
     inkscape:showpageshadow="2"
     inkscape:pageopacity="0.0"
     inkscape:pagecheckerboard="0"
     inkscape:deskcolor="#d1d1d1" />
  <path
     id="path1"
     style="baseline-shift:baseline;display:inline;overflow:visible;vector-effect:none;fill:#000000;stroke:none;stroke-linecap:butt;stroke-linejoin:miter;enable-background:accumulate;stop-color:#000000;stop-opacity:1;opacity:1"
     d="M 7 6.125 A 0.875 0.875 0 0 0 6.125 7 A 0.875 0.875 0 0 0 7 7.875 L 14.886719 7.875 L 6.3808594 16.380859 A 0.875 0.875 0 0 0 6.3808594 17.619141 A 0.875 0.875 0 0 0 7.6191406 17.619141 L 16.125 9.1132812 L 16.125 17 A 0.875 0.875 0 0 0 17 17.875 A 0.875 0.875 0 0 0 17.875 17 L 17.875 7.0390625 L 17.875 7 A 0.8750875 0.8750875 0 0 0 17.873047 6.9648438 A 0.875 0.875 0 0 0 17.867188 6.9003906 A 0.8750875 0.8750875 0 0 0 17.857422 6.8398438 A 0.8750875 0.8750875 0 0 0 17.851562 6.7988281 A 0.875 0.875 0 0 0 17.849609 6.7890625 A 0.8750875 0.8750875 0 0 0 17.830078 6.7265625 A 0.875 0.875 0 0 0 17.810547 6.6699219 A 0.875 0.875 0 0 0 17.808594 6.6660156 A 0.8750875 0.8750875 0 0 0 17.802734 6.6523438 A 0.875 0.875 0 0 0 17.757812 6.5625 A 0.875 0.875 0 0 0 17.693359 6.4667969 A 0.8750875 0.8750875 0 0 0 17.619141 6.3808594 A 0.875 0.875 0 0 0 17.4375 6.2421875 A 0.8750875 0.8750875 0 0 0 17.335938 6.1914062 A 0.875 0.875 0 0 0 17.333984 6.1914062 A 0.8750875 0.8750875 0 0 0 17.115234 6.1328125 A 0.875 0.875 0 0 0 17.113281 6.1328125 A 0.8750875 0.8750875 0 0 0 17 6.125 L 16.998047 6.125 L 7 6.125 z " />
</svg>
