<?xml version="1.0" encoding="UTF-8" standalone="no"?>
<svg
   width="24"
   height="24"
   viewBox="0 0 24 24"
   fill="none"
   stroke="currentColor"
   stroke-width="1.75"
   stroke-linecap="round"
   stroke-linejoin="round"
   version="1.1"
   id="svg4"
   sodipodi:docname=".tmp_arrow-left-right.svg"
   xmlns:inkscape="http://www.inkscape.org/namespaces/inkscape"
   xmlns:sodipodi="http://sodipodi.sourceforge.net/DTD/sodipodi-0.dtd"
   xmlns="http://www.w3.org/2000/svg"
   xmlns:svg="http://www.w3.org/2000/svg">
  <defs
     id="defs4" />
  <sodipodi:namedview
     id="namedview4"
     pagecolor="#ffffff"
     bordercolor="#000000"
     borderopacity="0.25"
     inkscape:showpageshadow="2"
     inkscape:pageopacity="0.0"
     inkscape:pagecheckerboard="0"
     inkscape:deskcolor="#d1d1d1" />
  <path
     id="path1"
     style="baseline-shift:baseline;display:inline;overflow:visible;vector-effect:none;fill:#000000;stroke:none;stroke-linecap:butt;stroke-linejoin:miter;enable-background:accumulate;stop-color:#000000;stop-opacity:1;opacity:1"
     d="M 8 2.125 A 0.875 0.875 0 0 0 7.3808594 2.3808594 L 3.3808594 6.3808594 A 0.8750875 0.8750875 0 0 0 3.1914062 6.6640625 A 0.875 0.875 0 0 0 3.1914062 6.6660156 A 0.8750875 0.8750875 0 0 0 3.1542969 7.2265625 A 0.875 0.875 0 0 0 3.1914062 7.3339844 A 0.8750875 0.8750875 0 0 0 3.1914062 7.3359375 A 0.8750875 0.8750875 0 0 0 3.3808594 7.6191406 L 7.3808594 11.619141 A 0.875 0.875 0 0 0 8.6191406 11.619141 A 0.875 0.875 0 0 0 8.6191406 10.380859 L 6.1132812 7.875 L 20 7.875 A 0.875 0.875 0 0 0 20.875 7 A 0.875 0.875 0 0 0 20 6.125 L 6.1132812 6.125 L 8.6191406 3.6191406 A 0.875 0.875 0 0 0 8.6191406 2.3808594 A 0.875 0.875 0 0 0 8 2.125 z M 16 12.125 A 0.875 0.875 0 0 0 15.380859 12.380859 A 0.875 0.875 0 0 0 15.380859 13.619141 L 17.886719 16.125 L 4 16.125 A 0.875 0.875 0 0 0 3.125 17 A 0.875 0.875 0 0 0 4 17.875 L 17.886719 17.875 L 15.380859 20.380859 A 0.875 0.875 0 0 0 15.380859 21.619141 A 0.875 0.875 0 0 0 16.619141 21.619141 L 20.619141 17.619141 A 0.8750875 0.8750875 0 0 0 20.757812 17.4375 A 0.8750875 0.8750875 0 0 0 20.808594 17.333984 A 0.875 0.875 0 0 0 20.845703 17.226562 A 0.8750875 0.8750875 0 0 0 20.875 17 A 0.8750875 0.8750875 0 0 0 20.845703 16.773438 A 0.8750875 0.8750875 0 0 0 20.808594 16.666016 A 0.875 0.875 0 0 0 20.808594 16.664062 A 0.8750875 0.8750875 0 0 0 20.757812 16.5625 A 0.8750875 0.8750875 0 0 0 20.619141 16.380859 L 16.619141 12.380859 A 0.875 0.875 0 0 0 16 12.125 z " />
</svg>
