<?xml version="1.0" encoding="UTF-8" standalone="no"?>
<svg
   width="24"
   height="24"
   viewBox="0 0 24 24"
   fill="none"
   stroke="currentColor"
   stroke-width="1.75"
   stroke-linecap="round"
   stroke-linejoin="round"
   version="1.1"
   id="svg2"
   sodipodi:docname=".tmp_arrow-big-left-dash.svg"
   xmlns:inkscape="http://www.inkscape.org/namespaces/inkscape"
   xmlns:sodipodi="http://sodipodi.sourceforge.net/DTD/sodipodi-0.dtd"
   xmlns="http://www.w3.org/2000/svg"
   xmlns:svg="http://www.w3.org/2000/svg">
  <defs
     id="defs2" />
  <sodipodi:namedview
     id="namedview2"
     pagecolor="#ffffff"
     bordercolor="#000000"
     borderopacity="0.25"
     inkscape:showpageshadow="2"
     inkscape:pageopacity="0.0"
     inkscape:pagecheckerboard="0"
     inkscape:deskcolor="#d1d1d1" />
  <path
     id="path1"
     style="baseline-shift:baseline;display:inline;overflow:visible;vector-effect:none;fill:#000000;stroke:none;stroke-linecap:butt;stroke-linejoin:miter;enable-background:accumulate;stop-color:#000000;stop-opacity:1;opacity:1"
     d="M 11.146484 3.0058594 C 10.940394 2.9948199 10.728713 3.0166694 10.523438 3.0722656 C 10.142245 3.1755067 9.7823658 3.395395 9.5214844 3.7402344 L 2.734375 10.529297 C 1.9299544 11.335188 1.9290399 12.667363 2.734375 13.472656 L 9.5214844 20.259766 C 10.063118 20.97619 11.029517 21.155997 11.736328 20.863281 C 12.4449 20.569837 13.002185 19.755464 12.875 18.863281 L 12.875 16 C 12.875 15.9206 12.9206 15.875 13 15.875 L 15 15.875 C 16.02517 15.875 16.875 15.02517 16.875 14 L 16.875 10 C 16.875 8.9748301 16.02517 8.125 15 8.125 L 13 8.125 C 12.9206 8.125 12.875 8.0794 12.875 8 L 12.875 5.1367188 C 13.002172 4.2445495 12.444891 3.43016 11.736328 3.1367188 C 11.553076 3.0608272 11.352575 3.0168989 11.146484 3.0058594 z M 10.986328 4.7207031 C 10.988764 4.720076 10.993728 4.7207001 10.996094 4.7207031 C 11.013784 4.7228417 11.032439 4.7398395 11.066406 4.7539062 C 11.095843 4.7660974 11.12047 4.7700641 11.134766 4.7773438 C 11.13577 4.7779767 11.139717 4.7805295 11.140625 4.78125 L 11.142578 4.7832031 C 11.153256 4.7972926 11.153616 4.825996 11.140625 4.8925781 A 0.8750875 0.8750875 0 0 0 11.125 5.0605469 L 11.125 8 C 11.125 9.0251699 11.97483 9.875 13 9.875 L 15 9.875 C 15.0794 9.875 15.125 9.9206 15.125 10 L 15.125 14 C 15.125 14.0794 15.0794 14.125 15 14.125 L 13 14.125 C 11.97483 14.125 11.125 14.97483 11.125 16 L 11.125 18.939453 A 0.8750875 0.8750875 0 0 0 11.140625 19.107422 C 11.153619 19.174005 11.151309 19.204661 11.140625 19.21875 L 11.138672 19.220703 C 11.137764 19.221424 11.133817 19.223976 11.132812 19.224609 C 11.118514 19.231889 11.095827 19.233902 11.066406 19.246094 C 11.032441 19.260161 11.011832 19.277158 10.994141 19.279297 C 10.975215 19.279322 10.954474 19.261197 10.914062 19.201172 A 0.8750875 0.8750875 0 0 0 10.808594 19.070312 L 3.9726562 12.234375 C 3.8356641 12.09739 3.8356641 11.90261 3.9726562 11.765625 L 10.808594 4.9296875 A 0.8750875 0.8750875 0 0 0 10.914062 4.7988281 C 10.949426 4.7463067 10.969276 4.7250929 10.986328 4.7207031 z M 20 8.125 A 0.875 0.875 0 0 0 19.125 9 L 19.125 15 A 0.875 0.875 0 0 0 20 15.875 A 0.875 0.875 0 0 0 20.875 15 L 20.875 9 A 0.875 0.875 0 0 0 20 8.125 z " />
</svg>
