<?xml version="1.0" encoding="UTF-8" standalone="no"?>
<svg
   width="24"
   height="24"
   viewBox="0 0 24 24"
   fill="none"
   stroke="currentColor"
   stroke-width="1.75"
   stroke-linecap="round"
   stroke-linejoin="round"
   version="1.1"
   id="svg2"
   sodipodi:docname=".tmp_atom.svg"
   xmlns:inkscape="http://www.inkscape.org/namespaces/inkscape"
   xmlns:sodipodi="http://sodipodi.sourceforge.net/DTD/sodipodi-0.dtd"
   xmlns="http://www.w3.org/2000/svg"
   xmlns:svg="http://www.w3.org/2000/svg">
  <defs
     id="defs2" />
  <sodipodi:namedview
     id="namedview2"
     pagecolor="#ffffff"
     bordercolor="#000000"
     borderopacity="0.25"
     inkscape:showpageshadow="2"
     inkscape:pageopacity="0.0"
     inkscape:pagecheckerboard="0"
     inkscape:deskcolor="#d1d1d1" />
  <path
     id="circle1"
     style="baseline-shift:baseline;display:inline;overflow:visible;vector-effect:none;fill:#000000;stroke:none;stroke-linecap:butt;stroke-linejoin:miter;enable-background:accumulate;stop-color:#000000;stop-opacity:1;opacity:1"
     d="M 5.8496094 2.1328125 C 4.8363122 2.1646225 3.8767663 2.4855069 3.1835938 3.1796875 L 3.1816406 3.1816406 L 3.1796875 3.1835938 C 2.4855069 3.8767663 2.1646225 4.8363122 2.1328125 5.8496094 C 2.1009425 6.8648064 2.3345834 7.9645695 2.7714844 9.1191406 C 3.1240375 10.050811 3.6118094 11.02055 4.2207031 12 C 3.6118064 12.979453 3.1240388 13.949186 2.7714844 14.880859 C 2.3345834 16.03543 2.1009428 17.135194 2.1328125 18.150391 C 2.1646225 19.163688 2.4855069 20.123234 3.1796875 20.816406 L 3.1816406 20.818359 L 3.1835938 20.820312 C 3.8767663 21.514494 4.8363122 21.835377 5.8496094 21.867188 C 6.8648064 21.899058 7.9645695 21.665417 9.1191406 21.228516 C 10.050841 20.875951 11.020518 20.388218 12 19.779297 C 12.979425 20.388169 13.949213 20.875971 14.880859 21.228516 C 16.03543 21.665417 17.135194 21.899057 18.150391 21.867188 C 19.163688 21.835377 20.123234 21.514494 20.816406 20.820312 C 21.513292 20.126843 21.835318 19.165588 21.867188 18.150391 C 21.899058 17.135194 21.665417 16.03543 21.228516 14.880859 C 20.875967 13.9492 20.38818 12.979438 19.779297 12 C 20.38817 11.020575 20.875971 10.050788 21.228516 9.1191406 C 21.665417 7.9645695 21.899057 6.8648064 21.867188 5.8496094 C 21.835377 4.8363122 21.514494 3.8767662 20.820312 3.1835938 L 20.818359 3.1816406 C 20.125097 2.4860048 19.164638 2.1646523 18.150391 2.1328125 C 17.135194 2.1009428 16.03543 2.3345834 14.880859 2.7714844 C 13.949189 3.1240376 12.97945 3.6118092 12 4.2207031 C 11.020548 3.6118096 10.050812 3.1240378 9.1191406 2.7714844 C 7.9645695 2.3345834 6.8648064 2.1009428 5.8496094 2.1328125 z M 5.9042969 3.8808594 C 6.6012878 3.858979 7.5008211 4.0301041 8.5 4.4082031 C 9.1049968 4.6371398 9.7458944 4.9398528 10.40625 5.3125 C 9.4860051 6.0035345 8.5705921 6.7965965 7.6835938 7.6796875 A 0.8750875 0.8750875 0 0 0 7.6796875 7.6835938 C 6.7966003 8.5705883 6.0035327 9.4860081 5.3125 10.40625 C 4.9398483 9.7458907 4.6371361 9.1049869 4.4082031 8.5 C 4.0301041 7.5008211 3.858979 6.6012873 3.8808594 5.9042969 C 3.9027397 5.2073064 4.0948548 4.741452 4.4179688 4.4199219 A 0.8750875 0.8750875 0 0 0 4.4199219 4.4179688 C 4.7414552 4.0948516 5.2073069 3.9027397 5.9042969 3.8808594 z M 18.095703 3.8808594 C 18.792694 3.9027394 19.258548 4.0948549 19.580078 4.4179688 A 0.8750875 0.8750875 0 0 0 19.582031 4.4199219 C 19.905145 4.741452 20.09726 5.2073064 20.119141 5.9042969 C 20.141021 6.6012873 19.969896 7.5008211 19.591797 8.5 C 19.362862 9.1049932 19.060158 9.7458834 18.6875 10.40625 C 17.996461 9.4859971 17.203411 8.5705997 16.320312 7.6835938 A 0.8750875 0.8750875 0 0 0 16.316406 7.6796875 C 15.429405 6.7966052 14.513994 6.0035307 13.59375 5.3125 C 14.254107 4.9398487 14.895015 4.6371354 15.5 4.4082031 C 16.499179 4.0301041 17.398713 3.858979 18.095703 3.8808594 z M 12 6.3242188 C 13.030592 7.0479929 14.076665 7.9189839 15.082031 8.9199219 C 16.08214 9.9246894 16.952465 10.970055 17.675781 12 C 16.952474 13.029924 16.082119 14.075332 15.082031 15.080078 L 15.080078 15.080078 L 15.080078 15.082031 C 14.075305 16.082126 13.029952 16.954421 12 17.677734 C 10.970066 16.954423 9.9246779 16.082128 8.9199219 15.082031 L 8.9179688 15.080078 C 7.9178889 14.075319 7.047526 13.029937 6.3242188 12 C 7.0479936 10.969407 7.9189823 9.9233371 8.9199219 8.9179688 C 9.9246828 7.9178672 10.970061 7.0475326 12 6.3242188 z M 12 10.125 C 10.97483 10.125 10.125 10.97483 10.125 12 C 10.125 13.02517 10.97483 13.875 12 13.875 C 13.02517 13.875 13.875 13.02517 13.875 12 C 13.875 10.97483 13.02517 10.125 12 10.125 z M 12 11.875 C 12.0794 11.875 12.125 11.9206 12.125 12 C 12.125 12.0794 12.0794 12.125 12 12.125 C 11.9206 12.125 11.875 12.0794 11.875 12 C 11.875 11.9206 11.9206 11.875 12 11.875 z M 5.3125 13.59375 C 6.0035349 14.513996 6.7965959 15.429407 7.6796875 16.316406 A 0.8750875 0.8750875 0 0 0 7.6835938 16.320312 C 8.5705917 17.203403 9.4860055 17.996466 10.40625 18.6875 C 9.7458852 19.060156 9.1049917 19.362862 8.5 19.591797 C 7.5008211 19.969896 6.6012873 20.141021 5.9042969 20.119141 C 5.2073064 20.09726 4.741452 19.905145 4.4199219 19.582031 A 0.8750875 0.8750875 0 0 0 4.4179688 19.580078 C 4.0948516 19.258595 3.9027397 18.792694 3.8808594 18.095703 C 3.858979 17.398713 4.0301041 16.499179 4.4082031 15.5 C 4.6371408 14.895001 4.9398506 14.254109 5.3125 13.59375 z M 18.6875 13.59375 C 19.06014 14.254092 19.36287 14.895028 19.591797 15.5 C 19.969896 16.499179 20.141021 17.398713 20.119141 18.095703 C 20.097261 18.792694 19.905145 19.258548 19.582031 19.580078 A 0.8750875 0.8750875 0 0 0 19.580078 19.582031 C 19.258548 19.905145 18.792694 20.09726 18.095703 20.119141 C 17.398713 20.141021 16.499179 19.969896 15.5 19.591797 C 14.895031 19.362871 14.254088 19.060137 13.59375 18.6875 C 14.513986 17.99647 15.429416 17.203396 16.316406 16.320312 A 0.8750875 0.8750875 0 0 0 16.320312 16.316406 C 17.203418 15.429393 17.996457 14.51401 18.6875 13.59375 z " />
</svg>
