<?xml version="1.0" encoding="UTF-8" standalone="no"?>
<svg
   width="24"
   height="24"
   viewBox="0 0 24 24"
   fill="none"
   stroke="currentColor"
   stroke-width="1.75"
   stroke-linecap="round"
   stroke-linejoin="round"
   version="1.1"
   id="svg2"
   sodipodi:docname=".tmp_axe.svg"
   xmlns:inkscape="http://www.inkscape.org/namespaces/inkscape"
   xmlns:sodipodi="http://sodipodi.sourceforge.net/DTD/sodipodi-0.dtd"
   xmlns="http://www.w3.org/2000/svg"
   xmlns:svg="http://www.w3.org/2000/svg">
  <defs
     id="defs2" />
  <sodipodi:namedview
     id="namedview2"
     pagecolor="#ffffff"
     bordercolor="#000000"
     borderopacity="0.25"
     inkscape:showpageshadow="2"
     inkscape:pageopacity="0.0"
     inkscape:pagecheckerboard="0"
     inkscape:deskcolor="#d1d1d1" />
  <path
     id="path1"
     style="baseline-shift:baseline;display:inline;overflow:visible;vector-effect:none;fill:#000000;stroke:none;stroke-linecap:butt;stroke-linejoin:miter;enable-background:accumulate;stop-color:#000000;stop-opacity:1;opacity:1"
     d="M 12.5 2.1289062 C 11.965899 2.1289062 11.431767 2.3300121 11.029297 2.7324219 L 8.7324219 5.0292969 C 7.9276024 5.8342366 7.9276024 7.1657634 8.7324219 7.9707031 L 9.7617188 9 L 2 16.761719 C 1.3453463 17.416591 1.0423323 18.253097 1.0878906 19.025391 C 1.133449 19.797684 1.4873592 20.48753 2 21 C 2.5126408 21.51247 3.2023006 21.864855 3.9746094 21.910156 C 4.7469181 21.955456 5.5836277 21.652919 6.2382812 20.998047 L 13.972656 13.265625 C 14.071148 13.435238 14.124957 13.628258 14.125 13.828125 L 14.125 15.5 C 14.125 16.249027 14.750973 16.875 15.5 16.875 C 19.562736 16.875 22.875 13.562736 22.875 9.5 C 22.875 8.7509725 22.249027 8.125 21.5 8.125 L 19.828125 8.125 C 19.529445 8.1249362 19.24437 8.0061526 19.033203 7.7949219 L 13.970703 2.7324219 C 13.568233 2.3300121 13.034101 2.1289062 12.5 2.1289062 z M 12.5 3.8691406 C 12.582162 3.8691406 12.664324 3.902616 12.732422 3.9707031 L 17.794922 9.0332031 C 18.333726 9.5721699 19.066026 9.8748372 19.828125 9.875 L 21.048828 9.875 C 20.855867 12.674619 18.674619 14.855867 15.875 15.048828 L 15.875 13.828125 C 15.874837 13.066026 15.57217 12.333726 15.033203 11.794922 L 14.621094 11.382812 A 0.875 0.875 0 0 0 14.619141 11.380859 A 0.875 0.875 0 0 0 14.617188 11.378906 L 11.621094 8.3828125 A 0.875 0.875 0 0 0 11.619141 8.3808594 A 0.875 0.875 0 0 0 11.617188 8.3789062 L 9.9707031 6.7324219 C 9.8345288 6.5962272 9.8345288 6.4037728 9.9707031 6.2675781 L 12.267578 3.9707031 C 12.335676 3.902616 12.417838 3.8691406 12.5 3.8691406 z M 11 10.238281 L 12.761719 12 L 5 19.761719 C 4.6546541 20.10718 4.3665504 20.181095 4.0761719 20.164062 C 3.7857934 20.14703 3.4739373 19.999249 3.2363281 19.761719 C 2.998719 19.524189 2.8530669 19.212248 2.8359375 18.921875 C 2.8188081 18.631502 2.8909822 18.343508 3.2363281 17.998047 L 11 10.238281 z " />
</svg>
