<?xml version="1.0" encoding="UTF-8" standalone="no"?>
<svg
   width="24"
   height="24"
   viewBox="0 0 24 24"
   fill="none"
   stroke="currentColor"
   stroke-width="1.75"
   stroke-linecap="round"
   stroke-linejoin="round"
   version="1.1"
   id="svg5"
   sodipodi:docname=".tmp_beer.svg"
   xmlns:inkscape="http://www.inkscape.org/namespaces/inkscape"
   xmlns:sodipodi="http://sodipodi.sourceforge.net/DTD/sodipodi-0.dtd"
   xmlns="http://www.w3.org/2000/svg"
   xmlns:svg="http://www.w3.org/2000/svg">
  <defs
     id="defs5" />
  <sodipodi:namedview
     id="namedview5"
     pagecolor="#ffffff"
     bordercolor="#000000"
     borderopacity="0.25"
     inkscape:showpageshadow="2"
     inkscape:pageopacity="0.0"
     inkscape:pagecheckerboard="0"
     inkscape:deskcolor="#d1d1d1" />
  <path
     id="path1"
     style="baseline-shift:baseline;display:inline;overflow:visible;vector-effect:none;fill:#000000;stroke:none;stroke-linecap:butt;stroke-linejoin:miter;enable-background:accumulate;stop-color:#000000;stop-opacity:1;opacity:1"
     d="M 11 1.125 C 9.9395513 1.125 9.1733724 1.6753862 8.6953125 2.0839844 C 8.4562826 2.2882835 8.2670971 2.4606032 8.1425781 2.546875 C 8.0491889 2.6115788 8.0124873 2.6232473 8.0019531 2.625 L 8 2.625 C 7.3836201 2.625 6.6539316 2.125 5.5 2.125 C 4.4479169 2.125 3.5477332 2.5500596 2.9707031 3.1992188 C 2.393673 3.8483778 2.125 4.6805556 2.125 5.5 C 2.125 6.3194444 2.393673 7.1516222 2.9707031 7.8007812 C 3.2743182 8.1423484 3.6673994 8.4211674 4.125 8.609375 L 4.125 20 C 4.125 21.577455 5.4225454 22.875 7 22.875 L 15 22.875 C 16.577455 22.875 17.875 21.577455 17.875 20 L 17.875 17.875 L 18 17.875 C 19.21875 17.875 20.243933 17.38744 20.904297 16.644531 C 21.56466 15.901622 21.875 14.944444 21.875 14 C 21.875 13.055556 21.56466 12.098378 20.904297 11.355469 C 20.243933 10.61256 19.21875 10.125 18 10.125 L 17.875 10.125 L 17.875 8.609375 C 18.332601 8.4211674 18.725682 8.1423484 19.029297 7.8007812 C 19.606327 7.1516221 19.875 6.3194444 19.875 5.5 C 19.875 4.6805556 19.606327 3.8483779 19.029297 3.1992188 C 18.452267 2.5500595 17.552083 2.125 16.5 2.125 C 15.346068 2.125 14.708333 2.625 14 2.625 C 13.9375 2.625 13.750608 2.4957609 13.285156 2.0898438 C 12.819704 1.6839264 12.060449 1.125 11 1.125 z M 11 2.875 C 11.499551 2.875 11.740217 3.0660734 12.134766 3.4101562 C 12.529314 3.7542389 13.0625 4.375 14 4.375 C 15.291667 4.375 16.093932 3.875 16.5 3.875 C 17.114583 3.875 17.4644 4.0749404 17.720703 4.3632812 C 17.977006 4.6516221 18.125 5.0694444 18.125 5.5 C 18.125 5.9305556 17.977006 6.3483779 17.720703 6.6367188 C 17.4644 6.9250596 17.114583 7.125 16.5 7.125 C 16.093932 7.125 15.291667 6.625 14 6.625 C 13.354167 6.625 12.870402 6.7922615 12.464844 6.9101562 C 12.059286 7.028051 11.686517 7.125 11 7.125 C 10.313483 7.125 9.940714 7.028051 9.5351562 6.9101562 C 9.1295984 6.7922616 8.6458333 6.625 8 6.625 C 6.7083333 6.625 5.9060684 7.125 5.5 7.125 C 4.8854171 7.125 4.5355997 6.9250597 4.2792969 6.6367188 C 4.022994 6.3483779 3.875 5.9305556 3.875 5.5 C 3.875 5.0694444 4.022994 4.6516221 4.2792969 4.3632812 C 4.5355997 4.0749404 4.8854171 3.875 5.5 3.875 C 5.9060684 3.875 6.7563799 4.375 8 4.375 C 8.4677151 4.375 8.8592064 4.1793532 9.140625 3.984375 C 9.4220436 3.7893968 9.6323111 3.5867165 9.8320312 3.4160156 C 10.231471 3.0746138 10.500449 2.875 11 2.875 z M 8 8.375 C 8.3541667 8.375 8.5904797 8.4577379 9.0449219 8.5898438 C 9.4993641 8.7219489 10.126517 8.875 11 8.875 C 11.873483 8.875 12.500636 8.721949 12.955078 8.5898438 C 13.40952 8.4577384 13.645833 8.375 14 8.375 C 14.627671 8.375 15.199907 8.7680047 16.125 8.8574219 L 16.125 11 L 16.125 17 L 16.125 20 C 16.125 20.631684 15.631684 21.125 15 21.125 L 7 21.125 C 6.3683156 21.125 5.875 20.631684 5.875 20 L 5.875 8.8574219 C 6.8000925 8.7680047 7.3723288 8.375 8 8.375 z M 9 11.125 A 0.875 0.875 0 0 0 8.125 12 L 8.125 18 A 0.875 0.875 0 0 0 9 18.875 A 0.875 0.875 0 0 0 9.875 18 L 9.875 12 A 0.875 0.875 0 0 0 9 11.125 z M 13 11.125 A 0.875 0.875 0 0 0 12.125 12 L 12.125 18 A 0.875 0.875 0 0 0 13 18.875 A 0.875 0.875 0 0 0 13.875 18 L 13.875 12 A 0.875 0.875 0 0 0 13 11.125 z M 17.875 11.875 L 18 11.875 C 18.781249 11.875 19.256067 12.13744 19.595703 12.519531 C 19.935339 12.901622 20.125 13.444444 20.125 14 C 20.125 14.555556 19.935339 15.098378 19.595703 15.480469 C 19.256067 15.86256 18.781249 16.125 18 16.125 L 17.875 16.125 L 17.875 11.875 z " />
</svg>
