<?xml version="1.0" encoding="UTF-8" standalone="no"?>
<svg
   width="24"
   height="24"
   viewBox="0 0 24 24"
   fill="none"
   stroke="currentColor"
   stroke-width="1.75"
   stroke-linecap="round"
   stroke-linejoin="round"
   version="1.1"
   id="svg9"
   sodipodi:docname=".tmp_biohazard.svg"
   xmlns:inkscape="http://www.inkscape.org/namespaces/inkscape"
   xmlns:sodipodi="http://sodipodi.sourceforge.net/DTD/sodipodi-0.dtd"
   xmlns="http://www.w3.org/2000/svg"
   xmlns:svg="http://www.w3.org/2000/svg">
  <defs
     id="defs9" />
  <sodipodi:namedview
     id="namedview9"
     pagecolor="#ffffff"
     bordercolor="#000000"
     borderopacity="0.25"
     inkscape:showpageshadow="2"
     inkscape:pageopacity="0.0"
     inkscape:pagecheckerboard="0"
     inkscape:deskcolor="#d1d1d1" />
  <path
     id="circle1"
     style="baseline-shift:baseline;display:inline;overflow:visible;vector-effect:none;fill:#000000;stroke:none;stroke-linecap:butt;stroke-linejoin:miter;enable-background:accumulate;stop-color:#000000;stop-opacity:1;opacity:1"
     d="M 6.6582031 2.5253906 A 0.875 0.875 0 0 0 5.8769531 3.1035156 C 5.177255 5.0471215 5.4998312 7.0875606 6.5234375 8.7539062 C 4.5739717 8.7286266 2.6562518 9.4775945 1.3339844 11.033203 A 0.875 0.875 0 0 0 1.4335938 12.267578 A 0.875 0.875 0 0 0 2.6660156 12.166016 C 4.1069851 10.470757 6.4537461 9.9573937 8.5019531 10.878906 L 9.1933594 11.275391 C 9.1480703 11.476694 9.125 11.686221 9.125 11.900391 C 9.125 13.173305 9.9699037 14.263045 11.125 14.636719 L 11.125 15.458984 C 10.944667 17.663179 9.3446635 19.500761 7.1660156 19.835938 A 0.875 0.875 0 0 0 6.4355469 20.833984 A 0.875 0.875 0 0 0 7.4335938 21.564453 C 9.4394497 21.25586 11.018197 19.980852 11.960938 18.310547 C 12.898995 20.048987 14.541509 21.35254 16.566406 21.664062 A 0.875 0.875 0 0 0 17.564453 20.933594 A 0.875 0.875 0 0 0 16.833984 19.935547 C 14.643902 19.598611 12.95968 17.753154 12.875 15.466797 L 12.875 14.636719 C 14.030096 14.263045 14.875 13.173305 14.875 11.900391 C 14.875 11.686221 14.85193 11.476694 14.806641 11.275391 L 15.492188 10.882812 C 17.544192 9.8571633 19.864822 10.35243 21.320312 12.150391 A 0.875 0.875 0 0 0 22.550781 12.279297 A 0.875 0.875 0 0 0 22.679688 11.048828 C 21.371555 9.4329002 19.454089 8.6624191 17.505859 8.6992188 C 18.502428 7.0421265 18.815296 5.0264286 18.123047 3.1035156 A 0.875 0.875 0 0 0 17.003906 2.5761719 A 0.875 0.875 0 0 0 16.476562 3.6972656 C 17.241321 5.8215918 16.503621 8.0646941 14.638672 9.3554688 L 13.919922 9.7675781 C 13.409477 9.3074734 12.734685 9.0253906 12 9.0253906 C 11.265315 9.0253906 10.590523 9.3074733 10.080078 9.7675781 L 9.3613281 9.3554688 C 7.496378 8.0646943 6.7586798 5.8215926 7.5234375 3.6972656 A 0.875 0.875 0 0 0 6.9960938 2.5761719 A 0.875 0.875 0 0 0 6.6582031 2.5253906 z M 12 4.375 C 11.441563 4.375 10.883125 4.4300155 10.328125 4.5410156 A 0.875 0.875 0 0 0 9.6425781 5.5722656 A 0.875 0.875 0 0 0 10.671875 6.2578125 C 11.561874 6.0798127 12.438126 6.0798127 13.328125 6.2578125 A 0.875 0.875 0 0 0 14.357422 5.5722656 A 0.875 0.875 0 0 0 13.671875 4.5410156 C 13.116874 4.4300155 12.558437 4.375 12 4.375 z M 12 10.775391 C 12.354418 10.775391 12.664531 10.929837 12.869141 11.177734 A 0.875 0.875 0 0 0 12.939453 11.333984 A 0.875 0.875 0 0 0 13.048828 11.486328 C 13.097845 11.613934 13.125 11.753297 13.125 11.900391 C 13.125 12.532075 12.631684 13.025391 12 13.025391 C 11.368316 13.025391 10.875 12.532075 10.875 11.900391 C 10.875 11.753297 10.902155 11.613934 10.951172 11.486328 A 0.875 0.875 0 0 0 11.060547 11.333984 A 0.875 0.875 0 0 0 11.130859 11.177734 C 11.335469 10.929838 11.645583 10.775391 12 10.775391 z M 5.4472656 13.027344 A 0.875 0.875 0 0 0 5.2226562 13.070312 A 0.875 0.875 0 0 0 4.6699219 14.175781 C 5.0068151 15.186461 5.5630082 16.20168 6.3808594 17.019531 A 0.875 0.875 0 0 0 7.6191406 17.019531 A 0.875 0.875 0 0 0 7.6191406 15.78125 C 7.0369918 15.199101 6.5931849 14.412367 6.3300781 13.623047 A 0.875 0.875 0 0 0 5.4472656 13.027344 z M 18.439453 13.027344 A 0.875 0.875 0 0 0 17.669922 13.623047 C 17.406815 14.412367 16.963008 15.199101 16.380859 15.78125 A 0.875 0.875 0 0 0 16.380859 17.019531 A 0.875 0.875 0 0 0 17.619141 17.019531 C 18.436992 16.20168 18.993185 15.186461 19.330078 14.175781 A 0.875 0.875 0 0 0 18.777344 13.070312 A 0.875 0.875 0 0 0 18.439453 13.027344 z " />
</svg>
