<?xml version="1.0" encoding="UTF-8" standalone="no"?>
<svg
   width="24"
   height="24"
   viewBox="0 0 24 24"
   fill="none"
   stroke="currentColor"
   stroke-width="1.75"
   stroke-linecap="round"
   stroke-linejoin="round"
   version="1.1"
   id="svg3"
   sodipodi:docname=".tmp_bluetooth-off.svg"
   xmlns:inkscape="http://www.inkscape.org/namespaces/inkscape"
   xmlns:sodipodi="http://sodipodi.sourceforge.net/DTD/sodipodi-0.dtd"
   xmlns="http://www.w3.org/2000/svg"
   xmlns:svg="http://www.w3.org/2000/svg">
  <defs
     id="defs3" />
  <sodipodi:namedview
     id="namedview3"
     pagecolor="#ffffff"
     bordercolor="#000000"
     borderopacity="0.25"
     inkscape:showpageshadow="2"
     inkscape:pageopacity="0.0"
     inkscape:pagecheckerboard="0"
     inkscape:deskcolor="#d1d1d1" />
  <path
     id="path1"
     style="baseline-shift:baseline;display:inline;overflow:visible;vector-effect:none;fill:#000000;stroke:none;stroke-linecap:butt;stroke-linejoin:miter;enable-background:accumulate;stop-color:#000000;stop-opacity:1;opacity:1"
     d="M 2 1.125 A 0.875 0.875 0 0 0 1.3808594 1.3808594 A 0.875 0.875 0 0 0 1.3808594 2.6191406 L 10.761719 12 L 6.3808594 16.380859 A 0.875 0.875 0 0 0 6.3808594 17.619141 A 0.875 0.875 0 0 0 7.6191406 17.619141 L 11.125 14.113281 L 11.125 22 A 0.8750875 0.8750875 0 0 0 12.619141 22.619141 L 17 18.238281 L 21.380859 22.619141 A 0.875 0.875 0 0 0 22.619141 22.619141 A 0.875 0.875 0 0 0 22.619141 21.380859 L 2.6191406 1.3808594 A 0.875 0.875 0 0 0 2 1.125 z M 12 1.125 A 0.8750875 0.8750875 0 0 0 11.666016 1.1914062 A 0.8750875 0.8750875 0 0 0 11.125 2 L 11.125 6.5 A 0.875 0.875 0 0 0 12 7.375 A 0.875 0.875 0 0 0 12.875 6.5 L 12.875 4.1132812 L 15.761719 7 L 13.880859 8.8808594 A 0.875 0.875 0 0 0 13.880859 10.119141 A 0.875 0.875 0 0 0 15.119141 10.119141 L 17.619141 7.6191406 A 0.8750875 0.8750875 0 0 0 17.619141 6.3808594 L 12.619141 1.3808594 A 0.8750875 0.8750875 0 0 0 12 1.125 z M 12.875 14.113281 L 15.761719 17 L 12.875 19.886719 L 12.875 14.113281 z " />
</svg>
