<?xml version="1.0" encoding="UTF-8" standalone="no"?>
<svg
   width="24"
   height="24"
   viewBox="0 0 24 24"
   fill="none"
   stroke="currentColor"
   stroke-width="1.75"
   stroke-linecap="round"
   stroke-linejoin="round"
   version="1.1"
   id="svg11"
   sodipodi:docname=".tmp_book-dashed.svg"
   xmlns:inkscape="http://www.inkscape.org/namespaces/inkscape"
   xmlns:sodipodi="http://sodipodi.sourceforge.net/DTD/sodipodi-0.dtd"
   xmlns="http://www.w3.org/2000/svg"
   xmlns:svg="http://www.w3.org/2000/svg">
  <defs
     id="defs11" />
  <sodipodi:namedview
     id="namedview11"
     pagecolor="#ffffff"
     bordercolor="#000000"
     borderopacity="0.25"
     inkscape:showpageshadow="2"
     inkscape:pageopacity="0.0"
     inkscape:pagecheckerboard="0"
     inkscape:deskcolor="#d1d1d1" />
  <path
     id="path1"
     style="baseline-shift:baseline;display:inline;overflow:visible;vector-effect:none;fill:#000000;stroke:none;stroke-linecap:butt;stroke-linejoin:miter;enable-background:accumulate;stop-color:#000000;stop-opacity:1;opacity:1"
     d="M 6.5 1.125 C 4.646403 1.125 3.125 2.646403 3.125 4.5 A 0.875 0.875 0 0 0 4 5.375 A 0.875 0.875 0 0 0 4.875 4.5 C 4.875 3.5921732 5.5921732 2.875 6.5 2.875 L 8 2.875 A 0.875 0.875 0 0 0 8.875 2 A 0.875 0.875 0 0 0 8 1.125 L 6.5 1.125 z M 12 1.125 A 0.875 0.875 0 0 0 11.125 2 A 0.875 0.875 0 0 0 12 2.875 L 13.5 2.875 A 0.875 0.875 0 0 0 14.375 2 A 0.875 0.875 0 0 0 13.5 1.125 L 12 1.125 z M 17.5 1.125 A 0.875 0.875 0 0 0 16.625 2 A 0.875 0.875 0 0 0 17.5 2.875 L 19 2.875 C 19.0794 2.875 19.125 2.9206 19.125 3 L 19.125 4.5 A 0.875 0.875 0 0 0 20 5.375 A 0.875 0.875 0 0 0 20.875 4.5 L 20.875 3 C 20.875 1.9748301 20.02517 1.125 19 1.125 L 17.5 1.125 z M 4 7.625 A 0.875 0.875 0 0 0 3.125 8.5 L 3.125 10 A 0.875 0.875 0 0 0 4 10.875 A 0.875 0.875 0 0 0 4.875 10 L 4.875 8.5 A 0.875 0.875 0 0 0 4 7.625 z M 20 7.625 A 0.875 0.875 0 0 0 19.125 8.5 L 19.125 10 A 0.875 0.875 0 0 0 20 10.875 A 0.875 0.875 0 0 0 20.875 10 L 20.875 8.5 A 0.875 0.875 0 0 0 20 7.625 z M 4 13.125 A 0.875 0.875 0 0 0 3.125 14 L 3.125 19.5 C 3.125 20.319444 3.393673 21.151622 3.9707031 21.800781 C 4.5477332 22.44994 5.4479169 22.875 6.5 22.875 L 8 22.875 A 0.875 0.875 0 0 0 8.875 22 A 0.875 0.875 0 0 0 8 21.125 L 6.5 21.125 C 5.8854171 21.125 5.5355997 20.92506 5.2792969 20.636719 C 5.022994 20.348378 4.875 19.930556 4.875 19.5 C 4.875 19.069444 5.022994 18.651622 5.2792969 18.363281 C 5.5355997 18.07494 5.8854171 17.875 6.5 17.875 L 8 17.875 A 0.875 0.875 0 0 0 8.875 17 A 0.875 0.875 0 0 0 8 16.125 L 6.5 16.125 C 5.8978789 16.125 5.3455113 16.265081 4.875 16.505859 L 4.875 14 A 0.875 0.875 0 0 0 4 13.125 z M 20 13.125 A 0.875 0.875 0 0 0 19.125 14 L 19.125 16.125 L 17.5 16.125 A 0.875 0.875 0 0 0 16.625 17 A 0.875 0.875 0 0 0 17.5 17.875 L 20 17.875 A 0.8750875 0.8750875 0 0 0 20.875 17 L 20.875 14 A 0.875 0.875 0 0 0 20 13.125 z M 12 16.125 A 0.875 0.875 0 0 0 11.125 17 A 0.875 0.875 0 0 0 12 17.875 L 13.5 17.875 A 0.875 0.875 0 0 0 14.375 17 A 0.875 0.875 0 0 0 13.5 16.125 L 12 16.125 z M 20 20.125 A 0.875 0.875 0 0 0 19.125 21 C 19.125 21.0794 19.0794 21.125 19 21.125 L 17.5 21.125 A 0.875 0.875 0 0 0 16.625 22 A 0.875 0.875 0 0 0 17.5 22.875 L 19 22.875 C 20.02517 22.875 20.875 22.02517 20.875 21 A 0.875 0.875 0 0 0 20 20.125 z M 12 21.125 A 0.875 0.875 0 0 0 11.125 22 A 0.875 0.875 0 0 0 12 22.875 L 13.5 22.875 A 0.875 0.875 0 0 0 14.375 22 A 0.875 0.875 0 0 0 13.5 21.125 L 12 21.125 z " />
</svg>
