<?xml version="1.0" encoding="UTF-8" standalone="no"?>
<svg
   width="24"
   height="24"
   viewBox="0 0 24 24"
   fill="none"
   stroke="currentColor"
   stroke-width="1.75"
   stroke-linecap="round"
   stroke-linejoin="round"
   version="1.1"
   id="svg3"
   sodipodi:docname=".tmp_book-headphones.svg"
   xmlns:inkscape="http://www.inkscape.org/namespaces/inkscape"
   xmlns:sodipodi="http://sodipodi.sourceforge.net/DTD/sodipodi-0.dtd"
   xmlns="http://www.w3.org/2000/svg"
   xmlns:svg="http://www.w3.org/2000/svg">
  <defs
     id="defs3" />
  <sodipodi:namedview
     id="namedview3"
     pagecolor="#ffffff"
     bordercolor="#000000"
     borderopacity="0.25"
     inkscape:showpageshadow="2"
     inkscape:pageopacity="0.0"
     inkscape:pagecheckerboard="0"
     inkscape:deskcolor="#d1d1d1" />
  <path
     id="path1"
     style="baseline-shift:baseline;display:inline;overflow:visible;vector-effect:none;fill:#000000;stroke:none;stroke-linecap:butt;stroke-linejoin:miter;enable-background:accumulate;stop-color:#000000;stop-opacity:1;opacity:1"
     d="M 6.5 1.125 C 4.646403 1.125 3.125 2.646403 3.125 4.5 L 3.125 19.5 C 3.125 20.319444 3.393673 21.151622 3.9707031 21.800781 C 4.5477332 22.44994 5.4479169 22.875 6.5 22.875 L 19 22.875 C 20.02517 22.875 20.875 22.02517 20.875 21 L 20.875 17 L 20.875 3 C 20.875 1.9748301 20.02517 1.125 19 1.125 L 6.5 1.125 z M 6.5 2.875 L 19 2.875 C 19.0794 2.875 19.125 2.9206 19.125 3 L 19.125 16.125 L 6.5 16.125 C 5.8858526 16.125 5.3514715 16.300869 4.875 16.550781 L 4.875 4.5 C 4.875 3.5921732 5.5921732 2.875 6.5 2.875 z M 12 5.125 C 10.805556 5.125 9.5983778 5.5186731 8.6679688 6.3457031 C 7.7375595 7.1727331 7.125 8.4479172 7.125 10 L 7.125 12 C 7.125 13.02517 7.9748301 13.875 9 13.875 C 10.02517 13.875 10.875 13.02517 10.875 12 C 10.875 10.97483 10.02517 10.125 9 10.125 C 8.9580239 10.125 8.9163418 10.126103 8.875 10.128906 L 8.875 10 C 8.875 8.8854173 9.2624403 8.1605996 9.8320312 7.6542969 C 10.401622 7.1479941 11.194444 6.875 12 6.875 C 12.805556 6.875 13.598378 7.1479941 14.167969 7.6542969 C 14.73756 8.1605996 15.125 8.8854173 15.125 10 L 15.125 10.128906 C 15.083658 10.126103 15.041976 10.125 15 10.125 C 13.97483 10.125 13.125 10.97483 13.125 12 C 13.125 13.02517 13.97483 13.875 15 13.875 C 16.02517 13.875 16.875 13.02517 16.875 12 L 16.875 10 C 16.875 8.4479172 16.26244 7.1727331 15.332031 6.3457031 C 14.401622 5.5186731 13.194444 5.125 12 5.125 z M 9 11.875 C 9.0794 11.875 9.125 11.9206 9.125 12 C 9.125 12.0794 9.0794 12.125 9 12.125 C 8.9206 12.125 8.875 12.0794 8.875 12 C 8.875 11.9206 8.9206 11.875 9 11.875 z M 15 11.875 C 15.0794 11.875 15.125 11.9206 15.125 12 C 15.125 12.0794 15.0794 12.125 15 12.125 C 14.9206 12.125 14.875 12.0794 14.875 12 C 14.875 11.9206 14.9206 11.875 15 11.875 z M 6.5 17.875 L 19.125 17.875 L 19.125 21 C 19.125 21.0794 19.0794 21.125 19 21.125 L 6.5 21.125 C 5.8854171 21.125 5.5355997 20.92506 5.2792969 20.636719 C 5.022994 20.348378 4.875 19.930556 4.875 19.5 C 4.875 19.069444 5.022994 18.651622 5.2792969 18.363281 C 5.5355997 18.07494 5.8854171 17.875 6.5 17.875 z " />
</svg>
