<?xml version="1.0" encoding="UTF-8" standalone="no"?>
<svg
   width="24"
   height="24"
   viewBox="0 0 24 24"
   fill="none"
   stroke="currentColor"
   stroke-width="1.75"
   stroke-linecap="round"
   stroke-linejoin="round"
   version="1.1"
   id="svg1"
   sodipodi:docname=".tmp_bookmark.svg"
   xmlns:inkscape="http://www.inkscape.org/namespaces/inkscape"
   xmlns:sodipodi="http://sodipodi.sourceforge.net/DTD/sodipodi-0.dtd"
   xmlns="http://www.w3.org/2000/svg"
   xmlns:svg="http://www.w3.org/2000/svg">
  <defs
     id="defs1" />
  <sodipodi:namedview
     id="namedview1"
     pagecolor="#ffffff"
     bordercolor="#000000"
     borderopacity="0.25"
     inkscape:showpageshadow="2"
     inkscape:pageopacity="0.0"
     inkscape:pagecheckerboard="0"
     inkscape:deskcolor="#d1d1d1" />
  <path
     id="path1"
     style="baseline-shift:baseline;display:inline;overflow:visible;vector-effect:none;fill:#000000;stroke:none;stroke-linecap:butt;stroke-linejoin:miter;enable-background:accumulate;stop-color:#000000;stop-opacity:1;opacity:1"
     d="M 7 2.125 C 5.4225454 2.125 4.125 3.4225454 4.125 5 L 4.125 21 A 0.8750875 0.8750875 0 0 0 5.4335938 21.759766 L 12 18.007812 L 18.566406 21.759766 A 0.8750875 0.8750875 0 0 0 19.875 21 L 19.875 5 C 19.875 3.4225454 18.577455 2.125 17 2.125 L 7 2.125 z M 7 3.875 L 17 3.875 C 17.631684 3.875 18.125 4.3683156 18.125 5 L 18.125 19.492188 L 12.433594 16.240234 A 0.8750875 0.8750875 0 0 0 11.566406 16.240234 L 5.875 19.492188 L 5.875 5 C 5.875 4.3683156 6.3683156 3.875 7 3.875 z " />
</svg>
