<?xml version="1.0" encoding="UTF-8" standalone="no"?>
<svg
   width="24"
   height="24"
   viewBox="0 0 24 24"
   fill="none"
   stroke="currentColor"
   stroke-width="1.75"
   stroke-linecap="round"
   stroke-linejoin="round"
   version="1.1"
   id="svg2"
   sodipodi:docname=".tmp_brackets.svg"
   xmlns:inkscape="http://www.inkscape.org/namespaces/inkscape"
   xmlns:sodipodi="http://sodipodi.sourceforge.net/DTD/sodipodi-0.dtd"
   xmlns="http://www.w3.org/2000/svg"
   xmlns:svg="http://www.w3.org/2000/svg">
  <defs
     id="defs2" />
  <sodipodi:namedview
     id="namedview2"
     pagecolor="#ffffff"
     bordercolor="#000000"
     borderopacity="0.25"
     inkscape:showpageshadow="2"
     inkscape:pageopacity="0.0"
     inkscape:pagecheckerboard="0"
     inkscape:deskcolor="#d1d1d1" />
  <path
     id="path1"
     style="baseline-shift:baseline;display:inline;overflow:visible;vector-effect:none;fill:#000000;stroke:none;stroke-linecap:butt;stroke-linejoin:miter;enable-background:accumulate;stop-color:#000000;stop-opacity:1;opacity:1"
     d="M 5 2.125 C 3.9748301 2.125 3.125 2.9748301 3.125 4 L 3.125 20 C 3.125 21.02517 3.9748301 21.875 5 21.875 L 8 21.875 A 0.875 0.875 0 0 0 8.875 21 A 0.875 0.875 0 0 0 8 20.125 L 5 20.125 C 4.9206 20.125 4.875 20.0794 4.875 20 L 4.875 4 C 4.875 3.9206 4.9206 3.875 5 3.875 L 8 3.875 A 0.875 0.875 0 0 0 8.875 3 A 0.875 0.875 0 0 0 8 2.125 L 5 2.125 z M 16 2.125 A 0.875 0.875 0 0 0 15.125 3 A 0.875 0.875 0 0 0 16 3.875 L 19 3.875 C 19.0794 3.875 19.125 3.9206 19.125 4 L 19.125 20 C 19.125 20.0794 19.0794 20.125 19 20.125 L 16 20.125 A 0.875 0.875 0 0 0 15.125 21 A 0.875 0.875 0 0 0 16 21.875 L 19 21.875 C 20.02517 21.875 20.875 21.02517 20.875 20 L 20.875 4 C 20.875 2.9748301 20.02517 2.125 19 2.125 L 16 2.125 z " />
</svg>
