<?xml version="1.0" encoding="UTF-8" standalone="no"?>
<svg
   width="24"
   height="24"
   viewBox="0 0 24 24"
   fill="none"
   stroke="currentColor"
   stroke-width="1.75"
   stroke-linecap="round"
   stroke-linejoin="round"
   version="1.1"
   id="svg8"
   sodipodi:docname=".tmp_brain.svg"
   xmlns:inkscape="http://www.inkscape.org/namespaces/inkscape"
   xmlns:sodipodi="http://sodipodi.sourceforge.net/DTD/sodipodi-0.dtd"
   xmlns="http://www.w3.org/2000/svg"
   xmlns:svg="http://www.w3.org/2000/svg">
  <defs
     id="defs8" />
  <sodipodi:namedview
     id="namedview8"
     pagecolor="#ffffff"
     bordercolor="#000000"
     borderopacity="0.25"
     inkscape:showpageshadow="2"
     inkscape:pageopacity="0.0"
     inkscape:pagecheckerboard="0"
     inkscape:deskcolor="#d1d1d1" />
  <path
     id="path1"
     style="baseline-shift:baseline;display:inline;overflow:visible;vector-effect:none;fill:#000000;stroke:none;stroke-linecap:butt;stroke-linejoin:miter;enable-background:accumulate;stop-color:#000000;stop-opacity:1;opacity:1"
     d="M 8.90625 1.1269531 C 8.6057152 1.1336076 8.3010808 1.1760904 7.9960938 1.2578125 C 6.4254993 1.6786577 5.3792512 3.0054782 5.1699219 4.4804688 C 2.7535398 5.4581096 1.5269687 8.2329373 2.421875 10.675781 C 1.221567 11.952329 0.87944498 13.725737 1.2910156 15.261719 C 1.5721868 16.311049 2.2122018 17.279348 3.125 17.949219 C 3.1006845 20.491646 5.0831852 22.692581 7.6835938 22.861328 C 9.4989285 22.97913 11.06864 22.019875 12 20.605469 C 12.93136 22.019875 14.501072 22.97913 16.316406 22.861328 C 18.916815 22.692581 20.899315 20.491646 20.875 17.949219 C 21.787798 17.279348 22.427813 16.31105 22.708984 15.261719 C 23.120555 13.725737 22.778433 11.952329 21.578125 10.675781 C 22.473031 8.2329366 21.246461 5.4581089 18.830078 4.4804688 C 18.620749 3.0054782 17.574501 1.6786577 16.003906 1.2578125 C 14.425431 0.83485559 12.91728 1.528735 12 2.7128906 C 11.437187 1.9863312 10.696769 1.406122 9.7890625 1.2109375 C 9.5032199 1.1494726 9.2067848 1.1202987 8.90625 1.1269531 z M 8.9570312 2.8710938 C 10.125207 2.8359537 11.125024 3.7581248 11.125 5 L 11.125 9 C 11.124121 10.466852 10.161838 11.748594 8.7539062 12.160156 A 0.875 0.875 0 0 0 8.1601562 13.246094 A 0.875 0.875 0 0 0 9.2460938 13.839844 C 9.9640868 13.629962 10.595623 13.261779 11.125 12.785156 L 11.125 18 C 11.1231 19.81679 9.6098507 21.23093 7.796875 21.113281 C 6.3931344 21.022189 5.2864969 20.043055 4.9667969 18.769531 C 5.2950098 18.837998 5.6404126 18.874984 6 18.875 A 0.875 0.875 0 0 0 6.875 18 A 0.875 0.875 0 0 0 6 17.125 C 5.4793032 17.124977 5.0219003 17.021677 4.6289062 16.841797 A 0.875 0.875 0 0 0 4.2558594 16.636719 C 3.6074163 16.212331 3.1812262 15.550532 2.9824219 14.808594 C 2.684811 13.69791 2.9183531 12.487291 3.9316406 11.644531 A 0.875 0.875 0 0 0 4.09375 11.517578 C 4.2006224 11.439063 4.3152717 11.363546 4.4375 11.292969 A 0.875 0.875 0 0 0 4.7578125 10.097656 A 0.875 0.875 0 0 0 3.9414062 9.6621094 C 3.6487051 8.3601139 4.2226488 7.0193521 5.3613281 6.3320312 C 5.4364606 6.5379076 5.530571 6.7401382 5.6445312 6.9375 A 0.875 0.875 0 0 0 6.8398438 7.2578125 A 0.875 0.875 0 0 0 7.1601562 6.0625 C 6.9967895 5.7795736 6.9038758 5.4815901 6.875 5.1855469 A 0.875 0.875 0 0 0 6.8652344 4.9804688 C 6.865471 4.0647681 7.4666038 3.2105601 8.4492188 2.9472656 C 8.6205846 2.9013476 8.7901489 2.8761138 8.9570312 2.8710938 z M 15.042969 2.8710938 C 15.209851 2.8761138 15.379415 2.9013476 15.550781 2.9472656 C 16.533397 3.2105603 17.13453 4.0647674 17.134766 4.9804688 A 0.875 0.875 0 0 0 17.125 5.1855469 C 17.096124 5.4815907 17.003211 5.7795731 16.839844 6.0625 A 0.875 0.875 0 0 0 17.160156 7.2578125 A 0.875 0.875 0 0 0 18.355469 6.9375 C 18.469429 6.7401382 18.563539 6.5379076 18.638672 6.3320312 C 19.777604 7.0195046 20.351745 8.3598423 20.058594 9.6621094 A 0.875 0.875 0 0 0 19.773438 9.6914062 A 0.875 0.875 0 0 0 19.242188 10.097656 A 0.875 0.875 0 0 0 19.5625 11.292969 C 19.684728 11.363546 19.799377 11.439063 19.90625 11.517578 A 0.875 0.875 0 0 0 20.068359 11.644531 C 21.081647 12.487291 21.315189 13.69791 21.017578 14.808594 C 20.818774 15.550532 20.392584 16.212331 19.744141 16.636719 A 0.875 0.875 0 0 0 19.371094 16.841797 C 18.9781 17.021676 18.520697 17.124977 18 17.125 A 0.875 0.875 0 0 0 17.125 18 A 0.875 0.875 0 0 0 18 18.875 C 18.359587 18.874984 18.70499 18.837998 19.033203 18.769531 C 18.713503 20.043055 17.606866 21.022189 16.203125 21.113281 C 14.390149 21.23093 12.876939 19.81679 12.875 18 L 12.875 12.785156 C 13.404377 13.261779 14.035913 13.629962 14.753906 13.839844 A 0.875 0.875 0 0 0 15.839844 13.246094 A 0.875 0.875 0 0 0 15.246094 12.160156 C 13.838162 11.748594 12.875879 10.466852 12.875 9 L 12.875 5 C 12.874976 3.7581248 13.874793 2.8359537 15.042969 2.8710938 z " />
</svg>
