<?xml version="1.0" encoding="UTF-8" standalone="no"?>
<svg
   width="24"
   height="24"
   viewBox="0 0 24 24"
   fill="none"
   stroke="currentColor"
   stroke-width="1.75"
   stroke-linecap="round"
   stroke-linejoin="round"
   version="1.1"
   id="svg7"
   sodipodi:docname=".tmp_brick-wall-fire.svg"
   xmlns:inkscape="http://www.inkscape.org/namespaces/inkscape"
   xmlns:sodipodi="http://sodipodi.sourceforge.net/DTD/sodipodi-0.dtd"
   xmlns="http://www.w3.org/2000/svg"
   xmlns:svg="http://www.w3.org/2000/svg">
  <defs
     id="defs7" />
  <sodipodi:namedview
     id="namedview7"
     pagecolor="#ffffff"
     bordercolor="#000000"
     borderopacity="0.25"
     inkscape:showpageshadow="2"
     inkscape:pageopacity="0.0"
     inkscape:pagecheckerboard="0"
     inkscape:deskcolor="#d1d1d1" />
  <path
     id="path1"
     style="baseline-shift:baseline;display:inline;overflow:visible;vector-effect:none;fill:#000000;stroke:none;stroke-linecap:butt;stroke-linejoin:miter;enable-background:accumulate;stop-color:#000000;stop-opacity:1;opacity:1"
     d="M 5 2.125 C 3.4225454 2.125 2.125 3.4225454 2.125 5 L 2.125 19 C 2.125 20.577455 3.4225454 21.875 5 21.875 L 8.9375 21.875 A 0.875 0.875 0 0 0 9.8125 21 A 0.875 0.875 0 0 0 8.9375 20.125 L 8.875 20.125 L 8.875 15.617188 A 0.875 0.875 0 0 0 9.1289062 15 A 0.875 0.875 0 0 0 8.2539062 14.125 L 3.875 14.125 L 3.875 9.875 L 8 9.875 L 11.228516 9.875 A 0.875 0.875 0 0 0 12.103516 9 A 0.875 0.875 0 0 0 11.228516 8.125 L 8.875 8.125 L 8.875 3.875 L 15.125 3.875 L 15.125 5.1074219 A 0.875 0.875 0 0 0 16 5.9824219 A 0.875 0.875 0 0 0 16.875 5.1074219 L 16.875 3.875 L 19 3.875 C 19.631684 3.875 20.125 4.3683156 20.125 5 L 20.125 8.2734375 A 0.875 0.875 0 0 0 21 9.1484375 A 0.875 0.875 0 0 0 21.875 8.2734375 L 21.875 5 C 21.875 3.4225454 20.577455 2.125 19 2.125 L 8 2.125 L 5 2.125 z M 5 3.875 L 7.125 3.875 L 7.125 8.125 L 3.875 8.125 L 3.875 5 C 3.875 4.3683156 4.3683156 3.875 5 3.875 z M 16.990234 8.125 C 16.940511 8.13057 16.91128 8.1758203 16.861328 8.1796875 A 0.875 0.875 0 0 0 16.722656 8.1699219 A 0.875 0.875 0 0 0 16.683594 8.2480469 C 16.250515 8.3261209 15.859135 8.4492317 15.482422 8.71875 C 15.006577 9.0591915 14.535617 9.5265815 14.175781 10.121094 C 13.456109 11.310118 13.339754 13.157131 14.757812 14.693359 A 0.8750875 0.8750875 0 0 0 14.796875 14.734375 C 15.026589 14.952443 14.986797 14.946669 14.912109 15.140625 C 14.837419 15.334581 14.565442 15.654703 14.214844 15.867188 C 13.864245 16.07967 13.454549 16.171977 13.248047 16.148438 C 13.041545 16.124897 13.028429 16.163917 12.941406 15.859375 A 0.8750875 0.8750875 0 0 0 11.269531 15.824219 C 11.114191 16.290243 11.125 16.7 11.125 17 C 11.125 20.23431 13.765692 22.875 17 22.875 C 20.234308 22.875 22.875 20.23431 22.875 17 A 0.8750875 0.8750875 0 0 0 22.875 16.988281 C 22.85294 15.439886 22.220713 13.961251 21.115234 12.876953 C 19.910561 11.674627 18.755182 11.497967 17.830078 8.7226562 A 0.875 0.875 0 0 0 17.068359 8.1933594 A 0.875 0.875 0 0 0 17 8.125 C 16.996486 8.125 16.993549 8.1246287 16.990234 8.125 z M 16.554688 10.113281 C 17.642622 12.574286 19.169887 13.408168 19.880859 14.119141 A 0.8750875 0.8750875 0 0 0 19.886719 14.125 C 20.662672 14.88537 21.105933 15.919766 21.123047 17.005859 C 21.119583 19.291378 19.286403 21.125 17 21.125 C 15.02737 21.125 13.467018 19.730983 13.052734 17.888672 C 13.804944 17.973852 14.511234 17.734077 15.123047 17.363281 C 15.735402 16.992157 16.272593 16.476744 16.544922 15.769531 C 16.811357 15.077623 16.66613 14.131988 16.042969 13.505859 L 16.03125 13.494141 C 15.06141 12.436906 15.24508 11.735711 15.673828 11.027344 C 15.888992 10.671856 16.207094 10.352137 16.5 10.142578 C 16.53204 10.119648 16.522557 10.132681 16.554688 10.113281 z M 3.875 15.875 L 7.125 15.875 L 7.125 20.125 L 5 20.125 C 4.3683156 20.125 3.875 19.631684 3.875 19 L 3.875 15.875 z " />
</svg>
