<?xml version="1.0" encoding="UTF-8" standalone="no"?>
<svg
   width="24"
   height="24"
   viewBox="0 0 24 24"
   fill="none"
   stroke="currentColor"
   stroke-width="1.75"
   stroke-linecap="round"
   stroke-linejoin="round"
   version="1.1"
   id="svg10"
   sodipodi:docname=".tmp_bug-off.svg"
   xmlns:inkscape="http://www.inkscape.org/namespaces/inkscape"
   xmlns:sodipodi="http://sodipodi.sourceforge.net/DTD/sodipodi-0.dtd"
   xmlns="http://www.w3.org/2000/svg"
   xmlns:svg="http://www.w3.org/2000/svg">
  <defs
     id="defs10" />
  <sodipodi:namedview
     id="namedview10"
     pagecolor="#ffffff"
     bordercolor="#000000"
     borderopacity="0.25"
     inkscape:showpageshadow="2"
     inkscape:pageopacity="0.0"
     inkscape:pagecheckerboard="0"
     inkscape:deskcolor="#d1d1d1" />
  <path
     id="path1"
     style="baseline-shift:baseline;display:inline;overflow:visible;vector-effect:none;fill:#000000;stroke:none;stroke-linecap:butt;stroke-linejoin:miter;enable-background:accumulate;stop-color:#000000;stop-opacity:1;opacity:1"
     d="M 2 1.125 A 0.875 0.875 0 0 0 1.3808594 1.3808594 A 0.875 0.875 0 0 0 1.3808594 2.6191406 L 6.4238281 7.6621094 C 5.590613 8.5623298 5.1164543 9.7547254 5.125 11.005859 L 5.125 12.125 L 2 12.125 A 0.875 0.875 0 0 0 1.125 13 A 0.875 0.875 0 0 0 2 13.875 L 5.125 13.875 L 5.125 14 C 5.1226468 14.847814 5.2630902 15.636001 5.515625 16.353516 C 3.5446034 16.986703 2.1225621 18.842146 2.125 21.001953 A 0.875 0.875 0 0 0 3.0019531 21.875 A 0.875 0.875 0 0 0 3.875 20.998047 C 3.873312 19.498935 4.9117178 18.248358 6.328125 17.941406 C 7.2565366 19.274856 8.6333841 20.213399 10.138672 20.636719 C 12.560286 21.317729 15.394017 20.687416 17.240234 18.478516 L 21.380859 22.619141 A 0.875 0.875 0 0 0 22.619141 22.619141 A 0.875 0.875 0 0 0 22.619141 21.380859 L 17.761719 16.525391 L 8.34375 7.1074219 L 2.6191406 1.3808594 A 0.875 0.875 0 0 0 2 1.125 z M 16 1.125 A 0.875 0.875 0 0 0 15.380859 1.3808594 L 14.048828 2.7148438 C 13.862463 2.5984594 13.666506 2.4984068 13.464844 2.4160156 C 12.388059 1.9760839 11.142664 2.192821 10.056641 2.8496094 L 8.625 1.3886719 A 0.875 0.875 0 0 0 7.3886719 1.375 A 0.875 0.875 0 0 0 7.375 2.6113281 L 9.234375 4.5117188 A 0.8750875 0.8750875 0 0 0 10.484375 4.5136719 C 11.177102 3.8085839 12.04895 3.7271899 12.802734 4.0351562 C 13.033028 4.1292449 13.244996 4.2577419 13.429688 4.4179688 A 0.875 0.875 0 0 0 13.501953 4.4980469 A 0.875 0.875 0 0 0 13.601562 4.5820312 C 13.923783 4.9351616 14.124515 5.411273 14.125 6 L 14.125 6.1269531 C 14.083456 6.1258949 14.041788 6.125 14 6.125 L 12.699219 6.125 A 0.875 0.875 0 0 0 11.824219 7 A 0.875 0.875 0 0 0 12.699219 7.875 L 14 7.875 C 14.240027 7.875 14.473273 7.9008412 14.697266 7.9511719 A 0.875 0.875 0 0 0 14.873047 7.9960938 C 16.179793 8.3701689 17.125 9.5668931 17.125 11 L 17.125 12.339844 A 0.875 0.875 0 0 0 17.808594 13.191406 A 0.875 0.875 0 0 0 18.660156 13.875 L 22 13.875 A 0.875 0.875 0 0 0 22.875 13 A 0.875 0.875 0 0 0 22 12.125 L 18.875 12.125 L 18.875 11 C 18.875 10.506025 18.800245 10.028275 18.662109 9.578125 C 20.546898 8.8925438 21.872603 7.0828325 21.875 5.0019531 A 0.875 0.875 0 0 0 21.001953 4.125 A 0.875 0.875 0 0 0 20.125 4.9980469 C 20.12339 6.4249206 19.174257 7.6371638 17.839844 8.0058594 C 17.32718 7.3506555 16.651673 6.8280821 15.875 6.5019531 L 15.875 6 C 15.874364 5.2289591 15.653489 4.5319469 15.287109 3.9492188 L 16.619141 2.6191406 A 0.875 0.875 0 0 0 16.619141 1.3808594 A 0.875 0.875 0 0 0 16 1.125 z M 7.6621094 8.9003906 L 11.125 12.363281 L 11.125 19.070312 C 10.953042 19.038739 10.782243 18.998688 10.613281 18.951172 C 9.4228582 18.616399 8.355983 17.901509 7.6699219 16.845703 A 0.875 0.875 0 0 0 7.3847656 16.341797 C 7.0581504 15.671731 6.8722957 14.889669 6.875 14.001953 A 0.8750875 0.8750875 0 0 0 6.875 14 L 6.875 13 L 6.875 11 A 0.8750875 0.8750875 0 0 0 6.875 10.994141 C 6.8696694 10.213784 7.1557955 9.4711751 7.6621094 8.9003906 z M 12.875 14.113281 L 15.998047 17.236328 C 15.147347 18.331902 14.036731 18.923704 12.875 19.101562 L 12.875 14.113281 z " />
</svg>
