<?xml version="1.0" encoding="UTF-8" standalone="no"?>
<svg
   width="24"
   height="24"
   viewBox="0 0 24 24"
   fill="none"
   stroke="currentColor"
   stroke-width="1.75"
   stroke-linecap="round"
   stroke-linejoin="round"
   version="1.1"
   id="svg6"
   sodipodi:docname=".tmp_calendar-off.svg"
   xmlns:inkscape="http://www.inkscape.org/namespaces/inkscape"
   xmlns:sodipodi="http://sodipodi.sourceforge.net/DTD/sodipodi-0.dtd"
   xmlns="http://www.w3.org/2000/svg"
   xmlns:svg="http://www.w3.org/2000/svg">
  <defs
     id="defs6" />
  <sodipodi:namedview
     id="namedview6"
     pagecolor="#ffffff"
     bordercolor="#000000"
     borderopacity="0.25"
     inkscape:showpageshadow="2"
     inkscape:pageopacity="0.0"
     inkscape:pagecheckerboard="0"
     inkscape:deskcolor="#d1d1d1" />
  <path
     id="path1"
     style="baseline-shift:baseline;display:inline;overflow:visible;vector-effect:none;fill:#000000;stroke:none;stroke-linecap:butt;stroke-linejoin:miter;enable-background:accumulate;stop-color:#000000;stop-opacity:1;opacity:1"
     d="M 2 1.125 A 0.875 0.875 0 0 0 1.3808594 1.3808594 A 0.875 0.875 0 0 0 1.3808594 2.6191406 L 2.8671875 4.1054688 C 2.4091978 4.6128702 2.1367401 5.2781239 2.125 5.9863281 A 0.8750875 0.8750875 0 0 0 2.125 6 L 2.125 20 C 2.125 21.577455 3.4225454 22.875 5 22.875 L 19 22.875 A 0.8750875 0.8750875 0 0 0 19.001953 22.875 C 19.717637 22.873476 20.392639 22.605368 20.908203 22.146484 L 21.380859 22.619141 A 0.875 0.875 0 0 0 22.619141 22.619141 A 0.875 0.875 0 0 0 22.619141 21.380859 L 21.443359 20.205078 A 0.875 0.875 0 0 0 21.433594 20.195312 L 10.619141 9.3808594 L 4.8066406 3.5703125 L 2.6191406 1.3808594 A 0.875 0.875 0 0 0 2 1.125 z M 16 1.125 A 0.875 0.875 0 0 0 15.125 2 L 15.125 3.125 L 9.5 3.125 A 0.875 0.875 0 0 0 8.625 4 A 0.875 0.875 0 0 0 9.5 4.875 L 15.125 4.875 L 15.125 6 A 0.875 0.875 0 0 0 16 6.875 A 0.875 0.875 0 0 0 16.875 6 L 16.875 4.875 L 19 4.875 C 19.631684 4.875 20.125 5.3683156 20.125 6 L 20.125 9.125 L 15.5 9.125 A 0.875 0.875 0 0 0 14.625 10 A 0.875 0.875 0 0 0 15.5 10.875 L 20.125 10.875 L 20.125 15.5 A 0.875 0.875 0 0 0 21 16.375 A 0.875 0.875 0 0 0 21.875 15.5 L 21.875 6 C 21.875 4.4225454 20.577455 3.125 19 3.125 L 16.875 3.125 L 16.875 2 A 0.875 0.875 0 0 0 16 1.125 z M 4.1074219 5.3457031 L 7.8867188 9.125 L 3.875 9.125 L 3.875 6.0136719 C 3.8791116 5.7656437 3.9627773 5.5329973 4.1074219 5.3457031 z M 3.875 10.875 L 9.6367188 10.875 L 19.666016 20.904297 C 19.477087 21.044646 19.244828 21.124485 18.998047 21.125 L 5 21.125 C 4.3683156 21.125 3.875 20.631684 3.875 20 L 3.875 10.875 z " />
</svg>
