<?xml version="1.0" encoding="UTF-8" standalone="no"?>
<svg
   width="24"
   height="24"
   viewBox="0 0 24 24"
   fill="none"
   stroke="currentColor"
   stroke-width="1.75"
   stroke-linecap="round"
   stroke-linejoin="round"
   version="1.1"
   id="svg3"
   sodipodi:docname=".tmp_case-lower.svg"
   xmlns:inkscape="http://www.inkscape.org/namespaces/inkscape"
   xmlns:sodipodi="http://sodipodi.sourceforge.net/DTD/sodipodi-0.dtd"
   xmlns="http://www.w3.org/2000/svg"
   xmlns:svg="http://www.w3.org/2000/svg">
  <defs
     id="defs3" />
  <sodipodi:namedview
     id="namedview3"
     pagecolor="#ffffff"
     bordercolor="#000000"
     borderopacity="0.25"
     inkscape:showpageshadow="2"
     inkscape:pageopacity="0.0"
     inkscape:pagecheckerboard="0"
     inkscape:deskcolor="#d1d1d1" />
  <path
     id="path1"
     style="baseline-shift:baseline;display:inline;overflow:visible;vector-effect:none;fill:#000000;stroke:none;stroke-linecap:butt;stroke-linejoin:miter;enable-background:accumulate;stop-color:#000000;stop-opacity:1;opacity:1"
     d="M 14 5.125 A 0.875 0.875 0 0 0 13.125 6 L 13.125 16 A 0.875 0.875 0 0 0 14 16.875 A 0.875 0.875 0 0 0 14.875 16 L 14.875 15.994141 C 15.607527 16.54673 16.517332 16.875 17.5 16.875 C 19.905882 16.875 21.875 14.905882 21.875 12.5 C 21.875 10.094118 19.905882 8.125 17.5 8.125 C 16.517332 8.125 15.607527 8.4532704 14.875 9.0058594 L 14.875 6 A 0.875 0.875 0 0 0 14 5.125 z M 6.5 8.125 C 4.0941183 8.125 2.125 10.094118 2.125 12.5 C 2.125 14.905882 4.0941183 16.875 6.5 16.875 C 7.4826683 16.875 8.3924729 16.54673 9.125 15.994141 L 9.125 16 A 0.875 0.875 0 0 0 10 16.875 A 0.875 0.875 0 0 0 10.875 16 L 10.875 12.5 L 10.875 9 A 0.875 0.875 0 0 0 10 8.125 A 0.875 0.875 0 0 0 9.125 9 L 9.125 9.0058594 C 8.3924729 8.4532704 7.4826683 8.125 6.5 8.125 z M 6.5 9.875 C 7.9601115 9.875 9.125 11.039888 9.125 12.5 C 9.125 13.960112 7.9601115 15.125 6.5 15.125 C 5.0398885 15.125 3.875 13.960112 3.875 12.5 C 3.875 11.039888 5.0398885 9.875 6.5 9.875 z M 17.5 9.875 C 18.960112 9.875 20.125 11.039888 20.125 12.5 C 20.125 13.960112 18.960112 15.125 17.5 15.125 C 16.039888 15.125 14.875 13.960112 14.875 12.5 C 14.875 11.039888 16.039888 9.875 17.5 9.875 z " />
</svg>
