<?xml version="1.0" encoding="UTF-8" standalone="no"?>
<svg
   width="24"
   height="24"
   viewBox="0 0 24 24"
   fill="none"
   stroke="currentColor"
   stroke-width="1.75"
   stroke-linecap="round"
   stroke-linejoin="round"
   version="1.1"
   id="svg2"
   sodipodi:docname=".tmp_chevrons-down-up.svg"
   xmlns:inkscape="http://www.inkscape.org/namespaces/inkscape"
   xmlns:sodipodi="http://sodipodi.sourceforge.net/DTD/sodipodi-0.dtd"
   xmlns="http://www.w3.org/2000/svg"
   xmlns:svg="http://www.w3.org/2000/svg">
  <defs
     id="defs2" />
  <sodipodi:namedview
     id="namedview2"
     pagecolor="#ffffff"
     bordercolor="#000000"
     borderopacity="0.25"
     inkscape:showpageshadow="2"
     inkscape:pageopacity="0.0"
     inkscape:pagecheckerboard="0"
     inkscape:deskcolor="#d1d1d1" />
  <path
     id="path1"
     style="baseline-shift:baseline;display:inline;overflow:visible;vector-effect:none;fill:#000000;stroke:none;stroke-linecap:butt;stroke-linejoin:miter;enable-background:accumulate;stop-color:#000000;stop-opacity:1;opacity:1"
     d="M 7 3.125 A 0.875 0.875 0 0 0 6.3808594 3.3808594 A 0.875 0.875 0 0 0 6.3808594 4.6191406 L 11.380859 9.6191406 A 0.8750875 0.8750875 0 0 0 12.619141 9.6191406 L 17.619141 4.6191406 A 0.875 0.875 0 0 0 17.619141 3.3808594 A 0.875 0.875 0 0 0 17 3.125 A 0.875 0.875 0 0 0 16.380859 3.3808594 L 12 7.7617188 L 7.6191406 3.3808594 A 0.875 0.875 0 0 0 7 3.125 z M 12 14.125 A 0.8750875 0.8750875 0 0 0 11.380859 14.380859 L 6.3808594 19.380859 A 0.875 0.875 0 0 0 6.3808594 20.619141 A 0.875 0.875 0 0 0 7.6191406 20.619141 L 12 16.238281 L 16.380859 20.619141 A 0.875 0.875 0 0 0 17.619141 20.619141 A 0.875 0.875 0 0 0 17.619141 19.380859 L 12.619141 14.380859 A 0.8750875 0.8750875 0 0 0 12 14.125 z " />
</svg>
