<?xml version="1.0" encoding="UTF-8" standalone="no"?>
<svg
   width="24"
   height="24"
   viewBox="0 0 24 24"
   fill="none"
   stroke="currentColor"
   stroke-width="1.75"
   stroke-linecap="round"
   stroke-linejoin="round"
   version="1.1"
   id="svg4"
   sodipodi:docname=".tmp_chromium.svg"
   xmlns:inkscape="http://www.inkscape.org/namespaces/inkscape"
   xmlns:sodipodi="http://sodipodi.sourceforge.net/DTD/sodipodi-0.dtd"
   xmlns="http://www.w3.org/2000/svg"
   xmlns:svg="http://www.w3.org/2000/svg">
  <defs
     id="defs4" />
  <sodipodi:namedview
     id="namedview4"
     pagecolor="#ffffff"
     bordercolor="#000000"
     borderopacity="0.25"
     inkscape:showpageshadow="2"
     inkscape:pageopacity="0.0"
     inkscape:pagecheckerboard="0"
     inkscape:deskcolor="#d1d1d1" />
  <path
     id="path1"
     style="baseline-shift:baseline;display:inline;overflow:visible;vector-effect:none;fill:#000000;stroke:none;stroke-linecap:butt;stroke-linejoin:miter;enable-background:accumulate;stop-color:#000000;stop-opacity:1;opacity:1"
     d="M 12 1.125 C 8.4643755 1.125 5.3176521 2.8215639 3.3300781 5.4433594 A 0.875 0.875 0 0 0 3.1796875 5.6464844 C 1.8872684 7.4352287 1.125 9.6299273 1.125 12 C 1.125 17.565431 5.3298274 22.168683 10.728516 22.800781 A 0.875 0.875 0 0 0 10.839844 22.814453 C 11.22106 22.855074 11.608198 22.875 12 22.875 C 17.995733 22.875 22.875 17.995733 22.875 12 C 22.875 10.488368 22.563892 9.0476797 22.003906 7.7382812 A 0.875 0.875 0 0 0 21.927734 7.5644531 C 20.226738 3.7733811 16.416564 1.125 12 1.125 z M 12 2.875 C 15.255494 2.875 18.106079 4.5685154 19.720703 7.125 L 12 7.125 C 9.9066456 7.125 8.1111273 8.4605405 7.4238281 10.322266 L 5.0019531 6.1347656 C 6.6741148 4.1405839 9.1860659 2.875 12 2.875 z M 3.9179688 7.7519531 L 7.7265625 14.339844 C 7.7286643 14.343658 7.7303101 14.347754 7.7324219 14.351562 L 7.7832031 14.4375 A 0.875 0.875 0 0 0 7.8574219 14.544922 C 8.7179309 15.937615 10.250956 16.875 12 16.875 C 12.283275 16.875 12.561675 16.849654 12.832031 16.802734 L 10.417969 20.988281 C 6.125973 20.241544 2.875 16.509888 2.875 12 C 2.875 10.464637 3.2517261 9.0199521 3.9179688 7.7519531 z M 12 8.875 C 13.736254 8.875 15.125 10.263746 15.125 12 C 15.125 12.532339 14.994759 13.031756 14.763672 13.46875 A 0.875 0.875 0 0 0 14.701172 13.5625 L 14.591797 13.751953 C 14.587565 13.75823 14.584354 13.765241 14.580078 13.771484 C 14.01891 14.590922 13.07642 15.125 12 15.125 C 10.873181 15.125 9.893208 14.539534 9.34375 13.654297 A 0.875 0.875 0 0 0 9.296875 13.5625 L 9.1914062 13.380859 C 9.1910352 13.3801 9.1898236 13.379666 9.1894531 13.378906 C 8.987286 12.964084 8.875 12.495706 8.875 12 C 8.875 10.263746 10.263746 8.875 12 8.875 z M 15.734375 8.875 L 20.578125 8.875 C 20.931813 9.8492733 21.125 10.901574 21.125 12 C 21.125 16.927709 17.24511 20.926434 12.365234 21.117188 L 16.21875 14.4375 A 0.875 0.875 0 0 0 16.236328 14.40625 C 16.642635 13.695398 16.875 12.873436 16.875 12 C 16.875 10.813426 16.445298 9.7225752 15.734375 8.875 z " />
</svg>
