<?xml version="1.0" encoding="UTF-8" standalone="no"?>
<svg
   width="24"
   height="24"
   viewBox="0 0 24 24"
   fill="none"
   stroke="currentColor"
   stroke-width="1.75"
   stroke-linecap="round"
   stroke-linejoin="round"
   version="1.1"
   id="svg3"
   sodipodi:docname=".tmp_circle-arrow-out-down-right.svg"
   xmlns:inkscape="http://www.inkscape.org/namespaces/inkscape"
   xmlns:sodipodi="http://sodipodi.sourceforge.net/DTD/sodipodi-0.dtd"
   xmlns="http://www.w3.org/2000/svg"
   xmlns:svg="http://www.w3.org/2000/svg">
  <defs
     id="defs3" />
  <sodipodi:namedview
     id="namedview3"
     pagecolor="#ffffff"
     bordercolor="#000000"
     borderopacity="0.25"
     inkscape:showpageshadow="2"
     inkscape:pageopacity="0.0"
     inkscape:pagecheckerboard="0"
     inkscape:deskcolor="#d1d1d1" />
  <path
     id="path1"
     style="baseline-shift:baseline;display:inline;overflow:visible;vector-effect:none;fill:#000000;stroke:none;stroke-linecap:butt;stroke-linejoin:miter;enable-background:accumulate;stop-color:#000000;stop-opacity:1;opacity:1"
     d="M 12.037109 1.1113281 C 9.3218482 1.08766 6.5411438 2.0799499 4.3105469 4.3105469 C 0.91154201 7.7095517 0.389811 12.387444 1.953125 16.162109 C 3.516439 19.936774 7.1925541 22.875 12 22.875 A 0.875 0.875 0 0 0 12.875 22 A 0.875 0.875 0 0 0 12 21.125 C 7.8977777 21.125 4.8897665 18.678045 3.5703125 15.492188 C 2.2508585 12.306328 2.6485099 8.4491464 5.5488281 5.5488281 C 8.4491464 2.6485099 12.306328 2.2508585 15.492188 3.5703125 C 18.678045 4.8897665 21.125 7.8977777 21.125 12 A 0.875 0.875 0 0 0 22 12.875 A 0.875 0.875 0 0 0 22.875 12 C 22.875 7.1925541 19.936774 3.516439 16.162109 1.953125 C 15.218443 1.5622965 14.217745 1.3013862 13.195312 1.1835938 C 12.8119 1.1394216 12.425004 1.1147093 12.037109 1.1113281 z M 12 11.125 A 0.875 0.875 0 0 0 11.380859 11.380859 A 0.875 0.875 0 0 0 11.380859 12.619141 L 19.886719 21.125 L 16 21.125 A 0.875 0.875 0 0 0 15.125 22 A 0.875 0.875 0 0 0 16 22.875 L 21.960938 22.875 L 22 22.875 A 0.8750875 0.8750875 0 0 0 22.035156 22.873047 A 0.875 0.875 0 0 0 22.099609 22.867188 A 0.8750875 0.8750875 0 0 0 22.160156 22.857422 A 0.8750875 0.8750875 0 0 0 22.201172 22.851562 A 0.875 0.875 0 0 0 22.210938 22.849609 A 0.8750875 0.8750875 0 0 0 22.273438 22.830078 A 0.875 0.875 0 0 0 22.330078 22.810547 A 0.875 0.875 0 0 0 22.333984 22.808594 A 0.8750875 0.8750875 0 0 0 22.347656 22.802734 A 0.875 0.875 0 0 0 22.4375 22.757812 A 0.875 0.875 0 0 0 22.533203 22.693359 A 0.8750875 0.8750875 0 0 0 22.693359 22.533203 A 0.875 0.875 0 0 0 22.757812 22.4375 A 0.875 0.875 0 0 0 22.802734 22.347656 A 0.875 0.875 0 0 0 22.808594 22.333984 A 0.8750875 0.8750875 0 0 0 22.810547 22.330078 A 0.875 0.875 0 0 0 22.830078 22.273438 A 0.8750875 0.8750875 0 0 0 22.849609 22.210938 A 0.8750875 0.8750875 0 0 0 22.851562 22.201172 A 0.875 0.875 0 0 0 22.857422 22.160156 A 0.8750875 0.8750875 0 0 0 22.867188 22.099609 A 0.875 0.875 0 0 0 22.873047 22.035156 A 0.8750875 0.8750875 0 0 0 22.875 22 L 22.875 21.960938 L 22.875 16 A 0.875 0.875 0 0 0 22 15.125 A 0.875 0.875 0 0 0 21.125 16 L 21.125 19.886719 L 12.619141 11.380859 A 0.875 0.875 0 0 0 12 11.125 z " />
</svg>
