<?xml version="1.0" encoding="UTF-8" standalone="no"?>
<svg
   width="24"
   height="24"
   viewBox="0 0 24 24"
   fill="none"
   stroke="currentColor"
   stroke-width="1.75"
   stroke-linecap="round"
   stroke-linejoin="round"
   version="1.1"
   id="svg3"
   sodipodi:docname=".tmp_circle-arrow-out-up-right.svg"
   xmlns:inkscape="http://www.inkscape.org/namespaces/inkscape"
   xmlns:sodipodi="http://sodipodi.sourceforge.net/DTD/sodipodi-0.dtd"
   xmlns="http://www.w3.org/2000/svg"
   xmlns:svg="http://www.w3.org/2000/svg">
  <defs
     id="defs3" />
  <sodipodi:namedview
     id="namedview3"
     pagecolor="#ffffff"
     bordercolor="#000000"
     borderopacity="0.25"
     inkscape:showpageshadow="2"
     inkscape:pageopacity="0.0"
     inkscape:pagecheckerboard="0"
     inkscape:deskcolor="#d1d1d1" />
  <path
     id="path1"
     style="baseline-shift:baseline;display:inline;overflow:visible;vector-effect:none;fill:#000000;stroke:none;stroke-linecap:butt;stroke-linejoin:miter;enable-background:accumulate;stop-color:#000000;stop-opacity:1;opacity:1"
     d="M 12 1.125 C 7.1925541 1.125 3.516439 4.0632255 1.953125 7.8378906 C 0.389811 11.612556 0.91154201 16.290448 4.3105469 19.689453 C 7.7095517 23.088458 12.387444 23.610189 16.162109 22.046875 C 19.936774 20.483561 22.875 16.807446 22.875 12 A 0.875 0.875 0 0 0 22 11.125 A 0.875 0.875 0 0 0 21.125 12 C 21.125 16.102222 18.678046 19.110233 15.492188 20.429688 C 12.306329 21.749142 8.4491464 21.35149 5.5488281 18.451172 C 2.6485099 15.550854 2.2508585 11.693671 3.5703125 8.5078125 C 4.8897665 5.321954 7.8977777 2.875 12 2.875 A 0.875 0.875 0 0 0 12.875 2 A 0.875 0.875 0 0 0 12 1.125 z M 16 1.125 A 0.875 0.875 0 0 0 15.125 2 A 0.875 0.875 0 0 0 16 2.875 L 19.886719 2.875 L 11.380859 11.380859 A 0.875 0.875 0 0 0 11.380859 12.619141 A 0.875 0.875 0 0 0 12.619141 12.619141 L 21.125 4.1132812 L 21.125 8 A 0.875 0.875 0 0 0 22 8.875 A 0.875 0.875 0 0 0 22.875 8 L 22.875 2.0390625 L 22.875 2 A 0.8750875 0.8750875 0 0 0 22.873047 1.9648438 A 0.875 0.875 0 0 0 22.867188 1.9003906 A 0.8750875 0.8750875 0 0 0 22.857422 1.8398438 A 0.8750875 0.8750875 0 0 0 22.851562 1.7988281 A 0.875 0.875 0 0 0 22.849609 1.7890625 A 0.8750875 0.8750875 0 0 0 22.830078 1.7265625 A 0.875 0.875 0 0 0 22.810547 1.6699219 A 0.875 0.875 0 0 0 22.808594 1.6660156 A 0.8750875 0.8750875 0 0 0 22.802734 1.6523438 A 0.875 0.875 0 0 0 22.757812 1.5625 A 0.875 0.875 0 0 0 22.693359 1.4667969 A 0.8750875 0.8750875 0 0 0 22.619141 1.3808594 A 0.875 0.875 0 0 0 22.4375 1.2421875 A 0.8750875 0.8750875 0 0 0 22.335938 1.1914062 A 0.875 0.875 0 0 0 22.333984 1.1914062 A 0.8750875 0.8750875 0 0 0 22.115234 1.1328125 A 0.875 0.875 0 0 0 22.113281 1.1328125 A 0.8750875 0.8750875 0 0 0 22 1.125 L 21.998047 1.125 L 16 1.125 z " />
</svg>
