<?xml version="1.0" encoding="UTF-8" standalone="no"?>
<svg
   width="24"
   height="24"
   viewBox="0 0 24 24"
   fill="none"
   stroke="currentColor"
   stroke-width="1.75"
   stroke-linecap="round"
   stroke-linejoin="round"
   version="1.1"
   id="svg3"
   sodipodi:docname=".tmp_circle-arrow-out-up-left.svg"
   xmlns:inkscape="http://www.inkscape.org/namespaces/inkscape"
   xmlns:sodipodi="http://sodipodi.sourceforge.net/DTD/sodipodi-0.dtd"
   xmlns="http://www.w3.org/2000/svg"
   xmlns:svg="http://www.w3.org/2000/svg">
  <defs
     id="defs3" />
  <sodipodi:namedview
     id="namedview3"
     pagecolor="#ffffff"
     bordercolor="#000000"
     borderopacity="0.25"
     inkscape:showpageshadow="2"
     inkscape:pageopacity="0.0"
     inkscape:pagecheckerboard="0"
     inkscape:deskcolor="#d1d1d1" />
  <path
     id="path1"
     style="baseline-shift:baseline;display:inline;overflow:visible;vector-effect:none;fill:#000000;stroke:none;stroke-linecap:butt;stroke-linejoin:miter;enable-background:accumulate;stop-color:#000000;stop-opacity:1;opacity:1"
     d="M 2 1.125 A 0.8750875 0.8750875 0 0 0 1.9648438 1.1269531 A 0.875 0.875 0 0 0 1.9003906 1.1328125 A 0.8750875 0.8750875 0 0 0 1.8398438 1.1425781 A 0.875 0.875 0 0 0 1.7890625 1.1503906 A 0.8750875 0.8750875 0 0 0 1.7265625 1.1699219 A 0.875 0.875 0 0 0 1.6699219 1.1894531 A 0.8750875 0.8750875 0 0 0 1.6523438 1.1972656 A 0.875 0.875 0 0 0 1.4667969 1.3066406 A 0.8750875 0.8750875 0 0 0 1.3066406 1.4667969 A 0.875 0.875 0 0 0 1.1972656 1.6523438 A 0.8750875 0.8750875 0 0 0 1.1894531 1.6699219 A 0.875 0.875 0 0 0 1.1699219 1.7265625 A 0.8750875 0.8750875 0 0 0 1.1503906 1.7890625 A 0.875 0.875 0 0 0 1.1425781 1.8398438 A 0.8750875 0.8750875 0 0 0 1.1328125 1.9003906 A 0.875 0.875 0 0 0 1.1269531 1.9648438 A 0.8750875 0.8750875 0 0 0 1.125 2 L 1.125 8 A 0.875 0.875 0 0 0 2 8.875 A 0.875 0.875 0 0 0 2.875 8 L 2.875 4.1132812 L 11.380859 12.619141 A 0.875 0.875 0 0 0 12.619141 12.619141 A 0.875 0.875 0 0 0 12.619141 11.380859 L 4.1132812 2.875 L 8 2.875 A 0.875 0.875 0 0 0 8.875 2 A 0.875 0.875 0 0 0 8 1.125 L 2 1.125 z M 12 1.125 A 0.875 0.875 0 0 0 11.125 2 A 0.875 0.875 0 0 0 12 2.875 C 16.102222 2.875 19.110233 5.321954 20.429688 8.5078125 C 21.749143 11.693671 21.35149 15.550854 18.451172 18.451172 C 15.550854 21.35149 11.693671 21.749143 8.5078125 20.429688 C 5.321954 19.110233 2.875 16.102222 2.875 12 A 0.875 0.875 0 0 0 2 11.125 A 0.875 0.875 0 0 0 1.125 12 C 1.125 16.807446 4.0632255 20.483561 7.8378906 22.046875 C 11.612556 23.610189 16.290448 23.088458 19.689453 19.689453 C 23.088458 16.290448 23.610189 11.612556 22.046875 7.8378906 C 20.483561 4.0632255 16.807446 1.125 12 1.125 z " />
</svg>
