<?xml version="1.0" encoding="UTF-8" standalone="no"?>
<svg
   width="24"
   height="24"
   viewBox="0 0 24 24"
   fill="none"
   stroke="currentColor"
   stroke-width="1.75"
   stroke-linecap="round"
   stroke-linejoin="round"
   version="1.1"
   id="svg3"
   sodipodi:docname=".tmp_circle-ellipsis.svg"
   xmlns:inkscape="http://www.inkscape.org/namespaces/inkscape"
   xmlns:sodipodi="http://sodipodi.sourceforge.net/DTD/sodipodi-0.dtd"
   xmlns="http://www.w3.org/2000/svg"
   xmlns:svg="http://www.w3.org/2000/svg">
  <defs
     id="defs3" />
  <sodipodi:namedview
     id="namedview3"
     pagecolor="#ffffff"
     bordercolor="#000000"
     borderopacity="0.25"
     inkscape:showpageshadow="2"
     inkscape:pageopacity="0.0"
     inkscape:pagecheckerboard="0"
     inkscape:deskcolor="#d1d1d1" />
  <path
     id="circle1"
     style="baseline-shift:baseline;display:inline;overflow:visible;vector-effect:none;fill:#000000;stroke:none;stroke-linecap:butt;stroke-linejoin:miter;enable-background:accumulate;stop-color:#000000;stop-opacity:1;opacity:1"
     d="M 12 1.125 C 6.0042674 1.125 1.125 6.0042674 1.125 12 C 1.125 17.995733 6.0042674 22.875 12 22.875 C 17.995733 22.875 22.875 17.995733 22.875 12 C 22.875 6.0042674 17.995733 1.125 12 1.125 z M 12 2.875 C 17.049962 2.875 21.125 6.9500376 21.125 12 C 21.125 17.049962 17.049962 21.125 12 21.125 C 6.9500376 21.125 2.875 17.049962 2.875 12 C 2.875 6.9500376 6.9500376 2.875 12 2.875 z M 7 11.125 A 0.875 0.875 0 0 0 6.125 12 A 0.875 0.875 0 0 0 7 12.875 L 7.0097656 12.875 A 0.875 0.875 0 0 0 7.8847656 12 A 0.875 0.875 0 0 0 7.0097656 11.125 L 7 11.125 z M 12 11.125 A 0.875 0.875 0 0 0 11.125 12 A 0.875 0.875 0 0 0 12 12.875 L 12.009766 12.875 A 0.875 0.875 0 0 0 12.884766 12 A 0.875 0.875 0 0 0 12.009766 11.125 L 12 11.125 z M 17 11.125 A 0.875 0.875 0 0 0 16.125 12 A 0.875 0.875 0 0 0 17 12.875 L 17.009766 12.875 A 0.875 0.875 0 0 0 17.884766 12 A 0.875 0.875 0 0 0 17.009766 11.125 L 17 11.125 z " />
</svg>
