<?xml version="1.0" encoding="UTF-8" standalone="no"?>
<svg
   width="24"
   height="24"
   viewBox="0 0 24 24"
   fill="none"
   stroke="currentColor"
   stroke-width="1.75"
   stroke-linecap="round"
   stroke-linejoin="round"
   version="1.1"
   id="svg2"
   sodipodi:docname=".tmp_closed-caption.svg"
   xmlns:inkscape="http://www.inkscape.org/namespaces/inkscape"
   xmlns:sodipodi="http://sodipodi.sourceforge.net/DTD/sodipodi-0.dtd"
   xmlns="http://www.w3.org/2000/svg"
   xmlns:svg="http://www.w3.org/2000/svg">
  <defs
     id="defs2" />
  <sodipodi:namedview
     id="namedview2"
     pagecolor="#ffffff"
     bordercolor="#000000"
     borderopacity="0.25"
     inkscape:showpageshadow="2"
     inkscape:pageopacity="0.0"
     inkscape:pagecheckerboard="0"
     inkscape:deskcolor="#d1d1d1" />
  <path
     id="path1"
     style="baseline-shift:baseline;display:inline;overflow:visible;vector-effect:none;fill:#000000;stroke:none;stroke-linecap:butt;stroke-linejoin:miter;enable-background:accumulate;stop-color:#000000;stop-opacity:1;opacity:1"
     d="M 4 4.125 C 2.4223851 4.125 1.125 5.4223851 1.125 7 L 1.125 17 C 1.125 18.577615 2.4223851 19.875 4 19.875 L 20 19.875 C 21.577615 19.875 22.875 18.577615 22.875 17 L 22.875 7 C 22.875 5.4223851 21.577615 4.125 20 4.125 L 4 4.125 z M 4 5.875 L 20 5.875 C 20.638385 5.875 21.125 6.3616149 21.125 7 L 21.125 17 C 21.125 17.638385 20.638385 18.125 20 18.125 L 4 18.125 C 3.3616149 18.125 2.875 17.638385 2.875 17 L 2.875 7 C 2.875 6.3616149 3.3616149 5.875 4 5.875 z M 8.8886719 8.1289062 C 8.7349265 8.1345684 8.581839 8.1501007 8.4316406 8.1738281 C 6.6292598 8.4585569 5.1289062 10.016242 5.1289062 12 C 5.1289064 14.645011 7.795871 16.533994 10.291016 15.65625 A 0.875 0.875 0 0 0 10.826172 14.539062 A 0.875 0.875 0 0 0 9.7089844 14.003906 C 8.3014343 14.499056 6.8789063 13.492089 6.8789062 12 C 6.8789062 10.507911 8.3014343 9.5009445 9.7089844 9.9960938 A 0.875 0.875 0 0 0 10.826172 9.4609375 A 0.875 0.875 0 0 0 10.291016 8.34375 C 9.8231758 8.179173 9.3499079 8.1119198 8.8886719 8.1289062 z M 15.888672 8.1289062 C 15.734927 8.1345684 15.581839 8.1501007 15.431641 8.1738281 C 13.62926 8.4585569 12.128906 10.016242 12.128906 12 C 12.128906 14.645011 14.795871 16.533994 17.291016 15.65625 A 0.875 0.875 0 0 0 17.826172 14.539062 A 0.875 0.875 0 0 0 16.708984 14.003906 C 15.301434 14.499056 13.878906 13.492089 13.878906 12 C 13.878906 10.507911 15.301434 9.5009445 16.708984 9.9960938 A 0.875 0.875 0 0 0 17.826172 9.4609375 A 0.875 0.875 0 0 0 17.291016 8.34375 C 16.823176 8.179173 16.349908 8.1119198 15.888672 8.1289062 z " />
</svg>
