<?xml version="1.0" encoding="UTF-8" standalone="no"?>
<svg
   width="24"
   height="24"
   viewBox="0 0 24 24"
   fill="none"
   stroke="currentColor"
   stroke-width="1.75"
   stroke-linecap="round"
   stroke-linejoin="round"
   version="1.1"
   id="svg3"
   sodipodi:docname=".tmp_contact-round.svg"
   xmlns:inkscape="http://www.inkscape.org/namespaces/inkscape"
   xmlns:sodipodi="http://sodipodi.sourceforge.net/DTD/sodipodi-0.dtd"
   xmlns="http://www.w3.org/2000/svg"
   xmlns:svg="http://www.w3.org/2000/svg">
  <defs
     id="defs3" />
  <sodipodi:namedview
     id="namedview3"
     pagecolor="#ffffff"
     bordercolor="#000000"
     borderopacity="0.25"
     inkscape:showpageshadow="2"
     inkscape:pageopacity="0.0"
     inkscape:pagecheckerboard="0"
     inkscape:deskcolor="#d1d1d1" />
  <path
     id="path1"
     style="baseline-shift:baseline;display:inline;overflow:visible;vector-effect:none;fill:#000000;stroke:none;stroke-linecap:butt;stroke-linejoin:miter;enable-background:accumulate;stop-color:#000000;stop-opacity:1;opacity:1"
     d="M 8 1.125 A 0.875 0.875 0 0 0 7.125 2 L 7.125 3.125 L 5 3.125 C 3.4223851 3.125 2.125 4.4223851 2.125 6 L 2.125 20 C 2.125 21.577615 3.4223851 22.875 5 22.875 L 5.9140625 22.875 L 17.914062 22.875 L 19 22.875 C 20.577615 22.875 21.875 21.577615 21.875 20 L 21.875 6 C 21.875 4.4223851 20.577615 3.125 19 3.125 L 16.875 3.125 L 16.875 2 A 0.875 0.875 0 0 0 16 1.125 A 0.875 0.875 0 0 0 15.125 2 L 15.125 3.125 L 8.875 3.125 L 8.875 2 A 0.875 0.875 0 0 0 8 1.125 z M 5 4.875 L 8 4.875 L 16 4.875 L 19 4.875 C 19.638385 4.875 20.125 5.3616149 20.125 6 L 20.125 20 C 20.125 20.638385 19.638385 21.125 19 21.125 L 18.734375 21.125 C 18.438664 18.814325 16.987447 16.855496 14.982422 15.849609 C 16.132242 14.955889 16.875 13.561018 16.875 12 C 16.875 9.3179759 14.682024 7.125 12 7.125 C 9.3179759 7.125 7.125 9.3179759 7.125 12 C 7.125 13.531026 7.8389017 14.903496 8.9511719 15.798828 C 6.8913499 16.788165 5.3946498 18.773781 5.09375 21.125 L 5 21.125 C 4.3616149 21.125 3.875 20.638385 3.875 20 L 3.875 6 C 3.875 5.3616149 4.3616149 4.875 5 4.875 z M 12 8.875 C 13.736254 8.875 15.125 10.263746 15.125 12 C 15.125 13.736254 13.736254 15.125 12 15.125 C 10.263746 15.125 8.875 13.736254 8.875 12 C 8.875 10.263746 10.263746 8.875 12 8.875 z M 11.914062 16.875 C 14.456407 16.875 16.552355 18.704403 16.964844 21.125 L 6.8632812 21.125 C 7.2757702 18.704403 9.3717173 16.875 11.914062 16.875 z " />
</svg>
