<?xml version="1.0" encoding="UTF-8" standalone="no"?>
<svg
   width="24"
   height="24"
   viewBox="0 0 24 24"
   fill="none"
   stroke="currentColor"
   stroke-width="1.75"
   stroke-linecap="round"
   stroke-linejoin="round"
   version="1.1"
   id="svg1"
   sodipodi:docname=".tmp_copyleft.svg"
   xmlns:inkscape="http://www.inkscape.org/namespaces/inkscape"
   xmlns:sodipodi="http://sodipodi.sourceforge.net/DTD/sodipodi-0.dtd"
   xmlns="http://www.w3.org/2000/svg"
   xmlns:svg="http://www.w3.org/2000/svg">
  <defs
     id="defs1" />
  <sodipodi:namedview
     id="namedview1"
     pagecolor="#ffffff"
     bordercolor="#000000"
     borderopacity="0.25"
     inkscape:showpageshadow="2"
     inkscape:pageopacity="0.0"
     inkscape:pagecheckerboard="0"
     inkscape:deskcolor="#d1d1d1" />
  <path
     id="circle1"
     style="baseline-shift:baseline;display:inline;overflow:visible;vector-effect:none;fill:#000000;stroke:none;stroke-linecap:butt;stroke-linejoin:miter;enable-background:accumulate;stop-color:#000000;stop-opacity:1;opacity:1"
     d="M 12 1.125 C 6.0042674 1.125 1.125 6.0042674 1.125 12 C 1.125 17.995733 6.0042674 22.875 12 22.875 C 17.995733 22.875 22.875 17.995733 22.875 12 C 22.875 6.0042674 17.995733 1.125 12 1.125 z M 12 2.875 C 17.049962 2.875 21.125 6.9500376 21.125 12 C 21.125 17.049962 17.049962 21.125 12 21.125 C 6.9500376 21.125 2.875 17.049962 2.875 12 C 2.875 6.9500376 6.9500376 2.875 12 2.875 z M 11.841797 7.125 C 11.609059 7.1317189 11.374718 7.1547031 11.142578 7.1953125 C 10.214017 7.35775 9.3056601 7.7967416 8.5507812 8.5507812 A 0.875 0.875 0 0 0 8.5507812 9.7890625 A 0.875 0.875 0 0 0 9.7890625 9.7890625 C 10.799981 8.7792679 12.096083 8.6583579 13.193359 9.1132812 C 14.290636 9.5682044 15.121094 10.571368 15.121094 12 C 15.121094 13.428632 14.290636 14.431795 13.193359 14.886719 C 12.096083 15.341642 10.799981 15.220732 9.7890625 14.210938 A 0.875 0.875 0 0 0 8.5507812 14.210938 A 0.875 0.875 0 0 0 8.5507812 15.449219 C 10.060539 16.957298 12.177401 17.202861 13.863281 16.503906 C 15.549161 15.804952 16.871094 14.133731 16.871094 12 C 16.871094 9.8662689 15.549161 8.1950482 13.863281 7.4960938 C 13.231076 7.2339859 12.540009 7.1048432 11.841797 7.125 z " />
</svg>
