<?xml version="1.0" encoding="UTF-8" standalone="no"?>
<svg
   width="24"
   height="24"
   viewBox="0 0 24 24"
   fill="none"
   stroke="currentColor"
   stroke-width="1.75"
   stroke-linecap="round"
   stroke-linejoin="round"
   version="1.1"
   id="svg4"
   sodipodi:docname=".tmp_currency.svg"
   xmlns:inkscape="http://www.inkscape.org/namespaces/inkscape"
   xmlns:sodipodi="http://sodipodi.sourceforge.net/DTD/sodipodi-0.dtd"
   xmlns="http://www.w3.org/2000/svg"
   xmlns:svg="http://www.w3.org/2000/svg">
  <defs
     id="defs4" />
  <sodipodi:namedview
     id="namedview4"
     pagecolor="#ffffff"
     bordercolor="#000000"
     borderopacity="0.25"
     inkscape:showpageshadow="2"
     inkscape:pageopacity="0.0"
     inkscape:pagecheckerboard="0"
     inkscape:deskcolor="#d1d1d1" />
  <path
     id="circle1"
     style="baseline-shift:baseline;display:inline;overflow:visible;vector-effect:none;fill:#000000;stroke:none;stroke-linecap:butt;stroke-linejoin:miter;enable-background:accumulate;stop-color:#000000;stop-opacity:1;opacity:1"
     d="M 3 2.125 A 0.875 0.875 0 0 0 2.3808594 2.3808594 A 0.875 0.875 0 0 0 2.3808594 3.6191406 L 5.1386719 6.3769531 C 3.8805076 7.9091141 3.125 9.8688393 3.125 12 C 3.125 14.131161 3.8805077 16.090886 5.1386719 17.623047 L 2.3808594 20.380859 A 0.875 0.875 0 0 0 2.3808594 21.619141 A 0.875 0.875 0 0 0 3.6191406 21.619141 L 6.3769531 18.861328 C 7.9091141 20.119492 9.8688394 20.875 12 20.875 C 14.13116 20.875 16.090886 20.119492 17.623047 18.861328 L 20.380859 21.619141 A 0.875 0.875 0 0 0 21.619141 21.619141 A 0.875 0.875 0 0 0 21.619141 20.380859 L 18.861328 17.623047 C 20.119492 16.090886 20.875 14.13116 20.875 12 C 20.875 9.8688394 20.119492 7.9091141 18.861328 6.3769531 L 21.619141 3.6191406 A 0.875 0.875 0 0 0 21.619141 2.3808594 A 0.875 0.875 0 0 0 21 2.125 A 0.875 0.875 0 0 0 20.380859 2.3808594 L 17.623047 5.1386719 C 16.090886 3.8805077 14.131161 3.125 12 3.125 C 9.8688393 3.125 7.9091141 3.8805076 6.3769531 5.1386719 L 3.6191406 2.3808594 A 0.875 0.875 0 0 0 3 2.125 z M 12 4.875 C 15.945393 4.875 19.125 8.0546071 19.125 12 C 19.125 15.945393 15.945393 19.125 12 19.125 C 8.0546071 19.125 4.875 15.945393 4.875 12 C 4.875 8.0546071 8.0546071 4.875 12 4.875 z " />
</svg>
