<?xml version="1.0" encoding="UTF-8" standalone="no"?>
<svg
   width="24"
   height="24"
   viewBox="0 0 24 24"
   fill="none"
   stroke="currentColor"
   stroke-width="1.75"
   stroke-linecap="round"
   stroke-linejoin="round"
   version="1.1"
   id="svg1"
   sodipodi:docname=".tmp_cylinder.svg"
   xmlns:inkscape="http://www.inkscape.org/namespaces/inkscape"
   xmlns:sodipodi="http://sodipodi.sourceforge.net/DTD/sodipodi-0.dtd"
   xmlns="http://www.w3.org/2000/svg"
   xmlns:svg="http://www.w3.org/2000/svg">
  <defs
     id="defs1" />
  <sodipodi:namedview
     id="namedview1"
     pagecolor="#ffffff"
     bordercolor="#000000"
     borderopacity="0.25"
     inkscape:showpageshadow="2"
     inkscape:pageopacity="0.0"
     inkscape:pagecheckerboard="0"
     inkscape:deskcolor="#d1d1d1" />
  <path
     id="ellipse1"
     style="baseline-shift:baseline;display:inline;overflow:visible;vector-effect:none;fill:#000000;stroke:none;stroke-linecap:butt;stroke-linejoin:miter;enable-background:accumulate;stop-color:#000000;stop-opacity:1;opacity:1"
     d="M 12 1.125 C 9.4359044 1.125 7.1147233 1.463712 5.359375 2.0488281 C 4.4817008 2.3413862 3.7431561 2.6896935 3.1660156 3.1445312 C 2.6199466 3.5748819 2.1810623 4.1655016 2.1347656 4.8789062 A 0.875 0.875 0 0 0 2.1328125 4.8867188 C 2.1305081 4.9247083 2.125 4.961311 2.125 5 L 2.125 19 C 2.125 19.828125 2.6168574 20.531371 3.2421875 21.007812 C 3.8675176 21.484254 4.6572266 21.821036 5.5644531 22.089844 C 7.3789062 22.627459 9.6851852 22.875 12 22.875 C 14.314815 22.875 16.621094 22.627459 18.435547 22.089844 C 19.342773 21.821036 20.132482 21.484255 20.757812 21.007812 C 21.383143 20.531372 21.875 19.828125 21.875 19 L 21.875 5 C 21.875 4.9586061 21.867869 4.9194991 21.865234 4.8789062 C 21.818938 4.1655016 21.380054 3.5748819 20.833984 3.1445312 C 20.256844 2.6896935 19.518299 2.3413862 18.640625 2.0488281 C 16.885277 1.463712 14.564096 1.125 12 1.125 z M 12 2.875 C 14.406467 2.875 16.58588 3.208314 18.087891 3.7089844 C 18.838896 3.9593195 19.418244 4.256539 19.751953 4.5195312 C 20.064805 4.7660866 20.119456 4.9209004 20.125 4.9882812 C 20.12537 4.9927733 20.125 4.9962781 20.125 5 L 20.125 5.0117188 C 20.119456 5.0790999 20.064803 5.2339135 19.751953 5.4804688 C 19.418244 5.7434611 18.838896 6.0406805 18.087891 6.2910156 C 16.58588 6.791686 14.406467 7.125 12 7.125 C 9.5935328 7.125 7.4141204 6.791686 5.9121094 6.2910156 C 5.1611039 6.0406805 4.581756 5.7434612 4.2480469 5.4804688 C 3.9351946 5.2339135 3.8805439 5.0790996 3.875 5.0117188 C 3.8746304 5.0072267 3.875 5.0037219 3.875 5 A 0.875 0.875 0 0 0 3.875 4.9882812 C 3.8805439 4.9209004 3.9351946 4.7660866 4.2480469 4.5195312 C 4.581756 4.2565389 5.1611039 3.9593195 5.9121094 3.7089844 C 7.4141204 3.208314 9.5935328 2.875 12 2.875 z M 3.875 7.3203125 C 4.3111542 7.5608177 4.8077888 7.7673098 5.359375 7.9511719 C 7.1147233 8.536288 9.4359044 8.875 12 8.875 C 14.564096 8.875 16.885277 8.536288 18.640625 7.9511719 C 19.192211 7.7673098 19.688846 7.5608177 20.125 7.3203125 L 20.125 19 C 20.125 19.171875 20.05436 19.34363 19.695312 19.617188 C 19.336268 19.890746 18.719727 20.178964 17.939453 20.410156 C 16.378906 20.87254 14.185185 21.125 12 21.125 C 9.8148148 21.125 7.6210938 20.87254 6.0605469 20.410156 C 5.2802734 20.178964 4.6637324 19.890745 4.3046875 19.617188 C 3.9456426 19.34363 3.875 19.171875 3.875 19 L 3.875 7.3203125 z " />
</svg>
