<?xml version="1.0" encoding="UTF-8" standalone="no"?>
<svg
   width="24"
   height="24"
   viewBox="0 0 24 24"
   fill="none"
   stroke="currentColor"
   stroke-width="1.75"
   stroke-linecap="round"
   stroke-linejoin="round"
   version="1.1"
   id="svg7"
   sodipodi:docname=".tmp_dam.svg"
   xmlns:inkscape="http://www.inkscape.org/namespaces/inkscape"
   xmlns:sodipodi="http://sodipodi.sourceforge.net/DTD/sodipodi-0.dtd"
   xmlns="http://www.w3.org/2000/svg"
   xmlns:svg="http://www.w3.org/2000/svg">
  <defs
     id="defs7" />
  <sodipodi:namedview
     id="namedview7"
     pagecolor="#ffffff"
     bordercolor="#000000"
     borderopacity="0.25"
     inkscape:showpageshadow="2"
     inkscape:pageopacity="0.0"
     inkscape:pagecheckerboard="0"
     inkscape:deskcolor="#d1d1d1" />
  <path
     id="path1"
     style="baseline-shift:baseline;display:inline;overflow:visible;vector-effect:none;fill:#000000;stroke:none;stroke-linecap:butt;stroke-linejoin:miter;enable-background:accumulate;stop-color:#000000;stop-opacity:1;opacity:1"
     d="M 7 2.125 C 5.9748301 2.125 5.125 2.9748301 5.125 4 L 5.125 5.125 L 2 5.125 A 0.875 0.875 0 0 0 1.125 6 A 0.875 0.875 0 0 0 2 6.875 L 5.125 6.875 L 5.125 9.125 L 2 9.125 A 0.875 0.875 0 0 0 1.125 10 A 0.875 0.875 0 0 0 2 10.875 L 5.125 10.875 L 5.125 13.125 L 2 13.125 A 0.875 0.875 0 0 0 1.125 14 A 0.875 0.875 0 0 0 2 14.875 L 5.125 14.875 L 5.125 17.125 L 2 17.125 A 0.875 0.875 0 0 0 1.125 18 A 0.875 0.875 0 0 0 2 18.875 L 5.125 18.875 L 5.125 20 C 5.125 21.02517 5.9748301 21.875 7 21.875 L 11 21.875 C 12.02517 21.875 12.875 21.02517 12.875 20 A 0.8750875 0.8750875 0 0 0 12.869141 19.890625 L 12.837891 19.634766 C 13.337123 19.785196 13.898422 19.875 14.5 19.875 C 15.983333 19.875 16.921875 19.183594 17.546875 18.683594 C 18.171875 18.183594 18.483333 17.875 19.5 17.875 C 20.575641 17.875 20.839453 18.171875 21.439453 18.671875 A 0.875 0.875 0 0 0 22.671875 18.560547 A 0.875 0.875 0 0 0 22.560547 17.328125 C 21.960547 16.828125 21.024359 16.125 19.5 16.125 C 18.016667 16.125 17.078125 16.816406 16.453125 17.316406 C 15.828125 17.816406 15.516667 18.125 14.5 18.125 C 13.962179 18.125 13.460533 18.018993 13.085938 17.873047 C 12.862791 17.786107 12.688176 17.672971 12.582031 17.59375 L 12.025391 13.134766 C 12.596236 13.52845 13.408551 13.875 14.5 13.875 C 15.983333 13.875 16.921875 13.183594 17.546875 12.683594 C 18.171875 12.183594 18.483333 11.875 19.5 11.875 C 20.575641 11.875 20.839453 12.171875 21.439453 12.671875 A 0.875 0.875 0 0 0 22.671875 12.560547 A 0.875 0.875 0 0 0 22.560547 11.328125 C 21.960547 10.828125 21.024359 10.125 19.5 10.125 C 18.016667 10.125 17.078125 10.816406 16.453125 11.316406 C 15.828125 11.816406 15.516667 12.125 14.5 12.125 C 13.688155 12.125 13.362135 11.944856 12.96875 11.658203 C 12.638909 11.417854 12.276638 11.03611 11.720703 10.705078 L 10.873047 3.9257812 C 10.872887 3.9217976 10.871279 3.9180402 10.871094 3.9140625 L 10.869141 3.890625 C 10.811194 2.9151957 9.9883947 2.125 9 2.125 L 7 2.125 z M 7 3.875 L 9 3.875 C 9.0794 3.875 9.125 3.9206 9.125 4 A 0.8750875 0.8750875 0 0 0 9.1308594 4.109375 L 11.117188 20.007812 C 11.111886 20.078246 11.074437 20.125 11 20.125 L 7 20.125 C 6.9206 20.125 6.875 20.0794 6.875 20 L 6.875 18 L 6.875 14 L 6.875 10 L 6.875 6 L 6.875 4 C 6.875 3.9206 6.9206 3.875 7 3.875 z " />
</svg>
