<?xml version="1.0" encoding="UTF-8" standalone="no"?>
<svg
   width="24"
   height="24"
   viewBox="0 0 24 24"
   fill="none"
   stroke="currentColor"
   stroke-width="1.75"
   stroke-linecap="round"
   stroke-linejoin="round"
   version="1.1"
   id="svg3"
   sodipodi:docname=".tmp_decimals-arrow-left.svg"
   xmlns:inkscape="http://www.inkscape.org/namespaces/inkscape"
   xmlns:sodipodi="http://sodipodi.sourceforge.net/DTD/sodipodi-0.dtd"
   xmlns="http://www.w3.org/2000/svg"
   xmlns:svg="http://www.w3.org/2000/svg">
  <defs
     id="defs3" />
  <sodipodi:namedview
     id="namedview3"
     pagecolor="#ffffff"
     bordercolor="#000000"
     borderopacity="0.25"
     inkscape:showpageshadow="2"
     inkscape:pageopacity="0.0"
     inkscape:pagecheckerboard="0"
     inkscape:deskcolor="#d1d1d1" />
  <path
     id="path1"
     style="baseline-shift:baseline;display:inline;overflow:visible;vector-effect:none;fill:#000000;stroke:none;stroke-linecap:butt;stroke-linejoin:miter;enable-background:accumulate;stop-color:#000000;stop-opacity:1;opacity:1"
     d="M 8.5 2.125 C 6.6453851 2.125 5.125 3.6453851 5.125 5.5 L 5.125 8.5 C 5.125 10.354615 6.6453851 11.875 8.5 11.875 C 10.354615 11.875 11.875 10.354615 11.875 8.5 L 11.875 5.5 C 11.875 3.6453851 10.354615 2.125 8.5 2.125 z M 8.5 3.875 C 9.4153851 3.875 10.125 4.5846149 10.125 5.5 L 10.125 8.5 C 10.125 9.4153851 9.4153851 10.125 8.5 10.125 C 7.5846149 10.125 6.875 9.4153851 6.875 8.5 L 6.875 5.5 C 6.875 4.5846149 7.5846149 3.875 8.5 3.875 z M 3 10.125 A 0.875 0.875 0 0 0 2.125 11 A 0.875 0.875 0 0 0 3 11.875 L 3.0097656 11.875 A 0.875 0.875 0 0 0 3.8847656 11 A 0.875 0.875 0 0 0 3.0097656 10.125 L 3 10.125 z M 13 14.125 A 0.875 0.875 0 0 0 12.380859 14.380859 L 9.3808594 17.380859 A 0.8750875 0.8750875 0 0 0 9.1914062 17.664062 A 0.875 0.875 0 0 0 9.1914062 17.666016 A 0.8750875 0.8750875 0 0 0 9.1542969 18.226562 A 0.875 0.875 0 0 0 9.1914062 18.333984 A 0.8750875 0.8750875 0 0 0 9.1914062 18.335938 A 0.8750875 0.8750875 0 0 0 9.3808594 18.619141 L 12.380859 21.619141 A 0.875 0.875 0 0 0 13.619141 21.619141 A 0.875 0.875 0 0 0 13.619141 20.380859 L 12.113281 18.875 L 20 18.875 A 0.875 0.875 0 0 0 20.875 18 A 0.875 0.875 0 0 0 20 17.125 L 12.113281 17.125 L 13.619141 15.619141 A 0.875 0.875 0 0 0 13.619141 14.380859 A 0.875 0.875 0 0 0 13 14.125 z " />
</svg>
