<?xml version="1.0" encoding="UTF-8" standalone="no"?>
<svg
   width="24"
   height="24"
   viewBox="0 0 24 24"
   fill="none"
   stroke="currentColor"
   stroke-width="1.75"
   stroke-linecap="round"
   stroke-linejoin="round"
   version="1.1"
   id="svg4"
   sodipodi:docname=".tmp_door-closed-locked.svg"
   xmlns:inkscape="http://www.inkscape.org/namespaces/inkscape"
   xmlns:sodipodi="http://sodipodi.sourceforge.net/DTD/sodipodi-0.dtd"
   xmlns="http://www.w3.org/2000/svg"
   xmlns:svg="http://www.w3.org/2000/svg">
  <defs
     id="defs4" />
  <sodipodi:namedview
     id="namedview4"
     pagecolor="#ffffff"
     bordercolor="#000000"
     borderopacity="0.25"
     inkscape:showpageshadow="2"
     inkscape:pageopacity="0.0"
     inkscape:pagecheckerboard="0"
     inkscape:deskcolor="#d1d1d1" />
  <path
     id="path1"
     style="baseline-shift:baseline;display:inline;overflow:visible;vector-effect:none;fill:#000000;stroke:none;stroke-linecap:butt;stroke-linejoin:miter;enable-background:accumulate;stop-color:#000000;stop-opacity:1;opacity:1"
     d="M 8 3.125 C 6.4225454 3.125 5.125 4.4225454 5.125 6 L 5.125 19.125 L 2 19.125 A 0.875 0.875 0 0 0 1.125 20 A 0.875 0.875 0 0 0 2 20.875 L 10 20.875 A 0.875 0.875 0 0 0 10.875 20 A 0.875 0.875 0 0 0 10 19.125 L 6.875 19.125 L 6.875 6 C 6.875 5.3683156 7.3683156 4.875 8 4.875 L 16 4.875 C 16.631684 4.875 17.125 5.3683156 17.125 6 L 17.125 9 A 0.875 0.875 0 0 0 18 9.875 A 0.875 0.875 0 0 0 18.875 9 L 18.875 6 C 18.875 4.4225454 17.577455 3.125 16 3.125 L 8 3.125 z M 10 11.125 A 0.875 0.875 0 0 0 9.125 12 A 0.875 0.875 0 0 0 10 12.875 L 10.009766 12.875 A 0.875 0.875 0 0 0 10.884766 12 A 0.875 0.875 0 0 0 10.009766 11.125 L 10 11.125 z M 18 12.125 C 17.305556 12.125 16.598378 12.352006 16.042969 12.845703 C 15.48756 13.3394 15.125 14.114584 15.125 15 L 15.125 16.125 L 15 16.125 C 13.976385 16.125 13.125 16.976385 13.125 18 L 13.125 21 C 13.125 22.023615 13.976385 22.875 15 22.875 L 21 22.875 C 22.023615 22.875 22.875 22.023615 22.875 21 L 22.875 18 C 22.875 16.976385 22.023615 16.125 21 16.125 L 20.875 16.125 L 20.875 15 C 20.875 14.114584 20.51244 13.3394 19.957031 12.845703 C 19.401622 12.352006 18.694444 12.125 18 12.125 z M 18 13.875 C 18.305556 13.875 18.598378 13.981327 18.792969 14.154297 C 18.98756 14.327266 19.125 14.552084 19.125 15 L 19.125 16.125 L 16.875 16.125 L 16.875 15 C 16.875 14.552084 17.01244 14.327266 17.207031 14.154297 C 17.401622 13.981327 17.694444 13.875 18 13.875 z M 15 17.875 L 16 17.875 L 20 17.875 L 21 17.875 C 21.08439 17.875 21.125 17.91561 21.125 18 L 21.125 21 C 21.125 21.08439 21.08439 21.125 21 21.125 L 15 21.125 C 14.91562 21.125 14.875 21.08439 14.875 21 L 14.875 18 C 14.875 17.91561 14.91562 17.875 15 17.875 z " />
</svg>
