<?xml version="1.0" encoding="UTF-8" standalone="no"?>
<svg
   width="24"
   height="24"
   viewBox="0 0 24 24"
   fill="none"
   stroke="currentColor"
   stroke-width="1.75"
   stroke-linecap="round"
   stroke-linejoin="round"
   version="1.1"
   id="svg6"
   sodipodi:docname=".tmp_drum.svg"
   xmlns:inkscape="http://www.inkscape.org/namespaces/inkscape"
   xmlns:sodipodi="http://sodipodi.sourceforge.net/DTD/sodipodi-0.dtd"
   xmlns="http://www.w3.org/2000/svg"
   xmlns:svg="http://www.w3.org/2000/svg">
  <defs
     id="defs6" />
  <sodipodi:namedview
     id="namedview6"
     pagecolor="#ffffff"
     bordercolor="#000000"
     borderopacity="0.25"
     inkscape:showpageshadow="2"
     inkscape:pageopacity="0.0"
     inkscape:pagecheckerboard="0"
     inkscape:deskcolor="#d1d1d1" />
  <path
     id="path1"
     style="baseline-shift:baseline;display:inline;overflow:visible;vector-effect:none;fill:#000000;stroke:none;stroke-linecap:butt;stroke-linejoin:miter;enable-background:accumulate;stop-color:#000000;stop-opacity:1;opacity:1"
     d="M 2 1.125 A 0.875 0.875 0 0 0 1.3808594 1.3808594 A 0.875 0.875 0 0 0 1.3808594 2.6191406 L 3.8320312 5.0703125 C 2.2333382 6.0388049 1.125 7.375927 1.125 9 L 1.125 17 C 1.125 18.853598 2.5682327 20.333922 4.5371094 21.318359 C 6.505986 22.302797 9.1203552 22.875 12 22.875 C 14.879645 22.875 17.494014 22.302797 19.462891 21.318359 C 21.431767 20.333922 22.875 18.853598 22.875 17 L 22.875 9 C 22.875 7.375927 21.766661 6.0388048 20.167969 5.0703125 L 22.619141 2.6191406 A 0.875 0.875 0 0 0 22.619141 1.3808594 A 0.875 0.875 0 0 0 22 1.125 A 0.875 0.875 0 0 0 21.380859 1.3808594 L 18.505859 4.2558594 C 16.680108 3.534312 14.434982 3.125 12 3.125 C 9.5650179 3.125 7.3198913 3.5343119 5.4941406 4.2558594 L 2.6191406 1.3808594 A 0.875 0.875 0 0 0 2 1.125 z M 12 4.875 C 13.904705 4.875 15.676162 5.159206 17.134766 5.6269531 L 13.380859 9.3808594 A 0.875 0.875 0 0 0 13.380859 10.619141 A 0.875 0.875 0 0 0 14.619141 10.619141 L 18.884766 6.3535156 C 20.396171 7.1589905 21.125 8.1305696 21.125 9 C 21.125 9.9078268 20.330099 10.926747 18.679688 11.751953 C 17.029276 12.577159 14.643202 13.125 12 13.125 C 9.3567975 13.125 6.9707241 12.577159 5.3203125 11.751953 C 3.6699009 10.926747 2.875 9.9078268 2.875 9 C 2.875 8.1305695 3.6038292 7.1589905 5.1152344 6.3535156 L 9.3808594 10.619141 A 0.875 0.875 0 0 0 10.619141 10.619141 A 0.875 0.875 0 0 0 10.619141 9.3808594 L 6.8652344 5.6269531 C 8.3238376 5.159206 10.095295 4.875 12 4.875 z M 2.875 12.255859 C 3.3592224 12.65603 3.9225601 13.011085 4.5371094 13.318359 C 5.0282125 13.563911 5.5594763 13.784789 6.125 13.976562 L 6.125 20.109375 C 5.8407937 19.997392 5.5719988 19.877796 5.3203125 19.751953 C 3.669901 18.926748 2.875 17.907828 2.875 17 L 2.875 12.255859 z M 21.125 12.255859 L 21.125 17 C 21.125 17.907828 20.330099 18.926748 18.679688 19.751953 C 18.428001 19.877796 18.159206 19.997392 17.875 20.109375 L 17.875 13.976562 C 18.440524 13.784789 18.971787 13.563911 19.462891 13.318359 C 20.07744 13.011085 20.640778 12.65603 21.125 12.255859 z M 7.875 14.455078 C 8.8917536 14.673149 9.983481 14.810734 11.125 14.857422 L 11.125 21.105469 C 9.9642724 21.051949 8.8664109 20.892758 7.875 20.654297 L 7.875 14.455078 z M 16.125 14.455078 L 16.125 20.654297 C 15.133589 20.892758 14.035728 21.051949 12.875 21.105469 L 12.875 14.857422 C 14.016519 14.810734 15.108246 14.673149 16.125 14.455078 z " />
</svg>
