<?xml version="1.0" encoding="UTF-8" standalone="no"?>
<svg
   width="24"
   height="24"
   viewBox="0 0 24 24"
   fill="none"
   stroke="currentColor"
   stroke-width="1.75"
   stroke-linecap="round"
   stroke-linejoin="round"
   version="1.1"
   id="svg4"
   sodipodi:docname=".tmp_file-key-2.svg"
   xmlns:inkscape="http://www.inkscape.org/namespaces/inkscape"
   xmlns:sodipodi="http://sodipodi.sourceforge.net/DTD/sodipodi-0.dtd"
   xmlns="http://www.w3.org/2000/svg"
   xmlns:svg="http://www.w3.org/2000/svg">
  <defs
     id="defs4" />
  <sodipodi:namedview
     id="namedview4"
     pagecolor="#ffffff"
     bordercolor="#000000"
     borderopacity="0.25"
     inkscape:showpageshadow="2"
     inkscape:pageopacity="0.0"
     inkscape:pagecheckerboard="0"
     inkscape:deskcolor="#d1d1d1" />
  <path
     id="path1"
     style="baseline-shift:baseline;display:inline;overflow:visible;vector-effect:none;fill:#000000;stroke:none;stroke-linecap:butt;stroke-linejoin:miter;enable-background:accumulate;stop-color:#000000;stop-opacity:1;opacity:1"
     d="M 6 1.125 C 4.4225454 1.125 3.125 2.4225454 3.125 4 L 3.125 10 A 0.875 0.875 0 0 0 4 10.875 A 0.875 0.875 0 0 0 4.875 10 L 4.875 4 C 4.875 3.3683156 5.3683156 2.875 6 2.875 L 13.125 2.875 L 13.125 6 C 13.125 7.5774546 14.422545 8.875 16 8.875 L 19.125 8.875 L 19.125 20 C 19.125 20.631684 18.631684 21.125 18 21.125 L 4 21.125 A 0.875 0.875 0 0 0 3.125 22 A 0.875 0.875 0 0 0 4 22.875 L 18 22.875 C 19.577455 22.875 20.875 21.577455 20.875 20 L 20.875 7 A 0.8750875 0.8750875 0 0 0 20.619141 6.3808594 L 15.619141 1.3808594 A 0.8750875 0.8750875 0 0 0 15 1.125 L 6 1.125 z M 14.875 3.1132812 L 18.886719 7.125 L 16 7.125 C 15.368316 7.125 14.875 6.6316844 14.875 6 L 14.875 3.1132812 z M 10 9.125 A 0.875 0.875 0 0 0 9.3808594 9.3808594 L 8.3828125 10.378906 A 0.875 0.875 0 0 0 8.3808594 10.380859 A 0.875 0.875 0 0 0 8.3789062 10.382812 L 5.3144531 13.447266 C 4.919527 13.24178 4.4725019 13.125 4 13.125 C 2.4225454 13.125 1.125 14.422545 1.125 16 C 1.125 17.577455 2.4225454 18.875 4 18.875 C 5.5774546 18.875 6.875 17.577455 6.875 16 C 6.875 15.527498 6.7582196 15.080473 6.5527344 14.685547 L 9 12.238281 L 9.3808594 12.619141 A 0.875 0.875 0 0 0 10.619141 12.619141 A 0.875 0.875 0 0 0 10.619141 11.380859 L 10.238281 11 L 10.619141 10.619141 A 0.875 0.875 0 0 0 10.619141 9.3808594 A 0.875 0.875 0 0 0 10 9.125 z M 4 14.875 C 4.6316844 14.875 5.125 15.368316 5.125 16 C 5.125 16.631684 4.6316844 17.125 4 17.125 C 3.3683156 17.125 2.875 16.631684 2.875 16 C 2.875 15.368316 3.3683156 14.875 4 14.875 z " />
</svg>
