<?xml version="1.0" encoding="UTF-8" standalone="no"?>
<svg
   width="24"
   height="24"
   viewBox="0 0 24 24"
   fill="none"
   stroke="currentColor"
   stroke-width="1.75"
   stroke-linecap="round"
   stroke-linejoin="round"
   version="1.1"
   id="svg2"
   sodipodi:docname=".tmp_file-lock.svg"
   xmlns:inkscape="http://www.inkscape.org/namespaces/inkscape"
   xmlns:sodipodi="http://sodipodi.sourceforge.net/DTD/sodipodi-0.dtd"
   xmlns="http://www.w3.org/2000/svg"
   xmlns:svg="http://www.w3.org/2000/svg">
  <defs
     id="defs2" />
  <sodipodi:namedview
     id="namedview2"
     pagecolor="#ffffff"
     bordercolor="#000000"
     borderopacity="0.25"
     inkscape:showpageshadow="2"
     inkscape:pageopacity="0.0"
     inkscape:pagecheckerboard="0"
     inkscape:deskcolor="#d1d1d1" />
  <path
     id="path1"
     style="baseline-shift:baseline;display:inline;overflow:visible;vector-effect:none;fill:#000000;stroke:none;stroke-linecap:butt;stroke-linejoin:miter;enable-background:accumulate;stop-color:#000000;stop-opacity:1;opacity:1"
     d="M 6 1.125 C 4.4225454 1.125 3.125 2.4225454 3.125 4 L 3.125 20 C 3.125 21.577455 4.4225454 22.875 6 22.875 L 18 22.875 C 19.577455 22.875 20.875 21.577455 20.875 20 L 20.875 7 A 0.8750875 0.8750875 0 0 0 20.619141 6.3808594 L 15.619141 1.3808594 A 0.8750875 0.8750875 0 0 0 15 1.125 L 6 1.125 z M 6 2.875 L 14.636719 2.875 L 19.125 7.3632812 L 19.125 20 C 19.125 20.631684 18.631684 21.125 18 21.125 L 6 21.125 C 5.3683156 21.125 4.875 20.631684 4.875 20 L 4.875 4 C 4.875 3.3683156 5.3683156 2.875 6 2.875 z M 12 7.125 C 11.305556 7.125 10.598378 7.3520063 10.042969 7.8457031 C 9.4875594 8.3394 9.125 9.1145835 9.125 10 L 9.125 11.125 L 9 11.125 C 7.9763851 11.125 7.125 11.976385 7.125 13 L 7.125 17 C 7.125 18.023615 7.9763851 18.875 9 18.875 L 15 18.875 C 16.023615 18.875 16.875 18.023615 16.875 17 L 16.875 13 C 16.875 11.976385 16.023615 11.125 15 11.125 L 14.875 11.125 L 14.875 10 C 14.875 9.1145835 14.51244 8.3394 13.957031 7.8457031 C 13.401622 7.3520063 12.694444 7.125 12 7.125 z M 12 8.875 C 12.305556 8.875 12.598378 8.9813273 12.792969 9.1542969 C 12.98756 9.3272664 13.125 9.5520837 13.125 10 L 13.125 11.125 L 10.875 11.125 L 10.875 10 C 10.875 9.5520837 11.01244 9.3272664 11.207031 9.1542969 C 11.401622 8.9813273 11.694444 8.875 12 8.875 z M 9 12.875 L 10 12.875 L 14 12.875 L 15 12.875 C 15.08438 12.875 15.125 12.91562 15.125 13 L 15.125 17 C 15.125 17.08439 15.08438 17.125 15 17.125 L 9 17.125 C 8.915615 17.125 8.875 17.08439 8.875 17 L 8.875 13 C 8.875 12.91562 8.915615 12.875 9 12.875 z " />
</svg>
