<?xml version="1.0" encoding="UTF-8" standalone="no"?>
<svg
   width="24"
   height="24"
   viewBox="0 0 24 24"
   fill="none"
   stroke="currentColor"
   stroke-width="1.75"
   stroke-linecap="round"
   stroke-linejoin="round"
   version="1.1"
   id="svg5"
   sodipodi:docname=".tmp_file-volume-2.svg"
   xmlns:inkscape="http://www.inkscape.org/namespaces/inkscape"
   xmlns:sodipodi="http://sodipodi.sourceforge.net/DTD/sodipodi-0.dtd"
   xmlns="http://www.w3.org/2000/svg"
   xmlns:svg="http://www.w3.org/2000/svg">
  <defs
     id="defs5" />
  <sodipodi:namedview
     id="namedview5"
     pagecolor="#ffffff"
     bordercolor="#000000"
     borderopacity="0.25"
     inkscape:showpageshadow="2"
     inkscape:pageopacity="0.0"
     inkscape:pagecheckerboard="0"
     inkscape:deskcolor="#d1d1d1" />
  <path
     id="path1"
     style="baseline-shift:baseline;display:inline;overflow:visible;vector-effect:none;fill:#000000;stroke:none;stroke-linecap:butt;stroke-linejoin:miter;enable-background:accumulate;stop-color:#000000;stop-opacity:1;opacity:1"
     d="M 6 1.125 C 4.4225454 1.125 3.125 2.4225454 3.125 4 L 3.125 20 C 3.125 21.577455 4.4225454 22.875 6 22.875 L 18 22.875 C 19.577455 22.875 20.875 21.577455 20.875 20 L 20.875 7 A 0.8750875 0.8750875 0 0 0 20.619141 6.3808594 L 15.619141 1.3808594 A 0.8750875 0.8750875 0 0 0 15 1.125 L 6 1.125 z M 6 2.875 L 13.125 2.875 L 13.125 6 C 13.125 7.5774546 14.422545 8.875 16 8.875 L 19.125 8.875 L 19.125 20 C 19.125 20.631684 18.631684 21.125 18 21.125 L 6 21.125 C 5.3683156 21.125 4.875 20.631684 4.875 20 L 4.875 4 C 4.875 3.3683156 5.3683156 2.875 6 2.875 z M 14.875 3.1132812 L 18.886719 7.125 L 16 7.125 C 15.368316 7.125 14.875 6.6316844 14.875 6 L 14.875 3.1132812 z M 15.009766 11.125 A 0.875 0.875 0 0 0 14.474609 11.300781 A 0.875 0.875 0 0 0 14.300781 12.525391 C 15.403115 13.995168 15.403115 16.004832 14.300781 17.474609 A 0.875 0.875 0 0 0 14.474609 18.699219 A 0.875 0.875 0 0 0 15.699219 18.525391 C 17.263552 16.439613 17.263552 13.560387 15.699219 11.474609 A 0.875 0.875 0 0 0 15.009766 11.125 z M 11.509766 12.625 A 0.875 0.875 0 0 0 10.974609 12.800781 A 0.875 0.875 0 0 0 10.800781 14.025391 C 11.236448 14.60628 11.236448 15.39372 10.800781 15.974609 A 0.875 0.875 0 0 0 10.974609 17.199219 A 0.875 0.875 0 0 0 12.199219 17.025391 C 13.096885 15.828502 13.096885 14.171498 12.199219 12.974609 A 0.875 0.875 0 0 0 11.509766 12.625 z M 8 14.125 A 0.875 0.875 0 0 0 7.125 15 A 0.875 0.875 0 0 0 8 15.875 L 8.0097656 15.875 A 0.875 0.875 0 0 0 8.8847656 15 A 0.875 0.875 0 0 0 8.0097656 14.125 L 8 14.125 z " />
</svg>
