<?xml version="1.0" encoding="UTF-8" standalone="no"?>
<svg
   width="24"
   height="24"
   viewBox="0 0 24 24"
   fill="none"
   stroke="currentColor"
   stroke-width="1.75"
   stroke-linecap="round"
   stroke-linejoin="round"
   version="1.1"
   id="svg5"
   sodipodi:docname=".tmp_file-output.svg"
   xmlns:inkscape="http://www.inkscape.org/namespaces/inkscape"
   xmlns:sodipodi="http://sodipodi.sourceforge.net/DTD/sodipodi-0.dtd"
   xmlns="http://www.w3.org/2000/svg"
   xmlns:svg="http://www.w3.org/2000/svg">
  <defs
     id="defs5" />
  <sodipodi:namedview
     id="namedview5"
     pagecolor="#ffffff"
     bordercolor="#000000"
     borderopacity="0.25"
     inkscape:showpageshadow="2"
     inkscape:pageopacity="0.0"
     inkscape:pagecheckerboard="0"
     inkscape:deskcolor="#d1d1d1" />
  <path
     id="path1"
     style="baseline-shift:baseline;display:inline;overflow:visible;vector-effect:none;fill:#000000;stroke:none;stroke-linecap:butt;stroke-linejoin:miter;enable-background:accumulate;stop-color:#000000;stop-opacity:1;opacity:1"
     d="M 6 1.125 C 4.4225454 1.125 3.125 2.4225454 3.125 4 L 3.125 7 A 0.875 0.875 0 0 0 4 7.875 A 0.875 0.875 0 0 0 4.875 7 L 4.875 4 C 4.875 3.6841578 4.9988824 3.4034613 5.2011719 3.2011719 C 5.4034613 2.9988824 5.6841578 2.875 6 2.875 L 13.125 2.875 L 13.125 6 C 13.125 7.5774546 14.422545 8.875 16 8.875 L 19.125 8.875 L 19.125 20 C 19.125 20.631684 18.631684 21.125 18 21.125 L 6.0625 21.123047 A 0.8750875 0.8750875 0 0 0 5.9492188 21.130859 C 5.4920586 21.190419 5.0508673 20.969823 4.8242188 20.568359 A 0.875 0.875 0 0 0 3.6328125 20.236328 A 0.875 0.875 0 0 0 3.3007812 21.429688 C 3.8674715 22.433471 4.9845071 23.002268 6.1269531 22.873047 L 18 22.875 C 19.577455 22.875 20.875 21.577455 20.875 20 L 20.875 7 A 0.8750875 0.8750875 0 0 0 20.619141 6.3808594 L 15.619141 1.3808594 A 0.8750875 0.8750875 0 0 0 15 1.125 L 6 1.125 z M 14.875 3.1132812 L 18.886719 7.125 L 16 7.125 C 15.368316 7.125 14.875 6.6316844 14.875 6 L 14.875 3.1132812 z M 5 10.125 A 0.875 0.875 0 0 0 4.3808594 10.380859 L 1.3808594 13.380859 A 0.875 0.875 0 0 0 1.3632812 13.402344 A 0.8750875 0.8750875 0 0 0 1.3417969 13.425781 A 0.875 0.875 0 0 0 1.2871094 13.492188 A 0.8750875 0.8750875 0 0 0 1.2617188 13.533203 A 0.875 0.875 0 0 0 1.2304688 13.585938 A 0.8750875 0.8750875 0 0 0 1.2070312 13.632812 A 0.875 0.875 0 0 0 1.1796875 13.701172 A 0.8750875 0.8750875 0 0 0 1.1640625 13.744141 A 0.875 0.875 0 0 0 1.1464844 13.810547 A 0.8750875 0.8750875 0 0 0 1.1367188 13.857422 A 0.875 0.875 0 0 0 1.1289062 13.925781 A 0.8750875 0.8750875 0 0 0 1.125 13.984375 A 0.875 0.875 0 0 0 1.1289062 14.070312 A 0.8750875 0.8750875 0 0 0 1.1289062 14.082031 A 0.875 0.875 0 0 0 1.1464844 14.191406 A 0.8750875 0.8750875 0 0 0 1.1503906 14.207031 A 0.875 0.875 0 0 0 1.1738281 14.28125 A 0.8750875 0.8750875 0 0 0 1.1875 14.326172 A 0.875 0.875 0 0 0 1.2089844 14.371094 A 0.8750875 0.8750875 0 0 0 1.2421875 14.4375 A 0.8750875 0.8750875 0 0 0 1.3007812 14.527344 A 0.875 0.875 0 0 0 1.3808594 14.619141 L 4.3808594 17.619141 A 0.875 0.875 0 0 0 5.6191406 17.619141 A 0.875 0.875 0 0 0 5.6191406 16.380859 L 4.1132812 14.875 L 12 14.875 A 0.875 0.875 0 0 0 12.875 14 A 0.875 0.875 0 0 0 12 13.125 L 4.1132812 13.125 L 5.6191406 11.619141 A 0.875 0.875 0 0 0 5.6191406 10.380859 A 0.875 0.875 0 0 0 5 10.125 z " />
</svg>
