<?xml version="1.0" encoding="UTF-8" standalone="no"?>
<svg
   width="24"
   height="24"
   viewBox="0 0 24 24"
   fill="none"
   stroke="currentColor"
   stroke-width="1.75"
   stroke-linecap="round"
   stroke-linejoin="round"
   version="1.1"
   id="svg3"
   sodipodi:docname=".tmp_file-check.svg"
   xmlns:inkscape="http://www.inkscape.org/namespaces/inkscape"
   xmlns:sodipodi="http://sodipodi.sourceforge.net/DTD/sodipodi-0.dtd"
   xmlns="http://www.w3.org/2000/svg"
   xmlns:svg="http://www.w3.org/2000/svg">
  <defs
     id="defs3" />
  <sodipodi:namedview
     id="namedview3"
     pagecolor="#ffffff"
     bordercolor="#000000"
     borderopacity="0.25"
     inkscape:showpageshadow="2"
     inkscape:pageopacity="0.0"
     inkscape:pagecheckerboard="0"
     inkscape:deskcolor="#d1d1d1" />
  <path
     id="path1"
     style="baseline-shift:baseline;display:inline;overflow:visible;vector-effect:none;fill:#000000;stroke:none;stroke-linecap:butt;stroke-linejoin:miter;enable-background:accumulate;stop-color:#000000;stop-opacity:1;opacity:1"
     d="M 6 1.125 C 4.4225454 1.125 3.125 2.4225454 3.125 4 L 3.125 20 C 3.125 21.577455 4.4225454 22.875 6 22.875 L 18 22.875 C 19.577455 22.875 20.875 21.577455 20.875 20 L 20.875 7 A 0.8750875 0.8750875 0 0 0 20.619141 6.3808594 L 15.619141 1.3808594 A 0.8750875 0.8750875 0 0 0 15 1.125 L 6 1.125 z M 6 2.875 L 13.125 2.875 L 13.125 6 C 13.125 7.5774546 14.422545 8.875 16 8.875 L 19.125 8.875 L 19.125 20 C 19.125 20.631684 18.631684 21.125 18 21.125 L 6 21.125 C 5.3683156 21.125 4.875 20.631684 4.875 20 L 4.875 4 C 4.875 3.3683156 5.3683156 2.875 6 2.875 z M 14.875 3.1132812 L 18.886719 7.125 L 16 7.125 C 15.368316 7.125 14.875 6.6316844 14.875 6 L 14.875 3.1132812 z M 15 12.125 A 0.875 0.875 0 0 0 14.380859 12.380859 L 11 15.761719 L 9.6191406 14.380859 A 0.875 0.875 0 0 0 8.3808594 14.380859 A 0.875 0.875 0 0 0 8.3808594 15.619141 L 10.380859 17.619141 A 0.8750875 0.8750875 0 0 0 11.619141 17.619141 L 15.619141 13.619141 A 0.875 0.875 0 0 0 15.619141 12.380859 A 0.875 0.875 0 0 0 15 12.125 z " />
</svg>
