<?xml version="1.0" encoding="UTF-8" standalone="no"?>
<svg
   width="24"
   height="24"
   viewBox="0 0 24 24"
   fill="none"
   stroke="currentColor"
   stroke-width="1.75"
   stroke-linecap="round"
   stroke-linejoin="round"
   version="1.1"
   id="svg4"
   sodipodi:docname=".tmp_file-json-2.svg"
   xmlns:inkscape="http://www.inkscape.org/namespaces/inkscape"
   xmlns:sodipodi="http://sodipodi.sourceforge.net/DTD/sodipodi-0.dtd"
   xmlns="http://www.w3.org/2000/svg"
   xmlns:svg="http://www.w3.org/2000/svg">
  <defs
     id="defs4" />
  <sodipodi:namedview
     id="namedview4"
     pagecolor="#ffffff"
     bordercolor="#000000"
     borderopacity="0.25"
     inkscape:showpageshadow="2"
     inkscape:pageopacity="0.0"
     inkscape:pagecheckerboard="0"
     inkscape:deskcolor="#d1d1d1" />
  <path
     id="path1"
     style="baseline-shift:baseline;display:inline;overflow:visible;vector-effect:none;fill:#000000;stroke:none;stroke-linecap:butt;stroke-linejoin:miter;enable-background:accumulate;stop-color:#000000;stop-opacity:1;opacity:1"
     d="M 6 1.125 C 4.4225454 1.125 3.125 2.4225454 3.125 4 L 3.125 8 A 0.875 0.875 0 0 0 4 8.875 A 0.875 0.875 0 0 0 4.875 8 L 4.875 4 C 4.875 3.3683156 5.3683156 2.875 6 2.875 L 13.125 2.875 L 13.125 6 C 13.125 7.5774546 14.422545 8.875 16 8.875 L 19.125 8.875 L 19.125 20 C 19.125 20.631684 18.631684 21.125 18 21.125 L 4 21.125 A 0.875 0.875 0 0 0 3.125 22 A 0.875 0.875 0 0 0 4 22.875 L 18 22.875 C 19.577455 22.875 20.875 21.577455 20.875 20 L 20.875 7 A 0.8750875 0.8750875 0 0 0 20.619141 6.3808594 L 15.619141 1.3808594 A 0.8750875 0.8750875 0 0 0 15 1.125 L 6 1.125 z M 14.875 3.1132812 L 18.886719 7.125 L 16 7.125 C 15.368316 7.125 14.875 6.6316844 14.875 6 L 14.875 3.1132812 z M 4 11.125 C 2.9748301 11.125 2.125 11.97483 2.125 13 L 2.125 14 C 2.125 14.0794 2.0794 14.125 2 14.125 A 0.8750875 0.8750875 0 0 0 2 15.875 C 2.0794 15.875 2.125 15.9206 2.125 16 L 2.125 17 C 2.125 18.02517 2.9748301 18.875 4 18.875 A 0.875 0.875 0 0 0 4.875 18 A 0.875 0.875 0 0 0 4 17.125 C 3.9206 17.125 3.875 17.0794 3.875 17 L 3.875 16 C 3.875 15.612351 3.6635874 15.30104 3.4570312 15 C 3.6635875 14.69896 3.875 14.387649 3.875 14 L 3.875 13 C 3.875 12.9206 3.9206 12.875 4 12.875 A 0.875 0.875 0 0 0 4.875 12 A 0.875 0.875 0 0 0 4 11.125 z M 8 11.125 A 0.875 0.875 0 0 0 7.125 12 A 0.875 0.875 0 0 0 8 12.875 C 8.0794 12.875 8.125 12.9206 8.125 13 L 8.125 14 C 8.125 14.387649 8.3364125 14.69896 8.5429688 15 C 8.3364124 15.30104 8.125 15.612351 8.125 16 L 8.125 17 C 8.125 17.0794 8.0794 17.125 8 17.125 A 0.875 0.875 0 0 0 7.125 18 A 0.875 0.875 0 0 0 8 18.875 C 9.0251699 18.875 9.875 18.02517 9.875 17 L 9.875 16 C 9.875 15.9206 9.9206 15.875 10 15.875 A 0.8750875 0.8750875 0 0 0 10 14.125 C 9.9206 14.125 9.875 14.0794 9.875 14 L 9.875 13 C 9.875 11.97483 9.0251699 11.125 8 11.125 z " />
</svg>
