<?xml version="1.0" encoding="UTF-8" standalone="no"?>
<svg
   width="24"
   height="24"
   viewBox="0 0 24 24"
   fill="none"
   stroke="currentColor"
   stroke-width="1.75"
   stroke-linecap="round"
   stroke-linejoin="round"
   version="1.1"
   id="svg6"
   sodipodi:docname=".tmp_flip-horizontal-2.svg"
   xmlns:inkscape="http://www.inkscape.org/namespaces/inkscape"
   xmlns:sodipodi="http://sodipodi.sourceforge.net/DTD/sodipodi-0.dtd"
   xmlns="http://www.w3.org/2000/svg"
   xmlns:svg="http://www.w3.org/2000/svg">
  <defs
     id="defs6" />
  <sodipodi:namedview
     id="namedview6"
     pagecolor="#ffffff"
     bordercolor="#000000"
     borderopacity="0.25"
     inkscape:showpageshadow="2"
     inkscape:pageopacity="0.0"
     inkscape:pagecheckerboard="0"
     inkscape:deskcolor="#d1d1d1" />
  <path
     id="path1"
     style="baseline-shift:baseline;display:inline;overflow:visible;vector-effect:none;fill:#000000;stroke:none;stroke-linecap:butt;stroke-linejoin:miter;enable-background:accumulate;stop-color:#000000;stop-opacity:1;opacity:1"
     d="M 12 1.125 A 0.875 0.875 0 0 0 11.125 2 L 11.125 4 A 0.875 0.875 0 0 0 12 4.875 A 0.875 0.875 0 0 0 12.875 4 L 12.875 2 A 0.875 0.875 0 0 0 12 1.125 z M 3 6.125 A 0.875 0.875 0 0 0 2.7441406 6.3808594 A 0.875 0.875 0 0 0 2.3808594 6.3808594 A 0.875 0.875 0 0 0 2.3808594 6.7441406 A 0.875 0.875 0 0 0 2.125 7 L 2.125 17 A 0.8750875 0.8750875 0 0 0 3.6191406 17.619141 L 8.6191406 12.619141 A 0.8750875 0.8750875 0 0 0 8.6191406 11.380859 L 3.6191406 6.3808594 A 0.875 0.875 0 0 0 3.2558594 6.3808594 A 0.875 0.875 0 0 0 3 6.125 z M 21 6.125 A 0.875 0.875 0 0 0 20.380859 6.3808594 L 15.380859 11.380859 A 0.8750875 0.8750875 0 0 0 15.380859 12.619141 L 20.380859 17.619141 A 0.8750875 0.8750875 0 0 0 21.875 17 L 21.875 7 A 0.875 0.875 0 0 0 21.619141 6.7441406 A 0.875 0.875 0 0 0 21.619141 6.3808594 A 0.875 0.875 0 0 0 21 6.125 z M 12 7.125 A 0.875 0.875 0 0 0 11.125 8 L 11.125 10 A 0.875 0.875 0 0 0 12 10.875 A 0.875 0.875 0 0 0 12.875 10 L 12.875 8 A 0.875 0.875 0 0 0 12 7.125 z M 3.875 9.1132812 L 6.7617188 12 L 3.875 14.886719 L 3.875 9.1132812 z M 20.125 9.1132812 L 20.125 14.886719 L 17.238281 12 L 20.125 9.1132812 z M 12 13.125 A 0.875 0.875 0 0 0 11.125 14 L 11.125 16 A 0.875 0.875 0 0 0 12 16.875 A 0.875 0.875 0 0 0 12.875 16 L 12.875 14 A 0.875 0.875 0 0 0 12 13.125 z M 12 19.125 A 0.875 0.875 0 0 0 11.125 20 L 11.125 22 A 0.875 0.875 0 0 0 12 22.875 A 0.875 0.875 0 0 0 12.875 22 L 12.875 20 A 0.875 0.875 0 0 0 12 19.125 z " />
</svg>
