<?xml version="1.0" encoding="UTF-8" standalone="no"?>
<svg
   width="24"
   height="24"
   viewBox="0 0 24 24"
   fill="none"
   stroke="currentColor"
   stroke-width="1.75"
   stroke-linecap="round"
   stroke-linejoin="round"
   version="1.1"
   id="svg2"
   sodipodi:docname=".tmp_folder-lock.svg"
   xmlns:inkscape="http://www.inkscape.org/namespaces/inkscape"
   xmlns:sodipodi="http://sodipodi.sourceforge.net/DTD/sodipodi-0.dtd"
   xmlns="http://www.w3.org/2000/svg"
   xmlns:svg="http://www.w3.org/2000/svg">
  <defs
     id="defs2" />
  <sodipodi:namedview
     id="namedview2"
     pagecolor="#ffffff"
     bordercolor="#000000"
     borderopacity="0.25"
     inkscape:showpageshadow="2"
     inkscape:pageopacity="0.0"
     inkscape:pagecheckerboard="0"
     inkscape:deskcolor="#d1d1d1" />
  <path
     id="rect1"
     style="baseline-shift:baseline;display:inline;overflow:visible;vector-effect:none;fill:#000000;stroke:none;stroke-linecap:butt;stroke-linejoin:miter;enable-background:accumulate;stop-color:#000000;stop-opacity:1;opacity:1"
     d="M 4 2.125 C 2.4225454 2.125 1.125 3.4225454 1.125 5 L 1.125 18 C 1.125 19.577455 2.4225454 20.875 4 20.875 L 10 20.875 A 0.875 0.875 0 0 0 10.875 20 A 0.875 0.875 0 0 0 10 19.125 L 4 19.125 C 3.3683156 19.125 2.875 18.631684 2.875 18 L 2.875 5 C 2.875 4.3683156 3.3683156 3.875 4 3.875 L 7.9003906 3.875 A 0.8750875 0.8750875 0 0 0 7.9082031 3.875 C 8.2916227 3.87124 8.6485026 4.0606134 8.859375 4.3808594 A 0.8750875 0.8750875 0 0 0 8.8652344 4.3886719 L 9.6699219 5.5820312 C 10.201106 6.3886251 11.104521 6.874841 12.070312 6.875 L 20 6.875 C 20.631684 6.875 21.125 7.3683156 21.125 8 L 21.125 10.5 A 0.875 0.875 0 0 0 22 11.375 A 0.875 0.875 0 0 0 22.875 10.5 L 22.875 8 C 22.875 6.4225454 21.577455 5.125 20 5.125 L 12.070312 5.125 C 11.690929 5.1249375 11.33952 4.9359874 11.130859 4.6191406 A 0.8750875 0.8750875 0 0 0 11.125 4.6113281 L 10.320312 3.4179688 L 10.318359 3.4160156 C 9.7814984 2.6023181 8.8655912 2.1154413 7.890625 2.125 L 4 2.125 z M 18 12.125 C 17.305556 12.125 16.598378 12.352006 16.042969 12.845703 C 15.48756 13.3394 15.125 14.114584 15.125 15 L 15.125 16.125 L 15 16.125 C 13.976385 16.125 13.125 16.976385 13.125 18 L 13.125 21 C 13.125 22.023615 13.976385 22.875 15 22.875 L 21 22.875 C 22.023615 22.875 22.875 22.023615 22.875 21 L 22.875 18 C 22.875 16.976385 22.023615 16.125 21 16.125 L 20.875 16.125 L 20.875 15 C 20.875 14.114584 20.51244 13.3394 19.957031 12.845703 C 19.401622 12.352006 18.694444 12.125 18 12.125 z M 18 13.875 C 18.305556 13.875 18.598378 13.981327 18.792969 14.154297 C 18.98756 14.327266 19.125 14.552084 19.125 15 L 19.125 16.125 L 16.875 16.125 L 16.875 15 C 16.875 14.552084 17.01244 14.327266 17.207031 14.154297 C 17.401622 13.981327 17.694444 13.875 18 13.875 z M 15 17.875 L 16 17.875 L 20 17.875 L 21 17.875 C 21.08439 17.875 21.125 17.91561 21.125 18 L 21.125 21 C 21.125 21.08439 21.08439 21.125 21 21.125 L 15 21.125 C 14.91562 21.125 14.875 21.08439 14.875 21 L 14.875 18 C 14.875 17.91561 14.91562 17.875 15 17.875 z " />
</svg>
