<?xml version="1.0" encoding="UTF-8" standalone="no"?>
<svg
   width="24"
   height="24"
   viewBox="0 0 24 24"
   fill="none"
   stroke="currentColor"
   stroke-width="1.75"
   stroke-linecap="round"
   stroke-linejoin="round"
   version="1.1"
   id="svg1"
   sodipodi:docname=".tmp_folder-open-dot.svg"
   xmlns:inkscape="http://www.inkscape.org/namespaces/inkscape"
   xmlns:sodipodi="http://sodipodi.sourceforge.net/DTD/sodipodi-0.dtd"
   xmlns="http://www.w3.org/2000/svg"
   xmlns:svg="http://www.w3.org/2000/svg">
  <defs
     id="defs1" />
  <sodipodi:namedview
     id="namedview1"
     pagecolor="#ffffff"
     bordercolor="#000000"
     borderopacity="0.25"
     inkscape:showpageshadow="2"
     inkscape:pageopacity="0.0"
     inkscape:pagecheckerboard="0"
     inkscape:deskcolor="#d1d1d1" />
  <path
     id="path1"
     style="baseline-shift:baseline;display:inline;overflow:visible;vector-effect:none;fill:#000000;stroke:none;stroke-linecap:butt;stroke-linejoin:miter;enable-background:accumulate;stop-color:#000000;stop-opacity:1;opacity:1"
     d="M 4 2.125 C 2.4227273 2.125 1.125 3.4227273 1.125 5 L 1.125 18 C 1.125 19.577455 2.4225454 20.875 4 20.875 L 18.449219 20.875 C 19.757687 20.8773 20.909213 19.985672 21.236328 18.71875 L 22.787109 12.71875 C 23.172913 11.224548 22.252885 9.7966444 20.875 9.3339844 L 20.875 8 C 20.875 6.4225454 19.577455 5.125 18 5.125 L 12.074219 5.125 C 11.696858 5.1230477 11.348171 4.9343063 11.140625 4.6191406 A 0.8750875 0.8750875 0 0 0 11.132812 4.6054688 L 10.320312 3.4179688 C 9.791912 2.6155936 8.8943098 2.1299703 7.9335938 2.125 A 0.8750875 0.8750875 0 0 0 7.9296875 2.125 L 4 2.125 z M 4 3.875 L 7.9257812 3.875 C 8.3031417 3.87695 8.651829 4.0656937 8.859375 4.3808594 A 0.8750875 0.8750875 0 0 0 8.8671875 4.3945312 L 9.6796875 5.5820312 C 10.208077 6.3844062 11.10569 6.8700297 12.066406 6.875 A 0.8750875 0.8750875 0 0 0 12.070312 6.875 L 18 6.875 C 18.631684 6.875 19.125 7.3683156 19.125 8 L 19.125 9.125 L 9.2421875 9.125 L 9.2402344 9.125 C 8.155046 9.123598 7.1563496 9.7378308 6.6679688 10.707031 A 0.8750875 0.8750875 0 0 0 6.6679688 10.708984 L 5.2167969 13.609375 A 0.875 0.875 0 0 0 5.609375 14.783203 A 0.875 0.875 0 0 0 6.7832031 14.390625 L 8.2324219 11.492188 C 8.4252374 11.111942 8.8117598 10.87416 9.2382812 10.875 A 0.8750875 0.8750875 0 0 0 9.2402344 10.875 L 20 10.875 A 0.875 0.875 0 0 0 20.001953 10.875 C 20.759829 10.8737 21.283221 11.547439 21.09375 12.28125 L 19.542969 18.28125 C 19.413435 18.782935 18.969308 19.125909 18.451172 19.125 A 0.8750875 0.8750875 0 0 0 18.449219 19.125 L 4 19.125 C 3.3683156 19.125 2.875 18.631684 2.875 18 L 2.875 5 C 2.875 4.3772727 3.3772727 3.875 4 3.875 z M 14 13.125 C 12.97483 13.125 12.125 13.97483 12.125 15 C 12.125 16.02517 12.97483 16.875 14 16.875 C 15.02517 16.875 15.875 16.02517 15.875 15 C 15.875 13.97483 15.02517 13.125 14 13.125 z M 14 14.875 C 14.0794 14.875 14.125 14.9206 14.125 15 C 14.125 15.0794 14.0794 15.125 14 15.125 C 13.9206 15.125 13.875 15.0794 13.875 15 C 13.875 14.9206 13.9206 14.875 14 14.875 z " />
</svg>
