<?xml version="1.0" encoding="UTF-8" standalone="no"?>
<svg
   width="24"
   height="24"
   viewBox="0 0 24 24"
   fill="none"
   stroke="currentColor"
   stroke-width="1.75"
   stroke-linecap="round"
   stroke-linejoin="round"
   version="1.1"
   id="svg3"
   sodipodi:docname=".tmp_gift.svg"
   xmlns:inkscape="http://www.inkscape.org/namespaces/inkscape"
   xmlns:sodipodi="http://sodipodi.sourceforge.net/DTD/sodipodi-0.dtd"
   xmlns="http://www.w3.org/2000/svg"
   xmlns:svg="http://www.w3.org/2000/svg">
  <defs
     id="defs3" />
  <sodipodi:namedview
     id="namedview3"
     pagecolor="#ffffff"
     bordercolor="#000000"
     borderopacity="0.25"
     inkscape:showpageshadow="2"
     inkscape:pageopacity="0.0"
     inkscape:pagecheckerboard="0"
     inkscape:deskcolor="#d1d1d1" />
  <path
     id="rect1"
     style="baseline-shift:baseline;display:inline;overflow:visible;vector-effect:none;fill:#000000;stroke:none;stroke-linecap:butt;stroke-linejoin:miter;enable-background:accumulate;stop-color:#000000;stop-opacity:1;opacity:1"
     d="M 7.4921875 2.1269531 C 6.4438075 2.1292705 5.5461576 2.5518322 4.9707031 3.1992188 C 4.393673 3.8483778 4.125 4.6805556 4.125 5.5 C 4.125 6.056205 4.2478403 6.6182764 4.5078125 7.125 L 4 7.125 C 2.9763851 7.125 2.125 7.9763851 2.125 9 L 2.125 11 C 2.125 12.023615 2.9763851 12.875 4 12.875 L 4.125 12.875 L 4.125 19 C 4.125 20.577455 5.4225454 21.875 7 21.875 L 17 21.875 C 18.577455 21.875 19.875 20.577455 19.875 19 L 19.875 12.875 L 20 12.875 C 21.023615 12.875 21.875 12.023615 21.875 11 L 21.875 9 C 21.875 7.9763851 21.023615 7.125 20 7.125 L 19.492188 7.125 C 19.75216 6.6182764 19.875 6.056205 19.875 5.5 C 19.875 4.6805556 19.606327 3.8483779 19.029297 3.1992188 C 18.453842 2.5518322 17.556192 2.1292705 16.507812 2.1269531 C 15.226325 2.1074677 14.044261 2.7494325 13.136719 3.7578125 C 12.700854 4.2421062 12.324614 4.8215843 12 5.4648438 C 11.675386 4.8215843 11.299146 4.2421062 10.863281 3.7578125 C 9.9557394 2.7494325 8.7736753 2.1074677 7.4921875 2.1269531 z M 7.5 3.875 A 0.8750875 0.8750875 0 0 0 7.515625 3.875 C 8.2051871 3.862986 8.9006151 4.1923067 9.5625 4.9277344 C 10.045258 5.464132 10.486014 6.2120531 10.822266 7.125 L 7.5 7.125 C 6.8854171 7.125 6.5355997 6.9250597 6.2792969 6.6367188 C 6.022994 6.3483779 5.875 5.9305556 5.875 5.5 C 5.875 5.0694444 6.022994 4.6516221 6.2792969 4.3632812 C 6.5355997 4.0749404 6.8854171 3.875 7.5 3.875 z M 16.484375 3.875 A 0.8750875 0.8750875 0 0 0 16.5 3.875 C 17.114583 3.875 17.4644 4.0749404 17.720703 4.3632812 C 17.977001 4.6516221 18.125 5.0694444 18.125 5.5 C 18.125 5.9305556 17.977006 6.3483779 17.720703 6.6367188 C 17.4644 6.9250596 17.114583 7.125 16.5 7.125 L 13.177734 7.125 C 13.513986 6.2120531 13.954742 5.464132 14.4375 4.9277344 C 15.099385 4.1923067 15.794813 3.8629859 16.484375 3.875 z M 4 8.875 L 7.5 8.875 L 11.125 8.875 L 11.125 11.125 L 4 11.125 C 3.9156149 11.125 3.875 11.084385 3.875 11 L 3.875 9 C 3.875 8.9156149 3.9156149 8.875 4 8.875 z M 12.875 8.875 L 16.5 8.875 L 20 8.875 C 20.08439 8.875 20.125 8.915615 20.125 9 L 20.125 11 C 20.125 11.08438 20.08439 11.125 20 11.125 L 12.875 11.125 L 12.875 8.875 z M 5.875 12.875 L 11.125 12.875 L 11.125 20.125 L 7 20.125 C 6.3683156 20.125 5.875 19.631684 5.875 19 L 5.875 12.875 z M 12.875 12.875 L 18.125 12.875 L 18.125 19 C 18.125 19.631684 17.631684 20.125 17 20.125 L 12.875 20.125 L 12.875 12.875 z " />
</svg>
