<?xml version="1.0" encoding="UTF-8" standalone="no"?>
<svg
   width="24"
   height="24"
   viewBox="0 0 24 24"
   fill="none"
   stroke="currentColor"
   stroke-width="1.75"
   stroke-linecap="round"
   stroke-linejoin="round"
   version="1.1"
   id="svg6"
   sodipodi:docname=".tmp_git-branch-plus.svg"
   xmlns:inkscape="http://www.inkscape.org/namespaces/inkscape"
   xmlns:sodipodi="http://sodipodi.sourceforge.net/DTD/sodipodi-0.dtd"
   xmlns="http://www.w3.org/2000/svg"
   xmlns:svg="http://www.w3.org/2000/svg">
  <defs
     id="defs6" />
  <sodipodi:namedview
     id="namedview6"
     pagecolor="#ffffff"
     bordercolor="#000000"
     borderopacity="0.25"
     inkscape:showpageshadow="2"
     inkscape:pageopacity="0.0"
     inkscape:pagecheckerboard="0"
     inkscape:deskcolor="#d1d1d1" />
  <path
     id="path1"
     style="baseline-shift:baseline;display:inline;overflow:visible;vector-effect:none;fill:#000000;stroke:none;stroke-linecap:butt;stroke-linejoin:miter;enable-background:accumulate;stop-color:#000000;stop-opacity:1;opacity:1"
     d="M 6 2.125 A 0.875 0.875 0 0 0 5.125 3 L 5.125 14.212891 C 4.2915117 14.384829 3.5909941 14.798266 3.0957031 15.355469 C 2.4353397 16.098378 2.125 17.055556 2.125 18 C 2.125 18.944444 2.4353397 19.901622 3.0957031 20.644531 C 3.7560665 21.38744 4.7812503 21.875 6 21.875 C 7.2187497 21.875 8.2439335 21.38744 8.9042969 20.644531 C 9.5646603 19.901622 9.875 18.944444 9.875 18 C 9.875 17.055556 9.5646603 16.098378 8.9042969 15.355469 C 8.4162836 14.806454 7.729485 14.397091 6.9121094 14.220703 C 7.2784682 10.346233 10.34778 7.2771017 14.222656 6.9121094 C 14.361173 7.5410789 14.648608 8.1415485 15.095703 8.6445312 C 15.756067 9.3874403 16.78125 9.875 18 9.875 C 19.21875 9.875 20.243933 9.3874403 20.904297 8.6445312 C 21.56466 7.901622 21.875 6.9444444 21.875 6 C 21.875 5.0555556 21.56466 4.0983779 20.904297 3.3554688 C 20.243933 2.6125595 19.21875 2.125 18 2.125 C 16.78125 2.125 15.756067 2.6125596 15.095703 3.3554688 C 14.632575 3.8764882 14.34148 4.5027567 14.208984 5.15625 C 11.172466 5.3982158 8.5178672 7.021096 6.875 9.3945312 L 6.875 3 A 0.875 0.875 0 0 0 6 2.125 z M 18 3.875 C 18.781249 3.875 19.256067 4.1374404 19.595703 4.5195312 C 19.935339 4.9016221 20.125 5.4444444 20.125 6 C 20.125 6.5555556 19.935339 7.0983779 19.595703 7.4804688 C 19.256067 7.8625596 18.781249 8.125 18 8.125 C 17.218751 8.125 16.743933 7.8625597 16.404297 7.4804688 C 16.064661 7.0983779 15.875 6.5555556 15.875 6 C 15.875 5.4444444 16.064661 4.9016221 16.404297 4.5195312 C 16.743933 4.1374404 17.218751 3.875 18 3.875 z M 18 14.125 A 0.875 0.875 0 0 0 17.125 15 L 17.125 17.125 L 15 17.125 A 0.875 0.875 0 0 0 14.125 18 A 0.875 0.875 0 0 0 15 18.875 L 17.125 18.875 L 17.125 21 A 0.875 0.875 0 0 0 18 21.875 A 0.875 0.875 0 0 0 18.875 21 L 18.875 18.875 L 21 18.875 A 0.875 0.875 0 0 0 21.875 18 A 0.875 0.875 0 0 0 21 17.125 L 18.875 17.125 L 18.875 15 A 0.875 0.875 0 0 0 18 14.125 z M 6 15.875 C 6.7812495 15.875 7.256067 16.13744 7.5957031 16.519531 C 7.9353393 16.901622 8.125 17.444444 8.125 18 C 8.125 18.555556 7.9353393 19.098378 7.5957031 19.480469 C 7.256067 19.86256 6.7812495 20.125 6 20.125 C 5.2187505 20.125 4.743933 19.86256 4.4042969 19.480469 C 4.0646607 19.098378 3.875 18.555556 3.875 18 C 3.875 17.444444 4.0646607 16.901622 4.4042969 16.519531 C 4.743933 16.13744 5.2187505 15.875 6 15.875 z " />
</svg>
