<?xml version="1.0" encoding="UTF-8" standalone="no"?>
<svg
   width="24"
   height="24"
   viewBox="0 0 24 24"
   fill="none"
   stroke="currentColor"
   stroke-width="1.75"
   stroke-linecap="round"
   stroke-linejoin="round"
   version="1.1"
   id="svg5"
   sodipodi:docname=".tmp_hand-grab.svg"
   xmlns:inkscape="http://www.inkscape.org/namespaces/inkscape"
   xmlns:sodipodi="http://sodipodi.sourceforge.net/DTD/sodipodi-0.dtd"
   xmlns="http://www.w3.org/2000/svg"
   xmlns:svg="http://www.w3.org/2000/svg">
  <defs
     id="defs5" />
  <sodipodi:namedview
     id="namedview5"
     pagecolor="#ffffff"
     bordercolor="#000000"
     borderopacity="0.25"
     inkscape:showpageshadow="2"
     inkscape:pageopacity="0.0"
     inkscape:pagecheckerboard="0"
     inkscape:deskcolor="#d1d1d1" />
  <path
     id="path1"
     style="baseline-shift:baseline;display:inline;overflow:visible;vector-effect:none;fill:#000000;stroke:none;stroke-linecap:butt;stroke-linejoin:miter;enable-background:accumulate;stop-color:#000000;stop-opacity:1;opacity:1"
     d="M 12 5.125 C 10.945077 5.125 10.015824 5.7062634 9.515625 6.5625 C 9.0745848 6.2861975 8.5543311 6.125 8 6.125 C 6.4225454 6.125 5.125 7.4225454 5.125 9 L 5.125 11.335938 C 4.8575001 11.23023 4.5768987 11.167039 4.2949219 11.140625 C 4.1965509 11.13141 4.0983274 11.125 4 11.125 C 3.3055556 11.125 2.5983779 11.352006 2.0429688 11.845703 C 1.5503322 12.283602 1.2113931 12.943773 1.140625 13.705078 C 1.1306041 13.801864 1.1250002 13.900745 1.125 14 C 1.125 18.891163 5.1088369 22.875 10 22.875 L 14 22.875 C 18.891163 22.875 22.875 18.891163 22.875 14 L 22.875 11 C 22.875 10.114584 22.51244 9.3394 21.957031 8.8457031 C 21.401622 8.3520063 20.694444 8.125 20 8.125 C 19.594565 8.125 19.184114 8.2025857 18.802734 8.3652344 C 18.510524 7.0890535 17.359562 6.125 16 6.125 C 15.445669 6.125 14.925415 6.2861974 14.484375 6.5625 C 13.984176 5.7062634 13.054923 5.125 12 5.125 z M 12 6.875 C 12.631684 6.875 13.125 7.3683156 13.125 8 L 13.125 10 L 13.125 10.400391 A 0.875 0.875 0 0 0 14 11.275391 A 0.875 0.875 0 0 0 14.875 10.400391 L 14.875 9 C 14.875 8.3683156 15.368316 7.875 16 7.875 C 16.631684 7.875 17.125 8.3683156 17.125 9 L 17.125 11 L 17.125 11.5 A 0.875 0.875 0 0 0 18 12.375 A 0.875 0.875 0 0 0 18.875 11.5 L 18.875 11 C 18.875 10.552084 19.01244 10.327266 19.207031 10.154297 C 19.401622 9.9813272 19.694444 9.875 20 9.875 C 20.305556 9.875 20.598378 9.9813272 20.792969 10.154297 C 20.98756 10.327266 21.125 10.552084 21.125 11 L 21.125 14 C 21.125 17.945393 17.945393 21.125 14 21.125 L 10 21.125 C 6.0546071 21.125 2.875 17.945393 2.875 14 C 2.875 13.447285 3.2519403 12.999553 3.7695312 12.896484 C 3.796321 12.89115 3.8240561 12.888226 3.8515625 12.884766 C 3.8999756 12.878676 3.9496488 12.875001 4 12.875 C 4.0381932 12.875001 4.075653 12.877614 4.1132812 12.880859 C 4.1251182 12.881985 4.136722 12.883292 4.1484375 12.884766 C 4.1759439 12.888226 4.203679 12.89115 4.2304688 12.896484 C 4.7480597 12.999553 5.125 13.447285 5.125 14 A 0.875 0.875 0 0 0 6 14.875 A 0.875 0.875 0 0 0 6.1132812 14.867188 A 0.875 0.875 0 0 0 6.875 14 L 6.875 9 C 6.875 8.3683156 7.3683156 7.875 8 7.875 C 8.6316844 7.875 9.125 8.3683156 9.125 9 L 9.125 9.9003906 L 9.125 10 A 0.875 0.875 0 0 0 10 10.875 A 0.875 0.875 0 0 0 10.875 10 L 10.875 8 C 10.875 7.3683156 11.368316 6.875 12 6.875 z " />
</svg>
