<?xml version="1.0" encoding="UTF-8" standalone="no"?>
<svg
   width="24"
   height="24"
   viewBox="0 0 24 24"
   fill="none"
   stroke="currentColor"
   stroke-width="1.75"
   stroke-linecap="round"
   stroke-linejoin="round"
   version="1.1"
   id="svg2"
   sodipodi:docname=".tmp_headset.svg"
   xmlns:inkscape="http://www.inkscape.org/namespaces/inkscape"
   xmlns:sodipodi="http://sodipodi.sourceforge.net/DTD/sodipodi-0.dtd"
   xmlns="http://www.w3.org/2000/svg"
   xmlns:svg="http://www.w3.org/2000/svg">
  <defs
     id="defs2" />
  <sodipodi:namedview
     id="namedview2"
     pagecolor="#ffffff"
     bordercolor="#000000"
     borderopacity="0.25"
     inkscape:showpageshadow="2"
     inkscape:pageopacity="0.0"
     inkscape:pagecheckerboard="0"
     inkscape:deskcolor="#d1d1d1" />
  <path
     id="path1"
     style="baseline-shift:baseline;display:inline;overflow:visible;vector-effect:none;fill:#000000;stroke:none;stroke-linecap:butt;stroke-linejoin:miter;enable-background:accumulate;stop-color:#000000;stop-opacity:1;opacity:1"
     d="M 12 1.125 C 6.5565531 1.125 2.125 5.5565491 2.125 11 L 2.125 16 C 2.125 17.577455 3.4225454 18.875 5 18.875 L 6 18.875 C 7.5774546 18.875 8.875 17.577455 8.875 16 L 8.875 13 C 8.875 11.422545 7.5774546 10.125 6 10.125 L 4.0507812 10.125 C 4.5051257 6.0622739 7.8130673 2.875 12 2.875 C 16.186933 2.875 19.494874 6.0622739 19.949219 10.125 L 18 10.125 C 16.422545 10.125 15.125 11.422545 15.125 13 L 15.125 16 C 15.125 17.577455 16.422545 18.875 18 18.875 L 19 18.875 C 19.371089 18.875 19.725874 18.80224 20.052734 18.671875 C 19.748072 20.080612 18.504992 21.125 17 21.125 L 12 21.125 A 0.875 0.875 0 0 0 11.125 22 A 0.875 0.875 0 0 0 12 22.875 L 17 22.875 C 19.682024 22.875 21.875 20.682024 21.875 18 L 21.875 16 L 21.875 11 C 21.875 5.5565491 17.443447 1.125 12 1.125 z M 3.875 11.875 L 6 11.875 C 6.6316844 11.875 7.125 12.368316 7.125 13 L 7.125 16 C 7.125 16.631684 6.6316844 17.125 6 17.125 L 5 17.125 C 4.3683156 17.125 3.875 16.631684 3.875 16 L 3.875 11.875 z M 18 11.875 L 20.125 11.875 L 20.125 16 C 20.125 16.631684 19.631684 17.125 19 17.125 L 18 17.125 C 17.368316 17.125 16.875 16.631684 16.875 16 L 16.875 13 C 16.875 12.368316 17.368316 11.875 18 11.875 z " />
</svg>
