<?xml version="1.0" encoding="UTF-8" standalone="no"?>
<svg
   width="24"
   height="24"
   viewBox="0 0 24 24"
   fill="none"
   stroke="currentColor"
   stroke-width="1.75"
   stroke-linecap="round"
   stroke-linejoin="round"
   version="1.1"
   id="svg9"
   sodipodi:docname=".tmp_hop-off.svg"
   xmlns:inkscape="http://www.inkscape.org/namespaces/inkscape"
   xmlns:sodipodi="http://sodipodi.sourceforge.net/DTD/sodipodi-0.dtd"
   xmlns="http://www.w3.org/2000/svg"
   xmlns:svg="http://www.w3.org/2000/svg">
  <defs
     id="defs9" />
  <sodipodi:namedview
     id="namedview9"
     pagecolor="#ffffff"
     bordercolor="#000000"
     borderopacity="0.25"
     inkscape:showpageshadow="2"
     inkscape:pageopacity="0.0"
     inkscape:pagecheckerboard="0"
     inkscape:deskcolor="#d1d1d1" />
  <path
     id="path1"
     style="baseline-shift:baseline;display:inline;overflow:visible;vector-effect:none;fill:#000000;stroke:none;stroke-linecap:butt;stroke-linejoin:miter;enable-background:accumulate;stop-color:#000000;stop-opacity:1;opacity:1"
     d="M 11.916016 1.1191406 C 11.558879 1.1214948 11.200603 1.1419375 10.84375 1.1796875 C 9.8921432 1.2803542 8.946489 1.5074882 8.03125 1.8652344 A 0.875 0.875 0 0 0 7.5351562 2.9980469 A 0.875 0.875 0 0 0 8.6679688 3.4941406 C 11.600111 2.3480328 14.878786 2.8418865 17.392578 4.7011719 C 16.006107 5.1494414 13.643744 5.5446331 12.105469 5.6054688 A 0.875 0.875 0 0 0 11.265625 6.5136719 A 0.875 0.875 0 0 0 12.173828 7.3535156 C 13.760043 7.2907842 16.011285 7.0288713 17.712891 6.5234375 C 18.701764 7.6682163 19.546125 8.9323144 20.255859 10.269531 C 19.207086 10.346931 18.010074 10.288551 16.726562 10.041016 A 0.875 0.875 0 0 0 15.701172 10.734375 A 0.875 0.875 0 0 0 16.394531 11.759766 C 17.66721 12.005211 18.890625 12.099894 20.017578 12.050781 C 20.359326 12.847636 20.888867 14.199408 21.066406 15.300781 A 0.875 0.875 0 0 0 20.912109 16.46875 A 0.875 0.875 0 0 0 22.128906 16.6875 C 22.648663 16.32593 22.886703 15.703986 22.806641 15.103516 A 0.8750875 0.8750875 0 0 0 22.804688 15.087891 C 22.596162 13.719959 22.037264 12.294051 21.664062 11.435547 C 22.067747 10.961271 22.215755 10.273751 21.935547 9.6582031 A 0.8750875 0.8750875 0 0 0 21.916016 9.6171875 C 21.17917 8.1966054 20.288394 6.8619763 19.259766 5.6386719 C 19.393127 5.4344555 19.478405 5.2037829 19.498047 4.9707031 C 19.543001 4.4372418 19.299226 3.922411 18.884766 3.5839844 C 16.889826 1.9487125 14.41597 1.1026617 11.916016 1.1191406 z M 2 1.125 A 0.875 0.875 0 0 0 1.3808594 1.3808594 A 0.875 0.875 0 0 0 1.3808594 2.6191406 L 3.7167969 4.9550781 C 0.34541962 8.9159908 0.23913097 14.79277 3.5820312 18.882812 C 3.920428 19.298558 4.4363352 19.543078 4.9707031 19.498047 C 5.2054505 19.478265 5.4372899 19.392828 5.6425781 19.257812 C 6.7414352 20.1811 8.2320463 21.282564 9.6542969 21.935547 A 0.8750875 0.8750875 0 0 0 9.6582031 21.935547 C 10.273721 22.215741 10.961273 22.067703 11.435547 21.664062 C 12.294042 22.037264 13.719918 22.596155 15.087891 22.804688 A 0.8750875 0.8750875 0 0 0 15.107422 22.808594 C 15.706236 22.8867 16.300196 22.612769 16.658203 22.150391 C 18.238709 22.616769 19.890045 22.77008 20.9375 22.832031 C 21.153293 22.847628 21.367138 22.823825 21.570312 22.763672 A 0.875 0.875 0 0 0 22.619141 22.619141 A 0.875 0.875 0 0 0 22.619141 21.380859 L 22.324219 21.085938 A 0.875 0.875 0 0 0 22.320312 21.082031 A 0.875 0.875 0 0 0 22.3125 21.074219 L 17.300781 16.064453 L 5.5488281 4.3105469 L 2.6191406 1.3808594 A 0.875 0.875 0 0 0 2 1.125 z M 4.9589844 6.1972656 L 10.089844 11.328125 C 8.9122077 11.301436 7.7496311 10.99578 6.7792969 10.669922 A 0.8750875 0.8750875 0 0 0 5.625 11.5 C 5.625 12.888854 5.2443097 15.799886 4.7304688 17.394531 C 2.2283042 14.013907 2.3116418 9.4082701 4.9589844 6.1972656 z M 7.2890625 12.605469 C 7.8137428 12.750751 8.3695206 12.88504 8.9550781 12.972656 C 9.9965926 15.640267 10.419775 18.246356 10.269531 20.265625 C 9.0487758 19.678619 7.5408488 18.568457 6.5273438 17.708984 C 6.9947778 16.132666 7.2102627 14.155531 7.2890625 12.605469 z M 11.705078 12.943359 L 14.765625 16.003906 C 13.755182 15.906321 12.563958 15.731881 11.564453 15.439453 C 11.379379 14.657384 11.143245 13.859804 10.857422 13.056641 C 11.071379 13.041754 11.288 13.018715 11.507812 12.984375 C 11.574659 12.974609 11.640257 12.960628 11.705078 12.943359 z M 11.917969 17.341797 C 12.95809 17.578464 14.018058 17.706179 14.902344 17.777344 C 15.083575 18.686451 15.287473 20.01149 15.232422 21.033203 C 14.146268 20.842795 12.831394 20.341462 12.050781 20.013672 C 12.087041 19.169909 12.042514 18.273239 11.917969 17.341797 z M 16.738281 17.976562 L 19.728516 20.966797 C 18.873735 20.864237 17.894908 20.695704 17.015625 20.427734 C 16.998661 19.558522 16.873732 18.691681 16.738281 17.976562 z " />
</svg>
