<?xml version="1.0" encoding="UTF-8" standalone="no"?>
<svg
   width="24"
   height="24"
   viewBox="0 0 24 24"
   fill="none"
   stroke="currentColor"
   stroke-width="1.75"
   stroke-linecap="round"
   stroke-linejoin="round"
   version="1.1"
   id="svg4"
   sodipodi:docname=".tmp_house-plus.svg"
   xmlns:inkscape="http://www.inkscape.org/namespaces/inkscape"
   xmlns:sodipodi="http://sodipodi.sourceforge.net/DTD/sodipodi-0.dtd"
   xmlns="http://www.w3.org/2000/svg"
   xmlns:svg="http://www.w3.org/2000/svg">
  <defs
     id="defs4" />
  <sodipodi:namedview
     id="namedview4"
     pagecolor="#ffffff"
     bordercolor="#000000"
     borderopacity="0.25"
     inkscape:showpageshadow="2"
     inkscape:pageopacity="0.0"
     inkscape:pagecheckerboard="0"
     inkscape:deskcolor="#d1d1d1" />
  <path
     id="path1"
     style="baseline-shift:baseline;display:inline;overflow:visible;vector-effect:none;fill:#000000;stroke:none;stroke-linecap:butt;stroke-linejoin:miter;enable-background:accumulate;stop-color:#000000;stop-opacity:1;opacity:1"
     d="M 12 1.1269531 C 11.33943 1.1269531 10.679719 1.3507103 10.146484 1.8007812 A 0.8750875 0.8750875 0 0 0 10.140625 1.8046875 L 3.1464844 7.8007812 C 2.4990812 8.3472144 2.1243077 9.1528167 2.125 10 L 2.125 19 C 2.125 20.577455 3.4225454 21.875 5 21.875 L 12.349609 21.875 A 0.875 0.875 0 0 0 13.224609 21 A 0.875 0.875 0 0 0 12.349609 20.125 L 9.875 20.125 L 9.875 13 C 9.875 12.9206 9.9206 12.875 10 12.875 L 14 12.875 C 14.04011 12.875 14.075539 12.893691 14.099609 12.925781 A 0.875 0.875 0 0 0 15.324219 13.099609 A 0.875 0.875 0 0 0 15.5 11.875 C 15.146358 11.403478 14.589403 11.125 14 11.125 L 10 11.125 C 8.9748301 11.125 8.125 11.97483 8.125 13 L 8.125 20.125 L 5 20.125 C 4.3683156 20.125 3.875 19.631684 3.875 19 L 3.875 10 C 3.8747285 9.6677131 4.0195094 9.3529969 4.2734375 9.1386719 A 0.8750875 0.8750875 0 0 0 4.2792969 9.1347656 L 11.275391 3.1386719 C 11.698432 2.7828116 12.301568 2.7828116 12.724609 3.1386719 L 12.726562 3.1386719 L 19.720703 9.1347656 A 0.8750875 0.8750875 0 0 0 19.726562 9.1386719 C 19.980404 9.3529932 20.125272 9.6677131 20.125 10 L 20.125 12.349609 A 0.875 0.875 0 0 0 21 13.224609 A 0.875 0.875 0 0 0 21.875 12.349609 L 21.875 10 C 21.875692 9.1528167 21.500919 8.3472144 20.853516 7.8007812 L 13.859375 1.8046875 A 0.8750875 0.8750875 0 0 0 13.853516 1.8007812 C 13.320322 1.3507141 12.66057 1.1269531 12 1.1269531 z M 18 14.125 A 0.875 0.875 0 0 0 17.125 15 L 17.125 17.125 L 15 17.125 A 0.875 0.875 0 0 0 14.125 18 A 0.875 0.875 0 0 0 15 18.875 L 17.125 18.875 L 17.125 21 A 0.875 0.875 0 0 0 18 21.875 A 0.875 0.875 0 0 0 18.875 21 L 18.875 18.875 L 21 18.875 A 0.875 0.875 0 0 0 21.875 18 A 0.875 0.875 0 0 0 21 17.125 L 18.875 17.125 L 18.875 15 A 0.875 0.875 0 0 0 18 14.125 z " />
</svg>
