<?xml version="1.0" encoding="UTF-8" standalone="no"?>
<svg
   width="24"
   height="24"
   viewBox="0 0 24 24"
   fill="none"
   stroke="currentColor"
   stroke-width="1.75"
   stroke-linecap="round"
   stroke-linejoin="round"
   version="1.1"
   id="svg4"
   sodipodi:docname=".tmp_house-wifi.svg"
   xmlns:inkscape="http://www.inkscape.org/namespaces/inkscape"
   xmlns:sodipodi="http://sodipodi.sourceforge.net/DTD/sodipodi-0.dtd"
   xmlns="http://www.w3.org/2000/svg"
   xmlns:svg="http://www.w3.org/2000/svg">
  <defs
     id="defs4" />
  <sodipodi:namedview
     id="namedview4"
     pagecolor="#ffffff"
     bordercolor="#000000"
     borderopacity="0.25"
     inkscape:showpageshadow="2"
     inkscape:pageopacity="0.0"
     inkscape:pagecheckerboard="0"
     inkscape:deskcolor="#d1d1d1" />
  <path
     id="path1"
     style="baseline-shift:baseline;display:inline;overflow:visible;vector-effect:none;fill:#000000;stroke:none;stroke-linecap:butt;stroke-linejoin:miter;enable-background:accumulate;stop-color:#000000;stop-opacity:1;opacity:1"
     d="M 12 1.1269531 C 11.33883 1.1269531 10.678004 1.3518643 10.144531 1.8027344 A 0.8750875 0.8750875 0 0 0 10.138672 1.8085938 L 3.1445312 7.8027344 L 3.1425781 7.8046875 L 3.1386719 7.8085938 C 2.4965108 8.3545483 2.1247979 9.1568518 2.125 10 L 2.125 19 C 2.125 20.577455 3.4225454 21.875 5 21.875 L 19 21.875 C 20.577455 21.875 21.875 20.577455 21.875 19 L 21.875 10 C 21.875202 9.1568518 21.50349 8.354549 20.861328 7.8085938 L 20.857422 7.8046875 L 13.861328 1.8085938 A 0.8750875 0.8750875 0 0 0 13.855469 1.8027344 C 13.322031 1.3518688 12.66117 1.1269531 12 1.1269531 z M 12 2.8710938 C 12.256528 2.8710938 12.512982 2.9623678 12.724609 3.140625 L 12.726562 3.140625 L 19.720703 9.1367188 A 0.8750875 0.8750875 0 0 0 19.726562 9.140625 C 19.979891 9.3547971 20.12508 9.6682016 20.125 10 L 20.125 19 C 20.125 19.631684 19.631684 20.125 19 20.125 L 5 20.125 C 4.3683156 20.125 3.875 19.631684 3.875 19 L 3.875 10 C 3.8749205 9.6682016 4.020023 9.3548009 4.2734375 9.140625 A 0.8750875 0.8750875 0 0 0 4.2792969 9.1367188 L 11.275391 3.140625 C 11.487018 2.9623679 11.743472 2.8710938 12 2.8710938 z M 12 8.1269531 C 10.036183 8.1269531 8.0723663 8.7738814 6.453125 10.070312 A 0.875 0.875 0 0 0 6.3164062 11.300781 A 0.875 0.875 0 0 0 7.546875 11.4375 C 10.153717 9.3503558 13.846283 9.3503558 16.453125 11.4375 A 0.875 0.875 0 0 0 17.683594 11.300781 A 0.875 0.875 0 0 0 17.546875 10.070312 C 15.927634 8.7738814 13.963817 8.1269531 12 8.1269531 z M 12.003906 12.121094 C 10.924756 12.118894 9.845076 12.471986 8.9550781 13.181641 A 0.875 0.875 0 0 0 8.8164062 14.412109 A 0.875 0.875 0 0 0 10.044922 14.550781 C 11.192266 13.635927 12.807496 13.639171 13.951172 14.558594 A 0.875 0.875 0 0 0 15.181641 14.423828 A 0.875 0.875 0 0 0 15.048828 13.193359 C 14.161676 12.480163 13.083056 12.123252 12.003906 12.121094 z M 12 16.125 A 0.875 0.875 0 0 0 11.125 17 A 0.875 0.875 0 0 0 12 17.875 L 12.009766 17.875 A 0.875 0.875 0 0 0 12.884766 17 A 0.875 0.875 0 0 0 12.009766 16.125 L 12 16.125 z " />
</svg>
