<?xml version="1.0" encoding="UTF-8" standalone="no"?>
<svg
   width="24"
   height="24"
   viewBox="0 0 24 24"
   fill="none"
   stroke="currentColor"
   stroke-width="1.75"
   stroke-linecap="round"
   stroke-linejoin="round"
   version="1.1"
   id="svg4"
   sodipodi:docname=".tmp_id-card-lanyard.svg"
   xmlns:inkscape="http://www.inkscape.org/namespaces/inkscape"
   xmlns:sodipodi="http://sodipodi.sourceforge.net/DTD/sodipodi-0.dtd"
   xmlns="http://www.w3.org/2000/svg"
   xmlns:svg="http://www.w3.org/2000/svg">
  <defs
     id="defs4" />
  <sodipodi:namedview
     id="namedview4"
     pagecolor="#ffffff"
     bordercolor="#000000"
     borderopacity="0.25"
     inkscape:showpageshadow="2"
     inkscape:pageopacity="0.0"
     inkscape:pagecheckerboard="0"
     inkscape:deskcolor="#d1d1d1" />
  <path
     id="path1"
     style="baseline-shift:baseline;display:inline;overflow:visible;vector-effect:none;fill:#000000;stroke:none;stroke-linecap:butt;stroke-linejoin:miter;enable-background:accumulate;stop-color:#000000;stop-opacity:1;opacity:1"
     d="M 8.9394531 1.1269531 A 0.875 0.875 0 0 0 8.609375 1.2167969 A 0.875 0.875 0 0 0 8.2167969 2.390625 L 8.5839844 3.125 L 7 3.125 C 5.4225454 3.125 4.125 4.4225454 4.125 6 L 4.125 20 C 4.125 21.577455 5.4225454 22.875 7 22.875 L 17 22.875 C 18.577455 22.875 19.875 21.577455 19.875 20 L 19.875 6 C 19.875 4.4225454 18.577455 3.125 17 3.125 L 15.416016 3.125 L 15.783203 2.390625 A 0.875 0.875 0 0 0 15.390625 1.2167969 A 0.875 0.875 0 0 0 14.722656 1.1699219 A 0.875 0.875 0 0 0 14.216797 1.609375 L 13.216797 3.609375 A 0.8750875 0.8750875 0 0 0 14 4.875 L 17 4.875 C 17.631684 4.875 18.125 5.3683156 18.125 6 L 18.125 20 C 18.125 20.43937 17.887183 20.812002 17.529297 20.998047 C 17.000924 19.489499 15.951292 18.401688 14.703125 17.769531 C 15.425136 17.064502 15.875 16.081589 15.875 15 C 15.875 12.870261 14.129739 11.125 12 11.125 C 9.8702607 11.125 8.125 12.870261 8.125 15 C 8.125 16.081488 8.5749816 17.064516 9.296875 17.769531 C 8.0482792 18.401542 6.999407 19.487824 6.4707031 20.996094 C 6.1137118 20.80977 5.875 20.438711 5.875 20 L 5.875 6 C 5.875 5.3683156 6.3683156 4.875 7 4.875 L 9.4589844 4.875 L 10.583984 7.125 L 10.5 7.125 A 0.875 0.875 0 0 0 9.625 8 A 0.875 0.875 0 0 0 10.5 8.875 L 13.5 8.875 A 0.875 0.875 0 0 0 14.375 8 A 0.875 0.875 0 0 0 13.5 7.125 L 12.541016 7.125 L 9.7832031 1.609375 A 0.875 0.875 0 0 0 9.2773438 1.1699219 A 0.875 0.875 0 0 0 8.9394531 1.1269531 z M 12 12.875 C 13.183969 12.875 14.125 13.816031 14.125 15 C 14.125 16.157375 13.22644 17.082066 12.080078 17.123047 C 12.053604 17.122689 12.026463 17.123047 12 17.123047 C 11.973537 17.123047 11.946396 17.122689 11.919922 17.123047 C 10.77356 17.082066 9.875 16.157375 9.875 15 C 9.875 13.816031 10.816031 12.875 12 12.875 z M 11.908203 18.873047 C 11.938722 18.873767 11.969317 18.875 12 18.875 C 12.030682 18.875 12.061278 18.873767 12.091797 18.873047 C 13.571938 18.901151 14.996384 19.611554 15.701172 21.125 L 8.296875 21.125 C 9.0021101 19.611554 10.428009 18.90115 11.908203 18.873047 z " />
</svg>
