<?xml version="1.0" encoding="UTF-8" standalone="no"?>
<svg
   width="24"
   height="24"
   viewBox="0 0 24 24"
   fill="none"
   stroke="currentColor"
   stroke-width="1.75"
   stroke-linecap="round"
   stroke-linejoin="round"
   version="1.1"
   id="svg4"
   sodipodi:docname=".tmp_kayak.svg"
   xmlns:inkscape="http://www.inkscape.org/namespaces/inkscape"
   xmlns:sodipodi="http://sodipodi.sourceforge.net/DTD/sodipodi-0.dtd"
   xmlns="http://www.w3.org/2000/svg"
   xmlns:svg="http://www.w3.org/2000/svg">
  <defs
     id="defs4" />
  <sodipodi:namedview
     id="namedview4"
     pagecolor="#ffffff"
     bordercolor="#000000"
     borderopacity="0.25"
     inkscape:showpageshadow="2"
     inkscape:pageopacity="0.0"
     inkscape:pagecheckerboard="0"
     inkscape:deskcolor="#d1d1d1" />
  <path
     id="path1"
     style="baseline-shift:baseline;display:inline;overflow:visible;vector-effect:none;fill:#000000;stroke:none;stroke-linecap:butt;stroke-linejoin:miter;enable-background:accumulate;stop-color:#000000;stop-opacity:1;opacity:1"
     d="M 4.90625 2.1289062 C 4.7684839 2.1333725 4.629574 2.1475774 4.4921875 2.171875 C 3.9426416 2.2690652 3.4064347 2.5271591 2.9667969 2.9667969 C 2.0875213 3.8460725 1.9335432 5.1091537 2.34375 6.0996094 C 2.7539568 7.090065 3.7564214 7.875 5 7.875 L 6 7.875 C 6.1916126 7.875 6.3777768 7.8459885 6.5527344 7.7910156 L 8.0058594 9.2441406 C 5.5859803 11.905335 3.880068 15.331009 2.2128906 20.085938 C 2.0265884 20.587335 2.1779116 21.150568 2.5136719 21.486328 C 2.8494317 21.822088 3.4126659 21.973412 3.9140625 21.787109 C 8.6689915 20.119932 12.094665 18.41402 14.755859 15.994141 L 16.208984 17.447266 C 16.154011 17.622223 16.125 17.808387 16.125 18 L 16.125 19 C 16.125 20.243579 16.909935 21.246043 17.900391 21.65625 C 18.890846 22.066457 20.153928 21.912479 21.033203 21.033203 C 21.912479 20.153928 22.066457 18.890846 21.65625 17.900391 C 21.246043 16.909935 20.243579 16.125 19 16.125 L 18 16.125 C 17.808387 16.125 17.622223 16.154011 17.447266 16.208984 L 15.994141 14.755859 C 18.412718 12.09616 20.118922 8.6723993 21.785156 3.921875 A 0.875 0.875 0 0 0 21.789062 3.9199219 L 21.789062 3.9179688 L 21.787109 3.9179688 L 21.787109 3.9160156 L 21.787109 3.9140625 C 21.789309 3.9078525 21.792722 3.9046525 21.794922 3.8984375 A 0.875 0.875 0 0 0 21.775391 3.859375 C 21.929002 3.3734573 21.808977 2.8363211 21.486328 2.5136719 C 21.150568 2.1779121 20.587334 2.0265884 20.085938 2.2128906 C 15.331009 3.880068 11.905335 5.5859803 9.2441406 8.0058594 L 7.7910156 6.5527344 C 7.8459885 6.3777768 7.875 6.1916126 7.875 6 L 7.875 5 C 7.875 3.7564214 7.090065 2.7539568 6.0996094 2.34375 C 5.7281884 2.1899225 5.3195483 2.1155076 4.90625 2.1289062 z M 4.9667969 3.8652344 C 5.1234629 3.8642759 5.2790691 3.8985575 5.4296875 3.9609375 C 5.8313365 4.1272843 6.125 4.461645 6.125 5 L 6.125 6 C 6.125 6.025217 6.1201491 6.0464327 6.1113281 6.0644531 A 0.875 0.875 0 0 0 6.0878906 6.0878906 A 0.875 0.875 0 0 0 6.0644531 6.1113281 C 6.0464327 6.1201491 6.025217 6.125 6 6.125 L 5 6.125 C 4.461645 6.125 4.1272843 5.8313365 3.9609375 5.4296875 C 3.7945907 5.0280385 3.8244891 4.5856671 4.2050781 4.2050781 C 4.4429463 3.96721 4.7056868 3.8668319 4.9667969 3.8652344 z M 19.744141 4.2558594 C 18.254291 8.2980671 16.754935 11.275514 14.755859 13.517578 L 10.482422 9.2441406 C 12.724485 7.2450659 15.701933 5.7457087 19.744141 4.2558594 z M 9.2441406 10.482422 L 13.517578 14.755859 C 11.275515 16.754933 8.2980652 18.254292 4.2558594 19.744141 C 5.745706 15.701933 7.2450659 12.724485 9.2441406 10.482422 z M 17.982422 17.875 C 17.988294 17.874431 17.993696 17.875 18 17.875 L 19 17.875 C 19.538355 17.875 19.872716 18.168663 20.039062 18.570312 C 20.205409 18.971963 20.175511 19.414333 19.794922 19.794922 C 19.414333 20.175511 18.971963 20.205409 18.570312 20.039062 C 18.168663 19.872716 17.875 19.538355 17.875 19 L 17.875 18 C 17.875 17.974782 17.87985 17.953568 17.888672 17.935547 A 0.875 0.875 0 0 0 17.912109 17.912109 A 0.875 0.875 0 0 0 17.935547 17.888672 C 17.949062 17.882056 17.964805 17.876707 17.982422 17.875 z " />
</svg>
