<?xml version="1.0" encoding="UTF-8" standalone="no"?>
<svg
   width="24"
   height="24"
   viewBox="0 0 24 24"
   fill="none"
   stroke="currentColor"
   stroke-width="1.75"
   stroke-linecap="round"
   stroke-linejoin="round"
   version="1.1"
   id="svg2"
   sodipodi:docname=".tmp_key.svg"
   xmlns:inkscape="http://www.inkscape.org/namespaces/inkscape"
   xmlns:sodipodi="http://sodipodi.sourceforge.net/DTD/sodipodi-0.dtd"
   xmlns="http://www.w3.org/2000/svg"
   xmlns:svg="http://www.w3.org/2000/svg">
  <defs
     id="defs2" />
  <sodipodi:namedview
     id="namedview2"
     pagecolor="#ffffff"
     bordercolor="#000000"
     borderopacity="0.25"
     inkscape:showpageshadow="2"
     inkscape:pageopacity="0.0"
     inkscape:pagecheckerboard="0"
     inkscape:deskcolor="#d1d1d1" />
  <path
     id="path1"
     style="baseline-shift:baseline;display:inline;overflow:visible;vector-effect:none;fill:#000000;stroke:none;stroke-linecap:butt;stroke-linejoin:miter;enable-background:accumulate;stop-color:#000000;stop-opacity:1;opacity:1"
     d="M 21 1.125 A 0.875 0.875 0 0 0 20.380859 1.3808594 L 14.882812 6.8789062 A 0.875 0.875 0 0 0 14.880859 6.8808594 A 0.875 0.875 0 0 0 14.878906 6.8828125 L 11.341797 10.419922 C 10.272012 9.6082558 8.9407714 9.125 7.5 9.125 C 3.9895488 9.125 1.125 11.989549 1.125 15.5 C 1.125 19.010451 3.9895488 21.875 7.5 21.875 C 11.010451 21.875 13.875 19.010451 13.875 15.5 C 13.875 14.059229 13.391744 12.727988 12.580078 11.658203 L 15.5 8.7382812 L 17.181641 10.417969 A 0.8750875 0.8750875 0 0 0 17.1875 10.425781 C 17.909631 11.133611 19.090369 11.133611 19.8125 10.425781 A 0.8750875 0.8750875 0 0 0 19.818359 10.417969 L 21.917969 8.3183594 A 0.8750875 0.8750875 0 0 0 21.925781 8.3125 C 22.633611 7.590369 22.633611 6.409631 21.925781 5.6875 A 0.8750875 0.8750875 0 0 0 21.917969 5.6816406 L 20.238281 4 L 21.619141 2.6191406 A 0.875 0.875 0 0 0 21.619141 1.3808594 A 0.875 0.875 0 0 0 21 1.125 z M 19 5.2382812 L 20.675781 6.9121094 C 20.730241 6.9676654 20.730241 7.0323346 20.675781 7.0878906 L 18.587891 9.1757812 C 18.532331 9.2302373 18.467665 9.2302372 18.412109 9.1757812 L 16.738281 7.5 L 19 5.2382812 z M 7.5 10.875 C 10.064681 10.875 12.125 12.935319 12.125 15.5 C 12.125 18.064681 10.064681 20.125 7.5 20.125 C 4.935319 20.125 2.875 18.064681 2.875 15.5 C 2.875 12.935319 4.935319 10.875 7.5 10.875 z " />
</svg>
