<?xml version="1.0" encoding="UTF-8" standalone="no"?>
<svg
   width="24"
   height="24"
   viewBox="0 0 24 24"
   fill="none"
   stroke="currentColor"
   stroke-width="1.75"
   stroke-linecap="round"
   stroke-linejoin="round"
   version="1.1"
   id="svg8"
   sodipodi:docname=".tmp_keyboard.svg"
   xmlns:inkscape="http://www.inkscape.org/namespaces/inkscape"
   xmlns:sodipodi="http://sodipodi.sourceforge.net/DTD/sodipodi-0.dtd"
   xmlns="http://www.w3.org/2000/svg"
   xmlns:svg="http://www.w3.org/2000/svg">
  <defs
     id="defs8" />
  <sodipodi:namedview
     id="namedview8"
     pagecolor="#ffffff"
     bordercolor="#000000"
     borderopacity="0.25"
     inkscape:showpageshadow="2"
     inkscape:pageopacity="0.0"
     inkscape:pagecheckerboard="0"
     inkscape:deskcolor="#d1d1d1" />
  <path
     id="path1"
     style="baseline-shift:baseline;display:inline;overflow:visible;vector-effect:none;fill:#000000;stroke:none;stroke-linecap:butt;stroke-linejoin:miter;enable-background:accumulate;stop-color:#000000;stop-opacity:1;opacity:1"
     d="M 4 3.125 C 2.4223851 3.125 1.125 4.4223851 1.125 6 L 1.125 18 C 1.125 19.577615 2.4223851 20.875 4 20.875 L 20 20.875 C 21.577615 20.875 22.875 19.577615 22.875 18 L 22.875 6 C 22.875 4.4223851 21.577615 3.125 20 3.125 L 4 3.125 z M 4 4.875 L 20 4.875 C 20.638385 4.875 21.125 5.3616149 21.125 6 L 21.125 18 C 21.125 18.638385 20.638385 19.125 20 19.125 L 4 19.125 C 3.3616149 19.125 2.875 18.638385 2.875 18 L 2.875 6 C 2.875 5.3616149 3.3616149 4.875 4 4.875 z M 6 7.125 A 0.875 0.875 0 0 0 5.125 8 A 0.875 0.875 0 0 0 6 8.875 L 6.0097656 8.875 A 0.875 0.875 0 0 0 6.8847656 8 A 0.875 0.875 0 0 0 6.0097656 7.125 L 6 7.125 z M 10 7.125 A 0.875 0.875 0 0 0 9.125 8 A 0.875 0.875 0 0 0 10 8.875 L 10.009766 8.875 A 0.875 0.875 0 0 0 10.884766 8 A 0.875 0.875 0 0 0 10.009766 7.125 L 10 7.125 z M 14 7.125 A 0.875 0.875 0 0 0 13.125 8 A 0.875 0.875 0 0 0 14 8.875 L 14.009766 8.875 A 0.875 0.875 0 0 0 14.884766 8 A 0.875 0.875 0 0 0 14.009766 7.125 L 14 7.125 z M 18 7.125 A 0.875 0.875 0 0 0 17.125 8 A 0.875 0.875 0 0 0 18 8.875 L 18.009766 8.875 A 0.875 0.875 0 0 0 18.884766 8 A 0.875 0.875 0 0 0 18.009766 7.125 L 18 7.125 z M 8 11.125 A 0.875 0.875 0 0 0 7.125 12 A 0.875 0.875 0 0 0 8 12.875 L 8.0097656 12.875 A 0.875 0.875 0 0 0 8.8847656 12 A 0.875 0.875 0 0 0 8.0097656 11.125 L 8 11.125 z M 12 11.125 A 0.875 0.875 0 0 0 11.125 12 A 0.875 0.875 0 0 0 12 12.875 L 12.009766 12.875 A 0.875 0.875 0 0 0 12.884766 12 A 0.875 0.875 0 0 0 12.009766 11.125 L 12 11.125 z M 16 11.125 A 0.875 0.875 0 0 0 15.125 12 A 0.875 0.875 0 0 0 16 12.875 L 16.009766 12.875 A 0.875 0.875 0 0 0 16.884766 12 A 0.875 0.875 0 0 0 16.009766 11.125 L 16 11.125 z M 7 15.125 A 0.875 0.875 0 0 0 6.125 16 A 0.875 0.875 0 0 0 7 16.875 L 17 16.875 A 0.875 0.875 0 0 0 17.875 16 A 0.875 0.875 0 0 0 17 15.125 L 7 15.125 z " />
</svg>
