<?xml version="1.0" encoding="UTF-8" standalone="no"?>
<svg
   width="24"
   height="24"
   viewBox="0 0 24 24"
   fill="none"
   stroke="currentColor"
   stroke-width="1.75"
   stroke-linecap="round"
   stroke-linejoin="round"
   version="1.1"
   id="svg4"
   sodipodi:docname=".tmp_library.svg"
   xmlns:inkscape="http://www.inkscape.org/namespaces/inkscape"
   xmlns:sodipodi="http://sodipodi.sourceforge.net/DTD/sodipodi-0.dtd"
   xmlns="http://www.w3.org/2000/svg"
   xmlns:svg="http://www.w3.org/2000/svg">
  <defs
     id="defs4" />
  <sodipodi:namedview
     id="namedview4"
     pagecolor="#ffffff"
     bordercolor="#000000"
     borderopacity="0.25"
     inkscape:showpageshadow="2"
     inkscape:pageopacity="0.0"
     inkscape:pagecheckerboard="0"
     inkscape:deskcolor="#d1d1d1" />
  <path
     id="path1"
     style="baseline-shift:baseline;display:inline;overflow:visible;vector-effect:none;fill:#000000;stroke:none;stroke-linecap:butt;stroke-linejoin:miter;enable-background:accumulate;stop-color:#000000;stop-opacity:1;opacity:1"
     d="M 4 3.125 A 0.875 0.875 0 0 0 3.125 4 L 3.125 20 A 0.875 0.875 0 0 0 4 20.875 A 0.875 0.875 0 0 0 4.875 20 L 4.875 4 A 0.875 0.875 0 0 0 4 3.125 z M 12 5.125 A 0.875 0.875 0 0 0 11.125 6 L 11.125 20 A 0.875 0.875 0 0 0 12 20.875 A 0.875 0.875 0 0 0 12.875 20 L 12.875 6 A 0.875 0.875 0 0 0 12 5.125 z M 15.986328 5.125 A 0.875 0.875 0 0 0 15.759766 5.1582031 A 0.875 0.875 0 0 0 15.158203 6.2402344 L 19.158203 20.240234 A 0.875 0.875 0 0 0 20.240234 20.841797 A 0.875 0.875 0 0 0 20.841797 19.759766 L 16.841797 5.7597656 A 0.875 0.875 0 0 0 15.986328 5.125 z M 8 7.125 A 0.875 0.875 0 0 0 7.125 8 L 7.125 20 A 0.875 0.875 0 0 0 8 20.875 A 0.875 0.875 0 0 0 8.875 20 L 8.875 8 A 0.875 0.875 0 0 0 8 7.125 z " />
</svg>
