<?xml version="1.0" encoding="UTF-8" standalone="no"?>
<svg
   width="24"
   height="24"
   viewBox="0 0 24 24"
   fill="none"
   stroke="currentColor"
   stroke-width="1.75"
   stroke-linecap="round"
   stroke-linejoin="round"
   version="1.1"
   id="svg4"
   sodipodi:docname=".tmp_life-buoy.svg"
   xmlns:inkscape="http://www.inkscape.org/namespaces/inkscape"
   xmlns:sodipodi="http://sodipodi.sourceforge.net/DTD/sodipodi-0.dtd"
   xmlns="http://www.w3.org/2000/svg"
   xmlns:svg="http://www.w3.org/2000/svg">
  <defs
     id="defs4" />
  <sodipodi:namedview
     id="namedview4"
     pagecolor="#ffffff"
     bordercolor="#000000"
     borderopacity="0.25"
     inkscape:showpageshadow="2"
     inkscape:pageopacity="0.0"
     inkscape:pagecheckerboard="0"
     inkscape:deskcolor="#d1d1d1" />
  <path
     id="circle1"
     style="baseline-shift:baseline;display:inline;overflow:visible;vector-effect:none;fill:#000000;stroke:none;stroke-linecap:butt;stroke-linejoin:miter;enable-background:accumulate;stop-color:#000000;stop-opacity:1;opacity:1"
     d="M 12 1.125 C 9.0373836 1.125 6.348247 2.3154947 4.3847656 4.2441406 A 0.875 0.875 0 0 0 4.3105469 4.3105469 A 0.875 0.875 0 0 0 4.2441406 4.3847656 C 2.3154947 6.348247 1.125 9.0373836 1.125 12 C 1.125 14.962617 2.315494 17.651753 4.2441406 19.615234 A 0.875 0.875 0 0 0 4.3105469 19.689453 A 0.875 0.875 0 0 0 4.3847656 19.755859 C 6.3482471 21.684506 9.0373829 22.875 12 22.875 C 14.962618 22.875 17.651753 21.684507 19.615234 19.755859 A 0.875 0.875 0 0 0 19.689453 19.689453 A 0.875 0.875 0 0 0 19.755859 19.615234 C 21.684507 17.651753 22.875 14.962618 22.875 12 C 22.875 9.0373829 21.684506 6.3482471 19.755859 4.3847656 A 0.875 0.875 0 0 0 19.689453 4.3105469 A 0.875 0.875 0 0 0 19.617188 4.2460938 C 17.653626 2.3169127 14.963082 1.125 12 1.125 z M 12 2.875 C 14.208772 2.875 16.230281 3.6553284 17.806641 4.9550781 L 14.769531 7.9921875 C 13.981896 7.4453717 13.026367 7.125 12 7.125 C 10.973633 7.125 10.018104 7.4453718 9.2304688 7.9921875 L 6.1933594 4.9550781 C 7.7697186 3.6553285 9.791228 2.875 12 2.875 z M 4.9550781 6.1933594 L 7.9921875 9.2304688 C 7.4453718 10.018104 7.125 10.973633 7.125 12 C 7.125 13.026367 7.4453717 13.981896 7.9921875 14.769531 L 4.9550781 17.806641 C 3.6553284 16.230281 2.875 14.208772 2.875 12 C 2.875 9.791228 3.6553285 7.7697186 4.9550781 6.1933594 z M 19.044922 6.1933594 C 20.344672 7.7697186 21.125 9.791228 21.125 12 C 21.125 14.208772 20.344672 16.230281 19.044922 17.806641 L 16.007812 14.769531 C 16.554628 13.981896 16.875 13.026367 16.875 12 C 16.875 10.973633 16.554628 10.018104 16.007812 9.2304688 L 19.044922 6.1933594 z M 12 8.875 C 12.841989 8.875 13.602318 9.2018874 14.162109 9.7363281 A 0.875 0.875 0 0 0 14.210938 9.7890625 A 0.875 0.875 0 0 0 14.263672 9.8378906 C 14.798112 10.397682 15.125 11.158011 15.125 12 C 15.125 12.84199 14.798114 13.602318 14.263672 14.162109 A 0.875 0.875 0 0 0 14.210938 14.210938 A 0.875 0.875 0 0 0 14.162109 14.263672 C 13.602318 14.798114 12.84199 15.125 12 15.125 C 11.158011 15.125 10.397682 14.798112 9.8378906 14.263672 A 0.875 0.875 0 0 0 9.7890625 14.210938 A 0.875 0.875 0 0 0 9.7363281 14.162109 C 9.2018874 13.602318 8.875 12.841989 8.875 12 C 8.875 11.158012 9.2018889 10.397682 9.7363281 9.8378906 A 0.875 0.875 0 0 0 9.7890625 9.7890625 A 0.875 0.875 0 0 0 9.8378906 9.7363281 C 10.397682 9.2018889 11.158012 8.875 12 8.875 z M 9.2304688 16.007812 C 10.018104 16.554628 10.973633 16.875 12 16.875 C 13.026367 16.875 13.981896 16.554628 14.769531 16.007812 L 17.806641 19.044922 C 16.230281 20.344672 14.208772 21.125 12 21.125 C 9.791228 21.125 7.7697186 20.344672 6.1933594 19.044922 L 9.2304688 16.007812 z " />
</svg>
