<?xml version="1.0" encoding="UTF-8" standalone="no"?>
<svg
   width="24"
   height="24"
   viewBox="0 0 24 24"
   fill="none"
   stroke="currentColor"
   stroke-width="1.75"
   stroke-linecap="round"
   stroke-linejoin="round"
   version="1.1"
   id="svg5"
   sodipodi:docname=".tmp_list-start.svg"
   xmlns:inkscape="http://www.inkscape.org/namespaces/inkscape"
   xmlns:sodipodi="http://sodipodi.sourceforge.net/DTD/sodipodi-0.dtd"
   xmlns="http://www.w3.org/2000/svg"
   xmlns:svg="http://www.w3.org/2000/svg">
  <defs
     id="defs5" />
  <sodipodi:namedview
     id="namedview5"
     pagecolor="#ffffff"
     bordercolor="#000000"
     borderopacity="0.25"
     inkscape:showpageshadow="2"
     inkscape:pageopacity="0.0"
     inkscape:pagecheckerboard="0"
     inkscape:deskcolor="#d1d1d1" />
  <path
     id="path1"
     style="baseline-shift:baseline;display:inline;overflow:visible;vector-effect:none;fill:#000000;stroke:none;stroke-linecap:butt;stroke-linejoin:miter;enable-background:accumulate;stop-color:#000000;stop-opacity:1;opacity:1"
     d="M 16 1.125 A 0.875 0.875 0 0 0 15.380859 1.3808594 L 12.380859 4.3808594 A 0.8750875 0.8750875 0 0 0 12.242188 4.5625 A 0.8750875 0.8750875 0 0 0 12.154297 4.7734375 A 0.8750875 0.8750875 0 0 0 12.125 5 A 0.8750875 0.8750875 0 0 0 12.154297 5.2265625 A 0.8750875 0.8750875 0 0 0 12.242188 5.4375 A 0.8750875 0.8750875 0 0 0 12.380859 5.6191406 L 15.380859 8.6191406 A 0.875 0.875 0 0 0 16.619141 8.6191406 A 0.875 0.875 0 0 0 16.619141 7.3808594 L 15.113281 5.875 L 19 5.875 C 19.631684 5.875 20.125 6.3683156 20.125 7 L 20.125 19 A 0.875 0.875 0 0 0 21 19.875 A 0.875 0.875 0 0 0 21.875 19 L 21.875 7 C 21.875 5.4225454 20.577455 4.125 19 4.125 L 15.113281 4.125 L 16.619141 2.6191406 A 0.875 0.875 0 0 0 16.619141 1.3808594 A 0.875 0.875 0 0 0 16 1.125 z M 3 4.125 A 0.875 0.875 0 0 0 2.125 5 A 0.875 0.875 0 0 0 3 5.875 L 9 5.875 A 0.875 0.875 0 0 0 9.875 5 A 0.875 0.875 0 0 0 9 4.125 L 3 4.125 z M 3 11.125 A 0.875 0.875 0 0 0 2.125 12 A 0.875 0.875 0 0 0 3 12.875 L 16 12.875 A 0.875 0.875 0 0 0 16.875 12 A 0.875 0.875 0 0 0 16 11.125 L 3 11.125 z M 3 18.125 A 0.875 0.875 0 0 0 2.125 19 A 0.875 0.875 0 0 0 3 19.875 L 16 19.875 A 0.875 0.875 0 0 0 16.875 19 A 0.875 0.875 0 0 0 16 18.125 L 3 18.125 z " />
</svg>
