<?xml version="1.0" encoding="UTF-8" standalone="no"?>
<svg
   width="24"
   height="24"
   viewBox="0 0 24 24"
   fill="none"
   stroke="currentColor"
   stroke-width="1.75"
   stroke-linecap="round"
   stroke-linejoin="round"
   version="1.1"
   id="svg4"
   sodipodi:docname=".tmp_list-check.svg"
   xmlns:inkscape="http://www.inkscape.org/namespaces/inkscape"
   xmlns:sodipodi="http://sodipodi.sourceforge.net/DTD/sodipodi-0.dtd"
   xmlns="http://www.w3.org/2000/svg"
   xmlns:svg="http://www.w3.org/2000/svg">
  <defs
     id="defs4" />
  <sodipodi:namedview
     id="namedview4"
     pagecolor="#ffffff"
     bordercolor="#000000"
     borderopacity="0.25"
     inkscape:showpageshadow="2"
     inkscape:pageopacity="0.0"
     inkscape:pagecheckerboard="0"
     inkscape:deskcolor="#d1d1d1" />
  <path
     id="path1"
     style="baseline-shift:baseline;display:inline;overflow:visible;vector-effect:none;fill:#000000;stroke:none;stroke-linecap:butt;stroke-linejoin:miter;enable-background:accumulate;stop-color:#000000;stop-opacity:1;opacity:1"
     d="M 3 4.125 A 0.875 0.875 0 0 0 2.125 5 A 0.875 0.875 0 0 0 3 5.875 L 16 5.875 A 0.875 0.875 0 0 0 16.875 5 A 0.875 0.875 0 0 0 16 4.125 L 3 4.125 z M 3 11.125 A 0.875 0.875 0 0 0 2.125 12 A 0.875 0.875 0 0 0 3 12.875 L 16 12.875 A 0.875 0.875 0 0 0 16.875 12 A 0.875 0.875 0 0 0 16 11.125 L 3 11.125 z M 21 15.125 A 0.875 0.875 0 0 0 20.380859 15.380859 L 17 18.761719 L 15.619141 17.380859 A 0.875 0.875 0 0 0 14.380859 17.380859 A 0.875 0.875 0 0 0 14.380859 18.619141 L 16.380859 20.619141 A 0.8750875 0.8750875 0 0 0 17.619141 20.619141 L 21.619141 16.619141 A 0.875 0.875 0 0 0 21.619141 15.380859 A 0.875 0.875 0 0 0 21 15.125 z M 3 18.125 A 0.875 0.875 0 0 0 2.125 19 A 0.875 0.875 0 0 0 3 19.875 L 11 19.875 A 0.875 0.875 0 0 0 11.875 19 A 0.875 0.875 0 0 0 11 18.125 L 3 18.125 z " />
</svg>
