<?xml version="1.0" encoding="UTF-8" standalone="no"?>
<svg
   width="24"
   height="24"
   viewBox="0 0 24 24"
   fill="none"
   stroke="currentColor"
   stroke-width="1.75"
   stroke-linecap="round"
   stroke-linejoin="round"
   version="1.1"
   id="svg2"
   sodipodi:docname=".tmp_lollipop.svg"
   xmlns:inkscape="http://www.inkscape.org/namespaces/inkscape"
   xmlns:sodipodi="http://sodipodi.sourceforge.net/DTD/sodipodi-0.dtd"
   xmlns="http://www.w3.org/2000/svg"
   xmlns:svg="http://www.w3.org/2000/svg">
  <defs
     id="defs2" />
  <sodipodi:namedview
     id="namedview2"
     pagecolor="#ffffff"
     bordercolor="#000000"
     borderopacity="0.25"
     inkscape:showpageshadow="2"
     inkscape:pageopacity="0.0"
     inkscape:pagecheckerboard="0"
     inkscape:deskcolor="#d1d1d1" />
  <path
     id="circle1"
     style="baseline-shift:baseline;display:inline;overflow:visible;vector-effect:none;fill:#000000;stroke:none;stroke-linecap:butt;stroke-linejoin:miter;enable-background:accumulate;stop-color:#000000;stop-opacity:1;opacity:1"
     d="M 11 2.125 C 6.1088369 2.125 2.125 6.1088369 2.125 11 C 2.125 15.891163 6.1088369 19.875 11 19.875 C 13.131595 19.875 15.090748 19.118001 16.623047 17.859375 L 20.380859 21.619141 A 0.875 0.875 0 0 0 21.619141 21.619141 A 0.875 0.875 0 0 0 21.619141 20.380859 L 17.859375 16.623047 C 19.118001 15.090748 19.875 13.131595 19.875 11 C 19.875 6.1088369 15.891163 2.125 11 2.125 z M 11 3.875 C 14.945393 3.875 18.125 7.0546071 18.125 11 C 18.125 13.840826 15.840824 16.125 13 16.125 C 10.159176 16.125 7.875 13.840826 7.875 11 C 7.875 9.8854173 8.2624403 9.1605996 8.8320312 8.6542969 C 9.4016221 8.1479941 10.194444 7.875 11 7.875 C 11.805556 7.875 12.598378 8.1479941 13.167969 8.6542969 C 13.73756 9.1605996 14.125 9.8854173 14.125 11 C 14.125 11.447916 13.98756 11.672734 13.792969 11.845703 C 13.598378 12.018673 13.305556 12.125 13 12.125 C 12.694444 12.125 12.401622 12.018673 12.207031 11.845703 C 12.01244 11.672734 11.875 11.447916 11.875 11 A 0.875 0.875 0 0 0 11 10.125 A 0.875 0.875 0 0 0 10.125 11 C 10.125 11.885416 10.48756 12.6606 11.042969 13.154297 C 11.598378 13.647994 12.305556 13.875 13 13.875 C 13.694444 13.875 14.401622 13.647994 14.957031 13.154297 C 15.51244 12.6606 15.875 11.885416 15.875 11 C 15.875 9.4479172 15.26244 8.1727331 14.332031 7.3457031 C 13.401622 6.5186731 12.194444 6.125 11 6.125 C 9.8055556 6.125 8.5983779 6.5186731 7.6679688 7.3457031 C 6.7375596 8.1727331 6.125 9.4479172 6.125 11 C 6.125 14.748918 9.151795 17.814384 12.886719 17.875 C 12.286007 18.038616 11.653744 18.125 11 18.125 C 7.0546071 18.125 3.875 14.945393 3.875 11 C 3.875 7.0546071 7.0546071 3.875 11 3.875 z " />
</svg>
