<?xml version="1.0" encoding="UTF-8" standalone="no"?>
<svg
   width="24"
   height="24"
   viewBox="0 0 24 24"
   fill="none"
   stroke="currentColor"
   stroke-width="1.75"
   stroke-linecap="round"
   stroke-linejoin="round"
   version="1.1"
   id="svg4"
   sodipodi:docname=".tmp_mail-search.svg"
   xmlns:inkscape="http://www.inkscape.org/namespaces/inkscape"
   xmlns:sodipodi="http://sodipodi.sourceforge.net/DTD/sodipodi-0.dtd"
   xmlns="http://www.w3.org/2000/svg"
   xmlns:svg="http://www.w3.org/2000/svg">
  <defs
     id="defs4" />
  <sodipodi:namedview
     id="namedview4"
     pagecolor="#ffffff"
     bordercolor="#000000"
     borderopacity="0.25"
     inkscape:showpageshadow="2"
     inkscape:pageopacity="0.0"
     inkscape:pagecheckerboard="0"
     inkscape:deskcolor="#d1d1d1" />
  <path
     id="path1"
     style="baseline-shift:baseline;display:inline;overflow:visible;vector-effect:none;fill:#000000;stroke:none;stroke-linecap:butt;stroke-linejoin:miter;enable-background:accumulate;stop-color:#000000;stop-opacity:1;opacity:1"
     d="M 4 3.125 C 2.4225454 3.125 1.125 4.4225454 1.125 6 L 1.125 18 C 1.125 19.577273 2.4227273 20.875 4 20.875 L 11.5 20.875 A 0.875 0.875 0 0 0 12.375 20 A 0.875 0.875 0 0 0 11.5 19.125 L 4 19.125 C 3.3772727 19.125 2.875 18.622727 2.875 18 L 2.875 8.5917969 L 10.5 13.439453 A 0.8750875 0.8750875 0 0 0 10.505859 13.441406 C 11.418287 14.013065 12.581713 14.013065 13.494141 13.441406 A 0.8750875 0.8750875 0 0 0 13.5 13.439453 L 21.125 8.5917969 L 21.125 12.5 A 0.875 0.875 0 0 0 22 13.375 A 0.875 0.875 0 0 0 22.875 12.5 L 22.875 6 C 22.875 4.4225454 21.577455 3.125 20 3.125 L 4 3.125 z M 4 4.875 L 20 4.875 C 20.631684 4.875 21.125 5.3683156 21.125 6 L 21.125 6.5195312 L 12.564453 11.958984 C 12.217869 12.175189 11.782131 12.175189 11.435547 11.958984 L 2.875 6.5195312 L 2.875 6 C 2.875 5.3683156 3.3683156 4.875 4 4.875 z M 18 14.125 C 17.866892 14.125 17.735241 14.131229 17.605469 14.144531 C 16.560946 14.237689 15.683248 14.694481 15.095703 15.355469 C 14.435372 16.098342 14.12503 17.0556 14.125 18 C 14.12503 18.9444 14.435372 19.901658 15.095703 20.644531 C 15.756066 21.387438 16.781254 21.874998 18 21.875 C 18.791708 21.874999 19.502588 21.670101 20.083984 21.322266 L 21.380859 22.619141 A 0.875 0.875 0 0 0 22.619141 22.619141 A 0.875 0.875 0 0 0 22.619141 21.380859 L 21.318359 20.080078 C 21.695734 19.446423 21.874977 18.719106 21.875 18 C 21.87497 17.0556 21.564628 16.098342 20.904297 15.355469 C 20.316752 14.694482 19.439052 14.23769 18.394531 14.144531 C 18.264761 14.131229 18.133106 14.125 18 14.125 z M 18 15.875 C 19.183966 15.875 20.124995 16.816036 20.125 18 C 20.124995 19.183964 19.183966 20.125 18 20.125 C 16.816034 20.125 15.875005 19.183964 15.875 18 C 15.875005 16.816036 16.816034 15.875 18 15.875 z " />
</svg>
