<?xml version="1.0" encoding="UTF-8" standalone="no"?>
<svg
   width="24"
   height="24"
   viewBox="0 0 24 24"
   fill="none"
   stroke="currentColor"
   stroke-width="1.75"
   stroke-linecap="round"
   stroke-linejoin="round"
   version="1.1"
   id="svg2"
   sodipodi:docname=".tmp_mic-vocal.svg"
   xmlns:inkscape="http://www.inkscape.org/namespaces/inkscape"
   xmlns:sodipodi="http://sodipodi.sourceforge.net/DTD/sodipodi-0.dtd"
   xmlns="http://www.w3.org/2000/svg"
   xmlns:svg="http://www.w3.org/2000/svg">
  <defs
     id="defs2" />
  <sodipodi:namedview
     id="namedview2"
     pagecolor="#ffffff"
     bordercolor="#000000"
     borderopacity="0.25"
     inkscape:showpageshadow="2"
     inkscape:pageopacity="0.0"
     inkscape:pagecheckerboard="0"
     inkscape:deskcolor="#d1d1d1" />
  <path
     id="path1"
     style="baseline-shift:baseline;display:inline;overflow:visible;vector-effect:none;fill:#000000;stroke:none;stroke-linecap:butt;stroke-linejoin:miter;enable-background:accumulate;stop-color:#000000;stop-opacity:1;opacity:1"
     d="M 16 1.125 C 12.765691 1.125 10.125 3.7656912 10.125 7 C 10.125 7.1015903 10.127665 7.2023788 10.132812 7.3027344 L 4.3007812 15.273438 C 3.7985998 15.959436 3.8292352 16.902935 4.3515625 17.554688 C 3.8997882 18.373401 3.8905623 19.387683 4.1542969 20.287109 C 4.5015764 21.471454 5.4258223 22.618318 6.8515625 22.863281 C 8.248341 23.103268 9.4278798 22.452932 10.429688 21.898438 C 11.431494 21.343943 12.3049 20.875 13 20.875 C 14.159415 20.875 15.09829 21.28474 16.011719 21.900391 A 0.875 0.875 0 0 0 17.224609 21.662109 A 0.875 0.875 0 0 0 16.988281 20.449219 C 15.90171 19.71687 14.584585 19.125 13 19.125 C 11.6371 19.125 10.547724 19.832682 9.5820312 20.367188 C 8.6163384 20.901694 7.823659 21.252732 7.1484375 21.136719 C 6.5021777 21.025682 6.0374549 20.488827 5.8339844 19.794922 C 5.7380514 19.467757 5.7224788 19.141776 5.7636719 18.861328 C 6.393658 19.186746 7.1814587 19.137459 7.7675781 18.689453 L 15.421875 12.847656 C 15.611856 12.866354 15.805269 12.875 16 12.875 C 19.234309 12.875 21.875 10.234309 21.875 7 C 21.875 3.7656912 19.234309 1.125 16 1.125 z M 16 2.875 C 18.288539 2.875 20.125 4.7114614 20.125 7 C 20.125 9.2885386 18.288539 11.125 16 11.125 C 13.711461 11.125 11.875 9.2885386 11.875 7 C 11.875 4.7114614 13.711461 2.875 16 2.875 z M 10.689453 9.5078125 C 11.247485 10.682134 12.184333 11.643585 13.339844 12.234375 L 6.7070312 17.298828 A 0.8750875 0.8750875 0 0 0 6.7050781 17.298828 C 6.6500051 17.340928 6.5900581 17.336099 6.5410156 17.287109 L 5.7246094 16.470703 C 5.6765604 16.422683 5.6727646 16.363408 5.7128906 16.308594 L 10.689453 9.5078125 z " />
</svg>
