<?xml version="1.0" encoding="UTF-8" standalone="no"?>
<svg
   width="24"
   height="24"
   viewBox="0 0 24 24"
   fill="none"
   stroke="currentColor"
   stroke-width="1.75"
   stroke-linecap="round"
   stroke-linejoin="round"
   version="1.1"
   id="svg3"
   sodipodi:docname=".tmp_monitor-smartphone.svg"
   xmlns:inkscape="http://www.inkscape.org/namespaces/inkscape"
   xmlns:sodipodi="http://sodipodi.sourceforge.net/DTD/sodipodi-0.dtd"
   xmlns="http://www.w3.org/2000/svg"
   xmlns:svg="http://www.w3.org/2000/svg">
  <defs
     id="defs3" />
  <sodipodi:namedview
     id="namedview3"
     pagecolor="#ffffff"
     bordercolor="#000000"
     borderopacity="0.25"
     inkscape:showpageshadow="2"
     inkscape:pageopacity="0.0"
     inkscape:pagecheckerboard="0"
     inkscape:deskcolor="#d1d1d1" />
  <path
     id="path1"
     style="baseline-shift:baseline;display:inline;overflow:visible;vector-effect:none;fill:#000000;stroke:none;stroke-linecap:butt;stroke-linejoin:miter;enable-background:accumulate;stop-color:#000000;stop-opacity:1;opacity:1"
     d="M 4 3.125 C 2.4225454 3.125 1.125 4.4225454 1.125 6 L 1.125 13 C 1.125 14.577455 2.4225454 15.875 4 15.875 L 9.125 15.875 L 9.125 18.125 L 7 18.125 A 0.875 0.875 0 0 0 6.125 19 A 0.875 0.875 0 0 0 7 19.875 L 12 19.875 A 0.875 0.875 0 0 0 12.875 19 A 0.875 0.875 0 0 0 12 18.125 L 10.875 18.125 L 10.875 15.875 L 12 15.875 A 0.875 0.875 0 0 0 12.875 15 A 0.875 0.875 0 0 0 12 14.125 L 4 14.125 C 3.3683156 14.125 2.875 13.631684 2.875 13 L 2.875 6 C 2.875 5.3683156 3.3683156 4.875 4 4.875 L 16 4.875 C 16.631684 4.875 17.125 5.3683156 17.125 6 L 17.125 8 A 0.875 0.875 0 0 0 18 8.875 A 0.875 0.875 0 0 0 18.875 8 L 18.875 6 C 18.875 4.4225454 17.577455 3.125 16 3.125 L 4 3.125 z M 18 11.125 C 16.422385 11.125 15.125 12.422385 15.125 14 L 15.125 20 C 15.125 21.577615 16.422385 22.875 18 22.875 L 20 22.875 C 21.577615 22.875 22.875 21.577615 22.875 20 L 22.875 14 C 22.875 12.422385 21.577615 11.125 20 11.125 L 18 11.125 z M 18 12.875 L 20 12.875 C 20.638385 12.875 21.125 13.361615 21.125 14 L 21.125 20 C 21.125 20.638385 20.638385 21.125 20 21.125 L 18 21.125 C 17.361615 21.125 16.875 20.638385 16.875 20 L 16.875 14 C 16.875 13.361615 17.361615 12.875 18 12.875 z " />
</svg>
