<?xml version="1.0" encoding="UTF-8" standalone="no"?>
<svg
   width="24"
   height="24"
   viewBox="0 0 24 24"
   fill="none"
   stroke="currentColor"
   stroke-width="1.75"
   stroke-linecap="round"
   stroke-linejoin="round"
   version="1.1"
   id="svg4"
   sodipodi:docname=".tmp_motorbike.svg"
   xmlns:inkscape="http://www.inkscape.org/namespaces/inkscape"
   xmlns:sodipodi="http://sodipodi.sourceforge.net/DTD/sodipodi-0.dtd"
   xmlns="http://www.w3.org/2000/svg"
   xmlns:svg="http://www.w3.org/2000/svg">
  <defs
     id="defs4" />
  <sodipodi:namedview
     id="namedview4"
     pagecolor="#ffffff"
     bordercolor="#000000"
     borderopacity="0.25"
     inkscape:showpageshadow="2"
     inkscape:pageopacity="0.0"
     inkscape:pagecheckerboard="0"
     inkscape:deskcolor="#d1d1d1" />
  <path
     id="path1"
     style="baseline-shift:baseline;display:inline;overflow:visible;vector-effect:none;fill:#000000;stroke:none;stroke-linecap:butt;stroke-linejoin:miter;enable-background:accumulate;stop-color:#000000;stop-opacity:1;opacity:1"
     d="M 16.976562 4.125 A 0.875 0.875 0 0 0 16.291016 4.4863281 A 0.875 0.875 0 0 0 16.486328 5.7089844 C 17.36026 6.3429816 17.944252 7.2939115 18.125 8.3574219 L 18.125 9 C 18.125 9.0794 18.0794 9.125 18 9.125 C 17.120763 9.125 16.279887 9.2906468 15.505859 9.59375 C 15.008946 8.7144806 14.06301 8.1255074 13 8.125 L 11 8.125 C 9.8368792 8.125 9.0191832 8.930659 8.5683594 9.9335938 L 3.2773438 8.1699219 A 0.875 0.875 0 0 0 2.1699219 8.7226562 A 0.875 0.875 0 0 0 2.7226562 9.8300781 L 8.7226562 11.830078 A 0.8750875 0.8750875 0 0 0 9.875 11 C 9.875 10.368316 10.368316 9.875 11 9.875 L 13 9.875 C 13.418452 9.8751997 13.780881 10.093888 13.974609 10.431641 C 12.250315 11.682898 11.125 13.714792 11.125 16 C 11.125 16.0794 11.0794 16.125 11 16.125 L 8.7753906 16.125 C 8.3755423 14.412361 6.8291376 13.125 5 13.125 C 2.8702607 13.125 1.125 14.870261 1.125 17 C 1.125 19.129739 2.8702607 20.875 5 20.875 C 6.8291376 20.875 8.3755423 19.587639 8.7753906 17.875 L 11 17.875 C 12.02517 17.875 12.875 17.02517 12.875 16 C 12.875 14.133085 13.861086 12.507132 15.34375 11.611328 A 0.875 0.875 0 0 0 15.507812 11.515625 C 15.713872 11.401366 15.929889 11.300297 16.152344 11.214844 A 0.875 0.875 0 0 0 16.169922 11.277344 L 16.976562 13.699219 C 15.867847 14.383313 15.125 15.609863 15.125 17 C 15.125 19.129739 16.870261 20.875 19 20.875 C 21.129739 20.875 22.875 19.129739 22.875 17 C 22.875 14.870261 21.129739 13.125 19 13.125 C 18.877491 13.125 18.756425 13.131287 18.636719 13.142578 L 17.880859 10.876953 C 17.920313 10.876067 17.960324 10.875 18 10.875 C 19.02517 10.875 19.875 10.02517 19.875 9 L 19.875 8.25 A 0.8750875 0.8750875 0 0 0 19.863281 8.1113281 C 19.615665 6.578115 18.77079 5.2029969 17.513672 4.2910156 A 0.875 0.875 0 0 0 16.976562 4.125 z M 5 14.875 C 6.1839668 14.875 7.1249964 15.816034 7.125 17 C 7.125 18.183969 6.1839691 19.125 5 19.125 C 3.8160309 19.125 2.875 18.183969 2.875 17 C 2.875 15.816031 3.8160309 14.875 5 14.875 z M 19 14.875 C 20.183969 14.875 21.125 15.816031 21.125 17 C 21.125 18.183969 20.183969 19.125 19 19.125 C 17.816031 19.125 16.875 18.183969 16.875 17 C 16.875 15.816031 17.816031 14.875 19 14.875 z " />
</svg>
