<?xml version="1.0" encoding="UTF-8" standalone="no"?>
<svg
   width="24"
   height="24"
   viewBox="0 0 24 24"
   fill="none"
   stroke="currentColor"
   stroke-width="1.75"
   stroke-linecap="round"
   stroke-linejoin="round"
   version="1.1"
   id="svg1"
   sodipodi:docname=".tmp_mouse.svg"
   xmlns:inkscape="http://www.inkscape.org/namespaces/inkscape"
   xmlns:sodipodi="http://sodipodi.sourceforge.net/DTD/sodipodi-0.dtd"
   xmlns="http://www.w3.org/2000/svg"
   xmlns:svg="http://www.w3.org/2000/svg">
  <defs
     id="defs1" />
  <sodipodi:namedview
     id="namedview1"
     pagecolor="#ffffff"
     bordercolor="#000000"
     borderopacity="0.25"
     inkscape:showpageshadow="2"
     inkscape:pageopacity="0.0"
     inkscape:pagecheckerboard="0"
     inkscape:deskcolor="#d1d1d1" />
  <path
     id="rect1"
     style="baseline-shift:baseline;display:inline;overflow:visible;vector-effect:none;fill:#000000;stroke:none;stroke-linecap:butt;stroke-linejoin:miter;enable-background:accumulate;stop-color:#000000;stop-opacity:1;opacity:1"
     d="M 12 1.125 C 7.6523851 1.125 4.125 4.6523851 4.125 9 L 4.125 15 C 4.125 19.347615 7.6523851 22.875 12 22.875 C 16.347615 22.875 19.875 19.347615 19.875 15 L 19.875 9 C 19.875 4.6523851 16.347615 1.125 12 1.125 z M 12 2.875 C 15.408385 2.875 18.125 5.5916149 18.125 9 L 18.125 15 C 18.125 18.408385 15.408385 21.125 12 21.125 C 8.5916149 21.125 5.875 18.408385 5.875 15 L 5.875 9 C 5.875 5.5916149 8.5916149 2.875 12 2.875 z M 12 5.125 A 0.875 0.875 0 0 0 11.125 6 L 11.125 10 A 0.875 0.875 0 0 0 12 10.875 A 0.875 0.875 0 0 0 12.875 10 L 12.875 6 A 0.875 0.875 0 0 0 12 5.125 z " />
</svg>
