<?xml version="1.0" encoding="UTF-8" standalone="no"?>
<svg
   width="24"
   height="24"
   viewBox="0 0 24 24"
   fill="none"
   stroke="currentColor"
   stroke-width="1.75"
   stroke-linecap="round"
   stroke-linejoin="round"
   version="1.1"
   id="svg3"
   sodipodi:docname=".tmp_move-diagonal.svg"
   xmlns:inkscape="http://www.inkscape.org/namespaces/inkscape"
   xmlns:sodipodi="http://sodipodi.sourceforge.net/DTD/sodipodi-0.dtd"
   xmlns="http://www.w3.org/2000/svg"
   xmlns:svg="http://www.w3.org/2000/svg">
  <defs
     id="defs3" />
  <sodipodi:namedview
     id="namedview3"
     pagecolor="#ffffff"
     bordercolor="#000000"
     borderopacity="0.25"
     inkscape:showpageshadow="2"
     inkscape:pageopacity="0.0"
     inkscape:pagecheckerboard="0"
     inkscape:deskcolor="#d1d1d1" />
  <path
     id="path1"
     style="baseline-shift:baseline;display:inline;overflow:visible;vector-effect:none;fill:#000000;stroke:none;stroke-linecap:butt;stroke-linejoin:miter;enable-background:accumulate;stop-color:#000000;stop-opacity:1;opacity:1"
     d="M 13 4.125 A 0.875 0.875 0 0 0 12.125 5 A 0.875 0.875 0 0 0 13 5.875 L 16.886719 5.875 L 5.875 16.886719 L 5.875 13 A 0.875 0.875 0 0 0 5 12.125 A 0.875 0.875 0 0 0 4.125 13 L 4.125 18.960938 L 4.125 19 A 0.8750875 0.8750875 0 0 0 4.1269531 19.035156 A 0.875 0.875 0 0 0 4.1328125 19.099609 A 0.8750875 0.8750875 0 0 0 4.1425781 19.160156 A 0.875 0.875 0 0 0 4.1503906 19.210938 A 0.8750875 0.8750875 0 0 0 4.1699219 19.273438 A 0.875 0.875 0 0 0 4.1894531 19.330078 A 0.8750875 0.8750875 0 0 0 4.1972656 19.347656 A 0.875 0.875 0 0 0 4.2421875 19.4375 A 0.875 0.875 0 0 0 4.3066406 19.533203 A 0.8750875 0.8750875 0 0 0 4.4667969 19.693359 A 0.875 0.875 0 0 0 4.5625 19.757812 A 0.875 0.875 0 0 0 4.6523438 19.802734 A 0.8750875 0.8750875 0 0 0 4.6699219 19.810547 A 0.875 0.875 0 0 0 4.7265625 19.830078 A 0.8750875 0.8750875 0 0 0 4.7890625 19.849609 A 0.875 0.875 0 0 0 4.8398438 19.857422 A 0.8750875 0.8750875 0 0 0 4.9003906 19.867188 A 0.875 0.875 0 0 0 4.9648438 19.873047 A 0.8750875 0.8750875 0 0 0 5 19.875 L 5.0390625 19.875 L 11 19.875 A 0.875 0.875 0 0 0 11.875 19 A 0.875 0.875 0 0 0 11 18.125 L 7.1132812 18.125 L 18.125 7.1132812 L 18.125 11 A 0.875 0.875 0 0 0 19 11.875 A 0.875 0.875 0 0 0 19.875 11 L 19.875 5.0390625 L 19.875 5 A 0.8750875 0.8750875 0 0 0 19.873047 4.9648438 A 0.875 0.875 0 0 0 19.867188 4.9003906 A 0.8750875 0.8750875 0 0 0 19.857422 4.8398438 A 0.8750875 0.8750875 0 0 0 19.851562 4.7988281 A 0.875 0.875 0 0 0 19.849609 4.7890625 A 0.8750875 0.8750875 0 0 0 19.830078 4.7265625 A 0.875 0.875 0 0 0 19.810547 4.6699219 A 0.875 0.875 0 0 0 19.808594 4.6660156 A 0.8750875 0.8750875 0 0 0 19.802734 4.6523438 A 0.875 0.875 0 0 0 19.757812 4.5625 A 0.875 0.875 0 0 0 19.693359 4.4667969 A 0.8750875 0.8750875 0 0 0 19.619141 4.3808594 A 0.875 0.875 0 0 0 19.4375 4.2421875 A 0.8750875 0.8750875 0 0 0 19.335938 4.1914062 A 0.875 0.875 0 0 0 19.333984 4.1914062 A 0.8750875 0.8750875 0 0 0 19.115234 4.1328125 A 0.875 0.875 0 0 0 19.113281 4.1328125 A 0.8750875 0.8750875 0 0 0 19 4.125 L 18.998047 4.125 L 13 4.125 z " />
</svg>
