<?xml version="1.0" encoding="UTF-8" standalone="no"?>
<svg
   width="24"
   height="24"
   viewBox="0 0 24 24"
   fill="none"
   stroke="currentColor"
   stroke-width="1.75"
   stroke-linecap="round"
   stroke-linejoin="round"
   version="1.1"
   id="svg2"
   sodipodi:docname=".tmp_music.svg"
   xmlns:inkscape="http://www.inkscape.org/namespaces/inkscape"
   xmlns:sodipodi="http://sodipodi.sourceforge.net/DTD/sodipodi-0.dtd"
   xmlns="http://www.w3.org/2000/svg"
   xmlns:svg="http://www.w3.org/2000/svg">
  <defs
     id="defs2" />
  <sodipodi:namedview
     id="namedview2"
     pagecolor="#ffffff"
     bordercolor="#000000"
     borderopacity="0.25"
     inkscape:showpageshadow="2"
     inkscape:pageopacity="0.0"
     inkscape:pagecheckerboard="0"
     inkscape:deskcolor="#d1d1d1" />
  <path
     id="path1"
     style="baseline-shift:baseline;display:inline;overflow:visible;vector-effect:none;fill:#000000;stroke:none;stroke-linecap:butt;stroke-linejoin:miter;enable-background:accumulate;stop-color:#000000;stop-opacity:1;opacity:1"
     d="M 20.972656 2.125 A 0.8750875 0.8750875 0 0 0 20.855469 2.1367188 L 8.8554688 4.1367188 A 0.8750875 0.8750875 0 0 0 8.125 5 L 8.125 14.765625 C 7.5136562 14.361635 6.7827992 14.125 6 14.125 C 3.8702607 14.125 2.125 15.870261 2.125 18 C 2.125 20.129739 3.8702607 21.875 6 21.875 C 8.1297393 21.875 9.875 20.129739 9.875 18 L 9.875 5.7421875 L 20.125 4.0332031 L 20.125 12.765625 C 19.513656 12.361635 18.782799 12.125 18 12.125 C 15.870261 12.125 14.125 13.870261 14.125 16 C 14.125 18.129739 15.870261 19.875 18 19.875 C 20.129739 19.875 21.875 18.129739 21.875 16 L 21.875 3 A 0.8750875 0.8750875 0 0 0 20.972656 2.125 z M 18 13.875 C 19.183969 13.875 20.125 14.816031 20.125 16 C 20.125 17.183969 19.183969 18.125 18 18.125 C 16.816031 18.125 15.875 17.183969 15.875 16 C 15.875 14.816031 16.816031 13.875 18 13.875 z M 6 15.875 C 7.1839691 15.875 8.125 16.816031 8.125 18 C 8.125 19.183969 7.1839691 20.125 6 20.125 C 4.8160309 20.125 3.875 19.183969 3.875 18 C 3.875 16.816031 4.8160309 15.875 6 15.875 z " />
</svg>
