<?xml version="1.0" encoding="UTF-8" standalone="no"?>
<svg
   width="24"
   height="24"
   viewBox="0 0 24 24"
   fill="none"
   stroke="currentColor"
   stroke-width="1.75"
   stroke-linecap="round"
   stroke-linejoin="round"
   version="1.1"
   id="svg2"
   sodipodi:docname=".tmp_paint-roller.svg"
   xmlns:inkscape="http://www.inkscape.org/namespaces/inkscape"
   xmlns:sodipodi="http://sodipodi.sourceforge.net/DTD/sodipodi-0.dtd"
   xmlns="http://www.w3.org/2000/svg"
   xmlns:svg="http://www.w3.org/2000/svg">
  <defs
     id="defs2" />
  <sodipodi:namedview
     id="namedview2"
     pagecolor="#ffffff"
     bordercolor="#000000"
     borderopacity="0.25"
     inkscape:showpageshadow="2"
     inkscape:pageopacity="0.0"
     inkscape:pagecheckerboard="0"
     inkscape:deskcolor="#d1d1d1" />
  <path
     id="rect1"
     style="baseline-shift:baseline;display:inline;overflow:visible;vector-effect:none;fill:#000000;stroke:none;stroke-linecap:butt;stroke-linejoin:miter;enable-background:accumulate;stop-color:#000000;stop-opacity:1;opacity:1"
     d="M 4 1.125 C 2.4223851 1.125 1.125 2.4223851 1.125 4 L 1.125 6 C 1.125 7.5776149 2.4223851 8.875 4 8.875 L 16 8.875 C 17.577615 8.875 18.875 7.5776149 18.875 6 L 18.875 5.875 L 20 5.875 C 20.631684 5.875 21.125 6.3683156 21.125 7 L 21.125 10 C 21.125 10.631684 20.631684 11.125 20 11.125 L 12 11.125 C 10.422545 11.125 9.125 12.422545 9.125 14 L 9.125 15.125 L 9 15.125 C 7.9763851 15.125 7.125 15.976385 7.125 17 L 7.125 21 C 7.125 22.023615 7.9763851 22.875 9 22.875 L 11 22.875 C 12.023615 22.875 12.875 22.023615 12.875 21 L 12.875 17 C 12.875 15.976385 12.023615 15.125 11 15.125 L 10.875 15.125 L 10.875 14 C 10.875 13.368316 11.368316 12.875 12 12.875 L 20 12.875 C 21.577455 12.875 22.875 11.577455 22.875 10 L 22.875 7 C 22.875 5.4225454 21.577455 4.125 20 4.125 L 18.875 4.125 L 18.875 4 C 18.875 2.4223851 17.577615 1.125 16 1.125 L 4 1.125 z M 4 2.875 L 16 2.875 C 16.638385 2.875 17.125 3.3616149 17.125 4 L 17.125 6 C 17.125 6.6383851 16.638385 7.125 16 7.125 L 4 7.125 C 3.3616149 7.125 2.875 6.6383851 2.875 6 L 2.875 4 C 2.875 3.3616149 3.3616149 2.875 4 2.875 z M 9 16.875 L 10 16.875 L 11 16.875 C 11.08438 16.875 11.125 16.91561 11.125 17 L 11.125 21 C 11.125 21.08439 11.08438 21.125 11 21.125 L 9 21.125 C 8.915615 21.125 8.875 21.08439 8.875 21 L 8.875 17 C 8.875 16.91561 8.915615 16.875 9 16.875 z " />
</svg>
