<?xml version="1.0" encoding="UTF-8" standalone="no"?>
<svg
   width="24"
   height="24"
   viewBox="0 0 24 24"
   fill="none"
   stroke="currentColor"
   stroke-width="1.75"
   stroke-linecap="round"
   stroke-linejoin="round"
   version="1.1"
   id="svg2"
   sodipodi:docname=".tmp_panel-top-open.svg"
   xmlns:inkscape="http://www.inkscape.org/namespaces/inkscape"
   xmlns:sodipodi="http://sodipodi.sourceforge.net/DTD/sodipodi-0.dtd"
   xmlns="http://www.w3.org/2000/svg"
   xmlns:svg="http://www.w3.org/2000/svg">
  <defs
     id="defs2" />
  <sodipodi:namedview
     id="namedview2"
     pagecolor="#ffffff"
     bordercolor="#000000"
     borderopacity="0.25"
     inkscape:showpageshadow="2"
     inkscape:pageopacity="0.0"
     inkscape:pagecheckerboard="0"
     inkscape:deskcolor="#d1d1d1" />
  <path
     id="rect1"
     style="baseline-shift:baseline;display:inline;overflow:visible;vector-effect:none;fill:#000000;stroke:none;stroke-linecap:butt;stroke-linejoin:miter;enable-background:accumulate;stop-color:#000000;stop-opacity:1;opacity:1"
     d="M 5 2.125 C 3.4223851 2.125 2.125 3.4223851 2.125 5 L 2.125 19 C 2.125 20.577615 3.4223851 21.875 5 21.875 L 19 21.875 C 20.577615 21.875 21.875 20.577615 21.875 19 L 21.875 5 C 21.875 3.4223851 20.577615 2.125 19 2.125 L 5 2.125 z M 5 3.875 L 19 3.875 C 19.638385 3.875 20.125 4.3616149 20.125 5 L 20.125 8.125 L 3.875 8.125 L 3.875 5 C 3.875 4.3616149 4.3616149 3.875 5 3.875 z M 3.875 9.875 L 20.125 9.875 L 20.125 19 C 20.125 19.638385 19.638385 20.125 19 20.125 L 5 20.125 C 4.3616149 20.125 3.875 19.638385 3.875 19 L 3.875 9.875 z M 9 13.125 A 0.875 0.875 0 0 0 8.3808594 13.380859 A 0.875 0.875 0 0 0 8.3808594 14.619141 L 11.380859 17.619141 A 0.8750875 0.8750875 0 0 0 12.619141 17.619141 L 15.619141 14.619141 A 0.875 0.875 0 0 0 15.619141 13.380859 A 0.875 0.875 0 0 0 14.380859 13.380859 L 12 15.761719 L 9.6191406 13.380859 A 0.875 0.875 0 0 0 9 13.125 z " />
</svg>
