<?xml version="1.0" encoding="UTF-8" standalone="no"?>
<svg
   width="24"
   height="24"
   viewBox="0 0 24 24"
   fill="none"
   stroke="currentColor"
   stroke-width="1.75"
   stroke-linecap="round"
   stroke-linejoin="round"
   version="1.1"
   id="svg2"
   sodipodi:docname=".tmp_pause.svg"
   xmlns:inkscape="http://www.inkscape.org/namespaces/inkscape"
   xmlns:sodipodi="http://sodipodi.sourceforge.net/DTD/sodipodi-0.dtd"
   xmlns="http://www.w3.org/2000/svg"
   xmlns:svg="http://www.w3.org/2000/svg">
  <defs
     id="defs2" />
  <sodipodi:namedview
     id="namedview2"
     pagecolor="#ffffff"
     bordercolor="#000000"
     borderopacity="0.25"
     inkscape:showpageshadow="2"
     inkscape:pageopacity="0.0"
     inkscape:pagecheckerboard="0"
     inkscape:deskcolor="#d1d1d1" />
  <path
     id="rect1"
     style="baseline-shift:baseline;display:inline;overflow:visible;vector-effect:none;fill:#000000;stroke:none;stroke-linecap:butt;stroke-linejoin:miter;enable-background:accumulate;stop-color:#000000;stop-opacity:1;opacity:1"
     d="M 6 2.125 C 4.9763851 2.125 4.125 2.9763851 4.125 4 L 4.125 20 C 4.125 21.023615 4.9763851 21.875 6 21.875 L 9 21.875 C 10.023615 21.875 10.875 21.023615 10.875 20 L 10.875 4 C 10.875 2.9763851 10.023615 2.125 9 2.125 L 6 2.125 z M 15 2.125 C 13.976385 2.125 13.125 2.9763851 13.125 4 L 13.125 20 C 13.125 21.023615 13.976385 21.875 15 21.875 L 18 21.875 C 19.023615 21.875 19.875 21.023615 19.875 20 L 19.875 4 C 19.875 2.9763851 19.023615 2.125 18 2.125 L 15 2.125 z M 6 3.875 L 9 3.875 C 9.084385 3.875 9.125 3.915615 9.125 4 L 9.125 20 C 9.125 20.08439 9.084385 20.125 9 20.125 L 6 20.125 C 5.9156149 20.125 5.875 20.084385 5.875 20 L 5.875 4 C 5.875 3.9156149 5.9156149 3.875 6 3.875 z M 15 3.875 L 18 3.875 C 18.08439 3.875 18.125 3.915615 18.125 4 L 18.125 20 C 18.125 20.08439 18.08439 20.125 18 20.125 L 15 20.125 C 14.91562 20.125 14.875 20.08439 14.875 20 L 14.875 4 C 14.875 3.915615 14.91562 3.875 15 3.875 z " />
</svg>
