<?xml version="1.0" encoding="UTF-8" standalone="no"?>
<svg
   width="24"
   height="24"
   viewBox="0 0 24 24"
   fill="none"
   stroke="currentColor"
   stroke-width="1.75"
   stroke-linecap="round"
   stroke-linejoin="round"
   version="1.1"
   id="svg3"
   sodipodi:docname=".tmp_pen-tool.svg"
   xmlns:inkscape="http://www.inkscape.org/namespaces/inkscape"
   xmlns:sodipodi="http://sodipodi.sourceforge.net/DTD/sodipodi-0.dtd"
   xmlns="http://www.w3.org/2000/svg"
   xmlns:svg="http://www.w3.org/2000/svg">
  <defs
     id="defs3" />
  <sodipodi:namedview
     id="namedview3"
     pagecolor="#ffffff"
     bordercolor="#000000"
     borderopacity="0.25"
     inkscape:showpageshadow="2"
     inkscape:pageopacity="0.0"
     inkscape:pagecheckerboard="0"
     inkscape:deskcolor="#d1d1d1" />
  <path
     id="path1"
     style="baseline-shift:baseline;display:inline;overflow:visible;vector-effect:none;fill:#000000;stroke:none;stroke-linecap:butt;stroke-linejoin:miter;enable-background:accumulate;stop-color:#000000;stop-opacity:1;opacity:1"
     d="M 3.0039062 1.1269531 C 2.5728349 1.1307465 2.1681269 1.2912289 1.8457031 1.5527344 A 0.875 0.875 0 0 0 1.6816406 1.6816406 A 0.875 0.875 0 0 0 1.5527344 1.8457031 C 1.2039209 2.2756285 1.0350806 2.8513851 1.1777344 3.4414062 A 0.8750875 0.8750875 0 0 0 1.1816406 3.4570312 L 4.5 16.083984 C 4.6707889 16.791717 5.2411655 17.339655 5.9550781 17.482422 L 11.583984 18.609375 C 11.458419 19.211218 11.626881 19.865023 12.087891 20.326172 L 13.673828 21.912109 C 14.398693 22.636755 15.601307 22.636755 16.326172 21.912109 L 21.912109 16.326172 C 22.636755 15.601307 22.636755 14.398693 21.912109 13.673828 L 20.326172 12.087891 C 19.96374 11.725568 19.481596 11.544922 19 11.544922 C 18.868817 11.544922 18.738209 11.55911 18.609375 11.585938 L 17.482422 5.9550781 C 17.339653 5.241165 16.791717 4.6707889 16.083984 4.5 L 3.4570312 1.1816406 A 0.8750875 0.8750875 0 0 0 3.4414062 1.1777344 C 3.29393 1.142078 3.1475967 1.1256887 3.0039062 1.1269531 z M 4.5019531 3.265625 L 15.65625 6.1953125 A 0.8750875 0.8750875 0 0 0 15.673828 6.2011719 C 15.723188 6.2130849 15.757618 6.247079 15.767578 6.296875 L 17.050781 12.710938 L 12.710938 17.050781 L 6.296875 15.767578 C 6.247079 15.757578 6.2130839 15.723188 6.2011719 15.673828 A 0.8750875 0.8750875 0 0 0 6.1953125 15.65625 L 3.265625 4.5019531 L 8.4472656 9.6855469 C 8.2417505 10.080495 8.125 10.527461 8.125 11 C 8.125 12.577455 9.4225454 13.875 11 13.875 C 12.577455 13.875 13.875 12.577455 13.875 11 C 13.875 9.4225454 12.577455 8.125 11 8.125 C 10.527461 8.125 10.080495 8.2417505 9.6855469 8.4472656 L 4.5019531 3.265625 z M 11 9.875 C 11.631684 9.875 12.125 10.368316 12.125 11 C 12.125 11.631684 11.631684 12.125 11 12.125 C 10.368316 12.125 9.875 11.631684 9.875 11 C 9.875 10.713124 9.9762407 10.454366 10.146484 10.257812 A 0.875 0.875 0 0 0 10.205078 10.205078 A 0.875 0.875 0 0 0 10.257812 10.146484 C 10.454366 9.9762407 10.713124 9.875 11 9.875 z M 19 13.283203 C 19.029911 13.283203 19.059823 13.298112 19.087891 13.326172 L 20.673828 14.912109 C 20.729948 14.968249 20.729948 15.031755 20.673828 15.087891 L 15.087891 20.673828 C 15.031751 20.729948 14.968245 20.729948 14.912109 20.673828 L 13.326172 19.087891 C 13.270052 19.031751 13.270052 18.968245 13.326172 18.912109 L 18.912109 13.326172 C 18.940179 13.298112 18.970089 13.283203 19 13.283203 z " />
</svg>
