<?xml version="1.0" encoding="UTF-8" standalone="no"?>
<svg
   width="24"
   height="24"
   viewBox="0 0 24 24"
   fill="none"
   stroke="currentColor"
   stroke-width="1.75"
   stroke-linecap="round"
   stroke-linejoin="round"
   version="1.1"
   id="svg2"
   sodipodi:docname=".tmp_pill-bottle.svg"
   xmlns:inkscape="http://www.inkscape.org/namespaces/inkscape"
   xmlns:sodipodi="http://sodipodi.sourceforge.net/DTD/sodipodi-0.dtd"
   xmlns="http://www.w3.org/2000/svg"
   xmlns:svg="http://www.w3.org/2000/svg">
  <defs
     id="defs2" />
  <sodipodi:namedview
     id="namedview2"
     pagecolor="#ffffff"
     bordercolor="#000000"
     borderopacity="0.25"
     inkscape:showpageshadow="2"
     inkscape:pageopacity="0.0"
     inkscape:pagecheckerboard="0"
     inkscape:deskcolor="#d1d1d1" />
  <path
     id="path1"
     style="baseline-shift:baseline;display:inline;overflow:visible;vector-effect:none;fill:#000000;stroke:none;stroke-linecap:butt;stroke-linejoin:miter;enable-background:accumulate;stop-color:#000000;stop-opacity:1;opacity:1"
     d="M 5 1.125 C 3.9763851 1.125 3.125 1.9763851 3.125 3 L 3.125 6 C 3.125 7.0236149 3.9763851 7.875 5 7.875 L 5.125 7.875 L 5.125 20 C 5.125 21.577455 6.4225454 22.875 8 22.875 L 16 22.875 C 17.577455 22.875 18.875 21.577455 18.875 20 L 18.875 7.875 L 19 7.875 C 20.023615 7.875 20.875 7.0236149 20.875 6 L 20.875 3 C 20.875 1.9763851 20.023615 1.125 19 1.125 L 5 1.125 z M 5 2.875 L 19 2.875 C 19.08439 2.875 19.125 2.915615 19.125 3 L 19.125 6 C 19.125 6.084385 19.08439 6.125 19 6.125 L 18 6.125 L 6 6.125 L 5 6.125 C 4.9156149 6.125 4.875 6.0843851 4.875 6 L 4.875 3 C 4.875 2.9156149 4.9156149 2.875 5 2.875 z M 6.875 7.875 L 17.125 7.875 L 17.125 10.125 L 14 10.125 C 12.97483 10.125 12.125 10.97483 12.125 12 L 12.125 17 C 12.125 18.02517 12.97483 18.875 14 18.875 L 17.125 18.875 L 17.125 20 C 17.125 20.631684 16.631684 21.125 16 21.125 L 8 21.125 C 7.3683156 21.125 6.875 20.631684 6.875 20 L 6.875 7.875 z M 14 11.875 L 17.125 11.875 L 17.125 17.125 L 14 17.125 C 13.9206 17.125 13.875 17.0794 13.875 17 L 13.875 12 C 13.875 11.9206 13.9206 11.875 14 11.875 z " />
</svg>
