<?xml version="1.0" encoding="UTF-8" standalone="no"?>
<svg
   width="24"
   height="24"
   viewBox="0 0 24 24"
   fill="none"
   stroke="currentColor"
   stroke-width="1.75"
   stroke-linecap="round"
   stroke-linejoin="round"
   version="1.1"
   id="svg3"
   sodipodi:docname=".tmp_pipette.svg"
   xmlns:inkscape="http://www.inkscape.org/namespaces/inkscape"
   xmlns:sodipodi="http://sodipodi.sourceforge.net/DTD/sodipodi-0.dtd"
   xmlns="http://www.w3.org/2000/svg"
   xmlns:svg="http://www.w3.org/2000/svg">
  <defs
     id="defs3" />
  <sodipodi:namedview
     id="namedview3"
     pagecolor="#ffffff"
     bordercolor="#000000"
     borderopacity="0.25"
     inkscape:showpageshadow="2"
     inkscape:pageopacity="0.0"
     inkscape:pagecheckerboard="0"
     inkscape:deskcolor="#d1d1d1" />
  <path
     id="path1"
     style="baseline-shift:baseline;display:inline;overflow:visible;vector-effect:none;fill:#000000;stroke:none;stroke-linecap:butt;stroke-linejoin:miter;enable-background:accumulate;stop-color:#000000;stop-opacity:1;opacity:1"
     d="M 19.751953 1.0703125 C 19.065515 1.1064268 18.354094 1.4076243 17.78125 1.9804688 L 14.955078 4.8066406 C 14.344108 4.3064191 13.633694 4.0303938 12.955078 4.0703125 C 12.182865 4.1157365 11.492962 4.4679758 10.980469 4.9804688 C 10.467976 5.4929618 10.115736 6.1828655 10.070312 6.9550781 C 10.030032 7.6399192 10.261792 8.3758838 10.771484 8.9902344 L 2.9667969 16.794922 C 2.4278301 17.333726 2.1251628 18.066026 2.125 18.828125 L 2.125 20.171875 C 2.1249362 20.470555 2.0061526 20.75563 1.7949219 20.966797 L 1.3808594 21.380859 A 0.875 0.875 0 0 0 1.3808594 22.619141 A 0.875 0.875 0 0 0 2.6191406 22.619141 L 3.0332031 22.205078 C 3.2443115 21.994212 3.5297198 21.875064 3.828125 21.875 L 5.171875 21.875 C 5.9339741 21.874837 6.6662741 21.57217 7.2050781 21.033203 L 15.009766 13.228516 C 15.624116 13.738208 16.360081 13.969972 17.044922 13.929688 C 17.817135 13.884267 18.507038 13.532024 19.019531 13.019531 C 19.532024 12.507038 19.884263 11.817135 19.929688 11.044922 C 19.969607 10.366306 19.693581 9.6558921 19.193359 9.0449219 L 22.019531 6.21875 C 22.674211 5.5640705 22.975112 4.7272908 22.929688 3.9550781 C 22.884263 3.1828655 22.532024 2.4929618 22.019531 1.9804688 C 21.507038 1.4679758 20.817135 1.1157369 20.044922 1.0703125 C 19.948395 1.0646345 19.850016 1.0651533 19.751953 1.0703125 z M 19.832031 2.8144531 C 19.868315 2.8133867 19.90512 2.8142718 19.941406 2.8164062 C 20.231693 2.8334822 20.543743 2.9812429 20.78125 3.21875 C 21.018757 3.4562571 21.166518 3.7683066 21.183594 4.0585938 C 21.200674 4.3488809 21.126574 4.6351486 20.78125 4.9804688 L 17.380859 8.3808594 A 0.8750875 0.8750875 0 0 0 17.380859 9.6191406 L 17.78125 10.019531 C 18.12657 10.364851 18.20067 10.651119 18.183594 10.941406 C 18.166514 11.231693 18.018757 11.543743 17.78125 11.78125 C 17.543743 12.018757 17.231693 12.166518 16.941406 12.183594 C 16.651119 12.200674 16.364851 12.126574 16.019531 11.78125 L 15.621094 11.382812 A 0.875 0.875 0 0 0 15.619141 11.380859 A 0.875 0.875 0 0 0 15.617188 11.378906 L 12.621094 8.3828125 A 0.875 0.875 0 0 0 12.619141 8.3808594 A 0.875 0.875 0 0 0 12.617188 8.3789062 L 12.21875 7.9804688 C 11.87343 7.6351486 11.79933 7.348881 11.816406 7.0585938 C 11.833482 6.7683066 11.981243 6.4562571 12.21875 6.21875 C 12.456257 5.9812429 12.768307 5.8334821 13.058594 5.8164062 C 13.348881 5.7993302 13.635149 5.8734302 13.980469 6.21875 L 14.380859 6.6191406 A 0.8750875 0.8750875 0 0 0 15.619141 6.6191406 L 19.019531 3.21875 C 19.321686 2.9165949 19.578047 2.8219179 19.832031 2.8144531 z M 12 10.238281 L 13.761719 12 L 5.9667969 19.794922 C 5.75563 20.006153 5.4705552 20.124936 5.171875 20.125 L 3.875 20.125 L 3.875 18.828125 C 3.8750638 18.529445 3.9938474 18.24437 4.2050781 18.033203 L 12 10.238281 z " />
</svg>
