<?xml version="1.0" encoding="UTF-8" standalone="no"?>
<svg
   width="24"
   height="24"
   viewBox="0 0 24 24"
   fill="none"
   stroke="currentColor"
   stroke-width="1.75"
   stroke-linecap="round"
   stroke-linejoin="round"
   version="1.1"
   id="svg6"
   sodipodi:docname=".tmp_pointer-off.svg"
   xmlns:inkscape="http://www.inkscape.org/namespaces/inkscape"
   xmlns:sodipodi="http://sodipodi.sourceforge.net/DTD/sodipodi-0.dtd"
   xmlns="http://www.w3.org/2000/svg"
   xmlns:svg="http://www.w3.org/2000/svg">
  <defs
     id="defs6" />
  <sodipodi:namedview
     id="namedview6"
     pagecolor="#ffffff"
     bordercolor="#000000"
     borderopacity="0.25"
     inkscape:showpageshadow="2"
     inkscape:pageopacity="0.0"
     inkscape:pagecheckerboard="0"
     inkscape:deskcolor="#d1d1d1" />
  <path
     id="path1"
     style="baseline-shift:baseline;display:inline;overflow:visible;vector-effect:none;fill:#000000;stroke:none;stroke-linecap:butt;stroke-linejoin:miter;enable-background:accumulate;stop-color:#000000;stop-opacity:1;opacity:1"
     d="M 2 1.125 A 0.875 0.875 0 0 0 1.3808594 1.3808594 A 0.875 0.875 0 0 0 1.3808594 2.6191406 L 5.125 6.3632812 L 5.125 12.099609 C 4.6431794 11.857069 4.1246439 11.759013 3.6386719 11.802734 C 2.9211374 11.867294 2.2861376 12.205934 1.8144531 12.689453 C 1.3427686 13.172972 1.0213678 13.816243 0.97460938 14.535156 C 0.92785087 15.25407 1.1895986 16.033907 1.7695312 16.65625 A 0.8750875 0.8750875 0 0 0 1.7871094 16.673828 L 5.3769531 20.314453 C 7.1137853 22.080674 9.5283384 23.012865 12 22.875 L 12.021484 22.875 L 14 22.875 C 16.059817 22.875075 18.045605 22.157797 19.625 20.863281 L 21.380859 22.619141 A 0.875 0.875 0 0 0 22.619141 22.619141 A 0.875 0.875 0 0 0 22.619141 21.380859 L 20.275391 19.039062 L 6.6191406 5.3808594 L 2.6191406 1.3808594 A 0.875 0.875 0 0 0 2 1.125 z M 8.0664062 1.1289062 C 7.8508646 1.1231524 7.6310693 1.1412301 7.4101562 1.1875 A 0.875 0.875 0 0 0 6.734375 2.2226562 A 0.875 0.875 0 0 0 7.7695312 2.9003906 C 8.4868853 2.750142 9.124808 3.2670803 9.125 4 L 9.125 4.5 A 0.875 0.875 0 0 0 10 5.375 A 0.875 0.875 0 0 0 10.875 4.5 L 10.875 4 C 10.874586 2.420054 9.5751976 1.169183 8.0664062 1.1289062 z M 12.585938 6.2324219 A 0.875 0.875 0 0 0 11.8125 6.8203125 A 0.875 0.875 0 0 0 12.355469 7.9335938 C 12.694952 8.0500338 12.957356 8.3176113 13.064453 8.6601562 A 0.875 0.875 0 0 0 13.576172 9.2109375 A 0.875 0.875 0 0 0 13.863281 9.5546875 A 0.875 0.875 0 0 0 15.083984 9.3496094 C 15.431229 8.8612172 15.895877 8.7874354 16.341797 8.9296875 C 16.787717 9.0719396 17.124724 9.4007459 17.125 10 L 17.125 11 A 0.8750875 0.8750875 0 0 0 18.875 11 C 18.875 10.552084 19.01244 10.327266 19.207031 10.154297 C 19.401622 9.9813272 19.694444 9.875 20 9.875 C 20.305556 9.875 20.598378 9.9813272 20.792969 10.154297 C 20.98756 10.327266 21.125 10.552084 21.125 11 L 21.125 14 A 0.8750875 0.8750875 0 0 0 21.125 14.003906 C 21.1274 14.666278 21.03713 15.325358 20.857422 15.962891 A 0.875 0.875 0 0 0 21.462891 17.042969 A 0.875 0.875 0 0 0 22.542969 16.4375 C 22.766812 15.643391 22.878048 14.821148 22.875 13.996094 L 22.875 11 C 22.875 10.114584 22.51244 9.3394 21.957031 8.8457031 C 21.401622 8.3520063 20.694444 8.125 20 8.125 C 19.444245 8.125 18.921161 8.3899751 18.433594 8.7011719 C 18.070785 8.031598 17.555221 7.479338 16.873047 7.2617188 C 16.329677 7.0883793 15.721118 7.0816064 15.150391 7.2558594 C 14.918424 7.3266826 14.692905 7.426856 14.480469 7.5585938 C 14.13683 6.963489 13.586613 6.5046739 12.923828 6.2773438 A 0.875 0.875 0 0 0 12.585938 6.2324219 z M 6.875 8.1132812 L 18.380859 19.619141 C 17.135453 20.589876 15.595766 21.125058 14 21.125 L 12 21.125 A 0.8750875 0.8750875 0 0 0 11.945312 21.126953 C 9.9591022 21.250199 8.0198585 20.505309 6.625 19.085938 A 0.8750875 0.8750875 0 0 0 6.6230469 19.085938 L 3.0507812 15.462891 C 2.764041 15.155181 2.7041001 14.903709 2.7207031 14.648438 C 2.7373062 14.393164 2.8636854 14.119965 3.0683594 13.910156 C 3.2730333 13.700347 3.5420918 13.567844 3.796875 13.544922 C 4.0516582 13.522 4.3044214 13.57644 4.6191406 13.855469 L 5.3691406 14.605469 A 0.875 0.875 0 0 0 5.3945312 14.630859 L 6.3808594 15.619141 A 0.875 0.875 0 0 0 7.6191406 15.619141 A 0.875 0.875 0 0 0 7.6191406 14.380859 L 6.875 13.636719 L 6.875 8.1132812 z " />
</svg>
