<?xml version="1.0" encoding="UTF-8" standalone="no"?>
<svg
   width="24"
   height="24"
   viewBox="0 0 24 24"
   fill="none"
   stroke="currentColor"
   stroke-width="1.75"
   stroke-linecap="round"
   stroke-linejoin="round"
   version="1.1"
   id="svg4"
   sodipodi:docname=".tmp_pound-sterling.svg"
   xmlns:inkscape="http://www.inkscape.org/namespaces/inkscape"
   xmlns:sodipodi="http://sodipodi.sourceforge.net/DTD/sodipodi-0.dtd"
   xmlns="http://www.w3.org/2000/svg"
   xmlns:svg="http://www.w3.org/2000/svg">
  <defs
     id="defs4" />
  <sodipodi:namedview
     id="namedview4"
     pagecolor="#ffffff"
     bordercolor="#000000"
     borderopacity="0.25"
     inkscape:showpageshadow="2"
     inkscape:pageopacity="0.0"
     inkscape:pagecheckerboard="0"
     inkscape:deskcolor="#d1d1d1" />
  <path
     id="path1"
     style="baseline-shift:baseline;display:inline;overflow:visible;vector-effect:none;fill:#000000;stroke:none;stroke-linecap:butt;stroke-linejoin:miter;enable-background:accumulate;stop-color:#000000;stop-opacity:1;opacity:1"
     d="M 14 2.125 C 12.805568 2.125 11.598382 2.5187212 10.667969 3.3457031 C 9.7375574 4.1726834 9.1250023 5.4479903 9.125 7 L 9.125 12.125 L 6 12.125 A 0.875 0.875 0 0 0 5.125 13 A 0.875 0.875 0 0 0 6 13.875 L 9.125 13.875 L 9.125 20.125 L 6 20.125 A 0.875 0.875 0 0 0 5.125 21 A 0.875 0.875 0 0 0 6 21.875 L 18 21.875 A 0.875 0.875 0 0 0 18.875 21 A 0.875 0.875 0 0 0 18 20.125 L 10.875 20.125 L 10.875 13.875 L 16 13.875 A 0.875 0.875 0 0 0 16.875 13 A 0.875 0.875 0 0 0 16 12.125 L 10.875 12.125 L 10.875 7 C 10.875 5.8855137 11.262444 5.160565 11.832031 4.6542969 C 12.401618 4.1480288 13.194432 3.875 14 3.875 C 14.805568 3.875 15.598382 4.1480288 16.167969 4.6542969 C 16.737556 5.160565 17.125 5.8855137 17.125 7 A 0.875 0.875 0 0 0 18 7.875 A 0.875 0.875 0 0 0 18.875 7 C 18.875 5.4479863 18.262444 4.172685 17.332031 3.3457031 C 16.401618 2.5187212 15.194432 2.125 14 2.125 z " />
</svg>
