<?xml version="1.0" encoding="UTF-8" standalone="no"?>
<svg
   width="24"
   height="24"
   viewBox="0 0 24 24"
   fill="none"
   stroke="currentColor"
   stroke-width="1.75"
   stroke-linecap="round"
   stroke-linejoin="round"
   version="1.1"
   id="svg2"
   sodipodi:docname=".tmp_power.svg"
   xmlns:inkscape="http://www.inkscape.org/namespaces/inkscape"
   xmlns:sodipodi="http://sodipodi.sourceforge.net/DTD/sodipodi-0.dtd"
   xmlns="http://www.w3.org/2000/svg"
   xmlns:svg="http://www.w3.org/2000/svg">
  <defs
     id="defs2" />
  <sodipodi:namedview
     id="namedview2"
     pagecolor="#ffffff"
     bordercolor="#000000"
     borderopacity="0.25"
     inkscape:showpageshadow="2"
     inkscape:pageopacity="0.0"
     inkscape:pagecheckerboard="0"
     inkscape:deskcolor="#d1d1d1" />
  <path
     id="path1"
     style="baseline-shift:baseline;display:inline;overflow:visible;vector-effect:none;fill:#000000;stroke:none;stroke-linecap:butt;stroke-linejoin:miter;enable-background:accumulate;stop-color:#000000;stop-opacity:1;opacity:1"
     d="M 12 1.125 A 0.875 0.875 0 0 0 11.125 2 L 11.125 12 A 0.875 0.875 0 0 0 12 12.875 A 0.875 0.875 0 0 0 12.875 12 L 12.875 2 A 0.875 0.875 0 0 0 12 1.125 z M 18.400391 5.7246094 A 0.875 0.875 0 0 0 17.78125 5.9804688 A 0.875 0.875 0 0 0 17.78125 7.21875 C 20.361708 9.8001578 20.716669 13.22496 19.546875 16.060547 C 18.377081 18.896134 15.710031 21.076459 12.060547 21.087891 C 8.4110627 21.099322 5.7305041 18.935625 4.5429688 16.107422 C 3.3554335 13.279219 3.6877175 9.8514291 6.2519531 7.2539062 A 0.875 0.875 0 0 0 6.2441406 6.0175781 A 0.875 0.875 0 0 0 5.0078125 6.0253906 C 1.9487621 9.1241515 1.4957023 13.370014 2.9296875 16.785156 C 4.3636727 20.200298 7.7125742 22.851528 12.066406 22.837891 C 16.420238 22.824251 19.7515 20.152574 21.164062 16.728516 C 22.576625 13.304457 22.097932 9.0600025 19.019531 5.9804688 A 0.875 0.875 0 0 0 18.400391 5.7246094 z " />
</svg>
