<?xml version="1.0" encoding="UTF-8" standalone="no"?>
<svg
   width="24"
   height="24"
   viewBox="0 0 24 24"
   fill="none"
   stroke="currentColor"
   stroke-width="1.75"
   stroke-linecap="round"
   stroke-linejoin="round"
   version="1.1"
   id="svg2"
   sodipodi:docname=".tmp_printer.svg"
   xmlns:inkscape="http://www.inkscape.org/namespaces/inkscape"
   xmlns:sodipodi="http://sodipodi.sourceforge.net/DTD/sodipodi-0.dtd"
   xmlns="http://www.w3.org/2000/svg"
   xmlns:svg="http://www.w3.org/2000/svg">
  <defs
     id="defs2" />
  <sodipodi:namedview
     id="namedview2"
     pagecolor="#ffffff"
     bordercolor="#000000"
     borderopacity="0.25"
     inkscape:showpageshadow="2"
     inkscape:pageopacity="0.0"
     inkscape:pagecheckerboard="0"
     inkscape:deskcolor="#d1d1d1" />
  <path
     id="path1"
     style="baseline-shift:baseline;display:inline;overflow:visible;vector-effect:none;fill:#000000;stroke:none;stroke-linecap:butt;stroke-linejoin:miter;enable-background:accumulate;stop-color:#000000;stop-opacity:1;opacity:1"
     d="M 7 1.125 C 5.9748301 1.125 5.125 1.9748301 5.125 3 L 5.125 8.125 L 4 8.125 C 2.4225454 8.125 1.125 9.4225454 1.125 11 L 1.125 16 C 1.125 17.577455 2.4225454 18.875 4 18.875 L 5.125 18.875 L 5.125 21 C 5.125 22.023615 5.9763851 22.875 7 22.875 L 17 22.875 C 18.023615 22.875 18.875 22.023615 18.875 21 L 18.875 18.875 L 20 18.875 C 21.577455 18.875 22.875 17.577455 22.875 16 L 22.875 11 C 22.875 9.4225454 21.577455 8.125 20 8.125 L 18.875 8.125 L 18.875 3 C 18.875 1.9748301 18.02517 1.125 17 1.125 L 7 1.125 z M 7 2.875 L 17 2.875 C 17.0794 2.875 17.125 2.9206 17.125 3 L 17.125 8.125 L 6.875 8.125 L 6.875 3 C 6.875 2.9206 6.9206 2.875 7 2.875 z M 4 9.875 L 20 9.875 C 20.631684 9.875 21.125 10.368316 21.125 11 L 21.125 16 C 21.125 16.631684 20.631684 17.125 20 17.125 L 18.875 17.125 L 18.875 15 C 18.875 13.976385 18.023615 13.125 17 13.125 L 7 13.125 C 5.9763851 13.125 5.125 13.976385 5.125 15 L 5.125 17.125 L 4 17.125 C 3.3683156 17.125 2.875 16.631684 2.875 16 L 2.875 11 C 2.875 10.368316 3.3683156 9.875 4 9.875 z M 7 14.875 L 17 14.875 C 17.08439 14.875 17.125 14.91562 17.125 15 L 17.125 18 L 17.125 21 C 17.125 21.08439 17.08439 21.125 17 21.125 L 7 21.125 C 6.915615 21.125 6.875 21.08439 6.875 21 L 6.875 18 L 6.875 15 C 6.875 14.91562 6.915615 14.875 7 14.875 z " />
</svg>
