<?xml version="1.0" encoding="UTF-8" standalone="no"?>
<svg
   width="24"
   height="24"
   viewBox="0 0 24 24"
   fill="none"
   stroke="currentColor"
   stroke-width="1.75"
   stroke-linecap="round"
   stroke-linejoin="round"
   version="1.1"
   id="svg1"
   sodipodi:docname=".tmp_radical.svg"
   xmlns:inkscape="http://www.inkscape.org/namespaces/inkscape"
   xmlns:sodipodi="http://sodipodi.sourceforge.net/DTD/sodipodi-0.dtd"
   xmlns="http://www.w3.org/2000/svg"
   xmlns:svg="http://www.w3.org/2000/svg">
  <defs
     id="defs1" />
  <sodipodi:namedview
     id="namedview1"
     pagecolor="#ffffff"
     bordercolor="#000000"
     borderopacity="0.25"
     inkscape:showpageshadow="2"
     inkscape:pageopacity="0.0"
     inkscape:pagecheckerboard="0"
     inkscape:deskcolor="#d1d1d1" />
  <path
     id="path1"
     style="baseline-shift:baseline;display:inline;overflow:visible;vector-effect:none;fill:#000000;stroke:none;stroke-linecap:butt;stroke-linejoin:miter;enable-background:accumulate;stop-color:#000000;stop-opacity:1;opacity:1"
     d="M 14.791016 3.125 C 13.926606 3.12623 13.166699 3.7288726 12.96875 4.5703125 A 0.8750875 0.8750875 0 0 0 12.962891 4.5898438 L 9.9414062 18.908203 L 8.0683594 12.441406 A 0.8750875 0.8750875 0 0 0 8.0585938 12.408203 C 7.8047394 11.646013 7.0846008 11.12561 6.28125 11.125 A 0.8750875 0.8750875 0 0 0 6.2792969 11.125 L 3 11.125 A 0.875 0.875 0 0 0 2.125 12 A 0.875 0.875 0 0 0 3 12.875 L 6.2792969 12.875 C 6.3353639 12.875043 6.3778499 12.906634 6.3964844 12.958984 L 8.6855469 20.861328 A 0.8750875 0.8750875 0 0 0 8.6972656 20.898438 C 8.8998541 21.497756 9.5153334 21.85711 10.0625 21.832031 C 10.609667 21.806951 11.190974 21.39268 11.337891 20.777344 A 0.8750875 0.8750875 0 0 0 11.341797 20.753906 L 14.671875 4.9707031 C 14.686225 4.9097111 14.730315 4.875089 14.792969 4.875 L 21 4.875 A 0.875 0.875 0 0 0 21.875 4 A 0.875 0.875 0 0 0 21 3.125 L 14.792969 3.125 A 0.8750875 0.8750875 0 0 0 14.791016 3.125 z " />
</svg>
