<?xml version="1.0" encoding="UTF-8" standalone="no"?>
<svg
   width="24"
   height="24"
   viewBox="0 0 24 24"
   fill="none"
   stroke="currentColor"
   stroke-width="1.75"
   stroke-linecap="round"
   stroke-linejoin="round"
   version="1.1"
   id="svg4"
   sodipodi:docname=".tmp_repeat-2.svg"
   xmlns:inkscape="http://www.inkscape.org/namespaces/inkscape"
   xmlns:sodipodi="http://sodipodi.sourceforge.net/DTD/sodipodi-0.dtd"
   xmlns="http://www.w3.org/2000/svg"
   xmlns:svg="http://www.w3.org/2000/svg">
  <defs
     id="defs4" />
  <sodipodi:namedview
     id="namedview4"
     pagecolor="#ffffff"
     bordercolor="#000000"
     borderopacity="0.25"
     inkscape:showpageshadow="2"
     inkscape:pageopacity="0.0"
     inkscape:pagecheckerboard="0"
     inkscape:deskcolor="#d1d1d1" />
  <path
     id="path1"
     style="baseline-shift:baseline;display:inline;overflow:visible;vector-effect:none;fill:#000000;stroke:none;stroke-linecap:butt;stroke-linejoin:miter;enable-background:accumulate;stop-color:#000000;stop-opacity:1;opacity:1"
     d="M 5 5.125 A 0.8750875 0.8750875 0 0 0 4.6640625 5.1914062 A 0.8750875 0.8750875 0 0 0 4.3808594 5.3808594 L 1.3808594 8.3808594 A 0.875 0.875 0 0 0 1.3808594 9.6191406 A 0.875 0.875 0 0 0 2.6191406 9.6191406 L 4.125 8.1132812 L 4.125 16 C 4.125 17.577455 5.4225454 18.875 7 18.875 L 13 18.875 A 0.875 0.875 0 0 0 13.875 18 A 0.875 0.875 0 0 0 13 17.125 L 7 17.125 C 6.3683156 17.125 5.875 16.631684 5.875 16 L 5.875 8.1132812 L 7.3808594 9.6191406 A 0.875 0.875 0 0 0 8.6191406 9.6191406 A 0.875 0.875 0 0 0 8.6191406 8.3808594 L 5.6191406 5.3808594 A 0.8750875 0.8750875 0 0 0 5.4375 5.2421875 A 0.875 0.875 0 0 0 5.3359375 5.1914062 A 0.8750875 0.8750875 0 0 0 5.3339844 5.1914062 A 0.875 0.875 0 0 0 5.2265625 5.1542969 A 0.8750875 0.8750875 0 0 0 5 5.125 z M 11 5.125 A 0.875 0.875 0 0 0 10.125 6 A 0.875 0.875 0 0 0 11 6.875 L 17 6.875 C 17.631684 6.875 18.125 7.3683156 18.125 8 L 18.125 15.886719 L 16.619141 14.380859 A 0.875 0.875 0 0 0 16 14.125 A 0.875 0.875 0 0 0 15.380859 14.380859 A 0.875 0.875 0 0 0 15.380859 15.619141 L 18.380859 18.619141 A 0.8750875 0.8750875 0 0 0 18.5625 18.757812 A 0.8750875 0.8750875 0 0 0 18.664062 18.808594 A 0.875 0.875 0 0 0 18.666016 18.808594 A 0.8750875 0.8750875 0 0 0 18.773438 18.845703 A 0.8750875 0.8750875 0 0 0 19 18.875 A 0.8750875 0.8750875 0 0 0 19.226562 18.845703 A 0.875 0.875 0 0 0 19.4375 18.757812 A 0.8750875 0.8750875 0 0 0 19.619141 18.619141 L 22.619141 15.619141 A 0.875 0.875 0 0 0 22.619141 14.380859 A 0.875 0.875 0 0 0 21.380859 14.380859 L 19.875 15.886719 L 19.875 8 C 19.875 6.4225454 18.577455 5.125 17 5.125 L 11 5.125 z " />
</svg>
