<?xml version="1.0" encoding="UTF-8" standalone="no"?>
<svg
   width="24"
   height="24"
   viewBox="0 0 24 24"
   fill="none"
   stroke="currentColor"
   stroke-width="1.75"
   stroke-linecap="round"
   stroke-linejoin="round"
   version="1.1"
   id="svg3"
   sodipodi:docname=".tmp_rotate-ccw-square.svg"
   xmlns:inkscape="http://www.inkscape.org/namespaces/inkscape"
   xmlns:sodipodi="http://sodipodi.sourceforge.net/DTD/sodipodi-0.dtd"
   xmlns="http://www.w3.org/2000/svg"
   xmlns:svg="http://www.w3.org/2000/svg">
  <defs
     id="defs3" />
  <sodipodi:namedview
     id="namedview3"
     pagecolor="#ffffff"
     bordercolor="#000000"
     borderopacity="0.25"
     inkscape:showpageshadow="2"
     inkscape:pageopacity="0.0"
     inkscape:pagecheckerboard="0"
     inkscape:deskcolor="#d1d1d1" />
  <path
     id="path1"
     style="baseline-shift:baseline;display:inline;overflow:visible;vector-effect:none;fill:#000000;stroke:none;stroke-linecap:butt;stroke-linejoin:miter;enable-background:accumulate;stop-color:#000000;stop-opacity:1;opacity:1"
     d="M 15 1.125 A 0.875 0.875 0 0 0 14.380859 1.3808594 L 11.380859 4.3808594 A 0.8750875 0.8750875 0 0 0 11.191406 4.6640625 A 0.875 0.875 0 0 0 11.191406 4.6660156 A 0.875 0.875 0 0 0 11.154297 4.7734375 A 0.8750875 0.8750875 0 0 0 11.154297 5.2265625 A 0.875 0.875 0 0 0 11.191406 5.3339844 A 0.8750875 0.8750875 0 0 0 11.191406 5.3359375 A 0.875 0.875 0 0 0 11.242188 5.4375 A 0.8750875 0.8750875 0 0 0 11.380859 5.6191406 L 14.380859 8.6191406 A 0.875 0.875 0 0 0 15.619141 8.6191406 A 0.875 0.875 0 0 0 15.619141 7.3808594 L 14.113281 5.875 L 18 5.875 C 18.631684 5.875 19.125 6.3683156 19.125 7 L 19.125 9 A 0.875 0.875 0 0 0 20 9.875 A 0.875 0.875 0 0 0 20.875 9 L 20.875 7 C 20.875 5.4225454 19.577455 4.125 18 4.125 L 14.113281 4.125 L 15.619141 2.6191406 A 0.875 0.875 0 0 0 15.619141 1.3808594 A 0.875 0.875 0 0 0 15 1.125 z M 6 4.125 C 4.4225454 4.125 3.125 5.4225454 3.125 7 L 3.125 18 C 3.125 19.577455 4.4225454 20.875 6 20.875 L 18 20.875 C 19.577455 20.875 20.875 19.577455 20.875 18 L 20.875 13 A 0.875 0.875 0 0 0 20 12.125 A 0.875 0.875 0 0 0 19.125 13 L 19.125 18 C 19.125 18.631684 18.631684 19.125 18 19.125 L 6 19.125 C 5.3683156 19.125 4.875 18.631684 4.875 18 L 4.875 7 C 4.875 6.3683156 5.3683156 5.875 6 5.875 L 8 5.875 A 0.875 0.875 0 0 0 8.875 5 A 0.875 0.875 0 0 0 8 4.125 L 6 4.125 z " />
</svg>
