<?xml version="1.0" encoding="UTF-8" standalone="no"?>
<svg
   width="24"
   height="24"
   viewBox="0 0 24 24"
   fill="none"
   stroke="currentColor"
   stroke-width="1.75"
   stroke-linecap="round"
   stroke-linejoin="round"
   version="1.1"
   id="svg4"
   sodipodi:docname=".tmp_rotate-ccw-key.svg"
   xmlns:inkscape="http://www.inkscape.org/namespaces/inkscape"
   xmlns:sodipodi="http://sodipodi.sourceforge.net/DTD/sodipodi-0.dtd"
   xmlns="http://www.w3.org/2000/svg"
   xmlns:svg="http://www.w3.org/2000/svg">
  <defs
     id="defs4" />
  <sodipodi:namedview
     id="namedview4"
     pagecolor="#ffffff"
     bordercolor="#000000"
     borderopacity="0.25"
     inkscape:showpageshadow="2"
     inkscape:pageopacity="0.0"
     inkscape:pagecheckerboard="0"
     inkscape:deskcolor="#d1d1d1" />
  <path
     id="path1"
     style="baseline-shift:baseline;display:inline;overflow:visible;vector-effect:none;fill:#000000;stroke:none;stroke-linecap:butt;stroke-linejoin:miter;enable-background:accumulate;stop-color:#000000;stop-opacity:1;opacity:1"
     d="M 3 2.125 A 0.875 0.875 0 0 0 2.125 3 L 2.125 8 A 0.8750875 0.8750875 0 0 0 2.1269531 8.0351562 A 0.875 0.875 0 0 0 2.1328125 8.0996094 A 0.8750875 0.8750875 0 0 0 2.1425781 8.1601562 A 0.875 0.875 0 0 0 2.1503906 8.2109375 A 0.8750875 0.8750875 0 0 0 2.1699219 8.2734375 A 0.875 0.875 0 0 0 2.1894531 8.3300781 A 0.8750875 0.8750875 0 0 0 2.1972656 8.3476562 A 0.875 0.875 0 0 0 2.3808594 8.6191406 A 0.8750875 0.8750875 0 0 0 2.4667969 8.6933594 A 0.875 0.875 0 0 0 2.6523438 8.8027344 A 0.8750875 0.8750875 0 0 0 2.6699219 8.8105469 A 0.875 0.875 0 0 0 2.7265625 8.8300781 A 0.8750875 0.8750875 0 0 0 2.7890625 8.8496094 A 0.875 0.875 0 0 0 2.8398438 8.8574219 A 0.8750875 0.8750875 0 0 0 2.9003906 8.8671875 A 0.875 0.875 0 0 0 2.9648438 8.8730469 A 0.8750875 0.8750875 0 0 0 3 8.875 L 8 8.875 A 0.875 0.875 0 0 0 8.875 8 A 0.875 0.875 0 0 0 8 7.125 L 5.1132812 7.125 L 5.8691406 6.3691406 C 7.5143517 4.7773586 9.7109066 3.883672 12 3.875 C 15.656739 3.875 18.330544 6.0527927 19.505859 8.890625 C 20.681175 11.728457 20.329493 15.158789 17.744141 17.744141 C 15.158789 20.329493 11.728457 20.681175 8.890625 19.505859 C 6.0527927 18.330544 3.875 15.656739 3.875 12 A 0.875 0.875 0 0 0 3 11.125 A 0.875 0.875 0 0 0 2.125 12 C 2.125 16.361962 4.7940642 19.703871 8.2207031 21.123047 C 11.647342 22.542222 15.898383 22.066461 18.982422 18.982422 C 22.066461 15.898383 22.542222 11.647342 21.123047 8.2207031 C 19.703871 4.7940642 16.361962 2.125 12 2.125 A 0.8750875 0.8750875 0 0 0 11.996094 2.125 C 9.2540871 2.1341829 6.6229806 3.2046887 4.6523438 5.1113281 A 0.8750875 0.8750875 0 0 0 4.640625 5.1210938 L 3.875 5.8867188 L 3.875 3 A 0.875 0.875 0 0 0 3 2.125 z M 15.5 7.625 A 0.875 0.875 0 0 0 14.880859 7.8808594 L 11.314453 11.447266 C 10.919527 11.24178 10.472502 11.125 10 11.125 C 8.4225454 11.125 7.125 12.422545 7.125 14 C 7.125 15.577455 8.4225454 16.875 10 16.875 C 11.577455 16.875 12.875 15.577455 12.875 14 C 12.875 13.527498 12.75822 13.080473 12.552734 12.685547 L 14.5 10.738281 L 14.880859 11.119141 A 0.875 0.875 0 0 0 16.119141 11.119141 A 0.875 0.875 0 0 0 16.119141 9.8808594 L 15.738281 9.5 L 16.119141 9.1191406 A 0.875 0.875 0 0 0 16.119141 7.8808594 A 0.875 0.875 0 0 0 15.5 7.625 z M 10 12.875 C 10.631684 12.875 11.125 13.368316 11.125 14 C 11.125 14.631684 10.631684 15.125 10 15.125 C 9.3683156 15.125 8.875 14.631684 8.875 14 C 8.875 13.368316 9.3683156 12.875 10 12.875 z " />
</svg>
