<?xml version="1.0" encoding="UTF-8" standalone="no"?>
<svg
   width="24"
   height="24"
   viewBox="0 0 24 24"
   fill="none"
   stroke="currentColor"
   stroke-width="1.75"
   stroke-linecap="round"
   stroke-linejoin="round"
   version="1.1"
   id="svg5"
   sodipodi:docname=".tmp_route-off.svg"
   xmlns:inkscape="http://www.inkscape.org/namespaces/inkscape"
   xmlns:sodipodi="http://sodipodi.sourceforge.net/DTD/sodipodi-0.dtd"
   xmlns="http://www.w3.org/2000/svg"
   xmlns:svg="http://www.w3.org/2000/svg">
  <defs
     id="defs5" />
  <sodipodi:namedview
     id="namedview5"
     pagecolor="#ffffff"
     bordercolor="#000000"
     borderopacity="0.25"
     inkscape:showpageshadow="2"
     inkscape:pageopacity="0.0"
     inkscape:pagecheckerboard="0"
     inkscape:deskcolor="#d1d1d1" />
  <path
     id="circle1"
     style="baseline-shift:baseline;display:inline;overflow:visible;vector-effect:none;fill:#000000;stroke:none;stroke-linecap:butt;stroke-linejoin:miter;enable-background:accumulate;stop-color:#000000;stop-opacity:1;opacity:1"
     d="M 2 1.125 A 0.875 0.875 0 0 0 1.3808594 1.3808594 A 0.875 0.875 0 0 0 1.3808594 2.6191406 L 3.7832031 5.0214844 C 2.438954 6.0843662 1.9338912 7.7922712 2.2226562 9.3027344 C 2.5791238 11.167334 4.1751465 12.862798 6.4960938 12.875 A 0.8750875 0.8750875 0 0 0 6.5 12.875 L 11.636719 12.875 L 16.886719 18.125 L 9.7753906 18.125 C 9.3755423 16.412361 7.8291376 15.125 6 15.125 C 3.8702607 15.125 2.125 16.870261 2.125 19 C 2.125 21.129739 3.8702607 22.875 6 22.875 C 7.8291376 22.875 9.3755423 21.587639 9.7753906 19.875 L 17.5 19.875 C 17.854202 19.875 18.201949 19.824327 18.521484 19.759766 L 21.380859 22.619141 A 0.875 0.875 0 0 0 22.619141 22.619141 A 0.875 0.875 0 0 0 22.619141 21.380859 L 2.6191406 1.3808594 A 0.875 0.875 0 0 0 2 1.125 z M 18 1.125 C 16.170863 1.125 14.624458 2.4123606 14.224609 4.125 L 10.699219 4.125 A 0.875 0.875 0 0 0 9.8242188 5 A 0.875 0.875 0 0 0 10.699219 5.875 L 14.224609 5.875 C 14.624458 7.5876394 16.170863 8.875 18 8.875 C 20.129739 8.875 21.875 7.1297393 21.875 5 C 21.875 2.8702607 20.129739 1.125 18 1.125 z M 18 2.875 C 19.183969 2.875 20.125 3.8160309 20.125 5 C 20.125 6.1839691 19.183969 7.125 18 7.125 C 16.816031 7.125 15.875 6.1839691 15.875 5 C 15.875 3.8160309 16.816031 2.875 18 2.875 z M 5.0292969 6.2675781 L 9.8867188 11.125 L 6.5039062 11.125 C 4.9924967 11.117054 4.1643962 10.141018 3.9414062 8.9746094 C 3.747686 7.9613036 4.0322529 6.904294 5.0292969 6.2675781 z M 17.748047 11.126953 A 0.875 0.875 0 0 0 16.826172 11.951172 A 0.875 0.875 0 0 0 17.650391 12.873047 C 18.99251 12.947777 20.052221 14.00749 20.126953 15.349609 A 0.875 0.875 0 0 0 21.048828 16.173828 A 0.875 0.875 0 0 0 21.873047 15.251953 C 21.749564 13.034327 19.965673 11.250436 17.748047 11.126953 z M 6 16.875 C 7.1839691 16.875 8.125 17.816031 8.125 19 C 8.125 20.183969 7.1839691 21.125 6 21.125 C 4.8160309 21.125 3.875 20.183969 3.875 19 C 3.875 17.816031 4.8160309 16.875 6 16.875 z " />
</svg>
