<?xml version="1.0" encoding="UTF-8" standalone="no"?>
<svg
   width="24"
   height="24"
   viewBox="0 0 24 24"
   fill="none"
   stroke="currentColor"
   stroke-width="1.75"
   stroke-linecap="round"
   stroke-linejoin="round"
   version="1.1"
   id="svg2"
   sodipodi:docname=".tmp_rss.svg"
   xmlns:inkscape="http://www.inkscape.org/namespaces/inkscape"
   xmlns:sodipodi="http://sodipodi.sourceforge.net/DTD/sodipodi-0.dtd"
   xmlns="http://www.w3.org/2000/svg"
   xmlns:svg="http://www.w3.org/2000/svg">
  <defs
     id="defs2" />
  <sodipodi:namedview
     id="namedview2"
     pagecolor="#ffffff"
     bordercolor="#000000"
     borderopacity="0.25"
     inkscape:showpageshadow="2"
     inkscape:pageopacity="0.0"
     inkscape:pagecheckerboard="0"
     inkscape:deskcolor="#d1d1d1" />
  <path
     id="path1"
     style="baseline-shift:baseline;display:inline;overflow:visible;vector-effect:none;fill:#000000;stroke:none;stroke-linecap:butt;stroke-linejoin:miter;enable-background:accumulate;stop-color:#000000;stop-opacity:1;opacity:1"
     d="M 4 3.125 A 0.875 0.875 0 0 0 3.125 4 A 0.875 0.875 0 0 0 4 4.875 C 12.363671 4.875 19.125 11.636329 19.125 20 A 0.875 0.875 0 0 0 20 20.875 A 0.875 0.875 0 0 0 20.875 20 C 20.875 10.690559 13.309441 3.125 4 3.125 z M 4 10.125 A 0.875 0.875 0 0 0 3.125 11 A 0.875 0.875 0 0 0 4 11.875 C 8.4976776 11.875 12.125 15.502322 12.125 20 A 0.875 0.875 0 0 0 13 20.875 A 0.875 0.875 0 0 0 13.875 20 C 13.875 14.556552 9.4434478 10.125 4 10.125 z M 5 17.125 C 3.9748301 17.125 3.125 17.97483 3.125 19 C 3.125 20.02517 3.9748301 20.875 5 20.875 C 6.0251699 20.875 6.875 20.02517 6.875 19 C 6.875 17.97483 6.0251699 17.125 5 17.125 z M 5 18.875 C 5.0794 18.875 5.125 18.9206 5.125 19 C 5.125 19.0794 5.0794 19.125 5 19.125 C 4.9206 19.125 4.875 19.0794 4.875 19 C 4.875 18.9206 4.9206 18.875 5 18.875 z " />
</svg>
