<?xml version="1.0" encoding="UTF-8" standalone="no"?>
<svg
   width="24"
   height="24"
   viewBox="0 0 24 24"
   fill="none"
   stroke="currentColor"
   stroke-width="1.75"
   stroke-linecap="round"
   stroke-linejoin="round"
   version="1.1"
   id="svg4"
   sodipodi:docname=".tmp_scaling.svg"
   xmlns:inkscape="http://www.inkscape.org/namespaces/inkscape"
   xmlns:sodipodi="http://sodipodi.sourceforge.net/DTD/sodipodi-0.dtd"
   xmlns="http://www.w3.org/2000/svg"
   xmlns:svg="http://www.w3.org/2000/svg">
  <defs
     id="defs4" />
  <sodipodi:namedview
     id="namedview4"
     pagecolor="#ffffff"
     bordercolor="#000000"
     borderopacity="0.25"
     inkscape:showpageshadow="2"
     inkscape:pageopacity="0.0"
     inkscape:pagecheckerboard="0"
     inkscape:deskcolor="#d1d1d1" />
  <path
     id="path1"
     style="baseline-shift:baseline;display:inline;overflow:visible;vector-effect:none;fill:#000000;stroke:none;stroke-linecap:butt;stroke-linejoin:miter;enable-background:accumulate;stop-color:#000000;stop-opacity:1;opacity:1"
     d="M 5 2.125 C 3.4225454 2.125 2.125 3.4225454 2.125 5 L 2.125 19 C 2.125 20.577455 3.4225454 21.875 5 21.875 L 19 21.875 C 20.577455 21.875 21.875 20.577455 21.875 19 L 21.875 12 A 0.875 0.875 0 0 0 21 11.125 A 0.875 0.875 0 0 0 20.125 12 L 20.125 19 C 20.125 19.631684 19.631684 20.125 19 20.125 L 5 20.125 C 4.3683156 20.125 3.875 19.631684 3.875 19 L 3.875 5 C 3.875 4.3683156 4.3683156 3.875 5 3.875 L 12 3.875 A 0.875 0.875 0 0 0 12.875 3 A 0.875 0.875 0 0 0 12 2.125 L 5 2.125 z M 16 2.125 A 0.875 0.875 0 0 0 15.125 3 A 0.875 0.875 0 0 0 16 3.875 L 18.886719 3.875 L 9.875 12.886719 L 9.875 10 A 0.875 0.875 0 0 0 9 9.125 A 0.875 0.875 0 0 0 8.125 10 L 8.125 14.960938 L 8.125 15 A 0.8750875 0.8750875 0 0 0 8.1269531 15.035156 A 0.875 0.875 0 0 0 8.1328125 15.099609 A 0.8750875 0.8750875 0 0 0 8.1425781 15.160156 A 0.875 0.875 0 0 0 8.1503906 15.210938 A 0.8750875 0.8750875 0 0 0 8.1699219 15.273438 A 0.875 0.875 0 0 0 8.1894531 15.330078 A 0.8750875 0.8750875 0 0 0 8.1972656 15.347656 A 0.875 0.875 0 0 0 8.2421875 15.4375 A 0.875 0.875 0 0 0 8.3066406 15.533203 A 0.8750875 0.8750875 0 0 0 8.4667969 15.693359 A 0.875 0.875 0 0 0 8.5625 15.757812 A 0.875 0.875 0 0 0 8.6523438 15.802734 A 0.8750875 0.8750875 0 0 0 8.6699219 15.810547 A 0.875 0.875 0 0 0 8.7265625 15.830078 A 0.8750875 0.8750875 0 0 0 8.7890625 15.849609 A 0.875 0.875 0 0 0 8.8398438 15.857422 A 0.8750875 0.8750875 0 0 0 8.9003906 15.867188 A 0.875 0.875 0 0 0 8.9648438 15.873047 A 0.8750875 0.8750875 0 0 0 9 15.875 L 9.0390625 15.875 L 14 15.875 A 0.875 0.875 0 0 0 14.875 15 A 0.875 0.875 0 0 0 14 14.125 L 11.113281 14.125 L 20.125 5.1132812 L 20.125 8 A 0.875 0.875 0 0 0 21 8.875 A 0.875 0.875 0 0 0 21.875 8 L 21.875 3.0390625 L 21.875 3 A 0.8750875 0.8750875 0 0 0 21.873047 2.9648438 A 0.875 0.875 0 0 0 21.867188 2.9003906 A 0.8750875 0.8750875 0 0 0 21.857422 2.8398438 A 0.8750875 0.8750875 0 0 0 21.851562 2.7988281 A 0.875 0.875 0 0 0 21.849609 2.7890625 A 0.8750875 0.8750875 0 0 0 21.830078 2.7265625 A 0.875 0.875 0 0 0 21.810547 2.6699219 A 0.875 0.875 0 0 0 21.808594 2.6660156 A 0.8750875 0.8750875 0 0 0 21.802734 2.6523438 A 0.875 0.875 0 0 0 21.757812 2.5625 A 0.875 0.875 0 0 0 21.693359 2.4667969 A 0.8750875 0.8750875 0 0 0 21.619141 2.3808594 A 0.875 0.875 0 0 0 21.4375 2.2421875 A 0.8750875 0.8750875 0 0 0 21.335938 2.1914062 A 0.875 0.875 0 0 0 21.333984 2.1914062 A 0.8750875 0.8750875 0 0 0 21.115234 2.1328125 A 0.875 0.875 0 0 0 21.113281 2.1328125 A 0.8750875 0.8750875 0 0 0 21 2.125 L 20.998047 2.125 L 16 2.125 z " />
</svg>
