<?xml version="1.0" encoding="UTF-8" standalone="no"?>
<svg
   width="24"
   height="24"
   viewBox="0 0 24 24"
   fill="none"
   stroke="currentColor"
   stroke-width="1.75"
   stroke-linecap="round"
   stroke-linejoin="round"
   version="1.1"
   id="svg3"
   sodipodi:docname=".tmp_scale-3d.svg"
   xmlns:inkscape="http://www.inkscape.org/namespaces/inkscape"
   xmlns:sodipodi="http://sodipodi.sourceforge.net/DTD/sodipodi-0.dtd"
   xmlns="http://www.w3.org/2000/svg"
   xmlns:svg="http://www.w3.org/2000/svg">
  <defs
     id="defs3" />
  <sodipodi:namedview
     id="namedview3"
     pagecolor="#ffffff"
     bordercolor="#000000"
     borderopacity="0.25"
     inkscape:showpageshadow="2"
     inkscape:pageopacity="0.0"
     inkscape:pagecheckerboard="0"
     inkscape:deskcolor="#d1d1d1" />
  <path
     id="path1"
     style="baseline-shift:baseline;display:inline;overflow:visible;vector-effect:none;fill:#000000;stroke:none;stroke-linecap:butt;stroke-linejoin:miter;enable-background:accumulate;stop-color:#000000;stop-opacity:1;opacity:1"
     d="M 5 2.125 C 3.4225454 2.125 2.125 3.4225454 2.125 5 C 2.125 6.2729145 2.9699039 7.3626541 4.125 7.7363281 L 4.125 18 C 4.125 18.463203 4.299214 18.891308 4.5839844 19.220703 A 0.875 0.875 0 0 0 4.6738281 19.326172 A 0.875 0.875 0 0 0 4.7792969 19.416016 C 5.1086921 19.700786 5.5367978 19.875 6 19.875 L 16.263672 19.875 C 16.637346 21.030096 17.727085 21.875 19 21.875 C 20.577455 21.875 21.875 20.577455 21.875 19 C 21.875 17.422545 20.577455 16.125 19 16.125 C 17.727085 16.125 16.637346 16.969904 16.263672 18.125 L 7.1132812 18.125 L 11.619141 13.619141 A 0.875 0.875 0 0 0 11.619141 12.380859 A 0.875 0.875 0 0 0 10.380859 12.380859 L 5.875 16.886719 L 5.875 7.7363281 C 7.0300961 7.3626541 7.875 6.2729145 7.875 5 C 7.875 3.4225454 6.5774546 2.125 5 2.125 z M 5 3.875 C 5.6316844 3.875 6.125 4.3683156 6.125 5 C 6.125 5.6316832 5.6316827 6.1249981 5 6.125 C 4.3683156 6.125 3.875 5.6316844 3.875 5 C 3.875 4.3683156 4.3683156 3.875 5 3.875 z M 19 17.875 C 19.631684 17.875 20.125 18.368316 20.125 19 C 20.125 19.631684 19.631684 20.125 19 20.125 C 18.368317 20.125 17.875002 19.631682 17.875 19 C 17.875 18.368316 18.368316 17.875 19 17.875 z " />
</svg>
