<?xml version="1.0" encoding="UTF-8" standalone="no"?>
<svg
   width="24"
   height="24"
   viewBox="0 0 24 24"
   fill="none"
   stroke="currentColor"
   stroke-width="1.75"
   stroke-linecap="round"
   stroke-linejoin="round"
   version="1.1"
   id="svg5"
   sodipodi:docname=".tmp_scan-search.svg"
   xmlns:inkscape="http://www.inkscape.org/namespaces/inkscape"
   xmlns:sodipodi="http://sodipodi.sourceforge.net/DTD/sodipodi-0.dtd"
   xmlns="http://www.w3.org/2000/svg"
   xmlns:svg="http://www.w3.org/2000/svg">
  <defs
     id="defs5" />
  <sodipodi:namedview
     id="namedview5"
     pagecolor="#ffffff"
     bordercolor="#000000"
     borderopacity="0.25"
     inkscape:showpageshadow="2"
     inkscape:pageopacity="0.0"
     inkscape:pagecheckerboard="0"
     inkscape:deskcolor="#d1d1d1" />
  <path
     id="path1"
     style="baseline-shift:baseline;display:inline;overflow:visible;vector-effect:none;fill:#000000;stroke:none;stroke-linecap:butt;stroke-linejoin:miter;enable-background:accumulate;stop-color:#000000;stop-opacity:1;opacity:1"
     d="M 5 2.125 C 3.4225454 2.125 2.125 3.4225454 2.125 5 L 2.125 7 A 0.875 0.875 0 0 0 3 7.875 A 0.875 0.875 0 0 0 3.875 7 L 3.875 5 C 3.875 4.3683156 4.3683156 3.875 5 3.875 L 7 3.875 A 0.875 0.875 0 0 0 7.875 3 A 0.875 0.875 0 0 0 7 2.125 L 5 2.125 z M 17 2.125 A 0.875 0.875 0 0 0 16.125 3 A 0.875 0.875 0 0 0 17 3.875 L 19 3.875 C 19.631684 3.875 20.125 4.3683156 20.125 5 L 20.125 7 A 0.875 0.875 0 0 0 21 7.875 A 0.875 0.875 0 0 0 21.875 7 L 21.875 5 C 21.875 3.4225454 20.577455 2.125 19 2.125 L 17 2.125 z M 12 8.125 C 9.8702607 8.125 8.125 9.8702607 8.125 12 C 8.125 14.129739 9.8702607 15.875 12 15.875 C 12.749821 15.875 13.451755 15.658437 14.046875 15.285156 L 15.380859 16.619141 A 0.875 0.875 0 0 0 16.619141 16.619141 A 0.875 0.875 0 0 0 16.619141 15.380859 L 15.285156 14.046875 C 15.658437 13.451755 15.875 12.749821 15.875 12 C 15.875 9.8702607 14.129739 8.125 12 8.125 z M 12 9.875 C 13.183969 9.875 14.125 10.816031 14.125 12 C 14.125 12.51452 13.946578 12.982188 13.648438 13.347656 A 0.875 0.875 0 0 0 13.480469 13.480469 A 0.875 0.875 0 0 0 13.347656 13.648438 C 12.982188 13.946578 12.51452 14.125 12 14.125 C 10.816031 14.125 9.875 13.183969 9.875 12 C 9.875 10.816031 10.816031 9.875 12 9.875 z M 3 16.125 A 0.875 0.875 0 0 0 2.125 17 L 2.125 19 C 2.125 20.577455 3.4225454 21.875 5 21.875 L 7 21.875 A 0.875 0.875 0 0 0 7.875 21 A 0.875 0.875 0 0 0 7 20.125 L 5 20.125 C 4.3683156 20.125 3.875 19.631684 3.875 19 L 3.875 17 A 0.875 0.875 0 0 0 3 16.125 z M 21 16.125 A 0.875 0.875 0 0 0 20.125 17 L 20.125 19 C 20.125 19.631684 19.631684 20.125 19 20.125 L 17 20.125 A 0.875 0.875 0 0 0 16.125 21 A 0.875 0.875 0 0 0 17 21.875 L 19 21.875 C 20.577455 21.875 21.875 20.577455 21.875 19 L 21.875 17 A 0.875 0.875 0 0 0 21 16.125 z " />
</svg>
