<?xml version="1.0" encoding="UTF-8" standalone="no"?>
<svg
   width="24"
   height="24"
   viewBox="0 0 24 24"
   fill="none"
   stroke="currentColor"
   stroke-width="1.75"
   stroke-linecap="round"
   stroke-linejoin="round"
   version="1.1"
   id="svg5"
   sodipodi:docname=".tmp_scissors-line-dashed.svg"
   xmlns:inkscape="http://www.inkscape.org/namespaces/inkscape"
   xmlns:sodipodi="http://sodipodi.sourceforge.net/DTD/sodipodi-0.dtd"
   xmlns="http://www.w3.org/2000/svg"
   xmlns:svg="http://www.w3.org/2000/svg">
  <defs
     id="defs5" />
  <sodipodi:namedview
     id="namedview5"
     pagecolor="#ffffff"
     bordercolor="#000000"
     borderopacity="0.25"
     inkscape:showpageshadow="2"
     inkscape:pageopacity="0.0"
     inkscape:pagecheckerboard="0"
     inkscape:deskcolor="#d1d1d1" />
  <path
     id="path1"
     style="baseline-shift:baseline;display:inline;overflow:visible;vector-effect:none;fill:#000000;stroke:none;stroke-linecap:butt;stroke-linejoin:miter;enable-background:accumulate;stop-color:#000000;stop-opacity:1;opacity:1"
     d="M 4 5.125 C 2.4225454 5.125 1.125 6.4225454 1.125 8 C 1.125 9.5774546 2.4225454 10.875 4 10.875 C 4.4725019 10.875 4.9195271 10.75822 5.3144531 10.552734 L 6.7617188 12 L 5.3144531 13.447266 C 4.9195269 13.24178 4.4725021 13.125 4 13.125 C 2.4225454 13.125 1.125 14.422545 1.125 16 C 1.125 17.577455 2.4225454 18.875 4 18.875 C 5.5774546 18.875 6.875 17.577455 6.875 16 C 6.875 15.527498 6.7582197 15.080473 6.5527344 14.685547 L 14.619141 6.6191406 A 0.875 0.875 0 0 0 14.619141 5.3808594 A 0.875 0.875 0 0 0 13.380859 5.3808594 L 8 10.761719 L 6.5527344 9.3144531 C 6.7582198 8.919527 6.875 8.472502 6.875 8 C 6.875 6.4225454 5.5774546 5.125 4 5.125 z M 4 6.875 C 4.6316844 6.875 5.125 7.3683156 5.125 8 C 5.125 8.6316844 4.6316844 9.125 4 9.125 C 3.3683156 9.125 2.875 8.6316844 2.875 8 C 2.875 7.3683156 3.3683156 6.875 4 6.875 z M 14 11.125 A 0.875 0.875 0 0 0 13.125 12 A 0.875 0.875 0 0 0 14 12.875 L 16 12.875 A 0.875 0.875 0 0 0 16.875 12 A 0.875 0.875 0 0 0 16 11.125 L 14 11.125 z M 20 11.125 A 0.875 0.875 0 0 0 19.125 12 A 0.875 0.875 0 0 0 20 12.875 L 22 12.875 A 0.875 0.875 0 0 0 22.875 12 A 0.875 0.875 0 0 0 22 11.125 L 20 11.125 z M 10.800781 13.925781 A 0.875 0.875 0 0 0 10.181641 14.181641 A 0.875 0.875 0 0 0 10.181641 15.417969 L 13.380859 18.619141 A 0.875 0.875 0 0 0 14.619141 18.619141 A 0.875 0.875 0 0 0 14.619141 17.380859 L 11.417969 14.181641 A 0.875 0.875 0 0 0 10.800781 13.925781 z M 4 14.875 C 4.6316844 14.875 5.125 15.368316 5.125 16 C 5.125 16.631684 4.6316844 17.125 4 17.125 C 3.3683156 17.125 2.875 16.631684 2.875 16 C 2.875 15.368316 3.3683156 14.875 4 14.875 z " />
</svg>
