<?xml version="1.0" encoding="UTF-8" standalone="no"?>
<svg
   width="24"
   height="24"
   viewBox="0 0 24 24"
   fill="none"
   stroke="currentColor"
   stroke-width="1.75"
   stroke-linecap="round"
   stroke-linejoin="round"
   version="1.1"
   id="svg1"
   sodipodi:docname=".tmp_settings.svg"
   xmlns:inkscape="http://www.inkscape.org/namespaces/inkscape"
   xmlns:sodipodi="http://sodipodi.sourceforge.net/DTD/sodipodi-0.dtd"
   xmlns="http://www.w3.org/2000/svg"
   xmlns:svg="http://www.w3.org/2000/svg">
  <defs
     id="defs1" />
  <sodipodi:namedview
     id="namedview1"
     pagecolor="#ffffff"
     bordercolor="#000000"
     borderopacity="0.25"
     inkscape:showpageshadow="2"
     inkscape:pageopacity="0.0"
     inkscape:pagecheckerboard="0"
     inkscape:deskcolor="#d1d1d1" />
  <path
     id="path1"
     style="baseline-shift:baseline;display:inline;overflow:visible;vector-effect:none;fill:#000000;stroke:none;stroke-linecap:butt;stroke-linejoin:miter;enable-background:accumulate;stop-color:#000000;stop-opacity:1;opacity:1"
     d="M 12 1.1425781 C 10.528308 1.1425781 8.9790679 2.2193451 8.8027344 4.0488281 L 8.8027344 4.0507812 L 8.8007812 4.0507812 L 8.8007812 4.0527344 A 0.875 0.875 0 0 0 8.796875 4.0585938 C 8.7049442 5.0980598 7.6646796 5.6984569 6.71875 5.2578125 A 0.8750875 0.8750875 0 0 0 6.7109375 5.2539062 C 5.0399498 4.4978347 3.3363344 5.3018551 2.6015625 6.5742188 C 1.8667906 7.8465824 2.0216631 9.7255409 3.5117188 10.794922 A 0.8750875 0.8750875 0 0 0 3.5175781 10.800781 C 4.3714468 11.399914 4.3714468 12.600086 3.5175781 13.199219 A 0.8750875 0.8750875 0 0 0 3.5117188 13.203125 C 2.0192742 14.272178 1.8641072 16.1527 2.5996094 17.425781 C 3.3351115 18.698863 5.0412772 19.50307 6.7128906 18.744141 A 0.8750875 0.8750875 0 0 0 6.7207031 18.740234 C 7.6668365 18.298974 8.7070572 18.899522 8.7988281 19.939453 A 0.8750875 0.8750875 0 0 0 8.8007812 19.945312 C 8.9749463 21.777601 10.52707 22.857422 12 22.857422 C 13.47293 22.857422 15.027007 21.777601 15.201172 19.945312 A 0.8750875 0.8750875 0 0 0 15.201172 19.939453 C 15.293102 18.899983 16.333367 18.29959 17.279297 18.740234 A 0.8750875 0.8750875 0 0 0 17.287109 18.744141 C 18.958723 19.50307 20.664888 18.698861 21.400391 17.425781 C 22.135893 16.1527 21.980726 14.272178 20.488281 13.203125 A 0.8750875 0.8750875 0 0 0 20.482422 13.199219 C 19.628553 12.600086 19.628553 11.399914 20.482422 10.800781 A 0.8750875 0.8750875 0 0 0 20.488281 10.794922 C 21.980744 9.7258685 22.135893 7.8473004 21.400391 6.5742188 C 20.664888 5.3011371 18.958723 4.4949768 17.287109 5.2539062 A 0.8750875 0.8750875 0 0 0 17.279297 5.2578125 C 16.333355 5.6984532 15.293103 5.0980643 15.201172 4.0585938 A 0.8750875 0.8750875 0 0 0 15.201172 4.0527344 C 15.027007 2.2204467 13.47293 1.1425781 12 1.1425781 z M 12 2.8925781 C 12.722318 2.8925781 13.364646 3.2262745 13.458984 4.21875 C 13.656434 6.4059831 16.017029 7.7693555 18.009766 6.8476562 L 18.017578 6.84375 C 18.91752 6.4391848 19.525389 6.8271734 19.884766 7.4492188 C 20.245235 8.0731564 20.276271 8.7946113 19.46875 9.3730469 C 17.674863 10.639967 17.677264 13.368349 19.476562 14.630859 L 19.46875 14.626953 C 20.276271 15.205389 20.245235 15.926844 19.884766 16.550781 C 19.525389 17.172827 18.91752 17.558874 18.017578 17.154297 L 18.009766 17.150391 C 16.017029 16.228691 13.656434 17.592064 13.458984 19.779297 C 13.364646 20.77181 12.722318 21.107422 12 21.107422 C 11.279145 21.107422 10.639321 20.772968 10.542969 19.785156 L 10.542969 19.779297 C 10.345931 17.591755 7.9829718 16.228976 5.9902344 17.150391 C 5.988863 17.151013 5.9876982 17.151725 5.9863281 17.152344 C 5.9844361 17.153222 5.9823601 17.153415 5.9804688 17.154297 C 5.0814631 17.557623 4.4743843 17.172437 4.1152344 16.550781 C 3.7547603 15.926838 3.7237291 15.205389 4.53125 14.626953 L 4.5234375 14.630859 C 6.3227363 13.368349 6.3251377 10.639967 4.53125 9.3730469 L 4.5234375 9.3671875 C 3.7260067 8.7898289 3.7583892 8.0724829 4.1171875 7.4511719 C 4.4759009 6.8300078 5.0821639 6.4421336 5.9804688 6.84375 C 5.982363 6.8446324 5.9844332 6.8448249 5.9863281 6.8457031 C 5.9876971 6.8463195 5.988864 6.8470362 5.9902344 6.8476562 C 7.9750569 7.7643107 10.318325 6.4123402 10.53125 4.2402344 A 0.875 0.875 0 0 0 10.542969 4.21875 C 10.637307 3.2262745 11.277682 2.8925781 12 2.8925781 z M 12 8.125 C 9.8702607 8.125 8.125 9.8702607 8.125 12 C 8.125 14.129739 9.8702607 15.875 12 15.875 C 14.129739 15.875 15.875 14.129739 15.875 12 C 15.875 9.8702607 14.129739 8.125 12 8.125 z M 12 9.875 C 13.183969 9.875 14.125 10.816031 14.125 12 C 14.125 13.183969 13.183969 14.125 12 14.125 C 10.816031 14.125 9.875 13.183969 9.875 12 C 9.875 10.816031 10.816031 9.875 12 9.875 z " />
</svg>
