<?xml version="1.0" encoding="UTF-8" standalone="no"?>
<svg
   width="24"
   height="24"
   viewBox="0 0 24 24"
   fill="none"
   stroke="currentColor"
   stroke-width="1.75"
   stroke-linecap="round"
   stroke-linejoin="round"
   version="1.1"
   id="svg10"
   sodipodi:docname=".tmp_shower-head.svg"
   xmlns:inkscape="http://www.inkscape.org/namespaces/inkscape"
   xmlns:sodipodi="http://sodipodi.sourceforge.net/DTD/sodipodi-0.dtd"
   xmlns="http://www.w3.org/2000/svg"
   xmlns:svg="http://www.w3.org/2000/svg">
  <defs
     id="defs10" />
  <sodipodi:namedview
     id="namedview10"
     pagecolor="#ffffff"
     bordercolor="#000000"
     borderopacity="0.25"
     inkscape:showpageshadow="2"
     inkscape:pageopacity="0.0"
     inkscape:pagecheckerboard="0"
     inkscape:deskcolor="#d1d1d1" />
  <path
     id="path1"
     style="baseline-shift:baseline;display:inline;overflow:visible;vector-effect:none;fill:#000000;stroke:none;stroke-linecap:butt;stroke-linejoin:miter;enable-background:accumulate;stop-color:#000000;stop-opacity:1;opacity:1"
     d="M 4 3.125 A 0.875 0.875 0 0 0 3.3808594 3.3808594 A 0.875 0.875 0 0 0 3.3808594 4.6191406 L 5.3398438 6.578125 C 4.6549195 7.4815511 4.2081155 8.5712661 4.1347656 9.7402344 C 4.0573381 10.974189 4.4223043 12.284414 5.3066406 13.455078 L 4.3808594 14.380859 A 0.875 0.875 0 0 0 4.3808594 15.619141 A 0.875 0.875 0 0 0 5.6191406 15.619141 L 7.1132812 14.125 A 0.875 0.875 0 0 0 7.125 14.113281 L 14.113281 7.125 A 0.875 0.875 0 0 0 14.125 7.1132812 L 15.619141 5.6191406 A 0.875 0.875 0 0 0 15.619141 4.3808594 A 0.875 0.875 0 0 0 14.380859 4.3808594 L 13.455078 5.3066406 C 12.284414 4.4223043 10.974189 4.0573381 9.7402344 4.1347656 C 8.5712661 4.2081155 7.4815511 4.6549195 6.578125 5.3398438 L 4.6191406 3.3808594 A 0.875 0.875 0 0 0 4 3.125 z M 10.140625 5.8730469 C 10.819803 5.8824205 11.514177 6.0793116 12.205078 6.5566406 L 6.5566406 12.205078 C 6.0111218 11.415477 5.8325003 10.620302 5.8808594 9.8496094 C 5.9431866 8.8563079 6.4221548 7.886439 7.1542969 7.1542969 C 7.886439 6.4221548 8.8563079 5.9431866 9.8496094 5.8808594 C 9.945946 5.8748145 10.0436 5.8717078 10.140625 5.8730469 z M 16 9.125 A 0.875 0.875 0 0 0 15.125 10 L 15.125 10.009766 A 0.875 0.875 0 0 0 16 10.884766 A 0.875 0.875 0 0 0 16.875 10.009766 L 16.875 10 A 0.875 0.875 0 0 0 16 9.125 z M 20 10.125 A 0.875 0.875 0 0 0 19.125 11 L 19.125 11.009766 A 0.875 0.875 0 0 0 20 11.884766 A 0.875 0.875 0 0 0 20.875 11.009766 L 20.875 11 A 0.875 0.875 0 0 0 20 10.125 z M 13 12.125 A 0.875 0.875 0 0 0 12.125 13 L 12.125 13.009766 A 0.875 0.875 0 0 0 13 13.884766 A 0.875 0.875 0 0 0 13.875 13.009766 L 13.875 13 A 0.875 0.875 0 0 0 13 12.125 z M 17 13.125 A 0.875 0.875 0 0 0 16.125 14 L 16.125 14.009766 A 0.875 0.875 0 0 0 17 14.884766 A 0.875 0.875 0 0 0 17.875 14.009766 L 17.875 14 A 0.875 0.875 0 0 0 17 13.125 z M 10 15.125 A 0.875 0.875 0 0 0 9.125 16 L 9.125 16.009766 A 0.875 0.875 0 0 0 10 16.884766 A 0.875 0.875 0 0 0 10.875 16.009766 L 10.875 16 A 0.875 0.875 0 0 0 10 15.125 z M 14 16.125 A 0.875 0.875 0 0 0 13.125 17 L 13.125 17.009766 A 0.875 0.875 0 0 0 14 17.884766 A 0.875 0.875 0 0 0 14.875 17.009766 L 14.875 17 A 0.875 0.875 0 0 0 14 16.125 z M 11 19.125 A 0.875 0.875 0 0 0 10.125 20 L 10.125 20.009766 A 0.875 0.875 0 0 0 11 20.884766 A 0.875 0.875 0 0 0 11.875 20.009766 L 11.875 20 A 0.875 0.875 0 0 0 11 19.125 z " />
</svg>
