<?xml version="1.0" encoding="UTF-8" standalone="no"?>
<svg
   width="24"
   height="24"
   viewBox="0 0 24 24"
   fill="none"
   stroke="currentColor"
   stroke-width="1.75"
   stroke-linecap="round"
   stroke-linejoin="round"
   version="1.1"
   id="svg2"
   sodipodi:docname=".tmp_skip-back.svg"
   xmlns:inkscape="http://www.inkscape.org/namespaces/inkscape"
   xmlns:sodipodi="http://sodipodi.sourceforge.net/DTD/sodipodi-0.dtd"
   xmlns="http://www.w3.org/2000/svg"
   xmlns:svg="http://www.w3.org/2000/svg">
  <defs
     id="defs2" />
  <sodipodi:namedview
     id="namedview2"
     pagecolor="#ffffff"
     bordercolor="#000000"
     borderopacity="0.25"
     inkscape:showpageshadow="2"
     inkscape:pageopacity="0.0"
     inkscape:pagecheckerboard="0"
     inkscape:deskcolor="#d1d1d1" />
  <path
     id="path1"
     style="baseline-shift:baseline;display:inline;overflow:visible;vector-effect:none;fill:#000000;stroke:none;stroke-linecap:butt;stroke-linejoin:miter;enable-background:accumulate;stop-color:#000000;stop-opacity:1;opacity:1"
     d="M 3 3.125 A 0.875 0.875 0 0 0 2.125 4 L 2.125 20 A 0.875 0.875 0 0 0 3 20.875 A 0.875 0.875 0 0 0 3.875 20 L 3.875 4 A 0.875 0.875 0 0 0 3 3.125 z M 18.994141 3.1367188 C 18.497868 3.1296088 17.99117 3.2533413 17.521484 3.5351562 L 7.5214844 9.5351562 C 5.6916515 10.632775 5.6936416 13.374332 7.5253906 14.46875 L 17.521484 20.464844 C 19.400229 21.592103 21.875021 20.19098 21.875 18 L 21.875 6 C 21.875016 4.356765 20.482959 3.158056 18.994141 3.1367188 z M 19.019531 4.8574219 C 19.216 4.8540019 19.404593 4.9033704 19.568359 4.9960938 C 19.895893 5.1815409 20.125004 5.5408881 20.125 6 L 20.125 18 C 20.125009 18.918224 19.209243 19.43727 18.421875 18.964844 L 8.4238281 12.966797 A 0.8750875 0.8750875 0 0 0 8.421875 12.966797 C 7.6583963 12.51064 7.659195 11.492647 8.421875 11.035156 L 18.421875 5.0351562 C 18.618717 4.9170498 18.823062 4.8608418 19.019531 4.8574219 z " />
</svg>
