<?xml version="1.0" encoding="UTF-8" standalone="no"?>
<svg
   width="24"
   height="24"
   viewBox="0 0 24 24"
   fill="none"
   stroke="currentColor"
   stroke-width="1.75"
   stroke-linecap="round"
   stroke-linejoin="round"
   version="1.1"
   id="svg2"
   sodipodi:docname=".tmp_square-pen.svg"
   xmlns:inkscape="http://www.inkscape.org/namespaces/inkscape"
   xmlns:sodipodi="http://sodipodi.sourceforge.net/DTD/sodipodi-0.dtd"
   xmlns="http://www.w3.org/2000/svg"
   xmlns:svg="http://www.w3.org/2000/svg">
  <defs
     id="defs2" />
  <sodipodi:namedview
     id="namedview2"
     pagecolor="#ffffff"
     bordercolor="#000000"
     borderopacity="0.25"
     inkscape:showpageshadow="2"
     inkscape:pageopacity="0.0"
     inkscape:pagecheckerboard="0"
     inkscape:deskcolor="#d1d1d1" />
  <path
     id="path1"
     style="baseline-shift:baseline;display:inline;overflow:visible;vector-effect:none;fill:#000000;stroke:none;stroke-linecap:butt;stroke-linejoin:miter;enable-background:accumulate;stop-color:#000000;stop-opacity:1;opacity:1"
     d="M 19.726562 1.0957031 C 19.040125 1.1318174 18.328704 1.4330148 17.755859 2.0058594 L 8.7441406 11.019531 C 8.4028083 11.360277 8.1514966 11.781373 8.015625 12.244141 A 0.8750875 0.8750875 0 0 0 8.015625 12.246094 L 7.1757812 15.119141 C 6.8848661 16.116564 7.883436 17.115134 8.8808594 16.824219 L 11.753906 15.984375 C 12.217043 15.849136 12.639158 15.598828 12.980469 15.257812 L 21.994141 6.2441406 C 22.64882 5.5894612 22.949721 4.7526813 22.904297 3.9804688 C 22.858872 3.208256 22.506634 2.5183523 21.994141 2.0058594 C 21.481648 1.4933664 20.791744 1.1411276 20.019531 1.0957031 C 19.923005 1.0900251 19.824625 1.0905439 19.726562 1.0957031 z M 5 2.125 C 3.4225454 2.125 2.125 3.4225454 2.125 5 L 2.125 19 C 2.125 20.577455 3.4225454 21.875 5 21.875 L 19 21.875 C 20.577455 21.875 21.875 20.577455 21.875 19 L 21.875 12 A 0.875 0.875 0 0 0 21 11.125 A 0.875 0.875 0 0 0 20.125 12 L 20.125 19 C 20.125 19.631684 19.631684 20.125 19 20.125 L 5 20.125 C 4.3683156 20.125 3.875 19.631684 3.875 19 L 3.875 5 C 3.875 4.3683156 4.3683156 3.875 5 3.875 L 12 3.875 A 0.875 0.875 0 0 0 12.875 3 A 0.875 0.875 0 0 0 12 2.125 L 5 2.125 z M 19.808594 2.8398438 C 19.844931 2.8387773 19.881683 2.8396624 19.917969 2.8417969 C 20.208256 2.8588729 20.518352 3.0066336 20.755859 3.2441406 C 20.993366 3.4816477 21.141127 3.7917441 21.158203 4.0820312 C 21.175283 4.3723184 21.101183 4.6605393 20.755859 5.0058594 L 11.744141 14.019531 C 11.610549 14.153007 11.444947 14.251753 11.263672 14.304688 L 9.046875 14.953125 L 9.6953125 12.738281 L 9.6953125 12.736328 C 9.7486014 12.555887 9.8472704 12.390781 9.9804688 12.257812 L 18.994141 3.2441406 C 19.296296 2.9419855 19.554236 2.8473086 19.808594 2.8398438 z " />
</svg>
