<?xml version="1.0" encoding="UTF-8" standalone="no"?>
<svg
   width="24"
   height="24"
   viewBox="0 0 24 24"
   fill="none"
   stroke="currentColor"
   stroke-width="1.75"
   stroke-linecap="round"
   stroke-linejoin="round"
   version="1.1"
   id="svg12"
   sodipodi:docname=".tmp_square-dashed.svg"
   xmlns:inkscape="http://www.inkscape.org/namespaces/inkscape"
   xmlns:sodipodi="http://sodipodi.sourceforge.net/DTD/sodipodi-0.dtd"
   xmlns="http://www.w3.org/2000/svg"
   xmlns:svg="http://www.w3.org/2000/svg">
  <defs
     id="defs12" />
  <sodipodi:namedview
     id="namedview12"
     pagecolor="#ffffff"
     bordercolor="#000000"
     borderopacity="0.25"
     inkscape:showpageshadow="2"
     inkscape:pageopacity="0.0"
     inkscape:pagecheckerboard="0"
     inkscape:deskcolor="#d1d1d1" />
  <path
     id="path1"
     style="baseline-shift:baseline;display:inline;overflow:visible;vector-effect:none;fill:#000000;stroke:none;stroke-linecap:butt;stroke-linejoin:miter;enable-background:accumulate;stop-color:#000000;stop-opacity:1;opacity:1"
     d="M 5 2.125 C 3.4225454 2.125 2.125 3.4225454 2.125 5 A 0.875 0.875 0 0 0 3 5.875 A 0.875 0.875 0 0 0 3.875 5 C 3.875 4.3683156 4.3683156 3.875 5 3.875 A 0.875 0.875 0 0 0 5.875 3 A 0.875 0.875 0 0 0 5 2.125 z M 9 2.125 A 0.875 0.875 0 0 0 8.125 3 A 0.875 0.875 0 0 0 9 3.875 L 10 3.875 A 0.875 0.875 0 0 0 10.875 3 A 0.875 0.875 0 0 0 10 2.125 L 9 2.125 z M 14 2.125 A 0.875 0.875 0 0 0 13.125 3 A 0.875 0.875 0 0 0 14 3.875 L 15 3.875 A 0.875 0.875 0 0 0 15.875 3 A 0.875 0.875 0 0 0 15 2.125 L 14 2.125 z M 19 2.125 A 0.875 0.875 0 0 0 18.125 3 A 0.875 0.875 0 0 0 19 3.875 C 19.631684 3.875 20.125 4.3683156 20.125 5 A 0.875 0.875 0 0 0 21 5.875 A 0.875 0.875 0 0 0 21.875 5 C 21.875 3.4225454 20.577455 2.125 19 2.125 z M 3 8.125 A 0.875 0.875 0 0 0 2.125 9 L 2.125 10 A 0.875 0.875 0 0 0 3 10.875 A 0.875 0.875 0 0 0 3.875 10 L 3.875 9 A 0.875 0.875 0 0 0 3 8.125 z M 21 8.125 A 0.875 0.875 0 0 0 20.125 9 L 20.125 10 A 0.875 0.875 0 0 0 21 10.875 A 0.875 0.875 0 0 0 21.875 10 L 21.875 9 A 0.875 0.875 0 0 0 21 8.125 z M 3 13.125 A 0.875 0.875 0 0 0 2.125 14 L 2.125 15 A 0.875 0.875 0 0 0 3 15.875 A 0.875 0.875 0 0 0 3.875 15 L 3.875 14 A 0.875 0.875 0 0 0 3 13.125 z M 21 13.125 A 0.875 0.875 0 0 0 20.125 14 L 20.125 15 A 0.875 0.875 0 0 0 21 15.875 A 0.875 0.875 0 0 0 21.875 15 L 21.875 14 A 0.875 0.875 0 0 0 21 13.125 z M 3 18.125 A 0.875 0.875 0 0 0 2.125 19 C 2.125 20.577455 3.4225454 21.875 5 21.875 A 0.875 0.875 0 0 0 5.875 21 A 0.875 0.875 0 0 0 5 20.125 C 4.3683156 20.125 3.875 19.631684 3.875 19 A 0.875 0.875 0 0 0 3 18.125 z M 21 18.125 A 0.875 0.875 0 0 0 20.125 19 C 20.125 19.631684 19.631684 20.125 19 20.125 A 0.875 0.875 0 0 0 18.125 21 A 0.875 0.875 0 0 0 19 21.875 C 20.577455 21.875 21.875 20.577455 21.875 19 A 0.875 0.875 0 0 0 21 18.125 z M 9 20.125 A 0.875 0.875 0 0 0 8.125 21 A 0.875 0.875 0 0 0 9 21.875 L 10 21.875 A 0.875 0.875 0 0 0 10.875 21 A 0.875 0.875 0 0 0 10 20.125 L 9 20.125 z M 14 20.125 A 0.875 0.875 0 0 0 13.125 21 A 0.875 0.875 0 0 0 14 21.875 L 15 21.875 A 0.875 0.875 0 0 0 15.875 21 A 0.875 0.875 0 0 0 15 20.125 L 14 20.125 z " />
</svg>
