<?xml version="1.0" encoding="UTF-8" standalone="no"?>
<svg
   width="24"
   height="24"
   viewBox="0 0 24 24"
   fill="none"
   stroke="currentColor"
   stroke-width="1.75"
   stroke-linecap="round"
   stroke-linejoin="round"
   version="1.1"
   id="svg8"
   sodipodi:docname=".tmp_squircle-dashed.svg"
   xmlns:inkscape="http://www.inkscape.org/namespaces/inkscape"
   xmlns:sodipodi="http://sodipodi.sourceforge.net/DTD/sodipodi-0.dtd"
   xmlns="http://www.w3.org/2000/svg"
   xmlns:svg="http://www.w3.org/2000/svg">
  <defs
     id="defs8" />
  <sodipodi:namedview
     id="namedview8"
     pagecolor="#ffffff"
     bordercolor="#000000"
     borderopacity="0.25"
     inkscape:showpageshadow="2"
     inkscape:pageopacity="0.0"
     inkscape:pagecheckerboard="0"
     inkscape:deskcolor="#d1d1d1" />
  <path
     id="path1"
     style="baseline-shift:baseline;display:inline;overflow:visible;vector-effect:none;fill:#000000;stroke:none;stroke-linecap:butt;stroke-linejoin:miter;enable-background:accumulate;stop-color:#000000;stop-opacity:1;opacity:1"
     d="M 10.183594 2.1699219 A 0.875 0.875 0 0 0 9.3554688 3.0878906 A 0.875 0.875 0 0 0 10.275391 3.9160156 C 11.424243 3.8561266 12.575757 3.8561266 13.724609 3.9160156 A 0.875 0.875 0 0 0 14.644531 3.0878906 A 0.875 0.875 0 0 0 13.816406 2.1699219 C 12.60686 2.1068689 11.39314 2.1068689 10.183594 2.1699219 z M 6.2382812 2.9453125 A 0.875 0.875 0 0 0 5.9042969 3.0195312 C 4.5869213 3.604267 3.6042671 4.5869213 3.0195312 5.9042969 A 0.875 0.875 0 0 0 3.4648438 7.0605469 A 0.875 0.875 0 0 0 4.6191406 6.6152344 C 5.0544047 5.6346099 5.6346099 5.0544047 6.6152344 4.6191406 A 0.875 0.875 0 0 0 7.0605469 3.4648438 A 0.875 0.875 0 0 0 6.5742188 3.0039062 A 0.875 0.875 0 0 0 6.2382812 2.9453125 z M 17.759766 2.9472656 A 0.875 0.875 0 0 0 16.939453 3.4667969 A 0.875 0.875 0 0 0 17.384766 4.6210938 C 18.364963 5.0553155 18.945641 5.6336139 19.380859 6.6132812 A 0.875 0.875 0 0 0 20.535156 7.0585938 A 0.875 0.875 0 0 0 20.980469 5.9042969 C 20.395687 4.5879643 19.411552 3.6052628 18.09375 3.0214844 A 0.875 0.875 0 0 0 17.759766 2.9472656 z M 3.0878906 9.3554688 A 0.875 0.875 0 0 0 2.1699219 10.185547 C 2.1071749 11.395452 2.1064919 12.606536 2.1699219 13.816406 A 0.875 0.875 0 0 0 3.0898438 14.644531 A 0.875 0.875 0 0 0 3.9179688 13.724609 C 3.8577212 12.57545 3.8564172 11.424584 3.9160156 10.275391 A 0.875 0.875 0 0 0 3.0878906 9.3554688 z M 20.910156 9.3554688 A 0.875 0.875 0 0 0 20.083984 10.277344 C 20.145644 11.425229 20.145644 12.574771 20.083984 13.722656 A 0.875 0.875 0 0 0 20.910156 14.644531 A 0.875 0.875 0 0 0 21.830078 13.816406 C 21.895098 12.605991 21.895098 11.394009 21.830078 10.183594 A 0.875 0.875 0 0 0 20.910156 9.3554688 z M 20.201172 16.865234 A 0.875 0.875 0 0 0 19.865234 16.923828 A 0.875 0.875 0 0 0 19.380859 17.384766 C 18.945454 18.366563 18.367559 18.9455 17.386719 19.380859 A 0.875 0.875 0 0 0 16.941406 20.535156 A 0.875 0.875 0 0 0 18.095703 20.980469 C 19.412863 20.395829 20.395875 19.411953 20.980469 18.09375 A 0.875 0.875 0 0 0 20.535156 16.939453 A 0.875 0.875 0 0 0 20.201172 16.865234 z M 3.7988281 16.867188 A 0.875 0.875 0 0 0 3.4648438 16.941406 A 0.875 0.875 0 0 0 3.0195312 18.095703 C 3.6040642 19.411476 4.5864193 20.395495 5.90625 20.978516 A 0.875 0.875 0 0 0 7.0605469 20.533203 A 0.875 0.875 0 0 0 6.6132812 19.378906 C 5.633112 18.945927 5.0546076 18.366946 4.6191406 17.386719 A 0.875 0.875 0 0 0 3.7988281 16.867188 z M 13.724609 20.082031 C 12.576418 20.144051 11.42557 20.145304 10.277344 20.083984 A 0.875 0.875 0 0 0 9.3554688 20.910156 A 0.875 0.875 0 0 0 10.183594 21.830078 C 11.394369 21.894788 12.607621 21.895468 13.818359 21.830078 A 0.875 0.875 0 0 0 14.644531 20.908203 A 0.875 0.875 0 0 0 13.724609 20.082031 z " />
</svg>
