<?xml version="1.0" encoding="UTF-8" standalone="no"?>
<svg
   width="24"
   height="24"
   viewBox="0 0 24 24"
   fill="none"
   stroke="currentColor"
   stroke-width="1.75"
   stroke-linecap="round"
   stroke-linejoin="round"
   version="1.1"
   id="svg2"
   sodipodi:docname=".tmp_step-forward.svg"
   xmlns:inkscape="http://www.inkscape.org/namespaces/inkscape"
   xmlns:sodipodi="http://sodipodi.sourceforge.net/DTD/sodipodi-0.dtd"
   xmlns="http://www.w3.org/2000/svg"
   xmlns:svg="http://www.w3.org/2000/svg">
  <defs
     id="defs2" />
  <sodipodi:namedview
     id="namedview2"
     pagecolor="#ffffff"
     bordercolor="#000000"
     borderopacity="0.25"
     inkscape:showpageshadow="2"
     inkscape:pageopacity="0.0"
     inkscape:pagecheckerboard="0"
     inkscape:deskcolor="#d1d1d1" />
  <path
     id="path1"
     style="baseline-shift:baseline;display:inline;overflow:visible;vector-effect:none;fill:#000000;stroke:none;stroke-linecap:butt;stroke-linejoin:miter;enable-background:accumulate;stop-color:#000000;stop-opacity:1;opacity:1"
     d="M 3 3.125 A 0.875 0.875 0 0 0 2.125 4 L 2.125 20 A 0.875 0.875 0 0 0 3 20.875 A 0.875 0.875 0 0 0 3.875 20 L 3.875 4 A 0.875 0.875 0 0 0 3 3.125 z M 9.0058594 3.1367188 C 7.5170408 3.158056 6.1249842 4.356765 6.125 6 L 6.125 18 C 6.1249789 20.19098 8.5997709 21.592103 10.478516 20.464844 L 20.474609 14.46875 L 20.476562 14.466797 C 22.305772 13.371362 22.307456 10.632267 20.478516 9.5351562 L 10.478516 3.5351562 C 10.008737 3.2533884 9.5021322 3.1296063 9.0058594 3.1367188 z M 8.9804688 4.8574219 C 9.1769377 4.8608418 9.3812829 4.9170498 9.578125 5.0351562 L 19.578125 11.035156 C 20.340805 11.492647 20.341604 12.51064 19.578125 12.966797 A 0.8750875 0.8750875 0 0 0 19.576172 12.966797 L 9.578125 18.964844 C 8.7907569 19.43727 7.8749912 18.918224 7.875 18 L 7.875 6 C 7.8749956 5.5408881 8.1041074 5.1815409 8.4316406 4.9960938 C 8.5954072 4.9033702 8.7839998 4.854002 8.9804688 4.8574219 z " />
</svg>
