<?xml version="1.0" encoding="UTF-8" standalone="no"?>
<svg
   width="24"
   height="24"
   viewBox="0 0 24 24"
   fill="none"
   stroke="currentColor"
   stroke-width="1.75"
   stroke-linecap="round"
   stroke-linejoin="round"
   version="1.1"
   id="svg2"
   sodipodi:docname=".tmp_tablet-smartphone.svg"
   xmlns:inkscape="http://www.inkscape.org/namespaces/inkscape"
   xmlns:sodipodi="http://sodipodi.sourceforge.net/DTD/sodipodi-0.dtd"
   xmlns="http://www.w3.org/2000/svg"
   xmlns:svg="http://www.w3.org/2000/svg">
  <defs
     id="defs2" />
  <sodipodi:namedview
     id="namedview2"
     pagecolor="#ffffff"
     bordercolor="#000000"
     borderopacity="0.25"
     inkscape:showpageshadow="2"
     inkscape:pageopacity="0.0"
     inkscape:pagecheckerboard="0"
     inkscape:deskcolor="#d1d1d1" />
  <path
     id="rect1"
     style="baseline-shift:baseline;display:inline;overflow:visible;vector-effect:none;fill:#000000;stroke:none;stroke-linecap:butt;stroke-linejoin:miter;enable-background:accumulate;stop-color:#000000;stop-opacity:1;opacity:1"
     d="M 7 1.125 C 5.4225454 1.125 4.125 2.4225454 4.125 4 A 0.875 0.875 0 0 0 5 4.875 A 0.875 0.875 0 0 0 5.875 4 C 5.875 3.3683156 6.3683156 2.875 7 2.875 L 19 2.875 C 19.631684 2.875 20.125 3.3683156 20.125 4 L 20.125 20 C 20.125 20.631684 19.631684 21.125 19 21.125 L 16.599609 21.125 A 0.875 0.875 0 0 0 15.724609 22 A 0.875 0.875 0 0 0 16.599609 22.875 L 19 22.875 C 20.577455 22.875 21.875 21.577455 21.875 20 L 21.875 4 C 21.875 2.4225454 20.577455 1.125 19 1.125 L 7 1.125 z M 5 7.125 C 3.4223851 7.125 2.125 8.4223851 2.125 10 L 2.125 20 C 2.125 21.577615 3.4223851 22.875 5 22.875 L 11 22.875 C 12.577615 22.875 13.875 21.577615 13.875 20 L 13.875 10 C 13.875 8.4223851 12.577615 7.125 11 7.125 L 5 7.125 z M 5 8.875 L 11 8.875 C 11.638385 8.875 12.125 9.3616149 12.125 10 L 12.125 20 C 12.125 20.638385 11.638385 21.125 11 21.125 L 5 21.125 C 4.3616149 21.125 3.875 20.638385 3.875 20 L 3.875 10 C 3.875 9.3616149 4.3616149 8.875 5 8.875 z M 8 17.125 A 0.875 0.875 0 0 0 7.125 18 A 0.875 0.875 0 0 0 8 18.875 L 8.0097656 18.875 A 0.875 0.875 0 0 0 8.8847656 18 A 0.875 0.875 0 0 0 8.0097656 17.125 L 8 17.125 z " />
</svg>
