<?xml version="1.0" encoding="UTF-8" standalone="no"?>
<svg
   width="24"
   height="24"
   viewBox="0 0 24 24"
   fill="none"
   stroke="currentColor"
   stroke-width="1.75"
   stroke-linecap="round"
   stroke-linejoin="round"
   version="1.1"
   id="svg6"
   sodipodi:docname=".tmp_tent-tree.svg"
   xmlns:inkscape="http://www.inkscape.org/namespaces/inkscape"
   xmlns:sodipodi="http://sodipodi.sourceforge.net/DTD/sodipodi-0.dtd"
   xmlns="http://www.w3.org/2000/svg"
   xmlns:svg="http://www.w3.org/2000/svg">
  <defs
     id="defs6" />
  <sodipodi:namedview
     id="namedview6"
     pagecolor="#ffffff"
     bordercolor="#000000"
     borderopacity="0.25"
     inkscape:showpageshadow="2"
     inkscape:pageopacity="0.0"
     inkscape:pagecheckerboard="0"
     inkscape:deskcolor="#d1d1d1" />
  <path
     id="circle1"
     style="baseline-shift:baseline;display:inline;overflow:visible;vector-effect:none;fill:#000000;stroke:none;stroke-linecap:butt;stroke-linejoin:miter;enable-background:accumulate;stop-color:#000000;stop-opacity:1;opacity:1"
     d="M 4 1.125 C 2.4225454 1.125 1.125 2.4225454 1.125 4 C 1.125 5.5774546 2.4225454 6.875 4 6.875 C 5.5774546 6.875 6.875 5.5774546 6.875 4 C 6.875 2.4225454 5.5774546 1.125 4 1.125 z M 17 1.125 A 0.8750875 0.8750875 0 0 0 16.664062 1.1914062 A 0.8750875 0.8750875 0 0 0 16.380859 1.3808594 L 13.380859 4.3808594 A 0.875 0.875 0 0 0 13.380859 5.6191406 A 0.875 0.875 0 0 0 14.619141 5.6191406 L 16.125 4.1132812 L 16.125 6.6367188 L 13.380859 9.3808594 A 0.875 0.875 0 0 0 13.380859 10.619141 A 0.875 0.875 0 0 0 14.619141 10.619141 L 16.125 9.1132812 L 16.125 13.125 L 8.9707031 13.125 L 7 13.125 A 0.8750875 0.8750875 0 0 0 6.2578125 13.537109 L 1.2578125 21.537109 A 0.8750875 0.8750875 0 0 0 2 22.875 L 14.029297 22.875 L 22 22.875 A 0.8750875 0.8750875 0 0 0 22.742188 21.537109 L 17.875 13.75 L 17.875 9.1132812 L 19.380859 10.619141 A 0.875 0.875 0 0 0 20.619141 10.619141 A 0.875 0.875 0 0 0 20.619141 9.3808594 L 17.875 6.6367188 L 17.875 4.1132812 L 19.380859 5.6191406 A 0.875 0.875 0 0 0 20.619141 5.6191406 A 0.875 0.875 0 0 0 20.619141 4.3808594 L 17.619141 1.3808594 A 0.8750875 0.8750875 0 0 0 17.4375 1.2421875 A 0.875 0.875 0 0 0 17.335938 1.1914062 A 0.8750875 0.8750875 0 0 0 17.333984 1.1914062 A 0.875 0.875 0 0 0 17.226562 1.1542969 A 0.8750875 0.8750875 0 0 0 17 1.125 z M 4 2.875 C 4.6316844 2.875 5.125 3.3683156 5.125 4 C 5.125 4.6316844 4.6316844 5.125 4 5.125 C 3.3683156 5.125 2.875 4.6316844 2.875 4 C 2.875 3.3683156 3.3683156 2.875 4 2.875 z M 10.578125 14.875 L 16.515625 14.875 L 20.421875 21.125 L 14.484375 21.125 L 10.578125 14.875 z M 7.125 15.449219 L 7.125 21.125 L 3.578125 21.125 L 7.125 15.449219 z M 8.875 15.451172 L 12.421875 21.125 L 8.875 21.125 L 8.875 15.451172 z " />
</svg>
