<?xml version="1.0" encoding="UTF-8" standalone="no"?>
<svg
   width="24"
   height="24"
   viewBox="0 0 24 24"
   fill="none"
   stroke="currentColor"
   stroke-width="1.75"
   stroke-linecap="round"
   stroke-linejoin="round"
   version="1.1"
   id="svg5"
   sodipodi:docname=".tmp_text-initial.svg"
   xmlns:inkscape="http://www.inkscape.org/namespaces/inkscape"
   xmlns:sodipodi="http://sodipodi.sourceforge.net/DTD/sodipodi-0.dtd"
   xmlns="http://www.w3.org/2000/svg"
   xmlns:svg="http://www.w3.org/2000/svg">
  <defs
     id="defs5" />
  <sodipodi:namedview
     id="namedview5"
     pagecolor="#ffffff"
     bordercolor="#000000"
     borderopacity="0.25"
     inkscape:showpageshadow="2"
     inkscape:pageopacity="0.0"
     inkscape:pagecheckerboard="0"
     inkscape:deskcolor="#d1d1d1" />
  <path
     id="path1"
     style="baseline-shift:baseline;display:inline;overflow:visible;vector-effect:none;fill:#000000;stroke:none;stroke-linecap:butt;stroke-linejoin:miter;enable-background:accumulate;stop-color:#000000;stop-opacity:1;opacity:1"
     d="M 7 3.1621094 C 6.506017 3.1621094 6.0127684 3.4033467 5.7714844 3.8847656 A 0.8750875 0.8750875 0 0 0 5.7578125 3.9101562 L 3.1328125 9.6171875 A 0.875 0.875 0 0 0 3.1191406 9.6484375 L 2.2050781 11.634766 A 0.875 0.875 0 0 0 2.6347656 12.794922 A 0.875 0.875 0 0 0 3.7949219 12.365234 L 4.4804688 10.875 L 9.5195312 10.875 L 10.205078 12.365234 A 0.875 0.875 0 0 0 11.365234 12.794922 A 0.875 0.875 0 0 0 11.794922 11.634766 L 10.880859 9.6484375 A 0.875 0.875 0 0 0 10.873047 9.6328125 L 10.869141 9.6210938 A 0.875 0.875 0 0 0 10.867188 9.6171875 L 8.2421875 3.9101562 A 0.8750875 0.8750875 0 0 0 8.2285156 3.8847656 C 7.9872316 3.4033467 7.493983 3.1621094 7 3.1621094 z M 15 4.125 A 0.875 0.875 0 0 0 14.125 5 A 0.875 0.875 0 0 0 15 5.875 L 21 5.875 A 0.875 0.875 0 0 0 21.875 5 A 0.875 0.875 0 0 0 21 4.125 L 15 4.125 z M 7 5.3984375 L 8.7148438 9.125 L 5.2851562 9.125 L 7 5.3984375 z M 15 11.125 A 0.875 0.875 0 0 0 14.125 12 A 0.875 0.875 0 0 0 15 12.875 L 21 12.875 A 0.875 0.875 0 0 0 21.875 12 A 0.875 0.875 0 0 0 21 11.125 L 15 11.125 z M 3 18.125 A 0.875 0.875 0 0 0 2.125 19 A 0.875 0.875 0 0 0 3 19.875 L 21 19.875 A 0.875 0.875 0 0 0 21.875 19 A 0.875 0.875 0 0 0 21 18.125 L 3 18.125 z " />
</svg>
