<?xml version="1.0" encoding="UTF-8" standalone="no"?>
<svg
   width="24"
   height="24"
   viewBox="0 0 24 24"
   fill="none"
   stroke="currentColor"
   stroke-width="1.75"
   stroke-linecap="round"
   stroke-linejoin="round"
   version="1.1"
   id="svg6"
   sodipodi:docname=".tmp_thermometer-sun.svg"
   xmlns:inkscape="http://www.inkscape.org/namespaces/inkscape"
   xmlns:sodipodi="http://sodipodi.sourceforge.net/DTD/sodipodi-0.dtd"
   xmlns="http://www.w3.org/2000/svg"
   xmlns:svg="http://www.w3.org/2000/svg">
  <defs
     id="defs6" />
  <sodipodi:namedview
     id="namedview6"
     pagecolor="#ffffff"
     bordercolor="#000000"
     borderopacity="0.25"
     inkscape:showpageshadow="2"
     inkscape:pageopacity="0.0"
     inkscape:pagecheckerboard="0"
     inkscape:deskcolor="#d1d1d1" />
  <path
     id="path1"
     style="baseline-shift:baseline;display:inline;overflow:visible;vector-effect:none;fill:#000000;stroke:none;stroke-linecap:butt;stroke-linejoin:miter;enable-background:accumulate;stop-color:#000000;stop-opacity:1;opacity:1"
     d="M 18 1.125 C 17.305556 1.125 16.598378 1.3520063 16.042969 1.8457031 C 15.48756 2.3394 15.125 3.1145835 15.125 4 L 15.125 14.146484 C 13.407986 15.421024 12.812985 17.482944 13.291016 19.265625 C 13.812317 21.209672 15.568183 22.878906 18 22.878906 C 20.431817 22.878906 22.187683 21.209672 22.708984 19.265625 C 23.187015 17.482944 22.592014 15.421024 20.875 14.146484 L 20.875 4 C 20.875 3.1145835 20.51244 2.3394 19.957031 1.8457031 C 19.401622 1.3520063 18.694444 1.125 18 1.125 z M 12 2.125 A 0.875 0.875 0 0 0 11.125 3 L 11.125 5 A 0.875 0.875 0 0 0 12 5.875 A 0.875 0.875 0 0 0 12.875 5 L 12.875 3 A 0.875 0.875 0 0 0 12 2.125 z M 18 2.875 C 18.305556 2.875 18.598378 2.9813273 18.792969 3.1542969 C 18.98756 3.3272664 19.125 3.5520837 19.125 4 L 19.125 14.539062 A 0.8750875 0.8750875 0 0 0 19.5625 15.296875 C 21.00078 16.127266 21.35973 17.53654 21.017578 18.8125 C 20.675426 20.08846 19.659531 21.128906 18 21.128906 C 16.340469 21.128906 15.324574 20.08846 14.982422 18.8125 C 14.64027 17.53654 14.999222 16.127266 16.4375 15.296875 A 0.8750875 0.8750875 0 0 0 16.875 14.539062 L 16.875 4 C 16.875 3.5520837 17.01244 3.3272664 17.207031 3.1542969 C 17.401622 2.9813273 17.694444 2.875 18 2.875 z M 4.9296875 5.0546875 A 0.875 0.875 0 0 0 4.3105469 5.3105469 A 0.875 0.875 0 0 0 4.3105469 6.5488281 L 5.7207031 7.9589844 A 0.875 0.875 0 0 0 6.9589844 7.9589844 A 0.875 0.875 0 0 0 6.9589844 6.7207031 L 5.5488281 5.3105469 A 0.875 0.875 0 0 0 4.9296875 5.0546875 z M 12.013672 8.125 C 9.5406351 8.08515 7.7496104 9.7753863 7.2246094 11.744141 C 6.6996083 13.712895 7.4116628 16.068796 9.5761719 17.265625 A 0.875 0.875 0 0 0 10.765625 16.923828 A 0.875 0.875 0 0 0 10.423828 15.734375 C 8.9423376 14.91521 8.5709412 13.487388 8.9160156 12.193359 C 9.26109 10.89933 10.293667 9.8477247 11.986328 9.875 A 0.875 0.875 0 0 0 12.875 9.0136719 A 0.875 0.875 0 0 0 12.013672 8.125 z M 2 12.125 A 0.875 0.875 0 0 0 1.125 13 A 0.875 0.875 0 0 0 2 13.875 L 4 13.875 A 0.875 0.875 0 0 0 4.875 13 A 0.875 0.875 0 0 0 4 12.125 L 2 12.125 z M 6.5996094 17.525391 A 0.875 0.875 0 0 0 5.9804688 17.78125 L 4.5820312 19.181641 A 0.875 0.875 0 0 0 4.5820312 20.417969 A 0.875 0.875 0 0 0 5.8183594 20.417969 L 7.21875 19.019531 A 0.875 0.875 0 0 0 7.21875 17.78125 A 0.875 0.875 0 0 0 6.5996094 17.525391 z " />
</svg>
