<?xml version="1.0" encoding="UTF-8" standalone="no"?>
<svg
   width="24"
   height="24"
   viewBox="0 0 24 24"
   fill="none"
   stroke="currentColor"
   stroke-width="1.75"
   stroke-linecap="round"
   stroke-linejoin="round"
   version="1.1"
   id="svg5"
   sodipodi:docname=".tmp_tornado.svg"
   xmlns:inkscape="http://www.inkscape.org/namespaces/inkscape"
   xmlns:sodipodi="http://sodipodi.sourceforge.net/DTD/sodipodi-0.dtd"
   xmlns="http://www.w3.org/2000/svg"
   xmlns:svg="http://www.w3.org/2000/svg">
  <defs
     id="defs5" />
  <sodipodi:namedview
     id="namedview5"
     pagecolor="#ffffff"
     bordercolor="#000000"
     borderopacity="0.25"
     inkscape:showpageshadow="2"
     inkscape:pageopacity="0.0"
     inkscape:pagecheckerboard="0"
     inkscape:deskcolor="#d1d1d1" />
  <path
     id="path1"
     style="baseline-shift:baseline;display:inline;overflow:visible;vector-effect:none;fill:#000000;stroke:none;stroke-linecap:butt;stroke-linejoin:miter;enable-background:accumulate;stop-color:#000000;stop-opacity:1;opacity:1"
     d="M 3 3.125 A 0.875 0.875 0 0 0 2.125 4 A 0.875 0.875 0 0 0 3 4.875 L 21 4.875 A 0.875 0.875 0 0 0 21.875 4 A 0.875 0.875 0 0 0 21 3.125 L 3 3.125 z M 6 7.125 A 0.875 0.875 0 0 0 5.125 8 A 0.875 0.875 0 0 0 6 8.875 L 18 8.875 A 0.875 0.875 0 0 0 18.875 8 A 0.875 0.875 0 0 0 18 7.125 L 6 7.125 z M 9 11.125 A 0.875 0.875 0 0 0 8.125 12 A 0.875 0.875 0 0 0 9 12.875 L 19 12.875 A 0.875 0.875 0 0 0 19.875 12 A 0.875 0.875 0 0 0 19 11.125 L 9 11.125 z M 10 15.125 A 0.875 0.875 0 0 0 9.125 16 A 0.875 0.875 0 0 0 10 16.875 L 16 16.875 A 0.875 0.875 0 0 0 16.875 16 A 0.875 0.875 0 0 0 16 15.125 L 10 15.125 z M 9 19.125 A 0.875 0.875 0 0 0 8.125 20 A 0.875 0.875 0 0 0 9 20.875 L 11 20.875 A 0.875 0.875 0 0 0 11.875 20 A 0.875 0.875 0 0 0 11 19.125 L 9 19.125 z " />
</svg>
