<?xml version="1.0" encoding="UTF-8" standalone="no"?>
<svg
   width="24"
   height="24"
   viewBox="0 0 24 24"
   fill="none"
   stroke="currentColor"
   stroke-width="1.75"
   stroke-linecap="round"
   stroke-linejoin="round"
   version="1.1"
   id="svg1"
   sodipodi:docname=".tmp_triangle.svg"
   xmlns:inkscape="http://www.inkscape.org/namespaces/inkscape"
   xmlns:sodipodi="http://sodipodi.sourceforge.net/DTD/sodipodi-0.dtd"
   xmlns="http://www.w3.org/2000/svg"
   xmlns:svg="http://www.w3.org/2000/svg">
  <defs
     id="defs1" />
  <sodipodi:namedview
     id="namedview1"
     pagecolor="#ffffff"
     bordercolor="#000000"
     borderopacity="0.25"
     inkscape:showpageshadow="2"
     inkscape:pageopacity="0.0"
     inkscape:pagecheckerboard="0"
     inkscape:deskcolor="#d1d1d1" />
  <path
     id="path1"
     style="baseline-shift:baseline;display:inline;overflow:visible;vector-effect:none;fill:#000000;stroke:none;stroke-linecap:butt;stroke-linejoin:miter;enable-background:accumulate;stop-color:#000000;stop-opacity:1;opacity:1"
     d="M 12 2.15625 C 11.028303 2.15625 10.057152 2.6236457 9.5136719 3.5605469 A 0.8750875 0.8750875 0 0 0 9.5097656 3.5664062 L 1.5097656 17.566406 C 0.42910125 19.445018 1.8316624 21.872777 4 21.875 L 20 21.875 C 22.168338 21.8728 23.570902 19.445018 22.490234 17.566406 L 22.488281 17.5625 L 14.490234 3.5664062 A 0.8750875 0.8750875 0 0 0 14.486328 3.5605469 C 13.942889 2.6236403 12.971697 2.15625 12 2.15625 z M 12 3.8515625 C 12.372951 3.8515625 12.745434 4.047746 12.972656 4.4394531 L 20.970703 18.433594 A 0.8750875 0.8750875 0 0 0 20.972656 18.4375 C 21.426366 19.223434 20.907512 20.12407 20 20.125 L 4 20.125 C 3.0924883 20.12407 2.5735872 19.223428 3.0273438 18.4375 A 0.8750875 0.8750875 0 0 0 3.0292969 18.433594 L 11.027344 4.4394531 C 11.254566 4.047746 11.627049 3.8515625 12 3.8515625 z " />
</svg>
