<?xml version="1.0" encoding="UTF-8" standalone="no"?>
<svg
   width="24"
   height="24"
   viewBox="0 0 24 24"
   fill="none"
   stroke="currentColor"
   stroke-width="1.75"
   stroke-linecap="round"
   stroke-linejoin="round"
   version="1.1"
   id="svg6"
   sodipodi:docname=".tmp_truck-electric.svg"
   xmlns:inkscape="http://www.inkscape.org/namespaces/inkscape"
   xmlns:sodipodi="http://sodipodi.sourceforge.net/DTD/sodipodi-0.dtd"
   xmlns="http://www.w3.org/2000/svg"
   xmlns:svg="http://www.w3.org/2000/svg">
  <defs
     id="defs6" />
  <sodipodi:namedview
     id="namedview6"
     pagecolor="#ffffff"
     bordercolor="#000000"
     borderopacity="0.25"
     inkscape:showpageshadow="2"
     inkscape:pageopacity="0.0"
     inkscape:pagecheckerboard="0"
     inkscape:deskcolor="#d1d1d1" />
  <path
     id="path1"
     style="baseline-shift:baseline;display:inline;overflow:visible;vector-effect:none;fill:#000000;stroke:none;stroke-linecap:butt;stroke-linejoin:miter;enable-background:accumulate;stop-color:#000000;stop-opacity:1;opacity:1"
     d="M 4.0488281 2.125 A 0.875 0.875 0 0 0 3.3359375 2.4296875 L 1.5214844 4.5390625 C 1.1157406 4.9409904 1.0248183 5.5643304 1.2148438 6.03125 C 1.41055 6.5121281 1.9350173 6.9038191 2.5273438 6.8847656 L 3.7910156 6.8847656 L 2.359375 8.4238281 A 0.875 0.875 0 0 0 2.4042969 9.6601562 A 0.875 0.875 0 0 0 3.640625 9.6152344 L 5.5820312 7.5292969 L 5.5839844 7.5273438 C 6.0591945 7.146666 6.2017891 6.4519629 6.0019531 5.9609375 C 5.7992856 5.4629543 5.199054 5.0612401 4.5839844 5.1347656 L 3.3164062 5.1347656 L 4.6640625 3.5703125 A 0.875 0.875 0 0 0 4.5703125 2.3359375 A 0.875 0.875 0 0 0 4.0488281 2.125 z M 9 4.125 A 0.875 0.875 0 0 0 8.125 5 A 0.875 0.875 0 0 0 9 5.875 L 12 5.875 C 12.631684 5.875 13.125 6.3683156 13.125 7 L 13.125 18.125 L 9.7363281 18.125 C 9.3626542 16.969904 8.2729146 16.125 7 16.125 C 5.7270854 16.125 4.6373458 16.969904 4.2636719 18.125 L 3 18.125 C 2.9206 18.125 2.875 18.0794 2.875 18 L 2.875 13 A 0.875 0.875 0 0 0 2 12.125 A 0.875 0.875 0 0 0 1.125 13 L 1.125 18 C 1.125 19.02517 1.9748301 19.875 3 19.875 L 4.2636719 19.875 C 4.6373458 21.030096 5.7270854 21.875 7 21.875 C 8.2729146 21.875 9.3626542 21.030096 9.7363281 19.875 L 14.263672 19.875 C 14.637346 21.030096 15.727085 21.875 17 21.875 C 18.272915 21.875 19.362654 21.030096 19.736328 19.875 L 21 19.875 C 22.02517 19.875 22.875 19.02517 22.875 18 L 22.875 14.349609 A 0.8750875 0.8750875 0 0 0 22.875 14.345703 C 22.8726 13.923553 22.726722 13.513108 22.462891 13.183594 L 22.462891 13.181641 L 18.986328 8.8378906 L 18.984375 8.8378906 C 18.631093 8.3916497 18.09268 8.1276244 17.523438 8.125 A 0.8750875 0.8750875 0 0 0 17.519531 8.125 L 14.875 8.125 L 14.875 7 C 14.875 5.4225454 13.577455 4.125 12 4.125 L 9 4.125 z M 14.875 9.875 L 17.515625 9.875 C 17.554315 9.8751784 17.589291 9.891521 17.613281 9.921875 A 0.8750875 0.8750875 0 0 0 17.617188 9.9257812 L 21.097656 14.277344 C 21.115396 14.299454 21.12484 14.327119 21.125 14.355469 L 21.125 18 C 21.125 18.0794 21.0794 18.125 21 18.125 L 19.736328 18.125 C 19.362654 16.969904 18.272915 16.125 17 16.125 C 16.161711 16.125 15.40247 16.49212 14.875 17.072266 L 14.875 9.875 z M 7 17.875 C 7.6316844 17.875 8.125 18.368316 8.125 19 C 8.125 19.631684 7.6316844 20.125 7 20.125 C 6.3683156 20.125 5.875 19.631684 5.875 19 C 5.875 18.368316 6.3683156 17.875 7 17.875 z M 17 17.875 C 17.631684 17.875 18.125 18.368316 18.125 19 C 18.125 19.631684 17.631684 20.125 17 20.125 C 16.368316 20.125 15.875 19.631684 15.875 19 C 15.875 18.368316 16.368316 17.875 17 17.875 z " />
</svg>
