<?xml version="1.0" encoding="UTF-8" standalone="no"?>
<svg
   width="24"
   height="24"
   viewBox="0 0 24 24"
   fill="none"
   stroke="currentColor"
   stroke-width="1.75"
   stroke-linecap="round"
   stroke-linejoin="round"
   version="1.1"
   id="svg3"
   sodipodi:docname=".tmp_turkish-lira.svg"
   xmlns:inkscape="http://www.inkscape.org/namespaces/inkscape"
   xmlns:sodipodi="http://sodipodi.sourceforge.net/DTD/sodipodi-0.dtd"
   xmlns="http://www.w3.org/2000/svg"
   xmlns:svg="http://www.w3.org/2000/svg">
  <defs
     id="defs3" />
  <sodipodi:namedview
     id="namedview3"
     pagecolor="#ffffff"
     bordercolor="#000000"
     borderopacity="0.25"
     inkscape:showpageshadow="2"
     inkscape:pageopacity="0.0"
     inkscape:pagecheckerboard="0"
     inkscape:deskcolor="#d1d1d1" />
  <path
     id="path1"
     style="baseline-shift:baseline;display:inline;overflow:visible;vector-effect:none;fill:#000000;stroke:none;stroke-linecap:butt;stroke-linejoin:miter;enable-background:accumulate;stop-color:#000000;stop-opacity:1;opacity:1"
     d="M 9 2.125 A 0.875 0.875 0 0 0 8.125 3 L 8.125 6.4589844 L 4.609375 8.2167969 A 0.875 0.875 0 0 0 4.2167969 9.390625 A 0.875 0.875 0 0 0 5.390625 9.7832031 L 8.125 8.4160156 L 8.125 10.958984 L 4.609375 12.716797 A 0.875 0.875 0 0 0 4.2167969 13.890625 A 0.875 0.875 0 0 0 5.390625 14.283203 L 8.125 12.916016 L 8.125 21 A 0.8750875 0.8750875 0 0 0 9 21.875 C 14.443448 21.875 18.875 17.443448 18.875 12 A 0.875 0.875 0 0 0 18 11.125 A 0.875 0.875 0 0 0 17.125 12 C 17.125 16.186932 13.937724 19.494874 9.875 19.949219 L 9.875 12.041016 L 15.390625 9.2832031 A 0.875 0.875 0 0 0 15.783203 8.109375 A 0.875 0.875 0 0 0 15.277344 7.6699219 A 0.875 0.875 0 0 0 14.609375 7.7167969 L 9.875 10.083984 L 9.875 7.5410156 L 15.390625 4.7832031 A 0.875 0.875 0 0 0 15.783203 3.609375 A 0.875 0.875 0 0 0 15.277344 3.1699219 A 0.875 0.875 0 0 0 14.609375 3.2167969 L 9.875 5.5839844 L 9.875 3 A 0.875 0.875 0 0 0 9 2.125 z " />
</svg>
