<?xml version="1.0" encoding="UTF-8" standalone="no"?>
<svg
   width="24"
   height="24"
   viewBox="0 0 24 24"
   fill="none"
   stroke="currentColor"
   stroke-width="1.75"
   stroke-linecap="round"
   stroke-linejoin="round"
   version="1.1"
   id="svg1"
   sodipodi:docname=".tmp_type-outline.svg"
   xmlns:inkscape="http://www.inkscape.org/namespaces/inkscape"
   xmlns:sodipodi="http://sodipodi.sourceforge.net/DTD/sodipodi-0.dtd"
   xmlns="http://www.w3.org/2000/svg"
   xmlns:svg="http://www.w3.org/2000/svg">
  <defs
     id="defs1" />
  <sodipodi:namedview
     id="namedview1"
     pagecolor="#ffffff"
     bordercolor="#000000"
     borderopacity="0.25"
     inkscape:showpageshadow="2"
     inkscape:pageopacity="0.0"
     inkscape:pagecheckerboard="0"
     inkscape:deskcolor="#d1d1d1" />
  <path
     id="path1"
     style="baseline-shift:baseline;display:inline;overflow:visible;vector-effect:none;fill:#000000;stroke:none;stroke-linecap:butt;stroke-linejoin:miter;enable-background:accumulate;stop-color:#000000;stop-opacity:1;opacity:1"
     d="M 4 2.125 C 2.4225454 2.125 1.125 3.4225454 1.125 5 L 1.125 8 C 1.125 8.8854165 1.4875596 9.6605999 2.0429688 10.154297 C 2.5983778 10.647994 3.3055556 10.875 4 10.875 C 4.6944444 10.875 5.4016222 10.647994 5.9570312 10.154297 C 6.5124404 9.6605999 6.875 8.8854165 6.875 8 L 6.875 7.875 L 9.125 7.875 L 9.125 16.125 L 9 16.125 C 8.1145835 16.125 7.3394 16.48756 6.8457031 17.042969 C 6.3520063 17.598378 6.125 18.305556 6.125 19 C 6.125 19.694444 6.3520063 20.401622 6.8457031 20.957031 C 7.3394 21.51244 8.1145835 21.875 9 21.875 L 15 21.875 C 15.885416 21.875 16.6606 21.51244 17.154297 20.957031 C 17.647994 20.401622 17.875 19.694444 17.875 19 C 17.875 18.305556 17.647994 17.598378 17.154297 17.042969 C 16.6606 16.48756 15.885416 16.125 15 16.125 L 14.875 16.125 L 14.875 7.875 L 17.125 7.875 L 17.125 8 C 17.125 8.8854165 17.48756 9.6605999 18.042969 10.154297 C 18.598378 10.647994 19.305556 10.875 20 10.875 C 20.694444 10.875 21.401622 10.647994 21.957031 10.154297 C 22.51244 9.6605999 22.875 8.8854165 22.875 8 L 22.875 5 C 22.875 3.4225454 21.577455 2.125 20 2.125 L 4 2.125 z M 4 3.875 L 20 3.875 C 20.631684 3.875 21.125 4.3683156 21.125 5 L 21.125 8 C 21.125 8.4479163 20.98756 8.6727336 20.792969 8.8457031 C 20.598378 9.0186727 20.305556 9.125 20 9.125 C 19.694444 9.125 19.401622 9.0186727 19.207031 8.8457031 C 19.01244 8.6727336 18.875 8.4479163 18.875 8 L 18.875 7.5 C 18.875 6.7509725 18.249027 6.125 17.5 6.125 L 14.5 6.125 C 13.750973 6.125 13.125 6.7509725 13.125 7.5 L 13.125 16.5 C 13.125 17.249027 13.750973 17.875 14.5 17.875 L 15 17.875 C 15.447916 17.875 15.672734 18.01244 15.845703 18.207031 C 16.018673 18.401622 16.125 18.694444 16.125 19 C 16.125 19.305556 16.018673 19.598378 15.845703 19.792969 C 15.672734 19.98756 15.447916 20.125 15 20.125 L 9 20.125 C 8.5520837 20.125 8.3272664 19.98756 8.1542969 19.792969 C 7.9813273 19.598378 7.875 19.305556 7.875 19 C 7.875 18.694444 7.9813273 18.401622 8.1542969 18.207031 C 8.3272664 18.01244 8.5520837 17.875 9 17.875 L 9.5 17.875 C 10.249027 17.875 10.875 17.249027 10.875 16.5 L 10.875 7.5 C 10.875 6.7509725 10.249027 6.125 9.5 6.125 L 6.5 6.125 C 5.7509725 6.125 5.125 6.7509725 5.125 7.5 L 5.125 8 C 5.125 8.4479163 4.9875596 8.6727336 4.7929688 8.8457031 C 4.5983779 9.0186727 4.3055556 9.125 4 9.125 C 3.6944444 9.125 3.4016221 9.0186727 3.2070312 8.8457031 C 3.0124403 8.6727336 2.875 8.4479163 2.875 8 L 2.875 5 C 2.875 4.3683156 3.3683156 3.875 4 3.875 z " />
</svg>
