<?xml version="1.0" encoding="UTF-8" standalone="no"?>
<svg
   width="24"
   height="24"
   viewBox="0 0 24 24"
   fill="none"
   stroke="currentColor"
   stroke-width="1.75"
   stroke-linecap="round"
   stroke-linejoin="round"
   version="1.1"
   id="svg8"
   sodipodi:docname=".tmp_unfold-horizontal.svg"
   xmlns:inkscape="http://www.inkscape.org/namespaces/inkscape"
   xmlns:sodipodi="http://sodipodi.sourceforge.net/DTD/sodipodi-0.dtd"
   xmlns="http://www.w3.org/2000/svg"
   xmlns:svg="http://www.w3.org/2000/svg">
  <defs
     id="defs8" />
  <sodipodi:namedview
     id="namedview8"
     pagecolor="#ffffff"
     bordercolor="#000000"
     borderopacity="0.25"
     inkscape:showpageshadow="2"
     inkscape:pageopacity="0.0"
     inkscape:pagecheckerboard="0"
     inkscape:deskcolor="#d1d1d1" />
  <path
     id="path1"
     style="baseline-shift:baseline;display:inline;overflow:visible;vector-effect:none;fill:#000000;stroke:none;stroke-linecap:butt;stroke-linejoin:miter;enable-background:accumulate;stop-color:#000000;stop-opacity:1;opacity:1"
     d="M 12 1.125 A 0.875 0.875 0 0 0 11.125 2 L 11.125 4 A 0.875 0.875 0 0 0 12 4.875 A 0.875 0.875 0 0 0 12.875 4 L 12.875 2 A 0.875 0.875 0 0 0 12 1.125 z M 12 7.125 A 0.875 0.875 0 0 0 11.125 8 L 11.125 10 A 0.875 0.875 0 0 0 12 10.875 A 0.875 0.875 0 0 0 12.875 10 L 12.875 8 A 0.875 0.875 0 0 0 12 7.125 z M 5 8.125 A 0.875 0.875 0 0 0 4.3808594 8.3808594 L 1.3808594 11.380859 A 0.8750875 0.8750875 0 0 0 1.2421875 11.5625 A 0.8750875 0.8750875 0 0 0 1.1914062 11.664062 A 0.875 0.875 0 0 0 1.1542969 11.773438 A 0.8750875 0.8750875 0 0 0 1.125 12 A 0.8750875 0.8750875 0 0 0 1.1542969 12.226562 A 0.875 0.875 0 0 0 1.1914062 12.333984 A 0.8750875 0.8750875 0 0 0 1.1914062 12.335938 A 0.875 0.875 0 0 0 1.2421875 12.4375 A 0.8750875 0.8750875 0 0 0 1.3808594 12.619141 L 4.3808594 15.619141 A 0.875 0.875 0 0 0 5.6191406 15.619141 A 0.875 0.875 0 0 0 5.6191406 14.380859 L 4.1132812 12.875 L 8 12.875 A 0.875 0.875 0 0 0 8.875 12 A 0.875 0.875 0 0 0 8 11.125 L 4.1132812 11.125 L 5.6191406 9.6191406 A 0.875 0.875 0 0 0 5.6191406 8.3808594 A 0.875 0.875 0 0 0 5 8.125 z M 19 8.125 A 0.875 0.875 0 0 0 18.380859 8.3808594 A 0.875 0.875 0 0 0 18.380859 9.6191406 L 19.886719 11.125 L 16 11.125 A 0.875 0.875 0 0 0 15.125 12 A 0.875 0.875 0 0 0 16 12.875 L 19.886719 12.875 L 18.380859 14.380859 A 0.875 0.875 0 0 0 18.380859 15.619141 A 0.875 0.875 0 0 0 19.619141 15.619141 L 22.619141 12.619141 A 0.8750875 0.8750875 0 0 0 22.757812 12.4375 A 0.875 0.875 0 0 0 22.808594 12.335938 A 0.8750875 0.8750875 0 0 0 22.808594 12.333984 A 0.875 0.875 0 0 0 22.845703 12.226562 A 0.8750875 0.8750875 0 0 0 22.845703 11.773438 A 0.875 0.875 0 0 0 22.808594 11.664062 A 0.8750875 0.8750875 0 0 0 22.619141 11.380859 L 19.619141 8.3808594 A 0.875 0.875 0 0 0 19 8.125 z M 12 13.125 A 0.875 0.875 0 0 0 11.125 14 L 11.125 16 A 0.875 0.875 0 0 0 12 16.875 A 0.875 0.875 0 0 0 12.875 16 L 12.875 14 A 0.875 0.875 0 0 0 12 13.125 z M 12 19.125 A 0.875 0.875 0 0 0 11.125 20 L 11.125 22 A 0.875 0.875 0 0 0 12 22.875 A 0.875 0.875 0 0 0 12.875 22 L 12.875 20 A 0.875 0.875 0 0 0 12 19.125 z " />
</svg>
