<?xml version="1.0" encoding="UTF-8" standalone="no"?>
<svg
   width="24"
   height="24"
   viewBox="0 0 24 24"
   fill="none"
   stroke="currentColor"
   stroke-width="1.75"
   stroke-linecap="round"
   stroke-linejoin="round"
   version="1.1"
   id="svg8"
   sodipodi:docname=".tmp_unfold-vertical.svg"
   xmlns:inkscape="http://www.inkscape.org/namespaces/inkscape"
   xmlns:sodipodi="http://sodipodi.sourceforge.net/DTD/sodipodi-0.dtd"
   xmlns="http://www.w3.org/2000/svg"
   xmlns:svg="http://www.w3.org/2000/svg">
  <defs
     id="defs8" />
  <sodipodi:namedview
     id="namedview8"
     pagecolor="#ffffff"
     bordercolor="#000000"
     borderopacity="0.25"
     inkscape:showpageshadow="2"
     inkscape:pageopacity="0.0"
     inkscape:pagecheckerboard="0"
     inkscape:deskcolor="#d1d1d1" />
  <path
     id="path1"
     style="baseline-shift:baseline;display:inline;overflow:visible;vector-effect:none;fill:#000000;stroke:none;stroke-linecap:butt;stroke-linejoin:miter;enable-background:accumulate;stop-color:#000000;stop-opacity:1;opacity:1"
     d="M 12 1.125 A 0.8750875 0.8750875 0 0 0 11.773438 1.1542969 A 0.8750875 0.8750875 0 0 0 11.664062 1.1914062 A 0.875 0.875 0 0 0 11.5625 1.2421875 A 0.8750875 0.8750875 0 0 0 11.380859 1.3808594 L 8.3808594 4.3808594 A 0.875 0.875 0 0 0 8.3808594 5.6191406 A 0.875 0.875 0 0 0 9.6191406 5.6191406 L 11.125 4.1132812 L 11.125 8 A 0.875 0.875 0 0 0 12 8.875 A 0.875 0.875 0 0 0 12.875 8 L 12.875 4.1132812 L 14.380859 5.6191406 A 0.875 0.875 0 0 0 15.619141 5.6191406 A 0.875 0.875 0 0 0 15.619141 4.3808594 L 12.619141 1.3808594 A 0.8750875 0.8750875 0 0 0 12.4375 1.2421875 A 0.875 0.875 0 0 0 12.335938 1.1914062 A 0.8750875 0.8750875 0 0 0 12.333984 1.1914062 A 0.875 0.875 0 0 0 12.226562 1.1542969 A 0.8750875 0.8750875 0 0 0 12 1.125 z M 2 11.125 A 0.875 0.875 0 0 0 1.125 12 A 0.875 0.875 0 0 0 2 12.875 L 4 12.875 A 0.875 0.875 0 0 0 4.875 12 A 0.875 0.875 0 0 0 4 11.125 L 2 11.125 z M 8 11.125 A 0.875 0.875 0 0 0 7.125 12 A 0.875 0.875 0 0 0 8 12.875 L 10 12.875 A 0.875 0.875 0 0 0 10.875 12 A 0.875 0.875 0 0 0 10 11.125 L 8 11.125 z M 14 11.125 A 0.875 0.875 0 0 0 13.125 12 A 0.875 0.875 0 0 0 14 12.875 L 16 12.875 A 0.875 0.875 0 0 0 16.875 12 A 0.875 0.875 0 0 0 16 11.125 L 14 11.125 z M 20 11.125 A 0.875 0.875 0 0 0 19.125 12 A 0.875 0.875 0 0 0 20 12.875 L 22 12.875 A 0.875 0.875 0 0 0 22.875 12 A 0.875 0.875 0 0 0 22 11.125 L 20 11.125 z M 12 15.125 A 0.875 0.875 0 0 0 11.125 16 L 11.125 19.886719 L 9.6191406 18.380859 A 0.875 0.875 0 0 0 8.3808594 18.380859 A 0.875 0.875 0 0 0 8.3808594 19.619141 L 11.380859 22.619141 A 0.8750875 0.8750875 0 0 0 11.664062 22.808594 A 0.875 0.875 0 0 0 11.666016 22.808594 A 0.875 0.875 0 0 0 11.773438 22.845703 A 0.8750875 0.8750875 0 0 0 12.226562 22.845703 A 0.875 0.875 0 0 0 12.335938 22.808594 A 0.875 0.875 0 0 0 12.4375 22.757812 A 0.8750875 0.8750875 0 0 0 12.619141 22.619141 L 15.619141 19.619141 A 0.875 0.875 0 0 0 15.619141 18.380859 A 0.875 0.875 0 0 0 14.380859 18.380859 L 12.875 19.886719 L 12.875 16 A 0.875 0.875 0 0 0 12 15.125 z " />
</svg>
