<?xml version="1.0" encoding="UTF-8" standalone="no"?>
<svg
   width="24"
   height="24"
   viewBox="0 0 24 24"
   fill="none"
   stroke="currentColor"
   stroke-width="1.75"
   stroke-linecap="round"
   stroke-linejoin="round"
   version="1.1"
   id="svg10"
   sodipodi:docname=".tmp_user-round-cog.svg"
   xmlns:inkscape="http://www.inkscape.org/namespaces/inkscape"
   xmlns:sodipodi="http://sodipodi.sourceforge.net/DTD/sodipodi-0.dtd"
   xmlns="http://www.w3.org/2000/svg"
   xmlns:svg="http://www.w3.org/2000/svg">
  <defs
     id="defs10" />
  <sodipodi:namedview
     id="namedview10"
     pagecolor="#ffffff"
     bordercolor="#000000"
     borderopacity="0.25"
     inkscape:showpageshadow="2"
     inkscape:pageopacity="0.0"
     inkscape:pagecheckerboard="0"
     inkscape:deskcolor="#d1d1d1" />
  <path
     id="path1"
     style="baseline-shift:baseline;display:inline;overflow:visible;vector-effect:none;fill:#000000;stroke:none;stroke-linecap:butt;stroke-linejoin:miter;enable-background:accumulate;stop-color:#000000;stop-opacity:1;opacity:1"
     d="M 10 2.125 C 6.7656912 2.125 4.125 4.7656912 4.125 8 C 4.125 9.9801692 5.1151279 11.737366 6.625 12.802734 C 3.4654956 14.119504 1.1253484 17.222323 1.125 21 A 0.875 0.875 0 0 0 2 21.875 A 0.875 0.875 0 0 0 2.875 21 C 2.8753683 17.005956 6.0435602 13.986501 9.7421875 13.869141 C 9.8275791 13.87286 9.9137248 13.875 10 13.875 C 10.075865 13.875 10.151377 13.873973 10.226562 13.871094 C 10.865933 13.894692 11.517479 14.00513 12.167969 14.212891 A 0.875 0.875 0 0 0 13.267578 13.646484 A 0.875 0.875 0 0 0 13.185547 12.931641 C 14.801745 11.882665 15.875 10.062006 15.875 8 C 15.875 4.7656912 13.234309 2.125 10 2.125 z M 10 3.875 C 12.288539 3.875 14.125 5.7114614 14.125 8 C 14.125 10.249573 12.351234 12.06197 10.117188 12.123047 C 10.041258 12.122105 9.9643144 12.122009 9.8886719 12.123047 C 7.6519789 12.064863 5.875 10.251462 5.875 8 C 5.875 5.7114614 7.7114614 3.875 10 3.875 z M 16.46875 13.429688 A 0.875 0.875 0 0 0 16.132812 13.496094 A 0.875 0.875 0 0 0 15.660156 14.640625 L 15.748047 14.851562 C 15.40322 15.099503 15.099503 15.40322 14.851562 15.748047 L 14.640625 15.660156 A 0.875 0.875 0 0 0 13.970703 15.660156 A 0.875 0.875 0 0 0 13.496094 16.132812 A 0.875 0.875 0 0 0 13.96875 17.277344 L 14.177734 17.363281 C 14.1431 17.570385 14.125 17.783523 14.125 18 C 14.125 18.216188 14.143191 18.427924 14.177734 18.634766 L 13.970703 18.720703 A 0.875 0.875 0 0 0 13.496094 19.865234 A 0.875 0.875 0 0 0 14.638672 20.337891 L 14.851562 20.25 C 15.099836 20.595666 15.402475 20.90004 15.748047 21.148438 L 15.660156 21.361328 A 0.875 0.875 0 0 0 16.134766 22.503906 A 0.875 0.875 0 0 0 17.277344 22.03125 L 17.363281 21.822266 C 17.570385 21.8569 17.783523 21.875 18 21.875 C 18.216044 21.875 18.428055 21.856764 18.634766 21.822266 L 18.720703 22.03125 A 0.875 0.875 0 0 0 19.865234 22.503906 A 0.875 0.875 0 0 0 20.337891 21.361328 L 20.25 21.148438 C 20.595666 20.900164 20.90004 20.597525 21.148438 20.251953 L 21.361328 20.339844 A 0.875 0.875 0 0 0 22.503906 19.865234 A 0.875 0.875 0 0 0 22.03125 18.722656 L 21.822266 18.636719 C 21.8569 18.429615 21.875 18.216477 21.875 18 C 21.875 17.783523 21.8569 17.570385 21.822266 17.363281 L 22.03125 17.277344 A 0.875 0.875 0 0 0 22.503906 16.134766 A 0.875 0.875 0 0 0 21.361328 15.660156 L 21.148438 15.748047 C 20.900433 15.403021 20.59694 15.099618 20.251953 14.851562 L 20.339844 14.640625 A 0.875 0.875 0 0 0 19.867188 13.496094 A 0.875 0.875 0 0 0 19.197266 13.496094 A 0.875 0.875 0 0 0 18.722656 13.96875 L 18.636719 14.177734 C 18.429615 14.1431 18.216477 14.125 18 14.125 C 17.783523 14.125 17.570385 14.1431 17.363281 14.177734 L 17.277344 13.96875 A 0.875 0.875 0 0 0 16.46875 13.429688 z M 18 15.875 C 18.265005 15.875 18.517165 15.921352 18.75 16.007812 A 0.875 0.875 0 0 0 18.8125 16.037109 A 0.875 0.875 0 0 0 18.882812 16.0625 C 19.351095 16.273495 19.726505 16.648905 19.9375 17.117188 A 0.875 0.875 0 0 0 19.962891 17.1875 A 0.875 0.875 0 0 0 19.992188 17.25 C 20.078648 17.482835 20.125 17.734995 20.125 18 C 20.125 18.265005 20.078648 18.517165 19.992188 18.75 A 0.875 0.875 0 0 0 19.962891 18.8125 A 0.875 0.875 0 0 0 19.9375 18.882812 C 19.725575 19.353159 19.348124 19.728981 18.876953 19.939453 A 0.875 0.875 0 0 0 18.814453 19.962891 A 0.875 0.875 0 0 0 18.757812 19.988281 C 18.523092 20.076368 18.267603 20.125 18 20.125 C 17.734995 20.125 17.482835 20.078648 17.25 19.992188 A 0.875 0.875 0 0 0 17.1875 19.962891 A 0.875 0.875 0 0 0 17.117188 19.9375 C 16.648696 19.726542 16.273563 19.351245 16.0625 18.882812 A 0.875 0.875 0 0 0 16.037109 18.8125 A 0.875 0.875 0 0 0 16.007812 18.75 C 15.921352 18.517165 15.875 18.265005 15.875 18 C 15.875 17.734995 15.921352 17.482835 16.007812 17.25 A 0.875 0.875 0 0 0 16.037109 17.1875 A 0.875 0.875 0 0 0 16.0625 17.117188 C 16.273495 16.648905 16.648905 16.273495 17.117188 16.0625 A 0.875 0.875 0 0 0 17.1875 16.037109 A 0.875 0.875 0 0 0 17.25 16.007812 C 17.482835 15.921352 17.734995 15.875 18 15.875 z " />
</svg>
