<?xml version="1.0" encoding="UTF-8" standalone="no"?>
<svg
   width="24"
   height="24"
   viewBox="0 0 24 24"
   fill="none"
   stroke="currentColor"
   stroke-width="1.75"
   stroke-linecap="round"
   stroke-linejoin="round"
   version="1.1"
   id="svg4"
   sodipodi:docname=".tmp_vibrate-off.svg"
   xmlns:inkscape="http://www.inkscape.org/namespaces/inkscape"
   xmlns:sodipodi="http://sodipodi.sourceforge.net/DTD/sodipodi-0.dtd"
   xmlns="http://www.w3.org/2000/svg"
   xmlns:svg="http://www.w3.org/2000/svg">
  <defs
     id="defs4" />
  <sodipodi:namedview
     id="namedview4"
     pagecolor="#ffffff"
     bordercolor="#000000"
     borderopacity="0.25"
     inkscape:showpageshadow="2"
     inkscape:pageopacity="0.0"
     inkscape:pagecheckerboard="0"
     inkscape:deskcolor="#d1d1d1" />
  <path
     id="path1"
     style="baseline-shift:baseline;display:inline;overflow:visible;vector-effect:none;fill:#000000;stroke:none;stroke-linecap:butt;stroke-linejoin:miter;enable-background:accumulate;stop-color:#000000;stop-opacity:1;opacity:1"
     d="M 2 1.125 A 0.875 0.875 0 0 0 1.3808594 1.3808594 A 0.875 0.875 0 0 0 1.3808594 2.6191406 L 7.125 8.3632812 L 7.125 18 C 7.125 19.027273 7.9727273 19.875 9 19.875 L 15 19.875 C 15.990355 19.875 16.813184 19.086456 16.871094 18.109375 L 21.380859 22.619141 A 0.875 0.875 0 0 0 22.619141 22.619141 A 0.875 0.875 0 0 0 22.619141 21.380859 L 16.619141 15.380859 L 8.6191406 7.3808594 L 2.6191406 1.3808594 A 0.875 0.875 0 0 0 2 1.125 z M 10.660156 4.125 A 0.875 0.875 0 0 0 9.7851562 5 A 0.875 0.875 0 0 0 10.660156 5.875 L 15 5.875 C 15.07273 5.875 15.125 5.927273 15.125 6 L 15.125 10.339844 A 0.875 0.875 0 0 0 16 11.214844 A 0.875 0.875 0 0 0 16.875 10.339844 L 16.875 6 C 16.875 4.9727273 16.027273 4.125 15 4.125 L 10.660156 4.125 z M 2 7.125 A 0.875 0.875 0 0 0 1.3808594 7.3808594 A 0.875 0.875 0 0 0 1.3808594 8.6191406 L 2.7617188 10 L 1.3808594 11.380859 A 0.8750875 0.8750875 0 0 0 1.3808594 12.619141 L 2.7617188 14 L 1.3808594 15.380859 A 0.875 0.875 0 0 0 1.3808594 16.619141 A 0.875 0.875 0 0 0 2.6191406 16.619141 L 4.6191406 14.619141 A 0.8750875 0.8750875 0 0 0 4.6191406 13.380859 L 3.2382812 12 L 4.6191406 10.619141 A 0.8750875 0.8750875 0 0 0 4.6191406 9.3808594 L 2.6191406 7.3808594 A 0.875 0.875 0 0 0 2 7.125 z M 22 7.125 A 0.875 0.875 0 0 0 21.380859 7.3808594 L 19.380859 9.3808594 A 0.8750875 0.8750875 0 0 0 19.380859 10.619141 L 20.761719 12 L 19.380859 13.380859 A 0.8750875 0.8750875 0 0 0 19.380859 14.619141 L 21.380859 16.619141 A 0.875 0.875 0 0 0 22.619141 16.619141 A 0.875 0.875 0 0 0 22.619141 15.380859 L 21.238281 14 L 22.619141 12.619141 A 0.8750875 0.8750875 0 0 0 22.619141 11.380859 L 21.238281 10 L 22.619141 8.6191406 A 0.875 0.875 0 0 0 22.619141 7.3808594 A 0.875 0.875 0 0 0 22 7.125 z M 8.875 10.113281 L 15.125 16.363281 L 15.125 18 C 15.125 18.07273 15.07273 18.125 15 18.125 L 9 18.125 C 8.9272727 18.125 8.875 18.072727 8.875 18 L 8.875 10.113281 z " />
</svg>
