<?xml version="1.0" encoding="UTF-8" standalone="no"?>
<svg
   width="24"
   height="24"
   viewBox="0 0 24 24"
   fill="none"
   stroke="currentColor"
   stroke-width="1.75"
   stroke-linecap="round"
   stroke-linejoin="round"
   version="1.1"
   id="svg2"
   sodipodi:docname=".tmp_videotape.svg"
   xmlns:inkscape="http://www.inkscape.org/namespaces/inkscape"
   xmlns:sodipodi="http://sodipodi.sourceforge.net/DTD/sodipodi-0.dtd"
   xmlns="http://www.w3.org/2000/svg"
   xmlns:svg="http://www.w3.org/2000/svg">
  <defs
     id="defs2" />
  <sodipodi:namedview
     id="namedview2"
     pagecolor="#ffffff"
     bordercolor="#000000"
     borderopacity="0.25"
     inkscape:showpageshadow="2"
     inkscape:pageopacity="0.0"
     inkscape:pagecheckerboard="0"
     inkscape:deskcolor="#d1d1d1" />
  <path
     id="rect1"
     style="baseline-shift:baseline;display:inline;overflow:visible;vector-effect:none;fill:#000000;stroke:none;stroke-linecap:butt;stroke-linejoin:miter;enable-background:accumulate;stop-color:#000000;stop-opacity:1;opacity:1"
     d="M 4 3.125 C 2.4223851 3.125 1.125 4.4223851 1.125 6 L 1.125 18 C 1.125 19.577615 2.4223851 20.875 4 20.875 L 20 20.875 C 21.577615 20.875 22.875 19.577615 22.875 18 L 22.875 6 C 22.875 4.4223851 21.577615 3.125 20 3.125 L 4 3.125 z M 4 4.875 L 20 4.875 C 20.638385 4.875 21.125 5.3616149 21.125 6 L 21.125 7.125 L 2.875 7.125 L 2.875 6 C 2.875 5.3616149 3.3616149 4.875 4 4.875 z M 2.875 8.875 L 21.125 8.875 L 21.125 18 C 21.125 18.638385 20.638385 19.125 20 19.125 L 4 19.125 C 3.3616149 19.125 2.875 18.638385 2.875 18 L 2.875 8.875 z M 8 11.125 C 6.4225454 11.125 5.125 12.422545 5.125 14 C 5.125 15.577455 6.4225454 16.875 8 16.875 C 9.5774546 16.875 10.875 15.577455 10.875 14 C 10.875 13.601693 10.791649 13.221233 10.642578 12.875 L 13.357422 12.875 C 13.208351 13.221233 13.125 13.601693 13.125 14 C 13.125 15.577455 14.422545 16.875 16 16.875 C 17.577455 16.875 18.875 15.577455 18.875 14 C 18.875 12.422545 17.577455 11.125 16 11.125 L 8 11.125 z M 8 12.875 C 8.6316844 12.875 9.125 13.368316 9.125 14 C 9.125 14.631684 8.6316844 15.125 8 15.125 C 7.3683156 15.125 6.875 14.631684 6.875 14 C 6.875 13.368316 7.3683156 12.875 8 12.875 z M 16 12.875 C 16.631684 12.875 17.125 13.368316 17.125 14 C 17.125 14.631684 16.631684 15.125 16 15.125 C 15.368316 15.125 14.875 14.631684 14.875 14 C 14.875 13.368316 15.368316 12.875 16 12.875 z " />
</svg>
