<?xml version="1.0" encoding="UTF-8" standalone="no"?>
<svg
   width="24"
   height="24"
   viewBox="0 0 24 24"
   fill="none"
   stroke="currentColor"
   stroke-width="1.75"
   stroke-linecap="round"
   stroke-linejoin="round"
   version="1.1"
   id="svg2"
   sodipodi:docname=".tmp_wallet-cards.svg"
   xmlns:inkscape="http://www.inkscape.org/namespaces/inkscape"
   xmlns:sodipodi="http://sodipodi.sourceforge.net/DTD/sodipodi-0.dtd"
   xmlns="http://www.w3.org/2000/svg"
   xmlns:svg="http://www.w3.org/2000/svg">
  <defs
     id="defs2" />
  <sodipodi:namedview
     id="namedview2"
     pagecolor="#ffffff"
     bordercolor="#000000"
     borderopacity="0.25"
     inkscape:showpageshadow="2"
     inkscape:pageopacity="0.0"
     inkscape:pagecheckerboard="0"
     inkscape:deskcolor="#d1d1d1" />
  <path
     id="rect1"
     style="baseline-shift:baseline;display:inline;overflow:visible;vector-effect:none;fill:#000000;stroke:none;stroke-linecap:butt;stroke-linejoin:miter;enable-background:accumulate;stop-color:#000000;stop-opacity:1;opacity:1"
     d="M 5 2.125 C 3.4223851 2.125 2.125 3.4223851 2.125 5 L 2.125 11 L 2.125 19 C 2.125 20.577615 3.4223851 21.875 5 21.875 L 19 21.875 C 20.577615 21.875 21.875 20.577615 21.875 19 L 21.875 11 L 21.875 5 C 21.875 3.4223851 20.577615 2.125 19 2.125 L 5 2.125 z M 5 3.875 L 19 3.875 C 19.638385 3.875 20.125 4.3616149 20.125 5 L 20.125 6.3574219 C 19.778767 6.2083515 19.398307 6.125 19 6.125 L 5 6.125 C 4.6016933 6.125 4.2212326 6.2083514 3.875 6.3574219 L 3.875 5 C 3.875 4.3616149 4.3616149 3.875 5 3.875 z M 5 7.875 L 19 7.875 C 19.631684 7.875 20.125 8.3683156 20.125 9 L 20.125 10.125 L 18.099609 10.125 C 17.02662 10.125 16.079574 10.600366 15.416016 11.248047 L 14.345703 12.123047 A 0.8750875 0.8750875 0 0 0 14.28125 12.181641 C 13.003499 13.459391 11.09611 13.459391 9.8183594 12.181641 A 0.8750875 0.8750875 0 0 0 9.7539062 12.123047 L 8.7109375 11.267578 C 8.0099295 10.475577 6.9894379 10.125 6 10.125 L 3.875 10.125 L 3.875 9 C 3.875 8.3683156 4.3683156 7.875 5 7.875 z M 3.875 11.875 L 6 11.875 C 6.58125 11.875 7.1297598 12.103367 7.4277344 12.460938 A 0.8750875 0.8750875 0 0 0 7.546875 12.578125 L 8.6152344 13.451172 C 10.531446 15.331313 13.583533 15.327604 15.496094 13.441406 L 16.554688 12.578125 A 0.8750875 0.8750875 0 0 0 16.619141 12.519531 C 16.954157 12.184519 17.591276 11.875 18.099609 11.875 L 20.125 11.875 L 20.125 19 C 20.125 19.638385 19.638385 20.125 19 20.125 L 5 20.125 C 4.3616149 20.125 3.875 19.638385 3.875 19 L 3.875 11.875 z " />
</svg>
