<?xml version="1.0" encoding="UTF-8" standalone="no"?>
<svg
   width="24"
   height="24"
   viewBox="0 0 24 24"
   fill="none"
   stroke="currentColor"
   stroke-width="1.75"
   stroke-linecap="round"
   stroke-linejoin="round"
   version="1.1"
   id="svg5"
   sodipodi:docname=".tmp_waves-ladder.svg"
   xmlns:inkscape="http://www.inkscape.org/namespaces/inkscape"
   xmlns:sodipodi="http://sodipodi.sourceforge.net/DTD/sodipodi-0.dtd"
   xmlns="http://www.w3.org/2000/svg"
   xmlns:svg="http://www.w3.org/2000/svg">
  <defs
     id="defs5" />
  <sodipodi:namedview
     id="namedview5"
     pagecolor="#ffffff"
     bordercolor="#000000"
     borderopacity="0.25"
     inkscape:showpageshadow="2"
     inkscape:pageopacity="0.0"
     inkscape:pagecheckerboard="0"
     inkscape:deskcolor="#d1d1d1" />
  <path
     id="path1"
     style="baseline-shift:baseline;display:inline;overflow:visible;vector-effect:none;fill:#000000;stroke:none;stroke-linecap:butt;stroke-linejoin:miter;enable-background:accumulate;stop-color:#000000;stop-opacity:1;opacity:1"
     d="M 9 4.125 C 7.4225454 4.125 6.125 5.4225454 6.125 7 L 6.125 9 L 6.125 13 L 6.125 17.578125 C 5.684945 17.92133 5.3242219 18.125 4.5 18.125 C 3.424359 18.125 3.1605469 17.828125 2.5605469 17.328125 A 0.875 0.875 0 0 0 1.328125 17.439453 A 0.875 0.875 0 0 0 1.4394531 18.671875 C 2.0394531 19.171875 2.975641 19.875 4.5 19.875 C 5.9739364 19.875 6.9082059 19.192566 7.5332031 18.693359 C 7.5371877 18.690177 7.5429156 18.686761 7.546875 18.683594 C 8.171875 18.183594 8.4833333 17.875 9.5 17.875 C 10.575641 17.875 10.839453 18.171875 11.439453 18.671875 C 12.039453 19.171875 12.975641 19.875 14.5 19.875 C 15.983333 19.875 16.921875 19.183594 17.546875 18.683594 C 18.171875 18.183594 18.483333 17.875 19.5 17.875 C 20.575641 17.875 20.839453 18.171875 21.439453 18.671875 A 0.875 0.875 0 0 0 22.671875 18.560547 A 0.875 0.875 0 0 0 22.560547 17.328125 C 21.960547 16.828125 21.024359 16.125 19.5 16.125 C 18.864358 16.125 18.328757 16.251088 17.875 16.435547 L 17.875 7 C 17.875 6.3683156 18.368316 5.875 19 5.875 A 0.875 0.875 0 0 0 19.875 5 A 0.875 0.875 0 0 0 19 4.125 C 17.422545 4.125 16.125 5.4225454 16.125 7 L 16.125 8.125 L 7.875 8.125 L 7.875 7 C 7.875 6.3683156 8.3683156 5.875 9 5.875 A 0.875 0.875 0 0 0 9.875 5 A 0.875 0.875 0 0 0 9 4.125 z M 7.875 9.875 L 16.125 9.875 L 16.125 12.125 L 7.875 12.125 L 7.875 9.875 z M 7.875 13.875 L 16.125 13.875 L 16.125 17.578125 C 15.684945 17.92133 15.324222 18.125 14.5 18.125 C 13.424359 18.125 13.160547 17.828125 12.560547 17.328125 C 11.960547 16.828125 11.024359 16.125 9.5 16.125 C 8.864358 16.125 8.3287571 16.251088 7.875 16.435547 L 7.875 13.875 z " />
</svg>
