<?xml version="1.0" encoding="UTF-8" standalone="no"?>
<svg
   width="24"
   height="24"
   viewBox="0 0 24 24"
   fill="none"
   stroke="currentColor"
   stroke-width="1.75"
   stroke-linecap="round"
   stroke-linejoin="round"
   version="1.1"
   id="svg4"
   sodipodi:docname=".tmp_wifi-pen.svg"
   xmlns:inkscape="http://www.inkscape.org/namespaces/inkscape"
   xmlns:sodipodi="http://sodipodi.sourceforge.net/DTD/sodipodi-0.dtd"
   xmlns="http://www.w3.org/2000/svg"
   xmlns:svg="http://www.w3.org/2000/svg">
  <defs
     id="defs4" />
  <sodipodi:namedview
     id="namedview4"
     pagecolor="#ffffff"
     bordercolor="#000000"
     borderopacity="0.25"
     inkscape:showpageshadow="2"
     inkscape:pageopacity="0.0"
     inkscape:pagecheckerboard="0"
     inkscape:deskcolor="#d1d1d1" />
  <path
     id="path1"
     style="baseline-shift:baseline;display:inline;overflow:visible;vector-effect:none;fill:#000000;stroke:none;stroke-linecap:butt;stroke-linejoin:miter;enable-background:accumulate;stop-color:#000000;stop-opacity:1;opacity:1"
     d="M 12 4.1289062 C 8.2135282 4.1289062 4.4264053 5.4753943 1.4160156 8.1679688 A 0.875 0.875 0 0 0 1.3476562 9.4042969 A 0.875 0.875 0 0 0 2.5839844 9.4726562 C 7.9512312 4.6720448 16.048769 4.6720448 21.416016 9.4726562 A 0.875 0.875 0 0 0 22.652344 9.4042969 A 0.875 0.875 0 0 0 22.583984 8.1679688 C 19.573595 5.4753942 15.786472 4.1289063 12 4.1289062 z M 11.632812 9.1347656 C 8.9638539 9.2253021 6.3662886 10.297554 4.3886719 12.234375 A 0.875 0.875 0 0 0 4.375 13.470703 A 0.875 0.875 0 0 0 5.6113281 13.484375 C 8.1426271 11.005293 11.874791 10.215893 15.193359 11.457031 A 0.875 0.875 0 0 0 16.320312 10.943359 A 0.875 0.875 0 0 0 15.806641 9.8183594 C 14.818952 9.4489656 13.799566 9.2295454 12.779297 9.15625 C 12.396696 9.1287642 12.014092 9.1218318 11.632812 9.1347656 z M 19.728516 12.091797 C 19.041484 12.128145 18.329287 12.430478 17.755859 13.003906 L 13.746094 17.015625 C 13.40435 17.357181 13.15301 17.778391 13.017578 18.242188 L 12.181641 21.113281 C 11.890725 22.110705 12.889295 23.109275 13.886719 22.818359 L 16.755859 21.980469 C 17.219656 21.845037 17.642819 21.59565 17.984375 21.253906 L 21.996094 17.244141 C 22.65144 16.588794 22.953669 15.751437 22.908203 14.978516 C 22.862733 14.205595 22.509087 13.516899 21.996094 13.003906 C 21.483101 12.490913 20.794405 12.137263 20.021484 12.091797 C 19.924869 12.086113 19.826663 12.086604 19.728516 12.091797 z M 19.808594 13.835938 C 19.845016 13.834891 19.881594 13.835751 19.917969 13.837891 C 20.208964 13.855011 20.521759 14.002227 20.759766 14.240234 C 20.997773 14.478241 21.144992 14.791036 21.162109 15.082031 C 21.179229 15.373027 21.105749 15.661827 20.759766 16.007812 L 16.746094 20.015625 C 16.612406 20.149386 16.447159 20.247772 16.265625 20.300781 L 14.052734 20.947266 L 14.697266 18.732422 C 14.750276 18.550888 14.848661 18.385641 14.982422 18.251953 L 18.992188 14.240234 C 19.294926 13.937497 19.553641 13.843264 19.808594 13.835938 z M 11.527344 14.148438 A 0.875 0.875 0 0 0 11.412109 14.152344 C 10.083662 14.286402 8.8397093 14.869512 7.8867188 15.804688 A 0.875 0.875 0 0 0 7.875 17.041016 A 0.875 0.875 0 0 0 9.1132812 17.052734 C 9.7825949 16.395933 10.654883 15.988685 11.587891 15.894531 A 0.875 0.875 0 0 0 12.371094 14.935547 A 0.875 0.875 0 0 0 11.527344 14.148438 z " />
</svg>
