<?xml version="1.0" encoding="UTF-8" standalone="no"?>
<svg
   width="24"
   height="24"
   viewBox="0 0 24 24"
   fill="none"
   stroke="currentColor"
   stroke-width="1.75"
   stroke-linecap="round"
   stroke-linejoin="round"
   version="1.1"
   id="svg1"
   sodipodi:docname=".tmp_zap.svg"
   xmlns:inkscape="http://www.inkscape.org/namespaces/inkscape"
   xmlns:sodipodi="http://sodipodi.sourceforge.net/DTD/sodipodi-0.dtd"
   xmlns="http://www.w3.org/2000/svg"
   xmlns:svg="http://www.w3.org/2000/svg">
  <defs
     id="defs1" />
  <sodipodi:namedview
     id="namedview1"
     pagecolor="#ffffff"
     bordercolor="#000000"
     borderopacity="0.25"
     inkscape:showpageshadow="2"
     inkscape:pageopacity="0.0"
     inkscape:pagecheckerboard="0"
     inkscape:deskcolor="#d1d1d1" />
  <path
     id="path1"
     style="baseline-shift:baseline;display:inline;overflow:visible;vector-effect:none;fill:#000000;stroke:none;stroke-linecap:butt;stroke-linejoin:miter;enable-background:accumulate;stop-color:#000000;stop-opacity:1;opacity:1"
     d="M 13.505859 1.1328125 C 13.429624 1.1331169 13.353649 1.1400946 13.277344 1.1523438 C 12.987289 1.1989061 12.705399 1.3327448 12.492188 1.5605469 L 12.490234 1.5625 C 12.488359 1.5645126 12.48624 1.5663323 12.484375 1.5683594 L 2.5917969 11.759766 A 0.8750875 0.8750875 0 0 0 2.5410156 11.818359 C 1.5836925 12.998432 2.4815587 14.87684 4 14.875 L 4.0039062 14.875 L 11 14.875 A 0.8750875 0.8750875 0 0 0 11.001953 14.875 C 11.117778 14.874623 11.161633 14.93447 11.121094 15.042969 A 0.8750875 0.8750875 0 0 0 11.105469 15.083984 L 9.1855469 21.103516 A 0.8750875 0.8750875 0 0 0 9.1757812 21.138672 C 9.0003339 21.776531 9.3529435 22.447096 9.8535156 22.714844 C 10.341358 22.975783 11.070123 22.90598 11.507812 22.439453 L 11.513672 22.431641 L 21.408203 12.240234 A 0.8750875 0.8750875 0 0 0 21.458984 12.181641 C 22.416272 11.001568 21.518441 9.1231602 20 9.125 L 13 9.125 A 0.8750875 0.8750875 0 0 0 12.998047 9.125 C 12.882222 9.1253767 12.838367 9.06553 12.878906 8.9570312 A 0.8750875 0.8750875 0 0 0 12.894531 8.9160156 L 14.814453 2.8964844 A 0.8750875 0.8750875 0 0 0 14.824219 2.8613281 C 14.999674 2.2234695 14.647056 1.5529041 14.146484 1.2851562 C 13.95877 1.1847508 13.734566 1.1318992 13.505859 1.1328125 z M 12.654297 3.90625 L 11.240234 8.34375 C 10.791633 9.5443776 11.71866 10.877838 13 10.875 L 20 10.875 A 0.8750875 0.8750875 0 0 0 20.003906 10.875 C 20.168244 10.87444 20.200953 10.94938 20.099609 11.076172 L 11.345703 20.09375 L 12.759766 15.65625 C 13.208376 14.455622 12.28134 13.122162 11 13.125 L 4 13.125 A 0.8750875 0.8750875 0 0 0 3.9960938 13.125 C 3.8317556 13.12556 3.79905 13.05062 3.9003906 12.923828 L 12.654297 3.90625 z " />
</svg>
