<?xml version="1.0" encoding="UTF-8" standalone="no"?>
<svg
   width="24"
   height="24"
   viewBox="0 0 24 24"
   fill="none"
   stroke="currentColor"
   stroke-width="2.5"
   stroke-linecap="round"
   stroke-linejoin="round"
   version="1.1"
   id="svg4"
   sodipodi:docname=".tmp_a-arrow-down.svg"
   xmlns:inkscape="http://www.inkscape.org/namespaces/inkscape"
   xmlns:sodipodi="http://sodipodi.sourceforge.net/DTD/sodipodi-0.dtd"
   xmlns="http://www.w3.org/2000/svg"
   xmlns:svg="http://www.w3.org/2000/svg">
  <defs
     id="defs4" />
  <sodipodi:namedview
     id="namedview4"
     pagecolor="#ffffff"
     bordercolor="#000000"
     borderopacity="0.25"
     inkscape:showpageshadow="2"
     inkscape:pageopacity="0.0"
     inkscape:pagecheckerboard="0"
     inkscape:deskcolor="#d1d1d1" />
  <path
     id="path1"
     style="baseline-shift:baseline;display:inline;overflow:visible;vector-effect:none;fill:#000000;stroke:none;stroke-linecap:butt;stroke-linejoin:miter;enable-background:accumulate;stop-color:#000000;stop-opacity:1;opacity:1"
     d="M 6.5 4.7519531 C 5.8575135 4.7519531 5.1637669 5.158899 4.8847656 5.828125 L 0.84570312 15.519531 A 1.25 1.25 0 0 0 1.5195312 17.154297 A 1.25 1.25 0 0 0 3.1542969 16.480469 L 4.0839844 14.25 L 8.9160156 14.25 L 9.8457031 16.480469 A 1.25 1.25 0 0 0 11.480469 17.154297 A 1.25 1.25 0 0 0 12.154297 15.519531 L 8.1152344 5.8300781 A 1.250125 1.250125 0 0 0 8.1152344 5.828125 C 7.8362331 5.1588959 7.1424865 4.7519531 6.5 4.7519531 z M 18 5.75 A 1.25 1.25 0 0 0 16.75 7 L 16.75 12.980469 L 14.884766 11.115234 A 1.25 1.25 0 0 0 13.115234 11.115234 A 1.25 1.25 0 0 0 13.115234 12.884766 L 17.115234 16.884766 A 1.250125 1.250125 0 0 0 18.761719 16.992188 A 1.25 1.25 0 0 0 18.884766 16.884766 L 22.884766 12.884766 A 1.25 1.25 0 0 0 22.884766 11.115234 A 1.25 1.25 0 0 0 21.115234 11.115234 L 19.25 12.980469 L 19.25 7 A 1.25 1.25 0 0 0 18 5.75 z M 6.5 8.453125 L 7.875 11.75 L 5.125 11.75 L 6.5 8.453125 z " />
</svg>
