<?xml version="1.0" encoding="UTF-8" standalone="no"?>
<svg
   width="24"
   height="24"
   viewBox="0 0 24 24"
   fill="none"
   stroke="currentColor"
   stroke-width="2.5"
   stroke-linecap="round"
   stroke-linejoin="round"
   version="1.1"
   id="svg2"
   sodipodi:docname=".tmp_align-start-horizontal.svg"
   xmlns:inkscape="http://www.inkscape.org/namespaces/inkscape"
   xmlns:sodipodi="http://sodipodi.sourceforge.net/DTD/sodipodi-0.dtd"
   xmlns="http://www.w3.org/2000/svg"
   xmlns:svg="http://www.w3.org/2000/svg">
  <defs
     id="defs2" />
  <sodipodi:namedview
     id="namedview2"
     pagecolor="#ffffff"
     bordercolor="#000000"
     borderopacity="0.25"
     inkscape:showpageshadow="2"
     inkscape:pageopacity="0.0"
     inkscape:pagecheckerboard="0"
     inkscape:deskcolor="#d1d1d1" />
  <path
     id="rect1"
     style="baseline-shift:baseline;display:inline;overflow:visible;vector-effect:none;fill:#000000;stroke:none;stroke-linecap:butt;stroke-linejoin:miter;enable-background:accumulate;stop-color:#000000;stop-opacity:1;opacity:1"
     d="M 2 0.75 A 1.25 1.25 0 0 0 0.75 2 A 1.25 1.25 0 0 0 2 3.25 L 22 3.25 A 1.25 1.25 0 0 0 23.25 2 A 1.25 1.25 0 0 0 22 0.75 L 2 0.75 z M 6 4.75 C 4.2211215 4.75 2.75 6.2211215 2.75 8 L 2.75 20 C 2.75 21.778878 4.2211215 23.25 6 23.25 L 8 23.25 C 9.7788785 23.25 11.25 21.778878 11.25 20 L 11.25 8 C 11.25 6.2211215 9.7788785 4.75 8 4.75 L 6 4.75 z M 16 4.75 C 14.221122 4.75 12.75 6.2211215 12.75 8 L 12.75 13 C 12.75 14.778878 14.221122 16.25 16 16.25 L 18 16.25 C 19.778878 16.25 21.25 14.778878 21.25 13 L 21.25 8 C 21.25 6.2211215 19.778878 4.75 18 4.75 L 16 4.75 z M 6 7.25 L 8 7.25 C 8.4371215 7.25 8.75 7.5628785 8.75 8 L 8.75 20 C 8.75 20.437122 8.4371215 20.75 8 20.75 L 6 20.75 C 5.5628785 20.75 5.25 20.437122 5.25 20 L 5.25 8 C 5.25 7.5628785 5.5628785 7.25 6 7.25 z M 16 7.25 L 18 7.25 C 18.437122 7.25 18.75 7.5628785 18.75 8 L 18.75 13 C 18.75 13.437122 18.437122 13.75 18 13.75 L 16 13.75 C 15.562878 13.75 15.25 13.437122 15.25 13 L 15.25 8 C 15.25 7.5628785 15.562878 7.25 16 7.25 z " />
</svg>
