<?xml version="1.0" encoding="UTF-8" standalone="no"?>
<svg
   width="24"
   height="24"
   viewBox="0 0 24 24"
   fill="none"
   stroke="currentColor"
   stroke-width="2.5"
   stroke-linecap="round"
   stroke-linejoin="round"
   version="1.1"
   id="svg4"
   sodipodi:docname=".tmp_arrow-up-0-1.svg"
   xmlns:inkscape="http://www.inkscape.org/namespaces/inkscape"
   xmlns:sodipodi="http://sodipodi.sourceforge.net/DTD/sodipodi-0.dtd"
   xmlns="http://www.w3.org/2000/svg"
   xmlns:svg="http://www.w3.org/2000/svg">
  <defs
     id="defs4" />
  <sodipodi:namedview
     id="namedview4"
     pagecolor="#ffffff"
     bordercolor="#000000"
     borderopacity="0.25"
     inkscape:showpageshadow="2"
     inkscape:pageopacity="0.0"
     inkscape:pagecheckerboard="0"
     inkscape:deskcolor="#d1d1d1" />
  <path
     id="path1"
     style="baseline-shift:baseline;display:inline;overflow:visible;vector-effect:none;fill:#000000;stroke:none;stroke-linecap:butt;stroke-linejoin:miter;enable-background:accumulate;stop-color:#000000;stop-opacity:1;opacity:1"
     d="M 7 2.7480469 A 1.250125 1.250125 0 0 0 6.1152344 3.1152344 L 2.1152344 7.1152344 A 1.25 1.25 0 0 0 2.1152344 8.8847656 A 1.25 1.25 0 0 0 3.8847656 8.8847656 L 5.75 7.0195312 L 5.75 20 A 1.25 1.25 0 0 0 7 21.25 A 1.25 1.25 0 0 0 8.25 20 L 8.25 7.0195312 L 10.115234 8.8847656 A 1.25 1.25 0 0 0 11.884766 8.8847656 A 1.25 1.25 0 0 0 11.884766 7.1152344 L 7.8847656 3.1152344 A 1.25 1.25 0 0 0 7.7617188 3.0078125 A 1.250125 1.250125 0 0 0 7 2.7480469 z M 17 2.75 C 15.221122 2.75 13.75 4.2211215 13.75 6 L 13.75 8 C 13.75 9.7788785 15.221122 11.25 17 11.25 C 18.778878 11.25 20.25 9.7788785 20.25 8 L 20.25 6 C 20.25 4.2211215 18.778878 2.75 17 2.75 z M 17 5.25 C 17.437122 5.25 17.75 5.5628785 17.75 6 L 17.75 8 C 17.75 8.4371215 17.437122 8.75 17 8.75 C 16.562878 8.75 16.25 8.4371215 16.25 8 L 16.25 6 C 16.25 5.5628785 16.562878 5.25 17 5.25 z M 15 12.75 A 1.25 1.25 0 0 0 13.75 14 A 1.25 1.25 0 0 0 15 15.25 L 15.75 15.25 L 15.75 18.75 L 15 18.75 A 1.25 1.25 0 0 0 13.75 20 A 1.25 1.25 0 0 0 15 21.25 L 17 21.25 L 19 21.25 A 1.25 1.25 0 0 0 20.25 20 A 1.25 1.25 0 0 0 19 18.75 L 18.25 18.75 L 18.25 14 A 1.250125 1.250125 0 0 0 17 12.75 L 15 12.75 z " />
</svg>
