<?xml version="1.0" encoding="UTF-8" standalone="no"?>
<svg
   width="24"
   height="24"
   viewBox="0 0 24 24"
   fill="none"
   stroke="currentColor"
   stroke-width="2.5"
   stroke-linecap="round"
   stroke-linejoin="round"
   version="1.1"
   id="svg5"
   sodipodi:docname=".tmp_arrow-down-wide-narrow.svg"
   xmlns:inkscape="http://www.inkscape.org/namespaces/inkscape"
   xmlns:sodipodi="http://sodipodi.sourceforge.net/DTD/sodipodi-0.dtd"
   xmlns="http://www.w3.org/2000/svg"
   xmlns:svg="http://www.w3.org/2000/svg">
  <defs
     id="defs5" />
  <sodipodi:namedview
     id="namedview5"
     pagecolor="#ffffff"
     bordercolor="#000000"
     borderopacity="0.25"
     inkscape:showpageshadow="2"
     inkscape:pageopacity="0.0"
     inkscape:pagecheckerboard="0"
     inkscape:deskcolor="#d1d1d1" />
  <path
     id="path1"
     style="baseline-shift:baseline;display:inline;overflow:visible;vector-effect:none;fill:#000000;stroke:none;stroke-linecap:butt;stroke-linejoin:miter;enable-background:accumulate;stop-color:#000000;stop-opacity:1;opacity:1"
     d="M 7 2.75 A 1.25 1.25 0 0 0 5.75 4 L 5.75 16.980469 L 3.8847656 15.115234 A 1.25 1.25 0 0 0 2.1152344 15.115234 A 1.25 1.25 0 0 0 2.1152344 16.884766 L 6.1152344 20.884766 A 1.250125 1.250125 0 0 0 7.7617188 20.992188 A 1.25 1.25 0 0 0 7.8847656 20.884766 L 11.884766 16.884766 A 1.25 1.25 0 0 0 11.884766 15.115234 A 1.25 1.25 0 0 0 10.115234 15.115234 L 8.25 16.980469 L 8.25 4 A 1.25 1.25 0 0 0 7 2.75 z M 11 2.75 A 1.25 1.25 0 0 0 9.75 4 A 1.25 1.25 0 0 0 11 5.25 L 21 5.25 A 1.25 1.25 0 0 0 22.25 4 A 1.25 1.25 0 0 0 21 2.75 L 11 2.75 z M 11 6.75 A 1.25 1.25 0 0 0 9.75 8 A 1.25 1.25 0 0 0 11 9.25 L 18 9.25 A 1.25 1.25 0 0 0 19.25 8 A 1.25 1.25 0 0 0 18 6.75 L 11 6.75 z M 11 10.75 A 1.25 1.25 0 0 0 9.75 12 A 1.25 1.25 0 0 0 11 13.25 L 15 13.25 A 1.25 1.25 0 0 0 16.25 12 A 1.25 1.25 0 0 0 15 10.75 L 11 10.75 z " />
</svg>
