<?xml version="1.0" encoding="UTF-8" standalone="no"?>
<svg
   width="24"
   height="24"
   viewBox="0 0 24 24"
   fill="none"
   stroke="currentColor"
   stroke-width="2.5"
   stroke-linecap="round"
   stroke-linejoin="round"
   version="1.1"
   id="svg1"
   sodipodi:docname=".tmp_arrow-big-up.svg"
   xmlns:inkscape="http://www.inkscape.org/namespaces/inkscape"
   xmlns:sodipodi="http://sodipodi.sourceforge.net/DTD/sodipodi-0.dtd"
   xmlns="http://www.w3.org/2000/svg"
   xmlns:svg="http://www.w3.org/2000/svg">
  <defs
     id="defs1" />
  <sodipodi:namedview
     id="namedview1"
     pagecolor="#ffffff"
     bordercolor="#000000"
     borderopacity="0.25"
     inkscape:showpageshadow="2"
     inkscape:pageopacity="0.0"
     inkscape:pagecheckerboard="0"
     inkscape:deskcolor="#d1d1d1" />
  <path
     id="path1"
     style="baseline-shift:baseline;display:inline;overflow:visible;vector-effect:none;fill:#000000;stroke:none;stroke-linecap:butt;stroke-linejoin:miter;enable-background:accumulate;stop-color:#000000;stop-opacity:1;opacity:1"
     d="M 12 1.7578125 C 11.368561 1.7578125 10.738201 1.9961496 10.263672 2.4707031 L 3.4921875 9.2402344 C 2.6644533 9.8861101 2.4451001 11.043636 2.7910156 11.878906 C 3.1369347 12.714186 4.1122239 13.378407 5.1542969 13.25 L 7.75 13.25 L 7.75 19 C 7.75 20.227835 8.7721651 21.25 10 21.25 L 14 21.25 C 15.227835 21.25 16.25 20.227835 16.25 19 L 16.25 13.25 L 18.845703 13.25 C 19.887767 13.378394 20.863068 12.714179 21.208984 11.878906 C 21.554889 11.043668 21.335477 9.886123 20.507812 9.2402344 L 13.738281 2.4707031 C 13.263752 1.9961496 12.631439 1.7578125 12 1.7578125 z M 12 4.2675781 L 18.482422 10.75 L 16 10.75 C 14.772165 10.75 13.75 11.772165 13.75 13 L 13.75 18.75 L 10.25 18.75 L 10.25 13 C 10.25 11.772165 9.2278349 10.75 8 10.75 L 5.5175781 10.75 L 12 4.2675781 z " />
</svg>
