<?xml version="1.0" encoding="UTF-8" standalone="no"?>
<svg
   width="24"
   height="24"
   viewBox="0 0 24 24"
   fill="none"
   stroke="currentColor"
   stroke-width="2.5"
   stroke-linecap="round"
   stroke-linejoin="round"
   version="1.1"
   id="svg4"
   sodipodi:docname=".tmp_battery-charging.svg"
   xmlns:inkscape="http://www.inkscape.org/namespaces/inkscape"
   xmlns:sodipodi="http://sodipodi.sourceforge.net/DTD/sodipodi-0.dtd"
   xmlns="http://www.w3.org/2000/svg"
   xmlns:svg="http://www.w3.org/2000/svg">
  <defs
     id="defs4" />
  <sodipodi:namedview
     id="namedview4"
     pagecolor="#ffffff"
     bordercolor="#000000"
     borderopacity="0.25"
     inkscape:showpageshadow="2"
     inkscape:pageopacity="0.0"
     inkscape:pagecheckerboard="0"
     inkscape:deskcolor="#d1d1d1" />
  <path
     id="path1"
     style="baseline-shift:baseline;display:inline;overflow:visible;vector-effect:none;fill:#000000;stroke:none;stroke-linecap:butt;stroke-linejoin:miter;enable-background:accumulate;stop-color:#000000;stop-opacity:1;opacity:1"
     d="M 4 4.75 C 2.2198804 4.75 0.75 6.2198804 0.75 8 L 0.75 16 C 0.75 17.78012 2.2198804 19.25 4 19.25 L 5.140625 19.25 A 1.25 1.25 0 0 0 6.390625 18 A 1.25 1.25 0 0 0 5.140625 16.75 L 4 16.75 C 3.5709806 16.75 3.25 16.429019 3.25 16 L 3.25 8 C 3.25 7.5709806 3.5709806 7.25 4 7.25 L 6.9355469 7.25 A 1.25 1.25 0 0 0 8.1855469 6 A 1.25 1.25 0 0 0 6.9355469 4.75 L 4 4.75 z M 14.855469 4.75 A 1.25 1.25 0 0 0 13.605469 6 A 1.25 1.25 0 0 0 14.855469 7.25 L 16 7.25 C 16.429019 7.25 16.75 7.5709806 16.75 8 L 16.75 16 C 16.75 16.429019 16.429019 16.75 16 16.75 L 13.064453 16.75 A 1.25 1.25 0 0 0 11.814453 18 A 1.25 1.25 0 0 0 13.064453 19.25 L 16 19.25 C 17.78012 19.25 19.25 17.78012 19.25 16 L 19.25 8 C 19.25 6.2198804 17.78012 4.75 16 4.75 L 14.855469 4.75 z M 11.019531 5.75 A 1.25 1.25 0 0 0 9.9277344 6.3574219 L 6.9277344 11.357422 A 1.250125 1.250125 0 0 0 8 13.25 L 9.7929688 13.25 L 7.9277344 16.357422 A 1.25 1.25 0 0 0 8.3574219 18.072266 A 1.25 1.25 0 0 0 10.072266 17.642578 L 13.072266 12.642578 A 1.250125 1.250125 0 0 0 12 10.75 L 10.207031 10.75 L 12.072266 7.6425781 A 1.25 1.25 0 0 0 11.642578 5.9277344 A 1.25 1.25 0 0 0 11.019531 5.75 z M 22 8.75 A 1.25 1.25 0 0 0 20.75 10 L 20.75 14 A 1.25 1.25 0 0 0 22 15.25 A 1.25 1.25 0 0 0 23.25 14 L 23.25 10 A 1.25 1.25 0 0 0 22 8.75 z " />
</svg>
