<?xml version="1.0" encoding="UTF-8" standalone="no"?>
<svg
   width="24"
   height="24"
   viewBox="0 0 24 24"
   fill="none"
   stroke="currentColor"
   stroke-width="2.5"
   stroke-linecap="round"
   stroke-linejoin="round"
   version="1.1"
   id="svg2"
   sodipodi:docname=".tmp_bean.svg"
   xmlns:inkscape="http://www.inkscape.org/namespaces/inkscape"
   xmlns:sodipodi="http://sodipodi.sourceforge.net/DTD/sodipodi-0.dtd"
   xmlns="http://www.w3.org/2000/svg"
   xmlns:svg="http://www.w3.org/2000/svg">
  <defs
     id="defs2" />
  <sodipodi:namedview
     id="namedview2"
     pagecolor="#ffffff"
     bordercolor="#000000"
     borderopacity="0.25"
     inkscape:showpageshadow="2"
     inkscape:pageopacity="0.0"
     inkscape:pagecheckerboard="0"
     inkscape:deskcolor="#d1d1d1" />
  <path
     id="path1"
     style="baseline-shift:baseline;display:inline;overflow:visible;vector-effect:none;fill:#000000;stroke:none;stroke-linecap:butt;stroke-linejoin:miter;enable-background:accumulate;stop-color:#000000;stop-opacity:1;opacity:1"
     d="M 16.234375 0.74804688 C 13.126643 0.64717039 9.8560922 2.5199145 8.9492188 6.3066406 C 8.7596244 7.0973653 8.4937522 7.7367166 8.1152344 8.1152344 C 7.7362562 8.4942125 7.0980329 8.7596799 6.3066406 8.9492188 C 2.2674661 9.9165504 0.40640132 13.573815 0.79492188 16.853516 C 1.1834424 20.133217 3.8466096 23.253177 8 23.25 C 16.407548 23.25 23.25 16.407548 23.25 8 C 23.253177 3.8466096 20.133217 1.1834424 16.853516 0.79492188 C 16.648534 0.77063934 16.441557 0.75477197 16.234375 0.74804688 z M 15.957031 3.2382812 C 16.157106 3.2411368 16.357961 3.2555295 16.558594 3.2792969 C 18.783554 3.5428706 20.752265 5.039676 20.75 8 C 20.75 15.056452 15.056452 20.75 8 20.75 C 5.039676 20.752265 3.5428706 18.783554 3.2792969 16.558594 C 3.0890917 14.952974 3.5528447 13.326802 4.9082031 12.287109 C 6.794794 14.612488 10.465001 14.951441 12.708984 12.707031 C 14.95267 10.462921 14.614026 6.7946355 12.289062 4.9082031 C 13.198833 3.7232134 14.556509 3.2182924 15.957031 3.2382812 z M 11.25 7.3886719 C 12.009457 8.4259942 11.964013 9.9166523 10.941406 10.939453 C 9.9188976 11.962156 8.4285935 12.008715 7.390625 11.25 C 8.2321187 11.010612 9.1353278 10.634203 9.8847656 9.8847656 C 10.634685 9.1348462 11.010732 8.2297065 11.25 7.3886719 z " />
</svg>
