<?xml version="1.0" encoding="UTF-8" standalone="no"?>
<svg
   width="24"
   height="24"
   viewBox="0 0 24 24"
   fill="none"
   stroke="currentColor"
   stroke-width="2.5"
   stroke-linecap="round"
   stroke-linejoin="round"
   version="1.1"
   id="svg3"
   sodipodi:docname=".tmp_bean-off.svg"
   xmlns:inkscape="http://www.inkscape.org/namespaces/inkscape"
   xmlns:sodipodi="http://sodipodi.sourceforge.net/DTD/sodipodi-0.dtd"
   xmlns="http://www.w3.org/2000/svg"
   xmlns:svg="http://www.w3.org/2000/svg">
  <defs
     id="defs3" />
  <sodipodi:namedview
     id="namedview3"
     pagecolor="#ffffff"
     bordercolor="#000000"
     borderopacity="0.25"
     inkscape:showpageshadow="2"
     inkscape:pageopacity="0.0"
     inkscape:pagecheckerboard="0"
     inkscape:deskcolor="#d1d1d1" />
  <path
     id="path1"
     style="baseline-shift:baseline;display:inline;overflow:visible;vector-effect:none;fill:#000000;stroke:none;stroke-linecap:butt;stroke-linejoin:miter;enable-background:accumulate;stop-color:#000000;stop-opacity:1;opacity:1"
     d="M 2 0.74804688 A 1.25 1.25 0 0 0 1.1152344 1.1152344 A 1.25 1.25 0 0 0 1.1152344 2.8847656 L 6.984375 8.7539062 C 6.774715 8.8268026 6.5477291 8.8914779 6.3066406 8.9492188 C 2.2674661 9.9165504 0.40640132 13.573815 0.79492188 16.853516 C 1.1834424 20.133217 3.8466096 23.253177 8 23.25 C 11.625757 23.254123 15.12006 21.962551 17.863281 19.632812 L 21.115234 22.884766 A 1.25 1.25 0 0 0 22.884766 22.884766 A 1.25 1.25 0 0 0 22.884766 21.115234 L 18.783203 17.015625 L 12.710938 10.943359 L 9.8867188 8.1171875 A 1.25 1.25 0 0 0 9.8847656 8.1152344 A 1.25 1.25 0 0 0 9.8828125 8.1132812 L 2.8847656 1.1152344 A 1.25 1.25 0 0 0 2 0.74804688 z M 15.556641 0.75976562 C 13.266487 0.89146492 10.982908 2.090489 9.65625 4.4882812 A 1.25 1.25 0 0 0 9.5820312 4.6523438 A 1.25 1.25 0 0 0 9.4785156 4.8339844 A 1.25 1.25 0 0 0 10.111328 6.4824219 C 10.737563 6.7607634 11.237591 7.2623009 11.515625 7.8886719 A 1.25 1.25 0 0 0 13.166016 8.5234375 A 1.25 1.25 0 0 0 13.800781 6.8730469 C 13.466887 6.1208305 12.963041 5.464597 12.337891 4.9492188 C 13.602423 3.3456954 15.471621 2.9550542 17.1875 3.3984375 C 19.144423 3.9041064 20.75096 5.455798 20.75 8 C 20.75 10.200161 20.195706 12.261683 19.21875 14.064453 A 1.25 1.25 0 0 0 19.720703 15.759766 A 1.25 1.25 0 0 0 21.416016 15.255859 C 22.58506 13.09863 23.25 10.621839 23.25 8 C 23.251378 4.3462219 20.732969 1.73266 17.814453 0.97851562 C 17.084824 0.78997952 16.320025 0.71586587 15.556641 0.75976562 z M 8.8789062 10.648438 L 9.859375 11.628906 C 9.0195403 11.917153 8.0980324 11.773776 7.3886719 11.251953 C 7.8783489 11.112747 8.389566 10.927022 8.8789062 10.648438 z M 4.90625 12.289062 C 6.5343333 14.29957 9.4948254 14.827066 11.71875 13.488281 L 16.089844 17.859375 C 13.821362 19.724349 10.964688 20.753731 8.0019531 20.75 A 1.250125 1.250125 0 0 0 8 20.75 C 5.039676 20.752265 3.5428706 18.783554 3.2792969 16.558594 C 3.0892119 14.953989 3.5528728 13.328838 4.90625 12.289062 z " />
</svg>
