<?xml version="1.0" encoding="UTF-8" standalone="no"?>
<svg
   width="24"
   height="24"
   viewBox="0 0 24 24"
   fill="none"
   stroke="currentColor"
   stroke-width="2.5"
   stroke-linecap="round"
   stroke-linejoin="round"
   version="1.1"
   id="svg8"
   sodipodi:docname=".tmp_beer-off.svg"
   xmlns:inkscape="http://www.inkscape.org/namespaces/inkscape"
   xmlns:sodipodi="http://sodipodi.sourceforge.net/DTD/sodipodi-0.dtd"
   xmlns="http://www.w3.org/2000/svg"
   xmlns:svg="http://www.w3.org/2000/svg">
  <defs
     id="defs8" />
  <sodipodi:namedview
     id="namedview8"
     pagecolor="#ffffff"
     bordercolor="#000000"
     borderopacity="0.25"
     inkscape:showpageshadow="2"
     inkscape:pageopacity="0.0"
     inkscape:pagecheckerboard="0"
     inkscape:deskcolor="#d1d1d1" />
  <path
     id="path1"
     style="baseline-shift:baseline;display:inline;overflow:visible;vector-effect:none;fill:#000000;stroke:none;stroke-linecap:butt;stroke-linejoin:miter;enable-background:accumulate;stop-color:#000000;stop-opacity:1;opacity:1"
     d="M 2 0.74804688 A 1.25 1.25 0 0 0 1.1152344 1.1152344 A 1.25 1.25 0 0 0 1.1152344 2.8847656 L 2.1152344 3.8847656 C 1.647896 4.8703498 1.646958 5.9984258 2.0351562 6.9355469 C 2.3579567 7.714796 2.9642364 8.3963447 3.75 8.8144531 L 3.75 20 C 3.75 21.78012 5.2198804 23.25 7 23.25 L 15 23.25 C 16.773625 23.25 18.239328 21.790885 18.25 20.019531 L 21.115234 22.884766 A 1.25 1.25 0 0 0 22.884766 22.884766 A 1.25 1.25 0 0 0 22.884766 21.115234 L 2.8847656 1.1152344 A 1.25 1.25 0 0 0 2 0.74804688 z M 11 0.75 C 9.3117564 0.75 8.3120904 1.9523176 7.9746094 2.2070312 A 1.25 1.25 0 0 0 7.7285156 3.9570312 A 1.25 1.25 0 0 0 9.4804688 4.2011719 C 10.300988 3.5818856 10.458244 3.25 11 3.25 C 11.379359 3.25 11.509317 3.3605736 11.888672 3.6914062 C 12.268026 4.0222387 12.875 4.75 14 4.75 C 15.416667 4.75 16.254188 4.25 16.5 4.25 C 17.020833 4.25 17.253831 4.4003055 17.441406 4.6113281 C 17.628982 4.8223507 17.75 5.1527777 17.75 5.5 C 17.75 5.8472223 17.628982 6.1776493 17.441406 6.3886719 C 17.253831 6.5996945 17.020833 6.75 16.5 6.75 C 16.254188 6.75 15.416667 6.25 14 6.25 A 1.250125 1.250125 0 0 0 13.992188 6.25 C 13.594335 6.25243 13.199097 6.309157 12.816406 6.4179688 A 1.25 1.25 0 0 0 11.955078 7.9609375 A 1.25 1.25 0 0 0 13.5 8.8222656 C 13.662715 8.7760002 13.830867 8.7517248 14 8.75 C 14.000876 8.75 14.003006 8.7499977 14.003906 8.75 C 14.462056 8.7511798 14.931859 9.059682 15.75 9.1914062 L 15.75 11.470703 A 1.25 1.25 0 0 0 17 12.720703 A 1.25 1.25 0 0 0 17.976562 12.25 L 18 12.25 C 19.31097 12.249877 20.130757 13.507617 19.601562 14.707031 A 1.25 1.25 0 0 0 20.240234 16.355469 A 1.25 1.25 0 0 0 21.888672 15.714844 C 23.075512 13.024881 21.137613 9.9277083 18.25 9.7578125 L 18.25 8.8476562 C 18.661911 8.6438771 19.021854 8.37141 19.308594 8.0488281 C 19.954357 7.3223507 20.25 6.4027777 20.25 5.5 C 20.25 4.5972223 19.954351 3.6776493 19.308594 2.9511719 C 18.662836 2.2246945 17.645833 1.75 16.5 1.75 C 15.212216 1.75 14.607797 2.2287547 14.035156 2.2480469 C 14.037139 2.2476902 14.041486 2.2465968 14.042969 2.2460938 L 14.044922 2.2460938 L 14.044922 2.2441406 L 14.046875 2.2441406 L 14.046875 2.2421875 L 14.046875 2.2402344 L 14.046875 2.2382812 L 14.046875 2.2363281 L 14.044922 2.234375 L 14.042969 2.2324219 C 14.017907 2.1977099 13.861697 2.0967713 13.53125 1.8085938 C 13.050605 1.3894263 12.180641 0.75 11 0.75 z M 4.5117188 6.28125 L 4.7636719 6.5332031 C 4.6657102 6.4627987 4.5827556 6.378293 4.5117188 6.28125 z M 7.1601562 8.9296875 L 11.75 13.519531 L 11.75 18 A 1.25 1.25 0 0 0 13 19.25 A 1.25 1.25 0 0 0 14.25 18 L 14.25 16.019531 L 15.75 17.519531 L 15.75 20 C 15.75 20.429019 15.429019 20.75 15 20.75 L 7 20.75 C 6.5709806 20.75 6.25 20.429019 6.25 20 L 6.25 9.1835938 C 6.6110229 9.1188673 6.9056851 9.0171169 7.1601562 8.9296875 z M 9 13.349609 A 1.25 1.25 0 0 0 7.75 14.599609 L 7.75 18 A 1.25 1.25 0 0 0 9 19.25 A 1.25 1.25 0 0 0 10.25 18 L 10.25 14.599609 A 1.25 1.25 0 0 0 9 13.349609 z " />
</svg>
