<?xml version="1.0" encoding="UTF-8" standalone="no"?>
<svg
   width="24"
   height="24"
   viewBox="0 0 24 24"
   fill="none"
   stroke="currentColor"
   stroke-width="2.5"
   stroke-linecap="round"
   stroke-linejoin="round"
   version="1.1"
   id="svg2"
   sodipodi:docname=".tmp_bell.svg"
   xmlns:inkscape="http://www.inkscape.org/namespaces/inkscape"
   xmlns:sodipodi="http://sodipodi.sourceforge.net/DTD/sodipodi-0.dtd"
   xmlns="http://www.w3.org/2000/svg"
   xmlns:svg="http://www.w3.org/2000/svg">
  <defs
     id="defs2" />
  <sodipodi:namedview
     id="namedview2"
     pagecolor="#ffffff"
     bordercolor="#000000"
     borderopacity="0.25"
     inkscape:showpageshadow="2"
     inkscape:pageopacity="0.0"
     inkscape:pagecheckerboard="0"
     inkscape:deskcolor="#d1d1d1" />
  <path
     id="path1"
     style="baseline-shift:baseline;display:inline;overflow:visible;vector-effect:none;fill:#000000;stroke:none;stroke-linecap:butt;stroke-linejoin:miter;enable-background:accumulate;stop-color:#000000;stop-opacity:1;opacity:1"
     d="M 12 0.75 C 8.0107426 0.75 4.75 4.0107396 4.75 8 C 4.75 12.237646 3.6902223 13.087092 2.3632812 14.457031 A 1.25 1.25 0 0 0 2.3632812 14.482422 A 1.25 1.25 0 0 0 2.3378906 14.484375 C 1.7117263 15.17063 1.6116373 16.160191 1.9414062 16.908203 C 2.2711752 17.656216 3.070973 18.249321 4 18.25 L 20 18.25 C 20.928912 18.250332 21.727945 17.65769 22.058594 16.910156 C 22.389242 16.162622 22.289222 15.173391 21.664062 14.486328 A 1.250125 1.250125 0 0 0 21.636719 14.457031 C 20.307463 13.086805 19.25 12.237831 19.25 8 C 19.25 4.0107396 15.989257 0.75 12 0.75 z M 12 3.25 C 14.638159 3.25 16.75 5.361839 16.75 8 C 16.75 12.383558 18.243864 14.374149 19.519531 15.75 L 4.4824219 15.75 C 5.7556187 14.375529 7.25 12.385172 7.25 8 C 7.25 5.361839 9.3618405 3.25 12 3.25 z M 19.814453 16.158203 C 19.821179 16.165574 19.829175 16.177525 19.835938 16.1875 L 19.816406 16.167969 L 19.816406 16.166016 C 19.816142 16.164002 19.814714 16.160321 19.814453 16.158203 z M 10.267578 19.75 A 1.25 1.25 0 0 0 9.6425781 19.917969 A 1.25 1.25 0 0 0 9.1855469 21.625 C 10.406443 23.739406 13.593557 23.739406 14.814453 21.625 A 1.25 1.25 0 0 0 14.357422 19.917969 A 1.25 1.25 0 0 0 12.650391 20.375 C 12.331641 20.927026 11.668359 20.927026 11.349609 20.375 A 1.25 1.25 0 0 0 10.267578 19.75 z " />
</svg>
