<?xml version="1.0" encoding="UTF-8" standalone="no"?>
<svg
   width="24"
   height="24"
   viewBox="0 0 24 24"
   fill="none"
   stroke="currentColor"
   stroke-width="2.5"
   stroke-linecap="round"
   stroke-linejoin="round"
   version="1.1"
   id="svg2"
   sodipodi:docname=".tmp_bell-dot.svg"
   xmlns:inkscape="http://www.inkscape.org/namespaces/inkscape"
   xmlns:sodipodi="http://sodipodi.sourceforge.net/DTD/sodipodi-0.dtd"
   xmlns="http://www.w3.org/2000/svg"
   xmlns:svg="http://www.w3.org/2000/svg">
  <defs
     id="defs2" />
  <sodipodi:namedview
     id="namedview2"
     pagecolor="#ffffff"
     bordercolor="#000000"
     borderopacity="0.25"
     inkscape:showpageshadow="2"
     inkscape:pageopacity="0.0"
     inkscape:pagecheckerboard="0"
     inkscape:deskcolor="#d1d1d1" />
  <path
     id="path1"
     style="baseline-shift:baseline;display:inline;overflow:visible;vector-effect:none;fill:#000000;stroke:none;stroke-linecap:butt;stroke-linejoin:miter;enable-background:accumulate;stop-color:#000000;stop-opacity:1;opacity:1"
     d="M 11.701172 0.7578125 C 11.415517 0.77085733 11.132356 0.80116744 10.853516 0.84765625 C 7.5074326 1.4055219 4.7499106 4.3088663 4.75 8 C 4.75 12.237646 3.6919833 13.086338 2.3632812 14.457031 A 1.250125 1.250125 0 0 0 2.3359375 14.486328 C 1.7107795 15.173388 1.6107577 16.162622 1.9414062 16.910156 C 2.2720548 17.65769 3.0710875 18.250332 4 18.25 L 20 18.25 C 20.928912 18.250332 21.727945 17.65769 22.058594 16.910156 C 22.389242 16.162622 22.289222 15.173391 21.664062 14.486328 A 1.250125 1.250125 0 0 0 21.636719 14.457031 C 21.459506 14.274535 21.291229 14.081843 21.132812 13.882812 A 1.25 1.25 0 0 0 19.376953 13.683594 A 1.25 1.25 0 0 0 19.177734 15.441406 C 19.263214 15.548803 19.35952 15.646153 19.449219 15.75 L 4.4824219 15.75 C 5.7570844 14.374519 7.25 12.383605 7.25 8 C 7.2499204 4.7141549 10.403772 2.448767 13.517578 3.4980469 A 1.25 1.25 0 0 0 15.099609 2.7128906 A 1.25 1.25 0 0 0 14.314453 1.1289062 C 13.439985 0.83423078 12.558136 0.71867801 11.701172 0.7578125 z M 18 3.75 C 15.667596 3.75 13.75 5.6675956 13.75 8 C 13.75 10.332404 15.667596 12.25 18 12.25 C 20.332404 12.25 22.25 10.332404 22.25 8 C 22.25 5.6675956 20.332404 3.75 18 3.75 z M 18 6.25 C 18.981304 6.25 19.75 7.0186959 19.75 8 C 19.75 8.9813041 18.981304 9.75 18 9.75 C 17.018696 9.75 16.25 8.9813041 16.25 8 C 16.25 7.0186959 17.018696 6.25 18 6.25 z M 4.1835938 16.166016 L 4.1835938 16.167969 L 4.1640625 16.191406 C 4.1703044 16.183107 4.1773887 16.17377 4.1835938 16.166016 z M 10.267578 19.75 A 1.25 1.25 0 0 0 9.6425781 19.917969 A 1.25 1.25 0 0 0 9.1855469 21.625 C 10.406443 23.739406 13.593557 23.739406 14.814453 21.625 A 1.25 1.25 0 0 0 14.357422 19.917969 A 1.25 1.25 0 0 0 12.650391 20.375 C 12.331641 20.927026 11.668359 20.927026 11.349609 20.375 A 1.25 1.25 0 0 0 10.267578 19.75 z " />
</svg>
