<?xml version="1.0" encoding="UTF-8" standalone="no"?>
<svg
   width="24"
   height="24"
   viewBox="0 0 24 24"
   fill="none"
   stroke="currentColor"
   stroke-width="2.5"
   stroke-linecap="round"
   stroke-linejoin="round"
   version="1.1"
   id="svg3"
   sodipodi:docname=".tmp_biceps-flexed.svg"
   xmlns:inkscape="http://www.inkscape.org/namespaces/inkscape"
   xmlns:sodipodi="http://sodipodi.sourceforge.net/DTD/sodipodi-0.dtd"
   xmlns="http://www.w3.org/2000/svg"
   xmlns:svg="http://www.w3.org/2000/svg">
  <defs
     id="defs3" />
  <sodipodi:namedview
     id="namedview3"
     pagecolor="#ffffff"
     bordercolor="#000000"
     borderopacity="0.25"
     inkscape:showpageshadow="2"
     inkscape:pageopacity="0.0"
     inkscape:pagecheckerboard="0"
     inkscape:deskcolor="#d1d1d1" />
  <path
     id="path1"
     style="baseline-shift:baseline;display:inline;overflow:visible;vector-effect:none;fill:#000000;stroke:none;stroke-linecap:butt;stroke-linejoin:miter;enable-background:accumulate;stop-color:#000000;stop-opacity:1;opacity:1"
     d="M 10 0.75 C 7.8537582 0.75 6.0598593 1.5855089 4.7714844 2.8789062 C 3.4831094 4.1723034 2.6572783 5.8641382 2.0878906 7.6660156 C 0.94911535 11.269771 0.81471541 15.401389 0.75976562 18.150391 C 0.74173088 19.019337 1.0899306 19.95142 1.8847656 20.541016 A 1.250125 1.250125 0 0 0 1.8847656 20.542969 C 4.5314177 22.502256 8.7553931 23.25 13 23.25 C 15.761167 23.25 18.273435 22.392616 20.142578 20.935547 C 22.011721 19.478478 23.25 17.364109 23.25 15 C 23.251588 11.713114 20.89396 9.4203781 18.265625 8.8769531 C 15.866436 8.3809055 13.095697 9.3117511 11.640625 11.773438 C 11.092923 11.807306 10.553022 11.912214 10.033203 12.083984 C 10.049768 11.587967 10.047567 11.102041 10.064453 10.640625 C 10.094093 9.8307485 10.145703 9.0912449 10.263672 8.5957031 C 10.303696 8.4275769 10.345257 8.2993503 10.386719 8.2011719 C 10.583183 8.2329588 10.788274 8.25 11 8.25 C 12.78012 8.25 14.25 6.7801196 14.25 5 C 14.25 2.6675956 12.332404 0.75 10 0.75 z M 10 3.25 C 10.981304 3.25 11.75 4.0186959 11.75 5 C 11.75 5.4290194 11.429019 5.75 11 5.75 C 10.815699 5.75 10.67673 5.745146 10.570312 5.7324219 A 1.25 1.25 0 0 0 10.273438 5.6132812 A 1.25 1.25 0 0 0 10.244141 5.6054688 C 10.17693 5.5396625 10.131437 5.4478979 10.048828 5.3203125 A 1.25 1.25 0 0 0 8.3203125 4.9511719 A 1.25 1.25 0 0 0 7.9511719 6.6796875 C 8.0205467 6.7868331 8.101605 6.8942592 8.1933594 7 C 8.0267419 7.3313415 7.9122304 7.6806925 7.8320312 8.0175781 C 7.6337814 8.8503488 7.5971426 9.7089548 7.5664062 10.548828 C 7.5064601 12.186862 7.3378805 13.730951 7.0234375 14.214844 C 7.01543 14.227166 7.0081984 14.239069 7 14.25 C 6.7152958 14.62808 6.468224 15.044519 6.2695312 15.5 A 1.25 1.25 0 0 0 6.9160156 17.146484 A 1.25 1.25 0 0 0 8.5625 16.5 C 8.6691125 16.255603 8.796149 16.029767 8.9414062 15.822266 A 1.25 1.25 0 0 0 9 15.75 C 9.0332654 15.705646 9.06456 15.660171 9.0957031 15.615234 C 9.8505562 14.679539 10.98965 14.18937 12.142578 14.238281 A 1.25 1.25 0 0 0 12.462891 14.265625 C 13.083048 14.346403 13.698023 14.585786 14.25 15 A 1.25 1.25 0 0 0 16 14.75 A 1.25 1.25 0 0 0 15.75 13 C 15.323265 12.67977 14.87061 12.424191 14.402344 12.230469 C 15.316986 11.310728 16.563481 11.078832 17.759766 11.326172 C 19.389663 11.663163 20.751036 12.854914 20.75 15 C 20.75 16.501891 19.988279 17.888413 18.607422 18.964844 C 17.226565 20.041275 15.238833 20.75 13 20.75 C 9.0906069 20.75 5.1623948 19.857869 3.3730469 18.533203 C 3.3158819 18.490799 3.2538472 18.392225 3.2578125 18.201172 C 3.3118627 15.497173 3.4864315 11.540917 4.4726562 8.4199219 C 4.9657686 6.8594243 5.6568906 5.5301496 6.5410156 4.6425781 C 7.4251407 3.7550066 8.4597418 3.25 10 3.25 z " />
</svg>
