<?xml version="1.0" encoding="UTF-8" standalone="no"?>
<svg
   width="24"
   height="24"
   viewBox="0 0 24 24"
   fill="none"
   stroke="currentColor"
   stroke-width="2.5"
   stroke-linecap="round"
   stroke-linejoin="round"
   version="1.1"
   id="svg7"
   sodipodi:docname=".tmp_bot-off.svg"
   xmlns:inkscape="http://www.inkscape.org/namespaces/inkscape"
   xmlns:sodipodi="http://sodipodi.sourceforge.net/DTD/sodipodi-0.dtd"
   xmlns="http://www.w3.org/2000/svg"
   xmlns:svg="http://www.w3.org/2000/svg">
  <defs
     id="defs7" />
  <sodipodi:namedview
     id="namedview7"
     pagecolor="#ffffff"
     bordercolor="#000000"
     borderopacity="0.25"
     inkscape:showpageshadow="2"
     inkscape:pageopacity="0.0"
     inkscape:pagecheckerboard="0"
     inkscape:deskcolor="#d1d1d1" />
  <path
     id="path1"
     style="baseline-shift:baseline;display:inline;overflow:visible;vector-effect:none;fill:#000000;stroke:none;stroke-linecap:butt;stroke-linejoin:miter;enable-background:accumulate;stop-color:#000000;stop-opacity:1;opacity:1"
     d="M 2 0.74804688 A 1.25 1.25 0 0 0 1.1152344 1.1152344 A 1.25 1.25 0 0 0 1.1152344 2.8847656 L 5.1074219 6.8769531 C 3.754124 7.2697512 2.75 8.5288347 2.75 10 L 2.75 12.75 L 2 12.75 A 1.25 1.25 0 0 0 0.75 14 A 1.25 1.25 0 0 0 2 15.25 L 2.75 15.25 L 2.75 18 C 2.75 19.78012 4.2198804 21.25 6 21.25 L 18 21.25 C 18.427643 21.249909 18.847755 21.165743 19.236328 21.005859 L 21.115234 22.884766 A 1.25 1.25 0 0 0 22.884766 22.884766 A 1.25 1.25 0 0 0 22.884766 21.115234 L 2.8847656 1.1152344 A 1.25 1.25 0 0 0 2 0.74804688 z M 9.6699219 2.75 A 1.25 1.25 0 0 0 8.4199219 4 A 1.25 1.25 0 0 0 9.6699219 5.25 L 10.75 5.25 L 10.75 6.3300781 A 1.25 1.25 0 0 0 12 7.5800781 A 1.25 1.25 0 0 0 12.544922 7.4550781 A 1.25 1.25 0 0 0 12.419922 8 A 1.25 1.25 0 0 0 13.669922 9.25 L 18 9.25 C 18.429019 9.25 18.75 9.5709806 18.75 10 L 18.75 14.330078 A 1.25 1.25 0 0 0 20 15.580078 A 1.25 1.25 0 0 0 20.845703 15.25 L 22 15.25 A 1.25 1.25 0 0 0 23.25 14 A 1.25 1.25 0 0 0 22 12.75 L 21.25 12.75 L 21.25 10 C 21.25 8.2198804 19.78012 6.75 18 6.75 L 13.669922 6.75 A 1.25 1.25 0 0 0 13.125 6.875 A 1.25 1.25 0 0 0 13.25 6.3300781 L 13.25 4 A 1.250125 1.250125 0 0 0 12 2.75 L 9.6699219 2.75 z M 6 9.25 L 7.4804688 9.25 L 16.980469 18.75 L 6 18.75 C 5.5709806 18.75 5.25 18.429019 5.25 18 L 5.25 10 C 5.25 9.5709806 5.5709806 9.25 6 9.25 z M 9 11.75 A 1.25 1.25 0 0 0 7.75 13 L 7.75 15 A 1.25 1.25 0 0 0 9 16.25 A 1.25 1.25 0 0 0 10.25 15 L 10.25 13 A 1.25 1.25 0 0 0 9 11.75 z " />
</svg>
