<?xml version="1.0" encoding="UTF-8" standalone="no"?>
<svg
   width="24"
   height="24"
   viewBox="0 0 24 24"
   fill="none"
   stroke="currentColor"
   stroke-width="2.5"
   stroke-linecap="round"
   stroke-linejoin="round"
   version="1.1"
   id="svg14"
   sodipodi:docname=".tmp_brain-cog.svg"
   xmlns:inkscape="http://www.inkscape.org/namespaces/inkscape"
   xmlns:sodipodi="http://sodipodi.sourceforge.net/DTD/sodipodi-0.dtd"
   xmlns="http://www.w3.org/2000/svg"
   xmlns:svg="http://www.w3.org/2000/svg">
  <defs
     id="defs14" />
  <sodipodi:namedview
     id="namedview14"
     pagecolor="#ffffff"
     bordercolor="#000000"
     borderopacity="0.25"
     inkscape:showpageshadow="2"
     inkscape:pageopacity="0.0"
     inkscape:pagecheckerboard="0"
     inkscape:deskcolor="#d1d1d1" />
  <path
     id="path1"
     style="baseline-shift:baseline;display:inline;overflow:visible;vector-effect:none;fill:#000000;stroke:none;stroke-linecap:butt;stroke-linejoin:miter;enable-background:accumulate;stop-color:#000000;stop-opacity:1;opacity:1"
     d="M 15.103516 0.75195312 C 14.775021 0.74515897 14.452011 0.77796028 14.138672 0.84570312 C 13.29912 1.0272113 12.60175 1.5248194 12.011719 2.1347656 C 11.455097 1.5592583 10.800988 1.0720363 10.056641 0.88085938 C 8.3548098 0.44376404 6.290112 1.1049699 5.2753906 2.9511719 C 5.048849 3.3635281 5.0390242 3.8412911 4.9589844 4.3007812 C 2.5314963 5.3734049 1.2162563 8.0841183 1.9960938 10.585938 C 0.9320854 11.834524 0.55230066 13.504098 0.84375 15.001953 C 1.0762855 16.197031 1.7458484 17.334333 2.7460938 18.130859 C 2.7880344 20.486173 4.3895599 22.324658 6.3144531 22.976562 C 8.2215127 23.622429 10.532323 23.072552 12 21.269531 C 13.467498 23.072699 15.778439 23.622187 17.685547 22.976562 C 19.611375 22.324601 21.21318 20.4857 21.253906 18.128906 C 22.252074 17.333048 22.920029 16.197384 23.152344 15.003906 C 23.443577 13.507743 23.065267 11.83859 22.003906 10.589844 C 22.797773 8.0821076 21.562646 5.3003141 19.160156 4.2128906 C 18.860986 2.6828011 17.740096 1.3341041 16.099609 0.89453125 C 15.76599 0.80513691 15.43201 0.75874728 15.103516 0.75195312 z M 8.8828125 3.2324219 C 9.06457 3.2296082 9.2506485 3.2552454 9.4355469 3.3027344 C 10.17514 3.4926903 10.7509 4.0008265 10.75 4.9980469 L 10.75 5 A 1.250125 1.250125 0 0 0 13.25 5.0019531 L 13.25 5 C 13.249948 3.817827 14.311241 3.0026226 15.453125 3.3085938 C 16.254541 3.5233353 16.746465 4.1973271 16.763672 4.9335938 A 1.25 1.25 0 0 0 16.75 5.1894531 C 16.720816 5.4201689 16.644011 5.6526543 16.515625 5.875 A 1.25 1.25 0 0 0 16.972656 7.5820312 A 1.25 1.25 0 0 0 18.679688 7.125 C 18.722062 7.0516131 18.761447 6.9770127 18.798828 6.9023438 C 19.437464 7.4389016 19.792355 8.239649 19.761719 9.0722656 A 1.25 1.25 0 0 0 18.347656 9.8242188 A 1.25 1.25 0 0 0 19.035156 11.451172 C 19.246636 11.537063 19.436417 11.634809 19.605469 11.744141 A 1.25 1.25 0 0 0 19.929688 11.996094 A 1.25 1.25 0 0 0 19.949219 12.005859 C 20.694319 12.671885 20.877804 13.607934 20.699219 14.525391 C 20.561665 15.23205 20.22146 15.868253 19.642578 16.277344 A 1.25 1.25 0 0 0 19.138672 16.548828 C 18.81406 16.677475 18.436727 16.749441 18.003906 16.75 A 1.25 1.25 0 0 0 16.755859 18.001953 A 1.25 1.25 0 0 0 18.005859 19.25 C 18.182774 19.24977 18.355381 19.240833 18.525391 19.224609 C 18.208766 19.908917 17.600115 20.364589 16.882812 20.607422 C 15.711593 21.003922 14.425649 20.774672 13.619141 19.375 A 1.250125 1.250125 0 0 0 13.617188 19.373047 C 13.169298 18.599159 12.513546 18.517578 12 18.517578 C 11.486454 18.517578 10.830748 18.599108 10.382812 19.373047 A 1.250125 1.250125 0 0 0 10.380859 19.376953 C 9.5743192 20.777041 8.2865983 21.004128 7.1152344 20.607422 C 6.3979306 20.364492 5.7887517 19.908718 5.4726562 19.224609 C 5.6448121 19.240936 5.8207762 19.2501 6 19.25 A 1.25 1.25 0 0 0 7.25 18 A 1.25 1.25 0 0 0 6 16.75 C 5.5668084 16.750242 5.1902651 16.678806 4.8652344 16.550781 A 1.25 1.25 0 0 0 4.3535156 16.275391 C 3.7761976 15.86626 3.4361701 15.231237 3.2988281 14.525391 C 3.1204681 13.608739 3.303912 12.67535 4.046875 12.009766 A 1.25 1.25 0 0 0 4.0703125 11.996094 A 1.25 1.25 0 0 0 4.3964844 11.742188 C 4.5659868 11.633045 4.7567524 11.534828 4.96875 11.449219 A 1.25 1.25 0 0 0 5.6582031 9.8222656 A 1.25 1.25 0 0 0 4.2382812 9.0703125 C 4.2084513 8.2386394 4.5632351 7.4383606 5.2011719 6.9023438 C 5.238804 6.9774051 5.2781526 7.0520594 5.3203125 7.125 A 1.25 1.25 0 0 0 7.0273438 7.5820312 A 1.25 1.25 0 0 0 7.484375 5.875 C 7.3430404 5.6304778 7.2619558 5.3544387 7.25 5.0722656 C 7.2365202 4.7528442 7.3109043 4.4364542 7.4648438 4.15625 A 1.250125 1.250125 0 0 0 7.4667969 4.15625 C 7.8266196 3.500577 8.33754 3.2408628 8.8828125 3.2324219 z M 10.496094 7.0546875 A 1.25 1.25 0 0 0 9.9902344 7.1503906 A 1.25 1.25 0 0 0 9.2949219 8.7324219 C 9.0905697 8.9021966 8.9021949 9.0905683 8.7324219 9.2949219 A 1.25 1.25 0 0 0 7.828125 9.3144531 A 1.25 1.25 0 0 0 7.1503906 9.9902344 A 1.25 1.25 0 0 0 7.7695312 11.597656 C 7.7568635 11.730158 7.75 11.864399 7.75 12 C 7.75 12.135617 7.7568607 12.269827 7.7695312 12.402344 A 1.25 1.25 0 0 0 7.1503906 14.009766 A 1.25 1.25 0 0 0 8.7324219 14.705078 C 8.9021809 14.909407 9.0905913 15.097821 9.2949219 15.267578 A 1.25 1.25 0 0 0 9.9902344 16.849609 A 1.25 1.25 0 0 0 11.597656 16.230469 C 11.730158 16.243136 11.864399 16.25 12 16.25 C 12.134931 16.25 12.268527 16.243013 12.400391 16.230469 A 1.25 1.25 0 0 0 14.007812 16.851562 A 1.25 1.25 0 0 0 14.705078 15.267578 C 14.909641 15.097688 15.097653 14.909611 15.267578 14.705078 A 1.25 1.25 0 0 0 16.849609 14.009766 A 1.25 1.25 0 0 0 16.230469 12.402344 C 16.243136 12.269842 16.25 12.135601 16.25 12 C 16.25 11.864399 16.243136 11.730158 16.230469 11.597656 A 1.25 1.25 0 0 0 16.849609 9.9902344 A 1.25 1.25 0 0 0 15.267578 9.2949219 C 15.097811 9.0905793 14.909421 8.9021887 14.705078 8.7324219 A 1.25 1.25 0 0 0 14.009766 7.1503906 A 1.25 1.25 0 0 0 12.402344 7.7695312 C 12.269842 7.7568635 12.135601 7.75 12 7.75 C 11.864399 7.75 11.730158 7.7568635 11.597656 7.7695312 A 1.25 1.25 0 0 0 10.496094 7.0546875 z M 12 10.25 C 12.21085 10.25 12.411954 10.286101 12.597656 10.351562 A 1.25 1.25 0 0 0 12.667969 10.382812 A 1.25 1.25 0 0 0 12.755859 10.416016 C 13.121711 10.586891 13.41311 10.878288 13.583984 11.244141 A 1.25 1.25 0 0 0 13.617188 11.332031 A 1.25 1.25 0 0 0 13.648438 11.402344 C 13.713901 11.588048 13.75 11.789147 13.75 12 C 13.75 12.210804 13.713872 12.411988 13.648438 12.597656 A 1.25 1.25 0 0 0 13.617188 12.667969 A 1.25 1.25 0 0 0 13.583984 12.755859 C 13.412106 13.123862 13.116908 13.417456 12.748047 13.587891 A 1.25 1.25 0 0 0 12.669922 13.617188 A 1.25 1.25 0 0 0 12.603516 13.646484 C 12.416217 13.713246 12.213026 13.75 12 13.75 C 11.789147 13.75 11.588048 13.713901 11.402344 13.648438 A 1.25 1.25 0 0 0 11.332031 13.617188 A 1.25 1.25 0 0 0 11.246094 13.585938 C 10.87983 13.415122 10.587029 13.122005 10.416016 12.755859 A 1.25 1.25 0 0 0 10.382812 12.667969 A 1.25 1.25 0 0 0 10.351562 12.597656 C 10.28613 12.41199 10.25 12.210801 10.25 12 C 10.25 11.78915 10.286101 11.588046 10.351562 11.402344 A 1.25 1.25 0 0 0 10.382812 11.332031 A 1.25 1.25 0 0 0 10.416016 11.244141 C 10.58689 10.878291 10.878291 10.58689 11.244141 10.416016 A 1.25 1.25 0 0 0 11.332031 10.382812 A 1.25 1.25 0 0 0 11.402344 10.351562 C 11.588046 10.286101 11.78915 10.25 12 10.25 z " />
</svg>
