<?xml version="1.0" encoding="UTF-8" standalone="no"?>
<svg
   width="24"
   height="24"
   viewBox="0 0 24 24"
   fill="none"
   stroke="currentColor"
   stroke-width="2.5"
   stroke-linecap="round"
   stroke-linejoin="round"
   version="1.1"
   id="svg6"
   sodipodi:docname=".tmp_briefcase-conveyor-belt.svg"
   xmlns:inkscape="http://www.inkscape.org/namespaces/inkscape"
   xmlns:sodipodi="http://sodipodi.sourceforge.net/DTD/sodipodi-0.dtd"
   xmlns="http://www.w3.org/2000/svg"
   xmlns:svg="http://www.w3.org/2000/svg">
  <defs
     id="defs6" />
  <sodipodi:namedview
     id="namedview6"
     pagecolor="#ffffff"
     bordercolor="#000000"
     borderopacity="0.25"
     inkscape:showpageshadow="2"
     inkscape:pageopacity="0.0"
     inkscape:pagecheckerboard="0"
     inkscape:deskcolor="#d1d1d1" />
  <path
     id="path1"
     style="baseline-shift:baseline;display:inline;overflow:visible;vector-effect:none;fill:#000000;stroke:none;stroke-linecap:butt;stroke-linejoin:miter;enable-background:accumulate;stop-color:#000000;stop-opacity:1;opacity:1"
     d="M 10 0.75 C 8.2198804 0.75 6.75 2.2198804 6.75 4 L 6.75 4.75 L 6 4.75 C 4.2211215 4.75 2.75 6.2211215 2.75 8 L 2.75 14 C 2.75 15.778878 4.2211215 17.25 6 17.25 L 8 17.25 L 16 17.25 L 18 17.25 C 19.778878 17.25 21.25 15.778878 21.25 14 L 21.25 8 C 21.25 6.2211215 19.778878 4.75 18 4.75 L 17.25 4.75 L 17.25 4 C 17.25 2.2198804 15.78012 0.75 14 0.75 L 10 0.75 z M 10 3.25 L 14 3.25 C 14.429019 3.25 14.75 3.5709806 14.75 4 L 14.75 4.75 L 9.25 4.75 L 9.25 4 C 9.25 3.5709806 9.5709806 3.25 10 3.25 z M 6 7.25 L 6.75 7.25 L 6.75 14.75 L 6 14.75 C 5.5628785 14.75 5.25 14.437122 5.25 14 L 5.25 8 C 5.25 7.5628785 5.5628785 7.25 6 7.25 z M 9.25 7.25 L 14.75 7.25 L 14.75 14.75 L 9.25 14.75 L 9.25 7.25 z M 17.25 7.25 L 18 7.25 C 18.437122 7.25 18.75 7.5628785 18.75 8 L 18.75 14 C 18.75 14.437122 18.437122 14.75 18 14.75 L 17.25 14.75 L 17.25 7.25 z M 3 18.75 A 1.25 1.25 0 0 0 1.75 20 A 1.25 1.25 0 0 0 3 21.25 L 4.75 21.25 L 4.75 22 A 1.25 1.25 0 0 0 6 23.25 A 1.25 1.25 0 0 0 7.25 22 L 7.25 21.25 L 8.75 21.25 L 8.75 22 A 1.25 1.25 0 0 0 10 23.25 A 1.25 1.25 0 0 0 11.25 22 L 11.25 21.25 L 12.75 21.25 L 12.75 22 A 1.25 1.25 0 0 0 14 23.25 A 1.25 1.25 0 0 0 15.25 22 L 15.25 21.25 L 16.75 21.25 L 16.75 22 A 1.25 1.25 0 0 0 18 23.25 A 1.25 1.25 0 0 0 19.25 22 L 19.25 21.25 L 21 21.25 A 1.25 1.25 0 0 0 22.25 20 A 1.25 1.25 0 0 0 21 18.75 L 3 18.75 z " />
</svg>
