<?xml version="1.0" encoding="UTF-8" standalone="no"?>
<svg
   width="24"
   height="24"
   viewBox="0 0 24 24"
   fill="none"
   stroke="currentColor"
   stroke-width="2.5"
   stroke-linecap="round"
   stroke-linejoin="round"
   version="1.1"
   id="svg4"
   sodipodi:docname=".tmp_camera-off.svg"
   xmlns:inkscape="http://www.inkscape.org/namespaces/inkscape"
   xmlns:sodipodi="http://sodipodi.sourceforge.net/DTD/sodipodi-0.dtd"
   xmlns="http://www.w3.org/2000/svg"
   xmlns:svg="http://www.w3.org/2000/svg">
  <defs
     id="defs4" />
  <sodipodi:namedview
     id="namedview4"
     pagecolor="#ffffff"
     bordercolor="#000000"
     borderopacity="0.25"
     inkscape:showpageshadow="2"
     inkscape:pageopacity="0.0"
     inkscape:pagecheckerboard="0"
     inkscape:deskcolor="#d1d1d1" />
  <path
     id="path1"
     style="baseline-shift:baseline;display:inline;overflow:visible;vector-effect:none;fill:#000000;stroke:none;stroke-linecap:butt;stroke-linejoin:miter;enable-background:accumulate;stop-color:#000000;stop-opacity:1;opacity:1"
     d="M 2 0.74804688 A 1.25 1.25 0 0 0 1.1152344 1.1152344 A 1.25 1.25 0 0 0 1.1152344 2.8847656 L 3.9804688 5.75 C 2.2091152 5.7606716 0.75 7.2263754 0.75 9 L 0.75 18 C 0.75 19.78012 2.2198804 21.25 4 21.25 L 19.480469 21.25 L 21.115234 22.884766 A 1.25 1.25 0 0 0 22.884766 22.884766 A 1.25 1.25 0 0 0 22.884766 21.115234 L 15.503906 13.734375 A 1.25 1.25 0 0 0 15.388672 13.619141 L 11.376953 9.6074219 A 1.25 1.25 0 0 0 11.271484 9.5019531 L 2.8847656 1.1152344 A 1.25 1.25 0 0 0 2 0.74804688 z M 10.003906 2.75 C 9.8357748 2.7499922 9.6680672 2.7630935 9.5019531 2.7890625 A 1.25 1.25 0 0 0 8.4609375 4.2167969 A 1.25 1.25 0 0 0 9.8886719 5.2597656 C 9.9270059 5.2537756 9.9651071 5.25 10.003906 5.25 L 13.996094 5.25 C 14.274025 5.2499961 14.524233 5.3999558 14.65625 5.6445312 L 15.142578 6.5429688 C 15.70885 7.5920497 16.811755 8.2500169 18.003906 8.25 L 20 8.25 C 20.429019 8.25 20.75 8.5709806 20.75 9 L 20.75 16.34375 A 1.25 1.25 0 0 0 22 17.59375 A 1.25 1.25 0 0 0 23.25 16.34375 L 23.25 9 C 23.25 7.2198804 21.78012 5.75 20 5.75 L 18.003906 5.75 C 17.725975 5.7500039 17.475767 5.6000444 17.34375 5.3554688 L 16.857422 4.4570312 C 16.29115 3.4079547 15.188245 2.7499831 13.996094 2.75 L 10.003906 2.75 z M 6.4492188 8.21875 L 8.6386719 10.408203 C 7.3980401 12.037954 7.4487997 14.460894 8.9941406 16.005859 C 10.539136 17.55048 12.963762 17.603042 14.59375 16.363281 L 16.980469 18.75 L 4 18.75 C 3.5709806 18.75 3.25 18.429019 3.25 18 L 3.25 9 C 3.25 8.5709806 3.5709806 8.25 4 8.25 L 5.9960938 8.25 C 6.1478207 8.2500642 6.2995208 8.2398206 6.4492188 8.21875 z M 10.429688 12.199219 L 12.802734 14.572266 C 12.158247 14.912268 11.340265 14.816688 10.761719 14.238281 C 10.183149 13.659853 10.089026 12.843204 10.429688 12.199219 z " />
</svg>
