<?xml version="1.0" encoding="UTF-8" standalone="no"?>
<svg
   width="24"
   height="24"
   viewBox="0 0 24 24"
   fill="none"
   stroke="currentColor"
   stroke-width="2.5"
   stroke-linecap="round"
   stroke-linejoin="round"
   version="1.1"
   id="svg2"
   sodipodi:docname=".tmp_cannabis.svg"
   xmlns:inkscape="http://www.inkscape.org/namespaces/inkscape"
   xmlns:sodipodi="http://sodipodi.sourceforge.net/DTD/sodipodi-0.dtd"
   xmlns="http://www.w3.org/2000/svg"
   xmlns:svg="http://www.w3.org/2000/svg">
  <defs
     id="defs2" />
  <sodipodi:namedview
     id="namedview2"
     pagecolor="#ffffff"
     bordercolor="#000000"
     borderopacity="0.25"
     inkscape:showpageshadow="2"
     inkscape:pageopacity="0.0"
     inkscape:pagecheckerboard="0"
     inkscape:deskcolor="#d1d1d1" />
  <path
     id="path1"
     style="baseline-shift:baseline;display:inline;overflow:visible;vector-effect:none;fill:#000000;stroke:none;stroke-linecap:butt;stroke-linejoin:miter;enable-background:accumulate;stop-color:#000000;stop-opacity:1;opacity:1"
     d="M 12 0.75 A 1.250125 1.250125 0 0 0 11 1.25 C 9.7409605 2.9287193 9.2504589 4.8798636 9.0078125 6.8476562 C 7.2599346 5.6947255 5.1931672 4.75 3 4.75 A 1.250125 1.250125 0 0 0 1.75 6 C 1.75 7.5208333 2.5321543 8.8727965 3.4238281 10.107422 C 3.7978044 10.625235 4.2258146 10.900197 4.6328125 11.337891 C 4.2576675 11.497409 3.8808554 11.640017 3.5117188 11.847656 C 2.3694735 12.490169 1.2620955 13.262542 0.81445312 14.605469 A 1.250125 1.250125 0 0 0 1.5078125 16.148438 C 3.1770018 16.863804 4.6246834 17.121391 5.7871094 17.226562 C 5.1434283 18.52998 4.75 19.858546 4.75 21 A 1.250125 1.250125 0 0 0 6 22.25 C 7.8974771 22.25 9.4482652 21.521319 10.75 20.585938 L 10.75 22 A 1.25 1.25 0 0 0 12 23.25 A 1.25 1.25 0 0 0 13.25 22 L 13.25 20.585938 C 14.551735 21.521319 16.102523 22.25 18 22.25 A 1.250125 1.250125 0 0 0 19.25 21 C 19.25 19.858546 18.856572 18.529981 18.212891 17.226562 C 19.375317 17.121391 20.822998 16.863805 22.492188 16.148438 A 1.250125 1.250125 0 0 0 23.185547 14.605469 C 22.737905 13.262542 21.630527 12.490169 20.488281 11.847656 C 20.119145 11.640017 19.742332 11.497409 19.367188 11.337891 C 19.774186 10.900197 20.202196 10.625235 20.576172 10.107422 C 21.467846 8.8727965 22.25 7.5208333 22.25 6 A 1.250125 1.250125 0 0 0 21 4.75 C 18.806833 4.75 16.740065 5.6947256 14.992188 6.8476562 C 14.749541 4.8798637 14.259039 2.9287193 13 1.25 A 1.250125 1.250125 0 0 0 12 0.75 z M 12 4.8828125 C 12.459834 6.161601 12.75 7.5274595 12.75 9 A 1.250125 1.250125 0 0 0 14.884766 9.8847656 C 15.72004 9.0494912 17.336887 8.28123 18.939453 7.78125 C 18.763934 8.112598 18.787757 8.311753 18.548828 8.6425781 C 17.815502 9.6579528 16.843294 10.601215 16.306641 10.958984 A 1.250125 1.250125 0 0 0 17 13.25 C 17.333333 13.25 18.403964 13.544857 19.261719 14.027344 C 19.454522 14.135796 19.444584 14.209937 19.611328 14.333984 C 17.666847 14.794102 16.246094 14.773437 16.246094 14.773438 A 1.250125 1.250125 0 0 0 15.115234 16.884766 C 15.827399 17.59693 16.209528 18.456888 16.451172 19.310547 C 15.123826 18.875068 13.896563 18.127032 12.884766 17.115234 A 1.25 1.25 0 0 0 12.761719 17.007812 A 1.250125 1.250125 0 0 0 12.164062 16.759766 A 1.250125 1.250125 0 0 0 11.835938 16.759766 A 1.250125 1.250125 0 0 0 11.238281 17.007812 A 1.25 1.25 0 0 0 11.115234 17.115234 C 10.103437 18.127032 8.876174 18.875068 7.5488281 19.310547 C 7.790472 18.456888 8.1726008 17.59693 8.8847656 16.884766 A 1.250125 1.250125 0 0 0 7.7539062 14.773438 C 7.7539062 14.773438 6.3331526 14.794098 4.3886719 14.333984 C 4.5554162 14.209937 4.545478 14.135796 4.7382812 14.027344 C 5.596036 13.544857 6.6666667 13.25 7 13.25 A 1.25 1.25 0 0 0 7.0605469 13.189453 A 1.25 1.25 0 0 0 8.0410156 12.693359 A 1.25 1.25 0 0 0 8.1601562 12.089844 A 1.25 1.25 0 0 0 8.25 12 A 1.25 1.25 0 0 0 8.1894531 11.939453 A 1.25 1.25 0 0 0 7.6933594 10.958984 C 7.1567056 10.601215 6.184498 9.6579528 5.4511719 8.6425781 C 5.2122426 8.311753 5.236066 8.112598 5.0605469 7.78125 C 6.6631128 8.28123 8.27996 9.0494912 9.1152344 9.8847656 A 1.250125 1.250125 0 0 0 11.25 9 C 11.25 7.5274595 11.540166 6.161601 12 4.8828125 z " />
</svg>
