<?xml version="1.0" encoding="UTF-8" standalone="no"?>
<svg
   width="24"
   height="24"
   viewBox="0 0 24 24"
   fill="none"
   stroke="currentColor"
   stroke-width="2.5"
   stroke-linecap="round"
   stroke-linejoin="round"
   version="1.1"
   id="svg1"
   sodipodi:docname=".tmp_captions.svg"
   xmlns:inkscape="http://www.inkscape.org/namespaces/inkscape"
   xmlns:sodipodi="http://sodipodi.sourceforge.net/DTD/sodipodi-0.dtd"
   xmlns="http://www.w3.org/2000/svg"
   xmlns:svg="http://www.w3.org/2000/svg">
  <defs
     id="defs1" />
  <sodipodi:namedview
     id="namedview1"
     pagecolor="#ffffff"
     bordercolor="#000000"
     borderopacity="0.25"
     inkscape:showpageshadow="2"
     inkscape:pageopacity="0.0"
     inkscape:pagecheckerboard="0"
     inkscape:deskcolor="#d1d1d1" />
  <path
     id="rect1"
     style="baseline-shift:baseline;display:inline;overflow:visible;vector-effect:none;fill:#000000;stroke:none;stroke-linecap:butt;stroke-linejoin:miter;enable-background:accumulate;stop-color:#000000;stop-opacity:1;opacity:1"
     d="M 5 3.75 C 3.2211215 3.75 1.75 5.2211215 1.75 7 L 1.75 17 C 1.75 18.778878 3.2211215 20.25 5 20.25 L 19 20.25 C 20.778878 20.25 22.25 18.778878 22.25 17 L 22.25 7 C 22.25 5.2211215 20.778878 3.75 19 3.75 L 5 3.75 z M 5 6.25 L 19 6.25 C 19.437122 6.25 19.75 6.5628785 19.75 7 L 19.75 17 C 19.75 17.437122 19.437122 17.75 19 17.75 L 5 17.75 C 4.5628785 17.75 4.25 17.437122 4.25 17 L 4.25 7 C 4.25 6.5628785 4.5628785 6.25 5 6.25 z M 7 9.75 A 1.25 1.25 0 0 0 5.75 11 A 1.25 1.25 0 0 0 7 12.25 L 9 12.25 A 1.25 1.25 0 0 0 10.25 11 A 1.25 1.25 0 0 0 9 9.75 L 7 9.75 z M 13 9.75 A 1.25 1.25 0 0 0 11.75 11 A 1.25 1.25 0 0 0 13 12.25 L 17 12.25 A 1.25 1.25 0 0 0 18.25 11 A 1.25 1.25 0 0 0 17 9.75 L 13 9.75 z M 7 13.75 A 1.25 1.25 0 0 0 5.75 15 A 1.25 1.25 0 0 0 7 16.25 L 11 16.25 A 1.25 1.25 0 0 0 12.25 15 A 1.25 1.25 0 0 0 11 13.75 L 7 13.75 z M 15 13.75 A 1.25 1.25 0 0 0 13.75 15 A 1.25 1.25 0 0 0 15 16.25 L 17 16.25 A 1.25 1.25 0 0 0 18.25 15 A 1.25 1.25 0 0 0 17 13.75 L 15 13.75 z " />
</svg>
