<?xml version="1.0" encoding="UTF-8" standalone="no"?>
<svg
   width="24"
   height="24"
   viewBox="0 0 24 24"
   fill="none"
   stroke="currentColor"
   stroke-width="2.5"
   stroke-linecap="round"
   stroke-linejoin="round"
   version="1.1"
   id="svg3"
   sodipodi:docname=".tmp_caravan.svg"
   xmlns:inkscape="http://www.inkscape.org/namespaces/inkscape"
   xmlns:sodipodi="http://sodipodi.sourceforge.net/DTD/sodipodi-0.dtd"
   xmlns="http://www.w3.org/2000/svg"
   xmlns:svg="http://www.w3.org/2000/svg">
  <defs
     id="defs3" />
  <sodipodi:namedview
     id="namedview3"
     pagecolor="#ffffff"
     bordercolor="#000000"
     borderopacity="0.25"
     inkscape:showpageshadow="2"
     inkscape:pageopacity="0.0"
     inkscape:pagecheckerboard="0"
     inkscape:deskcolor="#d1d1d1" />
  <path
     id="path1"
     style="baseline-shift:baseline;display:inline;overflow:visible;vector-effect:none;fill:#000000;stroke:none;stroke-linecap:butt;stroke-linejoin:miter;enable-background:accumulate;stop-color:#000000;stop-opacity:1;opacity:1"
     d="M 6 3.75 C 3.1153109 3.75 0.75 6.1153109 0.75 9 L 0.75 17 C 0.75 18.78012 2.2198804 20.25 4 20.25 L 5.0039062 20.25 C 5.4986506 21.419024 6.6615492 22.25 8 22.25 C 9.3384508 22.25 10.501349 21.419024 10.996094 20.25 L 14 20.25 L 21 20.25 C 22.227835 20.25 23.25 19.227835 23.25 18 L 23.25 17 A 1.25 1.25 0 0 0 22 15.75 A 1.25 1.25 0 0 0 20.75 17 L 20.75 17.75 L 19.25 17.75 L 19.25 9 C 19.25 6.1153109 16.884689 3.75 14 3.75 L 6 3.75 z M 6 6.25 L 14 6.25 C 15.533589 6.25 16.75 7.4664111 16.75 9 L 16.75 17.75 L 15.25 17.75 L 15.25 10 C 15.25 8.7721651 14.227835 7.75 13 7.75 L 11 7.75 C 9.7721651 7.75 8.75 8.7721651 8.75 10 L 8.75 15.839844 C 8.508845 15.781765 8.2576727 15.75 8 15.75 C 6.6615492 15.75 5.4986506 16.580976 5.0039062 17.75 L 4 17.75 C 3.5709806 17.75 3.25 17.429019 3.25 17 L 3.25 14.25 L 5 14.25 C 6.2278349 14.25 7.25 13.227835 7.25 12 L 7.25 10 C 7.25 8.7721651 6.2278349 7.75 5 7.75 L 3.5429688 7.75 C 3.9935184 6.8551879 4.9182824 6.25 6 6.25 z M 3.25 10.25 L 4.75 10.25 L 4.75 11.75 L 3.25 11.75 L 3.25 10.25 z M 11.25 10.25 L 12.75 10.25 L 12.75 17.75 L 11.25 17.75 L 11.25 10.25 z M 8 18.25 C 8.4290194 18.25 8.75 18.570981 8.75 19 C 8.75 19.429019 8.4290194 19.75 8 19.75 C 7.5709806 19.75 7.25 19.429019 7.25 19 C 7.25 18.570981 7.5709806 18.25 8 18.25 z " />
</svg>
