<?xml version="1.0" encoding="UTF-8" standalone="no"?>
<svg
   width="24"
   height="24"
   viewBox="0 0 24 24"
   fill="none"
   stroke="currentColor"
   stroke-width="2.5"
   stroke-linecap="round"
   stroke-linejoin="round"
   version="1.1"
   id="svg3"
   sodipodi:docname=".tmp_carrot.svg"
   xmlns:inkscape="http://www.inkscape.org/namespaces/inkscape"
   xmlns:sodipodi="http://sodipodi.sourceforge.net/DTD/sodipodi-0.dtd"
   xmlns="http://www.w3.org/2000/svg"
   xmlns:svg="http://www.w3.org/2000/svg">
  <defs
     id="defs3" />
  <sodipodi:namedview
     id="namedview3"
     pagecolor="#ffffff"
     bordercolor="#000000"
     borderopacity="0.25"
     inkscape:showpageshadow="2"
     inkscape:pageopacity="0.0"
     inkscape:pagecheckerboard="0"
     inkscape:deskcolor="#d1d1d1" />
  <path
     id="path1"
     style="baseline-shift:baseline;display:inline;overflow:visible;vector-effect:none;fill:#000000;stroke:none;stroke-linecap:butt;stroke-linejoin:miter;enable-background:accumulate;stop-color:#000000;stop-opacity:1;opacity:1"
     d="M 14.917969 0.75390625 A 1.250125 1.250125 0 0 0 14.308594 0.95898438 C 14.308594 0.95898438 11.75 2.5619508 11.75 5.5 C 11.75 5.7872431 11.77423 6.0607951 11.818359 6.3222656 C 10.427493 6.316837 8.9579352 6.8857487 7.7558594 8.0859375 C 5.9944076 9.8473892 4.486214 13.040535 3.2324219 15.910156 C 1.9786297 18.779778 1.0917969 21.28125 1.0917969 21.28125 A 1.250125 1.250125 0 0 0 2.6875 22.878906 C 2.6875 22.878906 5.1917249 21.990752 8.0625 20.738281 C 10.932737 19.486045 14.124496 17.982292 15.882812 16.224609 C 15.986861 16.120724 16.014768 15.992431 16.109375 15.884766 A 1.25 1.25 0 0 0 16.224609 15.884766 A 1.25 1.25 0 0 0 16.224609 15.708984 C 17.123013 14.613861 17.637983 13.376866 17.650391 12.175781 C 17.920058 12.222871 18.202717 12.25 18.5 12.25 C 21.438049 12.25 23.041016 9.6914062 23.041016 9.6914062 A 1.250125 1.250125 0 0 0 23.041016 8.3085938 C 23.041016 8.3085938 21.438049 5.75 18.5 5.75 C 18.412479 5.75 18.327025 5.7521728 18.242188 5.7578125 C 18.2478 5.6729499 18.25 5.5875231 18.25 5.5 C 18.25 2.5619508 15.691406 0.95898438 15.691406 0.95898438 A 1.250125 1.250125 0 0 0 14.917969 0.75390625 z M 15 3.7148438 C 15.374743 4.157298 15.75 4.7701822 15.75 5.5 C 15.75 5.827992 15.425479 6.5550324 15 7.1230469 C 14.971415 7.1612082 14.971773 7.1510186 14.943359 7.1875 C 14.597323 6.75207 14.25 6.1737852 14.25 5.5 C 14.25 4.7701822 14.625257 4.1572979 15 3.7148438 z M 18.5 8.25 C 19.229818 8.25 19.842702 8.6252571 20.285156 9 C 19.842702 9.3747429 19.229818 9.75 18.5 9.75 C 17.828491 9.75 17.253386 9.4033712 16.818359 9.0585938 C 16.854859 9.0302958 16.844682 9.0304141 16.882812 9.0019531 C 17.454868 8.5750488 18.18813 8.25 18.5 8.25 z M 11.652344 8.8242188 C 11.750795 8.8206254 11.849407 8.8222915 11.947266 8.828125 C 12.457702 8.858553 12.971425 9.0312441 13.433594 9.3144531 C 13.70069 9.5810094 13.942571 9.7761864 14.103516 9.8964844 C 14.219936 10.052241 14.406669 10.282268 14.660156 10.539062 C 14.944185 11.002402 15.116759 11.519048 15.146484 12.03125 C 15.163134 12.318099 15.088334 12.611579 15.013672 12.904297 L 13.763672 11.65625 A 1.25 1.25 0 0 0 11.996094 11.65625 A 1.25 1.25 0 0 0 11.996094 13.423828 L 13.466797 14.894531 C 12.103993 15.975713 9.5305754 17.370486 7.0625 18.447266 C 5.6989472 19.042161 5.4558437 19.098968 4.5058594 19.464844 C 4.8718333 18.515817 4.9282484 18.274351 5.5234375 16.912109 C 5.9403351 15.957933 6.4393525 15.004128 6.9238281 14.056641 L 7.7578125 14.886719 A 1.25 1.25 0 0 0 9.5253906 14.880859 A 1.25 1.25 0 0 0 9.5214844 13.113281 L 8.2050781 11.804688 C 8.6667307 11.059692 9.1509746 10.228163 9.5234375 9.8554688 C 10.258894 9.1211667 10.963183 8.8493722 11.652344 8.8242188 z " />
</svg>
