<?xml version="1.0" encoding="UTF-8" standalone="no"?>
<svg
   width="24"
   height="24"
   viewBox="0 0 24 24"
   fill="none"
   stroke="currentColor"
   stroke-width="2.5"
   stroke-linecap="round"
   stroke-linejoin="round"
   version="1.1"
   id="svg3"
   sodipodi:docname=".tmp_case-upper.svg"
   xmlns:inkscape="http://www.inkscape.org/namespaces/inkscape"
   xmlns:sodipodi="http://sodipodi.sourceforge.net/DTD/sodipodi-0.dtd"
   xmlns="http://www.w3.org/2000/svg"
   xmlns:svg="http://www.w3.org/2000/svg">
  <defs
     id="defs3" />
  <sodipodi:namedview
     id="namedview3"
     pagecolor="#ffffff"
     bordercolor="#000000"
     borderopacity="0.25"
     inkscape:showpageshadow="2"
     inkscape:pageopacity="0.0"
     inkscape:pagecheckerboard="0"
     inkscape:deskcolor="#d1d1d1" />
  <path
     id="path1"
     style="baseline-shift:baseline;display:inline;overflow:visible;vector-effect:none;fill:#000000;stroke:none;stroke-linecap:butt;stroke-linejoin:miter;enable-background:accumulate;stop-color:#000000;stop-opacity:1;opacity:1"
     d="M 15.5 4.75 C 14.548307 4.75 13.75 5.5483075 13.75 6.5 L 13.75 11 L 13.75 15.5 C 13.75 16.451693 14.548307 17.25 15.5 17.25 L 19.5 17.25 C 20.645833 17.25 21.662836 16.775306 22.308594 16.048828 C 22.954351 15.322351 23.25 14.402778 23.25 13.5 C 23.25 12.597222 22.954351 11.677649 22.308594 10.951172 C 22.132959 10.753583 21.872239 10.632374 21.646484 10.476562 C 22.014972 9.8611708 22.25 9.1890422 22.25 8.5 C 22.25 7.5972223 21.954351 6.6776493 21.308594 5.9511719 C 20.662836 5.2246945 19.645833 4.75 18.5 4.75 L 15.5 4.75 z M 6.5 4.7519531 C 5.8575135 4.7519531 5.1637669 5.158899 4.8847656 5.828125 L 0.84570312 15.519531 A 1.25 1.25 0 0 0 1.5195312 17.154297 A 1.25 1.25 0 0 0 3.1542969 16.480469 L 4.0839844 14.25 L 8.9160156 14.25 L 9.8457031 16.480469 A 1.25 1.25 0 0 0 11.480469 17.154297 A 1.25 1.25 0 0 0 12.154297 15.519531 L 8.1152344 5.8300781 A 1.250125 1.250125 0 0 0 8.1152344 5.828125 C 7.8362331 5.1588959 7.1424865 4.7519531 6.5 4.7519531 z M 16.25 7.25 L 18.5 7.25 C 19.020833 7.25 19.253831 7.4003055 19.441406 7.6113281 C 19.628982 7.8223507 19.75 8.1527777 19.75 8.5 C 19.75 8.8472223 19.628982 9.1776493 19.441406 9.3886719 C 19.253831 9.5996945 19.020833 9.75 18.5 9.75 L 16.25 9.75 L 16.25 7.25 z M 6.5 8.453125 L 7.875 11.75 L 5.125 11.75 L 6.5 8.453125 z M 16.25 12.25 L 18.5 12.25 L 19.5 12.25 C 20.020833 12.25 20.253831 12.400306 20.441406 12.611328 C 20.628982 12.822351 20.75 13.152778 20.75 13.5 C 20.75 13.847222 20.628982 14.177649 20.441406 14.388672 C 20.253831 14.599694 20.020833 14.75 19.5 14.75 L 16.25 14.75 L 16.25 12.25 z " />
</svg>
