<?xml version="1.0" encoding="UTF-8" standalone="no"?>
<svg
   width="24"
   height="24"
   viewBox="0 0 24 24"
   fill="none"
   stroke="currentColor"
   stroke-width="2.5"
   stroke-linecap="round"
   stroke-linejoin="round"
   version="1.1"
   id="svg6"
   sodipodi:docname=".tmp_chart-no-axes-combined.svg"
   xmlns:inkscape="http://www.inkscape.org/namespaces/inkscape"
   xmlns:sodipodi="http://sodipodi.sourceforge.net/DTD/sodipodi-0.dtd"
   xmlns="http://www.w3.org/2000/svg"
   xmlns:svg="http://www.w3.org/2000/svg">
  <defs
     id="defs6" />
  <sodipodi:namedview
     id="namedview6"
     pagecolor="#ffffff"
     bordercolor="#000000"
     borderopacity="0.25"
     inkscape:showpageshadow="2"
     inkscape:pageopacity="0.0"
     inkscape:pagecheckerboard="0"
     inkscape:deskcolor="#d1d1d1" />
  <path
     id="path1"
     style="baseline-shift:baseline;display:inline;overflow:visible;vector-effect:none;fill:#000000;stroke:none;stroke-linecap:butt;stroke-linejoin:miter;enable-background:accumulate;stop-color:#000000;stop-opacity:1;opacity:1"
     d="M 22 1.7480469 A 1.25 1.25 0 0 0 21.115234 2.1152344 L 13 10.232422 L 10.238281 7.4707031 C 9.5653678 6.7979926 8.4365856 6.7979926 7.7636719 7.4707031 L 1.1152344 14.115234 A 1.25 1.25 0 0 0 1.1152344 15.884766 A 1.25 1.25 0 0 0 2.8847656 15.884766 L 9 9.7695312 L 11.761719 12.529297 C 12.434954 13.204236 13.565046 13.204236 14.238281 12.529297 L 22.884766 3.8847656 A 1.25 1.25 0 0 0 22.884766 2.1152344 A 1.25 1.25 0 0 0 22 1.7480469 z M 20 8.75 A 1.25 1.25 0 0 0 18.75 10 L 18.75 21 A 1.25 1.25 0 0 0 20 22.25 A 1.25 1.25 0 0 0 21.25 21 L 21.25 10 A 1.25 1.25 0 0 0 20 8.75 z M 8 12.75 A 1.25 1.25 0 0 0 6.75 14 L 6.75 21 A 1.25 1.25 0 0 0 8 22.25 A 1.25 1.25 0 0 0 9.25 21 L 9.25 14 A 1.25 1.25 0 0 0 8 12.75 z M 16 12.75 A 1.25 1.25 0 0 0 14.75 14 L 14.75 21 A 1.25 1.25 0 0 0 16 22.25 A 1.25 1.25 0 0 0 17.25 21 L 17.25 14 A 1.25 1.25 0 0 0 16 12.75 z M 12 14.75 A 1.25 1.25 0 0 0 10.75 16 L 10.75 21 A 1.25 1.25 0 0 0 12 22.25 A 1.25 1.25 0 0 0 13.25 21 L 13.25 16 A 1.25 1.25 0 0 0 12 14.75 z M 4 16.75 A 1.25 1.25 0 0 0 2.75 18 L 2.75 21 A 1.25 1.25 0 0 0 4 22.25 A 1.25 1.25 0 0 0 5.25 21 L 5.25 18 A 1.25 1.25 0 0 0 4 16.75 z " />
</svg>
