<?xml version="1.0" encoding="UTF-8" standalone="no"?>
<svg
   width="24"
   height="24"
   viewBox="0 0 24 24"
   fill="none"
   stroke="currentColor"
   stroke-width="2.5"
   stroke-linecap="round"
   stroke-linejoin="round"
   version="1.1"
   id="svg4"
   sodipodi:docname=".tmp_cherry.svg"
   xmlns:inkscape="http://www.inkscape.org/namespaces/inkscape"
   xmlns:sodipodi="http://sodipodi.sourceforge.net/DTD/sodipodi-0.dtd"
   xmlns="http://www.w3.org/2000/svg"
   xmlns:svg="http://www.w3.org/2000/svg">
  <defs
     id="defs4" />
  <sodipodi:namedview
     id="namedview4"
     pagecolor="#ffffff"
     bordercolor="#000000"
     borderopacity="0.25"
     inkscape:showpageshadow="2"
     inkscape:pageopacity="0.0"
     inkscape:pagecheckerboard="0"
     inkscape:deskcolor="#d1d1d1" />
  <path
     id="path1"
     style="baseline-shift:baseline;display:inline;overflow:visible;vector-effect:none;fill:#000000;stroke:none;stroke-linecap:butt;stroke-linejoin:miter;enable-background:accumulate;stop-color:#000000;stop-opacity:1;opacity:1"
     d="M 12 0.75 A 1.250125 1.250125 0 0 0 11.974609 0.75195312 A 1.250125 1.250125 0 0 0 11.851562 0.75976562 A 1.250125 1.250125 0 0 0 11.804688 0.76757812 A 1.250125 1.250125 0 0 0 11.755859 0.7734375 A 1.250125 1.250125 0 0 0 11.691406 0.79101562 A 1.250125 1.250125 0 0 0 11.642578 0.80273438 A 1.250125 1.250125 0 0 0 11.527344 0.84570312 A 1.250125 1.250125 0 0 0 11.480469 0.86328125 A 1.250125 1.250125 0 0 0 11.367188 0.92382812 A 1.250125 1.250125 0 0 0 11.339844 0.93945312 A 1.250125 1.250125 0 0 0 11.232422 1.015625 A 1.250125 1.250125 0 0 0 11.205078 1.0351562 A 1.250125 1.250125 0 0 0 11.199219 1.0410156 A 1.250125 1.250125 0 0 0 11.085938 1.1484375 A 1.250125 1.250125 0 0 0 11.080078 1.1542969 A 1.250125 1.250125 0 0 0 11.001953 1.2519531 A 1.250125 1.250125 0 0 0 10.972656 1.2890625 A 1.250125 1.250125 0 0 0 10.970703 1.2929688 A 1.250125 1.250125 0 0 0 10.953125 1.3203125 A 1.250125 1.250125 0 0 0 10.886719 1.4296875 A 1.250125 1.250125 0 0 0 10.884766 1.4355469 A 1.250125 1.250125 0 0 0 10.820312 1.5898438 A 1.250125 1.250125 0 0 0 10.808594 1.6308594 A 1.250125 1.250125 0 0 0 10.779297 1.7324219 C 10.777214 1.7419564 10.775528 1.752146 10.773438 1.7617188 C 10.099744 4.8462136 9.0149653 9.907609 6.6777344 12.548828 C 6.196445 12.293476 5.7120311 12.054774 5.21875 12.03125 C 4.3504575 11.989843 3.5135766 12.222832 2.8457031 12.689453 C 1.5099561 13.622695 0.75 15.242585 0.75 17 C 0.75 20.436975 3.5630274 23.25 7 23.25 C 9.0383268 23.25 10.8572 22.260449 12 20.738281 C 13.1428 22.260449 14.961673 23.25 17 23.25 C 20.436973 23.25 23.25 20.436975 23.25 17 C 23.25 15.242585 22.490044 13.622695 21.154297 12.689453 C 20.291257 12.086476 19.161653 11.981987 18.039062 12.300781 C 17.820988 11.278087 17.450838 10.182222 17.003906 9.0585938 C 18.499226 9.8459056 20.168143 10.25 22 10.25 A 1.250125 1.250125 0 0 0 23.25 9 C 23.25 7.0678326 21.907379 5.2716996 19.931641 3.6582031 C 17.963796 2.0511536 15.218596 0.76028941 12.039062 0.75 C 12.026307 0.74995872 12.012769 0.75 12 0.75 z M 14.792969 3.7929688 C 16.143131 4.2172361 17.388387 4.8071679 18.351562 5.59375 C 19.082118 6.1903618 19.598815 6.8622797 19.996094 7.4628906 C 18.995429 7.2275191 18.062234 6.8682617 17.197266 6.2402344 C 16.37987 5.6467481 15.585133 4.7927902 14.792969 3.7929688 z M 12.435547 5.4375 C 12.972455 6.4257541 13.443388 7.1203144 13.957031 8.2753906 C 14.53471 9.5744699 15.033754 10.925918 15.357422 12.042969 C 15.31156 12.037184 15.264763 12.033444 15.21875 12.03125 C 14.350457 11.98984 13.513577 12.222832 12.845703 12.689453 C 12.531049 12.909292 12.248345 13.168166 12 13.457031 C 11.751655 13.168166 11.468951 12.909292 11.154297 12.689453 C 10.813145 12.451101 10.430833 12.290162 10.023438 12.203125 C 11.275282 10.07109 11.932358 7.6286276 12.435547 5.4375 z M 4.9980469 14.443359 C 5.034651 14.441039 5.0714272 14.441504 5.109375 14.443359 C 5.4129575 14.458199 5.761986 14.61115 6.21875 14.976562 A 1.250125 1.250125 0 0 0 6.28125 15.019531 A 1.25 1.25 0 0 0 6.3378906 15.058594 A 1.250125 1.250125 0 0 0 6.4199219 15.103516 A 1.25 1.25 0 0 0 6.4785156 15.134766 A 1.250125 1.250125 0 0 0 6.578125 15.173828 A 1.25 1.25 0 0 0 6.6367188 15.195312 A 1.250125 1.250125 0 0 0 6.71875 15.216797 A 1.25 1.25 0 0 0 6.7988281 15.232422 A 1.250125 1.250125 0 0 0 6.9003906 15.244141 A 1.25 1.25 0 0 0 6.9609375 15.248047 A 1.250125 1.250125 0 0 0 7.0585938 15.246094 A 1.25 1.25 0 0 0 7.1210938 15.242188 A 1.250125 1.250125 0 0 0 7.2285156 15.228516 A 1.25 1.25 0 0 0 7.2929688 15.212891 A 1.250125 1.250125 0 0 0 7.3808594 15.189453 A 1.25 1.25 0 0 0 7.4472656 15.166016 A 1.250125 1.250125 0 0 0 7.5390625 15.125 A 1.25 1.25 0 0 0 7.5996094 15.09375 A 1.250125 1.250125 0 0 0 7.6777344 15.046875 A 1.25 1.25 0 0 0 7.7382812 15.005859 A 1.250125 1.250125 0 0 0 7.78125 14.976562 C 8.6947781 14.245739 9.1814501 14.363476 9.7207031 14.740234 C 10.259956 15.116992 10.75 15.997415 10.75 17 C 10.75 19.085876 9.0858747 20.75 7 20.75 C 4.9141253 20.75 3.25 19.085876 3.25 17 C 3.25 15.997415 3.7400439 15.116992 4.2792969 14.740234 C 4.5152201 14.575403 4.7418177 14.459599 4.9980469 14.443359 z M 14.998047 14.443359 C 15.034651 14.441039 15.071427 14.441504 15.109375 14.443359 C 15.412957 14.458199 15.761986 14.61115 16.21875 14.976562 A 1.250125 1.250125 0 0 0 16.240234 14.992188 A 1.25 1.25 0 0 0 16.322266 15.046875 A 1.250125 1.250125 0 0 0 16.371094 15.080078 A 1.25 1.25 0 0 0 16.449219 15.121094 A 1.250125 1.250125 0 0 0 16.537109 15.160156 A 1.25 1.25 0 0 0 16.585938 15.177734 A 1.250125 1.250125 0 0 0 16.681641 15.208984 A 1.25 1.25 0 0 0 16.757812 15.224609 A 1.250125 1.250125 0 0 0 16.861328 15.242188 A 1.25 1.25 0 0 0 16.884766 15.244141 A 1.250125 1.250125 0 0 0 17.011719 15.25 A 1.25 1.25 0 0 0 17.025391 15.25 A 1.25 1.25 0 0 0 17.082031 15.246094 A 1.250125 1.250125 0 0 0 17.1875 15.236328 A 1.25 1.25 0 0 0 17.333984 15.205078 A 1.250125 1.250125 0 0 0 17.347656 15.201172 A 1.25 1.25 0 0 0 17.386719 15.1875 A 1.250125 1.250125 0 0 0 17.501953 15.144531 A 1.25 1.25 0 0 0 17.632812 15.076172 A 1.250125 1.250125 0 0 0 17.646484 15.070312 A 1.25 1.25 0 0 0 17.78125 14.976562 C 18.694778 14.24574 19.18145 14.363476 19.720703 14.740234 C 20.259956 15.116992 20.75 15.997415 20.75 17 C 20.75 19.085876 19.085875 20.75 17 20.75 C 14.914125 20.75 13.25 19.085876 13.25 17 C 13.25 15.997415 13.740044 15.116992 14.279297 14.740234 C 14.51522 14.575403 14.741818 14.459599 14.998047 14.443359 z " />
</svg>
