<?xml version="1.0" encoding="UTF-8" standalone="no"?>
<svg
   width="24"
   height="24"
   viewBox="0 0 24 24"
   fill="none"
   stroke="currentColor"
   stroke-width="2.5"
   stroke-linecap="round"
   stroke-linejoin="round"
   version="1.1"
   id="svg3"
   sodipodi:docname=".tmp_circle-arrow-out-up-right.svg"
   xmlns:inkscape="http://www.inkscape.org/namespaces/inkscape"
   xmlns:sodipodi="http://sodipodi.sourceforge.net/DTD/sodipodi-0.dtd"
   xmlns="http://www.w3.org/2000/svg"
   xmlns:svg="http://www.w3.org/2000/svg">
  <defs
     id="defs3" />
  <sodipodi:namedview
     id="namedview3"
     pagecolor="#ffffff"
     bordercolor="#000000"
     borderopacity="0.25"
     inkscape:showpageshadow="2"
     inkscape:pageopacity="0.0"
     inkscape:pagecheckerboard="0"
     inkscape:deskcolor="#d1d1d1" />
  <path
     id="path1"
     style="baseline-shift:baseline;display:inline;overflow:visible;vector-effect:none;fill:#000000;stroke:none;stroke-linecap:butt;stroke-linejoin:miter;enable-background:accumulate;stop-color:#000000;stop-opacity:1;opacity:1"
     d="M 12 0.75 C 7.0414348 0.75 3.2210384 3.7944746 1.6054688 7.6953125 C -0.0101009 11.59615 0.5390556 16.449212 4.0449219 19.955078 C 7.5507881 23.460944 12.40385 24.010101 16.304688 22.394531 C 20.205526 20.778962 23.25 16.958565 23.25 12 A 1.25 1.25 0 0 0 22 10.75 A 1.25 1.25 0 0 0 20.75 12 C 20.75 15.951103 18.407342 18.816786 15.347656 20.083984 C 12.287971 21.351183 8.6059568 20.980957 5.8125 18.1875 C 3.0190432 15.394043 2.6488173 11.712029 3.9160156 8.6523438 C 5.183214 5.592658 8.0488971 3.25 12 3.25 A 1.25 1.25 0 0 0 13.25 2 A 1.25 1.25 0 0 0 12 0.75 z M 16 0.75 A 1.25 1.25 0 0 0 14.75 2 A 1.25 1.25 0 0 0 16 3.25 L 18.980469 3.25 L 11.115234 11.115234 A 1.25 1.25 0 0 0 11.115234 12.884766 A 1.25 1.25 0 0 0 12.884766 12.884766 L 20.75 5.0195312 L 20.75 8 A 1.25 1.25 0 0 0 22 9.25 A 1.25 1.25 0 0 0 23.25 8 L 23.25 2.0664062 L 23.25 2 A 1.250125 1.250125 0 0 0 23.248047 1.9589844 A 1.25 1.25 0 0 0 23.242188 1.8632812 A 1.250125 1.250125 0 0 0 23.232422 1.796875 A 1.25 1.25 0 0 0 23.207031 1.6757812 A 1.25 1.25 0 0 0 23.15625 1.5253906 A 1.25 1.25 0 0 0 23.154297 1.5214844 A 1.250125 1.250125 0 0 0 23.148438 1.5117188 A 1.25 1.25 0 0 0 22.992188 1.2382812 A 1.250125 1.250125 0 0 0 22.761719 1.0078125 A 1.25 1.25 0 0 0 22.488281 0.8515625 A 1.25 1.25 0 0 0 22.478516 0.84570312 A 1.250125 1.250125 0 0 0 22.474609 0.84375 A 1.25 1.25 0 0 0 22.324219 0.79296875 A 1.25 1.25 0 0 0 22.203125 0.76757812 A 1.250125 1.250125 0 0 0 22.136719 0.7578125 A 1.25 1.25 0 0 0 22.041016 0.75195312 A 1.250125 1.250125 0 0 0 22 0.75 L 21.933594 0.75 L 16 0.75 z " />
</svg>
