<?xml version="1.0" encoding="UTF-8" standalone="no"?>
<svg
   width="24"
   height="24"
   viewBox="0 0 24 24"
   fill="none"
   stroke="currentColor"
   stroke-width="2.5"
   stroke-linecap="round"
   stroke-linejoin="round"
   version="1.1"
   id="svg1"
   sodipodi:docname=".tmp_circle-slash-2.svg"
   xmlns:inkscape="http://www.inkscape.org/namespaces/inkscape"
   xmlns:sodipodi="http://sodipodi.sourceforge.net/DTD/sodipodi-0.dtd"
   xmlns="http://www.w3.org/2000/svg"
   xmlns:svg="http://www.w3.org/2000/svg">
  <defs
     id="defs1" />
  <sodipodi:namedview
     id="namedview1"
     pagecolor="#ffffff"
     bordercolor="#000000"
     borderopacity="0.25"
     inkscape:showpageshadow="2"
     inkscape:pageopacity="0.0"
     inkscape:pagecheckerboard="0"
     inkscape:deskcolor="#d1d1d1" />
  <path
     id="path1"
     style="baseline-shift:baseline;display:inline;overflow:visible;vector-effect:none;fill:#000000;stroke:none;stroke-linecap:butt;stroke-linejoin:miter;enable-background:accumulate;stop-color:#000000;stop-opacity:1;opacity:1"
     d="M 22 0.74804688 A 1.25 1.25 0 0 0 21.115234 1.1152344 L 19.015625 3.2148438 C 17.090029 1.673418 14.649889 0.75 12 0.75 C 5.8016024 0.75 0.75 5.8016024 0.75 12 C 0.75 14.649889 1.673418 17.090029 3.2148438 19.015625 L 1.1152344 21.115234 A 1.25 1.25 0 0 0 1.1152344 22.884766 A 1.25 1.25 0 0 0 2.8847656 22.884766 L 4.984375 20.785156 C 6.9099712 22.326582 9.3501107 23.25 12 23.25 C 18.198398 23.25 23.25 18.198398 23.25 12 C 23.25 9.3501107 22.326582 6.9099712 20.785156 4.984375 L 22.884766 2.8847656 A 1.25 1.25 0 0 0 22.884766 1.1152344 A 1.25 1.25 0 0 0 22 0.74804688 z M 12 3.25 C 13.970471 3.25 15.78457 3.8951992 17.244141 4.9863281 L 4.9863281 17.244141 C 3.8951992 15.78457 3.25 13.970471 3.25 12 C 3.25 7.1527026 7.1527026 3.25 12 3.25 z M 19.013672 6.7558594 C 20.104801 8.2154299 20.75 10.029529 20.75 12 C 20.75 16.847297 16.847297 20.75 12 20.75 C 10.029529 20.75 8.2154299 20.104801 6.7558594 19.013672 L 19.013672 6.7558594 z " />
</svg>
