<?xml version="1.0" encoding="UTF-8" standalone="no"?>
<svg
   width="24"
   height="24"
   viewBox="0 0 24 24"
   fill="none"
   stroke="currentColor"
   stroke-width="2.5"
   stroke-linecap="round"
   stroke-linejoin="round"
   version="1.1"
   id="svg3"
   sodipodi:docname=".tmp_circle-arrow-out-down-left.svg"
   xmlns:inkscape="http://www.inkscape.org/namespaces/inkscape"
   xmlns:sodipodi="http://sodipodi.sourceforge.net/DTD/sodipodi-0.dtd"
   xmlns="http://www.w3.org/2000/svg"
   xmlns:svg="http://www.w3.org/2000/svg">
  <defs
     id="defs3" />
  <sodipodi:namedview
     id="namedview3"
     pagecolor="#ffffff"
     bordercolor="#000000"
     borderopacity="0.25"
     inkscape:showpageshadow="2"
     inkscape:pageopacity="0.0"
     inkscape:pagecheckerboard="0"
     inkscape:deskcolor="#d1d1d1" />
  <path
     id="path1"
     style="baseline-shift:baseline;display:inline;overflow:visible;vector-effect:none;fill:#000000;stroke:none;stroke-linecap:butt;stroke-linejoin:miter;enable-background:accumulate;stop-color:#000000;stop-opacity:1;opacity:1"
     d="M 11.962891 0.74023438 C 11.561289 0.74341801 11.160538 0.76713667 10.763672 0.8125 C 9.7053609 0.93346888 8.670522 1.2015764 7.6953125 1.6054688 C 3.7944746 3.2210384 0.75 7.0414348 0.75 12 A 1.25 1.25 0 0 0 2 13.25 A 1.25 1.25 0 0 0 3.25 12 C 3.25 8.0488971 5.592658 5.183214 8.6523438 3.9160156 C 11.712029 2.6488173 15.394043 3.0190432 18.1875 5.8125 C 20.980957 8.6059568 21.351183 12.287971 20.083984 15.347656 C 18.816786 18.407342 15.951103 20.75 12 20.75 A 1.25 1.25 0 0 0 10.75 22 A 1.25 1.25 0 0 0 12 23.25 C 16.958565 23.25 20.778962 20.205526 22.394531 16.304688 C 24.010101 12.40385 23.460944 7.5507881 19.955078 4.0449219 C 17.654353 1.7441971 14.774103 0.71794892 11.962891 0.74023438 z M 12 10.748047 A 1.25 1.25 0 0 0 11.115234 11.115234 L 3.25 18.980469 L 3.25 16 A 1.25 1.25 0 0 0 2 14.75 A 1.25 1.25 0 0 0 0.75 16 L 0.75 21.933594 L 0.75 22 A 1.250125 1.250125 0 0 0 0.75195312 22.041016 A 1.25 1.25 0 0 0 0.7578125 22.136719 A 1.250125 1.250125 0 0 0 0.76757812 22.203125 A 1.25 1.25 0 0 0 0.79296875 22.324219 A 1.25 1.25 0 0 0 0.84375 22.474609 A 1.250125 1.250125 0 0 0 0.8515625 22.488281 A 1.25 1.25 0 0 0 1.0078125 22.761719 A 1.25 1.25 0 0 0 1.1152344 22.884766 A 1.250125 1.250125 0 0 0 1.2382812 22.992188 A 1.25 1.25 0 0 0 1.5117188 23.148438 A 1.250125 1.250125 0 0 0 1.5253906 23.15625 A 1.25 1.25 0 0 0 1.6757812 23.207031 A 1.25 1.25 0 0 0 1.796875 23.232422 A 1.250125 1.250125 0 0 0 1.8632812 23.242188 A 1.25 1.25 0 0 0 1.9589844 23.248047 A 1.250125 1.250125 0 0 0 2 23.25 L 2.0664062 23.25 L 8 23.25 A 1.25 1.25 0 0 0 9.25 22 A 1.25 1.25 0 0 0 8 20.75 L 5.0195312 20.75 L 12.884766 12.884766 A 1.25 1.25 0 0 0 12.884766 11.115234 A 1.25 1.25 0 0 0 12 10.748047 z " />
</svg>
