<?xml version="1.0" encoding="UTF-8" standalone="no"?>
<svg
   width="24"
   height="24"
   viewBox="0 0 24 24"
   fill="none"
   stroke="currentColor"
   stroke-width="2.5"
   stroke-linecap="round"
   stroke-linejoin="round"
   version="1.1"
   id="svg4"
   sodipodi:docname=".tmp_clock-alert.svg"
   xmlns:inkscape="http://www.inkscape.org/namespaces/inkscape"
   xmlns:sodipodi="http://sodipodi.sourceforge.net/DTD/sodipodi-0.dtd"
   xmlns="http://www.w3.org/2000/svg"
   xmlns:svg="http://www.w3.org/2000/svg">
  <defs
     id="defs4" />
  <sodipodi:namedview
     id="namedview4"
     pagecolor="#ffffff"
     bordercolor="#000000"
     borderopacity="0.25"
     inkscape:showpageshadow="2"
     inkscape:pageopacity="0.0"
     inkscape:pagecheckerboard="0"
     inkscape:deskcolor="#d1d1d1" />
  <path
     id="path1"
     style="baseline-shift:baseline;display:inline;overflow:visible;vector-effect:none;fill:#000000;stroke:none;stroke-linecap:butt;stroke-linejoin:miter;enable-background:accumulate;stop-color:#000000;stop-opacity:1;opacity:1"
     d="M 11.972656 0.74609375 C 7.7317114 0.75569428 3.4447447 3.149136 1.5722656 7.7714844 C -0.30021345 12.393833 1.1117962 17.098153 4.1503906 20.056641 C 7.188985 23.015129 11.928998 24.300633 16.5 22.304688 A 1.25 1.25 0 0 0 17.146484 20.660156 A 1.25 1.25 0 0 0 15.5 20.013672 C 11.85623 21.604738 8.278302 20.586552 5.8945312 18.265625 C 3.5107606 15.944698 2.3960848 12.395495 3.8886719 8.7109375 C 5.3812589 5.0263798 8.6515031 3.2536253 11.978516 3.2460938 C 15.305528 3.2385637 18.584628 4.9953631 20.09375 8.6738281 A 1.25 1.25 0 0 0 21.724609 9.3574219 A 1.25 1.25 0 0 0 22.40625 7.7246094 C 20.513101 3.1100839 16.213601 0.73649322 11.972656 0.74609375 z M 12 4.75 A 1.25 1.25 0 0 0 10.75 6 L 10.75 12 A 1.250125 1.250125 0 0 0 11.441406 13.117188 L 15.441406 15.117188 A 1.25 1.25 0 0 0 17.117188 14.558594 A 1.25 1.25 0 0 0 16.558594 12.882812 L 13.25 11.226562 L 13.25 6 A 1.25 1.25 0 0 0 12 4.75 z M 20 10.75 A 1.25 1.25 0 0 0 18.75 12 L 18.75 17 A 1.25 1.25 0 0 0 20 18.25 A 1.25 1.25 0 0 0 21.25 17 L 21.25 12 A 1.25 1.25 0 0 0 20 10.75 z M 20 19.75 A 1.25 1.25 0 0 0 18.75 21 A 1.25 1.25 0 0 0 20 22.25 L 20.009766 22.25 A 1.25 1.25 0 0 0 21.259766 21 A 1.25 1.25 0 0 0 20.009766 19.75 L 20 19.75 z " />
</svg>
