<?xml version="1.0" encoding="UTF-8" standalone="no"?>
<svg
   width="24"
   height="24"
   viewBox="0 0 24 24"
   fill="none"
   stroke="currentColor"
   stroke-width="2.5"
   stroke-linecap="round"
   stroke-linejoin="round"
   version="1.1"
   id="svg2"
   sodipodi:docname=".tmp_cloud-lightning.svg"
   xmlns:inkscape="http://www.inkscape.org/namespaces/inkscape"
   xmlns:sodipodi="http://sodipodi.sourceforge.net/DTD/sodipodi-0.dtd"
   xmlns="http://www.w3.org/2000/svg"
   xmlns:svg="http://www.w3.org/2000/svg">
  <defs
     id="defs2" />
  <sodipodi:namedview
     id="namedview2"
     pagecolor="#ffffff"
     bordercolor="#000000"
     borderopacity="0.25"
     inkscape:showpageshadow="2"
     inkscape:pageopacity="0.0"
     inkscape:pagecheckerboard="0"
     inkscape:deskcolor="#d1d1d1" />
  <path
     id="path1"
     style="baseline-shift:baseline;display:inline;overflow:visible;vector-effect:none;fill:#000000;stroke:none;stroke-linecap:butt;stroke-linejoin:miter;enable-background:accumulate;stop-color:#000000;stop-opacity:1;opacity:1"
     d="M 8.7460938 1.7753906 C 8.2855419 1.7849433 7.8236302 1.8342764 7.3652344 1.9238281 C 6.0422704 2.1822811 4.7572479 2.7760686 3.6328125 3.7402344 C -0.86492926 7.5968974 0.11074439 14.913642 5.4628906 17.455078 A 1.25 1.25 0 0 0 7.1289062 16.861328 A 1.25 1.25 0 0 0 6.5371094 15.197266 C 2.7349291 13.391822 2.064567 8.3764948 5.2597656 5.6367188 C 8.4549643 2.8969428 13.307521 4.3242954 14.511719 8.3574219 A 1.250125 1.250125 0 0 0 15.710938 9.25 L 17.5 9.25 A 1.250125 1.250125 0 0 0 17.501953 9.25 C 18.616735 9.24805 19.338193 9.6187489 19.865234 10.171875 C 20.392276 10.725001 20.706744 11.50703 20.751953 12.318359 C 20.797163 13.129689 20.571701 13.942525 20.109375 14.550781 C 19.647049 15.159038 18.971378 15.608549 17.863281 15.730469 A 1.25 1.25 0 0 0 16.757812 17.109375 A 1.25 1.25 0 0 0 18.136719 18.214844 C 19.854019 18.025896 21.23766 17.198472 22.099609 16.064453 C 22.961559 14.930434 23.323576 13.53513 23.248047 12.179688 C 23.172471 10.824243 22.658385 9.4785009 21.675781 8.4472656 C 20.693178 7.4160304 19.225708 6.7469854 17.498047 6.75 L 16.509766 6.75 C 15.125129 3.5607663 11.969956 1.7085216 8.7460938 1.7753906 z M 13.019531 10.75 A 1.25 1.25 0 0 0 11.927734 11.357422 L 8.9277344 16.357422 A 1.250125 1.250125 0 0 0 10 18.25 L 11.792969 18.25 L 9.9277344 21.357422 A 1.25 1.25 0 0 0 10.357422 23.072266 A 1.25 1.25 0 0 0 12.072266 22.642578 L 15.072266 17.642578 A 1.250125 1.250125 0 0 0 14 15.75 L 12.207031 15.75 L 14.072266 12.642578 A 1.25 1.25 0 0 0 13.642578 10.927734 A 1.25 1.25 0 0 0 13.019531 10.75 z " />
</svg>
