<?xml version="1.0" encoding="UTF-8" standalone="no"?>
<svg
   width="24"
   height="24"
   viewBox="0 0 24 24"
   fill="none"
   stroke="currentColor"
   stroke-width="2.5"
   stroke-linecap="round"
   stroke-linejoin="round"
   version="1.1"
   id="svg2"
   sodipodi:docname=".tmp_cloud-moon.svg"
   xmlns:inkscape="http://www.inkscape.org/namespaces/inkscape"
   xmlns:sodipodi="http://sodipodi.sourceforge.net/DTD/sodipodi-0.dtd"
   xmlns="http://www.w3.org/2000/svg"
   xmlns:svg="http://www.w3.org/2000/svg">
  <defs
     id="defs2" />
  <sodipodi:namedview
     id="namedview2"
     pagecolor="#ffffff"
     bordercolor="#000000"
     borderopacity="0.25"
     inkscape:showpageshadow="2"
     inkscape:pageopacity="0.0"
     inkscape:pagecheckerboard="0"
     inkscape:deskcolor="#d1d1d1" />
  <path
     id="path1"
     style="baseline-shift:baseline;display:inline;overflow:visible;vector-effect:none;fill:#000000;stroke:none;stroke-linecap:butt;stroke-linejoin:miter;enable-background:accumulate;stop-color:#000000;stop-opacity:1;opacity:1"
     d="M 14.650391 1.9042969 C 14.542847 1.906566 14.435341 1.9201356 14.328125 1.9453125 A 1.250125 1.250125 0 0 0 14.324219 1.9472656 C 11.270044 2.6729297 9.0232608 5.2945921 8.7734375 8.4238281 A 1.25 1.25 0 0 0 9.9199219 9.7695312 A 1.25 1.25 0 0 0 11.265625 8.6230469 C 11.397414 6.9722872 12.493988 5.7302936 13.908203 4.984375 C 13.550738 6.7741059 14.118618 8.5402701 15.289062 9.7109375 C 16.485956 10.908058 18.305686 11.473472 20.136719 11.0625 C 19.64159 12.054194 18.920435 12.916526 17.880859 13.365234 A 1.25 1.25 0 0 0 17.228516 15.007812 A 1.25 1.25 0 0 0 18.871094 15.660156 C 20.973779 14.75258 22.525319 12.902463 23.052734 10.673828 C 23.256006 9.8154192 22.678484 8.9033716 22.0625 8.5859375 C 21.44723 8.2688712 20.76325 8.2334746 20.089844 8.5253906 C 18.895392 9.0409668 17.809739 8.6966011 17.056641 7.9433594 C 16.303043 7.1896186 15.959275 6.1034453 16.476562 4.9082031 C 16.768314 4.2343135 16.730103 3.5531062 16.412109 2.9375 C 16.133865 2.3988446 15.403195 1.8884132 14.650391 1.9042969 z M 6.796875 10.798828 C 5.0933373 10.831014 3.3896361 11.54139 2.1601562 13.046875 C -1.1184568 17.061503 1.8164324 23.248942 7 23.25 L 13 23.25 C 14.3125 23.25 15.454503 22.712806 16.183594 21.892578 C 16.912684 21.072351 17.25 20.027778 17.25 19 C 17.25 17.972222 16.912684 16.927649 16.183594 16.107422 C 15.454503 15.287194 14.3125 14.75 13 14.75 L 12.759766 14.75 C 11.990297 12.792495 10.367459 11.453001 8.4824219 10.988281 C 7.9319988 10.852585 7.3647209 10.788099 6.796875 10.798828 z M 6.9082031 13.197266 C 7.2470002 13.186291 7.5854386 13.222206 7.9121094 13.302734 C 9.2187926 13.62485 10.350997 14.658887 10.675781 16.25 A 1.250125 1.250125 0 0 0 11.900391 17.25 L 13 17.25 C 13.687499 17.25 14.045497 17.462806 14.316406 17.767578 C 14.587315 18.072351 14.75 18.527778 14.75 19 C 14.75 19.472222 14.587315 19.927649 14.316406 20.232422 C 14.045497 20.537194 13.687499 20.75 13 20.75 L 7 20.75 C 3.7521539 20.749337 2.0415144 17.144239 4.0957031 14.628906 C 4.8660239 13.685657 5.8918118 13.230189 6.9082031 13.197266 z " />
</svg>
