<?xml version="1.0" encoding="UTF-8" standalone="no"?>
<svg
   width="24"
   height="24"
   viewBox="0 0 24 24"
   fill="none"
   stroke="currentColor"
   stroke-width="2.5"
   stroke-linecap="round"
   stroke-linejoin="round"
   version="1.1"
   id="svg2"
   sodipodi:docname=".tmp_codepen.svg"
   xmlns:inkscape="http://www.inkscape.org/namespaces/inkscape"
   xmlns:sodipodi="http://sodipodi.sourceforge.net/DTD/sodipodi-0.dtd"
   xmlns="http://www.w3.org/2000/svg"
   xmlns:svg="http://www.w3.org/2000/svg">
  <defs
     id="defs2" />
  <sodipodi:namedview
     id="namedview2"
     pagecolor="#ffffff"
     bordercolor="#000000"
     borderopacity="0.25"
     inkscape:showpageshadow="2"
     inkscape:pageopacity="0.0"
     inkscape:pagecheckerboard="0"
     inkscape:deskcolor="#d1d1d1" />
  <path
     id="polygon1"
     style="baseline-shift:baseline;display:inline;overflow:visible;vector-effect:none;fill:#000000;stroke:none;stroke-linecap:butt;stroke-linejoin:miter;enable-background:accumulate;stop-color:#000000;stop-opacity:1;opacity:1"
     d="M 12 0.75 A 1.25 1.25 0 0 0 11.966797 0.75195312 A 1.250125 1.250125 0 0 0 11.875 0.7578125 A 1.25 1.25 0 0 0 11.804688 0.765625 A 1.250125 1.250125 0 0 0 11.695312 0.7890625 A 1.25 1.25 0 0 0 11.662109 0.796875 A 1.250125 1.250125 0 0 0 11.537109 0.83984375 A 1.25 1.25 0 0 0 11.509766 0.8515625 A 1.250125 1.250125 0 0 0 11.392578 0.90820312 A 1.25 1.25 0 0 0 11.361328 0.92773438 A 1.250125 1.250125 0 0 0 11.318359 0.95117188 L 1.3183594 7.4511719 A 1.250125 1.250125 0 0 0 0.83007812 8.0644531 A 1.25 1.25 0 0 0 0.81640625 8.1035156 A 1.250125 1.250125 0 0 0 0.78320312 8.2207031 A 1.25 1.25 0 0 0 0.77734375 8.2519531 A 1.250125 1.250125 0 0 0 0.7578125 8.3789062 A 1.25 1.25 0 0 0 0.75585938 8.4179688 A 1.250125 1.250125 0 0 0 0.75 8.5 L 0.75 15.5 A 1.250125 1.250125 0 0 0 0.75585938 15.582031 A 1.25 1.25 0 0 0 0.7578125 15.621094 A 1.250125 1.250125 0 0 0 0.77734375 15.748047 A 1.25 1.25 0 0 0 0.78320312 15.779297 A 1.250125 1.250125 0 0 0 0.81640625 15.896484 A 1.25 1.25 0 0 0 0.83007812 15.935547 A 1.250125 1.250125 0 0 0 1.3183594 16.548828 A 1.25 1.25 0 0 0 1.328125 16.554688 L 11.318359 23.048828 A 1.250125 1.250125 0 0 0 11.361328 23.072266 A 1.25 1.25 0 0 0 11.392578 23.091797 A 1.250125 1.250125 0 0 0 11.509766 23.148438 A 1.25 1.25 0 0 0 11.537109 23.160156 A 1.250125 1.250125 0 0 0 11.662109 23.203125 A 1.25 1.25 0 0 0 11.695312 23.210938 A 1.250125 1.250125 0 0 0 11.804688 23.234375 A 1.25 1.25 0 0 0 11.875 23.242188 A 1.250125 1.250125 0 0 0 11.966797 23.248047 A 1.25 1.25 0 0 0 12 23.25 A 1.25 1.25 0 0 0 12.033203 23.248047 A 1.250125 1.250125 0 0 0 12.125 23.242188 A 1.25 1.25 0 0 0 12.195312 23.234375 A 1.250125 1.250125 0 0 0 12.681641 23.048828 L 22.671875 16.554688 A 1.25 1.25 0 0 0 22.681641 16.548828 A 1.250125 1.250125 0 0 0 23.173828 15.927734 A 1.25 1.25 0 0 0 23.183594 15.896484 A 1.250125 1.250125 0 0 0 23.21875 15.771484 A 1.25 1.25 0 0 0 23.222656 15.748047 A 1.250125 1.250125 0 0 0 23.242188 15.621094 A 1.25 1.25 0 0 0 23.244141 15.582031 A 1.250125 1.250125 0 0 0 23.25 15.5 L 23.25 8.5 A 1.250125 1.250125 0 0 0 23.244141 8.4179688 A 1.25 1.25 0 0 0 23.242188 8.3789062 A 1.250125 1.250125 0 0 0 23.21875 8.2285156 A 1.25 1.25 0 0 0 23.216797 8.2207031 A 1.250125 1.250125 0 0 0 23.173828 8.0722656 A 1.25 1.25 0 0 0 23.169922 8.0644531 A 1.250125 1.250125 0 0 0 22.681641 7.4511719 L 12.681641 0.95117188 A 1.250125 1.250125 0 0 0 12.638672 0.92773438 A 1.250125 1.250125 0 0 0 12.607422 0.90820312 A 1.250125 1.250125 0 0 0 12.490234 0.8515625 A 1.250125 1.250125 0 0 0 12.462891 0.83984375 A 1.250125 1.250125 0 0 0 12.337891 0.796875 A 1.250125 1.250125 0 0 0 12.304688 0.7890625 A 1.250125 1.250125 0 0 0 12.195312 0.765625 A 1.25 1.25 0 0 0 12.125 0.7578125 A 1.250125 1.250125 0 0 0 12.033203 0.75195312 A 1.25 1.25 0 0 0 12 0.75 z M 10.75 4.3046875 L 10.75 7.8496094 L 7 10.474609 L 4.234375 8.5390625 L 10.75 4.3046875 z M 13.25 4.3046875 L 19.765625 8.5390625 L 17 10.474609 L 13.25 7.8496094 L 13.25 4.3046875 z M 12 10.025391 L 14.820312 12 L 12 13.974609 L 9.1796875 12 L 12 10.025391 z M 3.25 10.900391 L 4.8203125 12 L 3.25 13.099609 L 3.25 10.900391 z M 20.75 10.900391 L 20.75 13.099609 L 19.179688 12 L 20.75 10.900391 z M 7 13.525391 L 10.75 16.150391 L 10.75 19.697266 L 4.234375 15.460938 L 7 13.525391 z M 17 13.525391 L 19.765625 15.460938 L 13.25 19.697266 L 13.25 16.150391 L 17 13.525391 z " />
</svg>
