<?xml version="1.0" encoding="UTF-8" standalone="no"?>
<svg
   width="24"
   height="24"
   viewBox="0 0 24 24"
   fill="none"
   stroke="currentColor"
   stroke-width="2.5"
   stroke-linecap="round"
   stroke-linejoin="round"
   version="1.1"
   id="svg5"
   sodipodi:docname=".tmp_combine.svg"
   xmlns:inkscape="http://www.inkscape.org/namespaces/inkscape"
   xmlns:sodipodi="http://sodipodi.sourceforge.net/DTD/sodipodi-0.dtd"
   xmlns="http://www.w3.org/2000/svg"
   xmlns:svg="http://www.w3.org/2000/svg">
  <defs
     id="defs5" />
  <sodipodi:namedview
     id="namedview5"
     pagecolor="#ffffff"
     bordercolor="#000000"
     borderopacity="0.25"
     inkscape:showpageshadow="2"
     inkscape:pageopacity="0.0"
     inkscape:pagecheckerboard="0"
     inkscape:deskcolor="#d1d1d1" />
  <path
     id="path1"
     style="baseline-shift:baseline;display:inline;overflow:visible;vector-effect:none;fill:#000000;stroke:none;stroke-linecap:butt;stroke-linejoin:miter;enable-background:accumulate;stop-color:#000000;stop-opacity:1;opacity:1"
     d="M 4 1.75 C 2.7751215 1.75 1.75 2.7751215 1.75 4 L 1.75 9 C 1.75 10.224878 2.7751215 11.25 4 11.25 L 9 11.25 C 10.224878 11.25 11.25 10.224878 11.25 9 L 11.25 4 C 11.25 2.7751215 10.224878 1.75 9 1.75 L 4 1.75 z M 14 1.75 A 1.25 1.25 0 0 0 12.75 3 A 1.25 1.25 0 0 0 13.75 4 L 13.75 9 A 1.25 1.25 0 0 0 12.75 10 A 1.25 1.25 0 0 0 14 11.25 C 15.227835 11.25 16.25 10.227835 16.25 9 L 16.25 4 C 16.25 2.7721651 15.227835 1.75 14 1.75 z M 19 1.75 A 1.25 1.25 0 0 0 17.75 3 A 1.25 1.25 0 0 0 18.75 4 L 18.75 9 A 1.25 1.25 0 0 0 17.75 10 A 1.25 1.25 0 0 0 19 11.25 C 20.227835 11.25 21.25 10.227835 21.25 9 L 21.25 4 C 21.25 2.7721651 20.227835 1.75 19 1.75 z M 4.25 4.25 L 8.75 4.25 L 8.75 8.75 L 4.25 8.75 L 4.25 4.25 z M 3 12.75 A 1.25 1.25 0 0 0 1.75 14 L 1.75 16 C 1.75 17.78012 3.2198804 19.25 5 19.25 L 6.9804688 19.25 L 6.1152344 20.115234 A 1.25 1.25 0 0 0 6.1152344 21.884766 A 1.25 1.25 0 0 0 7.8847656 21.884766 L 10.882812 18.886719 A 1.25 1.25 0 0 0 10.884766 18.884766 A 1.250125 1.250125 0 0 0 10.992188 18.761719 A 1.25 1.25 0 0 0 10.998047 18.753906 A 1.250125 1.250125 0 0 0 11.083984 18.625 A 1.25 1.25 0 0 0 11.085938 18.621094 A 1.250125 1.250125 0 0 0 11.125 18.542969 A 1.25 1.25 0 0 0 11.166016 18.453125 A 1.250125 1.250125 0 0 0 11.179688 18.408203 A 1.25 1.25 0 0 0 11.212891 18.308594 A 1.250125 1.250125 0 0 0 11.230469 18.216797 A 1.25 1.25 0 0 0 11.242188 18.142578 A 1.250125 1.250125 0 0 0 11.248047 18.066406 A 1.25 1.25 0 0 0 11.25 17.964844 A 1.250125 1.250125 0 0 0 11.244141 17.892578 A 1.25 1.25 0 0 0 11.234375 17.808594 A 1.250125 1.250125 0 0 0 11.216797 17.71875 A 1.25 1.25 0 0 0 11.197266 17.642578 A 1.250125 1.250125 0 0 0 11.169922 17.558594 A 1.25 1.25 0 0 0 11.138672 17.486328 A 1.250125 1.250125 0 0 0 11.099609 17.40625 A 1.25 1.25 0 0 0 11.0625 17.341797 A 1.250125 1.250125 0 0 0 11.005859 17.257812 A 1.25 1.25 0 0 0 10.962891 17.205078 A 1.250125 1.250125 0 0 0 10.904297 17.138672 A 1.25 1.25 0 0 0 10.884766 17.115234 L 7.8847656 14.115234 A 1.25 1.25 0 0 0 6.1152344 14.115234 A 1.25 1.25 0 0 0 6.1152344 15.884766 L 6.9804688 16.75 L 5 16.75 C 4.5709806 16.75 4.25 16.429019 4.25 16 L 4.25 14 A 1.25 1.25 0 0 0 3 12.75 z M 15 12.75 C 13.775122 12.75 12.75 13.775122 12.75 15 L 12.75 20 C 12.75 21.224878 13.775122 22.25 15 22.25 L 20 22.25 C 21.224878 22.25 22.25 21.224878 22.25 20 L 22.25 15 C 22.25 13.775122 21.224878 12.75 20 12.75 L 15 12.75 z M 15.25 15.25 L 19.75 15.25 L 19.75 19.75 L 15.25 19.75 L 15.25 15.25 z " />
</svg>
