<?xml version="1.0" encoding="UTF-8" standalone="no"?>
<svg
   width="24"
   height="24"
   viewBox="0 0 24 24"
   fill="none"
   stroke="currentColor"
   stroke-width="2.5"
   stroke-linecap="round"
   stroke-linejoin="round"
   version="1.1"
   id="svg2"
   sodipodi:docname=".tmp_corner-up-left.svg"
   xmlns:inkscape="http://www.inkscape.org/namespaces/inkscape"
   xmlns:sodipodi="http://sodipodi.sourceforge.net/DTD/sodipodi-0.dtd"
   xmlns="http://www.w3.org/2000/svg"
   xmlns:svg="http://www.w3.org/2000/svg">
  <defs
     id="defs2" />
  <sodipodi:namedview
     id="namedview2"
     pagecolor="#ffffff"
     bordercolor="#000000"
     borderopacity="0.25"
     inkscape:showpageshadow="2"
     inkscape:pageopacity="0.0"
     inkscape:pagecheckerboard="0"
     inkscape:deskcolor="#d1d1d1" />
  <path
     id="path1"
     style="baseline-shift:baseline;display:inline;overflow:visible;vector-effect:none;fill:#000000;stroke:none;stroke-linecap:butt;stroke-linejoin:miter;enable-background:accumulate;stop-color:#000000;stop-opacity:1;opacity:1"
     d="M 9 2.7480469 A 1.25 1.25 0 0 0 8.1152344 3.1152344 L 3.1152344 8.1152344 A 1.25 1.25 0 0 0 3.0078125 8.2382812 A 1.250125 1.250125 0 0 0 2.7597656 8.8359375 A 1.250125 1.250125 0 0 0 2.7597656 9.1640625 A 1.250125 1.250125 0 0 0 3.0078125 9.7617188 A 1.25 1.25 0 0 0 3.1152344 9.8847656 L 8.1152344 14.884766 A 1.25 1.25 0 0 0 9.8847656 14.884766 A 1.25 1.25 0 0 0 9.8847656 13.115234 L 7.0195312 10.25 L 16 10.25 C 17.533589 10.25 18.75 11.466411 18.75 13 L 18.75 20 A 1.25 1.25 0 0 0 20 21.25 A 1.25 1.25 0 0 0 21.25 20 L 21.25 13 C 21.25 10.115311 18.884689 7.75 16 7.75 L 7.0195312 7.75 L 9.8847656 4.8847656 A 1.25 1.25 0 0 0 9.8847656 3.1152344 A 1.25 1.25 0 0 0 9 2.7480469 z " />
</svg>
