<?xml version="1.0" encoding="UTF-8" standalone="no"?>
<svg
   width="24"
   height="24"
   viewBox="0 0 24 24"
   fill="none"
   stroke="currentColor"
   stroke-width="2.5"
   stroke-linecap="round"
   stroke-linejoin="round"
   version="1.1"
   id="svg2"
   sodipodi:docname=".tmp_crop.svg"
   xmlns:inkscape="http://www.inkscape.org/namespaces/inkscape"
   xmlns:sodipodi="http://sodipodi.sourceforge.net/DTD/sodipodi-0.dtd"
   xmlns="http://www.w3.org/2000/svg"
   xmlns:svg="http://www.w3.org/2000/svg">
  <defs
     id="defs2" />
  <sodipodi:namedview
     id="namedview2"
     pagecolor="#ffffff"
     bordercolor="#000000"
     borderopacity="0.25"
     inkscape:showpageshadow="2"
     inkscape:pageopacity="0.0"
     inkscape:pagecheckerboard="0"
     inkscape:deskcolor="#d1d1d1" />
  <path
     id="path1"
     style="baseline-shift:baseline;display:inline;overflow:visible;vector-effect:none;fill:#000000;stroke:none;stroke-linecap:butt;stroke-linejoin:miter;enable-background:accumulate;stop-color:#000000;stop-opacity:1;opacity:1"
     d="M 6 0.75 A 1.25 1.25 0 0 0 4.75 2 L 4.75 4.75 L 2 4.75 A 1.25 1.25 0 0 0 0.75 6 A 1.25 1.25 0 0 0 2 7.25 L 4.75 7.25 L 4.75 16 C 4.75 17.78012 6.2198804 19.25 8 19.25 L 16.75 19.25 L 16.75 22 A 1.25 1.25 0 0 0 18 23.25 A 1.25 1.25 0 0 0 19.25 22 L 19.25 19.25 L 22 19.25 A 1.25 1.25 0 0 0 23.25 18 A 1.25 1.25 0 0 0 22 16.75 L 19.25 16.75 L 19.25 8 C 19.25 6.2198804 17.78012 4.75 16 4.75 L 7.25 4.75 L 7.25 2 A 1.25 1.25 0 0 0 6 0.75 z M 7.25 7.25 L 16 7.25 C 16.429019 7.25 16.75 7.5709806 16.75 8 L 16.75 16.75 L 8 16.75 C 7.5709806 16.75 7.25 16.429019 7.25 16 L 7.25 7.25 z " />
</svg>
