<?xml version="1.0" encoding="UTF-8" standalone="no"?>
<svg
   width="24"
   height="24"
   viewBox="0 0 24 24"
   fill="none"
   stroke="currentColor"
   stroke-width="2.5"
   stroke-linecap="round"
   stroke-linejoin="round"
   version="1.1"
   id="svg5"
   sodipodi:docname=".tmp_database-backup.svg"
   xmlns:inkscape="http://www.inkscape.org/namespaces/inkscape"
   xmlns:sodipodi="http://sodipodi.sourceforge.net/DTD/sodipodi-0.dtd"
   xmlns="http://www.w3.org/2000/svg"
   xmlns:svg="http://www.w3.org/2000/svg">
  <defs
     id="defs5" />
  <sodipodi:namedview
     id="namedview5"
     pagecolor="#ffffff"
     bordercolor="#000000"
     borderopacity="0.25"
     inkscape:showpageshadow="2"
     inkscape:pageopacity="0.0"
     inkscape:pagecheckerboard="0"
     inkscape:deskcolor="#d1d1d1" />
  <path
     id="ellipse1"
     style="baseline-shift:baseline;display:inline;overflow:visible;vector-effect:none;fill:#000000;stroke:none;stroke-linecap:butt;stroke-linejoin:miter;enable-background:accumulate;stop-color:#000000;stop-opacity:1;opacity:1"
     d="M 12 0.75 C 9.4021269 0.75 7.0498693 1.0901477 5.2402344 1.6933594 C 4.3354169 1.9949652 3.562898 2.3536619 2.9335938 2.8496094 C 2.347276 3.3116796 1.8321407 3.9824938 1.7636719 4.8164062 A 1.25 1.25 0 0 0 1.75 5 L 1.75 11.996094 C 1.7499886 12.000496 1.7499887 12.005374 1.75 12.009766 L 1.75 19 C 1.7499384 19.7445 2.1283984 20.38972 2.5917969 20.847656 C 3.055601 21.305993 3.6250077 21.646684 4.2871094 21.941406 C 5.6113126 22.530851 7.3315779 22.928148 9.3476562 23.125 A 1.25 1.25 0 0 0 10.714844 22.001953 A 1.25 1.25 0 0 0 9.5917969 20.636719 C 7.7718381 20.459016 6.2567995 20.080065 5.3046875 19.65625 C 4.8286315 19.444343 4.4994277 19.218365 4.3496094 19.070312 C 4.289936 19.011343 4.2620085 18.975225 4.25 18.958984 L 4.25 14.925781 C 5.2235363 15.367519 6.4127397 15.694921 7.796875 15.923828 A 1.25 1.25 0 0 0 9.2324219 14.894531 A 1.25 1.25 0 0 0 8.203125 13.457031 C 6.7647558 13.219155 5.6212218 12.848163 4.9414062 12.482422 C 4.4315446 12.208116 4.2949421 11.996177 4.2597656 11.966797 L 4.2578125 11.966797 L 4.2578125 11.964844 L 4.2558594 11.964844 L 4.2539062 11.964844 L 4.2539062 11.966797 L 4.2519531 11.96875 C 4.2517445 11.969459 4.2501657 11.973726 4.25 11.974609 L 4.25 7.9257812 C 4.5598502 8.0642172 4.890139 8.1899422 5.2402344 8.3066406 C 7.0498693 8.9098523 9.4021269 9.25 12 9.25 C 14.597873 9.25 16.950131 8.9098523 18.759766 8.3066406 C 19.109861 8.1899422 19.44015 8.0642172 19.75 7.9257812 L 19.75 9.3007812 A 1.25 1.25 0 0 0 21 10.550781 A 1.25 1.25 0 0 0 22.25 9.3007812 L 22.25 5 A 1.25 1.25 0 0 0 22.236328 4.8164062 C 22.167859 3.9824938 21.652725 3.3116796 21.066406 2.8496094 C 20.437102 2.3536619 19.664583 1.9949652 18.759766 1.6933594 C 16.950131 1.0901477 14.597873 0.75 12 0.75 z M 12 3.25 C 14.37269 3.25 16.521026 3.5818783 17.96875 4.0644531 C 18.692612 4.3057405 19.237986 4.5925705 19.519531 4.8144531 C 19.629893 4.9014276 19.689448 4.9629306 19.720703 5 C 19.689448 5.0370695 19.629892 5.0985735 19.519531 5.1855469 C 19.237986 5.4074295 18.692612 5.6942595 17.96875 5.9355469 C 16.521026 6.4181217 14.37269 6.75 12 6.75 C 9.6273103 6.75 7.4789744 6.4181217 6.03125 5.9355469 C 5.3073878 5.6942595 4.762014 5.4074295 4.4804688 5.1855469 C 4.3701082 5.098573 4.3105523 5.0370695 4.2792969 5 C 4.3105523 4.9629305 4.3701082 4.901427 4.4804688 4.8144531 C 4.762014 4.5925705 5.3073878 4.3057405 6.03125 4.0644531 C 7.4789744 3.5818783 9.6273103 3.25 12 3.25 z M 12 10.75 A 1.25 1.25 0 0 0 10.75 12 L 10.75 15.933594 L 10.75 16 A 1.250125 1.250125 0 0 0 10.751953 16.041016 A 1.25 1.25 0 0 0 10.757812 16.136719 A 1.250125 1.250125 0 0 0 10.767578 16.203125 A 1.25 1.25 0 0 0 10.792969 16.324219 A 1.25 1.25 0 0 0 10.84375 16.474609 A 1.250125 1.250125 0 0 0 10.851562 16.488281 A 1.25 1.25 0 0 0 11.007812 16.761719 A 1.250125 1.250125 0 0 0 11.238281 16.992188 A 1.25 1.25 0 0 0 11.511719 17.148438 A 1.250125 1.250125 0 0 0 11.525391 17.15625 A 1.25 1.25 0 0 0 11.675781 17.207031 A 1.25 1.25 0 0 0 11.796875 17.232422 A 1.250125 1.250125 0 0 0 11.863281 17.242188 A 1.25 1.25 0 0 0 11.958984 17.248047 A 1.250125 1.250125 0 0 0 12 17.25 L 12.066406 17.25 L 16 17.25 A 1.25 1.25 0 0 0 17.25 16 A 1.25 1.25 0 0 0 16 14.75 L 15.017578 14.75 C 15.657034 14.132103 16.530622 13.75 17.5 13.75 C 19.309731 13.75 20.75 15.190269 20.75 17 C 20.75 18.872104 19.622846 20.077541 18.185547 20.556641 C 16.748248 21.03574 15.123262 20.747683 14 19.25 A 1.25 1.25 0 0 0 12.25 19 A 1.25 1.25 0 0 0 12 20.75 C 13.759775 23.096366 16.634621 23.710335 18.976562 22.929688 C 21.318504 22.14904 23.25 19.932958 23.25 17 C 23.25 13.839168 20.660832 11.25 17.5 11.25 C 15.853329 11.25 14.343648 11.910548 13.25 12.982422 L 13.25 12 A 1.25 1.25 0 0 0 12 10.75 z " />
</svg>
