<?xml version="1.0" encoding="UTF-8" standalone="no"?>
<svg
   width="24"
   height="24"
   viewBox="0 0 24 24"
   fill="none"
   stroke="currentColor"
   stroke-width="2.5"
   stroke-linecap="round"
   stroke-linejoin="round"
   version="1.1"
   id="svg3"
   sodipodi:docname=".tmp_decimals-arrow-left.svg"
   xmlns:inkscape="http://www.inkscape.org/namespaces/inkscape"
   xmlns:sodipodi="http://sodipodi.sourceforge.net/DTD/sodipodi-0.dtd"
   xmlns="http://www.w3.org/2000/svg"
   xmlns:svg="http://www.w3.org/2000/svg">
  <defs
     id="defs3" />
  <sodipodi:namedview
     id="namedview3"
     pagecolor="#ffffff"
     bordercolor="#000000"
     borderopacity="0.25"
     inkscape:showpageshadow="2"
     inkscape:pageopacity="0.0"
     inkscape:pagecheckerboard="0"
     inkscape:deskcolor="#d1d1d1" />
  <path
     id="path1"
     style="baseline-shift:baseline;display:inline;overflow:visible;vector-effect:none;fill:#000000;stroke:none;stroke-linecap:butt;stroke-linejoin:miter;enable-background:accumulate;stop-color:#000000;stop-opacity:1;opacity:1"
     d="M 8.5 1.75 C 6.4441215 1.75 4.75 3.4441215 4.75 5.5 L 4.75 8.5 C 4.75 10.555878 6.4441215 12.25 8.5 12.25 C 10.555878 12.25 12.25 10.555878 12.25 8.5 L 12.25 5.5 C 12.25 3.4441215 10.555878 1.75 8.5 1.75 z M 8.5 4.25 C 9.2141215 4.25 9.75 4.7858785 9.75 5.5 L 9.75 8.5 C 9.75 9.2141215 9.2141215 9.75 8.5 9.75 C 7.7858785 9.75 7.25 9.2141215 7.25 8.5 L 7.25 5.5 C 7.25 4.7858785 7.7858785 4.25 8.5 4.25 z M 3 9.75 A 1.25 1.25 0 0 0 1.75 11 A 1.25 1.25 0 0 0 3 12.25 L 3.0097656 12.25 A 1.25 1.25 0 0 0 4.2597656 11 A 1.25 1.25 0 0 0 3.0097656 9.75 L 3 9.75 z M 13 13.748047 A 1.25 1.25 0 0 0 12.115234 14.115234 L 9.1152344 17.115234 A 1.250125 1.250125 0 0 0 9.1152344 18.884766 L 12.115234 21.884766 A 1.25 1.25 0 0 0 13.884766 21.884766 A 1.25 1.25 0 0 0 13.884766 20.115234 L 13.019531 19.25 L 20 19.25 A 1.25 1.25 0 0 0 21.25 18 A 1.25 1.25 0 0 0 20 16.75 L 13.019531 16.75 L 13.884766 15.884766 A 1.25 1.25 0 0 0 13.884766 14.115234 A 1.25 1.25 0 0 0 13 13.748047 z " />
</svg>
