<?xml version="1.0" encoding="UTF-8" standalone="no"?>
<svg
   width="24"
   height="24"
   viewBox="0 0 24 24"
   fill="none"
   stroke="currentColor"
   stroke-width="2.5"
   stroke-linecap="round"
   stroke-linejoin="round"
   version="1.1"
   id="svg3"
   sodipodi:docname=".tmp_diamond-plus.svg"
   xmlns:inkscape="http://www.inkscape.org/namespaces/inkscape"
   xmlns:sodipodi="http://sodipodi.sourceforge.net/DTD/sodipodi-0.dtd"
   xmlns="http://www.w3.org/2000/svg"
   xmlns:svg="http://www.w3.org/2000/svg">
  <defs
     id="defs3" />
  <sodipodi:namedview
     id="namedview3"
     pagecolor="#ffffff"
     bordercolor="#000000"
     borderopacity="0.25"
     inkscape:showpageshadow="2"
     inkscape:pageopacity="0.0"
     inkscape:pagecheckerboard="0"
     inkscape:deskcolor="#d1d1d1" />
  <path
     id="path1"
     style="baseline-shift:baseline;display:inline;overflow:visible;vector-effect:none;fill:#000000;stroke:none;stroke-linecap:butt;stroke-linejoin:miter;enable-background:accumulate;stop-color:#000000;stop-opacity:1;opacity:1"
     d="M 11.994141 0.76171875 C 11.054254 0.76171875 10.115812 1.1158825 9.40625 1.8261719 L 1.8164062 9.4160156 C 0.39582762 10.83514 0.39582762 13.174626 1.8164062 14.59375 L 9.40625 22.183594 C 10.825374 23.604172 13.16486 23.604172 14.583984 22.183594 L 22.173828 14.59375 C 23.594407 13.174626 23.594407 10.83514 22.173828 9.4160156 L 14.583984 1.8261719 C 13.874422 1.1158825 12.934028 0.76171875 11.994141 0.76171875 z M 11.994141 3.2460938 C 12.288572 3.2460938 12.584605 3.3617117 12.816406 3.59375 L 20.40625 11.183594 C 20.870327 11.647195 20.870327 12.36257 20.40625 12.826172 L 12.816406 20.416016 C 12.352805 20.880092 11.63743 20.880092 11.173828 20.416016 L 3.5839844 12.826172 C 3.1199077 12.36257 3.1199077 11.647195 3.5839844 11.183594 L 11.173828 3.59375 C 11.405629 3.3617117 11.699709 3.2460938 11.994141 3.2460938 z M 12 6.75 A 1.25 1.25 0 0 0 10.75 8 L 10.75 10.75 L 8 10.75 A 1.25 1.25 0 0 0 6.75 12 A 1.25 1.25 0 0 0 8 13.25 L 10.75 13.25 L 10.75 16 A 1.25 1.25 0 0 0 12 17.25 A 1.25 1.25 0 0 0 13.25 16 L 13.25 13.25 L 16 13.25 A 1.25 1.25 0 0 0 17.25 12 A 1.25 1.25 0 0 0 16 10.75 L 13.25 10.75 L 13.25 8 A 1.25 1.25 0 0 0 12 6.75 z " />
</svg>
