<?xml version="1.0" encoding="UTF-8" standalone="no"?>
<svg
   width="24"
   height="24"
   viewBox="0 0 24 24"
   fill="none"
   stroke="currentColor"
   stroke-width="2.5"
   stroke-linecap="round"
   stroke-linejoin="round"
   version="1.1"
   id="svg5"
   sodipodi:docname=".tmp_dices.svg"
   xmlns:inkscape="http://www.inkscape.org/namespaces/inkscape"
   xmlns:sodipodi="http://sodipodi.sourceforge.net/DTD/sodipodi-0.dtd"
   xmlns="http://www.w3.org/2000/svg"
   xmlns:svg="http://www.w3.org/2000/svg">
  <defs
     id="defs5" />
  <sodipodi:namedview
     id="namedview5"
     pagecolor="#ffffff"
     bordercolor="#000000"
     borderopacity="0.25"
     inkscape:showpageshadow="2"
     inkscape:pageopacity="0.0"
     inkscape:pagecheckerboard="0"
     inkscape:deskcolor="#d1d1d1" />
  <path
     id="rect1"
     style="baseline-shift:baseline;display:inline;overflow:visible;vector-effect:none;fill:#000000;stroke:none;stroke-linecap:butt;stroke-linejoin:miter;enable-background:accumulate;stop-color:#000000;stop-opacity:1;opacity:1"
     d="M 14.919922 0.75976562 C 14.081423 0.75976562 13.242086 1.0572031 12.582031 1.6523438 A 1.250125 1.250125 0 0 0 12.535156 1.6953125 L 9.1152344 5.1152344 A 1.25 1.25 0 0 0 9.1152344 6.8847656 A 1.25 1.25 0 0 0 10.884766 6.8847656 L 14.263672 3.5058594 C 14.64757 3.1640393 15.197221 3.1638868 15.580078 3.5078125 L 15.582031 3.5078125 L 20.494141 8.3417969 C 20.836229 8.7245743 20.835349 9.273039 20.494141 9.65625 L 17.035156 13.115234 A 1.25 1.25 0 0 0 17.035156 14.884766 A 1.25 1.25 0 0 0 18.804688 14.884766 L 22.304688 11.384766 A 1.250125 1.250125 0 0 0 22.347656 11.337891 C 23.537938 10.017781 23.537938 7.9822194 22.347656 6.6621094 A 1.250125 1.250125 0 0 0 22.296875 6.609375 L 17.296875 1.6894531 A 1.250125 1.250125 0 0 0 17.257812 1.6523438 C 16.597706 1.0572004 15.758421 0.75976563 14.919922 0.75976562 z M 15 4.75 A 1.25 1.25 0 0 0 13.75 6 A 1.25 1.25 0 0 0 15 7.25 L 15.009766 7.25 A 1.25 1.25 0 0 0 16.259766 6 A 1.25 1.25 0 0 0 15.009766 4.75 L 15 4.75 z M 18 7.75 A 1.25 1.25 0 0 0 16.75 9 A 1.25 1.25 0 0 0 18 10.25 L 18.009766 10.25 A 1.25 1.25 0 0 0 19.259766 9 A 1.25 1.25 0 0 0 18.009766 7.75 L 18 7.75 z M 4 8.75 C 2.2211215 8.75 0.75 10.221122 0.75 12 L 0.75 20 C 0.75 21.778878 2.2211215 23.25 4 23.25 L 12 23.25 C 13.778878 23.25 15.25 21.778878 15.25 20 L 15.25 12 C 15.25 10.221122 13.778878 8.75 12 8.75 L 4 8.75 z M 4 11.25 L 12 11.25 C 12.437122 11.25 12.75 11.562878 12.75 12 L 12.75 20 C 12.75 20.437122 12.437122 20.75 12 20.75 L 4 20.75 C 3.5628785 20.75 3.25 20.437122 3.25 20 L 3.25 12 C 3.25 11.562878 3.5628785 11.25 4 11.25 z M 10 12.75 A 1.25 1.25 0 0 0 8.75 14 A 1.25 1.25 0 0 0 10 15.25 L 10.009766 15.25 A 1.25 1.25 0 0 0 11.259766 14 A 1.25 1.25 0 0 0 10.009766 12.75 L 10 12.75 z M 6 16.75 A 1.25 1.25 0 0 0 4.75 18 A 1.25 1.25 0 0 0 6 19.25 L 6.0097656 19.25 A 1.25 1.25 0 0 0 7.2597656 18 A 1.25 1.25 0 0 0 6.0097656 16.75 L 6 16.75 z " />
</svg>
