<?xml version="1.0" encoding="UTF-8" standalone="no"?>
<svg
   width="24"
   height="24"
   viewBox="0 0 24 24"
   fill="none"
   stroke="currentColor"
   stroke-width="2.5"
   stroke-linecap="round"
   stroke-linejoin="round"
   version="1.1"
   id="svg3"
   sodipodi:docname=".tmp_egg-off.svg"
   xmlns:inkscape="http://www.inkscape.org/namespaces/inkscape"
   xmlns:sodipodi="http://sodipodi.sourceforge.net/DTD/sodipodi-0.dtd"
   xmlns="http://www.w3.org/2000/svg"
   xmlns:svg="http://www.w3.org/2000/svg">
  <defs
     id="defs3" />
  <sodipodi:namedview
     id="namedview3"
     pagecolor="#ffffff"
     bordercolor="#000000"
     borderopacity="0.25"
     inkscape:showpageshadow="2"
     inkscape:pageopacity="0.0"
     inkscape:pagecheckerboard="0"
     inkscape:deskcolor="#d1d1d1" />
  <path
     id="path1"
     style="baseline-shift:baseline;display:inline;overflow:visible;vector-effect:none;fill:#000000;stroke:none;stroke-linecap:butt;stroke-linejoin:miter;enable-background:accumulate;stop-color:#000000;stop-opacity:1;opacity:1"
     d="M 2 0.74804688 A 1.25 1.25 0 0 0 1.1152344 1.1152344 A 1.25 1.25 0 0 0 1.1152344 2.8847656 L 4.6503906 6.4199219 C 3.477685 8.6474282 2.75 11.298324 2.75 14 C 2.7496801 18.45425 5.689511 21.715243 9.2324219 22.826172 C 12.371329 23.81042 16.08546 23.138864 18.660156 20.429688 L 21.115234 22.884766 A 1.25 1.25 0 0 0 22.884766 22.884766 A 1.25 1.25 0 0 0 22.884766 21.115234 L 2.8847656 1.1152344 A 1.25 1.25 0 0 0 2 0.74804688 z M 12 0.75 C 10.584956 0.75 9.2500127 1.3166389 8.0898438 2.1914062 A 1.25 1.25 0 0 0 7.8457031 3.9433594 A 1.25 1.25 0 0 0 9.5957031 4.1875 C 10.435534 3.5542674 11.259044 3.25 12 3.25 C 13.375 3.25 15.101215 4.4067056 16.458984 6.4433594 C 17.816754 8.4800131 18.75 11.277778 18.75 14 L 18.75 14.347656 A 1.25 1.25 0 0 0 20 15.597656 A 1.25 1.25 0 0 0 21.25 14.347656 L 21.25 14 C 21.25 10.722222 20.183246 7.5199869 18.541016 5.0566406 C 16.898785 2.5932944 14.625 0.75 12 0.75 z M 6.5214844 8.2910156 L 16.894531 18.664062 C 14.97949 20.74754 12.325896 21.176848 9.9804688 20.441406 C 7.357497 19.618937 5.2497572 17.380416 5.25 14 C 5.25 12.030384 5.7371897 10.022581 6.5214844 8.2910156 z " />
</svg>
