<?xml version="1.0" encoding="UTF-8" standalone="no"?>
<svg
   width="24"
   height="24"
   viewBox="0 0 24 24"
   fill="none"
   stroke="currentColor"
   stroke-width="2.5"
   stroke-linecap="round"
   stroke-linejoin="round"
   version="1.1"
   id="svg5"
   sodipodi:docname=".tmp_ev-charger.svg"
   xmlns:inkscape="http://www.inkscape.org/namespaces/inkscape"
   xmlns:sodipodi="http://sodipodi.sourceforge.net/DTD/sodipodi-0.dtd"
   xmlns="http://www.w3.org/2000/svg"
   xmlns:svg="http://www.w3.org/2000/svg">
  <defs
     id="defs5" />
  <sodipodi:namedview
     id="namedview5"
     pagecolor="#ffffff"
     bordercolor="#000000"
     borderopacity="0.25"
     inkscape:showpageshadow="2"
     inkscape:pageopacity="0.0"
     inkscape:pagecheckerboard="0"
     inkscape:deskcolor="#d1d1d1" />
  <path
     id="path1"
     style="baseline-shift:baseline;display:inline;overflow:visible;vector-effect:none;fill:#000000;stroke:none;stroke-linecap:butt;stroke-linejoin:miter;enable-background:accumulate;stop-color:#000000;stop-opacity:1;opacity:1"
     d="M 5 1.75 C 3.2198804 1.75 1.75 3.2198804 1.75 5 L 1.75 19.775391 A 1.25 1.25 0 0 0 0.75 21 A 1.25 1.25 0 0 0 2 22.25 L 15 22.25 A 1.25 1.25 0 0 0 16.25 21 A 1.25 1.25 0 0 0 15.25 19.775391 L 15.25 14.25 L 16 14.25 C 16.429019 14.25 16.75 14.570981 16.75 15 L 16.75 17 C 16.75 17.979167 17.162194 18.87117 17.794922 19.433594 C 18.427649 19.996018 19.222222 20.25 20 20.25 C 20.777778 20.25 21.572351 19.996018 22.205078 19.433594 C 22.837806 18.87117 23.25 17.979167 23.25 17 L 23.25 10.003906 L 23.25 10.001953 C 23.250186 9.1375933 22.903708 8.3070259 22.291016 7.6972656 L 18.90625 4.1386719 A 1.25 1.25 0 0 0 17.138672 4.09375 A 1.25 1.25 0 0 0 17.09375 5.8613281 L 20.503906 9.4433594 A 1.250125 1.250125 0 0 0 20.529297 9.46875 C 20.671409 9.61002 20.750159 9.8015697 20.75 10.001953 L 20.75 17 C 20.75 17.354166 20.66219 17.462164 20.544922 17.566406 C 20.427649 17.670649 20.222222 17.75 20 17.75 C 19.777778 17.75 19.572351 17.67065 19.455078 17.566406 C 19.337806 17.462164 19.25 17.354166 19.25 17 L 19.25 15 C 19.25 13.21988 17.78012 11.75 16 11.75 L 15.25 11.75 L 15.25 5 C 15.25 3.2198804 13.78012 1.75 12 1.75 L 5 1.75 z M 5 4.25 L 12 4.25 C 12.429019 4.25 12.75 4.5709806 12.75 5 L 12.75 5.75 L 4.25 5.75 L 4.25 5 C 4.25 4.5709806 4.5709806 4.25 5 4.25 z M 4.25 8.25 L 12.75 8.25 L 12.75 19.75 L 4.25 19.75 L 4.25 8.25 z M 8.9160156 9.7519531 A 1.25 1.25 0 0 0 8.7539062 9.7734375 A 1.25 1.25 0 0 0 7.9589844 10.306641 L 5.9589844 13.306641 A 1.250125 1.250125 0 0 0 7 15.25 L 7.6640625 15.25 L 6.9589844 16.306641 A 1.25 1.25 0 0 0 7.3066406 18.041016 A 1.25 1.25 0 0 0 9.0410156 17.693359 L 11.041016 14.693359 A 1.250125 1.250125 0 0 0 10 12.75 L 9.3359375 12.75 L 10.041016 11.693359 A 1.25 1.25 0 0 0 9.6933594 9.9589844 A 1.25 1.25 0 0 0 8.9160156 9.7519531 z " />
</svg>
