<?xml version="1.0" encoding="UTF-8" standalone="no"?>
<svg
   width="24"
   height="24"
   viewBox="0 0 24 24"
   fill="none"
   stroke="currentColor"
   stroke-width="2.5"
   stroke-linecap="round"
   stroke-linejoin="round"
   version="1.1"
   id="svg2"
   sodipodi:docname=".tmp_fast-forward.svg"
   xmlns:inkscape="http://www.inkscape.org/namespaces/inkscape"
   xmlns:sodipodi="http://sodipodi.sourceforge.net/DTD/sodipodi-0.dtd"
   xmlns="http://www.w3.org/2000/svg"
   xmlns:svg="http://www.w3.org/2000/svg">
  <defs
     id="defs2" />
  <sodipodi:namedview
     id="namedview2"
     pagecolor="#ffffff"
     bordercolor="#000000"
     borderopacity="0.25"
     inkscape:showpageshadow="2"
     inkscape:pageopacity="0.0"
     inkscape:pagecheckerboard="0"
     inkscape:deskcolor="#d1d1d1" />
  <path
     id="path1"
     style="baseline-shift:baseline;display:inline;overflow:visible;vector-effect:none;fill:#000000;stroke:none;stroke-linecap:butt;stroke-linejoin:miter;enable-background:accumulate;stop-color:#000000;stop-opacity:1;opacity:1"
     d="M 4.1074219 2.7578125 C 3.6387542 2.7419 3.1745362 2.8246406 2.7558594 2.9980469 C 1.6393877 3.4604637 0.75029774 4.6055736 0.75 6 L 0.75 18 C 0.75029774 19.394426 1.6393877 20.539536 2.7558594 21.001953 C 3.8723311 21.46437 5.3107178 21.284688 6.296875 20.298828 A 1.250125 1.250125 0 0 0 6.2988281 20.298828 L 10.75 15.847656 L 10.75 18 C 10.750298 19.394426 11.639388 20.539536 12.755859 21.001953 C 13.872331 21.46437 15.310718 21.284688 16.296875 20.298828 A 1.250125 1.250125 0 0 0 16.298828 20.298828 L 22.298828 14.298828 A 1.250125 1.250125 0 0 0 22.298828 14.296875 C 23.557112 13.038211 23.557112 10.961789 22.298828 9.703125 A 1.250125 1.250125 0 0 0 22.298828 9.7011719 L 16.298828 3.7011719 A 1.250125 1.250125 0 0 0 16.296875 3.7011719 C 15.803796 3.208286 15.198688 2.9172611 14.576172 2.8066406 C 13.953656 2.6960201 13.314095 2.7668385 12.755859 2.9980469 C 11.639388 3.4604637 10.750298 4.6055736 10.75 6 L 10.75 8.1523438 L 6.2988281 3.7011719 A 1.250125 1.250125 0 0 0 6.296875 3.7011719 C 5.8037964 3.208286 5.1986876 2.9172611 4.5761719 2.8066406 C 4.4205429 2.7789855 4.2636444 2.7631167 4.1074219 2.7578125 z M 4.0195312 5.2363281 C 4.1891295 5.2338484 4.3582256 5.2996835 4.5292969 5.4707031 L 10.529297 11.470703 C 10.654837 11.596281 10.728405 11.746919 10.75 11.902344 L 10.75 12.097656 C 10.728405 12.253081 10.654837 12.403719 10.529297 12.529297 L 4.5292969 18.529297 C 4.2555828 18.802928 3.988356 18.807451 3.7128906 18.693359 C 3.4374253 18.579268 3.2500826 18.387032 3.25 18 L 3.25 6 C 3.2500826 5.6129682 3.4374253 5.420732 3.7128906 5.3066406 C 3.8161901 5.2638564 3.9177723 5.237816 4.0195312 5.2363281 z M 14.019531 5.2363281 C 14.18913 5.2338484 14.358226 5.2996835 14.529297 5.4707031 L 20.529297 11.470703 C 20.832541 11.774039 20.832541 12.225961 20.529297 12.529297 L 14.529297 18.529297 C 14.255583 18.802928 13.988356 18.807451 13.712891 18.693359 C 13.437425 18.579268 13.250083 18.387032 13.25 18 L 13.25 6 C 13.250083 5.6129682 13.437425 5.420732 13.712891 5.3066406 C 13.81619 5.2638564 13.917772 5.237816 14.019531 5.2363281 z " />
</svg>
