<?xml version="1.0" encoding="UTF-8" standalone="no"?>
<svg
   width="24"
   height="24"
   viewBox="0 0 24 24"
   fill="none"
   stroke="currentColor"
   stroke-width="2.5"
   stroke-linecap="round"
   stroke-linejoin="round"
   version="1.1"
   id="svg8"
   sodipodi:docname=".tmp_ferris-wheel.svg"
   xmlns:inkscape="http://www.inkscape.org/namespaces/inkscape"
   xmlns:sodipodi="http://sodipodi.sourceforge.net/DTD/sodipodi-0.dtd"
   xmlns="http://www.w3.org/2000/svg"
   xmlns:svg="http://www.w3.org/2000/svg">
  <defs
     id="defs8" />
  <sodipodi:namedview
     id="namedview8"
     pagecolor="#ffffff"
     bordercolor="#000000"
     borderopacity="0.25"
     inkscape:showpageshadow="2"
     inkscape:pageopacity="0.0"
     inkscape:pagecheckerboard="0"
     inkscape:deskcolor="#d1d1d1" />
  <path
     id="circle1"
     style="baseline-shift:baseline;display:inline;overflow:visible;vector-effect:none;fill:#000000;stroke:none;stroke-linecap:butt;stroke-linejoin:miter;enable-background:accumulate;stop-color:#000000;stop-opacity:1;opacity:1"
     d="M 12 0.75 A 1.25 1.25 0 0 0 10.763672 1.8125 C 7.7966437 2.1550838 5.3718728 3.7180199 3.7890625 5.8496094 A 1.25 1.25 0 0 0 2.2148438 6.3789062 A 1.25 1.25 0 0 0 2.5566406 8.0058594 C 2.5107026 8.1147225 2.4659583 8.2237067 2.4238281 8.3339844 C 1.5056511 10.737356 1.4813637 13.508142 2.5449219 16.003906 A 1.25 1.25 0 0 0 2.2148438 17.621094 A 1.25 1.25 0 0 0 3.7929688 18.148438 C 4.1894877 18.669449 4.6468182 19.166475 5.1660156 19.630859 A 1.25 1.25 0 0 0 6.9316406 19.533203 A 1.25 1.25 0 0 0 6.8339844 17.767578 C 6.5240299 17.490347 6.2438654 17.201541 5.9921875 16.902344 L 7.4199219 16.085938 A 1.25 1.25 0 0 0 7.8847656 14.378906 A 1.25 1.25 0 0 0 6.1796875 13.914062 L 4.7128906 14.751953 C 4.0194039 12.954287 4.0873849 11.010914 4.7441406 9.265625 L 6.1796875 10.085938 A 1.25 1.25 0 0 0 7.8847656 9.6210938 A 1.25 1.25 0 0 0 7.4199219 7.9140625 L 5.9707031 7.0859375 C 7.0936137 5.6671443 8.7179996 4.6339261 10.75 4.3320312 L 10.75 6 A 1.25 1.25 0 0 0 12 7.25 A 1.25 1.25 0 0 0 13.25 6 L 13.25 4.3320312 C 15.282 4.6339261 16.906386 5.6671443 18.029297 7.0859375 L 16.580078 7.9140625 A 1.25 1.25 0 0 0 16.115234 9.6210938 A 1.25 1.25 0 0 0 17.820312 10.085938 L 19.255859 9.265625 C 19.912616 11.010914 19.980596 12.954286 19.287109 14.751953 L 17.820312 13.914062 A 1.25 1.25 0 0 0 16.115234 14.378906 A 1.25 1.25 0 0 0 16.580078 16.085938 L 18.007812 16.902344 C 17.756134 17.201542 17.475971 17.490346 17.166016 17.767578 A 1.25 1.25 0 0 0 17.068359 19.533203 A 1.25 1.25 0 0 0 18.833984 19.630859 C 19.353183 19.166474 19.810512 18.669451 20.207031 18.148438 A 1.25 1.25 0 0 0 21.785156 17.621094 A 1.25 1.25 0 0 0 21.455078 16.003906 C 22.518634 13.508143 22.494348 10.737355 21.576172 8.3339844 C 21.534042 8.223706 21.489298 8.1147232 21.443359 8.0058594 A 1.25 1.25 0 0 0 21.785156 6.3789062 A 1.25 1.25 0 0 0 20.210938 5.8496094 C 18.628128 3.7180188 16.203356 2.1550837 13.236328 1.8125 A 1.25 1.25 0 0 0 12 0.75 z M 12 8.75 C 10.21988 8.75 8.75 10.21988 8.75 12 C 8.75 13.186046 9.4032049 14.235121 10.365234 14.802734 L 8.1347656 20.75 L 8 20.75 A 1.25 1.25 0 0 0 6.75 22 A 1.25 1.25 0 0 0 8 23.25 L 16 23.25 A 1.25 1.25 0 0 0 17.25 22 A 1.25 1.25 0 0 0 16 20.75 L 15.865234 20.75 L 13.634766 14.802734 C 14.596795 14.235121 15.25 13.186046 15.25 12 C 15.25 10.21988 13.78012 8.75 12 8.75 z M 12 11.25 C 12.429019 11.25 12.75 11.570981 12.75 12 C 12.75 12.429019 12.429019 12.75 12 12.75 C 11.570981 12.75 11.25 12.429019 11.25 12 C 11.25 11.570981 11.570981 11.25 12 11.25 z M 12 17.558594 L 13.197266 20.75 L 10.802734 20.75 L 12 17.558594 z " />
</svg>
