<?xml version="1.0" encoding="UTF-8" standalone="no"?>
<svg
   width="24"
   height="24"
   viewBox="0 0 24 24"
   fill="none"
   stroke="currentColor"
   stroke-width="2.5"
   stroke-linecap="round"
   stroke-linejoin="round"
   version="1.1"
   id="svg2"
   sodipodi:docname=".tmp_folder-git-2.svg"
   xmlns:inkscape="http://www.inkscape.org/namespaces/inkscape"
   xmlns:sodipodi="http://sodipodi.sourceforge.net/DTD/sodipodi-0.dtd"
   xmlns="http://www.w3.org/2000/svg"
   xmlns:svg="http://www.w3.org/2000/svg">
  <defs
     id="defs2" />
  <sodipodi:namedview
     id="namedview2"
     pagecolor="#ffffff"
     bordercolor="#000000"
     borderopacity="0.25"
     inkscape:showpageshadow="2"
     inkscape:pageopacity="0.0"
     inkscape:pagecheckerboard="0"
     inkscape:deskcolor="#d1d1d1" />
  <path
     id="path1"
     style="baseline-shift:baseline;display:inline;overflow:visible;vector-effect:none;fill:#000000;stroke:none;stroke-linecap:butt;stroke-linejoin:miter;enable-background:accumulate;stop-color:#000000;stop-opacity:1;opacity:1"
     d="M 4 1.75 C 2.2198804 1.75 0.75 3.2198804 0.75 5 L 0.75 18 C 0.75 19.78012 2.2198804 21.25 4 21.25 L 9 21.25 A 1.25 1.25 0 0 0 10.25 20 A 1.25 1.25 0 0 0 9 18.75 L 4 18.75 C 3.5709806 18.75 3.25 18.429019 3.25 18 L 3.25 5 C 3.25 4.5709806 3.5709806 4.25 4 4.25 L 7.9003906 4.25 A 1.250125 1.250125 0 0 0 7.9121094 4.25 C 8.1685655 4.24749 8.4058297 4.3736891 8.546875 4.5878906 A 1.250125 1.250125 0 0 0 8.5546875 4.5996094 L 9.3554688 5.7871094 C 9.955768 6.6986488 10.978862 7.2498203 12.070312 7.25 L 20 7.25 C 20.429019 7.25 20.75 7.5709806 20.75 8 L 20.75 13 A 1.25 1.25 0 0 0 22 14.25 A 1.25 1.25 0 0 0 23.25 13 L 23.25 8 C 23.25 6.2198804 21.78012 4.75 20 4.75 L 12.070312 4.75 C 11.816588 4.7499582 11.582907 4.6240104 11.443359 4.4121094 A 1.250125 1.250125 0 0 0 11.435547 4.4003906 L 10.634766 3.2128906 C 10.028194 2.2917264 8.9915505 1.7391872 7.8886719 1.75 L 4 1.75 z M 13 8.75 C 11.21988 8.75 9.75 10.21988 9.75 12 C 9.75 13.338451 10.580976 14.50135 11.75 14.996094 L 11.75 22 A 1.25 1.25 0 0 0 13 23.25 A 1.25 1.25 0 0 0 14.25 22 L 14.25 18.871094 C 15.04293 19.482049 15.950657 19.953867 16.962891 20.150391 C 17.432398 21.37164 18.623763 22.25 20 22.25 C 21.78012 22.25 23.25 20.78012 23.25 19 C 23.25 17.21988 21.78012 15.75 20 15.75 C 18.7039 15.75 17.572301 16.529785 17.052734 17.640625 C 15.699677 17.316322 14.683678 16.300323 14.359375 14.947266 C 15.470215 14.427699 16.25 13.2961 16.25 12 C 16.25 10.21988 14.78012 8.75 13 8.75 z M 13 11.25 C 13.429019 11.25 13.75 11.570981 13.75 12 C 13.75 12.429019 13.429019 12.75 13 12.75 C 12.570981 12.75 12.25 12.429019 12.25 12 C 12.25 11.570981 12.570981 11.25 13 11.25 z M 20 18.25 C 20.429019 18.25 20.75 18.570981 20.75 19 C 20.75 19.429019 20.429019 19.75 20 19.75 C 19.570981 19.75 19.25 19.429019 19.25 19 C 19.25 18.570981 19.570981 18.25 20 18.25 z " />
</svg>
