<?xml version="1.0" encoding="UTF-8" standalone="no"?>
<svg
   width="24"
   height="24"
   viewBox="0 0 24 24"
   fill="none"
   stroke="currentColor"
   stroke-width="2.5"
   stroke-linecap="round"
   stroke-linejoin="round"
   version="1.1"
   id="svg3"
   sodipodi:docname=".tmp_folder-code.svg"
   xmlns:inkscape="http://www.inkscape.org/namespaces/inkscape"
   xmlns:sodipodi="http://sodipodi.sourceforge.net/DTD/sodipodi-0.dtd"
   xmlns="http://www.w3.org/2000/svg"
   xmlns:svg="http://www.w3.org/2000/svg">
  <defs
     id="defs3" />
  <sodipodi:namedview
     id="namedview3"
     pagecolor="#ffffff"
     bordercolor="#000000"
     borderopacity="0.25"
     inkscape:showpageshadow="2"
     inkscape:pageopacity="0.0"
     inkscape:pagecheckerboard="0"
     inkscape:deskcolor="#d1d1d1" />
  <path
     id="path1"
     style="baseline-shift:baseline;display:inline;overflow:visible;vector-effect:none;fill:#000000;stroke:none;stroke-linecap:butt;stroke-linejoin:miter;enable-background:accumulate;stop-color:#000000;stop-opacity:1;opacity:1"
     d="M 4 1.75 C 2.2198804 1.75 0.75 3.2198804 0.75 5 L 0.75 18 C 0.75 19.78012 2.2198804 21.25 4 21.25 L 20 21.25 C 21.78012 21.25 23.25 19.78012 23.25 18 L 23.25 8 C 23.25 6.2198804 21.78012 4.75 20 4.75 L 12.099609 4.75 A 1.250125 1.250125 0 0 0 12.087891 4.75 C 11.831436 4.7525143 11.59417 4.6263109 11.453125 4.4121094 A 1.250125 1.250125 0 0 0 11.445312 4.4003906 L 10.644531 3.2128906 C 10.044222 2.3013512 9.0211365 1.7501797 7.9296875 1.75 L 4 1.75 z M 4 4.25 L 7.9296875 4.25 C 8.1834111 4.2500418 8.4170926 4.3759896 8.5566406 4.5878906 A 1.250125 1.250125 0 0 0 8.5644531 4.5996094 L 9.3652344 5.7871094 C 9.9717963 6.7082736 11.008449 7.2608128 12.111328 7.25 L 20 7.25 C 20.429019 7.25 20.75 7.5709806 20.75 8 L 20.75 18 C 20.75 18.429019 20.429019 18.75 20 18.75 L 4 18.75 C 3.5709806 18.75 3.25 18.429019 3.25 18 L 3.25 5 C 3.25 4.5709806 3.5709806 4.25 4 4.25 z M 10.025391 9.25 A 1.25 1.25 0 0 0 9.8613281 9.2578125 A 1.25 1.25 0 0 0 9.0234375 9.71875 L 7.0234375 12.21875 A 1.250125 1.250125 0 0 0 7.0234375 13.78125 L 9.0234375 16.28125 A 1.25 1.25 0 0 0 10.78125 16.476562 A 1.25 1.25 0 0 0 10.976562 14.71875 L 9.6015625 13 L 10.976562 11.28125 A 1.25 1.25 0 0 0 10.78125 9.5234375 A 1.25 1.25 0 0 0 10.025391 9.25 z M 13.974609 9.25 A 1.25 1.25 0 0 0 13.21875 9.5234375 A 1.25 1.25 0 0 0 13.023438 11.28125 L 14.398438 13 L 13.023438 14.71875 A 1.25 1.25 0 0 0 13.21875 16.476562 A 1.25 1.25 0 0 0 14.976562 16.28125 L 16.976562 13.78125 A 1.250125 1.250125 0 0 0 16.976562 12.21875 L 14.976562 9.71875 A 1.25 1.25 0 0 0 14.138672 9.2578125 A 1.25 1.25 0 0 0 13.974609 9.25 z " />
</svg>
