<?xml version="1.0" encoding="UTF-8" standalone="no"?>
<svg
   width="24"
   height="24"
   viewBox="0 0 24 24"
   fill="none"
   stroke="currentColor"
   stroke-width="2.5"
   stroke-linecap="round"
   stroke-linejoin="round"
   version="1.1"
   id="svg1"
   sodipodi:docname=".tmp_funnel.svg"
   xmlns:inkscape="http://www.inkscape.org/namespaces/inkscape"
   xmlns:sodipodi="http://sodipodi.sourceforge.net/DTD/sodipodi-0.dtd"
   xmlns="http://www.w3.org/2000/svg"
   xmlns:svg="http://www.w3.org/2000/svg">
  <defs
     id="defs1" />
  <sodipodi:namedview
     id="namedview1"
     pagecolor="#ffffff"
     bordercolor="#000000"
     borderopacity="0.25"
     inkscape:showpageshadow="2"
     inkscape:pageopacity="0.0"
     inkscape:pagecheckerboard="0"
     inkscape:deskcolor="#d1d1d1" />
  <path
     id="path1"
     style="baseline-shift:baseline;display:inline;overflow:visible;vector-effect:none;fill:#000000;stroke:none;stroke-linecap:butt;stroke-linejoin:miter;enable-background:accumulate;stop-color:#000000;stop-opacity:1;opacity:1"
     d="M 3 1.75 C 2.0731555 1.7503346 1.274649 2.3403127 0.94335938 3.0859375 C 0.61206978 3.8315623 0.70909224 4.8197592 1.3300781 5.5078125 L 8.5566406 13.498047 C 8.6815735 13.636116 8.7499157 13.813798 8.75 14 L 8.75 20 C 8.7496038 20.85016 9.2336436 21.63365 9.9941406 22.013672 L 11.994141 23.013672 C 13.443779 23.738059 15.250755 22.620552 15.25 21 L 15.25 14 C 15.250084 13.813798 15.31843 13.636116 15.443359 13.498047 L 22.667969 5.5078125 C 23.288378 4.8204035 23.38498 3.8332782 23.054688 3.0878906 C 22.724396 2.3425031 21.929883 1.752184 21.003906 1.75 A 1.250125 1.250125 0 0 0 21 1.75 L 3 1.75 z M 3.5644531 4.25 L 20.435547 4.25 L 13.589844 11.820312 C 13.049704 12.417245 12.750365 13.194966 12.75 14 L 12.75 20.597656 L 11.25 19.847656 L 11.25 14 C 11.249635 13.194966 10.950296 12.417245 10.410156 11.820312 L 3.5644531 4.25 z " />
</svg>
