<?xml version="1.0" encoding="UTF-8" standalone="no"?>
<svg
   width="24"
   height="24"
   viewBox="0 0 24 24"
   fill="none"
   stroke="currentColor"
   stroke-width="2.5"
   stroke-linecap="round"
   stroke-linejoin="round"
   version="1.1"
   id="svg3"
   sodipodi:docname=".tmp_globe-lock.svg"
   xmlns:inkscape="http://www.inkscape.org/namespaces/inkscape"
   xmlns:sodipodi="http://sodipodi.sourceforge.net/DTD/sodipodi-0.dtd"
   xmlns="http://www.w3.org/2000/svg"
   xmlns:svg="http://www.w3.org/2000/svg">
  <defs
     id="defs3" />
  <sodipodi:namedview
     id="namedview3"
     pagecolor="#ffffff"
     bordercolor="#000000"
     borderopacity="0.25"
     inkscape:showpageshadow="2"
     inkscape:pageopacity="0.0"
     inkscape:pagecheckerboard="0"
     inkscape:deskcolor="#d1d1d1" />
  <path
     id="path1"
     style="baseline-shift:baseline;display:inline;overflow:visible;vector-effect:none;fill:#000000;stroke:none;stroke-linecap:butt;stroke-linejoin:miter;enable-background:accumulate;stop-color:#000000;stop-opacity:1;opacity:1"
     d="M 12 0.75 C 5.5134612 0.75169206 0.94256584 6.0599947 0.76953125 11.775391 A 1.25 1.25 0 0 0 0.75 12 A 1.25 1.25 0 0 0 0.765625 12.197266 C 0.782583 14.400861 1.458228 16.646215 2.9335938 18.65625 C 5.1548457 21.682479 8.4269798 23.060547 11.705078 23.123047 A 1.250125 1.250125 0 0 0 12.347656 23.099609 C 16.829338 22.935809 21.192717 20.277161 22.734375 15.375 A 1.25 1.25 0 0 0 21.917969 13.806641 A 1.25 1.25 0 0 0 20.349609 14.625 C 19.424377 17.567051 17.252576 19.455005 14.755859 20.283203 C 15.728602 18.726836 16.525155 17.069373 16.908203 15.257812 A 1.25 1.25 0 0 0 15.945312 13.777344 A 1.25 1.25 0 0 0 14.462891 14.742188 C 14.058033 16.656894 13.135287 18.383391 11.960938 19.933594 C 10.453703 17.934801 9.5777546 15.616395 9.3398438 13.25 L 10.5 13.25 A 1.25 1.25 0 0 0 11.75 12 A 1.25 1.25 0 0 0 10.5 10.75 L 9.3261719 10.75 C 9.5811923 7.8917381 10.769685 5.1026708 12.904297 2.8613281 A 1.250125 1.250125 0 0 0 12 0.75 z M 18 0.75 C 17.222222 0.75 16.427649 1.0039821 15.794922 1.5664062 C 15.162194 2.1288305 14.75 3.0208335 14.75 4 L 14.75 4.7636719 C 13.638763 4.8915211 12.75 5.8594925 12.75 7 L 12.75 10 C 12.75 11.224878 13.775122 12.25 15 12.25 L 21 12.25 C 22.224878 12.25 23.25 11.224878 23.25 10 L 23.25 7 C 23.25 5.8594925 22.361237 4.8915211 21.25 4.7636719 L 21.25 4 C 21.25 3.0208335 20.837806 2.1288304 20.205078 1.5664062 C 19.572351 1.0039821 18.777778 0.75 18 0.75 z M 18 3.25 C 18.222222 3.25 18.427649 3.3293519 18.544922 3.4335938 C 18.662194 3.5378359 18.75 3.6458338 18.75 4 L 18.75 4.75 L 17.25 4.75 L 17.25 4 C 17.25 3.6458338 17.33781 3.537836 17.455078 3.4335938 C 17.572351 3.3293514 17.777778 3.25 18 3.25 z M 9.0957031 3.765625 C 7.7746066 5.9167595 7.0159827 8.3153203 6.8222656 10.75 L 3.3007812 10.75 C 3.7596085 7.6249766 5.9255716 4.8473614 9.0957031 3.765625 z M 15.25 7.25 L 16 7.25 L 20 7.25 L 20.75 7.25 L 20.75 9.75 L 15.25 9.75 L 15.25 7.25 z M 3.3046875 13.25 L 6.8222656 13.25 C 7.0153299 15.700862 7.7800319 18.115158 9.1171875 20.277344 C 7.545062 19.721697 6.082098 18.721167 4.9492188 17.177734 C 4.0370408 15.934985 3.5060571 14.592963 3.3046875 13.25 z " />
</svg>
