<?xml version="1.0" encoding="UTF-8" standalone="no"?>
<svg
   width="24"
   height="24"
   viewBox="0 0 24 24"
   fill="none"
   stroke="currentColor"
   stroke-width="2.5"
   stroke-linecap="round"
   stroke-linejoin="round"
   version="1.1"
   id="svg6"
   sodipodi:docname=".tmp_grip-vertical.svg"
   xmlns:inkscape="http://www.inkscape.org/namespaces/inkscape"
   xmlns:sodipodi="http://sodipodi.sourceforge.net/DTD/sodipodi-0.dtd"
   xmlns="http://www.w3.org/2000/svg"
   xmlns:svg="http://www.w3.org/2000/svg">
  <defs
     id="defs6" />
  <sodipodi:namedview
     id="namedview6"
     pagecolor="#ffffff"
     bordercolor="#000000"
     borderopacity="0.25"
     inkscape:showpageshadow="2"
     inkscape:pageopacity="0.0"
     inkscape:pagecheckerboard="0"
     inkscape:deskcolor="#d1d1d1" />
  <path
     id="circle1"
     style="baseline-shift:baseline;display:inline;overflow:visible;vector-effect:none;fill:#000000;stroke:none;stroke-linecap:butt;stroke-linejoin:miter;enable-background:accumulate;stop-color:#000000;stop-opacity:1;opacity:1"
     d="M 9 2.75 C 7.7721651 2.75 6.75 3.7721651 6.75 5 C 6.75 6.2278349 7.7721651 7.25 9 7.25 C 10.227835 7.25 11.25 6.2278349 11.25 5 C 11.25 3.7721651 10.227835 2.75 9 2.75 z M 15 2.75 C 13.772165 2.75 12.75 3.7721651 12.75 5 C 12.75 6.2278349 13.772165 7.25 15 7.25 C 16.227835 7.25 17.25 6.2278349 17.25 5 C 17.25 3.7721651 16.227835 2.75 15 2.75 z M 9 4.75 C 9.1232654 4.75 9.25 4.8767346 9.25 5 C 9.25 5.1232654 9.1232654 5.25 9 5.25 C 8.8767346 5.25 8.75 5.1232654 8.75 5 C 8.75 4.8767346 8.8767346 4.75 9 4.75 z M 15 4.75 C 15.123265 4.75 15.25 4.8767346 15.25 5 C 15.25 5.1232654 15.123265 5.25 15 5.25 C 14.876735 5.25 14.75 5.1232654 14.75 5 C 14.75 4.8767346 14.876735 4.75 15 4.75 z M 9 9.75 C 7.7721651 9.75 6.75 10.772165 6.75 12 C 6.75 13.227835 7.7721651 14.25 9 14.25 C 10.227835 14.25 11.25 13.227835 11.25 12 C 11.25 10.772165 10.227835 9.75 9 9.75 z M 15 9.75 C 13.772165 9.75 12.75 10.772165 12.75 12 C 12.75 13.227835 13.772165 14.25 15 14.25 C 16.227835 14.25 17.25 13.227835 17.25 12 C 17.25 10.772165 16.227835 9.75 15 9.75 z M 9 11.75 C 9.1232654 11.75 9.25 11.876735 9.25 12 C 9.25 12.123265 9.1232654 12.25 9 12.25 C 8.8767346 12.25 8.75 12.123265 8.75 12 C 8.75 11.876735 8.8767346 11.75 9 11.75 z M 15 11.75 C 15.123265 11.75 15.25 11.876735 15.25 12 C 15.25 12.123265 15.123265 12.25 15 12.25 C 14.876735 12.25 14.75 12.123265 14.75 12 C 14.75 11.876735 14.876735 11.75 15 11.75 z M 9 16.75 C 7.7721651 16.75 6.75 17.772165 6.75 19 C 6.75 20.227835 7.7721651 21.25 9 21.25 C 10.227835 21.25 11.25 20.227835 11.25 19 C 11.25 17.772165 10.227835 16.75 9 16.75 z M 15 16.75 C 13.772165 16.75 12.75 17.772165 12.75 19 C 12.75 20.227835 13.772165 21.25 15 21.25 C 16.227835 21.25 17.25 20.227835 17.25 19 C 17.25 17.772165 16.227835 16.75 15 16.75 z M 9 18.75 C 9.1232654 18.75 9.25 18.876735 9.25 19 C 9.25 19.123265 9.1232654 19.25 9 19.25 C 8.8767346 19.25 8.75 19.123265 8.75 19 C 8.75 18.876735 8.8767346 18.75 9 18.75 z M 15 18.75 C 15.123265 18.75 15.25 18.876735 15.25 19 C 15.25 19.123265 15.123265 19.25 15 19.25 C 14.876735 19.25 14.75 19.123265 14.75 19 C 14.75 18.876735 14.876735 18.75 15 18.75 z " />
</svg>
