<?xml version="1.0" encoding="UTF-8" standalone="no"?>
<svg
   width="24"
   height="24"
   viewBox="0 0 24 24"
   fill="none"
   stroke="currentColor"
   stroke-width="2.5"
   stroke-linecap="round"
   stroke-linejoin="round"
   version="1.1"
   id="svg6"
   sodipodi:docname=".tmp_hand-platter.svg"
   xmlns:inkscape="http://www.inkscape.org/namespaces/inkscape"
   xmlns:sodipodi="http://sodipodi.sourceforge.net/DTD/sodipodi-0.dtd"
   xmlns="http://www.w3.org/2000/svg"
   xmlns:svg="http://www.w3.org/2000/svg">
  <defs
     id="defs6" />
  <sodipodi:namedview
     id="namedview6"
     pagecolor="#ffffff"
     bordercolor="#000000"
     borderopacity="0.25"
     inkscape:showpageshadow="2"
     inkscape:pageopacity="0.0"
     inkscape:pagecheckerboard="0"
     inkscape:deskcolor="#d1d1d1" />
  <path
     id="path1"
     style="baseline-shift:baseline;display:inline;overflow:visible;vector-effect:none;fill:#000000;stroke:none;stroke-linecap:butt;stroke-linejoin:miter;enable-background:accumulate;stop-color:#000000;stop-opacity:1;opacity:1"
     d="M 12 0.75 A 1.25 1.25 0 0 0 10.759766 1.84375 C 7.2069128 2.3840003 4.3840004 5.2069108 3.84375 8.7597656 A 1.25 1.25 0 0 0 2.75 10 A 1.25 1.25 0 0 0 4 11.25 L 20 11.25 A 1.25 1.25 0 0 0 21.25 10 A 1.25 1.25 0 0 0 20.15625 8.7597656 C 19.616 5.2069108 16.793087 2.3840003 13.240234 1.84375 A 1.25 1.25 0 0 0 12 0.75 z M 12 4.25 C 14.760764 4.25 17.048928 6.166552 17.615234 8.75 L 6.3847656 8.75 C 6.9510721 6.166552 9.2392357 4.25 12 4.25 z M 2 12.75 A 1.25 1.25 0 0 0 0.75 14 A 1.25 1.25 0 0 0 2 15.25 L 3.75 15.25 L 3.75 19 L 3.75 19.75 L 2 19.75 A 1.25 1.25 0 0 0 0.75 21 A 1.25 1.25 0 0 0 2 22.25 L 4 22.25 C 5.0783617 22.25 5.9971313 21.461255 6.2050781 20.4375 L 7.2597656 21.623047 C 8.2122895 22.711646 9.5969697 23.25 11 23.25 L 15 23.25 C 16.383308 23.25 17.750139 22.72797 18.701172 21.669922 L 22.244141 18.421875 A 1.250125 1.250125 0 0 0 22.267578 18.398438 C 22.975724 17.71471 23.333869 16.795055 23.298828 15.945312 C 23.263788 15.095569 22.892552 14.343584 22.349609 13.78125 C 21.806667 13.218916 21.068694 12.820685 20.220703 12.755859 C 19.372712 12.691029 18.440568 13.017445 17.732422 13.701172 L 16.880859 14.445312 C 16.762309 14.215724 16.613443 13.997252 16.433594 13.794922 C 15.87117 13.162194 14.979167 12.75 14 12.75 L 5 12.75 L 2 12.75 z M 19.970703 15.246094 C 19.990427 15.246433 20.009254 15.248468 20.029297 15.25 C 20.189639 15.26226 20.393724 15.354912 20.550781 15.517578 C 20.707838 15.680244 20.794156 15.888155 20.800781 16.048828 C 20.807381 16.208361 20.786501 16.351333 20.533203 16.597656 L 16.955078 19.878906 A 1.250125 1.250125 0 0 0 16.859375 19.976562 C 16.411896 20.48796 15.79697 20.75 15 20.75 L 11 20.75 C 10.20303 20.75 9.5881011 20.487965 9.140625 19.976562 A 1.250125 1.250125 0 0 0 9.1347656 19.96875 L 7.8320312 18.505859 C 7.4275432 18.050364 6.8558835 17.778774 6.25 17.751953 L 6.25 15.25 L 14 15.25 C 14.354166 15.25 14.462164 15.33781 14.566406 15.455078 C 14.670649 15.572351 14.75 15.777778 14.75 16 C 14.75 16.136914 14.719381 16.267526 14.671875 16.375 L 14.576172 16.458984 A 1.25 1.25 0 0 0 14.367188 16.695312 C 14.283835 16.729266 14.169845 16.75 14 16.75 L 12 16.75 A 1.25 1.25 0 0 0 10.75 18 A 1.25 1.25 0 0 0 12 19.25 L 14 19.25 C 14.979167 19.25 15.87117 18.837806 16.433594 18.205078 C 16.485307 18.146901 16.533538 18.088119 16.580078 18.027344 L 19.423828 15.541016 A 1.250125 1.250125 0 0 0 19.46875 15.5 C 19.694955 15.281595 19.832633 15.243716 19.970703 15.246094 z " />
</svg>
