<?xml version="1.0" encoding="UTF-8" standalone="no"?>
<svg
   width="24"
   height="24"
   viewBox="0 0 24 24"
   fill="none"
   stroke="currentColor"
   stroke-width="2.5"
   stroke-linecap="round"
   stroke-linejoin="round"
   version="1.1"
   id="svg1"
   sodipodi:docname=".tmp_headphones.svg"
   xmlns:inkscape="http://www.inkscape.org/namespaces/inkscape"
   xmlns:sodipodi="http://sodipodi.sourceforge.net/DTD/sodipodi-0.dtd"
   xmlns="http://www.w3.org/2000/svg"
   xmlns:svg="http://www.w3.org/2000/svg">
  <defs
     id="defs1" />
  <sodipodi:namedview
     id="namedview1"
     pagecolor="#ffffff"
     bordercolor="#000000"
     borderopacity="0.25"
     inkscape:showpageshadow="2"
     inkscape:pageopacity="0.0"
     inkscape:pagecheckerboard="0"
     inkscape:deskcolor="#d1d1d1" />
  <path
     id="path1"
     style="baseline-shift:baseline;display:inline;overflow:visible;vector-effect:none;fill:#000000;stroke:none;stroke-linecap:butt;stroke-linejoin:miter;enable-background:accumulate;stop-color:#000000;stop-opacity:1;opacity:1"
     d="M 12 1.75 C 6.3538884 1.75 1.75 6.3538842 1.75 12 L 1.75 14 L 1.75 19 C 1.75 20.78012 3.2198804 22.25 5 22.25 L 6 22.25 C 7.7801196 22.25 9.25 20.78012 9.25 19 L 9.25 16 C 9.25 14.21988 7.7801196 12.75 6 12.75 L 4.25 12.75 L 4.25 12 C 4.25 7.7049836 7.7049863 4.25 12 4.25 C 16.295014 4.25 19.75 7.7049836 19.75 12 L 19.75 12.75 L 18 12.75 C 16.21988 12.75 14.75 14.21988 14.75 16 L 14.75 19 C 14.75 20.78012 16.21988 22.25 18 22.25 L 19 22.25 C 20.78012 22.25 22.25 20.78012 22.25 19 L 22.25 14 L 22.25 12 C 22.25 6.3538842 17.646112 1.75 12 1.75 z M 4.25 15.25 L 6 15.25 C 6.4290194 15.25 6.75 15.570981 6.75 16 L 6.75 19 C 6.75 19.429019 6.4290194 19.75 6 19.75 L 5 19.75 C 4.5709806 19.75 4.25 19.429019 4.25 19 L 4.25 15.25 z M 18 15.25 L 19.75 15.25 L 19.75 19 C 19.75 19.429019 19.429019 19.75 19 19.75 L 18 19.75 C 17.570981 19.75 17.25 19.429019 17.25 19 L 17.25 16 C 17.25 15.570981 17.570981 15.25 18 15.25 z " />
</svg>
