<?xml version="1.0" encoding="UTF-8" standalone="no"?>
<svg
   width="24"
   height="24"
   viewBox="0 0 24 24"
   fill="none"
   stroke="currentColor"
   stroke-width="2.5"
   stroke-linecap="round"
   stroke-linejoin="round"
   version="1.1"
   id="svg5"
   sodipodi:docname=".tmp_heading-3.svg"
   xmlns:inkscape="http://www.inkscape.org/namespaces/inkscape"
   xmlns:sodipodi="http://sodipodi.sourceforge.net/DTD/sodipodi-0.dtd"
   xmlns="http://www.w3.org/2000/svg"
   xmlns:svg="http://www.w3.org/2000/svg">
  <defs
     id="defs5" />
  <sodipodi:namedview
     id="namedview5"
     pagecolor="#ffffff"
     bordercolor="#000000"
     borderopacity="0.25"
     inkscape:showpageshadow="2"
     inkscape:pageopacity="0.0"
     inkscape:pagecheckerboard="0"
     inkscape:deskcolor="#d1d1d1" />
  <path
     id="path1"
     style="baseline-shift:baseline;display:inline;overflow:visible;vector-effect:none;fill:#000000;stroke:none;stroke-linecap:butt;stroke-linejoin:miter;enable-background:accumulate;stop-color:#000000;stop-opacity:1;opacity:1"
     d="M 4 4.75 A 1.25 1.25 0 0 0 2.75 6 L 2.75 18 A 1.25 1.25 0 0 0 4 19.25 A 1.25 1.25 0 0 0 5.25 18 L 5.25 13.25 L 10.75 13.25 L 10.75 18 A 1.25 1.25 0 0 0 12 19.25 A 1.25 1.25 0 0 0 13.25 18 L 13.25 6 A 1.25 1.25 0 0 0 12 4.75 A 1.25 1.25 0 0 0 10.75 6 L 10.75 10.75 L 5.25 10.75 L 5.25 6 A 1.25 1.25 0 0 0 4 4.75 z M 18.691406 8.8574219 C 18.080234 8.8930269 17.453754 9.0768359 16.867188 9.421875 A 1.25 1.25 0 0 0 16.421875 11.132812 A 1.25 1.25 0 0 0 18.132812 11.578125 C 18.659679 11.268203 19.075105 11.312034 19.353516 11.443359 C 19.631926 11.574685 19.75 11.75 19.75 12 C 19.75 12.429019 19.429019 12.75 19 12.75 A 1.25 1.25 0 0 0 17.75 14 A 1.25 1.25 0 0 0 19 15.25 C 19.429019 15.25 19.75 15.570981 19.75 16 C 19.75 16.437037 19.543955 16.709224 19.236328 16.847656 C 18.928702 16.986088 18.462 17.034 17.75 16.5 A 1.25 1.25 0 0 0 16 16.75 A 1.25 1.25 0 0 0 16.25 18.5 C 17.538 19.466 19.071298 19.663521 20.263672 19.126953 C 21.456045 18.590385 22.25 17.362963 22.25 16 C 22.25 15.249123 21.988761 14.553445 21.552734 14 C 21.988761 13.446555 22.25 12.750877 22.25 12 C 22.25 10.75 21.466511 9.6753148 20.419922 9.1816406 C 19.896627 8.9348035 19.302578 8.8218169 18.691406 8.8574219 z " />
</svg>
