<?xml version="1.0" encoding="UTF-8" standalone="no"?>
<svg
   width="24"
   height="24"
   viewBox="0 0 24 24"
   fill="none"
   stroke="currentColor"
   stroke-width="2.5"
   stroke-linecap="round"
   stroke-linejoin="round"
   version="1.1"
   id="svg3"
   sodipodi:docname=".tmp_heart-off.svg"
   xmlns:inkscape="http://www.inkscape.org/namespaces/inkscape"
   xmlns:sodipodi="http://sodipodi.sourceforge.net/DTD/sodipodi-0.dtd"
   xmlns="http://www.w3.org/2000/svg"
   xmlns:svg="http://www.w3.org/2000/svg">
  <defs
     id="defs3" />
  <sodipodi:namedview
     id="namedview3"
     pagecolor="#ffffff"
     bordercolor="#000000"
     borderopacity="0.25"
     inkscape:showpageshadow="2"
     inkscape:pageopacity="0.0"
     inkscape:pagecheckerboard="0"
     inkscape:deskcolor="#d1d1d1" />
  <path
     id="path1"
     style="baseline-shift:baseline;display:inline;overflow:visible;vector-effect:none;fill:#000000;stroke:none;stroke-linecap:butt;stroke-linejoin:miter;enable-background:accumulate;stop-color:#000000;stop-opacity:1;opacity:1"
     d="M 2 0.74804688 A 1.25 1.25 0 0 0 1.1152344 1.1152344 A 1.25 1.25 0 0 0 1.1152344 2.8847656 L 2.84375 4.6132812 C 1.5240318 5.8718591 0.75013799 7.6325891 0.75 9.5 C 0.75 12.343478 2.5759507 14.345482 4.1152344 15.884766 A 1.250125 1.250125 0 0 0 4.1308594 15.898438 L 9.6230469 21.214844 C 9.6262281 21.218257 9.6296195 21.221213 9.6328125 21.224609 L 9.6386719 21.230469 C 10.913801 22.579561 13.11324 22.567713 14.376953 21.210938 L 14.425781 21.164062 L 14.427734 21.162109 L 16.951172 18.720703 L 21.115234 22.884766 A 1.25 1.25 0 0 0 22.884766 22.884766 A 1.25 1.25 0 0 0 22.884766 21.115234 L 17.865234 16.097656 L 5.7089844 3.9394531 A 1.25 1.25 0 0 0 5.5449219 3.7753906 L 2.8847656 1.1152344 A 1.25 1.25 0 0 0 2 0.74804688 z M 16.367188 2.7363281 C 14.828523 2.7782764 13.285021 3.3872779 12.011719 4.5527344 C 11.741638 4.3071151 11.486528 4.0428914 11.179688 3.84375 A 1.25 1.25 0 0 0 9.4511719 4.2128906 A 1.25 1.25 0 0 0 9.8203125 5.9414062 C 10.131526 6.1433852 10.413698 6.3845824 10.662109 6.6601562 A 1.250125 1.250125 0 0 0 10.677734 6.6777344 C 11.380671 7.4293383 12.619329 7.4293383 13.322266 6.6777344 A 1.250125 1.250125 0 0 0 13.341797 6.6542969 C 14.680675 5.1498944 16.481157 4.9230088 18.027344 5.515625 C 19.57353 6.1082412 20.759594 7.480254 20.75 9.4941406 A 1.250125 1.250125 0 0 0 20.75 9.5 C 20.75 10.925953 19.990664 12.104493 18.888672 13.3125 A 1.25 1.25 0 0 0 18.970703 15.078125 A 1.25 1.25 0 0 0 20.736328 14.998047 C 22.003961 13.608467 23.249262 11.819 23.25 9.5019531 C 23.262773 6.4584868 21.335247 4.1046752 18.921875 3.1796875 C 18.318263 2.9483376 17.678545 2.805077 17.025391 2.7539062 C 16.806574 2.7367633 16.586997 2.7303355 16.367188 2.7363281 z M 11.496094 4.9707031 L 11.498047 4.9707031 C 11.491662 4.9774294 11.485208 4.9822713 11.478516 4.9882812 L 11.496094 4.9707031 z M 4.6113281 6.3808594 L 15.183594 16.953125 L 12.638672 19.414062 A 1.250125 1.250125 0 0 0 12.564453 19.492188 C 12.253859 19.848913 11.754541 19.852776 11.439453 19.5 A 1.250125 1.250125 0 0 0 11.376953 19.433594 L 5.8847656 14.115234 C 4.4240493 12.654518 3.25 11.256522 3.25 9.5 C 3.2500886 8.3008816 3.7526216 7.1755555 4.6113281 6.3808594 z " />
</svg>
