<?xml version="1.0" encoding="UTF-8" standalone="no"?>
<svg
   width="24"
   height="24"
   viewBox="0 0 24 24"
   fill="none"
   stroke="currentColor"
   stroke-width="2.5"
   stroke-linecap="round"
   stroke-linejoin="round"
   version="1.1"
   id="svg10"
   sodipodi:docname=".tmp_heater.svg"
   xmlns:inkscape="http://www.inkscape.org/namespaces/inkscape"
   xmlns:sodipodi="http://sodipodi.sourceforge.net/DTD/sodipodi-0.dtd"
   xmlns="http://www.w3.org/2000/svg"
   xmlns:svg="http://www.w3.org/2000/svg">
  <defs
     id="defs10" />
  <sodipodi:namedview
     id="namedview10"
     pagecolor="#ffffff"
     bordercolor="#000000"
     borderopacity="0.25"
     inkscape:showpageshadow="2"
     inkscape:pageopacity="0.0"
     inkscape:pagecheckerboard="0"
     inkscape:deskcolor="#d1d1d1" />
  <path
     id="path1"
     style="baseline-shift:baseline;display:inline;overflow:visible;vector-effect:none;fill:#000000;stroke:none;stroke-linecap:butt;stroke-linejoin:miter;enable-background:accumulate;stop-color:#000000;stop-opacity:1;opacity:1"
     d="M 10.916016 0.75195312 A 1.25 1.25 0 0 0 10.753906 0.7734375 A 1.25 1.25 0 0 0 9.9589844 1.3066406 C 9.3523113 2.2166503 9.0905479 3.1322351 9.1992188 3.9472656 C 9.3078894 4.7622961 9.7089844 5.3183594 9.9589844 5.6933594 C 10.208984 6.0683594 10.307889 6.2622961 10.324219 6.3847656 C 10.340549 6.5072351 10.352309 6.7166503 9.9589844 7.3066406 A 1.25 1.25 0 0 0 10.306641 9.0410156 A 1.25 1.25 0 0 0 12.041016 8.6933594 C 12.647689 7.7833497 12.909452 6.8677649 12.800781 6.0527344 C 12.692111 5.2377039 12.291016 4.6816406 12.041016 4.3066406 C 11.791016 3.9316406 11.692111 3.7377039 11.675781 3.6152344 C 11.659451 3.4927649 11.647691 3.2833497 12.041016 2.6933594 A 1.25 1.25 0 0 0 11.693359 0.95898438 A 1.25 1.25 0 0 0 10.916016 0.75195312 z M 15.416016 0.75195312 A 1.25 1.25 0 0 0 15.253906 0.7734375 A 1.25 1.25 0 0 0 14.458984 1.3066406 C 13.852311 2.2166503 13.590548 3.1322351 13.699219 3.9472656 C 13.807889 4.7622961 14.208984 5.3183594 14.458984 5.6933594 C 14.708984 6.0683594 14.807889 6.2622961 14.824219 6.3847656 C 14.840549 6.5072351 14.852309 6.7166503 14.458984 7.3066406 A 1.25 1.25 0 0 0 14.806641 9.0410156 A 1.25 1.25 0 0 0 16.541016 8.6933594 C 17.147689 7.7833497 17.409452 6.8677649 17.300781 6.0527344 C 17.192111 5.2377039 16.791016 4.6816406 16.541016 4.3066406 C 16.291016 3.9316406 16.192111 3.7377039 16.175781 3.6152344 C 16.159451 3.4927649 16.147691 3.2833497 16.541016 2.6933594 A 1.25 1.25 0 0 0 16.193359 0.95898438 A 1.25 1.25 0 0 0 15.416016 0.75195312 z M 4 4.75 C 2.2198804 4.75 0.75 6.2198804 0.75 8 L 0.75 18 C 0.75 19.696054 2.0843287 21.110425 3.75 21.240234 L 3.75 22 A 1.25 1.25 0 0 0 5 23.25 A 1.25 1.25 0 0 0 6.25 22 L 6.25 21.25 L 17.75 21.25 L 17.75 22 A 1.25 1.25 0 0 0 19 23.25 A 1.25 1.25 0 0 0 20.25 22 L 20.25 21.240234 C 21.915672 21.110425 23.25 19.696054 23.25 18 L 23.25 8 C 23.25 6.2198804 21.78012 4.75 20 4.75 A 1.25 1.25 0 0 0 18.75 6 A 1.25 1.25 0 0 0 20 7.25 C 20.429019 7.25 20.75 7.5709806 20.75 8 L 20.75 18 C 20.75 18.429019 20.429019 18.75 20 18.75 L 19 18.75 L 4 18.75 C 3.5709806 18.75 3.25 18.429019 3.25 18 L 3.25 8 C 3.25 7.5709806 3.5709806 7.25 4 7.25 L 7 7.25 A 1.25 1.25 0 0 0 8.25 6 A 1.25 1.25 0 0 0 7 4.75 L 4 4.75 z M 6 8.75 A 1.25 1.25 0 0 0 4.75 10 A 1.25 1.25 0 0 0 6 11.25 L 6.0097656 11.25 A 1.25 1.25 0 0 0 7.2597656 10 A 1.25 1.25 0 0 0 6.0097656 8.75 L 6 8.75 z M 10 10.75 A 1.25 1.25 0 0 0 8.75 12 L 8.75 16 A 1.25 1.25 0 0 0 10 17.25 A 1.25 1.25 0 0 0 11.25 16 L 11.25 12 A 1.25 1.25 0 0 0 10 10.75 z M 14 10.75 A 1.25 1.25 0 0 0 12.75 12 L 12.75 16 A 1.25 1.25 0 0 0 14 17.25 A 1.25 1.25 0 0 0 15.25 16 L 15.25 12 A 1.25 1.25 0 0 0 14 10.75 z M 18 10.75 A 1.25 1.25 0 0 0 16.75 12 L 16.75 16 A 1.25 1.25 0 0 0 18 17.25 A 1.25 1.25 0 0 0 19.25 16 L 19.25 12 A 1.25 1.25 0 0 0 18 10.75 z M 6 12.75 A 1.25 1.25 0 0 0 4.75 14 A 1.25 1.25 0 0 0 6 15.25 L 6.0097656 15.25 A 1.25 1.25 0 0 0 7.2597656 14 A 1.25 1.25 0 0 0 6.0097656 12.75 L 6 12.75 z " />
</svg>
