<?xml version="1.0" encoding="UTF-8" standalone="no"?>
<svg
   width="24"
   height="24"
   viewBox="0 0 24 24"
   fill="none"
   stroke="currentColor"
   stroke-width="2.5"
   stroke-linecap="round"
   stroke-linejoin="round"
   version="1.1"
   id="svg9"
   sodipodi:docname=".tmp_hop-off.svg"
   xmlns:inkscape="http://www.inkscape.org/namespaces/inkscape"
   xmlns:sodipodi="http://sodipodi.sourceforge.net/DTD/sodipodi-0.dtd"
   xmlns="http://www.w3.org/2000/svg"
   xmlns:svg="http://www.w3.org/2000/svg">
  <defs
     id="defs9" />
  <sodipodi:namedview
     id="namedview9"
     pagecolor="#ffffff"
     bordercolor="#000000"
     borderopacity="0.25"
     inkscape:showpageshadow="2"
     inkscape:pageopacity="0.0"
     inkscape:pagecheckerboard="0"
     inkscape:deskcolor="#d1d1d1" />
  <path
     id="path1"
     style="baseline-shift:baseline;display:inline;overflow:visible;vector-effect:none;fill:#000000;stroke:none;stroke-linecap:butt;stroke-linejoin:miter;enable-background:accumulate;stop-color:#000000;stop-opacity:1;opacity:1"
     d="M 11.912109 0.74414062 C 11.542837 0.7465779 11.17367 0.7676224 10.804688 0.80664062 C 9.8202564 0.91073963 8.841194 1.145596 7.8945312 1.515625 A 1.25 1.25 0 0 0 7.1855469 3.1347656 A 1.25 1.25 0 0 0 8.8046875 3.84375 C 11.31834 2.8612203 14.080502 3.1687407 16.367188 4.5039062 C 14.994903 4.8287663 13.332697 5.1813165 12.089844 5.2304688 A 1.25 1.25 0 0 0 10.890625 6.5292969 A 1.25 1.25 0 0 0 12.189453 7.7285156 C 13.736323 7.6673399 15.856312 7.4356188 17.578125 6.9550781 C 18.309287 7.8553792 18.925163 8.8441615 19.507812 9.8496094 C 18.656232 9.8587394 17.788185 9.8630564 16.796875 9.671875 A 1.25 1.25 0 0 0 15.332031 10.664062 A 1.25 1.25 0 0 0 16.324219 12.126953 C 17.524349 12.358407 18.683005 12.459545 19.767578 12.433594 C 20.090016 13.222594 20.516391 14.385307 20.675781 15.320312 A 1.25 1.25 0 0 0 20.603516 16.683594 A 1.25 1.25 0 0 0 22.34375 16.996094 C 22.987688 16.548137 23.276921 15.783931 23.179688 15.054688 A 1.250125 1.250125 0 0 0 23.175781 15.03125 C 22.97309 13.701599 22.466682 12.35636 22.091797 11.476562 C 22.469499 10.91142 22.58164 10.170417 22.277344 9.5019531 A 1.250125 1.250125 0 0 0 22.25 9.4453125 C 21.539446 8.075416 20.6875 6.7847383 19.708984 5.59375 C 19.797609 5.4046226 19.854135 5.2031947 19.871094 5.0019531 C 19.927388 4.3339275 19.620919 3.6994396 19.119141 3.2910156 C 17.056158 1.6013212 14.497016 0.7270797 11.912109 0.74414062 z M 2 0.74804688 A 1.25 1.25 0 0 0 1.1152344 1.1152344 A 1.25 1.25 0 0 0 1.1152344 2.8847656 L 3.2109375 4.9804688 C -0.056965157 9.069927 -0.090177949 14.98157 3.2910156 19.119141 L 3.2929688 19.119141 L 3.2929688 19.121094 C 3.7014542 19.621645 4.3348475 19.927311 5.0019531 19.871094 C 5.2045587 19.854022 5.4074037 19.796691 5.5976562 19.707031 C 6.6873217 20.607447 8.1017578 21.634327 9.4980469 22.275391 A 1.250125 1.250125 0 0 0 9.5019531 22.277344 C 10.170433 22.581647 10.911415 22.469521 11.476562 22.091797 C 12.356361 22.46668 13.70162 22.973094 15.03125 23.175781 A 1.250125 1.250125 0 0 0 15.058594 23.179688 C 15.691473 23.262237 16.326952 23.01341 16.771484 22.572266 C 18.328933 23.004371 19.898426 23.145039 20.914062 23.205078 C 21.122323 23.219686 21.329241 23.204197 21.529297 23.160156 A 1.25 1.25 0 0 0 22.884766 22.884766 A 1.25 1.25 0 0 0 22.884766 21.115234 L 22.585938 20.818359 L 17.558594 15.791016 L 5.8144531 4.046875 L 2.8847656 1.1152344 A 1.25 1.25 0 0 0 2 0.74804688 z M 4.9941406 6.7636719 L 9.09375 10.863281 C 8.3184849 10.74849 7.5661449 10.538683 6.8984375 10.314453 A 1.250125 1.250125 0 0 0 5.25 11.5 C 5.25 12.594687 4.8655416 14.615986 4.5097656 16.222656 C 2.8201773 13.218036 2.9415067 9.526353 4.9941406 6.7636719 z M 7.6308594 13.078125 C 7.9699648 13.161479 8.3195312 13.23868 8.6796875 13.300781 C 9.530327 15.562936 9.8672888 17.720176 9.8496094 19.517578 C 8.8794968 18.958593 7.7815418 18.217563 6.9589844 17.566406 C 7.3502491 16.143784 7.5371674 14.502156 7.6308594 13.078125 z M 11.582031 13.351562 L 13.732422 15.501953 C 13.102937 15.412743 12.457794 15.294108 11.876953 15.138672 C 11.733535 14.559764 11.562375 13.972561 11.365234 13.382812 C 11.429734 13.374423 11.49544 13.365593 11.560547 13.355469 C 11.567923 13.354395 11.574672 13.352714 11.582031 13.351562 z M 12.351562 17.818359 C 13.126103 17.969548 13.889735 18.065561 14.568359 18.126953 C 14.678291 18.838053 14.774776 19.726953 14.796875 20.498047 C 13.992024 20.292484 13.085153 19.986609 12.433594 19.744141 C 12.447383 19.123894 12.419702 18.479918 12.351562 17.818359 z M 17.289062 19.058594 L 18.658203 20.427734 C 18.229131 20.351206 17.796327 20.258549 17.382812 20.144531 C 17.36702 19.774303 17.332401 19.407989 17.289062 19.058594 z " />
</svg>
