<?xml version="1.0" encoding="UTF-8" standalone="no"?>
<svg
   width="24"
   height="24"
   viewBox="0 0 24 24"
   fill="none"
   stroke="currentColor"
   stroke-width="2.5"
   stroke-linecap="round"
   stroke-linejoin="round"
   version="1.1"
   id="svg9"
   sodipodi:docname=".tmp_hotel.svg"
   xmlns:inkscape="http://www.inkscape.org/namespaces/inkscape"
   xmlns:sodipodi="http://sodipodi.sourceforge.net/DTD/sodipodi-0.dtd"
   xmlns="http://www.w3.org/2000/svg"
   xmlns:svg="http://www.w3.org/2000/svg">
  <defs
     id="defs9" />
  <sodipodi:namedview
     id="namedview9"
     pagecolor="#ffffff"
     bordercolor="#000000"
     borderopacity="0.25"
     inkscape:showpageshadow="2"
     inkscape:pageopacity="0.0"
     inkscape:pagecheckerboard="0"
     inkscape:deskcolor="#d1d1d1" />
  <path
     id="path1"
     style="baseline-shift:baseline;display:inline;overflow:visible;vector-effect:none;fill:#000000;stroke:none;stroke-linecap:butt;stroke-linejoin:miter;enable-background:accumulate;stop-color:#000000;stop-opacity:1;opacity:1"
     d="M 6 0.75 C 4.2211215 0.75 2.75 2.2211215 2.75 4 L 2.75 20 C 2.75 21.778878 4.2211215 23.25 6 23.25 L 10 23.25 L 14 23.25 L 18 23.25 C 19.778878 23.25 21.25 21.778878 21.25 20 L 21.25 4 C 21.25 2.2211215 19.778878 0.75 18 0.75 L 6 0.75 z M 6 3.25 L 18 3.25 C 18.437122 3.25 18.75 3.5628785 18.75 4 L 18.75 20 C 18.75 20.437122 18.437122 20.75 18 20.75 L 15.25 20.75 L 15.25 17.224609 A 1.25 1.25 0 0 0 16 16.75 A 1.25 1.25 0 0 0 15.75 15 C 14.641111 14.168333 13.320556 13.751953 12 13.751953 C 10.679444 13.751953 9.3588889 14.168333 8.25 15 A 1.25 1.25 0 0 0 8 16.75 A 1.25 1.25 0 0 0 8.75 17.224609 L 8.75 20.75 L 6 20.75 C 5.5628785 20.75 5.25 20.437122 5.25 20 L 5.25 4 C 5.25 3.5628785 5.5628785 3.25 6 3.25 z M 8 5.75 A 1.25 1.25 0 0 0 6.75 7 A 1.25 1.25 0 0 0 8 8.25 L 8.0097656 8.25 A 1.25 1.25 0 0 0 9.2597656 7 A 1.25 1.25 0 0 0 8.0097656 5.75 L 8 5.75 z M 12 5.75 A 1.25 1.25 0 0 0 10.75 7 A 1.25 1.25 0 0 0 12 8.25 L 12.009766 8.25 A 1.25 1.25 0 0 0 13.259766 7 A 1.25 1.25 0 0 0 12.009766 5.75 L 12 5.75 z M 16 5.75 A 1.25 1.25 0 0 0 14.75 7 A 1.25 1.25 0 0 0 16 8.25 L 16.009766 8.25 A 1.25 1.25 0 0 0 17.259766 7 A 1.25 1.25 0 0 0 16.009766 5.75 L 16 5.75 z M 8 9.75 A 1.25 1.25 0 0 0 6.75 11 A 1.25 1.25 0 0 0 8 12.25 L 8.0097656 12.25 A 1.25 1.25 0 0 0 9.2597656 11 A 1.25 1.25 0 0 0 8.0097656 9.75 L 8 9.75 z M 12 9.75 A 1.25 1.25 0 0 0 10.75 11 A 1.25 1.25 0 0 0 12 12.25 L 12.009766 12.25 A 1.25 1.25 0 0 0 13.259766 11 A 1.25 1.25 0 0 0 12.009766 9.75 L 12 9.75 z M 16 9.75 A 1.25 1.25 0 0 0 14.75 11 A 1.25 1.25 0 0 0 16 12.25 L 16.009766 12.25 A 1.25 1.25 0 0 0 17.259766 11 A 1.25 1.25 0 0 0 16.009766 9.75 L 16 9.75 z M 12 16.248047 C 12.251303 16.248047 12.502605 16.273526 12.75 16.324219 L 12.75 20.75 L 11.25 20.75 L 11.25 16.324219 C 11.497395 16.273526 11.748697 16.248047 12 16.248047 z " />
</svg>
