<?xml version="1.0" encoding="UTF-8" standalone="no"?>
<svg
   width="24"
   height="24"
   viewBox="0 0 24 24"
   fill="none"
   stroke="currentColor"
   stroke-width="2.5"
   stroke-linecap="round"
   stroke-linejoin="round"
   version="1.1"
   id="svg2"
   sodipodi:docname=".tmp_house.svg"
   xmlns:inkscape="http://www.inkscape.org/namespaces/inkscape"
   xmlns:sodipodi="http://sodipodi.sourceforge.net/DTD/sodipodi-0.dtd"
   xmlns="http://www.w3.org/2000/svg"
   xmlns:svg="http://www.w3.org/2000/svg">
  <defs
     id="defs2" />
  <sodipodi:namedview
     id="namedview2"
     pagecolor="#ffffff"
     bordercolor="#000000"
     borderopacity="0.25"
     inkscape:showpageshadow="2"
     inkscape:pageopacity="0.0"
     inkscape:pagecheckerboard="0"
     inkscape:deskcolor="#d1d1d1" />
  <path
     id="path1"
     style="baseline-shift:baseline;display:inline;overflow:visible;vector-effect:none;fill:#000000;stroke:none;stroke-linecap:butt;stroke-linejoin:miter;enable-background:accumulate;stop-color:#000000;stop-opacity:1;opacity:1"
     d="M 12 0.75390625 C 11.252251 0.75390625 10.504722 1.0084721 9.9023438 1.5175781 A 1.250125 1.250125 0 0 0 9.8964844 1.5234375 L 2.9023438 7.5175781 L 2.9003906 7.5195312 L 2.8964844 7.5234375 C 2.1701794 8.1405135 1.7497715 9.0466796 1.75 10 L 1.75 19 C 1.75 20.78012 3.2198804 22.25 5 22.25 L 9 22.25 L 15 22.25 L 19 22.25 C 20.78012 22.25 22.25 20.78012 22.25 19 L 22.25 10 C 22.250229 9.0466796 21.829821 8.1405141 21.103516 7.5234375 L 21.099609 7.5195312 L 14.103516 1.5234375 A 1.250125 1.250125 0 0 0 14.097656 1.5175781 C 13.495311 1.0084764 12.747749 0.75390625 12 0.75390625 z M 12 3.2480469 C 12.169087 3.2480469 12.338173 3.3068562 12.480469 3.4257812 L 19.476562 9.421875 A 1.250125 1.250125 0 0 0 19.484375 9.4257812 C 19.653655 9.5688354 19.750053 9.7783767 19.75 10 L 19.75 19 C 19.75 19.429019 19.429019 19.75 19 19.75 L 16.25 19.75 L 16.25 13 C 16.25 11.772165 15.227835 10.75 14 10.75 L 10 10.75 C 8.7721651 10.75 7.75 11.772165 7.75 13 L 7.75 19.75 L 5 19.75 C 4.5709806 19.75 4.25 19.429019 4.25 19 L 4.25 10 C 4.2499469 9.7783767 4.3463579 9.568839 4.515625 9.4257812 A 1.250125 1.250125 0 0 0 4.5234375 9.421875 L 11.519531 3.4257812 C 11.661827 3.3068562 11.830913 3.2480469 12 3.2480469 z M 10.25 13.25 L 13.75 13.25 L 13.75 19.75 L 10.25 19.75 L 10.25 13.25 z " />
</svg>
