<?xml version="1.0" encoding="UTF-8" standalone="no"?>
<svg
   width="24"
   height="24"
   viewBox="0 0 24 24"
   fill="none"
   stroke="currentColor"
   stroke-width="2.5"
   stroke-linecap="round"
   stroke-linejoin="round"
   version="1.1"
   id="svg3"
   sodipodi:docname=".tmp_image-play.svg"
   xmlns:inkscape="http://www.inkscape.org/namespaces/inkscape"
   xmlns:sodipodi="http://sodipodi.sourceforge.net/DTD/sodipodi-0.dtd"
   xmlns="http://www.w3.org/2000/svg"
   xmlns:svg="http://www.w3.org/2000/svg">
  <defs
     id="defs3" />
  <sodipodi:namedview
     id="namedview3"
     pagecolor="#ffffff"
     bordercolor="#000000"
     borderopacity="0.25"
     inkscape:showpageshadow="2"
     inkscape:pageopacity="0.0"
     inkscape:pagecheckerboard="0"
     inkscape:deskcolor="#d1d1d1" />
  <path
     id="path1"
     style="baseline-shift:baseline;display:inline;overflow:visible;vector-effect:none;fill:#000000;stroke:none;stroke-linecap:butt;stroke-linejoin:miter;enable-background:accumulate;stop-color:#000000;stop-opacity:1;opacity:1"
     d="M 5 1.75 C 3.2198804 1.75 1.75 3.2198804 1.75 5 L 1.75 19 C 1.75 20.78012 3.2198804 22.25 5 22.25 L 11 22.25 A 1.25 1.25 0 0 0 12.25 21 A 1.25 1.25 0 0 0 11 19.75 L 9.0195312 19.75 L 11.884766 16.884766 A 1.25 1.25 0 0 0 11.884766 15.115234 A 1.25 1.25 0 0 0 10.115234 15.115234 L 5.4804688 19.75 L 5 19.75 C 4.5709806 19.75 4.25 19.429019 4.25 19 L 4.25 5 C 4.25 4.5709806 4.5709806 4.25 5 4.25 L 19 4.25 C 19.429019 4.25 19.75 4.5709806 19.75 5 L 19.75 12.169922 A 1.25 1.25 0 0 0 21 13.419922 A 1.25 1.25 0 0 0 22.25 12.169922 L 22.25 5 C 22.25 3.2198804 20.78012 1.75 19 1.75 L 5 1.75 z M 9 5.75 C 7.2198804 5.75 5.75 7.2198804 5.75 9 C 5.75 10.78012 7.2198804 12.25 9 12.25 C 10.78012 12.25 12.25 10.78012 12.25 9 C 12.25 7.2198804 10.78012 5.75 9 5.75 z M 9 8.25 C 9.4290194 8.25 9.75 8.5709806 9.75 9 C 9.75 9.4290194 9.4290194 9.75 9 9.75 C 8.5709806 9.75 8.25 9.4290194 8.25 9 C 8.25 8.5709806 8.5709806 8.25 9 8.25 z M 16.017578 12.769531 C 14.852792 12.793691 13.746172 13.737222 13.75 15.005859 L 13.75 20.990234 C 13.7432 22.681087 15.711868 23.798338 17.160156 22.927734 L 17.164062 22.925781 L 22.154297 19.933594 L 22.15625 19.931641 C 23.568523 19.087317 23.568523 16.912683 22.15625 16.068359 L 17.164062 13.074219 C 16.802043 12.855681 16.40584 12.761479 16.017578 12.769531 z M 16.25 15.441406 L 20.515625 18 L 16.25 20.558594 L 16.25 15.441406 z " />
</svg>
