<?xml version="1.0" encoding="UTF-8" standalone="no"?>
<svg
   width="24"
   height="24"
   viewBox="0 0 24 24"
   fill="none"
   stroke="currentColor"
   stroke-width="2.5"
   stroke-linecap="round"
   stroke-linejoin="round"
   version="1.1"
   id="svg3"
   sodipodi:docname=".tmp_import.svg"
   xmlns:inkscape="http://www.inkscape.org/namespaces/inkscape"
   xmlns:sodipodi="http://sodipodi.sourceforge.net/DTD/sodipodi-0.dtd"
   xmlns="http://www.w3.org/2000/svg"
   xmlns:svg="http://www.w3.org/2000/svg">
  <defs
     id="defs3" />
  <sodipodi:namedview
     id="namedview3"
     pagecolor="#ffffff"
     bordercolor="#000000"
     borderopacity="0.25"
     inkscape:showpageshadow="2"
     inkscape:pageopacity="0.0"
     inkscape:pagecheckerboard="0"
     inkscape:deskcolor="#d1d1d1" />
  <path
     id="path1"
     style="baseline-shift:baseline;display:inline;overflow:visible;vector-effect:none;fill:#000000;stroke:none;stroke-linecap:butt;stroke-linejoin:miter;enable-background:accumulate;stop-color:#000000;stop-opacity:1;opacity:1"
     d="M 12 1.75 A 1.25 1.25 0 0 0 10.75 3 L 10.75 11.980469 L 8.8847656 10.115234 A 1.25 1.25 0 0 0 7.1152344 10.115234 A 1.25 1.25 0 0 0 7.1152344 11.884766 L 11.115234 15.884766 A 1.25 1.25 0 0 0 11.238281 15.992188 A 1.250125 1.250125 0 0 0 12.761719 15.992188 A 1.25 1.25 0 0 0 12.884766 15.884766 L 16.884766 11.884766 A 1.25 1.25 0 0 0 16.884766 10.115234 A 1.25 1.25 0 0 0 15.115234 10.115234 L 13.25 11.980469 L 13.25 3 A 1.25 1.25 0 0 0 12 1.75 z M 4 3.75 C 2.2198804 3.75 0.75 5.2198804 0.75 7 L 0.75 17 C 0.75 18.78012 2.2198804 20.25 4 20.25 L 20 20.25 C 21.78012 20.25 23.25 18.78012 23.25 17 L 23.25 7 C 23.25 5.2198804 21.78012 3.75 20 3.75 L 16 3.75 A 1.25 1.25 0 0 0 14.75 5 A 1.25 1.25 0 0 0 16 6.25 L 20 6.25 C 20.429019 6.25 20.75 6.5709806 20.75 7 L 20.75 17 C 20.75 17.429019 20.429019 17.75 20 17.75 L 4 17.75 C 3.5709806 17.75 3.25 17.429019 3.25 17 L 3.25 7 C 3.25 6.5709806 3.5709806 6.25 4 6.25 L 8 6.25 A 1.25 1.25 0 0 0 9.25 5 A 1.25 1.25 0 0 0 8 3.75 L 4 3.75 z " />
</svg>
