<?xml version="1.0" encoding="UTF-8" standalone="no"?>
<svg
   width="24"
   height="24"
   viewBox="0 0 24 24"
   fill="none"
   stroke="currentColor"
   stroke-width="2.5"
   stroke-linecap="round"
   stroke-linejoin="round"
   version="1.1"
   id="svg2"
   sodipodi:docname=".tmp_key.svg"
   xmlns:inkscape="http://www.inkscape.org/namespaces/inkscape"
   xmlns:sodipodi="http://sodipodi.sourceforge.net/DTD/sodipodi-0.dtd"
   xmlns="http://www.w3.org/2000/svg"
   xmlns:svg="http://www.w3.org/2000/svg">
  <defs
     id="defs2" />
  <sodipodi:namedview
     id="namedview2"
     pagecolor="#ffffff"
     bordercolor="#000000"
     borderopacity="0.25"
     inkscape:showpageshadow="2"
     inkscape:pageopacity="0.0"
     inkscape:pagecheckerboard="0"
     inkscape:deskcolor="#d1d1d1" />
  <path
     id="path1"
     style="baseline-shift:baseline;display:inline;overflow:visible;vector-effect:none;fill:#000000;stroke:none;stroke-linecap:butt;stroke-linejoin:miter;enable-background:accumulate;stop-color:#000000;stop-opacity:1;opacity:1"
     d="M 21 0.74804688 A 1.25 1.25 0 0 0 20.115234 1.1152344 L 18.136719 3.09375 A 1.25 1.25 0 0 0 18.134766 3.0957031 A 1.25 1.25 0 0 0 18.115234 3.1152344 A 1.25 1.25 0 0 0 18.09375 3.1367188 L 14.634766 6.5976562 A 1.25 1.25 0 0 0 14.615234 6.6152344 A 1.25 1.25 0 0 0 14.583984 6.6484375 L 11.302734 9.9296875 C 10.218221 9.1857053 8.9073267 8.75 7.5 8.75 C 3.7868837 8.75 0.75 11.786884 0.75 15.5 C 0.75 19.213116 3.7868837 22.25 7.5 22.25 C 11.213116 22.25 14.25 19.213116 14.25 15.5 C 14.25 14.092673 13.814295 12.781779 13.070312 11.697266 L 15.5 9.2675781 L 16.916016 10.683594 A 1.250125 1.250125 0 0 0 16.925781 10.693359 C 17.79075 11.541198 19.20925 11.541198 20.074219 10.693359 A 1.250125 1.250125 0 0 0 20.083984 10.683594 L 22.183594 8.5839844 A 1.250125 1.250125 0 0 0 22.193359 8.5742188 C 23.041198 7.7092503 23.041198 6.2907498 22.193359 5.4257812 A 1.250125 1.250125 0 0 0 22.183594 5.4160156 L 20.769531 4 L 21.884766 2.8847656 A 1.25 1.25 0 0 0 21.884766 1.1152344 A 1.25 1.25 0 0 0 21 0.74804688 z M 19 5.7695312 L 20.232422 7 L 18.5 8.7324219 L 17.269531 7.5 L 19 5.7695312 z M 7.5 11.25 C 9.862016 11.25 11.75 13.137984 11.75 15.5 C 11.75 17.862016 9.862016 19.75 7.5 19.75 C 5.137984 19.75 3.25 17.862016 3.25 15.5 C 3.25 13.137984 5.137984 11.25 7.5 11.25 z " />
</svg>
