<?xml version="1.0" encoding="UTF-8" standalone="no"?>
<svg
   width="24"
   height="24"
   viewBox="0 0 24 24"
   fill="none"
   stroke="currentColor"
   stroke-width="2.5"
   stroke-linecap="round"
   stroke-linejoin="round"
   version="1.1"
   id="svg2"
   sodipodi:docname=".tmp_lectern.svg"
   xmlns:inkscape="http://www.inkscape.org/namespaces/inkscape"
   xmlns:sodipodi="http://sodipodi.sourceforge.net/DTD/sodipodi-0.dtd"
   xmlns="http://www.w3.org/2000/svg"
   xmlns:svg="http://www.w3.org/2000/svg">
  <defs
     id="defs2" />
  <sodipodi:namedview
     id="namedview2"
     pagecolor="#ffffff"
     bordercolor="#000000"
     borderopacity="0.25"
     inkscape:showpageshadow="2"
     inkscape:pageopacity="0.0"
     inkscape:pagecheckerboard="0"
     inkscape:deskcolor="#d1d1d1" />
  <path
     id="path1"
     style="baseline-shift:baseline;display:inline;overflow:visible;vector-effect:none;fill:#000000;stroke:none;stroke-linecap:butt;stroke-linejoin:miter;enable-background:accumulate;stop-color:#000000;stop-opacity:1;opacity:1"
     d="M 14 0.75 A 1.25 1.25 0 0 0 12.75 2 A 1.25 1.25 0 0 0 14 3.25 L 16.75 3.25 L 16.75 4.75 L 3 4.75 C 1.5270683 4.7498978 0.42101859 6.235518 0.84375 7.6464844 A 1.250125 1.250125 0 0 0 0.84960938 7.6640625 L 1.90625 10.998047 A 1.250125 1.250125 0 0 0 1.9101562 11.009766 C 2.345384 12.342195 3.5982878 13.250598 5 13.25 L 6.75 13.25 L 6.75 21 C 6.75 22.224878 7.7751215 23.25 9 23.25 L 15 23.25 C 16.224878 23.25 17.25 22.224878 17.25 21 L 17.25 13.25 L 19 13.25 C 20.40214 13.250369 21.65518 12.340877 22.089844 11.007812 A 1.250125 1.250125 0 0 0 22.09375 10.998047 L 23.150391 7.6640625 A 1.250125 1.250125 0 0 0 23.15625 7.6464844 C 23.578946 6.2355519 22.472932 4.7498978 21 4.75 L 19.25 4.75 L 19.25 3 C 19.25 1.7721651 18.227835 0.75 17 0.75 L 14 0.75 z M 3.3417969 7.25 L 20.658203 7.25 L 19.712891 10.232422 C 19.610705 10.545813 19.32963 10.750087 19 10.75 L 17.236328 10.75 C 17.108479 9.6387622 16.140507 8.75 15 8.75 L 9 8.75 C 7.8594925 8.75 6.891521 9.6387622 6.7636719 10.75 L 5 10.75 C 4.6704774 10.750141 4.3894261 10.545657 4.2871094 10.232422 L 4.2890625 10.244141 L 3.3417969 7.25 z M 9.25 11.25 L 14.75 11.25 L 14.75 12 L 14.75 20.75 L 9.25 20.75 L 9.25 12 L 9.25 11.25 z " />
</svg>
