<?xml version="1.0" encoding="UTF-8" standalone="no"?>
<svg
   width="24"
   height="24"
   viewBox="0 0 24 24"
   fill="none"
   stroke="currentColor"
   stroke-width="2.5"
   stroke-linecap="round"
   stroke-linejoin="round"
   version="1.1"
   id="svg5"
   sodipodi:docname=".tmp_list-x.svg"
   xmlns:inkscape="http://www.inkscape.org/namespaces/inkscape"
   xmlns:sodipodi="http://sodipodi.sourceforge.net/DTD/sodipodi-0.dtd"
   xmlns="http://www.w3.org/2000/svg"
   xmlns:svg="http://www.w3.org/2000/svg">
  <defs
     id="defs5" />
  <sodipodi:namedview
     id="namedview5"
     pagecolor="#ffffff"
     bordercolor="#000000"
     borderopacity="0.25"
     inkscape:showpageshadow="2"
     inkscape:pageopacity="0.0"
     inkscape:pagecheckerboard="0"
     inkscape:deskcolor="#d1d1d1" />
  <path
     id="path1"
     style="baseline-shift:baseline;display:inline;overflow:visible;vector-effect:none;fill:#000000;stroke:none;stroke-linecap:butt;stroke-linejoin:miter;enable-background:accumulate;stop-color:#000000;stop-opacity:1;opacity:1"
     d="M 3 3.75 A 1.25 1.25 0 0 0 1.75 5 A 1.25 1.25 0 0 0 3 6.25 L 16 6.25 A 1.25 1.25 0 0 0 17.25 5 A 1.25 1.25 0 0 0 16 3.75 L 3 3.75 z M 15.5 8.2480469 A 1.25 1.25 0 0 0 14.615234 8.6152344 A 1.25 1.25 0 0 0 14.615234 10.384766 L 16.230469 12 L 14.615234 13.615234 A 1.25 1.25 0 0 0 14.615234 15.384766 A 1.25 1.25 0 0 0 16.384766 15.384766 L 18 13.769531 L 19.615234 15.384766 A 1.25 1.25 0 0 0 21.384766 15.384766 A 1.25 1.25 0 0 0 21.384766 13.615234 L 19.769531 12 L 21.384766 10.384766 A 1.25 1.25 0 0 0 21.384766 8.6152344 A 1.25 1.25 0 0 0 19.615234 8.6152344 L 18 10.230469 L 16.384766 8.6152344 A 1.25 1.25 0 0 0 15.5 8.2480469 z M 3 10.75 A 1.25 1.25 0 0 0 1.75 12 A 1.25 1.25 0 0 0 3 13.25 L 11 13.25 A 1.25 1.25 0 0 0 12.25 12 A 1.25 1.25 0 0 0 11 10.75 L 3 10.75 z M 3 17.75 A 1.25 1.25 0 0 0 1.75 19 A 1.25 1.25 0 0 0 3 20.25 L 16 20.25 A 1.25 1.25 0 0 0 17.25 19 A 1.25 1.25 0 0 0 16 17.75 L 3 17.75 z " />
</svg>
