<?xml version="1.0" encoding="UTF-8" standalone="no"?>
<svg
   width="24"
   height="24"
   viewBox="0 0 24 24"
   fill="none"
   stroke="currentColor"
   stroke-width="2.5"
   stroke-linecap="round"
   stroke-linejoin="round"
   version="1.1"
   id="svg3"
   sodipodi:docname=".tmp_list-filter.svg"
   xmlns:inkscape="http://www.inkscape.org/namespaces/inkscape"
   xmlns:sodipodi="http://sodipodi.sourceforge.net/DTD/sodipodi-0.dtd"
   xmlns="http://www.w3.org/2000/svg"
   xmlns:svg="http://www.w3.org/2000/svg">
  <defs
     id="defs3" />
  <sodipodi:namedview
     id="namedview3"
     pagecolor="#ffffff"
     bordercolor="#000000"
     borderopacity="0.25"
     inkscape:showpageshadow="2"
     inkscape:pageopacity="0.0"
     inkscape:pagecheckerboard="0"
     inkscape:deskcolor="#d1d1d1" />
  <path
     id="path1"
     style="baseline-shift:baseline;display:inline;overflow:visible;vector-effect:none;fill:#000000;stroke:none;stroke-linecap:butt;stroke-linejoin:miter;enable-background:accumulate;stop-color:#000000;stop-opacity:1;opacity:1"
     d="M 2 3.75 A 1.25 1.25 0 0 0 0.75 5 A 1.25 1.25 0 0 0 2 6.25 L 22 6.25 A 1.25 1.25 0 0 0 23.25 5 A 1.25 1.25 0 0 0 22 3.75 L 2 3.75 z M 6 10.75 A 1.25 1.25 0 0 0 4.75 12 A 1.25 1.25 0 0 0 6 13.25 L 18 13.25 A 1.25 1.25 0 0 0 19.25 12 A 1.25 1.25 0 0 0 18 10.75 L 6 10.75 z M 9 17.75 A 1.25 1.25 0 0 0 7.75 19 A 1.25 1.25 0 0 0 9 20.25 L 15 20.25 A 1.25 1.25 0 0 0 16.25 19 A 1.25 1.25 0 0 0 15 17.75 L 9 17.75 z " />
</svg>
