<?xml version="1.0" encoding="UTF-8" standalone="no"?>
<svg
   width="24"
   height="24"
   viewBox="0 0 24 24"
   fill="none"
   stroke="currentColor"
   stroke-width="2.5"
   stroke-linecap="round"
   stroke-linejoin="round"
   version="1.1"
   id="svg7"
   sodipodi:docname=".tmp_locate-off.svg"
   xmlns:inkscape="http://www.inkscape.org/namespaces/inkscape"
   xmlns:sodipodi="http://sodipodi.sourceforge.net/DTD/sodipodi-0.dtd"
   xmlns="http://www.w3.org/2000/svg"
   xmlns:svg="http://www.w3.org/2000/svg">
  <defs
     id="defs7" />
  <sodipodi:namedview
     id="namedview7"
     pagecolor="#ffffff"
     bordercolor="#000000"
     borderopacity="0.25"
     inkscape:showpageshadow="2"
     inkscape:pageopacity="0.0"
     inkscape:pagecheckerboard="0"
     inkscape:deskcolor="#d1d1d1" />
  <path
     id="path1"
     style="baseline-shift:baseline;display:inline;overflow:visible;vector-effect:none;fill:#000000;stroke:none;stroke-linecap:butt;stroke-linejoin:miter;enable-background:accumulate;stop-color:#000000;stop-opacity:1;opacity:1"
     d="M 2 0.74804688 A 1.25 1.25 0 0 0 1.1152344 1.1152344 A 1.25 1.25 0 0 0 1.1152344 2.8847656 L 5.3476562 7.1171875 C 4.5449289 8.2109521 4.046826 9.4619008 3.8515625 10.75 L 2 10.75 A 1.25 1.25 0 0 0 0.75 12 A 1.25 1.25 0 0 0 2 13.25 L 3.8515625 13.25 C 4.1062647 14.9302 4.8777357 16.545705 6.1660156 17.833984 C 7.4542955 19.122264 9.0698004 19.893735 10.75 20.148438 L 10.75 22 A 1.25 1.25 0 0 0 12 23.25 A 1.25 1.25 0 0 0 13.25 22 L 13.25 20.148438 C 14.538099 19.953174 15.789048 19.455071 16.882812 18.652344 L 21.115234 22.884766 A 1.25 1.25 0 0 0 22.884766 22.884766 A 1.25 1.25 0 0 0 22.884766 21.115234 L 17.833984 16.066406 L 7.9335938 6.1660156 L 2.8847656 1.1152344 A 1.25 1.25 0 0 0 2 0.74804688 z M 12 0.75 A 1.25 1.25 0 0 0 10.75 2 L 10.75 3.84375 C 10.679803 3.8545634 10.609487 3.8662214 10.539062 3.8789062 A 1.25 1.25 0 0 0 9.5292969 5.3320312 A 1.25 1.25 0 0 0 10.982422 6.3398438 C 11.291106 6.2842441 11.596346 6.253803 11.896484 6.2460938 A 1.25 1.25 0 0 0 12 6.25 A 1.25 1.25 0 0 0 12.119141 6.2441406 C 15.21632 6.2828359 17.717166 8.7836792 17.755859 11.880859 A 1.25 1.25 0 0 0 17.75 12 A 1.25 1.25 0 0 0 17.753906 12.103516 C 17.746197 12.403655 17.715756 12.708893 17.660156 13.017578 A 1.25 1.25 0 0 0 18.667969 14.470703 A 1.25 1.25 0 0 0 20.121094 13.460938 C 20.133777 13.39052 20.145435 13.320204 20.15625 13.25 L 22 13.25 A 1.25 1.25 0 0 0 23.25 12 A 1.25 1.25 0 0 0 22 10.75 L 20.15625 10.75 C 19.606643 7.2288899 16.77106 4.3934575 13.25 3.84375 L 13.25 2 A 1.25 1.25 0 0 0 12 0.75 z M 7.1445312 8.9140625 L 15.085938 16.855469 C 14.184317 17.432587 13.161681 17.734157 12.132812 17.757812 A 1.25 1.25 0 0 0 12 17.75 A 1.25 1.25 0 0 0 11.867188 17.757812 C 10.442296 17.725051 9.027884 17.160696 7.9335938 16.066406 C 6.839304 14.972117 6.2749489 13.557703 6.2421875 12.132812 A 1.25 1.25 0 0 0 6.25 12 A 1.25 1.25 0 0 0 6.2421875 11.867188 C 6.2658434 10.83832 6.5674131 9.815683 7.1445312 8.9140625 z " />
</svg>
