<?xml version="1.0" encoding="UTF-8" standalone="no"?>
<svg
   width="24"
   height="24"
   viewBox="0 0 24 24"
   fill="none"
   stroke="currentColor"
   stroke-width="2.5"
   stroke-linecap="round"
   stroke-linejoin="round"
   version="1.1"
   id="svg4"
   sodipodi:docname=".tmp_luggage.svg"
   xmlns:inkscape="http://www.inkscape.org/namespaces/inkscape"
   xmlns:sodipodi="http://sodipodi.sourceforge.net/DTD/sodipodi-0.dtd"
   xmlns="http://www.w3.org/2000/svg"
   xmlns:svg="http://www.w3.org/2000/svg">
  <defs
     id="defs4" />
  <sodipodi:namedview
     id="namedview4"
     pagecolor="#ffffff"
     bordercolor="#000000"
     borderopacity="0.25"
     inkscape:showpageshadow="2"
     inkscape:pageopacity="0.0"
     inkscape:pagecheckerboard="0"
     inkscape:deskcolor="#d1d1d1" />
  <path
     id="path1"
     style="baseline-shift:baseline;display:inline;overflow:visible;vector-effect:none;fill:#000000;stroke:none;stroke-linecap:butt;stroke-linejoin:miter;enable-background:accumulate;stop-color:#000000;stop-opacity:1;opacity:1"
     d="M 10 0.75 C 8.2198804 0.75 6.75 2.2198804 6.75 4 L 6.75 4.75 L 6 4.75 C 4.2198804 4.75 2.75 6.2198804 2.75 8 L 2.75 18 C 2.75 19.407231 3.6693357 20.619823 4.9335938 21.066406 C 5.3801767 22.330664 6.5927687 23.25 8 23.25 C 9.3384508 23.25 10.501349 22.419024 10.996094 21.25 L 13.003906 21.25 C 13.49865 22.419024 14.661549 23.25 16 23.25 C 17.407232 23.25 18.619823 22.330664 19.066406 21.066406 C 20.330664 20.619823 21.25 19.407232 21.25 18 L 21.25 8 C 21.25 6.2198804 19.78012 4.75 18 4.75 L 17.25 4.75 L 17.25 4 C 17.25 2.2198804 15.78012 0.75 14 0.75 L 10 0.75 z M 10 3.25 L 14 3.25 C 14.429019 3.25 14.75 3.5709806 14.75 4 L 14.75 4.75 L 9.25 4.75 L 9.25 4 C 9.25 3.5709806 9.5709806 3.25 10 3.25 z M 6 7.25 L 6.75 7.25 L 6.75 17.003906 C 6.1493057 17.258127 5.6385084 17.688254 5.2832031 18.228516 C 5.2619653 18.156967 5.25 18.080584 5.25 18 L 5.25 8 C 5.25 7.5709806 5.5709806 7.25 6 7.25 z M 9.25 7.25 L 14.75 7.25 L 14.75 17.003906 C 13.966736 17.335392 13.335392 17.966736 13.003906 18.75 L 10.996094 18.75 C 10.664608 17.966736 10.033264 17.335392 9.25 17.003906 L 9.25 7.25 z M 17.25 7.25 L 18 7.25 C 18.429019 7.25 18.75 7.5709806 18.75 8 L 18.75 18 C 18.75 18.080583 18.738035 18.156967 18.716797 18.228516 C 18.361492 17.688254 17.850694 17.258127 17.25 17.003906 L 17.25 7.25 z M 8 19.25 C 8.4290194 19.25 8.75 19.570981 8.75 20 C 8.75 20.429019 8.4290194 20.75 8 20.75 C 7.5709822 20.75 7.2500024 20.429017 7.25 20 C 7.25 19.570981 7.5709806 19.25 8 19.25 z M 16 19.25 C 16.429019 19.25 16.75 19.570981 16.75 20 C 16.75 20.429019 16.429019 20.75 16 20.75 C 15.570981 20.75 15.25 20.429019 15.25 20 C 15.25 19.570981 15.570981 19.25 16 19.25 z " />
</svg>
