<?xml version="1.0" encoding="UTF-8" standalone="no"?>
<svg
   width="24"
   height="24"
   viewBox="0 0 24 24"
   fill="none"
   stroke="currentColor"
   stroke-width="2.5"
   stroke-linecap="round"
   stroke-linejoin="round"
   version="1.1"
   id="svg2"
   sodipodi:docname=".tmp_map-pin-pen.svg"
   xmlns:inkscape="http://www.inkscape.org/namespaces/inkscape"
   xmlns:sodipodi="http://sodipodi.sourceforge.net/DTD/sodipodi-0.dtd"
   xmlns="http://www.w3.org/2000/svg"
   xmlns:svg="http://www.w3.org/2000/svg">
  <defs
     id="defs2" />
  <sodipodi:namedview
     id="namedview2"
     pagecolor="#ffffff"
     bordercolor="#000000"
     borderopacity="0.25"
     inkscape:showpageshadow="2"
     inkscape:pageopacity="0.0"
     inkscape:pagecheckerboard="0"
     inkscape:deskcolor="#d1d1d1" />
  <path
     id="path1"
     style="baseline-shift:baseline;display:inline;overflow:visible;vector-effect:none;fill:#000000;stroke:none;stroke-linecap:butt;stroke-linejoin:miter;enable-background:accumulate;stop-color:#000000;stop-opacity:1;opacity:1"
     d="M 9.5976562 0.75585938 C 4.6615405 0.97098376 0.74762834 5.0591967 0.75 10 C 0.75 12.779168 2.1308578 15.359089 3.7011719 17.513672 C 5.2714859 19.668255 7.0807011 21.410563 8.1894531 22.400391 A 1.25 1.25 0 0 0 9.9550781 22.300781 A 1.25 1.25 0 0 0 9.8535156 20.535156 C 8.8272676 19.618984 7.1276391 17.971432 5.7207031 16.041016 C 4.3137672 14.110599 3.25 11.910832 3.25 10 C 3.2482586 6.3722031 6.0826757 3.4099088 9.7070312 3.2519531 C 13.331387 3.0939975 16.410732 5.7979159 16.724609 9.4121094 A 1.25 1.25 0 0 0 18.078125 10.548828 A 1.25 1.25 0 0 0 19.214844 9.1953125 C 18.787365 4.2730361 14.533772 0.54073499 9.5976562 0.75585938 z M 10 5.75 C 7.6675956 5.75 5.75 7.6675956 5.75 10 C 5.75 12.332404 7.6675956 14.25 10 14.25 C 12.332404 14.25 14.25 12.332404 14.25 10 C 14.25 7.6675956 12.332404 5.75 10 5.75 z M 10 8.25 C 10.981304 8.25 11.75 9.0186959 11.75 10 C 11.75 10.981304 10.981304 11.75 10 11.75 C 9.0186959 11.75 8.25 10.981304 8.25 10 C 8.25 9.0186959 9.0186959 8.25 10 8.25 z M 19.710938 11.716797 C 18.931317 11.759393 18.121668 12.106849 17.490234 12.738281 L 13.480469 16.75 C 13.094157 17.136099 12.811297 17.612437 12.658203 18.136719 A 1.250125 1.250125 0 0 0 12.658203 18.138672 L 11.820312 21.007812 C 11.452087 22.270297 12.727751 23.545959 13.990234 23.177734 L 16.861328 22.341797 C 17.385064 22.188862 17.86216 21.905225 18.248047 21.519531 L 22.261719 17.509766 C 22.983356 16.788128 23.334744 15.833222 23.283203 14.957031 C 23.231663 14.080841 22.833637 13.3102 22.261719 12.738281 C 21.6898 12.166363 20.919159 11.768338 20.042969 11.716797 C 19.933445 11.710354 19.822312 11.710712 19.710938 11.716797 z M 19.826172 14.210938 C 19.849367 14.210783 19.873019 14.21151 19.896484 14.212891 C 20.08421 14.223931 20.315059 14.326778 20.494141 14.505859 C 20.673222 14.684941 20.776067 14.91579 20.787109 15.103516 C 20.798149 15.291241 20.773839 15.462492 20.494141 15.742188 L 16.482422 19.75 A 1.250125 1.250125 0 0 0 16.480469 19.751953 C 16.391329 19.841143 16.281205 19.906059 16.160156 19.941406 L 14.603516 20.394531 L 15.058594 18.837891 C 15.093944 18.716842 15.158853 18.606723 15.248047 18.517578 L 19.257812 14.505859 C 19.502547 14.261126 19.663808 14.212018 19.826172 14.210938 z " />
</svg>
