<?xml version="1.0" encoding="UTF-8" standalone="no"?>
<svg
   width="24"
   height="24"
   viewBox="0 0 24 24"
   fill="none"
   stroke="currentColor"
   stroke-width="2.5"
   stroke-linecap="round"
   stroke-linejoin="round"
   version="1.1"
   id="svg3"
   sodipodi:docname=".tmp_message-square-reply.svg"
   xmlns:inkscape="http://www.inkscape.org/namespaces/inkscape"
   xmlns:sodipodi="http://sodipodi.sourceforge.net/DTD/sodipodi-0.dtd"
   xmlns="http://www.w3.org/2000/svg"
   xmlns:svg="http://www.w3.org/2000/svg">
  <defs
     id="defs3" />
  <sodipodi:namedview
     id="namedview3"
     pagecolor="#ffffff"
     bordercolor="#000000"
     borderopacity="0.25"
     inkscape:showpageshadow="2"
     inkscape:pageopacity="0.0"
     inkscape:pagecheckerboard="0"
     inkscape:deskcolor="#d1d1d1" />
  <path
     id="path1"
     style="baseline-shift:baseline;display:inline;overflow:visible;vector-effect:none;fill:#000000;stroke:none;stroke-linecap:butt;stroke-linejoin:miter;enable-background:accumulate;stop-color:#000000;stop-opacity:1;opacity:1"
     d="M 4 1.75 C 2.2198804 1.75 0.75 3.2198804 0.75 5 L 0.75 21.285156 A 1.250125 1.250125 0 0 0 0.75 21.287109 C 0.75010581 22.107068 1.2933336 22.82114 1.9609375 23.097656 C 2.6285414 23.374172 3.5158519 23.25162 4.0957031 22.671875 L 6.2988281 20.470703 C 6.4397871 20.329655 6.6287488 20.250043 6.828125 20.25 L 20 20.25 C 21.78012 20.25 23.25 18.78012 23.25 17 L 23.25 5 C 23.25 3.2198804 21.78012 1.75 20 1.75 L 4 1.75 z M 4 4.25 L 20 4.25 C 20.429019 4.25 20.75 4.5709806 20.75 5 L 20.75 17 C 20.75 17.429019 20.429019 17.75 20 17.75 L 6.828125 17.75 C 5.9667219 17.750184 5.1383089 18.093929 4.5292969 18.703125 L 3.25 19.982422 L 3.25 5 C 3.25 4.5709806 3.5709806 4.25 4 4.25 z M 10 6.7480469 A 1.25 1.25 0 0 0 9.1152344 7.1152344 L 6.1152344 10.115234 A 1.250125 1.250125 0 0 0 6.0078125 10.238281 A 1.250125 1.250125 0 0 0 5.7597656 10.835938 A 1.250125 1.250125 0 0 0 5.7597656 11.164062 A 1.250125 1.250125 0 0 0 6.0078125 11.761719 A 1.250125 1.250125 0 0 0 6.1152344 11.884766 L 9.1152344 14.884766 A 1.25 1.25 0 0 0 10.884766 14.884766 A 1.25 1.25 0 0 0 10.884766 13.115234 L 10.019531 12.25 L 15 12.25 C 15.429019 12.25 15.75 12.570981 15.75 13 L 15.75 14 A 1.25 1.25 0 0 0 17 15.25 A 1.25 1.25 0 0 0 18.25 14 L 18.25 13 C 18.25 11.21988 16.78012 9.75 15 9.75 L 10.019531 9.75 L 10.884766 8.8847656 A 1.25 1.25 0 0 0 10.884766 7.1152344 A 1.25 1.25 0 0 0 10 6.7480469 z " />
</svg>
