<?xml version="1.0" encoding="UTF-8" standalone="no"?>
<svg
   width="24"
   height="24"
   viewBox="0 0 24 24"
   fill="none"
   stroke="currentColor"
   stroke-width="2.5"
   stroke-linecap="round"
   stroke-linejoin="round"
   version="1.1"
   id="svg8"
   sodipodi:docname=".tmp_message-circle-dashed.svg"
   xmlns:inkscape="http://www.inkscape.org/namespaces/inkscape"
   xmlns:sodipodi="http://sodipodi.sourceforge.net/DTD/sodipodi-0.dtd"
   xmlns="http://www.w3.org/2000/svg"
   xmlns:svg="http://www.w3.org/2000/svg">
  <defs
     id="defs8" />
  <sodipodi:namedview
     id="namedview8"
     pagecolor="#ffffff"
     bordercolor="#000000"
     borderopacity="0.25"
     inkscape:showpageshadow="2"
     inkscape:pageopacity="0.0"
     inkscape:pagecheckerboard="0"
     inkscape:deskcolor="#d1d1d1" />
  <path
     id="path1"
     style="baseline-shift:baseline;display:inline;overflow:visible;vector-effect:none;fill:#000000;stroke:none;stroke-linecap:butt;stroke-linejoin:miter;enable-background:accumulate;stop-color:#000000;stop-opacity:1;opacity:1"
     d="M 12 0.75 C 11.284613 0.75 10.569226 0.81846006 9.8632812 0.95507812 A 1.25 1.25 0 0 0 8.8730469 2.4199219 A 1.25 1.25 0 0 0 10.337891 3.4101562 C 11.43605 3.1976348 12.56395 3.1976348 13.662109 3.4101562 A 1.25 1.25 0 0 0 15.126953 2.4199219 A 1.25 1.25 0 0 0 14.136719 0.95507812 C 13.430774 0.81846006 12.715387 0.75 12 0.75 z M 6.5 2.453125 A 1.25 1.25 0 0 0 5.7246094 2.6640625 C 4.5274729 3.4687446 3.4946655 4.4953107 2.6855469 5.6894531 A 1.25 1.25 0 0 0 3.0195312 7.4257812 A 1.25 1.25 0 0 0 4.7558594 7.0917969 C 5.3851873 6.1629996 6.1880146 5.3641585 7.1191406 4.7382812 A 1.25 1.25 0 0 0 7.4589844 3.0039062 A 1.25 1.25 0 0 0 6.5 2.453125 z M 17.535156 2.4726562 A 1.25 1.25 0 0 0 16.574219 3.0195312 A 1.25 1.25 0 0 0 16.908203 4.7539062 C 17.837 5.3832343 18.635842 6.1860615 19.261719 7.1171875 A 1.25 1.25 0 0 0 20.996094 7.4570312 A 1.25 1.25 0 0 0 21.335938 5.7226562 C 20.531256 4.5255198 19.504689 3.4946655 18.310547 2.6855469 A 1.25 1.25 0 0 0 17.535156 2.4726562 z M 2.09375 8.8535156 A 1.25 1.25 0 0 0 0.95507812 9.8632812 C 0.68184199 11.27517 0.68184199 12.72483 0.95507812 14.136719 A 1.25 1.25 0 0 0 2.4199219 15.126953 A 1.25 1.25 0 0 0 3.4101562 13.662109 C 3.1976348 12.56395 3.1976348 11.43605 3.4101562 10.337891 A 1.25 1.25 0 0 0 2.4199219 8.8730469 A 1.25 1.25 0 0 0 2.09375 8.8535156 z M 21.742188 8.8535156 A 1.25 1.25 0 0 0 21.580078 8.8730469 A 1.25 1.25 0 0 0 20.589844 10.337891 C 20.802365 11.43605 20.802365 12.56395 20.589844 13.662109 A 1.25 1.25 0 0 0 21.580078 15.126953 A 1.25 1.25 0 0 0 23.044922 14.136719 C 23.318158 12.72483 23.318158 11.27517 23.044922 9.8632812 A 1.25 1.25 0 0 0 21.742188 8.8535156 z M 20.207031 16.363281 A 1.25 1.25 0 0 0 20.044922 16.382812 A 1.25 1.25 0 0 0 19.246094 16.908203 C 18.616766 17.837 17.813938 18.635842 16.882812 19.261719 A 1.25 1.25 0 0 0 16.542969 20.998047 A 1.25 1.25 0 0 0 18.277344 21.337891 C 19.47448 20.533209 20.505334 19.504689 21.314453 18.310547 A 1.25 1.25 0 0 0 20.980469 16.574219 A 1.25 1.25 0 0 0 20.207031 16.363281 z M 3.0507812 16.570312 A 1.25 1.25 0 0 0 1.796875 17.433594 L 0.83203125 20.412109 A 1.250125 1.250125 0 0 0 0.796875 20.544922 C 0.46874606 22.131623 2.0121526 23.591739 3.578125 23.175781 A 1.250125 1.250125 0 0 0 3.6074219 23.166016 L 6.5136719 22.316406 A 1.25 1.25 0 0 0 7.3632812 20.765625 A 1.25 1.25 0 0 0 5.8125 19.917969 L 3.390625 20.625 L 4.1757812 18.203125 A 1.25 1.25 0 0 0 3.3710938 16.628906 A 1.25 1.25 0 0 0 3.0507812 16.570312 z M 10.011719 20.570312 A 1.25 1.25 0 0 0 8.8730469 21.580078 A 1.25 1.25 0 0 0 9.8632812 23.044922 C 11.27517 23.318158 12.72483 23.318158 14.136719 23.044922 A 1.25 1.25 0 0 0 15.126953 21.580078 A 1.25 1.25 0 0 0 13.662109 20.589844 C 12.56395 20.802365 11.43605 20.802365 10.337891 20.589844 A 1.25 1.25 0 0 0 10.011719 20.570312 z " />
</svg>
