<?xml version="1.0" encoding="UTF-8" standalone="no"?>
<svg
   width="24"
   height="24"
   viewBox="0 0 24 24"
   fill="none"
   stroke="currentColor"
   stroke-width="2.5"
   stroke-linecap="round"
   stroke-linejoin="round"
   version="1.1"
   id="svg3"
   sodipodi:docname=".tmp_milestone.svg"
   xmlns:inkscape="http://www.inkscape.org/namespaces/inkscape"
   xmlns:sodipodi="http://sodipodi.sourceforge.net/DTD/sodipodi-0.dtd"
   xmlns="http://www.w3.org/2000/svg"
   xmlns:svg="http://www.w3.org/2000/svg">
  <defs
     id="defs3" />
  <sodipodi:namedview
     id="namedview3"
     pagecolor="#ffffff"
     bordercolor="#000000"
     borderopacity="0.25"
     inkscape:showpageshadow="2"
     inkscape:pageopacity="0.0"
     inkscape:pagecheckerboard="0"
     inkscape:deskcolor="#d1d1d1" />
  <path
     id="path1"
     style="baseline-shift:baseline;display:inline;overflow:visible;vector-effect:none;fill:#000000;stroke:none;stroke-linecap:butt;stroke-linejoin:miter;enable-background:accumulate;stop-color:#000000;stop-opacity:1;opacity:1"
     d="M 12 1.75 A 1.25 1.25 0 0 0 10.75 3 L 10.75 4.75 L 4 4.75 C 2.7721651 4.75 1.75 5.7721651 1.75 7 L 1.75 12 C 1.75 13.227835 2.7721651 14.25 4 14.25 L 10.75 14.25 L 10.75 21 A 1.25 1.25 0 0 0 12 22.25 A 1.25 1.25 0 0 0 13.25 21 L 13.25 14.25 L 17 14.25 C 17.67009 14.250048 18.323295 14.042174 18.871094 13.65625 L 18.853516 13.669922 L 22.277344 11.353516 A 1.250125 1.250125 0 0 0 22.296875 11.339844 C 23.537313 10.465956 23.537313 8.5340444 22.296875 7.6601562 A 1.250125 1.250125 0 0 0 22.277344 7.6484375 L 18.853516 5.3300781 L 18.871094 5.34375 C 18.323295 4.9578258 17.67009 4.7499522 17 4.75 L 13.25 4.75 L 13.25 3 A 1.25 1.25 0 0 0 12 1.75 z M 4.25 7.25 L 12 7.25 L 17 7.25 C 17.154809 7.2499889 17.305084 7.2975601 17.431641 7.3867188 A 1.250125 1.250125 0 0 0 17.451172 7.4003906 L 20.552734 9.5 L 17.451172 11.599609 A 1.250125 1.250125 0 0 0 17.431641 11.613281 C 17.305083 11.702442 17.154809 11.750011 17 11.75 L 12 11.75 L 4.25 11.75 L 4.25 7.25 z " />
</svg>
