<?xml version="1.0" encoding="UTF-8" standalone="no"?>
<svg
   width="24"
   height="24"
   viewBox="0 0 24 24"
   fill="none"
   stroke="currentColor"
   stroke-width="2.5"
   stroke-linecap="round"
   stroke-linejoin="round"
   version="1.1"
   id="svg1"
   sodipodi:docname=".tmp_mouse-pointer-2.svg"
   xmlns:inkscape="http://www.inkscape.org/namespaces/inkscape"
   xmlns:sodipodi="http://sodipodi.sourceforge.net/DTD/sodipodi-0.dtd"
   xmlns="http://www.w3.org/2000/svg"
   xmlns:svg="http://www.w3.org/2000/svg">
  <defs
     id="defs1" />
  <sodipodi:namedview
     id="namedview1"
     pagecolor="#ffffff"
     bordercolor="#000000"
     borderopacity="0.25"
     inkscape:showpageshadow="2"
     inkscape:pageopacity="0.0"
     inkscape:pagecheckerboard="0"
     inkscape:deskcolor="#d1d1d1" />
  <path
     id="path1"
     style="baseline-shift:baseline;display:inline;overflow:visible;vector-effect:none;fill:#000000;stroke:none;stroke-linecap:butt;stroke-linejoin:miter;enable-background:accumulate;stop-color:#000000;stop-opacity:1;opacity:1"
     d="M 4.4003906 2.7578125 C 4.3127984 2.7633875 4.2257042 2.7752357 4.140625 2.7929688 C 3.8003082 2.8639008 3.4873205 3.0283045 3.2578125 3.2578125 C 2.7987964 3.7168286 2.5986493 4.5117157 2.890625 5.1855469 L 9.3789062 21.158203 A 1.250125 1.250125 0 0 0 9.3789062 21.160156 C 9.6699869 21.874619 10.440173 22.291003 11.115234 22.246094 C 11.790296 22.201184 12.499486 21.686178 12.693359 20.939453 A 1.250125 1.250125 0 0 0 12.695312 20.9375 L 14.273438 14.8125 L 14.273438 14.810547 C 14.342837 14.545034 14.546617 14.343744 14.8125 14.275391 A 1.250125 1.250125 0 0 0 14.8125 14.273438 L 20.9375 12.695312 A 1.250125 1.250125 0 0 0 20.939453 12.693359 C 21.686178 12.499486 22.201185 11.790296 22.246094 11.115234 C 22.291004 10.440173 21.874619 9.6699868 21.160156 9.3789062 A 1.250125 1.250125 0 0 0 21.158203 9.3789062 L 5.1855469 2.890625 C 4.9328602 2.7811341 4.6631674 2.7410876 4.4003906 2.7578125 z M 5.8652344 5.8652344 L 18.113281 10.841797 L 14.189453 11.853516 C 13.046477 12.147353 12.14974 13.043187 11.853516 14.185547 A 1.250125 1.250125 0 0 0 11.853516 14.1875 L 10.839844 18.113281 L 5.8652344 5.8652344 z " />
</svg>
