<?xml version="1.0" encoding="UTF-8" standalone="no"?>
<svg
   width="24"
   height="24"
   viewBox="0 0 24 24"
   fill="none"
   stroke="currentColor"
   stroke-width="2.5"
   stroke-linecap="round"
   stroke-linejoin="round"
   version="1.1"
   id="svg3"
   sodipodi:docname=".tmp_move-horizontal.svg"
   xmlns:inkscape="http://www.inkscape.org/namespaces/inkscape"
   xmlns:sodipodi="http://sodipodi.sourceforge.net/DTD/sodipodi-0.dtd"
   xmlns="http://www.w3.org/2000/svg"
   xmlns:svg="http://www.w3.org/2000/svg">
  <defs
     id="defs3" />
  <sodipodi:namedview
     id="namedview3"
     pagecolor="#ffffff"
     bordercolor="#000000"
     borderopacity="0.25"
     inkscape:showpageshadow="2"
     inkscape:pageopacity="0.0"
     inkscape:pagecheckerboard="0"
     inkscape:deskcolor="#d1d1d1" />
  <path
     id="path1"
     style="baseline-shift:baseline;display:inline;overflow:visible;vector-effect:none;fill:#000000;stroke:none;stroke-linecap:butt;stroke-linejoin:miter;enable-background:accumulate;stop-color:#000000;stop-opacity:1;opacity:1"
     d="M 6 6.7480469 A 1.25 1.25 0 0 0 5.1152344 7.1152344 L 1.1152344 11.115234 A 1.25 1.25 0 0 0 1.0078125 11.238281 A 1.250125 1.250125 0 0 0 0.75976562 11.835938 A 1.250125 1.250125 0 0 0 0.75976562 12.164062 A 1.250125 1.250125 0 0 0 1.0078125 12.761719 A 1.25 1.25 0 0 0 1.1152344 12.884766 L 5.1152344 16.884766 A 1.25 1.25 0 0 0 6.8847656 16.884766 A 1.25 1.25 0 0 0 6.8847656 15.115234 L 5.0195312 13.25 L 18.980469 13.25 L 17.115234 15.115234 A 1.25 1.25 0 0 0 17.115234 16.884766 A 1.25 1.25 0 0 0 18.884766 16.884766 L 22.884766 12.884766 A 1.250125 1.250125 0 0 0 22.884766 11.115234 L 18.884766 7.1152344 A 1.25 1.25 0 0 0 17.115234 7.1152344 A 1.25 1.25 0 0 0 17.115234 8.8847656 L 18.980469 10.75 L 5.0195312 10.75 L 6.8847656 8.8847656 A 1.25 1.25 0 0 0 6.8847656 7.1152344 A 1.25 1.25 0 0 0 6 6.7480469 z " />
</svg>
