<?xml version="1.0" encoding="UTF-8" standalone="no"?>
<svg
   width="24"
   height="24"
   viewBox="0 0 24 24"
   fill="none"
   stroke="currentColor"
   stroke-width="2.5"
   stroke-linecap="round"
   stroke-linejoin="round"
   version="1.1"
   id="svg3"
   sodipodi:docname=".tmp_non-binary.svg"
   xmlns:inkscape="http://www.inkscape.org/namespaces/inkscape"
   xmlns:sodipodi="http://sodipodi.sourceforge.net/DTD/sodipodi-0.dtd"
   xmlns="http://www.w3.org/2000/svg"
   xmlns:svg="http://www.w3.org/2000/svg">
  <defs
     id="defs3" />
  <sodipodi:namedview
     id="namedview3"
     pagecolor="#ffffff"
     bordercolor="#000000"
     borderopacity="0.25"
     inkscape:showpageshadow="2"
     inkscape:pageopacity="0.0"
     inkscape:pagecheckerboard="0"
     inkscape:deskcolor="#d1d1d1" />
  <path
     id="path1"
     style="baseline-shift:baseline;display:inline;overflow:visible;vector-effect:none;fill:#000000;stroke:none;stroke-linecap:butt;stroke-linejoin:miter;enable-background:accumulate;stop-color:#000000;stop-opacity:1;opacity:1"
     d="M 12 0.75 A 1.25 1.25 0 0 0 10.75 2 L 10.75 3.8457031 L 9.1210938 2.9140625 A 1.25 1.25 0 0 0 7.4140625 3.3789062 A 1.25 1.25 0 0 0 7.8789062 5.0859375 L 9.4785156 6 L 7.8789062 6.9140625 A 1.25 1.25 0 0 0 7.4140625 8.6210938 A 1.25 1.25 0 0 0 9.1210938 9.0859375 L 10.75 8.1542969 L 10.75 10.876953 C 7.9064235 11.460302 5.75 13.990763 5.75 17 C 5.75 20.436974 8.5630261 23.25 12 23.25 C 15.436974 23.25 18.25 20.436974 18.25 17 C 18.25 13.990763 16.093577 11.460302 13.25 10.876953 L 13.25 8.1542969 L 14.878906 9.0859375 A 1.25 1.25 0 0 0 16.585938 8.6210938 A 1.25 1.25 0 0 0 16.121094 6.9140625 L 14.521484 6 L 16.121094 5.0859375 A 1.25 1.25 0 0 0 16.585938 3.3789062 A 1.25 1.25 0 0 0 14.878906 2.9140625 L 13.25 3.8457031 L 13.25 2 A 1.25 1.25 0 0 0 12 0.75 z M 12 13.25 C 14.085874 13.25 15.75 14.914126 15.75 17 C 15.75 19.085874 14.085874 20.75 12 20.75 C 9.9141264 20.75 8.25 19.085874 8.25 17 C 8.25 14.914126 9.9141264 13.25 12 13.25 z " />
</svg>
