<?xml version="1.0" encoding="UTF-8" standalone="no"?>
<svg
   width="24"
   height="24"
   viewBox="0 0 24 24"
   fill="none"
   stroke="currentColor"
   stroke-width="2.5"
   stroke-linecap="round"
   stroke-linejoin="round"
   version="1.1"
   id="svg6"
   sodipodi:docname=".tmp_pencil-ruler.svg"
   xmlns:inkscape="http://www.inkscape.org/namespaces/inkscape"
   xmlns:sodipodi="http://sodipodi.sourceforge.net/DTD/sodipodi-0.dtd"
   xmlns="http://www.w3.org/2000/svg"
   xmlns:svg="http://www.w3.org/2000/svg">
  <defs
     id="defs6" />
  <sodipodi:namedview
     id="namedview6"
     pagecolor="#ffffff"
     bordercolor="#000000"
     borderopacity="0.25"
     inkscape:showpageshadow="2"
     inkscape:pageopacity="0.0"
     inkscape:pagecheckerboard="0"
     inkscape:deskcolor="#d1d1d1" />
  <path
     id="path1"
     style="baseline-shift:baseline;display:inline;overflow:visible;vector-effect:none;fill:#000000;stroke:none;stroke-linecap:butt;stroke-linejoin:miter;enable-background:accumulate;stop-color:#000000;stop-opacity:1;opacity:1"
     d="M 18.982422 0.70507812 C 18.048859 0.7547516 17.079499 1.1667896 16.304688 1.9414062 L 14.244141 4.0039062 L 14.230469 4.015625 A 1.25 1.25 0 0 0 14.115234 4.1152344 A 1.25 1.25 0 0 0 14.001953 4.2441406 L 13.007812 5.2382812 L 10.919922 3.1503906 A 1.25 1.25 0 0 0 10.884766 3.1152344 L 10.859375 3.0898438 A 1.25 1.25 0 0 0 10.847656 3.0800781 L 9.5839844 1.8164062 A 1.250125 1.250125 0 0 0 9.5820312 1.8144531 C 8.8732601 1.1091028 7.9364873 0.75585939 7 0.75585938 C 6.0635127 0.75585938 5.1267369 1.1091059 4.4179688 1.8144531 A 1.250125 1.250125 0 0 0 4.4160156 1.8164062 L 1.8164062 4.4160156 A 1.250125 1.250125 0 0 0 1.8144531 4.4179688 C 0.40375863 5.8355049 0.40375863 8.164495 1.8144531 9.5820312 A 1.250125 1.250125 0 0 0 1.8164062 9.5839844 L 5.2402344 13.009766 L 2.9589844 15.291016 C 2.5823326 15.666956 2.3024897 16.127918 2.1464844 16.636719 A 1.250125 1.250125 0 0 0 2.1464844 16.640625 L 0.82421875 20.992188 A 1.250125 1.250125 0 0 0 0.82421875 20.998047 C 0.44496721 22.267115 1.7354486 23.557071 3.0039062 23.175781 A 1.250125 1.250125 0 0 0 3.0058594 23.173828 L 7.359375 21.853516 A 1.250125 1.250125 0 0 0 7.3613281 21.853516 C 7.870188 21.69875 8.3322978 21.422368 8.7089844 21.046875 A 1.250125 1.250125 0 0 0 8.7109375 21.044922 L 10.994141 18.761719 L 14.416016 22.183594 C 15.832435 23.600013 18.167565 23.600013 19.583984 22.183594 L 22.183594 19.583984 C 23.600013 18.167565 23.600013 15.832435 22.183594 14.416016 L 20.919922 13.152344 A 1.25 1.25 0 0 0 20.910156 13.140625 L 20.849609 13.080078 A 1.25 1.25 0 0 0 20.84375 13.074219 L 18.761719 10.992188 L 19.759766 9.9941406 A 1.25 1.25 0 0 0 19.884766 9.8847656 A 1.25 1.25 0 0 0 19.994141 9.7597656 L 22.058594 7.6953125 C 22.944092 6.8100362 23.356565 5.6712766 23.294922 4.6210938 C 23.233278 3.5709109 22.753238 2.6362244 22.058594 1.9414062 C 21.36395 1.2465882 20.429074 0.76698507 19.378906 0.70507812 C 19.247635 0.69733976 19.115788 0.69798191 18.982422 0.70507812 z M 19.097656 3.1992188 C 19.142845 3.1980488 19.187208 3.1985066 19.232422 3.2011719 C 19.594129 3.2224949 19.989159 3.4070525 20.291016 3.7089844 C 20.592872 4.0109163 20.777596 4.4058654 20.798828 4.7675781 C 20.820058 5.1292908 20.734518 5.4843446 20.291016 5.9277344 L 18.994141 7.2246094 L 16.775391 5.0058594 L 18.072266 3.7089844 C 18.460329 3.3210183 18.781338 3.2074085 19.097656 3.1992188 z M 7 3.2402344 C 7.293458 3.2402344 7.5869159 3.3556111 7.8183594 3.5859375 L 8.2304688 4 L 7.1152344 5.1152344 A 1.25 1.25 0 0 0 7.1152344 6.8847656 A 1.25 1.25 0 0 0 8.8847656 6.8847656 L 10 5.7695312 L 11.238281 7.0078125 L 7.0097656 11.240234 L 3.5839844 7.8164062 C 3.1259817 7.3541419 3.1259817 6.6458583 3.5839844 6.1835938 L 3.5859375 6.1816406 L 6.1816406 3.5859375 C 6.4130841 3.3556111 6.706542 3.2402344 7 3.2402344 z M 15.005859 6.7753906 L 17.224609 8.9941406 L 6.9433594 19.277344 C 6.8573844 19.362434 6.7503643 19.425324 6.6347656 19.460938 L 3.625 20.373047 L 4.5371094 17.371094 L 4.5390625 17.369141 L 4.5390625 17.367188 C 4.5753545 17.251255 4.6385505 17.144401 4.7246094 17.058594 A 1.250125 1.250125 0 0 0 4.7265625 17.058594 L 15.005859 6.7753906 z M 16.992188 12.761719 L 18.230469 14 L 17.115234 15.115234 A 1.25 1.25 0 0 0 17.115234 16.884766 A 1.25 1.25 0 0 0 18.884766 16.884766 L 20 15.769531 L 20.416016 16.183594 C 20.879596 16.647174 20.879596 17.352826 20.416016 17.816406 L 17.816406 20.416016 C 17.352826 20.879596 16.647174 20.879596 16.183594 20.416016 L 12.761719 16.992188 L 16.992188 12.761719 z " />
</svg>
