<?xml version="1.0" encoding="UTF-8" standalone="no"?>
<svg
   width="24"
   height="24"
   viewBox="0 0 24 24"
   fill="none"
   stroke="currentColor"
   stroke-width="2.5"
   stroke-linecap="round"
   stroke-linejoin="round"
   version="1.1"
   id="svg5"
   sodipodi:docname=".tmp_pizza.svg"
   xmlns:inkscape="http://www.inkscape.org/namespaces/inkscape"
   xmlns:sodipodi="http://sodipodi.sourceforge.net/DTD/sodipodi-0.dtd"
   xmlns="http://www.w3.org/2000/svg"
   xmlns:svg="http://www.w3.org/2000/svg">
  <defs
     id="defs5" />
  <sodipodi:namedview
     id="namedview5"
     pagecolor="#ffffff"
     bordercolor="#000000"
     borderopacity="0.25"
     inkscape:showpageshadow="2"
     inkscape:pageopacity="0.0"
     inkscape:pagecheckerboard="0"
     inkscape:deskcolor="#d1d1d1" />
  <path
     id="path1"
     style="baseline-shift:baseline;display:inline;overflow:visible;vector-effect:none;fill:#000000;stroke:none;stroke-linecap:butt;stroke-linejoin:miter;enable-background:accumulate;stop-color:#000000;stop-opacity:1;opacity:1"
     d="M 16.0625 0.75195312 C 15.841967 0.74436331 15.618304 0.77016568 15.396484 0.83203125 C 8.3249991 2.7962703 2.7962703 8.3249991 0.83203125 15.396484 C 0.50208156 16.579523 1.2133061 17.838521 2.3964844 18.167969 L 20.396484 23.167969 C 22.024041 23.622183 23.622183 22.024041 23.167969 20.396484 L 20.039062 9.1328125 L 20.039062 9.1308594 A 1.25 1.25 0 0 0 20.005859 8.9707031 A 1.25 1.25 0 0 0 19.949219 8.8066406 A 1.25 1.25 0 0 0 19.947266 8.8046875 L 18.167969 2.3964844 C 17.900292 1.435152 17.018141 0.7848423 16.0625 0.75195312 z M 15.835938 3.3398438 L 16.228516 4.7558594 C 10.705777 6.376341 6.3766768 10.705792 4.7558594 16.228516 L 3.3398438 15.835938 C 5.1047838 9.8046197 9.8046197 5.1047838 15.835938 3.3398438 z M 16.898438 7.1640625 L 17.285156 8.5585938 C 16.298842 9.0794464 15.558285 9.8528243 15.121094 10.734375 C 14.523096 11.940174 14.459334 13.298807 14.794922 14.529297 C 15.13051 15.759787 15.874581 16.895616 17.001953 17.630859 C 17.837764 18.175954 18.887291 18.464912 20.019531 18.402344 C 20.020196 18.402307 20.02082 18.402381 20.021484 18.402344 L 20.642578 20.642578 L 14.746094 19.003906 A 1.25 1.25 0 0 0 14.576172 17.3125 A 1.25 1.25 0 0 0 13.669922 17.001953 A 1.25 1.25 0 0 0 12.8125 17.423828 L 12.074219 18.261719 L 7.1640625 16.898438 C 8.5501976 12.215075 12.215064 8.5499158 16.898438 7.1640625 z M 17.980469 11.060547 L 19.326172 15.904297 C 18.958394 15.853105 18.646982 15.719584 18.367188 15.537109 C 17.817477 15.178603 17.39449 14.565604 17.205078 13.871094 C 17.015666 13.176584 17.069743 12.433654 17.361328 11.845703 C 17.506152 11.553681 17.700769 11.287555 17.980469 11.060547 z M 12 12.748047 A 1.25 1.25 0 0 0 11.115234 13.115234 L 10.115234 14.115234 A 1.25 1.25 0 0 0 10.115234 15.884766 A 1.25 1.25 0 0 0 11.884766 15.884766 L 12.884766 14.884766 A 1.25 1.25 0 0 0 12.884766 13.115234 A 1.25 1.25 0 0 0 12 12.748047 z " />
</svg>
