<?xml version="1.0" encoding="UTF-8" standalone="no"?>
<svg
   width="24"
   height="24"
   viewBox="0 0 24 24"
   fill="none"
   stroke="currentColor"
   stroke-width="2.5"
   stroke-linecap="round"
   stroke-linejoin="round"
   version="1.1"
   id="svg1"
   sodipodi:docname=".tmp_plane.svg"
   xmlns:inkscape="http://www.inkscape.org/namespaces/inkscape"
   xmlns:sodipodi="http://sodipodi.sourceforge.net/DTD/sodipodi-0.dtd"
   xmlns="http://www.w3.org/2000/svg"
   xmlns:svg="http://www.w3.org/2000/svg">
  <defs
     id="defs1" />
  <sodipodi:namedview
     id="namedview1"
     pagecolor="#ffffff"
     bordercolor="#000000"
     borderopacity="0.25"
     inkscape:showpageshadow="2"
     inkscape:pageopacity="0.0"
     inkscape:pagecheckerboard="0"
     inkscape:deskcolor="#d1d1d1" />
  <path
     id="path1"
     style="baseline-shift:baseline;display:inline;overflow:visible;vector-effect:none;fill:#000000;stroke:none;stroke-linecap:butt;stroke-linejoin:miter;enable-background:accumulate;stop-color:#000000;stop-opacity:1;opacity:1"
     d="M 20.091797 1.5488281 C 19.590312 1.5496583 19.07989 1.6478941 18.570312 1.8046875 C 17.551158 2.1182736 16.512548 2.7179205 15.615234 3.6152344 L 12.599609 6.6328125 L 5.0683594 4.9785156 A 1.250125 1.250125 0 0 0 5.0449219 4.9746094 C 4.1368998 4.7930087 3.0815802 5.2610249 2.6289062 6.0566406 C 2.6195224 6.0731335 2.6084674 6.088696 2.5996094 6.1054688 L 2.328125 6.5566406 A 1.250125 1.250125 0 0 0 2.2402344 6.7363281 C 1.8801522 7.6365336 2.0958853 8.86 2.9492188 9.5 A 1.250125 1.250125 0 0 0 3.0117188 9.5429688 L 7.2636719 12.351562 L 6.3300781 13.75 L 4 13.75 A 1.250125 1.250125 0 0 0 3.1152344 14.115234 L 2.1152344 15.115234 A 1.250125 1.250125 0 0 0 2.3066406 17.041016 L 5.0976562 18.902344 L 6.9589844 21.693359 A 1.250125 1.250125 0 0 0 8.8847656 21.884766 L 9.8847656 20.884766 A 1.250125 1.250125 0 0 0 10.25 20 L 10.25 17.669922 L 11.648438 16.736328 L 14.457031 20.988281 A 1.250125 1.250125 0 0 0 14.5 21.050781 C 15.14 21.904115 16.363466 22.119848 17.263672 21.759766 L 17.763672 21.560547 A 1.250125 1.250125 0 0 0 18.050781 21.400391 C 18.717448 20.900391 19.213391 19.895082 19.025391 18.955078 A 1.250125 1.250125 0 0 0 19.021484 18.931641 L 17.367188 11.400391 L 20.384766 8.3847656 C 21.282072 7.4874547 21.881726 6.4488424 22.195312 5.4296875 C 22.508899 4.4105326 22.590794 3.3886198 22.117188 2.4414062 A 1.250125 1.250125 0 0 0 21.558594 1.8828125 C 21.084987 1.6460091 20.593282 1.547998 20.091797 1.5488281 z M 19.548828 4.1445312 C 19.651676 4.1383901 19.718276 4.1595128 19.841797 4.1582031 C 19.839697 4.3558368 19.892777 4.4090384 19.804688 4.6953125 C 19.618274 5.3011576 19.21792 6.0125483 18.615234 6.6152344 L 15.115234 10.115234 A 1.250125 1.250125 0 0 0 14.779297 11.267578 L 16.552734 19.353516 L 16.410156 19.410156 L 13.042969 14.310547 A 1.250125 1.250125 0 0 0 11.306641 13.958984 L 8.3066406 15.958984 A 1.250125 1.250125 0 0 0 7.75 17 L 7.75 18.371094 L 7.0410156 17.306641 A 1.250125 1.250125 0 0 0 6.6933594 16.958984 L 5.6289062 16.25 L 7 16.25 A 1.250125 1.250125 0 0 0 8.0410156 15.693359 L 10.041016 12.693359 A 1.250125 1.250125 0 0 0 9.6894531 10.957031 L 4.6152344 7.6054688 L 4.703125 7.4589844 L 12.732422 9.2207031 A 1.250125 1.250125 0 0 0 13.884766 8.8847656 L 17.384766 5.3847656 C 17.987452 4.7820795 18.698842 4.3817264 19.304688 4.1953125 C 19.412041 4.162281 19.487119 4.148216 19.548828 4.1445312 z " />
</svg>
