<?xml version="1.0" encoding="UTF-8" standalone="no"?>
<svg
   width="24"
   height="24"
   viewBox="0 0 24 24"
   fill="none"
   stroke="currentColor"
   stroke-width="2.5"
   stroke-linecap="round"
   stroke-linejoin="round"
   version="1.1"
   id="svg5"
   sodipodi:docname=".tmp_projector.svg"
   xmlns:inkscape="http://www.inkscape.org/namespaces/inkscape"
   xmlns:sodipodi="http://sodipodi.sourceforge.net/DTD/sodipodi-0.dtd"
   xmlns="http://www.w3.org/2000/svg"
   xmlns:svg="http://www.w3.org/2000/svg">
  <defs
     id="defs5" />
  <sodipodi:namedview
     id="namedview5"
     pagecolor="#ffffff"
     bordercolor="#000000"
     borderopacity="0.25"
     inkscape:showpageshadow="2"
     inkscape:pageopacity="0.0"
     inkscape:pagecheckerboard="0"
     inkscape:deskcolor="#d1d1d1" />
  <path
     id="path1"
     style="baseline-shift:baseline;display:inline;overflow:visible;vector-effect:none;fill:#000000;stroke:none;stroke-linecap:butt;stroke-linejoin:miter;enable-background:accumulate;stop-color:#000000;stop-opacity:1;opacity:1"
     d="M 9 1.75 A 1.25 1.25 0 0 0 7.75 3 L 7.75 6 A 1.25 1.25 0 0 0 9 7.25 A 1.25 1.25 0 0 0 10.25 6 L 10.25 3 A 1.25 1.25 0 0 0 9 1.75 z M 3 3.7480469 A 1.25 1.25 0 0 0 2.1152344 4.1152344 A 1.25 1.25 0 0 0 2.1152344 5.8847656 L 4.1152344 7.8847656 A 1.25 1.25 0 0 0 5.8847656 7.8847656 A 1.25 1.25 0 0 0 5.8847656 6.1152344 L 3.8847656 4.1152344 A 1.25 1.25 0 0 0 3 3.7480469 z M 15 3.7480469 A 1.25 1.25 0 0 0 14.115234 4.1152344 L 12.115234 6.1152344 A 1.25 1.25 0 0 0 12.115234 7.8847656 A 1.25 1.25 0 0 0 13.884766 7.8847656 L 15.884766 5.8847656 A 1.25 1.25 0 0 0 15.884766 4.1152344 A 1.25 1.25 0 0 0 15 3.7480469 z M 9 8.75 C 7.4914186 8.75 6.1572395 9.5522078 5.4023438 10.75 L 4 10.75 C 2.2198804 10.75 0.75 12.21988 0.75 14 L 0.75 18 C 0.75 19.78012 2.2198804 21.25 4 21.25 L 20 21.25 C 21.78012 21.25 23.25 19.78012 23.25 18 L 23.25 14 C 23.25 12.21988 21.78012 10.75 20 10.75 L 12.597656 10.75 C 11.84276 9.5522078 10.508581 8.75 9 8.75 z M 9 11.25 C 9.7523361 11.25 10.379051 11.70241 10.630859 12.355469 A 1.25 1.25 0 0 0 10.669922 12.464844 C 10.722095 12.632832 10.75 12.812641 10.75 13 C 10.75 13.981304 9.9813041 14.75 9 14.75 C 8.0186959 14.75 7.25 13.981304 7.25 13 C 7.25 12.018696 8.0186959 11.25 9 11.25 z M 4 13.25 L 4.7578125 13.25 C 4.8889229 15.46787 6.7514889 17.25 9 17.25 C 11.248511 17.25 13.111077 15.46787 13.242188 13.25 L 20 13.25 C 20.429019 13.25 20.75 13.570981 20.75 14 L 20.75 18 C 20.75 18.429019 20.429019 18.75 20 18.75 L 4 18.75 C 3.5709806 18.75 3.25 18.429019 3.25 18 L 3.25 14 C 3.25 13.570981 3.5709806 13.25 4 13.25 z M 16 14.75 A 1.25 1.25 0 0 0 14.75 16 A 1.25 1.25 0 0 0 16 17.25 L 18 17.25 A 1.25 1.25 0 0 0 19.25 16 A 1.25 1.25 0 0 0 18 14.75 L 16 14.75 z " />
</svg>
