<?xml version="1.0" encoding="UTF-8" standalone="no"?>
<svg
   width="24"
   height="24"
   viewBox="0 0 24 24"
   fill="none"
   stroke="currentColor"
   stroke-width="2.5"
   stroke-linecap="round"
   stroke-linejoin="round"
   version="1.1"
   id="svg3"
   sodipodi:docname=".tmp_rectangle-ellipsis.svg"
   xmlns:inkscape="http://www.inkscape.org/namespaces/inkscape"
   xmlns:sodipodi="http://sodipodi.sourceforge.net/DTD/sodipodi-0.dtd"
   xmlns="http://www.w3.org/2000/svg"
   xmlns:svg="http://www.w3.org/2000/svg">
  <defs
     id="defs3" />
  <sodipodi:namedview
     id="namedview3"
     pagecolor="#ffffff"
     bordercolor="#000000"
     borderopacity="0.25"
     inkscape:showpageshadow="2"
     inkscape:pageopacity="0.0"
     inkscape:pagecheckerboard="0"
     inkscape:deskcolor="#d1d1d1" />
  <path
     id="rect1"
     style="baseline-shift:baseline;display:inline;overflow:visible;vector-effect:none;fill:#000000;stroke:none;stroke-linecap:butt;stroke-linejoin:miter;enable-background:accumulate;stop-color:#000000;stop-opacity:1;opacity:1"
     d="M 4 4.75 C 2.2211215 4.75 0.75 6.2211215 0.75 8 L 0.75 16 C 0.75 17.778878 2.2211215 19.25 4 19.25 L 20 19.25 C 21.778878 19.25 23.25 17.778878 23.25 16 L 23.25 8 C 23.25 6.2211215 21.778878 4.75 20 4.75 L 4 4.75 z M 4 7.25 L 20 7.25 C 20.437122 7.25 20.75 7.5628785 20.75 8 L 20.75 16 C 20.75 16.437122 20.437122 16.75 20 16.75 L 4 16.75 C 3.5628785 16.75 3.25 16.437122 3.25 16 L 3.25 8 C 3.25 7.5628785 3.5628785 7.25 4 7.25 z M 7 10.75 A 1.25 1.25 0 0 0 5.75 12 A 1.25 1.25 0 0 0 7 13.25 L 7.0097656 13.25 A 1.25 1.25 0 0 0 8.2597656 12 A 1.25 1.25 0 0 0 7.0097656 10.75 L 7 10.75 z M 12 10.75 A 1.25 1.25 0 0 0 10.75 12 A 1.25 1.25 0 0 0 12 13.25 L 12.009766 13.25 A 1.25 1.25 0 0 0 13.259766 12 A 1.25 1.25 0 0 0 12.009766 10.75 L 12 10.75 z M 17 10.75 A 1.25 1.25 0 0 0 15.75 12 A 1.25 1.25 0 0 0 17 13.25 L 17.009766 13.25 A 1.25 1.25 0 0 0 18.259766 12 A 1.25 1.25 0 0 0 17.009766 10.75 L 17 10.75 z " />
</svg>
