<?xml version="1.0" encoding="UTF-8" standalone="no"?>
<svg
   width="24"
   height="24"
   viewBox="0 0 24 24"
   fill="none"
   stroke="currentColor"
   stroke-width="2.5"
   stroke-linecap="round"
   stroke-linejoin="round"
   version="1.1"
   id="svg7"
   sodipodi:docname=".tmp_refresh-cw-off.svg"
   xmlns:inkscape="http://www.inkscape.org/namespaces/inkscape"
   xmlns:sodipodi="http://sodipodi.sourceforge.net/DTD/sodipodi-0.dtd"
   xmlns="http://www.w3.org/2000/svg"
   xmlns:svg="http://www.w3.org/2000/svg">
  <defs
     id="defs7" />
  <sodipodi:namedview
     id="namedview7"
     pagecolor="#ffffff"
     bordercolor="#000000"
     borderopacity="0.25"
     inkscape:showpageshadow="2"
     inkscape:pageopacity="0.0"
     inkscape:pagecheckerboard="0"
     inkscape:deskcolor="#d1d1d1" />
  <path
     id="path1"
     style="baseline-shift:baseline;display:inline;overflow:visible;vector-effect:none;fill:#000000;stroke:none;stroke-linecap:butt;stroke-linejoin:miter;enable-background:accumulate;stop-color:#000000;stop-opacity:1;opacity:1"
     d="M 2 0.74804688 A 1.25 1.25 0 0 0 1.1152344 1.1152344 A 1.25 1.25 0 0 0 1.1152344 2.8847656 L 3.921875 5.6914062 C 2.5553387 7.429465 1.75 9.6272339 1.75 12 A 1.25 1.25 0 0 0 3 13.25 A 1.25 1.25 0 0 0 4.25 12 C 4.25 10.297643 4.7856691 8.7399986 5.7050781 7.4746094 L 16.525391 18.294922 C 15.26097 19.213612 13.704701 19.749157 12.003906 19.75 C 9.8100081 19.741747 7.7062585 18.886195 6.1289062 17.361328 L 6.0175781 17.25 L 8 17.25 A 1.25 1.25 0 0 0 9.25 16 A 1.25 1.25 0 0 0 8 14.75 L 3 14.75 A 1.250125 1.250125 0 0 0 2.9589844 14.751953 A 1.25 1.25 0 0 0 2.8632812 14.757812 A 1.250125 1.250125 0 0 0 2.796875 14.767578 A 1.25 1.25 0 0 0 2.5253906 14.84375 A 1.250125 1.250125 0 0 0 2.5117188 14.851562 A 1.25 1.25 0 0 0 2.2382812 15.007812 A 1.250125 1.250125 0 0 0 2.0078125 15.238281 A 1.25 1.25 0 0 0 1.8515625 15.511719 A 1.250125 1.250125 0 0 0 1.84375 15.525391 A 1.25 1.25 0 0 0 1.7675781 15.796875 A 1.250125 1.250125 0 0 0 1.7578125 15.863281 A 1.25 1.25 0 0 0 1.7519531 15.958984 A 1.250125 1.250125 0 0 0 1.75 16 L 1.75 21 A 1.25 1.25 0 0 0 3 22.25 A 1.25 1.25 0 0 0 4.25 21 L 4.25 19.017578 L 4.3769531 19.144531 A 1.250125 1.250125 0 0 0 4.390625 19.158203 C 6.4312108 21.130889 9.1578957 22.239323 11.996094 22.25 A 1.250125 1.250125 0 0 0 12 22.25 C 14.372767 22.25 16.570535 21.444662 18.308594 20.078125 L 21.115234 22.884766 A 1.25 1.25 0 0 0 22.884766 22.884766 A 1.25 1.25 0 0 0 22.884766 21.115234 L 19.238281 17.470703 L 6.5292969 4.7617188 L 2.8847656 1.1152344 A 1.25 1.25 0 0 0 2 0.74804688 z M 12 1.75 C 10.866667 1.75 9.7589154 1.9321288 8.7226562 2.2890625 A 1.25 1.25 0 0 0 7.9472656 3.8769531 A 1.25 1.25 0 0 0 9.5371094 4.6523438 C 10.29967 4.3896839 11.130871 4.2504281 11.996094 4.25 C 14.189992 4.25825 16.293741 5.1138054 17.871094 6.6386719 L 17.982422 6.75 L 16 6.75 A 1.25 1.25 0 0 0 14.75 8 A 1.25 1.25 0 0 0 16 9.25 L 21 9.25 A 1.250125 1.250125 0 0 0 21.041016 9.2480469 A 1.25 1.25 0 0 0 21.136719 9.2421875 A 1.250125 1.250125 0 0 0 21.203125 9.2324219 A 1.25 1.25 0 0 0 21.478516 9.1542969 A 1.250125 1.250125 0 0 0 21.488281 9.1484375 A 1.25 1.25 0 0 0 21.761719 8.9921875 A 1.250125 1.250125 0 0 0 21.992188 8.7617188 A 1.25 1.25 0 0 0 22.154297 8.4785156 A 1.250125 1.250125 0 0 0 22.15625 8.4746094 A 1.25 1.25 0 0 0 22.232422 8.203125 A 1.250125 1.250125 0 0 0 22.242188 8.1367188 A 1.25 1.25 0 0 0 22.248047 8.0410156 A 1.250125 1.250125 0 0 0 22.25 8 L 22.25 3 A 1.25 1.25 0 0 0 21 1.75 A 1.25 1.25 0 0 0 19.75 3 L 19.75 4.9824219 L 19.623047 4.8554688 A 1.250125 1.250125 0 0 0 19.609375 4.8417969 C 17.568787 2.869111 14.842104 1.760677 12.003906 1.75 A 1.250125 1.250125 0 0 0 12 1.75 z M 21 10.75 A 1.25 1.25 0 0 0 19.75 12 C 19.75 12.866667 19.610723 13.69915 19.347656 14.462891 A 1.25 1.25 0 0 0 20.123047 16.052734 A 1.25 1.25 0 0 0 21.710938 15.277344 C 22.067871 14.241084 22.25 13.133333 22.25 12 A 1.25 1.25 0 0 0 21 10.75 z " />
</svg>
