<?xml version="1.0" encoding="UTF-8" standalone="no"?>
<svg
   width="24"
   height="24"
   viewBox="0 0 24 24"
   fill="none"
   stroke="currentColor"
   stroke-width="2.5"
   stroke-linecap="round"
   stroke-linejoin="round"
   version="1.1"
   id="svg3"
   sodipodi:docname=".tmp_refrigerator.svg"
   xmlns:inkscape="http://www.inkscape.org/namespaces/inkscape"
   xmlns:sodipodi="http://sodipodi.sourceforge.net/DTD/sodipodi-0.dtd"
   xmlns="http://www.w3.org/2000/svg"
   xmlns:svg="http://www.w3.org/2000/svg">
  <defs
     id="defs3" />
  <sodipodi:namedview
     id="namedview3"
     pagecolor="#ffffff"
     bordercolor="#000000"
     borderopacity="0.25"
     inkscape:showpageshadow="2"
     inkscape:pageopacity="0.0"
     inkscape:pagecheckerboard="0"
     inkscape:deskcolor="#d1d1d1" />
  <path
     id="path1"
     style="baseline-shift:baseline;display:inline;overflow:visible;vector-effect:none;fill:#000000;stroke:none;stroke-linecap:butt;stroke-linejoin:miter;enable-background:accumulate;stop-color:#000000;stop-opacity:1;opacity:1"
     d="M 9 0.75 C 6.1153109 0.75 3.75 3.1153109 3.75 6 L 3.75 20 C 3.75 21.78012 5.2198804 23.25 7 23.25 L 17 23.25 C 18.78012 23.25 20.25 21.78012 20.25 20 L 20.25 6 C 20.25 3.1153109 17.884689 0.75 15 0.75 L 9 0.75 z M 9 3.25 L 15 3.25 C 16.533589 3.25 17.75 4.4664111 17.75 6 L 17.75 8.75 L 16.25 8.75 L 16.25 7 A 1.25 1.25 0 0 0 15 5.75 A 1.25 1.25 0 0 0 13.75 7 L 13.75 8.75 L 6.25 8.75 L 6.25 6 C 6.25 4.4664111 7.4664111 3.25 9 3.25 z M 6.25 11.25 L 13.75 11.25 L 13.75 13 A 1.25 1.25 0 0 0 15 14.25 A 1.25 1.25 0 0 0 16.25 13 L 16.25 11.25 L 17.75 11.25 L 17.75 20 C 17.75 20.429019 17.429019 20.75 17 20.75 L 7 20.75 C 6.5709806 20.75 6.25 20.429019 6.25 20 L 6.25 11.25 z " />
</svg>
