<?xml version="1.0" encoding="UTF-8" standalone="no"?>
<svg
   width="24"
   height="24"
   viewBox="0 0 24 24"
   fill="none"
   stroke="currentColor"
   stroke-width="2.5"
   stroke-linecap="round"
   stroke-linejoin="round"
   version="1.1"
   id="svg3"
   sodipodi:docname=".tmp_rotate-3d.svg"
   xmlns:inkscape="http://www.inkscape.org/namespaces/inkscape"
   xmlns:sodipodi="http://sodipodi.sourceforge.net/DTD/sodipodi-0.dtd"
   xmlns="http://www.w3.org/2000/svg"
   xmlns:svg="http://www.w3.org/2000/svg">
  <defs
     id="defs3" />
  <sodipodi:namedview
     id="namedview3"
     pagecolor="#ffffff"
     bordercolor="#000000"
     borderopacity="0.25"
     inkscape:showpageshadow="2"
     inkscape:pageopacity="0.0"
     inkscape:pagecheckerboard="0"
     inkscape:deskcolor="#d1d1d1" />
  <path
     id="path1"
     style="baseline-shift:baseline;display:inline;overflow:visible;vector-effect:none;fill:#000000;stroke:none;stroke-linecap:butt;stroke-linejoin:miter;enable-background:accumulate;stop-color:#000000;stop-opacity:1;opacity:1"
     d="M 12 0.75 C 9.9438692 0.75 8.3643167 2.3320541 7.3457031 4.3691406 C 7.0194697 5.0215625 6.7390145 5.7387128 6.5078125 6.5078125 C 5.7387129 6.7390145 5.0215624 7.0194697 4.3691406 7.3457031 C 2.3320541 8.3643167 0.75 9.9438692 0.75 12 C 0.75 14.056131 2.3320541 15.635683 4.3691406 16.654297 C 5.0215624 16.98053 5.7387129 17.260986 6.5078125 17.492188 C 6.7390145 18.261287 7.0194696 18.978438 7.3457031 19.630859 C 8.3643167 21.667946 9.9438692 23.25 12 23.25 C 12.510129 23.25 13.010418 23.145664 13.470703 22.958984 A 1.25 1.25 0 0 0 14.158203 21.330078 A 1.25 1.25 0 0 0 12.529297 20.642578 C 12.343582 20.717899 12.173871 20.75 12 20.75 C 11.295131 20.75 10.373168 20.093882 9.5820312 18.511719 C 9.5145235 18.376712 9.4484487 18.235532 9.3847656 18.089844 C 10.22423 18.194852 11.099706 18.25 12 18.25 C 13.621643 18.25 15.161658 18.073228 16.558594 17.742188 L 16.025391 18.833984 A 1.25 1.25 0 0 0 16.599609 20.503906 A 1.25 1.25 0 0 0 18.271484 19.929688 L 20.130859 16.115234 A 1.250125 1.250125 0 0 0 19.556641 14.443359 L 15.742188 12.583984 A 1.25 1.25 0 0 0 14.787109 12.525391 A 1.25 1.25 0 0 0 14.070312 13.158203 A 1.25 1.25 0 0 0 14.646484 14.830078 L 15.732422 15.359375 C 14.601684 15.60657 13.334738 15.75 12 15.75 C 10.785537 15.75 9.6271417 15.631332 8.5761719 15.423828 C 8.3686675 14.372858 8.25 13.214463 8.25 12 C 8.25 10.785537 8.3686675 9.627142 8.5761719 8.5761719 C 9.6271417 8.3686676 10.785537 8.25 12 8.25 C 14.271039 8.25 16.344648 8.6606835 17.888672 9.2988281 C 19.432696 9.9369727 20.375916 10.814261 20.642578 11.470703 A 1.25 1.25 0 0 0 22.269531 12.158203 A 1.25 1.25 0 0 0 22.958984 10.529297 C 22.298646 8.9037393 20.758476 7.7796367 18.84375 6.9882812 C 18.414024 6.8106757 17.962284 6.6495617 17.490234 6.5078125 C 17.051112 5.0343352 16.435688 3.7545015 15.634766 2.7480469 C 14.712153 1.5886752 13.453502 0.75 12 0.75 z M 12 3.25 C 12.498498 3.25 13.061097 3.5298092 13.677734 4.3046875 C 14.007815 4.7194724 14.327246 5.2637644 14.611328 5.9101562 C 13.77282 5.8048749 12.899217 5.75 12 5.75 C 11.099706 5.75 10.22423 5.8051483 9.3847656 5.9101562 C 9.4484487 5.7644684 9.5145235 5.6232875 9.5820312 5.4882812 C 10.373168 3.9061177 11.295131 3.25 12 3.25 z M 5.9101562 9.3847656 C 5.8051483 10.22423 5.75 11.099706 5.75 12 C 5.75 12.900294 5.8051483 13.77577 5.9101562 14.615234 C 5.7644683 14.551551 5.6232875 14.485476 5.4882812 14.417969 C 3.9061177 13.626832 3.25 12.704869 3.25 12 C 3.25 11.295131 3.9061177 10.373168 5.4882812 9.5820312 C 5.6232875 9.5145235 5.7644683 9.4484487 5.9101562 9.3847656 z " />
</svg>
