<?xml version="1.0" encoding="UTF-8" standalone="no"?>
<svg
   width="24"
   height="24"
   viewBox="0 0 24 24"
   fill="none"
   stroke="currentColor"
   stroke-width="2.5"
   stroke-linecap="round"
   stroke-linejoin="round"
   version="1.1"
   id="svg5"
   sodipodi:docname=".tmp_route-off.svg"
   xmlns:inkscape="http://www.inkscape.org/namespaces/inkscape"
   xmlns:sodipodi="http://sodipodi.sourceforge.net/DTD/sodipodi-0.dtd"
   xmlns="http://www.w3.org/2000/svg"
   xmlns:svg="http://www.w3.org/2000/svg">
  <defs
     id="defs5" />
  <sodipodi:namedview
     id="namedview5"
     pagecolor="#ffffff"
     bordercolor="#000000"
     borderopacity="0.25"
     inkscape:showpageshadow="2"
     inkscape:pageopacity="0.0"
     inkscape:pagecheckerboard="0"
     inkscape:deskcolor="#d1d1d1" />
  <path
     id="circle1"
     style="baseline-shift:baseline;display:inline;overflow:visible;vector-effect:none;fill:#000000;stroke:none;stroke-linecap:butt;stroke-linejoin:miter;enable-background:accumulate;stop-color:#000000;stop-opacity:1;opacity:1"
     d="M 2 0.74804688 A 1.25 1.25 0 0 0 1.1152344 1.1152344 A 1.25 1.25 0 0 0 1.1152344 2.8847656 L 3.2363281 5.0058594 C 2.0237229 6.1657487 1.5658059 7.8681034 1.8535156 9.3730469 C 2.2385857 11.387259 3.999721 13.236886 6.4941406 13.25 A 1.250125 1.250125 0 0 0 6.5 13.25 L 11.480469 13.25 L 15.980469 17.75 L 10.060547 17.75 C 9.5218138 16.019984 7.8981234 14.75 6 14.75 C 3.6675956 14.75 1.75 16.667596 1.75 19 C 1.75 21.332404 3.6675956 23.25 6 23.25 C 7.8981234 23.25 9.5218138 21.980016 10.060547 20.25 L 17.5 20.25 C 17.817473 20.25 18.117673 20.214836 18.396484 20.166016 L 21.115234 22.884766 A 1.25 1.25 0 0 0 22.884766 22.884766 A 1.25 1.25 0 0 0 22.884766 21.115234 L 2.8847656 1.1152344 A 1.25 1.25 0 0 0 2 0.74804688 z M 18 0.75 C 16.101877 0.75 14.478186 2.0199839 13.939453 3.75 L 10.699219 3.75 A 1.25 1.25 0 0 0 9.4492188 5 A 1.25 1.25 0 0 0 10.699219 6.25 L 13.939453 6.25 C 14.478186 7.9800161 16.101877 9.25 18 9.25 C 20.332404 9.25 22.25 7.3324044 22.25 5 C 22.25 2.6675956 20.332404 0.75 18 0.75 z M 18 3.25 C 18.981304 3.25 19.75 4.0186959 19.75 5 C 19.75 5.9813041 18.981304 6.75 18 6.75 C 17.018696 6.75 16.25 5.9813041 16.25 5 C 16.25 4.0186959 17.018696 3.25 18 3.25 z M 4.9882812 6.7578125 L 8.9804688 10.75 L 6.5058594 10.75 C 5.1679222 10.742966 4.5029813 9.9210934 4.3085938 8.9042969 C 4.1566187 8.1093502 4.3174113 7.3112501 4.9882812 6.7578125 z M 17.769531 10.751953 A 1.25 1.25 0 0 0 16.451172 11.929688 A 1.25 1.25 0 0 0 17.630859 13.248047 C 18.785371 13.312337 19.687667 14.214629 19.751953 15.369141 A 1.25 1.25 0 0 0 21.070312 16.548828 A 1.25 1.25 0 0 0 22.248047 15.230469 C 22.114118 12.825234 20.174766 10.885882 17.769531 10.751953 z M 6 17.25 C 6.9813041 17.25 7.75 18.018696 7.75 19 C 7.75 19.981304 6.9813041 20.75 6 20.75 C 5.0186959 20.75 4.25 19.981304 4.25 19 C 4.25 18.018696 5.0186959 17.25 6 17.25 z " />
</svg>
