<?xml version="1.0" encoding="UTF-8" standalone="no"?>
<svg
   width="24"
   height="24"
   viewBox="0 0 24 24"
   fill="none"
   stroke="currentColor"
   stroke-width="2.5"
   stroke-linecap="round"
   stroke-linejoin="round"
   version="1.1"
   id="svg5"
   sodipodi:docname=".tmp_screen-share-off.svg"
   xmlns:inkscape="http://www.inkscape.org/namespaces/inkscape"
   xmlns:sodipodi="http://sodipodi.sourceforge.net/DTD/sodipodi-0.dtd"
   xmlns="http://www.w3.org/2000/svg"
   xmlns:svg="http://www.w3.org/2000/svg">
  <defs
     id="defs5" />
  <sodipodi:namedview
     id="namedview5"
     pagecolor="#ffffff"
     bordercolor="#000000"
     borderopacity="0.25"
     inkscape:showpageshadow="2"
     inkscape:pageopacity="0.0"
     inkscape:pagecheckerboard="0"
     inkscape:deskcolor="#d1d1d1" />
  <path
     id="path1"
     style="baseline-shift:baseline;display:inline;overflow:visible;vector-effect:none;fill:#000000;stroke:none;stroke-linecap:butt;stroke-linejoin:miter;enable-background:accumulate;stop-color:#000000;stop-opacity:1;opacity:1"
     d="M 17 1.7480469 A 1.25 1.25 0 0 0 16.115234 2.1152344 A 1.25 1.25 0 0 0 16.115234 3.8847656 L 17.730469 5.5 L 16.115234 7.1152344 A 1.25 1.25 0 0 0 16.115234 8.8847656 A 1.25 1.25 0 0 0 17.884766 8.8847656 L 19.5 7.2695312 L 21.115234 8.8847656 A 1.25 1.25 0 0 0 22.884766 8.8847656 A 1.25 1.25 0 0 0 22.884766 7.1152344 L 21.269531 5.5 L 22.884766 3.8847656 A 1.25 1.25 0 0 0 22.884766 2.1152344 A 1.25 1.25 0 0 0 21.115234 2.1152344 L 19.5 3.7304688 L 17.884766 2.1152344 A 1.25 1.25 0 0 0 17 1.7480469 z M 4 1.75 C 2.2198804 1.75 0.75 3.2198804 0.75 5 L 0.75 15 C 0.75 16.78012 2.2198804 18.25 4 18.25 L 10.75 18.25 L 10.75 19.75 L 8 19.75 A 1.25 1.25 0 0 0 6.75 21 A 1.25 1.25 0 0 0 8 22.25 L 16 22.25 A 1.25 1.25 0 0 0 17.25 21 A 1.25 1.25 0 0 0 16 19.75 L 13.25 19.75 L 13.25 18.25 L 20 18.25 C 21.78012 18.25 23.25 16.78012 23.25 15 L 23.25 12 A 1.25 1.25 0 0 0 22 10.75 A 1.25 1.25 0 0 0 20.75 12 L 20.75 15 C 20.75 15.429019 20.429019 15.75 20 15.75 L 4 15.75 C 3.5709806 15.75 3.25 15.429019 3.25 15 L 3.25 5 C 3.25 4.5709806 3.5709806 4.25 4 4.25 L 13 4.25 A 1.25 1.25 0 0 0 14.25 3 A 1.25 1.25 0 0 0 13 1.75 L 4 1.75 z " />
</svg>
