<?xml version="1.0" encoding="UTF-8" standalone="no"?>
<svg
   width="24"
   height="24"
   viewBox="0 0 24 24"
   fill="none"
   stroke="currentColor"
   stroke-width="2.5"
   stroke-linecap="round"
   stroke-linejoin="round"
   version="1.1"
   id="svg5"
   sodipodi:docname=".tmp_server-crash.svg"
   xmlns:inkscape="http://www.inkscape.org/namespaces/inkscape"
   xmlns:sodipodi="http://sodipodi.sourceforge.net/DTD/sodipodi-0.dtd"
   xmlns="http://www.w3.org/2000/svg"
   xmlns:svg="http://www.w3.org/2000/svg">
  <defs
     id="defs5" />
  <sodipodi:namedview
     id="namedview5"
     pagecolor="#ffffff"
     bordercolor="#000000"
     borderopacity="0.25"
     inkscape:showpageshadow="2"
     inkscape:pageopacity="0.0"
     inkscape:pagecheckerboard="0"
     inkscape:deskcolor="#d1d1d1" />
  <path
     id="path1"
     style="baseline-shift:baseline;display:inline;overflow:visible;vector-effect:none;fill:#000000;stroke:none;stroke-linecap:butt;stroke-linejoin:miter;enable-background:accumulate;stop-color:#000000;stop-opacity:1;opacity:1"
     d="M 4 0.75 C 2.2198804 0.75 0.75 2.2198804 0.75 4 L 0.75 8 C 0.75 9.7801196 2.2198804 11.25 4 11.25 L 6 11.25 A 1.25 1.25 0 0 0 7.25 10 A 1.25 1.25 0 0 0 6 8.75 L 4 8.75 C 3.5709806 8.75 3.25 8.4290194 3.25 8 L 3.25 4 C 3.25 3.5709806 3.5709806 3.25 4 3.25 L 20 3.25 C 20.429019 3.25 20.75 3.5709806 20.75 4 L 20.75 8 C 20.75 8.4290194 20.429019 8.75 20 8.75 L 18 8.75 A 1.25 1.25 0 0 0 16.75 10 A 1.25 1.25 0 0 0 18 11.25 L 20 11.25 C 21.78012 11.25 23.25 9.7801196 23.25 8 L 23.25 4 C 23.25 2.2198804 21.78012 0.75 20 0.75 L 4 0.75 z M 6 4.75 A 1.25 1.25 0 0 0 4.75 6 A 1.25 1.25 0 0 0 6 7.25 L 6.0097656 7.25 A 1.25 1.25 0 0 0 7.2597656 6 A 1.25 1.25 0 0 0 6.0097656 4.75 L 6 4.75 z M 12.916016 4.7519531 A 1.25 1.25 0 0 0 12.753906 4.7734375 A 1.25 1.25 0 0 0 11.958984 5.3066406 L 7.9589844 11.306641 A 1.250125 1.250125 0 0 0 9 13.25 L 12.664062 13.25 L 9.9589844 17.306641 A 1.25 1.25 0 0 0 10.306641 19.041016 A 1.25 1.25 0 0 0 12.041016 18.693359 L 16.041016 12.693359 A 1.250125 1.250125 0 0 0 15 10.75 L 11.335938 10.75 L 14.041016 6.6933594 A 1.25 1.25 0 0 0 13.693359 4.9589844 A 1.25 1.25 0 0 0 12.916016 4.7519531 z M 4 12.75 C 2.2198804 12.75 0.75 14.21988 0.75 16 L 0.75 20 C 0.75 21.78012 2.2198804 23.25 4 23.25 L 20 23.25 C 21.78012 23.25 23.25 21.78012 23.25 20 L 23.25 16 C 23.25 14.21988 21.78012 12.75 20 12.75 L 18 12.75 A 1.25 1.25 0 0 0 16.75 14 A 1.25 1.25 0 0 0 18 15.25 L 20 15.25 C 20.429019 15.25 20.75 15.570981 20.75 16 L 20.75 20 C 20.75 20.429019 20.429019 20.75 20 20.75 L 4 20.75 C 3.5709806 20.75 3.25 20.429019 3.25 20 L 3.25 16 C 3.25 15.570981 3.5709806 15.25 4 15.25 L 6 15.25 A 1.25 1.25 0 0 0 7.25 14 A 1.25 1.25 0 0 0 6 12.75 L 4 12.75 z M 6 16.75 A 1.25 1.25 0 0 0 4.75 18 A 1.25 1.25 0 0 0 6 19.25 L 6.0097656 19.25 A 1.25 1.25 0 0 0 7.2597656 18 A 1.25 1.25 0 0 0 6.0097656 16.75 L 6 16.75 z " />
</svg>
