<?xml version="1.0" encoding="UTF-8" standalone="no"?>
<svg
   width="24"
   height="24"
   viewBox="0 0 24 24"
   fill="none"
   stroke="currentColor"
   stroke-width="2.5"
   stroke-linecap="round"
   stroke-linejoin="round"
   version="1.1"
   id="svg3"
   sodipodi:docname=".tmp_shopping-bag.svg"
   xmlns:inkscape="http://www.inkscape.org/namespaces/inkscape"
   xmlns:sodipodi="http://sodipodi.sourceforge.net/DTD/sodipodi-0.dtd"
   xmlns="http://www.w3.org/2000/svg"
   xmlns:svg="http://www.w3.org/2000/svg">
  <defs
     id="defs3" />
  <sodipodi:namedview
     id="namedview3"
     pagecolor="#ffffff"
     bordercolor="#000000"
     borderopacity="0.25"
     inkscape:showpageshadow="2"
     inkscape:pageopacity="0.0"
     inkscape:pagecheckerboard="0"
     inkscape:deskcolor="#d1d1d1" />
  <path
     id="path1"
     style="baseline-shift:baseline;display:inline;overflow:visible;vector-effect:none;fill:#000000;stroke:none;stroke-linecap:butt;stroke-linejoin:miter;enable-background:accumulate;stop-color:#000000;stop-opacity:1;opacity:1"
     d="M 7 0.75 C 5.9781351 0.75 5.0135096 1.2332893 4.4003906 2.0507812 L 2.4003906 4.7167969 C 2.2100931 4.9705269 2.0615191 5.250733 1.953125 5.5449219 A 1.25 1.25 0 0 0 1.9394531 5.5859375 C 1.9281977 5.6177799 1.9165098 5.6494642 1.90625 5.6816406 A 1.25 1.25 0 0 0 1.8945312 5.7226562 C 1.8015919 6.0278706 1.75 6.3452034 1.75 6.6679688 L 1.75 20 C 1.75 21.78012 3.2198804 23.25 5 23.25 L 19 23.25 C 20.78012 23.25 22.25 21.78012 22.25 20 L 22.25 6.6679688 C 22.25 6.3452034 22.198408 6.0278706 22.105469 5.7226562 C 22.104143 5.7183027 22.10486 5.7133322 22.103516 5.7089844 A 1.25 1.25 0 0 0 22.09375 5.6816406 C 22.08349 5.6494642 22.071802 5.6177799 22.060547 5.5859375 C 22.056919 5.5756739 22.054512 5.5649147 22.050781 5.5546875 A 1.25 1.25 0 0 0 22.046875 5.5449219 C 21.938481 5.250733 21.789907 4.9705269 21.599609 4.7167969 L 19.599609 2.0507812 C 18.98649 1.2332892 18.021865 0.75 17 0.75 L 7 0.75 z M 7 3.25 L 17 3.25 C 17.237164 3.25 17.457311 3.3610497 17.599609 3.5507812 L 18.523438 4.7832031 L 5.4765625 4.7832031 L 6.4003906 3.5507812 C 6.5426892 3.3610497 6.7628357 3.25 7 3.25 z M 4.25 7.2832031 L 19.75 7.2832031 L 19.75 20 C 19.75 20.429019 19.429019 20.75 19 20.75 L 5 20.75 C 4.5709806 20.75 4.25 20.429019 4.25 20 L 4.25 7.2832031 z M 8 8.75 A 1.25 1.25 0 0 0 6.75 10 C 6.75 11.645833 7.4121945 13.037836 8.4199219 13.933594 C 9.4276493 14.829351 10.722222 15.25 12 15.25 C 13.277778 15.25 14.572351 14.829351 15.580078 13.933594 C 16.587806 13.037836 17.25 11.645833 17.25 10 A 1.25 1.25 0 0 0 16 8.75 A 1.25 1.25 0 0 0 14.75 10 C 14.75 11.020833 14.412194 11.628831 13.919922 12.066406 C 13.427649 12.503982 12.722222 12.75 12 12.75 C 11.277778 12.75 10.572351 12.503982 10.080078 12.066406 C 9.5878056 11.628831 9.25 11.020833 9.25 10 A 1.25 1.25 0 0 0 8 8.75 z " />
</svg>
