<?xml version="1.0" encoding="UTF-8" standalone="no"?>
<svg
   width="24"
   height="24"
   viewBox="0 0 24 24"
   fill="none"
   stroke="currentColor"
   stroke-width="2.5"
   stroke-linecap="round"
   stroke-linejoin="round"
   version="1.1"
   id="svg8"
   sodipodi:docname=".tmp_siren.svg"
   xmlns:inkscape="http://www.inkscape.org/namespaces/inkscape"
   xmlns:sodipodi="http://sodipodi.sourceforge.net/DTD/sodipodi-0.dtd"
   xmlns="http://www.w3.org/2000/svg"
   xmlns:svg="http://www.w3.org/2000/svg">
  <defs
     id="defs8" />
  <sodipodi:namedview
     id="namedview8"
     pagecolor="#ffffff"
     bordercolor="#000000"
     borderopacity="0.25"
     inkscape:showpageshadow="2"
     inkscape:pageopacity="0.0"
     inkscape:pagecheckerboard="0"
     inkscape:deskcolor="#d1d1d1" />
  <path
     id="path1"
     style="baseline-shift:baseline;display:inline;overflow:visible;vector-effect:none;fill:#000000;stroke:none;stroke-linecap:butt;stroke-linejoin:miter;enable-background:accumulate;stop-color:#000000;stop-opacity:1;opacity:1"
     d="M 12 0.75 A 1.25 1.25 0 0 0 10.75 2 L 10.75 3 A 1.25 1.25 0 0 0 12 4.25 A 1.25 1.25 0 0 0 13.25 3 L 13.25 2 A 1.25 1.25 0 0 0 12 0.75 z M 18.5 3.2480469 A 1.25 1.25 0 0 0 17.615234 3.6152344 L 17.115234 4.1152344 A 1.25 1.25 0 0 0 17.115234 5.8847656 A 1.25 1.25 0 0 0 18.884766 5.8847656 L 19.384766 5.3847656 A 1.25 1.25 0 0 0 19.384766 3.6152344 A 1.25 1.25 0 0 0 18.5 3.2480469 z M 4.9296875 3.6796875 A 1.25 1.25 0 0 0 4.0449219 4.0449219 A 1.25 1.25 0 0 0 4.0449219 5.8125 L 4.7519531 6.5195312 A 1.25 1.25 0 0 0 6.5195312 6.5195312 A 1.25 1.25 0 0 0 6.5195312 4.7519531 L 5.8125 4.0449219 A 1.25 1.25 0 0 0 4.9296875 3.6796875 z M 12 5.75 C 10.472222 5.75 8.9276493 6.2539824 7.7324219 7.3164062 C 6.5371945 8.3788301 5.75 10.020834 5.75 12 L 5.75 17.003906 C 4.5809759 17.498651 3.75 18.661549 3.75 20 L 3.75 21 C 3.75 22.227835 4.7721651 23.25 6 23.25 L 18 23.25 C 19.227835 23.25 20.25 22.227835 20.25 21 L 20.25 20 C 20.25 18.661549 19.419024 17.49865 18.25 17.003906 L 18.25 12 C 18.25 10.020834 17.462806 8.3788301 16.267578 7.3164062 C 15.072351 6.2539824 13.527778 5.75 12 5.75 z M 12 8.25 C 12.972222 8.25 13.927649 8.5793516 14.607422 9.1835938 C 15.287194 9.7878357 15.75 10.645834 15.75 12 L 15.75 16.75 L 13.25 16.75 L 13.25 12 A 1.25 1.25 0 0 0 12 10.75 A 1.25 1.25 0 0 0 10.75 12 L 10.75 16.75 L 8.25 16.75 L 8.25 12 C 8.25 10.645834 8.7128055 9.7878357 9.3925781 9.1835938 C 10.072351 8.5793516 11.027778 8.25 12 8.25 z M 2 10.75 A 1.25 1.25 0 0 0 0.75 12 A 1.25 1.25 0 0 0 2 13.25 L 3 13.25 A 1.25 1.25 0 0 0 4.25 12 A 1.25 1.25 0 0 0 3 10.75 L 2 10.75 z M 21 10.75 A 1.25 1.25 0 0 0 19.75 12 A 1.25 1.25 0 0 0 21 13.25 L 22 13.25 A 1.25 1.25 0 0 0 23.25 12 A 1.25 1.25 0 0 0 22 10.75 L 21 10.75 z M 7 19.25 L 12 19.25 L 17 19.25 C 17.429019 19.25 17.75 19.570981 17.75 20 L 17.75 20.75 L 6.25 20.75 L 6.25 20 C 6.25 19.570981 6.5709806 19.25 7 19.25 z " />
</svg>
