<?xml version="1.0" encoding="UTF-8" standalone="no"?>
<svg
   width="24"
   height="24"
   viewBox="0 0 24 24"
   fill="none"
   stroke="currentColor"
   stroke-width="2.5"
   stroke-linecap="round"
   stroke-linejoin="round"
   version="1.1"
   id="svg3"
   sodipodi:docname=".tmp_skull.svg"
   xmlns:inkscape="http://www.inkscape.org/namespaces/inkscape"
   xmlns:sodipodi="http://sodipodi.sourceforge.net/DTD/sodipodi-0.dtd"
   xmlns="http://www.w3.org/2000/svg"
   xmlns:svg="http://www.w3.org/2000/svg">
  <defs
     id="defs3" />
  <sodipodi:namedview
     id="namedview3"
     pagecolor="#ffffff"
     bordercolor="#000000"
     borderopacity="0.25"
     inkscape:showpageshadow="2"
     inkscape:pageopacity="0.0"
     inkscape:pagecheckerboard="0"
     inkscape:deskcolor="#d1d1d1" />
  <path
     id="path1"
     style="baseline-shift:baseline;display:inline;overflow:visible;vector-effect:none;fill:#000000;stroke:none;stroke-linecap:butt;stroke-linejoin:miter;enable-background:accumulate;stop-color:#000000;stop-opacity:1;opacity:1"
     d="M 12 1.7480469 C 7.8967296 1.7480469 4.7329296 4.2937939 3.4238281 7.53125 C 2.2086152 10.536516 2.6480343 14.185691 5.0644531 16.980469 C 4.5649738 18.530923 5.2863704 20.183714 6.75 20.865234 L 6.75 21 C 6.75 22.227835 7.7721651 23.25 9 23.25 L 15 23.25 C 16.227835 23.25 17.25 22.227835 17.25 21 L 17.25 20.865234 C 18.71363 20.183714 19.435026 18.530923 18.935547 16.980469 C 21.351966 14.185691 21.791385 10.536516 20.576172 7.53125 C 19.26707 4.2937939 16.10327 1.7480469 12 1.7480469 z M 12 4.2480469 C 15.089231 4.2480469 17.291997 6.0802522 18.257812 8.46875 C 19.223629 10.857248 18.912955 13.704198 16.691406 15.851562 A 1.250125 1.250125 0 0 0 16.583984 17.53125 C 17.029572 18.087789 16.71294 18.749555 16 18.75 A 1.250125 1.250125 0 0 0 14.75 20 L 14.75 20.75 L 9.25 20.75 L 9.25 20 A 1.250125 1.250125 0 0 0 8 18.75 C 7.2870596 18.749555 6.9704276 18.087789 7.4160156 17.53125 A 1.250125 1.250125 0 0 0 7.3085938 15.851562 C 5.0870454 13.704197 4.7763718 10.857248 5.7421875 8.46875 C 6.7080032 6.0802522 8.9107695 4.2480469 12 4.2480469 z M 9 9.75 C 7.7721651 9.75 6.75 10.772165 6.75 12 C 6.75 13.227835 7.7721651 14.25 9 14.25 C 10.227835 14.25 11.25 13.227835 11.25 12 C 11.25 10.772165 10.227835 9.75 9 9.75 z M 15 9.75 C 13.772165 9.75 12.75 10.772165 12.75 12 C 12.75 13.227835 13.772165 14.25 15 14.25 C 16.227835 14.25 17.25 13.227835 17.25 12 C 17.25 10.772165 16.227835 9.75 15 9.75 z M 9 11.75 C 9.1232654 11.75 9.25 11.876735 9.25 12 C 9.25 12.123265 9.1232654 12.25 9 12.25 C 8.8767346 12.25 8.75 12.123265 8.75 12 C 8.75 11.876735 8.8767346 11.75 9 11.75 z M 15 11.75 C 15.123265 11.75 15.25 11.876735 15.25 12 C 15.25 12.123265 15.123265 12.25 15 12.25 C 14.876735 12.25 14.75 12.123265 14.75 12 C 14.75 11.876735 14.876735 11.75 15 11.75 z M 12 14.75 A 1.250125 1.250125 0 0 0 10.882812 15.441406 L 10.382812 16.441406 A 1.250125 1.250125 0 0 0 11.5 18.25 L 12.5 18.25 A 1.250125 1.250125 0 0 0 13.617188 16.441406 L 13.117188 15.441406 A 1.250125 1.250125 0 0 0 12 14.75 z " />
</svg>
