<?xml version="1.0" encoding="UTF-8" standalone="no"?>
<svg
   width="24"
   height="24"
   viewBox="0 0 24 24"
   fill="none"
   stroke="currentColor"
   stroke-width="2.5"
   stroke-linecap="round"
   stroke-linejoin="round"
   version="1.1"
   id="svg2"
   sodipodi:docname=".tmp_square-function.svg"
   xmlns:inkscape="http://www.inkscape.org/namespaces/inkscape"
   xmlns:sodipodi="http://sodipodi.sourceforge.net/DTD/sodipodi-0.dtd"
   xmlns="http://www.w3.org/2000/svg"
   xmlns:svg="http://www.w3.org/2000/svg">
  <defs
     id="defs2" />
  <sodipodi:namedview
     id="namedview2"
     pagecolor="#ffffff"
     bordercolor="#000000"
     borderopacity="0.25"
     inkscape:showpageshadow="2"
     inkscape:pageopacity="0.0"
     inkscape:pagecheckerboard="0"
     inkscape:deskcolor="#d1d1d1" />
  <path
     id="rect1"
     style="baseline-shift:baseline;display:inline;overflow:visible;vector-effect:none;fill:#000000;stroke:none;stroke-linecap:butt;stroke-linejoin:miter;enable-background:accumulate;stop-color:#000000;stop-opacity:1;opacity:1"
     d="M 5 1.75 C 3.2211215 1.75 1.75 3.2211215 1.75 5 L 1.75 19 C 1.75 20.778878 3.2211215 22.25 5 22.25 L 19 22.25 C 20.778878 22.25 22.25 20.778878 22.25 19 L 22.25 5 C 22.25 3.2211215 20.778878 1.75 19 1.75 L 5 1.75 z M 5 4.25 L 19 4.25 C 19.437122 4.25 19.75 4.5628785 19.75 5 L 19.75 19 C 19.75 19.437122 19.437122 19.75 19 19.75 L 5 19.75 C 4.5628785 19.75 4.25 19.437122 4.25 19 L 4.25 5 C 4.25 4.5628785 4.5628785 4.25 5 4.25 z M 14.660156 5.7167969 C 13.487936 5.6679284 12.410642 6.0173135 11.681641 6.7636719 C 10.860172 7.6046989 10.559055 8.758796 10.550781 9.9492188 L 9 9.9492188 A 1.25 1.25 0 0 0 7.75 11.199219 A 1.25 1.25 0 0 0 9 12.449219 L 10.550781 12.449219 L 10.550781 14.199219 C 10.550781 14.914034 10.397678 15.251886 10.242188 15.416016 C 10.086695 15.580145 9.7916667 15.75 9 15.75 A 1.25 1.25 0 0 0 7.75 17 A 1.25 1.25 0 0 0 9 18.25 C 10.208333 18.25 11.312132 17.920636 12.056641 17.134766 C 12.801149 16.348895 13.050781 15.284404 13.050781 14.199219 L 13.050781 12.449219 L 14.699219 12.449219 A 1.25 1.25 0 0 0 15.949219 11.199219 A 1.25 1.25 0 0 0 14.699219 9.9492188 L 13.050781 9.9492188 C 13.059185 9.187979 13.256571 8.7289493 13.46875 8.5117188 C 13.685606 8.2896996 13.996655 8.1243662 14.832031 8.2382812 A 1.25 1.25 0 0 0 16.238281 7.1679688 A 1.25 1.25 0 0 0 15.167969 5.7617188 C 14.997391 5.7384581 14.827616 5.7237781 14.660156 5.7167969 z " />
</svg>
