<?xml version="1.0" encoding="UTF-8" standalone="no"?>
<svg
   width="24"
   height="24"
   viewBox="0 0 24 24"
   fill="none"
   stroke="currentColor"
   stroke-width="2.5"
   stroke-linecap="round"
   stroke-linejoin="round"
   version="1.1"
   id="svg2"
   sodipodi:docname=".tmp_square-stop.svg"
   xmlns:inkscape="http://www.inkscape.org/namespaces/inkscape"
   xmlns:sodipodi="http://sodipodi.sourceforge.net/DTD/sodipodi-0.dtd"
   xmlns="http://www.w3.org/2000/svg"
   xmlns:svg="http://www.w3.org/2000/svg">
  <defs
     id="defs2" />
  <sodipodi:namedview
     id="namedview2"
     pagecolor="#ffffff"
     bordercolor="#000000"
     borderopacity="0.25"
     inkscape:showpageshadow="2"
     inkscape:pageopacity="0.0"
     inkscape:pagecheckerboard="0"
     inkscape:deskcolor="#d1d1d1" />
  <path
     id="rect1"
     style="baseline-shift:baseline;display:inline;overflow:visible;vector-effect:none;fill:#000000;stroke:none;stroke-linecap:butt;stroke-linejoin:miter;enable-background:accumulate;stop-color:#000000;stop-opacity:1;opacity:1"
     d="M 5 1.75 C 3.2211215 1.75 1.75 3.2211215 1.75 5 L 1.75 19 C 1.75 20.778878 3.2211215 22.25 5 22.25 L 19 22.25 C 20.778878 22.25 22.25 20.778878 22.25 19 L 22.25 5 C 22.25 3.2211215 20.778878 1.75 19 1.75 L 5 1.75 z M 5 4.25 L 19 4.25 C 19.437122 4.25 19.75 4.5628785 19.75 5 L 19.75 19 C 19.75 19.437122 19.437122 19.75 19 19.75 L 5 19.75 C 4.5628785 19.75 4.25 19.437122 4.25 19 L 4.25 5 C 4.25 4.5628785 4.5628785 4.25 5 4.25 z M 10 7.75 C 8.7751215 7.75 7.75 8.7751215 7.75 10 L 7.75 14 C 7.75 15.224878 8.7751215 16.25 10 16.25 L 14 16.25 C 15.224878 16.25 16.25 15.224878 16.25 14 L 16.25 10 C 16.25 8.7751215 15.224878 7.75 14 7.75 L 10 7.75 z M 10.25 10.25 L 13.75 10.25 L 13.75 13.75 L 10.25 13.75 L 10.25 10.25 z " />
</svg>
