<?xml version="1.0" encoding="UTF-8" standalone="no"?>
<svg
   width="24"
   height="24"
   viewBox="0 0 24 24"
   fill="none"
   stroke="currentColor"
   stroke-width="2.5"
   stroke-linecap="round"
   stroke-linejoin="round"
   version="1.1"
   id="svg1"
   sodipodi:docname=".tmp_star.svg"
   xmlns:inkscape="http://www.inkscape.org/namespaces/inkscape"
   xmlns:sodipodi="http://sodipodi.sourceforge.net/DTD/sodipodi-0.dtd"
   xmlns="http://www.w3.org/2000/svg"
   xmlns:svg="http://www.w3.org/2000/svg">
  <defs
     id="defs1" />
  <sodipodi:namedview
     id="namedview1"
     pagecolor="#ffffff"
     bordercolor="#000000"
     borderopacity="0.25"
     inkscape:showpageshadow="2"
     inkscape:pageopacity="0.0"
     inkscape:pagecheckerboard="0"
     inkscape:deskcolor="#d1d1d1" />
  <path
     id="path1"
     style="baseline-shift:baseline;display:inline;overflow:visible;vector-effect:none;fill:#000000;stroke:none;stroke-linecap:butt;stroke-linejoin:miter;enable-background:accumulate;stop-color:#000000;stop-opacity:1;opacity:1"
     d="M 12 0.8046875 C 11.35688 0.8046875 10.71334 1.1158556 10.404297 1.7402344 A 1.250125 1.250125 0 0 0 10.404297 1.7421875 L 8.0957031 6.4199219 C 7.9680606 6.6782902 7.7246296 6.8549968 7.4394531 6.8964844 A 1.250125 1.250125 0 0 0 7.4375 6.8964844 L 2.2792969 7.6503906 C 0.89278474 7.846434 0.28380204 9.7205445 1.2910156 10.693359 L 5.0234375 14.328125 C 5.2301366 14.529414 5.3241687 14.815246 5.2753906 15.099609 L 4.3945312 20.234375 L 4.3945312 20.236328 L 4.3945312 20.238281 C 4.1566139 21.614599 5.7451128 22.769223 6.9804688 22.115234 L 11.59375 19.689453 C 11.84877 19.555546 12.149276 19.555546 12.404297 19.689453 L 12.404297 19.6875 L 17.015625 22.113281 C 18.252652 22.771891 19.849197 21.612494 19.605469 20.232422 L 18.724609 15.097656 C 18.676779 14.81389 18.770399 14.529034 18.976562 14.328125 L 22.712891 10.689453 C 23.711268 9.7160653 23.105847 7.8537869 21.726562 7.6523438 L 21.724609 7.6523438 L 16.5625 6.8964844 L 16.560547 6.8964844 C 16.276287 6.8542043 16.033621 6.6776879 15.90625 6.4199219 L 13.595703 1.7421875 A 1.250125 1.250125 0 0 0 13.595703 1.7402344 C 13.28666 1.1158525 12.64312 0.8046875 12 0.8046875 z M 12 4.1582031 L 13.664062 7.5273438 C 14.15425 8.5193565 15.104435 9.2103999 16.199219 9.3710938 L 19.923828 9.9160156 L 17.232422 12.537109 C 16.438748 13.310543 16.075078 14.429109 16.261719 15.521484 L 16.896484 19.226562 L 13.568359 17.476562 A 1.250125 1.250125 0 0 0 13.566406 17.474609 C 12.586067 16.95985 11.41198 16.95985 10.431641 17.474609 A 1.250125 1.250125 0 0 0 10.431641 17.476562 L 7.1035156 19.226562 L 7.7382812 15.521484 C 7.9258322 14.428386 7.5621336 13.310868 6.7675781 12.537109 L 4.0742188 9.9140625 L 7.7988281 9.3710938 C 8.8950805 9.2116105 9.8452639 8.5205426 10.335938 7.5273438 A 1.250125 1.250125 0 0 0 10.337891 7.5273438 L 12 4.1582031 z " />
</svg>
