<?xml version="1.0" encoding="UTF-8" standalone="no"?>
<svg
   width="24"
   height="24"
   viewBox="0 0 24 24"
   fill="none"
   stroke="currentColor"
   stroke-width="2.5"
   stroke-linecap="round"
   stroke-linejoin="round"
   version="1.1"
   id="svg3"
   sodipodi:docname=".tmp_superscript.svg"
   xmlns:inkscape="http://www.inkscape.org/namespaces/inkscape"
   xmlns:sodipodi="http://sodipodi.sourceforge.net/DTD/sodipodi-0.dtd"
   xmlns="http://www.w3.org/2000/svg"
   xmlns:svg="http://www.w3.org/2000/svg">
  <defs
     id="defs3" />
  <sodipodi:namedview
     id="namedview3"
     pagecolor="#ffffff"
     bordercolor="#000000"
     borderopacity="0.25"
     inkscape:showpageshadow="2"
     inkscape:pageopacity="0.0"
     inkscape:pagecheckerboard="0"
     inkscape:deskcolor="#d1d1d1" />
  <path
     id="path1"
     style="baseline-shift:baseline;display:inline;overflow:visible;vector-effect:none;fill:#000000;stroke:none;stroke-linecap:butt;stroke-linejoin:miter;enable-background:accumulate;stop-color:#000000;stop-opacity:1;opacity:1"
     d="M 17.929688 3.7539062 C 17.365236 3.7544343 16.796238 3.8968416 16.28125 4.1894531 C 15.60848 4.5722915 15.087725 5.1821482 14.824219 5.9121094 A 1.25 1.25 0 0 0 15.576172 7.5117188 A 1.25 1.25 0 0 0 17.175781 6.7597656 C 17.234275 6.5977268 17.350348 6.4584429 17.517578 6.3632812 C 17.873958 6.1619169 18.30376 6.2338743 18.576172 6.5390625 C 18.689093 6.6708296 18.75 6.8322132 18.75 7.0019531 C 18.75 7.216877 18.68942 7.3276901 18.365234 7.5878906 C 18.041053 7.8480912 17.500301 8.1170121 16.966797 8.3691406 C 16.353065 8.659184 15.728839 9.0400825 15.304688 9.6953125 C 14.880534 10.350542 14.75 11.127222 14.75 12 A 1.250125 1.250125 0 0 0 16 13.25 L 20 13.25 A 1.25 1.25 0 0 0 21.25 12 A 1.25 1.25 0 0 0 20 10.75 L 17.855469 10.75 C 17.935739 10.70378 17.908129 10.68997 18.033203 10.630859 C 18.557699 10.382988 19.268369 10.067909 19.929688 9.5371094 C 20.591006 9.0063099 21.25 8.1190292 21.25 7.0019531 C 21.25 6.2298119 20.971287 5.4779789 20.458984 4.890625 A 1.250125 1.250125 0 0 0 20.453125 4.8847656 C 19.930093 4.293074 19.230563 3.9241222 18.490234 3.8007812 C 18.305152 3.769946 18.117838 3.7537302 17.929688 3.7539062 z M 4 9.7480469 A 1.25 1.25 0 0 0 3.1152344 10.115234 A 1.25 1.25 0 0 0 3.1152344 11.884766 L 6.2304688 15 L 3.1152344 18.115234 A 1.25 1.25 0 0 0 3.1152344 19.884766 A 1.25 1.25 0 0 0 4.8847656 19.884766 L 8 16.769531 L 11.115234 19.884766 A 1.25 1.25 0 0 0 12.884766 19.884766 A 1.25 1.25 0 0 0 12.884766 18.115234 L 9.7695312 15 L 12.884766 11.884766 A 1.25 1.25 0 0 0 12.884766 10.115234 A 1.25 1.25 0 0 0 11.115234 10.115234 L 8 13.230469 L 4.8847656 10.115234 A 1.25 1.25 0 0 0 4 9.7480469 z " />
</svg>
