<?xml version="1.0" encoding="UTF-8" standalone="no"?>
<svg
   width="24"
   height="24"
   viewBox="0 0 24 24"
   fill="none"
   stroke="currentColor"
   stroke-width="2.5"
   stroke-linecap="round"
   stroke-linejoin="round"
   version="1.1"
   id="svg11"
   sodipodi:docname=".tmp_table-rows-split.svg"
   xmlns:inkscape="http://www.inkscape.org/namespaces/inkscape"
   xmlns:sodipodi="http://sodipodi.sourceforge.net/DTD/sodipodi-0.dtd"
   xmlns="http://www.w3.org/2000/svg"
   xmlns:svg="http://www.w3.org/2000/svg">
  <defs
     id="defs11" />
  <sodipodi:namedview
     id="namedview11"
     pagecolor="#ffffff"
     bordercolor="#000000"
     borderopacity="0.25"
     inkscape:showpageshadow="2"
     inkscape:pageopacity="0.0"
     inkscape:pagecheckerboard="0"
     inkscape:deskcolor="#d1d1d1" />
  <path
     id="path1"
     style="baseline-shift:baseline;display:inline;overflow:visible;vector-effect:none;fill:#000000;stroke:none;stroke-linecap:butt;stroke-linejoin:miter;enable-background:accumulate;stop-color:#000000;stop-opacity:1;opacity:1"
     d="M 3 0.75 A 1.25 1.25 0 0 0 1.75 2 L 1.75 4 C 1.75 5.7801196 3.2198804 7.25 5 7.25 L 9 7.25 L 19 7.25 C 20.78012 7.25 22.25 5.7801196 22.25 4 L 22.25 2 A 1.25 1.25 0 0 0 21 0.75 A 1.25 1.25 0 0 0 19.75 2 L 19.75 4 C 19.75 4.4290194 19.429019 4.75 19 4.75 L 16.25 4.75 L 16.25 2 A 1.25 1.25 0 0 0 15 0.75 A 1.25 1.25 0 0 0 13.75 2 L 13.75 4.75 L 10.25 4.75 L 10.25 2 A 1.25 1.25 0 0 0 9 0.75 A 1.25 1.25 0 0 0 7.75 2 L 7.75 4.75 L 5 4.75 C 4.5709806 4.75 4.25 4.4290194 4.25 4 L 4.25 2 A 1.25 1.25 0 0 0 3 0.75 z M 2 8.75 A 1.25 1.25 0 0 0 0.75 10 A 1.25 1.25 0 0 0 2 11.25 L 4 11.25 A 1.25 1.25 0 0 0 5.25 10 A 1.25 1.25 0 0 0 4 8.75 L 2 8.75 z M 8 8.75 A 1.25 1.25 0 0 0 6.75 10 A 1.25 1.25 0 0 0 8 11.25 L 10 11.25 A 1.25 1.25 0 0 0 11.25 10 A 1.25 1.25 0 0 0 10 8.75 L 8 8.75 z M 14 8.75 A 1.25 1.25 0 0 0 12.75 10 A 1.25 1.25 0 0 0 14 11.25 L 16 11.25 A 1.25 1.25 0 0 0 17.25 10 A 1.25 1.25 0 0 0 16 8.75 L 14 8.75 z M 20 8.75 A 1.25 1.25 0 0 0 18.75 10 A 1.25 1.25 0 0 0 20 11.25 L 22 11.25 A 1.25 1.25 0 0 0 23.25 10 A 1.25 1.25 0 0 0 22 8.75 L 20 8.75 z M 5 12.75 C 3.2198804 12.75 1.75 14.21988 1.75 16 L 1.75 22 A 1.25 1.25 0 0 0 3 23.25 A 1.25 1.25 0 0 0 4.25 22 L 4.25 20.25 L 7.75 20.25 L 7.75 22 A 1.25 1.25 0 0 0 9 23.25 A 1.25 1.25 0 0 0 10.25 22 L 10.25 20.25 L 13.75 20.25 L 13.75 22 A 1.25 1.25 0 0 0 15 23.25 A 1.25 1.25 0 0 0 16.25 22 L 16.25 20.25 L 19.75 20.25 L 19.75 22 A 1.25 1.25 0 0 0 21 23.25 A 1.25 1.25 0 0 0 22.25 22 L 22.25 16 C 22.25 14.21988 20.78012 12.75 19 12.75 L 5 12.75 z M 5 15.25 L 7.75 15.25 L 7.75 17.75 L 4.25 17.75 L 4.25 16 C 4.25 15.570981 4.5709806 15.25 5 15.25 z M 10.25 15.25 L 13.75 15.25 L 13.75 17.75 L 10.25 17.75 L 10.25 15.25 z M 16.25 15.25 L 19 15.25 C 19.429019 15.25 19.75 15.570981 19.75 16 L 19.75 17.75 L 16.25 17.75 L 16.25 15.25 z " />
</svg>
