<?xml version="1.0" encoding="UTF-8" standalone="no"?>
<svg
   width="24"
   height="24"
   viewBox="0 0 24 24"
   fill="none"
   stroke="currentColor"
   stroke-width="2.5"
   stroke-linecap="round"
   stroke-linejoin="round"
   version="1.1"
   id="svg2"
   sodipodi:docname=".tmp_tangent.svg"
   xmlns:inkscape="http://www.inkscape.org/namespaces/inkscape"
   xmlns:sodipodi="http://sodipodi.sourceforge.net/DTD/sodipodi-0.dtd"
   xmlns="http://www.w3.org/2000/svg"
   xmlns:svg="http://www.w3.org/2000/svg">
  <defs
     id="defs2" />
  <sodipodi:namedview
     id="namedview2"
     pagecolor="#ffffff"
     bordercolor="#000000"
     borderopacity="0.25"
     inkscape:showpageshadow="2"
     inkscape:pageopacity="0.0"
     inkscape:pagecheckerboard="0"
     inkscape:deskcolor="#d1d1d1" />
  <path
     id="circle1"
     style="baseline-shift:baseline;display:inline;overflow:visible;vector-effect:none;fill:#000000;stroke:none;stroke-linecap:butt;stroke-linejoin:miter;enable-background:accumulate;stop-color:#000000;stop-opacity:1;opacity:1"
     d="M 17 0.75 C 15.21988 0.75 13.75 2.2198804 13.75 4 C 13.75 4.4359464 13.838768 4.852674 13.998047 5.234375 L 9.6875 9.5449219 C 9.663406 9.5677183 9.6389102 9.5915585 9.6152344 9.6152344 C 9.5915585 9.6389102 9.5677183 9.663406 9.5449219 9.6875 L 5.234375 13.998047 C 4.852674 13.838768 4.4359464 13.75 4 13.75 C 2.2198804 13.75 0.75 15.21988 0.75 17 C 0.75 18.78012 2.2198804 20.25 4 20.25 C 5.7801196 20.25 7.25 18.78012 7.25 17 C 7.25 16.564053 7.161232 16.147326 7.0019531 15.765625 L 8.484375 14.283203 C 8.5881641 15.363878 8.8251705 16.466971 9.1054688 17.511719 C 9.8241255 20.190349 10.857422 22.507813 10.857422 22.507812 A 1.25 1.25 0 0 0 12.507812 23.142578 A 1.25 1.25 0 0 0 13.142578 21.492188 C 13.142578 21.492188 12.175874 19.309651 11.519531 16.863281 C 11.19136 15.640096 10.94986 14.354978 10.929688 13.326172 C 10.909517 12.297366 11.142782 11.626749 11.384766 11.384766 C 11.626749 11.142782 12.297366 10.909515 13.326172 10.929688 C 14.354978 10.949858 15.640096 11.19136 16.863281 11.519531 C 19.309651 12.175874 21.492188 13.142578 21.492188 13.142578 A 1.25 1.25 0 0 0 23.142578 12.507812 A 1.25 1.25 0 0 0 22.507812 10.857422 C 22.507812 10.857422 20.190349 9.8241255 17.511719 9.1054688 C 16.466971 8.8251705 15.363878 8.5881641 14.283203 8.484375 L 15.765625 7.0019531 C 16.147326 7.161232 16.564053 7.25 17 7.25 C 18.78012 7.25 20.25 5.7801196 20.25 4 C 20.25 2.2198804 18.78012 0.75 17 0.75 z M 17 3.25 C 17.429019 3.25 17.75 3.5709806 17.75 4 C 17.75 4.4290194 17.429019 4.75 17 4.75 C 16.829257 4.75 16.675829 4.6995866 16.552734 4.6113281 A 1.25 1.25 0 0 0 16.474609 4.5253906 A 1.25 1.25 0 0 0 16.388672 4.4472656 C 16.300414 4.3241706 16.25 4.1707434 16.25 4 C 16.25 3.5709806 16.570981 3.25 17 3.25 z M 4 16.25 C 4.1707434 16.25 4.3241706 16.300414 4.4472656 16.388672 A 1.25 1.25 0 0 0 4.5253906 16.474609 A 1.25 1.25 0 0 0 4.6113281 16.552734 C 4.6995866 16.675829 4.75 16.829257 4.75 17 C 4.75 17.429019 4.4290194 17.75 4 17.75 C 3.5709806 17.75 3.25 17.429019 3.25 17 C 3.25 16.570981 3.5709806 16.25 4 16.25 z " />
</svg>
