<?xml version="1.0" encoding="UTF-8" standalone="no"?>
<svg
   width="24"
   height="24"
   viewBox="0 0 24 24"
   fill="none"
   stroke="currentColor"
   stroke-width="2.5"
   stroke-linecap="round"
   stroke-linejoin="round"
   version="1.1"
   id="svg6"
   sodipodi:docname=".tmp_telescope.svg"
   xmlns:inkscape="http://www.inkscape.org/namespaces/inkscape"
   xmlns:sodipodi="http://sodipodi.sourceforge.net/DTD/sodipodi-0.dtd"
   xmlns="http://www.w3.org/2000/svg"
   xmlns:svg="http://www.w3.org/2000/svg">
  <defs
     id="defs6" />
  <sodipodi:namedview
     id="namedview6"
     pagecolor="#ffffff"
     bordercolor="#000000"
     borderopacity="0.25"
     inkscape:showpageshadow="2"
     inkscape:pageopacity="0.0"
     inkscape:pagecheckerboard="0"
     inkscape:deskcolor="#d1d1d1" />
  <path
     id="path1"
     style="baseline-shift:baseline;display:inline;overflow:visible;vector-effect:none;fill:#000000;stroke:none;stroke-linecap:butt;stroke-linejoin:miter;enable-background:accumulate;stop-color:#000000;stop-opacity:1;opacity:1"
     d="M 19.173828 1.9648438 C 19.025429 1.9706008 18.875351 1.9921805 18.726562 2.0292969 L 17.636719 2.3027344 C 16.584634 2.5659196 15.775721 3.3298674 15.402344 4.2773438 L 2.5410156 8.5058594 A 1.250125 1.250125 0 0 0 2.5234375 8.5117188 C 1.4011285 8.8984225 0.74430311 10.102557 1.0253906 11.255859 A 1.250125 1.250125 0 0 0 1.0273438 11.261719 L 1.5585938 13.390625 L 1.5585938 13.392578 C 1.8256359 14.541378 2.9976118 15.283383 4.1503906 15.033203 L 8.9160156 14.015625 C 9.0523635 14.423315 9.2666617 14.797581 9.5429688 15.117188 L 6.8828125 20.441406 A 1.25 1.25 0 0 0 7.4414062 22.117188 A 1.25 1.25 0 0 0 9.1171875 21.558594 L 11.775391 16.242188 C 11.849376 16.247344 11.924821 16.25 12 16.25 C 12.075179 16.25 12.150624 16.247344 12.224609 16.242188 L 14.882812 21.558594 A 1.25 1.25 0 0 0 16.558594 22.117188 A 1.25 1.25 0 0 0 17.117188 20.441406 L 14.457031 15.117188 C 14.950443 14.546455 15.25 13.804517 15.25 13 C 15.25 12.887849 15.2438 12.777366 15.232422 12.667969 L 17.523438 12.179688 C 18.2797 12.738646 19.269432 12.971552 20.242188 12.728516 L 21.332031 12.455078 A 1.250125 1.250125 0 0 0 21.333984 12.455078 C 22.524966 12.156687 23.267081 10.917559 22.96875 9.7265625 L 21.455078 3.6660156 C 21.193948 2.6248269 20.212621 1.9245443 19.173828 1.9648438 z M 19.089844 4.515625 L 20.484375 10.089844 L 19.636719 10.302734 C 19.357538 10.372487 19.090677 10.289206 18.914062 10.101562 A 1.25 1.25 0 0 0 18.833984 10 C 18.78731 9.9284219 18.751091 9.8461038 18.728516 9.7558594 L 17.697266 5.6367188 C 17.680016 5.5676789 17.671196 5.4999163 17.671875 5.4335938 A 1.25 1.25 0 0 0 17.683594 5.3085938 C 17.73366 5.0307021 17.941324 4.8042671 18.244141 4.7285156 L 19.089844 4.515625 z M 15.435547 6.8984375 L 16.189453 9.9082031 L 13.925781 10.390625 C 13.384825 9.9884784 12.717983 9.75 12 9.75 C 10.797858 9.75 9.7378096 10.420761 9.1757812 11.404297 L 8.1914062 11.613281 L 7.6523438 9.4570312 L 15.435547 6.8984375 z M 5.2714844 10.240234 L 5.7441406 12.136719 L 3.9199219 12.525391 L 3.4941406 10.824219 L 5.2714844 10.240234 z M 12 12.25 C 12.216525 12.25 12.404952 12.332604 12.539062 12.46875 A 1.25 1.25 0 0 0 12.630859 12.582031 C 12.706491 12.699705 12.75 12.842893 12.75 13 C 12.75 13.279243 12.613641 13.513596 12.400391 13.642578 A 1.25 1.25 0 0 0 12.335938 13.671875 A 1.25 1.25 0 0 0 12.287109 13.697266 C 12.199404 13.731422 12.103159 13.75 12 13.75 C 11.896843 13.75 11.800595 13.731421 11.712891 13.697266 A 1.25 1.25 0 0 0 11.664062 13.671875 A 1.25 1.25 0 0 0 11.599609 13.642578 C 11.386361 13.513595 11.25 13.279241 11.25 13 C 11.25 12.943392 11.254938 12.888294 11.265625 12.835938 A 1.25 1.25 0 0 0 11.285156 12.765625 C 11.378875 12.459708 11.653952 12.25 12 12.25 z " />
</svg>
