<?xml version="1.0" encoding="UTF-8" standalone="no"?>
<svg
   width="24"
   height="24"
   viewBox="0 0 24 24"
   fill="none"
   stroke="currentColor"
   stroke-width="2.5"
   stroke-linecap="round"
   stroke-linejoin="round"
   version="1.1"
   id="svg4"
   sodipodi:docname=".tmp_tickets.svg"
   xmlns:inkscape="http://www.inkscape.org/namespaces/inkscape"
   xmlns:sodipodi="http://sodipodi.sourceforge.net/DTD/sodipodi-0.dtd"
   xmlns="http://www.w3.org/2000/svg"
   xmlns:svg="http://www.w3.org/2000/svg">
  <defs
     id="defs4" />
  <sodipodi:namedview
     id="namedview4"
     pagecolor="#ffffff"
     bordercolor="#000000"
     borderopacity="0.25"
     inkscape:showpageshadow="2"
     inkscape:pageopacity="0.0"
     inkscape:pagecheckerboard="0"
     inkscape:deskcolor="#d1d1d1" />
  <path
     id="path1"
     style="baseline-shift:baseline;display:inline;overflow:visible;vector-effect:none;fill:#000000;stroke:none;stroke-linecap:butt;stroke-linejoin:miter;enable-background:accumulate;stop-color:#000000;stop-opacity:1;opacity:1"
     d="M 15.414062 1.5996094 C 15.118895 1.610092 14.821568 1.6782197 14.541016 1.8125 L 4.21875 6.75 L 4 6.75 C 2.2211215 6.75 0.75 8.2211215 0.75 10 L 0.75 19 C 0.75 20.778878 2.2211215 22.25 4 22.25 L 6 22.25 L 20 22.25 C 21.778878 22.25 23.25 20.778878 23.25 19 L 23.25 10 C 23.25 8.2211215 21.778878 6.75 20 6.75 L 19.306641 6.75 L 17.560547 2.9101562 C 17.303009 2.3439076 16.827558 1.9364061 16.277344 1.7363281 C 16.002236 1.6362891 15.70923 1.5891267 15.414062 1.5996094 z M 15.388672 4.1777344 L 16.558594 6.75 L 10.009766 6.75 L 15.388672 4.1777344 z M 4 9.25 L 4.75 9.25 L 4.75 10 A 1.25 1.25 0 0 0 6 11.25 A 1.25 1.25 0 0 0 7.25 10 L 7.25 9.25 L 18.449219 9.25 L 18.550781 9.25 L 20 9.25 C 20.437122 9.25 20.75 9.5628785 20.75 10 L 20.75 19 C 20.75 19.437122 20.437122 19.75 20 19.75 L 7.25 19.75 L 7.25 19 A 1.25 1.25 0 0 0 6 17.75 A 1.25 1.25 0 0 0 4.75 19 L 4.75 19.75 L 4 19.75 C 3.5628785 19.75 3.25 19.437122 3.25 19 L 3.25 10 C 3.25 9.5628785 3.5628785 9.25 4 9.25 z M 6 12.75 A 1.25 1.25 0 0 0 4.75 14 L 4.75 15 A 1.25 1.25 0 0 0 6 16.25 A 1.25 1.25 0 0 0 7.25 15 L 7.25 14 A 1.25 1.25 0 0 0 6 12.75 z " />
</svg>
