<?xml version="1.0" encoding="UTF-8" standalone="no"?>
<svg
   width="24"
   height="24"
   viewBox="0 0 24 24"
   fill="none"
   stroke="currentColor"
   stroke-width="2.5"
   stroke-linecap="round"
   stroke-linejoin="round"
   version="1.1"
   id="svg1"
   sodipodi:docname=".tmp_toggle-left.svg"
   xmlns:inkscape="http://www.inkscape.org/namespaces/inkscape"
   xmlns:sodipodi="http://sodipodi.sourceforge.net/DTD/sodipodi-0.dtd"
   xmlns="http://www.w3.org/2000/svg"
   xmlns:svg="http://www.w3.org/2000/svg">
  <defs
     id="defs1" />
  <sodipodi:namedview
     id="namedview1"
     pagecolor="#ffffff"
     bordercolor="#000000"
     borderopacity="0.25"
     inkscape:showpageshadow="2"
     inkscape:pageopacity="0.0"
     inkscape:pagecheckerboard="0"
     inkscape:deskcolor="#d1d1d1" />
  <path
     id="circle1"
     style="baseline-shift:baseline;display:inline;overflow:visible;vector-effect:none;fill:#000000;stroke:none;stroke-linecap:butt;stroke-linejoin:miter;enable-background:accumulate;stop-color:#000000;stop-opacity:1;opacity:1"
     d="M 9 3.75 C 4.4511215 3.75 0.75 7.4511215 0.75 12 C 0.75 16.548878 4.4511215 20.25 9 20.25 L 15 20.25 C 19.548878 20.25 23.25 16.548878 23.25 12 C 23.25 7.4511215 19.548878 3.75 15 3.75 L 9 3.75 z M 9 6.25 L 15 6.25 C 18.207122 6.25 20.75 8.7928785 20.75 12 C 20.75 15.207122 18.207122 17.75 15 17.75 L 9 17.75 C 5.7928785 17.75 3.25 15.207122 3.25 12 C 3.25 8.7928785 5.7928785 6.25 9 6.25 z M 9 7.75 C 6.6675956 7.75 4.75 9.6675956 4.75 12 C 4.75 14.332404 6.6675956 16.25 9 16.25 C 11.332404 16.25 13.25 14.332404 13.25 12 C 13.25 9.6675956 11.332404 7.75 9 7.75 z M 9 10.25 C 9.9813041 10.25 10.75 11.018696 10.75 12 C 10.75 12.981304 9.9813041 13.75 9 13.75 C 8.0186959 13.75 7.25 12.981304 7.25 12 C 7.25 11.018696 8.0186959 10.25 9 10.25 z " />
</svg>
