<?xml version="1.0" encoding="UTF-8" standalone="no"?>
<svg
   width="24"
   height="24"
   viewBox="0 0 24 24"
   fill="none"
   stroke="currentColor"
   stroke-width="2.5"
   stroke-linecap="round"
   stroke-linejoin="round"
   version="1.1"
   id="svg4"
   sodipodi:docname=".tmp_truck.svg"
   xmlns:inkscape="http://www.inkscape.org/namespaces/inkscape"
   xmlns:sodipodi="http://sodipodi.sourceforge.net/DTD/sodipodi-0.dtd"
   xmlns="http://www.w3.org/2000/svg"
   xmlns:svg="http://www.w3.org/2000/svg">
  <defs
     id="defs4" />
  <sodipodi:namedview
     id="namedview4"
     pagecolor="#ffffff"
     bordercolor="#000000"
     borderopacity="0.25"
     inkscape:showpageshadow="2"
     inkscape:pageopacity="0.0"
     inkscape:pagecheckerboard="0"
     inkscape:deskcolor="#d1d1d1" />
  <path
     id="path1"
     style="baseline-shift:baseline;display:inline;overflow:visible;vector-effect:none;fill:#000000;stroke:none;stroke-linecap:butt;stroke-linejoin:miter;enable-background:accumulate;stop-color:#000000;stop-opacity:1;opacity:1"
     d="M 4 2.75 C 2.2198804 2.75 0.75 4.2198804 0.75 6 L 0.75 17 C 0.75 18.227835 1.7721651 19.25 3 19.25 L 4.0039062 19.25 C 4.4986506 20.419024 5.6615492 21.25 7 21.25 C 8.3384508 21.25 9.5013494 20.419024 9.9960938 19.25 L 14.003906 19.25 C 14.498649 20.419027 15.661547 21.25 17 21.25 C 18.338451 21.25 19.50135 20.419024 19.996094 19.25 L 21 19.25 C 22.227835 19.25 23.25 18.227835 23.25 17 L 23.25 13.349609 A 1.250125 1.250125 0 0 0 23.25 13.347656 C 23.249092 12.837903 23.074496 12.34316 22.755859 11.945312 L 22.755859 11.943359 L 19.275391 7.5957031 C 18.849702 7.0635186 18.203038 6.7509713 17.521484 6.75 A 1.250125 1.250125 0 0 0 17.519531 6.75 L 15.25 6.75 L 15.25 6 C 15.25 4.2198804 13.78012 2.75 12 2.75 L 4 2.75 z M 4 5.25 L 12 5.25 C 12.429019 5.25 12.75 5.5709806 12.75 6 L 12.75 16.75 L 9.9960938 16.75 C 9.5013494 15.580976 8.3384508 14.75 7 14.75 C 5.6615492 14.75 4.4986506 15.580976 4.0039062 16.75 L 3.25 16.75 L 3.25 6 C 3.25 5.5709806 3.5709806 5.25 4 5.25 z M 15.25 9.25 L 17.398438 9.25 L 20.75 13.439453 L 20.75 16.75 L 19.996094 16.75 C 19.50135 15.580976 18.338451 14.75 17 14.75 C 16.35823 14.75 15.756784 14.941775 15.25 15.269531 L 15.25 9.25 z M 7 17.25 C 7.4290194 17.25 7.75 17.570981 7.75 18 C 7.75 18.429019 7.4290194 18.75 7 18.75 C 6.5709806 18.75 6.25 18.429019 6.25 18 C 6.25 17.570981 6.5709806 17.25 7 17.25 z M 17 17.25 C 17.429019 17.25 17.75 17.570981 17.75 18 C 17.75 18.429019 17.429019 18.75 17 18.75 C 16.570981 18.75 16.25 18.429019 16.25 18 C 16.25 17.570981 16.570981 17.25 17 17.25 z " />
</svg>
