<?xml version="1.0" encoding="UTF-8" standalone="no"?>
<svg
   width="24"
   height="24"
   viewBox="0 0 24 24"
   fill="none"
   stroke="currentColor"
   stroke-width="2.5"
   stroke-linecap="round"
   stroke-linejoin="round"
   version="1.1"
   id="svg1"
   sodipodi:docname=".tmp_underline.svg"
   xmlns:inkscape="http://www.inkscape.org/namespaces/inkscape"
   xmlns:sodipodi="http://sodipodi.sourceforge.net/DTD/sodipodi-0.dtd"
   xmlns="http://www.w3.org/2000/svg"
   xmlns:svg="http://www.w3.org/2000/svg">
  <defs
     id="defs1" />
  <sodipodi:namedview
     id="namedview1"
     pagecolor="#ffffff"
     bordercolor="#000000"
     borderopacity="0.25"
     inkscape:showpageshadow="2"
     inkscape:pageopacity="0.0"
     inkscape:pagecheckerboard="0"
     inkscape:deskcolor="#d1d1d1" />
  <path
     id="path1"
     style="baseline-shift:baseline;display:inline;overflow:visible;vector-effect:none;fill:#000000;stroke:none;stroke-linecap:butt;stroke-linejoin:miter;enable-background:accumulate;stop-color:#000000;stop-opacity:1;opacity:1"
     d="M 6 2.75 A 1.25 1.25 0 0 0 4.75 4 L 4.75 10 C 4.75 13.98926 8.0107426 17.25 12 17.25 C 15.989257 17.25 19.25 13.98926 19.25 10 L 19.25 4 A 1.25 1.25 0 0 0 18 2.75 A 1.25 1.25 0 0 0 16.75 4 L 16.75 10 C 16.75 12.638161 14.638159 14.75 12 14.75 C 9.3618405 14.75 7.25 12.638161 7.25 10 L 7.25 4 A 1.25 1.25 0 0 0 6 2.75 z M 4 18.75 A 1.25 1.25 0 0 0 2.75 20 A 1.25 1.25 0 0 0 4 21.25 L 20 21.25 A 1.25 1.25 0 0 0 21.25 20 A 1.25 1.25 0 0 0 20 18.75 L 4 18.75 z " />
</svg>
