<?xml version="1.0" encoding="UTF-8" standalone="no"?>
<svg
   width="24"
   height="24"
   viewBox="0 0 24 24"
   fill="none"
   stroke="currentColor"
   stroke-width="2.5"
   stroke-linecap="round"
   stroke-linejoin="round"
   version="1.1"
   id="svg2"
   sodipodi:docname=".tmp_user-search.svg"
   xmlns:inkscape="http://www.inkscape.org/namespaces/inkscape"
   xmlns:sodipodi="http://sodipodi.sourceforge.net/DTD/sodipodi-0.dtd"
   xmlns="http://www.w3.org/2000/svg"
   xmlns:svg="http://www.w3.org/2000/svg">
  <defs
     id="defs2" />
  <sodipodi:namedview
     id="namedview2"
     pagecolor="#ffffff"
     bordercolor="#000000"
     borderopacity="0.25"
     inkscape:showpageshadow="2"
     inkscape:pageopacity="0.0"
     inkscape:pagecheckerboard="0"
     inkscape:deskcolor="#d1d1d1" />
  <path
     id="circle1"
     style="baseline-shift:baseline;display:inline;overflow:visible;vector-effect:none;fill:#000000;stroke:none;stroke-linecap:butt;stroke-linejoin:miter;enable-background:accumulate;stop-color:#000000;stop-opacity:1;opacity:1"
     d="M 10 1.75 C 7.1153109 1.75 4.75 4.1153109 4.75 7 C 4.75 9.8846891 7.1153109 12.25 10 12.25 C 12.884689 12.25 15.25 9.8846891 15.25 7 C 15.25 4.1153109 12.884689 1.75 10 1.75 z M 10 4.25 C 11.533589 4.25 12.75 5.4664111 12.75 7 C 12.75 8.5335889 11.533589 9.75 10 9.75 C 8.4664111 9.75 7.25 8.5335889 7.25 7 C 7.25 5.4664111 8.4664111 4.25 10 4.25 z M 17 12.75 C 14.667596 12.75 12.75 14.667596 12.75 17 C 12.75 19.332404 14.667596 21.25 17 21.25 C 17.714882 21.25 18.390699 21.06897 18.984375 20.751953 L 20.115234 21.884766 A 1.25 1.25 0 0 0 21.884766 21.884766 A 1.25 1.25 0 0 0 21.884766 20.115234 L 20.751953 18.984375 C 21.06897 18.390699 21.25 17.714882 21.25 17 C 21.25 14.667596 19.332404 12.75 17 12.75 z M 7 13.75 C 4.1153109 13.75 1.75 16.115311 1.75 19 L 1.75 21 A 1.25 1.25 0 0 0 3 22.25 A 1.25 1.25 0 0 0 4.25 21 L 4.25 19 C 4.25 17.466411 5.4664111 16.25 7 16.25 L 10.300781 16.25 A 1.25 1.25 0 0 0 11.550781 15 A 1.25 1.25 0 0 0 10.300781 13.75 L 7 13.75 z M 17 15.25 C 17.981304 15.25 18.75 16.018696 18.75 17 C 18.75 17.40578 18.618093 17.774607 18.394531 18.068359 A 1.25 1.25 0 0 0 18.216797 18.216797 A 1.25 1.25 0 0 0 18.068359 18.394531 C 17.774607 18.618093 17.40578 18.75 17 18.75 C 16.018696 18.75 15.25 17.981304 15.25 17 C 15.25 16.018696 16.018696 15.25 17 15.25 z " />
</svg>
