<?xml version="1.0" encoding="UTF-8" standalone="no"?>
<svg
   width="24"
   height="24"
   viewBox="0 0 24 24"
   fill="none"
   stroke="currentColor"
   stroke-width="2.5"
   stroke-linecap="round"
   stroke-linejoin="round"
   version="1.1"
   id="svg2"
   sodipodi:docname=".tmp_user-star.svg"
   xmlns:inkscape="http://www.inkscape.org/namespaces/inkscape"
   xmlns:sodipodi="http://sodipodi.sourceforge.net/DTD/sodipodi-0.dtd"
   xmlns="http://www.w3.org/2000/svg"
   xmlns:svg="http://www.w3.org/2000/svg">
  <defs
     id="defs2" />
  <sodipodi:namedview
     id="namedview2"
     pagecolor="#ffffff"
     bordercolor="#000000"
     borderopacity="0.25"
     inkscape:showpageshadow="2"
     inkscape:pageopacity="0.0"
     inkscape:pagecheckerboard="0"
     inkscape:deskcolor="#d1d1d1" />
  <path
     id="path1"
     style="baseline-shift:baseline;display:inline;overflow:visible;vector-effect:none;fill:#000000;stroke:none;stroke-linecap:butt;stroke-linejoin:miter;enable-background:accumulate;stop-color:#000000;stop-opacity:1;opacity:1"
     d="M 10 1.75 C 7.1153109 1.75 4.75 4.1153109 4.75 7 C 4.75 9.8846891 7.1153109 12.25 10 12.25 C 12.884689 12.25 15.25 9.8846891 15.25 7 C 15.25 4.1153109 12.884689 1.75 10 1.75 z M 10 4.25 C 11.533589 4.25 12.75 5.4664111 12.75 7 C 12.75 8.5335889 11.533589 9.75 10 9.75 C 8.4664111 9.75 7.25 8.5335889 7.25 7 C 7.25 5.4664111 8.4664111 4.25 10 4.25 z M 17.029297 10.675781 C 16.177546 10.665069 15.257724 11.206336 14.904297 12.115234 L 14.244141 13.412109 L 12.820312 13.634766 C 11.842294 13.683485 11.037217 14.393648 10.78125 15.208984 C 10.526657 16.019945 10.777992 17.055782 11.542969 17.65625 L 12.542969 18.652344 L 12.318359 20.054688 C 12.057052 20.990321 12.464528 21.975027 13.148438 22.478516 C 13.83695 22.985393 14.908492 23.080396 15.726562 22.541016 L 17 21.890625 L 18.277344 22.544922 C 19.094649 23.081883 20.163903 22.986521 20.851562 22.480469 C 21.538832 21.974717 21.948383 20.982498 21.679688 20.042969 L 21.457031 18.654297 L 22.482422 17.630859 C 23.231556 17.020238 23.464876 15.989498 23.203125 15.185547 C 22.942449 14.384896 22.153046 13.694081 21.193359 13.636719 L 19.755859 13.412109 L 19.115234 12.15625 C 18.780749 11.246295 17.877056 10.686439 17.029297 10.675781 z M 17 13.509766 L 17.582031 14.658203 C 17.908846 15.301396 18.527439 15.749851 19.240234 15.861328 L 20.513672 16.060547 L 19.601562 16.970703 C 19.090259 17.479755 18.853279 18.207406 18.966797 18.919922 A 1.250125 1.250125 0 0 0 18.96875 18.921875 L 19.171875 20.195312 L 18.025391 19.607422 C 17.382291 19.277916 16.615756 19.277916 15.972656 19.607422 L 14.828125 20.193359 L 15.03125 18.921875 A 1.250125 1.250125 0 0 0 15.03125 18.919922 C 15.144768 18.207406 14.907787 17.481709 14.396484 16.972656 L 13.484375 16.060547 L 14.757812 15.861328 C 15.470607 15.749851 16.089201 15.301396 16.416016 14.658203 L 17 13.509766 z M 7 13.75 C 4.1153109 13.75 1.75 16.115311 1.75 19 L 1.75 21 A 1.25 1.25 0 0 0 3 22.25 A 1.25 1.25 0 0 0 4.25 21 L 4.25 19 C 4.25 17.466411 5.4664111 16.25 7 16.25 L 8 16.25 A 1.25 1.25 0 0 0 9.25 15 A 1.25 1.25 0 0 0 8 13.75 L 7 13.75 z " />
</svg>
