<?xml version="1.0" encoding="UTF-8" standalone="no"?>
<svg
   width="24"
   height="24"
   viewBox="0 0 24 24"
   fill="none"
   stroke="currentColor"
   stroke-width="2.5"
   stroke-linecap="round"
   stroke-linejoin="round"
   version="1.1"
   id="svg1"
   sodipodi:docname=".tmp_user-minus.svg"
   xmlns:inkscape="http://www.inkscape.org/namespaces/inkscape"
   xmlns:sodipodi="http://sodipodi.sourceforge.net/DTD/sodipodi-0.dtd"
   xmlns="http://www.w3.org/2000/svg"
   xmlns:svg="http://www.w3.org/2000/svg">
  <defs
     id="defs1" />
  <sodipodi:namedview
     id="namedview1"
     pagecolor="#ffffff"
     bordercolor="#000000"
     borderopacity="0.25"
     inkscape:showpageshadow="2"
     inkscape:pageopacity="0.0"
     inkscape:pagecheckerboard="0"
     inkscape:deskcolor="#d1d1d1" />
  <path
     id="path1"
     style="baseline-shift:baseline;display:inline;overflow:visible;vector-effect:none;fill:#000000;stroke:none;stroke-linecap:butt;stroke-linejoin:miter;enable-background:accumulate;stop-color:#000000;stop-opacity:1;opacity:1"
     d="M 9 1.75 C 6.1153109 1.75 3.75 4.1153109 3.75 7 C 3.75 9.8846891 6.1153109 12.25 9 12.25 C 11.884689 12.25 14.25 9.8846891 14.25 7 C 14.25 4.1153109 11.884689 1.75 9 1.75 z M 9 4.25 C 10.533589 4.25 11.75 5.4664111 11.75 7 C 11.75 8.5335889 10.533589 9.75 9 9.75 C 7.4664111 9.75 6.25 8.5335889 6.25 7 C 6.25 5.4664111 7.4664111 4.25 9 4.25 z M 16 9.75 A 1.25 1.25 0 0 0 14.75 11 A 1.25 1.25 0 0 0 16 12.25 L 22 12.25 A 1.25 1.25 0 0 0 23.25 11 A 1.25 1.25 0 0 0 22 9.75 L 16 9.75 z M 6 13.75 C 3.1153109 13.75 0.75 16.115311 0.75 19 L 0.75 21 A 1.25 1.25 0 0 0 2 22.25 A 1.25 1.25 0 0 0 3.25 21 L 3.25 19 C 3.25 17.466411 4.4664111 16.25 6 16.25 L 12 16.25 C 13.533589 16.25 14.75 17.466411 14.75 19 L 14.75 21 A 1.25 1.25 0 0 0 16 22.25 A 1.25 1.25 0 0 0 17.25 21 L 17.25 19 C 17.25 16.115311 14.884689 13.75 12 13.75 L 6 13.75 z " />
</svg>
