<?xml version="1.0" encoding="UTF-8" standalone="no"?>
<svg
   width="24"
   height="24"
   viewBox="0 0 24 24"
   fill="none"
   stroke="currentColor"
   stroke-width="2.5"
   stroke-linecap="round"
   stroke-linejoin="round"
   version="1.1"
   id="svg3"
   sodipodi:docname=".tmp_utensils.svg"
   xmlns:inkscape="http://www.inkscape.org/namespaces/inkscape"
   xmlns:sodipodi="http://sodipodi.sourceforge.net/DTD/sodipodi-0.dtd"
   xmlns="http://www.w3.org/2000/svg"
   xmlns:svg="http://www.w3.org/2000/svg">
  <defs
     id="defs3" />
  <sodipodi:namedview
     id="namedview3"
     pagecolor="#ffffff"
     bordercolor="#000000"
     borderopacity="0.25"
     inkscape:showpageshadow="2"
     inkscape:pageopacity="0.0"
     inkscape:pagecheckerboard="0"
     inkscape:deskcolor="#d1d1d1" />
  <path
     id="path1"
     style="baseline-shift:baseline;display:inline;overflow:visible;vector-effect:none;fill:#000000;stroke:none;stroke-linecap:butt;stroke-linejoin:miter;enable-background:accumulate;stop-color:#000000;stop-opacity:1;opacity:1"
     d="M 3 0.75 A 1.25 1.25 0 0 0 1.75 2 L 1.75 9 C 1.75 10.781818 3.2181818 12.25 5 12.25 L 5.75 12.25 L 5.75 22 A 1.25 1.25 0 0 0 7 23.25 A 1.25 1.25 0 0 0 8.25 22 L 8.25 12.25 L 9 12.25 C 10.78012 12.25 12.25 10.78012 12.25 9 L 12.25 2 A 1.25 1.25 0 0 0 11 0.75 A 1.25 1.25 0 0 0 9.75 2 L 9.75 9 C 9.75 9.4290194 9.4290194 9.75 9 9.75 L 8.25 9.75 L 8.25 2 A 1.25 1.25 0 0 0 7 0.75 A 1.25 1.25 0 0 0 5.75 2 L 5.75 9.75 L 5 9.75 C 4.5818182 9.75 4.25 9.4181818 4.25 9 L 4.25 2 A 1.25 1.25 0 0 0 3 0.75 z M 21 0.75 C 17.563026 0.75 14.75 3.5630261 14.75 7 L 14.75 13 C 14.75 14.781818 16.218182 16.25 18 16.25 L 19.75 16.25 L 19.75 22 A 1.25 1.25 0 0 0 21 23.25 A 1.25 1.25 0 0 0 22.25 22 L 22.25 15 L 22.25 2 A 1.250125 1.250125 0 0 0 21 0.75 z M 19.75 3.5 L 19.75 13.75 L 18 13.75 C 17.581818 13.75 17.25 13.418182 17.25 13 L 17.25 7 C 17.25 5.358543 18.294349 4.013652 19.75 3.5 z " />
</svg>
