<?xml version="1.0" encoding="UTF-8" standalone="no"?>
<svg
   width="24"
   height="24"
   viewBox="0 0 24 24"
   fill="none"
   stroke="currentColor"
   stroke-width="2.5"
   stroke-linecap="round"
   stroke-linejoin="round"
   version="1.1"
   id="svg3"
   sodipodi:docname=".tmp_wallpaper.svg"
   xmlns:inkscape="http://www.inkscape.org/namespaces/inkscape"
   xmlns:sodipodi="http://sodipodi.sourceforge.net/DTD/sodipodi-0.dtd"
   xmlns="http://www.w3.org/2000/svg"
   xmlns:svg="http://www.w3.org/2000/svg">
  <defs
     id="defs3" />
  <sodipodi:namedview
     id="namedview3"
     pagecolor="#ffffff"
     bordercolor="#000000"
     borderopacity="0.25"
     inkscape:showpageshadow="2"
     inkscape:pageopacity="0.0"
     inkscape:pagecheckerboard="0"
     inkscape:deskcolor="#d1d1d1" />
  <path
     id="path1"
     style="baseline-shift:baseline;display:inline;overflow:visible;vector-effect:none;fill:#000000;stroke:none;stroke-linecap:butt;stroke-linejoin:miter;enable-background:accumulate;stop-color:#000000;stop-opacity:1;opacity:1"
     d="M 4 1.75 C 2.2211215 1.75 0.75 3.2211215 0.75 5 L 0.75 15 C 0.75 16.778878 2.2211215 18.25 4 18.25 L 8.9335938 18.25 L 9.0664062 18.25 L 10.75 18.25 L 10.75 19.75 L 8 19.75 A 1.25 1.25 0 0 0 6.75 21 A 1.25 1.25 0 0 0 8 22.25 L 16 22.25 A 1.25 1.25 0 0 0 17.25 21 A 1.25 1.25 0 0 0 16 19.75 L 13.25 19.75 L 13.25 18.25 L 20 18.25 C 21.750428 18.25 23.202036 16.826386 23.248047 15.085938 A 1.25 1.25 0 0 0 23.25 14.933594 L 23.25 5 C 23.25 3.2211215 21.778878 1.75 20 1.75 L 4 1.75 z M 4 4.25 L 20 4.25 C 20.437122 4.25 20.75 4.5628785 20.75 5 L 20.75 11.982422 L 18.792969 10.025391 A 1.250125 1.250125 0 0 0 18.791016 10.023438 C 18.165465 9.4015703 17.339386 9.0888829 16.511719 9.0859375 C 15.684052 9.0829875 14.854606 9.3903486 14.224609 10.007812 A 1.250125 1.250125 0 0 0 14.216797 10.015625 L 8.4804688 15.75 L 4 15.75 C 3.5628785 15.75 3.25 15.437122 3.25 15 L 3.25 5 C 3.25 4.5628785 3.5628785 4.25 4 4.25 z M 8 5.75 C 6.2198804 5.75 4.75 7.2198804 4.75 9 C 4.75 10.78012 6.2198804 12.25 8 12.25 C 9.7801196 12.25 11.25 10.78012 11.25 9 C 11.25 7.2198804 9.7801196 5.75 8 5.75 z M 8 8.25 C 8.4290194 8.25 8.75 8.5709806 8.75 9 C 8.75 9.4290194 8.4290194 9.75 8 9.75 C 7.5709806 9.75 7.25 9.4290194 7.25 9 C 7.25 8.5709806 7.5709806 8.25 8 8.25 z M 16.501953 11.570312 C 16.690075 11.571019 16.878727 11.647188 17.029297 11.796875 L 20.640625 15.410156 C 20.512729 15.620124 20.282138 15.75 20 15.75 L 12.019531 15.75 L 15.974609 11.792969 C 16.126241 11.644354 16.313831 11.569606 16.501953 11.570312 z " />
</svg>
