<?xml version="1.0" encoding="UTF-8" standalone="no"?>
<svg
   width="24"
   height="24"
   viewBox="0 0 24 24"
   fill="none"
   stroke="currentColor"
   stroke-width="2.5"
   stroke-linecap="round"
   stroke-linejoin="round"
   version="1.1"
   id="svg3"
   sodipodi:docname=".tmp_washing-machine.svg"
   xmlns:inkscape="http://www.inkscape.org/namespaces/inkscape"
   xmlns:sodipodi="http://sodipodi.sourceforge.net/DTD/sodipodi-0.dtd"
   xmlns="http://www.w3.org/2000/svg"
   xmlns:svg="http://www.w3.org/2000/svg">
  <defs
     id="defs3" />
  <sodipodi:namedview
     id="namedview3"
     pagecolor="#ffffff"
     bordercolor="#000000"
     borderopacity="0.25"
     inkscape:showpageshadow="2"
     inkscape:pageopacity="0.0"
     inkscape:pagecheckerboard="0"
     inkscape:deskcolor="#d1d1d1" />
  <path
     id="path1"
     style="baseline-shift:baseline;display:inline;overflow:visible;vector-effect:none;fill:#000000;stroke:none;stroke-linecap:butt;stroke-linejoin:miter;enable-background:accumulate;stop-color:#000000;stop-opacity:1;opacity:1"
     d="M 5 0.75 C 3.2211215 0.75 1.75 2.2211215 1.75 4 L 1.75 20 C 1.75 21.778878 3.2211215 23.25 5 23.25 L 19 23.25 C 20.778878 23.25 22.25 21.778878 22.25 20 L 22.25 4 C 22.25 2.2211215 20.778878 0.75 19 0.75 L 5 0.75 z M 5 3.25 L 19 3.25 C 19.437122 3.25 19.75 3.5628785 19.75 4 L 19.75 20 C 19.75 20.437122 19.437122 20.75 19 20.75 L 5 20.75 C 4.5628785 20.75 4.25 20.437122 4.25 20 L 4.25 7.25 L 6 7.25 A 1.25 1.25 0 0 0 7.25 6 A 1.25 1.25 0 0 0 6 4.75 L 4.25 4.75 L 4.25 4 C 4.25 3.5628785 4.5628785 3.25 5 3.25 z M 17 4.75 A 1.25 1.25 0 0 0 15.75 6 A 1.25 1.25 0 0 0 17 7.25 L 17.009766 7.25 A 1.25 1.25 0 0 0 18.259766 6 A 1.25 1.25 0 0 0 17.009766 4.75 L 17 4.75 z M 12 6.75 C 11.856769 6.75 11.714903 6.7570853 11.576172 6.7714844 C 11.574232 6.7716164 11.572252 6.7713505 11.570312 6.7714844 C 8.3324243 6.9950174 5.75 9.7079743 5.75 13 C 5.75 16.436974 8.5630261 19.25 12 19.25 C 12.142977 19.25 12.283168 19.238094 12.423828 19.228516 C 12.425771 19.228314 12.427746 19.22872 12.429688 19.228516 C 15.667576 19.004983 18.25 16.292026 18.25 13 C 18.25 9.5630261 15.436974 6.75 12 6.75 z M 12 9.25 C 14.085874 9.25 15.75 10.914126 15.75 13 C 15.75 13.432458 15.678866 13.847293 15.546875 14.232422 C 15.393097 13.772292 15.149406 13.334586 14.808594 12.951172 C 14.162836 12.224694 13.145833 11.75 12 11.75 C 11.479167 11.75 11.246169 11.599694 11.058594 11.388672 C 10.871018 11.177649 10.75 10.847222 10.75 10.5 C 10.75 10.152778 10.871018 9.8223507 11.058594 9.6113281 C 11.222722 9.4266834 11.42228 9.289467 11.818359 9.2578125 C 11.874942 9.2532904 11.934896 9.25 12 9.25 z M 8.453125 11.767578 C 8.6069029 12.227709 8.8505932 12.665414 9.1914062 13.048828 C 9.8371635 13.775306 10.854167 14.25 12 14.25 C 12.520833 14.25 12.753831 14.400306 12.941406 14.611328 C 13.128982 14.822351 13.25 15.152778 13.25 15.5 C 13.25 15.847222 13.128982 16.177649 12.941406 16.388672 C 12.777278 16.573316 12.57772 16.710533 12.181641 16.742188 C 12.121174 16.745023 12.061224 16.75 12 16.75 C 9.9141264 16.75 8.25 15.085874 8.25 13 C 8.25 12.567542 8.3211335 12.152707 8.453125 11.767578 z " />
</svg>
