<?xml version="1.0" encoding="UTF-8" standalone="no"?>
<svg
   width="24"
   height="24"
   viewBox="0 0 24 24"
   fill="none"
   stroke="currentColor"
   stroke-width="2.5"
   stroke-linecap="round"
   stroke-linejoin="round"
   version="1.1"
   id="svg8"
   sodipodi:docname=".tmp_wheat.svg"
   xmlns:inkscape="http://www.inkscape.org/namespaces/inkscape"
   xmlns:sodipodi="http://sodipodi.sourceforge.net/DTD/sodipodi-0.dtd"
   xmlns="http://www.w3.org/2000/svg"
   xmlns:svg="http://www.w3.org/2000/svg">
  <defs
     id="defs8" />
  <sodipodi:namedview
     id="namedview8"
     pagecolor="#ffffff"
     bordercolor="#000000"
     borderopacity="0.25"
     inkscape:showpageshadow="2"
     inkscape:pageopacity="0.0"
     inkscape:pagecheckerboard="0"
     inkscape:deskcolor="#d1d1d1" />
  <path
     id="path1"
     style="baseline-shift:baseline;display:inline;overflow:visible;vector-effect:none;fill:#000000;stroke:none;stroke-linecap:butt;stroke-linejoin:miter;enable-background:accumulate;stop-color:#000000;stop-opacity:1;opacity:1"
     d="M 20 0.75 C 17.986685 0.75 16.225473 1.9013586 15.345703 3.578125 L 13.884766 2.1152344 A 1.250125 1.250125 0 0 0 12.115234 2.1152344 L 10.585938 3.6464844 A 1.250125 1.250125 0 0 0 10.583984 3.6484375 C 9.9707341 4.2641056 9.5629269 5.0106638 9.359375 5.8007812 A 1.250125 1.250125 0 0 0 8.1152344 6.1152344 L 6.5859375 7.6464844 A 1.250125 1.250125 0 0 0 6.5839844 7.6484375 C 5.9707305 8.264109 5.5629258 9.0106589 5.359375 9.8007812 A 1.250125 1.250125 0 0 0 4.1152344 10.115234 L 2.5859375 11.646484 A 1.250125 1.250125 0 0 0 2.5839844 11.648438 C 0.74811673 13.491542 0.74811673 16.508458 2.5839844 18.351562 A 1.250125 1.250125 0 0 0 2.5859375 18.353516 L 3.2304688 19 L 1.1152344 21.115234 A 1.25 1.25 0 0 0 1.1152344 22.884766 A 1.25 1.25 0 0 0 2.8847656 22.884766 L 5 20.769531 L 5.6464844 21.414062 A 1.250125 1.250125 0 0 0 5.6484375 21.416016 C 7.491543 23.251883 10.508457 23.251883 12.351562 21.416016 A 1.250125 1.250125 0 0 0 12.353516 21.414062 L 13.884766 19.884766 A 1.250125 1.250125 0 0 0 14.199219 18.640625 C 14.989319 18.437069 15.735907 18.029254 16.351562 17.416016 A 1.250125 1.250125 0 0 0 16.353516 17.414062 L 17.884766 15.884766 A 1.250125 1.250125 0 0 0 18.199219 14.640625 C 18.989324 14.43707 19.735903 14.029257 20.351562 13.416016 A 1.250125 1.250125 0 0 0 20.353516 13.414062 L 21.884766 11.884766 A 1.250125 1.250125 0 0 0 21.884766 10.115234 L 20.421875 8.6542969 C 22.098624 7.7745212 23.25 6.0133021 23.25 4 L 23.25 2 A 1.250125 1.250125 0 0 0 22 0.75 L 20 0.75 z M 20 3.25 L 20.75 3.25 L 20.75 4 C 20.75 5.5335889 19.533589 6.75 18 6.75 L 17.25 6.75 L 17.25 6 C 17.25 4.4664111 18.466411 3.25 20 3.25 z M 13 4.7675781 L 13.644531 5.4121094 C 14.528304 6.2993655 14.530094 7.695508 13.648438 8.5839844 A 1.250125 1.250125 0 0 0 13.646484 8.5859375 C 13.645955 8.5864696 13.645061 8.5873588 13.644531 8.5878906 L 13.642578 8.5898438 L 13 9.2304688 L 12.353516 8.5859375 C 11.47131 7.69818 11.47131 6.30182 12.353516 5.4140625 L 13 4.7675781 z M 9 8.7675781 L 9.6445312 9.4121094 C 10.528048 10.299109 10.527376 11.697424 9.6464844 12.585938 L 9.6445312 12.587891 L 9.6425781 12.589844 L 9 13.230469 L 8.3535156 12.585938 C 7.4713098 11.69818 7.4713098 10.30182 8.3535156 9.4140625 L 9 8.7675781 z M 17 9.6914062 C 17.571849 9.6914062 18.143731 9.9130528 18.587891 10.355469 L 19.232422 11 L 18.587891 11.644531 C 17.70023 12.528706 16.30248 12.529299 15.414062 11.646484 L 15.412109 11.644531 L 14.767578 11 L 15.412109 10.355469 C 15.412711 10.35487 15.413461 10.354114 15.414062 10.353516 A 1.250125 1.250125 0 0 0 15.416016 10.351562 L 15.417969 10.349609 L 15.466797 10.302734 C 15.902608 9.8957294 16.451536 9.6914062 17 9.6914062 z M 5 12.767578 L 5.6445312 13.412109 C 6.528048 14.29911 6.5273757 15.697424 5.6464844 16.585938 L 5.6445312 16.587891 L 5.6425781 16.589844 L 5 17.230469 L 4.3535156 16.585938 C 3.4713098 15.69818 3.4713098 14.301819 4.3535156 13.414062 L 5 12.767578 z M 13 13.691406 C 13.571849 13.691406 14.143731 13.913053 14.587891 14.355469 L 15.232422 15 L 14.587891 15.644531 C 13.70023 16.528706 12.30248 16.529299 11.414062 15.646484 L 11.412109 15.644531 L 10.769531 15 L 10.859375 14.910156 L 11.414062 14.353516 A 1.250125 1.250125 0 0 0 11.416016 14.351562 L 11.417969 14.349609 L 11.466797 14.302734 C 11.902587 13.895814 12.451593 13.691406 13 13.691406 z M 9 17.691406 C 9.5709996 17.691406 10.142058 17.912413 10.585938 18.353516 L 11.232422 19 L 10.587891 19.644531 C 9.7002299 20.528706 8.30248 20.529299 7.4140625 19.646484 L 7.4121094 19.644531 L 6.7675781 19 L 7.4121094 18.355469 L 7.4140625 18.353516 A 1.250125 1.250125 0 0 0 7.4160156 18.351562 C 7.4175638 18.350008 7.4183763 18.349212 7.4199219 18.347656 L 7.46875 18.300781 C 7.9044351 17.89432 8.4518748 17.691406 9 17.691406 z " />
</svg>
