<?xml version="1.0" encoding="UTF-8" standalone="no"?>
<svg
   width="24"
   height="24"
   viewBox="0 0 24 24"
   fill="none"
   stroke="currentColor"
   stroke-width="0.75"
   stroke-linecap="round"
   stroke-linejoin="round"
   version="1.1"
   id="svg1"
   sodipodi:docname=".tmp_activity.svg"
   xmlns:inkscape="http://www.inkscape.org/namespaces/inkscape"
   xmlns:sodipodi="http://sodipodi.sourceforge.net/DTD/sodipodi-0.dtd"
   xmlns="http://www.w3.org/2000/svg"
   xmlns:svg="http://www.w3.org/2000/svg">
  <defs
     id="defs1" />
  <sodipodi:namedview
     id="namedview1"
     pagecolor="#ffffff"
     bordercolor="#000000"
     borderopacity="0.25"
     inkscape:showpageshadow="2"
     inkscape:pageopacity="0.0"
     inkscape:pagecheckerboard="0"
     inkscape:deskcolor="#d1d1d1" />
  <path
     id="path1"
     style="baseline-shift:baseline;display:inline;overflow:visible;vector-effect:none;fill:#000000;stroke:none;stroke-linecap:butt;stroke-linejoin:miter;enable-background:accumulate;stop-color:#000000;stop-opacity:1;opacity:1"
     d="M 9 1.625 C 8.7511585 1.625 8.4810866 1.7975467 8.4003906 2.0742188 A 0.3750375 0.3750375 0 0 0 8.3984375 2.078125 L 6.0488281 10.439453 C 5.8521413 11.140879 5.2167591 11.622915 4.4882812 11.625 L 2 11.625 A 0.375 0.375 0 0 0 1.625 12 A 0.375 0.375 0 0 0 2 12.375 L 4.4902344 12.375 C 5.5507102 12.372 6.4851591 11.66172 6.7714844 10.640625 L 9 2.7128906 L 14.398438 21.921875 A 0.3750375 0.3750375 0 0 0 14.400391 21.925781 C 14.48104 22.202459 14.751159 22.375 15 22.375 C 15.248841 22.375 15.518913 22.202453 15.599609 21.925781 A 0.3750375 0.3750375 0 0 0 15.601562 21.921875 L 17.951172 13.560547 C 18.148637 12.856182 18.788006 12.373435 19.519531 12.375 L 22 12.375 A 0.375 0.375 0 0 0 22.375 12 A 0.375 0.375 0 0 0 22 11.625 L 19.521484 11.625 L 19.519531 11.625 C 18.455485 11.6236 17.515848 12.334697 17.228516 13.359375 L 15 21.287109 L 9.6015625 2.078125 A 0.3750375 0.3750375 0 0 0 9.5996094 2.0742188 C 9.5189103 1.7975504 9.2488415 1.625 9 1.625 z " />
</svg>
