<?xml version="1.0" encoding="UTF-8" standalone="no"?>
<svg
   width="24"
   height="24"
   viewBox="0 0 24 24"
   fill="none"
   stroke="currentColor"
   stroke-width="0.75"
   stroke-linecap="round"
   stroke-linejoin="round"
   version="1.1"
   id="svg4"
   sodipodi:docname=".tmp_arrow-up-down.svg"
   xmlns:inkscape="http://www.inkscape.org/namespaces/inkscape"
   xmlns:sodipodi="http://sodipodi.sourceforge.net/DTD/sodipodi-0.dtd"
   xmlns="http://www.w3.org/2000/svg"
   xmlns:svg="http://www.w3.org/2000/svg">
  <defs
     id="defs4" />
  <sodipodi:namedview
     id="namedview4"
     pagecolor="#ffffff"
     bordercolor="#000000"
     borderopacity="0.25"
     inkscape:showpageshadow="2"
     inkscape:pageopacity="0.0"
     inkscape:pagecheckerboard="0"
     inkscape:deskcolor="#d1d1d1" />
  <path
     id="path1"
     style="baseline-shift:baseline;display:inline;overflow:visible;vector-effect:none;fill:#000000;stroke:none;stroke-linecap:butt;stroke-linejoin:miter;enable-background:accumulate;stop-color:#000000;stop-opacity:1;opacity:1"
     d="M 7 3.625 A 0.3750375 0.3750375 0 0 0 6.734375 3.734375 L 2.734375 7.734375 A 0.375 0.375 0 0 0 2.734375 8.265625 A 0.375 0.375 0 0 0 3.265625 8.265625 L 6.625 4.90625 L 6.625 20 A 0.375 0.375 0 0 0 7 20.375 A 0.375 0.375 0 0 0 7.375 20 L 7.375 4.90625 L 10.734375 8.265625 A 0.375 0.375 0 0 0 11.265625 8.265625 A 0.375 0.375 0 0 0 11.265625 7.734375 L 7.265625 3.734375 A 0.3750375 0.3750375 0 0 0 7 3.625 z M 17 3.625 A 0.375 0.375 0 0 0 16.625 4 L 16.625 19.09375 L 13.265625 15.734375 A 0.375 0.375 0 0 0 12.734375 15.734375 A 0.375 0.375 0 0 0 12.734375 16.265625 L 16.734375 20.265625 A 0.3750375 0.3750375 0 0 0 17.265625 20.265625 L 21.265625 16.265625 A 0.375 0.375 0 0 0 21.265625 15.734375 A 0.375 0.375 0 0 0 20.734375 15.734375 L 17.375 19.09375 L 17.375 4 A 0.375 0.375 0 0 0 17 3.625 z " />
</svg>
