<?xml version="1.0" encoding="UTF-8" standalone="no"?>
<svg
   width="24"
   height="24"
   viewBox="0 0 24 24"
   fill="none"
   stroke="currentColor"
   stroke-width="0.75"
   stroke-linecap="round"
   stroke-linejoin="round"
   version="1.1"
   id="svg4"
   sodipodi:docname=".tmp_battery-full.svg"
   xmlns:inkscape="http://www.inkscape.org/namespaces/inkscape"
   xmlns:sodipodi="http://sodipodi.sourceforge.net/DTD/sodipodi-0.dtd"
   xmlns="http://www.w3.org/2000/svg"
   xmlns:svg="http://www.w3.org/2000/svg">
  <defs
     id="defs4" />
  <sodipodi:namedview
     id="namedview4"
     pagecolor="#ffffff"
     bordercolor="#000000"
     borderopacity="0.25"
     inkscape:showpageshadow="2"
     inkscape:pageopacity="0.0"
     inkscape:pagecheckerboard="0"
     inkscape:deskcolor="#d1d1d1" />
  <path
     id="path1"
     style="baseline-shift:baseline;display:inline;overflow:visible;vector-effect:none;fill:#000000;stroke:none;stroke-linecap:butt;stroke-linejoin:miter;enable-background:accumulate;stop-color:#000000;stop-opacity:1;opacity:1"
     d="M 4 5.625 C 2.6907365 5.625 1.625 6.6907365 1.625 8 L 1.625 16 C 1.625 17.309264 2.6907365 18.375 4 18.375 L 16 18.375 C 17.309264 18.375 18.375 17.309264 18.375 16 L 18.375 8 C 18.375 6.6907365 17.309264 5.625 16 5.625 L 4 5.625 z M 4 6.375 L 16 6.375 C 16.906736 6.375 17.625 7.0932635 17.625 8 L 17.625 16 C 17.625 16.906736 16.906736 17.625 16 17.625 L 4 17.625 C 3.0932635 17.625 2.375 16.906736 2.375 16 L 2.375 8 C 2.375 7.0932635 3.0932635 6.375 4 6.375 z M 6 9.625 A 0.375 0.375 0 0 0 5.625 10 L 5.625 14 A 0.375 0.375 0 0 0 6 14.375 A 0.375 0.375 0 0 0 6.375 14 L 6.375 10 A 0.375 0.375 0 0 0 6 9.625 z M 10 9.625 A 0.375 0.375 0 0 0 9.625 10 L 9.625 14 A 0.375 0.375 0 0 0 10 14.375 A 0.375 0.375 0 0 0 10.375 14 L 10.375 10 A 0.375 0.375 0 0 0 10 9.625 z M 14 9.625 A 0.375 0.375 0 0 0 13.625 10 L 13.625 14 A 0.375 0.375 0 0 0 14 14.375 A 0.375 0.375 0 0 0 14.375 14 L 14.375 10 A 0.375 0.375 0 0 0 14 9.625 z M 22 9.625 A 0.375 0.375 0 0 0 21.625 10 L 21.625 14 A 0.375 0.375 0 0 0 22 14.375 A 0.375 0.375 0 0 0 22.375 14 L 22.375 10 A 0.375 0.375 0 0 0 22 9.625 z " />
</svg>
