<?xml version="1.0" encoding="UTF-8" standalone="no"?>
<svg
   width="24"
   height="24"
   viewBox="0 0 24 24"
   fill="none"
   stroke="currentColor"
   stroke-width="0.75"
   stroke-linecap="round"
   stroke-linejoin="round"
   version="1.1"
   id="svg1"
   sodipodi:docname=".tmp_bolt.svg"
   xmlns:inkscape="http://www.inkscape.org/namespaces/inkscape"
   xmlns:sodipodi="http://sodipodi.sourceforge.net/DTD/sodipodi-0.dtd"
   xmlns="http://www.w3.org/2000/svg"
   xmlns:svg="http://www.w3.org/2000/svg">
  <defs
     id="defs1" />
  <sodipodi:namedview
     id="namedview1"
     pagecolor="#ffffff"
     bordercolor="#000000"
     borderopacity="0.25"
     inkscape:showpageshadow="2"
     inkscape:pageopacity="0.0"
     inkscape:pagecheckerboard="0"
     inkscape:deskcolor="#d1d1d1" />
  <path
     id="path1"
     style="baseline-shift:baseline;display:inline;overflow:visible;vector-effect:none;fill:#000000;stroke:none;stroke-linecap:butt;stroke-linejoin:miter;enable-background:accumulate;stop-color:#000000;stop-opacity:1;opacity:1"
     d="M 12 1.6269531 C 11.589827 1.6269531 11.179653 1.7333364 10.8125 1.9453125 L 3.8144531 5.9453125 A 0.3750375 0.3750375 0 0 0 3.8125 5.9453125 C 3.0789404 6.3688309 2.6258688 7.1529627 2.625 8 L 2.625 16 C 2.6258688 16.847037 3.0789435 17.631169 3.8125 18.054688 A 0.3750375 0.3750375 0 0 0 3.8144531 18.054688 L 10.8125 22.054688 C 11.546807 22.478641 12.453193 22.478641 13.1875 22.054688 L 20.185547 18.054688 A 0.3750375 0.3750375 0 0 0 20.1875 18.054688 C 20.921012 17.631169 21.374131 16.847037 21.375 16 L 21.375 8 C 21.374131 7.1529627 20.921056 6.3688309 20.1875 5.9453125 A 0.3750375 0.3750375 0 0 0 20.185547 5.9453125 L 13.1875 1.9453125 C 12.820394 1.7333364 12.410173 1.6269531 12 1.6269531 z M 12 2.3769531 C 12.280426 2.3769531 12.560851 2.4504137 12.8125 2.5957031 A 0.3750375 0.3750375 0 0 0 12.814453 2.5957031 L 19.8125 6.5957031 C 20.315186 6.8859827 20.624405 7.4194405 20.625 8 L 20.625 16 C 20.624405 16.580559 20.31528 17.114017 19.8125 17.404297 L 12.814453 21.404297 A 0.3750375 0.3750375 0 0 0 12.8125 21.404297 C 12.309203 21.694876 11.690797 21.694876 11.1875 21.404297 A 0.3750375 0.3750375 0 0 0 11.185547 21.404297 L 4.1875 17.404297 C 3.6848143 17.114017 3.3755955 16.580559 3.375 16 L 3.375 8 C 3.3755955 7.4194405 3.6847203 6.8859827 4.1875 6.5957031 L 11.185547 2.5957031 A 0.3750375 0.3750375 0 0 0 11.1875 2.5957031 C 11.439148 2.4504137 11.719574 2.3769531 12 2.3769531 z M 12 7.625 C 9.588196 7.625 7.625 9.588196 7.625 12 C 7.625 14.411804 9.588196 16.375 12 16.375 C 14.411804 16.375 16.375 14.411804 16.375 12 C 16.375 9.588196 14.411804 7.625 12 7.625 z M 12 8.375 C 14.006474 8.375 15.625 9.993526 15.625 12 C 15.625 14.006474 14.006474 15.625 12 15.625 C 9.993526 15.625 8.375 14.006474 8.375 12 C 8.375 9.993526 9.993526 8.375 12 8.375 z " />
</svg>
