<?xml version="1.0" encoding="UTF-8" standalone="no"?>
<svg
   width="24"
   height="24"
   viewBox="0 0 24 24"
   fill="none"
   stroke="currentColor"
   stroke-width="0.75"
   stroke-linecap="round"
   stroke-linejoin="round"
   version="1.1"
   id="svg4"
   sodipodi:docname=".tmp_book-audio.svg"
   xmlns:inkscape="http://www.inkscape.org/namespaces/inkscape"
   xmlns:sodipodi="http://sodipodi.sourceforge.net/DTD/sodipodi-0.dtd"
   xmlns="http://www.w3.org/2000/svg"
   xmlns:svg="http://www.w3.org/2000/svg">
  <defs
     id="defs4" />
  <sodipodi:namedview
     id="namedview4"
     pagecolor="#ffffff"
     bordercolor="#000000"
     borderopacity="0.25"
     inkscape:showpageshadow="2"
     inkscape:pageopacity="0.0"
     inkscape:pagecheckerboard="0"
     inkscape:deskcolor="#d1d1d1" />
  <path
     id="path1"
     style="baseline-shift:baseline;display:inline;overflow:visible;vector-effect:none;fill:#000000;stroke:none;stroke-linecap:butt;stroke-linejoin:miter;enable-background:accumulate;stop-color:#000000;stop-opacity:1;opacity:1"
     d="M 6.5 1.625 C 4.9166231 1.625 3.625 2.9166231 3.625 4.5 L 3.625 19.5 C 3.625 20.208333 3.8583562 20.922682 4.34375 21.46875 C 4.8291438 22.014818 5.572917 22.375 6.5 22.375 L 19 22.375 C 19.75495 22.375 20.375 21.75495 20.375 21 L 20.375 17 L 20.375 3 C 20.375 2.2450502 19.75495 1.625 19 1.625 L 6.5 1.625 z M 6.5 2.375 L 19 2.375 C 19.34962 2.375 19.625 2.6503803 19.625 3 L 19.625 16.625 L 6.5 16.625 C 5.5890123 16.625 4.8607277 16.97759 4.375 17.507812 L 4.375 4.5 C 4.375 3.3219532 5.3219532 2.375 6.5 2.375 z M 12 5.625 A 0.375 0.375 0 0 0 11.625 6 L 11.625 13 A 0.375 0.375 0 0 0 12 13.375 A 0.375 0.375 0 0 0 12.375 13 L 12.375 6 A 0.375 0.375 0 0 0 12 5.625 z M 8 7.625 A 0.375 0.375 0 0 0 7.625 8 L 7.625 11 A 0.375 0.375 0 0 0 8 11.375 A 0.375 0.375 0 0 0 8.375 11 L 8.375 8 A 0.375 0.375 0 0 0 8 7.625 z M 16 7.625 A 0.375 0.375 0 0 0 15.625 8 L 15.625 11 A 0.375 0.375 0 0 0 16 11.375 A 0.375 0.375 0 0 0 16.375 11 L 16.375 8 A 0.375 0.375 0 0 0 16 7.625 z M 6.5 17.375 L 19.625 17.375 L 19.625 21 C 19.625 21.34962 19.34962 21.625 19 21.625 L 6.5 21.625 C 5.7604171 21.625 5.2541892 21.360182 4.90625 20.96875 C 4.5583108 20.577318 4.375 20.041667 4.375 19.5 C 4.375 18.958333 4.5583108 18.422682 4.90625 18.03125 C 5.2541892 17.639818 5.7604171 17.375 6.5 17.375 z " />
</svg>
