<?xml version="1.0" encoding="UTF-8" standalone="no"?>
<svg
   width="24"
   height="24"
   viewBox="0 0 24 24"
   fill="none"
   stroke="currentColor"
   stroke-width="0.75"
   stroke-linecap="round"
   stroke-linejoin="round"
   version="1.1"
   id="svg5"
   sodipodi:docname=".tmp_bow-arrow.svg"
   xmlns:inkscape="http://www.inkscape.org/namespaces/inkscape"
   xmlns:sodipodi="http://sodipodi.sourceforge.net/DTD/sodipodi-0.dtd"
   xmlns="http://www.w3.org/2000/svg"
   xmlns:svg="http://www.w3.org/2000/svg">
  <defs
     id="defs5" />
  <sodipodi:namedview
     id="namedview5"
     pagecolor="#ffffff"
     bordercolor="#000000"
     borderopacity="0.25"
     inkscape:showpageshadow="2"
     inkscape:pageopacity="0.0"
     inkscape:pagecheckerboard="0"
     inkscape:deskcolor="#d1d1d1" />
  <path
     id="path1"
     style="baseline-shift:baseline;display:inline;overflow:visible;vector-effect:none;fill:#000000;stroke:none;stroke-linecap:butt;stroke-linejoin:miter;enable-background:accumulate;stop-color:#000000;stop-opacity:1;opacity:1"
     d="M 17 2.625 A 0.375 0.375 0 0 0 16.625 3 A 0.375 0.375 0 0 0 17 3.375 L 20.09375 3.375 L 9.6679688 13.800781 C 9.4696476 13.689302 9.2420411 13.625 9 13.625 L 7 13.625 C 6.4473775 13.624077 5.91743 13.842935 5.5273438 14.234375 L 2.8828125 16.880859 C 2.6179891 17.145014 2.5672394 17.533592 2.6914062 17.833984 C 2.8155729 18.134376 3.1259557 18.374921 3.5 18.375 L 5 18.375 C 5.3496197 18.375 5.625 18.65038 5.625 19 L 5.625 20.5 C 5.6243301 20.874401 5.8635668 21.184032 6.1640625 21.308594 C 6.4645582 21.433155 6.8547338 21.384214 7.1191406 21.119141 L 9.765625 18.472656 C 10.157065 18.08257 10.375923 17.552623 10.375 17 L 10.375 15 C 10.375 14.757959 10.310698 14.530352 10.199219 14.332031 L 20.625 3.90625 L 20.625 7 A 0.375 0.375 0 0 0 21 7.375 A 0.375 0.375 0 0 0 21.375 7 L 21.375 3.0253906 A 0.375 0.375 0 0 0 21.375 3 A 0.375 0.375 0 0 0 21.361328 2.9023438 A 0.375 0.375 0 0 0 21.324219 2.8125 A 0.375 0.375 0 0 0 21.296875 2.7714844 A 0.3750375 0.3750375 0 0 0 21.296875 2.7695312 A 0.375 0.375 0 0 0 21.265625 2.734375 A 0.3750375 0.3750375 0 0 0 21.230469 2.703125 A 0.375 0.375 0 0 0 21.228516 2.703125 A 0.375 0.375 0 0 0 21.1875 2.6757812 A 0.375 0.375 0 0 0 21.097656 2.6386719 A 0.375 0.375 0 0 0 21 2.625 L 20.974609 2.625 L 17 2.625 z M 7.3574219 3.6328125 C 6.1686934 3.6009263 4.9729676 3.7269868 3.8007812 4.015625 C 2.6886489 4.2875216 2.2509414 5.6780913 3.0078125 6.5371094 A 0.3750375 0.3750375 0 0 0 3.0253906 6.5546875 L 6.734375 10.265625 A 0.375 0.375 0 0 0 7.265625 10.265625 A 0.375 0.375 0 0 0 7.265625 9.734375 L 3.5722656 6.0429688 C 3.1663953 5.5823224 3.3821374 4.8899445 3.9785156 4.7441406 A 0.3750375 0.3750375 0 0 0 3.9804688 4.7441406 C 6.931192 4.0175579 10.044726 4.3794155 12.75 5.7636719 A 0.375 0.375 0 0 0 13.253906 5.6015625 A 0.375 0.375 0 0 0 13.089844 5.0957031 C 11.656935 4.3625006 10.116633 3.8997811 8.5429688 3.7167969 C 8.1495527 3.6710508 7.7536647 3.6434412 7.3574219 3.6328125 z M 18.59375 10.707031 A 0.375 0.375 0 0 0 18.404297 10.748047 A 0.375 0.375 0 0 0 18.240234 11.251953 C 19.623124 13.956639 19.986218 17.069959 19.259766 20.019531 A 0.3750375 0.3750375 0 0 0 19.257812 20.019531 C 19.111798 20.617789 18.419226 20.83494 17.958984 20.425781 L 14.265625 16.734375 A 0.375 0.375 0 0 0 13.734375 16.734375 A 0.375 0.375 0 0 0 13.734375 17.265625 L 17.443359 20.970703 A 0.3750375 0.3750375 0 0 0 17.458984 20.986328 C 18.316164 21.748369 19.712335 21.312212 19.986328 20.199219 C 20.755892 17.074604 20.373161 13.777305 18.908203 10.912109 A 0.375 0.375 0 0 0 18.59375 10.707031 z M 7 14.375 L 9 14.375 C 9.1607259 14.375 9.3062112 14.432442 9.4160156 14.529297 A 0.375 0.375 0 0 0 9.4414062 14.558594 A 0.375 0.375 0 0 0 9.4707031 14.583984 C 9.5675582 14.693789 9.625 14.839274 9.625 15 L 9.625 17 C 9.6255895 17.353121 9.4845015 17.692145 9.234375 17.941406 L 6.5878906 20.589844 C 6.5371936 20.640664 6.4990996 20.637057 6.4511719 20.617188 C 6.4032439 20.597324 6.3748716 20.571787 6.375 20.5 L 6.375 19 C 6.375 18.24505 5.7549498 17.625 5 17.625 L 3.5 17.625 C 3.428338 17.624985 3.404562 17.594775 3.3847656 17.546875 C 3.3649686 17.498985 3.3613724 17.462715 3.4121094 17.412109 L 6.0585938 14.765625 C 6.3078552 14.515499 6.6468794 14.37441 7 14.375 z " />
</svg>
