<?xml version="1.0" encoding="UTF-8" standalone="no"?>
<svg
   width="24"
   height="24"
   viewBox="0 0 24 24"
   fill="none"
   stroke="currentColor"
   stroke-width="0.75"
   stroke-linecap="round"
   stroke-linejoin="round"
   version="1.1"
   id="svg8"
   sodipodi:docname=".tmp_calendar-sync.svg"
   xmlns:inkscape="http://www.inkscape.org/namespaces/inkscape"
   xmlns:sodipodi="http://sodipodi.sourceforge.net/DTD/sodipodi-0.dtd"
   xmlns="http://www.w3.org/2000/svg"
   xmlns:svg="http://www.w3.org/2000/svg">
  <defs
     id="defs8" />
  <sodipodi:namedview
     id="namedview8"
     pagecolor="#ffffff"
     bordercolor="#000000"
     borderopacity="0.25"
     inkscape:showpageshadow="2"
     inkscape:pageopacity="0.0"
     inkscape:pagecheckerboard="0"
     inkscape:deskcolor="#d1d1d1" />
  <path
     id="path1"
     style="baseline-shift:baseline;display:inline;overflow:visible;vector-effect:none;fill:#000000;stroke:none;stroke-linecap:butt;stroke-linejoin:miter;enable-background:accumulate;stop-color:#000000;stop-opacity:1;opacity:1"
     d="M 8 1.625 A 0.375 0.375 0 0 0 7.625 2 L 7.625 3.625 L 5 3.625 C 3.6927655 3.625 2.625 4.6927655 2.625 6 L 2.625 20 C 2.625 21.307235 3.6927655 22.375 5 22.375 L 9.3007812 22.375 A 0.375 0.375 0 0 0 9.6757812 22 A 0.375 0.375 0 0 0 9.3007812 21.625 L 5 21.625 C 4.0980955 21.625 3.375 20.901904 3.375 20 L 3.375 10.375 L 7 10.375 A 0.375 0.375 0 0 0 7.375 10 A 0.375 0.375 0 0 0 7 9.625 L 3.375 9.625 L 3.375 6 C 3.375 5.0980955 4.0980955 4.375 5 4.375 L 7.625 4.375 L 7.625 6 A 0.375 0.375 0 0 0 8 6.375 A 0.375 0.375 0 0 0 8.375 6 L 8.375 4.375 L 15.625 4.375 L 15.625 6 A 0.375 0.375 0 0 0 16 6.375 A 0.375 0.375 0 0 0 16.375 6 L 16.375 4.375 L 19 4.375 C 19.901904 4.375 20.625 5.0980955 20.625 6 L 20.625 8.5 A 0.375 0.375 0 0 0 21 8.875 A 0.375 0.375 0 0 0 21.375 8.5 L 21.375 6 C 21.375 4.6927655 20.307235 3.625 19 3.625 L 16.375 3.625 L 16.375 2 A 0.375 0.375 0 0 0 16 1.625 A 0.375 0.375 0 0 0 15.625 2 L 15.625 3.625 L 8.375 3.625 L 8.375 2 A 0.375 0.375 0 0 0 8 1.625 z M 11 9.625 A 0.375 0.375 0 0 0 10.625 10 L 10.625 14 A 0.375 0.375 0 0 0 10.722656 14.251953 A 0.3750375 0.3750375 0 0 0 10.736328 14.267578 A 0.375 0.375 0 0 0 10.740234 14.271484 A 0.375 0.375 0 0 0 10.769531 14.294922 A 0.3750375 0.3750375 0 0 0 10.771484 14.296875 A 0.375 0.375 0 0 0 10.78125 14.304688 A 0.3750375 0.3750375 0 0 0 10.8125 14.324219 A 0.375 0.375 0 0 0 11.027344 14.375 L 15 14.375 A 0.375 0.375 0 0 0 15.375 14 A 0.375 0.375 0 0 0 15 13.625 L 11.878906 13.625 L 12.796875 12.666016 C 15.094214 10.459713 18.854197 11.163225 20.195312 14.052734 A 0.375 0.375 0 0 0 20.693359 14.234375 A 0.375 0.375 0 0 0 20.875 13.736328 C 20.100699 12.068054 18.61319 11.02928 16.988281 10.724609 C 15.363372 10.419939 13.601453 10.850544 12.275391 12.125 A 0.3750375 0.3750375 0 0 0 12.263672 12.136719 L 11.375 13.064453 L 11.375 10 A 0.375 0.375 0 0 0 11 9.625 z M 17 17.625 A 0.375 0.375 0 0 0 16.625 18 A 0.375 0.375 0 0 0 17 18.375 L 20.121094 18.375 L 19.205078 19.333984 L 19.203125 19.333984 C 16.905786 21.540287 13.145803 20.836775 11.804688 17.947266 A 0.375 0.375 0 0 0 11.306641 17.765625 A 0.375 0.375 0 0 0 11.125 18.263672 C 12.673601 21.60022 17.072484 22.423912 19.724609 19.875 A 0.3750375 0.3750375 0 0 0 19.736328 19.863281 L 20.625 18.935547 L 20.625 22 A 0.375 0.375 0 0 0 21 22.375 A 0.375 0.375 0 0 0 21.375 22 L 21.375 18.027344 A 0.375 0.375 0 0 0 21.296875 17.771484 A 0.3750375 0.3750375 0 0 0 21.291016 17.763672 A 0.375 0.375 0 0 0 21.265625 17.734375 A 0.3750375 0.3750375 0 0 0 21.263672 17.732422 A 0.3750375 0.3750375 0 0 0 21.259766 17.728516 A 0.375 0.375 0 0 0 21.228516 17.703125 A 0.3750375 0.3750375 0 0 0 21.21875 17.695312 A 0.375 0.375 0 0 0 21 17.625 L 17 17.625 z " />
</svg>
