<?xml version="1.0" encoding="UTF-8" standalone="no"?>
<svg
   width="24"
   height="24"
   viewBox="0 0 24 24"
   fill="none"
   stroke="currentColor"
   stroke-width="0.75"
   stroke-linecap="round"
   stroke-linejoin="round"
   version="1.1"
   id="svg3"
   sodipodi:docname=".tmp_case-upper.svg"
   xmlns:inkscape="http://www.inkscape.org/namespaces/inkscape"
   xmlns:sodipodi="http://sodipodi.sourceforge.net/DTD/sodipodi-0.dtd"
   xmlns="http://www.w3.org/2000/svg"
   xmlns:svg="http://www.w3.org/2000/svg">
  <defs
     id="defs3" />
  <sodipodi:namedview
     id="namedview3"
     pagecolor="#ffffff"
     bordercolor="#000000"
     borderopacity="0.25"
     inkscape:showpageshadow="2"
     inkscape:pageopacity="0.0"
     inkscape:pagecheckerboard="0"
     inkscape:deskcolor="#d1d1d1" />
  <path
     id="path1"
     style="baseline-shift:baseline;display:inline;overflow:visible;vector-effect:none;fill:#000000;stroke:none;stroke-linecap:butt;stroke-linejoin:miter;enable-background:accumulate;stop-color:#000000;stop-opacity:1;opacity:1"
     d="M 15.5 5.625 C 15.021193 5.625 14.625 6.0211926 14.625 6.5 L 14.625 11 L 14.625 15.5 C 14.625 15.978807 15.021193 16.375 15.5 16.375 L 19.5 16.375 C 20.427083 16.375 21.170856 16.014818 21.65625 15.46875 C 22.141644 14.922682 22.375 14.208333 22.375 13.5 C 22.375 12.791667 22.141644 12.077318 21.65625 11.53125 C 21.314481 11.14676 20.807798 10.911074 20.236328 10.771484 C 20.374395 10.667565 20.544553 10.594409 20.65625 10.46875 C 21.141644 9.9226818 21.375 9.2083333 21.375 8.5 C 21.375 7.7916667 21.141644 7.0773182 20.65625 6.53125 C 20.170856 5.9851818 19.427083 5.625 18.5 5.625 L 15.5 5.625 z M 6.5 5.6269531 C 6.1756515 5.6269531 5.8369045 5.8217011 5.6933594 6.1660156 L 1.6542969 15.855469 A 0.375 0.375 0 0 0 1.8554688 16.345703 A 0.375 0.375 0 0 0 2.3457031 16.144531 L 3.5 13.375 L 9.5 13.375 L 10.654297 16.144531 A 0.375 0.375 0 0 0 11.144531 16.345703 A 0.375 0.375 0 0 0 11.345703 15.855469 L 7.3085938 6.1660156 C 7.1650487 5.8217011 6.8243485 5.6269531 6.5 5.6269531 z M 15.486328 6.375 C 15.490742 6.3746047 15.495408 6.375 15.5 6.375 L 18.5 6.375 C 19.239583 6.375 19.745811 6.6398182 20.09375 7.03125 C 20.441689 7.4226818 20.625 7.9583333 20.625 8.5 C 20.625 9.0416667 20.441689 9.5773182 20.09375 9.96875 C 19.745811 10.360182 19.239583 10.625 18.5 10.625 L 15.375 10.625 L 15.375 6.5 C 15.375 6.4311153 15.420122 6.3809296 15.486328 6.375 z M 6.4804688 6.3769531 C 6.4864543 6.3764881 6.4935426 6.3769531 6.5 6.3769531 C 6.551659 6.3769531 6.587794 6.3892591 6.6152344 6.4550781 L 9.1875 12.625 L 3.8125 12.625 L 6.3847656 6.4550781 C 6.4087756 6.3974866 6.4385696 6.3802085 6.4804688 6.3769531 z M 15.375 11.375 L 18.5 11.375 L 19.5 11.375 C 20.239583 11.375 20.745811 11.639818 21.09375 12.03125 C 21.441689 12.422682 21.625 12.958333 21.625 13.5 C 21.625 14.041667 21.441689 14.577318 21.09375 14.96875 C 20.745811 15.360182 20.239583 15.625 19.5 15.625 L 15.5 15.625 C 15.42652 15.625 15.375 15.57348 15.375 15.5 L 15.375 11.375 z " />
</svg>
