<?xml version="1.0" encoding="UTF-8" standalone="no"?>
<svg
   width="24"
   height="24"
   viewBox="0 0 24 24"
   fill="none"
   stroke="currentColor"
   stroke-width="0.75"
   stroke-linecap="round"
   stroke-linejoin="round"
   version="1.1"
   id="svg1"
   sodipodi:docname=".tmp_circle-star.svg"
   xmlns:inkscape="http://www.inkscape.org/namespaces/inkscape"
   xmlns:sodipodi="http://sodipodi.sourceforge.net/DTD/sodipodi-0.dtd"
   xmlns="http://www.w3.org/2000/svg"
   xmlns:svg="http://www.w3.org/2000/svg">
  <defs
     id="defs1" />
  <sodipodi:namedview
     id="namedview1"
     pagecolor="#ffffff"
     bordercolor="#000000"
     borderopacity="0.25"
     inkscape:showpageshadow="2"
     inkscape:pageopacity="0.0"
     inkscape:pagecheckerboard="0"
     inkscape:deskcolor="#d1d1d1" />
  <path
     id="path1"
     style="baseline-shift:baseline;display:inline;overflow:visible;vector-effect:none;fill:#000000;stroke:none;stroke-linecap:butt;stroke-linejoin:miter;enable-background:accumulate;stop-color:#000000;stop-opacity:1;opacity:1"
     d="M 12 1.625 C 6.2744875 1.625 1.625 6.2744875 1.625 12 C 1.625 17.725513 6.2744875 22.375 12 22.375 C 17.725513 22.375 22.375 17.725513 22.375 12 C 22.375 6.2744875 17.725513 1.625 12 1.625 z M 12 2.375 C 17.320182 2.375 21.625 6.6798175 21.625 12 C 21.625 17.320182 17.320182 21.625 12 21.625 C 6.6798175 21.625 2.375 17.320182 2.375 12 C 2.375 6.6798175 6.6798175 2.375 12 2.375 z M 12.019531 6.5507812 C 11.481883 6.544022 10.921543 6.8675923 10.708984 7.4628906 L 9.9667969 8.921875 C 9.875699 9.1011617 9.7045476 9.2247858 9.5058594 9.2558594 L 7.8964844 9.5078125 C 7.2621117 9.5220932 6.7786859 9.9562802 6.6171875 10.470703 C 6.455414 10.986003 6.6027177 11.620039 7.1171875 11.994141 L 8.25 13.123047 C 8.3927192 13.265083 8.4576348 13.465244 8.4257812 13.664062 L 8.1699219 15.259766 C 7.9831736 15.861174 8.2360148 16.455437 8.6679688 16.773438 C 9.1027249 17.093502 9.7529319 17.157765 10.273438 16.792969 L 11.714844 16.054688 C 11.894108 15.962837 12.103939 15.962837 12.283203 16.054688 L 13.716797 16.787109 L 13.71875 16.789062 C 14.240645 17.161776 14.894386 17.097455 15.332031 16.775391 C 15.76699 16.45531 16.021991 15.853396 15.828125 15.248047 L 15.572266 13.664062 C 15.540626 13.465452 15.605526 13.264943 15.748047 13.123047 L 16.894531 11.980469 C 17.399411 11.599513 17.537451 10.967986 17.371094 10.457031 C 17.206202 9.9505778 16.729683 9.525652 16.105469 9.5078125 L 14.492188 9.2558594 C 14.293499 9.2247821 14.122348 9.1011617 14.03125 8.921875 L 13.310547 7.5 C 13.114676 6.8958591 12.558932 6.5575627 12.019531 6.5507812 z M 12.009766 7.3007812 C 12.269265 7.3040413 12.507461 7.4327017 12.601562 7.7480469 A 0.3750375 0.3750375 0 0 0 12.625 7.8105469 L 13.363281 9.2617188 C 13.563171 9.655116 13.940985 9.9298642 14.376953 9.9980469 L 16.009766 10.253906 A 0.3750375 0.3750375 0 0 0 16.066406 10.257812 C 16.38901 10.259113 16.578948 10.446028 16.658203 10.689453 C 16.737453 10.932878 16.693613 11.195766 16.433594 11.386719 A 0.3750375 0.3750375 0 0 0 16.390625 11.423828 L 15.21875 12.591797 C 14.906021 12.90315 14.7626 13.345453 14.832031 13.78125 A 0.3750375 0.3750375 0 0 0 14.832031 13.783203 L 15.089844 15.394531 A 0.3750375 0.3750375 0 0 0 15.107422 15.460938 C 15.217761 15.774007 15.098922 16.017145 14.888672 16.171875 C 14.678408 16.326605 14.410618 16.368426 14.144531 16.169922 A 0.3750375 0.3750375 0 0 0 14.091797 16.136719 L 12.626953 15.386719 C 12.234223 15.185495 11.766007 15.186121 11.373047 15.386719 L 11.371094 15.386719 L 9.90625 16.136719 A 0.3750375 0.3750375 0 0 0 9.8554688 16.167969 C 9.5898342 16.364457 9.3228483 16.324157 9.1132812 16.169922 C 8.9037878 16.015593 8.7838605 15.772946 8.8925781 15.460938 A 0.3750375 0.3750375 0 0 0 8.9101562 15.396484 L 9.1679688 13.783203 C 9.2378618 13.346957 9.0924528 12.903453 8.7792969 12.591797 L 7.6230469 11.439453 A 0.3750375 0.3750375 0 0 0 7.5722656 11.396484 C 7.3014601 11.208868 7.2542398 10.943103 7.3320312 10.695312 C 7.4098232 10.447522 7.6002429 10.256982 7.9296875 10.257812 A 0.3750375 0.3750375 0 0 0 7.9882812 10.253906 L 9.6210938 9.9980469 C 10.057062 9.9298642 10.434875 9.655116 10.634766 9.2617188 L 11.384766 7.7851562 A 0.3750375 0.3750375 0 0 0 11.408203 7.7324219 C 11.510202 7.4195421 11.750266 7.2975188 12.009766 7.3007812 z " />
</svg>
