<?xml version="1.0" encoding="UTF-8" standalone="no"?>
<svg
   width="24"
   height="24"
   viewBox="0 0 24 24"
   fill="none"
   stroke="currentColor"
   stroke-width="0.75"
   stroke-linecap="round"
   stroke-linejoin="round"
   version="1.1"
   id="svg4"
   sodipodi:docname=".tmp_clipboard-pen-line.svg"
   xmlns:inkscape="http://www.inkscape.org/namespaces/inkscape"
   xmlns:sodipodi="http://sodipodi.sourceforge.net/DTD/sodipodi-0.dtd"
   xmlns="http://www.w3.org/2000/svg"
   xmlns:svg="http://www.w3.org/2000/svg">
  <defs
     id="defs4" />
  <sodipodi:namedview
     id="namedview4"
     pagecolor="#ffffff"
     bordercolor="#000000"
     borderopacity="0.25"
     inkscape:showpageshadow="2"
     inkscape:pageopacity="0.0"
     inkscape:pagecheckerboard="0"
     inkscape:deskcolor="#d1d1d1" />
  <path
     id="rect1"
     style="baseline-shift:baseline;display:inline;overflow:visible;vector-effect:none;fill:#000000;stroke:none;stroke-linecap:butt;stroke-linejoin:miter;enable-background:accumulate;stop-color:#000000;stop-opacity:1;opacity:1"
     d="M 9 1.625 C 8.2447365 1.625 7.625 2.2447365 7.625 3 L 7.625 3.625 L 6 3.625 C 4.6927655 3.625 3.625 4.6927655 3.625 6 L 3.625 20 C 3.625 21.307235 4.6927655 22.375 6 22.375 L 18 22.375 C 19.307235 22.375 20.375 21.307235 20.375 20 L 20.375 19.5 A 0.375 0.375 0 0 0 20 19.125 A 0.375 0.375 0 0 0 19.625 19.5 L 19.625 20 C 19.625 20.901904 18.901904 21.625 18 21.625 L 6 21.625 C 5.0980955 21.625 4.375 20.901904 4.375 20 L 4.375 6 C 4.375 5.0980955 5.0980955 4.375 6 4.375 L 7.625 4.375 L 7.625 5 C 7.625 5.7552635 8.2447365 6.375 9 6.375 L 15 6.375 C 15.755264 6.375 16.375 5.7552635 16.375 5 L 16.375 4.375 L 18 4.375 C 18.580559 4.3755955 19.114017 4.6847203 19.404297 5.1875 A 0.375 0.375 0 0 0 19.917969 5.3242188 A 0.375 0.375 0 0 0 20.054688 4.8125 C 19.631169 4.0789435 18.847037 3.6258688 18 3.625 L 16.375 3.625 L 16.375 3 C 16.375 2.2447365 15.755264 1.625 15 1.625 L 9 1.625 z M 9 2.375 L 15 2.375 C 15.352736 2.375 15.625 2.6472635 15.625 3 L 15.625 5 C 15.625 5.3527365 15.352736 5.625 15 5.625 L 9 5.625 C 8.6472635 5.625 8.375 5.3527365 8.375 5 L 8.375 3 C 8.375 2.6472635 8.6472635 2.375 9 2.375 z M 19.751953 8.5878906 C 19.188373 8.6161615 18.605463 8.8613338 18.109375 9.3574219 L 14.099609 13.369141 C 13.817289 13.651306 13.60993 13.999662 13.498047 14.382812 L 12.660156 17.253906 C 12.47232 17.897916 13.102084 18.525727 13.746094 18.337891 L 16.615234 17.501953 A 0.3750375 0.3750375 0 0 0 16.615234 17.5 C 16.998385 17.388117 17.348694 17.182711 17.630859 16.900391 L 21.642578 12.890625 C 22.209536 12.323714 22.447523 11.643039 22.410156 11.007812 C 22.37279 10.372585 22.077004 9.7918474 21.642578 9.3574219 C 21.208153 8.9229963 20.627415 8.6272102 19.992188 8.5898438 C 19.912784 8.5851729 19.832465 8.5838519 19.751953 8.5878906 z M 19.785156 9.3378906 C 19.839214 9.3356899 19.89368 9.3366916 19.947266 9.3398438 C 20.375954 9.3650607 20.796707 9.5701443 21.113281 9.8867188 C 21.429856 10.203293 21.634939 10.624046 21.660156 11.052734 C 21.685376 11.481423 21.547656 11.926953 21.113281 12.361328 L 17.099609 16.369141 C 16.906531 16.562326 16.66843 16.704691 16.40625 16.78125 L 13.535156 17.617188 C 13.421268 17.650408 13.347642 17.576777 13.380859 17.462891 L 14.21875 14.59375 C 14.29531 14.33157 14.435721 14.091515 14.628906 13.898438 L 18.638672 9.8867188 C 19.01875 9.5066405 19.406752 9.3532957 19.785156 9.3378906 z M 8 17.625 A 0.375 0.375 0 0 0 7.625 18 A 0.375 0.375 0 0 0 8 18.375 L 9 18.375 A 0.375 0.375 0 0 0 9.375 18 A 0.375 0.375 0 0 0 9 17.625 L 8 17.625 z " />
</svg>
