<?xml version="1.0" encoding="UTF-8" standalone="no"?>
<svg
   width="24"
   height="24"
   viewBox="0 0 24 24"
   fill="none"
   stroke="currentColor"
   stroke-width="0.75"
   stroke-linecap="round"
   stroke-linejoin="round"
   version="1.1"
   id="svg4"
   sodipodi:docname=".tmp_cloud-moon-rain.svg"
   xmlns:inkscape="http://www.inkscape.org/namespaces/inkscape"
   xmlns:sodipodi="http://sodipodi.sourceforge.net/DTD/sodipodi-0.dtd"
   xmlns="http://www.w3.org/2000/svg"
   xmlns:svg="http://www.w3.org/2000/svg">
  <defs
     id="defs4" />
  <sodipodi:namedview
     id="namedview4"
     pagecolor="#ffffff"
     bordercolor="#000000"
     borderopacity="0.25"
     inkscape:showpageshadow="2"
     inkscape:pageopacity="0.0"
     inkscape:pagecheckerboard="0"
     inkscape:deskcolor="#d1d1d1" />
  <path
     id="path1"
     style="baseline-shift:baseline;display:inline;overflow:visible;vector-effect:none;fill:#000000;stroke:none;stroke-linecap:butt;stroke-linejoin:miter;enable-background:accumulate;stop-color:#000000;stop-opacity:1;opacity:1"
     d="M 14.703125 2.7753906 C 14.645056 2.7774974 14.586896 2.7848438 14.527344 2.7988281 C 11.838985 3.4375737 9.8663853 5.7377526 9.6464844 8.4921875 A 0.375 0.375 0 0 0 9.9902344 8.8964844 A 0.375 0.375 0 0 0 10.394531 8.5527344 C 10.588735 6.1201731 12.325335 4.0921879 14.699219 3.5273438 C 14.848801 3.4922178 14.891735 3.5345037 14.96875 3.6835938 C 15.04576 3.8326868 15.064548 4.0810356 14.986328 4.2617188 C 14.205818 6.0651624 14.729779 7.917055 15.90625 9.09375 C 17.082721 10.270445 18.934689 10.795792 20.738281 10.015625 C 20.918881 9.93713 21.169217 9.954388 21.318359 10.03125 C 21.467502 10.10811 21.507875 10.150101 21.472656 10.298828 C 21.063178 12.029112 19.859061 13.463338 18.226562 14.167969 A 0.375 0.375 0 0 0 18.03125 14.660156 A 0.375 0.375 0 0 0 18.525391 14.855469 C 20.374899 14.057171 21.737261 12.430995 22.201172 10.470703 C 22.313951 9.9944255 22.026717 9.5531271 21.662109 9.3652344 C 21.297502 9.1773417 20.847854 9.1486667 20.439453 9.3261719 C 18.916593 9.9849051 17.418799 9.5439854 16.4375 8.5625 C 15.456201 7.5810146 15.014805 6.0832821 15.673828 4.5605469 C 15.850604 4.15223 15.823001 3.7042505 15.634766 3.3398438 C 15.470059 3.0209877 15.10961 2.7606431 14.703125 2.7753906 z M 7.1894531 11.628906 C 6.3961163 11.599136 5.5820038 11.74762 4.7988281 12.099609 C 1.6661253 13.507566 0.63976403 17.475992 2.6992188 20.224609 A 0.375 0.375 0 0 0 3.2246094 20.300781 A 0.375 0.375 0 0 0 3.3007812 19.775391 C 1.5192676 17.397723 2.3955515 14.001144 5.1054688 12.783203 C 7.8153862 11.565263 10.937883 13.163431 11.533203 16.074219 A 0.3750375 0.3750375 0 0 0 11.900391 16.375 L 13 16.375 C 14.225016 16.3732 15.094075 17.113508 15.457031 18.064453 C 15.819987 19.015398 15.664681 20.146059 14.75 20.960938 A 0.375 0.375 0 0 0 14.720703 21.490234 A 0.375 0.375 0 0 0 15.25 21.519531 C 16.39543 20.499082 16.620507 19.008111 16.158203 17.796875 C 15.695902 16.585636 14.534054 15.622746 13 15.625 L 12.128906 15.625 C 11.495072 13.289754 9.4617395 11.714166 7.1894531 11.628906 z M 7 18.625 A 0.375 0.375 0 0 0 6.625 19 L 6.625 21 A 0.375 0.375 0 0 0 7 21.375 A 0.375 0.375 0 0 0 7.375 21 L 7.375 19 A 0.375 0.375 0 0 0 7 18.625 z M 11 19.625 A 0.375 0.375 0 0 0 10.625 20 L 10.625 22 A 0.375 0.375 0 0 0 11 22.375 A 0.375 0.375 0 0 0 11.375 22 L 11.375 20 A 0.375 0.375 0 0 0 11 19.625 z " />
</svg>
