<?xml version="1.0" encoding="UTF-8" standalone="no"?>
<svg
   width="24"
   height="24"
   viewBox="0 0 24 24"
   fill="none"
   stroke="currentColor"
   stroke-width="0.75"
   stroke-linecap="round"
   stroke-linejoin="round"
   version="1.1"
   id="svg3"
   sodipodi:docname=".tmp_coins.svg"
   xmlns:inkscape="http://www.inkscape.org/namespaces/inkscape"
   xmlns:sodipodi="http://sodipodi.sourceforge.net/DTD/sodipodi-0.dtd"
   xmlns="http://www.w3.org/2000/svg"
   xmlns:svg="http://www.w3.org/2000/svg">
  <defs
     id="defs3" />
  <sodipodi:namedview
     id="namedview3"
     pagecolor="#ffffff"
     bordercolor="#000000"
     borderopacity="0.25"
     inkscape:showpageshadow="2"
     inkscape:pageopacity="0.0"
     inkscape:pagecheckerboard="0"
     inkscape:deskcolor="#d1d1d1" />
  <path
     id="circle1"
     style="baseline-shift:baseline;display:inline;overflow:visible;vector-effect:none;fill:#000000;stroke:none;stroke-linecap:butt;stroke-linejoin:miter;enable-background:accumulate;stop-color:#000000;stop-opacity:1;opacity:1"
     d="M 8 1.625 C 4.4836265 1.625 1.625 4.4836265 1.625 8 C 1.625 11.516374 4.4836265 14.375 8 14.375 C 11.516374 14.375 14.375 11.516374 14.375 8 C 14.375 4.4836265 11.516374 1.625 8 1.625 z M 8 2.375 C 11.111043 2.375 13.625 4.8889565 13.625 8 C 13.625 11.111043 11.111043 13.625 8 13.625 C 4.8889565 13.625 2.375 11.111043 2.375 8 C 2.375 4.8889565 4.8889565 2.375 8 2.375 z M 7 5.625 A 0.375 0.375 0 0 0 6.625 6 A 0.375 0.375 0 0 0 7 6.375 L 7.625 6.375 L 7.625 10 A 0.375 0.375 0 0 0 8 10.375 A 0.375 0.375 0 0 0 8.375 10 L 8.375 6 A 0.3750375 0.3750375 0 0 0 8 5.625 L 7 5.625 z M 18.076172 9.9960938 A 0.375 0.375 0 0 0 17.738281 10.238281 A 0.375 0.375 0 0 0 17.958984 10.720703 C 21.82823 12.163227 22.882026 17.102989 19.939453 20 C 16.99688 22.897011 12.075333 21.766284 10.693359 17.875 A 0.375 0.375 0 0 0 10.214844 17.646484 A 0.375 0.375 0 0 0 9.9863281 18.125 C 11.542078 22.505594 17.154204 23.796457 20.466797 20.535156 C 23.779389 17.273856 22.576489 11.643446 18.220703 10.019531 A 0.375 0.375 0 0 0 18.076172 9.9960938 z M 16.712891 13.505859 A 0.375 0.375 0 0 0 16.447266 13.613281 A 0.375 0.375 0 0 0 16.443359 14.142578 L 16.880859 14.587891 L 14.324219 17.144531 A 0.375 0.375 0 0 0 14.324219 17.675781 A 0.375 0.375 0 0 0 14.855469 17.675781 L 17.675781 14.855469 A 0.3750375 0.3750375 0 0 0 17.677734 14.326172 L 16.976562 13.617188 A 0.375 0.375 0 0 0 16.712891 13.505859 z " />
</svg>
