<?xml version="1.0" encoding="UTF-8" standalone="no"?>
<svg
   width="24"
   height="24"
   viewBox="0 0 24 24"
   fill="none"
   stroke="currentColor"
   stroke-width="0.75"
   stroke-linecap="round"
   stroke-linejoin="round"
   version="1.1"
   id="svg11"
   sodipodi:docname=".tmp_columns-3-cog.svg"
   xmlns:inkscape="http://www.inkscape.org/namespaces/inkscape"
   xmlns:sodipodi="http://sodipodi.sourceforge.net/DTD/sodipodi-0.dtd"
   xmlns="http://www.w3.org/2000/svg"
   xmlns:svg="http://www.w3.org/2000/svg">
  <defs
     id="defs11" />
  <sodipodi:namedview
     id="namedview11"
     pagecolor="#ffffff"
     bordercolor="#000000"
     borderopacity="0.25"
     inkscape:showpageshadow="2"
     inkscape:pageopacity="0.0"
     inkscape:pagecheckerboard="0"
     inkscape:deskcolor="#d1d1d1" />
  <path
     id="path1"
     style="baseline-shift:baseline;display:inline;overflow:visible;vector-effect:none;fill:#000000;stroke:none;stroke-linecap:butt;stroke-linejoin:miter;enable-background:accumulate;stop-color:#000000;stop-opacity:1;opacity:1"
     d="M 5 2.625 C 3.6927655 2.625 2.625 3.6927655 2.625 5 L 2.625 19 C 2.625 20.307235 3.6927655 21.375 5 21.375 L 10.5 21.375 A 0.375 0.375 0 0 0 10.875 21 A 0.375 0.375 0 0 0 10.5 20.625 L 9.375 20.625 L 9.375 3.375 L 14.625 3.375 L 14.625 10.5 A 0.375 0.375 0 0 0 15 10.875 A 0.375 0.375 0 0 0 15.375 10.5 L 15.375 3.375 L 19 3.375 C 19.901904 3.375 20.625 4.0980955 20.625 5 L 20.625 10.5 A 0.375 0.375 0 0 0 21 10.875 A 0.375 0.375 0 0 0 21.375 10.5 L 21.375 5 C 21.375 3.6927655 20.307235 2.625 19 2.625 L 5 2.625 z M 5 3.375 L 8.625 3.375 L 8.625 20.625 L 5 20.625 C 4.0980955 20.625 3.375 19.901904 3.375 19 L 3.375 5 C 3.375 4.0980955 4.0980955 3.375 5 3.375 z M 16.404297 13.923828 A 0.375 0.375 0 0 0 16.259766 13.951172 A 0.375 0.375 0 0 0 16.052734 14.439453 L 16.308594 15.080078 C 15.757327 15.401059 15.304416 15.874913 15.007812 16.441406 L 14.417969 16.244141 A 0.375 0.375 0 0 0 13.943359 16.480469 A 0.375 0.375 0 0 0 14.181641 16.955078 L 14.736328 17.140625 C 14.663817 17.415235 14.625 17.703077 14.625 18 C 14.625 18.349624 14.677982 18.686392 14.777344 19.003906 L 14.160156 19.251953 A 0.375 0.375 0 0 0 13.951172 19.740234 A 0.375 0.375 0 0 0 14.439453 19.947266 L 15.080078 19.691406 C 15.401059 20.242673 15.874913 20.695584 16.441406 20.992188 L 16.244141 21.582031 A 0.375 0.375 0 0 0 16.480469 22.056641 A 0.375 0.375 0 0 0 16.955078 21.818359 L 17.140625 21.263672 C 17.415235 21.336183 17.703077 21.375 18 21.375 C 18.349624 21.375 18.686392 21.322018 19.003906 21.222656 L 19.251953 21.839844 A 0.375 0.375 0 0 0 19.740234 22.048828 A 0.375 0.375 0 0 0 19.947266 21.560547 L 19.691406 20.919922 C 20.242673 20.598941 20.695584 20.125087 20.992188 19.558594 L 21.582031 19.755859 A 0.375 0.375 0 0 0 22.056641 19.519531 A 0.375 0.375 0 0 0 21.818359 19.044922 L 21.263672 18.859375 C 21.336183 18.584765 21.375 18.296923 21.375 18 C 21.375 17.650376 21.322018 17.313608 21.222656 16.996094 L 21.839844 16.748047 A 0.375 0.375 0 0 0 22.048828 16.259766 A 0.375 0.375 0 0 0 21.560547 16.052734 L 20.919922 16.308594 C 20.598941 15.757327 20.125087 15.304416 19.558594 15.007812 L 19.755859 14.417969 A 0.375 0.375 0 0 0 19.519531 13.943359 A 0.375 0.375 0 0 0 19.044922 14.181641 L 18.859375 14.736328 C 18.584765 14.663817 18.296923 14.625 18 14.625 C 17.650376 14.625 17.313608 14.677982 16.996094 14.777344 L 16.748047 14.160156 A 0.375 0.375 0 0 0 16.404297 13.923828 z M 18 15.375 C 19.011975 15.375 19.88579 15.942417 20.324219 16.777344 A 0.375 0.375 0 0 0 20.351562 16.939453 A 0.375 0.375 0 0 0 20.464844 17.09375 C 20.568204 17.376164 20.625 17.680926 20.625 18 C 20.625 19.011975 20.057583 19.88579 19.222656 20.324219 A 0.375 0.375 0 0 0 19.060547 20.351562 A 0.375 0.375 0 0 0 18.90625 20.464844 C 18.623837 20.568204 18.319074 20.625 18 20.625 C 16.988025 20.625 16.11421 20.057583 15.675781 19.222656 A 0.375 0.375 0 0 0 15.648438 19.060547 A 0.375 0.375 0 0 0 15.535156 18.90625 C 15.431796 18.623837 15.375 18.319074 15.375 18 C 15.375 16.988025 15.942417 16.11421 16.777344 15.675781 A 0.375 0.375 0 0 0 16.939453 15.648438 A 0.375 0.375 0 0 0 17.09375 15.535156 C 17.376164 15.431796 17.680926 15.375 18 15.375 z " />
</svg>
