<?xml version="1.0" encoding="UTF-8" standalone="no"?>
<svg
   width="24"
   height="24"
   viewBox="0 0 24 24"
   fill="none"
   stroke="currentColor"
   stroke-width="0.75"
   stroke-linecap="round"
   stroke-linejoin="round"
   version="1.1"
   id="svg2"
   sodipodi:docname=".tmp_creative-commons.svg"
   xmlns:inkscape="http://www.inkscape.org/namespaces/inkscape"
   xmlns:sodipodi="http://sodipodi.sourceforge.net/DTD/sodipodi-0.dtd"
   xmlns="http://www.w3.org/2000/svg"
   xmlns:svg="http://www.w3.org/2000/svg">
  <defs
     id="defs2" />
  <sodipodi:namedview
     id="namedview2"
     pagecolor="#ffffff"
     bordercolor="#000000"
     borderopacity="0.25"
     inkscape:showpageshadow="2"
     inkscape:pageopacity="0.0"
     inkscape:pagecheckerboard="0"
     inkscape:deskcolor="#d1d1d1" />
  <path
     id="circle1"
     style="baseline-shift:baseline;display:inline;overflow:visible;vector-effect:none;fill:#000000;stroke:none;stroke-linecap:butt;stroke-linejoin:miter;enable-background:accumulate;stop-color:#000000;stop-opacity:1;opacity:1"
     d="M 12 1.625 C 6.2744875 1.625 1.625 6.2744875 1.625 12 C 1.625 17.725513 6.2744875 22.375 12 22.375 C 17.725513 22.375 22.375 17.725513 22.375 12 C 22.375 6.2744875 17.725513 1.625 12 1.625 z M 12 2.375 C 17.320182 2.375 21.625 6.6798175 21.625 12 C 21.625 17.320182 17.320182 21.625 12 21.625 C 6.6798175 21.625 2.375 17.320182 2.375 12 C 2.375 6.6798175 6.6798175 2.375 12 2.375 z M 8.78125 8.671875 C 8.5037296 8.6770884 8.228038 8.7191655 7.9628906 8.7949219 C 7.2558309 8.9969389 6.6183918 9.4430462 6.1875 10.09375 A 0.3750375 0.3750375 0 0 0 6.1855469 10.09375 C 5.4292665 11.246987 5.4293463 12.741454 6.1816406 13.896484 L 6.1835938 13.896484 C 7.0168058 15.24545 8.7461286 15.741158 10.166016 15.035156 A 0.375 0.375 0 0 0 10.335938 14.533203 A 0.375 0.375 0 0 0 9.8339844 14.363281 C 8.7548304 14.899863 7.4511451 14.529613 6.8183594 13.503906 A 0.3750375 0.3750375 0 0 0 6.8144531 13.494141 C 6.2188534 12.585922 6.2188534 11.414078 6.8144531 10.505859 C 7.4757356 9.5098286 8.7563806 9.1428585 9.84375 9.640625 A 0.375 0.375 0 0 0 10.341797 9.4570312 A 0.375 0.375 0 0 0 10.15625 8.9589844 C 9.7127378 8.7559572 9.2437839 8.663186 8.78125 8.671875 z M 15.78125 8.671875 C 15.50373 8.6770884 15.228038 8.7191655 14.962891 8.7949219 C 14.255831 8.9969389 13.618392 9.4430462 13.1875 10.09375 A 0.3750375 0.3750375 0 0 0 13.185547 10.09375 C 12.429266 11.246987 12.429337 12.741454 13.181641 13.896484 L 13.183594 13.896484 C 14.016806 15.24545 15.746129 15.741158 17.166016 15.035156 A 0.375 0.375 0 0 0 17.335938 14.533203 A 0.375 0.375 0 0 0 16.833984 14.363281 C 15.75483 14.899863 14.451145 14.529613 13.818359 13.503906 A 0.3750375 0.3750375 0 0 0 13.814453 13.494141 C 13.218853 12.585922 13.218853 11.414078 13.814453 10.505859 C 14.475728 9.5097936 15.756381 9.1428585 16.84375 9.640625 A 0.375 0.375 0 0 0 17.341797 9.4570312 A 0.375 0.375 0 0 0 17.15625 8.9589844 C 16.712737 8.7559572 16.243784 8.663186 15.78125 8.671875 z " />
</svg>
