<?xml version="1.0" encoding="UTF-8" standalone="no"?>
<svg
   width="24"
   height="24"
   viewBox="0 0 24 24"
   fill="none"
   stroke="currentColor"
   stroke-width="0.75"
   stroke-linecap="round"
   stroke-linejoin="round"
   version="1.1"
   id="svg3"
   sodipodi:docname=".tmp_delete.svg"
   xmlns:inkscape="http://www.inkscape.org/namespaces/inkscape"
   xmlns:sodipodi="http://sodipodi.sourceforge.net/DTD/sodipodi-0.dtd"
   xmlns="http://www.w3.org/2000/svg"
   xmlns:svg="http://www.w3.org/2000/svg">
  <defs
     id="defs3" />
  <sodipodi:namedview
     id="namedview3"
     pagecolor="#ffffff"
     bordercolor="#000000"
     borderopacity="0.25"
     inkscape:showpageshadow="2"
     inkscape:pageopacity="0.0"
     inkscape:pagecheckerboard="0"
     inkscape:deskcolor="#d1d1d1" />
  <path
     id="path1"
     style="baseline-shift:baseline;display:inline;overflow:visible;vector-effect:none;fill:#000000;stroke:none;stroke-linecap:butt;stroke-linejoin:miter;enable-background:accumulate;stop-color:#000000;stop-opacity:1;opacity:1"
     d="M 10 4.625 C 9.4100139 4.6250333 8.8411816 4.8456836 8.4042969 5.2421875 L 2.0761719 10.980469 C 1.4793505 11.522127 1.4793505 12.47592 2.0761719 13.017578 L 8.4042969 18.757812 C 8.8411816 19.154317 9.4100139 19.374967 10 19.375 L 20 19.375 C 21.307235 19.375 22.375 18.307235 22.375 17 L 22.375 7 C 22.375 5.6927655 21.307235 4.625 20 4.625 L 10 4.625 z M 10 5.375 L 20 5.375 C 20.901904 5.375 21.625 6.0980955 21.625 7 L 21.625 17 C 21.625 17.901904 20.901904 18.625 20 18.625 L 10 18.625 C 9.5961486 18.624977 9.2072551 18.474536 8.9082031 18.203125 L 2.5800781 12.462891 C 2.3023831 12.210863 2.3023831 11.789137 2.5800781 11.537109 L 8.9082031 5.796875 C 9.2072551 5.5254641 9.5961486 5.3750228 10 5.375 z M 12 8.625 A 0.375 0.375 0 0 0 11.734375 8.734375 A 0.375 0.375 0 0 0 11.734375 9.265625 L 14.46875 12 L 11.734375 14.734375 A 0.375 0.375 0 0 0 11.734375 15.265625 A 0.375 0.375 0 0 0 12.265625 15.265625 L 15 12.53125 L 17.734375 15.265625 A 0.375 0.375 0 0 0 18.265625 15.265625 A 0.375 0.375 0 0 0 18.265625 14.734375 L 15.53125 12 L 18.265625 9.265625 A 0.375 0.375 0 0 0 18.265625 8.734375 A 0.375 0.375 0 0 0 17.734375 8.734375 L 15 11.46875 L 12.265625 8.734375 A 0.375 0.375 0 0 0 12 8.625 z " />
</svg>
