<?xml version="1.0" encoding="UTF-8" standalone="no"?>
<svg
   width="24"
   height="24"
   viewBox="0 0 24 24"
   fill="none"
   stroke="currentColor"
   stroke-width="0.75"
   stroke-linecap="round"
   stroke-linejoin="round"
   version="1.1"
   id="svg10"
   sodipodi:docname=".tmp_file-cog.svg"
   xmlns:inkscape="http://www.inkscape.org/namespaces/inkscape"
   xmlns:sodipodi="http://sodipodi.sourceforge.net/DTD/sodipodi-0.dtd"
   xmlns="http://www.w3.org/2000/svg"
   xmlns:svg="http://www.w3.org/2000/svg">
  <defs
     id="defs10" />
  <sodipodi:namedview
     id="namedview10"
     pagecolor="#ffffff"
     bordercolor="#000000"
     borderopacity="0.25"
     inkscape:showpageshadow="2"
     inkscape:pageopacity="0.0"
     inkscape:pagecheckerboard="0"
     inkscape:deskcolor="#d1d1d1" />
  <path
     id="path1"
     style="baseline-shift:baseline;display:inline;overflow:visible;vector-effect:none;fill:#000000;stroke:none;stroke-linecap:butt;stroke-linejoin:miter;enable-background:accumulate;stop-color:#000000;stop-opacity:1;opacity:1"
     d="M 6 1.625 C 4.6927655 1.625 3.625 2.6927655 3.625 4 L 3.625 6.5 A 0.375 0.375 0 0 0 4 6.875 A 0.375 0.375 0 0 0 4.375 6.5 L 4.375 4 C 4.375 3.0980955 5.0980955 2.375 6 2.375 L 13.625 2.375 L 13.625 6 C 13.625 7.3072345 14.692765 8.375 16 8.375 L 19.625 8.375 L 19.625 20 C 19.625 20.901904 18.901904 21.625 18 21.625 L 5.9921875 21.625 L 5.9902344 21.625 C 5.5977848 21.622602 5.2201517 21.47837 4.9257812 21.21875 A 0.375 0.375 0 0 0 4.3964844 21.251953 A 0.375 0.375 0 0 0 4.4296875 21.78125 C 4.8604403 22.161152 5.4139419 22.372156 5.9882812 22.375 A 0.3750375 0.3750375 0 0 0 5.9902344 22.375 L 18 22.375 C 19.307235 22.375 20.375 21.307235 20.375 20 L 20.375 7 A 0.3750375 0.3750375 0 0 0 20.265625 6.734375 L 15.265625 1.734375 A 0.3750375 0.3750375 0 0 0 15 1.625 L 6 1.625 z M 14.375 2.375 L 14.84375 2.375 L 19.625 7.15625 L 19.625 7.625 L 16 7.625 C 15.098096 7.625 14.375 6.9019045 14.375 6 L 14.375 2.375 z M 4.46875 9.9316406 A 0.375 0.375 0 0 0 4.3261719 9.9589844 A 0.375 0.375 0 0 0 4.1230469 10.449219 L 4.3710938 11.044922 C 3.8148532 11.35318 3.3531376 11.814827 3.0449219 12.371094 L 2.4472656 12.123047 A 0.375 0.375 0 0 0 1.9570312 12.326172 A 0.375 0.375 0 0 0 2.1601562 12.814453 L 2.7578125 13.0625 C 2.6715655 13.360092 2.625 13.675166 2.625 14 C 2.625 14.324703 2.6716326 14.638061 2.7578125 14.935547 L 2.1621094 15.183594 A 0.375 0.375 0 0 0 1.9589844 15.673828 A 0.375 0.375 0 0 0 2.4492188 15.876953 L 3.0449219 15.628906 C 3.35318 16.185147 3.8148266 16.646862 4.3710938 16.955078 L 4.1230469 17.552734 A 0.375 0.375 0 0 0 4.3261719 18.042969 A 0.375 0.375 0 0 0 4.8144531 17.839844 L 5.0625 17.242188 C 5.3600923 17.328434 5.675166 17.375 6 17.375 C 6.3246097 17.375 6.6381369 17.32832 6.9355469 17.242188 L 7.1835938 17.839844 A 0.375 0.375 0 0 0 7.6738281 18.042969 A 0.375 0.375 0 0 0 7.8769531 17.552734 L 7.6289062 16.955078 C 8.1851734 16.646862 8.64682 16.185147 8.9550781 15.628906 L 9.5507812 15.876953 A 0.375 0.375 0 0 0 10.041016 15.673828 A 0.375 0.375 0 0 0 9.8378906 15.185547 L 9.2421875 14.9375 C 9.3284823 14.639832 9.375 14.324927 9.375 14 C 9.375 13.675073 9.3284823 13.360168 9.2421875 13.0625 L 9.8378906 12.814453 A 0.375 0.375 0 0 0 10.041016 12.326172 A 0.375 0.375 0 0 0 9.5507812 12.123047 L 8.9550781 12.371094 C 8.6468629 11.814931 8.1850694 11.353137 7.6289062 11.044922 L 7.8769531 10.449219 A 0.375 0.375 0 0 0 7.6738281 9.9589844 A 0.375 0.375 0 0 0 7.1855469 10.162109 L 6.9375 10.757812 C 6.6398316 10.671518 6.3249275 10.625 6 10.625 C 5.6750725 10.625 5.3601684 10.671518 5.0625 10.757812 L 4.8144531 10.162109 A 0.375 0.375 0 0 0 4.46875 9.9316406 z M 6 11.375 C 6.3446465 11.375 6.6736116 11.440831 6.9746094 11.560547 A 0.375 0.375 0 0 0 7.0039062 11.574219 A 0.375 0.375 0 0 0 7.0351562 11.585938 C 7.6541945 11.850517 8.149483 12.345805 8.4140625 12.964844 A 0.375 0.375 0 0 0 8.4257812 12.996094 A 0.375 0.375 0 0 0 8.4394531 13.025391 C 8.5591691 13.326389 8.625 13.655353 8.625 14 C 8.625 14.344647 8.5591691 14.673611 8.4394531 14.974609 A 0.375 0.375 0 0 0 8.4257812 15.003906 A 0.375 0.375 0 0 0 8.4140625 15.035156 C 8.149483 15.654195 7.6541945 16.149483 7.0351562 16.414062 A 0.375 0.375 0 0 0 7.0039062 16.425781 A 0.375 0.375 0 0 0 6.9746094 16.439453 C 6.6736116 16.559169 6.3446465 16.625 6 16.625 C 5.6553533 16.625 5.3263885 16.559169 5.0253906 16.439453 A 0.375 0.375 0 0 0 4.9960938 16.425781 A 0.375 0.375 0 0 0 4.9648438 16.414062 C 4.3458056 16.149483 3.8505172 15.654194 3.5859375 15.035156 A 0.375 0.375 0 0 0 3.5742188 15.003906 A 0.375 0.375 0 0 0 3.5605469 14.974609 C 3.4408311 14.673611 3.375 14.344647 3.375 14 C 3.375 13.655353 3.4408311 13.326389 3.5605469 13.025391 A 0.375 0.375 0 0 0 3.5742188 12.996094 A 0.375 0.375 0 0 0 3.5859375 12.964844 C 3.8505172 12.345806 4.3458056 11.850517 4.9648438 11.585938 A 0.375 0.375 0 0 0 4.9960938 11.574219 A 0.375 0.375 0 0 0 5.0253906 11.560547 C 5.3263885 11.440831 5.6553533 11.375 6 11.375 z " />
</svg>
