<?xml version="1.0" encoding="UTF-8" standalone="no"?>
<svg
   width="24"
   height="24"
   viewBox="0 0 24 24"
   fill="none"
   stroke="currentColor"
   stroke-width="0.75"
   stroke-linecap="round"
   stroke-linejoin="round"
   version="1.1"
   id="svg3"
   sodipodi:docname=".tmp_flashlight-off.svg"
   xmlns:inkscape="http://www.inkscape.org/namespaces/inkscape"
   xmlns:sodipodi="http://sodipodi.sourceforge.net/DTD/sodipodi-0.dtd"
   xmlns="http://www.w3.org/2000/svg"
   xmlns:svg="http://www.w3.org/2000/svg">
  <defs
     id="defs3" />
  <sodipodi:namedview
     id="namedview3"
     pagecolor="#ffffff"
     bordercolor="#000000"
     borderopacity="0.25"
     inkscape:showpageshadow="2"
     inkscape:pageopacity="0.0"
     inkscape:pagecheckerboard="0"
     inkscape:deskcolor="#d1d1d1" />
  <path
     id="path1"
     style="baseline-shift:baseline;display:inline;overflow:visible;vector-effect:none;fill:#000000;stroke:none;stroke-linecap:butt;stroke-linejoin:miter;enable-background:accumulate;stop-color:#000000;stop-opacity:1;opacity:1"
     d="M 2 1.625 A 0.375 0.375 0 0 0 1.734375 1.734375 A 0.375 0.375 0 0 0 1.734375 2.265625 L 5.6289062 6.1601562 C 5.6835941 7.1865549 6.258651 7.789901 6.734375 8.265625 C 7.234375 8.765625 7.625 9.125 7.625 10 L 7.625 20 C 7.625 21.307235 8.6927655 22.375 10 22.375 L 14 22.375 C 15.307235 22.375 16.375 21.307235 16.375 20 L 16.375 16.90625 L 21.734375 22.265625 A 0.375 0.375 0 0 0 22.265625 22.265625 A 0.375 0.375 0 0 0 22.265625 21.734375 L 16.265625 15.734375 L 6.265625 5.734375 L 2.265625 1.734375 A 0.375 0.375 0 0 0 2 1.625 z M 7 1.625 A 0.375 0.375 0 0 0 6.625 2 A 0.375 0.375 0 0 0 7 2.375 L 17.625 2.375 L 17.625 5.625 L 11 5.625 A 0.375 0.375 0 0 0 10.625 6 A 0.375 0.375 0 0 0 11 6.375 L 17.597656 6.375 C 17.50043 6.9907748 17.156226 7.3125242 16.734375 7.734375 C 16.234375 8.234375 15.625 8.875 15.625 10 L 15.625 11 A 0.375 0.375 0 0 0 16 11.375 A 0.375 0.375 0 0 0 16.375 11 L 16.375 10 C 16.375 9.125 16.765625 8.765625 17.265625 8.265625 C 17.757997 7.773253 18.352949 7.1421901 18.371094 6.0488281 A 0.375 0.375 0 0 0 18.375 6 L 18.375 2 A 0.3750375 0.3750375 0 0 0 18 1.625 L 7 1.625 z M 7.8164062 8.3476562 L 15.625 16.15625 L 15.625 20 C 15.625 20.901904 14.901904 21.625 14 21.625 L 10 21.625 C 9.0980955 21.625 8.375 20.901904 8.375 20 L 8.375 10 C 8.375 9.2818136 8.1260988 8.7604719 7.8164062 8.3476562 z " />
</svg>
