<?xml version="1.0" encoding="UTF-8" standalone="no"?>
<svg
   width="24"
   height="24"
   viewBox="0 0 24 24"
   fill="none"
   stroke="currentColor"
   stroke-width="0.75"
   stroke-linecap="round"
   stroke-linejoin="round"
   version="1.1"
   id="svg9"
   sodipodi:docname=".tmp_flower.svg"
   xmlns:inkscape="http://www.inkscape.org/namespaces/inkscape"
   xmlns:sodipodi="http://sodipodi.sourceforge.net/DTD/sodipodi-0.dtd"
   xmlns="http://www.w3.org/2000/svg"
   xmlns:svg="http://www.w3.org/2000/svg">
  <defs
     id="defs9" />
  <sodipodi:namedview
     id="namedview9"
     pagecolor="#ffffff"
     bordercolor="#000000"
     borderopacity="0.25"
     inkscape:showpageshadow="2"
     inkscape:pageopacity="0.0"
     inkscape:pagecheckerboard="0"
     inkscape:deskcolor="#d1d1d1" />
  <path
     id="circle1"
     style="baseline-shift:baseline;display:inline;overflow:visible;vector-effect:none;fill:#000000;stroke:none;stroke-linecap:butt;stroke-linejoin:miter;enable-background:accumulate;stop-color:#000000;stop-opacity:1;opacity:1"
     d="M 7.34375 2.6191406 C 7.1115622 2.6253325 6.8780047 2.6491257 6.6464844 2.6894531 C 5.7204029 2.8507629 4.8148389 3.2906298 4.0527344 4.0527344 C 2.5285253 5.5769435 2.2952151 7.6729437 2.9960938 9.3652344 C 3.5457383 10.692367 4.7904516 11.588635 6.2929688 12 C 4.7904516 12.411365 3.5457384 13.307633 2.9960938 14.634766 C 2.2952152 16.327056 2.5285253 18.423057 4.0527344 19.947266 C 5.5769435 21.471475 7.6729437 21.704785 9.3652344 21.003906 C 10.692367 20.454262 11.588635 19.209549 12 17.707031 C 12.411365 19.209549 13.307633 20.454262 14.634766 21.003906 C 16.327056 21.704785 18.423057 21.471475 19.947266 19.947266 C 21.471475 18.423057 21.704785 16.327056 21.003906 14.634766 C 20.454262 13.307633 19.209549 12.411365 17.707031 12 C 19.209549 11.588635 20.454262 10.692367 21.003906 9.3652344 C 21.704785 7.6729437 21.471475 5.5769435 19.947266 4.0527344 C 18.423057 2.5285253 16.327056 2.2952151 14.634766 2.9960938 C 13.307633 3.5457383 12.411365 4.7904516 12 6.2929688 C 11.588635 4.7904515 10.692367 3.5457383 9.3652344 2.9960938 C 8.7306254 2.7332643 8.0403133 2.6005649 7.34375 2.6191406 z M 7.3691406 3.3652344 C 7.9555331 3.3517162 8.5381456 3.4658155 9.078125 3.6894531 C 10.51807 4.2858202 11.625 5.646444 11.625 7.5 L 11.625 8.6464844 C 10.975238 8.7187927 10.380258 8.9761964 9.8945312 9.3652344 L 8.265625 7.734375 A 0.375 0.375 0 0 0 7.734375 7.734375 A 0.375 0.375 0 0 0 7.734375 8.265625 L 9.3652344 9.8945312 C 8.9761964 10.380258 8.7187927 10.975238 8.6464844 11.625 L 7.5 11.625 C 5.646444 11.625 4.2858202 10.51807 3.6894531 9.078125 C 3.093086 7.6381801 3.2734981 5.8944707 4.5839844 4.5839844 C 5.2392275 3.9287412 6.0031908 3.556188 6.7832031 3.421875 C 6.9782062 3.3882967 7.1736765 3.3697404 7.3691406 3.3652344 z M 16.630859 3.3652344 C 17.60844 3.3876715 18.596961 3.7649304 19.416016 4.5839844 C 20.726502 5.8944707 20.906914 7.6381801 20.310547 9.078125 C 19.71418 10.51807 18.353556 11.625 16.5 11.625 L 15.353516 11.625 C 15.281207 10.975238 15.023804 10.380258 14.634766 9.8945312 L 16.265625 8.265625 A 0.375 0.375 0 0 0 16.265625 7.734375 A 0.375 0.375 0 0 0 15.734375 7.734375 L 14.105469 9.3652344 C 13.619742 8.9761964 13.024762 8.7187927 12.375 8.6464844 L 12.375 7.5 C 12.375 5.646444 13.48193 4.2858202 14.921875 3.6894531 C 15.461854 3.4658155 16.044311 3.3517721 16.630859 3.3652344 z M 12 9.375 C 12.710476 9.375 13.352524 9.6539189 13.824219 10.109375 A 0.375 0.375 0 0 0 13.855469 10.144531 A 0.375 0.375 0 0 0 13.890625 10.175781 C 14.346081 10.647476 14.625 11.289524 14.625 12 C 14.625 12.710476 14.346081 13.352524 13.890625 13.824219 A 0.375 0.375 0 0 0 13.855469 13.855469 A 0.375 0.375 0 0 0 13.824219 13.890625 C 13.352524 14.346081 12.710476 14.625 12 14.625 C 11.289524 14.625 10.647476 14.346081 10.175781 13.890625 A 0.375 0.375 0 0 0 10.144531 13.855469 A 0.375 0.375 0 0 0 10.109375 13.824219 C 9.6539189 13.352524 9.375 12.710476 9.375 12 C 9.375 11.289524 9.6539189 10.647476 10.109375 10.175781 A 0.375 0.375 0 0 0 10.144531 10.144531 A 0.375 0.375 0 0 0 10.175781 10.109375 C 10.647476 9.6539189 11.289524 9.375 12 9.375 z M 7.5 12.375 L 8.6464844 12.375 C 8.7187927 13.024762 8.9761964 13.619742 9.3652344 14.105469 L 7.734375 15.734375 A 0.375 0.375 0 0 0 7.734375 16.265625 A 0.375 0.375 0 0 0 8.265625 16.265625 L 9.8945312 14.634766 C 10.380258 15.023804 10.975238 15.281207 11.625 15.353516 L 11.625 16.5 C 11.625 18.353556 10.51807 19.71418 9.078125 20.310547 C 7.6381801 20.906914 5.8944707 20.726502 4.5839844 19.416016 C 3.2734981 18.105529 3.093086 16.36182 3.6894531 14.921875 C 4.2858202 13.48193 5.646444 12.375 7.5 12.375 z M 15.353516 12.375 L 16.5 12.375 C 18.353556 12.375 19.71418 13.48193 20.310547 14.921875 C 20.906914 16.36182 20.726502 18.105529 19.416016 19.416016 C 18.105529 20.726502 16.36182 20.906914 14.921875 20.310547 C 13.48193 19.71418 12.375 18.353556 12.375 16.5 L 12.375 15.353516 C 13.024762 15.281207 13.619742 15.023804 14.105469 14.634766 L 15.734375 16.265625 A 0.375 0.375 0 0 0 16.265625 16.265625 A 0.375 0.375 0 0 0 16.265625 15.734375 L 14.634766 14.105469 C 15.023804 13.619742 15.281207 13.024762 15.353516 12.375 z " />
</svg>
