<?xml version="1.0" encoding="UTF-8" standalone="no"?>
<svg
   width="24"
   height="24"
   viewBox="0 0 24 24"
   fill="none"
   stroke="currentColor"
   stroke-width="0.75"
   stroke-linecap="round"
   stroke-linejoin="round"
   version="1.1"
   id="svg2"
   sodipodi:docname=".tmp_folder-lock.svg"
   xmlns:inkscape="http://www.inkscape.org/namespaces/inkscape"
   xmlns:sodipodi="http://sodipodi.sourceforge.net/DTD/sodipodi-0.dtd"
   xmlns="http://www.w3.org/2000/svg"
   xmlns:svg="http://www.w3.org/2000/svg">
  <defs
     id="defs2" />
  <sodipodi:namedview
     id="namedview2"
     pagecolor="#ffffff"
     bordercolor="#000000"
     borderopacity="0.25"
     inkscape:showpageshadow="2"
     inkscape:pageopacity="0.0"
     inkscape:pagecheckerboard="0"
     inkscape:deskcolor="#d1d1d1" />
  <path
     id="rect1"
     style="baseline-shift:baseline;display:inline;overflow:visible;vector-effect:none;fill:#000000;stroke:none;stroke-linecap:butt;stroke-linejoin:miter;enable-background:accumulate;stop-color:#000000;stop-opacity:1;opacity:1"
     d="M 4 2.625 C 2.6927655 2.625 1.625 3.6927655 1.625 5 L 1.625 18 C 1.625 19.307235 2.6927655 20.375 4 20.375 L 10 20.375 A 0.375 0.375 0 0 0 10.375 20 A 0.375 0.375 0 0 0 10 19.625 L 4 19.625 C 3.0980955 19.625 2.375 18.901904 2.375 18 L 2.375 5 C 2.375 4.0980955 3.0980955 3.375 4 3.375 L 7.9003906 3.375 A 0.3750375 0.3750375 0 0 0 7.9042969 3.375 C 8.4570009 3.36958 8.9733685 3.6438302 9.2773438 4.1054688 A 0.3750375 0.3750375 0 0 0 9.2792969 4.109375 L 10.085938 5.3066406 C 10.524971 5.9733068 11.272067 6.3748686 12.070312 6.375 L 20 6.375 C 20.901904 6.375 21.625 7.0980955 21.625 8 L 21.625 10.5 A 0.375 0.375 0 0 0 22 10.875 A 0.375 0.375 0 0 0 22.375 10.5 L 22.375 8 C 22.375 6.6927655 21.307235 5.625 20 5.625 L 12.070312 5.625 C 11.523384 5.6249099 11.013701 5.3513058 10.712891 4.8945312 A 0.3750375 0.3750375 0 0 0 10.710938 4.890625 L 9.9023438 3.6933594 C 9.4594319 3.020722 8.7055541 2.6184313 7.9003906 2.625 L 4 2.625 z M 18 12.625 C 17.416667 12.625 16.827318 12.81669 16.375 13.21875 C 15.922682 13.62081 15.625 14.239584 15.625 15 L 15.625 16.625 L 15 16.625 C 14.244736 16.625 13.625 17.244736 13.625 18 L 13.625 21 C 13.625 21.755264 14.244736 22.375 15 22.375 L 21 22.375 C 21.755264 22.375 22.375 21.755264 22.375 21 L 22.375 18 C 22.375 17.244736 21.755264 16.625 21 16.625 L 20.375 16.625 L 20.375 15 C 20.375 14.239584 20.077318 13.62081 19.625 13.21875 C 19.172682 12.81669 18.583333 12.625 18 12.625 z M 18 13.375 C 18.416667 13.375 18.827318 13.516644 19.125 13.78125 C 19.422682 14.045856 19.625 14.427084 19.625 15 L 19.625 16.625 L 16.375 16.625 L 16.375 15 C 16.375 14.427084 16.577318 14.045856 16.875 13.78125 C 17.172682 13.516644 17.583333 13.375 18 13.375 z M 15 17.375 L 16 17.375 L 20 17.375 L 21 17.375 C 21.352736 17.375 21.625 17.647264 21.625 18 L 21.625 21 C 21.625 21.352736 21.352736 21.625 21 21.625 L 15 21.625 C 14.647264 21.625 14.375 21.352736 14.375 21 L 14.375 18 C 14.375 17.647264 14.647264 17.375 15 17.375 z " />
</svg>
