<?xml version="1.0" encoding="UTF-8" standalone="no"?>
<svg
   width="24"
   height="24"
   viewBox="0 0 24 24"
   fill="none"
   stroke="currentColor"
   stroke-width="0.75"
   stroke-linecap="round"
   stroke-linejoin="round"
   version="1.1"
   id="svg3"
   sodipodi:docname=".tmp_git-pull-request-arrow.svg"
   xmlns:inkscape="http://www.inkscape.org/namespaces/inkscape"
   xmlns:sodipodi="http://sodipodi.sourceforge.net/DTD/sodipodi-0.dtd"
   xmlns="http://www.w3.org/2000/svg"
   xmlns:svg="http://www.w3.org/2000/svg">
  <defs
     id="defs3" />
  <sodipodi:namedview
     id="namedview3"
     pagecolor="#ffffff"
     bordercolor="#000000"
     borderopacity="0.25"
     inkscape:showpageshadow="2"
     inkscape:pageopacity="0.0"
     inkscape:pagecheckerboard="0"
     inkscape:deskcolor="#d1d1d1" />
  <path
     id="circle1"
     style="baseline-shift:baseline;display:inline;overflow:visible;vector-effect:none;fill:#000000;stroke:none;stroke-linecap:butt;stroke-linejoin:miter;enable-background:accumulate;stop-color:#000000;stop-opacity:1;opacity:1"
     d="M 5 2.625 C 3.1404807 2.625 1.625 4.1404807 1.625 6 C 1.625 7.732798 2.9409667 9.1661091 4.625 9.3535156 L 4.625 21 A 0.375 0.375 0 0 0 5 21.375 A 0.375 0.375 0 0 0 5.375 21 L 5.375 9.3535156 C 7.0590333 9.1661091 8.375 7.732798 8.375 6 C 8.375 4.1404807 6.8595193 2.625 5 2.625 z M 15 2.625 A 0.375 0.375 0 0 0 14.734375 2.734375 L 11.734375 5.734375 A 0.3750375 0.3750375 0 0 0 11.625 6 A 0.3750375 0.3750375 0 0 0 11.734375 6.265625 L 14.734375 9.265625 A 0.375 0.375 0 0 0 15.265625 9.265625 A 0.375 0.375 0 0 0 15.265625 8.734375 L 12.90625 6.375 L 17 6.375 C 17.901904 6.375 18.625 7.0980955 18.625 8 L 18.625 14.646484 C 16.940967 14.833891 15.625 16.267202 15.625 18 C 15.625 19.859519 17.140481 21.375 19 21.375 C 20.859519 21.375 22.375 19.859519 22.375 18 C 22.375 16.267202 21.059033 14.833891 19.375 14.646484 L 19.375 8 C 19.375 6.6927655 18.307235 5.625 17 5.625 L 12.90625 5.625 L 15.265625 3.265625 A 0.375 0.375 0 0 0 15.265625 2.734375 A 0.375 0.375 0 0 0 15 2.625 z M 5 3.375 C 6.4541892 3.375 7.625 4.5458108 7.625 6 C 7.625 7.4541892 6.4541892 8.625 5 8.625 C 3.5458108 8.625 2.375 7.4541892 2.375 6 C 2.375 4.5458108 3.5458108 3.375 5 3.375 z M 19 15.375 C 20.454189 15.375 21.625 16.545811 21.625 18 C 21.625 19.454189 20.454189 20.625 19 20.625 C 17.545811 20.625 16.375 19.454189 16.375 18 C 16.375 16.545811 17.545811 15.375 19 15.375 z " />
</svg>
