<?xml version="1.0" encoding="UTF-8" standalone="no"?>
<svg
   width="24"
   height="24"
   viewBox="0 0 24 24"
   fill="none"
   stroke="currentColor"
   stroke-width="0.75"
   stroke-linecap="round"
   stroke-linejoin="round"
   version="1.1"
   id="svg2"
   sodipodi:docname=".tmp_globe.svg"
   xmlns:inkscape="http://www.inkscape.org/namespaces/inkscape"
   xmlns:sodipodi="http://sodipodi.sourceforge.net/DTD/sodipodi-0.dtd"
   xmlns="http://www.w3.org/2000/svg"
   xmlns:svg="http://www.w3.org/2000/svg">
  <defs
     id="defs2" />
  <sodipodi:namedview
     id="namedview2"
     pagecolor="#ffffff"
     bordercolor="#000000"
     borderopacity="0.25"
     inkscape:showpageshadow="2"
     inkscape:pageopacity="0.0"
     inkscape:pagecheckerboard="0"
     inkscape:deskcolor="#d1d1d1" />
  <path
     id="circle1"
     style="baseline-shift:baseline;display:inline;overflow:visible;vector-effect:none;fill:#000000;stroke:none;stroke-linecap:butt;stroke-linejoin:miter;enable-background:accumulate;stop-color:#000000;stop-opacity:1;opacity:1"
     d="M 12 1.625 C 6.2744875 1.625 1.625 6.2744875 1.625 12 C 1.625 17.725513 6.2744875 22.375 12 22.375 C 17.725513 22.375 22.375 17.725513 22.375 12 C 22.375 6.2744875 17.725513 1.625 12 1.625 z M 11.125 2.4140625 C 8.877888 5.0761442 7.7132072 8.3395508 7.6308594 11.625 L 2.3828125 11.625 C 2.5682977 6.7708926 6.3379381 2.8439489 11.125 2.4140625 z M 12.875 2.4140625 C 17.662059 2.843951 21.431702 6.7708941 21.617188 11.625 L 16.369141 11.625 C 16.286793 8.339551 15.122112 5.0761441 12.875 2.4140625 z M 12 2.6054688 C 14.306916 5.1842916 15.503962 8.3929226 15.589844 11.625 L 8.4101562 11.625 C 8.4960383 8.3929226 9.6930845 5.1842916 12 2.6054688 z M 2.3828125 12.375 L 7.6308594 12.375 C 7.7132072 15.660449 8.8778879 18.923856 11.125 21.585938 C 6.337938 21.156051 2.5682977 17.229107 2.3828125 12.375 z M 8.4101562 12.375 L 15.589844 12.375 C 15.503962 15.607077 14.306916 18.815709 12 21.394531 C 9.6930845 18.815709 8.4960382 15.607077 8.4101562 12.375 z M 16.369141 12.375 L 21.617188 12.375 C 21.431702 17.229106 17.66206 21.156049 12.875 21.585938 C 15.122112 18.923856 16.286793 15.660449 16.369141 12.375 z " />
</svg>
