<?xml version="1.0" encoding="UTF-8" standalone="no"?>
<svg
   width="24"
   height="24"
   viewBox="0 0 24 24"
   fill="none"
   stroke="currentColor"
   stroke-width="0.75"
   stroke-linecap="round"
   stroke-linejoin="round"
   version="1.1"
   id="svg3"
   sodipodi:docname=".tmp_hard-drive.svg"
   xmlns:inkscape="http://www.inkscape.org/namespaces/inkscape"
   xmlns:sodipodi="http://sodipodi.sourceforge.net/DTD/sodipodi-0.dtd"
   xmlns="http://www.w3.org/2000/svg"
   xmlns:svg="http://www.w3.org/2000/svg">
  <defs
     id="defs3" />
  <sodipodi:namedview
     id="namedview3"
     pagecolor="#ffffff"
     bordercolor="#000000"
     borderopacity="0.25"
     inkscape:showpageshadow="2"
     inkscape:pageopacity="0.0"
     inkscape:pagecheckerboard="0"
     inkscape:deskcolor="#d1d1d1" />
  <path
     id="line1"
     style="baseline-shift:baseline;display:inline;overflow:visible;vector-effect:none;fill:#000000;stroke:none;stroke-linecap:butt;stroke-linejoin:miter;enable-background:accumulate;stop-color:#000000;stop-opacity:1;opacity:1"
     d="M 7.2402344 3.625 C 6.3397874 3.6254778 5.5139802 4.1369814 5.1132812 4.9433594 L 1.6640625 11.832031 A 0.3750375 0.3750375 0 0 0 1.625 12 L 1.625 18 C 1.625 19.307235 2.6927655 20.375 4 20.375 L 20 20.375 C 21.307235 20.375 22.375 19.307235 22.375 18 L 22.375 12 A 0.3750375 0.3750375 0 0 0 22.335938 11.832031 L 18.886719 4.9433594 L 18.884766 4.9414062 C 18.483638 4.1365057 17.659258 3.6254773 16.759766 3.625 L 7.2402344 3.625 z M 7.2402344 4.375 L 16.759766 4.375 C 17.377207 4.3753276 17.940083 4.7244064 18.214844 5.2773438 L 21.392578 11.625 L 2.6074219 11.625 L 5.7851562 5.2773438 C 6.0599174 4.7244065 6.6227934 4.3753276 7.2402344 4.375 z M 2.375 12.375 L 21.625 12.375 L 21.625 18 C 21.625 18.901904 20.901904 19.625 20 19.625 L 4 19.625 C 3.0980955 19.625 2.375 18.901904 2.375 18 L 2.375 12.375 z M 6 15.625 A 0.375 0.375 0 0 0 5.625 16 A 0.375 0.375 0 0 0 6 16.375 L 6.0097656 16.375 A 0.375 0.375 0 0 0 6.3847656 16 A 0.375 0.375 0 0 0 6.0097656 15.625 L 6 15.625 z M 10 15.625 A 0.375 0.375 0 0 0 9.625 16 A 0.375 0.375 0 0 0 10 16.375 L 10.009766 16.375 A 0.375 0.375 0 0 0 10.384766 16 A 0.375 0.375 0 0 0 10.009766 15.625 L 10 15.625 z " />
</svg>
