<?xml version="1.0" encoding="UTF-8" standalone="no"?>
<svg
   width="24"
   height="24"
   viewBox="0 0 24 24"
   fill="none"
   stroke="currentColor"
   stroke-width="0.75"
   stroke-linecap="round"
   stroke-linejoin="round"
   version="1.1"
   id="svg6"
   sodipodi:docname=".tmp_list-ordered.svg"
   xmlns:inkscape="http://www.inkscape.org/namespaces/inkscape"
   xmlns:sodipodi="http://sodipodi.sourceforge.net/DTD/sodipodi-0.dtd"
   xmlns="http://www.w3.org/2000/svg"
   xmlns:svg="http://www.w3.org/2000/svg">
  <defs
     id="defs6" />
  <sodipodi:namedview
     id="namedview6"
     pagecolor="#ffffff"
     bordercolor="#000000"
     borderopacity="0.25"
     inkscape:showpageshadow="2"
     inkscape:pageopacity="0.0"
     inkscape:pagecheckerboard="0"
     inkscape:deskcolor="#d1d1d1" />
  <path
     id="path1"
     style="baseline-shift:baseline;display:inline;overflow:visible;vector-effect:none;fill:#000000;stroke:none;stroke-linecap:butt;stroke-linejoin:miter;enable-background:accumulate;stop-color:#000000;stop-opacity:1;opacity:1"
     d="M 4 3.625 A 0.375 0.375 0 0 0 3.625 4 A 0.375 0.375 0 0 0 4 4.375 L 4.625 4.375 L 4.625 8.625 L 4 8.625 A 0.375 0.375 0 0 0 3.625 9 A 0.375 0.375 0 0 0 4 9.375 L 6 9.375 A 0.375 0.375 0 0 0 6.375 9 A 0.375 0.375 0 0 0 6 8.625 L 5.375 8.625 L 5.375 4 A 0.3750375 0.3750375 0 0 0 5 3.625 L 4 3.625 z M 11 4.625 A 0.375 0.375 0 0 0 10.625 5 A 0.375 0.375 0 0 0 11 5.375 L 21 5.375 A 0.375 0.375 0 0 0 21.375 5 A 0.375 0.375 0 0 0 21 4.625 L 11 4.625 z M 11 11.625 A 0.375 0.375 0 0 0 10.625 12 A 0.375 0.375 0 0 0 11 12.375 L 21 12.375 A 0.375 0.375 0 0 0 21.375 12 A 0.375 0.375 0 0 0 21 11.625 L 11 11.625 z M 4.390625 14.626953 C 4.2996168 14.631956 4.2094143 14.643705 4.1191406 14.662109 C 3.7580458 14.735729 3.4089482 14.918332 3.125 15.224609 A 0.375 0.375 0 0 0 3.1445312 15.755859 A 0.375 0.375 0 0 0 3.6757812 15.734375 C 4.0352103 15.346677 4.5048229 15.29411 4.9101562 15.453125 C 5.3154896 15.61214 5.6250691 15.971327 5.625 16.5 C 5.625 17.081151 5.0948205 17.636953 4.4570312 18.179688 C 4.1381368 18.451055 3.8075253 18.712671 3.5371094 18.992188 C 3.2666935 19.271704 3.0253906 19.5875 3.0253906 20 A 0.3750375 0.3750375 0 0 0 3.4003906 20.375 L 6.5 20.375 A 0.375 0.375 0 0 0 6.875 20 A 0.375 0.375 0 0 0 6.5 19.625 L 4.0078125 19.625 C 4.0440755 19.57937 4.0265769 19.56494 4.0761719 19.513672 C 4.293256 19.289282 4.6122539 19.033711 4.9433594 18.751953 C 5.6055707 18.188437 6.375 17.493849 6.375 16.5 C 6.3751092 15.664698 5.8484268 15.013959 5.1855469 14.753906 C 4.9369669 14.656387 4.6636495 14.611944 4.390625 14.626953 z M 11 18.625 A 0.375 0.375 0 0 0 10.625 19 A 0.375 0.375 0 0 0 11 19.375 L 21 19.375 A 0.375 0.375 0 0 0 21.375 19 A 0.375 0.375 0 0 0 21 18.625 L 11 18.625 z " />
</svg>
