<?xml version="1.0" encoding="UTF-8" standalone="no"?>
<svg
   width="24"
   height="24"
   viewBox="0 0 24 24"
   fill="none"
   stroke="currentColor"
   stroke-width="0.75"
   stroke-linecap="round"
   stroke-linejoin="round"
   version="1.1"
   id="svg4"
   sodipodi:docname=".tmp_mail-x.svg"
   xmlns:inkscape="http://www.inkscape.org/namespaces/inkscape"
   xmlns:sodipodi="http://sodipodi.sourceforge.net/DTD/sodipodi-0.dtd"
   xmlns="http://www.w3.org/2000/svg"
   xmlns:svg="http://www.w3.org/2000/svg">
  <defs
     id="defs4" />
  <sodipodi:namedview
     id="namedview4"
     pagecolor="#ffffff"
     bordercolor="#000000"
     borderopacity="0.25"
     inkscape:showpageshadow="2"
     inkscape:pageopacity="0.0"
     inkscape:pagecheckerboard="0"
     inkscape:deskcolor="#d1d1d1" />
  <path
     id="path1"
     style="baseline-shift:baseline;display:inline;overflow:visible;vector-effect:none;fill:#000000;stroke:none;stroke-linecap:butt;stroke-linejoin:miter;enable-background:accumulate;stop-color:#000000;stop-opacity:1;opacity:1"
     d="M 4 3.625 C 2.6927655 3.625 1.625 4.6927655 1.625 6 L 1.625 18 C 1.625 19.304545 2.6954545 20.375 4 20.375 L 13 20.375 A 0.375 0.375 0 0 0 13.375 20 A 0.375 0.375 0 0 0 13 19.625 L 4 19.625 C 3.1045455 19.625 2.375 18.895455 2.375 18 L 2.375 7.6816406 L 10.769531 13.015625 A 0.3750375 0.3750375 0 0 0 10.771484 13.017578 C 11.522498 13.488107 12.477502 13.488107 13.228516 13.017578 A 0.3750375 0.3750375 0 0 0 13.230469 13.015625 L 21.625 7.6816406 L 21.625 13 A 0.375 0.375 0 0 0 22 13.375 A 0.375 0.375 0 0 0 22.375 13 L 22.375 6 C 22.375 4.6927655 21.307235 3.625 20 3.625 L 4 3.625 z M 4 4.375 L 20 4.375 C 20.901904 4.375 21.625 5.0980955 21.625 6 L 21.625 6.7949219 L 12.830078 12.382812 C 12.321784 12.70127 11.680486 12.700522 11.171875 12.382812 L 11.169922 12.382812 L 2.375 6.7949219 L 2.375 6 C 2.375 5.0980955 3.0980955 4.375 4 4.375 z M 17 16.625 A 0.375 0.375 0 0 0 16.734375 16.734375 A 0.375 0.375 0 0 0 16.734375 17.265625 L 18.46875 19 L 16.734375 20.734375 A 0.375 0.375 0 0 0 16.734375 21.265625 A 0.375 0.375 0 0 0 17.265625 21.265625 L 19 19.53125 L 20.734375 21.265625 A 0.375 0.375 0 0 0 21.265625 21.265625 A 0.375 0.375 0 0 0 21.265625 20.734375 L 19.53125 19 L 21.265625 17.265625 A 0.375 0.375 0 0 0 21.265625 16.734375 A 0.375 0.375 0 0 0 20.734375 16.734375 L 19 18.46875 L 17.265625 16.734375 A 0.375 0.375 0 0 0 17 16.625 z " />
</svg>
