<?xml version="1.0" encoding="UTF-8" standalone="no"?>
<svg
   width="24"
   height="24"
   viewBox="0 0 24 24"
   fill="none"
   stroke="currentColor"
   stroke-width="0.75"
   stroke-linecap="round"
   stroke-linejoin="round"
   version="1.1"
   id="svg4"
   sodipodi:docname=".tmp_mail-question-mark.svg"
   xmlns:inkscape="http://www.inkscape.org/namespaces/inkscape"
   xmlns:sodipodi="http://sodipodi.sourceforge.net/DTD/sodipodi-0.dtd"
   xmlns="http://www.w3.org/2000/svg"
   xmlns:svg="http://www.w3.org/2000/svg">
  <defs
     id="defs4" />
  <sodipodi:namedview
     id="namedview4"
     pagecolor="#ffffff"
     bordercolor="#000000"
     borderopacity="0.25"
     inkscape:showpageshadow="2"
     inkscape:pageopacity="0.0"
     inkscape:pagecheckerboard="0"
     inkscape:deskcolor="#d1d1d1" />
  <path
     id="path1"
     style="baseline-shift:baseline;display:inline;overflow:visible;vector-effect:none;fill:#000000;stroke:none;stroke-linecap:butt;stroke-linejoin:miter;enable-background:accumulate;stop-color:#000000;stop-opacity:1;opacity:1"
     d="M 4 3.625 C 2.6927655 3.625 1.625 4.6927655 1.625 6 L 1.625 18 C 1.625 19.304545 2.6954545 20.375 4 20.375 L 16.5 20.375 A 0.375 0.375 0 0 0 16.875 20 A 0.375 0.375 0 0 0 16.5 19.625 L 4 19.625 C 3.1045455 19.625 2.375 18.895455 2.375 18 L 2.375 7.6816406 L 10.769531 13.015625 A 0.3750375 0.3750375 0 0 0 10.771484 13.017578 C 11.522498 13.488107 12.477502 13.488107 13.228516 13.017578 A 0.3750375 0.3750375 0 0 0 13.230469 13.015625 L 21.625 7.6816406 L 21.625 10.5 A 0.375 0.375 0 0 0 22 10.875 A 0.375 0.375 0 0 0 22.375 10.5 L 22.375 6 C 22.375 4.6927655 21.307235 3.625 20 3.625 L 4 3.625 z M 4 4.375 L 20 4.375 C 20.901904 4.375 21.625 5.0980955 21.625 6 L 21.625 6.7949219 L 12.830078 12.382812 C 12.321784 12.70127 11.680486 12.700522 11.171875 12.382812 L 11.169922 12.382812 L 2.375 6.7949219 L 2.375 6 C 2.375 5.0980955 3.0980955 4.375 4 4.375 z M 19.921875 13.625 C 19.512646 13.63128 19.100627 13.739779 18.726562 13.953125 C 18.22008 14.210025 17.885057 14.66934 17.664062 15.111328 A 0.375 0.375 0 0 0 17.832031 15.615234 A 0.375 0.375 0 0 0 18.335938 15.447266 C 18.513578 15.091987 18.780163 14.759333 19.068359 14.615234 A 0.3750375 0.3750375 0 0 0 19.087891 14.605469 C 19.785199 14.202329 20.658076 14.338689 21.207031 14.925781 C 21.472657 15.284213 21.625 15.588367 21.625 15.980469 C 21.625 16.438161 21.244751 16.849979 20.791016 17.15625 C 20.33728 17.462521 19.876953 17.626953 19.876953 17.626953 A 0.375 0.375 0 0 0 19.646484 18.103516 A 0.375 0.375 0 0 0 20.123047 18.333984 C 20.123047 18.333984 20.66272 18.146072 21.208984 17.777344 C 21.755249 17.408615 22.375 16.822776 22.375 15.980469 C 22.375 15.380469 22.124781 14.887078 21.800781 14.455078 A 0.3750375 0.3750375 0 0 0 21.777344 14.427734 C 21.385924 14.000184 20.870883 13.735845 20.328125 13.652344 C 20.193575 13.631644 20.058285 13.622907 19.921875 13.625 z M 20 21.625 A 0.375 0.375 0 0 0 19.625 22 L 19.625 22.009766 A 0.375 0.375 0 0 0 20 22.384766 A 0.375 0.375 0 0 0 20.375 22.009766 L 20.375 22 A 0.375 0.375 0 0 0 20 21.625 z " />
</svg>
