<?xml version="1.0" encoding="UTF-8" standalone="no"?>
<svg
   width="24"
   height="24"
   viewBox="0 0 24 24"
   fill="none"
   stroke="currentColor"
   stroke-width="0.75"
   stroke-linecap="round"
   stroke-linejoin="round"
   version="1.1"
   id="svg2"
   sodipodi:docname=".tmp_map-pinned.svg"
   xmlns:inkscape="http://www.inkscape.org/namespaces/inkscape"
   xmlns:sodipodi="http://sodipodi.sourceforge.net/DTD/sodipodi-0.dtd"
   xmlns="http://www.w3.org/2000/svg"
   xmlns:svg="http://www.w3.org/2000/svg">
  <defs
     id="defs2" />
  <sodipodi:namedview
     id="namedview2"
     pagecolor="#ffffff"
     bordercolor="#000000"
     borderopacity="0.25"
     inkscape:showpageshadow="2"
     inkscape:pageopacity="0.0"
     inkscape:pagecheckerboard="0"
     inkscape:deskcolor="#d1d1d1" />
  <path
     id="path1"
     style="baseline-shift:baseline;display:inline;overflow:visible;vector-effect:none;fill:#000000;stroke:none;stroke-linecap:butt;stroke-linejoin:miter;enable-background:accumulate;stop-color:#000000;stop-opacity:1;opacity:1"
     d="M 12 1.625 C 8.4836269 1.625 5.625 4.4836243 5.625 8 C 5.625 9.9403915 6.6401999 11.853581 7.8222656 13.462891 C 7.8622115 13.517274 7.9030254 13.571315 7.9433594 13.625 L 5.0039062 13.625 C 4.4141226 13.625251 3.8881333 14.005087 3.7011719 14.564453 L 1.6972656 20.564453 C 1.4031863 21.444302 2.0723054 22.374605 3 22.375 L 21 22.375 C 21.926931 22.374296 22.597599 21.445841 22.304688 20.566406 A 0.3750375 0.3750375 0 0 0 22.304688 20.564453 L 20.304688 14.566406 L 20.304688 14.564453 C 20.117585 14.005023 19.588143 13.624858 18.998047 13.625 L 16.056641 13.625 C 16.09697 13.571315 16.137793 13.517275 16.177734 13.462891 C 17.359678 11.853569 18.375 9.9403569 18.375 8 C 18.375 4.4836243 15.516373 1.625 12 1.625 z M 12 2.375 C 15.111044 2.375 17.625 4.8889542 17.625 8 C 17.625 9.6726431 16.705818 11.47415 15.572266 13.017578 C 14.444982 14.552471 13.12744 15.820688 12.375 16.496094 C 12.151085 16.664726 11.848915 16.664726 11.625 16.496094 C 11.000286 15.934976 9.985735 14.965635 9.0136719 13.773438 C 9.0085593 13.767167 9.003157 13.760189 8.9980469 13.753906 C 8.8051067 13.516696 8.6137077 13.270769 8.4277344 13.017578 C 7.2940501 11.474137 6.375 9.6726085 6.375 8 C 6.375 4.8889542 8.8889563 2.375 12 2.375 z M 12 5.625 C 10.692765 5.625 9.625 6.6927655 9.625 8 C 9.625 9.3072345 10.692765 10.375 12 10.375 C 13.307235 10.375 14.375 9.3072345 14.375 8 C 14.375 6.6927655 13.307235 5.625 12 5.625 z M 12 6.375 C 12.901904 6.375 13.625 7.0980955 13.625 8 C 13.625 8.9019045 12.901904 9.625 12 9.625 C 11.098096 9.625 10.375 8.9019045 10.375 8 C 10.375 7.0980955 11.098096 6.375 12 6.375 z M 5.0039062 14.375 L 8.5351562 14.375 C 9.5185215 15.563054 10.521441 16.517112 11.142578 17.074219 A 0.3750375 0.3750375 0 0 0 11.166016 17.09375 C 11.657367 17.469048 12.342633 17.469048 12.833984 17.09375 A 0.3750375 0.3750375 0 0 0 12.857422 17.074219 C 13.479049 16.517038 14.481647 15.563035 15.464844 14.375 L 18.998047 14.375 A 0.3750375 0.3750375 0 0 0 19 14.375 C 19.27057 14.374935 19.506297 14.546028 19.591797 14.802734 L 21.591797 20.802734 C 21.729951 21.217668 21.437344 21.624668 21 21.625 L 3 21.625 C 2.5622522 21.624814 2.269437 21.217906 2.4082031 20.802734 L 4.4121094 14.802734 C 4.4977515 14.546503 4.7337417 14.375115 5.0039062 14.375 z " />
</svg>
