<?xml version="1.0" encoding="UTF-8" standalone="no"?>
<svg
   width="24"
   height="24"
   viewBox="0 0 24 24"
   fill="none"
   stroke="currentColor"
   stroke-width="0.75"
   stroke-linecap="round"
   stroke-linejoin="round"
   version="1.1"
   id="svg2"
   sodipodi:docname=".tmp_move-up-left.svg"
   xmlns:inkscape="http://www.inkscape.org/namespaces/inkscape"
   xmlns:sodipodi="http://sodipodi.sourceforge.net/DTD/sodipodi-0.dtd"
   xmlns="http://www.w3.org/2000/svg"
   xmlns:svg="http://www.w3.org/2000/svg">
  <defs
     id="defs2" />
  <sodipodi:namedview
     id="namedview2"
     pagecolor="#ffffff"
     bordercolor="#000000"
     borderopacity="0.25"
     inkscape:showpageshadow="2"
     inkscape:pageopacity="0.0"
     inkscape:pagecheckerboard="0"
     inkscape:deskcolor="#d1d1d1" />
  <path
     id="path1"
     style="baseline-shift:baseline;display:inline;overflow:visible;vector-effect:none;fill:#000000;stroke:none;stroke-linecap:butt;stroke-linejoin:miter;enable-background:accumulate;stop-color:#000000;stop-opacity:1;opacity:1"
     d="M 4.9804688 4.625 A 0.375 0.375 0 0 0 4.9023438 4.6386719 A 0.375 0.375 0 0 0 4.8125 4.6757812 A 0.375 0.375 0 0 0 4.7714844 4.703125 A 0.375 0.375 0 0 0 4.7695312 4.703125 A 0.3750375 0.3750375 0 0 0 4.734375 4.734375 A 0.375 0.375 0 0 0 4.703125 4.7695312 A 0.3750375 0.3750375 0 0 0 4.703125 4.7714844 A 0.375 0.375 0 0 0 4.6757812 4.8125 A 0.375 0.375 0 0 0 4.6386719 4.9023438 A 0.375 0.375 0 0 0 4.625 5 A 0.375 0.375 0 0 0 4.625 5.0253906 L 4.625 11 A 0.375 0.375 0 0 0 5 11.375 A 0.375 0.375 0 0 0 5.375 11 L 5.375 5.90625 L 18.734375 19.265625 A 0.375 0.375 0 0 0 19.265625 19.265625 A 0.375 0.375 0 0 0 19.265625 18.734375 L 5.90625 5.375 L 11 5.375 A 0.375 0.375 0 0 0 11.375 5 A 0.375 0.375 0 0 0 11 4.625 L 5.0253906 4.625 A 0.375 0.375 0 0 0 5 4.625 A 0.375 0.375 0 0 0 4.9804688 4.625 z " />
</svg>
