<?xml version="1.0" encoding="UTF-8" standalone="no"?>
<svg
   width="24"
   height="24"
   viewBox="0 0 24 24"
   fill="none"
   stroke="currentColor"
   stroke-width="0.75"
   stroke-linecap="round"
   stroke-linejoin="round"
   version="1.1"
   id="svg3"
   sodipodi:docname=".tmp_nut.svg"
   xmlns:inkscape="http://www.inkscape.org/namespaces/inkscape"
   xmlns:sodipodi="http://sodipodi.sourceforge.net/DTD/sodipodi-0.dtd"
   xmlns="http://www.w3.org/2000/svg"
   xmlns:svg="http://www.w3.org/2000/svg">
  <defs
     id="defs3" />
  <sodipodi:namedview
     id="namedview3"
     pagecolor="#ffffff"
     bordercolor="#000000"
     borderopacity="0.25"
     inkscape:showpageshadow="2"
     inkscape:pageopacity="0.0"
     inkscape:pagecheckerboard="0"
     inkscape:deskcolor="#d1d1d1" />
  <path
     id="path1"
     style="baseline-shift:baseline;display:inline;overflow:visible;vector-effect:none;fill:#000000;stroke:none;stroke-linecap:butt;stroke-linejoin:miter;enable-background:accumulate;stop-color:#000000;stop-opacity:1;opacity:1"
     d="M 12 1.625 A 0.375 0.375 0 0 0 11.625 2 L 11.625 3.6308594 C 9.7043913 3.6886154 7.9181251 4.1852106 6.5136719 4.9179688 C 5.0182079 5.6982108 3.9295192 6.7370015 3.6367188 7.9082031 C 3.419059 8.7770501 2.7913226 9.7095737 1.7382812 10.730469 A 0.3750375 0.3750375 0 0 0 2.0234375 11.375 C 3.101697 11.307503 3.8306771 11.095736 4.625 10.640625 L 4.625 14 C 4.6253589 17.372341 6.9153766 20.318861 10.183594 21.150391 A 0.3750375 0.3750375 0 0 0 10.185547 21.150391 C 10.548015 21.241891 10.872796 21.404046 11.113281 21.644531 L 11.734375 22.265625 A 0.3750375 0.3750375 0 0 0 12.265625 22.265625 L 12.886719 21.644531 C 13.127204 21.404046 13.451985 21.241887 13.814453 21.150391 C 17.082862 20.319187 19.375015 17.372492 19.375 14 L 19.375 10.701172 C 20.179609 11.265769 20.949481 11.503634 22.044922 11.373047 A 0.3750375 0.3750375 0 0 0 22.234375 10.707031 C 20.99491 9.7170236 20.592771 8.8300101 20.363281 7.9101562 A 0.3750375 0.3750375 0 0 0 20.363281 7.9082031 C 20.070481 6.7369984 18.981792 5.6982108 17.486328 4.9179688 C 16.081875 4.1852106 14.295609 3.6886154 12.375 3.6308594 L 12.375 2 A 0.375 0.375 0 0 0 12 1.625 z M 12 4.375 C 13.9375 4.375 15.759136 4.8622733 17.138672 5.5820312 C 18.518208 6.3017892 19.429519 7.2629985 19.636719 8.0917969 C 19.836262 8.8908006 20.327832 9.7399394 21.126953 10.589844 C 20.478325 10.542814 19.961188 10.351732 19.248047 9.71875 A 0.3750375 0.3750375 0 0 0 19.228516 9.703125 A 0.375 0.375 0 0 0 19.208984 9.6894531 A 0.3750375 0.3750375 0 0 0 19.1875 9.6757812 A 0.375 0.375 0 0 0 19.166016 9.6640625 A 0.3750375 0.3750375 0 0 0 19.142578 9.6542969 A 0.3750375 0.3750375 0 0 0 19.103516 9.640625 A 0.3750375 0.3750375 0 0 0 19.087891 9.6367188 A 0.375 0.375 0 0 0 19.072266 9.6328125 A 0.3750375 0.3750375 0 0 0 19.0625 9.6308594 A 0.375 0.375 0 0 0 19.021484 9.6269531 A 0.375 0.375 0 0 0 19 9.625 A 0.375 0.375 0 0 0 18.976562 9.6269531 A 0.375 0.375 0 0 0 18.972656 9.6269531 A 0.3750375 0.3750375 0 0 0 18.966797 9.6269531 A 0.375 0.375 0 0 0 18.943359 9.6308594 A 0.3750375 0.3750375 0 0 0 18.904297 9.6386719 A 0.3750375 0.3750375 0 0 0 18.902344 9.6386719 A 0.375 0.375 0 0 0 18.898438 9.640625 A 0.3750375 0.3750375 0 0 0 18.861328 9.6523438 A 0.375 0.375 0 0 0 18.839844 9.6621094 A 0.3750375 0.3750375 0 0 0 18.826172 9.6679688 A 0.375 0.375 0 0 0 18.796875 9.6855469 A 0.3750375 0.3750375 0 0 0 18.773438 9.7011719 A 0.375 0.375 0 0 0 18.765625 9.7089844 A 0.3750375 0.3750375 0 0 0 18.748047 9.7226562 A 0.375 0.375 0 0 0 18.732422 9.7382812 A 0.3750375 0.3750375 0 0 0 18.705078 9.7695312 A 0.375 0.375 0 0 0 18.699219 9.7753906 A 0.3750375 0.3750375 0 0 0 18.683594 9.7988281 A 0.375 0.375 0 0 0 18.660156 9.8417969 A 0.375 0.375 0 0 0 18.642578 9.8867188 A 0.3750375 0.3750375 0 0 0 18.642578 9.8886719 A 0.375 0.375 0 0 0 18.636719 9.9101562 C 18.489557 10.378354 18.325408 10.664335 18.070312 10.914062 C 17.842329 11.137249 17.46754 11.343376 16.992188 11.570312 C 15.84518 11.056805 15.386347 10.685175 14.814453 9.796875 A 0.3750375 0.3750375 0 0 0 14.189453 9.7890625 C 13.611239 10.642786 13.099629 11.006602 11.96875 11.558594 C 10.827655 11.054834 10.354136 10.696072 9.8222656 9.8066406 A 0.3750375 0.3750375 0 0 0 9.1796875 9.8066406 C 8.6942799 10.608541 8.2518382 10.984294 7.0585938 11.541016 C 6.2247305 10.993986 5.8051844 10.631483 5.3242188 9.8125 A 0.375 0.375 0 0 0 5.3242188 9.8105469 A 0.3750375 0.3750375 0 0 0 5.296875 9.7714844 A 0.375 0.375 0 0 0 5.2949219 9.7675781 A 0.3750375 0.3750375 0 0 0 5.265625 9.734375 A 0.375 0.375 0 0 0 5.2617188 9.7304688 A 0.3750375 0.3750375 0 0 0 5.2285156 9.703125 A 0.375 0.375 0 0 0 5.2207031 9.6972656 A 0.3750375 0.3750375 0 0 0 5.1875 9.6757812 A 0.375 0.375 0 0 0 5.1777344 9.6699219 A 0.3750375 0.3750375 0 0 0 5.1425781 9.6542969 A 0.3750375 0.3750375 0 0 0 5.0976562 9.6386719 A 0.3750375 0.3750375 0 0 0 5.0488281 9.6289062 A 0.375 0.375 0 0 0 5.03125 9.6269531 A 0.3750375 0.3750375 0 0 0 4.9941406 9.625 A 0.3750375 0.3750375 0 0 0 4.953125 9.6289062 A 0.3750375 0.3750375 0 0 0 4.9082031 9.6367188 A 0.3750375 0.3750375 0 0 0 4.90625 9.6367188 A 0.375 0.375 0 0 0 4.9023438 9.6386719 A 0.3750375 0.3750375 0 0 0 4.8730469 9.6464844 A 0.375 0.375 0 0 0 4.8632812 9.6503906 A 0.3750375 0.3750375 0 0 0 4.8320312 9.6660156 A 0.375 0.375 0 0 0 4.8203125 9.671875 A 0.3750375 0.3750375 0 0 0 4.7871094 9.6914062 A 0.375 0.375 0 0 0 4.7792969 9.6953125 C 4.106894 10.15849 3.572902 10.350457 2.9453125 10.472656 C 3.6292645 9.679035 4.1621142 8.89481 4.3632812 8.0917969 C 4.5704809 7.2629985 5.4817921 6.3017892 6.8613281 5.5820312 C 8.2408642 4.8622733 10.0625 4.375 12 4.375 z M 14.496094 10.560547 C 15.065269 11.318116 15.681534 11.839186 16.851562 12.34375 A 0.3750375 0.3750375 0 0 0 17.154297 12.341797 C 17.774851 12.06052 18.236794 11.800575 18.595703 11.449219 C 18.605653 11.439478 18.615416 11.429987 18.625 11.419922 L 18.625 14 C 18.625014 17.033275 16.570562 19.67623 13.630859 20.423828 C 13.169328 20.540331 12.714984 20.753766 12.355469 21.113281 L 12 21.46875 L 11.644531 21.113281 C 11.285016 20.753766 10.830672 20.540331 10.369141 20.423828 C 7.42961 19.675926 5.3753228 17.033182 5.375 14 L 5.375 11.064453 C 5.7371693 11.52042 6.1550514 11.909145 6.7988281 12.316406 A 0.3750375 0.3750375 0 0 0 7.1523438 12.341797 C 8.3949728 11.788092 8.9915445 11.268018 9.5 10.574219 C 10.054224 11.334814 10.686673 11.850076 11.853516 12.345703 A 0.3750375 0.3750375 0 0 0 12.160156 12.337891 C 13.299407 11.797834 13.919736 11.291889 14.496094 10.560547 z " />
</svg>
