<?xml version="1.0" encoding="UTF-8" standalone="no"?>
<svg
   width="24"
   height="24"
   viewBox="0 0 24 24"
   fill="none"
   stroke="currentColor"
   stroke-width="0.75"
   stroke-linecap="round"
   stroke-linejoin="round"
   version="1.1"
   id="svg2"
   sodipodi:docname=".tmp_pin.svg"
   xmlns:inkscape="http://www.inkscape.org/namespaces/inkscape"
   xmlns:sodipodi="http://sodipodi.sourceforge.net/DTD/sodipodi-0.dtd"
   xmlns="http://www.w3.org/2000/svg"
   xmlns:svg="http://www.w3.org/2000/svg">
  <defs
     id="defs2" />
  <sodipodi:namedview
     id="namedview2"
     pagecolor="#ffffff"
     bordercolor="#000000"
     borderopacity="0.25"
     inkscape:showpageshadow="2"
     inkscape:pageopacity="0.0"
     inkscape:pagecheckerboard="0"
     inkscape:deskcolor="#d1d1d1" />
  <path
     id="path1"
     style="baseline-shift:baseline;display:inline;overflow:visible;vector-effect:none;fill:#000000;stroke:none;stroke-linecap:butt;stroke-linejoin:miter;enable-background:accumulate;stop-color:#000000;stop-opacity:1;opacity:1"
     d="M 8 1.625 C 7.2395836 1.625 6.6208105 1.9226818 6.21875 2.375 C 5.8166895 2.8273182 5.625 3.4166667 5.625 4 C 5.625 4.5833333 5.8166895 5.1726818 6.21875 5.625 C 6.6208105 6.0773182 7.2395836 6.375 8 6.375 C 8.3496197 6.375 8.625 6.6503803 8.625 7 L 8.625 10.759766 C 8.6246724 11.377207 8.2755937 11.940083 7.7226562 12.214844 A 0.3750375 0.3750375 0 0 0 7.7207031 12.214844 L 5.9414062 13.115234 C 5.1365058 13.516406 4.6254773 14.340742 4.625 15.240234 L 4.625 16 C 4.625 16.75495 5.2450502 17.375 6 17.375 L 11.625 17.375 L 11.625 22 A 0.375 0.375 0 0 0 12 22.375 A 0.375 0.375 0 0 0 12.375 22 L 12.375 17.375 L 18 17.375 C 18.75495 17.375 19.375 16.75495 19.375 16 L 19.375 15.240234 C 19.374523 14.340742 18.863491 13.516406 18.058594 13.115234 L 18.056641 13.113281 L 16.279297 12.214844 A 0.3750375 0.3750375 0 0 0 16.277344 12.214844 C 15.7245 11.94013 15.375328 11.377207 15.375 10.759766 L 15.375 7 C 15.375 6.6503803 15.65038 6.375 16 6.375 C 16.760416 6.375 17.37919 6.0773182 17.78125 5.625 C 18.18331 5.1726818 18.375 4.5833333 18.375 4 C 18.375 3.4166667 18.18331 2.8273182 17.78125 2.375 C 17.37919 1.9226818 16.760416 1.625 16 1.625 L 8 1.625 z M 8 2.375 L 16 2.375 C 16.572916 2.375 16.954144 2.5773182 17.21875 2.875 C 17.483356 3.1726818 17.625 3.5833333 17.625 4 C 17.625 4.4166667 17.483356 4.8273182 17.21875 5.125 C 16.954144 5.4226818 16.572916 5.625 16 5.625 C 15.24505 5.625 14.625 6.2450502 14.625 7 L 14.625 10.759766 C 14.625478 11.660213 15.136981 12.48602 15.943359 12.886719 L 17.720703 13.785156 A 0.3750375 0.3750375 0 0 0 17.722656 13.785156 C 18.275594 14.059917 18.624672 14.622793 18.625 15.240234 L 18.625 16 C 18.625 16.34962 18.34962 16.625 18 16.625 L 12 16.625 L 6 16.625 C 5.6503803 16.625 5.375 16.34962 5.375 16 L 5.375 15.240234 C 5.3753276 14.622793 5.7244064 14.059917 6.2773438 13.785156 A 0.3750375 0.3750375 0 0 0 6.2792969 13.785156 L 8.0566406 12.886719 L 8.0585938 12.884766 C 8.8634974 12.483641 9.3745227 11.659258 9.375 10.759766 L 9.375 7 C 9.375 6.2450502 8.7549498 5.625 8 5.625 C 7.4270837 5.625 7.0458559 5.4226818 6.78125 5.125 C 6.5166441 4.8273182 6.375 4.4166667 6.375 4 C 6.375 3.5833333 6.5166441 3.1726818 6.78125 2.875 C 7.0458559 2.5773182 7.4270837 2.375 8 2.375 z " />
</svg>
