<?xml version="1.0" encoding="UTF-8" standalone="no"?>
<svg
   width="24"
   height="24"
   viewBox="0 0 24 24"
   fill="none"
   stroke="currentColor"
   stroke-width="0.75"
   stroke-linecap="round"
   stroke-linejoin="round"
   version="1.1"
   id="svg2"
   sodipodi:docname=".tmp_printer.svg"
   xmlns:inkscape="http://www.inkscape.org/namespaces/inkscape"
   xmlns:sodipodi="http://sodipodi.sourceforge.net/DTD/sodipodi-0.dtd"
   xmlns="http://www.w3.org/2000/svg"
   xmlns:svg="http://www.w3.org/2000/svg">
  <defs
     id="defs2" />
  <sodipodi:namedview
     id="namedview2"
     pagecolor="#ffffff"
     bordercolor="#000000"
     borderopacity="0.25"
     inkscape:showpageshadow="2"
     inkscape:pageopacity="0.0"
     inkscape:pagecheckerboard="0"
     inkscape:deskcolor="#d1d1d1" />
  <path
     id="path1"
     style="baseline-shift:baseline;display:inline;overflow:visible;vector-effect:none;fill:#000000;stroke:none;stroke-linecap:butt;stroke-linejoin:miter;enable-background:accumulate;stop-color:#000000;stop-opacity:1;opacity:1"
     d="M 7 1.625 C 6.2450502 1.625 5.625 2.2450502 5.625 3 L 5.625 8.625 L 4 8.625 C 2.6927655 8.625 1.625 9.6927655 1.625 11 L 1.625 16 C 1.625 17.307235 2.6927655 18.375 4 18.375 L 5.625 18.375 L 5.625 21 C 5.625 21.755264 6.2447365 22.375 7 22.375 L 17 22.375 C 17.755264 22.375 18.375 21.755264 18.375 21 L 18.375 18.375 L 20 18.375 C 21.307235 18.375 22.375 17.307235 22.375 16 L 22.375 11 C 22.375 9.6927655 21.307235 8.625 20 8.625 L 18.375 8.625 L 18.375 3 C 18.375 2.2450502 17.75495 1.625 17 1.625 L 7 1.625 z M 7 2.375 L 17 2.375 C 17.34962 2.375 17.625 2.6503803 17.625 3 L 17.625 8.625 L 6.375 8.625 L 6.375 3 C 6.375 2.6503803 6.6503803 2.375 7 2.375 z M 4 9.375 L 20 9.375 C 20.901904 9.375 21.625 10.098096 21.625 11 L 21.625 16 C 21.625 16.901904 20.901904 17.625 20 17.625 L 18.375 17.625 L 18.375 15 C 18.375 14.244736 17.755264 13.625 17 13.625 L 7 13.625 C 6.2447365 13.625 5.625 14.244736 5.625 15 L 5.625 17.625 L 4 17.625 C 3.0980955 17.625 2.375 16.901904 2.375 16 L 2.375 11 C 2.375 10.098096 3.0980955 9.375 4 9.375 z M 7 14.375 L 17 14.375 C 17.352736 14.375 17.625 14.647264 17.625 15 L 17.625 18 L 17.625 21 C 17.625 21.352736 17.352736 21.625 17 21.625 L 7 21.625 C 6.6472635 21.625 6.375 21.352736 6.375 21 L 6.375 18 L 6.375 15 C 6.375 14.647264 6.6472635 14.375 7 14.375 z " />
</svg>
