<?xml version="1.0" encoding="UTF-8" standalone="no"?>
<svg
   width="24"
   height="24"
   viewBox="0 0 24 24"
   fill="none"
   stroke="currentColor"
   stroke-width="0.75"
   stroke-linecap="round"
   stroke-linejoin="round"
   version="1.1"
   id="svg1"
   sodipodi:docname=".tmp_puzzle.svg"
   xmlns:inkscape="http://www.inkscape.org/namespaces/inkscape"
   xmlns:sodipodi="http://sodipodi.sourceforge.net/DTD/sodipodi-0.dtd"
   xmlns="http://www.w3.org/2000/svg"
   xmlns:svg="http://www.w3.org/2000/svg">
  <defs
     id="defs1" />
  <sodipodi:namedview
     id="namedview1"
     pagecolor="#ffffff"
     bordercolor="#000000"
     borderopacity="0.25"
     inkscape:showpageshadow="2"
     inkscape:pageopacity="0.0"
     inkscape:pagecheckerboard="0"
     inkscape:deskcolor="#d1d1d1" />
  <path
     id="path1"
     style="baseline-shift:baseline;display:inline;overflow:visible;vector-effect:none;fill:#000000;stroke:none;stroke-linecap:butt;stroke-linejoin:miter;enable-background:accumulate;stop-color:#000000;stop-opacity:1;opacity:1"
     d="M 12 1.6269531 C 11.285425 1.6269531 10.570365 1.8983567 10.027344 2.4414062 L 8.3457031 4.1230469 C 7.5985694 4.8694271 7.9690231 6.1877925 8.9960938 6.4335938 C 10.62962 6.8254465 11.191514 8.8139513 10.003906 10.001953 C 8.8162985 11.189955 6.8279415 10.62949 6.4355469 8.9960938 C 6.1897457 7.9690231 4.8713803 7.5985694 4.125 8.3457031 L 2.4414062 10.027344 C 1.3553072 11.113386 1.3553071 12.886614 2.4414062 13.972656 L 4.125 15.654297 C 4.4843765 16.013311 4.3221531 16.586846 3.828125 16.705078 C 1.661924 17.22471 0.89191047 19.957794 2.4667969 21.533203 C 4.0416832 23.108612 6.7745718 22.337903 7.2949219 20.171875 C 7.413154 19.677847 7.9847359 19.515624 8.34375 19.875 A 0.3750375 0.3750375 0 0 0 8.3457031 19.875 L 10.027344 21.558594 C 11.113386 22.644693 12.886614 22.644693 13.972656 21.558594 L 15.654297 19.876953 C 16.401431 19.130573 16.030977 17.812207 15.003906 17.566406 C 13.37038 17.174554 12.808486 15.186049 13.996094 13.998047 C 15.183702 12.810045 17.172059 13.37051 17.564453 15.003906 C 17.810254 16.030977 19.12862 16.401431 19.875 15.654297 L 21.558594 13.972656 C 22.644693 12.886614 22.644693 11.113386 21.558594 10.027344 L 19.875 8.3457031 C 19.515624 7.986689 19.677847 7.413154 20.171875 7.2949219 C 22.338076 6.7752904 23.108089 4.0422058 21.533203 2.4667969 C 19.958317 0.89138796 17.225428 1.6620965 16.705078 3.828125 C 16.586846 4.3221531 16.015264 4.4843765 15.65625 4.125 A 0.3750375 0.3750375 0 0 0 15.654297 4.125 L 13.972656 2.4414062 C 13.429635 1.8983566 12.714575 1.6269531 12 1.6269531 z M 19.457031 2.3632812 C 20.001206 2.3526496 20.558553 2.5525461 21.003906 2.9980469 C 22.191514 4.1860488 21.62962 6.1745535 19.996094 6.5664062 C 18.969023 6.8122076 18.598569 8.1305729 19.345703 8.8769531 L 21.027344 10.558594 C 21.826814 11.358023 21.826814 12.641977 21.027344 13.441406 L 19.345703 15.125 A 0.3750375 0.3750375 0 0 0 19.34375 15.125 C 18.984736 15.484376 18.413154 15.322153 18.294922 14.828125 C 17.774572 12.662097 15.041683 11.891388 13.466797 13.466797 C 11.891911 15.042206 12.661924 17.77529 14.828125 18.294922 C 15.322153 18.413154 15.484376 18.986689 15.125 19.345703 L 13.441406 21.027344 C 12.641977 21.826814 11.358023 21.826814 10.558594 21.027344 L 8.875 19.345703 C 8.1286197 18.598569 6.8102543 18.969023 6.5644531 19.996094 C 6.1720585 21.62949 4.1837016 22.189955 2.9960938 21.001953 C 1.8084857 19.813951 2.37038 17.825446 4.0039062 17.433594 C 5.0309769 17.187793 5.4014306 15.869427 4.6542969 15.123047 L 2.9726562 13.441406 C 2.173186 12.641977 2.1731859 11.358023 2.9726562 10.558594 L 4.6542969 8.875 A 0.3750375 0.3750375 0 0 0 4.65625 8.875 C 5.0152672 8.5156235 5.586846 8.6778469 5.7050781 9.171875 C 6.2254282 11.337903 8.9583169 12.108612 10.533203 10.533203 C 12.108089 8.9577943 11.338076 6.2247096 9.171875 5.7050781 C 8.6778469 5.586846 8.5156235 5.013311 8.875 4.6542969 L 10.558594 2.9726562 C 10.958308 2.572921 11.478943 2.3730469 12 2.3730469 C 12.521057 2.3730469 13.041692 2.5729211 13.441406 2.9726562 L 15.125 4.6542969 C 15.87138 5.4014306 17.189746 5.0309768 17.435547 4.0039062 C 17.680793 2.9830336 18.550074 2.3810007 19.457031 2.3632812 z " />
</svg>
