<?xml version="1.0" encoding="UTF-8" standalone="no"?>
<svg
   width="24"
   height="24"
   viewBox="0 0 24 24"
   fill="none"
   stroke="currentColor"
   stroke-width="0.75"
   stroke-linecap="round"
   stroke-linejoin="round"
   version="1.1"
   id="svg7"
   sodipodi:docname=".tmp_radar.svg"
   xmlns:inkscape="http://www.inkscape.org/namespaces/inkscape"
   xmlns:sodipodi="http://sodipodi.sourceforge.net/DTD/sodipodi-0.dtd"
   xmlns="http://www.w3.org/2000/svg"
   xmlns:svg="http://www.w3.org/2000/svg">
  <defs
     id="defs7" />
  <sodipodi:namedview
     id="namedview7"
     pagecolor="#ffffff"
     bordercolor="#000000"
     borderopacity="0.25"
     inkscape:showpageshadow="2"
     inkscape:pageopacity="0.0"
     inkscape:pagecheckerboard="0"
     inkscape:deskcolor="#d1d1d1" />
  <path
     id="path1"
     style="baseline-shift:baseline;display:inline;overflow:visible;vector-effect:none;fill:#000000;stroke:none;stroke-linecap:butt;stroke-linejoin:miter;enable-background:accumulate;stop-color:#000000;stop-opacity:1;opacity:1"
     d="M 11.679688 1.6269531 C 10.004288 1.6774194 8.3280354 2.1337827 6.8027344 3.015625 A 0.375 0.375 0 0 0 6.6660156 3.5273438 A 0.375 0.375 0 0 0 7.1777344 3.6640625 C 10.845396 1.5436297 15.447019 2.0761186 18.533203 4.9355469 L 16.232422 7.2363281 C 14.981146 6.1168036 13.39505 5.5816252 11.824219 5.6210938 C 10.1365 5.6634993 8.4662117 6.3691332 7.2441406 7.7285156 C 4.7999984 10.447281 5.1446894 14.67487 7.9960938 16.962891 A 0.375 0.375 0 0 0 8.5234375 16.904297 A 0.375 0.375 0 0 0 8.4648438 16.376953 C 5.9411552 14.351894 5.6395005 10.636763 7.8027344 8.2304688 C 9.8818602 5.9177331 13.404831 5.7406776 15.701172 7.7675781 L 13.390625 10.078125 C 12.999086 9.7936674 12.518677 9.625 12 9.625 C 10.692765 9.625 9.625 10.692765 9.625 12 C 9.625 13.307235 10.692765 14.375 12 14.375 C 13.307235 14.375 14.375 13.307235 14.375 12 C 14.375 11.481323 14.206333 11.000914 13.921875 10.609375 L 16.503906 8.0253906 L 19.335938 5.1953125 A 0.375 0.375 0 0 0 19.369141 5.1582031 A 0.375 0.375 0 0 0 19.335938 4.6640625 A 0.375 0.375 0 0 0 19.298828 4.6308594 C 17.644095 2.9904233 15.543363 1.9996848 13.349609 1.7109375 C 12.797169 1.6382239 12.238154 1.610131 11.679688 1.6269531 z M 4 5.625 A 0.375 0.375 0 0 0 3.625 6 A 0.375 0.375 0 0 0 4 6.375 L 4.0097656 6.375 A 0.375 0.375 0 0 0 4.3847656 6 A 0.375 0.375 0 0 0 4.0097656 5.625 L 4 5.625 z M 21.318359 7.9746094 A 0.375 0.375 0 0 0 21.173828 8 A 0.375 0.375 0 0 0 20.960938 8.4863281 C 23.34439 14.557604 19.150409 21.172882 12.642578 21.607422 C 6.1347477 22.041962 1.0991848 16.043245 2.6542969 9.7089844 A 0.375 0.375 0 0 0 2.3789062 9.2558594 A 0.375 0.375 0 0 0 1.9257812 9.53125 C 0.25476197 16.337623 5.7004794 22.822396 12.693359 22.355469 C 19.68624 21.888541 24.219301 14.736677 21.658203 8.2128906 A 0.375 0.375 0 0 0 21.318359 7.9746094 z M 12 10.375 C 12.424427 10.375 12.809148 10.535284 13.097656 10.798828 A 0.375 0.375 0 0 0 13.144531 10.855469 A 0.375 0.375 0 0 0 13.201172 10.902344 C 13.464716 11.190852 13.625 11.575573 13.625 12 C 13.625 12.901904 12.901904 13.625 12 13.625 C 11.098096 13.625 10.375 12.901904 10.375 12 C 10.375 11.098096 11.098096 10.375 12 10.375 z M 17.96875 11.285156 A 0.375 0.375 0 0 0 17.615234 11.681641 C 17.718719 13.491505 16.945376 15.239786 15.535156 16.378906 A 0.375 0.375 0 0 0 15.478516 16.90625 A 0.375 0.375 0 0 0 16.005859 16.960938 C 17.603498 15.670428 18.482472 13.689067 18.365234 11.638672 A 0.375 0.375 0 0 0 17.96875 11.285156 z M 12 17.625 A 0.375 0.375 0 0 0 11.625 18 A 0.375 0.375 0 0 0 12 18.375 L 12.009766 18.375 A 0.375 0.375 0 0 0 12.384766 18 A 0.375 0.375 0 0 0 12.009766 17.625 L 12 17.625 z " />
</svg>
