<?xml version="1.0" encoding="UTF-8" standalone="no"?>
<svg
   width="24"
   height="24"
   viewBox="0 0 24 24"
   fill="none"
   stroke="currentColor"
   stroke-width="0.75"
   stroke-linecap="round"
   stroke-linejoin="round"
   version="1.1"
   id="svg3"
   sodipodi:docname=".tmp_rail-symbol.svg"
   xmlns:inkscape="http://www.inkscape.org/namespaces/inkscape"
   xmlns:sodipodi="http://sodipodi.sourceforge.net/DTD/sodipodi-0.dtd"
   xmlns="http://www.w3.org/2000/svg"
   xmlns:svg="http://www.w3.org/2000/svg">
  <defs
     id="defs3" />
  <sodipodi:namedview
     id="namedview3"
     pagecolor="#ffffff"
     bordercolor="#000000"
     borderopacity="0.25"
     inkscape:showpageshadow="2"
     inkscape:pageopacity="0.0"
     inkscape:pagecheckerboard="0"
     inkscape:deskcolor="#d1d1d1" />
  <path
     id="path1"
     style="baseline-shift:baseline;display:inline;overflow:visible;vector-effect:none;fill:#000000;stroke:none;stroke-linecap:butt;stroke-linejoin:miter;enable-background:accumulate;stop-color:#000000;stop-opacity:1;opacity:1"
     d="M 10 3.625 A 0.375 0.375 0 0 0 9.734375 3.734375 A 0.375 0.375 0 0 0 9.734375 4.265625 L 14.09375 8.625 L 5 8.625 A 0.375 0.375 0 0 0 4.625 9 A 0.375 0.375 0 0 0 5 9.375 L 14.09375 9.375 L 8.84375 14.625 L 5 14.625 A 0.375 0.375 0 0 0 4.625 15 A 0.375 0.375 0 0 0 5 15.375 L 8.84375 15.375 L 13.734375 20.265625 A 0.375 0.375 0 0 0 14.265625 20.265625 A 0.375 0.375 0 0 0 14.265625 19.734375 L 9.90625 15.375 L 19 15.375 A 0.375 0.375 0 0 0 19.375 15 A 0.375 0.375 0 0 0 19 14.625 L 9.90625 14.625 L 15.15625 9.375 L 19 9.375 A 0.375 0.375 0 0 0 19.375 9 A 0.375 0.375 0 0 0 19 8.625 L 15.15625 8.625 L 10.265625 3.734375 A 0.375 0.375 0 0 0 10 3.625 z " />
</svg>
