<?xml version="1.0" encoding="UTF-8" standalone="no"?>
<svg
   width="24"
   height="24"
   viewBox="0 0 24 24"
   fill="none"
   stroke="currentColor"
   stroke-width="0.75"
   stroke-linecap="round"
   stroke-linejoin="round"
   version="1.1"
   id="svg1"
   sodipodi:docname=".tmp_rectangle-circle.svg"
   xmlns:inkscape="http://www.inkscape.org/namespaces/inkscape"
   xmlns:sodipodi="http://sodipodi.sourceforge.net/DTD/sodipodi-0.dtd"
   xmlns="http://www.w3.org/2000/svg"
   xmlns:svg="http://www.w3.org/2000/svg">
  <defs
     id="defs1" />
  <sodipodi:namedview
     id="namedview1"
     pagecolor="#ffffff"
     bordercolor="#000000"
     borderopacity="0.25"
     inkscape:showpageshadow="2"
     inkscape:pageopacity="0.0"
     inkscape:pagecheckerboard="0"
     inkscape:deskcolor="#d1d1d1" />
  <path
     id="path1"
     style="baseline-shift:baseline;display:inline;overflow:visible;vector-effect:none;fill:#000000;stroke:none;stroke-linecap:butt;stroke-linejoin:miter;enable-background:accumulate;stop-color:#000000;stop-opacity:1;opacity:1"
     d="M 3 3.625 C 2.2450502 3.625 1.625 4.2450502 1.625 5 L 1.625 19 C 1.625 19.75495 2.2450502 20.375 3 20.375 L 14 20.375 C 18.620943 20.375 22.375 16.620943 22.375 12 C 22.375 7.379057 18.620943 3.625 14 3.625 L 3 3.625 z M 3 4.375 L 10.535156 4.375 C 7.6406459 5.6945452 5.625 8.6146338 5.625 12 C 5.625 15.385366 7.6406459 18.305455 10.535156 19.625 L 3 19.625 C 2.6503803 19.625 2.375 19.34962 2.375 19 L 2.375 5 C 2.375 4.6503803 2.6503803 4.375 3 4.375 z M 13.625 4.3847656 L 13.625 19.615234 C 9.5840347 19.420162 6.375 16.089873 6.375 12 C 6.375 7.9101273 9.5840347 4.5798378 13.625 4.3847656 z M 14.375 4.3847656 C 18.415965 4.5798378 21.625 7.9101273 21.625 12 C 21.625 16.089873 18.415965 19.420162 14.375 19.615234 L 14.375 4.3847656 z " />
</svg>
