<?xml version="1.0" encoding="UTF-8" standalone="no"?>
<svg
   width="24"
   height="24"
   viewBox="0 0 24 24"
   fill="none"
   stroke="currentColor"
   stroke-width="0.75"
   stroke-linecap="round"
   stroke-linejoin="round"
   version="1.1"
   id="svg2"
   sodipodi:docname=".tmp_route.svg"
   xmlns:inkscape="http://www.inkscape.org/namespaces/inkscape"
   xmlns:sodipodi="http://sodipodi.sourceforge.net/DTD/sodipodi-0.dtd"
   xmlns="http://www.w3.org/2000/svg"
   xmlns:svg="http://www.w3.org/2000/svg">
  <defs
     id="defs2" />
  <sodipodi:namedview
     id="namedview2"
     pagecolor="#ffffff"
     bordercolor="#000000"
     borderopacity="0.25"
     inkscape:showpageshadow="2"
     inkscape:pageopacity="0.0"
     inkscape:pagecheckerboard="0"
     inkscape:deskcolor="#d1d1d1" />
  <path
     id="circle1"
     style="baseline-shift:baseline;display:inline;overflow:visible;vector-effect:none;fill:#000000;stroke:none;stroke-linecap:butt;stroke-linejoin:miter;enable-background:accumulate;stop-color:#000000;stop-opacity:1;opacity:1"
     d="M 18 1.625 C 16.267202 1.625 14.833891 2.9409667 14.646484 4.625 L 6.5 4.625 C 5.2395838 4.625 4.2458104 5.1101818 3.59375 5.84375 C 2.9416896 6.5773182 2.625 7.5416667 2.625 8.5 C 2.625 9.4583333 2.9416896 10.422682 3.59375 11.15625 C 4.2458104 11.889818 5.2395838 12.375 6.5 12.375 L 17.5 12.375 C 18.572916 12.375 19.329144 12.764818 19.84375 13.34375 C 20.358356 13.922682 20.625 14.708333 20.625 15.5 C 20.625 16.291667 20.358356 17.077318 19.84375 17.65625 C 19.329144 18.235182 18.572916 18.625 17.5 18.625 L 9.3535156 18.625 C 9.1661091 16.940967 7.732798 15.625 6 15.625 C 4.1404807 15.625 2.625 17.140481 2.625 19 C 2.625 20.859519 4.1404807 22.375 6 22.375 C 7.732798 22.375 9.1661091 21.059033 9.3535156 19.375 L 17.5 19.375 C 18.760416 19.375 19.75419 18.889818 20.40625 18.15625 C 21.05831 17.422682 21.375 16.458333 21.375 15.5 C 21.375 14.541667 21.05831 13.577318 20.40625 12.84375 C 19.75419 12.110182 18.760416 11.625 17.5 11.625 L 6.5 11.625 C 5.4270839 11.625 4.6708558 11.235182 4.15625 10.65625 C 3.6416442 10.077318 3.375 9.2916667 3.375 8.5 C 3.375 7.7083333 3.6416442 6.9226818 4.15625 6.34375 C 4.6708558 5.7648182 5.4270839 5.375 6.5 5.375 L 14.646484 5.375 C 14.833891 7.0590333 16.267202 8.375 18 8.375 C 19.859519 8.375 21.375 6.8595193 21.375 5 C 21.375 3.1404807 19.859519 1.625 18 1.625 z M 18 2.375 C 19.454189 2.375 20.625 3.5458108 20.625 5 C 20.625 6.4541892 19.454189 7.625 18 7.625 C 16.545811 7.625 15.375 6.4541892 15.375 5 C 15.375 3.5458108 16.545811 2.375 18 2.375 z M 6 16.375 C 7.4541892 16.375 8.625 17.545811 8.625 19 C 8.625 20.454189 7.4541892 21.625 6 21.625 C 4.5458108 21.625 3.375 20.454189 3.375 19 C 3.375 17.545811 4.5458108 16.375 6 16.375 z " />
</svg>
