<?xml version="1.0" encoding="UTF-8" standalone="no"?>
<svg
   width="24"
   height="24"
   viewBox="0 0 24 24"
   fill="none"
   stroke="currentColor"
   stroke-width="0.75"
   stroke-linecap="round"
   stroke-linejoin="round"
   version="1.1"
   id="svg4"
   sodipodi:docname=".tmp_sandwich.svg"
   xmlns:inkscape="http://www.inkscape.org/namespaces/inkscape"
   xmlns:sodipodi="http://sodipodi.sourceforge.net/DTD/sodipodi-0.dtd"
   xmlns="http://www.w3.org/2000/svg"
   xmlns:svg="http://www.w3.org/2000/svg">
  <defs
     id="defs4" />
  <sodipodi:namedview
     id="namedview4"
     pagecolor="#ffffff"
     bordercolor="#000000"
     borderopacity="0.25"
     inkscape:showpageshadow="2"
     inkscape:pageopacity="0.0"
     inkscape:pagecheckerboard="0"
     inkscape:deskcolor="#d1d1d1" />
  <path
     id="path1"
     style="baseline-shift:baseline;display:inline;overflow:visible;vector-effect:none;fill:#000000;stroke:none;stroke-linecap:butt;stroke-linejoin:miter;enable-background:accumulate;stop-color:#000000;stop-opacity:1;opacity:1"
     d="M 12 3.6269531 C 11.470435 3.6269531 10.940604 3.8025446 10.505859 4.1542969 L 2.1347656 10.931641 A 0.375 0.375 0 0 0 2.1015625 10.962891 C 1.8105231 11.215653 1.625 11.58734 1.625 12 L 1.625 14 C 1.625 14.392699 1.7915698 14.748644 2.0585938 15 C 1.7916034 15.251394 1.625 15.607524 1.625 16 L 1.625 18 C 1.625 18.75495 2.2450502 19.375 3 19.375 L 11.875 19.375 L 12.574219 19.900391 C 13.620006 20.684731 15.11605 20.471569 15.900391 19.425781 L 15.9375 19.375 L 21 19.375 C 21.75495 19.375 22.375 18.75495 22.375 18 L 22.375 16 C 22.375 15.607524 22.208397 15.251394 21.941406 15 C 22.20843 14.748644 22.375 14.392699 22.375 14 L 22.375 12 C 22.375 11.586581 22.18845 11.213725 21.896484 10.960938 A 0.375 0.375 0 0 0 21.865234 10.931641 L 13.494141 4.1542969 C 13.059396 3.8025446 12.529565 3.6269531 12 3.6269531 z M 12 4.375 C 12.361296 4.375 12.722593 4.4964477 13.021484 4.7382812 L 20.294922 10.625 L 3.703125 10.625 L 10.978516 4.7382812 C 11.277407 4.4964477 11.638704 4.375 12 4.375 z M 3 11.375 L 21 11.375 C 21.127511 11.375 21.244377 11.410559 21.341797 11.472656 L 21.392578 11.513672 A 0.375 0.375 0 0 0 21.427734 11.539062 C 21.549705 11.652113 21.625 11.815123 21.625 12 L 21.625 14 C 21.625 14.352736 21.352736 14.625 21 14.625 L 18.769531 14.625 L 18.730469 14.625 L 6.6894531 14.625 L 6.6503906 14.625 L 3 14.625 C 2.6472635 14.625 2.375 14.352736 2.375 14 L 2.375 12 C 2.375 11.812758 2.4514232 11.64836 2.5761719 11.535156 A 0.375 0.375 0 0 0 2.6054688 11.513672 L 2.6503906 11.478516 C 2.7494733 11.413013 2.8687584 11.375 3 11.375 z M 3 15.375 L 6.5449219 15.375 L 10.875 18.625 L 3 18.625 C 2.6503803 18.625 2.375 18.34962 2.375 18 L 2.375 16 C 2.375 15.65038 2.6503803 15.375 3 15.375 z M 7.7949219 15.375 L 18 15.375 L 15.460938 18.761719 A 0.375 0.375 0 0 0 15.441406 18.789062 L 15.300781 18.974609 C 14.759639 19.696133 13.746914 19.841924 13.025391 19.300781 L 12.228516 18.703125 A 0.375 0.375 0 0 0 12.220703 18.697266 L 7.7949219 15.375 z M 18.9375 15.375 L 21 15.375 C 21.34962 15.375 21.625 15.65038 21.625 16 L 21.625 18 C 21.625 18.34962 21.34962 18.625 21 18.625 L 16.5 18.625 L 18.9375 15.375 z " />
</svg>
