<?xml version="1.0" encoding="UTF-8" standalone="no"?>
<svg
   width="24"
   height="24"
   viewBox="0 0 24 24"
   fill="none"
   stroke="currentColor"
   stroke-width="0.75"
   stroke-linecap="round"
   stroke-linejoin="round"
   version="1.1"
   id="svg5"
   sodipodi:docname=".tmp_scale.svg"
   xmlns:inkscape="http://www.inkscape.org/namespaces/inkscape"
   xmlns:sodipodi="http://sodipodi.sourceforge.net/DTD/sodipodi-0.dtd"
   xmlns="http://www.w3.org/2000/svg"
   xmlns:svg="http://www.w3.org/2000/svg">
  <defs
     id="defs5" />
  <sodipodi:namedview
     id="namedview5"
     pagecolor="#ffffff"
     bordercolor="#000000"
     borderopacity="0.25"
     inkscape:showpageshadow="2"
     inkscape:pageopacity="0.0"
     inkscape:pagecheckerboard="0"
     inkscape:deskcolor="#d1d1d1" />
  <path
     id="path1"
     style="baseline-shift:baseline;display:inline;overflow:visible;vector-effect:none;fill:#000000;stroke:none;stroke-linecap:butt;stroke-linejoin:miter;enable-background:accumulate;stop-color:#000000;stop-opacity:1;opacity:1"
     d="M 12 2.625 A 0.375 0.375 0 0 0 11.625 3 L 11.625 4.765625 C 9.6699855 5.7086043 6.8100001 6.625 5 6.625 L 3 6.625 A 0.375 0.375 0 0 0 2.625 7 A 0.375 0.375 0 0 0 3 7.375 L 5 7.375 C 6.950576 7.375 9.6180008 6.5120742 11.625 5.5800781 L 11.625 20.625 L 7 20.625 A 0.375 0.375 0 0 0 6.625 21 A 0.375 0.375 0 0 0 7 21.375 L 17 21.375 A 0.375 0.375 0 0 0 17.375 21 A 0.375 0.375 0 0 0 17 20.625 L 12.375 20.625 L 12.375 5.5800781 C 14.381999 6.5120742 17.049423 7.375 19 7.375 L 21 7.375 A 0.375 0.375 0 0 0 21.375 7 A 0.375 0.375 0 0 0 21 6.625 L 19 6.625 C 17.19 6.625 14.330014 5.7086043 12.375 4.765625 L 12.375 3 A 0.375 0.375 0 0 0 12 2.625 z M 5 7.625 A 0.3750375 0.3750375 0 0 0 4.6484375 7.8691406 L 1.6484375 15.869141 A 0.3750375 0.3750375 0 0 0 1.7753906 16.300781 C 2.7095794 16.998738 3.8389815 17.375 5 17.375 C 6.1610185 17.375 7.2904206 16.998738 8.2246094 16.300781 A 0.3750375 0.3750375 0 0 0 8.3515625 15.869141 L 5.3515625 7.8691406 A 0.3750375 0.3750375 0 0 0 5 7.625 z M 19 7.625 A 0.3750375 0.3750375 0 0 0 18.648438 7.8691406 L 15.648438 15.869141 A 0.3750375 0.3750375 0 0 0 15.775391 16.300781 C 16.709579 16.998738 17.838981 17.375 19 17.375 C 20.161019 17.375 21.290421 16.998738 22.224609 16.300781 A 0.3750375 0.3750375 0 0 0 22.351562 15.869141 L 19.351562 7.8691406 A 0.3750375 0.3750375 0 0 0 19 7.625 z M 5 9.0683594 L 7.5195312 15.785156 C 6.7614881 16.284641 5.9068229 16.625 5 16.625 C 4.0931771 16.625 3.2385119 16.284641 2.4804688 15.785156 L 5 9.0683594 z M 19 9.0683594 L 21.519531 15.785156 C 20.761488 16.284641 19.906823 16.625 19 16.625 C 18.093177 16.625 17.238512 16.284641 16.480469 15.785156 L 19 9.0683594 z " />
</svg>
