<?xml version="1.0" encoding="UTF-8" standalone="no"?>
<svg
   width="24"
   height="24"
   viewBox="0 0 24 24"
   fill="none"
   stroke="currentColor"
   stroke-width="0.75"
   stroke-linecap="round"
   stroke-linejoin="round"
   version="1.1"
   id="svg5"
   sodipodi:docname=".tmp_screen-share-off.svg"
   xmlns:inkscape="http://www.inkscape.org/namespaces/inkscape"
   xmlns:sodipodi="http://sodipodi.sourceforge.net/DTD/sodipodi-0.dtd"
   xmlns="http://www.w3.org/2000/svg"
   xmlns:svg="http://www.w3.org/2000/svg">
  <defs
     id="defs5" />
  <sodipodi:namedview
     id="namedview5"
     pagecolor="#ffffff"
     bordercolor="#000000"
     borderopacity="0.25"
     inkscape:showpageshadow="2"
     inkscape:pageopacity="0.0"
     inkscape:pagecheckerboard="0"
     inkscape:deskcolor="#d1d1d1" />
  <path
     id="path1"
     style="baseline-shift:baseline;display:inline;overflow:visible;vector-effect:none;fill:#000000;stroke:none;stroke-linecap:butt;stroke-linejoin:miter;enable-background:accumulate;stop-color:#000000;stop-opacity:1;opacity:1"
     d="M 4 2.625 C 2.6927655 2.625 1.625 3.6927655 1.625 5 L 1.625 15 C 1.625 16.307235 2.6927655 17.375 4 17.375 L 11.625 17.375 L 11.625 20.625 L 8 20.625 A 0.375 0.375 0 0 0 7.625 21 A 0.375 0.375 0 0 0 8 21.375 L 16 21.375 A 0.375 0.375 0 0 0 16.375 21 A 0.375 0.375 0 0 0 16 20.625 L 12.375 20.625 L 12.375 17.375 L 20 17.375 C 21.307235 17.375 22.375 16.307235 22.375 15 L 22.375 12 A 0.375 0.375 0 0 0 22 11.625 A 0.375 0.375 0 0 0 21.625 12 L 21.625 15 C 21.625 15.901904 20.901904 16.625 20 16.625 L 4 16.625 C 3.0980955 16.625 2.375 15.901904 2.375 15 L 2.375 5 C 2.375 4.0980955 3.0980955 3.375 4 3.375 L 13 3.375 A 0.375 0.375 0 0 0 13.375 3 A 0.375 0.375 0 0 0 13 2.625 L 4 2.625 z M 17 2.625 A 0.375 0.375 0 0 0 16.734375 2.734375 A 0.375 0.375 0 0 0 16.734375 3.265625 L 18.96875 5.5 L 16.734375 7.734375 A 0.375 0.375 0 0 0 16.734375 8.265625 A 0.375 0.375 0 0 0 17.265625 8.265625 L 19.5 6.03125 L 21.734375 8.265625 A 0.375 0.375 0 0 0 22.265625 8.265625 A 0.375 0.375 0 0 0 22.265625 7.734375 L 20.03125 5.5 L 22.265625 3.265625 A 0.375 0.375 0 0 0 22.265625 2.734375 A 0.375 0.375 0 0 0 21.734375 2.734375 L 19.5 4.96875 L 17.265625 2.734375 A 0.375 0.375 0 0 0 17 2.625 z " />
</svg>
