<?xml version="1.0" encoding="UTF-8" standalone="no"?>
<svg
   width="24"
   height="24"
   viewBox="0 0 24 24"
   fill="none"
   stroke="currentColor"
   stroke-width="0.75"
   stroke-linecap="round"
   stroke-linejoin="round"
   version="1.1"
   id="svg3"
   sodipodi:docname=".tmp_separator-vertical.svg"
   xmlns:inkscape="http://www.inkscape.org/namespaces/inkscape"
   xmlns:sodipodi="http://sodipodi.sourceforge.net/DTD/sodipodi-0.dtd"
   xmlns="http://www.w3.org/2000/svg"
   xmlns:svg="http://www.w3.org/2000/svg">
  <defs
     id="defs3" />
  <sodipodi:namedview
     id="namedview3"
     pagecolor="#ffffff"
     bordercolor="#000000"
     borderopacity="0.25"
     inkscape:showpageshadow="2"
     inkscape:pageopacity="0.0"
     inkscape:pagecheckerboard="0"
     inkscape:deskcolor="#d1d1d1" />
  <path
     id="path1"
     style="baseline-shift:baseline;display:inline;overflow:visible;vector-effect:none;fill:#000000;stroke:none;stroke-linecap:butt;stroke-linejoin:miter;enable-background:accumulate;stop-color:#000000;stop-opacity:1;opacity:1"
     d="M 12 2.625 A 0.375 0.375 0 0 0 11.625 3 L 11.625 21 A 0.375 0.375 0 0 0 12 21.375 A 0.375 0.375 0 0 0 12.375 21 L 12.375 3 A 0.375 0.375 0 0 0 12 2.625 z M 8 7.625 A 0.375 0.375 0 0 0 7.734375 7.734375 L 3.734375 11.734375 A 0.3750375 0.3750375 0 0 0 3.734375 12.265625 L 7.734375 16.265625 A 0.375 0.375 0 0 0 8.265625 16.265625 A 0.375 0.375 0 0 0 8.265625 15.734375 L 4.53125 12 L 8.265625 8.265625 A 0.375 0.375 0 0 0 8.265625 7.734375 A 0.375 0.375 0 0 0 8 7.625 z M 16 7.625 A 0.375 0.375 0 0 0 15.734375 7.734375 A 0.375 0.375 0 0 0 15.734375 8.265625 L 19.46875 12 L 15.734375 15.734375 A 0.375 0.375 0 0 0 15.734375 16.265625 A 0.375 0.375 0 0 0 16.265625 16.265625 L 20.265625 12.265625 A 0.3750375 0.3750375 0 0 0 20.265625 11.734375 L 16.265625 7.734375 A 0.375 0.375 0 0 0 16 7.625 z " />
</svg>
