<?xml version="1.0" encoding="UTF-8" standalone="no"?>
<svg
   width="24"
   height="24"
   viewBox="0 0 24 24"
   fill="none"
   stroke="currentColor"
   stroke-width="0.75"
   stroke-linecap="round"
   stroke-linejoin="round"
   version="1.1"
   id="svg5"
   sodipodi:docname=".tmp_server-crash.svg"
   xmlns:inkscape="http://www.inkscape.org/namespaces/inkscape"
   xmlns:sodipodi="http://sodipodi.sourceforge.net/DTD/sodipodi-0.dtd"
   xmlns="http://www.w3.org/2000/svg"
   xmlns:svg="http://www.w3.org/2000/svg">
  <defs
     id="defs5" />
  <sodipodi:namedview
     id="namedview5"
     pagecolor="#ffffff"
     bordercolor="#000000"
     borderopacity="0.25"
     inkscape:showpageshadow="2"
     inkscape:pageopacity="0.0"
     inkscape:pagecheckerboard="0"
     inkscape:deskcolor="#d1d1d1" />
  <path
     id="path1"
     style="baseline-shift:baseline;display:inline;overflow:visible;vector-effect:none;fill:#000000;stroke:none;stroke-linecap:butt;stroke-linejoin:miter;enable-background:accumulate;stop-color:#000000;stop-opacity:1;opacity:1"
     d="M 4 1.625 C 2.6927655 1.625 1.625 2.6927655 1.625 4 L 1.625 8 C 1.625 9.3072345 2.6927655 10.375 4 10.375 L 6 10.375 A 0.375 0.375 0 0 0 6.375 10 A 0.375 0.375 0 0 0 6 9.625 L 4 9.625 C 3.0980955 9.625 2.375 8.9019045 2.375 8 L 2.375 4 C 2.375 3.0980955 3.0980955 2.375 4 2.375 L 20 2.375 C 20.901904 2.375 21.625 3.0980955 21.625 4 L 21.625 8 C 21.625 8.9019045 20.901904 9.625 20 9.625 L 18 9.625 A 0.375 0.375 0 0 0 17.625 10 A 0.375 0.375 0 0 0 18 10.375 L 20 10.375 C 21.307235 10.375 22.375 9.3072345 22.375 8 L 22.375 4 C 22.375 2.6927655 21.307235 1.625 20 1.625 L 4 1.625 z M 6 5.625 A 0.375 0.375 0 0 0 5.625 6 A 0.375 0.375 0 0 0 6 6.375 L 6.0097656 6.375 A 0.375 0.375 0 0 0 6.3847656 6 A 0.375 0.375 0 0 0 6.0097656 5.625 L 6 5.625 z M 12.974609 5.625 A 0.375 0.375 0 0 0 12.6875 5.7910156 L 8.6875 11.791016 A 0.3750375 0.3750375 0 0 0 9 12.375 L 14.298828 12.375 L 10.6875 17.791016 A 0.375 0.375 0 0 0 10.791016 18.3125 A 0.375 0.375 0 0 0 11.3125 18.208984 L 15.3125 12.208984 A 0.3750375 0.3750375 0 0 0 15 11.625 L 9.7011719 11.625 L 13.3125 6.2089844 A 0.375 0.375 0 0 0 13.208984 5.6875 A 0.375 0.375 0 0 0 12.974609 5.625 z M 4 13.625 C 2.6927655 13.625 1.625 14.692765 1.625 16 L 1.625 20 C 1.625 21.307235 2.6927655 22.375 4 22.375 L 20 22.375 C 21.307235 22.375 22.375 21.307235 22.375 20 L 22.375 16 C 22.375 14.692765 21.307235 13.625 20 13.625 L 18 13.625 A 0.375 0.375 0 0 0 17.625 14 A 0.375 0.375 0 0 0 18 14.375 L 20 14.375 C 20.901904 14.375 21.625 15.098096 21.625 16 L 21.625 20 C 21.625 20.901904 20.901904 21.625 20 21.625 L 4 21.625 C 3.0980955 21.625 2.375 20.901904 2.375 20 L 2.375 16 C 2.375 15.098096 3.0980955 14.375 4 14.375 L 6 14.375 A 0.375 0.375 0 0 0 6.375 14 A 0.375 0.375 0 0 0 6 13.625 L 4 13.625 z M 6 17.625 A 0.375 0.375 0 0 0 5.625 18 A 0.375 0.375 0 0 0 6 18.375 L 6.0097656 18.375 A 0.375 0.375 0 0 0 6.3847656 18 A 0.375 0.375 0 0 0 6.0097656 17.625 L 6 17.625 z " />
</svg>
