<?xml version="1.0" encoding="UTF-8" standalone="no"?>
<svg
   width="24"
   height="24"
   viewBox="0 0 24 24"
   fill="none"
   stroke="currentColor"
   stroke-width="0.75"
   stroke-linecap="round"
   stroke-linejoin="round"
   version="1.1"
   id="svg6"
   sodipodi:docname=".tmp_server-off.svg"
   xmlns:inkscape="http://www.inkscape.org/namespaces/inkscape"
   xmlns:sodipodi="http://sodipodi.sourceforge.net/DTD/sodipodi-0.dtd"
   xmlns="http://www.w3.org/2000/svg"
   xmlns:svg="http://www.w3.org/2000/svg">
  <defs
     id="defs6" />
  <sodipodi:namedview
     id="namedview6"
     pagecolor="#ffffff"
     bordercolor="#000000"
     borderopacity="0.25"
     inkscape:showpageshadow="2"
     inkscape:pageopacity="0.0"
     inkscape:pagecheckerboard="0"
     inkscape:deskcolor="#d1d1d1" />
  <path
     id="path1"
     style="baseline-shift:baseline;display:inline;overflow:visible;vector-effect:none;fill:#000000;stroke:none;stroke-linecap:butt;stroke-linejoin:miter;enable-background:accumulate;stop-color:#000000;stop-opacity:1;opacity:1"
     d="M 2 1.625 A 0.375 0.375 0 0 0 1.734375 1.734375 A 0.375 0.375 0 0 0 1.734375 2.265625 L 1.7636719 2.2949219 C 1.7270404 2.382333 1.7092572 2.467113 1.6933594 2.5625 C 1.6175297 3.0174779 1.625 3.75 1.625 5 L 1.625 8 C 1.625 9.3072345 2.6927655 10.375 4 10.375 L 9.84375 10.375 L 13.09375 13.625 L 4 13.625 C 2.6927655 13.625 1.625 14.692765 1.625 16 L 1.625 20 C 1.625 21.307235 2.6927655 22.375 4 22.375 L 20.5 22.375 A 0.3750375 0.3750375 0 0 0 20.667969 22.335938 L 21.425781 21.957031 L 21.734375 22.265625 A 0.375 0.375 0 0 0 22.265625 22.265625 A 0.375 0.375 0 0 0 22.265625 21.734375 L 21.765625 21.234375 L 14.265625 13.734375 L 10.265625 9.734375 L 2.765625 2.234375 L 2.265625 1.734375 A 0.375 0.375 0 0 0 2 1.625 z M 7 1.625 A 0.375 0.375 0 0 0 6.625 2 A 0.375 0.375 0 0 0 7 2.375 L 20 2.375 C 20.901904 2.375 21.625 3.0980955 21.625 4 L 21.625 8 C 21.625 8.9019045 20.901904 9.625 20 9.625 L 15 9.625 A 0.375 0.375 0 0 0 14.625 10 A 0.375 0.375 0 0 0 15 10.375 L 20 10.375 C 21.307235 10.375 22.375 9.3072345 22.375 8 L 22.375 4 C 22.375 2.6927655 21.307235 1.625 20 1.625 L 7 1.625 z M 2.4257812 2.9570312 L 9.09375 9.625 L 4 9.625 C 3.0980955 9.625 2.375 8.9019045 2.375 8 L 2.375 5 C 2.375 3.8956827 2.39038 3.3152363 2.4257812 2.9570312 z M 19 13.625 A 0.375 0.375 0 0 0 18.625 14 A 0.375 0.375 0 0 0 19 14.375 L 20 14.375 C 20.901904 14.375 21.625 15.098096 21.625 16 L 21.625 17 A 0.375 0.375 0 0 0 22 17.375 A 0.375 0.375 0 0 0 22.375 17 L 22.375 16 C 22.375 14.692765 21.307235 13.625 20 13.625 L 19 13.625 z M 4 14.375 L 13.84375 14.375 L 20.867188 21.398438 L 20.412109 21.625 L 4 21.625 C 3.0980955 21.625 2.375 20.901904 2.375 20 L 2.375 16 C 2.375 15.098096 3.0980955 14.375 4 14.375 z M 6 17.625 A 0.375 0.375 0 0 0 5.625 18 A 0.375 0.375 0 0 0 6 18.375 L 6.0097656 18.375 A 0.375 0.375 0 0 0 6.3847656 18 A 0.375 0.375 0 0 0 6.0097656 17.625 L 6 17.625 z " />
</svg>
