<?xml version="1.0" encoding="UTF-8" standalone="no"?>
<svg
   width="24"
   height="24"
   viewBox="0 0 24 24"
   fill="none"
   stroke="currentColor"
   stroke-width="0.75"
   stroke-linecap="round"
   stroke-linejoin="round"
   version="1.1"
   id="svg4"
   sodipodi:docname=".tmp_soap-dispenser-droplet.svg"
   xmlns:inkscape="http://www.inkscape.org/namespaces/inkscape"
   xmlns:sodipodi="http://sodipodi.sourceforge.net/DTD/sodipodi-0.dtd"
   xmlns="http://www.w3.org/2000/svg"
   xmlns:svg="http://www.w3.org/2000/svg">
  <defs
     id="defs4" />
  <sodipodi:namedview
     id="namedview4"
     pagecolor="#ffffff"
     bordercolor="#000000"
     borderopacity="0.25"
     inkscape:showpageshadow="2"
     inkscape:pageopacity="0.0"
     inkscape:pagecheckerboard="0"
     inkscape:deskcolor="#d1d1d1" />
  <path
     id="path1"
     style="baseline-shift:baseline;display:inline;overflow:visible;vector-effect:none;fill:#000000;stroke:none;stroke-linecap:butt;stroke-linejoin:miter;enable-background:accumulate;stop-color:#000000;stop-opacity:1;opacity:1"
     d="M 7 1.625 C 5.6927655 1.625 4.625 2.6927655 4.625 4 A 0.375 0.375 0 0 0 5 4.375 A 0.375 0.375 0 0 0 5.375 4 C 5.375 3.0980955 6.0980955 2.375 7 2.375 L 10.125 2.375 L 10.125 5.625 L 9 5.625 C 8.2450502 5.625 7.625 6.2450502 7.625 7 L 7.625 9.625 L 6 9.625 C 4.6927655 9.625 3.625 10.692765 3.625 12 L 3.625 19 C 3.625 20.307235 4.6927655 21.375 6 21.375 L 9.6074219 21.375 A 0.375 0.375 0 0 0 9.9824219 21 A 0.375 0.375 0 0 0 9.6074219 20.625 L 6 20.625 C 5.0980955 20.625 4.375 19.901904 4.375 19 L 4.375 12 C 4.375 11.098096 5.0980955 10.375 6 10.375 L 8 10.375 L 13 10.375 A 0.3750375 0.3750375 0 0 0 13.375 10 L 13.375 7 C 13.375 6.2450502 12.75495 5.625 12 5.625 L 10.875 5.625 L 10.875 2.375 L 14 2.375 A 0.375 0.375 0 0 0 14.375 2 A 0.375 0.375 0 0 0 14 1.625 L 7 1.625 z M 9 6.375 L 10.5 6.375 L 12 6.375 C 12.34962 6.375 12.625 6.6503803 12.625 7 L 12.625 9.625 L 8.375 9.625 L 8.375 7 C 8.375 6.6503803 8.6503803 6.375 9 6.375 z M 17 10.625 A 0.3750375 0.3750375 0 0 0 16.632812 10.923828 C 16.339937 12.318377 15.577335 13.568623 14.472656 14.46875 C 13.255317 15.443973 12.625 16.678655 12.625 17.949219 C 12.625 20.371921 14.592045 22.375 17 22.375 C 19.407955 22.375 21.375 20.371921 21.375 17.949219 C 21.375 16.666823 20.731316 15.453374 19.527344 14.470703 L 19.527344 14.46875 A 0.375 0.375 0 0 0 19.525391 14.46875 C 18.425274 13.564719 17.66504 12.314411 17.367188 10.921875 A 0.3750375 0.3750375 0 0 0 17 10.625 z M 17 12.001953 C 17.431077 13.171743 18.079996 14.25214 19.052734 15.050781 C 20.127947 15.927929 20.625 16.912064 20.625 17.949219 C 20.625 19.966516 18.992045 21.625 17 21.625 C 15.007955 21.625 13.375 19.966516 13.375 17.949219 C 13.375 16.920958 13.862917 15.917088 14.943359 15.052734 A 0.3750375 0.3750375 0 0 0 14.947266 15.050781 C 15.9239 14.255041 16.570944 13.173465 17 12.001953 z " />
</svg>
