<?xml version="1.0" encoding="UTF-8" standalone="no"?>
<svg
   width="24"
   height="24"
   viewBox="0 0 24 24"
   fill="none"
   stroke="currentColor"
   stroke-width="0.75"
   stroke-linecap="round"
   stroke-linejoin="round"
   version="1.1"
   id="svg2"
   sodipodi:docname=".tmp_speaker.svg"
   xmlns:inkscape="http://www.inkscape.org/namespaces/inkscape"
   xmlns:sodipodi="http://sodipodi.sourceforge.net/DTD/sodipodi-0.dtd"
   xmlns="http://www.w3.org/2000/svg"
   xmlns:svg="http://www.w3.org/2000/svg">
  <defs
     id="defs2" />
  <sodipodi:namedview
     id="namedview2"
     pagecolor="#ffffff"
     bordercolor="#000000"
     borderopacity="0.25"
     inkscape:showpageshadow="2"
     inkscape:pageopacity="0.0"
     inkscape:pagecheckerboard="0"
     inkscape:deskcolor="#d1d1d1" />
  <path
     id="rect1"
     style="baseline-shift:baseline;display:inline;overflow:visible;vector-effect:none;fill:#000000;stroke:none;stroke-linecap:butt;stroke-linejoin:miter;enable-background:accumulate;stop-color:#000000;stop-opacity:1;opacity:1"
     d="M 6 1.625 C 4.6907365 1.625 3.625 2.6907365 3.625 4 L 3.625 20 C 3.625 21.309264 4.6907365 22.375 6 22.375 L 18 22.375 C 19.309264 22.375 20.375 21.309264 20.375 20 L 20.375 4 C 20.375 2.6907365 19.309264 1.625 18 1.625 L 6 1.625 z M 6 2.375 L 18 2.375 C 18.906736 2.375 19.625 3.0932635 19.625 4 L 19.625 20 C 19.625 20.906736 18.906736 21.625 18 21.625 L 6 21.625 C 5.0932635 21.625 4.375 20.906736 4.375 20 L 4.375 4 C 4.375 3.0932635 5.0932635 2.375 6 2.375 z M 12 5.625 A 0.375 0.375 0 0 0 11.625 6 A 0.375 0.375 0 0 0 12 6.375 L 12.009766 6.375 A 0.375 0.375 0 0 0 12.384766 6 A 0.375 0.375 0 0 0 12.009766 5.625 L 12 5.625 z M 12 9.625 C 9.588196 9.625 7.625 11.588196 7.625 14 C 7.625 16.411804 9.588196 18.375 12 18.375 C 14.411804 18.375 16.375 16.411804 16.375 14 C 16.375 11.588196 14.411804 9.625 12 9.625 z M 12 10.375 C 14.006474 10.375 15.625 11.993526 15.625 14 C 15.625 16.006474 14.006474 17.625 12 17.625 C 9.993526 17.625 8.375 16.006474 8.375 14 C 8.375 11.993526 9.993526 10.375 12 10.375 z M 12 13.625 A 0.375 0.375 0 0 0 11.625 14 A 0.375 0.375 0 0 0 12 14.375 L 12.009766 14.375 A 0.375 0.375 0 0 0 12.384766 14 A 0.375 0.375 0 0 0 12.009766 13.625 L 12 13.625 z " />
</svg>
