<?xml version="1.0" encoding="UTF-8" standalone="no"?>
<svg
   width="24"
   height="24"
   viewBox="0 0 24 24"
   fill="none"
   stroke="currentColor"
   stroke-width="0.75"
   stroke-linecap="round"
   stroke-linejoin="round"
   version="1.1"
   id="svg2"
   sodipodi:docname=".tmp_square-stack.svg"
   xmlns:inkscape="http://www.inkscape.org/namespaces/inkscape"
   xmlns:sodipodi="http://sodipodi.sourceforge.net/DTD/sodipodi-0.dtd"
   xmlns="http://www.w3.org/2000/svg"
   xmlns:svg="http://www.w3.org/2000/svg">
  <defs
     id="defs2" />
  <sodipodi:namedview
     id="namedview2"
     pagecolor="#ffffff"
     bordercolor="#000000"
     borderopacity="0.25"
     inkscape:showpageshadow="2"
     inkscape:pageopacity="0.0"
     inkscape:pagecheckerboard="0"
     inkscape:deskcolor="#d1d1d1" />
  <path
     id="path1"
     style="baseline-shift:baseline;display:inline;overflow:visible;vector-effect:none;fill:#000000;stroke:none;stroke-linecap:butt;stroke-linejoin:miter;enable-background:accumulate;stop-color:#000000;stop-opacity:1;opacity:1"
     d="M 4 1.625 C 2.6954545 1.625 1.625 2.6954545 1.625 4 L 1.625 8 C 1.625 9.3045455 2.6954545 10.375 4 10.375 A 0.375 0.375 0 0 0 4.375 10 A 0.375 0.375 0 0 0 4 9.625 C 3.1045455 9.625 2.375 8.8954545 2.375 8 L 2.375 4 C 2.375 3.1045455 3.1045455 2.375 4 2.375 L 8 2.375 C 8.8954545 2.375 9.625 3.1045455 9.625 4 A 0.375 0.375 0 0 0 10 4.375 A 0.375 0.375 0 0 0 10.375 4 C 10.375 2.6954545 9.3045455 1.625 8 1.625 L 4 1.625 z M 10 7.625 C 8.6954545 7.625 7.625 8.6954545 7.625 10 L 7.625 14 C 7.625 15.304545 8.6954545 16.375 10 16.375 A 0.375 0.375 0 0 0 10.375 16 A 0.375 0.375 0 0 0 10 15.625 C 9.1045455 15.625 8.375 14.895455 8.375 14 L 8.375 10 C 8.375 9.1045455 9.1045455 8.375 10 8.375 L 14 8.375 C 14.895455 8.375 15.625 9.1045455 15.625 10 A 0.375 0.375 0 0 0 16 10.375 A 0.375 0.375 0 0 0 16.375 10 C 16.375 8.6954545 15.304545 7.625 14 7.625 L 10 7.625 z M 16 13.625 C 14.690736 13.625 13.625 14.690736 13.625 16 L 13.625 20 C 13.625 21.309264 14.690736 22.375 16 22.375 L 20 22.375 C 21.309264 22.375 22.375 21.309264 22.375 20 L 22.375 16 C 22.375 14.690736 21.309264 13.625 20 13.625 L 16 13.625 z M 16 14.375 L 20 14.375 C 20.906736 14.375 21.625 15.093264 21.625 16 L 21.625 20 C 21.625 20.906736 20.906736 21.625 20 21.625 L 16 21.625 C 15.093264 21.625 14.375 20.906736 14.375 20 L 14.375 16 C 14.375 15.093264 15.093264 14.375 16 14.375 z " />
</svg>
