<?xml version="1.0" encoding="UTF-8" standalone="no"?>
<svg
   width="24"
   height="24"
   viewBox="0 0 24 24"
   fill="none"
   stroke="currentColor"
   stroke-width="0.75"
   stroke-linecap="round"
   stroke-linejoin="round"
   version="1.1"
   id="svg4"
   sodipodi:docname=".tmp_tool-case.svg"
   xmlns:inkscape="http://www.inkscape.org/namespaces/inkscape"
   xmlns:sodipodi="http://sodipodi.sourceforge.net/DTD/sodipodi-0.dtd"
   xmlns="http://www.w3.org/2000/svg"
   xmlns:svg="http://www.w3.org/2000/svg">
  <defs
     id="defs4" />
  <sodipodi:namedview
     id="namedview4"
     pagecolor="#ffffff"
     bordercolor="#000000"
     borderopacity="0.25"
     inkscape:showpageshadow="2"
     inkscape:pageopacity="0.0"
     inkscape:pagecheckerboard="0"
     inkscape:deskcolor="#d1d1d1" />
  <path
     id="path1"
     style="baseline-shift:baseline;display:inline;overflow:visible;vector-effect:none;fill:#000000;stroke:none;stroke-linecap:butt;stroke-linejoin:miter;enable-background:accumulate;stop-color:#000000;stop-opacity:1;opacity:1"
     d="M 16.566406 2.4570312 C 16.043998 2.4675606 15.550202 2.7780333 15.330078 3.2832031 L 14.591797 4.9746094 C 14.080393 4.6620957 13.439128 4.5343792 12.759766 4.7128906 L 12.78125 4.7070312 L 11.197266 5.0234375 L 10.220703 3.6757812 L 10.21875 3.6738281 C 9.6344821 2.8077757 8.6448998 2.4955565 7.7714844 2.6757812 C 6.8972289 2.8561792 6.1088391 3.5361891 5.9160156 4.5644531 A 0.3750375 0.3750375 0 0 0 5.9101562 4.6054688 L 5.7871094 6.2519531 L 4.3261719 6.6113281 A 0.3750375 0.3750375 0 0 0 4.3066406 6.6171875 C 3.2630712 6.9366133 2.6754699 7.8470877 2.6289062 8.7675781 C 2.5834187 9.6667957 3.052194 10.611252 4.0117188 11.048828 C 3.771166 11.298446 3.6227672 11.636784 3.625 12.007812 L 3.625 19 C 3.625 20.307235 4.6927655 21.375 6 21.375 L 18 21.375 C 19.307235 21.375 20.375 20.307235 20.375 19 L 20.375 12 C 20.375 11.3708 19.943808 10.834764 19.363281 10.673828 L 21.427734 5.7597656 C 21.72472 5.0522021 21.376504 4.2274078 20.662109 3.9472656 L 17.089844 2.5507812 C 16.91871 2.483939 16.740542 2.4535215 16.566406 2.4570312 z M 16.578125 3.2070312 C 16.657273 3.2059501 16.737361 3.2194178 16.816406 3.25 L 20.388672 4.6464844 C 20.719872 4.7763599 20.874012 5.1426726 20.736328 5.4707031 L 18.570312 10.625 L 15.019531 10.625 L 14.314453 9.5703125 L 15.167969 8.5546875 L 15.164062 8.5566406 C 15.908779 7.690196 15.882614 6.5585574 15.376953 5.75 C 15.320065 5.6590349 15.256494 5.5711743 15.1875 5.4882812 L 16.017578 3.5820312 C 16.11898 3.3486301 16.34068 3.2102747 16.578125 3.2070312 z M 8.3808594 3.3769531 C 8.8407207 3.4071476 9.2884751 3.6314143 9.5996094 4.09375 A 0.3750375 0.3750375 0 0 0 9.6054688 4.1054688 L 10.730469 5.6582031 A 0.3750375 0.3750375 0 0 0 11.109375 5.8066406 L 12.927734 5.4433594 A 0.3750375 0.3750375 0 0 0 12.951172 5.4375 C 13.74422 5.2291162 14.388106 5.5853798 14.740234 6.1484375 C 15.092363 6.7114952 15.130185 7.4465248 14.595703 8.0683594 A 0.3750375 0.3750375 0 0 0 14.591797 8.0722656 L 13.558594 9.3046875 A 0.3750375 0.3750375 0 0 0 13.535156 9.7539062 L 14.119141 10.625 L 4.9941406 10.625 A 0.3750375 0.3750375 0 0 0 4.9921875 10.625 C 4.979916 10.625073 4.9672745 10.624602 4.9550781 10.625 C 4.9544233 10.625021 4.9537796 10.624978 4.953125 10.625 L 4.3710938 10.386719 L 4.3691406 10.384766 C 3.653301 10.082377 3.346605 9.4451846 3.3789062 8.8066406 C 3.4112079 8.168086 3.7807103 7.5645828 4.5234375 7.3359375 L 4.5234375 7.3339844 L 4.5253906 7.3339844 L 6.2304688 6.9140625 A 0.3750375 0.3750375 0 0 0 6.515625 6.578125 L 6.6542969 4.7011719 L 6.6542969 4.6992188 L 6.65625 4.6992188 C 6.7940565 3.9706762 7.3166219 3.535047 7.921875 3.4101562 C 8.0733913 3.3788916 8.2275723 3.3668883 8.3808594 3.3769531 z M 4.9960938 11.375 L 19 11.375 C 19.34962 11.375 19.625 11.65038 19.625 12 L 19.625 19 C 19.625 19.901904 18.901904 20.625 18 20.625 L 6 20.625 C 5.0980955 20.625 4.375 19.901904 4.375 19 L 4.375 12.005859 A 0.3750375 0.3750375 0 0 0 4.375 12.003906 C 4.372896 11.654331 4.646471 11.377091 4.9960938 11.375 z M 10 14.625 A 0.375 0.375 0 0 0 9.625 15 A 0.375 0.375 0 0 0 10 15.375 L 14 15.375 A 0.375 0.375 0 0 0 14.375 15 A 0.375 0.375 0 0 0 14 14.625 L 10 14.625 z " />
</svg>
