<?xml version="1.0" encoding="UTF-8" standalone="no"?>
<svg
   width="24"
   height="24"
   viewBox="0 0 24 24"
   fill="none"
   stroke="currentColor"
   stroke-width="0.75"
   stroke-linecap="round"
   stroke-linejoin="round"
   version="1.1"
   id="svg7"
   sodipodi:docname=".tmp_train-front-tunnel.svg"
   xmlns:inkscape="http://www.inkscape.org/namespaces/inkscape"
   xmlns:sodipodi="http://sodipodi.sourceforge.net/DTD/sodipodi-0.dtd"
   xmlns="http://www.w3.org/2000/svg"
   xmlns:svg="http://www.w3.org/2000/svg">
  <defs
     id="defs7" />
  <sodipodi:namedview
     id="namedview7"
     pagecolor="#ffffff"
     bordercolor="#000000"
     borderopacity="0.25"
     inkscape:showpageshadow="2"
     inkscape:pageopacity="0.0"
     inkscape:pagecheckerboard="0"
     inkscape:deskcolor="#d1d1d1" />
  <path
     id="path1"
     style="baseline-shift:baseline;display:inline;overflow:visible;vector-effect:none;fill:#000000;stroke:none;stroke-linecap:butt;stroke-linejoin:miter;enable-background:accumulate;stop-color:#000000;stop-opacity:1;opacity:1"
     d="M 12 1.625 C 6.2744879 1.625 1.625 6.2744839 1.625 12 L 1.625 22 A 0.375 0.375 0 0 0 2 22.375 A 0.375 0.375 0 0 0 2.375 22 L 2.375 12 C 2.375 6.6798137 6.6798173 2.375 12 2.375 C 17.320183 2.375 21.625 6.6798137 21.625 12 L 21.625 22 A 0.375 0.375 0 0 0 22 22.375 A 0.375 0.375 0 0 0 22.375 22 L 22.375 12 C 22.375 6.2744839 17.725512 1.625 12 1.625 z M 12 5.625 C 10.85859 5.625 9.7869066 5.9260033 8.859375 6.453125 A 0.375 0.375 0 0 0 8.7695312 6.5058594 C 6.8892396 7.6154626 5.625 9.6622008 5.625 12 L 5.625 15 C 5.625 16.877589 6.8154441 18.482353 8.4804688 19.101562 L 6.6875 21.791016 A 0.375 0.375 0 0 0 6.7910156 22.3125 A 0.375 0.375 0 0 0 7.3125 22.208984 L 9.2441406 19.310547 L 9.2460938 19.310547 C 9.4913352 19.353393 9.7427088 19.375 10 19.375 L 14 19.375 C 14.257291 19.375 14.508665 19.353393 14.753906 19.310547 L 14.755859 19.310547 L 16.6875 22.208984 A 0.375 0.375 0 0 0 17.208984 22.3125 A 0.375 0.375 0 0 0 17.3125 21.791016 L 15.519531 19.101562 C 17.184556 18.482353 18.375 16.877589 18.375 15 L 18.375 12 C 18.375 9.6622009 17.11076 7.6154627 15.230469 6.5058594 A 0.375 0.375 0 0 0 15.140625 6.453125 C 14.213093 5.9260034 13.14141 5.625 12 5.625 z M 12 6.375 C 12.948632 6.375 13.841747 6.6083423 14.625 7.0214844 L 14.625 8.1992188 C 14.625 9.0321051 14.305975 9.610419 13.822266 10.011719 C 13.338556 10.413018 12.672222 10.625 12 10.625 C 11.327778 10.625 10.661444 10.413018 10.177734 10.011719 C 9.6940254 9.6104191 9.375 9.0321051 9.375 8.1992188 L 9.375 7.0214844 C 10.158253 6.6083422 11.051368 6.375 12 6.375 z M 8.625 7.4960938 L 8.625 8.1992188 C 8.625 9.2329982 9.055975 10.055857 9.6972656 10.587891 C 10.338556 11.119924 11.172222 11.375 12 11.375 C 12.827778 11.375 13.661444 11.119924 14.302734 10.587891 C 14.944025 10.055857 15.375 9.2329982 15.375 8.1992188 L 15.375 7.4960938 C 16.741991 8.5214029 17.625 10.156215 17.625 12 L 17.625 15 C 17.625 17.006474 16.006474 18.625 14 18.625 L 10 18.625 C 7.993526 18.625 6.375 17.006474 6.375 15 L 6.375 12 C 6.375 10.156215 7.2580095 8.5214029 8.625 7.4960938 z M 10 14.625 A 0.375 0.375 0 0 0 9.625 15 A 0.375 0.375 0 0 0 10 15.375 L 10.009766 15.375 A 0.375 0.375 0 0 0 10.384766 15 A 0.375 0.375 0 0 0 10.009766 14.625 L 10 14.625 z M 14 14.625 A 0.375 0.375 0 0 0 13.625 15 A 0.375 0.375 0 0 0 14 15.375 L 14.009766 15.375 A 0.375 0.375 0 0 0 14.384766 15 A 0.375 0.375 0 0 0 14.009766 14.625 L 14 14.625 z " />
</svg>
