<?xml version="1.0" encoding="UTF-8" standalone="no"?>
<svg
   width="24"
   height="24"
   viewBox="0 0 24 24"
   fill="none"
   stroke="currentColor"
   stroke-width="0.75"
   stroke-linecap="round"
   stroke-linejoin="round"
   version="1.1"
   id="svg10"
   sodipodi:docname=".tmp_user-cog.svg"
   xmlns:inkscape="http://www.inkscape.org/namespaces/inkscape"
   xmlns:sodipodi="http://sodipodi.sourceforge.net/DTD/sodipodi-0.dtd"
   xmlns="http://www.w3.org/2000/svg"
   xmlns:svg="http://www.w3.org/2000/svg">
  <defs
     id="defs10" />
  <sodipodi:namedview
     id="namedview10"
     pagecolor="#ffffff"
     bordercolor="#000000"
     borderopacity="0.25"
     inkscape:showpageshadow="2"
     inkscape:pageopacity="0.0"
     inkscape:pagecheckerboard="0"
     inkscape:deskcolor="#d1d1d1" />
  <path
     id="path1"
     style="baseline-shift:baseline;display:inline;overflow:visible;vector-effect:none;fill:#000000;stroke:none;stroke-linecap:butt;stroke-linejoin:miter;enable-background:accumulate;stop-color:#000000;stop-opacity:1;opacity:1"
     d="M 9 2.625 C 6.588196 2.625 4.625 4.588196 4.625 7 C 4.625 9.411804 6.588196 11.375 9 11.375 C 11.411804 11.375 13.375 9.411804 13.375 7 C 13.375 4.588196 11.411804 2.625 9 2.625 z M 9 3.375 C 11.006474 3.375 12.625 4.993526 12.625 7 C 12.625 9.006474 11.006474 10.625 9 10.625 C 6.993526 10.625 5.375 9.006474 5.375 7 C 5.375 4.993526 6.993526 3.375 9 3.375 z M 16.46875 10.931641 A 0.375 0.375 0 0 0 16.326172 10.958984 A 0.375 0.375 0 0 0 16.123047 11.449219 L 16.371094 12.044922 C 15.814931 12.353137 15.353137 12.814931 15.044922 13.371094 L 14.449219 13.123047 A 0.375 0.375 0 0 0 13.958984 13.326172 A 0.375 0.375 0 0 0 14.162109 13.814453 L 14.757812 14.0625 C 14.671518 14.360168 14.625 14.675073 14.625 15 C 14.625 15.324703 14.671633 15.638061 14.757812 15.935547 L 14.162109 16.183594 A 0.375 0.375 0 0 0 13.958984 16.673828 A 0.375 0.375 0 0 0 14.449219 16.876953 L 15.044922 16.628906 C 15.35318 17.185147 15.814827 17.646862 16.371094 17.955078 L 16.123047 18.552734 A 0.375 0.375 0 0 0 16.326172 19.042969 A 0.375 0.375 0 0 0 16.814453 18.839844 L 17.0625 18.242188 C 17.360092 18.328434 17.675166 18.375 18 18.375 C 18.32461 18.375 18.638137 18.32832 18.935547 18.242188 L 19.183594 18.839844 A 0.375 0.375 0 0 0 19.673828 19.042969 A 0.375 0.375 0 0 0 19.876953 18.552734 L 19.628906 17.955078 C 20.185251 17.64682 20.64682 17.185251 20.955078 16.628906 L 21.552734 16.876953 A 0.375 0.375 0 0 0 22.042969 16.673828 A 0.375 0.375 0 0 0 21.839844 16.185547 L 21.242188 15.9375 C 21.328434 15.639908 21.375 15.324834 21.375 15 C 21.375 14.675166 21.328434 14.360092 21.242188 14.0625 L 21.839844 13.814453 A 0.375 0.375 0 0 0 22.042969 13.326172 A 0.375 0.375 0 0 0 21.552734 13.123047 L 20.955078 13.371094 C 20.646862 12.814827 20.185147 12.35318 19.628906 12.044922 L 19.876953 11.449219 A 0.375 0.375 0 0 0 19.673828 10.958984 A 0.375 0.375 0 0 0 19.185547 11.162109 L 18.9375 11.757812 C 18.639832 11.671518 18.324927 11.625 18 11.625 C 17.675073 11.625 17.360168 11.671518 17.0625 11.757812 L 16.814453 11.162109 A 0.375 0.375 0 0 0 16.46875 10.931641 z M 18 12.375 C 18.344646 12.375 18.673612 12.440832 18.974609 12.560547 A 0.375 0.375 0 0 0 19.003906 12.574219 A 0.375 0.375 0 0 0 19.035156 12.585938 C 19.654193 12.850517 20.149483 13.345807 20.414062 13.964844 A 0.375 0.375 0 0 0 20.425781 13.996094 A 0.375 0.375 0 0 0 20.439453 14.025391 C 20.559168 14.326388 20.625 14.655354 20.625 15 C 20.625 15.344646 20.559168 15.673612 20.439453 15.974609 A 0.375 0.375 0 0 0 20.425781 16.003906 A 0.375 0.375 0 0 0 20.414062 16.035156 C 20.149483 16.654193 19.654193 17.149483 19.035156 17.414062 A 0.375 0.375 0 0 0 19.003906 17.425781 A 0.375 0.375 0 0 0 18.974609 17.439453 C 18.673612 17.559168 18.344646 17.625 18 17.625 C 17.655354 17.625 17.326388 17.559168 17.025391 17.439453 A 0.375 0.375 0 0 0 16.996094 17.425781 A 0.375 0.375 0 0 0 16.964844 17.414062 C 16.345807 17.149483 15.850517 16.654193 15.585938 16.035156 A 0.375 0.375 0 0 0 15.574219 16.003906 A 0.375 0.375 0 0 0 15.560547 15.974609 C 15.440832 15.673612 15.375 15.344646 15.375 15 C 15.375 14.655354 15.440832 14.326388 15.560547 14.025391 A 0.375 0.375 0 0 0 15.574219 13.996094 A 0.375 0.375 0 0 0 15.585938 13.964844 C 15.850517 13.345807 16.345807 12.850517 16.964844 12.585938 A 0.375 0.375 0 0 0 16.996094 12.574219 A 0.375 0.375 0 0 0 17.025391 12.560547 C 17.326388 12.440832 17.655354 12.375 18 12.375 z M 6 14.625 C 3.588196 14.625 1.625 16.588196 1.625 19 L 1.625 21 A 0.375 0.375 0 0 0 2 21.375 A 0.375 0.375 0 0 0 2.375 21 L 2.375 19 C 2.375 16.993526 3.993526 15.375 6 15.375 L 10 15.375 A 0.375 0.375 0 0 0 10.375 15 A 0.375 0.375 0 0 0 10 14.625 L 6 14.625 z " />
</svg>
