<?xml version="1.0" encoding="UTF-8" standalone="no"?>
<svg
   width="24"
   height="24"
   viewBox="0 0 24 24"
   fill="none"
   stroke="currentColor"
   stroke-width="0.75"
   stroke-linecap="round"
   stroke-linejoin="round"
   version="1.1"
   id="svg2"
   sodipodi:docname=".tmp_volume-x.svg"
   xmlns:inkscape="http://www.inkscape.org/namespaces/inkscape"
   xmlns:sodipodi="http://sodipodi.sourceforge.net/DTD/sodipodi-0.dtd"
   xmlns="http://www.w3.org/2000/svg"
   xmlns:svg="http://www.w3.org/2000/svg">
  <defs
     id="defs2" />
  <sodipodi:namedview
     id="namedview2"
     pagecolor="#ffffff"
     bordercolor="#000000"
     borderopacity="0.25"
     inkscape:showpageshadow="2"
     inkscape:pageopacity="0.0"
     inkscape:pagecheckerboard="0"
     inkscape:deskcolor="#d1d1d1" />
  <path
     id="path1"
     style="baseline-shift:baseline;display:inline;overflow:visible;vector-effect:none;fill:#000000;stroke:none;stroke-linecap:butt;stroke-linejoin:miter;enable-background:accumulate;stop-color:#000000;stop-opacity:1;opacity:1"
     d="M 10.259766 3.625 C 10.000295 3.6338623 9.7367911 3.7343316 9.53125 3.9394531 L 6.1484375 7.3222656 A 0.3750375 0.3750375 0 0 0 6.1464844 7.3222656 C 5.953244 7.5166584 5.6920646 7.6258035 5.4179688 7.625 A 0.3750375 0.3750375 0 0 0 5.4160156 7.625 L 3 7.625 C 2.2450502 7.625 1.625 8.2450502 1.625 9 L 1.625 15 C 1.625 15.75495 2.2450502 16.375 3 16.375 L 5.4160156 16.375 A 0.3750375 0.3750375 0 0 0 5.4179688 16.375 C 5.6920646 16.374197 5.9532471 16.483342 6.1464844 16.677734 A 0.3750375 0.3750375 0 0 0 6.1484375 16.677734 L 9.53125 20.0625 C 9.8602365 20.392135 10.33715 20.450982 10.708984 20.296875 C 11.080819 20.142768 11.375648 19.76259 11.375 19.296875 L 11.375 4.7011719 C 11.374328 4.2365604 11.080192 3.8587451 10.708984 3.7050781 C 10.569782 3.647453 10.415448 3.6196826 10.259766 3.625 z M 10.263672 4.3691406 C 10.316751 4.3653273 10.369782 4.3768729 10.421875 4.3984375 C 10.540944 4.4477275 10.624765 4.5404876 10.625 4.703125 L 10.625 19.298828 C 10.625227 19.462008 10.5412 19.554063 10.421875 19.603516 C 10.302555 19.652966 10.175819 19.64675 10.060547 19.53125 L 6.6796875 16.148438 L 6.6777344 16.148438 C 6.3439519 15.81337 5.8889615 15.624113 5.4160156 15.625 L 3 15.625 C 2.6503803 15.625 2.375 15.34962 2.375 15 L 2.375 9 C 2.375 8.6503803 2.6503803 8.375 3 8.375 L 5.4160156 8.375 C 5.8889615 8.375887 6.343955 8.1866295 6.6777344 7.8515625 L 10.0625 4.46875 C 10.127255 4.4041274 10.195427 4.3740435 10.263672 4.3691406 z M 16 8.625 A 0.375 0.375 0 0 0 15.734375 8.734375 A 0.375 0.375 0 0 0 15.734375 9.265625 L 18.46875 12 L 15.734375 14.734375 A 0.375 0.375 0 0 0 15.734375 15.265625 A 0.375 0.375 0 0 0 16.265625 15.265625 L 19 12.53125 L 21.734375 15.265625 A 0.375 0.375 0 0 0 22.265625 15.265625 A 0.375 0.375 0 0 0 22.265625 14.734375 L 19.53125 12 L 22.265625 9.265625 A 0.375 0.375 0 0 0 22.265625 8.734375 A 0.375 0.375 0 0 0 21.734375 8.734375 L 19 11.46875 L 16.265625 8.734375 A 0.375 0.375 0 0 0 16 8.625 z " />
</svg>
