<?xml version="1.0" encoding="UTF-8" standalone="no"?>
<svg
   width="24"
   height="24"
   viewBox="0 0 24 24"
   fill="none"
   stroke="currentColor"
   stroke-width="0.75"
   stroke-linecap="round"
   stroke-linejoin="round"
   version="1.1"
   id="svg5"
   sodipodi:docname=".tmp_volume-off.svg"
   xmlns:inkscape="http://www.inkscape.org/namespaces/inkscape"
   xmlns:sodipodi="http://sodipodi.sourceforge.net/DTD/sodipodi-0.dtd"
   xmlns="http://www.w3.org/2000/svg"
   xmlns:svg="http://www.w3.org/2000/svg">
  <defs
     id="defs5" />
  <sodipodi:namedview
     id="namedview5"
     pagecolor="#ffffff"
     bordercolor="#000000"
     borderopacity="0.25"
     inkscape:showpageshadow="2"
     inkscape:pageopacity="0.0"
     inkscape:pagecheckerboard="0"
     inkscape:deskcolor="#d1d1d1" />
  <path
     id="path1"
     style="baseline-shift:baseline;display:inline;overflow:visible;vector-effect:none;fill:#000000;stroke:none;stroke-linecap:butt;stroke-linejoin:miter;enable-background:accumulate;stop-color:#000000;stop-opacity:1;opacity:1"
     d="M 2 1.625 A 0.375 0.375 0 0 0 1.734375 1.734375 A 0.375 0.375 0 0 0 1.734375 2.265625 L 6.46875 7 L 6.1484375 7.3222656 A 0.3750375 0.3750375 0 0 0 6.1464844 7.3222656 C 5.953244 7.5166584 5.6920646 7.6258035 5.4179688 7.625 A 0.3750375 0.3750375 0 0 0 5.4160156 7.625 L 3 7.625 C 2.2450502 7.625 1.625 8.2450502 1.625 9 L 1.625 15 C 1.625 15.75495 2.2450502 16.375 3 16.375 L 5.4160156 16.375 A 0.3750375 0.3750375 0 0 0 5.4179688 16.375 C 5.6920646 16.374197 5.9532471 16.483342 6.1464844 16.677734 A 0.3750375 0.3750375 0 0 0 6.1484375 16.677734 L 9.53125 20.0625 C 9.8602365 20.392135 10.33715 20.450982 10.708984 20.296875 C 11.080819 20.142768 11.375648 19.76259 11.375 19.296875 L 11.375 11.90625 L 21.734375 22.265625 A 0.375 0.375 0 0 0 22.265625 22.265625 A 0.375 0.375 0 0 0 22.265625 21.734375 L 2.265625 1.734375 A 0.375 0.375 0 0 0 2 1.625 z M 10.277344 3.5976562 C 10.022645 3.6066748 9.7642643 3.7056669 9.5625 3.9082031 A 0.375 0.375 0 0 0 9.5625 4.4375 A 0.375 0.375 0 0 0 10.09375 4.4375 C 10.202993 4.327839 10.320826 4.3224744 10.433594 4.3691406 C 10.546361 4.4158066 10.625192 4.5014613 10.625 4.65625 L 10.625 5.34375 A 0.375 0.375 0 0 0 11 5.71875 A 0.375 0.375 0 0 0 11.375 5.34375 L 11.375 4.6582031 L 11.375 4.65625 C 11.374769 4.1996964 11.083654 3.8267865 10.71875 3.6757812 C 10.581723 3.6190763 10.430163 3.5922451 10.277344 3.5976562 z M 19.363281 5.2617188 A 0.375 0.375 0 0 0 19.099609 5.3710938 A 0.375 0.375 0 0 0 19.099609 5.9003906 C 21.608788 8.4081437 22.326885 12.192976 20.910156 15.445312 A 0.375 0.375 0 0 0 21.103516 15.939453 A 0.375 0.375 0 0 0 21.597656 15.746094 C 23.13661 12.213171 22.354558 8.095197 19.628906 5.3710938 A 0.375 0.375 0 0 0 19.363281 5.2617188 z M 7 7.53125 L 10.625 11.15625 L 10.625 19.298828 C 10.625227 19.462008 10.5412 19.554063 10.421875 19.603516 C 10.302555 19.652966 10.175819 19.64675 10.060547 19.53125 L 6.6796875 16.148438 L 6.6777344 16.148438 C 6.3439519 15.81337 5.8889615 15.624113 5.4160156 15.625 L 3 15.625 C 2.6503803 15.625 2.375 15.34962 2.375 15 L 2.375 9 C 2.375 8.6503803 2.6503803 8.375 3 8.375 L 5.4160156 8.375 C 5.8889615 8.375887 6.343955 8.1866295 6.6777344 7.8515625 L 7 7.53125 z M 16.005859 8.625 A 0.375 0.375 0 0 0 15.775391 8.6992188 A 0.375 0.375 0 0 0 15.699219 9.2246094 C 16.165758 9.846535 16.468131 10.576059 16.578125 11.345703 A 0.375 0.375 0 0 0 17.003906 11.664062 A 0.375 0.375 0 0 0 17.320312 11.240234 C 17.192484 10.345817 16.842955 9.4981424 16.300781 8.7753906 A 0.375 0.375 0 0 0 16.005859 8.625 z " />
</svg>
