<?xml version="1.0" encoding="UTF-8" standalone="no"?>
<svg
   width="24"
   height="24"
   viewBox="0 0 24 24"
   fill="none"
   stroke="currentColor"
   stroke-width="1"
   stroke-linecap="round"
   stroke-linejoin="round"
   version="1.1"
   id="svg4"
   sodipodi:docname=".tmp_a-arrow-down.svg"
   xmlns:inkscape="http://www.inkscape.org/namespaces/inkscape"
   xmlns:sodipodi="http://sodipodi.sourceforge.net/DTD/sodipodi-0.dtd"
   xmlns="http://www.w3.org/2000/svg"
   xmlns:svg="http://www.w3.org/2000/svg">
  <defs
     id="defs4" />
  <sodipodi:namedview
     id="namedview4"
     pagecolor="#ffffff"
     bordercolor="#000000"
     borderopacity="0.25"
     inkscape:showpageshadow="2"
     inkscape:pageopacity="0.0"
     inkscape:pagecheckerboard="0"
     inkscape:deskcolor="#d1d1d1" />
  <path
     id="path1"
     style="baseline-shift:baseline;display:inline;overflow:visible;vector-effect:none;fill:#000000;stroke:none;stroke-linecap:butt;stroke-linejoin:miter;enable-background:accumulate;stop-color:#000000;stop-opacity:1;opacity:1"
     d="M 6.5 5.5019531 C 6.1302032 5.5019531 5.741021 5.7264571 5.578125 6.1171875 L 1.5390625 15.808594 A 0.5 0.5 0 0 0 1.8085938 16.460938 A 0.5 0.5 0 0 0 2.4609375 16.191406 L 3.5820312 13.5 L 9.4179688 13.5 L 10.539062 16.191406 A 0.5 0.5 0 0 0 11.191406 16.460938 A 0.5 0.5 0 0 0 11.460938 15.808594 L 7.4238281 6.1171875 C 7.2609321 5.7264571 6.8697968 5.5019531 6.5 5.5019531 z M 18 6.5 A 0.5 0.5 0 0 0 17.5 7 L 17.5 14.792969 L 14.353516 11.646484 A 0.5 0.5 0 0 0 13.646484 11.646484 A 0.5 0.5 0 0 0 13.646484 12.353516 L 17.646484 16.353516 A 0.5 0.5 0 0 0 17.691406 16.392578 A 0.50005 0.50005 0 0 0 17.695312 16.396484 A 0.5 0.5 0 0 0 17.746094 16.429688 A 0.50005 0.50005 0 0 0 17.777344 16.447266 A 0.5 0.5 0 0 0 17.869141 16.482422 A 0.50005 0.50005 0 0 0 17.871094 16.482422 A 0.5 0.5 0 0 0 17.933594 16.496094 A 0.50005 0.50005 0 0 0 17.935547 16.496094 A 0.50005 0.50005 0 0 0 18.066406 16.496094 A 0.50005 0.50005 0 0 0 18.130859 16.482422 A 0.50005 0.50005 0 0 0 18.191406 16.460938 A 0.5 0.5 0 0 0 18.222656 16.447266 A 0.50005 0.50005 0 0 0 18.253906 16.429688 A 0.5 0.5 0 0 0 18.359375 16.347656 L 22.353516 12.353516 A 0.5 0.5 0 0 0 22.353516 11.646484 A 0.5 0.5 0 0 0 21.646484 11.646484 L 18.5 14.792969 L 18.5 7 A 0.5 0.5 0 0 0 18 6.5 z M 6.5 6.5019531 L 9 12.5 L 4 12.5 L 6.5 6.5019531 z " />
</svg>
