<?xml version="1.0" encoding="UTF-8" standalone="no"?>
<svg
   width="24"
   height="24"
   viewBox="0 0 24 24"
   fill="none"
   stroke="currentColor"
   stroke-width="1"
   stroke-linecap="round"
   stroke-linejoin="round"
   version="1.1"
   id="svg4"
   sodipodi:docname=".tmp_arrow-right-left.svg"
   xmlns:inkscape="http://www.inkscape.org/namespaces/inkscape"
   xmlns:sodipodi="http://sodipodi.sourceforge.net/DTD/sodipodi-0.dtd"
   xmlns="http://www.w3.org/2000/svg"
   xmlns:svg="http://www.w3.org/2000/svg">
  <defs
     id="defs4" />
  <sodipodi:namedview
     id="namedview4"
     pagecolor="#ffffff"
     bordercolor="#000000"
     borderopacity="0.25"
     inkscape:showpageshadow="2"
     inkscape:pageopacity="0.0"
     inkscape:pagecheckerboard="0"
     inkscape:deskcolor="#d1d1d1" />
  <path
     id="path1"
     style="baseline-shift:baseline;display:inline;overflow:visible;vector-effect:none;fill:#000000;stroke:none;stroke-linecap:butt;stroke-linejoin:miter;enable-background:accumulate;stop-color:#000000;stop-opacity:1;opacity:1"
     d="M 16 2.5 A 0.5 0.5 0 0 0 15.646484 2.6464844 A 0.5 0.5 0 0 0 15.646484 3.3535156 L 18.792969 6.5 L 4 6.5 A 0.5 0.5 0 0 0 3.5 7 A 0.5 0.5 0 0 0 4 7.5 L 18.792969 7.5 L 15.646484 10.646484 A 0.5 0.5 0 0 0 15.646484 11.353516 A 0.5 0.5 0 0 0 16.353516 11.353516 L 20.347656 7.359375 A 0.5 0.5 0 0 0 20.353516 7.3535156 A 0.50005 0.50005 0 0 0 20.392578 7.3085938 A 0.5 0.5 0 0 0 20.396484 7.3046875 A 0.50005 0.50005 0 0 0 20.447266 7.2226562 A 0.5 0.5 0 0 0 20.460938 7.1914062 A 0.50005 0.50005 0 0 0 20.482422 7.1308594 A 0.5 0.5 0 0 0 20.482422 7.1289062 A 0.50005 0.50005 0 0 0 20.496094 7.0664062 A 0.5 0.5 0 0 0 20.496094 7.0644531 A 0.50005 0.50005 0 0 0 20.496094 6.9335938 A 0.5 0.5 0 0 0 20.482422 6.8710938 A 0.50005 0.50005 0 0 0 20.482422 6.8691406 A 0.5 0.5 0 0 0 20.447266 6.7773438 A 0.50005 0.50005 0 0 0 20.429688 6.7460938 A 0.5 0.5 0 0 0 20.396484 6.6953125 A 0.50005 0.50005 0 0 0 20.392578 6.6914062 A 0.5 0.5 0 0 0 20.353516 6.6464844 L 16.353516 2.6464844 A 0.5 0.5 0 0 0 16 2.5 z M 8 12.5 A 0.5 0.5 0 0 0 7.6464844 12.646484 L 3.6523438 16.640625 L 3.6464844 16.646484 A 0.5 0.5 0 0 0 3.6074219 16.691406 A 0.50005 0.50005 0 0 0 3.6035156 16.695312 A 0.5 0.5 0 0 0 3.5703125 16.746094 A 0.50005 0.50005 0 0 0 3.5527344 16.777344 A 0.5 0.5 0 0 0 3.5390625 16.808594 A 0.5 0.5 0 0 0 3.5175781 16.869141 A 0.50005 0.50005 0 0 0 3.5175781 16.871094 A 0.5 0.5 0 0 0 3.5039062 16.933594 A 0.50005 0.50005 0 0 0 3.5039062 17.064453 A 0.5 0.5 0 0 0 3.5039062 17.066406 A 0.50005 0.50005 0 0 0 3.5175781 17.128906 A 0.5 0.5 0 0 0 3.5175781 17.130859 A 0.50005 0.50005 0 0 0 3.5390625 17.191406 A 0.5 0.5 0 0 0 3.5527344 17.222656 A 0.50005 0.50005 0 0 0 3.5703125 17.253906 A 0.50005 0.50005 0 0 0 3.6035156 17.304688 A 0.5 0.5 0 0 0 3.6074219 17.308594 A 0.50005 0.50005 0 0 0 3.6464844 17.353516 A 0.5 0.5 0 0 0 3.6523438 17.359375 L 7.6464844 21.353516 A 0.5 0.5 0 0 0 8.3535156 21.353516 A 0.5 0.5 0 0 0 8.3535156 20.646484 L 5.2070312 17.5 L 20 17.5 A 0.5 0.5 0 0 0 20.5 17 A 0.5 0.5 0 0 0 20 16.5 L 5.2070312 16.5 L 8.3535156 13.353516 A 0.5 0.5 0 0 0 8.3535156 12.646484 A 0.5 0.5 0 0 0 8 12.5 z " />
</svg>
