<?xml version="1.0" encoding="UTF-8" standalone="no"?>
<svg
   width="24"
   height="24"
   viewBox="0 0 24 24"
   fill="none"
   stroke="currentColor"
   stroke-width="1"
   stroke-linecap="round"
   stroke-linejoin="round"
   version="1.1"
   id="svg2"
   sodipodi:docname=".tmp_blend.svg"
   xmlns:inkscape="http://www.inkscape.org/namespaces/inkscape"
   xmlns:sodipodi="http://sodipodi.sourceforge.net/DTD/sodipodi-0.dtd"
   xmlns="http://www.w3.org/2000/svg"
   xmlns:svg="http://www.w3.org/2000/svg">
  <defs
     id="defs2" />
  <sodipodi:namedview
     id="namedview2"
     pagecolor="#ffffff"
     bordercolor="#000000"
     borderopacity="0.25"
     inkscape:showpageshadow="2"
     inkscape:pageopacity="0.0"
     inkscape:pagecheckerboard="0"
     inkscape:deskcolor="#d1d1d1" />
  <path
     id="circle1"
     style="baseline-shift:baseline;display:inline;overflow:visible;vector-effect:none;fill:#000000;stroke:none;stroke-linecap:butt;stroke-linejoin:miter;enable-background:accumulate;stop-color:#000000;stop-opacity:1;opacity:1"
     d="M 9 1.5 C 4.8637867 1.5 1.5 4.8637867 1.5 9 C 1.5 12.667034 4.1448376 15.726048 7.6269531 16.373047 C 8.2739523 19.855162 11.332966 22.5 15 22.5 C 19.136213 22.5 22.5 19.136213 22.5 15 C 22.5 11.332966 19.855162 8.2739523 16.373047 7.6269531 C 15.726048 4.1448376 12.667034 1.5 9 1.5 z M 9 2.5 C 12.081859 2.5 14.655356 4.6341129 15.328125 7.5078125 C 15.219208 7.503098 15.11006 7.5 15 7.5 C 10.863787 7.5 7.5 10.863787 7.5 15 C 7.5 15.11006 7.503098 15.219208 7.5078125 15.328125 C 4.6341129 14.655356 2.5 12.081859 2.5 9 C 2.5 5.4042268 5.4042268 2.5 9 2.5 z M 15 8.5 C 15.162295 8.5 15.323148 8.5059488 15.482422 8.5175781 C 15.494051 8.6768518 15.5 8.8377053 15.5 9 C 15.5 12.595773 12.595773 15.5 9 15.5 C 8.8377053 15.5 8.6768518 15.494051 8.5175781 15.482422 C 8.5059488 15.323148 8.5 15.162295 8.5 15 C 8.5 11.404227 11.404227 8.5 15 8.5 z M 16.492188 8.671875 C 19.365887 9.3446442 21.5 11.918141 21.5 15 C 21.5 18.595773 18.595773 21.5 15 21.5 C 11.918141 21.5 9.3446442 19.365887 8.671875 16.492188 C 8.780792 16.496902 8.8899404 16.5 9 16.5 C 13.136213 16.5 16.5 13.136213 16.5 9 C 16.5 8.8899404 16.496902 8.780792 16.492188 8.671875 z " />
</svg>
