<?xml version="1.0" encoding="UTF-8" standalone="no"?>
<svg
   width="24"
   height="24"
   viewBox="0 0 24 24"
   fill="none"
   stroke="currentColor"
   stroke-width="1"
   stroke-linecap="round"
   stroke-linejoin="round"
   version="1.1"
   id="svg3"
   sodipodi:docname=".tmp_brush.svg"
   xmlns:inkscape="http://www.inkscape.org/namespaces/inkscape"
   xmlns:sodipodi="http://sodipodi.sourceforge.net/DTD/sodipodi-0.dtd"
   xmlns="http://www.w3.org/2000/svg"
   xmlns:svg="http://www.w3.org/2000/svg">
  <defs
     id="defs3" />
  <sodipodi:namedview
     id="namedview3"
     pagecolor="#ffffff"
     bordercolor="#000000"
     borderopacity="0.25"
     inkscape:showpageshadow="2"
     inkscape:pageopacity="0.0"
     inkscape:pagecheckerboard="0"
     inkscape:deskcolor="#d1d1d1" />
  <path
     id="path1"
     style="baseline-shift:baseline;display:inline;overflow:visible;vector-effect:none;fill:#000000;stroke:none;stroke-linecap:butt;stroke-linejoin:miter;enable-background:accumulate;stop-color:#000000;stop-opacity:1;opacity:1"
     d="M 19.746094 1.4648438 C 19.15176 1.4946428 18.536616 1.7524468 18.021484 2.2675781 L 6.7851562 13.505859 C 6.1603408 13.463742 5.5357502 13.569858 4.96875 13.804688 C 3.5824279 14.378845 2.5 15.739316 2.5 17.5 C 2.5001481 18.033175 2.3006328 18.545886 1.9394531 18.9375 L 1.9375 18.939453 C 1.9343672 18.942841 1.9308913 18.945849 1.9277344 18.949219 C 1.4799517 19.406297 1.4010036 20.062114 1.6132812 20.574219 C 1.827506 21.091021 2.3520685 21.501159 3 21.5 L 6.5 21.5 C 8.2606844 21.5 9.6211533 20.417572 10.195312 19.03125 C 10.430389 18.46365 10.536494 17.838471 10.494141 17.212891 L 14.353516 13.353516 L 21.732422 5.9785156 C 22.321143 5.3897941 22.572574 4.6692971 22.533203 4 C 22.493833 3.3307029 22.186239 2.7213955 21.732422 2.2675781 C 21.278604 1.8137607 20.669297 1.5061674 20 1.4667969 C 19.916338 1.4618756 19.830999 1.4605867 19.746094 1.4648438 z M 19.792969 2.4628906 C 19.842548 2.4609952 19.892167 2.4619473 19.941406 2.4648438 C 20.335317 2.4880148 20.728708 2.6779268 21.025391 2.9746094 C 21.322073 3.271292 21.511985 3.6646828 21.535156 4.0585938 C 21.558326 4.4525049 21.437336 4.8575865 21.025391 5.2695312 L 14 12.292969 L 11.707031 10 L 18.730469 2.9746094 C 19.09092 2.6141577 19.445912 2.4761583 19.792969 2.4628906 z M 11 10.707031 L 13.292969 13 L 10.236328 16.056641 C 10.044185 15.5617 9.7455026 15.089253 9.328125 14.671875 C 8.9103535 14.254103 8.4389026 13.953694 7.9433594 13.761719 L 11 10.707031 z M 6.4296875 14.492188 C 6.5528755 14.487903 6.6752479 14.490525 6.7988281 14.501953 A 0.5 0.5 0 0 0 7.0078125 14.529297 C 7.0114237 14.529901 7.015921 14.530632 7.0195312 14.53125 C 7.5856328 14.62822 8.1411438 14.898956 8.6210938 15.378906 C 9.1033496 15.861162 9.3749583 16.419291 9.4707031 16.988281 A 0.5 0.5 0 0 0 9.4980469 17.201172 C 9.5436451 17.695619 9.4607346 18.191488 9.2714844 18.648438 C 8.8366742 19.698299 7.8576995 20.5 6.5 20.5 L 3 20.5 C 2.7555542 20.500437 2.6117417 20.371451 2.5371094 20.191406 C 2.4624771 20.011361 2.4714628 19.819115 2.6445312 19.646484 A 0.50005 0.50005 0 0 0 2.65625 19.634766 C 3.198036 19.056465 3.5002201 18.292442 3.5 17.5 C 3.5 16.142301 4.3017013 15.163326 5.3515625 14.728516 C 5.6942794 14.586576 6.0601234 14.50504 6.4296875 14.492188 z " />
</svg>
