<?xml version="1.0" encoding="UTF-8" standalone="no"?>
<svg
   width="24"
   height="24"
   viewBox="0 0 24 24"
   fill="none"
   stroke="currentColor"
   stroke-width="1"
   stroke-linecap="round"
   stroke-linejoin="round"
   version="1.1"
   id="svg11"
   sodipodi:docname=".tmp_bug.svg"
   xmlns:inkscape="http://www.inkscape.org/namespaces/inkscape"
   xmlns:sodipodi="http://sodipodi.sourceforge.net/DTD/sodipodi-0.dtd"
   xmlns="http://www.w3.org/2000/svg"
   xmlns:svg="http://www.w3.org/2000/svg">
  <defs
     id="defs11" />
  <sodipodi:namedview
     id="namedview11"
     pagecolor="#ffffff"
     bordercolor="#000000"
     borderopacity="0.25"
     inkscape:showpageshadow="2"
     inkscape:pageopacity="0.0"
     inkscape:pagecheckerboard="0"
     inkscape:deskcolor="#d1d1d1" />
  <path
     id="path1"
     style="baseline-shift:baseline;display:inline;overflow:visible;vector-effect:none;fill:#000000;stroke:none;stroke-linecap:butt;stroke-linejoin:miter;enable-background:accumulate;stop-color:#000000;stop-opacity:1;opacity:1"
     d="M 8 1.5 A 0.5 0.5 0 0 0 7.6464844 1.6464844 A 0.5 0.5 0 0 0 7.6464844 2.3535156 L 9.1601562 3.8671875 C 8.7508461 4.4259639 8.5 5.1506286 8.5 6 L 8.5 6.7578125 C 7.6084507 7.0744188 6.8442151 7.6654246 6.3105469 8.4277344 C 4.6875299 8.1047655 3.5019385 6.6830347 3.5 5 A 0.5 0.5 0 0 0 3 4.5 A 0.5 0.5 0 0 0 2.5 5 C 2.502362 7.05063 3.891666 8.8138022 5.8183594 9.3378906 C 5.6127557 9.8525288 5.5 10.413291 5.5 11 L 5.5 12.5 L 2 12.5 A 0.5 0.5 0 0 0 1.5 13 A 0.5 0.5 0 0 0 2 13.5 L 5.5 13.5 L 5.5 14 C 5.5 14.923117 5.6925122 15.801573 6.0410156 16.597656 C 4.008866 17.040502 2.4975798 18.855871 2.5 21 A 0.5 0.5 0 0 0 3 21.5 A 0.5 0.5 0 0 0 3.5 21 C 3.4979916 19.223726 4.8103889 17.7512 6.5410156 17.525391 C 7.6889269 19.296219 9.6780964 20.473059 11.935547 20.496094 A 0.5 0.5 0 0 0 12 20.5 A 0.5 0.5 0 0 0 12.066406 20.496094 C 14.323857 20.473059 16.311073 19.296219 17.458984 17.525391 C 19.18961 17.751199 20.502005 19.223725 20.5 21 A 0.5 0.5 0 0 0 21 21.5 A 0.5 0.5 0 0 0 21.5 21 C 21.502413 18.855871 19.991133 17.040502 17.958984 16.597656 C 18.307488 15.801573 18.5 14.923117 18.5 14 L 18.5 13.5 L 22 13.5 A 0.5 0.5 0 0 0 22.5 13 A 0.5 0.5 0 0 0 22 12.5 L 18.5 12.5 L 18.5 11 C 18.5 10.413291 18.387244 9.8525288 18.181641 9.3378906 C 20.108334 8.8138021 21.497638 7.0506299 21.5 5 A 0.5 0.5 0 0 0 21 4.5 A 0.5 0.5 0 0 0 20.5 5 C 20.498018 6.6830345 19.312465 8.1047652 17.689453 8.4277344 C 17.155785 7.6654247 16.391549 7.0744187 15.5 6.7578125 L 15.5 6 C 15.5 5.1506286 15.249154 4.4259639 14.839844 3.8671875 L 16.353516 2.3535156 A 0.5 0.5 0 0 0 16.353516 1.6464844 A 0.5 0.5 0 0 0 15.646484 1.6464844 L 14.128906 3.1640625 C 13.506489 2.71659 12.750596 2.5 12 2.5 C 11.249404 2.5 10.493511 2.7165901 9.8710938 3.1640625 L 8.3535156 1.6464844 A 0.5 0.5 0 0 0 8 1.5 z M 12 3.5 C 12.602666 3.5 13.199053 3.6902575 13.650391 4.0546875 A 0.5 0.5 0 0 0 13.765625 4.234375 A 0.5 0.5 0 0 0 13.955078 4.3535156 C 14.28773 4.7464956 14.5 5.2771061 14.5 6 L 14.5 6.5273438 C 14.335793 6.5090701 14.168962 6.5 14 6.5 L 10 6.5 C 9.8310382 6.5 9.6642068 6.5090701 9.5 6.5273438 L 9.5 6 C 9.5 5.2771061 9.7122698 4.7464956 10.044922 4.3535156 A 0.5 0.5 0 0 0 10.234375 4.234375 A 0.5 0.5 0 0 0 10.349609 4.0546875 C 10.800947 3.6902575 11.397334 3.5 12 3.5 z M 10 7.5 L 14 7.5 C 14.279184 7.5 14.550563 7.5325507 14.810547 7.59375 A 0.5 0.5 0 0 0 14.943359 7.6269531 C 15.823766 7.8711833 16.562232 8.4504191 17.015625 9.21875 A 0.5 0.5 0 0 0 17.021484 9.2285156 C 17.325512 9.7476158 17.5 10.352609 17.5 11 L 17.5 14 C 17.5 14.973216 17.247881 15.885688 16.806641 16.677734 A 0.5 0.5 0 0 0 16.720703 16.828125 C 15.841369 18.29604 14.297181 19.317469 12.5 19.478516 L 12.5 11 A 0.5 0.5 0 0 0 12 10.5 A 0.5 0.5 0 0 0 11.5 11 L 11.5 19.478516 C 9.7028181 19.317469 8.1586313 18.296041 7.2792969 16.828125 A 0.5 0.5 0 0 0 7.1933594 16.677734 C 6.7521186 15.885688 6.5 14.973216 6.5 14 L 6.5 11 C 6.5 9.3882583 7.5789025 8.0368868 9.0566406 7.6269531 A 0.5 0.5 0 0 0 9.1894531 7.59375 C 9.4494372 7.5325507 9.7208162 7.5 10 7.5 z " />
</svg>
