<?xml version="1.0" encoding="UTF-8" standalone="no"?>
<svg
   width="24"
   height="24"
   viewBox="0 0 24 24"
   fill="none"
   stroke="currentColor"
   stroke-width="1"
   stroke-linecap="round"
   stroke-linejoin="round"
   version="1.1"
   id="svg6"
   sodipodi:docname=".tmp_cookie.svg"
   xmlns:inkscape="http://www.inkscape.org/namespaces/inkscape"
   xmlns:sodipodi="http://sodipodi.sourceforge.net/DTD/sodipodi-0.dtd"
   xmlns="http://www.w3.org/2000/svg"
   xmlns:svg="http://www.w3.org/2000/svg">
  <defs
     id="defs6" />
  <sodipodi:namedview
     id="namedview6"
     pagecolor="#ffffff"
     bordercolor="#000000"
     borderopacity="0.25"
     inkscape:showpageshadow="2"
     inkscape:pageopacity="0.0"
     inkscape:pagecheckerboard="0"
     inkscape:deskcolor="#d1d1d1" />
  <path
     id="path1"
     style="baseline-shift:baseline;display:inline;overflow:visible;vector-effect:none;fill:#000000;stroke:none;stroke-linecap:butt;stroke-linejoin:miter;enable-background:accumulate;stop-color:#000000;stop-opacity:1;opacity:1"
     d="M 12 1.5 C 7.3436735 1.5 3.8098864 4.3339296 2.2988281 7.9824219 C 0.78776985 11.630914 1.2840285 16.131685 4.5761719 19.423828 C 7.8683153 22.715972 12.369086 23.21223 16.017578 21.701172 C 19.66607 20.190114 22.5 16.656327 22.5 12 A 0.50005 0.50005 0 0 0 21.853516 11.521484 C 19.14042 12.35689 16.64311 9.8595803 17.478516 7.1464844 A 0.50005 0.50005 0 0 0 16.853516 6.5214844 C 14.14042 7.3568899 11.64311 4.8595803 12.478516 2.1464844 A 0.5 0.5 0 0 0 12.470703 2.0703125 A 0.5 0.5 0 0 0 12.5 2 A 0.5 0.5 0 0 0 12.460938 1.9609375 A 0.5 0.5 0 0 0 12.146484 1.5214844 A 0.5 0.5 0 0 0 12.033203 1.5332031 A 0.5 0.5 0 0 0 12 1.5 z M 11.507812 2.5742188 C 11.120444 5.4895329 13.587767 7.9365796 16.509766 7.4902344 C 16.06342 10.412233 18.510467 12.879554 21.425781 12.492188 C 21.226197 16.480971 18.809722 19.462405 15.634766 20.777344 C 12.322734 22.149054 8.2903828 21.723977 5.2832031 18.716797 C 2.2760235 15.709617 1.8509465 11.677266 3.2226562 8.3652344 C 4.5375951 5.1902777 7.5190279 2.7738027 11.507812 2.5742188 z M 8.5 8 A 0.5 0.5 0 0 0 8 8.5 L 8 8.5097656 A 0.5 0.5 0 0 0 8.5 9.0097656 A 0.5 0.5 0 0 0 9 8.5097656 L 9 8.5 A 0.5 0.5 0 0 0 8.5 8 z M 12 11.5 A 0.5 0.5 0 0 0 11.5 12 L 11.5 12.009766 A 0.5 0.5 0 0 0 12 12.509766 A 0.5 0.5 0 0 0 12.5 12.009766 L 12.5 12 A 0.5 0.5 0 0 0 12 11.5 z M 7 13.5 A 0.5 0.5 0 0 0 6.5 14 L 6.5 14.009766 A 0.5 0.5 0 0 0 7 14.509766 A 0.5 0.5 0 0 0 7.5 14.009766 L 7.5 14 A 0.5 0.5 0 0 0 7 13.5 z M 16 15 A 0.5 0.5 0 0 0 15.5 15.5 L 15.5 15.509766 A 0.5 0.5 0 0 0 16 16.009766 A 0.5 0.5 0 0 0 16.5 15.509766 L 16.5 15.5 A 0.5 0.5 0 0 0 16 15 z M 11 16.5 A 0.5 0.5 0 0 0 10.5 17 L 10.5 17.009766 A 0.5 0.5 0 0 0 11 17.509766 A 0.5 0.5 0 0 0 11.5 17.009766 L 11.5 17 A 0.5 0.5 0 0 0 11 16.5 z " />
</svg>
