<?xml version="1.0" encoding="UTF-8" standalone="no"?>
<svg
   width="24"
   height="24"
   viewBox="0 0 24 24"
   fill="none"
   stroke="currentColor"
   stroke-width="1"
   stroke-linecap="round"
   stroke-linejoin="round"
   version="1.1"
   id="svg1"
   sodipodi:docname=".tmp_credit-card.svg"
   xmlns:inkscape="http://www.inkscape.org/namespaces/inkscape"
   xmlns:sodipodi="http://sodipodi.sourceforge.net/DTD/sodipodi-0.dtd"
   xmlns="http://www.w3.org/2000/svg"
   xmlns:svg="http://www.w3.org/2000/svg">
  <defs
     id="defs1" />
  <sodipodi:namedview
     id="namedview1"
     pagecolor="#ffffff"
     bordercolor="#000000"
     borderopacity="0.25"
     inkscape:showpageshadow="2"
     inkscape:pageopacity="0.0"
     inkscape:pagecheckerboard="0"
     inkscape:deskcolor="#d1d1d1" />
  <path
     id="rect1"
     style="baseline-shift:baseline;display:inline;overflow:visible;vector-effect:none;fill:#000000;stroke:none;stroke-linecap:butt;stroke-linejoin:miter;enable-background:accumulate;stop-color:#000000;stop-opacity:1;opacity:1"
     d="M 4 4.5 C 2.6236486 4.5 1.5 5.6236486 1.5 7 L 1.5 10 L 1.5 17 C 1.5 18.376351 2.6236486 19.5 4 19.5 L 20 19.5 C 21.376351 19.5 22.5 18.376351 22.5 17 L 22.5 10 L 22.5 7 C 22.5 5.6236486 21.376351 4.5 20 4.5 L 4 4.5 z M 4 5.5 L 20 5.5 C 20.839649 5.5 21.5 6.1603514 21.5 7 L 21.5 9.5 L 2.5 9.5 L 2.5 7 C 2.5 6.1603514 3.1603514 5.5 4 5.5 z M 2.5 10.5 L 21.5 10.5 L 21.5 17 C 21.5 17.839649 20.839649 18.5 20 18.5 L 4 18.5 C 3.1603514 18.5 2.5 17.839649 2.5 17 L 2.5 10.5 z " />
</svg>
