<?xml version="1.0" encoding="UTF-8" standalone="no"?>
<svg
   width="24"
   height="24"
   viewBox="0 0 24 24"
   fill="none"
   stroke="currentColor"
   stroke-width="1"
   stroke-linecap="round"
   stroke-linejoin="round"
   version="1.1"
   id="svg4"
   sodipodi:docname=".tmp_cup-soda.svg"
   xmlns:inkscape="http://www.inkscape.org/namespaces/inkscape"
   xmlns:sodipodi="http://sodipodi.sourceforge.net/DTD/sodipodi-0.dtd"
   xmlns="http://www.w3.org/2000/svg"
   xmlns:svg="http://www.w3.org/2000/svg">
  <defs
     id="defs4" />
  <sodipodi:namedview
     id="namedview4"
     pagecolor="#ffffff"
     bordercolor="#000000"
     borderopacity="0.25"
     inkscape:showpageshadow="2"
     inkscape:pageopacity="0.0"
     inkscape:pagecheckerboard="0"
     inkscape:deskcolor="#d1d1d1" />
  <path
     id="path1"
     style="baseline-shift:baseline;display:inline;overflow:visible;vector-effect:none;fill:#000000;stroke:none;stroke-linecap:butt;stroke-linejoin:miter;enable-background:accumulate;stop-color:#000000;stop-opacity:1;opacity:1"
     d="M 13 1.5 A 0.50005 0.50005 0 0 0 12.505859 1.9179688 L 11.576172 7.5 L 5 7.5 A 0.5 0.5 0 0 0 4.5 8 A 0.5 0.5 0 0 0 5 8.5 L 5.5664062 8.5 L 7.2558594 20.349609 C 7.4309421 21.588321 8.5048965 22.512312 9.7558594 22.5 L 14.285156 22.5 C 15.536119 22.51231 16.610074 21.588321 16.785156 20.349609 L 18.435547 8.5 L 19 8.5 A 0.5 0.5 0 0 0 19.5 8 A 0.5 0.5 0 0 0 19 7.5 L 12.591797 7.5 L 13.423828 2.5 L 15 2.5 A 0.5 0.5 0 0 0 15.5 2 A 0.5 0.5 0 0 0 15 1.5 L 13 1.5 z M 6.5761719 8.5 L 11.96875 8.5 L 12.033203 8.5 L 17.423828 8.5 L 16.570312 14.630859 C 15.155194 15.154025 13.590788 15.124496 12.193359 14.539062 C 11.331991 14.178202 10.415915 13.998047 9.5 13.998047 C 8.7933204 13.998047 8.0859665 14.105568 7.4042969 14.320312 L 6.5761719 8.5 z M 9.6875 15 C 10.409311 15.022593 11.12726 15.17632 11.806641 15.460938 C 13.27525 16.076192 14.90251 16.166159 16.417969 15.732422 L 15.794922 20.210938 C 15.689006 20.960292 15.051687 21.507448 14.294922 21.5 A 0.50005 0.50005 0 0 0 14.289062 21.5 L 9.75 21.5 A 0.50005 0.50005 0 0 0 9.7441406 21.5 C 8.9873754 21.5074 8.3500562 20.960292 8.2441406 20.210938 A 0.50005 0.50005 0 0 0 8.2441406 20.208984 L 7.5488281 15.326172 C 8.2406904 15.08674 8.9656889 14.977407 9.6875 15 z " />
</svg>
