<?xml version="1.0" encoding="UTF-8" standalone="no"?>
<svg
   width="24"
   height="24"
   viewBox="0 0 24 24"
   fill="none"
   stroke="currentColor"
   stroke-width="1"
   stroke-linecap="round"
   stroke-linejoin="round"
   version="1.1"
   id="svg3"
   sodipodi:docname=".tmp_external-link.svg"
   xmlns:inkscape="http://www.inkscape.org/namespaces/inkscape"
   xmlns:sodipodi="http://sodipodi.sourceforge.net/DTD/sodipodi-0.dtd"
   xmlns="http://www.w3.org/2000/svg"
   xmlns:svg="http://www.w3.org/2000/svg">
  <defs
     id="defs3" />
  <sodipodi:namedview
     id="namedview3"
     pagecolor="#ffffff"
     bordercolor="#000000"
     borderopacity="0.25"
     inkscape:showpageshadow="2"
     inkscape:pageopacity="0.0"
     inkscape:pagecheckerboard="0"
     inkscape:deskcolor="#d1d1d1" />
  <path
     id="path1"
     style="baseline-shift:baseline;display:inline;overflow:visible;vector-effect:none;fill:#000000;stroke:none;stroke-linecap:butt;stroke-linejoin:miter;enable-background:accumulate;stop-color:#000000;stop-opacity:1;opacity:1"
     d="M 15 2.5 A 0.5 0.5 0 0 0 14.5 3 A 0.5 0.5 0 0 0 15 3.5 L 19.792969 3.5 L 9.6464844 13.646484 A 0.5 0.5 0 0 0 9.6464844 14.353516 A 0.5 0.5 0 0 0 10.353516 14.353516 L 20.5 4.2070312 L 20.5 9 A 0.5 0.5 0 0 0 21 9.5 A 0.5 0.5 0 0 0 21.5 9 L 21.5 3 A 0.50005 0.50005 0 0 0 21.353516 2.6464844 A 0.5 0.5 0 0 0 21.25 2.5664062 A 0.50005 0.50005 0 0 0 21 2.5 L 15 2.5 z M 5 5.5 C 3.6252104 5.5 2.5 6.6252104 2.5 8 L 2.5 19 C 2.5 20.37479 3.6252104 21.5 5 21.5 L 16 21.5 C 17.37479 21.5 18.5 20.37479 18.5 19 L 18.5 13 A 0.5 0.5 0 0 0 18 12.5 A 0.5 0.5 0 0 0 17.5 13 L 17.5 19 C 17.5 19.834349 16.834349 20.5 16 20.5 L 5 20.5 C 4.1656506 20.5 3.5 19.834349 3.5 19 L 3.5 8 C 3.5 7.1656506 4.1656506 6.5 5 6.5 L 11 6.5 A 0.5 0.5 0 0 0 11.5 6 A 0.5 0.5 0 0 0 11 5.5 L 5 5.5 z " />
</svg>
