<?xml version="1.0" encoding="UTF-8" standalone="no"?>
<svg
   width="24"
   height="24"
   viewBox="0 0 24 24"
   fill="none"
   stroke="currentColor"
   stroke-width="1"
   stroke-linecap="round"
   stroke-linejoin="round"
   version="1.1"
   id="svg5"
   sodipodi:docname=".tmp_file-type-2.svg"
   xmlns:inkscape="http://www.inkscape.org/namespaces/inkscape"
   xmlns:sodipodi="http://sodipodi.sourceforge.net/DTD/sodipodi-0.dtd"
   xmlns="http://www.w3.org/2000/svg"
   xmlns:svg="http://www.w3.org/2000/svg">
  <defs
     id="defs5" />
  <sodipodi:namedview
     id="namedview5"
     pagecolor="#ffffff"
     bordercolor="#000000"
     borderopacity="0.25"
     inkscape:showpageshadow="2"
     inkscape:pageopacity="0.0"
     inkscape:pagecheckerboard="0"
     inkscape:deskcolor="#d1d1d1" />
  <path
     id="path1"
     style="baseline-shift:baseline;display:inline;overflow:visible;vector-effect:none;fill:#000000;stroke:none;stroke-linecap:butt;stroke-linejoin:miter;enable-background:accumulate;stop-color:#000000;stop-opacity:1;opacity:1"
     d="M 6 1.5 C 4.6252104 1.5 3.5 2.6252104 3.5 4 L 3.5 8 A 0.5 0.5 0 0 0 4 8.5 A 0.5 0.5 0 0 0 4.5 8 L 4.5 4 C 4.5 3.1656506 5.1656506 2.5 6 2.5 L 13.5 2.5 L 13.5 6 C 13.5 7.3747896 14.62521 8.5 16 8.5 L 19.5 8.5 L 19.5 20 C 19.5 20.834349 18.834349 21.5 18 21.5 L 4 21.5 A 0.5 0.5 0 0 0 3.5 22 A 0.5 0.5 0 0 0 4 22.5 L 18 22.5 C 19.37479 22.5 20.5 21.37479 20.5 20 L 20.5 7 A 0.50005 0.50005 0 0 0 20.353516 6.6464844 L 15.353516 1.6464844 A 0.50005 0.50005 0 0 0 15 1.5 L 6 1.5 z M 14.5 2.5 L 14.792969 2.5 L 19.5 7.2070312 L 19.5 7.5 L 16 7.5 C 15.165651 7.5 14.5 6.8343494 14.5 6 L 14.5 2.5 z M 2 11.5 A 0.50005 0.50005 0 0 0 1.5 12 L 1.5 13 A 0.5 0.5 0 0 0 2 13.5 A 0.5 0.5 0 0 0 2.5 13 L 2.5 12.5 L 4.5 12.5 L 4.5 17.5 L 4 17.5 A 0.5 0.5 0 0 0 3.5 18 A 0.5 0.5 0 0 0 4 18.5 L 5 18.5 L 6 18.5 A 0.5 0.5 0 0 0 6.5 18 A 0.5 0.5 0 0 0 6 17.5 L 5.5 17.5 L 5.5 12.5 L 7.5 12.5 L 7.5 13 A 0.5 0.5 0 0 0 8 13.5 A 0.5 0.5 0 0 0 8.5 13 L 8.5 12 A 0.50005 0.50005 0 0 0 8 11.5 L 2 11.5 z " />
</svg>
