<?xml version="1.0" encoding="UTF-8" standalone="no"?>
<svg
   width="24"
   height="24"
   viewBox="0 0 24 24"
   fill="none"
   stroke="currentColor"
   stroke-width="1"
   stroke-linecap="round"
   stroke-linejoin="round"
   version="1.1"
   id="svg6"
   sodipodi:docname=".tmp_flip-vertical-2.svg"
   xmlns:inkscape="http://www.inkscape.org/namespaces/inkscape"
   xmlns:sodipodi="http://sodipodi.sourceforge.net/DTD/sodipodi-0.dtd"
   xmlns="http://www.w3.org/2000/svg"
   xmlns:svg="http://www.w3.org/2000/svg">
  <defs
     id="defs6" />
  <sodipodi:namedview
     id="namedview6"
     pagecolor="#ffffff"
     bordercolor="#000000"
     borderopacity="0.25"
     inkscape:showpageshadow="2"
     inkscape:pageopacity="0.0"
     inkscape:pagecheckerboard="0"
     inkscape:deskcolor="#d1d1d1" />
  <path
     id="path1"
     style="baseline-shift:baseline;display:inline;overflow:visible;vector-effect:none;fill:#000000;stroke:none;stroke-linecap:butt;stroke-linejoin:miter;enable-background:accumulate;stop-color:#000000;stop-opacity:1;opacity:1"
     d="M 7 2.5 A 0.50005 0.50005 0 0 0 6.6464844 3.3535156 L 11.646484 8.3535156 A 0.50005 0.50005 0 0 0 12.353516 8.3535156 L 17.353516 3.3535156 A 0.5 0.5 0 0 0 17.5 3 A 0.5 0.5 0 0 0 17.353516 2.6464844 A 0.5 0.5 0 0 0 17.146484 2.6464844 A 0.5 0.5 0 0 0 17 2.5 L 7 2.5 z M 8.2070312 3.5 L 15.792969 3.5 L 12 7.2929688 L 8.2070312 3.5 z M 2 11.5 A 0.5 0.5 0 0 0 1.5 12 A 0.5 0.5 0 0 0 2 12.5 L 4 12.5 A 0.5 0.5 0 0 0 4.5 12 A 0.5 0.5 0 0 0 4 11.5 L 2 11.5 z M 8 11.5 A 0.5 0.5 0 0 0 7.5 12 A 0.5 0.5 0 0 0 8 12.5 L 10 12.5 A 0.5 0.5 0 0 0 10.5 12 A 0.5 0.5 0 0 0 10 11.5 L 8 11.5 z M 14 11.5 A 0.5 0.5 0 0 0 13.5 12 A 0.5 0.5 0 0 0 14 12.5 L 16 12.5 A 0.5 0.5 0 0 0 16.5 12 A 0.5 0.5 0 0 0 16 11.5 L 14 11.5 z M 20 11.5 A 0.5 0.5 0 0 0 19.5 12 A 0.5 0.5 0 0 0 20 12.5 L 22 12.5 A 0.5 0.5 0 0 0 22.5 12 A 0.5 0.5 0 0 0 22 11.5 L 20 11.5 z M 12 15.5 A 0.50005 0.50005 0 0 0 11.646484 15.646484 L 6.6464844 20.646484 A 0.50005 0.50005 0 0 0 7 21.5 L 17 21.5 A 0.5 0.5 0 0 0 17.146484 21.353516 A 0.5 0.5 0 0 0 17.353516 21.353516 A 0.5 0.5 0 0 0 17.353516 21.146484 A 0.5 0.5 0 0 0 17.5 21 A 0.5 0.5 0 0 0 17.353516 20.853516 A 0.5 0.5 0 0 0 17.353516 20.646484 L 12.353516 15.646484 A 0.50005 0.50005 0 0 0 12 15.5 z M 12 16.707031 L 15.792969 20.5 L 8.2070312 20.5 L 12 16.707031 z " />
</svg>
