<?xml version="1.0" encoding="UTF-8" standalone="no"?>
<svg
   width="24"
   height="24"
   viewBox="0 0 24 24"
   fill="none"
   stroke="currentColor"
   stroke-width="1"
   stroke-linecap="round"
   stroke-linejoin="round"
   version="1.1"
   id="svg2"
   sodipodi:docname=".tmp_folder-git-2.svg"
   xmlns:inkscape="http://www.inkscape.org/namespaces/inkscape"
   xmlns:sodipodi="http://sodipodi.sourceforge.net/DTD/sodipodi-0.dtd"
   xmlns="http://www.w3.org/2000/svg"
   xmlns:svg="http://www.w3.org/2000/svg">
  <defs
     id="defs2" />
  <sodipodi:namedview
     id="namedview2"
     pagecolor="#ffffff"
     bordercolor="#000000"
     borderopacity="0.25"
     inkscape:showpageshadow="2"
     inkscape:pageopacity="0.0"
     inkscape:pagecheckerboard="0"
     inkscape:deskcolor="#d1d1d1" />
  <path
     id="path1"
     style="baseline-shift:baseline;display:inline;overflow:visible;vector-effect:none;fill:#000000;stroke:none;stroke-linecap:butt;stroke-linejoin:miter;enable-background:accumulate;stop-color:#000000;stop-opacity:1;opacity:1"
     d="M 4 2.5 C 2.6252104 2.5 1.5 3.6252104 1.5 5 L 1.5 18 C 1.5 19.37479 2.6252104 20.5 4 20.5 L 9 20.5 A 0.5 0.5 0 0 0 9.5 20 A 0.5 0.5 0 0 0 9 19.5 L 4 19.5 C 3.1656506 19.5 2.5 18.834349 2.5 18 L 2.5 5 C 2.5 4.1656506 3.1656506 3.5 4 3.5 L 7.9003906 3.5 A 0.50005 0.50005 0 0 0 7.9042969 3.5 C 8.4146798 3.495 8.8911754 3.7494908 9.171875 4.1757812 A 0.50005 0.50005 0 0 0 9.1757812 4.1796875 L 9.9824219 5.375 C 10.444494 6.0766481 11.23018 6.4998617 12.070312 6.5 L 20 6.5 C 20.834349 6.5 21.5 7.1656506 21.5 8 L 21.5 13 A 0.5 0.5 0 0 0 22 13.5 A 0.5 0.5 0 0 0 22.5 13 L 22.5 8 C 22.5 6.6252104 21.37479 5.5 20 5.5 L 12.070312 5.5 C 11.56527 5.4999168 11.096132 5.2460115 10.818359 4.8242188 A 0.50005 0.50005 0 0 0 10.814453 4.8203125 L 10.007812 3.625 L 10.003906 3.6210938 C 9.5365692 2.9148742 8.7415881 2.4916953 7.8945312 2.5 L 4 2.5 z M 13 9.5 C 11.62521 9.5 10.5 10.62521 10.5 12 C 10.5 13.203695 11.362569 14.215879 12.5 14.449219 L 12.5 22 A 0.5 0.5 0 0 0 13 22.5 A 0.5 0.5 0 0 0 13.5 22 L 13.5 17.001953 C 14.403159 18.359225 15.826297 19.333777 17.546875 19.480469 C 17.772708 20.627372 18.789546 21.5 20 21.5 C 21.37479 21.5 22.5 20.37479 22.5 19 C 22.5 17.62521 21.37479 16.5 20 16.5 C 18.803513 16.5 17.795883 17.353143 17.554688 18.480469 C 15.382112 18.279689 13.720311 16.617888 13.519531 14.445312 C 14.646857 14.204117 15.5 13.196487 15.5 12 C 15.5 10.62521 14.37479 9.5 13 9.5 z M 13 10.5 C 13.834349 10.5 14.5 11.165651 14.5 12 C 14.5 12.834349 13.834349 13.5 13 13.5 C 12.165651 13.5 11.5 12.834349 11.5 12 C 11.5 11.165651 12.165651 10.5 13 10.5 z M 20 17.5 C 20.834349 17.5 21.5 18.165651 21.5 19 C 21.5 19.834349 20.834349 20.5 20 20.5 C 19.165651 20.5 18.5 19.834349 18.5 19 C 18.5 18.165651 19.165651 17.5 20 17.5 z " />
</svg>
