<?xml version="1.0" encoding="UTF-8" standalone="no"?>
<svg
   width="24"
   height="24"
   viewBox="0 0 24 24"
   fill="none"
   stroke="currentColor"
   stroke-width="1"
   stroke-linecap="round"
   stroke-linejoin="round"
   version="1.1"
   id="svg2"
   sodipodi:docname=".tmp_headset.svg"
   xmlns:inkscape="http://www.inkscape.org/namespaces/inkscape"
   xmlns:sodipodi="http://sodipodi.sourceforge.net/DTD/sodipodi-0.dtd"
   xmlns="http://www.w3.org/2000/svg"
   xmlns:svg="http://www.w3.org/2000/svg">
  <defs
     id="defs2" />
  <sodipodi:namedview
     id="namedview2"
     pagecolor="#ffffff"
     bordercolor="#000000"
     borderopacity="0.25"
     inkscape:showpageshadow="2"
     inkscape:pageopacity="0.0"
     inkscape:pagecheckerboard="0"
     inkscape:deskcolor="#d1d1d1" />
  <path
     id="path1"
     style="baseline-shift:baseline;display:inline;overflow:visible;vector-effect:none;fill:#000000;stroke:none;stroke-linecap:butt;stroke-linejoin:miter;enable-background:accumulate;stop-color:#000000;stop-opacity:1;opacity:1"
     d="M 12 1.5 C 6.7592178 1.5 2.5 5.759214 2.5 11 L 2.5 16 C 2.5 17.37479 3.6252104 18.5 5 18.5 L 6 18.5 C 7.3747896 18.5 8.5 17.37479 8.5 16 L 8.5 13 C 8.5 11.62521 7.3747896 10.5 6 10.5 L 3.6015625 10.5 C 3.8737548 6.0466211 7.4771796 2.5 12 2.5 C 16.52282 2.5 20.126245 6.0466211 20.398438 10.5 L 18 10.5 C 16.62521 10.5 15.5 11.62521 15.5 13 L 15.5 16 C 15.5 17.37479 16.62521 18.5 18 18.5 L 19 18.5 C 19.561525 18.5 20.081413 18.311859 20.5 17.996094 L 20.5 18 C 20.5 19.938919 18.938919 21.5 17 21.5 L 12 21.5 A 0.5 0.5 0 0 0 11.5 22 A 0.5 0.5 0 0 0 12 22.5 L 17 22.5 C 19.479359 22.5 21.5 20.479359 21.5 18 L 21.5 16 L 21.5 11 C 21.5 5.759214 17.240782 1.5 12 1.5 z M 3.5 11.5 L 6 11.5 C 6.8343494 11.5 7.5 12.165651 7.5 13 L 7.5 16 C 7.5 16.834349 6.8343494 17.5 6 17.5 L 5 17.5 C 4.1656506 17.5 3.5 16.834349 3.5 16 L 3.5 11.5 z M 18 11.5 L 20.5 11.5 L 20.5 16 C 20.5 16.834349 19.834349 17.5 19 17.5 L 18 17.5 C 17.165651 17.5 16.5 16.834349 16.5 16 L 16.5 13 C 16.5 12.165651 17.165651 11.5 18 11.5 z " />
</svg>
