<?xml version="1.0" encoding="UTF-8" standalone="no"?>
<svg
   width="24"
   height="24"
   viewBox="0 0 24 24"
   fill="none"
   stroke="currentColor"
   stroke-width="1"
   stroke-linecap="round"
   stroke-linejoin="round"
   version="1.1"
   id="svg3"
   sodipodi:docname=".tmp_import.svg"
   xmlns:inkscape="http://www.inkscape.org/namespaces/inkscape"
   xmlns:sodipodi="http://sodipodi.sourceforge.net/DTD/sodipodi-0.dtd"
   xmlns="http://www.w3.org/2000/svg"
   xmlns:svg="http://www.w3.org/2000/svg">
  <defs
     id="defs3" />
  <sodipodi:namedview
     id="namedview3"
     pagecolor="#ffffff"
     bordercolor="#000000"
     borderopacity="0.25"
     inkscape:showpageshadow="2"
     inkscape:pageopacity="0.0"
     inkscape:pagecheckerboard="0"
     inkscape:deskcolor="#d1d1d1" />
  <path
     id="path1"
     style="baseline-shift:baseline;display:inline;overflow:visible;vector-effect:none;fill:#000000;stroke:none;stroke-linecap:butt;stroke-linejoin:miter;enable-background:accumulate;stop-color:#000000;stop-opacity:1;opacity:1"
     d="M 12 2.5 A 0.5 0.5 0 0 0 11.5 3 L 11.5 13.792969 L 8.3535156 10.646484 A 0.5 0.5 0 0 0 7.6464844 10.646484 A 0.5 0.5 0 0 0 7.6464844 11.353516 L 11.646484 15.353516 A 0.5 0.5 0 0 0 11.691406 15.392578 A 0.50005 0.50005 0 0 0 11.695312 15.396484 A 0.5 0.5 0 0 0 11.746094 15.429688 A 0.50005 0.50005 0 0 0 11.777344 15.447266 A 0.5 0.5 0 0 0 11.869141 15.482422 A 0.50005 0.50005 0 0 0 11.871094 15.482422 A 0.5 0.5 0 0 0 11.933594 15.496094 A 0.50005 0.50005 0 0 0 11.935547 15.496094 A 0.5 0.5 0 0 0 12 15.5 A 0.5 0.5 0 0 0 12.064453 15.496094 A 0.50005 0.50005 0 0 0 12.066406 15.496094 A 0.50005 0.50005 0 0 0 12.130859 15.482422 A 0.50005 0.50005 0 0 0 12.191406 15.460938 A 0.5 0.5 0 0 0 12.222656 15.447266 A 0.50005 0.50005 0 0 0 12.253906 15.429688 A 0.5 0.5 0 0 0 12.359375 15.347656 L 16.353516 11.353516 A 0.5 0.5 0 0 0 16.353516 10.646484 A 0.5 0.5 0 0 0 15.646484 10.646484 L 12.5 13.792969 L 12.5 3 A 0.5 0.5 0 0 0 12 2.5 z M 4 4.5 C 2.6252104 4.5 1.5 5.6252104 1.5 7 L 1.5 17 C 1.5 18.37479 2.6252104 19.5 4 19.5 L 20 19.5 C 21.37479 19.5 22.5 18.37479 22.5 17 L 22.5 7 C 22.5 5.6252104 21.37479 4.5 20 4.5 L 16 4.5 A 0.5 0.5 0 0 0 15.5 5 A 0.5 0.5 0 0 0 16 5.5 L 20 5.5 C 20.834349 5.5 21.5 6.1656506 21.5 7 L 21.5 17 C 21.5 17.834349 20.834349 18.5 20 18.5 L 4 18.5 C 3.1656506 18.5 2.5 17.834349 2.5 17 L 2.5 7 C 2.5 6.1656506 3.1656506 5.5 4 5.5 L 8 5.5 A 0.5 0.5 0 0 0 8.5 5 A 0.5 0.5 0 0 0 8 4.5 L 4 4.5 z " />
</svg>
