<?xml version="1.0" encoding="UTF-8" standalone="no"?>
<svg
   width="24"
   height="24"
   viewBox="0 0 24 24"
   fill="none"
   stroke="currentColor"
   stroke-width="1"
   stroke-linecap="round"
   stroke-linejoin="round"
   version="1.1"
   id="svg3"
   sodipodi:docname=".tmp_map-pin-x-inside.svg"
   xmlns:inkscape="http://www.inkscape.org/namespaces/inkscape"
   xmlns:sodipodi="http://sodipodi.sourceforge.net/DTD/sodipodi-0.dtd"
   xmlns="http://www.w3.org/2000/svg"
   xmlns:svg="http://www.w3.org/2000/svg">
  <defs
     id="defs3" />
  <sodipodi:namedview
     id="namedview3"
     pagecolor="#ffffff"
     bordercolor="#000000"
     borderopacity="0.25"
     inkscape:showpageshadow="2"
     inkscape:pageopacity="0.0"
     inkscape:pagecheckerboard="0"
     inkscape:deskcolor="#d1d1d1" />
  <path
     id="path1"
     style="baseline-shift:baseline;display:inline;overflow:visible;vector-effect:none;fill:#000000;stroke:none;stroke-linecap:butt;stroke-linejoin:miter;enable-background:accumulate;stop-color:#000000;stop-opacity:1;opacity:1"
     d="M 12 1.5 C 7.3115025 1.5 3.5 5.3114991 3.5 10 C 3.5 12.681392 4.9528935 15.303934 6.6035156 17.472656 C 8.2541378 19.641378 10.126048 21.360731 11.072266 22.177734 A 0.50005 0.50005 0 0 0 11.097656 22.199219 C 11.629807 22.599372 12.370193 22.599372 12.902344 22.199219 A 0.50005 0.50005 0 0 0 12.927734 22.177734 C 13.873952 21.360731 15.745862 19.641378 17.396484 17.472656 C 19.047107 15.303934 20.5 12.681392 20.5 10 C 20.5 5.3114991 16.688497 1.5 12 1.5 z M 12 2.5 C 16.148058 2.5 19.5 5.8519389 19.5 10 C 19.5 12.311608 18.183487 14.78616 16.599609 16.867188 C 15.023052 18.938598 13.210917 20.604865 12.292969 21.398438 C 12.116324 21.526689 11.883676 21.526689 11.707031 21.398438 C 10.789083 20.604865 8.9769477 18.938598 7.4003906 16.867188 C 5.8165128 14.78616 4.5 12.311608 4.5 10 C 4.5 5.8519389 7.8519417 2.5 12 2.5 z M 9.5 7 A 0.5 0.5 0 0 0 9.1464844 7.1464844 A 0.5 0.5 0 0 0 9.1464844 7.8535156 L 11.292969 10 L 9.1464844 12.146484 A 0.5 0.5 0 0 0 9.1464844 12.853516 A 0.5 0.5 0 0 0 9.8535156 12.853516 L 12 10.707031 L 14.146484 12.853516 A 0.5 0.5 0 0 0 14.853516 12.853516 A 0.5 0.5 0 0 0 14.853516 12.146484 L 12.707031 10 L 14.853516 7.8535156 A 0.5 0.5 0 0 0 14.853516 7.1464844 A 0.5 0.5 0 0 0 14.146484 7.1464844 L 12 9.2929688 L 9.8535156 7.1464844 A 0.5 0.5 0 0 0 9.5 7 z " />
</svg>
