<?xml version="1.0" encoding="UTF-8" standalone="no"?>
<svg
   width="24"
   height="24"
   viewBox="0 0 24 24"
   fill="none"
   stroke="currentColor"
   stroke-width="1"
   stroke-linecap="round"
   stroke-linejoin="round"
   version="1.1"
   id="svg4"
   sodipodi:docname=".tmp_maximize-2.svg"
   xmlns:inkscape="http://www.inkscape.org/namespaces/inkscape"
   xmlns:sodipodi="http://sodipodi.sourceforge.net/DTD/sodipodi-0.dtd"
   xmlns="http://www.w3.org/2000/svg"
   xmlns:svg="http://www.w3.org/2000/svg">
  <defs
     id="defs4" />
  <sodipodi:namedview
     id="namedview4"
     pagecolor="#ffffff"
     bordercolor="#000000"
     borderopacity="0.25"
     inkscape:showpageshadow="2"
     inkscape:pageopacity="0.0"
     inkscape:pagecheckerboard="0"
     inkscape:deskcolor="#d1d1d1" />
  <path
     id="path1"
     style="baseline-shift:baseline;display:inline;overflow:visible;vector-effect:none;fill:#000000;stroke:none;stroke-linecap:butt;stroke-linejoin:miter;enable-background:accumulate;stop-color:#000000;stop-opacity:1;opacity:1"
     d="M 15 2.5 A 0.5 0.5 0 0 0 14.5 3 A 0.5 0.5 0 0 0 15 3.5 L 19.792969 3.5 L 13.646484 9.6464844 A 0.5 0.5 0 0 0 13.646484 10.353516 A 0.5 0.5 0 0 0 14.353516 10.353516 L 20.5 4.2070312 L 20.5 9 A 0.5 0.5 0 0 0 21 9.5 A 0.5 0.5 0 0 0 21.5 9 L 21.5 3 A 0.50005 0.50005 0 0 0 21.353516 2.6464844 A 0.5 0.5 0 0 0 21.25 2.5664062 A 0.50005 0.50005 0 0 0 21 2.5 L 15 2.5 z M 10 13.5 A 0.5 0.5 0 0 0 9.6464844 13.646484 L 3.5 19.792969 L 3.5 15 A 0.5 0.5 0 0 0 3 14.5 A 0.5 0.5 0 0 0 2.5 15 L 2.5 21 A 0.5 0.5 0 0 0 2.5175781 21.128906 A 0.50005 0.50005 0 0 0 2.5664062 21.25 A 0.5 0.5 0 0 0 2.6464844 21.353516 A 0.5 0.5 0 0 0 2.75 21.433594 A 0.50005 0.50005 0 0 0 2.8710938 21.482422 A 0.5 0.5 0 0 0 3 21.5 L 9 21.5 A 0.5 0.5 0 0 0 9.5 21 A 0.5 0.5 0 0 0 9 20.5 L 4.2070312 20.5 L 10.353516 14.353516 A 0.5 0.5 0 0 0 10.353516 13.646484 A 0.5 0.5 0 0 0 10 13.5 z " />
</svg>
