<?xml version="1.0" encoding="UTF-8" standalone="no"?>
<svg
   width="24"
   height="24"
   viewBox="0 0 24 24"
   fill="none"
   stroke="currentColor"
   stroke-width="1"
   stroke-linecap="round"
   stroke-linejoin="round"
   version="1.1"
   id="svg4"
   sodipodi:docname=".tmp_monitor-up.svg"
   xmlns:inkscape="http://www.inkscape.org/namespaces/inkscape"
   xmlns:sodipodi="http://sodipodi.sourceforge.net/DTD/sodipodi-0.dtd"
   xmlns="http://www.w3.org/2000/svg"
   xmlns:svg="http://www.w3.org/2000/svg">
  <defs
     id="defs4" />
  <sodipodi:namedview
     id="namedview4"
     pagecolor="#ffffff"
     bordercolor="#000000"
     borderopacity="0.25"
     inkscape:showpageshadow="2"
     inkscape:pageopacity="0.0"
     inkscape:pagecheckerboard="0"
     inkscape:deskcolor="#d1d1d1" />
  <path
     id="path1"
     style="baseline-shift:baseline;display:inline;overflow:visible;vector-effect:none;fill:#000000;stroke:none;stroke-linecap:butt;stroke-linejoin:miter;enable-background:accumulate;stop-color:#000000;stop-opacity:1;opacity:1"
     d="M 4 2.5 C 2.6236486 2.5 1.5 3.6236486 1.5 5 L 1.5 15 C 1.5 16.376351 2.6236486 17.5 4 17.5 L 11.5 17.5 L 11.5 20.5 L 8 20.5 A 0.5 0.5 0 0 0 7.5 21 A 0.5 0.5 0 0 0 8 21.5 L 12 21.5 L 16 21.5 A 0.5 0.5 0 0 0 16.5 21 A 0.5 0.5 0 0 0 16 20.5 L 12.5 20.5 L 12.5 17.5 L 20 17.5 C 21.376351 17.5 22.5 16.376351 22.5 15 L 22.5 5 C 22.5 3.6236486 21.376351 2.5 20 2.5 L 4 2.5 z M 4 3.5 L 20 3.5 C 20.839649 3.5 21.5 4.1603514 21.5 5 L 21.5 15 C 21.5 15.839649 20.839649 16.5 20 16.5 L 4 16.5 C 3.1603514 16.5 2.5 15.839649 2.5 15 L 2.5 5 C 2.5 4.1603514 3.1603514 3.5 4 3.5 z M 12 6.5 A 0.5 0.5 0 0 0 11.933594 6.5039062 A 0.5 0.5 0 0 0 11.869141 6.5175781 A 0.5 0.5 0 0 0 11.777344 6.5527344 A 0.50005 0.50005 0 0 0 11.695312 6.6035156 A 0.5 0.5 0 0 0 11.691406 6.6074219 A 0.50005 0.50005 0 0 0 11.646484 6.6464844 A 0.5 0.5 0 0 0 11.640625 6.6523438 L 8.6464844 9.6464844 A 0.5 0.5 0 0 0 8.6464844 10.353516 A 0.5 0.5 0 0 0 9.3535156 10.353516 L 11.5 8.2070312 L 11.5 13 A 0.5 0.5 0 0 0 12 13.5 A 0.5 0.5 0 0 0 12.5 13 L 12.5 8.2070312 L 14.646484 10.353516 A 0.5 0.5 0 0 0 15.353516 10.353516 A 0.5 0.5 0 0 0 15.353516 9.6464844 L 12.359375 6.6523438 A 0.5 0.5 0 0 0 12.253906 6.5703125 A 0.50005 0.50005 0 0 0 12.222656 6.5527344 A 0.5 0.5 0 0 0 12.191406 6.5390625 A 0.50005 0.50005 0 0 0 12.130859 6.5175781 A 0.5 0.5 0 0 0 12.128906 6.5175781 A 0.50005 0.50005 0 0 0 12.066406 6.5039062 A 0.5 0.5 0 0 0 12.064453 6.5039062 A 0.50005 0.50005 0 0 0 12 6.5 z " />
</svg>
