<?xml version="1.0" encoding="UTF-8" standalone="no"?>
<svg
   width="24"
   height="24"
   viewBox="0 0 24 24"
   fill="none"
   stroke="currentColor"
   stroke-width="1"
   stroke-linecap="round"
   stroke-linejoin="round"
   version="1.1"
   id="svg4"
   sodipodi:docname=".tmp_package-open.svg"
   xmlns:inkscape="http://www.inkscape.org/namespaces/inkscape"
   xmlns:sodipodi="http://sodipodi.sourceforge.net/DTD/sodipodi-0.dtd"
   xmlns="http://www.w3.org/2000/svg"
   xmlns:svg="http://www.w3.org/2000/svg">
  <defs
     id="defs4" />
  <sodipodi:namedview
     id="namedview4"
     pagecolor="#ffffff"
     bordercolor="#000000"
     borderopacity="0.25"
     inkscape:showpageshadow="2"
     inkscape:pageopacity="0.0"
     inkscape:pagecheckerboard="0"
     inkscape:deskcolor="#d1d1d1" />
  <path
     id="path1"
     style="baseline-shift:baseline;display:inline;overflow:visible;vector-effect:none;fill:#000000;stroke:none;stroke-linecap:butt;stroke-linejoin:miter;enable-background:accumulate;stop-color:#000000;stop-opacity:1;opacity:1"
     d="M 8.015625 1.484375 C 7.6498436 1.484375 7.2831555 1.576689 6.9550781 1.7636719 L 2.7539062 4.1347656 C 1.1305448 5.0527378 1.1305449 7.4472622 2.7539062 8.3652344 L 2.9921875 8.5 L 2.7539062 8.6347656 C 1.1305448 9.5527378 1.1305449 11.947262 2.7539062 12.865234 L 3.5 13.287109 L 3.5 16.869141 C 3.4990115 17.824335 4.0313479 18.704029 4.8789062 19.144531 A 0.50005 0.50005 0 0 0 4.8808594 19.144531 L 10.878906 22.224609 C 11.215563 22.399568 11.58386 22.4909 11.953125 22.498047 A 0.5 0.5 0 0 0 12 22.5 A 0.5 0.5 0 0 0 12.046875 22.498047 C 12.416138 22.490898 12.78444 22.399567 13.121094 22.224609 L 19.119141 19.144531 A 0.50005 0.50005 0 0 0 19.121094 19.144531 C 19.968608 18.704029 20.500988 17.824335 20.5 16.869141 L 20.5 13.285156 L 21.246094 12.865234 C 22.869455 11.947262 22.869455 9.5527378 21.246094 8.6347656 L 21.007812 8.5 L 21.246094 8.3652344 C 22.869455 7.4472622 22.869455 5.0527378 21.246094 4.1347656 A 0.50005 0.50005 0 0 0 21.244141 4.1347656 L 17.044922 1.7734375 C 16.716194 1.5896366 16.349517 1.4980469 15.984375 1.4980469 C 15.619233 1.4980469 15.254509 1.5896369 14.925781 1.7734375 A 0.50005 0.50005 0 0 0 14.923828 1.7753906 L 12.007812 3.4199219 L 9.078125 1.765625 C 8.7490643 1.5771816 8.3828324 1.484375 8.015625 1.484375 z M 8.015625 2.484375 C 8.2109234 2.484375 8.4062216 2.5340846 8.5820312 2.6347656 A 0.50005 0.50005 0 0 0 8.5839844 2.6347656 L 10.990234 3.9921875 L 4.0117188 7.9257812 L 3.2460938 7.4941406 C 2.2561218 6.934335 2.2561218 5.565665 3.2460938 5.0058594 L 7.4453125 2.6347656 A 0.50005 0.50005 0 0 0 7.4492188 2.6347656 C 7.6250284 2.5340846 7.8203266 2.484375 8.015625 2.484375 z M 15.986328 2.4980469 C 16.182748 2.4979621 16.379232 2.5472904 16.556641 2.6464844 L 20.753906 5.0058594 C 21.743878 5.565665 21.743878 6.934335 20.753906 7.4941406 L 19.988281 7.9257812 L 13.025391 3.9941406 L 15.414062 2.6464844 L 15.416016 2.6464844 C 15.593553 2.5476295 15.789908 2.4981316 15.986328 2.4980469 z M 12.005859 4.5664062 L 18.970703 8.4980469 L 12.001953 12.425781 L 5.03125 8.5 L 12.005859 4.5664062 z M 4.0117188 9.0742188 L 10.980469 13 L 8.5742188 14.353516 A 0.50005 0.50005 0 0 0 8.5722656 14.355469 C 8.2169147 14.558163 7.7830853 14.558163 7.4277344 14.355469 A 0.50005 0.50005 0 0 0 7.4257812 14.355469 L 3.2460938 11.994141 C 2.2561218 11.434335 2.2561218 10.065665 3.2460938 9.5058594 L 4.0117188 9.0742188 z M 19.988281 9.0742188 L 20.753906 9.5058594 C 21.743878 10.065665 21.743878 11.434335 20.753906 11.994141 L 16.564453 14.353516 A 0.50005 0.50005 0 0 0 16.560547 14.357422 C 16.209446 14.55914 15.780788 14.55914 15.429688 14.357422 A 0.50005 0.50005 0 0 0 15.425781 14.353516 L 13.019531 12.998047 L 19.988281 9.0742188 z M 19.5 13.849609 L 19.5 16.869141 A 0.50005 0.50005 0 0 0 19.5 16.871094 C 19.500604 17.454757 19.178049 17.986695 18.660156 18.255859 L 12.662109 21.335938 A 0.50005 0.50005 0 0 0 12.660156 21.335938 C 12.607936 21.363076 12.554413 21.38596 12.5 21.40625 L 12.5 13.855469 L 14.935547 15.226562 L 14.931641 15.222656 C 15.589846 15.600817 16.400388 15.600817 17.058594 15.222656 L 17.054688 15.226562 L 19.5 13.849609 z M 4.5 13.851562 L 6.9316406 15.224609 C 7.5914771 15.600983 8.4040303 15.601434 9.0644531 15.226562 L 9.0683594 15.224609 L 11.5 13.855469 L 11.5 21.40625 C 11.445554 21.385953 11.392094 21.363092 11.339844 21.335938 A 0.50005 0.50005 0 0 0 11.337891 21.335938 L 5.3398438 18.255859 C 4.8219509 17.986695 4.499396 17.454757 4.5 16.871094 A 0.50005 0.50005 0 0 0 4.5 16.869141 L 4.5 13.851562 z " />
</svg>
