<?xml version="1.0" encoding="UTF-8" standalone="no"?>
<svg
   width="24"
   height="24"
   viewBox="0 0 24 24"
   fill="none"
   stroke="currentColor"
   stroke-width="1"
   stroke-linecap="round"
   stroke-linejoin="round"
   version="1.1"
   id="svg2"
   sodipodi:docname=".tmp_parentheses.svg"
   xmlns:inkscape="http://www.inkscape.org/namespaces/inkscape"
   xmlns:sodipodi="http://sodipodi.sourceforge.net/DTD/sodipodi-0.dtd"
   xmlns="http://www.w3.org/2000/svg"
   xmlns:svg="http://www.w3.org/2000/svg">
  <defs
     id="defs2" />
  <sodipodi:namedview
     id="namedview2"
     pagecolor="#ffffff"
     bordercolor="#000000"
     borderopacity="0.25"
     inkscape:showpageshadow="2"
     inkscape:pageopacity="0.0"
     inkscape:pagecheckerboard="0"
     inkscape:deskcolor="#d1d1d1" />
  <path
     id="path1"
     style="baseline-shift:baseline;display:inline;overflow:visible;vector-effect:none;fill:#000000;stroke:none;stroke-linecap:butt;stroke-linejoin:miter;enable-background:accumulate;stop-color:#000000;stop-opacity:1;opacity:1"
     d="M 8.0058594 2.4980469 A 0.5 0.5 0 0 0 7.6992188 2.5996094 C 7.6992188 2.5996094 3.5 5.7777778 3.5 12 C 3.5 18.222222 7.6992188 21.400391 7.6992188 21.400391 A 0.5 0.5 0 0 0 8.4003906 21.300781 A 0.5 0.5 0 0 0 8.3007812 20.599609 C 8.300781 20.599609 4.5 17.777778 4.5 12 C 4.5 6.2222222 8.3007812 3.4003906 8.3007812 3.4003906 A 0.5 0.5 0 0 0 8.4003906 2.6992188 A 0.5 0.5 0 0 0 8.0058594 2.4980469 z M 15.994141 2.5 A 0.5 0.5 0 0 0 15.929688 2.5058594 A 0.5 0.5 0 0 0 15.599609 2.6992188 A 0.5 0.5 0 0 0 15.699219 3.4003906 C 15.699219 3.4003906 19.5 6.2222222 19.5 12 C 19.5 17.777778 15.699219 20.599609 15.699219 20.599609 A 0.5 0.5 0 0 0 15.599609 21.300781 A 0.5 0.5 0 0 0 16.300781 21.400391 C 16.300781 21.400391 20.5 18.222222 20.5 12 C 20.5 5.7777778 16.300781 2.5996094 16.300781 2.5996094 A 0.5 0.5 0 0 0 15.994141 2.5 z " />
</svg>
