<?xml version="1.0" encoding="UTF-8" standalone="no"?>
<svg
   width="24"
   height="24"
   viewBox="0 0 24 24"
   fill="none"
   stroke="currentColor"
   stroke-width="1"
   stroke-linecap="round"
   stroke-linejoin="round"
   version="1.1"
   id="svg3"
   sodipodi:docname=".tmp_sailboat.svg"
   xmlns:inkscape="http://www.inkscape.org/namespaces/inkscape"
   xmlns:sodipodi="http://sodipodi.sourceforge.net/DTD/sodipodi-0.dtd"
   xmlns="http://www.w3.org/2000/svg"
   xmlns:svg="http://www.w3.org/2000/svg">
  <defs
     id="defs3" />
  <sodipodi:namedview
     id="namedview3"
     pagecolor="#ffffff"
     bordercolor="#000000"
     borderopacity="0.25"
     inkscape:showpageshadow="2"
     inkscape:pageopacity="0.0"
     inkscape:pagecheckerboard="0"
     inkscape:deskcolor="#d1d1d1" />
  <path
     id="path1"
     style="baseline-shift:baseline;display:inline;overflow:visible;vector-effect:none;fill:#000000;stroke:none;stroke-linecap:butt;stroke-linejoin:miter;enable-background:accumulate;stop-color:#000000;stop-opacity:1;opacity:1"
     d="M 10 1.5 A 0.5 0.5 0 0 0 9.9082031 1.5078125 C 9.8761247 1.5098508 9.8443866 1.513532 9.8125 1.5175781 C 9.3892287 1.5712871 8.98792 1.8008843 8.7382812 2.1894531 L 2.7636719 11.150391 C 2.0948677 12.122006 2.8204513 13.500333 4 13.5 L 9.5 13.5 L 9.5 16.5 L 4 16.5 C 3.1774952 16.5 2.5 17.177495 2.5 18 C 2.5 20.479359 4.5206409 22.5 7 22.5 L 17 22.5 C 19.479359 22.5 21.5 20.479359 21.5 18 C 21.5 17.177495 20.822505 16.5 20 16.5 L 10.5 16.5 L 10.5 13.5 L 20 13.5 C 20.668149 13.499319 21.203214 13.063871 21.404297 12.527344 C 21.60538 11.990816 21.489447 11.310749 20.986328 10.871094 L 11.019531 1.9003906 C 10.753302 1.6537065 10.421266 1.5254904 10.085938 1.5078125 A 0.5 0.5 0 0 0 10 1.5 z M 10.5 2.7773438 L 20.322266 11.619141 A 0.50005 0.50005 0 0 0 20.328125 11.623047 C 20.520163 11.790862 20.537208 11.987912 20.466797 12.175781 C 20.396304 12.363657 20.25503 12.49974 20 12.5 L 10.5 12.5 L 10.5 2.7773438 z M 9.5 2.8496094 L 9.5 12.5 L 4 12.5 C 3.5684127 12.500122 3.3431806 12.072303 3.5878906 11.716797 A 0.50005 0.50005 0 0 0 3.5917969 11.710938 L 9.5 2.8496094 z M 4 17.5 L 20 17.5 C 20.282065 17.5 20.5 17.717935 20.5 18 C 20.5 19.938919 18.938919 21.5 17 21.5 L 7 21.5 C 5.0610811 21.5 3.5 19.938919 3.5 18 C 3.5 17.717935 3.7179353 17.5 4 17.5 z " />
</svg>
