<?xml version="1.0" encoding="UTF-8" standalone="no"?>
<svg
   width="24"
   height="24"
   viewBox="0 0 24 24"
   fill="none"
   stroke="currentColor"
   stroke-width="1"
   stroke-linecap="round"
   stroke-linejoin="round"
   version="1.1"
   id="svg4"
   sodipodi:docname=".tmp_saudi-riyal.svg"
   xmlns:inkscape="http://www.inkscape.org/namespaces/inkscape"
   xmlns:sodipodi="http://sodipodi.sourceforge.net/DTD/sodipodi-0.dtd"
   xmlns="http://www.w3.org/2000/svg"
   xmlns:svg="http://www.w3.org/2000/svg">
  <defs
     id="defs4" />
  <sodipodi:namedview
     id="namedview4"
     pagecolor="#ffffff"
     bordercolor="#000000"
     borderopacity="0.25"
     inkscape:showpageshadow="2"
     inkscape:pageopacity="0.0"
     inkscape:pagecheckerboard="0"
     inkscape:deskcolor="#d1d1d1" />
  <path
     id="path1"
     style="baseline-shift:baseline;display:inline;overflow:visible;vector-effect:none;fill:#000000;stroke:none;stroke-linecap:butt;stroke-linejoin:miter;enable-background:accumulate;stop-color:#000000;stop-opacity:1;opacity:1"
     d="M 10 1.5 A 0.5 0.5 0 0 0 9.5 2 L 9.5 11.785156 L 3.8925781 13.011719 A 0.5 0.5 0 0 0 3.5117188 13.607422 A 0.5 0.5 0 0 0 4.1074219 13.988281 L 9.5 12.808594 L 9.5 16 A 0.50005 0.50005 0 0 0 9.5 16.013672 C 9.520307 16.708233 9.0665103 17.322355 8.3964844 17.505859 L 8.3945312 17.505859 L 2.859375 18.865234 A 0.5 0.5 0 0 0 2.4921875 19.470703 A 0.5 0.5 0 0 0 3.0976562 19.835938 L 8.6464844 18.472656 A 0.50005 0.50005 0 0 0 8.6582031 18.470703 C 9.7696064 18.167695 10.533666 17.137817 10.5 15.986328 L 10.5 12.589844 L 14 11.824219 L 14 15.220703 C 14.000266 16.184046 14.928573 16.90891 15.863281 16.675781 L 20.113281 15.6875 A 0.5 0.5 0 0 0 20.486328 15.085938 A 0.5 0.5 0 0 0 19.886719 14.712891 L 15.628906 15.703125 A 0.50005 0.50005 0 0 0 15.621094 15.705078 C 15.293986 15.786613 15.000093 15.557819 15 15.220703 L 15 11.605469 L 20.107422 10.488281 A 0.5 0.5 0 0 0 20.488281 9.8925781 A 0.5 0.5 0 0 0 19.892578 9.5117188 L 15 10.582031 L 15 4 A 0.5 0.5 0 0 0 14.5 3.5 A 0.5 0.5 0 0 0 14 4 L 14 10.800781 L 10.5 11.566406 L 10.5 2 A 0.5 0.5 0 0 0 10 1.5 z M 20.023438 19 A 0.5 0.5 0 0 0 19.892578 19.011719 L 14.392578 20.210938 A 0.5 0.5 0 0 0 14.011719 20.806641 A 0.5 0.5 0 0 0 14.607422 21.189453 L 20.107422 19.988281 A 0.5 0.5 0 0 0 20.488281 19.392578 A 0.5 0.5 0 0 0 20.023438 19 z " />
</svg>
