<?xml version="1.0" encoding="UTF-8" standalone="no"?>
<svg
   width="24"
   height="24"
   viewBox="0 0 24 24"
   fill="none"
   stroke="currentColor"
   stroke-width="1"
   stroke-linecap="round"
   stroke-linejoin="round"
   version="1.1"
   id="svg1"
   sodipodi:docname=".tmp_shirt.svg"
   xmlns:inkscape="http://www.inkscape.org/namespaces/inkscape"
   xmlns:sodipodi="http://sodipodi.sourceforge.net/DTD/sodipodi-0.dtd"
   xmlns="http://www.w3.org/2000/svg"
   xmlns:svg="http://www.w3.org/2000/svg">
  <defs
     id="defs1" />
  <sodipodi:namedview
     id="namedview1"
     pagecolor="#ffffff"
     bordercolor="#000000"
     borderopacity="0.25"
     inkscape:showpageshadow="2"
     inkscape:pageopacity="0.0"
     inkscape:pagecheckerboard="0"
     inkscape:deskcolor="#d1d1d1" />
  <path
     id="path1"
     style="baseline-shift:baseline;display:inline;overflow:visible;vector-effect:none;fill:#000000;stroke:none;stroke-linecap:butt;stroke-linejoin:miter;enable-background:accumulate;stop-color:#000000;stop-opacity:1;opacity:1"
     d="M 7.9746094 1.5 A 0.50005 0.50005 0 0 0 7.8417969 1.5253906 L 3.4609375 2.9863281 C 2.2969134 3.3749701 1.5840564 4.5612504 1.7871094 5.7714844 L 2.3671875 9.2421875 C 2.4852548 9.9650993 3.1171331 10.50116 3.8496094 10.5 L 5.5 10.5 L 5.5 20 C 5.5 21.372727 6.6272727 22.5 8 22.5 L 16 22.5 C 17.37479 22.5 18.5 21.37479 18.5 20 L 18.5 10.5 L 20.150391 10.5 C 20.882867 10.5012 21.514746 9.9650993 21.632812 9.2421875 L 21.632812 9.2402344 L 22.212891 5.7734375 C 22.417071 4.5625067 21.703732 3.3751853 20.539062 2.9863281 L 20.537109 2.9863281 L 16.158203 1.5253906 A 0.50005 0.50005 0 0 0 15.5 2 C 15.5 3.2083327 15.064878 4.0519231 14.417969 4.6269531 C 13.77106 5.2019831 12.888889 5.5 12 5.5 C 11.111111 5.5 10.22894 5.2019831 9.5820312 4.6269531 C 8.9351221 4.0519231 8.5 3.2083327 8.5 2 A 0.50005 0.50005 0 0 0 7.9746094 1.5 z M 7.6289062 2.6503906 C 7.7794655 3.779484 8.2071692 4.7412254 8.9179688 5.3730469 C 9.7710596 6.1313496 10.888889 6.5 12 6.5 C 13.111111 6.5 14.22894 6.1313496 15.082031 5.3730469 C 15.792831 4.7412254 16.220534 3.779484 16.371094 2.6503906 L 20.222656 3.9335938 C 20.927409 4.1683897 21.350072 4.8749258 21.226562 5.6074219 L 20.646484 9.078125 A 0.50005 0.50005 0 0 0 20.646484 9.0800781 C 20.606593 9.3261992 20.401673 9.5007186 20.152344 9.5 A 0.50005 0.50005 0 0 0 20.150391 9.5 L 18 9.5 A 0.50005 0.50005 0 0 0 17.5 10 L 17.5 20 C 17.5 20.834349 16.834349 21.5 16 21.5 L 8 21.5 C 7.1727273 21.5 6.5 20.827273 6.5 20 L 6.5 10 A 0.50005 0.50005 0 0 0 6 9.5 L 3.8496094 9.5 A 0.50005 0.50005 0 0 0 3.8476562 9.5 C 3.5983243 9.5007186 3.3934074 9.3261961 3.3535156 9.0800781 A 0.50005 0.50005 0 0 0 3.3535156 9.078125 L 2.7734375 5.6074219 C 2.6499279 4.8749258 3.0725913 4.1683898 3.7773438 3.9335938 L 7.6289062 2.6503906 z " />
</svg>
