<?xml version="1.0" encoding="UTF-8" standalone="no"?>
<svg
   width="24"
   height="24"
   viewBox="0 0 24 24"
   fill="none"
   stroke="currentColor"
   stroke-width="1"
   stroke-linecap="round"
   stroke-linejoin="round"
   version="1.1"
   id="svg3"
   sodipodi:docname=".tmp_sword.svg"
   xmlns:inkscape="http://www.inkscape.org/namespaces/inkscape"
   xmlns:sodipodi="http://sodipodi.sourceforge.net/DTD/sodipodi-0.dtd"
   xmlns="http://www.w3.org/2000/svg"
   xmlns:svg="http://www.w3.org/2000/svg">
  <defs
     id="defs3" />
  <sodipodi:namedview
     id="namedview3"
     pagecolor="#ffffff"
     bordercolor="#000000"
     borderopacity="0.25"
     inkscape:showpageshadow="2"
     inkscape:pageopacity="0.0"
     inkscape:pagecheckerboard="0"
     inkscape:deskcolor="#d1d1d1" />
  <path
     id="polyline1"
     style="baseline-shift:baseline;display:inline;overflow:visible;vector-effect:none;fill:#000000;stroke:none;stroke-linecap:butt;stroke-linejoin:miter;enable-background:accumulate;stop-color:#000000;stop-opacity:1;opacity:1"
     d="M 3 2.5 A 0.50005 0.50005 0 0 0 2.5 3 L 2.5 6 A 0.50005 0.50005 0 0 0 2.6464844 6.3535156 L 13.792969 17.5 L 12.646484 18.646484 A 0.5 0.5 0 0 0 12.646484 19.353516 A 0.5 0.5 0 0 0 13.353516 19.353516 L 16 16.707031 L 19.292969 20 L 18.646484 20.646484 A 0.5 0.5 0 0 0 18.646484 21.353516 A 0.5 0.5 0 0 0 19.353516 21.353516 L 20.353516 20.353516 L 21.353516 19.353516 A 0.5 0.5 0 0 0 21.353516 18.646484 A 0.5 0.5 0 0 0 20.646484 18.646484 L 20 19.292969 L 16.707031 16 L 19.353516 13.353516 A 0.5 0.5 0 0 0 19.353516 12.646484 A 0.5 0.5 0 0 0 18.646484 12.646484 L 17.5 13.792969 L 6.3535156 2.6464844 A 0.50005 0.50005 0 0 0 6 2.5 L 3 2.5 z M 3.5 3.5 L 5.7929688 3.5 L 16.792969 14.5 L 14.5 16.792969 L 3.5 5.7929688 L 3.5 3.5 z " />
</svg>
