<?xml version="1.0" encoding="UTF-8" standalone="no"?>
<svg
   width="24"
   height="24"
   viewBox="0 0 24 24"
   fill="none"
   stroke="currentColor"
   stroke-width="1"
   stroke-linecap="round"
   stroke-linejoin="round"
   version="1.1"
   id="svg2"
   sodipodi:docname=".tmp_thumbs-up.svg"
   xmlns:inkscape="http://www.inkscape.org/namespaces/inkscape"
   xmlns:sodipodi="http://sodipodi.sourceforge.net/DTD/sodipodi-0.dtd"
   xmlns="http://www.w3.org/2000/svg"
   xmlns:svg="http://www.w3.org/2000/svg">
  <defs
     id="defs2" />
  <sodipodi:namedview
     id="namedview2"
     pagecolor="#ffffff"
     bordercolor="#000000"
     borderopacity="0.25"
     inkscape:showpageshadow="2"
     inkscape:pageopacity="0.0"
     inkscape:pagecheckerboard="0"
     inkscape:deskcolor="#d1d1d1" />
  <path
     id="path1"
     style="baseline-shift:baseline;display:inline;overflow:visible;vector-effect:none;fill:#000000;stroke:none;stroke-linecap:butt;stroke-linejoin:miter;enable-background:accumulate;stop-color:#000000;stop-opacity:1;opacity:1"
     d="M 12.005859 1.5 A 0.50005 0.50005 0 0 0 11.552734 1.7753906 L 8.1035156 8.6660156 A 0.50005 0.50005 0 0 0 8.1015625 8.6679688 C 7.8477878 9.1786691 7.3300389 9.4996974 6.7597656 9.5 L 4 9.5 C 2.6252104 9.5 1.5 10.62521 1.5 12 L 1.5 20 C 1.5 21.37479 2.6252104 22.5 4 22.5 L 7 22.5 L 17.5 22.5 C 18.608889 22.5 19.589902 21.763752 19.900391 20.699219 L 22.230469 12.699219 C 22.693402 11.112019 21.483411 9.5 19.830078 9.5 L 14.636719 9.5 L 15.486328 6 C 16.044127 3.7407023 14.332818 1.5288151 12.005859 1.5 z M 12.275391 2.5683594 C 13.820362 2.7595735 14.898007 4.2030641 14.513672 5.7597656 A 0.50005 0.50005 0 0 0 14.513672 5.7617188 L 13.513672 9.8828125 A 0.50005 0.50005 0 0 0 14 10.5 L 19.830078 10.5 C 20.843411 10.5 21.553265 11.447122 21.269531 12.419922 L 18.939453 20.419922 C 18.752164 21.062055 18.168889 21.5 17.5 21.5 L 7.5 21.5 L 7.5 10.386719 C 8.1423855 10.187121 8.6897535 9.7336997 8.9980469 9.1132812 L 12.275391 2.5683594 z M 4 10.5 L 6.5 10.5 L 6.5 21.5 L 4 21.5 C 3.1656506 21.5 2.5 20.834349 2.5 20 L 2.5 12 C 2.5 11.165651 3.1656506 10.5 4 10.5 z " />
</svg>
