<?xml version="1.0" encoding="UTF-8" standalone="no"?>
<svg
   width="24"
   height="24"
   viewBox="0 0 24 24"
   fill="none"
   stroke="currentColor"
   stroke-width="1"
   stroke-linecap="round"
   stroke-linejoin="round"
   version="1.1"
   id="svg2"
   sodipodi:docname=".tmp_toilet.svg"
   xmlns:inkscape="http://www.inkscape.org/namespaces/inkscape"
   xmlns:sodipodi="http://sodipodi.sourceforge.net/DTD/sodipodi-0.dtd"
   xmlns="http://www.w3.org/2000/svg"
   xmlns:svg="http://www.w3.org/2000/svg">
  <defs
     id="defs2" />
  <sodipodi:namedview
     id="namedview2"
     pagecolor="#ffffff"
     bordercolor="#000000"
     borderopacity="0.25"
     inkscape:showpageshadow="2"
     inkscape:pageopacity="0.0"
     inkscape:pagecheckerboard="0"
     inkscape:deskcolor="#d1d1d1" />
  <path
     id="path1"
     style="baseline-shift:baseline;display:inline;overflow:visible;vector-effect:none;fill:#000000;stroke:none;stroke-linecap:butt;stroke-linejoin:miter;enable-background:accumulate;stop-color:#000000;stop-opacity:1;opacity:1"
     d="M 5 1.5 C 3.6252104 1.5 2.5 2.6252104 2.5 4 L 2.5 13 C 2.5 15.428253 4.0832729 17.496104 6.2714844 18.222656 L 4.5546875 20.970703 C 4.1522193 21.61465 4.6429699 22.500002 5.4023438 22.5 L 16.097656 22.5 C 16.85703 22.500002 17.347781 21.61465 16.945312 20.970703 L 15.402344 18.5 L 16 18.5 C 19.031644 18.5 21.5 16.031644 21.5 13 C 21.5 12.177495 20.822505 11.5 20 11.5 L 15.5 11.5 L 15.5 4 C 15.5 2.6252104 14.37479 1.5 13 1.5 L 5 1.5 z M 5 2.5 L 13 2.5 C 13.834349 2.5 14.5 3.1656506 14.5 4 L 14.5 11.5 L 7 11.5 A 0.5 0.5 0 0 0 6.5 12 A 0.5 0.5 0 0 0 7 12.5 L 15 12.5 L 20 12.5 C 20.282065 12.5 20.5 12.717935 20.5 13 C 20.5 15.491204 18.491204 17.5 16 17.5 L 15.402344 17.5 C 14.64297 17.499998 14.152219 18.38535 14.554688 19.029297 L 16.097656 21.5 L 5.4023438 21.5 L 7.3046875 18.457031 C 7.5324598 18.485918 7.7645393 18.5 8 18.5 A 0.5 0.5 0 0 0 8.5 18 A 0.5 0.5 0 0 0 8 17.5 C 5.5087963 17.5 3.5 15.491204 3.5 13 L 3.5 4 C 3.5 3.1656506 4.1656506 2.5 5 2.5 z " />
</svg>
