<?xml version="1.0" encoding="UTF-8" standalone="no"?>
<svg
   width="24"
   height="24"
   viewBox="0 0 24 24"
   fill="none"
   stroke="currentColor"
   stroke-width="1"
   stroke-linecap="round"
   stroke-linejoin="round"
   version="1.1"
   id="svg1"
   sodipodi:docname=".tmp_triangle-right.svg"
   xmlns:inkscape="http://www.inkscape.org/namespaces/inkscape"
   xmlns:sodipodi="http://sodipodi.sourceforge.net/DTD/sodipodi-0.dtd"
   xmlns="http://www.w3.org/2000/svg"
   xmlns:svg="http://www.w3.org/2000/svg">
  <defs
     id="defs1" />
  <sodipodi:namedview
     id="namedview1"
     pagecolor="#ffffff"
     bordercolor="#000000"
     borderopacity="0.25"
     inkscape:showpageshadow="2"
     inkscape:pageopacity="0.0"
     inkscape:pagecheckerboard="0"
     inkscape:deskcolor="#d1d1d1" />
  <path
     id="path1"
     style="baseline-shift:baseline;display:inline;overflow:visible;vector-effect:none;fill:#000000;stroke:none;stroke-linecap:butt;stroke-linejoin:miter;enable-background:accumulate;stop-color:#000000;stop-opacity:1;opacity:1"
     d="M 21.224609 3.421875 C 21.120645 3.426026 21.016562 3.4426065 20.912109 3.4707031 C 20.63357 3.5456274 20.357206 3.7013401 20.09375 3.90625 A 0.50005 0.50005 0 0 0 20.085938 3.9121094 L 2.2929688 18.304688 C 2.033561 18.506449 1.8344277 18.711191 1.6972656 18.945312 C 1.5601035 19.179434 1.4814166 19.475983 1.5722656 19.763672 C 1.6631146 20.051361 1.9034268 20.250533 2.1523438 20.355469 C 2.4012606 20.460404 2.6795455 20.5 3 20.5 L 20 20.5 C 21.37479 20.5 22.5 19.37479 22.5 18 L 22.5 5 C 22.5 4.3439394 22.268769 3.747121 21.736328 3.515625 C 21.569941 3.4432825 21.397883 3.4149567 21.224609 3.421875 z M 21.273438 4.4257812 C 21.305382 4.424597 21.327279 4.42898 21.337891 4.4335938 C 21.38045 4.4520978 21.5 4.5560606 21.5 5 L 21.5 18 C 21.5 18.834349 20.834349 19.5 20 19.5 L 3 19.5 C 2.7850921 19.5 2.646326 19.467633 2.5703125 19.439453 C 2.6173575 19.363033 2.7219919 19.237062 2.90625 19.09375 A 0.50005 0.50005 0 0 0 2.9140625 19.087891 L 20.708984 4.6953125 C 20.987439 4.479439 21.177605 4.429334 21.273438 4.4257812 z " />
</svg>
