<?xml version="1.0" encoding="UTF-8" standalone="no"?>
<svg
   width="24"
   height="24"
   viewBox="0 0 24 24"
   fill="none"
   stroke="currentColor"
   stroke-width="1"
   stroke-linecap="round"
   stroke-linejoin="round"
   version="1.1"
   id="svg3"
   sodipodi:docname=".tmp_users.svg"
   xmlns:inkscape="http://www.inkscape.org/namespaces/inkscape"
   xmlns:sodipodi="http://sodipodi.sourceforge.net/DTD/sodipodi-0.dtd"
   xmlns="http://www.w3.org/2000/svg"
   xmlns:svg="http://www.w3.org/2000/svg">
  <defs
     id="defs3" />
  <sodipodi:namedview
     id="namedview3"
     pagecolor="#ffffff"
     bordercolor="#000000"
     borderopacity="0.25"
     inkscape:showpageshadow="2"
     inkscape:pageopacity="0.0"
     inkscape:pagecheckerboard="0"
     inkscape:deskcolor="#d1d1d1" />
  <path
     id="path1"
     style="baseline-shift:baseline;display:inline;overflow:visible;vector-effect:none;fill:#000000;stroke:none;stroke-linecap:butt;stroke-linejoin:miter;enable-background:accumulate;stop-color:#000000;stop-opacity:1;opacity:1"
     d="M 9 2.5 C 6.5206409 2.5 4.5 4.5206409 4.5 7 C 4.5 9.4793591 6.5206409 11.5 9 11.5 C 11.479359 11.5 13.5 9.4793591 13.5 7 C 13.5 4.5206409 11.479359 2.5 9 2.5 z M 15.996094 2.6289062 A 0.5 0.5 0 0 0 15.515625 3.0019531 A 0.5 0.5 0 0 0 15.875 3.6113281 C 17.657806 4.0735134 18.496094 5.5214237 18.496094 7 C 18.496094 8.4785763 17.657806 9.9264865 15.875 10.388672 A 0.5 0.5 0 0 0 15.515625 10.998047 A 0.5 0.5 0 0 0 16.125 11.355469 C 18.337126 10.781984 19.496094 8.8755884 19.496094 7 C 19.496094 5.1244116 18.337126 3.2180163 16.125 2.6445312 A 0.5 0.5 0 0 0 15.996094 2.6289062 z M 9 3.5 C 10.938919 3.5 12.5 5.0610811 12.5 7 C 12.5 8.9389189 10.938919 10.5 9 10.5 C 7.0610811 10.5 5.5 8.9389189 5.5 7 C 5.5 5.0610811 7.0610811 3.5 9 3.5 z M 6 14.5 C 3.5206409 14.5 1.5 16.520641 1.5 19 L 1.5 21 A 0.5 0.5 0 0 0 2 21.5 A 0.5 0.5 0 0 0 2.5 21 L 2.5 19 C 2.5 17.061081 4.0610811 15.5 6 15.5 L 12 15.5 C 13.938919 15.5 15.5 17.061081 15.5 19 L 15.5 21 A 0.5 0.5 0 0 0 16 21.5 A 0.5 0.5 0 0 0 16.5 21 L 16.5 19 C 16.5 16.520641 14.479359 14.5 12 14.5 L 6 14.5 z M 18.996094 14.630859 A 0.5 0.5 0 0 0 18.515625 15.005859 A 0.5 0.5 0 0 0 18.875 15.613281 C 20.421788 16.01266 21.498808 17.402485 21.5 19 L 21.5 21 A 0.5 0.5 0 0 0 22 21.5 A 0.5 0.5 0 0 0 22.5 21 L 22.5 19 C 22.4985 16.951751 21.10821 15.158546 19.125 14.646484 A 0.5 0.5 0 0 0 18.996094 14.630859 z " />
</svg>
