<?xml version="1.0" encoding="UTF-8" standalone="no"?>
<svg
   width="24"
   height="24"
   viewBox="0 0 24 24"
   fill="none"
   stroke="currentColor"
   stroke-width="1"
   stroke-linecap="round"
   stroke-linejoin="round"
   version="1.1"
   id="svg2"
   sodipodi:docname=".tmp_align-horizontal-justify-start.svg"
   xmlns:inkscape="http://www.inkscape.org/namespaces/inkscape"
   xmlns:sodipodi="http://sodipodi.sourceforge.net/DTD/sodipodi-0.dtd"
   xmlns="http://www.w3.org/2000/svg"
   xmlns:svg="http://www.w3.org/2000/svg">
  <defs
     id="defs2" />
  <sodipodi:namedview
     id="namedview2"
     pagecolor="#ffffff"
     bordercolor="#000000"
     borderopacity="0.25"
     inkscape:showpageshadow="2"
     inkscape:pageopacity="0.0"
     inkscape:pagecheckerboard="0"
     inkscape:deskcolor="#d1d1d1" />
  <path
     id="rect1"
     style="baseline-shift:baseline;display:inline;overflow:visible;vector-effect:none;fill:#000000;stroke:none;stroke-linecap:butt;stroke-linejoin:miter;enable-background:accumulate;stop-color:#000000;stop-opacity:1;opacity:1"
     d="M 2 1.5 A 0.5 0.5 0 0 0 1.5 2 L 1.5 22 A 0.5 0.5 0 0 0 2 22.5 A 0.5 0.5 0 0 0 2.5 22 L 2.5 2 A 0.5 0.5 0 0 0 2 1.5 z M 8 4.5 C 6.6236486 4.5 5.5 5.6236486 5.5 7 L 5.5 17 C 5.5 18.376351 6.6236486 19.5 8 19.5 L 10 19.5 C 11.376351 19.5 12.5 18.376351 12.5 17 L 12.5 7 C 12.5 5.6236486 11.376351 4.5 10 4.5 L 8 4.5 z M 8 5.5 L 10 5.5 C 10.839649 5.5 11.5 6.1603514 11.5 7 L 11.5 17 C 11.5 17.839649 10.839649 18.5 10 18.5 L 8 18.5 C 7.1603514 18.5 6.5 17.839649 6.5 17 L 6.5 7 C 6.5 6.1603514 7.1603514 5.5 8 5.5 z M 18 6.5 C 16.623649 6.5 15.5 7.6236486 15.5 9 L 15.5 15 C 15.5 16.376351 16.623649 17.5 18 17.5 L 20 17.5 C 21.376351 17.5 22.5 16.376351 22.5 15 L 22.5 9 C 22.5 7.6236486 21.376351 6.5 20 6.5 L 18 6.5 z M 18 7.5 L 20 7.5 C 20.839649 7.5 21.5 8.1603514 21.5 9 L 21.5 15 C 21.5 15.839649 20.839649 16.5 20 16.5 L 18 16.5 C 17.160351 16.5 16.5 15.839649 16.5 15 L 16.5 9 C 16.5 8.1603514 17.160351 7.5 18 7.5 z " />
</svg>
