<?xml version="1.0" encoding="UTF-8" standalone="no"?>
<svg
   width="24"
   height="24"
   viewBox="0 0 24 24"
   fill="none"
   stroke="currentColor"
   stroke-width="1"
   stroke-linecap="round"
   stroke-linejoin="round"
   version="1.1"
   id="svg2"
   sodipodi:docname=".tmp_arrow-big-right-dash.svg"
   xmlns:inkscape="http://www.inkscape.org/namespaces/inkscape"
   xmlns:sodipodi="http://sodipodi.sourceforge.net/DTD/sodipodi-0.dtd"
   xmlns="http://www.w3.org/2000/svg"
   xmlns:svg="http://www.w3.org/2000/svg">
  <defs
     id="defs2" />
  <sodipodi:namedview
     id="namedview2"
     pagecolor="#ffffff"
     bordercolor="#000000"
     borderopacity="0.25"
     inkscape:showpageshadow="2"
     inkscape:pageopacity="0.0"
     inkscape:pagecheckerboard="0"
     inkscape:deskcolor="#d1d1d1" />
  <path
     id="path1"
     style="baseline-shift:baseline;display:inline;overflow:visible;vector-effect:none;fill:#000000;stroke:none;stroke-linecap:butt;stroke-linejoin:miter;enable-background:accumulate;stop-color:#000000;stop-opacity:1;opacity:1"
     d="M 13.005859 3.3730469 C 12.798641 3.369364 12.593036 3.4078287 12.408203 3.484375 C 11.83115 3.7233533 11.383818 4.3650527 11.5 5.1015625 L 11.5 8 C 11.5 8.2820647 11.282065 8.5 11 8.5 L 9 8.5 C 8.1774952 8.5 7.5 9.1774952 7.5 10 L 7.5 14 C 7.5 14.822505 8.1774952 15.5 9 15.5 L 11 15.5 C 11.282065 15.5 11.5 15.717935 11.5 16 L 11.5 18.898438 C 11.383939 19.634857 11.831206 20.27667 12.408203 20.515625 C 12.987664 20.755601 13.761576 20.617228 14.199219 20.007812 L 21 13.207031 C 21.662478 12.544587 21.662478 11.455413 21 10.792969 L 14.199219 3.9921875 C 13.984918 3.693866 13.690279 3.509633 13.376953 3.4257812 C 13.254483 3.3930059 13.130191 3.3752566 13.005859 3.3730469 z M 12.990234 4.3574219 C 13.13509 4.3485656 13.275028 4.4094495 13.396484 4.5898438 A 0.50005 0.50005 0 0 0 13.457031 4.6640625 L 20.292969 11.5 C 20.573275 11.780292 20.573275 12.219708 20.292969 12.5 L 13.457031 19.335938 A 0.50005 0.50005 0 0 0 13.396484 19.410156 C 13.21982 19.672548 13.005024 19.680426 12.791016 19.591797 C 12.577007 19.503167 12.429657 19.345624 12.490234 19.035156 A 0.50005 0.50005 0 0 0 12.5 18.939453 L 12.5 16 C 12.5 15.177495 11.822505 14.5 11 14.5 L 9 14.5 C 8.7179353 14.5 8.5 14.282065 8.5 14 L 8.5 10 C 8.5 9.7179353 8.7179353 9.5 9 9.5 L 11 9.5 C 11.822505 9.5 12.5 8.8225048 12.5 8 L 12.5 5.0605469 A 0.50005 0.50005 0 0 0 12.490234 4.9648438 C 12.429654 4.6543763 12.577004 4.4968318 12.791016 4.4082031 C 12.857893 4.3805066 12.924391 4.3614474 12.990234 4.3574219 z M 4 8.5 A 0.5 0.5 0 0 0 3.5 9 L 3.5 15 A 0.5 0.5 0 0 0 4 15.5 A 0.5 0.5 0 0 0 4.5 15 L 4.5 9 A 0.5 0.5 0 0 0 4 8.5 z " />
</svg>
