<?xml version="1.0" encoding="UTF-8" standalone="no"?>
<svg
   width="24"
   height="24"
   viewBox="0 0 24 24"
   fill="none"
   stroke="currentColor"
   stroke-width="1"
   stroke-linecap="round"
   stroke-linejoin="round"
   version="1.1"
   id="svg5"
   sodipodi:docname=".tmp_arrows-up-from-line.svg"
   xmlns:inkscape="http://www.inkscape.org/namespaces/inkscape"
   xmlns:sodipodi="http://sodipodi.sourceforge.net/DTD/sodipodi-0.dtd"
   xmlns="http://www.w3.org/2000/svg"
   xmlns:svg="http://www.w3.org/2000/svg">
  <defs
     id="defs5" />
  <sodipodi:namedview
     id="namedview5"
     pagecolor="#ffffff"
     bordercolor="#000000"
     borderopacity="0.25"
     inkscape:showpageshadow="2"
     inkscape:pageopacity="0.0"
     inkscape:pagecheckerboard="0"
     inkscape:deskcolor="#d1d1d1" />
  <path
     id="path1"
     style="baseline-shift:baseline;display:inline;overflow:visible;vector-effect:none;fill:#000000;stroke:none;stroke-linecap:butt;stroke-linejoin:miter;enable-background:accumulate;stop-color:#000000;stop-opacity:1;opacity:1"
     d="M 7 2.5 A 0.5 0.5 0 0 0 6.9335938 2.5039062 A 0.5 0.5 0 0 0 6.8691406 2.5175781 A 0.5 0.5 0 0 0 6.7773438 2.5527344 A 0.50005 0.50005 0 0 0 6.6953125 2.6035156 A 0.5 0.5 0 0 0 6.6914062 2.6074219 A 0.50005 0.50005 0 0 0 6.6464844 2.6464844 A 0.5 0.5 0 0 0 6.640625 2.6523438 L 3.6464844 5.6464844 A 0.5 0.5 0 0 0 3.6464844 6.3535156 A 0.5 0.5 0 0 0 4.3535156 6.3535156 L 6.5 4.2070312 L 6.5 17 A 0.5 0.5 0 0 0 7 17.5 A 0.5 0.5 0 0 0 7.5 17 L 7.5 4.2070312 L 9.6464844 6.3535156 A 0.5 0.5 0 0 0 10.353516 6.3535156 A 0.5 0.5 0 0 0 10.353516 5.6464844 L 7.359375 2.6523438 A 0.5 0.5 0 0 0 7.2539062 2.5703125 A 0.50005 0.50005 0 0 0 7.2226562 2.5527344 A 0.5 0.5 0 0 0 7.1914062 2.5390625 A 0.50005 0.50005 0 0 0 7.1308594 2.5175781 A 0.5 0.5 0 0 0 7.1289062 2.5175781 A 0.50005 0.50005 0 0 0 7.0664062 2.5039062 A 0.5 0.5 0 0 0 7.0644531 2.5039062 A 0.50005 0.50005 0 0 0 7 2.5 z M 17 2.5 A 0.5 0.5 0 0 0 16.933594 2.5039062 A 0.5 0.5 0 0 0 16.869141 2.5175781 A 0.5 0.5 0 0 0 16.777344 2.5527344 A 0.50005 0.50005 0 0 0 16.646484 2.6464844 L 13.646484 5.6464844 A 0.5 0.5 0 0 0 13.646484 6.3535156 A 0.5 0.5 0 0 0 14.353516 6.3535156 L 16.5 4.2070312 L 16.5 17 A 0.5 0.5 0 0 0 17 17.5 A 0.5 0.5 0 0 0 17.5 17 L 17.5 4.2070312 L 19.646484 6.3535156 A 0.5 0.5 0 0 0 20.353516 6.3535156 A 0.5 0.5 0 0 0 20.353516 5.6464844 L 17.353516 2.6464844 A 0.5 0.5 0 0 0 17.308594 2.6074219 A 0.50005 0.50005 0 0 0 17.304688 2.6035156 A 0.5 0.5 0 0 0 17.253906 2.5703125 A 0.50005 0.50005 0 0 0 17.222656 2.5527344 A 0.5 0.5 0 0 0 17.191406 2.5390625 A 0.50005 0.50005 0 0 0 17.130859 2.5175781 A 0.5 0.5 0 0 0 17.128906 2.5175781 A 0.50005 0.50005 0 0 0 17.066406 2.5039062 A 0.5 0.5 0 0 0 17.064453 2.5039062 A 0.50005 0.50005 0 0 0 17 2.5 z M 4 20.5 A 0.5 0.5 0 0 0 3.5 21 A 0.5 0.5 0 0 0 4 21.5 L 20 21.5 A 0.5 0.5 0 0 0 20.5 21 A 0.5 0.5 0 0 0 20 20.5 L 4 20.5 z " />
</svg>
