<?xml version="1.0" encoding="UTF-8" standalone="no"?>
<svg
   width="24"
   height="24"
   viewBox="0 0 24 24"
   fill="none"
   stroke="currentColor"
   stroke-width="1"
   stroke-linecap="round"
   stroke-linejoin="round"
   version="1.1"
   id="svg1"
   sodipodi:docname=".tmp_award.svg"
   xmlns:inkscape="http://www.inkscape.org/namespaces/inkscape"
   xmlns:sodipodi="http://sodipodi.sourceforge.net/DTD/sodipodi-0.dtd"
   xmlns="http://www.w3.org/2000/svg"
   xmlns:svg="http://www.w3.org/2000/svg">
  <defs
     id="defs1" />
  <sodipodi:namedview
     id="namedview1"
     pagecolor="#ffffff"
     bordercolor="#000000"
     borderopacity="0.25"
     inkscape:showpageshadow="2"
     inkscape:pageopacity="0.0"
     inkscape:pagecheckerboard="0"
     inkscape:deskcolor="#d1d1d1" />
  <path
     id="path1"
     style="baseline-shift:baseline;display:inline;overflow:visible;vector-effect:none;fill:#000000;stroke:none;stroke-linecap:butt;stroke-linejoin:miter;enable-background:accumulate;stop-color:#000000;stop-opacity:1;opacity:1"
     d="M 12 1.5 C 8.4160714 1.5 5.5 4.4160714 5.5 8 C 5.5 10.066708 6.4702329 11.912101 7.9785156 13.103516 L 6.5175781 21.328125 A 0.50005 0.50005 0 0 0 6.515625 21.333984 C 6.443762 21.765331 6.6735093 22.173108 7.0019531 22.363281 C 7.330397 22.553454 7.7984013 22.548554 8.1367188 22.271484 L 11.705078 19.599609 C 11.884304 19.465714 12.123508 19.465714 12.302734 19.599609 L 15.865234 22.273438 L 15.867188 22.273438 C 16.205668 22.549627 16.671955 22.555578 17 22.365234 C 17.328607 22.174561 17.557346 21.763767 17.484375 21.332031 A 0.50005 0.50005 0 0 0 17.484375 21.328125 L 16.021484 13.103516 C 17.529732 11.912099 18.5 10.06668 18.5 8 C 18.5 4.4160714 15.583929 1.5 12 1.5 z M 12 2.5 C 15.043488 2.5 17.5 4.9565116 17.5 8 C 17.5 9.835748 16.605698 11.458646 15.228516 12.457031 A 0.5 0.5 0 0 0 15.148438 12.513672 C 14.257296 13.135434 13.171967 13.5 12 13.5 C 10.828034 13.5 9.7427042 13.135433 8.8515625 12.513672 A 0.5 0.5 0 0 0 8.7714844 12.457031 C 7.3943025 11.458646 6.5 9.8357477 6.5 8 C 6.5 4.9565116 8.9565116 2.5 12 2.5 z M 8.8867188 13.705078 C 9.8118588 14.212068 10.872775 14.5 12 14.5 C 13.127314 14.5 14.18809 14.212142 15.113281 13.705078 L 16.5 21.503906 L 16.498047 21.5 A 0.50005 0.50005 0 0 0 16.482422 21.486328 L 12.902344 18.798828 A 0.50005 0.50005 0 0 0 12.900391 18.798828 C 12.369731 18.402385 11.636128 18.402385 11.105469 18.798828 L 7.5195312 21.484375 A 0.50005 0.50005 0 0 0 7.5039062 21.498047 L 8.8867188 13.705078 z " />
</svg>
