<?xml version="1.0" encoding="UTF-8" standalone="no"?>
<svg
   width="24"
   height="24"
   viewBox="0 0 24 24"
   fill="none"
   stroke="currentColor"
   stroke-width="1"
   stroke-linecap="round"
   stroke-linejoin="round"
   version="1.1"
   id="svg5"
   sodipodi:docname=".tmp_barcode.svg"
   xmlns:inkscape="http://www.inkscape.org/namespaces/inkscape"
   xmlns:sodipodi="http://sodipodi.sourceforge.net/DTD/sodipodi-0.dtd"
   xmlns="http://www.w3.org/2000/svg"
   xmlns:svg="http://www.w3.org/2000/svg">
  <defs
     id="defs5" />
  <sodipodi:namedview
     id="namedview5"
     pagecolor="#ffffff"
     bordercolor="#000000"
     borderopacity="0.25"
     inkscape:showpageshadow="2"
     inkscape:pageopacity="0.0"
     inkscape:pagecheckerboard="0"
     inkscape:deskcolor="#d1d1d1" />
  <path
     id="path1"
     style="baseline-shift:baseline;display:inline;overflow:visible;vector-effect:none;fill:#000000;stroke:none;stroke-linecap:butt;stroke-linejoin:miter;enable-background:accumulate;stop-color:#000000;stop-opacity:1;opacity:1"
     d="M 3 4.5 A 0.5 0.5 0 0 0 2.5 5 L 2.5 19 A 0.5 0.5 0 0 0 3 19.5 A 0.5 0.5 0 0 0 3.5 19 L 3.5 5 A 0.5 0.5 0 0 0 3 4.5 z M 8 4.5 A 0.5 0.5 0 0 0 7.5 5 L 7.5 19 A 0.5 0.5 0 0 0 8 19.5 A 0.5 0.5 0 0 0 8.5 19 L 8.5 5 A 0.5 0.5 0 0 0 8 4.5 z M 12 4.5 A 0.5 0.5 0 0 0 11.5 5 L 11.5 19 A 0.5 0.5 0 0 0 12 19.5 A 0.5 0.5 0 0 0 12.5 19 L 12.5 5 A 0.5 0.5 0 0 0 12 4.5 z M 17 4.5 A 0.5 0.5 0 0 0 16.5 5 L 16.5 19 A 0.5 0.5 0 0 0 17 19.5 A 0.5 0.5 0 0 0 17.5 19 L 17.5 5 A 0.5 0.5 0 0 0 17 4.5 z M 21 4.5 A 0.5 0.5 0 0 0 20.5 5 L 20.5 19 A 0.5 0.5 0 0 0 21 19.5 A 0.5 0.5 0 0 0 21.5 19 L 21.5 5 A 0.5 0.5 0 0 0 21 4.5 z " />
</svg>
