<?xml version="1.0" encoding="UTF-8" standalone="no"?>
<svg
   width="24"
   height="24"
   viewBox="0 0 24 24"
   fill="none"
   stroke="currentColor"
   stroke-width="1"
   stroke-linecap="round"
   stroke-linejoin="round"
   version="1.1"
   id="svg1"
   sodipodi:docname=".tmp_blocks.svg"
   xmlns:inkscape="http://www.inkscape.org/namespaces/inkscape"
   xmlns:sodipodi="http://sodipodi.sourceforge.net/DTD/sodipodi-0.dtd"
   xmlns="http://www.w3.org/2000/svg"
   xmlns:svg="http://www.w3.org/2000/svg">
  <defs
     id="defs1" />
  <sodipodi:namedview
     id="namedview1"
     pagecolor="#ffffff"
     bordercolor="#000000"
     borderopacity="0.25"
     inkscape:showpageshadow="2"
     inkscape:pageopacity="0.0"
     inkscape:pagecheckerboard="0"
     inkscape:deskcolor="#d1d1d1" />
  <path
     id="path1"
     style="baseline-shift:baseline;display:inline;overflow:visible;vector-effect:none;fill:#000000;stroke:none;stroke-linecap:butt;stroke-linejoin:miter;enable-background:accumulate;stop-color:#000000;stop-opacity:1;opacity:1"
     d="M 15 1.5 C 14.177649 1.5 13.5 2.1776486 13.5 3 L 13.5 9 C 13.5 9.8223514 14.177649 10.5 15 10.5 L 21 10.5 C 21.822351 10.5 22.5 9.8223514 22.5 9 L 22.5 3 C 22.5 2.1776486 21.822351 1.5 21 1.5 L 15 1.5 z M 15 2.5 L 21 2.5 C 21.285649 2.5 21.5 2.7143514 21.5 3 L 21.5 9 C 21.5 9.2856486 21.285649 9.5 21 9.5 L 15 9.5 C 14.714351 9.5 14.5 9.2856486 14.5 9 L 14.5 3 C 14.5 2.7143514 14.714351 2.5 15 2.5 z M 4 5.5 C 2.6252104 5.5 1.5 6.6252104 1.5 8 L 1.5 14 L 1.5 20 C 1.5 21.37479 2.6252104 22.5 4 22.5 L 10 22.5 L 16 22.5 C 17.37479 22.5 18.5 21.37479 18.5 20 L 18.5 15 C 18.5 14.177495 17.822505 13.5 17 13.5 L 10.5 13.5 L 10.5 7 C 10.5 6.1774952 9.8225048 5.5 9 5.5 L 4 5.5 z M 4 6.5 L 9 6.5 C 9.2820647 6.5 9.5 6.7179353 9.5 7 L 9.5 13.5 L 2.5 13.5 L 2.5 8 C 2.5 7.1656506 3.1656506 6.5 4 6.5 z M 2.5 14.5 L 9.5 14.5 L 9.5 21.5 L 4 21.5 C 3.1656506 21.5 2.5 20.834349 2.5 20 L 2.5 14.5 z M 10.5 14.5 L 17 14.5 C 17.282065 14.5 17.5 14.717935 17.5 15 L 17.5 20 C 17.5 20.834349 16.834349 21.5 16 21.5 L 10.5 21.5 L 10.5 14.5 z " />
</svg>
