<?xml version="1.0" encoding="UTF-8" standalone="no"?>
<svg
   width="24"
   height="24"
   viewBox="0 0 24 24"
   fill="none"
   stroke="currentColor"
   stroke-width="1"
   stroke-linecap="round"
   stroke-linejoin="round"
   version="1.1"
   id="svg5"
   sodipodi:docname=".tmp_boom-box.svg"
   xmlns:inkscape="http://www.inkscape.org/namespaces/inkscape"
   xmlns:sodipodi="http://sodipodi.sourceforge.net/DTD/sodipodi-0.dtd"
   xmlns="http://www.w3.org/2000/svg"
   xmlns:svg="http://www.w3.org/2000/svg">
  <defs
     id="defs5" />
  <sodipodi:namedview
     id="namedview5"
     pagecolor="#ffffff"
     bordercolor="#000000"
     borderopacity="0.25"
     inkscape:showpageshadow="2"
     inkscape:pageopacity="0.0"
     inkscape:pagecheckerboard="0"
     inkscape:deskcolor="#d1d1d1" />
  <path
     id="path1"
     style="baseline-shift:baseline;display:inline;overflow:visible;vector-effect:none;fill:#000000;stroke:none;stroke-linecap:butt;stroke-linejoin:miter;enable-background:accumulate;stop-color:#000000;stop-opacity:1;opacity:1"
     d="M 6 2.5 C 4.6252104 2.5 3.5 3.6252104 3.5 5 L 3.5 8.5507812 C 2.3615976 8.7836705 1.5 9.79478 1.5 11 L 1.5 19 C 1.5 20.376351 2.6236486 21.5 4 21.5 L 20 21.5 C 21.376351 21.5 22.5 20.376351 22.5 19 L 22.5 11 C 22.5 9.7947801 21.638402 8.7836706 20.5 8.5507812 L 20.5 5 C 20.5 3.6252104 19.37479 2.5 18 2.5 L 6 2.5 z M 6 3.5 L 18 3.5 C 18.834349 3.5 19.5 4.1656506 19.5 5 L 19.5 8.5 L 16.5 8.5 L 16.5 8 A 0.5 0.5 0 0 0 16 7.5 A 0.5 0.5 0 0 0 15.5 8 L 15.5 8.5 L 12.5 8.5 L 12.5 8 A 0.5 0.5 0 0 0 12 7.5 A 0.5 0.5 0 0 0 11.5 8 L 11.5 8.5 L 8.5 8.5 L 8.5 8 A 0.5 0.5 0 0 0 8 7.5 A 0.5 0.5 0 0 0 7.5 8 L 7.5 8.5 L 4.5 8.5 L 4.5 5 C 4.5 4.1656506 5.1656506 3.5 6 3.5 z M 4 9.5 L 20 9.5 C 20.839649 9.5 21.5 10.160351 21.5 11 L 21.5 19 C 21.5 19.839649 20.839649 20.5 20 20.5 L 4 20.5 C 3.1603514 20.5 2.5 19.839649 2.5 19 L 2.5 11 C 2.5 10.160351 3.1603514 9.5 4 9.5 z M 8 12.5 C 6.6252104 12.5 5.5 13.62521 5.5 15 C 5.5 16.37479 6.6252104 17.5 8 17.5 C 9.3747896 17.5 10.5 16.37479 10.5 15 C 10.5 13.62521 9.3747896 12.5 8 12.5 z M 16 12.5 C 14.62521 12.5 13.5 13.62521 13.5 15 C 13.5 16.37479 14.62521 17.5 16 17.5 C 17.37479 17.5 18.5 16.37479 18.5 15 C 18.5 13.62521 17.37479 12.5 16 12.5 z M 8 13.5 C 8.8343494 13.5 9.5 14.165651 9.5 15 C 9.5 15.834349 8.8343494 16.5 8 16.5 C 7.1656506 16.5 6.5 15.834349 6.5 15 C 6.5 14.165651 7.1656506 13.5 8 13.5 z M 16 13.5 C 16.834349 13.5 17.5 14.165651 17.5 15 C 17.5 15.834349 16.834349 16.5 16 16.5 C 15.165651 16.5 14.5 15.834349 14.5 15 C 14.5 14.165651 15.165651 13.5 16 13.5 z " />
</svg>
