<?xml version="1.0" encoding="UTF-8" standalone="no"?>
<svg
   width="24"
   height="24"
   viewBox="0 0 24 24"
   fill="none"
   stroke="currentColor"
   stroke-width="1"
   stroke-linecap="round"
   stroke-linejoin="round"
   version="1.1"
   id="svg3"
   sodipodi:docname=".tmp_case-upper.svg"
   xmlns:inkscape="http://www.inkscape.org/namespaces/inkscape"
   xmlns:sodipodi="http://sodipodi.sourceforge.net/DTD/sodipodi-0.dtd"
   xmlns="http://www.w3.org/2000/svg"
   xmlns:svg="http://www.w3.org/2000/svg">
  <defs
     id="defs3" />
  <sodipodi:namedview
     id="namedview3"
     pagecolor="#ffffff"
     bordercolor="#000000"
     borderopacity="0.25"
     inkscape:showpageshadow="2"
     inkscape:pageopacity="0.0"
     inkscape:pagecheckerboard="0"
     inkscape:deskcolor="#d1d1d1" />
  <path
     id="path1"
     style="baseline-shift:baseline;display:inline;overflow:visible;vector-effect:none;fill:#000000;stroke:none;stroke-linecap:butt;stroke-linejoin:miter;enable-background:accumulate;stop-color:#000000;stop-opacity:1;opacity:1"
     d="M 15.5 5.5 C 14.953638 5.5 14.5 5.9536376 14.5 6.5 L 14.5 11 L 14.5 15.5 C 14.5 16.046362 14.953638 16.5 15.5 16.5 L 19.5 16.5 C 20.458333 16.5 21.239744 16.122622 21.748047 15.550781 C 22.25635 14.97894 22.5 14.236111 22.5 13.5 C 22.5 12.763889 22.25635 12.02106 21.748047 11.449219 C 21.442445 11.105417 21.013576 10.870456 20.53125 10.707031 C 20.59581 10.647441 20.690388 10.615651 20.748047 10.550781 C 21.25635 9.9789406 21.5 9.2361111 21.5 8.5 C 21.5 7.7638889 21.25635 7.0210597 20.748047 6.4492188 C 20.239744 5.8773778 19.458333 5.5 18.5 5.5 L 15.5 5.5 z M 6.5 5.5019531 C 6.1302032 5.5019531 5.741021 5.7264571 5.578125 6.1171875 L 1.5390625 15.808594 A 0.5 0.5 0 0 0 1.8085938 16.460938 A 0.5 0.5 0 0 0 2.4609375 16.191406 L 3.5820312 13.5 L 9.4179688 13.5 L 10.539062 16.191406 A 0.5 0.5 0 0 0 11.191406 16.460938 A 0.5 0.5 0 0 0 11.460938 15.808594 L 7.4238281 6.1171875 C 7.2609321 5.7264571 6.8697968 5.5019531 6.5 5.5019531 z M 15.5 6.5 L 18.5 6.5 C 19.208333 6.5 19.676923 6.7476222 20.001953 7.1132812 C 20.326983 7.4789403 20.5 7.9861111 20.5 8.5 C 20.5 9.0138889 20.326983 9.5210597 20.001953 9.8867188 C 19.676923 10.252378 19.208333 10.5 18.5 10.5 L 15.5 10.5 L 15.5 6.5 z M 6.5 6.5019531 L 9 12.5 L 4 12.5 L 6.5 6.5019531 z M 15.5 11.5 L 18.5 11.5 L 19.5 11.5 C 20.208333 11.5 20.676923 11.747622 21.001953 12.113281 C 21.326983 12.47894 21.5 12.986111 21.5 13.5 C 21.5 14.013889 21.326983 14.52106 21.001953 14.886719 C 20.676923 15.252378 20.208333 15.5 19.5 15.5 L 15.5 15.5 L 15.5 11.5 z " />
</svg>
