<?xml version="1.0" encoding="UTF-8" standalone="no"?>
<svg
   width="24"
   height="24"
   viewBox="0 0 24 24"
   fill="none"
   stroke="currentColor"
   stroke-width="1"
   stroke-linecap="round"
   stroke-linejoin="round"
   version="1.1"
   id="svg4"
   sodipodi:docname=".tmp_chromium.svg"
   xmlns:inkscape="http://www.inkscape.org/namespaces/inkscape"
   xmlns:sodipodi="http://sodipodi.sourceforge.net/DTD/sodipodi-0.dtd"
   xmlns="http://www.w3.org/2000/svg"
   xmlns:svg="http://www.w3.org/2000/svg">
  <defs
     id="defs4" />
  <sodipodi:namedview
     id="namedview4"
     pagecolor="#ffffff"
     bordercolor="#000000"
     borderopacity="0.25"
     inkscape:showpageshadow="2"
     inkscape:pageopacity="0.0"
     inkscape:pagecheckerboard="0"
     inkscape:deskcolor="#d1d1d1" />
  <path
     id="path1"
     style="baseline-shift:baseline;display:inline;overflow:visible;vector-effect:none;fill:#000000;stroke:none;stroke-linecap:butt;stroke-linejoin:miter;enable-background:accumulate;stop-color:#000000;stop-opacity:1;opacity:1"
     d="M 12 1.5 C 8.5700299 1.5 5.5204373 3.1506212 3.6035156 5.6992188 A 0.5 0.5 0 0 0 3.5039062 5.8339844 C 2.243938 7.5660556 1.5 9.697324 1.5 12 C 1.5 17.38209 5.5631711 21.826149 10.785156 22.429688 A 0.5 0.5 0 0 0 10.824219 22.435547 C 11.21022 22.478677 11.602608 22.5 12 22.5 C 17.793068 22.5 22.5 17.793068 22.5 12 C 22.5 10.529124 22.196051 9.1289927 21.648438 7.8574219 A 0.5 0.5 0 0 0 21.599609 7.7460938 C 19.965035 4.0689355 16.279148 1.5 12 1.5 z M 12 2.5 C 15.623722 2.5 18.768807 4.5215146 20.371094 7.5 L 12 7.5 A 0.5 0.5 0 0 0 11.935547 7.5039062 C 9.7240699 7.5354646 7.8901532 9.1701789 7.5546875 11.296875 L 4.5507812 6.0996094 C 6.2898801 3.9054963 8.9782206 2.5 12 2.5 z M 3.9160156 7.0019531 L 8.0292969 14.115234 C 8.0317819 14.119875 8.0346086 14.124275 8.0371094 14.128906 L 8.1074219 14.25 A 0.5 0.5 0 0 0 8.1542969 14.316406 C 8.9437192 15.620299 10.36923 16.5 12 16.5 C 12.56831 16.5 13.111984 16.394691 13.613281 16.201172 L 10.613281 21.400391 C 6.0191729 20.730992 2.5 16.781859 2.5 12 C 2.5 10.164992 3.0175009 8.4533538 3.9160156 7.0019531 z M 12 8.5 C 13.938919 8.5 15.5 10.061081 15.5 12 C 15.5 12.613325 15.343313 13.189193 15.068359 13.689453 A 0.5 0.5 0 0 0 15.027344 13.75 L 14.923828 13.929688 C 14.298798 14.877117 13.224673 15.5 12 15.5 C 10.727609 15.5 9.6184279 14.828517 9.0058594 13.818359 A 0.5 0.5 0 0 0 8.9726562 13.75 L 8.8769531 13.583984 L 8.8691406 13.570312 C 8.6328945 13.098435 8.5 12.565523 8.5 12 C 8.5 10.061081 10.061081 8.5 12 8.5 z M 14.824219 8.5 L 20.835938 8.5 C 21.264367 9.5827684 21.5 10.763532 21.5 12 C 21.5 17.252627 17.252627 21.5 12 21.5 C 11.903883 21.5 11.808315 21.498918 11.712891 21.496094 L 15.828125 14.361328 L 15.892578 14.25 A 0.5 0.5 0 0 0 15.927734 14.171875 C 16.286845 13.525989 16.5 12.789225 16.5 12 C 16.5 10.588666 15.84561 9.3259685 14.824219 8.5 z " />
</svg>
