<?xml version="1.0" encoding="UTF-8" standalone="no"?>
<svg
   width="24"
   height="24"
   viewBox="0 0 24 24"
   fill="none"
   stroke="currentColor"
   stroke-width="1"
   stroke-linecap="round"
   stroke-linejoin="round"
   version="1.1"
   id="svg2"
   sodipodi:docname=".tmp_circuit-board.svg"
   xmlns:inkscape="http://www.inkscape.org/namespaces/inkscape"
   xmlns:sodipodi="http://sodipodi.sourceforge.net/DTD/sodipodi-0.dtd"
   xmlns="http://www.w3.org/2000/svg"
   xmlns:svg="http://www.w3.org/2000/svg">
  <defs
     id="defs2" />
  <sodipodi:namedview
     id="namedview2"
     pagecolor="#ffffff"
     bordercolor="#000000"
     borderopacity="0.25"
     inkscape:showpageshadow="2"
     inkscape:pageopacity="0.0"
     inkscape:pagecheckerboard="0"
     inkscape:deskcolor="#d1d1d1" />
  <path
     id="rect1"
     style="baseline-shift:baseline;display:inline;overflow:visible;vector-effect:none;fill:#000000;stroke:none;stroke-linecap:butt;stroke-linejoin:miter;enable-background:accumulate;stop-color:#000000;stop-opacity:1;opacity:1"
     d="M 5 2.5 C 3.6236486 2.5 2.5 3.6236486 2.5 5 L 2.5 19 C 2.5 20.376351 3.6236486 21.5 5 21.5 L 19 21.5 C 20.376351 21.5 21.5 20.376351 21.5 19 L 21.5 5 C 21.5 3.6236486 20.376351 2.5 19 2.5 L 5 2.5 z M 5 3.5 L 16.5 3.5 L 16.5 7 C 16.5 7.8343494 15.834349 8.5 15 8.5 L 11.449219 8.5 C 11.215879 7.3625694 10.203695 6.5 9 6.5 C 7.6252104 6.5 6.5 7.6252104 6.5 9 C 6.5 10.37479 7.6252104 11.5 9 11.5 C 10.203695 11.5 11.215879 10.637431 11.449219 9.5 L 15 9.5 C 16.37479 9.5 17.5 8.3747896 17.5 7 L 17.5 3.5 L 19 3.5 C 19.839649 3.5 20.5 4.1603514 20.5 5 L 20.5 19 C 20.5 19.839649 19.839649 20.5 19 20.5 L 7.5 20.5 L 7.5 17 C 7.5 16.165651 8.1656506 15.5 9 15.5 L 12.550781 15.5 C 12.784121 16.637431 13.796305 17.5 15 17.5 C 16.37479 17.5 17.5 16.37479 17.5 15 C 17.5 13.62521 16.37479 12.5 15 12.5 C 13.796305 12.5 12.784121 13.362569 12.550781 14.5 L 9 14.5 C 7.6252104 14.5 6.5 15.62521 6.5 17 L 6.5 20.5 L 5 20.5 C 4.1603514 20.5 3.5 19.839649 3.5 19 L 3.5 5 C 3.5 4.1603514 4.1603514 3.5 5 3.5 z M 9 7.5 C 9.8343494 7.5 10.5 8.1656506 10.5 9 C 10.5 9.8343494 9.8343494 10.5 9 10.5 C 8.1656506 10.5 7.5 9.8343494 7.5 9 C 7.5 8.1656506 8.1656506 7.5 9 7.5 z M 15 13.5 C 15.834349 13.5 16.5 14.165651 16.5 15 C 16.5 15.834349 15.834349 16.5 15 16.5 C 14.165651 16.5 13.5 15.834349 13.5 15 C 13.5 14.165651 14.165651 13.5 15 13.5 z " />
</svg>
