<?xml version="1.0" encoding="UTF-8" standalone="no"?>
<svg
   width="24"
   height="24"
   viewBox="0 0 24 24"
   fill="none"
   stroke="currentColor"
   stroke-width="1"
   stroke-linecap="round"
   stroke-linejoin="round"
   version="1.1"
   id="svg4"
   sodipodi:docname=".tmp_cloud-rain-wind.svg"
   xmlns:inkscape="http://www.inkscape.org/namespaces/inkscape"
   xmlns:sodipodi="http://sodipodi.sourceforge.net/DTD/sodipodi-0.dtd"
   xmlns="http://www.w3.org/2000/svg"
   xmlns:svg="http://www.w3.org/2000/svg">
  <defs
     id="defs4" />
  <sodipodi:namedview
     id="namedview4"
     pagecolor="#ffffff"
     bordercolor="#000000"
     borderopacity="0.25"
     inkscape:showpageshadow="2"
     inkscape:pageopacity="0.0"
     inkscape:pagecheckerboard="0"
     inkscape:deskcolor="#d1d1d1" />
  <path
     id="path1"
     style="baseline-shift:baseline;display:inline;overflow:visible;vector-effect:none;fill:#000000;stroke:none;stroke-linecap:butt;stroke-linejoin:miter;enable-background:accumulate;stop-color:#000000;stop-opacity:1;opacity:1"
     d="M 9.0859375 2.5039062 C 8.8859507 2.5006292 8.6856914 2.5060818 8.484375 2.5195312 C 7.3660947 2.5942405 6.2419085 2.9244088 5.1953125 3.5410156 C 1.0089284 6.007443 0.24386788 11.775579 3.6425781 15.248047 A 0.5 0.5 0 0 0 4.3496094 15.255859 A 0.5 0.5 0 0 0 4.3574219 14.548828 C 1.3962822 11.523436 2.0557189 6.5512298 5.703125 4.4023438 C 9.3505311 2.2534578 14.019321 4.0861568 15.230469 8.1425781 A 0.50005 0.50005 0 0 0 15.710938 8.5 L 17.5 8.5 C 19.509159 8.499771 20.853118 9.7738403 21.328125 11.339844 C 21.803132 12.905847 21.393385 14.710202 19.722656 15.826172 A 0.5 0.5 0 0 0 19.583984 16.519531 A 0.5 0.5 0 0 0 20.277344 16.658203 C 22.307478 15.302165 22.872733 12.98595 22.285156 11.048828 C 21.69758 9.1117067 19.941369 7.4997217 17.5 7.5 L 15.984375 7.5 C 14.886491 4.460273 12.08574 2.5530627 9.0859375 2.5039062 z M 9.0058594 12.5 A 0.5 0.5 0 0 0 8.5410156 12.802734 L 5.5410156 19.802734 A 0.5 0.5 0 0 0 5.8027344 20.458984 A 0.5 0.5 0 0 0 6.4589844 20.197266 L 9.4589844 13.197266 A 0.5 0.5 0 0 0 9.1972656 12.541016 A 0.5 0.5 0 0 0 9.0058594 12.5 z M 17.005859 12.5 A 0.5 0.5 0 0 0 16.814453 12.535156 A 0.5 0.5 0 0 0 16.541016 12.802734 L 13.541016 19.802734 A 0.5 0.5 0 0 0 13.802734 20.458984 A 0.5 0.5 0 0 0 14.458984 20.197266 L 17.458984 13.197266 A 0.5 0.5 0 0 0 17.197266 12.541016 A 0.5 0.5 0 0 0 17.005859 12.5 z M 12.205078 14.5 A 0.5 0.5 0 0 0 11.740234 14.802734 L 8.7402344 21.802734 A 0.5 0.5 0 0 0 9.0039062 22.458984 A 0.5 0.5 0 0 0 9.6601562 22.197266 L 12.660156 15.197266 A 0.5 0.5 0 0 0 12.396484 14.541016 A 0.5 0.5 0 0 0 12.205078 14.5 z " />
</svg>
