<?xml version="1.0" encoding="UTF-8" standalone="no"?>
<svg
   width="24"
   height="24"
   viewBox="0 0 24 24"
   fill="none"
   stroke="currentColor"
   stroke-width="1"
   stroke-linecap="round"
   stroke-linejoin="round"
   version="1.1"
   id="svg3"
   sodipodi:docname=".tmp_code-xml.svg"
   xmlns:inkscape="http://www.inkscape.org/namespaces/inkscape"
   xmlns:sodipodi="http://sodipodi.sourceforge.net/DTD/sodipodi-0.dtd"
   xmlns="http://www.w3.org/2000/svg"
   xmlns:svg="http://www.w3.org/2000/svg">
  <defs
     id="defs3" />
  <sodipodi:namedview
     id="namedview3"
     pagecolor="#ffffff"
     bordercolor="#000000"
     borderopacity="0.25"
     inkscape:showpageshadow="2"
     inkscape:pageopacity="0.0"
     inkscape:pagecheckerboard="0"
     inkscape:deskcolor="#d1d1d1" />
  <path
     id="path1"
     style="baseline-shift:baseline;display:inline;overflow:visible;vector-effect:none;fill:#000000;stroke:none;stroke-linecap:butt;stroke-linejoin:miter;enable-background:accumulate;stop-color:#000000;stop-opacity:1;opacity:1"
     d="M 14.519531 3.5019531 A 0.5 0.5 0 0 0 14.023438 3.8515625 L 9.0234375 19.851562 A 0.5 0.5 0 0 0 9.3515625 20.476562 A 0.5 0.5 0 0 0 9.9765625 20.148438 L 14.976562 4.1484375 A 0.5 0.5 0 0 0 14.648438 3.5234375 A 0.5 0.5 0 0 0 14.519531 3.5019531 z M 6 7.5 A 0.5 0.5 0 0 0 5.6464844 7.6464844 L 1.6464844 11.646484 A 0.50005 0.50005 0 0 0 1.6464844 12.353516 L 5.6464844 16.353516 A 0.5 0.5 0 0 0 6.3535156 16.353516 A 0.5 0.5 0 0 0 6.3535156 15.646484 L 2.7070312 12 L 6.3535156 8.3535156 A 0.5 0.5 0 0 0 6.3535156 7.6464844 A 0.5 0.5 0 0 0 6 7.5 z M 18 7.5 A 0.5 0.5 0 0 0 17.646484 7.6464844 A 0.5 0.5 0 0 0 17.646484 8.3535156 L 21.292969 12 L 17.646484 15.646484 A 0.5 0.5 0 0 0 17.646484 16.353516 A 0.5 0.5 0 0 0 18.353516 16.353516 L 22.353516 12.353516 A 0.50005 0.50005 0 0 0 22.353516 11.646484 L 18.353516 7.6464844 A 0.5 0.5 0 0 0 18 7.5 z " />
</svg>
