<?xml version="1.0" encoding="UTF-8" standalone="no"?>
<svg
   width="24"
   height="24"
   viewBox="0 0 24 24"
   fill="none"
   stroke="currentColor"
   stroke-width="1"
   stroke-linecap="round"
   stroke-linejoin="round"
   version="1.1"
   id="svg7"
   sodipodi:docname=".tmp_construction.svg"
   xmlns:inkscape="http://www.inkscape.org/namespaces/inkscape"
   xmlns:sodipodi="http://sodipodi.sourceforge.net/DTD/sodipodi-0.dtd"
   xmlns="http://www.w3.org/2000/svg"
   xmlns:svg="http://www.w3.org/2000/svg">
  <defs
     id="defs7" />
  <sodipodi:namedview
     id="namedview7"
     pagecolor="#ffffff"
     bordercolor="#000000"
     borderopacity="0.25"
     inkscape:showpageshadow="2"
     inkscape:pageopacity="0.0"
     inkscape:pagecheckerboard="0"
     inkscape:deskcolor="#d1d1d1" />
  <path
     id="rect1"
     style="baseline-shift:baseline;display:inline;overflow:visible;vector-effect:none;fill:#000000;stroke:none;stroke-linecap:butt;stroke-linejoin:miter;enable-background:accumulate;stop-color:#000000;stop-opacity:1;opacity:1"
     d="M 7 2.5 A 0.5 0.5 0 0 0 6.5 3 L 6.5 5.5 L 3 5.5 C 2.1776486 5.5 1.5 6.1776486 1.5 7 L 1.5 13 C 1.5 13.822351 2.1776486 14.5 3 14.5 L 6.5 14.5 L 6.5 21 A 0.5 0.5 0 0 0 7 21.5 A 0.5 0.5 0 0 0 7.5 21 L 7.5 14.5 L 16 14.5 L 16.5 14.5 L 16.5 21 A 0.5 0.5 0 0 0 17 21.5 A 0.5 0.5 0 0 0 17.5 21 L 17.5 14.5 L 21 14.5 C 21.822351 14.5 22.5 13.822351 22.5 13 L 22.5 7 C 22.5 6.1776486 21.822351 5.5 21 5.5 L 17.5 5.5 L 17.5 3 A 0.5 0.5 0 0 0 17 2.5 A 0.5 0.5 0 0 0 16.5 3 L 16.5 5.5 L 8 5.5 L 7.5 5.5 L 7.5 3 A 0.5 0.5 0 0 0 7 2.5 z M 3.2070312 6.5 L 7.7929688 6.5 L 14.792969 13.5 L 10.207031 13.5 L 3.2070312 6.5 z M 9.2070312 6.5 L 13.792969 6.5 L 20.792969 13.5 L 16.207031 13.5 L 9.2070312 6.5 z M 15.207031 6.5 L 21 6.5 C 21.285649 6.5 21.5 6.7143514 21.5 7 L 21.5 12.792969 L 15.207031 6.5 z M 2.5 7.2070312 L 8.7929688 13.5 L 3 13.5 C 2.7143514 13.5 2.5 13.285649 2.5 13 L 2.5 7.2070312 z " />
</svg>
