<?xml version="1.0" encoding="UTF-8" standalone="no"?>
<svg
   width="24"
   height="24"
   viewBox="0 0 24 24"
   fill="none"
   stroke="currentColor"
   stroke-width="1"
   stroke-linecap="round"
   stroke-linejoin="round"
   version="1.1"
   id="svg2"
   sodipodi:docname=".tmp_corner-right-up.svg"
   xmlns:inkscape="http://www.inkscape.org/namespaces/inkscape"
   xmlns:sodipodi="http://sodipodi.sourceforge.net/DTD/sodipodi-0.dtd"
   xmlns="http://www.w3.org/2000/svg"
   xmlns:svg="http://www.w3.org/2000/svg">
  <defs
     id="defs2" />
  <sodipodi:namedview
     id="namedview2"
     pagecolor="#ffffff"
     bordercolor="#000000"
     borderopacity="0.25"
     inkscape:showpageshadow="2"
     inkscape:pageopacity="0.0"
     inkscape:pagecheckerboard="0"
     inkscape:deskcolor="#d1d1d1" />
  <path
     id="path1"
     style="baseline-shift:baseline;display:inline;overflow:visible;vector-effect:none;fill:#000000;stroke:none;stroke-linecap:butt;stroke-linejoin:miter;enable-background:accumulate;stop-color:#000000;stop-opacity:1;opacity:1"
     d="M 15 3.5 A 0.5 0.5 0 0 0 14.808594 3.5390625 A 0.5 0.5 0 0 0 14.777344 3.5527344 A 0.50005 0.50005 0 0 0 14.746094 3.5703125 A 0.50005 0.50005 0 0 0 14.695312 3.6035156 A 0.5 0.5 0 0 0 14.691406 3.6074219 A 0.50005 0.50005 0 0 0 14.646484 3.6464844 A 0.5 0.5 0 0 0 14.640625 3.6523438 L 9.6464844 8.6464844 A 0.5 0.5 0 0 0 9.6464844 9.3535156 A 0.5 0.5 0 0 0 10.353516 9.3535156 L 14.5 5.2070312 L 14.5 16 C 14.5 17.938919 12.938919 19.5 11 19.5 L 4 19.5 A 0.5 0.5 0 0 0 3.5 20 A 0.5 0.5 0 0 0 4 20.5 L 11 20.5 C 13.479359 20.5 15.5 18.479359 15.5 16 L 15.5 5.2070312 L 19.646484 9.3535156 A 0.5 0.5 0 0 0 20.353516 9.3535156 A 0.5 0.5 0 0 0 20.353516 8.6464844 L 15.359375 3.6523438 A 0.5 0.5 0 0 0 15.253906 3.5703125 A 0.50005 0.50005 0 0 0 15.222656 3.5527344 A 0.5 0.5 0 0 0 15.191406 3.5390625 A 0.50005 0.50005 0 0 0 15.130859 3.5175781 A 0.5 0.5 0 0 0 15.128906 3.5175781 A 0.50005 0.50005 0 0 0 15.066406 3.5039062 A 0.5 0.5 0 0 0 15.064453 3.5039062 A 0.50005 0.50005 0 0 0 15 3.5 z " />
</svg>
