<?xml version="1.0" encoding="UTF-8" standalone="no"?>
<svg
   width="24"
   height="24"
   viewBox="0 0 24 24"
   fill="none"
   stroke="currentColor"
   stroke-width="1"
   stroke-linecap="round"
   stroke-linejoin="round"
   version="1.1"
   id="svg13"
   sodipodi:docname=".tmp_cpu.svg"
   xmlns:inkscape="http://www.inkscape.org/namespaces/inkscape"
   xmlns:sodipodi="http://sodipodi.sourceforge.net/DTD/sodipodi-0.dtd"
   xmlns="http://www.w3.org/2000/svg"
   xmlns:svg="http://www.w3.org/2000/svg">
  <defs
     id="defs13" />
  <sodipodi:namedview
     id="namedview13"
     pagecolor="#ffffff"
     bordercolor="#000000"
     borderopacity="0.25"
     inkscape:showpageshadow="2"
     inkscape:pageopacity="0.0"
     inkscape:pagecheckerboard="0"
     inkscape:deskcolor="#d1d1d1" />
  <path
     id="path1"
     style="baseline-shift:baseline;display:inline;overflow:visible;vector-effect:none;fill:#000000;stroke:none;stroke-linecap:butt;stroke-linejoin:miter;enable-background:accumulate;stop-color:#000000;stop-opacity:1;opacity:1"
     d="M 7 1.5 A 0.5 0.5 0 0 0 6.5 2 L 6.5 3.5 L 6 3.5 C 4.6236486 3.5 3.5 4.6236486 3.5 6 L 3.5 6.5 L 2 6.5 A 0.5 0.5 0 0 0 1.5 7 A 0.5 0.5 0 0 0 2 7.5 L 3.5 7.5 L 3.5 11.5 L 2 11.5 A 0.5 0.5 0 0 0 1.5 12 A 0.5 0.5 0 0 0 2 12.5 L 3.5 12.5 L 3.5 16.5 L 2 16.5 A 0.5 0.5 0 0 0 1.5 17 A 0.5 0.5 0 0 0 2 17.5 L 3.5 17.5 L 3.5 18 C 3.5 19.376351 4.6236486 20.5 6 20.5 L 6.5 20.5 L 6.5 22 A 0.5 0.5 0 0 0 7 22.5 A 0.5 0.5 0 0 0 7.5 22 L 7.5 20.5 L 11.5 20.5 L 11.5 22 A 0.5 0.5 0 0 0 12 22.5 A 0.5 0.5 0 0 0 12.5 22 L 12.5 20.5 L 16.5 20.5 L 16.5 22 A 0.5 0.5 0 0 0 17 22.5 A 0.5 0.5 0 0 0 17.5 22 L 17.5 20.5 L 18 20.5 C 19.376351 20.5 20.5 19.376351 20.5 18 L 20.5 17.5 L 22 17.5 A 0.5 0.5 0 0 0 22.5 17 A 0.5 0.5 0 0 0 22 16.5 L 20.5 16.5 L 20.5 12.5 L 22 12.5 A 0.5 0.5 0 0 0 22.5 12 A 0.5 0.5 0 0 0 22 11.5 L 20.5 11.5 L 20.5 7.5 L 22 7.5 A 0.5 0.5 0 0 0 22.5 7 A 0.5 0.5 0 0 0 22 6.5 L 20.5 6.5 L 20.5 6 C 20.5 4.6236486 19.376351 3.5 18 3.5 L 17.5 3.5 L 17.5 2 A 0.5 0.5 0 0 0 17 1.5 A 0.5 0.5 0 0 0 16.5 2 L 16.5 3.5 L 12.5 3.5 L 12.5 2 A 0.5 0.5 0 0 0 12 1.5 A 0.5 0.5 0 0 0 11.5 2 L 11.5 3.5 L 7.5 3.5 L 7.5 2 A 0.5 0.5 0 0 0 7 1.5 z M 6 4.5 L 18 4.5 C 18.839649 4.5 19.5 5.1603514 19.5 6 L 19.5 18 C 19.5 18.839649 18.839649 19.5 18 19.5 L 6 19.5 C 5.1603514 19.5 4.5 18.839649 4.5 18 L 4.5 6 C 4.5 5.1603514 5.1603514 4.5 6 4.5 z M 9 7.5 C 8.1776486 7.5 7.5 8.1776486 7.5 9 L 7.5 15 C 7.5 15.822351 8.1776486 16.5 9 16.5 L 15 16.5 C 15.822351 16.5 16.5 15.822351 16.5 15 L 16.5 9 C 16.5 8.1776486 15.822351 7.5 15 7.5 L 9 7.5 z M 9 8.5 L 15 8.5 C 15.285649 8.5 15.5 8.7143514 15.5 9 L 15.5 15 C 15.5 15.285649 15.285649 15.5 15 15.5 L 9 15.5 C 8.7143514 15.5 8.5 15.285649 8.5 15 L 8.5 9 C 8.5 8.7143514 8.7143514 8.5 9 8.5 z " />
</svg>
