<?xml version="1.0" encoding="UTF-8" standalone="no"?>
<svg
   width="24"
   height="24"
   viewBox="0 0 24 24"
   fill="none"
   stroke="currentColor"
   stroke-width="1"
   stroke-linecap="round"
   stroke-linejoin="round"
   version="1.1"
   id="svg4"
   sodipodi:docname=".tmp_decimals-arrow-right.svg"
   xmlns:inkscape="http://www.inkscape.org/namespaces/inkscape"
   xmlns:sodipodi="http://sodipodi.sourceforge.net/DTD/sodipodi-0.dtd"
   xmlns="http://www.w3.org/2000/svg"
   xmlns:svg="http://www.w3.org/2000/svg">
  <defs
     id="defs4" />
  <sodipodi:namedview
     id="namedview4"
     pagecolor="#ffffff"
     bordercolor="#000000"
     borderopacity="0.25"
     inkscape:showpageshadow="2"
     inkscape:pageopacity="0.0"
     inkscape:pagecheckerboard="0"
     inkscape:deskcolor="#d1d1d1" />
  <path
     id="path1"
     style="baseline-shift:baseline;display:inline;overflow:visible;vector-effect:none;fill:#000000;stroke:none;stroke-linecap:butt;stroke-linejoin:miter;enable-background:accumulate;stop-color:#000000;stop-opacity:1;opacity:1"
     d="M 8.5 2.5 C 6.8466486 2.5 5.5 3.8466486 5.5 5.5 L 5.5 8.5 C 5.5 10.153351 6.8466486 11.5 8.5 11.5 C 10.153351 11.5 11.5 10.153351 11.5 8.5 L 11.5 5.5 C 11.5 3.8466486 10.153351 2.5 8.5 2.5 z M 17.5 2.5 C 15.846649 2.5 14.5 3.8466486 14.5 5.5 L 14.5 8.5 C 14.5 10.153351 15.846649 11.5 17.5 11.5 C 19.153351 11.5 20.5 10.153351 20.5 8.5 L 20.5 5.5 C 20.5 3.8466486 19.153351 2.5 17.5 2.5 z M 8.5 3.5 C 9.6166486 3.5 10.5 4.3833514 10.5 5.5 L 10.5 8.5 C 10.5 9.6166486 9.6166486 10.5 8.5 10.5 C 7.3833514 10.5 6.5 9.6166486 6.5 8.5 L 6.5 5.5 C 6.5 4.3833514 7.3833514 3.5 8.5 3.5 z M 17.5 3.5 C 18.616649 3.5 19.5 4.3833514 19.5 5.5 L 19.5 8.5 C 19.5 9.6166486 18.616649 10.5 17.5 10.5 C 16.383351 10.5 15.5 9.6166486 15.5 8.5 L 15.5 5.5 C 15.5 4.3833514 16.383351 3.5 17.5 3.5 z M 3 10.5 A 0.5 0.5 0 0 0 2.5 11 A 0.5 0.5 0 0 0 3 11.5 L 3.0097656 11.5 A 0.5 0.5 0 0 0 3.5097656 11 A 0.5 0.5 0 0 0 3.0097656 10.5 L 3 10.5 z M 17 14.5 A 0.5 0.5 0 0 0 16.646484 14.646484 A 0.5 0.5 0 0 0 16.646484 15.353516 L 18.792969 17.5 L 10 17.5 A 0.5 0.5 0 0 0 9.5 18 A 0.5 0.5 0 0 0 10 18.5 L 18.792969 18.5 L 16.646484 20.646484 A 0.5 0.5 0 0 0 16.646484 21.353516 A 0.5 0.5 0 0 0 17.353516 21.353516 L 20.347656 18.359375 A 0.5 0.5 0 0 0 20.353516 18.353516 A 0.50005 0.50005 0 0 0 20.392578 18.308594 A 0.5 0.5 0 0 0 20.396484 18.304688 A 0.50005 0.50005 0 0 0 20.447266 18.222656 A 0.5 0.5 0 0 0 20.460938 18.191406 A 0.50005 0.50005 0 0 0 20.482422 18.130859 A 0.5 0.5 0 0 0 20.482422 18.128906 A 0.50005 0.50005 0 0 0 20.496094 18.066406 A 0.5 0.5 0 0 0 20.496094 18.064453 A 0.50005 0.50005 0 0 0 20.496094 17.933594 A 0.5 0.5 0 0 0 20.482422 17.871094 A 0.50005 0.50005 0 0 0 20.482422 17.869141 A 0.5 0.5 0 0 0 20.447266 17.777344 A 0.50005 0.50005 0 0 0 20.429688 17.746094 A 0.5 0.5 0 0 0 20.396484 17.695312 A 0.50005 0.50005 0 0 0 20.392578 17.691406 A 0.5 0.5 0 0 0 20.353516 17.646484 L 17.353516 14.646484 A 0.5 0.5 0 0 0 17 14.5 z " />
</svg>
