<?xml version="1.0" encoding="UTF-8" standalone="no"?>
<svg
   width="24"
   height="24"
   viewBox="0 0 24 24"
   fill="none"
   stroke="currentColor"
   stroke-width="1"
   stroke-linecap="round"
   stroke-linejoin="round"
   version="1.1"
   id="svg1"
   sodipodi:docname=".tmp_eclipse.svg"
   xmlns:inkscape="http://www.inkscape.org/namespaces/inkscape"
   xmlns:sodipodi="http://sodipodi.sourceforge.net/DTD/sodipodi-0.dtd"
   xmlns="http://www.w3.org/2000/svg"
   xmlns:svg="http://www.w3.org/2000/svg">
  <defs
     id="defs1" />
  <sodipodi:namedview
     id="namedview1"
     pagecolor="#ffffff"
     bordercolor="#000000"
     borderopacity="0.25"
     inkscape:showpageshadow="2"
     inkscape:pageopacity="0.0"
     inkscape:pagecheckerboard="0"
     inkscape:deskcolor="#d1d1d1" />
  <path
     id="circle1"
     style="baseline-shift:baseline;display:inline;overflow:visible;vector-effect:none;fill:#000000;stroke:none;stroke-linecap:butt;stroke-linejoin:miter;enable-background:accumulate;stop-color:#000000;stop-opacity:1;opacity:1"
     d="M 12 1.5 A 0.5 0.5 0 0 0 11.935547 1.5039062 C 6.1724386 1.5391059 1.5 6.2287066 1.5 12 C 1.5 17.793068 6.2069324 22.5 12 22.5 C 17.771294 22.5 22.460894 17.827562 22.496094 12.064453 A 0.5 0.5 0 0 0 22.496094 11.935547 C 22.461027 6.1941819 17.805818 1.5389731 12.064453 1.5039062 A 0.5 0.5 0 0 0 12 1.5 z M 12.208984 2.5019531 C 17.295107 2.6114958 21.388504 6.7048929 21.498047 11.791016 C 18.918658 14.216204 14.874854 14.167824 12.353516 11.646484 C 9.8321765 9.125146 9.7837963 5.0813421 12.208984 2.5019531 z M 10.861328 2.5664062 C 8.7224881 5.5243179 8.9842276 9.6912582 11.646484 12.353516 C 14.308742 15.015772 18.475682 15.277513 21.433594 13.138672 C 20.872234 17.853052 16.867241 21.5 12 21.5 C 6.7473726 21.5 2.5 17.252627 2.5 12 C 2.5 7.1327588 6.1469478 3.1277661 10.861328 2.5664062 z " />
</svg>
