<?xml version="1.0" encoding="UTF-8" standalone="no"?>
<svg
   width="24"
   height="24"
   viewBox="0 0 24 24"
   fill="none"
   stroke="currentColor"
   stroke-width="1"
   stroke-linecap="round"
   stroke-linejoin="round"
   version="1.1"
   id="svg3"
   sodipodi:docname=".tmp_equal-not.svg"
   xmlns:inkscape="http://www.inkscape.org/namespaces/inkscape"
   xmlns:sodipodi="http://sodipodi.sourceforge.net/DTD/sodipodi-0.dtd"
   xmlns="http://www.w3.org/2000/svg"
   xmlns:svg="http://www.w3.org/2000/svg">
  <defs
     id="defs3" />
  <sodipodi:namedview
     id="namedview3"
     pagecolor="#ffffff"
     bordercolor="#000000"
     borderopacity="0.25"
     inkscape:showpageshadow="2"
     inkscape:pageopacity="0.0"
     inkscape:pagecheckerboard="0"
     inkscape:deskcolor="#d1d1d1" />
  <path
     id="line1"
     style="baseline-shift:baseline;display:inline;overflow:visible;vector-effect:none;fill:#000000;stroke:none;stroke-linecap:butt;stroke-linejoin:miter;enable-background:accumulate;stop-color:#000000;stop-opacity:1;opacity:1"
     d="M 19 4.5 A 0.5 0.5 0 0 0 18.646484 4.6464844 L 14.792969 8.5 L 5 8.5 A 0.5 0.5 0 0 0 4.5 9 A 0.5 0.5 0 0 0 5 9.5 L 13.792969 9.5 L 8.7929688 14.5 L 5 14.5 A 0.5 0.5 0 0 0 4.5 15 A 0.5 0.5 0 0 0 5 15.5 L 7.7929688 15.5 L 4.6464844 18.646484 A 0.5 0.5 0 0 0 4.6464844 19.353516 A 0.5 0.5 0 0 0 5.3535156 19.353516 L 9.2070312 15.5 L 19 15.5 A 0.5 0.5 0 0 0 19.5 15 A 0.5 0.5 0 0 0 19 14.5 L 10.207031 14.5 L 15.207031 9.5 L 19 9.5 A 0.5 0.5 0 0 0 19.5 9 A 0.5 0.5 0 0 0 19 8.5 L 16.207031 8.5 L 19.353516 5.3535156 A 0.5 0.5 0 0 0 19.353516 4.6464844 A 0.5 0.5 0 0 0 19 4.5 z " />
</svg>
