<?xml version="1.0" encoding="UTF-8" standalone="no"?>
<svg
   width="24"
   height="24"
   viewBox="0 0 24 24"
   fill="none"
   stroke="currentColor"
   stroke-width="1"
   stroke-linecap="round"
   stroke-linejoin="round"
   version="1.1"
   id="svg5"
   sodipodi:docname=".tmp_ethernet-port.svg"
   xmlns:inkscape="http://www.inkscape.org/namespaces/inkscape"
   xmlns:sodipodi="http://sodipodi.sourceforge.net/DTD/sodipodi-0.dtd"
   xmlns="http://www.w3.org/2000/svg"
   xmlns:svg="http://www.w3.org/2000/svg">
  <defs
     id="defs5" />
  <sodipodi:namedview
     id="namedview5"
     pagecolor="#ffffff"
     bordercolor="#000000"
     borderopacity="0.25"
     inkscape:showpageshadow="2"
     inkscape:pageopacity="0.0"
     inkscape:pagecheckerboard="0"
     inkscape:deskcolor="#d1d1d1" />
  <path
     id="path1"
     style="baseline-shift:baseline;display:inline;overflow:visible;vector-effect:none;fill:#000000;stroke:none;stroke-linecap:butt;stroke-linejoin:miter;enable-background:accumulate;stop-color:#000000;stop-opacity:1;opacity:1"
     d="M 4 3.5 C 2.6252104 3.5 1.5 4.6252104 1.5 6 L 1.5 15 C 1.5 16.37479 2.6252104 17.5 4 17.5 L 5.7929688 17.5 L 8.6464844 20.353516 A 0.50005 0.50005 0 0 0 9 20.5 L 15 20.5 A 0.50005 0.50005 0 0 0 15.353516 20.353516 L 18.207031 17.5 L 20 17.5 C 21.37479 17.5 22.5 16.37479 22.5 15 L 22.5 6 C 22.5 4.6252104 21.37479 3.5 20 3.5 L 4 3.5 z M 4 4.5 L 20 4.5 C 20.834349 4.5 21.5 5.1656506 21.5 6 L 21.5 15 C 21.5 15.834349 20.834349 16.5 20 16.5 L 18 16.5 A 0.50005 0.50005 0 0 0 17.646484 16.646484 L 14.792969 19.5 L 9.2070312 19.5 L 6.3535156 16.646484 A 0.50005 0.50005 0 0 0 6 16.5 L 4 16.5 C 3.1656506 16.5 2.5 15.834349 2.5 15 L 2.5 6 C 2.5 5.1656506 3.1656506 4.5 4 4.5 z M 6 7.5 A 0.5 0.5 0 0 0 5.5 8 L 5.5 9 A 0.5 0.5 0 0 0 6 9.5 A 0.5 0.5 0 0 0 6.5 9 L 6.5 8 A 0.5 0.5 0 0 0 6 7.5 z M 10 7.5 A 0.5 0.5 0 0 0 9.5 8 L 9.5 9 A 0.5 0.5 0 0 0 10 9.5 A 0.5 0.5 0 0 0 10.5 9 L 10.5 8 A 0.5 0.5 0 0 0 10 7.5 z M 14 7.5 A 0.5 0.5 0 0 0 13.5 8 L 13.5 9 A 0.5 0.5 0 0 0 14 9.5 A 0.5 0.5 0 0 0 14.5 9 L 14.5 8 A 0.5 0.5 0 0 0 14 7.5 z M 18 7.5 A 0.5 0.5 0 0 0 17.5 8 L 17.5 9 A 0.5 0.5 0 0 0 18 9.5 A 0.5 0.5 0 0 0 18.5 9 L 18.5 8 A 0.5 0.5 0 0 0 18 7.5 z " />
</svg>
