<?xml version="1.0" encoding="UTF-8" standalone="no"?>
<svg
   width="24"
   height="24"
   viewBox="0 0 24 24"
   fill="none"
   stroke="currentColor"
   stroke-width="1"
   stroke-linecap="round"
   stroke-linejoin="round"
   version="1.1"
   id="svg3"
   sodipodi:docname=".tmp_file-search.svg"
   xmlns:inkscape="http://www.inkscape.org/namespaces/inkscape"
   xmlns:sodipodi="http://sodipodi.sourceforge.net/DTD/sodipodi-0.dtd"
   xmlns="http://www.w3.org/2000/svg"
   xmlns:svg="http://www.w3.org/2000/svg">
  <defs
     id="defs3" />
  <sodipodi:namedview
     id="namedview3"
     pagecolor="#ffffff"
     bordercolor="#000000"
     borderopacity="0.25"
     inkscape:showpageshadow="2"
     inkscape:pageopacity="0.0"
     inkscape:pagecheckerboard="0"
     inkscape:deskcolor="#d1d1d1" />
  <path
     id="path1"
     style="baseline-shift:baseline;display:inline;overflow:visible;vector-effect:none;fill:#000000;stroke:none;stroke-linecap:butt;stroke-linejoin:miter;enable-background:accumulate;stop-color:#000000;stop-opacity:1;opacity:1"
     d="M 6 1.5 C 4.6252104 1.5 3.5 2.6252104 3.5 4 L 3.5 7 A 0.5 0.5 0 0 0 4 7.5 A 0.5 0.5 0 0 0 4.5 7 L 4.5 4 C 4.5 3.1656506 5.1656506 2.5 6 2.5 L 13.5 2.5 L 13.5 6 C 13.5 7.3747896 14.62521 8.5 16 8.5 L 19.5 8.5 L 19.5 20 C 19.5 20.834349 18.834349 21.5 18 21.5 L 5.9960938 21.5 L 5.9941406 21.5 C 5.4595061 21.498009 4.968537 21.213094 4.7011719 20.75 A 0.5 0.5 0 0 0 4.0175781 20.566406 A 0.5 0.5 0 0 0 3.8359375 21.25 C 4.2809938 22.020867 5.1040251 22.49775 5.9941406 22.5 L 18 22.5 C 19.37479 22.5 20.5 21.37479 20.5 20 L 20.5 7 A 0.50005 0.50005 0 0 0 20.353516 6.6464844 L 15.353516 1.6464844 A 0.50005 0.50005 0 0 0 15 1.5 L 6 1.5 z M 14.5 2.5 L 14.792969 2.5 L 19.5 7.2070312 L 19.5 7.5 L 16 7.5 C 15.165651 7.5 14.5 6.8343494 14.5 6 L 14.5 2.5 z M 5 10.5 C 3.0729257 10.5 1.5 12.072926 1.5 14 C 1.5 15.927074 3.0729257 17.5 5 17.5 C 5.7859411 17.5 6.5122093 17.23746 7.0976562 16.796875 A 0.5 0.5 0 0 0 7.1464844 16.853516 L 8.6464844 18.353516 A 0.5 0.5 0 0 0 9.3535156 18.353516 A 0.5 0.5 0 0 0 9.3535156 17.646484 L 7.8535156 16.146484 A 0.5 0.5 0 0 0 7.796875 16.097656 C 8.2374542 15.512211 8.5 14.785935 8.5 14 C 8.5 12.072926 6.9270743 10.5 5 10.5 z M 5 11.5 C 6.3866342 11.5 7.5 12.613366 7.5 14 C 7.5 15.386634 6.3866342 16.5 5 16.5 C 3.6133658 16.5 2.5 15.386634 2.5 14 C 2.5 12.613366 3.6133658 11.5 5 11.5 z " />
</svg>
