<?xml version="1.0" encoding="UTF-8" standalone="no"?>
<svg
   width="24"
   height="24"
   viewBox="0 0 24 24"
   fill="none"
   stroke="currentColor"
   stroke-width="1"
   stroke-linecap="round"
   stroke-linejoin="round"
   version="1.1"
   id="svg1"
   sodipodi:docname=".tmp_flame.svg"
   xmlns:inkscape="http://www.inkscape.org/namespaces/inkscape"
   xmlns:sodipodi="http://sodipodi.sourceforge.net/DTD/sodipodi-0.dtd"
   xmlns="http://www.w3.org/2000/svg"
   xmlns:svg="http://www.w3.org/2000/svg">
  <defs
     id="defs1" />
  <sodipodi:namedview
     id="namedview1"
     pagecolor="#ffffff"
     bordercolor="#000000"
     borderopacity="0.25"
     inkscape:showpageshadow="2"
     inkscape:pageopacity="0.0"
     inkscape:pagecheckerboard="0"
     inkscape:deskcolor="#d1d1d1" />
  <path
     id="path1"
     style="baseline-shift:baseline;display:inline;overflow:visible;vector-effect:none;fill:#000000;stroke:none;stroke-linecap:butt;stroke-linejoin:miter;enable-background:accumulate;stop-color:#000000;stop-opacity:1;opacity:1"
     d="M 12.054688 2.5039062 A 0.5 0.5 0 0 0 11.921875 2.5410156 A 0.5 0.5 0 0 0 11.878906 2.515625 A 0.5 0.5 0 0 0 11.792969 2.5800781 A 0.5 0.5 0 0 0 11.6875 2.609375 C 9.9573481 3.9934965 9 5.4583333 9 7 C 9 8.125 9.4277344 8.9726562 9.8027344 9.7226562 C 10.177734 10.472656 10.5 11.125 10.5 12 C 10.5 12.708333 10.252378 13.176923 9.8867188 13.501953 C 9.5210596 13.826983 9.0138889 14 8.5 14 C 7.9861111 14 7.4789403 13.826983 7.1132812 13.501953 C 6.7476223 13.176923 6.5 12.708333 6.5 12 A 0.50005 0.50005 0 0 0 5.5996094 11.699219 C 4.8856304 12.651191 4.5 13.810035 4.5 15 C 4.5 19.136216 7.8637873 22.5 12 22.5 C 16.136213 22.5 19.5 19.136216 19.5 15 C 19.5 12.833333 18.395875 10.84487 16.320312 9.1152344 C 14.400073 7.5150349 13.128453 5.4552165 12.484375 2.8789062 A 0.5 0.5 0 0 0 12.4375 2.8515625 A 0.5 0.5 0 0 0 12.390625 2.6875 A 0.5 0.5 0 0 0 12.054688 2.5039062 z M 11.835938 3.8945312 C 12.584433 6.2786655 13.813491 8.3296021 15.679688 9.8847656 C 17.604124 11.488463 18.5 13.166667 18.5 15 C 18.5 18.595776 15.595774 21.5 12 21.5 C 8.4042264 21.5 5.5 18.595776 5.5 15 C 5.5 14.489988 5.8042501 14.061051 5.9707031 13.585938 C 6.1145795 13.82397 6.2509256 14.071786 6.4492188 14.248047 C 7.0210598 14.75635 7.7638889 15 8.5 15 C 9.2361111 15 9.9789405 14.75635 10.550781 14.248047 C 11.122622 13.739744 11.5 12.958333 11.5 12 C 11.5 10.875 11.072266 10.027344 10.697266 9.2773438 C 10.322266 8.5273438 10 7.875 10 7 C 10 6.0273003 10.656152 4.9846524 11.835938 3.8945312 z " />
</svg>
