<?xml version="1.0" encoding="UTF-8" standalone="no"?>
<svg
   width="24"
   height="24"
   viewBox="0 0 24 24"
   fill="none"
   stroke="currentColor"
   stroke-width="1"
   stroke-linecap="round"
   stroke-linejoin="round"
   version="1.1"
   id="svg5"
   sodipodi:docname=".tmp_folder-sync.svg"
   xmlns:inkscape="http://www.inkscape.org/namespaces/inkscape"
   xmlns:sodipodi="http://sodipodi.sourceforge.net/DTD/sodipodi-0.dtd"
   xmlns="http://www.w3.org/2000/svg"
   xmlns:svg="http://www.w3.org/2000/svg">
  <defs
     id="defs5" />
  <sodipodi:namedview
     id="namedview5"
     pagecolor="#ffffff"
     bordercolor="#000000"
     borderopacity="0.25"
     inkscape:showpageshadow="2"
     inkscape:pageopacity="0.0"
     inkscape:pagecheckerboard="0"
     inkscape:deskcolor="#d1d1d1" />
  <path
     id="path1"
     style="baseline-shift:baseline;display:inline;overflow:visible;vector-effect:none;fill:#000000;stroke:none;stroke-linecap:butt;stroke-linejoin:miter;enable-background:accumulate;stop-color:#000000;stop-opacity:1;opacity:1"
     d="M 4 2.5 C 2.6252104 2.5 1.5 3.6252104 1.5 5 L 1.5 18 C 1.5 19.37479 2.6252104 20.5 4 20.5 L 9 20.5 A 0.5 0.5 0 0 0 9.5 20 A 0.5 0.5 0 0 0 9 19.5 L 4 19.5 C 3.1656506 19.5 2.5 18.834349 2.5 18 L 2.5 5 C 2.5 4.1656506 3.1656506 3.5 4 3.5 L 7.9003906 3.5 A 0.50005 0.50005 0 0 0 7.9042969 3.5 C 8.4146798 3.495 8.8911754 3.7494908 9.171875 4.1757812 A 0.50005 0.50005 0 0 0 9.1757812 4.1796875 L 9.9824219 5.375 C 10.444494 6.0766481 11.23018 6.4998617 12.070312 6.5 L 20 6.5 C 20.834349 6.5 21.5 7.1656506 21.5 8 L 21.5 8.5 A 0.5 0.5 0 0 0 22 9 A 0.5 0.5 0 0 0 22.5 8.5 L 22.5 8 C 22.5 6.6252104 21.37479 5.5 20 5.5 L 12.070312 5.5 C 11.56527 5.4999168 11.096132 5.2460115 10.818359 4.8242188 A 0.50005 0.50005 0 0 0 10.814453 4.8203125 L 10.007812 3.625 L 10.003906 3.6210938 C 9.5365692 2.9148742 8.7415881 2.4916953 7.8945312 2.5 L 4 2.5 z M 12 9.5 A 0.5 0.5 0 0 0 11.5 10 L 11.5 14 A 0.5 0.5 0 0 0 11.503906 14.058594 A 0.50005 0.50005 0 0 0 11.509766 14.089844 A 0.5 0.5 0 0 0 11.517578 14.128906 A 0.5 0.5 0 0 0 11.525391 14.152344 A 0.50005 0.50005 0 0 0 11.566406 14.25 A 0.5 0.5 0 0 0 11.568359 14.253906 A 0.50005 0.50005 0 0 0 11.603516 14.304688 A 0.5 0.5 0 0 0 11.634766 14.339844 A 0.50005 0.50005 0 0 0 11.650391 14.355469 A 0.5 0.5 0 0 0 11.654297 14.361328 A 0.5 0.5 0 0 0 11.667969 14.371094 A 0.50005 0.50005 0 0 0 11.814453 14.464844 A 0.5 0.5 0 0 0 11.818359 14.466797 A 0.50005 0.50005 0 0 0 11.871094 14.482422 A 0.5 0.5 0 0 0 11.910156 14.490234 A 0.50005 0.50005 0 0 0 12 14.5 A 0.5 0.5 0 0 0 12.009766 14.5 L 16 14.5 A 0.5 0.5 0 0 0 16.5 14 A 0.5 0.5 0 0 0 16 13.5 L 13.169922 13.5 L 13.882812 12.755859 C 16.120996 10.606404 19.775454 11.290375 21.082031 14.105469 A 0.5 0.5 0 0 0 21.746094 14.347656 A 0.5 0.5 0 0 0 21.988281 13.683594 C 21.196711 11.978112 19.674917 10.915365 18.011719 10.603516 C 16.348521 10.291666 14.545091 10.732276 13.189453 12.035156 A 0.50005 0.50005 0 0 0 13.173828 12.048828 L 12.5 12.753906 L 12.5 10 A 0.5 0.5 0 0 0 12 9.5 z M 18 17.5 A 0.5 0.5 0 0 0 17.5 18 A 0.5 0.5 0 0 0 18 18.5 L 20.830078 18.5 L 20.119141 19.244141 L 20.117188 19.244141 C 17.879003 21.393596 14.224546 20.709625 12.917969 17.894531 A 0.5 0.5 0 0 0 12.253906 17.652344 A 0.5 0.5 0 0 0 12.011719 18.316406 C 13.594859 21.72737 18.099271 22.570605 20.810547 19.964844 A 0.50005 0.50005 0 0 0 20.826172 19.951172 L 21.5 19.246094 L 21.5 22 A 0.5 0.5 0 0 0 22 22.5 A 0.5 0.5 0 0 0 22.5 22 L 22.5 18.007812 A 0.5 0.5 0 0 0 22.5 18 A 0.50005 0.50005 0 0 0 22.496094 17.939453 A 0.5 0.5 0 0 0 22.496094 17.935547 A 0.50005 0.50005 0 0 0 22.460938 17.806641 A 0.50005 0.50005 0 0 0 22.429688 17.746094 A 0.5 0.5 0 0 0 22.396484 17.695312 A 0.50005 0.50005 0 0 0 22.392578 17.689453 A 0.5 0.5 0 0 0 22.353516 17.646484 A 0.50005 0.50005 0 0 0 22.345703 17.638672 A 0.5 0.5 0 0 0 22.332031 17.628906 A 0.50005 0.50005 0 0 0 22.294922 17.597656 A 0.50005 0.50005 0 0 0 22.240234 17.5625 A 0.5 0.5 0 0 0 22.191406 17.537109 A 0.50005 0.50005 0 0 0 22.181641 17.533203 A 0.5 0.5 0 0 0 22.128906 17.517578 A 0.5 0.5 0 0 0 22.089844 17.509766 A 0.50005 0.50005 0 0 0 22.054688 17.503906 A 0.5 0.5 0 0 0 22 17.5 L 21.990234 17.5 L 18 17.5 z " />
</svg>
