<?xml version="1.0" encoding="UTF-8" standalone="no"?>
<svg
   width="24"
   height="24"
   viewBox="0 0 24 24"
   fill="none"
   stroke="currentColor"
   stroke-width="1"
   stroke-linecap="round"
   stroke-linejoin="round"
   version="1.1"
   id="svg2"
   sodipodi:docname=".tmp_grid-2x2.svg"
   xmlns:inkscape="http://www.inkscape.org/namespaces/inkscape"
   xmlns:sodipodi="http://sodipodi.sourceforge.net/DTD/sodipodi-0.dtd"
   xmlns="http://www.w3.org/2000/svg"
   xmlns:svg="http://www.w3.org/2000/svg">
  <defs
     id="defs2" />
  <sodipodi:namedview
     id="namedview2"
     pagecolor="#ffffff"
     bordercolor="#000000"
     borderopacity="0.25"
     inkscape:showpageshadow="2"
     inkscape:pageopacity="0.0"
     inkscape:pagecheckerboard="0"
     inkscape:deskcolor="#d1d1d1" />
  <path
     id="path1"
     style="baseline-shift:baseline;display:inline;overflow:visible;vector-effect:none;fill:#000000;stroke:none;stroke-linecap:butt;stroke-linejoin:miter;enable-background:accumulate;stop-color:#000000;stop-opacity:1;opacity:1"
     d="M 5 2.5 C 3.6236486 2.5 2.5 3.6236486 2.5 5 L 2.5 12 L 2.5 19 C 2.5 20.376351 3.6236486 21.5 5 21.5 L 12 21.5 L 19 21.5 C 20.376351 21.5 21.5 20.376351 21.5 19 L 21.5 12 L 21.5 5 C 21.5 3.6236486 20.376351 2.5 19 2.5 L 12 2.5 L 5 2.5 z M 5 3.5 L 11.5 3.5 L 11.5 11.5 L 3.5 11.5 L 3.5 5 C 3.5 4.1603514 4.1603514 3.5 5 3.5 z M 12.5 3.5 L 19 3.5 C 19.839649 3.5 20.5 4.1603514 20.5 5 L 20.5 11.5 L 12.5 11.5 L 12.5 3.5 z M 3.5 12.5 L 11.5 12.5 L 11.5 20.5 L 5 20.5 C 4.1603514 20.5 3.5 19.839649 3.5 19 L 3.5 12.5 z M 12.5 12.5 L 20.5 12.5 L 20.5 19 C 20.5 19.839649 19.839649 20.5 19 20.5 L 12.5 20.5 L 12.5 12.5 z " />
</svg>
