<?xml version="1.0" encoding="UTF-8" standalone="no"?>
<svg
   width="24"
   height="24"
   viewBox="0 0 24 24"
   fill="none"
   stroke="currentColor"
   stroke-width="1"
   stroke-linecap="round"
   stroke-linejoin="round"
   version="1.1"
   id="svg4"
   sodipodi:docname=".tmp_hand-coins.svg"
   xmlns:inkscape="http://www.inkscape.org/namespaces/inkscape"
   xmlns:sodipodi="http://sodipodi.sourceforge.net/DTD/sodipodi-0.dtd"
   xmlns="http://www.w3.org/2000/svg"
   xmlns:svg="http://www.w3.org/2000/svg">
  <defs
     id="defs4" />
  <sodipodi:namedview
     id="namedview4"
     pagecolor="#ffffff"
     bordercolor="#000000"
     borderopacity="0.25"
     inkscape:showpageshadow="2"
     inkscape:pageopacity="0.0"
     inkscape:pagecheckerboard="0"
     inkscape:deskcolor="#d1d1d1" />
  <path
     id="path1"
     style="baseline-shift:baseline;display:inline;overflow:visible;vector-effect:none;fill:#000000;stroke:none;stroke-linecap:butt;stroke-linejoin:miter;enable-background:accumulate;stop-color:#000000;stop-opacity:1;opacity:1"
     d="M 6 1.5 C 4.0729257 1.5 2.5 3.0729257 2.5 5 C 2.5 6.9270743 4.0729257 8.5 6 8.5 C 7.9270743 8.5 9.5 6.9270743 9.5 5 C 9.5 3.0729257 7.9270743 1.5 6 1.5 z M 6 2.5 C 7.3866342 2.5 8.5 3.6133658 8.5 5 C 8.5 6.3866342 7.3866342 7.5 6 7.5 C 4.6133658 7.5 3.5 6.3866342 3.5 5 C 3.5 3.6133658 4.6133658 2.5 6 2.5 z M 16 5.5996094 C 14.128154 5.5996094 12.599609 7.1281541 12.599609 9 C 12.599609 9.5376913 12.72506 10.047056 12.949219 10.5 L 10 10.5 C 9.3019562 10.5 8.6365928 10.742977 8.2226562 11.271484 L 3.0058594 16.298828 L 2.3535156 15.646484 A 0.5 0.5 0 0 0 2 15.5 A 0.5 0.5 0 0 0 1.6464844 15.646484 A 0.5 0.5 0 0 0 1.6464844 16.353516 L 2.640625 17.347656 A 0.5 0.5 0 0 0 2.6523438 17.359375 L 6.6230469 21.330078 A 0.5 0.5 0 0 0 6.671875 21.378906 L 7.6464844 22.353516 A 0.5 0.5 0 0 0 8.3535156 22.353516 A 0.5 0.5 0 0 0 8.3535156 21.646484 L 7.7324219 21.025391 L 8.9296875 19.976562 A 0.50005 0.50005 0 0 0 9 19.900391 C 9.188 19.649724 9.5111111 19.5 10 19.5 L 14 19.5 C 15.20635 19.5 16.346789 19.055354 17.146484 18.162109 L 17.154297 18.154297 L 21.744141 13.763672 C 22.319991 13.219483 22.580065 12.538283 22.560547 11.898438 C 22.541032 11.258595 22.263816 10.671068 21.84375 10.226562 C 21.423684 9.7820559 20.852565 9.4716488 20.214844 9.4160156 C 19.936772 9.3917574 19.648428 9.4207688 19.363281 9.5058594 C 19.388082 9.3408737 19.400391 9.1716755 19.400391 9 C 19.400391 7.1281541 17.871846 5.5996094 16 5.5996094 z M 16 6.5996094 C 17.331406 6.5996094 18.400391 7.6685942 18.400391 9 C 18.400391 9.6263903 18.164626 10.194867 17.775391 10.621094 L 17.505859 10.871094 C 17.094657 11.201856 16.572102 11.400391 16 11.400391 C 14.668594 11.400391 13.599609 10.331406 13.599609 9 C 13.599609 7.6685942 14.668594 6.5996094 16 6.5996094 z M 19.990234 10.40625 C 20.03601 10.405802 20.08159 10.408152 20.126953 10.412109 C 20.489856 10.443769 20.849753 10.631069 21.117188 10.914062 C 21.384622 11.197055 21.551393 11.565575 21.5625 11.929688 C 21.57361 12.2938 21.45079 12.664632 21.056641 13.037109 A 0.50005 0.50005 0 0 0 21.054688 13.039062 L 16.455078 17.439453 A 0.50005 0.50005 0 0 0 16.423828 17.470703 C 15.82489 18.155265 14.978788 18.5 14 18.5 L 10 18.5 C 9.3064346 18.5 8.6429988 18.740249 8.2285156 19.261719 L 7.0214844 20.314453 L 3.7128906 17.005859 L 8.9472656 11.958984 A 0.50005 0.50005 0 0 0 9 11.900391 C 9.188 11.649724 9.5111111 11.5 10 11.5 L 13 11.5 C 13.541666 11.5 13.885256 11.685122 14.126953 11.957031 C 14.36865 12.22894 14.5 12.611111 14.5 13 C 14.5 13.330099 14.402994 13.65697 14.226562 13.914062 L 14.109375 14.023438 A 0.5 0.5 0 0 0 14.001953 14.166016 C 13.769523 14.368702 13.45464 14.5 13 14.5 L 11 14.5 A 0.5 0.5 0 0 0 10.5 15 A 0.5 0.5 0 0 0 11 15.5 L 13 15.5 C 13.791666 15.5 14.448077 15.185122 14.873047 14.707031 C 14.907845 14.667883 14.940837 14.626879 14.972656 14.585938 L 18.210938 11.580078 C 18.279267 11.521434 18.346666 11.458322 18.410156 11.394531 L 18.990234 10.855469 A 0.50005 0.50005 0 0 0 18.994141 10.853516 C 19.339021 10.527597 19.669806 10.409387 19.990234 10.40625 z M 15.421875 12.351562 C 15.56526 12.376315 15.712528 12.392384 15.861328 12.398438 L 15.488281 12.744141 C 15.475969 12.612175 15.453574 12.480758 15.421875 12.351562 z " />
</svg>
