<?xml version="1.0" encoding="UTF-8" standalone="no"?>
<svg
   width="24"
   height="24"
   viewBox="0 0 24 24"
   fill="none"
   stroke="currentColor"
   stroke-width="1"
   stroke-linecap="round"
   stroke-linejoin="round"
   version="1.1"
   id="svg3"
   sodipodi:docname=".tmp_hand-helping.svg"
   xmlns:inkscape="http://www.inkscape.org/namespaces/inkscape"
   xmlns:sodipodi="http://sodipodi.sourceforge.net/DTD/sodipodi-0.dtd"
   xmlns="http://www.w3.org/2000/svg"
   xmlns:svg="http://www.w3.org/2000/svg">
  <defs
     id="defs3" />
  <sodipodi:namedview
     id="namedview3"
     pagecolor="#ffffff"
     bordercolor="#000000"
     borderopacity="0.25"
     inkscape:showpageshadow="2"
     inkscape:pageopacity="0.0"
     inkscape:pagecheckerboard="0"
     inkscape:deskcolor="#d1d1d1" />
  <path
     id="path1"
     style="baseline-shift:baseline;display:inline;overflow:visible;vector-effect:none;fill:#000000;stroke:none;stroke-linecap:butt;stroke-linejoin:miter;enable-background:accumulate;stop-color:#000000;stop-opacity:1;opacity:1"
     d="M 19.972656 6.4082031 C 19.404603 6.4209387 18.810509 6.6507881 18.306641 7.1269531 L 15.488281 9.7441406 C 15.43932 9.2193705 15.238564 8.7041764 14.873047 8.2929688 C 14.448077 7.8148777 13.791666 7.5 13 7.5 L 10 7.5 C 9.3019508 7.5 8.6365921 7.7429682 8.2226562 8.2714844 L 3.0058594 13.298828 L 2.3535156 12.646484 A 0.5 0.5 0 0 0 2 12.5 A 0.5 0.5 0 0 0 1.6464844 12.646484 A 0.5 0.5 0 0 0 1.6464844 13.353516 L 2.640625 14.347656 A 0.5 0.5 0 0 0 2.6523438 14.359375 L 6.6230469 18.330078 A 0.5 0.5 0 0 0 6.671875 18.378906 L 7.6464844 19.353516 A 0.5 0.5 0 0 0 8.3535156 19.353516 A 0.5 0.5 0 0 0 8.3535156 18.646484 L 7.7324219 18.025391 L 8.9296875 16.976562 A 0.50005 0.50005 0 0 0 9 16.900391 C 9.188 16.649724 9.5111111 16.5 10 16.5 L 14 16.5 C 15.20635 16.5 16.346789 16.055354 17.146484 15.162109 L 17.154297 15.154297 L 21.744141 10.763672 C 22.319994 10.219486 22.580065 9.5382835 22.560547 8.8984375 C 22.541029 8.2585915 22.263816 7.6710686 21.84375 7.2265625 C 21.423684 6.7820564 20.852565 6.4716488 20.214844 6.4160156 C 20.135129 6.4090615 20.053807 6.4063838 19.972656 6.4082031 z M 19.990234 7.40625 C 20.03601 7.4058019 20.08159 7.408152 20.126953 7.4121094 C 20.489856 7.4437684 20.849753 7.6310686 21.117188 7.9140625 C 21.384622 8.1970564 21.551393 8.5655753 21.5625 8.9296875 C 21.57361 9.2937997 21.45079 9.6646321 21.056641 10.037109 A 0.50005 0.50005 0 0 0 21.054688 10.039062 L 16.455078 14.439453 A 0.50005 0.50005 0 0 0 16.423828 14.470703 C 15.824884 15.155218 14.978788 15.5 14 15.5 L 10 15.5 C 9.3064346 15.5 8.6429988 15.740249 8.2285156 16.261719 L 7.0214844 17.314453 L 3.7128906 14.005859 L 8.9472656 8.9589844 A 0.50005 0.50005 0 0 0 9 8.9003906 C 9.188 8.649724 9.5111111 8.5 10 8.5 L 13 8.5 C 13.541666 8.5 13.885256 8.6851222 14.126953 8.9570312 C 14.36865 9.2289402 14.5 9.6111111 14.5 10 C 14.5 10.330099 14.402994 10.65697 14.226562 10.914062 L 14.109375 11.023438 A 0.5 0.5 0 0 0 14.001953 11.166016 C 13.769523 11.368702 13.45464 11.5 13 11.5 L 11 11.5 A 0.5 0.5 0 0 0 10.5 12 A 0.5 0.5 0 0 0 11 12.5 L 13 12.5 C 13.791666 12.5 14.448077 12.185122 14.873047 11.707031 C 14.907845 11.667883 14.940837 11.626879 14.972656 11.585938 L 18.990234 7.8554688 A 0.50005 0.50005 0 0 0 18.994141 7.8535156 C 19.339026 7.527595 19.669806 7.4093867 19.990234 7.40625 z " />
</svg>
