<?xml version="1.0" encoding="UTF-8" standalone="no"?>
<svg
   width="24"
   height="24"
   viewBox="0 0 24 24"
   fill="none"
   stroke="currentColor"
   stroke-width="1"
   stroke-linecap="round"
   stroke-linejoin="round"
   version="1.1"
   id="svg4"
   sodipodi:docname=".tmp_hand.svg"
   xmlns:inkscape="http://www.inkscape.org/namespaces/inkscape"
   xmlns:sodipodi="http://sodipodi.sourceforge.net/DTD/sodipodi-0.dtd"
   xmlns="http://www.w3.org/2000/svg"
   xmlns:svg="http://www.w3.org/2000/svg">
  <defs
     id="defs4" />
  <sodipodi:namedview
     id="namedview4"
     pagecolor="#ffffff"
     bordercolor="#000000"
     borderopacity="0.25"
     inkscape:showpageshadow="2"
     inkscape:pageopacity="0.0"
     inkscape:pagecheckerboard="0"
     inkscape:deskcolor="#d1d1d1" />
  <path
     id="path1"
     style="baseline-shift:baseline;display:inline;overflow:visible;vector-effect:none;fill:#000000;stroke:none;stroke-linecap:butt;stroke-linejoin:miter;enable-background:accumulate;stop-color:#000000;stop-opacity:1;opacity:1"
     d="M 12 1.5 C 10.62521 1.5 9.5 2.6252104 9.5 4 L 9.5 4.0039062 C 9.0814131 3.6881411 8.5615248 3.5 8 3.5 C 6.6252104 3.5 5.5 4.6252104 5.5 6 L 5.5 12.802734 C 4.9557891 12.3417 4.3191903 12.152181 3.7285156 12.197266 C 3.1100553 12.244466 2.5489446 12.530665 2.1289062 12.949219 C 1.7088679 13.367773 1.4204875 13.926633 1.3710938 14.544922 C 1.3216998 15.163211 1.5314484 15.832341 2.0390625 16.394531 A 0.50005 0.50005 0 0 0 2.0566406 16.414062 L 5.65625 20.013672 A 0.50005 0.50005 0 0 0 5.6582031 20.015625 C 7.2144065 21.561337 9.097619 22.5 12 22.5 L 14 22.5 C 18.688498 22.5 22.5 18.688498 22.5 14 L 22.5 8 C 22.5 7.2083336 22.185122 6.5519227 21.707031 6.1269531 C 21.22894 5.7019836 20.611111 5.5 20 5.5 C 19.473709 5.5 18.94271 5.6498649 18.5 5.9628906 C 18.47994 4.6050471 17.36238 3.5 16 3.5 C 15.438475 3.5 14.918587 3.6881412 14.5 4.0039062 L 14.5 4 C 14.5 2.6252104 13.37479 1.5 12 1.5 z M 12 2.5 C 12.834349 2.5 13.5 3.1656506 13.5 4 L 13.5 10 A 0.5 0.5 0 0 0 14 10.5 A 0.5 0.5 0 0 0 14.5 10 L 14.5 6 C 14.5 5.1656506 15.165651 4.5 16 4.5 C 16.834349 4.5 17.5 5.1656506 17.5 6 L 17.5 8 L 17.5 11 A 0.5 0.5 0 0 0 18 11.5 A 0.5 0.5 0 0 0 18.5 11 L 18.5 8 C 18.5 7.4583337 18.685122 7.1147437 18.957031 6.8730469 C 19.22894 6.6313501 19.611111 6.5 20 6.5 C 20.388889 6.5 20.77106 6.6313501 21.042969 6.8730469 C 21.314878 7.1147437 21.5 7.4583337 21.5 8 L 21.5 14 C 21.5 18.148058 18.148058 21.5 14 21.5 L 12 21.5 C 9.302381 21.5 7.787081 20.718932 6.3632812 19.304688 L 2.78125 15.724609 C 2.4382306 15.34471 2.3408631 14.978966 2.3691406 14.625 C 2.3974186 14.271034 2.5705854 13.920664 2.8359375 13.65625 C 3.1012896 13.391836 3.4506239 13.220384 3.8046875 13.193359 C 4.1574427 13.166439 4.5231968 13.266139 4.9003906 13.607422 L 4.9023438 13.607422 L 4.9023438 13.609375 L 4.9042969 13.609375 L 5.6269531 14.332031 A 0.5 0.5 0 0 0 5.6679688 14.373047 L 6.6464844 15.353516 A 0.5 0.5 0 0 0 7.3535156 15.353516 A 0.5 0.5 0 0 0 7.3535156 14.646484 L 6.5 13.792969 L 6.5 6 C 6.5 5.1656506 7.1656506 4.5 8 4.5 C 8.8343494 4.5 9.5 5.1656506 9.5 6 L 9.5 10.5 A 0.5 0.5 0 0 0 10 11 A 0.5 0.5 0 0 0 10.5 10.5 L 10.5 6 L 10.5 4 C 10.5 3.1656506 11.165651 2.5 12 2.5 z " />
</svg>
