<?xml version="1.0" encoding="UTF-8" standalone="no"?>
<svg
   width="24"
   height="24"
   viewBox="0 0 24 24"
   fill="none"
   stroke="currentColor"
   stroke-width="1"
   stroke-linecap="round"
   stroke-linejoin="round"
   version="1.1"
   id="svg3"
   sodipodi:docname=".tmp_image-down.svg"
   xmlns:inkscape="http://www.inkscape.org/namespaces/inkscape"
   xmlns:sodipodi="http://sodipodi.sourceforge.net/DTD/sodipodi-0.dtd"
   xmlns="http://www.w3.org/2000/svg"
   xmlns:svg="http://www.w3.org/2000/svg">
  <defs
     id="defs3" />
  <sodipodi:namedview
     id="namedview3"
     pagecolor="#ffffff"
     bordercolor="#000000"
     borderopacity="0.25"
     inkscape:showpageshadow="2"
     inkscape:pageopacity="0.0"
     inkscape:pagecheckerboard="0"
     inkscape:deskcolor="#d1d1d1" />
  <path
     id="path1"
     style="baseline-shift:baseline;display:inline;overflow:visible;vector-effect:none;fill:#000000;stroke:none;stroke-linecap:butt;stroke-linejoin:miter;enable-background:accumulate;stop-color:#000000;stop-opacity:1;opacity:1"
     d="M 5 2.5 C 3.6252104 2.5 2.5 3.6252104 2.5 5 L 2.5 19 C 2.5 20.37479 3.6252104 21.5 5 21.5 L 6 21.5 L 10.300781 21.5 A 0.5 0.5 0 0 0 10.800781 21 A 0.5 0.5 0 0 0 10.300781 20.5 L 7.2070312 20.5 L 15.439453 12.267578 C 16.025155 11.681994 16.959282 11.67812 17.550781 12.257812 L 20.646484 15.353516 A 0.50005 0.50005 0 0 0 21.5 15 L 21.5 5 C 21.5 3.6252104 20.37479 2.5 19 2.5 L 5 2.5 z M 5 3.5 L 19 3.5 C 19.834349 3.5 20.5 4.1656506 20.5 5 L 20.5 13.792969 L 18.253906 11.546875 A 0.50005 0.50005 0 0 0 18.25 11.542969 C 17.275094 10.587465 15.697772 10.595388 14.732422 11.560547 L 5.7929688 20.5 L 5 20.5 C 4.1656506 20.5 3.5 19.834349 3.5 19 L 3.5 5 C 3.5 4.1656506 4.1656506 3.5 5 3.5 z M 9 6.5 C 7.6252104 6.5 6.5 7.6252104 6.5 9 C 6.5 10.37479 7.6252104 11.5 9 11.5 C 10.37479 11.5 11.5 10.37479 11.5 9 C 11.5 7.6252104 10.37479 6.5 9 6.5 z M 9 7.5 C 9.8343494 7.5 10.5 8.1656506 10.5 9 C 10.5 9.8343494 9.8343494 10.5 9 10.5 C 8.1656506 10.5 7.5 9.8343494 7.5 9 C 7.5 8.1656506 8.1656506 7.5 9 7.5 z M 17 16 A 0.5 0.5 0 0 0 16.5 16.5 L 16.5 20.792969 L 14.353516 18.646484 A 0.5 0.5 0 0 0 13.646484 18.646484 A 0.5 0.5 0 0 0 13.646484 19.353516 L 16.646484 22.353516 A 0.5 0.5 0 0 0 16.695312 22.396484 A 0.50005 0.50005 0 0 0 16.699219 22.398438 A 0.5 0.5 0 0 0 16.75 22.433594 A 0.50005 0.50005 0 0 0 16.755859 22.4375 A 0.5 0.5 0 0 0 16.808594 22.460938 A 0.50005 0.50005 0 0 0 16.873047 22.482422 A 0.50005 0.50005 0 0 0 16.910156 22.490234 A 0.5 0.5 0 0 0 16.935547 22.496094 A 0.50005 0.50005 0 0 0 16.953125 22.498047 A 0.5 0.5 0 0 0 16.980469 22.498047 A 0.50005 0.50005 0 0 0 17.050781 22.496094 A 0.5 0.5 0 0 0 17.064453 22.496094 A 0.50005 0.50005 0 0 0 17.128906 22.482422 A 0.50005 0.50005 0 0 0 17.201172 22.457031 A 0.5 0.5 0 0 0 17.222656 22.447266 A 0.50005 0.50005 0 0 0 17.230469 22.443359 A 0.5 0.5 0 0 0 17.283203 22.412109 A 0.50005 0.50005 0 0 0 17.291016 22.40625 A 0.5 0.5 0 0 0 17.335938 22.369141 A 0.50005 0.50005 0 0 0 17.335938 22.367188 A 0.5 0.5 0 0 0 17.353516 22.353516 L 20.353516 19.353516 A 0.5 0.5 0 0 0 20.353516 18.646484 A 0.5 0.5 0 0 0 19.646484 18.646484 L 17.5 20.792969 L 17.5 16.5 A 0.5 0.5 0 0 0 17 16 z " />
</svg>
