<?xml version="1.0" encoding="UTF-8" standalone="no"?>
<svg
   width="24"
   height="24"
   viewBox="0 0 24 24"
   fill="none"
   stroke="currentColor"
   stroke-width="1"
   stroke-linecap="round"
   stroke-linejoin="round"
   version="1.1"
   id="svg1"
   sodipodi:docname=".tmp_inbox.svg"
   xmlns:inkscape="http://www.inkscape.org/namespaces/inkscape"
   xmlns:sodipodi="http://sodipodi.sourceforge.net/DTD/sodipodi-0.dtd"
   xmlns="http://www.w3.org/2000/svg"
   xmlns:svg="http://www.w3.org/2000/svg">
  <defs
     id="defs1" />
  <sodipodi:namedview
     id="namedview1"
     pagecolor="#ffffff"
     bordercolor="#000000"
     borderopacity="0.25"
     inkscape:showpageshadow="2"
     inkscape:pageopacity="0.0"
     inkscape:pagecheckerboard="0"
     inkscape:deskcolor="#d1d1d1" />
  <path
     id="polyline1"
     style="baseline-shift:baseline;display:inline;overflow:visible;vector-effect:none;fill:#000000;stroke:none;stroke-linecap:butt;stroke-linejoin:miter;enable-background:accumulate;stop-color:#000000;stop-opacity:1;opacity:1"
     d="M 7.2402344 3.5 C 6.2926197 3.5005028 5.4236416 4.0381007 5.0019531 4.8867188 L 1.5664062 11.75 L 1.5527344 11.775391 A 0.50005 0.50005 0 0 0 1.5449219 11.792969 A 0.5 0.5 0 0 0 1.5351562 11.814453 A 0.50005 0.50005 0 0 0 1.5175781 11.871094 A 0.50005 0.50005 0 0 0 1.5097656 11.910156 A 0.5 0.5 0 0 0 1.5039062 11.935547 A 0.50005 0.50005 0 0 0 1.5039062 11.941406 A 0.5 0.5 0 0 0 1.5 12 L 1.5 18 C 1.5 19.37479 2.6252104 20.5 4 20.5 L 20 20.5 C 21.37479 20.5 22.5 19.37479 22.5 18 L 22.5 12 A 0.5 0.5 0 0 0 22.496094 11.941406 A 0.50005 0.50005 0 0 0 22.496094 11.935547 A 0.5 0.5 0 0 0 22.486328 11.884766 A 0.50005 0.50005 0 0 0 22.482422 11.871094 A 0.50005 0.50005 0 0 0 22.464844 11.814453 A 0.50005 0.50005 0 0 0 22.462891 11.808594 A 0.5 0.5 0 0 0 22.447266 11.775391 L 22.433594 11.75 L 18.998047 4.8867188 C 18.576358 4.0381006 17.70738 3.5005028 16.759766 3.5 L 7.2402344 3.5 z M 7.2402344 4.5 L 16.759766 4.5 C 17.330039 4.5003026 17.847791 4.8213341 18.101562 5.3320312 A 0.50005 0.50005 0 0 0 18.103516 5.3339844 L 21.189453 11.5 L 16 11.5 A 0.50005 0.50005 0 0 0 15.583984 11.722656 L 13.732422 14.5 L 10.267578 14.5 L 8.4160156 11.722656 A 0.50005 0.50005 0 0 0 8 11.5 L 2.8105469 11.5 L 5.8964844 5.3339844 A 0.50005 0.50005 0 0 0 5.8984375 5.3320312 C 6.1522122 4.8213308 6.6699611 4.5003026 7.2402344 4.5 z M 2.5 12.5 L 7.7324219 12.5 L 9.5839844 15.277344 A 0.50005 0.50005 0 0 0 10 15.5 L 14 15.5 A 0.50005 0.50005 0 0 0 14.416016 15.277344 L 16.267578 12.5 L 21.5 12.5 L 21.5 18 C 21.5 18.834349 20.834349 19.5 20 19.5 L 4 19.5 C 3.1656506 19.5 2.5 18.834349 2.5 18 L 2.5 12.5 z " />
</svg>
