<?xml version="1.0" encoding="UTF-8" standalone="no"?>
<svg
   width="24"
   height="24"
   viewBox="0 0 24 24"
   fill="none"
   stroke="currentColor"
   stroke-width="1"
   stroke-linecap="round"
   stroke-linejoin="round"
   version="1.1"
   id="svg3"
   sodipodi:docname=".tmp_lamp-ceiling.svg"
   xmlns:inkscape="http://www.inkscape.org/namespaces/inkscape"
   xmlns:sodipodi="http://sodipodi.sourceforge.net/DTD/sodipodi-0.dtd"
   xmlns="http://www.w3.org/2000/svg"
   xmlns:svg="http://www.w3.org/2000/svg">
  <defs
     id="defs3" />
  <sodipodi:namedview
     id="namedview3"
     pagecolor="#ffffff"
     bordercolor="#000000"
     borderopacity="0.25"
     inkscape:showpageshadow="2"
     inkscape:pageopacity="0.0"
     inkscape:pagecheckerboard="0"
     inkscape:deskcolor="#d1d1d1" />
  <path
     id="path1"
     style="baseline-shift:baseline;display:inline;overflow:visible;vector-effect:none;fill:#000000;stroke:none;stroke-linecap:butt;stroke-linejoin:miter;enable-background:accumulate;stop-color:#000000;stop-opacity:1;opacity:1"
     d="M 12 1.5 A 0.5 0.5 0 0 0 11.5 2 L 11.5 6.5 L 7 6.5 C 6.4008896 6.4994672 5.8571431 6.8575541 5.6210938 7.4082031 L 2.6210938 14.408203 C 2.2037181 15.381842 2.9406726 16.500943 4 16.5 L 8.5351562 16.5 C 8.2417736 18.543024 9.8361445 20.496094 12 20.496094 C 14.163855 20.496094 15.758227 18.543024 15.464844 16.5 L 20 16.5 C 21.059327 16.500943 21.796282 15.381842 21.378906 14.408203 L 18.378906 7.4082031 C 18.142857 6.8575541 17.59911 6.4994672 17 6.5 L 12.5 6.5 L 12.5 2 A 0.5 0.5 0 0 0 12 1.5 z M 7 7.5 L 12 7.5 L 17 7.5 C 17.201528 7.4998208 17.381535 7.6175075 17.460938 7.8027344 L 20.460938 14.802734 C 20.609611 15.149555 20.377344 15.500336 20 15.5 L 14.867188 15.5 A 0.5 0.5 0 0 0 14.791016 15.5 L 9.2089844 15.5 A 0.5 0.5 0 0 0 9.1328125 15.5 L 4 15.5 C 3.622656 15.500336 3.3903887 15.149555 3.5390625 14.802734 L 6.5390625 7.8027344 C 6.6184646 7.6175075 6.7984717 7.4998208 7 7.5 z M 9.5488281 16.5 L 14.451172 16.5 C 14.770476 18.027929 13.621546 19.496094 12 19.496094 C 10.378454 19.496094 9.2295241 18.027929 9.5488281 16.5 z " />
</svg>
