<?xml version="1.0" encoding="UTF-8" standalone="no"?>
<svg
   width="24"
   height="24"
   viewBox="0 0 24 24"
   fill="none"
   stroke="currentColor"
   stroke-width="1"
   stroke-linecap="round"
   stroke-linejoin="round"
   version="1.1"
   id="svg3"
   sodipodi:docname=".tmp_mars-stroke.svg"
   xmlns:inkscape="http://www.inkscape.org/namespaces/inkscape"
   xmlns:sodipodi="http://sodipodi.sourceforge.net/DTD/sodipodi-0.dtd"
   xmlns="http://www.w3.org/2000/svg"
   xmlns:svg="http://www.w3.org/2000/svg">
  <defs
     id="defs3" />
  <sodipodi:namedview
     id="namedview3"
     pagecolor="#ffffff"
     bordercolor="#000000"
     borderopacity="0.25"
     inkscape:showpageshadow="2"
     inkscape:pageopacity="0.0"
     inkscape:pagecheckerboard="0"
     inkscape:deskcolor="#d1d1d1" />
  <path
     id="path1"
     style="baseline-shift:baseline;display:inline;overflow:visible;vector-effect:none;fill:#000000;stroke:none;stroke-linecap:butt;stroke-linejoin:miter;enable-background:accumulate;stop-color:#000000;stop-opacity:1;opacity:1"
     d="M 17 2.5 A 0.5 0.5 0 0 0 16.5 3 A 0.5 0.5 0 0 0 17 3.5 L 19.792969 3.5 L 16 7.2929688 L 14.353516 5.6464844 A 0.5 0.5 0 0 0 13.646484 5.6464844 A 0.5 0.5 0 0 0 13.646484 6.3535156 L 15.292969 8 L 13.226562 10.066406 C 12.089246 9.0906486 10.612415 8.5 9 8.5 C 5.4160714 8.5 2.5 11.416071 2.5 15 C 2.5 18.583929 5.4160714 21.5 9 21.5 C 12.583929 21.5 15.5 18.583929 15.5 15 C 15.5 13.387585 14.909351 11.910754 13.933594 10.773438 L 16 8.7070312 L 17.646484 10.353516 A 0.5 0.5 0 0 0 18.353516 10.353516 A 0.5 0.5 0 0 0 18.353516 9.6464844 L 16.707031 8 L 20.5 4.2070312 L 20.5 7 A 0.5 0.5 0 0 0 21 7.5 A 0.5 0.5 0 0 0 21.5 7 L 21.5 3 A 0.50005 0.50005 0 0 0 21.353516 2.6464844 A 0.5 0.5 0 0 0 21.25 2.5664062 A 0.50005 0.50005 0 0 0 21 2.5 L 17 2.5 z M 9 9.5 C 12.043488 9.5 14.5 11.956512 14.5 15 C 14.5 18.043488 12.043488 20.5 9 20.5 C 5.9565116 20.5 3.5 18.043488 3.5 15 C 3.5 11.956512 5.9565116 9.5 9 9.5 z " />
</svg>
