<?xml version="1.0" encoding="UTF-8" standalone="no"?>
<svg
   width="24"
   height="24"
   viewBox="0 0 24 24"
   fill="none"
   stroke="currentColor"
   stroke-width="1"
   stroke-linecap="round"
   stroke-linejoin="round"
   version="1.1"
   id="svg3"
   sodipodi:docname=".tmp_megaphone.svg"
   xmlns:inkscape="http://www.inkscape.org/namespaces/inkscape"
   xmlns:sodipodi="http://sodipodi.sourceforge.net/DTD/sodipodi-0.dtd"
   xmlns="http://www.w3.org/2000/svg"
   xmlns:svg="http://www.w3.org/2000/svg">
  <defs
     id="defs3" />
  <sodipodi:namedview
     id="namedview3"
     pagecolor="#ffffff"
     bordercolor="#000000"
     borderopacity="0.25"
     inkscape:showpageshadow="2"
     inkscape:pageopacity="0.0"
     inkscape:pagecheckerboard="0"
     inkscape:deskcolor="#d1d1d1" />
  <path
     id="path1"
     style="baseline-shift:baseline;display:inline;overflow:visible;vector-effect:none;fill:#000000;stroke:none;stroke-linecap:butt;stroke-linejoin:miter;enable-background:accumulate;stop-color:#000000;stop-opacity:1;opacity:1"
     d="M 19.880859 2.5136719 C 19.610406 2.5292327 19.340528 2.6200924 19.099609 2.8007812 A 0.50005 0.50005 0 0 0 19.089844 2.8085938 C 16.795474 4.6235691 13.938179 5.5753356 11.013672 5.5 A 0.50005 0.50005 0 0 0 11 5.5 L 8 5.5 L 5 5.5 C 3.6252104 5.5 2.5 6.6252104 2.5 8 L 2.5 12 C 2.5 13.37479 3.6252104 14.5 5 14.5 L 5.5097656 14.5 C 5.6109287 17.027738 6.4774511 19.469935 8 21.5 C 8.4749999 22.133333 9.120358 22.470316 9.7578125 22.523438 C 10.395267 22.576559 11.011111 22.366667 11.5 22 C 11.988889 21.633333 12.362743 21.10144 12.490234 20.474609 C 12.617725 19.847779 12.475 19.133333 12 18.5 C 11.126623 17.335498 10.61411 15.945246 10.517578 14.5 L 11 14.5 A 0.50005 0.50005 0 0 0 11.013672 14.5 C 13.938179 14.42466 16.795439 15.376433 19.089844 17.191406 A 0.50005 0.50005 0 0 0 19.099609 17.199219 C 20.06325 17.921987 21.5 17.204592 21.5 16 L 21.5 4 C 21.5 3.3977039 21.14165 2.9175048 20.662109 2.6777344 C 20.422339 2.5578492 20.151312 2.4981111 19.880859 2.5136719 z M 20.042969 3.484375 C 20.110307 3.4867933 20.174053 3.5040187 20.232422 3.5332031 C 20.388072 3.6110282 20.5 3.7782508 20.5 4 L 20.5 16 C 20.5 16.443498 20.054017 16.66649 19.699219 16.400391 C 17.223328 14.446092 14.139835 13.418765 10.986328 13.5 L 8.5 13.5 L 8.5 6.5 L 10.986328 6.5 C 14.139835 6.581235 17.223328 5.5539084 19.699219 3.5996094 C 19.810093 3.5164534 19.930738 3.4803445 20.042969 3.484375 z M 5 6.5 L 7.5 6.5 L 7.5 13.5 L 5 13.5 C 4.1656506 13.5 3.5 12.834349 3.5 12 L 3.5 8 C 3.5 7.1656506 4.1656506 6.5 5 6.5 z M 6.5117188 14.5 L 8 14.5 L 9.515625 14.5 C 9.6134152 16.161687 10.19606 17.762065 11.199219 19.099609 C 11.524219 19.532942 11.582275 19.918888 11.509766 20.275391 C 11.437256 20.631894 11.211502 20.965885 10.900391 21.199219 C 10.589279 21.432552 10.204342 21.557556 9.8417969 21.527344 C 9.4792515 21.497132 9.1257809 21.333724 8.8007812 20.900391 C 7.4079868 19.043331 6.6123557 16.811414 6.5117188 14.5 z " />
</svg>
