<?xml version="1.0" encoding="UTF-8" standalone="no"?>
<svg
   width="24"
   height="24"
   viewBox="0 0 24 24"
   fill="none"
   stroke="currentColor"
   stroke-width="1"
   stroke-linecap="round"
   stroke-linejoin="round"
   version="1.1"
   id="svg4"
   sodipodi:docname=".tmp_minimize-2.svg"
   xmlns:inkscape="http://www.inkscape.org/namespaces/inkscape"
   xmlns:sodipodi="http://sodipodi.sourceforge.net/DTD/sodipodi-0.dtd"
   xmlns="http://www.w3.org/2000/svg"
   xmlns:svg="http://www.w3.org/2000/svg">
  <defs
     id="defs4" />
  <sodipodi:namedview
     id="namedview4"
     pagecolor="#ffffff"
     bordercolor="#000000"
     borderopacity="0.25"
     inkscape:showpageshadow="2"
     inkscape:pageopacity="0.0"
     inkscape:pagecheckerboard="0"
     inkscape:deskcolor="#d1d1d1" />
  <path
     id="path1"
     style="baseline-shift:baseline;display:inline;overflow:visible;vector-effect:none;fill:#000000;stroke:none;stroke-linecap:butt;stroke-linejoin:miter;enable-background:accumulate;stop-color:#000000;stop-opacity:1;opacity:1"
     d="M 21 2.5 A 0.5 0.5 0 0 0 20.646484 2.6464844 L 14.5 8.7929688 L 14.5 4 A 0.5 0.5 0 0 0 14 3.5 A 0.5 0.5 0 0 0 13.5 4 L 13.5 10 A 0.5 0.5 0 0 0 13.517578 10.128906 A 0.50005 0.50005 0 0 0 13.566406 10.25 A 0.5 0.5 0 0 0 13.646484 10.353516 A 0.5 0.5 0 0 0 13.75 10.433594 A 0.50005 0.50005 0 0 0 13.871094 10.482422 A 0.5 0.5 0 0 0 14 10.5 L 20 10.5 A 0.5 0.5 0 0 0 20.5 10 A 0.5 0.5 0 0 0 20 9.5 L 15.207031 9.5 L 21.353516 3.3535156 A 0.5 0.5 0 0 0 21.353516 2.6464844 A 0.5 0.5 0 0 0 21 2.5 z M 4 13.5 A 0.5 0.5 0 0 0 3.5 14 A 0.5 0.5 0 0 0 4 14.5 L 8.7929688 14.5 L 2.6464844 20.646484 A 0.5 0.5 0 0 0 2.6464844 21.353516 A 0.5 0.5 0 0 0 3.3535156 21.353516 L 9.5 15.207031 L 9.5 20 A 0.5 0.5 0 0 0 10 20.5 A 0.5 0.5 0 0 0 10.5 20 L 10.5 14 A 0.5 0.5 0 0 0 10.482422 13.871094 A 0.50005 0.50005 0 0 0 10.433594 13.75 A 0.5 0.5 0 0 0 10.353516 13.646484 A 0.5 0.5 0 0 0 10.25 13.566406 A 0.50005 0.50005 0 0 0 10.128906 13.517578 A 0.50005 0.50005 0 0 0 10 13.5 L 4 13.5 z " />
</svg>
