<?xml version="1.0" encoding="UTF-8" standalone="no"?>
<svg
   width="24"
   height="24"
   viewBox="0 0 24 24"
   fill="none"
   stroke="currentColor"
   stroke-width="1"
   stroke-linecap="round"
   stroke-linejoin="round"
   version="1.1"
   id="svg1"
   sodipodi:docname=".tmp_mouse.svg"
   xmlns:inkscape="http://www.inkscape.org/namespaces/inkscape"
   xmlns:sodipodi="http://sodipodi.sourceforge.net/DTD/sodipodi-0.dtd"
   xmlns="http://www.w3.org/2000/svg"
   xmlns:svg="http://www.w3.org/2000/svg">
  <defs
     id="defs1" />
  <sodipodi:namedview
     id="namedview1"
     pagecolor="#ffffff"
     bordercolor="#000000"
     borderopacity="0.25"
     inkscape:showpageshadow="2"
     inkscape:pageopacity="0.0"
     inkscape:pagecheckerboard="0"
     inkscape:deskcolor="#d1d1d1" />
  <path
     id="rect1"
     style="baseline-shift:baseline;display:inline;overflow:visible;vector-effect:none;fill:#000000;stroke:none;stroke-linecap:butt;stroke-linejoin:miter;enable-background:accumulate;stop-color:#000000;stop-opacity:1;opacity:1"
     d="M 12 1.5 C 7.8536486 1.5 4.5 4.8536486 4.5 9 L 4.5 15 C 4.5 19.146351 7.8536486 22.5 12 22.5 C 16.146351 22.5 19.5 19.146351 19.5 15 L 19.5 9 C 19.5 4.8536486 16.146351 1.5 12 1.5 z M 12 2.5 C 15.609649 2.5 18.5 5.3903514 18.5 9 L 18.5 15 C 18.5 18.609649 15.609649 21.5 12 21.5 C 8.3903514 21.5 5.5 18.609649 5.5 15 L 5.5 9 C 5.5 5.3903514 8.3903514 2.5 12 2.5 z M 12 5.5 A 0.5 0.5 0 0 0 11.5 6 L 11.5 10 A 0.5 0.5 0 0 0 12 10.5 A 0.5 0.5 0 0 0 12.5 10 L 12.5 6 A 0.5 0.5 0 0 0 12 5.5 z " />
</svg>
