<?xml version="1.0" encoding="UTF-8" standalone="no"?>
<svg
   width="24"
   height="24"
   viewBox="0 0 24 24"
   fill="none"
   stroke="currentColor"
   stroke-width="1"
   stroke-linecap="round"
   stroke-linejoin="round"
   version="1.1"
   id="svg2"
   sodipodi:docname=".tmp_move-up.svg"
   xmlns:inkscape="http://www.inkscape.org/namespaces/inkscape"
   xmlns:sodipodi="http://sodipodi.sourceforge.net/DTD/sodipodi-0.dtd"
   xmlns="http://www.w3.org/2000/svg"
   xmlns:svg="http://www.w3.org/2000/svg">
  <defs
     id="defs2" />
  <sodipodi:namedview
     id="namedview2"
     pagecolor="#ffffff"
     bordercolor="#000000"
     borderopacity="0.25"
     inkscape:showpageshadow="2"
     inkscape:pageopacity="0.0"
     inkscape:pagecheckerboard="0"
     inkscape:deskcolor="#d1d1d1" />
  <path
     id="path1"
     style="baseline-shift:baseline;display:inline;overflow:visible;vector-effect:none;fill:#000000;stroke:none;stroke-linecap:butt;stroke-linejoin:miter;enable-background:accumulate;stop-color:#000000;stop-opacity:1;opacity:1"
     d="M 12 1.5 A 0.5 0.5 0 0 0 11.808594 1.5390625 A 0.5 0.5 0 0 0 11.777344 1.5527344 A 0.50005 0.50005 0 0 0 11.746094 1.5703125 A 0.50005 0.50005 0 0 0 11.695312 1.6035156 A 0.5 0.5 0 0 0 11.691406 1.6074219 A 0.50005 0.50005 0 0 0 11.646484 1.6464844 A 0.5 0.5 0 0 0 11.640625 1.6523438 L 7.6464844 5.6464844 A 0.5 0.5 0 0 0 7.6464844 6.3535156 A 0.5 0.5 0 0 0 8.3535156 6.3535156 L 11.5 3.2070312 L 11.5 22 A 0.5 0.5 0 0 0 12 22.5 A 0.5 0.5 0 0 0 12.5 22 L 12.5 3.2070312 L 15.646484 6.3535156 A 0.5 0.5 0 0 0 16.353516 6.3535156 A 0.5 0.5 0 0 0 16.353516 5.6464844 L 12.359375 1.6523438 A 0.5 0.5 0 0 0 12.253906 1.5703125 A 0.50005 0.50005 0 0 0 12.222656 1.5527344 A 0.5 0.5 0 0 0 12.191406 1.5390625 A 0.50005 0.50005 0 0 0 12.130859 1.5175781 A 0.5 0.5 0 0 0 12.128906 1.5175781 A 0.50005 0.50005 0 0 0 12.066406 1.5039062 A 0.5 0.5 0 0 0 12.064453 1.5039062 A 0.50005 0.50005 0 0 0 12 1.5 z " />
</svg>
