<?xml version="1.0" encoding="UTF-8" standalone="no"?>
<svg
   width="24"
   height="24"
   viewBox="0 0 24 24"
   fill="none"
   stroke="currentColor"
   stroke-width="1"
   stroke-linecap="round"
   stroke-linejoin="round"
   version="1.1"
   id="svg4"
   sodipodi:docname=".tmp_nut-off.svg"
   xmlns:inkscape="http://www.inkscape.org/namespaces/inkscape"
   xmlns:sodipodi="http://sodipodi.sourceforge.net/DTD/sodipodi-0.dtd"
   xmlns="http://www.w3.org/2000/svg"
   xmlns:svg="http://www.w3.org/2000/svg">
  <defs
     id="defs4" />
  <sodipodi:namedview
     id="namedview4"
     pagecolor="#ffffff"
     bordercolor="#000000"
     borderopacity="0.25"
     inkscape:showpageshadow="2"
     inkscape:pageopacity="0.0"
     inkscape:pagecheckerboard="0"
     inkscape:deskcolor="#d1d1d1" />
  <path
     id="path1"
     style="baseline-shift:baseline;display:inline;overflow:visible;vector-effect:none;fill:#000000;stroke:none;stroke-linecap:butt;stroke-linejoin:miter;enable-background:accumulate;stop-color:#000000;stop-opacity:1;opacity:1"
     d="M 2 1.5 A 0.5 0.5 0 0 0 1.6464844 1.6464844 A 0.5 0.5 0 0 0 1.6464844 2.3535156 L 5.0292969 5.7363281 C 4.2628527 6.3618078 3.7148164 7.0821404 3.515625 7.8789062 C 3.3064122 8.7140355 2.6960655 9.6287653 1.6523438 10.640625 A 0.50005 0.50005 0 0 0 2.03125 11.498047 C 3.0348764 11.435221 3.7571009 11.23401 4.5 10.839844 L 4.5 14 C 4.5003649 17.428867 6.8312987 20.426017 10.154297 21.271484 C 10.500254 21.358814 10.804744 21.511775 11.025391 21.732422 L 11.646484 22.353516 A 0.50005 0.50005 0 0 0 12.353516 22.353516 L 12.974609 21.732422 C 13.195256 21.511775 13.499746 21.358813 13.845703 21.271484 C 15.462163 20.85971 16.890066 19.922738 17.910156 18.617188 L 21.646484 22.353516 A 0.5 0.5 0 0 0 22.353516 22.353516 A 0.5 0.5 0 0 0 22.353516 21.646484 L 18.220703 17.513672 A 0.5 0.5 0 0 0 18.183594 17.476562 L 12.375 11.667969 A 0.5 0.5 0 0 0 12.333984 11.626953 L 6.1601562 5.4550781 A 0.5 0.5 0 0 0 6.1132812 5.4082031 L 2.3535156 1.6464844 A 0.5 0.5 0 0 0 2 1.5 z M 12 1.5 A 0.5 0.5 0 0 0 11.5 2 L 11.5 3.5097656 C 10.904467 3.5332212 10.323089 3.598188 9.7617188 3.6992188 A 0.5 0.5 0 0 0 9.3574219 4.28125 A 0.5 0.5 0 0 0 9.9394531 4.6835938 C 10.59997 4.5647201 11.290631 4.5 12 4.5 C 13.916667 4.5 15.721817 4.9836821 17.082031 5.6933594 C 18.442246 6.4030366 19.322692 7.3493626 19.515625 8.1210938 C 19.701768 8.8672032 20.160251 9.6636725 20.84375 10.460938 C 20.367056 10.369679 19.940041 10.16337 19.349609 9.6425781 A 0.5 0.5 0 0 0 19.332031 9.6269531 A 0.50005 0.50005 0 0 0 19.330078 9.625 A 0.5 0.5 0 0 0 19.226562 9.5546875 A 0.50005 0.50005 0 0 0 19.216797 9.5507812 A 0.5 0.5 0 0 0 19 9.5 A 0.5 0.5 0 0 0 18.962891 9.5019531 A 0.50005 0.50005 0 0 0 18.958984 9.5019531 A 0.5 0.5 0 0 0 18.904297 9.5097656 A 0.50005 0.50005 0 0 0 18.888672 9.5136719 A 0.5 0.5 0 0 0 18.78125 9.5507812 A 0.50005 0.50005 0 0 0 18.763672 9.5605469 A 0.5 0.5 0 0 0 18.722656 9.5859375 A 0.50005 0.50005 0 0 0 18.710938 9.59375 A 0.5 0.5 0 0 0 18.679688 9.6171875 A 0.50005 0.50005 0 0 0 18.652344 9.640625 A 0.5 0.5 0 0 0 18.619141 9.6777344 A 0.50005 0.50005 0 0 0 18.617188 9.6796875 A 0.5 0.5 0 0 0 18.59375 9.7109375 A 0.50005 0.50005 0 0 0 18.568359 9.7480469 A 0.5 0.5 0 0 0 18.566406 9.75 A 0.5 0.5 0 0 0 18.560547 9.7617188 A 0.50005 0.50005 0 0 0 18.542969 9.7988281 A 0.5 0.5 0 0 0 18.53125 9.828125 A 0.50005 0.50005 0 0 0 18.521484 9.8535156 C 18.271423 10.66531 18.040725 10.916286 17.214844 11.341797 A 0.5 0.5 0 0 0 17 12.015625 A 0.5 0.5 0 0 0 17.673828 12.232422 C 18.001715 12.063488 18.272046 11.868502 18.5 11.646484 L 18.5 13.34375 A 0.5 0.5 0 0 0 19 13.84375 A 0.5 0.5 0 0 0 19.5 13.34375 L 19.5 10.910156 C 20.263008 11.394684 21.032822 11.618376 22.058594 11.496094 A 0.50005 0.50005 0 0 0 22.3125 10.609375 C 21.092213 9.634651 20.709694 8.7820448 20.484375 7.8789062 C 20.177308 6.6506374 19.057754 5.5969634 17.542969 4.8066406 C 16.150054 4.079903 14.393493 3.5847194 12.5 3.5097656 L 12.5 2 A 0.5 0.5 0 0 0 12 1.5 z M 5.7421875 6.4492188 L 9.0566406 9.7636719 C 8.5971612 10.515368 8.1701748 10.86838 7.0761719 11.386719 C 6.3073393 10.875285 5.8935308 10.532335 5.4335938 9.75 A 0.5 0.5 0 0 0 5.4316406 9.7460938 A 0.50005 0.50005 0 0 0 5.3964844 9.6953125 A 0.5 0.5 0 0 0 5.3925781 9.6894531 A 0.50005 0.50005 0 0 0 5.3046875 9.6035156 A 0.5 0.5 0 0 0 5.3027344 9.6035156 A 0.5 0.5 0 0 0 5.2949219 9.5957031 A 0.50005 0.50005 0 0 0 5.2441406 9.5625 A 0.5 0.5 0 0 0 5.1738281 9.53125 A 0.50005 0.50005 0 0 0 5.0839844 9.5078125 A 0.5 0.5 0 0 0 5.0410156 9.5019531 A 0.50005 0.50005 0 0 0 4.953125 9.5019531 A 0.5 0.5 0 0 0 4.9160156 9.5078125 A 0.50005 0.50005 0 0 0 4.8710938 9.5175781 A 0.5 0.5 0 0 0 4.8515625 9.5234375 A 0.50005 0.50005 0 0 0 4.8320312 9.5292969 A 0.5 0.5 0 0 0 4.7851562 9.5488281 A 0.50005 0.50005 0 0 0 4.765625 9.5585938 A 0.5 0.5 0 0 0 4.7304688 9.5800781 A 0.50005 0.50005 0 0 0 4.7167969 9.5878906 C 4.1618006 9.9712052 3.7289696 10.169098 3.2578125 10.298828 C 3.8357055 9.580318 4.298622 8.862577 4.484375 8.1210938 C 4.6143173 7.6013246 5.0497178 7.0010344 5.7421875 6.4492188 z M 9.5019531 10.763672 C 10.038643 11.449535 10.658336 11.96004 11.714844 12.421875 L 17.197266 17.904297 C 16.308839 19.087152 15.040957 19.935568 13.599609 20.302734 C 13.122113 20.423501 12.646502 20.646467 12.267578 21.025391 L 12 21.292969 L 11.732422 21.025391 C 11.353498 20.646467 10.877887 20.423501 10.400391 20.302734 L 10.398438 20.302734 C 7.5146874 19.568156 5.5003167 16.976043 5.5 14 L 5.5 11.376953 C 5.8215255 11.747779 6.1986717 12.084218 6.7324219 12.421875 A 0.50005 0.50005 0 0 0 7.203125 12.457031 C 8.3834595 11.931083 8.9931059 11.410755 9.5019531 10.763672 z " />
</svg>
