<?xml version="1.0" encoding="UTF-8" standalone="no"?>
<svg
   width="24"
   height="24"
   viewBox="0 0 24 24"
   fill="none"
   stroke="currentColor"
   stroke-width="1"
   stroke-linecap="round"
   stroke-linejoin="round"
   version="1.1"
   id="svg3"
   sodipodi:docname=".tmp_pc-case.svg"
   xmlns:inkscape="http://www.inkscape.org/namespaces/inkscape"
   xmlns:sodipodi="http://sodipodi.sourceforge.net/DTD/sodipodi-0.dtd"
   xmlns="http://www.w3.org/2000/svg"
   xmlns:svg="http://www.w3.org/2000/svg">
  <defs
     id="defs3" />
  <sodipodi:namedview
     id="namedview3"
     pagecolor="#ffffff"
     bordercolor="#000000"
     borderopacity="0.25"
     inkscape:showpageshadow="2"
     inkscape:pageopacity="0.0"
     inkscape:pagecheckerboard="0"
     inkscape:deskcolor="#d1d1d1" />
  <path
     id="rect1"
     style="baseline-shift:baseline;display:inline;overflow:visible;vector-effect:none;fill:#000000;stroke:none;stroke-linecap:butt;stroke-linejoin:miter;enable-background:accumulate;stop-color:#000000;stop-opacity:1;opacity:1"
     d="M 7 1.5 C 5.6236486 1.5 4.5 2.6236486 4.5 4 L 4.5 20 C 4.5 21.376351 5.6236486 22.5 7 22.5 L 17 22.5 C 18.376351 22.5 19.5 21.376351 19.5 20 L 19.5 4 C 19.5 2.6236486 18.376351 1.5 17 1.5 L 7 1.5 z M 7 2.5 L 17 2.5 C 17.839649 2.5 18.5 3.1603514 18.5 4 L 18.5 20 C 18.5 20.839649 17.839649 21.5 17 21.5 L 7 21.5 C 6.1603514 21.5 5.5 20.839649 5.5 20 L 5.5 4 C 5.5 3.1603514 6.1603514 2.5 7 2.5 z M 9 5.5 A 0.5 0.5 0 0 0 8.5 6 A 0.5 0.5 0 0 0 9 6.5 L 15 6.5 A 0.5 0.5 0 0 0 15.5 6 A 0.5 0.5 0 0 0 15 5.5 L 9 5.5 z M 9 9.5 A 0.5 0.5 0 0 0 8.5 10 A 0.5 0.5 0 0 0 9 10.5 L 15 10.5 A 0.5 0.5 0 0 0 15.5 10 A 0.5 0.5 0 0 0 15 9.5 L 9 9.5 z M 15 13.5 A 0.5 0.5 0 0 0 14.5 14 A 0.5 0.5 0 0 0 15 14.5 L 15.009766 14.5 A 0.5 0.5 0 0 0 15.509766 14 A 0.5 0.5 0 0 0 15.009766 13.5 L 15 13.5 z " />
</svg>
