<?xml version="1.0" encoding="UTF-8" standalone="no"?>
<svg
   width="24"
   height="24"
   viewBox="0 0 24 24"
   fill="none"
   stroke="currentColor"
   stroke-width="1"
   stroke-linecap="round"
   stroke-linejoin="round"
   version="1.1"
   id="svg4"
   sodipodi:docname=".tmp_pencil-off.svg"
   xmlns:inkscape="http://www.inkscape.org/namespaces/inkscape"
   xmlns:sodipodi="http://sodipodi.sourceforge.net/DTD/sodipodi-0.dtd"
   xmlns="http://www.w3.org/2000/svg"
   xmlns:svg="http://www.w3.org/2000/svg">
  <defs
     id="defs4" />
  <sodipodi:namedview
     id="namedview4"
     pagecolor="#ffffff"
     bordercolor="#000000"
     borderopacity="0.25"
     inkscape:showpageshadow="2"
     inkscape:pageopacity="0.0"
     inkscape:pagecheckerboard="0"
     inkscape:deskcolor="#d1d1d1" />
  <path
     id="path1"
     style="baseline-shift:baseline;display:inline;overflow:visible;vector-effect:none;fill:#000000;stroke:none;stroke-linecap:butt;stroke-linejoin:miter;enable-background:accumulate;stop-color:#000000;stop-opacity:1;opacity:1"
     d="M 19.015625 1.453125 C 18.267244 1.4903669 17.492616 1.8140249 16.833984 2.4726562 L 14.703125 4.5976562 A 0.5 0.5 0 0 0 14.646484 4.6464844 A 0.5 0.5 0 0 0 14.597656 4.703125 L 12.476562 6.8183594 A 0.5 0.5 0 0 0 12.474609 7.5253906 A 0.5 0.5 0 0 0 13.181641 7.5253906 L 15.001953 5.7089844 L 18.285156 8.9921875 L 16.466797 10.810547 A 0.5 0.5 0 0 0 16.466797 11.517578 A 0.5 0.5 0 0 0 17.173828 11.517578 L 19.275391 9.4179688 A 0.5 0.5 0 0 0 19.353516 9.3535156 A 0.5 0.5 0 0 0 19.419922 9.2734375 L 21.527344 7.1660156 C 22.280065 6.4132942 22.594542 5.5095627 22.544922 4.6660156 C 22.495302 3.8224686 22.104161 3.0494735 21.527344 2.4726562 C 20.950526 1.8958389 20.177531 1.5046987 19.333984 1.4550781 C 19.228541 1.4488755 19.122537 1.4478047 19.015625 1.453125 z M 2 1.5 A 0.5 0.5 0 0 0 1.6464844 1.6464844 A 0.5 0.5 0 0 0 1.6464844 2.3535156 L 9.2929688 10 L 3.4902344 15.808594 C 3.1994981 16.099018 2.984813 16.456449 2.8652344 16.849609 L 1.5429688 21.208984 A 0.50005 0.50005 0 0 0 1.5429688 21.210938 C 1.3196675 21.947665 2.0496692 22.677966 2.7871094 22.457031 A 0.50005 0.50005 0 0 0 2.7890625 22.457031 L 7.1464844 21.134766 A 0.50005 0.50005 0 0 0 7.1484375 21.134766 C 7.5402554 21.014629 7.8961844 20.799979 8.1855469 20.509766 L 13.992188 14.699219 L 21.646484 22.353516 A 0.5 0.5 0 0 0 22.353516 22.353516 A 0.5 0.5 0 0 0 22.353516 21.646484 L 14.423828 13.716797 A 0.5 0.5 0 0 0 14.353516 13.628906 A 0.5 0.5 0 0 0 14.265625 13.558594 L 10.353516 9.6464844 L 2.3535156 1.6464844 A 0.5 0.5 0 0 0 2 1.5 z M 19.060547 2.4511719 C 19.132187 2.4482132 19.20437 2.4489473 19.275391 2.453125 C 19.843552 2.486546 20.400631 2.7600049 20.820312 3.1796875 C 21.239995 3.5993701 21.513454 4.1564484 21.546875 4.7246094 C 21.580295 5.2927704 21.396258 5.8830397 20.820312 6.4589844 L 18.992188 8.2851562 L 15.710938 5.0039062 L 17.541016 3.1796875 C 18.044967 2.6757359 18.559068 2.4718826 19.060547 2.4511719 z M 10 10.707031 L 13.285156 13.992188 L 7.4765625 19.802734 C 7.3029245 19.976883 7.0886342 20.105644 6.8535156 20.177734 L 2.5 21.5 L 3.8222656 17.140625 C 3.8940216 16.904701 4.022803 16.689901 4.1972656 16.515625 L 10 10.707031 z " />
</svg>
