<?xml version="1.0" encoding="UTF-8" standalone="no"?>
<svg
   width="24"
   height="24"
   viewBox="0 0 24 24"
   fill="none"
   stroke="currentColor"
   stroke-width="1"
   stroke-linecap="round"
   stroke-linejoin="round"
   version="1.1"
   id="svg2"
   sodipodi:docname=".tmp_pill-bottle.svg"
   xmlns:inkscape="http://www.inkscape.org/namespaces/inkscape"
   xmlns:sodipodi="http://sodipodi.sourceforge.net/DTD/sodipodi-0.dtd"
   xmlns="http://www.w3.org/2000/svg"
   xmlns:svg="http://www.w3.org/2000/svg">
  <defs
     id="defs2" />
  <sodipodi:namedview
     id="namedview2"
     pagecolor="#ffffff"
     bordercolor="#000000"
     borderopacity="0.25"
     inkscape:showpageshadow="2"
     inkscape:pageopacity="0.0"
     inkscape:pagecheckerboard="0"
     inkscape:deskcolor="#d1d1d1" />
  <path
     id="path1"
     style="baseline-shift:baseline;display:inline;overflow:visible;vector-effect:none;fill:#000000;stroke:none;stroke-linecap:butt;stroke-linejoin:miter;enable-background:accumulate;stop-color:#000000;stop-opacity:1;opacity:1"
     d="M 5 1.5 C 4.1776486 1.5 3.5 2.1776486 3.5 3 L 3.5 6 C 3.5 6.8223514 4.1776486 7.5 5 7.5 L 5.5 7.5 L 5.5 20 C 5.5 21.37479 6.6252104 22.5 8 22.5 L 16 22.5 C 17.37479 22.5 18.5 21.37479 18.5 20 L 18.5 7.5 L 19 7.5 C 19.822351 7.5 20.5 6.8223514 20.5 6 L 20.5 3 C 20.5 2.1776486 19.822351 1.5 19 1.5 L 5 1.5 z M 5 2.5 L 19 2.5 C 19.285649 2.5 19.5 2.7143514 19.5 3 L 19.5 6 C 19.5 6.2856486 19.285649 6.5 19 6.5 L 18 6.5 L 6 6.5 L 5 6.5 C 4.7143514 6.5 4.5 6.2856486 4.5 6 L 4.5 3 C 4.5 2.7143514 4.7143514 2.5 5 2.5 z M 6.5 7.5 L 17.5 7.5 L 17.5 10.5 L 14 10.5 C 13.177495 10.5 12.5 11.177495 12.5 12 L 12.5 17 C 12.5 17.822505 13.177495 18.5 14 18.5 L 17.5 18.5 L 17.5 20 C 17.5 20.834349 16.834349 21.5 16 21.5 L 8 21.5 C 7.1656506 21.5 6.5 20.834349 6.5 20 L 6.5 7.5 z M 14 11.5 L 17.5 11.5 L 17.5 17.5 L 14 17.5 C 13.717935 17.5 13.5 17.282065 13.5 17 L 13.5 12 C 13.5 11.717935 13.717935 11.5 14 11.5 z " />
</svg>
