<?xml version="1.0" encoding="UTF-8" standalone="no"?>
<svg
   width="24"
   height="24"
   viewBox="0 0 24 24"
   fill="none"
   stroke="currentColor"
   stroke-width="1"
   stroke-linecap="round"
   stroke-linejoin="round"
   version="1.1"
   id="svg1"
   sodipodi:docname=".tmp_play.svg"
   xmlns:inkscape="http://www.inkscape.org/namespaces/inkscape"
   xmlns:sodipodi="http://sodipodi.sourceforge.net/DTD/sodipodi-0.dtd"
   xmlns="http://www.w3.org/2000/svg"
   xmlns:svg="http://www.w3.org/2000/svg">
  <defs
     id="defs1" />
  <sodipodi:namedview
     id="namedview1"
     pagecolor="#ffffff"
     bordercolor="#000000"
     borderopacity="0.25"
     inkscape:showpageshadow="2"
     inkscape:pageopacity="0.0"
     inkscape:pagecheckerboard="0"
     inkscape:deskcolor="#d1d1d1" />
  <path
     id="path1"
     style="baseline-shift:baseline;display:inline;overflow:visible;vector-effect:none;fill:#000000;stroke:none;stroke-linecap:butt;stroke-linejoin:miter;enable-background:accumulate;stop-color:#000000;stop-opacity:1;opacity:1"
     d="M 6.9785156 2.5039062 C 5.6894272 2.5297089 4.4995764 3.5707685 4.5 5 L 4.5 19 C 4.4994352 20.905642 6.6138556 22.1206 8.2597656 21.160156 L 20.259766 14.160156 C 21.896326 13.206737 21.894064 10.788469 20.255859 9.8378906 L 8.2597656 2.8398438 C 7.8482881 2.5997327 7.4082118 2.4953052 6.9785156 2.5039062 z M 6.9726562 3.4882812 C 7.2322132 3.4867699 7.500567 3.5541533 7.7558594 3.703125 L 19.753906 10.701172 A 0.50005 0.50005 0 0 0 19.753906 10.703125 C 20.769659 11.292519 20.770541 12.705719 19.755859 13.296875 L 7.7558594 20.296875 C 6.7346429 20.892715 5.4996496 20.182315 5.5 19 L 5.5 5 C 5.4998248 4.4088427 5.807743 3.9362434 6.2441406 3.6855469 C 6.4623394 3.5601986 6.7130993 3.4897926 6.9726562 3.4882812 z " />
</svg>
