<?xml version="1.0" encoding="UTF-8" standalone="no"?>
<svg
   width="24"
   height="24"
   viewBox="0 0 24 24"
   fill="none"
   stroke="currentColor"
   stroke-width="1"
   stroke-linecap="round"
   stroke-linejoin="round"
   version="1.1"
   id="svg2"
   sodipodi:docname=".tmp_pocket.svg"
   xmlns:inkscape="http://www.inkscape.org/namespaces/inkscape"
   xmlns:sodipodi="http://sodipodi.sourceforge.net/DTD/sodipodi-0.dtd"
   xmlns="http://www.w3.org/2000/svg"
   xmlns:svg="http://www.w3.org/2000/svg">
  <defs
     id="defs2" />
  <sodipodi:namedview
     id="namedview2"
     pagecolor="#ffffff"
     bordercolor="#000000"
     borderopacity="0.25"
     inkscape:showpageshadow="2"
     inkscape:pageopacity="0.0"
     inkscape:pagecheckerboard="0"
     inkscape:deskcolor="#d1d1d1" />
  <path
     id="path1"
     style="baseline-shift:baseline;display:inline;overflow:visible;vector-effect:none;fill:#000000;stroke:none;stroke-linecap:butt;stroke-linejoin:miter;enable-background:accumulate;stop-color:#000000;stop-opacity:1;opacity:1"
     d="M 4 2.5 C 2.6252104 2.5 1.5 3.6252104 1.5 5 L 1.5 11 C 1.5 16.793071 6.2069331 21.5 12 21.5 C 17.793067 21.5 22.5 16.793071 22.5 11 L 22.5 5 C 22.5 3.6252104 21.37479 2.5 20 2.5 L 4 2.5 z M 4 3.5 L 20 3.5 C 20.834349 3.5 21.5 4.1656506 21.5 5 L 21.5 11 C 21.5 16.252631 17.252628 20.5 12 20.5 C 6.7473722 20.5 2.5 16.252631 2.5 11 L 2.5 5 C 2.5 4.1656506 3.1656506 3.5 4 3.5 z M 8 9.5 A 0.5 0.5 0 0 0 7.6464844 9.6464844 A 0.5 0.5 0 0 0 7.6464844 10.353516 L 11.646484 14.353516 A 0.50005 0.50005 0 0 0 12.353516 14.353516 L 16.353516 10.353516 A 0.5 0.5 0 0 0 16.353516 9.6464844 A 0.5 0.5 0 0 0 15.646484 9.6464844 L 12 13.292969 L 8.3535156 9.6464844 A 0.5 0.5 0 0 0 8 9.5 z " />
</svg>
