<?xml version="1.0" encoding="UTF-8" standalone="no"?>
<svg
   width="24"
   height="24"
   viewBox="0 0 24 24"
   fill="none"
   stroke="currentColor"
   stroke-width="1"
   stroke-linecap="round"
   stroke-linejoin="round"
   version="1.1"
   id="svg2"
   sodipodi:docname=".tmp_ratio.svg"
   xmlns:inkscape="http://www.inkscape.org/namespaces/inkscape"
   xmlns:sodipodi="http://sodipodi.sourceforge.net/DTD/sodipodi-0.dtd"
   xmlns="http://www.w3.org/2000/svg"
   xmlns:svg="http://www.w3.org/2000/svg">
  <defs
     id="defs2" />
  <sodipodi:namedview
     id="namedview2"
     pagecolor="#ffffff"
     bordercolor="#000000"
     borderopacity="0.25"
     inkscape:showpageshadow="2"
     inkscape:pageopacity="0.0"
     inkscape:pagecheckerboard="0"
     inkscape:deskcolor="#d1d1d1" />
  <path
     id="rect1"
     style="baseline-shift:baseline;display:inline;overflow:visible;vector-effect:none;fill:#000000;stroke:none;stroke-linecap:butt;stroke-linejoin:miter;enable-background:accumulate;stop-color:#000000;stop-opacity:1;opacity:1"
     d="M 8 1.5 C 6.6236486 1.5 5.5 2.6236486 5.5 4 L 5.5 5.5 L 4 5.5 C 2.6236486 5.5 1.5 6.6236486 1.5 8 L 1.5 16 C 1.5 17.376351 2.6236486 18.5 4 18.5 L 5.5 18.5 L 5.5 20 C 5.5 21.376351 6.6236486 22.5 8 22.5 L 16 22.5 C 17.376351 22.5 18.5 21.376351 18.5 20 L 18.5 18.5 L 20 18.5 C 21.376351 18.5 22.5 17.376351 22.5 16 L 22.5 8 C 22.5 6.6236486 21.376351 5.5 20 5.5 L 18.5 5.5 L 18.5 4 C 18.5 2.6236486 17.376351 1.5 16 1.5 L 8 1.5 z M 8 2.5 L 16 2.5 C 16.839649 2.5 17.5 3.1603514 17.5 4 L 17.5 5.5 L 6.5 5.5 L 6.5 4 C 6.5 3.1603514 7.1603514 2.5 8 2.5 z M 4 6.5 L 5.5 6.5 L 5.5 17.5 L 4 17.5 C 3.1603514 17.5 2.5 16.839649 2.5 16 L 2.5 8 C 2.5 7.1603514 3.1603514 6.5 4 6.5 z M 6.5 6.5 L 17.5 6.5 L 17.5 17.5 L 6.5 17.5 L 6.5 6.5 z M 18.5 6.5 L 20 6.5 C 20.839649 6.5 21.5 7.1603514 21.5 8 L 21.5 16 C 21.5 16.839649 20.839649 17.5 20 17.5 L 18.5 17.5 L 18.5 6.5 z M 6.5 18.5 L 17.5 18.5 L 17.5 20 C 17.5 20.839649 16.839649 21.5 16 21.5 L 8 21.5 C 7.1603514 21.5 6.5 20.839649 6.5 20 L 6.5 18.5 z " />
</svg>
