<?xml version="1.0" encoding="UTF-8" standalone="no"?>
<svg
   width="24"
   height="24"
   viewBox="0 0 24 24"
   fill="none"
   stroke="currentColor"
   stroke-width="1"
   stroke-linecap="round"
   stroke-linejoin="round"
   version="1.1"
   id="svg4"
   sodipodi:docname=".tmp_receipt-indian-rupee.svg"
   xmlns:inkscape="http://www.inkscape.org/namespaces/inkscape"
   xmlns:sodipodi="http://sodipodi.sourceforge.net/DTD/sodipodi-0.dtd"
   xmlns="http://www.w3.org/2000/svg"
   xmlns:svg="http://www.w3.org/2000/svg">
  <defs
     id="defs4" />
  <sodipodi:namedview
     id="namedview4"
     pagecolor="#ffffff"
     bordercolor="#000000"
     borderopacity="0.25"
     inkscape:showpageshadow="2"
     inkscape:pageopacity="0.0"
     inkscape:pagecheckerboard="0"
     inkscape:deskcolor="#d1d1d1" />
  <path
     id="path1"
     style="baseline-shift:baseline;display:inline;overflow:visible;vector-effect:none;fill:#000000;stroke:none;stroke-linecap:butt;stroke-linejoin:miter;enable-background:accumulate;stop-color:#000000;stop-opacity:1;opacity:1"
     d="M 3.9589844 1.5019531 A 0.50005 0.50005 0 0 0 3.5 2 L 3.5 22 A 0.50005 0.50005 0 0 0 4.2226562 22.447266 L 6 21.558594 L 7.7773438 22.447266 A 0.50005 0.50005 0 0 0 8.2226562 22.447266 L 10 21.558594 L 11.777344 22.447266 A 0.50005 0.50005 0 0 0 12.222656 22.447266 L 14 21.558594 L 15.777344 22.447266 A 0.50005 0.50005 0 0 0 16.222656 22.447266 L 18 21.558594 L 19.777344 22.447266 A 0.50005 0.50005 0 0 0 20.5 22 L 20.5 2 A 0.50005 0.50005 0 0 0 19.777344 1.5527344 L 18 2.4414062 L 16.222656 1.5527344 A 0.50005 0.50005 0 0 0 15.777344 1.5527344 L 14 2.4414062 L 12.222656 1.5527344 A 0.50005 0.50005 0 0 0 11.777344 1.5527344 L 10 2.4414062 L 8.2226562 1.5527344 A 0.50005 0.50005 0 0 0 7.7773438 1.5527344 L 6 2.4414062 L 4.2226562 1.5527344 A 0.50005 0.50005 0 0 0 3.9589844 1.5019531 z M 8 2.5585938 L 9.7773438 3.4472656 A 0.50005 0.50005 0 0 0 10.222656 3.4472656 L 12 2.5585938 L 13.777344 3.4472656 A 0.50005 0.50005 0 0 0 14.222656 3.4472656 L 16 2.5585938 L 17.777344 3.4472656 A 0.50005 0.50005 0 0 0 18.222656 3.4472656 L 19.5 2.8085938 L 19.5 21.191406 L 18.222656 20.552734 A 0.50005 0.50005 0 0 0 17.777344 20.552734 L 16 21.441406 L 14.222656 20.552734 A 0.50005 0.50005 0 0 0 13.777344 20.552734 L 12 21.441406 L 10.222656 20.552734 A 0.50005 0.50005 0 0 0 9.7773438 20.552734 L 8 21.441406 L 6.2226562 20.552734 A 0.50005 0.50005 0 0 0 5.7773438 20.552734 L 4.5 21.191406 L 4.5 2.8085938 L 5.7773438 3.4472656 A 0.50005 0.50005 0 0 0 6.2226562 3.4472656 L 8 2.5585938 z M 8 6.5 A 0.5 0.5 0 0 0 7.5 7 A 0.5 0.5 0 0 0 8 7.5 L 9 7.5 C 10.208333 7.5 11.051923 7.9351222 11.626953 8.5820312 C 12.093682 9.107101 12.37824 9.787159 12.46875 10.5 L 8 10.5 A 0.5 0.5 0 0 0 7.5 11 A 0.5 0.5 0 0 0 8 11.5 L 12.46875 11.5 C 12.37824 12.212841 12.093682 12.892899 11.626953 13.417969 C 11.051923 14.064878 10.208333 14.5 9 14.5 L 8 14.5 A 0.50005 0.50005 0 0 0 7.734375 15.423828 L 11.734375 17.923828 A 0.5 0.5 0 0 0 12.423828 17.765625 A 0.5 0.5 0 0 0 12.265625 17.076172 L 9.5644531 15.386719 C 10.735209 15.251792 11.724566 14.811573 12.373047 14.082031 C 13.017499 13.357023 13.380129 12.440804 13.474609 11.5 L 16 11.5 A 0.5 0.5 0 0 0 16.5 11 A 0.5 0.5 0 0 0 16 10.5 L 13.474609 10.5 C 13.380129 9.5591963 13.017499 8.6429772 12.373047 7.9179688 C 12.241003 7.7694199 12.097084 7.6296101 11.941406 7.5 L 16 7.5 A 0.5 0.5 0 0 0 16.5 7 A 0.5 0.5 0 0 0 16 6.5 L 8 6.5 z " />
</svg>
