<?xml version="1.0" encoding="UTF-8" standalone="no"?>
<svg
   width="24"
   height="24"
   viewBox="0 0 24 24"
   fill="none"
   stroke="currentColor"
   stroke-width="1"
   stroke-linecap="round"
   stroke-linejoin="round"
   version="1.1"
   id="svg8"
   sodipodi:docname=".tmp_siren.svg"
   xmlns:inkscape="http://www.inkscape.org/namespaces/inkscape"
   xmlns:sodipodi="http://sodipodi.sourceforge.net/DTD/sodipodi-0.dtd"
   xmlns="http://www.w3.org/2000/svg"
   xmlns:svg="http://www.w3.org/2000/svg">
  <defs
     id="defs8" />
  <sodipodi:namedview
     id="namedview8"
     pagecolor="#ffffff"
     bordercolor="#000000"
     borderopacity="0.25"
     inkscape:showpageshadow="2"
     inkscape:pageopacity="0.0"
     inkscape:pagecheckerboard="0"
     inkscape:deskcolor="#d1d1d1" />
  <path
     id="path1"
     style="baseline-shift:baseline;display:inline;overflow:visible;vector-effect:none;fill:#000000;stroke:none;stroke-linecap:butt;stroke-linejoin:miter;enable-background:accumulate;stop-color:#000000;stop-opacity:1;opacity:1"
     d="M 12 1.5 A 0.5 0.5 0 0 0 11.5 2 L 11.5 3 A 0.5 0.5 0 0 0 12 3.5 A 0.5 0.5 0 0 0 12.5 3 L 12.5 2 A 0.5 0.5 0 0 0 12 1.5 z M 18.5 4 A 0.5 0.5 0 0 0 18.146484 4.1464844 L 17.646484 4.6464844 A 0.5 0.5 0 0 0 17.646484 5.3535156 A 0.5 0.5 0 0 0 18.353516 5.3535156 L 18.853516 4.8535156 A 0.5 0.5 0 0 0 18.853516 4.1464844 A 0.5 0.5 0 0 0 18.5 4 z M 4.9296875 4.4296875 A 0.5 0.5 0 0 0 4.5761719 4.5761719 A 0.5 0.5 0 0 0 4.5761719 5.2832031 L 5.2832031 5.9902344 A 0.5 0.5 0 0 0 5.9902344 5.9902344 A 0.5 0.5 0 0 0 5.9902344 5.2832031 L 5.2832031 4.5761719 A 0.5 0.5 0 0 0 4.9296875 4.4296875 z M 12 6.5 C 10.638889 6.5 9.2710597 6.9519838 8.2304688 7.8769531 C 7.1898777 8.8019225 6.5 10.208334 6.5 12 L 6.5 17.550781 C 5.3625694 17.784121 4.5 18.796305 4.5 20 L 4.5 21 C 4.5 21.822505 5.1774952 22.5 6 22.5 L 18 22.5 C 18.822505 22.5 19.5 21.822505 19.5 21 L 19.5 20 C 19.5 18.796305 18.637431 17.784121 17.5 17.550781 L 17.5 12 C 17.5 10.208334 16.810122 8.8019225 15.769531 7.8769531 C 14.72894 6.9519838 13.361111 6.5 12 6.5 z M 12 7.5 C 13.138889 7.5 14.27106 7.8813503 15.105469 8.6230469 C 15.939878 9.3647435 16.5 10.458334 16.5 12 L 16.5 17.5 L 12.5 17.5 L 12.5 12 A 0.5 0.5 0 0 0 12 11.5 A 0.5 0.5 0 0 0 11.5 12 L 11.5 17.5 L 7.5 17.5 L 7.5 12 C 7.5 10.458334 8.0601222 9.3647435 8.8945312 8.6230469 C 9.7289402 7.8813503 10.861111 7.5 12 7.5 z M 2 11.5 A 0.5 0.5 0 0 0 1.5 12 A 0.5 0.5 0 0 0 2 12.5 L 3 12.5 A 0.5 0.5 0 0 0 3.5 12 A 0.5 0.5 0 0 0 3 11.5 L 2 11.5 z M 21 11.5 A 0.5 0.5 0 0 0 20.5 12 A 0.5 0.5 0 0 0 21 12.5 L 22 12.5 A 0.5 0.5 0 0 0 22.5 12 A 0.5 0.5 0 0 0 22 11.5 L 21 11.5 z M 7 18.5 L 12 18.5 L 17 18.5 C 17.834349 18.5 18.5 19.165651 18.5 20 L 18.5 21 C 18.5 21.282065 18.282065 21.5 18 21.5 L 6 21.5 C 5.7179353 21.5 5.5 21.282065 5.5 21 L 5.5 20 C 5.5 19.165651 6.1656506 18.5 7 18.5 z " />
</svg>
