<?xml version="1.0" encoding="UTF-8" standalone="no"?>
<svg
   width="24"
   height="24"
   viewBox="0 0 24 24"
   fill="none"
   stroke="currentColor"
   stroke-width="1"
   stroke-linecap="round"
   stroke-linejoin="round"
   version="1.1"
   id="svg3"
   sodipodi:docname=".tmp_square-dashed-bottom.svg"
   xmlns:inkscape="http://www.inkscape.org/namespaces/inkscape"
   xmlns:sodipodi="http://sodipodi.sourceforge.net/DTD/sodipodi-0.dtd"
   xmlns="http://www.w3.org/2000/svg"
   xmlns:svg="http://www.w3.org/2000/svg">
  <defs
     id="defs3" />
  <sodipodi:namedview
     id="namedview3"
     pagecolor="#ffffff"
     bordercolor="#000000"
     borderopacity="0.25"
     inkscape:showpageshadow="2"
     inkscape:pageopacity="0.0"
     inkscape:pagecheckerboard="0"
     inkscape:deskcolor="#d1d1d1" />
  <path
     id="path1"
     style="baseline-shift:baseline;display:inline;overflow:visible;vector-effect:none;fill:#000000;stroke:none;stroke-linecap:butt;stroke-linejoin:miter;enable-background:accumulate;stop-color:#000000;stop-opacity:1;opacity:1"
     d="M 5 2.5 C 3.6252104 2.5 2.5 3.6252104 2.5 5 L 2.5 19 C 2.5 20.37479 3.6252104 21.5 5 21.5 A 0.5 0.5 0 0 0 5.5 21 A 0.5 0.5 0 0 0 5 20.5 C 4.1656506 20.5 3.5 19.834349 3.5 19 L 3.5 5 C 3.5 4.1656506 4.1656506 3.5 5 3.5 L 19 3.5 C 19.834349 3.5 20.5 4.1656506 20.5 5 L 20.5 19 C 20.5 19.834349 19.834349 20.5 19 20.5 A 0.5 0.5 0 0 0 18.5 21 A 0.5 0.5 0 0 0 19 21.5 C 20.37479 21.5 21.5 20.37479 21.5 19 L 21.5 5 C 21.5 3.6252104 20.37479 2.5 19 2.5 L 5 2.5 z M 9 20.5 A 0.5 0.5 0 0 0 8.5 21 A 0.5 0.5 0 0 0 9 21.5 L 10 21.5 A 0.5 0.5 0 0 0 10.5 21 A 0.5 0.5 0 0 0 10 20.5 L 9 20.5 z M 14 20.5 A 0.5 0.5 0 0 0 13.5 21 A 0.5 0.5 0 0 0 14 21.5 L 15 21.5 A 0.5 0.5 0 0 0 15.5 21 A 0.5 0.5 0 0 0 15 20.5 L 14 20.5 z " />
</svg>
