<?xml version="1.0" encoding="UTF-8" standalone="no"?>
<svg
   width="24"
   height="24"
   viewBox="0 0 24 24"
   fill="none"
   stroke="currentColor"
   stroke-width="1"
   stroke-linecap="round"
   stroke-linejoin="round"
   version="1.1"
   id="svg2"
   sodipodi:docname=".tmp_torus.svg"
   xmlns:inkscape="http://www.inkscape.org/namespaces/inkscape"
   xmlns:sodipodi="http://sodipodi.sourceforge.net/DTD/sodipodi-0.dtd"
   xmlns="http://www.w3.org/2000/svg"
   xmlns:svg="http://www.w3.org/2000/svg">
  <defs
     id="defs2" />
  <sodipodi:namedview
     id="namedview2"
     pagecolor="#ffffff"
     bordercolor="#000000"
     borderopacity="0.25"
     inkscape:showpageshadow="2"
     inkscape:pageopacity="0.0"
     inkscape:pagecheckerboard="0"
     inkscape:deskcolor="#d1d1d1" />
  <path
     id="ellipse1"
     style="baseline-shift:baseline;display:inline;overflow:visible;vector-effect:none;fill:#000000;stroke:none;stroke-linecap:butt;stroke-linejoin:miter;enable-background:accumulate;stop-color:#000000;stop-opacity:1;opacity:1"
     d="M 12 3.5 C 6.2474655 3.5 1.5 7.4876737 1.5 12.5 C 1.5 17.512326 6.2474655 21.5 12 21.5 C 17.752535 21.5 22.5 17.512326 22.5 12.5 C 22.5 7.4876737 17.752535 3.5 12 3.5 z M 12 4.5 C 17.29316 4.5 21.5 8.1234856 21.5 12.5 C 21.5 16.876514 17.29316 20.5 12 20.5 C 6.7068396 20.5 2.5 16.876514 2.5 12.5 C 2.5 8.1234856 6.7068396 4.5 12 4.5 z M 12 8.5 C 11.0815 8.5 10.242122 8.742882 9.6015625 9.1699219 C 8.9610027 9.5969618 8.5 10.24505 8.5 11 C 8.5 11.75495 8.9610027 12.403038 9.6015625 12.830078 C 10.242122 13.257118 11.0815 13.5 12 13.5 C 12.9185 13.5 13.757877 13.257118 14.398438 12.830078 C 15.038996 12.403038 15.5 11.75495 15.5 11 C 15.5 10.24505 15.038997 9.5969618 14.398438 9.1699219 C 13.757877 8.742882 12.9185 8.5 12 8.5 z M 12 9.5 C 12.738354 9.5 13.398523 9.7051355 13.84375 10.001953 C 14.288977 10.298771 14.5 10.65038 14.5 11 C 14.5 11.34962 14.288977 11.701229 13.84375 11.998047 C 13.398523 12.294865 12.738354 12.5 12 12.5 C 11.261646 12.5 10.601477 12.294865 10.15625 11.998047 C 9.7110234 11.701229 9.5 11.34962 9.5 11 C 9.5 10.65038 9.7110234 10.298771 10.15625 10.001953 C 10.601477 9.7051355 11.261646 9.5 12 9.5 z " />
</svg>
