<?xml version="1.0" encoding="UTF-8" standalone="no"?>
<svg
   width="24"
   height="24"
   viewBox="0 0 24 24"
   fill="none"
   stroke="currentColor"
   stroke-width="1"
   stroke-linecap="round"
   stroke-linejoin="round"
   version="1.1"
   id="svg2"
   sodipodi:docname=".tmp_tree-deciduous.svg"
   xmlns:inkscape="http://www.inkscape.org/namespaces/inkscape"
   xmlns:sodipodi="http://sodipodi.sourceforge.net/DTD/sodipodi-0.dtd"
   xmlns="http://www.w3.org/2000/svg"
   xmlns:svg="http://www.w3.org/2000/svg">
  <defs
     id="defs2" />
  <sodipodi:namedview
     id="namedview2"
     pagecolor="#ffffff"
     bordercolor="#000000"
     borderopacity="0.25"
     inkscape:showpageshadow="2"
     inkscape:pageopacity="0.0"
     inkscape:pagecheckerboard="0"
     inkscape:deskcolor="#d1d1d1" />
  <path
     id="path1"
     style="baseline-shift:baseline;display:inline;overflow:visible;vector-effect:none;fill:#000000;stroke:none;stroke-linecap:butt;stroke-linejoin:miter;enable-background:accumulate;stop-color:#000000;stop-opacity:1;opacity:1"
     d="M 12 2.5 C 11.138889 2.5 10.27106 2.785317 9.6054688 3.3769531 C 9.0245441 3.8933303 8.6707919 4.6831084 8.5761719 5.6152344 C 7.0369348 5.5908086 5.7022861 6.3201117 5.0234375 7.5039062 C 4.3423543 8.6915976 4.3864079 10.218149 5.1933594 11.537109 C 3.6456737 12.781089 3.1888716 14.68696 3.6875 16.316406 C 4.2200295 18.056636 5.8076825 19.504007 8 19.5 L 8.0019531 19.5 L 11.5 19.5 L 11.5 22 A 0.5 0.5 0 0 0 12 22.5 A 0.5 0.5 0 0 0 12.5 22 L 12.5 19.5 L 16 19.5 C 18.184368 19.4968 19.76512 18.053684 20.296875 16.318359 C 20.794618 14.694027 20.343095 12.792538 18.806641 11.546875 C 19.613592 10.227914 19.657646 8.7013632 18.976562 7.5136719 C 18.298063 6.3304841 16.963976 5.6034384 15.425781 5.6269531 C 15.333531 4.6891606 14.978019 3.8956086 14.394531 3.3769531 C 13.72894 2.785317 12.861111 2.5 12 2.5 z M 12 3.5 C 12.638889 3.5 13.27106 3.7146835 13.730469 4.1230469 C 14.189878 4.5314103 14.5 5.1250005 14.5 6 L 14.5 6.0390625 A 0.50005 0.50005 0 0 0 15.072266 6.5351562 C 16.442251 6.3344303 17.53585 7.009638 18.109375 8.0097656 C 18.6829 9.0098933 18.714784 10.295924 17.849609 11.376953 A 0.50005 0.50005 0 0 0 17.958984 12.103516 C 19.409938 13.087996 19.758274 14.659888 19.339844 16.025391 C 18.921413 17.390892 17.753414 18.497433 16 18.5 L 12 18.5 L 8 18.5 A 0.50005 0.50005 0 0 0 7.9980469 18.5 C 6.2367832 18.5039 5.063768 17.393444 4.6445312 16.023438 C 4.2252947 14.653433 4.5772052 13.078067 6.0390625 12.095703 A 0.50005 0.50005 0 0 0 6.1503906 11.367188 C 5.2852163 10.286157 5.3171005 9.0001276 5.890625 8 C 6.4641495 6.9998724 7.5577489 6.3246646 8.9277344 6.5253906 A 0.50005 0.50005 0 0 0 9.5 6.0292969 L 9.5 6 C 9.5 5.1250005 9.8101224 4.5314103 10.269531 4.1230469 C 10.72894 3.7146835 11.361111 3.5 12 3.5 z " />
</svg>
