<?xml version="1.0" encoding="UTF-8" standalone="no"?>
<svg
   width="24"
   height="24"
   viewBox="0 0 24 24"
   fill="none"
   stroke="currentColor"
   stroke-width="1"
   stroke-linecap="round"
   stroke-linejoin="round"
   version="1.1"
   id="svg4"
   sodipodi:docname=".tmp_trees.svg"
   xmlns:inkscape="http://www.inkscape.org/namespaces/inkscape"
   xmlns:sodipodi="http://sodipodi.sourceforge.net/DTD/sodipodi-0.dtd"
   xmlns="http://www.w3.org/2000/svg"
   xmlns:svg="http://www.w3.org/2000/svg">
  <defs
     id="defs4" />
  <sodipodi:namedview
     id="namedview4"
     pagecolor="#ffffff"
     bordercolor="#000000"
     borderopacity="0.25"
     inkscape:showpageshadow="2"
     inkscape:pageopacity="0.0"
     inkscape:pagecheckerboard="0"
     inkscape:deskcolor="#d1d1d1" />
  <path
     id="path1"
     style="baseline-shift:baseline;display:inline;overflow:visible;vector-effect:none;fill:#000000;stroke:none;stroke-linecap:butt;stroke-linejoin:miter;enable-background:accumulate;stop-color:#000000;stop-opacity:1;opacity:1"
     d="M 13 2.5 A 0.50005 0.50005 0 0 0 12.634766 2.6582031 L 11.234375 4.1582031 A 0.5 0.5 0 0 0 11.259766 4.8652344 A 0.5 0.5 0 0 0 11.964844 4.8417969 L 13 3.7324219 L 16.634766 7.640625 A 0.50005 0.50005 0 0 0 16.644531 7.6523438 C 16.826444 7.8358359 16.828374 8.033645 16.742188 8.2167969 C 16.655998 8.3999487 16.501479 8.5251672 16.244141 8.5019531 A 0.50005 0.50005 0 0 0 16.199219 8.5 L 16 8.5 A 0.50005 0.50005 0 0 0 15.630859 9.3359375 L 18.630859 12.636719 A 0.50005 0.50005 0 0 0 18.642578 12.650391 C 18.810644 12.821805 18.821335 13.01342 18.748047 13.191406 C 18.674757 13.369393 18.533005 13.496628 18.292969 13.5 L 18 13.5 A 0.50005 0.50005 0 0 0 17.630859 14.335938 L 20.630859 17.636719 A 0.50005 0.50005 0 0 0 20.642578 17.650391 C 20.810644 17.821805 20.821335 18.01342 20.748047 18.191406 C 20.674757 18.369393 20.533005 18.496628 20.292969 18.5 L 13 18.5 L 12 18.5 A 0.5 0.5 0 0 0 11.5 19 A 0.5 0.5 0 0 0 12 19.5 L 12.5 19.5 L 12.5 22 A 0.5 0.5 0 0 0 13 22.5 A 0.5 0.5 0 0 0 13.5 22 L 13.5 19.5 L 20.300781 19.5 A 0.50005 0.50005 0 0 0 20.306641 19.5 C 20.94594 19.491 21.46303 19.082251 21.673828 18.570312 C 21.88442 18.058875 21.80388 17.407643 21.357422 16.951172 L 18.941406 14.292969 C 19.26628 14.126201 19.542318 13.889695 19.673828 13.570312 C 19.88442 13.058874 19.80388 12.407643 19.357422 11.951172 L 16.958984 9.3125 C 17.259122 9.1576217 17.509846 8.9329352 17.646484 8.6425781 C 17.891875 8.1211229 17.830417 7.4280917 17.357422 6.9492188 L 13.365234 2.6601562 A 0.50005 0.50005 0 0 0 13 2.5 z M 7 6.5 C 6.1388889 6.5 5.2710597 6.785317 4.6054688 7.3769531 C 3.9398778 7.9685893 3.5 8.8750004 3.5 10 L 3.5 10.013672 C 2.068037 10.780188 1.3896557 12.230706 1.625 13.595703 C 1.882661 15.090137 3.116921 16.45344 4.9882812 16.5 A 0.50005 0.50005 0 0 0 5 16.5 L 6.5 16.5 L 6.5 22 A 0.5 0.5 0 0 0 7 22.5 A 0.5 0.5 0 0 0 7.5 22 L 7.5 16.5 L 8.8964844 16.5 C 10.797168 16.5147 12.075677 15.158505 12.361328 13.652344 C 12.622459 12.275473 11.952957 10.795252 10.5 10.015625 L 10.5 10 C 10.5 8.8750004 10.060122 7.9685893 9.3945312 7.3769531 C 8.7289402 6.785317 7.8611111 6.5 7 6.5 z M 7 7.5 C 7.6388889 7.5 8.2710597 7.7146835 8.7304688 8.1230469 C 9.1898777 8.5314103 9.5 9.1250005 9.5 10 L 9.5 10.199219 A 0.50005 0.50005 0 0 0 9.8203125 10.666016 C 11.162582 11.182198 11.587658 12.366108 11.378906 13.466797 C 11.170155 14.567485 10.342354 15.511121 8.9042969 15.5 A 0.50005 0.50005 0 0 0 8.9003906 15.5 L 5.0117188 15.5 C 3.5989049 15.464849 2.7994222 14.516727 2.6113281 13.425781 C 2.4232341 12.334836 2.860216 11.17225 4.1796875 10.666016 A 0.50005 0.50005 0 0 0 4.5 10.199219 L 4.5 10 C 4.5 9.1250005 4.8101222 8.5314103 5.2695312 8.1230469 C 5.7289403 7.7146835 6.3611111 7.5 7 7.5 z " />
</svg>
