<?xml version="1.0" encoding="UTF-8" standalone="no"?>
<svg
   width="24"
   height="24"
   viewBox="0 0 24 24"
   fill="none"
   stroke="currentColor"
   stroke-width="1"
   stroke-linecap="round"
   stroke-linejoin="round"
   version="1.1"
   id="svg2"
   sodipodi:docname=".tmp_user-round-pen.svg"
   xmlns:inkscape="http://www.inkscape.org/namespaces/inkscape"
   xmlns:sodipodi="http://sodipodi.sourceforge.net/DTD/sodipodi-0.dtd"
   xmlns="http://www.w3.org/2000/svg"
   xmlns:svg="http://www.w3.org/2000/svg">
  <defs
     id="defs2" />
  <sodipodi:namedview
     id="namedview2"
     pagecolor="#ffffff"
     bordercolor="#000000"
     borderopacity="0.25"
     inkscape:showpageshadow="2"
     inkscape:pageopacity="0.0"
     inkscape:pagecheckerboard="0"
     inkscape:deskcolor="#d1d1d1" />
  <path
     id="path1"
     style="baseline-shift:baseline;display:inline;overflow:visible;vector-effect:none;fill:#000000;stroke:none;stroke-linecap:butt;stroke-linejoin:miter;enable-background:accumulate;stop-color:#000000;stop-opacity:1;opacity:1"
     d="M 10 2.5 C 6.9683562 2.5 4.5 4.9683562 4.5 8 C 4.5 10.123234 5.7114958 11.97051 7.4785156 12.886719 C 4.1078802 13.949952 1.4995676 17.079269 1.5 21 A 0.5 0.5 0 0 0 2 21.5 A 0.5 0.5 0 0 0 2.5 21 C 2.4995353 16.786025 5.8553722 13.626336 9.7207031 13.492188 C 9.8133679 13.496857 9.9062004 13.5 10 13.5 C 10.086951 13.5 10.173786 13.498157 10.259766 13.494141 C 11.047201 13.52433 11.84966 13.680937 12.644531 13.980469 A 0.5 0.5 0 0 0 13.289062 13.689453 A 0.5 0.5 0 0 0 12.998047 13.044922 C 12.841819 12.98605 12.686042 12.931842 12.529297 12.882812 C 14.292913 11.96549 15.5 10.120724 15.5 8 C 15.5 4.9683562 13.031644 2.5 10 2.5 z M 10 3.5 C 12.491204 3.5 14.5 5.5087963 14.5 8 C 14.5 10.436103 12.578567 12.409927 10.164062 12.496094 C 10.05552 12.49403 9.9478133 12.495892 9.8398438 12.498047 C 7.4232904 12.414106 5.5 10.43757 5.5 8 C 5.5 5.5087963 7.5087963 3.5 10 3.5 z M 19.746094 12.462891 C 19.151276 12.492995 18.534954 12.752155 18.019531 13.267578 L 14.009766 17.28125 C 13.712589 17.578263 13.496676 17.944344 13.378906 18.347656 L 12.541016 21.21875 C 12.32741 21.951113 13.048887 22.670637 13.78125 22.457031 L 16.650391 21.621094 C 17.053703 21.503324 17.421737 21.285458 17.71875 20.988281 L 21.730469 16.980469 A 0.50005 0.50005 0 0 0 21.732422 16.980469 C 22.32143 16.391414 22.574548 15.669651 22.535156 15 C 22.495765 14.330349 22.186489 13.721646 21.732422 13.267578 C 21.278354 12.813511 20.669651 12.504235 20 12.464844 C 19.916294 12.45992 19.831068 12.45859 19.746094 12.462891 z M 19.792969 13.462891 C 19.842617 13.461005 19.892123 13.461945 19.941406 13.464844 C 20.335671 13.488034 20.728458 13.677677 21.025391 13.974609 C 21.322323 14.271542 21.511964 14.664329 21.535156 15.058594 C 21.558346 15.452859 21.437666 15.859206 21.025391 16.271484 L 17.011719 20.28125 C 16.833488 20.459579 16.613112 20.589485 16.371094 20.660156 L 13.501953 21.498047 L 14.337891 18.628906 C 14.408561 18.386888 14.538468 18.166512 14.716797 17.988281 L 18.728516 13.974609 C 19.089259 13.613866 19.445428 13.476089 19.792969 13.462891 z " />
</svg>
