<?xml version="1.0" encoding="UTF-8" standalone="no"?>
<svg
   width="24"
   height="24"
   viewBox="0 0 24 24"
   fill="none"
   stroke="currentColor"
   stroke-width="1"
   stroke-linecap="round"
   stroke-linejoin="round"
   version="1.1"
   id="svg2"
   sodipodi:docname=".tmp_users-round.svg"
   xmlns:inkscape="http://www.inkscape.org/namespaces/inkscape"
   xmlns:sodipodi="http://sodipodi.sourceforge.net/DTD/sodipodi-0.dtd"
   xmlns="http://www.w3.org/2000/svg"
   xmlns:svg="http://www.w3.org/2000/svg">
  <defs
     id="defs2" />
  <sodipodi:namedview
     id="namedview2"
     pagecolor="#ffffff"
     bordercolor="#000000"
     borderopacity="0.25"
     inkscape:showpageshadow="2"
     inkscape:pageopacity="0.0"
     inkscape:pagecheckerboard="0"
     inkscape:deskcolor="#d1d1d1" />
  <path
     id="path1"
     style="baseline-shift:baseline;display:inline;overflow:visible;vector-effect:none;fill:#000000;stroke:none;stroke-linecap:butt;stroke-linejoin:miter;enable-background:accumulate;stop-color:#000000;stop-opacity:1;opacity:1"
     d="M 10 2.5 C 6.9683562 2.5 4.5 4.9683562 4.5 8 C 4.5 10.120955 5.7087277 11.965592 7.4726562 12.882812 C 4.0155713 13.961084 1.5 17.191511 1.5 21 A 0.5 0.5 0 0 0 2 21.5 A 0.5 0.5 0 0 0 2.5 21 C 2.5 16.851939 5.8519417 13.5 10 13.5 C 14.148058 13.5 17.5 16.851939 17.5 21 A 0.5 0.5 0 0 0 18 21.5 A 0.5 0.5 0 0 0 18.5 21 C 18.5 17.191511 15.984429 13.961084 12.527344 12.882812 C 14.291272 11.965592 15.5 10.120955 15.5 8 C 15.5 4.9683562 13.031644 2.5 10 2.5 z M 17.554688 3.1992188 A 0.5 0.5 0 0 0 17.425781 3.2148438 A 0.5 0.5 0 0 0 17.119141 3.4453125 A 0.5 0.5 0 0 0 17.294922 4.1308594 C 20.066916 5.7749488 20.277212 9.6654607 17.699219 11.599609 A 0.50005 0.50005 0 0 0 17.699219 12.400391 C 19.560125 13.796071 21.5 16.827824 21.5 20 A 0.5 0.5 0 0 0 22 20.5 A 0.5 0.5 0 0 0 22.5 20 C 22.5 16.640294 20.663436 13.632249 18.664062 11.947266 C 21.279 9.497763 20.981019 5.1534359 17.804688 3.2695312 A 0.5 0.5 0 0 0 17.554688 3.1992188 z M 10 3.5 C 12.491204 3.5 14.5 5.5087963 14.5 8 C 14.5 10.491204 12.491204 12.5 10 12.5 C 7.5087963 12.5 5.5 10.491204 5.5 8 C 5.5 5.5087963 7.5087963 3.5 10 3.5 z " />
</svg>
