<?xml version="1.0" encoding="UTF-8" standalone="no"?>
<svg
   width="24"
   height="24"
   viewBox="0 0 24 24"
   fill="none"
   stroke="currentColor"
   stroke-width="1"
   stroke-linecap="round"
   stroke-linejoin="round"
   version="1.1"
   id="svg9"
   sodipodi:docname=".tmp_wheat-off.svg"
   xmlns:inkscape="http://www.inkscape.org/namespaces/inkscape"
   xmlns:sodipodi="http://sodipodi.sourceforge.net/DTD/sodipodi-0.dtd"
   xmlns="http://www.w3.org/2000/svg"
   xmlns:svg="http://www.w3.org/2000/svg">
  <defs
     id="defs9" />
  <sodipodi:namedview
     id="namedview9"
     pagecolor="#ffffff"
     bordercolor="#000000"
     borderopacity="0.25"
     inkscape:showpageshadow="2"
     inkscape:pageopacity="0.0"
     inkscape:pagecheckerboard="0"
     inkscape:deskcolor="#d1d1d1" />
  <path
     id="path1"
     style="baseline-shift:baseline;display:inline;overflow:visible;vector-effect:none;fill:#000000;stroke:none;stroke-linecap:butt;stroke-linejoin:miter;enable-background:accumulate;stop-color:#000000;stop-opacity:1;opacity:1"
     d="M 2 1.5 A 0.5 0.5 0 0 0 1.6464844 1.6464844 A 0.5 0.5 0 0 0 1.6464844 2.3535156 L 7.2929688 8 L 7.1171875 8.1757812 A 0.50005 0.50005 0 0 0 7.1152344 8.1777344 C 6.2758856 9.0203922 5.8915722 10.149285 5.9609375 11.253906 L 5.3535156 10.646484 A 0.50005 0.50005 0 0 0 4.6464844 10.646484 L 3.1171875 12.175781 A 0.50005 0.50005 0 0 0 3.1152344 12.177734 C 1.5646776 13.734404 1.5646776 16.265596 3.1152344 17.822266 A 0.50005 0.50005 0 0 0 3.1171875 17.824219 L 4.2929688 19 L 1.6464844 21.646484 A 0.5 0.5 0 0 0 1.6464844 22.353516 A 0.5 0.5 0 0 0 2.3535156 22.353516 L 5 19.707031 L 6.1757812 20.882812 A 0.50005 0.50005 0 0 0 6.1777344 20.884766 C 7.7344041 22.435322 10.265596 22.435322 11.822266 20.884766 A 0.50005 0.50005 0 0 0 11.824219 20.882812 L 13.353516 19.353516 A 0.50005 0.50005 0 0 0 13.353516 18.646484 L 12.746094 18.039062 C 13.850681 18.108397 14.979634 17.724087 15.822266 16.884766 A 0.50005 0.50005 0 0 0 15.824219 16.882812 L 16 16.707031 L 21.646484 22.353516 A 0.5 0.5 0 0 0 22.353516 22.353516 A 0.5 0.5 0 0 0 22.353516 21.646484 L 16.353516 15.646484 L 12.90625 12.199219 A 0.5 0.5 0 0 0 12.789062 12.082031 L 12.353516 11.646484 L 11.921875 11.214844 A 0.5 0.5 0 0 0 11.794922 11.087891 L 8.3535156 7.6464844 L 2.3535156 1.6464844 A 0.5 0.5 0 0 0 2 1.5 z M 20 1.5 C 17.81871 1.5 15.991559 3.064511 15.583984 5.1289062 C 15.403 4.7861816 15.170282 4.464644 14.884766 4.1777344 A 0.50005 0.50005 0 0 0 14.882812 4.1757812 L 13.353516 2.6464844 A 0.50005 0.50005 0 0 0 12.646484 2.6464844 L 11.117188 4.1757812 C 10.865046 4.4279225 10.648562 4.7116317 10.476562 5.0097656 A 0.5 0.5 0 0 0 10.660156 5.6933594 A 0.5 0.5 0 0 0 11.34375 5.5097656 C 11.47175 5.2878996 11.63636 5.0706713 11.824219 4.8828125 L 13 3.7070312 L 14.175781 4.8828125 C 15.244505 5.9567518 15.347219 7.6466499 14.416016 8.8417969 A 0.5 0.5 0 0 0 14.472656 9.5195312 A 0.5 0.5 0 0 0 14.476562 9.5234375 A 0.5 0.5 0 0 0 14.480469 9.5253906 A 0.5 0.5 0 0 0 15.158203 9.5839844 C 16.353349 8.6527818 18.043249 8.7554952 19.117188 9.8242188 L 20.292969 11 L 19.117188 12.175781 C 18.929329 12.36364 18.7121 12.52825 18.490234 12.65625 A 0.5 0.5 0 0 0 18.306641 13.339844 A 0.5 0.5 0 0 0 18.990234 13.523438 C 19.288368 13.351437 19.572078 13.134954 19.824219 12.882812 L 21.353516 11.353516 A 0.50005 0.50005 0 0 0 21.353516 10.646484 L 19.824219 9.1171875 A 0.50005 0.50005 0 0 0 19.822266 9.1152344 C 19.535223 8.8295665 19.21414 8.5968011 18.871094 8.4160156 C 20.935871 8.0087435 22.5 6.181562 22.5 4 L 22.5 2 A 0.50005 0.50005 0 0 0 22 1.5 L 20 1.5 z M 20 2.5 L 21.5 2.5 L 21.5 4 C 21.5 5.9389189 19.938919 7.5 18 7.5 L 16.5 7.5 L 16.5 6 C 16.5 4.0610811 18.061081 2.5 20 2.5 z M 8 8.7070312 L 10.970703 11.677734 C 10.851464 12.202724 10.586072 12.704657 10.181641 13.111328 C 10.18036 13.112597 10.179013 13.113963 10.177734 13.115234 A 0.50005 0.50005 0 0 0 10.175781 13.117188 L 9 14.292969 L 7.8242188 13.117188 C 6.6540766 11.942431 6.6540765 10.057568 7.8242188 8.8828125 L 8 8.7070312 z M 5 11.707031 L 6.1757812 12.882812 C 7.3452666 14.056908 7.3439535 15.942296 6.1757812 17.117188 L 5 18.292969 L 3.8242188 17.117188 C 2.6540765 15.942433 2.6540764 14.057567 3.8242188 12.882812 L 5 11.707031 z M 12.322266 13.029297 L 15.292969 16 L 15.117188 16.175781 C 13.942431 17.345923 12.057568 17.345923 10.882812 16.175781 L 9.7070312 15 L 10.882812 13.824219 C 10.886518 13.820513 10.890843 13.816218 10.894531 13.8125 C 11.290234 13.423759 11.784584 13.152416 12.322266 13.029297 z M 8.0390625 14.746094 L 8.2929688 15 L 8.0390625 15.253906 C 8.0496489 15.085285 8.0496512 14.914715 8.0390625 14.746094 z M 9 15.707031 L 9.2539062 15.960938 C 9.1693458 15.955625 9.0847066 15.953125 9 15.953125 C 8.9152604 15.953125 8.830687 15.95562 8.7460938 15.960938 L 9 15.707031 z M 9 16.947266 C 9.7648826 16.947266 10.529809 17.239148 11.117188 17.824219 L 12.292969 19 L 11.117188 20.175781 C 9.9424315 21.345923 8.057568 21.345923 6.8828125 20.175781 L 5.7070312 19 L 6.8828125 17.824219 A 0.50005 0.50005 0 0 0 6.8847656 17.822266 L 6.8867188 17.820312 C 6.8880465 17.818977 6.8912527 17.81579 6.8925781 17.814453 C 7.4785178 17.236513 8.2397874 16.947266 9 16.947266 z " />
</svg>
