<?xml version="1.0" encoding="UTF-8" standalone="no"?>
<svg
   width="24"
   height="24"
   viewBox="0 0 24 24"
   fill="none"
   stroke="currentColor"
   stroke-width="1"
   stroke-linecap="round"
   stroke-linejoin="round"
   version="1.1"
   id="svg2"
   sodipodi:docname=".tmp_zoom-out.svg"
   xmlns:inkscape="http://www.inkscape.org/namespaces/inkscape"
   xmlns:sodipodi="http://sodipodi.sourceforge.net/DTD/sodipodi-0.dtd"
   xmlns="http://www.w3.org/2000/svg"
   xmlns:svg="http://www.w3.org/2000/svg">
  <defs
     id="defs2" />
  <sodipodi:namedview
     id="namedview2"
     pagecolor="#ffffff"
     bordercolor="#000000"
     borderopacity="0.25"
     inkscape:showpageshadow="2"
     inkscape:pageopacity="0.0"
     inkscape:pagecheckerboard="0"
     inkscape:deskcolor="#d1d1d1" />
  <path
     id="circle1"
     style="baseline-shift:baseline;display:inline;overflow:visible;vector-effect:none;fill:#000000;stroke:none;stroke-linecap:butt;stroke-linejoin:miter;enable-background:accumulate;stop-color:#000000;stop-opacity:1;opacity:1"
     d="M 11 2.5 C 6.3115019 2.5 2.5 6.3115019 2.5 11 C 2.5 15.688498 6.3115019 19.5 11 19.5 C 13.164663 19.5 15.142561 18.687705 16.644531 17.351562 L 20.646484 21.353516 A 0.5 0.5 0 0 0 21.353516 21.353516 A 0.5 0.5 0 0 0 21.353516 20.646484 L 17.351562 16.644531 C 18.687705 15.142561 19.5 13.164663 19.5 11 C 19.5 6.3115019 15.688498 2.5 11 2.5 z M 11 3.5 C 15.148058 3.5 18.5 6.8519421 18.5 11 C 18.5 13.035664 17.693325 14.880348 16.380859 16.230469 A 0.5 0.5 0 0 0 16.296875 16.296875 A 0.5 0.5 0 0 0 16.230469 16.380859 C 14.880348 17.693325 13.035664 18.5 11 18.5 C 6.8519421 18.5 3.5 15.148058 3.5 11 C 3.5 6.8519421 6.8519421 3.5 11 3.5 z M 8 10.5 A 0.5 0.5 0 0 0 7.5 11 A 0.5 0.5 0 0 0 8 11.5 L 14 11.5 A 0.5 0.5 0 0 0 14.5 11 A 0.5 0.5 0 0 0 14 10.5 L 8 10.5 z " />
</svg>
