<?xml version="1.0" encoding="UTF-8" standalone="no"?>
<svg
   width="24"
   height="24"
   viewBox="0 0 24 24"
   fill="none"
   stroke="currentColor"
   stroke-width="1.2"
   stroke-linecap="round"
   stroke-linejoin="round"
   version="1.1"
   id="svg5"
   sodipodi:docname=".tmp_align-center-vertical.svg"
   xmlns:inkscape="http://www.inkscape.org/namespaces/inkscape"
   xmlns:sodipodi="http://sodipodi.sourceforge.net/DTD/sodipodi-0.dtd"
   xmlns="http://www.w3.org/2000/svg"
   xmlns:svg="http://www.w3.org/2000/svg">
  <defs
     id="defs5" />
  <sodipodi:namedview
     id="namedview5"
     pagecolor="#ffffff"
     bordercolor="#000000"
     borderopacity="0.25"
     inkscape:showpageshadow="2"
     inkscape:pageopacity="0.0"
     inkscape:pagecheckerboard="0"
     inkscape:deskcolor="#d1d1d1" />
  <path
     id="path1"
     style="baseline-shift:baseline;display:inline;overflow:visible;vector-effect:none;fill:#000000;stroke:none;stroke-linecap:butt;stroke-linejoin:miter;enable-background:accumulate;stop-color:#000000;stop-opacity:1;opacity:1"
     d="M 12 1.4003906 A 0.60000002 0.60000002 0 0 0 11.400391 2 L 11.400391 22 A 0.60000002 0.60000002 0 0 0 12 22.599609 A 0.60000002 0.60000002 0 0 0 12.599609 22 L 12.599609 2 A 0.60000002 0.60000002 0 0 0 12 1.4003906 z M 4 3.4003906 C 2.5727273 3.4003906 1.4003906 4.5727273 1.4003906 6 L 1.4003906 8 C 1.4003906 9.4288336 2.5711664 10.599609 4 10.599609 L 8 10.599609 A 0.60000002 0.60000002 0 0 0 8.5996094 10 A 0.60000002 0.60000002 0 0 0 8 9.4003906 L 4 9.4003906 C 3.2196946 9.4003906 2.5996094 8.7803054 2.5996094 8 L 2.5996094 6 C 2.5996094 5.2272727 3.2272727 4.5996094 4 4.5996094 L 8 4.5996094 A 0.60000002 0.60000002 0 0 0 8.5996094 4 A 0.60000002 0.60000002 0 0 0 8 3.4003906 L 4 3.4003906 z M 16 3.4003906 A 0.60000002 0.60000002 0 0 0 15.400391 4 A 0.60000002 0.60000002 0 0 0 16 4.5996094 L 20 4.5996094 C 20.780305 4.5996094 21.400391 5.2196946 21.400391 6 L 21.400391 8 C 21.400391 8.7803054 20.780305 9.4003906 20 9.4003906 L 16 9.4003906 A 0.60000002 0.60000002 0 0 0 15.400391 10 A 0.60000002 0.60000002 0 0 0 16 10.599609 L 20 10.599609 C 21.428834 10.599609 22.599609 9.4288336 22.599609 8 L 22.599609 6 C 22.599609 4.5711664 21.428834 3.4003906 20 3.4003906 L 16 3.4003906 z M 7 13.400391 C 5.5727273 13.400391 4.4003906 14.572727 4.4003906 16 L 4.4003906 18 C 4.4003906 19.428834 5.5711664 20.599609 7 20.599609 L 8 20.599609 A 0.60000002 0.60000002 0 0 0 8.5996094 20 A 0.60000002 0.60000002 0 0 0 8 19.400391 L 7 19.400391 C 6.2196946 19.400391 5.5996094 18.780305 5.5996094 18 L 5.5996094 16 C 5.5996094 15.227273 6.2272727 14.599609 7 14.599609 L 8 14.599609 A 0.60000002 0.60000002 0 0 0 8.5996094 14 A 0.60000002 0.60000002 0 0 0 8 13.400391 L 7 13.400391 z M 16 13.400391 A 0.60000002 0.60000002 0 0 0 15.400391 14 A 0.60000002 0.60000002 0 0 0 16 14.599609 L 17 14.599609 C 17.780305 14.599609 18.400391 15.219695 18.400391 16 L 18.400391 18 C 18.400391 18.780305 17.780305 19.400391 17 19.400391 L 16 19.400391 A 0.60000002 0.60000002 0 0 0 15.400391 20 A 0.60000002 0.60000002 0 0 0 16 20.599609 L 17 20.599609 C 18.428834 20.599609 19.599609 19.428834 19.599609 18 L 19.599609 16 C 19.599609 14.571166 18.428834 13.400391 17 13.400391 L 16 13.400391 z " />
</svg>
