<?xml version="1.0" encoding="UTF-8" standalone="no"?>
<svg
   width="24"
   height="24"
   viewBox="0 0 24 24"
   fill="none"
   stroke="currentColor"
   stroke-width="1.2"
   stroke-linecap="round"
   stroke-linejoin="round"
   version="1.1"
   id="svg5"
   sodipodi:docname=".tmp_align-horizontal-distribute-center.svg"
   xmlns:inkscape="http://www.inkscape.org/namespaces/inkscape"
   xmlns:sodipodi="http://sodipodi.sourceforge.net/DTD/sodipodi-0.dtd"
   xmlns="http://www.w3.org/2000/svg"
   xmlns:svg="http://www.w3.org/2000/svg">
  <defs
     id="defs5" />
  <sodipodi:namedview
     id="namedview5"
     pagecolor="#ffffff"
     bordercolor="#000000"
     borderopacity="0.25"
     inkscape:showpageshadow="2"
     inkscape:pageopacity="0.0"
     inkscape:pagecheckerboard="0"
     inkscape:deskcolor="#d1d1d1" />
  <path
     id="rect1"
     style="baseline-shift:baseline;display:inline;overflow:visible;vector-effect:none;fill:#000000;stroke:none;stroke-linecap:butt;stroke-linejoin:miter;enable-background:accumulate;stop-color:#000000;stop-opacity:1;opacity:1"
     d="M 7 1.4003906 A 0.60000002 0.60000002 0 0 0 6.4003906 2 L 6.4003906 4.4003906 L 6 4.4003906 C 4.5699783 4.4003906 3.4003906 5.5699783 3.4003906 7 L 3.4003906 17 C 3.4003906 18.430022 4.5699783 19.599609 6 19.599609 L 6.4003906 19.599609 L 6.4003906 22 A 0.60000002 0.60000002 0 0 0 7 22.599609 A 0.60000002 0.60000002 0 0 0 7.5996094 22 L 7.5996094 19.599609 L 8 19.599609 C 9.4300217 19.599609 10.599609 18.430022 10.599609 17 L 10.599609 7 C 10.599609 5.5699783 9.4300217 4.4003906 8 4.4003906 L 7.5996094 4.4003906 L 7.5996094 2 A 0.60000002 0.60000002 0 0 0 7 1.4003906 z M 17 1.4003906 A 0.60000002 0.60000002 0 0 0 16.400391 2 L 16.400391 6.4003906 L 16 6.4003906 C 14.569978 6.4003906 13.400391 7.5699783 13.400391 9 L 13.400391 15 C 13.400391 16.430022 14.569978 17.599609 16 17.599609 L 16.400391 17.599609 L 16.400391 22 A 0.60000002 0.60000002 0 0 0 17 22.599609 A 0.60000002 0.60000002 0 0 0 17.599609 22 L 17.599609 17.599609 L 18 17.599609 C 19.430022 17.599609 20.599609 16.430022 20.599609 15 L 20.599609 9 C 20.599609 7.5699783 19.430022 6.4003906 18 6.4003906 L 17.599609 6.4003906 L 17.599609 2 A 0.60000002 0.60000002 0 0 0 17 1.4003906 z M 6 5.5996094 L 7 5.5996094 L 8 5.5996094 C 8.7859783 5.5996094 9.4003906 6.2140217 9.4003906 7 L 9.4003906 17 C 9.4003906 17.785978 8.7859783 18.400391 8 18.400391 L 6 18.400391 C 5.2140217 18.400391 4.5996094 17.785978 4.5996094 17 L 4.5996094 7 C 4.5996094 6.2140217 5.2140217 5.5996094 6 5.5996094 z M 16 7.5996094 L 18 7.5996094 C 18.785978 7.5996094 19.400391 8.2140217 19.400391 9 L 19.400391 15 C 19.400391 15.785978 18.785978 16.400391 18 16.400391 L 16 16.400391 C 15.214022 16.400391 14.599609 15.785978 14.599609 15 L 14.599609 9 C 14.599609 8.2140217 15.214022 7.5996094 16 7.5996094 z " />
</svg>
