<?xml version="1.0" encoding="UTF-8" standalone="no"?>
<svg
   width="24"
   height="24"
   viewBox="0 0 24 24"
   fill="none"
   stroke="currentColor"
   stroke-width="1.2"
   stroke-linecap="round"
   stroke-linejoin="round"
   version="1.1"
   id="svg1"
   sodipodi:docname=".tmp_arrow-big-down.svg"
   xmlns:inkscape="http://www.inkscape.org/namespaces/inkscape"
   xmlns:sodipodi="http://sodipodi.sourceforge.net/DTD/sodipodi-0.dtd"
   xmlns="http://www.w3.org/2000/svg"
   xmlns:svg="http://www.w3.org/2000/svg">
  <defs
     id="defs1" />
  <sodipodi:namedview
     id="namedview1"
     pagecolor="#ffffff"
     bordercolor="#000000"
     borderopacity="0.25"
     inkscape:showpageshadow="2"
     inkscape:pageopacity="0.0"
     inkscape:pagecheckerboard="0"
     inkscape:deskcolor="#d1d1d1" />
  <path
     id="path1"
     style="baseline-shift:baseline;display:inline;overflow:visible;vector-effect:none;fill:#000000;stroke:none;stroke-linecap:butt;stroke-linejoin:miter;enable-background:accumulate;stop-color:#000000;stop-opacity:1;opacity:1"
     d="M 10 3.4003906 C 9.1234512 3.4003906 8.4003906 4.1234512 8.4003906 5 L 8.4003906 10.998047 C 8.4003906 11.226068 8.2280207 11.398437 8 11.398438 L 5.1074219 11.398438 C 4.3304218 11.280652 3.6438807 11.757612 3.390625 12.369141 C 3.1368806 12.981849 3.2860358 13.805959 3.921875 14.271484 L 10.722656 21.070312 C 11.423315 21.771009 12.576685 21.771009 13.277344 21.070312 L 20.076172 14.271484 C 20.7121 13.805957 20.863119 12.981845 20.609375 12.369141 C 20.354779 11.754376 19.660963 11.275643 18.878906 11.400391 L 16 11.400391 C 15.771979 11.400391 15.599609 11.228021 15.599609 11 L 15.599609 5 C 15.599609 4.1234512 14.876549 3.4003906 14 3.4003906 L 10 3.4003906 z M 10 4.5996094 L 14 4.5996094 C 14.228021 4.5996094 14.400391 4.7719793 14.400391 5 L 14.400391 11 C 14.400391 11.876549 15.123451 12.599609 16 12.599609 L 18.939453 12.599609 A 0.60006002 0.60006002 0 0 0 19.054688 12.589844 C 19.320242 12.538034 19.427003 12.651864 19.5 12.828125 C 19.573 13.004388 19.57795 13.161393 19.353516 13.3125 A 0.60006002 0.60006002 0 0 0 19.265625 13.386719 L 12.429688 20.222656 C 12.18761 20.464746 11.812389 20.464746 11.570312 20.222656 L 4.734375 13.384766 A 0.60006002 0.60006002 0 0 0 4.6445312 13.3125 C 4.4200975 13.161393 4.42505 13.004388 4.4980469 12.828125 C 4.5710438 12.651862 4.6797578 12.536076 4.9453125 12.587891 A 0.60006002 0.60006002 0 0 0 5.0605469 12.599609 L 8 12.599609 C 8.8765488 12.599609 9.5996094 11.874596 9.5996094 10.998047 L 9.5996094 5 C 9.5996094 4.7719793 9.7719793 4.5996094 10 4.5996094 z " />
</svg>
