<?xml version="1.0" encoding="UTF-8" standalone="no"?>
<svg
   width="24"
   height="24"
   viewBox="0 0 24 24"
   fill="none"
   stroke="currentColor"
   stroke-width="1.2"
   stroke-linecap="round"
   stroke-linejoin="round"
   version="1.1"
   id="svg3"
   sodipodi:docname=".tmp_arrow-left-from-line.svg"
   xmlns:inkscape="http://www.inkscape.org/namespaces/inkscape"
   xmlns:sodipodi="http://sodipodi.sourceforge.net/DTD/sodipodi-0.dtd"
   xmlns="http://www.w3.org/2000/svg"
   xmlns:svg="http://www.w3.org/2000/svg">
  <defs
     id="defs3" />
  <sodipodi:namedview
     id="namedview3"
     pagecolor="#ffffff"
     bordercolor="#000000"
     borderopacity="0.25"
     inkscape:showpageshadow="2"
     inkscape:pageopacity="0.0"
     inkscape:pagecheckerboard="0"
     inkscape:deskcolor="#d1d1d1" />
  <path
     id="path1"
     style="baseline-shift:baseline;display:inline;overflow:visible;vector-effect:none;fill:#000000;stroke:none;stroke-linecap:butt;stroke-linejoin:miter;enable-background:accumulate;stop-color:#000000;stop-opacity:1;opacity:1"
     d="M 21 4.4003906 A 0.60000002 0.60000002 0 0 0 20.400391 5 L 20.400391 19 A 0.60000002 0.60000002 0 0 0 21 19.599609 A 0.60000002 0.60000002 0 0 0 21.599609 19 L 21.599609 5 A 0.60000002 0.60000002 0 0 0 21 4.4003906 z M 9 5.4003906 A 0.60000002 0.60000002 0 0 0 8.5761719 5.5761719 L 2.5761719 11.576172 A 0.60006002 0.60006002 0 0 0 2.5605469 11.59375 A 0.60000002 0.60000002 0 0 0 2.5292969 11.628906 A 0.60006002 0.60006002 0 0 0 2.5253906 11.634766 A 0.60000002 0.60000002 0 0 0 2.484375 11.695312 A 0.60006002 0.60006002 0 0 0 2.4726562 11.714844 A 0.60000002 0.60000002 0 0 0 2.40625 11.919922 A 0.60006002 0.60006002 0 0 0 2.40625 11.921875 A 0.60006002 0.60006002 0 0 0 2.40625 12.078125 A 0.60000002 0.60000002 0 0 0 2.40625 12.080078 A 0.60006002 0.60006002 0 0 0 2.421875 12.154297 A 0.60000002 0.60000002 0 0 0 2.4726562 12.285156 A 0.60006002 0.60006002 0 0 0 2.5253906 12.365234 A 0.60000002 0.60000002 0 0 0 2.5605469 12.40625 A 0.60006002 0.60006002 0 0 0 2.5761719 12.423828 A 0.60000002 0.60000002 0 0 0 2.5820312 12.429688 L 8.5761719 18.423828 A 0.60000002 0.60000002 0 0 0 9.4238281 18.423828 A 0.60000002 0.60000002 0 0 0 9.4238281 17.576172 L 4.4472656 12.599609 L 17 12.599609 A 0.60000002 0.60000002 0 0 0 17.599609 12 A 0.60000002 0.60000002 0 0 0 17 11.400391 L 4.4472656 11.400391 L 9.4238281 6.4238281 A 0.60000002 0.60000002 0 0 0 9.4238281 5.5761719 A 0.60000002 0.60000002 0 0 0 9 5.4003906 z " />
</svg>
