<?xml version="1.0" encoding="UTF-8" standalone="no"?>
<svg
   width="24"
   height="24"
   viewBox="0 0 24 24"
   fill="none"
   stroke="currentColor"
   stroke-width="1.2"
   stroke-linecap="round"
   stroke-linejoin="round"
   version="1.1"
   id="svg5"
   sodipodi:docname=".tmp_arrows-up-from-line.svg"
   xmlns:inkscape="http://www.inkscape.org/namespaces/inkscape"
   xmlns:sodipodi="http://sodipodi.sourceforge.net/DTD/sodipodi-0.dtd"
   xmlns="http://www.w3.org/2000/svg"
   xmlns:svg="http://www.w3.org/2000/svg">
  <defs
     id="defs5" />
  <sodipodi:namedview
     id="namedview5"
     pagecolor="#ffffff"
     bordercolor="#000000"
     borderopacity="0.25"
     inkscape:showpageshadow="2"
     inkscape:pageopacity="0.0"
     inkscape:pagecheckerboard="0"
     inkscape:deskcolor="#d1d1d1" />
  <path
     id="path1"
     style="baseline-shift:baseline;display:inline;overflow:visible;vector-effect:none;fill:#000000;stroke:none;stroke-linecap:butt;stroke-linejoin:miter;enable-background:accumulate;stop-color:#000000;stop-opacity:1;opacity:1"
     d="M 7 2.4003906 A 0.60000002 0.60000002 0 0 0 6.9199219 2.40625 A 0.60000002 0.60000002 0 0 0 6.7148438 2.4726562 A 0.60006002 0.60006002 0 0 0 6.6347656 2.5253906 A 0.60000002 0.60000002 0 0 0 6.59375 2.5605469 A 0.60006002 0.60006002 0 0 0 6.5761719 2.5761719 A 0.60000002 0.60000002 0 0 0 6.5703125 2.5820312 L 3.5761719 5.5761719 A 0.60000002 0.60000002 0 0 0 3.5761719 6.4238281 A 0.60000002 0.60000002 0 0 0 4.4238281 6.4238281 L 6.4003906 4.4472656 L 6.4003906 17 A 0.60000002 0.60000002 0 0 0 7 17.599609 A 0.60000002 0.60000002 0 0 0 7.5996094 17 L 7.5996094 4.4472656 L 9.5761719 6.4238281 A 0.60000002 0.60000002 0 0 0 10.423828 6.4238281 A 0.60000002 0.60000002 0 0 0 10.423828 5.5761719 L 7.4296875 2.5820312 A 0.60000002 0.60000002 0 0 0 7.40625 2.5605469 A 0.60006002 0.60006002 0 0 0 7.3046875 2.484375 A 0.60000002 0.60000002 0 0 0 7.1542969 2.421875 A 0.60006002 0.60006002 0 0 0 7.0800781 2.40625 A 0.60000002 0.60000002 0 0 0 7.078125 2.40625 A 0.60006002 0.60006002 0 0 0 7 2.4003906 z M 17 2.4003906 A 0.60000002 0.60000002 0 0 0 16.919922 2.40625 A 0.60000002 0.60000002 0 0 0 16.714844 2.4726562 A 0.60006002 0.60006002 0 0 0 16.695312 2.484375 A 0.60000002 0.60000002 0 0 0 16.59375 2.5605469 A 0.60006002 0.60006002 0 0 0 16.576172 2.5761719 L 13.576172 5.5761719 A 0.60000002 0.60000002 0 0 0 13.576172 6.4238281 A 0.60000002 0.60000002 0 0 0 14.423828 6.4238281 L 16.400391 4.4472656 L 16.400391 17 A 0.60000002 0.60000002 0 0 0 17 17.599609 A 0.60000002 0.60000002 0 0 0 17.599609 17 L 17.599609 4.4472656 L 19.576172 6.4238281 A 0.60000002 0.60000002 0 0 0 20.423828 6.4238281 A 0.60000002 0.60000002 0 0 0 20.423828 5.5761719 L 17.423828 2.5761719 A 0.60000002 0.60000002 0 0 0 17.371094 2.5292969 A 0.60006002 0.60006002 0 0 0 17.365234 2.5253906 A 0.60000002 0.60000002 0 0 0 17.154297 2.421875 A 0.60006002 0.60006002 0 0 0 17.080078 2.40625 A 0.60000002 0.60000002 0 0 0 17.078125 2.40625 A 0.60006002 0.60006002 0 0 0 17 2.4003906 z M 4 20.400391 A 0.60000002 0.60000002 0 0 0 3.4003906 21 A 0.60000002 0.60000002 0 0 0 4 21.599609 L 20 21.599609 A 0.60000002 0.60000002 0 0 0 20.599609 21 A 0.60000002 0.60000002 0 0 0 20 20.400391 L 4 20.400391 z " />
</svg>
