<?xml version="1.0" encoding="UTF-8" standalone="no"?>
<svg
   width="24"
   height="24"
   viewBox="0 0 24 24"
   fill="none"
   stroke="currentColor"
   stroke-width="1.2"
   stroke-linecap="round"
   stroke-linejoin="round"
   version="1.1"
   id="svg2"
   sodipodi:docname=".tmp_arrow-big-right-dash.svg"
   xmlns:inkscape="http://www.inkscape.org/namespaces/inkscape"
   xmlns:sodipodi="http://sodipodi.sourceforge.net/DTD/sodipodi-0.dtd"
   xmlns="http://www.w3.org/2000/svg"
   xmlns:svg="http://www.w3.org/2000/svg">
  <defs
     id="defs2" />
  <sodipodi:namedview
     id="namedview2"
     pagecolor="#ffffff"
     bordercolor="#000000"
     borderopacity="0.25"
     inkscape:showpageshadow="2"
     inkscape:pageopacity="0.0"
     inkscape:pagecheckerboard="0"
     inkscape:deskcolor="#d1d1d1" />
  <path
     id="path1"
     style="baseline-shift:baseline;display:inline;overflow:visible;vector-effect:none;fill:#000000;stroke:none;stroke-linecap:butt;stroke-linejoin:miter;enable-background:accumulate;stop-color:#000000;stop-opacity:1;opacity:1"
     d="M 13.005859 3.2734375 C 12.784722 3.2690338 12.565769 3.3091942 12.369141 3.390625 C 11.754376 3.6452208 11.275643 4.3390372 11.400391 5.1210938 L 11.400391 8 C 11.400391 8.2280207 11.228021 8.4003906 11 8.4003906 L 9 8.4003906 C 8.1234512 8.4003906 7.4003906 9.1234512 7.4003906 10 L 7.4003906 14 C 7.4003906 14.876549 8.1234512 15.599609 9 15.599609 L 11 15.599609 C 11.228021 15.599609 11.400391 15.771979 11.400391 16 L 11.400391 18.878906 C 11.275643 19.660963 11.754376 20.354779 12.369141 20.609375 C 12.981845 20.863118 13.805957 20.712096 14.271484 20.076172 L 21.070312 13.277344 C 21.771009 12.576685 21.771008 11.423315 21.070312 10.722656 L 14.271484 3.9238281 C 14.044886 3.6143412 13.733003 3.4189027 13.402344 3.3300781 C 13.271477 3.2949237 13.138542 3.2760797 13.005859 3.2734375 z M 13.019531 4.4550781 C 13.121843 4.4555314 13.218058 4.5062135 13.3125 4.6464844 A 0.60006002 0.60006002 0 0 0 13.386719 4.734375 L 20.222656 11.570312 C 20.464746 11.812389 20.464746 12.18761 20.222656 12.429688 L 13.386719 19.265625 A 0.60006002 0.60006002 0 0 0 13.3125 19.353516 C 13.161393 19.577949 13.004388 19.572997 12.828125 19.5 C 12.651862 19.427 12.538029 19.320242 12.589844 19.054688 A 0.60006002 0.60006002 0 0 0 12.599609 18.939453 L 12.599609 16 C 12.599609 15.123451 11.876549 14.400391 11 14.400391 L 9 14.400391 C 8.7719793 14.400391 8.5996094 14.228021 8.5996094 14 L 8.5996094 10 C 8.5996094 9.7719793 8.7719793 9.5996094 9 9.5996094 L 11 9.5996094 C 11.876549 9.5996094 12.599609 8.8765488 12.599609 8 L 12.599609 5.0605469 A 0.60006002 0.60006002 0 0 0 12.589844 4.9453125 C 12.538064 4.6797578 12.651862 4.5729969 12.828125 4.5 C 12.894224 4.4726261 12.958144 4.4548062 13.019531 4.4550781 z M 4 8.4003906 A 0.60000002 0.60000002 0 0 0 3.4003906 9 L 3.4003906 15 A 0.60000002 0.60000002 0 0 0 4 15.599609 A 0.60000002 0.60000002 0 0 0 4.5996094 15 L 4.5996094 9 A 0.60000002 0.60000002 0 0 0 4 8.4003906 z " />
</svg>
