<?xml version="1.0" encoding="UTF-8" standalone="no"?>
<svg
   width="24"
   height="24"
   viewBox="0 0 24 24"
   fill="none"
   stroke="currentColor"
   stroke-width="1.2"
   stroke-linecap="round"
   stroke-linejoin="round"
   version="1.1"
   id="svg3"
   sodipodi:docname=".tmp_asterisk.svg"
   xmlns:inkscape="http://www.inkscape.org/namespaces/inkscape"
   xmlns:sodipodi="http://sodipodi.sourceforge.net/DTD/sodipodi-0.dtd"
   xmlns="http://www.w3.org/2000/svg"
   xmlns:svg="http://www.w3.org/2000/svg">
  <defs
     id="defs3" />
  <sodipodi:namedview
     id="namedview3"
     pagecolor="#ffffff"
     bordercolor="#000000"
     borderopacity="0.25"
     inkscape:showpageshadow="2"
     inkscape:pageopacity="0.0"
     inkscape:pagecheckerboard="0"
     inkscape:deskcolor="#d1d1d1" />
  <path
     id="path1"
     style="baseline-shift:baseline;display:inline;overflow:visible;vector-effect:none;fill:#000000;stroke:none;stroke-linecap:butt;stroke-linejoin:miter;enable-background:accumulate;stop-color:#000000;stop-opacity:1;opacity:1"
     d="M 12 5.4003906 A 0.60000002 0.60000002 0 0 0 11.400391 6 L 11.400391 10.960938 L 7.1035156 8.4804688 A 0.60000002 0.60000002 0 0 0 6.2851562 8.6992188 A 0.60000002 0.60000002 0 0 0 6.5039062 9.5195312 L 10.800781 12 L 6.5039062 14.480469 A 0.60000002 0.60000002 0 0 0 6.2851562 15.300781 A 0.60000002 0.60000002 0 0 0 7.1035156 15.519531 L 11.400391 13.039062 L 11.400391 18 A 0.60000002 0.60000002 0 0 0 12 18.599609 A 0.60000002 0.60000002 0 0 0 12.599609 18 L 12.599609 13.039062 L 16.896484 15.519531 A 0.60000002 0.60000002 0 0 0 17.714844 15.300781 A 0.60000002 0.60000002 0 0 0 17.496094 14.480469 L 13.199219 12 L 17.496094 9.5195312 A 0.60000002 0.60000002 0 0 0 17.714844 8.6992188 A 0.60000002 0.60000002 0 0 0 17.351562 8.4199219 A 0.60000002 0.60000002 0 0 0 16.896484 8.4804688 L 12.599609 10.960938 L 12.599609 6 A 0.60000002 0.60000002 0 0 0 12 5.4003906 z " />
</svg>
