<?xml version="1.0" encoding="UTF-8" standalone="no"?>
<svg
   width="24"
   height="24"
   viewBox="0 0 24 24"
   fill="none"
   stroke="currentColor"
   stroke-width="1.2"
   stroke-linecap="round"
   stroke-linejoin="round"
   version="1.1"
   id="svg3"
   sodipodi:docname=".tmp_bell-minus.svg"
   xmlns:inkscape="http://www.inkscape.org/namespaces/inkscape"
   xmlns:sodipodi="http://sodipodi.sourceforge.net/DTD/sodipodi-0.dtd"
   xmlns="http://www.w3.org/2000/svg"
   xmlns:svg="http://www.w3.org/2000/svg">
  <defs
     id="defs3" />
  <sodipodi:namedview
     id="namedview3"
     pagecolor="#ffffff"
     bordercolor="#000000"
     borderopacity="0.25"
     inkscape:showpageshadow="2"
     inkscape:pageopacity="0.0"
     inkscape:pagecheckerboard="0"
     inkscape:deskcolor="#d1d1d1" />
  <path
     id="path1"
     style="baseline-shift:baseline;display:inline;overflow:visible;vector-effect:none;fill:#000000;stroke:none;stroke-linecap:butt;stroke-linejoin:miter;enable-background:accumulate;stop-color:#000000;stop-opacity:1;opacity:1"
     d="M 11.978516 1.3925781 C 11.743017 1.3946054 11.508153 1.4087922 11.275391 1.4355469 C 10.654692 1.5068928 10.047165 1.6651719 9.4746094 1.9023438 C 7.1843883 2.8510315 5.4000415 5.0851622 5.4003906 8 C 5.4003906 12.37355 4.1570499 13.538232 2.8300781 14.908203 A 0.60006002 0.60006002 0 0 0 2.8183594 14.921875 C 2.3655788 15.418143 2.3012869 16.109617 2.5371094 16.644531 C 2.7729318 17.179446 3.3282187 17.599118 4 17.599609 L 20 17.599609 C 20.671694 17.59985 21.22644 17.181055 21.462891 16.646484 C 21.699342 16.111914 21.635644 15.420641 21.183594 14.923828 A 0.60006002 0.60006002 0 0 0 21.171875 14.910156 C 20.313281 14.019853 19.651295 12.95799 19.230469 11.794922 A 0.60000002 0.60000002 0 0 0 18.462891 11.435547 A 0.60000002 0.60000002 0 0 0 18.103516 12.205078 C 18.579671 13.521064 19.329262 14.723411 20.298828 15.732422 C 20.302362 15.736098 20.305054 15.74047 20.308594 15.744141 C 20.428463 15.884955 20.425759 16.025274 20.365234 16.162109 C 20.302687 16.303515 20.196828 16.400461 20 16.400391 L 4 16.400391 C 3.8031339 16.400247 3.6971485 16.303612 3.6347656 16.162109 C 3.5723828 16.020607 3.5723903 15.8759 3.7050781 15.730469 C 5.0298501 14.362096 6.5996094 12.61184 6.5996094 8 C 6.5993182 5.5688172 8.0471264 3.7912047 9.9335938 3.0097656 C 11.820061 2.2283266 14.099399 2.4623892 15.818359 4.1816406 A 0.60000002 0.60000002 0 0 0 16.667969 4.1816406 A 0.60000002 0.60000002 0 0 0 16.667969 3.3320312 C 15.315486 1.9793187 13.627008 1.378387 11.978516 1.3925781 z M 15 7.4003906 A 0.60000002 0.60000002 0 0 0 14.400391 8 A 0.60000002 0.60000002 0 0 0 15 8.5996094 L 21 8.5996094 A 0.60000002 0.60000002 0 0 0 21.599609 8 A 0.60000002 0.60000002 0 0 0 21 7.4003906 L 15 7.4003906 z M 10.267578 20.400391 A 0.60000002 0.60000002 0 0 0 9.96875 20.480469 A 0.60000002 0.60000002 0 0 0 9.7480469 21.300781 C 10.734385 23.008969 13.265615 23.008969 14.251953 21.300781 A 0.60000002 0.60000002 0 0 0 14.03125 20.480469 A 0.60000002 0.60000002 0 0 0 13.212891 20.699219 C 12.659583 21.657463 11.340417 21.657463 10.787109 20.699219 A 0.60000002 0.60000002 0 0 0 10.267578 20.400391 z " />
</svg>
