<?xml version="1.0" encoding="UTF-8" standalone="no"?>
<svg
   width="24"
   height="24"
   viewBox="0 0 24 24"
   fill="none"
   stroke="currentColor"
   stroke-width="1.2"
   stroke-linecap="round"
   stroke-linejoin="round"
   version="1.1"
   id="svg6"
   sodipodi:docname=".tmp_binoculars.svg"
   xmlns:inkscape="http://www.inkscape.org/namespaces/inkscape"
   xmlns:sodipodi="http://sodipodi.sourceforge.net/DTD/sodipodi-0.dtd"
   xmlns="http://www.w3.org/2000/svg"
   xmlns:svg="http://www.w3.org/2000/svg">
  <defs
     id="defs6" />
  <sodipodi:namedview
     id="namedview6"
     pagecolor="#ffffff"
     bordercolor="#000000"
     borderopacity="0.25"
     inkscape:showpageshadow="2"
     inkscape:pageopacity="0.0"
     inkscape:pagecheckerboard="0"
     inkscape:deskcolor="#d1d1d1" />
  <path
     id="path1"
     style="baseline-shift:baseline;display:inline;overflow:visible;vector-effect:none;fill:#000000;stroke:none;stroke-linecap:butt;stroke-linejoin:miter;enable-background:accumulate;stop-color:#000000;stop-opacity:1;opacity:1"
     d="M 6 2.4003906 C 5.1234512 2.4003906 4.4003906 3.1234512 4.4003906 4 L 4.4003906 6.5195312 C 3.8166556 6.75909 3.4003906 7.3349203 3.4003906 8 L 3.4003906 10.320312 C 3.4003906 11.039564 2.9831354 11.806938 2.4902344 12.595703 C 1.9973334 13.384468 1.4003906 14.165667 1.4003906 15.148438 L 1.4003906 19 C 1.4003906 20.428834 2.5711664 21.599609 4 21.599609 L 8 21.599609 C 9.4288336 21.599609 10.599609 20.428834 10.599609 19 L 10.599609 16.599609 L 13.400391 16.599609 L 13.400391 19 C 13.400391 20.428834 14.571166 21.599609 16 21.599609 L 20 21.599609 C 21.428834 21.599609 22.599609 20.428834 22.599609 19 L 22.599609 15.148438 C 22.599609 14.165667 22.002667 13.384468 21.509766 12.595703 C 21.016865 11.806938 20.599609 11.039564 20.599609 10.320312 L 20.599609 8 C 20.599609 7.3349201 20.183344 6.7590899 19.599609 6.5195312 L 19.599609 4 C 19.599609 3.1234512 18.876549 2.4003906 18 2.4003906 L 16 2.4003906 C 15.123451 2.4003906 14.400391 3.1234512 14.400391 4 L 14.400391 6.5195312 C 13.816656 6.7590899 13.400391 7.3349201 13.400391 8 L 13.400391 9.4003906 L 10.599609 9.4003906 L 10.599609 8 C 10.599609 7.3349203 10.183344 6.75909 9.5996094 6.5195312 L 9.5996094 4 C 9.5996094 3.1234512 8.8765488 2.4003906 8 2.4003906 L 6 2.4003906 z M 6 3.5996094 L 8 3.5996094 C 8.2280207 3.5996094 8.4003906 3.7719793 8.4003906 4 L 8.4003906 6.4003906 L 5.5996094 6.4003906 L 5.5996094 4 C 5.5996094 3.7719793 5.7719793 3.5996094 6 3.5996094 z M 16 3.5996094 L 18 3.5996094 C 18.228021 3.5996094 18.400391 3.7719793 18.400391 4 L 18.400391 6.4003906 L 15.599609 6.4003906 L 15.599609 4 C 15.599609 3.7719793 15.771979 3.5996094 16 3.5996094 z M 5 7.5996094 L 9 7.5996094 C 9.2280207 7.5996094 9.4003906 7.7719793 9.4003906 8 L 9.4003906 15.400391 L 2.5996094 15.400391 L 2.5996094 15.148438 C 2.5996094 14.741207 3.0026666 14.041954 3.5097656 13.230469 C 4.0168646 12.418984 4.5996094 11.46806 4.5996094 10.320312 L 4.5996094 8 C 4.5996094 7.7719793 4.7719793 7.5996094 5 7.5996094 z M 15 7.5996094 L 19 7.5996094 C 19.228021 7.5996094 19.400391 7.7719793 19.400391 8 L 19.400391 10.320312 C 19.400391 11.46806 19.983135 12.418984 20.490234 13.230469 C 20.997333 14.041954 21.400391 14.741207 21.400391 15.148438 L 21.400391 15.400391 L 14.599609 15.400391 L 14.599609 8 C 14.599609 7.7719793 14.771979 7.5996094 15 7.5996094 z M 10.599609 10.599609 L 13.400391 10.599609 L 13.400391 15.400391 L 10.599609 15.400391 L 10.599609 10.599609 z M 2.5996094 16.599609 L 9.4003906 16.599609 L 9.4003906 19 C 9.4003906 19.780305 8.7803054 20.400391 8 20.400391 L 4 20.400391 C 3.2196946 20.400391 2.5996094 19.780305 2.5996094 19 L 2.5996094 16.599609 z M 14.599609 16.599609 L 21.400391 16.599609 L 21.400391 19 C 21.400391 19.780305 20.780305 20.400391 20 20.400391 L 16 20.400391 C 15.219695 20.400391 14.599609 19.780305 14.599609 19 L 14.599609 16.599609 z " />
</svg>
