<?xml version="1.0" encoding="UTF-8" standalone="no"?>
<svg
   width="24"
   height="24"
   viewBox="0 0 24 24"
   fill="none"
   stroke="currentColor"
   stroke-width="1.2"
   stroke-linecap="round"
   stroke-linejoin="round"
   version="1.1"
   id="svg3"
   sodipodi:docname=".tmp_book-up.svg"
   xmlns:inkscape="http://www.inkscape.org/namespaces/inkscape"
   xmlns:sodipodi="http://sodipodi.sourceforge.net/DTD/sodipodi-0.dtd"
   xmlns="http://www.w3.org/2000/svg"
   xmlns:svg="http://www.w3.org/2000/svg">
  <defs
     id="defs3" />
  <sodipodi:namedview
     id="namedview3"
     pagecolor="#ffffff"
     bordercolor="#000000"
     borderopacity="0.25"
     inkscape:showpageshadow="2"
     inkscape:pageopacity="0.0"
     inkscape:pagecheckerboard="0"
     inkscape:deskcolor="#d1d1d1" />
  <path
     id="path1"
     style="baseline-shift:baseline;display:inline;overflow:visible;vector-effect:none;fill:#000000;stroke:none;stroke-linecap:butt;stroke-linejoin:miter;enable-background:accumulate;stop-color:#000000;stop-opacity:1;opacity:1"
     d="M 6.5 1.4003906 C 4.795024 1.4003906 3.4003906 2.795024 3.4003906 4.5 L 3.4003906 19.5 C 3.4003906 20.258333 3.6491511 21.024728 4.1757812 21.617188 C 4.7024114 22.209647 5.516667 22.599609 6.5 22.599609 L 19 22.599609 C 19.876549 22.599609 20.599609 21.876549 20.599609 21 L 20.599609 17 L 20.599609 3 C 20.599609 2.1234512 19.876549 1.4003906 19 1.4003906 L 6.5 1.4003906 z M 6.5 2.5996094 L 19 2.5996094 C 19.228021 2.5996094 19.400391 2.7719793 19.400391 3 L 19.400391 16.400391 L 6.5 16.400391 C 5.7267287 16.400391 5.1059161 16.686934 4.5996094 17.078125 L 4.5996094 4.5 C 4.5996094 3.4435522 5.4435522 2.5996094 6.5 2.5996094 z M 12 6.4003906 A 0.60000002 0.60000002 0 0 0 11.845703 6.421875 A 0.60000002 0.60000002 0 0 0 11.714844 6.4726562 A 0.60006002 0.60006002 0 0 0 11.634766 6.5253906 A 0.60000002 0.60000002 0 0 0 11.59375 6.5605469 A 0.60006002 0.60006002 0 0 0 11.576172 6.5761719 A 0.60000002 0.60000002 0 0 0 11.570312 6.5820312 L 8.5761719 9.5761719 A 0.60000002 0.60000002 0 0 0 8.5761719 10.423828 A 0.60000002 0.60000002 0 0 0 9.4238281 10.423828 L 11.400391 8.4472656 L 11.400391 13 A 0.60000002 0.60000002 0 0 0 12 13.599609 A 0.60000002 0.60000002 0 0 0 12.599609 13 L 12.599609 8.4472656 L 14.576172 10.423828 A 0.60000002 0.60000002 0 0 0 15.423828 10.423828 A 0.60000002 0.60000002 0 0 0 15.423828 9.5761719 L 12.429688 6.5820312 A 0.60000002 0.60000002 0 0 0 12.40625 6.5605469 A 0.60006002 0.60006002 0 0 0 12.304688 6.484375 A 0.60000002 0.60000002 0 0 0 12.285156 6.4726562 A 0.60000002 0.60000002 0 0 0 12.154297 6.421875 A 0.60006002 0.60006002 0 0 0 12.080078 6.40625 A 0.60000002 0.60000002 0 0 0 12.078125 6.40625 A 0.60006002 0.60006002 0 0 0 12 6.4003906 z M 6.5 17.599609 L 19.400391 17.599609 L 19.400391 21 C 19.400391 21.228021 19.228021 21.400391 19 21.400391 L 6.5 21.400391 C 5.8166671 21.400391 5.3809216 21.165354 5.0742188 20.820312 C 4.7675159 20.475273 4.5996094 19.991667 4.5996094 19.5 C 4.5996094 19.008333 4.7675159 18.524728 5.0742188 18.179688 C 5.3809216 17.834647 5.8166671 17.599609 6.5 17.599609 z " />
</svg>
