<?xml version="1.0" encoding="UTF-8" standalone="no"?>
<svg
   width="24"
   height="24"
   viewBox="0 0 24 24"
   fill="none"
   stroke="currentColor"
   stroke-width="1.2"
   stroke-linecap="round"
   stroke-linejoin="round"
   version="1.1"
   id="svg5"
   sodipodi:docname=".tmp_boom-box.svg"
   xmlns:inkscape="http://www.inkscape.org/namespaces/inkscape"
   xmlns:sodipodi="http://sodipodi.sourceforge.net/DTD/sodipodi-0.dtd"
   xmlns="http://www.w3.org/2000/svg"
   xmlns:svg="http://www.w3.org/2000/svg">
  <defs
     id="defs5" />
  <sodipodi:namedview
     id="namedview5"
     pagecolor="#ffffff"
     bordercolor="#000000"
     borderopacity="0.25"
     inkscape:showpageshadow="2"
     inkscape:pageopacity="0.0"
     inkscape:pagecheckerboard="0"
     inkscape:deskcolor="#d1d1d1" />
  <path
     id="path1"
     style="baseline-shift:baseline;display:inline;overflow:visible;vector-effect:none;fill:#000000;stroke:none;stroke-linecap:butt;stroke-linejoin:miter;enable-background:accumulate;stop-color:#000000;stop-opacity:1;opacity:1"
     d="M 6 2.4003906 C 4.5711664 2.4003906 3.4003906 3.5711664 3.4003906 5 L 3.4003906 8.4707031 C 2.2570121 8.743177 1.4003906 9.7761711 1.4003906 11 L 1.4003906 19 C 1.4003906 20.430022 2.5699783 21.599609 4 21.599609 L 20 21.599609 C 21.430022 21.599609 22.599609 20.430022 22.599609 19 L 22.599609 11 C 22.599609 9.7761709 21.742988 8.7431768 20.599609 8.4707031 L 20.599609 5 C 20.599609 3.5711664 19.428834 2.4003906 18 2.4003906 L 6 2.4003906 z M 6 3.5996094 L 18 3.5996094 C 18.780305 3.5996094 19.400391 4.2196946 19.400391 5 L 19.400391 8.4003906 L 16.599609 8.4003906 L 16.599609 8 A 0.60000002 0.60000002 0 0 0 16 7.4003906 A 0.60000002 0.60000002 0 0 0 15.400391 8 L 15.400391 8.4003906 L 12.599609 8.4003906 L 12.599609 8 A 0.60000002 0.60000002 0 0 0 12 7.4003906 A 0.60000002 0.60000002 0 0 0 11.400391 8 L 11.400391 8.4003906 L 8.5996094 8.4003906 L 8.5996094 8 A 0.60000002 0.60000002 0 0 0 8 7.4003906 A 0.60000002 0.60000002 0 0 0 7.4003906 8 L 7.4003906 8.4003906 L 4.5996094 8.4003906 L 4.5996094 5 C 4.5996094 4.2196946 5.2196946 3.5996094 6 3.5996094 z M 4 9.5996094 L 20 9.5996094 C 20.785978 9.5996094 21.400391 10.214022 21.400391 11 L 21.400391 19 C 21.400391 19.785978 20.785978 20.400391 20 20.400391 L 4 20.400391 C 3.2140217 20.400391 2.5996094 19.785978 2.5996094 19 L 2.5996094 11 C 2.5996094 10.214022 3.2140217 9.5996094 4 9.5996094 z M 8 12.400391 C 6.5711664 12.400391 5.4003906 13.571166 5.4003906 15 C 5.4003906 16.428834 6.5711664 17.599609 8 17.599609 C 9.4288336 17.599609 10.599609 16.428834 10.599609 15 C 10.599609 13.571166 9.4288336 12.400391 8 12.400391 z M 16 12.400391 C 14.571166 12.400391 13.400391 13.571166 13.400391 15 C 13.400391 16.428834 14.571166 17.599609 16 17.599609 C 17.428834 17.599609 18.599609 16.428834 18.599609 15 C 18.599609 13.571166 17.428834 12.400391 16 12.400391 z M 8 13.599609 C 8.7803054 13.599609 9.4003906 14.219695 9.4003906 15 C 9.4003906 15.780305 8.7803054 16.400391 8 16.400391 C 7.2196946 16.400391 6.5996094 15.780305 6.5996094 15 C 6.5996094 14.219695 7.2196946 13.599609 8 13.599609 z M 16 13.599609 C 16.780305 13.599609 17.400391 14.219695 17.400391 15 C 17.400391 15.780305 16.780305 16.400391 16 16.400391 C 15.219695 16.400391 14.599609 15.780305 14.599609 15 C 14.599609 14.219695 15.219695 13.599609 16 13.599609 z " />
</svg>
