<?xml version="1.0" encoding="UTF-8" standalone="no"?>
<svg
   width="24"
   height="24"
   viewBox="0 0 24 24"
   fill="none"
   stroke="currentColor"
   stroke-width="1.2"
   stroke-linecap="round"
   stroke-linejoin="round"
   version="1.1"
   id="svg8"
   sodipodi:docname=".tmp_brain.svg"
   xmlns:inkscape="http://www.inkscape.org/namespaces/inkscape"
   xmlns:sodipodi="http://sodipodi.sourceforge.net/DTD/sodipodi-0.dtd"
   xmlns="http://www.w3.org/2000/svg"
   xmlns:svg="http://www.w3.org/2000/svg">
  <defs
     id="defs8" />
  <sodipodi:namedview
     id="namedview8"
     pagecolor="#ffffff"
     bordercolor="#000000"
     borderopacity="0.25"
     inkscape:showpageshadow="2"
     inkscape:pageopacity="0.0"
     inkscape:pagecheckerboard="0"
     inkscape:deskcolor="#d1d1d1" />
  <path
     id="path1"
     style="baseline-shift:baseline;display:inline;overflow:visible;vector-effect:none;fill:#000000;stroke:none;stroke-linecap:butt;stroke-linejoin:miter;enable-background:accumulate;stop-color:#000000;stop-opacity:1;opacity:1"
     d="M 8.9160156 1.4003906 C 8.6369287 1.4068124 8.3523492 1.4473416 8.0683594 1.5234375 C 6.5486188 1.9306563 5.5573483 3.2436924 5.4199219 4.6777344 C 2.9843551 5.5649208 1.7605637 8.3454876 2.7421875 10.740234 C 1.5054538 11.953772 1.1534723 13.686782 1.5566406 15.191406 C 1.8349334 16.229995 2.4783077 17.182078 3.4023438 17.814453 C 3.304011 20.273801 5.1973588 22.423459 7.7011719 22.585938 C 9.5552358 22.706253 11.172328 21.668814 12 20.144531 C 12.827672 21.668814 14.444764 22.706253 16.298828 22.585938 C 18.802641 22.423459 20.695989 20.273801 20.597656 17.814453 C 21.521692 17.182078 22.165067 16.229995 22.443359 15.191406 C 22.846528 13.686782 22.494546 11.953772 21.257812 10.740234 C 22.239437 8.3454876 21.015646 5.5649207 18.580078 4.6777344 C 18.442651 3.243693 17.45138 1.9306561 15.931641 1.5234375 C 14.344333 1.098114 12.808935 1.8532591 12 3.1269531 C 11.480523 2.3090198 10.687977 1.6826073 9.734375 1.4785156 C 9.4686967 1.4216547 9.1951025 1.3939689 8.9160156 1.4003906 z M 8.9511719 2.5976562 C 10.265914 2.5609147 11.400452 3.6059326 11.400391 5 L 11.400391 9 C 11.399439 10.587736 10.355991 11.978348 8.8320312 12.423828 A 0.60000002 0.60000002 0 0 0 8.4238281 13.167969 A 0.60000002 0.60000002 0 0 0 9.1679688 13.576172 C 10.074234 13.311255 10.828685 12.777859 11.400391 12.087891 L 11.400391 18 C 11.398291 19.971601 9.7467583 21.516346 7.7792969 21.388672 C 6.0992325 21.279648 4.8073719 19.992016 4.6230469 18.400391 C 5.0488354 18.529571 5.5090622 18.599588 6 18.599609 A 0.60000002 0.60000002 0 0 0 6.5996094 18 A 0.60000002 0.60000002 0 0 0 6 17.400391 C 5.417537 17.400365 4.9044904 17.27852 4.4648438 17.066406 A 0.60000002 0.60000002 0 0 0 4.1582031 16.896484 C 3.4246986 16.435087 2.9365676 15.701044 2.7167969 14.880859 C 2.3923702 13.670099 2.6689468 12.327274 3.78125 11.414062 A 0.60000002 0.60000002 0 0 0 3.9082031 11.3125 C 4.0299864 11.221205 4.1605707 11.135648 4.3007812 11.054688 A 0.60000002 0.60000002 0 0 0 4.5195312 10.236328 A 0.60000002 0.60000002 0 0 0 4.1542969 9.9570312 A 0.60000002 0.60000002 0 0 0 3.7441406 9.9921875 C 3.2451087 8.3871074 4.0046791 6.654389 5.5234375 5.9335938 C 5.6022952 6.2291754 5.721187 6.5208705 5.8828125 6.8007812 A 0.60000002 0.60000002 0 0 0 6.7011719 7.0195312 A 0.60000002 0.60000002 0 0 0 6.921875 6.1992188 C 6.7327815 5.8717375 6.6295467 5.5239446 6.6015625 5.1796875 A 0.60000002 0.60000002 0 0 0 6.59375 5.015625 C 6.5815971 3.9687578 7.263527 2.9805096 8.3789062 2.6816406 C 8.5712716 2.6300958 8.7633516 2.602905 8.9511719 2.5976562 z M 15.048828 2.5976562 C 15.236648 2.602905 15.428728 2.6300958 15.621094 2.6816406 C 16.736474 2.9805098 17.418404 3.968757 17.40625 5.015625 A 0.60000002 0.60000002 0 0 0 17.398438 5.1796875 C 17.370453 5.5239452 17.267219 5.871737 17.078125 6.1992188 A 0.60000002 0.60000002 0 0 0 17.298828 7.0195312 A 0.60000002 0.60000002 0 0 0 18.117188 6.8007812 C 18.278813 6.5208706 18.397705 6.2291754 18.476562 5.9335938 C 19.995321 6.654389 20.754891 8.3871074 20.255859 9.9921875 A 0.60000002 0.60000002 0 0 0 19.845703 9.9570312 A 0.60000002 0.60000002 0 0 0 19.480469 10.236328 A 0.60000002 0.60000002 0 0 0 19.699219 11.054688 C 19.839429 11.135647 19.970014 11.221206 20.091797 11.3125 A 0.60000002 0.60000002 0 0 0 20.21875 11.414062 C 21.331052 12.327274 21.60763 13.6701 21.283203 14.880859 C 21.063433 15.701044 20.575301 16.435087 19.841797 16.896484 A 0.60000002 0.60000002 0 0 0 19.535156 17.066406 C 19.09551 17.27852 18.582463 17.400365 18 17.400391 A 0.60000002 0.60000002 0 0 0 17.400391 18 A 0.60000002 0.60000002 0 0 0 18 18.599609 C 18.490938 18.599588 18.951165 18.529571 19.376953 18.400391 C 19.192628 19.992016 17.900768 21.279648 16.220703 21.388672 C 14.253242 21.516346 12.601714 19.971601 12.599609 18 L 12.599609 12.087891 C 13.171315 12.777859 13.925766 13.311255 14.832031 13.576172 A 0.60000002 0.60000002 0 0 0 15.576172 13.167969 A 0.60000002 0.60000002 0 0 0 15.167969 12.423828 C 13.644009 11.978348 12.600561 10.587736 12.599609 9 L 12.599609 5 C 12.599548 3.6059326 13.734086 2.5609147 15.048828 2.5976562 z " />
</svg>
