<?xml version="1.0" encoding="UTF-8" standalone="no"?>
<svg
   width="24"
   height="24"
   viewBox="0 0 24 24"
   fill="none"
   stroke="currentColor"
   stroke-width="1.2"
   stroke-linecap="round"
   stroke-linejoin="round"
   version="1.1"
   id="svg8"
   sodipodi:docname=".tmp_castle.svg"
   xmlns:inkscape="http://www.inkscape.org/namespaces/inkscape"
   xmlns:sodipodi="http://sodipodi.sourceforge.net/DTD/sodipodi-0.dtd"
   xmlns="http://www.w3.org/2000/svg"
   xmlns:svg="http://www.w3.org/2000/svg">
  <defs
     id="defs8" />
  <sodipodi:namedview
     id="namedview8"
     pagecolor="#ffffff"
     bordercolor="#000000"
     borderopacity="0.25"
     inkscape:showpageshadow="2"
     inkscape:pageopacity="0.0"
     inkscape:pagecheckerboard="0"
     inkscape:deskcolor="#d1d1d1" />
  <path
     id="path1"
     style="baseline-shift:baseline;display:inline;overflow:visible;vector-effect:none;fill:#000000;stroke:none;stroke-linecap:butt;stroke-linejoin:miter;enable-background:accumulate;stop-color:#000000;stop-opacity:1;opacity:1"
     d="M 6 2.4003906 A 0.60000002 0.60000002 0 0 0 5.4003906 3 L 5.4003906 5 L 5.4003906 10.400391 L 2.5996094 10.400391 L 2.5996094 9 A 0.60000002 0.60000002 0 0 0 2 8.4003906 A 0.60000002 0.60000002 0 0 0 1.4003906 9 L 1.4003906 19 C 1.4003906 20.428834 2.5711664 21.599609 4 21.599609 L 20 21.599609 C 21.428834 21.599609 22.599609 20.428834 22.599609 19 L 22.599609 9 A 0.60000002 0.60000002 0 0 0 22 8.4003906 A 0.60000002 0.60000002 0 0 0 21.400391 9 L 21.400391 10.400391 L 18.599609 10.400391 L 18.599609 3 A 0.60000002 0.60000002 0 0 0 18 2.4003906 A 0.60000002 0.60000002 0 0 0 17.400391 3 L 17.400391 4.4003906 L 14.599609 4.4003906 L 14.599609 3 A 0.60000002 0.60000002 0 0 0 14 2.4003906 A 0.60000002 0.60000002 0 0 0 13.400391 3 L 13.400391 4.4003906 L 10.599609 4.4003906 L 10.599609 3 A 0.60000002 0.60000002 0 0 0 10 2.4003906 A 0.60000002 0.60000002 0 0 0 9.4003906 3 L 9.4003906 4.4003906 L 6.5996094 4.4003906 L 6.5996094 3 A 0.60000002 0.60000002 0 0 0 6 2.4003906 z M 6.5996094 5.5996094 L 17.400391 5.5996094 L 17.400391 10.400391 L 6.5996094 10.400391 L 6.5996094 5.5996094 z M 2.5996094 11.599609 L 6 11.599609 L 21.400391 11.599609 L 21.400391 19 C 21.400391 19.780305 20.780305 20.400391 20 20.400391 L 15.599609 20.400391 L 15.599609 18 C 15.599609 16.85 15.147146 15.910745 14.460938 15.300781 C 13.774728 14.690818 12.883333 14.400391 12 14.400391 C 11.116667 14.400391 10.225272 14.690818 9.5390625 15.300781 C 8.8528533 15.910745 8.4003906 16.85 8.4003906 18 L 8.4003906 20.400391 L 4 20.400391 C 3.2196946 20.400391 2.5996094 19.780305 2.5996094 19 L 2.5996094 11.599609 z M 12 15.599609 C 12.616667 15.599609 13.225271 15.809183 13.664062 16.199219 C 14.102852 16.589255 14.400391 17.150001 14.400391 18 L 14.400391 20.400391 L 9.5996094 20.400391 L 9.5996094 18 C 9.5996094 17.150001 9.8971462 16.589255 10.335938 16.199219 C 10.774727 15.809183 11.383333 15.599609 12 15.599609 z " />
</svg>
