<?xml version="1.0" encoding="UTF-8" standalone="no"?>
<svg
   width="24"
   height="24"
   viewBox="0 0 24 24"
   fill="none"
   stroke="currentColor"
   stroke-width="1.2"
   stroke-linecap="round"
   stroke-linejoin="round"
   version="1.1"
   id="svg5"
   sodipodi:docname=".tmp_cctv.svg"
   xmlns:inkscape="http://www.inkscape.org/namespaces/inkscape"
   xmlns:sodipodi="http://sodipodi.sourceforge.net/DTD/sodipodi-0.dtd"
   xmlns="http://www.w3.org/2000/svg"
   xmlns:svg="http://www.w3.org/2000/svg">
  <defs
     id="defs5" />
  <sodipodi:namedview
     id="namedview5"
     pagecolor="#ffffff"
     bordercolor="#000000"
     borderopacity="0.25"
     inkscape:showpageshadow="2"
     inkscape:pageopacity="0.0"
     inkscape:pagecheckerboard="0"
     inkscape:deskcolor="#d1d1d1" />
  <path
     id="path1"
     style="baseline-shift:baseline;display:inline;overflow:visible;vector-effect:none;fill:#000000;stroke:none;stroke-linecap:butt;stroke-linejoin:miter;enable-background:accumulate;stop-color:#000000;stop-opacity:1;opacity:1"
     d="M 6.5332031 3.3984375 C 5.1643304 3.3111492 3.8059128 4.0314785 3.1542969 5.3300781 A 0.60006002 0.60006002 0 0 0 3.1523438 5.3339844 L 1.7714844 8.1230469 L 1.7734375 8.1230469 C 0.91232349 9.8514246 1.6152548 11.967256 3.3398438 12.835938 A 0.60006002 0.60006002 0 0 0 3.3417969 12.835938 L 8.1972656 15.265625 L 7.0234375 17.630859 C 6.7833656 18.107316 6.2971808 18.404104 5.7636719 18.400391 A 0.60006002 0.60006002 0 0 0 5.7597656 18.400391 L 2.5996094 18.400391 L 2.5996094 17 A 0.60000002 0.60000002 0 0 0 2 16.400391 A 0.60000002 0.60000002 0 0 0 1.4003906 17 L 1.4003906 21 A 0.60000002 0.60000002 0 0 0 2 21.599609 A 0.60000002 0.60000002 0 0 0 2.5996094 21 L 2.5996094 19.599609 L 5.7558594 19.599609 C 6.7429779 19.606509 7.6515129 19.05148 8.0957031 18.169922 A 0.60006002 0.60006002 0 0 0 8.0976562 18.166016 L 9.2714844 15.802734 L 12.835938 17.587891 C 13.619991 17.980326 14.592243 17.657251 14.984375 16.873047 L 15.501953 15.839844 L 17.046875 17.998047 C 17.732866 18.955582 19.25215 18.839017 19.779297 17.785156 L 21.8125 13.714844 C 22.332735 12.673753 21.546648 11.401012 20.382812 11.400391 L 17.720703 11.400391 L 18.089844 10.662109 C 18.48122 9.8784284 18.158307 8.9077463 17.375 8.515625 L 7.8789062 3.7636719 C 7.4460856 3.5463752 6.989494 3.4275336 6.5332031 3.3984375 z M 6.2246094 4.5878906 C 6.5980504 4.5766234 6.9799635 4.6552604 7.3398438 4.8359375 A 0.60006002 0.60006002 0 0 0 7.3417969 4.8359375 L 16.837891 9.5898438 C 17.041637 9.6918388 17.117425 9.9211558 17.015625 10.125 L 13.910156 16.335938 C 13.808145 16.539945 13.577014 16.617715 13.373047 16.515625 L 3.8808594 11.763672 C 2.7338113 11.185901 2.2749152 9.8077711 2.8476562 8.6582031 A 0.60006002 0.60006002 0 0 0 2.8476562 8.65625 L 4.2265625 5.8691406 C 4.5155244 5.2932711 5.0059218 4.8896477 5.5683594 4.703125 C 5.7792734 4.633179 6.0005447 4.594651 6.2246094 4.5878906 z M 7 8.4003906 A 0.60000002 0.60000002 0 0 0 6.4003906 9 A 0.60000002 0.60000002 0 0 0 7 9.5996094 L 7.0097656 9.5996094 A 0.60000002 0.60000002 0 0 0 7.609375 9 A 0.60000002 0.60000002 0 0 0 7.0097656 8.4003906 L 7 8.4003906 z M 17.121094 12.599609 L 20.380859 12.599609 C 20.703112 12.599781 20.884282 12.89142 20.740234 13.179688 L 18.705078 17.248047 C 18.558408 17.541266 18.212087 17.567544 18.021484 17.300781 L 16.109375 14.625 L 17.121094 12.599609 z " />
</svg>
