<?xml version="1.0" encoding="UTF-8" standalone="no"?>
<svg
   width="24"
   height="24"
   viewBox="0 0 24 24"
   fill="none"
   stroke="currentColor"
   stroke-width="1.2"
   stroke-linecap="round"
   stroke-linejoin="round"
   version="1.1"
   id="svg2"
   sodipodi:docname=".tmp_chart-pie.svg"
   xmlns:inkscape="http://www.inkscape.org/namespaces/inkscape"
   xmlns:sodipodi="http://sodipodi.sourceforge.net/DTD/sodipodi-0.dtd"
   xmlns="http://www.w3.org/2000/svg"
   xmlns:svg="http://www.w3.org/2000/svg">
  <defs
     id="defs2" />
  <sodipodi:namedview
     id="namedview2"
     pagecolor="#ffffff"
     bordercolor="#000000"
     borderopacity="0.25"
     inkscape:showpageshadow="2"
     inkscape:pageopacity="0.0"
     inkscape:pagecheckerboard="0"
     inkscape:deskcolor="#d1d1d1" />
  <path
     id="path1"
     style="baseline-shift:baseline;display:inline;overflow:visible;vector-effect:none;fill:#000000;stroke:none;stroke-linecap:butt;stroke-linejoin:miter;enable-background:accumulate;stop-color:#000000;stop-opacity:1;opacity:1"
     d="M 12.888672 1.4453125 C 12.059031 1.4576256 11.398438 2.1801053 11.398438 3.0019531 L 11.398438 11.001953 C 11.398438 11.878502 12.121498 12.601562 12.998047 12.601562 A 0.60006002 0.60006002 0 0 0 13 12.601562 L 21 12.599609 C 21.877362 12.599609 22.637683 11.84784 22.546875 10.941406 C 22.04334 5.9276537 18.070552 1.9554931 13.056641 1.453125 C 12.999974 1.4474583 12.943981 1.4444916 12.888672 1.4453125 z M 7.9882812 2.2304688 A 0.60000002 0.60000002 0 0 0 7.7597656 2.2792969 C 0.90887843 5.268913 -0.76863786 14.278048 4.546875 19.533203 C 9.8623879 24.788358 18.850534 23.007627 21.761719 16.123047 A 0.60000002 0.60000002 0 0 0 21.443359 15.337891 A 0.60000002 0.60000002 0 0 0 20.658203 15.65625 C 18.06156 21.796978 10.131814 23.36704 5.390625 18.679688 C 0.64943591 13.992335 2.1295587 6.047457 8.2402344 3.3808594 A 0.60000002 0.60000002 0 0 0 8.5507812 2.5898438 A 0.60000002 0.60000002 0 0 0 8.21875 2.2714844 A 0.60000002 0.60000002 0 0 0 7.9882812 2.2304688 z M 12.902344 2.6464844 C 12.914022 2.6464253 12.925417 2.6472292 12.9375 2.6484375 C 17.390632 3.0946184 20.90634 6.6094677 21.353516 11.0625 C 21.372707 11.254066 21.226638 11.400391 21 11.400391 L 12.998047 11.400391 C 12.770026 11.400391 12.599609 11.229974 12.599609 11.001953 L 12.599609 3.0019531 C 12.599609 2.788801 12.727165 2.6473709 12.902344 2.6464844 z " />
</svg>
