<?xml version="1.0" encoding="UTF-8" standalone="no"?>
<svg
   width="24"
   height="24"
   viewBox="0 0 24 24"
   fill="none"
   stroke="currentColor"
   stroke-width="1.2"
   stroke-linecap="round"
   stroke-linejoin="round"
   version="1.1"
   id="svg3"
   sodipodi:docname=".tmp_circle-arrow-out-up-left.svg"
   xmlns:inkscape="http://www.inkscape.org/namespaces/inkscape"
   xmlns:sodipodi="http://sodipodi.sourceforge.net/DTD/sodipodi-0.dtd"
   xmlns="http://www.w3.org/2000/svg"
   xmlns:svg="http://www.w3.org/2000/svg">
  <defs
     id="defs3" />
  <sodipodi:namedview
     id="namedview3"
     pagecolor="#ffffff"
     bordercolor="#000000"
     borderopacity="0.25"
     inkscape:showpageshadow="2"
     inkscape:pageopacity="0.0"
     inkscape:pagecheckerboard="0"
     inkscape:deskcolor="#d1d1d1" />
  <path
     id="path1"
     style="baseline-shift:baseline;display:inline;overflow:visible;vector-effect:none;fill:#000000;stroke:none;stroke-linecap:butt;stroke-linejoin:miter;enable-background:accumulate;stop-color:#000000;stop-opacity:1;opacity:1"
     d="M 2 1.4003906 A 0.60006002 0.60006002 0 0 0 1.4003906 2 L 1.4003906 8 A 0.60000002 0.60000002 0 0 0 2 8.5996094 A 0.60000002 0.60000002 0 0 0 2.5996094 8 L 2.5996094 3.4472656 L 11.576172 12.423828 A 0.60000002 0.60000002 0 0 0 12.423828 12.423828 A 0.60000002 0.60000002 0 0 0 12.423828 11.576172 L 3.4472656 2.5996094 L 8 2.5996094 A 0.60000002 0.60000002 0 0 0 8.5996094 2 A 0.60000002 0.60000002 0 0 0 8 1.4003906 L 2 1.4003906 z M 12 1.4003906 A 0.60000002 0.60000002 0 0 0 11.400391 2 A 0.60000002 0.60000002 0 0 0 12 2.5996094 C 16.213043 2.5996094 19.325819 5.1239584 20.683594 8.4023438 C 22.041369 11.680729 21.625168 15.667801 18.646484 18.646484 C 15.667801 21.625168 11.680729 22.041369 8.4023438 20.683594 C 5.1239584 19.325819 2.5996094 16.213043 2.5996094 12 A 0.60000002 0.60000002 0 0 0 2 11.400391 A 0.60000002 0.60000002 0 0 0 1.4003906 12 C 1.4003906 16.696625 4.261221 20.267976 7.9433594 21.792969 C 11.625498 23.317962 16.173501 22.81478 19.494141 19.494141 C 22.81478 16.173501 23.317962 11.625498 21.792969 7.9433594 C 20.267976 4.261221 16.696625 1.4003906 12 1.4003906 z " />
</svg>
