<?xml version="1.0" encoding="UTF-8" standalone="no"?>
<svg
   width="24"
   height="24"
   viewBox="0 0 24 24"
   fill="none"
   stroke="currentColor"
   stroke-width="1.2"
   stroke-linecap="round"
   stroke-linejoin="round"
   version="1.1"
   id="svg4"
   sodipodi:docname=".tmp_clock-alert.svg"
   xmlns:inkscape="http://www.inkscape.org/namespaces/inkscape"
   xmlns:sodipodi="http://sodipodi.sourceforge.net/DTD/sodipodi-0.dtd"
   xmlns="http://www.w3.org/2000/svg"
   xmlns:svg="http://www.w3.org/2000/svg">
  <defs
     id="defs4" />
  <sodipodi:namedview
     id="namedview4"
     pagecolor="#ffffff"
     bordercolor="#000000"
     borderopacity="0.25"
     inkscape:showpageshadow="2"
     inkscape:pageopacity="0.0"
     inkscape:pagecheckerboard="0"
     inkscape:deskcolor="#d1d1d1" />
  <path
     id="path1"
     style="baseline-shift:baseline;display:inline;overflow:visible;vector-effect:none;fill:#000000;stroke:none;stroke-linecap:butt;stroke-linejoin:miter;enable-background:accumulate;stop-color:#000000;stop-opacity:1;opacity:1"
     d="M 11.974609 1.3964844 C 7.9712872 1.405547 3.9475353 3.6371022 2.1738281 8.015625 C 0.40012098 12.394148 1.7351754 16.797121 4.6035156 19.589844 C 7.4718558 22.382566 11.910313 23.599661 16.240234 21.708984 A 0.60000002 0.60000002 0 0 0 16.550781 20.919922 A 0.60000002 0.60000002 0 0 0 15.759766 20.609375 C 11.874915 22.30571 7.9954312 21.217162 5.4414062 18.730469 C 2.8873814 16.243776 1.6957504 12.39518 3.2871094 8.4667969 C 4.8784684 4.5384136 8.4138805 2.6037726 11.978516 2.5957031 C 15.54315 2.5876331 19.086344 4.5058936 20.695312 8.4277344 A 0.60000002 0.60000002 0 0 0 21.478516 8.7558594 A 0.60000002 0.60000002 0 0 0 21.804688 7.9726562 C 20.011385 3.6015065 15.977932 1.3874218 11.974609 1.3964844 z M 12 5.4003906 A 0.60000002 0.60000002 0 0 0 11.400391 6 L 11.400391 12 A 0.60006002 0.60006002 0 0 0 11.732422 12.537109 L 15.732422 14.537109 A 0.60000002 0.60000002 0 0 0 16.537109 14.267578 A 0.60000002 0.60000002 0 0 0 16.267578 13.462891 L 12.599609 11.628906 L 12.599609 6 A 0.60000002 0.60000002 0 0 0 12 5.4003906 z M 20 11.400391 A 0.60000002 0.60000002 0 0 0 19.400391 12 L 19.400391 17 A 0.60000002 0.60000002 0 0 0 20 17.599609 A 0.60000002 0.60000002 0 0 0 20.599609 17 L 20.599609 12 A 0.60000002 0.60000002 0 0 0 20 11.400391 z M 20 20.400391 A 0.60000002 0.60000002 0 0 0 19.400391 21 A 0.60000002 0.60000002 0 0 0 20 21.599609 L 20.009766 21.599609 A 0.60000002 0.60000002 0 0 0 20.609375 21 A 0.60000002 0.60000002 0 0 0 20.009766 20.400391 L 20 20.400391 z " />
</svg>
