<?xml version="1.0" encoding="UTF-8" standalone="no"?>
<svg
   width="24"
   height="24"
   viewBox="0 0 24 24"
   fill="none"
   stroke="currentColor"
   stroke-width="1.2"
   stroke-linecap="round"
   stroke-linejoin="round"
   version="1.1"
   id="svg8"
   sodipodi:docname=".tmp_cloud-sun-rain.svg"
   xmlns:inkscape="http://www.inkscape.org/namespaces/inkscape"
   xmlns:sodipodi="http://sodipodi.sourceforge.net/DTD/sodipodi-0.dtd"
   xmlns="http://www.w3.org/2000/svg"
   xmlns:svg="http://www.w3.org/2000/svg">
  <defs
     id="defs8" />
  <sodipodi:namedview
     id="namedview8"
     pagecolor="#ffffff"
     bordercolor="#000000"
     borderopacity="0.25"
     inkscape:showpageshadow="2"
     inkscape:pageopacity="0.0"
     inkscape:pagecheckerboard="0"
     inkscape:deskcolor="#d1d1d1" />
  <path
     id="path1"
     style="baseline-shift:baseline;display:inline;overflow:visible;vector-effect:none;fill:#000000;stroke:none;stroke-linecap:butt;stroke-linejoin:miter;enable-background:accumulate;stop-color:#000000;stop-opacity:1;opacity:1"
     d="M 12 1.4003906 A 0.60000002 0.60000002 0 0 0 11.400391 2 L 11.400391 4 A 0.60000002 0.60000002 0 0 0 12 4.5996094 A 0.60000002 0.60000002 0 0 0 12.599609 4 L 12.599609 2 A 0.60000002 0.60000002 0 0 0 12 1.4003906 z M 4.9296875 4.3300781 A 0.60000002 0.60000002 0 0 0 4.5058594 4.5058594 A 0.60000002 0.60000002 0 0 0 4.5058594 5.3535156 L 5.9160156 6.7636719 A 0.60000002 0.60000002 0 0 0 6.7636719 6.7636719 A 0.60000002 0.60000002 0 0 0 6.7636719 5.9160156 L 5.3535156 4.5058594 A 0.60000002 0.60000002 0 0 0 4.9296875 4.3300781 z M 19.070312 4.3300781 A 0.60000002 0.60000002 0 0 0 18.646484 4.5058594 L 17.236328 5.9160156 A 0.60000002 0.60000002 0 0 0 17.236328 6.7636719 A 0.60000002 0.60000002 0 0 0 18.083984 6.7636719 L 19.494141 5.3535156 A 0.60000002 0.60000002 0 0 0 19.494141 4.5058594 A 0.60000002 0.60000002 0 0 0 19.070312 4.3300781 z M 11.642578 7.4121094 C 10.999921 7.4578816 10.348674 7.6448529 9.7246094 8 A 0.60000002 0.60000002 0 0 0 9.5 8.8183594 A 0.60000002 0.60000002 0 0 0 10.318359 9.0429688 C 12.840339 7.6077416 15.828114 9.6897185 15.355469 12.552734 A 0.60000002 0.60000002 0 0 0 15.849609 13.242188 A 0.60000002 0.60000002 0 0 0 16.539062 12.748047 C 17.006888 9.9142324 14.81186 7.5953321 12.28125 7.4121094 C 12.070366 7.3968408 11.856797 7.396852 11.642578 7.4121094 z M 20 11.400391 A 0.60000002 0.60000002 0 0 0 19.400391 12 A 0.60000002 0.60000002 0 0 0 20 12.599609 L 22 12.599609 A 0.60000002 0.60000002 0 0 0 22.599609 12 A 0.60000002 0.60000002 0 0 0 22 11.400391 L 20 11.400391 z M 7.1953125 11.40625 C 6.368894 11.374785 5.5199627 11.528291 4.7050781 11.894531 C 1.4455397 13.359492 0.37669419 17.499473 2.5195312 20.359375 A 0.60000002 0.60000002 0 0 0 3.359375 20.480469 A 0.60000002 0.60000002 0 0 0 3.4804688 19.640625 C 1.7823374 17.374242 2.6141839 14.149217 5.1972656 12.988281 C 7.7803473 11.827346 10.745043 13.346543 11.3125 16.121094 A 0.60006002 0.60006002 0 0 0 11.900391 16.599609 L 13 16.599609 C 14.132305 16.597909 14.912942 17.271673 15.246094 18.144531 C 15.579246 19.017389 15.447018 20.039762 14.601562 20.792969 A 0.60000002 0.60000002 0 0 0 14.552734 21.638672 A 0.60000002 0.60000002 0 0 0 15.398438 21.6875 C 16.613091 20.605379 16.859296 19.006121 16.367188 17.716797 C 15.875081 16.427471 14.626765 15.398 13 15.400391 L 12.267578 15.400391 C 11.550511 13.072331 9.5029124 11.494109 7.1953125 11.40625 z M 7 18.400391 A 0.60000002 0.60000002 0 0 0 6.4003906 19 L 6.4003906 21 A 0.60000002 0.60000002 0 0 0 7 21.599609 A 0.60000002 0.60000002 0 0 0 7.5996094 21 L 7.5996094 19 A 0.60000002 0.60000002 0 0 0 7 18.400391 z M 11 19.400391 A 0.60000002 0.60000002 0 0 0 10.400391 20 L 10.400391 22 A 0.60000002 0.60000002 0 0 0 11 22.599609 A 0.60000002 0.60000002 0 0 0 11.599609 22 L 11.599609 20 A 0.60000002 0.60000002 0 0 0 11 19.400391 z " />
</svg>
