<?xml version="1.0" encoding="UTF-8" standalone="no"?>
<svg
   width="24"
   height="24"
   viewBox="0 0 24 24"
   fill="none"
   stroke="currentColor"
   stroke-width="1.2"
   stroke-linecap="round"
   stroke-linejoin="round"
   version="1.1"
   id="svg4"
   sodipodi:docname=".tmp_concierge-bell.svg"
   xmlns:inkscape="http://www.inkscape.org/namespaces/inkscape"
   xmlns:sodipodi="http://sodipodi.sourceforge.net/DTD/sodipodi-0.dtd"
   xmlns="http://www.w3.org/2000/svg"
   xmlns:svg="http://www.w3.org/2000/svg">
  <defs
     id="defs4" />
  <sodipodi:namedview
     id="namedview4"
     pagecolor="#ffffff"
     bordercolor="#000000"
     borderopacity="0.25"
     inkscape:showpageshadow="2"
     inkscape:pageopacity="0.0"
     inkscape:pagecheckerboard="0"
     inkscape:deskcolor="#d1d1d1" />
  <path
     id="path1"
     style="baseline-shift:baseline;display:inline;overflow:visible;vector-effect:none;fill:#000000;stroke:none;stroke-linecap:butt;stroke-linejoin:miter;enable-background:accumulate;stop-color:#000000;stop-opacity:1;opacity:1"
     d="M 10 3.4003906 A 0.60000002 0.60000002 0 0 0 9.4003906 4 A 0.60000002 0.60000002 0 0 0 10 4.5996094 L 11.400391 4.5996094 L 11.400391 7.421875 C 7.1125578 7.7184623 3.6799264 11.170178 3.4160156 15.466797 C 2.2651688 15.73365 1.4003906 16.771506 1.4003906 18 L 1.4003906 19 C 1.4003906 19.876549 2.1234512 20.599609 3 20.599609 L 21 20.599609 C 21.876549 20.599609 22.599609 19.876549 22.599609 19 L 22.599609 18 C 22.599609 16.771506 21.734832 15.733649 20.583984 15.466797 C 20.320074 11.170178 16.887442 7.7184624 12.599609 7.421875 L 12.599609 4.5996094 L 14 4.5996094 A 0.60000002 0.60000002 0 0 0 14.599609 4 A 0.60000002 0.60000002 0 0 0 14 3.4003906 L 12 3.4003906 L 10 3.4003906 z M 12 8.5996094 C 15.892128 8.5996094 19.072766 11.587933 19.376953 15.400391 L 4.6230469 15.400391 C 4.9272342 11.587933 8.1078711 8.5996094 12 8.5996094 z M 4 16.599609 L 20 16.599609 C 20.780305 16.599609 21.400391 17.219695 21.400391 18 L 21.400391 19 C 21.400391 19.228021 21.228021 19.400391 21 19.400391 L 3 19.400391 C 2.7719793 19.400391 2.5996094 19.228021 2.5996094 19 L 2.5996094 18 C 2.5996094 17.219695 3.2196946 16.599609 4 16.599609 z " />
</svg>
