<?xml version="1.0" encoding="UTF-8" standalone="no"?>
<svg
   width="24"
   height="24"
   viewBox="0 0 24 24"
   fill="none"
   stroke="currentColor"
   stroke-width="1.2"
   stroke-linecap="round"
   stroke-linejoin="round"
   version="1.1"
   id="svg2"
   sodipodi:docname=".tmp_corner-right-down.svg"
   xmlns:inkscape="http://www.inkscape.org/namespaces/inkscape"
   xmlns:sodipodi="http://sodipodi.sourceforge.net/DTD/sodipodi-0.dtd"
   xmlns="http://www.w3.org/2000/svg"
   xmlns:svg="http://www.w3.org/2000/svg">
  <defs
     id="defs2" />
  <sodipodi:namedview
     id="namedview2"
     pagecolor="#ffffff"
     bordercolor="#000000"
     borderopacity="0.25"
     inkscape:showpageshadow="2"
     inkscape:pageopacity="0.0"
     inkscape:pagecheckerboard="0"
     inkscape:deskcolor="#d1d1d1" />
  <path
     id="path1"
     style="baseline-shift:baseline;display:inline;overflow:visible;vector-effect:none;fill:#000000;stroke:none;stroke-linecap:butt;stroke-linejoin:miter;enable-background:accumulate;stop-color:#000000;stop-opacity:1;opacity:1"
     d="M 4 3.4003906 A 0.60000002 0.60000002 0 0 0 3.4003906 4 A 0.60000002 0.60000002 0 0 0 4 4.5996094 L 11 4.5996094 C 12.884875 4.5996094 14.400391 6.1151251 14.400391 8 L 14.400391 18.552734 L 10.423828 14.576172 A 0.60000002 0.60000002 0 0 0 9.5761719 14.576172 A 0.60000002 0.60000002 0 0 0 9.5761719 15.423828 L 14.570312 20.417969 L 14.576172 20.423828 A 0.60006002 0.60006002 0 0 0 14.59375 20.439453 A 0.60000002 0.60000002 0 0 0 14.628906 20.470703 A 0.60006002 0.60006002 0 0 0 14.634766 20.474609 A 0.60000002 0.60000002 0 0 0 14.695312 20.515625 A 0.60006002 0.60006002 0 0 0 14.714844 20.527344 A 0.60000002 0.60000002 0 0 0 14.845703 20.578125 A 0.60000002 0.60000002 0 0 0 14.919922 20.59375 A 0.60006002 0.60006002 0 0 0 15.154297 20.578125 A 0.60000002 0.60000002 0 0 0 15.285156 20.527344 A 0.60000002 0.60000002 0 0 0 15.304688 20.515625 A 0.60006002 0.60006002 0 0 0 15.40625 20.439453 A 0.60000002 0.60000002 0 0 0 15.429688 20.417969 L 20.423828 15.423828 A 0.60000002 0.60000002 0 0 0 20.423828 14.576172 A 0.60000002 0.60000002 0 0 0 20 14.400391 A 0.60000002 0.60000002 0 0 0 19.576172 14.576172 L 15.599609 18.552734 L 15.599609 8 C 15.599609 5.4665969 13.533403 3.4003906 11 3.4003906 L 4 3.4003906 z " />
</svg>
