<?xml version="1.0" encoding="UTF-8" standalone="no"?>
<svg
   width="24"
   height="24"
   viewBox="0 0 24 24"
   fill="none"
   stroke="currentColor"
   stroke-width="1.2"
   stroke-linecap="round"
   stroke-linejoin="round"
   version="1.1"
   id="svg7"
   sodipodi:docname=".tmp_dam.svg"
   xmlns:inkscape="http://www.inkscape.org/namespaces/inkscape"
   xmlns:sodipodi="http://sodipodi.sourceforge.net/DTD/sodipodi-0.dtd"
   xmlns="http://www.w3.org/2000/svg"
   xmlns:svg="http://www.w3.org/2000/svg">
  <defs
     id="defs7" />
  <sodipodi:namedview
     id="namedview7"
     pagecolor="#ffffff"
     bordercolor="#000000"
     borderopacity="0.25"
     inkscape:showpageshadow="2"
     inkscape:pageopacity="0.0"
     inkscape:pagecheckerboard="0"
     inkscape:deskcolor="#d1d1d1" />
  <path
     id="path1"
     style="baseline-shift:baseline;display:inline;overflow:visible;vector-effect:none;fill:#000000;stroke:none;stroke-linecap:butt;stroke-linejoin:miter;enable-background:accumulate;stop-color:#000000;stop-opacity:1;opacity:1"
     d="M 7 2.4003906 C 6.1234512 2.4003906 5.4003906 3.1234512 5.4003906 4 L 5.4003906 5.4003906 L 2 5.4003906 A 0.60000002 0.60000002 0 0 0 1.4003906 6 A 0.60000002 0.60000002 0 0 0 2 6.5996094 L 5.4003906 6.5996094 L 5.4003906 9.4003906 L 2 9.4003906 A 0.60000002 0.60000002 0 0 0 1.4003906 10 A 0.60000002 0.60000002 0 0 0 2 10.599609 L 5.4003906 10.599609 L 5.4003906 13.400391 L 2 13.400391 A 0.60000002 0.60000002 0 0 0 1.4003906 14 A 0.60000002 0.60000002 0 0 0 2 14.599609 L 5.4003906 14.599609 L 5.4003906 17.400391 L 2 17.400391 A 0.60000002 0.60000002 0 0 0 1.4003906 18 A 0.60000002 0.60000002 0 0 0 2 18.599609 L 5.4003906 18.599609 L 5.4003906 20 C 5.4003906 20.876549 6.1234512 21.599609 7 21.599609 L 11 21.599609 C 11.876549 21.599609 12.599609 20.876549 12.599609 20 A 0.60006002 0.60006002 0 0 0 12.595703 19.925781 L 12.509766 19.230469 C 12.523177 19.235811 12.537243 19.240819 12.550781 19.246094 C 13.105165 19.462088 13.773077 19.599609 14.5 19.599609 C 15.91 19.599609 16.75 18.96875 17.375 18.46875 C 18 17.96875 18.41 17.599609 19.5 17.599609 C 20.646154 17.599609 21.015234 17.960939 21.615234 18.460938 A 0.60000002 0.60000002 0 0 0 22.460938 18.384766 A 0.60000002 0.60000002 0 0 0 22.384766 17.539062 C 21.784766 17.039062 20.953846 16.400391 19.5 16.400391 C 18.09 16.400391 17.25 17.03125 16.625 17.53125 C 16 18.03125 15.59 18.400391 14.5 18.400391 C 13.926923 18.400391 13.394444 18.287912 12.986328 18.128906 C 12.67716 18.008452 12.443262 17.847904 12.322266 17.740234 L 11.669922 12.513672 C 11.801994 12.621782 11.942234 12.734933 12.099609 12.849609 C 12.645324 13.247262 13.404694 13.599609 14.5 13.599609 C 15.91 13.599609 16.75 12.96875 17.375 12.46875 C 18 11.96875 18.41 11.599609 19.5 11.599609 C 20.646154 11.599609 21.015234 11.960937 21.615234 12.460938 A 0.60000002 0.60000002 0 0 0 22.460938 12.384766 A 0.60000002 0.60000002 0 0 0 22.384766 11.539062 C 21.784766 11.039062 20.953846 10.400391 19.5 10.400391 C 18.09 10.400391 17.25 11.03125 16.625 11.53125 C 16 12.03125 15.59 12.400391 14.5 12.400391 C 13.635306 12.400391 13.228426 12.188207 12.806641 11.880859 C 12.427354 11.604481 12.049536 11.199077 11.464844 10.875 L 10.599609 3.9511719 C 10.573234 3.0968726 9.8601357 2.4003906 9 2.4003906 L 7 2.4003906 z M 7 3.5996094 L 9 3.5996094 C 9.2280207 3.5996094 9.4003906 3.7719793 9.4003906 4 A 0.60006002 0.60006002 0 0 0 9.4042969 4.0742188 L 11.150391 18.035156 A 0.60000002 0.60000002 0 0 0 11.160156 18.109375 L 11.396484 20.003906 C 11.393172 20.228609 11.225796 20.400391 11 20.400391 L 7 20.400391 C 6.7719793 20.400391 6.5996094 20.228021 6.5996094 20 L 6.5996094 18 L 6.5996094 14 L 6.5996094 10 L 6.5996094 6 L 6.5996094 4 C 6.5996094 3.7719793 6.7719793 3.5996094 7 3.5996094 z " />
</svg>
