<?xml version="1.0" encoding="UTF-8" standalone="no"?>
<svg
   width="24"
   height="24"
   viewBox="0 0 24 24"
   fill="none"
   stroke="currentColor"
   stroke-width="1.2"
   stroke-linecap="round"
   stroke-linejoin="round"
   version="1.1"
   id="svg5"
   sodipodi:docname=".tmp_dices.svg"
   xmlns:inkscape="http://www.inkscape.org/namespaces/inkscape"
   xmlns:sodipodi="http://sodipodi.sourceforge.net/DTD/sodipodi-0.dtd"
   xmlns="http://www.w3.org/2000/svg"
   xmlns:svg="http://www.w3.org/2000/svg">
  <defs
     id="defs5" />
  <sodipodi:namedview
     id="namedview5"
     pagecolor="#ffffff"
     bordercolor="#000000"
     borderopacity="0.25"
     inkscape:showpageshadow="2"
     inkscape:pageopacity="0.0"
     inkscape:pagecheckerboard="0"
     inkscape:deskcolor="#d1d1d1" />
  <path
     id="rect1"
     style="baseline-shift:baseline;display:inline;overflow:visible;vector-effect:none;fill:#000000;stroke:none;stroke-linecap:butt;stroke-linejoin:miter;enable-background:accumulate;stop-color:#000000;stop-opacity:1;opacity:1"
     d="M 14.919922 1.40625 C 14.238247 1.40625 13.556014 1.649283 13.017578 2.1347656 A 0.60006002 0.60006002 0 0 0 12.996094 2.15625 L 9.5761719 5.5761719 A 0.60000002 0.60000002 0 0 0 9.5761719 6.4238281 A 0.60000002 0.60000002 0 0 0 10.423828 6.4238281 L 13.822266 3.0253906 C 14.450083 2.4593172 15.389761 2.4593172 16.017578 3.0253906 L 20.974609 7.9023438 C 21.540683 8.5301609 21.540683 9.4698394 20.974609 10.097656 L 17.496094 13.576172 A 0.60000002 0.60000002 0 0 0 17.496094 14.423828 A 0.60000002 0.60000002 0 0 0 18.34375 14.423828 L 21.84375 10.923828 A 0.60006002 0.60006002 0 0 0 21.865234 10.902344 C 22.8362 9.8254715 22.8362 8.1745282 21.865234 7.0976562 A 0.60006002 0.60006002 0 0 0 21.841797 7.0722656 L 16.841797 2.1523438 A 0.60006002 0.60006002 0 0 0 16.822266 2.1347656 C 16.283836 1.6492792 15.601597 1.40625 14.919922 1.40625 z M 15 5.4003906 A 0.60000002 0.60000002 0 0 0 14.400391 6 A 0.60000002 0.60000002 0 0 0 15 6.5996094 L 15.009766 6.5996094 A 0.60000002 0.60000002 0 0 0 15.609375 6 A 0.60000002 0.60000002 0 0 0 15.009766 5.4003906 L 15 5.4003906 z M 18 8.4003906 A 0.60000002 0.60000002 0 0 0 17.400391 9 A 0.60000002 0.60000002 0 0 0 18 9.5996094 L 18.009766 9.5996094 A 0.60000002 0.60000002 0 0 0 18.609375 9 A 0.60000002 0.60000002 0 0 0 18.009766 8.4003906 L 18 8.4003906 z M 4 9.4003906 C 2.5699783 9.4003906 1.4003906 10.569978 1.4003906 12 L 1.4003906 20 C 1.4003906 21.430022 2.5699783 22.599609 4 22.599609 L 12 22.599609 C 13.430022 22.599609 14.599609 21.430022 14.599609 20 L 14.599609 12 C 14.599609 10.569978 13.430022 9.4003906 12 9.4003906 L 4 9.4003906 z M 4 10.599609 L 12 10.599609 C 12.785978 10.599609 13.400391 11.214022 13.400391 12 L 13.400391 20 C 13.400391 20.785978 12.785978 21.400391 12 21.400391 L 4 21.400391 C 3.2140217 21.400391 2.5996094 20.785978 2.5996094 20 L 2.5996094 12 C 2.5996094 11.214022 3.2140217 10.599609 4 10.599609 z M 10 13.400391 A 0.60000002 0.60000002 0 0 0 9.4003906 14 A 0.60000002 0.60000002 0 0 0 10 14.599609 L 10.009766 14.599609 A 0.60000002 0.60000002 0 0 0 10.609375 14 A 0.60000002 0.60000002 0 0 0 10.009766 13.400391 L 10 13.400391 z M 6 17.400391 A 0.60000002 0.60000002 0 0 0 5.4003906 18 A 0.60000002 0.60000002 0 0 0 6 18.599609 L 6.0097656 18.599609 A 0.60000002 0.60000002 0 0 0 6.609375 18 A 0.60000002 0.60000002 0 0 0 6.0097656 17.400391 L 6 17.400391 z " />
</svg>
