<?xml version="1.0" encoding="UTF-8" standalone="no"?>
<svg
   width="24"
   height="24"
   viewBox="0 0 24 24"
   fill="none"
   stroke="currentColor"
   stroke-width="1.2"
   stroke-linecap="round"
   stroke-linejoin="round"
   version="1.1"
   id="svg3"
   sodipodi:docname=".tmp_euro.svg"
   xmlns:inkscape="http://www.inkscape.org/namespaces/inkscape"
   xmlns:sodipodi="http://sodipodi.sourceforge.net/DTD/sodipodi-0.dtd"
   xmlns="http://www.w3.org/2000/svg"
   xmlns:svg="http://www.w3.org/2000/svg">
  <defs
     id="defs3" />
  <sodipodi:namedview
     id="namedview3"
     pagecolor="#ffffff"
     bordercolor="#000000"
     borderopacity="0.25"
     inkscape:showpageshadow="2"
     inkscape:pageopacity="0.0"
     inkscape:pagecheckerboard="0"
     inkscape:deskcolor="#d1d1d1" />
  <path
     id="path1"
     style="baseline-shift:baseline;display:inline;overflow:visible;vector-effect:none;fill:#000000;stroke:none;stroke-linecap:butt;stroke-linejoin:miter;enable-background:accumulate;stop-color:#000000;stop-opacity:1;opacity:1"
     d="M 13.792969 3.4003906 C 10.012827 3.4479379 6.8335434 5.9681568 5.7753906 9.4003906 L 4 9.4003906 A 0.60000002 0.60000002 0 0 0 3.4003906 10 A 0.60000002 0.60000002 0 0 0 4 10.599609 L 5.4980469 10.599609 C 5.4275314 11.057013 5.3945261 11.526162 5.4003906 12.003906 C 5.4006041 12.478928 5.4381264 12.945459 5.5117188 13.400391 L 4 13.400391 A 0.60000002 0.60000002 0 0 0 3.4003906 14 A 0.60000002 0.60000002 0 0 0 4 14.599609 L 5.7949219 14.599609 C 6.8758204 18.063608 10.054389 20.599609 13.800781 20.599609 C 15.960781 20.599609 17.897728 19.734704 19.390625 18.455078 A 0.60000002 0.60000002 0 0 0 19.455078 17.609375 A 0.60000002 0.60000002 0 0 0 18.609375 17.544922 C 17.302272 18.665296 15.640781 19.400391 13.800781 19.400391 C 10.723937 19.400391 8.0860494 17.402141 7.0585938 14.599609 L 13 14.599609 A 0.60000002 0.60000002 0 0 0 13.599609 14 A 0.60000002 0.60000002 0 0 0 13 13.400391 L 6.7285156 13.400391 C 6.6435558 12.946838 6.5996094 12.478666 6.5996094 12 A 0.60006002 0.60006002 0 0 0 6.5996094 11.992188 C 6.5935491 11.516405 6.6321757 11.050852 6.7128906 10.599609 L 16 10.599609 A 0.60000002 0.60000002 0 0 0 16.599609 10 A 0.60000002 0.60000002 0 0 0 16 9.4003906 L 7.0351562 9.4003906 C 8.0410748 6.6299157 10.676561 4.6405929 13.802734 4.5996094 C 15.575334 4.5942894 17.283521 5.2515892 18.595703 6.4433594 A 0.60000002 0.60000002 0 0 0 19.443359 6.4042969 A 0.60000002 0.60000002 0 0 0 19.404297 5.5566406 C 17.870611 4.1636955 15.87065 3.3941778 13.798828 3.4003906 A 0.60006002 0.60006002 0 0 0 13.792969 3.4003906 z " />
</svg>
