<?xml version="1.0" encoding="UTF-8" standalone="no"?>
<svg
   width="24"
   height="24"
   viewBox="0 0 24 24"
   fill="none"
   stroke="currentColor"
   stroke-width="1.2"
   stroke-linecap="round"
   stroke-linejoin="round"
   version="1.1"
   id="svg1"
   sodipodi:docname=".tmp_eye.svg"
   xmlns:inkscape="http://www.inkscape.org/namespaces/inkscape"
   xmlns:sodipodi="http://sodipodi.sourceforge.net/DTD/sodipodi-0.dtd"
   xmlns="http://www.w3.org/2000/svg"
   xmlns:svg="http://www.w3.org/2000/svg">
  <defs
     id="defs1" />
  <sodipodi:namedview
     id="namedview1"
     pagecolor="#ffffff"
     bordercolor="#000000"
     borderopacity="0.25"
     inkscape:showpageshadow="2"
     inkscape:pageopacity="0.0"
     inkscape:pagecheckerboard="0"
     inkscape:deskcolor="#d1d1d1" />
  <path
     id="path1"
     style="baseline-shift:baseline;display:inline;overflow:visible;vector-effect:none;fill:#000000;stroke:none;stroke-linecap:butt;stroke-linejoin:miter;enable-background:accumulate;stop-color:#000000;stop-opacity:1;opacity:1"
     d="M 12 4.4003906 C 7.7266585 4.4003906 3.428884 6.7657662 1.5078125 11.423828 A 0.60006002 0.60006002 0 0 0 1.5 11.443359 C 1.3667038 11.802453 1.3667038 12.197547 1.5 12.556641 A 0.60000002 0.60000002 0 0 0 1.5078125 12.564453 A 0.60000002 0.60000002 0 0 0 1.5078125 12.576172 C 3.4288865 17.234245 7.7266585 19.599609 12 19.599609 C 16.273342 19.599609 20.571116 17.234234 22.492188 12.576172 A 0.60006002 0.60006002 0 0 0 22.5 12.556641 C 22.633296 12.197547 22.633296 11.802453 22.5 11.443359 A 0.60006002 0.60006002 0 0 0 22.492188 11.423828 C 20.571103 6.7657652 16.273342 4.4003906 12 4.4003906 z M 12 5.6015625 C 15.831197 5.6015625 19.635591 7.6671172 21.375 11.867188 C 21.40562 11.953667 21.40562 12.046334 21.375 12.132812 C 19.635591 16.332881 15.831197 18.398438 12 18.398438 C 8.1688026 18.398438 4.3644091 16.332881 2.625 12.132812 C 2.594377 12.046333 2.594377 11.953664 2.625 11.867188 C 4.3644091 7.6671172 8.1688026 5.6015625 12 5.6015625 z M 12 8.4003906 C 10.018882 8.4003906 8.4003906 10.018882 8.4003906 12 C 8.4003906 13.981118 10.018882 15.599609 12 15.599609 C 13.981118 15.599609 15.599609 13.981118 15.599609 12 C 15.599609 10.018882 13.981118 8.4003906 12 8.4003906 z M 12 9.5996094 C 13.33259 9.5996094 14.400391 10.66741 14.400391 12 C 14.400391 13.33259 13.33259 14.400391 12 14.400391 C 10.66741 14.400391 9.5996094 13.33259 9.5996094 12 C 9.5996094 10.66741 10.66741 9.5996094 12 9.5996094 z " />
</svg>
