<?xml version="1.0" encoding="UTF-8" standalone="no"?>
<svg
   width="24"
   height="24"
   viewBox="0 0 24 24"
   fill="none"
   stroke="currentColor"
   stroke-width="1.2"
   stroke-linecap="round"
   stroke-linejoin="round"
   version="1.1"
   id="svg5"
   sodipodi:docname=".tmp_folder-sync.svg"
   xmlns:inkscape="http://www.inkscape.org/namespaces/inkscape"
   xmlns:sodipodi="http://sodipodi.sourceforge.net/DTD/sodipodi-0.dtd"
   xmlns="http://www.w3.org/2000/svg"
   xmlns:svg="http://www.w3.org/2000/svg">
  <defs
     id="defs5" />
  <sodipodi:namedview
     id="namedview5"
     pagecolor="#ffffff"
     bordercolor="#000000"
     borderopacity="0.25"
     inkscape:showpageshadow="2"
     inkscape:pageopacity="0.0"
     inkscape:pagecheckerboard="0"
     inkscape:deskcolor="#d1d1d1" />
  <path
     id="path1"
     style="baseline-shift:baseline;display:inline;overflow:visible;vector-effect:none;fill:#000000;stroke:none;stroke-linecap:butt;stroke-linejoin:miter;enable-background:accumulate;stop-color:#000000;stop-opacity:1;opacity:1"
     d="M 4 2.4003906 C 2.5711664 2.4003906 1.4003906 3.5711664 1.4003906 5 L 1.4003906 18 C 1.4003906 19.428834 2.5711664 20.599609 4 20.599609 L 9 20.599609 A 0.60000002 0.60000002 0 0 0 9.5996094 20 A 0.60000002 0.60000002 0 0 0 9 19.400391 L 4 19.400391 C 3.2196946 19.400391 2.5996094 18.780305 2.5996094 18 L 2.5996094 5 C 2.5996094 4.2196946 3.2196946 3.5996094 4 3.5996094 L 7.9003906 3.5996094 A 0.60006002 0.60006002 0 0 0 7.90625 3.5996094 C 8.382776 3.5949394 8.8277648 3.832457 9.0898438 4.2304688 A 0.60006002 0.60006002 0 0 0 9.0917969 4.2363281 L 9.8984375 5.4296875 C 10.37894 6.1593211 11.196672 6.5994655 12.070312 6.5996094 L 20 6.5996094 C 20.780305 6.5996094 21.400391 7.2196946 21.400391 8 L 21.400391 8.5 A 0.60000002 0.60000002 0 0 0 22 9.0996094 A 0.60000002 0.60000002 0 0 0 22.599609 8.5 L 22.599609 8 C 22.599609 6.5711664 21.428834 5.4003906 20 5.4003906 L 12.070312 5.4003906 C 11.598779 5.400313 11.159733 5.1633383 10.900391 4.7695312 A 0.60006002 0.60006002 0 0 0 10.896484 4.7636719 L 10.091797 3.5703125 C 9.606271 2.8329584 8.7773402 2.3917354 7.8945312 2.4003906 L 4 2.4003906 z M 12 9.4003906 A 0.60000002 0.60000002 0 0 0 11.400391 10 L 11.400391 14 A 0.60006002 0.60006002 0 0 0 11.400391 14.005859 A 0.60000002 0.60000002 0 0 0 11.404297 14.054688 A 0.60006002 0.60006002 0 0 0 11.408203 14.083984 A 0.60000002 0.60000002 0 0 0 11.408203 14.091797 A 0.60006002 0.60006002 0 0 0 11.421875 14.154297 A 0.60000002 0.60000002 0 0 0 11.439453 14.212891 A 0.60006002 0.60006002 0 0 0 11.449219 14.234375 A 0.60000002 0.60000002 0 0 0 11.46875 14.277344 A 0.60006002 0.60006002 0 0 0 11.482422 14.302734 A 0.60000002 0.60000002 0 0 0 11.511719 14.345703 A 0.60006002 0.60006002 0 0 0 11.529297 14.371094 A 0.60000002 0.60000002 0 0 0 11.550781 14.394531 A 0.60006002 0.60006002 0 0 0 11.580078 14.427734 A 0.60000002 0.60000002 0 0 0 11.585938 14.433594 A 0.60000002 0.60000002 0 0 0 11.632812 14.472656 A 0.60006002 0.60006002 0 0 0 11.634766 14.474609 A 0.60000002 0.60000002 0 0 0 11.677734 14.503906 A 0.60006002 0.60006002 0 0 0 11.701172 14.519531 A 0.60000002 0.60000002 0 0 0 11.712891 14.525391 A 0.60006002 0.60006002 0 0 0 11.783203 14.558594 A 0.60006002 0.60006002 0 0 0 11.845703 14.578125 A 0.60000002 0.60000002 0 0 0 11.908203 14.589844 A 0.60006002 0.60006002 0 0 0 11.921875 14.59375 A 0.60000002 0.60000002 0 0 0 11.972656 14.597656 A 0.60006002 0.60006002 0 0 0 12 14.599609 A 0.60000002 0.60000002 0 0 0 12.013672 14.599609 L 16 14.599609 A 0.60000002 0.60000002 0 0 0 16.599609 14 A 0.60000002 0.60000002 0 0 0 16 13.400391 L 13.404297 13.400391 L 13.951172 12.828125 L 13.953125 12.826172 C 16.144051 10.723076 19.711436 11.393193 20.990234 14.148438 A 0.60000002 0.60000002 0 0 0 21.787109 14.439453 A 0.60000002 0.60000002 0 0 0 22.080078 13.642578 C 21.27465 11.907374 19.723126 10.823452 18.029297 10.505859 C 16.335468 10.188266 14.498439 10.637271 13.119141 11.962891 A 0.60006002 0.60006002 0 0 0 13.101562 11.980469 L 12.599609 12.505859 L 12.599609 10 A 0.60000002 0.60000002 0 0 0 12 9.4003906 z M 18 17.400391 A 0.60000002 0.60000002 0 0 0 17.400391 18 A 0.60000002 0.60000002 0 0 0 18 18.599609 L 20.595703 18.599609 L 20.046875 19.173828 C 17.855949 21.276924 14.288564 20.606806 13.009766 17.851562 A 0.60000002 0.60000002 0 0 0 12.212891 17.560547 A 0.60000002 0.60000002 0 0 0 11.919922 18.357422 C 13.530693 21.827918 18.122263 22.688349 20.880859 20.037109 A 0.60006002 0.60006002 0 0 0 20.898438 20.019531 L 21.400391 19.494141 L 21.400391 22 A 0.60000002 0.60000002 0 0 0 22 22.599609 A 0.60000002 0.60000002 0 0 0 22.599609 22 L 22.599609 18 A 0.60006002 0.60006002 0 0 0 22.599609 17.986328 A 0.60000002 0.60000002 0 0 0 22.59375 17.921875 A 0.60006002 0.60006002 0 0 0 22.591797 17.908203 A 0.60000002 0.60000002 0 0 0 22.578125 17.845703 A 0.60000002 0.60000002 0 0 0 22.560547 17.787109 A 0.60000002 0.60000002 0 0 0 22.554688 17.771484 A 0.60006002 0.60006002 0 0 0 22.548828 17.757812 A 0.60000002 0.60000002 0 0 0 22.519531 17.701172 A 0.60006002 0.60006002 0 0 0 22.511719 17.6875 A 0.60000002 0.60000002 0 0 0 22.474609 17.634766 A 0.60006002 0.60006002 0 0 0 22.466797 17.625 A 0.60000002 0.60000002 0 0 0 22.423828 17.576172 A 0.60006002 0.60006002 0 0 0 22.414062 17.566406 A 0.60000002 0.60000002 0 0 0 22.365234 17.525391 A 0.60000002 0.60000002 0 0 0 22.322266 17.496094 A 0.60000002 0.60000002 0 0 0 22.298828 17.480469 A 0.60006002 0.60006002 0 0 0 22.287109 17.474609 A 0.60006002 0.60006002 0 0 0 22.21875 17.441406 A 0.60006002 0.60006002 0 0 0 22.216797 17.441406 A 0.60000002 0.60000002 0 0 0 22.154297 17.421875 A 0.60000002 0.60000002 0 0 0 22.091797 17.410156 A 0.60000002 0.60000002 0 0 0 22.078125 17.40625 A 0.60006002 0.60006002 0 0 0 22.064453 17.404297 A 0.60000002 0.60000002 0 0 0 22 17.400391 L 21.986328 17.400391 L 18 17.400391 z " />
</svg>
