<?xml version="1.0" encoding="UTF-8" standalone="no"?>
<svg
   width="24"
   height="24"
   viewBox="0 0 24 24"
   fill="none"
   stroke="currentColor"
   stroke-width="1.2"
   stroke-linecap="round"
   stroke-linejoin="round"
   version="1.1"
   id="svg10"
   sodipodi:docname=".tmp_heater.svg"
   xmlns:inkscape="http://www.inkscape.org/namespaces/inkscape"
   xmlns:sodipodi="http://sodipodi.sourceforge.net/DTD/sodipodi-0.dtd"
   xmlns="http://www.w3.org/2000/svg"
   xmlns:svg="http://www.w3.org/2000/svg">
  <defs
     id="defs10" />
  <sodipodi:namedview
     id="namedview10"
     pagecolor="#ffffff"
     bordercolor="#000000"
     borderopacity="0.25"
     inkscape:showpageshadow="2"
     inkscape:pageopacity="0.0"
     inkscape:pagecheckerboard="0"
     inkscape:deskcolor="#d1d1d1" />
  <path
     id="path1"
     style="baseline-shift:baseline;display:inline;overflow:visible;vector-effect:none;fill:#000000;stroke:none;stroke-linecap:butt;stroke-linejoin:miter;enable-background:accumulate;stop-color:#000000;stop-opacity:1;opacity:1"
     d="M 10.958984 1.4003906 A 0.60000002 0.60000002 0 0 0 10.5 1.6679688 C 9.9487969 2.4947734 9.7571349 3.2263635 9.8417969 3.8613281 C 9.9264588 4.4962928 10.25 4.9570312 10.5 5.3320312 C 10.75 5.7070312 10.926459 5.9962928 10.966797 6.2988281 C 11.007137 6.6013635 10.948797 6.9947734 10.5 7.6679688 A 0.60000002 0.60000002 0 0 0 10.667969 8.5 A 0.60000002 0.60000002 0 0 0 11.5 8.3320312 C 12.051203 7.5052265 12.242865 6.7736365 12.158203 6.1386719 C 12.073541 5.5037072 11.75 5.0429689 11.5 4.6679688 C 11.25 4.2929688 11.073541 4.0037072 11.033203 3.7011719 C 10.992865 3.3986365 11.051203 3.0052265 11.5 2.3320312 A 0.60000002 0.60000002 0 0 0 11.332031 1.5 A 0.60000002 0.60000002 0 0 0 10.958984 1.4003906 z M 15.458984 1.4003906 A 0.60000002 0.60000002 0 0 0 15 1.6679688 C 14.448797 2.4947734 14.257135 3.2263635 14.341797 3.8613281 C 14.426459 4.4962928 14.75 4.9570312 15 5.3320312 C 15.25 5.7070312 15.426459 5.9962928 15.466797 6.2988281 C 15.507135 6.6013635 15.448797 6.9947734 15 7.6679688 A 0.60000002 0.60000002 0 0 0 15.167969 8.5 A 0.60000002 0.60000002 0 0 0 16 8.3320312 C 16.551203 7.5052265 16.742865 6.7736365 16.658203 6.1386719 C 16.573541 5.5037072 16.25 5.0429689 16 4.6679688 C 15.75 4.2929688 15.573541 4.0037072 15.533203 3.7011719 C 15.492865 3.3986365 15.551203 3.0052265 16 2.3320312 A 0.60000002 0.60000002 0 0 0 15.832031 1.5 A 0.60000002 0.60000002 0 0 0 15.458984 1.4003906 z M 4 5.4003906 C 2.5711664 5.4003906 1.4003906 6.5711664 1.4003906 8 L 1.4003906 18 C 1.4003906 19.428834 2.5711664 20.599609 4 20.599609 L 4.4003906 20.599609 L 4.4003906 22 A 0.60000002 0.60000002 0 0 0 5 22.599609 A 0.60000002 0.60000002 0 0 0 5.5996094 22 L 5.5996094 20.599609 L 18.400391 20.599609 L 18.400391 22 A 0.60000002 0.60000002 0 0 0 19 22.599609 A 0.60000002 0.60000002 0 0 0 19.599609 22 L 19.599609 20.599609 L 20 20.599609 C 21.428834 20.599609 22.599609 19.428834 22.599609 18 L 22.599609 8 C 22.599609 6.5711664 21.428834 5.4003906 20 5.4003906 A 0.60000002 0.60000002 0 0 0 19.400391 6 A 0.60000002 0.60000002 0 0 0 20 6.5996094 C 20.780305 6.5996094 21.400391 7.2196946 21.400391 8 L 21.400391 18 C 21.400391 18.780305 20.780305 19.400391 20 19.400391 L 19 19.400391 L 4 19.400391 C 3.2196946 19.400391 2.5996094 18.780305 2.5996094 18 L 2.5996094 8 C 2.5996094 7.2196946 3.2196946 6.5996094 4 6.5996094 L 7 6.5996094 A 0.60000002 0.60000002 0 0 0 7.5996094 6 A 0.60000002 0.60000002 0 0 0 7 5.4003906 L 4 5.4003906 z M 6 9.4003906 A 0.60000002 0.60000002 0 0 0 5.4003906 10 A 0.60000002 0.60000002 0 0 0 6 10.599609 L 6.0097656 10.599609 A 0.60000002 0.60000002 0 0 0 6.609375 10 A 0.60000002 0.60000002 0 0 0 6.0097656 9.4003906 L 6 9.4003906 z M 10 11.400391 A 0.60000002 0.60000002 0 0 0 9.4003906 12 L 9.4003906 16 A 0.60000002 0.60000002 0 0 0 10 16.599609 A 0.60000002 0.60000002 0 0 0 10.599609 16 L 10.599609 12 A 0.60000002 0.60000002 0 0 0 10 11.400391 z M 14 11.400391 A 0.60000002 0.60000002 0 0 0 13.400391 12 L 13.400391 16 A 0.60000002 0.60000002 0 0 0 14 16.599609 A 0.60000002 0.60000002 0 0 0 14.599609 16 L 14.599609 12 A 0.60000002 0.60000002 0 0 0 14 11.400391 z M 18 11.400391 A 0.60000002 0.60000002 0 0 0 17.400391 12 L 17.400391 16 A 0.60000002 0.60000002 0 0 0 18 16.599609 A 0.60000002 0.60000002 0 0 0 18.599609 16 L 18.599609 12 A 0.60000002 0.60000002 0 0 0 18 11.400391 z M 6 13.400391 A 0.60000002 0.60000002 0 0 0 5.4003906 14 A 0.60000002 0.60000002 0 0 0 6 14.599609 L 6.0097656 14.599609 A 0.60000002 0.60000002 0 0 0 6.609375 14 A 0.60000002 0.60000002 0 0 0 6.0097656 13.400391 L 6 13.400391 z " />
</svg>
