<?xml version="1.0" encoding="UTF-8" standalone="no"?>
<svg
   width="24"
   height="24"
   viewBox="0 0 24 24"
   fill="none"
   stroke="currentColor"
   stroke-width="1.2"
   stroke-linecap="round"
   stroke-linejoin="round"
   version="1.1"
   id="svg9"
   sodipodi:docname=".tmp_hop-off.svg"
   xmlns:inkscape="http://www.inkscape.org/namespaces/inkscape"
   xmlns:sodipodi="http://sodipodi.sourceforge.net/DTD/sodipodi-0.dtd"
   xmlns="http://www.w3.org/2000/svg"
   xmlns:svg="http://www.w3.org/2000/svg">
  <defs
     id="defs9" />
  <sodipodi:namedview
     id="namedview9"
     pagecolor="#ffffff"
     bordercolor="#000000"
     borderopacity="0.25"
     inkscape:showpageshadow="2"
     inkscape:pageopacity="0.0"
     inkscape:pagecheckerboard="0"
     inkscape:deskcolor="#d1d1d1" />
  <path
     id="path1"
     style="baseline-shift:baseline;display:inline;overflow:visible;vector-effect:none;fill:#000000;stroke:none;stroke-linecap:butt;stroke-linejoin:miter;enable-background:accumulate;stop-color:#000000;stop-opacity:1;opacity:1"
     d="M 11.917969 1.3945312 C 11.569865 1.39683 11.220873 1.4163189 10.873047 1.453125 C 9.9455108 1.5512747 9.0230543 1.772355 8.1308594 2.1210938 A 0.60000002 0.60000002 0 0 0 7.7910156 2.8984375 A 0.60000002 0.60000002 0 0 0 8.5683594 3.2382812 C 11.734915 2.0005461 15.319841 2.5692816 17.949219 4.7246094 A 0.60006002 0.60006002 0 0 0 17.951172 4.7246094 C 18.028522 4.7875654 18.030017 4.8390086 18.029297 4.8476562 L 18.029297 4.8496094 L 18.03125 4.8496094 L 18.03125 4.8515625 C 18.028571 4.8532409 18.020217 4.8585732 17.984375 4.8730469 C 16.641802 5.4096078 13.825926 5.8132821 12.117188 5.8808594 A 0.60000002 0.60000002 0 0 0 11.541016 6.5039062 A 0.60000002 0.60000002 0 0 0 12.164062 7.0800781 C 13.778807 7.0162181 16.132133 6.730693 17.802734 6.2089844 C 18.894702 7.4443463 19.830156 8.8100597 20.591797 10.273438 C 20.653547 10.416759 20.581567 10.541278 20.423828 10.550781 A 0.60006002 0.60006002 0 0 0 20.408203 10.552734 C 19.303698 10.647134 18.026088 10.571344 16.673828 10.310547 A 0.60000002 0.60000002 0 0 0 15.970703 10.787109 A 0.60000002 0.60000002 0 0 0 16.447266 11.488281 C 17.773334 11.744023 19.041898 11.836873 20.195312 11.769531 C 20.536295 12.545993 21.152419 14.060378 21.34375 15.302734 C 21.35365 15.393104 21.317699 15.455284 21.287109 15.476562 A 0.60000002 0.60000002 0 0 0 21.136719 16.3125 A 0.60000002 0.60000002 0 0 0 21.972656 16.462891 C 22.401347 16.164671 22.602628 15.646662 22.535156 15.140625 A 0.60006002 0.60006002 0 0 0 22.533203 15.128906 C 22.318627 13.72105 21.707399 12.213771 21.341797 11.386719 C 21.767975 10.993674 21.947212 10.346298 21.685547 9.7714844 A 0.60006002 0.60006002 0 0 0 21.671875 9.7441406 C 20.911336 8.277823 19.984895 6.9047118 18.910156 5.6523438 C 19.089441 5.4524852 19.203162 5.2017807 19.224609 4.9472656 C 19.261305 4.5118052 19.062245 4.0839137 18.710938 3.796875 C 16.766228 2.2027763 14.354692 1.3784399 11.917969 1.3945312 z M 2 1.4003906 A 0.60000002 0.60000002 0 0 0 1.5761719 1.5761719 A 0.60000002 0.60000002 0 0 0 1.5761719 2.4238281 L 4.09375 4.9414062 C 0.64261694 8.8036152 0.47961254 14.654036 3.7949219 18.708984 C 4.0819654 19.061638 4.5109133 19.261381 4.9472656 19.224609 C 5.2029955 19.20306 5.4539684 19.088989 5.6542969 18.908203 C 6.7558252 19.847115 8.3194627 21.019792 9.7695312 21.685547 A 0.60006002 0.60006002 0 0 0 9.7714844 21.685547 C 10.346316 21.94722 10.993678 21.768005 11.386719 21.341797 C 12.213758 21.707397 13.721015 22.318586 15.128906 22.533203 A 0.60006002 0.60006002 0 0 0 15.142578 22.535156 C 15.714651 22.609775 16.270741 22.309265 16.544922 21.828125 C 18.147006 22.328331 19.881225 22.495014 20.958984 22.558594 C 21.18447 22.574597 21.407539 22.539968 21.613281 22.458984 A 0.60000002 0.60000002 0 0 0 22.423828 22.423828 A 0.60000002 0.60000002 0 0 0 22.423828 21.576172 L 22.128906 21.28125 A 0.60000002 0.60000002 0 0 0 22.125 21.277344 A 0.60000002 0.60000002 0 0 0 22.119141 21.271484 L 17.136719 16.289062 A 0.60000002 0.60000002 0 0 0 17.111328 16.263672 L 5.3535156 4.5058594 L 2.4238281 1.5761719 A 0.60000002 0.60000002 0 0 0 2 1.4003906 z M 4.9433594 5.7910156 L 10.740234 11.587891 C 9.2945877 11.688877 7.8495747 11.320578 6.6914062 10.931641 A 0.60006002 0.60006002 0 0 0 5.9003906 11.5 C 5.9003906 13.047317 5.4895947 16.458362 4.8730469 17.986328 C 4.8594434 18.019943 4.8554171 18.030953 4.8535156 18.033203 L 4.8515625 18.033203 L 4.8515625 18.03125 L 4.8496094 18.03125 L 4.8496094 18.029297 L 4.8476562 18.029297 C 4.8390062 18.030026 4.7875662 18.028523 4.7246094 17.951172 C 1.7930065 14.365537 1.9201059 9.2214615 4.9433594 5.7910156 z M 7.0390625 12.255859 C 7.6886804 12.449186 8.398174 12.630769 9.1542969 12.728516 C 10.270011 15.526081 10.734538 18.281103 10.552734 20.408203 A 0.60006002 0.60006002 0 0 0 10.550781 20.423828 C 10.541181 20.583688 10.415289 20.660101 10.269531 20.59375 C 8.9263055 19.977049 7.264683 18.715939 6.2109375 17.800781 C 6.733665 16.132687 6.977538 13.860457 7.0390625 12.255859 z M 11.783203 12.630859 L 15.492188 16.339844 C 14.313863 16.259848 12.655463 16.07077 11.332031 15.658203 C 11.118364 14.724424 10.83089 13.765873 10.470703 12.800781 C 10.797364 12.79331 11.130507 12.765907 11.46875 12.712891 C 11.576737 12.697058 11.682567 12.66979 11.783203 12.630859 z M 11.587891 16.978516 C 12.80782 17.291696 14.109055 17.441789 15.132812 17.517578 C 15.337753 18.464408 15.612538 20.007779 15.521484 21.177734 C 15.509494 21.315636 15.448474 21.362195 15.298828 21.34375 C 14.057179 21.151698 12.545153 20.536063 11.769531 20.195312 C 11.82791 19.196402 11.766388 18.113286 11.587891 16.978516 z M 16.615234 17.462891 L 20.472656 21.320312 C 19.414506 21.230881 17.976169 21.035088 16.742188 20.630859 C 16.741235 19.517519 16.542564 18.364891 16.367188 17.537109 C 16.452131 17.519109 16.535037 17.494576 16.615234 17.462891 z " />
</svg>
