<?xml version="1.0" encoding="UTF-8" standalone="no"?>
<svg
   width="24"
   height="24"
   viewBox="0 0 24 24"
   fill="none"
   stroke="currentColor"
   stroke-width="1.2"
   stroke-linecap="round"
   stroke-linejoin="round"
   version="1.1"
   id="svg3"
   sodipodi:docname=".tmp_image-up.svg"
   xmlns:inkscape="http://www.inkscape.org/namespaces/inkscape"
   xmlns:sodipodi="http://sodipodi.sourceforge.net/DTD/sodipodi-0.dtd"
   xmlns="http://www.w3.org/2000/svg"
   xmlns:svg="http://www.w3.org/2000/svg">
  <defs
     id="defs3" />
  <sodipodi:namedview
     id="namedview3"
     pagecolor="#ffffff"
     bordercolor="#000000"
     borderopacity="0.25"
     inkscape:showpageshadow="2"
     inkscape:pageopacity="0.0"
     inkscape:pagecheckerboard="0"
     inkscape:deskcolor="#d1d1d1" />
  <path
     id="path1"
     style="baseline-shift:baseline;display:inline;overflow:visible;vector-effect:none;fill:#000000;stroke:none;stroke-linecap:butt;stroke-linejoin:miter;enable-background:accumulate;stop-color:#000000;stop-opacity:1;opacity:1"
     d="M 5 2.4003906 C 3.5711664 2.4003906 2.4003906 3.5711664 2.4003906 5 L 2.4003906 19 C 2.4003906 20.428834 3.5711664 21.599609 5 21.599609 L 10.300781 21.599609 A 0.60000002 0.60000002 0 0 0 10.900391 21 A 0.60000002 0.60000002 0 0 0 10.300781 20.400391 L 7.4472656 20.400391 L 15.509766 12.337891 C 16.057502 11.790264 16.92731 11.786009 17.480469 12.328125 L 20.576172 15.423828 A 0.60006002 0.60006002 0 0 0 21.599609 15 L 21.599609 5 C 21.599609 3.5711664 20.428834 2.4003906 19 2.4003906 L 5 2.4003906 z M 5 3.5996094 L 19 3.5996094 C 19.780305 3.5996094 20.400391 4.2196946 20.400391 5 L 20.400391 13.552734 L 18.324219 11.476562 A 0.60006002 0.60006002 0 0 0 18.320312 11.470703 C 17.307067 10.477622 15.665425 10.487122 14.662109 11.490234 L 5.7519531 20.400391 L 5 20.400391 C 4.2196946 20.400391 3.5996094 19.780305 3.5996094 19 L 3.5996094 5 C 3.5996094 4.2196946 4.2196946 3.5996094 5 3.5996094 z M 9 6.4003906 C 7.5711664 6.4003906 6.4003906 7.5711664 6.4003906 9 C 6.4003906 10.428834 7.5711664 11.599609 9 11.599609 C 10.428834 11.599609 11.599609 10.428834 11.599609 9 C 11.599609 7.5711664 10.428834 6.4003906 9 6.4003906 z M 9 7.5996094 C 9.7803054 7.5996094 10.400391 8.2196946 10.400391 9 C 10.400391 9.7803054 9.7803054 10.400391 9 10.400391 C 8.2196946 10.400391 7.5996094 9.7803054 7.5996094 9 C 7.5996094 8.2196946 8.2196946 7.5996094 9 7.5996094 z M 17 15.900391 A 0.60000002 0.60000002 0 0 0 16.919922 15.90625 A 0.60000002 0.60000002 0 0 0 16.714844 15.972656 A 0.60006002 0.60006002 0 0 0 16.634766 16.025391 A 0.60000002 0.60000002 0 0 0 16.59375 16.060547 A 0.60006002 0.60006002 0 0 0 16.576172 16.076172 A 0.60000002 0.60000002 0 0 0 16.570312 16.082031 L 13.576172 19.076172 A 0.60000002 0.60000002 0 0 0 13.576172 19.923828 A 0.60000002 0.60000002 0 0 0 14.423828 19.923828 L 16.400391 17.947266 L 16.400391 22 A 0.60000002 0.60000002 0 0 0 17 22.599609 A 0.60000002 0.60000002 0 0 0 17.599609 22 L 17.599609 17.947266 L 19.576172 19.923828 A 0.60000002 0.60000002 0 0 0 20.423828 19.923828 A 0.60000002 0.60000002 0 0 0 20.423828 19.076172 L 17.429688 16.082031 A 0.60000002 0.60000002 0 0 0 17.40625 16.060547 A 0.60006002 0.60006002 0 0 0 17.304688 15.984375 A 0.60000002 0.60000002 0 0 0 17.154297 15.921875 A 0.60006002 0.60006002 0 0 0 17.080078 15.90625 A 0.60000002 0.60000002 0 0 0 17.078125 15.90625 A 0.60006002 0.60006002 0 0 0 17 15.900391 z " />
</svg>
