<?xml version="1.0" encoding="UTF-8" standalone="no"?>
<svg
   width="24"
   height="24"
   viewBox="0 0 24 24"
   fill="none"
   stroke="currentColor"
   stroke-width="1.2"
   stroke-linecap="round"
   stroke-linejoin="round"
   version="1.1"
   id="svg3"
   sodipodi:docname=".tmp_lamp-ceiling.svg"
   xmlns:inkscape="http://www.inkscape.org/namespaces/inkscape"
   xmlns:sodipodi="http://sodipodi.sourceforge.net/DTD/sodipodi-0.dtd"
   xmlns="http://www.w3.org/2000/svg"
   xmlns:svg="http://www.w3.org/2000/svg">
  <defs
     id="defs3" />
  <sodipodi:namedview
     id="namedview3"
     pagecolor="#ffffff"
     bordercolor="#000000"
     borderopacity="0.25"
     inkscape:showpageshadow="2"
     inkscape:pageopacity="0.0"
     inkscape:pagecheckerboard="0"
     inkscape:deskcolor="#d1d1d1" />
  <path
     id="path1"
     style="baseline-shift:baseline;display:inline;overflow:visible;vector-effect:none;fill:#000000;stroke:none;stroke-linecap:butt;stroke-linejoin:miter;enable-background:accumulate;stop-color:#000000;stop-opacity:1;opacity:1"
     d="M 12 1.4003906 A 0.60000002 0.60000002 0 0 0 11.400391 2 L 11.400391 6.4003906 L 7 6.4003906 C 6.3611313 6.3998224 5.781011 6.7819494 5.5292969 7.3691406 L 2.5292969 14.369141 C 2.0850511 15.405462 2.8724743 16.600613 4 16.599609 L 8.421875 16.599609 C 8.1952288 18.657551 9.8170863 20.595703 12 20.595703 C 14.182914 20.595703 15.804771 18.657551 15.578125 16.599609 L 20 16.599609 C 21.127526 16.600609 21.914949 15.405462 21.470703 14.369141 L 18.470703 7.3691406 C 18.218989 6.7819494 17.638869 6.3998224 17 6.4003906 L 12.599609 6.4003906 L 12.599609 2 A 0.60000002 0.60000002 0 0 0 12 1.4003906 z M 7 7.5996094 L 12 7.5996094 L 17 7.5996094 C 17.16177 7.5994655 17.305403 7.6931124 17.369141 7.8417969 L 20.369141 14.841797 C 20.490944 15.125936 20.309141 15.400666 20 15.400391 L 14.886719 15.400391 A 0.60000002 0.60000002 0 0 0 14.769531 15.400391 L 9.2304688 15.400391 A 0.60000002 0.60000002 0 0 0 9.1132812 15.400391 L 4 15.400391 C 3.6908543 15.400666 3.5090558 15.125936 3.6308594 14.841797 L 6.6308594 7.8417969 C 6.6945967 7.6931122 6.8382299 7.5994655 7 7.5996094 z M 9.6308594 16.599609 L 14.369141 16.599609 C 14.621845 18.039819 13.532063 19.396484 12 19.396484 C 10.467937 19.396484 9.3781546 18.039819 9.6308594 16.599609 z " />
</svg>
