<?xml version="1.0" encoding="UTF-8" standalone="no"?>
<svg
   width="24"
   height="24"
   viewBox="0 0 24 24"
   fill="none"
   stroke="currentColor"
   stroke-width="1.2"
   stroke-linecap="round"
   stroke-linejoin="round"
   version="1.1"
   id="svg4"
   sodipodi:docname=".tmp_list-video.svg"
   xmlns:inkscape="http://www.inkscape.org/namespaces/inkscape"
   xmlns:sodipodi="http://sodipodi.sourceforge.net/DTD/sodipodi-0.dtd"
   xmlns="http://www.w3.org/2000/svg"
   xmlns:svg="http://www.w3.org/2000/svg">
  <defs
     id="defs4" />
  <sodipodi:namedview
     id="namedview4"
     pagecolor="#ffffff"
     bordercolor="#000000"
     borderopacity="0.25"
     inkscape:showpageshadow="2"
     inkscape:pageopacity="0.0"
     inkscape:pagecheckerboard="0"
     inkscape:deskcolor="#d1d1d1" />
  <path
     id="path1"
     style="baseline-shift:baseline;display:inline;overflow:visible;vector-effect:none;fill:#000000;stroke:none;stroke-linecap:butt;stroke-linejoin:miter;enable-background:accumulate;stop-color:#000000;stop-opacity:1;opacity:1"
     d="M 3 4.4003906 A 0.60000002 0.60000002 0 0 0 2.4003906 5 A 0.60000002 0.60000002 0 0 0 3 5.5996094 L 21 5.5996094 A 0.60000002 0.60000002 0 0 0 21.599609 5 A 0.60000002 0.60000002 0 0 0 21 4.4003906 L 3 4.4003906 z M 16.007812 10.408203 C 15.730716 10.412318 15.459198 10.489953 15.220703 10.625 C 14.743714 10.895094 14.398554 11.395156 14.400391 12.003906 L 14.400391 17.996094 C 14.396991 19.213154 15.785951 19.998609 16.828125 19.369141 L 21.820312 16.375 L 21.822266 16.373047 C 22.836704 15.765841 22.836704 14.234159 21.822266 13.626953 L 16.828125 10.630859 C 16.567584 10.473495 16.284909 10.404089 16.007812 10.408203 z M 3 11.400391 A 0.60000002 0.60000002 0 0 0 2.4003906 12 A 0.60000002 0.60000002 0 0 0 3 12.599609 L 10 12.599609 A 0.60000002 0.60000002 0 0 0 10.599609 12 A 0.60000002 0.60000002 0 0 0 10 11.400391 L 3 11.400391 z M 15.935547 11.589844 C 16.021149 11.58159 16.115442 11.602884 16.207031 11.658203 A 0.60006002 0.60006002 0 0 0 16.208984 11.658203 L 21.205078 14.65625 A 0.60006002 0.60006002 0 0 0 21.207031 14.65625 C 21.490557 14.825235 21.490557 15.174765 21.207031 15.34375 A 0.60006002 0.60006002 0 0 0 21.205078 15.34375 L 16.208984 18.341797 A 0.60006002 0.60006002 0 0 0 16.207031 18.341797 C 15.913732 18.518948 15.598232 18.340697 15.599609 17.998047 A 0.60006002 0.60006002 0 0 0 15.599609 17.996094 L 15.599609 12.003906 A 0.60006002 0.60006002 0 0 0 15.599609 12.001953 C 15.598922 11.766556 15.747222 11.608002 15.935547 11.589844 z M 3 18.400391 A 0.60000002 0.60000002 0 0 0 2.4003906 19 A 0.60000002 0.60000002 0 0 0 3 19.599609 L 10 19.599609 A 0.60000002 0.60000002 0 0 0 10.599609 19 A 0.60000002 0.60000002 0 0 0 10 18.400391 L 3 18.400391 z " />
</svg>
