<?xml version="1.0" encoding="UTF-8" standalone="no"?>
<svg
   width="24"
   height="24"
   viewBox="0 0 24 24"
   fill="none"
   stroke="currentColor"
   stroke-width="1.2"
   stroke-linecap="round"
   stroke-linejoin="round"
   version="1.1"
   id="svg1"
   sodipodi:docname=".tmp_loader-circle.svg"
   xmlns:inkscape="http://www.inkscape.org/namespaces/inkscape"
   xmlns:sodipodi="http://sodipodi.sourceforge.net/DTD/sodipodi-0.dtd"
   xmlns="http://www.w3.org/2000/svg"
   xmlns:svg="http://www.w3.org/2000/svg">
  <defs
     id="defs1" />
  <sodipodi:namedview
     id="namedview1"
     pagecolor="#ffffff"
     bordercolor="#000000"
     borderopacity="0.25"
     inkscape:showpageshadow="2"
     inkscape:pageopacity="0.0"
     inkscape:pagecheckerboard="0"
     inkscape:deskcolor="#d1d1d1" />
  <path
     id="path1"
     style="baseline-shift:baseline;display:inline;overflow:visible;vector-effect:none;fill:#000000;stroke:none;stroke-linecap:butt;stroke-linejoin:miter;enable-background:accumulate;stop-color:#000000;stop-opacity:1;opacity:1"
     d="M 11.753906 2.3769531 C 8.6463224 2.4298331 5.9251266 4.0297736 4.234375 6.3574219 C 1.9800396 9.4609529 1.522098 13.909327 4.234375 17.642578 C 6.946652 21.37583 11.318499 22.313749 14.966797 21.128906 C 18.615095 19.944064 21.599383 16.615769 21.599609 12 A 0.60000002 0.60000002 0 0 0 21 11.400391 A 0.60000002 0.60000002 0 0 0 20.400391 12 C 20.400189 16.104007 17.806597 18.945493 14.595703 19.988281 C 11.384809 21.03107 7.6165114 20.254709 5.2050781 16.935547 C 2.7936449 13.616385 3.2210211 9.7939402 5.2050781 7.0625 C 7.1891351 4.3310598 10.692538 2.7416276 14.595703 4.0097656 A 0.60000002 0.60000002 0 0 0 15.351562 3.625 A 0.60000002 0.60000002 0 0 0 14.966797 2.8691406 C 13.869326 2.5125725 12.789768 2.3593263 11.753906 2.3769531 z " />
</svg>
