<?xml version="1.0" encoding="UTF-8" standalone="no"?>
<svg
   width="24"
   height="24"
   viewBox="0 0 24 24"
   fill="none"
   stroke="currentColor"
   stroke-width="1.2"
   stroke-linecap="round"
   stroke-linejoin="round"
   version="1.1"
   id="svg2"
   sodipodi:docname=".tmp_lollipop.svg"
   xmlns:inkscape="http://www.inkscape.org/namespaces/inkscape"
   xmlns:sodipodi="http://sodipodi.sourceforge.net/DTD/sodipodi-0.dtd"
   xmlns="http://www.w3.org/2000/svg"
   xmlns:svg="http://www.w3.org/2000/svg">
  <defs
     id="defs2" />
  <sodipodi:namedview
     id="namedview2"
     pagecolor="#ffffff"
     bordercolor="#000000"
     borderopacity="0.25"
     inkscape:showpageshadow="2"
     inkscape:pageopacity="0.0"
     inkscape:pagecheckerboard="0"
     inkscape:deskcolor="#d1d1d1" />
  <path
     id="circle1"
     style="baseline-shift:baseline;display:inline;overflow:visible;vector-effect:none;fill:#000000;stroke:none;stroke-linecap:butt;stroke-linejoin:miter;enable-background:accumulate;stop-color:#000000;stop-opacity:1;opacity:1"
     d="M 11 2.4003906 C 6.2574579 2.4003906 2.4003906 6.2574579 2.4003906 11 C 2.4003906 15.742542 6.2574579 19.599609 11 19.599609 C 13.155527 19.599609 15.127992 18.802846 16.638672 17.488281 L 20.576172 21.423828 A 0.60000002 0.60000002 0 0 0 21.423828 21.423828 A 0.60000002 0.60000002 0 0 0 21.423828 20.576172 L 17.488281 16.638672 C 18.802846 15.127992 19.599609 13.155527 19.599609 11 C 19.599609 6.2574579 15.742542 2.4003906 11 2.4003906 z M 11 3.5996094 C 15.094014 3.5996094 18.400391 6.9059861 18.400391 11 C 18.400391 11.2252 18.375058 11.444048 18.355469 11.664062 C 18.028695 14.33754 15.763848 16.400391 13 16.400391 C 10.010555 16.400391 7.5996094 13.989447 7.5996094 11 C 7.5996094 9.8166673 8.0221467 9.0059215 8.6484375 8.4492188 C 9.2747283 7.8925159 10.133333 7.5996094 11 7.5996094 C 11.866667 7.5996094 12.725271 7.892516 13.351562 8.4492188 C 13.977852 9.0059215 14.400391 9.8166673 14.400391 11 C 14.400391 11.516666 14.227853 11.827412 13.976562 12.050781 C 13.725271 12.274151 13.366667 12.400391 13 12.400391 C 12.633333 12.400391 12.274727 12.274151 12.023438 12.050781 C 11.772146 11.827412 11.599609 11.516666 11.599609 11 A 0.60000002 0.60000002 0 0 0 11 10.400391 A 0.60000002 0.60000002 0 0 0 10.400391 11 C 10.400391 11.816666 10.727853 12.505922 11.226562 12.949219 C 11.725271 13.392516 12.366667 13.599609 13 13.599609 C 13.633333 13.599609 14.274727 13.392516 14.773438 12.949219 C 15.272146 12.505922 15.599609 11.816666 15.599609 11 C 15.599609 9.5166672 15.022146 8.3274114 14.148438 7.5507812 C 13.274727 6.7741513 12.133333 6.4003906 11 6.4003906 C 9.8666667 6.4003906 8.7252717 6.7741512 7.8515625 7.5507812 C 6.9778533 8.3274114 6.4003906 9.5166672 6.4003906 11 C 6.4003906 14.637975 9.3620281 17.599609 13 17.599609 C 13.629514 17.599609 14.239236 17.511221 14.816406 17.345703 C 13.702869 18.01566 12.397064 18.400391 11 18.400391 C 6.9059861 18.400391 3.5996094 15.094014 3.5996094 11 C 3.5996094 6.9059861 6.9059861 3.5996094 11 3.5996094 z " />
</svg>
