<?xml version="1.0" encoding="UTF-8" standalone="no"?>
<svg
   width="24"
   height="24"
   viewBox="0 0 24 24"
   fill="none"
   stroke="currentColor"
   stroke-width="1.2"
   stroke-linecap="round"
   stroke-linejoin="round"
   version="1.1"
   id="svg3"
   sodipodi:docname=".tmp_map-pin-plus-inside.svg"
   xmlns:inkscape="http://www.inkscape.org/namespaces/inkscape"
   xmlns:sodipodi="http://sodipodi.sourceforge.net/DTD/sodipodi-0.dtd"
   xmlns="http://www.w3.org/2000/svg"
   xmlns:svg="http://www.w3.org/2000/svg">
  <defs
     id="defs3" />
  <sodipodi:namedview
     id="namedview3"
     pagecolor="#ffffff"
     bordercolor="#000000"
     borderopacity="0.25"
     inkscape:showpageshadow="2"
     inkscape:pageopacity="0.0"
     inkscape:pagecheckerboard="0"
     inkscape:deskcolor="#d1d1d1" />
  <path
     id="path1"
     style="baseline-shift:baseline;display:inline;overflow:visible;vector-effect:none;fill:#000000;stroke:none;stroke-linecap:butt;stroke-linejoin:miter;enable-background:accumulate;stop-color:#000000;stop-opacity:1;opacity:1"
     d="M 12 1.4003906 C 7.2574586 1.4003906 3.4003906 5.2574551 3.4003906 10 C 3.4003906 12.718371 4.868094 15.355712 6.5253906 17.533203 C 8.1826872 19.710695 10.05835 21.434102 11.007812 22.253906 A 0.60006002 0.60006002 0 0 0 11.039062 22.279297 C 11.60645 22.705948 12.39355 22.705948 12.960938 22.279297 A 0.60006002 0.60006002 0 0 0 12.992188 22.253906 C 13.941648 21.434102 15.817313 19.710695 17.474609 17.533203 C 19.131906 15.355712 20.599609 12.718371 20.599609 10 C 20.599609 5.2574551 16.742541 1.4003906 12 1.4003906 z M 12 2.5996094 C 16.094014 2.5996094 19.400391 5.9059829 19.400391 10 C 19.400391 12.274629 18.098688 14.734382 16.521484 16.806641 C 14.952985 18.867464 13.147926 20.528658 12.232422 21.320312 C 12.091125 21.422044 11.908875 21.422044 11.767578 21.320312 C 10.852074 20.528658 9.0470154 18.867464 7.4785156 16.806641 C 5.9013122 14.734382 4.5996094 12.274629 4.5996094 10 C 4.5996094 5.9059829 7.9059856 2.5996094 12 2.5996094 z M 12 6.4003906 A 0.60000002 0.60000002 0 0 0 11.400391 7 L 11.400391 9.4003906 L 9 9.4003906 A 0.60000002 0.60000002 0 0 0 8.4003906 10 A 0.60000002 0.60000002 0 0 0 9 10.599609 L 11.400391 10.599609 L 11.400391 13 A 0.60000002 0.60000002 0 0 0 12 13.599609 A 0.60000002 0.60000002 0 0 0 12.599609 13 L 12.599609 10.599609 L 15 10.599609 A 0.60000002 0.60000002 0 0 0 15.599609 10 A 0.60000002 0.60000002 0 0 0 15 9.4003906 L 12.599609 9.4003906 L 12.599609 7 A 0.60000002 0.60000002 0 0 0 12 6.4003906 z " />
</svg>
