<?xml version="1.0" encoding="UTF-8" standalone="no"?>
<svg
   width="24"
   height="24"
   viewBox="0 0 24 24"
   fill="none"
   stroke="currentColor"
   stroke-width="1.2"
   stroke-linecap="round"
   stroke-linejoin="round"
   version="1.1"
   id="svg3"
   sodipodi:docname=".tmp_message-square-reply.svg"
   xmlns:inkscape="http://www.inkscape.org/namespaces/inkscape"
   xmlns:sodipodi="http://sodipodi.sourceforge.net/DTD/sodipodi-0.dtd"
   xmlns="http://www.w3.org/2000/svg"
   xmlns:svg="http://www.w3.org/2000/svg">
  <defs
     id="defs3" />
  <sodipodi:namedview
     id="namedview3"
     pagecolor="#ffffff"
     bordercolor="#000000"
     borderopacity="0.25"
     inkscape:showpageshadow="2"
     inkscape:pageopacity="0.0"
     inkscape:pagecheckerboard="0"
     inkscape:deskcolor="#d1d1d1" />
  <path
     id="path1"
     style="baseline-shift:baseline;display:inline;overflow:visible;vector-effect:none;fill:#000000;stroke:none;stroke-linecap:butt;stroke-linejoin:miter;enable-background:accumulate;stop-color:#000000;stop-opacity:1;opacity:1"
     d="M 4 2.4003906 C 2.5711664 2.4003906 1.4003906 3.5711664 1.4003906 5 L 1.4003906 21.285156 C 1.4004626 21.843178 1.7600519 22.31015 2.2089844 22.496094 C 2.6579169 22.682038 3.2421019 22.607435 3.6367188 22.212891 L 5.8378906 20.009766 C 6.1005434 19.747034 6.4566218 19.599689 6.828125 19.599609 L 20 19.599609 C 21.428834 19.599609 22.599609 18.428834 22.599609 17 L 22.599609 5 C 22.599609 3.5711664 21.428834 2.4003906 20 2.4003906 L 4 2.4003906 z M 4 3.5996094 L 20 3.5996094 C 20.780305 3.5996094 21.400391 4.2196946 21.400391 5 L 21.400391 17 C 21.400391 17.780305 20.780305 18.400391 20 18.400391 L 6.828125 18.400391 C 6.1388489 18.400538 5.4775526 18.674644 4.9902344 19.162109 L 2.7871094 21.363281 C 2.7344634 21.415921 2.7132003 21.405449 2.6679688 21.386719 C 2.6227368 21.367989 2.5996184 21.359599 2.5996094 21.285156 L 2.5996094 5 C 2.599609 4.2196946 3.2196946 3.5996094 4 3.5996094 z M 10 7.4003906 A 0.60000002 0.60000002 0 0 0 9.5761719 7.5761719 L 6.5820312 10.570312 L 6.5761719 10.576172 A 0.60006002 0.60006002 0 0 0 6.5605469 10.59375 A 0.60000002 0.60000002 0 0 0 6.5292969 10.628906 A 0.60006002 0.60006002 0 0 0 6.5253906 10.634766 A 0.60000002 0.60000002 0 0 0 6.484375 10.695312 A 0.60006002 0.60006002 0 0 0 6.4726562 10.714844 A 0.60000002 0.60000002 0 0 0 6.421875 10.845703 A 0.60000002 0.60000002 0 0 0 6.40625 10.919922 A 0.60006002 0.60006002 0 0 0 6.40625 11.078125 A 0.60000002 0.60000002 0 0 0 6.40625 11.080078 A 0.60006002 0.60006002 0 0 0 6.421875 11.154297 A 0.60000002 0.60000002 0 0 0 6.4726562 11.285156 A 0.60006002 0.60006002 0 0 0 6.5253906 11.365234 A 0.60000002 0.60000002 0 0 0 6.5605469 11.40625 A 0.60006002 0.60006002 0 0 0 6.5761719 11.423828 A 0.60000002 0.60000002 0 0 0 6.5820312 11.429688 L 9.5761719 14.423828 A 0.60000002 0.60000002 0 0 0 10.423828 14.423828 A 0.60000002 0.60000002 0 0 0 10.423828 13.576172 L 8.4472656 11.599609 L 15 11.599609 C 15.780305 11.599609 16.400391 12.219695 16.400391 13 L 16.400391 14 A 0.60000002 0.60000002 0 0 0 17 14.599609 A 0.60000002 0.60000002 0 0 0 17.599609 14 L 17.599609 13 C 17.599609 11.571166 16.428834 10.400391 15 10.400391 L 8.4472656 10.400391 L 10.423828 8.4238281 A 0.60000002 0.60000002 0 0 0 10.423828 7.5761719 A 0.60000002 0.60000002 0 0 0 10 7.4003906 z " />
</svg>
