<?xml version="1.0" encoding="UTF-8" standalone="no"?>
<svg
   width="24"
   height="24"
   viewBox="0 0 24 24"
   fill="none"
   stroke="currentColor"
   stroke-width="1.2"
   stroke-linecap="round"
   stroke-linejoin="round"
   version="1.1"
   id="svg6"
   sodipodi:docname=".tmp_mic-off.svg"
   xmlns:inkscape="http://www.inkscape.org/namespaces/inkscape"
   xmlns:sodipodi="http://sodipodi.sourceforge.net/DTD/sodipodi-0.dtd"
   xmlns="http://www.w3.org/2000/svg"
   xmlns:svg="http://www.w3.org/2000/svg">
  <defs
     id="defs6" />
  <sodipodi:namedview
     id="namedview6"
     pagecolor="#ffffff"
     bordercolor="#000000"
     borderopacity="0.25"
     inkscape:showpageshadow="2"
     inkscape:pageopacity="0.0"
     inkscape:pagecheckerboard="0"
     inkscape:deskcolor="#d1d1d1" />
  <path
     id="path1"
     style="baseline-shift:baseline;display:inline;overflow:visible;vector-effect:none;fill:#000000;stroke:none;stroke-linecap:butt;stroke-linejoin:miter;enable-background:accumulate;stop-color:#000000;stop-opacity:1;opacity:1"
     d="M 2 1.4003906 A 0.60000002 0.60000002 0 0 0 1.5761719 1.5761719 A 0.60000002 0.60000002 0 0 0 1.5761719 2.4238281 L 8.4003906 9.2480469 L 8.4003906 12 C 8.4017806 13.57694 9.3777612 14.808593 10.623047 15.324219 C 11.705685 15.772499 13.026112 15.693869 14.085938 14.933594 L 16.083984 16.931641 C 14.890844 17.936596 13.510035 18.398822 12.146484 18.417969 A 0.60000002 0.60000002 0 0 0 12 18.400391 A 0.60000002 0.60000002 0 0 0 11.863281 18.416016 C 11.068759 18.391363 10.284117 18.217829 9.5507812 17.914062 C 7.3163246 16.988493 5.5994018 14.876555 5.5996094 12 L 5.5996094 10 A 0.60000002 0.60000002 0 0 0 5 9.4003906 A 0.60000002 0.60000002 0 0 0 4.4003906 10 L 4.4003906 12 C 4.4001482 15.360195 6.4535966 17.928673 9.0917969 19.021484 C 9.8236249 19.324627 10.604 19.514849 11.400391 19.582031 L 11.400391 22 A 0.60000002 0.60000002 0 0 0 12 22.599609 A 0.60000002 0.60000002 0 0 0 12.599609 22 L 12.599609 19.589844 C 14.11874 19.477726 15.637123 18.901987 16.935547 17.783203 L 21.576172 22.423828 A 0.60000002 0.60000002 0 0 0 22.423828 22.423828 A 0.60000002 0.60000002 0 0 0 22.423828 21.576172 L 17.404297 16.556641 A 0.60000002 0.60000002 0 0 0 17.375 16.525391 L 14.574219 13.726562 A 0.60000002 0.60000002 0 0 0 14.544922 13.695312 L 14.513672 13.666016 L 9.4296875 8.5820312 A 0.60000002 0.60000002 0 0 0 9.4179688 8.5703125 L 2.4238281 1.5761719 A 0.60000002 0.60000002 0 0 0 2 1.4003906 z M 12.257812 1.4277344 C 10.926733 1.3306825 9.5086136 1.9582315 8.7832031 3.4003906 A 0.60000002 0.60000002 0 0 0 9.0507812 4.2050781 A 0.60000002 0.60000002 0 0 0 9.8554688 3.9394531 C 10.442804 2.7717964 11.540485 2.4459895 12.546875 2.6816406 C 13.553265 2.9172918 14.392515 3.6968781 14.400391 5.0039062 L 14.400391 9.3398438 A 0.60000002 0.60000002 0 0 0 15 9.9394531 A 0.60000002 0.60000002 0 0 0 15.599609 9.3398438 L 15.599609 5 A 0.60006002 0.60006002 0 0 0 15.599609 4.9960938 C 15.588493 3.1511889 14.29508 1.8589962 12.820312 1.5136719 C 12.635966 1.4705063 12.447967 1.4415989 12.257812 1.4277344 z M 19 9.4003906 A 0.60000002 0.60000002 0 0 0 18.400391 10 L 18.400391 12 C 18.400062 12.377088 18.365421 12.753838 18.298828 13.125 A 0.60000002 0.60000002 0 0 0 18.783203 13.820312 A 0.60000002 0.60000002 0 0 0 19.480469 13.335938 C 19.559542 12.895181 19.599219 12.447792 19.599609 12 L 19.599609 10 A 0.60000002 0.60000002 0 0 0 19 9.4003906 z M 9.5996094 10.447266 L 13.222656 14.070312 C 12.540447 14.488466 11.760514 14.495777 11.082031 14.214844 C 10.240287 13.866309 9.6005713 13.093602 9.5996094 12 L 9.5996094 10.447266 z " />
</svg>
