<?xml version="1.0" encoding="UTF-8" standalone="no"?>
<svg
   width="24"
   height="24"
   viewBox="0 0 24 24"
   fill="none"
   stroke="currentColor"
   stroke-width="1.2"
   stroke-linecap="round"
   stroke-linejoin="round"
   version="1.1"
   id="svg11"
   sodipodi:docname=".tmp_microchip.svg"
   xmlns:inkscape="http://www.inkscape.org/namespaces/inkscape"
   xmlns:sodipodi="http://sodipodi.sourceforge.net/DTD/sodipodi-0.dtd"
   xmlns="http://www.w3.org/2000/svg"
   xmlns:svg="http://www.w3.org/2000/svg">
  <defs
     id="defs11" />
  <sodipodi:namedview
     id="namedview11"
     pagecolor="#ffffff"
     bordercolor="#000000"
     borderopacity="0.25"
     inkscape:showpageshadow="2"
     inkscape:pageopacity="0.0"
     inkscape:pagecheckerboard="0"
     inkscape:deskcolor="#d1d1d1" />
  <path
     id="path1"
     style="baseline-shift:baseline;display:inline;overflow:visible;vector-effect:none;fill:#000000;stroke:none;stroke-linecap:butt;stroke-linejoin:miter;enable-background:accumulate;stop-color:#000000;stop-opacity:1;opacity:1"
     d="M 8 1.4003906 C 6.7773221 1.4003906 5.7435439 2.257694 5.4707031 3.4003906 L 4 3.4003906 A 0.60000002 0.60000002 0 0 0 3.4003906 4 A 0.60000002 0.60000002 0 0 0 4 4.5996094 L 5.4003906 4.5996094 L 5.4003906 7.4003906 L 4 7.4003906 A 0.60000002 0.60000002 0 0 0 3.4003906 8 A 0.60000002 0.60000002 0 0 0 4 8.5996094 L 5.4003906 8.5996094 L 5.4003906 11.400391 L 4 11.400391 A 0.60000002 0.60000002 0 0 0 3.4003906 12 A 0.60000002 0.60000002 0 0 0 4 12.599609 L 5.4003906 12.599609 L 5.4003906 15.400391 L 4 15.400391 A 0.60000002 0.60000002 0 0 0 3.4003906 16 A 0.60000002 0.60000002 0 0 0 4 16.599609 L 5.4003906 16.599609 L 5.4003906 19.400391 L 4 19.400391 A 0.60000002 0.60000002 0 0 0 3.4003906 20 A 0.60000002 0.60000002 0 0 0 4 20.599609 L 5.4707031 20.599609 C 5.7435438 21.742306 6.7773219 22.599609 8 22.599609 L 16 22.599609 C 17.222678 22.599609 18.256456 21.742306 18.529297 20.599609 L 20 20.599609 A 0.60000002 0.60000002 0 0 0 20.599609 20 A 0.60000002 0.60000002 0 0 0 20 19.400391 L 18.599609 19.400391 L 18.599609 16.599609 L 20 16.599609 A 0.60000002 0.60000002 0 0 0 20.599609 16 A 0.60000002 0.60000002 0 0 0 20 15.400391 L 18.599609 15.400391 L 18.599609 12.599609 L 20 12.599609 A 0.60000002 0.60000002 0 0 0 20.599609 12 A 0.60000002 0.60000002 0 0 0 20 11.400391 L 18.599609 11.400391 L 18.599609 8.5996094 L 20 8.5996094 A 0.60000002 0.60000002 0 0 0 20.599609 8 A 0.60000002 0.60000002 0 0 0 20 7.4003906 L 18.599609 7.4003906 L 18.599609 4.5996094 L 20 4.5996094 A 0.60000002 0.60000002 0 0 0 20.599609 4 A 0.60000002 0.60000002 0 0 0 20 3.4003906 L 18.529297 3.4003906 C 18.256456 2.257694 17.222678 1.4003906 16 1.4003906 L 14.5 1.4003906 C 13.895014 1.4003906 13.478787 1.861638 13.355469 2.3476562 L 13.357422 2.3476562 C 13.167317 3.0930849 12.602279 3.4003906 12 3.4003906 C 11.397721 3.4003906 10.832636 3.0930849 10.642578 2.3476562 L 10.644531 2.3476562 C 10.521166 1.8616379 10.104986 1.4003906 9.5 1.4003906 L 8 1.4003906 z M 8 2.5996094 L 9.4667969 2.5996094 L 9.4667969 2.6015625 L 9.4648438 2.6015625 L 9.4648438 2.6035156 L 9.4667969 2.6054688 C 9.4689201 2.6111002 9.4751471 2.6216057 9.4804688 2.6425781 C 9.8023383 3.9049871 10.920243 4.6015625 12 4.6015625 C 13.079757 4.6015625 14.197662 3.9049874 14.519531 2.6425781 C 14.524851 2.6216073 14.533031 2.6091476 14.535156 2.6035156 L 14.535156 2.6015625 L 14.533203 2.6015625 L 14.533203 2.5996094 L 16 2.5996094 C 16.780305 2.5996094 17.400391 3.2196946 17.400391 4 L 17.400391 8 L 17.400391 12 L 17.400391 16 L 17.400391 20 C 17.400391 20.780305 16.780305 21.400391 16 21.400391 L 8 21.400391 C 7.2196946 21.400391 6.5996094 20.780305 6.5996094 20 L 6.5996094 16 L 6.5996094 12 L 6.5996094 8 L 6.5996094 4 C 6.5996094 3.2196946 7.2196946 2.5996094 8 2.5996094 z " />
</svg>
