<?xml version="1.0" encoding="UTF-8" standalone="no"?>
<svg
   width="24"
   height="24"
   viewBox="0 0 24 24"
   fill="none"
   stroke="currentColor"
   stroke-width="1.2"
   stroke-linecap="round"
   stroke-linejoin="round"
   version="1.1"
   id="svg3"
   sodipodi:docname=".tmp_milk-off.svg"
   xmlns:inkscape="http://www.inkscape.org/namespaces/inkscape"
   xmlns:sodipodi="http://sodipodi.sourceforge.net/DTD/sodipodi-0.dtd"
   xmlns="http://www.w3.org/2000/svg"
   xmlns:svg="http://www.w3.org/2000/svg">
  <defs
     id="defs3" />
  <sodipodi:namedview
     id="namedview3"
     pagecolor="#ffffff"
     bordercolor="#000000"
     borderopacity="0.25"
     inkscape:showpageshadow="2"
     inkscape:pageopacity="0.0"
     inkscape:pagecheckerboard="0"
     inkscape:deskcolor="#d1d1d1" />
  <path
     id="path1"
     style="baseline-shift:baseline;display:inline;overflow:visible;vector-effect:none;fill:#000000;stroke:none;stroke-linecap:butt;stroke-linejoin:miter;enable-background:accumulate;stop-color:#000000;stop-opacity:1;opacity:1"
     d="M 2 1.4003906 A 0.60000002 0.60000002 0 0 0 1.5761719 1.5761719 A 0.60000002 0.60000002 0 0 0 1.5761719 2.4238281 L 7.0332031 7.8808594 C 6.6191591 8.5861951 6.4002065 9.3920293 6.4003906 10.212891 L 6.4003906 20 C 6.4003906 21.428834 7.5711664 22.599609 9 22.599609 L 15 22.599609 C 16.428834 22.599609 17.599609 21.428834 17.599609 20 L 17.599609 18.447266 L 21.576172 22.423828 A 0.60000002 0.60000002 0 0 0 22.423828 22.423828 A 0.60000002 0.60000002 0 0 0 22.423828 21.576172 L 17.429688 16.582031 A 0.60000002 0.60000002 0 0 0 17.417969 16.570312 L 15.882812 15.035156 A 0.60000002 0.60000002 0 0 0 15.835938 14.988281 L 8.2421875 7.3945312 A 0.60000002 0.60000002 0 0 0 8.2050781 7.3574219 L 2.4238281 1.5761719 A 0.60000002 0.60000002 0 0 0 2 1.4003906 z M 8 1.4003906 A 0.60000002 0.60000002 0 0 0 7.4003906 2 A 0.60000002 0.60000002 0 0 0 8 2.5996094 L 8.4003906 2.5996094 L 8.4003906 3.34375 A 0.60000002 0.60000002 0 0 0 9 3.9433594 A 0.60000002 0.60000002 0 0 0 9.5996094 3.34375 L 9.5996094 2.5996094 L 14.400391 2.5996094 L 14.400391 4.7890625 C 14.400414 5.6972648 14.668027 6.5861726 15.171875 7.3417969 L 15.828125 8.3242188 C 16.200748 8.8830436 16.400541 9.5392725 16.400391 10.210938 A 0.60006002 0.60006002 0 0 0 16.400391 10.212891 L 16.400391 11.34375 A 0.60000002 0.60000002 0 0 0 17 11.943359 A 0.60000002 0.60000002 0 0 0 17.599609 11.34375 L 17.599609 10.212891 C 17.599813 9.3049329 17.331508 8.4157623 16.828125 7.6601562 L 16.828125 7.6582031 L 16.171875 6.6757812 C 15.799413 6.1171974 15.599627 5.4604373 15.599609 4.7890625 L 15.599609 2.5996094 L 16 2.5996094 A 0.60000002 0.60000002 0 0 0 16.599609 2 A 0.60000002 0.60000002 0 0 0 16 1.4003906 L 8 1.4003906 z M 7.921875 8.7695312 L 14.037109 14.884766 C 13.418887 14.83584 12.809886 14.689208 12.232422 14.447266 C 11.358712 14.081236 10.429065 13.898437 9.5 13.898438 C 8.8606731 13.898438 8.2210703 13.984938 7.5996094 14.158203 L 7.5996094 10.212891 A 0.60006002 0.60006002 0 0 0 7.5996094 10.210938 C 7.5994971 9.7103996 7.7111014 9.2190244 7.921875 8.7695312 z M 9.6933594 15.099609 C 10.39966 15.122877 11.10256 15.274134 11.767578 15.552734 C 12.85849 16.009802 14.045205 16.186041 15.21875 16.066406 L 16.400391 17.248047 L 16.400391 20 C 16.400391 20.780305 15.780305 21.400391 15 21.400391 L 9 21.400391 C 8.2196946 21.400391 7.5996094 20.780305 7.5996094 20 L 7.5996094 15.414062 C 8.2773556 15.181997 8.9870583 15.076342 9.6933594 15.099609 z " />
</svg>
