<?xml version="1.0" encoding="UTF-8" standalone="no"?>
<svg
   width="24"
   height="24"
   viewBox="0 0 24 24"
   fill="none"
   stroke="currentColor"
   stroke-width="1.2"
   stroke-linecap="round"
   stroke-linejoin="round"
   version="1.1"
   id="svg4"
   sodipodi:docname=".tmp_motorbike.svg"
   xmlns:inkscape="http://www.inkscape.org/namespaces/inkscape"
   xmlns:sodipodi="http://sodipodi.sourceforge.net/DTD/sodipodi-0.dtd"
   xmlns="http://www.w3.org/2000/svg"
   xmlns:svg="http://www.w3.org/2000/svg">
  <defs
     id="defs4" />
  <sodipodi:namedview
     id="namedview4"
     pagecolor="#ffffff"
     bordercolor="#000000"
     borderopacity="0.25"
     inkscape:showpageshadow="2"
     inkscape:pageopacity="0.0"
     inkscape:pagecheckerboard="0"
     inkscape:deskcolor="#d1d1d1" />
  <path
     id="path1"
     style="baseline-shift:baseline;display:inline;overflow:visible;vector-effect:none;fill:#000000;stroke:none;stroke-linecap:butt;stroke-linejoin:miter;enable-background:accumulate;stop-color:#000000;stop-opacity:1;opacity:1"
     d="M 16.982422 4.4003906 A 0.60000002 0.60000002 0 0 0 16.513672 4.6484375 A 0.60000002 0.60000002 0 0 0 16.648438 5.4863281 C 17.584039 6.1650639 18.210184 7.1847463 18.400391 8.3242188 L 18.400391 9 C 18.400391 9.2280207 18.228021 9.4003906 18 9.4003906 C 17.06774 9.4003906 16.179975 9.5947987 15.375 9.9453125 C 14.966523 9.0317149 14.047269 8.4008905 13 8.4003906 L 11 8.4003906 C 9.85526 8.4003906 9.0473164 9.2358151 8.703125 10.269531 L 3.1894531 8.4316406 A 0.60000002 0.60000002 0 0 0 2.4316406 8.8105469 A 0.60000002 0.60000002 0 0 0 2.8105469 9.5683594 L 8.8105469 11.568359 A 0.60006002 0.60006002 0 0 0 9.5996094 11 C 9.5996094 10.219695 10.219695 9.5996094 11 9.5996094 L 13 9.5996094 C 13.607113 9.5998991 14.124585 9.980543 14.318359 10.527344 C 12.5601 11.714379 11.400391 13.724408 11.400391 16 C 11.400391 16.228021 11.228021 16.400391 11 16.400391 L 8.5488281 16.400391 C 8.2615634 14.70246 6.7769385 13.400391 5 13.400391 C 3.0188817 13.400391 1.4003906 15.018882 1.4003906 17 C 1.4003906 18.981118 3.0188817 20.599609 5 20.599609 C 6.7769385 20.599609 8.2615634 19.29754 8.5488281 17.599609 L 11 17.599609 C 11.876549 17.599609 12.599609 16.876549 12.599609 16 C 12.599609 14.027283 13.649481 12.305604 15.222656 11.363281 A 0.60000002 0.60000002 0 0 0 15.355469 11.287109 C 15.691386 11.098703 16.049991 10.945831 16.425781 10.832031 A 0.60000002 0.60000002 0 0 0 16.431641 11.189453 L 17.310547 13.824219 C 16.176364 14.43161 15.400391 15.628867 15.400391 17 C 15.400391 18.981118 17.018882 20.599609 19 20.599609 C 20.981118 20.599609 22.599609 18.981118 22.599609 17 C 22.599609 15.018882 20.981118 13.400391 19 13.400391 C 18.811666 13.400391 18.626014 13.415185 18.445312 13.443359 L 17.568359 10.810547 A 0.60000002 0.60000002 0 0 0 17.466797 10.625 C 17.642036 10.607951 17.820175 10.599609 18 10.599609 C 18.876549 10.599609 19.599609 9.8765488 19.599609 9 L 19.599609 8.25 A 0.60006002 0.60006002 0 0 0 19.591797 8.1542969 C 19.355745 6.6927636 18.54991 5.3830167 17.351562 4.5136719 A 0.60000002 0.60000002 0 0 0 16.982422 4.4003906 z M 5 14.599609 C 6.3325902 14.599609 7.4003906 15.66741 7.4003906 17 C 7.4003906 18.33259 6.3325902 19.400391 5 19.400391 C 3.6674098 19.400391 2.5996094 18.33259 2.5996094 17 C 2.5996094 15.66741 3.6674098 14.599609 5 14.599609 z M 19 14.599609 C 20.33259 14.599609 21.400391 15.66741 21.400391 17 C 21.400391 18.33259 20.33259 19.400391 19 19.400391 C 17.66741 19.400391 16.599609 18.33259 16.599609 17 C 16.599609 15.66741 17.66741 14.599609 19 14.599609 z " />
</svg>
