<?xml version="1.0" encoding="UTF-8" standalone="no"?>
<svg
   width="24"
   height="24"
   viewBox="0 0 24 24"
   fill="none"
   stroke="currentColor"
   stroke-width="1.2"
   stroke-linecap="round"
   stroke-linejoin="round"
   version="1.1"
   id="svg2"
   sodipodi:docname=".tmp_mountain-snow.svg"
   xmlns:inkscape="http://www.inkscape.org/namespaces/inkscape"
   xmlns:sodipodi="http://sodipodi.sourceforge.net/DTD/sodipodi-0.dtd"
   xmlns="http://www.w3.org/2000/svg"
   xmlns:svg="http://www.w3.org/2000/svg">
  <defs
     id="defs2" />
  <sodipodi:namedview
     id="namedview2"
     pagecolor="#ffffff"
     bordercolor="#000000"
     borderopacity="0.25"
     inkscape:showpageshadow="2"
     inkscape:pageopacity="0.0"
     inkscape:pagecheckerboard="0"
     inkscape:deskcolor="#d1d1d1" />
  <path
     id="path1"
     style="baseline-shift:baseline;display:inline;overflow:visible;vector-effect:none;fill:#000000;stroke:none;stroke-linecap:butt;stroke-linejoin:miter;enable-background:accumulate;stop-color:#000000;stop-opacity:1;opacity:1"
     d="M 7.9570312 2.4023438 A 0.60006002 0.60006002 0 0 0 7.4316406 2.8105469 L 1.4316406 20.810547 A 0.60006002 0.60006002 0 0 0 2 21.599609 L 22 21.599609 A 0.60006002 0.60006002 0 0 0 22.568359 20.810547 L 20.808594 15.53125 A 0.60000002 0.60000002 0 0 0 20.787109 15.466797 L 17.568359 5.8105469 A 0.60006002 0.60006002 0 0 0 16.576172 5.5761719 L 12.164062 9.9882812 L 8.5371094 2.7324219 A 0.60006002 0.60006002 0 0 0 7.9570312 2.4023438 z M 8.1113281 4.5625 L 11.462891 11.267578 A 0.60006002 0.60006002 0 0 0 12.423828 11.423828 L 16.738281 7.109375 L 19.511719 15.431641 C 17.078251 16.884076 14.808193 16.751897 12.347656 15.009766 A 0.60006002 0.60006002 0 0 0 12.345703 15.009766 C 10.964596 14.034523 9.5328939 13.505603 8.0976562 13.429688 C 7.0500826 13.374274 6.000456 13.559578 4.96875 13.988281 L 8.1113281 4.5625 z M 7.5976562 14.580078 C 8.9300661 14.539465 10.258975 15.00671 11.652344 15.990234 C 14.323404 17.881423 17.190285 18.084266 19.898438 16.591797 L 21.167969 20.400391 L 2.8320312 20.400391 L 4.4316406 15.603516 A 0.60000002 0.60000002 0 0 0 4.4492188 15.59375 C 5.5231606 14.950205 6.5613375 14.611666 7.5976562 14.580078 z " />
</svg>
