<?xml version="1.0" encoding="UTF-8" standalone="no"?>
<svg
   width="24"
   height="24"
   viewBox="0 0 24 24"
   fill="none"
   stroke="currentColor"
   stroke-width="1.2"
   stroke-linecap="round"
   stroke-linejoin="round"
   version="1.1"
   id="svg2"
   sodipodi:docname=".tmp_mouse-pointer-ban.svg"
   xmlns:inkscape="http://www.inkscape.org/namespaces/inkscape"
   xmlns:sodipodi="http://sodipodi.sourceforge.net/DTD/sodipodi-0.dtd"
   xmlns="http://www.w3.org/2000/svg"
   xmlns:svg="http://www.w3.org/2000/svg">
  <defs
     id="defs2" />
  <sodipodi:namedview
     id="namedview2"
     pagecolor="#ffffff"
     bordercolor="#000000"
     borderopacity="0.25"
     inkscape:showpageshadow="2"
     inkscape:pageopacity="0.0"
     inkscape:pagecheckerboard="0"
     inkscape:deskcolor="#d1d1d1" />
  <path
     id="path1"
     style="baseline-shift:baseline;display:inline;overflow:visible;vector-effect:none;fill:#000000;stroke:none;stroke-linecap:butt;stroke-linejoin:miter;enable-background:accumulate;stop-color:#000000;stop-opacity:1;opacity:1"
     d="M 2.578125 1.4023438 C 2.2525969 1.3805337 1.9339176 1.5074887 1.7207031 1.7207031 C 1.4364172 2.0049891 1.3069972 2.4769483 1.4765625 2.9023438 L 4.9746094 11.898438 C 5.1513286 12.354821 5.6150447 12.614432 6.0390625 12.599609 C 6.4630803 12.584789 6.9063627 12.291829 7.0507812 11.824219 L 8.1171875 8.3828125 C 8.1563979 8.2559901 8.254037 8.158351 8.3808594 8.1191406 A 0.60006002 0.60006002 0 0 0 8.3808594 8.1171875 L 11.824219 7.0507812 C 12.291829 6.9063628 12.584787 6.4630803 12.599609 6.0390625 C 12.614429 5.6150447 12.354821 5.1513286 11.898438 4.9746094 L 2.9023438 1.4765625 C 2.7959949 1.4341712 2.6866344 1.4096138 2.578125 1.4023438 z M 2.6777344 2.6777344 L 11.195312 5.9902344 L 8.0273438 6.9726562 C 7.5232147 7.1285205 7.1265674 7.5232147 6.9707031 8.0273438 L 5.9902344 11.195312 L 2.6777344 2.6777344 z M 16 9.4003906 C 12.362027 9.4003906 9.4003906 12.362027 9.4003906 16 C 9.4003906 19.637973 12.362027 22.599609 16 22.599609 C 19.637973 22.599609 22.599609 19.637973 22.599609 16 C 22.599609 12.362027 19.637973 9.4003906 16 9.4003906 z M 16 10.599609 C 18.989444 10.599609 21.400391 13.010556 21.400391 16 C 21.400391 17.277597 20.960314 18.449804 20.222656 19.373047 L 12.626953 11.777344 C 13.550196 11.039686 14.722403 10.599609 16 10.599609 z M 11.777344 12.626953 L 19.373047 20.222656 C 18.449804 20.960314 17.277597 21.400391 16 21.400391 C 13.010556 21.400391 10.599609 18.989444 10.599609 16 C 10.599609 14.722403 11.039686 13.550196 11.777344 12.626953 z " />
</svg>
