<?xml version="1.0" encoding="UTF-8" standalone="no"?>
<svg
   width="24"
   height="24"
   viewBox="0 0 24 24"
   fill="none"
   stroke="currentColor"
   stroke-width="1.2"
   stroke-linecap="round"
   stroke-linejoin="round"
   version="1.1"
   id="svg2"
   sodipodi:docname=".tmp_pencil.svg"
   xmlns:inkscape="http://www.inkscape.org/namespaces/inkscape"
   xmlns:sodipodi="http://sodipodi.sourceforge.net/DTD/sodipodi-0.dtd"
   xmlns="http://www.w3.org/2000/svg"
   xmlns:svg="http://www.w3.org/2000/svg">
  <defs
     id="defs2" />
  <sodipodi:namedview
     id="namedview2"
     pagecolor="#ffffff"
     bordercolor="#000000"
     borderopacity="0.25"
     inkscape:showpageshadow="2"
     inkscape:pageopacity="0.0"
     inkscape:pagecheckerboard="0"
     inkscape:deskcolor="#d1d1d1" />
  <path
     id="path1"
     style="baseline-shift:baseline;display:inline;overflow:visible;vector-effect:none;fill:#000000;stroke:none;stroke-linecap:butt;stroke-linejoin:miter;enable-background:accumulate;stop-color:#000000;stop-opacity:1;opacity:1"
     d="M 19.011719 1.3515625 C 18.23834 1.3904427 17.437929 1.7263031 16.763672 2.4003906 L 14.65625 4.5097656 L 14.654297 4.5097656 A 0.60000002 0.60000002 0 0 0 14.576172 4.5761719 A 0.60000002 0.60000002 0 0 0 14.509766 4.6542969 A 0.60000002 0.60000002 0 0 0 14.509766 4.65625 L 3.4179688 15.75 C 3.1161494 16.050935 2.8925195 16.420637 2.7675781 16.828125 A 0.60006002 0.60006002 0 0 0 2.7675781 16.830078 L 1.4472656 21.181641 A 0.60006002 0.60006002 0 0 0 1.4453125 21.183594 C 1.2040011 21.991081 2.0093079 22.795343 2.8164062 22.552734 A 0.60006002 0.60006002 0 0 0 2.8183594 22.552734 L 7.171875 21.232422 C 7.5789742 21.108605 7.9486405 20.886342 8.25 20.585938 A 0.60006002 0.60006002 0 0 0 8.2519531 20.585938 L 19.34375 9.4902344 A 0.60000002 0.60000002 0 0 0 19.345703 9.4882812 A 0.60000002 0.60000002 0 0 0 19.423828 9.4238281 A 0.60000002 0.60000002 0 0 0 19.488281 9.3457031 A 0.60000002 0.60000002 0 0 0 19.490234 9.34375 L 21.597656 7.2363281 C 22.368235 6.4659423 22.695668 5.5293837 22.644531 4.6582031 C 22.593395 3.7870225 22.192128 2.9930583 21.599609 2.4003906 C 21.00709 1.8077229 20.212965 1.4048706 19.341797 1.3535156 C 19.232901 1.3470962 19.122201 1.3460082 19.011719 1.3515625 z M 19.068359 2.5507812 C 19.136538 2.5480694 19.203896 2.5487501 19.271484 2.5527344 C 19.812188 2.5846088 20.346019 2.8459177 20.75 3.25 C 21.153981 3.6540823 21.415527 4.1878007 21.447266 4.7285156 C 21.479004 5.2692306 21.30842 5.8284386 20.75 6.3867188 A 0.60006002 0.60006002 0 0 0 20.75 6.3886719 L 18.992188 8.1445312 L 15.855469 5.0078125 L 17.611328 3.25 C 18.099946 2.7615047 18.591109 2.5697642 19.068359 2.5507812 z M 15.007812 5.8554688 L 18.144531 8.9921875 L 7.4023438 19.736328 C 7.2402679 19.897499 7.0409625 20.017469 6.8222656 20.083984 L 2.6503906 21.349609 L 3.9160156 17.179688 L 3.9160156 17.177734 C 3.9833956 16.958926 4.1034846 16.761275 4.265625 16.599609 A 0.60006002 0.60006002 0 0 0 4.265625 16.597656 L 15.007812 5.8554688 z " />
</svg>
