<?xml version="1.0" encoding="UTF-8" standalone="no"?>
<svg
   width="24"
   height="24"
   viewBox="0 0 24 24"
   fill="none"
   stroke="currentColor"
   stroke-width="1.2"
   stroke-linecap="round"
   stroke-linejoin="round"
   version="1.1"
   id="svg1"
   sodipodi:docname=".tmp_play.svg"
   xmlns:inkscape="http://www.inkscape.org/namespaces/inkscape"
   xmlns:sodipodi="http://sodipodi.sourceforge.net/DTD/sodipodi-0.dtd"
   xmlns="http://www.w3.org/2000/svg"
   xmlns:svg="http://www.w3.org/2000/svg">
  <defs
     id="defs1" />
  <sodipodi:namedview
     id="namedview1"
     pagecolor="#ffffff"
     bordercolor="#000000"
     borderopacity="0.25"
     inkscape:showpageshadow="2"
     inkscape:pageopacity="0.0"
     inkscape:pagecheckerboard="0"
     inkscape:deskcolor="#d1d1d1" />
  <path
     id="path1"
     style="baseline-shift:baseline;display:inline;overflow:visible;vector-effect:none;fill:#000000;stroke:none;stroke-linecap:butt;stroke-linejoin:miter;enable-background:accumulate;stop-color:#000000;stop-opacity:1;opacity:1"
     d="M 6.9785156 2.40625 C 5.6383367 2.4342732 4.399951 3.5165189 4.4003906 5 L 4.4003906 19 C 4.3998044 20.977975 6.6021628 22.242993 8.3105469 21.246094 L 20.310547 14.246094 C 22.00929 13.256448 22.007092 10.738649 20.306641 9.7519531 L 8.3105469 2.7539062 C 7.8834509 2.5046813 7.4252419 2.3969089 6.9785156 2.40625 z M 6.9726562 3.5878906 C 7.2149396 3.5874949 7.4654043 3.6511579 7.7050781 3.7910156 L 19.703125 10.789062 C 20.656632 11.342337 20.657577 12.654055 19.705078 13.208984 L 7.7050781 20.208984 C 6.7463357 20.768415 5.5992804 20.109982 5.5996094 19 L 5.5996094 5 C 5.5994449 4.4450091 5.8863647 4.0031124 6.2929688 3.7695312 C 6.4962709 3.6527407 6.7303729 3.5882863 6.9726562 3.5878906 z " />
</svg>
