<?xml version="1.0" encoding="UTF-8" standalone="no"?>
<svg
   width="24"
   height="24"
   viewBox="0 0 24 24"
   fill="none"
   stroke="currentColor"
   stroke-width="1.2"
   stroke-linecap="round"
   stroke-linejoin="round"
   version="1.1"
   id="svg3"
   sodipodi:docname=".tmp_podcast.svg"
   xmlns:inkscape="http://www.inkscape.org/namespaces/inkscape"
   xmlns:sodipodi="http://sodipodi.sourceforge.net/DTD/sodipodi-0.dtd"
   xmlns="http://www.w3.org/2000/svg"
   xmlns:svg="http://www.w3.org/2000/svg">
  <defs
     id="defs3" />
  <sodipodi:namedview
     id="namedview3"
     pagecolor="#ffffff"
     bordercolor="#000000"
     borderopacity="0.25"
     inkscape:showpageshadow="2"
     inkscape:pageopacity="0.0"
     inkscape:pagecheckerboard="0"
     inkscape:deskcolor="#d1d1d1" />
  <path
     id="path4"
     style="baseline-shift:baseline;display:inline;overflow:visible;vector-effect:none;fill:currentColor;stroke:none;stroke-linecap:butt;stroke-linejoin:miter;enable-background:accumulate;stop-color:#000000"
     d="M 12 1.4003906 C 7.2434771 1.4003906 3.8866488 4.5389641 2.7851562 8.3027344 C 1.6836635 12.066505 2.8178396 16.52171 6.8261719 19.085938 A 0.60000002 0.60000002 0 0 0 7.65625 18.904297 A 0.60000002 0.60000002 0 0 0 7.4726562 18.074219 C 3.9039267 15.791216 2.9674936 11.95511 3.9375 8.640625 C 4.9075064 5.3261396 7.7654574 2.5996094 12 2.5996094 C 16.234543 2.5996094 19.092494 5.3261396 20.0625 8.640625 C 21.032506 11.95511 20.09607 15.791216 16.527344 18.074219 A 0.60000002 0.60000002 0 0 0 16.34375 18.904297 A 0.60000002 0.60000002 0 0 0 17.173828 19.085938 C 21.18216 16.52171 22.316336 12.066505 21.214844 8.3027344 C 20.113351 4.5389641 16.756523 1.4003906 12 1.4003906 z M 12 5.4003906 C 7.4232147 5.4003906 4.7733311 10.697775 7.5195312 14.359375 A 0.60000002 0.60000002 0 0 0 8.359375 14.480469 A 0.60000002 0.60000002 0 0 0 8.4804688 13.640625 C 6.2822377 10.70965 8.3365016 6.5996094 12 6.5996094 C 15.663498 6.5996094 17.717762 10.70965 15.519531 13.640625 A 0.60000002 0.60000002 0 0 0 15.640625 14.480469 A 0.60000002 0.60000002 0 0 0 16.480469 14.359375 C 19.226669 10.697775 16.576785 5.4003906 12 5.4003906 z M 12 9.4003906 C 11.123451 9.4003906 10.400391 10.123451 10.400391 11 C 10.400391 11.876549 11.123451 12.599609 12 12.599609 C 12.876549 12.599609 13.599609 11.876549 13.599609 11 C 13.599609 10.123451 12.876549 9.4003906 12 9.4003906 z M 12 15.400391 C 11.616667 15.400391 11.225271 15.524151 10.914062 15.800781 C 10.602852 16.077411 10.400391 16.516667 10.400391 17 A 0.60006002 0.60006002 0 0 0 10.404297 17.066406 L 10.900391 21.53125 C 10.909214 21.837243 11.047492 22.137268 11.257812 22.324219 C 11.475271 22.517516 11.741667 22.599609 12 22.599609 C 12.258333 22.599609 12.524727 22.517519 12.742188 22.324219 C 12.952507 22.137268 13.090786 21.837243 13.099609 21.53125 L 13.595703 17.066406 A 0.60006002 0.60006002 0 0 0 13.599609 17 C 13.599609 16.516667 13.397146 16.077411 13.085938 15.800781 C 12.774728 15.524151 12.383333 15.400391 12 15.400391 z " />
</svg>
