<?xml version="1.0" encoding="UTF-8" standalone="no"?>
<svg
   width="24"
   height="24"
   viewBox="0 0 24 24"
   fill="none"
   stroke="currentColor"
   stroke-width="1.2"
   stroke-linecap="round"
   stroke-linejoin="round"
   version="1.1"
   id="svg6"
   sodipodi:docname=".tmp_pointer-off.svg"
   xmlns:inkscape="http://www.inkscape.org/namespaces/inkscape"
   xmlns:sodipodi="http://sodipodi.sourceforge.net/DTD/sodipodi-0.dtd"
   xmlns="http://www.w3.org/2000/svg"
   xmlns:svg="http://www.w3.org/2000/svg">
  <defs
     id="defs6" />
  <sodipodi:namedview
     id="namedview6"
     pagecolor="#ffffff"
     bordercolor="#000000"
     borderopacity="0.25"
     inkscape:showpageshadow="2"
     inkscape:pageopacity="0.0"
     inkscape:pagecheckerboard="0"
     inkscape:deskcolor="#d1d1d1" />
  <path
     id="path1"
     style="baseline-shift:baseline;display:inline;overflow:visible;vector-effect:none;fill:#000000;stroke:none;stroke-linecap:butt;stroke-linejoin:miter;enable-background:accumulate;stop-color:#000000;stop-opacity:1;opacity:1"
     d="M 2 1.4003906 A 0.60000002 0.60000002 0 0 0 1.5761719 1.5761719 A 0.60000002 0.60000002 0 0 0 1.5761719 2.4238281 L 5.4003906 6.2480469 L 5.4003906 12.591797 C 4.8578676 12.188789 4.2379873 12.024537 3.6640625 12.076172 C 3.0192461 12.134182 2.4414444 12.440352 2.0117188 12.880859 C 1.581993 13.321367 1.2900666 13.906679 1.2480469 14.552734 C 1.2060269 15.19879 1.4368435 15.895849 1.9707031 16.46875 A 0.60006002 0.60006002 0 0 0 1.9824219 16.480469 L 5.5722656 20.121094 C 7.2661331 21.844728 9.6251222 22.749332 12.037109 22.599609 L 14 22.599609 C 16.080039 22.599685 18.082731 21.846072 19.642578 20.490234 L 21.576172 22.423828 A 0.60000002 0.60000002 0 0 0 22.423828 22.423828 A 0.60000002 0.60000002 0 0 0 22.423828 21.576172 L 20.111328 19.263672 A 0.60000002 0.60000002 0 0 0 20.082031 19.232422 L 20.050781 19.203125 L 6.4296875 5.5820312 A 0.60000002 0.60000002 0 0 0 6.4179688 5.5703125 L 2.4238281 1.5761719 A 0.60000002 0.60000002 0 0 0 2 1.4003906 z M 8.0605469 1.4003906 C 7.8653619 1.3953109 7.6670859 1.4131279 7.4667969 1.4550781 A 0.60000002 0.60000002 0 0 0 7.0019531 2.1660156 A 0.60000002 0.60000002 0 0 0 7.7128906 2.6308594 C 8.5952368 2.4460535 9.4001545 3.098508 9.4003906 4 L 9.4003906 4.5 A 0.60000002 0.60000002 0 0 0 10 5.0996094 A 0.60000002 0.60000002 0 0 0 10.599609 4.5 L 10.599609 4 C 10.599235 2.5675547 9.4268419 1.4359486 8.0605469 1.4003906 z M 12.601562 6.5058594 A 0.60000002 0.60000002 0 0 0 12.072266 6.9101562 A 0.60000002 0.60000002 0 0 0 12.445312 7.671875 C 12.867351 7.8166314 13.194984 8.1522787 13.328125 8.578125 A 0.60000002 0.60000002 0 0 0 13.789062 8.9882812 A 0.60000002 0.60000002 0 0 0 14.021484 9.3300781 A 0.60000002 0.60000002 0 0 0 14.859375 9.1894531 C 15.274815 8.6051445 15.879161 8.4935923 16.425781 8.6679688 C 16.972401 8.842345 17.40006 9.2830571 17.400391 10 L 17.400391 11 A 0.60006002 0.60006002 0 0 0 18.599609 11 C 18.599609 10.483334 18.772148 10.172588 19.023438 9.9492188 C 19.274729 9.7258492 19.633333 9.5996094 20 9.5996094 C 20.366667 9.5996094 20.725272 9.7258491 20.976562 9.9492188 C 21.227853 10.172588 21.400391 10.483334 21.400391 11 L 21.400391 14 A 0.60006002 0.60006002 0 0 0 21.400391 14.001953 C 21.402891 14.689889 21.309691 15.374971 21.123047 16.037109 A 0.60000002 0.60000002 0 0 0 21.537109 16.777344 A 0.60000002 0.60000002 0 0 0 22.277344 16.363281 C 22.494252 15.593772 22.602563 14.797537 22.599609 13.998047 L 22.599609 11 C 22.599609 10.183334 22.272147 9.494078 21.773438 9.0507812 C 21.274728 8.6074844 20.633333 8.4003906 20 8.4003906 C 19.383452 8.4003906 18.766198 8.6137644 18.273438 9.0332031 C 17.966745 8.3262812 17.475848 7.7419046 16.791016 7.5234375 C 16.297996 7.3661601 15.747336 7.3590581 15.232422 7.515625 C 14.929531 7.6077233 14.639646 7.7558314 14.378906 7.9648438 C 14.090168 7.29682 13.529928 6.7758124 12.833984 6.5371094 A 0.60000002 0.60000002 0 0 0 12.601562 6.5058594 z M 6.5996094 7.4472656 L 18.791016 19.638672 C 17.458231 20.771368 15.762073 21.400454 14 21.400391 L 12 21.400391 A 0.60006002 0.60006002 0 0 0 11.962891 21.400391 C 9.8972967 21.528611 7.8783403 20.755394 6.4277344 19.279297 L 2.8496094 15.650391 C 2.516796 15.293239 2.4239707 14.95899 2.4453125 14.630859 C 2.4666545 14.302729 2.6244609 13.971571 2.8710938 13.71875 C 3.1177265 13.465929 3.4439831 13.300949 3.7714844 13.271484 C 4.0971441 13.242184 4.433949 13.327134 4.796875 13.646484 L 6.5761719 15.423828 A 0.60000002 0.60000002 0 0 0 7.4238281 15.423828 A 0.60000002 0.60000002 0 0 0 7.4238281 14.576172 L 6.5996094 13.751953 L 6.5996094 7.4472656 z " />
</svg>
