<?xml version="1.0" encoding="UTF-8" standalone="no"?>
<svg
   width="24"
   height="24"
   viewBox="0 0 24 24"
   fill="none"
   stroke="currentColor"
   stroke-width="1.2"
   stroke-linecap="round"
   stroke-linejoin="round"
   version="1.1"
   id="svg3"
   sodipodi:docname=".tmp_rainbow.svg"
   xmlns:inkscape="http://www.inkscape.org/namespaces/inkscape"
   xmlns:sodipodi="http://sodipodi.sourceforge.net/DTD/sodipodi-0.dtd"
   xmlns="http://www.w3.org/2000/svg"
   xmlns:svg="http://www.w3.org/2000/svg">
  <defs
     id="defs3" />
  <sodipodi:namedview
     id="namedview3"
     pagecolor="#ffffff"
     bordercolor="#000000"
     borderopacity="0.25"
     inkscape:showpageshadow="2"
     inkscape:pageopacity="0.0"
     inkscape:pagecheckerboard="0"
     inkscape:deskcolor="#d1d1d1" />
  <path
     id="path1"
     style="baseline-shift:baseline;display:inline;overflow:visible;vector-effect:none;fill:#000000;stroke:none;stroke-linecap:butt;stroke-linejoin:miter;enable-background:accumulate;stop-color:#000000;stop-opacity:1;opacity:1"
     d="M 12 6.4003906 C 6.1528891 6.4003906 1.4003906 11.152885 1.4003906 17 A 0.60000002 0.60000002 0 0 0 2 17.599609 A 0.60000002 0.60000002 0 0 0 2.5996094 17 C 2.5996094 11.801413 6.8014161 7.5996094 12 7.5996094 C 17.198584 7.5996094 21.400391 11.801413 21.400391 17 A 0.60000002 0.60000002 0 0 0 22 17.599609 A 0.60000002 0.60000002 0 0 0 22.599609 17 C 22.599609 11.152885 17.847111 6.4003906 12 6.4003906 z M 12 10.400391 C 8.3620281 10.400391 5.4003906 13.362025 5.4003906 17 A 0.60000002 0.60000002 0 0 0 6 17.599609 A 0.60000002 0.60000002 0 0 0 6.5996094 17 C 6.5996094 14.010553 9.0105551 11.599609 12 11.599609 C 14.989445 11.599609 17.400391 14.010553 17.400391 17 A 0.60000002 0.60000002 0 0 0 18 17.599609 A 0.60000002 0.60000002 0 0 0 18.599609 17 C 18.599609 13.362025 15.637972 10.400391 12 10.400391 z M 12 14.400391 C 11.366667 14.400391 10.725271 14.607484 10.226562 15.050781 C 9.7278528 15.494078 9.4003906 16.183334 9.4003906 17 A 0.60000002 0.60000002 0 0 0 10 17.599609 A 0.60000002 0.60000002 0 0 0 10.599609 17 C 10.599609 16.483334 10.772146 16.172588 11.023438 15.949219 C 11.274728 15.725849 11.633333 15.599609 12 15.599609 C 12.366667 15.599609 12.725271 15.725849 12.976562 15.949219 C 13.227853 16.172588 13.400391 16.483334 13.400391 17 A 0.60000002 0.60000002 0 0 0 14 17.599609 A 0.60000002 0.60000002 0 0 0 14.599609 17 C 14.599609 16.183334 14.272146 15.494078 13.773438 15.050781 C 13.274728 14.607484 12.633333 14.400391 12 14.400391 z " />
</svg>
