<?xml version="1.0" encoding="UTF-8" standalone="no"?>
<svg
   width="24"
   height="24"
   viewBox="0 0 24 24"
   fill="none"
   stroke="currentColor"
   stroke-width="1.2"
   stroke-linecap="round"
   stroke-linejoin="round"
   version="1.1"
   id="svg2"
   sodipodi:docname=".tmp_rewind.svg"
   xmlns:inkscape="http://www.inkscape.org/namespaces/inkscape"
   xmlns:sodipodi="http://sodipodi.sourceforge.net/DTD/sodipodi-0.dtd"
   xmlns="http://www.w3.org/2000/svg"
   xmlns:svg="http://www.w3.org/2000/svg">
  <defs
     id="defs2" />
  <sodipodi:namedview
     id="namedview2"
     pagecolor="#ffffff"
     bordercolor="#000000"
     borderopacity="0.25"
     inkscape:showpageshadow="2"
     inkscape:pageopacity="0.0"
     inkscape:pagecheckerboard="0"
     inkscape:deskcolor="#d1d1d1" />
  <path
     id="path1"
     style="baseline-shift:baseline;display:inline;overflow:visible;vector-effect:none;fill:#000000;stroke:none;stroke-linecap:butt;stroke-linejoin:miter;enable-background:accumulate;stop-color:#000000;stop-opacity:1;opacity:1"
     d="M 9.9160156 3.4003906 C 9.791792 3.4041738 9.6669523 3.4176438 9.5429688 3.4394531 C 9.0470347 3.5266903 8.5625704 3.7617693 8.1621094 4.1621094 L 2.1621094 10.162109 C 1.1521361 11.172388 1.1521361 12.827612 2.1621094 13.837891 L 8.1621094 19.837891 C 8.9630314 20.638571 10.096331 20.774196 10.994141 20.402344 C 11.891951 20.030492 12.599368 19.132504 12.599609 18 L 12.599609 14.275391 L 18.162109 19.837891 C 18.963031 20.638571 20.096331 20.774196 20.994141 20.402344 C 21.891951 20.030492 22.599368 19.132504 22.599609 18 L 22.599609 6 C 22.599368 4.8674962 21.891951 3.9695084 20.994141 3.5976562 C 20.545236 3.4117301 20.038903 3.3522159 19.542969 3.4394531 C 19.047035 3.5266901 18.56257 3.7617693 18.162109 4.1621094 L 12.599609 9.7246094 L 12.599609 6 C 12.599368 4.8674962 11.891951 3.9695084 10.994141 3.5976562 C 10.657462 3.4582116 10.288686 3.3890411 9.9160156 3.4003906 z M 9.9570312 4.5917969 C 10.154083 4.5890825 10.349859 4.6302853 10.535156 4.7070312 C 11.029283 4.9116872 11.400252 5.3510456 11.400391 6 L 11.400391 18 C 11.400252 18.648954 11.029283 19.088313 10.535156 19.292969 C 10.041029 19.497625 9.4687149 19.449045 9.0097656 18.990234 L 3.0097656 12.990234 C 2.4582112 12.438513 2.4582112 11.561487 3.0097656 11.009766 L 9.0097656 5.0097656 C 9.2392403 4.7803602 9.4975211 4.6534429 9.7597656 4.609375 C 9.8253267 4.598358 9.8913475 4.5927017 9.9570312 4.5917969 z M 19.957031 4.5917969 C 20.154082 4.5890829 20.349859 4.6302868 20.535156 4.7070312 C 21.029283 4.9116875 21.400252 5.3510456 21.400391 6 L 21.400391 18 C 21.400252 18.648954 21.029283 19.088313 20.535156 19.292969 C 20.041029 19.497625 19.468715 19.449045 19.009766 18.990234 L 13.009766 12.990234 C 12.759389 12.739782 12.62267 12.421318 12.599609 12.097656 C 12.59493 12.031986 12.59493 11.968014 12.599609 11.902344 C 12.62267 11.578682 12.759389 11.260218 13.009766 11.009766 L 19.009766 5.0097656 C 19.23924 4.7803602 19.497521 4.6534429 19.759766 4.609375 C 19.825327 4.598358 19.891348 4.5927015 19.957031 4.5917969 z " />
</svg>
