<?xml version="1.0" encoding="UTF-8" standalone="no"?>
<svg
   width="24"
   height="24"
   viewBox="0 0 24 24"
   fill="none"
   stroke="currentColor"
   stroke-width="1.2"
   stroke-linecap="round"
   stroke-linejoin="round"
   version="1.1"
   id="svg3"
   sodipodi:docname=".tmp_rotate-cw-square.svg"
   xmlns:inkscape="http://www.inkscape.org/namespaces/inkscape"
   xmlns:sodipodi="http://sodipodi.sourceforge.net/DTD/sodipodi-0.dtd"
   xmlns="http://www.w3.org/2000/svg"
   xmlns:svg="http://www.w3.org/2000/svg">
  <defs
     id="defs3" />
  <sodipodi:namedview
     id="namedview3"
     pagecolor="#ffffff"
     bordercolor="#000000"
     borderopacity="0.25"
     inkscape:showpageshadow="2"
     inkscape:pageopacity="0.0"
     inkscape:pagecheckerboard="0"
     inkscape:deskcolor="#d1d1d1" />
  <path
     id="path1"
     style="baseline-shift:baseline;display:inline;overflow:visible;vector-effect:none;fill:#000000;stroke:none;stroke-linecap:butt;stroke-linejoin:miter;enable-background:accumulate;stop-color:#000000;stop-opacity:1;opacity:1"
     d="M 9 1.4003906 A 0.60000002 0.60000002 0 0 0 8.5761719 1.5761719 A 0.60000002 0.60000002 0 0 0 8.5761719 2.4238281 L 10.552734 4.4003906 L 6 4.4003906 C 4.5711664 4.4003906 3.4003906 5.5711664 3.4003906 7 L 3.4003906 10 A 0.60000002 0.60000002 0 0 0 4 10.599609 A 0.60000002 0.60000002 0 0 0 4.5996094 10 L 4.5996094 7 C 4.5996094 6.2196946 5.2196946 5.5996094 6 5.5996094 L 10.552734 5.5996094 L 8.5761719 7.5761719 A 0.60000002 0.60000002 0 0 0 8.5761719 8.4238281 A 0.60000002 0.60000002 0 0 0 9.4238281 8.4238281 L 12.417969 5.4296875 A 0.60000002 0.60000002 0 0 0 12.423828 5.4238281 A 0.60006002 0.60006002 0 0 0 12.470703 5.3710938 A 0.60000002 0.60000002 0 0 0 12.474609 5.3652344 A 0.60006002 0.60006002 0 0 0 12.515625 5.3046875 A 0.60000002 0.60000002 0 0 0 12.519531 5.2988281 A 0.60006002 0.60006002 0 0 0 12.527344 5.2851562 A 0.60000002 0.60000002 0 0 0 12.578125 5.1542969 A 0.60006002 0.60006002 0 0 0 12.59375 5.0800781 A 0.60000002 0.60000002 0 0 0 12.59375 5.078125 A 0.60006002 0.60006002 0 0 0 12.59375 4.9199219 A 0.60000002 0.60000002 0 0 0 12.519531 4.7011719 A 0.60006002 0.60006002 0 0 0 12.515625 4.6953125 A 0.60000002 0.60000002 0 0 0 12.474609 4.6347656 A 0.60006002 0.60006002 0 0 0 12.470703 4.6289062 A 0.60000002 0.60000002 0 0 0 12.423828 4.5761719 L 9.4238281 1.5761719 A 0.60000002 0.60000002 0 0 0 9 1.4003906 z M 16 4.4003906 A 0.60000002 0.60000002 0 0 0 15.400391 5 A 0.60000002 0.60000002 0 0 0 16 5.5996094 L 18 5.5996094 C 18.780305 5.5996094 19.400391 6.2196946 19.400391 7 L 19.400391 18 C 19.400391 18.780305 18.780305 19.400391 18 19.400391 L 6 19.400391 C 5.2196946 19.400391 4.5996094 18.780305 4.5996094 18 L 4.5996094 14 A 0.60000002 0.60000002 0 0 0 4 13.400391 A 0.60000002 0.60000002 0 0 0 3.4003906 14 L 3.4003906 18 C 3.4003906 19.428834 4.5711664 20.599609 6 20.599609 L 18 20.599609 C 19.428834 20.599609 20.599609 19.428834 20.599609 18 L 20.599609 7 C 20.599609 5.5711664 19.428834 4.4003906 18 4.4003906 L 16 4.4003906 z " />
</svg>
