<?xml version="1.0" encoding="UTF-8" standalone="no"?>
<svg
   width="24"
   height="24"
   viewBox="0 0 24 24"
   fill="none"
   stroke="currentColor"
   stroke-width="1.2"
   stroke-linecap="round"
   stroke-linejoin="round"
   version="1.1"
   id="svg5"
   sodipodi:docname=".tmp_router.svg"
   xmlns:inkscape="http://www.inkscape.org/namespaces/inkscape"
   xmlns:sodipodi="http://sodipodi.sourceforge.net/DTD/sodipodi-0.dtd"
   xmlns="http://www.w3.org/2000/svg"
   xmlns:svg="http://www.w3.org/2000/svg">
  <defs
     id="defs5" />
  <sodipodi:namedview
     id="namedview5"
     pagecolor="#ffffff"
     bordercolor="#000000"
     borderopacity="0.25"
     inkscape:showpageshadow="2"
     inkscape:pageopacity="0.0"
     inkscape:pagecheckerboard="0"
     inkscape:deskcolor="#d1d1d1" />
  <path
     id="rect1"
     style="baseline-shift:baseline;display:inline;overflow:visible;vector-effect:none;fill:#000000;stroke:none;stroke-linecap:butt;stroke-linejoin:miter;enable-background:accumulate;stop-color:#000000;stop-opacity:1;opacity:1"
     d="M 15.005859 1.4023438 C 12.804556 1.4023439 10.602299 2.2405963 8.9257812 3.9160156 A 0.60000002 0.60000002 0 0 0 8.9257812 4.7636719 A 0.60000002 0.60000002 0 0 0 9.7734375 4.7636719 C 12.667941 1.8710649 17.341825 1.8710649 20.236328 4.7636719 A 0.60000002 0.60000002 0 0 0 21.083984 4.7636719 A 0.60000002 0.60000002 0 0 0 21.083984 3.9160156 C 19.407466 2.2405963 17.207163 1.4023437 15.005859 1.4023438 z M 15.009766 5.4003906 C 13.830462 5.4003906 12.651752 5.8492042 11.755859 6.7460938 A 0.60000002 0.60000002 0 0 0 11.755859 7.59375 A 0.60000002 0.60000002 0 0 0 12.605469 7.59375 C 13.938597 6.2591383 16.082888 6.2591383 17.416016 7.59375 A 0.60000002 0.60000002 0 0 0 18.263672 7.59375 A 0.60000002 0.60000002 0 0 0 18.263672 6.7460938 C 17.367779 5.8492042 16.189069 5.4003906 15.009766 5.4003906 z M 15 9.4003906 A 0.60000002 0.60000002 0 0 0 14.400391 10 L 14.400391 13.400391 L 4 13.400391 C 2.5699783 13.400391 1.4003906 14.569978 1.4003906 16 L 1.4003906 20 C 1.4003906 21.430022 2.5699783 22.599609 4 22.599609 L 20 22.599609 C 21.430022 22.599609 22.599609 21.430022 22.599609 20 L 22.599609 16 C 22.599609 14.569978 21.430022 13.400391 20 13.400391 L 15.599609 13.400391 L 15.599609 10 A 0.60000002 0.60000002 0 0 0 15 9.4003906 z M 4 14.599609 L 20 14.599609 C 20.785978 14.599609 21.400391 15.214022 21.400391 16 L 21.400391 20 C 21.400391 20.785978 20.785978 21.400391 20 21.400391 L 4 21.400391 C 3.2140217 21.400391 2.5996094 20.785978 2.5996094 20 L 2.5996094 16 C 2.5996094 15.214022 3.2140217 14.599609 4 14.599609 z M 6 17.400391 A 0.60000002 0.60000002 0 0 0 5.4003906 18 A 0.60000002 0.60000002 0 0 0 6 18.599609 L 6.0097656 18.599609 A 0.60000002 0.60000002 0 0 0 6.609375 18 A 0.60000002 0.60000002 0 0 0 6.0097656 17.400391 L 6 17.400391 z M 10 17.400391 A 0.60000002 0.60000002 0 0 0 9.4003906 18 A 0.60000002 0.60000002 0 0 0 10 18.599609 L 10.009766 18.599609 A 0.60000002 0.60000002 0 0 0 10.609375 18 A 0.60000002 0.60000002 0 0 0 10.009766 17.400391 L 10 17.400391 z " />
</svg>
