<?xml version="1.0" encoding="UTF-8" standalone="no"?>
<svg
   width="24"
   height="24"
   viewBox="0 0 24 24"
   fill="none"
   stroke="currentColor"
   stroke-width="1.2"
   stroke-linecap="round"
   stroke-linejoin="round"
   version="1.1"
   id="svg4"
   sodipodi:docname=".tmp_save-all.svg"
   xmlns:inkscape="http://www.inkscape.org/namespaces/inkscape"
   xmlns:sodipodi="http://sodipodi.sourceforge.net/DTD/sodipodi-0.dtd"
   xmlns="http://www.w3.org/2000/svg"
   xmlns:svg="http://www.w3.org/2000/svg">
  <defs
     id="defs4" />
  <sodipodi:namedview
     id="namedview4"
     pagecolor="#ffffff"
     bordercolor="#000000"
     borderopacity="0.25"
     inkscape:showpageshadow="2"
     inkscape:pageopacity="0.0"
     inkscape:pagecheckerboard="0"
     inkscape:deskcolor="#d1d1d1" />
  <path
     id="path1"
     style="baseline-shift:baseline;display:inline;overflow:visible;vector-effect:none;fill:#000000;stroke:none;stroke-linecap:butt;stroke-linejoin:miter;enable-background:accumulate;stop-color:#000000;stop-opacity:1;opacity:1"
     d="M 8 1.4003906 C 6.5711664 1.4003906 5.4003906 2.5711664 5.4003906 4 L 5.4003906 16 C 5.4003906 17.428834 6.5711664 18.599609 8 18.599609 L 10 18.599609 L 18 18.599609 L 19.986328 18.599609 C 21.420124 18.606778 22.599627 17.433814 22.599609 16 L 22.599609 6.828125 C 22.599462 6.1388489 22.325356 5.4775526 21.837891 4.9902344 L 19.009766 2.1621094 C 18.522447 1.674644 17.861151 1.4005378 17.171875 1.4003906 L 10 1.4003906 L 8 1.4003906 z M 8 2.5996094 L 9.4003906 2.5996094 L 9.4003906 5 C 9.4003906 5.8765488 10.123451 6.5996094 11 6.5996094 L 16 6.5996094 A 0.60000002 0.60000002 0 0 0 16.599609 6 A 0.60000002 0.60000002 0 0 0 16 5.4003906 L 11 5.4003906 C 10.771979 5.4003906 10.599609 5.2280207 10.599609 5 L 10.599609 2.5996094 L 17.171875 2.5996094 C 17.543378 2.5996887 17.899457 2.7470335 18.162109 3.0097656 L 20.990234 5.8378906 C 21.252966 6.1005434 21.400311 6.4566218 21.400391 6.828125 L 21.400391 16 C 21.4004 16.783159 20.775338 17.404306 19.992188 17.400391 A 0.60006002 0.60006002 0 0 0 19.990234 17.400391 L 18.599609 17.400391 L 18.599609 12 C 18.599609 11.123451 17.876549 10.400391 17 10.400391 L 11 10.400391 C 10.123451 10.400391 9.4003906 11.123451 9.4003906 12 L 9.4003906 17.400391 L 8 17.400391 C 7.2196946 17.400391 6.5996094 16.780305 6.5996094 16 L 6.5996094 4 C 6.5996094 3.2196946 7.2196946 2.5996094 8 2.5996094 z M 2 5.4003906 A 0.60000002 0.60000002 0 0 0 1.4003906 6 L 1.4003906 20 C 1.4003906 21.428834 2.5711664 22.599609 4 22.599609 L 18 22.599609 A 0.60000002 0.60000002 0 0 0 18.599609 22 A 0.60000002 0.60000002 0 0 0 18 21.400391 L 4 21.400391 C 3.2196946 21.400391 2.5996094 20.780305 2.5996094 20 L 2.5996094 6 A 0.60000002 0.60000002 0 0 0 2 5.4003906 z M 11 11.599609 L 17 11.599609 C 17.228021 11.599609 17.400391 11.771979 17.400391 12 L 17.400391 17.400391 L 10.599609 17.400391 L 10.599609 12 C 10.599609 11.771979 10.771979 11.599609 11 11.599609 z " />
</svg>
