<?xml version="1.0" encoding="UTF-8" standalone="no"?>
<svg
   width="24"
   height="24"
   viewBox="0 0 24 24"
   fill="none"
   stroke="currentColor"
   stroke-width="1.2"
   stroke-linecap="round"
   stroke-linejoin="round"
   version="1.1"
   id="svg3"
   sodipodi:docname=".tmp_send-to-back.svg"
   xmlns:inkscape="http://www.inkscape.org/namespaces/inkscape"
   xmlns:sodipodi="http://sodipodi.sourceforge.net/DTD/sodipodi-0.dtd"
   xmlns="http://www.w3.org/2000/svg"
   xmlns:svg="http://www.w3.org/2000/svg">
  <defs
     id="defs3" />
  <sodipodi:namedview
     id="namedview3"
     pagecolor="#ffffff"
     bordercolor="#000000"
     borderopacity="0.25"
     inkscape:showpageshadow="2"
     inkscape:pageopacity="0.0"
     inkscape:pagecheckerboard="0"
     inkscape:deskcolor="#d1d1d1" />
  <path
     id="rect1"
     style="baseline-shift:baseline;display:inline;overflow:visible;vector-effect:none;fill:#000000;stroke:none;stroke-linecap:butt;stroke-linejoin:miter;enable-background:accumulate;stop-color:#000000;stop-opacity:1;opacity:1"
     d="M 4 1.4003906 C 2.5699783 1.4003906 1.4003906 2.5699783 1.4003906 4 L 1.4003906 8 C 1.4003906 9.4300217 2.5699783 10.599609 4 10.599609 L 8 10.599609 C 9.4300217 10.599609 10.599609 9.4300217 10.599609 8 L 10.599609 4 C 10.599609 2.5699783 9.4300217 1.4003906 8 1.4003906 L 4 1.4003906 z M 4 2.5996094 L 8 2.5996094 C 8.7859783 2.5996094 9.4003906 3.2140217 9.4003906 4 L 9.4003906 8 C 9.4003906 8.7859783 8.7859783 9.4003906 8 9.4003906 L 4 9.4003906 C 3.2140217 9.4003906 2.5996094 8.7859783 2.5996094 8 L 2.5996094 4 C 2.5996094 3.2140217 3.2140217 2.5996094 4 2.5996094 z M 14 6.4003906 A 0.60000002 0.60000002 0 0 0 13.400391 7 A 0.60000002 0.60000002 0 0 0 14 7.5996094 L 15 7.5996094 C 15.780305 7.5996094 16.400391 8.2196946 16.400391 9 L 16.400391 10 A 0.60000002 0.60000002 0 0 0 17 10.599609 A 0.60000002 0.60000002 0 0 0 17.599609 10 L 17.599609 9 C 17.599609 7.5711664 16.428834 6.4003906 15 6.4003906 L 14 6.4003906 z M 7 13.400391 A 0.60000002 0.60000002 0 0 0 6.4003906 14 L 6.4003906 15 C 6.4003906 16.428834 7.5711664 17.599609 9 17.599609 L 10 17.599609 A 0.60000002 0.60000002 0 0 0 10.599609 17 A 0.60000002 0.60000002 0 0 0 10 16.400391 L 9 16.400391 C 8.2196946 16.400391 7.5996094 15.780305 7.5996094 15 L 7.5996094 14 A 0.60000002 0.60000002 0 0 0 7 13.400391 z M 16 13.400391 C 14.569978 13.400391 13.400391 14.569978 13.400391 16 L 13.400391 20 C 13.400391 21.430022 14.569978 22.599609 16 22.599609 L 20 22.599609 C 21.430022 22.599609 22.599609 21.430022 22.599609 20 L 22.599609 16 C 22.599609 14.569978 21.430022 13.400391 20 13.400391 L 16 13.400391 z M 16 14.599609 L 20 14.599609 C 20.785978 14.599609 21.400391 15.214022 21.400391 16 L 21.400391 20 C 21.400391 20.785978 20.785978 21.400391 20 21.400391 L 16 21.400391 C 15.214022 21.400391 14.599609 20.785978 14.599609 20 L 14.599609 16 C 14.599609 15.214022 15.214022 14.599609 16 14.599609 z " />
</svg>
