<?xml version="1.0" encoding="UTF-8" standalone="no"?>
<svg
   width="24"
   height="24"
   viewBox="0 0 24 24"
   fill="none"
   stroke="currentColor"
   stroke-width="1.2"
   stroke-linecap="round"
   stroke-linejoin="round"
   version="1.1"
   id="svg2"
   sodipodi:docname=".tmp_shield-half.svg"
   xmlns:inkscape="http://www.inkscape.org/namespaces/inkscape"
   xmlns:sodipodi="http://sodipodi.sourceforge.net/DTD/sodipodi-0.dtd"
   xmlns="http://www.w3.org/2000/svg"
   xmlns:svg="http://www.w3.org/2000/svg">
  <defs
     id="defs2" />
  <sodipodi:namedview
     id="namedview2"
     pagecolor="#ffffff"
     bordercolor="#000000"
     borderopacity="0.25"
     inkscape:showpageshadow="2"
     inkscape:pageopacity="0.0"
     inkscape:pagecheckerboard="0"
     inkscape:deskcolor="#d1d1d1" />
  <path
     id="path1"
     style="baseline-shift:baseline;display:inline;overflow:visible;vector-effect:none;fill:#000000;stroke:none;stroke-linecap:butt;stroke-linejoin:miter;enable-background:accumulate;stop-color:#000000;stop-opacity:1;opacity:1"
     d="M 12 1.4003906 A 0.60000002 0.60000002 0 0 0 11.941406 1.4023438 C 11.550922 1.4150886 11.16336 1.5561619 10.849609 1.8242188 A 0.60006002 0.60006002 0 0 0 10.845703 1.828125 C 9.2023124 3.2637219 6.76 4.4003906 5 4.4003906 C 4.1234512 4.4003906 3.4003906 5.1234512 3.4003906 6 L 3.4003906 13 C 3.4003906 15.64 4.3499326 17.696684 5.8417969 19.224609 C 7.3303409 20.749134 9.3289857 21.764293 11.460938 22.501953 C 11.805689 22.63037 12.184772 22.635644 12.533203 22.517578 A 0.60006002 0.60006002 0 0 0 12.537109 22.515625 C 14.668926 21.772564 16.669871 20.753621 18.160156 19.224609 C 19.650448 17.69564 20.599609 15.64 20.599609 13 L 20.599609 6 C 20.599609 5.1234512 19.876549 4.4003906 19 4.4003906 C 17.238 4.4003906 14.808038 3.2739674 13.154297 1.828125 A 0.60006002 0.60006002 0 0 0 13.150391 1.8242188 C 12.836635 1.5561654 12.449078 1.4150886 12.058594 1.4023438 A 0.60000002 0.60000002 0 0 0 12 1.4003906 z M 11.400391 2.9316406 L 11.400391 21.207031 C 9.5543265 20.522794 7.901868 19.616437 6.7011719 18.386719 C 5.4005361 17.054644 4.5996094 15.36 4.5996094 13 L 4.5996094 6 C 4.5996094 5.7719793 4.7719793 5.5996094 5 5.5996094 C 7.1465033 5.5996094 9.5845049 4.4402543 11.400391 2.9316406 z M 12.599609 2.9316406 C 14.423516 4.4485461 16.854982 5.5996094 19 5.5996094 C 19.228021 5.5996094 19.400391 5.7719793 19.400391 6 L 19.400391 13 C 19.400391 15.36 18.600496 17.05323 17.300781 18.386719 C 16.099525 19.619191 14.444722 20.527958 12.599609 21.216797 L 12.599609 2.9316406 z " />
</svg>
