<?xml version="1.0" encoding="UTF-8" standalone="no"?>
<svg
   width="24"
   height="24"
   viewBox="0 0 24 24"
   fill="none"
   stroke="currentColor"
   stroke-width="1.2"
   stroke-linecap="round"
   stroke-linejoin="round"
   version="1.1"
   id="svg3"
   sodipodi:docname=".tmp_shopping-bag.svg"
   xmlns:inkscape="http://www.inkscape.org/namespaces/inkscape"
   xmlns:sodipodi="http://sodipodi.sourceforge.net/DTD/sodipodi-0.dtd"
   xmlns="http://www.w3.org/2000/svg"
   xmlns:svg="http://www.w3.org/2000/svg">
  <defs
     id="defs3" />
  <sodipodi:namedview
     id="namedview3"
     pagecolor="#ffffff"
     bordercolor="#000000"
     borderopacity="0.25"
     inkscape:showpageshadow="2"
     inkscape:pageopacity="0.0"
     inkscape:pagecheckerboard="0"
     inkscape:deskcolor="#d1d1d1" />
  <path
     id="path1"
     style="baseline-shift:baseline;display:inline;overflow:visible;vector-effect:none;fill:#000000;stroke:none;stroke-linecap:butt;stroke-linejoin:miter;enable-background:accumulate;stop-color:#000000;stop-opacity:1;opacity:1"
     d="M 7 1.4003906 C 6.1821572 1.4003906 5.4106275 1.7851789 4.9199219 2.4394531 L 2.9199219 5.1074219 C 2.7600405 5.3205969 2.6361091 5.5563772 2.5488281 5.8046875 C 2.4518716 6.0805243 2.4003906 6.3719606 2.4003906 6.6679688 L 2.4003906 20 C 2.4003906 21.428834 3.5711664 22.599609 5 22.599609 L 19 22.599609 C 20.428834 22.599609 21.599609 21.428834 21.599609 20 L 21.599609 6.6679688 C 21.599609 6.3719606 21.548128 6.0805243 21.451172 5.8046875 C 21.363891 5.5563772 21.239959 5.3205969 21.080078 5.1074219 L 19.080078 2.4394531 C 18.589372 1.7851789 17.817843 1.4003906 17 1.4003906 L 7 1.4003906 z M 7 2.5996094 L 17 2.5996094 C 17.441186 2.5996094 17.854429 2.8072071 18.119141 3.1601562 L 19.824219 5.4335938 L 4.1757812 5.4335938 L 5.8808594 3.1601562 C 6.1455712 2.807207 6.5588136 2.5996094 7 2.5996094 z M 3.5996094 6.6347656 L 20.400391 6.6347656 C 20.400656 6.6458229 20.400391 6.6568914 20.400391 6.6679688 L 20.400391 20 C 20.400391 20.780305 19.780305 21.400391 19 21.400391 L 5 21.400391 C 4.2196946 21.400391 3.5996094 20.780305 3.5996094 20 L 3.5996094 6.6679688 C 3.5996094 6.6568914 3.5993444 6.6458229 3.5996094 6.6347656 z M 8 9.4003906 A 0.60000002 0.60000002 0 0 0 7.4003906 10 C 7.4003906 11.483333 7.9778533 12.672589 8.8515625 13.449219 C 9.7252717 14.225849 10.866667 14.599609 12 14.599609 C 13.133333 14.599609 14.274727 14.225849 15.148438 13.449219 C 16.022146 12.672589 16.599609 11.483333 16.599609 10 A 0.60000002 0.60000002 0 0 0 16 9.4003906 A 0.60000002 0.60000002 0 0 0 15.400391 10 C 15.400391 11.183333 14.977853 11.994079 14.351562 12.550781 C 13.725271 13.107484 12.866667 13.400391 12 13.400391 C 11.133333 13.400391 10.274728 13.107484 9.6484375 12.550781 C 9.0221467 11.994079 8.5996094 11.183333 8.5996094 10 A 0.60000002 0.60000002 0 0 0 8 9.4003906 z " />
</svg>
