<?xml version="1.0" encoding="UTF-8" standalone="no"?>
<svg
   width="24"
   height="24"
   viewBox="0 0 24 24"
   fill="none"
   stroke="currentColor"
   stroke-width="1.2"
   stroke-linecap="round"
   stroke-linejoin="round"
   version="1.1"
   id="svg9"
   sodipodi:docname=".tmp_sliders-vertical.svg"
   xmlns:inkscape="http://www.inkscape.org/namespaces/inkscape"
   xmlns:sodipodi="http://sodipodi.sourceforge.net/DTD/sodipodi-0.dtd"
   xmlns="http://www.w3.org/2000/svg"
   xmlns:svg="http://www.w3.org/2000/svg">
  <defs
     id="defs9" />
  <sodipodi:namedview
     id="namedview9"
     pagecolor="#ffffff"
     bordercolor="#000000"
     borderopacity="0.25"
     inkscape:showpageshadow="2"
     inkscape:pageopacity="0.0"
     inkscape:pagecheckerboard="0"
     inkscape:deskcolor="#d1d1d1" />
  <path
     id="path1"
     style="baseline-shift:baseline;display:inline;overflow:visible;vector-effect:none;fill:#000000;stroke:none;stroke-linecap:butt;stroke-linejoin:miter;enable-background:accumulate;stop-color:#000000;stop-opacity:1;opacity:1"
     d="M 5 2.4003906 A 0.60000002 0.60000002 0 0 0 4.4003906 3 L 4.4003906 10 A 0.60000002 0.60000002 0 0 0 5 10.599609 A 0.60000002 0.60000002 0 0 0 5.5996094 10 L 5.5996094 3 A 0.60000002 0.60000002 0 0 0 5 2.4003906 z M 12 2.4003906 A 0.60000002 0.60000002 0 0 0 11.400391 3 L 11.400391 7.4003906 L 10 7.4003906 A 0.60000002 0.60000002 0 0 0 9.4003906 8 A 0.60000002 0.60000002 0 0 0 10 8.5996094 L 14 8.5996094 A 0.60000002 0.60000002 0 0 0 14.599609 8 A 0.60000002 0.60000002 0 0 0 14 7.4003906 L 12.599609 7.4003906 L 12.599609 3 A 0.60000002 0.60000002 0 0 0 12 2.4003906 z M 19 2.4003906 A 0.60000002 0.60000002 0 0 0 18.400391 3 L 18.400391 12 A 0.60000002 0.60000002 0 0 0 19 12.599609 A 0.60000002 0.60000002 0 0 0 19.599609 12 L 19.599609 3 A 0.60000002 0.60000002 0 0 0 19 2.4003906 z M 12 11.400391 A 0.60000002 0.60000002 0 0 0 11.400391 12 L 11.400391 21 A 0.60000002 0.60000002 0 0 0 12 21.599609 A 0.60000002 0.60000002 0 0 0 12.599609 21 L 12.599609 12 A 0.60000002 0.60000002 0 0 0 12 11.400391 z M 3 13.400391 A 0.60000002 0.60000002 0 0 0 2.4003906 14 A 0.60000002 0.60000002 0 0 0 3 14.599609 L 4.4003906 14.599609 L 4.4003906 21 A 0.60000002 0.60000002 0 0 0 5 21.599609 A 0.60000002 0.60000002 0 0 0 5.5996094 21 L 5.5996094 14.599609 L 7 14.599609 A 0.60000002 0.60000002 0 0 0 7.5996094 14 A 0.60000002 0.60000002 0 0 0 7 13.400391 L 5 13.400391 L 3 13.400391 z M 17 15.400391 A 0.60000002 0.60000002 0 0 0 16.400391 16 A 0.60000002 0.60000002 0 0 0 17 16.599609 L 18.400391 16.599609 L 18.400391 21 A 0.60000002 0.60000002 0 0 0 19 21.599609 A 0.60000002 0.60000002 0 0 0 19.599609 21 L 19.599609 16.599609 L 21 16.599609 A 0.60000002 0.60000002 0 0 0 21.599609 16 A 0.60000002 0.60000002 0 0 0 21 15.400391 L 17 15.400391 z " />
</svg>
