<?xml version="1.0" encoding="UTF-8" standalone="no"?>
<svg
   width="24"
   height="24"
   viewBox="0 0 24 24"
   fill="none"
   stroke="currentColor"
   stroke-width="1.2"
   stroke-linecap="round"
   stroke-linejoin="round"
   version="1.1"
   id="svg6"
   sodipodi:docname=".tmp_soup.svg"
   xmlns:inkscape="http://www.inkscape.org/namespaces/inkscape"
   xmlns:sodipodi="http://sodipodi.sourceforge.net/DTD/sodipodi-0.dtd"
   xmlns="http://www.w3.org/2000/svg"
   xmlns:svg="http://www.w3.org/2000/svg">
  <defs
     id="defs6" />
  <sodipodi:namedview
     id="namedview6"
     pagecolor="#ffffff"
     bordercolor="#000000"
     borderopacity="0.25"
     inkscape:showpageshadow="2"
     inkscape:pageopacity="0.0"
     inkscape:pagecheckerboard="0"
     inkscape:deskcolor="#d1d1d1" />
  <path
     id="path1"
     style="baseline-shift:baseline;display:inline;overflow:visible;vector-effect:none;fill:#000000;stroke:none;stroke-linecap:butt;stroke-linejoin:miter;enable-background:accumulate;stop-color:#000000;stop-opacity:1;opacity:1"
     d="M 6.2285156 2.4003906 A 0.60000002 0.60000002 0 0 0 5.6875 2.7910156 A 0.60000002 0.60000002 0 0 0 6.0410156 3.5625 C 6.0332656 3.55963 6.1702288 3.633379 6.2578125 3.7558594 C 6.3451125 3.8779437 6.4167275 4.042159 6.4003906 4.3222656 C 6.383433 4.5334337 6.2620484 4.7089287 6.03125 5.0039062 C 5.7986402 5.3011991 5.4546112 5.7158487 5.4023438 6.328125 A 0.60006002 0.60006002 0 0 0 5.4003906 6.3417969 C 5.3366856 7.3355993 5.8920655 8.0231458 6.3261719 8.4355469 A 0.60000002 0.60000002 0 0 0 7.1757812 8.4140625 A 0.60000002 0.60000002 0 0 0 7.1523438 7.5644531 C 6.7882114 7.2185273 6.5679418 6.9841169 6.6015625 6.4238281 C 6.6214753 6.2190136 6.7442838 6.0410102 6.9765625 5.7441406 C 7.2114527 5.4439333 7.553082 5.0189548 7.5976562 4.4023438 A 0.60006002 0.60006002 0 0 0 7.5996094 4.3964844 C 7.6326383 3.8482583 7.4648382 3.3816603 7.2324219 3.0566406 C 7.0000056 2.7316209 6.7367394 2.5403722 6.4589844 2.4375 A 0.60000002 0.60000002 0 0 0 6.2285156 2.4003906 z M 11.228516 2.4003906 A 0.60000002 0.60000002 0 0 0 10.6875 2.7910156 A 0.60000002 0.60000002 0 0 0 11.041016 3.5625 C 11.033216 3.55963 11.168087 3.6329489 11.253906 3.7539062 C 11.339726 3.8748634 11.410928 4.0355544 11.390625 4.3164062 A 0.60006002 0.60006002 0 0 0 11.390625 4.3242188 C 11.378005 4.5336615 11.259346 4.7077495 11.027344 5.0058594 C 10.796309 5.3027272 10.452182 5.7241184 10.412109 6.3378906 C 10.337459 7.3317406 10.891021 8.0209182 11.310547 8.4296875 A 0.60000002 0.60000002 0 0 0 12.160156 8.4179688 A 0.60000002 0.60000002 0 0 0 12.148438 7.5703125 C 11.788586 7.2196892 11.564054 6.9895573 11.607422 6.4257812 A 0.60006002 0.60006002 0 0 0 11.609375 6.4160156 C 11.621695 6.2139862 11.739658 6.0415777 11.972656 5.7421875 C 12.204688 5.444039 12.548129 5.0187234 12.587891 4.4023438 L 12.587891 4.4003906 C 12.626936 3.8522087 12.463788 3.3846929 12.232422 3.0585938 C 12.000741 2.7320509 11.736739 2.5403722 11.458984 2.4375 A 0.60000002 0.60000002 0 0 0 11.228516 2.4003906 z M 16.228516 2.4003906 A 0.60000002 0.60000002 0 0 0 15.6875 2.7910156 A 0.60000002 0.60000002 0 0 0 16.041016 3.5625 C 16.033216 3.55963 16.17023 3.633379 16.257812 3.7558594 C 16.345112 3.8779437 16.416728 4.042159 16.400391 4.3222656 C 16.383431 4.5334337 16.262048 4.7089288 16.03125 5.0039062 C 15.79864 5.3011991 15.454611 5.7158487 15.402344 6.328125 A 0.60006002 0.60006002 0 0 0 15.400391 6.3417969 C 15.336681 7.3355993 15.8904 8.0203136 16.310547 8.4296875 A 0.60000002 0.60000002 0 0 0 17.160156 8.4179688 A 0.60000002 0.60000002 0 0 0 17.148438 7.5703125 C 16.790362 7.2213705 16.567951 6.9841513 16.601562 6.4238281 C 16.621472 6.2190136 16.744284 6.0410102 16.976562 5.7441406 C 17.211454 5.4439333 17.553082 5.0189548 17.597656 4.4023438 A 0.60006002 0.60006002 0 0 0 17.599609 4.3964844 C 17.632588 3.8482583 17.464838 3.3816603 17.232422 3.0566406 C 17.000006 2.7316209 16.736739 2.5403722 16.458984 2.4375 A 0.60000002 0.60000002 0 0 0 16.228516 2.4003906 z M 22 5.3984375 A 0.60000002 0.60000002 0 0 0 21.445312 5.7695312 L 19.099609 11.400391 L 3 11.400391 A 0.60006002 0.60006002 0 0 0 2.4003906 12 C 2.4003906 15.611174 4.4022995 18.761828 7.3554688 20.400391 L 7 20.400391 A 0.60000002 0.60000002 0 0 0 6.4003906 21 A 0.60000002 0.60000002 0 0 0 7 21.599609 L 17 21.599609 A 0.60000002 0.60000002 0 0 0 17.599609 21 A 0.60000002 0.60000002 0 0 0 17 20.400391 L 16.644531 20.400391 C 19.5977 18.761828 21.599609 15.611174 21.599609 12 A 0.60006002 0.60006002 0 0 0 21 11.400391 L 20.400391 11.400391 L 22.554688 6.2304688 A 0.60000002 0.60000002 0 0 0 22.230469 5.4453125 A 0.60000002 0.60000002 0 0 0 22 5.3984375 z M 3.7207031 12.599609 L 20.279297 12.599609 C 19.956958 16.949389 16.433516 20.400391 12 20.400391 C 7.5664836 20.400391 4.0430418 16.949389 3.7207031 12.599609 z " />
</svg>
