<?xml version="1.0" encoding="UTF-8" standalone="no"?>
<svg
   width="24"
   height="24"
   viewBox="0 0 24 24"
   fill="none"
   stroke="currentColor"
   stroke-width="1.2"
   stroke-linecap="round"
   stroke-linejoin="round"
   version="1.1"
   id="svg4"
   sodipodi:docname=".tmp_switch-camera.svg"
   xmlns:inkscape="http://www.inkscape.org/namespaces/inkscape"
   xmlns:sodipodi="http://sodipodi.sourceforge.net/DTD/sodipodi-0.dtd"
   xmlns="http://www.w3.org/2000/svg"
   xmlns:svg="http://www.w3.org/2000/svg">
  <defs
     id="defs4" />
  <sodipodi:namedview
     id="namedview4"
     pagecolor="#ffffff"
     bordercolor="#000000"
     borderopacity="0.25"
     inkscape:showpageshadow="2"
     inkscape:pageopacity="0.0"
     inkscape:pagecheckerboard="0"
     inkscape:deskcolor="#d1d1d1" />
  <path
     id="path1"
     style="baseline-shift:baseline;display:inline;overflow:visible;vector-effect:none;fill:#000000;stroke:none;stroke-linecap:butt;stroke-linejoin:miter;enable-background:accumulate;stop-color:#000000;stop-opacity:1;opacity:1"
     d="M 6 1.4003906 A 0.60000002 0.60000002 0 0 0 5.5761719 1.5761719 A 0.60000002 0.60000002 0 0 0 5.5761719 2.4238281 L 7.5527344 4.4003906 L 4 4.4003906 C 2.5711664 4.4003906 1.4003906 5.5711664 1.4003906 7 L 1.4003906 17 C 1.4003906 18.428834 2.5711664 19.599609 4 19.599609 L 11 19.599609 A 0.60000002 0.60000002 0 0 0 11.599609 19 A 0.60000002 0.60000002 0 0 0 11 18.400391 L 4 18.400391 C 3.2196946 18.400391 2.5996094 17.780305 2.5996094 17 L 2.5996094 7 C 2.5996094 6.2196946 3.2196946 5.5996094 4 5.5996094 L 7.5527344 5.5996094 L 5.5761719 7.5761719 A 0.60000002 0.60000002 0 0 0 5.5761719 8.4238281 A 0.60000002 0.60000002 0 0 0 6.4238281 8.4238281 L 9.4179688 5.4296875 A 0.60000002 0.60000002 0 0 0 9.4238281 5.4238281 A 0.60006002 0.60006002 0 0 0 9.4707031 5.3710938 A 0.60000002 0.60000002 0 0 0 9.4746094 5.3652344 A 0.60006002 0.60006002 0 0 0 9.515625 5.3046875 A 0.60000002 0.60000002 0 0 0 9.5195312 5.2988281 A 0.60006002 0.60006002 0 0 0 9.5273438 5.2851562 A 0.60000002 0.60000002 0 0 0 9.578125 5.1542969 A 0.60006002 0.60006002 0 0 0 9.59375 5.0800781 A 0.60000002 0.60000002 0 0 0 9.59375 5.078125 A 0.60006002 0.60006002 0 0 0 9.59375 4.9199219 A 0.60000002 0.60000002 0 0 0 9.578125 4.8457031 A 0.60000002 0.60000002 0 0 0 9.5273438 4.7148438 A 0.60000002 0.60000002 0 0 0 9.5195312 4.7011719 A 0.60006002 0.60006002 0 0 0 9.515625 4.6953125 A 0.60000002 0.60000002 0 0 0 9.4746094 4.6347656 A 0.60006002 0.60006002 0 0 0 9.4707031 4.6289062 A 0.60000002 0.60000002 0 0 0 9.4238281 4.5761719 L 9.4179688 4.5703125 L 6.4238281 1.5761719 A 0.60000002 0.60000002 0 0 0 6 1.4003906 z M 13 4.4003906 A 0.60000002 0.60000002 0 0 0 12.400391 5 A 0.60000002 0.60000002 0 0 0 13 5.5996094 L 20 5.5996094 C 20.780305 5.5996094 21.400391 6.2196946 21.400391 7 L 21.400391 17 C 21.400391 17.780305 20.780305 18.400391 20 18.400391 L 16.447266 18.400391 L 18.423828 16.423828 A 0.60000002 0.60000002 0 0 0 18.423828 15.576172 A 0.60000002 0.60000002 0 0 0 18 15.400391 A 0.60000002 0.60000002 0 0 0 17.576172 15.576172 L 14.576172 18.576172 A 0.60006002 0.60006002 0 0 0 14.560547 18.59375 A 0.60000002 0.60000002 0 0 0 14.484375 18.695312 A 0.60006002 0.60006002 0 0 0 14.472656 18.714844 A 0.60000002 0.60000002 0 0 0 14.40625 18.921875 A 0.60000002 0.60000002 0 0 0 14.400391 19 A 0.60000002 0.60000002 0 0 0 14.40625 19.080078 A 0.60000002 0.60000002 0 0 0 14.472656 19.285156 A 0.60006002 0.60006002 0 0 0 14.484375 19.304688 A 0.60000002 0.60000002 0 0 0 14.560547 19.40625 A 0.60006002 0.60006002 0 0 0 14.576172 19.423828 A 0.60000002 0.60000002 0 0 0 14.582031 19.429688 L 17.576172 22.423828 A 0.60000002 0.60000002 0 0 0 18.423828 22.423828 A 0.60000002 0.60000002 0 0 0 18.423828 21.576172 L 16.447266 19.599609 L 20 19.599609 C 21.428834 19.599609 22.599609 18.428834 22.599609 17 L 22.599609 7 C 22.599609 5.5711664 21.428834 4.4003906 20 4.4003906 L 13 4.4003906 z M 12 8.4003906 C 10.018882 8.4003906 8.4003906 10.018882 8.4003906 12 C 8.4003906 13.981118 10.018882 15.599609 12 15.599609 C 13.981118 15.599609 15.599609 13.981118 15.599609 12 C 15.599609 10.018882 13.981118 8.4003906 12 8.4003906 z M 12 9.5996094 C 13.33259 9.5996094 14.400391 10.66741 14.400391 12 C 14.400391 13.33259 13.33259 14.400391 12 14.400391 C 10.66741 14.400391 9.5996094 13.33259 9.5996094 12 C 9.5996094 10.66741 10.66741 9.5996094 12 9.5996094 z " />
</svg>
