<?xml version="1.0" encoding="UTF-8" standalone="no"?>
<svg
   width="24"
   height="24"
   viewBox="0 0 24 24"
   fill="none"
   stroke="currentColor"
   stroke-width="1.2"
   stroke-linecap="round"
   stroke-linejoin="round"
   version="1.1"
   id="svg2"
   sodipodi:docname=".tmp_tags.svg"
   xmlns:inkscape="http://www.inkscape.org/namespaces/inkscape"
   xmlns:sodipodi="http://sodipodi.sourceforge.net/DTD/sodipodi-0.dtd"
   xmlns="http://www.w3.org/2000/svg"
   xmlns:svg="http://www.w3.org/2000/svg">
  <defs
     id="defs2" />
  <sodipodi:namedview
     id="namedview2"
     pagecolor="#ffffff"
     bordercolor="#000000"
     borderopacity="0.25"
     inkscape:showpageshadow="2"
     inkscape:pageopacity="0.0"
     inkscape:pagecheckerboard="0"
     inkscape:deskcolor="#d1d1d1" />
  <path
     id="path1"
     style="baseline-shift:baseline;display:inline;overflow:visible;vector-effect:none;fill:#000000;stroke:none;stroke-linecap:butt;stroke-linejoin:miter;enable-background:accumulate;stop-color:#000000;stop-opacity:1;opacity:1"
     d="M 7 1.4003906 C 6.1234512 1.4003906 5.4003906 2.1234512 5.4003906 3 L 5.4003906 9.171875 C 5.4005378 9.8611511 5.674644 10.522447 6.1621094 11.009766 L 12.871094 17.720703 C 14.039678 18.896766 15.963109 18.896162 17.130859 17.71875 L 21.71875 13.130859 L 21.720703 13.128906 C 22.896115 11.960969 22.896115 10.039031 21.720703 8.8710938 L 21.71875 8.8691406 L 15.009766 2.1621094 C 14.522447 1.6747348 13.861151 1.4005378 13.171875 1.4003906 L 7 1.4003906 z M 7 2.5996094 L 13.171875 2.5996094 C 13.543378 2.5996887 13.899457 2.7470335 14.162109 3.0097656 L 20.871094 9.7207031 A 0.60006002 0.60006002 0 0 0 20.873047 9.7226562 C 21.588139 10.431909 21.588139 11.568091 20.873047 12.277344 A 0.60006002 0.60006002 0 0 0 20.871094 12.279297 L 16.279297 16.871094 A 0.60006002 0.60006002 0 0 0 16.277344 16.873047 C 15.568091 17.588139 14.431909 17.588139 13.722656 16.873047 A 0.60006002 0.60006002 0 0 0 13.720703 16.871094 L 7.0097656 10.162109 C 6.7470335 9.899457 6.5996887 9.5433782 6.5996094 9.171875 L 6.5996094 3 C 6.5996094 2.7719793 6.7719793 2.5996094 7 2.5996094 z M 10.5 5.4003906 C 9.8995935 5.4003906 9.4003906 5.8995935 9.4003906 6.5 C 9.4003906 7.1004065 9.8995935 7.5996094 10.5 7.5996094 C 11.100406 7.5996094 11.599609 7.1004065 11.599609 6.5 C 11.599609 5.8995935 11.100406 5.4003906 10.5 5.4003906 z M 2 6.4003906 A 0.60000002 0.60000002 0 0 0 1.4003906 7 L 1.4003906 13.171875 C 1.4005378 13.861151 1.674644 14.522447 2.1621094 15.009766 L 8.8710938 21.720703 C 9.9425289 22.798456 11.666495 22.901011 12.859375 21.958984 A 0.60000002 0.60000002 0 0 0 12.957031 21.117188 A 0.60000002 0.60000002 0 0 0 12.115234 21.017578 C 11.39289 21.588018 10.370983 21.526389 9.7226562 20.873047 A 0.60006002 0.60006002 0 0 0 9.7207031 20.871094 L 3.0097656 14.162109 C 2.7470335 13.899457 2.5996887 13.543378 2.5996094 13.171875 L 2.5996094 7 A 0.60000002 0.60000002 0 0 0 2 6.4003906 z " />
</svg>
