<?xml version="1.0" encoding="UTF-8" standalone="no"?>
<svg
   width="24"
   height="24"
   viewBox="0 0 24 24"
   fill="none"
   stroke="currentColor"
   stroke-width="1.2"
   stroke-linecap="round"
   stroke-linejoin="round"
   version="1.1"
   id="svg3"
   sodipodi:docname=".tmp_tally-3.svg"
   xmlns:inkscape="http://www.inkscape.org/namespaces/inkscape"
   xmlns:sodipodi="http://sodipodi.sourceforge.net/DTD/sodipodi-0.dtd"
   xmlns="http://www.w3.org/2000/svg"
   xmlns:svg="http://www.w3.org/2000/svg">
  <defs
     id="defs3" />
  <sodipodi:namedview
     id="namedview3"
     pagecolor="#ffffff"
     bordercolor="#000000"
     borderopacity="0.25"
     inkscape:showpageshadow="2"
     inkscape:pageopacity="0.0"
     inkscape:pagecheckerboard="0"
     inkscape:deskcolor="#d1d1d1" />
  <path
     id="path1"
     style="baseline-shift:baseline;display:inline;overflow:visible;vector-effect:none;fill:#000000;stroke:none;stroke-linecap:butt;stroke-linejoin:miter;enable-background:accumulate;stop-color:#000000;stop-opacity:1;opacity:1"
     d="M 4 3.4003906 A 0.60000002 0.60000002 0 0 0 3.4003906 4 L 3.4003906 20 A 0.60000002 0.60000002 0 0 0 4 20.599609 A 0.60000002 0.60000002 0 0 0 4.5996094 20 L 4.5996094 4 A 0.60000002 0.60000002 0 0 0 4 3.4003906 z M 9 3.4003906 A 0.60000002 0.60000002 0 0 0 8.4003906 4 L 8.4003906 20 A 0.60000002 0.60000002 0 0 0 9 20.599609 A 0.60000002 0.60000002 0 0 0 9.5996094 20 L 9.5996094 4 A 0.60000002 0.60000002 0 0 0 9 3.4003906 z M 14 3.4003906 A 0.60000002 0.60000002 0 0 0 13.400391 4 L 13.400391 20 A 0.60000002 0.60000002 0 0 0 14 20.599609 A 0.60000002 0.60000002 0 0 0 14.599609 20 L 14.599609 4 A 0.60000002 0.60000002 0 0 0 14 3.4003906 z " />
</svg>
