<?xml version="1.0" encoding="UTF-8" standalone="no"?>
<svg
   width="24"
   height="24"
   viewBox="0 0 24 24"
   fill="none"
   stroke="currentColor"
   stroke-width="1.2"
   stroke-linecap="round"
   stroke-linejoin="round"
   version="1.1"
   id="svg1"
   sodipodi:docname=".tmp_thermometer.svg"
   xmlns:inkscape="http://www.inkscape.org/namespaces/inkscape"
   xmlns:sodipodi="http://sodipodi.sourceforge.net/DTD/sodipodi-0.dtd"
   xmlns="http://www.w3.org/2000/svg"
   xmlns:svg="http://www.w3.org/2000/svg">
  <defs
     id="defs1" />
  <sodipodi:namedview
     id="namedview1"
     pagecolor="#ffffff"
     bordercolor="#000000"
     borderopacity="0.25"
     inkscape:showpageshadow="2"
     inkscape:pageopacity="0.0"
     inkscape:pagecheckerboard="0"
     inkscape:deskcolor="#d1d1d1" />
  <path
     id="path1"
     style="baseline-shift:baseline;display:inline;overflow:visible;vector-effect:none;fill:#000000;stroke:none;stroke-linecap:butt;stroke-linejoin:miter;enable-background:accumulate;stop-color:#000000;stop-opacity:1;opacity:1"
     d="M 12 1.4003906 C 11.366667 1.4003906 10.725271 1.6074844 10.226562 2.0507812 C 9.7278528 2.4940781 9.4003906 3.1833336 9.4003906 4 L 9.4003906 14.267578 C 7.6711629 15.464734 7.0929747 17.466202 7.5566406 19.195312 C 8.04979 21.034374 9.6895425 22.603516 12 22.603516 C 14.310458 22.603516 15.95021 21.034374 16.443359 19.195312 C 16.907025 17.466202 16.328837 15.464734 14.599609 14.267578 L 14.599609 4 C 14.599609 3.1833336 14.272146 2.4940781 13.773438 2.0507812 C 13.274727 1.6074844 12.633333 1.4003906 12 1.4003906 z M 12 2.5996094 C 12.366667 2.5996094 12.725271 2.7258492 12.976562 2.9492188 C 13.227852 3.1725883 13.400391 3.4833337 13.400391 4 L 13.400391 14.539062 A 0.60006002 0.60006002 0 0 0 13.699219 15.060547 C 15.242564 15.951598 15.653507 17.503821 15.283203 18.884766 C 14.912899 20.265711 13.78089 21.404297 12 21.404297 C 10.21911 21.404297 9.087101 20.265711 8.7167969 18.884766 C 8.3464928 17.503821 8.7574362 15.951598 10.300781 15.060547 A 0.60006002 0.60006002 0 0 0 10.599609 14.539062 L 10.599609 4 C 10.599609 3.4833337 10.772146 3.1725883 11.023438 2.9492188 C 11.274727 2.7258492 11.633333 2.5996094 12 2.5996094 z " />
</svg>
