<?xml version="1.0" encoding="UTF-8" standalone="no"?>
<svg
   width="24"
   height="24"
   viewBox="0 0 24 24"
   fill="none"
   stroke="currentColor"
   stroke-width="1.2"
   stroke-linecap="round"
   stroke-linejoin="round"
   version="1.1"
   id="svg2"
   sodipodi:docname=".tmp_thumbs-down.svg"
   xmlns:inkscape="http://www.inkscape.org/namespaces/inkscape"
   xmlns:sodipodi="http://sodipodi.sourceforge.net/DTD/sodipodi-0.dtd"
   xmlns="http://www.w3.org/2000/svg"
   xmlns:svg="http://www.w3.org/2000/svg">
  <defs
     id="defs2" />
  <sodipodi:namedview
     id="namedview2"
     pagecolor="#ffffff"
     bordercolor="#000000"
     borderopacity="0.25"
     inkscape:showpageshadow="2"
     inkscape:pageopacity="0.0"
     inkscape:pagecheckerboard="0"
     inkscape:deskcolor="#d1d1d1" />
  <path
     id="path1"
     style="baseline-shift:baseline;display:inline;overflow:visible;vector-effect:none;fill:#000000;stroke:none;stroke-linecap:butt;stroke-linejoin:miter;enable-background:accumulate;stop-color:#000000;stop-opacity:1;opacity:1"
     d="M 6.5 1.4003906 C 5.3471111 1.4003906 4.3267152 2.164711 4.0039062 3.2714844 L 1.6738281 11.271484 C 1.1929748 12.920124 2.4525885 14.599609 4.1699219 14.599609 L 9.2363281 14.599609 L 8.4160156 17.978516 L 8.4179688 17.976562 C 7.8452804 20.296167 9.6031152 22.570025 11.992188 22.599609 A 0.60006002 0.60006002 0 0 0 12.537109 22.269531 L 15.986328 15.378906 A 0.60006002 0.60006002 0 0 0 15.988281 15.376953 C 16.225261 14.900048 16.707695 14.599892 17.240234 14.599609 L 20 14.599609 C 21.428834 14.599609 22.599609 13.428834 22.599609 12 L 22.599609 4 C 22.599609 2.5711664 21.428834 1.4003906 20 1.4003906 L 17 1.4003906 L 6.5 1.4003906 z M 6.5 2.5996094 L 16.400391 2.5996094 L 16.400391 13.541016 C 15.76254 13.759517 15.221425 14.221276 14.912109 14.84375 L 11.669922 21.318359 C 10.219718 21.099321 9.2174894 19.740204 9.5820312 18.263672 A 0.60006002 0.60006002 0 0 0 9.5839844 18.261719 L 10.583984 14.140625 A 0.60006002 0.60006002 0 0 0 10 13.400391 L 4.1699219 13.400391 C 3.2205886 13.400391 2.5603585 12.518782 2.8261719 11.607422 L 5.15625 3.6074219 C 5.3312189 3.0075286 5.8751111 2.5996094 6.5 2.5996094 z M 17.599609 2.5996094 L 20 2.5996094 C 20.780305 2.5996094 21.400391 3.2196946 21.400391 4 L 21.400391 12 C 21.400391 12.780305 20.780305 13.400391 20 13.400391 L 17.599609 13.400391 L 17.599609 2.5996094 z " />
</svg>
