<?xml version="1.0" encoding="UTF-8" standalone="no"?>
<svg
   width="24"
   height="24"
   viewBox="0 0 24 24"
   fill="none"
   stroke="currentColor"
   stroke-width="1.2"
   stroke-linecap="round"
   stroke-linejoin="round"
   version="1.1"
   id="svg7"
   sodipodi:docname=".tmp_transgender.svg"
   xmlns:inkscape="http://www.inkscape.org/namespaces/inkscape"
   xmlns:sodipodi="http://sodipodi.sourceforge.net/DTD/sodipodi-0.dtd"
   xmlns="http://www.w3.org/2000/svg"
   xmlns:svg="http://www.w3.org/2000/svg">
  <defs
     id="defs7" />
  <sodipodi:namedview
     id="namedview7"
     pagecolor="#ffffff"
     bordercolor="#000000"
     borderopacity="0.25"
     inkscape:showpageshadow="2"
     inkscape:pageopacity="0.0"
     inkscape:pagecheckerboard="0"
     inkscape:deskcolor="#d1d1d1" />
  <path
     id="path1"
     style="baseline-shift:baseline;display:inline;overflow:visible;vector-effect:none;fill:#000000;stroke:none;stroke-linecap:butt;stroke-linejoin:miter;enable-background:accumulate;stop-color:#000000;stop-opacity:1;opacity:1"
     d="M 2 1.4003906 A 0.60000002 0.60000002 0 0 0 1.8457031 1.421875 A 0.60006002 0.60006002 0 0 0 1.7011719 1.4804688 A 0.60000002 0.60000002 0 0 0 1.5761719 1.5761719 A 0.60000002 0.60000002 0 0 0 1.4804688 1.7011719 A 0.60006002 0.60006002 0 0 0 1.421875 1.8457031 A 0.60000002 0.60000002 0 0 0 1.4003906 2 L 1.4003906 5.3554688 A 0.60000002 0.60000002 0 0 0 2 5.9550781 A 0.60000002 0.60000002 0 0 0 2.5996094 5.3554688 L 2.5996094 3.4472656 L 5.6523438 6.5 L 4.5761719 7.5761719 A 0.60000002 0.60000002 0 0 0 4.5761719 8.4238281 A 0.60000002 0.60000002 0 0 0 5.4238281 8.4238281 L 6.5 7.3476562 L 8.3535156 9.2011719 C 7.7560263 9.9773471 7.4003906 10.948568 7.4003906 12 C 7.4003906 14.330254 9.1485124 16.265206 11.400391 16.560547 L 11.400391 19.400391 L 10 19.400391 A 0.60000002 0.60000002 0 0 0 9.4003906 20 A 0.60000002 0.60000002 0 0 0 10 20.599609 L 11.400391 20.599609 L 11.400391 22 A 0.60000002 0.60000002 0 0 0 12 22.599609 A 0.60000002 0.60000002 0 0 0 12.599609 22 L 12.599609 20.599609 L 14 20.599609 A 0.60000002 0.60000002 0 0 0 14.599609 20 A 0.60000002 0.60000002 0 0 0 14 19.400391 L 12.599609 19.400391 L 12.599609 16.560547 C 14.851487 16.265206 16.599609 14.330254 16.599609 12 C 16.599609 10.948569 16.243974 9.9773471 15.646484 9.2011719 L 21.400391 3.4472656 L 21.400391 6 A 0.60000002 0.60000002 0 0 0 22 6.5996094 A 0.60000002 0.60000002 0 0 0 22.599609 6 L 22.599609 2 A 0.60006002 0.60006002 0 0 0 22 1.4003906 L 18 1.4003906 A 0.60000002 0.60000002 0 0 0 17.400391 2 A 0.60000002 0.60000002 0 0 0 18 2.5996094 L 20.552734 2.5996094 L 14.798828 8.3535156 C 14.022653 7.7560263 13.051432 7.4003906 12 7.4003906 C 10.948568 7.4003906 9.9773471 7.7560263 9.2011719 8.3535156 L 7.3476562 6.5 L 8.4238281 5.4238281 A 0.60000002 0.60000002 0 0 0 8.4238281 4.5761719 A 0.60000002 0.60000002 0 0 0 7.5761719 4.5761719 L 6.5 5.6523438 L 3.4472656 2.5996094 L 5.3574219 2.5996094 A 0.60000002 0.60000002 0 0 0 5.9570312 2 A 0.60000002 0.60000002 0 0 0 5.3574219 1.4003906 L 2 1.4003906 z M 12 8.5996094 C 12.930554 8.5996094 13.770228 8.9694618 14.382812 9.5703125 C 14.398458 9.5856585 14.414341 9.6015418 14.429688 9.6171875 C 15.030538 10.229772 15.400391 11.069446 15.400391 12 C 15.400391 13.884875 13.884875 15.400391 12 15.400391 C 10.115125 15.400391 8.5996094 13.884875 8.5996094 12 C 8.5996094 11.069445 8.9694609 10.229772 9.5703125 9.6171875 A 0.60000002 0.60000002 0 0 0 9.59375 9.59375 C 9.6014977 9.5860023 9.6093651 9.577985 9.6171875 9.5703125 C 10.229772 8.9694609 11.069445 8.5996094 12 8.5996094 z " />
</svg>
