<?xml version="1.0" encoding="UTF-8" standalone="no"?>
<svg
   width="24"
   height="24"
   viewBox="0 0 24 24"
   fill="none"
   stroke="currentColor"
   stroke-width="1.2"
   stroke-linecap="round"
   stroke-linejoin="round"
   version="1.1"
   id="svg2"
   sodipodi:docname=".tmp_tree-pine.svg"
   xmlns:inkscape="http://www.inkscape.org/namespaces/inkscape"
   xmlns:sodipodi="http://sodipodi.sourceforge.net/DTD/sodipodi-0.dtd"
   xmlns="http://www.w3.org/2000/svg"
   xmlns:svg="http://www.w3.org/2000/svg">
  <defs
     id="defs2" />
  <sodipodi:namedview
     id="namedview2"
     pagecolor="#ffffff"
     bordercolor="#000000"
     borderopacity="0.25"
     inkscape:showpageshadow="2"
     inkscape:pageopacity="0.0"
     inkscape:pagecheckerboard="0"
     inkscape:deskcolor="#d1d1d1" />
  <path
     id="path1"
     style="baseline-shift:baseline;display:inline;overflow:visible;vector-effect:none;fill:#000000;stroke:none;stroke-linecap:butt;stroke-linejoin:miter;enable-background:accumulate;stop-color:#000000;stop-opacity:1;opacity:1"
     d="M 12 2.4003906 A 0.60006002 0.60006002 0 0 0 11.560547 2.5917969 L 7.5742188 6.8769531 C 7.0701057 7.3854426 7.0000272 8.1294523 7.2617188 8.6855469 C 7.3884878 8.9549309 7.6051653 9.1874721 7.8691406 9.3535156 L 5.5722656 11.880859 C 5.0966938 12.365906 5.0098258 13.064041 5.234375 13.609375 C 5.3580901 13.909826 5.5954066 14.153007 5.8847656 14.333984 L 3.5722656 16.880859 C 3.0966938 17.365906 3.0098258 18.064041 3.234375 18.609375 C 3.4589242 19.154709 4.0121807 19.590068 4.6914062 19.599609 A 0.60006002 0.60006002 0 0 0 4.6992188 19.599609 L 11.400391 19.599609 L 11.400391 22 A 0.60000002 0.60000002 0 0 0 12 22.599609 A 0.60000002 0.60000002 0 0 0 12.599609 22 L 12.599609 19.599609 L 19.300781 19.599609 A 0.60006002 0.60006002 0 0 0 19.308594 19.599609 C 19.987819 19.590109 20.541076 19.154709 20.765625 18.609375 C 20.990174 18.064041 20.903306 17.365906 20.427734 16.880859 L 18.115234 14.333984 C 18.404593 14.153007 18.64191 13.909826 18.765625 13.609375 C 18.990174 13.064041 18.903306 12.365906 18.427734 11.880859 L 16.130859 9.3535156 C 16.394835 9.1874721 16.611512 8.9549309 16.738281 8.6855469 C 16.999973 8.1294523 16.929894 7.3854426 16.425781 6.8769531 L 12.439453 2.5917969 A 0.60006002 0.60006002 0 0 0 12 2.4003906 z M 12 3.8808594 L 15.560547 7.7089844 A 0.60006002 0.60006002 0 0 0 15.574219 7.7226562 C 15.726841 7.8766032 15.722573 8.0245802 15.652344 8.1738281 C 15.582114 8.3230761 15.469809 8.42182 15.253906 8.4023438 A 0.60006002 0.60006002 0 0 0 15.199219 8.4003906 L 15 8.4003906 A 0.60006002 0.60006002 0 0 0 14.556641 9.4042969 L 17.556641 12.703125 A 0.60006002 0.60006002 0 0 0 17.572266 12.720703 C 17.712376 12.863605 17.715792 13.007753 17.65625 13.152344 C 17.59671 13.296935 17.491126 13.39758 17.291016 13.400391 L 17 13.400391 A 0.60006002 0.60006002 0 0 0 16.556641 14.404297 L 19.556641 17.703125 A 0.60006002 0.60006002 0 0 0 19.572266 17.720703 C 19.712376 17.863605 19.715792 18.007753 19.65625 18.152344 C 19.59671 18.296935 19.491126 18.39758 19.291016 18.400391 L 12.001953 18.400391 L 11.998047 18.400391 L 4.7089844 18.400391 C 4.508874 18.397572 4.4032875 18.296935 4.34375 18.152344 C 4.2842125 18.007753 4.2876235 17.863605 4.4277344 17.720703 A 0.60006002 0.60006002 0 0 0 4.4433594 17.703125 L 7.4433594 14.404297 A 0.60006002 0.60006002 0 0 0 7 13.400391 L 6.7089844 13.400391 C 6.508874 13.39758 6.4032875 13.296935 6.34375 13.152344 C 6.2842125 13.007753 6.2876235 12.863605 6.4277344 12.720703 A 0.60006002 0.60006002 0 0 0 6.4433594 12.703125 L 9.4433594 9.4042969 A 0.60006002 0.60006002 0 0 0 9 8.4003906 L 8.8007812 8.4003906 A 0.60006002 0.60006002 0 0 0 8.7460938 8.4023438 C 8.5301908 8.4218231 8.4178905 8.3230761 8.3476562 8.1738281 C 8.2774218 8.0245802 8.2731592 7.8766032 8.4257812 7.7226562 A 0.60006002 0.60006002 0 0 0 8.4394531 7.7089844 L 12 3.8808594 z " />
</svg>
