<?xml version="1.0" encoding="UTF-8" standalone="no"?>
<svg
   width="24"
   height="24"
   viewBox="0 0 24 24"
   fill="none"
   stroke="currentColor"
   stroke-width="1.2"
   stroke-linecap="round"
   stroke-linejoin="round"
   version="1.1"
   id="svg3"
   sodipodi:docname=".tmp_triangle-alert.svg"
   xmlns:inkscape="http://www.inkscape.org/namespaces/inkscape"
   xmlns:sodipodi="http://sodipodi.sourceforge.net/DTD/sodipodi-0.dtd"
   xmlns="http://www.w3.org/2000/svg"
   xmlns:svg="http://www.w3.org/2000/svg">
  <defs
     id="defs3" />
  <sodipodi:namedview
     id="namedview3"
     pagecolor="#ffffff"
     bordercolor="#000000"
     borderopacity="0.25"
     inkscape:showpageshadow="2"
     inkscape:pageopacity="0.0"
     inkscape:pagecheckerboard="0"
     inkscape:deskcolor="#d1d1d1" />
  <path
     id="path1"
     style="baseline-shift:baseline;display:inline;overflow:visible;vector-effect:none;fill:#000000;stroke:none;stroke-linecap:butt;stroke-linejoin:miter;enable-background:accumulate;stop-color:#000000;stop-opacity:1;opacity:1"
     d="M 11.990234 2.40625 C 11.104537 2.40625 10.21912 2.8393962 9.7285156 3.7050781 L 1.7285156 17.703125 C 0.74147856 19.419368 2.0250005 21.617434 4.0058594 21.599609 L 20 21.599609 C 21.970139 21.597609 23.231976 19.40998 22.25 17.703125 L 22.25 17.701172 L 22.25 17.699219 A 0.60000002 0.60000002 0 0 0 22.246094 17.695312 L 14.251953 3.7050781 L 14.25 3.703125 C 13.759098 2.8391701 12.875048 2.40625 11.990234 2.40625 z M 11.990234 3.5664062 C 12.461469 3.5664062 12.9315 3.8087418 13.207031 4.2949219 A 0.60006002 0.60006002 0 0 0 13.208984 4.296875 L 21.208984 18.296875 A 0.60000002 0.60000002 0 0 0 21.210938 18.296875 A 0.60000002 0.60000002 0 0 0 21.210938 18.300781 C 21.763786 19.258512 21.105882 20.399257 20 20.400391 L 4 20.400391 A 0.60006002 0.60006002 0 0 0 3.9941406 20.400391 C 2.8813545 20.410401 2.2130706 19.264495 2.7695312 18.300781 A 0.60006002 0.60006002 0 0 0 2.7714844 18.296875 L 10.771484 4.296875 A 0.60006002 0.60006002 0 0 0 10.771484 4.2949219 C 11.047019 3.8087327 11.519 3.5664063 11.990234 3.5664062 z M 12 8.4003906 A 0.60000002 0.60000002 0 0 0 11.400391 9 L 11.400391 13 A 0.60000002 0.60000002 0 0 0 12 13.599609 A 0.60000002 0.60000002 0 0 0 12.599609 13 L 12.599609 9 A 0.60000002 0.60000002 0 0 0 12 8.4003906 z M 12 16.400391 A 0.60000002 0.60000002 0 0 0 11.400391 17 A 0.60000002 0.60000002 0 0 0 12 17.599609 L 12.009766 17.599609 A 0.60000002 0.60000002 0 0 0 12.609375 17 A 0.60000002 0.60000002 0 0 0 12.009766 16.400391 L 12 16.400391 z " />
</svg>
