<?xml version="1.0" encoding="UTF-8" standalone="no"?>
<svg
   width="24"
   height="24"
   viewBox="0 0 24 24"
   fill="none"
   stroke="currentColor"
   stroke-width="1.2"
   stroke-linecap="round"
   stroke-linejoin="round"
   version="1.1"
   id="svg3"
   sodipodi:docname=".tmp_vegan.svg"
   xmlns:inkscape="http://www.inkscape.org/namespaces/inkscape"
   xmlns:sodipodi="http://sodipodi.sourceforge.net/DTD/sodipodi-0.dtd"
   xmlns="http://www.w3.org/2000/svg"
   xmlns:svg="http://www.w3.org/2000/svg">
  <defs
     id="defs3" />
  <sodipodi:namedview
     id="namedview3"
     pagecolor="#ffffff"
     bordercolor="#000000"
     borderopacity="0.25"
     inkscape:showpageshadow="2"
     inkscape:pageopacity="0.0"
     inkscape:pagecheckerboard="0"
     inkscape:deskcolor="#d1d1d1" />
  <path
     id="path1"
     style="baseline-shift:baseline;display:inline;overflow:visible;vector-effect:none;fill:#000000;stroke:none;stroke-linecap:butt;stroke-linejoin:miter;enable-background:accumulate;stop-color:#000000;stop-opacity:1;opacity:1"
     d="M 2.0117188 1.4003906 A 0.60000002 0.60000002 0 0 0 1.9335938 1.4042969 A 0.60000002 0.60000002 0 0 0 1.53125 1.625 A 0.60000002 0.60000002 0 0 0 1.625 2.46875 C 2.5406463 3.1991925 3.3996854 3.9865614 4.1992188 4.8222656 C 4.0440829 4.9910354 3.893759 5.1649458 3.7480469 5.3457031 C 0.35265477 9.5577194 0.68368718 15.664156 4.5097656 19.490234 C 6.5374604 21.517929 9.2053503 22.563767 11.892578 22.59375 A 0.60006002 0.60006002 0 0 0 12.105469 22.59375 C 14.41813 22.573223 16.733624 21.800247 18.654297 20.251953 C 22.743173 16.955827 23.781041 11.16709 21.160156 6.6679688 C 22.13857 5.5370359 22.599609 3.9487498 22.599609 2 A 0.60006002 0.60006002 0 0 0 22 1.4003906 C 20.051251 1.4003906 18.462964 1.8614302 17.332031 2.8398438 C 15.150347 1.5689386 12.66529 1.158025 10.308594 1.5390625 C 8.3955519 1.8483685 6.5667166 2.6780349 5.0527344 3.9921875 C 4.2251511 3.1172107 3.3317329 2.2944687 2.375 1.53125 A 0.60000002 0.60000002 0 0 0 2.0117188 1.4003906 z M 12.392578 2.6054688 C 13.802764 2.6637065 15.211578 3.0389507 16.511719 3.7519531 C 15.780286 4.8095948 15.423803 6.1940515 15.402344 7.8417969 C 13.517391 11.27371 12.748744 14.210328 12.070312 18.201172 C 11.218958 13.268144 9.1056435 8.6492959 5.8574219 4.8828125 C 7.692431 3.2944957 10.042268 2.5084058 12.392578 2.6054688 z M 21.302734 2.6972656 C 21.189477 4.1832501 20.811454 5.3408899 20.076172 6.0761719 C 19.34089 6.8114538 18.18325 7.1894771 16.697266 7.3027344 C 16.810523 5.8167499 17.188546 4.6591101 17.923828 3.9238281 C 18.65911 3.1885462 19.81675 2.8105229 21.302734 2.6972656 z M 5.0136719 5.7128906 C 8.7946354 10.051333 11.055797 15.556927 11.373047 21.378906 C 9.1742231 21.230897 7.0252813 20.310438 5.3574219 18.642578 C 1.9574492 15.242605 1.6668555 9.8419021 4.6835938 6.0996094 C 4.7905711 5.9669029 4.9010094 5.8383342 5.0136719 5.7128906 z M 20.248047 7.4882812 C 22.421522 11.451556 21.468431 16.440136 17.900391 19.316406 C 16.359444 20.558595 14.537305 21.240512 12.689453 21.375 C 13.515589 15.241274 14.111938 12.702588 16.357422 8.59375 C 17.917424 8.5468161 19.233423 8.1899652 20.248047 7.4882812 z " />
</svg>
