<?xml version="1.0" encoding="UTF-8" standalone="no"?>
<svg
   width="24"
   height="24"
   viewBox="0 0 24 24"
   fill="none"
   stroke="currentColor"
   stroke-width="1.2"
   stroke-linecap="round"
   stroke-linejoin="round"
   version="1.1"
   id="svg4"
   sodipodi:docname=".tmp_vibrate-off.svg"
   xmlns:inkscape="http://www.inkscape.org/namespaces/inkscape"
   xmlns:sodipodi="http://sodipodi.sourceforge.net/DTD/sodipodi-0.dtd"
   xmlns="http://www.w3.org/2000/svg"
   xmlns:svg="http://www.w3.org/2000/svg">
  <defs
     id="defs4" />
  <sodipodi:namedview
     id="namedview4"
     pagecolor="#ffffff"
     bordercolor="#000000"
     borderopacity="0.25"
     inkscape:showpageshadow="2"
     inkscape:pageopacity="0.0"
     inkscape:pagecheckerboard="0"
     inkscape:deskcolor="#d1d1d1" />
  <path
     id="path1"
     style="baseline-shift:baseline;display:inline;overflow:visible;vector-effect:none;fill:#000000;stroke:none;stroke-linecap:butt;stroke-linejoin:miter;enable-background:accumulate;stop-color:#000000;stop-opacity:1;opacity:1"
     d="M 2 1.4003906 A 0.60000002 0.60000002 0 0 0 1.5761719 1.5761719 A 0.60000002 0.60000002 0 0 0 1.5761719 2.4238281 L 7.4003906 8.2480469 L 7.4003906 18 C 7.4003906 18.877273 8.1227273 19.599609 9 19.599609 L 15 19.599609 C 15.877273 19.599609 16.599609 18.877273 16.599609 18 L 16.599609 17.447266 L 21.576172 22.423828 A 0.60000002 0.60000002 0 0 0 22.423828 22.423828 A 0.60000002 0.60000002 0 0 0 22.423828 21.576172 L 16.429688 15.582031 A 0.60000002 0.60000002 0 0 0 16.417969 15.570312 L 8.4296875 7.5820312 A 0.60000002 0.60000002 0 0 0 8.4179688 7.5703125 L 2.4238281 1.5761719 A 0.60000002 0.60000002 0 0 0 2 1.4003906 z M 10.660156 4.4003906 A 0.60000002 0.60000002 0 0 0 10.060547 5 A 0.60000002 0.60000002 0 0 0 10.660156 5.5996094 L 15 5.5996094 C 15.222727 5.5996094 15.400391 5.7772727 15.400391 6 L 15.400391 10.339844 A 0.60000002 0.60000002 0 0 0 16 10.939453 A 0.60000002 0.60000002 0 0 0 16.599609 10.339844 L 16.599609 6 C 16.599609 5.1227273 15.877273 4.4003906 15 4.4003906 L 10.660156 4.4003906 z M 2 7.4003906 A 0.60000002 0.60000002 0 0 0 1.5761719 7.5761719 A 0.60000002 0.60000002 0 0 0 1.5761719 8.4238281 L 3.1523438 10 L 1.5761719 11.576172 A 0.60006002 0.60006002 0 0 0 1.5761719 12.423828 L 3.1523438 14 L 1.5761719 15.576172 A 0.60000002 0.60000002 0 0 0 1.5761719 16.423828 A 0.60000002 0.60000002 0 0 0 2.4238281 16.423828 L 4.4238281 14.423828 A 0.60006002 0.60006002 0 0 0 4.4238281 13.576172 L 2.8476562 12 L 4.4238281 10.423828 A 0.60006002 0.60006002 0 0 0 4.4238281 9.5761719 L 2.4238281 7.5761719 A 0.60000002 0.60000002 0 0 0 2 7.4003906 z M 22 7.4003906 A 0.60000002 0.60000002 0 0 0 21.576172 7.5761719 L 19.576172 9.5761719 A 0.60006002 0.60006002 0 0 0 19.576172 10.423828 L 21.152344 12 L 19.576172 13.576172 A 0.60006002 0.60006002 0 0 0 19.576172 14.423828 L 21.576172 16.423828 A 0.60000002 0.60000002 0 0 0 22.423828 16.423828 A 0.60000002 0.60000002 0 0 0 22.423828 15.576172 L 20.847656 14 L 22.423828 12.423828 A 0.60006002 0.60006002 0 0 0 22.423828 11.576172 L 20.847656 10 L 22.423828 8.4238281 A 0.60000002 0.60000002 0 0 0 22.423828 7.5761719 A 0.60000002 0.60000002 0 0 0 22 7.4003906 z M 8.5996094 9.4472656 L 15.400391 16.248047 L 15.400391 18 C 15.400391 18.222727 15.222727 18.400391 15 18.400391 L 9 18.400391 C 8.7772727 18.400391 8.5996094 18.222727 8.5996094 18 L 8.5996094 9.4472656 z " />
</svg>
