<?xml version="1.0" encoding="UTF-8" standalone="no"?>
<svg
   width="24"
   height="24"
   viewBox="0 0 24 24"
   fill="none"
   stroke="currentColor"
   stroke-width="1.2"
   stroke-linecap="round"
   stroke-linejoin="round"
   version="1.1"
   id="svg4"
   sodipodi:docname=".tmp_wifi-pen.svg"
   xmlns:inkscape="http://www.inkscape.org/namespaces/inkscape"
   xmlns:sodipodi="http://sodipodi.sourceforge.net/DTD/sodipodi-0.dtd"
   xmlns="http://www.w3.org/2000/svg"
   xmlns:svg="http://www.w3.org/2000/svg">
  <defs
     id="defs4" />
  <sodipodi:namedview
     id="namedview4"
     pagecolor="#ffffff"
     bordercolor="#000000"
     borderopacity="0.25"
     inkscape:showpageshadow="2"
     inkscape:pageopacity="0.0"
     inkscape:pagecheckerboard="0"
     inkscape:deskcolor="#d1d1d1" />
  <path
     id="path1"
     style="baseline-shift:baseline;display:inline;overflow:visible;vector-effect:none;fill:#000000;stroke:none;stroke-linecap:butt;stroke-linejoin:miter;enable-background:accumulate;stop-color:#000000;stop-opacity:1;opacity:1"
     d="M 12 4.4023438 C 8.2795204 4.4023438 4.5586501 5.7264004 1.5996094 8.3730469 A 0.60000002 0.60000002 0 0 0 1.5527344 9.2207031 A 0.60000002 0.60000002 0 0 0 2.4003906 9.2675781 C 7.8703354 4.3751108 16.129665 4.3751108 21.599609 9.2675781 A 0.60000002 0.60000002 0 0 0 22.447266 9.2207031 A 0.60000002 0.60000002 0 0 0 22.400391 8.3730469 C 19.441345 5.7264004 15.72048 4.4023437 12 4.4023438 z M 11.642578 9.4101562 C 9.0409403 9.4978576 6.5079668 10.541568 4.5800781 12.429688 A 0.60000002 0.60000002 0 0 0 4.5722656 13.279297 A 0.60000002 0.60000002 0 0 0 5.4199219 13.287109 C 8.0269945 10.733827 11.87115 9.920926 15.289062 11.199219 A 0.60000002 0.60000002 0 0 0 16.0625 10.847656 A 0.60000002 0.60000002 0 0 0 15.710938 10.074219 C 14.748084 9.7141133 13.754228 9.5031251 12.759766 9.4316406 C 12.386842 9.4048339 12.014241 9.3976275 11.642578 9.4101562 z M 19.742188 12.365234 C 19.122755 12.397029 18.480109 12.666374 17.949219 13.197266 L 13.939453 17.208984 C 13.630392 17.517875 13.40373 17.900872 13.28125 18.320312 L 12.445312 21.189453 C 12.21109 21.992499 13.005548 22.788909 13.808594 22.554688 L 16.679688 21.716797 C 17.09913 21.594317 17.480172 21.367655 17.789062 21.058594 L 21.802734 17.050781 C 22.409467 16.444049 22.675777 15.69133 22.634766 14.994141 C 22.593756 14.296951 22.272515 13.667046 21.802734 13.197266 C 21.332954 12.727485 20.703049 12.406246 20.005859 12.365234 C 19.918711 12.360108 19.830678 12.360692 19.742188 12.365234 z M 19.796875 13.5625 C 19.843007 13.560803 19.889706 13.561757 19.935547 13.564453 C 20.302273 13.586023 20.671906 13.765656 20.953125 14.046875 C 21.234344 14.328094 21.413975 14.697727 21.435547 15.064453 C 21.457117 15.43118 21.347727 15.806571 20.953125 16.201172 L 16.941406 20.210938 C 16.775054 20.377382 16.569639 20.498492 16.34375 20.564453 L 13.648438 21.351562 L 14.433594 18.65625 C 14.499554 18.430361 14.622618 18.224946 14.789062 18.058594 L 18.798828 14.046875 C 19.144103 13.7016 19.473949 13.574382 19.796875 13.5625 z M 11.517578 14.423828 A 0.60000002 0.60000002 0 0 0 11.439453 14.425781 C 10.173146 14.553569 8.9884908 15.108569 8.0800781 16 A 0.60000002 0.60000002 0 0 0 8.0722656 16.849609 A 0.60000002 0.60000002 0 0 0 8.9199219 16.857422 C 9.6338133 16.156876 10.565398 15.719565 11.560547 15.619141 A 0.60000002 0.60000002 0 0 0 12.097656 14.962891 A 0.60000002 0.60000002 0 0 0 11.517578 14.423828 z " />
</svg>
