<?xml version="1.0" encoding="UTF-8" standalone="no"?>
<svg
   width="24"
   height="24"
   viewBox="0 0 24 24"
   fill="none"
   stroke="currentColor"
   stroke-width="1.2"
   stroke-linecap="round"
   stroke-linejoin="round"
   version="1.1"
   id="svg4"
   sodipodi:docname=".tmp_wine-off.svg"
   xmlns:inkscape="http://www.inkscape.org/namespaces/inkscape"
   xmlns:sodipodi="http://sodipodi.sourceforge.net/DTD/sodipodi-0.dtd"
   xmlns="http://www.w3.org/2000/svg"
   xmlns:svg="http://www.w3.org/2000/svg">
  <defs
     id="defs4" />
  <sodipodi:namedview
     id="namedview4"
     pagecolor="#ffffff"
     bordercolor="#000000"
     borderopacity="0.25"
     inkscape:showpageshadow="2"
     inkscape:pageopacity="0.0"
     inkscape:pagecheckerboard="0"
     inkscape:deskcolor="#d1d1d1" />
  <path
     id="path1"
     style="baseline-shift:baseline;display:inline;overflow:visible;vector-effect:none;fill:#000000;stroke:none;stroke-linecap:butt;stroke-linejoin:miter;enable-background:accumulate;stop-color:#000000;stop-opacity:1;opacity:1"
     d="M 2 1.4003906 A 0.60000002 0.60000002 0 0 0 1.5761719 1.5761719 A 0.60000002 0.60000002 0 0 0 1.5761719 2.4238281 L 6.6523438 7.5 C 6.4875122 8.3221076 6.4032214 9.1590976 6.4003906 9.9980469 A 0.60000002 0.60000002 0 0 0 6.4003906 10 C 6.4005441 13.00976 8.7233105 15.253771 11.400391 15.5625 L 11.400391 21.400391 L 8 21.400391 A 0.60000002 0.60000002 0 0 0 7.4003906 22 A 0.60000002 0.60000002 0 0 0 8 22.599609 L 16 22.599609 A 0.60000002 0.60000002 0 0 0 16.599609 22 A 0.60000002 0.60000002 0 0 0 16 21.400391 L 12.599609 21.400391 L 12.599609 15.568359 C 13.159774 15.509757 13.722764 15.364085 14.271484 15.119141 L 21.576172 22.423828 A 0.60000002 0.60000002 0 0 0 22.423828 22.423828 A 0.60000002 0.60000002 0 0 0 22.423828 21.576172 L 14.839844 13.992188 A 0.60000002 0.60000002 0 0 0 14.787109 13.939453 L 10.429688 9.5820312 A 0.60000002 0.60000002 0 0 0 10.417969 9.5703125 L 7.7402344 6.8925781 A 0.60000002 0.60000002 0 0 0 7.7226562 6.875 L 2.4238281 1.5761719 A 0.60000002 0.60000002 0 0 0 2 1.4003906 z M 9 1.4003906 A 0.60006002 0.60006002 0 0 0 8.4375 1.7890625 C 8.3089618 2.130492 8.1860338 2.4613554 8.0722656 2.7792969 A 0.60000002 0.60000002 0 0 0 8.4355469 3.546875 A 0.60000002 0.60000002 0 0 0 9.203125 3.1835938 C 9.2692743 2.9987301 9.3450206 2.79598 9.4179688 2.5996094 L 14.566406 2.5996094 C 15.769291 5.854926 16.284946 7.7397369 16.382812 9.4003906 L 15.65625 9.4003906 A 0.60000002 0.60000002 0 0 0 15.056641 10 A 0.60000002 0.60000002 0 0 0 15.65625 10.599609 L 16.359375 10.599609 C 16.338082 10.752863 16.308114 10.904695 16.271484 11.054688 A 0.60000002 0.60000002 0 0 0 16.712891 11.78125 A 0.60000002 0.60000002 0 0 0 17.4375 11.339844 C 17.543591 10.90543 17.599609 10.45614 17.599609 10 A 0.60000002 0.60000002 0 0 0 17.59375 9.921875 C 17.580937 7.8474152 17.051821 5.7605842 15.5625 1.7890625 A 0.60006002 0.60006002 0 0 0 15 1.4003906 L 9 1.4003906 z M 7.6953125 8.5429688 L 8.5527344 9.4003906 L 7.6171875 9.4003906 C 7.6329716 9.113931 7.6585607 8.8274191 7.6953125 8.5429688 z M 7.6386719 10.599609 L 9.7519531 10.599609 L 13.345703 14.193359 C 12.93711 14.328334 12.524444 14.399026 12.117188 14.412109 A 0.60000002 0.60000002 0 0 0 12 14.400391 A 0.60000002 0.60000002 0 0 0 11.878906 14.412109 C 9.8009106 14.364317 7.9274766 12.82083 7.6386719 10.599609 z " />
</svg>
