<?xml version="1.0" encoding="UTF-8" standalone="no"?>
<svg
   width="24"
   height="24"
   viewBox="0 0 24 24"
   fill="none"
   stroke="currentColor"
   stroke-width="1.2"
   stroke-linecap="round"
   stroke-linejoin="round"
   version="1.1"
   id="svg1"
   sodipodi:docname=".tmp_zap.svg"
   xmlns:inkscape="http://www.inkscape.org/namespaces/inkscape"
   xmlns:sodipodi="http://sodipodi.sourceforge.net/DTD/sodipodi-0.dtd"
   xmlns="http://www.w3.org/2000/svg"
   xmlns:svg="http://www.w3.org/2000/svg">
  <defs
     id="defs1" />
  <sodipodi:namedview
     id="namedview1"
     pagecolor="#ffffff"
     bordercolor="#000000"
     borderopacity="0.25"
     inkscape:showpageshadow="2"
     inkscape:pageopacity="0.0"
     inkscape:pagecheckerboard="0"
     inkscape:deskcolor="#d1d1d1" />
  <path
     id="path1"
     style="baseline-shift:baseline;display:inline;overflow:visible;vector-effect:none;fill:#000000;stroke:none;stroke-linecap:butt;stroke-linejoin:miter;enable-background:accumulate;stop-color:#000000;stop-opacity:1;opacity:1"
     d="M 13.505859 1.40625 C 13.445001 1.4064011 13.383075 1.4102765 13.322266 1.4199219 C 13.079027 1.4585039 12.841932 1.5742885 12.666016 1.7773438 L 2.7890625 11.951172 A 0.60006002 0.60006002 0 0 0 2.7539062 11.992188 C 1.9303277 13.007385 2.6933159 14.602409 4 14.599609 L 4.0019531 14.599609 L 11 14.599609 A 0.60006002 0.60006002 0 0 0 11.001953 14.599609 C 11.301086 14.598637 11.483605 14.860412 11.378906 15.140625 A 0.60006002 0.60006002 0 0 0 11.369141 15.167969 L 9.4492188 21.1875 A 0.60006002 0.60006002 0 0 0 9.4414062 21.210938 C 9.2989051 21.729017 9.5797518 22.257275 9.9824219 22.472656 C 10.385092 22.688038 10.982152 22.628767 11.333984 22.222656 L 21.210938 12.048828 A 0.60006002 0.60006002 0 0 0 21.246094 12.007812 C 22.069666 10.992603 21.306684 9.3975908 20 9.4003906 L 13 9.4003906 A 0.60006002 0.60006002 0 0 0 12.998047 9.4003906 C 12.698961 9.4013635 12.516395 9.1395883 12.621094 8.859375 A 0.60006002 0.60006002 0 0 0 12.630859 8.8320312 L 14.550781 2.8125 A 0.60006002 0.60006002 0 0 0 14.558594 2.7890625 C 14.701108 2.2709832 14.420248 1.7427254 14.017578 1.5273438 C 13.866577 1.4465756 13.688433 1.4057968 13.505859 1.40625 z M 13.271484 2.875 L 11.498047 8.4394531 C 11.113606 9.4683636 11.901981 10.601855 13 10.599609 L 20 10.599609 A 0.60006002 0.60006002 0 0 0 20.001953 10.599609 C 20.37892 10.598309 20.548403 10.954741 20.314453 11.248047 L 10.728516 21.125 L 12.501953 15.560547 C 12.886394 14.531636 12.098019 13.398145 11 13.400391 L 4 13.400391 A 0.60006002 0.60006002 0 0 0 3.9980469 13.400391 C 3.6210803 13.401691 3.4515973 13.045259 3.6855469 12.751953 L 13.271484 2.875 z " />
</svg>
