<?xml version="1.0" encoding="UTF-8" standalone="no"?>
<svg
   width="24"
   height="24"
   viewBox="0 0 24 24"
   fill="none"
   stroke="currentColor"
   stroke-width="0.8"
   stroke-linecap="round"
   stroke-linejoin="round"
   version="1.1"
   id="svg2"
   sodipodi:docname=".tmp_align-horizontal-justify-start.svg"
   xmlns:inkscape="http://www.inkscape.org/namespaces/inkscape"
   xmlns:sodipodi="http://sodipodi.sourceforge.net/DTD/sodipodi-0.dtd"
   xmlns="http://www.w3.org/2000/svg"
   xmlns:svg="http://www.w3.org/2000/svg">
  <defs
     id="defs2" />
  <sodipodi:namedview
     id="namedview2"
     pagecolor="#ffffff"
     bordercolor="#000000"
     borderopacity="0.25"
     inkscape:showpageshadow="2"
     inkscape:pageopacity="0.0"
     inkscape:pagecheckerboard="0"
     inkscape:deskcolor="#d1d1d1" />
  <path
     id="rect1"
     style="baseline-shift:baseline;display:inline;overflow:visible;vector-effect:none;fill:#000000;stroke:none;stroke-linecap:butt;stroke-linejoin:miter;enable-background:accumulate;stop-color:#000000;stop-opacity:1;opacity:1"
     d="M 2 1.5996094 A 0.40000001 0.40000001 0 0 0 1.5996094 2 L 1.5996094 22 A 0.40000001 0.40000001 0 0 0 2 22.400391 A 0.40000001 0.40000001 0 0 0 2.4003906 22 L 2.4003906 2 A 0.40000001 0.40000001 0 0 0 2 1.5996094 z M 8 4.5996094 C 6.6773189 4.5996094 5.5996094 5.6773189 5.5996094 7 L 5.5996094 17 C 5.5996094 18.322681 6.6773189 19.400391 8 19.400391 L 10 19.400391 C 11.322681 19.400391 12.400391 18.322681 12.400391 17 L 12.400391 7 C 12.400391 5.6773189 11.322681 4.5996094 10 4.5996094 L 8 4.5996094 z M 8 5.4003906 L 10 5.4003906 C 10.893319 5.4003906 11.599609 6.1066811 11.599609 7 L 11.599609 17 C 11.599609 17.893319 10.893319 18.599609 10 18.599609 L 8 18.599609 C 7.1066811 18.599609 6.4003906 17.893319 6.4003906 17 L 6.4003906 7 C 6.4003906 6.1066811 7.1066811 5.4003906 8 5.4003906 z M 18 6.5996094 C 16.677319 6.5996094 15.599609 7.6773189 15.599609 9 L 15.599609 15 C 15.599609 16.322681 16.677319 17.400391 18 17.400391 L 20 17.400391 C 21.322681 17.400391 22.400391 16.322681 22.400391 15 L 22.400391 9 C 22.400391 7.6773189 21.322681 6.5996094 20 6.5996094 L 18 6.5996094 z M 18 7.4003906 L 20 7.4003906 C 20.893319 7.4003906 21.599609 8.1066811 21.599609 9 L 21.599609 15 C 21.599609 15.893319 20.893319 16.599609 20 16.599609 L 18 16.599609 C 17.106681 16.599609 16.400391 15.893319 16.400391 15 L 16.400391 9 C 16.400391 8.1066811 17.106681 7.4003906 18 7.4003906 z " />
</svg>
