<?xml version="1.0" encoding="UTF-8" standalone="no"?>
<svg
   width="24"
   height="24"
   viewBox="0 0 24 24"
   fill="none"
   stroke="currentColor"
   stroke-width="0.8"
   stroke-linecap="round"
   stroke-linejoin="round"
   version="1.1"
   id="svg2"
   sodipodi:docname=".tmp_arrow-down.svg"
   xmlns:inkscape="http://www.inkscape.org/namespaces/inkscape"
   xmlns:sodipodi="http://sodipodi.sourceforge.net/DTD/sodipodi-0.dtd"
   xmlns="http://www.w3.org/2000/svg"
   xmlns:svg="http://www.w3.org/2000/svg">
  <defs
     id="defs2" />
  <sodipodi:namedview
     id="namedview2"
     pagecolor="#ffffff"
     bordercolor="#000000"
     borderopacity="0.25"
     inkscape:showpageshadow="2"
     inkscape:pageopacity="0.0"
     inkscape:pagecheckerboard="0"
     inkscape:deskcolor="#d1d1d1" />
  <path
     id="path1"
     style="baseline-shift:baseline;display:inline;overflow:visible;vector-effect:none;fill:#000000;stroke:none;stroke-linecap:butt;stroke-linejoin:miter;enable-background:accumulate;stop-color:#000000;stop-opacity:1;opacity:1"
     d="M 12 4.5996094 A 0.40000001 0.40000001 0 0 0 11.599609 5 L 11.599609 18.033203 L 5.2832031 11.716797 A 0.40000001 0.40000001 0 0 0 4.7167969 11.716797 A 0.40000001 0.40000001 0 0 0 4.7167969 12.283203 L 11.712891 19.279297 L 11.716797 19.283203 A 0.40000001 0.40000001 0 0 0 11.751953 19.314453 A 0.40004001 0.40004001 0 0 0 11.755859 19.318359 A 0.40000001 0.40000001 0 0 0 11.796875 19.345703 A 0.40004001 0.40004001 0 0 0 11.798828 19.347656 A 0.40000001 0.40000001 0 0 0 11.84375 19.369141 A 0.40004001 0.40004001 0 0 0 11.871094 19.378906 A 0.40000001 0.40000001 0 0 0 11.894531 19.386719 A 0.40004001 0.40004001 0 0 0 11.896484 19.386719 A 0.40000001 0.40000001 0 0 0 12 19.400391 A 0.40000001 0.40000001 0 0 0 12.052734 19.396484 A 0.40004001 0.40004001 0 0 0 12.128906 19.378906 A 0.40000001 0.40000001 0 0 0 12.287109 19.279297 L 19.283203 12.283203 A 0.40000001 0.40000001 0 0 0 19.283203 11.716797 A 0.40000001 0.40000001 0 0 0 18.716797 11.716797 L 12.400391 18.033203 L 12.400391 5 A 0.40000001 0.40000001 0 0 0 12 4.5996094 z " />
</svg>
