<?xml version="1.0" encoding="UTF-8" standalone="no"?>
<svg
   width="24"
   height="24"
   viewBox="0 0 24 24"
   fill="none"
   stroke="currentColor"
   stroke-width="0.8"
   stroke-linecap="round"
   stroke-linejoin="round"
   version="1.1"
   id="svg5"
   sodipodi:docname=".tmp_bath.svg"
   xmlns:inkscape="http://www.inkscape.org/namespaces/inkscape"
   xmlns:sodipodi="http://sodipodi.sourceforge.net/DTD/sodipodi-0.dtd"
   xmlns="http://www.w3.org/2000/svg"
   xmlns:svg="http://www.w3.org/2000/svg">
  <defs
     id="defs5" />
  <sodipodi:namedview
     id="namedview5"
     pagecolor="#ffffff"
     bordercolor="#000000"
     borderopacity="0.25"
     inkscape:showpageshadow="2"
     inkscape:pageopacity="0.0"
     inkscape:pagecheckerboard="0"
     inkscape:deskcolor="#d1d1d1" />
  <path
     id="path1"
     style="baseline-shift:baseline;display:inline;overflow:visible;vector-effect:none;fill:#000000;stroke:none;stroke-linecap:butt;stroke-linejoin:miter;enable-background:accumulate;stop-color:#000000;stop-opacity:1;opacity:1"
     d="M 6.25 2.5976562 C 5.8970928 2.5804576 5.5448115 2.6382872 5.2207031 2.7617188 C 4.3564141 3.0908693 3.661057 3.9043304 3.6015625 4.9785156 A 0.40004001 0.40004001 0 0 0 3.5996094 5 L 3.5996094 11.599609 L 2 11.599609 A 0.40000001 0.40000001 0 0 0 1.5996094 12 A 0.40000001 0.40000001 0 0 0 2 12.400391 L 3.5996094 12.400391 L 3.5996094 17 C 3.5996094 18.320746 4.6792545 19.400391 6 19.400391 L 6.5996094 19.400391 L 6.5996094 21 A 0.40000001 0.40000001 0 0 0 7 21.400391 A 0.40000001 0.40000001 0 0 0 7.4003906 21 L 7.4003906 19.400391 L 16.599609 19.400391 L 16.599609 21 A 0.40000001 0.40000001 0 0 0 17 21.400391 A 0.40000001 0.40000001 0 0 0 17.400391 21 L 17.400391 19.400391 L 18 19.400391 C 19.320746 19.400391 20.400391 18.320746 20.400391 17 L 20.400391 12.400391 L 22 12.400391 A 0.40000001 0.40000001 0 0 0 22.400391 12 A 0.40000001 0.40000001 0 0 0 22 11.599609 L 20 11.599609 L 4.4003906 11.599609 L 4.4003906 5.015625 C 4.4448651 4.2604627 4.9106303 3.7364491 5.5058594 3.5097656 C 6.1029031 3.2823911 6.8017094 3.3636712 7.3378906 3.9023438 A 0.40004001 0.40004001 0 0 0 7.3378906 3.9042969 L 8.4335938 5 L 7.7167969 5.7167969 A 0.40000001 0.40000001 0 0 0 7.7167969 6.2832031 A 0.40000001 0.40000001 0 0 0 8.2832031 6.2832031 L 9.2832031 5.2832031 L 10.283203 4.2832031 A 0.40000001 0.40000001 0 0 0 10.283203 3.7167969 A 0.40000001 0.40000001 0 0 0 9.7167969 3.7167969 L 9 4.4335938 L 7.9042969 3.3378906 C 7.5248156 2.9566461 7.069647 2.7308219 6.6015625 2.640625 C 6.4845414 2.6180758 6.3676357 2.6033891 6.25 2.5976562 z M 4.4003906 12.400391 L 19.599609 12.400391 L 19.599609 17 C 19.599609 17.888393 18.888393 18.599609 18 18.599609 L 17 18.599609 L 7 18.599609 L 6 18.599609 C 5.1116065 18.599609 4.4003906 17.888393 4.4003906 17 L 4.4003906 12.400391 z " />
</svg>
