<?xml version="1.0" encoding="UTF-8" standalone="no"?>
<svg
   width="24"
   height="24"
   viewBox="0 0 24 24"
   fill="none"
   stroke="currentColor"
   stroke-width="0.8"
   stroke-linecap="round"
   stroke-linejoin="round"
   version="1.1"
   id="svg1"
   sodipodi:docname=".tmp_bold.svg"
   xmlns:inkscape="http://www.inkscape.org/namespaces/inkscape"
   xmlns:sodipodi="http://sodipodi.sourceforge.net/DTD/sodipodi-0.dtd"
   xmlns="http://www.w3.org/2000/svg"
   xmlns:svg="http://www.w3.org/2000/svg">
  <defs
     id="defs1" />
  <sodipodi:namedview
     id="namedview1"
     pagecolor="#ffffff"
     bordercolor="#000000"
     borderopacity="0.25"
     inkscape:showpageshadow="2"
     inkscape:pageopacity="0.0"
     inkscape:pagecheckerboard="0"
     inkscape:deskcolor="#d1d1d1" />
  <path
     id="path1"
     style="baseline-shift:baseline;display:inline;overflow:visible;vector-effect:none;fill:#000000;stroke:none;stroke-linecap:butt;stroke-linejoin:miter;enable-background:accumulate;stop-color:#000000;stop-opacity:1;opacity:1"
     d="M 7 3.5996094 C 6.2315392 3.5996094 5.5996094 4.2315392 5.5996094 5 L 5.5996094 12 L 5.5996094 19 C 5.5996094 19.768461 6.2315392 20.400391 7 20.400391 L 15 20.400391 C 16.433333 20.400391 17.558853 19.848098 18.298828 19.015625 C 19.038804 18.183152 19.400391 17.088889 19.400391 16 C 19.400391 14.911111 19.038804 13.816848 18.298828 12.984375 C 17.785065 12.406392 17.027457 12.048671 16.167969 11.832031 C 16.59163 11.604488 16.997672 11.354426 17.298828 11.015625 C 18.038804 10.183152 18.400391 9.0888889 18.400391 8 C 18.400391 6.9111111 18.038804 5.8168478 17.298828 4.984375 C 16.558853 4.1519022 15.433333 3.5996094 14 3.5996094 L 7 3.5996094 z M 7 4.4003906 L 14 4.4003906 C 15.233333 4.4003906 16.107815 4.8480978 16.701172 5.515625 C 17.294529 6.1831522 17.599609 7.0888889 17.599609 8 C 17.599609 8.9111111 17.294529 9.8168478 16.701172 10.484375 C 16.107815 11.151902 15.233333 11.599609 14 11.599609 L 6.4003906 11.599609 L 6.4003906 5 C 6.4003906 4.6638913 6.6638913 4.4003906 7 4.4003906 z M 6.4003906 12.400391 L 14 12.400391 L 15 12.400391 C 16.233333 12.400391 17.107815 12.848098 17.701172 13.515625 C 18.294529 14.183152 18.599609 15.088889 18.599609 16 C 18.599609 16.911111 18.294529 17.816848 17.701172 18.484375 C 17.107815 19.151902 16.233333 19.599609 15 19.599609 L 7 19.599609 C 6.6638913 19.599609 6.4003906 19.336109 6.4003906 19 L 6.4003906 12.400391 z " />
</svg>
