<?xml version="1.0" encoding="UTF-8" standalone="no"?>
<svg
   width="24"
   height="24"
   viewBox="0 0 24 24"
   fill="none"
   stroke="currentColor"
   stroke-width="0.8"
   stroke-linecap="round"
   stroke-linejoin="round"
   version="1.1"
   id="svg6"
   sodipodi:docname=".tmp_bot-message-square.svg"
   xmlns:inkscape="http://www.inkscape.org/namespaces/inkscape"
   xmlns:sodipodi="http://sodipodi.sourceforge.net/DTD/sodipodi-0.dtd"
   xmlns="http://www.w3.org/2000/svg"
   xmlns:svg="http://www.w3.org/2000/svg">
  <defs
     id="defs6" />
  <sodipodi:namedview
     id="namedview6"
     pagecolor="#ffffff"
     bordercolor="#000000"
     borderopacity="0.25"
     inkscape:showpageshadow="2"
     inkscape:pageopacity="0.0"
     inkscape:pagecheckerboard="0"
     inkscape:deskcolor="#d1d1d1" />
  <path
     id="path1"
     style="baseline-shift:baseline;display:inline;overflow:visible;vector-effect:none;fill:#000000;stroke:none;stroke-linecap:butt;stroke-linejoin:miter;enable-background:accumulate;stop-color:#000000;stop-opacity:1;opacity:1"
     d="M 8 1.5996094 A 0.40000001 0.40000001 0 0 0 7.5996094 2 A 0.40000001 0.40000001 0 0 0 8 2.4003906 L 11.599609 2.4003906 L 11.599609 5.5996094 L 6 5.5996094 C 4.6792545 5.5996094 3.5996094 6.6792545 3.5996094 8 L 3.5996094 11.599609 L 2 11.599609 A 0.40000001 0.40000001 0 0 0 1.5996094 12 A 0.40000001 0.40000001 0 0 0 2 12.400391 L 3.5996094 12.400391 L 3.5996094 20.285156 C 3.599671 20.762582 3.9035073 21.152471 4.2851562 21.310547 C 4.6668053 21.468623 5.156519 21.407877 5.4941406 21.070312 L 7.6972656 18.869141 C 7.9973626 18.568953 8.4036597 18.400481 8.828125 18.400391 L 18 18.400391 C 19.320746 18.400391 20.400391 17.320746 20.400391 16 L 20.400391 12.400391 L 22 12.400391 A 0.40000001 0.40000001 0 0 0 22.400391 12 A 0.40000001 0.40000001 0 0 0 22 11.599609 L 20.400391 11.599609 L 20.400391 8 C 20.400391 6.6792545 19.320746 5.5996094 18 5.5996094 L 12.400391 5.5996094 L 12.400391 2 A 0.40004001 0.40004001 0 0 0 12 1.5996094 L 8 1.5996094 z M 6 6.4003906 L 18 6.4003906 C 18.888393 6.4003906 19.599609 7.1116065 19.599609 8 L 19.599609 16 C 19.599609 16.888393 18.888393 17.599609 18 17.599609 L 8.828125 17.599609 C 8.1918111 17.599745 7.5807333 17.852725 7.1308594 18.302734 L 4.9296875 20.505859 C 4.8200466 20.61548 4.7043119 20.618865 4.5917969 20.572266 C 4.4792819 20.525666 4.4004106 20.440198 4.4003906 20.285156 L 4.4003906 8 C 4.4003906 7.1116065 5.1116065 6.4003906 6 6.4003906 z M 9 10.599609 A 0.40000001 0.40000001 0 0 0 8.5996094 11 L 8.5996094 13 A 0.40000001 0.40000001 0 0 0 9 13.400391 A 0.40000001 0.40000001 0 0 0 9.4003906 13 L 9.4003906 11 A 0.40000001 0.40000001 0 0 0 9 10.599609 z M 15 10.599609 A 0.40000001 0.40000001 0 0 0 14.599609 11 L 14.599609 13 A 0.40000001 0.40000001 0 0 0 15 13.400391 A 0.40000001 0.40000001 0 0 0 15.400391 13 L 15.400391 11 A 0.40000001 0.40000001 0 0 0 15 10.599609 z " />
</svg>
