<?xml version="1.0" encoding="UTF-8" standalone="no"?>
<svg
   width="24"
   height="24"
   viewBox="0 0 24 24"
   fill="none"
   stroke="currentColor"
   stroke-width="0.8"
   stroke-linecap="round"
   stroke-linejoin="round"
   version="1.1"
   id="svg12"
   sodipodi:docname=".tmp_boxes.svg"
   xmlns:inkscape="http://www.inkscape.org/namespaces/inkscape"
   xmlns:sodipodi="http://sodipodi.sourceforge.net/DTD/sodipodi-0.dtd"
   xmlns="http://www.w3.org/2000/svg"
   xmlns:svg="http://www.w3.org/2000/svg">
  <defs
     id="defs12" />
  <sodipodi:namedview
     id="namedview12"
     pagecolor="#ffffff"
     bordercolor="#000000"
     borderopacity="0.25"
     inkscape:showpageshadow="2"
     inkscape:pageopacity="0.0"
     inkscape:pagecheckerboard="0"
     inkscape:deskcolor="#d1d1d1" />
  <path
     id="path1"
     style="baseline-shift:baseline;display:inline;overflow:visible;vector-effect:none;fill:#000000;stroke:none;stroke-linecap:butt;stroke-linejoin:miter;enable-background:accumulate;stop-color:#000000;stop-opacity:1;opacity:1"
     d="M 12 1.9355469 C 11.571998 1.9355469 11.143668 2.0490422 10.763672 2.2773438 L 7.7636719 4.0761719 C 7.0435696 4.5088067 6.6014505 5.2888367 6.5996094 6.1289062 A 0.40004001 0.40004001 0 0 0 6.5996094 6.1308594 L 6.5996094 10.273438 L 2.7636719 12.576172 C 2.0435696 13.008807 1.6014505 13.788837 1.5996094 14.628906 A 0.40004001 0.40004001 0 0 0 1.5996094 14.630859 L 1.5996094 17.869141 A 0.40004001 0.40004001 0 0 0 1.5996094 17.871094 C 1.6014494 18.711163 2.0435696 19.491193 2.7636719 19.923828 L 5.7636719 21.722656 C 6.1229094 21.938486 6.5250469 22.052663 6.9296875 22.064453 A 0.40000001 0.40000001 0 0 0 7 22.070312 A 0.40000001 0.40000001 0 0 0 7.0703125 22.064453 C 7.4749531 22.052663 7.8770906 21.938486 8.2363281 21.722656 L 12 19.466797 L 15.763672 21.722656 C 16.122722 21.938374 16.52526 22.052563 16.929688 22.064453 A 0.40000001 0.40000001 0 0 0 17 22.070312 A 0.40000001 0.40000001 0 0 0 17.070312 22.064453 C 17.47474 22.052563 17.877278 21.938374 18.236328 21.722656 L 21.236328 19.923828 C 21.95643 19.491193 22.39855 18.711163 22.400391 17.871094 A 0.40004001 0.40004001 0 0 0 22.400391 17.869141 L 22.400391 14.630859 A 0.40004001 0.40004001 0 0 0 22.400391 14.628906 C 22.398591 13.788837 21.95643 13.008807 21.236328 12.576172 L 17.400391 10.273438 L 17.400391 6.1308594 A 0.40004001 0.40004001 0 0 0 17.400391 6.1289062 C 17.39855 5.2888335 16.95643 4.5088067 16.236328 4.0761719 L 13.236328 2.2773438 C 12.856332 2.0490421 12.428002 1.9355469 12 1.9355469 z M 12 2.734375 C 12.285175 2.734375 12.570349 2.810366 12.824219 2.9628906 L 15.824219 4.7636719 C 15.949057 4.8386745 16.06048 4.9287035 16.158203 5.03125 L 12 7.53125 L 7.8417969 5.03125 C 7.9395196 4.9287035 8.0509424 4.8386746 8.1757812 4.7636719 L 11.175781 2.9628906 C 11.429651 2.810366 11.714825 2.734375 12 2.734375 z M 7.4511719 5.7304688 L 11.599609 8.2265625 L 11.599609 12.792969 L 7.4003906 10.273438 L 7.4003906 6.1308594 C 7.4006903 5.9941427 7.4176978 5.8593153 7.4511719 5.7304688 z M 16.548828 5.7304688 C 16.582302 5.8593154 16.59931 5.9941426 16.599609 6.1308594 L 16.599609 10.273438 L 12.400391 12.792969 L 12.400391 8.2265625 L 16.548828 5.7304688 z M 7 10.966797 L 11.222656 13.5 L 7.0019531 16.033203 L 2.8417969 13.53125 C 2.9395196 13.428703 3.0509423 13.338675 3.1757812 13.263672 L 7 10.966797 z M 17 10.966797 L 20.824219 13.263672 C 20.949058 13.338675 21.06048 13.428703 21.158203 13.53125 L 16.998047 16.033203 L 12.777344 13.5 L 17 10.966797 z M 11.599609 14.207031 L 11.599609 18.773438 L 7.8242188 21.037109 C 7.6901378 21.117665 7.5473244 21.176833 7.4003906 21.214844 L 7.4003906 16.726562 L 11.599609 14.207031 z M 12.400391 14.207031 L 16.599609 16.726562 L 16.599609 21.214844 C 16.452676 21.176833 16.309862 21.117665 16.175781 21.037109 L 12.400391 18.773438 L 12.400391 14.207031 z M 2.4511719 14.230469 L 6.5996094 16.726562 L 6.5996094 21.214844 C 6.4526756 21.176833 6.3098622 21.117665 6.1757812 21.037109 L 3.1757812 19.236328 C 2.6948787 18.947404 2.4016202 18.43016 2.4003906 17.869141 L 2.4003906 14.630859 C 2.4006904 14.494143 2.4176979 14.359315 2.4511719 14.230469 z M 21.548828 14.230469 C 21.582302 14.359315 21.59931 14.494143 21.599609 14.630859 L 21.599609 17.869141 C 21.598409 18.43016 21.305121 18.947404 20.824219 19.236328 L 17.824219 21.037109 C 17.690138 21.117665 17.547324 21.176833 17.400391 21.214844 L 17.400391 16.726562 L 21.548828 14.230469 z " />
</svg>
