<?xml version="1.0" encoding="UTF-8" standalone="no"?>
<svg
   width="24"
   height="24"
   viewBox="0 0 24 24"
   fill="none"
   stroke="currentColor"
   stroke-width="0.8"
   stroke-linecap="round"
   stroke-linejoin="round"
   version="1.1"
   id="svg8"
   sodipodi:docname=".tmp_brick-wall-shield.svg"
   xmlns:inkscape="http://www.inkscape.org/namespaces/inkscape"
   xmlns:sodipodi="http://sodipodi.sourceforge.net/DTD/sodipodi-0.dtd"
   xmlns="http://www.w3.org/2000/svg"
   xmlns:svg="http://www.w3.org/2000/svg">
  <defs
     id="defs8" />
  <sodipodi:namedview
     id="namedview8"
     pagecolor="#ffffff"
     bordercolor="#000000"
     borderopacity="0.25"
     inkscape:showpageshadow="2"
     inkscape:pageopacity="0.0"
     inkscape:pagecheckerboard="0"
     inkscape:deskcolor="#d1d1d1" />
  <path
     id="path1"
     style="baseline-shift:baseline;display:inline;overflow:visible;vector-effect:none;fill:#000000;stroke:none;stroke-linecap:butt;stroke-linejoin:miter;enable-background:accumulate;stop-color:#000000;stop-opacity:1;opacity:1"
     d="M 5 2.5996094 C 3.6792545 2.5996094 2.5996094 3.6792545 2.5996094 5 L 2.5996094 19 C 2.5996094 20.320746 3.6792545 21.400391 5 21.400391 L 10.75 21.400391 A 0.40000001 0.40000001 0 0 0 11.150391 21 A 0.40000001 0.40000001 0 0 0 10.75 20.599609 L 8.4003906 20.599609 L 8.4003906 15.400391 L 10 15.400391 A 0.40000001 0.40000001 0 0 0 10.400391 15 A 0.40000001 0.40000001 0 0 0 10 14.599609 L 3.4003906 14.599609 L 3.4003906 9.4003906 L 8 9.4003906 L 11.599609 9.4003906 L 11.599609 10.257812 A 0.40000001 0.40000001 0 0 0 12 10.658203 A 0.40000001 0.40000001 0 0 0 12.400391 10.257812 L 12.400391 9.4003906 L 15.142578 9.4003906 A 0.40000001 0.40000001 0 0 0 15.542969 9 A 0.40000001 0.40000001 0 0 0 15.142578 8.5996094 L 8.4003906 8.5996094 L 8.4003906 3.4003906 L 15.599609 3.4003906 L 15.599609 8.4609375 A 0.40000001 0.40000001 0 0 0 16 8.859375 A 0.40000001 0.40000001 0 0 0 16.400391 8.4609375 L 16.400391 3.4003906 L 19 3.4003906 C 19.888393 3.4003906 20.599609 4.1116065 20.599609 5 L 20.599609 9.1171875 A 0.40000001 0.40000001 0 0 0 21 9.5175781 A 0.40000001 0.40000001 0 0 0 21.400391 9.1171875 L 21.400391 5 C 21.400391 3.6792545 20.320746 2.5996094 19 2.5996094 L 8 2.5996094 L 5 2.5996094 z M 5 3.4003906 L 7.5996094 3.4003906 L 7.5996094 8.5996094 L 3.4003906 8.5996094 L 3.4003906 5 C 3.4003906 4.1116065 4.1116065 3.4003906 5 3.4003906 z M 18 11.605469 C 17.775223 11.605842 17.550249 11.68179 17.367188 11.832031 A 0.40004001 0.40004001 0 0 0 17.357422 11.839844 C 16.551867 12.543543 15.34 13.101561 14.5 13.101562 C 14.008354 13.101561 13.600593 13.508355 13.599609 14 L 13.599609 17.498047 C 13.599609 18.84138 14.087742 19.901357 14.849609 20.681641 C 15.609857 21.460265 16.624401 21.971897 17.699219 22.34375 C 17.892121 22.41463 18.104115 22.419466 18.298828 22.353516 A 0.40004001 0.40004001 0 0 0 18.300781 22.351562 C 19.375326 21.977023 20.391325 21.462298 21.152344 20.681641 C 21.913362 19.900983 22.400391 18.842871 22.400391 17.5 L 22.400391 14 C 22.400391 13.507682 21.992318 13.099609 21.5 13.099609 C 20.658667 13.099609 19.453406 12.546786 18.642578 11.837891 A 0.40004001 0.40004001 0 0 0 18.632812 11.830078 C 18.449357 11.680343 18.224777 11.605095 18 11.605469 z M 17.982422 12.404297 C 18.032456 12.39943 18.084403 12.414518 18.126953 12.449219 C 19.065312 13.266464 20.345098 13.900391 21.5 13.900391 C 21.55997 13.900391 21.599609 13.94003 21.599609 14 L 21.599609 17.5 C 21.599609 18.656129 21.212107 19.472704 20.578125 20.123047 C 19.944508 20.773015 19.045772 21.245305 18.041016 21.595703 C 18.019156 21.603103 17.996239 21.60185 17.974609 21.59375 A 0.40004001 0.40004001 0 0 0 17.964844 21.591797 C 16.957287 21.243945 16.056257 20.77081 15.421875 20.121094 C 14.787493 19.471377 14.400391 18.654714 14.400391 17.498047 L 14.400391 14 C 14.40051 13.94014 14.44014 13.900391 14.5 13.900391 C 15.66 13.900391 16.948403 13.257673 17.882812 12.441406 C 17.913196 12.419513 17.947758 12.407668 17.982422 12.404297 z M 3.4003906 15.400391 L 7.5996094 15.400391 L 7.5996094 20.599609 L 5 20.599609 C 4.1116065 20.599609 3.4003906 19.888393 3.4003906 19 L 3.4003906 15.400391 z " />
</svg>
