<?xml version="1.0" encoding="UTF-8" standalone="no"?>
<svg
   width="24"
   height="24"
   viewBox="0 0 24 24"
   fill="none"
   stroke="currentColor"
   stroke-width="0.8"
   stroke-linecap="round"
   stroke-linejoin="round"
   version="1.1"
   id="svg3"
   sodipodi:docname=".tmp_cast.svg"
   xmlns:inkscape="http://www.inkscape.org/namespaces/inkscape"
   xmlns:sodipodi="http://sodipodi.sourceforge.net/DTD/sodipodi-0.dtd"
   xmlns="http://www.w3.org/2000/svg"
   xmlns:svg="http://www.w3.org/2000/svg">
  <defs
     id="defs3" />
  <sodipodi:namedview
     id="namedview3"
     pagecolor="#ffffff"
     bordercolor="#000000"
     borderopacity="0.25"
     inkscape:showpageshadow="2"
     inkscape:pageopacity="0.0"
     inkscape:pagecheckerboard="0"
     inkscape:deskcolor="#d1d1d1" />
  <path
     id="path1"
     style="baseline-shift:baseline;display:inline;overflow:visible;vector-effect:none;fill:#000000;stroke:none;stroke-linecap:butt;stroke-linejoin:miter;enable-background:accumulate;stop-color:#000000;stop-opacity:1;opacity:1"
     d="M 4 3.5996094 C 2.6792545 3.5996094 1.5996094 4.6792545 1.5996094 6 L 1.5996094 8 A 0.40000001 0.40000001 0 0 0 2 8.4003906 A 0.40000001 0.40000001 0 0 0 2.4003906 8 L 2.4003906 6 C 2.4003906 5.1116065 3.1116065 4.4003906 4 4.4003906 L 20 4.4003906 C 20.888393 4.4003906 21.599609 5.1116065 21.599609 6 L 21.599609 18 C 21.599609 18.888393 20.888393 19.599609 20 19.599609 L 14 19.599609 A 0.40000001 0.40000001 0 0 0 13.599609 20 A 0.40000001 0.40000001 0 0 0 14 20.400391 L 20 20.400391 C 21.320746 20.400391 22.400391 19.320746 22.400391 18 L 22.400391 6 C 22.400391 4.6792545 21.320746 3.5996094 20 3.5996094 L 4 3.5996094 z M 1.9902344 11.599609 A 0.40000001 0.40000001 0 0 0 1.6015625 11.957031 A 0.40000001 0.40000001 0 0 0 1.9570312 12.398438 C 5.9907886 12.826499 9.1735 16.009211 9.6015625 20.042969 A 0.40000001 0.40000001 0 0 0 10.042969 20.398438 A 0.40000001 0.40000001 0 0 0 10.398438 19.957031 C 9.931069 15.552886 6.4471141 12.06893 2.0429688 11.601562 A 0.40000001 0.40000001 0 0 0 1.9902344 11.599609 z M 1.96875 15.601562 A 0.40000001 0.40000001 0 0 0 1.6074219 15.927734 A 0.40000001 0.40000001 0 0 0 1.9277344 16.392578 C 3.7983507 16.740968 5.2590316 18.201649 5.6074219 20.072266 A 0.40000001 0.40000001 0 0 0 6.0722656 20.392578 A 0.40000001 0.40000001 0 0 0 6.3925781 19.927734 C 5.9841043 17.734511 4.2654893 16.015896 2.0722656 15.607422 A 0.40000001 0.40000001 0 0 0 1.96875 15.601562 z M 2 19.599609 A 0.40000001 0.40000001 0 0 0 1.5996094 20 A 0.40000001 0.40000001 0 0 0 2 20.400391 L 2.0097656 20.400391 A 0.40000001 0.40000001 0 0 0 2.4101562 20 A 0.40000001 0.40000001 0 0 0 2.0097656 19.599609 L 2 19.599609 z " />
</svg>
