<?xml version="1.0" encoding="UTF-8" standalone="no"?>
<svg
   width="24"
   height="24"
   viewBox="0 0 24 24"
   fill="none"
   stroke="currentColor"
   stroke-width="0.8"
   stroke-linecap="round"
   stroke-linejoin="round"
   version="1.1"
   id="svg5"
   sodipodi:docname=".tmp_cctv.svg"
   xmlns:inkscape="http://www.inkscape.org/namespaces/inkscape"
   xmlns:sodipodi="http://sodipodi.sourceforge.net/DTD/sodipodi-0.dtd"
   xmlns="http://www.w3.org/2000/svg"
   xmlns:svg="http://www.w3.org/2000/svg">
  <defs
     id="defs5" />
  <sodipodi:namedview
     id="namedview5"
     pagecolor="#ffffff"
     bordercolor="#000000"
     borderopacity="0.25"
     inkscape:showpageshadow="2"
     inkscape:pageopacity="0.0"
     inkscape:pagecheckerboard="0"
     inkscape:deskcolor="#d1d1d1" />
  <path
     id="path1"
     style="baseline-shift:baseline;display:inline;overflow:visible;vector-effect:none;fill:#000000;stroke:none;stroke-linecap:butt;stroke-linejoin:miter;enable-background:accumulate;stop-color:#000000;stop-opacity:1;opacity:1"
     d="M 6.5195312 3.5976562 C 5.2283949 3.5147914 3.947285 4.1937881 3.3320312 5.4199219 A 0.40004001 0.40004001 0 0 0 3.3320312 5.421875 L 1.9511719 8.2128906 C 1.13947 9.8444732 1.8019405 11.838303 3.4296875 12.658203 A 0.40004001 0.40004001 0 0 0 3.4316406 12.658203 L 8.4667969 15.177734 L 7.203125 17.720703 L 7.2011719 17.720703 L 7.2011719 17.722656 C 6.9266185 18.265116 6.3718128 18.603842 5.7636719 18.599609 A 0.40004001 0.40004001 0 0 0 5.7597656 18.599609 L 2.4003906 18.599609 L 2.4003906 17 A 0.40000001 0.40000001 0 0 0 2 16.599609 A 0.40000001 0.40000001 0 0 0 1.5996094 17 L 1.5996094 21 A 0.40000001 0.40000001 0 0 0 2 21.400391 A 0.40000001 0.40000001 0 0 0 2.4003906 21 L 2.4003906 19.400391 L 5.7578125 19.400391 C 6.6693294 19.406691 7.5077984 18.89412 7.9179688 18.080078 A 0.40004001 0.40004001 0 0 0 7.9179688 18.078125 L 9.1796875 15.535156 L 12.925781 17.410156 C 13.613154 17.754201 14.460909 17.470706 14.804688 16.783203 L 15.470703 15.451172 L 17.208984 17.882812 C 17.811947 18.726692 19.135626 18.622898 19.599609 17.695312 L 21.632812 13.625 A 0.40004001 0.40004001 0 0 0 21.634766 13.625 C 22.092302 12.70938 21.406385 11.600156 20.382812 11.599609 L 17.396484 11.599609 L 17.910156 10.572266 C 18.253267 9.8852234 17.971866 9.0390794 17.285156 8.6953125 L 7.7890625 3.9414062 L 7.7890625 3.9433594 C 7.3803946 3.7381916 6.9499101 3.6252778 6.5195312 3.5976562 z M 6.21875 4.3886719 C 6.6245247 4.3760854 7.0396163 4.4623687 7.4296875 4.6582031 A 0.40004001 0.40004001 0 0 0 7.4316406 4.6582031 L 16.927734 9.4101562 C 17.228075 9.5605056 17.345375 9.9143597 17.195312 10.214844 L 16.404297 11.796875 A 0.40000001 0.40000001 0 0 0 16.380859 11.84375 L 14.089844 16.425781 C 13.939479 16.726488 13.583851 16.84384 13.283203 16.693359 L 3.7890625 11.941406 C 2.5468051 11.314719 2.0474033 9.8139177 2.6679688 8.5683594 A 0.40004001 0.40004001 0 0 0 2.6679688 8.5664062 L 4.046875 5.7792969 L 4.0488281 5.7773438 C 4.3622158 5.1545817 4.895308 4.7181038 5.5058594 4.515625 C 5.7351434 4.4395869 5.9752852 4.3962237 6.21875 4.3886719 z M 7 8.5996094 A 0.40000001 0.40000001 0 0 0 6.5996094 9 A 0.40000001 0.40000001 0 0 0 7 9.4003906 L 7.0097656 9.4003906 A 0.40000001 0.40000001 0 0 0 7.4101562 9 A 0.40000001 0.40000001 0 0 0 7.0097656 8.5996094 L 7 8.5996094 z M 16.996094 12.400391 L 20.382812 12.400391 C 20.844126 12.401991 21.124412 12.854444 20.917969 13.267578 L 18.884766 17.337891 C 18.674633 17.757983 18.132449 17.800149 17.859375 17.417969 L 15.875 14.642578 L 16.996094 12.400391 z " />
</svg>
