<?xml version="1.0" encoding="UTF-8" standalone="no"?>
<svg
   width="24"
   height="24"
   viewBox="0 0 24 24"
   fill="none"
   stroke="currentColor"
   stroke-width="0.8"
   stroke-linecap="round"
   stroke-linejoin="round"
   version="1.1"
   id="svg5"
   sodipodi:docname=".tmp_cigarette.svg"
   xmlns:inkscape="http://www.inkscape.org/namespaces/inkscape"
   xmlns:sodipodi="http://sodipodi.sourceforge.net/DTD/sodipodi-0.dtd"
   xmlns="http://www.w3.org/2000/svg"
   xmlns:svg="http://www.w3.org/2000/svg">
  <defs
     id="defs5" />
  <sodipodi:namedview
     id="namedview5"
     pagecolor="#ffffff"
     bordercolor="#000000"
     borderopacity="0.25"
     inkscape:showpageshadow="2"
     inkscape:pageopacity="0.0"
     inkscape:pagecheckerboard="0"
     inkscape:deskcolor="#d1d1d1" />
  <path
     id="path1"
     style="baseline-shift:baseline;display:inline;overflow:visible;vector-effect:none;fill:#000000;stroke:none;stroke-linecap:butt;stroke-linejoin:miter;enable-background:accumulate;stop-color:#000000;stop-opacity:1;opacity:1"
     d="M 16 2.5996094 A 0.40000001 0.40000001 0 0 0 15.599609 3 C 15.599609 4.3566667 16.1875 5.125 16.6875 5.75 C 17.1875 6.375 17.599609 6.8566667 17.599609 8 A 0.40000001 0.40000001 0 0 0 18 8.4003906 A 0.40000001 0.40000001 0 0 0 18.400391 8 C 18.400391 6.6433333 17.8125 5.875 17.3125 5.25 C 16.8125 4.625 16.400391 4.1433333 16.400391 3 A 0.40000001 0.40000001 0 0 0 16 2.5996094 z M 20 2.5996094 A 0.40000001 0.40000001 0 0 0 19.599609 3 C 19.599609 4.3566667 20.1875 5.125 20.6875 5.75 C 21.1875 6.375 21.599609 6.8566667 21.599609 8 A 0.40000001 0.40000001 0 0 0 22 8.4003906 A 0.40000001 0.40000001 0 0 0 22.400391 8 C 22.400391 6.6433333 21.8125 5.875 21.3125 5.25 C 20.8125 4.625 20.400391 4.1433333 20.400391 3 A 0.40000001 0.40000001 0 0 0 20 2.5996094 z M 3 11.599609 C 2.2315392 11.599609 1.5996094 12.231539 1.5996094 13 L 1.5996094 15 C 1.5996094 15.768461 2.2315392 16.400391 3 16.400391 L 7 16.400391 L 17 16.400391 A 0.40000001 0.40000001 0 0 0 17.400391 16 A 0.40000001 0.40000001 0 0 0 17 15.599609 L 7.4003906 15.599609 L 7.4003906 12.400391 L 17 12.400391 A 0.40000001 0.40000001 0 0 0 17.400391 12 A 0.40000001 0.40000001 0 0 0 17 11.599609 L 7 11.599609 L 3 11.599609 z M 21 11.599609 A 0.40000001 0.40000001 0 0 0 20.599609 12 A 0.40000001 0.40000001 0 0 0 21 12.400391 C 21.336109 12.400391 21.599609 12.663891 21.599609 13 L 21.599609 15 C 21.599609 15.336109 21.336109 15.599609 21 15.599609 A 0.40000001 0.40000001 0 0 0 20.599609 16 A 0.40000001 0.40000001 0 0 0 21 16.400391 C 21.768461 16.400391 22.400391 15.768461 22.400391 15 L 22.400391 13 C 22.400391 12.231539 21.768461 11.599609 21 11.599609 z M 3 12.400391 L 6.5996094 12.400391 L 6.5996094 15.599609 L 3 15.599609 C 2.6638913 15.599609 2.4003906 15.336109 2.4003906 15 L 2.4003906 13 C 2.4003906 12.663891 2.6638913 12.400391 3 12.400391 z " />
</svg>
