<?xml version="1.0" encoding="UTF-8" standalone="no"?>
<svg
   width="24"
   height="24"
   viewBox="0 0 24 24"
   fill="none"
   stroke="currentColor"
   stroke-width="0.8"
   stroke-linecap="round"
   stroke-linejoin="round"
   version="1.1"
   id="svg4"
   sodipodi:docname=".tmp_clapperboard.svg"
   xmlns:inkscape="http://www.inkscape.org/namespaces/inkscape"
   xmlns:sodipodi="http://sodipodi.sourceforge.net/DTD/sodipodi-0.dtd"
   xmlns="http://www.w3.org/2000/svg"
   xmlns:svg="http://www.w3.org/2000/svg">
  <defs
     id="defs4" />
  <sodipodi:namedview
     id="namedview4"
     pagecolor="#ffffff"
     bordercolor="#000000"
     borderopacity="0.25"
     inkscape:showpageshadow="2"
     inkscape:pageopacity="0.0"
     inkscape:pagecheckerboard="0"
     inkscape:deskcolor="#d1d1d1" />
  <path
     id="path1"
     style="baseline-shift:baseline;display:inline;overflow:visible;vector-effect:none;fill:#000000;stroke:none;stroke-linecap:butt;stroke-linejoin:miter;enable-background:accumulate;stop-color:#000000;stop-opacity:1;opacity:1"
     d="M 17.519531 1.625 C 17.280939 1.6203327 17.037805 1.6486029 16.794922 1.7148438 A 0.40004001 0.40004001 0 0 0 16.787109 1.7167969 L 12.449219 3.0019531 A 0.40000001 0.40000001 0 0 0 12.154297 3.0839844 A 0.40000001 0.40000001 0 0 0 12.140625 3.09375 L 3.2871094 5.7167969 A 0.40004001 0.40004001 0 0 0 3.2851562 5.7167969 C 2.069556 6.0814753 1.3614107 7.4091569 1.7148438 8.7050781 A 0.40004001 0.40004001 0 0 0 1.7246094 8.7402344 L 2.5996094 11.072266 L 2.5996094 19 C 2.5996094 20.320746 3.6792545 21.400391 5 21.400391 L 19 21.400391 C 20.320746 21.400391 21.400391 20.320746 21.400391 19 L 21.400391 11 A 0.40004001 0.40004001 0 0 0 21 10.599609 L 5.8125 10.599609 L 9.2597656 9.5976562 A 0.40000001 0.40000001 0 0 0 9.5488281 9.5136719 L 15.455078 7.796875 A 0.40000001 0.40000001 0 0 0 15.744141 7.7167969 A 0.40000001 0.40000001 0 0 0 15.751953 7.7109375 L 20.3125 6.3847656 A 0.40004001 0.40004001 0 0 0 20.582031 5.8828125 L 19.783203 3.2851562 L 19.783203 3.2832031 C 19.486373 2.2962984 18.553429 1.6452249 17.519531 1.625 z M 17.507812 2.421875 C 18.215411 2.4336908 18.826377 2.8782871 19.017578 3.515625 A 0.40004001 0.40004001 0 0 0 19.017578 3.5175781 L 19.699219 5.7285156 L 15.628906 6.9121094 L 13.097656 3.6445312 L 17.005859 2.4863281 C 17.175374 2.4400968 17.344521 2.4191483 17.507812 2.421875 z M 12.273438 3.8886719 L 14.802734 7.1523438 L 9.4257812 8.7148438 L 6.8632812 5.4921875 L 12.273438 3.8886719 z M 6.0371094 5.7363281 L 8.59375 8.9570312 L 3.2441406 10.511719 L 2.4863281 8.4902344 C 2.2426933 7.5887033 2.7320646 6.7205463 3.5136719 6.484375 L 6.0371094 5.7363281 z M 3.4003906 11.400391 L 20.599609 11.400391 L 20.599609 19 C 20.599609 19.888393 19.888393 20.599609 19 20.599609 L 5 20.599609 C 4.1116065 20.599609 3.4003906 19.888393 3.4003906 19 L 3.4003906 11.400391 z " />
</svg>
