<?xml version="1.0" encoding="UTF-8" standalone="no"?>
<svg
   width="24"
   height="24"
   viewBox="0 0 24 24"
   fill="none"
   stroke="currentColor"
   stroke-width="0.8"
   stroke-linecap="round"
   stroke-linejoin="round"
   version="1.1"
   id="svg1"
   sodipodi:docname=".tmp_cone.svg"
   xmlns:inkscape="http://www.inkscape.org/namespaces/inkscape"
   xmlns:sodipodi="http://sodipodi.sourceforge.net/DTD/sodipodi-0.dtd"
   xmlns="http://www.w3.org/2000/svg"
   xmlns:svg="http://www.w3.org/2000/svg">
  <defs
     id="defs1" />
  <sodipodi:namedview
     id="namedview1"
     pagecolor="#ffffff"
     bordercolor="#000000"
     borderopacity="0.25"
     inkscape:showpageshadow="2"
     inkscape:pageopacity="0.0"
     inkscape:pagecheckerboard="0"
     inkscape:deskcolor="#d1d1d1" />
  <path
     id="path1"
     style="baseline-shift:baseline;display:inline;overflow:visible;vector-effect:none;fill:#000000;stroke:none;stroke-linecap:butt;stroke-linejoin:miter;enable-background:accumulate;stop-color:#000000;stop-opacity:1;opacity:1"
     d="M 12 1.6230469 C 11.4946 1.6230469 10.989435 1.881949 10.740234 2.3964844 L 2.78125 18.294922 L 2.7421875 18.371094 A 0.40000001 0.40000001 0 0 0 2.7265625 18.408203 C 2.6453398 18.595042 2.5996094 18.793055 2.5996094 19 C 2.5996094 19.576346 2.9479181 20.079656 3.4589844 20.482422 C 3.9700506 20.885187 4.666473 21.218902 5.5097656 21.5 C 7.196351 22.062195 9.4786893 22.400391 12 22.400391 C 14.521311 22.400391 16.803649 22.062195 18.490234 21.5 C 19.333527 21.218902 20.029949 20.885187 20.541016 20.482422 C 21.052082 20.079656 21.400391 19.576346 21.400391 19 C 21.400391 18.792966 21.354727 18.595114 21.273438 18.408203 A 0.40000001 0.40000001 0 0 0 21.257812 18.371094 L 21.25 18.357422 C 21.240529 18.337502 21.230988 18.316542 21.220703 18.296875 L 21.21875 18.292969 L 13.259766 2.3964844 C 13.010565 1.881949 12.5054 1.6230469 12 1.6230469 z M 12 2.3886719 C 12.211991 2.3886719 12.423982 2.5065292 12.539062 2.7441406 A 0.40004001 0.40004001 0 0 0 12.542969 2.75 L 19.664062 16.974609 C 19.314729 16.801102 18.921566 16.643777 18.490234 16.5 C 16.803649 15.937805 14.521311 15.599609 12 15.599609 C 9.4786893 15.599609 7.196351 15.937805 5.5097656 16.5 C 5.0784277 16.64378 4.6852755 16.801099 4.3359375 16.974609 L 11.457031 2.75 A 0.40004001 0.40004001 0 0 0 11.460938 2.7441406 C 11.576017 2.5065292 11.788009 2.3886719 12 2.3886719 z M 12 16.400391 C 14.449252 16.400391 16.667507 16.734222 18.238281 17.257812 C 19.023668 17.519609 19.645139 17.83142 20.044922 18.146484 C 20.277038 18.329413 20.427091 18.503528 20.511719 18.666016 L 20.529297 18.703125 C 20.57721 18.806559 20.599609 18.905842 20.599609 19 C 20.599609 19.252082 20.444705 19.538451 20.044922 19.853516 C 19.645139 20.16858 19.023668 20.480392 18.238281 20.742188 C 16.667507 21.26578 14.449252 21.599609 12 21.599609 C 9.550748 21.599609 7.3324927 21.26578 5.7617188 20.742188 C 4.9763318 20.480393 4.3548615 20.16858 3.9550781 19.853516 C 3.5552948 19.538451 3.4003906 19.252082 3.4003906 19 C 3.4003906 18.902183 3.4246568 18.799222 3.4765625 18.691406 C 3.4806567 18.682902 3.4838289 18.67458 3.4882812 18.666016 C 3.5728504 18.503346 3.7226618 18.329649 3.9550781 18.146484 C 4.3548615 17.83142 4.9763318 17.519609 5.7617188 17.257812 C 7.3324928 16.734222 9.550748 16.400391 12 16.400391 z " />
</svg>
