<?xml version="1.0" encoding="UTF-8" standalone="no"?>
<svg
   width="24"
   height="24"
   viewBox="0 0 24 24"
   fill="none"
   stroke="currentColor"
   stroke-width="0.8"
   stroke-linecap="round"
   stroke-linejoin="round"
   version="1.1"
   id="svg3"
   sodipodi:docname=".tmp_contact-round.svg"
   xmlns:inkscape="http://www.inkscape.org/namespaces/inkscape"
   xmlns:sodipodi="http://sodipodi.sourceforge.net/DTD/sodipodi-0.dtd"
   xmlns="http://www.w3.org/2000/svg"
   xmlns:svg="http://www.w3.org/2000/svg">
  <defs
     id="defs3" />
  <sodipodi:namedview
     id="namedview3"
     pagecolor="#ffffff"
     bordercolor="#000000"
     borderopacity="0.25"
     inkscape:showpageshadow="2"
     inkscape:pageopacity="0.0"
     inkscape:pagecheckerboard="0"
     inkscape:deskcolor="#d1d1d1" />
  <path
     id="path1"
     style="baseline-shift:baseline;display:inline;overflow:visible;vector-effect:none;fill:#000000;stroke:none;stroke-linecap:butt;stroke-linejoin:miter;enable-background:accumulate;stop-color:#000000;stop-opacity:1;opacity:1"
     d="M 8 1.5996094 A 0.40000001 0.40000001 0 0 0 7.5996094 2 L 7.5996094 3.5996094 L 5 3.5996094 C 3.6773189 3.5996094 2.5996094 4.6773189 2.5996094 6 L 2.5996094 20 C 2.5996094 21.322681 3.6773189 22.400391 5 22.400391 L 5.9140625 22.400391 L 17.914062 22.400391 L 19 22.400391 C 20.322681 22.400391 21.400391 21.322681 21.400391 20 L 21.400391 6 C 21.400391 4.6773189 20.322681 3.5996094 19 3.5996094 L 16.400391 3.5996094 L 16.400391 2 A 0.40000001 0.40000001 0 0 0 16 1.5996094 A 0.40000001 0.40000001 0 0 0 15.599609 2 L 15.599609 3.5996094 L 8.4003906 3.5996094 L 8.4003906 2 A 0.40000001 0.40000001 0 0 0 8 1.5996094 z M 5 4.4003906 L 8 4.4003906 L 16 4.4003906 L 19 4.4003906 C 19.893319 4.4003906 20.599609 5.1066811 20.599609 6 L 20.599609 20 C 20.599609 20.893319 19.893319 21.599609 19 21.599609 L 18.302734 21.599609 C 18.139233 18.961756 16.37076 16.751181 13.964844 15.935547 C 15.407258 15.212175 16.400391 13.719696 16.400391 12 C 16.400391 9.574685 14.425315 7.5996094 12 7.5996094 C 9.574685 7.5996094 7.5996094 9.574685 7.5996094 12 C 7.5996094 13.692865 8.5627764 15.166737 9.96875 15.902344 C 7.5101262 16.688743 5.6930931 18.92371 5.5273438 21.599609 L 5 21.599609 C 4.1066811 21.599609 3.4003906 20.893319 3.4003906 20 L 3.4003906 6 C 3.4003906 5.1066811 4.1066811 4.4003906 5 4.4003906 z M 12 8.4003906 C 13.992963 8.4003906 15.599609 10.007037 15.599609 12 C 15.599609 13.992963 13.992963 15.599609 12 15.599609 C 10.007037 15.599609 8.4003906 13.992963 8.4003906 12 C 8.4003906 10.007037 10.007037 8.4003906 12 8.4003906 z M 11.914062 16.400391 C 14.876954 16.400391 17.297182 18.689677 17.501953 21.599609 L 6.328125 21.599609 C 6.5327406 18.689677 8.95117 16.400391 11.914062 16.400391 z " />
</svg>
