<?xml version="1.0" encoding="UTF-8" standalone="no"?>
<svg
   width="24"
   height="24"
   viewBox="0 0 24 24"
   fill="none"
   stroke="currentColor"
   stroke-width="0.8"
   stroke-linecap="round"
   stroke-linejoin="round"
   version="1.1"
   id="svg2"
   sodipodi:docname=".tmp_disc.svg"
   xmlns:inkscape="http://www.inkscape.org/namespaces/inkscape"
   xmlns:sodipodi="http://sodipodi.sourceforge.net/DTD/sodipodi-0.dtd"
   xmlns="http://www.w3.org/2000/svg"
   xmlns:svg="http://www.w3.org/2000/svg">
  <defs
     id="defs2" />
  <sodipodi:namedview
     id="namedview2"
     pagecolor="#ffffff"
     bordercolor="#000000"
     borderopacity="0.25"
     inkscape:showpageshadow="2"
     inkscape:pageopacity="0.0"
     inkscape:pagecheckerboard="0"
     inkscape:deskcolor="#d1d1d1" />
  <path
     id="circle1"
     style="baseline-shift:baseline;display:inline;overflow:visible;vector-effect:none;fill:#000000;stroke:none;stroke-linecap:butt;stroke-linejoin:miter;enable-background:accumulate;stop-color:#000000;stop-opacity:1;opacity:1"
     d="M 12 1.5996094 C 6.2609765 1.5996094 1.5996094 6.2609765 1.5996094 12 C 1.5996094 17.739024 6.2609765 22.400391 12 22.400391 C 17.739024 22.400391 22.400391 17.739024 22.400391 12 C 22.400391 6.2609765 17.739024 1.5996094 12 1.5996094 z M 12 2.4003906 C 17.306671 2.4003906 21.599609 6.6933286 21.599609 12 C 21.599609 17.306671 17.306671 21.599609 12 21.599609 C 6.6933286 21.599609 2.4003906 17.306671 2.4003906 12 C 2.4003906 6.6933286 6.6933286 2.4003906 12 2.4003906 z M 12 9.5996094 C 10.679254 9.5996094 9.5996094 10.679254 9.5996094 12 C 9.5996094 13.320746 10.679254 14.400391 12 14.400391 C 13.320746 14.400391 14.400391 13.320746 14.400391 12 C 14.400391 10.679254 13.320746 9.5996094 12 9.5996094 z M 12 10.400391 C 12.888393 10.400391 13.599609 11.111607 13.599609 12 C 13.599609 12.888393 12.888393 13.599609 12 13.599609 C 11.111607 13.599609 10.400391 12.888393 10.400391 12 C 10.400391 11.111607 11.111607 10.400391 12 10.400391 z " />
</svg>
