<?xml version="1.0" encoding="UTF-8" standalone="no"?>
<svg
   width="24"
   height="24"
   viewBox="0 0 24 24"
   fill="none"
   stroke="currentColor"
   stroke-width="0.8"
   stroke-linecap="round"
   stroke-linejoin="round"
   version="1.1"
   id="svg2"
   sodipodi:docname=".tmp_fast-forward.svg"
   xmlns:inkscape="http://www.inkscape.org/namespaces/inkscape"
   xmlns:sodipodi="http://sodipodi.sourceforge.net/DTD/sodipodi-0.dtd"
   xmlns="http://www.w3.org/2000/svg"
   xmlns:svg="http://www.w3.org/2000/svg">
  <defs
     id="defs2" />
  <sodipodi:namedview
     id="namedview2"
     pagecolor="#ffffff"
     bordercolor="#000000"
     borderopacity="0.25"
     inkscape:showpageshadow="2"
     inkscape:pageopacity="0.0"
     inkscape:pagecheckerboard="0"
     inkscape:deskcolor="#d1d1d1" />
  <path
     id="path1"
     style="baseline-shift:baseline;display:inline;overflow:visible;vector-effect:none;fill:#000000;stroke:none;stroke-linecap:butt;stroke-linejoin:miter;enable-background:accumulate;stop-color:#000000;stop-opacity:1;opacity:1"
     d="M 4.078125 3.5996094 C 3.734358 3.5897906 3.3934798 3.6542083 3.0820312 3.7832031 C 2.2515016 4.1271893 1.599834 4.9480878 1.5996094 6 L 1.5996094 18 C 1.599834 19.051912 2.2515016 19.872811 3.0820312 20.216797 C 3.9125607 20.560783 4.9533391 20.440968 5.6972656 19.697266 L 11.599609 13.794922 L 11.599609 18 C 11.599834 19.051912 12.251502 19.872811 13.082031 20.216797 C 13.912561 20.560783 14.953339 20.440968 15.697266 19.697266 L 21.697266 13.697266 C 22.630836 12.763413 22.630836 11.236587 21.697266 10.302734 L 15.697266 4.3027344 C 15.325302 3.9308834 14.878861 3.7148079 14.421875 3.6347656 C 13.964889 3.5547233 13.497296 3.61121 13.082031 3.7832031 C 12.251502 4.1271893 11.599834 4.9480878 11.599609 6 L 11.599609 10.205078 L 5.6972656 4.3027344 C 5.3253023 3.9308834 4.8788607 3.7148079 4.421875 3.6347656 C 4.3076286 3.614755 4.192714 3.6028823 4.078125 3.5996094 z M 4.0507812 4.3925781 C 4.1262827 4.3939932 4.2020456 4.4012468 4.2773438 4.4140625 C 4.5785365 4.4653255 4.872887 4.6112461 5.1308594 4.8691406 L 11.130859 10.869141 C 11.423289 11.161658 11.579539 11.536066 11.599609 11.916016 C 11.602567 11.972013 11.602567 12.027987 11.599609 12.083984 C 11.579539 12.463934 11.423289 12.838342 11.130859 13.130859 L 5.1308594 19.130859 C 4.6149146 19.646648 3.9500794 19.711038 3.3886719 19.478516 C 2.8272644 19.245994 2.4005464 18.729546 2.4003906 18 L 2.4003906 6 C 2.4005464 5.2704541 2.8272644 4.7540064 3.3886719 4.5214844 C 3.5991997 4.4342886 3.824277 4.388333 4.0507812 4.3925781 z M 14.050781 4.3925781 C 14.126283 4.3939932 14.202046 4.4012468 14.277344 4.4140625 C 14.578537 4.4653255 14.872887 4.6112461 15.130859 4.8691406 L 21.130859 10.869141 C 21.758817 11.497288 21.758817 12.502712 21.130859 13.130859 L 15.130859 19.130859 C 14.614915 19.646648 13.950079 19.711038 13.388672 19.478516 C 12.827264 19.245994 12.400546 18.729546 12.400391 18 L 12.400391 6 C 12.400546 5.2704541 12.827264 4.7540064 13.388672 4.5214844 C 13.5992 4.4342886 13.824277 4.388333 14.050781 4.3925781 z " />
</svg>
