<?xml version="1.0" encoding="UTF-8" standalone="no"?>
<svg
   width="24"
   height="24"
   viewBox="0 0 24 24"
   fill="none"
   stroke="currentColor"
   stroke-width="0.8"
   stroke-linecap="round"
   stroke-linejoin="round"
   version="1.1"
   id="svg3"
   sodipodi:docname=".tmp_file-pen-line.svg"
   xmlns:inkscape="http://www.inkscape.org/namespaces/inkscape"
   xmlns:sodipodi="http://sodipodi.sourceforge.net/DTD/sodipodi-0.dtd"
   xmlns="http://www.w3.org/2000/svg"
   xmlns:svg="http://www.w3.org/2000/svg">
  <defs
     id="defs3" />
  <sodipodi:namedview
     id="namedview3"
     pagecolor="#ffffff"
     bordercolor="#000000"
     borderopacity="0.25"
     inkscape:showpageshadow="2"
     inkscape:pageopacity="0.0"
     inkscape:pagecheckerboard="0"
     inkscape:deskcolor="#d1d1d1" />
  <path
     id="path1"
     style="baseline-shift:baseline;display:inline;overflow:visible;vector-effect:none;fill:#000000;stroke:none;stroke-linecap:butt;stroke-linejoin:miter;enable-background:accumulate;stop-color:#000000;stop-opacity:1;opacity:1"
     d="M 6 1.5996094 C 4.6792545 1.5996094 3.5996094 2.6792545 3.5996094 4 L 3.5996094 20 C 3.5996094 21.320746 4.6792545 22.400391 6 22.400391 L 18 22.400391 C 19.320746 22.400391 20.400391 21.320746 20.400391 20 A 0.40000001 0.40000001 0 0 0 20 19.599609 A 0.40000001 0.40000001 0 0 0 19.599609 20 C 19.599609 20.888393 18.888393 21.599609 18 21.599609 L 6 21.599609 C 5.1116065 21.599609 4.4003906 20.888393 4.4003906 20 L 4.4003906 4 C 4.4003906 3.1116065 5.1116065 2.4003906 6 2.4003906 L 14.171875 2.4003906 C 14.59634 2.4004813 15.002637 2.568953 15.302734 2.8691406 L 17.716797 5.2832031 A 0.40000001 0.40000001 0 0 0 18.283203 5.2832031 A 0.40000001 0.40000001 0 0 0 18.283203 4.7167969 L 15.869141 2.3027344 C 15.419267 1.8527245 14.808189 1.5997453 14.171875 1.5996094 L 6 1.5996094 z M 19.751953 8.5644531 C 19.182125 8.5928663 18.591752 8.8398887 18.091797 9.3398438 L 14.082031 13.351562 C 13.79674 13.636696 13.58767 13.987817 13.474609 14.375 A 0.40004001 0.40004001 0 0 0 13.474609 14.376953 L 12.636719 17.246094 C 12.443729 17.907774 13.092226 18.554318 13.753906 18.361328 L 16.623047 17.525391 C 17.010229 17.41233 17.363303 17.20326 17.648438 16.917969 L 21.660156 12.908203 C 22.231533 12.336826 22.471365 11.647972 22.433594 11.005859 C 22.395822 10.3637 22.09851 9.7781976 21.660156 9.3398438 C 21.221802 8.9014897 20.636253 8.6041777 19.994141 8.5664062 C 19.913877 8.5616848 19.833357 8.5603941 19.751953 8.5644531 z M 19.789062 9.3613281 C 19.842281 9.3591477 19.89454 9.3601797 19.947266 9.3632812 C 20.369069 9.3880933 20.783057 9.5916508 21.095703 9.9042969 C 21.408349 10.216943 21.611907 10.630931 21.636719 11.052734 C 21.661529 11.474538 21.525659 11.913794 21.095703 12.34375 L 17.082031 16.351562 C 16.891922 16.541777 16.656586 16.682431 16.398438 16.757812 L 13.529297 17.59375 C 13.433077 17.62181 13.376233 17.56692 13.404297 17.470703 L 14.242188 14.599609 C 14.317567 14.341461 14.456271 14.106125 14.646484 13.916016 L 18.65625 9.9042969 C 19.032462 9.5280856 19.416532 9.376591 19.789062 9.3613281 z M 8 17.599609 A 0.40000001 0.40000001 0 0 0 7.5996094 18 A 0.40000001 0.40000001 0 0 0 8 18.400391 L 9 18.400391 A 0.40000001 0.40000001 0 0 0 9.4003906 18 A 0.40000001 0.40000001 0 0 0 9 17.599609 L 8 17.599609 z " />
</svg>
