<?xml version="1.0" encoding="UTF-8" standalone="no"?>
<svg
   width="24"
   height="24"
   viewBox="0 0 24 24"
   fill="none"
   stroke="currentColor"
   stroke-width="0.8"
   stroke-linecap="round"
   stroke-linejoin="round"
   version="1.1"
   id="svg3"
   sodipodi:docname=".tmp_file-heart.svg"
   xmlns:inkscape="http://www.inkscape.org/namespaces/inkscape"
   xmlns:sodipodi="http://sodipodi.sourceforge.net/DTD/sodipodi-0.dtd"
   xmlns="http://www.w3.org/2000/svg"
   xmlns:svg="http://www.w3.org/2000/svg">
  <defs
     id="defs3" />
  <sodipodi:namedview
     id="namedview3"
     pagecolor="#ffffff"
     bordercolor="#000000"
     borderopacity="0.25"
     inkscape:showpageshadow="2"
     inkscape:pageopacity="0.0"
     inkscape:pagecheckerboard="0"
     inkscape:deskcolor="#d1d1d1" />
  <path
     id="path1"
     style="baseline-shift:baseline;display:inline;overflow:visible;vector-effect:none;fill:#000000;stroke:none;stroke-linecap:butt;stroke-linejoin:miter;enable-background:accumulate;stop-color:#000000;stop-opacity:1;opacity:1"
     d="M 6 1.5996094 C 4.6792545 1.5996094 3.5996094 2.6792545 3.5996094 4 L 3.5996094 6.0058594 A 0.40000001 0.40000001 0 0 0 4 6.4042969 A 0.40000001 0.40000001 0 0 0 4.4003906 6.0058594 L 4.4003906 4 C 4.4003906 3.1116065 5.1116065 2.4003906 6 2.4003906 L 13.599609 2.4003906 L 13.599609 6 C 13.599609 7.3207455 14.679254 8.4003906 16 8.4003906 L 19.599609 8.4003906 L 19.599609 20 C 19.599609 20.888393 18.888393 21.599609 18 21.599609 L 6 21.599609 C 5.307176 21.599552 4.6966299 21.15824 4.4804688 20.5 A 0.40000001 0.40000001 0 0 0 3.9746094 20.244141 A 0.40000001 0.40000001 0 0 0 3.7207031 20.748047 C 4.0437277 21.7317 4.9646647 22.400306 6 22.400391 L 18 22.400391 C 19.320746 22.400391 20.400391 21.320746 20.400391 20 L 20.400391 8 L 20.400391 7 A 0.40004001 0.40004001 0 0 0 20.283203 6.7167969 L 15.283203 1.7167969 A 0.40004001 0.40004001 0 0 0 15 1.5996094 L 14 1.5996094 L 6 1.5996094 z M 14.400391 2.4003906 L 14.833984 2.4003906 L 19.599609 7.1660156 L 19.599609 7.5996094 L 16 7.5996094 C 15.111607 7.5996094 14.400391 6.8883935 14.400391 6 L 14.400391 2.4003906 z M 4.3496094 9.5488281 C 3.6568379 9.5323397 2.9995197 9.8085341 2.4960938 10.25 C 1.9926677 10.691466 1.6327128 11.305148 1.5585938 11.994141 C 1.4844747 12.683133 1.7189924 13.437018 2.3320312 14.076172 L 4.9453125 16.919922 L 4.9472656 16.919922 C 5.5001598 17.554766 6.5044413 17.555743 7.0566406 16.919922 L 9.6699219 14.076172 L 9.6738281 14.072266 C 10.275487 13.434087 10.504956 12.684391 10.429688 12 C 10.354249 11.314073 9.9952182 10.703375 9.4941406 10.263672 C 8.9930631 9.8239688 8.3403049 9.5481805 7.6503906 9.5625 C 7.0763955 9.5744136 6.5042024 9.8591447 6.0019531 10.328125 C 5.499688 9.8516971 4.9266561 9.5625622 4.3496094 9.5488281 z M 4.3300781 10.347656 C 4.7941859 10.358706 5.2606316 10.552952 5.6875 11.085938 A 0.40004001 0.40004001 0 0 0 6.3105469 11.087891 C 6.7379949 10.562283 7.2034756 10.370928 7.6660156 10.361328 C 8.1285556 10.351728 8.6009394 10.544189 8.9667969 10.865234 C 9.3326543 11.18628 9.5822368 11.628024 9.6328125 12.087891 C 9.6833885 12.547757 9.5554614 13.03523 9.0898438 13.527344 A 0.40004001 0.40004001 0 0 0 9.0859375 13.53125 L 6.4589844 16.386719 A 0.40004001 0.40004001 0 0 0 6.4511719 16.396484 C 6.2080379 16.676437 5.7919621 16.676437 5.5488281 16.396484 A 0.40004001 0.40004001 0 0 0 5.5410156 16.386719 L 2.9140625 13.529297 A 0.40004001 0.40004001 0 0 0 2.9082031 13.523438 C 2.4355258 13.030665 2.3038611 12.541654 2.3535156 12.080078 C 2.4031701 11.618502 2.655558 11.174164 3.0234375 10.851562 C 3.391317 10.528959 3.8659701 10.33661 4.3300781 10.347656 z " />
</svg>
