<?xml version="1.0" encoding="UTF-8" standalone="no"?>
<svg
   width="24"
   height="24"
   viewBox="0 0 24 24"
   fill="none"
   stroke="currentColor"
   stroke-width="0.8"
   stroke-linecap="round"
   stroke-linejoin="round"
   version="1.1"
   id="svg3"
   sodipodi:docname=".tmp_funnel-x.svg"
   xmlns:inkscape="http://www.inkscape.org/namespaces/inkscape"
   xmlns:sodipodi="http://sodipodi.sourceforge.net/DTD/sodipodi-0.dtd"
   xmlns="http://www.w3.org/2000/svg"
   xmlns:svg="http://www.w3.org/2000/svg">
  <defs
     id="defs3" />
  <sodipodi:namedview
     id="namedview3"
     pagecolor="#ffffff"
     bordercolor="#000000"
     borderopacity="0.25"
     inkscape:showpageshadow="2"
     inkscape:pageopacity="0.0"
     inkscape:pagecheckerboard="0"
     inkscape:deskcolor="#d1d1d1" />
  <path
     id="path1"
     style="baseline-shift:baseline;display:inline;overflow:visible;vector-effect:none;fill:#000000;stroke:none;stroke-linecap:butt;stroke-linejoin:miter;enable-background:accumulate;stop-color:#000000;stop-opacity:1;opacity:1"
     d="M 3 2.5996094 C 2.4088812 2.5998228 1.9285572 2.9638289 1.7207031 3.4316406 C 1.5128491 3.8994524 1.5648879 4.4986764 1.9609375 4.9375 L 9.1855469 12.927734 C 9.4516502 13.221817 9.5994297 13.603395 9.5996094 14 L 9.5996094 20 C 9.5993625 20.529789 9.9010858 21.015138 10.375 21.251953 L 12.375 22.251953 C 13.291131 22.709746 14.400868 22.024144 14.400391 21 L 14.400391 14 C 14.40057 13.603395 14.54835 13.221817 14.814453 12.927734 L 15.240234 12.453125 A 0.40000001 0.40000001 0 0 0 15.212891 11.888672 A 0.40000001 0.40000001 0 0 0 14.646484 11.917969 L 14.220703 12.390625 C 13.821731 12.831541 13.599879 13.405369 13.599609 14 L 13.599609 21 C 13.599825 21.462819 13.146429 21.743989 12.732422 21.537109 L 10.732422 20.537109 C 10.528233 20.435076 10.400284 20.228263 10.400391 20 L 10.400391 14 C 10.400121 13.405369 10.178266 12.831544 9.7792969 12.390625 L 2.5546875 4.4023438 C 2.3703426 4.1980894 2.3594924 3.9622 2.4511719 3.7558594 C 2.5428513 3.5495188 2.7248584 3.40049 3 3.4003906 L 12.53125 3.4003906 A 0.40000001 0.40000001 0 0 0 12.931641 3 A 0.40000001 0.40000001 0 0 0 12.53125 2.5996094 L 3 2.5996094 z M 16.5 3.0996094 A 0.40000001 0.40000001 0 0 0 16.216797 3.2167969 A 0.40000001 0.40000001 0 0 0 16.216797 3.7832031 L 18.433594 6 L 16.216797 8.2167969 A 0.40000001 0.40000001 0 0 0 16.216797 8.7832031 A 0.40000001 0.40000001 0 0 0 16.783203 8.7832031 L 19 6.5664062 L 21.216797 8.7832031 A 0.40000001 0.40000001 0 0 0 21.783203 8.7832031 A 0.40000001 0.40000001 0 0 0 21.783203 8.2167969 L 19.566406 6 L 21.783203 3.7832031 A 0.40000001 0.40000001 0 0 0 21.783203 3.2167969 A 0.40000001 0.40000001 0 0 0 21.216797 3.2167969 L 19 5.4335938 L 16.783203 3.2167969 A 0.40000001 0.40000001 0 0 0 16.5 3.0996094 z " />
</svg>
