<?xml version="1.0" encoding="UTF-8" standalone="no"?>
<svg
   width="24"
   height="24"
   viewBox="0 0 24 24"
   fill="none"
   stroke="currentColor"
   stroke-width="0.8"
   stroke-linecap="round"
   stroke-linejoin="round"
   version="1.1"
   id="svg4"
   sodipodi:docname=".tmp_gallery-thumbnails.svg"
   xmlns:inkscape="http://www.inkscape.org/namespaces/inkscape"
   xmlns:sodipodi="http://sodipodi.sourceforge.net/DTD/sodipodi-0.dtd"
   xmlns="http://www.w3.org/2000/svg"
   xmlns:svg="http://www.w3.org/2000/svg">
  <defs
     id="defs4" />
  <sodipodi:namedview
     id="namedview4"
     pagecolor="#ffffff"
     bordercolor="#000000"
     borderopacity="0.25"
     inkscape:showpageshadow="2"
     inkscape:pageopacity="0.0"
     inkscape:pagecheckerboard="0"
     inkscape:deskcolor="#d1d1d1" />
  <path
     id="rect1"
     style="baseline-shift:baseline;display:inline;overflow:visible;vector-effect:none;fill:#000000;stroke:none;stroke-linecap:butt;stroke-linejoin:miter;enable-background:accumulate;stop-color:#000000;stop-opacity:1;opacity:1"
     d="M 5 2.5996094 C 3.6773189 2.5996094 2.5996094 3.6773189 2.5996094 5 L 2.5996094 15 C 2.5996094 16.322681 3.6773189 17.400391 5 17.400391 L 19 17.400391 C 20.322681 17.400391 21.400391 16.322681 21.400391 15 L 21.400391 5 C 21.400391 3.6773189 20.322681 2.5996094 19 2.5996094 L 5 2.5996094 z M 5 3.4003906 L 19 3.4003906 C 19.893319 3.4003906 20.599609 4.1066811 20.599609 5 L 20.599609 15 C 20.599609 15.893319 19.893319 16.599609 19 16.599609 L 5 16.599609 C 4.1066811 16.599609 3.4003906 15.893319 3.4003906 15 L 3.4003906 5 C 3.4003906 4.1066811 4.1066811 3.4003906 5 3.4003906 z M 4 20.599609 A 0.40000001 0.40000001 0 0 0 3.5996094 21 A 0.40000001 0.40000001 0 0 0 4 21.400391 L 5 21.400391 A 0.40000001 0.40000001 0 0 0 5.4003906 21 A 0.40000001 0.40000001 0 0 0 5 20.599609 L 4 20.599609 z M 9 20.599609 A 0.40000001 0.40000001 0 0 0 8.5996094 21 A 0.40000001 0.40000001 0 0 0 9 21.400391 L 10 21.400391 A 0.40000001 0.40000001 0 0 0 10.400391 21 A 0.40000001 0.40000001 0 0 0 10 20.599609 L 9 20.599609 z M 14 20.599609 A 0.40000001 0.40000001 0 0 0 13.599609 21 A 0.40000001 0.40000001 0 0 0 14 21.400391 L 15 21.400391 A 0.40000001 0.40000001 0 0 0 15.400391 21 A 0.40000001 0.40000001 0 0 0 15 20.599609 L 14 20.599609 z M 19 20.599609 A 0.40000001 0.40000001 0 0 0 18.599609 21 A 0.40000001 0.40000001 0 0 0 19 21.400391 L 20 21.400391 A 0.40000001 0.40000001 0 0 0 20.400391 21 A 0.40000001 0.40000001 0 0 0 20 20.599609 L 19 20.599609 z " />
</svg>
