<?xml version="1.0" encoding="UTF-8" standalone="no"?>
<svg
   width="24"
   height="24"
   viewBox="0 0 24 24"
   fill="none"
   stroke="currentColor"
   stroke-width="0.8"
   stroke-linecap="round"
   stroke-linejoin="round"
   version="1.1"
   id="svg4"
   sodipodi:docname=".tmp_hash.svg"
   xmlns:inkscape="http://www.inkscape.org/namespaces/inkscape"
   xmlns:sodipodi="http://sodipodi.sourceforge.net/DTD/sodipodi-0.dtd"
   xmlns="http://www.w3.org/2000/svg"
   xmlns:svg="http://www.w3.org/2000/svg">
  <defs
     id="defs4" />
  <sodipodi:namedview
     id="namedview4"
     pagecolor="#ffffff"
     bordercolor="#000000"
     borderopacity="0.25"
     inkscape:showpageshadow="2"
     inkscape:pageopacity="0.0"
     inkscape:pagecheckerboard="0"
     inkscape:deskcolor="#d1d1d1" />
  <path
     id="line1"
     style="baseline-shift:baseline;display:inline;overflow:visible;vector-effect:none;fill:#000000;stroke:none;stroke-linecap:butt;stroke-linejoin:miter;enable-background:accumulate;stop-color:#000000;stop-opacity:1;opacity:1"
     d="M 9.9921875 2.5996094 A 0.40000001 0.40000001 0 0 0 9.6015625 2.9550781 L 8.9746094 8.5996094 L 4 8.5996094 A 0.40000001 0.40000001 0 0 0 3.5996094 9 A 0.40000001 0.40000001 0 0 0 4 9.4003906 L 8.8847656 9.4003906 L 8.3085938 14.599609 L 4 14.599609 A 0.40000001 0.40000001 0 0 0 3.5996094 15 A 0.40000001 0.40000001 0 0 0 4 15.400391 L 8.21875 15.400391 L 7.6015625 20.955078 A 0.40000001 0.40000001 0 0 0 7.9550781 21.398438 A 0.40000001 0.40000001 0 0 0 8.3984375 21.044922 L 9.0253906 15.400391 L 14.21875 15.400391 L 13.601562 20.955078 A 0.40000001 0.40000001 0 0 0 13.955078 21.398438 A 0.40000001 0.40000001 0 0 0 14.398438 21.044922 L 15.025391 15.400391 L 20 15.400391 A 0.40000001 0.40000001 0 0 0 20.400391 15 A 0.40000001 0.40000001 0 0 0 20 14.599609 L 15.115234 14.599609 L 15.691406 9.4003906 L 20 9.4003906 A 0.40000001 0.40000001 0 0 0 20.400391 9 A 0.40000001 0.40000001 0 0 0 20 8.5996094 L 15.78125 8.5996094 L 16.398438 3.0449219 A 0.40000001 0.40000001 0 0 0 16.044922 2.6015625 A 0.40000001 0.40000001 0 0 0 15.601562 2.9550781 L 14.974609 8.5996094 L 9.78125 8.5996094 L 10.398438 3.0449219 A 0.40000001 0.40000001 0 0 0 10.044922 2.6015625 A 0.40000001 0.40000001 0 0 0 9.9921875 2.5996094 z M 9.6914062 9.4003906 L 14.884766 9.4003906 L 14.308594 14.599609 L 9.1152344 14.599609 L 9.6914062 9.4003906 z " />
</svg>
