<?xml version="1.0" encoding="UTF-8" standalone="no"?>
<svg
   width="24"
   height="24"
   viewBox="0 0 24 24"
   fill="none"
   stroke="currentColor"
   stroke-width="0.8"
   stroke-linecap="round"
   stroke-linejoin="round"
   version="1.1"
   id="svg2"
   sodipodi:docname=".tmp_headset.svg"
   xmlns:inkscape="http://www.inkscape.org/namespaces/inkscape"
   xmlns:sodipodi="http://sodipodi.sourceforge.net/DTD/sodipodi-0.dtd"
   xmlns="http://www.w3.org/2000/svg"
   xmlns:svg="http://www.w3.org/2000/svg">
  <defs
     id="defs2" />
  <sodipodi:namedview
     id="namedview2"
     pagecolor="#ffffff"
     bordercolor="#000000"
     borderopacity="0.25"
     inkscape:showpageshadow="2"
     inkscape:pageopacity="0.0"
     inkscape:pagecheckerboard="0"
     inkscape:deskcolor="#d1d1d1" />
  <path
     id="path1"
     style="baseline-shift:baseline;display:inline;overflow:visible;vector-effect:none;fill:#000000;stroke:none;stroke-linecap:butt;stroke-linejoin:miter;enable-background:accumulate;stop-color:#000000;stop-opacity:1;opacity:1"
     d="M 12 1.5996094 C 6.8132617 1.5996094 2.5996094 5.813258 2.5996094 11 L 2.5996094 16 C 2.5996094 17.320746 3.6792545 18.400391 5 18.400391 L 6 18.400391 C 7.3207455 18.400391 8.4003906 17.320746 8.4003906 16 L 8.4003906 13 C 8.4003906 11.679254 7.3207455 10.599609 6 10.599609 L 3.4804688 10.599609 C 3.7008482 6.0424884 7.3876582 2.4003906 12 2.4003906 C 16.612342 2.4003906 20.299152 6.0424884 20.519531 10.599609 L 18 10.599609 C 16.679254 10.599609 15.599609 11.679254 15.599609 13 L 15.599609 16 C 15.599609 17.320746 16.679254 18.400391 18 18.400391 L 19 18.400391 C 19.613126 18.400391 20.174293 18.168559 20.599609 17.787109 L 20.599609 18 C 20.599609 19.992963 18.992963 21.599609 17 21.599609 L 12 21.599609 A 0.40000001 0.40000001 0 0 0 11.599609 22 A 0.40000001 0.40000001 0 0 0 12 22.400391 L 17 22.400391 C 19.425315 22.400391 21.400391 20.425315 21.400391 18 L 21.400391 16 L 21.400391 11 C 21.400391 5.813258 17.186738 1.5996094 12 1.5996094 z M 3.4003906 11.400391 L 6 11.400391 C 6.8883935 11.400391 7.5996094 12.111607 7.5996094 13 L 7.5996094 16 C 7.5996094 16.888393 6.8883935 17.599609 6 17.599609 L 5 17.599609 C 4.1116065 17.599609 3.4003906 16.888393 3.4003906 16 L 3.4003906 11.400391 z M 18 11.400391 L 20.599609 11.400391 L 20.599609 16 C 20.599609 16.888393 19.888393 17.599609 19 17.599609 L 18 17.599609 C 17.111607 17.599609 16.400391 16.888393 16.400391 16 L 16.400391 13 C 16.400391 12.111607 17.111607 11.400391 18 11.400391 z " />
</svg>
