<?xml version="1.0" encoding="UTF-8" standalone="no"?>
<svg
   width="24"
   height="24"
   viewBox="0 0 24 24"
   fill="none"
   stroke="currentColor"
   stroke-width="0.8"
   stroke-linecap="round"
   stroke-linejoin="round"
   version="1.1"
   id="svg4"
   sodipodi:docname=".tmp_house-plus.svg"
   xmlns:inkscape="http://www.inkscape.org/namespaces/inkscape"
   xmlns:sodipodi="http://sodipodi.sourceforge.net/DTD/sodipodi-0.dtd"
   xmlns="http://www.w3.org/2000/svg"
   xmlns:svg="http://www.w3.org/2000/svg">
  <defs
     id="defs4" />
  <sodipodi:namedview
     id="namedview4"
     pagecolor="#ffffff"
     bordercolor="#000000"
     borderopacity="0.25"
     inkscape:showpageshadow="2"
     inkscape:pageopacity="0.0"
     inkscape:pagecheckerboard="0"
     inkscape:deskcolor="#d1d1d1" />
  <path
     id="path1"
     style="baseline-shift:baseline;display:inline;overflow:visible;vector-effect:none;fill:#000000;stroke:none;stroke-linecap:butt;stroke-linejoin:miter;enable-background:accumulate;stop-color:#000000;stop-opacity:1;opacity:1"
     d="M 12 1.5996094 C 11.448995 1.5996094 10.897163 1.7876289 10.451172 2.1640625 A 0.40004001 0.40004001 0 0 0 10.449219 2.1660156 L 3.4492188 8.1660156 C 2.9099412 8.6222761 2.599032 9.2934809 2.5996094 10 L 2.5996094 19 C 2.5996094 20.320746 3.6792545 21.400391 5 21.400391 L 12.349609 21.400391 A 0.40000001 0.40000001 0 0 0 12.75 21 A 0.40000001 0.40000001 0 0 0 12.349609 20.599609 L 9.4003906 20.599609 L 9.4003906 13 C 9.4003906 12.663891 9.6638913 12.400391 10 12.400391 L 14 12.400391 C 14.189205 12.400391 14.366946 12.489261 14.480469 12.640625 A 0.40000001 0.40000001 0 0 0 15.039062 12.720703 A 0.40000001 0.40000001 0 0 0 15.119141 12.160156 C 14.854953 11.807907 14.440309 11.599609 14 11.599609 L 10 11.599609 C 9.2315392 11.599609 8.5996094 12.231539 8.5996094 13 L 8.5996094 20.599609 L 5 20.599609 C 4.1116065 20.599609 3.4003906 19.888393 3.4003906 19 L 3.4003906 10 C 3.4000049 9.5279555 3.6080216 9.0798593 3.96875 8.7753906 A 0.40004001 0.40004001 0 0 0 3.9707031 8.7734375 L 10.96875 2.7753906 L 10.970703 2.7734375 C 11.568742 2.2703383 12.433825 2.271144 13.03125 2.7753906 L 20.029297 8.7734375 A 0.40004001 0.40004001 0 0 0 20.03125 8.7753906 C 20.391887 9.0798593 20.599995 9.5279555 20.599609 10 L 20.599609 12.349609 A 0.40000001 0.40000001 0 0 0 21 12.75 A 0.40000001 0.40000001 0 0 0 21.400391 12.349609 L 21.400391 10 C 21.400968 9.2934809 21.090106 8.622273 20.550781 8.1660156 L 20.548828 8.1640625 L 13.550781 2.1660156 A 0.40004001 0.40004001 0 0 0 13.548828 2.1640625 C 13.102931 1.7876227 12.551005 1.5996094 12 1.5996094 z M 18 14.599609 A 0.40000001 0.40000001 0 0 0 17.599609 15 L 17.599609 17.599609 L 15 17.599609 A 0.40000001 0.40000001 0 0 0 14.599609 18 A 0.40000001 0.40000001 0 0 0 15 18.400391 L 17.599609 18.400391 L 17.599609 21 A 0.40000001 0.40000001 0 0 0 18 21.400391 A 0.40000001 0.40000001 0 0 0 18.400391 21 L 18.400391 18.400391 L 21 18.400391 A 0.40000001 0.40000001 0 0 0 21.400391 18 A 0.40000001 0.40000001 0 0 0 21 17.599609 L 18.400391 17.599609 L 18.400391 15 A 0.40000001 0.40000001 0 0 0 18 14.599609 z " />
</svg>
