<?xml version="1.0" encoding="UTF-8" standalone="no"?>
<svg
   width="24"
   height="24"
   viewBox="0 0 24 24"
   fill="none"
   stroke="currentColor"
   stroke-width="0.8"
   stroke-linecap="round"
   stroke-linejoin="round"
   version="1.1"
   id="svg3"
   sodipodi:docname=".tmp_image-play.svg"
   xmlns:inkscape="http://www.inkscape.org/namespaces/inkscape"
   xmlns:sodipodi="http://sodipodi.sourceforge.net/DTD/sodipodi-0.dtd"
   xmlns="http://www.w3.org/2000/svg"
   xmlns:svg="http://www.w3.org/2000/svg">
  <defs
     id="defs3" />
  <sodipodi:namedview
     id="namedview3"
     pagecolor="#ffffff"
     bordercolor="#000000"
     borderopacity="0.25"
     inkscape:showpageshadow="2"
     inkscape:pageopacity="0.0"
     inkscape:pagecheckerboard="0"
     inkscape:deskcolor="#d1d1d1" />
  <path
     id="path1"
     style="baseline-shift:baseline;display:inline;overflow:visible;vector-effect:none;fill:#000000;stroke:none;stroke-linecap:butt;stroke-linejoin:miter;enable-background:accumulate;stop-color:#000000;stop-opacity:1;opacity:1"
     d="M 5 2.5996094 C 3.6792545 2.5996094 2.5996094 3.6792545 2.5996094 5 L 2.5996094 19 C 2.5996094 20.320746 3.6792545 21.400391 5 21.400391 L 11 21.400391 A 0.40000001 0.40000001 0 0 0 11.400391 21 A 0.40000001 0.40000001 0 0 0 11 20.599609 L 6.9667969 20.599609 L 11.283203 16.283203 A 0.40000001 0.40000001 0 0 0 11.283203 15.716797 A 0.40000001 0.40000001 0 0 0 10.716797 15.716797 L 5.8339844 20.599609 L 5 20.599609 C 4.1116065 20.599609 3.4003906 19.888393 3.4003906 19 L 3.4003906 5 C 3.4003906 4.1116065 4.1116065 3.4003906 5 3.4003906 L 19 3.4003906 C 19.888393 3.4003906 20.599609 4.1116065 20.599609 5 L 20.599609 12.169922 A 0.40000001 0.40000001 0 0 0 21 12.570312 A 0.40000001 0.40000001 0 0 0 21.400391 12.169922 L 21.400391 5 C 21.400391 3.6792545 20.320746 2.5996094 19 2.5996094 L 5 2.5996094 z M 9 6.5996094 C 7.6792545 6.5996094 6.5996094 7.6792545 6.5996094 9 C 6.5996094 10.320746 7.6792545 11.400391 9 11.400391 C 10.320746 11.400391 11.400391 10.320746 11.400391 9 C 11.400391 7.6792545 10.320746 6.5996094 9 6.5996094 z M 9 7.4003906 C 9.8883935 7.4003906 10.599609 8.1116065 10.599609 9 C 10.599609 9.8883935 9.8883935 10.599609 9 10.599609 C 8.1116065 10.599609 7.4003906 9.8883935 7.4003906 9 C 7.4003906 8.1116065 8.1116065 7.4003906 9 7.4003906 z M 16.003906 13.605469 C 15.761636 13.608537 15.524462 13.675151 15.316406 13.792969 C 14.899717 14.028919 14.597993 14.468081 14.599609 15.003906 L 14.599609 20.996094 C 14.596709 22.06648 15.80562 22.751142 16.722656 22.199219 L 21.71875 19.203125 L 21.720703 19.201172 C 22.612734 18.666936 22.612734 17.333064 21.720703 16.798828 L 16.724609 13.800781 L 16.722656 13.800781 C 16.493544 13.66289 16.246177 13.6024 16.003906 13.605469 z M 15.992188 14.392578 C 16.09745 14.394105 16.206063 14.423222 16.310547 14.486328 L 21.308594 17.484375 C 21.714511 17.726307 21.714511 18.273693 21.308594 18.515625 L 16.310547 21.513672 C 15.892344 21.766264 15.398427 21.486612 15.400391 20.998047 A 0.40004001 0.40004001 0 0 0 15.400391 20.996094 L 15.400391 15.003906 A 0.40004001 0.40004001 0 0 0 15.400391 15.001953 C 15.399654 14.75783 15.521773 14.566169 15.697266 14.466797 C 15.785012 14.417112 15.886925 14.391051 15.992188 14.392578 z " />
</svg>
