<?xml version="1.0" encoding="UTF-8" standalone="no"?>
<svg
   width="24"
   height="24"
   viewBox="0 0 24 24"
   fill="none"
   stroke="currentColor"
   stroke-width="0.8"
   stroke-linecap="round"
   stroke-linejoin="round"
   version="1.1"
   id="svg1"
   sodipodi:docname=".tmp_mail.svg"
   xmlns:inkscape="http://www.inkscape.org/namespaces/inkscape"
   xmlns:sodipodi="http://sodipodi.sourceforge.net/DTD/sodipodi-0.dtd"
   xmlns="http://www.w3.org/2000/svg"
   xmlns:svg="http://www.w3.org/2000/svg">
  <defs
     id="defs1" />
  <sodipodi:namedview
     id="namedview1"
     pagecolor="#ffffff"
     bordercolor="#000000"
     borderopacity="0.25"
     inkscape:showpageshadow="2"
     inkscape:pageopacity="0.0"
     inkscape:pagecheckerboard="0"
     inkscape:deskcolor="#d1d1d1" />
  <path
     id="path1"
     style="baseline-shift:baseline;display:inline;overflow:visible;vector-effect:none;fill:#000000;stroke:none;stroke-linecap:butt;stroke-linejoin:miter;enable-background:accumulate;stop-color:#000000;stop-opacity:1;opacity:1"
     d="M 4 3.5996094 C 2.6773189 3.5996094 1.5996094 4.6773189 1.5996094 6 L 1.5996094 6.9882812 A 0.40000001 0.40000001 0 0 0 1.5996094 7.0117188 L 1.5996094 18 C 1.5996094 19.322681 2.6773189 20.400391 4 20.400391 L 20 20.400391 C 21.322681 20.400391 22.400391 19.322681 22.400391 18 L 22.400391 7.0117188 A 0.40000001 0.40000001 0 0 0 22.400391 6.9882812 L 22.400391 6 C 22.400391 4.6773189 21.322681 3.5996094 20 3.5996094 L 4 3.5996094 z M 4 4.4003906 L 20 4.4003906 C 20.893319 4.4003906 21.599609 5.1066811 21.599609 6 L 21.599609 6.78125 L 12.806641 12.380859 C 12.310135 12.668379 11.699631 12.668379 11.203125 12.380859 L 11.201172 12.380859 L 2.4003906 6.7792969 L 2.4003906 6 C 2.4003906 5.1066811 3.1066811 4.4003906 4 4.4003906 z M 2.4003906 7.7285156 L 10.785156 13.064453 A 0.40004001 0.40004001 0 0 0 10.798828 13.072266 C 11.543562 13.504824 12.46425 13.504824 13.208984 13.072266 A 0.40004001 0.40004001 0 0 0 13.224609 13.064453 L 21.599609 7.7304688 L 21.599609 18 C 21.599609 18.893319 20.893319 19.599609 20 19.599609 L 4 19.599609 C 3.1066811 19.599609 2.4003906 18.893319 2.4003906 18 L 2.4003906 7.7285156 z " />
</svg>
