<?xml version="1.0" encoding="UTF-8" standalone="no"?>
<svg
   width="24"
   height="24"
   viewBox="0 0 24 24"
   fill="none"
   stroke="currentColor"
   stroke-width="0.8"
   stroke-linecap="round"
   stroke-linejoin="round"
   version="1.1"
   id="svg2"
   sodipodi:docname=".tmp_mouse-pointer.svg"
   xmlns:inkscape="http://www.inkscape.org/namespaces/inkscape"
   xmlns:sodipodi="http://sodipodi.sourceforge.net/DTD/sodipodi-0.dtd"
   xmlns="http://www.w3.org/2000/svg"
   xmlns:svg="http://www.w3.org/2000/svg">
  <defs
     id="defs2" />
  <sodipodi:namedview
     id="namedview2"
     pagecolor="#ffffff"
     bordercolor="#000000"
     borderopacity="0.25"
     inkscape:showpageshadow="2"
     inkscape:pageopacity="0.0"
     inkscape:pagecheckerboard="0"
     inkscape:deskcolor="#d1d1d1" />
  <path
     id="path1"
     style="baseline-shift:baseline;display:inline;overflow:visible;vector-effect:none;fill:#000000;stroke:none;stroke-linecap:butt;stroke-linejoin:miter;enable-background:accumulate;stop-color:#000000;stop-opacity:1;opacity:1"
     d="M 3.4394531 2.6015625 C 3.2174462 2.6170115 3.0091266 2.7135296 2.8613281 2.8613281 C 2.6248505 3.0978057 2.5185234 3.4891273 2.6679688 3.84375 L 9.1660156 19.837891 A 0.40004001 0.40004001 0 0 0 9.1679688 19.839844 C 9.3240931 20.217515 9.7083958 20.417459 10.058594 20.394531 C 10.408791 20.371601 10.765543 20.123318 10.871094 19.728516 A 0.40004001 0.40004001 0 0 0 10.871094 19.724609 L 12.439453 13.642578 A 0.40004001 0.40004001 0 0 0 12.441406 13.632812 C 12.478889 13.473398 12.540403 13.324075 12.621094 13.1875 L 18.716797 19.283203 A 0.40000001 0.40000001 0 0 0 19.283203 19.283203 A 0.40000001 0.40000001 0 0 0 19.283203 18.716797 L 13.1875 12.621094 C 13.314866 12.546373 13.454251 12.489119 13.601562 12.451172 L 19.724609 10.871094 C 20.121907 10.767942 20.373114 10.411848 20.396484 10.060547 C 20.419854 9.7092461 20.219976 9.3208862 19.839844 9.1660156 A 0.40004001 0.40004001 0 0 0 19.837891 9.1660156 L 3.84375 2.6679688 C 3.7107665 2.6119267 3.5726573 2.5922931 3.4394531 2.6015625 z M 3.4765625 3.3945312 C 3.4914815 3.3924033 3.5086503 3.3959027 3.5332031 3.40625 A 0.40004001 0.40004001 0 0 0 3.5371094 3.4082031 L 19.537109 9.9082031 C 19.602579 9.9348761 19.602709 9.9592754 19.599609 10.005859 C 19.596509 10.051839 19.591311 10.077963 19.525391 10.095703 L 13.400391 11.675781 C 12.984877 11.782816 12.613655 11.996918 12.318359 12.287109 A 0.40000001 0.40000001 0 0 0 12.302734 12.302734 A 0.40000001 0.40000001 0 0 0 12.287109 12.320312 C 11.985526 12.628169 11.766295 13.016378 11.664062 13.451172 L 10.097656 19.521484 L 10.095703 19.521484 C 10.077563 19.586934 10.051879 19.592693 10.005859 19.595703 C 9.9603084 19.598703 9.9344451 19.597699 9.9082031 19.537109 L 9.90625 19.535156 L 3.4082031 3.5371094 A 0.40004001 0.40004001 0 0 0 3.40625 3.5332031 C 3.3826 3.4770821 3.3961712 3.455392 3.4257812 3.4257812 C 3.4424369 3.4091251 3.4573809 3.3972672 3.4765625 3.3945312 z " />
</svg>
