<?xml version="1.0" encoding="UTF-8" standalone="no"?>
<svg
   width="24"
   height="24"
   viewBox="0 0 24 24"
   fill="none"
   stroke="currentColor"
   stroke-width="0.8"
   stroke-linecap="round"
   stroke-linejoin="round"
   version="1.1"
   id="svg2"
   sodipodi:docname=".tmp_move-down-right.svg"
   xmlns:inkscape="http://www.inkscape.org/namespaces/inkscape"
   xmlns:sodipodi="http://sodipodi.sourceforge.net/DTD/sodipodi-0.dtd"
   xmlns="http://www.w3.org/2000/svg"
   xmlns:svg="http://www.w3.org/2000/svg">
  <defs
     id="defs2" />
  <sodipodi:namedview
     id="namedview2"
     pagecolor="#ffffff"
     bordercolor="#000000"
     borderopacity="0.25"
     inkscape:showpageshadow="2"
     inkscape:pageopacity="0.0"
     inkscape:pagecheckerboard="0"
     inkscape:deskcolor="#d1d1d1" />
  <path
     id="path1"
     style="baseline-shift:baseline;display:inline;overflow:visible;vector-effect:none;fill:#000000;stroke:none;stroke-linecap:butt;stroke-linejoin:miter;enable-background:accumulate;stop-color:#000000;stop-opacity:1;opacity:1"
     d="M 5 4.5996094 A 0.40000001 0.40000001 0 0 0 4.7167969 4.7167969 A 0.40000001 0.40000001 0 0 0 4.7167969 5.2832031 L 18.033203 18.599609 L 13 18.599609 A 0.40000001 0.40000001 0 0 0 12.599609 19 A 0.40000001 0.40000001 0 0 0 13 19.400391 L 18.984375 19.400391 L 19 19.400391 A 0.40000001 0.40000001 0 0 0 19.013672 19.398438 A 0.40004001 0.40004001 0 0 0 19.039062 19.398438 A 0.40000001 0.40000001 0 0 0 19.052734 19.396484 A 0.40000001 0.40000001 0 0 0 19.103516 19.386719 A 0.40000001 0.40000001 0 0 0 19.152344 19.369141 A 0.40004001 0.40004001 0 0 0 19.179688 19.357422 A 0.40000001 0.40000001 0 0 0 19.195312 19.349609 A 0.40004001 0.40004001 0 0 0 19.230469 19.328125 A 0.40004001 0.40004001 0 0 0 19.242188 19.320312 A 0.40000001 0.40000001 0 0 0 19.244141 19.318359 A 0.40004001 0.40004001 0 0 0 19.320312 19.242188 A 0.40000001 0.40000001 0 0 0 19.328125 19.230469 A 0.40004001 0.40004001 0 0 0 19.349609 19.195312 A 0.40000001 0.40000001 0 0 0 19.357422 19.179688 A 0.40004001 0.40004001 0 0 0 19.369141 19.152344 A 0.40000001 0.40000001 0 0 0 19.386719 19.103516 A 0.40000001 0.40000001 0 0 0 19.396484 19.052734 A 0.40004001 0.40004001 0 0 0 19.398438 19.039062 A 0.40000001 0.40000001 0 0 0 19.400391 19 L 19.400391 18.984375 L 19.400391 13 A 0.40000001 0.40000001 0 0 0 19 12.599609 A 0.40000001 0.40000001 0 0 0 18.599609 13 L 18.599609 18.033203 L 5.2832031 4.7167969 A 0.40000001 0.40000001 0 0 0 5 4.5996094 z " />
</svg>
