<?xml version="1.0" encoding="UTF-8" standalone="no"?>
<svg
   width="24"
   height="24"
   viewBox="0 0 24 24"
   fill="none"
   stroke="currentColor"
   stroke-width="0.8"
   stroke-linecap="round"
   stroke-linejoin="round"
   version="1.1"
   id="svg2"
   sodipodi:docname=".tmp_move-down-left.svg"
   xmlns:inkscape="http://www.inkscape.org/namespaces/inkscape"
   xmlns:sodipodi="http://sodipodi.sourceforge.net/DTD/sodipodi-0.dtd"
   xmlns="http://www.w3.org/2000/svg"
   xmlns:svg="http://www.w3.org/2000/svg">
  <defs
     id="defs2" />
  <sodipodi:namedview
     id="namedview2"
     pagecolor="#ffffff"
     bordercolor="#000000"
     borderopacity="0.25"
     inkscape:showpageshadow="2"
     inkscape:pageopacity="0.0"
     inkscape:pagecheckerboard="0"
     inkscape:deskcolor="#d1d1d1" />
  <path
     id="path1"
     style="baseline-shift:baseline;display:inline;overflow:visible;vector-effect:none;fill:#000000;stroke:none;stroke-linecap:butt;stroke-linejoin:miter;enable-background:accumulate;stop-color:#000000;stop-opacity:1;opacity:1"
     d="M 19 4.5996094 A 0.40000001 0.40000001 0 0 0 18.716797 4.7167969 L 5.4003906 18.033203 L 5.4003906 13 A 0.40000001 0.40000001 0 0 0 5 12.599609 A 0.40000001 0.40000001 0 0 0 4.5996094 13 L 4.5996094 18.984375 L 4.5996094 19 A 0.40004001 0.40004001 0 0 0 4.6015625 19.013672 A 0.40000001 0.40000001 0 0 0 4.6015625 19.039062 A 0.40004001 0.40004001 0 0 0 4.6035156 19.052734 A 0.40000001 0.40000001 0 0 0 4.6132812 19.103516 A 0.40000001 0.40000001 0 0 0 4.6308594 19.152344 A 0.40000001 0.40000001 0 0 0 4.6503906 19.195312 A 0.40004001 0.40004001 0 0 0 4.671875 19.230469 A 0.40000001 0.40000001 0 0 0 4.6796875 19.242188 A 0.40004001 0.40004001 0 0 0 4.7558594 19.318359 A 0.40000001 0.40000001 0 0 0 4.7695312 19.328125 A 0.40004001 0.40004001 0 0 0 4.8046875 19.349609 A 0.40004001 0.40004001 0 0 0 4.8476562 19.369141 A 0.40000001 0.40000001 0 0 0 4.8964844 19.386719 A 0.40000001 0.40000001 0 0 0 4.9472656 19.396484 A 0.40000001 0.40000001 0 0 0 4.9609375 19.398438 A 0.40004001 0.40004001 0 0 0 5 19.400391 A 0.40000001 0.40000001 0 0 0 5.015625 19.400391 L 11 19.400391 A 0.40000001 0.40000001 0 0 0 11.400391 19 A 0.40000001 0.40000001 0 0 0 11 18.599609 L 5.9667969 18.599609 L 19.283203 5.2832031 A 0.40000001 0.40000001 0 0 0 19.283203 4.7167969 A 0.40000001 0.40000001 0 0 0 19 4.5996094 z " />
</svg>
