<?xml version="1.0" encoding="UTF-8" standalone="no"?>
<svg
   width="24"
   height="24"
   viewBox="0 0 24 24"
   fill="none"
   stroke="currentColor"
   stroke-width="0.8"
   stroke-linecap="round"
   stroke-linejoin="round"
   version="1.1"
   id="svg5"
   sodipodi:docname=".tmp_pointer.svg"
   xmlns:inkscape="http://www.inkscape.org/namespaces/inkscape"
   xmlns:sodipodi="http://sodipodi.sourceforge.net/DTD/sodipodi-0.dtd"
   xmlns="http://www.w3.org/2000/svg"
   xmlns:svg="http://www.w3.org/2000/svg">
  <defs
     id="defs5" />
  <sodipodi:namedview
     id="namedview5"
     pagecolor="#ffffff"
     bordercolor="#000000"
     borderopacity="0.25"
     inkscape:showpageshadow="2"
     inkscape:pageopacity="0.0"
     inkscape:pagecheckerboard="0"
     inkscape:deskcolor="#d1d1d1" />
  <path
     id="path1"
     style="baseline-shift:baseline;display:inline;overflow:visible;vector-effect:none;fill:#000000;stroke:none;stroke-linecap:butt;stroke-linejoin:miter;enable-background:accumulate;stop-color:#000000;stop-opacity:1;opacity:1"
     d="M 8 1.5996094 C 6.6792545 1.5996094 5.5996094 2.6792545 5.5996094 4 L 5.5996094 13.033203 L 5.5234375 12.957031 A 0.40004001 0.40004001 0 0 0 5.5097656 12.943359 C 4.967547 12.45028 4.3283488 12.251688 3.7363281 12.296875 C 3.1443075 12.342065 2.6057416 12.616391 2.2011719 13.019531 C 1.7966021 13.422671 1.5179853 13.960877 1.4707031 14.552734 C 1.4234211 15.144591 1.6221266 15.784164 2.1132812 16.328125 A 0.40004001 0.40004001 0 0 0 2.1269531 16.34375 L 5.7265625 19.943359 A 0.40004001 0.40004001 0 0 0 5.7285156 19.943359 C 7.2714787 21.475959 9.1180952 22.400391 12 22.400391 L 14 22.400391 C 18.634454 22.400391 22.400391 18.634454 22.400391 14 L 22.400391 11 C 22.400391 10.233334 22.098098 9.6078142 21.640625 9.2011719 C 21.183152 8.7945296 20.588889 8.5996094 20 8.5996094 C 19.411111 8.5996094 18.816848 8.7945296 18.359375 9.2011719 C 18.3345 9.2232829 18.311043 9.2461385 18.287109 9.2695312 C 17.976363 8.3033951 17.066274 7.5996094 16 7.5996094 C 15.336757 7.5996094 14.73428 7.8722121 14.298828 8.3105469 C 14.000822 7.3234993 13.081218 6.5996094 12 6.5996094 C 11.386874 6.5996094 10.825707 6.8314409 10.400391 7.2128906 L 10.400391 4 C 10.400391 2.6792545 9.3207455 1.5996094 8 1.5996094 z M 8 2.4003906 C 8.8883935 2.4003906 9.5996094 3.1116065 9.5996094 4 L 9.5996094 9.5 L 9.5996094 10 A 0.40000001 0.40000001 0 0 0 10 10.400391 A 0.40000001 0.40000001 0 0 0 10.400391 10 L 10.400391 9 C 10.400391 8.1116065 11.111607 7.4003906 12 7.4003906 C 12.888393 7.4003906 13.599609 8.1116065 13.599609 9 L 13.599609 10 A 0.40000001 0.40000001 0 0 0 14 10.400391 A 0.40000001 0.40000001 0 0 0 14.052734 10.396484 A 0.40000001 0.40000001 0 0 0 14.400391 10 C 14.400391 9.1116065 15.111607 8.4003906 16 8.4003906 C 16.888393 8.4003906 17.599609 9.1116065 17.599609 10 L 17.599609 11 A 0.40000001 0.40000001 0 0 0 18 11.400391 A 0.40000001 0.40000001 0 0 0 18.400391 11 C 18.400391 10.433334 18.598098 10.058852 18.890625 9.7988281 C 19.183152 9.538804 19.588889 9.4003906 20 9.4003906 C 20.411111 9.4003906 20.816848 9.538804 21.109375 9.7988281 C 21.401902 10.058852 21.599609 10.433334 21.599609 11 L 21.599609 14 C 21.599609 17.939471 18.61303 21.171897 14.777344 21.560547 C 14.521631 21.586457 14.262631 21.599609 14 21.599609 L 12 21.599609 C 9.2826596 21.599609 7.7296739 20.803602 6.2929688 19.376953 L 6.2910156 19.376953 L 2.7070312 15.791016 C 2.3475523 15.392888 2.239142 14.995632 2.2695312 14.615234 C 2.2999202 14.234836 2.4848043 13.865766 2.765625 13.585938 C 3.0464457 13.306109 3.4163717 13.122792 3.796875 13.09375 C 4.1760603 13.06481 4.5713186 13.1753 4.9667969 13.533203 L 4.96875 13.533203 L 4.96875 13.535156 L 4.9707031 13.535156 L 5.6992188 14.263672 L 5.7148438 14.279297 A 0.40000001 0.40000001 0 0 0 5.7382812 14.304688 L 6.7167969 15.283203 A 0.40000001 0.40000001 0 0 0 7.2832031 15.283203 A 0.40000001 0.40000001 0 0 0 7.2832031 14.716797 L 6.4003906 13.833984 L 6.4003906 4 C 6.4003906 3.1116065 7.1116065 2.4003906 8 2.4003906 z " />
</svg>
