<?xml version="1.0" encoding="UTF-8" standalone="no"?>
<svg
   width="24"
   height="24"
   viewBox="0 0 24 24"
   fill="none"
   stroke="currentColor"
   stroke-width="0.8"
   stroke-linecap="round"
   stroke-linejoin="round"
   version="1.1"
   id="svg2"
   sodipodi:docname=".tmp_pyramid.svg"
   xmlns:inkscape="http://www.inkscape.org/namespaces/inkscape"
   xmlns:sodipodi="http://sodipodi.sourceforge.net/DTD/sodipodi-0.dtd"
   xmlns="http://www.w3.org/2000/svg"
   xmlns:svg="http://www.w3.org/2000/svg">
  <defs
     id="defs2" />
  <sodipodi:namedview
     id="namedview2"
     pagecolor="#ffffff"
     bordercolor="#000000"
     borderopacity="0.25"
     inkscape:showpageshadow="2"
     inkscape:pageopacity="0.0"
     inkscape:pagecheckerboard="0"
     inkscape:deskcolor="#d1d1d1" />
  <path
     id="path1"
     style="baseline-shift:baseline;display:inline;overflow:visible;vector-effect:none;fill:#000000;stroke:none;stroke-linecap:butt;stroke-linejoin:miter;enable-background:accumulate;stop-color:#000000;stop-opacity:1;opacity:1"
     d="M 12 1.5996094 A 0.40000001 0.40000001 0 0 0 11.896484 1.6132812 C 11.495286 1.642044 11.104813 1.8383509 10.851562 2.2011719 A 0.40004001 0.40004001 0 0 0 10.851562 2.203125 L 1.8515625 15.222656 A 0.40004001 0.40004001 0 0 0 1.8496094 15.222656 C 1.3920389 15.88847 1.6011224 16.817319 2.2988281 17.224609 A 0.40004001 0.40004001 0 0 0 2.3007812 17.226562 L 10.8125 22.087891 C 11.548412 22.507133 12.451588 22.507133 13.1875 22.087891 L 21.699219 17.226562 C 22.405356 16.819747 22.614666 15.880951 22.148438 15.212891 L 22.148438 15.210938 L 13.148438 2.203125 A 0.40004001 0.40004001 0 0 0 13.148438 2.2011719 C 12.895187 1.8383481 12.504714 1.642044 12.103516 1.6132812 A 0.40000001 0.40000001 0 0 0 12 1.5996094 z M 11.599609 2.5546875 L 11.599609 21.550781 C 11.464718 21.515862 11.33328 21.463175 11.208984 21.392578 L 11.207031 21.392578 L 2.7011719 16.535156 C 2.3948374 16.356331 2.3088649 15.968113 2.5097656 15.675781 L 11.509766 2.6582031 C 11.53698 2.6194531 11.567144 2.5849345 11.599609 2.5546875 z M 12.400391 2.5546875 C 12.432856 2.5849345 12.46302 2.6194531 12.490234 2.6582031 L 21.490234 15.667969 A 0.40004001 0.40004001 0 0 0 21.492188 15.669922 C 21.697734 15.963523 21.611331 16.354291 21.300781 16.533203 L 12.792969 21.392578 C 12.668066 21.463734 12.53602 21.515891 12.400391 21.550781 L 12.400391 2.5546875 z " />
</svg>
