<?xml version="1.0" encoding="UTF-8" standalone="no"?>
<svg
   width="24"
   height="24"
   viewBox="0 0 24 24"
   fill="none"
   stroke="currentColor"
   stroke-width="0.8"
   stroke-linecap="round"
   stroke-linejoin="round"
   version="1.1"
   id="svg5"
   sodipodi:docname=".tmp_rabbit.svg"
   xmlns:inkscape="http://www.inkscape.org/namespaces/inkscape"
   xmlns:sodipodi="http://sodipodi.sourceforge.net/DTD/sodipodi-0.dtd"
   xmlns="http://www.w3.org/2000/svg"
   xmlns:svg="http://www.w3.org/2000/svg">
  <defs
     id="defs5" />
  <sodipodi:namedview
     id="namedview5"
     pagecolor="#ffffff"
     bordercolor="#000000"
     borderopacity="0.25"
     inkscape:showpageshadow="2"
     inkscape:pageopacity="0.0"
     inkscape:pagecheckerboard="0"
     inkscape:deskcolor="#d1d1d1" />
  <path
     id="path1"
     style="baseline-shift:baseline;display:inline;overflow:visible;vector-effect:none;fill:#000000;stroke:none;stroke-linecap:butt;stroke-linejoin:miter;enable-background:accumulate;stop-color:#000000;stop-opacity:1;opacity:1"
     d="M 18 1.5996094 C 17.411111 1.5996094 16.816848 1.7945296 16.359375 2.2011719 C 15.901902 2.6078142 15.599609 3.2333336 15.599609 4 L 15.599609 6.234375 L 12.683594 3.3164062 C 12.146217 2.779029 11.49466 2.5522442 10.888672 2.5878906 C 10.282684 2.6235371 9.7292601 2.9035522 9.3164062 3.3164062 C 8.9035522 3.7292601 8.6235371 4.2826842 8.5878906 4.8886719 C 8.5522442 5.4946595 8.7790291 6.1462166 9.3164062 6.6835938 L 12.363281 9.7285156 C 10.540913 9.8925404 8.8987353 10.695613 7.6894531 11.917969 C 6.9545843 10.960968 5.8234263 10.542459 4.7324219 10.628906 C 3.4966271 10.726826 2.3136515 11.472857 1.8144531 12.814453 C 0.88213919 15.320047 3.1184231 17.812977 5.6132812 17.345703 C 5.7905598 19.609995 7.6911827 21.400391 10 21.400391 L 15.208984 21.400391 A 0.40000001 0.40000001 0 0 0 15.271484 21.400391 L 18 21.400391 A 0.40000001 0.40000001 0 0 0 18.400391 21 A 0.40000001 0.40000001 0 0 0 18 20.599609 L 16.009766 20.599609 C 16.308065 20.045559 16.431227 19.443604 16.404297 18.857422 C 16.477887 17.483718 17.607239 16.400391 19 16.400391 L 20 16.400391 C 21.320746 16.400391 22.400391 15.320746 22.400391 14 L 22.400391 13 C 22.400391 11.181467 21.630319 9.5337115 20.400391 8.3652344 L 20.400391 4 C 20.400391 3.2333336 20.098098 2.6078142 19.640625 2.2011719 C 19.183152 1.7945296 18.588889 1.5996094 18 1.5996094 z M 18 2.4003906 C 18.411111 2.4003906 18.816848 2.538804 19.109375 2.7988281 C 19.401902 3.0588522 19.599609 3.4333337 19.599609 4 L 19.599609 7.7167969 C 18.675774 7.0839097 17.579869 6.6851619 16.400391 6.6113281 L 16.400391 4 C 16.400391 3.4333337 16.598098 3.0588522 16.890625 2.7988281 C 17.183152 2.538804 17.588889 2.4003906 18 2.4003906 z M 11.080078 3.3847656 C 11.42043 3.39849 11.770726 3.5363512 12.117188 3.8828125 L 15.517578 7.2832031 A 0.40004001 0.40004001 0 0 0 15.800781 7.4003906 L 16 7.4003906 C 17.414902 7.4005733 18.711262 7.9321751 19.699219 8.8046875 A 0.40000001 0.40000001 0 0 0 19.769531 8.8652344 C 20.893113 9.8908543 21.599609 11.366672 21.599609 13 L 21.599609 14 C 21.599609 14.888393 20.888393 15.599609 20 15.599609 L 19 15.599609 C 17.706254 15.599609 16.578397 16.328499 16.003906 17.396484 C 15.452171 16.363442 14.363038 15.597822 13 15.599609 A 0.40000001 0.40000001 0 0 0 12.599609 16 A 0.40000001 0.40000001 0 0 0 13 16.400391 C 14.139583 16.398891 14.983499 17.059255 15.376953 17.9375 C 15.501808 18.216194 15.57913 18.514596 15.603516 18.818359 C 15.600301 18.878734 15.599609 18.938847 15.599609 19 A 0.40000001 0.40000001 0 0 0 15.611328 19.097656 C 15.595851 19.613285 15.421016 20.13436 15.052734 20.599609 L 10 20.599609 C 8.0070371 20.599609 6.4003906 18.992963 6.4003906 17 C 6.4003906 16.972827 6.4000645 16.945063 6.4003906 16.917969 A 0.40000001 0.40000001 0 0 0 6.4042969 16.75 C 6.5356301 13.216684 9.43408 10.400391 13 10.400391 L 13.199219 10.400391 A 0.40004001 0.40004001 0 0 0 13.482422 9.7167969 L 9.8828125 6.1171875 C 9.4868567 5.7212317 9.3640316 5.3212257 9.3867188 4.9355469 C 9.4094057 4.5498681 9.5956664 4.1699586 9.8828125 3.8828125 C 10.169959 3.5956664 10.549868 3.4094057 10.935547 3.3867188 C 10.983757 3.3838829 11.031456 3.382805 11.080078 3.3847656 z M 5.0390625 11.380859 C 5.8369023 11.392767 6.6357466 11.770001 7.1484375 12.533203 C 6.2702257 13.645657 5.7120683 15.017677 5.6152344 16.527344 C 3.6085577 17.03534 1.8139951 15.105357 2.5625 13.09375 C 2.9871099 11.952611 4.0132685 11.365549 5.0390625 11.380859 z M 18 11.599609 A 0.40000001 0.40000001 0 0 0 17.599609 12 A 0.40000001 0.40000001 0 0 0 18 12.400391 L 18.009766 12.400391 A 0.40000001 0.40000001 0 0 0 18.410156 12 A 0.40000001 0.40000001 0 0 0 18.009766 11.599609 L 18 11.599609 z " />
</svg>
