<?xml version="1.0" encoding="UTF-8" standalone="no"?>
<svg
   width="24"
   height="24"
   viewBox="0 0 24 24"
   fill="none"
   stroke="currentColor"
   stroke-width="0.8"
   stroke-linecap="round"
   stroke-linejoin="round"
   version="1.1"
   id="svg6"
   sodipodi:docname=".tmp_radio-tower.svg"
   xmlns:inkscape="http://www.inkscape.org/namespaces/inkscape"
   xmlns:sodipodi="http://sodipodi.sourceforge.net/DTD/sodipodi-0.dtd"
   xmlns="http://www.w3.org/2000/svg"
   xmlns:svg="http://www.w3.org/2000/svg">
  <defs
     id="defs6" />
  <sodipodi:namedview
     id="namedview6"
     pagecolor="#ffffff"
     bordercolor="#000000"
     borderopacity="0.25"
     inkscape:showpageshadow="2"
     inkscape:pageopacity="0.0"
     inkscape:pagecheckerboard="0"
     inkscape:deskcolor="#d1d1d1" />
  <path
     id="path1"
     style="baseline-shift:baseline;display:inline;overflow:visible;vector-effect:none;fill:#000000;stroke:none;stroke-linecap:butt;stroke-linejoin:miter;enable-background:accumulate;stop-color:#000000;stop-opacity:1;opacity:1"
     d="M 4.9003906 1.5 A 0.40000001 0.40000001 0 0 0 4.6171875 1.6171875 C 0.56247012 5.6719049 0.56247012 12.328095 4.6171875 16.382812 A 0.40000001 0.40000001 0 0 0 5.1835938 16.382812 A 0.40000001 0.40000001 0 0 0 5.1835938 15.816406 C 1.4383112 12.071124 1.4383111 5.9288763 5.1835938 2.1835938 A 0.40000001 0.40000001 0 0 0 5.1835938 1.6171875 A 0.40000001 0.40000001 0 0 0 4.9003906 1.5 z M 19.099609 1.5 A 0.40000001 0.40000001 0 0 0 18.816406 1.6171875 A 0.40000001 0.40000001 0 0 0 18.818359 2.1835938 C 22.564392 5.9219532 22.564392 11.978437 18.818359 15.716797 A 0.40000001 0.40000001 0 0 0 18.816406 16.283203 A 0.40000001 0.40000001 0 0 0 19.382812 16.283203 C 23.435288 12.239029 23.435288 5.6613621 19.382812 1.6171875 A 0.40000001 0.40000001 0 0 0 19.099609 1.5 z M 7.7929688 4.2988281 A 0.40000001 0.40000001 0 0 0 7.5117188 4.421875 C 5.434238 6.574421 5.0834618 9.8678317 6.6601562 12.410156 A 0.40000001 0.40000001 0 0 0 7.2109375 12.539062 A 0.40000001 0.40000001 0 0 0 7.3398438 11.988281 C 5.9540029 9.753697 6.2618821 6.8705029 8.0878906 4.9785156 A 0.40000001 0.40000001 0 0 0 8.078125 4.4121094 A 0.40000001 0.40000001 0 0 0 7.7929688 4.2988281 z M 16.201172 4.4003906 A 0.40000001 0.40000001 0 0 0 15.917969 4.5175781 A 0.40000001 0.40000001 0 0 0 15.917969 5.0820312 C 17.783618 6.947681 18.026261 9.85037 16.660156 12.058594 A 0.40000001 0.40000001 0 0 0 16.789062 12.609375 A 0.40000001 0.40000001 0 0 0 17.339844 12.480469 C 18.893739 9.9686921 18.616772 6.6519284 16.482422 4.5175781 A 0.40000001 0.40000001 0 0 0 16.201172 4.4003906 z M 12 6.5996094 C 10.679254 6.5996094 9.5996094 7.6792545 9.5996094 9 C 9.5996094 10.132614 10.394004 11.088716 11.453125 11.337891 L 7.625 21.863281 A 0.40000001 0.40000001 0 0 0 7.8632812 22.375 A 0.40000001 0.40000001 0 0 0 8.375 22.136719 L 9.734375 18.400391 L 14.265625 18.400391 L 15.625 22.136719 A 0.40000001 0.40000001 0 0 0 16.136719 22.375 A 0.40000001 0.40000001 0 0 0 16.375 21.863281 L 12.546875 11.337891 C 13.605996 11.088716 14.400391 10.132614 14.400391 9 C 14.400391 7.6792545 13.320746 6.5996094 12 6.5996094 z M 12 7.4003906 C 12.888393 7.4003906 13.599609 8.1116065 13.599609 9 C 13.599609 9.8883935 12.888393 10.599609 12 10.599609 C 11.111607 10.599609 10.400391 9.8883935 10.400391 9 C 10.400391 8.1116065 11.111607 7.4003906 12 7.4003906 z M 12 12.167969 L 13.974609 17.599609 L 10.025391 17.599609 L 12 12.167969 z " />
</svg>
