<?xml version="1.0" encoding="UTF-8" standalone="no"?>
<svg
   width="24"
   height="24"
   viewBox="0 0 24 24"
   fill="none"
   stroke="currentColor"
   stroke-width="0.8"
   stroke-linecap="round"
   stroke-linejoin="round"
   version="1.1"
   id="svg2"
   sodipodi:docname=".tmp_radius.svg"
   xmlns:inkscape="http://www.inkscape.org/namespaces/inkscape"
   xmlns:sodipodi="http://sodipodi.sourceforge.net/DTD/sodipodi-0.dtd"
   xmlns="http://www.w3.org/2000/svg"
   xmlns:svg="http://www.w3.org/2000/svg">
  <defs
     id="defs2" />
  <sodipodi:namedview
     id="namedview2"
     pagecolor="#ffffff"
     bordercolor="#000000"
     borderopacity="0.25"
     inkscape:showpageshadow="2"
     inkscape:pageopacity="0.0"
     inkscape:pagecheckerboard="0"
     inkscape:deskcolor="#d1d1d1" />
  <path
     id="path1"
     style="baseline-shift:baseline;display:inline;overflow:visible;vector-effect:none;fill:#000000;stroke:none;stroke-linecap:butt;stroke-linejoin:miter;enable-background:accumulate;stop-color:#000000;stop-opacity:1;opacity:1"
     d="M 12.417969 1.6132812 C 12.105783 1.6010975 11.794215 1.6033698 11.482422 1.6191406 C 8.9880758 1.7453069 6.5389852 2.7657023 4.6523438 4.6523438 C 0.87906096 8.4256266 0.5719005 14.450136 3.9472656 18.582031 C 7.2549314 22.631054 13.051625 23.580655 17.470703 20.845703 C 17.886723 21.191199 18.419912 21.400391 19 21.400391 C 20.320746 21.400391 21.400391 20.320746 21.400391 19 C 21.400391 18.419912 21.191199 17.886723 20.845703 17.470703 C 23.580655 13.051625 22.631054 7.2549313 18.582031 3.9472656 C 16.774327 2.4705433 14.603272 1.6985672 12.417969 1.6132812 z M 12.386719 2.4101562 C 14.403078 2.4895881 16.405375 3.2034778 18.076172 4.5683594 C 21.785699 7.5986894 22.677177 12.871789 20.230469 16.941406 C 19.869945 16.724464 19.449375 16.599609 19 16.599609 C 18.483484 16.599609 18.003939 16.76483 17.611328 17.044922 L 13.955078 13.388672 C 14.23517 12.996061 14.400391 12.516516 14.400391 12 C 14.400391 10.679254 13.320746 9.5996094 12 9.5996094 C 10.679254 9.5996094 9.5996094 10.679254 9.5996094 12 C 9.5996094 13.320746 10.679254 14.400391 12 14.400391 C 12.516516 14.400391 12.996061 14.23517 13.388672 13.955078 L 17.044922 17.611328 C 16.76483 18.003939 16.599609 18.483484 16.599609 19 C 16.599609 19.449375 16.724464 19.869945 16.941406 20.230469 C 12.871789 22.677177 7.5986894 21.785699 4.5683594 18.076172 C 1.44863 14.257208 1.7288758 8.7047179 5.2167969 5.2167969 C 7.1787524 3.2548413 9.7942574 2.3080296 12.386719 2.4101562 z M 12 10.400391 C 12.888393 10.400391 13.599609 11.111607 13.599609 12 C 13.599609 12.417435 13.442242 12.796281 13.183594 13.080078 A 0.40000001 0.40000001 0 0 0 13.126953 13.126953 A 0.40000001 0.40000001 0 0 0 13.080078 13.183594 C 12.796281 13.442242 12.417435 13.599609 12 13.599609 C 11.111607 13.599609 10.400391 12.888393 10.400391 12 C 10.400391 11.111607 11.111607 10.400391 12 10.400391 z M 19 17.400391 C 19.393109 17.400391 19.75184 17.53924 20.029297 17.771484 A 0.40000001 0.40000001 0 0 0 20.119141 17.853516 C 20.415918 18.14333 20.599609 18.548946 20.599609 19 C 20.599609 19.888393 19.888393 20.599609 19 20.599609 C 18.548946 20.599609 18.14333 20.415918 17.853516 20.119141 A 0.40000001 0.40000001 0 0 0 17.771484 20.029297 C 17.53924 19.75184 17.400391 19.393109 17.400391 19 C 17.400391 18.582565 17.557758 18.203719 17.816406 17.919922 A 0.40000001 0.40000001 0 0 0 17.873047 17.873047 A 0.40000001 0.40000001 0 0 0 17.919922 17.816406 C 18.203719 17.557758 18.582565 17.400391 19 17.400391 z " />
</svg>
