<?xml version="1.0" encoding="UTF-8" standalone="no"?>
<svg
   width="24"
   height="24"
   viewBox="0 0 24 24"
   fill="none"
   stroke="currentColor"
   stroke-width="0.8"
   stroke-linecap="round"
   stroke-linejoin="round"
   version="1.1"
   id="svg4"
   sodipodi:docname=".tmp_receipt-indian-rupee.svg"
   xmlns:inkscape="http://www.inkscape.org/namespaces/inkscape"
   xmlns:sodipodi="http://sodipodi.sourceforge.net/DTD/sodipodi-0.dtd"
   xmlns="http://www.w3.org/2000/svg"
   xmlns:svg="http://www.w3.org/2000/svg">
  <defs
     id="defs4" />
  <sodipodi:namedview
     id="namedview4"
     pagecolor="#ffffff"
     bordercolor="#000000"
     borderopacity="0.25"
     inkscape:showpageshadow="2"
     inkscape:pageopacity="0.0"
     inkscape:pagecheckerboard="0"
     inkscape:deskcolor="#d1d1d1" />
  <path
     id="path1"
     style="baseline-shift:baseline;display:inline;overflow:visible;vector-effect:none;fill:#000000;stroke:none;stroke-linecap:butt;stroke-linejoin:miter;enable-background:accumulate;stop-color:#000000;stop-opacity:1;opacity:1"
     d="M 4.0234375 1.5996094 A 0.40004001 0.40004001 0 0 0 3.5996094 2 L 3.5996094 22 A 0.40004001 0.40004001 0 0 0 4.1796875 22.357422 L 6 21.447266 L 7.8203125 22.357422 A 0.40004001 0.40004001 0 0 0 8.1796875 22.357422 L 10 21.447266 L 11.820312 22.357422 A 0.40004001 0.40004001 0 0 0 12.179688 22.357422 L 14 21.447266 L 15.820312 22.357422 A 0.40004001 0.40004001 0 0 0 16.179688 22.357422 L 18 21.447266 L 19.820312 22.357422 A 0.40004001 0.40004001 0 0 0 20.400391 22 L 20.400391 2 A 0.40004001 0.40004001 0 0 0 19.820312 1.6425781 L 18 2.5527344 L 16.179688 1.6425781 A 0.40004001 0.40004001 0 0 0 15.820312 1.6425781 L 14 2.5527344 L 12.179688 1.6425781 A 0.40004001 0.40004001 0 0 0 11.820312 1.6425781 L 10 2.5527344 L 8.1796875 1.6425781 A 0.40004001 0.40004001 0 0 0 7.8203125 1.6425781 L 6 2.5527344 L 4.1796875 1.6425781 A 0.40004001 0.40004001 0 0 0 4.0234375 1.5996094 z M 8 2.4472656 L 9.8203125 3.3574219 A 0.40004001 0.40004001 0 0 0 10.179688 3.3574219 L 12 2.4472656 L 13.820312 3.3574219 A 0.40004001 0.40004001 0 0 0 14.179688 3.3574219 L 16 2.4472656 L 17.820312 3.3574219 A 0.40004001 0.40004001 0 0 0 18.179688 3.3574219 L 19.599609 2.6484375 L 19.599609 21.351562 L 18.179688 20.642578 A 0.40004001 0.40004001 0 0 0 17.820312 20.642578 L 16 21.552734 L 14.179688 20.642578 A 0.40004001 0.40004001 0 0 0 13.820312 20.642578 L 12 21.552734 L 10.179688 20.642578 A 0.40004001 0.40004001 0 0 0 9.8203125 20.642578 L 8 21.552734 L 6.1796875 20.642578 A 0.40004001 0.40004001 0 0 0 5.8203125 20.642578 L 4.4003906 21.351562 L 4.4003906 2.6484375 L 5.8203125 3.3574219 A 0.40004001 0.40004001 0 0 0 6.1796875 3.3574219 L 8 2.4472656 z M 8 6.5996094 A 0.40000001 0.40000001 0 0 0 7.5996094 7 A 0.40000001 0.40000001 0 0 0 8 7.4003906 L 9 7.4003906 C 10.233333 7.4003906 11.107815 7.8480978 11.701172 8.515625 C 12.207376 9.0851047 12.50393 9.8279562 12.580078 10.599609 L 8 10.599609 A 0.40000001 0.40000001 0 0 0 7.5996094 11 A 0.40000001 0.40000001 0 0 0 8 11.400391 L 12.580078 11.400391 C 12.50393 12.172044 12.207376 12.914896 11.701172 13.484375 C 11.107815 14.151902 10.233333 14.599609 9 14.599609 L 8 14.599609 A 0.40004001 0.40004001 0 0 0 7.7871094 15.339844 L 11.787109 17.839844 A 0.40000001 0.40000001 0 0 0 12.339844 17.712891 A 0.40000001 0.40000001 0 0 0 12.212891 17.160156 L 9.3007812 15.339844 C 10.576129 15.261321 11.617134 14.782531 12.298828 14.015625 C 12.94805 13.285251 13.306728 12.353363 13.384766 11.400391 L 16 11.400391 A 0.40000001 0.40000001 0 0 0 16.400391 11 A 0.40000001 0.40000001 0 0 0 16 10.599609 L 13.384766 10.599609 C 13.306728 9.6466368 12.94805 8.7147489 12.298828 7.984375 C 12.107814 7.7694838 11.891449 7.5732622 11.650391 7.4003906 L 16 7.4003906 A 0.40000001 0.40000001 0 0 0 16.400391 7 A 0.40000001 0.40000001 0 0 0 16 6.5996094 L 8 6.5996094 z " />
</svg>
