<?xml version="1.0" encoding="UTF-8" standalone="no"?>
<svg
   width="24"
   height="24"
   viewBox="0 0 24 24"
   fill="none"
   stroke="currentColor"
   stroke-width="0.8"
   stroke-linecap="round"
   stroke-linejoin="round"
   version="1.1"
   id="svg2"
   sodipodi:docname=".tmp_redo-2.svg"
   xmlns:inkscape="http://www.inkscape.org/namespaces/inkscape"
   xmlns:sodipodi="http://sodipodi.sourceforge.net/DTD/sodipodi-0.dtd"
   xmlns="http://www.w3.org/2000/svg"
   xmlns:svg="http://www.w3.org/2000/svg">
  <defs
     id="defs2" />
  <sodipodi:namedview
     id="namedview2"
     pagecolor="#ffffff"
     bordercolor="#000000"
     borderopacity="0.25"
     inkscape:showpageshadow="2"
     inkscape:pageopacity="0.0"
     inkscape:pagecheckerboard="0"
     inkscape:deskcolor="#d1d1d1" />
  <path
     id="path1"
     style="baseline-shift:baseline;display:inline;overflow:visible;vector-effect:none;fill:#000000;stroke:none;stroke-linecap:butt;stroke-linejoin:miter;enable-background:accumulate;stop-color:#000000;stop-opacity:1;opacity:1"
     d="M 15 3.5996094 A 0.40000001 0.40000001 0 0 0 14.716797 3.7167969 A 0.40000001 0.40000001 0 0 0 14.716797 4.2832031 L 19.033203 8.5996094 L 9.5 8.5996094 C 6.2462578 8.5996094 3.5996094 11.246258 3.5996094 14.5 C 3.5996094 17.753742 6.2462578 20.400391 9.5 20.400391 L 13 20.400391 A 0.40000001 0.40000001 0 0 0 13.400391 20 A 0.40000001 0.40000001 0 0 0 13 19.599609 L 9.5 19.599609 C 6.6786099 19.599609 4.4003906 17.32139 4.4003906 14.5 C 4.4003906 11.67861 6.6786099 9.4003906 9.5 9.4003906 L 19.033203 9.4003906 L 14.716797 13.716797 A 0.40000001 0.40000001 0 0 0 14.716797 14.283203 A 0.40000001 0.40000001 0 0 0 15.283203 14.283203 L 20.279297 9.2871094 A 0.40000001 0.40000001 0 0 0 20.283203 9.2832031 A 0.40004001 0.40004001 0 0 0 20.314453 9.2480469 A 0.40000001 0.40000001 0 0 0 20.318359 9.2441406 A 0.40004001 0.40004001 0 0 0 20.345703 9.203125 A 0.40000001 0.40000001 0 0 0 20.347656 9.2011719 A 0.40004001 0.40004001 0 0 0 20.369141 9.15625 A 0.40000001 0.40000001 0 0 0 20.371094 9.1523438 A 0.40004001 0.40004001 0 0 0 20.386719 9.1054688 A 0.40000001 0.40000001 0 0 0 20.386719 9.1035156 A 0.40004001 0.40004001 0 0 0 20.386719 8.8945312 A 0.40000001 0.40000001 0 0 0 20.371094 8.8476562 A 0.40004001 0.40004001 0 0 0 20.369141 8.84375 A 0.40000001 0.40000001 0 0 0 20.347656 8.7988281 A 0.40004001 0.40004001 0 0 0 20.345703 8.796875 A 0.40000001 0.40000001 0 0 0 20.318359 8.7558594 A 0.40004001 0.40004001 0 0 0 20.314453 8.7519531 A 0.40000001 0.40000001 0 0 0 20.283203 8.7167969 L 20.279297 8.7128906 L 15.283203 3.7167969 A 0.40000001 0.40000001 0 0 0 15 3.5996094 z " />
</svg>
