<?xml version="1.0" encoding="UTF-8" standalone="no"?>
<svg
   width="24"
   height="24"
   viewBox="0 0 24 24"
   fill="none"
   stroke="currentColor"
   stroke-width="0.8"
   stroke-linecap="round"
   stroke-linejoin="round"
   version="1.1"
   id="svg4"
   sodipodi:docname=".tmp_refresh-cw.svg"
   xmlns:inkscape="http://www.inkscape.org/namespaces/inkscape"
   xmlns:sodipodi="http://sodipodi.sourceforge.net/DTD/sodipodi-0.dtd"
   xmlns="http://www.w3.org/2000/svg"
   xmlns:svg="http://www.w3.org/2000/svg">
  <defs
     id="defs4" />
  <sodipodi:namedview
     id="namedview4"
     pagecolor="#ffffff"
     bordercolor="#000000"
     borderopacity="0.25"
     inkscape:showpageshadow="2"
     inkscape:pageopacity="0.0"
     inkscape:pagecheckerboard="0"
     inkscape:deskcolor="#d1d1d1" />
  <path
     id="path1"
     style="baseline-shift:baseline;display:inline;overflow:visible;vector-effect:none;fill:#000000;stroke:none;stroke-linecap:butt;stroke-linejoin:miter;enable-background:accumulate;stop-color:#000000;stop-opacity:1;opacity:1"
     d="M 12 2.5996094 C 6.8132612 2.5996094 2.5996094 6.8132612 2.5996094 12 A 0.40000001 0.40000001 0 0 0 3 12.400391 A 0.40000001 0.40000001 0 0 0 3.4003906 12 C 3.4003906 7.2462794 7.2445808 3.401468 11.998047 3.4003906 C 14.411007 3.4094706 16.728039 4.3502187 18.462891 6.0273438 L 20.033203 7.5996094 L 16 7.5996094 A 0.40000001 0.40000001 0 0 0 15.599609 8 A 0.40000001 0.40000001 0 0 0 16 8.4003906 L 21 8.4003906 A 0.40000001 0.40000001 0 0 0 21.013672 8.3984375 A 0.40004001 0.40004001 0 0 0 21.039062 8.3984375 A 0.40000001 0.40000001 0 0 0 21.152344 8.3691406 A 0.40004001 0.40004001 0 0 0 21.179688 8.3574219 A 0.40000001 0.40000001 0 0 0 21.195312 8.3496094 A 0.40004001 0.40004001 0 0 0 21.242188 8.3203125 A 0.40000001 0.40000001 0 0 0 21.244141 8.3183594 A 0.40004001 0.40004001 0 0 0 21.320312 8.2421875 A 0.40000001 0.40000001 0 0 0 21.328125 8.2304688 A 0.40004001 0.40004001 0 0 0 21.349609 8.1953125 A 0.40000001 0.40000001 0 0 0 21.357422 8.1796875 A 0.40004001 0.40004001 0 0 0 21.369141 8.1523438 A 0.40000001 0.40000001 0 0 0 21.396484 8.0527344 A 0.40004001 0.40004001 0 0 0 21.398438 8.0390625 A 0.40000001 0.40000001 0 0 0 21.400391 8 L 21.400391 3 A 0.40000001 0.40000001 0 0 0 21 2.5996094 A 0.40000001 0.40000001 0 0 0 20.599609 3 L 20.599609 7.0332031 L 19.023438 5.4570312 A 0.40004001 0.40004001 0 0 0 19.017578 5.453125 C 17.134533 3.6327014 14.621089 2.6094623 12.001953 2.5996094 A 0.40004001 0.40004001 0 0 0 12 2.5996094 z M 21 11.599609 A 0.40000001 0.40000001 0 0 0 20.599609 12 C 20.599609 16.753721 16.755419 20.598532 12.001953 20.599609 C 9.5889931 20.590509 7.2719611 19.649781 5.5371094 17.972656 L 3.9667969 16.400391 L 8 16.400391 A 0.40000001 0.40000001 0 0 0 8.4003906 16 A 0.40000001 0.40000001 0 0 0 8 15.599609 L 3.015625 15.599609 L 3 15.599609 A 0.40004001 0.40004001 0 0 0 2.9472656 15.603516 A 0.40000001 0.40000001 0 0 0 2.8964844 15.613281 A 0.40000001 0.40000001 0 0 0 2.8476562 15.630859 A 0.40000001 0.40000001 0 0 0 2.8046875 15.650391 A 0.40004001 0.40004001 0 0 0 2.7695312 15.671875 A 0.40000001 0.40000001 0 0 0 2.7578125 15.679688 A 0.40004001 0.40004001 0 0 0 2.7558594 15.681641 A 0.40000001 0.40000001 0 0 0 2.7167969 15.716797 A 0.40004001 0.40004001 0 0 0 2.6816406 15.755859 A 0.40000001 0.40000001 0 0 0 2.671875 15.769531 A 0.40004001 0.40004001 0 0 0 2.6503906 15.804688 A 0.40004001 0.40004001 0 0 0 2.6308594 15.847656 A 0.40000001 0.40000001 0 0 0 2.6132812 15.896484 A 0.40000001 0.40000001 0 0 0 2.6035156 15.947266 A 0.40000001 0.40000001 0 0 0 2.6015625 15.986328 A 0.40004001 0.40004001 0 0 0 2.5996094 16 A 0.40000001 0.40000001 0 0 0 2.5996094 16.015625 L 2.5996094 21 A 0.40000001 0.40000001 0 0 0 3 21.400391 A 0.40000001 0.40000001 0 0 0 3.4003906 21 L 3.4003906 16.966797 L 4.9765625 18.542969 A 0.40004001 0.40004001 0 0 0 4.9824219 18.546875 C 6.8655083 20.367302 9.3789108 21.390538 11.998047 21.400391 A 0.40004001 0.40004001 0 0 0 12 21.400391 C 17.186739 21.400391 21.400391 17.186739 21.400391 12 A 0.40000001 0.40000001 0 0 0 21 11.599609 z " />
</svg>
