<?xml version="1.0" encoding="UTF-8" standalone="no"?>
<svg
   width="24"
   height="24"
   viewBox="0 0 24 24"
   fill="none"
   stroke="currentColor"
   stroke-width="0.8"
   stroke-linecap="round"
   stroke-linejoin="round"
   version="1.1"
   id="svg3"
   sodipodi:docname=".tmp_scale-3d.svg"
   xmlns:inkscape="http://www.inkscape.org/namespaces/inkscape"
   xmlns:sodipodi="http://sodipodi.sourceforge.net/DTD/sodipodi-0.dtd"
   xmlns="http://www.w3.org/2000/svg"
   xmlns:svg="http://www.w3.org/2000/svg">
  <defs
     id="defs3" />
  <sodipodi:namedview
     id="namedview3"
     pagecolor="#ffffff"
     bordercolor="#000000"
     borderopacity="0.25"
     inkscape:showpageshadow="2"
     inkscape:pageopacity="0.0"
     inkscape:pagecheckerboard="0"
     inkscape:deskcolor="#d1d1d1" />
  <path
     id="path1"
     style="baseline-shift:baseline;display:inline;overflow:visible;vector-effect:none;fill:#000000;stroke:none;stroke-linecap:butt;stroke-linejoin:miter;enable-background:accumulate;stop-color:#000000;stop-opacity:1;opacity:1"
     d="M 5 2.5996094 C 3.6792545 2.5996094 2.5996094 3.6792545 2.5996094 5 C 2.5996094 6.1844052 3.4678565 7.1753081 4.5996094 7.3671875 L 4.5996094 18 C 4.5996094 18.36472 4.7428804 18.69897 4.9746094 18.949219 A 0.40000001 0.40000001 0 0 0 5.0097656 18.990234 A 0.40000001 0.40000001 0 0 0 5.0507812 19.025391 C 5.3010301 19.25712 5.6352797 19.400391 6 19.400391 L 16.632812 19.400391 C 16.824692 20.532144 17.815594 21.400391 19 21.400391 C 20.320746 21.400391 21.400391 20.320746 21.400391 19 C 21.400391 17.679254 20.320746 16.599609 19 16.599609 C 17.815594 16.599609 16.824692 17.467856 16.632812 18.599609 L 6 18.599609 C 5.9891277 18.599609 5.9775107 18.600154 5.9667969 18.599609 L 11.283203 13.283203 A 0.40000001 0.40000001 0 0 0 11.283203 12.716797 A 0.40000001 0.40000001 0 0 0 10.716797 12.716797 L 5.4003906 18.033203 C 5.3998457 18.022489 5.4003906 18.010872 5.4003906 18 L 5.4003906 7.3671875 C 6.5321435 7.1753081 7.4003906 6.1844052 7.4003906 5 C 7.4003906 3.6792545 6.3207455 2.5996094 5 2.5996094 z M 5 3.4003906 C 5.8883935 3.4003906 6.5996094 4.1116065 6.5996094 5 C 6.5996094 5.8881834 5.8880997 6.5992732 5 6.5996094 C 4.1119003 6.5992732 3.4003906 5.8881834 3.4003906 5 C 3.4003906 4.1116065 4.1116065 3.4003906 5 3.4003906 z M 19 17.400391 C 19.888393 17.400391 20.599609 18.111607 20.599609 19 C 20.599609 19.888393 19.888393 20.599609 19 20.599609 C 18.111817 20.599609 17.400727 19.888099 17.400391 19 C 17.400727 18.111901 18.111817 17.400391 19 17.400391 z " />
</svg>
