<?xml version="1.0" encoding="UTF-8" standalone="no"?>
<svg
   width="24"
   height="24"
   viewBox="0 0 24 24"
   fill="none"
   stroke="currentColor"
   stroke-width="0.8"
   stroke-linecap="round"
   stroke-linejoin="round"
   version="1.1"
   id="svg5"
   sodipodi:docname=".tmp_ship.svg"
   xmlns:inkscape="http://www.inkscape.org/namespaces/inkscape"
   xmlns:sodipodi="http://sodipodi.sourceforge.net/DTD/sodipodi-0.dtd"
   xmlns="http://www.w3.org/2000/svg"
   xmlns:svg="http://www.w3.org/2000/svg">
  <defs
     id="defs5" />
  <sodipodi:namedview
     id="namedview5"
     pagecolor="#ffffff"
     bordercolor="#000000"
     borderopacity="0.25"
     inkscape:showpageshadow="2"
     inkscape:pageopacity="0.0"
     inkscape:pagecheckerboard="0"
     inkscape:deskcolor="#d1d1d1" />
  <path
     id="path1"
     style="baseline-shift:baseline;display:inline;overflow:visible;vector-effect:none;fill:#000000;stroke:none;stroke-linecap:butt;stroke-linejoin:miter;enable-background:accumulate;stop-color:#000000;stop-opacity:1;opacity:1"
     d="M 12 1.5996094 A 0.40000001 0.40000001 0 0 0 11.599609 2 L 11.599609 4.5996094 L 7 4.5996094 C 5.6792545 4.5996094 4.5996094 5.6792545 4.5996094 7 L 4.5996094 12.851562 L 2.8378906 13.634766 A 0.40004001 0.40004001 0 0 0 2.5996094 13.994141 C 2.555028 16.73271 3.4499265 19.397411 5.1230469 21.550781 C 4.9383252 21.582212 4.7327844 21.599609 4.5 21.599609 C 3.3025641 21.599609 2.8558594 21.193359 2.2558594 20.693359 A 0.40000001 0.40000001 0 0 0 1.6933594 20.744141 A 0.40000001 0.40000001 0 0 0 1.7441406 21.306641 C 2.3441406 21.806641 3.0974359 22.400391 4.5 22.400391 C 5.0652471 22.400391 5.528703 22.297808 5.921875 22.142578 A 0.40000001 0.40000001 0 0 0 5.9980469 22.111328 C 6.5103813 21.895155 6.9026249 21.5904 7.25 21.3125 C 7.875 20.8125 8.3566667 20.400391 9.5 20.400391 C 10.697436 20.400391 11.144141 20.806641 11.744141 21.306641 C 12.344141 21.806641 13.097436 22.400391 14.5 22.400391 C 15.856667 22.400391 16.625 21.8125 17.25 21.3125 C 17.875 20.8125 18.356667 20.400391 19.5 20.400391 C 20.697436 20.400391 21.144141 20.806641 21.744141 21.306641 A 0.40000001 0.40000001 0 0 0 22.306641 21.255859 A 0.40000001 0.40000001 0 0 0 22.255859 20.693359 C 21.738293 20.262054 21.107016 19.7604 20.042969 19.630859 C 20.947724 17.894589 21.415088 15.960492 21.400391 13.996094 A 0.40004001 0.40004001 0 0 0 21.162109 13.634766 L 19.400391 12.851562 L 19.400391 7 C 19.400391 5.6792545 18.320746 4.5996094 17 4.5996094 L 12.400391 4.5996094 L 12.400391 2 A 0.40000001 0.40000001 0 0 0 12 1.5996094 z M 7 5.4003906 L 17 5.4003906 C 17.888393 5.4003906 18.599609 6.1116065 18.599609 7 L 18.599609 12.496094 L 12.974609 9.9960938 C 12.664522 9.8583332 12.332261 9.7890625 12 9.7890625 A 0.40000001 0.40000001 0 0 0 11.980469 9.7890625 C 11.654826 9.7917483 11.32931 9.8610736 11.025391 9.9960938 L 5.4003906 12.496094 L 5.4003906 7 C 5.4003906 6.1116065 6.1116065 5.4003906 7 5.4003906 z M 11.599609 10.638672 L 11.599609 14 A 0.40000001 0.40000001 0 0 0 12 14.400391 A 0.40000001 0.40000001 0 0 0 12.400391 14 L 12.400391 10.638672 C 12.48542 10.6606 12.569054 10.690428 12.650391 10.726562 L 20.568359 14.246094 C 20.541051 16.12786 20.067415 17.97578 19.140625 19.613281 C 18.003073 19.706091 17.317659 20.233373 16.75 20.6875 C 16.125 21.1875 15.643333 21.599609 14.5 21.599609 C 13.302564 21.599609 12.855859 21.193359 12.255859 20.693359 C 11.655859 20.193359 10.902564 19.599609 9.5 19.599609 C 8.1433333 19.599609 7.375 20.1875 6.75 20.6875 C 6.4709564 20.910735 6.221278 21.11605 5.9277344 21.275391 C 4.3090561 19.291248 3.4533544 16.805122 3.4394531 14.242188 L 11.349609 10.726562 C 11.430946 10.690428 11.51458 10.6606 11.599609 10.638672 z " />
</svg>
