<?xml version="1.0" encoding="UTF-8" standalone="no"?>
<svg
   width="24"
   height="24"
   viewBox="0 0 24 24"
   fill="none"
   stroke="currentColor"
   stroke-width="0.8"
   stroke-linecap="round"
   stroke-linejoin="round"
   version="1.1"
   id="svg2"
   sodipodi:docname=".tmp_skip-forward.svg"
   xmlns:inkscape="http://www.inkscape.org/namespaces/inkscape"
   xmlns:sodipodi="http://sodipodi.sourceforge.net/DTD/sodipodi-0.dtd"
   xmlns="http://www.w3.org/2000/svg"
   xmlns:svg="http://www.w3.org/2000/svg">
  <defs
     id="defs2" />
  <sodipodi:namedview
     id="namedview2"
     pagecolor="#ffffff"
     bordercolor="#000000"
     borderopacity="0.25"
     inkscape:showpageshadow="2"
     inkscape:pageopacity="0.0"
     inkscape:pagecheckerboard="0"
     inkscape:deskcolor="#d1d1d1" />
  <path
     id="path1"
     style="baseline-shift:baseline;display:inline;overflow:visible;vector-effect:none;fill:#000000;stroke:none;stroke-linecap:butt;stroke-linejoin:miter;enable-background:accumulate;stop-color:#000000;stop-opacity:1;opacity:1"
     d="M 21 3.5996094 A 0.40000001 0.40000001 0 0 0 20.599609 4 L 20.599609 20 A 0.40000001 0.40000001 0 0 0 21 20.400391 A 0.40000001 0.40000001 0 0 0 21.400391 20 L 21.400391 4 A 0.40000001 0.40000001 0 0 0 21 3.5996094 z M 5 3.6035156 C 3.7551674 3.6162588 2.5995961 4.6158618 2.5996094 6 L 2.5996094 18 C 2.5995916 19.845518 4.6518614 21.008113 6.234375 20.058594 L 16.230469 14.060547 C 17.772259 13.139371 17.774558 10.865276 16.234375 9.9414062 L 6.234375 3.9414062 C 5.8387526 3.7040264 5.4149442 3.5992679 5 3.6035156 z M 4.9863281 4.390625 C 5.2641061 4.3915791 5.5513659 4.4663647 5.8222656 4.6289062 L 15.822266 10.628906 C 16.874601 11.260146 16.873797 12.743648 15.820312 13.373047 L 5.8222656 19.371094 C 4.7386668 20.02126 3.4003785 19.263686 3.4003906 18 L 3.4003906 6 C 3.4003845 5.3681569 3.7347265 4.8620132 4.2050781 4.5957031 C 4.440254 4.4625481 4.7085501 4.3896709 4.9863281 4.390625 z " />
</svg>
