<?xml version="1.0" encoding="UTF-8" standalone="no"?>
<svg
   width="24"
   height="24"
   viewBox="0 0 24 24"
   fill="none"
   stroke="currentColor"
   stroke-width="0.8"
   stroke-linecap="round"
   stroke-linejoin="round"
   version="1.1"
   id="svg1"
   sodipodi:docname=".tmp_slice.svg"
   xmlns:inkscape="http://www.inkscape.org/namespaces/inkscape"
   xmlns:sodipodi="http://sodipodi.sourceforge.net/DTD/sodipodi-0.dtd"
   xmlns="http://www.w3.org/2000/svg"
   xmlns:svg="http://www.w3.org/2000/svg">
  <defs
     id="defs1" />
  <sodipodi:namedview
     id="namedview1"
     pagecolor="#ffffff"
     bordercolor="#000000"
     borderopacity="0.25"
     inkscape:showpageshadow="2"
     inkscape:pageopacity="0.0"
     inkscape:pagecheckerboard="0"
     inkscape:deskcolor="#d1d1d1" />
  <path
     id="path1"
     style="baseline-shift:baseline;display:inline;overflow:visible;vector-effect:none;fill:#000000;stroke:none;stroke-linecap:butt;stroke-linejoin:miter;enable-background:accumulate;stop-color:#000000;stop-opacity:1;opacity:1"
     d="M 19.744141 2.5722656 C 19.175281 2.6008171 18.587262 2.8482846 18.087891 3.3476562 L 7.7167969 13.716797 L 1.7167969 19.716797 A 0.40004001 0.40004001 0 0 0 2 20.400391 L 10 20.400391 C 10.768461 20.400391 11.400391 19.768461 11.400391 19 L 11.400391 16.818359 C 11.605787 16.752949 11.828388 16.737969 11.990234 16.576172 L 21.652344 6.9121094 C 22.223054 6.3413989 22.463511 5.6550762 22.425781 5.0136719 C 22.388051 4.3722676 22.090198 3.7855102 21.652344 3.3476562 C 21.21449 2.9098022 20.627732 2.6119485 19.986328 2.5742188 C 19.906153 2.5695025 19.825406 2.5681868 19.744141 2.5722656 z M 19.78125 3.3710938 C 19.83433 3.368947 19.886816 3.3699506 19.939453 3.3730469 C 20.360549 3.3978169 20.775745 3.5999633 21.087891 3.9121094 C 21.400037 4.2242555 21.602183 4.6394514 21.626953 5.0605469 C 21.651723 5.4816424 21.51718 5.9183672 21.087891 6.3476562 L 11.423828 16.009766 C 11.186181 16.247341 10.813819 16.247341 10.576172 16.009766 L 8.5664062 14 L 18.652344 3.9121094 C 19.027972 3.5364814 19.409688 3.3861212 19.78125 3.3710938 z M 8 14.566406 L 10.009766 16.576172 C 10.171612 16.737969 10.394213 16.75295 10.599609 16.818359 L 10.599609 19 C 10.599609 19.336109 10.336109 19.599609 10 19.599609 L 2.9667969 19.599609 L 8 14.566406 z " />
</svg>
