<?xml version="1.0" encoding="UTF-8" standalone="no"?>
<svg
   width="24"
   height="24"
   viewBox="0 0 24 24"
   fill="none"
   stroke="currentColor"
   stroke-width="0.8"
   stroke-linecap="round"
   stroke-linejoin="round"
   version="1.1"
   id="svg2"
   sodipodi:docname=".tmp_spade.svg"
   xmlns:inkscape="http://www.inkscape.org/namespaces/inkscape"
   xmlns:sodipodi="http://sodipodi.sourceforge.net/DTD/sodipodi-0.dtd"
   xmlns="http://www.w3.org/2000/svg"
   xmlns:svg="http://www.w3.org/2000/svg">
  <defs
     id="defs2" />
  <sodipodi:namedview
     id="namedview2"
     pagecolor="#ffffff"
     bordercolor="#000000"
     borderopacity="0.25"
     inkscape:showpageshadow="2"
     inkscape:pageopacity="0.0"
     inkscape:pagecheckerboard="0"
     inkscape:deskcolor="#d1d1d1" />
  <path
     id="path1"
     style="baseline-shift:baseline;display:inline;overflow:visible;vector-effect:none;fill:#000000;stroke:none;stroke-linecap:butt;stroke-linejoin:miter;enable-background:accumulate;stop-color:#000000;stop-opacity:1;opacity:1"
     d="M 12.015625 2.6054688 C 11.353347 2.6010487 10.688023 2.8663831 10.208984 3.4023438 L 4.7226562 8.7109375 A 0.40004001 0.40004001 0 0 0 4.7167969 8.7167969 C 3.2042268 10.229367 1.5996094 12.024134 1.5996094 14.498047 A 0.40000001 0.40000001 0 0 0 1.5996094 14.5 C 1.6001469 17.18558 3.2738346 19.197467 5.3886719 20.007812 C 7.392495 20.775621 9.8230579 20.47504 11.599609 18.742188 L 11.599609 22 A 0.40000001 0.40000001 0 0 0 12 22.400391 A 0.40000001 0.40000001 0 0 0 12.400391 22 L 12.400391 18.742188 C 14.176942 20.475041 16.607504 20.775621 18.611328 20.007812 C 20.726165 19.197467 22.399853 17.18558 22.400391 14.5 C 22.400391 12.035328 20.796402 10.229996 19.283203 8.7167969 A 0.40004001 0.40004001 0 0 0 19.277344 8.7128906 L 13.810547 3.4257812 C 13.338697 2.8834814 12.677903 2.6098838 12.015625 2.6054688 z M 12.009766 3.3964844 C 12.449383 3.3994144 12.88869 3.5853008 13.207031 3.9511719 A 0.40004001 0.40004001 0 0 0 13.230469 3.9746094 L 18.716797 9.2832031 C 20.203598 10.770004 21.599609 12.384672 21.599609 14.5 C 21.599138 16.856658 20.162094 18.557497 18.324219 19.261719 C 16.486344 19.965941 14.282179 19.661129 12.707031 17.908203 A 0.40004001 0.40004001 0 0 0 12.681641 17.882812 C 12.528023 17.73934 12.338956 17.652986 12.142578 17.625 A 0.40000001 0.40000001 0 0 0 12 17.599609 A 0.40000001 0.40000001 0 0 0 11.859375 17.625 C 11.662586 17.652241 11.472579 17.737548 11.318359 17.880859 A 0.40004001 0.40004001 0 0 0 11.292969 17.90625 C 9.7178595 19.659222 7.5136564 19.963987 5.6757812 19.259766 C 3.8379061 18.555544 2.4008624 16.854705 2.4003906 14.498047 C 2.4003906 12.374791 3.7921422 10.772868 5.2773438 9.2871094 L 5.2832031 9.2832031 L 5.2832031 9.28125 L 10.787109 3.9550781 A 0.40004001 0.40004001 0 0 0 10.806641 3.9335938 C 11.129831 3.5719994 11.570149 3.3935536 12.009766 3.3964844 z " />
</svg>
