<?xml version="1.0" encoding="UTF-8" standalone="no"?>
<svg
   width="24"
   height="24"
   viewBox="0 0 24 24"
   fill="none"
   stroke="currentColor"
   stroke-width="0.8"
   stroke-linecap="round"
   stroke-linejoin="round"
   version="1.1"
   id="svg2"
   sodipodi:docname=".tmp_square-split-horizontal.svg"
   xmlns:inkscape="http://www.inkscape.org/namespaces/inkscape"
   xmlns:sodipodi="http://sodipodi.sourceforge.net/DTD/sodipodi-0.dtd"
   xmlns="http://www.w3.org/2000/svg"
   xmlns:svg="http://www.w3.org/2000/svg">
  <defs
     id="defs2" />
  <sodipodi:namedview
     id="namedview2"
     pagecolor="#ffffff"
     bordercolor="#000000"
     borderopacity="0.25"
     inkscape:showpageshadow="2"
     inkscape:pageopacity="0.0"
     inkscape:pagecheckerboard="0"
     inkscape:deskcolor="#d1d1d1" />
  <path
     id="path1"
     style="baseline-shift:baseline;display:inline;overflow:visible;vector-effect:none;fill:#000000;stroke:none;stroke-linecap:butt;stroke-linejoin:miter;enable-background:accumulate;stop-color:#000000;stop-opacity:1;opacity:1"
     d="M 12 3.5996094 A 0.40000001 0.40000001 0 0 0 11.599609 4 L 11.599609 20 A 0.40000001 0.40000001 0 0 0 12 20.400391 A 0.40000001 0.40000001 0 0 0 12.400391 20 L 12.400391 4 A 0.40000001 0.40000001 0 0 0 12 3.5996094 z M 5 4.5996094 C 4.3666667 4.5996094 3.7796508 4.9039429 3.3417969 5.3417969 C 2.9039429 5.7796508 2.5996094 6.3666667 2.5996094 7 L 2.5996094 17 C 2.5996094 17.633333 2.9039429 18.220349 3.3417969 18.658203 C 3.7796508 19.096057 4.3666667 19.400391 5 19.400391 L 8 19.400391 A 0.40000001 0.40000001 0 0 0 8.4003906 19 A 0.40000001 0.40000001 0 0 0 8 18.599609 L 5 18.599609 C 4.6333333 18.599609 4.2203492 18.403943 3.9082031 18.091797 C 3.5960571 17.779651 3.4003906 17.366667 3.4003906 17 L 3.4003906 7 C 3.4003906 6.6333333 3.5960571 6.2203492 3.9082031 5.9082031 C 4.2203492 5.5960571 4.6333333 5.4003906 5 5.4003906 L 8 5.4003906 A 0.40000001 0.40000001 0 0 0 8.4003906 5 A 0.40000001 0.40000001 0 0 0 8 4.5996094 L 5 4.5996094 z M 16 4.5996094 A 0.40000001 0.40000001 0 0 0 15.599609 5 A 0.40000001 0.40000001 0 0 0 16 5.4003906 L 19 5.4003906 C 19.366667 5.4003906 19.779651 5.5960571 20.091797 5.9082031 C 20.403943 6.2203492 20.599609 6.6333333 20.599609 7 L 20.599609 17 C 20.599609 17.366667 20.403943 17.779651 20.091797 18.091797 C 19.779651 18.403943 19.366667 18.599609 19 18.599609 L 16 18.599609 A 0.40000001 0.40000001 0 0 0 15.599609 19 A 0.40000001 0.40000001 0 0 0 16 19.400391 L 19 19.400391 C 19.633333 19.400391 20.220349 19.096057 20.658203 18.658203 C 21.096057 18.220349 21.400391 17.633333 21.400391 17 L 21.400391 7 C 21.400391 6.3666667 21.096057 5.7796508 20.658203 5.3417969 C 20.220349 4.9039429 19.633333 4.5996094 19 4.5996094 L 16 4.5996094 z " />
</svg>
