<?xml version="1.0" encoding="UTF-8" standalone="no"?>
<svg
   width="24"
   height="24"
   viewBox="0 0 24 24"
   fill="none"
   stroke="currentColor"
   stroke-width="0.8"
   stroke-linecap="round"
   stroke-linejoin="round"
   version="1.1"
   id="svg5"
   sodipodi:docname=".tmp_square-parking-off.svg"
   xmlns:inkscape="http://www.inkscape.org/namespaces/inkscape"
   xmlns:sodipodi="http://sodipodi.sourceforge.net/DTD/sodipodi-0.dtd"
   xmlns="http://www.w3.org/2000/svg"
   xmlns:svg="http://www.w3.org/2000/svg">
  <defs
     id="defs5" />
  <sodipodi:namedview
     id="namedview5"
     pagecolor="#ffffff"
     bordercolor="#000000"
     borderopacity="0.25"
     inkscape:showpageshadow="2"
     inkscape:pageopacity="0.0"
     inkscape:pagecheckerboard="0"
     inkscape:deskcolor="#d1d1d1" />
  <path
     id="path1"
     style="baseline-shift:baseline;display:inline;overflow:visible;vector-effect:none;fill:#000000;stroke:none;stroke-linecap:butt;stroke-linejoin:miter;enable-background:accumulate;stop-color:#000000;stop-opacity:1;opacity:1"
     d="M 2 1.5996094 A 0.40000001 0.40000001 0 0 0 1.7167969 1.7167969 A 0.40000001 0.40000001 0 0 0 1.7167969 2.2832031 L 8.7011719 9.265625 A 0.40000001 0.40000001 0 0 0 8.734375 9.2988281 L 12.701172 13.265625 A 0.40000001 0.40000001 0 0 0 12.734375 13.298828 L 21.716797 22.283203 A 0.40000001 0.40000001 0 0 0 22.283203 22.283203 A 0.40000001 0.40000001 0 0 0 22.283203 21.716797 L 20.953125 20.386719 C 21.240102 19.98534 21.398283 19.501755 21.400391 19.001953 A 0.40004001 0.40004001 0 0 0 21.400391 19 L 21.400391 5 C 21.400438 3.6792545 20.320746 2.5996094 19 2.5996094 L 5 2.5996094 A 0.40004001 0.40004001 0 0 0 4.9941406 2.5996094 C 4.49761 2.6066818 4.018209 2.7671997 3.6210938 3.0546875 L 2.2832031 1.7167969 A 0.40000001 0.40000001 0 0 0 2 1.5996094 z M 5.0058594 3.4003906 L 19 3.4003906 C 19.888393 3.4003906 20.599609 4.1116065 20.599609 5 L 20.599609 19 C 20.598047 19.287346 20.520911 19.567509 20.376953 19.810547 L 13.871094 13.304688 C 14.567676 13.144114 15.136271 12.792252 15.548828 12.328125 C 16.122137 11.683152 16.400391 10.838889 16.400391 10 C 16.400391 9.1611111 16.122137 8.3168478 15.548828 7.671875 C 14.975519 7.0269022 14.1 6.5996094 13 6.5996094 L 9 6.5996094 A 0.40004001 0.40004001 0 0 0 8.5996094 7 L 8.5996094 8.0332031 L 4.1992188 3.6328125 C 4.4409356 3.4863752 4.7187418 3.4044802 5.0058594 3.4003906 z M 9.4003906 7.4003906 L 13 7.4003906 C 13.9 7.4003906 14.524481 7.7230978 14.951172 8.203125 C 15.377863 8.6831522 15.599609 9.3388889 15.599609 10 C 15.599609 10.661111 15.377863 11.316848 14.951172 11.796875 C 14.550636 12.247478 13.975509 12.559149 13.162109 12.595703 L 9.4003906 8.8339844 L 9.4003906 7.4003906 z M 3 8.3007812 A 0.40000001 0.40000001 0 0 0 2.5996094 8.6992188 L 2.5996094 19 C 2.5996094 20.320746 3.6792545 21.400391 5 21.400391 L 15.300781 21.400391 A 0.40000001 0.40000001 0 0 0 15.699219 21 A 0.40000001 0.40000001 0 0 0 15.300781 20.599609 L 5 20.599609 C 4.1116065 20.599609 3.4003906 19.888393 3.4003906 19 L 3.4003906 8.6992188 A 0.40000001 0.40000001 0 0 0 3 8.3007812 z M 9 14.300781 A 0.40000001 0.40000001 0 0 0 8.5996094 14.699219 L 8.5996094 17 A 0.40000001 0.40000001 0 0 0 9 17.400391 A 0.40000001 0.40000001 0 0 0 9.4003906 17 L 9.4003906 14.699219 A 0.40000001 0.40000001 0 0 0 9 14.300781 z " />
</svg>
