<?xml version="1.0" encoding="UTF-8" standalone="no"?>
<svg
   width="24"
   height="24"
   viewBox="0 0 24 24"
   fill="none"
   stroke="currentColor"
   stroke-width="0.8"
   stroke-linecap="round"
   stroke-linejoin="round"
   version="1.1"
   id="svg10"
   sodipodi:docname=".tmp_square-dashed-mouse-pointer.svg"
   xmlns:inkscape="http://www.inkscape.org/namespaces/inkscape"
   xmlns:sodipodi="http://sodipodi.sourceforge.net/DTD/sodipodi-0.dtd"
   xmlns="http://www.w3.org/2000/svg"
   xmlns:svg="http://www.w3.org/2000/svg">
  <defs
     id="defs10" />
  <sodipodi:namedview
     id="namedview10"
     pagecolor="#ffffff"
     bordercolor="#000000"
     borderopacity="0.25"
     inkscape:showpageshadow="2"
     inkscape:pageopacity="0.0"
     inkscape:pagecheckerboard="0"
     inkscape:deskcolor="#d1d1d1" />
  <path
     id="path1"
     style="baseline-shift:baseline;display:inline;overflow:visible;vector-effect:none;fill:#000000;stroke:none;stroke-linecap:butt;stroke-linejoin:miter;enable-background:accumulate;stop-color:#000000;stop-opacity:1;opacity:1"
     d="M 5 2.5996094 C 3.6792545 2.5996094 2.5996094 3.6792545 2.5996094 5 A 0.40000001 0.40000001 0 0 0 3 5.4003906 A 0.40000001 0.40000001 0 0 0 3.4003906 5 C 3.4003906 4.1116065 4.1116065 3.4003906 5 3.4003906 A 0.40000001 0.40000001 0 0 0 5.4003906 3 A 0.40000001 0.40000001 0 0 0 5 2.5996094 z M 9 2.5996094 A 0.40000001 0.40000001 0 0 0 8.5996094 3 A 0.40000001 0.40000001 0 0 0 9 3.4003906 L 10 3.4003906 A 0.40000001 0.40000001 0 0 0 10.400391 3 A 0.40000001 0.40000001 0 0 0 10 2.5996094 L 9 2.5996094 z M 14 2.5996094 A 0.40000001 0.40000001 0 0 0 13.599609 3 A 0.40000001 0.40000001 0 0 0 14 3.4003906 L 15 3.4003906 A 0.40000001 0.40000001 0 0 0 15.400391 3 A 0.40000001 0.40000001 0 0 0 15 2.5996094 L 14 2.5996094 z M 19 2.5996094 A 0.40000001 0.40000001 0 0 0 18.599609 3 A 0.40000001 0.40000001 0 0 0 19 3.4003906 C 19.888393 3.4003906 20.599609 4.1116065 20.599609 5 A 0.40000001 0.40000001 0 0 0 21 5.4003906 A 0.40000001 0.40000001 0 0 0 21.400391 5 C 21.400391 3.6792545 20.320746 2.5996094 19 2.5996094 z M 3 8.5996094 A 0.40000001 0.40000001 0 0 0 2.5996094 9 L 2.5996094 10 A 0.40000001 0.40000001 0 0 0 3 10.400391 A 0.40000001 0.40000001 0 0 0 3.4003906 10 L 3.4003906 9 A 0.40000001 0.40000001 0 0 0 3 8.5996094 z M 21 8.5996094 A 0.40000001 0.40000001 0 0 0 20.599609 9 L 20.599609 11 A 0.40000001 0.40000001 0 0 0 21 11.400391 A 0.40000001 0.40000001 0 0 0 21.400391 11 L 21.400391 9 A 0.40000001 0.40000001 0 0 0 21 8.5996094 z M 12.560547 11.601562 C 12.2944 11.583785 12.035598 11.687059 11.861328 11.861328 C 11.628968 12.093688 11.524517 12.475995 11.662109 12.826172 L 11.662109 12.828125 L 15.162109 21.826172 C 15.309205 22.202619 15.68362 22.410603 16.03125 22.398438 C 16.37888 22.386277 16.738954 22.153387 16.859375 21.767578 A 0.40004001 0.40004001 0 0 0 16.859375 21.765625 L 17.925781 18.324219 A 0.40004001 0.40004001 0 0 0 17.925781 18.322266 C 17.984431 18.132559 18.132559 17.986387 18.322266 17.927734 L 21.765625 16.859375 A 0.40004001 0.40004001 0 0 0 21.767578 16.859375 C 22.153387 16.738954 22.386273 16.37888 22.398438 16.03125 C 22.410608 15.68362 22.202619 15.309205 21.826172 15.162109 L 12.828125 11.662109 L 12.826172 11.662109 C 12.738628 11.627711 12.649262 11.607488 12.560547 11.601562 z M 12.476562 12.396484 C 12.491214 12.394015 12.509189 12.396678 12.533203 12.40625 A 0.40004001 0.40004001 0 0 0 12.535156 12.40625 L 21.535156 15.90625 C 21.598866 15.93114 21.601209 15.958226 21.599609 16.003906 C 21.598009 16.049576 21.594607 16.075323 21.529297 16.095703 L 18.085938 17.162109 C 17.644693 17.298531 17.298531 17.644694 17.162109 18.085938 L 16.095703 21.529297 C 16.075323 21.594587 16.049586 21.598009 16.003906 21.599609 C 15.958236 21.601209 15.93115 21.598859 15.90625 21.535156 L 12.40625 12.535156 A 0.40004001 0.40004001 0 0 0 12.40625 12.533203 C 12.38437 12.478313 12.398554 12.456903 12.427734 12.427734 C 12.444142 12.411326 12.457725 12.399659 12.476562 12.396484 z M 3 13.599609 A 0.40000001 0.40000001 0 0 0 2.5996094 14 L 2.5996094 15 A 0.40000001 0.40000001 0 0 0 3 15.400391 A 0.40000001 0.40000001 0 0 0 3.4003906 15 L 3.4003906 14 A 0.40000001 0.40000001 0 0 0 3 13.599609 z M 3 18.599609 A 0.40000001 0.40000001 0 0 0 2.5996094 19 C 2.5996094 20.320746 3.6792545 21.400391 5 21.400391 A 0.40000001 0.40000001 0 0 0 5.4003906 21 A 0.40000001 0.40000001 0 0 0 5 20.599609 C 4.1116065 20.599609 3.4003906 19.888393 3.4003906 19 A 0.40000001 0.40000001 0 0 0 3 18.599609 z M 9 20.599609 A 0.40000001 0.40000001 0 0 0 8.5996094 21 A 0.40000001 0.40000001 0 0 0 9 21.400391 L 11 21.400391 A 0.40000001 0.40000001 0 0 0 11.400391 21 A 0.40000001 0.40000001 0 0 0 11 20.599609 L 9 20.599609 z " />
</svg>
