<?xml version="1.0" encoding="UTF-8" standalone="no"?>
<svg
   width="24"
   height="24"
   viewBox="0 0 24 24"
   fill="none"
   stroke="currentColor"
   stroke-width="0.8"
   stroke-linecap="round"
   stroke-linejoin="round"
   version="1.1"
   id="svg3"
   sodipodi:docname=".tmp_square-arrow-out-up-left.svg"
   xmlns:inkscape="http://www.inkscape.org/namespaces/inkscape"
   xmlns:sodipodi="http://sodipodi.sourceforge.net/DTD/sodipodi-0.dtd"
   xmlns="http://www.w3.org/2000/svg"
   xmlns:svg="http://www.w3.org/2000/svg">
  <defs
     id="defs3" />
  <sodipodi:namedview
     id="namedview3"
     pagecolor="#ffffff"
     bordercolor="#000000"
     borderopacity="0.25"
     inkscape:showpageshadow="2"
     inkscape:pageopacity="0.0"
     inkscape:pagecheckerboard="0"
     inkscape:deskcolor="#d1d1d1" />
  <path
     id="path1"
     style="baseline-shift:baseline;display:inline;overflow:visible;vector-effect:none;fill:#000000;stroke:none;stroke-linecap:butt;stroke-linejoin:miter;enable-background:accumulate;stop-color:#000000;stop-opacity:1;opacity:1"
     d="M 3 2.5996094 A 0.40004001 0.40004001 0 0 0 2.9472656 2.6035156 A 0.40000001 0.40000001 0 0 0 2.8964844 2.6132812 A 0.40000001 0.40000001 0 0 0 2.8476562 2.6308594 A 0.40000001 0.40000001 0 0 0 2.8046875 2.6503906 A 0.40004001 0.40004001 0 0 0 2.7695312 2.671875 A 0.40000001 0.40000001 0 0 0 2.7578125 2.6796875 A 0.40004001 0.40004001 0 0 0 2.7558594 2.6816406 A 0.40000001 0.40000001 0 0 0 2.7167969 2.7167969 A 0.40004001 0.40004001 0 0 0 2.6816406 2.7558594 A 0.40000001 0.40000001 0 0 0 2.671875 2.7695312 A 0.40004001 0.40004001 0 0 0 2.6503906 2.8046875 A 0.40004001 0.40004001 0 0 0 2.6308594 2.8476562 A 0.40000001 0.40000001 0 0 0 2.6132812 2.8964844 A 0.40000001 0.40000001 0 0 0 2.6035156 2.9472656 A 0.40000001 0.40000001 0 0 0 2.6015625 2.9863281 A 0.40004001 0.40004001 0 0 0 2.5996094 3 A 0.40000001 0.40000001 0 0 0 2.5996094 3.015625 L 2.5996094 9 A 0.40000001 0.40000001 0 0 0 3 9.4003906 A 0.40000001 0.40000001 0 0 0 3.4003906 9 L 3.4003906 3.9667969 L 11.716797 12.283203 A 0.40000001 0.40000001 0 0 0 12.283203 12.283203 A 0.40000001 0.40000001 0 0 0 12.283203 11.716797 L 3.9667969 3.4003906 L 9 3.4003906 A 0.40000001 0.40000001 0 0 0 9.4003906 3 A 0.40000001 0.40000001 0 0 0 9 2.5996094 L 3.015625 2.5996094 L 3 2.5996094 z M 13 2.5996094 A 0.40000001 0.40000001 0 0 0 12.599609 3 A 0.40000001 0.40000001 0 0 0 13 3.4003906 L 19 3.4003906 C 19.888393 3.4003906 20.599609 4.1116065 20.599609 5 L 20.599609 19 C 20.599609 19.888393 19.888393 20.599609 19 20.599609 L 5 20.599609 C 4.1116065 20.599609 3.4003906 19.888393 3.4003906 19 L 3.4003906 13 A 0.40000001 0.40000001 0 0 0 3 12.599609 A 0.40000001 0.40000001 0 0 0 2.5996094 13 L 2.5996094 19 C 2.5996094 20.320746 3.6792545 21.400391 5 21.400391 L 19 21.400391 C 20.320746 21.400391 21.400391 20.320746 21.400391 19 L 21.400391 5 C 21.400391 3.6792545 20.320746 2.5996094 19 2.5996094 L 13 2.5996094 z " />
</svg>
