<?xml version="1.0" encoding="UTF-8" standalone="no"?>
<svg
   width="24"
   height="24"
   viewBox="0 0 24 24"
   fill="none"
   stroke="currentColor"
   stroke-width="0.8"
   stroke-linecap="round"
   stroke-linejoin="round"
   version="1.1"
   id="svg5"
   sodipodi:docname=".tmp_text-initial.svg"
   xmlns:inkscape="http://www.inkscape.org/namespaces/inkscape"
   xmlns:sodipodi="http://sodipodi.sourceforge.net/DTD/sodipodi-0.dtd"
   xmlns="http://www.w3.org/2000/svg"
   xmlns:svg="http://www.w3.org/2000/svg">
  <defs
     id="defs5" />
  <sodipodi:namedview
     id="namedview5"
     pagecolor="#ffffff"
     bordercolor="#000000"
     borderopacity="0.25"
     inkscape:showpageshadow="2"
     inkscape:pageopacity="0.0"
     inkscape:pagecheckerboard="0"
     inkscape:deskcolor="#d1d1d1" />
  <path
     id="path1"
     style="baseline-shift:baseline;display:inline;overflow:visible;vector-effect:none;fill:#000000;stroke:none;stroke-linecap:butt;stroke-linejoin:miter;enable-background:accumulate;stop-color:#000000;stop-opacity:1;opacity:1"
     d="M 7 3.6171875 C 6.6778786 3.6171875 6.3556698 3.7777055 6.1953125 4.0976562 A 0.40004001 0.40004001 0 0 0 6.1894531 4.109375 L 3.5644531 9.8164062 A 0.40000001 0.40000001 0 0 0 3.5488281 9.8496094 L 2.6367188 11.832031 A 0.40000001 0.40000001 0 0 0 2.8320312 12.363281 A 0.40000001 0.40000001 0 0 0 3.3632812 12.167969 L 4.1757812 10.400391 L 9.8242188 10.400391 L 10.636719 12.167969 A 0.40000001 0.40000001 0 0 0 11.167969 12.363281 A 0.40000001 0.40000001 0 0 0 11.363281 11.832031 L 10.451172 9.8496094 A 0.40000001 0.40000001 0 0 0 10.435547 9.8164062 L 7.8105469 4.109375 A 0.40004001 0.40004001 0 0 0 7.8046875 4.0976562 C 7.6443308 3.7777058 7.3221214 3.6171875 7 3.6171875 z M 6.9941406 4.3828125 C 7.0290518 4.3796247 7.0642805 4.4040733 7.0898438 4.4550781 L 9.4550781 9.5996094 L 4.5449219 9.5996094 L 6.9101562 4.4550781 C 6.932712 4.4100739 6.9633366 4.3856253 6.9941406 4.3828125 z M 15 4.5996094 A 0.40000001 0.40000001 0 0 0 14.599609 5 A 0.40000001 0.40000001 0 0 0 15 5.4003906 L 21 5.4003906 A 0.40000001 0.40000001 0 0 0 21.400391 5 A 0.40000001 0.40000001 0 0 0 21 4.5996094 L 15 4.5996094 z M 15 11.599609 A 0.40000001 0.40000001 0 0 0 14.599609 12 A 0.40000001 0.40000001 0 0 0 15 12.400391 L 21 12.400391 A 0.40000001 0.40000001 0 0 0 21.400391 12 A 0.40000001 0.40000001 0 0 0 21 11.599609 L 15 11.599609 z M 3 18.599609 A 0.40000001 0.40000001 0 0 0 2.5996094 19 A 0.40000001 0.40000001 0 0 0 3 19.400391 L 21 19.400391 A 0.40000001 0.40000001 0 0 0 21.400391 19 A 0.40000001 0.40000001 0 0 0 21 18.599609 L 3 18.599609 z " />
</svg>
