<?xml version="1.0" encoding="UTF-8" standalone="no"?>
<svg
   width="24"
   height="24"
   viewBox="0 0 24 24"
   fill="none"
   stroke="currentColor"
   stroke-width="0.8"
   stroke-linecap="round"
   stroke-linejoin="round"
   version="1.1"
   id="svg3"
   sodipodi:docname=".tmp_trash.svg"
   xmlns:inkscape="http://www.inkscape.org/namespaces/inkscape"
   xmlns:sodipodi="http://sodipodi.sourceforge.net/DTD/sodipodi-0.dtd"
   xmlns="http://www.w3.org/2000/svg"
   xmlns:svg="http://www.w3.org/2000/svg">
  <defs
     id="defs3" />
  <sodipodi:namedview
     id="namedview3"
     pagecolor="#ffffff"
     bordercolor="#000000"
     borderopacity="0.25"
     inkscape:showpageshadow="2"
     inkscape:pageopacity="0.0"
     inkscape:pagecheckerboard="0"
     inkscape:deskcolor="#d1d1d1" />
  <path
     id="path1"
     style="baseline-shift:baseline;display:inline;overflow:visible;vector-effect:none;fill:#000000;stroke:none;stroke-linecap:butt;stroke-linejoin:miter;enable-background:accumulate;stop-color:#000000;stop-opacity:1;opacity:1"
     d="M 10 1.5996094 C 8.6792545 1.5996094 7.5996094 2.6792545 7.5996094 4 L 7.5996094 5.5996094 L 3 5.5996094 A 0.40000001 0.40000001 0 0 0 2.5996094 6 A 0.40000001 0.40000001 0 0 0 3 6.4003906 L 4.5996094 6.4003906 L 4.5996094 20 C 4.5996094 21.320746 5.6792545 22.400391 7 22.400391 L 17 22.400391 C 18.320746 22.400391 19.400391 21.320746 19.400391 20 L 19.400391 6.4003906 L 21 6.4003906 A 0.40000001 0.40000001 0 0 0 21.400391 6 A 0.40000001 0.40000001 0 0 0 21 5.5996094 L 16.400391 5.5996094 L 16.400391 4 C 16.400391 2.6792545 15.320746 1.5996094 14 1.5996094 L 10 1.5996094 z M 10 2.4003906 L 14 2.4003906 C 14.888393 2.4003906 15.599609 3.1116065 15.599609 4 L 15.599609 5.5996094 L 8.4003906 5.5996094 L 8.4003906 4 C 8.4003906 3.1116065 9.1116065 2.4003906 10 2.4003906 z M 5.4003906 6.4003906 L 8 6.4003906 L 16 6.4003906 L 18.599609 6.4003906 L 18.599609 20 C 18.599609 20.888393 17.888393 21.599609 17 21.599609 L 7 21.599609 C 6.1116065 21.599609 5.4003906 20.888393 5.4003906 20 L 5.4003906 6.4003906 z " />
</svg>
