<?xml version="1.0" encoding="UTF-8" standalone="no"?>
<svg
   width="24"
   height="24"
   viewBox="0 0 24 24"
   fill="none"
   stroke="currentColor"
   stroke-width="0.8"
   stroke-linecap="round"
   stroke-linejoin="round"
   version="1.1"
   id="svg3"
   sodipodi:docname=".tmp_users.svg"
   xmlns:inkscape="http://www.inkscape.org/namespaces/inkscape"
   xmlns:sodipodi="http://sodipodi.sourceforge.net/DTD/sodipodi-0.dtd"
   xmlns="http://www.w3.org/2000/svg"
   xmlns:svg="http://www.w3.org/2000/svg">
  <defs
     id="defs3" />
  <sodipodi:namedview
     id="namedview3"
     pagecolor="#ffffff"
     bordercolor="#000000"
     borderopacity="0.25"
     inkscape:showpageshadow="2"
     inkscape:pageopacity="0.0"
     inkscape:pagecheckerboard="0"
     inkscape:deskcolor="#d1d1d1" />
  <path
     id="path1"
     style="baseline-shift:baseline;display:inline;overflow:visible;vector-effect:none;fill:#000000;stroke:none;stroke-linecap:butt;stroke-linejoin:miter;enable-background:accumulate;stop-color:#000000;stop-opacity:1;opacity:1"
     d="M 9 2.5996094 C 6.574685 2.5996094 4.5996094 4.574685 4.5996094 7 C 4.5996094 9.425315 6.574685 11.400391 9 11.400391 C 11.425315 11.400391 13.400391 9.425315 13.400391 7 C 13.400391 4.574685 11.425315 2.5996094 9 2.5996094 z M 15.996094 2.7285156 A 0.40000001 0.40000001 0 0 0 15.613281 3.0273438 A 0.40000001 0.40000001 0 0 0 15.900391 3.515625 C 17.726128 3.9889403 18.595703 5.4817224 18.595703 7 C 18.595703 8.5182776 17.726128 10.01106 15.900391 10.484375 A 0.40000001 0.40000001 0 0 0 15.613281 10.972656 A 0.40000001 0.40000001 0 0 0 16.099609 11.259766 C 18.268804 10.697411 19.396484 8.8358872 19.396484 7 C 19.396484 5.1641128 18.268804 3.3025895 16.099609 2.7402344 A 0.40000001 0.40000001 0 0 0 15.996094 2.7285156 z M 9 3.4003906 C 10.992963 3.4003906 12.599609 5.0070371 12.599609 7 C 12.599609 8.9929629 10.992963 10.599609 9 10.599609 C 7.0070371 10.599609 5.4003906 8.9929629 5.4003906 7 C 5.4003906 5.0070371 7.0070371 3.4003906 9 3.4003906 z M 6 14.599609 C 3.574685 14.599609 1.5996094 16.574685 1.5996094 19 L 1.5996094 21 A 0.40000001 0.40000001 0 0 0 2 21.400391 A 0.40000001 0.40000001 0 0 0 2.4003906 21 L 2.4003906 19 C 2.4003906 17.007037 4.0070371 15.400391 6 15.400391 L 12 15.400391 C 13.992963 15.400391 15.599609 17.007037 15.599609 19 L 15.599609 21 A 0.40000001 0.40000001 0 0 0 16 21.400391 A 0.40000001 0.40000001 0 0 0 16.400391 21 L 16.400391 19 C 16.400391 16.574685 14.425315 14.599609 12 14.599609 L 6 14.599609 z M 18.996094 14.730469 A 0.40000001 0.40000001 0 0 0 18.613281 15.029297 A 0.40000001 0.40000001 0 0 0 18.900391 15.517578 C 20.490821 15.928225 21.598384 17.357411 21.599609 19 L 21.599609 21 A 0.40000001 0.40000001 0 0 0 22 21.400391 A 0.40000001 0.40000001 0 0 0 22.400391 21 L 22.400391 19 C 22.398891 16.996824 21.039177 15.242981 19.099609 14.742188 A 0.40000001 0.40000001 0 0 0 18.996094 14.730469 z " />
</svg>
