<?xml version="1.0" encoding="UTF-8" standalone="no"?>
<svg
   width="24"
   height="24"
   viewBox="0 0 24 24"
   fill="none"
   stroke="currentColor"
   stroke-width="0.8"
   stroke-linecap="round"
   stroke-linejoin="round"
   version="1.1"
   id="svg7"
   sodipodi:docname=".tmp_vector-square.svg"
   xmlns:inkscape="http://www.inkscape.org/namespaces/inkscape"
   xmlns:sodipodi="http://sodipodi.sourceforge.net/DTD/sodipodi-0.dtd"
   xmlns="http://www.w3.org/2000/svg"
   xmlns:svg="http://www.w3.org/2000/svg">
  <defs
     id="defs7" />
  <sodipodi:namedview
     id="namedview7"
     pagecolor="#ffffff"
     bordercolor="#000000"
     borderopacity="0.25"
     inkscape:showpageshadow="2"
     inkscape:pageopacity="0.0"
     inkscape:pagecheckerboard="0"
     inkscape:deskcolor="#d1d1d1" />
  <path
     id="path1"
     style="baseline-shift:baseline;display:inline;overflow:visible;vector-effect:none;fill:#000000;stroke:none;stroke-linecap:butt;stroke-linejoin:miter;enable-background:accumulate;stop-color:#000000;stop-opacity:1;opacity:1"
     d="M 3 1.5996094 C 2.2313189 1.5996094 1.5996094 2.2313189 1.5996094 3 L 1.5996094 6 C 1.5996094 6.7686811 2.2313189 7.4003906 3 7.4003906 L 4.0117188 7.4003906 C 3.4286126 10.438719 3.4286126 13.561282 4.0117188 16.599609 L 3 16.599609 C 2.2313189 16.599609 1.5996094 17.231319 1.5996094 18 L 1.5996094 21 C 1.5996094 21.768681 2.2313189 22.400391 3 22.400391 L 6 22.400391 C 6.7686811 22.400391 7.4003906 21.768681 7.4003906 21 L 7.4003906 19.988281 C 10.438719 20.571388 13.561282 20.571388 16.599609 19.988281 L 16.599609 21 C 16.599609 21.768681 17.231319 22.400391 18 22.400391 L 21 22.400391 C 21.768681 22.400391 22.400391 21.768681 22.400391 21 L 22.400391 18 C 22.400391 17.231319 21.768681 16.599609 21 16.599609 L 19.988281 16.599609 C 20.571388 13.561282 20.571388 10.438719 19.988281 7.4003906 L 21 7.4003906 C 21.768681 7.4003906 22.400391 6.7686811 22.400391 6 L 22.400391 3 C 22.400391 2.2313189 21.768681 1.5996094 21 1.5996094 L 18 1.5996094 C 17.231319 1.5996094 16.599609 2.2313189 16.599609 3 L 16.599609 4.0117188 C 15.080394 3.7202009 13.539931 3.5742187 12 3.5742188 C 10.460069 3.5742188 8.9196058 3.7202008 7.4003906 4.0117188 L 7.4003906 3 C 7.4003906 2.2313189 6.7686811 1.5996094 6 1.5996094 L 3 1.5996094 z M 3 2.4003906 L 6 2.4003906 C 6.3393189 2.4003906 6.5996094 2.6606811 6.5996094 3 L 6.5996094 6 C 6.5996094 6.3393189 6.3393189 6.5996094 6 6.5996094 L 3 6.5996094 C 2.6606811 6.5996094 2.4003906 6.3393189 2.4003906 6 L 2.4003906 3 C 2.4003906 2.6606811 2.6606811 2.4003906 3 2.4003906 z M 18 2.4003906 L 21 2.4003906 C 21.339319 2.4003906 21.599609 2.6606811 21.599609 3 L 21.599609 6 C 21.599609 6.3393189 21.339319 6.5996094 21 6.5996094 L 18 6.5996094 C 17.660681 6.5996094 17.400391 6.3393189 17.400391 6 L 17.400391 3 C 17.400391 2.6606811 17.660681 2.4003906 18 2.4003906 z M 12 4.3730469 C 13.540543 4.3730468 15.081086 4.5243735 16.599609 4.8261719 L 16.599609 6 C 16.599609 6.7686811 17.231319 7.4003906 18 7.4003906 L 19.173828 7.4003906 C 19.777425 10.437437 19.777425 13.562563 19.173828 16.599609 L 18 16.599609 C 17.231319 16.599609 16.599609 17.231319 16.599609 18 L 16.599609 19.173828 C 13.562563 19.777425 10.437437 19.777425 7.4003906 19.173828 L 7.4003906 18 C 7.4003906 17.231319 6.7686811 16.599609 6 16.599609 L 4.8261719 16.599609 C 4.2225751 13.562563 4.222575 10.437437 4.8261719 7.4003906 L 6 7.4003906 C 6.7686811 7.4003906 7.4003906 6.7686811 7.4003906 6 L 7.4003906 4.8261719 C 8.9189138 4.5243734 10.459457 4.3730469 12 4.3730469 z M 3 17.400391 L 6 17.400391 C 6.3393189 17.400391 6.5996094 17.660681 6.5996094 18 L 6.5996094 21 C 6.5996094 21.339319 6.3393189 21.599609 6 21.599609 L 3 21.599609 C 2.6606811 21.599609 2.4003906 21.339319 2.4003906 21 L 2.4003906 18 C 2.4003906 17.660681 2.6606811 17.400391 3 17.400391 z M 18 17.400391 L 21 17.400391 C 21.339319 17.400391 21.599609 17.660681 21.599609 18 L 21.599609 21 C 21.599609 21.339319 21.339319 21.599609 21 21.599609 L 18 21.599609 C 17.660681 21.599609 17.400391 21.339319 17.400391 21 L 17.400391 18 C 17.400391 17.660681 17.660681 17.400391 18 17.400391 z " />
</svg>
