<?xml version="1.0" encoding="UTF-8" standalone="no"?>
<svg
   width="24"
   height="24"
   viewBox="0 0 24 24"
   fill="none"
   stroke="currentColor"
   stroke-width="0.8"
   stroke-linecap="round"
   stroke-linejoin="round"
   version="1.1"
   id="svg2"
   sodipodi:docname=".tmp_videotape.svg"
   xmlns:inkscape="http://www.inkscape.org/namespaces/inkscape"
   xmlns:sodipodi="http://sodipodi.sourceforge.net/DTD/sodipodi-0.dtd"
   xmlns="http://www.w3.org/2000/svg"
   xmlns:svg="http://www.w3.org/2000/svg">
  <defs
     id="defs2" />
  <sodipodi:namedview
     id="namedview2"
     pagecolor="#ffffff"
     bordercolor="#000000"
     borderopacity="0.25"
     inkscape:showpageshadow="2"
     inkscape:pageopacity="0.0"
     inkscape:pagecheckerboard="0"
     inkscape:deskcolor="#d1d1d1" />
  <path
     id="rect1"
     style="baseline-shift:baseline;display:inline;overflow:visible;vector-effect:none;fill:#000000;stroke:none;stroke-linecap:butt;stroke-linejoin:miter;enable-background:accumulate;stop-color:#000000;stop-opacity:1;opacity:1"
     d="M 4 3.5996094 C 2.6773189 3.5996094 1.5996094 4.6773189 1.5996094 6 L 1.5996094 18 C 1.5996094 19.322681 2.6773189 20.400391 4 20.400391 L 20 20.400391 C 21.322681 20.400391 22.400391 19.322681 22.400391 18 L 22.400391 6 C 22.400391 4.6773189 21.322681 3.5996094 20 3.5996094 L 4 3.5996094 z M 4 4.4003906 L 20 4.4003906 C 20.893319 4.4003906 21.599609 5.1066811 21.599609 6 L 21.599609 7.5996094 L 2.4003906 7.5996094 L 2.4003906 6 C 2.4003906 5.1066811 3.1066811 4.4003906 4 4.4003906 z M 2.4003906 8.4003906 L 21.599609 8.4003906 L 21.599609 18 C 21.599609 18.893319 20.893319 19.599609 20 19.599609 L 4 19.599609 C 3.1066811 19.599609 2.4003906 18.893319 2.4003906 18 L 2.4003906 8.4003906 z M 8 11.599609 C 6.6796805 11.600119 5.5996094 12.679566 5.5996094 14 C 5.5996094 15.320746 6.6792545 16.400391 8 16.400391 C 9.3207455 16.400391 10.400391 15.320746 10.400391 14 C 10.400391 13.386874 10.168559 12.825707 9.7871094 12.400391 L 14.212891 12.400391 C 13.831441 12.825707 13.599609 13.386874 13.599609 14 C 13.599609 15.320746 14.679254 16.400391 16 16.400391 C 17.320746 16.400391 18.400391 15.320746 18.400391 14 C 18.400391 12.679566 17.32032 11.60012 16 11.599609 L 8 11.599609 z M 8 12.400391 C 8.8883935 12.400391 9.5996094 13.111607 9.5996094 14 C 9.5996094 14.888393 8.8883935 15.599609 8 15.599609 C 7.1116065 15.599609 6.4003906 14.888393 6.4003906 14 C 6.4003906 13.111817 7.1119003 12.400727 8 12.400391 z M 16 12.400391 C 16.888099 12.400727 17.599609 13.111817 17.599609 14 C 17.599609 14.888393 16.888393 15.599609 16 15.599609 C 15.111607 15.599609 14.400391 14.888393 14.400391 14 C 14.400391 13.111607 15.111607 12.400391 16 12.400391 z " />
</svg>
