<?xml version="1.0" encoding="UTF-8" standalone="no"?>
<svg
   width="24"
   height="24"
   viewBox="0 0 24 24"
   fill="none"
   stroke="currentColor"
   stroke-width="0.8"
   stroke-linecap="round"
   stroke-linejoin="round"
   version="1.1"
   id="svg8"
   sodipodi:docname=".tmp_wand-sparkles.svg"
   xmlns:inkscape="http://www.inkscape.org/namespaces/inkscape"
   xmlns:sodipodi="http://sodipodi.sourceforge.net/DTD/sodipodi-0.dtd"
   xmlns="http://www.w3.org/2000/svg"
   xmlns:svg="http://www.w3.org/2000/svg">
  <defs
     id="defs8" />
  <sodipodi:namedview
     id="namedview8"
     pagecolor="#ffffff"
     bordercolor="#000000"
     borderopacity="0.25"
     inkscape:showpageshadow="2"
     inkscape:pageopacity="0.0"
     inkscape:pagecheckerboard="0"
     inkscape:deskcolor="#d1d1d1" />
  <path
     id="path1"
     style="baseline-shift:baseline;display:inline;overflow:visible;vector-effect:none;fill:#000000;stroke:none;stroke-linecap:butt;stroke-linejoin:miter;enable-background:accumulate;stop-color:#000000;stop-opacity:1;opacity:1"
     d="M 10 1.5996094 A 0.40000001 0.40000001 0 0 0 9.5996094 2 L 9.5996094 2.5996094 L 9 2.5996094 A 0.40000001 0.40000001 0 0 0 8.5996094 3 A 0.40000001 0.40000001 0 0 0 9 3.4003906 L 9.5996094 3.4003906 L 9.5996094 4 A 0.40000001 0.40000001 0 0 0 10 4.4003906 A 0.40000001 0.40000001 0 0 0 10.400391 4 L 10.400391 3.4003906 L 11 3.4003906 A 0.40000001 0.40000001 0 0 0 11.400391 3 A 0.40000001 0.40000001 0 0 0 11 2.5996094 L 10.400391 2.5996094 L 10.400391 2 A 0.40000001 0.40000001 0 0 0 10 1.5996094 z M 19.5 1.6035156 C 19.084506 1.6035156 18.668778 1.7615676 18.355469 2.078125 L 13.720703 6.7128906 A 0.40000001 0.40000001 0 0 0 13.716797 6.7167969 A 0.40000001 0.40000001 0 0 0 13.705078 6.7304688 L 2.078125 18.357422 C 1.4463924 18.984178 1.4454712 20.018369 2.078125 20.644531 L 3.3535156 21.919922 C 3.9769996 22.560616 5.0176284 22.560276 5.6425781 21.921875 L 17.269531 10.294922 A 0.40000001 0.40000001 0 0 0 17.279297 10.287109 L 17.287109 10.279297 A 0.40000001 0.40000001 0 0 0 17.294922 10.269531 L 21.919922 5.6464844 L 21.921875 5.6425781 C 22.559202 5.0187257 22.559202 3.9812743 21.921875 3.3574219 L 21.919922 3.3535156 A 0.40000001 0.40000001 0 0 0 21.917969 3.3535156 L 20.644531 2.078125 C 20.331222 1.7615676 19.915494 1.6035156 19.5 1.6035156 z M 19.5 2.3984375 C 19.707979 2.3984375 19.915958 2.4787499 20.076172 2.640625 A 0.40004001 0.40004001 0 0 0 20.078125 2.6425781 L 21.357422 3.921875 A 0.40000001 0.40000001 0 0 0 21.361328 3.921875 A 0.40000001 0.40000001 0 0 0 21.361328 3.9257812 C 21.687778 4.2434624 21.687778 4.7565376 21.361328 5.0742188 A 0.40004001 0.40004001 0 0 0 21.357422 5.078125 L 17 9.4335938 L 14.566406 7 L 18.921875 2.6425781 A 0.40004001 0.40004001 0 0 0 18.923828 2.640625 C 19.084042 2.4787499 19.292021 2.3984375 19.5 2.3984375 z M 5 5.5996094 A 0.40000001 0.40000001 0 0 0 4.5996094 6 L 4.5996094 7.5996094 L 3 7.5996094 A 0.40000001 0.40000001 0 0 0 2.5996094 8 A 0.40000001 0.40000001 0 0 0 3 8.4003906 L 4.5996094 8.4003906 L 4.5996094 10 A 0.40000001 0.40000001 0 0 0 5 10.400391 A 0.40000001 0.40000001 0 0 0 5.4003906 10 L 5.4003906 8.4003906 L 7 8.4003906 A 0.40000001 0.40000001 0 0 0 7.4003906 8 A 0.40000001 0.40000001 0 0 0 7 7.5996094 L 5.4003906 7.5996094 L 5.4003906 6 A 0.40000001 0.40000001 0 0 0 5 5.5996094 z M 14 7.5664062 L 16.433594 10 L 5.078125 21.357422 A 0.40004001 0.40004001 0 0 0 5.0742188 21.361328 C 4.7565376 21.687778 4.2434625 21.687778 3.9257812 21.361328 A 0.40004001 0.40004001 0 0 0 3.921875 21.357422 L 2.6425781 20.078125 A 0.40004001 0.40004001 0 0 0 2.640625 20.076172 C 2.3168748 19.755744 2.3168748 19.244256 2.640625 18.923828 A 0.40004001 0.40004001 0 0 0 2.6425781 18.921875 L 14 7.5664062 z M 19 13.599609 A 0.40000001 0.40000001 0 0 0 18.599609 14 L 18.599609 15.599609 L 17 15.599609 A 0.40000001 0.40000001 0 0 0 16.599609 16 A 0.40000001 0.40000001 0 0 0 17 16.400391 L 18.599609 16.400391 L 18.599609 18 A 0.40000001 0.40000001 0 0 0 19 18.400391 A 0.40000001 0.40000001 0 0 0 19.400391 18 L 19.400391 16.400391 L 21 16.400391 A 0.40000001 0.40000001 0 0 0 21.400391 16 A 0.40000001 0.40000001 0 0 0 21 15.599609 L 19.400391 15.599609 L 19.400391 14 A 0.40000001 0.40000001 0 0 0 19 13.599609 z " />
</svg>
