<?xml version="1.0" encoding="UTF-8" standalone="no"?>
<svg
   width="24"
   height="24"
   viewBox="0 0 24 24"
   fill="none"
   stroke="currentColor"
   stroke-width="0.8"
   stroke-linecap="round"
   stroke-linejoin="round"
   version="1.1"
   id="svg3"
   sodipodi:docname=".tmp_watch.svg"
   xmlns:inkscape="http://www.inkscape.org/namespaces/inkscape"
   xmlns:sodipodi="http://sodipodi.sourceforge.net/DTD/sodipodi-0.dtd"
   xmlns="http://www.w3.org/2000/svg"
   xmlns:svg="http://www.w3.org/2000/svg">
  <defs
     id="defs3" />
  <sodipodi:namedview
     id="namedview3"
     pagecolor="#ffffff"
     bordercolor="#000000"
     borderopacity="0.25"
     inkscape:showpageshadow="2"
     inkscape:pageopacity="0.0"
     inkscape:pagecheckerboard="0"
     inkscape:deskcolor="#d1d1d1" />
  <path
     id="path1"
     style="baseline-shift:baseline;display:inline;overflow:visible;vector-effect:none;fill:#000000;stroke:none;stroke-linecap:butt;stroke-linejoin:miter;enable-background:accumulate;stop-color:#000000;stop-opacity:1;opacity:1"
     d="M 10.648438 1.5996094 C 9.4887313 1.577385 8.4740181 2.3935558 8.2480469 3.53125 A 0.40004001 0.40004001 0 0 0 8.2480469 3.5351562 L 7.4902344 7.4609375 C 6.3230021 8.6209121 5.5996094 10.22783 5.5996094 12 C 5.5996094 13.782516 6.3324711 15.397095 7.5117188 16.558594 C 7.5123732 16.559238 7.5130171 16.559903 7.5136719 16.560547 L 8.2871094 20.4375 C 8.5130806 21.575194 9.5277943 22.391365 10.6875 22.369141 L 13.392578 22.369141 C 14.552284 22.391361 15.566998 21.575194 15.792969 20.4375 L 16.587891 16.458984 C 17.709401 15.305598 18.400391 13.732469 18.400391 12 C 18.400391 10.220168 17.670267 8.6083767 16.494141 7.4472656 L 15.712891 3.53125 C 15.486919 2.3935558 14.472206 1.577385 13.3125 1.5996094 L 10.648438 1.5996094 z M 10.632812 2.4003906 A 0.40004001 0.40004001 0 0 0 10.640625 2.4003906 L 13.320312 2.4003906 A 0.40004001 0.40004001 0 0 0 13.328125 2.4003906 C 14.105651 2.3854906 14.776232 2.9247311 14.927734 3.6875 L 15.521484 6.6582031 C 14.510643 5.9896643 13.300336 5.5996094 12 5.5996094 C 10.690858 5.5996094 9.4719859 5.9950092 8.4570312 6.671875 L 9.0332031 3.6875 L 9.0332031 3.6855469 C 9.1853841 2.9236993 9.8558806 2.3855017 10.632812 2.4003906 z M 12 6.4003906 C 13.466302 6.4003906 14.799689 6.9617463 15.796875 7.8808594 A 0.40000001 0.40000001 0 0 0 15.927734 8.0058594 C 16.960289 9.0210835 17.599609 10.434093 17.599609 12 C 17.599609 15.097532 15.097532 17.599609 12 17.599609 C 10.526765 17.599609 9.18816 17.034281 8.1894531 16.107422 A 0.40000001 0.40000001 0 0 0 8.1132812 16.035156 C 7.0565267 15.017224 6.4003906 13.586661 6.4003906 12 C 6.4003906 10.422444 7.049589 8.9992114 8.0957031 7.9824219 A 0.40000001 0.40000001 0 0 0 8.1699219 7.9101562 C 9.1705925 6.9729502 10.517537 6.4003906 12 6.4003906 z M 12 9.5996094 A 0.40000001 0.40000001 0 0 0 11.599609 10 L 11.599609 12.199219 A 0.40004001 0.40004001 0 0 0 11.787109 12.539062 L 13.388672 13.539062 A 0.40000001 0.40000001 0 0 0 13.939453 13.412109 A 0.40000001 0.40000001 0 0 0 13.8125 12.861328 L 12.400391 11.978516 L 12.400391 10 A 0.40000001 0.40000001 0 0 0 12 9.5996094 z M 15.607422 17.285156 L 15.007812 20.28125 C 14.85631 21.044019 14.18573 21.585213 13.408203 21.570312 A 0.40004001 0.40004001 0 0 0 13.400391 21.570312 L 10.679688 21.570312 A 0.40004001 0.40004001 0 0 0 10.671875 21.570312 C 9.8943235 21.585213 9.2237684 21.044019 9.0722656 20.28125 L 8.484375 17.347656 C 9.4938363 18.013431 10.702597 18.400391 12 18.400391 C 13.337282 18.400391 14.57964 17.988903 15.607422 17.285156 z " />
</svg>
