<?xml version="1.0" encoding="UTF-8" standalone="no"?>
<svg
   width="24"
   height="24"
   viewBox="0 0 24 24"
   fill="none"
   stroke="currentColor"
   stroke-width="0.8"
   stroke-linecap="round"
   stroke-linejoin="round"
   version="1.1"
   id="svg3"
   sodipodi:docname=".tmp_webhook.svg"
   xmlns:inkscape="http://www.inkscape.org/namespaces/inkscape"
   xmlns:sodipodi="http://sodipodi.sourceforge.net/DTD/sodipodi-0.dtd"
   xmlns="http://www.w3.org/2000/svg"
   xmlns:svg="http://www.w3.org/2000/svg">
  <defs
     id="defs3" />
  <sodipodi:namedview
     id="namedview3"
     pagecolor="#ffffff"
     bordercolor="#000000"
     borderopacity="0.25"
     inkscape:showpageshadow="2"
     inkscape:pageopacity="0.0"
     inkscape:pagecheckerboard="0"
     inkscape:deskcolor="#d1d1d1" />
  <path
     id="path1"
     style="baseline-shift:baseline;display:inline;overflow:visible;vector-effect:none;fill:#000000;stroke:none;stroke-linecap:butt;stroke-linejoin:miter;enable-background:accumulate;stop-color:#000000;stop-opacity:1;opacity:1"
     d="M 12.162109 1.5449219 C 11.883859 1.5448999 11.606212 1.5714617 11.333984 1.6230469 C 10.789528 1.7262173 10.264108 1.9279083 9.7871094 2.2089844 C 8.8331124 2.7711365 8.0624965 3.6543761 7.7265625 4.734375 C 7.3906285 5.8143739 7.5118146 7.0858587 8.2910156 8.3320312 A 0.40004001 0.40004001 0 0 0 8.2949219 8.3378906 C 8.8550265 9.1967176 9.198534 10.260061 8.7792969 11.027344 A 0.40004001 0.40004001 0 0 0 8.7773438 11.029297 L 5.6484375 16.808594 A 0.40000001 0.40000001 0 0 0 5.8085938 17.351562 A 0.40000001 0.40000001 0 0 0 6.3515625 17.191406 L 9.4804688 11.412109 C 10.120022 10.241607 9.6069697 8.8889359 8.96875 7.9082031 C 8.2964753 6.8330374 8.2212459 5.8374311 8.4902344 4.9726562 C 8.7592229 4.1078814 9.3938284 3.3695692 10.193359 2.8984375 C 10.992891 2.4273058 11.947168 2.2284036 12.833984 2.4121094 C 13.7208 2.5958151 14.555132 3.1448668 15.169922 4.2539062 A 0.40000001 0.40000001 0 0 0 15.714844 4.4101562 A 0.40000001 0.40000001 0 0 0 15.869141 3.8652344 C 15.156568 2.5798006 14.103619 1.8583325 12.996094 1.6289062 C 12.719212 1.5715497 12.44036 1.5449439 12.162109 1.5449219 z M 12.009766 5.5996094 A 0.40000001 0.40000001 0 0 0 11.808594 5.6484375 A 0.40000001 0.40000001 0 0 0 11.648438 6.1914062 L 14.779297 11.921875 C 15.418532 13.091796 16.827273 13.400391 18 13.400391 C 19.233333 13.400391 20.107815 13.848098 20.701172 14.515625 C 21.294529 15.183152 21.599609 16.088889 21.599609 17 C 21.599609 17.911111 21.294529 18.816848 20.701172 19.484375 C 20.107815 20.151902 19.233333 20.599609 18 20.599609 A 0.40000001 0.40000001 0 0 0 17.599609 21 A 0.40000001 0.40000001 0 0 0 18 21.400391 C 19.433333 21.400391 20.558853 20.848098 21.298828 20.015625 C 22.038804 19.183152 22.400391 18.088889 22.400391 17 C 22.400391 15.911111 22.038804 14.816848 21.298828 13.984375 C 20.558853 13.151902 19.433333 12.599609 18 12.599609 C 16.972727 12.599609 15.901234 12.309141 15.480469 11.539062 L 12.351562 5.8085938 A 0.40000001 0.40000001 0 0 0 12.009766 5.5996094 z M 2.5820312 14.601562 A 0.40000001 0.40000001 0 0 0 2.2304688 14.791016 C 1.8196241 15.45725 1.6105887 16.22559 1.5996094 16.994141 A 0.40004001 0.40004001 0 0 0 1.5996094 17 C 1.6003153 19.260413 3.1412451 20.820086 4.9335938 21.267578 C 6.7243125 21.714663 8.8168544 21.06478 9.8808594 19.074219 C 10.376797 18.175916 11.137644 17.380859 12.009766 17.380859 L 18 17.380859 A 0.40000001 0.40000001 0 0 0 18.400391 16.980469 A 0.40000001 0.40000001 0 0 0 18 16.580078 L 12.009766 16.580078 C 10.681887 16.580078 9.7437496 17.665803 9.1796875 18.6875 A 0.40004001 0.40004001 0 0 0 9.1777344 18.691406 C 8.2823844 20.371453 6.6116208 20.862374 5.1289062 20.492188 C 3.6467482 20.122141 2.4019182 18.904452 2.4003906 17.001953 C 2.410049 16.371778 2.581663 15.741676 2.9101562 15.208984 A 0.40000001 0.40000001 0 0 0 2.7792969 14.660156 A 0.40000001 0.40000001 0 0 0 2.5820312 14.601562 z " />
</svg>
