<?xml version="1.0" encoding="UTF-8" standalone="no"?>
<svg
   width="24"
   height="24"
   viewBox="0 0 24 24"
   fill="none"
   stroke="currentColor"
   stroke-width="0.8"
   stroke-linecap="round"
   stroke-linejoin="round"
   version="1.1"
   id="svg7"
   sodipodi:docname=".tmp_wifi-sync.svg"
   xmlns:inkscape="http://www.inkscape.org/namespaces/inkscape"
   xmlns:sodipodi="http://sodipodi.sourceforge.net/DTD/sodipodi-0.dtd"
   xmlns="http://www.w3.org/2000/svg"
   xmlns:svg="http://www.w3.org/2000/svg">
  <defs
     id="defs7" />
  <sodipodi:namedview
     id="namedview7"
     pagecolor="#ffffff"
     bordercolor="#000000"
     borderopacity="0.25"
     inkscape:showpageshadow="2"
     inkscape:pageopacity="0.0"
     inkscape:pagecheckerboard="0"
     inkscape:deskcolor="#d1d1d1" />
  <path
     id="path1"
     style="baseline-shift:baseline;display:inline;overflow:visible;vector-effect:none;fill:#000000;stroke:none;stroke-linecap:butt;stroke-linejoin:miter;enable-background:accumulate;stop-color:#000000;stop-opacity:1;opacity:1"
     d="M 12 4.6015625 C 8.3275147 4.6015625 4.6541179 5.90824 1.7324219 8.5214844 A 0.40000001 0.40000001 0 0 0 1.7011719 9.0859375 A 0.40000001 0.40000001 0 0 0 2.2675781 9.1171875 C 7.8122123 4.1579159 16.187788 4.1579159 21.732422 9.1171875 A 0.40000001 0.40000001 0 0 0 22.298828 9.0859375 A 0.40000001 0.40000001 0 0 0 22.267578 8.5214844 C 19.345882 5.90824 15.672485 4.6015625 12 4.6015625 z M 11.964844 9.7050781 A 0.40000001 0.40000001 0 0 0 11.564453 10.105469 L 11.564453 14.105469 A 0.40000001 0.40000001 0 0 0 11.568359 14.158203 A 0.40004001 0.40004001 0 0 0 11.576172 14.195312 A 0.40000001 0.40000001 0 0 0 11.578125 14.210938 A 0.40004001 0.40004001 0 0 0 11.59375 14.251953 A 0.40000001 0.40000001 0 0 0 11.597656 14.259766 A 0.40004001 0.40004001 0 0 0 11.603516 14.273438 A 0.40000001 0.40000001 0 0 0 11.625 14.316406 A 0.40004001 0.40004001 0 0 0 11.625 14.318359 A 0.40004001 0.40004001 0 0 0 11.626953 14.322266 A 0.40000001 0.40000001 0 0 0 11.65625 14.359375 A 0.40004001 0.40004001 0 0 0 11.664062 14.369141 A 0.40000001 0.40000001 0 0 0 11.681641 14.388672 A 0.40004001 0.40004001 0 0 0 11.697266 14.402344 A 0.40000001 0.40000001 0 0 0 11.822266 14.478516 A 0.40004001 0.40004001 0 0 0 11.849609 14.488281 A 0.40000001 0.40000001 0 0 0 11.964844 14.505859 L 15.964844 14.505859 A 0.40000001 0.40000001 0 0 0 16.365234 14.105469 A 0.40000001 0.40000001 0 0 0 15.964844 13.705078 L 12.902344 13.705078 L 13.779297 12.789062 C 16.064805 10.59413 19.802511 11.293343 21.136719 14.167969 A 0.40000001 0.40000001 0 0 0 21.667969 14.363281 A 0.40000001 0.40000001 0 0 0 21.863281 13.832031 C 20.307772 10.4806 15.886612 9.6506551 13.222656 12.210938 A 0.40004001 0.40004001 0 0 0 13.210938 12.222656 L 12.365234 13.107422 L 12.365234 10.105469 A 0.40000001 0.40000001 0 0 0 11.964844 9.7050781 z M 7.9921875 10.427734 A 0.40000001 0.40000001 0 0 0 7.8398438 10.460938 C 6.6798379 10.969496 5.621385 11.685683 4.71875 12.574219 A 0.40000001 0.40000001 0 0 0 4.7148438 13.140625 A 0.40000001 0.40000001 0 0 0 5.28125 13.144531 C 6.1144598 12.324346 7.0893757 11.664755 8.1601562 11.195312 A 0.40000001 0.40000001 0 0 0 8.3671875 10.667969 A 0.40000001 0.40000001 0 0 0 7.9921875 10.427734 z M 8.5 16.029297 A 0.40000001 0.40000001 0 0 0 8.0996094 16.429688 A 0.40000001 0.40000001 0 0 0 8.5 16.828125 L 8.5097656 16.828125 A 0.40000001 0.40000001 0 0 0 8.9101562 16.429688 A 0.40000001 0.40000001 0 0 0 8.5097656 16.029297 L 8.5 16.029297 z M 17.964844 17.705078 A 0.40000001 0.40000001 0 0 0 17.564453 18.105469 A 0.40000001 0.40000001 0 0 0 17.964844 18.505859 L 21.027344 18.505859 L 20.152344 19.421875 L 20.150391 19.421875 C 17.864882 21.616807 14.127177 20.915641 12.792969 18.041016 A 0.40000001 0.40000001 0 0 0 12.261719 17.847656 A 0.40000001 0.40000001 0 0 0 12.066406 18.378906 C 13.621915 21.730338 18.043076 22.558329 20.707031 19.998047 A 0.40004001 0.40004001 0 0 0 20.71875 19.986328 L 21.564453 19.101562 L 21.564453 22.105469 A 0.40000001 0.40000001 0 0 0 21.964844 22.505859 A 0.40000001 0.40000001 0 0 0 22.365234 22.105469 L 22.365234 18.105469 A 0.40000001 0.40000001 0 0 0 22.341797 17.972656 A 0.40004001 0.40004001 0 0 0 22.320312 17.923828 A 0.40000001 0.40000001 0 0 0 22.144531 17.748047 A 0.40004001 0.40004001 0 0 0 22.117188 17.736328 A 0.40000001 0.40000001 0 0 0 22.09375 17.726562 A 0.40004001 0.40004001 0 0 0 22.03125 17.710938 A 0.40000001 0.40000001 0 0 0 22.019531 17.708984 A 0.40004001 0.40004001 0 0 0 22.017578 17.708984 A 0.40000001 0.40000001 0 0 0 21.964844 17.705078 L 17.964844 17.705078 z " />
</svg>
