<?xml version="1.0" encoding="UTF-8" standalone="no"?>
<svg
   width="24"
   height="24"
   viewBox="0 0 24 24"
   fill="none"
   stroke="currentColor"
   stroke-width="1.125"
   stroke-linecap="round"
   stroke-linejoin="round"
   version="1.1"
   id="svg2"
   sodipodi:docname=".tmp_airplay.svg"
   xmlns:inkscape="http://www.inkscape.org/namespaces/inkscape"
   xmlns:sodipodi="http://sodipodi.sourceforge.net/DTD/sodipodi-0.dtd"
   xmlns="http://www.w3.org/2000/svg"
   xmlns:svg="http://www.w3.org/2000/svg">
  <defs
     id="defs2" />
  <sodipodi:namedview
     id="namedview2"
     pagecolor="#ffffff"
     bordercolor="#000000"
     borderopacity="0.25"
     inkscape:showpageshadow="2"
     inkscape:pageopacity="0.0"
     inkscape:pagecheckerboard="0"
     inkscape:deskcolor="#d1d1d1" />
  <path
     id="path1"
     style="baseline-shift:baseline;display:inline;overflow:visible;vector-effect:none;fill:#000000;stroke:none;stroke-linecap:butt;stroke-linejoin:miter;enable-background:accumulate;stop-color:#000000;stop-opacity:1;opacity:1"
     d="M 4 2.4375 C 2.5914329 2.4375 1.4375 3.5914329 1.4375 5 L 1.4375 15 C 1.4375 16.408567 2.5914329 17.5625 4 17.5625 L 5 17.5625 A 0.5625 0.5625 0 0 0 5.5625 17 A 0.5625 0.5625 0 0 0 5 16.4375 L 4 16.4375 C 3.1994281 16.4375 2.5625 15.800572 2.5625 15 L 2.5625 5 C 2.5625 4.1994281 3.1994281 3.5625 4 3.5625 L 20 3.5625 C 20.800572 3.5625 21.4375 4.1994281 21.4375 5 L 21.4375 15 C 21.4375 15.800572 20.800572 16.4375 20 16.4375 L 19 16.4375 A 0.5625 0.5625 0 0 0 18.4375 17 A 0.5625 0.5625 0 0 0 19 17.5625 L 20 17.5625 C 21.408567 17.5625 22.5625 16.408567 22.5625 15 L 22.5625 5 C 22.5625 3.5914329 21.408567 2.4375 20 2.4375 L 4 2.4375 z M 12 14.4375 A 0.56255625 0.56255625 0 0 0 11.568359 14.640625 L 6.5683594 20.640625 A 0.56255625 0.56255625 0 0 0 7 21.5625 L 17 21.5625 A 0.56255625 0.56255625 0 0 0 17.431641 20.640625 L 12.431641 14.640625 A 0.56255625 0.56255625 0 0 0 12 14.4375 z M 12 15.876953 L 15.800781 20.4375 L 8.1992188 20.4375 L 12 15.876953 z " />
</svg>
