<?xml version="1.0" encoding="UTF-8" standalone="no"?>
<svg
   width="24"
   height="24"
   viewBox="0 0 24 24"
   fill="none"
   stroke="currentColor"
   stroke-width="1.125"
   stroke-linecap="round"
   stroke-linejoin="round"
   version="1.1"
   id="svg2"
   sodipodi:docname=".tmp_align-horizontal-space-around.svg"
   xmlns:inkscape="http://www.inkscape.org/namespaces/inkscape"
   xmlns:sodipodi="http://sodipodi.sourceforge.net/DTD/sodipodi-0.dtd"
   xmlns="http://www.w3.org/2000/svg"
   xmlns:svg="http://www.w3.org/2000/svg">
  <defs
     id="defs2" />
  <sodipodi:namedview
     id="namedview2"
     pagecolor="#ffffff"
     bordercolor="#000000"
     borderopacity="0.25"
     inkscape:showpageshadow="2"
     inkscape:pageopacity="0.0"
     inkscape:pagecheckerboard="0"
     inkscape:deskcolor="#d1d1d1" />
  <path
     id="rect1"
     style="baseline-shift:baseline;display:inline;overflow:visible;vector-effect:none;fill:#000000;stroke:none;stroke-linecap:butt;stroke-linejoin:miter;enable-background:accumulate;stop-color:#000000;stop-opacity:1;opacity:1"
     d="M 4 1.4375 A 0.5625 0.5625 0 0 0 3.4375 2 L 3.4375 22 A 0.5625 0.5625 0 0 0 4 22.5625 A 0.5625 0.5625 0 0 0 4.5625 22 L 4.5625 2 A 0.5625 0.5625 0 0 0 4 1.4375 z M 20 1.4375 A 0.5625 0.5625 0 0 0 19.4375 2 L 19.4375 22 A 0.5625 0.5625 0 0 0 20 22.5625 A 0.5625 0.5625 0 0 0 20.5625 22 L 20.5625 2 A 0.5625 0.5625 0 0 0 20 1.4375 z M 11 6.4375 C 9.5901047 6.4375 8.4375 7.5901047 8.4375 9 L 8.4375 15 C 8.4375 16.409895 9.5901047 17.5625 11 17.5625 L 13 17.5625 C 14.409895 17.5625 15.5625 16.409895 15.5625 15 L 15.5625 9 C 15.5625 7.5901047 14.409895 6.4375 13 6.4375 L 11 6.4375 z M 11 7.5625 L 13 7.5625 C 13.806105 7.5625 14.4375 8.1938953 14.4375 9 L 14.4375 15 C 14.4375 15.806105 13.806105 16.4375 13 16.4375 L 11 16.4375 C 10.193895 16.4375 9.5625 15.806105 9.5625 15 L 9.5625 9 C 9.5625 8.1938953 10.193895 7.5625 11 7.5625 z " />
</svg>
