<?xml version="1.0" encoding="UTF-8" standalone="no"?>
<svg
   width="24"
   height="24"
   viewBox="0 0 24 24"
   fill="none"
   stroke="currentColor"
   stroke-width="1.125"
   stroke-linecap="round"
   stroke-linejoin="round"
   version="1.1"
   id="svg2"
   sodipodi:docname=".tmp_align-end-vertical.svg"
   xmlns:inkscape="http://www.inkscape.org/namespaces/inkscape"
   xmlns:sodipodi="http://sodipodi.sourceforge.net/DTD/sodipodi-0.dtd"
   xmlns="http://www.w3.org/2000/svg"
   xmlns:svg="http://www.w3.org/2000/svg">
  <defs
     id="defs2" />
  <sodipodi:namedview
     id="namedview2"
     pagecolor="#ffffff"
     bordercolor="#000000"
     borderopacity="0.25"
     inkscape:showpageshadow="2"
     inkscape:pageopacity="0.0"
     inkscape:pagecheckerboard="0"
     inkscape:deskcolor="#d1d1d1" />
  <path
     id="rect1"
     style="baseline-shift:baseline;display:inline;overflow:visible;vector-effect:none;fill:#000000;stroke:none;stroke-linecap:butt;stroke-linejoin:miter;enable-background:accumulate;stop-color:#000000;stop-opacity:1;opacity:1"
     d="M 22 1.4375 A 0.5625 0.5625 0 0 0 21.4375 2 L 21.4375 22 A 0.5625 0.5625 0 0 0 22 22.5625 A 0.5625 0.5625 0 0 0 22.5625 22 L 22.5625 2 A 0.5625 0.5625 0 0 0 22 1.4375 z M 4 3.4375 C 2.5901047 3.4375 1.4375 4.5901047 1.4375 6 L 1.4375 8 C 1.4375 9.4098953 2.5901047 10.5625 4 10.5625 L 16 10.5625 C 17.409895 10.5625 18.5625 9.4098953 18.5625 8 L 18.5625 6 C 18.5625 4.5901047 17.409895 3.4375 16 3.4375 L 4 3.4375 z M 4 4.5625 L 16 4.5625 C 16.806105 4.5625 17.4375 5.1938953 17.4375 6 L 17.4375 8 C 17.4375 8.8061047 16.806105 9.4375 16 9.4375 L 4 9.4375 C 3.1938953 9.4375 2.5625 8.8061047 2.5625 8 L 2.5625 6 C 2.5625 5.1938953 3.1938953 4.5625 4 4.5625 z M 11 13.4375 C 9.5901047 13.4375 8.4375 14.590105 8.4375 16 L 8.4375 18 C 8.4375 19.409895 9.5901047 20.5625 11 20.5625 L 16 20.5625 C 17.409895 20.5625 18.5625 19.409895 18.5625 18 L 18.5625 16 C 18.5625 14.590105 17.409895 13.4375 16 13.4375 L 11 13.4375 z M 11 14.5625 L 16 14.5625 C 16.806105 14.5625 17.4375 15.193895 17.4375 16 L 17.4375 18 C 17.4375 18.806105 16.806105 19.4375 16 19.4375 L 11 19.4375 C 10.193895 19.4375 9.5625 18.806105 9.5625 18 L 9.5625 16 C 9.5625 15.193895 10.193895 14.5625 11 14.5625 z " />
</svg>
