<?xml version="1.0" encoding="UTF-8" standalone="no"?>
<svg
   width="24"
   height="24"
   viewBox="0 0 24 24"
   fill="none"
   stroke="currentColor"
   stroke-width="1.125"
   stroke-linecap="round"
   stroke-linejoin="round"
   version="1.1"
   id="svg2"
   sodipodi:docname=".tmp_align-vertical-justify-start.svg"
   xmlns:inkscape="http://www.inkscape.org/namespaces/inkscape"
   xmlns:sodipodi="http://sodipodi.sourceforge.net/DTD/sodipodi-0.dtd"
   xmlns="http://www.w3.org/2000/svg"
   xmlns:svg="http://www.w3.org/2000/svg">
  <defs
     id="defs2" />
  <sodipodi:namedview
     id="namedview2"
     pagecolor="#ffffff"
     bordercolor="#000000"
     borderopacity="0.25"
     inkscape:showpageshadow="2"
     inkscape:pageopacity="0.0"
     inkscape:pagecheckerboard="0"
     inkscape:deskcolor="#d1d1d1" />
  <path
     id="rect1"
     style="baseline-shift:baseline;display:inline;overflow:visible;vector-effect:none;fill:#000000;stroke:none;stroke-linecap:butt;stroke-linejoin:miter;enable-background:accumulate;stop-color:#000000;stop-opacity:1;opacity:1"
     d="M 2 1.4375 A 0.5625 0.5625 0 0 0 1.4375 2 A 0.5625 0.5625 0 0 0 2 2.5625 L 22 2.5625 A 0.5625 0.5625 0 0 0 22.5625 2 A 0.5625 0.5625 0 0 0 22 1.4375 L 2 1.4375 z M 9 5.4375 C 7.5901047 5.4375 6.4375 6.5901047 6.4375 8 L 6.4375 10 C 6.4375 11.409895 7.5901047 12.5625 9 12.5625 L 15 12.5625 C 16.409895 12.5625 17.5625 11.409895 17.5625 10 L 17.5625 8 C 17.5625 6.5901047 16.409895 5.4375 15 5.4375 L 9 5.4375 z M 9 6.5625 L 15 6.5625 C 15.806105 6.5625 16.4375 7.1938953 16.4375 8 L 16.4375 10 C 16.4375 10.806105 15.806105 11.4375 15 11.4375 L 9 11.4375 C 8.1938953 11.4375 7.5625 10.806105 7.5625 10 L 7.5625 8 C 7.5625 7.1938953 8.1938953 6.5625 9 6.5625 z M 7 15.4375 C 5.5901047 15.4375 4.4375 16.590105 4.4375 18 L 4.4375 20 C 4.4375 21.409895 5.5901047 22.5625 7 22.5625 L 17 22.5625 C 18.409895 22.5625 19.5625 21.409895 19.5625 20 L 19.5625 18 C 19.5625 16.590105 18.409895 15.4375 17 15.4375 L 7 15.4375 z M 7 16.5625 L 17 16.5625 C 17.806105 16.5625 18.4375 17.193895 18.4375 18 L 18.4375 20 C 18.4375 20.806105 17.806105 21.4375 17 21.4375 L 7 21.4375 C 6.1938953 21.4375 5.5625 20.806105 5.5625 20 L 5.5625 18 C 5.5625 17.193895 6.1938953 16.5625 7 16.5625 z " />
</svg>
