<?xml version="1.0" encoding="UTF-8" standalone="no"?>
<svg
   width="24"
   height="24"
   viewBox="0 0 24 24"
   fill="none"
   stroke="currentColor"
   stroke-width="1.125"
   stroke-linecap="round"
   stroke-linejoin="round"
   version="1.1"
   id="svg5"
   sodipodi:docname=".tmp_anvil.svg"
   xmlns:inkscape="http://www.inkscape.org/namespaces/inkscape"
   xmlns:sodipodi="http://sodipodi.sourceforge.net/DTD/sodipodi-0.dtd"
   xmlns="http://www.w3.org/2000/svg"
   xmlns:svg="http://www.w3.org/2000/svg">
  <defs
     id="defs5" />
  <sodipodi:namedview
     id="namedview5"
     pagecolor="#ffffff"
     bordercolor="#000000"
     borderopacity="0.25"
     inkscape:showpageshadow="2"
     inkscape:pageopacity="0.0"
     inkscape:pagecheckerboard="0"
     inkscape:deskcolor="#d1d1d1" />
  <path
     id="path1"
     style="baseline-shift:baseline;display:inline;overflow:visible;vector-effect:none;fill:#000000;stroke:none;stroke-linecap:butt;stroke-linejoin:miter;enable-background:accumulate;stop-color:#000000;stop-opacity:1;opacity:1"
     d="M 8 3.4375 C 7.3415093 3.4375 6.7710442 3.8551418 6.5429688 4.4375 L 3 4.4375 C 2.1437177 4.4375 1.4375 5.1437177 1.4375 6 C 1.4375 8.5131366 3.4868634 10.5625 6 10.5625 L 6.4375 10.5625 L 6.4375 11 C 6.4375 11.856282 7.1437177 12.5625 8 12.5625 L 8.4375 12.5625 L 8.4375 16.4375 L 8 16.4375 C 6.0391482 16.4375 4.4375 18.039148 4.4375 20 C 4.4375 20.856282 5.1437177 21.5625 6 21.5625 L 18 21.5625 C 18.856282 21.5625 19.5625 20.856282 19.5625 20 C 19.5625 18.039148 17.960852 16.4375 16 16.4375 L 15.5625 16.4375 L 15.5625 12.541016 C 19.470827 12.2523 22.5625 8.9808092 22.5625 5 C 22.5625 4.1437177 21.856282 3.4375 21 3.4375 L 8 3.4375 z M 8 4.5625 L 21 4.5625 C 21.248287 4.5625 21.4375 4.7517128 21.4375 5 C 21.4375 8.5619957 18.561996 11.4375 15 11.4375 L 8 11.4375 C 7.7517128 11.4375 7.5625 11.248287 7.5625 11 L 7.5625 5 C 7.5625 4.7517128 7.7517128 4.5625 8 4.5625 z M 3 5.5625 L 6.4375 5.5625 L 6.4375 9.4375 L 6 9.4375 C 4.0948586 9.4375 2.5625 7.9051414 2.5625 6 C 2.5625 5.7517128 2.7517128 5.5625 3 5.5625 z M 9.5625 12.5625 L 14.4375 12.5625 L 14.4375 16.4375 L 9.5625 16.4375 L 9.5625 12.5625 z M 8 17.5625 L 9 17.5625 L 15 17.5625 L 16 17.5625 C 17.352857 17.5625 18.4375 18.647143 18.4375 20 C 18.4375 20.248287 18.248287 20.4375 18 20.4375 L 6 20.4375 C 5.7517128 20.4375 5.5625 20.248287 5.5625 20 C 5.5625 18.647143 6.6471433 17.5625 8 17.5625 z " />
</svg>
