<?xml version="1.0" encoding="UTF-8" standalone="no"?>
<svg
   width="24"
   height="24"
   viewBox="0 0 24 24"
   fill="none"
   stroke="currentColor"
   stroke-width="1.125"
   stroke-linecap="round"
   stroke-linejoin="round"
   version="1.1"
   id="svg3"
   sodipodi:docname=".tmp_asterisk.svg"
   xmlns:inkscape="http://www.inkscape.org/namespaces/inkscape"
   xmlns:sodipodi="http://sodipodi.sourceforge.net/DTD/sodipodi-0.dtd"
   xmlns="http://www.w3.org/2000/svg"
   xmlns:svg="http://www.w3.org/2000/svg">
  <defs
     id="defs3" />
  <sodipodi:namedview
     id="namedview3"
     pagecolor="#ffffff"
     bordercolor="#000000"
     borderopacity="0.25"
     inkscape:showpageshadow="2"
     inkscape:pageopacity="0.0"
     inkscape:pagecheckerboard="0"
     inkscape:deskcolor="#d1d1d1" />
  <path
     id="path1"
     style="baseline-shift:baseline;display:inline;overflow:visible;vector-effect:none;fill:#000000;stroke:none;stroke-linecap:butt;stroke-linejoin:miter;enable-background:accumulate;stop-color:#000000;stop-opacity:1;opacity:1"
     d="M 12 5.4375 A 0.5625 0.5625 0 0 0 11.4375 6 L 11.4375 11.027344 L 7.0859375 8.5136719 A 0.5625 0.5625 0 0 0 6.6582031 8.4570312 A 0.5625 0.5625 0 0 0 6.3164062 8.71875 A 0.5625 0.5625 0 0 0 6.5234375 9.4863281 L 10.876953 12 L 6.5234375 14.513672 A 0.5625 0.5625 0 0 0 6.3164062 15.28125 A 0.5625 0.5625 0 0 0 7.0859375 15.486328 L 11.4375 12.972656 L 11.4375 18 A 0.5625 0.5625 0 0 0 12 18.5625 A 0.5625 0.5625 0 0 0 12.5625 18 L 12.5625 12.972656 L 16.914062 15.486328 A 0.5625 0.5625 0 0 0 17.683594 15.28125 A 0.5625 0.5625 0 0 0 17.476562 14.513672 L 13.123047 12 L 17.476562 9.4863281 A 0.5625 0.5625 0 0 0 17.683594 8.71875 A 0.5625 0.5625 0 0 0 16.914062 8.5136719 L 12.5625 11.027344 L 12.5625 6 A 0.5625 0.5625 0 0 0 12 5.4375 z " />
</svg>
