<?xml version="1.0" encoding="UTF-8" standalone="no"?>
<svg
   width="24"
   height="24"
   viewBox="0 0 24 24"
   fill="none"
   stroke="currentColor"
   stroke-width="1.125"
   stroke-linecap="round"
   stroke-linejoin="round"
   version="1.1"
   id="svg3"
   sodipodi:docname=".tmp_baggage-claim.svg"
   xmlns:inkscape="http://www.inkscape.org/namespaces/inkscape"
   xmlns:sodipodi="http://sodipodi.sourceforge.net/DTD/sodipodi-0.dtd"
   xmlns="http://www.w3.org/2000/svg"
   xmlns:svg="http://www.w3.org/2000/svg">
  <defs
     id="defs3" />
  <sodipodi:namedview
     id="namedview3"
     pagecolor="#ffffff"
     bordercolor="#000000"
     borderopacity="0.25"
     inkscape:showpageshadow="2"
     inkscape:pageopacity="0.0"
     inkscape:pagecheckerboard="0"
     inkscape:deskcolor="#d1d1d1" />
  <path
     id="path1"
     style="baseline-shift:baseline;display:inline;overflow:visible;vector-effect:none;fill:#000000;stroke:none;stroke-linecap:butt;stroke-linejoin:miter;enable-background:accumulate;stop-color:#000000;stop-opacity:1;opacity:1"
     d="M 14 1.4375 C 12.591433 1.4375 11.4375 2.5914329 11.4375 4 L 11.4375 5.4375 L 9 5.4375 C 8.1441047 5.4375 7.4375 6.1441047 7.4375 7 L 7.4375 13 C 7.4375 13.855895 8.1441047 14.5625 9 14.5625 L 20 14.5625 C 20.855895 14.5625 21.5625 13.855895 21.5625 13 L 21.5625 7 C 21.5625 6.1441047 20.855895 5.4375 20 5.4375 L 17.5625 5.4375 L 17.5625 4 C 17.5625 2.5914329 16.408567 1.4375 15 1.4375 L 14 1.4375 z M 14 2.5625 L 15 2.5625 C 15.800572 2.5625 16.4375 3.1994281 16.4375 4 L 16.4375 5.4375 L 12.5625 5.4375 L 12.5625 4 C 12.5625 3.1994281 13.199428 2.5625 14 2.5625 z M 2 4.4375 A 0.5625 0.5625 0 0 0 1.4375 5 A 0.5625 0.5625 0 0 0 2 5.5625 C 2.8005719 5.5625 3.4375 6.1994281 3.4375 7 L 3.4375 16 C 3.4375 17.408567 4.5914329 18.5625 6 18.5625 L 6.8828125 18.5625 C 6.6024983 18.973191 6.4375 19.468466 6.4375 20 C 6.4375 21.408567 7.5914329 22.5625 9 22.5625 C 10.408567 22.5625 11.5625 21.408567 11.5625 20 C 11.5625 19.468466 11.397502 18.973191 11.117188 18.5625 L 15.882812 18.5625 C 15.602498 18.973191 15.4375 19.468466 15.4375 20 C 15.4375 21.408567 16.591433 22.5625 18 22.5625 C 19.408567 22.5625 20.5625 21.408567 20.5625 20 C 20.5625 19.468466 20.397502 18.973191 20.117188 18.5625 L 22 18.5625 A 0.5625 0.5625 0 0 0 22.5625 18 A 0.5625 0.5625 0 0 0 22 17.4375 L 9 17.4375 L 6 17.4375 C 5.1994281 17.4375 4.5625 16.800572 4.5625 16 L 4.5625 7 C 4.5625 5.5914329 3.4085671 4.4375 2 4.4375 z M 9 6.5625 L 11.4375 6.5625 L 11.4375 13.4375 L 9 13.4375 C 8.7478953 13.4375 8.5625 13.252105 8.5625 13 L 8.5625 7 C 8.5625 6.7478953 8.7478953 6.5625 9 6.5625 z M 12.5625 6.5625 L 16.4375 6.5625 L 16.4375 13.4375 L 12.5625 13.4375 L 12.5625 6.5625 z M 17.5625 6.5625 L 20 6.5625 C 20.252105 6.5625 20.4375 6.7478953 20.4375 7 L 20.4375 13 C 20.4375 13.252105 20.252105 13.4375 20 13.4375 L 17.5625 13.4375 L 17.5625 6.5625 z M 9 18.5625 C 9.8005719 18.5625 10.4375 19.199428 10.4375 20 C 10.4375 20.800572 9.8005719 21.4375 9 21.4375 C 8.1994281 21.4375 7.5625 20.800572 7.5625 20 C 7.5625 19.199428 8.1994281 18.5625 9 18.5625 z M 18 18.5625 C 18.800572 18.5625 19.4375 19.199428 19.4375 20 C 19.4375 20.800572 18.800572 21.4375 18 21.4375 C 17.199428 21.4375 16.5625 20.800572 16.5625 20 C 16.5625 19.199428 17.199428 18.5625 18 18.5625 z " />
</svg>
