<?xml version="1.0" encoding="UTF-8" standalone="no"?>
<svg
   width="24"
   height="24"
   viewBox="0 0 24 24"
   fill="none"
   stroke="currentColor"
   stroke-width="1.125"
   stroke-linecap="round"
   stroke-linejoin="round"
   version="1.1"
   id="svg2"
   sodipodi:docname=".tmp_banana.svg"
   xmlns:inkscape="http://www.inkscape.org/namespaces/inkscape"
   xmlns:sodipodi="http://sodipodi.sourceforge.net/DTD/sodipodi-0.dtd"
   xmlns="http://www.w3.org/2000/svg"
   xmlns:svg="http://www.w3.org/2000/svg">
  <defs
     id="defs2" />
  <sodipodi:namedview
     id="namedview2"
     pagecolor="#ffffff"
     bordercolor="#000000"
     borderopacity="0.25"
     inkscape:showpageshadow="2"
     inkscape:pageopacity="0.0"
     inkscape:pagecheckerboard="0"
     inkscape:deskcolor="#d1d1d1" />
  <path
     id="path1"
     style="baseline-shift:baseline;display:inline;overflow:visible;vector-effect:none;fill:#000000;stroke:none;stroke-linecap:butt;stroke-linejoin:miter;enable-background:accumulate;stop-color:#000000;stop-opacity:1;opacity:1"
     d="M 13 1.4375 C 12.5 1.4375 12.034208 1.6321599 11.732422 1.9648438 C 11.430635 2.2975277 11.290383 2.7190379 11.230469 3.1601562 C 11.11064 4.0423928 11.297329 5.0653028 11.613281 6.0605469 A 0.56255625 0.56255625 0 0 0 11.615234 6.0625 C 12.241864 8.003213 12.139318 9.9830232 11.447266 11.748047 C 10.876505 11.466159 10.268064 11.280172 9.6386719 11.193359 C 7.670123 10.921835 5.5608668 11.460197 3.7207031 12.511719 A 0.5625 0.5625 0 0 0 3.5117188 13.279297 A 0.5625 0.5625 0 0 0 4.2792969 13.488281 C 5.9391332 12.539803 7.829877 12.078165 9.4863281 12.306641 C 10.013071 12.379295 10.516476 12.517525 10.988281 12.730469 C 9.8184897 14.881014 7.7225951 16.597956 5 17.347656 C 4.0173157 17.621439 3.2261913 17.758628 2.5683594 18.089844 C 2.2394434 18.255452 1.9348472 18.488688 1.7304688 18.820312 C 1.5260903 19.151937 1.4375 19.55375 1.4375 20 C 1.4375 20.645781 1.7245817 21.213368 2.1582031 21.583984 C 2.5918246 21.954601 3.1383564 22.1619 3.7285156 22.298828 C 4.908834 22.572684 6.3097656 22.5625 7.5097656 22.5625 C 10.818716 22.5625 13.613736 21.099423 15.544922 18.798828 C 16.448477 17.722435 17.166835 16.464527 17.675781 15.085938 C 19.792485 15.602395 21.48327 17.510446 21.4375 19.990234 A 0.5625 0.5625 0 0 0 21.990234 20.5625 A 0.5625 0.5625 0 0 0 22.5625 20.009766 C 22.61753 17.028169 20.560122 14.7517 17.994141 14.115234 C 18.367067 12.816895 18.5625 11.430801 18.5625 10 C 18.5625 8.6165 18.102994 6.5867665 17.210938 4.8105469 C 16.764909 3.9224371 16.209473 3.0995845 15.515625 2.4785156 C 14.821777 1.8574467 13.965132 1.4375 13 1.4375 z M 13 2.5625 C 13.644868 2.5625 14.218145 2.8300533 14.763672 3.3183594 C 15.309199 3.8066655 15.803607 4.5150629 16.205078 5.3144531 C 17.008021 6.9132335 17.4375 8.8835 17.4375 10 C 17.4375 11.380871 17.241151 12.712733 16.871094 13.947266 C 15.995216 13.898161 15.088555 14.037761 14.208984 14.400391 C 13.71 13.548666 13.095747 12.859701 12.402344 12.337891 C 13.256301 10.296155 13.415193 7.9835987 12.685547 5.7207031 L 12.685547 5.7167969 C 12.402415 4.8233795 12.265659 3.9018246 12.345703 3.3125 C 12.385789 3.0173683 12.474443 2.8220818 12.566406 2.7207031 C 12.65837 2.6193244 12.75 2.5625 13 2.5625 z M 11.939453 13.298828 C 12.546324 13.76663 13.073508 14.406783 13.496094 15.251953 A 0.56255625 0.56255625 0 0 0 14.255859 15.501953 C 15.000638 15.121705 15.772831 14.94707 16.523438 14.947266 C 16.064619 16.112247 15.443867 17.170468 14.683594 18.076172 C 12.942279 20.150577 10.490815 21.4375 7.5097656 21.4375 C 6.3097656 21.4375 4.9571035 21.42732 3.9824219 21.201172 C 3.4950811 21.0881 3.1131754 20.920399 2.8886719 20.728516 C 2.6641683 20.536632 2.5625 20.354219 2.5625 20 C 2.5625 19.69625 2.615316 19.529235 2.6875 19.412109 C 2.759684 19.294984 2.8668846 19.200095 3.0742188 19.095703 C 3.4885527 18.887087 4.2727305 18.717437 5.2988281 18.431641 C 8.2830592 17.609896 10.617108 15.699061 11.939453 13.298828 z " />
</svg>
