<?xml version="1.0" encoding="UTF-8" standalone="no"?>
<svg
   width="24"
   height="24"
   viewBox="0 0 24 24"
   fill="none"
   stroke="currentColor"
   stroke-width="1.125"
   stroke-linecap="round"
   stroke-linejoin="round"
   version="1.1"
   id="svg5"
   sodipodi:docname=".tmp_barrel.svg"
   xmlns:inkscape="http://www.inkscape.org/namespaces/inkscape"
   xmlns:sodipodi="http://sodipodi.sourceforge.net/DTD/sodipodi-0.dtd"
   xmlns="http://www.w3.org/2000/svg"
   xmlns:svg="http://www.w3.org/2000/svg">
  <defs
     id="defs5" />
  <sodipodi:namedview
     id="namedview5"
     pagecolor="#ffffff"
     bordercolor="#000000"
     borderopacity="0.25"
     inkscape:showpageshadow="2"
     inkscape:pageopacity="0.0"
     inkscape:pagecheckerboard="0"
     inkscape:deskcolor="#d1d1d1" />
  <path
     id="path1"
     style="baseline-shift:baseline;display:inline;overflow:visible;vector-effect:none;fill:#000000;stroke:none;stroke-linecap:butt;stroke-linejoin:miter;enable-background:accumulate;stop-color:#000000;stop-opacity:1;opacity:1"
     d="M 7 2.4375 C 6.1294831 2.4389502 5.3157817 2.8845021 4.8457031 3.6171875 A 0.56255625 0.56255625 0 0 0 4.84375 3.6210938 C 4.2233013 4.614236 3.7237436 5.6595043 3.34375 6.7363281 A 0.5625 0.5625 0 0 0 3.2871094 6.9003906 C 2.1617475 10.204566 2.1617457 13.795434 3.2871094 17.099609 A 0.5625 0.5625 0 0 0 3.34375 17.263672 C 3.7237445 18.340503 4.2232972 19.385757 4.84375 20.378906 A 0.56255625 0.56255625 0 0 0 4.8457031 20.382812 C 5.3157817 21.115501 6.1294831 21.56105 7 21.5625 L 17 21.5625 C 17.870517 21.5611 18.684218 21.115498 19.154297 20.382812 A 0.56255625 0.56255625 0 0 0 19.15625 20.378906 C 19.776759 19.385668 20.276243 18.340606 20.65625 17.263672 A 0.5625 0.5625 0 0 0 20.712891 17.101562 C 21.838399 13.797194 21.838396 10.20476 20.712891 6.9003906 A 0.5625 0.5625 0 0 0 20.65625 6.7363281 C 20.276244 5.6594065 19.776752 4.6143212 19.15625 3.6210938 A 0.56255625 0.56255625 0 0 0 19.154297 3.6171875 C 18.684218 2.8844998 17.870517 2.4389502 17 2.4375 L 7 2.4375 z M 7 3.5625 L 9.3027344 3.5625 C 9.104989 4.5162281 8.940525 5.4751553 8.8105469 6.4375 L 4.6601562 6.4375 C 4.9715583 5.6770876 5.3486269 4.9366193 5.7929688 4.2246094 L 5.7949219 4.2246094 C 6.0593671 3.8135729 6.5111573 3.5633144 7 3.5625 z M 10.453125 3.5625 L 13.546875 3.5625 C 13.750279 4.5159258 13.919063 5.4748923 14.052734 6.4375 L 9.9472656 6.4375 C 10.080937 5.4748923 10.249721 4.5159258 10.453125 3.5625 z M 14.697266 3.5625 L 17 3.5625 C 17.488843 3.5633144 17.940633 3.8135729 18.205078 4.2246094 L 18.207031 4.2246094 C 18.651373 4.9366193 19.028442 5.6770876 19.339844 6.4375 L 15.189453 6.4375 C 15.059475 5.4751553 14.895011 4.5162281 14.697266 3.5625 z M 4.2519531 7.5625 L 8.6757812 7.5625 C 8.3589909 10.512344 8.3589909 13.487656 8.6757812 16.4375 L 4.2519531 16.4375 C 3.3369833 13.551639 3.3369832 10.448361 4.2519531 7.5625 z M 9.8066406 7.5625 L 14.193359 7.5625 C 14.518933 10.5118 14.518933 13.4882 14.193359 16.4375 L 9.8066406 16.4375 C 9.481067 13.4882 9.481067 10.5118 9.8066406 7.5625 z M 15.324219 7.5625 L 19.748047 7.5625 C 20.663017 10.448361 20.663017 13.551639 19.748047 16.4375 L 15.324219 16.4375 C 15.641009 13.487656 15.641009 10.512344 15.324219 7.5625 z M 4.6601562 17.5625 L 8.8105469 17.5625 C 8.940525 18.524845 9.104989 19.483772 9.3027344 20.4375 L 7 20.4375 C 6.5111573 20.436686 6.0593671 20.186427 5.7949219 19.775391 L 5.7929688 19.775391 C 5.3486268 19.063381 4.9715583 18.322913 4.6601562 17.5625 z M 9.9472656 17.5625 L 14.052734 17.5625 C 13.919063 18.525108 13.750279 19.484074 13.546875 20.4375 L 10.453125 20.4375 C 10.249721 19.484074 10.080937 18.525108 9.9472656 17.5625 z M 15.189453 17.5625 L 19.339844 17.5625 C 19.028442 18.322913 18.651373 19.063381 18.207031 19.775391 L 18.205078 19.775391 C 17.940633 20.186427 17.488843 20.436686 17 20.4375 L 14.697266 20.4375 C 14.895011 19.483772 15.059475 18.524845 15.189453 17.5625 z " />
</svg>
