<?xml version="1.0" encoding="UTF-8" standalone="no"?>
<svg
   width="24"
   height="24"
   viewBox="0 0 24 24"
   fill="none"
   stroke="currentColor"
   stroke-width="1.125"
   stroke-linecap="round"
   stroke-linejoin="round"
   version="1.1"
   id="svg2"
   sodipodi:docname=".tmp_between-horizontal-end.svg"
   xmlns:inkscape="http://www.inkscape.org/namespaces/inkscape"
   xmlns:sodipodi="http://sodipodi.sourceforge.net/DTD/sodipodi-0.dtd"
   xmlns="http://www.w3.org/2000/svg"
   xmlns:svg="http://www.w3.org/2000/svg">
  <defs
     id="defs2" />
  <sodipodi:namedview
     id="namedview2"
     pagecolor="#ffffff"
     bordercolor="#000000"
     borderopacity="0.25"
     inkscape:showpageshadow="2"
     inkscape:pageopacity="0.0"
     inkscape:pagecheckerboard="0"
     inkscape:deskcolor="#d1d1d1" />
  <path
     id="rect1"
     style="baseline-shift:baseline;display:inline;overflow:visible;vector-effect:none;fill:#000000;stroke:none;stroke-linecap:butt;stroke-linejoin:miter;enable-background:accumulate;stop-color:#000000;stop-opacity:1;opacity:1"
     d="M 4 2.4375 C 3.1441047 2.4375 2.4375 3.1441047 2.4375 4 L 2.4375 9 C 2.4375 9.8558953 3.1441047 10.5625 4 10.5625 L 15 10.5625 C 15.855895 10.5625 16.5625 9.8558953 16.5625 9 L 16.5625 4 C 16.5625 3.1441047 15.855895 2.4375 15 2.4375 L 4 2.4375 z M 4 3.5625 L 15 3.5625 C 15.252105 3.5625 15.4375 3.7478953 15.4375 4 L 15.4375 9 C 15.4375 9.2521047 15.252105 9.4375 15 9.4375 L 4 9.4375 C 3.7478953 9.4375 3.5625 9.2521047 3.5625 9 L 3.5625 4 C 3.5625 3.7478953 3.7478953 3.5625 4 3.5625 z M 22 8.4355469 A 0.5625 0.5625 0 0 0 21.601562 8.6015625 L 18.601562 11.601562 A 0.56255625 0.56255625 0 0 0 18.601562 12.398438 L 21.601562 15.398438 A 0.5625 0.5625 0 0 0 22.398438 15.398438 A 0.5625 0.5625 0 0 0 22.398438 14.601562 L 19.796875 12 L 22.398438 9.3984375 A 0.5625 0.5625 0 0 0 22.398438 8.6015625 A 0.5625 0.5625 0 0 0 22 8.4355469 z M 4 13.4375 C 3.1441047 13.4375 2.4375 14.144105 2.4375 15 L 2.4375 20 C 2.4375 20.855895 3.1441047 21.5625 4 21.5625 L 15 21.5625 C 15.855895 21.5625 16.5625 20.855895 16.5625 20 L 16.5625 15 C 16.5625 14.144105 15.855895 13.4375 15 13.4375 L 4 13.4375 z M 4 14.5625 L 15 14.5625 C 15.252105 14.5625 15.4375 14.747895 15.4375 15 L 15.4375 20 C 15.4375 20.252105 15.252105 20.4375 15 20.4375 L 4 20.4375 C 3.7478953 20.4375 3.5625 20.252105 3.5625 20 L 3.5625 15 C 3.5625 14.747895 3.7478953 14.5625 4 14.5625 z " />
</svg>
