<?xml version="1.0" encoding="UTF-8" standalone="no"?>
<svg
   width="24"
   height="24"
   viewBox="0 0 24 24"
   fill="none"
   stroke="currentColor"
   stroke-width="1.125"
   stroke-linecap="round"
   stroke-linejoin="round"
   version="1.1"
   id="svg6"
   sodipodi:docname=".tmp_bird.svg"
   xmlns:inkscape="http://www.inkscape.org/namespaces/inkscape"
   xmlns:sodipodi="http://sodipodi.sourceforge.net/DTD/sodipodi-0.dtd"
   xmlns="http://www.w3.org/2000/svg"
   xmlns:svg="http://www.w3.org/2000/svg">
  <defs
     id="defs6" />
  <sodipodi:namedview
     id="namedview6"
     pagecolor="#ffffff"
     bordercolor="#000000"
     borderopacity="0.25"
     inkscape:showpageshadow="2"
     inkscape:pageopacity="0.0"
     inkscape:pagecheckerboard="0"
     inkscape:deskcolor="#d1d1d1" />
  <path
     id="path1"
     style="baseline-shift:baseline;display:inline;overflow:visible;vector-effect:none;fill:#000000;stroke:none;stroke-linecap:butt;stroke-linejoin:miter;enable-background:accumulate;stop-color:#000000;stop-opacity:1;opacity:1"
     d="M 16.015625 2.4238281 C 15.552188 2.4201485 15.084301 2.4859054 14.632812 2.625 C 13.729835 2.9031891 12.887749 3.4764128 12.257812 4.3789062 L 1.5390625 19.677734 A 0.5625 0.5625 0 0 0 1.6777344 20.460938 A 0.5625 0.5625 0 0 0 2.4609375 20.322266 L 3.6933594 18.5625 L 7 18.5625 L 9.4375 18.5625 L 9.4375 21 A 0.5625 0.5625 0 0 0 10 21.5625 A 0.5625 0.5625 0 0 0 10.5625 21 L 10.5625 18.5625 L 12 18.5625 C 12.489754 18.5625 12.970021 18.520718 13.4375 18.441406 L 13.4375 21 A 0.5625 0.5625 0 0 0 14 21.5625 A 0.5625 0.5625 0 0 0 14.5625 21 L 14.5625 18.171875 C 18.036444 17.080487 20.5625 13.829963 20.5625 10 L 20.5625 8.4375 L 22.136719 8.0449219 A 0.56255625 0.56255625 0 0 0 22.136719 6.9550781 L 20.542969 6.5566406 C 20.367673 4.5844434 19.002695 3.152916 17.375 2.6386719 C 16.938049 2.5006241 16.479062 2.4275078 16.015625 2.4238281 z M 16.007812 3.5390625 C 16.354844 3.5460568 16.701654 3.6055726 17.035156 3.7109375 C 18.369167 4.1323968 19.442038 5.280217 19.4375 6.9980469 A 0.56255625 0.56255625 0 0 0 19.4375 7 L 19.4375 10 C 19.4375 14.11428 16.11428 17.4375 12 17.4375 L 10.703125 17.4375 C 11.85568 16.647124 12.708822 15.506451 13.169922 14.232422 C 13.98921 11.968713 13.58828 9.2385603 11.583984 7.3027344 L 13.181641 5.0234375 A 0.56255625 0.56255625 0 0 0 13.181641 5.0214844 C 13.67325 4.3171687 14.302633 3.8838714 14.976562 3.6796875 C 15.313527 3.5775955 15.660781 3.5320682 16.007812 3.5390625 z M 16 6.4375 A 0.5625 0.5625 0 0 0 15.4375 7 A 0.5625 0.5625 0 0 0 16 7.5625 L 16.009766 7.5625 A 0.5625 0.5625 0 0 0 16.572266 7 A 0.5625 0.5625 0 0 0 16.009766 6.4375 L 16 6.4375 z M 10.929688 8.2363281 C 12.51076 9.8510199 12.780065 12.007273 12.113281 13.849609 C 11.388206 15.853007 9.5743455 17.434942 7.0058594 17.4375 L 7 17.4375 L 4.4824219 17.4375 L 10.929688 8.2363281 z " />
</svg>
