<?xml version="1.0" encoding="UTF-8" standalone="no"?>
<svg
   width="24"
   height="24"
   viewBox="0 0 24 24"
   fill="none"
   stroke="currentColor"
   stroke-width="1.125"
   stroke-linecap="round"
   stroke-linejoin="round"
   version="1.1"
   id="svg3"
   sodipodi:docname=".tmp_book-headphones.svg"
   xmlns:inkscape="http://www.inkscape.org/namespaces/inkscape"
   xmlns:sodipodi="http://sodipodi.sourceforge.net/DTD/sodipodi-0.dtd"
   xmlns="http://www.w3.org/2000/svg"
   xmlns:svg="http://www.w3.org/2000/svg">
  <defs
     id="defs3" />
  <sodipodi:namedview
     id="namedview3"
     pagecolor="#ffffff"
     bordercolor="#000000"
     borderopacity="0.25"
     inkscape:showpageshadow="2"
     inkscape:pageopacity="0.0"
     inkscape:pagecheckerboard="0"
     inkscape:deskcolor="#d1d1d1" />
  <path
     id="path1"
     style="baseline-shift:baseline;display:inline;overflow:visible;vector-effect:none;fill:#000000;stroke:none;stroke-linecap:butt;stroke-linejoin:miter;enable-background:accumulate;stop-color:#000000;stop-opacity:1;opacity:1"
     d="M 6.5 1.4375 C 4.8152906 1.4375 3.4375 2.8152906 3.4375 4.5 L 3.4375 19.5 C 3.4375 20.25 3.6853207 21.00707 4.2050781 21.591797 C 4.7248355 22.176524 5.526042 22.5625 6.5 22.5625 L 19 22.5625 C 19.856282 22.5625 20.5625 21.856282 20.5625 21 L 20.5625 17 L 20.5625 3 C 20.5625 2.1437177 19.856282 1.4375 19 1.4375 L 6.5 1.4375 z M 6.5 2.5625 L 19 2.5625 C 19.248287 2.5625 19.4375 2.7517128 19.4375 3 L 19.4375 16.4375 L 6.5 16.4375 C 5.704218 16.4375 5.0684596 16.73733 4.5625 17.150391 L 4.5625 4.5 C 4.5625 3.4232857 5.4232857 2.5625 6.5 2.5625 z M 12 5.4375 C 10.875 5.4375 9.7429304 5.8103208 8.8769531 6.5800781 C 8.0109758 7.3498354 7.4375 8.5260422 7.4375 10 L 7.4375 12 A 0.5625 0.5625 0 0 0 7.4414062 12.074219 C 7.4811479 12.896382 8.1688288 13.5625 9 13.5625 C 9.8562823 13.5625 10.5625 12.856282 10.5625 12 C 10.5625 11.143718 9.8562823 10.4375 9 10.4375 C 8.8484372 10.4375 8.7015759 10.458833 8.5625 10.5 L 8.5625 10 C 8.5625 8.8072923 8.9890242 7.9834973 9.6230469 7.4199219 C 10.25707 6.8563464 11.125 6.5625 12 6.5625 C 12.875 6.5625 13.74293 6.8563464 14.376953 7.4199219 C 15.010976 7.9834973 15.4375 8.8072923 15.4375 10 L 15.4375 10.5 C 15.298424 10.458833 15.151563 10.4375 15 10.4375 C 14.143718 10.4375 13.4375 11.143718 13.4375 12 C 13.4375 12.856282 14.143718 13.5625 15 13.5625 C 15.831171 13.5625 16.518852 12.896382 16.558594 12.074219 A 0.5625 0.5625 0 0 0 16.5625 12 L 16.5625 10 C 16.5625 8.5260422 15.989024 7.3498354 15.123047 6.5800781 C 14.25707 5.8103208 13.125 5.4375 12 5.4375 z M 9 11.5625 C 9.2482872 11.5625 9.4375 11.751713 9.4375 12 C 9.4375 12.248287 9.2482872 12.4375 9 12.4375 C 8.7517137 12.4375 8.5625014 12.248286 8.5625 12 C 8.5625 11.751713 8.7517128 11.5625 9 11.5625 z M 15 11.5625 C 15.248287 11.5625 15.4375 11.751713 15.4375 12 C 15.4375 12.248287 15.248287 12.4375 15 12.4375 C 14.751713 12.4375 14.5625 12.248287 14.5625 12 C 14.5625 11.751713 14.751713 11.5625 15 11.5625 z M 6.5 17.5625 L 19.4375 17.5625 L 19.4375 21 C 19.4375 21.248287 19.248287 21.4375 19 21.4375 L 6.5 21.4375 C 5.8072921 21.4375 5.3584975 21.198476 5.0449219 20.845703 C 4.7313463 20.49293 4.5625 20 4.5625 19.5 C 4.5625 19 4.7313463 18.50707 5.0449219 18.154297 C 5.3584975 17.801524 5.8072921 17.5625 6.5 17.5625 z " />
</svg>
