<?xml version="1.0" encoding="UTF-8" standalone="no"?>
<svg
   width="24"
   height="24"
   viewBox="0 0 24 24"
   fill="none"
   stroke="currentColor"
   stroke-width="1.125"
   stroke-linecap="round"
   stroke-linejoin="round"
   version="1.1"
   id="svg5"
   sodipodi:docname=".tmp_boom-box.svg"
   xmlns:inkscape="http://www.inkscape.org/namespaces/inkscape"
   xmlns:sodipodi="http://sodipodi.sourceforge.net/DTD/sodipodi-0.dtd"
   xmlns="http://www.w3.org/2000/svg"
   xmlns:svg="http://www.w3.org/2000/svg">
  <defs
     id="defs5" />
  <sodipodi:namedview
     id="namedview5"
     pagecolor="#ffffff"
     bordercolor="#000000"
     borderopacity="0.25"
     inkscape:showpageshadow="2"
     inkscape:pageopacity="0.0"
     inkscape:pagecheckerboard="0"
     inkscape:deskcolor="#d1d1d1" />
  <path
     id="path1"
     style="baseline-shift:baseline;display:inline;overflow:visible;vector-effect:none;fill:#000000;stroke:none;stroke-linecap:butt;stroke-linejoin:miter;enable-background:accumulate;stop-color:#000000;stop-opacity:1;opacity:1"
     d="M 6 2.4375 C 4.5914329 2.4375 3.4375 3.5914329 3.4375 5 L 3.4375 8.5 C 2.2960133 8.7579791 1.4375 9.7831973 1.4375 11 L 1.4375 19 C 1.4375 20.409895 2.5901047 21.5625 4 21.5625 L 20 21.5625 C 21.409895 21.5625 22.5625 20.409895 22.5625 19 L 22.5625 11 C 22.5625 9.7831973 21.703987 8.7579791 20.5625 8.5 L 20.5625 5 C 20.5625 3.5914329 19.408567 2.4375 18 2.4375 L 6 2.4375 z M 6 3.5625 L 18 3.5625 C 18.800572 3.5625 19.4375 4.1994281 19.4375 5 L 19.4375 8.4375 L 16.5625 8.4375 L 16.5625 8 A 0.5625 0.5625 0 0 0 16 7.4375 A 0.5625 0.5625 0 0 0 15.4375 8 L 15.4375 8.4375 L 12.5625 8.4375 L 12.5625 8 A 0.5625 0.5625 0 0 0 12 7.4375 A 0.5625 0.5625 0 0 0 11.4375 8 L 11.4375 8.4375 L 8.5625 8.4375 L 8.5625 8 A 0.5625 0.5625 0 0 0 8 7.4375 A 0.5625 0.5625 0 0 0 7.4375 8 L 7.4375 8.4375 L 4.5625 8.4375 L 4.5625 5 C 4.5625 4.1994281 5.1994281 3.5625 6 3.5625 z M 4 9.5625 L 20 9.5625 C 20.806105 9.5625 21.4375 10.193895 21.4375 11 L 21.4375 19 C 21.4375 19.806105 20.806105 20.4375 20 20.4375 L 4 20.4375 C 3.1938953 20.4375 2.5625 19.806105 2.5625 19 L 2.5625 11 C 2.5625 10.193897 3.1938975 9.5625024 4 9.5625 z M 8 12.4375 C 6.5914329 12.4375 5.4375 13.591433 5.4375 15 C 5.4375 16.408567 6.5914329 17.5625 8 17.5625 C 9.4085671 17.5625 10.5625 16.408567 10.5625 15 C 10.5625 13.591433 9.4085671 12.4375 8 12.4375 z M 16 12.4375 C 14.591433 12.4375 13.4375 13.591433 13.4375 15 C 13.4375 16.408567 14.591433 17.5625 16 17.5625 C 17.408567 17.5625 18.5625 16.408567 18.5625 15 C 18.5625 13.591433 17.408567 12.4375 16 12.4375 z M 8 13.5625 C 8.8005719 13.5625 9.4375 14.199428 9.4375 15 C 9.4375 15.800572 8.8005719 16.4375 8 16.4375 C 7.1994281 16.4375 6.5625 15.800572 6.5625 15 C 6.5625 14.199428 7.1994281 13.5625 8 13.5625 z M 16 13.5625 C 16.800572 13.5625 17.4375 14.199428 17.4375 15 C 17.4375 15.800572 16.800572 16.4375 16 16.4375 C 15.199428 16.4375 14.5625 15.800572 14.5625 15 C 14.5625 14.199428 15.199428 13.5625 16 13.5625 z " />
</svg>
