<?xml version="1.0" encoding="UTF-8" standalone="no"?>
<svg
   width="24"
   height="24"
   viewBox="0 0 24 24"
   fill="none"
   stroke="currentColor"
   stroke-width="1.125"
   stroke-linecap="round"
   stroke-linejoin="round"
   version="1.1"
   id="svg5"
   sodipodi:docname=".tmp_bot.svg"
   xmlns:inkscape="http://www.inkscape.org/namespaces/inkscape"
   xmlns:sodipodi="http://sodipodi.sourceforge.net/DTD/sodipodi-0.dtd"
   xmlns="http://www.w3.org/2000/svg"
   xmlns:svg="http://www.w3.org/2000/svg">
  <defs
     id="defs5" />
  <sodipodi:namedview
     id="namedview5"
     pagecolor="#ffffff"
     bordercolor="#000000"
     borderopacity="0.25"
     inkscape:showpageshadow="2"
     inkscape:pageopacity="0.0"
     inkscape:pagecheckerboard="0"
     inkscape:deskcolor="#d1d1d1" />
  <path
     id="path1"
     style="baseline-shift:baseline;display:inline;overflow:visible;vector-effect:none;fill:#000000;stroke:none;stroke-linecap:butt;stroke-linejoin:miter;enable-background:accumulate;stop-color:#000000;stop-opacity:1;opacity:1"
     d="M 8 3.4375 A 0.5625 0.5625 0 0 0 7.4375 4 A 0.5625 0.5625 0 0 0 8 4.5625 L 11.4375 4.5625 L 11.4375 7.4375 L 6 7.4375 C 4.5901047 7.4375 3.4375 8.5901047 3.4375 10 L 3.4375 13.4375 L 2 13.4375 A 0.5625 0.5625 0 0 0 1.4375 14 A 0.5625 0.5625 0 0 0 2 14.5625 L 3.4375 14.5625 L 3.4375 18 C 3.4375 19.409895 4.5901047 20.5625 6 20.5625 L 18 20.5625 C 19.409895 20.5625 20.5625 19.409895 20.5625 18 L 20.5625 14.5625 L 22 14.5625 A 0.5625 0.5625 0 0 0 22.5625 14 A 0.5625 0.5625 0 0 0 22 13.4375 L 20.5625 13.4375 L 20.5625 10 C 20.5625 8.5901047 19.409895 7.4375 18 7.4375 L 12.5625 7.4375 L 12.5625 4 A 0.56255625 0.56255625 0 0 0 12 3.4375 L 8 3.4375 z M 6 8.5625 L 18 8.5625 C 18.806105 8.5625 19.4375 9.1938953 19.4375 10 L 19.4375 18 C 19.4375 18.806105 18.806105 19.4375 18 19.4375 L 6 19.4375 C 5.1938953 19.4375 4.5625 18.806105 4.5625 18 L 4.5625 10 C 4.5625 9.1938953 5.1938953 8.5625 6 8.5625 z M 9 12.4375 A 0.5625 0.5625 0 0 0 8.4375 13 L 8.4375 15 A 0.5625 0.5625 0 0 0 9 15.5625 A 0.5625 0.5625 0 0 0 9.5625 15 L 9.5625 13 A 0.5625 0.5625 0 0 0 9 12.4375 z M 15 12.4375 A 0.5625 0.5625 0 0 0 14.4375 13 L 14.4375 15 A 0.5625 0.5625 0 0 0 15 15.5625 A 0.5625 0.5625 0 0 0 15.5625 15 L 15.5625 13 A 0.5625 0.5625 0 0 0 15 12.4375 z " />
</svg>
