<?xml version="1.0" encoding="UTF-8" standalone="no"?>
<svg
   width="24"
   height="24"
   viewBox="0 0 24 24"
   fill="none"
   stroke="currentColor"
   stroke-width="1.125"
   stroke-linecap="round"
   stroke-linejoin="round"
   version="1.1"
   id="svg2"
   sodipodi:docname=".tmp_bottle-wine.svg"
   xmlns:inkscape="http://www.inkscape.org/namespaces/inkscape"
   xmlns:sodipodi="http://sodipodi.sourceforge.net/DTD/sodipodi-0.dtd"
   xmlns="http://www.w3.org/2000/svg"
   xmlns:svg="http://www.w3.org/2000/svg">
  <defs
     id="defs2" />
  <sodipodi:namedview
     id="namedview2"
     pagecolor="#ffffff"
     bordercolor="#000000"
     borderopacity="0.25"
     inkscape:showpageshadow="2"
     inkscape:pageopacity="0.0"
     inkscape:pagecheckerboard="0"
     inkscape:deskcolor="#d1d1d1" />
  <path
     id="path1"
     style="baseline-shift:baseline;display:inline;overflow:visible;vector-effect:none;fill:#000000;stroke:none;stroke-linecap:butt;stroke-linejoin:miter;enable-background:accumulate;stop-color:#000000;stop-opacity:1;opacity:1"
     d="M 11 1.4375 C 10.143718 1.4375 9.4375 2.1437177 9.4375 3 L 9.4375 5 C 9.4375 6.1765932 9.0555653 7.3204441 8.3496094 8.2617188 L 7.75 9.0625 C 6.8980904 10.19838 6.4375 11.580151 6.4375 13 L 6.4375 21 C 6.4375 21.856282 7.1437177 22.5625 8 22.5625 L 16 22.5625 C 16.856282 22.5625 17.5625 21.856282 17.5625 21 L 17.5625 18 L 17.5625 13 A 0.5625 0.5625 0 0 0 17.558594 12.925781 C 17.542744 11.532206 17.086971 10.178461 16.25 9.0625 L 15.650391 8.2617188 C 14.944435 7.3204441 14.5625 6.1765932 14.5625 5 L 14.5625 3 C 14.5625 2.1437177 13.856282 1.4375 13 1.4375 L 11 1.4375 z M 11 2.5625 L 13 2.5625 C 13.248287 2.5625 13.4375 2.7517128 13.4375 3 L 13.4375 5 C 13.4375 6.4198494 13.89809 7.8016205 14.75 8.9375 L 15.349609 9.7382812 C 15.942421 10.528697 16.306647 11.461958 16.408203 12.4375 L 13 12.4375 C 12.143718 12.4375 11.4375 13.143718 11.4375 14 L 11.4375 17 C 11.4375 17.856282 12.143718 18.5625 13 18.5625 L 16.4375 18.5625 L 16.4375 21 C 16.4375 21.248287 16.248287 21.4375 16 21.4375 L 8 21.4375 C 7.7517128 21.4375 7.5625 21.248287 7.5625 21 L 7.5625 13 C 7.5625 11.823407 7.9444347 10.679556 8.6503906 9.7382812 L 9.25 8.9375 C 10.10191 7.8016205 10.5625 6.4198494 10.5625 5 L 10.5625 3 C 10.5625 2.7517128 10.751713 2.5625 11 2.5625 z M 13 13.5625 L 16.4375 13.5625 L 16.4375 17.4375 L 13 17.4375 C 12.751713 17.4375 12.5625 17.248287 12.5625 17 L 12.5625 14 C 12.5625 13.751713 12.751713 13.5625 13 13.5625 z " />
</svg>
