<?xml version="1.0" encoding="UTF-8" standalone="no"?>
<svg
   width="24"
   height="24"
   viewBox="0 0 24 24"
   fill="none"
   stroke="currentColor"
   stroke-width="1.125"
   stroke-linecap="round"
   stroke-linejoin="round"
   version="1.1"
   id="svg9"
   sodipodi:docname=".tmp_bug-play.svg"
   xmlns:inkscape="http://www.inkscape.org/namespaces/inkscape"
   xmlns:sodipodi="http://sodipodi.sourceforge.net/DTD/sodipodi-0.dtd"
   xmlns="http://www.w3.org/2000/svg"
   xmlns:svg="http://www.w3.org/2000/svg">
  <defs
     id="defs9" />
  <sodipodi:namedview
     id="namedview9"
     pagecolor="#ffffff"
     bordercolor="#000000"
     borderopacity="0.25"
     inkscape:showpageshadow="2"
     inkscape:pageopacity="0.0"
     inkscape:pagecheckerboard="0"
     inkscape:deskcolor="#d1d1d1" />
  <path
     id="path1"
     style="baseline-shift:baseline;display:inline;overflow:visible;vector-effect:none;fill:#000000;stroke:none;stroke-linecap:butt;stroke-linejoin:miter;enable-background:accumulate;stop-color:#000000;stop-opacity:1;opacity:1"
     d="M 8 1.4355469 A 0.5625 0.5625 0 0 0 7.6015625 1.6015625 A 0.5625 0.5625 0 0 0 7.6015625 2.3984375 L 9.078125 3.875 C 8.6796642 4.438757 8.4375 5.160868 8.4375 6 L 8.4375 6.7128906 C 7.5650142 7.032539 6.8165876 7.61302 6.2851562 8.3574219 C 4.7110223 8.0251893 3.5643887 6.6397703 3.5625 5 A 0.5625 0.5625 0 0 0 3 4.4375 A 0.5625 0.5625 0 0 0 2.4375 5 C 2.4398707 7.0551063 3.8177557 8.8253717 5.7363281 9.3789062 C 5.5439007 9.8827839 5.4375 10.429874 5.4375 11 L 5.4375 12.4375 L 2 12.4375 A 0.5625 0.5625 0 0 0 1.4375 13 A 0.5625 0.5625 0 0 0 2 13.5625 L 5.4375 13.5625 L 5.4375 14 C 5.4377769 14.896052 5.6197717 15.760707 5.9550781 16.552734 C 3.9316034 17.028595 2.4350755 18.852032 2.4375 21 A 0.5625 0.5625 0 0 0 3 21.5625 A 0.5625 0.5625 0 0 0 3.5625 21 C 3.5605442 19.267768 4.8303683 17.831891 6.5117188 17.59375 C 7.281827 18.769388 8.4254804 19.695161 9.8125 20.185547 A 0.5625 0.5625 0 0 0 10.53125 19.841797 A 0.5625 0.5625 0 0 0 10.1875 19.125 C 8.960185 18.691079 7.9635544 17.847703 7.328125 16.78125 A 0.5625 0.5625 0 0 0 7.2558594 16.658203 C 6.8106545 15.864272 6.5627948 14.953986 6.5625 14 L 6.5625 11 C 6.5625 9.418203 7.619358 8.093589 9.0683594 7.6894531 A 0.5625 0.5625 0 0 0 9.2089844 7.6523438 C 9.4627937 7.5930587 9.7275518 7.5625 10 7.5625 L 14 7.5625 C 14.272478 7.5624923 14.53711 7.5929967 14.791016 7.6523438 A 0.5625 0.5625 0 0 0 14.931641 7.6894531 C 16.372014 8.09119 17.425712 9.4028673 17.4375 10.974609 A 0.5625 0.5625 0 0 0 18.003906 11.533203 A 0.5625 0.5625 0 0 0 18.5625 10.964844 C 18.558317 10.407168 18.453936 9.8722991 18.265625 9.3789062 C 20.183964 8.825225 21.560133 7.0549461 21.5625 5 A 0.5625 0.5625 0 0 0 21 4.4375 A 0.5625 0.5625 0 0 0 20.4375 5 C 20.435628 6.6395567 19.290616 8.0249583 17.716797 8.3574219 C 17.185208 7.612728 16.435103 7.0324044 15.5625 6.7128906 L 15.5625 6 C 15.5625 5.160868 15.320336 4.4387571 14.921875 3.875 L 16.398438 2.3984375 A 0.5625 0.5625 0 0 0 16.398438 1.6015625 A 0.5625 0.5625 0 0 0 15.601562 1.6015625 L 14.121094 3.0820312 C 13.495592 2.6467748 12.745552 2.4375 12 2.4375 C 11.254448 2.4375 10.504408 2.6467748 9.8789062 3.0820312 L 8.3984375 1.6015625 A 0.5625 0.5625 0 0 0 8 1.4355469 z M 12 3.5625 C 12.584808 3.5625 13.163762 3.7468433 13.601562 4.0957031 A 0.5625 0.5625 0 0 0 13.722656 4.2773438 A 0.5625 0.5625 0 0 0 13.917969 4.4042969 C 14.236281 4.7846817 14.4375 5.2964295 14.4375 6 L 14.4375 6.4589844 C 14.29347 6.4451864 14.14753 6.4374959 14 6.4375 L 10 6.4375 C 9.8524613 6.4375 9.7065211 6.4451789 9.5625 6.4589844 L 9.5625 6 C 9.5625 5.2964295 9.7637191 4.7846817 10.082031 4.4042969 A 0.5625 0.5625 0 0 0 10.277344 4.2773438 A 0.5625 0.5625 0 0 0 10.398438 4.0957031 C 10.836238 3.7468433 11.415192 3.5625 12 3.5625 z M 15.007812 13.445312 C 14.737968 13.449224 14.472786 13.524589 14.240234 13.65625 C 13.774552 13.919942 13.435704 14.408829 13.4375 15.003906 L 13.4375 20.996094 C 13.4342 22.185052 14.788103 22.951111 15.806641 22.337891 L 20.802734 19.341797 C 21.797658 18.748809 21.797658 17.251191 20.802734 16.658203 L 15.808594 13.662109 L 15.806641 13.662109 C 15.552164 13.508901 15.277657 13.441401 15.007812 13.445312 z M 14.988281 14.550781 C 15.06546 14.553287 15.147438 14.57721 15.226562 14.625 A 0.56255625 0.56255625 0 0 0 15.228516 14.626953 L 20.224609 17.623047 A 0.56255625 0.56255625 0 0 0 20.226562 17.625 C 20.533037 17.807663 20.533037 18.192337 20.226562 18.375 A 0.56255625 0.56255625 0 0 0 20.224609 18.376953 L 15.228516 21.373047 A 0.56255625 0.56255625 0 0 0 15.226562 21.375 C 14.909842 21.566297 14.561013 21.3681 14.5625 20.998047 A 0.56255625 0.56255625 0 0 0 14.5625 20.996094 L 14.5625 15.003906 A 0.56255625 0.56255625 0 0 0 14.5625 15.001953 C 14.561663 14.724575 14.756745 14.543263 14.988281 14.550781 z " />
</svg>
