<?xml version="1.0" encoding="UTF-8" standalone="no"?>
<svg
   width="24"
   height="24"
   viewBox="0 0 24 24"
   fill="none"
   stroke="currentColor"
   stroke-width="1.125"
   stroke-linecap="round"
   stroke-linejoin="round"
   version="1.1"
   id="svg5"
   sodipodi:docname=".tmp_bus.svg"
   xmlns:inkscape="http://www.inkscape.org/namespaces/inkscape"
   xmlns:sodipodi="http://sodipodi.sourceforge.net/DTD/sodipodi-0.dtd"
   xmlns="http://www.w3.org/2000/svg"
   xmlns:svg="http://www.w3.org/2000/svg">
  <defs
     id="defs5" />
  <sodipodi:namedview
     id="namedview5"
     pagecolor="#ffffff"
     bordercolor="#000000"
     borderopacity="0.25"
     inkscape:showpageshadow="2"
     inkscape:pageopacity="0.0"
     inkscape:pagecheckerboard="0"
     inkscape:deskcolor="#d1d1d1" />
  <path
     id="path1"
     style="baseline-shift:baseline;display:inline;overflow:visible;vector-effect:none;fill:#000000;stroke:none;stroke-linecap:butt;stroke-linejoin:miter;enable-background:accumulate;stop-color:#000000;stop-opacity:1;opacity:1"
     d="M 4 5.4375 C 2.5914329 5.4375 1.4375 6.5914329 1.4375 8 L 1.4375 18 A 0.56255625 0.56255625 0 0 0 2 18.5625 L 4.5 18.5625 C 4.7583802 19.703202 5.784488 20.5625 7 20.5625 C 8.215512 20.5625 9.2416198 19.703202 9.5 18.5625 L 13.5 18.5625 C 13.75838 19.703202 14.784488 20.5625 16 20.5625 C 17.215512 20.5625 18.24162 19.703202 18.5 18.5625 L 21 18.5625 A 0.56255625 0.56255625 0 0 0 21.539062 18.158203 C 21.539062 18.158203 22.038761 16.458788 22.341797 15.347656 A 0.56255625 0.56255625 0 0 0 22.345703 15.335938 C 22.445709 14.935938 22.5625 14.49375 22.5625 14 C 22.5625 13.50625 22.445703 13.064062 22.345703 12.664062 A 0.56255625 0.56255625 0 0 0 22.341797 12.648438 L 22.162109 12.005859 A 0.5625 0.5625 0 0 0 22.162109 12 A 0.5625 0.5625 0 0 0 22.076172 11.701172 L 20.941406 7.6484375 A 0.56255625 0.56255625 0 0 0 20.939453 7.6386719 C 20.564368 6.3882355 19.372727 5.4375 18 5.4375 L 4 5.4375 z M 4 6.5625 L 7.4375 6.5625 L 7.4375 11.4375 L 2.5625 11.4375 L 2.5625 8 C 2.5625 7.1994281 3.1994281 6.5625 4 6.5625 z M 8.5625 6.5625 L 14.4375 6.5625 L 14.4375 11.4375 L 8.5625 11.4375 L 8.5625 6.5625 z M 15.5625 6.5625 L 18 6.5625 C 18.826339 6.5625 19.633445 7.2104973 19.859375 7.9589844 L 19.861328 7.9609375 L 20.833984 11.4375 L 15.5625 11.4375 L 15.5625 6.5625 z M 2.5625 12.5625 L 21.148438 12.5625 L 21.253906 12.939453 C 21.353383 13.337727 21.4375 13.694841 21.4375 14 C 21.4375 14.30625 21.35391 14.664453 21.253906 15.064453 C 20.999786 15.995269 20.686917 17.059462 20.576172 17.4375 L 18.5 17.4375 C 18.24162 16.296798 17.215512 15.4375 16 15.4375 C 14.784488 15.4375 13.75838 16.296798 13.5 17.4375 L 9.5 17.4375 C 9.2416198 16.296798 8.215512 15.4375 7 15.4375 C 5.784488 15.4375 4.7583802 16.296798 4.5 17.4375 L 2.5625 17.4375 L 2.5625 12.5625 z M 7 16.5625 C 7.8005719 16.5625 8.4375 17.199428 8.4375 18 C 8.4375 18.800572 7.8005719 19.4375 7 19.4375 C 6.1994281 19.4375 5.5625 18.800572 5.5625 18 C 5.5625 17.199428 6.1994281 16.5625 7 16.5625 z M 16 16.5625 C 16.800572 16.5625 17.4375 17.199428 17.4375 18 C 17.4375 18.800572 16.800572 19.4375 16 19.4375 C 15.199428 19.4375 14.5625 18.800572 14.5625 18 C 14.5625 17.199428 15.199428 16.5625 16 16.5625 z " />
</svg>
