<?xml version="1.0" encoding="UTF-8" standalone="no"?>
<svg
   width="24"
   height="24"
   viewBox="0 0 24 24"
   fill="none"
   stroke="currentColor"
   stroke-width="1.125"
   stroke-linecap="round"
   stroke-linejoin="round"
   version="1.1"
   id="svg6"
   sodipodi:docname=".tmp_calendar-arrow-up.svg"
   xmlns:inkscape="http://www.inkscape.org/namespaces/inkscape"
   xmlns:sodipodi="http://sodipodi.sourceforge.net/DTD/sodipodi-0.dtd"
   xmlns="http://www.w3.org/2000/svg"
   xmlns:svg="http://www.w3.org/2000/svg">
  <defs
     id="defs6" />
  <sodipodi:namedview
     id="namedview6"
     pagecolor="#ffffff"
     bordercolor="#000000"
     borderopacity="0.25"
     inkscape:showpageshadow="2"
     inkscape:pageopacity="0.0"
     inkscape:pagecheckerboard="0"
     inkscape:deskcolor="#d1d1d1" />
  <path
     id="path1"
     style="baseline-shift:baseline;display:inline;overflow:visible;vector-effect:none;fill:#000000;stroke:none;stroke-linecap:butt;stroke-linejoin:miter;enable-background:accumulate;stop-color:#000000;stop-opacity:1;opacity:1"
     d="M 8 1.4375 A 0.5625 0.5625 0 0 0 7.4375 2 L 7.4375 3.4375 L 5 3.4375 C 3.5914329 3.4375 2.4375 4.5914329 2.4375 6 L 2.4375 20 C 2.4375 21.408567 3.5914329 22.5625 5 22.5625 L 14 22.5625 A 0.5625 0.5625 0 0 0 14.5625 22 A 0.5625 0.5625 0 0 0 14 21.4375 L 5 21.4375 C 4.1994281 21.4375 3.5625 20.800572 3.5625 20 L 3.5625 10.5625 L 20.4375 10.5625 L 20.4375 11.34375 A 0.5625 0.5625 0 0 0 21 11.90625 A 0.5625 0.5625 0 0 0 21.5625 11.34375 L 21.5625 6 C 21.5625 4.5914329 20.408567 3.4375 19 3.4375 L 16.5625 3.4375 L 16.5625 2 A 0.5625 0.5625 0 0 0 16 1.4375 A 0.5625 0.5625 0 0 0 15.4375 2 L 15.4375 3.4375 L 8.5625 3.4375 L 8.5625 2 A 0.5625 0.5625 0 0 0 8 1.4375 z M 5 4.5625 L 7.4375 4.5625 L 7.4375 6 A 0.5625 0.5625 0 0 0 8 6.5625 A 0.5625 0.5625 0 0 0 8.5625 6 L 8.5625 4.5625 L 15.4375 4.5625 L 15.4375 6 A 0.5625 0.5625 0 0 0 16 6.5625 A 0.5625 0.5625 0 0 0 16.5625 6 L 16.5625 4.5625 L 19 4.5625 C 19.800572 4.5625 20.4375 5.1994281 20.4375 6 L 20.4375 9.4375 L 3.5625 9.4375 L 3.5625 6 C 3.5625 5.1994281 4.1994281 4.5625 5 4.5625 z M 18 13.435547 A 0.56255625 0.56255625 0 0 0 17.601562 13.601562 L 13.601562 17.601562 A 0.5625 0.5625 0 0 0 13.601562 18.398438 A 0.5625 0.5625 0 0 0 14.398438 18.398438 L 17.4375 15.359375 L 17.4375 22 A 0.5625 0.5625 0 0 0 18 22.5625 A 0.5625 0.5625 0 0 0 18.5625 22 L 18.5625 15.359375 L 21.601562 18.398438 A 0.5625 0.5625 0 0 0 22.398438 18.398438 A 0.5625 0.5625 0 0 0 22.398438 17.601562 L 18.398438 13.601562 A 0.56255625 0.56255625 0 0 0 18 13.435547 z " />
</svg>
