<?xml version="1.0" encoding="UTF-8" standalone="no"?>
<svg
   width="24"
   height="24"
   viewBox="0 0 24 24"
   fill="none"
   stroke="currentColor"
   stroke-width="1.125"
   stroke-linecap="round"
   stroke-linejoin="round"
   version="1.1"
   id="svg3"
   sodipodi:docname=".tmp_carrot.svg"
   xmlns:inkscape="http://www.inkscape.org/namespaces/inkscape"
   xmlns:sodipodi="http://sodipodi.sourceforge.net/DTD/sodipodi-0.dtd"
   xmlns="http://www.w3.org/2000/svg"
   xmlns:svg="http://www.w3.org/2000/svg">
  <defs
     id="defs3" />
  <sodipodi:namedview
     id="namedview3"
     pagecolor="#ffffff"
     bordercolor="#000000"
     borderopacity="0.25"
     inkscape:showpageshadow="2"
     inkscape:pageopacity="0.0"
     inkscape:pagecheckerboard="0"
     inkscape:deskcolor="#d1d1d1" />
  <path
     id="path1"
     style="baseline-shift:baseline;display:inline;overflow:visible;vector-effect:none;fill:#000000;stroke:none;stroke-linecap:butt;stroke-linejoin:miter;enable-background:accumulate;stop-color:#000000;stop-opacity:1;opacity:1"
     d="M 14.962891 1.4394531 A 0.56255625 0.56255625 0 0 0 14.689453 1.53125 C 14.689453 1.53125 12.4375 2.9843779 12.4375 5.5 C 12.4375 6.100687 12.566238 6.6410266 12.761719 7.1152344 C 12.531175 7.0663307 12.295502 7.0337703 12.056641 7.0195312 C 10.77466 6.9431098 9.4033687 7.4129073 8.2421875 8.5722656 C 6.6602842 10.154169 5.1060501 13.341155 3.8632812 16.185547 C 2.6205122 19.029939 1.7402344 21.511719 1.7402344 21.511719 A 0.56255625 0.56255625 0 0 0 2.4570312 22.230469 C 2.4570312 22.230469 4.9415106 21.348909 7.7871094 20.107422 C 10.632145 18.866181 13.818511 17.315607 15.396484 15.738281 C 15.502481 15.632452 15.528422 15.507542 15.623047 15.398438 A 0.5625 0.5625 0 0 0 15.738281 15.398438 A 0.5625 0.5625 0 0 0 15.738281 15.226562 C 16.57867 14.181651 17.021205 13.033506 16.957031 11.927734 C 16.943312 11.691341 16.911049 11.458865 16.863281 11.230469 C 17.34251 11.430827 17.890453 11.5625 18.5 11.5625 C 21.015622 11.5625 22.46875 9.3105469 22.46875 9.3105469 A 0.56255625 0.56255625 0 0 0 22.46875 8.6894531 C 22.46875 8.6894531 21.015622 6.4375 18.5 6.4375 C 18.095317 6.4375 17.707091 6.5237317 17.341797 6.6601562 C 17.477188 6.2947636 17.5625 5.9058384 17.5625 5.5 C 17.5625 2.9843779 15.310547 1.53125 15.310547 1.53125 A 0.56255625 0.56255625 0 0 0 14.962891 1.4394531 z M 15 2.765625 C 15.420859 3.1036926 16.4375 4.0005708 16.4375 5.5 C 16.4375 6.1040964 16.015294 6.9124248 15.548828 7.5351562 C 15.259802 7.9210059 15.141345 8.0171548 14.970703 8.1894531 C 14.898464 8.1306472 14.825114 8.0727045 14.75 8.0175781 C 14.268313 7.579392 13.5625 6.7579021 13.5625 5.5 C 13.5625 4.0005708 14.579141 3.1036926 15 2.765625 z M 18.5 7.5625 C 19.999429 7.5625 20.896307 8.5791409 21.234375 9 C 20.896307 9.4208591 19.999429 10.4375 18.5 10.4375 C 17.193871 10.4375 16.360033 9.6764661 15.935547 9.1953125 C 15.894773 9.1405297 15.851337 9.0864381 15.808594 9.0332031 C 15.985369 8.8600549 16.080676 8.7422367 16.470703 8.4511719 C 17.096627 7.9840648 17.908659 7.5625 18.5 7.5625 z M 11.621094 8.1386719 C 11.743818 8.1335394 11.866758 8.1353339 11.988281 8.1425781 C 12.660728 8.1826641 13.317407 8.4178347 13.892578 8.7929688 C 14.193878 9.1001144 14.46073 9.3066624 14.595703 9.4042969 C 14.690891 9.535887 14.891025 9.7919896 15.185547 10.083984 C 15.561184 10.66002 15.794875 11.318298 15.833984 11.992188 C 15.873544 12.673877 15.622843 13.371754 15.199219 14.0625 L 13.277344 12.142578 A 0.5625 0.5625 0 0 0 12.482422 12.142578 A 0.5625 0.5625 0 0 0 12.482422 12.9375 L 14.53125 14.988281 C 13.221081 16.263726 10.11032 17.866607 7.3378906 19.076172 C 5.1713516 20.021396 4.0549168 20.408417 3.2773438 20.693359 C 3.5624429 19.916236 3.9485447 18.801849 4.8945312 16.636719 C 5.4412196 15.385484 6.0807627 14.083855 6.7226562 12.884766 L 8.2441406 14.398438 A 0.5625 0.5625 0 0 0 9.0390625 14.396484 A 0.5625 0.5625 0 0 0 9.0371094 13.601562 L 7.3144531 11.886719 C 7.9074663 10.876541 8.5078538 9.8964431 9.0371094 9.3671875 C 9.8789916 8.5266269 10.762023 8.174599 11.621094 8.1386719 z " />
</svg>
