<?xml version="1.0" encoding="UTF-8" standalone="no"?>
<svg
   width="24"
   height="24"
   viewBox="0 0 24 24"
   fill="none"
   stroke="currentColor"
   stroke-width="1.125"
   stroke-linecap="round"
   stroke-linejoin="round"
   version="1.1"
   id="svg4"
   sodipodi:docname=".tmp_chart-bar-increasing.svg"
   xmlns:inkscape="http://www.inkscape.org/namespaces/inkscape"
   xmlns:sodipodi="http://sodipodi.sourceforge.net/DTD/sodipodi-0.dtd"
   xmlns="http://www.w3.org/2000/svg"
   xmlns:svg="http://www.w3.org/2000/svg">
  <defs
     id="defs4" />
  <sodipodi:namedview
     id="namedview4"
     pagecolor="#ffffff"
     bordercolor="#000000"
     borderopacity="0.25"
     inkscape:showpageshadow="2"
     inkscape:pageopacity="0.0"
     inkscape:pagecheckerboard="0"
     inkscape:deskcolor="#d1d1d1" />
  <path
     id="path1"
     style="baseline-shift:baseline;display:inline;overflow:visible;vector-effect:none;fill:#000000;stroke:none;stroke-linecap:butt;stroke-linejoin:miter;enable-background:accumulate;stop-color:#000000;stop-opacity:1;opacity:1"
     d="M 3 2.4375 A 0.5625 0.5625 0 0 0 2.4375 3 L 2.4375 19 C 2.4375 20.408567 3.5914329 21.5625 5 21.5625 L 21 21.5625 A 0.5625 0.5625 0 0 0 21.5625 21 A 0.5625 0.5625 0 0 0 21 20.4375 L 5 20.4375 C 4.1994281 20.4375 3.5625 19.800572 3.5625 19 L 3.5625 3 A 0.5625 0.5625 0 0 0 3 2.4375 z M 7 5.4375 A 0.5625 0.5625 0 0 0 6.4375 6 A 0.5625 0.5625 0 0 0 7 6.5625 L 10 6.5625 A 0.5625 0.5625 0 0 0 10.5625 6 A 0.5625 0.5625 0 0 0 10 5.4375 L 7 5.4375 z M 7 10.4375 A 0.5625 0.5625 0 0 0 6.4375 11 A 0.5625 0.5625 0 0 0 7 11.5625 L 15 11.5625 A 0.5625 0.5625 0 0 0 15.5625 11 A 0.5625 0.5625 0 0 0 15 10.4375 L 7 10.4375 z M 7 15.4375 A 0.5625 0.5625 0 0 0 6.4375 16 A 0.5625 0.5625 0 0 0 7 16.5625 L 19 16.5625 A 0.5625 0.5625 0 0 0 19.5625 16 A 0.5625 0.5625 0 0 0 19 15.4375 L 7 15.4375 z " />
</svg>
