<?xml version="1.0" encoding="UTF-8" standalone="no"?>
<svg
   width="24"
   height="24"
   viewBox="0 0 24 24"
   fill="none"
   stroke="currentColor"
   stroke-width="1.125"
   stroke-linecap="round"
   stroke-linejoin="round"
   version="1.1"
   id="svg2"
   sodipodi:docname=".tmp_chevrons-right-left.svg"
   xmlns:inkscape="http://www.inkscape.org/namespaces/inkscape"
   xmlns:sodipodi="http://sodipodi.sourceforge.net/DTD/sodipodi-0.dtd"
   xmlns="http://www.w3.org/2000/svg"
   xmlns:svg="http://www.w3.org/2000/svg">
  <defs
     id="defs2" />
  <sodipodi:namedview
     id="namedview2"
     pagecolor="#ffffff"
     bordercolor="#000000"
     borderopacity="0.25"
     inkscape:showpageshadow="2"
     inkscape:pageopacity="0.0"
     inkscape:pagecheckerboard="0"
     inkscape:deskcolor="#d1d1d1" />
  <path
     id="path1"
     style="baseline-shift:baseline;display:inline;overflow:visible;vector-effect:none;fill:#000000;stroke:none;stroke-linecap:butt;stroke-linejoin:miter;enable-background:accumulate;stop-color:#000000;stop-opacity:1;opacity:1"
     d="M 4 6.4355469 A 0.5625 0.5625 0 0 0 3.6015625 6.6015625 A 0.5625 0.5625 0 0 0 3.6015625 7.3984375 L 8.203125 12 L 3.6015625 16.601562 A 0.5625 0.5625 0 0 0 3.6015625 17.398438 A 0.5625 0.5625 0 0 0 4.3984375 17.398438 L 9.3984375 12.398438 A 0.56255625 0.56255625 0 0 0 9.3984375 11.601562 L 4.3984375 6.6015625 A 0.5625 0.5625 0 0 0 4 6.4355469 z M 20 6.4355469 A 0.5625 0.5625 0 0 0 19.601562 6.6015625 L 14.601562 11.601562 A 0.56255625 0.56255625 0 0 0 14.601562 12.398438 L 19.601562 17.398438 A 0.5625 0.5625 0 0 0 20.398438 17.398438 A 0.5625 0.5625 0 0 0 20.398438 16.601562 L 15.796875 12 L 20.398438 7.3984375 A 0.5625 0.5625 0 0 0 20.398438 6.6015625 A 0.5625 0.5625 0 0 0 20 6.4355469 z " />
</svg>
