<?xml version="1.0" encoding="UTF-8" standalone="no"?>
<svg
   width="24"
   height="24"
   viewBox="0 0 24 24"
   fill="none"
   stroke="currentColor"
   stroke-width="1.125"
   stroke-linecap="round"
   stroke-linejoin="round"
   version="1.1"
   id="svg7"
   sodipodi:docname=".tmp_circle-fading-arrow-up.svg"
   xmlns:inkscape="http://www.inkscape.org/namespaces/inkscape"
   xmlns:sodipodi="http://sodipodi.sourceforge.net/DTD/sodipodi-0.dtd"
   xmlns="http://www.w3.org/2000/svg"
   xmlns:svg="http://www.w3.org/2000/svg">
  <defs
     id="defs7" />
  <sodipodi:namedview
     id="namedview7"
     pagecolor="#ffffff"
     bordercolor="#000000"
     borderopacity="0.25"
     inkscape:showpageshadow="2"
     inkscape:pageopacity="0.0"
     inkscape:pagecheckerboard="0"
     inkscape:deskcolor="#d1d1d1" />
  <path
     id="path1"
     style="baseline-shift:baseline;display:inline;overflow:visible;vector-effect:none;fill:#000000;stroke:none;stroke-linecap:butt;stroke-linejoin:miter;enable-background:accumulate;stop-color:#000000;stop-opacity:1;opacity:1"
     d="M 12 1.4375 A 0.5625 0.5625 0 0 0 11.4375 2 A 0.5625 0.5625 0 0 0 12 2.5625 C 16.125806 2.5617479 19.228322 4.9943153 20.638672 8.1953125 C 22.049022 11.39631 21.749763 15.327001 18.964844 18.371094 A 0.5625 0.5625 0 0 0 19 19.164062 A 0.5625 0.5625 0 0 0 19.794922 19.128906 C 22.880644 15.756017 23.240968 11.312341 21.667969 7.7421875 C 20.09497 4.172034 16.57144 1.4366667 12 1.4375 z M 5.4980469 3.8164062 A 0.5625 0.5625 0 0 0 5.1621094 3.9492188 C 4.8300344 4.2312557 4.5173933 4.5326594 4.2226562 4.8535156 A 0.5625 0.5625 0 0 0 4.2558594 5.6484375 A 0.5625 0.5625 0 0 0 5.0507812 5.6152344 C 5.3141264 5.328552 5.5939189 5.0586382 5.890625 4.8066406 A 0.5625 0.5625 0 0 0 5.9550781 4.0136719 A 0.5625 0.5625 0 0 0 5.4980469 3.8164062 z M 12 7.4355469 A 0.56255625 0.56255625 0 0 0 11.601562 7.6015625 L 7.6015625 11.601562 A 0.5625 0.5625 0 0 0 7.6015625 12.398438 A 0.5625 0.5625 0 0 0 8.3984375 12.398438 L 11.4375 9.359375 L 11.4375 16 A 0.5625 0.5625 0 0 0 12 16.5625 A 0.5625 0.5625 0 0 0 12.5625 16 L 12.5625 9.359375 L 15.601562 12.398438 A 0.5625 0.5625 0 0 0 16.398438 12.398438 A 0.5625 0.5625 0 0 0 16.398438 11.601562 L 12.398438 7.6015625 A 0.56255625 0.56255625 0 0 0 12 7.4355469 z M 2.4570312 8.3125 A 0.5625 0.5625 0 0 0 1.9648438 8.6992188 C 1.6282699 9.7223616 1.4509495 10.79019 1.4375 11.867188 A 0.5625 0.5625 0 0 0 1.9921875 12.4375 A 0.5625 0.5625 0 0 0 2.5625 11.882812 C 2.5745171 10.920521 2.7344293 9.9649538 3.0351562 9.0507812 A 0.5625 0.5625 0 0 0 2.6757812 8.3398438 A 0.5625 0.5625 0 0 0 2.4570312 8.3125 z M 2.8203125 15.4375 A 0.5625 0.5625 0 0 0 2.6054688 15.484375 A 0.5625 0.5625 0 0 0 2.3144531 16.224609 C 2.9075348 17.589093 3.7819242 18.813459 4.8808594 19.816406 A 0.5625 0.5625 0 0 0 5.6757812 19.779297 A 0.5625 0.5625 0 0 0 5.6386719 18.984375 C 4.6567692 18.088239 3.8756236 16.994562 3.3457031 15.775391 A 0.5625 0.5625 0 0 0 2.8203125 15.4375 z M 16.248047 20.478516 A 0.5625 0.5625 0 0 0 16.035156 20.53125 C 13.776472 21.599399 11.185659 21.729095 8.8320312 20.890625 A 0.5625 0.5625 0 0 0 8.1132812 21.230469 A 0.5625 0.5625 0 0 0 8.4550781 21.949219 C 11.088843 22.887487 13.988104 22.744112 16.515625 21.548828 A 0.5625 0.5625 0 0 0 16.783203 20.798828 A 0.5625 0.5625 0 0 0 16.464844 20.509766 A 0.5625 0.5625 0 0 0 16.248047 20.478516 z " />
</svg>
