<?xml version="1.0" encoding="UTF-8" standalone="no"?>
<svg
   width="24"
   height="24"
   viewBox="0 0 24 24"
   fill="none"
   stroke="currentColor"
   stroke-width="1.125"
   stroke-linecap="round"
   stroke-linejoin="round"
   version="1.1"
   id="svg2"
   sodipodi:docname=".tmp_circuit-board.svg"
   xmlns:inkscape="http://www.inkscape.org/namespaces/inkscape"
   xmlns:sodipodi="http://sodipodi.sourceforge.net/DTD/sodipodi-0.dtd"
   xmlns="http://www.w3.org/2000/svg"
   xmlns:svg="http://www.w3.org/2000/svg">
  <defs
     id="defs2" />
  <sodipodi:namedview
     id="namedview2"
     pagecolor="#ffffff"
     bordercolor="#000000"
     borderopacity="0.25"
     inkscape:showpageshadow="2"
     inkscape:pageopacity="0.0"
     inkscape:pagecheckerboard="0"
     inkscape:deskcolor="#d1d1d1" />
  <path
     id="rect1"
     style="baseline-shift:baseline;display:inline;overflow:visible;vector-effect:none;fill:#000000;stroke:none;stroke-linecap:butt;stroke-linejoin:miter;enable-background:accumulate;stop-color:#000000;stop-opacity:1;opacity:1"
     d="M 5 2.4375 C 3.5901047 2.4375 2.4375 3.5901047 2.4375 5 L 2.4375 19 C 2.4375 20.409895 3.5901047 21.5625 5 21.5625 L 19 21.5625 C 20.409895 21.5625 21.5625 20.409895 21.5625 19 L 21.5625 5 C 21.5625 3.5901047 20.409895 2.4375 19 2.4375 L 5 2.4375 z M 5 3.5625 L 16.4375 3.5625 L 16.4375 7 C 16.4375 7.8005719 15.800572 8.4375 15 8.4375 L 11.5 8.4375 C 11.24162 7.2967984 10.215512 6.4375 9 6.4375 C 7.5914329 6.4375 6.4375 7.5914329 6.4375 9 C 6.4375 10.408567 7.5914329 11.5625 9 11.5625 C 10.215512 11.5625 11.24162 10.703202 11.5 9.5625 L 15 9.5625 C 16.408567 9.5625 17.5625 8.4085671 17.5625 7 L 17.5625 3.5625 L 19 3.5625 C 19.806105 3.5625 20.4375 4.1938953 20.4375 5 L 20.4375 19 C 20.4375 19.806105 19.806105 20.4375 19 20.4375 L 7.5625 20.4375 L 7.5625 17 C 7.5625 16.199428 8.1994281 15.5625 9 15.5625 L 12.5 15.5625 C 12.75838 16.703202 13.784488 17.5625 15 17.5625 C 16.408567 17.5625 17.5625 16.408567 17.5625 15 C 17.5625 13.591433 16.408567 12.4375 15 12.4375 C 13.784488 12.4375 12.75838 13.296798 12.5 14.4375 L 9 14.4375 C 7.5914329 14.4375 6.4375 15.591433 6.4375 17 L 6.4375 20.4375 L 5 20.4375 C 4.1938953 20.4375 3.5625 19.806105 3.5625 19 L 3.5625 5 C 3.5625 4.1938953 4.1938953 3.5625 5 3.5625 z M 9 7.5625 C 9.8005719 7.5625 10.4375 8.1994281 10.4375 9 C 10.4375 9.8005719 9.8005719 10.4375 9 10.4375 C 8.1994281 10.4375 7.5625 9.8005719 7.5625 9 C 7.5625 8.1994281 8.1994281 7.5625 9 7.5625 z M 15 13.5625 C 15.800572 13.5625 16.4375 14.199428 16.4375 15 C 16.4375 15.800572 15.800572 16.4375 15 16.4375 C 14.199428 16.4375 13.5625 15.800572 13.5625 15 C 13.5625 14.199428 14.199428 13.5625 15 13.5625 z " />
</svg>
