<?xml version="1.0" encoding="UTF-8" standalone="no"?>
<svg
   width="24"
   height="24"
   viewBox="0 0 24 24"
   fill="none"
   stroke="currentColor"
   stroke-width="1.125"
   stroke-linecap="round"
   stroke-linejoin="round"
   version="1.1"
   id="svg4"
   sodipodi:docname=".tmp_clock-alert.svg"
   xmlns:inkscape="http://www.inkscape.org/namespaces/inkscape"
   xmlns:sodipodi="http://sodipodi.sourceforge.net/DTD/sodipodi-0.dtd"
   xmlns="http://www.w3.org/2000/svg"
   xmlns:svg="http://www.w3.org/2000/svg">
  <defs
     id="defs4" />
  <sodipodi:namedview
     id="namedview4"
     pagecolor="#ffffff"
     bordercolor="#000000"
     borderopacity="0.25"
     inkscape:showpageshadow="2"
     inkscape:pageopacity="0.0"
     inkscape:pagecheckerboard="0"
     inkscape:deskcolor="#d1d1d1" />
  <path
     id="path1"
     style="baseline-shift:baseline;display:inline;overflow:visible;vector-effect:none;fill:#000000;stroke:none;stroke-linecap:butt;stroke-linejoin:miter;enable-background:accumulate;stop-color:#000000;stop-opacity:1;opacity:1"
     d="M 11.974609 1.4335938 C 7.9849962 1.4426253 3.9769932 3.6648409 2.2089844 8.0292969 C 0.44097556 12.393753 1.7723415 16.781294 4.6308594 19.564453 C 7.4893772 22.347612 11.908596 23.560385 16.224609 21.675781 A 0.5625 0.5625 0 0 0 16.515625 20.935547 A 0.5625 0.5625 0 0 0 15.775391 20.644531 C 11.876632 22.346939 7.9798628 21.254069 5.4160156 18.757812 C 2.8521685 16.261556 1.6548958 12.395575 3.2519531 8.453125 C 4.8490105 4.5106748 8.3982183 2.5666943 11.976562 2.5585938 C 15.554906 2.5504937 19.115739 4.4781809 20.730469 8.4140625 A 0.5625 0.5625 0 0 0 21.462891 8.7207031 A 0.5625 0.5625 0 0 0 21.769531 7.9863281 C 19.98199 3.6292193 15.964223 1.4245623 11.974609 1.4335938 z M 12 5.4375 A 0.5625 0.5625 0 0 0 11.4375 6 L 11.4375 12 A 0.56255625 0.56255625 0 0 0 11.748047 12.503906 L 15.748047 14.503906 A 0.5625 0.5625 0 0 0 16.503906 14.251953 A 0.5625 0.5625 0 0 0 16.251953 13.496094 L 12.5625 11.652344 L 12.5625 6 A 0.5625 0.5625 0 0 0 12 5.4375 z M 20 11.4375 A 0.5625 0.5625 0 0 0 19.4375 12 L 19.4375 17 A 0.5625 0.5625 0 0 0 20 17.5625 A 0.5625 0.5625 0 0 0 20.5625 17 L 20.5625 12 A 0.5625 0.5625 0 0 0 20 11.4375 z M 20 20.4375 A 0.5625 0.5625 0 0 0 19.4375 21 A 0.5625 0.5625 0 0 0 20 21.5625 L 20.009766 21.5625 A 0.5625 0.5625 0 0 0 20.572266 21 A 0.5625 0.5625 0 0 0 20.009766 20.4375 L 20 20.4375 z " />
</svg>
