<?xml version="1.0" encoding="UTF-8" standalone="no"?>
<svg
   width="24"
   height="24"
   viewBox="0 0 24 24"
   fill="none"
   stroke="currentColor"
   stroke-width="1.125"
   stroke-linecap="round"
   stroke-linejoin="round"
   version="1.1"
   id="svg9"
   sodipodi:docname=".tmp_cloud-cog.svg"
   xmlns:inkscape="http://www.inkscape.org/namespaces/inkscape"
   xmlns:sodipodi="http://sodipodi.sourceforge.net/DTD/sodipodi-0.dtd"
   xmlns="http://www.w3.org/2000/svg"
   xmlns:svg="http://www.w3.org/2000/svg">
  <defs
     id="defs9" />
  <sodipodi:namedview
     id="namedview9"
     pagecolor="#ffffff"
     bordercolor="#000000"
     borderopacity="0.25"
     inkscape:showpageshadow="2"
     inkscape:pageopacity="0.0"
     inkscape:pagecheckerboard="0"
     inkscape:deskcolor="#d1d1d1" />
  <path
     id="path1"
     style="baseline-shift:baseline;display:inline;overflow:visible;vector-effect:none;fill:#000000;stroke:none;stroke-linecap:butt;stroke-linejoin:miter;enable-background:accumulate;stop-color:#000000;stop-opacity:1;opacity:1"
     d="M 9.1542969 2.4492188 C 7.1788295 2.4093115 5.188072 3.1354074 3.6738281 4.6386719 C 0.64534034 7.6452009 0.70928143 12.582498 3.8144531 15.509766 A 0.5625 0.5625 0 0 0 4.609375 15.486328 A 0.5625 0.5625 0 0 0 4.5859375 14.691406 C 1.9327502 12.190227 1.8791313 8.006403 4.4667969 5.4375 C 7.0544624 2.868597 11.236945 2.9536818 13.71875 5.625 C 14.391187 6.347865 14.888423 7.2164031 15.171875 8.1621094 A 0.56255625 0.56255625 0 0 0 15.710938 8.5625 L 17.492188 8.5625 C 19.441847 8.588783 20.740381 9.8273567 21.205078 11.351562 C 21.669775 12.875768 21.283058 14.628756 19.679688 15.738281 A 0.5625 0.5625 0 0 0 19.537109 16.519531 A 0.5625 0.5625 0 0 0 20.320312 16.662109 C 22.319556 15.278646 22.872038 12.96122 22.28125 11.023438 C 21.690462 9.0856534 19.938835 7.4702726 17.507812 7.4375 A 0.56255625 0.56255625 0 0 0 17.5 7.4375 L 16.019531 7.4375 C 15.673595 6.4982326 15.224866 5.5945094 14.541016 4.859375 C 13.088832 3.2969783 11.129251 2.4891155 9.1542969 2.4492188 z M 10.46875 12.742188 A 0.5625 0.5625 0 0 0 10.253906 12.785156 A 0.5625 0.5625 0 0 0 9.9492188 13.521484 L 10.130859 13.958984 C 9.6063558 14.2655 9.2014933 14.664894 8.9179688 15.113281 L 8.5214844 14.949219 A 0.5625 0.5625 0 0 0 7.7851562 15.253906 A 0.5625 0.5625 0 0 0 8.0898438 15.988281 L 8.4921875 16.15625 C 8.3709541 16.712963 8.392862 17.286408 8.53125 17.828125 L 8.0898438 18.011719 A 0.5625 0.5625 0 0 0 7.7851562 18.746094 A 0.5625 0.5625 0 0 0 8.5214844 19.050781 L 8.9609375 18.867188 C 9.2463045 19.347999 9.6357615 19.770267 10.115234 20.078125 L 9.9492188 20.480469 A 0.5625 0.5625 0 0 0 10.253906 21.214844 A 0.5625 0.5625 0 0 0 10.988281 20.912109 L 11.162109 20.494141 C 11.669886 20.583158 12.229332 20.545784 12.800781 20.402344 L 13.009766 20.910156 A 0.5625 0.5625 0 0 0 13.744141 21.216797 A 0.5625 0.5625 0 0 0 14.050781 20.480469 L 13.869141 20.041016 C 14.393813 19.734471 14.798445 19.335207 15.082031 18.886719 L 15.478516 19.050781 A 0.5625 0.5625 0 0 0 16.214844 18.746094 A 0.5625 0.5625 0 0 0 15.910156 18.011719 L 15.507812 17.845703 L 15.507812 17.84375 C 15.629044 17.287035 15.60714 16.713593 15.46875 16.171875 L 15.910156 15.988281 A 0.5625 0.5625 0 0 0 16.214844 15.253906 A 0.5625 0.5625 0 0 0 15.478516 14.949219 L 15.039062 15.132812 C 14.753766 14.652124 14.364073 14.229711 13.884766 13.921875 L 14.050781 13.521484 A 0.5625 0.5625 0 0 0 13.746094 12.785156 A 0.5625 0.5625 0 0 0 13.011719 13.089844 L 12.839844 13.505859 C 12.331458 13.416325 11.771526 13.454001 11.199219 13.597656 L 10.988281 13.089844 A 0.5625 0.5625 0 0 0 10.46875 12.742188 z M 12.175781 14.523438 C 12.376614 14.52973 12.566358 14.563038 12.744141 14.619141 A 0.5625 0.5625 0 0 0 12.931641 14.748047 A 0.5625 0.5625 0 0 0 13.144531 14.791016 C 13.636056 15.061493 14.027602 15.524682 14.251953 16.066406 A 0.5625 0.5625 0 0 0 14.251953 16.068359 C 14.475814 16.609899 14.525602 17.215298 14.369141 17.753906 A 0.5625 0.5625 0 0 0 14.251953 17.931641 A 0.5625 0.5625 0 0 0 14.208984 18.15625 C 13.98049 18.596882 13.587449 18.980168 12.9375 19.25 A 0.56255625 0.56255625 0 0 0 12.933594 19.251953 C 12.282474 19.521609 11.729946 19.530466 11.255859 19.380859 A 0.5625 0.5625 0 0 0 11.068359 19.251953 A 0.5625 0.5625 0 0 0 10.855469 19.208984 C 10.371204 18.942511 9.9837261 18.488437 9.7578125 17.957031 C 9.7544266 17.949067 9.7513597 17.941593 9.7480469 17.933594 C 9.7478155 17.933035 9.7482779 17.932199 9.7480469 17.931641 A 0.5625 0.5625 0 0 0 9.7382812 17.908203 C 9.5225831 17.372639 9.4766333 16.776969 9.6308594 16.246094 A 0.5625 0.5625 0 0 0 9.7480469 16.068359 A 0.5625 0.5625 0 0 0 9.7910156 15.84375 C 10.019851 15.402453 10.414708 15.017942 11.066406 14.748047 C 11.473356 14.579512 11.84106 14.51295 12.175781 14.523438 z " />
</svg>
