<?xml version="1.0" encoding="UTF-8" standalone="no"?>
<svg
   width="24"
   height="24"
   viewBox="0 0 24 24"
   fill="none"
   stroke="currentColor"
   stroke-width="1.125"
   stroke-linecap="round"
   stroke-linejoin="round"
   version="1.1"
   id="svg4"
   sodipodi:docname=".tmp_cloud-moon-rain.svg"
   xmlns:inkscape="http://www.inkscape.org/namespaces/inkscape"
   xmlns:sodipodi="http://sodipodi.sourceforge.net/DTD/sodipodi-0.dtd"
   xmlns="http://www.w3.org/2000/svg"
   xmlns:svg="http://www.w3.org/2000/svg">
  <defs
     id="defs4" />
  <sodipodi:namedview
     id="namedview4"
     pagecolor="#ffffff"
     bordercolor="#000000"
     borderopacity="0.25"
     inkscape:showpageshadow="2"
     inkscape:pageopacity="0.0"
     inkscape:pagecheckerboard="0"
     inkscape:deskcolor="#d1d1d1" />
  <path
     id="path1"
     style="baseline-shift:baseline;display:inline;overflow:visible;vector-effect:none;fill:#000000;stroke:none;stroke-linecap:butt;stroke-linejoin:miter;enable-background:accumulate;stop-color:#000000;stop-opacity:1;opacity:1"
     d="M 14.693359 2.5878906 C 14.624696 2.5900589 14.556094 2.5988517 14.486328 2.6152344 A 0.56255625 0.56255625 0 0 0 14.484375 2.6152344 C 11.717629 3.2726047 9.6852973 5.6437662 9.4589844 8.4785156 A 0.5625 0.5625 0 0 0 9.9746094 9.0839844 A 0.5625 0.5625 0 0 0 10.580078 8.5683594 C 10.76787 6.2161129 12.446692 4.2571564 14.742188 3.7109375 C 14.767639 3.7049608 14.776697 3.698221 14.779297 3.6972656 L 14.779297 3.6992188 C 14.779799 3.7039514 14.778129 3.7218987 14.802734 3.7695312 C 14.851944 3.8647962 14.868043 4.0637253 14.814453 4.1875 C 14.003571 6.0611207 14.550126 8.0010651 15.775391 9.2265625 C 17.000655 10.45206 18.938725 10.998026 20.8125 10.1875 C 20.936149 10.13376 21.137146 10.148136 21.232422 10.197266 C 21.280062 10.221816 21.298506 10.220542 21.302734 10.220703 C 21.30143 10.223004 21.294999 10.230813 21.289062 10.255859 C 20.893193 11.928641 19.73059 13.31488 18.152344 13.996094 A 0.5625 0.5625 0 0 0 17.859375 14.734375 A 0.5625 0.5625 0 0 0 18.599609 15.029297 C 20.503365 14.207552 21.907247 12.531466 22.384766 10.513672 C 22.516938 9.9555127 22.164568 9.4129172 21.746094 9.1972656 C 21.32762 8.981614 20.830585 8.9520391 20.365234 9.1542969 C 18.912557 9.7826716 17.502819 9.3623705 16.570312 8.4296875 C 15.637807 7.4970045 15.217052 6.0873238 15.845703 4.6347656 C 16.047116 4.1695403 16.018775 3.6701884 15.802734 3.2519531 C 15.613699 2.8859972 15.174002 2.5727127 14.693359 2.5878906 z M 7.1953125 11.443359 C 6.3744076 11.412179 5.5303029 11.563869 4.7207031 11.927734 C 1.482304 13.383195 0.42184125 17.496536 2.5507812 20.337891 A 0.5625 0.5625 0 0 0 3.3378906 20.449219 A 0.5625 0.5625 0 0 0 3.4492188 19.662109 C 1.7371904 17.377179 2.5774196 14.125515 5.1816406 12.955078 C 7.7858616 11.784642 10.777508 13.316024 11.349609 16.113281 A 0.56255625 0.56255625 0 0 0 11.900391 16.5625 L 13 16.5625 C 14.147757 16.5608 14.943131 17.244987 15.28125 18.130859 C 15.619369 19.016732 15.481994 20.056828 14.625 20.820312 A 0.5625 0.5625 0 0 0 14.580078 21.613281 A 0.5625 0.5625 0 0 0 15.375 21.660156 C 16.578117 20.588314 16.819172 19.006778 16.332031 17.730469 C 15.844888 16.454164 14.611314 15.435132 13 15.4375 L 12.244141 15.4375 C 11.54056 13.108435 9.4969821 11.530787 7.1953125 11.443359 z M 7 18.4375 A 0.5625 0.5625 0 0 0 6.4375 19 L 6.4375 21 A 0.5625 0.5625 0 0 0 7 21.5625 A 0.5625 0.5625 0 0 0 7.5625 21 L 7.5625 19 A 0.5625 0.5625 0 0 0 7 18.4375 z M 11 19.4375 A 0.5625 0.5625 0 0 0 10.4375 20 L 10.4375 22 A 0.5625 0.5625 0 0 0 11 22.5625 A 0.5625 0.5625 0 0 0 11.5625 22 L 11.5625 20 A 0.5625 0.5625 0 0 0 11 19.4375 z " />
</svg>
