<?xml version="1.0" encoding="UTF-8" standalone="no"?>
<svg
   width="24"
   height="24"
   viewBox="0 0 24 24"
   fill="none"
   stroke="currentColor"
   stroke-width="1.125"
   stroke-linecap="round"
   stroke-linejoin="round"
   version="1.1"
   id="svg11"
   sodipodi:docname=".tmp_columns-3-cog.svg"
   xmlns:inkscape="http://www.inkscape.org/namespaces/inkscape"
   xmlns:sodipodi="http://sodipodi.sourceforge.net/DTD/sodipodi-0.dtd"
   xmlns="http://www.w3.org/2000/svg"
   xmlns:svg="http://www.w3.org/2000/svg">
  <defs
     id="defs11" />
  <sodipodi:namedview
     id="namedview11"
     pagecolor="#ffffff"
     bordercolor="#000000"
     borderopacity="0.25"
     inkscape:showpageshadow="2"
     inkscape:pageopacity="0.0"
     inkscape:pagecheckerboard="0"
     inkscape:deskcolor="#d1d1d1" />
  <path
     id="path1"
     style="baseline-shift:baseline;display:inline;overflow:visible;vector-effect:none;fill:#000000;stroke:none;stroke-linecap:butt;stroke-linejoin:miter;enable-background:accumulate;stop-color:#000000;stop-opacity:1;opacity:1"
     d="M 5 2.4375 C 3.5914329 2.4375 2.4375 3.5914329 2.4375 5 L 2.4375 19 C 2.4375 20.408567 3.5914329 21.5625 5 21.5625 L 10.5 21.5625 A 0.5625 0.5625 0 0 0 11.0625 21 A 0.5625 0.5625 0 0 0 10.5 20.4375 L 9.5625 20.4375 L 9.5625 3.5625 L 14.4375 3.5625 L 14.4375 10.5 A 0.5625 0.5625 0 0 0 15 11.0625 A 0.5625 0.5625 0 0 0 15.5625 10.5 L 15.5625 3.5625 L 19 3.5625 C 19.800572 3.5625 20.4375 4.1994281 20.4375 5 L 20.4375 10.5 A 0.5625 0.5625 0 0 0 21 11.0625 A 0.5625 0.5625 0 0 0 21.5625 10.5 L 21.5625 5 C 21.5625 3.5914329 20.408567 2.4375 19 2.4375 L 5 2.4375 z M 5 3.5625 L 8.4375 3.5625 L 8.4375 20.4375 L 5 20.4375 C 4.1994281 20.4375 3.5625 19.800572 3.5625 19 L 3.5625 5 C 3.5625 4.1994281 4.1994281 3.5625 5 3.5625 z M 16.40625 13.738281 A 0.5625 0.5625 0 0 0 16.191406 13.777344 A 0.5625 0.5625 0 0 0 15.876953 14.509766 L 16.076172 15.005859 C 15.602547 15.311781 15.2045 15.726838 14.919922 16.214844 L 14.478516 16.066406 A 0.5625 0.5625 0 0 0 13.765625 16.421875 A 0.5625 0.5625 0 0 0 14.123047 17.132812 L 14.513672 17.263672 C 14.463317 17.501361 14.4375 17.747781 14.4375 18 C 14.4375 18.308512 14.476324 18.608642 14.550781 18.894531 L 14.091797 19.078125 A 0.5625 0.5625 0 0 0 13.777344 19.808594 A 0.5625 0.5625 0 0 0 14.509766 20.123047 L 15.005859 19.923828 C 15.311781 20.397453 15.726838 20.7955 16.214844 21.080078 L 16.066406 21.521484 A 0.5625 0.5625 0 0 0 16.421875 22.234375 A 0.5625 0.5625 0 0 0 17.132812 21.876953 L 17.263672 21.486328 C 17.501361 21.536683 17.747781 21.5625 18 21.5625 C 18.308512 21.5625 18.608642 21.523676 18.894531 21.449219 L 19.078125 21.908203 A 0.5625 0.5625 0 0 0 19.808594 22.222656 A 0.5625 0.5625 0 0 0 20.123047 21.490234 L 19.923828 20.994141 C 20.397454 20.688219 20.7955 20.273162 21.080078 19.785156 L 21.521484 19.933594 A 0.5625 0.5625 0 0 0 22.234375 19.578125 A 0.5625 0.5625 0 0 0 21.876953 18.867188 L 21.486328 18.736328 C 21.536683 18.498639 21.5625 18.252219 21.5625 18 C 21.5625 17.691488 21.523676 17.391358 21.449219 17.105469 L 21.908203 16.921875 A 0.5625 0.5625 0 0 0 22.222656 16.191406 A 0.5625 0.5625 0 0 0 21.490234 15.876953 L 20.994141 16.076172 C 20.688219 15.602546 20.273162 15.2045 19.785156 14.919922 L 19.933594 14.478516 A 0.5625 0.5625 0 0 0 19.578125 13.765625 A 0.5625 0.5625 0 0 0 18.867188 14.123047 L 18.736328 14.513672 C 18.498639 14.463317 18.252219 14.4375 18 14.4375 C 17.691488 14.4375 17.391358 14.476324 17.105469 14.550781 L 16.921875 14.091797 A 0.5625 0.5625 0 0 0 16.40625 13.738281 z M 18 15.5625 C 18.924653 15.5625 19.723331 16.069564 20.136719 16.822266 A 0.5625 0.5625 0 0 0 20.177734 17.009766 A 0.5625 0.5625 0 0 0 20.304688 17.201172 C 20.39058 17.451221 20.4375 17.719649 20.4375 18 C 20.4375 18.924653 19.930436 19.723331 19.177734 20.136719 A 0.5625 0.5625 0 0 0 18.990234 20.177734 A 0.5625 0.5625 0 0 0 18.798828 20.304688 C 18.548779 20.39058 18.280351 20.4375 18 20.4375 C 17.075347 20.4375 16.276669 19.930436 15.863281 19.177734 A 0.5625 0.5625 0 0 0 15.822266 18.990234 A 0.5625 0.5625 0 0 0 15.695312 18.798828 C 15.60942 18.548779 15.5625 18.280351 15.5625 18 C 15.5625 17.075347 16.069564 16.276669 16.822266 15.863281 A 0.5625 0.5625 0 0 0 17.009766 15.822266 A 0.5625 0.5625 0 0 0 17.201172 15.695312 C 17.451221 15.60942 17.719649 15.5625 18 15.5625 z " />
</svg>
