<?xml version="1.0" encoding="UTF-8" standalone="no"?>
<svg
   width="24"
   height="24"
   viewBox="0 0 24 24"
   fill="none"
   stroke="currentColor"
   stroke-width="1.125"
   stroke-linecap="round"
   stroke-linejoin="round"
   version="1.1"
   id="svg1"
   sodipodi:docname=".tmp_command.svg"
   xmlns:inkscape="http://www.inkscape.org/namespaces/inkscape"
   xmlns:sodipodi="http://sodipodi.sourceforge.net/DTD/sodipodi-0.dtd"
   xmlns="http://www.w3.org/2000/svg"
   xmlns:svg="http://www.w3.org/2000/svg">
  <defs
     id="defs1" />
  <sodipodi:namedview
     id="namedview1"
     pagecolor="#ffffff"
     bordercolor="#000000"
     borderopacity="0.25"
     inkscape:showpageshadow="2"
     inkscape:pageopacity="0.0"
     inkscape:pagecheckerboard="0"
     inkscape:deskcolor="#d1d1d1" />
  <path
     id="path1"
     style="baseline-shift:baseline;display:inline;overflow:visible;vector-effect:none;fill:#000000;stroke:none;stroke-linecap:butt;stroke-linejoin:miter;enable-background:accumulate;stop-color:#000000;stop-opacity:1;opacity:1"
     d="M 5.8847656 2.4375 C 5.7147486 2.4423304 5.5445624 2.4585841 5.375 2.4882812 C 4.6967502 2.6070696 4.0330639 2.9278734 3.4804688 3.4804688 C 2.3752781 4.5856592 2.1981856 6.1299434 2.7089844 7.3632812 C 3.2197831 8.5966191 4.4368708 9.5625 6 9.5625 L 8.4375 9.5625 L 8.4375 14.4375 L 6 14.4375 C 4.4368708 14.4375 3.2197831 15.403381 2.7089844 16.636719 C 2.1981856 17.870057 2.3752782 19.414341 3.4804688 20.519531 C 4.5856592 21.624722 6.1299435 21.801814 7.3632812 21.291016 C 8.5966192 20.780217 9.5625 19.563129 9.5625 18 L 9.5625 15.5625 L 14.4375 15.5625 L 14.4375 18 C 14.4375 19.563129 15.403381 20.780217 16.636719 21.291016 C 17.870057 21.801814 19.414341 21.624722 20.519531 20.519531 C 21.624722 19.414341 21.801814 17.870057 21.291016 16.636719 C 20.780217 15.403381 19.563129 14.4375 18 14.4375 L 15.5625 14.4375 L 15.5625 9.5625 L 18 9.5625 C 19.563129 9.5625 20.780217 8.5966191 21.291016 7.3632812 C 21.801814 6.1299435 21.624722 4.5856592 20.519531 3.4804688 C 19.414341 2.3752781 17.870057 2.1981856 16.636719 2.7089844 C 15.403381 3.2197831 14.4375 4.4368708 14.4375 6 L 14.4375 8.4375 L 9.5625 8.4375 L 9.5625 6 C 9.5625 4.4368708 8.5966191 3.2197831 7.3632812 2.7089844 C 6.9007796 2.5174348 6.3948168 2.4230089 5.8847656 2.4375 z M 5.9238281 3.5527344 C 6.269447 3.5458295 6.6130365 3.615285 6.9335938 3.7480469 C 7.788413 4.1020785 8.4375 4.8902288 8.4375 6 L 8.4375 8.4375 L 6 8.4375 C 4.8902288 8.4375 4.1020785 7.788413 3.7480469 6.9335938 C 3.3940152 6.0787745 3.4927374 5.0619501 4.2773438 4.2773438 C 4.6696469 3.8850406 5.1189789 3.6642308 5.578125 3.5859375 C 5.6929115 3.5663642 5.8086218 3.555036 5.9238281 3.5527344 z M 18.076172 3.5527344 C 18.191378 3.555036 18.307088 3.5663642 18.421875 3.5859375 C 18.881021 3.6642305 19.330353 3.8850406 19.722656 4.2773438 C 20.507263 5.0619502 20.605985 6.0787745 20.251953 6.9335938 C 19.897921 7.788413 19.109771 8.4375 18 8.4375 L 15.5625 8.4375 L 15.5625 6 C 15.5625 4.8902288 16.211587 4.1020785 17.066406 3.7480469 C 17.386964 3.6152849 17.730553 3.5458295 18.076172 3.5527344 z M 9.5625 9.5625 L 14.4375 9.5625 L 14.4375 14.4375 L 9.5625 14.4375 L 9.5625 9.5625 z M 6 15.5625 L 8.4375 15.5625 L 8.4375 18 C 8.4375 19.109771 7.788413 19.897921 6.9335938 20.251953 C 6.0787746 20.605985 5.0619502 20.507263 4.2773438 19.722656 C 3.4927374 18.93805 3.3940152 17.921226 3.7480469 17.066406 C 4.1020785 16.211587 4.8902288 15.5625 6 15.5625 z M 15.5625 15.5625 L 18 15.5625 C 19.109771 15.5625 19.897921 16.211587 20.251953 17.066406 C 20.605985 17.921226 20.507263 18.93805 19.722656 19.722656 C 18.93805 20.507263 17.921226 20.605985 17.066406 20.251953 C 16.211587 19.897921 15.5625 19.109771 15.5625 18 L 15.5625 15.5625 z " />
</svg>
