<?xml version="1.0" encoding="UTF-8" standalone="no"?>
<svg
   width="24"
   height="24"
   viewBox="0 0 24 24"
   fill="none"
   stroke="currentColor"
   stroke-width="1.125"
   stroke-linecap="round"
   stroke-linejoin="round"
   version="1.1"
   id="svg5"
   sodipodi:docname=".tmp_container.svg"
   xmlns:inkscape="http://www.inkscape.org/namespaces/inkscape"
   xmlns:sodipodi="http://sodipodi.sourceforge.net/DTD/sodipodi-0.dtd"
   xmlns="http://www.w3.org/2000/svg"
   xmlns:svg="http://www.w3.org/2000/svg">
  <defs
     id="defs5" />
  <sodipodi:namedview
     id="namedview5"
     pagecolor="#ffffff"
     bordercolor="#000000"
     borderopacity="0.25"
     inkscape:showpageshadow="2"
     inkscape:pageopacity="0.0"
     inkscape:pagecheckerboard="0"
     inkscape:deskcolor="#d1d1d1" />
  <path
     id="path1"
     style="baseline-shift:baseline;display:inline;overflow:visible;vector-effect:none;fill:#000000;stroke:none;stroke-linecap:butt;stroke-linejoin:miter;enable-background:accumulate;stop-color:#000000;stop-opacity:1;opacity:1"
     d="M 14.050781 1.5136719 C 13.661466 1.5136719 13.271223 1.6119599 12.921875 1.8105469 A 0.56255625 0.56255625 0 0 0 12.916016 1.8144531 L 2.6445312 7.7988281 C 2.2034367 7.9892917 1.8564126 8.334112 1.6503906 8.7597656 A 0.5625 0.5625 0 0 0 1.6210938 8.8027344 A 0.5625 0.5625 0 0 0 1.5390625 9.0390625 C 1.4724363 9.2481678 1.4375 9.4706762 1.4375 9.6992188 L 1.4375 16.300781 C 1.4375 16.700781 1.5738342 17.060818 1.7558594 17.394531 C 1.9378845 17.728244 2.1668906 18.028 2.4628906 18.25 A 0.56255625 0.56255625 0 0 0 2.5039062 18.277344 L 8.8046875 22.177734 A 0.56255625 0.56255625 0 0 0 8.8222656 22.189453 C 9.5209624 22.586628 10.379428 22.586628 11.078125 22.189453 A 0.56255625 0.56255625 0 0 0 11.083984 22.185547 L 21.382812 16.185547 A 0.56255625 0.56255625 0 0 0 21.388672 16.181641 C 21.747435 15.966383 22.020424 15.652786 22.222656 15.310547 C 22.424889 14.968308 22.5625 14.599219 22.5625 14.199219 L 22.5625 7.6992188 C 22.562477 7.4580924 22.523008 7.2303085 22.455078 7.0175781 A 0.5625 0.5625 0 0 0 22.386719 6.8183594 A 0.5625 0.5625 0 0 0 22.371094 6.7949219 C 22.181252 6.3591108 21.871441 6.0007487 21.537109 5.75 A 0.56255625 0.56255625 0 0 0 21.496094 5.7226562 L 15.195312 1.8222656 A 0.56255625 0.56255625 0 0 0 15.177734 1.8105469 C 14.828387 1.6119599 14.440097 1.5136719 14.050781 1.5136719 z M 14.050781 2.6367188 C 14.247568 2.6367188 14.443378 2.6880399 14.621094 2.7890625 L 20.865234 6.6542969 C 20.944132 6.7140733 21.027975 6.8031271 21.107422 6.9082031 L 10.011719 13.34375 L 2.9257812 8.9492188 C 2.9878396 8.8903212 3.050673 8.8457464 3.109375 8.8222656 A 0.56255625 0.56255625 0 0 0 3.1835938 8.7851562 L 13.482422 2.7851562 L 13.478516 2.7890625 C 13.656231 2.68804 13.853995 2.6367188 14.050781 2.6367188 z M 21.4375 8.0175781 L 21.4375 14.199219 C 21.4375 14.299219 21.37667 14.530521 21.253906 14.738281 C 21.131139 14.946042 20.951784 15.132055 20.810547 15.216797 L 18.5625 16.527344 L 18.5625 9.6855469 L 21.4375 8.0175781 z M 2.5625 10.048828 L 9.4375 14.3125 L 9.4375 21.242188 C 9.4177578 21.232401 9.3982223 21.221918 9.3789062 21.210938 L 3.1328125 17.345703 C 3.0285586 17.266285 2.8610895 17.069875 2.7441406 16.855469 C 2.6261658 16.639182 2.5625 16.400781 2.5625 16.300781 L 2.5625 10.048828 z M 17.4375 10.335938 L 17.4375 17.181641 L 14.5625 18.857422 L 14.5625 12.003906 L 17.4375 10.335938 z M 13.4375 12.65625 L 13.4375 19.513672 L 10.5625 21.189453 L 10.5625 14.324219 L 13.4375 12.65625 z " />
</svg>
