<?xml version="1.0" encoding="UTF-8" standalone="no"?>
<svg
   width="24"
   height="24"
   viewBox="0 0 24 24"
   fill="none"
   stroke="currentColor"
   stroke-width="1.125"
   stroke-linecap="round"
   stroke-linejoin="round"
   version="1.1"
   id="svg3"
   sodipodi:docname=".tmp_contact.svg"
   xmlns:inkscape="http://www.inkscape.org/namespaces/inkscape"
   xmlns:sodipodi="http://sodipodi.sourceforge.net/DTD/sodipodi-0.dtd"
   xmlns="http://www.w3.org/2000/svg"
   xmlns:svg="http://www.w3.org/2000/svg">
  <defs
     id="defs3" />
  <sodipodi:namedview
     id="namedview3"
     pagecolor="#ffffff"
     bordercolor="#000000"
     borderopacity="0.25"
     inkscape:showpageshadow="2"
     inkscape:pageopacity="0.0"
     inkscape:pagecheckerboard="0"
     inkscape:deskcolor="#d1d1d1" />
  <path
     id="path1"
     style="baseline-shift:baseline;display:inline;overflow:visible;vector-effect:none;fill:#000000;stroke:none;stroke-linecap:butt;stroke-linejoin:miter;enable-background:accumulate;stop-color:#000000;stop-opacity:1;opacity:1"
     d="M 8 1.4375 A 0.5625 0.5625 0 0 0 7.4375 2 L 7.4375 3.4375 L 5 3.4375 C 3.5901047 3.4375 2.4375 4.5901047 2.4375 6 L 2.4375 20 C 2.4375 21.409895 3.5901047 22.5625 5 22.5625 L 7 22.5625 L 17 22.5625 L 19 22.5625 C 20.409895 22.5625 21.5625 21.409895 21.5625 20 L 21.5625 6 C 21.5625 4.5901047 20.409895 3.4375 19 3.4375 L 16.5625 3.4375 L 16.5625 2 A 0.5625 0.5625 0 0 0 16 1.4375 A 0.5625 0.5625 0 0 0 15.4375 2 L 15.4375 3.4375 L 8.5625 3.4375 L 8.5625 2 A 0.5625 0.5625 0 0 0 8 1.4375 z M 5 4.5625 L 8 4.5625 L 16 4.5625 L 19 4.5625 C 19.806105 4.5625 20.4375 5.1938953 20.4375 6 L 20.4375 20 C 20.4375 20.806105 19.806105 21.4375 19 21.4375 L 17.5625 21.4375 L 17.5625 20 C 17.5625 18.591433 16.408567 17.4375 15 17.4375 L 9 17.4375 C 7.5914329 17.4375 6.4375 18.591433 6.4375 20 L 6.4375 21.4375 L 5 21.4375 C 4.1938953 21.4375 3.5625 20.806105 3.5625 20 L 3.5625 6 C 3.5625 5.1938953 4.1938953 4.5625 5 4.5625 z M 12 7.4375 C 10.039148 7.4375 8.4375 9.0391482 8.4375 11 C 8.4375 12.960852 10.039148 14.5625 12 14.5625 C 13.960852 14.5625 15.5625 12.960852 15.5625 11 C 15.5625 9.0391482 13.960852 7.4375 12 7.4375 z M 12 8.5625 C 13.352857 8.5625 14.4375 9.6471433 14.4375 11 C 14.4375 12.352857 13.352857 13.4375 12 13.4375 C 10.647143 13.4375 9.5625 12.352857 9.5625 11 C 9.5625 9.6471433 10.647143 8.5625 12 8.5625 z M 9 18.5625 L 15 18.5625 C 15.800572 18.5625 16.4375 19.199428 16.4375 20 L 16.4375 21.4375 L 7.5625 21.4375 L 7.5625 20 C 7.5625 19.199428 8.1994281 18.5625 9 18.5625 z " />
</svg>
