<?xml version="1.0" encoding="UTF-8" standalone="no"?>
<svg
   width="24"
   height="24"
   viewBox="0 0 24 24"
   fill="none"
   stroke="currentColor"
   stroke-width="1.125"
   stroke-linecap="round"
   stroke-linejoin="round"
   version="1.1"
   id="svg6"
   sodipodi:docname=".tmp_cookie.svg"
   xmlns:inkscape="http://www.inkscape.org/namespaces/inkscape"
   xmlns:sodipodi="http://sodipodi.sourceforge.net/DTD/sodipodi-0.dtd"
   xmlns="http://www.w3.org/2000/svg"
   xmlns:svg="http://www.w3.org/2000/svg">
  <defs
     id="defs6" />
  <sodipodi:namedview
     id="namedview6"
     pagecolor="#ffffff"
     bordercolor="#000000"
     borderopacity="0.25"
     inkscape:showpageshadow="2"
     inkscape:pageopacity="0.0"
     inkscape:pagecheckerboard="0"
     inkscape:deskcolor="#d1d1d1" />
  <path
     id="path1"
     style="baseline-shift:baseline;display:inline;overflow:visible;vector-effect:none;fill:#000000;stroke:none;stroke-linecap:butt;stroke-linejoin:miter;enable-background:accumulate;stop-color:#000000;stop-opacity:1;opacity:1"
     d="M 12 1.4375 C 7.3184869 1.4375 3.7619551 4.2875102 2.2421875 7.9570312 C 0.72241992 11.626552 1.2212963 16.158796 4.53125 19.46875 C 7.8412037 22.778704 12.373448 23.27758 16.042969 21.757812 C 19.71249 20.238045 22.5625 16.681513 22.5625 12 A 0.56255625 0.56255625 0 0 0 21.833984 11.462891 C 19.165454 12.284574 16.715426 9.8345462 17.537109 7.1660156 A 0.56255625 0.56255625 0 0 0 16.833984 6.4628906 C 14.165454 7.2845737 11.715426 4.8345462 12.537109 2.1660156 A 0.5625 0.5625 0 0 0 12.513672 2.1210938 A 0.5625 0.5625 0 0 0 12.5625 2 A 0.5625 0.5625 0 0 0 12.322266 1.7597656 A 0.5625 0.5625 0 0 0 12.166016 1.4628906 A 0.5625 0.5625 0 0 0 12.037109 1.4746094 A 0.5625 0.5625 0 0 0 12 1.4375 z M 11.447266 2.6464844 C 11.118584 5.5409741 13.546799 7.9449926 16.449219 7.5507812 C 16.055007 10.453201 18.459026 12.881416 21.353516 12.552734 C 21.131225 16.483675 18.748425 19.419491 15.611328 20.71875 C 12.320326 22.08175 8.3155413 21.663198 5.3261719 18.673828 C 2.3368025 15.684459 1.9182495 11.679674 3.28125 8.3886719 C 4.5805091 5.2515747 7.5163247 2.868775 11.447266 2.6464844 z M 8.5 7.9375 A 0.5625 0.5625 0 0 0 7.9375 8.5 L 7.9375 8.5097656 A 0.5625 0.5625 0 0 0 8.5 9.0722656 A 0.5625 0.5625 0 0 0 9.0625 8.5097656 L 9.0625 8.5 A 0.5625 0.5625 0 0 0 8.5 7.9375 z M 12 11.4375 A 0.5625 0.5625 0 0 0 11.4375 12 L 11.4375 12.009766 A 0.5625 0.5625 0 0 0 12 12.572266 A 0.5625 0.5625 0 0 0 12.5625 12.009766 L 12.5625 12 A 0.5625 0.5625 0 0 0 12 11.4375 z M 7 13.4375 A 0.5625 0.5625 0 0 0 6.4375 14 L 6.4375 14.009766 A 0.5625 0.5625 0 0 0 7 14.572266 A 0.5625 0.5625 0 0 0 7.5625 14.009766 L 7.5625 14 A 0.5625 0.5625 0 0 0 7 13.4375 z M 16 14.9375 A 0.5625 0.5625 0 0 0 15.4375 15.5 L 15.4375 15.509766 A 0.5625 0.5625 0 0 0 16 16.072266 A 0.5625 0.5625 0 0 0 16.5625 15.509766 L 16.5625 15.5 A 0.5625 0.5625 0 0 0 16 14.9375 z M 11 16.4375 A 0.5625 0.5625 0 0 0 10.4375 17 L 10.4375 17.009766 A 0.5625 0.5625 0 0 0 11 17.572266 A 0.5625 0.5625 0 0 0 11.5625 17.009766 L 11.5625 17 A 0.5625 0.5625 0 0 0 11 16.4375 z " />
</svg>
