<?xml version="1.0" encoding="UTF-8" standalone="no"?>
<svg
   width="24"
   height="24"
   viewBox="0 0 24 24"
   fill="none"
   stroke="currentColor"
   stroke-width="1.125"
   stroke-linecap="round"
   stroke-linejoin="round"
   version="1.1"
   id="svg4"
   sodipodi:docname=".tmp_cooking-pot.svg"
   xmlns:inkscape="http://www.inkscape.org/namespaces/inkscape"
   xmlns:sodipodi="http://sodipodi.sourceforge.net/DTD/sodipodi-0.dtd"
   xmlns="http://www.w3.org/2000/svg"
   xmlns:svg="http://www.w3.org/2000/svg">
  <defs
     id="defs4" />
  <sodipodi:namedview
     id="namedview4"
     pagecolor="#ffffff"
     bordercolor="#000000"
     borderopacity="0.25"
     inkscape:showpageshadow="2"
     inkscape:pageopacity="0.0"
     inkscape:pagecheckerboard="0"
     inkscape:deskcolor="#d1d1d1" />
  <path
     id="path1"
     style="baseline-shift:baseline;display:inline;overflow:visible;vector-effect:none;fill:#000000;stroke:none;stroke-linecap:butt;stroke-linejoin:miter;enable-background:accumulate;stop-color:#000000;stop-opacity:1;opacity:1"
     d="M 12.177734 1.4394531 C 12.007684 1.4466177 11.835198 1.4707299 11.664062 1.5136719 L 11.662109 1.5136719 L 9.7246094 1.9941406 A 0.56255625 0.56255625 0 0 0 9.7226562 1.9941406 C 8.3559361 2.33867 7.519441 3.7410242 7.8652344 5.1074219 L 7.8632812 5.1054688 L 8.1796875 6.375 L 3.8632812 7.4550781 A 0.5625 0.5625 0 0 0 3.4550781 8.1367188 A 0.5625 0.5625 0 0 0 4.1367188 8.5449219 L 20.136719 4.5449219 A 0.5625 0.5625 0 0 0 20.544922 3.8632812 A 0.5625 0.5625 0 0 0 19.863281 3.4550781 L 15.091797 4.6484375 L 14.775391 3.3847656 L 14.775391 3.3828125 C 14.4785 2.1838936 13.368085 1.3893014 12.177734 1.4394531 z M 12.228516 2.5625 C 12.901229 2.5308084 13.515102 2.9719662 13.683594 3.6542969 A 0.56255625 0.56255625 0 0 0 13.683594 3.65625 L 14 4.9199219 L 9.2714844 6.1035156 L 8.9550781 4.8339844 A 0.56255625 0.56255625 0 0 0 8.9550781 4.8320312 C 8.7585375 4.0554008 9.2212382 3.2817596 9.9980469 3.0859375 L 11.935547 2.6054688 A 0.56255625 0.56255625 0 0 0 11.9375 2.6054688 C 12.034865 2.580954 12.132414 2.5670274 12.228516 2.5625 z M 2 11.4375 A 0.5625 0.5625 0 0 0 1.4375 12 A 0.5625 0.5625 0 0 0 2 12.5625 L 3.4375 12.5625 L 3.4375 20 C 3.4375 21.408567 4.5914329 22.5625 6 22.5625 L 18 22.5625 C 19.408567 22.5625 20.5625 21.408567 20.5625 20 L 20.5625 12.5625 L 22 12.5625 A 0.5625 0.5625 0 0 0 22.5625 12 A 0.5625 0.5625 0 0 0 22 11.4375 L 2 11.4375 z M 4.5625 12.5625 L 19.4375 12.5625 L 19.4375 20 C 19.4375 20.800572 18.800572 21.4375 18 21.4375 L 6 21.4375 C 5.1994281 21.4375 4.5625 20.800572 4.5625 20 L 4.5625 12.5625 z " />
</svg>
