<?xml version="1.0" encoding="UTF-8" standalone="no"?>
<svg
   width="24"
   height="24"
   viewBox="0 0 24 24"
   fill="none"
   stroke="currentColor"
   stroke-width="1.125"
   stroke-linecap="round"
   stroke-linejoin="round"
   version="1.1"
   id="svg5"
   sodipodi:docname=".tmp_croissant.svg"
   xmlns:inkscape="http://www.inkscape.org/namespaces/inkscape"
   xmlns:sodipodi="http://sodipodi.sourceforge.net/DTD/sodipodi-0.dtd"
   xmlns="http://www.w3.org/2000/svg"
   xmlns:svg="http://www.w3.org/2000/svg">
  <defs
     id="defs5" />
  <sodipodi:namedview
     id="namedview5"
     pagecolor="#ffffff"
     bordercolor="#000000"
     borderopacity="0.25"
     inkscape:showpageshadow="2"
     inkscape:pageopacity="0.0"
     inkscape:pagecheckerboard="0"
     inkscape:deskcolor="#d1d1d1" />
  <path
     id="path1"
     style="baseline-shift:baseline;display:inline;overflow:visible;vector-effect:none;fill:#000000;stroke:none;stroke-linecap:butt;stroke-linejoin:miter;enable-background:accumulate;stop-color:#000000;stop-opacity:1;opacity:1"
     d="M 8.8964844 1.9570312 C 8.790146 1.9651261 8.6841404 1.9806659 8.578125 2.0058594 A 0.5625 0.5625 0 0 0 8.5566406 2.0390625 A 0.5625 0.5625 0 0 0 8.5234375 2.0234375 C 5.4778029 3.0840658 3.0840658 5.4778029 2.0234375 8.5234375 A 0.56255625 0.56255625 0 0 0 2.0058594 8.578125 C 1.8043612 9.4260393 2.1608947 10.312457 2.8886719 10.785156 C 2.2848084 12.872039 2.2809203 15.09156 2.8808594 17.185547 A 0.56255625 0.56255625 0 0 0 2.8964844 17.228516 C 3.1545733 17.91315 3.7543618 18.404166 4.4609375 18.53125 C 4.5507047 19.540667 4.8945805 20.455144 5.4277344 21.166016 C 6.0530288 21.999742 6.9689078 22.5625 8 22.5625 C 9.4085671 22.5625 10.5625 21.408567 10.5625 20 C 10.561966 18.473516 10.932074 16.971171 11.636719 15.623047 L 12.765625 16.248047 C 13.858631 16.85234 15.079553 16.553259 15.816406 15.816406 C 16.553259 15.079553 16.85234 13.858631 16.248047 12.765625 L 15.625 11.636719 C 16.973054 10.931716 18.473275 10.562118 20 10.5625 C 21.408567 10.5625 22.5625 9.4085671 22.5625 8 C 22.5625 6.9689078 21.999742 6.0530288 21.166016 5.4277344 C 20.455144 4.8945803 19.540667 4.5507045 18.53125 4.4609375 C 18.404165 3.7543617 17.91315 3.1545733 17.228516 2.8964844 A 0.56255625 0.56255625 0 0 0 17.185547 2.8808594 C 16.068159 2.5607826 14.914835 2.4141118 13.765625 2.4375 C 12.761006 2.4579454 11.75854 2.6090972 10.785156 2.890625 C 10.37162 2.253503 9.6408531 1.9003671 8.8964844 1.9570312 z M 9.0039062 3.0898438 C 9.343633 3.0686639 9.6702482 3.2255608 9.8535156 3.5234375 L 14.378906 11.708984 L 15.261719 13.308594 A 0.56255625 0.56255625 0 0 0 15.263672 13.308594 C 15.630549 13.972176 15.447277 14.595692 15.021484 15.021484 C 14.595692 15.447277 13.972176 15.630549 13.308594 15.263672 A 0.56255625 0.56255625 0 0 0 13.308594 15.261719 L 11.720703 14.382812 L 11.71875 14.382812 A 0.5625 0.5625 0 0 0 11.708984 14.376953 A 0.5625 0.5625 0 0 0 11.664062 14.353516 L 3.5234375 9.8535156 C 3.1830075 9.6440671 3.025934 9.2467392 3.109375 8.8574219 C 4.059688 6.1697902 6.1697902 4.059688 8.8574219 3.109375 C 8.9060865 3.0989449 8.9553739 3.0928694 9.0039062 3.0898438 z M 14.09375 3.5625 C 15.016543 3.5723117 15.939968 3.7052799 16.837891 3.9589844 C 17.187046 4.0958169 17.424574 4.4173096 17.4375 4.7929688 L 17.4375 9.7519531 C 16.620922 9.9559953 15.8292 10.258243 15.080078 10.652344 L 11.349609 3.9023438 C 12.248394 3.6668749 13.170957 3.5526883 14.09375 3.5625 z M 18.5625 5.5957031 C 19.323427 5.6864718 19.995153 5.9568138 20.490234 6.328125 C 21.104224 6.788617 21.4375 7.3742379 21.4375 8 C 21.4375 8.8005719 20.800572 9.4375 20 9.4375 C 19.517473 9.4373792 19.037237 9.470041 18.5625 9.5351562 L 18.5625 5.5957031 z M 3.9023438 11.349609 L 10.650391 15.080078 C 10.256441 15.829275 9.9558651 16.620757 9.7519531 17.4375 L 4.7929688 17.4375 C 4.4173095 17.424574 4.0958169 17.187046 3.9589844 16.837891 C 3.4513895 15.041745 3.4312436 13.147319 3.9023438 11.349609 z M 5.5957031 18.5625 L 9.5351562 18.5625 C 9.4701024 19.037279 9.437331 19.517525 9.4375 20 C 9.4375 20.800572 8.8005719 21.4375 8 21.4375 C 7.3742379 21.4375 6.788617 21.104224 6.328125 20.490234 C 5.956814 19.995153 5.6864719 19.323427 5.5957031 18.5625 z " />
</svg>
