<?xml version="1.0" encoding="UTF-8" standalone="no"?>
<svg
   width="24"
   height="24"
   viewBox="0 0 24 24"
   fill="none"
   stroke="currentColor"
   stroke-width="1.125"
   stroke-linecap="round"
   stroke-linejoin="round"
   version="1.1"
   id="svg2"
   sodipodi:docname=".tmp_dessert.svg"
   xmlns:inkscape="http://www.inkscape.org/namespaces/inkscape"
   xmlns:sodipodi="http://sodipodi.sourceforge.net/DTD/sodipodi-0.dtd"
   xmlns="http://www.w3.org/2000/svg"
   xmlns:svg="http://www.w3.org/2000/svg">
  <defs
     id="defs2" />
  <sodipodi:namedview
     id="namedview2"
     pagecolor="#ffffff"
     bordercolor="#000000"
     borderopacity="0.25"
     inkscape:showpageshadow="2"
     inkscape:pageopacity="0.0"
     inkscape:pagecheckerboard="0"
     inkscape:deskcolor="#d1d1d1" />
  <path
     id="path1"
     style="baseline-shift:baseline;display:inline;overflow:visible;vector-effect:none;fill:#000000;stroke:none;stroke-linecap:butt;stroke-linejoin:miter;enable-background:accumulate;stop-color:#000000;stop-opacity:1;opacity:1"
     d="M 12 1.4375 C 11.081088 1.4375 10.270846 1.9276339 9.8183594 2.6601562 C 4.9469468 3.687561 1.4358182 7.9993882 1.4375 13 C 1.4375 13.807291 1.7609758 14.483498 2.2519531 14.919922 C 2.3919373 15.044352 2.543636 15.150729 2.703125 15.238281 C 3.8492833 20.078177 7.9433187 22.5625 12 22.5625 C 16.057649 22.5625 20.153803 20.076549 21.298828 15.234375 C 21.459536 15.146301 21.611171 15.039581 21.751953 14.914062 C 22.242276 14.476902 22.563711 13.799478 22.5625 12.992188 C 22.559843 7.9952403 19.051652 3.6889121 14.183594 2.6621094 C 13.731324 1.9285912 12.919665 1.4375 12 1.4375 z M 12 2.5625 C 12.800572 2.5625 13.4375 3.1994281 13.4375 4 C 13.4375 4.8005719 12.800572 5.4375 12 5.4375 C 11.199428 5.4375 10.5625 4.8005719 10.5625 4 C 10.5625 3.1994281 11.199428 2.5625 12 2.5625 z M 9.4394531 3.9140625 C 9.4384902 3.942728 9.4375 3.9711125 9.4375 4 C 9.4375 5.4085671 10.591433 6.5625 12 6.5625 C 13.408567 6.5625 14.5625 5.4085671 14.5625 4 C 14.5625 3.9709611 14.56152 3.9428771 14.560547 3.9140625 C 18.595857 5.0477168 21.43603 8.7336728 21.4375 12.994141 C 21.438289 13.520182 21.260631 13.843588 21.001953 14.074219 C 20.743276 14.30485 20.376953 14.433031 20.001953 14.433594 C 19.626953 14.434156 19.259368 14.307979 19 14.078125 C 18.740632 13.848271 18.563289 13.526041 18.5625 13 L 18.5625 12 C 18.5625 11.192709 18.239024 10.516502 17.748047 10.080078 C 17.25707 9.6436541 16.625 9.4375 16 9.4375 C 15.375 9.4375 14.74293 9.6436541 14.251953 10.080078 C 13.760976 10.516502 13.4375 11.192709 13.4375 12 L 13.4375 16 C 13.4375 16.526041 13.260976 16.849836 13.001953 17.080078 C 12.74293 17.31032 12.375 17.4375 12 17.4375 C 11.625 17.4375 11.25707 17.31032 10.998047 17.080078 C 10.739024 16.849836 10.5625 16.526041 10.5625 16 L 10.5625 12 C 10.5625 11.192709 10.239024 10.516502 9.7480469 10.080078 C 9.2570696 9.6436541 8.6249999 9.4375 8 9.4375 C 7.3750001 9.4375 6.7429304 9.6436541 6.2519531 10.080078 C 5.7609758 10.516502 5.4375 11.192709 5.4375 12 L 5.4375 13 C 5.4375 13.526041 5.2609758 13.849836 5.0019531 14.080078 C 4.7429304 14.31032 4.3750001 14.4375 4 14.4375 C 3.6249999 14.4375 3.2570696 14.31032 2.9980469 14.080078 C 2.7390242 13.849836 2.5625 13.526041 2.5625 13 C 2.5610664 8.7374216 5.4023449 5.0485808 9.4394531 3.9140625 z M 8 10.5625 C 8.3750001 10.5625 8.7429304 10.68968 9.0019531 10.919922 C 9.2609758 11.150164 9.4375 11.473959 9.4375 12 L 9.4375 16 C 9.4375 16.807291 9.7609759 17.483498 10.251953 17.919922 C 10.74293 18.356346 11.375 18.5625 12 18.5625 C 12.625 18.5625 13.25707 18.356346 13.748047 17.919922 C 14.239024 17.483498 14.5625 16.807291 14.5625 16 L 14.5625 12 C 14.5625 11.473959 14.739024 11.150164 14.998047 10.919922 C 15.25707 10.68968 15.625 10.5625 16 10.5625 C 16.375 10.5625 16.74293 10.68968 17.001953 10.919922 C 17.260976 11.150164 17.4375 11.473959 17.4375 12 L 17.4375 13 C 17.4387 13.807291 17.762274 14.484234 18.253906 14.919922 C 18.745538 15.355609 19.378906 15.559531 20.003906 15.558594 C 20.018396 15.558572 20.032379 15.558837 20.046875 15.558594 C 18.85025 19.517042 15.442762 21.4375 12 21.4375 C 8.5583763 21.4375 5.1508163 19.518291 3.953125 15.5625 C 3.9685273 15.562751 3.9846041 15.5625 4 15.5625 C 4.6249999 15.5625 5.2570696 15.356346 5.7480469 14.919922 C 6.2390242 14.483498 6.5625 13.807291 6.5625 13 L 6.5625 12 C 6.5625 11.473959 6.7390242 11.150164 6.9980469 10.919922 C 7.2570696 10.68968 7.6249999 10.5625 8 10.5625 z " />
</svg>
