<?xml version="1.0" encoding="UTF-8" standalone="no"?>
<svg
   width="24"
   height="24"
   viewBox="0 0 24 24"
   fill="none"
   stroke="currentColor"
   stroke-width="1.125"
   stroke-linecap="round"
   stroke-linejoin="round"
   version="1.1"
   id="svg8"
   sodipodi:docname=".tmp_drama.svg"
   xmlns:inkscape="http://www.inkscape.org/namespaces/inkscape"
   xmlns:sodipodi="http://sodipodi.sourceforge.net/DTD/sodipodi-0.dtd"
   xmlns="http://www.w3.org/2000/svg"
   xmlns:svg="http://www.w3.org/2000/svg">
  <defs
     id="defs8" />
  <sodipodi:namedview
     id="namedview8"
     pagecolor="#ffffff"
     bordercolor="#000000"
     borderopacity="0.25"
     inkscape:showpageshadow="2"
     inkscape:pageopacity="0.0"
     inkscape:pagecheckerboard="0"
     inkscape:deskcolor="#d1d1d1" />
  <path
     id="path1"
     style="baseline-shift:baseline;display:inline;overflow:visible;vector-effect:none;fill:#000000;stroke:none;stroke-linecap:butt;stroke-linejoin:miter;enable-background:accumulate;stop-color:#000000;stop-opacity:1;opacity:1"
     d="M 16 1.4375 C 13.953125 1.4375 12.382211 1.6790117 11.248047 2.2460938 C 10.113883 2.8131757 9.4375 3.8125 9.4375 5 C 9.4375 5.5614266 9.4532039 6.1011734 9.4824219 6.6191406 C 8.402313 6.8223269 7.2036039 7.3267226 5.7363281 8.1035156 A 0.56255625 0.56255625 0 0 0 5.7207031 8.1113281 C 3.9281258 9.1356605 2.6871796 10.141315 1.9921875 11.205078 C 1.2980822 12.267484 1.2186902 13.46759 1.8125 14.480469 L 1.8144531 14.480469 L 1.8144531 14.482422 L 1.8144531 14.484375 C 4.1056704 18.454313 6.5531941 20.644348 8.7011719 21.705078 C 10.846935 22.764714 12.678678 22.730441 13.779297 22.085938 C 14.868786 21.476755 15.79704 19.928268 15.943359 17.5625 C 15.96249 17.562889 15.981012 17.5625 16 17.5625 C 17.28125 17.5625 18.891945 16.677707 20.21875 14.6875 C 21.545555 12.697293 22.5625 9.5833333 22.5625 5 C 22.5625 3.8125 21.886117 2.8131757 20.751953 2.2460938 C 19.617789 1.6790116 18.046875 1.4375 16 1.4375 z M 16 2.5625 C 17.953125 2.5625 19.382211 2.8209882 20.248047 3.2539062 C 21.113883 3.6868242 21.4375 4.1875 21.4375 5 C 21.4375 9.4166667 20.454445 12.302707 19.28125 14.0625 C 18.108055 15.822293 16.71875 16.4375 16 16.4375 C 15.897452 16.4375 15.78157 16.425022 15.654297 16.398438 A 0.5625 0.5625 0 0 0 15.423828 16.337891 C 14.667602 16.103 13.628584 15.427252 12.71875 14.0625 C 11.754055 12.615457 10.917116 10.407773 10.650391 7.2128906 A 0.5625 0.5625 0 0 0 10.660156 7.0488281 A 0.5625 0.5625 0 0 0 10.626953 6.9042969 C 10.584552 6.3038213 10.5625 5.6693851 10.5625 5 C 10.5625 4.1875 10.886117 3.6868242 11.751953 3.2539062 C 12.617789 2.8209883 14.046875 2.5625 16 2.5625 z M 14 5.4375 A 0.5625 0.5625 0 0 0 13.4375 6 A 0.5625 0.5625 0 0 0 14 6.5625 L 14.009766 6.5625 A 0.5625 0.5625 0 0 0 14.572266 6 A 0.5625 0.5625 0 0 0 14.009766 5.4375 L 14 5.4375 z M 18 5.4375 A 0.5625 0.5625 0 0 0 17.4375 6 A 0.5625 0.5625 0 0 0 18 6.5625 L 18.009766 6.5625 A 0.5625 0.5625 0 0 0 18.572266 6 A 0.5625 0.5625 0 0 0 18.009766 5.4375 L 18 5.4375 z M 9.5703125 7.75 C 9.6699062 8.7287689 9.8233401 9.6232665 10.017578 10.4375 A 0.5625 0.5625 0 0 0 10.009766 10.4375 L 10 10.4375 A 0.5625 0.5625 0 0 0 9.4375 11 A 0.5625 0.5625 0 0 0 10 11.5625 L 10.009766 11.5625 A 0.5625 0.5625 0 0 0 10.300781 11.480469 C 10.682875 12.718554 11.169318 13.742529 11.708984 14.576172 A 0.5625 0.5625 0 0 0 11.662109 14.560547 C 10.355649 14.168609 8.9348169 14.964916 8.5566406 16.351562 A 0.5625 0.5625 0 0 0 8.9511719 17.042969 A 0.5625 0.5625 0 0 0 9.6425781 16.648438 C 9.8644019 15.835084 10.644351 15.43061 11.337891 15.638672 A 0.5625 0.5625 0 0 0 12.039062 15.261719 A 0.5625 0.5625 0 0 0 12.0625 15.087891 C 12.93858 16.268284 13.91372 16.999055 14.826172 17.337891 C 14.716407 19.524671 13.798754 20.789537 13.226562 21.107422 A 0.56255625 0.56255625 0 0 0 13.214844 21.115234 C 12.614949 21.468114 11.100453 21.634195 9.1992188 20.695312 C 7.2979888 19.756349 4.9951654 17.745266 2.7871094 13.917969 A 0.56255625 0.56255625 0 0 0 2.7851562 13.914062 C 2.3814414 13.227746 2.4035857 12.631549 2.9335938 11.820312 C 3.4620673 11.011423 4.5705105 10.06837 6.2695312 9.0957031 C 7.6223799 8.3799606 8.6953393 7.9381267 9.5703125 7.75 z M 14.601562 9.3378906 A 0.5625 0.5625 0 0 0 14.203125 9.5019531 A 0.5625 0.5625 0 0 0 14.203125 10.296875 C 15.201999 11.295749 16.798001 11.295749 17.796875 10.296875 A 0.5625 0.5625 0 0 0 17.796875 9.5019531 A 0.5625 0.5625 0 0 0 17.001953 9.5019531 C 16.400827 10.103079 15.599173 10.103079 14.998047 9.5019531 A 0.5625 0.5625 0 0 0 14.601562 9.3378906 z M 6.5 12.537109 A 0.5625 0.5625 0 0 0 5.9375 13.099609 A 0.5625 0.5625 0 0 0 6.5 13.662109 L 6.5097656 13.662109 A 0.5625 0.5625 0 0 0 7.0722656 13.099609 A 0.5625 0.5625 0 0 0 6.5097656 12.537109 L 6.5 12.537109 z " />
</svg>
