<?xml version="1.0" encoding="UTF-8" standalone="no"?>
<svg
   width="24"
   height="24"
   viewBox="0 0 24 24"
   fill="none"
   stroke="currentColor"
   stroke-width="1.125"
   stroke-linecap="round"
   stroke-linejoin="round"
   version="1.1"
   id="svg2"
   sodipodi:docname=".tmp_drumstick.svg"
   xmlns:inkscape="http://www.inkscape.org/namespaces/inkscape"
   xmlns:sodipodi="http://sodipodi.sourceforge.net/DTD/sodipodi-0.dtd"
   xmlns="http://www.w3.org/2000/svg"
   xmlns:svg="http://www.w3.org/2000/svg">
  <defs
     id="defs2" />
  <sodipodi:namedview
     id="namedview2"
     pagecolor="#ffffff"
     bordercolor="#000000"
     borderopacity="0.25"
     inkscape:showpageshadow="2"
     inkscape:pageopacity="0.0"
     inkscape:pagecheckerboard="0"
     inkscape:deskcolor="#d1d1d1" />
  <path
     id="path1"
     style="baseline-shift:baseline;display:inline;overflow:visible;vector-effect:none;fill:#000000;stroke:none;stroke-linecap:butt;stroke-linejoin:miter;enable-background:accumulate;stop-color:#000000;stop-opacity:1;opacity:1"
     d="M 16.394531 1.4277344 C 14.409314 1.5373648 12.247347 2.4714032 10.359375 4.359375 C 7.7550714 6.9636786 6.9703316 10.086072 7.6542969 12.550781 L 5.4941406 14.710938 C 4.8343527 14.519035 4.1631908 14.567368 3.6523438 14.908203 C 3.0200885 15.330042 2.5792019 16.002825 2.3203125 16.732422 C 2.0614231 17.462019 1.9801238 18.262272 2.2050781 18.988281 C 2.3997867 19.616677 2.9305686 20.120521 3.6386719 20.365234 C 3.8927314 21.065266 4.4005585 21.586011 5.0273438 21.777344 C 5.7507329 21.998165 6.5467513 21.918323 7.2714844 21.660156 C 7.9962175 21.40199 8.6631191 20.962416 9.0839844 20.333984 C 9.4247235 19.825196 9.4803758 19.157019 9.296875 18.498047 L 11.439453 16.355469 C 12.633082 16.682729 14.037739 16.658353 15.572266 16.166016 A 0.5625 0.5625 0 0 0 15.607422 16.099609 A 0.5625 0.5625 0 0 0 15.679688 16.119141 A 0.5625 0.5625 0 0 0 15.908203 15.509766 A 0.5625 0.5625 0 0 0 15.935547 15.458984 A 0.5625 0.5625 0 0 0 15.900391 15.441406 A 0.5625 0.5625 0 0 0 15.888672 15.351562 C 15.502191 14.67405 15.456606 13.928266 15.666016 13.158203 C 15.875425 12.388141 16.353425 11.611419 16.982422 10.982422 C 17.611419 10.353425 18.388141 9.8754253 19.158203 9.6660156 C 19.928266 9.456606 20.674052 9.5021912 21.351562 9.8886719 A 0.56255625 0.56255625 0 0 0 22.166016 9.5722656 C 23.337282 5.9216383 21.858859 3.0072356 19.302734 1.9160156 C 18.663703 1.6432106 17.966057 1.4784952 17.232422 1.4316406 C 16.957309 1.4140701 16.678134 1.4120729 16.394531 1.4277344 z M 16.449219 2.5527344 C 16.689625 2.5394401 16.925676 2.5400877 17.15625 2.5546875 C 17.771113 2.5936205 18.346119 2.7292737 18.861328 2.9492188 C 20.796491 3.7753485 21.911946 5.76385 21.1875 8.6855469 C 20.419689 8.4409223 19.622339 8.373661 18.863281 8.5800781 C 17.865767 8.8513407 16.940001 9.4349987 16.1875 10.1875 C 15.434999 10.940001 14.851341 11.865767 14.580078 12.863281 C 14.373661 13.622339 14.440922 14.419689 14.685547 15.1875 C 13.476687 15.487241 12.427805 15.472791 11.554688 15.214844 A 0.5625 0.5625 0 0 0 11.363281 15.152344 C 10.225826 14.758248 9.4082513 13.936588 8.9492188 12.861328 C 8.9043115 12.756135 8.8619891 12.649126 8.8242188 12.539062 C 8.8219781 12.532533 8.8205745 12.526077 8.8183594 12.519531 C 8.1263783 10.474733 8.6803407 7.628253 11.154297 5.1542969 C 12.870636 3.4379576 14.766374 2.6457946 16.449219 2.5527344 z M 8.1015625 13.693359 C 8.593502 14.632113 9.3475962 15.398578 10.300781 15.904297 L 8.3027344 17.902344 A 0.56255625 0.56255625 0 0 0 8.203125 18.564453 C 8.450746 19.030756 8.388338 19.348814 8.1484375 19.707031 C 7.9085365 20.065249 7.4327992 20.407866 6.8945312 20.599609 C 6.3562625 20.791353 5.7678138 20.827044 5.3554688 20.701172 C 4.9431237 20.575299 4.6947492 20.367446 4.5917969 19.849609 A 0.56255625 0.56255625 0 0 0 4.140625 19.40625 C 3.6148186 19.311438 3.4068771 19.066045 3.2792969 18.654297 C 3.1517166 18.242549 3.1881547 17.650499 3.3808594 17.107422 C 3.5735641 16.564345 3.9187675 16.082991 4.2773438 15.84375 C 4.6359202 15.604509 4.9500031 15.544921 5.4179688 15.802734 A 0.56255625 0.56255625 0 0 0 6.0878906 15.707031 L 8.1015625 13.693359 z " />
</svg>
