<?xml version="1.0" encoding="UTF-8" standalone="no"?>
<svg
   width="24"
   height="24"
   viewBox="0 0 24 24"
   fill="none"
   stroke="currentColor"
   stroke-width="1.125"
   stroke-linecap="round"
   stroke-linejoin="round"
   version="1.1"
   id="svg3"
   sodipodi:docname=".tmp_ellipsis.svg"
   xmlns:inkscape="http://www.inkscape.org/namespaces/inkscape"
   xmlns:sodipodi="http://sodipodi.sourceforge.net/DTD/sodipodi-0.dtd"
   xmlns="http://www.w3.org/2000/svg"
   xmlns:svg="http://www.w3.org/2000/svg">
  <defs
     id="defs3" />
  <sodipodi:namedview
     id="namedview3"
     pagecolor="#ffffff"
     bordercolor="#000000"
     borderopacity="0.25"
     inkscape:showpageshadow="2"
     inkscape:pageopacity="0.0"
     inkscape:pagecheckerboard="0"
     inkscape:deskcolor="#d1d1d1" />
  <path
     id="circle1"
     style="baseline-shift:baseline;display:inline;overflow:visible;vector-effect:none;fill:#000000;stroke:none;stroke-linecap:butt;stroke-linejoin:miter;enable-background:accumulate;stop-color:#000000;stop-opacity:1;opacity:1"
     d="M 5 10.4375 C 4.1437177 10.4375 3.4375 11.143718 3.4375 12 C 3.4375 12.856282 4.1437177 13.5625 5 13.5625 C 5.8562823 13.5625 6.5625 12.856282 6.5625 12 C 6.5625 11.143718 5.8562823 10.4375 5 10.4375 z M 12 10.4375 C 11.143718 10.4375 10.4375 11.143718 10.4375 12 C 10.4375 12.856282 11.143718 13.5625 12 13.5625 C 12.856282 13.5625 13.5625 12.856282 13.5625 12 C 13.5625 11.143718 12.856282 10.4375 12 10.4375 z M 19 10.4375 C 18.143718 10.4375 17.4375 11.143718 17.4375 12 C 17.4375 12.856282 18.143718 13.5625 19 13.5625 C 19.856282 13.5625 20.5625 12.856282 20.5625 12 C 20.5625 11.143718 19.856282 10.4375 19 10.4375 z M 5 11.5625 C 5.2482872 11.5625 5.4375 11.751713 5.4375 12 C 5.4375 12.248287 5.2482872 12.4375 5 12.4375 C 4.7517128 12.4375 4.5625 12.248287 4.5625 12 C 4.5625 11.751713 4.7517128 11.5625 5 11.5625 z M 12 11.5625 C 12.248287 11.5625 12.4375 11.751713 12.4375 12 C 12.4375 12.248287 12.248287 12.4375 12 12.4375 C 11.751713 12.4375 11.5625 12.248287 11.5625 12 C 11.5625 11.751713 11.751713 11.5625 12 11.5625 z M 19 11.5625 C 19.248287 11.5625 19.4375 11.751713 19.4375 12 C 19.4375 12.248287 19.248287 12.4375 19 12.4375 C 18.751713 12.4375 18.5625 12.248287 18.5625 12 C 18.5625 11.751713 18.751713 11.5625 19 11.5625 z " />
</svg>
