<?xml version="1.0" encoding="UTF-8" standalone="no"?>
<svg
   width="24"
   height="24"
   viewBox="0 0 24 24"
   fill="none"
   stroke="currentColor"
   stroke-width="1.125"
   stroke-linecap="round"
   stroke-linejoin="round"
   version="1.1"
   id="svg4"
   sodipodi:docname=".tmp_eye-off.svg"
   xmlns:inkscape="http://www.inkscape.org/namespaces/inkscape"
   xmlns:sodipodi="http://sodipodi.sourceforge.net/DTD/sodipodi-0.dtd"
   xmlns="http://www.w3.org/2000/svg"
   xmlns:svg="http://www.w3.org/2000/svg">
  <defs
     id="defs4" />
  <sodipodi:namedview
     id="namedview4"
     pagecolor="#ffffff"
     bordercolor="#000000"
     borderopacity="0.25"
     inkscape:showpageshadow="2"
     inkscape:pageopacity="0.0"
     inkscape:pagecheckerboard="0"
     inkscape:deskcolor="#d1d1d1" />
  <path
     id="path1"
     style="baseline-shift:baseline;display:inline;overflow:visible;vector-effect:none;fill:#000000;stroke:none;stroke-linecap:butt;stroke-linejoin:miter;enable-background:accumulate;stop-color:#000000;stop-opacity:1;opacity:1"
     d="M 2 1.4375 A 0.5625 0.5625 0 0 0 1.6015625 1.6015625 A 0.5625 0.5625 0 0 0 1.6015625 2.3984375 L 5.6152344 6.4121094 C 3.8015271 7.6521503 2.3824735 9.396906 1.5410156 11.4375 A 0.56255625 0.56255625 0 0 0 1.5351562 11.457031 C 1.4049824 11.807713 1.4049824 12.192287 1.5351562 12.542969 A 0.56255625 0.56255625 0 0 0 1.5410156 12.5625 C 4.1102547 18.793141 11.529433 21.382906 17.396484 18.193359 L 21.601562 22.398438 A 0.5625 0.5625 0 0 0 22.398438 22.398438 A 0.5625 0.5625 0 0 0 22.398438 21.601562 L 6.9003906 6.1054688 L 2.3984375 1.6015625 A 0.5625 0.5625 0 0 0 2 1.4375 z M 11.607422 4.4453125 C 11.295015 4.4563901 10.980714 4.480075 10.666016 4.5175781 A 0.5625 0.5625 0 0 0 10.173828 5.1425781 A 0.5625 0.5625 0 0 0 10.798828 5.6347656 C 15.333138 5.094404 19.664866 7.6350979 21.410156 11.853516 C 21.444116 11.949036 21.444576 12.051075 21.410156 12.146484 C 21.062614 12.985389 20.605483 13.774714 20.048828 14.492188 A 0.5625 0.5625 0 0 0 20.148438 15.28125 A 0.5625 0.5625 0 0 0 20.9375 15.181641 C 21.559232 14.38029 22.070295 13.498176 22.457031 12.560547 A 0.56255625 0.56255625 0 0 0 22.464844 12.542969 C 22.595018 12.192287 22.595018 11.80576 22.464844 11.455078 A 0.56255625 0.56255625 0 0 0 22.458984 11.4375 C 20.647785 7.0421959 16.293531 4.2791488 11.607422 4.4453125 z M 6.4257812 7.2226562 L 9.1113281 9.9082031 C 8.5686062 10.62799 8.3447692 11.434628 8.3945312 12.193359 C 8.4533143 13.089641 8.868391 13.907454 9.4804688 14.519531 C 10.092546 15.131609 10.910359 15.546685 11.806641 15.605469 C 12.565372 15.655228 13.37201 15.431393 14.091797 14.888672 L 16.5625 17.359375 C 11.319553 19.997709 4.8734978 17.660551 2.5898438 12.146484 C 2.5563157 12.052204 2.5567627 11.949856 2.5898438 11.855469 C 3.3754595 9.9578312 4.7124293 8.3431098 6.4257812 7.2226562 z M 9.9140625 10.710938 L 13.289062 14.085938 C 12.815323 14.409893 12.340768 14.514538 11.880859 14.484375 C 11.289967 14.445625 10.711736 14.160955 10.275391 13.724609 C 9.8390444 13.288264 9.5543792 12.710033 9.515625 12.119141 C 9.4854617 11.659232 9.5901075 11.184677 9.9140625 10.710938 z " />
</svg>
