<?xml version="1.0" encoding="UTF-8" standalone="no"?>
<svg
   width="24"
   height="24"
   viewBox="0 0 24 24"
   fill="none"
   stroke="currentColor"
   stroke-width="1.125"
   stroke-linecap="round"
   stroke-linejoin="round"
   version="1.1"
   id="svg3"
   sodipodi:docname=".tmp_feather.svg"
   xmlns:inkscape="http://www.inkscape.org/namespaces/inkscape"
   xmlns:sodipodi="http://sodipodi.sourceforge.net/DTD/sodipodi-0.dtd"
   xmlns="http://www.w3.org/2000/svg"
   xmlns:svg="http://www.w3.org/2000/svg">
  <defs
     id="defs3" />
  <sodipodi:namedview
     id="namedview3"
     pagecolor="#ffffff"
     bordercolor="#000000"
     borderopacity="0.25"
     inkscape:showpageshadow="2"
     inkscape:pageopacity="0.0"
     inkscape:pagecheckerboard="0"
     inkscape:deskcolor="#d1d1d1" />
  <path
     id="path1"
     style="baseline-shift:baseline;display:inline;overflow:visible;vector-effect:none;fill:#000000;stroke:none;stroke-linecap:butt;stroke-linejoin:miter;enable-background:accumulate;stop-color:#000000;stop-opacity:1;opacity:1"
     d="M 15.666016 1.328125 C 14.195824 1.3988293 12.676694 2.0264307 11.351562 3.3515625 L 5.1875 9.515625 C 4.7070575 9.9959224 4.4376451 10.648779 4.4375 11.328125 L 4.4375 18 C 4.4375 18.223829 4.4856896 18.437471 4.5722656 18.630859 L 1.6015625 21.601562 A 0.5625 0.5625 0 0 0 1.6015625 22.398438 A 0.5625 0.5625 0 0 0 2.3984375 22.398438 L 5.3691406 19.427734 C 5.5625296 19.514311 5.7761703 19.5625 6 19.5625 L 12.669922 19.5625 C 13.350522 19.562356 14.003871 19.290603 14.484375 18.808594 L 17.824219 15.460938 L 17.826172 15.458984 A 0.5625 0.5625 0 0 0 17.955078 15.328125 A 0.5625 0.5625 0 0 0 17.958984 15.324219 L 20.638672 12.638672 L 20.638672 12.636719 C 22.152176 11.122611 22.755726 9.355144 22.658203 7.6972656 C 22.560653 6.0389238 21.78831 4.5012008 20.638672 3.3515625 C 19.489034 2.2019242 17.951311 1.4295811 16.292969 1.3320312 C 16.085676 1.3198375 15.876043 1.3180244 15.666016 1.328125 z M 15.71875 2.4511719 C 15.889043 2.4436947 16.057996 2.4451624 16.226562 2.4550781 C 17.575095 2.5344041 18.868935 3.1755758 19.841797 4.1484375 C 20.814659 5.1212992 21.455831 6.4151393 21.535156 7.7636719 C 21.614486 9.1122044 21.157359 10.526234 19.841797 11.841797 A 0.56255625 0.56255625 0 0 0 19.841797 11.84375 L 17.255859 14.4375 L 10.359375 14.4375 L 16.398438 8.3984375 A 0.5625 0.5625 0 0 0 16.398438 7.6015625 A 0.5625 0.5625 0 0 0 15.601562 7.6015625 L 8.6015625 14.601562 L 5.5625 17.640625 L 5.5625 11.328125 C 5.5625815 10.946691 5.71462 10.582174 5.984375 10.3125 L 12.148438 4.1484375 C 13.299554 2.9973203 14.526699 2.5035122 15.71875 2.4511719 z M 9.234375 15.5625 L 16.132812 15.5625 L 13.6875 18.015625 C 13.417709 18.286261 13.052062 18.437419 12.669922 18.4375 L 6.359375 18.4375 L 9.234375 15.5625 z " />
</svg>
