<?xml version="1.0" encoding="UTF-8" standalone="no"?>
<svg
   width="24"
   height="24"
   viewBox="0 0 24 24"
   fill="none"
   stroke="currentColor"
   stroke-width="1.125"
   stroke-linecap="round"
   stroke-linejoin="round"
   version="1.1"
   id="svg2"
   sodipodi:docname=".tmp_file-lock.svg"
   xmlns:inkscape="http://www.inkscape.org/namespaces/inkscape"
   xmlns:sodipodi="http://sodipodi.sourceforge.net/DTD/sodipodi-0.dtd"
   xmlns="http://www.w3.org/2000/svg"
   xmlns:svg="http://www.w3.org/2000/svg">
  <defs
     id="defs2" />
  <sodipodi:namedview
     id="namedview2"
     pagecolor="#ffffff"
     bordercolor="#000000"
     borderopacity="0.25"
     inkscape:showpageshadow="2"
     inkscape:pageopacity="0.0"
     inkscape:pagecheckerboard="0"
     inkscape:deskcolor="#d1d1d1" />
  <path
     id="path1"
     style="baseline-shift:baseline;display:inline;overflow:visible;vector-effect:none;fill:#000000;stroke:none;stroke-linecap:butt;stroke-linejoin:miter;enable-background:accumulate;stop-color:#000000;stop-opacity:1;opacity:1"
     d="M 6 1.4375 C 4.5914329 1.4375 3.4375 2.5914329 3.4375 4 L 3.4375 20 C 3.4375 21.408567 4.5914329 22.5625 6 22.5625 L 18 22.5625 C 19.408567 22.5625 20.5625 21.408567 20.5625 20 L 20.5625 7 A 0.56255625 0.56255625 0 0 0 20.398438 6.6015625 L 15.398438 1.6015625 A 0.56255625 0.56255625 0 0 0 15 1.4375 L 6 1.4375 z M 6 2.5625 L 14.765625 2.5625 L 19.4375 7.2324219 L 19.4375 20 C 19.4375 20.800572 18.800572 21.4375 18 21.4375 L 6 21.4375 C 5.1994281 21.4375 4.5625 20.800572 4.5625 20 L 4.5625 4 C 4.5625 3.1994281 5.1994281 2.5625 6 2.5625 z M 12 7.4375 C 11.375 7.4375 10.74293 7.643654 10.251953 8.0800781 C 9.7609759 8.5165022 9.4375 9.1927086 9.4375 10 L 9.4375 11.4375 L 9 11.4375 C 8.1441047 11.4375 7.4375 12.144105 7.4375 13 L 7.4375 17 C 7.4375 17.855895 8.1441047 18.5625 9 18.5625 L 15 18.5625 C 15.855895 18.5625 16.5625 17.855895 16.5625 17 L 16.5625 13 C 16.5625 12.144105 15.855895 11.4375 15 11.4375 L 14.5625 11.4375 L 14.5625 10 C 14.5625 9.1927086 14.239024 8.5165022 13.748047 8.0800781 C 13.25707 7.643654 12.625 7.4375 12 7.4375 z M 12 8.5625 C 12.375 8.5625 12.74293 8.6896796 13.001953 8.9199219 C 13.260976 9.1501642 13.4375 9.4739587 13.4375 10 L 13.4375 11.4375 L 10.5625 11.4375 L 10.5625 10 C 10.5625 9.4739587 10.739024 9.1501642 10.998047 8.9199219 C 11.25707 8.6896796 11.625 8.5625 12 8.5625 z M 9 12.5625 L 10 12.5625 L 14 12.5625 L 15 12.5625 C 15.252105 12.5625 15.4375 12.747895 15.4375 13 L 15.4375 17 C 15.4375 17.252105 15.252105 17.4375 15 17.4375 L 9 17.4375 C 8.7478953 17.4375 8.5625 17.252105 8.5625 17 L 8.5625 13 C 8.5625 12.747895 8.7478953 12.5625 9 12.5625 z " />
</svg>
