<?xml version="1.0" encoding="UTF-8" standalone="no"?>
<svg
   width="24"
   height="24"
   viewBox="0 0 24 24"
   fill="none"
   stroke="currentColor"
   stroke-width="1.125"
   stroke-linecap="round"
   stroke-linejoin="round"
   version="1.1"
   id="svg9"
   sodipodi:docname=".tmp_fingerprint.svg"
   xmlns:inkscape="http://www.inkscape.org/namespaces/inkscape"
   xmlns:sodipodi="http://sodipodi.sourceforge.net/DTD/sodipodi-0.dtd"
   xmlns="http://www.w3.org/2000/svg"
   xmlns:svg="http://www.w3.org/2000/svg">
  <defs
     id="defs9" />
  <sodipodi:namedview
     id="namedview9"
     pagecolor="#ffffff"
     bordercolor="#000000"
     borderopacity="0.25"
     inkscape:showpageshadow="2"
     inkscape:pageopacity="0.0"
     inkscape:pagecheckerboard="0"
     inkscape:deskcolor="#d1d1d1" />
  <path
     id="path1"
     style="baseline-shift:baseline;display:inline;overflow:visible;vector-effect:none;fill:#000000;stroke:none;stroke-linecap:butt;stroke-linejoin:miter;enable-background:accumulate;stop-color:#000000;stop-opacity:1;opacity:1"
     d="M 11.755859 1.4277344 C 10.700265 1.4599218 9.6558526 1.6485701 8.6601562 1.9804688 C 4.6773708 3.308064 1.4375 6.9562465 1.4375 12 A 0.5625 0.5625 0 0 0 2 12.5625 A 0.5625 0.5625 0 0 0 2.5625 12 C 2.5625 7.4336309 5.4399287 4.2387738 9.015625 3.046875 C 12.591321 1.8549762 16.81096 2.6847954 19.550781 6.3378906 A 0.5625 0.5625 0 0 0 20.337891 6.4492188 A 0.5625 0.5625 0 0 0 20.449219 5.6621094 C 18.17953 2.6358573 14.922642 1.331172 11.755859 1.4277344 z M 12.09375 5.4335938 C 10.966593 5.4109029 9.807037 5.6841769 8.71875 6.3125 A 0.5625 0.5625 0 0 0 8.5136719 7.0820312 A 0.5625 0.5625 0 0 0 9.28125 7.2871094 C 12.931065 5.1798867 17.440203 7.7855573 17.4375 12 L 17.4375 14 A 0.5625 0.5625 0 0 0 18 14.5625 A 0.5625 0.5625 0 0 0 18.5625 14 L 18.5625 12 C 18.5649 8.2300635 15.475222 5.5016662 12.09375 5.4335938 z M 6.3105469 9.4375 A 0.5625 0.5625 0 0 0 5.8085938 9.8125 C 5.5613702 10.51527 5.4363948 11.255014 5.4375 12 C 5.4375 14.9375 4.9312213 17.928992 4.4667969 19.322266 A 0.5625 0.5625 0 0 0 4.8222656 20.033203 A 0.5625 0.5625 0 0 0 5.5332031 19.677734 C 6.0687787 18.071008 6.5625 15.0625 6.5625 12 C 6.5615843 11.38272 6.6662494 10.769801 6.8710938 10.1875 A 0.5625 0.5625 0 0 0 6.5273438 9.46875 A 0.5625 0.5625 0 0 0 6.3105469 9.4375 z M 12 9.4375 C 10.591433 9.4375 9.4375 10.591433 9.4375 12 C 9.4375 12.983235 9.340047 14.464296 9.1816406 15.939453 A 0.5625 0.5625 0 0 0 9.6796875 16.558594 A 0.5625 0.5625 0 0 0 10.298828 16.060547 C 10.460422 14.555704 10.5625 13.056765 10.5625 12 C 10.5625 11.199428 11.199428 10.5625 12 10.5625 A 0.5625 0.5625 0 0 0 12.5625 10 A 0.5625 0.5625 0 0 0 12 9.4375 z M 21.759766 9.4394531 A 0.5625 0.5625 0 0 0 21.6875 9.4492188 A 0.5625 0.5625 0 0 0 21.248047 10.111328 C 21.263867 10.189338 21.301026 10.531099 21.322266 10.957031 C 21.343506 11.382964 21.357068 11.918303 21.361328 12.496094 C 21.369828 13.651675 21.336498 14.98071 21.240234 15.943359 A 0.5625 0.5625 0 0 0 21.744141 16.560547 A 0.5625 0.5625 0 0 0 22.359375 16.056641 C 22.46311 15.01929 22.495054 13.6712 22.486328 12.488281 C 22.481928 11.896822 22.467613 11.34752 22.445312 10.900391 C 22.423022 10.453261 22.401242 10.133661 22.351562 9.8886719 A 0.5625 0.5625 0 0 0 21.759766 9.4394531 z M 14 12.556641 A 0.5625 0.5625 0 0 0 13.4375 13.119141 C 13.4375 15.499141 13.40168 19.483114 12.478516 21.791016 A 0.5625 0.5625 0 0 0 12.791016 22.521484 A 0.5625 0.5625 0 0 0 13.521484 22.208984 C 14.598324 19.516886 14.5625 15.499141 14.5625 13.119141 A 0.5625 0.5625 0 0 0 14 12.556641 z M 2 15.4375 A 0.5625 0.5625 0 0 0 1.4375 16 A 0.5625 0.5625 0 0 0 2 16.5625 L 2.0097656 16.5625 A 0.5625 0.5625 0 0 0 2.5722656 16 A 0.5625 0.5625 0 0 0 2.0097656 15.4375 L 2 15.4375 z M 17.769531 17.4375 A 0.5625 0.5625 0 0 0 17.230469 17.945312 C 17.167699 18.590993 16.854746 20.327835 16.738281 20.910156 A 0.5625 0.5625 0 0 0 17.179688 21.572266 A 0.5625 0.5625 0 0 0 17.841797 21.130859 C 17.965333 20.513181 18.272384 18.849007 18.349609 18.054688 A 0.5625 0.5625 0 0 0 17.84375 17.439453 A 0.5625 0.5625 0 0 0 17.769531 17.4375 z M 9.2441406 19.4375 A 0.5625 0.5625 0 0 0 8.6660156 19.902344 C 8.5574968 20.517284 8.3279744 21.155328 8.1132812 21.830078 A 0.5625 0.5625 0 0 0 8.4785156 22.535156 A 0.5625 0.5625 0 0 0 9.1855469 22.169922 C 9.3908538 21.524672 9.6419563 20.842716 9.7734375 20.097656 A 0.5625 0.5625 0 0 0 9.3183594 19.445312 A 0.5625 0.5625 0 0 0 9.2441406 19.4375 z " />
</svg>
