<?xml version="1.0" encoding="UTF-8" standalone="no"?>
<svg
   width="24"
   height="24"
   viewBox="0 0 24 24"
   fill="none"
   stroke="currentColor"
   stroke-width="1.125"
   stroke-linecap="round"
   stroke-linejoin="round"
   version="1.1"
   id="svg3"
   sodipodi:docname=".tmp_flashlight-off.svg"
   xmlns:inkscape="http://www.inkscape.org/namespaces/inkscape"
   xmlns:sodipodi="http://sodipodi.sourceforge.net/DTD/sodipodi-0.dtd"
   xmlns="http://www.w3.org/2000/svg"
   xmlns:svg="http://www.w3.org/2000/svg">
  <defs
     id="defs3" />
  <sodipodi:namedview
     id="namedview3"
     pagecolor="#ffffff"
     bordercolor="#000000"
     borderopacity="0.25"
     inkscape:showpageshadow="2"
     inkscape:pageopacity="0.0"
     inkscape:pagecheckerboard="0"
     inkscape:deskcolor="#d1d1d1" />
  <path
     id="path1"
     style="baseline-shift:baseline;display:inline;overflow:visible;vector-effect:none;fill:#000000;stroke:none;stroke-linecap:butt;stroke-linejoin:miter;enable-background:accumulate;stop-color:#000000;stop-opacity:1;opacity:1"
     d="M 2 1.4375 A 0.5625 0.5625 0 0 0 1.6015625 1.6015625 A 0.5625 0.5625 0 0 0 1.6015625 2.3984375 L 5.4472656 6.2441406 C 5.530419 7.286791 6.1367872 7.9336622 6.6015625 8.3984375 C 7.1015625 8.8984375 7.4375 9.1875 7.4375 10 L 7.4375 20 C 7.4375 21.408567 8.5914329 22.5625 10 22.5625 L 14 22.5625 C 15.408567 22.5625 16.5625 21.408567 16.5625 20 L 16.5625 17.359375 L 21.601562 22.398438 A 0.5625 0.5625 0 0 0 22.398438 22.398438 A 0.5625 0.5625 0 0 0 22.398438 21.601562 L 16.398438 15.601562 L 6.3984375 5.6015625 L 2.3984375 1.6015625 A 0.5625 0.5625 0 0 0 2 1.4375 z M 7 1.4375 A 0.5625 0.5625 0 0 0 6.4375 2 A 0.5625 0.5625 0 0 0 7 2.5625 L 17.4375 2.5625 L 17.4375 5.4375 L 11 5.4375 A 0.5625 0.5625 0 0 0 10.4375 6 A 0.5625 0.5625 0 0 0 11 6.5625 L 17.365234 6.5625 C 17.241321 6.9857131 16.965306 7.2378202 16.601562 7.6015625 C 16.101562 8.1015625 15.4375 8.8125 15.4375 10 L 15.4375 11 A 0.5625 0.5625 0 0 0 16 11.5625 A 0.5625 0.5625 0 0 0 16.5625 11 L 16.5625 10 C 16.5625 9.1875 16.898438 8.8984375 17.398438 8.3984375 C 17.886339 7.9105362 18.525754 7.2184436 18.556641 6.0820312 A 0.5625 0.5625 0 0 0 18.5625 6 L 18.5625 2 A 0.56255625 0.56255625 0 0 0 18 1.4375 L 7 1.4375 z M 8.4707031 9.2675781 L 15.4375 16.234375 L 15.4375 20 C 15.4375 20.800572 14.800572 21.4375 14 21.4375 L 10 21.4375 C 9.1994281 21.4375 8.5625 20.800572 8.5625 20 L 8.5625 10 C 8.5625 9.7329012 8.5284713 9.4894796 8.4707031 9.2675781 z " />
</svg>
