<?xml version="1.0" encoding="UTF-8" standalone="no"?>
<svg
   width="24"
   height="24"
   viewBox="0 0 24 24"
   fill="none"
   stroke="currentColor"
   stroke-width="1.125"
   stroke-linecap="round"
   stroke-linejoin="round"
   version="1.1"
   id="svg3"
   sodipodi:docname=".tmp_folder-output.svg"
   xmlns:inkscape="http://www.inkscape.org/namespaces/inkscape"
   xmlns:sodipodi="http://sodipodi.sourceforge.net/DTD/sodipodi-0.dtd"
   xmlns="http://www.w3.org/2000/svg"
   xmlns:svg="http://www.w3.org/2000/svg">
  <defs
     id="defs3" />
  <sodipodi:namedview
     id="namedview3"
     pagecolor="#ffffff"
     bordercolor="#000000"
     borderopacity="0.25"
     inkscape:showpageshadow="2"
     inkscape:pageopacity="0.0"
     inkscape:pagecheckerboard="0"
     inkscape:deskcolor="#d1d1d1" />
  <path
     id="path1"
     style="baseline-shift:baseline;display:inline;overflow:visible;vector-effect:none;fill:#000000;stroke:none;stroke-linecap:butt;stroke-linejoin:miter;enable-background:accumulate;stop-color:#000000;stop-opacity:1;opacity:1"
     d="M 4 2.4375 C 2.5914329 2.4375 1.4375 3.5914329 1.4375 5 L 1.4375 7.5 A 0.5625 0.5625 0 0 0 2 8.0625 A 0.5625 0.5625 0 0 0 2.5625 7.5 L 2.5625 5 C 2.5625 4.1994281 3.1994281 3.5625 4 3.5625 L 7.9003906 3.5625 A 0.56255625 0.56255625 0 0 0 7.90625 3.5625 C 8.3954723 3.5577 8.852032 3.800368 9.1210938 4.2089844 A 0.56255625 0.56255625 0 0 0 9.1230469 4.2148438 L 9.9296875 5.4101562 C 10.403278 6.1292953 11.209238 6.5623582 12.070312 6.5625 L 20 6.5625 C 20.800572 6.5625 21.4375 7.1994281 21.4375 8 L 21.4375 18 C 21.4375 18.800572 20.800572 19.4375 20 19.4375 L 4 19.4375 A 0.56255625 0.56255625 0 0 0 3.9824219 19.4375 C 3.3068419 19.45888 2.7135633 19.013917 2.5449219 18.359375 A 0.5625 0.5625 0 0 0 1.859375 17.955078 A 0.5625 0.5625 0 0 0 1.4550781 18.640625 C 1.7535009 19.798883 2.8220923 20.600326 4.0175781 20.5625 L 20 20.5625 C 21.408567 20.5625 22.5625 19.408567 22.5625 18 L 22.5625 8 C 22.5625 6.5914329 21.408567 5.4375 20 5.4375 L 12.070312 5.4375 C 11.586213 5.4374203 11.135395 5.1953173 10.869141 4.7910156 A 0.56255625 0.56255625 0 0 0 10.867188 4.7851562 L 10.060547 3.5898438 L 10.056641 3.5859375 C 9.5777121 2.8620447 8.7627483 2.4289879 7.8945312 2.4375 L 4 2.4375 z M 5 9.4355469 A 0.5625 0.5625 0 0 0 4.6015625 9.6015625 L 1.6015625 12.601562 A 0.56255625 0.56255625 0 0 0 1.4414062 12.925781 A 0.56255625 0.56255625 0 0 0 1.4414062 13.074219 A 0.56255625 0.56255625 0 0 0 1.6015625 13.398438 L 4.6015625 16.398438 A 0.5625 0.5625 0 0 0 5.3984375 16.398438 A 0.5625 0.5625 0 0 0 5.3984375 15.601562 L 3.359375 13.5625 L 12 13.5625 A 0.5625 0.5625 0 0 0 12.5625 13 A 0.5625 0.5625 0 0 0 12 12.4375 L 3.359375 12.4375 L 5.3984375 10.398438 A 0.5625 0.5625 0 0 0 5.3984375 9.6015625 A 0.5625 0.5625 0 0 0 5 9.4355469 z " />
</svg>
