<?xml version="1.0" encoding="UTF-8" standalone="no"?>
<svg
   width="24"
   height="24"
   viewBox="0 0 24 24"
   fill="none"
   stroke="currentColor"
   stroke-width="1.125"
   stroke-linecap="round"
   stroke-linejoin="round"
   version="1.1"
   id="svg1"
   sodipodi:docname=".tmp_funnel.svg"
   xmlns:inkscape="http://www.inkscape.org/namespaces/inkscape"
   xmlns:sodipodi="http://sodipodi.sourceforge.net/DTD/sodipodi-0.dtd"
   xmlns="http://www.w3.org/2000/svg"
   xmlns:svg="http://www.w3.org/2000/svg">
  <defs
     id="defs1" />
  <sodipodi:namedview
     id="namedview1"
     pagecolor="#ffffff"
     bordercolor="#000000"
     borderopacity="0.25"
     inkscape:showpageshadow="2"
     inkscape:pageopacity="0.0"
     inkscape:pagecheckerboard="0"
     inkscape:deskcolor="#d1d1d1" />
  <path
     id="path1"
     style="baseline-shift:baseline;display:inline;overflow:visible;vector-effect:none;fill:#000000;stroke:none;stroke-linecap:butt;stroke-linejoin:miter;enable-background:accumulate;stop-color:#000000;stop-opacity:1;opacity:1"
     d="M 3 2.4375 C 2.3446984 2.4377366 1.8037177 2.8443113 1.5722656 3.3652344 C 1.3408136 3.8861574 1.4007917 4.5604046 1.8398438 5.046875 L 9.0664062 13.037109 C 9.305521 13.301366 9.4373386 13.643619 9.4375 14 L 9.4375 20 C 9.4372246 20.591036 9.7720794 21.134244 10.300781 21.398438 L 12.300781 22.398438 C 13.318907 22.907197 14.56303 22.138163 14.5625 21 L 14.5625 14 C 14.562661 13.643619 14.694479 13.301366 14.933594 13.037109 L 22.158203 5.046875 C 22.596822 4.560888 22.656531 3.8879333 22.425781 3.3671875 C 22.195032 2.8464417 21.656604 2.4390441 21.001953 2.4375 A 0.56255625 0.56255625 0 0 0 21 2.4375 L 3 2.4375 z M 3 3.5625 L 20.998047 3.5625 C 21.208709 3.5629969 21.330574 3.6691153 21.398438 3.8222656 C 21.466297 3.9754159 21.463406 4.1365814 21.322266 4.2929688 L 14.099609 12.28125 C 13.673651 12.751995 13.437788 13.365145 13.4375 14 L 13.4375 21 C 13.437663 21.3488 13.1167 21.548492 12.804688 21.392578 L 10.804688 20.392578 C 10.655285 20.317922 10.562422 20.167016 10.5625 20 L 10.5625 14 C 10.562212 13.365145 10.326349 12.751995 9.9003906 12.28125 L 2.6757812 4.2929688 C 2.5344388 4.1363612 2.5315279 3.9754949 2.5996094 3.8222656 C 2.6676909 3.6690364 2.7890412 3.5625762 3 3.5625 z " />
</svg>
