<?xml version="1.0" encoding="UTF-8" standalone="no"?>
<svg
   width="24"
   height="24"
   viewBox="0 0 24 24"
   fill="none"
   stroke="currentColor"
   stroke-width="1.125"
   stroke-linecap="round"
   stroke-linejoin="round"
   version="1.1"
   id="svg2"
   sodipodi:docname=".tmp_gallery-vertical-end.svg"
   xmlns:inkscape="http://www.inkscape.org/namespaces/inkscape"
   xmlns:sodipodi="http://sodipodi.sourceforge.net/DTD/sodipodi-0.dtd"
   xmlns="http://www.w3.org/2000/svg"
   xmlns:svg="http://www.w3.org/2000/svg">
  <defs
     id="defs2" />
  <sodipodi:namedview
     id="namedview2"
     pagecolor="#ffffff"
     bordercolor="#000000"
     borderopacity="0.25"
     inkscape:showpageshadow="2"
     inkscape:pageopacity="0.0"
     inkscape:pagecheckerboard="0"
     inkscape:deskcolor="#d1d1d1" />
  <path
     id="path1"
     style="baseline-shift:baseline;display:inline;overflow:visible;vector-effect:none;fill:#000000;stroke:none;stroke-linecap:butt;stroke-linejoin:miter;enable-background:accumulate;stop-color:#000000;stop-opacity:1;opacity:1"
     d="M 7 1.4375 A 0.5625 0.5625 0 0 0 6.4375 2 A 0.5625 0.5625 0 0 0 7 2.5625 L 17 2.5625 A 0.5625 0.5625 0 0 0 17.5625 2 A 0.5625 0.5625 0 0 0 17 1.4375 L 7 1.4375 z M 5 5.4375 A 0.5625 0.5625 0 0 0 4.4375 6 A 0.5625 0.5625 0 0 0 5 6.5625 L 19 6.5625 A 0.5625 0.5625 0 0 0 19.5625 6 A 0.5625 0.5625 0 0 0 19 5.4375 L 5 5.4375 z M 5 9.4375 C 3.5901047 9.4375 2.4375 10.590105 2.4375 12 L 2.4375 20 C 2.4375 21.409895 3.5901047 22.5625 5 22.5625 L 19 22.5625 C 20.409895 22.5625 21.5625 21.409895 21.5625 20 L 21.5625 12 C 21.5625 10.590105 20.409895 9.4375 19 9.4375 L 5 9.4375 z M 5 10.5625 L 19 10.5625 C 19.806105 10.5625 20.4375 11.193895 20.4375 12 L 20.4375 20 C 20.4375 20.806105 19.806105 21.4375 19 21.4375 L 5 21.4375 C 4.1938953 21.4375 3.5625 20.806105 3.5625 20 L 3.5625 12 C 3.5625 11.193895 4.1938953 10.5625 5 10.5625 z " />
</svg>
