<?xml version="1.0" encoding="UTF-8" standalone="no"?>
<svg
   width="24"
   height="24"
   viewBox="0 0 24 24"
   fill="none"
   stroke="currentColor"
   stroke-width="1.125"
   stroke-linecap="round"
   stroke-linejoin="round"
   version="1.1"
   id="svg5"
   sodipodi:docname=".tmp_gavel.svg"
   xmlns:inkscape="http://www.inkscape.org/namespaces/inkscape"
   xmlns:sodipodi="http://sodipodi.sourceforge.net/DTD/sodipodi-0.dtd"
   xmlns="http://www.w3.org/2000/svg"
   xmlns:svg="http://www.w3.org/2000/svg">
  <defs
     id="defs5" />
  <sodipodi:namedview
     id="namedview5"
     pagecolor="#ffffff"
     bordercolor="#000000"
     borderopacity="0.25"
     inkscape:showpageshadow="2"
     inkscape:pageopacity="0.0"
     inkscape:pagecheckerboard="0"
     inkscape:deskcolor="#d1d1d1" />
  <path
     id="path1"
     style="baseline-shift:baseline;display:inline;overflow:visible;vector-effect:none;fill:#000000;stroke:none;stroke-linecap:butt;stroke-linejoin:miter;enable-background:accumulate;stop-color:#000000;stop-opacity:1;opacity:1"
     d="M 14 1.4355469 A 0.5625 0.5625 0 0 0 13.601562 1.6015625 L 13.103516 2.0996094 A 0.5625 0.5625 0 0 0 13.101562 2.1015625 A 0.5625 0.5625 0 0 0 13.099609 2.1035156 L 8.1035156 7.0996094 A 0.5625 0.5625 0 0 0 8.1015625 7.1015625 A 0.5625 0.5625 0 0 0 8.0996094 7.1035156 L 7.6015625 7.6015625 A 0.5625 0.5625 0 0 0 7.6015625 8.3984375 A 0.5625 0.5625 0 0 0 8.3984375 8.3984375 L 8.5 8.296875 L 10.203125 10 L 2.2207031 17.982422 C 1.621283 18.582042 1.3599089 19.321576 1.4003906 20.007812 C 1.4408726 20.694049 1.7571751 21.31397 2.2207031 21.777344 C 2.6842312 22.240717 3.3059377 22.557403 3.9921875 22.597656 C 4.6784373 22.637906 5.418158 22.376964 6.0175781 21.777344 L 14 13.796875 L 15.703125 15.5 L 15.601562 15.601562 A 0.5625 0.5625 0 0 0 15.601562 16.398438 A 0.5625 0.5625 0 0 0 16.398438 16.398438 L 16.896484 15.900391 A 0.5625 0.5625 0 0 0 16.898438 15.898438 A 0.5625 0.5625 0 0 0 16.900391 15.896484 L 21.896484 10.900391 A 0.5625 0.5625 0 0 0 21.898438 10.898438 A 0.5625 0.5625 0 0 0 21.900391 10.896484 L 22.398438 10.398438 A 0.5625 0.5625 0 0 0 22.398438 9.6015625 A 0.5625 0.5625 0 0 0 21.601562 9.6015625 L 21.5 9.703125 L 14.296875 2.5 L 14.398438 2.3984375 A 0.5625 0.5625 0 0 0 14.398438 1.6015625 A 0.5625 0.5625 0 0 0 14 1.4355469 z M 13.5 3.296875 L 20.703125 10.5 L 16.5 14.703125 L 14.400391 12.603516 A 0.5625 0.5625 0 0 0 14.398438 12.601562 A 0.5625 0.5625 0 0 0 14.396484 12.599609 L 11.427734 9.6308594 A 0.5625 0.5625 0 0 0 11.400391 9.6015625 L 11.371094 9.5742188 L 9.296875 7.5 L 13.5 3.296875 z M 11 10.796875 L 13.203125 13 L 5.2207031 20.982422 C 4.8201237 21.383135 4.4350312 21.49669 4.0585938 21.474609 C 3.6821563 21.452529 3.302347 21.269048 3.015625 20.982422 C 2.728903 20.695795 2.5456435 20.317836 2.5234375 19.941406 C 2.5012315 19.564976 2.6150456 19.178057 3.015625 18.777344 L 11 10.796875 z " />
</svg>
