<?xml version="1.0" encoding="UTF-8" standalone="no"?>
<svg
   width="24"
   height="24"
   viewBox="0 0 24 24"
   fill="none"
   stroke="currentColor"
   stroke-width="1.125"
   stroke-linecap="round"
   stroke-linejoin="round"
   version="1.1"
   id="svg3"
   sodipodi:docname=".tmp_graduation-cap.svg"
   xmlns:inkscape="http://www.inkscape.org/namespaces/inkscape"
   xmlns:sodipodi="http://sodipodi.sourceforge.net/DTD/sodipodi-0.dtd"
   xmlns="http://www.w3.org/2000/svg"
   xmlns:svg="http://www.w3.org/2000/svg">
  <defs
     id="defs3" />
  <sodipodi:namedview
     id="namedview3"
     pagecolor="#ffffff"
     bordercolor="#000000"
     borderopacity="0.25"
     inkscape:showpageshadow="2"
     inkscape:pageopacity="0.0"
     inkscape:pagecheckerboard="0"
     inkscape:deskcolor="#d1d1d1" />
  <path
     id="path1"
     style="baseline-shift:baseline;display:inline;overflow:visible;vector-effect:none;fill:#000000;stroke:none;stroke-linecap:butt;stroke-linejoin:miter;enable-background:accumulate;stop-color:#000000;stop-opacity:1;opacity:1"
     d="M 12 4.4375 C 11.637545 4.4375 11.275091 4.5139825 10.9375 4.6679688 L 2.375 8.5644531 C 1.7713583 8.8288286 1.4394531 9.4235263 1.4394531 9.9960938 C 1.4394531 10.568661 1.7713583 11.163359 2.375 11.427734 L 5.4375 12.824219 L 5.4375 16 C 5.4375 16.640625 5.6908284 17.225344 6.0917969 17.683594 C 6.4927653 18.141843 7.0309927 18.49012 7.6464844 18.763672 C 8.8774676 19.310775 10.4375 19.5625 12 19.5625 C 13.5625 19.5625 15.122532 19.310775 16.353516 18.763672 C 16.969007 18.49012 17.507235 18.141843 17.908203 17.683594 C 18.309172 17.225344 18.5625 16.640625 18.5625 16 L 18.5625 12.837891 L 21.4375 11.533203 L 21.4375 16 A 0.5625 0.5625 0 0 0 22 16.5625 A 0.5625 0.5625 0 0 0 22.5625 16 L 22.5625 10.222656 C 22.573669 10.145235 22.578924 10.067548 22.578125 9.9902344 C 22.572125 9.4142685 22.230112 8.8198436 21.617188 8.5644531 L 13.0625 4.6679688 C 12.724909 4.5139825 12.362455 4.4375 12 4.4375 z M 12 5.5625 C 12.203044 5.5625 12.406088 5.6049164 12.595703 5.6914062 A 0.56255625 0.56255625 0 0 0 12.597656 5.6914062 L 21.167969 9.5957031 A 0.56255625 0.56255625 0 0 0 21.185547 9.6035156 C 21.346762 9.6706903 21.422016 9.7805803 21.445312 9.9101562 A 0.5625 0.5625 0 0 0 21.4375 10 L 21.4375 10.138672 C 21.408152 10.250211 21.334771 10.345817 21.193359 10.408203 A 0.56255625 0.56255625 0 0 0 21.1875 10.410156 L 12.597656 14.308594 A 0.56255625 0.56255625 0 0 0 12.595703 14.308594 C 12.216472 14.481574 11.783528 14.481574 11.404297 14.308594 L 2.8339844 10.400391 A 0.56255625 0.56255625 0 0 0 2.8261719 10.396484 C 2.6313821 10.311167 2.5644531 10.164683 2.5644531 9.9960938 C 2.5644531 9.827504 2.6313841 9.6810136 2.8261719 9.5957031 A 0.56255625 0.56255625 0 0 0 2.8320312 9.5917969 L 11.402344 5.6914062 A 0.56255625 0.56255625 0 0 0 11.404297 5.6914062 C 11.593912 5.6049164 11.796956 5.5625 12 5.5625 z M 6.5625 13.337891 L 10.9375 15.332031 C 11.612681 15.640004 12.387319 15.640004 13.0625 15.332031 L 17.4375 13.347656 L 17.4375 16 C 17.4375 16.359375 17.315828 16.649656 17.060547 16.941406 C 16.805265 17.233156 16.405993 17.50988 15.896484 17.736328 C 14.877468 18.189224 13.4375 18.4375 12 18.4375 C 10.5625 18.4375 9.1225324 18.189224 8.1035156 17.736328 C 7.5940073 17.50988 7.1947347 17.233156 6.9394531 16.941406 C 6.6841716 16.649656 6.5625 16.359375 6.5625 16 L 6.5625 13.337891 z " />
</svg>
