<?xml version="1.0" encoding="UTF-8" standalone="no"?>
<svg
   width="24"
   height="24"
   viewBox="0 0 24 24"
   fill="none"
   stroke="currentColor"
   stroke-width="1.125"
   stroke-linecap="round"
   stroke-linejoin="round"
   version="1.1"
   id="svg4"
   sodipodi:docname=".tmp_ham.svg"
   xmlns:inkscape="http://www.inkscape.org/namespaces/inkscape"
   xmlns:sodipodi="http://sodipodi.sourceforge.net/DTD/sodipodi-0.dtd"
   xmlns="http://www.w3.org/2000/svg"
   xmlns:svg="http://www.w3.org/2000/svg">
  <defs
     id="defs4" />
  <sodipodi:namedview
     id="namedview4"
     pagecolor="#ffffff"
     bordercolor="#000000"
     borderopacity="0.25"
     inkscape:showpageshadow="2"
     inkscape:pageopacity="0.0"
     inkscape:pagecheckerboard="0"
     inkscape:deskcolor="#d1d1d1" />
  <path
     id="path1"
     style="baseline-shift:baseline;display:inline;overflow:visible;vector-effect:none;fill:#000000;stroke:none;stroke-linecap:butt;stroke-linejoin:miter;enable-background:accumulate;stop-color:#000000;stop-opacity:1;opacity:1"
     d="M 18.425781 1.8046875 C 17.952839 1.7974299 17.472489 1.889427 17.019531 2.0507812 C 16.294798 2.3089479 15.627897 2.7485215 15.207031 3.3769531 C 14.866941 3.8847722 14.812221 4.5512335 14.994141 5.2089844 L 13.419922 6.7832031 C 12.218589 6.3931221 10.865354 6.3391469 9.4863281 6.5859375 C 7.2129555 6.9927804 4.8483295 8.2315774 2.8066406 10.15625 C 2.6875105 10.249481 2.5701222 10.347847 2.4589844 10.458984 A 0.5625 0.5625 0 0 0 2.4101562 10.513672 C 1.2633394 11.704839 1.1287229 13.361798 1.609375 14.941406 C 2.0971808 16.544524 3.1765847 18.145335 4.515625 19.484375 C 5.8546653 20.823415 7.4554756 21.902819 9.0585938 22.390625 C 10.638202 22.871277 12.295161 22.73666 13.486328 21.589844 A 0.5625 0.5625 0 0 0 13.541016 21.541016 C 13.66076 21.421271 13.768155 21.295031 13.867188 21.166016 C 15.777368 19.130312 17.008986 16.77718 17.414062 14.513672 C 17.660867 13.134568 17.606938 11.779508 17.216797 10.578125 L 18.794922 9 C 19.455309 9.1937513 20.127045 9.1457283 20.638672 8.8046875 C 21.271746 8.3826916 21.713444 7.7090223 21.972656 6.9785156 C 22.231868 6.2480089 22.313382 5.4473514 22.087891 4.7207031 C 21.892632 4.0914807 21.358552 3.5870508 20.648438 3.34375 C 20.393931 2.6451184 19.887737 2.122739 19.261719 1.9316406 C 18.990448 1.8488325 18.709547 1.809042 18.425781 1.8046875 z M 18.212891 2.9394531 C 18.478341 2.9222964 18.727421 2.9448762 18.933594 3.0078125 C 19.345939 3.133685 19.596266 3.341538 19.699219 3.859375 A 0.56255625 0.56255625 0 0 0 20.152344 4.3046875 C 20.679574 4.3984395 20.885853 4.6427888 21.013672 5.0546875 C 21.141491 5.4665862 21.105142 6.0595222 20.912109 6.6035156 C 20.719079 7.1475091 20.372529 7.6299334 20.013672 7.8691406 C 19.654815 8.1083479 19.34145 8.16774 18.873047 7.9082031 A 0.56255625 0.56255625 0 0 0 18.203125 8.0019531 L 16.734375 9.4707031 C 16.479466 9.0149204 16.163688 8.5933765 15.785156 8.2148438 C 15.406721 7.8364083 14.984945 7.5204998 14.529297 7.265625 L 15.988281 5.8085938 A 0.56255625 0.56255625 0 0 0 16.085938 5.1464844 C 15.838312 4.6801818 15.900724 4.3601707 16.140625 4.0019531 C 16.380526 3.6437355 16.858217 3.3011185 17.396484 3.109375 C 17.665618 3.0135033 17.94744 2.9566099 18.212891 2.9394531 z M 10.664062 7.5742188 C 11.62307 7.5146619 12.518016 7.6341354 13.306641 7.9335938 A 0.5625 0.5625 0 0 0 13.416016 7.9765625 C 14.008576 8.2171214 14.538199 8.561636 14.988281 9.0117188 C 15.438364 9.461802 15.782878 9.9914233 16.023438 10.583984 A 0.5625 0.5625 0 0 0 16.066406 10.693359 C 16.465684 11.744859 16.544693 12.984255 16.306641 14.314453 C 16.068401 15.645696 15.507589 17.053167 14.642578 18.400391 C 14.61336 17.955037 14.526036 17.503606 14.390625 17.058594 C 13.902819 15.455476 12.823415 13.854665 11.484375 12.515625 C 10.145335 11.176585 8.5445243 10.097181 6.9414062 9.609375 C 6.496004 9.4738455 6.0453381 9.3881923 5.5996094 9.359375 C 6.9471603 8.4939709 8.3539485 7.9316622 9.6855469 7.6933594 C 10.018096 7.6338463 10.344393 7.594071 10.664062 7.5742188 z M 5.1835938 10.457031 C 5.6285977 10.451088 6.1071757 10.53095 6.6152344 10.685547 C 7.9700574 11.0978 9.4564935 12.077587 10.689453 13.310547 C 11.922413 14.543507 12.9022 16.029943 13.314453 17.384766 C 13.726706 18.739589 13.609329 19.882858 12.746094 20.746094 C 11.882858 21.609329 10.739589 21.726706 9.3847656 21.314453 C 8.0299426 20.9022 6.5435066 19.922413 5.3105469 18.689453 C 4.0775872 17.456493 3.0978001 15.970057 2.6855469 14.615234 C 2.2732937 13.260411 2.3906707 12.117142 3.2539062 11.253906 C 3.6855239 10.822288 4.1869768 10.577621 4.75 10.492188 C 4.8907558 10.47083 5.0352591 10.459012 5.1835938 10.457031 z M 7.5 14.935547 A 0.5625 0.5625 0 0 0 7.1015625 15.101562 A 0.5625 0.5625 0 0 0 7.1015625 15.898438 L 8.1015625 16.898438 A 0.5625 0.5625 0 0 0 8.8984375 16.898438 A 0.5625 0.5625 0 0 0 8.8984375 16.101562 L 7.8984375 15.101562 A 0.5625 0.5625 0 0 0 7.5 14.935547 z " />
</svg>
