<?xml version="1.0" encoding="UTF-8" standalone="no"?>
<svg
   width="24"
   height="24"
   viewBox="0 0 24 24"
   fill="none"
   stroke="currentColor"
   stroke-width="1.125"
   stroke-linecap="round"
   stroke-linejoin="round"
   version="1.1"
   id="svg4"
   sodipodi:docname=".tmp_hand.svg"
   xmlns:inkscape="http://www.inkscape.org/namespaces/inkscape"
   xmlns:sodipodi="http://sodipodi.sourceforge.net/DTD/sodipodi-0.dtd"
   xmlns="http://www.w3.org/2000/svg"
   xmlns:svg="http://www.w3.org/2000/svg">
  <defs
     id="defs4" />
  <sodipodi:namedview
     id="namedview4"
     pagecolor="#ffffff"
     bordercolor="#000000"
     borderopacity="0.25"
     inkscape:showpageshadow="2"
     inkscape:pageopacity="0.0"
     inkscape:pagecheckerboard="0"
     inkscape:deskcolor="#d1d1d1" />
  <path
     id="path1"
     style="baseline-shift:baseline;display:inline;overflow:visible;vector-effect:none;fill:#000000;stroke:none;stroke-linecap:butt;stroke-linejoin:miter;enable-background:accumulate;stop-color:#000000;stop-opacity:1;opacity:1"
     d="M 12 1.4375 C 10.630325 1.4375 9.5007501 2.5294309 9.4394531 3.8847656 C 9.0282495 3.6033606 8.5326654 3.4375 8 3.4375 C 6.5914329 3.4375 5.4375 4.5914329 5.4375 6 L 5.4375 12.671875 C 4.9048088 12.261737 4.2917378 12.09133 3.7226562 12.134766 C 3.087671 12.183236 2.5156438 12.476109 2.0859375 12.904297 C 1.6562312 13.332485 1.3612604 13.904253 1.3105469 14.539062 C 1.2598329 15.173872 1.4742863 15.863917 1.9921875 16.4375 A 0.56255625 0.56255625 0 0 0 2.0117188 16.457031 L 5.6113281 20.058594 A 0.56255625 0.56255625 0 0 0 5.6132812 20.058594 C 7.17776 21.61257 9.0848214 22.5625 12 22.5625 L 14 22.5625 C 18.722276 22.5625 22.5625 18.722276 22.5625 14 L 22.5625 8 C 22.5625 7.1927086 22.239024 6.5165022 21.748047 6.0800781 C 21.25707 5.643654 20.625 5.4375 20 5.4375 C 19.49836 5.4375 18.992735 5.5695757 18.558594 5.8476562 C 18.479365 4.5088375 17.357683 3.4375 16 3.4375 C 15.467335 3.4375 14.971751 3.6033606 14.560547 3.8847656 C 14.49925 2.5294309 13.369675 1.4375 12 1.4375 z M 12 2.5625 C 12.800572 2.5625 13.4375 3.1994281 13.4375 4 L 13.4375 10 A 0.5625 0.5625 0 0 0 14 10.5625 A 0.5625 0.5625 0 0 0 14.5625 10 L 14.5625 6 C 14.5625 5.1994281 15.199428 4.5625 16 4.5625 C 16.800572 4.5625 17.4375 5.1994281 17.4375 6 L 17.4375 8 L 17.4375 11 A 0.5625 0.5625 0 0 0 18 11.5625 A 0.5625 0.5625 0 0 0 18.5625 11 L 18.5625 8 C 18.5625 7.4739587 18.739024 7.1501642 18.998047 6.9199219 C 19.25707 6.6896796 19.625 6.5625 20 6.5625 C 20.375 6.5625 20.74293 6.6896796 21.001953 6.9199219 C 21.260976 7.1501642 21.4375 7.4739587 21.4375 8 L 21.4375 14 C 21.4375 18.11428 18.11428 21.4375 14 21.4375 L 12 21.4375 C 9.3159397 21.4375 7.8233707 20.666985 6.4082031 19.261719 L 6.40625 19.261719 L 2.828125 15.683594 L 2.8261719 15.679688 C 2.4965766 15.312754 2.4047868 14.965051 2.4316406 14.628906 C 2.4585986 14.291461 2.6232221 13.955953 2.8789062 13.701172 C 3.1345903 13.446391 3.4710548 13.281622 3.8085938 13.255859 C 4.1448303 13.230199 4.4916645 13.323409 4.8574219 13.654297 L 4.859375 13.654297 L 4.859375 13.65625 L 4.8613281 13.65625 L 5.5957031 14.392578 A 0.5625 0.5625 0 0 0 5.6074219 14.404297 L 6.6015625 15.398438 A 0.5625 0.5625 0 0 0 7.3984375 15.398438 A 0.5625 0.5625 0 0 0 7.3984375 14.601562 L 6.5625 13.765625 L 6.5625 6 C 6.5625 5.1994281 7.1994281 4.5625 8 4.5625 C 8.8005719 4.5625 9.4375 5.1994281 9.4375 6 L 9.4375 10.5 A 0.5625 0.5625 0 0 0 10 11.0625 A 0.5625 0.5625 0 0 0 10.5625 10.5 L 10.5625 6 L 10.5625 4 C 10.5625 3.1994281 11.199428 2.5625 12 2.5625 z " />
</svg>
