<?xml version="1.0" encoding="UTF-8" standalone="no"?>
<svg
   width="24"
   height="24"
   viewBox="0 0 24 24"
   fill="none"
   stroke="currentColor"
   stroke-width="1.125"
   stroke-linecap="round"
   stroke-linejoin="round"
   version="1.1"
   id="svg1"
   sodipodi:docname=".tmp_headphones.svg"
   xmlns:inkscape="http://www.inkscape.org/namespaces/inkscape"
   xmlns:sodipodi="http://sodipodi.sourceforge.net/DTD/sodipodi-0.dtd"
   xmlns="http://www.w3.org/2000/svg"
   xmlns:svg="http://www.w3.org/2000/svg">
  <defs
     id="defs1" />
  <sodipodi:namedview
     id="namedview1"
     pagecolor="#ffffff"
     bordercolor="#000000"
     borderopacity="0.25"
     inkscape:showpageshadow="2"
     inkscape:pageopacity="0.0"
     inkscape:pagecheckerboard="0"
     inkscape:deskcolor="#d1d1d1" />
  <path
     id="path1"
     style="baseline-shift:baseline;display:inline;overflow:visible;vector-effect:none;fill:#000000;stroke:none;stroke-linecap:butt;stroke-linejoin:miter;enable-background:accumulate;stop-color:#000000;stop-opacity:1;opacity:1"
     d="M 12 2.4375 C 6.7254403 2.4375 2.4375 6.7254365 2.4375 12 L 2.4375 14 L 2.4375 19 C 2.4375 20.408567 3.5914329 21.5625 5 21.5625 L 6 21.5625 C 7.4085671 21.5625 8.5625 20.408567 8.5625 19 L 8.5625 16 C 8.5625 14.591433 7.4085671 13.4375 6 13.4375 L 3.5625 13.4375 L 3.5625 12 C 3.5625 7.3334313 7.3334344 3.5625 12 3.5625 C 16.666566 3.5625 20.4375 7.3334313 20.4375 12 L 20.4375 13.4375 L 18 13.4375 C 16.591433 13.4375 15.4375 14.591433 15.4375 16 L 15.4375 19 C 15.4375 20.408567 16.591433 21.5625 18 21.5625 L 19 21.5625 C 20.408567 21.5625 21.5625 20.408567 21.5625 19 L 21.5625 14 L 21.5625 12 C 21.5625 6.7254365 17.27456 2.4375 12 2.4375 z M 3.5625 14.5625 L 6 14.5625 C 6.8005719 14.5625 7.4375 15.199428 7.4375 16 L 7.4375 19 C 7.4375 19.800572 6.8005719 20.4375 6 20.4375 L 5 20.4375 C 4.1994281 20.4375 3.5625 19.800572 3.5625 19 L 3.5625 14.5625 z M 18 14.5625 L 20.4375 14.5625 L 20.4375 19 C 20.4375 19.800572 19.800572 20.4375 19 20.4375 L 18 20.4375 C 17.199428 20.4375 16.5625 19.800572 16.5625 19 L 16.5625 16 C 16.5625 15.199428 17.199428 14.5625 18 14.5625 z " />
</svg>
