<?xml version="1.0" encoding="UTF-8" standalone="no"?>
<svg
   width="24"
   height="24"
   viewBox="0 0 24 24"
   fill="none"
   stroke="currentColor"
   stroke-width="1.125"
   stroke-linecap="round"
   stroke-linejoin="round"
   version="1.1"
   id="svg2"
   sodipodi:docname=".tmp_highlighter.svg"
   xmlns:inkscape="http://www.inkscape.org/namespaces/inkscape"
   xmlns:sodipodi="http://sodipodi.sourceforge.net/DTD/sodipodi-0.dtd"
   xmlns="http://www.w3.org/2000/svg"
   xmlns:svg="http://www.w3.org/2000/svg">
  <defs
     id="defs2" />
  <sodipodi:namedview
     id="namedview2"
     pagecolor="#ffffff"
     bordercolor="#000000"
     borderopacity="0.25"
     inkscape:showpageshadow="2"
     inkscape:pageopacity="0.0"
     inkscape:pagecheckerboard="0"
     inkscape:deskcolor="#d1d1d1" />
  <path
     id="path1"
     style="baseline-shift:baseline;display:inline;overflow:visible;vector-effect:none;fill:#000000;stroke:none;stroke-linecap:butt;stroke-linejoin:miter;enable-background:accumulate;stop-color:#000000;stop-opacity:1;opacity:1"
     d="M 14 3.4355469 A 0.5625 0.5625 0 0 0 13.601562 3.6015625 L 9.0019531 8.203125 A 0.56255625 0.56255625 0 0 0 8.9980469 8.2070312 C 8.3077421 8.9112829 8.1065954 9.9240036 8.3964844 10.806641 L 2.6015625 16.601562 A 0.56255625 0.56255625 0 0 0 2.4375 17 L 2.4375 20 A 0.56255625 0.56255625 0 0 0 3 20.5625 L 12 20.5625 A 0.56255625 0.56255625 0 0 0 12.398438 20.398438 L 15.193359 17.603516 C 16.075994 17.893399 17.08872 17.692255 17.792969 17.001953 A 0.56255625 0.56255625 0 0 0 17.796875 16.998047 L 22.398438 12.398438 A 0.5625 0.5625 0 0 0 22.398438 11.601562 A 0.5625 0.5625 0 0 0 21.601562 11.601562 L 17.005859 16.199219 C 16.442429 16.751491 15.557571 16.751491 14.994141 16.199219 L 9.8007812 11.005859 C 9.2485086 10.442429 9.2485086 9.5575714 9.8007812 8.9941406 L 14.398438 4.3984375 A 0.5625 0.5625 0 0 0 14.398438 3.6015625 A 0.5625 0.5625 0 0 0 14 3.4355469 z M 9 11.794922 A 0.56255625 0.56255625 0 0 0 9.0019531 11.796875 L 14.203125 16.998047 A 0.56255625 0.56255625 0 0 0 14.205078 17 L 11.767578 19.4375 L 3.5625 19.4375 L 3.5625 17.232422 L 9 11.794922 z " />
</svg>
