<?xml version="1.0" encoding="UTF-8" standalone="no"?>
<svg
   width="24"
   height="24"
   viewBox="0 0 24 24"
   fill="none"
   stroke="currentColor"
   stroke-width="1.125"
   stroke-linecap="round"
   stroke-linejoin="round"
   version="1.1"
   id="svg9"
   sodipodi:docname=".tmp_hotel.svg"
   xmlns:inkscape="http://www.inkscape.org/namespaces/inkscape"
   xmlns:sodipodi="http://sodipodi.sourceforge.net/DTD/sodipodi-0.dtd"
   xmlns="http://www.w3.org/2000/svg"
   xmlns:svg="http://www.w3.org/2000/svg">
  <defs
     id="defs9" />
  <sodipodi:namedview
     id="namedview9"
     pagecolor="#ffffff"
     bordercolor="#000000"
     borderopacity="0.25"
     inkscape:showpageshadow="2"
     inkscape:pageopacity="0.0"
     inkscape:pagecheckerboard="0"
     inkscape:deskcolor="#d1d1d1" />
  <path
     id="path1"
     style="baseline-shift:baseline;display:inline;overflow:visible;vector-effect:none;fill:#000000;stroke:none;stroke-linecap:butt;stroke-linejoin:miter;enable-background:accumulate;stop-color:#000000;stop-opacity:1;opacity:1"
     d="M 6 1.4375 C 4.5901047 1.4375 3.4375 2.5901047 3.4375 4 L 3.4375 20 C 3.4375 21.409895 4.5901047 22.5625 6 22.5625 L 10 22.5625 L 14 22.5625 L 18 22.5625 C 19.409895 22.5625 20.5625 21.409895 20.5625 20 L 20.5625 4 C 20.5625 2.5901047 19.409895 1.4375 18 1.4375 L 6 1.4375 z M 6 2.5625 L 18 2.5625 C 18.806105 2.5625 19.4375 3.1938953 19.4375 4 L 19.4375 20 C 19.4375 20.806105 18.806105 21.4375 18 21.4375 L 14.5625 21.4375 L 14.5625 16.376953 C 14.59595 16.400636 14.629157 16.424505 14.662109 16.449219 A 0.5625 0.5625 0 0 0 15.449219 16.337891 A 0.5625 0.5625 0 0 0 15.337891 15.550781 C 14.350002 14.809865 13.174806 14.439453 12 14.439453 C 10.825194 14.439453 9.6499983 14.809865 8.6621094 15.550781 A 0.5625 0.5625 0 0 0 8.5507812 16.337891 A 0.5625 0.5625 0 0 0 9.3378906 16.449219 C 9.3708428 16.424505 9.4040495 16.400636 9.4375 16.376953 L 9.4375 21.4375 L 6 21.4375 C 5.1938953 21.4375 4.5625 20.806105 4.5625 20 L 4.5625 4 C 4.5625 3.1938953 5.1938953 2.5625 6 2.5625 z M 8 6.4375 A 0.5625 0.5625 0 0 0 7.4375 7 A 0.5625 0.5625 0 0 0 8 7.5625 L 8.0097656 7.5625 A 0.5625 0.5625 0 0 0 8.5722656 7 A 0.5625 0.5625 0 0 0 8.0097656 6.4375 L 8 6.4375 z M 12 6.4375 A 0.5625 0.5625 0 0 0 11.4375 7 A 0.5625 0.5625 0 0 0 12 7.5625 L 12.009766 7.5625 A 0.5625 0.5625 0 0 0 12.572266 7 A 0.5625 0.5625 0 0 0 12.009766 6.4375 L 12 6.4375 z M 16 6.4375 A 0.5625 0.5625 0 0 0 15.4375 7 A 0.5625 0.5625 0 0 0 16 7.5625 L 16.009766 7.5625 A 0.5625 0.5625 0 0 0 16.572266 7 A 0.5625 0.5625 0 0 0 16.009766 6.4375 L 16 6.4375 z M 8 10.4375 A 0.5625 0.5625 0 0 0 7.4375 11 A 0.5625 0.5625 0 0 0 8 11.5625 L 8.0097656 11.5625 A 0.5625 0.5625 0 0 0 8.5722656 11 A 0.5625 0.5625 0 0 0 8.0097656 10.4375 L 8 10.4375 z M 12 10.4375 A 0.5625 0.5625 0 0 0 11.4375 11 A 0.5625 0.5625 0 0 0 12 11.5625 L 12.009766 11.5625 A 0.5625 0.5625 0 0 0 12.572266 11 A 0.5625 0.5625 0 0 0 12.009766 10.4375 L 12 10.4375 z M 16 10.4375 A 0.5625 0.5625 0 0 0 15.4375 11 A 0.5625 0.5625 0 0 0 16 11.5625 L 16.009766 11.5625 A 0.5625 0.5625 0 0 0 16.572266 11 A 0.5625 0.5625 0 0 0 16.009766 10.4375 L 16 10.4375 z M 12 15.560547 C 12.485987 15.560547 12.971973 15.641112 13.4375 15.800781 L 13.4375 21.4375 L 10.5625 21.4375 L 10.5625 15.800781 C 11.028027 15.641112 11.514013 15.560547 12 15.560547 z " />
</svg>
