<?xml version="1.0" encoding="UTF-8" standalone="no"?>
<svg
   width="24"
   height="24"
   viewBox="0 0 24 24"
   fill="none"
   stroke="currentColor"
   stroke-width="1.125"
   stroke-linecap="round"
   stroke-linejoin="round"
   version="1.1"
   id="svg3"
   sodipodi:docname=".tmp_id-card.svg"
   xmlns:inkscape="http://www.inkscape.org/namespaces/inkscape"
   xmlns:sodipodi="http://sodipodi.sourceforge.net/DTD/sodipodi-0.dtd"
   xmlns="http://www.w3.org/2000/svg"
   xmlns:svg="http://www.w3.org/2000/svg">
  <defs
     id="defs3" />
  <sodipodi:namedview
     id="namedview3"
     pagecolor="#ffffff"
     bordercolor="#000000"
     borderopacity="0.25"
     inkscape:showpageshadow="2"
     inkscape:pageopacity="0.0"
     inkscape:pagecheckerboard="0"
     inkscape:deskcolor="#d1d1d1" />
  <path
     id="path1"
     style="baseline-shift:baseline;display:inline;overflow:visible;vector-effect:none;fill:#000000;stroke:none;stroke-linecap:butt;stroke-linejoin:miter;enable-background:accumulate;stop-color:#000000;stop-opacity:1;opacity:1"
     d="M 4 4.4375 C 2.5901047 4.4375 1.4375 5.5901047 1.4375 7 L 1.4375 17 C 1.4375 18.409895 2.5901047 19.5625 4 19.5625 L 20 19.5625 C 21.409895 19.5625 22.5625 18.409895 22.5625 17 L 22.5625 7 C 22.5625 5.5901047 21.409895 4.4375 20 4.4375 L 4 4.4375 z M 4 5.5625 L 20 5.5625 C 20.806105 5.5625 21.4375 6.1938953 21.4375 7 L 21.4375 17 C 21.4375 17.806105 20.806105 18.4375 20 18.4375 L 4 18.4375 C 3.1938953 18.4375 2.5625 17.806105 2.5625 17 L 2.5625 7 C 2.5625 6.1938953 3.1938953 5.5625 4 5.5625 z M 9 8.4375 C 7.5914329 8.4375 6.4375 9.5914329 6.4375 11 C 6.4375 11.740569 6.7564202 12.409809 7.2636719 12.878906 C 6.549356 13.272109 5.9518264 13.922303 5.6386719 14.8125 A 0.5625 0.5625 0 0 0 5.9824219 15.53125 A 0.5625 0.5625 0 0 0 6.7011719 15.1875 C 7.0792294 14.112804 7.967245 13.595479 8.8984375 13.560547 C 8.9321374 13.56188 8.9659906 13.5625 9 13.5625 C 9.0340094 13.5625 9.0678626 13.56188 9.1015625 13.560547 C 10.032755 13.595479 10.920771 14.112804 11.298828 15.1875 A 0.5625 0.5625 0 0 0 12.017578 15.53125 A 0.5625 0.5625 0 0 0 12.361328 14.8125 C 12.048174 13.922303 11.450644 13.272109 10.736328 12.878906 C 11.24358 12.409809 11.5625 11.740569 11.5625 11 C 11.5625 9.5914329 10.408567 8.4375 9 8.4375 z M 16 9.4375 A 0.5625 0.5625 0 0 0 15.4375 10 A 0.5625 0.5625 0 0 0 16 10.5625 L 18 10.5625 A 0.5625 0.5625 0 0 0 18.5625 10 A 0.5625 0.5625 0 0 0 18 9.4375 L 16 9.4375 z M 9 9.5625 C 9.8005719 9.5625 10.4375 10.199428 10.4375 11 C 10.4375 11.770076 9.8472673 12.389532 9.0898438 12.435547 C 9.0595871 12.434774 9.0302391 12.433594 9 12.433594 C 8.9697609 12.433594 8.9404129 12.434774 8.9101562 12.435547 C 8.1527327 12.389532 7.5625 11.770076 7.5625 11 C 7.5625 10.199428 8.1994281 9.5625 9 9.5625 z M 16 13.4375 A 0.5625 0.5625 0 0 0 15.4375 14 A 0.5625 0.5625 0 0 0 16 14.5625 L 18 14.5625 A 0.5625 0.5625 0 0 0 18.5625 14 A 0.5625 0.5625 0 0 0 18 13.4375 L 16 13.4375 z " />
</svg>
