<?xml version="1.0" encoding="UTF-8" standalone="no"?>
<svg
   width="24"
   height="24"
   viewBox="0 0 24 24"
   fill="none"
   stroke="currentColor"
   stroke-width="1.125"
   stroke-linecap="round"
   stroke-linejoin="round"
   version="1.1"
   id="svg3"
   sodipodi:docname=".tmp_lamp-wall-down.svg"
   xmlns:inkscape="http://www.inkscape.org/namespaces/inkscape"
   xmlns:sodipodi="http://sodipodi.sourceforge.net/DTD/sodipodi-0.dtd"
   xmlns="http://www.w3.org/2000/svg"
   xmlns:svg="http://www.w3.org/2000/svg">
  <defs
     id="defs3" />
  <sodipodi:namedview
     id="namedview3"
     pagecolor="#ffffff"
     bordercolor="#000000"
     borderopacity="0.25"
     inkscape:showpageshadow="2"
     inkscape:pageopacity="0.0"
     inkscape:pagecheckerboard="0"
     inkscape:deskcolor="#d1d1d1" />
  <path
     id="path1"
     style="baseline-shift:baseline;display:inline;overflow:visible;vector-effect:none;fill:#000000;stroke:none;stroke-linecap:butt;stroke-linejoin:miter;enable-background:accumulate;stop-color:#000000;stop-opacity:1;opacity:1"
     d="M 5 2.4375 C 4.1437177 2.4375 3.4375 3.1437177 3.4375 4 L 3.4375 8 C 3.4375 8.8562823 4.1437177 9.5625 5 9.5625 L 6 9.5625 C 7.4085671 9.5625 8.5625 8.4085671 8.5625 7 L 8.5625 6.5625 L 12 6.5625 C 12.800572 6.5625 13.4375 7.1994281 13.4375 8 L 13.4375 12.4375 L 11 12.4375 C 10.362906 12.437903 9.78519 12.828295 9.5488281 13.419922 L 7.5488281 18.419922 C 7.146087 19.428004 7.9144451 20.561813 9 20.5625 L 19 20.5625 C 20.086175 20.562899 20.854143 19.428579 20.451172 18.419922 L 18.451172 13.419922 C 18.21481 12.828295 17.637094 12.437903 17 12.4375 L 14.5625 12.4375 L 14.5625 8 C 14.5625 6.5914329 13.408567 5.4375 12 5.4375 L 8.5625 5.4375 L 8.5625 5 C 8.5625 3.5914329 7.4085671 2.4375 6 2.4375 L 5 2.4375 z M 5 3.5625 L 6 3.5625 C 6.8005719 3.5625 7.4375 4.1994281 7.4375 5 L 7.4375 6 L 7.4375 7 C 7.4375 7.8005719 6.8005719 8.4375 6 8.4375 L 5 8.4375 C 4.7517128 8.4375 4.5625 8.2482872 4.5625 8 L 4.5625 4 C 4.5625 3.7517128 4.7517128 3.5625 5 3.5625 z M 11 13.5625 L 14 13.5625 L 17 13.5625 C 17.18056 13.562614 17.339262 13.670216 17.40625 13.837891 L 19.40625 18.837891 C 19.528201 19.143141 19.328709 19.437621 19 19.4375 L 9 19.4375 C 8.6715257 19.437292 8.4718859 19.142923 8.59375 18.837891 L 10.59375 13.837891 C 10.660738 13.670216 10.81944 13.562614 11 13.5625 z " />
</svg>
