<?xml version="1.0" encoding="UTF-8" standalone="no"?>
<svg
   width="24"
   height="24"
   viewBox="0 0 24 24"
   fill="none"
   stroke="currentColor"
   stroke-width="1.125"
   stroke-linecap="round"
   stroke-linejoin="round"
   version="1.1"
   id="svg3"
   sodipodi:docname=".tmp_lamp-ceiling.svg"
   xmlns:inkscape="http://www.inkscape.org/namespaces/inkscape"
   xmlns:sodipodi="http://sodipodi.sourceforge.net/DTD/sodipodi-0.dtd"
   xmlns="http://www.w3.org/2000/svg"
   xmlns:svg="http://www.w3.org/2000/svg">
  <defs
     id="defs3" />
  <sodipodi:namedview
     id="namedview3"
     pagecolor="#ffffff"
     bordercolor="#000000"
     borderopacity="0.25"
     inkscape:showpageshadow="2"
     inkscape:pageopacity="0.0"
     inkscape:pagecheckerboard="0"
     inkscape:deskcolor="#d1d1d1" />
  <path
     id="path1"
     style="baseline-shift:baseline;display:inline;overflow:visible;vector-effect:none;fill:#000000;stroke:none;stroke-linecap:butt;stroke-linejoin:miter;enable-background:accumulate;stop-color:#000000;stop-opacity:1;opacity:1"
     d="M 12 1.4375 A 0.5625 0.5625 0 0 0 11.4375 2 L 11.4375 6.4375 L 7 6.4375 C 6.3760407 6.4369451 5.8083398 6.8112778 5.5625 7.3847656 L 2.5625 14.384766 C 2.1283306 15.397581 2.8980486 16.56348 4 16.5625 L 8.4628906 16.5625 C 8.2122001 18.614779 9.8245616 20.558594 12 20.558594 C 14.175438 20.558594 15.7878 18.614779 15.537109 16.5625 L 20 16.5625 C 21.101951 16.56348 21.871669 15.397581 21.4375 14.384766 L 18.4375 7.3847656 C 18.19166 6.8112778 17.623959 6.4369451 17 6.4375 L 12.5625 6.4375 L 12.5625 2 A 0.5625 0.5625 0 0 0 12 1.4375 z M 7 7.5625 L 12 7.5625 L 17 7.5625 C 17.176679 7.5623429 17.332732 7.665737 17.402344 7.828125 L 20.402344 14.828125 C 20.534224 15.13577 20.33472 15.437798 20 15.4375 L 14.880859 15.4375 A 0.5625 0.5625 0 0 0 14.777344 15.4375 L 9.2226562 15.4375 A 0.5625 0.5625 0 0 0 9.1191406 15.4375 L 4 15.4375 C 3.6652799 15.437798 3.4657764 15.13577 3.5976562 14.828125 L 6.5976562 7.828125 C 6.6672679 7.665737 6.8233206 7.5623429 7 7.5625 z M 9.5996094 16.5625 L 14.400391 16.5625 C 14.678099 18.035788 13.565797 19.433594 12 19.433594 C 10.434203 19.433594 9.3219009 18.035788 9.5996094 16.5625 z " />
</svg>
