<?xml version="1.0" encoding="UTF-8" standalone="no"?>
<svg
   width="24"
   height="24"
   viewBox="0 0 24 24"
   fill="none"
   stroke="currentColor"
   stroke-width="1.125"
   stroke-linecap="round"
   stroke-linejoin="round"
   version="1.1"
   id="svg4"
   sodipodi:docname=".tmp_land-plot.svg"
   xmlns:inkscape="http://www.inkscape.org/namespaces/inkscape"
   xmlns:sodipodi="http://sodipodi.sourceforge.net/DTD/sodipodi-0.dtd"
   xmlns="http://www.w3.org/2000/svg"
   xmlns:svg="http://www.w3.org/2000/svg">
  <defs
     id="defs4" />
  <sodipodi:namedview
     id="namedview4"
     pagecolor="#ffffff"
     bordercolor="#000000"
     borderopacity="0.25"
     inkscape:showpageshadow="2"
     inkscape:pageopacity="0.0"
     inkscape:pagecheckerboard="0"
     inkscape:deskcolor="#d1d1d1" />
  <path
     id="path1"
     style="baseline-shift:baseline;display:inline;overflow:visible;vector-effect:none;fill:#000000;stroke:none;stroke-linecap:butt;stroke-linejoin:miter;enable-background:accumulate;stop-color:#000000;stop-opacity:1;opacity:1"
     d="M 11.955078 1.4375 A 0.56255625 0.56255625 0 0 0 11.4375 2 L 11.4375 12 A 0.5625 0.5625 0 0 0 12 12.5625 A 0.5625 0.5625 0 0 0 12.5625 12 L 12.5625 8.3476562 L 18.251953 5.5039062 A 0.56255625 0.56255625 0 0 0 18.251953 4.4960938 L 12.251953 1.4960938 A 0.56255625 0.56255625 0 0 0 11.955078 1.4375 z M 12.5625 2.9101562 L 16.740234 5 L 12.5625 7.0898438 L 12.5625 2.9101562 z M 8.0019531 11.427734 A 0.5625 0.5625 0 0 0 7.7207031 11.501953 L 6.2636719 12.333984 A 0.5625 0.5625 0 0 0 6.1679688 12.388672 L 2.2226562 14.640625 C 1.1918206 15.224826 1.1916199 16.77158 2.2207031 17.357422 L 2.2226562 17.357422 L 2.2226562 17.359375 L 10.71875 22.216797 C 11.510809 22.674093 12.489191 22.674093 13.28125 22.216797 L 21.777344 17.359375 L 21.779297 17.357422 C 22.808377 16.77158 22.808226 15.224826 21.777344 14.640625 L 17.873047 12.419922 L 17.871094 12.417969 A 0.5625 0.5625 0 0 0 17.695312 12.318359 L 16.277344 11.511719 A 0.5625 0.5625 0 0 0 15.511719 11.722656 A 0.5625 0.5625 0 0 0 15.722656 12.488281 L 16.367188 12.855469 L 12.001953 15.353516 L 7.6269531 12.851562 L 8.2792969 12.478516 A 0.5625 0.5625 0 0 0 8.4882812 11.710938 A 0.5625 0.5625 0 0 0 8.1484375 11.447266 A 0.5625 0.5625 0 0 0 8.0019531 11.427734 z M 6.4921875 13.498047 L 10.869141 16.001953 L 6.4941406 18.505859 L 2.7792969 16.380859 A 0.56255625 0.56255625 0 0 0 2.7773438 16.380859 C 2.4571957 16.199423 2.4571957 15.800577 2.7773438 15.619141 A 0.56255625 0.56255625 0 0 0 2.7792969 15.619141 L 6.4921875 13.498047 z M 17.501953 13.501953 L 21.222656 15.619141 C 21.542804 15.800577 21.542804 16.199423 21.222656 16.380859 A 0.56255625 0.56255625 0 0 0 21.220703 16.380859 L 17.509766 18.501953 L 13.134766 16.001953 L 17.501953 13.501953 z M 12.003906 16.648438 L 16.376953 19.150391 L 12.720703 21.242188 A 0.56255625 0.56255625 0 0 0 12.71875 21.242188 C 12.273205 21.499423 11.726795 21.499423 11.28125 21.242188 A 0.56255625 0.56255625 0 0 0 11.279297 21.242188 L 7.6269531 19.154297 L 12.003906 16.648438 z " />
</svg>
