<?xml version="1.0" encoding="UTF-8" standalone="no"?>
<svg
   width="24"
   height="24"
   viewBox="0 0 24 24"
   fill="none"
   stroke="currentColor"
   stroke-width="1.125"
   stroke-linecap="round"
   stroke-linejoin="round"
   version="1.1"
   id="svg6"
   sodipodi:docname=".tmp_languages.svg"
   xmlns:inkscape="http://www.inkscape.org/namespaces/inkscape"
   xmlns:sodipodi="http://sodipodi.sourceforge.net/DTD/sodipodi-0.dtd"
   xmlns="http://www.w3.org/2000/svg"
   xmlns:svg="http://www.w3.org/2000/svg">
  <defs
     id="defs6" />
  <sodipodi:namedview
     id="namedview6"
     pagecolor="#ffffff"
     bordercolor="#000000"
     borderopacity="0.25"
     inkscape:showpageshadow="2"
     inkscape:pageopacity="0.0"
     inkscape:pagecheckerboard="0"
     inkscape:deskcolor="#d1d1d1" />
  <path
     id="path1"
     style="baseline-shift:baseline;display:inline;overflow:visible;vector-effect:none;fill:#000000;stroke:none;stroke-linecap:butt;stroke-linejoin:miter;enable-background:accumulate;stop-color:#000000;stop-opacity:1;opacity:1"
     d="M 7 1.4375 A 0.5625 0.5625 0 0 0 6.4375 2 A 0.5625 0.5625 0 0 0 7 2.5625 L 8 2.5625 A 0.5625 0.5625 0 0 0 8.5625 2 A 0.5625 0.5625 0 0 0 8 1.4375 L 7 1.4375 z M 2 4.4375 A 0.5625 0.5625 0 0 0 1.4375 5 A 0.5625 0.5625 0 0 0 2 5.5625 L 10.949219 5.5625 L 9.5625 7.6425781 L 7.5 9.703125 L 5.3984375 7.6015625 A 0.5625 0.5625 0 0 0 4.6015625 7.6015625 A 0.5625 0.5625 0 0 0 4.6015625 8.3984375 L 6.703125 10.5 L 3.6015625 13.601562 A 0.5625 0.5625 0 0 0 3.6015625 14.398438 A 0.5625 0.5625 0 0 0 4.3984375 14.398438 L 7.5 11.296875 L 10.601562 14.398438 A 0.5625 0.5625 0 0 0 11.398438 14.398438 A 0.5625 0.5625 0 0 0 11.398438 13.601562 L 8.296875 10.5 L 10.398438 8.3984375 A 0.56255625 0.56255625 0 0 0 10.46875 8.3125 L 12.302734 5.5625 L 14 5.5625 A 0.5625 0.5625 0 0 0 14.5625 5 A 0.5625 0.5625 0 0 0 14 4.4375 L 2 4.4375 z M 17 11.4375 A 0.56255625 0.56255625 0 0 0 16.496094 11.748047 L 11.496094 21.748047 A 0.5625 0.5625 0 0 0 11.748047 22.503906 A 0.5625 0.5625 0 0 0 12.503906 22.251953 L 14.347656 18.5625 L 19.652344 18.5625 L 21.496094 22.251953 A 0.5625 0.5625 0 0 0 22.251953 22.503906 A 0.5625 0.5625 0 0 0 22.503906 21.748047 L 17.503906 11.748047 A 0.56255625 0.56255625 0 0 0 17 11.4375 z M 17 13.259766 L 19.089844 17.4375 L 14.910156 17.4375 L 17 13.259766 z " />
</svg>
