<?xml version="1.0" encoding="UTF-8" standalone="no"?>
<svg
   width="24"
   height="24"
   viewBox="0 0 24 24"
   fill="none"
   stroke="currentColor"
   stroke-width="1.125"
   stroke-linecap="round"
   stroke-linejoin="round"
   version="1.1"
   id="svg5"
   sodipodi:docname=".tmp_lasso-select.svg"
   xmlns:inkscape="http://www.inkscape.org/namespaces/inkscape"
   xmlns:sodipodi="http://sodipodi.sourceforge.net/DTD/sodipodi-0.dtd"
   xmlns="http://www.w3.org/2000/svg"
   xmlns:svg="http://www.w3.org/2000/svg">
  <defs
     id="defs5" />
  <sodipodi:namedview
     id="namedview5"
     pagecolor="#ffffff"
     bordercolor="#000000"
     borderopacity="0.25"
     inkscape:showpageshadow="2"
     inkscape:pageopacity="0.0"
     inkscape:pagecheckerboard="0"
     inkscape:deskcolor="#d1d1d1" />
  <path
     id="path1"
     style="baseline-shift:baseline;display:inline;overflow:visible;vector-effect:none;fill:#000000;stroke:none;stroke-linecap:butt;stroke-linejoin:miter;enable-background:accumulate;stop-color:#000000;stop-opacity:1;opacity:1"
     d="M 12 1.4375 C 6.2367935 1.4375 1.4375 5.1999095 1.4375 10 A 0.56255625 0.56255625 0 0 0 1.4375 10.003906 C 1.449776 11.564761 1.9582177 13.082672 2.8886719 14.335938 A 0.5625 0.5625 0 0 0 2.953125 14.408203 C 2.6039479 14.87328 2.4375 15.439355 2.4375 16 C 2.4375 16.625 2.643654 17.25707 3.0800781 17.748047 C 3.4153441 18.125221 3.891936 18.402958 4.4609375 18.511719 C 4.6047944 20.067825 5.3993588 21.502155 6.6621094 22.449219 A 0.5625 0.5625 0 0 0 7.4492188 22.337891 A 0.5625 0.5625 0 0 0 7.3378906 21.550781 C 6.3550719 20.813667 5.7288946 19.708001 5.5917969 18.501953 C 6.1378446 18.386518 6.5949267 18.113666 6.9199219 17.748047 C 6.9708091 17.690799 7.0178359 17.631162 7.0625 17.570312 C 7.9740177 17.953034 8.9229777 18.233533 9.8984375 18.394531 A 0.5625 0.5625 0 0 0 10.544922 17.931641 A 0.5625 0.5625 0 0 0 10.082031 17.285156 C 9.2019077 17.139893 8.343827 16.88582 7.5117188 16.537109 C 7.5464006 16.359703 7.5625 16.179762 7.5625 16 C 7.5625 15.375 7.356346 14.74293 6.9199219 14.251953 C 6.4834978 13.760976 5.8072914 13.4375 5 13.4375 C 4.5605162 13.4375 4.1606553 13.53265 3.8164062 13.699219 A 0.5625 0.5625 0 0 0 3.7910156 13.664062 C 3.0034318 12.603241 2.5737164 11.321113 2.5625 10 L 2.5625 9.9980469 L 2.5625 9.9960938 C 2.5651595 5.9578806 6.7248937 2.5625 12 2.5625 C 17.274891 2.5625 21.432548 5.9581043 21.435547 9.9960938 C 21.421017 10.619155 21.319949 11.237531 21.132812 11.832031 A 0.5625 0.5625 0 0 0 21.501953 12.537109 A 0.5625 0.5625 0 0 0 22.207031 12.167969 C 22.426877 11.469557 22.546325 10.743736 22.5625 10.011719 A 0.56255625 0.56255625 0 0 0 22.5625 10 C 22.5625 5.1999095 17.763207 1.4375 12 1.4375 z M 14.3125 10.777344 C 13.830537 10.791524 13.437291 11.197516 13.4375 11.679688 L 13.4375 21.679688 A 0.56255625 0.56255625 0 0 0 13.4375 21.699219 C 13.45089 22.078952 13.703659 22.41402 14.064453 22.533203 A 0.56255625 0.56255625 0 0 0 14.240234 22.5625 L 14.330078 22.5625 C 14.616801 22.5625 14.888513 22.426644 15.060547 22.197266 A 0.56255625 0.56255625 0 0 0 15.078125 22.171875 L 17.480469 18.572266 L 21.658203 18.572266 C 22.055579 18.580566 22.401502 18.304633 22.517578 17.978516 C 22.633654 17.652398 22.539799 17.221223 22.226562 16.976562 L 14.900391 10.988281 C 14.760105 10.871377 14.550703 10.777344 14.330078 10.777344 A 0.56255625 0.56255625 0 0 0 14.3125 10.777344 z M 14.5625 12.166016 L 21.023438 17.447266 L 17.179688 17.447266 A 0.56255625 0.56255625 0 0 0 16.712891 17.697266 L 14.5625 20.917969 L 14.5625 12.166016 z M 5 14.5625 C 5.5260413 14.5625 5.8498358 14.739024 6.0800781 14.998047 C 6.3103204 15.25707 6.4375 15.625 6.4375 16 C 6.4375 16.375 6.3103204 16.74293 6.0800781 17.001953 C 5.8498358 17.260976 5.5260413 17.4375 5 17.4375 C 4.4739587 17.4375 4.1501642 17.260976 3.9199219 17.001953 C 3.6896796 16.74293 3.5625 16.375 3.5625 16 C 3.5625 15.625 3.6896796 15.25707 3.9199219 14.998047 C 4.1501642 14.739024 4.4739587 14.5625 5 14.5625 z " />
</svg>
