<?xml version="1.0" encoding="UTF-8" standalone="no"?>
<svg
   width="24"
   height="24"
   viewBox="0 0 24 24"
   fill="none"
   stroke="currentColor"
   stroke-width="1.125"
   stroke-linecap="round"
   stroke-linejoin="round"
   version="1.1"
   id="svg4"
   sodipodi:docname=".tmp_layout-dashboard.svg"
   xmlns:inkscape="http://www.inkscape.org/namespaces/inkscape"
   xmlns:sodipodi="http://sodipodi.sourceforge.net/DTD/sodipodi-0.dtd"
   xmlns="http://www.w3.org/2000/svg"
   xmlns:svg="http://www.w3.org/2000/svg">
  <defs
     id="defs4" />
  <sodipodi:namedview
     id="namedview4"
     pagecolor="#ffffff"
     bordercolor="#000000"
     borderopacity="0.25"
     inkscape:showpageshadow="2"
     inkscape:pageopacity="0.0"
     inkscape:pagecheckerboard="0"
     inkscape:deskcolor="#d1d1d1" />
  <path
     id="rect1"
     style="baseline-shift:baseline;display:inline;overflow:visible;vector-effect:none;fill:#000000;stroke:none;stroke-linecap:butt;stroke-linejoin:miter;enable-background:accumulate;stop-color:#000000;stop-opacity:1;opacity:1"
     d="M 4 2.4375 C 3.1441047 2.4375 2.4375 3.1441047 2.4375 4 L 2.4375 11 C 2.4375 11.855895 3.1441047 12.5625 4 12.5625 L 9 12.5625 C 9.8558953 12.5625 10.5625 11.855895 10.5625 11 L 10.5625 4 C 10.5625 3.1441047 9.8558953 2.4375 9 2.4375 L 4 2.4375 z M 15 2.4375 C 14.144105 2.4375 13.4375 3.1441047 13.4375 4 L 13.4375 7 C 13.4375 7.8558953 14.144105 8.5625 15 8.5625 L 20 8.5625 C 20.855895 8.5625 21.5625 7.8558953 21.5625 7 L 21.5625 4 C 21.5625 3.1441047 20.855895 2.4375 20 2.4375 L 15 2.4375 z M 4 3.5625 L 9 3.5625 C 9.2521047 3.5625 9.4375 3.7478953 9.4375 4 L 9.4375 11 C 9.4375 11.252105 9.2521047 11.4375 9 11.4375 L 4 11.4375 C 3.7478953 11.4375 3.5625 11.252105 3.5625 11 L 3.5625 4 C 3.5625 3.7478953 3.7478953 3.5625 4 3.5625 z M 15 3.5625 L 20 3.5625 C 20.252105 3.5625 20.4375 3.7478953 20.4375 4 L 20.4375 7 C 20.4375 7.2521047 20.252105 7.4375 20 7.4375 L 15 7.4375 C 14.747895 7.4375 14.5625 7.2521047 14.5625 7 L 14.5625 4 C 14.5625 3.7478953 14.747895 3.5625 15 3.5625 z M 15 11.4375 C 14.144105 11.4375 13.4375 12.144105 13.4375 13 L 13.4375 20 C 13.4375 20.855895 14.144105 21.5625 15 21.5625 L 20 21.5625 C 20.855895 21.5625 21.5625 20.855895 21.5625 20 L 21.5625 13 C 21.5625 12.144105 20.855895 11.4375 20 11.4375 L 15 11.4375 z M 15 12.5625 L 20 12.5625 C 20.252105 12.5625 20.4375 12.747895 20.4375 13 L 20.4375 20 C 20.4375 20.252105 20.252105 20.4375 20 20.4375 L 15 20.4375 C 14.747895 20.4375 14.5625 20.252105 14.5625 20 L 14.5625 13 C 14.5625 12.747895 14.747895 12.5625 15 12.5625 z M 4 15.4375 C 3.1441047 15.4375 2.4375 16.144105 2.4375 17 L 2.4375 20 C 2.4375 20.855895 3.1441047 21.5625 4 21.5625 L 9 21.5625 C 9.8558953 21.5625 10.5625 20.855895 10.5625 20 L 10.5625 17 C 10.5625 16.144105 9.8558953 15.4375 9 15.4375 L 4 15.4375 z M 4 16.5625 L 9 16.5625 C 9.2521047 16.5625 9.4375 16.747895 9.4375 17 L 9.4375 20 C 9.4375 20.252105 9.2521047 20.4375 9 20.4375 L 4 20.4375 C 3.7478953 20.4375 3.5625 20.252105 3.5625 20 L 3.5625 17 C 3.5625 16.747895 3.7478953 16.5625 4 16.5625 z " />
</svg>
