<?xml version="1.0" encoding="UTF-8" standalone="no"?>
<svg
   width="24"
   height="24"
   viewBox="0 0 24 24"
   fill="none"
   stroke="currentColor"
   stroke-width="1.125"
   stroke-linecap="round"
   stroke-linejoin="round"
   version="1.1"
   id="svg2"
   sodipodi:docname=".tmp_message-circle-heart.svg"
   xmlns:inkscape="http://www.inkscape.org/namespaces/inkscape"
   xmlns:sodipodi="http://sodipodi.sourceforge.net/DTD/sodipodi-0.dtd"
   xmlns="http://www.w3.org/2000/svg"
   xmlns:svg="http://www.w3.org/2000/svg">
  <defs
     id="defs2" />
  <sodipodi:namedview
     id="namedview2"
     pagecolor="#ffffff"
     bordercolor="#000000"
     borderopacity="0.25"
     inkscape:showpageshadow="2"
     inkscape:pageopacity="0.0"
     inkscape:pagecheckerboard="0"
     inkscape:deskcolor="#d1d1d1" />
  <path
     id="path1"
     style="baseline-shift:baseline;display:inline;overflow:visible;vector-effect:none;fill:#000000;stroke:none;stroke-linecap:butt;stroke-linejoin:miter;enable-background:accumulate;stop-color:#000000;stop-opacity:1;opacity:1"
     d="M 12.503906 1.3808594 C 10.112089 1.2859704 7.7646034 2.0467953 5.859375 3.40625 C 2.0598162 6.1173832 -0.04588086 11.260993 2.4726562 16.541016 A 0.5625 0.5625 0 0 0 2.46875 16.548828 C 2.5734774 16.813009 2.596643 17.103107 2.5371094 17.380859 L 1.4863281 20.625 A 0.56255625 0.56255625 0 0 0 1.4707031 20.685547 C 1.2416184 21.799375 2.3012928 22.801446 3.4003906 22.509766 A 0.56255625 0.56255625 0 0 0 3.4140625 22.507812 L 6.7851562 21.521484 C 7.0383362 21.472348 7.3002829 21.48972 7.5429688 21.576172 C 12.865304 24.054663 17.999814 21.875589 20.669922 18.035156 C 23.342083 14.191772 23.595826 8.6134831 19.419922 4.4882812 C 17.33197 2.4256803 14.895724 1.4757484 12.503906 1.3808594 z M 12.431641 2.4785156 C 14.556401 2.5566326 16.728942 3.4102368 18.630859 5.2890625 C 22.434695 9.0467138 22.152056 13.932068 19.746094 17.392578 C 17.340131 20.853088 12.86125 22.817326 8.0078125 20.550781 A 0.56255625 0.56255625 0 0 0 7.96875 20.535156 C 7.5197456 20.364689 7.0316439 20.324525 6.5605469 20.417969 A 0.56255625 0.56255625 0 0 0 6.5117188 20.429688 L 3.1132812 21.423828 C 2.7784301 21.512691 2.5102146 21.252477 2.5761719 20.914062 L 3.6210938 17.681641 A 0.56255625 0.56255625 0 0 0 3.6347656 17.630859 C 3.7446536 17.131648 3.7039991 16.60995 3.515625 16.134766 A 0.5625 0.5625 0 0 0 3.5 16.126953 A 0.5625 0.5625 0 0 0 3.4980469 16.097656 C 1.1723822 11.27227 3.0828093 6.7703197 6.5136719 4.3222656 C 8.2291031 3.0982386 10.306881 2.4003984 12.431641 2.4785156 z M 10.005859 7.390625 C 9.9082748 7.3886933 9.8113119 7.3917367 9.7148438 7.4003906 C 8.8317083 7.4796144 8.0320001 7.9039833 7.4375 8.5175781 C 6.8429999 9.1311729 6.4438523 9.9448802 6.3925781 10.830078 C 6.3413041 11.715276 6.6609592 12.663041 7.421875 13.458984 L 10.867188 17.076172 C 11.477389 17.719379 12.521723 17.720443 13.132812 17.078125 L 16.580078 13.458984 L 16.578125 13.458984 C 17.214815 12.793318 17.569291 11.90739 17.566406 10.986328 C 17.56212 9.4688865 16.6437 8.2702467 15.451172 7.7402344 C 14.391151 7.269114 13.115326 7.4230874 12.044922 8.1503906 C 11.394134 7.6733214 10.688952 7.4041468 10.005859 7.390625 z M 10.037109 8.5117188 C 10.553485 8.5156382 11.088556 8.7022683 11.625 9.1835938 A 0.56255625 0.56255625 0 0 0 12.375 9.1816406 C 13.174238 8.4641927 14.168613 8.4026301 14.994141 8.7695312 C 15.819668 9.1364323 16.438373 9.9162216 16.441406 10.990234 C 16.443406 11.620757 16.201445 12.225984 15.765625 12.681641 A 0.56255625 0.56255625 0 0 0 15.763672 12.683594 L 12.318359 16.302734 C 12.140375 16.489829 11.86132 16.490074 11.683594 16.302734 A 0.56255625 0.56255625 0 0 0 11.681641 16.302734 L 8.2363281 12.681641 A 0.56255625 0.56255625 0 0 0 8.234375 12.681641 C 7.6651852 12.086252 7.4817534 11.479291 7.515625 10.894531 C 7.5494966 10.309771 7.8232362 9.7372204 8.2460938 9.3007812 C 8.6689512 8.864342 9.2330085 8.5738195 9.8164062 8.5214844 C 9.889331 8.5149425 9.9633414 8.5111588 10.037109 8.5117188 z " />
</svg>
