<?xml version="1.0" encoding="UTF-8" standalone="no"?>
<svg
   width="24"
   height="24"
   viewBox="0 0 24 24"
   fill="none"
   stroke="currentColor"
   stroke-width="1.125"
   stroke-linecap="round"
   stroke-linejoin="round"
   version="1.1"
   id="svg4"
   sodipodi:docname=".tmp_monitor-down.svg"
   xmlns:inkscape="http://www.inkscape.org/namespaces/inkscape"
   xmlns:sodipodi="http://sodipodi.sourceforge.net/DTD/sodipodi-0.dtd"
   xmlns="http://www.w3.org/2000/svg"
   xmlns:svg="http://www.w3.org/2000/svg">
  <defs
     id="defs4" />
  <sodipodi:namedview
     id="namedview4"
     pagecolor="#ffffff"
     bordercolor="#000000"
     borderopacity="0.25"
     inkscape:showpageshadow="2"
     inkscape:pageopacity="0.0"
     inkscape:pagecheckerboard="0"
     inkscape:deskcolor="#d1d1d1" />
  <path
     id="path1"
     style="baseline-shift:baseline;display:inline;overflow:visible;vector-effect:none;fill:#000000;stroke:none;stroke-linecap:butt;stroke-linejoin:miter;enable-background:accumulate;stop-color:#000000;stop-opacity:1;opacity:1"
     d="M 4 2.4375 C 2.5901047 2.4375 1.4375 3.5901047 1.4375 5 L 1.4375 15 C 1.4375 16.409895 2.5901047 17.5625 4 17.5625 L 11.4375 17.5625 L 11.4375 20.4375 L 8 20.4375 A 0.5625 0.5625 0 0 0 7.4375 21 A 0.5625 0.5625 0 0 0 8 21.5625 L 12 21.5625 L 16 21.5625 A 0.5625 0.5625 0 0 0 16.5625 21 A 0.5625 0.5625 0 0 0 16 20.4375 L 12.5625 20.4375 L 12.5625 17.5625 L 20 17.5625 C 21.409895 17.5625 22.5625 16.409895 22.5625 15 L 22.5625 5 C 22.5625 3.5901047 21.409895 2.4375 20 2.4375 L 4 2.4375 z M 4 3.5625 L 20 3.5625 C 20.806105 3.5625 21.4375 4.1938953 21.4375 5 L 21.4375 15 C 21.4375 15.806105 20.806105 16.4375 20 16.4375 L 4 16.4375 C 3.1938953 16.4375 2.5625 15.806105 2.5625 15 L 2.5625 5 C 2.5625 4.1938953 3.1938953 3.5625 4 3.5625 z M 12 6.4375 A 0.5625 0.5625 0 0 0 11.4375 7 L 11.4375 11.640625 L 9.3984375 9.6015625 A 0.5625 0.5625 0 0 0 8.6015625 9.6015625 A 0.5625 0.5625 0 0 0 8.6015625 10.398438 L 11.601562 13.398438 A 0.56255625 0.56255625 0 0 0 12.398438 13.398438 L 15.398438 10.398438 A 0.5625 0.5625 0 0 0 15.398438 9.6015625 A 0.5625 0.5625 0 0 0 14.601562 9.6015625 L 12.5625 11.640625 L 12.5625 7 A 0.5625 0.5625 0 0 0 12 6.4375 z " />
</svg>
