<?xml version="1.0" encoding="UTF-8" standalone="no"?>
<svg
   width="24"
   height="24"
   viewBox="0 0 24 24"
   fill="none"
   stroke="currentColor"
   stroke-width="1.125"
   stroke-linecap="round"
   stroke-linejoin="round"
   version="1.1"
   id="svg3"
   sodipodi:docname=".tmp_move-vertical.svg"
   xmlns:inkscape="http://www.inkscape.org/namespaces/inkscape"
   xmlns:sodipodi="http://sodipodi.sourceforge.net/DTD/sodipodi-0.dtd"
   xmlns="http://www.w3.org/2000/svg"
   xmlns:svg="http://www.w3.org/2000/svg">
  <defs
     id="defs3" />
  <sodipodi:namedview
     id="namedview3"
     pagecolor="#ffffff"
     bordercolor="#000000"
     borderopacity="0.25"
     inkscape:showpageshadow="2"
     inkscape:pageopacity="0.0"
     inkscape:pagecheckerboard="0"
     inkscape:deskcolor="#d1d1d1" />
  <path
     id="path1"
     style="baseline-shift:baseline;display:inline;overflow:visible;vector-effect:none;fill:#000000;stroke:none;stroke-linecap:butt;stroke-linejoin:miter;enable-background:accumulate;stop-color:#000000;stop-opacity:1;opacity:1"
     d="M 12 1.4355469 A 0.56255625 0.56255625 0 0 0 11.925781 1.4414062 A 0.56255625 0.56255625 0 0 0 11.601562 1.6015625 L 7.6015625 5.6015625 A 0.5625 0.5625 0 0 0 7.6015625 6.3984375 A 0.5625 0.5625 0 0 0 8.3984375 6.3984375 L 11.4375 3.359375 L 11.4375 20.640625 L 8.3984375 17.601562 A 0.5625 0.5625 0 0 0 7.6015625 17.601562 A 0.5625 0.5625 0 0 0 7.6015625 18.398438 L 11.601562 22.398438 A 0.56255625 0.56255625 0 0 0 12.398438 22.398438 L 16.398438 18.398438 A 0.5625 0.5625 0 0 0 16.398438 17.601562 A 0.5625 0.5625 0 0 0 15.601562 17.601562 L 12.5625 20.640625 L 12.5625 3.359375 L 15.601562 6.3984375 A 0.5625 0.5625 0 0 0 16.398438 6.3984375 A 0.5625 0.5625 0 0 0 16.398438 5.6015625 L 12.398438 1.6015625 A 0.56255625 0.56255625 0 0 0 12.074219 1.4414062 A 0.56255625 0.56255625 0 0 0 12 1.4355469 z " />
</svg>
