<?xml version="1.0" encoding="UTF-8" standalone="no"?>
<svg
   width="24"
   height="24"
   viewBox="0 0 24 24"
   fill="none"
   stroke="currentColor"
   stroke-width="1.125"
   stroke-linecap="round"
   stroke-linejoin="round"
   version="1.1"
   id="svg4"
   sodipodi:docname=".tmp_network.svg"
   xmlns:inkscape="http://www.inkscape.org/namespaces/inkscape"
   xmlns:sodipodi="http://sodipodi.sourceforge.net/DTD/sodipodi-0.dtd"
   xmlns="http://www.w3.org/2000/svg"
   xmlns:svg="http://www.w3.org/2000/svg">
  <defs
     id="defs4" />
  <sodipodi:namedview
     id="namedview4"
     pagecolor="#ffffff"
     bordercolor="#000000"
     borderopacity="0.25"
     inkscape:showpageshadow="2"
     inkscape:pageopacity="0.0"
     inkscape:pagecheckerboard="0"
     inkscape:deskcolor="#d1d1d1" />
  <path
     id="rect1"
     style="baseline-shift:baseline;display:inline;overflow:visible;vector-effect:none;fill:#000000;stroke:none;stroke-linecap:butt;stroke-linejoin:miter;enable-background:accumulate;stop-color:#000000;stop-opacity:1;opacity:1"
     d="M 10 1.4375 C 9.1441047 1.4375 8.4375 2.1441047 8.4375 3 L 8.4375 7 C 8.4375 7.8558953 9.1441047 8.5625 10 8.5625 L 11.4375 8.5625 L 11.4375 11.4375 L 6 11.4375 C 5.1437177 11.4375 4.4375 12.143718 4.4375 13 L 4.4375 15.4375 L 3 15.4375 C 2.1441047 15.4375 1.4375 16.144105 1.4375 17 L 1.4375 21 C 1.4375 21.855895 2.1441047 22.5625 3 22.5625 L 7 22.5625 C 7.8558953 22.5625 8.5625 21.855895 8.5625 21 L 8.5625 17 C 8.5625 16.144105 7.8558953 15.4375 7 15.4375 L 5.5625 15.4375 L 5.5625 13 C 5.5625 12.751713 5.7517128 12.5625 6 12.5625 L 12 12.5625 L 18 12.5625 C 18.248287 12.5625 18.4375 12.751713 18.4375 13 L 18.4375 15.4375 L 17 15.4375 C 16.144105 15.4375 15.4375 16.144105 15.4375 17 L 15.4375 21 C 15.4375 21.855895 16.144105 22.5625 17 22.5625 L 21 22.5625 C 21.855895 22.5625 22.5625 21.855895 22.5625 21 L 22.5625 17 C 22.5625 16.144105 21.855895 15.4375 21 15.4375 L 19.5625 15.4375 L 19.5625 13 C 19.5625 12.143718 18.856282 11.4375 18 11.4375 L 12.5625 11.4375 L 12.5625 8.5625 L 14 8.5625 C 14.855895 8.5625 15.5625 7.8558953 15.5625 7 L 15.5625 3 C 15.5625 2.1441047 14.855895 1.4375 14 1.4375 L 10 1.4375 z M 10 2.5625 L 14 2.5625 C 14.252105 2.5625 14.4375 2.7478953 14.4375 3 L 14.4375 7 C 14.4375 7.2521047 14.252105 7.4375 14 7.4375 L 12 7.4375 L 10 7.4375 C 9.7478953 7.4375 9.5625 7.2521047 9.5625 7 L 9.5625 3 C 9.5625 2.7478953 9.7478953 2.5625 10 2.5625 z M 3 16.5625 L 7 16.5625 C 7.2521047 16.5625 7.4375 16.747895 7.4375 17 L 7.4375 21 C 7.4375 21.252105 7.2521047 21.4375 7 21.4375 L 3 21.4375 C 2.7478953 21.4375 2.5625 21.252105 2.5625 21 L 2.5625 17 C 2.5625 16.747895 2.7478953 16.5625 3 16.5625 z M 17 16.5625 L 21 16.5625 C 21.252105 16.5625 21.4375 16.747895 21.4375 17 L 21.4375 21 C 21.4375 21.252105 21.252105 21.4375 21 21.4375 L 17 21.4375 C 16.747895 21.4375 16.5625 21.252105 16.5625 21 L 16.5625 17 C 16.5625 16.747895 16.747895 16.5625 17 16.5625 z " />
</svg>
