<?xml version="1.0" encoding="UTF-8" standalone="no"?>
<svg
   width="24"
   height="24"
   viewBox="0 0 24 24"
   fill="none"
   stroke="currentColor"
   stroke-width="1.125"
   stroke-linecap="round"
   stroke-linejoin="round"
   version="1.1"
   id="svg4"
   sodipodi:docname=".tmp_package-open.svg"
   xmlns:inkscape="http://www.inkscape.org/namespaces/inkscape"
   xmlns:sodipodi="http://sodipodi.sourceforge.net/DTD/sodipodi-0.dtd"
   xmlns="http://www.w3.org/2000/svg"
   xmlns:svg="http://www.w3.org/2000/svg">
  <defs
     id="defs4" />
  <sodipodi:namedview
     id="namedview4"
     pagecolor="#ffffff"
     bordercolor="#000000"
     borderopacity="0.25"
     inkscape:showpageshadow="2"
     inkscape:pageopacity="0.0"
     inkscape:pagecheckerboard="0"
     inkscape:deskcolor="#d1d1d1" />
  <path
     id="path1"
     style="baseline-shift:baseline;display:inline;overflow:visible;vector-effect:none;fill:#000000;stroke:none;stroke-linecap:butt;stroke-linejoin:miter;enable-background:accumulate;stop-color:#000000;stop-opacity:1;opacity:1"
     d="M 8.015625 1.421875 C 7.6389367 1.421875 7.2615991 1.518299 6.9238281 1.7109375 L 2.7226562 4.0800781 C 1.0597081 5.0204357 1.0597081 7.4795643 2.7226562 8.4199219 A 0.56255625 0.56255625 0 0 0 2.7246094 8.4199219 L 2.8671875 8.5 L 2.7246094 8.5800781 A 0.56255625 0.56255625 0 0 0 2.7226562 8.5800781 C 1.0597081 9.5204357 1.0597081 11.979564 2.7226562 12.919922 L 3.4375 13.324219 L 3.4375 16.869141 C 3.43649 17.847556 3.9834001 18.748008 4.8515625 19.199219 A 0.56255625 0.56255625 0 0 0 4.8535156 19.201172 L 10.851562 22.279297 C 11.193173 22.45683 11.565456 22.549525 11.939453 22.558594 A 0.5625 0.5625 0 0 0 12 22.5625 A 0.5625 0.5625 0 0 0 12.060547 22.558594 C 12.434541 22.549524 12.806829 22.456829 13.148438 22.279297 L 19.146484 19.201172 A 0.56255625 0.56255625 0 0 0 19.148438 19.199219 C 20.016557 18.748008 20.563513 17.847556 20.5625 16.869141 L 20.5625 13.322266 L 21.275391 12.919922 A 0.56255625 0.56255625 0 0 0 21.277344 12.919922 C 22.940292 11.979564 22.940292 9.5204357 21.277344 8.5800781 L 21.134766 8.5 L 21.275391 8.4199219 A 0.56255625 0.56255625 0 0 0 21.277344 8.4199219 C 22.940292 7.4795643 22.940292 5.0204357 21.277344 4.0800781 A 0.56255625 0.56255625 0 0 0 21.275391 4.0800781 L 17.076172 1.71875 A 0.56255625 0.56255625 0 0 0 17.074219 1.71875 C 16.7361 1.5296718 16.360049 1.4355469 15.984375 1.4355469 C 15.608701 1.4355469 15.232697 1.5296719 14.894531 1.71875 A 0.56255625 0.56255625 0 0 0 14.894531 1.7207031 L 12.007812 3.3476562 L 9.109375 1.7109375 C 8.7707361 1.5170089 8.3935731 1.421875 8.015625 1.421875 z M 8.015625 2.5449219 C 8.2000874 2.5449219 8.3845498 2.5923041 8.5507812 2.6875 A 0.56255625 0.56255625 0 0 0 8.5527344 2.6894531 L 10.861328 3.9941406 L 4.0136719 7.8535156 L 3.2773438 7.4394531 C 2.3269586 6.9020329 2.3269585 5.5979671 3.2773438 5.0605469 L 7.4765625 2.6894531 A 0.56255625 0.56255625 0 0 0 7.4804688 2.6875 C 7.6467002 2.5923041 7.8311626 2.5449219 8.015625 2.5449219 z M 15.986328 2.5605469 C 16.172211 2.5605469 16.357117 2.6070854 16.525391 2.7011719 L 20.722656 5.0605469 C 21.673041 5.5979671 21.673041 6.9020329 20.722656 7.4394531 L 19.988281 7.8535156 L 13.150391 3.9921875 L 15.445312 2.6992188 L 15.445312 2.7011719 C 15.613586 2.6070854 15.800445 2.5605469 15.986328 2.5605469 z M 12.005859 4.6386719 L 18.841797 8.4980469 L 12 12.355469 L 5.1582031 8.5 L 12.005859 4.6386719 z M 19.986328 9.1445312 L 20.722656 9.5605469 C 21.673041 10.097967 21.673041 11.402033 20.722656 11.939453 L 16.533203 14.300781 A 0.56255625 0.56255625 0 0 0 16.529297 14.302734 C 16.19739 14.493425 15.792844 14.493425 15.460938 14.302734 A 0.56255625 0.56255625 0 0 0 15.455078 14.300781 L 13.144531 12.998047 L 19.986328 9.1445312 z M 4.0136719 9.1464844 L 10.855469 13 L 8.5449219 14.300781 A 0.56255625 0.56255625 0 0 0 8.5410156 14.300781 C 8.204775 14.492574 7.795225 14.492574 7.4589844 14.300781 A 0.56255625 0.56255625 0 0 0 7.4570312 14.300781 L 3.2773438 11.939453 C 2.3269586 11.402033 2.3269585 10.097967 3.2773438 9.5605469 L 4.0136719 9.1464844 z M 19.4375 13.955078 L 19.4375 16.869141 A 0.56255625 0.56255625 0 0 0 19.4375 16.871094 C 19.438079 17.430569 19.128599 17.940338 18.632812 18.199219 L 12.632812 21.279297 A 0.56255625 0.56255625 0 0 0 12.630859 21.28125 C 12.60832 21.292964 12.585493 21.304074 12.5625 21.314453 L 12.5625 13.960938 L 14.904297 15.279297 C 15.581013 15.666282 16.413724 15.665843 17.089844 15.277344 L 19.4375 13.955078 z M 4.5625 13.957031 L 6.9042969 15.279297 C 7.5827821 15.664729 8.4172179 15.664729 9.0957031 15.279297 L 11.4375 13.960938 L 11.4375 21.314453 C 11.414475 21.304061 11.39171 21.292979 11.369141 21.28125 A 0.56255625 0.56255625 0 0 0 11.367188 21.279297 L 5.3691406 18.201172 L 5.3671875 18.199219 C 4.8714909 17.940338 4.561921 17.430569 4.5625 16.871094 A 0.56255625 0.56255625 0 0 0 4.5625 16.869141 L 4.5625 13.957031 z " />
</svg>
