<?xml version="1.0" encoding="UTF-8" standalone="no"?>
<svg
   width="24"
   height="24"
   viewBox="0 0 24 24"
   fill="none"
   stroke="currentColor"
   stroke-width="1.125"
   stroke-linecap="round"
   stroke-linejoin="round"
   version="1.1"
   id="svg3"
   sodipodi:docname=".tmp_paw-print.svg"
   xmlns:inkscape="http://www.inkscape.org/namespaces/inkscape"
   xmlns:sodipodi="http://sodipodi.sourceforge.net/DTD/sodipodi-0.dtd"
   xmlns="http://www.w3.org/2000/svg"
   xmlns:svg="http://www.w3.org/2000/svg">
  <defs
     id="defs3" />
  <sodipodi:namedview
     id="namedview3"
     pagecolor="#ffffff"
     bordercolor="#000000"
     borderopacity="0.25"
     inkscape:showpageshadow="2"
     inkscape:pageopacity="0.0"
     inkscape:pagecheckerboard="0"
     inkscape:deskcolor="#d1d1d1" />
  <path
     id="circle1"
     style="baseline-shift:baseline;display:inline;overflow:visible;vector-effect:none;fill:#000000;stroke:none;stroke-linecap:butt;stroke-linejoin:miter;enable-background:accumulate;stop-color:#000000;stop-opacity:1;opacity:1"
     d="M 11 1.4375 C 9.5914329 1.4375 8.4375 2.5914329 8.4375 4 C 8.4375 5.4085671 9.5914329 6.5625 11 6.5625 C 12.408567 6.5625 13.5625 5.4085671 13.5625 4 C 13.5625 2.5914329 12.408567 1.4375 11 1.4375 z M 11 2.5625 C 11.800572 2.5625 12.4375 3.1994281 12.4375 4 C 12.4375 4.8005719 11.800572 5.4375 11 5.4375 C 10.199428 5.4375 9.5625 4.8005719 9.5625 4 C 9.5625 3.1994281 10.199428 2.5625 11 2.5625 z M 18 5.4375 C 16.591433 5.4375 15.4375 6.5914329 15.4375 8 C 15.4375 9.4085671 16.591433 10.5625 18 10.5625 C 19.408567 10.5625 20.5625 9.4085671 20.5625 8 C 20.5625 6.5914329 19.408567 5.4375 18 5.4375 z M 18 6.5625 C 18.800572 6.5625 19.4375 7.1994281 19.4375 8 C 19.4375 8.8005719 18.800572 9.4375 18 9.4375 C 17.199428 9.4375 16.5625 8.8005719 16.5625 8 C 16.5625 7.1994281 17.199428 6.5625 18 6.5625 z M 5.4980469 9.4375 C 3.2323281 9.44146 1.762709 11.096627 1.4902344 12.888672 C 1.2177597 14.680717 2.1288658 16.699749 4.2910156 17.376953 A 0.56255625 0.56255625 0 0 0 4.2929688 17.376953 C 5.5183715 17.757661 6.2420354 18.48158 6.6230469 19.710938 A 0.56255625 0.56255625 0 0 0 6.6230469 19.712891 C 7.3007224 21.876452 9.3205823 22.78951 11.113281 22.515625 C 12.90598 22.24174 14.561765 20.767253 14.5625 18.5 L 14.5625 15 C 14.5625 11.934579 12.065421 9.4375 9 9.4375 L 5.5 9.4375 A 0.56255625 0.56255625 0 0 0 5.4980469 9.4375 z M 5.5 10.5625 L 9 10.5625 C 11.457426 10.5625 13.4375 12.542574 13.4375 15 L 13.4375 18.5 C 13.436936 20.239283 12.270951 21.199517 10.943359 21.402344 C 9.6162429 21.605098 8.217573 21.037306 7.6972656 19.378906 L 7.6972656 19.376953 C 7.2248452 17.854499 6.148698 16.77546 4.6289062 16.302734 L 4.6269531 16.302734 C 2.9698301 15.782837 2.3998625 14.385159 2.6015625 13.058594 C 2.8032494 11.732115 3.7634581 10.566521 5.5 10.5625 z M 20 13.4375 C 18.591433 13.4375 17.4375 14.591433 17.4375 16 C 17.4375 17.408567 18.591433 18.5625 20 18.5625 C 21.408567 18.5625 22.5625 17.408567 22.5625 16 C 22.5625 14.591433 21.408567 13.4375 20 13.4375 z M 20 14.5625 C 20.800572 14.5625 21.4375 15.199428 21.4375 16 C 21.4375 16.800572 20.800572 17.4375 20 17.4375 C 19.199428 17.4375 18.5625 16.800572 18.5625 16 C 18.5625 15.199428 19.199428 14.5625 20 14.5625 z " />
</svg>
