<?xml version="1.0" encoding="UTF-8" standalone="no"?>
<svg
   width="24"
   height="24"
   viewBox="0 0 24 24"
   fill="none"
   stroke="currentColor"
   stroke-width="1.125"
   stroke-linecap="round"
   stroke-linejoin="round"
   version="1.1"
   id="svg3"
   sodipodi:docname=".tmp_presentation.svg"
   xmlns:inkscape="http://www.inkscape.org/namespaces/inkscape"
   xmlns:sodipodi="http://sodipodi.sourceforge.net/DTD/sodipodi-0.dtd"
   xmlns="http://www.w3.org/2000/svg"
   xmlns:svg="http://www.w3.org/2000/svg">
  <defs
     id="defs3" />
  <sodipodi:namedview
     id="namedview3"
     pagecolor="#ffffff"
     bordercolor="#000000"
     borderopacity="0.25"
     inkscape:showpageshadow="2"
     inkscape:pageopacity="0.0"
     inkscape:pagecheckerboard="0"
     inkscape:deskcolor="#d1d1d1" />
  <path
     id="path1"
     style="baseline-shift:baseline;display:inline;overflow:visible;vector-effect:none;fill:#000000;stroke:none;stroke-linecap:butt;stroke-linejoin:miter;enable-background:accumulate;stop-color:#000000;stop-opacity:1;opacity:1"
     d="M 2 2.4375 A 0.5625 0.5625 0 0 0 1.4375 3 A 0.5625 0.5625 0 0 0 2 3.5625 L 2.4375 3.5625 L 2.4375 14 C 2.4375 15.408567 3.5914329 16.5625 5 16.5625 L 10.640625 16.5625 L 6.6015625 20.601562 A 0.5625 0.5625 0 0 0 6.6015625 21.398438 A 0.5625 0.5625 0 0 0 7.3984375 21.398438 L 12 16.796875 L 16.601562 21.398438 A 0.5625 0.5625 0 0 0 17.398438 21.398438 A 0.5625 0.5625 0 0 0 17.398438 20.601562 L 13.359375 16.5625 L 19 16.5625 C 20.408567 16.5625 21.5625 15.408567 21.5625 14 L 21.5625 3.5625 L 22 3.5625 A 0.5625 0.5625 0 0 0 22.5625 3 A 0.5625 0.5625 0 0 0 22 2.4375 L 2 2.4375 z M 3.5625 3.5625 L 20.4375 3.5625 L 20.4375 14 C 20.4375 14.800572 19.800572 15.4375 19 15.4375 L 12.039062 15.4375 L 11.960938 15.4375 L 5 15.4375 C 4.1994281 15.4375 3.5625 14.800572 3.5625 14 L 3.5625 3.5625 z " />
</svg>
