<?xml version="1.0" encoding="UTF-8" standalone="no"?>
<svg
   width="24"
   height="24"
   viewBox="0 0 24 24"
   fill="none"
   stroke="currentColor"
   stroke-width="1.125"
   stroke-linecap="round"
   stroke-linejoin="round"
   version="1.1"
   id="svg7"
   sodipodi:docname=".tmp_refresh-cw-off.svg"
   xmlns:inkscape="http://www.inkscape.org/namespaces/inkscape"
   xmlns:sodipodi="http://sodipodi.sourceforge.net/DTD/sodipodi-0.dtd"
   xmlns="http://www.w3.org/2000/svg"
   xmlns:svg="http://www.w3.org/2000/svg">
  <defs
     id="defs7" />
  <sodipodi:namedview
     id="namedview7"
     pagecolor="#ffffff"
     bordercolor="#000000"
     borderopacity="0.25"
     inkscape:showpageshadow="2"
     inkscape:pageopacity="0.0"
     inkscape:pagecheckerboard="0"
     inkscape:deskcolor="#d1d1d1" />
  <path
     id="path1"
     style="baseline-shift:baseline;display:inline;overflow:visible;vector-effect:none;fill:#000000;stroke:none;stroke-linecap:butt;stroke-linejoin:miter;enable-background:accumulate;stop-color:#000000;stop-opacity:1;opacity:1"
     d="M 2 1.4375 A 0.5625 0.5625 0 0 0 1.6015625 1.6015625 A 0.5625 0.5625 0 0 0 1.6015625 2.3984375 L 4.8535156 5.6503906 C 3.3429329 7.3338018 2.4375 9.5628518 2.4375 12 A 0.5625 0.5625 0 0 0 3 12.5625 A 0.5625 0.5625 0 0 0 3.5625 12 C 3.5625 9.8628128 4.3440679 7.9234553 5.6503906 6.4472656 L 17.552734 18.349609 C 16.076997 19.655533 14.138357 20.437011 12.001953 20.4375 C 9.6341808 20.4286 7.3621552 19.50503 5.6582031 17.861328 L 5.65625 17.859375 L 5.6542969 17.857422 L 5.6523438 17.857422 L 5.6503906 17.855469 L 4.359375 16.5625 L 8 16.5625 A 0.5625 0.5625 0 0 0 8.5625 16 A 0.5625 0.5625 0 0 0 8 15.4375 L 3.0390625 15.4375 A 0.5625 0.5625 0 0 0 2.9453125 15.439453 A 0.56255625 0.56255625 0 0 0 2.9140625 15.443359 A 0.5625 0.5625 0 0 0 2.9023438 15.445312 A 0.56255625 0.56255625 0 0 0 2.8535156 15.457031 A 0.5625 0.5625 0 0 0 2.6015625 15.601562 A 0.5625 0.5625 0 0 0 2.4433594 15.914062 A 0.56255625 0.56255625 0 0 0 2.4394531 15.945312 A 0.5625 0.5625 0 0 0 2.4375 16.039062 L 2.4375 21 A 0.5625 0.5625 0 0 0 3 21.5625 A 0.5625 0.5625 0 0 0 3.5625 21 L 3.5625 17.359375 L 4.8613281 18.658203 A 0.56255625 0.56255625 0 0 0 4.8691406 18.664062 C 6.7823372 20.513599 9.3370313 21.55249 11.998047 21.5625 A 0.56255625 0.56255625 0 0 0 12 21.5625 C 14.437147 21.5625 16.666198 20.657066 18.349609 19.146484 L 21.601562 22.398438 A 0.5625 0.5625 0 0 0 22.398438 22.398438 A 0.5625 0.5625 0 0 0 22.398438 21.601562 L 18.761719 17.964844 A 0.5625 0.5625 0 0 0 18.755859 17.958984 L 6.0410156 5.2441406 A 0.5625 0.5625 0 0 0 6.0351562 5.2382812 L 2.3984375 1.6015625 A 0.5625 0.5625 0 0 0 2 1.4375 z M 12 2.4375 C 10.94 2.4375 9.9085823 2.6063798 8.9472656 2.9375 A 0.5625 0.5625 0 0 0 8.5976562 3.6523438 A 0.5625 0.5625 0 0 0 9.3125 4.0019531 C 10.15059 3.7132778 11.058757 3.5627128 11.998047 3.5625 C 14.369128 3.57142 16.644868 4.4965144 18.349609 6.1445312 L 19.640625 7.4375 L 16 7.4375 A 0.5625 0.5625 0 0 0 15.4375 8 A 0.5625 0.5625 0 0 0 16 8.5625 L 21 8.5625 A 0.5625 0.5625 0 0 0 21.054688 8.5605469 A 0.56255625 0.56255625 0 0 0 21.146484 8.5429688 A 0.5625 0.5625 0 0 0 21.398438 8.3984375 A 0.5625 0.5625 0 0 0 21.542969 8.1464844 A 0.56255625 0.56255625 0 0 0 21.554688 8.0976562 A 0.5625 0.5625 0 0 0 21.556641 8.0859375 A 0.56255625 0.56255625 0 0 0 21.560547 8.0546875 A 0.5625 0.5625 0 0 0 21.5625 8 L 21.5625 3 A 0.5625 0.5625 0 0 0 21 2.4375 A 0.5625 0.5625 0 0 0 20.4375 3 L 20.4375 6.640625 L 19.138672 5.3417969 A 0.56255625 0.56255625 0 0 0 19.130859 5.3359375 C 17.21765 3.4864024 14.662969 2.4475105 12.001953 2.4375 A 0.56255625 0.56255625 0 0 0 12 2.4375 z M 21 11.4375 A 0.5625 0.5625 0 0 0 20.4375 12 C 20.4375 12.94 20.286927 13.848817 19.998047 14.6875 A 0.5625 0.5625 0 0 0 20.347656 15.402344 A 0.5625 0.5625 0 0 0 21.0625 15.052734 C 21.39362 14.091418 21.5625 13.06 21.5625 12 A 0.5625 0.5625 0 0 0 21 11.4375 z " />
</svg>
