<?xml version="1.0" encoding="UTF-8" standalone="no"?>
<svg
   width="24"
   height="24"
   viewBox="0 0 24 24"
   fill="none"
   stroke="currentColor"
   stroke-width="1.125"
   stroke-linecap="round"
   stroke-linejoin="round"
   version="1.1"
   id="svg2"
   sodipodi:docname=".tmp_rewind.svg"
   xmlns:inkscape="http://www.inkscape.org/namespaces/inkscape"
   xmlns:sodipodi="http://sodipodi.sourceforge.net/DTD/sodipodi-0.dtd"
   xmlns="http://www.w3.org/2000/svg"
   xmlns:svg="http://www.w3.org/2000/svg">
  <defs
     id="defs2" />
  <sodipodi:namedview
     id="namedview2"
     pagecolor="#ffffff"
     bordercolor="#000000"
     borderopacity="0.25"
     inkscape:showpageshadow="2"
     inkscape:pageopacity="0.0"
     inkscape:pagecheckerboard="0"
     inkscape:deskcolor="#d1d1d1" />
  <path
     id="path1"
     style="baseline-shift:baseline;display:inline;overflow:visible;vector-effect:none;fill:#000000;stroke:none;stroke-linecap:butt;stroke-linejoin:miter;enable-background:accumulate;stop-color:#000000;stop-opacity:1;opacity:1"
     d="M 9.9160156 3.4394531 C 9.7934727 3.4431521 9.6709859 3.4550905 9.5488281 3.4765625 C 9.060197 3.5624506 8.5826177 3.7925016 8.1875 4.1875 L 2.1875 10.1875 C 1.1918523 11.183448 1.1918523 12.816552 2.1875 13.8125 L 8.1875 19.8125 C 8.9777354 20.602497 10.095274 20.733815 10.980469 20.367188 C 11.865664 20.00056 12.562261 19.117393 12.5625 18 L 12.5625 14.1875 L 18.1875 19.8125 C 18.977735 20.602497 20.095274 20.733815 20.980469 20.367188 C 21.865664 20.00056 22.562261 19.117393 22.5625 18 L 22.5625 6 C 22.562261 4.8826071 21.865664 3.9994398 20.980469 3.6328125 C 20.537871 3.4494988 20.037459 3.3906744 19.548828 3.4765625 C 19.060197 3.5624506 18.582618 3.7925016 18.1875 4.1875 L 12.5625 9.8125 L 12.5625 6 C 12.562261 4.8826071 11.865664 3.9994398 10.980469 3.6328125 C 10.64852 3.4953272 10.283644 3.4283563 9.9160156 3.4394531 z M 9.9570312 4.5546875 C 10.159674 4.5511712 10.360753 4.5931697 10.550781 4.671875 C 11.057523 4.8817559 11.437358 5.3359347 11.4375 6 L 11.4375 18 C 11.437358 18.664065 11.057523 19.118244 10.550781 19.328125 C 10.044039 19.538006 9.454011 19.485119 8.984375 19.015625 L 2.984375 13.015625 C 2.4184949 12.449574 2.4184949 11.550426 2.984375 10.984375 L 8.984375 4.984375 C 9.219193 4.7496279 9.4843588 4.6196358 9.7539062 4.5742188 C 9.8212932 4.5628645 9.8894838 4.5558596 9.9570312 4.5546875 z M 19.957031 4.5546875 C 20.159674 4.5511721 20.360753 4.593173 20.550781 4.671875 C 21.057523 4.8817562 21.437358 5.3359347 21.4375 6 L 21.4375 18 C 21.437358 18.664065 21.057523 19.118244 20.550781 19.328125 C 20.044039 19.538006 19.454011 19.485119 18.984375 19.015625 L 12.984375 13.015625 C 12.723302 12.754473 12.582677 12.421516 12.5625 12.083984 C 12.55912 12.027442 12.55912 11.972558 12.5625 11.916016 C 12.582677 11.578484 12.723302 11.245527 12.984375 10.984375 L 18.984375 4.984375 C 19.219193 4.7496279 19.484359 4.6196358 19.753906 4.5742188 C 19.821293 4.5628645 19.889484 4.5558593 19.957031 4.5546875 z " />
</svg>
