<?xml version="1.0" encoding="UTF-8" standalone="no"?>
<svg
   width="24"
   height="24"
   viewBox="0 0 24 24"
   fill="none"
   stroke="currentColor"
   stroke-width="1.125"
   stroke-linecap="round"
   stroke-linejoin="round"
   version="1.1"
   id="svg2"
   sodipodi:docname=".tmp_rss.svg"
   xmlns:inkscape="http://www.inkscape.org/namespaces/inkscape"
   xmlns:sodipodi="http://sodipodi.sourceforge.net/DTD/sodipodi-0.dtd"
   xmlns="http://www.w3.org/2000/svg"
   xmlns:svg="http://www.w3.org/2000/svg">
  <defs
     id="defs2" />
  <sodipodi:namedview
     id="namedview2"
     pagecolor="#ffffff"
     bordercolor="#000000"
     borderopacity="0.25"
     inkscape:showpageshadow="2"
     inkscape:pageopacity="0.0"
     inkscape:pagecheckerboard="0"
     inkscape:deskcolor="#d1d1d1" />
  <path
     id="path1"
     style="baseline-shift:baseline;display:inline;overflow:visible;vector-effect:none;fill:#000000;stroke:none;stroke-linecap:butt;stroke-linejoin:miter;enable-background:accumulate;stop-color:#000000;stop-opacity:1;opacity:1"
     d="M 4 3.4375 A 0.5625 0.5625 0 0 0 3.4375 4 A 0.5625 0.5625 0 0 0 4 4.5625 C 12.532558 4.5625 19.4375 11.467442 19.4375 20 A 0.5625 0.5625 0 0 0 20 20.5625 A 0.5625 0.5625 0 0 0 20.5625 20 C 20.5625 10.859446 13.140554 3.4375 4 3.4375 z M 4 10.4375 A 0.5625 0.5625 0 0 0 3.4375 11 A 0.5625 0.5625 0 0 0 4 11.5625 C 8.6665652 11.5625 12.4375 15.333435 12.4375 20 A 0.5625 0.5625 0 0 0 13 20.5625 A 0.5625 0.5625 0 0 0 13.5625 20 C 13.5625 14.72544 9.2745603 10.4375 4 10.4375 z M 5 17.4375 C 4.1437177 17.4375 3.4375 18.143718 3.4375 19 C 3.4375 19.856282 4.1437177 20.5625 5 20.5625 C 5.8562823 20.5625 6.5625 19.856282 6.5625 19 C 6.5625 18.143718 5.8562823 17.4375 5 17.4375 z M 5 18.5625 C 5.2482872 18.5625 5.4375 18.751713 5.4375 19 C 5.4375 19.248287 5.2482872 19.4375 5 19.4375 C 4.7517128 19.4375 4.5625 19.248287 4.5625 19 C 4.5625 18.751713 4.7517128 18.5625 5 18.5625 z " />
</svg>
