<?xml version="1.0" encoding="UTF-8" standalone="no"?>
<svg
   width="24"
   height="24"
   viewBox="0 0 24 24"
   fill="none"
   stroke="currentColor"
   stroke-width="1.125"
   stroke-linecap="round"
   stroke-linejoin="round"
   version="1.1"
   id="svg7"
   sodipodi:docname=".tmp_save-off.svg"
   xmlns:inkscape="http://www.inkscape.org/namespaces/inkscape"
   xmlns:sodipodi="http://sodipodi.sourceforge.net/DTD/sodipodi-0.dtd"
   xmlns="http://www.w3.org/2000/svg"
   xmlns:svg="http://www.w3.org/2000/svg">
  <defs
     id="defs7" />
  <sodipodi:namedview
     id="namedview7"
     pagecolor="#ffffff"
     bordercolor="#000000"
     borderopacity="0.25"
     inkscape:showpageshadow="2"
     inkscape:pageopacity="0.0"
     inkscape:pagecheckerboard="0"
     inkscape:deskcolor="#d1d1d1" />
  <path
     id="path1"
     style="baseline-shift:baseline;display:inline;overflow:visible;vector-effect:none;fill:#000000;stroke:none;stroke-linecap:butt;stroke-linejoin:miter;enable-background:accumulate;stop-color:#000000;stop-opacity:1;opacity:1"
     d="M 2 1.4375 A 0.5625 0.5625 0 0 0 1.6015625 1.6015625 A 0.5625 0.5625 0 0 0 1.6015625 2.3984375 L 2.8378906 3.6347656 C 2.5807759 4.0394314 2.4395527 4.5112018 2.4375 4.9980469 A 0.56255625 0.56255625 0 0 0 2.4375 5 L 2.4375 19 C 2.4375 20.408567 3.5914329 21.5625 5 21.5625 L 19 21.5625 A 0.56255625 0.56255625 0 0 0 19.001953 21.5625 C 19.488785 21.560419 19.960576 21.419201 20.365234 21.162109 L 21.601562 22.398438 A 0.5625 0.5625 0 0 0 22.398438 22.398438 A 0.5625 0.5625 0 0 0 22.398438 21.601562 L 2.3984375 1.6015625 A 0.5625 0.5625 0 0 0 2 1.4375 z M 9 2.4375 A 0.5625 0.5625 0 0 0 8.4375 3 A 0.5625 0.5625 0 0 0 9 3.5625 L 15.191406 3.5625 C 15.570785 3.5679 15.931712 3.7231447 16.197266 3.9941406 A 0.56255625 0.56255625 0 0 0 16.203125 3.9980469 L 20.001953 7.796875 A 0.56255625 0.56255625 0 0 0 20.005859 7.8027344 C 20.27682 8.0682837 20.432096 8.4292148 20.4375 8.8085938 L 20.4375 15 A 0.5625 0.5625 0 0 0 21 15.5625 A 0.5625 0.5625 0 0 0 21.5625 15 L 21.5625 8.8007812 A 0.56255625 0.56255625 0 0 0 21.5625 8.7910156 C 21.552876 8.1153217 21.27563 7.4710151 20.792969 6.9980469 L 17.001953 3.2070312 C 16.528985 2.72437 15.884683 2.4471244 15.208984 2.4375 A 0.56255625 0.56255625 0 0 0 15.199219 2.4375 L 9 2.4375 z M 3.6679688 4.4648438 L 11.640625 12.4375 L 8 12.4375 C 7.1437177 12.4375 6.4375 13.143718 6.4375 14 L 6.4375 20.4375 L 5 20.4375 C 4.1994281 20.437453 3.5625 19.800572 3.5625 19 L 3.5625 5.0019531 L 3.5625 5 C 3.5635229 4.8148244 3.5995263 4.6330051 3.6679688 4.4648438 z M 14 7.4375 A 0.5625 0.5625 0 0 0 13.4375 8 A 0.5625 0.5625 0 0 0 14 8.5625 L 15 8.5625 A 0.5625 0.5625 0 0 0 15.5625 8 A 0.5625 0.5625 0 0 0 15 7.4375 L 14 7.4375 z M 29.5 10.935547 A 0.5625 0.5625 0 0 0 29.101562 11.101562 A 0.5625 0.5625 0 0 0 29.101562 11.898438 C 29.101562 11.898438 30.345891 13.142353 31.457031 14.376953 C 32.012601 14.994253 32.536679 15.613502 32.835938 16.041016 C 32.965601 16.226249 33.023759 16.34865 33.044922 16.392578 A 0.5625 0.5625 0 0 0 32.9375 16.5 A 0.5625 0.5625 0 0 0 33.5 17.0625 C 33.679687 17.0625 33.997405 16.946596 34.123047 16.695312 C 34.248689 16.444029 34.194577 16.257312 34.154297 16.123047 C 34.073737 15.854517 33.936308 15.651478 33.757812 15.396484 C 33.400822 14.886498 32.862399 14.255747 32.292969 13.623047 C 31.154109 12.357647 29.898438 11.101562 29.898438 11.101562 A 0.5625 0.5625 0 0 0 29.5 10.935547 z M 8 13.5625 L 12.765625 13.5625 L 16.4375 17.234375 L 16.4375 20.4375 L 7.5625 20.4375 L 7.5625 14 C 7.5625 13.751713 7.7517128 13.5625 8 13.5625 z M 33.488281 15.9375 C 33.493058 15.936901 33.496582 15.9375 33.5 15.9375 A 0.5625 0.5625 0 0 0 33.091797 16.345703 C 33.086097 16.306553 33.063468 16.298843 33.117188 16.191406 C 33.200645 16.024493 33.416625 15.946487 33.488281 15.9375 z M 17.5625 18.359375 L 19.535156 20.332031 C 19.366392 20.400719 19.183896 20.436716 18.998047 20.4375 L 17.5625 20.4375 L 17.5625 18.359375 z " />
</svg>
