<?xml version="1.0" encoding="UTF-8" standalone="no"?>
<svg
   width="24"
   height="24"
   viewBox="0 0 24 24"
   fill="none"
   stroke="currentColor"
   stroke-width="1.125"
   stroke-linecap="round"
   stroke-linejoin="round"
   version="1.1"
   id="svg1"
   sodipodi:docname=".tmp_search.svg"
   xmlns:inkscape="http://www.inkscape.org/namespaces/inkscape"
   xmlns:sodipodi="http://sodipodi.sourceforge.net/DTD/sodipodi-0.dtd"
   xmlns="http://www.w3.org/2000/svg"
   xmlns:svg="http://www.w3.org/2000/svg">
  <defs
     id="defs1" />
  <sodipodi:namedview
     id="namedview1"
     pagecolor="#ffffff"
     bordercolor="#000000"
     borderopacity="0.25"
     inkscape:showpageshadow="2"
     inkscape:pageopacity="0.0"
     inkscape:pagecheckerboard="0"
     inkscape:deskcolor="#d1d1d1" />
  <path
     id="path1"
     style="baseline-shift:baseline;display:inline;overflow:visible;vector-effect:none;fill:#000000;stroke:none;stroke-linecap:butt;stroke-linejoin:miter;enable-background:accumulate;stop-color:#000000;stop-opacity:1;opacity:1"
     d="M 11 2.4375 C 6.2777244 2.4375 2.4375 6.2777244 2.4375 11 C 2.4375 15.722276 6.2777244 19.5625 11 19.5625 C 13.158749 19.5625 15.133138 18.759946 16.640625 17.4375 L 20.601562 21.398438 A 0.5625 0.5625 0 0 0 21.398438 21.398438 A 0.5625 0.5625 0 0 0 21.398438 20.601562 L 17.4375 16.640625 C 18.759946 15.133138 19.5625 13.158749 19.5625 11 C 19.5625 6.2777244 15.722276 2.4375 11 2.4375 z M 11 3.5625 C 15.11428 3.5625 18.4375 6.8857196 18.4375 11 C 18.4375 13.05714 17.606809 14.916629 16.261719 16.261719 C 14.916629 17.606809 13.05714 18.4375 11 18.4375 C 6.8857196 18.4375 3.5625 15.11428 3.5625 11 C 3.5625 6.8857196 6.8857196 3.5625 11 3.5625 z " />
</svg>
