<?xml version="1.0" encoding="UTF-8" standalone="no"?>
<svg
   width="24"
   height="24"
   viewBox="0 0 24 24"
   fill="none"
   stroke="currentColor"
   stroke-width="1.125"
   stroke-linecap="round"
   stroke-linejoin="round"
   version="1.1"
   id="svg7"
   sodipodi:docname=".tmp_shredder.svg"
   xmlns:inkscape="http://www.inkscape.org/namespaces/inkscape"
   xmlns:sodipodi="http://sodipodi.sourceforge.net/DTD/sodipodi-0.dtd"
   xmlns="http://www.w3.org/2000/svg"
   xmlns:svg="http://www.w3.org/2000/svg">
  <defs
     id="defs7" />
  <sodipodi:namedview
     id="namedview7"
     pagecolor="#ffffff"
     bordercolor="#000000"
     borderopacity="0.25"
     inkscape:showpageshadow="2"
     inkscape:pageopacity="0.0"
     inkscape:pagecheckerboard="0"
     inkscape:deskcolor="#d1d1d1" />
  <path
     id="path1"
     style="baseline-shift:baseline;display:inline;overflow:visible;vector-effect:none;fill:#000000;stroke:none;stroke-linecap:butt;stroke-linejoin:miter;enable-background:accumulate;stop-color:#000000;stop-opacity:1;opacity:1"
     d="M 6 1.4375 C 4.5914329 1.4375 3.4375 2.5914329 3.4375 4 L 3.4375 12.4375 L 2 12.4375 A 0.5625 0.5625 0 0 0 1.4375 13 A 0.5625 0.5625 0 0 0 2 13.5625 L 22 13.5625 A 0.5625 0.5625 0 0 0 22.5625 13 A 0.5625 0.5625 0 0 0 22 12.4375 L 20.5625 12.4375 L 20.5625 7 A 0.56255625 0.56255625 0 0 0 20.398438 6.6015625 L 15.398438 1.6015625 A 0.56255625 0.56255625 0 0 0 15 1.4375 L 6 1.4375 z M 6 2.5625 L 13.4375 2.5625 L 13.4375 6 C 13.4375 7.4085671 14.591433 8.5625 16 8.5625 L 19.4375 8.5625 L 19.4375 12.4375 L 4.5625 12.4375 L 4.5625 4 C 4.5625 3.1994281 5.1994281 2.5625 6 2.5625 z M 14.5625 2.5625 L 14.767578 2.5625 L 19.4375 7.2324219 L 19.4375 7.4375 L 16 7.4375 C 15.199428 7.4375 14.5625 6.8005719 14.5625 6 L 14.5625 2.5625 z M 6 16.4375 A 0.5625 0.5625 0 0 0 5.4375 17 L 5.4375 20 A 0.5625 0.5625 0 0 0 6 20.5625 A 0.5625 0.5625 0 0 0 6.5625 20 L 6.5625 17 A 0.5625 0.5625 0 0 0 6 16.4375 z M 10 16.4375 A 0.5625 0.5625 0 0 0 9.4375 17 L 9.4375 22 A 0.5625 0.5625 0 0 0 10 22.5625 A 0.5625 0.5625 0 0 0 10.5625 22 L 10.5625 17 A 0.5625 0.5625 0 0 0 10 16.4375 z M 14 16.4375 A 0.5625 0.5625 0 0 0 13.4375 17 L 13.4375 19 A 0.5625 0.5625 0 0 0 14 19.5625 A 0.5625 0.5625 0 0 0 14.5625 19 L 14.5625 17 A 0.5625 0.5625 0 0 0 14 16.4375 z M 18 16.4375 A 0.5625 0.5625 0 0 0 17.4375 17 L 17.4375 20 A 0.5625 0.5625 0 0 0 18 20.5625 A 0.5625 0.5625 0 0 0 18.5625 20 L 18.5625 17 A 0.5625 0.5625 0 0 0 18 16.4375 z " />
</svg>
