<?xml version="1.0" encoding="UTF-8" standalone="no"?>
<svg
   width="24"
   height="24"
   viewBox="0 0 24 24"
   fill="none"
   stroke="currentColor"
   stroke-width="1.125"
   stroke-linecap="round"
   stroke-linejoin="round"
   version="1.1"
   id="svg4"
   sodipodi:docname=".tmp_shrink.svg"
   xmlns:inkscape="http://www.inkscape.org/namespaces/inkscape"
   xmlns:sodipodi="http://sodipodi.sourceforge.net/DTD/sodipodi-0.dtd"
   xmlns="http://www.w3.org/2000/svg"
   xmlns:svg="http://www.w3.org/2000/svg">
  <defs
     id="defs4" />
  <sodipodi:namedview
     id="namedview4"
     pagecolor="#ffffff"
     bordercolor="#000000"
     borderopacity="0.25"
     inkscape:showpageshadow="2"
     inkscape:pageopacity="0.0"
     inkscape:pagecheckerboard="0"
     inkscape:deskcolor="#d1d1d1" />
  <path
     id="path1"
     style="baseline-shift:baseline;display:inline;overflow:visible;vector-effect:none;fill:#000000;stroke:none;stroke-linecap:butt;stroke-linejoin:miter;enable-background:accumulate;stop-color:#000000;stop-opacity:1;opacity:1"
     d="M 21 2.4355469 A 0.5625 0.5625 0 0 0 20.601562 2.6015625 L 15.5625 7.640625 L 15.5625 4.1992188 A 0.5625 0.5625 0 0 0 15 3.6367188 A 0.5625 0.5625 0 0 0 14.4375 4.1992188 L 14.4375 9 A 0.5625 0.5625 0 0 0 14.601562 9.1640625 A 0.5625 0.5625 0 0 0 14.601562 9.3984375 A 0.5625 0.5625 0 0 0 14.835938 9.3984375 A 0.5625 0.5625 0 0 0 15 9.5625 L 19.800781 9.5625 A 0.5625 0.5625 0 0 0 20.363281 9 A 0.5625 0.5625 0 0 0 19.800781 8.4375 L 16.359375 8.4375 L 21.398438 3.3984375 A 0.5625 0.5625 0 0 0 21.398438 2.6015625 A 0.5625 0.5625 0 0 0 21 2.4355469 z M 3 2.4375 A 0.5625 0.5625 0 0 0 2.6015625 2.6015625 A 0.5625 0.5625 0 0 0 2.6015625 3.3984375 L 7.640625 8.4375 L 4.1992188 8.4375 A 0.5625 0.5625 0 0 0 3.6367188 9 A 0.5625 0.5625 0 0 0 4.1992188 9.5625 L 9 9.5625 A 0.5625 0.5625 0 0 0 9.1640625 9.3984375 A 0.5625 0.5625 0 0 0 9.3984375 9.3984375 A 0.5625 0.5625 0 0 0 9.3984375 9.1640625 A 0.5625 0.5625 0 0 0 9.5625 9 L 9.5625 4.1992188 A 0.5625 0.5625 0 0 0 9 3.6367188 A 0.5625 0.5625 0 0 0 8.4375 4.1992188 L 8.4375 7.640625 L 3.3984375 2.6015625 A 0.5625 0.5625 0 0 0 3 2.4375 z M 4.1992188 14.4375 A 0.5625 0.5625 0 0 0 3.6367188 15 A 0.5625 0.5625 0 0 0 4.1992188 15.5625 L 7.640625 15.5625 L 2.6015625 20.601562 A 0.5625 0.5625 0 0 0 2.6015625 21.398438 A 0.5625 0.5625 0 0 0 3.3984375 21.398438 L 8.4375 16.359375 L 8.4375 19.800781 A 0.5625 0.5625 0 0 0 9 20.363281 A 0.5625 0.5625 0 0 0 9.5625 19.800781 L 9.5625 15 A 0.5625 0.5625 0 0 0 9.3984375 14.835938 A 0.5625 0.5625 0 0 0 9.3984375 14.601562 A 0.5625 0.5625 0 0 0 9.1640625 14.601562 A 0.5625 0.5625 0 0 0 9 14.4375 L 4.1992188 14.4375 z M 15 14.4375 A 0.5625 0.5625 0 0 0 14.835938 14.601562 A 0.5625 0.5625 0 0 0 14.601562 14.601562 A 0.5625 0.5625 0 0 0 14.601562 14.835938 A 0.5625 0.5625 0 0 0 14.4375 15 L 14.4375 19.800781 A 0.5625 0.5625 0 0 0 15 20.363281 A 0.5625 0.5625 0 0 0 15.5625 19.800781 L 15.5625 16.359375 L 20.601562 21.398438 A 0.5625 0.5625 0 0 0 21.398438 21.398438 A 0.5625 0.5625 0 0 0 21.398438 20.601562 L 16.359375 15.5625 L 19.800781 15.5625 A 0.5625 0.5625 0 0 0 20.363281 15 A 0.5625 0.5625 0 0 0 19.800781 14.4375 L 15 14.4375 z " />
</svg>
