<?xml version="1.0" encoding="UTF-8" standalone="no"?>
<svg
   width="24"
   height="24"
   viewBox="0 0 24 24"
   fill="none"
   stroke="currentColor"
   stroke-width="1.125"
   stroke-linecap="round"
   stroke-linejoin="round"
   version="1.1"
   id="svg3"
   sodipodi:docname=".tmp_signpost.svg"
   xmlns:inkscape="http://www.inkscape.org/namespaces/inkscape"
   xmlns:sodipodi="http://sodipodi.sourceforge.net/DTD/sodipodi-0.dtd"
   xmlns="http://www.w3.org/2000/svg"
   xmlns:svg="http://www.w3.org/2000/svg">
  <defs
     id="defs3" />
  <sodipodi:namedview
     id="namedview3"
     pagecolor="#ffffff"
     bordercolor="#000000"
     borderopacity="0.25"
     inkscape:showpageshadow="2"
     inkscape:pageopacity="0.0"
     inkscape:pagecheckerboard="0"
     inkscape:deskcolor="#d1d1d1" />
  <path
     id="path1"
     style="baseline-shift:baseline;display:inline;overflow:visible;vector-effect:none;fill:#000000;stroke:none;stroke-linecap:butt;stroke-linejoin:miter;enable-background:accumulate;stop-color:#000000;stop-opacity:1;opacity:1"
     d="M 12 2.4375 A 0.5625 0.5625 0 0 0 11.4375 3 L 11.4375 5.4375 L 6 5.4375 C 5.3373218 5.4378142 4.6997846 5.6944153 4.2226562 6.1542969 L 1.9160156 8.375 C 1.2838353 8.9843288 1.2838353 10.015671 1.9160156 10.625 L 4.2226562 12.845703 C 4.6997845 13.305585 5.3373218 13.562186 6 13.5625 L 11.4375 13.5625 L 11.4375 21 A 0.5625 0.5625 0 0 0 12 21.5625 A 0.5625 0.5625 0 0 0 12.5625 21 L 12.5625 13.5625 L 18 13.5625 C 18.662678 13.562186 19.300215 13.305585 19.777344 12.845703 L 22.083984 10.625 C 22.716165 10.015671 22.716165 8.9843288 22.083984 8.375 L 19.777344 6.1542969 C 19.300215 5.6944153 18.662678 5.4378142 18 5.4375 L 12.5625 5.4375 L 12.5625 3 A 0.5625 0.5625 0 0 0 12 2.4375 z M 6 6.5625 L 12 6.5625 L 18 6.5625 C 18.372045 6.5626764 18.728221 6.7066541 18.996094 6.9648438 L 21.302734 9.1855469 C 21.486623 9.3627887 21.486623 9.6372113 21.302734 9.8144531 L 18.996094 12.035156 C 18.728221 12.293346 18.372045 12.437324 18 12.4375 L 12 12.4375 L 6 12.4375 C 5.6279548 12.437324 5.2717788 12.293346 5.0039062 12.035156 L 2.6972656 9.8144531 C 2.5133768 9.6372113 2.5133768 9.3627887 2.6972656 9.1855469 L 5.0039062 6.9648438 C 5.2717788 6.7066541 5.6279548 6.5626764 6 6.5625 z " />
</svg>
