<?xml version="1.0" encoding="UTF-8" standalone="no"?>
<svg
   width="24"
   height="24"
   viewBox="0 0 24 24"
   fill="none"
   stroke="currentColor"
   stroke-width="1.125"
   stroke-linecap="round"
   stroke-linejoin="round"
   version="1.1"
   id="svg2"
   sodipodi:docname=".tmp_skip-forward.svg"
   xmlns:inkscape="http://www.inkscape.org/namespaces/inkscape"
   xmlns:sodipodi="http://sodipodi.sourceforge.net/DTD/sodipodi-0.dtd"
   xmlns="http://www.w3.org/2000/svg"
   xmlns:svg="http://www.w3.org/2000/svg">
  <defs
     id="defs2" />
  <sodipodi:namedview
     id="namedview2"
     pagecolor="#ffffff"
     bordercolor="#000000"
     borderopacity="0.25"
     inkscape:showpageshadow="2"
     inkscape:pageopacity="0.0"
     inkscape:pagecheckerboard="0"
     inkscape:deskcolor="#d1d1d1" />
  <path
     id="path1"
     style="baseline-shift:baseline;display:inline;overflow:visible;vector-effect:none;fill:#000000;stroke:none;stroke-linecap:butt;stroke-linejoin:miter;enable-background:accumulate;stop-color:#000000;stop-opacity:1;opacity:1"
     d="M 21 3.4375 A 0.5625 0.5625 0 0 0 20.4375 4 L 20.4375 20 A 0.5625 0.5625 0 0 0 21 20.5625 A 0.5625 0.5625 0 0 0 21.5625 20 L 21.5625 4 A 0.5625 0.5625 0 0 0 21 3.4375 z M 5.0019531 3.4433594 C 3.6736516 3.4590427 2.4374858 4.5272234 2.4375 6 L 2.4375 18 C 2.4374811 19.963702 4.6345037 21.20759 6.3183594 20.197266 L 16.314453 14.199219 C 17.95544 13.218776 17.957635 10.786045 16.318359 9.8027344 L 6.3183594 3.8027344 C 5.8974014 3.5501532 5.4447203 3.4381316 5.0019531 3.4433594 z M 4.9863281 4.5507812 C 5.2365083 4.5525661 5.4946702 4.620238 5.7402344 4.7675781 L 15.740234 10.767578 C 16.693477 11.339378 16.692569 12.664243 15.738281 13.234375 A 0.56255625 0.56255625 0 0 0 15.736328 13.234375 L 5.7402344 19.232422 C 4.7579777 19.821783 3.562489 19.145502 3.5625 18 L 3.5625 6 C 3.5624945 5.4272491 3.8617104 4.9710683 4.2832031 4.7324219 C 4.4939495 4.6130986 4.7361479 4.5489964 4.9863281 4.5507812 z " />
</svg>
