<?xml version="1.0" encoding="UTF-8" standalone="no"?>
<svg
   width="24"
   height="24"
   viewBox="0 0 24 24"
   fill="none"
   stroke="currentColor"
   stroke-width="1.125"
   stroke-linecap="round"
   stroke-linejoin="round"
   version="1.1"
   id="svg4"
   sodipodi:docname=".tmp_soap-dispenser-droplet.svg"
   xmlns:inkscape="http://www.inkscape.org/namespaces/inkscape"
   xmlns:sodipodi="http://sodipodi.sourceforge.net/DTD/sodipodi-0.dtd"
   xmlns="http://www.w3.org/2000/svg"
   xmlns:svg="http://www.w3.org/2000/svg">
  <defs
     id="defs4" />
  <sodipodi:namedview
     id="namedview4"
     pagecolor="#ffffff"
     bordercolor="#000000"
     borderopacity="0.25"
     inkscape:showpageshadow="2"
     inkscape:pageopacity="0.0"
     inkscape:pagecheckerboard="0"
     inkscape:deskcolor="#d1d1d1" />
  <path
     id="path1"
     style="baseline-shift:baseline;display:inline;overflow:visible;vector-effect:none;fill:#000000;stroke:none;stroke-linecap:butt;stroke-linejoin:miter;enable-background:accumulate;stop-color:#000000;stop-opacity:1;opacity:1"
     d="M 7 1.4375 C 5.5914329 1.4375 4.4375 2.5914329 4.4375 4 A 0.5625 0.5625 0 0 0 5 4.5625 A 0.5625 0.5625 0 0 0 5.5625 4 C 5.5625 3.1994281 6.1994281 2.5625 7 2.5625 L 9.9375 2.5625 L 9.9375 5.4375 L 9 5.4375 C 8.1437177 5.4375 7.4375 6.1437177 7.4375 7 L 7.4375 9.4375 L 6 9.4375 C 4.5914329 9.4375 3.4375 10.591433 3.4375 12 L 3.4375 19 C 3.4375 20.408567 4.5914329 21.5625 6 21.5625 L 9.6074219 21.5625 A 0.5625 0.5625 0 0 0 10.169922 21 A 0.5625 0.5625 0 0 0 9.6074219 20.4375 L 6 20.4375 C 5.1994281 20.4375 4.5625 19.800572 4.5625 19 L 4.5625 12 C 4.5625 11.199428 5.1994281 10.5625 6 10.5625 L 8 10.5625 L 13 10.5625 A 0.56255625 0.56255625 0 0 0 13.5625 10 L 13.5625 7 C 13.5625 6.1437177 12.856282 5.4375 12 5.4375 L 11.0625 5.4375 L 11.0625 2.5625 L 14 2.5625 A 0.5625 0.5625 0 0 0 14.5625 2 A 0.5625 0.5625 0 0 0 14 1.4375 L 7 1.4375 z M 9 6.5625 L 10.5 6.5625 L 12 6.5625 C 12.248287 6.5625 12.4375 6.7517128 12.4375 7 L 12.4375 9.4375 L 8.5625 9.4375 L 8.5625 7 C 8.5625 6.7517128 8.7517128 6.5625 9 6.5625 z M 16.998047 10.4375 A 0.56255625 0.56255625 0 0 0 16.449219 10.884766 C 16.165156 12.237347 15.426903 13.45118 14.355469 14.324219 C 13.104148 15.32716 12.4375 16.618265 12.4375 17.949219 C 12.4375 20.473273 14.488068 22.5625 17 22.5625 C 19.511932 22.5625 21.5625 20.473273 21.5625 17.949219 C 21.5625 16.605406 20.882869 15.335287 19.646484 14.326172 L 19.646484 14.324219 A 0.5625 0.5625 0 0 0 19.644531 14.324219 C 18.577144 13.447051 17.839764 12.233879 17.550781 10.882812 A 0.56255625 0.56255625 0 0 0 16.998047 10.4375 z M 17.001953 12.501953 C 17.456727 13.525007 18.057818 14.476279 18.933594 15.195312 C 19.976413 16.046034 20.4375 16.973486 20.4375 17.949219 C 20.4375 19.865165 18.888068 21.4375 17 21.4375 C 15.111932 21.4375 13.5625 19.865165 13.5625 17.949219 C 13.5625 16.981827 14.014884 16.035749 15.060547 15.199219 A 0.56255625 0.56255625 0 0 0 15.064453 15.195312 C 15.944425 14.478283 16.548088 13.527227 17.001953 12.501953 z " />
</svg>
