<?xml version="1.0" encoding="UTF-8" standalone="no"?>
<svg
   width="24"
   height="24"
   viewBox="0 0 24 24"
   fill="none"
   stroke="currentColor"
   stroke-width="1.125"
   stroke-linecap="round"
   stroke-linejoin="round"
   version="1.1"
   id="svg1"
   sodipodi:docname=".tmp_space.svg"
   xmlns:inkscape="http://www.inkscape.org/namespaces/inkscape"
   xmlns:sodipodi="http://sodipodi.sourceforge.net/DTD/sodipodi-0.dtd"
   xmlns="http://www.w3.org/2000/svg"
   xmlns:svg="http://www.w3.org/2000/svg">
  <defs
     id="defs1" />
  <sodipodi:namedview
     id="namedview1"
     pagecolor="#ffffff"
     bordercolor="#000000"
     borderopacity="0.25"
     inkscape:showpageshadow="2"
     inkscape:pageopacity="0.0"
     inkscape:pagecheckerboard="0"
     inkscape:deskcolor="#d1d1d1" />
  <path
     id="path1"
     style="baseline-shift:baseline;display:inline;overflow:visible;vector-effect:none;fill:#000000;stroke:none;stroke-linecap:butt;stroke-linejoin:miter;enable-background:accumulate;stop-color:#000000;stop-opacity:1;opacity:1"
     d="M 2 16.4375 A 0.5625 0.5625 0 0 0 1.4375 17 L 1.4375 18 C 1.4375 18.4375 1.6381742 18.810049 1.9140625 19.085938 C 2.1899508 19.361826 2.5625 19.5625 3 19.5625 L 21 19.5625 C 21.4375 19.5625 21.810049 19.361826 22.085938 19.085938 C 22.361826 18.810049 22.5625 18.4375 22.5625 18 L 22.5625 17 A 0.5625 0.5625 0 0 0 22 16.4375 A 0.5625 0.5625 0 0 0 21.4375 17 L 21.4375 18 C 21.4375 18.0625 21.38817 18.189951 21.289062 18.289062 C 21.189951 18.388174 21.0625 18.4375 21 18.4375 L 3 18.4375 C 2.9375 18.4375 2.8100492 18.38817 2.7109375 18.289062 C 2.6118258 18.189951 2.5625 18.0625 2.5625 18 L 2.5625 17 A 0.5625 0.5625 0 0 0 2 16.4375 z " />
</svg>
