<?xml version="1.0" encoding="UTF-8" standalone="no"?>
<svg
   width="24"
   height="24"
   viewBox="0 0 24 24"
   fill="none"
   stroke="currentColor"
   stroke-width="1.125"
   stroke-linecap="round"
   stroke-linejoin="round"
   version="1.1"
   id="svg2"
   sodipodi:docname=".tmp_spline.svg"
   xmlns:inkscape="http://www.inkscape.org/namespaces/inkscape"
   xmlns:sodipodi="http://sodipodi.sourceforge.net/DTD/sodipodi-0.dtd"
   xmlns="http://www.w3.org/2000/svg"
   xmlns:svg="http://www.w3.org/2000/svg">
  <defs
     id="defs2" />
  <sodipodi:namedview
     id="namedview2"
     pagecolor="#ffffff"
     bordercolor="#000000"
     borderopacity="0.25"
     inkscape:showpageshadow="2"
     inkscape:pageopacity="0.0"
     inkscape:pagecheckerboard="0"
     inkscape:deskcolor="#d1d1d1" />
  <path
     id="circle1"
     style="baseline-shift:baseline;display:inline;overflow:visible;vector-effect:none;fill:#000000;stroke:none;stroke-linecap:butt;stroke-linejoin:miter;enable-background:accumulate;stop-color:#000000;stop-opacity:1;opacity:1"
     d="M 19 2.4375 C 17.780982 2.4375 16.752728 3.3016513 16.498047 4.4472656 C 9.9653139 4.7047516 4.7047516 9.9653139 4.4472656 16.498047 C 3.3016513 16.752728 2.4375 17.780982 2.4375 19 C 2.4375 20.408567 3.5914329 21.5625 5 21.5625 C 6.4085671 21.5625 7.5625 20.408567 7.5625 19 C 7.5625 17.788251 6.707694 16.764265 5.5722656 16.501953 C 5.8250485 10.574791 10.574791 5.8250485 16.501953 5.5722656 C 16.764265 6.707694 17.788251 7.5625 19 7.5625 C 20.408567 7.5625 21.5625 6.4085671 21.5625 5 C 21.5625 3.5914329 20.408567 2.4375 19 2.4375 z M 19 3.5625 C 19.800572 3.5625 20.4375 4.1994281 20.4375 5 C 20.4375 5.8005719 19.800572 6.4375 19 6.4375 C 18.199428 6.4375 17.5625 5.8005719 17.5625 5 C 17.5625 4.1994281 18.199428 3.5625 19 3.5625 z M 5 17.5625 C 5.8005719 17.5625 6.4375 18.199428 6.4375 19 C 6.4375 19.800572 5.8005719 20.4375 5 20.4375 C 4.1994281 20.4375 3.5625 19.800572 3.5625 19 C 3.5625 18.199428 4.1994281 17.5625 5 17.5625 z " />
</svg>
