<?xml version="1.0" encoding="UTF-8" standalone="no"?>
<svg
   width="24"
   height="24"
   viewBox="0 0 24 24"
   fill="none"
   stroke="currentColor"
   stroke-width="1.125"
   stroke-linecap="round"
   stroke-linejoin="round"
   version="1.1"
   id="svg2"
   sodipodi:docname=".tmp_squares-exclude.svg"
   xmlns:inkscape="http://www.inkscape.org/namespaces/inkscape"
   xmlns:sodipodi="http://sodipodi.sourceforge.net/DTD/sodipodi-0.dtd"
   xmlns="http://www.w3.org/2000/svg"
   xmlns:svg="http://www.w3.org/2000/svg">
  <defs
     id="defs2" />
  <sodipodi:namedview
     id="namedview2"
     pagecolor="#ffffff"
     bordercolor="#000000"
     borderopacity="0.25"
     inkscape:showpageshadow="2"
     inkscape:pageopacity="0.0"
     inkscape:pagecheckerboard="0"
     inkscape:deskcolor="#d1d1d1" />
  <path
     id="path1"
     style="baseline-shift:baseline;display:inline;overflow:visible;vector-effect:none;fill:#000000;stroke:none;stroke-linecap:butt;stroke-linejoin:miter;enable-background:accumulate;stop-color:#000000;stop-opacity:1;opacity:1"
     d="M 4 1.4375 C 2.5914329 1.4375 1.4375 2.5914329 1.4375 4 L 1.4375 14 C 1.4375 15.408567 2.5914329 16.5625 4 16.5625 A 0.5625 0.5625 0 0 0 4.5625 16 A 0.5625 0.5625 0 0 0 4 15.4375 C 3.1994281 15.4375 2.5625 14.800572 2.5625 14 L 2.5625 4 C 2.5625 3.1994281 3.1994281 2.5625 4 2.5625 L 14 2.5625 C 14.800572 2.5625 15.4375 3.1994281 15.4375 4 L 15.4375 7 C 15.4375 7.2482872 15.248287 7.4375 15 7.4375 L 10 7.4375 C 8.5914329 7.4375 7.4375 8.5914329 7.4375 10 L 7.4375 12 A 0.5625 0.5625 0 0 0 8 12.5625 A 0.5625 0.5625 0 0 0 8.5625 12 L 8.5625 10 C 8.5625 9.1994281 9.1994281 8.5625 10 8.5625 L 15 8.5625 C 15.856282 8.5625 16.5625 7.8562823 16.5625 7 L 16.5625 4 C 16.5625 2.5914329 15.408567 1.4375 14 1.4375 L 4 1.4375 z M 20 7.4375 A 0.5625 0.5625 0 0 0 19.4375 8 A 0.5625 0.5625 0 0 0 20 8.5625 C 20.800572 8.5625 21.4375 9.1994281 21.4375 10 L 21.4375 20 C 21.4375 20.800572 20.800572 21.4375 20 21.4375 L 10 21.4375 C 9.1994281 21.4375 8.5625 20.800572 8.5625 20 L 8.5625 17 C 8.5625 16.751713 8.7517128 16.5625 9 16.5625 L 14 16.5625 C 15.408567 16.5625 16.5625 15.408567 16.5625 14 L 16.5625 12 A 0.5625 0.5625 0 0 0 16 11.4375 A 0.5625 0.5625 0 0 0 15.4375 12 L 15.4375 14 C 15.4375 14.800572 14.800572 15.4375 14 15.4375 L 9 15.4375 C 8.1437177 15.4375 7.4375 16.143718 7.4375 17 L 7.4375 20 C 7.4375 21.408567 8.5914329 22.5625 10 22.5625 L 20 22.5625 C 21.408567 22.5625 22.5625 21.408567 22.5625 20 L 22.5625 10 C 22.5625 8.5914329 21.408567 7.4375 20 7.4375 z " />
</svg>
