<?xml version="1.0" encoding="UTF-8" standalone="no"?>
<svg
   width="24"
   height="24"
   viewBox="0 0 24 24"
   fill="none"
   stroke="currentColor"
   stroke-width="1.125"
   stroke-linecap="round"
   stroke-linejoin="round"
   version="1.1"
   id="svg3"
   sodipodi:docname=".tmp_square-library.svg"
   xmlns:inkscape="http://www.inkscape.org/namespaces/inkscape"
   xmlns:sodipodi="http://sodipodi.sourceforge.net/DTD/sodipodi-0.dtd"
   xmlns="http://www.w3.org/2000/svg"
   xmlns:svg="http://www.w3.org/2000/svg">
  <defs
     id="defs3" />
  <sodipodi:namedview
     id="namedview3"
     pagecolor="#ffffff"
     bordercolor="#000000"
     borderopacity="0.25"
     inkscape:showpageshadow="2"
     inkscape:pageopacity="0.0"
     inkscape:pagecheckerboard="0"
     inkscape:deskcolor="#d1d1d1" />
  <path
     id="rect1"
     style="baseline-shift:baseline;display:inline;overflow:visible;vector-effect:none;fill:#000000;stroke:none;stroke-linecap:butt;stroke-linejoin:miter;enable-background:accumulate;stop-color:#000000;stop-opacity:1;opacity:1"
     d="M 5 2.4375 C 3.5901047 2.4375 2.4375 3.5901047 2.4375 5 L 2.4375 19 C 2.4375 20.409895 3.5901047 21.5625 5 21.5625 L 19 21.5625 C 20.409895 21.5625 21.5625 20.409895 21.5625 19 L 21.5625 5 C 21.5625 3.5901047 20.409895 2.4375 19 2.4375 L 5 2.4375 z M 5 3.5625 L 19 3.5625 C 19.806105 3.5625 20.4375 4.1938953 20.4375 5 L 20.4375 19 C 20.4375 19.806105 19.806105 20.4375 19 20.4375 L 5 20.4375 C 4.1938953 20.4375 3.5625 19.806105 3.5625 19 L 3.5625 5 C 3.5625 4.1938953 4.1938953 3.5625 5 3.5625 z M 7 6.4375 A 0.5625 0.5625 0 0 0 6.4375 7 L 6.4375 17 A 0.5625 0.5625 0 0 0 7 17.5625 A 0.5625 0.5625 0 0 0 7.5625 17 L 7.5625 7 A 0.5625 0.5625 0 0 0 7 6.4375 z M 11 6.4375 A 0.5625 0.5625 0 0 0 10.4375 7 L 10.4375 17 A 0.5625 0.5625 0 0 0 11 17.5625 A 0.5625 0.5625 0 0 0 11.5625 17 L 11.5625 7 A 0.5625 0.5625 0 0 0 11 6.4375 z M 14.962891 6.4394531 A 0.5625 0.5625 0 0 0 14.890625 6.4492188 A 0.5625 0.5625 0 0 0 14.449219 7.109375 L 16.449219 17.109375 A 0.5625 0.5625 0 0 0 17.109375 17.550781 A 0.5625 0.5625 0 0 0 17.550781 16.890625 L 15.550781 6.890625 A 0.5625 0.5625 0 0 0 14.962891 6.4394531 z " />
</svg>
