<?xml version="1.0" encoding="UTF-8" standalone="no"?>
<svg
   width="24"
   height="24"
   viewBox="0 0 24 24"
   fill="none"
   stroke="currentColor"
   stroke-width="1.125"
   stroke-linecap="round"
   stroke-linejoin="round"
   version="1.1"
   id="svg3"
   sodipodi:docname=".tmp_square-arrow-out-down-right.svg"
   xmlns:inkscape="http://www.inkscape.org/namespaces/inkscape"
   xmlns:sodipodi="http://sodipodi.sourceforge.net/DTD/sodipodi-0.dtd"
   xmlns="http://www.w3.org/2000/svg"
   xmlns:svg="http://www.w3.org/2000/svg">
  <defs
     id="defs3" />
  <sodipodi:namedview
     id="namedview3"
     pagecolor="#ffffff"
     bordercolor="#000000"
     borderopacity="0.25"
     inkscape:showpageshadow="2"
     inkscape:pageopacity="0.0"
     inkscape:pagecheckerboard="0"
     inkscape:deskcolor="#d1d1d1" />
  <path
     id="path1"
     style="baseline-shift:baseline;display:inline;overflow:visible;vector-effect:none;fill:#000000;stroke:none;stroke-linecap:butt;stroke-linejoin:miter;enable-background:accumulate;stop-color:#000000;stop-opacity:1;opacity:1"
     d="M 5 2.4375 C 3.5914329 2.4375 2.4375 3.5914329 2.4375 5 L 2.4375 19 C 2.4375 20.408567 3.5914329 21.5625 5 21.5625 L 11 21.5625 A 0.5625 0.5625 0 0 0 11.5625 21 A 0.5625 0.5625 0 0 0 11 20.4375 L 5 20.4375 C 4.1994281 20.4375 3.5625 19.800572 3.5625 19 L 3.5625 5 C 3.5625 4.1994281 4.1994281 3.5625 5 3.5625 L 19 3.5625 C 19.800572 3.5625 20.4375 4.1994281 20.4375 5 L 20.4375 11 A 0.5625 0.5625 0 0 0 21 11.5625 A 0.5625 0.5625 0 0 0 21.5625 11 L 21.5625 5 C 21.5625 3.5914329 20.408567 2.4375 19 2.4375 L 5 2.4375 z M 12 11.435547 A 0.5625 0.5625 0 0 0 11.601562 11.601562 A 0.5625 0.5625 0 0 0 11.601562 12.398438 L 19.640625 20.4375 L 15 20.4375 A 0.5625 0.5625 0 0 0 14.4375 21 A 0.5625 0.5625 0 0 0 15 21.5625 L 20.960938 21.5625 L 21 21.5625 A 0.5625 0.5625 0 0 0 21.054688 21.560547 A 0.56255625 0.56255625 0 0 0 21.085938 21.556641 A 0.56255625 0.56255625 0 0 0 21.146484 21.542969 A 0.5625 0.5625 0 0 0 21.214844 21.519531 A 0.5625 0.5625 0 0 0 21.28125 21.486328 A 0.5625 0.5625 0 0 0 21.398438 21.398438 A 0.5625 0.5625 0 0 0 21.486328 21.28125 A 0.5625 0.5625 0 0 0 21.519531 21.214844 A 0.5625 0.5625 0 0 0 21.542969 21.146484 A 0.56255625 0.56255625 0 0 0 21.554688 21.097656 A 0.5625 0.5625 0 0 0 21.556641 21.085938 A 0.56255625 0.56255625 0 0 0 21.560547 21.054688 A 0.5625 0.5625 0 0 0 21.5625 21 L 21.5625 20.960938 L 21.5625 15 A 0.5625 0.5625 0 0 0 21 14.4375 A 0.5625 0.5625 0 0 0 20.4375 15 L 20.4375 19.640625 L 12.398438 11.601562 A 0.5625 0.5625 0 0 0 12 11.435547 z " />
</svg>
