<?xml version="1.0" encoding="UTF-8" standalone="no"?>
<svg
   width="24"
   height="24"
   viewBox="0 0 24 24"
   fill="none"
   stroke="currentColor"
   stroke-width="1.125"
   stroke-linecap="round"
   stroke-linejoin="round"
   version="1.1"
   id="svg1"
   sodipodi:docname=".tmp_squircle.svg"
   xmlns:inkscape="http://www.inkscape.org/namespaces/inkscape"
   xmlns:sodipodi="http://sodipodi.sourceforge.net/DTD/sodipodi-0.dtd"
   xmlns="http://www.w3.org/2000/svg"
   xmlns:svg="http://www.w3.org/2000/svg">
  <defs
     id="defs1" />
  <sodipodi:namedview
     id="namedview1"
     pagecolor="#ffffff"
     bordercolor="#000000"
     borderopacity="0.25"
     inkscape:showpageshadow="2"
     inkscape:pageopacity="0.0"
     inkscape:pagecheckerboard="0"
     inkscape:deskcolor="#d1d1d1" />
  <path
     id="path1"
     style="baseline-shift:baseline;display:inline;overflow:visible;vector-effect:none;fill:#000000;stroke:none;stroke-linecap:butt;stroke-linejoin:miter;enable-background:accumulate;stop-color:#000000;stop-opacity:1;opacity:1"
     d="M 12 2.4375 C 8.353125 2.4375 5.9291204 2.8755671 4.4023438 4.4023438 C 2.8755671 5.9291205 2.4375 8.353125 2.4375 12 C 2.4375 15.646875 2.8755671 18.07088 4.4023438 19.597656 C 5.9291205 21.124433 8.353125 21.5625 12 21.5625 C 15.646875 21.5625 18.07088 21.124433 19.597656 19.597656 C 21.124433 18.07088 21.5625 15.646875 21.5625 12 C 21.5625 8.353125 21.124433 5.9291204 19.597656 4.4023438 C 18.07088 2.8755671 15.646875 2.4375 12 2.4375 z M 12 3.5625 C 15.553125 3.5625 17.629511 4.0240423 18.802734 5.1972656 C 19.975958 6.3704889 20.4375 8.446875 20.4375 12 C 20.4375 15.553125 19.975958 17.629511 18.802734 18.802734 C 17.629511 19.975958 15.553125 20.4375 12 20.4375 C 8.446875 20.4375 6.3704889 19.975958 5.1972656 18.802734 C 4.0240423 17.629511 3.5625 15.553125 3.5625 12 C 3.5625 8.446875 4.0240423 6.3704889 5.1972656 5.1972656 C 6.3704889 4.0240423 8.446875 3.5625 12 3.5625 z " />
</svg>
