<?xml version="1.0" encoding="UTF-8" standalone="no"?>
<svg
   width="24"
   height="24"
   viewBox="0 0 24 24"
   fill="none"
   stroke="currentColor"
   stroke-width="1.125"
   stroke-linecap="round"
   stroke-linejoin="round"
   version="1.1"
   id="svg3"
   sodipodi:docname=".tmp_subscript.svg"
   xmlns:inkscape="http://www.inkscape.org/namespaces/inkscape"
   xmlns:sodipodi="http://sodipodi.sourceforge.net/DTD/sodipodi-0.dtd"
   xmlns="http://www.w3.org/2000/svg"
   xmlns:svg="http://www.w3.org/2000/svg">
  <defs
     id="defs3" />
  <sodipodi:namedview
     id="namedview3"
     pagecolor="#ffffff"
     bordercolor="#000000"
     borderopacity="0.25"
     inkscape:showpageshadow="2"
     inkscape:pageopacity="0.0"
     inkscape:pagecheckerboard="0"
     inkscape:deskcolor="#d1d1d1" />
  <path
     id="path1"
     style="baseline-shift:baseline;display:inline;overflow:visible;vector-effect:none;fill:#000000;stroke:none;stroke-linecap:butt;stroke-linejoin:miter;enable-background:accumulate;stop-color:#000000;stop-opacity:1;opacity:1"
     d="M 4 4.4355469 A 0.5625 0.5625 0 0 0 3.6015625 4.6015625 A 0.5625 0.5625 0 0 0 3.6015625 5.3984375 L 7.203125 9 L 3.6015625 12.601562 A 0.5625 0.5625 0 0 0 3.6015625 13.398438 A 0.5625 0.5625 0 0 0 4.3984375 13.398438 L 8 9.796875 L 11.601562 13.398438 A 0.5625 0.5625 0 0 0 12.398438 13.398438 A 0.5625 0.5625 0 0 0 12.398438 12.601562 L 8.796875 9 L 12.398438 5.3984375 A 0.5625 0.5625 0 0 0 12.398438 4.6015625 A 0.5625 0.5625 0 0 0 11.601562 4.6015625 L 8 8.203125 L 4.3984375 4.6015625 A 0.5625 0.5625 0 0 0 4 4.4355469 z M 17.935547 11.435547 C 17.486861 11.435811 17.034071 11.54883 16.623047 11.78125 A 0.56255625 0.56255625 0 0 0 16.621094 11.78125 C 16.085885 12.087084 15.676526 12.573466 15.470703 13.152344 A 0.5625 0.5625 0 0 0 15.8125 13.869141 A 0.5625 0.5625 0 0 0 16.529297 13.529297 C 16.643162 13.209051 16.874181 12.934004 17.177734 12.759766 C 17.816126 12.398824 18.609445 12.531467 19.095703 13.080078 C 19.315647 13.337103 19.4375 13.667111 19.4375 14 C 19.4375 14.461992 19.211668 14.787746 18.794922 15.123047 C 18.378176 15.458347 17.790976 15.741616 17.259766 15.992188 C 16.691494 16.260239 16.205045 16.568996 15.880859 17.070312 C 15.556674 17.57163 15.4375 18.195 15.4375 19 A 0.56255625 0.56255625 0 0 0 16 19.5625 L 20 19.5625 A 0.5625 0.5625 0 0 0 20.5625 19 A 0.5625 0.5625 0 0 0 20 18.4375 L 16.673828 18.4375 C 16.719078 18.174654 16.731908 17.822429 16.824219 17.679688 C 16.985034 17.431006 17.248506 17.23976 17.740234 17.007812 C 18.269024 16.758383 18.931746 16.4572 19.5 16 C 20.068254 15.5428 20.5625 14.868008 20.5625 14 C 20.5625 13.394362 20.343564 12.806235 19.945312 12.34375 A 0.56255625 0.56255625 0 0 0 19.941406 12.337891 C 19.524657 11.866013 18.969279 11.571475 18.380859 11.472656 C 18.233755 11.447951 18.085109 11.435459 17.935547 11.435547 z " />
</svg>
