<?xml version="1.0" encoding="UTF-8" standalone="no"?>
<svg
   width="24"
   height="24"
   viewBox="0 0 24 24"
   fill="none"
   stroke="currentColor"
   stroke-width="1.125"
   stroke-linecap="round"
   stroke-linejoin="round"
   version="1.1"
   id="svg5"
   sodipodi:docname=".tmp_sun-moon.svg"
   xmlns:inkscape="http://www.inkscape.org/namespaces/inkscape"
   xmlns:sodipodi="http://sodipodi.sourceforge.net/DTD/sodipodi-0.dtd"
   xmlns="http://www.w3.org/2000/svg"
   xmlns:svg="http://www.w3.org/2000/svg">
  <defs
     id="defs5" />
  <sodipodi:namedview
     id="namedview5"
     pagecolor="#ffffff"
     bordercolor="#000000"
     borderopacity="0.25"
     inkscape:showpageshadow="2"
     inkscape:pageopacity="0.0"
     inkscape:pagecheckerboard="0"
     inkscape:deskcolor="#d1d1d1" />
  <path
     id="path1"
     style="baseline-shift:baseline;display:inline;overflow:visible;vector-effect:none;fill:#000000;stroke:none;stroke-linecap:butt;stroke-linejoin:miter;enable-background:accumulate;stop-color:#000000;stop-opacity:1;opacity:1"
     d="M 12 1.4375 A 0.5625 0.5625 0 0 0 11.4375 2 L 11.4375 4 A 0.5625 0.5625 0 0 0 12 4.5625 A 0.5625 0.5625 0 0 0 12.5625 4 L 12.5625 2 A 0.5625 0.5625 0 0 0 12 1.4375 z M 19 4.4355469 A 0.5625 0.5625 0 0 0 18.601562 4.6015625 L 17.345703 5.8574219 A 0.5625 0.5625 0 0 0 17.345703 6.6542969 A 0.5625 0.5625 0 0 0 18.142578 6.6542969 L 19.398438 5.3984375 A 0.5625 0.5625 0 0 0 19.398438 4.6015625 A 0.5625 0.5625 0 0 0 19 4.4355469 z M 12 7.4375 A 0.5625 0.5625 0 0 0 11.4375 8 A 0.5625 0.5625 0 0 0 12 8.5625 C 13.905141 8.5625 15.4375 10.094859 15.4375 12 A 0.5625 0.5625 0 0 0 16 12.5625 A 0.5625 0.5625 0 0 0 16.5625 12 C 16.5625 9.4868634 14.513137 7.4375 12 7.4375 z M 7.6914062 8.5878906 C 7.6227318 8.5900291 7.5541504 8.5987969 7.484375 8.6152344 C 2.5144559 9.7941214 0.7474495 16.031153 4.359375 19.642578 C 7.9713005 23.254004 14.206567 21.485707 15.384766 16.515625 A 0.5625 0.5625 0 0 0 15.384766 16.513672 C 15.516938 15.955513 15.166343 15.413029 14.748047 15.197266 C 14.329751 14.981502 13.830566 14.952838 13.365234 15.154297 C 11.912676 15.782948 10.502995 15.362192 9.5703125 14.429688 C 8.6376295 13.497229 8.2173284 12.087443 8.8457031 10.634766 C 9.0475248 10.169389 9.0165878 9.6718917 8.8007812 9.2539062 C 8.6119504 8.8881688 8.1721273 8.5729213 7.6914062 8.5878906 z M 7.7773438 9.6972656 L 7.7773438 9.6992188 C 7.7775871 9.7038341 7.7760592 9.7216487 7.8007812 9.7695312 C 7.8502243 9.8652953 7.865678 10.064877 7.8125 10.1875 C 7.0019742 12.061275 7.5479401 13.999345 8.7734375 15.224609 C 9.9989349 16.449874 11.938879 16.996429 13.8125 16.185547 C 13.936168 16.132007 14.136968 16.148026 14.232422 16.197266 C 14.280147 16.221886 14.298527 16.220559 14.302734 16.220703 C 14.30141 16.222987 14.294999 16.230813 14.289062 16.255859 C 13.300634 20.425417 8.1844387 21.875425 5.1542969 18.845703 C 2.1245951 15.816422 3.5741604 10.700997 7.7421875 9.7109375 C 7.7668614 9.705125 7.7750556 9.6982954 7.7773438 9.6972656 z M 20 11.4375 A 0.5625 0.5625 0 0 0 19.4375 12 A 0.5625 0.5625 0 0 0 20 12.5625 L 22 12.5625 A 0.5625 0.5625 0 0 0 22.5625 12 A 0.5625 0.5625 0 0 0 22 11.4375 L 20 11.4375 z " />
</svg>
