<?xml version="1.0" encoding="UTF-8" standalone="no"?>
<svg
   width="24"
   height="24"
   viewBox="0 0 24 24"
   fill="none"
   stroke="currentColor"
   stroke-width="1.125"
   stroke-linecap="round"
   stroke-linejoin="round"
   version="1.1"
   id="svg8"
   sodipodi:docname=".tmp_sunrise.svg"
   xmlns:inkscape="http://www.inkscape.org/namespaces/inkscape"
   xmlns:sodipodi="http://sodipodi.sourceforge.net/DTD/sodipodi-0.dtd"
   xmlns="http://www.w3.org/2000/svg"
   xmlns:svg="http://www.w3.org/2000/svg">
  <defs
     id="defs8" />
  <sodipodi:namedview
     id="namedview8"
     pagecolor="#ffffff"
     bordercolor="#000000"
     borderopacity="0.25"
     inkscape:showpageshadow="2"
     inkscape:pageopacity="0.0"
     inkscape:pagecheckerboard="0"
     inkscape:deskcolor="#d1d1d1" />
  <path
     id="path1"
     style="baseline-shift:baseline;display:inline;overflow:visible;vector-effect:none;fill:#000000;stroke:none;stroke-linecap:butt;stroke-linejoin:miter;enable-background:accumulate;stop-color:#000000;stop-opacity:1;opacity:1"
     d="M 12 1.4355469 A 0.56255625 0.56255625 0 0 0 11.601562 1.6015625 L 7.6015625 5.6015625 A 0.5625 0.5625 0 0 0 7.6015625 6.3984375 A 0.5625 0.5625 0 0 0 8.3984375 6.3984375 L 11.4375 3.359375 L 11.4375 10 A 0.5625 0.5625 0 0 0 12 10.5625 A 0.5625 0.5625 0 0 0 12.5625 10 L 12.5625 3.359375 L 15.601562 6.3984375 A 0.5625 0.5625 0 0 0 16.398438 6.3984375 A 0.5625 0.5625 0 0 0 16.398438 5.6015625 L 12.398438 1.6015625 A 0.56255625 0.56255625 0 0 0 12 1.4355469 z M 4.9296875 10.369141 A 0.5625 0.5625 0 0 0 4.5332031 10.533203 A 0.5625 0.5625 0 0 0 4.5332031 11.328125 L 5.9414062 12.738281 A 0.5625 0.5625 0 0 0 6.7382812 12.738281 A 0.5625 0.5625 0 0 0 6.7382812 11.941406 L 5.328125 10.533203 A 0.5625 0.5625 0 0 0 4.9296875 10.369141 z M 19.070312 10.369141 A 0.5625 0.5625 0 0 0 18.671875 10.533203 L 17.261719 11.941406 A 0.5625 0.5625 0 0 0 17.261719 12.738281 A 0.5625 0.5625 0 0 0 18.058594 12.738281 L 19.466797 11.328125 A 0.5625 0.5625 0 0 0 19.466797 10.533203 A 0.5625 0.5625 0 0 0 19.070312 10.369141 z M 12 13.4375 C 10.875 13.4375 9.7429304 13.810321 8.8769531 14.580078 C 8.0109758 15.349835 7.4375 16.526042 7.4375 18 A 0.5625 0.5625 0 0 0 8 18.5625 A 0.5625 0.5625 0 0 0 8.5625 18 C 8.5625 16.807292 8.9890242 15.983497 9.6230469 15.419922 C 10.25707 14.856346 11.125 14.5625 12 14.5625 C 12.875 14.5625 13.74293 14.856346 14.376953 15.419922 C 15.010976 15.983497 15.4375 16.807292 15.4375 18 A 0.5625 0.5625 0 0 0 16 18.5625 A 0.5625 0.5625 0 0 0 16.5625 18 C 16.5625 16.526042 15.989024 15.349835 15.123047 14.580078 C 14.25707 13.810321 13.125 13.4375 12 13.4375 z M 2 17.4375 A 0.5625 0.5625 0 0 0 1.4375 18 A 0.5625 0.5625 0 0 0 2 18.5625 L 4 18.5625 A 0.5625 0.5625 0 0 0 4.5625 18 A 0.5625 0.5625 0 0 0 4 17.4375 L 2 17.4375 z M 20 17.4375 A 0.5625 0.5625 0 0 0 19.4375 18 A 0.5625 0.5625 0 0 0 20 18.5625 L 22 18.5625 A 0.5625 0.5625 0 0 0 22.5625 18 A 0.5625 0.5625 0 0 0 22 17.4375 L 20 17.4375 z M 2 21.4375 A 0.5625 0.5625 0 0 0 1.4375 22 A 0.5625 0.5625 0 0 0 2 22.5625 L 22 22.5625 A 0.5625 0.5625 0 0 0 22.5625 22 A 0.5625 0.5625 0 0 0 22 21.4375 L 2 21.4375 z " />
</svg>
