<?xml version="1.0" encoding="UTF-8" standalone="no"?>
<svg
   width="24"
   height="24"
   viewBox="0 0 24 24"
   fill="none"
   stroke="currentColor"
   stroke-width="1.125"
   stroke-linecap="round"
   stroke-linejoin="round"
   version="1.1"
   id="svg6"
   sodipodi:docname=".tmp_swords.svg"
   xmlns:inkscape="http://www.inkscape.org/namespaces/inkscape"
   xmlns:sodipodi="http://sodipodi.sourceforge.net/DTD/sodipodi-0.dtd"
   xmlns="http://www.w3.org/2000/svg"
   xmlns:svg="http://www.w3.org/2000/svg">
  <defs
     id="defs6" />
  <sodipodi:namedview
     id="namedview6"
     pagecolor="#ffffff"
     bordercolor="#000000"
     borderopacity="0.25"
     inkscape:showpageshadow="2"
     inkscape:pageopacity="0.0"
     inkscape:pagecheckerboard="0"
     inkscape:deskcolor="#d1d1d1" />
  <path
     id="polyline1"
     style="baseline-shift:baseline;display:inline;overflow:visible;vector-effect:none;fill:#000000;stroke:none;stroke-linecap:butt;stroke-linejoin:miter;enable-background:accumulate;stop-color:#000000;stop-opacity:1;opacity:1"
     d="M 3 2.4375 A 0.56255625 0.56255625 0 0 0 2.4375 3 L 2.4375 6 A 0.56255625 0.56255625 0 0 0 2.6015625 6.3984375 L 13.703125 17.5 L 12.601562 18.601562 A 0.5625 0.5625 0 0 0 12.601562 19.398438 A 0.5625 0.5625 0 0 0 13.398438 19.398438 L 14.896484 17.900391 A 0.5625 0.5625 0 0 0 14.898438 17.898438 A 0.5625 0.5625 0 0 0 14.900391 17.896484 L 16 16.796875 L 19.203125 20 L 18.601562 20.601562 A 0.5625 0.5625 0 0 0 18.601562 21.398438 A 0.5625 0.5625 0 0 0 19.398438 21.398438 L 20.396484 20.400391 A 0.5625 0.5625 0 0 0 20.398438 20.398438 A 0.5625 0.5625 0 0 0 20.400391 20.396484 L 21.398438 19.398438 A 0.5625 0.5625 0 0 0 21.398438 18.601562 A 0.5625 0.5625 0 0 0 20.601562 18.601562 L 20 19.203125 L 16.796875 16 L 17.896484 14.900391 A 0.5625 0.5625 0 0 0 17.898438 14.898438 A 0.5625 0.5625 0 0 0 17.900391 14.896484 L 19.398438 13.398438 A 0.5625 0.5625 0 0 0 19.398438 12.601562 A 0.5625 0.5625 0 0 0 18.601562 12.601562 L 17.5 13.703125 L 6.3984375 2.6015625 A 0.56255625 0.56255625 0 0 0 6 2.4375 L 3 2.4375 z M 18 2.4375 A 0.56255625 0.56255625 0 0 0 17.601562 2.6015625 L 14.101562 6.1015625 A 0.5625 0.5625 0 0 0 14.101562 6.8984375 A 0.5625 0.5625 0 0 0 14.898438 6.8984375 L 18.232422 3.5625 L 20.4375 3.5625 L 20.4375 5.7675781 L 17.101562 9.1015625 A 0.5625 0.5625 0 0 0 17.101562 9.8984375 A 0.5625 0.5625 0 0 0 17.898438 9.8984375 L 21.398438 6.3984375 A 0.56255625 0.56255625 0 0 0 21.5625 6 L 21.5625 3 A 0.56255625 0.56255625 0 0 0 21 2.4375 L 18 2.4375 z M 3.5625 3.5625 L 5.7675781 3.5625 L 16.703125 14.5 L 14.5 16.703125 L 3.5625 5.7675781 L 3.5625 3.5625 z M 5 13.435547 A 0.5625 0.5625 0 0 0 4.6015625 13.601562 A 0.5625 0.5625 0 0 0 4.6015625 14.398438 L 6.7167969 16.513672 A 0.5625 0.5625 0 0 0 6.6015625 16.601562 L 4 19.203125 L 3.3984375 18.601562 A 0.5625 0.5625 0 0 0 3 18.4375 A 0.5625 0.5625 0 0 0 2.6015625 18.601562 A 0.5625 0.5625 0 0 0 2.6015625 19.398438 L 3.5996094 20.396484 A 0.5625 0.5625 0 0 0 3.6015625 20.398438 A 0.5625 0.5625 0 0 0 3.6035156 20.400391 L 4.6015625 21.398438 A 0.5625 0.5625 0 0 0 5.3984375 21.398438 A 0.5625 0.5625 0 0 0 5.3984375 20.601562 L 4.796875 20 L 7.3984375 17.398438 A 0.5625 0.5625 0 0 0 7.4863281 17.283203 L 8.6015625 18.398438 A 0.5625 0.5625 0 0 0 9.3984375 18.398438 A 0.5625 0.5625 0 0 0 9.3984375 17.601562 L 5.3984375 13.601562 A 0.5625 0.5625 0 0 0 5 13.435547 z " />
</svg>
