<?xml version="1.0" encoding="UTF-8" standalone="no"?>
<svg
   width="24"
   height="24"
   viewBox="0 0 24 24"
   fill="none"
   stroke="currentColor"
   stroke-width="1.125"
   stroke-linecap="round"
   stroke-linejoin="round"
   version="1.1"
   id="svg2"
   sodipodi:docname=".tmp_tags.svg"
   xmlns:inkscape="http://www.inkscape.org/namespaces/inkscape"
   xmlns:sodipodi="http://sodipodi.sourceforge.net/DTD/sodipodi-0.dtd"
   xmlns="http://www.w3.org/2000/svg"
   xmlns:svg="http://www.w3.org/2000/svg">
  <defs
     id="defs2" />
  <sodipodi:namedview
     id="namedview2"
     pagecolor="#ffffff"
     bordercolor="#000000"
     borderopacity="0.25"
     inkscape:showpageshadow="2"
     inkscape:pageopacity="0.0"
     inkscape:pagecheckerboard="0"
     inkscape:deskcolor="#d1d1d1" />
  <path
     id="path1"
     style="baseline-shift:baseline;display:inline;overflow:visible;vector-effect:none;fill:#000000;stroke:none;stroke-linecap:butt;stroke-linejoin:miter;enable-background:accumulate;stop-color:#000000;stop-opacity:1;opacity:1"
     d="M 7 1.4375 C 6.1437177 1.4375 5.4375 2.1437177 5.4375 3 L 5.4375 9.171875 C 5.4376451 9.8512207 5.7070575 10.504078 6.1875 10.984375 L 12.898438 17.693359 C 14.052672 18.854955 15.950114 18.854352 17.103516 17.691406 L 21.691406 13.103516 L 21.693359 13.101562 C 22.854303 11.947973 22.854303 10.052026 21.693359 8.8984375 L 21.691406 8.8964844 L 14.984375 2.1875 C 14.504078 1.7070575 13.851221 1.4376451 13.171875 1.4375 L 7 1.4375 z M 7 2.5625 L 13.171875 2.5625 C 13.553309 2.5625815 13.917826 2.71462 14.1875 2.984375 L 20.898438 9.6933594 A 0.56255625 0.56255625 0 0 0 20.900391 9.6953125 C 21.629949 10.418913 21.629949 11.581086 20.900391 12.304688 A 0.56255625 0.56255625 0 0 0 20.898438 12.306641 L 16.306641 16.898438 A 0.56255625 0.56255625 0 0 0 16.304688 16.900391 C 15.581088 17.629949 14.418912 17.629949 13.695312 16.900391 A 0.56255625 0.56255625 0 0 0 13.693359 16.898438 L 6.984375 10.1875 C 6.71462 9.9178265 6.5625815 9.5533086 6.5625 9.171875 L 6.5625 3 C 6.5625 2.7517128 6.7517128 2.5625 7 2.5625 z M 10.5 5.4375 C 9.9198601 5.4375 9.4375 5.9198601 9.4375 6.5 C 9.4375 7.0801399 9.9198601 7.5625 10.5 7.5625 C 11.08014 7.5625 11.5625 7.0801399 11.5625 6.5 C 11.5625 5.9198601 11.08014 5.4375 10.5 5.4375 z M 2 6.4375 A 0.5625 0.5625 0 0 0 1.4375 7 L 1.4375 13.171875 C 1.4376451 13.851221 1.7070575 14.504078 2.1875 14.984375 L 8.8984375 21.693359 C 9.9566542 22.757791 11.657784 22.860084 12.835938 21.929688 A 0.5625 0.5625 0 0 0 12.927734 21.140625 A 0.5625 0.5625 0 0 0 12.138672 21.046875 C 11.401601 21.628945 10.356857 21.567053 9.6953125 20.900391 A 0.56255625 0.56255625 0 0 0 9.6933594 20.898438 L 2.984375 14.1875 C 2.71462 13.917826 2.5625815 13.553309 2.5625 13.171875 L 2.5625 7 A 0.5625 0.5625 0 0 0 2 6.4375 z " />
</svg>
