<?xml version="1.0" encoding="UTF-8" standalone="no"?>
<svg
   width="24"
   height="24"
   viewBox="0 0 24 24"
   fill="none"
   stroke="currentColor"
   stroke-width="1.125"
   stroke-linecap="round"
   stroke-linejoin="round"
   version="1.1"
   id="svg3"
   sodipodi:docname=".tmp_target.svg"
   xmlns:inkscape="http://www.inkscape.org/namespaces/inkscape"
   xmlns:sodipodi="http://sodipodi.sourceforge.net/DTD/sodipodi-0.dtd"
   xmlns="http://www.w3.org/2000/svg"
   xmlns:svg="http://www.w3.org/2000/svg">
  <defs
     id="defs3" />
  <sodipodi:namedview
     id="namedview3"
     pagecolor="#ffffff"
     bordercolor="#000000"
     borderopacity="0.25"
     inkscape:showpageshadow="2"
     inkscape:pageopacity="0.0"
     inkscape:pagecheckerboard="0"
     inkscape:deskcolor="#d1d1d1" />
  <path
     id="circle1"
     style="baseline-shift:baseline;display:inline;overflow:visible;vector-effect:none;fill:#000000;stroke:none;stroke-linecap:butt;stroke-linejoin:miter;enable-background:accumulate;stop-color:#000000;stop-opacity:1;opacity:1"
     d="M 12 1.4375 C 6.1731549 1.4375 1.4375 6.1731549 1.4375 12 C 1.4375 17.826845 6.1731549 22.5625 12 22.5625 C 17.826845 22.5625 22.5625 17.826845 22.5625 12 C 22.5625 6.1731549 17.826845 1.4375 12 1.4375 z M 12 2.5625 C 17.21885 2.5625 21.4375 6.7811501 21.4375 12 C 21.4375 17.21885 17.21885 21.4375 12 21.4375 C 6.7811501 21.4375 2.5625 17.21885 2.5625 12 C 2.5625 6.7811501 6.7811501 2.5625 12 2.5625 z M 12 5.4375 C 8.3822939 5.4375 5.4375 8.3822939 5.4375 12 C 5.4375 15.617706 8.3822939 18.5625 12 18.5625 C 15.617706 18.5625 18.5625 15.617706 18.5625 12 C 18.5625 8.3822939 15.617706 5.4375 12 5.4375 z M 12 6.5625 C 15.009711 6.5625 17.4375 8.9902891 17.4375 12 C 17.4375 15.009711 15.009711 17.4375 12 17.4375 C 8.9902891 17.4375 6.5625 15.009711 6.5625 12 C 6.5625 8.9902891 8.9902891 6.5625 12 6.5625 z M 12 9.4375 C 10.591433 9.4375 9.4375 10.591433 9.4375 12 C 9.4375 13.408567 10.591433 14.5625 12 14.5625 C 13.408567 14.5625 14.5625 13.408567 14.5625 12 C 14.5625 10.591433 13.408567 9.4375 12 9.4375 z M 12 10.5625 C 12.800572 10.5625 13.4375 11.199428 13.4375 12 C 13.4375 12.800572 12.800572 13.4375 12 13.4375 C 11.199428 13.4375 10.5625 12.800572 10.5625 12 C 10.5625 11.199428 11.199428 10.5625 12 10.5625 z " />
</svg>
