<?xml version="1.0" encoding="UTF-8" standalone="no"?>
<svg
   width="24"
   height="24"
   viewBox="0 0 24 24"
   fill="none"
   stroke="currentColor"
   stroke-width="1.125"
   stroke-linecap="round"
   stroke-linejoin="round"
   version="1.1"
   id="svg4"
   sodipodi:docname=".tmp_tool-case.svg"
   xmlns:inkscape="http://www.inkscape.org/namespaces/inkscape"
   xmlns:sodipodi="http://sodipodi.sourceforge.net/DTD/sodipodi-0.dtd"
   xmlns="http://www.w3.org/2000/svg"
   xmlns:svg="http://www.w3.org/2000/svg">
  <defs
     id="defs4" />
  <sodipodi:namedview
     id="namedview4"
     pagecolor="#ffffff"
     bordercolor="#000000"
     borderopacity="0.25"
     inkscape:showpageshadow="2"
     inkscape:pageopacity="0.0"
     inkscape:pagecheckerboard="0"
     inkscape:deskcolor="#d1d1d1" />
  <path
     id="path1"
     style="baseline-shift:baseline;display:inline;overflow:visible;vector-effect:none;fill:#000000;stroke:none;stroke-linecap:butt;stroke-linejoin:miter;enable-background:accumulate;stop-color:#000000;stop-opacity:1;opacity:1"
     d="M 16.564453 2.2714844 C 15.970764 2.2837224 15.407871 2.6358169 15.158203 3.2089844 L 14.501953 4.7128906 C 13.987458 4.4549995 13.372208 4.3613579 12.730469 4.5253906 L 11.279297 4.8164062 L 10.376953 3.5703125 C 9.7505428 2.6394839 8.6737249 2.2979545 7.7324219 2.4921875 C 6.7911189 2.6864205 5.9392138 3.4265438 5.7324219 4.5292969 A 0.56255625 0.56255625 0 0 0 5.7246094 4.5917969 L 5.6113281 6.1015625 L 4.28125 6.4296875 A 0.56255625 0.56255625 0 0 0 4.2519531 6.4375 C 3.1336697 6.7797957 2.4915247 7.7690038 2.4414062 8.7597656 C 2.3959569 9.658226 2.8346525 10.601221 3.7207031 11.107422 C 3.5408381 11.363733 3.4354926 11.67619 3.4375 12.009766 L 3.4375 19 C 3.4375 20.408567 4.5914329 21.5625 6 21.5625 L 18 21.5625 C 19.408567 21.5625 20.5625 20.408567 20.5625 19 L 20.5625 12 C 20.5625 11.360503 20.169409 10.804888 19.613281 10.564453 L 21.601562 5.8320312 C 21.938373 5.0295846 21.540668 4.0911464 20.730469 3.7734375 L 17.158203 2.3769531 C 16.964051 2.3011203 16.76235 2.267405 16.564453 2.2714844 z M 16.582031 3.3925781 C 16.637605 3.3921818 16.693841 3.4018932 16.75 3.4238281 L 20.320312 4.8203125 C 20.555712 4.9126215 20.660359 5.1633371 20.5625 5.3964844 L 18.445312 10.4375 L 15.121094 10.4375 L 14.548828 9.5839844 L 15.306641 8.6796875 L 15.306641 8.6777344 C 16.102598 7.7503099 16.078902 6.519847 15.535156 5.6503906 C 15.494538 5.5854409 15.450867 5.5221991 15.404297 5.4609375 L 16.189453 3.6582031 A 0.56255625 0.56255625 0 0 0 16.189453 3.65625 C 16.261525 3.4903549 16.41531 3.393767 16.582031 3.3925781 z M 8.1640625 3.5644531 C 8.6395239 3.5287326 9.1173932 3.7148434 9.4433594 4.1992188 A 0.56255625 0.56255625 0 0 0 9.4550781 4.2148438 L 10.580078 5.7695312 A 0.56255625 0.56255625 0 0 0 11.144531 5.9902344 L 12.964844 5.6269531 A 0.56255625 0.56255625 0 0 0 12.998047 5.6191406 C 13.713105 5.4312497 14.268286 5.7463641 14.582031 6.2480469 C 14.895777 6.7497296 14.935045 7.3865835 14.453125 7.9472656 A 0.56255625 0.56255625 0 0 0 14.449219 7.9511719 L 13.416016 9.1835938 A 0.56255625 0.56255625 0 0 0 13.378906 9.8574219 L 13.767578 10.4375 L 4.9941406 10.4375 A 0.56255625 0.56255625 0 0 0 4.9902344 10.4375 L 4.9882812 10.4375 L 4.4394531 10.210938 C 3.7968783 9.9385973 3.5376836 9.3842076 3.5664062 8.8164062 C 3.5951707 8.2477774 3.9093487 7.7191415 4.578125 7.5136719 L 4.5800781 7.5136719 L 6.2753906 7.0957031 A 0.56255625 0.56255625 0 0 0 6.7011719 6.5917969 L 6.8417969 4.7285156 C 6.9675104 4.0787536 7.4246112 3.7044182 7.9609375 3.59375 C 8.0283147 3.5798471 8.0961394 3.5695561 8.1640625 3.5644531 z M 4.9980469 11.5625 L 19 11.5625 C 19.248287 11.5625 19.4375 11.751713 19.4375 12 L 19.4375 19 C 19.4375 19.800572 18.800572 20.4375 18 20.4375 L 6 20.4375 C 5.1994281 20.4375 4.5625 19.800572 4.5625 19 L 4.5625 12.005859 A 0.56255625 0.56255625 0 0 0 4.5625 12.001953 C 4.5610058 11.753658 4.7497572 11.563985 4.9980469 11.5625 z M 10 14.4375 A 0.5625 0.5625 0 0 0 9.4375 15 A 0.5625 0.5625 0 0 0 10 15.5625 L 14 15.5625 A 0.5625 0.5625 0 0 0 14.5625 15 A 0.5625 0.5625 0 0 0 14 14.4375 L 10 14.4375 z " />
</svg>
