<?xml version="1.0" encoding="UTF-8" standalone="no"?>
<svg
   width="24"
   height="24"
   viewBox="0 0 24 24"
   fill="none"
   stroke="currentColor"
   stroke-width="1.125"
   stroke-linecap="round"
   stroke-linejoin="round"
   version="1.1"
   id="svg7"
   sodipodi:docname=".tmp_train-front-tunnel.svg"
   xmlns:inkscape="http://www.inkscape.org/namespaces/inkscape"
   xmlns:sodipodi="http://sodipodi.sourceforge.net/DTD/sodipodi-0.dtd"
   xmlns="http://www.w3.org/2000/svg"
   xmlns:svg="http://www.w3.org/2000/svg">
  <defs
     id="defs7" />
  <sodipodi:namedview
     id="namedview7"
     pagecolor="#ffffff"
     bordercolor="#000000"
     borderopacity="0.25"
     inkscape:showpageshadow="2"
     inkscape:pageopacity="0.0"
     inkscape:pagecheckerboard="0"
     inkscape:deskcolor="#d1d1d1" />
  <path
     id="path1"
     style="baseline-shift:baseline;display:inline;overflow:visible;vector-effect:none;fill:#000000;stroke:none;stroke-linecap:butt;stroke-linejoin:miter;enable-background:accumulate;stop-color:#000000;stop-opacity:1;opacity:1"
     d="M 12 1.4375 C 6.1731556 1.4375 1.4375 6.1731514 1.4375 12 L 1.4375 22 A 0.5625 0.5625 0 0 0 2 22.5625 A 0.5625 0.5625 0 0 0 2.5625 22 L 2.5625 12 C 2.5625 6.7811461 6.7811497 2.5625 12 2.5625 C 17.21885 2.5625 21.4375 6.7811461 21.4375 12 L 21.4375 22 A 0.5625 0.5625 0 0 0 22 22.5625 A 0.5625 0.5625 0 0 0 22.5625 22 L 22.5625 12 C 22.5625 6.1731514 17.826844 1.4375 12 1.4375 z M 12 5.4375 C 10.832095 5.4375 9.7344092 5.743879 8.7832031 6.28125 A 0.5625 0.5625 0 0 0 8.6582031 6.3554688 C 6.7321252 7.5004892 5.4375 9.6019843 5.4375 12 L 5.4375 15 C 5.4375 16.873093 6.5768888 18.488094 8.1972656 19.189453 L 6.53125 21.6875 A 0.5625 0.5625 0 0 0 6.6875 22.46875 A 0.5625 0.5625 0 0 0 7.46875 22.3125 L 9.3339844 19.513672 C 9.551314 19.54566 9.7740177 19.5625 10 19.5625 L 14 19.5625 C 14.225982 19.5625 14.448686 19.54566 14.666016 19.513672 L 16.53125 22.3125 A 0.5625 0.5625 0 0 0 17.3125 22.46875 A 0.5625 0.5625 0 0 0 17.46875 21.6875 L 15.802734 19.189453 C 17.423111 18.488094 18.5625 16.873093 18.5625 15 L 18.5625 12 C 18.5625 9.6019846 17.267874 7.5004893 15.341797 6.3554688 A 0.5625 0.5625 0 0 0 15.216797 6.28125 C 14.265591 5.7438792 13.167904 5.4375 12 5.4375 z M 12 6.5625 C 12.877159 6.5625 13.704891 6.7680319 14.4375 7.1347656 L 14.4375 8.1992188 C 14.4375 8.981882 14.147439 9.4985715 13.703125 9.8671875 C 13.258811 10.235804 12.633333 10.4375 12 10.4375 C 11.366667 10.4375 10.741189 10.235804 10.296875 9.8671875 C 9.8525609 9.4985715 9.5625 8.9818819 9.5625 8.1992188 L 9.5625 7.1347656 C 10.295109 6.768032 11.122841 6.5625 12 6.5625 z M 8.4375 7.8867188 L 8.4375 8.1992188 C 8.4375 9.2832213 8.8974391 10.167705 9.578125 10.732422 C 10.258811 11.297139 11.133333 11.5625 12 11.5625 C 12.866667 11.5625 13.741189 11.297139 14.421875 10.732422 C 15.102561 10.167705 15.5625 9.2832214 15.5625 8.1992188 L 15.5625 7.8867188 C 16.711985 8.8826621 17.4375 10.354708 17.4375 12 L 17.4375 15 C 17.4375 16.905141 15.905141 18.4375 14 18.4375 L 10 18.4375 C 8.0948586 18.4375 6.5625 16.905141 6.5625 15 L 6.5625 12 C 6.5625 10.354708 7.2880154 8.8826621 8.4375 7.8867188 z M 10 14.4375 A 0.5625 0.5625 0 0 0 9.4375 15 A 0.5625 0.5625 0 0 0 10 15.5625 L 10.009766 15.5625 A 0.5625 0.5625 0 0 0 10.572266 15 A 0.5625 0.5625 0 0 0 10.009766 14.4375 L 10 14.4375 z M 14 14.4375 A 0.5625 0.5625 0 0 0 13.4375 15 A 0.5625 0.5625 0 0 0 14 15.5625 L 14.009766 15.5625 A 0.5625 0.5625 0 0 0 14.572266 15 A 0.5625 0.5625 0 0 0 14.009766 14.4375 L 14 14.4375 z " />
</svg>
