<?xml version="1.0" encoding="UTF-8" standalone="no"?>
<svg
   width="24"
   height="24"
   viewBox="0 0 24 24"
   fill="none"
   stroke="currentColor"
   stroke-width="1.125"
   stroke-linecap="round"
   stroke-linejoin="round"
   version="1.1"
   id="svg1"
   sodipodi:docname=".tmp_triangle-right.svg"
   xmlns:inkscape="http://www.inkscape.org/namespaces/inkscape"
   xmlns:sodipodi="http://sodipodi.sourceforge.net/DTD/sodipodi-0.dtd"
   xmlns="http://www.w3.org/2000/svg"
   xmlns:svg="http://www.w3.org/2000/svg">
  <defs
     id="defs1" />
  <sodipodi:namedview
     id="namedview1"
     pagecolor="#ffffff"
     bordercolor="#000000"
     borderopacity="0.25"
     inkscape:showpageshadow="2"
     inkscape:pageopacity="0.0"
     inkscape:pagecheckerboard="0"
     inkscape:deskcolor="#d1d1d1" />
  <path
     id="path1"
     style="baseline-shift:baseline;display:inline;overflow:visible;vector-effect:none;fill:#000000;stroke:none;stroke-linecap:butt;stroke-linejoin:miter;enable-background:accumulate;stop-color:#000000;stop-opacity:1;opacity:1"
     d="M 21.224609 3.359375 C 21.115978 3.3635785 21.006938 3.3810378 20.898438 3.4101562 C 20.609105 3.4878053 20.322951 3.6468201 20.054688 3.8554688 A 0.56255625 0.56255625 0 0 0 20.046875 3.8632812 L 2.2539062 18.255859 C 1.9901975 18.460966 1.7855574 18.670012 1.6425781 18.914062 C 1.4995989 19.158113 1.4161542 19.472444 1.5136719 19.78125 C 1.6111899 20.090056 1.8687964 20.304408 2.1289062 20.414062 C 2.3890159 20.523718 2.6738636 20.5625 3 20.5625 L 20 20.5625 C 21.408567 20.5625 22.5625 19.408567 22.5625 18 L 22.5625 5 C 22.5625 4.3306818 22.324777 3.7037924 21.761719 3.4589844 C 21.585763 3.3824819 21.405661 3.3523692 21.224609 3.359375 z M 21.269531 4.4882812 C 21.288459 4.4870247 21.304121 4.4891238 21.310547 4.4902344 L 21.3125 4.4902344 L 21.314453 4.4902344 L 21.316406 4.4921875 C 21.338666 4.5061594 21.4375 4.596236 21.4375 5 L 21.4375 18 C 21.4375 18.800572 20.800572 19.4375 20 19.4375 L 3 19.4375 C 2.8454595 19.4375 2.7782256 19.415184 2.6992188 19.396484 C 2.7544937 19.326094 2.8068123 19.252254 2.9453125 19.144531 A 0.56255625 0.56255625 0 0 0 2.953125 19.136719 L 20.748047 4.7441406 C 21.019136 4.5340391 21.19382 4.4933076 21.269531 4.4882812 z " />
</svg>
