<?xml version="1.0" encoding="UTF-8" standalone="no"?>
<svg
   width="24"
   height="24"
   viewBox="0 0 24 24"
   fill="none"
   stroke="currentColor"
   stroke-width="1.125"
   stroke-linecap="round"
   stroke-linejoin="round"
   version="1.1"
   id="svg3"
   sodipodi:docname=".tmp_type.svg"
   xmlns:inkscape="http://www.inkscape.org/namespaces/inkscape"
   xmlns:sodipodi="http://sodipodi.sourceforge.net/DTD/sodipodi-0.dtd"
   xmlns="http://www.w3.org/2000/svg"
   xmlns:svg="http://www.w3.org/2000/svg">
  <defs
     id="defs3" />
  <sodipodi:namedview
     id="namedview3"
     pagecolor="#ffffff"
     bordercolor="#000000"
     borderopacity="0.25"
     inkscape:showpageshadow="2"
     inkscape:pageopacity="0.0"
     inkscape:pagecheckerboard="0"
     inkscape:deskcolor="#d1d1d1" />
  <path
     id="path1"
     style="baseline-shift:baseline;display:inline;overflow:visible;vector-effect:none;fill:#000000;stroke:none;stroke-linecap:butt;stroke-linejoin:miter;enable-background:accumulate;stop-color:#000000;stop-opacity:1;opacity:1"
     d="M 5 3.4375 C 4.1437177 3.4375 3.4375 4.1437177 3.4375 5 L 3.4375 7 A 0.5625 0.5625 0 0 0 4 7.5625 A 0.5625 0.5625 0 0 0 4.5625 7 L 4.5625 5 C 4.5625 4.7517128 4.7517128 4.5625 5 4.5625 L 11.4375 4.5625 L 11.4375 19.4375 L 9 19.4375 A 0.5625 0.5625 0 0 0 8.4375 20 A 0.5625 0.5625 0 0 0 9 20.5625 L 12 20.5625 L 15 20.5625 A 0.5625 0.5625 0 0 0 15.5625 20 A 0.5625 0.5625 0 0 0 15 19.4375 L 12.5625 19.4375 L 12.5625 4.5625 L 19 4.5625 C 19.248287 4.5625 19.4375 4.7517128 19.4375 5 L 19.4375 7 A 0.5625 0.5625 0 0 0 20 7.5625 A 0.5625 0.5625 0 0 0 20.5625 7 L 20.5625 5 C 20.5625 4.1437177 19.856282 3.4375 19 3.4375 L 5 3.4375 z " />
</svg>
