<?xml version="1.0" encoding="UTF-8" standalone="no"?>
<svg
   width="24"
   height="24"
   viewBox="0 0 24 24"
   fill="none"
   stroke="currentColor"
   stroke-width="1.125"
   stroke-linecap="round"
   stroke-linejoin="round"
   version="1.1"
   id="svg2"
   sodipodi:docname=".tmp_undo-dot.svg"
   xmlns:inkscape="http://www.inkscape.org/namespaces/inkscape"
   xmlns:sodipodi="http://sodipodi.sourceforge.net/DTD/sodipodi-0.dtd"
   xmlns="http://www.w3.org/2000/svg"
   xmlns:svg="http://www.w3.org/2000/svg">
  <defs
     id="defs2" />
  <sodipodi:namedview
     id="namedview2"
     pagecolor="#ffffff"
     bordercolor="#000000"
     borderopacity="0.25"
     inkscape:showpageshadow="2"
     inkscape:pageopacity="0.0"
     inkscape:pagecheckerboard="0"
     inkscape:deskcolor="#d1d1d1" />
  <path
     id="path1"
     style="baseline-shift:baseline;display:inline;overflow:visible;vector-effect:none;fill:#000000;stroke:none;stroke-linecap:butt;stroke-linejoin:miter;enable-background:accumulate;stop-color:#000000;stop-opacity:1;opacity:1"
     d="M 3 6.4375 A 0.5625 0.5625 0 0 0 2.4375 7 L 2.4375 13 A 0.56255625 0.56255625 0 0 0 2.4394531 13.025391 A 0.5625 0.5625 0 0 0 2.4394531 13.054688 A 0.56255625 0.56255625 0 0 0 2.4492188 13.113281 A 0.5625 0.5625 0 0 0 2.453125 13.126953 A 0.56255625 0.56255625 0 0 0 2.4628906 13.164062 A 0.5625 0.5625 0 0 0 2.4785156 13.208984 A 0.56255625 0.56255625 0 0 0 2.484375 13.224609 A 0.5625 0.5625 0 0 0 2.5117188 13.279297 A 0.56255625 0.56255625 0 0 0 2.5136719 13.28125 A 0.56255625 0.56255625 0 0 0 2.515625 13.283203 A 0.5625 0.5625 0 0 0 2.5820312 13.376953 A 0.5625 0.5625 0 0 0 2.5898438 13.384766 A 0.56255625 0.56255625 0 0 0 2.6210938 13.416016 A 0.5625 0.5625 0 0 0 2.6542969 13.441406 A 0.56255625 0.56255625 0 0 0 2.6621094 13.447266 A 0.5625 0.5625 0 0 0 2.7128906 13.482422 A 0.56255625 0.56255625 0 0 0 2.7265625 13.490234 A 0.5625 0.5625 0 0 0 2.7753906 13.515625 A 0.56255625 0.56255625 0 0 0 2.7929688 13.523438 A 0.5625 0.5625 0 0 0 2.84375 13.539062 A 0.56255625 0.56255625 0 0 0 2.8613281 13.544922 A 0.5625 0.5625 0 0 0 2.9023438 13.552734 A 0.56255625 0.56255625 0 0 0 3 13.5625 A 0.5625 0.5625 0 0 0 3.0234375 13.5625 L 9 13.5625 A 0.5625 0.5625 0 0 0 9.5625 13 A 0.5625 0.5625 0 0 0 9 12.4375 L 4.4667969 12.4375 L 6.375 10.71875 C 9.1072678 8.2749326 12.600031 8.03554 15.441406 9.3046875 C 18.282781 10.573835 20.43416 13.334278 20.4375 17 A 0.5625 0.5625 0 0 0 21 17.5625 A 0.5625 0.5625 0 0 0 21.5625 17 C 21.558756 12.890827 19.108478 9.7102895 15.900391 8.2773438 C 14.296347 7.5608707 12.491895 7.2760742 10.707031 7.5136719 C 8.9221674 7.7512696 7.1563984 8.5111335 5.625 9.8808594 A 0.56255625 0.56255625 0 0 0 5.6230469 9.8828125 L 3.5625 11.736328 L 3.5625 7 A 0.5625 0.5625 0 0 0 3 6.4375 z M 12 15.4375 C 11.143718 15.4375 10.4375 16.143718 10.4375 17 C 10.4375 17.856282 11.143718 18.5625 12 18.5625 C 12.856282 18.5625 13.5625 17.856282 13.5625 17 C 13.5625 16.143718 12.856282 15.4375 12 15.4375 z M 12 16.5625 C 12.248287 16.5625 12.4375 16.751713 12.4375 17 C 12.4375 17.248287 12.248287 17.4375 12 17.4375 C 11.751713 17.4375 11.5625 17.248287 11.5625 17 C 11.5625 16.751713 11.751713 16.5625 12 16.5625 z " />
</svg>
