<?xml version="1.0" encoding="UTF-8" standalone="no"?>
<svg
   width="24"
   height="24"
   viewBox="0 0 24 24"
   fill="none"
   stroke="currentColor"
   stroke-width="1.125"
   stroke-linecap="round"
   stroke-linejoin="round"
   version="1.1"
   id="svg5"
   sodipodi:docname=".tmp_unlink.svg"
   xmlns:inkscape="http://www.inkscape.org/namespaces/inkscape"
   xmlns:sodipodi="http://sodipodi.sourceforge.net/DTD/sodipodi-0.dtd"
   xmlns="http://www.w3.org/2000/svg"
   xmlns:svg="http://www.w3.org/2000/svg">
  <defs
     id="defs5" />
  <sodipodi:namedview
     id="namedview5"
     pagecolor="#ffffff"
     bordercolor="#000000"
     borderopacity="0.25"
     inkscape:showpageshadow="2"
     inkscape:pageopacity="0.0"
     inkscape:pagecheckerboard="0"
     inkscape:deskcolor="#d1d1d1" />
  <path
     id="path1"
     style="baseline-shift:baseline;display:inline;overflow:visible;vector-effect:none;fill:#000000;stroke:none;stroke-linecap:butt;stroke-linejoin:miter;enable-background:accumulate;stop-color:#000000;stop-opacity:1;opacity:1"
     d="M 8 1.4375 A 0.5625 0.5625 0 0 0 7.4375 2 L 7.4375 5 A 0.5625 0.5625 0 0 0 8 5.5625 A 0.5625 0.5625 0 0 0 8.5625 5 L 8.5625 2 A 0.5625 0.5625 0 0 0 8 1.4375 z M 16.945312 1.5078125 C 15.550797 1.5078125 14.156513 2.0263714 13.080078 3.0644531 A 0.56255625 0.56255625 0 0 0 13.074219 3.0703125 L 11.353516 4.78125 A 0.5625 0.5625 0 0 0 11.351562 5.5761719 A 0.5625 0.5625 0 0 0 12.146484 5.578125 L 13.861328 3.875 C 15.586945 2.2108671 18.30368 2.2108671 20.029297 3.875 C 21.794376 5.5839155 21.840834 8.3806053 20.134766 10.148438 A 0.56255625 0.56255625 0 0 0 20.130859 10.173828 L 18.443359 11.851562 A 0.5625 0.5625 0 0 0 18.441406 12.646484 A 0.5625 0.5625 0 0 0 19.236328 12.648438 L 20.957031 10.939453 A 0.56255625 0.56255625 0 0 0 20.964844 10.898438 C 23.065615 8.6917677 23.002772 5.1888767 20.810547 3.0664062 A 0.56255625 0.56255625 0 0 0 20.810547 3.0644531 C 19.734112 2.0263682 18.33983 1.5078125 16.945312 1.5078125 z M 2 7.4375 A 0.5625 0.5625 0 0 0 1.4375 8 A 0.5625 0.5625 0 0 0 2 8.5625 L 5 8.5625 A 0.5625 0.5625 0 0 0 5.5625 8 A 0.5625 0.5625 0 0 0 5 7.4375 L 2 7.4375 z M 5.1699219 11.185547 A 0.5625 0.5625 0 0 0 4.7714844 11.351562 L 3.0625 13.0625 A 0.56255625 0.56255625 0 0 0 3.0546875 13.070312 C 0.92685781 15.275175 0.98802385 18.802212 3.1894531 20.933594 A 0.56255625 0.56255625 0 0 0 3.1894531 20.935547 C 5.3423235 23.01171 8.7670514 23.01171 10.919922 20.935547 A 0.56255625 0.56255625 0 0 0 10.927734 20.927734 L 12.638672 19.216797 A 0.5625 0.5625 0 0 0 12.638672 18.421875 A 0.5625 0.5625 0 0 0 11.841797 18.421875 L 10.138672 20.125 C 8.4130551 21.789133 5.6963198 21.789133 3.9707031 20.125 C 2.205624 18.416084 2.1591665 15.619394 3.8652344 13.851562 L 5.5683594 12.148438 A 0.5625 0.5625 0 0 0 5.5683594 11.351562 A 0.5625 0.5625 0 0 0 5.1699219 11.185547 z M 19 15.4375 A 0.5625 0.5625 0 0 0 18.4375 16 A 0.5625 0.5625 0 0 0 19 16.5625 L 22 16.5625 A 0.5625 0.5625 0 0 0 22.5625 16 A 0.5625 0.5625 0 0 0 22 15.4375 L 19 15.4375 z M 16 18.4375 A 0.5625 0.5625 0 0 0 15.4375 19 L 15.4375 22 A 0.5625 0.5625 0 0 0 16 22.5625 A 0.5625 0.5625 0 0 0 16.5625 22 L 16.5625 19 A 0.5625 0.5625 0 0 0 16 18.4375 z " />
</svg>
