<?xml version="1.0" encoding="UTF-8" standalone="no"?>
<svg
   width="24"
   height="24"
   viewBox="0 0 24 24"
   fill="none"
   stroke="currentColor"
   stroke-width="1.125"
   stroke-linecap="round"
   stroke-linejoin="round"
   version="1.1"
   id="svg2"
   sodipodi:docname=".tmp_user-lock.svg"
   xmlns:inkscape="http://www.inkscape.org/namespaces/inkscape"
   xmlns:sodipodi="http://sodipodi.sourceforge.net/DTD/sodipodi-0.dtd"
   xmlns="http://www.w3.org/2000/svg"
   xmlns:svg="http://www.w3.org/2000/svg">
  <defs
     id="defs2" />
  <sodipodi:namedview
     id="namedview2"
     pagecolor="#ffffff"
     bordercolor="#000000"
     borderopacity="0.25"
     inkscape:showpageshadow="2"
     inkscape:pageopacity="0.0"
     inkscape:pagecheckerboard="0"
     inkscape:deskcolor="#d1d1d1" />
  <path
     id="circle1"
     style="baseline-shift:baseline;display:inline;overflow:visible;vector-effect:none;fill:#000000;stroke:none;stroke-linecap:butt;stroke-linejoin:miter;enable-background:accumulate;stop-color:#000000;stop-opacity:1;opacity:1"
     d="M 10 2.4375 C 7.4868634 2.4375 5.4375 4.4868634 5.4375 7 C 5.4375 9.5131366 7.4868634 11.5625 10 11.5625 C 12.513137 11.5625 14.5625 9.5131366 14.5625 7 C 14.5625 4.4868634 12.513137 2.4375 10 2.4375 z M 10 3.5625 C 11.905141 3.5625 13.4375 5.0948586 13.4375 7 C 13.4375 8.9051414 11.905141 10.4375 10 10.4375 C 8.0948586 10.4375 6.5625 8.9051414 6.5625 7 C 6.5625 5.0948586 8.0948586 3.5625 10 3.5625 z M 17 11.4375 C 16.375 11.4375 15.74293 11.643654 15.251953 12.080078 C 14.760976 12.516502 14.4375 13.192709 14.4375 14 L 14.4375 15.4375 L 13.898438 15.4375 C 13.098496 15.4375 12.4375 16.098496 12.4375 16.898438 L 12.4375 20.101562 C 12.4375 20.901505 13.098495 21.5625 13.898438 21.5625 L 20.101562 21.5625 C 20.901505 21.5625 21.5625 20.901504 21.5625 20.101562 L 21.5625 16.898438 C 21.5625 16.098496 20.901504 15.4375 20.101562 15.4375 L 19.5625 15.4375 L 19.5625 14 C 19.5625 13.192709 19.239024 12.516502 18.748047 12.080078 C 18.25707 11.643654 17.625 11.4375 17 11.4375 z M 17 12.5625 C 17.375 12.5625 17.74293 12.68968 18.001953 12.919922 C 18.260976 13.150164 18.4375 13.473959 18.4375 14 L 18.4375 15.4375 L 15.5625 15.4375 L 15.5625 14 C 15.5625 13.473959 15.739024 13.150164 15.998047 12.919922 C 16.25707 12.68968 16.625 12.5625 17 12.5625 z M 7 14.4375 C 4.4868634 14.4375 2.4375 16.486863 2.4375 19 L 2.4375 21 A 0.5625 0.5625 0 0 0 3 21.5625 A 0.5625 0.5625 0 0 0 3.5625 21 L 3.5625 19 C 3.5625 17.094859 5.0948586 15.5625 7 15.5625 L 10.300781 15.5625 A 0.5625 0.5625 0 0 0 10.863281 15 A 0.5625 0.5625 0 0 0 10.300781 14.4375 L 7 14.4375 z M 13.898438 16.5625 L 20.101562 16.5625 C 20.297714 16.5625 20.4375 16.702287 20.4375 16.898438 L 20.4375 20.101562 C 20.4375 20.297714 20.297714 20.4375 20.101562 20.4375 L 13.898438 20.4375 C 13.702286 20.4375 13.5625 20.297714 13.5625 20.101562 L 13.5625 16.898438 C 13.5625 16.702288 13.702286 16.5625 13.898438 16.5625 z " />
</svg>
