<?xml version="1.0" encoding="UTF-8" standalone="no"?>
<svg
   width="24"
   height="24"
   viewBox="0 0 24 24"
   fill="none"
   stroke="currentColor"
   stroke-width="1.125"
   stroke-linecap="round"
   stroke-linejoin="round"
   version="1.1"
   id="svg2"
   sodipodi:docname=".tmp_wallet-cards.svg"
   xmlns:inkscape="http://www.inkscape.org/namespaces/inkscape"
   xmlns:sodipodi="http://sodipodi.sourceforge.net/DTD/sodipodi-0.dtd"
   xmlns="http://www.w3.org/2000/svg"
   xmlns:svg="http://www.w3.org/2000/svg">
  <defs
     id="defs2" />
  <sodipodi:namedview
     id="namedview2"
     pagecolor="#ffffff"
     bordercolor="#000000"
     borderopacity="0.25"
     inkscape:showpageshadow="2"
     inkscape:pageopacity="0.0"
     inkscape:pagecheckerboard="0"
     inkscape:deskcolor="#d1d1d1" />
  <path
     id="rect1"
     style="baseline-shift:baseline;display:inline;overflow:visible;vector-effect:none;fill:#000000;stroke:none;stroke-linecap:butt;stroke-linejoin:miter;enable-background:accumulate;stop-color:#000000;stop-opacity:1;opacity:1"
     d="M 5 2.4375 C 3.5901047 2.4375 2.4375 3.5901047 2.4375 5 L 2.4375 11 L 2.4375 19 C 2.4375 20.409895 3.5901047 21.5625 5 21.5625 L 19 21.5625 C 20.409895 21.5625 21.5625 20.409895 21.5625 19 L 21.5625 11 L 21.5625 5 C 21.5625 3.5901047 20.409895 2.4375 19 2.4375 L 5 2.4375 z M 5 3.5625 L 19 3.5625 C 19.806105 3.5625 20.4375 4.1938953 20.4375 5 L 20.4375 6.8828125 C 20.026809 6.6024983 19.531534 6.4375 19 6.4375 L 5 6.4375 C 4.4684655 6.4375 3.9731907 6.6024984 3.5625 6.8828125 L 3.5625 5 C 3.5625 4.1938953 4.1938953 3.5625 5 3.5625 z M 5 7.5625 L 19 7.5625 C 19.800572 7.5625 20.4375 8.1994281 20.4375 9 L 20.4375 10.4375 L 18.099609 10.4375 C 17.118151 10.4375 16.21926 10.889684 15.613281 11.490234 L 14.542969 12.365234 A 0.56255625 0.56255625 0 0 0 14.501953 12.402344 C 13.109113 13.795184 10.990496 13.795184 9.5976562 12.402344 A 0.56255625 0.56255625 0 0 0 9.5566406 12.365234 L 8.4941406 11.494141 C 7.8640319 10.769114 6.9220238 10.4375 6 10.4375 L 3.5625 10.4375 L 3.5625 9 C 3.5625 8.1994281 4.1994281 7.5625 5 7.5625 z M 3.5625 11.5625 L 6 11.5625 C 6.659375 11.5625 7.2978422 11.815614 7.6679688 12.259766 A 0.56255625 0.56255625 0 0 0 7.7441406 12.335938 L 8.84375 13.234375 C 10.639697 14.988453 13.45992 14.988465 15.255859 13.234375 L 15.277344 13.216797 L 16.355469 12.335938 A 0.56255625 0.56255625 0 0 0 16.398438 12.296875 C 16.792374 11.90294 17.487109 11.5625 18.099609 11.5625 L 20.4375 11.5625 L 20.4375 19 C 20.4375 19.806105 19.806105 20.4375 19 20.4375 L 5 20.4375 C 4.1938953 20.4375 3.5625 19.806105 3.5625 19 L 3.5625 11.5625 z " />
</svg>
