<?xml version="1.0" encoding="UTF-8" standalone="no"?>
<svg
   width="24"
   height="24"
   viewBox="0 0 24 24"
   fill="none"
   stroke="currentColor"
   stroke-width="1.125"
   stroke-linecap="round"
   stroke-linejoin="round"
   version="1.1"
   id="svg9"
   sodipodi:docname=".tmp_wand.svg"
   xmlns:inkscape="http://www.inkscape.org/namespaces/inkscape"
   xmlns:sodipodi="http://sodipodi.sourceforge.net/DTD/sodipodi-0.dtd"
   xmlns="http://www.w3.org/2000/svg"
   xmlns:svg="http://www.w3.org/2000/svg">
  <defs
     id="defs9" />
  <sodipodi:namedview
     id="namedview9"
     pagecolor="#ffffff"
     bordercolor="#000000"
     borderopacity="0.25"
     inkscape:showpageshadow="2"
     inkscape:pageopacity="0.0"
     inkscape:pagecheckerboard="0"
     inkscape:deskcolor="#d1d1d1" />
  <path
     id="path1"
     style="baseline-shift:baseline;display:inline;overflow:visible;vector-effect:none;fill:#000000;stroke:none;stroke-linecap:butt;stroke-linejoin:miter;enable-background:accumulate;stop-color:#000000;stop-opacity:1;opacity:1"
     d="M 15 1.4375 A 0.5625 0.5625 0 0 0 14.4375 2 L 14.4375 4 A 0.5625 0.5625 0 0 0 15 4.5625 A 0.5625 0.5625 0 0 0 15.5625 4 L 15.5625 2 A 0.5625 0.5625 0 0 0 15 1.4375 z M 11 4.4355469 A 0.5625 0.5625 0 0 0 10.601562 4.6015625 A 0.5625 0.5625 0 0 0 10.601562 5.3984375 L 11.802734 6.5976562 A 0.5625 0.5625 0 0 0 12.597656 6.5976562 A 0.5625 0.5625 0 0 0 12.597656 5.8027344 L 11.398438 4.6015625 A 0.5625 0.5625 0 0 0 11 4.4355469 z M 19 4.4355469 A 0.5625 0.5625 0 0 0 18.601562 4.6015625 L 17.402344 5.8027344 A 0.5625 0.5625 0 0 0 17.402344 6.5976562 A 0.5625 0.5625 0 0 0 18.197266 6.5976562 L 19.398438 5.3984375 A 0.5625 0.5625 0 0 0 19.398438 4.6015625 A 0.5625 0.5625 0 0 0 19 4.4355469 z M 8 8.4375 A 0.5625 0.5625 0 0 0 7.4375 9 A 0.5625 0.5625 0 0 0 8 9.5625 L 10 9.5625 A 0.5625 0.5625 0 0 0 10.5625 9 A 0.5625 0.5625 0 0 0 10 8.4375 L 8 8.4375 z M 15 8.4375 A 0.5625 0.5625 0 0 0 14.4375 9 A 0.5625 0.5625 0 0 0 15 9.5625 L 15.009766 9.5625 A 0.5625 0.5625 0 0 0 15.572266 9 A 0.5625 0.5625 0 0 0 15.009766 8.4375 L 15 8.4375 z M 20 8.4375 A 0.5625 0.5625 0 0 0 19.4375 9 A 0.5625 0.5625 0 0 0 20 9.5625 L 22 9.5625 A 0.5625 0.5625 0 0 0 22.5625 9 A 0.5625 0.5625 0 0 0 22 8.4375 L 20 8.4375 z M 17.800781 11.238281 A 0.5625 0.5625 0 0 0 17.402344 11.402344 A 0.5625 0.5625 0 0 0 17.402344 12.197266 L 18.601562 13.398438 A 0.5625 0.5625 0 0 0 19.398438 13.398438 A 0.5625 0.5625 0 0 0 19.398438 12.601562 L 18.197266 11.402344 A 0.5625 0.5625 0 0 0 17.800781 11.238281 z M 12 11.435547 A 0.5625 0.5625 0 0 0 11.601562 11.601562 L 2.6015625 20.601562 A 0.5625 0.5625 0 0 0 2.6015625 21.398438 A 0.5625 0.5625 0 0 0 3.3984375 21.398438 L 12.398438 12.398438 A 0.5625 0.5625 0 0 0 12.398438 11.601562 A 0.5625 0.5625 0 0 0 12 11.435547 z M 15 13.4375 A 0.5625 0.5625 0 0 0 14.4375 14 L 14.4375 16 A 0.5625 0.5625 0 0 0 15 16.5625 A 0.5625 0.5625 0 0 0 15.5625 16 L 15.5625 14 A 0.5625 0.5625 0 0 0 15 13.4375 z " />
</svg>
