<?xml version="1.0" encoding="UTF-8" standalone="no"?>
<svg
   width="24"
   height="24"
   viewBox="0 0 24 24"
   fill="none"
   stroke="currentColor"
   stroke-width="1.125"
   stroke-linecap="round"
   stroke-linejoin="round"
   version="1.1"
   id="svg3"
   sodipodi:docname=".tmp_washing-machine.svg"
   xmlns:inkscape="http://www.inkscape.org/namespaces/inkscape"
   xmlns:sodipodi="http://sodipodi.sourceforge.net/DTD/sodipodi-0.dtd"
   xmlns="http://www.w3.org/2000/svg"
   xmlns:svg="http://www.w3.org/2000/svg">
  <defs
     id="defs3" />
  <sodipodi:namedview
     id="namedview3"
     pagecolor="#ffffff"
     bordercolor="#000000"
     borderopacity="0.25"
     inkscape:showpageshadow="2"
     inkscape:pageopacity="0.0"
     inkscape:pagecheckerboard="0"
     inkscape:deskcolor="#d1d1d1" />
  <path
     id="path1"
     style="baseline-shift:baseline;display:inline;overflow:visible;vector-effect:none;fill:#000000;stroke:none;stroke-linecap:butt;stroke-linejoin:miter;enable-background:accumulate;stop-color:#000000;stop-opacity:1;opacity:1"
     d="M 5 1.4375 C 3.5901047 1.4375 2.4375 2.5901047 2.4375 4 L 2.4375 20 C 2.4375 21.409895 3.5901047 22.5625 5 22.5625 L 19 22.5625 C 20.409895 22.5625 21.5625 21.409895 21.5625 20 L 21.5625 4 C 21.5625 2.5901047 20.409895 1.4375 19 1.4375 L 5 1.4375 z M 5 2.5625 L 19 2.5625 C 19.806105 2.5625 20.4375 3.1938953 20.4375 4 L 20.4375 20 C 20.4375 20.806105 19.806105 21.4375 19 21.4375 L 5 21.4375 C 4.1938953 21.4375 3.5625 20.806105 3.5625 20 L 3.5625 6.5625 L 6 6.5625 A 0.5625 0.5625 0 0 0 6.5625 6 A 0.5625 0.5625 0 0 0 6 5.4375 L 3.5625 5.4375 L 3.5625 4 C 3.5625 3.1938953 4.1938953 2.5625 5 2.5625 z M 17 5.4375 A 0.5625 0.5625 0 0 0 16.4375 6 A 0.5625 0.5625 0 0 0 17 6.5625 L 17.009766 6.5625 A 0.5625 0.5625 0 0 0 17.572266 6 A 0.5625 0.5625 0 0 0 17.009766 5.4375 L 17 5.4375 z M 12 7.4375 C 11.875415 7.4375 11.75347 7.444792 11.634766 7.4570312 C 8.7392841 7.6465882 6.4375 10.057708 6.4375 13 C 6.4375 16.040401 8.8947091 18.518292 11.925781 18.558594 A 0.5625 0.5625 0 0 0 12 18.5625 C 12.120469 18.5625 12.238825 18.552518 12.357422 18.544922 C 12.36013 18.544649 12.362529 18.543248 12.365234 18.542969 C 15.260716 18.353412 17.5625 15.942292 17.5625 13 C 17.5625 9.9595986 15.105291 7.4817083 12.074219 7.4414062 A 0.5625 0.5625 0 0 0 12 7.4375 z M 12 8.5625 C 14.457426 8.5625 16.4375 10.542574 16.4375 13 C 16.4375 14.316157 15.869945 15.495206 14.964844 16.306641 C 15.030612 16.042411 15.0625 15.770834 15.0625 15.5 C 15.0625 14.75 14.814679 13.99293 14.294922 13.408203 C 13.775164 12.823476 12.973958 12.4375 12 12.4375 C 11.307292 12.4375 10.858497 12.198476 10.544922 11.845703 C 10.231346 11.49293 10.0625 11 10.0625 10.5 C 10.0625 9.9999999 10.231346 9.5070696 10.544922 9.1542969 C 10.8193 8.8456208 11.197704 8.6247925 11.751953 8.5742188 C 11.831132 8.5669939 11.913412 8.5625 12 8.5625 z M 9.0351562 9.6933594 C 8.969388 9.9575888 8.9375 10.229166 8.9375 10.5 C 8.9375 11.25 9.1853207 12.00707 9.7050781 12.591797 C 10.224836 13.176524 11.026042 13.5625 12 13.5625 C 12.692708 13.5625 13.141503 13.801524 13.455078 14.154297 C 13.768654 14.50707 13.9375 15 13.9375 15.5 C 13.9375 16 13.768654 16.49293 13.455078 16.845703 C 13.1807 17.154379 12.802296 17.375207 12.248047 17.425781 C 12.165712 17.430294 12.083496 17.4375 12 17.4375 C 9.5425738 17.4375 7.5625 15.457426 7.5625 13 C 7.5625 11.683843 8.1300552 10.504794 9.0351562 9.6933594 z " />
</svg>
