<?xml version="1.0" encoding="UTF-8" standalone="no"?>
<svg
   width="24"
   height="24"
   viewBox="0 0 24 24"
   fill="none"
   stroke="currentColor"
   stroke-width="1.125"
   stroke-linecap="round"
   stroke-linejoin="round"
   version="1.1"
   id="svg5"
   sodipodi:docname=".tmp_waves-ladder.svg"
   xmlns:inkscape="http://www.inkscape.org/namespaces/inkscape"
   xmlns:sodipodi="http://sodipodi.sourceforge.net/DTD/sodipodi-0.dtd"
   xmlns="http://www.w3.org/2000/svg"
   xmlns:svg="http://www.w3.org/2000/svg">
  <defs
     id="defs5" />
  <sodipodi:namedview
     id="namedview5"
     pagecolor="#ffffff"
     bordercolor="#000000"
     borderopacity="0.25"
     inkscape:showpageshadow="2"
     inkscape:pageopacity="0.0"
     inkscape:pagecheckerboard="0"
     inkscape:deskcolor="#d1d1d1" />
  <path
     id="path1"
     style="baseline-shift:baseline;display:inline;overflow:visible;vector-effect:none;fill:#000000;stroke:none;stroke-linecap:butt;stroke-linejoin:miter;enable-background:accumulate;stop-color:#000000;stop-opacity:1;opacity:1"
     d="M 9 4.4375 C 7.5914329 4.4375 6.4375 5.5914329 6.4375 7 L 6.4375 9 L 6.4375 13 L 6.4375 17.728516 C 5.9159808 18.142175 5.4722735 18.4375 4.5 18.4375 C 3.3442308 18.4375 2.959375 18.068359 2.359375 17.568359 A 0.5625 0.5625 0 0 0 1.5683594 17.640625 A 0.5625 0.5625 0 0 0 1.640625 18.431641 C 2.240625 18.931641 3.0557692 19.5625 4.5 19.5625 C 5.8938209 19.5625 6.7177768 18.944173 7.3417969 18.445312 C 7.3445633 18.443101 7.348804 18.44166 7.3515625 18.439453 C 7.9765621 17.939449 8.4 17.5625 9.5 17.5625 C 10.655769 17.5625 11.040625 17.931641 11.640625 18.431641 C 12.240625 18.931641 13.055769 19.5625 14.5 19.5625 C 15.9 19.5625 16.726563 18.939453 17.351562 18.439453 C 17.976562 17.939453 18.4 17.5625 19.5 17.5625 C 20.655769 17.5625 21.040625 17.931641 21.640625 18.431641 A 0.5625 0.5625 0 0 0 22.431641 18.359375 A 0.5625 0.5625 0 0 0 22.359375 17.568359 C 21.759375 17.068359 20.944231 16.4375 19.5 16.4375 C 18.683842 16.4375 18.062566 16.650111 17.5625 16.925781 L 17.5625 7 C 17.5625 6.1994281 18.199428 5.5625 19 5.5625 A 0.5625 0.5625 0 0 0 19.5625 5 A 0.5625 0.5625 0 0 0 19 4.4375 C 17.591433 4.4375 16.4375 5.5914329 16.4375 7 L 16.4375 8.4375 L 7.5625 8.4375 L 7.5625 7 C 7.5625 6.1994281 8.1994281 5.5625 9 5.5625 A 0.5625 0.5625 0 0 0 9.5625 5 A 0.5625 0.5625 0 0 0 9 4.4375 z M 7.5625 9.5625 L 16.4375 9.5625 L 16.4375 12.4375 L 7.5625 12.4375 L 7.5625 9.5625 z M 7.5625 13.5625 L 16.4375 13.5625 L 16.4375 17.728516 C 15.915979 18.142177 15.472276 18.4375 14.5 18.4375 C 13.344231 18.4375 12.959375 18.068359 12.359375 17.568359 C 11.759375 17.068359 10.944231 16.4375 9.5 16.4375 C 8.6838401 16.4375 8.0625661 16.65011 7.5625 16.925781 L 7.5625 13.5625 z " />
</svg>
