<?xml version="1.0" encoding="UTF-8" standalone="no"?>
<svg
   width="24"
   height="24"
   viewBox="0 0 24 24"
   fill="none"
   stroke="currentColor"
   stroke-width="1.125"
   stroke-linecap="round"
   stroke-linejoin="round"
   version="1.1"
   id="svg7"
   sodipodi:docname=".tmp_webhook-off.svg"
   xmlns:inkscape="http://www.inkscape.org/namespaces/inkscape"
   xmlns:sodipodi="http://sodipodi.sourceforge.net/DTD/sodipodi-0.dtd"
   xmlns="http://www.w3.org/2000/svg"
   xmlns:svg="http://www.w3.org/2000/svg">
  <defs
     id="defs7" />
  <sodipodi:namedview
     id="namedview7"
     pagecolor="#ffffff"
     bordercolor="#000000"
     borderopacity="0.25"
     inkscape:showpageshadow="2"
     inkscape:pageopacity="0.0"
     inkscape:pagecheckerboard="0"
     inkscape:deskcolor="#d1d1d1" />
  <path
     id="path1"
     style="baseline-shift:baseline;display:inline;overflow:visible;vector-effect:none;fill:#000000;stroke:none;stroke-linecap:butt;stroke-linejoin:miter;enable-background:accumulate;stop-color:#000000;stop-opacity:1;opacity:1"
     d="M 2 1.4375 A 0.5625 0.5625 0 0 0 1.6015625 1.6015625 A 0.5625 0.5625 0 0 0 1.6015625 2.3984375 L 8.6816406 9.4785156 C 8.8489118 9.9611142 8.8171098 10.489996 8.59375 10.953125 L 8.59375 10.955078 L 5.5039062 16.734375 A 0.5625 0.5625 0 0 0 5.734375 17.496094 A 0.5625 0.5625 0 0 0 6.4960938 17.265625 L 9.5957031 11.464844 A 0.56255625 0.56255625 0 0 0 9.6054688 11.445312 C 9.7272412 11.19348 9.8123077 10.928299 9.8613281 10.658203 L 15.640625 16.4375 L 12.009766 16.4375 C 11.300469 16.42449 10.678253 16.730443 10.1875 17.146484 C 9.6967473 17.562526 9.3141062 18.091915 9.0117188 18.621094 A 0.56255625 0.56255625 0 0 0 9.0097656 18.625 C 8.4287309 19.657454 7.6589936 20.16093 6.8359375 20.339844 C 6.0128814 20.518757 5.1186438 20.350023 4.3613281 19.923828 C 3.6040124 19.497633 2.9968324 18.821794 2.7226562 18.025391 C 2.4484799 17.228987 2.4795154 16.307839 3.0605469 15.275391 A 0.5625 0.5625 0 0 0 2.8457031 14.509766 A 0.5625 0.5625 0 0 0 2.4179688 14.458984 A 0.5625 0.5625 0 0 0 2.0800781 14.724609 C 1.3611102 16.00216 1.2830041 17.300779 1.6582031 18.390625 C 2.0334021 19.480471 2.8334094 20.355492 3.8085938 20.904297 C 4.7837779 21.453102 5.9479001 21.684289 7.0742188 21.439453 C 8.1993463 21.194876 9.2693307 20.454753 9.9882812 19.179688 L 9.9902344 19.175781 C 10.247479 18.726366 10.568305 18.297025 10.914062 18.003906 C 11.26081 17.709947 11.609531 17.555515 11.990234 17.5625 A 0.56255625 0.56255625 0 0 0 12 17.5625 L 16.765625 17.5625 L 19.371094 20.167969 C 18.941027 20.348821 18.47729 20.442119 18.005859 20.4375 A 0.5625 0.5625 0 0 0 17.4375 20.994141 A 0.5625 0.5625 0 0 0 17.994141 21.5625 C 18.771429 21.570143 19.53417 21.378004 20.212891 21.009766 L 21.601562 22.398438 A 0.5625 0.5625 0 0 0 22.398438 22.398438 A 0.5625 0.5625 0 0 0 22.398438 21.601562 L 20.71875 19.923828 L 17.398438 16.601562 L 9.5996094 8.8027344 A 0.5625 0.5625 0 0 0 9.5019531 8.7050781 L 2.3984375 1.6015625 A 0.5625 0.5625 0 0 0 2 1.4375 z M 11.957031 1.4609375 C 10.715949 1.4771811 9.4740781 1.9899294 8.5742188 3.0332031 A 0.5625 0.5625 0 0 0 8.6328125 3.8261719 A 0.5625 0.5625 0 0 0 9.4257812 3.7675781 C 10.99577 1.9473743 13.855927 2.2360784 15.029297 4.3339844 A 0.5625 0.5625 0 0 0 15.794922 4.5507812 A 0.5625 0.5625 0 0 0 16.011719 3.7851562 C 15.24311 2.4109365 13.898245 1.6271014 12.488281 1.484375 C 12.312036 1.4665342 12.134329 1.458617 11.957031 1.4609375 z M 11.990234 5.4375 A 0.5625 0.5625 0 0 0 11.710938 5.5175781 A 0.5625 0.5625 0 0 0 11.517578 6.2890625 L 12.117188 7.2890625 A 0.5625 0.5625 0 0 0 12.888672 7.4824219 A 0.5625 0.5625 0 0 0 13.082031 6.7109375 L 12.482422 5.7109375 A 0.5625 0.5625 0 0 0 11.990234 5.4375 z M 18.611328 12.4375 A 0.5625 0.5625 0 0 0 18.044922 12.914062 A 0.5625 0.5625 0 0 0 18.515625 13.556641 C 20.023461 13.787907 21.194542 14.978718 21.400391 16.490234 A 0.5625 0.5625 0 0 0 22.033203 16.970703 A 0.5625 0.5625 0 0 0 22.513672 16.337891 C 22.241228 14.337379 20.681188 12.749444 18.685547 12.443359 A 0.5625 0.5625 0 0 0 18.611328 12.4375 z " />
</svg>
