<?xml version="1.0" encoding="UTF-8" standalone="no"?>
<svg
   width="24"
   height="24"
   viewBox="0 0 24 24"
   fill="none"
   stroke="currentColor"
   stroke-width="1.125"
   stroke-linecap="round"
   stroke-linejoin="round"
   version="1.1"
   id="svg3"
   sodipodi:docname=".tmp_wind.svg"
   xmlns:inkscape="http://www.inkscape.org/namespaces/inkscape"
   xmlns:sodipodi="http://sodipodi.sourceforge.net/DTD/sodipodi-0.dtd"
   xmlns="http://www.w3.org/2000/svg"
   xmlns:svg="http://www.w3.org/2000/svg">
  <defs
     id="defs3" />
  <sodipodi:namedview
     id="namedview3"
     pagecolor="#ffffff"
     bordercolor="#000000"
     borderopacity="0.25"
     inkscape:showpageshadow="2"
     inkscape:pageopacity="0.0"
     inkscape:pagecheckerboard="0"
     inkscape:deskcolor="#d1d1d1" />
  <path
     id="path1"
     style="baseline-shift:baseline;display:inline;overflow:visible;vector-effect:none;fill:#000000;stroke:none;stroke-linecap:butt;stroke-linejoin:miter;enable-background:accumulate;stop-color:#000000;stop-opacity:1;opacity:1"
     d="M 11.035156 3.4453125 C 10.887039 3.442213 10.737674 3.451767 10.589844 3.4746094 C 10.19563 3.5355225 9.8093917 3.6893429 9.4628906 3.9492188 A 0.5625 0.5625 0 0 0 9.3496094 4.7382812 A 0.5625 0.5625 0 0 0 10.136719 4.8496094 C 10.934911 4.2509655 12.047771 4.5983906 12.363281 5.5449219 C 12.678792 6.4914532 11.99774 7.4375 11 7.4375 L 2 7.4375 A 0.5625 0.5625 0 0 0 1.4375 8 A 0.5625 0.5625 0 0 0 2 8.5625 L 11 8.5625 C 12.732505 8.5625 13.979503 6.8330415 13.431641 5.1894531 C 13.072106 4.1108482 12.071975 3.4670091 11.035156 3.4453125 z M 19.396484 6.453125 C 18.515845 6.4788545 17.642223 6.8735206 17.050781 7.6621094 A 0.5625 0.5625 0 0 0 17.162109 8.4492188 A 0.5625 0.5625 0 0 0 17.949219 8.3378906 C 18.827525 7.1668159 20.577785 7.3235391 21.232422 8.6328125 C 21.887059 9.9420859 20.963843 11.4375 19.5 11.4375 L 2 11.4375 A 0.5625 0.5625 0 0 0 1.4375 12 A 0.5625 0.5625 0 0 0 2 12.5625 L 19.5 12.5625 C 21.753111 12.5625 23.245888 10.146072 22.238281 8.1308594 C 21.734478 7.1232529 20.775795 6.555233 19.773438 6.4648438 C 19.648143 6.4535451 19.52229 6.4494494 19.396484 6.453125 z M 2 15.4375 A 0.5625 0.5625 0 0 0 1.4375 16 A 0.5625 0.5625 0 0 0 2 16.5625 L 14 16.5625 C 14.99774 16.5625 15.678792 17.508547 15.363281 18.455078 C 15.047771 19.401609 13.934911 19.749035 13.136719 19.150391 A 0.5625 0.5625 0 0 0 12.349609 19.261719 A 0.5625 0.5625 0 0 0 12.462891 20.050781 C 13.848895 21.090284 15.883778 20.454135 16.431641 18.810547 C 16.979503 17.166958 15.732505 15.4375 14 15.4375 L 2 15.4375 z " />
</svg>
