<?xml version="1.0" encoding="UTF-8" standalone="no"?>
<svg
   width="24"
   height="24"
   viewBox="0 0 24 24"
   fill="none"
   stroke="currentColor"
   stroke-width="1.125"
   stroke-linecap="round"
   stroke-linejoin="round"
   version="1.1"
   id="svg3"
   sodipodi:docname=".tmp_worm.svg"
   xmlns:inkscape="http://www.inkscape.org/namespaces/inkscape"
   xmlns:sodipodi="http://sodipodi.sourceforge.net/DTD/sodipodi-0.dtd"
   xmlns="http://www.w3.org/2000/svg"
   xmlns:svg="http://www.w3.org/2000/svg">
  <defs
     id="defs3" />
  <sodipodi:namedview
     id="namedview3"
     pagecolor="#ffffff"
     bordercolor="#000000"
     borderopacity="0.25"
     inkscape:showpageshadow="2"
     inkscape:pageopacity="0.0"
     inkscape:pagecheckerboard="0"
     inkscape:deskcolor="#d1d1d1" />
  <path
     id="path1"
     style="baseline-shift:baseline;display:inline;overflow:visible;vector-effect:none;fill:#000000;stroke:none;stroke-linecap:butt;stroke-linejoin:miter;enable-background:accumulate;stop-color:#000000;stop-opacity:1;opacity:1"
     d="M 6.9121094 2.3847656 C 5.8232501 2.4540916 4.7117522 2.7821203 3.6503906 3.4179688 L 2.9609375 3.8125 A 0.56255625 0.56255625 0 0 0 2.9550781 3.8144531 C 2.1105003 4.3106947 1.6117198 5.052625 1.4589844 5.8242188 C 1.306249 6.5958125 1.4773018 7.3790232 1.859375 8.0292969 C 2.2414482 8.6795705 2.8434315 9.2109799 3.5917969 9.453125 C 4.3401623 9.6952701 5.2296403 9.6212385 6.0742188 9.125 A 0.56255625 0.56255625 0 0 0 6.0800781 9.1210938 L 6.7460938 8.7207031 C 7.2032544 8.462462 7.6529806 8.5496439 7.9902344 8.8164062 C 8.3274881 9.0831684 8.5151699 9.4995655 8.3691406 10.003906 L 7.7324219 12.074219 C 6.7158894 15.327383 8.0287337 18.378974 10.310547 20.101562 C 12.591785 21.823718 15.88466 22.250068 18.734375 20.382812 L 19.154297 20.113281 A 0.56255625 0.56255625 0 0 0 19.15625 20.111328 C 19.417271 19.942068 19.64277 19.749918 19.832031 19.541016 L 21.748047 20.501953 A 0.5625 0.5625 0 0 0 22.501953 20.251953 A 0.5625 0.5625 0 0 0 22.251953 19.498047 L 20.419922 18.576172 C 20.484609 18.40068 20.531185 18.222678 20.558594 18.042969 C 20.676886 17.267383 20.471764 16.494411 20.0625 15.863281 C 19.668091 15.255055 19.07681 14.766111 18.357422 14.544922 L 19.503906 12.251953 A 0.5625 0.5625 0 0 0 19.251953 11.496094 A 0.5625 0.5625 0 0 0 18.496094 11.748047 L 17.144531 14.451172 C 16.702108 14.512511 16.249074 14.677153 15.814453 14.958984 L 15.398438 15.224609 C 14.907357 15.536628 14.409884 15.454942 14.033203 15.169922 C 13.656522 14.884905 13.442601 14.4285 13.609375 13.871094 L 14.246094 11.800781 L 14.248047 11.794922 C 15.243529 8.6528492 14.023252 5.6736354 11.84375 3.9492188 C 10.753289 3.0864486 9.4121271 2.5295656 7.9902344 2.4003906 C 7.6347612 2.3680969 7.2750625 2.361657 6.9121094 2.3847656 z M 6.9980469 3.4980469 C 7.3035933 3.4785083 7.6058944 3.4839426 7.9042969 3.5117188 C 9.0979062 3.6228231 10.220047 4.0990363 11.146484 4.8320312 C 12.999359 6.2980212 14.032418 8.7568212 13.173828 11.458984 A 0.56255625 0.56255625 0 0 0 13.171875 11.464844 L 12.533203 13.544922 A 0.56255625 0.56255625 0 0 0 12.53125 13.548828 C 12.231006 14.552327 12.644188 15.528213 13.355469 16.066406 C 14.06675 16.6046 15.117862 16.735556 16.001953 16.173828 A 0.56255625 0.56255625 0 0 0 16.003906 16.173828 L 16.423828 15.902344 A 0.56255625 0.56255625 0 0 0 16.425781 15.902344 C 16.764835 15.682482 17.079648 15.575301 17.373047 15.548828 A 0.5625 0.5625 0 0 0 17.638672 15.546875 C 17.754657 15.555235 17.866934 15.575262 17.976562 15.605469 C 18.433736 15.731437 18.843947 16.055193 19.117188 16.476562 C 19.390428 16.897934 19.516813 17.404258 19.445312 17.873047 C 19.420353 18.036685 19.373408 18.197199 19.298828 18.353516 A 0.5625 0.5625 0 0 0 19.126953 18.556641 A 0.5625 0.5625 0 0 0 19.078125 18.701172 C 18.944312 18.864289 18.769051 19.020453 18.544922 19.166016 L 18.125 19.4375 A 0.56255625 0.56255625 0 0 0 18.121094 19.439453 C 15.663605 21.051672 12.932739 20.67299 10.988281 19.205078 C 9.0438243 17.737166 7.9293148 15.213362 8.8066406 12.408203 A 0.56255625 0.56255625 0 0 0 8.8085938 12.40625 L 9.4472656 10.326172 A 0.56255625 0.56255625 0 0 0 9.4511719 10.316406 C 9.7238117 9.3748704 9.3472409 8.455438 8.6875 7.9335938 C 8.0277591 7.4117495 7.0468897 7.2580917 6.1933594 7.7402344 A 0.56255625 0.56255625 0 0 0 6.1796875 7.7480469 L 5.5058594 8.1542969 C 4.9037719 8.5080605 4.3905926 8.5294176 3.9375 8.3828125 C 3.4844074 8.2362074 3.0855049 7.8956639 2.8300781 7.4609375 C 2.5746513 7.0262111 2.4700274 6.5101248 2.5625 6.0429688 C 2.6548821 5.57627 2.9245466 5.1406883 3.5253906 4.7871094 L 3.5253906 4.7851562 L 4.21875 4.3886719 A 0.56255625 0.56255625 0 0 0 4.2285156 4.3828125 C 5.1405945 3.836396 6.0814077 3.5566626 6.9980469 3.4980469 z " />
</svg>
