<?xml version="1.0" encoding="UTF-8" standalone="no"?>
<svg
   width="24"
   height="24"
   viewBox="0 0 24 24"
   fill="none"
   stroke="currentColor"
   stroke-width="1.125"
   stroke-linecap="round"
   stroke-linejoin="round"
   version="1.1"
   id="svg1"
   sodipodi:docname=".tmp_zap.svg"
   xmlns:inkscape="http://www.inkscape.org/namespaces/inkscape"
   xmlns:sodipodi="http://sodipodi.sourceforge.net/DTD/sodipodi-0.dtd"
   xmlns="http://www.w3.org/2000/svg"
   xmlns:svg="http://www.w3.org/2000/svg">
  <defs
     id="defs1" />
  <sodipodi:namedview
     id="namedview1"
     pagecolor="#ffffff"
     bordercolor="#000000"
     borderopacity="0.25"
     inkscape:showpageshadow="2"
     inkscape:pageopacity="0.0"
     inkscape:pagecheckerboard="0"
     inkscape:deskcolor="#d1d1d1" />
  <path
     id="path1"
     style="baseline-shift:baseline;display:inline;overflow:visible;vector-effect:none;fill:#000000;stroke:none;stroke-linecap:butt;stroke-linejoin:miter;enable-background:accumulate;stop-color:#000000;stop-opacity:1;opacity:1"
     d="M 13.505859 1.4414062 C 13.212515 1.4412967 12.908275 1.5549643 12.695312 1.8007812 L 2.8164062 11.978516 A 0.56255625 0.56255625 0 0 0 2.7832031 12.015625 C 1.9779209 13.008272 2.7223591 14.565204 4 14.5625 L 4.0019531 14.5625 L 11 14.5625 A 0.56255625 0.56255625 0 0 0 11.001953 14.5625 C 11.326082 14.5614 11.525557 14.848715 11.412109 15.152344 A 0.56255625 0.56255625 0 0 0 11.404297 15.179688 L 9.484375 21.199219 A 0.56255625 0.56255625 0 0 0 9.4785156 21.220703 C 9.3404488 21.722456 9.6106802 22.231212 10 22.439453 C 10.38932 22.647694 10.963946 22.592526 11.304688 22.199219 L 21.183594 12.021484 A 0.56255625 0.56255625 0 0 0 21.216797 11.984375 C 22.022082 10.991728 21.277641 9.4347964 20 9.4375 L 13 9.4375 A 0.56255625 0.56255625 0 0 0 12.998047 9.4375 C 12.673918 9.43855 12.474443 9.1512851 12.587891 8.8476562 A 0.56255625 0.56255625 0 0 0 12.595703 8.8203125 L 14.515625 2.8007812 A 0.56255625 0.56255625 0 0 0 14.521484 2.7792969 C 14.659511 2.2775515 14.38932 1.7687877 14 1.5605469 C 13.854005 1.4824565 13.681866 1.441472 13.505859 1.4414062 z M 13.355469 2.7363281 L 11.523438 8.4785156 L 11.533203 8.453125 C 11.157476 9.45862 11.926979 10.564666 13 10.5625 L 20 10.5625 A 0.56255625 0.56255625 0 0 0 20.001953 10.5625 C 20.40797 10.5611 20.595979 10.955532 20.34375 11.271484 L 10.644531 21.263672 L 12.476562 15.521484 L 12.466797 15.546875 C 12.842476 14.541381 12.073021 13.435334 11 13.4375 L 4 13.4375 A 0.56255625 0.56255625 0 0 0 3.9980469 13.4375 C 3.5920265 13.438884 3.4040211 13.044468 3.65625 12.728516 L 13.355469 2.7363281 z " />
</svg>
