<?xml version="1.0" encoding="UTF-8" standalone="no"?>
<svg
   width="24"
   height="24"
   viewBox="0 0 24 24"
   fill="none"
   stroke="currentColor"
   stroke-width="1"
   stroke-linecap="round"
   stroke-linejoin="round"
   version="1.1"
   id="svg5"
   sodipodi:docname=".tmp_align-vertical-distribute-center.svg"
   xmlns:inkscape="http://www.inkscape.org/namespaces/inkscape"
   xmlns:sodipodi="http://sodipodi.sourceforge.net/DTD/sodipodi-0.dtd"
   xmlns="http://www.w3.org/2000/svg"
   xmlns:svg="http://www.w3.org/2000/svg">
  <defs
     id="defs5" />
  <sodipodi:namedview
     id="namedview5"
     pagecolor="#ffffff"
     bordercolor="#000000"
     borderopacity="0.25"
     inkscape:showpageshadow="2"
     inkscape:pageopacity="0.0"
     inkscape:pagecheckerboard="0"
     inkscape:deskcolor="#d1d1d1" />
  <path
     id="path1"
     style="baseline-shift:baseline;display:inline;overflow:visible;vector-effect:none;fill:#000000;stroke:none;stroke-linecap:butt;stroke-linejoin:miter;enable-background:accumulate;stop-color:#000000;stop-opacity:1;opacity:1"
     d="M 9 3.5 C 7.6236486 3.5 6.5 4.6236486 6.5 6 L 6.5 6.5 L 2 6.5 A 0.5 0.5 0 0 0 1.5 7 A 0.5 0.5 0 0 0 2 7.5 L 6.5 7.5 L 6.5 8 C 6.5 9.3763514 7.6236486 10.5 9 10.5 L 15 10.5 C 16.376351 10.5 17.5 9.3763514 17.5 8 L 17.5 7.5 L 22 7.5 A 0.5 0.5 0 0 0 22.5 7 A 0.5 0.5 0 0 0 22 6.5 L 17.5 6.5 L 17.5 6 C 17.5 4.6236486 16.376351 3.5 15 3.5 L 9 3.5 z M 9 4.5 L 15 4.5 C 15.839649 4.5 16.5 5.1603514 16.5 6 L 16.5 7 L 16.5 8 C 16.5 8.8396486 15.839649 9.5 15 9.5 L 9 9.5 C 8.1603514 9.5 7.5 8.8396486 7.5 8 L 7.5 7 L 7.5 6 C 7.5 5.1603514 8.1603514 4.5 9 4.5 z M 7 13.5 C 5.6236486 13.5 4.5 14.623649 4.5 16 L 4.5 16.5 L 2 16.5 A 0.5 0.5 0 0 0 1.5 17 A 0.5 0.5 0 0 0 2 17.5 L 4.5 17.5 L 4.5 18 C 4.5 19.376351 5.6236486 20.5 7 20.5 L 17 20.5 C 18.376351 20.5 19.5 19.376351 19.5 18 L 19.5 17.5 L 22 17.5 A 0.5 0.5 0 0 0 22.5 17 A 0.5 0.5 0 0 0 22 16.5 L 19.5 16.5 L 19.5 16 C 19.5 14.623649 18.376351 13.5 17 13.5 L 7 13.5 z M 7 14.5 L 17 14.5 C 17.839649 14.5 18.5 15.160351 18.5 16 L 18.5 18 C 18.5 18.839649 17.839649 19.5 17 19.5 L 7 19.5 C 6.1603514 19.5 5.5 18.839649 5.5 18 L 5.5 16 C 5.5 15.160351 6.1603514 14.5 7 14.5 z " />
</svg>
