<?xml version="1.0" encoding="UTF-8" standalone="no"?>
<svg
   width="24"
   height="24"
   viewBox="0 0 24 24"
   fill="none"
   stroke="currentColor"
   stroke-width="1"
   stroke-linecap="round"
   stroke-linejoin="round"
   version="1.1"
   id="svg3"
   sodipodi:docname=".tmp_align-horizontal-distribute-end.svg"
   xmlns:inkscape="http://www.inkscape.org/namespaces/inkscape"
   xmlns:sodipodi="http://sodipodi.sourceforge.net/DTD/sodipodi-0.dtd"
   xmlns="http://www.w3.org/2000/svg"
   xmlns:svg="http://www.w3.org/2000/svg">
  <defs
     id="defs3" />
  <sodipodi:namedview
     id="namedview3"
     pagecolor="#ffffff"
     bordercolor="#000000"
     borderopacity="0.25"
     inkscape:showpageshadow="2"
     inkscape:pageopacity="0.0"
     inkscape:pagecheckerboard="0"
     inkscape:deskcolor="#d1d1d1" />
  <path
     id="rect1"
     style="baseline-shift:baseline;display:inline;overflow:visible;vector-effect:none;fill:#000000;stroke:none;stroke-linecap:butt;stroke-linejoin:miter;enable-background:accumulate;stop-color:#000000;stop-opacity:1;opacity:1"
     d="M 10 1.5 A 0.5 0.5 0 0 0 9.5 2 L 9.5 5.0019531 C 9.0816131 4.6866947 8.5618629 4.5 8 4.5 L 6 4.5 C 4.6236486 4.5 3.5 5.6236486 3.5 7 L 3.5 17 C 3.5 18.376351 4.6236486 19.5 6 19.5 L 8 19.5 C 8.5618629 19.5 9.0816131 19.313305 9.5 18.998047 L 9.5 22 A 0.5 0.5 0 0 0 10 22.5 A 0.5 0.5 0 0 0 10.5 22 L 10.5 2 A 0.5 0.5 0 0 0 10 1.5 z M 20 1.5 A 0.5 0.5 0 0 0 19.5 2 L 19.5 7.0019531 C 19.081613 6.6866946 18.561863 6.5 18 6.5 L 16 6.5 C 14.623649 6.5 13.5 7.6236486 13.5 9 L 13.5 15 C 13.5 16.376351 14.623649 17.5 16 17.5 L 18 17.5 C 18.561863 17.5 19.081613 17.313305 19.5 16.998047 L 19.5 22 A 0.5 0.5 0 0 0 20 22.5 A 0.5 0.5 0 0 0 20.5 22 L 20.5 15 L 20.5 9 L 20.5 2 A 0.5 0.5 0 0 0 20 1.5 z M 6 5.5 L 8 5.5 C 8.8396486 5.5 9.5 6.1603514 9.5 7 L 9.5 17 C 9.5 17.839649 8.8396486 18.5 8 18.5 L 6 18.5 C 5.1603514 18.5 4.5 17.839649 4.5 17 L 4.5 7 C 4.5 6.1603514 5.1603514 5.5 6 5.5 z M 16 7.5 L 18 7.5 C 18.839649 7.5 19.5 8.1603514 19.5 9 L 19.5 15 C 19.5 15.839649 18.839649 16.5 18 16.5 L 16 16.5 C 15.160351 16.5 14.5 15.839649 14.5 15 L 14.5 9 C 14.5 8.1603514 15.160351 7.5 16 7.5 z " />
</svg>
