<?xml version="1.0" encoding="UTF-8" standalone="no"?>
<svg
   width="24"
   height="24"
   viewBox="0 0 24 24"
   fill="none"
   stroke="currentColor"
   stroke-width="1"
   stroke-linecap="round"
   stroke-linejoin="round"
   version="1.1"
   id="svg3"
   sodipodi:docname=".tmp_align-vertical-space-between.svg"
   xmlns:inkscape="http://www.inkscape.org/namespaces/inkscape"
   xmlns:sodipodi="http://sodipodi.sourceforge.net/DTD/sodipodi-0.dtd"
   xmlns="http://www.w3.org/2000/svg"
   xmlns:svg="http://www.w3.org/2000/svg">
  <defs
     id="defs3" />
  <sodipodi:namedview
     id="namedview3"
     pagecolor="#ffffff"
     bordercolor="#000000"
     borderopacity="0.25"
     inkscape:showpageshadow="2"
     inkscape:pageopacity="0.0"
     inkscape:pagecheckerboard="0"
     inkscape:deskcolor="#d1d1d1" />
  <path
     id="rect1"
     style="baseline-shift:baseline;display:inline;overflow:visible;vector-effect:none;fill:#000000;stroke:none;stroke-linecap:butt;stroke-linejoin:miter;enable-background:accumulate;stop-color:#000000;stop-opacity:1;opacity:1"
     d="M 2 2.5 A 0.5 0.5 0 0 0 1.5 3 A 0.5 0.5 0 0 0 2 3.5 L 7.0019531 3.5 C 6.6866947 3.9183869 6.5 4.4381371 6.5 5 L 6.5 7 C 6.5 8.3763514 7.6236486 9.5 9 9.5 L 15 9.5 C 16.376351 9.5 17.5 8.3763514 17.5 7 L 17.5 5 C 17.5 4.4381371 17.313305 3.9183869 16.998047 3.5 L 22 3.5 A 0.5 0.5 0 0 0 22.5 3 A 0.5 0.5 0 0 0 22 2.5 L 15 2.5 L 9 2.5 L 2 2.5 z M 9 3.5 L 15 3.5 C 15.839649 3.5 16.5 4.1603514 16.5 5 L 16.5 7 C 16.5 7.8396486 15.839649 8.5 15 8.5 L 9 8.5 C 8.1603514 8.5 7.5 7.8396486 7.5 7 L 7.5 5 C 7.5 4.1603514 8.1603514 3.5 9 3.5 z M 7 14.5 C 5.6236486 14.5 4.5 15.623649 4.5 17 L 4.5 19 C 4.5 19.561863 4.6866946 20.081613 5.0019531 20.5 L 2 20.5 A 0.5 0.5 0 0 0 1.5 21 A 0.5 0.5 0 0 0 2 21.5 L 22 21.5 A 0.5 0.5 0 0 0 22.5 21 A 0.5 0.5 0 0 0 22 20.5 L 18.998047 20.5 C 19.313305 20.081613 19.5 19.561863 19.5 19 L 19.5 17 C 19.5 15.623649 18.376351 14.5 17 14.5 L 7 14.5 z M 7 15.5 L 17 15.5 C 17.839649 15.5 18.5 16.160351 18.5 17 L 18.5 19 C 18.5 19.839649 17.839649 20.5 17 20.5 L 7 20.5 C 6.1603514 20.5 5.5 19.839649 5.5 19 L 5.5 17 C 5.5 16.160351 6.1603514 15.5 7 15.5 z " />
</svg>
