<?xml version="1.0" encoding="UTF-8" standalone="no"?>
<svg
   width="24"
   height="24"
   viewBox="0 0 24 24"
   fill="none"
   stroke="currentColor"
   stroke-width="1"
   stroke-linecap="round"
   stroke-linejoin="round"
   version="1.1"
   id="svg2"
   sodipodi:docname=".tmp_banana.svg"
   xmlns:inkscape="http://www.inkscape.org/namespaces/inkscape"
   xmlns:sodipodi="http://sodipodi.sourceforge.net/DTD/sodipodi-0.dtd"
   xmlns="http://www.w3.org/2000/svg"
   xmlns:svg="http://www.w3.org/2000/svg">
  <defs
     id="defs2" />
  <sodipodi:namedview
     id="namedview2"
     pagecolor="#ffffff"
     bordercolor="#000000"
     borderopacity="0.25"
     inkscape:showpageshadow="2"
     inkscape:pageopacity="0.0"
     inkscape:pagecheckerboard="0"
     inkscape:deskcolor="#d1d1d1" />
  <path
     id="path1"
     style="baseline-shift:baseline;display:inline;overflow:visible;vector-effect:none;fill:#000000;stroke:none;stroke-linecap:butt;stroke-linejoin:miter;enable-background:accumulate;stop-color:#000000;stop-opacity:1;opacity:1"
     d="M 13 1.5 C 12.513889 1.5 12.069427 1.6860259 11.779297 2.0058594 C 11.489167 2.3256929 11.351781 2.7369139 11.292969 3.1699219 C 11.175343 4.0359378 11.359649 5.0513542 11.673828 6.0410156 A 0.50005 0.50005 0 0 0 11.673828 6.0429688 C 12.312048 8.0195164 12.198468 10.035264 11.480469 11.828125 C 10.89807 11.534195 10.275845 11.34287 9.6308594 11.253906 C 7.6796493 10.984774 5.5820986 11.520609 3.7519531 12.566406 A 0.5 0.5 0 0 0 3.5664062 13.248047 A 0.5 0.5 0 0 0 4.2480469 13.433594 C 5.9179014 12.479391 7.8203507 12.015226 9.4941406 12.246094 C 10.048587 12.322569 10.579268 12.470023 11.074219 12.701172 C 9.9028669 14.89367 7.7798193 16.647586 5.0175781 17.408203 A 0.50005 0.50005 0 0 0 5.015625 17.408203 C 4.0304581 17.682677 3.2400259 17.82207 2.5957031 18.146484 C 2.2735417 18.308692 1.9802374 18.533808 1.7832031 18.853516 C 1.5861688 19.173223 1.5 19.561667 1.5 20 C 1.5 20.629583 1.7772149 21.176422 2.1992188 21.537109 C 2.6212226 21.897796 3.1577404 22.100726 3.7421875 22.236328 C 4.9110816 22.507533 6.3097656 22.5 7.5097656 22.5 C 10.8005 22.5 13.575457 21.047795 15.496094 18.759766 C 16.406081 17.67571 17.128832 16.406637 17.636719 15.013672 C 19.805201 15.518158 21.546694 17.460438 21.5 19.990234 A 0.5 0.5 0 0 0 21.990234 20.5 A 0.5 0.5 0 0 0 22.5 20.009766 C 22.554935 17.033457 20.485971 14.763618 17.917969 14.152344 C 18.299369 12.844397 18.5 11.444504 18.5 10 C 18.5 8.6313333 18.041403 6.6042525 17.154297 4.8378906 C 16.710744 3.9547097 16.158264 3.1390838 15.472656 2.5253906 C 14.787049 1.9116974 13.94734 1.5 13 1.5 z M 13 2.5 C 13.66266 2.5 14.252873 2.7758026 14.806641 3.2714844 C 15.360408 3.7671662 15.855819 4.4827903 16.259766 5.2871094 C 17.067659 6.8957475 17.5 8.8686667 17.5 10 C 17.5 11.400678 17.297266 12.751204 16.917969 14.001953 C 16.019505 13.943257 15.088386 14.08556 14.185547 14.466797 C 13.677214 13.585137 13.045585 12.878605 12.330078 12.351562 C 13.192701 10.312604 13.355929 7.9999938 12.625 5.7363281 L 12.626953 5.7382812 C 12.341131 4.8379427 12.200828 3.9092185 12.283203 3.3027344 C 12.324393 2.9994923 12.415911 2.7919634 12.519531 2.6777344 C 12.623104 2.5635085 12.736111 2.5 13 2.5 z M 11.919922 13.207031 C 12.558835 13.68363 13.113171 14.34353 13.552734 15.222656 A 0.50005 0.50005 0 0 0 14.226562 15.445312 C 15.010601 15.04502 15.826472 14.869475 16.615234 14.884766 C 16.150854 16.088626 15.51364 17.182254 14.730469 18.115234 C 12.978606 20.202205 10.509032 21.5 7.5097656 21.5 C 6.3097656 21.5 4.9548559 21.4925 3.96875 21.263672 C 3.4756971 21.149274 3.0837774 20.977204 2.8476562 20.775391 C 2.6115351 20.573578 2.5 20.370417 2.5 20 C 2.5 19.688333 2.5552374 19.507949 2.6347656 19.378906 C 2.7142938 19.249864 2.8327864 19.146855 3.046875 19.039062 C 3.4747091 18.82365 4.259572 18.656201 5.2832031 18.371094 C 8.2779355 17.546457 10.612327 15.621602 11.919922 13.207031 z " />
</svg>
