<?xml version="1.0" encoding="UTF-8" standalone="no"?>
<svg
   width="24"
   height="24"
   viewBox="0 0 24 24"
   fill="none"
   stroke="currentColor"
   stroke-width="1"
   stroke-linecap="round"
   stroke-linejoin="round"
   version="1.1"
   id="svg3"
   sodipodi:docname=".tmp_baseline.svg"
   xmlns:inkscape="http://www.inkscape.org/namespaces/inkscape"
   xmlns:sodipodi="http://sodipodi.sourceforge.net/DTD/sodipodi-0.dtd"
   xmlns="http://www.w3.org/2000/svg"
   xmlns:svg="http://www.w3.org/2000/svg">
  <defs
     id="defs3" />
  <sodipodi:namedview
     id="namedview3"
     pagecolor="#ffffff"
     bordercolor="#000000"
     borderopacity="0.25"
     inkscape:showpageshadow="2"
     inkscape:pageopacity="0.0"
     inkscape:pagecheckerboard="0"
     inkscape:deskcolor="#d1d1d1" />
  <path
     id="path1"
     style="baseline-shift:baseline;display:inline;overflow:visible;vector-effect:none;fill:#000000;stroke:none;stroke-linecap:butt;stroke-linejoin:miter;enable-background:accumulate;stop-color:#000000;stop-opacity:1;opacity:1"
     d="M 12 3.5 A 0.50005 0.50005 0 0 0 11.552734 3.7773438 L 7.5625 11.759766 A 0.5 0.5 0 0 0 7.5449219 11.794922 L 5.5527344 15.777344 A 0.5 0.5 0 0 0 5.7773438 16.447266 A 0.5 0.5 0 0 0 6.4472656 16.222656 L 8.3085938 12.5 L 15.691406 12.5 L 17.552734 16.222656 A 0.5 0.5 0 0 0 18.222656 16.447266 A 0.5 0.5 0 0 0 18.447266 15.777344 L 16.455078 11.794922 A 0.5 0.5 0 0 0 16.4375 11.759766 L 12.447266 3.7773438 A 0.50005 0.50005 0 0 0 12 3.5 z M 12 5.1171875 L 15.191406 11.5 L 8.8085938 11.5 L 12 5.1171875 z M 4 19.5 A 0.5 0.5 0 0 0 3.5 20 A 0.5 0.5 0 0 0 4 20.5 L 20 20.5 A 0.5 0.5 0 0 0 20.5 20 A 0.5 0.5 0 0 0 20 19.5 L 4 19.5 z " />
</svg>
