<?xml version="1.0" encoding="UTF-8" standalone="no"?>
<svg
   width="24"
   height="24"
   viewBox="0 0 24 24"
   fill="none"
   stroke="currentColor"
   stroke-width="1"
   stroke-linecap="round"
   stroke-linejoin="round"
   version="1.1"
   id="svg8"
   sodipodi:docname=".tmp_beer-off.svg"
   xmlns:inkscape="http://www.inkscape.org/namespaces/inkscape"
   xmlns:sodipodi="http://sodipodi.sourceforge.net/DTD/sodipodi-0.dtd"
   xmlns="http://www.w3.org/2000/svg"
   xmlns:svg="http://www.w3.org/2000/svg">
  <defs
     id="defs8" />
  <sodipodi:namedview
     id="namedview8"
     pagecolor="#ffffff"
     bordercolor="#000000"
     borderopacity="0.25"
     inkscape:showpageshadow="2"
     inkscape:pageopacity="0.0"
     inkscape:pagecheckerboard="0"
     inkscape:deskcolor="#d1d1d1" />
  <path
     id="path1"
     style="baseline-shift:baseline;display:inline;overflow:visible;vector-effect:none;fill:#000000;stroke:none;stroke-linecap:butt;stroke-linejoin:miter;enable-background:accumulate;stop-color:#000000;stop-opacity:1;opacity:1"
     d="M 2 1.5 A 0.5 0.5 0 0 0 1.6464844 1.6464844 A 0.5 0.5 0 0 0 1.6464844 2.3535156 L 3.0546875 3.7617188 C 2.4201358 4.6451165 2.3545424 5.7456559 2.7285156 6.6484375 C 3.0420421 7.405299 3.6720863 8.0421638 4.5 8.3320312 L 4.5 20 C 4.5 21.37479 5.6252104 22.5 7 22.5 L 15 22.5 C 16.37479 22.5 17.5 21.37479 17.5 20 L 17.5 18.207031 L 21.646484 22.353516 A 0.5 0.5 0 0 0 22.353516 22.353516 A 0.5 0.5 0 0 0 22.353516 21.646484 L 17.359375 16.652344 A 0.5 0.5 0 0 0 17.347656 16.640625 L 13.359375 12.652344 A 0.5 0.5 0 0 0 13.347656 12.640625 L 7.9121094 7.2050781 A 0.5 0.5 0 0 0 7.8671875 7.1601562 L 2.3535156 1.6464844 A 0.5 0.5 0 0 0 2 1.5 z M 11 1.5 C 9.6557025 1.5 8.9081736 2.440602 8.4257812 2.8046875 A 0.5 0.5 0 0 0 8.328125 3.5058594 A 0.5 0.5 0 0 0 9.0273438 3.6035156 C 9.7029512 3.0936011 10.114297 2.5 11 2.5 C 11.619744 2.5 11.971118 2.7696201 12.380859 3.1269531 C 12.790601 3.4842861 13.25 4 14 4 C 15.166667 4 15.933675 3.5 16.5 3.5 C 17.208333 3.5 17.676923 3.7476222 18.001953 4.1132812 C 18.326983 4.4789403 18.5 4.9861111 18.5 5.5 C 18.5 6.0138889 18.326983 6.5210597 18.001953 6.8867188 C 17.676923 7.2523778 17.208333 7.5 16.5 7.5 C 15.933675 7.5 15.166667 7 14 7 A 0.50005 0.50005 0 0 0 13.996094 7 C 13.666072 7.00202 13.33893 7.048412 13.021484 7.1386719 A 0.5 0.5 0 0 0 12.677734 7.7558594 A 0.5 0.5 0 0 0 13.294922 8.1015625 C 13.524124 8.0363911 13.761726 8.0018041 14 8 C 14.833333 8 15.506325 8.5 16.5 8.5 L 16.5 11.470703 A 0.5 0.5 0 0 0 17 11.970703 A 0.5 0.5 0 0 0 17.5 11.5 L 18 11.5 C 19.824947 11.499829 21.02378 13.34011 20.287109 15.009766 A 0.5 0.5 0 0 0 20.542969 15.667969 A 0.5 0.5 0 0 0 21.203125 15.412109 C 22.216429 13.115467 20.51025 10.499764 18 10.5 L 17.5 10.5 L 17.5 8.3496094 C 18.00687 8.1887065 18.430689 7.9078094 18.748047 7.5507812 C 19.25635 6.9789403 19.5 6.2361111 19.5 5.5 C 19.5 4.7638889 19.25635 4.0210596 18.748047 3.4492188 C 18.239744 2.8773777 17.458333 2.5 16.5 2.5 C 15.506325 2.5 14.833333 3 14 3 C 13.75 3 13.48932 2.7657139 13.039062 2.3730469 C 12.588803 1.9803799 11.940256 1.5 11 1.5 z M 3.7734375 4.4804688 L 6.546875 7.2539062 C 6.1280064 7.3785702 5.7891064 7.5 5.5 7.5 C 4.5877088 7.5001701 3.9431206 6.9675683 3.6523438 6.265625 C 3.4179563 5.6998074 3.4243851 5.049426 3.7734375 4.4804688 z M 7.3691406 8.0761719 L 12.5 13.207031 L 12.5 18 A 0.5 0.5 0 0 0 13 18.5 A 0.5 0.5 0 0 0 13.5 18 L 13.5 14.207031 L 16.5 17.207031 L 16.5 20 C 16.5 20.834349 15.834349 21.5 15 21.5 L 7 21.5 C 6.1656506 21.5 5.5 20.834349 5.5 20 L 5.5 8.5 C 6.2313345 8.5 6.7951163 8.2125188 7.3691406 8.0761719 z M 9 14.099609 A 0.5 0.5 0 0 0 8.5 14.599609 L 8.5 18 A 0.5 0.5 0 0 0 9 18.5 A 0.5 0.5 0 0 0 9.5 18 L 9.5 14.599609 A 0.5 0.5 0 0 0 9 14.099609 z " />
</svg>
