<?xml version="1.0" encoding="UTF-8" standalone="no"?>
<svg
   width="24"
   height="24"
   viewBox="0 0 24 24"
   fill="none"
   stroke="currentColor"
   stroke-width="1"
   stroke-linecap="round"
   stroke-linejoin="round"
   version="1.1"
   id="svg3"
   sodipodi:docname=".tmp_bluetooth-off.svg"
   xmlns:inkscape="http://www.inkscape.org/namespaces/inkscape"
   xmlns:sodipodi="http://sodipodi.sourceforge.net/DTD/sodipodi-0.dtd"
   xmlns="http://www.w3.org/2000/svg"
   xmlns:svg="http://www.w3.org/2000/svg">
  <defs
     id="defs3" />
  <sodipodi:namedview
     id="namedview3"
     pagecolor="#ffffff"
     bordercolor="#000000"
     borderopacity="0.25"
     inkscape:showpageshadow="2"
     inkscape:pageopacity="0.0"
     inkscape:pagecheckerboard="0"
     inkscape:deskcolor="#d1d1d1" />
  <path
     id="path1"
     style="baseline-shift:baseline;display:inline;overflow:visible;vector-effect:none;fill:#000000;stroke:none;stroke-linecap:butt;stroke-linejoin:miter;enable-background:accumulate;stop-color:#000000;stop-opacity:1;opacity:1"
     d="M 2 1.5 A 0.5 0.5 0 0 0 1.6464844 1.6464844 A 0.5 0.5 0 0 0 1.6464844 2.3535156 L 11.292969 12 L 6.6464844 16.646484 A 0.5 0.5 0 0 0 6.6464844 17.353516 A 0.5 0.5 0 0 0 7.3535156 17.353516 L 11.5 13.207031 L 11.5 22 A 0.50005 0.50005 0 0 0 12.353516 22.353516 L 17 17.707031 L 21.646484 22.353516 A 0.5 0.5 0 0 0 22.353516 22.353516 A 0.5 0.5 0 0 0 22.353516 21.646484 L 2.3535156 1.6464844 A 0.5 0.5 0 0 0 2 1.5 z M 12 1.5 A 0.50005 0.50005 0 0 0 11.808594 1.5390625 A 0.50005 0.50005 0 0 0 11.5 2 L 11.5 6.5 A 0.5 0.5 0 0 0 12 7 A 0.5 0.5 0 0 0 12.5 6.5 L 12.5 3.2070312 L 16.292969 7 L 14.146484 9.1464844 A 0.5 0.5 0 0 0 14.146484 9.8535156 A 0.5 0.5 0 0 0 14.853516 9.8535156 L 17.353516 7.3535156 A 0.50005 0.50005 0 0 0 17.353516 6.6464844 L 12.353516 1.6464844 A 0.50005 0.50005 0 0 0 12 1.5 z M 12.5 13.207031 L 16.292969 17 L 12.5 20.792969 L 12.5 13.207031 z " />
</svg>
