<?xml version="1.0" encoding="UTF-8" standalone="no"?>
<svg
   width="24"
   height="24"
   viewBox="0 0 24 24"
   fill="none"
   stroke="currentColor"
   stroke-width="1"
   stroke-linecap="round"
   stroke-linejoin="round"
   version="1.1"
   id="svg1"
   sodipodi:docname=".tmp_bookmark.svg"
   xmlns:inkscape="http://www.inkscape.org/namespaces/inkscape"
   xmlns:sodipodi="http://sodipodi.sourceforge.net/DTD/sodipodi-0.dtd"
   xmlns="http://www.w3.org/2000/svg"
   xmlns:svg="http://www.w3.org/2000/svg">
  <defs
     id="defs1" />
  <sodipodi:namedview
     id="namedview1"
     pagecolor="#ffffff"
     bordercolor="#000000"
     borderopacity="0.25"
     inkscape:showpageshadow="2"
     inkscape:pageopacity="0.0"
     inkscape:pagecheckerboard="0"
     inkscape:deskcolor="#d1d1d1" />
  <path
     id="path1"
     style="baseline-shift:baseline;display:inline;overflow:visible;vector-effect:none;fill:#000000;stroke:none;stroke-linecap:butt;stroke-linejoin:miter;enable-background:accumulate;stop-color:#000000;stop-opacity:1;opacity:1"
     d="M 7 2.5 C 5.6252104 2.5 4.5 3.6252104 4.5 5 L 4.5 21 A 0.50005 0.50005 0 0 0 5.2480469 21.433594 L 12 17.576172 L 18.751953 21.433594 A 0.50005 0.50005 0 0 0 19.5 21 L 19.5 5 C 19.5 3.6252104 18.37479 2.5 17 2.5 L 7 2.5 z M 7 3.5 L 17 3.5 C 17.834349 3.5 18.5 4.1656506 18.5 5 L 18.5 20.138672 L 12.248047 16.566406 A 0.50005 0.50005 0 0 0 11.751953 16.566406 L 5.5 20.138672 L 5.5 5 C 5.5 4.1656506 6.1656506 3.5 7 3.5 z " />
</svg>
