<?xml version="1.0" encoding="UTF-8" standalone="no"?>
<svg
   width="24"
   height="24"
   viewBox="0 0 24 24"
   fill="none"
   stroke="currentColor"
   stroke-width="1"
   stroke-linecap="round"
   stroke-linejoin="round"
   version="1.1"
   id="svg3"
   sodipodi:docname=".tmp_box.svg"
   xmlns:inkscape="http://www.inkscape.org/namespaces/inkscape"
   xmlns:sodipodi="http://sodipodi.sourceforge.net/DTD/sodipodi-0.dtd"
   xmlns="http://www.w3.org/2000/svg"
   xmlns:svg="http://www.w3.org/2000/svg">
  <defs
     id="defs3" />
  <sodipodi:namedview
     id="namedview3"
     pagecolor="#ffffff"
     bordercolor="#000000"
     borderopacity="0.25"
     inkscape:showpageshadow="2"
     inkscape:pageopacity="0.0"
     inkscape:pagecheckerboard="0"
     inkscape:deskcolor="#d1d1d1" />
  <path
     id="path1"
     style="baseline-shift:baseline;display:inline;overflow:visible;vector-effect:none;fill:#000000;stroke:none;stroke-linecap:butt;stroke-linejoin:miter;enable-background:accumulate;stop-color:#000000;stop-opacity:1;opacity:1"
     d="M 12 1.5019531 C 11.568202 1.5019531 11.136404 1.6148 10.75 1.8378906 L 3.7519531 5.8359375 A 0.50005 0.50005 0 0 0 3.75 5.8378906 C 2.9779807 6.2836155 2.5009144 7.1085497 2.5 8 L 2.5 16 C 2.5009144 16.89145 2.9779807 17.716384 3.75 18.162109 A 0.50005 0.50005 0 0 0 3.7519531 18.164062 L 10.75 22.162109 C 11.117432 22.374247 11.525054 22.485678 11.935547 22.496094 A 0.5 0.5 0 0 0 12 22.5 A 0.5 0.5 0 0 0 12.064453 22.496094 C 12.474946 22.485678 12.882568 22.374247 13.25 22.162109 L 20.248047 18.164062 A 0.50005 0.50005 0 0 0 20.25 18.162109 C 21.021972 17.716431 21.499086 16.89145 21.5 16 L 21.5 8 C 21.499086 7.1085497 21.022019 6.2836155 20.25 5.8378906 A 0.50005 0.50005 0 0 0 20.248047 5.8359375 L 13.25 1.8378906 C 12.863596 1.6148 12.431798 1.5019531 12 1.5019531 z M 12 2.5019531 C 12.258801 2.5019531 12.517602 2.56895 12.75 2.703125 A 0.50005 0.50005 0 0 0 12.751953 2.7050781 L 19.751953 6.7050781 C 19.825567 6.7477697 19.894812 6.7963578 19.958984 6.8496094 L 12 11.423828 L 4.0410156 6.8496094 C 4.1059342 6.7956881 4.1753912 6.7462003 4.25 6.703125 L 11.248047 2.7050781 A 0.50005 0.50005 0 0 0 11.25 2.703125 C 11.482398 2.56895 11.741199 2.5019531 12 2.5019531 z M 3.5292969 7.7089844 L 11.5 12.289062 L 11.5 21.412109 C 11.414212 21.381724 11.330544 21.343377 11.25 21.296875 A 0.50005 0.50005 0 0 0 11.248047 21.294922 L 4.25 17.296875 L 4.2480469 17.294922 C 3.7851915 17.026573 3.500549 16.535191 3.5 16 L 3.5 8 C 3.5001016 7.900914 3.5104205 7.8039563 3.5292969 7.7089844 z M 20.470703 7.7089844 C 20.489611 7.8039328 20.499898 7.9009079 20.5 8 L 20.5 16 C 20.499451 16.535191 20.214805 17.026526 19.751953 17.294922 L 12.751953 21.294922 A 0.50005 0.50005 0 0 0 12.75 21.296875 C 12.669485 21.34336 12.585755 21.381729 12.5 21.412109 L 12.5 12.289062 L 20.470703 7.7089844 z " />
</svg>
