<?xml version="1.0" encoding="UTF-8" standalone="no"?>
<svg
   width="24"
   height="24"
   viewBox="0 0 24 24"
   fill="none"
   stroke="currentColor"
   stroke-width="1"
   stroke-linecap="round"
   stroke-linejoin="round"
   version="1.1"
   id="svg6"
   sodipodi:docname=".tmp_chart-no-axes-combined.svg"
   xmlns:inkscape="http://www.inkscape.org/namespaces/inkscape"
   xmlns:sodipodi="http://sodipodi.sourceforge.net/DTD/sodipodi-0.dtd"
   xmlns="http://www.w3.org/2000/svg"
   xmlns:svg="http://www.w3.org/2000/svg">
  <defs
     id="defs6" />
  <sodipodi:namedview
     id="namedview6"
     pagecolor="#ffffff"
     bordercolor="#000000"
     borderopacity="0.25"
     inkscape:showpageshadow="2"
     inkscape:pageopacity="0.0"
     inkscape:pagecheckerboard="0"
     inkscape:deskcolor="#d1d1d1" />
  <path
     id="path1"
     style="baseline-shift:baseline;display:inline;overflow:visible;vector-effect:none;fill:#000000;stroke:none;stroke-linecap:butt;stroke-linejoin:miter;enable-background:accumulate;stop-color:#000000;stop-opacity:1;opacity:1"
     d="M 22 2.5 A 0.5 0.5 0 0 0 21.646484 2.6464844 L 13 11.292969 L 9.7070312 8 C 9.3207157 7.6138012 8.6792841 7.6138012 8.2929688 8 L 1.6464844 14.646484 A 0.5 0.5 0 0 0 1.6464844 15.353516 A 0.5 0.5 0 0 0 2.3535156 15.353516 L 9 8.7070312 L 12.292969 12 C 12.679481 12.387491 13.320519 12.387491 13.707031 12 L 22.353516 3.3535156 A 0.5 0.5 0 0 0 22.353516 2.6464844 A 0.5 0.5 0 0 0 22 2.5 z M 20 9.5 A 0.5 0.5 0 0 0 19.5 10 L 19.5 21 A 0.5 0.5 0 0 0 20 21.5 A 0.5 0.5 0 0 0 20.5 21 L 20.5 10 A 0.5 0.5 0 0 0 20 9.5 z M 8 13.5 A 0.5 0.5 0 0 0 7.5 14 L 7.5 21 A 0.5 0.5 0 0 0 8 21.5 A 0.5 0.5 0 0 0 8.5 21 L 8.5 14 A 0.5 0.5 0 0 0 8 13.5 z M 16 13.5 A 0.5 0.5 0 0 0 15.5 14 L 15.5 21 A 0.5 0.5 0 0 0 16 21.5 A 0.5 0.5 0 0 0 16.5 21 L 16.5 14 A 0.5 0.5 0 0 0 16 13.5 z M 12 15.5 A 0.5 0.5 0 0 0 11.5 16 L 11.5 21 A 0.5 0.5 0 0 0 12 21.5 A 0.5 0.5 0 0 0 12.5 21 L 12.5 16 A 0.5 0.5 0 0 0 12 15.5 z M 4 17.5 A 0.5 0.5 0 0 0 3.5 18 L 3.5 21 A 0.5 0.5 0 0 0 4 21.5 A 0.5 0.5 0 0 0 4.5 21 L 4.5 18 A 0.5 0.5 0 0 0 4 17.5 z " />
</svg>
