<?xml version="1.0" encoding="UTF-8" standalone="no"?>
<svg
   width="24"
   height="24"
   viewBox="0 0 24 24"
   fill="none"
   stroke="currentColor"
   stroke-width="1"
   stroke-linecap="round"
   stroke-linejoin="round"
   version="1.1"
   id="svg2"
   sodipodi:docname=".tmp_chevrons-down-up.svg"
   xmlns:inkscape="http://www.inkscape.org/namespaces/inkscape"
   xmlns:sodipodi="http://sodipodi.sourceforge.net/DTD/sodipodi-0.dtd"
   xmlns="http://www.w3.org/2000/svg"
   xmlns:svg="http://www.w3.org/2000/svg">
  <defs
     id="defs2" />
  <sodipodi:namedview
     id="namedview2"
     pagecolor="#ffffff"
     bordercolor="#000000"
     borderopacity="0.25"
     inkscape:showpageshadow="2"
     inkscape:pageopacity="0.0"
     inkscape:pagecheckerboard="0"
     inkscape:deskcolor="#d1d1d1" />
  <path
     id="path1"
     style="baseline-shift:baseline;display:inline;overflow:visible;vector-effect:none;fill:#000000;stroke:none;stroke-linecap:butt;stroke-linejoin:miter;enable-background:accumulate;stop-color:#000000;stop-opacity:1;opacity:1"
     d="M 7 3.5 A 0.5 0.5 0 0 0 6.6464844 3.6464844 A 0.5 0.5 0 0 0 6.6464844 4.3535156 L 11.646484 9.3535156 A 0.50005 0.50005 0 0 0 12.353516 9.3535156 L 17.353516 4.3535156 A 0.5 0.5 0 0 0 17.353516 3.6464844 A 0.5 0.5 0 0 0 16.646484 3.6464844 L 12 8.2929688 L 7.3535156 3.6464844 A 0.5 0.5 0 0 0 7 3.5 z M 12 14.5 A 0.50005 0.50005 0 0 0 11.646484 14.646484 L 6.6464844 19.646484 A 0.5 0.5 0 0 0 6.6464844 20.353516 A 0.5 0.5 0 0 0 7.3535156 20.353516 L 12 15.707031 L 16.646484 20.353516 A 0.5 0.5 0 0 0 17.353516 20.353516 A 0.5 0.5 0 0 0 17.353516 19.646484 L 12.353516 14.646484 A 0.50005 0.50005 0 0 0 12 14.5 z " />
</svg>
