<?xml version="1.0" encoding="UTF-8" standalone="no"?>
<svg
   width="24"
   height="24"
   viewBox="0 0 24 24"
   fill="none"
   stroke="currentColor"
   stroke-width="1"
   stroke-linecap="round"
   stroke-linejoin="round"
   version="1.1"
   id="svg1"
   sodipodi:docname=".tmp_command.svg"
   xmlns:inkscape="http://www.inkscape.org/namespaces/inkscape"
   xmlns:sodipodi="http://sodipodi.sourceforge.net/DTD/sodipodi-0.dtd"
   xmlns="http://www.w3.org/2000/svg"
   xmlns:svg="http://www.w3.org/2000/svg">
  <defs
     id="defs1" />
  <sodipodi:namedview
     id="namedview1"
     pagecolor="#ffffff"
     bordercolor="#000000"
     borderopacity="0.25"
     inkscape:showpageshadow="2"
     inkscape:pageopacity="0.0"
     inkscape:pagecheckerboard="0"
     inkscape:deskcolor="#d1d1d1" />
  <path
     id="path1"
     style="baseline-shift:baseline;display:inline;overflow:visible;vector-effect:none;fill:#000000;stroke:none;stroke-linecap:butt;stroke-linejoin:miter;enable-background:accumulate;stop-color:#000000;stop-opacity:1;opacity:1"
     d="M 5.8867188 2.4980469 C 5.7195636 2.5027978 5.551285 2.5196935 5.3847656 2.5488281 C 4.7186883 2.6653669 4.0690808 2.9817005 3.5253906 3.5253906 C 2.4380103 4.612771 2.2635355 6.1275348 2.765625 7.3398438 C 3.2677145 8.5521528 4.4620573 9.5 6 9.5 L 8.5 9.5 L 8.5 14.5 L 6 14.5 C 4.4620573 14.5 3.2677145 15.447847 2.765625 16.660156 C 2.2635355 17.872465 2.4380103 19.387229 3.5253906 20.474609 C 4.612771 21.56199 6.1275348 21.736464 7.3398438 21.234375 C 8.5521528 20.732286 9.5 19.537943 9.5 18 L 9.5 15.5 L 14.5 15.5 L 14.5 18 C 14.5 19.537943 15.447847 20.732286 16.660156 21.234375 C 17.872465 21.736464 19.387229 21.56199 20.474609 20.474609 C 21.56199 19.387229 21.736464 17.872465 21.234375 16.660156 C 20.732286 15.447847 19.537943 14.5 18 14.5 L 15.5 14.5 L 15.5 9.5 L 18 9.5 C 19.537943 9.5 20.732286 8.5521528 21.234375 7.3398438 C 21.736464 6.1275349 21.56199 4.612771 20.474609 3.5253906 C 19.387229 2.4380103 17.872465 2.2635355 16.660156 2.765625 C 15.447847 3.2677145 14.5 4.4620573 14.5 6 L 14.5 8.5 L 9.5 8.5 L 9.5 6 C 9.5 4.4620573 8.5521528 3.2677145 7.3398438 2.765625 C 6.8852279 2.5773415 6.3881842 2.4837941 5.8867188 2.4980469 z M 5.921875 3.4902344 C 6.276629 3.4830912 6.6285882 3.5534253 6.9570312 3.6894531 C 7.8328793 4.0521941 8.5 4.8650422 8.5 6 L 8.5 8.5 L 6 8.5 C 4.8650422 8.5 4.0521941 7.8328793 3.6894531 6.9570312 C 3.3267122 6.0811832 3.4300053 5.0348385 4.2324219 4.2324219 C 4.6336302 3.8312136 5.0950878 3.6039806 5.5664062 3.5234375 C 5.6842359 3.5033017 5.8036237 3.4926154 5.921875 3.4902344 z M 18.078125 3.4902344 C 18.196376 3.4926154 18.315764 3.5033017 18.433594 3.5234375 C 18.904912 3.6039805 19.36637 3.8312136 19.767578 4.2324219 C 20.569995 5.0348385 20.673288 6.0811832 20.310547 6.9570312 C 19.947806 7.8328793 19.134958 8.5 18 8.5 L 15.5 8.5 L 15.5 6 C 15.5 4.8650422 16.167121 4.0521941 17.042969 3.6894531 C 17.371412 3.5534253 17.723371 3.4830912 18.078125 3.4902344 z M 9.5 9.5 L 14.5 9.5 L 14.5 14.5 L 9.5 14.5 L 9.5 9.5 z M 6 15.5 L 8.5 15.5 L 8.5 18 C 8.5 19.134958 7.8328793 19.947806 6.9570312 20.310547 C 6.0811832 20.673288 5.0348385 20.569995 4.2324219 19.767578 C 3.4300053 18.965162 3.3267122 17.918817 3.6894531 17.042969 C 4.0521941 16.167121 4.8650422 15.5 6 15.5 z M 15.5 15.5 L 18 15.5 C 19.134958 15.5 19.947806 16.167121 20.310547 17.042969 C 20.673288 17.918817 20.569995 18.965162 19.767578 19.767578 C 18.965162 20.569995 17.918817 20.673288 17.042969 20.310547 C 16.167121 19.947806 15.5 19.134958 15.5 18 L 15.5 15.5 z " />
</svg>
