<?xml version="1.0" encoding="UTF-8" standalone="no"?>
<svg
   width="24"
   height="24"
   viewBox="0 0 24 24"
   fill="none"
   stroke="currentColor"
   stroke-width="1"
   stroke-linecap="round"
   stroke-linejoin="round"
   version="1.1"
   id="svg1"
   sodipodi:docname=".tmp_cone.svg"
   xmlns:inkscape="http://www.inkscape.org/namespaces/inkscape"
   xmlns:sodipodi="http://sodipodi.sourceforge.net/DTD/sodipodi-0.dtd"
   xmlns="http://www.w3.org/2000/svg"
   xmlns:svg="http://www.w3.org/2000/svg">
  <defs
     id="defs1" />
  <sodipodi:namedview
     id="namedview1"
     pagecolor="#ffffff"
     bordercolor="#000000"
     borderopacity="0.25"
     inkscape:showpageshadow="2"
     inkscape:pageopacity="0.0"
     inkscape:pagecheckerboard="0"
     inkscape:deskcolor="#d1d1d1" />
  <path
     id="path1"
     style="baseline-shift:baseline;display:inline;overflow:visible;vector-effect:none;fill:#000000;stroke:none;stroke-linecap:butt;stroke-linejoin:miter;enable-background:accumulate;stop-color:#000000;stop-opacity:1;opacity:1"
     d="M 12 1.5292969 C 11.457983 1.5292969 10.916357 1.8024117 10.650391 2.3515625 L 2.6875 18.257812 L 2.6523438 18.326172 A 0.5 0.5 0 0 0 2.625 18.390625 C 2.5445998 18.582231 2.5 18.786313 2.5 19 C 2.5 19.616879 2.8734609 20.146819 3.3984375 20.560547 C 3.9234141 20.974275 4.6279847 21.312193 5.4785156 21.595703 C 7.1795774 22.162724 9.469682 22.5 12 22.5 C 14.530318 22.5 16.820423 22.162724 18.521484 21.595703 C 19.372015 21.312193 20.076587 20.974275 20.601562 20.560547 C 21.126539 20.146819 21.5 19.616879 21.5 19 C 21.5 18.78626 21.455438 18.582273 21.375 18.390625 A 0.5 0.5 0 0 0 21.347656 18.326172 L 21.3125 18.257812 L 13.349609 2.3515625 C 13.083643 1.8024117 12.542017 1.5292969 12 1.5292969 z M 12 2.4824219 C 12.175452 2.4824219 12.350903 2.5841134 12.449219 2.7871094 A 0.50005 0.50005 0 0 0 12.453125 2.7929688 L 19.445312 16.761719 C 19.160643 16.633728 18.852295 16.514567 18.521484 16.404297 C 16.820423 15.837276 14.530318 15.5 12 15.5 C 9.469682 15.5 7.1795774 15.837276 5.4785156 16.404297 C 5.1476995 16.514569 4.8393616 16.633725 4.5546875 16.761719 L 11.546875 2.7929688 A 0.50005 0.50005 0 0 0 11.550781 2.7871094 C 11.649097 2.5841134 11.824548 2.4824219 12 2.4824219 z M 12 16.5 C 14.440245 16.5 16.648781 16.83475 18.205078 17.353516 C 18.983227 17.612899 19.596549 17.920507 19.982422 18.224609 C 20.193843 18.391228 20.329241 18.54424 20.408203 18.683594 L 20.412109 18.689453 C 20.424807 18.712249 20.435534 18.735771 20.445312 18.757812 C 20.483895 18.844777 20.5 18.924984 20.5 19 C 20.5 19.211549 20.368295 19.471289 19.982422 19.775391 C 19.596549 20.079493 18.983227 20.387101 18.205078 20.646484 C 16.648781 21.16525 14.440245 21.5 12 21.5 C 9.5597553 21.5 7.3512194 21.16525 5.7949219 20.646484 C 5.0167731 20.387101 4.4034511 20.079493 4.0175781 19.775391 C 3.6317052 19.471289 3.5 19.211549 3.5 19 C 3.5 18.927115 3.5164595 18.84784 3.5527344 18.763672 C 3.5640307 18.737461 3.5763459 18.710879 3.5917969 18.683594 C 3.6707422 18.544183 3.8060493 18.391313 4.0175781 18.224609 C 4.4034511 17.920507 5.0167731 17.612899 5.7949219 17.353516 C 7.3512194 16.83475 9.5597553 16.5 12 16.5 z " />
</svg>
