<?xml version="1.0" encoding="UTF-8" standalone="no"?>
<svg
   width="24"
   height="24"
   viewBox="0 0 24 24"
   fill="none"
   stroke="currentColor"
   stroke-width="1"
   stroke-linecap="round"
   stroke-linejoin="round"
   version="1.1"
   id="svg5"
   sodipodi:docname=".tmp_door-open.svg"
   xmlns:inkscape="http://www.inkscape.org/namespaces/inkscape"
   xmlns:sodipodi="http://sodipodi.sourceforge.net/DTD/sodipodi-0.dtd"
   xmlns="http://www.w3.org/2000/svg"
   xmlns:svg="http://www.w3.org/2000/svg">
  <defs
     id="defs5" />
  <sodipodi:namedview
     id="namedview5"
     pagecolor="#ffffff"
     bordercolor="#000000"
     borderopacity="0.25"
     inkscape:showpageshadow="2"
     inkscape:pageopacity="0.0"
     inkscape:pagecheckerboard="0"
     inkscape:deskcolor="#d1d1d1" />
  <path
     id="path1"
     style="baseline-shift:baseline;display:inline;overflow:visible;vector-effect:none;fill:#000000;stroke:none;stroke-linecap:butt;stroke-linejoin:miter;enable-background:accumulate;stop-color:#000000;stop-opacity:1;opacity:1"
     d="M 13.023438 2.0625 C 12.831792 2.0609595 12.643194 2.0816409 12.460938 2.1230469 C 11.71234 2.2931165 11.069228 2.8054441 10.738281 3.5 L 8 3.5 C 6.6252104 3.5 5.5 4.6252104 5.5 6 L 5.5 19.5 L 2 19.5 A 0.5 0.5 0 0 0 1.5 20 A 0.5 0.5 0 0 0 2 20.5 L 10.5 20.5 L 10.5 20.71875 C 10.500266 21.682093 11.428573 22.406957 12.363281 22.173828 L 19.058594 20.5 L 22 20.5 A 0.5 0.5 0 0 0 22.5 20 A 0.5 0.5 0 0 0 22 19.5 L 19.5 19.5 L 19.5 5.5625 C 19.499827 4.4180096 18.715798 3.4142577 17.605469 3.1367188 L 13.605469 2.1367188 C 13.409775 2.087803 13.215083 2.0640405 13.023438 2.0625 z M 13.007812 3.0605469 C 13.124231 3.0622535 13.243536 3.0774902 13.363281 3.1074219 L 17.363281 4.1074219 C 18.033471 4.2749431 18.499895 4.8716908 18.5 5.5625 L 18.5 19.609375 L 12.121094 21.203125 C 11.793998 21.284707 11.500093 21.055866 11.5 20.71875 L 11.5 4.5625 L 11.5 4.5605469 C 11.500563 3.6965398 12.192883 3.0486003 13.007812 3.0605469 z M 8 4.5 L 10.5 4.5 C 10.499505 4.5201159 10.500013 4.540299 10.5 4.5605469 L 10.5 4.5625 L 10.5 19.5 L 6.5 19.5 L 6.5 6 C 6.5 5.1656506 7.1656506 4.5 8 4.5 z M 14 11.5 A 0.5 0.5 0 0 0 13.5 12 A 0.5 0.5 0 0 0 14 12.5 L 14.009766 12.5 A 0.5 0.5 0 0 0 14.509766 12 A 0.5 0.5 0 0 0 14.009766 11.5 L 14 11.5 z " />
</svg>
