<?xml version="1.0" encoding="UTF-8" standalone="no"?>
<svg
   width="24"
   height="24"
   viewBox="0 0 24 24"
   fill="none"
   stroke="currentColor"
   stroke-width="1"
   stroke-linecap="round"
   stroke-linejoin="round"
   version="1.1"
   id="svg3"
   sodipodi:docname=".tmp_euro.svg"
   xmlns:inkscape="http://www.inkscape.org/namespaces/inkscape"
   xmlns:sodipodi="http://sodipodi.sourceforge.net/DTD/sodipodi-0.dtd"
   xmlns="http://www.w3.org/2000/svg"
   xmlns:svg="http://www.w3.org/2000/svg">
  <defs
     id="defs3" />
  <sodipodi:namedview
     id="namedview3"
     pagecolor="#ffffff"
     bordercolor="#000000"
     borderopacity="0.25"
     inkscape:showpageshadow="2"
     inkscape:pageopacity="0.0"
     inkscape:pagecheckerboard="0"
     inkscape:deskcolor="#d1d1d1" />
  <path
     id="path1"
     style="baseline-shift:baseline;display:inline;overflow:visible;vector-effect:none;fill:#000000;stroke:none;stroke-linecap:butt;stroke-linejoin:miter;enable-background:accumulate;stop-color:#000000;stop-opacity:1;opacity:1"
     d="M 13.792969 3.5 C 10.030305 3.5473271 6.8706189 6.0715904 5.8476562 9.5 L 4 9.5 A 0.5 0.5 0 0 0 3.5 10 A 0.5 0.5 0 0 0 4 10.5 L 5.6152344 10.5 C 5.5332364 10.987374 5.4938458 11.48869 5.5 12 L 5.5 12.001953 C 5.5000164 12.003253 5.499983 12.004559 5.5 12.005859 C 5.5003473 12.515107 5.5455467 13.014484 5.6308594 13.5 L 4 13.5 A 0.5 0.5 0 0 0 3.5 14 A 0.5 0.5 0 0 0 4 14.5 L 5.8691406 14.5 C 6.9161843 17.960191 10.07429 20.5 13.800781 20.5 C 15.934115 20.5 17.848757 19.645261 19.326172 18.378906 A 0.5 0.5 0 0 0 19.378906 17.673828 A 0.5 0.5 0 0 0 18.673828 17.621094 C 17.351247 18.754694 15.667448 19.5 13.800781 19.5 C 10.631833 19.5 7.9235488 17.409829 6.9179688 14.5 L 13 14.5 A 0.5 0.5 0 0 0 13.5 14 A 0.5 0.5 0 0 0 13 13.5 L 6.6464844 13.5 C 6.5501675 13.015187 6.5 12.51353 6.5 12 A 0.50005 0.50005 0 0 0 6.5 11.994141 C 6.4934869 11.482849 6.5386724 10.983115 6.6308594 10.5 L 16 10.5 A 0.5 0.5 0 0 0 16.5 10 A 0.5 0.5 0 0 0 16 9.5 L 6.8964844 9.5 C 7.8800106 6.6222255 10.586097 4.541328 13.804688 4.5 C 15.600827 4.49559 17.334387 5.1634345 18.664062 6.3710938 A 0.5 0.5 0 0 0 19.371094 6.3359375 A 0.5 0.5 0 0 0 19.335938 5.6289062 C 17.820715 4.2527251 15.845714 3.4938619 13.798828 3.5 A 0.50005 0.50005 0 0 0 13.792969 3.5 z " />
</svg>
