<?xml version="1.0" encoding="UTF-8" standalone="no"?>
<svg
   width="24"
   height="24"
   viewBox="0 0 24 24"
   fill="none"
   stroke="currentColor"
   stroke-width="1"
   stroke-linecap="round"
   stroke-linejoin="round"
   version="1.1"
   id="svg1"
   sodipodi:docname=".tmp_eye.svg"
   xmlns:inkscape="http://www.inkscape.org/namespaces/inkscape"
   xmlns:sodipodi="http://sodipodi.sourceforge.net/DTD/sodipodi-0.dtd"
   xmlns="http://www.w3.org/2000/svg"
   xmlns:svg="http://www.w3.org/2000/svg">
  <defs
     id="defs1" />
  <sodipodi:namedview
     id="namedview1"
     pagecolor="#ffffff"
     bordercolor="#000000"
     borderopacity="0.25"
     inkscape:showpageshadow="2"
     inkscape:pageopacity="0.0"
     inkscape:pagecheckerboard="0"
     inkscape:deskcolor="#d1d1d1" />
  <path
     id="path1"
     style="baseline-shift:baseline;display:inline;overflow:visible;vector-effect:none;fill:#000000;stroke:none;stroke-linecap:butt;stroke-linejoin:miter;enable-background:accumulate;stop-color:#000000;stop-opacity:1;opacity:1"
     d="M 12 4.5 C 7.7631129 4.5 3.5052973 6.8401761 1.5996094 11.460938 A 0.50005 0.50005 0 0 0 1.59375 11.478516 C 1.4687798 11.815179 1.4687798 12.184821 1.59375 12.521484 A 0.5 0.5 0 0 0 1.5996094 12.527344 A 0.5 0.5 0 0 0 1.5996094 12.539062 C 3.5052973 17.159779 7.7631129 19.5 12 19.5 C 16.236887 19.5 20.494703 17.159823 22.400391 12.539062 A 0.50005 0.50005 0 0 0 22.40625 12.521484 C 22.53122 12.184821 22.53122 11.815179 22.40625 11.478516 A 0.50005 0.50005 0 0 0 22.400391 11.460938 C 20.494703 6.8401791 16.236887 4.5 12 4.5 z M 12 5.5 C 15.86765 5.5 19.713941 7.5907368 21.46875 11.828125 C 21.50953 11.93935 21.50953 12.06065 21.46875 12.171875 C 19.713941 16.409263 15.86765 18.5 12 18.5 C 8.1323502 18.5 4.2860588 16.409263 2.53125 12.171875 C 2.490471 12.06065 2.490471 11.93935 2.53125 11.828125 C 4.2860588 7.5907368 8.1323502 5.5 12 5.5 z M 12 8.5 C 10.072926 8.5 8.5 10.072926 8.5 12 C 8.5 13.927074 10.072926 15.5 12 15.5 C 13.927074 15.5 15.5 13.927074 15.5 12 C 15.5 10.072926 13.927074 8.5 12 8.5 z M 12 9.5 C 13.386634 9.5 14.5 10.613366 14.5 12 C 14.5 13.386634 13.386634 14.5 12 14.5 C 10.613366 14.5 9.5 13.386634 9.5 12 C 9.5 10.613366 10.613366 9.5 12 9.5 z " />
</svg>
