<?xml version="1.0" encoding="UTF-8" standalone="no"?>
<svg
   width="24"
   height="24"
   viewBox="0 0 24 24"
   fill="none"
   stroke="currentColor"
   stroke-width="1"
   stroke-linecap="round"
   stroke-linejoin="round"
   version="1.1"
   id="svg5"
   sodipodi:docname=".tmp_figma.svg"
   xmlns:inkscape="http://www.inkscape.org/namespaces/inkscape"
   xmlns:sodipodi="http://sodipodi.sourceforge.net/DTD/sodipodi-0.dtd"
   xmlns="http://www.w3.org/2000/svg"
   xmlns:svg="http://www.w3.org/2000/svg">
  <defs
     id="defs5" />
  <sodipodi:namedview
     id="namedview5"
     pagecolor="#ffffff"
     bordercolor="#000000"
     borderopacity="0.25"
     inkscape:showpageshadow="2"
     inkscape:pageopacity="0.0"
     inkscape:pagecheckerboard="0"
     inkscape:deskcolor="#d1d1d1" />
  <path
     id="path1"
     style="baseline-shift:baseline;display:inline;overflow:visible;vector-effect:none;fill:#000000;stroke:none;stroke-linecap:butt;stroke-linejoin:miter;enable-background:accumulate;stop-color:#000000;stop-opacity:1;opacity:1"
     d="M 8.5 1.5 C 6.2967833 1.5 4.5 3.2967833 4.5 5.5 C 4.5 7.002875 5.3356134 8.3166373 6.5664062 9 C 5.3356134 9.6833626 4.5 10.997125 4.5 12.5 C 4.5 14.002875 5.3356135 15.316637 6.5664062 16 C 5.3356135 16.683363 4.5 17.997125 4.5 19.5 C 4.5 20.791666 5.0023778 21.823077 5.7617188 22.498047 C 6.5210598 23.173016 7.5138889 23.5 8.5 23.5 C 9.4861111 23.5 10.47894 23.173016 11.238281 22.498047 C 11.997622 21.823077 12.5 20.791666 12.5 19.5 L 12.5 16 L 12.5 15.240234 C 12.583261 15.331282 12.670641 15.417089 12.761719 15.498047 C 13.52106 16.173016 14.513889 16.5 15.5 16.5 C 16.486111 16.5 17.47894 16.173016 18.238281 15.498047 C 18.997622 14.823077 19.5 13.791666 19.5 12.5 C 19.5 11.208334 18.997622 10.176923 18.238281 9.5019531 C 18.020099 9.3080131 17.782288 9.1428386 17.53125 9.0058594 C 17.905568 8.8007529 18.230074 8.5397503 18.498047 8.2382812 C 19.173016 7.4789402 19.5 6.4861111 19.5 5.5 C 19.5 4.5138889 19.173016 3.5210596 18.498047 2.7617188 C 17.823077 2.0023777 16.791666 1.5 15.5 1.5 L 12 1.5 L 8.5 1.5 z M 8.5 2.5 L 11.5 2.5 L 11.5 8.5 L 8.5 8.5 C 6.8372234 8.5 5.5 7.1627766 5.5 5.5 C 5.5 3.8372234 6.8372234 2.5 8.5 2.5 z M 12.5 2.5 L 15.5 2.5 C 16.541666 2.5 17.260256 2.8726222 17.751953 3.4257812 C 18.24365 3.9789402 18.5 4.7361111 18.5 5.5 C 18.5 6.2638889 18.24365 7.0210597 17.751953 7.5742188 C 17.260256 8.1273778 16.541666 8.5 15.5 8.5 L 12.5 8.5 L 12.5 2.5 z M 8.5 9.5 L 11.5 9.5 L 11.5 12.5 L 11.5 15.5 L 8.5 15.5 C 6.8372234 15.5 5.5 14.162777 5.5 12.5 C 5.5 10.837223 6.8372234 9.5 8.5 9.5 z M 12.5 9.5 L 12.763672 9.5 L 12.761719 9.5019531 C 12.670641 9.582911 12.583261 9.668718 12.5 9.7597656 L 12.5 9.5 z M 15.5 9.5 C 16.263889 9.5 17.02106 9.7563501 17.574219 10.248047 C 18.127378 10.739744 18.5 11.458334 18.5 12.5 C 18.5 13.541666 18.127378 14.260256 17.574219 14.751953 C 17.02106 15.24365 16.263889 15.5 15.5 15.5 C 14.736111 15.5 13.97894 15.24365 13.425781 14.751953 C 12.872622 14.260256 12.5 13.541666 12.5 12.5 C 12.5 11.458334 12.872622 10.739744 13.425781 10.248047 C 13.97894 9.7563501 14.736111 9.5 15.5 9.5 z M 8.5 16.5 L 11.5 16.5 L 11.5 19.5 C 11.5 20.541666 11.127378 21.260256 10.574219 21.751953 C 10.02106 22.24365 9.2638889 22.5 8.5 22.5 C 7.7361111 22.5 6.9789403 22.24365 6.4257812 21.751953 C 5.8726223 21.260256 5.5 20.541666 5.5 19.5 C 5.5 17.837223 6.8372234 16.5 8.5 16.5 z " />
</svg>
