<?xml version="1.0" encoding="UTF-8" standalone="no"?>
<svg
   width="24"
   height="24"
   viewBox="0 0 24 24"
   fill="none"
   stroke="currentColor"
   stroke-width="1"
   stroke-linecap="round"
   stroke-linejoin="round"
   version="1.1"
   id="svg1"
   sodipodi:docname=".tmp_flag.svg"
   xmlns:inkscape="http://www.inkscape.org/namespaces/inkscape"
   xmlns:sodipodi="http://sodipodi.sourceforge.net/DTD/sodipodi-0.dtd"
   xmlns="http://www.w3.org/2000/svg"
   xmlns:svg="http://www.w3.org/2000/svg">
  <defs
     id="defs1" />
  <sodipodi:namedview
     id="namedview1"
     pagecolor="#ffffff"
     bordercolor="#000000"
     borderopacity="0.25"
     inkscape:showpageshadow="2"
     inkscape:pageopacity="0.0"
     inkscape:pagecheckerboard="0"
     inkscape:deskcolor="#d1d1d1" />
  <path
     id="path1"
     style="baseline-shift:baseline;display:inline;overflow:visible;vector-effect:none;fill:#000000;stroke:none;stroke-linecap:butt;stroke-linejoin:miter;enable-background:accumulate;stop-color:#000000;stop-opacity:1;opacity:1"
     d="M 8 1.5 C 6.5936648 1.5 5.2246775 1.9569802 4.0996094 2.8007812 C 3.7222514 3.0837997 3.5 3.5283026 3.5 4 L 3.5 22 A 0.5 0.5 0 0 0 4 22.5 A 0.5 0.5 0 0 0 4.5 22 L 4.5 15.798828 C 5.4862388 14.978428 6.7129679 14.500033 8 14.5 C 9.3888889 14.5 10.564453 14.964844 11.814453 15.464844 C 13.064453 15.964844 14.388889 16.5 16 16.5 C 17.406335 16.5 18.775322 16.04302 19.900391 15.199219 C 20.277749 14.9162 20.5 14.471697 20.5 14 L 20.5 4 C 20.5 2.7954078 19.063283 2.0780259 18.099609 2.8007812 C 17.508242 3.2441685 16.598698 3.5 15.332031 3.5 C 14.308409 3.5 13.287834 3.0444135 12.113281 2.5410156 C 10.938728 2.0376178 9.6111111 1.5 8 1.5 z M 8 2.5 C 9.3888889 2.5 10.560053 2.9623822 11.71875 3.4589844 C 12.877447 3.9555865 14.022654 4.5 15.332031 4.5 C 16.732031 4.5 17.86792 4.2228887 18.699219 3.5996094 C 19.054017 3.3335104 19.5 3.5565016 19.5 4 L 19.5 14 C 19.5 14.157817 19.42704 14.3057 19.300781 14.400391 C 18.348695 15.114455 17.190107 15.5 16 15.5 C 14.611111 15.5 13.435547 15.035156 12.185547 14.535156 C 10.935547 14.035156 9.6111111 13.5 8 13.5 C 6.7324981 13.500032 5.5500933 13.961816 4.5 14.646484 L 4.5 4 C 4.5 3.8421828 4.5729651 3.6942997 4.6992188 3.5996094 C 5.6513047 2.8855449 6.8098926 2.5 8 2.5 z " />
</svg>
