<?xml version="1.0" encoding="UTF-8" standalone="no"?>
<svg
   width="24"
   height="24"
   viewBox="0 0 24 24"
   fill="none"
   stroke="currentColor"
   stroke-width="1"
   stroke-linecap="round"
   stroke-linejoin="round"
   version="1.1"
   id="svg5"
   sodipodi:docname=".tmp_git-pull-request-create-arrow.svg"
   xmlns:inkscape="http://www.inkscape.org/namespaces/inkscape"
   xmlns:sodipodi="http://sodipodi.sourceforge.net/DTD/sodipodi-0.dtd"
   xmlns="http://www.w3.org/2000/svg"
   xmlns:svg="http://www.w3.org/2000/svg">
  <defs
     id="defs5" />
  <sodipodi:namedview
     id="namedview5"
     pagecolor="#ffffff"
     bordercolor="#000000"
     borderopacity="0.25"
     inkscape:showpageshadow="2"
     inkscape:pageopacity="0.0"
     inkscape:pagecheckerboard="0"
     inkscape:deskcolor="#d1d1d1" />
  <path
     id="circle1"
     style="baseline-shift:baseline;display:inline;overflow:visible;vector-effect:none;fill:#000000;stroke:none;stroke-linecap:butt;stroke-linejoin:miter;enable-background:accumulate;stop-color:#000000;stop-opacity:1;opacity:1"
     d="M 5 2.5 C 3.0729257 2.5 1.5 4.0729257 1.5 6 C 1.5 7.7573842 2.8081115 9.2208437 4.5 9.4648438 L 4.5 21 A 0.5 0.5 0 0 0 5 21.5 A 0.5 0.5 0 0 0 5.5 21 L 5.5 9.4648438 C 7.1918885 9.2208437 8.5 7.7573842 8.5 6 C 8.5 4.0729257 6.9270743 2.5 5 2.5 z M 15 2.5 A 0.5 0.5 0 0 0 14.646484 2.6464844 L 11.646484 5.6464844 A 0.5 0.5 0 0 0 11.607422 5.6914062 A 0.50005 0.50005 0 0 0 11.603516 5.6953125 A 0.5 0.5 0 0 0 11.570312 5.7460938 A 0.50005 0.50005 0 0 0 11.552734 5.7773438 A 0.5 0.5 0 0 0 11.517578 5.8691406 A 0.50005 0.50005 0 0 0 11.517578 5.8710938 A 0.5 0.5 0 0 0 11.503906 5.9335938 A 0.50005 0.50005 0 0 0 11.503906 5.9355469 A 0.5 0.5 0 0 0 11.5 6 A 0.50005 0.50005 0 0 0 11.503906 6.0644531 A 0.5 0.5 0 0 0 11.503906 6.0664062 A 0.50005 0.50005 0 0 0 11.517578 6.1289062 A 0.5 0.5 0 0 0 11.517578 6.1308594 A 0.50005 0.50005 0 0 0 11.539062 6.1914062 A 0.5 0.5 0 0 0 11.552734 6.2226562 A 0.50005 0.50005 0 0 0 11.603516 6.3046875 A 0.5 0.5 0 0 0 11.607422 6.3085938 A 0.50005 0.50005 0 0 0 11.646484 6.3535156 A 0.5 0.5 0 0 0 11.652344 6.359375 L 14.646484 9.3535156 A 0.5 0.5 0 0 0 15.353516 9.3535156 A 0.5 0.5 0 0 0 15.353516 8.6464844 L 13.207031 6.5 L 17 6.5 C 17.834349 6.5 18.5 7.1656506 18.5 8 L 18.5 11 A 0.5 0.5 0 0 0 19 11.5 A 0.5 0.5 0 0 0 19.5 11 L 19.5 8 C 19.5 6.6252104 18.37479 5.5 17 5.5 L 13.207031 5.5 L 15.353516 3.3535156 A 0.5 0.5 0 0 0 15.353516 2.6464844 A 0.5 0.5 0 0 0 15 2.5 z M 5 3.5 C 6.3866342 3.5 7.5 4.6133658 7.5 6 C 7.5 7.3866342 6.3866342 8.5 5 8.5 C 3.6133658 8.5 2.5 7.3866342 2.5 6 C 2.5 4.6133658 3.6133658 3.5 5 3.5 z M 19 14.5 A 0.5 0.5 0 0 0 18.5 15 L 18.5 17.5 L 16 17.5 A 0.5 0.5 0 0 0 15.5 18 A 0.5 0.5 0 0 0 16 18.5 L 18.5 18.5 L 18.5 21 A 0.5 0.5 0 0 0 19 21.5 A 0.5 0.5 0 0 0 19.5 21 L 19.5 18.5 L 22 18.5 A 0.5 0.5 0 0 0 22.5 18 A 0.5 0.5 0 0 0 22 17.5 L 19.5 17.5 L 19.5 15 A 0.5 0.5 0 0 0 19 14.5 z " />
</svg>
