<?xml version="1.0" encoding="UTF-8" standalone="no"?>
<svg
   width="24"
   height="24"
   viewBox="0 0 24 24"
   fill="none"
   stroke="currentColor"
   stroke-width="1"
   stroke-linecap="round"
   stroke-linejoin="round"
   version="1.1"
   id="svg8"
   sodipodi:docname=".tmp_grape.svg"
   xmlns:inkscape="http://www.inkscape.org/namespaces/inkscape"
   xmlns:sodipodi="http://sodipodi.sourceforge.net/DTD/sodipodi-0.dtd"
   xmlns="http://www.w3.org/2000/svg"
   xmlns:svg="http://www.w3.org/2000/svg">
  <defs
     id="defs8" />
  <sodipodi:namedview
     id="namedview8"
     pagecolor="#ffffff"
     bordercolor="#000000"
     borderopacity="0.25"
     inkscape:showpageshadow="2"
     inkscape:pageopacity="0.0"
     inkscape:pagecheckerboard="0"
     inkscape:deskcolor="#d1d1d1" />
  <path
     id="path1"
     style="baseline-shift:baseline;display:inline;overflow:visible;vector-effect:none;fill:#000000;stroke:none;stroke-linecap:butt;stroke-linejoin:miter;enable-background:accumulate;stop-color:#000000;stop-opacity:1;opacity:1"
     d="M 22 1.5 A 0.50005 0.50005 0 0 0 21.646484 1.6464844 L 17.410156 5.8828125 C 17.410261 5.8717111 17.410156 5.8607346 17.410156 5.8496094 C 17.410156 3.9225351 15.837231 2.3496094 13.910156 2.3496094 C 12.315399 2.3496094 10.963868 3.4269412 10.544922 4.890625 C 9.9140559 4.2783858 9.0539106 3.9003906 8.109375 3.9003906 C 6.1823007 3.9003906 4.609375 5.4733163 4.609375 7.4003906 C 4.609375 8.3443824 4.9860394 9.2032186 5.5976562 9.8339844 C 4.1355061 10.253922 3.0605469 11.605554 3.0605469 13.199219 C 3.0605469 14.142667 3.4378334 15.002147 4.0488281 15.632812 C 2.5812485 16.04923 1.5 17.402465 1.5 19 C 1.5 20.927074 3.0729257 22.5 5 22.5 C 6.5975351 22.5 7.9507702 21.418751 8.3671875 19.951172 C 8.9978525 20.562166 9.8573339 20.939453 10.800781 20.939453 C 12.394446 20.939453 13.746078 19.864494 14.166016 18.402344 C 14.796781 19.01396 15.655618 19.390625 16.599609 19.390625 C 18.526684 19.390625 20.099609 17.817699 20.099609 15.890625 C 20.099609 14.94609 19.721613 14.085944 19.109375 13.455078 C 20.573059 13.036132 21.650391 11.684601 21.650391 10.089844 C 21.650391 8.1627691 20.077465 6.5898438 18.150391 6.5898438 C 18.139421 6.5898438 18.128134 6.589742 18.117188 6.5898438 L 21.5 3.2070312 L 21.5 5 A 0.5 0.5 0 0 0 22 5.5 A 0.5 0.5 0 0 0 22.5 5 L 22.5 2 A 0.50005 0.50005 0 0 0 22.191406 1.5390625 A 0.50005 0.50005 0 0 0 22 1.5 z M 13.910156 3.3496094 C 15.29679 3.3496094 16.410156 4.4629752 16.410156 5.8496094 C 16.410156 6.4877871 16.174917 7.0672974 15.785156 7.5078125 L 15.755859 7.5371094 A 0.5 0.5 0 0 0 15.724609 7.5703125 C 15.684546 7.608887 15.645625 7.649033 15.607422 7.6894531 C 15.162433 8.1002048 14.567354 8.3496094 13.910156 8.3496094 C 12.523522 8.3496094 11.410156 7.2362436 11.410156 5.8496094 C 11.410156 4.4629752 12.523522 3.3496094 13.910156 3.3496094 z M 8.109375 4.9003906 C 9.4960092 4.9003906 10.609375 6.0137564 10.609375 7.4003906 C 10.609375 8.7870248 9.4960092 9.9003906 8.109375 9.9003906 C 6.7227408 9.9003906 5.609375 8.7870248 5.609375 7.4003906 C 5.609375 6.0137564 6.7227408 4.9003906 8.109375 4.9003906 z M 18.150391 7.5898438 C 19.537025 7.5898438 20.650391 8.7032094 20.650391 10.089844 C 20.650391 11.476478 19.537025 12.589844 18.150391 12.589844 C 16.763756 12.589844 15.650391 11.476478 15.650391 10.089844 C 15.650391 9.4326468 15.899797 8.8375669 16.310547 8.3925781 C 16.350968 8.3543742 16.391112 8.3154546 16.429688 8.2753906 A 0.5 0.5 0 0 0 16.462891 8.2441406 L 16.492188 8.2148438 C 16.932509 7.8259204 17.512979 7.5898438 18.150391 7.5898438 z M 12.349609 9.1503906 C 13.736244 9.1503906 14.849609 10.263756 14.849609 11.650391 C 14.849609 13.037025 13.736244 14.150391 12.349609 14.150391 C 10.962975 14.150391 9.8496094 13.037025 9.8496094 11.650391 C 9.8496094 10.263756 10.962975 9.1503906 12.349609 9.1503906 z M 6.5605469 10.699219 C 7.6651555 10.699219 8.5965928 11.406157 8.9296875 12.394531 C 8.9525217 12.499274 8.9796861 12.602063 9.0117188 12.703125 C 9.0436578 12.863406 9.0605469 13.029169 9.0605469 13.199219 C 9.0605469 14.585853 7.9471811 15.699219 6.5605469 15.699219 C 5.1739127 15.699219 4.0605469 14.585853 4.0605469 13.199219 C 4.0605469 11.812585 5.1739127 10.699219 6.5605469 10.699219 z M 16.599609 13.390625 C 17.986244 13.390625 19.099609 14.503991 19.099609 15.890625 C 19.099609 17.277259 17.986244 18.390625 16.599609 18.390625 C 15.212975 18.390625 14.099609 17.277259 14.099609 15.890625 C 14.099609 14.503991 15.212975 13.390625 16.599609 13.390625 z M 10.800781 14.939453 C 10.97083 14.939453 11.136595 14.956343 11.296875 14.988281 C 11.39794 15.020315 11.500723 15.047478 11.605469 15.070312 C 12.59384 15.403408 13.300781 16.334846 13.300781 17.439453 C 13.300781 18.826087 12.187415 19.939453 10.800781 19.939453 C 9.4141474 19.939453 8.3007812 18.826087 8.3007812 17.439453 C 8.3007812 16.782258 8.5501887 16.187176 8.9609375 15.742188 C 9.0093077 15.696471 9.0577987 15.64798 9.1035156 15.599609 C 9.548504 15.188861 10.143586 14.939453 10.800781 14.939453 z M 5 16.5 C 6.3866342 16.5 7.5 17.613366 7.5 19 C 7.5 20.386634 6.3866342 21.5 5 21.5 C 3.6133658 21.5 2.5 20.386634 2.5 19 C 2.5 17.613366 3.6133658 16.5 5 16.5 z " />
</svg>
