<?xml version="1.0" encoding="UTF-8" standalone="no"?>
<svg
   width="24"
   height="24"
   viewBox="0 0 24 24"
   fill="none"
   stroke="currentColor"
   stroke-width="1"
   stroke-linecap="round"
   stroke-linejoin="round"
   version="1.1"
   id="svg3"
   sodipodi:docname=".tmp_grid-2x2-plus.svg"
   xmlns:inkscape="http://www.inkscape.org/namespaces/inkscape"
   xmlns:sodipodi="http://sodipodi.sourceforge.net/DTD/sodipodi-0.dtd"
   xmlns="http://www.w3.org/2000/svg"
   xmlns:svg="http://www.w3.org/2000/svg">
  <defs
     id="defs3" />
  <sodipodi:namedview
     id="namedview3"
     pagecolor="#ffffff"
     bordercolor="#000000"
     borderopacity="0.25"
     inkscape:showpageshadow="2"
     inkscape:pageopacity="0.0"
     inkscape:pagecheckerboard="0"
     inkscape:deskcolor="#d1d1d1" />
  <path
     id="path1"
     style="baseline-shift:baseline;display:inline;overflow:visible;vector-effect:none;fill:#000000;stroke:none;stroke-linecap:butt;stroke-linejoin:miter;enable-background:accumulate;stop-color:#000000;stop-opacity:1;opacity:1"
     d="M 5 2.5 C 3.6252104 2.5 2.5 3.6252104 2.5 5 L 2.5 12 L 2.5 19 C 2.5 20.37479 3.6252104 21.5 5 21.5 L 11 21.5 C 11.822505 21.5 12.5 20.822505 12.5 20 L 12.5 12.5 L 20 12.5 C 20.822505 12.5 21.5 11.822505 21.5 11 L 21.5 5 C 21.5 3.6252104 20.37479 2.5 19 2.5 L 12 2.5 L 5 2.5 z M 5 3.5 L 11.5 3.5 L 11.5 11.5 L 3.5 11.5 L 3.5 5 C 3.5 4.1656506 4.1656506 3.5 5 3.5 z M 12.5 3.5 L 19 3.5 C 19.834349 3.5 20.5 4.1656506 20.5 5 L 20.5 11 C 20.5 11.282065 20.282065 11.5 20 11.5 L 12.5 11.5 L 12.5 3.5 z M 3.5 12.5 L 11.5 12.5 L 11.5 20 C 11.5 20.282065 11.282065 20.5 11 20.5 L 5 20.5 C 4.1656506 20.5 3.5 19.834349 3.5 19 L 3.5 12.5 z M 19 15.5 A 0.5 0.5 0 0 0 18.5 16 L 18.5 18.5 L 16 18.5 A 0.5 0.5 0 0 0 15.5 19 A 0.5 0.5 0 0 0 16 19.5 L 18.5 19.5 L 18.5 22 A 0.5 0.5 0 0 0 19 22.5 A 0.5 0.5 0 0 0 19.5 22 L 19.5 19.5 L 22 19.5 A 0.5 0.5 0 0 0 22.5 19 A 0.5 0.5 0 0 0 22 18.5 L 19.5 18.5 L 19.5 16 A 0.5 0.5 0 0 0 19 15.5 z " />
</svg>
