<?xml version="1.0" encoding="UTF-8" standalone="no"?>
<svg
   width="24"
   height="24"
   viewBox="0 0 24 24"
   fill="none"
   stroke="currentColor"
   stroke-width="1"
   stroke-linecap="round"
   stroke-linejoin="round"
   version="1.1"
   id="svg4"
   sodipodi:docname=".tmp_ham.svg"
   xmlns:inkscape="http://www.inkscape.org/namespaces/inkscape"
   xmlns:sodipodi="http://sodipodi.sourceforge.net/DTD/sodipodi-0.dtd"
   xmlns="http://www.w3.org/2000/svg"
   xmlns:svg="http://www.w3.org/2000/svg">
  <defs
     id="defs4" />
  <sodipodi:namedview
     id="namedview4"
     pagecolor="#ffffff"
     bordercolor="#000000"
     borderopacity="0.25"
     inkscape:showpageshadow="2"
     inkscape:pageopacity="0.0"
     inkscape:pagecheckerboard="0"
     inkscape:deskcolor="#d1d1d1" />
  <path
     id="path1"
     style="baseline-shift:baseline;display:inline;overflow:visible;vector-effect:none;fill:#000000;stroke:none;stroke-linecap:butt;stroke-linejoin:miter;enable-background:accumulate;stop-color:#000000;stop-opacity:1;opacity:1"
     d="M 18.423828 1.8671875 C 17.958789 1.859857 17.485546 1.9503272 17.039062 2.109375 C 16.32469 2.3638515 15.668624 2.7986896 15.257812 3.4121094 C 14.91884 3.9182574 14.865353 4.5792556 15.060547 5.2324219 L 13.439453 6.8554688 C 12.240386 6.4572663 10.883426 6.3985569 9.4980469 6.6464844 C 7.2417148 7.0502776 4.8893202 8.2810192 2.8574219 10.193359 C 2.7353963 10.287977 2.6154864 10.38842 2.5019531 10.501953 C 1.3257184 11.678188 1.1863134 13.334504 1.6699219 14.923828 C 2.1535303 16.513152 3.2274 18.106306 4.5605469 19.439453 C 5.8936938 20.7726 7.486848 21.84647 9.0761719 22.330078 C 10.665496 22.813687 12.321812 22.674282 13.498047 21.498047 C 13.612413 21.383681 13.713451 21.263565 13.808594 21.140625 C 15.719824 19.109183 16.949856 16.757532 17.353516 14.501953 C 17.601354 13.11707 17.542349 11.761251 17.144531 10.5625 L 18.773438 8.9335938 C 19.428278 9.1398889 20.094233 9.0914316 20.603516 8.7519531 C 21.221356 8.3401122 21.658528 7.6791292 21.914062 6.9589844 C 22.169598 6.2388395 22.247409 5.4493965 22.027344 4.7402344 C 21.834253 4.1179965 21.312719 3.6197223 20.605469 3.3886719 C 20.363149 2.6924095 19.86352 2.1812592 19.244141 1.9921875 C 18.97935 1.9113574 18.702851 1.8715858 18.423828 1.8671875 z M 18.207031 2.8769531 C 18.478793 2.8595983 18.736359 2.883645 18.951172 2.9492188 C 19.380797 3.0803662 19.652754 3.3094031 19.759766 3.8476562 A 0.50005 0.50005 0 0 0 20.162109 4.2421875 C 20.70991 4.3395965 20.93902 4.6057715 21.072266 5.0351562 C 21.205511 5.4645411 21.167406 6.0686916 20.970703 6.6230469 C 20.773996 7.1774022 20.422919 7.6705597 20.048828 7.9199219 C 19.674737 8.1692841 19.328475 8.2325538 18.841797 7.9628906 A 0.50005 0.50005 0 0 0 18.246094 8.046875 L 16.71875 9.5742188 C 16.4596 9.0956884 16.134392 8.6539235 15.740234 8.2597656 C 15.346337 7.8658684 14.9059 7.5403162 14.427734 7.28125 L 15.943359 5.7636719 A 0.50005 0.50005 0 0 0 16.03125 5.1757812 C 15.773866 4.6910943 15.839889 4.3419795 16.089844 3.96875 C 16.339798 3.5955205 16.826373 3.2462148 17.375 3.0507812 C 17.649313 2.9530644 17.93527 2.894308 18.207031 2.8769531 z M 10.658203 7.5117188 C 11.623129 7.4517136 12.525346 7.5699168 13.322266 7.8710938 A 0.5 0.5 0 0 0 13.449219 7.921875 C 14.045539 8.1651885 14.579213 8.5128069 15.033203 8.9667969 C 15.486502 9.4200957 15.834863 9.9536038 16.078125 10.548828 A 0.5 0.5 0 0 0 16.130859 10.683594 C 16.530505 11.744886 16.607816 12.992489 16.369141 14.326172 C 16.119617 15.72047 15.51946 17.195048 14.589844 18.597656 C 14.575617 18.095428 14.484144 17.58249 14.330078 17.076172 C 13.84647 15.486848 12.7726 13.893694 11.439453 12.560547 C 10.106306 11.2274 8.513152 10.15353 6.9238281 9.6699219 C 6.4176034 9.515885 5.9043045 9.4245906 5.4023438 9.4101562 C 6.8047457 8.4808006 8.2797589 7.880342 9.6738281 7.6308594 C 10.007863 7.5710806 10.336561 7.5317205 10.658203 7.5117188 z M 5.1796875 10.396484 C 5.632942 10.390301 6.119581 10.470787 6.6328125 10.626953 C 8.0014297 11.043404 9.4935687 12.028725 10.732422 13.267578 C 11.971275 14.506431 12.956596 15.998571 13.373047 17.367188 C 13.789497 18.735806 13.672663 19.909368 12.791016 20.791016 C 11.909368 21.672663 10.735805 21.789497 9.3671875 21.373047 C 7.9985703 20.956596 6.5064312 19.971275 5.2675781 18.732422 C 4.028725 17.493569 3.0434037 16.00143 2.6269531 14.632812 C 2.2105026 13.264195 2.3273371 12.090632 3.2089844 11.208984 C 3.649808 10.768161 4.1636868 10.519197 4.7382812 10.431641 C 4.8819299 10.409751 5.0286027 10.398546 5.1796875 10.396484 z M 7.5 15 A 0.5 0.5 0 0 0 7.1464844 15.146484 A 0.5 0.5 0 0 0 7.1464844 15.853516 L 8.1464844 16.853516 A 0.5 0.5 0 0 0 8.8535156 16.853516 A 0.5 0.5 0 0 0 8.8535156 16.146484 L 7.8535156 15.146484 A 0.5 0.5 0 0 0 7.5 15 z " />
</svg>
