<?xml version="1.0" encoding="UTF-8" standalone="no"?>
<svg
   width="24"
   height="24"
   viewBox="0 0 24 24"
   fill="none"
   stroke="currentColor"
   stroke-width="1"
   stroke-linecap="round"
   stroke-linejoin="round"
   version="1.1"
   id="svg4"
   sodipodi:docname=".tmp_image-off.svg"
   xmlns:inkscape="http://www.inkscape.org/namespaces/inkscape"
   xmlns:sodipodi="http://sodipodi.sourceforge.net/DTD/sodipodi-0.dtd"
   xmlns="http://www.w3.org/2000/svg"
   xmlns:svg="http://www.w3.org/2000/svg">
  <defs
     id="defs4" />
  <sodipodi:namedview
     id="namedview4"
     pagecolor="#ffffff"
     bordercolor="#000000"
     borderopacity="0.25"
     inkscape:showpageshadow="2"
     inkscape:pageopacity="0.0"
     inkscape:pagecheckerboard="0"
     inkscape:deskcolor="#d1d1d1" />
  <path
     id="line1"
     style="baseline-shift:baseline;display:inline;overflow:visible;vector-effect:none;fill:#000000;stroke:none;stroke-linecap:butt;stroke-linejoin:miter;enable-background:accumulate;stop-color:#000000;stop-opacity:1;opacity:1"
     d="M 2 1.5 A 0.5 0.5 0 0 0 1.6464844 1.6464844 A 0.5 0.5 0 0 0 1.6464844 2.3535156 L 2.9179688 3.625 C 2.6490142 4.0289911 2.501053 4.5054002 2.5 4.9980469 A 0.50005 0.50005 0 0 0 2.5 5 L 2.5 19 C 2.5 20.37479 3.6252104 21.5 5 21.5 L 19 21.5 C 19.503637 21.5 19.980023 21.349539 20.376953 21.083984 L 21.646484 22.353516 A 0.5 0.5 0 0 0 22.353516 22.353516 A 0.5 0.5 0 0 0 22.353516 21.646484 L 20.769531 20.0625 A 0.5 0.5 0 0 0 20.757812 20.050781 L 3.9453125 3.2382812 A 0.5 0.5 0 0 0 3.9414062 3.234375 L 2.3535156 1.6464844 A 0.5 0.5 0 0 0 2 1.5 z M 9 2.5 A 0.5 0.5 0 0 0 8.5 3 A 0.5 0.5 0 0 0 9 3.5 L 19 3.5 C 19.834349 3.5 20.5 4.1656506 20.5 5 L 20.5 13.792969 L 18.353516 11.646484 A 0.5 0.5 0 0 0 17.646484 11.646484 A 0.5 0.5 0 0 0 17.646484 12.353516 L 20.640625 15.347656 L 20.646484 15.353516 A 0.5 0.5 0 0 0 20.691406 15.392578 A 0.5 0.5 0 0 0 20.695312 15.396484 A 0.5 0.5 0 0 0 20.746094 15.429688 A 0.5 0.5 0 0 0 20.777344 15.447266 A 0.5 0.5 0 0 0 20.808594 15.460938 A 0.5 0.5 0 0 0 20.869141 15.482422 A 0.5 0.5 0 0 0 20.871094 15.482422 A 0.5 0.5 0 0 0 20.933594 15.496094 A 0.5 0.5 0 0 0 21.128906 15.482422 A 0.5 0.5 0 0 0 21.25 15.433594 A 0.5 0.5 0 0 0 21.353516 15.353516 A 0.5 0.5 0 0 0 21.433594 15.25 A 0.5 0.5 0 0 0 21.482422 15.128906 A 0.5 0.5 0 0 0 21.5 15 L 21.5 5 C 21.5 3.6252104 20.37479 2.5 19 2.5 L 9 2.5 z M 3.6484375 4.3554688 L 6.9042969 7.6113281 C 6.5738896 8.0858464 6.4315861 8.6143087 6.4609375 9.1132812 C 6.4985165 9.75212 6.7942451 10.331354 7.2265625 10.763672 C 7.6588799 11.195989 8.2381144 11.489765 8.8769531 11.527344 C 9.3758761 11.556693 9.9044243 11.415753 10.378906 11.085938 L 12.792969 13.5 L 5.7929688 20.5 L 5 20.5 C 4.1656506 20.5 3.5 19.834349 3.5 19 L 3.5 5.0019531 L 3.5 5 C 3.500764 4.7746661 3.5522819 4.5546004 3.6484375 4.3554688 z M 7.625 8.3320312 L 9.6582031 10.365234 C 9.4132082 10.501648 9.1718652 10.543198 8.9355469 10.529297 C 8.5720942 10.507917 8.2087764 10.331823 7.9335938 10.056641 C 7.6584112 9.7814576 7.4823172 9.4181402 7.4609375 9.0546875 C 7.4470363 8.8183692 7.4885861 8.5770261 7.625 8.3320312 z M 13.5 14.207031 L 19.646484 20.353516 C 19.452418 20.447362 19.234042 20.5 19 20.5 L 7.2070312 20.5 L 13.5 14.207031 z " />
</svg>
