<?xml version="1.0" encoding="UTF-8" standalone="no"?>
<svg
   width="24"
   height="24"
   viewBox="0 0 24 24"
   fill="none"
   stroke="currentColor"
   stroke-width="1"
   stroke-linecap="round"
   stroke-linejoin="round"
   version="1.1"
   id="svg10"
   sodipodi:docname=".tmp_keyboard-off.svg"
   xmlns:inkscape="http://www.inkscape.org/namespaces/inkscape"
   xmlns:sodipodi="http://sodipodi.sourceforge.net/DTD/sodipodi-0.dtd"
   xmlns="http://www.w3.org/2000/svg"
   xmlns:svg="http://www.w3.org/2000/svg">
  <defs
     id="defs10" />
  <sodipodi:namedview
     id="namedview10"
     pagecolor="#ffffff"
     bordercolor="#000000"
     borderopacity="0.25"
     inkscape:showpageshadow="2"
     inkscape:pageopacity="0.0"
     inkscape:pagecheckerboard="0"
     inkscape:deskcolor="#d1d1d1" />
  <path
     id="path1"
     style="baseline-shift:baseline;display:inline;overflow:visible;vector-effect:none;fill:#000000;stroke:none;stroke-linecap:butt;stroke-linejoin:miter;enable-background:accumulate;stop-color:#000000;stop-opacity:1;opacity:1"
     d="M 2 1.5 A 0.5 0.5 0 0 0 1.6464844 1.6464844 A 0.5 0.5 0 0 0 1.6464844 2.3535156 L 3.0019531 3.7089844 C 2.1199859 4.0962569 1.5 4.9794138 1.5 6 L 1.5 18 C 1.5 19.37479 2.6252104 20.5 4 20.5 L 19.792969 20.5 L 21.646484 22.353516 A 0.5 0.5 0 0 0 22.353516 22.353516 A 0.5 0.5 0 0 0 22.353516 21.646484 L 20.359375 19.652344 A 0.5 0.5 0 0 0 20.347656 19.640625 L 16.359375 15.652344 A 0.5 0.5 0 0 0 16.347656 15.640625 L 4.359375 3.6523438 A 0.5 0.5 0 0 0 4.3476562 3.640625 L 2.3535156 1.6464844 A 0.5 0.5 0 0 0 2 1.5 z M 9.6894531 3.5 A 0.5 0.5 0 0 0 9.1894531 4 A 0.5 0.5 0 0 0 9.6894531 4.5 L 20 4.5 C 20.834349 4.5 21.5 5.1656506 21.5 6 L 21.5 16.410156 A 0.5 0.5 0 0 0 22 16.910156 A 0.5 0.5 0 0 0 22.5 16.410156 L 22.5 6 A 0.5 0.5 0 0 0 22.496094 5.9355469 C 22.461724 4.6122805 21.38772 3.5382757 20.064453 3.5039062 A 0.5 0.5 0 0 0 20 3.5 L 9.6894531 3.5 z M 3.8046875 4.5117188 L 14.792969 15.5 L 7 15.5 A 0.5 0.5 0 0 0 6.5 16 A 0.5 0.5 0 0 0 7 16.5 L 15.792969 16.5 L 18.792969 19.5 L 4 19.5 C 3.1656506 19.5 2.5 18.834349 2.5 18 L 2.5 6 C 2.5 5.2317102 3.0638647 4.6059105 3.8046875 4.5117188 z M 6 7.5 A 0.5 0.5 0 0 0 5.5 8 A 0.5 0.5 0 0 0 6 8.5 L 6.0097656 8.5 A 0.5 0.5 0 0 0 6.5097656 8 A 0.5 0.5 0 0 0 6.0097656 7.5 L 6 7.5 z M 14 7.5 A 0.5 0.5 0 0 0 13.5 8 A 0.5 0.5 0 0 0 14 8.5 L 14.009766 8.5 A 0.5 0.5 0 0 0 14.509766 8 A 0.5 0.5 0 0 0 14.009766 7.5 L 14 7.5 z M 18 7.5 A 0.5 0.5 0 0 0 17.5 8 A 0.5 0.5 0 0 0 18 8.5 L 18.009766 8.5 A 0.5 0.5 0 0 0 18.509766 8 A 0.5 0.5 0 0 0 18.009766 7.5 L 18 7.5 z M 8 11.5 A 0.5 0.5 0 0 0 7.5 12 A 0.5 0.5 0 0 0 8 12.5 L 8.0097656 12.5 A 0.5 0.5 0 0 0 8.5097656 12 A 0.5 0.5 0 0 0 8.0097656 11.5 L 8 11.5 z " />
</svg>
