<?xml version="1.0" encoding="UTF-8" standalone="no"?>
<svg
   width="24"
   height="24"
   viewBox="0 0 24 24"
   fill="none"
   stroke="currentColor"
   stroke-width="1"
   stroke-linecap="round"
   stroke-linejoin="round"
   version="1.1"
   id="svg2"
   sodipodi:docname=".tmp_lasso.svg"
   xmlns:inkscape="http://www.inkscape.org/namespaces/inkscape"
   xmlns:sodipodi="http://sodipodi.sourceforge.net/DTD/sodipodi-0.dtd"
   xmlns="http://www.w3.org/2000/svg"
   xmlns:svg="http://www.w3.org/2000/svg">
  <defs
     id="defs2" />
  <sodipodi:namedview
     id="namedview2"
     pagecolor="#ffffff"
     bordercolor="#000000"
     borderopacity="0.25"
     inkscape:showpageshadow="2"
     inkscape:pageopacity="0.0"
     inkscape:pagecheckerboard="0"
     inkscape:deskcolor="#d1d1d1" />
  <path
     id="path1"
     style="baseline-shift:baseline;display:inline;overflow:visible;vector-effect:none;fill:#000000;stroke:none;stroke-linecap:butt;stroke-linejoin:miter;enable-background:accumulate;stop-color:#000000;stop-opacity:1;opacity:1"
     d="M 12 1.5 C 6.260977 1.5 1.5 5.2439442 1.5 10 C 1.4999668 11.577018 2.0435641 13.116553 3.046875 14.443359 C 2.7049553 14.871138 2.5 15.41318 2.5 16 C 2.5 17.210291 3.3728567 18.227109 4.5195312 18.453125 C 4.6484755 20.012446 5.436459 21.453322 6.6992188 22.400391 A 0.5 0.5 0 0 0 7.4003906 22.300781 A 0.5 0.5 0 0 0 7.3007812 21.599609 C 6.2867328 20.839075 5.6452425 19.693142 5.5214844 18.445312 C 6.1275576 18.315232 6.6546277 17.963789 7.0117188 17.480469 C 8.5451229 18.150238 10.257188 18.499839 12 18.5 C 17.739024 18.5 22.5 14.756053 22.5 10 C 22.5 5.2439442 17.739023 1.5 12 1.5 z M 12 2.5 C 17.306672 2.5 21.5 5.9194939 21.5 10 C 21.5 14.080503 17.306671 17.5 12 17.5 C 10.399591 17.499852 8.8282788 17.179057 7.4335938 16.574219 C 7.4774061 16.389686 7.5 16.197418 7.5 16 C 7.5 14.62521 6.3747896 13.5 5 13.5 C 4.5715006 13.5 4.1679477 13.608674 3.8144531 13.800781 C 2.9495892 12.642606 2.4999719 11.333674 2.5 10 C 2.5 5.9194939 6.6933283 2.5 12 2.5 z M 5 14.5 C 5.8343494 14.5 6.5 15.165651 6.5 16 C 6.5 16.834349 5.8343494 17.5 5 17.5 C 4.1656506 17.5 3.5 16.834349 3.5 16 C 3.5 15.165651 4.1656506 14.5 5 14.5 z " />
</svg>
