<?xml version="1.0" encoding="UTF-8" standalone="no"?>
<svg
   width="24"
   height="24"
   viewBox="0 0 24 24"
   fill="none"
   stroke="currentColor"
   stroke-width="1"
   stroke-linecap="round"
   stroke-linejoin="round"
   version="1.1"
   id="svg4"
   sodipodi:docname=".tmp_life-buoy.svg"
   xmlns:inkscape="http://www.inkscape.org/namespaces/inkscape"
   xmlns:sodipodi="http://sodipodi.sourceforge.net/DTD/sodipodi-0.dtd"
   xmlns="http://www.w3.org/2000/svg"
   xmlns:svg="http://www.w3.org/2000/svg">
  <defs
     id="defs4" />
  <sodipodi:namedview
     id="namedview4"
     pagecolor="#ffffff"
     bordercolor="#000000"
     borderopacity="0.25"
     inkscape:showpageshadow="2"
     inkscape:pageopacity="0.0"
     inkscape:pagecheckerboard="0"
     inkscape:deskcolor="#d1d1d1" />
  <path
     id="circle1"
     style="baseline-shift:baseline;display:inline;overflow:visible;vector-effect:none;fill:#000000;stroke:none;stroke-linecap:butt;stroke-linejoin:miter;enable-background:accumulate;stop-color:#000000;stop-opacity:1;opacity:1"
     d="M 12 1.5 C 9.1200022 1.5 6.5075958 2.6631426 4.609375 4.5449219 A 0.5 0.5 0 0 0 4.5761719 4.5761719 C 2.675282 6.4770416 1.5 9.1034461 1.5 12 C 1.5 14.880039 2.6630953 17.492397 4.5449219 19.390625 A 0.5 0.5 0 0 0 4.5761719 19.423828 C 6.4770384 21.324695 9.1034662 22.5 12 22.5 C 17.793068 22.5 22.5 17.793068 22.5 12 C 22.5 6.2069324 17.793068 1.5 12 1.5 z M 12 2.5 C 14.446151 2.5 16.674757 3.4206855 18.357422 4.9355469 L 14.806641 8.4863281 C 14.036335 7.869549 13.060155 7.5 12 7.5 C 10.939845 7.5 9.9636652 7.8695491 9.1933594 8.4863281 L 5.6425781 4.9355469 C 7.3252431 3.4206856 9.553849 2.5 12 2.5 z M 4.9355469 5.6425781 L 8.4863281 9.1933594 C 7.8695491 9.9636652 7.5 10.939845 7.5 12 C 7.5 13.060155 7.869549 14.036335 8.4863281 14.806641 L 4.9355469 18.357422 C 3.4206855 16.674757 2.5 14.446151 2.5 12 C 2.5 9.553849 3.4206856 7.3252431 4.9355469 5.6425781 z M 19.064453 5.6425781 C 20.579314 7.3252431 21.5 9.553849 21.5 12 C 21.5 14.446151 20.579315 16.674757 19.064453 18.357422 L 15.513672 14.806641 C 16.130451 14.036335 16.5 13.060155 16.5 12 C 16.5 10.939845 16.130451 9.9636651 15.513672 9.1933594 L 19.064453 5.6425781 z M 12 8.5 C 12.960212 8.5 13.827817 8.8818983 14.458984 9.5039062 C 14.465063 9.5098965 14.470528 9.517403 14.476562 9.5234375 A 0.5 0.5 0 0 0 14.496094 9.5410156 C 15.118101 10.172182 15.5 11.039788 15.5 12 C 15.5 12.960214 15.118104 13.827817 14.496094 14.458984 C 14.490105 14.465061 14.482596 14.470529 14.476562 14.476562 A 0.5 0.5 0 0 0 14.458984 14.496094 C 13.827817 15.118104 12.960214 15.5 12 15.5 C 11.039788 15.5 10.172182 15.118101 9.5410156 14.496094 A 0.5 0.5 0 0 0 9.5234375 14.476562 C 9.517403 14.470528 9.5098965 14.465063 9.5039062 14.458984 C 8.8818983 13.827817 8.5 12.960212 8.5 12 C 8.5 11.03979 8.881901 10.172182 9.5039062 9.5410156 A 0.5 0.5 0 0 0 9.5234375 9.5234375 C 9.5294734 9.5174016 9.5349357 9.5098979 9.5410156 9.5039062 C 10.172182 8.881901 11.03979 8.5 12 8.5 z M 9.1933594 15.513672 C 9.9636651 16.130451 10.939845 16.5 12 16.5 C 13.060155 16.5 14.036335 16.130451 14.806641 15.513672 L 18.357422 19.064453 C 16.674757 20.579315 14.446151 21.5 12 21.5 C 9.553849 21.5 7.3252431 20.579314 5.6425781 19.064453 L 9.1933594 15.513672 z " />
</svg>
