<?xml version="1.0" encoding="UTF-8" standalone="no"?>
<svg
   width="24"
   height="24"
   viewBox="0 0 24 24"
   fill="none"
   stroke="currentColor"
   stroke-width="1"
   stroke-linecap="round"
   stroke-linejoin="round"
   version="1.1"
   id="svg1"
   sodipodi:docname=".tmp_lock-open.svg"
   xmlns:inkscape="http://www.inkscape.org/namespaces/inkscape"
   xmlns:sodipodi="http://sodipodi.sourceforge.net/DTD/sodipodi-0.dtd"
   xmlns="http://www.w3.org/2000/svg"
   xmlns:svg="http://www.w3.org/2000/svg">
  <defs
     id="defs1" />
  <sodipodi:namedview
     id="namedview1"
     pagecolor="#ffffff"
     bordercolor="#000000"
     borderopacity="0.25"
     inkscape:showpageshadow="2"
     inkscape:pageopacity="0.0"
     inkscape:pagecheckerboard="0"
     inkscape:deskcolor="#d1d1d1" />
  <path
     id="rect1"
     style="baseline-shift:baseline;display:inline;overflow:visible;vector-effect:none;fill:#000000;stroke:none;stroke-linecap:butt;stroke-linejoin:miter;enable-background:accumulate;stop-color:#000000;stop-opacity:1;opacity:1"
     d="M 11.925781 1.4960938 C 11.765983 1.4988434 11.605929 1.5074108 11.447266 1.5234375 C 8.9086437 1.7798639 6.4967266 3.7428529 6.5 7 L 6.5 10.5 L 5 10.5 C 3.6236486 10.5 2.5 11.623649 2.5 13 L 2.5 20 C 2.5 21.376351 3.6236486 22.5 5 22.5 L 19 22.5 C 20.376351 22.5 21.5 21.376351 21.5 20 L 21.5 13 C 21.5 11.623649 20.376351 10.5 19 10.5 L 7.5 10.5 L 7.5 7 C 7.49721 4.2238708 9.4341287 2.7309868 11.546875 2.5175781 C 13.659621 2.3041694 15.85772 3.379 16.410156 6.0996094 A 0.5 0.5 0 0 0 17 6.4902344 A 0.5 0.5 0 0 0 17.390625 5.9003906 C 16.782979 2.9078837 14.322761 1.4548483 11.925781 1.4960938 z M 5 11.5 L 7 11.5 L 19 11.5 C 19.839649 11.5 20.5 12.160351 20.5 13 L 20.5 20 C 20.5 20.839649 19.839649 21.5 19 21.5 L 5 21.5 C 4.1603514 21.5 3.5 20.839649 3.5 20 L 3.5 13 C 3.5 12.160351 4.1603514 11.5 5 11.5 z " />
</svg>
