<?xml version="1.0" encoding="UTF-8" standalone="no"?>
<svg
   width="24"
   height="24"
   viewBox="0 0 24 24"
   fill="none"
   stroke="currentColor"
   stroke-width="1"
   stroke-linecap="round"
   stroke-linejoin="round"
   version="1.1"
   id="svg2"
   sodipodi:docname=".tmp_message-square-heart.svg"
   xmlns:inkscape="http://www.inkscape.org/namespaces/inkscape"
   xmlns:sodipodi="http://sodipodi.sourceforge.net/DTD/sodipodi-0.dtd"
   xmlns="http://www.w3.org/2000/svg"
   xmlns:svg="http://www.w3.org/2000/svg">
  <defs
     id="defs2" />
  <sodipodi:namedview
     id="namedview2"
     pagecolor="#ffffff"
     bordercolor="#000000"
     borderopacity="0.25"
     inkscape:showpageshadow="2"
     inkscape:pageopacity="0.0"
     inkscape:pagecheckerboard="0"
     inkscape:deskcolor="#d1d1d1" />
  <path
     id="path1"
     style="baseline-shift:baseline;display:inline;overflow:visible;vector-effect:none;fill:#000000;stroke:none;stroke-linecap:butt;stroke-linejoin:miter;enable-background:accumulate;stop-color:#000000;stop-opacity:1;opacity:1"
     d="M 4 2.5 C 2.6252104 2.5 1.5 3.6252104 1.5 5 L 1.5 21.285156 C 1.5000668 21.80288 1.830803 22.232287 2.2460938 22.404297 C 2.6613844 22.576307 3.200287 22.506677 3.5664062 22.140625 L 5.7675781 19.939453 C 6.048953 19.657993 6.4301408 19.500085 6.828125 19.5 L 20 19.5 C 21.37479 19.5 22.5 18.37479 22.5 17 L 22.5 5 C 22.5 3.6252104 21.37479 2.5 20 2.5 L 4 2.5 z M 4 3.5 L 20 3.5 C 20.834349 3.5 21.5 4.1656506 21.5 5 L 21.5 17 C 21.5 17.834349 20.834349 18.5 20 18.5 L 6.828125 18.5 C 6.16533 18.500142 5.5291429 18.763684 5.0605469 19.232422 L 2.859375 21.433594 C 2.778232 21.514724 2.7077795 21.513139 2.6289062 21.480469 C 2.5500329 21.447805 2.5000148 21.3999 2.5 21.285156 L 2.5 5 C 2.5 4.1656506 3.1656506 3.5 4 3.5 z M 9.9296875 6.5 C 9.6290277 6.5081736 9.3322159 6.5604853 9.0507812 6.6542969 C 7.9250425 7.0295431 7 8.0865638 7 9.5 C 7 10.315578 7.2980966 11.115769 7.8320312 11.685547 L 10.818359 14.925781 C 10.976585 15.118958 11.177293 15.272926 11.404297 15.376953 A 0.50005 0.50005 0 0 0 11.419922 15.382812 C 11.795763 15.540458 12.21954 15.53847 12.59375 15.376953 A 0.50005 0.50005 0 0 0 12.607422 15.371094 C 12.819787 15.271471 13.010141 15.125852 13.162109 14.947266 L 13.164062 14.945312 L 13.166016 14.943359 L 16.169922 11.683594 A 0.50005 0.50005 0 0 0 16.175781 11.675781 C 16.708004 11.075909 17.001619 10.300035 17 9.4980469 C 16.999103 8.0856416 16.074411 7.0293611 14.949219 6.6542969 C 13.966991 6.3268876 12.846143 6.6197136 12 7.421875 C 11.638742 7.0793951 11.269982 6.7358049 10.830078 6.6113281 C 10.534855 6.5277908 10.230347 6.4918264 9.9296875 6.5 z M 9.9550781 7.4921875 C 10.153702 7.4834637 10.352652 7.5049635 10.546875 7.5585938 C 10.935322 7.6658544 11.302881 7.9051434 11.599609 8.3007812 A 0.50005 0.50005 0 0 0 12.400391 8.3007812 C 12.993847 7.5095057 13.86893 7.3488884 14.632812 7.6035156 C 15.396693 7.8581429 16 8.5109055 16 9.5 A 0.50005 0.50005 0 0 0 16 9.5019531 C 16.0011 10.058908 15.797377 10.595109 15.427734 11.011719 L 12.425781 14.269531 A 0.50005 0.50005 0 0 0 12.40625 14.291016 C 12.34779 14.362436 12.274278 14.418533 12.191406 14.458984 C 12.070324 14.509494 11.936188 14.509647 11.814453 14.460938 C 11.729543 14.420428 11.653416 14.363858 11.59375 14.291016 A 0.50005 0.50005 0 0 0 11.574219 14.269531 L 8.5644531 11.005859 A 0.50005 0.50005 0 0 0 8.5625 11.001953 C 8.2324346 10.649731 8 10.058422 8 9.5 C 8 8.5109055 8.6033058 7.8581429 9.3671875 7.6035156 C 9.558158 7.5398588 9.7564547 7.5009113 9.9550781 7.4921875 z " />
</svg>
