<?xml version="1.0" encoding="UTF-8" standalone="no"?>
<svg
   width="24"
   height="24"
   viewBox="0 0 24 24"
   fill="none"
   stroke="currentColor"
   stroke-width="1"
   stroke-linecap="round"
   stroke-linejoin="round"
   version="1.1"
   id="svg3"
   sodipodi:docname=".tmp_monitor-dot.svg"
   xmlns:inkscape="http://www.inkscape.org/namespaces/inkscape"
   xmlns:sodipodi="http://sodipodi.sourceforge.net/DTD/sodipodi-0.dtd"
   xmlns="http://www.w3.org/2000/svg"
   xmlns:svg="http://www.w3.org/2000/svg">
  <defs
     id="defs3" />
  <sodipodi:namedview
     id="namedview3"
     pagecolor="#ffffff"
     bordercolor="#000000"
     borderopacity="0.25"
     inkscape:showpageshadow="2"
     inkscape:pageopacity="0.0"
     inkscape:pagecheckerboard="0"
     inkscape:deskcolor="#d1d1d1" />
  <path
     id="path1"
     style="baseline-shift:baseline;display:inline;overflow:visible;vector-effect:none;fill:#000000;stroke:none;stroke-linecap:butt;stroke-linejoin:miter;enable-background:accumulate;stop-color:#000000;stop-opacity:1;opacity:1"
     d="M 4 2.5 C 2.6252104 2.5 1.5 3.6252104 1.5 5 L 1.5 15 C 1.5 16.37479 2.6252104 17.5 4 17.5 L 11.5 17.5 L 11.5 20.5 L 8 20.5 A 0.5 0.5 0 0 0 7.5 21 A 0.5 0.5 0 0 0 8 21.5 L 16 21.5 A 0.5 0.5 0 0 0 16.5 21 A 0.5 0.5 0 0 0 16 20.5 L 12.5 20.5 L 12.5 17.5 L 20 17.5 C 21.37479 17.5 22.5 16.37479 22.5 15 L 22.5 12.306641 A 0.5 0.5 0 0 0 22 11.806641 A 0.5 0.5 0 0 0 21.5 12.306641 L 21.5 15 C 21.5 15.834349 20.834349 16.5 20 16.5 L 4 16.5 C 3.1656506 16.5 2.5 15.834349 2.5 15 L 2.5 5 C 2.5 4.1656506 3.1656506 3.5 4 3.5 L 12.693359 3.5 A 0.5 0.5 0 0 0 13.193359 3 A 0.5 0.5 0 0 0 12.693359 2.5 L 4 2.5 z M 19 2.5 C 17.072926 2.5 15.5 4.0729257 15.5 6 C 15.5 7.9270743 17.072926 9.5 19 9.5 C 20.927074 9.5 22.5 7.9270743 22.5 6 C 22.5 4.0729257 20.927074 2.5 19 2.5 z M 19 3.5 C 20.386634 3.5 21.5 4.6133658 21.5 6 C 21.5 7.3866342 20.386634 8.5 19 8.5 C 17.613366 8.5 16.5 7.3866342 16.5 6 C 16.5 4.6133658 17.613366 3.5 19 3.5 z " />
</svg>
