<?xml version="1.0" encoding="UTF-8" standalone="no"?>
<svg
   width="24"
   height="24"
   viewBox="0 0 24 24"
   fill="none"
   stroke="currentColor"
   stroke-width="1"
   stroke-linecap="round"
   stroke-linejoin="round"
   version="1.1"
   id="svg2"
   sodipodi:docname=".tmp_percent.svg"
   xmlns:inkscape="http://www.inkscape.org/namespaces/inkscape"
   xmlns:sodipodi="http://sodipodi.sourceforge.net/DTD/sodipodi-0.dtd"
   xmlns="http://www.w3.org/2000/svg"
   xmlns:svg="http://www.w3.org/2000/svg">
  <defs
     id="defs2" />
  <sodipodi:namedview
     id="namedview2"
     pagecolor="#ffffff"
     bordercolor="#000000"
     borderopacity="0.25"
     inkscape:showpageshadow="2"
     inkscape:pageopacity="0.0"
     inkscape:pagecheckerboard="0"
     inkscape:deskcolor="#d1d1d1" />
  <path
     id="line1"
     style="baseline-shift:baseline;display:inline;overflow:visible;vector-effect:none;fill:#000000;stroke:none;stroke-linecap:butt;stroke-linejoin:miter;enable-background:accumulate;stop-color:#000000;stop-opacity:1;opacity:1"
     d="M 6.5 3.5 C 4.8490681 3.5 3.5 4.8490681 3.5 6.5 C 3.5 8.1509319 4.8490681 9.5 6.5 9.5 C 8.1509319 9.5 9.5 8.1509319 9.5 6.5 C 9.5 4.8490681 8.1509319 3.5 6.5 3.5 z M 6.5 4.5 C 7.6104918 4.5 8.5 5.3895082 8.5 6.5 C 8.5 7.6104918 7.6104918 8.5 6.5 8.5 C 5.3895082 8.5 4.5 7.6104918 4.5 6.5 C 4.5 5.3895082 5.3895082 4.5 6.5 4.5 z M 19 4.5 A 0.5 0.5 0 0 0 18.646484 4.6464844 L 4.6464844 18.646484 A 0.5 0.5 0 0 0 4.6464844 19.353516 A 0.5 0.5 0 0 0 5.3535156 19.353516 L 19.353516 5.3535156 A 0.5 0.5 0 0 0 19.353516 4.6464844 A 0.5 0.5 0 0 0 19 4.5 z M 17.5 14.5 C 15.849068 14.5 14.5 15.849068 14.5 17.5 C 14.5 19.150932 15.849068 20.5 17.5 20.5 C 19.150932 20.5 20.5 19.150932 20.5 17.5 C 20.5 15.849068 19.150932 14.5 17.5 14.5 z M 17.5 15.5 C 18.610492 15.5 19.5 16.389508 19.5 17.5 C 19.5 18.610492 18.610492 19.5 17.5 19.5 C 16.389508 19.5 15.5 18.610492 15.5 17.5 C 15.5 16.389508 16.389508 15.5 17.5 15.5 z " />
</svg>
