<?xml version="1.0" encoding="UTF-8" standalone="no"?>
<svg
   width="24"
   height="24"
   viewBox="0 0 24 24"
   fill="none"
   stroke="currentColor"
   stroke-width="1"
   stroke-linecap="round"
   stroke-linejoin="round"
   version="1.1"
   id="svg2"
   sodipodi:docname=".tmp_pi.svg"
   xmlns:inkscape="http://www.inkscape.org/namespaces/inkscape"
   xmlns:sodipodi="http://sodipodi.sourceforge.net/DTD/sodipodi-0.dtd"
   xmlns="http://www.w3.org/2000/svg"
   xmlns:svg="http://www.w3.org/2000/svg">
  <defs
     id="defs2" />
  <sodipodi:namedview
     id="namedview2"
     pagecolor="#ffffff"
     bordercolor="#000000"
     borderopacity="0.25"
     inkscape:showpageshadow="2"
     inkscape:pageopacity="0.0"
     inkscape:pagecheckerboard="0"
     inkscape:deskcolor="#d1d1d1" />
  <path
     id="line1"
     style="baseline-shift:baseline;display:inline;overflow:visible;vector-effect:none;fill:#000000;stroke:none;stroke-linecap:butt;stroke-linejoin:miter;enable-background:accumulate;stop-color:#000000;stop-opacity:1;opacity:1"
     d="M 7 3.5 C 5.045098 3.5 3.5 5.045098 3.5 7 A 0.5 0.5 0 0 0 4 7.5 A 0.5 0.5 0 0 0 4.5 7 C 4.5 5.554902 5.554902 4.5 7 4.5 L 8.5 4.5 L 8.5 20 A 0.5 0.5 0 0 0 9 20.5 A 0.5 0.5 0 0 0 9.5 20 L 9.5 4.5 L 14.5 4.5 L 14.5 17 C 14.5 18.954902 16.045098 20.5 18 20.5 A 0.5 0.5 0 0 0 18.5 20 A 0.5 0.5 0 0 0 18 19.5 C 16.554902 19.5 15.5 18.445098 15.5 17 L 15.5 4.5 L 20 4.5 A 0.5 0.5 0 0 0 20.5 4 A 0.5 0.5 0 0 0 20 3.5 L 15 3.5 L 7 3.5 z " />
</svg>
