<?xml version="1.0" encoding="UTF-8" standalone="no"?>
<svg
   width="24"
   height="24"
   viewBox="0 0 24 24"
   fill="none"
   stroke="currentColor"
   stroke-width="1"
   stroke-linecap="round"
   stroke-linejoin="round"
   version="1.1"
   id="svg5"
   sodipodi:docname=".tmp_pilcrow-left.svg"
   xmlns:inkscape="http://www.inkscape.org/namespaces/inkscape"
   xmlns:sodipodi="http://sodipodi.sourceforge.net/DTD/sodipodi-0.dtd"
   xmlns="http://www.w3.org/2000/svg"
   xmlns:svg="http://www.w3.org/2000/svg">
  <defs
     id="defs5" />
  <sodipodi:namedview
     id="namedview5"
     pagecolor="#ffffff"
     bordercolor="#000000"
     borderopacity="0.25"
     inkscape:showpageshadow="2"
     inkscape:pageopacity="0.0"
     inkscape:pagecheckerboard="0"
     inkscape:deskcolor="#d1d1d1" />
  <path
     id="path1"
     style="baseline-shift:baseline;display:inline;overflow:visible;vector-effect:none;fill:#000000;stroke:none;stroke-linecap:butt;stroke-linejoin:miter;enable-background:accumulate;stop-color:#000000;stop-opacity:1;opacity:1"
     d="M 11 2.5 C 9.8750004 2.5 8.9685893 2.9398777 8.3769531 3.6054688 C 7.785317 4.2710596 7.5 5.1388889 7.5 6 C 7.5 6.8611111 7.785317 7.7289402 8.3769531 8.3945312 C 8.9685893 9.0601221 9.8750004 9.5 11 9.5 L 13.5 9.5 L 13.5 14 A 0.5 0.5 0 0 0 14 14.5 A 0.5 0.5 0 0 0 14.5 14 L 14.5 3.5 L 17.5 3.5 L 17.5 14 A 0.5 0.5 0 0 0 18 14.5 A 0.5 0.5 0 0 0 18.5 14 L 18.5 3.5 L 20 3.5 A 0.5 0.5 0 0 0 20.5 3 A 0.5 0.5 0 0 0 20 2.5 L 11 2.5 z M 11 3.5 L 13.5 3.5 L 13.5 8.5 L 11 8.5 C 10.125 8.5 9.5314103 8.1898778 9.1230469 7.7304688 C 8.7146835 7.2710598 8.5 6.6388889 8.5 6 C 8.5 5.3611111 8.7146835 4.7289403 9.1230469 4.2695312 C 9.5314103 3.8101222 10.125 3.5 11 3.5 z M 6 13.5 A 0.5 0.5 0 0 0 5.6464844 13.646484 L 1.6464844 17.646484 A 0.5 0.5 0 0 0 1.6035156 17.695312 A 0.50005 0.50005 0 0 0 1.6015625 17.699219 A 0.5 0.5 0 0 0 1.5664062 17.75 A 0.50005 0.50005 0 0 0 1.5625 17.755859 A 0.5 0.5 0 0 0 1.5390625 17.808594 A 0.50005 0.50005 0 0 0 1.5195312 17.865234 A 0.5 0.5 0 0 0 1.5175781 17.873047 A 0.50005 0.50005 0 0 0 1.5097656 17.910156 A 0.5 0.5 0 0 0 1.5039062 17.945312 A 0.50005 0.50005 0 0 0 1.5019531 17.980469 A 0.5 0.5 0 0 0 1.5 18.007812 A 0.50005 0.50005 0 0 0 1.5039062 18.050781 A 0.5 0.5 0 0 0 1.5058594 18.072266 A 0.50005 0.50005 0 0 0 1.5175781 18.126953 A 0.5 0.5 0 0 0 1.5175781 18.128906 A 0.50005 0.50005 0 0 0 1.5371094 18.185547 A 0.5 0.5 0 0 0 1.5429688 18.201172 A 0.50005 0.50005 0 0 0 1.5566406 18.230469 A 0.5 0.5 0 0 0 1.5820312 18.273438 A 0.50005 0.50005 0 0 0 1.59375 18.291016 A 0.5 0.5 0 0 0 1.6289062 18.333984 A 0.50005 0.50005 0 0 0 1.6308594 18.335938 A 0.5 0.5 0 0 0 1.6328125 18.335938 A 0.5 0.5 0 0 0 1.6464844 18.353516 L 5.6464844 22.353516 A 0.5 0.5 0 0 0 6.3535156 22.353516 A 0.5 0.5 0 0 0 6.3535156 21.646484 L 3.2070312 18.5 L 22 18.5 A 0.5 0.5 0 0 0 22.5 18 A 0.5 0.5 0 0 0 22 17.5 L 3.2070312 17.5 L 6.3535156 14.353516 A 0.5 0.5 0 0 0 6.3535156 13.646484 A 0.5 0.5 0 0 0 6 13.5 z " />
</svg>
