<?xml version="1.0" encoding="UTF-8" standalone="no"?>
<svg
   width="24"
   height="24"
   viewBox="0 0 24 24"
   fill="none"
   stroke="currentColor"
   stroke-width="1"
   stroke-linecap="round"
   stroke-linejoin="round"
   version="1.1"
   id="svg9"
   sodipodi:docname=".tmp_spray-can.svg"
   xmlns:inkscape="http://www.inkscape.org/namespaces/inkscape"
   xmlns:sodipodi="http://sodipodi.sourceforge.net/DTD/sodipodi-0.dtd"
   xmlns="http://www.w3.org/2000/svg"
   xmlns:svg="http://www.w3.org/2000/svg">
  <defs
     id="defs9" />
  <sodipodi:namedview
     id="namedview9"
     pagecolor="#ffffff"
     bordercolor="#000000"
     borderopacity="0.25"
     inkscape:showpageshadow="2"
     inkscape:pageopacity="0.0"
     inkscape:pagecheckerboard="0"
     inkscape:deskcolor="#d1d1d1" />
  <path
     id="path1"
     style="baseline-shift:baseline;display:inline;overflow:visible;vector-effect:none;fill:#000000;stroke:none;stroke-linecap:butt;stroke-linejoin:miter;enable-background:accumulate;stop-color:#000000;stop-opacity:1;opacity:1"
     d="M 3 2.5 A 0.5 0.5 0 0 0 2.5 3 A 0.5 0.5 0 0 0 3 3.5 L 3.0097656 3.5 A 0.5 0.5 0 0 0 3.5097656 3 A 0.5 0.5 0 0 0 3.0097656 2.5 L 3 2.5 z M 7 4.5 A 0.5 0.5 0 0 0 6.5 5 A 0.5 0.5 0 0 0 7 5.5 L 7.0097656 5.5 A 0.5 0.5 0 0 0 7.5097656 5 A 0.5 0.5 0 0 0 7.0097656 4.5 L 7 4.5 z M 15 4.5 A 0.50005 0.50005 0 0 0 14.5 5 L 14.5 8.7929688 L 12.646484 10.646484 A 0.50005 0.50005 0 0 0 12.5 11 L 12.5 18.992188 L 12.5 21 C 12.5 21.411111 12.64586 21.80211 12.921875 22.078125 C 13.19789 22.35414 13.588889 22.5 14 22.5 L 20 22.5 C 20.411111 22.5 20.80211 22.35414 21.078125 22.078125 C 21.35414 21.80211 21.5 21.411111 21.5 21 L 21.5 17.007812 L 21.5 11 A 0.50005 0.50005 0 0 0 21.353516 10.646484 L 19.5 8.7929688 L 19.5 5 A 0.50005 0.50005 0 0 0 19 4.5 L 15 4.5 z M 15.5 5.5 L 18.5 5.5 L 18.5 8.5 L 15.5 8.5 L 15.5 5.5 z M 3 6.5 A 0.5 0.5 0 0 0 2.5 7 A 0.5 0.5 0 0 0 3 7.5 L 3.0097656 7.5 A 0.5 0.5 0 0 0 3.5097656 7 A 0.5 0.5 0 0 0 3.0097656 6.5 L 3 6.5 z M 11 6.5 A 0.5 0.5 0 0 0 10.5 7 A 0.5 0.5 0 0 0 11 7.5 L 11.009766 7.5 A 0.5 0.5 0 0 0 11.509766 7 A 0.5 0.5 0 0 0 11.009766 6.5 L 11 6.5 z M 7 8.5 A 0.5 0.5 0 0 0 6.5 9 A 0.5 0.5 0 0 0 7 9.5 L 7.0097656 9.5 A 0.5 0.5 0 0 0 7.5097656 9 A 0.5 0.5 0 0 0 7.0097656 8.5 L 7 8.5 z M 15.207031 9.5 L 18.792969 9.5 L 20.5 11.207031 L 20.5 11.609375 L 13.5 13.359375 L 13.5 11.207031 L 15.207031 9.5 z M 3 10.5 A 0.5 0.5 0 0 0 2.5 11 A 0.5 0.5 0 0 0 3 11.5 L 3.0097656 11.5 A 0.5 0.5 0 0 0 3.5097656 11 A 0.5 0.5 0 0 0 3.0097656 10.5 L 3 10.5 z M 20.5 12.640625 L 20.5 16.609375 L 13.5 18.359375 L 13.5 14.390625 L 20.5 12.640625 z M 20.5 17.640625 L 20.5 21 C 20.5 21.188889 20.44508 21.297109 20.371094 21.371094 C 20.297109 21.445078 20.188889 21.5 20 21.5 L 14 21.5 C 13.811111 21.5 13.702891 21.44508 13.628906 21.371094 C 13.554922 21.297109 13.5 21.188889 13.5 21 L 13.5 19.390625 L 20.5 17.640625 z " />
</svg>
