<?xml version="1.0" encoding="UTF-8" standalone="no"?>
<svg
   width="24"
   height="24"
   viewBox="0 0 24 24"
   fill="none"
   stroke="currentColor"
   stroke-width="1"
   stroke-linecap="round"
   stroke-linejoin="round"
   version="1.1"
   id="svg5"
   sodipodi:docname=".tmp_sticker.svg"
   xmlns:inkscape="http://www.inkscape.org/namespaces/inkscape"
   xmlns:sodipodi="http://sodipodi.sourceforge.net/DTD/sodipodi-0.dtd"
   xmlns="http://www.w3.org/2000/svg"
   xmlns:svg="http://www.w3.org/2000/svg">
  <defs
     id="defs5" />
  <sodipodi:namedview
     id="namedview5"
     pagecolor="#ffffff"
     bordercolor="#000000"
     borderopacity="0.25"
     inkscape:showpageshadow="2"
     inkscape:pageopacity="0.0"
     inkscape:pagecheckerboard="0"
     inkscape:deskcolor="#d1d1d1" />
  <path
     id="path1"
     style="baseline-shift:baseline;display:inline;overflow:visible;vector-effect:none;fill:#000000;stroke:none;stroke-linecap:butt;stroke-linejoin:miter;enable-background:accumulate;stop-color:#000000;stop-opacity:1;opacity:1"
     d="M 5 2.5 C 3.6252104 2.5 2.5 3.6252104 2.5 5 L 2.5 19 C 2.5 20.372727 3.6272727 21.5 5 21.5 L 19 21.5 C 20.37479 21.5 21.5 20.37479 21.5 19 L 21.5 8.5 A 0.50005 0.50005 0 0 0 21.353516 8.1464844 L 15.853516 2.6464844 A 0.50005 0.50005 0 0 0 15.5 2.5 L 5 2.5 z M 5 3.5 L 13.5 3.5 L 13.5 7 C 13.5 8.3747896 14.62521 9.5 16 9.5 L 20 9.5 A 0.5 0.5 0 0 0 20.5 9 A 0.5 0.5 0 0 0 20 8.5 L 16 8.5 C 15.165651 8.5 14.5 7.8343494 14.5 7 L 14.5 3.5 L 15.292969 3.5 L 20.5 8.7070312 L 20.5 9 L 20.5 19 C 20.5 19.834349 19.834349 20.5 19 20.5 L 5 20.5 C 4.1727273 20.5 3.5 19.827273 3.5 19 L 3.5 5 C 3.5 4.1656506 4.1656506 3.5 5 3.5 z M 8 12.5 A 0.5 0.5 0 0 0 7.5 13 A 0.5 0.5 0 0 0 8 13.5 L 8.0097656 13.5 A 0.5 0.5 0 0 0 8.5097656 13 A 0.5 0.5 0 0 0 8.0097656 12.5 L 8 12.5 z M 16 12.5 A 0.5 0.5 0 0 0 15.5 13 A 0.5 0.5 0 0 0 16 13.5 L 16.009766 13.5 A 0.5 0.5 0 0 0 16.509766 13 A 0.5 0.5 0 0 0 16.009766 12.5 L 16 12.5 z M 9.9902344 15.5 A 0.5 0.5 0 0 0 9.6875 15.609375 A 0.5 0.5 0 0 0 9.609375 16.3125 C 9.609375 16.3125 10.522222 17.5 12 17.5 C 13.55641 17.5 14.410156 16.287109 14.410156 16.287109 A 0.5 0.5 0 0 0 14.287109 15.589844 A 0.5 0.5 0 0 0 13.589844 15.712891 C 13.589844 15.712891 13.04359 16.5 12 16.5 C 11.077778 16.5 10.390625 15.6875 10.390625 15.6875 A 0.5 0.5 0 0 0 10.054688 15.503906 A 0.5 0.5 0 0 0 9.9902344 15.5 z " />
</svg>
