<?xml version="1.0" encoding="UTF-8" standalone="no"?>
<svg
   width="24"
   height="24"
   viewBox="0 0 24 24"
   fill="none"
   stroke="currentColor"
   stroke-width="1"
   stroke-linecap="round"
   stroke-linejoin="round"
   version="1.1"
   id="svg3"
   sodipodi:docname=".tmp_subscript.svg"
   xmlns:inkscape="http://www.inkscape.org/namespaces/inkscape"
   xmlns:sodipodi="http://sodipodi.sourceforge.net/DTD/sodipodi-0.dtd"
   xmlns="http://www.w3.org/2000/svg"
   xmlns:svg="http://www.w3.org/2000/svg">
  <defs
     id="defs3" />
  <sodipodi:namedview
     id="namedview3"
     pagecolor="#ffffff"
     bordercolor="#000000"
     borderopacity="0.25"
     inkscape:showpageshadow="2"
     inkscape:pageopacity="0.0"
     inkscape:pagecheckerboard="0"
     inkscape:deskcolor="#d1d1d1" />
  <path
     id="path1"
     style="baseline-shift:baseline;display:inline;overflow:visible;vector-effect:none;fill:#000000;stroke:none;stroke-linecap:butt;stroke-linejoin:miter;enable-background:accumulate;stop-color:#000000;stop-opacity:1;opacity:1"
     d="M 4 4.5 A 0.5 0.5 0 0 0 3.6464844 4.6464844 A 0.5 0.5 0 0 0 3.6464844 5.3535156 L 7.2929688 9 L 3.6464844 12.646484 A 0.5 0.5 0 0 0 3.6464844 13.353516 A 0.5 0.5 0 0 0 4.3535156 13.353516 L 8 9.7070312 L 11.646484 13.353516 A 0.5 0.5 0 0 0 12.353516 13.353516 A 0.5 0.5 0 0 0 12.353516 12.646484 L 8.7070312 9 L 12.353516 5.3535156 A 0.5 0.5 0 0 0 12.353516 4.6464844 A 0.5 0.5 0 0 0 11.646484 4.6464844 L 8 8.2929688 L 4.3535156 4.6464844 A 0.5 0.5 0 0 0 4 4.5 z M 17.935547 11.496094 C 17.497365 11.496177 17.055803 11.606974 16.654297 11.833984 A 0.50005 0.50005 0 0 0 16.652344 11.835938 C 16.129936 12.134455 15.730029 12.607317 15.529297 13.171875 A 0.5 0.5 0 0 0 15.832031 13.810547 A 0.5 0.5 0 0 0 16.470703 13.507812 C 16.589971 13.17237 16.830846 12.886559 17.148438 12.705078 C 17.811383 12.331338 18.635406 12.470245 19.140625 13.039062 C 19.371444 13.307711 19.5 13.65119 19.5 14 C 19.5 14.484549 19.259147 14.829802 18.833984 15.171875 C 18.408822 15.513948 17.818185 15.796368 17.287109 16.046875 C 16.72309 16.312922 16.248703 16.616234 15.933594 17.103516 C 15.618485 17.590798 15.5 18.201111 15.5 19 A 0.50005 0.50005 0 0 0 16 19.5 L 20 19.5 A 0.5 0.5 0 0 0 20.5 19 A 0.5 0.5 0 0 0 20 18.5 L 16.599609 18.5 C 16.644329 18.187032 16.664339 17.812178 16.771484 17.646484 C 16.941375 17.383766 17.21691 17.187078 17.712891 16.953125 C 18.241815 16.703632 18.901101 16.401599 19.460938 15.951172 C 20.020775 15.500745 20.5 14.845451 20.5 14 C 20.5 13.409433 20.286883 12.833909 19.898438 12.382812 A 0.50005 0.50005 0 0 0 19.894531 12.378906 C 19.487433 11.917956 18.945697 11.629701 18.371094 11.533203 C 18.227443 11.509078 18.081608 11.496066 17.935547 11.496094 z " />
</svg>
