<?xml version="1.0" encoding="UTF-8" standalone="no"?>
<svg
   width="24"
   height="24"
   viewBox="0 0 24 24"
   fill="none"
   stroke="currentColor"
   stroke-width="1"
   stroke-linecap="round"
   stroke-linejoin="round"
   version="1.1"
   id="svg4"
   sodipodi:docname=".tmp_swatch-book.svg"
   xmlns:inkscape="http://www.inkscape.org/namespaces/inkscape"
   xmlns:sodipodi="http://sodipodi.sourceforge.net/DTD/sodipodi-0.dtd"
   xmlns="http://www.w3.org/2000/svg"
   xmlns:svg="http://www.w3.org/2000/svg">
  <defs
     id="defs4" />
  <sodipodi:namedview
     id="namedview4"
     pagecolor="#ffffff"
     bordercolor="#000000"
     borderopacity="0.25"
     inkscape:showpageshadow="2"
     inkscape:pageopacity="0.0"
     inkscape:pagecheckerboard="0"
     inkscape:deskcolor="#d1d1d1" />
  <path
     id="path1"
     style="baseline-shift:baseline;display:inline;overflow:visible;vector-effect:none;fill:#000000;stroke:none;stroke-linecap:butt;stroke-linejoin:miter;enable-background:accumulate;stop-color:#000000;stop-opacity:1;opacity:1"
     d="M 5 2.5 C 3.6252104 2.5 2.5 3.6252104 2.5 5 L 2.5 17 C 2.5 18.458333 3.0648778 19.614744 3.9179688 20.373047 C 4.7710597 21.13135 5.8888889 21.5 7 21.5 L 19 21.5 C 20.37479 21.5 21.5 20.37479 21.5 19 L 21.5 15 C 21.5 13.62521 20.37479 12.5 19 12.5 L 17.873047 12.5 L 18.978516 11.388672 L 18.980469 11.386719 C 20.130436 10.244405 20.115703 8.3641458 18.947266 7.2402344 L 17.058594 5.3515625 L 17.056641 5.3496094 C 16.49279 4.7821752 15.748937 4.4989224 15.003906 4.4980469 C 14.25802 4.4971704 13.510789 4.7802037 12.945312 5.3476562 L 11.5 6.7929688 L 11.5 5 C 11.5 3.6252104 10.37479 2.5 9 2.5 L 5 2.5 z M 5 3.5 L 9 3.5 C 9.8343494 3.5 10.5 4.1656506 10.5 5 L 10.5 8 L 10.5 17 C 10.5 17.87982 10.269694 18.565504 9.8945312 19.095703 C 9.8939977 19.096457 9.8931122 19.096903 9.8925781 19.097656 L 9.5449219 19.447266 A 0.5 0.5 0 0 0 9.4375 19.609375 C 9.4312231 19.615042 9.4242862 19.621338 9.4179688 19.626953 C 8.7710596 20.201983 7.8888889 20.5 7 20.5 C 6.1111111 20.5 5.2289403 20.201983 4.5820312 19.626953 C 3.9351222 19.051923 3.5 18.208333 3.5 17 L 3.5 5 C 3.5 4.1656506 4.1656506 3.5 5 3.5 z M 15.001953 5.4902344 C 15.488998 5.4909919 15.976484 5.680446 16.349609 6.0566406 L 18.246094 7.953125 A 0.50005 0.50005 0 0 0 18.253906 7.9609375 C 19.027473 8.7050239 19.03565 9.9239727 18.273438 10.679688 A 0.50005 0.50005 0 0 0 18.271484 10.681641 L 11.476562 17.507812 C 11.492055 17.343184 11.5 17.173319 11.5 17 L 11.5 8.2070312 L 13.654297 6.0527344 C 14.028305 5.6774196 14.514909 5.4894768 15.001953 5.4902344 z M 16.876953 13.5 L 19 13.5 C 19.834349 13.5 20.5 14.165651 20.5 15 L 20.5 19 C 20.5 19.834349 19.834349 20.5 19 20.5 L 9.9316406 20.5 C 9.9823951 20.458968 10.032976 20.416652 10.082031 20.373047 C 10.283477 20.193984 10.469104 19.991725 10.634766 19.769531 C 10.635316 19.768793 10.636168 19.768317 10.636719 19.767578 L 16.876953 13.5 z M 7 16.5 A 0.5 0.5 0 0 0 6.5 17 A 0.5 0.5 0 0 0 7 17.5 L 7.0097656 17.5 A 0.5 0.5 0 0 0 7.5097656 17 A 0.5 0.5 0 0 0 7.0097656 16.5 L 7 16.5 z " />
</svg>
