<?xml version="1.0" encoding="UTF-8" standalone="no"?>
<svg
   width="24"
   height="24"
   viewBox="0 0 24 24"
   fill="none"
   stroke="currentColor"
   stroke-width="1"
   stroke-linecap="round"
   stroke-linejoin="round"
   version="1.1"
   id="svg6"
   sodipodi:docname=".tmp_tickets-plane.svg"
   xmlns:inkscape="http://www.inkscape.org/namespaces/inkscape"
   xmlns:sodipodi="http://sodipodi.sourceforge.net/DTD/sodipodi-0.dtd"
   xmlns="http://www.w3.org/2000/svg"
   xmlns:svg="http://www.w3.org/2000/svg">
  <defs
     id="defs6" />
  <sodipodi:namedview
     id="namedview6"
     pagecolor="#ffffff"
     bordercolor="#000000"
     borderopacity="0.25"
     inkscape:showpageshadow="2"
     inkscape:pageopacity="0.0"
     inkscape:pagecheckerboard="0"
     inkscape:deskcolor="#d1d1d1" />
  <path
     id="path1"
     style="baseline-shift:baseline;display:inline;overflow:visible;vector-effect:none;fill:#000000;stroke:none;stroke-linecap:butt;stroke-linejoin:miter;enable-background:accumulate;stop-color:#000000;stop-opacity:1;opacity:1"
     d="M 15.447266 2.34375 C 15.249987 2.3510821 15.051262 2.3983082 14.863281 2.4882812 L 4.3867188 7.5 L 4 7.5 C 2.6236486 7.5 1.5 8.6236486 1.5 10 L 1.5 19 C 1.5 20.376351 2.6236486 21.5 4 21.5 L 6 21.5 L 20 21.5 C 21.376351 21.5 22.5 20.376351 22.5 19 L 22.5 10 C 22.5 8.6236486 21.376351 7.5 20 7.5 L 18.822266 7.5 L 16.876953 3.2207031 C 16.704393 2.8412947 16.389557 2.5686813 16.023438 2.4355469 C 15.840378 2.3689797 15.644545 2.3364179 15.447266 2.34375 z M 15.492188 3.3398438 C 15.689686 3.3300563 15.877911 3.4393332 15.966797 3.6347656 L 17.722656 7.5 L 6.7011719 7.5 L 15.294922 3.390625 C 15.359474 3.3597284 15.426355 3.3431062 15.492188 3.3398438 z M 4 8.5 L 5.5 8.5 L 5.5 10 A 0.5 0.5 0 0 0 6 10.5 A 0.5 0.5 0 0 0 6.5 10 L 6.5 8.5 L 18.517578 8.5 L 20 8.5 C 20.839649 8.5 21.5 9.1603514 21.5 10 L 21.5 19 C 21.5 19.839649 20.839649 20.5 20 20.5 L 6.5 20.5 L 6.5 19 A 0.5 0.5 0 0 0 6 18.5 A 0.5 0.5 0 0 0 5.5 19 L 5.5 20.5 L 4 20.5 C 3.1603514 20.5 2.5 19.839649 2.5 19 L 2.5 10 C 2.5 9.1603514 3.1603514 8.5 4 8.5 z M 18.023438 11.501953 A 0.5 0.5 0 0 0 17.664062 11.630859 L 15.630859 13.478516 L 12.066406 13.003906 A 0.5 0.5 0 0 0 11.503906 13.433594 A 0.5 0.5 0 0 0 11.933594 13.996094 L 14.662109 14.359375 L 12.736328 16.109375 C 12.460169 16.360384 12.09975 16.49996 11.726562 16.5 L 10.5 16.5 A 0.5 0.5 0 0 0 10 17 A 0.5 0.5 0 0 0 10.5 17.5 L 11.726562 17.5 C 12.348168 17.499934 12.948215 17.267706 13.408203 16.849609 L 18.335938 12.369141 A 0.5 0.5 0 0 0 18.369141 11.664062 A 0.5 0.5 0 0 0 18.023438 11.501953 z M 6 13.5 A 0.5 0.5 0 0 0 5.5 14 L 5.5 15 A 0.5 0.5 0 0 0 6 15.5 A 0.5 0.5 0 0 0 6.5 15 L 6.5 14 A 0.5 0.5 0 0 0 6 13.5 z " />
</svg>
