<?xml version="1.0" encoding="UTF-8" standalone="no"?>
<svg
   width="24"
   height="24"
   viewBox="0 0 24 24"
   fill="none"
   stroke="currentColor"
   stroke-width="1"
   stroke-linecap="round"
   stroke-linejoin="round"
   version="1.1"
   id="svg6"
   sodipodi:docname=".tmp_touchpad-off.svg"
   xmlns:inkscape="http://www.inkscape.org/namespaces/inkscape"
   xmlns:sodipodi="http://sodipodi.sourceforge.net/DTD/sodipodi-0.dtd"
   xmlns="http://www.w3.org/2000/svg"
   xmlns:svg="http://www.w3.org/2000/svg">
  <defs
     id="defs6" />
  <sodipodi:namedview
     id="namedview6"
     pagecolor="#ffffff"
     bordercolor="#000000"
     borderopacity="0.25"
     inkscape:showpageshadow="2"
     inkscape:pageopacity="0.0"
     inkscape:pagecheckerboard="0"
     inkscape:deskcolor="#d1d1d1" />
  <path
     id="path1"
     style="baseline-shift:baseline;display:inline;overflow:visible;vector-effect:none;fill:#000000;stroke:none;stroke-linecap:butt;stroke-linejoin:miter;enable-background:accumulate;stop-color:#000000;stop-opacity:1;opacity:1"
     d="M 2 1.5 A 0.5 0.5 0 0 0 1.6464844 1.6464844 A 0.5 0.5 0 0 0 1.6464844 2.3535156 L 3.0019531 3.7089844 C 2.1199859 4.0962569 1.5 4.9794138 1.5 6 L 1.5 18 C 1.5 19.37479 2.6252104 20.5 4 20.5 L 19.792969 20.5 L 21.646484 22.353516 A 0.5 0.5 0 0 0 22.353516 22.353516 A 0.5 0.5 0 0 0 22.353516 21.646484 L 20.359375 19.652344 A 0.5 0.5 0 0 0 20.347656 19.640625 L 14.359375 13.652344 A 0.5 0.5 0 0 0 14.347656 13.640625 L 4.359375 3.6523438 A 0.5 0.5 0 0 0 4.3476562 3.640625 L 2.3535156 1.6464844 A 0.5 0.5 0 0 0 2 1.5 z M 9.65625 3.5 A 0.5 0.5 0 0 0 9.15625 4 A 0.5 0.5 0 0 0 9.65625 4.5 L 20 4.5 C 20.834349 4.5 21.5 5.1656506 21.5 6 L 21.5 13.5 L 19.65625 13.5 A 0.5 0.5 0 0 0 19.15625 14 A 0.5 0.5 0 0 0 19.65625 14.5 L 21.5 14.5 L 21.5 16.34375 A 0.5 0.5 0 0 0 22 16.84375 A 0.5 0.5 0 0 0 22.5 16.34375 L 22.5 14 L 22.5 6 C 22.5 4.6252104 21.37479 3.5 20 3.5 L 9.65625 3.5 z M 3.8046875 4.5117188 L 12.792969 13.5 L 2.5 13.5 L 2.5 6 C 2.5 5.2317102 3.0638647 4.6059105 3.8046875 4.5117188 z M 2.5 14.5 L 11.5 14.5 L 11.5 19.5 L 4 19.5 C 3.1656506 19.5 2.5 18.834349 2.5 18 L 2.5 14.5 z M 12.5 14.5 L 13.792969 14.5 L 18.792969 19.5 L 12.5 19.5 L 12.5 14.5 z " />
</svg>
