<?xml version="1.0" encoding="UTF-8" standalone="no"?>
<svg
   width="24"
   height="24"
   viewBox="0 0 24 24"
   fill="none"
   stroke="currentColor"
   stroke-width="1"
   stroke-linecap="round"
   stroke-linejoin="round"
   version="1.1"
   id="svg3"
   sodipodi:docname=".tmp_webhook.svg"
   xmlns:inkscape="http://www.inkscape.org/namespaces/inkscape"
   xmlns:sodipodi="http://sodipodi.sourceforge.net/DTD/sodipodi-0.dtd"
   xmlns="http://www.w3.org/2000/svg"
   xmlns:svg="http://www.w3.org/2000/svg">
  <defs
     id="defs3" />
  <sodipodi:namedview
     id="namedview3"
     pagecolor="#ffffff"
     bordercolor="#000000"
     borderopacity="0.25"
     inkscape:showpageshadow="2"
     inkscape:pageopacity="0.0"
     inkscape:pagecheckerboard="0"
     inkscape:deskcolor="#d1d1d1" />
  <path
     id="path1"
     style="baseline-shift:baseline;display:inline;overflow:visible;vector-effect:none;fill:#000000;stroke:none;stroke-linecap:butt;stroke-linejoin:miter;enable-background:accumulate;stop-color:#000000;stop-opacity:1;opacity:1"
     d="M 12.162109 1.4433594 C 11.877306 1.442927 11.594585 1.4707354 11.316406 1.5234375 C 10.760049 1.6288417 10.222981 1.8362821 9.7363281 2.1230469 C 8.7630229 2.6965765 7.9751616 3.5981762 7.6308594 4.7050781 C 7.2865571 5.8119801 7.4125113 7.1172173 8.2050781 8.3847656 A 0.50005 0.50005 0 0 0 8.2109375 8.3925781 C 8.7610682 9.2361119 9.0829525 10.263865 8.6914062 10.980469 A 0.50005 0.50005 0 0 0 8.6894531 10.982422 L 5.5605469 16.761719 A 0.5 0.5 0 0 0 5.7617188 17.439453 A 0.5 0.5 0 0 0 6.4394531 17.238281 L 9.5703125 11.458984 L 9.5683594 11.458984 C 10.235028 10.238799 9.702227 8.8513762 9.0546875 7.8554688 L 9.0488281 7.8476562 C 8.3948613 6.7972071 8.3260204 5.8375644 8.5859375 5.0019531 C 8.8465578 4.1640813 9.4639171 3.4441291 10.244141 2.984375 C 11.024364 2.5246209 11.955226 2.333728 12.814453 2.5117188 C 13.67368 2.6897093 14.479465 3.2157442 15.082031 4.3027344 A 0.5 0.5 0 0 0 15.761719 4.4980469 A 0.5 0.5 0 0 0 15.957031 3.8183594 C 15.232236 2.5108763 14.152692 1.7663912 13.017578 1.53125 C 12.7338 1.4724647 12.446913 1.4437917 12.162109 1.4433594 z M 12.011719 5.4980469 A 0.5 0.5 0 0 0 11.759766 5.5605469 A 0.5 0.5 0 0 0 11.560547 6.2402344 L 14.691406 11.96875 A 0.50005 0.50005 0 0 0 14.691406 11.970703 C 15.35795 13.190557 16.809091 13.5 18 13.5 C 19.208333 13.5 20.051923 13.935122 20.626953 14.582031 C 21.201983 15.22894 21.5 16.111111 21.5 17 C 21.5 17.888889 21.201983 18.77106 20.626953 19.417969 C 20.051923 20.064878 19.208333 20.5 18 20.5 A 0.5 0.5 0 0 0 17.5 21 A 0.5 0.5 0 0 0 18 21.5 C 19.458333 21.5 20.614744 20.935122 21.373047 20.082031 C 22.13135 19.22894 22.5 18.111111 22.5 17 C 22.5 15.888889 22.13135 14.77106 21.373047 13.917969 C 20.614744 13.064878 19.458333 12.5 18 12.5 C 16.990909 12.5 15.961816 12.210334 15.568359 11.490234 L 12.439453 5.7597656 A 0.5 0.5 0 0 0 12.011719 5.4980469 z M 2.5839844 14.5 A 0.5 0.5 0 0 0 2.1445312 14.738281 C 1.7234754 15.421074 1.5112241 16.206499 1.5 16.992188 A 0.50005 0.50005 0 0 0 1.5 17 C 1.5007199 19.304998 3.0791034 20.908079 4.9101562 21.365234 C 6.7392163 21.821892 8.8815997 21.15008 9.9667969 19.121094 L 9.9707031 19.115234 C 10.458159 18.235119 11.196575 17.480469 12.009766 17.480469 L 18 17.480469 A 0.5 0.5 0 0 0 18.5 16.980469 A 0.5 0.5 0 0 0 18 16.480469 L 12.009766 16.480469 C 10.624917 16.480469 9.6643744 17.60155 9.0917969 18.638672 A 0.50005 0.50005 0 0 0 9.0878906 18.644531 C 8.2135129 20.285225 6.5963539 20.755054 5.1523438 20.394531 C 3.7096406 20.034334 2.5047156 18.860129 2.5019531 17.003906 C 2.5114631 16.391052 2.6779035 15.777703 2.9960938 15.261719 A 0.5 0.5 0 0 0 2.8320312 14.574219 A 0.5 0.5 0 0 0 2.5839844 14.5 z " />
</svg>
