<?xml version="1.0" encoding="UTF-8" standalone="no"?>
<svg
   width="24"
   height="24"
   viewBox="0 0 24 24"
   fill="none"
   stroke="currentColor"
   stroke-width="1"
   stroke-linecap="round"
   stroke-linejoin="round"
   version="1.1"
   id="svg3"
   sodipodi:docname=".tmp_whole-word.svg"
   xmlns:inkscape="http://www.inkscape.org/namespaces/inkscape"
   xmlns:sodipodi="http://sodipodi.sourceforge.net/DTD/sodipodi-0.dtd"
   xmlns="http://www.w3.org/2000/svg"
   xmlns:svg="http://www.w3.org/2000/svg">
  <defs
     id="defs3" />
  <sodipodi:namedview
     id="namedview3"
     pagecolor="#ffffff"
     bordercolor="#000000"
     borderopacity="0.25"
     inkscape:showpageshadow="2"
     inkscape:pageopacity="0.0"
     inkscape:pagecheckerboard="0"
     inkscape:deskcolor="#d1d1d1" />
  <path
     id="circle1"
     style="baseline-shift:baseline;display:inline;overflow:visible;vector-effect:none;fill:#000000;stroke:none;stroke-linecap:butt;stroke-linejoin:miter;enable-background:accumulate;stop-color:#000000;stop-opacity:1;opacity:1"
     d="M 14 6.5 A 0.5 0.5 0 0 0 13.5 7 L 13.5 15 A 0.5 0.5 0 0 0 14 15.5 A 0.5 0.5 0 0 0 14.5 15 L 14.5 14.445312 C 15.136185 15.095627 16.022535 15.5 17 15.5 C 18.927074 15.5 20.5 13.927074 20.5 12 C 20.5 10.072926 18.927074 8.5 17 8.5 C 16.022535 8.5 15.136185 8.9043731 14.5 9.5546875 L 14.5 7 A 0.5 0.5 0 0 0 14 6.5 z M 7 8.5 C 5.0729257 8.5 3.5 10.072926 3.5 12 C 3.5 13.927074 5.0729257 15.5 7 15.5 C 7.9774652 15.5 8.8638151 15.095627 9.5 14.445312 L 9.5 15 A 0.5 0.5 0 0 0 10 15.5 A 0.5 0.5 0 0 0 10.5 15 L 10.5 9 A 0.5 0.5 0 0 0 10 8.5 A 0.5 0.5 0 0 0 9.5 9 L 9.5 9.5546875 C 8.8638151 8.9043732 7.9774652 8.5 7 8.5 z M 7 9.5 C 8.3866342 9.5 9.5 10.613366 9.5 12 C 9.5 13.386634 8.3866342 14.5 7 14.5 C 5.6133658 14.5 4.5 13.386634 4.5 12 C 4.5 10.613366 5.6133658 9.5 7 9.5 z M 17 9.5 C 18.386634 9.5 19.5 10.613366 19.5 12 C 19.5 13.386634 18.386634 14.5 17 14.5 C 15.613366 14.5 14.5 13.386634 14.5 12 C 14.5 10.613366 15.613366 9.5 17 9.5 z M 2 16.5 A 0.5 0.5 0 0 0 1.5 17 L 1.5 18 C 1.5 18.416667 1.692917 18.774948 1.9589844 19.041016 C 2.2250518 19.307083 2.5833333 19.5 3 19.5 L 21 19.5 C 21.416667 19.5 21.774948 19.307083 22.041016 19.041016 C 22.307083 18.774948 22.5 18.416667 22.5 18 L 22.5 17 A 0.5 0.5 0 0 0 22 16.5 A 0.5 0.5 0 0 0 21.5 17 L 21.5 18 C 21.5 18.08333 21.44292 18.225052 21.333984 18.333984 C 21.225052 18.442917 21.083333 18.5 21 18.5 L 3 18.5 C 2.9166667 18.5 2.7749482 18.442917 2.6660156 18.333984 C 2.557083 18.225052 2.5 18.083333 2.5 18 L 2.5 17 A 0.5 0.5 0 0 0 2 16.5 z " />
</svg>
