<?xml version="1.0" encoding="UTF-8" standalone="no"?>
<svg
   width="24"
   height="24"
   viewBox="0 0 24 24"
   fill="none"
   stroke="currentColor"
   stroke-width="1"
   stroke-linecap="round"
   stroke-linejoin="round"
   version="1.1"
   id="svg4"
   sodipodi:docname=".tmp_wifi.svg"
   xmlns:inkscape="http://www.inkscape.org/namespaces/inkscape"
   xmlns:sodipodi="http://sodipodi.sourceforge.net/DTD/sodipodi-0.dtd"
   xmlns="http://www.w3.org/2000/svg"
   xmlns:svg="http://www.w3.org/2000/svg">
  <defs
     id="defs4" />
  <sodipodi:namedview
     id="namedview4"
     pagecolor="#ffffff"
     bordercolor="#000000"
     borderopacity="0.25"
     inkscape:showpageshadow="2"
     inkscape:pageopacity="0.0"
     inkscape:pagecheckerboard="0"
     inkscape:deskcolor="#d1d1d1" />
  <path
     id="path1"
     style="baseline-shift:baseline;display:inline;overflow:visible;vector-effect:none;fill:#000000;stroke:none;stroke-linecap:butt;stroke-linejoin:miter;enable-background:accumulate;stop-color:#000000;stop-opacity:1;opacity:1"
     d="M 12 4.5019531 C 8.3035175 4.5019531 4.606384 5.8173202 1.6660156 8.4472656 A 0.5 0.5 0 0 0 1.6269531 9.1542969 A 0.5 0.5 0 0 0 2.3339844 9.1933594 C 7.8412739 4.2674899 16.158726 4.2674899 21.666016 9.1933594 A 0.5 0.5 0 0 0 22.373047 9.1542969 A 0.5 0.5 0 0 0 22.333984 8.4472656 C 19.393614 5.8173202 15.696482 4.5019531 12 4.5019531 z M 12 9.5039062 C 9.3447213 9.5039062 6.6898332 10.5029 4.6503906 12.501953 A 0.5 0.5 0 0 0 4.6425781 13.208984 A 0.5 0.5 0 0 0 5.3496094 13.216797 C 9.0475945 9.5920463 14.952406 9.5920463 18.650391 13.216797 A 0.5 0.5 0 0 0 19.357422 13.208984 A 0.5 0.5 0 0 0 19.349609 12.501953 C 17.310152 10.5029 14.655279 9.5039063 12 9.5039062 z M 12 14.501953 C 10.608667 14.501953 9.2177244 15.026069 8.1503906 16.072266 A 0.5 0.5 0 0 0 8.1425781 16.779297 A 0.5 0.5 0 0 0 8.8496094 16.785156 C 10.603377 15.06612 13.396623 15.06612 15.150391 16.785156 A 0.5 0.5 0 0 0 15.857422 16.779297 A 0.5 0.5 0 0 0 15.849609 16.072266 C 14.782261 15.026069 13.391333 14.501953 12 14.501953 z M 12 19.5 A 0.5 0.5 0 0 0 11.5 20 A 0.5 0.5 0 0 0 12 20.5 L 12.009766 20.5 A 0.5 0.5 0 0 0 12.509766 20 A 0.5 0.5 0 0 0 12.009766 19.5 L 12 19.5 z " />
</svg>
