<?xml version="1.0" encoding="UTF-8" standalone="no"?>
<svg
   width="24"
   height="24"
   viewBox="0 0 24 24"
   fill="none"
   stroke="currentColor"
   stroke-width="0.5"
   stroke-linecap="round"
   stroke-linejoin="round"
   version="1.1"
   id="svg3"
   sodipodi:docname=".tmp_align-vertical-space-between.svg"
   xmlns:inkscape="http://www.inkscape.org/namespaces/inkscape"
   xmlns:sodipodi="http://sodipodi.sourceforge.net/DTD/sodipodi-0.dtd"
   xmlns="http://www.w3.org/2000/svg"
   xmlns:svg="http://www.w3.org/2000/svg">
  <defs
     id="defs3" />
  <sodipodi:namedview
     id="namedview3"
     pagecolor="#ffffff"
     bordercolor="#000000"
     borderopacity="0.25"
     inkscape:showpageshadow="2"
     inkscape:pageopacity="0.0"
     inkscape:pagecheckerboard="0"
     inkscape:deskcolor="#d1d1d1" />
  <path
     id="rect1"
     style="baseline-shift:baseline;display:inline;overflow:visible;vector-effect:none;fill:#000000;stroke:none;stroke-linecap:butt;stroke-linejoin:miter;enable-background:accumulate;stop-color:#000000;stop-opacity:1;opacity:1"
     d="M 2 2.75 A 0.25 0.25 0 0 0 1.75 3 A 0.25 0.25 0 0 0 2 3.25 L 7.5859375 3.25 C 7.0760391 3.6625666 6.75 4.2933637 6.75 5 L 6.75 7 C 6.75 8.2421757 7.7578243 9.25 9 9.25 L 15 9.25 C 16.242176 9.25 17.25 8.2421757 17.25 7 L 17.25 5 C 17.25 4.2933637 16.923961 3.6625666 16.414062 3.25 L 22 3.25 A 0.25 0.25 0 0 0 22.25 3 A 0.25 0.25 0 0 0 22 2.75 L 15 2.75 L 9 2.75 L 2 2.75 z M 9 3.25 L 15 3.25 C 15.973824 3.25 16.75 4.0261757 16.75 5 L 16.75 7 C 16.75 7.9738243 15.973824 8.75 15 8.75 L 9 8.75 C 8.0261757 8.75 7.25 7.9738243 7.25 7 L 7.25 5 C 7.25 4.0261757 8.0261757 3.25 9 3.25 z M 7 14.75 C 5.7578243 14.75 4.75 15.757824 4.75 17 L 4.75 19 C 4.75 19.706636 5.0760391 20.337433 5.5859375 20.75 L 2 20.75 A 0.25 0.25 0 0 0 1.75 21 A 0.25 0.25 0 0 0 2 21.25 L 22 21.25 A 0.25 0.25 0 0 0 22.25 21 A 0.25 0.25 0 0 0 22 20.75 L 18.414062 20.75 C 18.923961 20.337433 19.25 19.706636 19.25 19 L 19.25 17 C 19.25 15.757824 18.242176 14.75 17 14.75 L 7 14.75 z M 7 15.25 L 17 15.25 C 17.973824 15.25 18.75 16.026176 18.75 17 L 18.75 19 C 18.75 19.973824 17.973824 20.75 17 20.75 L 7 20.75 C 6.0261757 20.75 5.25 19.973824 5.25 19 L 5.25 17 C 5.25 16.026176 6.0261757 15.25 7 15.25 z " />
</svg>
