<?xml version="1.0" encoding="UTF-8" standalone="no"?>
<svg
   width="24"
   height="24"
   viewBox="0 0 24 24"
   fill="none"
   stroke="currentColor"
   stroke-width="0.5"
   stroke-linecap="round"
   stroke-linejoin="round"
   version="1.1"
   id="svg6"
   sodipodi:docname=".tmp_aperture.svg"
   xmlns:inkscape="http://www.inkscape.org/namespaces/inkscape"
   xmlns:sodipodi="http://sodipodi.sourceforge.net/DTD/sodipodi-0.dtd"
   xmlns="http://www.w3.org/2000/svg"
   xmlns:svg="http://www.w3.org/2000/svg">
  <defs
     id="defs6" />
  <sodipodi:namedview
     id="namedview6"
     pagecolor="#ffffff"
     bordercolor="#000000"
     borderopacity="0.25"
     inkscape:showpageshadow="2"
     inkscape:pageopacity="0.0"
     inkscape:pagecheckerboard="0"
     inkscape:deskcolor="#d1d1d1" />
  <path
     id="circle1"
     style="baseline-shift:baseline;display:inline;overflow:visible;vector-effect:none;fill:#000000;stroke:none;stroke-linecap:butt;stroke-linejoin:miter;enable-background:accumulate;stop-color:#000000;stop-opacity:1;opacity:1"
     d="M 12 1.75 C 8.6384353 1.75 5.6527422 3.3706567 3.7832031 5.8730469 A 0.25 0.25 0 0 0 3.7226562 5.9550781 C 2.4819785 7.6502532 1.75 9.739924 1.75 12 C 1.75 13.444023 2.0482848 14.817911 2.5878906 16.064453 A 0.25 0.25 0 0 0 2.6191406 16.132812 C 4.0588417 19.393547 7.1482375 21.764211 10.828125 22.183594 A 0.25 0.25 0 0 0 10.851562 22.1875 C 10.859388 22.188373 10.867169 22.188597 10.875 22.189453 C 11.244321 22.229813 11.619994 22.25 12 22.25 C 15.361563 22.25 18.347258 20.62934 20.216797 18.126953 A 0.25 0.25 0 0 0 20.277344 18.044922 C 21.518023 16.349746 22.25 14.260078 22.25 12 C 22.25 10.555977 21.951715 9.1820889 21.412109 7.9355469 A 0.25 0.25 0 0 0 21.380859 7.8671875 C 19.790713 4.2657149 16.187715 1.75 12 1.75 z M 12 2.25 C 12.238131 2.25 12.475148 2.2586351 12.708984 2.2753906 L 9.4882812 7.8515625 A 0.25 0.25 0 0 0 9.4628906 7.8945312 L 7.3808594 11.5 L 4.25 6.0800781 C 6.0311441 3.7508387 8.839029 2.25 12 2.25 z M 13.251953 2.3300781 C 16.574952 2.7556651 19.374427 4.8513431 20.779297 7.75 L 10.123047 7.75 L 13.251953 2.3300781 z M 3.9296875 6.5234375 L 9.2558594 15.75 L 2.9960938 15.75 C 2.5152456 14.595803 2.25 13.329105 2.25 12 C 2.25 9.9696184 2.8692344 8.083964 3.9296875 6.5234375 z M 9.8339844 8.25 L 14.166016 8.25 L 16.332031 12 L 14.166016 15.75 L 9.8339844 15.75 L 7.6679688 12 L 9.8339844 8.25 z M 14.744141 8.25 L 21.003906 8.25 C 21.484754 9.4041973 21.75 10.670895 21.75 12 C 21.75 14.030383 21.130767 15.916035 20.070312 17.476562 L 16.835938 11.875 L 14.744141 8.25 z M 16.619141 12.5 L 19.75 17.919922 C 17.968856 20.249161 15.160971 21.75 12 21.75 C 11.76187 21.75 11.524851 21.741365 11.291016 21.724609 L 14.511719 16.148438 L 14.515625 16.144531 A 0.25 0.25 0 0 0 14.537109 16.105469 L 16.619141 12.5 z M 3.2207031 16.25 L 13.876953 16.25 L 10.748047 21.669922 C 7.4250466 21.244336 4.6255738 19.148657 3.2207031 16.25 z " />
</svg>
