<?xml version="1.0" encoding="UTF-8" standalone="no"?>
<svg
   width="24"
   height="24"
   viewBox="0 0 24 24"
   fill="none"
   stroke="currentColor"
   stroke-width="0.5"
   stroke-linecap="round"
   stroke-linejoin="round"
   version="1.1"
   id="svg5"
   sodipodi:docname=".tmp_beer.svg"
   xmlns:inkscape="http://www.inkscape.org/namespaces/inkscape"
   xmlns:sodipodi="http://sodipodi.sourceforge.net/DTD/sodipodi-0.dtd"
   xmlns="http://www.w3.org/2000/svg"
   xmlns:svg="http://www.w3.org/2000/svg">
  <defs
     id="defs5" />
  <sodipodi:namedview
     id="namedview5"
     pagecolor="#ffffff"
     bordercolor="#000000"
     borderopacity="0.25"
     inkscape:showpageshadow="2"
     inkscape:pageopacity="0.0"
     inkscape:pagecheckerboard="0"
     inkscape:deskcolor="#d1d1d1" />
  <path
     id="path1"
     style="baseline-shift:baseline;display:inline;overflow:visible;vector-effect:none;fill:#000000;stroke:none;stroke-linecap:butt;stroke-linejoin:miter;enable-background:accumulate;stop-color:#000000;stop-opacity:1;opacity:1"
     d="M 11 1.75 C 10.139872 1.75 9.5515439 2.1759474 9.1015625 2.5605469 C 8.8765718 2.7528466 8.6805545 2.9354514 8.5 3.0605469 C 8.3194455 3.1856424 8.1652957 3.25 8 3.25 C 7.1596057 3.25 6.3868376 2.75 5.5 2.75 C 4.604167 2.75 3.8999847 3.0949389 3.4375 3.6152344 C 2.9750153 4.1355299 2.75 4.8194445 2.75 5.5 C 2.75 6.1805555 2.9750153 6.8644701 3.4375 7.3847656 C 3.7618651 7.7496765 4.2051204 8.0282177 4.75 8.1621094 L 4.75 20 C 4.75 21.23968 5.7603205 22.25 7 22.25 L 15 22.25 C 16.23968 22.25 17.25 21.23968 17.25 20 L 17.25 17.25 L 18 17.25 C 19.0625 17.25 19.891682 16.842561 20.4375 16.228516 C 20.983318 15.61447 21.25 14.805556 21.25 14 C 21.25 13.194444 20.983318 12.38553 20.4375 11.771484 C 19.891682 11.157439 19.0625 10.75 18 10.75 L 17.25 10.75 L 17.25 8.1621094 C 17.79488 8.0282177 18.238135 7.7496765 18.5625 7.3847656 C 19.024985 6.8644701 19.25 6.1805555 19.25 5.5 C 19.25 4.8194445 19.024985 4.1355299 18.5625 3.6152344 C 18.100015 3.0949389 17.395833 2.75 16.5 2.75 C 15.613162 2.75 14.916667 3.25 14 3.25 C 13.625 3.25 13.315129 2.9463335 12.875 2.5625 C 12.434871 2.1786665 11.860128 1.75 11 1.75 z M 11 2.25 C 11.699872 2.25 12.125051 2.5713335 12.544922 2.9375 C 12.964793 3.3036665 13.375 3.75 14 3.75 C 15.083333 3.75 15.826838 3.25 16.5 3.25 C 17.270833 3.25 17.816652 3.5300611 18.1875 3.9472656 C 18.558348 4.3644701 18.75 4.9305555 18.75 5.5 C 18.75 6.0694445 18.558348 6.6355299 18.1875 7.0527344 C 17.816652 7.4699389 17.270833 7.75 16.5 7.75 C 15.826838 7.75 15.083333 7.25 14 7.25 C 13.458333 7.25 13.063642 7.3867957 12.640625 7.5097656 C 12.217608 7.6327355 11.753291 7.75 11 7.75 C 10.246709 7.75 9.7823915 7.6327355 9.359375 7.5097656 C 8.9363585 7.3867957 8.5416667 7.25 8 7.25 C 6.9166667 7.25 6.1731624 7.75 5.5 7.75 C 4.7291671 7.75 4.1833483 7.4699389 3.8125 7.0527344 C 3.4416517 6.6355299 3.25 6.0694445 3.25 5.5 C 3.25 4.9305555 3.4416517 4.3644701 3.8125 3.9472656 C 4.1833483 3.5300611 4.7291671 3.25 5.5 3.25 C 6.1731624 3.25 6.9803943 3.75 8 3.75 C 8.2997043 3.75 8.5578201 3.6268576 8.7832031 3.4707031 C 9.0085861 3.3145486 9.2120218 3.1221534 9.4257812 2.9394531 C 9.8532998 2.5740526 10.300128 2.25 11 2.25 z M 8 7.75 C 8.4583333 7.75 8.7837196 7.8632043 9.2207031 7.9902344 C 9.6576866 8.1172645 10.193291 8.25 11 8.25 C 11.806709 8.25 12.342313 8.1172645 12.779297 7.9902344 C 13.21628 7.8632043 13.541667 7.75 14 7.75 C 14.916667 7.75 15.613162 8.25 16.5 8.25 C 16.585076 8.25 16.668424 8.2463112 16.75 8.2402344 L 16.75 11 L 16.75 17 L 16.75 20 C 16.75 20.969459 15.969459 21.75 15 21.75 L 7 21.75 C 6.0305405 21.75 5.25 20.969459 5.25 20 L 5.25 8.2402344 C 5.3315762 8.2463112 5.4149239 8.25 5.5 8.25 C 6.3868376 8.25 7.0833333 7.75 8 7.75 z M 17.25 11.25 L 18 11.25 C 18.9375 11.25 19.608318 11.592561 20.0625 12.103516 C 20.516682 12.61447 20.75 13.305556 20.75 14 C 20.75 14.694444 20.516682 15.38553 20.0625 15.896484 C 19.608318 16.407439 18.9375 16.75 18 16.75 L 17.25 16.75 L 17.25 11.25 z M 9 11.75 A 0.25 0.25 0 0 0 8.75 12 L 8.75 18 A 0.25 0.25 0 0 0 9 18.25 A 0.25 0.25 0 0 0 9.25 18 L 9.25 12 A 0.25 0.25 0 0 0 9 11.75 z M 13 11.75 A 0.25 0.25 0 0 0 12.75 12 L 12.75 18 A 0.25 0.25 0 0 0 13 18.25 A 0.25 0.25 0 0 0 13.25 18 L 13.25 12 A 0.25 0.25 0 0 0 13 11.75 z " />
</svg>
