<?xml version="1.0" encoding="UTF-8" standalone="no"?>
<svg
   width="24"
   height="24"
   viewBox="0 0 24 24"
   fill="none"
   stroke="currentColor"
   stroke-width="0.5"
   stroke-linecap="round"
   stroke-linejoin="round"
   version="1.1"
   id="svg6"
   sodipodi:docname=".tmp_binoculars.svg"
   xmlns:inkscape="http://www.inkscape.org/namespaces/inkscape"
   xmlns:sodipodi="http://sodipodi.sourceforge.net/DTD/sodipodi-0.dtd"
   xmlns="http://www.w3.org/2000/svg"
   xmlns:svg="http://www.w3.org/2000/svg">
  <defs
     id="defs6" />
  <sodipodi:namedview
     id="namedview6"
     pagecolor="#ffffff"
     bordercolor="#000000"
     borderopacity="0.25"
     inkscape:showpageshadow="2"
     inkscape:pageopacity="0.0"
     inkscape:pagecheckerboard="0"
     inkscape:deskcolor="#d1d1d1" />
  <path
     id="path1"
     style="baseline-shift:baseline;display:inline;overflow:visible;vector-effect:none;fill:#000000;stroke:none;stroke-linecap:butt;stroke-linejoin:miter;enable-background:accumulate;stop-color:#000000;stop-opacity:1;opacity:1"
     d="M 6 2.75 C 5.3126052 2.75 4.75 3.3126052 4.75 4 L 4.75 6.7753906 C 4.1812847 6.8920603 3.75 7.3981526 3.75 8 L 3.75 10.320312 C 3.75 11.164542 3.2841515 11.985858 2.7871094 12.78125 C 2.2900673 13.576642 1.75 14.333532 1.75 15.148438 L 1.75 19 C 1.75 20.23968 2.7603205 21.25 4 21.25 L 8 21.25 C 9.2396795 21.25 10.25 20.23968 10.25 19 L 10.25 16.25 L 13.75 16.25 L 13.75 19 C 13.75 20.23968 14.76032 21.25 16 21.25 L 20 21.25 C 21.23968 21.25 22.25 20.23968 22.25 19 L 22.25 15.148438 C 22.25 14.333533 21.709933 13.576642 21.212891 12.78125 C 20.715849 11.985858 20.25 11.164543 20.25 10.320312 L 20.25 8 C 20.25 7.3981526 19.818715 6.8920603 19.25 6.7753906 L 19.25 4 C 19.25 3.3126052 18.687395 2.75 18 2.75 L 16 2.75 C 15.312605 2.75 14.75 3.3126052 14.75 4 L 14.75 6.7753906 C 14.181285 6.8920603 13.75 7.3981526 13.75 8 L 13.75 9.75 L 10.25 9.75 L 10.25 8 C 10.25 7.3981526 9.8187153 6.8920603 9.25 6.7753906 L 9.25 4 C 9.25 3.3126052 8.6873948 2.75 8 2.75 L 6 2.75 z M 6 3.25 L 8 3.25 C 8.4171747 3.25 8.75 3.5828253 8.75 4 L 8.75 6.75 L 5.25 6.75 L 5.25 4 C 5.25 3.5828253 5.5828253 3.25 6 3.25 z M 16 3.25 L 18 3.25 C 18.417175 3.25 18.75 3.5828253 18.75 4 L 18.75 6.75 L 15.25 6.75 L 15.25 4 C 15.25 3.5828253 15.582825 3.25 16 3.25 z M 5 7.25 L 9 7.25 C 9.4171747 7.25 9.75 7.5828253 9.75 8 L 9.75 15.75 L 2.25 15.75 L 2.25 15.148438 C 2.25 14.573341 2.7099327 13.84978 3.2128906 13.044922 C 3.7158485 12.240063 4.25 11.343082 4.25 10.320312 L 4.25 8 C 4.25 7.5828253 4.5828253 7.25 5 7.25 z M 15 7.25 L 19 7.25 C 19.417175 7.25 19.75 7.5828253 19.75 8 L 19.75 10.320312 C 19.75 11.343082 20.284151 12.240063 20.787109 13.044922 C 21.290067 13.84978 21.75 14.573341 21.75 15.148438 L 21.75 15.75 L 14.25 15.75 L 14.25 8 C 14.25 7.5828253 14.582825 7.25 15 7.25 z M 10.25 10.25 L 13.75 10.25 L 13.75 15.75 L 10.25 15.75 L 10.25 10.25 z M 2.25 16.25 L 9.75 16.25 L 9.75 19 C 9.75 19.969459 8.9694595 20.75 8 20.75 L 4 20.75 C 3.0305405 20.75 2.25 19.969459 2.25 19 L 2.25 16.25 z M 14.25 16.25 L 21.75 16.25 L 21.75 19 C 21.75 19.969459 20.969459 20.75 20 20.75 L 16 20.75 C 15.030541 20.75 14.25 19.969459 14.25 19 L 14.25 16.25 z " />
</svg>
