<?xml version="1.0" encoding="UTF-8" standalone="no"?>
<svg
   width="24"
   height="24"
   viewBox="0 0 24 24"
   fill="none"
   stroke="currentColor"
   stroke-width="0.5"
   stroke-linecap="round"
   stroke-linejoin="round"
   version="1.1"
   id="svg11"
   sodipodi:docname=".tmp_book-dashed.svg"
   xmlns:inkscape="http://www.inkscape.org/namespaces/inkscape"
   xmlns:sodipodi="http://sodipodi.sourceforge.net/DTD/sodipodi-0.dtd"
   xmlns="http://www.w3.org/2000/svg"
   xmlns:svg="http://www.w3.org/2000/svg">
  <defs
     id="defs11" />
  <sodipodi:namedview
     id="namedview11"
     pagecolor="#ffffff"
     bordercolor="#000000"
     borderopacity="0.25"
     inkscape:showpageshadow="2"
     inkscape:pageopacity="0.0"
     inkscape:pagecheckerboard="0"
     inkscape:deskcolor="#d1d1d1" />
  <path
     id="path1"
     style="baseline-shift:baseline;display:inline;overflow:visible;vector-effect:none;fill:#000000;stroke:none;stroke-linecap:butt;stroke-linejoin:miter;enable-background:accumulate;stop-color:#000000;stop-opacity:1;opacity:1"
     d="M 6.5 1.75 C 4.9841781 1.75 3.75 2.9841781 3.75 4.5 A 0.25 0.25 0 0 0 4 4.75 A 0.25 0.25 0 0 0 4.25 4.5 C 4.25 3.2543982 5.2543982 2.25 6.5 2.25 L 8 2.25 A 0.25 0.25 0 0 0 8.25 2 A 0.25 0.25 0 0 0 8 1.75 L 6.5 1.75 z M 12 1.75 A 0.25 0.25 0 0 0 11.75 2 A 0.25 0.25 0 0 0 12 2.25 L 13.5 2.25 A 0.25 0.25 0 0 0 13.75 2 A 0.25 0.25 0 0 0 13.5 1.75 L 12 1.75 z M 17.5 1.75 A 0.25 0.25 0 0 0 17.25 2 A 0.25 0.25 0 0 0 17.5 2.25 L 19 2.25 C 19.417175 2.25 19.75 2.5828253 19.75 3 L 19.75 4.5 A 0.25 0.25 0 0 0 20 4.75 A 0.25 0.25 0 0 0 20.25 4.5 L 20.25 3 C 20.25 2.3126052 19.687395 1.75 19 1.75 L 17.5 1.75 z M 4 8.25 A 0.25 0.25 0 0 0 3.75 8.5 L 3.75 10 A 0.25 0.25 0 0 0 4 10.25 A 0.25 0.25 0 0 0 4.25 10 L 4.25 8.5 A 0.25 0.25 0 0 0 4 8.25 z M 20 8.25 A 0.25 0.25 0 0 0 19.75 8.5 L 19.75 10 A 0.25 0.25 0 0 0 20 10.25 A 0.25 0.25 0 0 0 20.25 10 L 20.25 8.5 A 0.25 0.25 0 0 0 20 8.25 z M 4 13.75 A 0.25 0.25 0 0 0 3.75 14 L 3.75 19.5 A 0.25 0.25 0 0 0 3.7519531 19.533203 C 3.7591436 20.202775 3.9825233 20.872916 4.4375 21.384766 C 4.8999847 21.905061 5.604167 22.25 6.5 22.25 L 8 22.25 A 0.25 0.25 0 0 0 8.25 22 A 0.25 0.25 0 0 0 8 21.75 L 6.5 21.75 C 5.7291671 21.75 5.1833483 21.469939 4.8125 21.052734 C 4.4416517 20.63553 4.25 20.069444 4.25 19.5 C 4.25 18.930556 4.4416517 18.36447 4.8125 17.947266 C 5.1833483 17.530061 5.7291671 17.25 6.5 17.25 L 8 17.25 A 0.25 0.25 0 0 0 8.25 17 A 0.25 0.25 0 0 0 8 16.75 L 6.5 16.75 C 5.604167 16.75 4.8999847 17.094939 4.4375 17.615234 C 4.3699464 17.691232 4.3074594 17.771056 4.25 17.853516 L 4.25 14 A 0.25 0.25 0 0 0 4 13.75 z M 20 13.75 A 0.25 0.25 0 0 0 19.75 14 L 19.75 16.75 L 17.5 16.75 A 0.25 0.25 0 0 0 17.25 17 A 0.25 0.25 0 0 0 17.5 17.25 L 20 17.25 A 0.250025 0.250025 0 0 0 20.25 17 L 20.25 14 A 0.25 0.25 0 0 0 20 13.75 z M 12 16.75 A 0.25 0.25 0 0 0 11.75 17 A 0.25 0.25 0 0 0 12 17.25 L 13.5 17.25 A 0.25 0.25 0 0 0 13.75 17 A 0.25 0.25 0 0 0 13.5 16.75 L 12 16.75 z M 20 20.75 A 0.25 0.25 0 0 0 19.75 21 C 19.75 21.417175 19.417175 21.75 19 21.75 L 17.5 21.75 A 0.25 0.25 0 0 0 17.25 22 A 0.25 0.25 0 0 0 17.5 22.25 L 19 22.25 C 19.687395 22.25 20.25 21.687395 20.25 21 A 0.25 0.25 0 0 0 20 20.75 z M 12 21.75 A 0.25 0.25 0 0 0 11.75 22 A 0.25 0.25 0 0 0 12 22.25 L 13.5 22.25 A 0.25 0.25 0 0 0 13.75 22 A 0.25 0.25 0 0 0 13.5 21.75 L 12 21.75 z " />
</svg>
