<?xml version="1.0" encoding="UTF-8" standalone="no"?>
<svg
   width="24"
   height="24"
   viewBox="0 0 24 24"
   fill="none"
   stroke="currentColor"
   stroke-width="0.5"
   stroke-linecap="round"
   stroke-linejoin="round"
   version="1.1"
   id="svg8"
   sodipodi:docname=".tmp_brain.svg"
   xmlns:inkscape="http://www.inkscape.org/namespaces/inkscape"
   xmlns:sodipodi="http://sodipodi.sourceforge.net/DTD/sodipodi-0.dtd"
   xmlns="http://www.w3.org/2000/svg"
   xmlns:svg="http://www.w3.org/2000/svg">
  <defs
     id="defs8" />
  <sodipodi:namedview
     id="namedview8"
     pagecolor="#ffffff"
     bordercolor="#000000"
     borderopacity="0.25"
     inkscape:showpageshadow="2"
     inkscape:pageopacity="0.0"
     inkscape:pagecheckerboard="0"
     inkscape:deskcolor="#d1d1d1" />
  <path
     id="path1"
     style="baseline-shift:baseline;display:inline;overflow:visible;vector-effect:none;fill:#000000;stroke:none;stroke-linecap:butt;stroke-linejoin:miter;enable-background:accumulate;stop-color:#000000;stop-opacity:1;opacity:1"
     d="M 8.9257812 1.75 C 8.6731483 1.7562588 8.4154692 1.792393 8.1582031 1.8613281 C 6.6999916 2.2520601 5.7836902 3.5533755 5.7519531 4.9355469 C 3.279237 5.6924723 2.0482308 8.4944058 3.1621094 10.826172 C 1.8666541 11.953982 1.5018241 13.634026 1.8945312 15.099609 C 2.1697349 16.126669 2.8207652 17.059288 3.765625 17.638672 C 3.5652521 19.993084 5.34264 22.081756 7.7246094 22.236328 C 9.7514173 22.367853 11.45086 21.02489 12 19.175781 C 12.54914 21.02489 14.248583 22.367853 16.275391 22.236328 C 18.657359 22.081756 20.434747 19.993084 20.234375 17.638672 C 21.179235 17.059288 21.830265 16.126669 22.105469 15.099609 C 22.498176 13.634026 22.133347 11.953982 20.837891 10.826172 C 21.95177 8.4944058 20.720763 5.6924721 18.248047 4.9355469 C 18.21631 3.5533755 17.300008 2.25206 15.841797 1.8613281 C 14.151584 1.4084308 12.544202 2.4093054 12 3.9511719 C 11.621463 2.8786781 10.762859 2.0514312 9.6660156 1.8183594 C 9.426001 1.7673579 9.1784142 1.7437412 8.9257812 1.75 z M 8.9414062 2.2480469 C 10.442561 2.2092279 11.750059 3.4122755 11.75 5 L 11.75 9 C 11.749 10.741588 10.601319 12.271119 8.9296875 12.759766 A 0.25 0.25 0 0 0 8.7597656 13.070312 A 0.25 0.25 0 0 0 9.0703125 13.240234 C 10.378505 12.857827 11.289446 11.862192 11.75 10.642578 L 11.75 18 C 11.7477 20.168633 9.9218921 21.878714 7.7578125 21.738281 C 5.7211862 21.606119 4.1932387 19.887217 4.2519531 17.892578 C 4.768624 18.119935 5.3541975 18.249972 6 18.25 A 0.25 0.25 0 0 0 6.25 18 A 0.25 0.25 0 0 0 6 17.75 C 5.3316111 17.749971 4.7412295 17.599603 4.2382812 17.339844 A 0.25 0.25 0 0 0 4.0644531 17.234375 A 0.25 0.25 0 0 0 4.046875 17.232422 C 3.1987962 16.724839 2.6264419 15.894506 2.3789062 14.970703 C 2.0201445 13.631804 2.3507275 12.120582 3.5898438 11.119141 C 3.5916516 11.11768 3.5938914 11.116693 3.5957031 11.115234 A 0.25 0.25 0 0 0 3.6679688 11.056641 C 3.8091354 10.94832 3.9612035 10.846532 4.125 10.751953 A 0.25 0.25 0 0 0 4.2167969 10.410156 A 0.25 0.25 0 0 0 3.875 10.320312 C 3.7684269 10.38185 3.6665317 10.446386 3.5683594 10.513672 C 2.6762392 8.5054082 3.7014024 6.1591727 5.78125 5.4511719 C 5.8366775 5.8507376 5.9684306 6.2489878 6.1855469 6.625 A 0.25 0.25 0 0 0 6.5273438 6.7167969 A 0.25 0.25 0 0 0 6.6191406 6.375 C 6.3943967 5.9857778 6.2764017 5.5712953 6.2519531 5.1601562 A 0.25 0.25 0 0 0 6.2480469 5.0683594 C 6.2166176 3.8521493 7.002586 2.688465 8.2890625 2.34375 C 8.5081509 2.2850447 8.7269556 2.2535924 8.9414062 2.2480469 z M 15.058594 2.2480469 C 15.273044 2.2535924 15.491849 2.2850447 15.710938 2.34375 C 16.997413 2.6884648 17.783382 3.8521499 17.751953 5.0683594 A 0.25 0.25 0 0 0 17.748047 5.1601562 C 17.723598 5.5712949 17.605603 5.9857782 17.380859 6.375 A 0.25 0.25 0 0 0 17.472656 6.7167969 A 0.25 0.25 0 0 0 17.814453 6.625 C 18.031569 6.2489882 18.163322 5.8507371 18.21875 5.4511719 C 20.298598 6.1591726 21.323761 8.5054082 20.431641 10.513672 C 20.333468 10.446386 20.231573 10.38185 20.125 10.320312 A 0.25 0.25 0 0 0 19.783203 10.410156 A 0.25 0.25 0 0 0 19.875 10.751953 C 20.03879 10.846529 20.190869 10.948324 20.332031 11.056641 A 0.25 0.25 0 0 0 20.404297 11.115234 A 0.25 0.25 0 0 0 20.410156 11.119141 C 21.649261 12.120582 21.979854 13.631809 21.621094 14.970703 C 21.373556 15.894508 20.801204 16.724839 19.953125 17.232422 A 0.25 0.25 0 0 0 19.935547 17.234375 A 0.25 0.25 0 0 0 19.761719 17.339844 C 19.25877 17.599603 18.668389 17.749971 18 17.75 A 0.25 0.25 0 0 0 17.75 18 A 0.25 0.25 0 0 0 18 18.25 C 18.645802 18.249972 19.231376 18.119935 19.748047 17.892578 C 19.806761 19.887217 18.278814 21.606119 16.242188 21.738281 C 14.078108 21.878714 12.252315 20.168633 12.25 18 L 12.25 10.642578 C 12.710554 11.862192 13.621495 12.857827 14.929688 13.240234 A 0.25 0.25 0 0 0 15.240234 13.070312 A 0.25 0.25 0 0 0 15.070312 12.759766 C 13.39868 12.271119 12.251044 10.741588 12.25 9 L 12.25 5 C 12.249941 3.4122755 13.557439 2.2092279 15.058594 2.2480469 z " />
</svg>
