<?xml version="1.0" encoding="UTF-8" standalone="no"?>
<svg
   width="24"
   height="24"
   viewBox="0 0 24 24"
   fill="none"
   stroke="currentColor"
   stroke-width="0.5"
   stroke-linecap="round"
   stroke-linejoin="round"
   version="1.1"
   id="svg2"
   sodipodi:docname=".tmp_chart-spline.svg"
   xmlns:inkscape="http://www.inkscape.org/namespaces/inkscape"
   xmlns:sodipodi="http://sodipodi.sourceforge.net/DTD/sodipodi-0.dtd"
   xmlns="http://www.w3.org/2000/svg"
   xmlns:svg="http://www.w3.org/2000/svg">
  <defs
     id="defs2" />
  <sodipodi:namedview
     id="namedview2"
     pagecolor="#ffffff"
     bordercolor="#000000"
     borderopacity="0.25"
     inkscape:showpageshadow="2"
     inkscape:pageopacity="0.0"
     inkscape:pagecheckerboard="0"
     inkscape:deskcolor="#d1d1d1" />
  <path
     id="path1"
     style="baseline-shift:baseline;display:inline;overflow:visible;vector-effect:none;fill:#000000;stroke:none;stroke-linecap:butt;stroke-linejoin:miter;enable-background:accumulate;stop-color:#000000;stop-opacity:1;opacity:1"
     d="M 3 2.75 A 0.25 0.25 0 0 0 2.75 3 L 2.75 19 C 2.75 20.23968 3.7603205 21.25 5 21.25 L 21 21.25 A 0.25 0.25 0 0 0 21.25 21 A 0.25 0.25 0 0 0 21 20.75 L 5 20.75 C 4.0305405 20.75 3.25 19.969459 3.25 19 L 3.25 3 A 0.25 0.25 0 0 0 3 2.75 z M 19.996094 4.75 A 0.25 0.25 0 0 0 19.757812 4.9394531 C 19.514946 5.9109195 18.891668 7.6533451 18.033203 9.125 C 17.60397 9.8608275 17.11631 10.529709 16.597656 11.003906 C 16.079003 11.478104 15.541667 11.75 15 11.75 C 14.5625 11.75 14.260116 11.597386 13.980469 11.345703 C 13.700822 11.094021 13.458984 10.736328 13.208984 10.361328 C 12.958984 9.9863282 12.700822 9.5940206 12.355469 9.2832031 C 12.010116 8.9723856 11.5625 8.75 11 8.75 C 10.291667 8.75 9.6886885 9.1108922 9.2050781 9.6445312 C 8.7214677 10.17817 8.3384793 10.888821 8.0195312 11.654297 C 7.3816348 13.185248 7.0054347 14.948964 6.7578125 15.939453 A 0.25 0.25 0 0 0 6.9394531 16.242188 A 0.25 0.25 0 0 0 7.2421875 16.060547 C 7.4945653 15.051036 7.868365 13.314752 8.4804688 11.845703 C 8.7865205 11.111179 9.1535323 10.44683 9.5761719 9.9804688 C 9.9988115 9.5141077 10.458333 9.25 11 9.25 C 11.4375 9.25 11.739884 9.4026144 12.019531 9.6542969 C 12.299178 9.9059794 12.541016 10.263672 12.791016 10.638672 C 13.041016 11.013672 13.299178 11.405979 13.644531 11.716797 C 13.989884 12.027614 14.4375 12.25 15 12.25 C 15.708333 12.25 16.358497 11.896896 16.933594 11.371094 C 17.50869 10.845291 18.02103 10.139173 18.466797 9.375 C 19.358332 7.8466549 19.985054 6.0890805 20.242188 5.0605469 A 0.25 0.25 0 0 0 20.060547 4.7578125 A 0.25 0.25 0 0 0 19.996094 4.75 z " />
</svg>
