<?xml version="1.0" encoding="UTF-8" standalone="no"?>
<svg
   width="24"
   height="24"
   viewBox="0 0 24 24"
   fill="none"
   stroke="currentColor"
   stroke-width="0.5"
   stroke-linecap="round"
   stroke-linejoin="round"
   version="1.1"
   id="svg5"
   sodipodi:docname=".tmp_chart-candlestick.svg"
   xmlns:inkscape="http://www.inkscape.org/namespaces/inkscape"
   xmlns:sodipodi="http://sodipodi.sourceforge.net/DTD/sodipodi-0.dtd"
   xmlns="http://www.w3.org/2000/svg"
   xmlns:svg="http://www.w3.org/2000/svg">
  <defs
     id="defs5" />
  <sodipodi:namedview
     id="namedview5"
     pagecolor="#ffffff"
     bordercolor="#000000"
     borderopacity="0.25"
     inkscape:showpageshadow="2"
     inkscape:pageopacity="0.0"
     inkscape:pagecheckerboard="0"
     inkscape:deskcolor="#d1d1d1" />
  <path
     id="path1"
     style="baseline-shift:baseline;display:inline;overflow:visible;vector-effect:none;fill:#000000;stroke:none;stroke-linecap:butt;stroke-linejoin:miter;enable-background:accumulate;stop-color:#000000;stop-opacity:1;opacity:1"
     d="M 3 2.75 A 0.25 0.25 0 0 0 2.75 3 L 2.75 19 C 2.75 20.23968 3.7603205 21.25 5 21.25 L 21 21.25 A 0.25 0.25 0 0 0 21.25 21 A 0.25 0.25 0 0 0 21 20.75 L 5 20.75 C 4.0305405 20.75 3.25 19.969459 3.25 19 L 3.25 3 A 0.25 0.25 0 0 0 3 2.75 z M 17 2.75 A 0.25 0.25 0 0 0 16.75 3 L 16.75 4.75 L 16 4.75 C 15.311824 4.75 14.75 5.3118243 14.75 6 L 14.75 12 C 14.75 12.688176 15.311824 13.25 16 13.25 L 16.75 13.25 L 16.75 16 A 0.25 0.25 0 0 0 17 16.25 A 0.25 0.25 0 0 0 17.25 16 L 17.25 13.25 L 18 13.25 C 18.688176 13.25 19.25 12.688176 19.25 12 L 19.25 6 C 19.25 5.3118243 18.688176 4.75 18 4.75 L 17.25 4.75 L 17.25 3 A 0.25 0.25 0 0 0 17 2.75 z M 9 4.75 A 0.25 0.25 0 0 0 8.75 5 L 8.75 8.75 L 8 8.75 C 7.3118243 8.75 6.75 9.3118243 6.75 10 L 6.75 14 C 6.75 14.688176 7.3118243 15.25 8 15.25 L 8.75 15.25 L 8.75 17 A 0.25 0.25 0 0 0 9 17.25 A 0.25 0.25 0 0 0 9.25 17 L 9.25 15.25 L 10 15.25 C 10.688176 15.25 11.25 14.688176 11.25 14 L 11.25 10 C 11.25 9.3118243 10.688176 8.75 10 8.75 L 9.25 8.75 L 9.25 5 A 0.25 0.25 0 0 0 9 4.75 z M 16 5.25 L 18 5.25 C 18.419824 5.25 18.75 5.5801757 18.75 6 L 18.75 12 C 18.75 12.419824 18.419824 12.75 18 12.75 L 16 12.75 C 15.580176 12.75 15.25 12.419824 15.25 12 L 15.25 6 C 15.25 5.5801757 15.580176 5.25 16 5.25 z M 8 9.25 L 10 9.25 C 10.419824 9.25 10.75 9.5801757 10.75 10 L 10.75 14 C 10.75 14.419824 10.419824 14.75 10 14.75 L 8 14.75 C 7.5801757 14.75 7.25 14.419824 7.25 14 L 7.25 10 C 7.25 9.5801757 7.5801757 9.25 8 9.25 z " />
</svg>
