<?xml version="1.0" encoding="UTF-8" standalone="no"?>
<svg
   width="24"
   height="24"
   viewBox="0 0 24 24"
   fill="none"
   stroke="currentColor"
   stroke-width="0.5"
   stroke-linecap="round"
   stroke-linejoin="round"
   version="1.1"
   id="svg6"
   sodipodi:docname=".tmp_cigarette-off.svg"
   xmlns:inkscape="http://www.inkscape.org/namespaces/inkscape"
   xmlns:sodipodi="http://sodipodi.sourceforge.net/DTD/sodipodi-0.dtd"
   xmlns="http://www.w3.org/2000/svg"
   xmlns:svg="http://www.w3.org/2000/svg">
  <defs
     id="defs6" />
  <sodipodi:namedview
     id="namedview6"
     pagecolor="#ffffff"
     bordercolor="#000000"
     borderopacity="0.25"
     inkscape:showpageshadow="2"
     inkscape:pageopacity="0.0"
     inkscape:pagecheckerboard="0"
     inkscape:deskcolor="#d1d1d1" />
  <path
     id="path1"
     style="baseline-shift:baseline;display:inline;overflow:visible;vector-effect:none;fill:#000000;stroke:none;stroke-linecap:butt;stroke-linejoin:miter;enable-background:accumulate;stop-color:#000000;stop-opacity:1;opacity:1"
     d="M 2 1.7480469 A 0.25 0.25 0 0 0 1.8222656 1.8222656 A 0.25 0.25 0 0 0 1.8222656 2.1777344 L 11.394531 11.75 L 7 11.75 L 3 11.75 C 2.3126052 11.75 1.75 12.312605 1.75 13 L 1.75 15 C 1.75 15.687395 2.3126052 16.25 3 16.25 L 7 16.25 L 15.894531 16.25 L 21.822266 22.177734 A 0.25 0.25 0 0 0 22.177734 22.177734 A 0.25 0.25 0 0 0 22.177734 21.822266 L 2.1777344 1.8222656 A 0.25 0.25 0 0 0 2 1.7480469 z M 16 2.75 A 0.25 0.25 0 0 0 15.75 3 C 15.75 4.3166667 16.304688 5.03125 16.804688 5.65625 C 17.304688 6.28125 17.75 6.8166667 17.75 8 A 0.25 0.25 0 0 0 18 8.25 A 0.25 0.25 0 0 0 18.25 8 C 18.25 6.6833333 17.695312 5.96875 17.195312 5.34375 C 16.695312 4.71875 16.25 4.1833333 16.25 3 A 0.25 0.25 0 0 0 16 2.75 z M 20 2.75 A 0.25 0.25 0 0 0 19.75 3 C 19.75 4.3166667 20.304688 5.03125 20.804688 5.65625 C 21.304688 6.28125 21.75 6.8166667 21.75 8 A 0.25 0.25 0 0 0 22 8.25 A 0.25 0.25 0 0 0 22.25 8 C 22.25 6.6833333 21.695313 5.96875 21.195312 5.34375 C 20.695312 4.71875 20.25 4.1833333 20.25 3 A 0.25 0.25 0 0 0 20 2.75 z M 21 11.75 A 0.25 0.25 0 0 0 20.75 12 A 0.25 0.25 0 0 0 21 12.25 C 21.417175 12.25 21.75 12.582825 21.75 13 L 21.75 15 C 21.749993 15.268343 21.607392 15.516219 21.375 15.650391 A 0.25 0.25 0 0 0 21.283203 15.990234 A 0.25 0.25 0 0 0 21.625 16.082031 C 22.011397 15.858943 22.249989 15.44617 22.25 15 L 22.25 13 C 22.25 12.312605 21.687395 11.75 21 11.75 z M 3 12.25 L 6.75 12.25 L 6.75 15.75 L 3 15.75 C 2.5828253 15.75 2.25 15.417175 2.25 15 L 2.25 13 C 2.25 12.582825 2.5828253 12.25 3 12.25 z M 7.25 12.25 L 11.894531 12.25 L 15.394531 15.75 L 7.25 15.75 L 7.25 12.25 z " />
</svg>
