<?xml version="1.0" encoding="UTF-8" standalone="no"?>
<svg
   width="24"
   height="24"
   viewBox="0 0 24 24"
   fill="none"
   stroke="currentColor"
   stroke-width="0.5"
   stroke-linecap="round"
   stroke-linejoin="round"
   version="1.1"
   id="svg3"
   sodipodi:docname=".tmp_circle-pound-sterling.svg"
   xmlns:inkscape="http://www.inkscape.org/namespaces/inkscape"
   xmlns:sodipodi="http://sodipodi.sourceforge.net/DTD/sodipodi-0.dtd"
   xmlns="http://www.w3.org/2000/svg"
   xmlns:svg="http://www.w3.org/2000/svg">
  <defs
     id="defs3" />
  <sodipodi:namedview
     id="namedview3"
     pagecolor="#ffffff"
     bordercolor="#000000"
     borderopacity="0.25"
     inkscape:showpageshadow="2"
     inkscape:pageopacity="0.0"
     inkscape:pagecheckerboard="0"
     inkscape:deskcolor="#d1d1d1" />
  <path
     id="path1"
     style="baseline-shift:baseline;display:inline;overflow:visible;vector-effect:none;fill:#000000;stroke:none;stroke-linecap:butt;stroke-linejoin:miter;enable-background:accumulate;stop-color:#000000;stop-opacity:1;opacity:1"
     d="M 12 1.75 C 6.3420425 1.75 1.75 6.3420425 1.75 12 C 1.75 17.657958 6.3420425 22.25 12 22.25 C 17.657958 22.25 22.25 17.657958 22.25 12 C 22.25 6.3420425 17.657958 1.75 12 1.75 z M 12 2.25 C 17.387737 2.25 21.75 6.6122625 21.75 12 C 21.75 17.387737 17.387737 21.75 12 21.75 C 6.6122625 21.75 2.25 17.387737 2.25 12 C 2.25 6.6122625 6.6122625 2.25 12 2.25 z M 12.5 6.75 C 11.819444 6.75 11.13553 6.9750153 10.615234 7.4375 C 10.094939 7.8999847 9.75 8.604167 9.75 9.5 L 9.75 11.75 L 8 11.75 A 0.25 0.25 0 0 0 7.75 12 A 0.25 0.25 0 0 0 8 12.25 L 9.75 12.25 L 9.75 15.75 L 8 15.75 A 0.25 0.25 0 0 0 7.75 16 A 0.25 0.25 0 0 0 8 16.25 L 15 16.25 A 0.25 0.25 0 0 0 15.25 16 A 0.25 0.25 0 0 0 15 15.75 L 10.25 15.75 L 10.25 12.25 L 12 12.25 A 0.25 0.25 0 0 0 12.25 12 A 0.25 0.25 0 0 0 12 11.75 L 10.25 11.75 L 10.25 9.5 C 10.25 8.7291671 10.530061 8.1833483 10.947266 7.8125 C 11.36447 7.4416517 11.930556 7.25 12.5 7.25 C 13.069444 7.25 13.63553 7.4416517 14.052734 7.8125 C 14.469939 8.1833483 14.75 8.7291671 14.75 9.5 A 0.25 0.25 0 0 0 15 9.75 A 0.25 0.25 0 0 0 15.25 9.5 C 15.25 8.604167 14.905061 7.8999847 14.384766 7.4375 C 13.86447 6.9750153 13.180556 6.75 12.5 6.75 z " />
</svg>
