<?xml version="1.0" encoding="UTF-8" standalone="no"?>
<svg
   width="24"
   height="24"
   viewBox="0 0 24 24"
   fill="none"
   stroke="currentColor"
   stroke-width="0.5"
   stroke-linecap="round"
   stroke-linejoin="round"
   version="1.1"
   id="svg4"
   sodipodi:docname=".tmp_component.svg"
   xmlns:inkscape="http://www.inkscape.org/namespaces/inkscape"
   xmlns:sodipodi="http://sodipodi.sourceforge.net/DTD/sodipodi-0.dtd"
   xmlns="http://www.w3.org/2000/svg"
   xmlns:svg="http://www.w3.org/2000/svg">
  <defs
     id="defs4" />
  <sodipodi:namedview
     id="namedview4"
     pagecolor="#ffffff"
     bordercolor="#000000"
     borderopacity="0.25"
     inkscape:showpageshadow="2"
     inkscape:pageopacity="0.0"
     inkscape:pagecheckerboard="0"
     inkscape:deskcolor="#d1d1d1" />
  <path
     id="path1"
     style="baseline-shift:baseline;display:inline;overflow:visible;vector-effect:none;fill:#000000;stroke:none;stroke-linecap:butt;stroke-linejoin:miter;enable-background:accumulate;stop-color:#000000;stop-opacity:1;opacity:1"
     d="M 12 1.7558594 C 11.679633 1.7558594 11.360203 1.8781508 11.117188 2.1210938 L 8.7382812 4.4980469 C 8.2523954 4.9840795 8.2523954 5.7795924 8.7382812 6.265625 A 0.250025 0.250025 0 0 0 8.7402344 6.265625 L 11.117188 8.640625 C 11.603219 9.1265109 12.39678 9.1265109 12.882812 8.640625 L 15.259766 6.265625 A 0.250025 0.250025 0 0 0 15.261719 6.265625 C 15.747605 5.7795924 15.747605 4.9840795 15.261719 4.4980469 L 12.882812 2.1210938 C 12.639795 1.8781507 12.320367 1.7558594 12 1.7558594 z M 12 2.2539062 C 12.190907 2.2539062 12.381813 2.3271704 12.529297 2.4746094 L 14.90625 4.8515625 C 15.201128 5.1465296 15.201128 5.6171423 14.90625 5.9121094 L 12.529297 8.2871094 C 12.23433 8.5819874 11.76567 8.5819874 11.470703 8.2871094 L 9.09375 5.9121094 C 8.798872 5.6171423 8.798872 5.1465296 9.09375 4.8515625 L 11.470703 2.4746094 C 11.618187 2.3271704 11.809093 2.2539062 12 2.2539062 z M 5.3808594 8.375 C 5.0604925 8.375 4.7410632 8.4953382 4.4980469 8.7382812 L 2.1210938 11.117188 C 1.6352079 11.603219 1.6352079 12.39678 2.1210938 12.882812 L 4.4980469 15.261719 C 4.9840795 15.747605 5.7795924 15.747605 6.265625 15.261719 L 8.6425781 12.882812 C 9.128464 12.396779 9.128464 11.60322 8.6425781 11.117188 L 6.265625 8.7382812 C 6.0226087 8.4953382 5.7012262 8.375 5.3808594 8.375 z M 18.619141 8.375 C 18.298774 8.375 17.977391 8.4953382 17.734375 8.7382812 A 0.250025 0.250025 0 0 0 17.734375 8.7402344 L 15.359375 11.117188 C 14.873489 11.603219 14.873489 12.39678 15.359375 12.882812 L 17.734375 15.259766 A 0.250025 0.250025 0 0 0 17.734375 15.261719 C 18.220408 15.747605 19.015921 15.747605 19.501953 15.261719 L 21.878906 12.882812 C 22.364792 12.396779 22.364792 11.603219 21.878906 11.117188 L 19.501953 8.7382812 C 19.258937 8.4953382 18.939507 8.375 18.619141 8.375 z M 5.3828125 8.8730469 C 5.5742075 8.8730469 5.7646258 8.946311 5.9121094 9.09375 L 8.2890625 11.470703 C 8.5839405 11.76567 8.5839405 12.23433 8.2890625 12.529297 L 5.9121094 14.90625 C 5.6171423 15.201128 5.1465296 15.201128 4.8515625 14.90625 L 2.4746094 12.529297 C 2.1797314 12.23433 2.1797314 11.76567 2.4746094 11.470703 L 4.8515625 9.09375 C 4.9990461 8.946311 5.1914175 8.8730469 5.3828125 8.8730469 z M 18.617188 8.8730469 C 18.808582 8.8730469 19.000954 8.946311 19.148438 9.09375 L 21.525391 11.470703 C 21.820269 11.76567 21.820269 12.23433 21.525391 12.529297 L 19.148438 14.90625 C 18.853471 15.201128 18.382858 15.201128 18.087891 14.90625 L 15.712891 12.529297 C 15.418013 12.23433 15.418013 11.76567 15.712891 11.470703 L 18.087891 9.09375 C 18.235374 8.946311 18.425793 8.8730469 18.617188 8.8730469 z M 12 14.994141 C 11.679633 14.994141 11.360203 15.116432 11.117188 15.359375 L 8.7402344 17.734375 C 8.2535256 18.220543 8.2535256 19.017739 8.7402344 19.503906 L 11.117188 21.878906 C 11.603219 22.364792 12.39678 22.364792 12.882812 21.878906 L 15.259766 19.503906 C 15.746474 19.017739 15.746474 18.220543 15.259766 17.734375 L 12.882812 15.359375 C 12.639795 15.116432 12.320367 14.994141 12 14.994141 z M 12 15.492188 C 12.190907 15.492188 12.381813 15.565452 12.529297 15.712891 L 14.908203 18.087891 A 0.250025 0.250025 0 0 0 14.908203 18.089844 C 15.203592 18.384904 15.203592 18.85533 14.908203 19.150391 L 12.529297 21.525391 C 12.23433 21.820269 11.76567 21.820269 11.470703 21.525391 L 9.0917969 19.150391 C 8.7964079 18.85533 8.7964079 18.384904 9.0917969 18.089844 A 0.250025 0.250025 0 0 0 9.0917969 18.087891 L 11.470703 15.712891 C 11.618187 15.565452 11.809093 15.492188 12 15.492188 z " />
</svg>
