<?xml version="1.0" encoding="UTF-8" standalone="no"?>
<svg
   width="24"
   height="24"
   viewBox="0 0 24 24"
   fill="none"
   stroke="currentColor"
   stroke-width="0.5"
   stroke-linecap="round"
   stroke-linejoin="round"
   version="1.1"
   id="svg5"
   sodipodi:docname=".tmp_container.svg"
   xmlns:inkscape="http://www.inkscape.org/namespaces/inkscape"
   xmlns:sodipodi="http://sodipodi.sourceforge.net/DTD/sodipodi-0.dtd"
   xmlns="http://www.w3.org/2000/svg"
   xmlns:svg="http://www.w3.org/2000/svg">
  <defs
     id="defs5" />
  <sodipodi:namedview
     id="namedview5"
     pagecolor="#ffffff"
     bordercolor="#000000"
     borderopacity="0.25"
     inkscape:showpageshadow="2"
     inkscape:pageopacity="0.0"
     inkscape:pagecheckerboard="0"
     inkscape:deskcolor="#d1d1d1" />
  <path
     id="path1"
     style="baseline-shift:baseline;display:inline;overflow:visible;vector-effect:none;fill:#000000;stroke:none;stroke-linecap:butt;stroke-linejoin:miter;enable-background:accumulate;stop-color:#000000;stop-opacity:1;opacity:1"
     d="M 14.050781 1.8261719 C 13.714844 1.8261719 13.377844 1.9105449 13.076172 2.0820312 A 0.250025 0.250025 0 0 0 13.074219 2.0839844 L 2.7890625 8.0742188 C 2.4182463 8.2282008 2.1131942 8.5374518 1.9316406 8.9140625 A 0.25 0.25 0 0 0 1.8867188 8.96875 A 0.25 0.25 0 0 0 1.8496094 9.1113281 C 1.7848808 9.2980342 1.75 9.4975005 1.75 9.6992188 L 1.75 16.300781 C 1.75 16.617448 1.8670166 16.943046 2.03125 17.244141 C 2.1954834 17.545235 2.407724 17.818 2.6503906 18 A 0.250025 0.250025 0 0 0 2.6679688 18.011719 L 8.96875 21.912109 A 0.250025 0.250025 0 0 0 8.9765625 21.917969 C 9.5799077 22.260941 10.320483 22.260941 10.923828 21.917969 A 0.250025 0.250025 0 0 0 10.925781 21.916016 L 21.226562 15.916016 A 0.250025 0.250025 0 0 0 21.228516 15.914062 C 21.526855 15.735058 21.772966 15.457228 21.953125 15.152344 C 22.133194 14.847513 22.25 14.515885 22.25 14.199219 L 22.25 7.6992188 C 22.25 7.493848 22.21334 7.2936691 22.150391 7.1054688 A 0.25 0.25 0 0 0 22.117188 6.9746094 A 0.25 0.25 0 0 0 22.082031 6.9257812 C 21.91281 6.5402666 21.636084 6.214856 21.349609 6 A 0.250025 0.250025 0 0 0 21.332031 5.9882812 L 15.03125 2.0878906 A 0.250025 0.250025 0 0 0 15.023438 2.0820312 C 14.721752 1.9105459 14.386718 1.8261719 14.050781 1.8261719 z M 14.050781 2.3261719 C 14.301367 2.3261719 14.551952 2.3894543 14.777344 2.5175781 L 21.050781 6.4003906 L 21.050781 6.4023438 C 21.23038 6.5374013 21.417129 6.7596799 21.552734 7.0117188 L 10.003906 13.708984 L 2.4550781 9.0253906 C 2.5947017 8.7971466 2.7902738 8.6120155 2.9921875 8.53125 A 0.250025 0.250025 0 0 0 3.0253906 8.515625 L 13.324219 2.5175781 C 13.54961 2.3894543 13.800196 2.3261719 14.050781 2.3261719 z M 21.728516 7.4882812 C 21.742052 7.5592827 21.75 7.629888 21.75 7.6992188 L 21.75 14.199219 C 21.75 14.382552 21.66633 14.653322 21.521484 14.898438 C 21.376643 15.143553 21.172364 15.365332 20.970703 15.486328 L 18.25 17.070312 L 18.25 9.5058594 L 21.728516 7.4882812 z M 2.2695312 9.4980469 L 9.75 14.138672 L 9.75 21.660156 C 9.5672836 21.635163 9.3881763 21.576512 9.2226562 21.482422 L 2.9492188 17.599609 L 2.9472656 17.597656 C 2.7902803 17.479342 2.6040283 17.25387 2.46875 17.005859 C 2.3329834 16.756954 2.25 16.484115 2.25 16.300781 L 2.25 9.6992188 C 2.25 9.6327499 2.2570835 9.5648583 2.2695312 9.4980469 z M 17.75 9.7949219 L 17.75 17.361328 L 14.25 19.400391 L 14.25 11.824219 L 17.75 9.7949219 z M 13.75 12.115234 L 13.75 19.691406 L 10.675781 21.482422 C 10.541062 21.559003 10.397341 21.61177 10.25 21.642578 L 10.25 14.144531 L 13.75 12.115234 z " />
</svg>
