<?xml version="1.0" encoding="UTF-8" standalone="no"?>
<svg
   width="24"
   height="24"
   viewBox="0 0 24 24"
   fill="none"
   stroke="currentColor"
   stroke-width="0.5"
   stroke-linecap="round"
   stroke-linejoin="round"
   version="1.1"
   id="svg2"
   sodipodi:docname=".tmp_corner-down-right.svg"
   xmlns:inkscape="http://www.inkscape.org/namespaces/inkscape"
   xmlns:sodipodi="http://sodipodi.sourceforge.net/DTD/sodipodi-0.dtd"
   xmlns="http://www.w3.org/2000/svg"
   xmlns:svg="http://www.w3.org/2000/svg">
  <defs
     id="defs2" />
  <sodipodi:namedview
     id="namedview2"
     pagecolor="#ffffff"
     bordercolor="#000000"
     borderopacity="0.25"
     inkscape:showpageshadow="2"
     inkscape:pageopacity="0.0"
     inkscape:pagecheckerboard="0"
     inkscape:deskcolor="#d1d1d1" />
  <path
     id="path1"
     style="baseline-shift:baseline;display:inline;overflow:visible;vector-effect:none;fill:#000000;stroke:none;stroke-linecap:butt;stroke-linejoin:miter;enable-background:accumulate;stop-color:#000000;stop-opacity:1;opacity:1"
     d="M 4 3.75 A 0.25 0.25 0 0 0 3.75 4 L 3.75 11 C 3.75 13.344249 5.655751 15.25 8 15.25 L 19.394531 15.25 L 14.822266 19.822266 A 0.25 0.25 0 0 0 14.822266 20.177734 A 0.25 0.25 0 0 0 15.177734 20.177734 L 20.177734 15.177734 A 0.250025 0.250025 0 0 0 20.199219 15.152344 A 0.250025 0.250025 0 0 0 20.199219 14.847656 A 0.250025 0.250025 0 0 0 20.177734 14.822266 L 15.177734 9.8222656 A 0.25 0.25 0 0 0 14.822266 9.8222656 A 0.25 0.25 0 0 0 14.822266 10.177734 L 19.394531 14.75 L 8 14.75 C 5.925971 14.75 4.25 13.074029 4.25 11 L 4.25 4 A 0.25 0.25 0 0 0 4 3.75 z " />
</svg>
