<?xml version="1.0" encoding="UTF-8" standalone="no"?>
<svg
   width="24"
   height="24"
   viewBox="0 0 24 24"
   fill="none"
   stroke="currentColor"
   stroke-width="0.5"
   stroke-linecap="round"
   stroke-linejoin="round"
   version="1.1"
   id="svg4"
   sodipodi:docname=".tmp_database-zap.svg"
   xmlns:inkscape="http://www.inkscape.org/namespaces/inkscape"
   xmlns:sodipodi="http://sodipodi.sourceforge.net/DTD/sodipodi-0.dtd"
   xmlns="http://www.w3.org/2000/svg"
   xmlns:svg="http://www.w3.org/2000/svg">
  <defs
     id="defs4" />
  <sodipodi:namedview
     id="namedview4"
     pagecolor="#ffffff"
     bordercolor="#000000"
     borderopacity="0.25"
     inkscape:showpageshadow="2"
     inkscape:pageopacity="0.0"
     inkscape:pagecheckerboard="0"
     inkscape:deskcolor="#d1d1d1" />
  <path
     id="ellipse1"
     style="baseline-shift:baseline;display:inline;overflow:visible;vector-effect:none;fill:#000000;stroke:none;stroke-linecap:butt;stroke-linejoin:miter;enable-background:accumulate;stop-color:#000000;stop-opacity:1;opacity:1"
     d="M 12 1.75 C 9.4922003 1.75 7.2215113 2.0856681 5.5566406 2.640625 C 4.7242053 2.9181035 4.0429351 3.2503971 3.5527344 3.6367188 C 3.0743977 4.0136904 2.766638 4.4623908 2.7519531 4.9628906 A 0.25 0.25 0 0 0 2.7519531 4.9667969 C 2.7516611 4.9779148 2.75 4.9888311 2.75 5 L 2.75 12 L 2.75 19 C 2.74348 19.641905 3.2049051 20.188669 3.90625 20.628906 C 4.6082802 21.069574 5.5802048 21.42848 6.7324219 21.701172 C 9.0368561 22.246555 12.063826 22.437383 15.029297 22.087891 A 0.25 0.25 0 0 0 15.248047 21.810547 A 0.25 0.25 0 0 0 14.970703 21.591797 C 12.065904 21.934139 9.0816635 21.743559 6.8476562 21.214844 C 5.7306526 20.950486 4.8003618 20.599582 4.171875 20.205078 C 3.5433882 19.810574 3.2454255 19.396957 3.25 19.001953 A 0.250025 0.250025 0 0 0 3.25 19 L 3.25 13.09375 C 3.4209085 13.271069 3.6297489 13.435412 3.8671875 13.587891 C 4.5394464 14.019603 5.4670481 14.374756 6.5722656 14.648438 C 8.7827007 15.195801 11.700663 15.411074 14.615234 15.119141 A 0.25 0.25 0 0 0 14.837891 14.845703 A 0.25 0.25 0 0 0 14.564453 14.621094 C 11.707386 14.907267 8.8334624 14.692057 6.6933594 14.162109 C 5.6233079 13.897135 4.7363487 13.551087 4.1367188 13.166016 C 3.5370889 12.780944 3.2511801 12.381756 3.25 12 L 3.25 6.0917969 C 3.3408644 6.1862207 3.44229 6.2762413 3.5527344 6.3632812 C 4.0429351 6.7496028 4.7242053 7.0818965 5.5566406 7.359375 C 7.2215113 7.9143319 9.4922003 8.25 12 8.25 C 14.5078 8.25 16.778489 7.9143319 18.443359 7.359375 C 19.275795 7.0818965 19.957065 6.7496028 20.447266 6.3632812 C 20.55771 6.2762413 20.659136 6.1862207 20.75 6.0917969 L 20.75 8 A 0.25 0.25 0 0 0 21 8.25 A 0.25 0.25 0 0 0 21.25 8 L 21.25 5 C 21.25 4.4844539 20.937466 4.0230402 20.447266 3.6367188 C 19.957065 3.2503971 19.275795 2.9181035 18.443359 2.640625 C 16.778489 2.0856681 14.5078 1.75 12 1.75 z M 12 2.25 C 14.462763 2.25 16.692668 2.5844048 18.285156 3.1152344 C 19.081401 3.3806491 19.718023 3.6977883 20.138672 4.0292969 C 20.559321 4.3608054 20.75 4.687119 20.75 5 C 20.75 5.312881 20.559321 5.6391946 20.138672 5.9707031 C 19.718023 6.3022117 19.081401 6.6193509 18.285156 6.8847656 C 16.692668 7.4155952 14.462763 7.75 12 7.75 C 9.537237 7.75 7.3073324 7.4155952 5.7148438 6.8847656 C 4.9185994 6.6193509 4.281977 6.3022117 3.8613281 5.9707031 C 3.4406792 5.6391946 3.25 5.312881 3.25 5 C 3.25 4.687119 3.4406792 4.3608054 3.8613281 4.0292969 C 4.281977 3.6977883 4.9185994 3.3806491 5.7148438 3.1152344 C 7.3073324 2.5844048 9.537237 2.25 12 2.25 z M 20.970703 11.75 A 0.25 0.25 0 0 0 20.785156 11.871094 L 17.785156 16.871094 A 0.250025 0.250025 0 0 0 18 17.25 L 21.558594 17.25 L 18.785156 21.871094 A 0.25 0.25 0 0 0 18.871094 22.214844 A 0.25 0.25 0 0 0 19.214844 22.128906 L 22.214844 17.128906 A 0.250025 0.250025 0 0 0 22 16.75 L 18.441406 16.75 L 21.214844 12.128906 A 0.25 0.25 0 0 0 21.128906 11.785156 A 0.25 0.25 0 0 0 20.970703 11.75 z " />
</svg>
