<?xml version="1.0" encoding="UTF-8" standalone="no"?>
<svg
   width="24"
   height="24"
   viewBox="0 0 24 24"
   fill="none"
   stroke="currentColor"
   stroke-width="0.5"
   stroke-linecap="round"
   stroke-linejoin="round"
   version="1.1"
   id="svg2"
   sodipodi:docname=".tmp_dessert.svg"
   xmlns:inkscape="http://www.inkscape.org/namespaces/inkscape"
   xmlns:sodipodi="http://sodipodi.sourceforge.net/DTD/sodipodi-0.dtd"
   xmlns="http://www.w3.org/2000/svg"
   xmlns:svg="http://www.w3.org/2000/svg">
  <defs
     id="defs2" />
  <sodipodi:namedview
     id="namedview2"
     pagecolor="#ffffff"
     bordercolor="#000000"
     borderopacity="0.25"
     inkscape:showpageshadow="2"
     inkscape:pageopacity="0.0"
     inkscape:pagecheckerboard="0"
     inkscape:deskcolor="#d1d1d1" />
  <path
     id="path1"
     style="baseline-shift:baseline;display:inline;overflow:visible;vector-effect:none;fill:#000000;stroke:none;stroke-linecap:butt;stroke-linejoin:miter;enable-background:accumulate;stop-color:#000000;stop-opacity:1;opacity:1"
     d="M 12 1.75 C 11.142792 1.75 10.3953 2.2334636 10.015625 2.9414062 C 5.2171694 3.8873354 1.7483519 8.0997891 1.75 13 C 1.75 13.729166 2.0324389 14.308349 2.4589844 14.6875 C 2.6151958 14.826354 2.7895579 14.938447 2.9746094 15.025391 C 4.0425699 19.821171 8.0299005 22.25 12 22.25 C 15.971295 22.25 19.960821 19.820134 21.027344 15.021484 C 21.212761 14.934206 21.386449 14.82119 21.542969 14.681641 C 21.968945 14.301849 22.251094 13.723307 22.25 12.994141 C 22.248311 8.0969519 18.779793 3.8872638 13.984375 2.9414062 C 13.604702 2.2334571 12.857212 1.75 12 1.75 z M 12 2.25 C 12.969459 2.25 13.75 3.0305405 13.75 4 C 13.75 4.9694595 12.969459 5.75 12 5.75 C 11.030541 5.75 10.25 4.9694595 10.25 4 C 10.25 3.0305405 11.030541 2.25 12 2.25 z M 9.8066406 3.4960938 C 9.7692565 3.6583562 9.75 3.8266297 9.75 4 C 9.75 5.2396795 10.76032 6.25 12 6.25 C 13.23968 6.25 14.25 5.2396795 14.25 4 C 14.25 3.8273791 14.23043 3.6596649 14.193359 3.4980469 C 18.598658 4.5129304 21.748428 8.4374009 21.75 12.994141 C 21.750906 13.598307 21.533962 14.020594 21.210938 14.308594 C 20.887915 14.596594 20.446398 14.745427 20.001953 14.746094 C 19.557509 14.74676 19.116855 14.59953 18.792969 14.3125 C 18.469083 14.02547 18.250906 13.604166 18.25 13 L 18.25 12 C 18.25 11.270834 17.967561 10.691651 17.541016 10.3125 C 17.11447 9.9333486 16.555556 9.75 16 9.75 C 15.444444 9.75 14.88553 9.9333486 14.458984 10.3125 C 14.032439 10.691651 13.75 11.270834 13.75 12 L 13.75 16 C 13.75 16.604166 13.532439 17.024985 13.208984 17.3125 C 12.88553 17.600015 12.444444 17.75 12 17.75 C 11.555556 17.75 11.11447 17.600015 10.791016 17.3125 C 10.467561 17.024985 10.25 16.604166 10.25 16 L 10.25 12 C 10.25 11.270834 9.9675611 10.691651 9.5410156 10.3125 C 9.1144701 9.9333486 8.5555555 9.75 8 9.75 C 7.4444445 9.75 6.8855299 9.9333486 6.4589844 10.3125 C 6.0324389 10.691651 5.75 11.270834 5.75 12 L 5.75 13 C 5.75 13.604166 5.5324389 14.024985 5.2089844 14.3125 C 4.8855299 14.600015 4.4444445 14.75 4 14.75 C 3.5555555 14.75 3.1144701 14.600015 2.7910156 14.3125 C 2.4675611 14.024985 2.25 13.604166 2.25 13 C 2.2484664 8.440211 5.3982746 4.5110358 9.8066406 3.4960938 z M 8 10.25 C 8.4444445 10.25 8.8855299 10.399985 9.2089844 10.6875 C 9.5324389 10.975015 9.75 11.395834 9.75 12 L 9.75 16 C 9.75 16.729166 10.032439 17.308349 10.458984 17.6875 C 10.88553 18.066651 11.444444 18.25 12 18.25 C 12.555556 18.25 13.11447 18.066651 13.541016 17.6875 C 13.967561 17.308349 14.25 16.729166 14.25 16 L 14.25 12 C 14.25 11.395834 14.467561 10.975015 14.791016 10.6875 C 15.11447 10.399985 15.555556 10.25 16 10.25 C 16.444444 10.25 16.88553 10.399985 17.208984 10.6875 C 17.532439 10.975015 17.75 11.395834 17.75 12 L 17.75 13 C 17.7511 13.729166 18.033824 14.307035 18.460938 14.685547 C 18.888053 15.064058 19.448351 15.246927 20.003906 15.246094 C 20.159793 15.24586 20.315502 15.230508 20.46875 15.201172 C 19.360945 19.585776 15.689362 21.75 12 21.75 C 8.3117715 21.75 4.6402883 19.586971 3.53125 15.205078 C 3.6855049 15.234558 3.8432302 15.25 4 15.25 C 4.5555555 15.25 5.1144701 15.066651 5.5410156 14.6875 C 5.9675611 14.308349 6.25 13.729166 6.25 13 L 6.25 12 C 6.25 11.395834 6.4675611 10.975015 6.7910156 10.6875 C 7.1144701 10.399985 7.5555555 10.25 8 10.25 z " />
</svg>
