<?xml version="1.0" encoding="UTF-8" standalone="no"?>
<svg
   width="24"
   height="24"
   viewBox="0 0 24 24"
   fill="none"
   stroke="currentColor"
   stroke-width="0.5"
   stroke-linecap="round"
   stroke-linejoin="round"
   version="1.1"
   id="svg4"
   sodipodi:docname=".tmp_door-closed-locked.svg"
   xmlns:inkscape="http://www.inkscape.org/namespaces/inkscape"
   xmlns:sodipodi="http://sodipodi.sourceforge.net/DTD/sodipodi-0.dtd"
   xmlns="http://www.w3.org/2000/svg"
   xmlns:svg="http://www.w3.org/2000/svg">
  <defs
     id="defs4" />
  <sodipodi:namedview
     id="namedview4"
     pagecolor="#ffffff"
     bordercolor="#000000"
     borderopacity="0.25"
     inkscape:showpageshadow="2"
     inkscape:pageopacity="0.0"
     inkscape:pagecheckerboard="0"
     inkscape:deskcolor="#d1d1d1" />
  <path
     id="path1"
     style="baseline-shift:baseline;display:inline;overflow:visible;vector-effect:none;fill:#000000;stroke:none;stroke-linecap:butt;stroke-linejoin:miter;enable-background:accumulate;stop-color:#000000;stop-opacity:1;opacity:1"
     d="M 8 3.75 C 6.7603205 3.75 5.75 4.7603205 5.75 6 L 5.75 19.75 L 2 19.75 A 0.25 0.25 0 0 0 1.75 20 A 0.25 0.25 0 0 0 2 20.25 L 10 20.25 A 0.25 0.25 0 0 0 10.25 20 A 0.25 0.25 0 0 0 10 19.75 L 6.25 19.75 L 6.25 6 C 6.25 5.0305405 7.0305405 4.25 8 4.25 L 16 4.25 C 16.969459 4.25 17.75 5.0305405 17.75 6 L 17.75 9 A 0.25 0.25 0 0 0 18 9.25 A 0.25 0.25 0 0 0 18.25 9 L 18.25 6 C 18.25 4.7603205 17.23968 3.75 16 3.75 L 8 3.75 z M 10 11.75 A 0.25 0.25 0 0 0 9.75 12 A 0.25 0.25 0 0 0 10 12.25 L 10.009766 12.25 A 0.25 0.25 0 0 0 10.259766 12 A 0.25 0.25 0 0 0 10.009766 11.75 L 10 11.75 z M 18 12.75 C 17.444444 12.75 16.88553 12.933349 16.458984 13.3125 C 16.032439 13.691651 15.75 14.270834 15.75 15 L 15.75 16.75 L 15 16.75 C 14.311824 16.75 13.75 17.311824 13.75 18 L 13.75 21 C 13.75 21.688176 14.311824 22.25 15 22.25 L 21 22.25 C 21.688176 22.25 22.25 21.688176 22.25 21 L 22.25 18 C 22.25 17.311824 21.688176 16.75 21 16.75 L 20.25 16.75 L 20.25 15 C 20.25 14.270834 19.967561 13.691651 19.541016 13.3125 C 19.11447 12.933349 18.555556 12.75 18 12.75 z M 18 13.25 C 18.444444 13.25 18.88553 13.399985 19.208984 13.6875 C 19.532439 13.975015 19.75 14.395834 19.75 15 L 19.75 16.75 L 16.25 16.75 L 16.25 15 C 16.25 14.395834 16.467561 13.975015 16.791016 13.6875 C 17.11447 13.399985 17.555556 13.25 18 13.25 z M 15 17.25 L 16 17.25 L 20 17.25 L 21 17.25 C 21.419824 17.25 21.75 17.580176 21.75 18 L 21.75 21 C 21.75 21.419824 21.419824 21.75 21 21.75 L 15 21.75 C 14.580176 21.75 14.25 21.419824 14.25 21 L 14.25 18 C 14.25 17.580176 14.580176 17.25 15 17.25 z " />
</svg>
