<?xml version="1.0" encoding="UTF-8" standalone="no"?>
<svg
   width="24"
   height="24"
   viewBox="0 0 24 24"
   fill="none"
   stroke="currentColor"
   stroke-width="0.5"
   stroke-linecap="round"
   stroke-linejoin="round"
   version="1.1"
   id="svg1"
   sodipodi:docname=".tmp_egg.svg"
   xmlns:inkscape="http://www.inkscape.org/namespaces/inkscape"
   xmlns:sodipodi="http://sodipodi.sourceforge.net/DTD/sodipodi-0.dtd"
   xmlns="http://www.w3.org/2000/svg"
   xmlns:svg="http://www.w3.org/2000/svg">
  <defs
     id="defs1" />
  <sodipodi:namedview
     id="namedview1"
     pagecolor="#ffffff"
     bordercolor="#000000"
     borderopacity="0.25"
     inkscape:showpageshadow="2"
     inkscape:pageopacity="0.0"
     inkscape:pagecheckerboard="0"
     inkscape:deskcolor="#d1d1d1" />
  <path
     id="path1"
     style="baseline-shift:baseline;display:inline;overflow:visible;vector-effect:none;fill:#000000;stroke:none;stroke-linecap:butt;stroke-linejoin:miter;enable-background:accumulate;stop-color:#000000;stop-opacity:1;opacity:1"
     d="M 12 1.75 C 9.875 1.75 7.8194618 3.3186589 6.2910156 5.6113281 C 4.7625695 7.9039974 3.75 10.944444 3.75 14 C 3.75 18.553391 7.4466123 22.25 12 22.25 C 16.553388 22.25 20.25 18.553391 20.25 14 C 20.25 10.944444 19.237431 7.9039974 17.708984 5.6113281 C 16.180538 3.3186589 14.125 1.75 12 1.75 z M 12 2.25 C 13.875 2.25 15.819462 3.6813411 17.291016 5.8886719 C 18.762569 8.0960026 19.75 11.055556 19.75 14 C 19.75 18.283171 16.283168 21.75 12 21.75 C 7.7168319 21.75 4.25 18.283171 4.25 14 C 4.25 11.055556 5.2374305 8.0960026 6.7089844 5.8886719 C 8.1805382 3.6813411 10.125 2.25 12 2.25 z " />
</svg>
