<?xml version="1.0" encoding="UTF-8" standalone="no"?>
<svg
   width="24"
   height="24"
   viewBox="0 0 24 24"
   fill="none"
   stroke="currentColor"
   stroke-width="0.5"
   stroke-linecap="round"
   stroke-linejoin="round"
   version="1.1"
   id="svg3"
   sodipodi:docname=".tmp_euro.svg"
   xmlns:inkscape="http://www.inkscape.org/namespaces/inkscape"
   xmlns:sodipodi="http://sodipodi.sourceforge.net/DTD/sodipodi-0.dtd"
   xmlns="http://www.w3.org/2000/svg"
   xmlns:svg="http://www.w3.org/2000/svg">
  <defs
     id="defs3" />
  <sodipodi:namedview
     id="namedview3"
     pagecolor="#ffffff"
     bordercolor="#000000"
     borderopacity="0.25"
     inkscape:showpageshadow="2"
     inkscape:pageopacity="0.0"
     inkscape:pagecheckerboard="0"
     inkscape:deskcolor="#d1d1d1" />
  <path
     id="path1"
     style="baseline-shift:baseline;display:inline;overflow:visible;vector-effect:none;fill:#000000;stroke:none;stroke-linecap:butt;stroke-linejoin:miter;enable-background:accumulate;stop-color:#000000;stop-opacity:1;opacity:1"
     d="M 13.796875 3.75 C 10.078895 3.7967651 6.971269 6.3319229 6.0371094 9.75 L 4 9.75 A 0.25 0.25 0 0 0 3.75 10 A 0.25 0.25 0 0 0 4 10.25 L 5.9160156 10.25 C 5.7996806 10.814611 5.7426483 11.400192 5.75 12 L 5.75 12.001953 L 5.75 12.003906 C 5.75028 12.602361 5.8138136 13.186682 5.9335938 13.75 L 4 13.75 A 0.25 0.25 0 0 0 3.75 14 A 0.25 0.25 0 0 0 4 14.25 L 6.0566406 14.25 C 7.0165183 17.700587 10.124239 20.25 13.800781 20.25 C 15.867448 20.25 17.723402 19.422631 19.162109 18.189453 A 0.25 0.25 0 0 0 19.189453 17.837891 A 0.25 0.25 0 0 0 18.837891 17.810547 C 17.476602 18.977271 15.734115 19.75 13.800781 19.75 C 10.402597 19.75 7.5190546 17.426671 6.5761719 14.25 L 13 14.25 A 0.25 0.25 0 0 0 13.25 14 A 0.25 0.25 0 0 0 13 13.75 L 6.4453125 13.75 C 6.3179612 13.187291 6.25 12.601441 6.25 12 A 0.250025 0.250025 0 0 0 6.25 11.996094 C 6.242358 11.396173 6.3045478 10.811624 6.4277344 10.25 L 16 10.25 A 0.25 0.25 0 0 0 16.25 10 A 0.25 0.25 0 0 0 16 9.75 L 6.5546875 9.75 C 7.4719044 6.6060127 10.353817 4.2942331 13.800781 4.25 C 15.660654 4.24442 17.455244 4.9351005 18.832031 6.1855469 A 0.25 0.25 0 0 0 19.185547 6.1679688 A 0.25 0.25 0 0 0 19.167969 5.8144531 C 17.698892 4.4801835 15.783377 3.7440488 13.798828 3.75 A 0.250025 0.250025 0 0 0 13.796875 3.75 z " />
</svg>
