<?xml version="1.0" encoding="UTF-8" standalone="no"?>
<svg
   width="24"
   height="24"
   viewBox="0 0 24 24"
   fill="none"
   stroke="currentColor"
   stroke-width="0.5"
   stroke-linecap="round"
   stroke-linejoin="round"
   version="1.1"
   id="svg3"
   sodipodi:docname=".tmp_external-link.svg"
   xmlns:inkscape="http://www.inkscape.org/namespaces/inkscape"
   xmlns:sodipodi="http://sodipodi.sourceforge.net/DTD/sodipodi-0.dtd"
   xmlns="http://www.w3.org/2000/svg"
   xmlns:svg="http://www.w3.org/2000/svg">
  <defs
     id="defs3" />
  <sodipodi:namedview
     id="namedview3"
     pagecolor="#ffffff"
     bordercolor="#000000"
     borderopacity="0.25"
     inkscape:showpageshadow="2"
     inkscape:pageopacity="0.0"
     inkscape:pagecheckerboard="0"
     inkscape:deskcolor="#d1d1d1" />
  <path
     id="path1"
     style="baseline-shift:baseline;display:inline;overflow:visible;vector-effect:none;fill:#000000;stroke:none;stroke-linecap:butt;stroke-linejoin:miter;enable-background:accumulate;stop-color:#000000;stop-opacity:1;opacity:1"
     d="M 21.001953 2.7480469 A 0.25 0.25 0 0 0 20.96875 2.75 L 15 2.75 A 0.25 0.25 0 0 0 14.75 3 A 0.25 0.25 0 0 0 15 3.25 L 20.394531 3.25 L 9.8222656 13.822266 A 0.25 0.25 0 0 0 9.8222656 14.177734 A 0.25 0.25 0 0 0 10.177734 14.177734 L 20.75 3.6054688 L 20.75 9 A 0.25 0.25 0 0 0 21 9.25 A 0.25 0.25 0 0 0 21.25 9 L 21.25 3.03125 A 0.25 0.25 0 0 0 21.242188 2.9355469 A 0.250025 0.250025 0 0 0 21.242188 2.9335938 A 0.25 0.25 0 0 0 21.216797 2.875 A 0.250025 0.250025 0 0 0 21.216797 2.8730469 A 0.25 0.25 0 0 0 21.199219 2.8476562 A 0.250025 0.250025 0 0 0 21.126953 2.7832031 A 0.25 0.25 0 0 0 21.125 2.7832031 A 0.25 0.25 0 0 0 21.064453 2.7578125 A 0.25 0.25 0 0 0 21.001953 2.7480469 z M 5 5.75 C 3.7603205 5.75 2.75 6.7603205 2.75 8 L 2.75 19 C 2.75 20.23968 3.7603205 21.25 5 21.25 L 16 21.25 C 17.23968 21.25 18.25 20.23968 18.25 19 L 18.25 13 A 0.25 0.25 0 0 0 18 12.75 A 0.25 0.25 0 0 0 17.75 13 L 17.75 19 C 17.75 19.969459 16.969459 20.75 16 20.75 L 5 20.75 C 4.0305405 20.75 3.25 19.969459 3.25 19 L 3.25 8 C 3.25 7.0305405 4.0305405 6.25 5 6.25 L 11 6.25 A 0.25 0.25 0 0 0 11.25 6 A 0.25 0.25 0 0 0 11 5.75 L 5 5.75 z " />
</svg>
