<?xml version="1.0" encoding="UTF-8" standalone="no"?>
<svg
   width="24"
   height="24"
   viewBox="0 0 24 24"
   fill="none"
   stroke="currentColor"
   stroke-width="0.5"
   stroke-linecap="round"
   stroke-linejoin="round"
   version="1.1"
   id="svg5"
   sodipodi:docname=".tmp_file-volume-2.svg"
   xmlns:inkscape="http://www.inkscape.org/namespaces/inkscape"
   xmlns:sodipodi="http://sodipodi.sourceforge.net/DTD/sodipodi-0.dtd"
   xmlns="http://www.w3.org/2000/svg"
   xmlns:svg="http://www.w3.org/2000/svg">
  <defs
     id="defs5" />
  <sodipodi:namedview
     id="namedview5"
     pagecolor="#ffffff"
     bordercolor="#000000"
     borderopacity="0.25"
     inkscape:showpageshadow="2"
     inkscape:pageopacity="0.0"
     inkscape:pagecheckerboard="0"
     inkscape:deskcolor="#d1d1d1" />
  <path
     id="path1"
     style="baseline-shift:baseline;display:inline;overflow:visible;vector-effect:none;fill:#000000;stroke:none;stroke-linecap:butt;stroke-linejoin:miter;enable-background:accumulate;stop-color:#000000;stop-opacity:1;opacity:1"
     d="M 6 1.75 C 4.7603205 1.75 3.75 2.7603205 3.75 4 L 3.75 20 C 3.75 21.23968 4.7603205 22.25 6 22.25 L 18 22.25 C 19.23968 22.25 20.25 21.23968 20.25 20 L 20.25 7 A 0.250025 0.250025 0 0 0 20.177734 6.8222656 L 15.177734 1.8222656 A 0.250025 0.250025 0 0 0 15 1.75 L 6 1.75 z M 6 2.25 L 13.75 2.25 L 13.75 6 C 13.75 7.2396795 14.76032 8.25 16 8.25 L 19.75 8.25 L 19.75 20 C 19.75 20.969459 18.969459 21.75 18 21.75 L 6 21.75 C 5.0305405 21.75 4.25 20.969459 4.25 20 L 4.25 4 C 4.25 3.0305405 5.0305405 2.25 6 2.25 z M 14.25 2.25 L 14.894531 2.25 L 19.75 7.1035156 L 19.75 7.75 L 16 7.75 C 15.030541 7.75 14.25 6.9694595 14.25 6 L 14.25 2.25 z M 15.001953 11.75 A 0.25 0.25 0 0 0 14.849609 11.800781 A 0.25 0.25 0 0 0 14.800781 12.150391 C 16.068115 13.840168 16.068115 16.159832 14.800781 17.849609 A 0.25 0.25 0 0 0 14.849609 18.199219 A 0.25 0.25 0 0 0 15.199219 18.150391 C 16.598552 16.284613 16.598552 13.715387 15.199219 11.849609 A 0.25 0.25 0 0 0 15.001953 11.75 z M 11.501953 13.25 A 0.25 0.25 0 0 0 11.349609 13.300781 A 0.25 0.25 0 0 0 11.300781 13.650391 C 11.901448 14.45128 11.901448 15.54872 11.300781 16.349609 A 0.25 0.25 0 0 0 11.349609 16.699219 A 0.25 0.25 0 0 0 11.699219 16.650391 C 12.431885 15.673502 12.431885 14.326498 11.699219 13.349609 A 0.25 0.25 0 0 0 11.501953 13.25 z M 8 14.75 A 0.25 0.25 0 0 0 7.75 15 A 0.25 0.25 0 0 0 8 15.25 L 8.0097656 15.25 A 0.25 0.25 0 0 0 8.2597656 15 A 0.25 0.25 0 0 0 8.0097656 14.75 L 8 14.75 z " />
</svg>
