<?xml version="1.0" encoding="UTF-8" standalone="no"?>
<svg
   width="24"
   height="24"
   viewBox="0 0 24 24"
   fill="none"
   stroke="currentColor"
   stroke-width="0.5"
   stroke-linecap="round"
   stroke-linejoin="round"
   version="1.1"
   id="svg4"
   sodipodi:docname=".tmp_file-axis-3d.svg"
   xmlns:inkscape="http://www.inkscape.org/namespaces/inkscape"
   xmlns:sodipodi="http://sodipodi.sourceforge.net/DTD/sodipodi-0.dtd"
   xmlns="http://www.w3.org/2000/svg"
   xmlns:svg="http://www.w3.org/2000/svg">
  <defs
     id="defs4" />
  <sodipodi:namedview
     id="namedview4"
     pagecolor="#ffffff"
     bordercolor="#000000"
     borderopacity="0.25"
     inkscape:showpageshadow="2"
     inkscape:pageopacity="0.0"
     inkscape:pagecheckerboard="0"
     inkscape:deskcolor="#d1d1d1" />
  <path
     id="path1"
     style="baseline-shift:baseline;display:inline;overflow:visible;vector-effect:none;fill:#000000;stroke:none;stroke-linecap:butt;stroke-linejoin:miter;enable-background:accumulate;stop-color:#000000;stop-opacity:1;opacity:1"
     d="M 6 1.75 C 4.7603205 1.75 3.75 2.7603205 3.75 4 L 3.75 20 C 3.75 21.23968 4.7603205 22.25 6 22.25 L 18 22.25 C 19.23968 22.25 20.25 21.23968 20.25 20 L 20.25 7 A 0.250025 0.250025 0 0 0 20.177734 6.8222656 L 15.177734 1.8222656 A 0.250025 0.250025 0 0 0 15 1.75 L 6 1.75 z M 6 2.25 L 13.75 2.25 L 13.75 6 C 13.75 7.2396795 14.76032 8.25 16 8.25 L 19.75 8.25 L 19.75 20 C 19.75 20.969459 18.969459 21.75 18 21.75 L 6 21.75 C 5.0305405 21.75 4.25 20.969459 4.25 20 L 4.25 4 C 4.25 3.0305405 5.0305405 2.25 6 2.25 z M 14.25 2.25 L 14.894531 2.25 L 19.75 7.1035156 L 19.75 7.75 L 16 7.75 C 15.030541 7.75 14.25 6.9694595 14.25 6 L 14.25 2.25 z M 8 9.75 A 0.25 0.25 0 0 0 7.75 10 L 7.75 17.96875 A 0.25 0.25 0 0 0 7.7578125 18.064453 A 0.25 0.25 0 0 0 7.7578125 18.066406 A 0.25 0.25 0 0 0 7.7832031 18.125 A 0.25 0.25 0 0 0 7.8222656 18.177734 A 0.25 0.25 0 0 0 7.8730469 18.216797 A 0.250025 0.250025 0 0 0 7.875 18.216797 A 0.25 0.25 0 0 0 7.9335938 18.242188 A 0.250025 0.250025 0 0 0 7.9355469 18.242188 A 0.25 0.25 0 0 0 8.03125 18.25 L 16 18.25 A 0.25 0.25 0 0 0 16.25 18 A 0.25 0.25 0 0 0 16 17.75 L 8.6054688 17.75 L 12.177734 14.177734 A 0.25 0.25 0 0 0 12.177734 13.822266 A 0.25 0.25 0 0 0 11.822266 13.822266 L 8.25 17.394531 L 8.25 10 A 0.25 0.25 0 0 0 8 9.75 z " />
</svg>
