<?xml version="1.0" encoding="UTF-8" standalone="no"?>
<svg
   width="24"
   height="24"
   viewBox="0 0 24 24"
   fill="none"
   stroke="currentColor"
   stroke-width="0.5"
   stroke-linecap="round"
   stroke-linejoin="round"
   version="1.1"
   id="svg5"
   sodipodi:docname=".tmp_file-output.svg"
   xmlns:inkscape="http://www.inkscape.org/namespaces/inkscape"
   xmlns:sodipodi="http://sodipodi.sourceforge.net/DTD/sodipodi-0.dtd"
   xmlns="http://www.w3.org/2000/svg"
   xmlns:svg="http://www.w3.org/2000/svg">
  <defs
     id="defs5" />
  <sodipodi:namedview
     id="namedview5"
     pagecolor="#ffffff"
     bordercolor="#000000"
     borderopacity="0.25"
     inkscape:showpageshadow="2"
     inkscape:pageopacity="0.0"
     inkscape:pagecheckerboard="0"
     inkscape:deskcolor="#d1d1d1" />
  <path
     id="path1"
     style="baseline-shift:baseline;display:inline;overflow:visible;vector-effect:none;fill:#000000;stroke:none;stroke-linecap:butt;stroke-linejoin:miter;enable-background:accumulate;stop-color:#000000;stop-opacity:1;opacity:1"
     d="M 6 1.75 A 0.25 0.25 0 0 0 5.9667969 1.7519531 C 5.3601851 1.7608602 4.8103542 2.0099583 4.4101562 2.4101562 C 4.0026162 2.8176963 3.75 3.3801602 3.75 4 L 3.75 7 A 0.25 0.25 0 0 0 4 7.25 A 0.25 0.25 0 0 0 4.25 7 L 4.25 4 C 4.25 3.5152703 4.4454012 3.0780363 4.7617188 2.7617188 C 5.0780363 2.4454011 5.5152703 2.25 6 2.25 L 13.75 2.25 L 13.75 6 C 13.75 7.2396795 14.76032 8.25 16 8.25 L 19.75 8.25 L 19.75 20 C 19.75 20.969459 18.969459 21.75 18 21.75 L 6.0625 21.748047 A 0.250025 0.250025 0 0 0 6.03125 21.751953 C 5.3233878 21.844173 4.63219 21.498576 4.28125 20.876953 A 0.25 0.25 0 0 0 3.9394531 20.78125 A 0.25 0.25 0 0 0 3.8457031 21.121094 C 4.2905542 21.909061 5.165695 22.351318 6.0625 22.248047 L 6.0800781 22.248047 L 18 22.25 C 19.23968 22.25 20.25 21.23968 20.25 20 L 20.25 7 A 0.250025 0.250025 0 0 0 20.177734 6.8222656 L 15.177734 1.8222656 A 0.250025 0.250025 0 0 0 15 1.75 L 6 1.75 z M 14.25 2.25 L 14.896484 2.25 L 19.75 7.1035156 L 19.75 7.75 L 16 7.75 C 15.030541 7.75 14.25 6.9694595 14.25 6 L 14.25 2.25 z M 5 10.748047 A 0.25 0.25 0 0 0 4.8222656 10.822266 L 1.8398438 13.806641 L 1.8222656 13.822266 A 0.25 0.25 0 0 0 1.8203125 13.824219 A 0.250025 0.250025 0 0 0 1.8144531 13.830078 A 0.25 0.25 0 0 0 1.8007812 13.847656 A 0.250025 0.250025 0 0 0 1.7890625 13.863281 A 0.25 0.25 0 0 0 1.7753906 13.888672 A 0.25 0.25 0 0 0 1.7675781 13.904297 A 0.250025 0.250025 0 0 0 1.7617188 13.919922 A 0.25 0.25 0 0 0 1.7539062 13.947266 A 0.250025 0.250025 0 0 0 1.7519531 13.960938 A 0.25 0.25 0 0 0 1.75 13.974609 A 0.250025 0.250025 0 0 0 1.7480469 13.994141 A 0.25 0.25 0 0 0 1.7480469 14 A 0.250025 0.250025 0 0 0 1.75 14.023438 A 0.25 0.25 0 0 0 1.7519531 14.046875 A 0.250025 0.250025 0 0 0 1.7558594 14.064453 A 0.25 0.25 0 0 0 1.7578125 14.070312 A 0.250025 0.250025 0 0 0 1.765625 14.091797 A 0.25 0.25 0 0 0 1.7675781 14.095703 A 0.250025 0.250025 0 0 0 1.7792969 14.123047 A 0.25 0.25 0 0 0 1.78125 14.125 A 0.250025 0.250025 0 0 0 1.8222656 14.177734 A 0.25 0.25 0 0 0 1.8242188 14.179688 L 4.8222656 17.177734 A 0.25 0.25 0 0 0 5.1777344 17.177734 A 0.25 0.25 0 0 0 5.1777344 16.822266 L 2.6054688 14.25 L 12 14.25 A 0.25 0.25 0 0 0 12.25 14 A 0.25 0.25 0 0 0 12 13.75 L 2.6054688 13.75 L 5.1777344 11.177734 A 0.25 0.25 0 0 0 5.1777344 10.822266 A 0.25 0.25 0 0 0 5 10.748047 z " />
</svg>
