<?xml version="1.0" encoding="UTF-8" standalone="no"?>
<svg
   width="24"
   height="24"
   viewBox="0 0 24 24"
   fill="none"
   stroke="currentColor"
   stroke-width="0.5"
   stroke-linecap="round"
   stroke-linejoin="round"
   version="1.1"
   id="svg3"
   sodipodi:docname=".tmp_file-stack.svg"
   xmlns:inkscape="http://www.inkscape.org/namespaces/inkscape"
   xmlns:sodipodi="http://sodipodi.sourceforge.net/DTD/sodipodi-0.dtd"
   xmlns="http://www.w3.org/2000/svg"
   xmlns:svg="http://www.w3.org/2000/svg">
  <defs
     id="defs3" />
  <sodipodi:namedview
     id="namedview3"
     pagecolor="#ffffff"
     bordercolor="#000000"
     borderopacity="0.25"
     inkscape:showpageshadow="2"
     inkscape:pageopacity="0.0"
     inkscape:pagecheckerboard="0"
     inkscape:deskcolor="#d1d1d1" />
  <path
     id="path1"
     style="baseline-shift:baseline;display:inline;overflow:visible;vector-effect:none;fill:#000000;stroke:none;stroke-linecap:butt;stroke-linejoin:miter;enable-background:accumulate;stop-color:#000000;stop-opacity:1;opacity:1"
     d="M 14 1.75 C 13.312605 1.75 12.75 2.3126052 12.75 3 L 12.75 11 C 12.75 11.687395 13.312605 12.25 14 12.25 L 20 12.25 C 20.687395 12.25 21.25 11.687395 21.25 11 L 21.25 6 C 21.249873 5.4034077 21.011762 4.831947 20.589844 4.4101562 L 18.589844 2.4101562 C 18.168053 1.988238 17.596592 1.7501274 17 1.75 L 14 1.75 z M 14 2.25 L 17 2.25 C 17.464187 2.2500991 17.908148 2.4353926 18.236328 2.7636719 L 20.236328 4.7636719 C 20.564607 5.091852 20.749901 5.5358131 20.75 6 L 20.75 11 C 20.75 11.417175 20.417175 11.75 20 11.75 L 14 11.75 C 13.582825 11.75 13.25 11.417175 13.25 11 L 13.25 3 C 13.25 2.5828253 13.582825 2.25 14 2.25 z M 9 6.75 C 8.3126052 6.75 7.75 7.3126052 7.75 8 L 7.75 16 C 7.75 16.687395 8.3126052 17.25 9 17.25 L 15 17.25 C 15.687395 17.25 16.25 16.687395 16.25 16 A 0.25 0.25 0 0 0 16 15.75 A 0.25 0.25 0 0 0 15.75 16 C 15.75 16.417175 15.417175 16.75 15 16.75 L 9 16.75 C 8.5828253 16.75 8.25 16.417175 8.25 16 L 8.25 8 C 8.25 7.5828253 8.5828253 7.25 9 7.25 A 0.25 0.25 0 0 0 9.25 7 A 0.25 0.25 0 0 0 9 6.75 z M 4 11.75 C 3.3126052 11.75 2.75 12.312605 2.75 13 L 2.75 21 C 2.75 21.687395 3.3126052 22.25 4 22.25 L 10 22.25 C 10.687395 22.25 11.25 21.687395 11.25 21 A 0.25 0.25 0 0 0 11 20.75 A 0.25 0.25 0 0 0 10.75 21 C 10.75 21.417175 10.417175 21.75 10 21.75 L 4 21.75 C 3.5828253 21.75 3.25 21.417175 3.25 21 L 3.25 13 C 3.25 12.582825 3.5828253 12.25 4 12.25 A 0.25 0.25 0 0 0 4.25 12 A 0.25 0.25 0 0 0 4 11.75 z " />
</svg>
