<?xml version="1.0" encoding="UTF-8" standalone="no"?>
<svg
   width="24"
   height="24"
   viewBox="0 0 24 24"
   fill="none"
   stroke="currentColor"
   stroke-width="0.5"
   stroke-linecap="round"
   stroke-linejoin="round"
   version="1.1"
   id="svg4"
   sodipodi:docname=".tmp_footprints.svg"
   xmlns:inkscape="http://www.inkscape.org/namespaces/inkscape"
   xmlns:sodipodi="http://sodipodi.sourceforge.net/DTD/sodipodi-0.dtd"
   xmlns="http://www.w3.org/2000/svg"
   xmlns:svg="http://www.w3.org/2000/svg">
  <defs
     id="defs4" />
  <sodipodi:namedview
     id="namedview4"
     pagecolor="#ffffff"
     bordercolor="#000000"
     borderopacity="0.25"
     inkscape:showpageshadow="2"
     inkscape:pageopacity="0.0"
     inkscape:pagecheckerboard="0"
     inkscape:deskcolor="#d1d1d1" />
  <path
     id="path1"
     style="baseline-shift:baseline;display:inline;overflow:visible;vector-effect:none;fill:#000000;stroke:none;stroke-linecap:butt;stroke-linejoin:miter;enable-background:accumulate;stop-color:#000000;stop-opacity:1;opacity:1"
     d="M 7.5 1.75 C 5.9041916 1.75 4.6993541 2.6351316 3.921875 3.8457031 C 3.1443959 5.0562747 2.765481 6.5944328 2.75 7.9980469 C 2.734939 9.2815006 2.9954213 10.195188 3.25 11.025391 C 3.5047385 11.856114 3.75 12.599628 3.75 13.619141 L 3.75 16 C 3.75 16.729166 4.0324389 17.308349 4.4589844 17.6875 C 4.8855299 18.066651 5.4444445 18.25 6 18.25 C 6.5555555 18.25 7.1144701 18.066651 7.5410156 17.6875 C 7.9675611 17.308349 8.25 16.729166 8.25 16 L 8.25 14.179688 C 8.25 12.724875 8.7361865 11.361179 9.2363281 9.9570312 C 9.7364698 8.5528834 10.25 7.1085906 10.25 5.5 C 10.25 4.6191176 10.091339 3.7065244 9.6660156 2.9863281 C 9.2406922 2.2661318 8.5152139 1.75 7.5 1.75 z M 7.5 2.25 C 8.3547861 2.25 8.8791516 2.6354307 9.2363281 3.2402344 C 9.5935047 3.8450381 9.75 4.6808824 9.75 5.5 C 9.75 7.0014094 9.2635302 8.3857102 8.7636719 9.7890625 C 8.42007 10.753725 8.0701325 11.727238 7.8847656 12.75 L 4.1914062 12.75 C 4.0988641 12.05829 3.910039 11.470869 3.7285156 10.878906 C 3.4757542 10.05463 3.2354167 9.2191803 3.25 8.0039062 A 0.250025 0.250025 0 0 0 3.25 8.0019531 C 3.264519 6.685564 3.6312291 5.2246628 4.34375 4.1152344 C 5.0562709 3.0058059 6.0858084 2.25 7.5 2.25 z M 16.5 5.75 C 15.484786 5.75 14.759308 6.2661318 14.333984 6.9863281 C 13.908661 7.7065244 13.75 8.6191176 13.75 9.5 C 13.75 11.108591 14.26353 12.552884 14.763672 13.957031 C 15.263814 15.361179 15.75 16.724875 15.75 18.179688 L 15.75 20 C 15.75 20.729166 16.032439 21.308349 16.458984 21.6875 C 16.88553 22.066651 17.444444 22.25 18 22.25 C 18.555556 22.25 19.11447 22.066651 19.541016 21.6875 C 19.967561 21.308349 20.25 20.729166 20.25 20 L 20.25 17.619141 C 20.25 16.599628 20.495261 15.856114 20.75 15.025391 C 21.004579 14.195188 21.265061 13.281501 21.25 11.998047 L 21.25 11.996094 C 21.234202 10.593033 20.855258 9.055735 20.078125 7.8457031 C 19.300646 6.6351316 18.095808 5.75 16.5 5.75 z M 16.5 6.25 C 17.914192 6.25 18.943729 7.0058059 19.65625 8.1152344 C 20.368771 9.2246628 20.735481 10.685567 20.75 12.001953 A 0.250025 0.250025 0 0 0 20.75 12.003906 C 20.76458 13.21918 20.524246 14.05463 20.271484 14.878906 C 20.089961 15.470835 19.901136 16.058293 19.808594 16.75 L 16.115234 16.75 C 15.929867 15.727239 15.57993 14.753725 15.236328 13.789062 C 14.73647 12.385709 14.25 11.001409 14.25 9.5 C 14.25 8.6808824 14.406495 7.8450381 14.763672 7.2402344 C 15.120848 6.6354307 15.645214 6.25 16.5 6.25 z M 4.2402344 13.25 L 7.8085938 13.25 C 7.7711919 13.554765 7.75 13.864321 7.75 14.179688 L 7.75 16 C 7.75 16.604166 7.5324389 17.024985 7.2089844 17.3125 C 6.8855299 17.600015 6.4444445 17.75 6 17.75 C 5.5555555 17.75 5.1144701 17.600015 4.7910156 17.3125 C 4.4675611 17.024985 4.25 16.604166 4.25 16 L 4.25 13.619141 C 4.25 13.492467 4.2469212 13.369569 4.2402344 13.25 z M 16.191406 17.25 L 19.759766 17.25 C 19.753079 17.369569 19.75 17.492467 19.75 17.619141 L 19.75 20 C 19.75 20.604166 19.532439 21.024985 19.208984 21.3125 C 18.88553 21.600015 18.444444 21.75 18 21.75 C 17.555556 21.75 17.11447 21.600015 16.791016 21.3125 C 16.467561 21.024985 16.25 20.604166 16.25 20 L 16.25 18.179688 C 16.25 17.864321 16.228808 17.554764 16.191406 17.25 z " />
</svg>
