<?xml version="1.0" encoding="UTF-8" standalone="no"?>
<svg
   width="24"
   height="24"
   viewBox="0 0 24 24"
   fill="none"
   stroke="currentColor"
   stroke-width="0.5"
   stroke-linecap="round"
   stroke-linejoin="round"
   version="1.1"
   id="svg2"
   sodipodi:docname=".tmp_forklift.svg"
   xmlns:inkscape="http://www.inkscape.org/namespaces/inkscape"
   xmlns:sodipodi="http://sodipodi.sourceforge.net/DTD/sodipodi-0.dtd"
   xmlns="http://www.w3.org/2000/svg"
   xmlns:svg="http://www.w3.org/2000/svg">
  <defs
     id="defs2" />
  <sodipodi:namedview
     id="namedview2"
     pagecolor="#ffffff"
     bordercolor="#000000"
     borderopacity="0.25"
     inkscape:showpageshadow="2"
     inkscape:pageopacity="0.0"
     inkscape:pagecheckerboard="0"
     inkscape:deskcolor="#d1d1d1" />
  <path
     id="path1"
     style="baseline-shift:baseline;display:inline;overflow:visible;vector-effect:none;fill:#000000;stroke:none;stroke-linecap:butt;stroke-linejoin:miter;enable-background:accumulate;stop-color:#000000;stop-opacity:1;opacity:1"
     d="M 16 1.75 A 0.25 0.25 0 0 0 15.75 2 L 15.75 9.3945312 L 11.177734 4.8222656 A 0.250025 0.250025 0 0 0 11 4.75 L 8 4.75 C 6.7636364 4.75 5.75 5.7636364 5.75 7 L 5.75 11.75 L 5 11.75 C 3.7603205 11.75 2.75 12.76032 2.75 14 L 2.75 19 A 0.25 0.25 0 0 0 2.7519531 19.033203 C 2.7699281 20.257559 3.7714874 21.25 5 21.25 C 6.2396795 21.25 7.25 20.23968 7.25 19 C 7.25 17.76032 6.2396795 16.75 5 16.75 C 4.2943329 16.75 3.6629843 17.077195 3.25 17.587891 L 3.25 14 C 3.25 13.030541 4.0305405 12.25 5 12.25 L 6 12.25 L 12 12.25 A 0.25 0.25 0 0 0 12.25 12 A 0.25 0.25 0 0 0 12 11.75 L 6.25 11.75 L 6.25 7 C 6.25 6.0363636 7.0363636 5.25 8 5.25 L 10.896484 5.25 L 15.75 10.105469 L 15.75 19 A 0.250025 0.250025 0 0 0 16 19.25 L 22 19.25 A 0.25 0.25 0 0 0 22.25 19 A 0.25 0.25 0 0 0 22 18.75 L 16.25 18.75 L 16.25 2 A 0.25 0.25 0 0 0 16 1.75 z M 13 16.75 C 11.844801 16.75 10.888609 17.627311 10.763672 18.75 L 8 18.75 A 0.25 0.25 0 0 0 7.75 19 A 0.25 0.25 0 0 0 8 19.25 L 10.763672 19.25 C 10.888609 20.372689 11.844801 21.25 13 21.25 C 14.23968 21.25 15.25 20.23968 15.25 19 C 15.25 17.76032 14.23968 16.75 13 16.75 z M 5 17.25 C 5.9694595 17.25 6.75 18.030541 6.75 19 C 6.75 19.969459 5.9694595 20.75 5 20.75 C 4.0305405 20.75 3.25 19.969459 3.25 19 C 3.25 18.030541 4.0305405 17.25 5 17.25 z M 13 17.25 C 13.969459 17.25 14.75 18.030541 14.75 19 C 14.75 19.969459 13.969459 20.75 13 20.75 C 12.030541 20.75 11.25 19.969459 11.25 19 C 11.25 18.030541 12.030541 17.25 13 17.25 z " />
</svg>
