<?xml version="1.0" encoding="UTF-8" standalone="no"?>
<svg
   width="24"
   height="24"
   viewBox="0 0 24 24"
   fill="none"
   stroke="currentColor"
   stroke-width="0.5"
   stroke-linecap="round"
   stroke-linejoin="round"
   version="1.1"
   id="svg1"
   sodipodi:docname=".tmp_gitlab.svg"
   xmlns:inkscape="http://www.inkscape.org/namespaces/inkscape"
   xmlns:sodipodi="http://sodipodi.sourceforge.net/DTD/sodipodi-0.dtd"
   xmlns="http://www.w3.org/2000/svg"
   xmlns:svg="http://www.w3.org/2000/svg">
  <defs
     id="defs1" />
  <sodipodi:namedview
     id="namedview1"
     pagecolor="#ffffff"
     bordercolor="#000000"
     borderopacity="0.25"
     inkscape:showpageshadow="2"
     inkscape:pageopacity="0.0"
     inkscape:pagecheckerboard="0"
     inkscape:deskcolor="#d1d1d1" />
  <path
     id="path1"
     style="baseline-shift:baseline;display:inline;overflow:visible;vector-effect:none;fill:#000000;stroke:none;stroke-linecap:butt;stroke-linejoin:miter;enable-background:accumulate;stop-color:#000000;stop-opacity:1;opacity:1"
     d="M 18.314453 2.75 C 18.179715 2.74759 18.048051 2.788171 17.9375 2.8652344 A 0.250025 0.250025 0 0 0 17.931641 2.8691406 C 17.832151 2.9424176 17.755517 3.0417862 17.708984 3.15625 A 0.250025 0.250025 0 0 0 17.703125 3.1699219 L 15.5 9.6699219 L 8.5 9.6699219 L 6.3417969 3.1953125 C 6.3132748 3.0878535 6.2578112 2.9891908 6.1816406 2.9082031 A 0.250025 0.250025 0 0 0 6.1542969 2.8828125 C 6.0347951 2.7891917 5.8838035 2.7462734 5.7324219 2.7539062 C 5.60208 2.7541532 5.4742748 2.7905852 5.3671875 2.8652344 A 0.250025 0.250025 0 0 0 5.3613281 2.8691406 C 5.2618411 2.9424137 5.1852048 3.0417862 5.1386719 3.15625 A 0.250025 0.250025 0 0 0 5.1328125 3.1699219 L 1.7636719 13.210938 A 0.250025 0.250025 0 0 0 1.7617188 13.212891 C 1.6281039 13.621237 1.7747567 14.070684 2.1230469 14.322266 A 0.250025 0.250025 0 0 0 2.125 14.324219 L 11.855469 21.205078 A 0.250025 0.250025 0 0 0 12.144531 21.203125 L 21.818359 14.333984 C 22.201783 14.104375 22.377309 13.637632 22.238281 13.212891 A 0.250025 0.250025 0 0 0 22.236328 13.210938 L 18.90625 3.2109375 A 0.250025 0.250025 0 0 0 18.902344 3.1953125 C 18.858997 3.0887022 18.783149 2.9992741 18.693359 2.9277344 C 18.597124 2.8353797 18.476231 2.7698223 18.34375 2.7519531 A 0.250025 0.250025 0 0 0 18.314453 2.75 z M 5.7363281 3.25 A 0.250025 0.250025 0 0 0 5.7578125 3.25 C 5.7840845 3.24822 5.8076501 3.2582904 5.8300781 3.2714844 C 5.8418131 3.2880134 5.8521869 3.3044977 5.8574219 3.3242188 A 0.250025 0.250025 0 0 0 5.8632812 3.3398438 L 8.0820312 10 A 0.250025 0.250025 0 0 0 8.3203125 10.169922 L 15.679688 10.169922 A 0.250025 0.250025 0 0 0 15.916016 10 L 18.171875 3.34375 L 18.173828 3.3417969 C 18.185368 3.3146909 18.203133 3.2912985 18.226562 3.2734375 C 18.245912 3.2608395 18.268136 3.2558822 18.291016 3.2539062 C 18.313756 3.2597663 18.334933 3.2682673 18.351562 3.2851562 A 0.250025 0.250025 0 0 0 18.380859 3.3105469 C 18.406119 3.3291519 18.42569 3.3557036 18.4375 3.3847656 L 21.761719 13.367188 C 21.828979 13.572669 21.747989 13.79517 21.5625 13.90625 A 0.250025 0.250025 0 0 0 21.544922 13.916016 L 12 20.693359 L 2.4160156 13.917969 C 2.2424097 13.792567 2.1716807 13.570727 2.2382812 13.367188 L 5.6015625 3.34375 L 5.6035156 3.3417969 C 5.6150627 3.3146874 5.6328192 3.2912986 5.65625 3.2734375 C 5.6796986 3.258145 5.7082639 3.249498 5.7363281 3.25 z " />
</svg>
