<?xml version="1.0" encoding="UTF-8" standalone="no"?>
<svg
   width="24"
   height="24"
   viewBox="0 0 24 24"
   fill="none"
   stroke="currentColor"
   stroke-width="0.5"
   stroke-linecap="round"
   stroke-linejoin="round"
   version="1.1"
   id="svg2"
   sodipodi:docname=".tmp_glass-water.svg"
   xmlns:inkscape="http://www.inkscape.org/namespaces/inkscape"
   xmlns:sodipodi="http://sodipodi.sourceforge.net/DTD/sodipodi-0.dtd"
   xmlns="http://www.w3.org/2000/svg"
   xmlns:svg="http://www.w3.org/2000/svg">
  <defs
     id="defs2" />
  <sodipodi:namedview
     id="namedview2"
     pagecolor="#ffffff"
     bordercolor="#000000"
     borderopacity="0.25"
     inkscape:showpageshadow="2"
     inkscape:pageopacity="0.0"
     inkscape:pagecheckerboard="0"
     inkscape:deskcolor="#d1d1d1" />
  <path
     id="path1"
     style="baseline-shift:baseline;display:inline;overflow:visible;vector-effect:none;fill:#000000;stroke:none;stroke-linecap:butt;stroke-linejoin:miter;enable-background:accumulate;stop-color:#000000;stop-opacity:1;opacity:1"
     d="M 6.109375 2.75 C 5.3719293 2.7504257 4.790493 3.3974125 4.8671875 4.1308594 L 6.5507812 20.236328 C 6.6719135 21.38376 7.6469905 22.256376 8.8007812 22.25 L 15.199219 22.25 C 16.348746 22.250607 17.318753 21.379501 17.439453 20.236328 L 19.132812 4.1308594 C 19.210301 3.3969518 18.628612 2.7503485 17.890625 2.75 L 6.109375 2.75 z M 6.109375 3.25 L 17.890625 3.25 C 18.339916 3.2502122 18.681941 3.6313175 18.634766 4.078125 L 17.820312 11.822266 C 16.133081 13.067907 13.830489 13.060857 12.150391 11.800781 C 11.217499 11.101115 10.108556 10.75 9 10.75 C 8.0084169 10.75 7.0163196 11.031779 6.1503906 11.591797 L 5.3652344 4.078125 C 5.318544 3.6316142 5.6604298 3.2502592 6.109375 3.25 z M 9.0351562 11.248047 C 10.025836 11.255332 11.014548 11.572922 11.849609 12.199219 C 13.585953 13.501476 15.931081 13.592278 17.751953 12.470703 L 16.941406 20.183594 C 16.847134 21.07646 16.097048 21.750474 15.199219 21.75 L 8.8007812 21.75 A 0.250025 0.250025 0 0 0 8.7988281 21.75 C 7.8976194 21.755 7.1434427 21.079836 7.0488281 20.183594 L 6.2089844 12.15625 C 7.051203 11.544524 8.0444763 11.240762 9.0351562 11.248047 z " />
</svg>
