<?xml version="1.0" encoding="UTF-8" standalone="no"?>
<svg
   width="24"
   height="24"
   viewBox="0 0 24 24"
   fill="none"
   stroke="currentColor"
   stroke-width="0.5"
   stroke-linecap="round"
   stroke-linejoin="round"
   version="1.1"
   id="svg1"
   sodipodi:docname=".tmp_hexagon.svg"
   xmlns:inkscape="http://www.inkscape.org/namespaces/inkscape"
   xmlns:sodipodi="http://sodipodi.sourceforge.net/DTD/sodipodi-0.dtd"
   xmlns="http://www.w3.org/2000/svg"
   xmlns:svg="http://www.w3.org/2000/svg">
  <defs
     id="defs1" />
  <sodipodi:namedview
     id="namedview1"
     pagecolor="#ffffff"
     bordercolor="#000000"
     borderopacity="0.25"
     inkscape:showpageshadow="2"
     inkscape:pageopacity="0.0"
     inkscape:pagecheckerboard="0"
     inkscape:deskcolor="#d1d1d1" />
  <path
     id="path1"
     style="baseline-shift:baseline;display:inline;overflow:visible;vector-effect:none;fill:#000000;stroke:none;stroke-linecap:butt;stroke-linejoin:miter;enable-background:accumulate;stop-color:#000000;stop-opacity:1;opacity:1"
     d="M 12 1.7519531 C 11.611451 1.7519531 11.222903 1.8518731 10.875 2.0527344 L 3.875 6.0527344 C 3.1799063 6.4540463 2.7508233 7.1973757 2.75 8 L 2.75 16 C 2.7508233 16.802624 3.1799063 17.545954 3.875 17.947266 L 10.875 21.947266 C 11.570805 22.348989 12.429195 22.348989 13.125 21.947266 L 20.125 17.947266 C 20.820094 17.545954 21.249177 16.802624 21.25 16 L 21.25 8 C 21.249177 7.1973757 20.820094 6.4540463 20.125 6.0527344 L 13.125 2.0527344 C 12.777097 1.8518727 12.388549 1.7519531 12 1.7519531 z M 12 2.2519531 C 12.30205 2.2519531 12.6041 2.3299242 12.875 2.4863281 L 19.875 6.4863281 C 20.416242 6.7988142 20.749359 7.3750276 20.75 8 L 20.75 16 C 20.749359 16.624972 20.416242 17.201186 19.875 17.513672 L 12.875 21.513672 C 12.333201 21.82648 11.666799 21.82648 11.125 21.513672 L 4.125 17.513672 C 3.5837575 17.201186 3.250641 16.624972 3.25 16 L 3.25 8 C 3.250641 7.3750276 3.5837575 6.7988142 4.125 6.4863281 L 11.125 2.4863281 C 11.395899 2.3299242 11.69795 2.2519531 12 2.2519531 z " />
</svg>
