<?xml version="1.0" encoding="UTF-8" standalone="no"?>
<svg
   width="24"
   height="24"
   viewBox="0 0 24 24"
   fill="none"
   stroke="currentColor"
   stroke-width="0.5"
   stroke-linecap="round"
   stroke-linejoin="round"
   version="1.1"
   id="svg2"
   sodipodi:docname=".tmp_images.svg"
   xmlns:inkscape="http://www.inkscape.org/namespaces/inkscape"
   xmlns:sodipodi="http://sodipodi.sourceforge.net/DTD/sodipodi-0.dtd"
   xmlns="http://www.w3.org/2000/svg"
   xmlns:svg="http://www.w3.org/2000/svg">
  <defs
     id="defs2" />
  <sodipodi:namedview
     id="namedview2"
     pagecolor="#ffffff"
     bordercolor="#000000"
     borderopacity="0.25"
     inkscape:showpageshadow="2"
     inkscape:pageopacity="0.0"
     inkscape:pagecheckerboard="0"
     inkscape:deskcolor="#d1d1d1" />
  <path
     id="path1"
     style="baseline-shift:baseline;display:inline;overflow:visible;vector-effect:none;fill:#000000;stroke:none;stroke-linecap:butt;stroke-linejoin:miter;enable-background:accumulate;stop-color:#000000;stop-opacity:1;opacity:1"
     d="M 10 1.75 C 8.7578243 1.75 7.75 2.7578243 7.75 4 L 7.75 14 C 7.75 15.242176 8.7578243 16.25 10 16.25 L 10.96875 16.25 A 0.25 0.25 0 0 0 11.03125 16.25 L 20 16.25 C 21.242176 16.25 22.25 15.242176 22.25 14 L 22.25 11.03125 A 0.25 0.25 0 0 0 22.25 10.96875 L 22.25 4 C 22.25 2.7578243 21.242176 1.75 20 1.75 L 10 1.75 z M 10 2.25 L 20 2.25 C 20.973824 2.25 21.75 3.0261757 21.75 4 L 21.75 10.394531 L 20.880859 9.5273438 C 20.36362 9.005845 19.68213 8.7460938 19 8.7460938 C 18.31787 8.7460938 17.63638 9.0058451 17.119141 9.5273438 L 10.894531 15.75 L 10 15.75 C 9.0261757 15.75 8.25 14.973824 8.25 14 L 8.25 4 C 8.25 3.0261757 9.0261757 2.25 10 2.25 z M 13 5.75 C 12.312605 5.75 11.75 6.3126052 11.75 7 C 11.75 7.6873948 12.312605 8.25 13 8.25 C 13.687395 8.25 14.25 7.6873948 14.25 7 C 14.25 6.3126052 13.687395 5.75 13 5.75 z M 4 7.75 C 2.7603205 7.75 1.75 8.7603205 1.75 10 L 1.75 20 C 1.75 21.23968 2.7603205 22.25 4 22.25 L 14 22.25 C 15.23968 22.25 16.25 21.23968 16.25 20 A 0.25 0.25 0 0 0 16 19.75 A 0.25 0.25 0 0 0 15.75 20 C 15.75 20.969459 14.969459 21.75 14 21.75 L 4 21.75 C 3.0305405 21.75 2.25 20.969459 2.25 20 L 2.25 10 C 2.25 9.0305405 3.0305405 8.25 4 8.25 A 0.25 0.25 0 0 0 4.25 8 A 0.25 0.25 0 0 0 4 7.75 z M 19 9.2441406 C 19.552879 9.2441406 20.105759 9.4558034 20.527344 9.8808594 L 21.75 11.105469 L 21.75 14 C 21.75 14.973824 20.973824 15.75 20 15.75 L 11.605469 15.75 L 17.472656 9.8808594 C 17.894241 9.4558034 18.447121 9.2441406 19 9.2441406 z " />
</svg>
