<?xml version="1.0" encoding="UTF-8" standalone="no"?>
<svg
   width="24"
   height="24"
   viewBox="0 0 24 24"
   fill="none"
   stroke="currentColor"
   stroke-width="0.5"
   stroke-linecap="round"
   stroke-linejoin="round"
   version="1.1"
   id="svg3"
   sodipodi:docname=".tmp_lamp-wall-down.svg"
   xmlns:inkscape="http://www.inkscape.org/namespaces/inkscape"
   xmlns:sodipodi="http://sodipodi.sourceforge.net/DTD/sodipodi-0.dtd"
   xmlns="http://www.w3.org/2000/svg"
   xmlns:svg="http://www.w3.org/2000/svg">
  <defs
     id="defs3" />
  <sodipodi:namedview
     id="namedview3"
     pagecolor="#ffffff"
     bordercolor="#000000"
     borderopacity="0.25"
     inkscape:showpageshadow="2"
     inkscape:pageopacity="0.0"
     inkscape:pagecheckerboard="0"
     inkscape:deskcolor="#d1d1d1" />
  <path
     id="path1"
     style="baseline-shift:baseline;display:inline;overflow:visible;vector-effect:none;fill:#000000;stroke:none;stroke-linecap:butt;stroke-linejoin:miter;enable-background:accumulate;stop-color:#000000;stop-opacity:1;opacity:1"
     d="M 5 2.75 C 4.3126052 2.75 3.75 3.3126052 3.75 4 L 3.75 8 C 3.75 8.6873948 4.3126052 9.25 5 9.25 L 6 9.25 C 7.2396795 9.25 8.25 8.2396795 8.25 7 L 8.25 6.25 L 12 6.25 C 12.969459 6.25 13.75 7.0305405 13.75 8 L 13.75 12.75 L 11 12.75 C 10.489721 12.750323 10.029157 13.063247 9.8398438 13.537109 L 7.8398438 18.537109 C 7.515124 19.3499 8.1247453 20.249446 9 20.25 L 19 20.25 C 19.875767 20.250322 20.487019 19.350376 20.162109 18.537109 A 0.250025 0.250025 0 0 0 20.160156 18.535156 L 18.160156 13.537109 C 17.97089 13.063294 17.510279 12.750323 17 12.75 L 14.25 12.75 L 14.25 8 C 14.25 6.7603205 13.23968 5.75 12 5.75 L 8.25 5.75 L 8.25 5 C 8.25 3.7603205 7.2396795 2.75 6 2.75 L 5 2.75 z M 5 3.25 L 6 3.25 C 6.9694595 3.25 7.75 4.0305405 7.75 5 L 7.75 6 L 7.75 7 C 7.75 7.9694595 6.9694595 8.75 6 8.75 L 5 8.75 C 4.5828253 8.75 4.25 8.4171747 4.25 8 L 4.25 4 C 4.25 3.5828253 4.5828253 3.25 5 3.25 z M 11 13.25 L 14 13.25 L 17 13.25 C 17.307375 13.250195 17.581276 13.437217 17.695312 13.722656 L 19.697266 18.722656 C 19.897278 19.223297 19.539116 19.750198 19 19.75 L 9 19.75 C 8.4612256 19.749659 8.104802 19.22298 8.3046875 18.722656 L 10.304688 13.722656 C 10.418723 13.437217 10.692625 13.250195 11 13.25 z " />
</svg>
