<?xml version="1.0" encoding="UTF-8" standalone="no"?>
<svg
   width="24"
   height="24"
   viewBox="0 0 24 24"
   fill="none"
   stroke="currentColor"
   stroke-width="0.5"
   stroke-linecap="round"
   stroke-linejoin="round"
   version="1.1"
   id="svg1"
   sodipodi:docname=".tmp_line-squiggle.svg"
   xmlns:inkscape="http://www.inkscape.org/namespaces/inkscape"
   xmlns:sodipodi="http://sodipodi.sourceforge.net/DTD/sodipodi-0.dtd"
   xmlns="http://www.w3.org/2000/svg"
   xmlns:svg="http://www.w3.org/2000/svg">
  <defs
     id="defs1" />
  <sodipodi:namedview
     id="namedview1"
     pagecolor="#ffffff"
     bordercolor="#000000"
     borderopacity="0.25"
     inkscape:showpageshadow="2"
     inkscape:pageopacity="0.0"
     inkscape:pagecheckerboard="0"
     inkscape:deskcolor="#d1d1d1" />
  <path
     id="path1"
     style="baseline-shift:baseline;display:inline;overflow:visible;vector-effect:none;fill:#000000;stroke:none;stroke-linecap:butt;stroke-linejoin:miter;enable-background:accumulate;stop-color:#000000;stop-opacity:1;opacity:1"
     d="M 9.3007812 2.7480469 C 9.1085878 2.7500461 8.9098361 2.7636654 8.703125 2.7890625 C 8.1518953 2.856788 7.5489257 3.0105078 6.90625 3.2675781 A 0.25 0.25 0 0 0 6.7675781 3.59375 A 0.25 0.25 0 0 0 7.09375 3.7324219 C 9.523047 2.7607031 11.116836 3.390808 11.660156 4.3144531 C 11.931817 4.7762757 11.959888 5.3174545 11.697266 5.8496094 C 11.434644 6.3817643 10.867217 6.9074597 9.9121094 7.265625 C 5.6309466 8.5287622 3.5513974 10.433698 2.9511719 12.234375 C 2.3505597 14.036212 3.3059572 15.694637 4.9179688 16.234375 C 6.2543998 16.763393 7.5479665 16.352209 8.7363281 15.533203 C 9.9282581 14.711738 11.058147 13.482785 12.181641 12.296875 C 13.305135 11.110965 14.421822 9.9708397 15.53125 9.3261719 C 16.640678 8.681504 17.696755 8.5102404 18.871094 9.2148438 C 20.051738 9.9232301 20.666557 11.060625 20.869141 12.388672 C 21.071724 13.716718 20.846551 15.227318 20.328125 16.599609 C 20.234205 16.84823 20.086754 17.055326 19.974609 17.292969 C 18.996866 16.118893 18.02849 15.249021 17.123047 14.927734 C 15.835113 14.470725 14.674822 14.789514 13.894531 15.501953 C 13.114241 16.214392 12.696986 17.304466 12.806641 18.392578 C 12.916295 19.48069 13.57159 20.564115 14.888672 21.222656 A 0.250025 0.250025 0 0 0 14.921875 21.236328 C 16.141743 21.642951 17.366484 21.228128 18.386719 20.371094 C 19.044047 19.818938 19.588267 19.049327 20.066406 18.210938 C 20.309003 18.541453 20.5424 18.730426 20.787109 19.130859 A 0.25 0.25 0 0 0 21.130859 19.212891 A 0.25 0.25 0 0 0 21.212891 18.869141 C 20.912411 18.377446 20.614975 18.119478 20.314453 17.724609 C 20.474008 17.405558 20.668937 17.114049 20.796875 16.775391 C 21.340954 15.335182 21.584526 13.752032 21.365234 12.314453 C 21.145948 10.876879 20.448262 9.5767699 19.128906 8.7851562 C 17.803245 7.9897595 16.484322 8.193496 15.28125 8.8925781 C 14.078178 9.5916603 12.944865 10.764035 11.818359 11.953125 C 10.691853 13.142215 9.5717419 14.350762 8.4511719 15.123047 C 7.3306019 15.895332 6.2530368 16.231293 5.09375 15.767578 A 0.250025 0.250025 0 0 0 5.078125 15.763672 C 3.6927576 15.301877 2.8999782 13.962175 3.4238281 12.390625 C 3.9476781 10.819075 5.8648685 8.9771295 10.070312 7.7402344 A 0.250025 0.250025 0 0 0 10.087891 7.734375 C 11.132781 7.3425409 11.815356 6.7432357 12.146484 6.0722656 C 12.477612 5.4012955 12.443183 4.6612243 12.089844 4.0605469 C 11.626085 3.2721577 10.646135 2.7340523 9.3007812 2.7480469 z M 15.767578 15.214844 C 16.132399 15.194107 16.529851 15.249502 16.955078 15.400391 C 17.788498 15.69612 18.745591 16.56182 19.726562 17.78125 C 19.254371 18.650154 18.711349 19.44653 18.066406 19.988281 C 17.138868 20.767413 16.119849 21.097356 15.095703 20.763672 C 13.927833 20.171907 13.395637 19.263672 13.302734 18.341797 C 13.209264 17.414284 13.573259 16.473108 14.230469 15.873047 C 14.559074 15.573016 14.956857 15.353167 15.414062 15.259766 C 15.528364 15.236416 15.645971 15.221756 15.767578 15.214844 z " />
</svg>
