<?xml version="1.0" encoding="UTF-8" standalone="no"?>
<svg
   width="24"
   height="24"
   viewBox="0 0 24 24"
   fill="none"
   stroke="currentColor"
   stroke-width="0.5"
   stroke-linecap="round"
   stroke-linejoin="round"
   version="1.1"
   id="svg8"
   sodipodi:docname=".tmp_message-circle-dashed.svg"
   xmlns:inkscape="http://www.inkscape.org/namespaces/inkscape"
   xmlns:sodipodi="http://sodipodi.sourceforge.net/DTD/sodipodi-0.dtd"
   xmlns="http://www.w3.org/2000/svg"
   xmlns:svg="http://www.w3.org/2000/svg">
  <defs
     id="defs8" />
  <sodipodi:namedview
     id="namedview8"
     pagecolor="#ffffff"
     bordercolor="#000000"
     borderopacity="0.25"
     inkscape:showpageshadow="2"
     inkscape:pageopacity="0.0"
     inkscape:pagecheckerboard="0"
     inkscape:deskcolor="#d1d1d1" />
  <path
     id="path1"
     style="baseline-shift:baseline;display:inline;overflow:visible;vector-effect:none;fill:#000000;stroke:none;stroke-linecap:butt;stroke-linejoin:miter;enable-background:accumulate;stop-color:#000000;stop-opacity:1;opacity:1"
     d="M 12 1.75 C 11.347966 1.75 10.695933 1.8130248 10.052734 1.9375 A 0.25 0.25 0 0 0 9.8554688 2.2304688 A 0.25 0.25 0 0 0 10.148438 2.4277344 C 11.372087 2.190927 12.627912 2.190927 13.851562 2.4277344 A 0.25 0.25 0 0 0 14.144531 2.2304688 A 0.25 0.25 0 0 0 13.947266 1.9375 C 13.304067 1.8130249 12.652034 1.75 12 1.75 z M 6.4042969 3.4511719 A 0.25 0.25 0 0 0 6.28125 3.4941406 C 5.1905177 4.2273008 4.2508742 5.1619957 3.5136719 6.25 A 0.25 0.25 0 0 0 3.5800781 6.5976562 A 0.25 0.25 0 0 0 3.9277344 6.53125 C 4.6289786 5.4963147 5.5230167 4.6056023 6.5605469 3.9082031 A 0.25 0.25 0 0 0 6.6289062 3.5625 A 0.25 0.25 0 0 0 6.4042969 3.4511719 z M 17.595703 3.4707031 A 0.25 0.25 0 0 0 17.402344 3.5800781 A 0.25 0.25 0 0 0 17.46875 3.9277344 C 18.503685 4.6289786 19.394398 5.5210637 20.091797 6.5585938 A 0.25 0.25 0 0 0 20.4375 6.6269531 A 0.25 0.25 0 0 0 20.505859 6.28125 C 19.772699 5.1905177 18.838004 4.2508742 17.75 3.5136719 A 0.25 0.25 0 0 0 17.595703 3.4707031 z M 2.1660156 9.8515625 A 0.25 0.25 0 0 0 1.9375 10.052734 C 1.6885497 11.339131 1.6885497 12.660869 1.9375 13.947266 A 0.25 0.25 0 0 0 2.2304688 14.144531 A 0.25 0.25 0 0 0 2.4277344 13.851562 C 2.190927 12.627911 2.190927 11.372087 2.4277344 10.148438 A 0.25 0.25 0 0 0 2.2304688 9.8554688 A 0.25 0.25 0 0 0 2.1660156 9.8515625 z M 21.802734 9.8515625 A 0.25 0.25 0 0 0 21.769531 9.8554688 A 0.25 0.25 0 0 0 21.572266 10.148438 C 21.809073 11.372087 21.809073 12.627912 21.572266 13.851562 A 0.25 0.25 0 0 0 21.769531 14.144531 A 0.25 0.25 0 0 0 22.0625 13.947266 C 22.31145 12.660869 22.31145 11.339131 22.0625 10.052734 A 0.25 0.25 0 0 0 21.802734 9.8515625 z M 20.263672 17.359375 A 0.25 0.25 0 0 0 20.072266 17.470703 C 19.371021 18.505638 18.478936 19.394398 17.441406 20.091797 A 0.25 0.25 0 0 0 17.373047 20.439453 A 0.25 0.25 0 0 0 17.71875 20.507812 C 18.809482 19.774652 19.749126 18.838004 20.486328 17.75 A 0.25 0.25 0 0 0 20.419922 17.402344 A 0.25 0.25 0 0 0 20.263672 17.359375 z M 2.9667969 17.568359 A 0.25 0.25 0 0 0 2.7480469 17.740234 L 1.7832031 20.720703 A 0.250025 0.250025 0 0 0 1.7753906 20.748047 C 1.5893351 21.647738 2.4323757 22.444841 3.3203125 22.208984 A 0.250025 0.250025 0 0 0 3.328125 22.207031 L 6.2324219 21.357422 A 0.25 0.25 0 0 0 6.4023438 21.046875 A 0.25 0.25 0 0 0 6.09375 20.876953 L 3.1933594 21.724609 C 2.646048 21.869988 2.1564431 21.40559 2.2675781 20.851562 L 3.2246094 17.894531 A 0.25 0.25 0 0 0 3.0625 17.580078 A 0.25 0.25 0 0 0 2.9667969 17.568359 z M 10.083984 21.568359 A 0.25 0.25 0 0 0 9.8554688 21.769531 A 0.25 0.25 0 0 0 10.052734 22.0625 C 11.339131 22.31145 12.660869 22.31145 13.947266 22.0625 A 0.25 0.25 0 0 0 14.144531 21.769531 A 0.25 0.25 0 0 0 13.851562 21.572266 C 12.627911 21.809073 11.372087 21.809073 10.148438 21.572266 A 0.25 0.25 0 0 0 10.083984 21.568359 z " />
</svg>
