<?xml version="1.0" encoding="UTF-8" standalone="no"?>
<svg
   width="24"
   height="24"
   viewBox="0 0 24 24"
   fill="none"
   stroke="currentColor"
   stroke-width="0.5"
   stroke-linecap="round"
   stroke-linejoin="round"
   version="1.1"
   id="svg5"
   sodipodi:docname=".tmp_mouse-pointer-click.svg"
   xmlns:inkscape="http://www.inkscape.org/namespaces/inkscape"
   xmlns:sodipodi="http://sodipodi.sourceforge.net/DTD/sodipodi-0.dtd"
   xmlns="http://www.w3.org/2000/svg"
   xmlns:svg="http://www.w3.org/2000/svg">
  <defs
     id="defs5" />
  <sodipodi:namedview
     id="namedview5"
     pagecolor="#ffffff"
     bordercolor="#000000"
     borderopacity="0.25"
     inkscape:showpageshadow="2"
     inkscape:pageopacity="0.0"
     inkscape:pagecheckerboard="0"
     inkscape:deskcolor="#d1d1d1" />
  <path
     id="path1"
     style="baseline-shift:baseline;display:inline;overflow:visible;vector-effect:none;fill:#000000;stroke:none;stroke-linecap:butt;stroke-linejoin:miter;enable-background:accumulate;stop-color:#000000;stop-opacity:1;opacity:1"
     d="M 7.1972656 1.9492188 A 0.25 0.25 0 0 0 7.1328125 1.9589844 A 0.25 0.25 0 0 0 6.9589844 2.265625 L 7.7597656 5.1660156 A 0.25 0.25 0 0 0 8.0664062 5.3417969 A 0.25 0.25 0 0 0 8.2402344 5.0332031 L 7.4414062 2.1328125 A 0.25 0.25 0 0 0 7.1972656 1.9492188 z M 14.007812 3.8496094 A 0.25 0.25 0 0 0 13.828125 3.9179688 L 11.828125 5.8183594 A 0.25 0.25 0 0 0 11.818359 6.171875 A 0.25 0.25 0 0 0 12.171875 6.1816406 L 14.171875 4.28125 A 0.25 0.25 0 0 0 14.181641 3.9277344 A 0.25 0.25 0 0 0 14.007812 3.8496094 z M 2.2011719 6.9492188 A 0.25 0.25 0 0 0 1.9589844 7.1328125 A 0.25 0.25 0 0 0 2.1328125 7.4414062 L 5.0332031 8.2402344 A 0.25 0.25 0 0 0 5.3417969 8.0664062 A 0.25 0.25 0 0 0 5.1660156 7.7597656 L 2.265625 6.9589844 A 0.25 0.25 0 0 0 2.2011719 6.9492188 z M 9.4472656 8.75 C 9.2622415 8.7624509 9.0907671 8.8428266 8.9667969 8.9667969 C 8.7684444 9.1651493 8.6795041 9.4876086 8.8066406 9.7871094 L 13.304688 20.783203 C 13.436728 21.108166 13.762084 21.273097 14.058594 21.25 C 14.355104 21.2269 14.650341 21.015318 14.730469 20.673828 L 15.769531 16.324219 C 15.835601 16.049246 16.049157 15.835232 16.324219 15.769531 A 0.250025 0.250025 0 0 0 16.326172 15.769531 L 20.673828 14.728516 C 21.014019 14.647546 21.22498 14.354412 21.248047 14.058594 C 21.271117 13.762775 21.108684 13.439364 20.785156 13.306641 A 0.250025 0.250025 0 0 0 20.785156 13.304688 L 9.7871094 8.8066406 C 9.6747966 8.7589644 9.5582801 8.7425295 9.4472656 8.75 z M 9.4746094 9.2441406 C 9.5105579 9.2419379 9.5495067 9.2496262 9.5917969 9.2675781 A 0.250025 0.250025 0 0 0 9.5957031 9.2675781 L 20.595703 13.767578 C 20.721558 13.819208 20.758147 13.915055 20.75 14.019531 C 20.7419 14.124008 20.69093 14.210689 20.558594 14.242188 L 16.208984 15.283203 C 15.751878 15.392387 15.393005 15.750073 15.283203 16.207031 L 14.244141 20.558594 C 14.212931 20.691614 14.124317 20.743791 14.019531 20.751953 C 13.914745 20.760153 13.820965 20.722283 13.769531 20.595703 A 0.250025 0.250025 0 0 0 13.767578 20.595703 L 9.2675781 9.5957031 A 0.250025 0.250025 0 0 0 9.2675781 9.5917969 C 9.2197063 9.479027 9.2514814 9.3891436 9.3203125 9.3203125 C 9.3633319 9.2772931 9.4146952 9.2478119 9.4746094 9.2441406 z M 5.9921875 11.75 A 0.25 0.25 0 0 0 5.8183594 11.828125 L 3.9179688 13.828125 A 0.25 0.25 0 0 0 3.9277344 14.181641 A 0.25 0.25 0 0 0 4.28125 14.171875 L 6.1816406 12.171875 A 0.25 0.25 0 0 0 6.171875 11.818359 A 0.25 0.25 0 0 0 5.9921875 11.75 z " />
</svg>
