<?xml version="1.0" encoding="UTF-8" standalone="no"?>
<svg
   width="24"
   height="24"
   viewBox="0 0 24 24"
   fill="none"
   stroke="currentColor"
   stroke-width="0.5"
   stroke-linecap="round"
   stroke-linejoin="round"
   version="1.1"
   id="svg2"
   sodipodi:docname=".tmp_move-down-left.svg"
   xmlns:inkscape="http://www.inkscape.org/namespaces/inkscape"
   xmlns:sodipodi="http://sodipodi.sourceforge.net/DTD/sodipodi-0.dtd"
   xmlns="http://www.w3.org/2000/svg"
   xmlns:svg="http://www.w3.org/2000/svg">
  <defs
     id="defs2" />
  <sodipodi:namedview
     id="namedview2"
     pagecolor="#ffffff"
     bordercolor="#000000"
     borderopacity="0.25"
     inkscape:showpageshadow="2"
     inkscape:pageopacity="0.0"
     inkscape:pagecheckerboard="0"
     inkscape:deskcolor="#d1d1d1" />
  <path
     id="path1"
     style="baseline-shift:baseline;display:inline;overflow:visible;vector-effect:none;fill:#000000;stroke:none;stroke-linecap:butt;stroke-linejoin:miter;enable-background:accumulate;stop-color:#000000;stop-opacity:1;opacity:1"
     d="M 19 4.7480469 A 0.25 0.25 0 0 0 18.822266 4.8222656 L 5.25 18.394531 L 5.25 13 A 0.25 0.25 0 0 0 5 12.75 A 0.25 0.25 0 0 0 4.75 13 L 4.75 18.96875 A 0.25 0.25 0 0 0 4.7578125 19.064453 A 0.25 0.25 0 0 0 4.7578125 19.066406 A 0.25 0.25 0 0 0 4.7832031 19.125 A 0.25 0.25 0 0 0 4.7832031 19.126953 A 0.250025 0.250025 0 0 0 4.8476562 19.199219 A 0.25 0.25 0 0 0 4.8730469 19.216797 A 0.250025 0.250025 0 0 0 4.875 19.216797 A 0.25 0.25 0 0 0 4.9335938 19.242188 A 0.250025 0.250025 0 0 0 4.9355469 19.242188 A 0.25 0.25 0 0 0 5.03125 19.25 L 11 19.25 A 0.25 0.25 0 0 0 11.25 19 A 0.25 0.25 0 0 0 11 18.75 L 5.6054688 18.75 L 19.177734 5.1777344 A 0.25 0.25 0 0 0 19.177734 4.8222656 A 0.25 0.25 0 0 0 19 4.7480469 z " />
</svg>
