<?xml version="1.0" encoding="UTF-8" standalone="no"?>
<svg
   width="24"
   height="24"
   viewBox="0 0 24 24"
   fill="none"
   stroke="currentColor"
   stroke-width="0.5"
   stroke-linecap="round"
   stroke-linejoin="round"
   version="1.1"
   id="svg1"
   sodipodi:docname=".tmp_omega.svg"
   xmlns:inkscape="http://www.inkscape.org/namespaces/inkscape"
   xmlns:sodipodi="http://sodipodi.sourceforge.net/DTD/sodipodi-0.dtd"
   xmlns="http://www.w3.org/2000/svg"
   xmlns:svg="http://www.w3.org/2000/svg">
  <defs
     id="defs1" />
  <sodipodi:namedview
     id="namedview1"
     pagecolor="#ffffff"
     bordercolor="#000000"
     borderopacity="0.25"
     inkscape:showpageshadow="2"
     inkscape:pageopacity="0.0"
     inkscape:pagecheckerboard="0"
     inkscape:deskcolor="#d1d1d1" />
  <path
     id="path1"
     style="baseline-shift:baseline;display:inline;overflow:visible;vector-effect:none;fill:#000000;stroke:none;stroke-linecap:butt;stroke-linejoin:miter;enable-background:accumulate;stop-color:#000000;stop-opacity:1;opacity:1"
     d="M 11.998047 3.7519531 C 7.8732065 3.7524387 5.0059319 6.4671543 4.0703125 9.7226562 C 3.1346931 12.978158 4.1237446 16.801889 7.6210938 18.992188 A 0.250025 0.250025 0 0 0 7.6210938 18.994141 C 7.7002178 19.042941 7.7490003 19.127745 7.75 19.220703 L 7.75 19.5 C 7.75 19.641032 7.6410323 19.75 7.5 19.75 L 3 19.75 A 0.25 0.25 0 0 0 2.75 20 A 0.25 0.25 0 0 0 3 20.25 L 7.5 20.25 C 7.9112524 20.25 8.25 19.911252 8.25 19.5 L 8.25 19.21875 A 0.250025 0.250025 0 0 0 8.25 19.214844 C 8.2471628 18.95101 8.1093326 18.706862 7.8847656 18.568359 C 4.5722613 16.493824 3.6691881 12.928845 4.5507812 9.8613281 C 5.4323744 6.7938114 8.0913633 4.2524131 11.998047 4.2519531 C 15.90473 4.2514932 18.56495 6.792066 19.447266 9.859375 C 20.329358 12.925909 19.425196 16.490862 16.115234 18.566406 L 16.113281 18.568359 C 15.889743 18.707356 15.752323 18.951435 15.75 19.214844 A 0.250025 0.250025 0 0 0 15.75 19.21875 L 15.75 19.5 C 15.75 19.911252 16.088748 20.25 16.5 20.25 L 21 20.25 A 0.25 0.25 0 0 0 21.25 20 A 0.25 0.25 0 0 0 21 19.75 L 16.5 19.75 C 16.358968 19.75 16.25 19.641032 16.25 19.5 L 16.25 19.220703 L 16.25 19.21875 C 16.2514 19.12631 16.30014 19.04077 16.378906 18.992188 C 19.87574 16.801065 20.86412 12.975985 19.927734 9.7207031 C 18.991348 6.4654216 16.122887 3.7514675 11.998047 3.7519531 z " />
</svg>
