<?xml version="1.0" encoding="UTF-8" standalone="no"?>
<svg
   width="24"
   height="24"
   viewBox="0 0 24 24"
   fill="none"
   stroke="currentColor"
   stroke-width="0.5"
   stroke-linecap="round"
   stroke-linejoin="round"
   version="1.1"
   id="svg2"
   sodipodi:docname=".tmp_pause.svg"
   xmlns:inkscape="http://www.inkscape.org/namespaces/inkscape"
   xmlns:sodipodi="http://sodipodi.sourceforge.net/DTD/sodipodi-0.dtd"
   xmlns="http://www.w3.org/2000/svg"
   xmlns:svg="http://www.w3.org/2000/svg">
  <defs
     id="defs2" />
  <sodipodi:namedview
     id="namedview2"
     pagecolor="#ffffff"
     bordercolor="#000000"
     borderopacity="0.25"
     inkscape:showpageshadow="2"
     inkscape:pageopacity="0.0"
     inkscape:pagecheckerboard="0"
     inkscape:deskcolor="#d1d1d1" />
  <path
     id="rect1"
     style="baseline-shift:baseline;display:inline;overflow:visible;vector-effect:none;fill:#000000;stroke:none;stroke-linecap:butt;stroke-linejoin:miter;enable-background:accumulate;stop-color:#000000;stop-opacity:1;opacity:1"
     d="M 6 2.75 C 5.3118243 2.75 4.75 3.3118243 4.75 4 L 4.75 20 C 4.75 20.688176 5.3118243 21.25 6 21.25 L 9 21.25 C 9.6881757 21.25 10.25 20.688176 10.25 20 L 10.25 4 C 10.25 3.3118243 9.6881757 2.75 9 2.75 L 6 2.75 z M 15 2.75 C 14.311824 2.75 13.75 3.3118243 13.75 4 L 13.75 20 C 13.75 20.688176 14.311824 21.25 15 21.25 L 18 21.25 C 18.688176 21.25 19.25 20.688176 19.25 20 L 19.25 4 C 19.25 3.3118243 18.688176 2.75 18 2.75 L 15 2.75 z M 6 3.25 L 9 3.25 C 9.4198243 3.25 9.75 3.5801757 9.75 4 L 9.75 20 C 9.75 20.419824 9.4198243 20.75 9 20.75 L 6 20.75 C 5.5801757 20.75 5.25 20.419824 5.25 20 L 5.25 4 C 5.25 3.5801757 5.5801757 3.25 6 3.25 z M 15 3.25 L 18 3.25 C 18.419824 3.25 18.75 3.5801757 18.75 4 L 18.75 20 C 18.75 20.419824 18.419824 20.75 18 20.75 L 15 20.75 C 14.580176 20.75 14.25 20.419824 14.25 20 L 14.25 4 C 14.25 3.5801757 14.580176 3.25 15 3.25 z " />
</svg>
