<?xml version="1.0" encoding="UTF-8" standalone="no"?>
<svg
   width="24"
   height="24"
   viewBox="0 0 24 24"
   fill="none"
   stroke="currentColor"
   stroke-width="0.5"
   stroke-linecap="round"
   stroke-linejoin="round"
   version="1.1"
   id="svg2"
   sodipodi:docname=".tmp_plane-takeoff.svg"
   xmlns:inkscape="http://www.inkscape.org/namespaces/inkscape"
   xmlns:sodipodi="http://sodipodi.sourceforge.net/DTD/sodipodi-0.dtd"
   xmlns="http://www.w3.org/2000/svg"
   xmlns:svg="http://www.w3.org/2000/svg">
  <defs
     id="defs2" />
  <sodipodi:namedview
     id="namedview2"
     pagecolor="#ffffff"
     bordercolor="#000000"
     borderopacity="0.25"
     inkscape:showpageshadow="2"
     inkscape:pageopacity="0.0"
     inkscape:pagecheckerboard="0"
     inkscape:deskcolor="#d1d1d1" />
  <path
     id="path1"
     style="baseline-shift:baseline;display:inline;overflow:visible;vector-effect:none;fill:#000000;stroke:none;stroke-linecap:butt;stroke-linejoin:miter;enable-background:accumulate;stop-color:#000000;stop-opacity:1;opacity:1"
     d="M 6.6914062 5.0976562 C 6.3834319 5.1102672 6.0751129 5.1854522 5.7890625 5.3261719 L 4.8886719 5.7773438 A 0.250025 0.250025 0 0 0 4.7773438 6.1113281 L 7.6640625 11.884766 L 6.7597656 12.326172 A 0.250025 0.250025 0 0 0 6.7578125 12.326172 C 6.2628909 12.575564 5.6787339 12.574946 5.1835938 12.326172 L 5.1816406 12.326172 L 5.0273438 12.234375 A 0.250025 0.250025 0 0 0 5.0117188 12.226562 C 4.3750642 11.90575 3.6249358 11.905749 2.9882812 12.226562 L 1.8886719 12.777344 A 0.250025 0.250025 0 0 0 1.7773438 13.111328 L 3.7773438 17.111328 A 0.250025 0.250025 0 0 0 3.9589844 17.246094 L 6.3183594 17.646484 A 0.250025 0.250025 0 0 0 6.3457031 17.623047 C 6.8042618 17.694397 7.2751371 17.630047 7.6914062 17.423828 L 20.53125 11.054688 A 0.250025 0.250025 0 0 0 20.533203 11.052734 C 21.051064 10.788295 21.459558 10.367994 21.712891 9.8613281 L 22.091797 9.1035156 C 22.568117 8.1787302 22.070147 7.0390104 21.068359 6.7597656 L 21.066406 6.7597656 L 20.099609 6.4804688 A 0.250025 0.250025 0 0 0 20.097656 6.4785156 C 19.460105 6.3013564 18.778419 6.3681382 18.1875 6.6660156 L 14 8.7265625 A 0.250025 0.250025 0 0 0 13.998047 8.7265625 C 13.401642 9.0224878 12.691979 8.9539752 12.162109 8.5507812 A 0.250025 0.250025 0 0 0 12.160156 8.5488281 L 8.140625 5.5507812 L 8.1386719 5.5488281 C 7.8002362 5.2932416 7.4049446 5.1444063 6.9980469 5.1054688 C 6.8961122 5.0957143 6.7940644 5.0934526 6.6914062 5.0976562 z M 6.7109375 5.5957031 C 6.7906595 5.5924284 6.8699855 5.5939804 6.9492188 5.6015625 C 7.2661517 5.6318915 7.5758878 5.749396 7.8398438 5.9492188 A 0.250025 0.250025 0 0 0 7.8398438 5.9511719 L 11.861328 8.9511719 C 12.541397 9.4674072 13.455722 9.5533679 14.220703 9.1738281 L 18.410156 7.1152344 A 0.250025 0.250025 0 0 0 18.412109 7.1132812 C 18.891468 6.8716402 19.443625 6.8177206 19.960938 6.9609375 L 20.931641 7.2402344 A 0.250025 0.250025 0 0 0 20.933594 7.2402344 C 21.641261 7.4367833 21.984782 8.2219833 21.648438 8.875 A 0.250025 0.250025 0 0 0 21.646484 8.8789062 L 21.265625 9.6386719 C 21.058958 10.052006 20.728779 10.391862 20.306641 10.607422 L 7.46875 16.976562 C 7.1383615 17.140208 6.7659149 17.194071 6.4023438 17.132812 A 0.250025 0.250025 0 0 0 6.3808594 17.150391 L 4.1660156 16.775391 L 2.3359375 13.111328 L 3.2109375 12.673828 A 0.250025 0.250025 0 0 0 3.2128906 12.673828 C 3.7084263 12.424126 4.2915737 12.424126 4.7871094 12.673828 L 4.9433594 12.765625 A 0.250025 0.250025 0 0 0 4.9570312 12.773438 C 5.593686 13.09425 6.3457673 13.09425 6.9824219 12.773438 L 8.109375 12.224609 A 0.250025 0.250025 0 0 0 8.2226562 11.888672 L 5.3339844 6.1113281 L 6.0097656 5.7734375 C 6.2325624 5.6638349 6.4717715 5.6055272 6.7109375 5.5957031 z M 2 21.75 A 0.25 0.25 0 0 0 1.75 22 A 0.25 0.25 0 0 0 2 22.25 L 22 22.25 A 0.25 0.25 0 0 0 22.25 22 A 0.25 0.25 0 0 0 22 21.75 L 2 21.75 z " />
</svg>
