<?xml version="1.0" encoding="UTF-8" standalone="no"?>
<svg
   width="24"
   height="24"
   viewBox="0 0 24 24"
   fill="none"
   stroke="currentColor"
   stroke-width="0.5"
   stroke-linecap="round"
   stroke-linejoin="round"
   version="1.1"
   id="svg4"
   sodipodi:docname=".tmp_radiation.svg"
   xmlns:inkscape="http://www.inkscape.org/namespaces/inkscape"
   xmlns:sodipodi="http://sodipodi.sourceforge.net/DTD/sodipodi-0.dtd"
   xmlns="http://www.w3.org/2000/svg"
   xmlns:svg="http://www.w3.org/2000/svg">
  <defs
     id="defs4" />
  <sodipodi:namedview
     id="namedview4"
     pagecolor="#ffffff"
     bordercolor="#000000"
     borderopacity="0.25"
     inkscape:showpageshadow="2"
     inkscape:pageopacity="0.0"
     inkscape:pagecheckerboard="0"
     inkscape:deskcolor="#d1d1d1" />
  <path
     id="path1"
     style="baseline-shift:baseline;display:inline;overflow:visible;vector-effect:none;fill:#000000;stroke:none;stroke-linecap:butt;stroke-linejoin:miter;enable-background:accumulate;stop-color:#000000;stop-opacity:1;opacity:1"
     d="M 6.6601562 3.5058594 C 6.4027993 3.5048175 6.1437536 3.582875 5.9199219 3.7480469 C 3.6195741 5.4431127 2.1317516 8.02158 1.8144531 10.861328 C 1.7339942 11.571662 2.2725592 12.21022 2.9863281 12.25 A 0.250025 0.250025 0 0 0 3 12.25 L 8 12.25 A 0.250025 0.250025 0 0 0 8.25 12 C 8.250034 10.659887 8.9644284 9.4220095 10.125 8.7519531 A 0.250025 0.250025 0 0 0 10.216797 8.4101562 L 7.7441406 4.1289062 C 7.5588236 3.8076177 7.2513258 3.6032508 6.9160156 3.5332031 C 6.8321881 3.5156912 6.7459419 3.5062067 6.6601562 3.5058594 z M 17.339844 3.5058594 C 17.254058 3.5062067 17.167812 3.5156912 17.083984 3.5332031 C 16.748674 3.6032511 16.441176 3.8076177 16.255859 4.1289062 L 13.783203 8.4101562 A 0.250025 0.250025 0 0 0 13.875 8.7519531 C 15.035572 9.4220095 15.749966 10.659887 15.75 12 A 0.250025 0.250025 0 0 0 16 12.25 L 21 12.25 A 0.250025 0.250025 0 0 0 21.013672 12.25 C 21.727441 12.21022 22.266006 11.571662 22.185547 10.861328 C 21.86825 8.02158 20.380426 5.4431127 18.080078 3.7480469 C 17.856247 3.582875 17.597201 3.5048175 17.339844 3.5058594 z M 6.6640625 4.0019531 C 6.7154573 4.0019389 6.7663806 4.0071276 6.8164062 4.0175781 C 7.0165084 4.0593801 7.1976957 4.1832535 7.3105469 4.3789062 L 9.6933594 8.5019531 C 8.5857781 9.2368611 7.8996102 10.423449 7.8164062 11.75 L 3.0136719 11.75 C 2.5797754 11.725818 2.2616363 11.349777 2.3105469 10.917969 A 0.250025 0.250025 0 0 0 2.3105469 10.916016 C 2.6123938 8.2146012 4.0284691 5.7629118 6.2167969 4.1503906 C 6.353102 4.0498071 6.5098782 4.0019959 6.6640625 4.0019531 z M 17.335938 4.0019531 C 17.490122 4.0019956 17.646898 4.0498063 17.783203 4.1503906 C 19.971531 5.7629118 21.387606 8.2145542 21.689453 10.916016 A 0.250025 0.250025 0 0 0 21.689453 10.917969 C 21.738363 11.349777 21.420225 11.725818 20.986328 11.75 L 16.183594 11.75 C 16.10039 10.423402 15.414222 9.2368611 14.306641 8.5019531 L 16.689453 4.3789062 C 16.802304 4.1832535 16.983492 4.0593803 17.183594 4.0175781 C 17.233619 4.0071276 17.284543 4.001939 17.335938 4.0019531 z M 12 11.75 A 0.25 0.25 0 0 0 11.75 12 A 0.25 0.25 0 0 0 12 12.25 L 12.009766 12.25 A 0.25 0.25 0 0 0 12.259766 12 A 0.25 0.25 0 0 0 12.009766 11.75 L 12 11.75 z M 10 15.214844 A 0.250025 0.250025 0 0 0 9.7832031 15.339844 L 7.3105469 19.621094 C 6.9399876 20.262923 7.2136079 21.093542 7.8925781 21.390625 C 10.510835 22.535697 13.489165 22.535697 16.107422 21.390625 C 16.786393 21.093542 17.060012 20.262923 16.689453 19.621094 L 14.216797 15.339844 A 0.250025 0.250025 0 0 0 13.875 15.248047 C 12.714399 15.91812 11.285601 15.91812 10.125 15.248047 A 0.250025 0.250025 0 0 0 10 15.214844 z M 10.126953 15.746094 C 11.315953 16.335963 12.684047 16.335963 13.873047 15.746094 L 16.255859 19.871094 C 16.481506 20.261926 16.319699 20.75269 15.90625 20.933594 C 13.415495 22.022905 10.584505 22.022905 8.09375 20.933594 C 7.6803012 20.75269 7.5184942 20.261926 7.7441406 19.871094 L 10.126953 15.746094 z " />
</svg>
