<?xml version="1.0" encoding="UTF-8" standalone="no"?>
<svg
   width="24"
   height="24"
   viewBox="0 0 24 24"
   fill="none"
   stroke="currentColor"
   stroke-width="0.5"
   stroke-linecap="round"
   stroke-linejoin="round"
   version="1.1"
   id="svg5"
   sodipodi:docname=".tmp_route-off.svg"
   xmlns:inkscape="http://www.inkscape.org/namespaces/inkscape"
   xmlns:sodipodi="http://sodipodi.sourceforge.net/DTD/sodipodi-0.dtd"
   xmlns="http://www.w3.org/2000/svg"
   xmlns:svg="http://www.w3.org/2000/svg">
  <defs
     id="defs5" />
  <sodipodi:namedview
     id="namedview5"
     pagecolor="#ffffff"
     bordercolor="#000000"
     borderopacity="0.25"
     inkscape:showpageshadow="2"
     inkscape:pageopacity="0.0"
     inkscape:pagecheckerboard="0"
     inkscape:deskcolor="#d1d1d1" />
  <path
     id="circle1"
     style="baseline-shift:baseline;display:inline;overflow:visible;vector-effect:none;fill:#000000;stroke:none;stroke-linecap:butt;stroke-linejoin:miter;enable-background:accumulate;stop-color:#000000;stop-opacity:1;opacity:1"
     d="M 2 1.7480469 A 0.25 0.25 0 0 0 1.8222656 1.8222656 A 0.25 0.25 0 0 0 1.8222656 2.1777344 L 4.7695312 5.125 C 3.1417695 5.9673691 2.5463 7.6705197 2.8359375 9.1855469 C 3.1447345 10.800793 4.4662202 12.239318 6.4980469 12.25 A 0.250025 0.250025 0 0 0 6.5 12.25 L 11.894531 12.25 L 18.298828 18.654297 C 18.018829 18.709068 17.731945 18.75 17.5 18.75 L 9.2402344 18.75 C 9.1121497 17.074379 7.7078566 15.75 6 15.75 C 4.2080357 15.75 2.75 17.208036 2.75 19 C 2.75 20.791964 4.2080357 22.25 6 22.25 C 7.7078566 22.25 9.1121497 20.925621 9.2402344 19.25 L 17.5 19.25 C 17.892658 19.25 18.338628 19.166468 18.720703 19.076172 L 21.822266 22.177734 A 0.25 0.25 0 0 0 22.177734 22.177734 A 0.25 0.25 0 0 0 22.177734 21.822266 L 18.980469 18.626953 A 0.25 0.25 0 0 0 18.957031 18.603516 L 2.1777344 1.8222656 A 0.25 0.25 0 0 0 2 1.7480469 z M 18 1.75 C 16.292144 1.75 14.88785 3.0743789 14.759766 4.75 L 10.699219 4.75 A 0.25 0.25 0 0 0 10.449219 5 A 0.25 0.25 0 0 0 10.699219 5.25 L 14.759766 5.25 C 14.88785 6.9256211 16.292144 8.25 18 8.25 C 19.791964 8.25 21.25 6.7919643 21.25 5 C 21.25 3.2080357 19.791964 1.75 18 1.75 z M 18 2.25 C 19.521744 2.25 20.75 3.4782558 20.75 5 C 20.75 6.5217442 19.521744 7.75 18 7.75 C 16.478256 7.75 15.25 6.5217442 15.25 5 C 15.25 3.4782558 16.478256 2.25 18 2.25 z M 5.1425781 5.4980469 L 11.394531 11.75 L 6.5019531 11.75 L 6.5 11.75 C 4.7007381 11.739566 3.596725 10.506998 3.3261719 9.0917969 C 3.063926 7.7200496 3.5919634 6.2127408 5.1425781 5.4980469 z M 17.681641 11.75 A 0.25 0.25 0 0 0 17.451172 11.986328 A 0.25 0.25 0 0 0 17.685547 12.25 C 19.340347 12.34214 20.657857 13.659653 20.75 15.314453 A 0.25 0.25 0 0 0 21.013672 15.548828 A 0.25 0.25 0 0 0 21.25 15.285156 C 21.143928 13.380211 19.619789 11.856072 17.714844 11.75 A 0.25 0.25 0 0 0 17.681641 11.75 z M 6 16.25 C 7.5217442 16.25 8.75 17.478256 8.75 19 C 8.75 20.521744 7.5217442 21.75 6 21.75 C 4.4782558 21.75 3.25 20.521744 3.25 19 C 3.25 17.478256 4.4782558 16.25 6 16.25 z " />
</svg>
