<?xml version="1.0" encoding="UTF-8" standalone="no"?>
<svg
   width="24"
   height="24"
   viewBox="0 0 24 24"
   fill="none"
   stroke="currentColor"
   stroke-width="0.5"
   stroke-linecap="round"
   stroke-linejoin="round"
   version="1.1"
   id="svg4"
   sodipodi:docname=".tmp_share-2.svg"
   xmlns:inkscape="http://www.inkscape.org/namespaces/inkscape"
   xmlns:sodipodi="http://sodipodi.sourceforge.net/DTD/sodipodi-0.dtd"
   xmlns="http://www.w3.org/2000/svg"
   xmlns:svg="http://www.w3.org/2000/svg">
  <defs
     id="defs4" />
  <sodipodi:namedview
     id="namedview4"
     pagecolor="#ffffff"
     bordercolor="#000000"
     borderopacity="0.25"
     inkscape:showpageshadow="2"
     inkscape:pageopacity="0.0"
     inkscape:pagecheckerboard="0"
     inkscape:deskcolor="#d1d1d1" />
  <path
     id="circle1"
     style="baseline-shift:baseline;display:inline;overflow:visible;vector-effect:none;fill:#000000;stroke:none;stroke-linecap:butt;stroke-linejoin:miter;enable-background:accumulate;stop-color:#000000;stop-opacity:1;opacity:1"
     d="M 18 1.75 C 16.208036 1.75 14.75 3.2080357 14.75 5 C 14.75 5.5073825 14.865954 5.9876921 15.074219 6.4160156 L 8.671875 10.152344 C 8.0846083 9.3055814 7.10617 8.75 6 8.75 C 4.2080357 8.75 2.75 10.208036 2.75 12 C 2.75 13.791964 4.2080357 15.25 6 15.25 C 7.1062354 15.25 8.0846199 14.694503 8.671875 13.847656 L 15.078125 17.578125 C 14.868287 18.007747 14.75 18.49058 14.75 19 C 14.75 20.791964 16.208036 22.25 18 22.25 C 19.791964 22.25 21.25 20.791964 21.25 19 C 21.25 17.208036 19.791964 15.75 18 15.75 C 16.895541 15.75 15.917646 16.303885 15.330078 17.148438 L 8.9257812 13.416016 C 9.134005 12.987726 9.25 12.507329 9.25 12 C 9.25 11.492617 9.1340462 11.012308 8.9257812 10.583984 L 15.328125 6.8476562 C 15.915392 7.6944185 16.89383 8.25 18 8.25 C 19.791964 8.25 21.25 6.7919643 21.25 5 C 21.25 3.2080357 19.791964 1.75 18 1.75 z M 18 2.25 C 19.521744 2.25 20.75 3.4782558 20.75 5 C 20.75 6.5217442 19.521744 7.75 18 7.75 C 16.996144 7.75 16.120701 7.21472 15.640625 6.4140625 A 0.25 0.25 0 0 0 15.625 6.3847656 A 0.25 0.25 0 0 0 15.605469 6.3574219 C 15.378607 5.9572803 15.25 5.4939596 15.25 5 C 15.25 3.4782558 16.478256 2.25 18 2.25 z M 6 9.25 C 7.0038569 9.25 7.8792989 9.7852793 8.359375 10.585938 A 0.25 0.25 0 0 0 8.375 10.615234 A 0.25 0.25 0 0 0 8.3945312 10.642578 C 8.6213932 11.04272 8.75 11.50604 8.75 12 C 8.75 12.490395 8.622264 12.949503 8.3984375 13.347656 A 0.25 0.25 0 0 0 8.3730469 13.384766 A 0.25 0.25 0 0 0 8.3554688 13.423828 C 7.8742961 14.219748 7.000286 14.75 6 14.75 C 4.4782558 14.75 3.25 13.521744 3.25 12 C 3.25 10.478256 4.4782558 9.25 6 9.25 z M 18 16.25 C 19.521744 16.25 20.75 17.478256 20.75 19 C 20.75 20.521744 19.521744 21.75 18 21.75 C 16.478256 21.75 15.25 20.521744 15.25 19 C 15.25 18.518986 15.371969 18.066672 15.587891 17.673828 A 0.25 0.25 0 0 0 15.636719 17.615234 A 0.25 0.25 0 0 0 15.664062 17.544922 C 16.148997 16.76617 17.012696 16.25 18 16.25 z " />
</svg>
