<?xml version="1.0" encoding="UTF-8" standalone="no"?>
<svg
   width="24"
   height="24"
   viewBox="0 0 24 24"
   fill="none"
   stroke="currentColor"
   stroke-width="0.5"
   stroke-linecap="round"
   stroke-linejoin="round"
   version="1.1"
   id="svg8"
   sodipodi:docname=".tmp_ship-wheel.svg"
   xmlns:inkscape="http://www.inkscape.org/namespaces/inkscape"
   xmlns:sodipodi="http://sodipodi.sourceforge.net/DTD/sodipodi-0.dtd"
   xmlns="http://www.w3.org/2000/svg"
   xmlns:svg="http://www.w3.org/2000/svg">
  <defs
     id="defs8" />
  <sodipodi:namedview
     id="namedview8"
     pagecolor="#ffffff"
     bordercolor="#000000"
     borderopacity="0.25"
     inkscape:showpageshadow="2"
     inkscape:pageopacity="0.0"
     inkscape:pagecheckerboard="0"
     inkscape:deskcolor="#d1d1d1" />
  <path
     id="circle1"
     style="baseline-shift:baseline;display:inline;overflow:visible;vector-effect:none;fill:#000000;stroke:none;stroke-linecap:butt;stroke-linejoin:miter;enable-background:accumulate;stop-color:#000000;stop-opacity:1;opacity:1"
     d="M 12 1.75 A 0.25 0.25 0 0 0 11.75 2 L 11.75 3.7539062 C 9.6621342 3.816172 7.7681022 4.6550755 6.3476562 5.9921875 L 5.1777344 4.8222656 A 0.25 0.25 0 0 0 4.8222656 4.8222656 A 0.25 0.25 0 0 0 4.8222656 5.1777344 L 5.9921875 6.3476562 C 4.6550755 7.7681022 3.816172 9.6621342 3.7539062 11.75 L 2 11.75 A 0.25 0.25 0 0 0 1.75 12 A 0.25 0.25 0 0 0 2 12.25 L 3.7539062 12.25 C 3.816172 14.337866 4.6550755 16.231898 5.9921875 17.652344 L 4.8222656 18.822266 A 0.25 0.25 0 0 0 4.8222656 19.177734 A 0.25 0.25 0 0 0 5.1777344 19.177734 L 6.3476562 18.007812 C 7.7681022 19.344925 9.6621342 20.183828 11.75 20.246094 L 11.75 22 A 0.25 0.25 0 0 0 12 22.25 A 0.25 0.25 0 0 0 12.25 22 L 12.25 20.246094 C 14.337866 20.183828 16.231898 19.344925 17.652344 18.007812 L 18.822266 19.177734 A 0.25 0.25 0 0 0 19.177734 19.177734 A 0.25 0.25 0 0 0 19.177734 18.822266 L 18.007812 17.652344 C 19.344925 16.231898 20.183828 14.337866 20.246094 12.25 L 22 12.25 A 0.25 0.25 0 0 0 22.25 12 A 0.25 0.25 0 0 0 22 11.75 L 20.246094 11.75 C 20.183828 9.6621342 19.344925 7.7681022 18.007812 6.3476562 L 19.177734 5.1777344 A 0.25 0.25 0 0 0 19.177734 4.8222656 A 0.25 0.25 0 0 0 18.822266 4.8222656 L 17.652344 5.9921875 C 16.231898 4.6550755 14.337866 3.816172 12.25 3.7539062 L 12.25 2 A 0.25 0.25 0 0 0 12 1.75 z M 11.75 4.2539062 L 11.75 9.2617188 C 11.179323 9.3134345 10.659144 9.5408808 10.242188 9.8886719 L 6.6992188 6.34375 C 8.0283641 5.0976216 9.7975385 4.3156484 11.75 4.2539062 z M 12.25 4.2539062 C 14.202462 4.3156484 15.971636 5.0976216 17.300781 6.34375 L 13.757812 9.8886719 C 13.340856 9.5408808 12.820677 9.3134345 12.25 9.2617188 L 12.25 4.2539062 z M 6.34375 6.6992188 L 9.8886719 10.242188 C 9.5408808 10.659144 9.3134345 11.179323 9.2617188 11.75 L 4.2539062 11.75 C 4.3156484 9.7975385 5.0976216 8.0283641 6.34375 6.6992188 z M 17.65625 6.6992188 C 18.902378 8.0283642 19.684352 9.7975384 19.746094 11.75 L 14.738281 11.75 C 14.686566 11.179323 14.459119 10.659144 14.111328 10.242188 L 17.65625 6.6992188 z M 12 9.75 C 13.245602 9.75 14.25 10.754398 14.25 12 C 14.25 13.245602 13.245602 14.25 12 14.25 C 10.754398 14.25 9.75 13.245602 9.75 12 C 9.75 10.754398 10.754398 9.75 12 9.75 z M 4.2539062 12.25 L 9.2617188 12.25 C 9.3134345 12.820677 9.5408808 13.340856 9.8886719 13.757812 L 6.34375 17.300781 C 5.0976216 15.971636 4.3156484 14.202462 4.2539062 12.25 z M 14.738281 12.25 L 19.746094 12.25 C 19.684352 14.202462 18.902379 15.971636 17.65625 17.300781 L 14.111328 13.757812 C 14.459119 13.340856 14.686566 12.820677 14.738281 12.25 z M 10.242188 14.111328 C 10.659144 14.459119 11.179323 14.686566 11.75 14.738281 L 11.75 19.746094 C 9.7975384 19.684352 8.0283642 18.902378 6.6992188 17.65625 L 10.242188 14.111328 z M 13.757812 14.111328 L 17.300781 17.65625 C 15.971636 18.902379 14.202462 19.684352 12.25 19.746094 L 12.25 14.738281 C 12.820677 14.686566 13.340856 14.459119 13.757812 14.111328 z " />
</svg>
