<?xml version="1.0" encoding="UTF-8" standalone="no"?>
<svg
   width="24"
   height="24"
   viewBox="0 0 24 24"
   fill="none"
   stroke="currentColor"
   stroke-width="0.5"
   stroke-linecap="round"
   stroke-linejoin="round"
   version="1.1"
   id="svg1"
   sodipodi:docname=".tmp_square-user.svg"
   xmlns:inkscape="http://www.inkscape.org/namespaces/inkscape"
   xmlns:sodipodi="http://sodipodi.sourceforge.net/DTD/sodipodi-0.dtd"
   xmlns="http://www.w3.org/2000/svg"
   xmlns:svg="http://www.w3.org/2000/svg">
  <defs
     id="defs1" />
  <sodipodi:namedview
     id="namedview1"
     pagecolor="#ffffff"
     bordercolor="#000000"
     borderopacity="0.25"
     inkscape:showpageshadow="2"
     inkscape:pageopacity="0.0"
     inkscape:pagecheckerboard="0"
     inkscape:deskcolor="#d1d1d1" />
  <path
     id="rect1"
     style="baseline-shift:baseline;display:inline;overflow:visible;vector-effect:none;fill:#000000;stroke:none;stroke-linecap:butt;stroke-linejoin:miter;enable-background:accumulate;stop-color:#000000;stop-opacity:1;opacity:1"
     d="M 5 2.75 C 3.7578243 2.75 2.75 3.7578243 2.75 5 L 2.75 19 C 2.75 20.242176 3.7578243 21.25 5 21.25 L 7 21.25 L 17 21.25 L 19 21.25 C 20.242176 21.25 21.25 20.242176 21.25 19 L 21.25 5 C 21.25 3.7578243 20.242176 2.75 19 2.75 L 5 2.75 z M 5 3.25 L 19 3.25 C 19.973824 3.25 20.75 4.0261757 20.75 5 L 20.75 19 C 20.75 19.973824 19.973824 20.75 19 20.75 L 17.25 20.75 L 17.25 19 C 17.25 17.76032 16.23968 16.75 15 16.75 L 9 16.75 C 7.7603205 16.75 6.75 17.76032 6.75 19 L 6.75 20.75 L 5 20.75 C 4.0261757 20.75 3.25 19.973824 3.25 19 L 3.25 5 C 3.25 4.0261757 4.0261757 3.25 5 3.25 z M 12 6.75 C 10.208036 6.75 8.75 8.2080357 8.75 10 C 8.75 11.791964 10.208036 13.25 12 13.25 C 13.791964 13.25 15.25 11.791964 15.25 10 C 15.25 8.2080357 13.791964 6.75 12 6.75 z M 12 7.25 C 13.521744 7.25 14.75 8.4782558 14.75 10 C 14.75 11.521744 13.521744 12.75 12 12.75 C 10.478256 12.75 9.25 11.521744 9.25 10 C 9.25 8.4782558 10.478256 7.25 12 7.25 z M 9 17.25 L 15 17.25 C 15.969459 17.25 16.75 18.030541 16.75 19 L 16.75 20.75 L 7.25 20.75 L 7.25 19 C 7.25 18.030541 8.0305405 17.25 9 17.25 z " />
</svg>
