<?xml version="1.0" encoding="UTF-8" standalone="no"?>
<svg
   width="24"
   height="24"
   viewBox="0 0 24 24"
   fill="none"
   stroke="currentColor"
   stroke-width="0.5"
   stroke-linecap="round"
   stroke-linejoin="round"
   version="1.1"
   id="svg2"
   sodipodi:docname=".tmp_square-power.svg"
   xmlns:inkscape="http://www.inkscape.org/namespaces/inkscape"
   xmlns:sodipodi="http://sodipodi.sourceforge.net/DTD/sodipodi-0.dtd"
   xmlns="http://www.w3.org/2000/svg"
   xmlns:svg="http://www.w3.org/2000/svg">
  <defs
     id="defs2" />
  <sodipodi:namedview
     id="namedview2"
     pagecolor="#ffffff"
     bordercolor="#000000"
     borderopacity="0.25"
     inkscape:showpageshadow="2"
     inkscape:pageopacity="0.0"
     inkscape:pagecheckerboard="0"
     inkscape:deskcolor="#d1d1d1" />
  <path
     id="path1"
     style="baseline-shift:baseline;display:inline;overflow:visible;vector-effect:none;fill:#000000;stroke:none;stroke-linecap:butt;stroke-linejoin:miter;enable-background:accumulate;stop-color:#000000;stop-opacity:1;opacity:1"
     d="M 5 2.75 C 3.7578243 2.75 2.75 3.7578243 2.75 5 L 2.75 19 C 2.75 20.242176 3.7578243 21.25 5 21.25 L 19 21.25 C 20.242176 21.25 21.25 20.242176 21.25 19 L 21.25 5 C 21.25 3.7578243 20.242176 2.75 19 2.75 L 5 2.75 z M 5 3.25 L 19 3.25 C 19.973824 3.25 20.75 4.0261757 20.75 5 L 20.75 19 C 20.75 19.973824 19.973824 20.75 19 20.75 L 5 20.75 C 4.0261757 20.75 3.25 19.973824 3.25 19 L 3.25 5 C 3.25 4.0261757 4.0261757 3.25 5 3.25 z M 12 6.75 A 0.25 0.25 0 0 0 11.75 7 L 11.75 11 A 0.25 0.25 0 0 0 12 11.25 A 0.25 0.25 0 0 0 12.25 11 L 12.25 7 A 0.25 0.25 0 0 0 12 6.75 z M 16 8.7480469 A 0.25 0.25 0 0 0 15.847656 8.7988281 A 0.25 0.25 0 0 0 15.798828 9.1484375 C 18.158849 12.291037 15.931826 16.747544 12.001953 16.75 C 8.0720808 16.752456 5.8411769 12.297891 8.1972656 9.1523438 A 0.25 0.25 0 0 0 8.1484375 8.8027344 A 0.25 0.25 0 0 0 7.7988281 8.8535156 C 5.2146094 12.303633 7.693498 17.252694 12.003906 17.25 C 16.314315 17.2473 18.785795 12.29454 16.197266 8.8476562 A 0.25 0.25 0 0 0 16 8.7480469 z " />
</svg>
