<?xml version="1.0" encoding="UTF-8" standalone="no"?>
<svg
   width="24"
   height="24"
   viewBox="0 0 24 24"
   fill="none"
   stroke="currentColor"
   stroke-width="0.5"
   stroke-linecap="round"
   stroke-linejoin="round"
   version="1.1"
   id="svg2"
   sodipodi:docname=".tmp_step-back.svg"
   xmlns:inkscape="http://www.inkscape.org/namespaces/inkscape"
   xmlns:sodipodi="http://sodipodi.sourceforge.net/DTD/sodipodi-0.dtd"
   xmlns="http://www.w3.org/2000/svg"
   xmlns:svg="http://www.w3.org/2000/svg">
  <defs
     id="defs2" />
  <sodipodi:namedview
     id="namedview2"
     pagecolor="#ffffff"
     bordercolor="#000000"
     borderopacity="0.25"
     inkscape:showpageshadow="2"
     inkscape:pageopacity="0.0"
     inkscape:pagecheckerboard="0"
     inkscape:deskcolor="#d1d1d1" />
  <path
     id="path1"
     style="baseline-shift:baseline;display:inline;overflow:visible;vector-effect:none;fill:#000000;stroke:none;stroke-linecap:butt;stroke-linejoin:miter;enable-background:accumulate;stop-color:#000000;stop-opacity:1;opacity:1"
     d="M 21 3.75 A 0.25 0.25 0 0 0 20.75 4 L 20.75 20 A 0.25 0.25 0 0 0 21 20.25 A 0.25 0.25 0 0 0 21.25 20 L 21.25 4 A 0.25 0.25 0 0 0 21 3.75 z M 15.003906 3.7519531 C 14.614645 3.74861 14.214039 3.8469649 13.841797 4.0703125 L 3.8417969 10.070312 C 2.39309 10.939314 2.3954755 13.065173 3.8457031 13.931641 L 13.841797 19.929688 C 15.33076 20.823078 17.250017 19.736424 17.25 18 L 17.25 6 C 17.250013 4.6976818 16.171691 3.7619824 15.003906 3.7519531 z M 15.009766 4.2421875 C 15.920683 4.2431703 16.75001 4.9704153 16.75 6 L 16.75 18 C 16.750013 19.37278 15.276755 20.206295 14.099609 19.5 L 4.1035156 13.501953 A 0.250025 0.250025 0 0 0 4.1015625 13.501953 C 2.9565556 12.817846 2.9558033 11.186108 4.0996094 10.5 L 14.099609 4.5 C 14.393896 4.3234262 14.706113 4.2418599 15.009766 4.2421875 z " />
</svg>
