<?xml version="1.0" encoding="UTF-8" standalone="no"?>
<svg
   width="24"
   height="24"
   viewBox="0 0 24 24"
   fill="none"
   stroke="currentColor"
   stroke-width="0.5"
   stroke-linecap="round"
   stroke-linejoin="round"
   version="1.1"
   id="svg2"
   sodipodi:docname=".tmp_stretch-vertical.svg"
   xmlns:inkscape="http://www.inkscape.org/namespaces/inkscape"
   xmlns:sodipodi="http://sodipodi.sourceforge.net/DTD/sodipodi-0.dtd"
   xmlns="http://www.w3.org/2000/svg"
   xmlns:svg="http://www.w3.org/2000/svg">
  <defs
     id="defs2" />
  <sodipodi:namedview
     id="namedview2"
     pagecolor="#ffffff"
     bordercolor="#000000"
     borderopacity="0.25"
     inkscape:showpageshadow="2"
     inkscape:pageopacity="0.0"
     inkscape:pagecheckerboard="0"
     inkscape:deskcolor="#d1d1d1" />
  <path
     id="rect1"
     style="baseline-shift:baseline;display:inline;overflow:visible;vector-effect:none;fill:#000000;stroke:none;stroke-linecap:butt;stroke-linejoin:miter;enable-background:accumulate;stop-color:#000000;stop-opacity:1;opacity:1"
     d="M 6 1.75 C 4.7578243 1.75 3.75 2.7578243 3.75 4 L 3.75 20 C 3.75 21.242176 4.7578243 22.25 6 22.25 L 8 22.25 C 9.2421757 22.25 10.25 21.242176 10.25 20 L 10.25 4 C 10.25 2.7578243 9.2421757 1.75 8 1.75 L 6 1.75 z M 16 1.75 C 14.757824 1.75 13.75 2.7578243 13.75 4 L 13.75 20 C 13.75 21.242176 14.757824 22.25 16 22.25 L 18 22.25 C 19.242176 22.25 20.25 21.242176 20.25 20 L 20.25 4 C 20.25 2.7578243 19.242176 1.75 18 1.75 L 16 1.75 z M 6 2.25 L 8 2.25 C 8.9738243 2.25 9.75 3.0261757 9.75 4 L 9.75 20 C 9.75 20.973824 8.9738243 21.75 8 21.75 L 6 21.75 C 5.0261757 21.75 4.25 20.973824 4.25 20 L 4.25 4 C 4.25 3.0261757 5.0261757 2.25 6 2.25 z M 16 2.25 L 18 2.25 C 18.973824 2.25 19.75 3.0261757 19.75 4 L 19.75 20 C 19.75 20.973824 18.973824 21.75 18 21.75 L 16 21.75 C 15.026176 21.75 14.25 20.973824 14.25 20 L 14.25 4 C 14.25 3.0261757 15.026176 2.25 16 2.25 z " />
</svg>
