<?xml version="1.0" encoding="UTF-8" standalone="no"?>
<svg
   width="24"
   height="24"
   viewBox="0 0 24 24"
   fill="none"
   stroke="currentColor"
   stroke-width="0.5"
   stroke-linecap="round"
   stroke-linejoin="round"
   version="1.1"
   id="svg8"
   sodipodi:docname=".tmp_sun-medium.svg"
   xmlns:inkscape="http://www.inkscape.org/namespaces/inkscape"
   xmlns:sodipodi="http://sodipodi.sourceforge.net/DTD/sodipodi-0.dtd"
   xmlns="http://www.w3.org/2000/svg"
   xmlns:svg="http://www.w3.org/2000/svg">
  <defs
     id="defs8" />
  <sodipodi:namedview
     id="namedview8"
     pagecolor="#ffffff"
     bordercolor="#000000"
     borderopacity="0.25"
     inkscape:showpageshadow="2"
     inkscape:pageopacity="0.0"
     inkscape:pagecheckerboard="0"
     inkscape:deskcolor="#d1d1d1" />
  <path
     id="circle1"
     style="baseline-shift:baseline;display:inline;overflow:visible;vector-effect:none;fill:#000000;stroke:none;stroke-linecap:butt;stroke-linejoin:miter;enable-background:accumulate;stop-color:#000000;stop-opacity:1;opacity:1"
     d="M 12 2.75 A 0.25 0.25 0 0 0 11.75 3 L 11.75 4 A 0.25 0.25 0 0 0 12 4.25 A 0.25 0.25 0 0 0 12.25 4 L 12.25 3 A 0.25 0.25 0 0 0 12 2.75 z M 5.6367188 5.3867188 A 0.25 0.25 0 0 0 5.4589844 5.4589844 A 0.25 0.25 0 0 0 5.4589844 5.8125 L 6.1660156 6.5195312 A 0.25 0.25 0 0 0 6.5195312 6.5195312 A 0.25 0.25 0 0 0 6.5195312 6.1660156 L 5.8125 5.4589844 A 0.25 0.25 0 0 0 5.6367188 5.3867188 z M 18.365234 5.3867188 A 0.25 0.25 0 0 0 18.1875 5.4589844 L 17.480469 6.1660156 A 0.25 0.25 0 0 0 17.480469 6.5195312 A 0.25 0.25 0 0 0 17.833984 6.5195312 L 18.541016 5.8125 A 0.25 0.25 0 0 0 18.541016 5.4589844 A 0.25 0.25 0 0 0 18.365234 5.3867188 z M 12 7.75 C 9.655751 7.75 7.75 9.655751 7.75 12 C 7.75 14.344249 9.655751 16.25 12 16.25 C 14.344249 16.25 16.25 14.344249 16.25 12 C 16.25 9.655751 14.344249 7.75 12 7.75 z M 12 8.25 C 14.074029 8.25 15.75 9.925971 15.75 12 C 15.75 14.074029 14.074029 15.75 12 15.75 C 9.925971 15.75 8.25 14.074029 8.25 12 C 8.25 9.925971 9.925971 8.25 12 8.25 z M 3 11.75 A 0.25 0.25 0 0 0 2.75 12 A 0.25 0.25 0 0 0 3 12.25 L 4 12.25 A 0.25 0.25 0 0 0 4.25 12 A 0.25 0.25 0 0 0 4 11.75 L 3 11.75 z M 20 11.75 A 0.25 0.25 0 0 0 19.75 12 A 0.25 0.25 0 0 0 20 12.25 L 21 12.25 A 0.25 0.25 0 0 0 21.25 12 A 0.25 0.25 0 0 0 21 11.75 L 20 11.75 z M 6.3417969 17.408203 A 0.25 0.25 0 0 0 6.1660156 17.480469 L 5.4589844 18.1875 A 0.25 0.25 0 0 0 5.4589844 18.541016 A 0.25 0.25 0 0 0 5.8125 18.541016 L 6.5195312 17.833984 A 0.25 0.25 0 0 0 6.5195312 17.480469 A 0.25 0.25 0 0 0 6.3417969 17.408203 z M 17.65625 17.408203 A 0.25 0.25 0 0 0 17.480469 17.480469 A 0.25 0.25 0 0 0 17.480469 17.833984 L 18.1875 18.541016 A 0.25 0.25 0 0 0 18.541016 18.541016 A 0.25 0.25 0 0 0 18.541016 18.1875 L 17.833984 17.480469 A 0.25 0.25 0 0 0 17.65625 17.408203 z M 12 19.75 A 0.25 0.25 0 0 0 11.75 20 L 11.75 21 A 0.25 0.25 0 0 0 12 21.25 A 0.25 0.25 0 0 0 12.25 21 L 12.25 20 A 0.25 0.25 0 0 0 12 19.75 z " />
</svg>
