<?xml version="1.0" encoding="UTF-8" standalone="no"?>
<svg
   width="24"
   height="24"
   viewBox="0 0 24 24"
   fill="none"
   stroke="currentColor"
   stroke-width="0.5"
   stroke-linecap="round"
   stroke-linejoin="round"
   version="1.1"
   id="svg8"
   sodipodi:docname=".tmp_thermometer-snowflake.svg"
   xmlns:inkscape="http://www.inkscape.org/namespaces/inkscape"
   xmlns:sodipodi="http://sodipodi.sourceforge.net/DTD/sodipodi-0.dtd"
   xmlns="http://www.w3.org/2000/svg"
   xmlns:svg="http://www.w3.org/2000/svg">
  <defs
     id="defs8" />
  <sodipodi:namedview
     id="namedview8"
     pagecolor="#ffffff"
     bordercolor="#000000"
     borderopacity="0.25"
     inkscape:showpageshadow="2"
     inkscape:pageopacity="0.0"
     inkscape:pagecheckerboard="0"
     inkscape:deskcolor="#d1d1d1" />
  <path
     id="path1"
     style="baseline-shift:baseline;display:inline;overflow:visible;vector-effect:none;fill:#000000;stroke:none;stroke-linecap:butt;stroke-linejoin:miter;enable-background:accumulate;stop-color:#000000;stop-opacity:1;opacity:1"
     d="M 18 1.75 C 17.444444 1.75 16.88553 1.9333486 16.458984 2.3125 C 16.032439 2.6916514 15.75 3.2708336 15.75 4 L 15.75 14.427734 C 13.999987 15.524478 13.449517 17.44396 13.894531 19.103516 C 14.351851 20.80896 15.844 22.253906 18 22.253906 C 20.156 22.253906 21.648149 20.80896 22.105469 19.103516 C 22.550483 17.44396 22.000013 15.524478 20.25 14.427734 L 20.25 4 C 20.25 3.2708336 19.967561 2.6916514 19.541016 2.3125 C 19.11447 1.9333486 18.555556 1.75 18 1.75 z M 18 2.25 C 18.444444 2.25 18.88553 2.399985 19.208984 2.6875 C 19.532439 2.975015 19.75 3.3958336 19.75 4 L 19.75 14.539062 A 0.250025 0.250025 0 0 0 19.875 14.755859 C 21.552066 15.724114 22.029181 17.460047 21.623047 18.974609 C 21.216913 20.489172 19.935347 21.753906 18 21.753906 C 16.064653 21.753906 14.783087 20.489172 14.376953 18.974609 C 13.970819 17.460047 14.447933 15.724114 16.125 14.755859 A 0.250025 0.250025 0 0 0 16.25 14.539062 L 16.25 4 C 16.25 3.3958336 16.467561 2.975015 16.791016 2.6875 C 17.11447 2.399985 17.555556 2.25 18 2.25 z M 6.9824219 2.7519531 A 0.25 0.25 0 0 0 6.8886719 2.7773438 A 0.25 0.25 0 0 0 6.7773438 3.1113281 L 8.3046875 6.1660156 L 6.0449219 5.7539062 A 0.25 0.25 0 0 0 5.7539062 5.9550781 A 0.25 0.25 0 0 0 5.9550781 6.2460938 L 8.5839844 6.7246094 L 9.7207031 9 L 8.3457031 11.75 L 5.625 11.75 L 4.1992188 9.8496094 A 0.25 0.25 0 0 0 3.8496094 9.8007812 A 0.25 0.25 0 0 0 3.8007812 10.150391 L 5 11.75 L 2 11.75 A 0.25 0.25 0 0 0 1.75 12 A 0.25 0.25 0 0 0 2 12.25 L 5 12.25 L 3.8007812 13.849609 A 0.25 0.25 0 0 0 3.8496094 14.199219 A 0.25 0.25 0 0 0 4.1992188 14.150391 L 5.625 12.25 L 8.3457031 12.25 L 9.7207031 15 L 8.5839844 17.275391 L 5.9550781 17.753906 A 0.25 0.25 0 0 0 5.7539062 18.044922 A 0.25 0.25 0 0 0 6.0449219 18.246094 L 8.3027344 17.833984 L 6.7773438 20.888672 A 0.25 0.25 0 0 0 6.8886719 21.222656 A 0.25 0.25 0 0 0 7.2226562 21.111328 L 8.75 18.058594 L 9.7773438 20.111328 A 0.25 0.25 0 0 0 10.111328 20.222656 A 0.25 0.25 0 0 0 10.222656 19.888672 L 9.0273438 17.5 L 10.152344 15.25 L 10.585938 15.25 A 0.25 0.25 0 0 0 10.835938 15 A 0.25 0.25 0 0 0 10.585938 14.75 L 10.152344 14.75 L 8.7773438 12 L 10.152344 9.25 L 12 9.25 A 0.25 0.25 0 0 0 12.25 9 A 0.25 0.25 0 0 0 12 8.75 L 10.154297 8.75 L 9.0292969 6.5 L 10.222656 4.1113281 A 0.25 0.25 0 0 0 10.111328 3.7773438 A 0.25 0.25 0 0 0 9.7773438 3.8886719 L 8.75 5.9414062 L 7.2226562 2.8886719 A 0.25 0.25 0 0 0 6.9824219 2.7519531 z " />
</svg>
