<?xml version="1.0" encoding="UTF-8" standalone="no"?>
<svg
   width="24"
   height="24"
   viewBox="0 0 24 24"
   fill="none"
   stroke="currentColor"
   stroke-width="0.5"
   stroke-linecap="round"
   stroke-linejoin="round"
   version="1.1"
   id="svg4"
   sodipodi:docname=".tmp_tool-case.svg"
   xmlns:inkscape="http://www.inkscape.org/namespaces/inkscape"
   xmlns:sodipodi="http://sodipodi.sourceforge.net/DTD/sodipodi-0.dtd"
   xmlns="http://www.w3.org/2000/svg"
   xmlns:svg="http://www.w3.org/2000/svg">
  <defs
     id="defs4" />
  <sodipodi:namedview
     id="namedview4"
     pagecolor="#ffffff"
     bordercolor="#000000"
     borderopacity="0.25"
     inkscape:showpageshadow="2"
     inkscape:pageopacity="0.0"
     inkscape:pagecheckerboard="0"
     inkscape:deskcolor="#d1d1d1" />
  <path
     id="path1"
     style="baseline-shift:baseline;display:inline;overflow:visible;vector-effect:none;fill:#000000;stroke:none;stroke-linecap:butt;stroke-linejoin:miter;enable-background:accumulate;stop-color:#000000;stop-opacity:1;opacity:1"
     d="M 16.568359 2.5820312 C 16.092749 2.5911771 15.643441 2.8734461 15.443359 3.3339844 L 14.648438 5.1582031 C 14.147543 4.805844 13.492821 4.6495758 12.791016 4.8339844 L 11.142578 5.1621094 L 10.113281 3.7382812 L 10.117188 3.7460938 C 9.5613051 2.9200629 8.6264321 2.6276533 7.796875 2.7988281 C 6.9673179 2.970003 6.2225737 3.609286 6.0390625 4.5878906 A 0.250025 0.250025 0 0 0 6.0351562 4.6152344 L 5.9042969 6.3515625 L 4.3554688 6.7324219 A 0.250025 0.250025 0 0 0 4.34375 6.7363281 C 3.3499904 7.0405083 2.7981001 7.9017477 2.7539062 8.7753906 C 2.7097123 9.6490335 3.1709153 10.55998 4.1289062 10.962891 A 0.250025 0.250025 0 0 0 4.1308594 10.962891 L 4.2421875 11.007812 C 3.9419451 11.238483 3.7475596 11.602298 3.75 12.007812 L 3.75 19 C 3.75 20.23968 4.7603205 21.25 6 21.25 L 18 21.25 C 19.23968 21.25 20.25 20.23968 20.25 19 L 20.25 12 C 20.25 11.377871 19.788516 10.856792 19.191406 10.763672 L 21.3125 5.7109375 C 21.582935 5.0666295 21.26772 4.3195509 20.617188 4.0644531 A 0.250025 0.250025 0 0 0 20.615234 4.0644531 L 17.044922 2.6679688 C 16.889018 2.6070748 16.726896 2.5789826 16.568359 2.5820312 z M 16.576172 3.0800781 C 16.671347 3.0785491 16.768759 3.0958933 16.863281 3.1328125 L 20.433594 4.5292969 C 20.82866 4.6842168 21.015798 5.1262921 20.851562 5.5175781 L 18.654297 10.75 L 14.955078 10.75 L 14.158203 9.5625 L 15.070312 8.4765625 L 15.072266 8.4746094 C 15.780002 7.6492314 15.751138 6.5833776 15.271484 5.8164062 C 15.203795 5.7081706 15.126271 5.6056416 15.041016 5.5097656 L 15.902344 3.5332031 C 16.02365 3.2539852 16.290648 3.0846653 16.576172 3.0800781 z M 8.1425781 3.2539062 C 8.721035 3.2139479 9.3154525 3.4493215 9.703125 4.0253906 A 0.250025 0.250025 0 0 0 9.7070312 4.03125 L 10.832031 5.5859375 A 0.250025 0.250025 0 0 0 11.083984 5.6835938 L 12.904297 5.3203125 A 0.250025 0.250025 0 0 0 12.917969 5.3164062 C 13.76301 5.0943606 14.469939 5.4780571 14.847656 6.0820312 C 15.225373 6.6860055 15.258976 7.4877878 14.689453 8.1503906 A 0.250025 0.250025 0 0 0 14.689453 8.1523438 L 13.654297 9.3847656 A 0.250025 0.250025 0 0 0 13.638672 9.6835938 L 14.351562 10.75 L 4.9941406 10.75 A 0.250025 0.250025 0 0 0 4.9921875 10.75 C 4.9715936 10.750123 4.9519922 10.750833 4.9316406 10.751953 L 4.3222656 10.501953 L 4.3203125 10.5 C 3.5564197 10.177344 3.2192351 9.4861734 3.2539062 8.8007812 C 3.2885778 8.1153775 3.6937485 7.4607096 4.4863281 7.2167969 L 4.4882812 7.2148438 L 6.2011719 6.7929688 A 0.250025 0.250025 0 0 0 6.390625 6.5683594 L 6.5332031 4.6757812 C 6.6809019 3.8986664 7.2470612 3.4211145 7.8964844 3.2871094 C 7.9778298 3.2703241 8.0599414 3.2596146 8.1425781 3.2539062 z M 4.9960938 11.25 L 19 11.25 C 19.417175 11.25 19.75 11.582825 19.75 12 L 19.75 19 C 19.75 19.969459 18.969459 20.75 18 20.75 L 6 20.75 C 5.0305405 20.75 4.25 19.969459 4.25 19 L 4.25 12.005859 A 0.250025 0.250025 0 0 0 4.25 12.003906 C 4.2474894 11.586775 4.5789156 11.252496 4.9960938 11.25 z M 10 14.75 A 0.25 0.25 0 0 0 9.75 15 A 0.25 0.25 0 0 0 10 15.25 L 14 15.25 A 0.25 0.25 0 0 0 14.25 15 A 0.25 0.25 0 0 0 14 14.75 L 10 14.75 z " />
</svg>
