<?xml version="1.0" encoding="UTF-8" standalone="no"?>
<svg
   width="24"
   height="24"
   viewBox="0 0 24 24"
   fill="none"
   stroke="currentColor"
   stroke-width="0.5"
   stroke-linecap="round"
   stroke-linejoin="round"
   version="1.1"
   id="svg2"
   sodipodi:docname=".tmp_trending-down.svg"
   xmlns:inkscape="http://www.inkscape.org/namespaces/inkscape"
   xmlns:sodipodi="http://sodipodi.sourceforge.net/DTD/sodipodi-0.dtd"
   xmlns="http://www.w3.org/2000/svg"
   xmlns:svg="http://www.w3.org/2000/svg">
  <defs
     id="defs2" />
  <sodipodi:namedview
     id="namedview2"
     pagecolor="#ffffff"
     bordercolor="#000000"
     borderopacity="0.25"
     inkscape:showpageshadow="2"
     inkscape:pageopacity="0.0"
     inkscape:pagecheckerboard="0"
     inkscape:deskcolor="#d1d1d1" />
  <path
     id="path1"
     style="baseline-shift:baseline;display:inline;overflow:visible;vector-effect:none;fill:#000000;stroke:none;stroke-linecap:butt;stroke-linejoin:miter;enable-background:accumulate;stop-color:#000000;stop-opacity:1;opacity:1"
     d="M 2 6.7480469 A 0.25 0.25 0 0 0 1.8222656 6.8222656 A 0.25 0.25 0 0 0 1.8222656 7.1777344 L 8.3222656 13.677734 A 0.250025 0.250025 0 0 0 8.6777344 13.677734 L 13.5 8.8554688 L 21.394531 16.75 L 16 16.75 A 0.25 0.25 0 0 0 15.75 17 A 0.25 0.25 0 0 0 16 17.25 L 21.96875 17.25 A 0.25 0.25 0 0 0 22.064453 17.242188 A 0.250025 0.250025 0 0 0 22.066406 17.242188 A 0.25 0.25 0 0 0 22.125 17.216797 A 0.250025 0.250025 0 0 0 22.216797 17.126953 A 0.25 0.25 0 0 0 22.216797 17.125 A 0.25 0.25 0 0 0 22.242188 17.066406 A 0.25 0.25 0 0 0 22.242188 17.064453 A 0.25 0.25 0 0 0 22.25 16.96875 L 22.25 11 A 0.25 0.25 0 0 0 22 10.75 A 0.25 0.25 0 0 0 21.75 11 L 21.75 16.394531 L 13.677734 8.3222656 A 0.250025 0.250025 0 0 0 13.322266 8.3222656 L 8.5 13.144531 L 2.1777344 6.8222656 A 0.25 0.25 0 0 0 2 6.7480469 z " />
</svg>
