<?xml version="1.0" encoding="UTF-8" standalone="no"?>
<svg
   width="24"
   height="24"
   viewBox="0 0 24 24"
   fill="none"
   stroke="currentColor"
   stroke-width="0.5"
   stroke-linecap="round"
   stroke-linejoin="round"
   version="1.1"
   id="svg1"
   sodipodi:docname=".tmp_twitch.svg"
   xmlns:inkscape="http://www.inkscape.org/namespaces/inkscape"
   xmlns:sodipodi="http://sodipodi.sourceforge.net/DTD/sodipodi-0.dtd"
   xmlns="http://www.w3.org/2000/svg"
   xmlns:svg="http://www.w3.org/2000/svg">
  <defs
     id="defs1" />
  <sodipodi:namedview
     id="namedview1"
     pagecolor="#ffffff"
     bordercolor="#000000"
     borderopacity="0.25"
     inkscape:showpageshadow="2"
     inkscape:pageopacity="0.0"
     inkscape:pagecheckerboard="0"
     inkscape:deskcolor="#d1d1d1" />
  <path
     id="path1"
     style="baseline-shift:baseline;display:inline;overflow:visible;vector-effect:none;fill:#000000;stroke:none;stroke-linecap:butt;stroke-linejoin:miter;enable-background:accumulate;stop-color:#000000;stop-opacity:1;opacity:1"
     d="M 3 1.75 A 0.250025 0.250025 0 0 0 2.75 2 L 2.75 18 A 0.250025 0.250025 0 0 0 3 18.25 L 7.75 18.25 L 7.75 22 A 0.250025 0.250025 0 0 0 8.1777344 22.177734 L 12.103516 18.25 L 17 18.25 A 0.250025 0.250025 0 0 0 17.177734 18.177734 L 21.177734 14.177734 A 0.250025 0.250025 0 0 0 21.25 14 L 21.25 2 A 0.250025 0.250025 0 0 0 21 1.75 L 3 1.75 z M 3.25 2.25 L 20.75 2.25 L 20.75 13.896484 L 16.896484 17.75 L 12 17.75 A 0.250025 0.250025 0 0 0 11.822266 17.822266 L 8.25 21.394531 L 8.25 18 A 0.250025 0.250025 0 0 0 8 17.75 L 3.25 17.75 L 3.25 2.25 z M 11 6.75 A 0.25 0.25 0 0 0 10.75 7 L 10.75 11 A 0.25 0.25 0 0 0 11 11.25 A 0.25 0.25 0 0 0 11.25 11 L 11.25 7 A 0.25 0.25 0 0 0 11 6.75 z M 16 6.75 A 0.25 0.25 0 0 0 15.75 7 L 15.75 11 A 0.25 0.25 0 0 0 16 11.25 A 0.25 0.25 0 0 0 16.25 11 L 16.25 7 A 0.25 0.25 0 0 0 16 6.75 z " />
</svg>
