<?xml version="1.0" encoding="UTF-8" standalone="no"?>
<svg
   width="24"
   height="24"
   viewBox="0 0 24 24"
   fill="none"
   stroke="currentColor"
   stroke-width="0.5"
   stroke-linecap="round"
   stroke-linejoin="round"
   version="1.1"
   id="svg2"
   sodipodi:docname=".tmp_undo.svg"
   xmlns:inkscape="http://www.inkscape.org/namespaces/inkscape"
   xmlns:sodipodi="http://sodipodi.sourceforge.net/DTD/sodipodi-0.dtd"
   xmlns="http://www.w3.org/2000/svg"
   xmlns:svg="http://www.w3.org/2000/svg">
  <defs
     id="defs2" />
  <sodipodi:namedview
     id="namedview2"
     pagecolor="#ffffff"
     bordercolor="#000000"
     borderopacity="0.25"
     inkscape:showpageshadow="2"
     inkscape:pageopacity="0.0"
     inkscape:pagecheckerboard="0"
     inkscape:deskcolor="#d1d1d1" />
  <path
     id="path1"
     style="baseline-shift:baseline;display:inline;overflow:visible;vector-effect:none;fill:#000000;stroke:none;stroke-linecap:butt;stroke-linejoin:miter;enable-background:accumulate;stop-color:#000000;stop-opacity:1;opacity:1"
     d="M 3 6.75 A 0.25 0.25 0 0 0 2.75 7 L 2.75 12.986328 L 2.75 13 A 0.25 0.25 0 0 0 2.7519531 13.029297 A 0.250025 0.250025 0 0 0 2.7519531 13.033203 A 0.25 0.25 0 0 0 2.7558594 13.050781 A 0.250025 0.250025 0 0 0 2.7617188 13.074219 A 0.25 0.25 0 0 0 2.7695312 13.095703 A 0.25 0.25 0 0 0 2.78125 13.119141 A 0.250025 0.250025 0 0 0 2.7851562 13.128906 A 0.25 0.25 0 0 0 2.7988281 13.150391 A 0.250025 0.250025 0 0 0 2.8007812 13.152344 A 0.25 0.25 0 0 0 2.8144531 13.167969 A 0.250025 0.250025 0 0 0 2.8378906 13.189453 A 0.250025 0.250025 0 0 0 2.8632812 13.208984 A 0.250025 0.250025 0 0 0 2.8847656 13.222656 A 0.25 0.25 0 0 0 2.8984375 13.228516 A 0.250025 0.250025 0 0 0 2.9042969 13.230469 A 0.25 0.25 0 0 0 2.9199219 13.236328 A 0.250025 0.250025 0 0 0 2.9433594 13.244141 A 0.25 0.25 0 0 0 2.9511719 13.246094 A 0.250025 0.250025 0 0 0 2.9667969 13.248047 A 0.25 0.25 0 0 0 2.9824219 13.25 A 0.250025 0.250025 0 0 0 3 13.25 A 0.25 0.25 0 0 0 3.0136719 13.25 L 9 13.25 A 0.25 0.25 0 0 0 9.25 13 A 0.25 0.25 0 0 0 9 12.75 L 3.6523438 12.75 L 6.1660156 10.486328 C 7.769117 9.0485212 9.8465799 8.2521929 12 8.25 C 16.835453 8.25 20.75 12.164547 20.75 17 A 0.25 0.25 0 0 0 21 17.25 A 0.25 0.25 0 0 0 21.25 17 C 21.25 11.894327 17.105673 7.75 12 7.75 C 9.7236647 7.752318 7.5285893 8.5934057 5.8339844 10.113281 A 0.250025 0.250025 0 0 0 5.8320312 10.113281 L 3.25 12.4375 L 3.25 7 A 0.25 0.25 0 0 0 3 6.75 z " />
</svg>
