<?xml version="1.0" encoding="UTF-8" standalone="no"?>
<svg
   width="24"
   height="24"
   viewBox="0 0 24 24"
   fill="none"
   stroke="currentColor"
   stroke-width="0.5"
   stroke-linecap="round"
   stroke-linejoin="round"
   version="1.1"
   id="svg7"
   sodipodi:docname=".tmp_vector-square.svg"
   xmlns:inkscape="http://www.inkscape.org/namespaces/inkscape"
   xmlns:sodipodi="http://sodipodi.sourceforge.net/DTD/sodipodi-0.dtd"
   xmlns="http://www.w3.org/2000/svg"
   xmlns:svg="http://www.w3.org/2000/svg">
  <defs
     id="defs7" />
  <sodipodi:namedview
     id="namedview7"
     pagecolor="#ffffff"
     bordercolor="#000000"
     borderopacity="0.25"
     inkscape:showpageshadow="2"
     inkscape:pageopacity="0.0"
     inkscape:pagecheckerboard="0"
     inkscape:deskcolor="#d1d1d1" />
  <path
     id="path1"
     style="baseline-shift:baseline;display:inline;overflow:visible;vector-effect:none;fill:#000000;stroke:none;stroke-linecap:butt;stroke-linejoin:miter;enable-background:accumulate;stop-color:#000000;stop-opacity:1;opacity:1"
     d="M 3 1.75 C 2.3118243 1.75 1.75 2.3118243 1.75 3 L 1.75 6 C 1.75 6.6881757 2.3118243 7.25 3 7.25 L 4.1933594 7.25 C 3.5671915 10.385325 3.5671914 13.614676 4.1933594 16.75 L 3 16.75 C 2.3118243 16.75 1.75 17.311824 1.75 18 L 1.75 21 C 1.75 21.688176 2.3118243 22.25 3 22.25 L 6 22.25 C 6.6881757 22.25 7.25 21.688176 7.25 21 L 7.25 19.806641 C 10.385325 20.432809 13.614676 20.432809 16.75 19.806641 L 16.75 21 C 16.75 21.688176 17.311824 22.25 18 22.25 L 21 22.25 C 21.688176 22.25 22.25 21.688176 22.25 21 L 22.25 18 C 22.25 17.311824 21.688176 16.75 21 16.75 L 19.806641 16.75 C 20.432809 13.614676 20.432809 10.385325 19.806641 7.25 L 21 7.25 C 21.688176 7.25 22.25 6.6881757 22.25 6 L 22.25 3 C 22.25 2.3118243 21.688176 1.75 21 1.75 L 18 1.75 C 17.311824 1.75 16.75 2.3118243 16.75 3 L 16.75 4.1933594 C 15.182303 3.8801566 13.590864 3.7226563 12 3.7226562 C 10.409136 3.7226562 8.8176971 3.8801566 7.25 4.1933594 L 7.25 3 C 7.25 2.3118243 6.6881757 1.75 6 1.75 L 3 1.75 z M 3 2.25 L 6 2.25 C 6.4198243 2.25 6.75 2.5801757 6.75 3 L 6.75 4.4882812 L 6.75 6 C 6.75 6.4198243 6.4198243 6.75 6 6.75 L 4.4882812 6.75 L 3 6.75 C 2.5801757 6.75 2.25 6.4198243 2.25 6 L 2.25 3 C 2.25 2.5801757 2.5801757 2.25 3 2.25 z M 18 2.25 L 21 2.25 C 21.419824 2.25 21.75 2.5801757 21.75 3 L 21.75 6 C 21.75 6.4198243 21.419824 6.75 21 6.75 L 18 6.75 C 17.580176 6.75 17.25 6.4198243 17.25 6 L 17.25 3 C 17.25 2.5801757 17.580176 2.25 18 2.25 z M 12 4.2226562 C 13.591322 4.2226562 15.182645 4.383138 16.75 4.703125 L 16.75 6 C 16.75 6.6881757 17.311824 7.25 18 7.25 L 19.296875 7.25 C 19.936849 10.38471 19.936849 13.61529 19.296875 16.75 L 18 16.75 C 17.311824 16.75 16.75 17.311824 16.75 18 L 16.75 19.296875 C 13.61529 19.936849 10.38471 19.936849 7.25 19.296875 L 7.25 18 C 7.25 17.311824 6.6881757 16.75 6 16.75 L 4.703125 16.75 C 4.0631509 13.61529 4.0631509 10.38471 4.703125 7.25 L 6 7.25 C 6.6881757 7.25 7.25 6.6881757 7.25 6 L 7.25 4.703125 C 8.817355 4.3831379 10.408678 4.2226563 12 4.2226562 z M 3 17.25 L 6 17.25 C 6.4198243 17.25 6.75 17.580176 6.75 18 L 6.75 21 C 6.75 21.419824 6.4198243 21.75 6 21.75 L 3 21.75 C 2.5801757 21.75 2.25 21.419824 2.25 21 L 2.25 18 C 2.25 17.580176 2.5801757 17.25 3 17.25 z M 18 17.25 L 21 17.25 C 21.419824 17.25 21.75 17.580176 21.75 18 L 21.75 21 C 21.75 21.419824 21.419824 21.75 21 21.75 L 18 21.75 C 17.580176 21.75 17.25 21.419824 17.25 21 L 17.25 18 C 17.25 17.580176 17.580176 17.25 18 17.25 z " />
</svg>
