<?xml version="1.0" encoding="UTF-8" standalone="no"?>
<svg
   width="24"
   height="24"
   viewBox="0 0 24 24"
   fill="none"
   stroke="currentColor"
   stroke-width="0.5"
   stroke-linecap="round"
   stroke-linejoin="round"
   version="1.1"
   id="svg5"
   sodipodi:docname=".tmp_volume-off.svg"
   xmlns:inkscape="http://www.inkscape.org/namespaces/inkscape"
   xmlns:sodipodi="http://sodipodi.sourceforge.net/DTD/sodipodi-0.dtd"
   xmlns="http://www.w3.org/2000/svg"
   xmlns:svg="http://www.w3.org/2000/svg">
  <defs
     id="defs5" />
  <sodipodi:namedview
     id="namedview5"
     pagecolor="#ffffff"
     bordercolor="#000000"
     borderopacity="0.25"
     inkscape:showpageshadow="2"
     inkscape:pageopacity="0.0"
     inkscape:pagecheckerboard="0"
     inkscape:deskcolor="#d1d1d1" />
  <path
     id="path1"
     style="baseline-shift:baseline;display:inline;overflow:visible;vector-effect:none;fill:#000000;stroke:none;stroke-linecap:butt;stroke-linejoin:miter;enable-background:accumulate;stop-color:#000000;stop-opacity:1;opacity:1"
     d="M 2 1.7480469 A 0.25 0.25 0 0 0 1.8222656 1.8222656 A 0.25 0.25 0 0 0 1.8222656 2.1777344 L 6.6445312 7 L 6.2363281 7.4101562 C 6.0195734 7.6282072 5.7234697 7.7509012 5.4160156 7.75 L 3 7.75 C 2.3126052 7.75 1.75 8.3126052 1.75 9 L 1.75 15 C 1.75 15.687395 2.3126052 16.25 3 16.25 L 5.4160156 16.25 C 5.7234697 16.249099 6.0195734 16.371793 6.2363281 16.589844 L 9.6191406 19.972656 C 9.912508 20.266602 10.330408 20.318306 10.660156 20.181641 C 10.989905 20.044976 11.250578 19.712168 11.25 19.296875 L 11.25 11.605469 L 21.822266 22.177734 A 0.25 0.25 0 0 0 22.177734 22.177734 A 0.25 0.25 0 0 0 22.177734 21.822266 L 7.1796875 6.8242188 A 0.25 0.25 0 0 0 7.1777344 6.8222656 A 0.25 0.25 0 0 0 7.1757812 6.8203125 L 2.1777344 1.8222656 A 0.25 0.25 0 0 0 2 1.7480469 z M 10.283203 3.7207031 C 10.05863 3.7281881 9.829907 3.8158905 9.6503906 3.9960938 A 0.25 0.25 0 0 0 9.6523438 4.3496094 A 0.25 0.25 0 0 0 10.005859 4.3476562 C 10.150699 4.2022625 10.325595 4.1898159 10.480469 4.2539062 C 10.635343 4.3179963 10.750255 4.4510237 10.75 4.65625 L 10.75 5.34375 A 0.25 0.25 0 0 0 11 5.59375 A 0.25 0.25 0 0 0 11.25 5.34375 L 11.25 4.6582031 L 11.25 4.65625 C 11.249712 4.2501626 10.99467 3.9245956 10.671875 3.7910156 C 10.550638 3.7408449 10.417947 3.7162121 10.283203 3.7207031 z M 19.365234 5.3867188 A 0.25 0.25 0 0 0 19.1875 5.4589844 A 0.25 0.25 0 0 0 19.1875 5.8125 C 21.732758 8.3563114 22.460537 12.196994 21.023438 15.496094 A 0.25 0.25 0 0 0 21.152344 15.826172 A 0.25 0.25 0 0 0 21.482422 15.695312 C 23.001004 12.209155 22.230589 8.1470292 19.541016 5.4589844 A 0.25 0.25 0 0 0 19.365234 5.3867188 z M 7 7.3554688 L 10.75 11.105469 L 10.75 19.298828 C 10.750297 19.51243 10.630155 19.651855 10.46875 19.71875 C 10.307345 19.78564 10.123547 19.772284 9.9726562 19.621094 L 6.5898438 16.236328 C 6.2790189 15.923645 5.8569027 15.748708 5.4160156 15.75 L 3 15.75 C 2.5828253 15.75 2.25 15.417175 2.25 15 L 2.25 9 C 2.25 8.5828253 2.5828253 8.25 3 8.25 L 5.4160156 8.25 C 5.8569027 8.2512924 6.2790189 8.0763554 6.5898438 7.7636719 L 7 7.3554688 z M 16.001953 8.75 A 0.25 0.25 0 0 0 15.849609 8.8007812 A 0.25 0.25 0 0 0 15.800781 9.1503906 C 16.279926 9.7891206 16.590159 10.537686 16.703125 11.328125 A 0.25 0.25 0 0 0 16.986328 11.541016 A 0.25 0.25 0 0 0 17.197266 11.257812 C 17.072413 10.384189 16.728787 9.5555568 16.199219 8.8496094 A 0.25 0.25 0 0 0 16.001953 8.75 z " />
</svg>
