<?xml version="1.0" encoding="UTF-8" standalone="no"?>
<svg
   width="24"
   height="24"
   viewBox="0 0 24 24"
   fill="none"
   stroke="currentColor"
   stroke-width="0.5"
   stroke-linecap="round"
   stroke-linejoin="round"
   version="1.1"
   id="svg3"
   sodipodi:docname=".tmp_watch.svg"
   xmlns:inkscape="http://www.inkscape.org/namespaces/inkscape"
   xmlns:sodipodi="http://sodipodi.sourceforge.net/DTD/sodipodi-0.dtd"
   xmlns="http://www.w3.org/2000/svg"
   xmlns:svg="http://www.w3.org/2000/svg">
  <defs
     id="defs3" />
  <sodipodi:namedview
     id="namedview3"
     pagecolor="#ffffff"
     bordercolor="#000000"
     borderopacity="0.25"
     inkscape:showpageshadow="2"
     inkscape:pageopacity="0.0"
     inkscape:pagecheckerboard="0"
     inkscape:deskcolor="#d1d1d1" />
  <path
     id="path1"
     style="baseline-shift:baseline;display:inline;overflow:visible;vector-effect:none;fill:#000000;stroke:none;stroke-linecap:butt;stroke-linejoin:miter;enable-background:accumulate;stop-color:#000000;stop-opacity:1;opacity:1"
     d="M 10.644531 1.75 C 9.5564844 1.7291489 8.6065395 2.4931511 8.3945312 3.5605469 A 0.250025 0.250025 0 0 0 8.3945312 3.5625 L 7.6308594 7.5332031 C 6.4707574 8.668227 5.75 10.250867 5.75 12 C 5.75 13.759011 6.4787534 15.349987 7.6503906 16.486328 L 8.4355469 20.408203 C 8.6475552 21.475599 9.5974997 22.241554 10.685547 22.220703 L 13.394531 22.220703 C 14.482578 22.241553 15.432523 21.475599 15.644531 20.408203 L 16.449219 16.386719 C 17.56223 15.257907 18.25 13.708462 18.25 12 C 18.25 10.244635 17.524797 8.6573483 16.357422 7.5214844 L 15.564453 3.5605469 C 15.352445 2.4931511 14.4025 1.7291489 13.314453 1.75 L 10.644531 1.75 z M 10.634766 2.25 A 0.250025 0.250025 0 0 0 10.640625 2.25 L 13.320312 2.25 A 0.250025 0.250025 0 0 0 13.324219 2.25 C 14.173404 2.233726 14.908753 2.8251358 15.074219 3.6582031 L 15.742188 6.9960938 C 14.698608 6.2141494 13.402788 5.75 12 5.75 C 10.589056 5.75 9.2869284 6.2195547 8.2402344 7.0097656 L 8.8847656 3.6582031 C 9.0502312 2.8251358 9.7855802 2.2337264 10.634766 2.25 z M 12 6.25 C 13.512827 6.25 14.888082 6.8319681 15.914062 7.7851562 A 0.25 0.25 0 0 0 16.013672 7.8808594 C 17.084763 8.9248575 17.75 10.384054 17.75 12 C 17.75 15.178598 15.178598 17.75 12 17.75 C 10.482408 17.75 9.1031744 17.163609 8.0761719 16.205078 A 0.25 0.25 0 0 0 8.0234375 16.15625 C 6.9301584 15.109891 6.25 13.63491 6.25 12 C 6.25 10.377891 6.9197613 8.913939 7.9980469 7.8691406 A 0.25 0.25 0 0 0 8.0605469 7.8085938 C 9.0890771 6.8418737 10.475122 6.25 12 6.25 z M 12 9.75 A 0.25 0.25 0 0 0 11.75 10 L 11.75 12.199219 A 0.250025 0.250025 0 0 0 11.867188 12.412109 L 13.466797 13.412109 A 0.25 0.25 0 0 0 13.8125 13.332031 A 0.25 0.25 0 0 0 13.732422 12.988281 L 12.25 12.060547 L 12.25 10 A 0.25 0.25 0 0 0 12 9.75 z M 15.830078 16.9375 L 15.154297 20.310547 C 14.988831 21.143614 14.253482 21.736977 13.404297 21.720703 A 0.250025 0.250025 0 0 0 13.400391 21.720703 L 10.679688 21.720703 A 0.250025 0.250025 0 0 0 10.675781 21.720703 C 9.8265834 21.736977 9.0912468 21.143614 8.9257812 20.310547 L 8.265625 17.009766 C 9.3079939 17.788536 10.600352 18.25 12 18.25 C 13.442251 18.25 14.77184 17.759748 15.830078 16.9375 z " />
</svg>
