<?xml version="1.0" encoding="UTF-8" standalone="no"?>
<svg
   width="24"
   height="24"
   viewBox="0 0 24 24"
   fill="none"
   stroke="currentColor"
   stroke-width="0.5"
   stroke-linecap="round"
   stroke-linejoin="round"
   version="1.1"
   id="svg3"
   sodipodi:docname=".tmp_waves.svg"
   xmlns:inkscape="http://www.inkscape.org/namespaces/inkscape"
   xmlns:sodipodi="http://sodipodi.sourceforge.net/DTD/sodipodi-0.dtd"
   xmlns="http://www.w3.org/2000/svg"
   xmlns:svg="http://www.w3.org/2000/svg">
  <defs
     id="defs3" />
  <sodipodi:namedview
     id="namedview3"
     pagecolor="#ffffff"
     bordercolor="#000000"
     borderopacity="0.25"
     inkscape:showpageshadow="2"
     inkscape:pageopacity="0.0"
     inkscape:pagecheckerboard="0"
     inkscape:deskcolor="#d1d1d1" />
  <path
     id="path1"
     style="baseline-shift:baseline;display:inline;overflow:visible;vector-effect:none;fill:#000000;stroke:none;stroke-linecap:butt;stroke-linejoin:miter;enable-background:accumulate;stop-color:#000000;stop-opacity:1;opacity:1"
     d="M 9.5 4.75 C 8.1833333 4.75 7.46875 5.3046875 6.84375 5.8046875 C 6.21875 6.3046875 5.6833333 6.75 4.5 6.75 C 3.2641026 6.75 2.7601563 6.3085937 2.1601562 5.8085938 A 0.25 0.25 0 0 0 1.8085938 5.8398438 A 0.25 0.25 0 0 0 1.8398438 6.1914062 C 2.4398438 6.6914062 3.1358974 7.25 4.5 7.25 C 5.8166667 7.25 6.53125 6.6953125 7.15625 6.1953125 C 7.78125 5.6953125 8.3166667 5.25 9.5 5.25 C 10.735897 5.25 11.239844 5.6914064 11.839844 6.1914062 C 12.439844 6.6914062 13.135897 7.25 14.5 7.25 C 15.816667 7.25 16.53125 6.6953125 17.15625 6.1953125 C 17.78125 5.6953125 18.316667 5.25 19.5 5.25 C 20.735897 5.25 21.239844 5.6914064 21.839844 6.1914062 A 0.25 0.25 0 0 0 22.191406 6.1601562 A 0.25 0.25 0 0 0 22.160156 5.8085938 C 21.560156 5.3085938 20.864103 4.75 19.5 4.75 C 18.183333 4.75 17.46875 5.3046875 16.84375 5.8046875 C 16.21875 6.3046875 15.683333 6.75 14.5 6.75 C 13.264103 6.75 12.760156 6.3085937 12.160156 5.8085938 C 11.560156 5.3085938 10.864103 4.75 9.5 4.75 z M 9.5 10.75 C 8.1833333 10.75 7.46875 11.304686 6.84375 11.804688 C 6.21875 12.304688 5.6833333 12.75 4.5 12.75 C 3.2641026 12.75 2.7601563 12.308594 2.1601562 11.808594 A 0.25 0.25 0 0 0 1.8085938 11.839844 A 0.25 0.25 0 0 0 1.8398438 12.191406 C 2.4398438 12.691406 3.1358974 13.25 4.5 13.25 C 5.8166667 13.25 6.53125 12.695312 7.15625 12.195312 C 7.78125 11.695312 8.3166667 11.25 9.5 11.25 C 10.735897 11.25 11.239844 11.691406 11.839844 12.191406 C 12.439844 12.691406 13.135897 13.25 14.5 13.25 C 15.816667 13.25 16.53125 12.695312 17.15625 12.195312 C 17.78125 11.695312 18.316667 11.25 19.5 11.25 C 20.735897 11.25 21.239844 11.691406 21.839844 12.191406 A 0.25 0.25 0 0 0 22.191406 12.160156 A 0.25 0.25 0 0 0 22.160156 11.808594 C 21.560156 11.308594 20.864103 10.75 19.5 10.75 C 18.183333 10.75 17.46875 11.304686 16.84375 11.804688 C 16.21875 12.304688 15.683333 12.75 14.5 12.75 C 13.264103 12.75 12.760156 12.308594 12.160156 11.808594 C 11.560156 11.308594 10.864103 10.75 9.5 10.75 z M 9.5 16.75 C 8.1833333 16.75 7.46875 17.304688 6.84375 17.804688 C 6.21875 18.304688 5.6833333 18.75 4.5 18.75 C 3.2641026 18.75 2.7601563 18.308594 2.1601562 17.808594 A 0.25 0.25 0 0 0 1.8085938 17.839844 A 0.25 0.25 0 0 0 1.8398438 18.191406 C 2.4398438 18.691406 3.1358974 19.25 4.5 19.25 C 5.8166667 19.25 6.53125 18.695312 7.15625 18.195312 C 7.78125 17.695312 8.3166667 17.25 9.5 17.25 C 10.735897 17.25 11.239844 17.691406 11.839844 18.191406 C 12.439844 18.691406 13.135897 19.25 14.5 19.25 C 15.816667 19.25 16.53125 18.695312 17.15625 18.195312 C 17.78125 17.695312 18.316667 17.25 19.5 17.25 C 20.735897 17.25 21.239844 17.691406 21.839844 18.191406 A 0.25 0.25 0 0 0 22.191406 18.160156 A 0.25 0.25 0 0 0 22.160156 17.808594 C 21.560156 17.308594 20.864103 16.75 19.5 16.75 C 18.183333 16.75 17.46875 17.304688 16.84375 17.804688 C 16.21875 18.304688 15.683333 18.75 14.5 18.75 C 13.264103 18.75 12.760156 18.308594 12.160156 17.808594 C 11.560156 17.308594 10.864103 16.75 9.5 16.75 z " />
</svg>
