<?xml version="1.0" encoding="UTF-8" standalone="no"?>
<svg
   width="24"
   height="24"
   viewBox="0 0 24 24"
   fill="none"
   stroke="currentColor"
   stroke-width="0.5"
   stroke-linecap="round"
   stroke-linejoin="round"
   version="1.1"
   id="svg1"
   sodipodi:docname=".tmp_weight.svg"
   xmlns:inkscape="http://www.inkscape.org/namespaces/inkscape"
   xmlns:sodipodi="http://sodipodi.sourceforge.net/DTD/sodipodi-0.dtd"
   xmlns="http://www.w3.org/2000/svg"
   xmlns:svg="http://www.w3.org/2000/svg">
  <defs
     id="defs1" />
  <sodipodi:namedview
     id="namedview1"
     pagecolor="#ffffff"
     bordercolor="#000000"
     borderopacity="0.25"
     inkscape:showpageshadow="2"
     inkscape:pageopacity="0.0"
     inkscape:pagecheckerboard="0"
     inkscape:deskcolor="#d1d1d1" />
  <path
     id="circle1"
     style="baseline-shift:baseline;display:inline;overflow:visible;vector-effect:none;fill:#000000;stroke:none;stroke-linecap:butt;stroke-linejoin:miter;enable-background:accumulate;stop-color:#000000;stop-opacity:1;opacity:1"
     d="M 12 1.75 C 10.208036 1.75 8.75 3.2080357 8.75 5 C 8.75 6.156456 9.3571699 7.1738357 10.269531 7.75 L 6.5 7.75 A 0.250025 0.250025 0 0 0 6.4980469 7.75 C 5.4991443 7.7603646 4.6231801 8.4307076 4.3535156 9.3925781 L 1.859375 18.433594 A 0.250025 0.250025 0 0 0 1.8574219 18.4375 C 1.4950932 19.839802 2.5479788 21.223636 3.9960938 21.25 A 0.250025 0.250025 0 0 0 4 21.25 L 20 21.25 C 21.483444 21.249466 22.566546 19.820928 22.166016 18.392578 L 19.642578 9.4375 C 19.388137 8.4519105 18.50029 7.7584024 17.482422 7.75 A 0.250025 0.250025 0 0 0 17.480469 7.75 L 13.730469 7.75 C 14.64283 7.1738357 15.25 6.156456 15.25 5 C 15.25 3.2080357 13.791964 1.75 12 1.75 z M 12 2.25 C 13.521744 2.25 14.75 3.4782558 14.75 5 C 14.75 6.5217442 13.521744 7.75 12 7.75 C 10.478256 7.75 9.25 6.5217442 9.25 5 C 9.25 3.4782558 10.478256 2.25 12 2.25 z M 6.5 8.25 L 6.5019531 8.25 L 12 8.25 L 17.480469 8.25 C 18.273475 8.25742 18.959928 8.7944737 19.158203 9.5625 A 0.250025 0.250025 0 0 0 19.160156 9.5683594 L 21.683594 18.527344 C 21.998184 19.649374 21.165311 20.74958 20 20.75 L 4.0039062 20.75 C 2.8686233 20.729331 2.0604814 19.665684 2.3417969 18.566406 L 2.3417969 18.564453 L 2.3417969 18.5625 L 4.8359375 9.5273438 C 5.0460346 8.7779447 5.721918 8.2589266 6.5 8.25 z " />
</svg>
